<svg viewBox="0 0 24 24" xmlns="http://www.w3.org/2000/svg"><g opacity="0.5"><path d="M2.2 6C2.2 5.6 2.6 5.2 3 5.2H20C20.4 5.2 20.8 5.6 20.8 6C20.8 6.4 20.4 6.8 20 6.8H3C2.6 6.8 2.2 6.4 2.2 6ZM2.2 11C2.2 10.6 2.6 10.2 3 10.2H9C9.4 10.2 9.8 10.6 9.8 11C9.8 11.4 9.4 11.8 9 11.8H3C2.6 11.8 2.2 11.4 2.2 11ZM2.2 16C2.2 15.6 2.6 15.2 3 15.2H10C10.4 15.2 10.8 15.6 10.8 16C10.8 16.4 10.4 16.8 10 16.8H3C2.6 16.8 2.2 16.4 2.2 16Z"/></g><path d="M13 11.7C13 13.5 15.2 15.3 16.5 16.3C16.9 16.6 17.2 16.8 17.5 16.8C17.8 16.8 18.1 16.6 18.5 16.3C19.8 15.3 22 13.5 22 11.7C22 9 19.5 8 17.5 10.1C15.5 8 13 9 13 11.7Z"/></svg>