<svg viewBox="0 0 24 24" xmlns="http://www.w3.org/2000/svg"><path d="M6.3 3.5C7.1 2.6 8.2 2 9.5 2H21C21.8 2 22.6 2.4 23.2 3C23.7 3.6 24 4.4 24 5.2V18.8C24 19.6 23.7 20.4 23.2 21C22.6 21.6 21.8 22 21 22H9.5C8.2 22 7.1 21.4 6.3 20.5L.7 13.2C.1 12.5 .1 11.5 .7 10.8L6.3 3.5ZM10.2 7C10.6 6.7 11.3 6.7 11.7 7L14.5 9.9 17.3 7C17.7 6.7 18.3 6.7 18.7 7L19.4 7.8C19.8 8.1 19.8 8.8 19.4 9.2L16.6 12 19.4 14.8C19.8 15.2 19.8 15.8 19.4 16.2L18.7 16.9C18.3 17.3 17.7 17.3 17.3 16.9L14.5 14.1 11.7 16.9C11.3 17.3 10.6 17.3 10.2 16.9L9.5 16.2C9.2 15.8 9.2 15.2 9.5 14.8L12.4 12 9.5 9.2C9.2 8.8 9.2 8.1 9.5 7.8L10.2 7Z" fill-rule="evenodd"/></svg>