<svg xmlns="http://www.w3.org/2000/svg" viewBox="0 0 32 32" xml:space="preserve"><style type="text/css">
	.st0{fill:none;stroke:#000000;stroke-width:2;stroke-linecap:round;stroke-linejoin:round;stroke-miterlimit:10;}
</style><ellipse cx="14" cy="8" rx="11" ry="6"/><path d="M14 24c-4.8 0-8.8-1.4-11-3.6V24c0 3.4 4.8 6 11 6c.9 0 1.8-.1 2.7-.2C15.2 28.3 14.3 26.2 14 24C14 24 14 24 14 24z"/><path d="M3 12.4V16c0 3.4 4.8 6 11 6c0 0 0 0 .1 0c.2-2.4 1.4-4.6 3-6.2c-1 .1-2 .2-3.1 .2C9.2 16 5.2 14.6 3 12.4z"/><path d="M18.3 17.3c-3.1 3.1-3.1 8.2 0 11.3s8.2 3.1 11.3 0s3.1-8.2 0-11.3S21.5 14.2 18.3 17.3zM26.8 21.6L25.4 23l1.4 1.4c.4 .4 .4 1 0 1.4c-.4 .4-1 .4-1.4 0L24 24.4l-1.4 1.4c-.4 .4-1 .4-1.4 0c-.4-.4-.4-1 0-1.4l1.4-1.4-1.4-1.4c-.4-.4-.4-1 0-1.4c.4-.4 1-.4 1.4 0l1.4 1.4 1.4-1.4c.4-.4 1-.4 1.4 0C27.2 20.6 27.2 21.2 26.8 21.6z"/></svg>