<svg viewBox="0 0 24 24" xmlns="http://www.w3.org/2000/svg"><path d="M19.2 7C17.6 4.9 14.3 5.2 13.2 7.6C12.7 8.6 11.3 8.6 10.8 7.6C9.7 5.2 6.4 4.9 4.8 7L4.5 7.4C3.1 9.2 3.3 11.8 5 13.4L11.9 19.9C11.9 19.9 12 19.9 12 20C12 19.9 12.1 19.9 12.1 19.9L19 13.4C20.7 11.8 20.9 9.2 19.5 7.4L19.2 7ZM12 6.6C13.8 3.6 18.2 3.2 20.4 6.1L20.7 6.5C22.6 8.9 22.3 12.4 20.1 14.5L13.1 21C13 21.1 12.9 21.2 12.8 21.3C12.6 21.4 12.5 21.5 12.2 21.5C12.1 21.6 11.9 21.6 11.8 21.5C11.5 21.5 11.4 21.4 11.2 21.3C11.1 21.2 11 21.1 10.9 21L3.9 14.5C1.7 12.4 1.4 8.9 3.3 6.5L3.6 6.1C5.8 3.2 10.2 3.6 12 6.6Z"/></svg>