<?xml version="1.0" encoding="utf-8"?>
<svg viewBox="0 0 128 124" xmlns="http://www.w3.org/2000/svg" xmlns:xlink="http://www.w3.org/1999/xlink">
	<path d="M107.77 15.16c-14.88-14.88-39-14.88-53.88 0c-11.39 11.39-14.05 28.18-8.01 42.11L7.83 95.08a9.11 9.11 0 0 0-2.67 6.76l.44 11.75c2.17 1.22 2.24 5.07 2.24 5.07l9.9.76c2.53.08 4.98-.89 6.76-2.67l3.14-3.14c1.96-1.96 3.07-4.73 2.58-7.45c-.31-1.69.03-3.27 1.1-4.34c1.26-1.26 3.23-1.5 5.26-.87c1.69.53 3.53.19 4.79-1.06l.43-.43c1.71-1.63 1.9-3.52 1.57-5.1c-.51-2.46.37-4.49 1.71-6.29c1.17-1.57 3.4-2.22 5.33-2.25c3.49-.05 5.76-.81 8.23-3.28l5.98-5.95c14.13 6.65 31.49 4.14 43.17-7.54c14.86-14.89 14.86-39.01-.02-53.89zm-13.6 28.22c-4.04 4.04-10.59 4.04-14.62 0c-4.04-4.04-4.04-10.59 0-14.62c4.04-4.04 10.59-4.04 14.62 0c4.04 4.03 4.04 10.58 0 14.62z" />
</svg>
