<svg viewBox="0 0 24 24" xmlns="http://www.w3.org/2000/svg"><path d="M16.2 2H7.8C4.2 2 2 4.2 2 7.8V16.2C2 19.8 4.2 22 7.8 22H16.2C19.8 22 22 19.8 22 16.2V7.8C22 4.2 19.8 2 16.2 2ZM17 17.2H7C6.6 17.2 6.2 16.9 6.2 16.5C6.2 16.1 6.6 15.8 7 15.8H17C17.4 15.8 17.8 16.1 17.8 16.5C17.8 16.9 17.4 17.2 17 17.2ZM17 12.8H7C6.6 12.8 6.2 12.4 6.2 12C6.2 11.6 6.6 11.2 7 11.2H17C17.4 11.2 17.8 11.6 17.8 12C17.8 12.4 17.4 12.8 17 12.8ZM17 8.2H7C6.6 8.2 6.2 7.9 6.2 7.5C6.2 7.1 6.6 6.8 7 6.8H17C17.4 6.8 17.8 7.1 17.8 7.5C17.8 7.9 17.4 8.2 17 8.2Z"/></svg>