<svg xmlns="http://www.w3.org/2000/svg" viewBox="0 0 128 128" xml:space="preserve"><path d="M67 14.5c3.8 2.2 4.8 7.6 2.3 12.1l-46.7 80.8c-2.6 4.5-7.8 6.3-11.6 4.1l0 0c-3.8-2.2-4.8-7.6-2.3-12.1l46.7-80.8C58 14.1 63.2 12.3 67 14.5L67 14.5z"/><path d="M120 106c0 4.4-4.2 8-9.3 8H17.3C12.2 114 8 110.4 8 106l0 0c0-4.4 4.2-8 9.3-8h93.3C115.8 98 120 101.6 120 106L120 106z"/><path d="M117 111.5c-3.8 2.2-9 .4-11.6-4.1L58.7 26.6c-2.6-4.5-1.6-9.9 2.3-12.1l0 0c3.8-2.2 9-.4 11.6 4.1l46.7 80.8C121.8 103.9 120.8 109.3 117 111.5L117 111.5z"/><polygon points="112,104 16,104 64,25 "/></svg>