<svg viewBox="0 0 1920 1920" xmlns="http://www.w3.org/2000/svg"><g fill-rule="evenodd"><path d="M1164.2 160.3h304v337.8L840.3 1126.1c-31.6 31.6-49.7 74.5-49.7 119.7v395.3h395.3c45.2 0 88.1-18.1 119.7-49.7l162.6-162.6V1867H0V160.3h329.1C351.1 98.2 410.3 53.7 480 53.7h533.3c69.7 0 128.9 44.5 150.9 106.7Zm-737.6 53.3c0-29.5 23.9-53.3 53.3-53.3h533.3c29.5 0 53.3 23.9 53.3 53.3v160H426.7v-160Z"/><path d="m1677.6 528.3 225.9 225.9c22 22 22 57.7 0 79.8l-677.6 677.6c-10.6 10.5-25 16.5-40 16.5H903.5v-282.4c0-15 6-29.4 16.5-39.9L1597.6 528.3c22.1-22.1 57.8-22.1 80 0Zm-129.6 209.3 146 146 89.6-89.6-146-146-89.6 89.6Z"/></g></svg>