<svg xmlns="http://www.w3.org/2000/svg" viewBox="0,0,24,24"><path d="M13 9C13 8.4 12.6 8 12 8C11.4 8 11 8.4 11 9V11H9C8.4 11 8 11.4 8 12C8 12.6 8.4 13 9 13H11V15C11 15.6 11.4 16 12 16C12.6 16 13 15.6 13 15V13H15C15.6 13 16 12.6 16 12C16 11.4 15.6 11 15 11H13V9ZM7.2 2.4C8.6 2.1 10.1 2 12 2C13.9 2 15.4 2.1 16.8 2.4C18.1 2.7 19.2 3.2 20 4C20.8 4.8 21.3 5.9 21.6 7.2C21.9 8.6 22 10.1 22 12C22 13.9 21.9 15.4 21.6 16.8C21.3 18.1 20.8 19.2 20 20C19.2 20.8 18.1 21.3 16.8 21.6C15.4 21.9 13.9 22 12 22C10.1 22 8.6 21.9 7.2 21.6C5.9 21.3 4.8 20.8 4 20C3.2 19.2 2.7 18.1 2.4 16.8C2.1 15.4 2 13.9 2 12C2 10.1 2.1 8.6 2.4 7.2C2.7 5.9 3.2 4.8 4 4C4.8 3.2 5.9 2.7 7.2 2.4Z"/></svg>