<svg xmlns="http://www.w3.org/2000/svg" viewBox="0,0,24,24"><path d="M7.2 2.4C8.6 2.1 10.1 2 12 2C13.9 2 15.4 2.1 16.8 2.4C18.1 2.7 19.2 3.2 20 4C20.8 4.8 21.3 5.9 21.6 7.2C21.9 8.6 22 10.1 22 12C22 13.9 21.9 15.4 21.6 16.8C21.3 18.1 20.8 19.2 20 20C19.2 20.8 18.1 21.3 16.8 21.6C15.4 21.9 13.9 22 12 22C10.1 22 8.6 21.9 7.2 21.6C5.9 21.3 4.8 20.8 4 20C3.2 19.2 2.7 18.1 2.4 16.8C2.1 15.4 2 13.9 2 12C2 10.1 2.1 8.6 2.4 7.2C2.7 5.9 3.2 4.8 4 4C4.8 3.2 5.9 2.7 7.2 2.4ZM10.5 6.6C11 5.3 13 5.3 13.5 6.6L14.1 8.4C14.3 8.7 14.6 9 15.1 9L16.5 9C18 9 18.7 10.7 17.7 11.8L16.1 13.3C15.9 13.5 15.8 13.9 15.9 14.2L16.2 16C16.5 17.4 15 18.4 13.9 17.7L12.5 16.8C12.2 16.6 11.8 16.6 11.5 16.8L10.1 17.7C9 18.4 7.5 17.4 7.8 16L8.1 14.2C8.2 13.9 8.1 13.5 7.9 13.3L6.3 11.7C5.3 10.7 6 9 7.4 9L8.9 9C9.4 9 9.7 8.7 9.9 8.4L10.5 6.6Z" fill-rule="evenodd"/></svg>