<svg xmlns="http://www.w3.org/2000/svg" viewBox="0 0 512 512" xml:space="preserve"><style type="text/css"><![CDATA[
	.st0{fill:#000000;}
]]></style><path class="st0" d="M485.3 184.4c-28.3-5.3-48.7-18.9-72.4-36.5c5.2-31.6 29.2-53.2 12.4-70c-13.8-13.8-63.4-3.8-76.6 25c-7.5-4.5-15.5-9.1-24.1-13.6C235.6 42.7 129.6 72.5 83.6 146.9c-9.8-3.2-19.2-7.8-25.9-13.4c-.3-.2-.5-.4-.8-.7c4.4-1.1 8.5-2.8 12.1-5c6.3-3.8 11.5-9.1 14.8-15.3c2.2-4.1 3.5-8.8 3.5-13.7c0-1.5-.1-3.1-.4-4.6c-.6-3.3-1.9-6.4-3.6-9c-1.7-2.6-3.9-4.9-6.3-6.7c-4.9-3.6-10.8-5.5-17-5.5c-5.6-0-11.4 1.6-16.4 5.3c-5 3.6-9 9.2-11.3 16.2c-1.5 4.7-2.3 10-2.3 16c0 .2 0 .5 0 .7c-2.4-2.1-4.8-4.8-7.1-8.2c-2.7-3.9-5.2-8.8-7.4-14.8c-1.6-4.1-6.2-6.2-10.3-4.7c-4.1 1.5-6.2 6.2-4.7 10.3c4 10.5 8.9 18.8 14.5 25.1c5.7 6.3 12.1 10.6 18.8 13c.6 .2 1.1 .3 1.7 .5c.3 .6 .7 1.1 1 1.6c3.5 5.4 8.2 10 13.5 14c7.6 5.6 16.4 10 25.7 13.2c-2.8 5.7-5.2 11.6-7.2 17.8c-15 44.7-10.8 96.7 13.9 139.5l59.7 119.1c2.3 4.6 7 7.5 12.2 7.5H190.1c7.5 0 13.6-6.1 13.6-13.6v-46.4h113.6v46.4c0 7.5 6.1 13.6 13.6 13.6h34.2c5.9 0 11.2-3.8 13-9.5l23-72.1c22.8-12.8 50.4-42.9 63.9-50.3c9.5-5.2 36.3-20.7 36.3-20.7l9.5-75.2C515.1 194.8 508.3 188.7 485.3 184.4zM47.2 118c-.2 0-.3 0-.5 0c-.3-1.2-.5-2.5-.6-3.7c-.1-1.4-.1-2.7-.1-4c0-5.1 .8-9 1.9-12c1.1-3 2.6-4.9 4.1-6.3c1-.9 2.1-1.6 3.2-2.1c1.5-.7 3.2-1 4.8-1c2 0 4.1 .5 5.8 1.4c1.8 .9 3.1 2.1 4.1 3.5c.6 1 1 2 1.2 3.2c.1 .5 .2 1.1 .2 1.7c0 1.4-.3 2.9-.9 4.6c-.6 1.6-1.6 3.3-3 4.9c-2.6 3.2-6.5 6.2-10.9 7.9C53.6 117.4 50.4 118 47.2 118zM147.1 151c-7.6 6.3-16.6 17.6-23.5 31.3c-7 13.7-12.2 29.9-13.4 46.3c-.4 6-5.7 10.5-11.7 10.1c-6-.4-10.5-5.7-10.1-11.7c1.5-19.9 7.6-38.6 15.7-54.6c8.2-16 18.4-29.2 29-38.1c4.6-3.9 11.5-3.2 15.4 1.4C152.3 140.3 151.7 147.1 147.1 151zM188.9 118.6c-3.8 1.9-7.2 4.1-9.7 6.1c-4.7 3.8-11.5 3.2-15.4-1.5c-3.8-4.7-3.2-11.5 1.5-15.4c4.1-3.3 8.8-6.3 13.9-8.8c5.4-2.7 12-.5 14.6 5C196.6 109.4 194.3 116 188.9 118.6zM304.7 273.8c-2.6 4.9-6.2 9-10.8 12.3c-4.6 3.3-10 5.8-16.4 7.5c-2.8 .7-5.7 1.2-8.6 1.6v18.5H246.8v-18.1c-6.3-.5-12.3-1.5-18-3.1c-8.6-2.4-20-11.9-20-11.9c-1-.6-1.6-1.6-1.8-2.7c-.1-1.1 .2-2.2 1-3l11.1-11.1c1.2-1.2 3-1.4 4.5-.5c0 0 8.3 7.2 14.6 8.9c6.3 1.7 12.5 2.6 18.7 2.6c7.8 0 14.3-1.4 19.5-4.2c5.1-2.8 7.7-7.1 7.7-13c0-4.2-1.3-7.6-3.8-10c-2.5-2.4-6.8-4-12.8-4.6l-19.8-1.7c-11.7-1.2-20.8-4.4-27.1-9.8c-6.4-5.4-9.5-13.5-9.5-24.5c0-6 1.2-11.4 3.7-16.2c2.5-4.7 5.8-8.7 10-12c4.2-3.2 9.2-5.7 14.8-7.3c2.3-.7 4.8-1.1 7.3-1.5v-15.9h22.1v15.6c5.2 .5 10.1 1.3 14.6 2.6c7.8 2.1 15.9 8.5 15.9 8.5c1 .5 1.7 1.5 1.9 2.7c.2 1.2-.2 2.3-1 3.1l-10.4 10.5c-1.1 1.1-2.8 1.4-4.2 .7c0 0-6.2-4.4-11.5-5.8c-5.3-1.4-10.9-2.1-16.7-2.1c-7.7 0-13.4 1.5-17 4.4c-3.7 3-5.5 6.8-5.5 11.5c0 4.2 1.3 7.5 3.9 9.8c2.6 2.3 7 3.8 13.2 4.4l17.4 1.5c12.9 1.1 22.6 4.5 29.2 10.2c6.6 5.7 9.9 14 9.9 25C308.6 263.2 307.3 268.9 304.7 273.8zM393.4 233.5c-9.4 0-17-7.6-17-17s7.6-17 17-17c9.4 0 17 7.6 17 17S402.8 233.5 393.4 233.5z"/></svg>