<svg xmlns="http://www.w3.org/2000/svg" viewBox="0,0,24,24"><path d="M9.3 3.8C10.3 1.4 13.7 1.4 14.7 3.8C14.9 4.3 15.4 4.5 15.9 4.3C18.3 3.1 20.9 5.7 19.7 8.1C19.5 8.6 19.7 9.1 20.2 9.3C22.6 10.3 22.6 13.7 20.2 14.7C19.7 14.9 19.5 15.4 19.7 15.9C20.9 18.3 18.3 20.9 15.9 19.7C15.4 19.5 14.9 19.7 14.7 20.2C13.7 22.6 10.3 22.6 9.3 20.2C9.1 19.7 8.6 19.5 8.1 19.7C5.7 20.9 3.1 18.3 4.3 15.9C4.5 15.4 4.3 14.9 3.8 14.7C1.4 13.7 1.4 10.3 3.8 9.3C4.3 9.1 4.5 8.6 4.3 8.1C3.1 5.7 5.7 3.1 8.1 4.3C8.6 4.5 9.1 4.3 9.3 3.8ZM8 12C8 9.8 9.8 8 12 8C14.2 8 16 9.8 16 12C16 14.2 14.2 16 12 16C9.8 16 8 14.2 8 12Z" fill-rule="evenodd"/><path d="M12 10C10.9 10 10 10.9 10 12C10 13.1 10.9 14 12 14C13.1 14 14 13.1 14 12C14 10.9 13.1 10 12 10Z"/></svg>