<svg viewBox="0 0 24 24" xmlns="http://www.w3.org/2000/svg"><path d="M3 0H11C12.7 0 14 1.3 14 3V7H21C22.7 7 24 8.3 24 10V21C24 22.7 22.7 24 21 24H13C11.3 24 10 22.7 10 21V17H3C1.3 17 0 15.7 0 14V3C0 1.3 1.3 0 3 0ZM12 16.8V21C12 21.6 12.4 22 13 22H21C21.6 22 22 21.6 22 21V10C22 9.4 21.6 9 21 9H14V11H16C16 10.4 16.4 10 17 10C17.6 10 18 10.4 18 11H19C19 11 19 11 19 11H20C20.6 11 21 11.4 21 12C21 12.6 20.6 13 20 13H19.8C19.4 14.5 18.9 15.8 18.1 17C18.8 17.8 19.6 18.5 20.6 19.2C21 19.5 21.1 20.1 20.8 20.6C20.5 21 19.9 21.1 19.4 20.8C18.5 20.2 17.6 19.5 16.9 18.7C16.2 19.5 15.5 20.2 14.6 20.8C14.2 21.1 13.5 21 13.2 20.6C12.9 20.2 13 19.5 13.4 19.2C14.2 18.6 15 17.9 15.6 17.1C15.2 16.6 14.9 16 14.6 15.4C14.4 15 14.6 14.4 15.1 14.1C15.5 13.9 16.1 14.1 16.4 14.6C16.5 14.8 16.7 15 16.8 15.3C17.2 14.6 17.5 13.8 17.7 13H14V14C14 15.3 13.2 16.4 12 16.8ZM3 2C2.4 2 2 2.4 2 3V14C2 14.6 2.4 15 3 15H11C11.6 15 12 14.6 12 14V3C12 2.4 11.6 2 11 2H3ZM10.3 13.9C9.8 14.1 9.2 13.8 9.1 13.3L8.4 11.5H5.6L4.9 13.3C4.8 13.8 4.2 14.1 3.7 13.9C3.2 13.8 2.9 13.2 3.1 12.7L6.1 3.7C6.4 2.8 7.6 2.8 7.9 3.7L10.9 12.7C11.1 13.2 10.8 13.8 10.3 13.9ZM7.8 9.5L7 7.2 6.2 9.5H7.8Z"/></svg>