<svg xmlns:svg="http://www.w3.org/2000/svg" xmlns:sodipodi="http://sodipodi.sourceforge.net/DTD/sodipodi-0.dtd" xmlns:inkscape="http://www.inkscape.org/namespaces/inkscape" sodipodi:docname="cogs.svg" inkscape:version="0.48.4 r9939" xmlns="http://www.w3.org/2000/svg" viewBox="0 0 1200 1200" enable-background="new 0 0 1200 1200" xml:space="preserve"><sodipodi:namedview inkscape:cy="236.02069" inkscape:cx="601.80919" inkscape:zoom="0.37249375" showgrid="false" guidetolerance="10" gridtolerance="10" objecttolerance="10" borderopacity="1" bordercolor="#666666" pagecolor="#ffffff" inkscape:current-layer="svg2" inkscape:window-maximized="1" inkscape:window-y="24" inkscape:window-height="876" inkscape:window-width="1535" inkscape:pageshadow="2" inkscape:pageopacity="0" inkscape:window-x="65"/><path inkscape:connector-curvature="0" d="M910.1 91.1l-16.9 81.1c-17.3 2.7-34 7.7-49.7 14.7l-58.2-58.8-66.3 53.7 45.4 69.3c-10.1 13.9-18.4 29.1-24.6 45.5l-82.8-.4-8.9 84.9 81.1 16.9c2.7 17.3 7.7 33.9 14.7 49.5l-58.8 58.4 53.7 66.3 69.3-45.4c13.9 10.1 29.1 18.4 45.5 24.7l-.4 82.8 84.9 8.9 16.8-81.1c17.3-2.7 34-7.7 49.7-14.7l58.3 58.8 66.3-53.7-45.4-69.2c10.1-13.9 18.4-29.1 24.7-45.5l82.8 .3 8.9-84.9-81.1-16.8c-2.7-17.4-7.7-34.1-14.7-49.8l58.8-58.2-53.7-66.3-69.2 45.4c-13.9-10.1-29.2-18.4-45.6-24.7l.4-82.8L910.1 91.1 910.1 91.1zM924.2 288.2c2.7 0 5.4 .1 8.1 .4c43.4 4.6 74.8 43.4 70.2 86.7c-4.6 43.4-43.4 74.8-86.7 70.3c-43.4-4.6-74.8-43.4-70.3-86.7C849.7 318.3 884.2 288.1 924.2 288.2L924.2 288.2zM315.2 295.2l-11.4 112.7c-23.2 6.2-45.2 15.3-65.5 27.1l-87.7-71.7-82.6 82.6 71.7 87.8c-11.8 20.3-20.9 42.3-27.1 65.5L0 610.4v116.8l112.7 11.4c6.2 23.2 15.3 45.1 27.1 65.4l-71.7 87.8 82.6 82.6 87.8-71.7c20.3 11.8 42.2 20.9 65.4 27.1l11.4 112.7h116.8l11.3-112.7c23.2-6.2 45.2-15.3 65.5-27.1l87.8 71.7 82.6-82.6-71.7-87.7c11.8-20.3 20.9-42.3 27.1-65.5l112.7-11.4V610.4L634.5 599.1c-6.2-23.2-15.3-45.2-27.1-65.6l71.7-87.7-82.6-82.5-87.7 71.7c-20.3-11.8-42.3-20.9-65.6-27.1l-11.3-112.7H315.2V295.2zM373.6 560.8c59.6 0 108 48.3 108 108c0 59.6-48.3 108-108 108c-59.6 0-108-48.3-108-108C265.6 609.2 314 560.8 373.6 560.8L373.6 560.8zM869.3 705l-11.9 59.3c-12.2 2-23.9 5.7-34.9 10.8l-41-43-46.6 39.3 31.9 50.7c-7.1 10.1-13 21.3-17.4 33.3l-58.2-.3-6.3 62.1 57 12.4c1.9 12.7 5.4 24.9 10.3 36.3l-41.3 42.7 37.7 48.5 48.7-33.2c9.7 7.4 20.4 13.5 32 18l-.2 60.6 59.6 6.5 11.8-59.3c12.2-2 23.9-5.6 34.9-10.7l41 43 46.6-39.3-32-50.7c7.1-10.1 13-21.3 17.4-33.3l58.2 .2 6.2-62-57-12.4c-1.9-12.7-5.4-24.9-10.3-36.4l41.3-42.6-37.7-48.6-48.6 33.2c-9.7-7.4-20.5-13.4-32-18l.3-60.5L869.3 705 869.3 705zM879.2 849.2c1.9 0 3.8 .1 5.7 .3c30.5 3.3 52.5 31.7 49.3 63.5c-3.2 31.7-30.4 54.7-60.9 51.4s-52.6-31.7-49.4-63.5C826.8 871.2 851 849.1 879.2 849.2L879.2 849.2z"/></svg>