<svg viewBox="0 0 24 24" xmlns="http://www.w3.org/2000/svg"><path d="M4.2 3.2C3 4.3 3 6.2 3 10V14C3 17.8 3 19.7 4.2 20.8C5.3 22 7.2 22 11 22H13C16.8 22 18.7 22 19.8 20.8C21 19.7 21 17.8 21 14V10C21 6.2 21 4.3 19.8 3.2C18.7 2 16.8 2 13 2H11C7.2 2 5.3 2 4.2 3.2ZM7.2 8C7.2 7.6 7.6 7.2 8 7.2H16C16.4 7.2 16.8 7.6 16.8 8C16.8 8.4 16.4 8.8 16 8.8H8C7.6 8.8 7.2 8.4 7.2 8ZM7.2 12C7.2 11.6 7.6 11.2 8 11.2H16C16.4 11.2 16.8 11.6 16.8 12C16.8 12.4 16.4 12.8 16 12.8H8C7.6 12.8 7.2 12.4 7.2 12ZM8 15.2C7.6 15.2 7.2 15.6 7.2 16C7.2 16.4 7.6 16.8 8 16.8H13C13.4 16.8 13.8 16.4 13.8 16C13.8 15.6 13.4 15.2 13 15.2H8Z" fill-rule="evenodd"/></svg>