<svg viewBox="0 0 24 24" xmlns="http://www.w3.org/2000/svg"><rect width="24" height="24" fill="none"/><path d="M20 6H4A2 2 0 002 8v8a2 2 0 002 2H20a2 2 0 002-2V8A2 2 0 0020 6ZM9.3 14.8 9 13.7H7.2L6.9 14.8H5.2L7 9.1H9.1L11 14.8Zm6.3-3.1a1.7 1.7 0 01-.36.6 1.8 1.8 0 01-.67.4 2.8 2.8 0 01-1 .17h-.44V14.8H11.6V9.1h2a2.4 2.4 0 011.662.5 1.7 1.7 0 01.55 1.4A2.4 2.4 0 0115.6 11.7Zm2.6 3.1H16.7V9.1h1.6ZM8.4 11.5l.24.9H7.5l.24-.93c0-.13.1-.28.1-.47s.09-.38.1-.57a4.6 4.6 0 00.1-.48c0 .13.17.329.111.5l.15.6Zm5.6-1a.57.6 0 01.16.443.875.8 0 01-.11.442.659.6 0 01-.27.222.99.9 0 01-.37.1h-.31V10.3h.4A.63.6 0 0114 10.5Z"/></svg>