<svg viewBox="0 0 32 32" xml:space="preserve" xmlns="http://www.w3.org/2000/svg" fill-rule="evenodd" clip-rule="evenodd" stroke-linejoin="round" stroke-miterlimit="2"><path d="M30 8c0-1.7-1.3-3-3-3l-22 0c-1.7 0-3 1.3-3 3c0 3.3 0 9.7 0 13c0 1.7 1.3 3 3 3l6.7 0c0 0 3.7 2.8 3.7 2.8c.4 .3 .8 .3 1.2 0l3.7-2.8 6.7 0c1.7 0 3-1.3 3-3l0-13Zm-20.4 9.5l2.9 0 .6 1.8c.2 .5 .7 .8 1.3 .6c.5-.2 .8-.7 .6-1.3l-3-9c-.1-.4-.5-.7-.9-.7c-.4 0-.8 .3-.9 .7l-3 9c-.2 .5 .1 1.1 .6 1.3c.5 .2 1.1-.1 1.3-.6l.6-1.8Zm10.4-7l-2 0c-.6 0-1 .4-1 1c0 .6 .4 1 1 1l2 0c0 .5 0 1 0 1.6c0 .2-.1 .5-.1 .7c-.2 1.3-.8 2.6-2.3 3.3c-.5 .2-.7 .8-.5 1.3c.2 .5 .8 .7 1.3 .5c1.2-.5 2-1.4 2.6-2.3c.6 .9 1.4 1.8 2.6 2.3c.5 .2 1.1 0 1.3-.5c.2-.5 0-1.1-.5-1.3c-1.5-.7-2.1-2-2.3-3.3c0-.2-.1-.5-.1-.7c0-.6 0-1.2 0-1.6l2 0c.6 0 1-.4 1-1c0-.6-.4-1-1-1l-2 0 0-.5c0-.6-.4-1-1-1c-.6 0-1 .4-1 1l0 .5Zm-9.8 5l1.6 0-.8-2.3-.8 2.3Z"/></svg>