<svg xmlns="http://www.w3.org/2000/svg" viewBox="0 0 183.899 183.899" xml:space="preserve"><path d="M171.2 79c-3.2-11.5-12.3-19.8-23.2-19.8c-.1 0-.2 0-.4 0c-1.8-21.8-17.3-38.9-36.5-38.9c-10.8 0-20.4 5.5-27.1 14.1c-4.3-4.1-9.6-6.7-15.6-6.7c-13.3 0-24.2 12.4-24.5 27.9c-2.3-1-4.9-1.7-7.5-1.7c-11.8 0-21.3 11.1-21.3 24.8C6.7 78.7 0 86.6 0 96.3c0 9.7 6.7 17.5 15.1 17.5c.3 0 12 0 28.7 0v-13.1c0-6.3 5.2-11.5 11.5-11.5h4.2V69.3c0-6.3 5.2-11.5 11.5-11.5c6.3 0 11.5 5.1 11.5 11.5v20h19V69.3c0-6.3 5.2-11.5 11.5-11.5c6.3 0 11.5 5.1 11.5 11.5v20h4.2c6.3 0 11.5 5.1 11.5 11.5v13.1c16.8 0 28.5 0 28.7 0c8.3 0 15.1-7.8 15.1-17.5C183.9 87.5 178.4 80.3 171.2 79z"/><path d="M128.6 95.5H118.2V69.3c0-2.9-2.4-5.2-5.3-5.2c-2.9 0-5.2 2.3-5.2 5.2v26.2H76.2V69.3c0-2.9-2.3-5.2-5.2-5.2c-2.9 0-5.3 2.3-5.3 5.2v26.2H55.3c-2.9 0-5.3 2.4-5.3 5.2v26.2c0 5.8 4.7 10.5 10.5 10.5h21v15.7c0 5.8 4.7 10.5 10.5 10.5c5.8 0 10.5-4.7 10.5-10.5v-15.7h21c5.8 0 10.5-4.7 10.5-10.5v-26.2C133.9 97.8 131.5 95.5 128.6 95.5z"/></svg>