<svg xmlns="http://www.w3.org/2000/svg" viewBox="0,0,24,24"><path d="M21 7C21 5.3 19.7 4 18.1 3.3C16.5 2.5 14.3 2 12 2C9.7 2 7.5 2.5 5.9 3.3C4.3 4 3 5.3 3 7V17C3 18.7 4.3 20 5.9 20.7C7.5 21.5 9.7 22 12 22C14.3 22 16.5 21.5 18.1 20.7C19.7 20 21 18.7 21 17V7ZM5.1 14.2C5.4 13.7 6 13.5 6.5 13.8C7.8 14.5 9.7 15 12 15C14.3 15 16.2 14.5 17.5 13.8C18 13.5 18.6 13.7 18.9 14.2C19.1 14.6 19 15.2 18.5 15.5C16.8 16.4 14.5 17 12 17C9.5 17 7.2 16.4 5.5 15.5C5 15.2 4.9 14.6 5.1 14.2ZM6.5 8.8C6 8.5 5.4 8.7 5.1 9.2C4.9 9.6 5 10.2 5.5 10.5C7.2 11.4 9.5 12 12 12C14.5 12 16.8 11.4 18.5 10.5C19 10.2 19.1 9.6 18.9 9.2C18.6 8.7 18 8.5 17.5 8.8C16.2 9.5 14.3 10 12 10C9.7 10 7.8 9.5 6.5 8.8Z" fill-rule="evenodd"/></svg>