<svg xmlns="http://www.w3.org/2000/svg" viewBox="0,0,24,24"><path d="M8 12C8 9.8 9.8 8 12 8C14.2 8 16 9.8 16 12C16 14.2 14.2 16 12 16C9.8 16 8 14.2 8 12Z"/><path d="M12 2C12.6 2 13 2.4 13 3V5C13 5.6 12.6 6 12 6C11.4 6 11 5.6 11 5V3C11 2.4 11.4 2 12 2Z"/><path d="M19.7 4.3C20.1 4.7 20.1 5.3 19.7 5.7L17.7 7.7C17.3 8.1 16.7 8.1 16.3 7.7C15.9 7.3 15.9 6.7 16.3 6.3L18.3 4.3C18.7 3.9 19.3 3.9 19.7 4.3Z"/><path d="M18 12C18 11.4 18.4 11 19 11H21C21.6 11 22 11.4 22 12C22 12.6 21.6 13 21 13H19C18.4 13 18 12.6 18 12Z"/><path d="M16.3 16.3C16.7 15.9 17.3 15.9 17.7 16.3L19.7 18.3C20.1 18.7 20.1 19.3 19.7 19.7C19.3 20.1 18.7 20.1 18.3 19.7L16.3 17.7C15.9 17.3 15.9 16.7 16.3 16.3Z"/><path d="M12 18C12.6 18 13 18.4 13 19V21C13 21.6 12.6 22 12 22C11.4 22 11 21.6 11 21V19C11 18.4 11.4 18 12 18Z"/><path d="M7.7 16.3C8.1 16.7 8.1 17.3 7.7 17.7L5.7 19.7C5.3 20.1 4.7 20.1 4.3 19.7C3.9 19.3 3.9 18.7 4.3 18.3L6.3 16.3C6.7 15.9 7.3 15.9 7.7 16.3Z"/><path d="M2 12C2 11.4 2.4 11 3 11H5C5.6 11 6 11.4 6 12C6 12.6 5.6 13 5 13H3C2.4 13 2 12.6 2 12Z"/><path d="M4.3 4.3C4.7 3.9 5.3 3.9 5.7 4.3L7.7 6.3C8.1 6.7 8.1 7.3 7.7 7.7C7.3 8.1 6.7 8.1 6.3 7.7L4.3 5.7C3.9 5.3 3.9 4.7 4.3 4.3Z"/></svg>