<svg xmlns="http://www.w3.org/2000/svg" viewBox="0,0,24,24"><path d="M11 4C10.4 4 10 4.4 10 5V8H15.1C16 8 16.7 8 17.3 8.1C18 8.2 18.6 8.4 19.1 8.9C19.6 9.4 19.8 10 19.9 10.7C20 11.3 20 12 20 12.9V17.1C20 18 20 18.7 19.9 19.3C19.8 20 19.6 20.6 19.1 21.1C18.6 21.6 18 21.8 17.3 21.9C16.7 22 16 22 15.1 22H8.9C8 22 7.3 22 6.7 21.9C6 21.8 5.4 21.6 4.9 21.1C4.4 20.6 4.2 20 4.1 19.3C4 18.7 4 18 4 17.1V12.9C4 12 4 11.3 4.1 10.7C4.2 10 4.4 9.4 4.9 8.9C5.4 8.4 6 8.2 6.7 8.1C7.1 8 7.5 8 8 8V5C8 3.3 9.3 2 11 2H13.1C14.7 2 16 3.3 16 4.9V5C16 5.6 15.6 6 15 6C14.4 6 14 5.6 14 5V4.9C14 4.4 13.6 4 13.1 4H11ZM12 13C10.9 13 10 13.9 10 15C10 16.1 10.9 17 12 17C13.1 17 14 16.1 14 15C14 13.9 13.1 13 12 13Z"/></svg>