<svg xmlns="http://www.w3.org/2000/svg" viewBox="0 0 128 128" xml:space="preserve"><path d="M81.291 27.718c2.68 0 4.462-1.783 4.462-4.463l-.012-1.408c0 0-.663-3.99 4.66-3.99l21.558 .148v5.693c1.046 1.042 2.742 1.042 3.787 0l8.328-8.325c1.041-1.048 1.041-2.745 0-3.787l-8.328-8.819c-1.045-1.042-2.741-1.042-3.787 0v5.971C111.438 8.587 91.074 8.5 91.074 8.5c-12.01 0-14.639 7.862-14.639 11.026v3.337C76.436 25.543 78.611 27.718 81.291 27.718L81.291 27.718z"/><path d="M88.665 20.126c-.271 .104-.502 .229-.646 .392c-.367 .413-.299 1.036-.298 1.042l.013 .108 .008 .161 .012 1.408c0 2.53-1.169 4.543-3.059 5.62c.51 .272 1.014 .551 1.507 .843c.312-.064 .631-.101 .956-.101c1.249 0 2.423 .485 3.305 1.366l.586 .585 .002 1.588c.858 .723 1.683 1.483 2.464 2.288h13.189C102.452 29.082 96.421 23.809 88.665 20.126z"/><path d="M110.218 48.825h-8.769c1.274 4.006 1.962 8.494 1.962 13.474c0 17.242-5.183 27.61-13.316 27.61c-3.651 0-5.048-1.956-5.048-6.863h-.012V55.072c-.43-.221-.836-.49-1.188-.841l-8.324-8.324c-1.107-1.106-1.531-2.638-1.292-4.079h-.971l-4.071 7.43c-2.372-5.327-7.699-8.692-16.25-8.692c-16.121 0-25.099 11.776-25.099 30.84c0 18.919 10.234 28.317 22.43 28.317c9.118 0 15.846-2.95 18.369-12.623c.841 8.698 7.283 12.623 17.103 12.623c21.588 0 28.451-16.683 28.451-38.551c0-4.311-.533-8.483-1.564-12.452C111.864 48.789 111.062 48.825 110.218 48.825zM67.812 74.354c0 8.132-5.896 11.075-10.521 11.075c-6.583 0-10.928-5.468-10.928-15.28c0-12.341 5.741-16.541 10.928-16.541c4.767 0 10.521 3.229 10.521 10.934V74.354z"/><path d="M62.893 117.251c-30.141 0-49.765-16.262-49.765-46.12c0-31.261 22.436-47.802 47.101-47.802c5.126 0 10.032 .582 14.581 1.746c-.238-.695-.373-1.437-.373-2.211v-3.337c0-.952 .21-2.304 .762-3.778c-4.561-.907-9.502-1.396-14.829-1.396c-33.784 0-58.321 22.99-58.321 56.774c0 33.504 21.173 55.232 60.704 55.232c8.546 0 19.632-.977 30.005-4.346l-2.254-9.387C79.994 116.129 73.125 117.251 62.893 117.251z"/><path d="M120.002 27.851c-2.681 0-4.854 1.89-4.854 4.57l.007 3.097c-.146 1.155-2.088 1.91-4.937 1.91H89.055l-.006-5.046c-1.043-1.042-2.738-1.042-3.787 0l-8.324 8.324c-1.042 1.049-1.042 2.745 0 3.787l8.324 8.324c1.049 1.049 2.744 1.049 3.787 0l.006-5.991h21.163c12.011 0 14.639-7.903 14.639-11.071v-3.337C124.856 29.74 122.682 27.851 120.002 27.851L120.002 27.851z"/></svg>