<svg xmlns="http://www.w3.org/2000/svg" viewBox="0 0 128 128" xml:space="preserve"><path d="M11.418 23.478c1.063-7.854 7.993-12.812 15.196-12.812h13.698c6.887 0 13.001 4.407 15.179 10.94l5.597 16.791c2.405 7.217-1.842 14.955-9.222 16.8c-1.805 .451-2.427 2.698-1.112 4.014l18.034 18.034c1.315 1.315 3.563 .692 4.015-1.111c1.845-7.381 9.582-11.628 16.799-9.223l16.791 5.598c6.533 2.178 10.941 8.291 10.941 15.178v13.699c0 7.202-4.959 14.133-12.813 15.195c-3.66 .496-7.396 .752-11.188 .752c-45.656 0-82.667-37.012-82.667-82.667C10.667 30.875 10.922 27.139 11.418 23.478z"/><path d="M81.291 27.718c2.68 0 4.462-1.783 4.462-4.463l-.012-1.408c0 0-.663-3.99 4.66-3.99l21.558 .148v5.693c1.046 1.042 2.742 1.042 3.787 0l8.328-8.325c1.041-1.048 1.041-2.745 0-3.787l-8.328-8.819c-1.045-1.042-2.741-1.042-3.787 0v5.971C111.438 8.587 91.074 8.5 91.074 8.5c-12.01 0-14.639 7.862-14.639 11.026v3.337C76.436 25.543 78.611 27.718 81.291 27.718L81.291 27.718z"/><path d="M120.002 27.851c-2.681 0-4.854 1.89-4.854 4.57l.007 3.097c-.146 1.155-2.088 1.91-4.937 1.91H89.055l-.006-5.046c-1.043-1.042-2.738-1.042-3.787 0l-8.324 8.324c-1.042 1.049-1.042 2.745 0 3.787l8.324 8.324c1.049 1.049 2.744 1.049 3.787 0l.006-5.991h21.163c12.011 0 14.639-7.903 14.639-11.071v-3.337C124.856 29.74 122.682 27.851 120.002 27.851L120.002 27.851z"/></svg>