<svg xmlns="http://www.w3.org/2000/svg" viewBox="0,0,24,24"><path d="M5 9.5C5 7 7 5 9.5 5C12 5 14 7 14 9.5C14 12 12 14 9.5 14C7 14 5 12 5 9.5Z"/><path d="M4.6 15.7C5.9 15.2 7.5 15 9.5 15C11.5 15 13.1 15.2 14.4 15.7C15.7 16.3 16.5 17.3 17 18.7C17.2 19.3 16.7 20 16 20H3C2.4 20 1.8 19.3 2 18.7C2.5 17.3 3.3 16.3 4.6 15.7Z"/><path d="M19 3C19 2.4 18.6 2 18 2C17.4 2 17 2.4 17 3V5H15C14.4 5 14 5.4 14 6C14 6.6 14.4 7 15 7H17V9C17 9.6 17.4 10 18 10C18.6 10 19 9.6 19 9V7H21C21.6 7 22 6.6 22 6C22 5.4 21.6 5 21 5H19V3Z"/></svg>