<svg xmlns="http://www.w3.org/2000/svg" viewBox="0 0 128 128" xml:space="preserve"><path d="M11.418 23.478c1.063-7.854 7.993-12.812 15.196-12.812h13.698c6.887 0 13.001 4.407 15.179 10.94l5.597 16.791c2.405 7.217-1.842 14.955-9.222 16.8c-1.805 .451-2.427 2.698-1.112 4.014l18.034 18.034c1.315 1.315 3.563 .692 4.015-1.111c1.845-7.381 9.582-11.628 16.799-9.223l16.791 5.598c6.533 2.178 10.941 8.291 10.941 15.178v13.699c0 7.202-4.959 14.133-12.813 15.195c-3.66 .496-7.396 .752-11.188 .752c-45.656 0-82.667-37.012-82.667-82.667C10.667 30.875 10.922 27.139 11.418 23.478z"/><path d="M126.375 25.375c0 3.313-2.687 6-6 6h-36c-3.313 0-6-2.687-6-6l0 0c0-3.313 2.687-6 6-6h36C123.688 19.375 126.375 22.062 126.375 25.375L126.375 25.375z"/><path d="M102.375 1.375c3.313 0 6 2.687 6 6v36c0 3.313-2.687 6-6 6l0 0c-3.313 0-6-2.687-6-6v-36C96.375 4.062 99.062 1.375 102.375 1.375L102.375 1.375z"/></svg>