<svg xmlns="http://www.w3.org/2000/svg" viewBox="0 0 128 128" xml:space="preserve"><path d="M91.319 33.375c1.081 .93 2.101 1.927 3.056 2.988v-2.988H91.319z"/><path d="M62.893 117.251c-30.141 0-49.765-16.262-49.765-46.12c0-31.261 22.436-47.802 47.101-47.802c5.724 0 11.17 .728 16.154 2.181c-.001-.045-.007-.089-.007-.134c0-3.725 2.563-6.854 6.014-7.74c-6.412-2.11-13.754-3.284-22.02-3.284c-33.784 0-58.321 22.99-58.321 56.774c0 33.504 21.173 55.232 60.704 55.232c8.546 0 19.632-.977 30.005-4.346l-2.254-9.387C79.994 116.129 73.125 117.251 62.893 117.251z"/><path d="M110.375 43.375c0 4.411-3.589 8-8 8c-.074 0-.146-.009-.221-.011c.816 3.34 1.257 6.98 1.257 10.936c0 17.242-5.183 27.61-13.316 27.61c-3.651 0-5.048-1.956-5.048-6.863h-.012V41.827H73.261l-4.071 7.43c-2.372-5.327-7.699-8.692-16.25-8.692c-16.121 0-25.099 11.776-25.099 30.84c0 18.919 10.234 28.317 22.43 28.317c9.118 0 15.846-2.95 18.369-12.623c.841 8.698 7.283 12.623 17.103 12.623c21.588 0 28.451-16.683 28.451-38.551c0-6.762-1.294-13.191-3.818-19.005V43.375zM67.812 74.354c0 8.132-5.896 11.075-10.521 11.075c-6.583 0-10.928-5.468-10.928-15.28c0-12.341 5.741-16.541 10.928-16.541c4.767 0 10.521 3.229 10.521 10.934V74.354z"/><path d="M120.375 19.375h-12v-12c0-3.313-2.687-6-6-6s-6 2.687-6 6v12h-12c-3.313 0-6 2.687-6 6s2.687 6 6 6h12v12c0 3.313 2.687 6 6 6s6-2.687 6-6v-12h12c3.313 0 6-2.687 6-6S123.688 19.375 120.375 19.375z"/></svg>