<?xml version="1.0" encoding="iso-8859-1"?>
<!-- Uploaded to: SVG Repo, www.svgrepo.com, Generator: SVG Repo Mixer Tools -->
<svg height="800px" width="800px" version="1.1" id="Layer_1" xmlns="http://www.w3.org/2000/svg" xmlns:xlink="http://www.w3.org/1999/xlink" 
	 viewBox="0 0 512 512" xml:space="preserve">
<path style="fill:#464548;" d="M184.409,100.364C170.09,63.043,127.66,47.199,90.226,33.22
	c-18.678-6.975-36.319-13.562-47.194-21.597L27.3,0l-7.62,18.014c-7.665,18.123-23.228,65.548-2.238,114.382
	c16.658,38.753,52.175,68.552,105.564,88.567L184.409,100.364z"/>
<path style="fill:#333333;" d="M169.097,130.438c-9.342-24.349-56.789-56.074-89.653-68.345C66.265,57.172,53.551,52.425,42.35,46.9
	c-4.816,18.059-8.373,45.915,3.409,73.325c13.215,30.742,42.845,54.925,88.068,71.88L169.097,130.438z"/>
<path style="fill:#343336;" d="M327.592,100.365c14.319-37.321,56.749-53.165,94.183-67.144
	c18.678-6.974,36.319-13.561,47.194-21.597L484.7,0l7.62,18.013c7.665,18.123,23.228,65.548,2.238,114.382
	c-16.658,38.753-52.175,68.552-105.564,88.567L327.592,100.365"/>
<path style="fill:#262626;" d="M342.903,130.439c9.342-24.35,56.789-56.074,89.653-68.346c13.18-4.921,25.893-9.668,37.095-15.193
	c4.815,18.058,8.374,45.914-3.41,73.325c-13.215,30.742-42.845,54.925-88.067,71.88L342.903,130.439"/>
<path style="fill:#464548;" d="M256,512c-6.406,0-40.209-0.548-76.633-11.357c-41.982-12.458-70.219-33.279-83.927-61.884
	c-17.147-35.778-5.95-86.835,4.878-136.211c5.805-26.477,11.29-51.486,11.29-70.162c0-72.72,25.613-117.343,47.1-141.972
	C185.425,59.791,220.886,42.227,256,42.227s70.576,17.563,97.291,48.186c21.487,24.628,47.1,69.251,47.1,141.972
	c0,18.676,5.485,43.684,11.29,70.162c10.829,49.376,22.026,100.432,4.878,136.211c-13.709,28.604-41.945,49.425-83.927,61.883
	C296.21,511.452,262.406,512,256,512"/>
<path style="fill:#D8D9DD;" d="M175.723,397.32c-26.736,0-55.92-10.045-80.065-27.561c-29.006-21.042-49.746-51.653-59.975-88.525
	l29.698-8.239c8.345,30.079,25.072,54.914,48.373,71.817c19.001,13.784,41.586,21.688,61.968,21.688v30.821H175.723z"/>
<g>
	<path style="fill:#211915;" d="M184.493,195.154c0-11.319,9.073-20.486,20.224-20.486c11.164,0,20.236,9.167,20.236,20.486
		c0,11.317-9.072,20.492-20.236,20.492C193.566,215.646,184.493,206.472,184.493,195.154z"/>
	<path style="fill:#211915;" d="M327.512,195.155c0-11.402-9.132-20.645-20.375-20.645c-11.259,0-20.39,9.243-20.39,20.645
		c0,11.402,9.132,20.645,20.39,20.645C318.381,215.8,327.512,206.557,327.512,195.155"/>
</g>
<path style="fill:#D37B93;" d="M256,453.176c-22.955,0-44.683-6.977-61.183-19.647c-17.619-13.528-27.321-31.86-27.321-51.619
	s9.703-38.091,27.321-51.619c16.5-12.669,38.228-19.647,61.183-19.647s44.684,6.978,61.184,19.647
	c17.618,13.528,27.321,31.861,27.321,51.619c0,19.76-9.703,38.092-27.321,51.619C300.683,446.199,278.955,453.176,256,453.176"/>
<g>
	<path style="fill:#333333;" d="M219.189,381.91c0-6.796,5.447-12.298,12.141-12.298c6.702,0,12.148,5.503,12.148,12.298
		c0,6.794-5.446,12.302-12.148,12.302C224.636,394.212,219.189,388.704,219.189,381.91z"/>
	<path style="fill:#333333;" d="M292.811,381.909c0-6.845-5.482-12.394-12.232-12.394c-6.759,0-12.242,5.549-12.242,12.394
		c0,6.846,5.483,12.394,12.242,12.394C287.33,394.304,292.811,388.755,292.811,381.909"/>
</g>
<path style="fill:#BDBDBF;" d="M332.633,500.643C296.212,511.451,262.411,511.999,256,512l0,0
	C262.407,512,296.21,511.452,332.633,500.643 M416.649,438.573c-0.029,0.062-0.06,0.125-0.089,0.187
	C416.59,438.698,416.619,438.635,416.649,438.573 M416.75,438.361c-0.028,0.06-0.054,0.116-0.083,0.175
	C416.694,438.478,416.722,438.419,416.75,438.361 M416.853,438.142c-0.027,0.058-0.054,0.116-0.081,0.174
	C416.798,438.258,416.826,438.199,416.853,438.142 M416.943,437.947c-0.025,0.052-0.047,0.102-0.072,0.154
	C416.896,438.049,416.919,437.998,416.943,437.947 M417.041,437.735c-0.027,0.058-0.052,0.115-0.079,0.172
	C416.988,437.85,417.015,437.793,417.041,437.735 M417.14,437.519c-0.025,0.055-0.05,0.11-0.075,0.164
	C417.09,437.629,417.115,437.575,417.14,437.519 M417.235,437.313c-0.022,0.048-0.044,0.098-0.067,0.146
	C417.191,437.409,417.212,437.361,417.235,437.313 M417.321,437.12c-0.018,0.042-0.036,0.08-0.054,0.122
	C417.284,437.202,417.304,437.16,417.321,437.12 M417.421,436.899c-0.022,0.048-0.044,0.099-0.066,0.147
	C417.376,436.996,417.398,436.947,417.421,436.899 M417.517,436.68c-0.021,0.046-0.041,0.094-0.063,0.141
	C417.475,436.775,417.497,436.726,417.517,436.68 M417.596,436.501c-0.012,0.029-0.025,0.057-0.038,0.085
	C417.571,436.558,417.583,436.529,417.596,436.501 M417.691,436.283c-0.009,0.023-0.021,0.047-0.031,0.07
	C417.671,436.33,417.682,436.306,417.691,436.283 M417.85,435.915c-0.004,0.009-0.005,0.011-0.009,0.021
	C417.844,435.929,417.848,435.921,417.85,435.915 M417.952,435.677c-0.001,0.002-0.002,0.005-0.003,0.007
	C417.95,435.683,417.951,435.68,417.952,435.677 M400.392,232.048c0,0.111,0,0.228,0,0.339c0,18.676,5.485,43.684,11.29,70.162
	c0.033,0.151,0.066,0.3,0.099,0.451c-0.033-0.15-0.066-0.3-0.099-0.451c-5.805-26.477-11.29-51.486-11.29-70.162
	C400.392,232.274,400.392,232.161,400.392,232.048 M492.671,136.576c-0.002,0.005-0.003,0.008-0.006,0.012
	C492.667,136.584,492.669,136.58,492.671,136.576 M492.765,136.374l-0.001,0.001L492.765,136.374 M493.444,134.908
	c-0.008,0.018-0.017,0.038-0.026,0.057C493.427,134.947,493.436,134.926,493.444,134.908 M493.542,134.694
	c-0.01,0.024-0.022,0.047-0.032,0.071C493.52,134.741,493.532,134.717,493.542,134.694 M493.642,134.473
	c-0.012,0.028-0.026,0.058-0.039,0.086C493.616,134.53,493.629,134.5,493.642,134.473 M493.739,134.256
	c-0.013,0.031-0.028,0.062-0.041,0.092C493.711,134.318,493.726,134.287,493.739,134.256 M493.84,134.033
	c-0.015,0.035-0.031,0.068-0.046,0.103C493.809,134.101,493.823,134.068,493.84,134.033 M493.936,133.815
	c-0.015,0.035-0.032,0.071-0.047,0.107C493.905,133.886,493.921,133.85,493.936,133.815 M494.035,133.591
	c-0.016,0.038-0.034,0.077-0.05,0.115C494.001,133.668,494.019,133.628,494.035,133.591 M494.132,133.372
	c-0.016,0.038-0.035,0.079-0.051,0.117C494.098,133.449,494.114,133.411,494.132,133.372 M494.232,133.144
	c-0.018,0.042-0.037,0.084-0.055,0.127C494.194,133.23,494.214,133.185,494.232,133.144 M494.331,132.916
	c-0.021,0.047-0.039,0.09-0.06,0.138C494.292,133.008,494.311,132.963,494.331,132.916 M494.435,132.679
	c-0.023,0.052-0.045,0.105-0.068,0.156C494.389,132.783,494.411,132.731,494.435,132.679 M494.557,132.395
	c-0.032,0.073-0.064,0.147-0.096,0.22C494.493,132.543,494.525,132.468,494.557,132.395 M260.399,42.32
	c0.006,0,0.014,0.001,0.021,0.001C260.412,42.321,260.406,42.321,260.399,42.32 M260.212,42.313c0.01,0,0.022,0.001,0.033,0.001
	C260.234,42.314,260.223,42.313,260.212,42.313 M260.024,42.306c0.012,0,0.03,0.001,0.042,0.002
	C260.051,42.307,260.038,42.306,260.024,42.306 M259.524,42.287c0.008,0,0.019,0.001,0.027,0.001
	C259.544,42.288,259.531,42.288,259.524,42.287 M259.327,42.281c0.03,0.001,0.059,0.002,0.088,0.003
	C259.385,42.283,259.355,42.282,259.327,42.281 M259.134,42.276c0.032,0.001,0.065,0.002,0.097,0.003
	C259.199,42.277,259.165,42.276,259.134,42.276 M258.94,42.27c0.034,0.001,0.065,0.002,0.099,0.003
	C259.006,42.272,258.974,42.271,258.94,42.27 M258.746,42.264c0.034,0.001,0.065,0.002,0.099,0.003
	C258.813,42.267,258.779,42.265,258.746,42.264 M258.497,42.258c0.053,0.001,0.106,0.003,0.159,0.004
	C258.603,42.26,258.551,42.259,258.497,42.258 M258.281,42.253c0.055,0.001,0.112,0.002,0.167,0.004
	C258.393,42.256,258.335,42.254,258.281,42.253 M258.087,42.249c0.036,0.001,0.078,0.002,0.114,0.002
	C258.165,42.251,258.124,42.25,258.087,42.249 M257.89,42.246c0.039,0.001,0.078,0.001,0.116,0.002
	C257.968,42.247,257.929,42.246,257.89,42.246 M257.688,42.242c0.041,0.001,0.085,0.001,0.125,0.002
	C257.771,42.244,257.73,42.243,257.688,42.242 M257.483,42.239c0.045,0.001,0.095,0.001,0.14,0.002
	C257.576,42.241,257.532,42.24,257.483,42.239 M257.039,42.234c0.128,0.001,0.26,0.003,0.388,0.004
	C257.298,42.237,257.169,42.235,257.039,42.234 M256.843,42.233c0.049,0,0.1,0.001,0.149,0.001
	C256.943,42.233,256.893,42.233,256.843,42.233 M256.651,42.231c0.045,0,0.087,0.001,0.133,0.001
	C256.74,42.232,256.695,42.231,256.651,42.231 M256.453,42.23c0.045,0,0.085,0,0.13,0.001
	C256.539,42.231,256.496,42.23,256.453,42.23 M256.25,42.23c0.045,0,0.092,0,0.138,0C256.342,42.23,256.296,42.23,256.25,42.23
	 M256,42.229L256,42.229c0.064,0,0.128,0,0.193,0C256.129,42.229,256.065,42.229,256,42.229 M420.616,33.653
	c-0.027,0.01-0.05,0.018-0.077,0.029C420.564,33.672,420.59,33.663,420.616,33.653 M421.078,33.48
	c-0.115,0.043-0.228,0.085-0.343,0.128C420.85,33.565,420.964,33.523,421.078,33.48 M421.427,33.349
	c-0.096,0.036-0.188,0.07-0.284,0.106C421.238,33.42,421.334,33.384,421.427,33.349 M484.7,0l-15.732,11.623
	c-10.875,8.036-28.516,14.623-47.194,21.597c-0.106,0.04-0.212,0.079-0.317,0.118c0.105-0.039,0.213-0.079,0.317-0.118
	c18.678-6.974,36.319-13.561,47.194-21.597L484.7,0l7.62,18.013c4.82,11.397,12.766,34.385,12.776,62.023
	c-0.011-27.638-7.956-50.626-12.776-62.023L484.7,0"/>
<path style="fill:#343336;" d="M423.378,364.334c-2.288,1.872-4.634,3.681-7.036,5.424c-22.277,16.16-48.841,25.961-73.818,27.382
	c-3.67,13.839-12.355,26.418-25.341,36.389c-16.5,12.67-38.228,19.647-61.184,19.647V512c6.411,0,40.212-0.549,76.633-11.357l0,0
	c41.982-12.458,70.219-33.279,83.927-61.883l0,0c0.03-0.062,0.06-0.125,0.089-0.187c0.006-0.012,0.011-0.025,0.017-0.037
	c0.028-0.059,0.054-0.116,0.083-0.175c0.007-0.015,0.014-0.03,0.022-0.045c0.027-0.056,0.054-0.116,0.081-0.174
	c0.006-0.014,0.012-0.028,0.02-0.041c0.025-0.052,0.047-0.101,0.072-0.154c0.006-0.012,0.012-0.027,0.018-0.039
	c0.027-0.058,0.053-0.114,0.079-0.172c0.008-0.017,0.015-0.034,0.024-0.051c0.026-0.055,0.05-0.11,0.075-0.164
	c0.009-0.02,0.02-0.042,0.028-0.062c0.023-0.048,0.044-0.098,0.067-0.146c0.011-0.025,0.021-0.046,0.032-0.071
	c0.02-0.042,0.036-0.08,0.054-0.122c0.011-0.026,0.022-0.048,0.033-0.074c0.022-0.048,0.044-0.099,0.066-0.147
	c0.011-0.026,0.024-0.052,0.035-0.078c0.021-0.046,0.042-0.094,0.063-0.141c0.014-0.032,0.027-0.062,0.041-0.093
	c0.012-0.029,0.025-0.057,0.038-0.085c0.022-0.049,0.043-0.1,0.065-0.149c0.01-0.023,0.021-0.047,0.031-0.07
	c0.05-0.116,0.101-0.231,0.15-0.347c0.004-0.009,0.005-0.011,0.009-0.021c0.033-0.076,0.066-0.153,0.098-0.23
	c0.001-0.002,0.002-0.005,0.003-0.007C426.541,415.455,426.735,390.721,423.378,364.334 M307.137,215.8
	c-11.259,0-20.39-9.243-20.39-20.645c0-11.402,9.132-20.645,20.39-20.645c11.244,0,20.375,9.243,20.375,20.645
	C327.512,206.557,318.381,215.8,307.137,215.8 M256,42.229v268.414c22.955,0,44.683,6.978,61.183,19.647
	c12.856,9.872,21.498,22.301,25.23,35.977c18.7-1.397,38.718-9.043,55.831-21.456c6.875-4.987,13.179-10.666,18.862-16.964
	c-0.002-0.009-0.004-0.02-0.006-0.029c0,0-0.001,0.002-0.002,0.003c-1.692-8.267-3.507-16.567-5.317-24.822
	c-0.033-0.151-0.066-0.3-0.099-0.451c-5.805-26.477-11.29-51.486-11.29-70.162c0-0.111,0-0.228,0-0.339
	c-0.006-5.303-0.164-10.441-0.43-15.448c0.006-0.002,0.01-0.005,0.016-0.007c-0.609-11.443-1.871-22.121-3.645-32.07
	c-6.359-35.659-19.309-61.967-32.492-80.66c-3.54-5.02-7.098-9.492-10.549-13.447c-3.829-4.389-7.835-8.507-11.996-12.346
	c-0.002,0.003-0.004,0.005-0.007,0.007c-23.658-21.825-52.249-34.56-80.869-35.755c-0.006,0-0.014-0.001-0.021-0.001
	c-0.051-0.002-0.103-0.004-0.154-0.006c-0.01,0-0.022-0.001-0.033-0.001c-0.047-0.002-0.099-0.004-0.146-0.006
	c-0.013,0-0.03-0.001-0.042-0.002c-0.158-0.006-0.314-0.011-0.473-0.016c-0.008,0-0.018-0.001-0.027-0.001
	c-0.037-0.001-0.073-0.002-0.11-0.003c-0.03-0.001-0.059-0.002-0.088-0.003c-0.033-0.001-0.063-0.002-0.096-0.003
	c-0.032-0.001-0.065-0.002-0.097-0.003c-0.031-0.001-0.064-0.002-0.096-0.003c-0.034-0.001-0.065-0.002-0.099-0.003
	c-0.033-0.001-0.063-0.002-0.096-0.003c-0.034-0.001-0.065-0.002-0.099-0.003c-0.03-0.001-0.061-0.002-0.089-0.002
	c-0.053-0.001-0.106-0.003-0.159-0.004c-0.016,0-0.033-0.001-0.05-0.001c-0.055-0.001-0.112-0.003-0.167-0.004
	c-0.028-0.001-0.051-0.001-0.079-0.002c-0.036-0.001-0.078-0.002-0.114-0.002c-0.028,0-0.052-0.001-0.08-0.001
	c-0.039-0.001-0.078-0.001-0.116-0.002c-0.026,0-0.051-0.001-0.077-0.001c-0.041-0.001-0.085-0.001-0.125-0.002
	c-0.021,0-0.044-0.001-0.065-0.001c-0.045-0.001-0.094-0.001-0.14-0.002c-0.018,0-0.038-0.001-0.056-0.001
	c-0.128-0.002-0.26-0.003-0.388-0.004c-0.014,0-0.031,0-0.046,0c-0.049,0-0.1-0.001-0.149-0.001c-0.021,0-0.04,0-0.06,0
	c-0.045,0-0.087-0.001-0.133-0.001c-0.022,0-0.045,0-0.068,0c-0.045,0-0.085,0-0.13-0.001c-0.022,0-0.043,0-0.065,0
	c-0.045,0-0.092,0-0.138,0c-0.018,0-0.038,0-0.056,0C256.129,42.229,256.064,42.229,256,42.229"/>
<path style="fill:#A0A1A5;" d="M446.617,272.994c-0.021,0.074-0.041,0.146-0.062,0.219c-0.006,0.022-0.012,0.044-0.018,0.066
	c-0.015,0.056-0.032,0.114-0.048,0.172c-0.005,0.018-0.01,0.038-0.015,0.055c-0.021,0.073-0.04,0.144-0.061,0.217
	c-0.005,0.019-0.01,0.034-0.015,0.052c-0.016,0.056-0.032,0.113-0.048,0.171c-0.006,0.022-0.012,0.043-0.018,0.066
	c-0.043,0.152-0.086,0.303-0.13,0.454c-0.003,0.01-0.006,0.022-0.009,0.032c-5.936,20.581-15.827,38.655-29.086,53.349
	c-5.683,6.299-11.987,11.978-18.862,16.964c-17.112,12.413-37.132,20.059-55.831,21.456c1.382,5.065,2.091,10.302,2.091,15.642
	c0,5.195-0.671,10.294-1.98,15.231c24.975-1.421,51.54-11.222,73.818-27.382c2.402-1.742,4.748-3.551,7.036-5.424
	c0-0.003-0.001-0.006-0.001-0.01c24.287-19.878,42.045-46.938,51.735-78.94c0.003-0.009,0.004-0.014,0.007-0.023
	c0.015-0.051,0.031-0.103,0.046-0.154c0.005-0.017,0.01-0.036,0.016-0.053c0.014-0.049,0.029-0.097,0.043-0.146
	c0.005-0.017,0.011-0.038,0.016-0.055c0.014-0.047,0.028-0.092,0.042-0.14c0.007-0.023,0.013-0.045,0.021-0.067
	c0.012-0.043,0.026-0.087,0.039-0.13c0.009-0.031,0.017-0.059,0.027-0.089c0.009-0.033,0.02-0.067,0.03-0.1
	c0.011-0.04,0.024-0.08,0.036-0.12c0.009-0.031,0.017-0.058,0.026-0.088c0.011-0.038,0.023-0.076,0.034-0.114
	c0.009-0.031,0.018-0.062,0.027-0.092c0.012-0.042,0.025-0.084,0.037-0.126c0.008-0.027,0.015-0.051,0.023-0.078
	c0.041-0.139,0.08-0.273,0.12-0.412c0.006-0.021,0.012-0.041,0.017-0.062c0.014-0.049,0.029-0.098,0.043-0.147
	c0.006-0.023,0.013-0.048,0.021-0.071c0.012-0.045,0.026-0.09,0.039-0.135c0.007-0.025,0.014-0.052,0.022-0.077
	c0.012-0.045,0.027-0.095,0.04-0.139c0.006-0.021,0.012-0.043,0.018-0.064c0.013-0.047,0.027-0.093,0.04-0.141
	c0.007-0.025,0.014-0.05,0.022-0.075c0.012-0.045,0.026-0.091,0.039-0.137c0.007-0.025,0.013-0.047,0.021-0.072
	c0.012-0.043,0.025-0.088,0.037-0.131c0.008-0.027,0.015-0.054,0.023-0.081c0.012-0.043,0.024-0.085,0.036-0.128
	c0.007-0.027,0.015-0.054,0.023-0.081c0.012-0.043,0.025-0.088,0.037-0.131c0.007-0.027,0.013-0.048,0.022-0.075
	c0.014-0.051,0.028-0.101,0.042-0.152c0.005-0.018,0.01-0.038,0.015-0.057c0.02-0.07,0.039-0.139,0.058-0.209l0,0L446.617,272.994"
	/>
<path style="fill:#9D5B6E;" d="M280.58,394.304c-6.759,0-12.242-5.549-12.242-12.394s5.483-12.394,12.242-12.394
	c6.751,0,12.232,5.549,12.232,12.394C292.811,388.755,287.33,394.304,280.58,394.304 M256,310.643v142.533
	c22.955,0,44.683-6.977,61.183-19.647c12.985-9.97,21.671-22.55,25.341-36.389c1.309-4.937,1.98-10.035,1.98-15.231
	c0-5.34-0.709-10.577-2.091-15.642c-3.732-13.676-12.373-26.106-25.23-35.977C300.683,317.62,278.955,310.643,256,310.643"/>
</svg>