<?xml version="1.0" encoding="utf-8"?>
<!-- Uploaded to: SVG Repo, www.svgrepo.com, Generator: SVG Repo Mixer Tools -->
<svg width="800px" height="800px" viewBox="0 0 128 128" xmlns="http://www.w3.org/2000/svg" xmlns:xlink="http://www.w3.org/1999/xlink" aria-hidden="true" role="img" class="iconify iconify--noto" preserveAspectRatio="xMidYMid meet">
<radialGradient id="IconifyId17ecdb2904d178eab9216" cx="63.6" cy="1696.9" r="56.96" gradientTransform="translate(0 -1634)" gradientUnits="userSpaceOnUse">
<stop offset=".5" stop-color="#fde030">
</stop>
<stop offset=".92" stop-color="#f7c02b">
</stop>
<stop offset="1" stop-color="#f4a223">
</stop>
</radialGradient>
<path d="M63.6 118.8c-27.9 0-58-17.5-58-55.9S35.7 7 63.6 7c15.5 0 29.8 5.1 40.4 14.4c11.5 10.2 17.6 24.6 17.6 41.5s-6.1 31.2-17.6 41.4c-10.6 9.3-25 14.5-40.4 14.5z" fill="url(#IconifyId17ecdb2904d178eab9216)">
</path>
<path d="M111.49 29.67c5.33 8.6 8.11 18.84 8.11 30.23c0 16.9-6.1 31.2-17.6 41.4c-10.6 9.3-25 14.5-40.4 14.5c-18.06 0-37-7.35-48.18-22.94c10.76 17.66 31 25.94 50.18 25.94c15.4 0 29.8-5.2 40.4-14.5c11.5-10.2 17.6-24.5 17.6-41.4c0-12.74-3.47-24.06-10.11-33.23z" fill="#eb8f00">
</path>
<g>
<path d="M77.6 92.4c0 7.07-5.73 12.8-12.8 12.8S52 99.47 52 92.4s5.73-12.8 12.8-12.8c7.05-.02 12.78 5.67 12.8 12.72v.08z" fill="#422b0d">
</path>
<path d="M42.67 46.94c-4.19 0-8 3.54-8 9.42s3.81 9.41 8 9.41c4.19 0 8-3.54 8-9.41s-3.81-9.42-8-9.42z" fill="#422b0d">
</path>
<path d="M42.28 50.87a2.874 2.874 0 0 0-3.82 1.34c-.53 1.11-.29 2.44.6 3.3c1.42.68 3.13.08 3.82-1.34c.53-1.11.29-2.44-.6-3.3z" fill="#896024">
</path>
<path d="M86 46.94c-4.19 0-8 3.54-8 9.42s3.81 9.41 8 9.41c4.19 0 8-3.54 8-9.41s-3.79-9.42-8-9.42z" fill="#422b0d">
</path>
<path d="M85.63 50.87a2.874 2.874 0 0 0-3.82 1.34c-.53 1.11-.29 2.44.6 3.3c1.42.68 3.13.08 3.82-1.34c.53-1.11.29-2.44-.6-3.3z" fill="#896024">
</path>
<path d="M28.7 38c-.7.73-1.87.76-2.6.05c-.66-.63-.75-1.66-.22-2.4c1.13-1.63 2.52-3.05 4.12-4.22c4.19-3.23 9.44-4.76 14.71-4.28c2.49.31 2 3.49-.21 3.7c-5.94.47-11.53 3-15.8 7.15" fill="#422b0d">
</path>
<path d="M99.77 38.23c.7.73 1.87.76 2.6.05c.66-.63.75-1.66.22-2.4a17.333 17.333 0 0 0-4.07-4.17a20.916 20.916 0 0 0-14.71-4.27c-2.48.31-2 3.48.21 3.69c5.92.47 11.48 2.98 15.75 7.1" fill="#422b0d">
</path>
</g>
</svg>