<?xml version="1.0" encoding="iso-8859-1"?>
<!-- Uploaded to: SVG Repo, www.svgrepo.com, Generator: SVG Repo Mixer Tools -->
<svg height="800px" width="800px" version="1.1" id="Layer_1" xmlns="http://www.w3.org/2000/svg" xmlns:xlink="http://www.w3.org/1999/xlink" 
	 viewBox="0 0 512 512" xml:space="preserve">
<g>
	<path style="fill:#2E211D;" d="M381.256,164.884l-24.318-21.313C391.731,103.87,391.724,31.732,391.72,0.929V0h32.337v0.925
		C424.061,35.37,424.07,116.033,381.256,164.884"/>
	<path style="fill:#2E211D;" d="M404.489,93.015c-0.413,0-0.826-0.004-1.24-0.013l0.661-32.33c0.164,0.003,0.331,0.005,0.495,0.005
		c19.798,0,35.564-24.313,36.67-34.324l32.141,3.548C470.759,52.146,445.041,93.015,404.489,93.015"/>
	<path style="fill:#2E211D;" d="M393.911,121.092c-17.689,0-34.935-8.23-48.681-23.264c-11.026-12.061-18.735-27.33-20.116-39.849
		l32.141-3.547c1.105,10.01,16.871,34.324,36.667,34.324c0.165,0,0.329-0.002,0.494-0.005l0.661,32.33
		C394.689,121.087,394.299,121.092,393.911,121.092"/>
</g>
<g>
	<path style="fill:#3E2C27;" d="M130.745,164.887C87.93,116.035,87.939,35.371,87.942,0.926V0h32.337v0.929
		c-0.003,30.804-0.011,102.942,34.785,142.643L130.745,164.887z"/>
	<path style="fill:#3E2C27;" d="M107.585,93.015c-17.695,0-34.941-8.231-48.686-23.267C47.874,57.687,40.168,42.419,38.785,29.901
		l32.141-3.548c1.106,10.011,16.873,34.324,36.67,34.324c0.165,0,0.33-0.001,0.494-0.005l0.662,32.33
		C108.363,93.01,107.973,93.015,107.585,93.015z"/>
	<path style="fill:#3E2C27;" d="M118.161,121.093c-0.413,0-0.825-0.004-1.24-0.013l0.661-32.33c0.164,0.003,0.331,0.005,0.494,0.005
		c19.798,0,35.562-24.312,36.667-34.324l32.142,3.547C184.431,80.222,158.714,121.093,118.161,121.093z"/>
</g>
<path style="fill:#965500;" d="M256,512c-41.3,0-73.282-13.338-97.771-40.773c-22.588-25.306-35.873-59.36-46.866-92.391
	c-4.248-12.763-8.347-23.676-12.313-34.23c-11.867-31.586-21.239-56.533-21.239-97.154c0-27.858,6.363-51.86,18.914-71.339
	c11.052-17.151,26.939-30.875,47.221-40.79c37.183-18.175,81.758-20.277,112.054-20.277c30.294,0,74.871,2.102,112.054,20.277
	c20.282,9.914,36.169,23.638,47.22,40.79c12.551,19.48,18.914,43.481,18.914,71.339c0,40.622-9.372,65.571-21.24,97.157
	c-3.965,10.553-8.065,21.465-12.312,34.227c-10.991,33.03-24.277,67.084-46.865,92.391C329.281,498.663,297.3,512,256,512"/>
<path style="fill:#211915;" d="M256,447.142c-16.234,0-31.664-4.983-43.449-14.032c-12.863-9.877-20.24-23.954-20.24-38.625
	c0-14.671,7.377-28.749,20.24-38.625c11.784-9.049,27.215-14.032,43.449-14.032c16.235,0,31.665,4.983,43.45,14.032
	c12.863,9.877,20.239,23.954,20.239,38.625c0,14.671-7.377,28.749-20.239,38.625C287.665,442.159,272.234,447.142,256,447.142"/>
<g>
	<path style="fill:#333333;" d="M180.971,252.227c0-11.876,9.52-21.493,21.218-21.493c11.713,0,21.232,9.618,21.232,21.493
		c0,11.874-9.518,21.501-21.232,21.501C190.491,273.728,180.971,264.101,180.971,252.227z"/>
	<path style="fill:#333333;" d="M331.029,252.227c0-11.964-9.581-21.661-21.379-21.661c-11.812,0-21.394,9.698-21.394,21.661
		s9.581,21.661,21.394,21.661C321.448,273.889,331.029,264.191,331.029,252.227"/>
</g>
<path style="fill:#2E211D;" d="M415.176,175.96c0.01,0.015,0.02,0.031,0.03,0.046C415.196,175.99,415.186,175.975,415.176,175.96
	 M415.103,175.846c0.012,0.018,0.024,0.037,0.037,0.056C415.126,175.882,415.114,175.864,415.103,175.846 M415.031,175.737
	c0.013,0.019,0.025,0.039,0.038,0.058C415.057,175.776,415.044,175.757,415.031,175.737 M414.961,175.63
	c0.014,0.02,0.026,0.04,0.04,0.061C414.988,175.67,414.975,175.65,414.961,175.63 M414.891,175.521
	c0.014,0.02,0.029,0.044,0.042,0.065C414.919,175.565,414.905,175.544,414.891,175.521 M414.822,175.415
	c0.015,0.023,0.031,0.049,0.046,0.071C414.854,175.463,414.837,175.439,414.822,175.415 M414.556,175.011
	c0.083,0.126,0.166,0.252,0.249,0.378C414.722,175.264,414.639,175.137,414.556,175.011 M414.494,174.918
	c0.021,0.031,0.042,0.063,0.063,0.094C414.535,174.98,414.514,174.949,414.494,174.918 M414.425,174.815
	c0.02,0.031,0.042,0.064,0.063,0.095C414.467,174.878,414.446,174.846,414.425,174.815 M414.358,174.714
	c0.022,0.032,0.043,0.065,0.065,0.097C414.401,174.778,414.379,174.745,414.358,174.714 M405.851,163.629
	c3.084,3.512,5.92,7.208,8.506,11.083C411.771,170.836,408.935,167.141,405.851,163.629 M405.771,163.538
	c0.025,0.028,0.051,0.057,0.075,0.085C405.822,163.595,405.797,163.566,405.771,163.538 M405.381,163.097
	c0.129,0.146,0.257,0.29,0.386,0.435C405.639,163.387,405.51,163.242,405.381,163.097 M405.307,163.013
	c0.02,0.024,0.043,0.049,0.064,0.071C405.35,163.061,405.328,163.038,405.307,163.013 M405.229,162.926
	c0.02,0.023,0.039,0.043,0.059,0.066C405.268,162.97,405.249,162.947,405.229,162.926 M405.147,162.834
	c0.017,0.019,0.038,0.042,0.055,0.061C405.184,162.875,405.165,162.855,405.147,162.834 M405.065,162.744
	c0.017,0.018,0.035,0.039,0.052,0.057C405.1,162.782,405.083,162.762,405.065,162.744 M404.981,162.649
	c0.016,0.017,0.032,0.036,0.047,0.053C405.012,162.684,404.997,162.667,404.981,162.649 M404.897,162.556
	c0.015,0.017,0.029,0.032,0.045,0.05C404.927,162.59,404.912,162.573,404.897,162.556 M404.812,162.462
	c0.011,0.012,0.021,0.023,0.031,0.034C404.834,162.485,404.823,162.474,404.812,162.462 M404.706,162.346
	c0.006,0.008,0.014,0.015,0.02,0.023C404.72,162.361,404.714,162.354,404.706,162.346 M404.613,162.243
	c0.01,0.01,0.018,0.02,0.028,0.03C404.631,162.262,404.622,162.252,404.613,162.243 M404.523,162.144
	c0.01,0.011,0.021,0.022,0.03,0.033C404.543,162.166,404.534,162.155,404.523,162.144 M404.436,162.049
	c0.01,0.011,0.021,0.022,0.03,0.033C404.456,162.07,404.445,162.059,404.436,162.049 M404.351,161.956
	c0.009,0.01,0.015,0.016,0.024,0.026C404.367,161.972,404.359,161.964,404.351,161.956 M404.264,161.861
	c0.005,0.006,0.011,0.012,0.017,0.018C404.275,161.873,404.27,161.867,404.264,161.861 M404.178,161.767L404.178,161.767
	L404.178,161.767 M373.48,117.376c-2.605,5.701-5.593,11.152-8.996,16.259c0.01,0.004,0.018,0.009,0.028,0.013
	c3.402-5.107,6.378-10.566,8.983-16.267C373.489,117.381,373.483,117.378,373.48,117.376 M260.389,115.061c0.002,0,0.001,0,0.003,0
	H260.389 M260.028,115.058c0.004,0,0.011,0,0.015,0C260.037,115.058,260.033,115.058,260.028,115.058 M259.846,115.057
	c0.008,0,0.016,0,0.024,0C259.862,115.057,259.853,115.057,259.846,115.057 M259.654,115.056c0.019,0,0.039,0,0.058,0
	C259.692,115.056,259.675,115.056,259.654,115.056 M259.486,115.054c0.012,0,0.025,0,0.037,0
	C259.51,115.054,259.499,115.054,259.486,115.054 M259.299,115.053c0.015,0,0.03,0,0.045,0
	C259.329,115.053,259.316,115.053,259.299,115.053 M259.118,115.052c0.019,0,0.039,0,0.057,0
	C259.157,115.053,259.137,115.052,259.118,115.052 M258.922,115.051c0.028,0,0.056,0,0.084,0
	C258.978,115.052,258.95,115.052,258.922,115.051 M258.76,115.051c0.02,0,0.044,0,0.065,0
	C258.804,115.051,258.783,115.051,258.76,115.051 M258.575,115.05c0.023,0,0.044,0,0.067,0
	C258.62,115.05,258.597,115.05,258.575,115.05 M258.403,115.049c0.02,0,0.039,0,0.06,0
	C258.444,115.05,258.423,115.049,258.403,115.049 M258.222,115.049c0.02,0,0.043,0,0.064,0
	C258.264,115.049,258.244,115.049,258.222,115.049 M258.057,115.048c0.015,0,0.03,0,0.045,0
	C258.087,115.048,258.071,115.048,258.057,115.048 M257.865,115.048c0.023,0,0.043,0,0.066,0
	C257.909,115.048,257.887,115.048,257.865,115.048 M257.685,115.047c0.023,0,0.043,0,0.066,0
	C257.729,115.047,257.707,115.047,257.685,115.047 M257.484,115.047c0.033,0,0.07,0,0.103,0
	C257.553,115.047,257.519,115.047,257.484,115.047 M257.312,115.046c0.032,0,0.063,0,0.095,0
	C257.375,115.047,257.342,115.046,257.312,115.046 M257.123,115.046c0.038,0,0.074,0,0.112,0
	C257.198,115.046,257.161,115.046,257.123,115.046 M256.97,115.046c0.028,0,0.056,0,0.084,0
	C257.027,115.046,256.997,115.046,256.97,115.046 M256.798,115.046c0.026,0,0.05,0,0.075,0
	C256.848,115.046,256.822,115.046,256.798,115.046 M256.643,115.045c0.017,0,0.038,0,0.055,0
	C256.68,115.046,256.661,115.045,256.643,115.045 M256.446,115.045c0.024,0,0.049,0,0.073,0
	C256.496,115.045,256.469,115.045,256.446,115.045 M256.211,115.045c0.049,0,0.094,0,0.142,0
	C256.304,115.045,256.259,115.045,256.211,115.045 M256,115.045L256,115.045c0.059,0,0.116,0,0.176,0
	C256.116,115.045,256.059,115.045,256,115.045 M413.394,101.426c-0.004,0.015-0.007,0.025-0.011,0.04
	C413.388,101.453,413.391,101.44,413.394,101.426 M413.457,101.198c-0.003,0.011-0.008,0.026-0.011,0.038
	C413.45,101.223,413.453,101.21,413.457,101.198 M413.526,100.944c-0.003,0.011-0.005,0.022-0.009,0.033
	C413.52,100.966,413.524,100.956,413.526,100.944 M413.599,100.679c-0.009,0.03-0.017,0.061-0.025,0.092
	C413.582,100.74,413.59,100.708,413.599,100.679 M413.658,100.455c-0.01,0.038-0.019,0.071-0.029,0.109
	C413.639,100.528,413.649,100.491,413.658,100.455 M413.76,100.08c-0.026,0.098-0.052,0.193-0.079,0.291
	C413.708,100.275,413.734,100.177,413.76,100.08 M413.805,99.913c-0.015,0.056-0.029,0.109-0.044,0.165
	C413.775,100.023,413.79,99.967,413.805,99.913 M345.616,98.246c0.003,0.003,0.005,0.006,0.009,0.01
	C345.622,98.252,345.618,98.248,345.616,98.246 M345.506,98.127c0.01,0.011,0.019,0.022,0.029,0.032
	C345.526,98.148,345.516,98.138,345.506,98.127 M345.411,98.025c0.011,0.012,0.022,0.024,0.032,0.036
	C345.433,98.049,345.423,98.037,345.411,98.025 M345.321,97.926c0.01,0.011,0.019,0.022,0.029,0.031
	C345.34,97.947,345.329,97.935,345.321,97.926 M415.794,91.929L415.794,91.929c-0.614,2.652-1.273,5.305-1.981,7.955
	C414.521,97.235,415.18,94.581,415.794,91.929 M357.418,55.495c0.003,0.016,0.007,0.032,0.01,0.049
	C357.424,55.528,357.421,55.512,357.418,55.495 M357.407,55.44c0.003,0.015,0.005,0.031,0.009,0.046
	C357.414,55.471,357.41,55.456,357.407,55.44 M357.399,55.393c0.002,0.014,0.005,0.027,0.008,0.041
	C357.404,55.42,357.402,55.406,357.399,55.393 M357.389,55.338c0.003,0.015,0.005,0.029,0.009,0.044
	C357.394,55.368,357.392,55.353,357.389,55.338 M357.379,55.284c0.002,0.015,0.005,0.029,0.008,0.044
	C357.385,55.313,357.382,55.299,357.379,55.284 M357.372,55.237c0.002,0.013,0.004,0.027,0.006,0.04
	C357.376,55.264,357.374,55.251,357.372,55.237 M357.362,55.184c0.002,0.014,0.004,0.028,0.008,0.042
	C357.367,55.213,357.364,55.198,357.362,55.184 M357.353,55.134c0.002,0.012,0.004,0.023,0.005,0.034
	C357.358,55.158,357.355,55.146,357.353,55.134 M357.346,55.085c0.002,0.012,0.004,0.025,0.005,0.037
	C357.35,55.11,357.348,55.097,357.346,55.085 M357.337,55.031c0.002,0.013,0.004,0.026,0.006,0.039
	C357.341,55.057,357.339,55.044,357.337,55.031 M357.331,54.988c0.001,0.009,0.003,0.018,0.004,0.026
	C357.333,55.006,357.332,54.996,357.331,54.988 M357.322,54.935c0.001,0.009,0.003,0.017,0.004,0.026
	C357.325,54.952,357.323,54.944,357.322,54.935 M357.313,54.88c0.001,0.012,0.003,0.024,0.005,0.034
	C357.318,54.903,357.316,54.891,357.313,54.88 M357.307,54.835c0.001,0.009,0.002,0.017,0.004,0.026
	C357.31,54.852,357.309,54.843,357.307,54.835 M357.299,54.783c0.002,0.012,0.003,0.025,0.005,0.037
	C357.304,54.808,357.302,54.795,357.299,54.783 M357.293,54.728c0.002,0.012,0.003,0.025,0.005,0.037
	C357.296,54.753,357.294,54.74,357.293,54.728 M357.287,54.685c0.001,0.01,0.002,0.019,0.004,0.029
	C357.29,54.704,357.288,54.695,357.287,54.685 M357.28,54.632c0.001,0.013,0.003,0.025,0.005,0.038
	C357.283,54.657,357.281,54.645,357.28,54.632 M357.274,54.578c0.001,0.013,0.003,0.027,0.005,0.04
	C357.277,54.605,357.275,54.591,357.274,54.578 M357.267,54.533c0.001,0.012,0.003,0.026,0.004,0.039
	C357.27,54.559,357.269,54.546,357.267,54.533 M357.262,54.483c0.001,0.014,0.003,0.028,0.005,0.042
	C357.265,54.511,357.264,54.496,357.262,54.483 M357.256,54.43l-32.141,3.547l0,0L357.256,54.43
	c0.001,0.014,0.003,0.029,0.005,0.043C357.26,54.46,357.257,54.444,357.256,54.43 M473.089,30.914c0,0.001,0,0.001,0,0.003V30.914
	 M473.098,30.847c0,0.004-0.001,0.012-0.002,0.016C473.097,30.858,473.098,30.852,473.098,30.847 M473.106,30.787
	c0,0.004-0.001,0.009-0.002,0.013C473.105,30.795,473.105,30.792,473.106,30.787 M473.114,30.726c0,0.003-0.001,0.009-0.001,0.012
	C473.113,30.734,473.114,30.73,473.114,30.726 M473.121,30.668c0,0.001-0.001,0.005-0.001,0.006
	C473.121,30.674,473.121,30.67,473.121,30.668 M473.13,30.608c0,0.003,0,0.004-0.001,0.006
	C473.129,30.612,473.129,30.611,473.13,30.608 M473.152,30.434c0,0.001-0.001,0.004-0.001,0.006
	C473.152,30.439,473.152,30.435,473.152,30.434 M473.16,30.369c-0.001,0.01-0.002,0.018-0.003,0.028
	C473.158,30.387,473.159,30.378,473.16,30.369 M473.168,30.307c-0.001,0.01-0.002,0.018-0.003,0.028
	C473.166,30.327,473.167,30.316,473.168,30.307 M473.175,30.246c-0.001,0.01-0.002,0.017-0.003,0.027
	C473.173,30.263,473.174,30.254,473.175,30.246 M473.183,30.183c-0.001,0.009-0.002,0.017-0.003,0.026
	C473.181,30.2,473.182,30.192,473.183,30.183 M473.19,30.119c-0.001,0.011-0.002,0.019-0.003,0.03
	C473.188,30.139,473.189,30.128,473.19,30.119 M473.198,30.053c-0.001,0.011-0.002,0.023-0.004,0.034
	C473.195,30.075,473.197,30.064,473.198,30.053 M473.207,29.979c-0.002,0.016-0.003,0.031-0.005,0.047
	C473.202,30.01,473.204,29.996,473.207,29.979 M473.215,29.901c-0.002,0.02-0.004,0.043-0.008,0.064
	C473.21,29.944,473.213,29.922,473.215,29.901 M441.055,26.515c-0.85,6.847-8.331,20.08-19.185,27.915
	c0,0.003-0.001,0.008-0.001,0.011C432.726,46.607,440.205,33.363,441.055,26.515 M441.065,26.434
	c-0.003,0.026-0.007,0.051-0.01,0.077C441.058,26.486,441.062,26.46,441.065,26.434 M441.069,26.397
	c-0.001,0.011-0.002,0.022-0.004,0.033C441.066,26.418,441.068,26.407,441.069,26.397 M441.073,26.352
	c-0.001,0.013-0.003,0.025-0.004,0.038C441.071,26.378,441.072,26.365,441.073,26.352l32.141,3.548l0,0L441.073,26.352
	 M391.721,1.415c0.001,18.884-0.078,52.731-7.898,85.245c-14.192-5.838-24.72-22.479-26.396-31.117
	c1.676,8.64,12.208,25.303,26.408,31.134C391.657,54.161,391.722,20.301,391.721,1.415 M391.721,0.928c0,0.132,0,0.264,0,0.398
	C391.721,1.192,391.721,1.06,391.721,0.928 M424.058,0h-32.337H424.058v0.925c0,0.916,0,1.868-0.001,2.848
	c0.001-0.982,0.001-1.931,0.001-2.848V0"/>
<path style="fill:#703F00;" d="M309.65,273.889c-11.812,0-21.394-9.698-21.394-21.661c0-11.964,9.581-21.661,21.394-21.661
	c11.798,0,21.379,9.698,21.379,21.661S321.448,273.889,309.65,273.889 M256,115.045v226.783c16.235,0,31.665,4.983,43.45,14.032
	c12.863,9.877,20.239,23.954,20.239,38.625c0,14.671-7.377,28.749-20.239,38.625c-11.784,9.049-27.215,14.032-43.45,14.032V512
	c41.3,0,73.282-13.338,97.771-40.773c22.588-25.307,35.873-59.36,46.865-92.391c4.247-12.762,8.347-23.675,12.312-34.227
	c11.868-31.587,21.24-56.536,21.24-97.157c0-27.858-6.363-51.86-18.914-71.339l0,0c-0.023-0.036-0.045-0.071-0.069-0.107
	c-0.01-0.015-0.021-0.031-0.03-0.046c-0.013-0.019-0.025-0.039-0.038-0.058c-0.012-0.018-0.024-0.037-0.037-0.056
	c-0.011-0.016-0.022-0.033-0.032-0.05c-0.013-0.019-0.025-0.039-0.038-0.058c-0.01-0.015-0.02-0.031-0.03-0.046
	c-0.014-0.02-0.026-0.04-0.04-0.061c-0.01-0.014-0.018-0.029-0.028-0.043c-0.014-0.02-0.029-0.044-0.042-0.065
	c-0.008-0.012-0.015-0.023-0.023-0.035c-0.015-0.023-0.031-0.048-0.046-0.071c-0.005-0.009-0.011-0.017-0.017-0.026
	c-0.083-0.126-0.166-0.252-0.249-0.378l0,0c-0.021-0.031-0.042-0.063-0.063-0.094c-0.001-0.002-0.003-0.005-0.005-0.008
	c-0.021-0.031-0.042-0.064-0.063-0.095c-0.001-0.002-0.002-0.003-0.003-0.004c-0.022-0.032-0.043-0.065-0.065-0.097
	c0,0-0.001-0.001-0.001-0.002c-2.585-3.875-5.422-7.571-8.506-11.083c-0.001-0.001-0.003-0.003-0.004-0.005
	c-0.025-0.028-0.051-0.057-0.075-0.085c-0.001-0.001-0.003-0.003-0.004-0.005c-0.128-0.147-0.257-0.29-0.386-0.435
	c-0.003-0.004-0.006-0.008-0.011-0.012c-0.021-0.024-0.043-0.048-0.064-0.071c-0.006-0.006-0.013-0.015-0.019-0.022
	c-0.019-0.023-0.039-0.043-0.059-0.066c-0.01-0.011-0.017-0.019-0.027-0.03c-0.017-0.019-0.038-0.042-0.055-0.061
	c-0.01-0.011-0.021-0.023-0.03-0.033c-0.016-0.018-0.034-0.039-0.052-0.057c-0.012-0.013-0.025-0.028-0.037-0.041
	c-0.016-0.017-0.032-0.036-0.047-0.053c-0.013-0.015-0.026-0.028-0.039-0.043c-0.015-0.017-0.029-0.032-0.045-0.05
	c-0.018-0.019-0.036-0.04-0.054-0.059c-0.011-0.012-0.021-0.023-0.031-0.034c-0.028-0.031-0.057-0.063-0.085-0.094
	c-0.006-0.008-0.014-0.015-0.02-0.023c-0.023-0.025-0.044-0.049-0.066-0.073c-0.01-0.01-0.018-0.02-0.028-0.03
	c-0.019-0.022-0.04-0.044-0.059-0.066c-0.01-0.011-0.02-0.022-0.03-0.033c-0.019-0.02-0.038-0.042-0.057-0.063
	c-0.01-0.011-0.02-0.022-0.03-0.033c-0.021-0.023-0.041-0.045-0.061-0.067c-0.009-0.01-0.015-0.016-0.024-0.026
	c-0.024-0.026-0.046-0.051-0.07-0.077c-0.005-0.006-0.011-0.012-0.017-0.018c-0.028-0.031-0.058-0.063-0.086-0.094l0,0
	c-3.69-4.01-7.711-7.769-12.058-11.272l0,0c-7.155-5.766-15.19-10.835-24.066-15.174c-1.174-0.573-2.355-1.132-3.543-1.674
	c-0.01-0.004-0.018-0.009-0.028-0.013v0.001c-34.655-15.808-74.992-18.364-104.09-18.576c-0.002,0-0.001,0-0.003,0
	c-0.115-0.001-0.231-0.002-0.347-0.002c-0.004,0-0.011,0-0.015,0c-0.052,0-0.106-0.001-0.157-0.001c-0.008,0-0.016,0-0.024,0
	c-0.044,0-0.089-0.001-0.135-0.001c-0.019,0-0.039,0-0.058,0c-0.043,0-0.088,0-0.131-0.001c-0.012,0-0.025,0-0.037,0
	c-0.046,0-0.095,0-0.141-0.001c-0.015,0-0.03,0-0.045,0c-0.041,0-0.083,0-0.124-0.001c-0.019,0-0.039,0-0.057,0
	c-0.039,0-0.073,0-0.112-0.001c-0.028,0-0.056,0-0.084,0c-0.031,0-0.066,0-0.097,0c-0.02,0-0.044,0-0.065,0c-0.04,0-0.079,0-0.119,0
	c-0.023,0-0.044,0-0.067,0c-0.037,0-0.074,0-0.112,0c-0.02,0-0.039,0-0.06,0c-0.039,0-0.08,0-0.117,0c-0.02,0-0.043,0-0.064,0
	c-0.04,0-0.08,0-0.12,0c-0.015,0-0.03,0-0.045,0c-0.042,0-0.084,0-0.126,0c-0.023,0-0.043,0-0.066,0c-0.039,0-0.077,0-0.114,0
	c-0.023,0-0.043,0-0.066,0c-0.032,0-0.065,0-0.097,0c-0.033,0-0.07,0-0.103,0c-0.026,0-0.053,0-0.079,0c-0.032,0-0.063,0-0.095,0
	c-0.026,0-0.051,0-0.075,0c-0.038,0-0.074,0-0.112,0c-0.024,0-0.045,0-0.069,0c-0.028,0-0.056,0-0.084,0c-0.032,0-0.064,0-0.097,0
	c-0.026,0-0.05,0-0.075,0c-0.034,0-0.066,0-0.1,0c-0.017,0-0.038,0-0.055,0c-0.041,0-0.083,0-0.124,0c-0.024,0-0.049,0-0.073,0
	c-0.03,0-0.063,0-0.093,0c-0.049,0-0.094,0-0.142,0c-0.011,0-0.025,0-0.036,0C256.116,115.045,256.059,115.045,256,115.045"/>
</svg>