<?xml version="1.0" encoding="iso-8859-1"?>
<!-- Uploaded to: SVG Repo, www.svgrepo.com, Generator: SVG Repo Mixer Tools -->
<svg version="1.1" id="Layer_1" xmlns="http://www.w3.org/2000/svg" xmlns:xlink="http://www.w3.org/1999/xlink" 
	 viewBox="0 0 512 512" xml:space="preserve">
<g>
	<path style="fill:#B17E15;" d="M106.267,251.089c-43.56-25.835-69.988-57.533-78.549-94.212
		c-10.807-46.295,10.3-85.529,19.877-100.247l13.258-20.379L74.52,56.358c6.031,8.872,20.165,15.973,35.13,23.491
		c30.558,15.352,72.41,36.378,82.217,92.781L106.267,251.089z"/>
	<polygon style="fill:#B17E15;" points="62.314,87.978 13.755,39.416 36.62,16.551 62.314,42.246 88.009,16.551 110.874,39.416 	"/>
	<rect x="46.146" style="fill:#B17E15;" width="32.337" height="65.116"/>
</g>
<path style="fill:#D37B93;" d="M122.764,223.276c-35.69-21.168-57.073-45.981-63.555-73.75c-5.209-22.319,0.149-43.115,6.213-57.563
	c8.864,6.308,19.122,11.461,29.712,16.781c29.754,14.948,57.857,29.066,64.875,69.426L122.764,223.276z"/>
<g>
	<path style="fill:#835E10;" d="M405.731,251.089c43.56-25.835,69.988-57.533,78.549-94.212
		c10.807-46.295-10.3-85.529-19.877-100.249L451.144,36.25l-13.667,20.108c-6.031,8.872-20.165,15.973-35.13,23.491
		c-30.558,15.352-72.41,36.378-82.217,92.781L405.731,251.089"/>
	<polyline style="fill:#835E10;" points="449.686,87.978 498.245,39.416 475.38,16.551 449.686,42.246 423.991,16.551 
		401.126,39.416 449.686,87.978 	"/>
	<polyline style="fill:#835E10;" points="433.517,65.111 465.854,65.111 465.854,0 433.517,0 433.517,65.111 	"/>
</g>
<path style="fill:#9D5B6E;" d="M389.236,223.276c35.69-21.168,57.073-45.981,63.556-73.75c5.209-22.319-0.149-43.114-6.213-57.563
	c-8.864,6.308-19.122,11.461-29.712,16.781c-29.753,14.947-57.857,29.065-64.875,69.425L389.236,223.276"/>
<path style="fill:#B17E15;" d="M256,512c-52.105,0-99.744-15.62-134.141-43.98c-37.412-30.847-57.186-73.954-57.186-124.663
	c0-50.64,20.185-102.425,55.379-142.078c37.132-41.838,85.413-64.881,135.947-64.881s98.815,23.041,135.948,64.881
	c35.193,39.654,55.378,91.439,55.378,142.078c0,50.708-19.775,93.816-57.186,124.662C355.744,496.38,308.105,512,256,512"/>
<path style="fill:#333333;" d="M331.029,312.589c0-11.964-9.581-21.661-21.379-21.661c-11.812,0-21.394,9.698-21.394,21.661
	c0,11.964,9.581,21.66,21.394,21.66C321.448,334.251,331.029,324.553,331.029,312.589"/>
<path style="fill:#444242;" d="M239.832,511.482C245.167,511.819,250.558,512,256,512c5.443,0,10.833-0.18,16.168-0.518v-74.86
	h-32.337V511.482"/>
<path style="fill:#D37B93;" d="M256,452.79c-14.655,0-27.405-11.162-32.208-15.961c-4.819-4.816-16.028-17.624-16.028-32.477
	c0-12.634,6.309-22.247,17.765-27.067c7.119-2.995,15.947-4.218,30.47-4.218c14.522,0,23.351,1.222,30.471,4.218
	c11.456,4.82,17.765,14.433,17.765,27.067c0,14.854-11.209,27.661-16.028,32.477C283.405,441.629,270.655,452.79,256,452.79"/>
<path style="fill:#703F00;" d="M447.326,343.124c0,0.015,0,0.032,0,0.049C447.326,343.157,447.326,343.139,447.326,343.124
	 M447.325,342.934c0,0.015,0,0.031,0,0.047C447.325,342.967,447.325,342.948,447.325,342.934 M447.325,342.722
	c0,0.01,0,0.021,0,0.03C447.325,342.741,447.325,342.733,447.325,342.722 M447.324,342.514c0,0.018,0,0.038,0,0.056
	C447.324,342.553,447.324,342.53,447.324,342.514 M447.323,342.33c0,0.012,0,0.023,0,0.035
	C447.323,342.353,447.323,342.34,447.323,342.33 M447.322,342.107c0,0.012,0,0.027,0,0.039
	C447.322,342.132,447.322,342.118,447.322,342.107 M447.321,341.909c0,0.015,0,0.036,0,0.051
	C447.321,341.943,447.321,341.925,447.321,341.909 M447.319,341.723c0,0.003,0,0.011,0,0.014
	C447.319,341.73,447.319,341.729,447.319,341.723 M447.317,341.493c0,0.015,0,0.032,0,0.047
	C447.318,341.526,447.318,341.508,447.317,341.493 M447.315,341.306c0,0.012,0,0.027,0,0.04
	C447.315,341.333,447.315,341.319,447.315,341.306 M447.313,341.108v0.009C447.313,341.114,447.313,341.109,447.313,341.108
	 M447.31,340.886c0,0.015,0,0.029,0,0.045C447.31,340.917,447.31,340.901,447.31,340.886 M447.308,340.701c0,0.007,0,0.016,0,0.022
	C447.308,340.715,447.308,340.71,447.308,340.701 M447.305,340.48c0,0.01,0,0.023,0,0.032
	C447.305,340.499,447.305,340.493,447.305,340.48 M447.301,340.277c0,0.015,0,0.032,0.001,0.047
	C447.301,340.311,447.301,340.292,447.301,340.277 M447.298,340.092c0,0.007,0,0.009,0,0.015
	C447.298,340.103,447.298,340.096,447.298,340.092 M447.294,339.869c0,0.012,0,0.025,0.001,0.038
	C447.295,339.896,447.295,339.88,447.294,339.869 M447.291,339.677c0,0.012,0,0.017,0,0.03
	C447.291,339.695,447.291,339.688,447.291,339.677 M447.286,339.482v0.001V339.482 M447.282,339.261c0,0.012,0,0.024,0.001,0.036
	C447.283,339.284,447.282,339.273,447.282,339.261 M447.278,339.074c0,0.003,0,0,0,0.003V339.074 M447.273,338.861
	c0,0.007,0,0.007,0,0.013C447.273,338.871,447.273,338.865,447.273,338.861 M447.268,338.656c0,0.01,0,0.014,0.001,0.024
	C447.269,338.671,447.268,338.665,447.268,338.656 M447.257,338.242c0,0.01,0,0.017,0.001,0.027
	C447.258,338.258,447.258,338.253,447.257,338.242 M447.253,338.048c0,0.006,0,0.013,0,0.019
	C447.253,338.061,447.253,338.055,447.253,338.048 M447.24,337.631c0,0.01,0,0.019,0.001,0.028
	C447.241,337.652,447.241,337.64,447.24,337.631 M447.228,337.231c0,0.003,0,0.006,0,0.01
	C447.228,337.239,447.228,337.233,447.228,337.231 M447.222,337.026c0,0.006,0,0.012,0.001,0.018
	C447.222,337.038,447.222,337.033,447.222,337.026 M447.208,336.617c0,0.003,0,0.011,0,0.014
	C447.208,336.626,447.208,336.621,447.208,336.617 M447.2,336.418c0,0.003,0,0.008,0,0.011
	C447.2,336.425,447.2,336.423,447.2,336.418 M447.185,336.008c0,0.003,0,0.009,0,0.012
	C447.185,336.014,447.185,336.012,447.185,336.008 M483.231,161.026L483.231,161.026L483.231,161.026 M483.284,160.831
	c-0.001,0.004-0.002,0.01-0.004,0.014C483.282,160.84,483.283,160.834,483.284,160.831 M483.337,160.638
	c-0.001,0.004-0.004,0.015-0.005,0.019C483.332,160.65,483.334,160.643,483.337,160.638 M483.585,159.701
	c-0.004,0.015-0.009,0.031-0.012,0.047C483.576,159.732,483.58,159.717,483.585,159.701 M483.636,159.499
	c-0.005,0.023-0.012,0.044-0.017,0.067C483.625,159.542,483.631,159.523,483.636,159.499 M483.689,159.298
	c-0.007,0.027-0.013,0.05-0.019,0.077C483.675,159.348,483.682,159.323,483.689,159.298 M483.741,159.094
	c-0.008,0.029-0.014,0.056-0.022,0.085C483.727,159.15,483.733,159.123,483.741,159.094 M483.793,158.891
	c-0.008,0.029-0.015,0.059-0.023,0.088C483.777,158.95,483.785,158.92,483.793,158.891 M483.843,158.687
	c-0.008,0.031-0.016,0.064-0.024,0.095C483.827,158.75,483.836,158.718,483.843,158.687 M483.918,158.388
	c-0.015,0.06-0.03,0.121-0.045,0.18C483.887,158.51,483.904,158.447,483.918,158.388 M483.968,158.186
	c-0.01,0.04-0.019,0.08-0.029,0.12C483.949,158.264,483.957,158.227,483.968,158.186 M484.018,157.982
	c-0.01,0.038-0.019,0.078-0.028,0.115C483.998,158.059,484.009,158.019,484.018,157.982 M484.067,157.78
	c-0.009,0.036-0.018,0.075-0.027,0.111C484.049,157.856,484.059,157.816,484.067,157.78 M484.117,157.571
	c-0.01,0.04-0.018,0.078-0.028,0.117C484.099,157.649,484.107,157.61,484.117,157.571 M484.167,157.363
	c-0.01,0.042-0.019,0.082-0.029,0.124C484.147,157.445,484.157,157.404,484.167,157.363 M484.218,157.146
	c-0.011,0.047-0.022,0.091-0.032,0.138C484.197,157.237,484.208,157.194,484.218,157.146 M484.282,156.877
	c-0.016,0.067-0.032,0.136-0.047,0.203C484.25,157.013,484.266,156.945,484.282,156.877 M484.31,156.753
	c-0.01,0.042-0.019,0.082-0.029,0.124C484.292,156.836,484.301,156.794,484.31,156.753 M484.339,156.629
	c-0.006,0.028-0.013,0.056-0.019,0.084C484.326,156.685,484.333,156.656,484.339,156.629 M484.368,156.502
	c-0.005,0.026-0.012,0.051-0.017,0.077C484.356,156.552,484.363,156.526,484.368,156.502 M484.397,156.374
	c-0.005,0.026-0.012,0.054-0.018,0.079C484.385,156.426,484.391,156.403,484.397,156.374 M484.436,156.207
	c-0.009,0.04-0.017,0.078-0.027,0.117C484.418,156.285,484.426,156.246,484.436,156.207 M484.464,156.082
	c-0.006,0.028-0.013,0.056-0.019,0.084C484.451,156.14,484.458,156.11,484.464,156.082 M484.492,155.956
	c-0.006,0.028-0.012,0.051-0.017,0.079C484.48,156.009,484.487,155.981,484.492,155.956 M484.519,155.837
	c-0.005,0.023-0.01,0.044-0.015,0.067C484.509,155.883,484.515,155.857,484.519,155.837 M484.552,155.686
	c-0.006,0.031-0.014,0.063-0.02,0.093C484.538,155.748,484.546,155.716,484.552,155.686 M484.586,155.536
	c-0.006,0.028-0.014,0.064-0.02,0.092C484.572,155.598,484.579,155.566,484.586,155.536 M484.613,155.413
	c-0.005,0.026-0.011,0.048-0.016,0.073C484.602,155.462,484.607,155.439,484.613,155.413 M484.641,155.288
	c-0.005,0.025-0.01,0.046-0.016,0.072C484.63,155.335,484.634,155.314,484.641,155.288 M484.672,155.14
	c-0.007,0.031-0.013,0.06-0.019,0.092C484.659,155.203,484.666,155.17,484.672,155.14 M484.704,154.994
	c-0.01,0.042-0.017,0.079-0.026,0.121C484.687,155.072,484.696,155.035,484.704,154.994 M484.731,154.869
	c-0.005,0.023-0.011,0.048-0.015,0.071C484.722,154.915,484.726,154.895,484.731,154.869 M484.756,154.751
	c-0.004,0.019-0.009,0.039-0.013,0.058C484.749,154.789,484.752,154.772,484.756,154.751 M484.783,154.624
	c-0.004,0.019-0.009,0.041-0.013,0.06C484.775,154.666,484.78,154.642,484.783,154.624 M484.812,154.489
	c-0.004,0.023-0.011,0.051-0.015,0.073C484.803,154.537,484.807,154.514,484.812,154.489 M484.847,154.325
	c-0.004,0.023-0.01,0.046-0.014,0.069C484.837,154.372,484.841,154.348,484.847,154.325 M484.873,154.2
	c-0.004,0.023-0.01,0.046-0.014,0.069C484.863,154.247,484.868,154.224,484.873,154.2 M484.898,154.079
	c-0.004,0.019-0.009,0.042-0.013,0.063C484.89,154.121,484.894,154.099,484.898,154.079 M484.925,153.948
	c-0.005,0.025-0.01,0.046-0.015,0.072C484.915,153.997,484.92,153.971,484.925,153.948 M484.96,153.78
	c-0.006,0.031-0.013,0.061-0.018,0.093C484.947,153.843,484.953,153.809,484.96,153.78 M484.984,153.661
	c-0.004,0.019-0.009,0.04-0.012,0.059C484.976,153.701,484.979,153.682,484.984,153.661 M485.011,153.531
	c-0.004,0.023-0.009,0.044-0.014,0.067C485.001,153.575,485.005,153.554,485.011,153.531 M485.038,153.394
	c-0.005,0.025-0.012,0.058-0.017,0.084C485.027,153.45,485.032,153.421,485.038,153.394 M485.07,153.236
	c-0.008,0.039-0.016,0.082-0.024,0.122C485.054,153.317,485.061,153.277,485.07,153.236 M485.094,153.113
	c-0.005,0.028-0.011,0.055-0.016,0.083C485.083,153.169,485.088,153.141,485.094,153.113 M485.118,152.99
	c-0.004,0.023-0.009,0.045-0.013,0.068C485.11,153.035,485.114,153.013,485.118,152.99 M485.143,152.862
	c-0.005,0.025-0.01,0.049-0.014,0.073C485.133,152.91,485.139,152.886,485.143,152.862 M485.169,152.728
	c-0.005,0.028-0.011,0.054-0.016,0.082C485.159,152.783,485.165,152.755,485.169,152.728 M485.199,152.573
	c-0.007,0.037-0.014,0.071-0.021,0.108C485.186,152.644,485.193,152.609,485.199,152.573 M485.224,152.447
	c-0.004,0.023-0.009,0.046-0.013,0.069C485.215,152.493,485.22,152.469,485.224,152.447 M485.247,152.326
	c-0.004,0.023-0.009,0.042-0.012,0.065C485.239,152.367,485.242,152.349,485.247,152.326 M485.272,152.194
	c-0.004,0.023-0.01,0.052-0.014,0.074C485.263,152.243,485.267,152.219,485.272,152.194 M485.304,152.027
	c-0.008,0.039-0.015,0.079-0.023,0.117C485.29,152.104,485.296,152.068,485.304,152.027 M485.327,151.903
	c-0.005,0.028-0.011,0.06-0.016,0.088C485.316,151.962,485.321,151.932,485.327,151.903 M485.351,151.776
	c-0.005,0.028-0.011,0.056-0.016,0.084C485.34,151.832,485.346,151.803,485.351,151.776 M485.376,151.641
	c-0.005,0.03-0.011,0.06-0.017,0.092C485.364,151.703,485.371,151.671,485.376,151.641 M485.402,151.501
	c-0.007,0.037-0.014,0.073-0.021,0.11C485.388,151.575,485.394,151.538,485.402,151.501 M485.428,151.359
	c-0.008,0.039-0.015,0.081-0.022,0.12C485.413,151.44,485.42,151.398,485.428,151.359 M485.45,151.233
	c-0.005,0.03-0.012,0.067-0.017,0.097C485.438,151.295,485.444,151.266,485.45,151.233 M485.474,151.104
	c-0.007,0.033-0.011,0.063-0.017,0.096C485.462,151.167,485.468,151.135,485.474,151.104 M485.499,150.965
	c-0.006,0.037-0.013,0.071-0.019,0.107C485.486,151.035,485.492,151,485.499,150.965 M485.547,150.69
	c-0.015,0.086-0.03,0.171-0.045,0.258C485.517,150.862,485.532,150.774,485.547,150.69 M485.57,150.56
	c-0.006,0.039-0.012,0.07-0.019,0.109C485.557,150.634,485.564,150.597,485.57,150.56 M485.593,150.433
	c-0.006,0.037-0.012,0.069-0.018,0.106C485.58,150.502,485.586,150.47,485.593,150.433 M485.64,150.154
	c-0.014,0.083-0.029,0.17-0.044,0.254C485.611,150.321,485.626,150.24,485.64,150.154 M485.663,150.022
	c-0.006,0.037-0.013,0.075-0.019,0.112C485.65,150.098,485.656,150.059,485.663,150.022 M485.685,149.887
	c-0.006,0.039-0.014,0.08-0.021,0.12C485.672,149.965,485.679,149.928,485.685,149.887 M485.753,149.485
	c-0.022,0.134-0.043,0.261-0.066,0.393C485.709,149.747,485.731,149.616,485.753,149.485 M485.774,149.358
	c-0.006,0.039-0.013,0.078-0.019,0.116C485.761,149.435,485.767,149.399,485.774,149.358 M485.86,148.821
	c-0.027,0.171-0.055,0.346-0.084,0.518C485.805,149.167,485.833,148.993,485.86,148.821 M485.944,148.288
	c-0.027,0.171-0.054,0.349-0.082,0.522C485.89,148.635,485.917,148.463,485.944,148.288 M257.406,136.404c0.003,0,0.006,0,0.01,0
	C257.412,136.404,257.408,136.404,257.406,136.404 M257.254,136.402c0.006,0,0.022,0,0.027,0
	C257.272,136.402,257.262,136.402,257.254,136.402 M257.113,136.401c0.01,0,0.015,0,0.025,0
	C257.131,136.402,257.121,136.401,257.113,136.401 M256.963,136.401c0.012,0,0.022,0,0.034,0
	C256.985,136.401,256.974,136.401,256.963,136.401 M256.809,136.4c0.015,0,0.034,0,0.051,0
	C256.843,136.4,256.826,136.4,256.809,136.4 M256.661,136.399c0.022,0,0.036,0,0.057,0
	C256.698,136.399,256.679,136.399,256.661,136.399 M256.505,136.399c0.022,0,0.047,0,0.069,0
	C256.553,136.399,256.528,136.399,256.505,136.399 M256.34,136.398c0.031,0,0.064,0,0.094,0
	C256.403,136.398,256.371,136.398,256.34,136.398 M256.179,136.398c0.037,0,0.074,0,0.112,0
	C256.252,136.398,256.217,136.398,256.179,136.398 M256,136.398L256,136.398c0.05,0,0.097,0,0.145,0
	C256.097,136.398,256.048,136.398,256,136.398 M485.999,113.16c1.582,10.852,1.863,22.677-0.053,35.117
	C487.862,135.837,487.58,124.011,485.999,113.16 M485.983,113.052c0.005,0.033,0.01,0.068,0.015,0.101
	C485.993,113.12,485.987,113.085,485.983,113.052 M485.966,112.933c0.005,0.033,0.01,0.068,0.015,0.102
	C485.975,113.002,485.97,112.967,485.966,112.933 M485.948,112.818c0.005,0.037,0.011,0.069,0.015,0.106
	C485.959,112.888,485.954,112.853,485.948,112.818 M485.932,112.714c0.003,0.019,0.007,0.041,0.009,0.06
	C485.939,112.752,485.936,112.736,485.932,112.714 M485.918,112.616c0.002,0.014,0.004,0.03,0.007,0.044
	C485.922,112.646,485.92,112.629,485.918,112.616 M485.905,112.53c0.001,0.004,0.001,0.009,0.002,0.014
	C485.906,112.539,485.906,112.537,485.905,112.53 M401.972,80.039c-0.005,0.002-0.008,0.004-0.013,0.006
	C401.962,80.043,401.967,80.041,401.972,80.039 M402.35,79.848L402.35,79.848c-0.029,0.015-0.057,0.029-0.086,0.043
	C402.291,79.878,402.322,79.863,402.35,79.848L402.35,79.848 M404.714,78.66c-0.012,0.005-0.024,0.012-0.036,0.018
	C404.69,78.672,404.702,78.666,404.714,78.66 M401.126,39.416l26.389,26.39c-6.314,4.448-14.344,8.595-22.769,12.838
	c8.426-4.243,16.458-8.387,22.772-12.837L401.126,39.416 M423.991,16.551l-22.865,22.865L423.991,16.551l9.526,9.526l0,0
	L423.991,16.551"/>
<path style="fill:#835E10;" d="M256.457,511.999c-0.061,0-0.123,0-0.184,0C256.332,512,256.396,512,256.457,511.999 M309.65,334.251
	c-11.812,0-21.394-9.698-21.394-21.66c0-11.964,9.581-21.661,21.394-21.661c11.798,0,21.379,9.698,21.379,21.661
	C331.029,324.553,321.448,334.251,309.65,334.251 M256,136.398v236.669c14.522,0,23.352,1.222,30.471,4.218
	c11.456,4.82,17.765,14.433,17.765,27.067c0,14.854-11.209,27.661-16.028,32.477c-2.896,2.895-8.685,8.105-16.039,11.784v62.869
	c-5.164,0.327-10.379,0.507-15.645,0.517c51.901-0.105,99.336-15.714,133.617-43.98c37.41-30.846,57.186-73.953,57.186-124.662l0,0
	c0-0.061,0-0.123,0-0.184c0-0.015,0-0.032,0-0.049c0-0.049,0-0.095,0-0.143c0-0.015,0-0.031,0-0.047c0-0.061,0-0.121,0-0.182
	c0-0.01,0-0.02,0-0.03c0-0.051,0-0.101,0-0.152c0-0.018,0-0.038,0-0.056c0-0.051,0-0.098-0.001-0.15c0-0.012,0-0.023,0-0.034
	c0-0.061-0.001-0.123-0.001-0.184c0-0.012,0-0.027,0-0.039c0-0.049-0.001-0.097-0.001-0.146c0-0.015,0-0.036,0-0.051
	c0-0.057-0.001-0.115-0.001-0.172c0-0.003,0-0.011,0-0.014c0-0.059-0.001-0.123-0.002-0.182c0-0.015,0-0.031,0-0.047
	c0-0.051-0.001-0.097-0.001-0.149c0-0.012,0-0.027,0-0.04c-0.001-0.064-0.001-0.126-0.002-0.19v-0.009
	c-0.001-0.059-0.001-0.116-0.002-0.177c0-0.015,0-0.029,0-0.045c-0.001-0.053-0.001-0.111-0.002-0.164c0-0.006,0-0.016,0-0.022
	c-0.001-0.061-0.002-0.127-0.003-0.189c0-0.01,0-0.023,0-0.032c-0.001-0.051-0.001-0.103-0.002-0.155c0-0.015,0-0.032-0.001-0.047
	c-0.001-0.057-0.002-0.113-0.003-0.17c0-0.007,0-0.009,0-0.015c-0.001-0.064-0.002-0.123-0.003-0.186c0-0.013,0-0.026-0.001-0.038
	c-0.001-0.055-0.002-0.107-0.003-0.162c0-0.012,0-0.017,0-0.03c-0.001-0.064-0.002-0.129-0.004-0.194v-0.001
	c-0.001-0.061-0.002-0.124-0.004-0.185c0-0.012,0-0.024-0.001-0.036c-0.001-0.061-0.002-0.122-0.004-0.183c0-0.003,0,0,0-0.003
	c-0.001-0.066-0.003-0.134-0.004-0.199c0-0.007,0-0.007,0-0.013c-0.001-0.061-0.003-0.12-0.004-0.181c0-0.01,0-0.014-0.001-0.024
	c-0.003-0.127-0.006-0.261-0.01-0.388c0-0.01,0-0.017-0.001-0.027c-0.001-0.057-0.003-0.118-0.004-0.175c0-0.006,0-0.013,0-0.019
	c-0.003-0.129-0.008-0.259-0.011-0.388c0-0.01,0-0.019-0.001-0.028c-0.004-0.132-0.008-0.259-0.012-0.39c0-0.003,0-0.006,0-0.01
	c-0.002-0.061-0.004-0.125-0.006-0.188c0-0.007,0-0.012-0.001-0.018c-0.004-0.132-0.009-0.263-0.013-0.395c0-0.003,0-0.011,0-0.014
	c-0.002-0.064-0.004-0.125-0.006-0.189c0-0.003,0-0.008,0-0.011c-0.004-0.132-0.01-0.267-0.015-0.399c0-0.003,0-0.009,0-0.012
	c-1.238-32.385-10.604-64.975-26.75-94.316l0,0c-5.181-9.418-11.065-18.503-17.6-27.136c-3.448-4.556-7.081-8.987-10.887-13.276
	c-11.531-12.993-24.141-24.175-37.556-33.415c-9.189-6.329-18.756-11.747-28.619-16.215c-0.002,0.005-0.002,0.006-0.004,0.012
	c-21.67-9.817-44.755-15.055-68.355-15.257c-0.003,0-0.006,0-0.01,0c-0.043,0-0.082-0.001-0.125-0.001c-0.006,0-0.02,0-0.027,0
	c-0.038,0-0.078,0-0.115-0.001c-0.01,0-0.015,0-0.025,0c-0.04,0-0.077,0-0.116-0.001c-0.012,0-0.022,0-0.034,0
	c-0.033,0-0.07,0-0.103-0.001c-0.015,0-0.034,0-0.051,0c-0.031,0-0.061,0-0.092,0c-0.022,0-0.036,0-0.057,0
	c-0.029,0-0.056,0-0.086,0c-0.022,0-0.047,0-0.069,0c-0.025,0-0.046,0-0.071,0c-0.031,0-0.064,0-0.094,0c-0.016,0-0.033,0-0.05,0
	c-0.037,0-0.074,0-0.112,0c-0.011,0-0.023,0-0.032,0C256.096,136.398,256.05,136.398,256,136.398"/>
<path style="fill:#323132;" d="M272.168,448.612c-4.838,2.42-10.353,4.178-16.168,4.178V512c0.093,0,0.18,0,0.272,0
	c0.061,0,0.123,0,0.184,0c0.023,0,0.045,0,0.067,0c5.266-0.011,10.48-0.191,15.645-0.517v-62.87"/>
<path style="fill:#9D5B6E;" d="M256,373.067v79.723c5.815,0,11.331-1.758,16.168-4.178c7.354-3.679,13.143-8.888,16.039-11.784
	c4.819-4.816,16.028-17.624,16.028-32.477c0-12.634-6.309-22.247-17.765-27.067C279.352,374.288,270.522,373.067,256,373.067"/>
<path style="fill:#333333;" d="M180.971,312.589c0-11.876,9.52-21.493,21.218-21.493c11.713,0,21.232,9.618,21.232,21.493
	c0,11.874-9.519,21.501-21.232,21.501C190.491,334.09,180.971,324.464,180.971,312.589z"/>
</svg>