<svg xmlns="http://www.w3.org/2000/svg" viewBox="0,0,24,24"><path d="M12.7 9.3C12.3 8.9 11.7 8.9 11.3 9.3C10.9 9.7 10.9 10.3 11.3 10.7L12.6 12 11.3 13.3C10.9 13.7 10.9 14.3 11.3 14.7C11.7 15.1 12.3 15.1 12.7 14.7L14 13.4 15.3 14.7C15.7 15.1 16.3 15.1 16.7 14.7C17.1 14.3 17.1 13.7 16.7 13.3L15.4 12 16.7 10.7C17.1 10.3 17.1 9.7 16.7 9.3C16.3 8.9 15.7 8.9 15.3 9.3L14 10.6 12.7 9.3ZM8.8 4.7C9.3 4.3 10 4 10.8 4H16.4C17.3 4 18.2 4 18.9 4.2C19.6 4.4 20.3 4.7 20.8 5.2C21.3 5.7 21.6 6.4 21.8 7.1C22 7.8 22 8.7 22 9.6V14.4C22 15.3 22 16.2 21.8 16.9C21.6 17.6 21.3 18.3 20.8 18.8C20.3 19.3 19.6 19.6 18.9 19.8C18.2 20 17.3 20 16.4 20H10.8C10 20 9.3 19.7 8.8 19.3L3.1 14.3C1.7 13.1 1.7 10.9 3.1 9.7L8.8 4.7Z"/></svg>