<svg xmlns="http://www.w3.org/2000/svg" viewBox="0,0,24,24"><path d="M9.7 8.3C9.3 7.9 8.7 7.9 8.3 8.3C7.9 8.7 7.9 9.3 8.3 9.7L10.6 12 8.3 14.3C7.9 14.7 7.9 15.3 8.3 15.7C8.7 16.1 9.3 16.1 9.7 15.7L12 13.4 14.3 15.7C14.7 16.1 15.3 16.1 15.7 15.7C16.1 15.3 16.1 14.7 15.7 14.3L13.4 12 15.7 9.7C16.1 9.3 16.1 8.7 15.7 8.3C15.3 7.9 14.7 7.9 14.3 8.3L12 10.6 9.7 8.3ZM7.2 2.4C8.6 2.1 10.1 2 12 2C13.9 2 15.4 2.1 16.8 2.4C18.1 2.7 19.2 3.2 20 4C20.8 4.8 21.3 5.9 21.6 7.2C21.9 8.6 22 10.1 22 12C22 13.9 21.9 15.4 21.6 16.8C21.3 18.1 20.8 19.2 20 20C19.2 20.8 18.1 21.3 16.8 21.6C15.4 21.9 13.9 22 12 22C10.1 22 8.6 21.9 7.2 21.6C5.9 21.3 4.8 20.8 4 20C3.2 19.2 2.7 18.1 2.4 16.8C2.1 15.4 2 13.9 2 12C2 10.1 2.1 8.6 2.4 7.2C2.7 5.9 3.2 4.8 4 4C4.8 3.2 5.9 2.7 7.2 2.4Z"/></svg>