<svg xmlns="http://www.w3.org/2000/svg" viewBox="0 0 512 512" xml:space="preserve"><style type="text/css"><![CDATA[
	.st0{fill:#000000;}
]]></style><path class="st0" d="M326.3 137l-11.6 16c1.8 .8 3.5 1.5 5.3 2.3s3.4 1.6 5 2.4s3.2 1.7 4.7 2.5c1.5 .9 3 1.7 4.4 2.6c2.4 1.5 4.6 3.3 6.6 5.1c2 1.8 3.8 3.6 5.2 5.3c1.5 1.7 2.7 3.2 3.5 4.3c.8 1.1 1.3 1.8 1.4 2l.7 .8 .4 .9 0 1-.2 1-.6 .9-.9 .8-1.1 .6-1.2 .4-22.9 5.7-1.2 .2-1.2 0-1.2-.1-1.1-.3-.6-.2-.5-.3-.5-.3-.4-.4c-.1-.1-.5-.6-1.1-1.4c-.6-.8-1.6-1.8-2.7-3c-1.1-1.2-2.4-2.5-3.9-3.7c-1.5-1.3-3-2.5-4.8-3.5c-1.7-1-3.4-2-5.2-2.9s-3.6-1.9-5.5-2.7c-1.9-.9-3.8-1.7-5.9-2.5s-4.1-1.6-6.2-2.3c-2.8-1-5.5-1.8-8-2.4c-2.5-.6-5-1.1-7.3-1.4c-2.3-.3-4.5-.5-6.6-.5s-4.1 .1-6 .4c-1.9 .3-3.6 .7-5.3 1.2s-3.1 1.2-4.5 1.9c-1.4 .8-2.7 1.6-3.8 2.6c-1.1 1-2.1 2.1-3 3.3c-.8 1.1-1.4 2.2-1.9 3.2c-.5 1-.8 2.1-.9 3.1s-.1 2 .1 2.9c.2 1 .5 1.9 1.1 2.8c.5 .9 1.2 1.8 2.2 2.8c.9 .9 2.1 1.8 3.4 2.8c1.3 .9 2.9 1.8 4.6 2.8c1.7 .9 3.7 1.9 5.8 2.8L277 206.5c4.5 1.9 8.6 3.8 12.2 5.8c3.7 2 7 4 9.9 6.1c2.9 2.1 5.4 4.2 7.5 6.4c2.1 2.2 3.9 4.5 5.2 6.8c1.4 2.3 2.3 4.7 2.8 7.1c.5 2.4 .6 4.9 .2 7.5c-.3 2.6-1.1 5.2-2.3 7.9c-1.2 2.7-2.8 5.4-4.8 8.2c-1.2 1.7-2.5 3.3-3.9 4.8c-1.4 1.5-2.8 2.9-4.4 4.2c-1.5 1.3-3.2 2.5-4.8 3.6c-1.7 1.1-3.5 2.2-5.3 3.1c-1.9 1-3.8 1.8-5.8 2.6c-2 .8-4 1.5-6.1 2.1s-4.2 1.1-6.4 1.6c-2.2 .5-4.4 .8-6.7 1.1c-2.3 .3-4.6 .5-7 .6s-4.8 .2-7.2 .1c-2.5-0-5-.2-7.5-.4c-2.5-.2-5.1-.5-7.7-.8c-1.2-.2-2.3-.4-3.4-.6c-1.1-.2-2.3-.4-3.4-.6c-1.2-.2-2.3-.5-3.5-.7c-1.2-.2-2.3-.5-3.5-.8l-13.8 19.1-32.1-11 13.6-18.7c-2.2-.9-4.3-1.9-6.4-2.8s-4.1-2-6.1-3c-2-1-3.9-2-5.8-3.1s-3.7-2.1-5.5-3.2c-2.7-1.7-5.3-3.9-7.7-6.2c-2.3-2.3-4.5-4.8-6.3-7.2s-3.3-4.4-4.3-6c-1.1-1.6-1.7-2.7-1.8-2.8l-.6-.9-.3-.9 0-.9 .3-.9 .6-.9 .9-.7 1.1-.6 1.2-.4 24.4-5.9 1.2-.2 1.2-0 1.1 .1 1.1 .3 .7 .3 .6 .3 .6 .4 .5 .5c.1 .1 .5 .9 1.3 2.1c.8 1.2 1.8 2.8 3.2 4.5c1.3 1.7 2.8 3.6 4.5 5.3c1.7 1.7 3.6 3.3 5.5 4.6c1.9 1.2 3.9 2.4 6 3.5c2 1.1 4.1 2.2 6.2 3.2s4.2 1.9 6.4 2.8c2.2 .9 4.4 1.7 6.6 2.5c2.9 1 5.7 1.8 8.4 2.5s5.4 1.3 8 1.8c2.6 .5 5.2 .8 7.7 1c2.5 .2 5 .2 7.3 .2c2.4-.1 4.6-.3 6.7-.8c2.1-.4 4-1 5.7-1.8c1.7-.8 3.3-1.8 4.7-2.9c1.4-1.2 2.7-2.5 3.8-4c.8-1.1 1.4-2.2 1.9-3.2c.5-1 .8-2.1 1-3.1c.2-1 .2-2 0-3c-.2-1-.5-1.9-.9-2.9s-1.1-1.9-2-2.8c-.9-1-2-1.9-3.2-2.8s-2.7-1.9-4.4-2.8c-1.7-.9-3.5-1.9-5.6-2.8l-27.5-11.6c-4-1.8-7.8-3.6-11.1-5.4c-3.4-1.8-6.4-3.8-9.1-5.7c-2.7-2-5-4-7-6c-2-2.1-3.7-4.2-4.9-6.4c-1.3-2.2-2.2-4.4-2.7-6.8c-.5-2.3-.5-4.7-.1-7.2c.4-2.5 1.2-5 2.4-7.7c1.2-2.7 2.8-5.4 4.9-8.2c1.1-1.5 2.3-3 3.6-4.4s2.6-2.7 4.1-3.9c1.5-1.2 3-2.4 4.6-3.4c1.6-1.1 3.3-2.1 5.1-3c1.8-.9 3.6-1.8 5.4-2.5c1.9-.8 3.8-1.5 5.7-2.1c2-.6 4-1.2 6-1.6c2.1-.5 4.2-.8 6.3-1.2c2.1-.3 4.3-.5 6.5-.7c2.2-.2 4.4-.3 6.7-.3c2.2-0 4.5 0 6.8 .2c2.3 .1 4.6 .3 7 .6c1 .1 2 .2 3 .4s2 .3 2.9 .5c1 .2 2 .4 2.9 .6c1 .2 2 .4 3 .6l11.9-16.4L326.3 137z"/><path class="st0" d="M256 55.1c-141.4 0-256 72.3-256 161.4v78.9c0 89.2 114.6 161.4 256 161.4s256-72.2 256-161.4v-78.9C512 127.4 397.4 55.1 256 55.1zM256 89.7c120 0 221.4 58.1 221.4 126.8C477.4 285.2 376 343.3 256 343.3S34.6 285.2 34.6 216.5C34.6 147.8 136 89.7 256 89.7z"/></svg>