<svg viewBox="0 0 24 24" xmlns="http://www.w3.org/2000/svg"><path d="M15.3 2C15.9 2 16.5 2 17 2.2C17.5 2.4 18 2.8 18.4 3.2C19.1 3.8 19.8 4.4 20.5 5.1C21 5.5 21.5 6 21.7 6.6C22 7.1 22 7.8 22 8.5C22 10 22 11.5 22 13.1C22 14 22 14.7 21.9 15.3C21.8 16 21.6 16.6 21.1 17.1C20.6 17.6 20 17.8 19.3 17.9C18.7 18 18 18 17.1 18H12.9C12 18 11.3 18 10.7 17.9C10 17.8 9.4 17.6 8.9 17.1C8.4 16.6 8.2 16 8.1 15.3C8 14.7 8 14 8 13.1L8 7C8 6.1 8 5.3 8.1 4.7C8.2 4 8.4 3.4 8.9 2.9C9.4 2.4 10 2.2 10.7 2.1C11.3 2 12 2 12.9 2C13 2 13 2 13 2C13.8 2 14.5 2 15.3 2Z"/><path d="M16 19H12.9C12 19 11.2 19 10.5 18.9C9.8 18.8 8.9 18.6 8.2 17.8C7.4 17.1 7.2 16.2 7.1 15.5C7 14.8 7 14 7 13.1L7 6.9C7 6.6 7 6.3 7 6C6.2 6 5.5 6 4.7 6.1C4.1 6.1 3.5 6.3 3 6.7C2.9 6.8 2.8 6.9 2.7 7C2.3 7.5 2.1 8.1 2.1 8.7C2 9.3 2 10 2 10.8L2 17.1C2 18 2 18.7 2.1 19.3C2.2 20 2.4 20.6 2.9 21.1C3.4 21.6 4 21.8 4.7 21.9C5.3 22 6 22 6.9 22L11.9 22C12.4 22 12.8 22 13.2 22C13.6 21.9 13.9 21.9 14.3 21.7C14.9 21.4 15.4 20.9 15.7 20.3C15.9 19.9 16 19.4 16 19Z"/></svg>