<svg xmlns="http://www.w3.org/2000/svg" viewBox="0 0 32 32" xml:space="preserve"><style type="text/css">
	.st0{fill:none;stroke:#000000;stroke-width:2;stroke-linecap:round;stroke-linejoin:round;stroke-miterlimit:10;}
</style><ellipse class="st0" cx="14" cy="8" rx="10" ry="5"/><ellipse cx="14" cy="8" rx="11" ry="6"/><path d="M14 24c-4.8 0-8.8-1.4-11-3.6V24c0 3.4 4.8 6 11 6c.9 0 1.8-.1 2.7-.2C15.2 28.3 14.3 26.2 14 24C14 24 14 24 14 24z"/><path d="M3 12.4V16c0 3.4 4.8 6 11 6c0 0 0 0 .1 0c.2-2.4 1.4-4.6 3-6.2c-1 .1-2 .2-3.1 .2C9.2 16 5.2 14.6 3 12.4z"/><path d="M31.7 20.9c-.1-.5-.7-.8-1.2-.7c-.7 .2-1.2 0-1.3-.2c-.1-.2 0-.7 .5-1.3c.4-.4 .4-1 0-1.4c-1-1-2.2-1.7-3.6-2.1c-.5-.1-1.1 .2-1.2 .7c-.2 .7-.6 1-.9 1s-.6-.4-.9-1c-.2-.5-.7-.8-1.2-.7c-1.4 .4-2.6 1.1-3.6 2.1c-.4 .4-.4 1 0 1.4c.5 .5 .6 1 .5 1.3c-.1 .2-.6 .4-1.3 .2c-.5-.1-1.1 .2-1.2 .7C16.1 21.6 16 22.3 16 23s.1 1.4 .3 2.1c.1 .5 .7 .8 1.2 .7c.7-.2 1.2 0 1.3 .2c.1 .2 0 .7-.5 1.3c-.4 .4-.4 1 0 1.4c1 1 2.2 1.7 3.6 2.1c.5 .1 1.1-.2 1.2-.7c.2-.7 .6-1 .9-1s.6 .4 .9 1c.1 .4 .5 .7 1 .7c.1 0 .2 0 .3 0c1.4-.4 2.6-1.1 3.6-2.1c.4-.4 .4-1 0-1.4c-.5-.5-.6-1-.5-1.3c.1-.2 .6-.4 1.3-.2c.5 .1 1.1-.2 1.2-.7c.2-.7 .3-1.4 .3-2.1S31.9 21.6 31.7 20.9zM24 26c-1.7 0-3-1.3-3-3s1.3-3 3-3s3 1.3 3 3S25.7 26 24 26z"/></svg>