<svg viewBox="0 0 24 24" xmlns="http://www.w3.org/2000/svg"><path d="M12 21C12 20.4 12.4 20 13 20H21C21.6 20 22 20.4 22 21C22 21.6 21.6 22 21 22H13C12.4 22 12 21.6 12 21Z"/><path d="M20.8 8.1C22.4 6.5 22.3 4.4 21.1 3.1C20.5 2.4 19.7 2 18.7 2C17.8 2 16.8 2.3 15.9 3.1C15.9 3.1 15.9 3.1 15.8 3.2L2.9 16.2C2.3 16.7 2 17.5 2 18.3V20C2 21.1 2.9 22 4 22H5.7C6.5 22 7.2 21.7 7.8 21.1L20.8 8.1ZM17.2 5.8C16.8 5.4 16.2 5.4 15.8 5.8C15.4 6.2 15.4 6.8 15.8 7.2L16.8 8.2C17.2 8.6 17.8 8.6 18.2 8.2C18.6 7.8 18.6 7.2 18.2 6.8L17.2 5.8Z" fill-rule="evenodd"/></svg>