<svg xmlns="http://www.w3.org/2000/svg" viewBox="0,0,24,24"><path d="M7.3 14.3C6.9 14.7 6.9 15.3 7.3 15.7C7.7 16.1 8.3 16.1 8.7 15.7L11.2 13.2C11.9 12.5 11.9 11.5 11.2 10.8L8.7 8.3C8.3 7.9 7.7 7.9 7.3 8.3C6.9 8.7 6.9 9.3 7.3 9.7L9.6 12 7.3 14.3ZM13 14C12.4 14 12 14.4 12 15C12 15.6 12.4 16 13 16H16C16.6 16 17 15.6 17 15C17 14.4 16.6 14 16 14H13ZM22 7.9C22 8 22 8 22 8L22 16.1C22 17 22 17.7 21.9 18.3C21.8 19 21.6 19.6 21.1 20.1C20.6 20.6 20 20.8 19.3 20.9C18.7 21 18 21 17.1 21L6.9 21C6 21 5.3 21 4.7 20.9C4 20.8 3.4 20.6 2.9 20.1C2.4 19.6 2.2 19 2.1 18.3C2 17.7 2 17 2 16.1L2 7.9C2 7 2 6.3 2.1 5.7C2.2 5 2.4 4.4 2.9 3.9C3.4 3.4 4 3.2 4.7 3.1C5.3 3 6 3 6.9 3L17 3C17 3 17 3 17.1 3C18 3 18.7 3 19.3 3.1C20 3.2 20.6 3.4 21.1 3.9C21.6 4.4 21.8 5 21.9 5.7C22 6.3 22 7 22 7.9Z"/></svg>