<svg viewBox="0 0 24 24" xmlns="http://www.w3.org/2000/svg"><path d="M3 15L3.1 15C3.6 15.1 3.9 15.4 4 15.9L4 16 4 20 8 20 8.1 20C8.6 20.1 9 20.5 9 21C9 21.5 8.6 21.9 8.1 22L8 22 3 22 2.9 22C2.4 21.9 2.1 21.6 2 21.1L2 21 2 16 2 15.9C2.1 15.4 2.4 15.1 2.9 15L3 15ZM21 15C21.5 15 21.9 15.4 22 15.9L22 16 22 21C22 21.5 21.6 21.9 21.1 22L21 22 16 22C15.4 22 15 21.6 15 21C15 20.5 15.4 20.1 15.9 20L16 20 20 20 20 16C20 15.5 20.4 15.1 20.9 15L21 15ZM8 2C8.6 2 9 2.4 9 3C9 3.5 8.6 3.9 8.1 4L8 4 4 4 4 8C4 8.5 3.6 8.9 3.1 9L3 9C2.5 9 2.1 8.6 2 8.1L2 8 2 3C2 2.5 2.4 2.1 2.9 2L3 2 8 2ZM21 2L21.1 2C21.6 2.1 21.9 2.4 22 2.9L22 3 22 8 22 8.1C21.9 8.6 21.6 8.9 21.1 9L21 9 20.9 9C20.4 8.9 20.1 8.6 20 8.1L20 8 20 4 16 4 15.9 4C15.4 3.9 15 3.5 15 3C15 2.5 15.4 2.1 15.9 2L16 2 21 2Z"/></svg>