<svg viewBox="0 0 24 24" xmlns="http://www.w3.org/2000/svg"><path d="M21 15C21.6 15 22 15.4 22 16C22 16.5 21.6 16.9 21.1 17L21 17 17 17 17 21C17 21.5 16.6 21.9 16.1 22L16 22C15.5 22 15.1 21.6 15 21.1L15 21 15 16C15 15.5 15.4 15.1 15.9 15L16 15 21 15ZM8 15L8.1 15C8.6 15.1 8.9 15.4 9 15.9L9 16 9 21 9 21.1C8.9 21.6 8.6 21.9 8.1 22L8 22 7.9 22C7.4 21.9 7.1 21.6 7 21.1L7 21 7 17 3 17 2.9 17C2.4 16.9 2 16.5 2 16C2 15.5 2.4 15.1 2.9 15L3 15 8 15ZM16 2L16.1 2C16.6 2.1 16.9 2.4 17 2.9L17 3 17 7 21 7 21.1 7C21.6 7.1 22 7.5 22 8C22 8.5 21.6 8.9 21.1 9L21 9 16 9 15.9 9C15.4 8.9 15.1 8.6 15 8.1L15 8 15 3 15 2.9C15.1 2.4 15.4 2.1 15.9 2L16 2ZM8 2C8.5 2 8.9 2.4 9 2.9L9 3 9 8C9 8.5 8.6 8.9 8.1 9L8 9 3 9C2.4 9 2 8.6 2 8C2 7.5 2.4 7.1 2.9 7L3 7 7 7 7 3C7 2.5 7.4 2.1 7.9 2L8 2Z"/></svg>