<svg xmlns="http://www.w3.org/2000/svg" viewBox="0,0,24,24"><path d="M14 3.4C12.9 2.4 11.1 2.4 10 3.4L2.3 10.2C1.9 10.6 1.9 11.2 2.2 11.7C2.6 12.1 3.2 12.1 3.7 11.8L4 11.4 4 17.1C4 18 4 18.7 4.1 19.3C4.2 20 4.4 20.6 4.9 21.1C5.4 21.6 6 21.8 6.7 21.9C7.3 22 8 22 8.9 22H15.1C16 22 16.7 22 17.3 21.9C18 21.8 18.6 21.6 19.1 21.1C19.6 20.6 19.8 20 19.9 19.3C20 18.7 20 18 20 17.1L20 11.4 20.3 11.8C20.8 12.1 21.4 12.1 21.8 11.7C22.1 11.2 22.1 10.6 21.7 10.2L14 3.4ZM12 16C11.4 16 11 16.4 11 17V19C11 19.6 10.6 20 10 20C9.4 20 9 19.6 9 19V17C9 15.3 10.3 14 12 14C13.7 14 15 15.3 15 17V19C15 19.6 14.6 20 14 20C13.4 20 13 19.6 13 19V17C13 16.4 12.6 16 12 16Z"/></svg>