<svg viewBox="0 0 32 32" xmlns="http://www.w3.org/2000/svg"><path transform="translate(-362 -101)" d="M392 129C392 130.104 391.104 131 390 131L384.832 131 377.464 123.535 386 114.999 392 120.999 392 129 392 129ZM366 131C364.896 131 364 130.104 364 129L364 128.061 371.945 120.945 382.001 131 366 131 366 131ZM370 105C372.209 105 374 106.791 374 109C374 111.209 372.209 113 370 113C367.791 113 366 111.209 366 109C366 106.791 367.791 105 370 105L370 105ZM390 101L366 101C363.791 101 362 102.791 362 105L362 129C362 131.209 363.791 133 366 133L390 133C392.209 133 394 131.209 394 129L394 105C394 102.791 392.209 101 390 101L390 101ZM370 111C371.104 111 372 110.104 372 109C372 107.896 371.104 107 370 107C368.896 107 368 107.896 368 109C368 110.104 368.896 111 370 111L370 111Z"></path></svg>