<svg xmlns="http://www.w3.org/2000/svg" viewBox="0,0,24,24"><path d="M8 5V8C7.5 8 7.1 8 6.7 8.1C6 8.2 5.4 8.4 4.9 8.9C4.4 9.4 4.2 10 4.1 10.7C4 11.3 4 12 4 12.9V17.1C4 18 4 18.7 4.1 19.3C4.2 20 4.4 20.6 4.9 21.1C5.4 21.6 6 21.8 6.7 21.9C7.3 22 8 22 8.9 22H15.1C16 22 16.7 22 17.3 21.9C18 21.8 18.6 21.6 19.1 21.1C19.6 20.6 19.8 20 19.9 19.3C20 18.7 20 18 20 17.1V12.9C20 12 20 11.3 19.9 10.7C19.8 10 19.6 9.4 19.1 8.9C18.6 8.4 18 8.2 17.3 8.1C16.9 8 16.5 8 16 8V5C16 3.3 14.7 2 13 2H11C9.3 2 8 3.3 8 5ZM11 4C10.4 4 10 4.4 10 5V8L14 8V5C14 4.4 13.6 4 13 4H11ZM12 13C10.9 13 10 13.9 10 15C10 16.1 10.9 17 12 17C13.1 17 14 16.1 14 15C14 13.9 13.1 13 12 13Z" fill-rule="evenodd"/></svg>