<svg xmlns="http://www.w3.org/2000/svg" viewBox="0,0,24,24"><path d="M7.2 2.4C8.6 2.1 10.1 2 12 2C13.9 2 15.4 2.1 16.8 2.4C18.1 2.7 19.2 3.2 20 4C20.8 4.8 21.3 5.9 21.6 7.2C21.9 8.6 22 10.1 22 12C22 13.9 21.9 15.4 21.6 16.8C21.3 18.1 20.8 19.2 20 20C19.2 20.8 18.1 21.3 16.8 21.6C15.4 21.9 13.9 22 12 22C10.1 22 8.6 21.9 7.2 21.6C5.9 21.3 4.8 20.8 4 20C3.2 19.2 2.7 18.1 2.4 16.8C2.1 15.4 2 13.9 2 12C2 10.1 2.1 8.6 2.4 7.2C2.7 5.9 3.2 4.8 4 4C4.8 3.2 5.9 2.7 7.2 2.4ZM11 8C11 8.6 11.4 9 12 9C12.6 9 13 8.6 13 8V8C13 7.4 12.6 7 12 7C11.4 7 11 7.4 11 8V8ZM12 13C11.4 13 11 12.6 11 12V12C11 11.4 11.4 11 12 11C12.6 11 13 11.4 13 12V12C13 12.6 12.6 13 12 13ZM12 17C11.4 17 11 16.6 11 16V16C11 15.4 11.4 15 12 15C12.6 15 13 15.4 13 16V16C13 16.6 12.6 17 12 17Z" fill-rule="evenodd"/></svg>