<svg xmlns="http://www.w3.org/2000/svg" viewBox="0 0 128 128" xml:space="preserve"><path d="M61 113.1c-3.8-2.2-4.8-7.6-2.3-12.1l46.7-80.8c2.6-4.5 7.8-6.3 11.6-4.1l0 0c3.8 2.2 4.8 7.6 2.3 12.1l-46.7 80.8C70 113.4 64.8 115.3 61 113.1L61 113.1z"/><path d="M8 22c0-4.4 4.2-8 9.3-8h93.3c5.2 0 9.3 3.6 9.3 8l0 0c0 4.4-4.2 8-9.3 8H17.3C12.2 30 8 26.4 8 22L8 22z"/><path d="M11 16.1c3.8-2.2 9-.4 11.6 4.1l46.7 80.8c2.6 4.5 1.6 9.9-2.3 12.1l0 0c-3.8 2.2-9 .4-11.6-4.1L8.7 28.1C6.2 23.7 7.2 18.3 11 16.1L11 16.1z"/><polygon points="16,24 112,24 64,103 "/></svg>