<svg xmlns="http://www.w3.org/2000/svg" viewBox="0 0 128 128" xml:space="preserve"><path d="M61 103.1c-3.8-2.2-4.8-7.6-2.3-12.1l46.7-80.8c2.6-4.5 7.8-6.3 11.6-4.1l0 0c3.8 2.2 4.8 7.6 2.3 12.1L72.6 99C70 103.4 64.8 105.3 61 103.1L61 103.1z"/><path d="M8 12c0-4.4 4.2-8 9.3-8h93.3C115.8 4 120 7.6 120 12l0 0c0 4.4-4.2 8-9.3 8H17.3C12.2 20 8 16.4 8 12L8 12z"/><path d="M11 6.1c3.8-2.2 9-.4 11.6 4.1l46.7 80.8c2.6 4.5 1.6 9.9-2.3 12.1l0 0c-3.8 2.2-9 .4-11.6-4.1L8.7 18.1C6.2 13.7 7.2 8.3 11 6.1L11 6.1z"/><polygon points="16,14 112,14 64,93 "/><path d="M120 116c0 4.4-4.2 8-9.3 8H17.3C12.2 124 8 120.4 8 116l0 0c0-4.4 4.2-8 9.3-8h93.3C115.8 108 120 111.6 120 116L120 116z"/></svg>