<svg xmlns="http://www.w3.org/2000/svg" viewBox="0 0 128 128" xml:space="preserve"><path d="M67 24.8c3.8 2.2 4.8 7.6 2.3 12.1l-46.7 80.8c-2.6 4.5-7.8 6.3-11.6 4.1l0 0c-3.8-2.2-4.8-7.6-2.3-12.1l46.7-80.8C58 24.4 63.2 22.6 67 24.8L67 24.8z"/><path d="M120 116c0 4.4-4.2 8-9.3 8H17.3C12.2 124 8 120.4 8 116l0 0c0-4.4 4.2-8 9.3-8h93.3C115.8 108 120 111.6 120 116L120 116z"/><path d="M117 121.8c-3.8 2.2-9 .4-11.6-4.1l-46.7-80.8c-2.6-4.5-1.6-9.9 2.3-12.1l0 0c3.8-2.2 9-.4 11.6 4.1l46.7 80.8C121.8 114.2 120.8 119.6 117 121.8L117 121.8z"/><polygon points="112,114 16,114 64,35 "/><path d="M120 12c0 4.4-4.2 8-9.3 8H17.3C12.2 20 8 16.4 8 12l0 0c0-4.4 4.2-8 9.3-8h93.3C115.8 4 120 7.6 120 12L120 12z"/></svg>