<svg viewBox="0 0 24 24" xmlns="http://www.w3.org/2000/svg"><path d="M7.3 2.4C8.5 2.1 10.1 2 12 2C13.9 2 15.5 2.1 16.7 2.4C18.1 2.7 19.1 3.2 20 4C20.8 4.9 21.3 5.9 21.6 7.3C21.9 8.5 22 10.1 22 12C22 13.9 21.9 15.5 21.6 16.7C21.3 18.1 20.8 19.1 20 20C19.1 20.8 18.1 21.3 16.7 21.6C15.5 21.9 13.9 22 12 22C10.1 22 8.5 21.9 7.3 21.6C5.9 21.3 4.9 20.8 4 20C3.2 19.1 2.7 18.1 2.4 16.7C2.1 15.5 2 13.9 2 12C2 10.1 2.1 8.5 2.4 7.3C2.7 5.9 3.2 4.9 4 4C4.9 3.2 5.9 2.7 7.3 2.4ZM9 9C9.6 9 10 9.4 10 10V10C10 10.6 9.6 11 9 11C8.4 11 8 10.6 8 10V10C8 9.4 8.4 9 9 9ZM7.4 16.8C7.8 17.1 8.5 17 8.8 16.6C9.5 15.6 10.7 15 12 15C13.3 15 14.5 15.6 15.2 16.6C15.5 17 16.2 17.1 16.6 16.8C17 16.5 17.1 15.8 16.8 15.4C15.7 13.9 14 13 12 13C10 13 8.3 13.9 7.2 15.4C6.9 15.8 7 16.5 7.4 16.8ZM16 10C16 9.4 15.6 9 15 9C14.4 9 14 9.4 14 10V10C14 10.6 14.4 11 15 11C15.6 11 16 10.6 16 10V10Z" fill-rule="evenodd"/></svg>