<svg xmlns="http://www.w3.org/2000/svg" viewBox="0,0,24,24"><path d="M12 2C12.6 2 13 2.4 13 3V4C13 4.6 12.6 5 12 5C11.4 5 11 4.6 11 4V3C11 2.4 11.4 2 12 2Z"/><path d="M19.7 4.3C20.1 4.7 20.1 5.3 19.7 5.7L18.7 6.7C18.3 7.1 17.7 7.1 17.3 6.7C16.9 6.3 16.9 5.7 17.3 5.3L18.3 4.3C18.7 3.9 19.3 3.9 19.7 4.3Z"/><path d="M19 12C19 11.4 19.4 11 20 11H21C21.6 11 22 11.4 22 12C22 12.6 21.6 13 21 13H20C19.4 13 19 12.6 19 12Z"/><path d="M2 12C2 11.4 2.4 11 3 11H4C4.6 11 5 11.4 5 12C5 12.6 4.6 13 4 13H3C2.4 13 2 12.6 2 12Z"/><path d="M4.3 4.3C4.7 3.9 5.3 3.9 5.7 4.3L6.7 5.3C7.1 5.7 7.1 6.3 6.7 6.7C6.3 7.1 5.7 7.1 5.3 6.7L4.3 5.7C3.9 5.3 3.9 4.7 4.3 4.3Z"/><path d="M12 6C8.7 6 6 8.7 6 12C6 13.6 6.6 15.1 7.7 16.2C8 16.5 8.1 16.7 8.2 16.9L8.7 19.6C9 21 10.2 22 11.6 22H12.4C13.8 22 15 21 15.3 19.6L15.8 16.9C15.9 16.7 16 16.5 16.3 16.2C17.4 15.1 18 13.6 18 12C18 8.7 15.3 6 12 6ZM11 16C10.4 16 10 16.4 10 17C10 17.6 10.4 18 11 18H13C13.6 18 14 17.6 14 17C14 16.4 13.6 16 13 16H11Z" fill-rule="evenodd"/></svg>