<svg viewBox="0 0 24 24" xmlns="http://www.w3.org/2000/svg"><path d="M13 3.7C13 3.3 12.9 2.5 12.2 2.1C11.4 1.8 10.7 2.2 10.4 2.5L4.9 7.4H3C1.9 7.4 1 8.3 1 9.4L1 14.6C1 15.7 1.9 16.6 3 16.6H5L10.4 21.5C10.7 21.8 11.4 22.2 12.2 21.9C12.9 21.5 13 20.7 13 20.3V3.7Z"/><path d="M17.3 3.8L17.1 3.7C16.6 3.6 16 3.9 15.9 4.4L15.7 4.9C15.6 5.4 15.9 6 16.4 6.1L16.7 6.2C19 6.8 20.8 9.1 20.8 12C20.8 14.9 19 17.2 16.7 17.8L16.4 17.9C15.9 18 15.6 18.6 15.7 19.1L15.9 19.6C16 20.1 16.6 20.4 17.1 20.3L17.3 20.2C20.8 19.2 23.3 15.9 23.3 12C23.3 8.1 20.8 4.8 17.3 3.8Z"/><path d="M16.4 7.8L16.1 7.7C15.6 7.6 15 7.9 14.9 8.4L14.7 8.9C14.6 9.4 14.9 10 15.4 10.1L15.6 10.2C16.2 10.4 16.8 11 16.8 12C16.8 13 16.2 13.6 15.6 13.8L15.4 13.9C14.9 14 14.6 14.6 14.7 15.1L14.9 15.6C15 16.1 15.6 16.4 16.1 16.3L16.4 16.2C18.1 15.7 19.2 13.9 19.2 12C19.2 10.1 18.1 8.3 16.4 7.8Z"/></svg>