<svg viewBox="0 0 24 24" xmlns="http://www.w3.org/2000/svg"><path d="M12.2 2.1C12.9 2.5 13 3.3 13 3.7V20.3C13 20.7 12.9 21.5 12.2 21.9C11.4 22.2 10.7 21.8 10.4 21.5L5 16.6H3C1.9 16.6 1 15.7 1 14.6L1 9.4C1 8.3 1.9 7.4 3 7.4H4.9L10.4 2.5C10.7 2.2 11.4 1.8 12.2 2.1Z"/><path d="M16.1 7.7L16.4 7.8C18.1 8.3 19.2 10.1 19.2 12C19.2 13.9 18.1 15.7 16.4 16.2L16.1 16.3C15.6 16.4 15 16.1 14.9 15.6L14.7 15.1C14.6 14.6 14.9 14 15.4 13.9L15.6 13.8C16.2 13.6 16.8 13 16.8 12C16.8 11 16.2 10.4 15.6 10.2L15.4 10.1C14.9 10 14.6 9.4 14.7 8.9L14.9 8.4C15 7.9 15.6 7.6 16.1 7.7Z"/></svg>