<svg viewBox="0 0 24 24" xmlns="http://www.w3.org/2000/svg"><path d="M4 1.5C2.6 1.5 1.5 2.6 1.5 4V8.5C1.5 9.1 1.9 9.5 2.5 9.5H3.5C4.1 9.5 4.5 9.1 4.5 8.5V4.5H8.5C9.1 4.5 9.5 4.1 9.5 3.5V2.5C9.5 1.9 9.1 1.5 8.5 1.5H4Z"/><path d="M20 1.5C21.4 1.5 22.5 2.6 22.5 4V8.5C22.5 9.1 22.1 9.5 21.5 9.5H20.5C19.9 9.5 19.5 9.1 19.5 8.5V4.5H15.5C14.9 4.5 14.5 4.1 14.5 3.5V2.5C14.5 1.9 14.9 1.5 15.5 1.5H20Z"/><path d="M20 22.5C21.4 22.5 22.5 21.4 22.5 20V15.5C22.5 14.9 22.1 14.5 21.5 14.5H20.5C19.9 14.5 19.5 14.9 19.5 15.5V19.5H15.5C14.9 19.5 14.5 19.9 14.5 20.5V21.5C14.5 22.1 14.9 22.5 15.5 22.5H20Z"/><path d="M1.5 20C1.5 21.4 2.6 22.5 4 22.5H8.5C9.1 22.5 9.5 22.1 9.5 21.5V20.5C9.5 19.9 9.1 19.5 8.5 19.5H4.5V15.5C4.5 14.9 4.1 14.5 3.5 14.5H2.5C1.9 14.5 1.5 14.9 1.5 15.5V20Z"/></svg>