<svg viewBox="0 0 24 24" xmlns="http://www.w3.org/2000/svg"><path d="M12.2 2.1C12.9 2.5 13 3.3 13 3.7V20.3C13 20.7 12.9 21.5 12.2 21.9C11.4 22.2 10.7 21.8 10.4 21.5L5 16.6H3C1.9 16.6 1 15.7 1 14.6L1 9.4C1 8.3 1.9 7.4 3 7.4H4.9L10.4 2.5C10.7 2.2 11.4 1.8 12.2 2.1Z"/><path d="M21.8 15.7C21.4 16.1 20.8 16.1 20.4 15.7L18.5 13.8 16.6 15.7C16.2 16.1 15.6 16.1 15.2 15.7L14.8 15.3C14.4 14.9 14.4 14.3 14.8 13.9L16.7 12 14.8 10.1C14.4 9.7 14.4 9.1 14.8 8.7L15.2 8.3C15.6 7.9 16.2 7.9 16.6 8.3L18.5 10.2 20.4 8.3C20.8 7.9 21.4 7.9 21.8 8.3L22.2 8.7C22.6 9.1 22.6 9.7 22.2 10.1L20.3 12 22.2 13.9C22.6 14.3 22.6 14.9 22.2 15.3L21.8 15.7Z"/></svg>