<svg viewBox="0 0 48 48" fill="none" xmlns="http://www.w3.org/2000/svg"><path d="M30.3 18.8C30.3 18.8 27.1 27.9 25.5 29.5C24 31.1 21.5 31.1 19.9 29.6C18.3 28 18.2 25.5 19.8 23.9C21.3 22.3 30.3 18.8 30.3 18.8Z" fill="none" stroke="#000" stroke-width="4" stroke-linejoin="round"/><path d="M38.8 38.8C42.6 35 45 29.8 45 24C45 12.4 35.6 3 24 3C12.4 3 3 12.4 3 24C3 29.8 5.4 35 9.2 38.8" stroke="#000" stroke-width="4" stroke-linecap="round" stroke-linejoin="round"/><path d="M24 4V8" stroke="#000" stroke-width="4" stroke-linecap="round" stroke-linejoin="round"/><path d="M38.8 11.1L35.7 13.7" stroke="#000" stroke-width="4" stroke-linecap="round" stroke-linejoin="round"/><path d="M42.5 27.2L38.6 26.3" stroke="#000" stroke-width="4" stroke-linecap="round" stroke-linejoin="round"/><path d="M5.5 27.2L9.4 26.3" stroke="#000" stroke-width="4" stroke-linecap="round" stroke-linejoin="round"/><path d="M9.2 11.1L12.3 13.7" stroke="#000" stroke-width="4" stroke-linecap="round" stroke-linejoin="round"/></svg>