<svg xmlns="http://www.w3.org/2000/svg" viewBox="0 0 64 64" enable-background="new 0 0 64 64" xml:space="preserve"><path d="M32 0C15.8 0 2.4 12.1 .3 27.7c0 0-0 0-0 0c-.1 .4-.1 .8-.1 1.3c0 .2-0 .4-0 .6c0 .3-0 .6-.1 .8C0 31 0 31.5 0 32c0 17.7 14.3 32 32 32s32-14.3 32-32S49.7 0 32 0zM33.4 58.5c-.7 .8-1.9 1.4-2.7 .7c-.7-.6-.1-1.4 0-2.4c.1-1.1-.4-2.3 .7-2.7c.8-.3 1.5 .3 2 1C34.2 56.2 34.2 57.5 33.4 58.5zM43.4 49.9c-1.2 .6-2 .5-3.3 .7c-2.5 .3-4.4 1.5-6.3 0c-.9-.7-1-1.5-1.6-2.3c-1.1-1.4-1.4-3.9-3-3.3c-1.1 .4-1 1.4-1.7 2.3c-.8 1.2-.6 2.8-2 3c-1 .1-1.5-.5-2.3-1c-.9-.6-1.1-1.3-2-2c-.9-.7-1.7-.7-2.7-1.3c-.7-.5-.8-1.3-1.7-1.3c-.8-0-1.3 .3-1.7 1c-.7 1.2-.9 4.8-3 4.7c-1.5-.1-4.8-3.5-6-4.3c-.4-.3-.8-.6-1.2-.8c-1.8-3.8-2.9-8-3-12.4c.6-.5 1.2-.8 1.8-1.5c.9-1.1 .5-2.5 1.7-3.3c.9-.6 1.6-.5 2.7-.7c1.5-.2 2.5-.4 4 0c1.5 .4 2 1.2 3.3 2c1.4 .8 2.1 1.8 3.7 2c1.2 .2 2-.9 3-.3c.8 .5 1.4 1.1 1.3 2c-.1 1.2-2.5 .4-2.7 1.7c-.2 1.6 2.5-.2 4 .3c1 .4 2.2 .3 2.3 1.3c.1 1.2-1.6 .8-2.7 1.3c-1.2 .5-1.8 1-3 1.3c-1.1 .3-2.3-.6-3 .3c-.5 .7-.3 1.5 0 2.3c.8 1.9 3.3 1.4 5.3 .7c1.4-.5 1.6-1.7 3-2.3c1.4-.6 2.6-1.3 4-.7c1.2 .6 .8 2 2 2.7c1.3 .7 2.4-.7 3.7 0c1 .6 .9 1.5 1.7 2.3c.9 .9 1.4 1.7 2.7 2c1.3 .3 2.1-1.1 3.3-.7c1 .3 1.8 .7 2 1.7C46.5 48.6 44.7 49.2 43.4 49.9zM45.8 33.8c-1.2 1.2-2.2 1.5-3.8 1.9c-1.4 .3-3.4 1.4-3.8 0c-.3-1.1 1-1.6 1.9-2.4c1-.9 1.9-1 2.8-1.9c.9-.8 .8-2 1.9-2.4c1.1-.3 2.2-0 2.8 .9C48.7 31.4 47 32.7 45.8 33.8zM60 29.3c-.5 .5-.5 1-1 1.5c-.6 .5-1.3 .3-1.7 1c-.4 .6-.1 1.1-.2 1.7c0 .4-1.9 1.3-2.3 .4c-.2-.5 .3-.9 0-1.4c-.3-.4-.6-.2-.9 .2c-.4 .4-.8 1-1.2 1.2c-.6 .3-.2-2.2-.4-3.1c-.1-.7 0-1.1 .2-1.7c.2-.9 .9-1.2 1.2-2.1c.2-.8 0-1.3 0-2.1c0-.9-0-1.4-.2-2.3c-.2-.9-.3-1.5-.8-2.3c-.4-.6-.7-1-1.4-1.4c-.2-.1-.3-.1-.5-.2c-.3-.1-.7-.1-1.1-.2c-.9-.1-1.5 .4-2.3 0c-.5-.3-.6-.6-1-1c-.4-.4-.5-.8-1-1.2c-.3-.3-.6-.4-1-.6c-.8-.3-1.3-.1-2.1 .2c-.8 .3-1.1 .7-1.7 1.2c-.5 .3-.9 .4-1.3 .8c-.3 .2-1.6 1.2-2.1 1.2c-.5-0-.9-.3-1.3-.4c-.1-0-.1-0-.2 0c0 0 0 0-0 0c-.5 0-.7 .3-1.1 .4c-1.1 .3-1.8-.1-2.9 .2c-.7 .2-1 .8-1.7 .8c-.8 0-1.1-.7-1.9-1c-.4-.1-.7-.1-1.2-.2c-.7-.1-1.2-.1-1.9-.2H24.9c0 0-.6 .1-.7 0c-.4-.3-.7-.5-1.2-.8c-.6-.3-.9-.4-1.5-.6l0-.4c0 0 0-.8-.1-1.2c-.1-.4-.2-.4 0-1.1c.2-.7 .7-1.2 .7-1.2c.3-.2 .5-.3 .8-.6c.5-.5 .7-1 .8-1.7c.1-1-1.2-1.4-1-2.3c.2-.8 .9-1 1.5-1.5c.8-.7 1.5-.8 2.1-1.5c.5-.6 .9-1 1-1.7c.1-.7-.2-1.1-.6-1.5C28.4 2.2 30.2 2 32 2c14.9 0 27.3 10.9 29.6 25.2c-.2 .4-0 .8-.3 1.2C61 28.9 60.4 28.8 60 29.3z"/></svg>