<svg xmlns="http://www.w3.org/2000/svg" viewBox="0 0 512 512" xml:space="preserve"><style type="text/css">
	.st0{fill:#000000;}
</style><path class="st0" d="M256 85.1C114.6 85.1 0 199.8 0 341.1c0 20 2.3 39.5 6.7 58.2c2.2 9.4 1.1 3.9 1.1 3.9c4.1 14 16.9 23.6 31.5 23.6h433.3c14.6 0 27.5-9.7 31.5-23.7c0 0-.7 4.6 1.5-5.4c4.1-18.2 6.3-37.2 6.3-56.7C512 199.8 397.4 85.1 256 85.1zM353.3 143.2c4-7 13-9.4 20-5.4c7 4.1 9.4 13 5.4 20.1c-4.1 7-13 9.4-20 5.4C351.7 159.2 349.3 150.2 353.3 143.2zM256 106.4c8.1 0 14.7 6.6 14.7 14.7c0 8.1-6.6 14.7-14.7 14.7c-8.1 0-14.7-6.6-14.7-14.7C241.3 112.9 247.9 106.4 256 106.4zM35.9 355.8c-8.1 0-14.7-6.6-14.7-14.7c0-8.1 6.6-14.7 14.7-14.7c8.1 0 14.7 6.6 14.7 14.7C50.6 349.3 44 355.8 35.9 355.8zM78.1 238.4c-4.1 7-13 9.4-20.1 5.4c-7-4.1-9.4-13-5.4-20c4.1-7 13-9.4 20.1-5.4C79.7 222.4 82.2 231.4 78.1 238.4zM153.3 163.2c-7 4.1-16 1.7-20-5.4c-4.1-7-1.7-16 5.4-20c7-4.1 16-1.6 20.1 5.4C162.7 150.2 160.3 159.2 153.3 163.2zM296.1 346.7c-2.7 19.7-19.6 35-40.1 35c-22.4 0-40.5-18.2-40.5-40.5c0-22.4 18.2-40.6 40.5-40.6c4.6 0 9 .8 13.1 2.2c15.9 5.5 27.4 20.5 27.4 38.3C296.5 343 296.4 344.9 296.1 346.7zM418.4 201.5L307.3 332.1c-3.3-18.4-16.3-34-34.4-40.2c-3-1-6-1.8-9.1-2.2l140.4-103.4c5.1-3.7 11.5-3.6 15.1 .2C422.9 190.3 422.5 196.7 418.4 201.5zM453.9 243.8c-7 4.1-16 1.7-20.1-5.4c-4-7-1.6-16 5.4-20.1c7-4.1 16-1.6 20.1 5.4C463.4 230.8 461 239.8 453.9 243.8zM476.1 355.8c-8.1 0-14.7-6.6-14.7-14.7c0-8.1 6.6-14.7 14.7-14.7c8.1 0 14.7 6.6 14.7 14.7C490.8 349.3 484.2 355.8 476.1 355.8z"/></svg>