<svg viewBox="0 0 48 48" fill="none" xmlns="http://www.w3.org/2000/svg"><path d="M8.9 8.7C8.5 7.4 9.5 6 10.9 6H37.1C38.5 6 39.5 7.4 39.1 8.7C37.9 12.4 36 19.1 36 24C36 28.9 37.9 35.6 39.1 39.3C39.5 40.6 38.5 42 37.1 42H10.9C9.5 42 8.5 40.6 8.9 39.3C10.1 35.6 12 28.9 12 24C12 19.1 10.1 12.4 8.9 8.7Z" stroke="#000" stroke-width="4" stroke-linecap="round" stroke-linejoin="round"/><path d="M4 15C5.5 17 6 21 6 24C6 27 5.5 31 4 33" stroke="#000" stroke-width="4" stroke-linecap="round" stroke-linejoin="round"/><path d="M18 15.5H30" stroke="#000" stroke-width="4" stroke-linecap="round"/><path d="M18 24H30" stroke="#000" stroke-width="4" stroke-linecap="round"/><path d="M18 32H22" stroke="#000" stroke-width="4" stroke-linecap="round"/><path d="M44 15C42.5 17 42 21 42 24C42 27 42.5 30 44 33" stroke="#000" stroke-width="4" stroke-linecap="round" stroke-linejoin="round"/></svg>