<svg xmlns="http://www.w3.org/2000/svg" viewBox="0,0,24,24"><path d="M22 10L22 9.9C22 9 22 8.3 21.9 7.7C21.8 7 21.6 6.4 21.1 5.9C20.6 5.4 20 5.2 19.3 5.1C18.7 5 18 5 17.1 5L17 5 6.9 5C6 5 5.3 5 4.7 5.1C4 5.2 3.4 5.4 2.9 5.9C2.4 6.4 2.2 7 2.1 7.7C2 8.3 2 9 2 9.9V9.9V14.1V14.1C2 15 2 15.7 2.1 16.3C2.2 17 2.4 17.6 2.9 18.1C3.4 18.6 4 18.8 4.7 18.9C5.3 19 6 19 6.9 19H17.1C18 19 18.7 19 19.3 18.9C20 18.8 20.6 18.6 21.1 18.1C21.6 17.6 21.8 17 21.9 16.3C22 15.7 22 15 22 14.1L22 10ZM14 15C14.6 15 15 14.6 15 14C15 13.4 14.6 13 14 13H10C9.4 13 9 13.4 9 14C9 14.6 9.4 15 10 15H14ZM17.5 9C18 9 18.5 9.4 18.5 10V10C18.5 10.6 18 11 17.5 11C17 11 16.5 10.6 16.5 10V10C16.5 9.4 17 9 17.5 9ZM15 10C15 9.4 14.6 9 14 9C13.4 9 13 9.4 13 10V10C13 10.6 13.4 11 14 11C14.6 11 15 10.6 15 10V10ZM17.5 13C18 13 18.5 13.4 18.5 14V14C18.5 14.6 18 15 17.5 15C17 15 16.5 14.6 16.5 14V14C16.5 13.4 17 13 17.5 13ZM7.5 14C7.5 13.4 7 13 6.5 13C6 13 5.5 13.4 5.5 14V14C5.5 14.6 6 15 6.5 15C7 15 7.5 14.6 7.5 14V14ZM10 9C10.6 9 11 9.4 11 10V10C11 10.6 10.6 11 10 11C9.4 11 9 10.6 9 10V10C9 9.4 9.4 9 10 9ZM7.5 10C7.5 9.4 7 9 6.5 9C6 9 5.5 9.4 5.5 10V10C5.5 10.6 6 11 6.5 11C7 11 7.5 10.6 7.5 10V10Z" fill-rule="evenodd"/></svg>