<svg xmlns="http://www.w3.org/2000/svg" viewBox="0,0,24,24"><path d="M20.7 13.7C21 13.3 21.6 13.3 21.8 13.8C21.9 14.1 22 14.5 22 14.9L22 17.7C22 18.3 22 18.8 22 19.2C21.9 19.7 21.8 20.1 21.6 20.5C21.3 21 21 21.3 20.5 21.6C20.1 21.8 19.7 21.9 19.2 22C18.8 22 18.3 22 17.7 22L13.3 22C13 22 12.8 21.6 13 21.3V21.3L20.7 13.7V13.7Z"/><path d="M13 5C12.9 4.5 13.1 4 13.4 3.7C13.5 3.7 13.6 3.6 13.7 3.5C14.2 3.1 14.8 2.8 15.5 2.8C16.2 2.8 16.8 3.1 17.3 3.5C17.8 3.9 18.4 4.4 19 5.1L19.9 6C20.6 6.6 21.1 7.2 21.5 7.7C21.9 8.2 22.2 8.8 22.2 9.5C22.2 10.2 21.9 10.8 21.5 11.3C21.1 11.8 20.6 12.4 19.9 13L13.6 19.3C13.4 19.6 12.9 19.3 13 19V19C13 18.4 13 17.8 13 17.1L13 13.7C13 11.4 13 9.2 13 6.9L13 6.9C13 6.2 13 5.6 13 5V5Z"/><path d="M12 6.9C12 10.3 12 13.7 12 17.1C12 18 12 18.7 11.9 19.3C11.8 20 11.6 20.6 11.1 21.1C10.6 21.6 10 21.8 9.3 21.9C8.6 22 7.8 22 7 22C6.2 22 5.4 22 4.7 21.9C4 21.8 3.4 21.6 2.9 21.1C2.4 20.6 2.2 20 2.1 19.3C2 18.7 2 18 2 17.1L2 6.9C2 6 2 5.3 2.1 4.7C2.2 4 2.4 3.4 2.9 2.9C3.4 2.4 4 2.2 4.7 2.1C5.3 2 6.1 2 7 2C7.8 2 8.6 2 9.3 2.1C10 2.2 10.6 2.4 11.1 2.9C11.6 3.4 11.8 4 11.9 4.7C12 5.3 12 6 12 6.9ZM7 18C6.4 18 6 17.6 6 17L6 17C6 16.4 6.4 16 7 16C7.6 16 8 16.4 8 17L8 17C8 17.6 7.6 18 7 18Z"/></svg>