<svg xmlns="http://www.w3.org/2000/svg" viewBox="0,0,24,24"><path d="M3.7 2.3C3.3 1.9 2.7 1.9 2.3 2.3C1.9 2.7 1.9 3.3 2.3 3.7L3.5 4.9C3 5.4 2.7 6 2.4 6.7C2.1 7.4 2 8.2 2 9C2 9.8 2.1 10.5 2.4 11.2C2.7 12 3.1 12.6 3.6 13.2L9.8 20C11 21.4 13 21.4 14.2 20L16.3 17.7 18.3 19.7C18.7 20.1 19.3 20.1 19.7 19.7C20.1 19.3 20.1 18.7 19.7 18.3L3.7 2.3Z"/><path d="M12.6 4.8C13.6 3.7 15 3 16.5 3C18 3 19.4 3.7 20.4 4.8C21.4 5.9 22 7.4 22 9C22 10.5 21.4 12 20.4 13.2L19.5 14.2C19.2 14.6 18.5 14.6 18.1 14.2C17.7 13.9 17.7 13.2 18 12.8L18.9 11.8C19.6 11.1 20 10.1 20 9C20 7.9 19.6 6.9 18.9 6.1C18.3 5.4 17.4 5 16.5 5C15.6 5 14.7 5.4 14.1 6.1C13 7.4 11 7.4 9.9 6.1C9.6 5.8 9.2 5.5 8.8 5.3C8.3 5.1 8.1 4.5 8.3 4C8.5 3.5 9.1 3.2 9.6 3.5C10.3 3.8 10.9 4.2 11.4 4.8C11.7 5.1 12.3 5.1 12.6 4.8Z"/></svg>