<svg xmlns="http://www.w3.org/2000/svg" viewBox="0,0,24,24"><path d="M5 9.5C5 7 7 5 9.5 5C12 5 14 7 14 9.5C14 12 12 14 9.5 14C7 14 5 12 5 9.5Z"/><path d="M4.6 15.7C5.9 15.2 7.5 15 9.5 15C11.5 15 13.1 15.2 14.4 15.7C15.7 16.3 16.5 17.3 17 18.7C17.2 19.3 16.7 20 16 20H3C2.4 20 1.8 19.3 2 18.7C2.5 17.3 3.3 16.3 4.6 15.7Z"/><path d="M21.7 2.3C22.1 2.7 22.1 3.3 21.7 3.7L18.2 7.2C17.5 7.9 16.5 7.9 15.8 7.2L14.3 5.7C13.9 5.3 13.9 4.7 14.3 4.3C14.7 3.9 15.3 3.9 15.7 4.3L17 5.6 20.3 2.3C20.7 1.9 21.3 1.9 21.7 2.3Z"/></svg>