<svg viewBox="-3 0 20 20" xmlns="http://www.w3.org/2000/svg"><desc>Created with Sketch.</desc><defs></defs><g stroke="none" stroke-width="1" fill="none" fill-rule="evenodd"><g transform="translate(-143 -5039)"><g transform="translate(56 160)"><path d="M93 4893.00012L92 4893.00012C91.448 4893.00012 91 4892.55212 91 4892.00012C91 4891.44812 91.448 4891.00012 92 4891.00012L93 4891.00012 95 4891.00012 96 4891.00012C96.552 4891.00012 97 4891.44812 97 4892.00012C97 4892.55212 96.552 4893.00012 96 4893.00012L95 4893.00012 93 4893.00012ZM99 4896.00012C99 4896.55212 98.552 4897.00012 98 4897.00012L90 4897.00012C89.448 4897.00012 89 4896.55212 89 4896.00012L89 4888.00012C89 4887.44812 89.448 4887.00012 90 4887.00012L98 4887.00012C98.552 4887.00012 99 4887.44812 99 4888.00012L99 4896.00012ZM98 4885.00012L92 4885.00012 92 4883.13212C92 4882.33412 92.417 4881.56112 93.133 4881.20912C94.353 4880.60912 95.54 4881.39112 95.894 4882.39712C96.026 4882.77212 96.408 4883.00012 96.805 4883.00012C97.485 4883.00012 97.993 4882.32212 97.749 4881.68712C97.052 4879.86812 94.995 4878.45712 92.78 4879.20412C91.072 4879.78012 90 4881.48612 90 4883.28812L90 4885.00012C88.343 4885.00012 87 4886.34312 87 4888.00012L87 4896.00012C87 4897.65712 88.343 4899.00012 90 4899.00012L98 4899.00012C99.657 4899.00012 101 4897.65712 101 4896.00012L101 4888.00012C101 4886.34312 99.657 4885.00012 98 4885.00012L98 4885.00012Z"></path></g></g></g></svg>