<svg xmlns="http://www.w3.org/2000/svg" viewBox="0,0,24,24"><path d="M8 7C8 6.4 8.4 6 9 6H15C15.6 6 16 6.4 16 7C16 7.6 15.6 8 15 8H9C8.4 8 8 7.6 8 7ZM15 13C15.6 13 16 13.4 16 14V17C16 17.6 15.6 18 15 18C14.4 18 14 17.6 14 17V14C14 13.4 14.4 13 15 13ZM15 10C14.4 10 14 10.4 14 11C14 11.6 14.4 12 15 12H15C15.6 12 16 11.6 16 11C16 10.4 15.6 10 15 10H15ZM11 11C11 10.4 11.4 10 12 10H12C12.6 10 13 10.4 13 11C13 11.6 12.6 12 12 12H12C11.4 12 11 11.6 11 11ZM9 10C8.4 10 8 10.4 8 11C8 11.6 8.4 12 9 12H9C9.6 12 10 11.6 10 11C10 10.4 9.6 10 9 10H9ZM8 14C8 13.4 8.4 13 9 13H9C9.6 13 10 13.4 10 14C10 14.6 9.6 15 9 15H9C8.4 15 8 14.6 8 14ZM12 13C11.4 13 11 13.4 11 14C11 14.6 11.4 15 12 15H12C12.6 15 13 14.6 13 14C13 13.4 12.6 13 12 13H12ZM11 17C11 16.4 11.4 16 12 16H12C12.6 16 13 16.4 13 17C13 17.6 12.6 18 12 18H12C11.4 18 11 17.6 11 17ZM9 16C8.4 16 8 16.4 8 17C8 17.6 8.4 18 9 18H9C9.6 18 10 17.6 10 17C10 16.4 9.6 16 9 16H9ZM8.9 2C9 2 9 2 9 2L15.1 2C16 2 16.7 2 17.3 2.1C18 2.2 18.6 2.4 19.1 2.9C19.6 3.4 19.8 4 19.9 4.7C20 5.3 20 6 20 6.9V17.1C20 18 20 18.7 19.9 19.3C19.8 20 19.6 20.6 19.1 21.1C18.6 21.6 18 21.8 17.3 21.9C16.7 22 16 22 15.1 22H8.9C8 22 7.3 22 6.7 21.9C6 21.8 5.4 21.6 4.9 21.1C4.4 20.6 4.2 20 4.1 19.3C4 18.7 4 18 4 17.1L4 7C4 7 4 7 4 6.9C4 6 4 5.3 4.1 4.7C4.2 4 4.4 3.4 4.9 2.9C5.4 2.4 6 2.2 6.7 2.1C7.3 2 8 2 8.9 2Z" fill-rule="evenodd"/></svg>