<svg xmlns="http://www.w3.org/2000/svg" viewBox="0,0,24,24"><path d="M5 9.5C5 7 7 5 9.5 5C12 5 14 7 14 9.5C14 12 12 14 9.5 14C7 14 5 12 5 9.5Z"/><path d="M4.6 15.7C5.9 15.2 7.5 15 9.5 15C11.5 15 13.1 15.2 14.4 15.7C15.7 16.3 16.5 17.3 17 18.7C17.2 19.3 16.7 20 16 20H3C2.4 20 1.8 19.3 2 18.7C2.5 17.3 3.3 16.3 4.6 15.7Z"/><path d="M16.7 2.3C16.3 1.9 15.7 1.9 15.3 2.3C14.9 2.7 14.9 3.3 15.3 3.7L17.1 5.5 15.3 7.3C14.9 7.7 14.9 8.3 15.3 8.7C15.7 9.1 16.3 9.1 16.7 8.7L18.5 6.9 20.3 8.7C20.7 9.1 21.3 9.1 21.7 8.7C22.1 8.3 22.1 7.7 21.7 7.3L19.9 5.5 21.7 3.7C22.1 3.3 22.1 2.7 21.7 2.3C21.3 1.9 20.7 1.9 20.3 2.3L18.5 4.1 16.7 2.3Z"/></svg>