<svg viewBox="-3 0 20 20" xmlns="http://www.w3.org/2000/svg"><desc>Created with Sketch.</desc><defs></defs><g stroke="none" stroke-width="1" fill="none" fill-rule="evenodd"><g transform="translate(-303 -5039)"><g transform="translate(56 160)"><path d="M257 4892.00012C257 4892.55212 256.552 4893.00012 256 4893.00012L255 4893.00012 255 4894.00012C255 4894.55212 254.552 4895.00012 254 4895.00012C253.448 4895.00012 253 4894.55212 253 4894.00012L253 4893.00012 252 4893.00012C251.448 4893.00012 251 4892.55212 251 4892.00012C251 4891.44812 251.448 4891.00012 252 4891.00012L253 4891.00012 253 4890.00012C253 4889.44812 253.448 4889.00012 254 4889.00012C254.552 4889.00012 255 4889.44812 255 4890.00012L255 4891.00012 256 4891.00012C256.552 4891.00012 257 4891.44812 257 4892.00012L257 4892.00012ZM259 4896.00012C259 4896.55212 258.552 4897.00012 258 4897.00012L250 4897.00012C249.448 4897.00012 249 4896.55212 249 4896.00012L249 4888.00012C249 4887.44812 249.448 4887.00012 250 4887.00012L258 4887.00012C258.552 4887.00012 259 4887.44812 259 4888.00012L259 4896.00012ZM258 4885.00012L252 4885.00012 252 4883.13212C252 4882.33412 252.417 4881.56112 253.133 4881.20912C254.353 4880.60912 255.54 4881.39112 255.894 4882.39712C256.026 4882.77212 256.408 4883.00012 256.805 4883.00012C257.485 4883.00012 257.993 4882.32212 257.749 4881.68712C257.052 4879.86812 254.995 4878.45712 252.78 4879.20412C251.072 4879.78012 250 4881.48612 250 4883.28812L250 4885.00012C248.343 4885.00012 247 4886.34312 247 4888.00012L247 4896.00012C247 4897.65712 248.343 4899.00012 250 4899.00012L258 4899.00012C259.657 4899.00012 261 4897.65712 261 4896.00012L261 4888.00012C261 4886.34312 259.657 4885.00012 258 4885.00012L258 4885.00012Z"></path></g></g></g></svg>