<?xml version="1.0" encoding="utf-8"?>
<!-- Generator: Adobe Illustrator 22.1.0, SVG Export Plug-In . SVG Version: 6.00 Build 0)  -->
<svg version="1.1" id="Layer_1" xmlns="http://www.w3.org/2000/svg" xmlns:xlink="http://www.w3.org/1999/xlink" x="0px" y="0px"
	 viewBox="0 0 256 256" style="enable-background:new 0 0 256 256;" xml:space="preserve">
<style type="text/css">
	.st0{fill:#D73735;}
	.st1{fill:#F85252;}
	.st2{fill:#EDAF85;}
	.st3{fill:#F7C09A;}
	.st4{fill:#D8D6D7;}
	.st5{fill:#FFFFFF;}
	.st6{fill:#1C868E;}
	.st7{fill:#40C4DF;}
	.st8{fill:#491352;}
	.st9{fill:#56C1B3;}
	.st10{fill:#7BEFE4;}
</style>
<g>
	<path class="st5" d="M128.002,196.365c-37.74,0-68.373-30.67-68.373-68.365c0-37.656,30.601-68.37,68.37-68.37
		c37.597,0,68.37,30.545,68.37,68.37C196.37,165.576,165.859,196.365,128.002,196.365z"/>
	<path class="st0" d="M237.05,115.38h-14.27c-5.63-42.71-39.45-76.53-82.16-82.16V18.95c0-6.956-5.652-12.62-12.62-12.62
		c-6.918,0-12.62,5.602-12.62,12.62v14.27c-19.058,2.512-36.834,10.738-51.06,23.47c-16.64,14.86-28.04,35.46-31.1,58.69H18.95
		c-6.97,0-12.62,5.65-12.62,12.62c0,6.895,5.585,12.62,12.62,12.62h14.27c3.06,23.23,14.46,43.83,31.1,58.69
		c14.306,12.798,32.075,20.967,51.06,23.47v14.27c0,6.97,5.65,12.62,12.62,12.62c6.958,0,12.62-5.657,12.62-12.62v-14.27
		c42.71-5.63,76.53-39.45,82.16-82.16h14.27c6.97,0,12.62-5.65,12.62-12.62C249.67,121.105,244.084,115.38,237.05,115.38z
		 M128,198.37c-38.86,0-70.37-31.51-70.37-70.37c0-38.85,31.5-70.37,70.37-70.37c38.775,0,70.37,31.428,70.37,70.37
		C198.37,166.881,166.833,198.37,128,198.37z"/>
	<path class="st1" d="M237.05,115.38h-14.27c-5.63-42.71-39.45-76.53-82.16-82.16V18.95c0-6.956-5.652-12.62-12.62-12.62
		c-6.918,0-12.62,5.602-12.62,12.62v14.27c-19.058,2.512-36.834,10.738-51.06,23.47C54.89,78.56,49.67,102.67,49.67,128
		s5.22,49.44,14.65,71.31c14.306,12.798,32.075,20.967,51.06,23.47v14.27c0,6.97,5.65,12.62,12.62,12.62
		c6.958,0,12.62-5.657,12.62-12.62v-14.27c42.71-5.63,76.53-39.45,82.16-82.16h14.27c6.97,0,12.62-5.65,12.62-12.62
		C249.67,121.105,244.084,115.38,237.05,115.38z M128,198.37c-38.86,0-70.37-31.51-70.37-70.37c0-38.85,31.5-70.37,70.37-70.37
		c38.775,0,70.37,31.428,70.37,70.37C198.37,166.881,166.833,198.37,128,198.37z"/>
	
		<ellipse transform="matrix(0.3827 -0.9239 0.9239 0.3827 -12.1427 179.1671)" class="st10" cx="128" cy="98.67" rx="17.85" ry="17.85"/>
	<path class="st9" d="M145.85,98.67c0,9.85-7.99,17.85-17.85,17.85v-35.7C137.86,80.82,145.85,88.81,145.85,98.67z"/>
	<circle class="st7" cx="128" cy="141.948" r="33.231"/>
	<path class="st6" d="M161.231,141.948c0,18.356-14.876,33.231-33.231,33.231v-66.462
		C146.356,108.717,161.231,123.592,161.231,141.948z"/>
	<g>
		<path class="st8" d="M178.13,139.95h-14.959c-0.195-3.474-0.895-6.815-2.029-9.95h8.398c1.104,0,2-0.896,2-2s-0.896-2-2-2H159.4
			c-3.395-6.657-8.842-12.096-15.506-15.48c5.414-7.214,5.302-17.265-0.524-24.392l7.635-7.635c0.781-0.781,0.781-2.047,0-2.828
			c-0.781-0.781-2.047-0.781-2.828,0l-7.635,7.635c-7.194-5.882-17.609-6.046-25.006-0.057l-7.604-7.68
			c-0.775-0.785-2.043-0.79-2.828-0.014c-0.785,0.777-0.791,2.043-0.014,2.829l7.599,7.675c-5.8,7.026-6.095,17.12-0.581,24.468
			c-6.664,3.384-12.111,8.822-15.506,15.48H86.46c-1.104,0-2,0.896-2,2s0.896,2,2,2h8.398c-1.134,3.135-1.834,6.476-2.029,9.95
			H77.87c-1.104,0-2,0.896-2,2s0.896,2,2,2h14.959c0.196,3.474,0.896,6.814,2.03,9.95H86.46c-1.104,0-2,0.896-2,2s0.896,2,2,2
			h10.143c5.831,11.429,17.711,19.279,31.397,19.279s25.566-7.85,31.397-19.279h10.143c1.104,0,2-0.896,2-2s-0.896-2-2-2h-8.399
			c1.134-3.135,1.834-6.476,2.03-9.95h14.959c1.104,0,2-0.896,2-2S179.234,139.95,178.13,139.95z M115.868,108.861
			C107.293,98.724,114.454,82.82,128,82.82c13.517,0,20.73,15.876,12.132,26.041c-3.872-1.418-8.093-2.145-12.132-2.145
			C124.062,106.716,119.829,107.411,115.868,108.861z M96.769,141.958c0-0.002,0.001-0.005,0.001-0.007
			c0-0.003-0.001-0.005-0.001-0.008c0.003-16.328,12.702-30.104,29.231-31.152v62.318
			C109.712,172.072,96.774,158.501,96.769,141.958z M130,173.108V110.79c16.373,1.024,29.228,14.685,29.231,31.152
			c0,0.003-0.001,0.005-0.001,0.008c0,0.002,0.001,0.005,0.001,0.007C159.226,158.501,146.288,172.072,130,173.108z"/>
		<path class="st8" d="M128,55.635c-39.995,0-72.37,32.519-72.37,72.365c0,39.905,32.447,72.37,72.37,72.37
			c39.912,0,72.37-32.451,72.37-72.37C200.37,88.168,168.008,55.635,128,55.635z M128.002,196.365
			c-37.74,0-68.373-30.67-68.373-68.365c0-37.656,30.601-68.37,68.37-68.37c37.597,0,68.37,30.545,68.37,68.37
			C196.37,165.576,165.859,196.365,128.002,196.365z"/>
		<path class="st8" d="M237.05,113.38h-12.532c-6.34-42.234-39.662-75.558-81.897-81.898V18.95c0-8.062-6.559-14.62-14.62-14.62
			s-14.62,6.559-14.62,14.62v12.532c-42.235,6.34-75.558,39.664-81.897,81.898H18.95c-8.062,0-14.62,6.559-14.62,14.62
			s6.559,14.62,14.62,14.62h12.532c6.34,42.234,39.662,75.558,81.897,81.898v12.532c0,8.062,6.559,14.62,14.62,14.62
			s14.62-6.559,14.62-14.62v-12.532c42.235-6.34,75.558-39.664,81.897-81.898h12.532c8.062,0,14.62-6.559,14.62-14.62
			S245.111,113.38,237.05,113.38z M237.05,138.62h-14.27c-1.004,0-1.852,0.744-1.982,1.739
			c-5.517,41.845-38.594,74.922-80.439,80.438c-0.994,0.131-1.738,0.979-1.738,1.983v14.27c0,5.856-4.764,10.62-10.62,10.62
			s-10.62-4.764-10.62-10.62v-14.27c0-1.003-0.744-1.852-1.738-1.983c-41.846-5.516-74.923-38.594-80.439-80.438
			c-0.131-0.995-0.979-1.739-1.982-1.739H18.95c-5.855,0-10.62-4.764-10.62-10.62s4.765-10.62,10.62-10.62h14.27
			c1.004,0,1.852-0.744,1.982-1.739c5.517-41.845,38.594-74.922,80.439-80.438c0.994-0.131,1.738-0.979,1.738-1.983V18.95
			c0-5.856,4.764-10.62,10.62-10.62s10.62,4.764,10.62,10.62v14.27c0,1.003,0.744,1.852,1.738,1.983
			c41.846,5.516,74.923,38.594,80.439,80.438c0.131,0.995,0.979,1.739,1.982,1.739h14.27c5.855,0,10.62,4.764,10.62,10.62
			S242.905,138.62,237.05,138.62z"/>
	</g>
</g>
</svg>
