<?xml version="1.0" encoding="utf-8"?>
<svg xmlns:dc="http://purl.org/dc/elements/1.1/" xmlns:cc="http://creativecommons.org/ns#" xmlns:rdf="http://www.w3.org/1999/02/22-rdf-syntax-ns#" xmlns:svg="http://www.w3.org/2000/svg" xmlns="http://www.w3.org/2000/svg" viewBox="0 0 47.5 47.5" xml:space="preserve" version="1.1" id="svg2">
	<style>
#eye_1,
#eye_2 {
  animation: animEyes_1 1000ms infinite;
  transform-origin: top center;
  transform-box: fill-box;
}
#mouth_1 {
  animation: animMouth_1 1000ms infinite;
}
#head_1 {
  animation: animHead_1 1000ms infinite;
  transform-origin: top center;
  transform-box: fill-box;
}
@keyframes animEyes_1 {
  0% {
    transform: rotate(0) scale(0.8);
  }
  40% {
    transform: rotate(0) scale(0.8);
  }
  50% {
    transform: rotate(0) scale(0.5);
  }
  58% {
    transform: rotate(3deg) scale(1);
  }
  67% {
    transform: rotate(-5deg);
  }
  75% {
    transform: rotate(7deg) scale(1);
  }
  87% {
    transform: rotate(-5deg);
  }
  94% {
    transform: rotate(3deg);
  }
  100% {
    transform: rotate(0) scale(0.8);
  }
}
@keyframes animMouth_1 {
  0% {
    transform: translateY(0);
  }
  40% {
    transform: translateY(0);
  }
  50% {
    transform: translateY(-3%) scale(1.1, 1);
  }
  62% {
    transform: translateY(8%) scale(0.8, 1);
  }
  84% {
    transform: translateY(8%) scale(1, 0.8);
  }
  92% {
    transform: translateY(-2%) scale(0.8, 1);
  }
  100% {
    transform: translateY(0);
  }
}
@keyframes animHead_1 {
  0% {
    transform: scale(1, 1);
  }
  30% {
    transform: scale(1, 1);
  }
  40% {
    transform: scale(1.05, 0.95);
  }
  50% {
    transform: scale(0.95, 1.05);
  }
  60% {
    transform: scale(1, 1);
  }
  100% {
    transform: scale(1);
  }
}

#tear_5,
#tear_6 {
  animation: tearAnim_5 1000ms infinite;
  transform-origin: bottom right;
  transform-box: fill-box;
}
#tear_6 {
  transform-origin: bottom left;
  animation-name: tearAnim_6;
}
#head_5 {
  animation: animHead_5 300ms infinite;
  transform-origin: top center;
  transform-box: fill-box;
}
#brow_5,
#brow_6 {
  animation: browAnim_5 500ms infinite;
  transform-origin: bottom right;
  transform-box: fill-box;
}
#brow_6 {
  animation-name: browAnim_6;
}
#mouth_5,
#mouth_6 {
  animation: mouthAnim_5 1000ms infinite;
  transform-origin: bottom center;
  transform-box: fill-box;
}
@keyframes tearAnim_5 {
  0% {
    transform: scale(0) rotate(-45deg) translate(0, 0);
  }
  50% {
    transform: scale(1) rotate(0) translate(0, 0);
    opacity: 1;
  }
  100% {
    transform: scale(1) rotate(0) translate(0, -100%);
    opacity: 0;
  }
}
@keyframes tearAnim_6 {
  0% {
    transform: scale(0) rotate(45deg) translate(0, 0);
  }
  50% {
    transform: scale(1) rotate(0) translate(0, 0);
    opacity: 1;
  }
  100% {
    transform: scale(1) rotate(0) translate(0, -100%);
    opacity: 0;
  }
}
@keyframes animHead_5 {
  0% {
    transform: scale(1.05, 0.95);
  }
  50% {
    transform: scale(0.95, 1.05);
  }
  100% {
    transform: scale(1.05, 0.95);
  }
}
@keyframes browAnim_5 {
  0% {
    transform: translate(0, 0) rotate(0);
  }
  50% {
    transform: translate(0, 40%) rotate(8deg);
  }
  100% {
    transform: translate(0, 0) rotate(0);
  }
}
@keyframes browAnim_6 {
  0% {
    transform: translate(0, 0) rotate(0);
  }
  50% {
    transform: translate(0, 30%) rotate(-6deg);
  }
  100% {
    transform: translate(0, 0) rotate(0);
  }
}
@keyframes mouthAnim_5 {
  0% {
    transform: scale(1, 1) translateY(0);
  }
  16% {
    transform: scale(0.8, 1.2) translateY(0);
  }
  33% {
    transform: scale(1, 1) translateY(0.1em);
  }

  49% {
    transform: scale(0.8, 1.2) translateY(0.1em);
  }
  66% {
    transform: scale(1, 1) translateY(0.1em);
  }

  82% {
    transform: scale(0.8, 1.2) translateY(0);
  }
  100% {
    transform: scale(1, 1) translateY(0);
  }
}

#eye_3,
#eye_4 {
  animation: eyeAnim_3 1500ms infinite;
  transform-origin: top center;
  transform-box: fill-box;
}
#tounge_3 {
  animation: toungeAnim_3 1500ms infinite;
  transform-origin: top center;
  transform-box: fill-box;
}
#mouth_3 {
  animation: mouthAnim_3 1500ms infinite;
  transform-origin: bottom center;
  transform-box: fill-box;
}
#head_3 {
  animation: animHead_3 1500ms infinite;
  transform-origin: top center;
  transform-box: fill-box;
}
@keyframes eyeAnim_3 {
  0% {
    transform: scale(1, 1);
  }
  15% {
    transform: scale(1.2, 0.1);
  }
  20% {
    transform: scale(1.2, 0.1);
  }
  35% {
    transform: scale(1, 1);
  }
  40% {
    transform: scale(1, 1);
  }

  45% {
    transform: scale(1.2, 0.1);
  }
  50% {
    transform: scale(1.2, 0.1);
  }
  65% {
    transform: scale(1, 1);
  }
  100% {
    transform: scale(1, 1);
  }
}
@keyframes toungeAnim_3 {
  0% {
    transform: translateY(50%) scale(1, 0.6);
  }
  50% {
    transform: translateY(2%) scale(0.9, 1.2);
  }
  100% {
    transform: translateY(50%) scale(1, 0.6);
  }
}
@keyframes mouthAnim_3 {
  0% {
    transform: scale(1, 1) translateY(20%);
  }
  50% {
    transform: scale(1.1, 0.8) translateY(40%);
  }
  100% {
    transform: scale(1, 1) translateY(20%);
  }
}
@keyframes animHead_3 {
  0% {
    transform: scale(1, 1) translateY(0);
  }
  50% {
    transform: scale(1.05, 0.95) translateY(10%);
  }
  100% {
    transform: scale(1) translateY(0);
  }
}
#eye_7,
#eye_8 {
  animation: animEyes_7 1500ms infinite;
}
#mouth_7 {
  animation: animMouth_7 1500ms infinite;
}
#head_7 {
  animation: animHead_7 1500ms infinite;
  transform-origin: top center;
  transform-box: fill-box;
}
@keyframes animEyes_7 {
  0% {
    transform: translate(-3%, 0);
  }
  16% {
    transform: translate(3%, 0);
  }
  33% {
    transform: translate(-3%, 0);
  }
  49% {
    transform: translate(5%, -5%);
  }
  66% {
    transform: translate(-5%, -5%);
  }
  82% {
    transform: translate(3%, 0);
  }
  100% {
    transform: translate(-3%, 0);
  }
}

@keyframes animMouth_7 {
  0% {
    transform: translateX(-2%);
  }
  16% {
    transform: translateX(2%);
  }
  33% {
    transform: translateX(-2%);
  }
  49% {
    transform: translateX(3%);
  }
  66% {
    transform: translateX(-3%);
  }
  82% {
    transform: translateX(2%);
  }
  100% {
    transform: translateX(-2%);
  }
}

@keyframes animHead_7 {
  0% {
    transform: scale(1, 1);
  }
  33% {
    transform: scale(1, 1);
  }
  66% {
    transform: scale(1.05, 0.95);
  }
  100% {
    transform: scale(1);
  }
}

#mouth_9,
#mouth_0 {
  animation: mouthAnim_9 1200ms infinite;
  transform-origin: top center;
  transform-box: fill-box;
}
#mouth_0 {
  animation-name: mouthAnim_0;
}
#brow_9,
#brow_0 {
  animation: browAnim_9 1200ms infinite;
  transform-origin: top center;
  transform-box: fill-box;
}
#brow_0 {
  animation-name: browAnim_0;
}
#eye_9,
#eye_0 {
  animation: eyeAnim_9 1200ms infinite;
  transform-origin: top center;
  transform-box: fill-box;
}
#head_9 {
  animation: animHead_9 300ms infinite;
  transform-origin: top center;
  transform-box: fill-box;
}
@keyframes mouthAnim_9 {
  0% {
    transform: scale(1, 1) translateY(0);
  }
  50% {
    transform: scale(1.2, 0.8) translateY(10%);
  }
  100% {
    transform: scale(1, 1) translateY(0);
  }
}
@keyframes mouthAnim_0 {
  0% {
    transform: scale(1, 1) translateY(0);
  }
  50% {
    transform: scale(1.2, 0.8) translateY(-20%);
  }
  100% {
    transform: scale(1, 1) translateY(0);
  }
}
@keyframes browAnim_9 {
  0% {
    transform: rotate(0) translateY(0);
  }
  50% {
    transform: rotate(8deg) translateY(-40%);
  }
  100% {
    transform: rotate(0) translateY(0);
  }
}
@keyframes browAnim_0 {
  0% {
    transform: rotate(0) translateY(0);
  }
  50% {
    transform: rotate(-8deg) translateY(-40%);
  }
  100% {
    transform: rotate(0) translateY(0);
  }
}
@keyframes eyeAnim_9 {
  0% {
    transform: translateY(0);
  }
  50% {
    transform: translateY(-40%);
  }
  100% {
    transform: translateY(0);
  }
}
@keyframes animHead_9 {
  0% {
    transform: scale(1, 1) translateY(0);
  }
  50% {
    transform: scale(1.05, 0.95) translateY(4%);
  }
  100% {
    transform: scale(1) translateY(0);
  }
}
	
	
	</style>
	<metadata id="metadata8">
		<rdf:RDF>
			<cc:Work rdf:about="">
				<dc:format>image/svg+xml</dc:format>
				<dc:type rdf:resource="http://purl.org/dc/dcmitype/StillImage"/>
			</cc:Work>
		</rdf:RDF>
	</metadata>
	<defs id="defs6">
		<clipPath id="clipPath16" clipPathUnits="userSpaceOnUse">
			<path id="path18" d="M 0,38 38,38 38,0 0,0 0,38 Z"/>
		</clipPath>
	</defs>
	<g transform="matrix(1.25,0,0,-1.25,0,47.5)" id="g10">
		<g id="head_9">
			<g clip-path="url(#clipPath16)" id="g14">
				<g transform="translate(36,19)" id="g20">
					<path id="path22" style="fill:#ffcc4d;fill-opacity:1;fill-rule:nonzero;stroke:none" d="m 0,0 c 0,-9.389 -7.611,-17 -17,-17 -9.388,0 -17,7.611 -17,17 0,9.388 7.612,17 17,17 C -7.611,17 0,9.388 0,0"/>
				</g>
				<g transform="translate(17.6641,26.457)" id="g24">
					<path id="eye_0" style="fill:#664500;fill-opacity:1;fill-rule:nonzero;stroke:none" d="m 0,0 c -0.207,0.09 -0.451,0.03 -0.592,-0.148 -0.01,-0.012 -0.979,-1.202 -3.335,-1.844 -0.775,-0.212 -1.531,-0.319 -2.244,-0.319 -0.993,0 -1.559,0.212 -1.562,0.213 -0.21,0.084 -0.453,0.014 -0.587,-0.17 -0.135,-0.184 -0.128,-0.435 0.016,-0.611 0.071,-0.088 1.779,-2.148 4.124,-2.148 0.351,0 0.702,0.048 1.043,0.14 2.854,0.779 3.41,4.209 3.432,4.354 C 0.329,-0.309 0.207,-0.091 0,0"/>
				</g>
				<g transform="translate(28.6387,24.3022)" id="g28">
					<path id="eye_9" style="fill:#664500;fill-opacity:1;fill-rule:nonzero;stroke:none" d="m 0,0 c -0.138,0.181 -0.38,0.245 -0.59,0.159 -0.006,-0.003 -0.633,-0.256 -1.737,-0.256 -0.661,0 -1.359,0.09 -2.073,0.266 C -6.77,0.751 -7.77,1.917 -7.777,1.927 -7.923,2.103 -8.165,2.16 -8.373,2.064 -8.58,1.969 -8.696,1.746 -8.656,1.522 c 0.026,-0.145 0.668,-3.56 3.539,-4.267 0.31,-0.076 0.629,-0.115 0.946,-0.115 2.397,0 4.099,2.159 4.17,2.252 C 0.138,-0.43 0.137,-0.18 0,0"/>
				</g>
				<g transform="translate(10.9985,27)" id="g32">
					<path id="brow_0" style="fill:#664500;fill-opacity:1;fill-rule:nonzero;stroke:none" d="m 0,0 c -0.448,0 -0.855,0.303 -0.969,0.757 -0.134,0.535 0.19,1.077 0.724,1.212 0.036,0.01 3.593,0.962 5.352,4.478 C 5.354,6.941 5.953,7.143 6.449,6.895 6.943,6.648 7.143,6.047 6.896,5.553 4.715,1.191 0.425,0.075 0.244,0.03 0.162,0.009 0.081,0 0,0"/>
				</g>
				<g transform="translate(27,27)" id="g36">
					<path id="brow_9" style="fill:#664500;fill-opacity:1;fill-rule:nonzero;stroke:none" d="m 0,0 c -0.08,0 -0.161,0.01 -0.242,0.03 -0.182,0.045 -4.472,1.161 -6.653,5.523 -0.247,0.494 -0.046,1.095 0.448,1.342 0.493,0.247 1.093,0.046 1.342,-0.448 C -3.348,2.93 0.21,1.979 0.246,1.969 0.779,1.832 1.104,1.289 0.968,0.754 0.853,0.302 0.447,0 0,0"/>
				</g>
				<g transform="translate(19,8.0352)" id="g40">
					<path id="mouth_9" style="fill:#664500;fill-opacity:1;fill-rule:nonzero;stroke:none" d="m 0,0 c -3.623,0 -6.027,-0.422 -9,-1 -0.679,-0.131 -2,0 -2,2 0,4 4.595,9 11,9 C 6.404,10 11,5 11,1 11,-1 9.679,-1.132 9,-1 6.027,-0.422 3.623,0 0,0"/>
				</g>
				<g transform="translate(10.9995,12)" id="g44">
					<path id="mouth_0" style="fill:#ffffff;fill-opacity:1;fill-rule:nonzero;stroke:none" d="m 0,0 c 0,0 3,1 8,1 5.001,0 8.001,-1 8.001,-1 0,0 -2,4 -8.001,4 C 2,4 0,0 0,0"/>
				</g>
			</g>
		</g>
	</g>
</svg>