<?xml version="1.0" encoding="UTF-8"?>
<svg version="1.1" viewBox="0 0 768 1024" xmlns="http://www.w3.org/2000/svg">
	<filter id="s">
		<feDropShadow dx="3" dy="3" stdDeviation="5" flood-opacity="0.3"/>	
	</filter>
	<path filter="url(#s)" d="M384 384 m313.9 -62.4 l-60.5 26.2 l0.0 72.4 l60.5 26.2 l-47.8 115.4 l-61.3 -24.2 l-51.2 51.2 l24.2 61.3 l-115.4 47.8 l-26.2 -60.5 l-72.4 0.0 l-26.2 60.5 l-115.4 -47.8 l24.2 -61.3 l-51.2 -51.2 l-61.3 24.2 l-47.8 -115.4 l60.5 -26.2 l0.0 -72.4 l-60.5 -26.2 l47.8 -115.4 l61.3 24.2 l51.2 -51.2 l-24.2 -61.3 l115.4 -47.8 l26.2 60.5 l72.4 0.0 l26.2 -60.5 l115.4 47.8 l-24.2 61.3 l51.2 51.2 l61.3 -24.2 z" fill="#ffa"/>
	<path filter="url(#s)" d="M160 960 c-147 0 -147 -208 0 -208 c-32 -180 224 -180 256 -64 c96 -80 196 16 196 96 c125 0 125 176 0 176 z" fill="#33b5e5"/>
	<text opacity="0.5" fill="#000" font-family="Verdana" font-size="288px" font-weight="bold" dominant-baseline="central" text-anchor="middle" x="384" y="336">{}</text>
	<text opacity="0.9" fill="#fff" font-family="Verdana" font-size="188px" font-weight="bold" text-anchor="middle" x="384" y="908">API</text>
</svg>
