<?xml version="1.0" encoding="UTF-8"?>
<svg version="1.1" viewBox="0 0 768 1024" xmlns="http://www.w3.org/2000/svg">
	<filter id="s">
		<feDropShadow dx="3" dy="3" stdDeviation="5" flood-opacity="0.3"/>	
	</filter>
	<path filter="url(#s)" d="M64 128 c0 -32 32 -64 64 -64 l128 0 c64 0 32 48 96 48 l288 0 c32 0 64 32 64 64 l0 128 l-640 0" fill="#aa6"/>
	<path filter="url(#s)" d="M48 208 c0 -32 32 -64 64 -64 l544 0 c32 0 64 32 64 64 l-16 736 c0 8 -8 16 -16 16 l-608 0 c-8 0 -16 -8 -16 -16" fill="#dda"/>
	<path filter="url(#s)" d="M104 608 c0 -8 8 -16 16 -16 l528 0 c8 0 16 8 16 16 l-4 256 c0 8 -8 16 -16 16 l-524 0 c-8 0 -16 -8 -16 -16" fill="#fff"/>
	<g opacity="0.25" stroke="#000" stroke-width="32" stroke-linejoin="round" stroke-linecap="round" fill="none">
		<path d="M136 256 l480 0"/>
		<path d="M136 320 l480 0"/>
		<path d="M136 384 l480 0"/>
		<path d="M136 448 l480 0"/>
	</g>
	<text opacity="0.25" fill="#000" font-family="Verdana" font-size="108px" font-weight="bold" dominant-baseline="central" text-anchor="middle" x="384" y="736">DISC</text>
</svg>
