<?xml version="1.0" encoding="iso-8859-1"?>
<svg version="1.1" xmlns="http://www.w3.org/2000/svg" xmlns:xlink="http://www.w3.org/1999/xlink" 
	 viewBox="0 0 503 503" xml:space="preserve">
<g transform="translate(-250 0)">
<path d="M502.664,137.751c-0.108-58.673-53.711-105.934-119.33-105.783
	c-65.92,0.108-119.092,47.758-119.006,106.279c0.108,46.226,33.478,85.334,79.812,99.722l0.626,202.55l38.676,27.826
	l40.208-28.064l-0.065-26.877h-18.572l-0.086-26.338h18.616l-0.173-29.121h-18.486l-0.086-26.295h18.572l-0.086-26.316h-18.551
	l-0.065-26.316l18.637-0.022l-0.302-41.157C469.402,223.279,502.664,184.02,502.664,137.751z M383.399,77.612
	c14.776,0,26.899,12.101,26.899,26.856c0.108,14.949-12.015,27.007-26.834,27.007c-14.905,0-26.942-11.886-26.942-26.877
	C356.436,89.778,368.494,77.655,383.399,77.612z"/>
</g>
<g transform="translate(-90 -90) scale(18)">
	<path d="M24 15c-4.4 0-8 3.6-8 8s3.6 8 8 8s8-3.6 8-8S28.4 15 24 15zM27 24h-2v2c0 .6-.4 1-1 1s-1-.4-1-1v-2h-2c-.6 0-1-.4-1-1s.4-1 1-1h2v-2c0-.6 .4-1 1-1s1 .4 1 1v2h2c.6 0 1 .4 1 1S27.6 24 27 24z"/>
</g>

</svg>