<?xml version="1.0" encoding="utf-8"?>
<svg xmlns="http://www.w3.org/2000/svg" viewBox="0 0 1021 857" style="stroke-width:0.25px;stroke-linejoin:round;stroke:#444;fill:#ddd" fill-rule="evenodd">
  <path class="AD" d="M852.4728 568.1022L825.536 600.0688 793.9047 614.9343 759.7028 615.2696 725.9479 602.9748 718.6827 591.1271 710.747 587.8857 702.2524 592.133 691.9694 604.2043 661.2323 707.8162 570.4741 746.2655 391.8638 769.5139 376.1041 787.6208 363.8092 809.6397 345.9259 831.4351 313.0651 849.542 289.9285 852.7834 118.3597 829.8703 85.8343 805.616 85.8343 757.5543 4.1296 629.6881 52.1912 607.781 68.2862 603.6454 124.2836 563.1843 114.5595 502.3807 64.8213 457.8958 1 466.3904 10.277 422.6879 57.2209 341.2067 57.4444 326.4529 33.749 310.3579 37.2139 274.0322 53.0854 235.1359 65.7155 211.9992 128.3074 186.2919 172.0099 34.6184 261.5386 39.3128 344.6964 7.3462 388.0636 4.2166 541.749 109.8404 572.8213 124.4824 894.9459 156.3372 870.3562 234.4652 916.0706 263.5257 981.9039 283.9799 1005.7111 318.7407 1017 335.1711 945.9135 341.8773 894.0517 392.2861 862.7558 472.2025 852.4728 568.1022Z" />
</svg>