<?xml version="1.0" encoding="utf-8"?>
<svg xmlns="http://www.w3.org/2000/svg" viewBox="0 0 1021 809" style="stroke-width:0.25px;stroke-linejoin:round;stroke:#444;fill:#ddd" fill-rule="evenodd">
  <path class="AE" d="M994.9811 109.3123L999.4519 111.8831 1004.2581 113.8949 1007.8348 114.6773 1009.5113 117.3598 1014.2057 133.1196 1012.8645 154.6914 1013.088 157.0386 1013.8704 163.2978 1013.5351 165.0861 1011.8585 167.9922 1012.0821 170.1158 1014.2057 173.8043 1015.2117 176.1515 1016.1058 177.7163 1016.7765 179.5046 1016.8882 180.8459 1017 182.6342 1016.8882 185.3167 1015.9941 189.8993 1015.3234 196.8292 1013.3116 207.0003 1012.5292 239.8611 1012.5292 242.4318 1017 260.874 1005.4876 262.1035 1004.5934 263.2212 1003.4757 264.4507 1002.8051 272.0512 1002.358 276.2985 1002.2462 277.8633 1001.1285 280.2105 995.2046 284.4578 994.0869 285.5755 987.0453 292.3935 983.2451 294.2936 975.4211 295.2996 972.2915 296.7526 972.1798 296.7526 968.7149 305.359 964.244 310.9475 962.9028 314.9713 961.0026 317.3185 956.9789 318.4362 952.508 318.6597 952.1727 318.548 949.1549 318.2127 942.7839 312.9594 936.5248 296.9761 928.7008 289.8228 927.136 286.3579 927.8066 283.4518 931.495 282.3341 934.5129 283.0047 937.1954 284.4578 942.2251 288.0344 941.4427 283.1165 939.6543 272.8336 937.3072 266.0155 931.495 262.3271 930.9362 262.2153 922.4416 260.9858 914.2823 263.1095 907.0172 267.8039 906.123 268.5862 900.0873 274.1748 893.7164 282.3341 891.481 289.4875 893.2693 307.3708 893.2693 311.7299 892.3751 320.3363 892.7105 324.6954 893.8282 327.1543 897.0695 334.1959 897.7402 338.6668 891.8163 344.1436 890.475 351.9675 887.569 355.2089 885.4453 358.4503 885.6689 363.2564 888.3514 373.0923 887.7925 385.6107 888.4631 389.1873 889.9162 390.7521 894.0517 393.6582 895.7283 395.6701 896.1754 397.682 895.393 408.8591 894.0517 412.2122 885.8924 426.8542 884.2158 430.9898 884.5512 434.4547 887.0101 435.6842 900.3109 438.5902 903.7758 438.8138 915.6235 434.0076 921.9945 436.6901 925.3476 444.9612 927.8066 454.797 935.6306 468.992 933.2834 472.5686 919.9826 475.9218 895.393 485.9812 891.481 485.5341 885.8924 481.175 882.0922 481.8457 878.6273 483.1869 875.3859 483.2987 868.5679 482.0692 861.5263 481.9574 855.4906 483.0751 849.7903 485.4223 843.5311 488.7755 839.5074 491.1227 830.4539 494.4758 821.4004 496.2641 820.618 499.6173 822.4064 503.7528 825.9831 506.9942 833.5835 511.5768 837.0484 516.6065 837.9426 523.3128 838.6132 540.7491 837.719 543.8787 827.8832 558.5207 825.9831 562.4327 819.0532 590.9343 816.0354 595.4052 808.2114 604.1233 804.1877 610.0472 801.8405 617.7594 797.4814 640.6725 792.787 654.7557 772.6682 690.0754 766.1855 712.0943 765.4031 718.9123 766.7443 752.3319 764.5089 785.7515 750.4257 804.082 747.2961 804.6408 718.3474 800.8406 689.0634 796.9286 659.6675 793.0166 630.2717 789.1046 600.9877 785.1926 571.5919 781.2806 542.3078 777.3686 512.912 773.4567 483.6279 769.5447 454.2321 765.6327 424.9481 761.7207 395.5523 757.8087 366.1564 753.8967 336.8724 749.9847 307.4766 746.0727 278.1925 742.1607 248.7967 738.2487 214.93 733.6661 209.6768 731.9895 205.5413 728.1893 194.1406 713.6591 183.187 699.4641 172.1217 685.1574 161.1681 670.9625 150.1028 656.7675 139.1492 642.4608 128.1956 628.1541 117.1303 613.9592 106.1767 599.6525 95.1113 585.4575 84.1578 571.1508 73.0924 556.8441 62.1388 542.5374 51.0735 528.2307 40.1199 513.924 29.0546 499.6173 18.101 485.3106 6.0297 469.6626 2.9001 464.1858 1.7824 458.1502 2.2295 443.3964 2.2295 437.3607 1 428.5308 5.4708 421.9363 5.6944 411.6534 1.8942 403.3823 6.1415 398.6879 7.9298 402.5999 12.4007 409.1944 13.2948 413.777 13.2948 427.0778 14.6361 435.2371 17.6539 437.1372 20.6717 433.8958 22.7954 423.3893 24.1366 426.2954 26.2603 433.4487 27.7133 435.7959 28.7193 436.3548 30.6194 436.5783 32.4077 436.1312 33.5254 435.0135 33.749 433.8958 32.9666 433.4487 36.9903 423.5011 40.9023 420.4833 45.2614 427.0778 45.932 432.1075 43.6966 446.973 44.0319 452.3381 46.6026 463.7387 46.8262 466.1977 46.6026 474.0217 47.0497 476.4806 49.0616 481.175 49.5087 483.5222 51.6323 487.546 56.662 488.8872 66.945 489.1108 69.404 489.8932 71.3041 491.0109 74.8807 494.5876 76.7809 495.8171 78.4574 495.8171 79.0163 494.8111 77.7868 493.0228 77.3397 490.452 81.9223 489.7814 93.9936 490.5638 95.4466 490.1167 96.8997 490.5638 99.4704 493.0228 106.0649 496.1524 107.8532 496.0406 116.6832 494.4758 120.4834 495.4817 122.607 494.1405 124.6189 495.4817 127.9721 493.9169 131.5487 493.6934 135.349 493.9169 139.1492 493.6934 142.7259 492.4639 150.7734 487.4342 154.3501 486.8754 161.0563 486.8754 163.8506 485.9812 166.1978 483.9693 168.8803 481.2868 171.6746 478.9396 174.6924 477.9337 178.1573 477.263 182.1811 475.5865 185.646 473.2393 186.9872 470.7803 188.2167 468.0978 194.5877 465.4153 197.7173 462.8446 200.5116 460.0503 204.2 457.256 207.8884 455.1323 210.7945 454.2382 213.1417 452.5616 213.8123 448.6496 213.8123 444.4023 214.3712 441.608 218.5067 439.2608 222.4187 440.6021 225.6601 443.8435 233.2605 454.2382 235.6077 455.1323 236.5019 454.5735 237.1725 453.344 239.0726 452.5616 243.767 452.6734 252.4851 455.2441 257.0678 455.803 259.7503 455.3559 264.2211 453.2322 266.5683 452.5616 268.9155 452.5616 270.8156 453.1205 272.2686 453.7911 273.7217 454.2382 291.7168 455.803 293.7287 455.4677 301.2174 452.5616 302.2233 451.6674 302.5586 450.438 302.8939 449.432 304.1234 449.432 305.2411 450.1026 306.0235 451.1086 306.5824 452.0028 307.0295 452.5616 313.1769 457.7031 317.0889 459.4914 325.4717 455.803 329.8308 457.4795 333.8546 459.715 337.4312 458.8208 334.5252 457.1442 333.631 454.9088 333.631 452.3381 332.9604 449.432 337.7666 448.3143 343.3551 450.885 348.3848 455.0206 351.8497 458.8208 354.7558 463.627 356.4323 464.8564 368.1683 465.6388 395.1052 460.0503 397.0053 460.0503 398.9054 461.2798 401.6997 464.5211 403.9351 466.0859 406.9529 466.7565 410.0825 466.533 412.5415 465.3035 416.3417 468.2096 418.5771 469.5508 420.589 470.1097 421.3714 470.8921 424.1657 475.1394 425.6187 476.4806 427.2953 476.816 429.7542 476.816 432.1014 476.3689 435.6781 474.5805 437.8018 475.0276 439.8136 476.0336 441.602 476.4806 448.0847 473.351 449.5377 472.3451 451.2143 471.4509 453.2262 471.7862 455.3498 472.6804 457.4735 473.2393 483.0691 473.351 488.4341 472.6804 490.6695 470.7803 503.635 463.7387 516.9358 461.5033 521.1831 459.3796 525.6539 458.4855 531.1307 455.803 537.6134 454.9088 539.8488 454.2382 542.5314 452.5616 546.4433 449.5438 549.9083 445.8553 551.3613 442.3904 553.4849 440.6021 567.3446 436.5783 578.5217 428.3073 580.4218 427.9719 582.0983 425.1777 586.1221 425.2894 594.7285 428.8661 596.2933 426.1836 604.1173 420.148 608.141 414.5594 616.4121 397.9055 615.2944 392.0934 615.965 389.2991 619.3182 387.6226 617.418 386.2813 616.4121 385.946 616.4121 384.2694 619.7652 384.6047 624.9067 386.9519 628.0363 387.6226 626.695 384.7165 623.0066 380.6927 622.336 377.8985 625.4656 379.3515 628.8187 380.4692 631.8365 381.8105 633.8484 384.2694 635.1897 384.2694 634.519 378.122 630.607 376.2219 625.0185 375.9983 619.3182 374.7689 607.0233 366.386 601.9936 365.2683 601.9936 363.8153 604.5644 363.1447 607.1351 361.3563 609.3705 358.8974 609.7058 360.3504 610.3765 362.2505 612.1648 363.8153 611.6059 361.4681 612.2766 359.3444 614.9591 355.7678 616.4121 355.7678 618.0887 362.1387 622.2242 368.3979 627.3657 372.3099 632.3954 371.6393 631.1659 370.9686 628.0363 368.2861 630.3835 368.3979 634.9661 369.8509 636.7545 369.9627 637.4251 369.1803 639.3252 365.9389 640.3311 365.2683 648.2669 349.285 644.802 347.7202 643.1254 345.7084 643.9078 343.8083 647.5963 343.1376 649.7199 341.6846 650.3905 338.555 651.62 335.2019 655.532 333.4135 655.532 331.9605 653.6319 330.6193 652.7377 328.2721 652.1789 325.366 651.1729 322.3482 652.2906 320.6716 650.8376 319.6657 649.1611 317.9891 649.7199 314.1889 651.7318 312.0652 659.8911 306.4767 661.0088 304.9119 662.0147 302.6765 663.2442 301.447 669.727 304.4648 670.0623 304.6883 673.0801 304.0177 676.2097 302.0058 677.2156 298.8762 674.4213 295.1878 697.3344 281.6635 707.6174 274.1748 714.1001 268.2509 718.2356 265.4567 723.4889 263.6683 723.936 263.5565 724.8301 263.2212 725.7243 262.9977 726.2832 262.7741 727.2891 262.1035 727.9597 261.7682 728.4068 261.5447 728.8539 261.2094 729.7481 260.6505 735.5602 257.2974 734.4425 252.4912 741.3723 251.0382 742.3782 251.8206 758.138 233.2666 779.7098 205.5473 780.8275 201.8589 780.604 198.7293 784.6277 195.0408 787.9809 195.4879 791.1105 200.0705 792.2282 203.3119 791.334 206.3297 788.5397 210.6888 794.4636 208.7887 795.5813 204.6531 793.9047 199.5117 789.6574 191.6877 789.0986 189.7876 790.3281 187.7757 796.699 180.8459 798.4873 180.0635 801.7287 180.1752 800.7228 177.2692 800.8345 174.4749 802.1758 172.1277 804.6348 170.6747 806.7584 172.463 811.0057 168.8864 817.712 159.4976 818.9415 159.4976 819.9474 162.2919 821.1769 162.5154 822.4064 160.7271 823.3006 157.9328 824.7536 159.4976 827.6596 150.7794 829.6715 146.9792 831.9069 144.9673 829.3362 143.6261 830.6774 140.72 833.36 137.0316 834.813 133.1196 835.7072 129.0958 838.0543 124.5132 841.2957 120.713 844.9842 119.26 843.084 123.1719 840.8486 126.3015 839.5074 129.0958 840.7369 132.2254 843.9782 133.5667 848.1138 132.7843 852.6964 131.443 857.1672 130.5488 858.5085 128.7605 861.8616 119.5953 863.6499 116.2421 869.2385 110.2065 872.7034 107.524 879.9685 104.7297 885.3336 97.0175 887.6807 95.3409 889.5809 95.0056 892.2634 94.1114 894.6106 92.882 895.6165 91.3172 896.6224 90.7583 902.8816 89.0817 910.3703 82.9343 921.771 68.2923 927.5831 63.2626 926.3536 65.3862 925.0123 70.1924 922.7769 74.3279 923.6711 75.6692 925.2359 76.1163 926.0183 75.3339 926.4653 71.869 928.4772 65.2745 928.9243 60.8036 930.2656 58.7917 939.0955 50.4089 940.9956 47.9499 942.5604 45.1557 943.9017 41.8025 944.684 37.5552 943.3428 37.5552 942.5604 39.6789 941.3309 41.579 939.6543 42.9202 937.6425 43.8144 943.231 34.5374 947.8136 24.5898 951.5021 9.6124 952.3963 7.6006 957.3142 7.1535 968.0442 4.3592 970.3914 4.6945 973.7446 13.748 974.7505 18.5541 974.3034 22.8014 972.9622 29.843 972.068 50.856 970.615 54.2091 966.5912 60.0212 965.5853 63.4861 966.4794 67.5099 971.3974 74.1044 972.4033 77.0105 970.8385 80.0283 968.156 82.1519 965.9206 84.6109 965.697 88.6347 966.703 99.1411 967.9325 101.9354 968.2678 102.159 969.0502 102.6061 974.0799 103.5002 975.98 105.065 977.9919 109.7594 979.5567 111.5477 982.798 112.4419 986.2629 111.7713 994.9811 109.3123ZM991.0691 178.6105L985.3688 182.8578 985.8158 186.658 986.4865 189.0052 987.716 190.9053 985.7041 193.3642 980.1155 196.2703 979.5567 201.9706 979.892 204.3178 982.4627 205.5473 985.8158 206.5532 989.2807 205.1002 995.5399 200.5176 997.9989 198.5057 1002.9168 196.7174 1008.7289 193.5878 1009.7349 187.2168 1001.352 185.5403 997.44 179.3928 991.0691 178.6105ZM991.6279 197.7233L990.8455 191.4641 992.075 190.2347 993.8634 190.2347 996.8812 192.3583 995.7635 196.2703 991.6279 197.7233ZM441.602 451.1086L437.9135 450.6615 435.4546 449.7673 435.4546 447.979 438.6959 444.6259 441.0431 443.1728 441.3784 442.9493 446.5199 441.0492 448.7553 439.9315 452.7791 436.3548 454.0086 435.5724 455.4616 434.5664 456.3558 434.2311 458.8147 433.4487 460.8266 433.5605 463.9562 434.79 464.4033 434.9018 465.521 435.1253 466.974 434.5664 472.0037 430.4309 477.8158 427.9719 480.163 426.6307 481.9514 424.06 483.0691 426.966 482.7338 427.6366 481.9514 428.8661 484.075 432.4428 485.081 433.4487 490.446 436.9136 491.2284 437.3607 498.4935 438.8138 500.0583 439.4844 504.4174 441.2727 506.541 447.8672 503.635 453.1205 497.1523 455.3559 489.6636 455.1323 483.4044 452.5616 483.8515 450.438 482.1749 447.4201 479.6042 446.7495 477.4805 451.1086 479.0453 452.5616 473.345 456.2501 466.4152 457.5913 459.3736 456.8089 453.1144 454.2382 449.426 452.2263 447.3023 451.4439 441.602 451.1086ZM554.2673 435.1253L552.1437 431.1015 547.5611 428.9779 542.3078 427.5249 537.7252 424.8424 535.378 418.9185 535.378 418.8067 538.284 414.0006 542.8667 412.1004 543.9844 413.1064 545.6609 414.6712 551.026 420.595 553.7085 423.5011 555.9439 429.2014 554.2673 435.1253ZM213.1417 408.1884L215.8242 404.2765 220.8539 401.3704 225.7718 402.9352 228.0073 406.6237 229.2367 412.5475 228.7897 416.1242 224.207 422.1598 220.295 425.6248 216.8301 429.0897 214.0359 426.1836 211.8004 422.2716 209.2297 416.6831 209.6768 412.1004 213.1417 408.1884ZM371.0744 426.966L368.0565 423.2776 365.0387 423.054 361.1267 420.9304 359.1149 424.3953 351.0673 423.1658 348.0495 422.7187 343.5787 423.6129 342.7963 423.9482 342.2374 423.9482 341.7903 422.7187 341.9021 421.3774 342.4609 419.7009 343.2433 418.2479 343.914 417.689 351.8497 419.3656 353.9734 418.8067 359.3384 416.4595 360.4561 415.4536 361.5738 414.5594 368.5036 411.7651 372.4156 409.9768 374.3157 409.9768 376.3276 413.6652 378.4513 414.7829 380.3514 413.8888 380.7985 411.318 380.4631 408.8591 379.2337 406.6237 387.1694 394.7759 390.8579 392.2052 391.0814 393.5464 391.9756 395.7818 392.3109 397.1231 397.2288 399.8056 395.8876 408.7473 393.2051 411.6534 384.8222 415.5653 380.9102 418.0243 375.8805 418.6949 372.8627 421.0421 372.8627 423.5011 371.0744 426.966ZM594.7285 385.946L584.6691 382.8164 584.6691 379.1279 593.1637 371.1922 596.1815 366.7213 597.6345 366.7213 596.1815 371.6393 597.6345 375.7748 601.4348 378.7926 609.2587 382.8164 613.059 386.7284 613.2825 389.4109 610.3765 390.3051 604.7879 389.2991 594.7285 385.946ZM570.1388 419.5891L568.2387 421.1539 566.2268 422.2716 564.4385 422.7187 562.0913 422.6069 560.8618 421.9363 557.2851 417.689 554.6026 415.7889 552.5908 414.8947 551.8084 413.3299 552.9261 409.7532 554.4909 407.6296 556.9498 405.8413 559.9677 404.9471 562.9855 404.9471 564.8856 408.8591 567.0092 412.2122 571.7036 417.689 570.1388 419.5891ZM582.769 401.3704L584.7809 403.4941 584.8926 406.6237 582.6572 413.4417 579.1923 415.1183 573.3802 405.0589 572.8213 403.3823 574.3861 403.1587 576.7333 403.7176 578.7452 405.0589 579.6394 405.5059 579.9747 404.5 579.4158 403.2705 576.2862 400.9233 575.6156 398.7997 578.2981 398.4644 582.769 401.3704ZM157.2561 362.8094L162.0623 366.0507 163.4035 371.6393 160.721 376.4454 158.1503 377.6749 155.1325 375.9983 154.0147 374.5453 153.0088 373.8747 151.6675 372.6452 151.444 369.5156 153.2323 367.0567 154.9089 364.2624 157.2561 362.8094Z" />
</svg>