<?xml version="1.0" encoding="utf-8"?>
<svg xmlns="http://www.w3.org/2000/svg" viewBox="0 0 1021 783" style="stroke-width:0.25px;stroke-linejoin:round;stroke:#444;fill:#ddd" fill-rule="evenodd">
  <path class="AF" d="M992.4103 133.9792L992.7457 134.5381 992.8574 135.0969 992.7457 135.7675 992.5221 136.4382 991.9633 139.2325 990.8455 139.5678 989.5043 138.3383 988.2748 136.4382 987.9395 136.2146 987.716 135.9911 986.3747 135.544 984.8099 135.6558 981.9039 136.4382 980.1155 138.003 974.1916 141.6914 970.7267 144.5975 969.0502 145.1563 964.3558 144.5975 963.2381 144.9328 962.2321 145.7152 961.785 146.9447 961.4497 149.9625 960.7791 150.8567 956.6436 152.1979 954.5199 152.1979 952.508 151.4155 950.3844 150.8567 944.5723 147.1682 942.4486 146.274 938.0895 145.4916 933.7305 145.2681 933.6187 145.2681 928.7008 145.0446 919.5355 146.6094 917.1883 146.274 915.0647 145.9387 910.3703 146.6094 907.0172 146.274 903.4405 147.6153 902.4345 147.7271 901.4286 147.5035 899.305 147.0564 897.0695 146.7211 886.563 147.8388 885.4453 148.2859 883.7688 149.5154 882.8746 149.8507 881.9804 149.8507 879.745 148.9565 877.9567 149.4036 876.2801 150.2978 874.2682 150.8567 868.009 151.192 862.0851 150.2978 857.5025 150.6331 852.9199 151.7508 849.455 153.5392 845.0959 157.2276 843.6429 157.6747 840.4015 157.4512 837.4955 158.4571 834.3659 158.5689 828.1067 160.0219 824.9771 161.3631 823.8594 162.1455 823.6359 163.2633 824.6418 164.9398 825.2007 166.3928 823.9712 167.1752 819.8356 167.7341 818.0473 168.293 817.1531 168.74 816.5943 169.5224 816.7061 170.1931 817.0414 170.9755 816.9296 171.7579 815.8119 172.8756 812.9058 173.5462 811.4528 174.4404 810.3351 175.5581 806.982 177.4582 805.976 178.3524 805.0818 179.2465 804.1877 180.0289 803.07 180.476 798.4873 180.6996 797.0343 181.7055 797.1461 184.4998 798.3756 186.847 798.4873 188.0765 797.705 188.9706 796.5872 189.4177 795.4695 189.5295 794.4636 189.0824 792.3399 186.847 788.3162 184.0527 786.8631 183.4938 785.5219 183.6056 784.8513 184.388 784.0689 187.0705 783.3982 188.5235 782.8394 189.4177 781.051 191.2061 780.7157 192.5473 781.4981 193.8886 781.8334 195.0063 780.4922 195.7887 778.8156 196.124 777.4744 196.5711 776.2449 197.4652 770.8799 203.5009 769.4268 204.6186 765.0678 206.1834 764.6207 206.7422 764.2854 208.5306 763.8383 209.4248 763.1677 209.8718 761.044 210.8778 758.2497 212.6661 757.9144 213.3367 757.4673 215.2369 757.132 216.0193 754.8966 218.3664 754.226 219.7077 754.4495 220.9372 754.5613 221.2725 755.3437 222.0549 757.9144 223.3961 758.8086 224.1785 760.7087 226.1904 762.6088 226.9728 764.5089 227.4199 766.6326 228.3141 767.6385 229.5436 767.9738 232.3378 768.6444 233.6791 771.8858 235.9145 772.8917 237.2558 775.2389 241.5031 775.686 242.8443 775.7978 243.7385 775.686 244.4091 775.686 245.1915 776.0213 246.1975 776.4684 246.7563 777.4744 247.6505 777.9215 248.0976 778.8156 249.6624 779.1509 251.2272 778.8156 252.792 777.4744 254.3568 776.5802 256.1451 777.2508 257.5981 778.7039 258.8276 782.5041 260.7277 783.7336 261.5101 784.4042 262.8514 784.2924 264.5279 783.8453 266.0927 783.51 267.7693 783.9571 269.6694 784.4042 270.2283 784.8513 271.0107 785.8572 272.0166 786.4161 273.2461 786.3043 274.9227 785.6337 276.1521 782.1688 279.17 780.0451 281.9642 779.8216 284.3114 781.1628 286.5469 785.0748 291.0177 787.1985 292.8061 787.5338 293.9238 786.8631 295.6003 785.0748 298.3946 780.2686 301.8595 778.3685 304.0949 778.2568 307.8952 778.7039 308.7893 778.5921 309.5717 778.0332 310.2424 777.3626 310.8012 777.2508 310.8012 776.692 311.6954 776.1331 313.7073 775.5743 314.6014 774.9036 315.2721 773.8977 315.6074 765.4031 319.0723 762.9441 321.0842 761.6029 323.6549 760.4851 326.6727 756.7967 331.926 755.9025 332.9319 753.1083 334.3849 748.1903 338.4087 747.4079 339.4146 747.4079 340.7559 747.855 342.656 748.1903 344.4443 747.855 346.4562 747.1844 348.2446 745.8431 348.8034 743.0488 348.3563 741.484 348.4681 741.3723 348.4681 740.2546 349.027 739.4722 350.48 739.3604 352.3801 739.8075 354.2802 740.4781 355.845 741.9311 358.0804 743.943 360.5394 746.0667 362.663 751.0964 365.4573 751.4317 367.581 749.308 373.5048 749.308 375.0696 749.9787 378.0875 750.2022 379.764 750.0904 381.7759 749.6433 383.0054 747.7432 385.2408 746.9608 386.9174 746.9608 388.3704 747.2961 389.7117 746.9608 391.2765 745.8431 392.2824 742.3782 393.0648 740.9252 393.5119 740.1428 394.7414 739.2486 395.5238 738.2427 395.8591 736.9014 395.7473 735.0013 395.0767 734.3307 395.3002 733.9954 396.4179 732.7659 398.8769 727.7362 399.8828 718.2356 399.7711 708.7351 401.1123 706.6114 401.0006 700.7993 399.7711 695.099 399.5475 693.8695 399.1004 691.4106 397.871 687.3868 397.5356 672.1859 392.1706 669.8387 392.0589 666.0385 392.6177 664.1384 393.2883 663.0207 394.4061 662.7971 395.7473 663.0207 397.0886 662.9089 398.318 661.6794 399.6593 660.7853 400.8888 661.2323 402.1183 663.2442 404.1301 663.9149 405.2479 664.809 408.4892 665.4796 409.8305 667.1562 412.4012 667.7151 413.6307 668.2739 415.3073 668.9446 416.8721 670.0623 417.5427 671.7388 417.7662 672.8565 417.9898 676.545 419.5546 679.5628 419.1075 680.3452 420.0017 680.9041 423.3548 681.3512 424.696 681.5747 425.0314 682.2453 425.5902 683.4748 426.1491 683.9219 426.5961 684.2572 427.155 684.2572 429.1669 682.8042 434.5319 682.6924 436.0967 682.916 437.7733 683.4748 439.2263 684.4807 440.5675 685.0396 440.9029 687.0515 441.5735 687.4986 442.0206 688.0574 443.3618 688.3927 444.0325 692.0812 448.168 693.1989 450.8505 692.7518 453.6448 680.7923 463.7042 679.451 464.4866 677.8862 464.3748 676.2097 463.816 675.3155 464.1513 672.9683 468.6221 672.4095 469.4045 671.6271 469.7398 669.5034 469.6281 668.8328 469.7398 663.5795 472.9812 660.5617 473.2047 655.8673 470.8575 653.1848 471.3046 649.8317 473.6518 648.4904 473.9871 647.9316 473.8754 647.2609 473.6518 646.5903 473.4283 644.3549 473.8754 642.9019 473.7636 640.1076 474.2107 637.6486 475.6637 635.8603 478.1227 635.1897 479.5757 634.519 480.9169 635.7485 490.0822 635.0779 492.5411 634.7426 492.8765 632.8425 494.3295 631.1659 496.6767 628.7069 498.465 627.9245 499.6945 628.1481 501.2593 628.4834 501.9299 628.9305 502.4888 629.6011 502.9359 630.16 503.1594 630.7188 503.4947 630.8306 504.1653 630.9424 505.6184 631.7248 508.4127 631.5012 509.4186 630.607 511.0952 626.9186 516.6837 625.6891 517.6897 622.7831 518.8074 621.33 519.7015 619.2064 522.384 617.8651 525.5136 617.5298 528.9785 618.3122 532.5552 620.1006 537.2496 620.3241 539.038 620.2123 540.8263 619.7652 544.403 619.7652 547.8679 619.2064 551.4446 619.0946 553.2329 620.5476 561.1686 622.7831 567.4278 622.8948 568.5455 622.6713 568.9926 622.5595 569.3279 619.0946 571.8987 617.1945 573.9106 609.4823 585.8701 608.4763 586.9878 607.3586 587.7702 606.4645 589.2232 604.229 591.2351 601.7701 593.1352 599.87 593.9176 597.2992 593.6941 594.8403 594.4765 590.3694 596.8237 587.5751 597.159 585.675 595.8177 582.4337 591.0116 580.6453 588.8879 580.0865 587.6584 579.8629 584.3053 579.4158 583.2993 578.5217 582.8523 574.6097 582.0699 570.4741 579.7227 568.127 578.8285 566.5622 578.8285 564.8856 579.3873 561.756 581.0639 560.4147 582.1816 560.6383 582.964 561.8678 583.5229 563.4326 583.7464 567.6799 583.6347 569.0211 583.8582 569.6917 584.6406 568.7976 585.6465 567.2328 586.5407 566.0033 586.9878 563.4326 586.5407 556.0557 583.8582 553.2614 583.6347 550.4671 583.7464 548.9023 583.5229 548.0081 582.6287 547.3375 581.511 545.4374 580.058 543.9844 579.2756 542.0843 578.605 540.6312 578.7167 539.7371 579.8344 538.284 583.2993 537.837 584.0817 537.5017 584.7524 535.1545 586.876 534.8191 587.6584 534.5956 589.4468 534.1485 590.0056 530.4601 592.0175 529.3424 593.0234 528.56 594.1411 527.7776 594.5882 524.8715 594.7 522.7479 594.3647 521.7419 594.3647 519.8418 595.3706 515.4827 600.2886 513.1355 601.9651 511.5707 602.9711 509.4471 603.8652 507.3234 604.0888 502.7408 603.0828 500.5054 603.0828 499.6112 604.5359 500.0583 605.8771 501.176 607.1066 502.0702 608.5596 502.5173 611.6892 503.5232 612.9187 504.8645 613.8129 506.3175 614.26 512.1296 613.4776 514.7003 614.26 515.0356 617.7249 514.2532 619.2897 513.2473 619.8485 510.3413 619.7367 509.2235 620.0721 508.2176 620.7427 507.3234 621.6369 502.8526 624.5429 501.5113 624.99 497.7111 625.6606 495.1404 626.7783 491.0048 627.449 486.0869 629.4608 484.7457 629.6844 480.2748 629.3491 476.5864 629.4608 475.4686 629.3491 474.0156 628.7902 471.4449 627.449 469.9919 627.0019 468.6506 627.0019 465.8563 627.7843 464.5151 627.6725 462.8385 627.449 461.9443 627.1136 461.3855 626.6666 461.3855 625.9959 461.609 625.5488 462.0561 624.99 462.1679 624.3194 462.0561 622.531 461.4972 621.4133 460.4913 620.8545 456.3558 620.8545 453.6733 621.6369 448.9789 623.984 446.8552 625.8842 445.1787 627.7843 443.3903 629.1255 440.7078 629.5726 439.0312 630.6903 436.5723 639.9673 435.231 641.8674 428.6365 648.7972 427.0717 649.4679 417.4594 651.368 416.3417 652.0386 415.6711 653.1563 408.7413 679.5343 408.5177 683.111 409.7472 686.3524 411.4238 688.5878 411.9826 689.7055 412.3179 691.3821 412.5415 693.0586 411.2002 703.7887 411.312 708.7066 411.0884 710.2714 406.5058 719.6602 405.4999 722.678 405.2763 724.0193 405.7234 725.137 408.1824 726.8135 411.0884 729.8314 413.3239 731.5079 413.8827 732.2903 413.5474 732.6256 412.9886 732.8492 412.5415 733.0727 411.0884 735.5317 409.1883 738.1024 403.5998 742.1262 397.5641 743.9145 393.5404 745.0322 389.4048 746.2617 385.2693 747.4912 381.2455 748.7207 377.11 749.8384 373.0862 751.0679 368.9507 752.2974 364.8152 753.5268 360.7914 754.6446 356.6559 755.874 352.5204 757.1035 348.4966 758.333 344.3611 759.4507 340.3373 760.6802 336.2018 761.9097 332.0662 763.0274 321.895 766.0452 318.3184 765.9334 306.5824 763.8098 296.9701 763.8098 284.0046 763.698 282.4398 763.5862 263.4387 769.2866 260.9798 770.6278 259.3032 772.7515 256.7325 777.7812 254.8323 778.5636 246.7848 774.9869 233.8194 772.5279 218.2832 769.5101 207.5531 770.5161 204.0882 770.8514 200.6233 771.1867 197.1584 771.522 193.6935 771.8573 190.2286 772.1926 186.7637 772.5279 183.2988 772.8633 179.8339 773.1986 176.369 773.5339 173.0158 773.8692 169.5509 774.0927 166.086 774.4281 162.6211 774.7634 159.1562 775.0987 155.6913 775.434 152.2264 775.7693 150.2145 775.9928 141.3846 776.7752 134.1195 775.434 127.4132 773.3103 121.4893 771.4102 115.6772 769.5101 109.7534 767.61 103.9413 765.7099 98.0174 763.8098 92.2053 761.9097 86.2814 760.0096 80.4693 758.1095 74.5454 756.2094 68.6216 754.3092 62.8095 752.4091 56.8856 750.509 51.0735 748.6089 45.1496 746.7088 39.3375 744.8087 33.4136 742.9086 28.3839 741.232 26.1485 740.2261 30.284 735.5317 35.6491 729.1607 46.4909 716.0835 52.303 709.1537 56.3267 704.3475 63.9272 695.1823 69.7393 688.3642 77.7868 678.5284 86.7285 667.7983 92.5406 660.7568 93.7701 659.4155 93.5465 658.9684 93.4348 658.8567 93.5465 657.4036 93.7701 656.8448 94.2172 656.6212 93.8818 651.0327 93.5465 650.0267 94.8878 647.3442 95.4466 645.6677 95.4466 643.9911 95.1113 642.3145 94.2172 639.632 92.9877 637.0613 92.8759 636.1671 92.7641 633.8199 92.0935 631.9198 90.1934 628.7902 89.5228 627.1136 89.5228 625.4371 89.9699 621.9722 89.5228 620.4074 86.952 617.166 85.6108 616.0483 83.8224 615.3777 79.9105 614.8188 71.7512 613.5893 57.8915 611.5774 45.932 609.7891 45.8202 609.7891 34.0843 608.1125 26.9309 606.9948 24.5837 605.9889 23.6895 598.2767 22.6836 594.2529 22.5718 592.3528 23.466 586.2054 22.4601 578.4932 22.2365 574.4694 22.7954 569.3279 22.6836 567.5396 22.4601 566.6454 22.013 565.863 21.9012 564.9689 22.5718 563.1805 22.1248 562.7334 21.5659 562.3981 21.2306 561.8393 21.7894 560.6098 23.6895 558.1508 24.1366 556.8096 25.0308 550.2151 25.1426 543.397 22.7954 534.4553 19.6658 522.8311 16.7597 513.2188 14.189 504.3889 11.73 496.0061 9.3828 487.8468 7.371 480.9169 6.365 475.5519 6.2532 468.9574 6.7003 467.7279 10.0535 463.1453 13.8537 457.8921 17.3186 453.3095 20.0011 449.621 22.013 447.8327 24.3602 446.3796 25.1426 445.3737 25.4779 443.6971 25.3661 442.2441 25.1426 440.7911 25.3661 439.6734 26.5956 438.7792 29.9487 438.5557 30.9547 438.2204 31.5135 437.2144 31.5135 437.1026 30.9547 435.8732 29.7252 434.8672 28.6075 434.1966 26.2603 433.6377 23.5778 433.4142 18.3245 433.6377 12.8477 433.1906 7.1474 430.8435 2.6766 426.5961 1 420.4487 1.5589 417.6545 3.6825 412.7365 3.9061 409.3834 1.8942 396.4179 1.1118 389.041 1 387.9233 1.3353 384.0113 3.3472 379.9876 5.5826 377.1933 8.0416 374.6226 11.3947 372.8342 12.5124 371.6047 12.0653 369.7046 16.9833 369.4811 24.1366 369.034 29.3899 368.6987 28.6075 367.1339 23.3542 360.3158 22.2365 358.0804 21.5659 357.0745 20.7835 356.2921 18.9952 355.5097 18.3245 354.9508 17.7657 352.8272 17.3186 352.2683 16.7597 351.933 15.9773 351.8212 16.9833 350.0329 18.7716 349.1387 22.5718 348.5799 24.3602 348.1328 25.7014 347.1268 28.9428 343.4384 29.2781 342.7678 29.7252 342.2089 30.7311 341.6501 31.7371 341.5383 32.6312 341.6501 33.4136 341.4265 34.196 340.4206 34.4196 338.2969 34.196 336.1733 34.3078 334.0496 35.6491 332.5966 37.8845 330.8083 39.2257 328.3493 39.5611 327.008 41.7965 326.2256 42.3553 323.4314 42.5789 320.4135 42.5789 319.6311 42.2436 318.0663 42.2436 317.1722 42.4671 316.0545 43.473 314.4897 43.5848 313.5955 43.9201 311.9189 44.9261 308.6776 45.3732 305.1009 45.8202 303.8714 47.4968 301.5242 46.8262 300.7418 46.7144 300.0712 46.8262 299.2888 47.0497 298.2828 46.8262 297.9475 44.2554 294.4826 43.9201 293.7002 44.3672 293.2531 45.0378 292.9178 45.1496 292.0237 44.8143 291.2413 44.3672 290.9059 44.3672 290.0118 44.3672 288.2234 44.8143 286.3233 45.8202 285.5409 47.2733 285.4292 48.9498 285.2056 50.2911 284.4232 50.9617 282.8584 50.6264 278.3876 50.9617 276.5992 51.297 275.7051 52.7501 273.6932 53.1971 272.799 53.756 270.1165 54.5384 268.4399 56.215 266.4281 57.2209 264.7515 57.5562 262.9631 57.4444 261.1748 56.662 257.5981 56.215 256.8157 57.1091 256.4804 60.7976 255.8098 61.4682 255.8098 61.9153 256.0333 62.5859 256.5922 62.5859 256.8157 61.9153 257.8217 62.8095 258.6041 62.9212 258.6041 63.033 258.6041 64.1507 259.61 64.2625 259.9453 63.9272 260.9513 63.9272 261.2866 64.486 261.9572 64.9331 262.5161 65.492 262.8514 66.2744 262.9631 66.7215 263.1867 67.2803 263.4102 71.8629 267.6575 75.1043 271.2342 79.7987 273.1343 89.2992 274.5873 93.5465 274.252 102.0411 271.2342 106.0649 271.346 108.1886 272.4637 110.0887 273.6932 117.3538 280.8465 119.2539 282.1878 123.1659 283.8644 124.1718 284.9821 124.9542 286.3233 125.4013 287.8881 125.5131 289.3411 125.4013 292.8061 125.8484 294.1473 127.0779 297.2769 127.8603 298.1711 128.978 297.6122 135.796 288.2234 138.1432 286.0998 140.0433 285.988 144.7377 290.2353 145.4084 290.6824 146.1908 290.6824 146.8614 290.4589 147.6438 290.4589 149.6557 291.2413 150.3263 291.353 151.444 291.1295 156.5855 288.8941 157.7032 288.2234 158.5974 287.3293 159.4915 286.0998 161.2799 284.1997 165.7507 282.076 166.086 281.8525 172.457 276.8228 177.1514 274.4756 178.6044 274.1403 181.5105 273.9167 182.9635 273.5814 183.8576 272.5755 184.3047 271.0107 184.64 267.6575 185.3107 264.975 185.0871 264.0809 183.8576 263.0749 183.6341 262.069 183.5223 257.5981 183.6341 256.2569 185.5342 254.4685 190.8992 252.6802 192.9111 251.2272 193.2464 250.4448 193.3582 249.8859 193.0229 249.3271 191.2345 248.6564 190.6757 248.3211 189.7815 246.9799 186.0931 243.7385 185.646 242.6208 185.3107 241.056 184.64 239.9383 184.193 238.8206 184.5283 237.2558 185.5342 236.1381 187.099 235.8028 202.4117 236.1381 208.5591 234.9086 214.2594 232.2261 215.2653 231.2201 216.9419 228.9847 217.9479 227.9788 219.2891 227.1964 220.7421 226.8611 229.4603 226.414 232.2546 225.6316 238.8491 221.7196 240.9727 221.049 242.2022 220.9372 243.2081 220.7136 245.22 221.1607 251.9263 223.7315 251.9263 222.7255 251.3674 218.59 251.2557 217.0252 251.9263 215.5722 252.8205 214.4545 257.4031 210.8778 259.9738 209.6483 262.5446 209.2012 265.4506 209.6483 266.6801 210.0954 267.5743 210.3189 268.2449 209.7601 269.3626 206.2952 270.145 205.1774 271.2627 204.5068 272.4922 203.948 277.7454 202.7185 280.0926 201.8243 282.4398 199.9242 283.8928 198.2476 289.4814 189.6413 290.7109 186.6234 291.4933 183.3821 291.8286 179.8054 291.6051 178.0171 290.5991 174.6639 290.2638 172.8756 290.2638 171.0872 290.4873 169.2989 291.3815 165.834 292.611 163.0397 300.0997 149.0683 302.7822 144.3739 303.6763 141.3561 303.341 137.8912 301.9998 131.1849 302.3351 127.72 303.6763 125.4846 305.6882 123.9198 318.5419 116.99 323.7952 115.3134 353.7498 114.531 354.644 114.531 357.2147 113.1898 360.4561 108.6072 362.3562 106.5953 363.3622 105.3658 363.6975 103.5774 363.6975 101.5656 363.1386 97.7653 363.4739 95.7535 364.1446 93.9651 365.0387 92.1768 365.7094 90.7238 366.4917 89.8296 367.2741 89.2707 368.5036 89.0472 371.4097 89.0472 372.4156 88.2648 372.8627 85.9176 372.9745 84.6881 374.0922 85.1352 375.4334 85.4705 375.9923 85.8058 377.2218 88.4883 377.7806 89.3825 378.2277 89.9414 379.569 90.9473 395.4405 96.8712 396.7817 97.9889 398.6818 100.5596 399.9113 101.7891 401.3644 102.5715 402.1468 102.6833 404.4939 102.5715 405.2763 102.6833 406.2823 103.5774 406.8411 103.801 407.5118 104.0245 407.9589 104.3598 409.1883 105.4776 410.6414 106.5953 412.4297 106.8188 417.3476 105.1422 419.0242 104.9187 419.6948 105.3658 420.8125 106.9306 421.5949 107.3777 422.3773 107.1541 422.9362 106.707 424.0539 105.4776 425.2834 104.4716 426.5129 103.6892 427.8541 103.2421 429.6425 103.1304 431.319 103.2421 436.0134 105.254 436.9076 105.4776 438.8077 105.4776 439.5901 105.254 440.9314 104.0245 441.7138 103.801 450.879 103.3539 457.3617 101.7891 460.8266 101.9009 462.0561 102.4597 464.8504 104.4716 466.4152 104.9187 467.1976 105.8129 468.4271 109.6131 469.0977 110.9543 470.4389 111.8485 473.5685 113.078 475.0216 114.4193 475.6922 115.8723 476.251 117.5488 477.0334 118.8901 478.5982 119.5607 480.163 119.2254 482.9573 117.4371 484.7457 117.1018 486.4222 116.8782 487.987 116.5429 489.3283 115.7605 490.7813 114.7546 493.1285 112.4074 494.358 111.4014 495.811 110.9543 497.4876 111.7367 498.8288 115.4252 499.9465 116.4311 500.7289 116.2076 501.2878 115.3134 501.7349 114.4193 502.182 114.0839 502.8526 113.9722 504.1938 113.5251 504.9762 113.4133 505.8704 113.6369 507.3234 114.8663 508.1058 115.2017 509 115.4252 511.5707 115.2017 513.0238 115.6487 514.2532 116.4311 515.1474 117.5488 515.371 119.2254 514.8121 124.814 514.9239 126.1552 515.7063 127.3847 517.3828 128.5024 519.0594 129.5084 522.3008 130.179 523.3067 131.2967 523.9773 132.8615 525.095 134.6498 525.8774 135.3205 527.554 136.2146 528.2246 136.7735 530.6836 139.7913 531.0189 140.5737 531.3542 141.3561 531.6895 142.0267 532.3602 142.4738 532.6955 142.4738 533.2543 142.4738 534.0367 142.1385 534.8191 141.6914 539.4018 137.6677 540.2959 137.1088 541.6372 136.5499 542.7549 135.3205 544.0961 134.3145 545.8845 134.091 548.7905 134.9851 550.4671 134.9851 551.2495 133.7557 550.8024 130.0672 550.6906 128.2789 551.2495 126.8259 552.5908 125.8199 553.932 125.9317 555.2733 126.4905 556.7263 126.8259 558.5146 126.6023 559.9677 125.9317 560.4147 124.5904 559.4088 122.4668 563.7679 122.1315 567.121 121.4608 567.9034 121.3491 568.4623 121.0138 569.4682 119.2254 569.8035 118.8901 571.2565 118.6666 573.8273 117.8842 575.1685 117.6606 575.3921 116.99 575.8392 115.537 576.6216 114.3075 578.2981 114.0839 577.851 112.9662 577.6275 112.6309 577.2922 112.1838 578.0746 111.2897 579.3041 111.1779 582.0983 111.625 583.5514 111.5132 584.4455 111.5132 585.3397 111.9603 587.9105 113.6369 588.8046 113.7486 589.0282 112.8545 588.9164 110.9543 588.0222 108.2718 588.2458 107.2659 589.8106 106.8188 591.3754 107.1541 592.1578 108.2718 592.7166 109.7249 593.7226 110.9543 594.7285 111.4014 595.5109 111.1779 595.8462 110.3955 595.6227 109.166 595.2873 108.7189 594.1696 107.9365 593.7226 107.3777 593.2755 106.26 593.499 106.0364 593.9461 106.0364 594.1696 106.1482 598.9758 106.8188 600.4288 107.6012 601.7701 108.8307 602.8878 110.3955 604.0055 113.6369 605.3468 114.9781 606.9116 115.984 608.2528 117.1018 609.4823 120.2314 610.1529 120.902 611.7177 122.0197 612.053 122.2432 618.7593 126.7141 620.2123 126.6023 621.5536 125.9317 623.2301 125.5964 623.4537 125.4846 624.2361 125.2611 625.0185 124.4787 626.1362 123.1374 629.0422 121.3491 630.16 120.2314 632.6189 116.0958 632.8425 114.9781 631.5012 114.7546 630.3835 114.1957 630.9424 112.1838 630.3835 111.4014 629.8246 108.3836 629.2658 107.0424 628.9305 106.4835 628.7069 105.7011 628.5952 104.8069 628.5952 104.0245 628.5952 103.801 628.8187 103.6892 629.0422 103.5774 629.0422 103.1304 628.8187 102.6833 628.1481 102.5715 628.0363 102.2362 627.9245 98.7713 628.1481 97.2065 628.5952 95.7535 628.9305 95.3064 629.9364 94.524 630.4953 94.0769 630.7188 93.6298 631.1659 92.5121 631.3894 92.065 634.519 89.8296 636.0838 88.2648 637.3133 84.5763 638.7663 83.9057 648.3787 84.7999 649.9435 84.5763 652.8495 83.2351 654.6378 83.0116 655.1967 83.1233 656.7615 83.5704 657.3204 83.9057 657.991 84.3528 658.7734 84.0175 659.444 83.3469 660.2264 83.0116 661.5677 82.5645 664.5855 81.1114 666.262 81.2232 667.3798 82.2292 668.0504 83.6822 668.8328 84.9117 670.2858 85.4705 671.18 85.5823 671.6271 86.0294 671.8506 86.7 672.2977 87.0353 672.5212 87.2589 673.1919 87.4824 675.3155 87.9295 674.8684 87.2589 676.8803 87.5942 679.004 88.3766 681.1276 88.7119 683.1395 87.9295 685.5985 84.7999 686.0455 84.5763 686.2691 83.7939 687.275 81.2232 687.3868 81.1114 688.7281 81.1114 688.9516 81.2232 689.2869 80.7761 689.5105 80.6644 689.8458 79.9937 689.9575 79.3231 689.8458 78.5407 689.8458 77.8701 690.1811 77.5348 690.5164 77.3112 691.4106 75.97 691.5223 74.8523 691.7459 74.1816 691.9694 73.3992 691.8576 72.058 691.187 69.4872 690.9635 68.2578 691.4106 67.14 690.7399 66.5812 690.0693 65.5752 689.6222 64.4575 689.3987 63.1163 688.9516 62.4457 686.6044 61.6633 685.822 61.3279 684.5925 59.4278 683.5866 56.8571 683.2513 54.0628 684.1454 51.8274 685.4867 53.0569 687.1633 53.2804 688.7281 53.0569 690.4046 52.3862 689.8458 51.7156 689.6222 50.9332 689.6222 50.2626 689.8458 49.3684 690.4046 49.1449 691.187 48.9213 691.9694 48.586 692.3047 47.8036 692.64 47.3565 692.9754 47.133 694.4284 46.4624 694.9872 46.0153 698.1168 41.768 701.2464 38.5266 702.0288 37.9678 704.376 36.9618 705.1584 36.1794 706.0526 34.7264 707.8409 29.6967 709.9646 25.6729 710.5234 23.4375 711.4176 22.9904 712.4235 22.6551 713.0942 22.3198 714.1001 19.302 714.1001 18.5196 713.9883 17.6254 713.9883 16.6195 714.3237 15.8371 714.9943 15.5018 716.5591 15.6135 717.2297 15.1664 719.6887 13.3781 720.2475 12.2604 718.9063 11.2545 718.9063 10.5838 720.1358 9.8014 724.2713 9.3543 725.1655 7.7895 725.6125 7.2307 726.842 6.8954 729.0774 6.8954 729.6363 7.0072 730.754 7.4542 731.4246 7.4542 731.8717 7.2307 732.207 6.7836 732.5424 6.4483 733.4365 6.3365 736.3426 7.6778 738.0191 8.1249 738.8015 7.2307 738.4662 5.107 739.0251 4.5482 740.7017 4.4364 741.5958 4.66 742.3782 5.2188 743.1606 5.7777 743.8312 6.5601 744.2783 7.3425 744.8372 9.019 745.2843 9.6897 746.0667 10.3603 746.5138 10.2485 747.0726 10.025 747.9668 10.025 748.8609 10.2485 750.7611 11.2545 753.5553 13.2663 757.9144 17.7372 763.7265 20.1961 766.0737 21.8727 767.7503 24.4435 768.1974 28.4672 767.862 30.4791 766.5208 34.3911 766.0737 36.9618 764.8442 39.5326 763.8383 43.221 761.7146 47.133 761.2675 49.4802 760.5969 51.4921 760.4851 52.3862 760.7087 53.6157 761.044 53.7275 761.6029 53.6157 762.3853 53.7275 765.0678 55.8512 766.5208 56.5218 767.9738 55.7394 769.2033 54.8452 777.8097 51.8274 780.3804 51.9392 782.5041 53.3922 784.6277 56.0747 784.1806 56.7453 784.4042 57.7513 784.516 59.7631 784.4042 61.8868 784.1806 63.4516 783.0629 65.0164 780.4922 66.8047 779.8216 68.3695 779.9333 69.1519 780.604 71.052 780.8275 72.058 780.604 72.9521 779.8216 75.7464 779.4862 78.4289 779.3745 79.3231 779.0392 80.1055 778.145 81.335 777.9215 81.7821 777.5861 85.6941 778.5921 92.8474 777.9215 96.4241 777.1391 98.436 776.9155 99.6655 777.3626 103.1304 777.4744 106.8188 777.3626 108.7189 776.9155 109.8366 776.8037 112.2956 774.233 116.7664 774.4565 118.8901 774.0095 119.6725 773.5624 121.0138 773.1153 124.7022 772.8917 129.9554 773.1153 131.0732 773.4506 131.9673 774.6801 133.8674 774.9036 134.9851 774.9036 138.5618 775.1272 140.4619 775.7978 142.1385 779.8216 148.6212 780.4922 150.4096 780.9393 154.4333 781.4981 156.2217 782.2805 157.8982 783.1747 159.463 785.6337 161.922 788.5397 163.4868 791.8928 164.2692 795.3578 164.2692 798.7109 163.5986 801.5052 162.4809 821.9593 147.1682 823.8594 145.1563 826.2066 143.7033 826.8772 143.0327 827.8832 141.4679 828.5538 140.6855 831.3481 138.7854 838.5014 135.8793 841.631 135.2087 846.549 136.1029 848.8961 134.9851 859.4026 133.4204 860.0733 132.5262 860.5204 130.8496 863.4264 126.1552 866.6678 119.3372 868.7914 116.4311 871.5857 114.7546 874.9388 114.0839 876.7272 113.4133 878.1802 111.625 883.2099 108.4954 888.3514 108.0483 889.8044 107.0424 890.5868 105.8129 891.8163 103.2421 892.934 101.9009 895.6165 99.7772 896.1754 99.5537 897.7402 100.1125 898.5226 99.7772 901.9875 96.0888 902.9934 95.1946 904.4464 94.7475 906.2348 94.524 907.9113 94.7475 909.1408 95.5299 910.2585 95.8652 914.6176 93.4063 917.859 93.2945 926.2418 96.4241 931.1597 97.7653 934.1776 97.6536 936.7483 97.9889 936.3012 100.2243 936.1894 100.8949 936.1894 104.6952 935.7424 105.9246 934.5129 107.3777 933.2834 108.3836 932.2774 108.9425 929.5949 109.166 928.0301 109.7249 926.5771 111.0661 925.6829 112.7427 926.0183 114.6428 927.136 115.3134 930.1538 114.3075 931.6068 114.4193 932.0539 114.9781 933.1716 116.3194 933.6187 116.7664 934.4011 116.6547 935.5188 115.7605 936.1894 115.537 937.7542 115.6487 938.8719 115.984 939.8779 115.6487 942.5604 113.1898 944.0134 112.7427 947.0312 112.4074 950.9432 110.5073 952.508 110.1719 957.7613 108.2718 965.5853 106.707 967.3736 105.9246 968.6031 104.4716 968.7149 101.342 969.9443 100.2243 971.7327 100.1125 973.8563 100.6714 975.5329 100.4479 976.4271 98.1007 976.7624 99.2184 977.5448 98.6595 978.3272 98.6595 979.1096 99.1066 980.1155 100.7832 980.7861 101.0067 981.5685 101.1185 983.5804 101.4538 984.8099 101.1185 986.1512 101.0067 987.716 101.6773 990.2867 102.4597 990.8455 102.6833 991.5162 102.6833 998.6695 102.1244 1000.6814 101.0067 1009.7349 106.5953 1011.7468 108.7189 1014.9881 114.3075 1017 115.4252 1011.4114 116.8782 1010.0702 116.99 1009.3996 116.4311 1006.6053 110.3955 1006.1582 109.7249 1005.0405 109.6131 1004.1463 110.1719 1003.3639 111.0661 1001.7991 112.6309 1001.4638 112.7427 1000.0108 112.9662 999.6755 113.4133 999.4519 113.9722 998.5578 114.8663 998.3342 115.2017 998.1107 115.537 997.44 115.7605 997.1047 115.537 996.2106 114.6428 995.7635 114.4193 994.7575 114.531 991.6279 115.4252 989.3925 115.4252 988.4983 115.984 987.716 117.3253 987.0453 119.1136 986.3747 120.2314 985.257 120.7902 983.804 121.0138 981.1215 120.6784 980.1155 121.1255 979.892 122.8021 981.1215 124.7022 983.3569 126.3788 987.716 128.6142 988.9454 130.0672 989.8396 131.7438 990.7338 133.1968 992.4103 133.9792Z" />
</svg>