<?xml version="1.0" encoding="utf-8" standalone="no"?>
<svg xmlns:svg="http://www.w3.org/2000/svg" xmlns="http://www.w3.org/2000/svg" viewBox="0 0 854 1024" style="stroke-width:0.25px;stroke-linejoin:round;stroke:#444;fill:#ddd" fill-rule="evenodd">
  <path class="AO" d="M420.72 612.7864 384.1074 612.583 379.7342 614.3119 376.1747 614.0068 370.9879 615.9391 369.8692 618.6851 375.9713 627.5331 378.4121 636.9914 382.0734 650.6194 378.2087 656.213 377.5985 659.0607 380.5478 667.5019 383.7006 676.0448 387.3619 681.1299 387.9721 689.0627 386.5482 699.5379 382.4802 705.7417 375.2594 714.9966 372.31 720.6919 368.1402 733.4046 367.3266 739.405 362.9535 752.3211 361.0211 764.7287 362.0381 773.5768 368.0385 770.8308 375.3611 768.4917 383.2938 768.8985 390.5146 775.3057 392.4469 774.2887 442.0774 773.6785 450.4169 780.3908 480.0121 782.4248 502.7933 776.6278 495.064 767.8815 487.1312 756.3892 488.7585 711.6404 514.489 711.7421 513.472 706.9622 515.506 701.6737 513.472 695.0631 514.9975 688.249 513.7771 683.8759 508.1835 683.0623 500.4542 685.0963 495.064 684.7912 492.0129 686.1133 492.9282 669.3325 488.9619 664.1457 488.1482 655.5011 490.0806 646.9582 487.6397 641.568 487.538 632.7199 472.4862 632.8216 473.6049 627.7365 467.2994 627.8382 466.5875 630.2791 458.8582 630.7876 455.7054 639.0254 453.7731 642.4833 446.9591 640.551 442.891 642.4833 434.6532 643.602 429.9749 636.2795 427.2289 631.7029 423.6694 623.2617 420.72 612.7864ZM372.5134 610.0404 372.9202 603.9383 374.9543 600.3788 379.5308 597.4294 374.8526 592.5477 371.0896 594.8869 366.0045 600.989 369.3607 611.566 372.5134 610.0404Z" />
  <path class="BF" d="M222.8085 320.0889 214.8758 320.0889 211.8247 317.4446 205.0107 319.377 193.5184 325.2757 191.1793 329.6488 181.6193 335.9544 179.8904 339.6156 174.7036 342.4633 168.8049 340.5309 165.347 343.9888 163.5164 353.6505 153.6514 365.2444 153.9565 370.0244 150.4986 376.0248 151.3122 384.161 156.9058 387.212 159.0415 391.8903 164.5334 394.8396 168.9066 391.3818 174.7036 390.7716 183.1448 394.4328 181.5176 383.8559 181.8227 375.8214 203.2818 375.2112 208.7737 376.2282 212.74 373.9908 218.4353 375.1095 229.3174 375.4146 233.4872 373.7874 236.0297 367.5836 242.1318 366.3632 244.7761 362.0917 245.0812 352.43 230.8429 349.2773 230.4361 342.4633 223.4187 333.3101 221.7915 326.9029 222.8085 320.0889Z" />
  <path class="BI" d="M597.3759 569.5632 596.7657 564.0713 596.7657 564.0713 590.1551 563.156 586.2904 571.1904 578.7645 570.0717 581.8155 576.4789 581.9172 578.9197 586.2904 592.3443 586.2904 592.9546 587.5108 592.7512 592.0874 587.6661 597.0708 580.3435 600.1218 577.3942 600.0201 572.8176 597.3759 569.5632Z" />
  <path class="BJ" d="M262.7773 366.0581 253.319 357.9219 248.9458 358.0236 244.7761 362.0917 242.1318 366.3632 236.0297 367.5836 233.4872 373.7874 229.3174 375.4146 227.6902 382.7371 231.4532 386.9069 235.8263 391.8903 236.2331 398.806 238.7757 401.6537 238.2672 433.9948 241.3182 443.6565 251.5901 442.0292 252.2003 419.3497 251.8952 410.4 254.2343 401.552 257.9973 397.1788 263.9977 388.5341 262.6756 384.7712 265.1164 379.0759 262.2688 370.7363 262.7773 366.0581Z" />
  <path class="BW" d="M527.8119 779.6789 525.5745 778.6619 518.5571 781.8146 514.8958 781.8146 506.8614 787.3065 502.3865 781.5095 483.3683 786.4929 474.2151 786.8997 472.2828 837.0386 460.282 837.5471 458.8582 878.6346 462.1126 880.6687 468.7232 894.0933 467.1977 902.6362 469.7402 907.6196 478.3849 906.1958 484.6904 899.8903 490.5891 895.6188 493.8435 888.9065 499.9456 885.6521 504.929 887.381 510.5226 891.3473 520.286 891.9576 528.2187 888.7031 529.6425 884.3299 532.0834 877.6176 538.694 876.4989 542.6604 871.2104 547.1352 861.7522 558.5258 851.2769 576.1202 840.9033 568.696 834.5978 559.3394 832.4621 556.1867 823.5123 556.3901 818.5289 551.2033 817.0034 537.9821 801.5447 534.4225 793.4086 532.0834 790.9678 527.8119 779.6789Z" />
  <path class="CD" d="M545.8131 457.5896 536.4566 456.1658 531.88 457.3862 530.0493 460.7423 526.083 461.2509 521.0996 458.1998 507.3699 465.2172 501.6746 463.7934 500.0473 464.9121 496.3861 473.4551 487.1312 470.7091 477.9781 469.2853 470.0453 464.0985 459.7735 459.3185 453.1629 463.7934 448.3829 471.0142 447.3659 480.7776 446.654 489.3205 442.9927 496.8464 440.5519 505.5928 439.0263 518.1021 439.7382 526.0348 437.7042 530.9165 437.3991 536.1033 435.9753 540.5782 427.7374 547.3922 422.0421 554.613 416.652 568.241 416.9571 579.835 413.8043 584.3099 406.4818 591.2256 399.1593 600.0737 394.5827 597.5311 393.7691 593.5648 387.0568 593.4631 382.7853 598.8533 379.5308 597.4294 374.9543 600.3788 372.9202 603.9383 372.5134 610.0404 369.3607 611.566 370.9879 615.9391 376.1747 614.0068 379.7342 614.3119 384.1074 612.583 420.72 612.7864 423.6694 623.2617 427.2289 631.7029 429.9749 636.2795 434.6532 643.602 442.891 642.4833 446.9591 640.551 453.7731 642.4833 455.7054 639.0254 458.8582 630.7876 466.5875 630.2791 467.2994 627.8382 473.6049 627.7365 472.4862 632.8216 487.538 632.7199 487.6397 641.568 490.0806 646.9582 488.1482 655.5011 488.9619 664.1457 492.9282 669.3325 492.0129 686.1133 495.064 684.7912 500.4542 685.0963 508.1835 683.0623 513.7771 683.8759 518.0485 684.181 518.6588 688.5542 524.4558 688.249 532.2868 689.5712 536.2532 695.8767 546.1182 697.9107 553.7458 693.4358 556.3901 700.8601 565.7466 702.7924 570.1198 708.7928 575.0015 716.5221 584.4598 716.6238 583.8495 701.4703 580.3917 704.0128 571.8487 698.5209 568.5943 696.0801 570.5266 681.9435 573.0692 665.2645 570.4249 659.0607 574.0862 650.1109 577.4423 648.382 594.1214 646.0428 596.2572 646.6531 596.8674 644.3139 593.4095 640.551 591.884 632.8216 584.4598 625.0923 580.29 615.0238 582.6291 609.1251 579.3747 601.1924 581.8155 578.7163 581.9172 578.9197 581.8155 576.4789 578.7645 570.0717 579.9849 562.3423 581.7138 561.3253 582.2223 552.8841 585.7819 549.0194 585.8836 538.3407 588.8329 532.9506 589.4431 521.6617 592.0874 515.1528 596.7657 507.8302 601.5456 504.0673 605.512 499.0839 600.5286 497.1516 601.1388 480.7776 601.1388 480.7776 590.0534 471.421 587.104 465.4206 580.1883 468.37 574.3913 467.4547 571.1368 469.7938 565.5432 468.0649 557.9156 456.4709 553.8475 457.9964 545.8131 457.5896Z" />
  <path class="CF" d="M513.9805 408.8745 512.9635 408.1626 508.692 404.0945 507.7767 399.7213 509.709 393.9243 509.6073 388.1273 502.2848 379.381 500.7593 373.3806 492.9282 375.7197 486.8261 381.415 478.0798 396.772 466.5875 403.2809 454.5867 402.4673 451.1288 403.6877 452.3492 408.6711 445.942 413.5528 440.7553 419.0446 425.1949 424.4348 422.1438 421.2821 420.0081 420.977 417.7707 424.6382 407.6005 425.6553 401.3967 439.8935 398.4473 442.5377 397.6337 453.4198 398.8542 459.3185 397.9388 463.4883 403.8375 470.9125 404.8546 475.8959 409.5328 483.2184 415.2281 487.6933 415.8383 494.1005 417.1605 498.1686 423.5677 485.1508 430.9919 477.6248 439.3314 480.0657 447.3659 480.7776 448.3829 471.0142 453.1629 463.7934 459.7735 459.3185 470.0453 464.0985 477.9781 469.2853 487.1312 470.7091 496.3861 473.4551 500.0473 464.9121 501.6746 463.7934 507.3699 465.2172 521.0996 458.1998 526.083 461.2509 530.0493 460.7423 531.88 457.3862 536.4566 456.1658 545.8131 457.5896 553.8475 457.9964 557.9156 456.4709 555.8816 451.996 546.525 446.4024 543.2706 437.9612 537.9821 431.8591 529.5408 424.5365 529.4391 419.96 522.5234 414.3664 513.9805 408.8745Z" />
  <path class="CG" d="M447.3659 480.7776 439.3314 480.0657 430.9919 477.6248 423.5677 485.1508 417.1605 498.1686 416.2451 505.7962 406.3801 502.44 396.3116 498.7788 380.6495 498.1686 379.7342 504.3724 383.1921 511.5932 392.4469 510.4745 395.5997 513.2204 390.2095 529.5944 396.1082 537.9339 397.4303 548.9177 395.8031 558.2743 392.0401 564.8849 381.0564 564.2747 374.4457 557.5624 373.4287 563.7662 364.9875 565.4951 360.716 569.0547 365.3943 578.3095 355.936 586.1405 366.0045 600.989 371.0896 594.8869 374.8526 592.5477 379.5308 597.4294 382.7853 598.8533 387.0568 593.4631 393.7691 593.5648 394.5827 597.5311 399.1593 600.0737 406.4818 591.2256 413.8043 584.3099 416.9571 579.835 416.652 568.241 422.0421 554.613 427.7374 547.3922 435.9753 540.5782 437.3991 536.1033 437.7042 530.9165 439.7382 526.0348 439.0263 518.1021 440.5519 505.5928 442.9927 496.8464 446.654 489.3205 447.3659 480.7776Z" />
  <path class="CI" d="M151.3122 384.161 146.2271 386.2967 143.2778 388.0256 141.4471 382.0252 137.8876 383.6525 135.7519 383.3473 133.4127 387.4154 123.8528 387.3137 120.4966 385.178 118.8694 386.5001 116.3268 387.6188 115.3098 392.3988 118.1575 398.1958 121.2085 409.4847 116.5302 411.1119 115.4115 413.0442 116.3268 415.7902 115.5132 421.994 113.5809 421.994 112.9707 426.0621 114.1911 432.8761 111.4451 439.0799 115.1064 442.9445 118.9711 443.8599 124.2596 449.7586 124.5647 455.3522 123.4459 457.0811 122.4289 468.6751 124.7681 469.0819 137.074 463.8951 145.7186 459.827 160.4654 457.3862 168.3981 457.1828 177.0427 459.9287 182.738 459.827 183.2465 454.2334 177.9581 442.1309 181.2125 426.2655 186.3993 414.4681 183.1448 394.4328 174.7036 390.7716 168.9066 391.3818 164.5334 394.8396 159.0415 391.8903 156.9058 387.212 151.3122 384.161Z" />
  <path class="CM" d="M402.6171 376.8384 403.0239 367.4819 402.0069 358.227 397.0235 349.1756 393.5657 349.9892 393.1589 354.4641 398.1422 360.0577 396.8201 362.6002 396.3116 367.2785 385.938 378.1606 382.7853 387.1103 381.1581 394.4328 378.5138 397.5856 376.073 407.4507 369.5641 413.2476 367.6317 420.3668 364.8858 426.0621 363.7671 431.8591 355.3258 436.639 348.3084 430.842 343.6301 431.0454 336.3076 439.2833 332.6463 439.385 326.8493 453.013 323.6966 462.9798 323.5949 466.8444 326.7476 468.8785 329.2902 475.184 334.9855 477.5231 339.8672 486.8797 338.0365 497.9652 358.2752 498.2703 364.1739 497.355 371.6998 499.2873 379.124 497.4567 380.6495 498.1686 396.3116 498.7788 406.3801 502.44 416.2451 505.7962 417.1605 498.1686 415.8383 494.1005 415.2281 487.6933 409.5328 483.2184 404.8546 475.8959 403.8375 470.9125 397.9388 463.4883 398.8542 459.3185 397.6337 453.4198 398.4473 442.5377 401.3967 439.8935 407.6005 425.6553 409.4311 421.8923 405.4648 412.1289 403.6341 406.3319 398.2439 403.9928 390.9214 395.755 393.464 389.1443 399.1593 390.4665 402.6171 389.5512 409.5328 389.6529 402.6171 376.8384Z" />
  <path class="DJ" d="M751.2506 368.804 745.8604 364.9393 752.7761 361.5832 752.8778 355.7862 749.8267 351.413 746.1655 354.8709 740.877 353.6505 736.8089 359.8543 732.8425 366.4649 733.9613 370.3295 734.2664 374.601 741.1821 374.8044 744.1314 373.8891 746.9791 376.3299 751.2506 368.804Z" />
  <path class="DZ" d="M316.069 9.797 308.1362 10.6106 303.2546 7.3562 290.8469 7.4579 280.0666 13.0515 274.1679 10.9157 254.9462 12.1361L235.2161 14.6787 224.0289 19.0519 216.7064 24.9506 204.0954 27.3914 192.8065 35.2224 197.078 44.3756 197.7899 52.9185 201.7563 67.8687 204.909 70.818 202.6716 76.3099 187.2129 78.649 181.721 83.8358 174.907 85.0563 174.2968 95.4298 160.262 100.9217 155.5837 108.0408 145.8203 111.8038 133.8195 113.9395 114.2928 124.3131 114.0894 140.8905 114.0894 141.9075 113.7843 144.6535 158.6347 178.7235 199.3154 209.4374 240.4029 240.1514 243.3523 246.6603 250.9799 250.7283 256.5735 252.9658 256.7769 261.9155 270.3032 260.5934 287.4908 254.2879 322.5779 226.7267 363.7671 199.8775 358.2752 191.0294 348.5118 184.5205 342.9182 187.0631 338.545 179.232 337.9348 173.2316 330.6123 162.9598 335.2906 157.0611 333.9685 148.213 335.3923 140.4837 334.3753 134.0765 336.2059 122.5842 335.3923 116.0753 331.2225 103.6677 325.4255 78.5473 318.0013 72.8521 317.7979 69.4959 307.9328 61.0547 306.6107 50.4777 313.7298 42.5449 316.1707 30.7475 313.8315 17.1195 316.069 9.797Z" />
  <path class="EG" d="M556.4918 93.5992 544.3893 89.5311 532.6936 85.7682 516.8281 85.9716 513.0652 92.6839 515.3026 98.6843 512.8618 107.3289 517.1332 118.7195 520.0826 168.7568 522.32 220.5229 571.2385 220.5229 618.4281 220.5229 666.6347 220.5229 664.3973 217.6753 649.4471 205.0643 648.5318 195.9111 650.7693 193.4703 638.9719 177.9099 634.497 169.8755 629.5136 162.2478 618.8349 140.2803 610.292 126.1437 604.0882 111.397 605.2069 110.0749 615.4788 130.2118 621.3775 136.5173 625.7507 140.9922 628.2932 138.5514 631.0391 131.2288 632.6664 120.6519 635.514 114.9566 633.9885 111.397 625.3438 90.955 625.3438 90.955 619.852 94.4128 610.4954 93.5992 600.732 90.3447 598.3929 94.9213 594.5282 88.0056 585.8836 86.175 575.51 87.3954 570.9334 91.3618 562.1871 95.8366 556.4918 93.5992Z" />
  <path class="EH" d="M114.0894 140.8905 112.2588 140.8905 112.2588 140.8905 112.3605 148.5181 104.9362 148.9249 100.9699 152.1794 95.478 152.1794 91.2065 150.3487 81.0363 151.7726 76.7649 162.7564 73.0019 163.8751 66.8998 181.5712 49.7122 196.8264 45.2373 216.2515 40.1523 222.557 38.525 227.642 11.0656 228.7608 10.8622 228.6591 10.252 234.6595 12.9979 229.9812 60.696 230.0829 58.7637 209.7425 61.9164 202.5217 73.307 201.1996 73.7138 165.1972 113.2758 165.9091 113.7843 144.6535 114.0894 141.9075 114.0894 140.8905Z" />
  <path class="ER" d="M707.8239 312.9698 700.7048 306.0541 696.6367 293.1379 688.704 276.8657 682.907 284.9001 673.9573 287.2392 670.296 291.5107 669.5841 300.8673 665.2109 321.5127 666.7364 327.208 681.2798 330.1574 684.6359 319.5804 692.3653 325.9876 699.4844 322.7331 702.5354 325.6825 710.9767 325.7842 721.9605 331.4795 725.4183 336.3612 731.0119 340.836 736.5038 349.0739 740.877 353.6505 746.1655 354.8709 749.8267 351.413 743.5212 347.1415 739.4532 342.3616 732.4357 334.2254 725.2149 326.191 707.8239 312.9698Z" />
  <path class="ET" d="M684.6359 319.5804 681.2798 330.1574 666.7364 327.208 665.3126 339.3105 660.736 353.1419 653.5152 360.0577 648.6335 370.838 647.5148 376.635 641.8195 380.4997 638.4634 395.2464 638.5651 396.9754 638.9719 407.9592 637.1412 412.2306 630.6323 412.5357 626.5643 420.5702 634.1919 421.5872 640.5991 428.4012 642.8365 434.0965 648.6335 437.351 656.1595 452.6062 662.6684 455.047 662.7701 462.8781 667.0415 467.5564 675.6862 467.5564 691.6534 479.4555 695.518 479.6589 698.4674 479.2521 701.2133 480.8793 709.5529 481.998 713.1124 476.0993 724.4013 470.2006 729.3847 474.9806 737.9276 474.9806 741.2838 470.5057 749.2165 470.3023 760.0986 460.3355 776.2692 459.7253 810.3392 417.5191 799.864 417.6208 758.8782 400.9417 753.9965 395.8567 749.3182 389.1443 744.4365 381.3133 746.9791 376.3299 744.1314 373.8891 741.1821 374.8044 734.2664 374.601 733.9613 370.3295 732.8425 366.4649 736.8089 359.8543 740.877 353.6505 736.5038 349.0739 731.0119 340.836 725.4183 336.3612 721.9605 331.4795 710.9767 325.7842 702.5354 325.6825 699.4844 322.7331 692.3653 325.9876 684.6359 319.5804Z" />
  <path class="GA" d="M380.6495 498.1686 379.124 497.4567 371.6998 499.2873 364.1739 497.355 358.2752 498.2703 358.3769 515.2545 340.3757 515.0511 336.1042 515.8647 333.6634 526.3399 330.6123 536.6118 327.8664 541.0867 327.5613 545.765 334.9855 560.3083 343.2233 571.9023 355.936 586.1405 365.3943 578.3095 360.716 569.0547 364.9875 565.4951 373.4287 563.7662 374.4457 557.5624 381.0564 564.2747 392.0401 564.8849 395.8031 558.2743 397.4303 548.9177 396.1082 537.9339 390.2095 529.5944 395.5997 513.2204 392.4469 510.4745 383.1921 511.5932 379.7342 504.3724 380.6495 498.1686Z" />
  <path class="GH" d="M218.4353 375.1095 212.74 373.9908 208.7737 376.2282 203.2818 375.2112 181.8227 375.8214 181.5176 383.8559 183.1448 394.4328 186.3993 414.4681 181.2125 426.2655 177.9581 442.1309 183.2465 454.2334 182.738 459.827 193.8235 463.7934 205.0107 459.7253 211.8247 454.9453 231.3515 446.7075 228.5038 441.7241 225.2493 432.7744 224.2323 425.8587 226.9783 413.1459 223.9272 408.0609 222.7068 396.9754 222.7068 386.7035 217.52 379.4827 218.4353 375.1095Z" />
  <path class="GM" d="M10.4554 345.1075 21.6425 345.3109 24.6936 343.3786 26.931 343.2769 31.5076 340.0224 36.7961 342.9718 42.0846 343.2769 47.4748 340.1241 45.0339 336.0561 40.9659 338.3952 37.1012 338.2935 32.3212 334.8356 28.4566 335.039 25.6089 338.3952 12.1843 338.802 10.4554 345.1075Z" />
  <path class="GN" d="M76.053 355.0743 74.2223 355.7862 67.51 354.6675 66.5947 356.2947 63.8487 356.5998 55.0007 353.1419 49.102 353.0402 48.7969 357.8202 47.4748 359.244 48.3901 363.9223 46.4578 365.753 43.7118 365.8547 40.4574 368.1938 36.6944 367.8887 31.1008 374.8044 34.7621 377.0418 36.491 380.1946 37.8131 386.3984 40.8642 389.1443 44.0169 390.975 48.7969 396.4669 54.1871 404.8064 60.7977 398.6026 62.3232 394.7379 64.459 391.6869 67.8151 391.3818 70.7645 388.7375 80.6295 388.7375 83.9857 393.8226 86.6299 399.7213 86.2231 403.7894 88.1555 407.4507 88.0538 412.6374 91.4099 411.8238 94.0542 411.5187 97.3086 409.8915 102.4954 418.5361 101.5801 424.2314 104.0209 427.1808 107.4788 427.2825 110.123 421.5872 113.5809 421.994 115.5132 421.994 116.3268 415.7902 115.4115 413.0442 116.5302 411.1119 121.2085 409.4847 118.1575 398.1958 115.3098 392.3988 116.3268 387.6188 118.8694 386.5001 115.1064 382.432 115.8183 378.2623 114.1911 376.635 111.5468 377.9572 112.1571 373.3806 114.6996 369.821 109.6145 363.9223 108.1907 360.0577 105.4447 356.9049 103.0039 356.5998 100.0546 358.5321 95.9865 360.3628 92.6303 363.4138 87.3418 362.2951 83.9857 358.7355 81.9517 358.3287 78.6972 360.1594 76.6632 360.1594 76.053 355.0743Z" />
  <path class="GQ" d="M358.2752 498.2703 338.0365 497.9652 333.8668 513.7289 336.1042 515.8647 340.3757 515.0511 358.3769 515.2545 358.2752 498.2703Z" />
  <path class="GW" d="M49.102 353.0402 26.3208 352.43 22.9647 354.0573 18.8966 353.5487 12.286 355.8879 12.9979 358.8372 16.7609 361.8883 16.6592 364.024 19.4051 367.9904 24.5919 368.9057 31.1008 374.8044 36.6944 367.8887 40.4574 368.1938 43.7118 365.8547 46.4578 365.753 48.3901 363.9223 47.4748 359.244 48.7969 357.8202 49.102 353.0402Z" />
  <path class="KE" d="M737.9276 474.9806 729.3847 474.9806 724.4013 470.2006 713.1124 476.0993 709.5529 481.998 701.2133 480.8793 698.4674 479.2521 695.518 479.6589 691.6534 479.4555 675.6862 467.5564 667.0415 467.5564 662.7701 462.8781 662.6684 455.047 656.1595 452.6062 647.9216 461.8611 640.3957 470.3023 646.3961 480.0657 647.9216 487.1848 653.5152 503.2537 649.0403 513.5255 643.0399 522.8821 639.4804 528.5774 639.4804 529.2893 642.4297 534.5778 641.6161 545.0531 686.4666 573.7329 687.1785 581.8691 704.7729 595.9039 709.858 591.2256 712.4005 581.8691 716.4686 576.2755 718.4009 566.3087 723.0792 565.2917 726.2319 559.393 734.9783 553.7994 727.6558 542.2054 727.2489 490.9477 737.9276 474.9806Z" />
  <path class="LR" d="M113.5809 421.994 110.123 421.5872 107.4788 427.2825 104.0209 427.1808 101.5801 424.2314 102.4954 418.5361 97.3086 409.8915 94.0542 411.5187 91.4099 411.8238 85.6129 418.4344 80.0193 426.0621 79.3074 430.1301 76.3581 434.605 84.5959 443.6565 95.1729 451.3858 106.3601 462.0645 119.1745 468.7768 122.4289 468.6751 123.4459 457.0811 124.5647 455.3522 124.2596 449.7586 118.9711 443.8599 115.1064 442.9445 111.4451 439.0799 114.1911 432.8761 112.9707 426.0621 113.5809 421.994Z" />
  <path class="LS" d="M552.9322 959.8943 555.4748 955.4194 562.2888 953.182 564.7296 948.6054 568.8994 941.7914 565.0347 937.5199 560.1531 933.2484 554.3561 936.0961 547.4403 941.588 540.4229 950.436 548.5591 961.2164 552.9322 959.8943Z" />
  <path class="LY" d="M516.8281 85.9716 513.6754 81.395 501.7763 79.7678 497.8099 77.3269 493.335 77.3269 488.8602 71.0214 472.6896 68.1738 464.6552 70.0044 456.6207 76.615 453.2646 83.429 456.7224 94.2094 451.3322 100.6166 445.7386 104.2779L432.6191 97.2605 415.6349 91.4635 404.8546 88.7175 398.6508 76.2082L382.6836 70.0044 372.7168 67.6653 367.8351 68.8857 353.8003 64.004 353.4952 74.7844 347.7999 78.8525 344.342 83.3273 336.3076 88.7175 337.8331 94.5145 336.9178 100.4132 331.2225 103.6677 335.3923 116.0753 336.2059 122.5842 334.3753 134.0765 335.3923 140.4837 333.9685 148.213 335.2906 157.0611 330.6123 162.9598 337.9348 173.2316 338.545 179.232 342.9182 187.0631 348.5118 184.5205 358.2752 191.0294 363.7671 199.8775 383.0904 205.9796 390.1078 213.6072 398.549 208.4204 410.6516 200.6911 459.8752 227.642 509.4039 254.593 509.3022 248.6943 523.337 248.6943 522.32 220.5229 520.0826 168.7568 517.1332 118.7195 512.8618 107.3289 515.3026 98.6843 513.0652 92.6839 516.8281 85.9716Z" />
  <path class="MA" d="M192.8065 35.2224 187.7214 35.1207 175.6189 31.968 164.4317 32.8833 157.516 26.8829 148.8714 26.7812 145.0067 35.5275 136.8706 50.2743 128.0225 56.0713 116.0217 62.5802 108.1907 72.0384 106.3601 79.4627 101.4784 91.4635 104.0209 108.9562 93.749 120.6519 87.6469 124.4148 77.8836 133.9748 66.6964 135.602 60.4926 140.9922 60.2892 141.1956 52.2548 155.5355 44.0169 160.7223 39.4403 169.367 38.9318 176.8929 35.474 185.1307 31.4059 187.3682 24.3885 196.3179 19.9136 206.2847 20.6255 210.963 16.4558 218.3872 11.6758 222.1502 10.8622 228.6591 11.0656 228.7608 38.525 227.642 40.1523 222.557 45.2373 216.2515 49.7122 196.8264 66.8998 181.5712 73.0019 163.8751 76.7649 162.7564 81.0363 151.7726 91.2065 150.3487 95.478 152.1794 100.9699 152.1794 104.9362 148.9249 112.3605 148.5181 112.2588 140.8905 112.2588 140.8905 114.0894 140.8905 114.2928 124.3131 133.8195 113.9395 145.8203 111.8038 155.5837 108.0408 160.262 100.9217 174.2968 95.4298 174.907 85.0563 181.721 83.8358 187.2129 78.649 202.6716 76.3099 204.909 70.818 201.7563 67.8687 197.7899 52.9185 197.078 44.3756 192.8065 35.2224Z" />
  <path class="MG" d="M835.2562 720.7936 832.7136 711.5387 829.6626 705.5383 825.6962 699.5379 821.323 705.8434 820.6111 714.2847 813.3903 724.048 808.2035 722.3191 809.5256 728.4212 805.4576 735.4386 794.8806 744.0833 787.4564 752.1177 781.9645 752.3211 777.2862 754.8637 770.2688 757.7113 764.1667 758.3215 761.9292 767.1696 757.1492 775.1023 757.3527 788.0184 759.0816 796.8665 761.5224 803.5788 759.7935 812.5285 753.2846 823.2072 752.9795 827.8855 747.1825 830.3263 744.3348 840.4965 744.7416 850.565 748.1995 861.7522 748.0978 874.2615 750.742 881.6857 759.9969 886.7708 766.6075 890.3303 777.693 884.4316 787.7615 881.0755 794.6772 864.7015 800.881 845.1748 810.3392 818.5289 817.7635 799.1039 823.7639 782.7299 825.3911 770.8308 828.9507 767.5764 830.4762 761.576 828.7472 751.2024 831.3915 747.0326 834.9511 755.2705 837.3919 751.1007 839.1208 744.3884 836.2732 737.7778 835.2562 720.7936Z" />
  <path class="ML" d="M270.3032 260.5934 256.7769 261.9155 256.5735 252.9658 250.9799 250.7283 243.3523 246.6603 240.4029 240.1514 199.3154 209.4374 158.6347 178.7235 140.125 178.9269 145.3118 239.6428 150.8037 300.3588 152.8377 302.1894 150.0918 311.9528 100.7665 312.1562 98.8341 315.3089 94.1559 314.3936 87.1384 317.1395 78.5955 313.2749 74.7308 313.58 72.4934 321.9195 68.3236 324.4621 68.7304 333.2084 71.0696 341.2428 75.6461 345.2092 76.6632 350.5994 76.053 355.0743 76.6632 360.1594 78.6972 360.1594 81.9517 358.3287 83.9857 358.7355 87.3418 362.2951 92.6303 363.4138 95.9865 360.3628 100.0546 358.5321 103.0039 356.5998 105.4447 356.9049 108.1907 360.0577 109.6145 363.9223 114.6996 369.821 112.1571 373.3806 111.5468 377.9572 114.1911 376.635 115.8183 378.2623 115.1064 382.432 118.8694 386.5001 120.4966 385.178 123.8528 387.3137 133.4127 387.4154 135.7519 383.3473 137.8876 383.6525 141.4471 382.0252 143.2778 388.0256 146.2271 386.2967 151.3122 384.161 150.4986 376.0248 153.9565 370.0244 153.6514 365.2444 163.5164 353.6505 165.347 343.9888 168.8049 340.5309 174.7036 342.4633 179.8904 339.6156 181.6193 335.9544 191.1793 329.6488 193.5184 325.2757 205.0107 319.377 211.8247 317.4446 214.8758 320.0889 222.8085 320.0889 230.6395 319.4787 235.2161 314.4953 251.9969 313.2749 262.879 311.0374 263.896 302.3928 270.6083 293.0362 270.3032 260.5934Z" />
  <path class="MR" d="M158.6347 178.7235 113.7843 144.6535 113.2758 165.9091 73.7138 165.1972 73.307 201.1996 61.9164 202.5217 58.7637 209.7425 60.696 230.0829 12.9979 229.9812 10.252 234.6595 16.4558 240.7616 19.5068 247.3722 18.083 254.3896 19.4051 261.407 20.4221 275.3401 18.5915 288.5614 15.0319 295.4771 15.9472 303.1047 20.2187 298.5281 26.3208 299.7485 32.3212 296.6975 39.2369 296.5958 45.0339 300.6639 53.0684 304.4268 60.3909 314.8004 68.3236 324.4621 72.4934 321.9195 74.7308 313.58 78.5955 313.2749 87.1384 317.1395 94.1559 314.3936 98.8341 315.3089 100.7665 312.1562 150.0918 311.9528 152.8377 302.1894 150.8037 300.3588 145.3118 239.6428 140.125 178.9269 158.6347 178.7235Z" />
  <path class="MW" d="M643.7519 727.811 644.057 722.5225 641.311 718.3528 641.7178 712.2507 638.3617 701.8771 642.1246 694.046 641.9212 677.0619 637.7515 668.0104 638.1583 666.4849 638.1583 666.4849 635.8191 662.6202 623.7166 659.976 629.4119 666.2815 632.2596 678.1806 630.0221 682.0452 627.2762 693.4358 629.3102 705.1315 625.2421 710.0132 621.0724 723.031 627.3779 726.6923 634.2936 733.4046 637.6497 732.1842 642.4297 735.7437 642.9382 741.3373 639.9889 747.9479 640.4974 757.813 648.125 766.5594 652.2948 756.796 657.7867 753.7449 657.4816 735.642 652.8033 725.4719 648.5318 720.997 647.8199 720.997 647.9216 722.9293 650.2608 723.4378 652.4982 730.9638 652.0914 732.6927 647.9216 727.3025 645.6842 730.7604 643.7519 727.811Z" />
  <path class="MZ" d="M718.6043 681.5367 716.8754 675.2312 716.8754 675.2312 716.8754 675.2312 706.7052 683.4691 693.0772 688.8593 685.653 688.6559 681.0764 692.9273 672.5334 693.2324 669.1773 695.0631 654.5322 691.0967 649.7523 691.6052 646.3961 704.9281 647.8199 720.997 648.5318 720.997 652.8033 725.4719 657.4816 735.642 657.7867 753.7449 652.2948 756.796 648.125 766.5594 640.4974 757.813 639.9889 747.9479 642.9382 741.3373 642.4297 735.7437 637.6497 732.1842 634.2936 733.4046 627.3779 726.6923 589.6465 738.2863 590.4602 748.3548 591.0704 753.5415 601.2405 753.2364 606.8341 756.2875 609.3767 759.7453 615.1737 760.7624 621.3775 765.2372 620.5639 783.035 617.7162 792.7984 616.6992 803.3754 618.4281 807.5451 616.6992 815.783 614.7669 817.1051 611.1056 827.1736 597.4776 843.1407 602.2576 862.9726 604.8001 873.041 601.749 888.7031 602.461 893.7882 603.7831 900.0937 604.3933 906.2975 613.5464 906.3992 615.072 898.975 612.1226 898.0597 611.5124 892.161 617.106 886.8725 632.1579 879.2448 642.4297 874.5666 647.8199 869.4815 649.9557 863.6845 647.2097 861.2436 649.6506 854.7347 650.7693 840.9033 648.5318 841.6152 648.6335 837.4454 646.7012 829.2076 641.4127 818.5289 643.0399 808.4605 648.2267 805.206 657.2782 795.2392 662.0582 792.6967 676.7032 777.5431 690.9414 770.7291 702.4337 765.3389 710.6716 756.6943 715.9601 746.9309 720.1298 736.8625 718.2992 729.9467 718.706 707.9792 717.689 695.5716 718.6043 681.5367Z" />
  <path class="NA" d="M502.7933 776.6278 480.0121 782.4248 450.4169 780.3908 442.0774 773.6785 392.4469 774.2887 390.5146 775.3057 383.2938 768.8985 375.3611 768.4917 368.0385 770.8308 362.0381 773.5768 362.6483 784.3572 372.31 798.0869 374.8526 806.9349 380.9547 823.8174 386.9551 835.4114 391.6333 841.2084 392.9555 848.9377 392.8538 865.7185 396.3116 887.381 398.9559 897.6529 401.1933 911.2809 405.5665 921.5528 414.0077 932.2314 420.1098 925.3157 424.6864 929.0787 426.4153 935.1808 431.7038 936.1978 439.128 938.842 445.6369 937.825 456.6207 930.6042 458.8582 878.6346 460.282 837.5471 472.2828 837.0386 474.2151 786.8997 483.3683 786.4929 502.3865 781.5095 506.8614 787.3065 514.8958 781.8146 518.5571 781.8146 525.5745 778.6619 525.5745 777.4414 520.7945 774.2887 512.8618 773.4751 502.7933 776.6278Z" />
  <path class="NE" d="M383.0904 205.9796 363.7671 199.8775 322.5779 226.7267 287.4908 254.2879 270.3032 260.5934 270.6083 293.0362 263.896 302.3928 262.879 311.0374 251.9969 313.2749 235.2161 314.4953 230.6395 319.4787 222.8085 320.0889 221.7915 326.9029 223.4187 333.3101 230.4361 342.4633 230.8429 349.2773 245.0812 352.43 244.7761 362.0917 248.9458 358.0236 253.319 357.9219 262.7773 366.0581 263.5909 353.447 267.1505 347.8535 268.7777 339.7173 272.0321 336.6663 285.2534 335.039 297.661 340.2258 302.3392 345.616 308.543 345.8194 314.4417 342.3616 329.3919 349.5824 335.6974 349.2773 342.9182 343.2769 350.139 343.6837 353.6986 341.7514 360.3092 342.565 369.8692 346.633 379.4291 338.802 382.3785 339.4122 390.9214 354.7692 393.1589 354.4641 393.5657 349.9892 397.0235 349.1756 398.1422 342.565 390.2095 342.2599 390.1078 333.2084 384.921 327.9199 389.9044 309.4102 405.3631 296.189 405.5665 277.8827 409.6345 249.3045 412.1771 243.2024 406.9903 238.4224 406.6852 233.9475 402.0069 230.2863 398.549 208.4204 390.1078 213.6072 383.0904 205.9796Z" />
  <path class="NG" d="M393.1589 354.4641 390.9214 354.7692 382.3785 339.4122 379.4291 338.802 369.8692 346.633 360.3092 342.565 353.6986 341.7514 350.139 343.6837 342.9182 343.2769 335.6974 349.2773 329.3919 349.5824 314.4417 342.3616 308.543 345.8194 302.3392 345.616 297.661 340.2258 285.2534 335.039 272.0321 336.6663 268.7777 339.7173 267.1505 347.8535 263.5909 353.447 262.7773 366.0581 262.2688 370.7363 265.1164 379.0759 262.6756 384.7712 263.9977 388.5341 257.9973 397.1788 254.2343 401.552 251.8952 410.4 252.2003 419.3497 251.5901 442.0292 262.4722 442.0292 271.8287 441.9275 280.5751 451.1824 284.7448 461.3526 291.3555 470.0989 301.3222 470.404 306.1022 467.2513 310.7805 468.0649 323.6966 462.9798 326.8493 453.013 332.6463 439.385 336.3076 439.2833 343.6301 431.0454 348.3084 430.842 355.3258 436.639 363.7671 431.8591 364.8858 426.0621 367.6317 420.3668 369.5641 413.2476 376.073 407.4507 378.5138 397.5856 381.1581 394.4328 382.7853 387.1103 385.938 378.1606 396.3116 367.2785 396.8201 362.6002 398.1422 360.0577 393.1589 354.4641Z" />
  <path class="RW" d="M596.2572 546.0701 588.7312 550.4432 585.7819 549.0194 582.2223 552.8841 581.7138 561.3253 579.9849 562.3423 578.7645 570.0717 586.2904 571.1904 590.1551 563.156 596.7657 564.0713 596.7657 564.0713 600.3252 562.2406 601.1388 554.0028 596.2572 546.0701Z" />
  <path class="SD" d="M669.5841 300.8673 670.296 291.5107 673.9573 287.2392 682.907 284.9001 688.704 276.8657 681.6866 271.6789 676.8049 268.221 671.4147 251.4402 668.8722 236.8969 671.4147 234.3544 666.6347 220.5229 618.4281 220.5229 571.2385 220.5229 522.32 220.5229 523.337 248.6943 509.3022 248.6943 509.4039 254.593 511.8447 310.4272 501.1661 309.5119 495.8776 319.8855 492.8265 328.5301 495.4708 331.7846 491.6061 336.1578 493.1316 341.9548 490.0806 347.8535 488.8602 352.9385 493.2333 352.1249 495.8776 357.6168 496.1827 365.753 500.861 369.9227 500.7593 373.3806 502.2848 379.381 509.6073 388.1273 509.709 393.9243 507.7767 399.7213 508.692 404.0945 512.9635 408.1626 513.9805 408.8745 517.8451 407.2472 522.0149 404.603 524.9643 392.0937 528.2187 385.5848 537.1685 383.6525 539.3042 387.5171 545.9148 395.6533 549.271 396.8737 553.7458 394.5345 562.5939 394.9413 564.4245 397.8907 576.7304 397.8907 577.0355 394.9413 583.4427 392.2971 584.5615 388.229 589.2397 385.2797 599.8167 393.5175 606.1222 392.0937 612.0209 381.9235 618.6315 374.1942 617.3094 365.753 614.2584 361.6849 621.6826 360.8713 622.3945 357.8202 628.1915 358.7355 626.9711 369.1091 628.7 379.2793 635.3106 384.8729 636.8361 389.6529 636.8361 396.6703 638.5651 396.9754 638.4634 395.2464 641.8195 380.4997 647.5148 376.635 648.6335 370.838 653.5152 360.0577 660.736 353.1419 665.3126 339.3105 666.7364 327.208 665.2109 321.5127 669.5841 300.8673Z" />
  <path class="SL" d="M91.4099 411.8238 88.0538 412.6374 88.1555 407.4507 86.2231 403.7894 86.6299 399.7213 83.9857 393.8226 80.6295 388.7375 70.7645 388.7375 67.8151 391.3818 64.459 391.6869 62.3232 394.7379 60.7977 398.6026 54.1871 404.8064 55.6109 415.2817 57.7466 420.3668 64.1539 427.8927 73.0019 433.588 76.3581 434.605 79.3074 430.1301 80.0193 426.0621 85.6129 418.4344 91.4099 411.8238Z" />
  <path class="SN" d="M68.3236 324.4621 60.3909 314.8004 53.0684 304.4268 45.0339 300.6639 39.2369 296.5958 32.3212 296.6975 26.3208 299.7485 20.2187 298.5281 15.9472 303.1047 12.8962 310.3255 6.6924 320.1906 1.2005 322.8348 7.3026 327.8182 12.1843 338.802 25.6089 338.3952 28.4566 335.039 32.3212 334.8356 37.1012 338.2935 40.9659 338.3952 45.0339 336.0561 47.4748 340.1241 42.0846 343.2769 36.7961 342.9718 31.5076 340.0224 26.931 343.2769 24.6936 343.3786 21.6425 345.3109 10.4554 345.1075 12.286 355.8879 18.8966 353.5487 22.9647 354.0573 26.3208 352.43 49.102 353.0402 55.0007 353.1419 63.8487 356.5998 66.5947 356.2947 67.51 354.6675 74.2223 355.7862 76.053 355.0743 76.6632 350.5994 75.6461 345.2092 71.0696 341.2428 68.7304 333.2084 68.3236 324.4621Z" />
  <path class="SO" d="M763.7599 383.1439 757.9629 377.2452 755.4203 371.4482 751.2506 368.804 746.9791 376.3299 744.4365 381.3133 749.3182 389.1443 753.9965 395.8567 758.8782 400.9417 799.864 417.6208 810.3392 417.5191 776.2692 459.7253 760.0986 460.3355 749.2165 470.3023 741.2838 470.5057 737.9276 474.9806 727.2489 490.9477 727.6558 542.2054 734.9783 553.7994 737.7242 550.4432 740.6736 543.019 754.3016 526.0348 765.8956 515.2545 784.3036 501.3213 796.6095 489.9307 810.9494 470.7091 821.2213 454.9453 831.3915 434.4016 838.5106 416.4004 844.0025 400.6366 846.9519 385.4831 849.3927 380.398 848.9859 372.9738 849.7995 364.8376 849.291 360.8713 844.6127 360.973 839.0191 365.753 832.5102 367.1768 826.9166 369.3125 822.9503 369.5159 822.9503 369.5159 815.9328 370.0244 811.6614 372.6687 805.5593 373.584 794.8806 377.9572 781.456 379.5844 769.9637 383.1439 763.7599 383.1439Z" />
  <path class="SS" d="M636.8361 389.6529 635.3106 384.8729 628.7 379.2793 626.9711 369.1091 628.1915 358.7355 622.3945 357.8202 621.6826 360.8713 614.2584 361.6849 617.3094 365.753 618.6315 374.1942 612.0209 381.9235 606.1222 392.0937 599.8167 393.5175 589.2397 385.2797 584.5615 388.229 583.4427 392.2971 577.0355 394.9413 576.7304 397.8907 564.4245 397.8907 562.5939 394.9413 553.7458 394.5345 549.271 396.8737 545.9148 395.6533 539.3042 387.5171 537.1685 383.6525 528.2187 385.5848 524.9643 392.0937 522.0149 404.603 517.8451 407.2472 513.9805 408.8745 522.5234 414.3664 529.4391 419.96 529.5408 424.5365 537.9821 431.8591 543.2706 437.9612 546.525 446.4024 555.8816 451.996 557.9156 456.4709 565.5432 468.0649 571.1368 469.7938 574.3913 467.4547 580.1883 468.37 587.104 465.4206 590.0534 471.421 601.1388 480.7776 601.1388 480.7776 606.2239 476.9129 614.1567 480.0657 624.1234 476.7095 632.8698 476.8112 640.3957 470.3023 647.9216 461.8611 656.1595 452.6062 648.6335 437.351 642.8365 434.0965 640.5991 428.4012 634.1919 421.5872 626.5643 420.5702 630.6323 412.5357 637.1412 412.2306 638.9719 407.9592 638.5651 396.9754 636.8361 396.6703 636.8361 389.6529Z" />
  <path class="SZ" d="M602.461 893.7882 596.5623 891.1439 593.0027 892.161 591.5789 896.229 587.9176 901.5175 587.7142 906.3992 594.4265 914.0268 601.5456 912.5013 604.3933 906.2975 603.7831 900.0937 602.461 893.7882Z" />
  <path class="TD" d="M509.4039 254.593 459.8752 227.642 410.6516 200.6911 398.549 208.4204 402.0069 230.2863 406.6852 233.9475 406.9903 238.4224 412.1771 243.2024 409.6345 249.3045 405.5665 277.8827 405.3631 296.189 389.9044 309.4102 384.921 327.9199 390.1078 333.2084 390.2095 342.2599 398.1422 342.565 397.0235 349.1756 402.0069 358.227 403.0239 367.4819 402.6171 376.8384 409.5328 389.6529 402.6171 389.5512 399.1593 390.4665 393.464 389.1443 390.9214 395.755 398.2439 403.9928 403.6341 406.3319 405.4648 412.1289 409.4311 421.8923 407.6005 425.6553 417.7707 424.6382 420.0081 420.977 422.1438 421.2821 425.1949 424.4348 440.7553 419.0446 445.942 413.5528 452.3492 408.6711 451.1288 403.6877 454.5867 402.4673 466.5875 403.2809 478.0798 396.772 486.8261 381.415 492.9282 375.7197 500.7593 373.3806 500.861 369.9227 496.1827 365.753 495.8776 357.6168 493.2333 352.1249 488.8602 352.9385 490.0806 347.8535 493.1316 341.9548 491.6061 336.1578 495.4708 331.7846 492.8265 328.5301 495.8776 319.8855 501.1661 309.5119 511.8447 310.4272 509.4039 254.593Z" />
  <path class="TG" d="M229.3174 375.4146 218.4353 375.1095 217.52 379.4827 222.7068 386.7035 222.7068 396.9754 223.9272 408.0609 226.9783 413.1459 224.2323 425.8587 225.2493 432.7744 228.5038 441.7241 231.3515 446.7075 241.3182 443.6565 238.2672 433.9948 238.7757 401.6537 236.2331 398.806 235.8263 391.8903 231.4532 386.9069 227.6902 382.7371 229.3174 375.4146Z" />
  <path class="TN" d="M353.8003 64.004 349.2237 61.7666 345.9693 55.0543 339.8672 54.8509 337.4263 47.1215 344.8506 40.0024 345.9693 27.6965 341.7995 24.1369 341.5961 17.5263 347.1897 10.4072 346.2744 7.6613 336.6127 12.9497 336.7144 5.7289 328.4766 4 316.069 9.797 313.8315 17.1195 316.1707 30.7475 313.7298 42.5449 306.6107 50.4777 307.9328 61.0547 317.7979 69.4959 318.0013 72.8521 325.4255 78.5473 331.2225 103.6677 336.9178 100.4132 337.8331 94.5145 336.3076 88.7175 344.342 83.3273 347.7999 78.8525 353.4952 74.7844 353.8003 64.004Z" />
  <path class="TZ" d="M600.6303 544.3411 596.2572 546.0701 601.1388 554.0028 600.3252 562.2406 596.7657 564.0713 596.7657 564.0713 597.3759 569.5632 600.0201 572.8176 600.1218 577.3942 597.0708 580.3435 592.0874 587.6661 587.5108 592.7512 586.2904 592.9546 585.5785 598.955 587.9176 600.989 587.4091 606.9894 589.7482 612.583 586.7989 617.9732 596.664 627.5331 597.4776 636.1778 603.478 650.6194 603.478 650.6194 604.0882 651.0262 608.9699 653.3654 616.8009 655.8062 623.7166 659.976 635.8191 662.6202 638.1583 666.4849 638.1583 666.4849 638.9719 663.7389 645.2774 671.2649 645.8876 686.0116 649.854 691.4018 649.7523 691.6052 654.5322 691.0967 669.1773 695.0631 672.5334 693.2324 681.0764 692.9273 685.653 688.6559 693.0772 688.8593 706.7052 683.4691 716.8754 675.2312 716.8754 675.2312 712.4005 672.1802 707.6205 658.3487 703.5525 649.5007 704.5695 642.7884 703.9593 638.5169 707.5188 629.974 707.2137 626.3127 699.3827 621.2276 698.7725 613.2949 704.7729 595.9039 687.1785 581.8691 686.4666 573.7329 641.6161 545.0531 641.6161 545.0531 635.514 551.2569 631.3442 557.6641 636.2259 562.444 629.1068 565.9019 627.5813 564.2747 620.3605 565.19 614.7669 568.3427 611.4107 562.8509 613.7498 552.9858 614.2584 544.5445 614.2584 544.5445 614.2584 544.5445 600.6303 544.3411Z" />
  <path class="UG" d="M640.3957 470.3023 632.8698 476.8112 624.1234 476.7095 614.1567 480.0657 606.2239 476.9129 601.1388 480.7776 601.1388 480.7776 600.5286 497.1516 605.512 499.0839 601.5456 504.0673 596.7657 507.8302 592.0874 515.1528 589.4431 521.6617 588.8329 532.9506 585.8836 538.3407 585.7819 549.0194 588.7312 550.4432 596.2572 546.0701 600.6303 544.3411 614.2584 544.5445 614.2584 544.5445 613.5464 539.1544 619.3434 530.9165 627.1745 528.8825 632.463 525.5263 638.8702 528.2723 639.4804 529.2893 639.4804 528.5774 643.0399 522.8821 649.0403 513.5255 653.5152 503.2537 647.9216 487.1848 646.3961 480.0657 640.3957 470.3023Z" />
  <path class="ZA" d="M448.1795 1020 453.5697 1019.6949 461.1973 1014.3047 471.3675 1012.0673 483.8768 1006.4737 488.6568 1007.1856 495.9793 1005.4567 508.4886 1008.2026 514.489 1005.5584 521.5064 1007.5924 523.337 1003.7277 529.4391 1002.9141 542.2536 997.5239 551.7118 991.1167 560.7633 982.6755 575.4083 968.2338 583.0359 958.1654 587.0023 950.9445 592.5959 943.8254 595.1384 941.7914 603.8848 934.6723 607.4443 928.3668 609.7835 916.6711 613.5464 906.3992 604.3933 906.2975 601.5456 912.5013 594.4265 914.0268 587.7142 906.3992 587.9176 901.5175 591.5789 896.229 593.0027 892.161 596.5623 891.1439 602.461 893.7882 601.749 888.7031 604.8001 873.041 602.2576 862.9726 597.4776 843.1407 591.0704 841.8186 586.9006 843.4458 581.1036 841.1067 576.1202 840.9033 558.5258 851.2769 547.1352 861.7522 542.6604 871.2104 538.694 876.4989 532.0834 877.6176 529.6425 884.3299 528.2187 888.7031 520.286 891.9576 510.5226 891.3473 504.929 887.381 499.9456 885.6521 493.8435 888.9065 490.5891 895.6188 484.6904 899.8903 478.3849 906.1958 469.7402 907.6196 467.1977 902.6362 468.7232 894.0933 462.1126 880.6687 458.8582 878.6346 456.6207 930.6042 445.6369 937.825 439.128 938.842 431.7038 936.1978 426.4153 935.1808 424.6864 929.0787 420.1098 925.3157 414.0077 932.2314 421.8387 950.436 421.8387 950.5377 427.3306 962.4368 434.348 975.4547 434.1446 986.235 430.1783 988.7776 433.4327 998.2358 432.9242 1006.4737 434.2463 1010.3383 434.9583 1008.406 439.6365 1014.7115 443.5012 1014.9149 448.1795 1020ZM552.9322 959.8943 548.5591 961.2164 540.4229 950.436 547.4403 941.588 554.3561 936.0961 560.1531 933.2484 565.0347 937.5199 568.8994 941.7914 564.7296 948.6054 562.2888 953.182 555.4748 955.4194 552.9322 959.8943Z" />
  <path class="ZM" d="M599.715 650.8228 595.5452 649.7041 596.2572 646.6531 594.1214 646.0428 577.4423 648.382 574.0862 650.1109 570.4249 659.0607 573.0692 665.2645 570.5266 681.9435 568.5943 696.0801 571.8487 698.5209 580.3917 704.0128 583.8495 701.4703 584.4598 716.6238 575.0015 716.5221 570.1198 708.7928 565.7466 702.7924 556.3901 700.8601 553.7458 693.4358 546.1182 697.9107 536.2532 695.8767 532.2868 689.5712 524.4558 688.249 518.6588 688.5542 518.0485 684.181 513.7771 683.8759 514.9975 688.249 513.472 695.0631 515.506 701.6737 513.472 706.9622 514.489 711.7421 488.7585 711.6404 487.1312 756.3892 495.064 767.8815 502.7933 776.6278 512.8618 773.4751 520.7945 774.2887 525.5745 777.4414 525.5745 778.6619 527.8119 779.6789 541.4399 781.2044 545.3046 782.8316 549.4744 782.5265 556.5935 773.3734 567.679 761.7794 572.1539 760.7624 573.8828 755.8807 581.0019 750.2871 590.4602 748.3548 589.6465 738.2863 627.3779 726.6923 621.0724 723.031 625.2421 710.0132 629.3102 705.1315 627.2762 693.4358 630.0221 682.0452 632.2596 678.1806 629.4119 666.2815 623.7166 659.976 616.8009 655.8062 608.9699 653.3654 604.0882 651.0262 603.478 650.6194 603.478 650.6194 604.3933 652.9586 602.3593 653.7722 599.715 650.8228Z" />
  <path class="ZW" d="M597.4776 843.1407 611.1056 827.1736 614.7669 817.1051 616.6992 815.783 618.4281 807.5451 616.6992 803.3754 617.7162 792.7984 620.5639 783.035 621.3775 765.2372 615.1737 760.7624 609.3767 759.7453 606.8341 756.2875 601.2405 753.2364 591.0704 753.5415 590.4602 748.3548 581.0019 750.2871 573.8828 755.8807 572.1539 760.7624 567.679 761.7794 556.5935 773.3734 549.4744 782.5265 545.3046 782.8316 541.4399 781.2044 527.8119 779.6789 532.0834 790.9678 534.4225 793.4086 537.9821 801.5447 551.2033 817.0034 556.3901 818.5289 556.1867 823.5123 559.3394 832.4621 568.696 834.5978 576.1202 840.9033 581.1036 841.1067 586.9006 843.4458 591.0704 841.8186 597.4776 843.1407Z" />
</svg>