<?xml version="1.0" encoding="utf-8"?>
<svg xmlns="http://www.w3.org/2000/svg" viewBox="0 0 1021 928" style="stroke-width:0.25px;stroke-linejoin:round;stroke:#444;fill:#ddd" fill-rule="evenodd">
  <path class="AI" d="M852.0257 702.9109L899.305 695.6458 922.218 696.8752 921.6592 710.8466 881.3098 779.8095 865.8854 800.04 843.6429 814.6821 790.8869 830.6653 666.0385 908.7934 660.2264 899.8517 646.5903 890.0158 637.0898 879.7329 590.593 914.7173 562.9855 923.8825 528.0011 923.3237 580.0865 862.1848 595.6227 849.5547 618.9828 841.0601 670.6211 831.6713 693.646 820.4942 730.0834 780.5919 755.679 742.7014 789.7692 714.1998 852.0257 702.9109ZM2.6766 22.1127L1 4.1175 11.5065 6.8 2.6766 22.1127ZM951.3903 668.0383L966.5912 662.2262 972.6268 651.3844 1000.6814 657.1965 1017 667.3677 1004.2581 672.5091 978.1036 680.2213 973.2975 687.2629 954.4081 700.1166 947.7019 693.075 955.6376 682.7921 951.3903 668.0383ZM357.9971 703.0227L338.8843 696.0928 336.5371 683.798 354.8675 673.5151 370.9626 681.2273 390.299 681.6744 357.9971 703.0227ZM494.358 713.5292L504.5292 716.7705 496.2581 719.6766 489.3283 719.2295 483.8515 714.7586 478.8218 711.8526 483.0691 711.0702 490.446 712.635 494.358 713.5292ZM515.0356 720.9061L518.8359 720.9061 521.1831 718.7824 525.5421 719.2295 526.9952 726.6064 520.8477 727.3888 515.371 726.1593 515.0356 720.9061Z" />
</svg>