<?xml version="1.0" encoding="utf-8"?>
<svg xmlns="http://www.w3.org/2000/svg" viewBox="0 0 1020 1024" style="stroke-width:0.25px;stroke-linejoin:round;stroke:#444;fill:#ddd" fill-rule="evenodd">
  <path class="AM" d="M503.0232 4L514.871 29.2603 511.6296 38.202 513.4179 43.4552 518.8947 45.8024 539.9077 45.9142 545.3845 47.5908 562.1502 60.8915 566.2857 66.9272 566.621 73.6334 555.6674 81.681 524.0362 80.3397 520.5713 94.0876 524.7068 101.1292 531.6366 105.8235 537.784 106.4942 539.7959 101.4645 540.6901 93.6405 546.0551 96.5465 556.4498 107.5001 563.0443 111.5239 567.9623 116.8889 573.2155 121.3597 588.3046 123.1481 602.3878 128.9602 609.6529 130.0779 624.6303 122.5892 627.6481 121.1362 636.478 120.1303 638.4899 130.1897 635.6956 143.9375 639.6076 148.1848 644.0784 149.4143 647.3198 150.1967 655.8144 157.2383 669.4505 174.8981 674.592 180.1514 681.0747 182.275 688.6751 182.7221 694.1519 185.7399 694.8226 195.1287 688.7869 212.565 680.2923 222.1773 655.4791 234.1369 642.5136 240.396 629.9953 250.7908 621.9477 264.9857 621.9477 275.1569 621.9477 282.9809 626.5304 292.705 632.6778 298.8524 639.1605 303.9938 644.7491 310.9237 645.9785 315.171 646.6492 324.448 648.214 328.9188 651.12 332.2719 657.7145 336.7428 660.5088 341.549 670.7917 363.7914 689.7928 381.563 764.456 423.9243 764.6795 424.2596 778.3156 439.3487 784.6866 439.684 786.922 439.0134 791.3928 437.6722 798.4344 437.2251 803.1288 439.684 807.7114 444.2667 815.9825 455.1085 816.5414 457.5674 816.7649 460.0264 816.5414 462.4854 810.7293 489.4222 806.8173 499.7052 800.6699 507.9762 793.6283 514.2354 792.3988 517.365 788.5986 536.5897 786.4749 541.0605 782.1158 544.749 759.7616 546.8726 707.1174 538.1545 686.8868 551.3435 687.3339 555.479 687.8927 561.2911 698.0639 565.8737 731.4835 569.3386 740.2017 573.5859 747.1315 581.2981 761.4382 610.9175 763.8971 615.9472 778.3156 630.3657 785.1337 633.9424 795.7519 639.3074 815.9825 645.4548 824.7007 653.9494 837.1073 679.0979 847.1667 687.2572 859.238 690.7221 864.8265 693.8517 869.4091 699.552 876.8978 713.8587 881.5922 718.3296 888.7455 720.565 899.8109 718.2178 921.718 707.0407 932.6716 707.8231 937.2542 711.5116 944.7429 721.7945 949.5491 725.2594 955.92 726.3771 976.1506 724.3652 981.2921 725.5947 986.6571 729.0596 990.5691 734.4246 991.4633 741.2427 988.669 746.4959 983.9746 749.402 980.1744 752.8669 980.0626 759.6849 982.298 764.1558 982.1862 767.956 980.0626 770.9738 976.1506 772.8739 976.0388 772.9857 952.5669 777.3448 942.3957 783.604 938.1484 794.334 942.6193 807.2994 953.1257 815.4587 976.1506 825.8535 981.2921 830.1008 983.6393 836.0246 985.3158 842.6191 988.4454 848.7666 996.1576 856.9259 1009.7937 866.5382 1011.9174 868.5501 1014.1528 871.009 1014.4881 872.1267 1015.6058 874.921 1012.8116 876.374 1006.1053 876.5976 991.2397 887.2158 987.3277 887.7747 967.8795 877.9388 956.5906 876.4858 949.2138 883.4156 949.5491 896.0458 957.7084 904.2051 968.4384 910.3525 976.1506 916.6117 980.1744 930.136 981.9627 941.8719 981.0685 953.3844 976.8212 966.4616 976.5977 967.8029 976.1506 968.9206 975.0329 973.9503 974.474 979.0917 974.8094 984.1215 976.1506 988.9276 987.216 1012.3996 981.5156 1010.8348 948.096 995.8574 943.737 994.9633 940.3838 995.4103 932.5598 997.8693 920.1532 998.4282 915.9059 999.4341 909.7585 1002.4519 893.1046 1014.5232 887.4043 1017.2057 866.1678 1020 847.502 984.345 830.7363 937.6246 824.2536 924.5474 815.9825 912.5879 809.1645 901.4108 806.2584 890.569 808.2703 880.0625 815.9825 869.7795 818.1062 866.9853 818.7768 864.0792 817.9944 860.9496 815.9825 857.7083 809.388 851.4491 791.1693 842.3956 786.4749 840.1602 778.7627 834.2363 772.7271 827.53 766.1326 822.165 747.9139 817.4706 747.1315 815.4587 745.2314 811.2114 747.355 802.9404 758.085 785.1688 759.5381 778.5743 756.632 759.6849 756.632 759.5732 757.638 749.0667 757.638 742.0251 754.7319 736.7718 747.4668 731.5186 738.6369 728.1655 731.1482 728.2772 729.3598 728.7243 690.1282 738.2249 681.5218 741.8015 655.8144 758.2319 652.3495 759.6849 648.7728 761.585 645.1961 762.2557 641.5077 761.6968 638.1546 759.6849 638.0428 759.6849 627.9834 749.2902 622.3948 746.3842 607.1939 744.9311 602.4996 743.031 599.2582 738.3366 595.458 729.7303 587.5222 718.4414 585.5103 715.6471 577.0157 718.5531 567.8505 727.0477 556.0028 729.842 549.7436 725.8183 548.5141 719.7826 551.6437 704.8053 552.2025 695.0812 550.8613 687.369 547.5081 680.4392 526.2716 653.167 523.9244 650.1492 512.9708 644.6724 501.0113 648.8079 489.1636 657.8614 487.2635 658.9791 478.8806 663.6735 468.0388 666.2442 453.9557 666.0207 439.0901 668.815 430.0366 672.8387 425.1187 664.3441 405.447 638.4132 403.6586 635.1718 402.0938 633.8306 400.529 633.4953 396.9524 634.0541 395.3876 633.8306 389.4637 630.1421 377.8395 616.7296 373.5922 619.3003 372.3627 616.9531 372.2509 612.2587 371.245 608.1232 366.4388 604.6583 363.7563 601.864 362.5268 598.1756 361.0738 591.8046 357.3854 585.769 349.2261 576.6037 330.6721 560.3969 303.9587 544.6372 286.2989 534.2425 274.5629 530.6658 263.7211 530.6658 244.3847 535.919 235.2195 537.0367 228.625 538.9369 225.3836 539.4957 222.5893 538.4898 218.5656 534.5778 215.436 533.6836 208.6179 535.5837 197.4408 543.4077 192.2993 545.196 153.7383 538.6015 118.7539 519.1534 89.4699 510.7705 74.7161 502.723 70.5805 490.5399 75.0514 486.4044 89.5816 483.2748 92.7112 477.9098 90.5876 473.1036 80.6399 460.8088 77.175 453.4319 83.0989 448.8493 82.7636 448.0669 78.181 437.3369 63.8743 418.6711 55.2679 410.5118 51.9147 403.9173 54.1502 397.0992 56.8327 392.4048 61.6388 376.3098 61.9741 375.4156 61.9741 372.5096 49.0087 361.4442 42.1906 353.732 40.8494 348.2552 51.803 335.178 58.7328 330.3718 66.3332 329.3659 65.4391 326.3481 64.8802 325.1186 63.8743 323.442 65.8861 324.1127 67.2274 324.448 68.6804 325.0068 70.5805 326.5716 70.2452 316.4004 74.6043 307.6823 88.1286 291.699 85.6696 282.1985 87.6815 279.516 94.276 267.6682 95.282 264.2033 93.6054 234.9193 92.4877 227.9894 89.4699 220.0537 76.1691 198.7054 72.9277 190.2108 71.1394 180.5985 70.4688 172.1039 69.0157 164.0563 65.4391 155.6735 55.3796 143.0433 42.7495 132.5369 29.0017 125.607 15.2538 123.5952 9.1064 117.7831 3.9649 105.7118 1.3942 92.1875 2.7354 82.2398 5.865 83.0222 9.1064 83.134 12.236 82.3516 29.5605 75.31 43.0848 74.7512 95.3937 82.1281 103.2177 81.5692 109.4769 78.8867 124.3425 65.6977 138.0903 59.8856 167.8215 59.3267 174.863 57.5384 174.9748 57.5384 182.3517 55.7501 195.2054 49.938 201.5763 49.2673 215.1007 53.0675 221.9187 51.8381 228.1779 48.3732 233.2076 43.3435 234.8842 39.2079 235.1077 35.6312 235.8901 32.3899 239.6903 29.7074 243.1552 29.7074 251.7616 33.284 267.2978 44.1259 273.2217 46.3613 280.7103 45.1318 283.7282 43.1199 286.0754 40.4374 288.6461 38.0902 292.4463 36.8607 296.3583 37.3078 313.4593 47.7025 320.5009 50.2733 327.6542 50.8321 335.4782 48.4849 341.9609 41.3316 343.9728 39.655 347.4377 39.5432 349.1143 42.7846 350.232 47.1437 352.0204 50.385 358.6149 52.2851 363.3092 48.0378 367.2212 41.3316 371.3568 35.743 378.2866 32.6134 384.7693 33.5076 398.1818 38.8726 445.1257 39.8785 453.5086 38.6491 456.6382 34.29 455.4087 32.5017 453.285 29.3721 441.2138 23.56 438.643 17.5243 444.7904 11.2651 475.751 16.1831 487.9341 15.736 491.8461 13.0535 499.1112 6.459 503.0232 4ZM495.6463 92.6345L490.7284 96.2112 489.7224 102.0233 491.7343 108.5061 495.6463 113.6475 507.2705 117.6713 511.8531 107.8354 508.2765 95.6524 495.6463 92.6345ZM569.5271 141.0315L572.8802 136.3371 563.715 128.4013 562.3737 128.1778 561.1442 128.4013 560.0265 129.0719 559.0206 130.0779 562.1502 139.9138 569.5271 141.0315ZM666.768 295.9463L655.8144 292.5932 653.9143 288.5694 653.2437 284.2103 653.9143 279.7395 655.8144 275.604 659.8382 272.6979 664.1972 271.3567 668.8916 271.2449 673.586 271.9155 681.8571 276.6099 677.498 287.6752 666.768 295.9463Z" />
</svg>