<?xml version="1.0" encoding="utf-8"?>
<svg xmlns="http://www.w3.org/2000/svg" viewBox="0 0 1021 529" style="stroke-width:0.25px;stroke-linejoin:round;stroke:#444;fill:#ddd" fill-rule="evenodd">
  <path class="AT" d="M989.9514 86.0573L991.1809 95.4461 990.5102 98.0168 990.1749 99.0228 988.0513 101.37 985.8158 103.1583 984.8099 105.0584 984.1393 107.7409 980.6744 112.7706 979.3331 115.4531 978.7743 118.3592 977.5448 129.0892 977.2095 130.3187 976.8741 130.8776 976.6506 131.7717 976.5388 134.0072 976.9859 135.2366 977.9919 135.9073 980.6744 136.1308 981.4568 136.5779 982.9098 137.6956 984.251 139.2604 984.8099 140.8252 984.4746 141.7194 984.0275 142.9488 983.804 143.9548 984.3628 144.2901 984.6981 144.7372 985.1452 145.7431 985.5923 146.8608 985.7041 147.8668 986.1512 148.9845 987.1571 149.6551 988.3866 150.214 989.8396 151.5552 990.7338 151.8905 991.1809 152.5612 991.2926 153.4553 991.1809 155.6908 991.1809 156.6967 993.3045 163.8501 993.9751 167.4267 993.9751 171.7858 994.8693 174.9154 998.2224 178.6039 1000.1226 179.7216 1002.2462 180.0569 1003.5875 180.951 1005.5993 184.6395 1006.27 185.7572 1007.9465 187.6573 1006.6053 189.3339 1005.9347 191.3458 1005.1523 195.0342 1005.7111 195.3695 1007.2759 196.7108 1006.6053 199.9521 1009.6231 201.6287 1013.9822 203.1935 1017 205.9878 1008.7289 213.0294 1010.0702 214.5942 1010.0702 215.8237 1009.3996 217.1649 1009.0642 218.8415 1008.7289 219.1768 1007.4994 219.9592 1007.1641 220.518 1007.2759 221.4122 1007.9465 221.8593 1008.6172 222.0828 1008.9525 222.4182 1008.3936 225.9948 1007.6112 228.5656 1006.27 230.5774 1004.1463 232.3658 999.4519 233.3717 997.7754 234.2659 997.8871 236.3895 998.6695 237.2837 1001.4638 238.625 1002.5815 239.4074 1003.811 243.0958 1004.7052 244.3253 1002.6933 246.5607 1002.9168 250.0256 1003.811 254.0494 1004.0345 260.5321 1004.7052 262.4322 1005.8229 263.997 1007.2759 264.8912 1004.5934 266.2325 994.8693 267.5737 984.3628 270.1444 979.2213 269.2503 977.3212 264.1088 975.5329 265.5618 972.9622 269.6974 971.5091 271.1504 970.2796 271.4857 962.791 270.2562 961.338 269.362 959.8849 267.909 958.879 265.7854 958.3201 263.7735 957.6495 261.9851 955.9729 260.7557 945.3547 256.6201 939.7661 255.8377 934.8482 258.0732 934.0658 259.9733 934.2893 262.6558 933.5069 264.3323 932.3892 265.4501 927.136 268.2443 925.4594 269.6974 924.5652 270.2562 924.0064 270.1444 923.3358 269.4738 922.5534 268.4679 921.5474 269.4738 919.5355 272.827 918.4178 274.28 920.765 275.6212 928.2537 278.7508 931.9421 277.8567 940.7721 281.4333 945.1311 280.7627 948.0372 282.104 950.3844 285.2336 951.5021 289.1455 950.7197 293.0575 952.9551 294.287 954.8552 296.1871 955.8612 298.6461 955.7494 301.6639 954.2964 304.2347 950.3844 305.7994 948.9314 307.476 949.4902 315.4118 947.5901 316.8648 942.5604 320.7768 928.2537 327.3713 926.6889 324.8006 924.9006 323.4593 923.224 324.0182 921.8827 326.4771 922.218 333.9658 921.8827 334.5246 921.2121 334.9717 920.6532 335.4188 920.6532 336.6483 920.9886 337.3189 921.5474 337.6542 922.218 337.8778 922.5534 338.3249 926.5771 346.8195 927.136 350.0608 926.2418 352.6316 924.3417 354.4199 920.2062 356.6553 920.6532 360.1202 918.6414 364.3675 919.0884 367.6089 919.8708 368.2795 920.8768 368.2795 921.9945 368.3913 922.8887 369.6208 923.0004 371.2974 921.8827 374.6505 921.8827 375.7682 923.6711 376.8859 928.1419 374.7623 930.2656 374.9858 931.9421 377.333 931.2715 379.6802 928.2537 383.704 925.4594 385.4923 924.5652 388.2866 925.5712 390.8573 928.2537 391.7515 929.8185 392.5339 930.2656 393.5398 929.8185 394.6575 928.2537 395.6635 922.3298 398.0107 920.6532 399.5755 924.4535 400.0226 926.3536 400.6932 928.2537 402.4815 928.8125 404.6052 926.3536 405.164 922.8887 405.164 920.6532 405.6111 920.0944 406.17 919.4238 406.2817 918.7531 406.17 917.9707 405.6111 915.7353 403.8228 912.941 403.4875 907.4642 404.1581 902.5463 403.1521 900.6462 403.3757 899.4167 405.6111 898.8579 408.5172 897.7402 409.4113 896.3989 409.7466 895.0576 410.8644 894.7223 412.0938 894.8341 413.2116 894.8341 414.3293 893.9399 415.7823 892.934 416.4529 890.2515 417.6824 886.7866 420.1414 885.2218 421.8179 880.4156 428.4124 878.7391 430.089 876.6154 430.9832 871.1386 434.3363 868.3443 435.9011 867.8972 436.1246 862.4205 437.4659 861.6381 437.913 860.2968 439.2542 860.4086 439.7013 861.0792 440.1484 861.191 441.4897 860.185 447.5253 860.185 448.0842 860.0733 450.9902 860.185 454.3433 861.6381 459.1495 864.5441 460.9378 865.9971 463.9557 866.3325 468.4265 863.7617 465.2969 862.3087 464.1792 856.9437 463.285 847.8902 458.7024 844.2018 457.92 840.5133 458.2553 835.3718 460.379 831.4598 461.9438 827.8832 462.1673 817.712 460.6025 815.5883 459.2613 815.1413 462.2791 815.1413 464.7381 814.3589 466.4146 813.6882 466.9735 813.0176 467.4206 811.2293 467.9794 809.2174 467.4206 806.4231 467.4206 803.6288 468.203 801.5052 469.7678 800.2757 472.4503 800.1639 472.8974 799.8286 474.6857 799.2697 475.8034 798.9344 476.5858 796.4755 478.5977 792.4517 479.2683 789.4339 477.3682 788.875 476.8094 786.5278 474.7975 782.5041 473.2327 775.1272 473.6798 758.138 474.5739 753.8906 474.1268 744.949 473.1209 742.2664 472.8974 739.1369 472.4503 731.4246 475.021 726.5067 482.0626 723.936 478.3741 722.0359 478.0388 720.1358 479.1565 717.2297 481.0567 716.7826 481.0567 714.4354 481.392 712.6471 481.1684 710.9705 481.8391 708.7351 485.1922 707.1703 488.4336 706.1644 491.5631 705.1584 494.4692 703.7054 497.7106 702.6994 500.1695 701.9171 500.8402 699.011 502.1814 695.5461 502.7403 694.4284 501.9579 692.193 502.9638 691.4106 503.858 690.7399 505.1992 689.1751 507.0993 688.1692 509.4465 687.275 509.223 686.3809 509.1112 685.822 509.3348 683.1395 512.129 681.7982 513.0232 680.457 513.3585 677.5509 513.5821 676.2097 514.1409 674.3096 517.047 673.1919 520.7354 672.5212 522.412 671.9624 523.9768 669.6152 524.9827 667.8268 523.0826 666.3738 519.7295 664.4737 517.2705 659.8911 518.3882 657.6557 518.0529 655.8673 517.1587 653.6319 516.1528 652.8495 515.2586 652.4024 514.1409 651.7318 513.2468 650.3905 512.9114 645.9197 513.9174 629.9364 513.4703 617.6416 513.0232 617.3063 513.0232 615.965 512.5761 608.4763 506.0934 606.4645 505.1992 604.3408 504.5286 601.9936 504.4168 599.6464 504.8639 597.411 505.1992 595.2873 504.9757 583.1043 499.1636 579.0805 498.493 570.4741 499.946 568.574 499.946 559.8559 497.8223 557.7322 497.7106 555.7204 498.0459 553.7085 497.8223 537.6134 492.5691 531.9131 492.3455 530.9072 491.6749 529.007 489.5513 528.1129 489.216 519.9536 489.7748 514.1415 488.7689 500.6172 491.6749 495.1404 491.3396 492.3461 490.2219 483.9633 485.0804 473.0097 482.5097 441.8255 480.2743 434.2251 475.2446 430.8719 474.1268 429.7542 473.7915 428.7483 473.9033 426.6246 474.7975 425.2834 474.7975 424.0539 474.2386 421.7067 472.4503 420.589 471.8914 420.3655 471.7796 413.771 471.109 406.0587 472.2267 404.0469 472.0032 401.9232 470.8855 397.7877 468.0912 393.7639 467.4206 390.5226 466.8617 385.1575 464.6263 380.5749 460.4908 378.0042 454.3433 376.8865 450.096 374.651 448.643 371.8568 448.1959 369.0625 447.19 367.833 446.2958 367.0506 445.5134 366.7153 444.1722 366.7153 441.6014 367.0506 439.366 367.6095 438.0248 367.9448 436.6835 367.9448 434.2245 366.7153 429.9772 364.5916 428.5242 359.0031 428.3007 357.2147 427.63 356.3206 426.7359 355.6499 425.5064 354.0851 423.9416 352.6321 423.1592 349.5025 422.6003 348.0495 422.0415 350.0614 420.1414 350.0614 418.353 349.1672 416.4529 348.273 414.3293 347.4906 409.8584 346.9318 407.623 346.0376 405.6111 347.3789 402.258 355.4264 397.6754 358.3325 393.8751 358.3325 391.1926 358.3325 388.7337 355.2029 387.616 348.9437 388.8454 346.7083 389.2925 333.1839 396.3341 323.6834 396.7812 317.7595 398.9048 312.171 401.9227 307.5883 405.6111 301.4409 406.5053 299.9879 407.5112 297.4172 409.6349 295.8524 409.9702 293.3934 409.076 289.0343 405.8347 286.5754 405.6111 285.5694 405.7229 284.5635 405.6111 284.3399 405.6111 284.2282 405.6111 277.4101 404.1581 274.2805 404.4934 270.3685 405.6111 269.0273 406.2817 267.7978 406.5053 266.5683 406.2817 265.4506 405.6111 264.78 404.7169 263.9976 403.9345 263.2152 403.4875 260.868 402.9286 259.5267 403.1521 258.2972 404.0463 257.2913 405.6111 252.7087 410.082 248.6849 409.8584 244.5494 407.8465 239.7432 406.7288 230.4662 408.2936 221.1892 411.3114 218.842 412.7645 210.2356 421.3708 209.1179 423.718 207.6649 430.6479 205.2059 436.5717 205.0942 437.3541 205.2059 439.366 204.9824 440.3719 204.4235 441.0426 202.9705 441.6014 202.4117 442.1603 199.3938 447.3018 197.6055 449.3136 195.7054 449.5372 193.3582 448.7548 188.7756 448.3077 186.4284 448.643 182.0693 450.096 180.7281 450.2078 179.3868 449.649 177.0396 447.7488 175.9219 447.0782 174.4689 447.0782 172.0099 447.8606 170.6686 447.7488 166.8684 445.6252 165.3036 445.0663 162.5094 445.9605 161.0563 445.8487 160.2739 444.1722 160.8328 443.278 163.8506 440.819 164.5212 439.4778 163.18 437.4659 153.0088 431.4303 150.9969 430.8714 148.538 431.0949 135.0136 434.8952 129.5369 434.2245 125.1778 430.7596 124.8425 426.5123 126.519 419.9178 125.8484 416.6765 124.6189 415.2234 120.1481 411.6468 117.3538 407.0641 115.9008 405.6111 115.2301 405.164 114.4477 405.0523 113.7771 405.164 109.8651 407.3994 106.512 411.1997 104.1648 415.6705 104.1648 419.359 100.8117 419.4707 98.2409 418.8001 96.1173 419.2472 93.9936 422.7121 93.4348 425.1711 93.323 426.7359 92.9877 428.3007 91.5347 430.2008 85.7226 433.2186 82.3694 434.2245 81.3635 434.1128 79.5751 434.1128 73.763 432.2127 70.857 430.5361 65.7155 425.6182 51.4088 420.9238 48.0557 418.4648 46.3791 416.0058 46.1556 414.2175 46.6026 412.0938 46.938 407.5112 47.4968 405.6111 47.4968 404.4934 46.938 403.9345 46.1556 403.9345 45.5967 403.4875 45.8202 401.252 20.6717 393.3163 18.4363 392.981 11.3947 393.7634 8.9358 393.2045 12.6242 388.5101 13.5184 383.3686 12.1771 378.4507 9.0475 373.9799 5.0238 371.6327 5.0238 369.9561 6.365 366.9383 6.4768 365.597 5.3591 362.8028 4.1296 361.1262 3.459 359.4496 4.3531 356.6553 2.1177 354.6435 1 352.8551 5.2473 345.4782 9.8299 340.0014 10.277 338.6602 10.9476 335.1953 11.6183 333.4069 16.7597 326.9242 18.101 323.9064 18.2128 315.6353 14.3008 312.1704 9.3828 309.935 5.4708 304.0111 5.2473 302.7816 4.4649 299.3167 4.8002 299.5403 5.3591 299.652 13.1831 301.7757 21.6777 301.6639 25.2543 299.9873 27.2662 296.9695 28.831 293.2811 31.7371 289.9279 33.749 288.922 35.7608 288.6985 37.5492 289.3691 39.114 291.0457 39.5611 293.3928 39.3375 295.8518 39.8964 297.8637 42.5789 299.3167 43.5848 299.205 45.2614 298.199 45.932 297.9755 49.9558 299.4285 53.8678 299.7638 55.8796 299.4285 57.5562 298.0872 57.8915 301.3286 59.3446 303.2287 61.0211 304.9053 62.1388 307.476 62.1388 308.1466 62.2506 308.7055 62.4741 309.8232 63.9272 310.7174 65.0449 310.2703 66.2744 309.1526 67.7274 308.482 74.3219 318.0943 75.4396 320.4415 74.8807 322.5651 71.8629 324.9123 73.316 326.5889 73.6513 328.6008 73.763 330.7244 74.4337 332.6245 75.7749 333.854 76.6691 333.854 77.675 333.0716 79.4634 332.2892 80.134 332.2892 81.4752 333.1834 82.1459 333.1834 82.7047 332.7363 84.2695 330.948 90.1934 329.942 92.6524 331.2833 92.5406 334.7482 90.0816 342.0133 90.4169 343.3546 90.5287 344.584 90.1934 345.8135 89.5228 346.4842 87.7344 347.043 87.1756 347.3783 85.9461 349.6138 85.499 350.8432 86.0579 351.1785 88.0697 350.955 96.6761 349.8373 99.5822 348.7196 105.5061 345.0311 108.0768 342.6839 110.5358 339.4426 113.4418 333.5187 114.2242 332.2892 115.6772 331.2833 118.4715 330.3891 119.5892 329.6067 121.8246 326.5889 123.7248 322.6769 124.9542 318.2061 124.9542 313.9587 124.3954 311.4998 123.613 309.8232 122.4953 308.482 120.5952 307.476 121.9364 299.652 122.16 297.8637 121.2658 295.6283 120.1481 293.3928 119.9245 291.7163 121.9364 290.9339 124.1718 290.4868 125.1778 290.1515 125.6249 290.4868 126.1837 292.3869 126.0719 293.1693 125.4013 294.0635 124.9542 295.293 125.1778 296.9695 125.8484 297.9755 126.9661 298.6461 128.978 299.652 134.6783 300.5462 136.2431 300.2109 137.9197 298.8696 140.714 295.0694 142.5023 293.8399 145.7437 293.8399 163.2917 300.5462 163.8506 301.1051 164.2977 302.111 164.9683 303.1169 166.086 303.4523 169.998 303.0052 175.363 300.5462 177.2631 299.9873 179.1633 300.0991 180.5045 300.8815 183.6341 303.2287 182.5164 304.57 178.1573 307.476 179.0515 309.0408 185.9813 312.2822 192.5758 319.4355 193.0229 320.3297 193.0229 321.671 192.7993 323.0122 192.3523 323.9064 192.0169 323.9064 193.3582 326.5889 195.2583 327.7066 209.1179 327.9301 211.6887 327.1477 220.4068 321.1121 223.76 320.1062 226.666 321.3356 226.3307 326.7007 229.5721 327.036 232.4781 325.6947 234.3782 323.6828 236.0548 321.2239 238.6255 318.8767 241.1963 318.0943 246.8966 317.9825 249.132 316.9766 250.2497 315.0765 249.6909 313.6234 248.2378 312.6175 246.673 312.1704 252.9322 304.9053 255.9501 304.2347 259.1914 304.6817 262.2092 305.5759 268.4684 304.57 271.3745 303.4523 273.8334 300.7697 274.5041 298.8696 275.51 294.287 276.4042 292.2751 280.2044 289.0338 280.6515 288.4749 283.1105 288.4749 288.9226 289.7044 299.7644 289.7044 307.253 291.2692 308.5943 290.8221 309.9355 287.469 311.5003 286.5748 322.6774 284.2276 353.3028 285.5689 354.3087 285.3453 358.1089 280.5392 358.556 279.1979 358.7795 277.4096 358.556 272.1563 358.1089 271.0386 357.4383 270.5915 356.4323 269.4738 355.4264 268.1326 354.9793 267.1266 354.7558 265.4501 356.7677 264.5559 360.009 261.9851 361.1267 261.2028 363.1386 260.3086 363.4739 260.3086 363.0268 261.2028 362.6915 263.3264 362.2444 264.8912 361.3503 266.0089 360.9032 267.4619 361.6856 269.5856 363.0268 270.8151 364.4799 270.5915 367.3859 269.0267 370.292 268.5796 378.0042 270.2562 380.2396 269.9209 385.4928 267.909 387.7283 268.2443 388.2871 269.4738 389.7402 273.6094 390.4108 275.2859 391.5285 276.5154 395.4405 279.7568 397.3406 280.6509 400.0231 280.7627 402.9292 280.2039 404.941 279.3097 406.2823 278.192 410.8649 273.9447 413.4356 272.7152 418.13 271.5975 422.9362 271.5975 430.4249 273.4976 432.6603 273.1623 431.319 276.6272 433.4427 279.1979 436.9076 281.5451 439.4783 284.1158 435.9017 285.9042 434.2251 290.4868 435.0075 295.293 438.2488 297.9755 440.2607 298.3108 441.602 298.7579 442.7197 299.652 448.7553 306.4701 455.2381 311.388 456.8029 311.9469 457.9206 311.6116 458.9265 310.9409 460.3795 310.9409 461.609 311.6116 462.3914 312.3939 463.1738 312.9528 464.6268 312.841 465.521 312.0586 469.3212 307.476 469.3212 305.9112 468.9859 304.6817 468.5388 303.6758 468.3153 302.5581 468.2035 301.3286 468.2035 297.9755 468.4271 297.4166 469.7683 294.1752 469.8801 293.9517 469.6565 294.0635 469.5448 289.5926 469.8801 289.7044 472.0037 286.9101 472.1155 286.3513 473.6803 282.4393 474.0156 281.9922 474.2392 279.5332 474.3509 277.186 474.0156 274.6153 472.8979 271.821 470.3272 267.3502 468.6506 265.3383 467.0858 264.1088 464.9622 263.7735 461.609 265.2265 459.5971 265.5618 452.2202 264.2206 449.9848 261.9851 452.4438 258.0732 452.5556 258.0732 453.338 256.7319 453.5615 255.3906 453.6733 254.1612 453.8968 252.8199 454.6792 251.2551 463.2856 237.5073 462.615 236.8366 459.7089 232.4776 455.2381 221.9711 453.0026 219.8474 451.8849 219.1768 449.2024 216.4943 446.0728 214.4824 444.9551 212.9176 444.2845 210.9057 444.1727 210.5704 443.8374 208.4468 441.8255 203.9759 432.4367 194.14 431.2073 192.1282 430.0895 189.781 429.4189 187.0985 429.6425 184.416 430.4249 183.0747 431.319 182.7394 432.2132 182.7394 432.9956 182.4041 434.8957 179.3862 435.4546 178.7156 440.7078 175.0272 442.4961 173.0153 444.8433 169.2151 446.0728 167.8738 448.0847 166.7561 455.4616 165.3031 455.3498 164.856 457.3617 163.1794 461.7208 160.7205 466.6387 156.0261 468.7624 154.4613 482.622 148.9845 500.9525 145.7431 505.4233 143.2842 518.3888 131.7717 520.2889 128.6421 521.0713 124.3948 521.2948 123.3889 521.9655 122.3829 522.5243 120.9299 522.7479 118.918 522.5243 113.2177 522.7479 111.3176 523.4185 109.5293 525.2068 105.729 525.5421 103.7172 525.3186 101.9288 524.0891 100.0287 523.5303 96.452 523.0832 95.4461 523.0832 94.7755 523.7538 93.3224 524.9833 92.2047 529.3424 90.6399 533.8132 89.9693 547.5611 93.8813 549.9083 95.1108 552.0319 96.7873 554.1556 99.9169 559.5206 102.3759 559.8559 102.7112 561.0854 97.3462 562.2031 94.999 562.6502 95.1108 565.4444 94.6637 566.4504 94.2166 567.5681 93.0989 568.2387 92.2047 570.4741 87.175 571.2565 84.4925 571.7036 81.5865 571.8154 78.2333 571.1448 71.7506 571.4801 69.2916 573.2684 67.6151 571.5919 66.8327 570.9212 66.162 569.4682 63.3678 568.7976 63.7031 569.1329 61.6912 573.0449 53.3084 578.4099 54.7614 580.9806 56.1026 583.4396 58.0028 586.3457 60.4617 595.2873 65.3796 596.4051 66.7209 598.6405 70.074 599.5347 71.7506 600.2053 72.4212 601.0994 72.7565 601.8818 73.3154 602.2172 74.5449 601.9936 75.8861 601.4348 75.9979 600.7641 75.8861 600.3171 76.2215 599.4229 78.1216 598.7523 78.3451 598.4169 78.904 599.0876 81.6982 599.6464 82.816 601.9936 85.722 603.1113 86.6162 607.5822 88.6281 626.4715 90.7517 639.6605 95.3343 641.0018 95.2226 642.0077 94.7755 644.6902 92.6518 651.62 89.634 653.7437 87.5103 656.7615 79.5746 658.6616 78.2333 661.903 81.9218 667.1562 84.7161 668.721 85.1631 670.7329 84.7161 674.7567 82.816 676.7685 82.5924 677.6627 83.3748 677.7745 84.6043 677.7745 85.9455 678.2216 86.8397 679.2275 86.9515 681.3512 86.2809 682.1336 86.3926 683.5866 88.2927 684.369 90.1928 685.4867 91.5341 687.6103 91.6459 689.734 89.634 690.2928 88.9634 690.9635 83.8219 690.9635 77.5627 691.4106 72.1977 693.8695 68.0622 700.9111 61.9147 701.5817 58.0028 702.923 55.6556 703.4818 53.1966 704.2642 51.2965 706.2761 50.5141 713.2059 51.52 720.1358 54.3143 722.8183 54.0908 724.2713 50.5141 724.0477 50.1788 723.4889 48.8375 722.8183 47.2727 722.5947 45.9315 722.8183 44.5902 723.8242 42.0195 726.6185 29.2776 726.6185 23.689 726.0596 17.5416 726.1714 11.7295 727.9597 7.4822 727.848 6.3645 727.848 5.4703 728.0715 4.6879 728.4068 4.3526 731.4246 4.0173 738.8015 6.588 749.1963 7.3704 750.0904 10.2765 750.6493 13.0707 750.6493 15.7532 749.7551 18.6593 752.4376 18.7711 762.6088 15.9768 763.2794 15.5297 765.0678 13.2943 765.5149 12.2883 765.8502 9.4941 766.409 8.7117 767.415 8.7117 768.0856 9.4941 768.6444 10.5 769.3151 11.0589 775.5743 11.0589 778.4803 11.953 784.963 15.1944 790.8869 17.2063 793.6812 18.8828 800.2757 24.5832 803.2935 25.8127 811.2293 28.8305 821.624 34.7543 824.6418 35.425 827.6596 35.425 829.895 34.7543 834.7012 32.1836 835.8189 31.9601 839.8427 31.8483 840.6251 32.5189 841.1839 34.9779 841.8546 35.9838 842.7487 36.4309 845.3195 36.5427 846.7725 37.6604 847.7784 38.1075 848.8961 37.9957 847.5549 39.8958 849.2315 39.4487 850.6845 39.5605 851.6904 40.4547 851.8022 42.5783 854.0376 42.0195 854.82 42.8019 854.82 44.2549 854.9318 45.2608 868.3443 54.9849 875.3859 58.1145 887.7925 57.3321 906.3465 60.1264 906.5701 60.0146 909.2526 59.5675 911.0409 61.0206 911.8233 61.2441 913.947 60.5735 915.4 59.2322 922.1063 47.608 924.4535 46.0432 928.2537 46.7139 929.5949 46.6021 932.0539 45.5961 933.2834 45.3726 934.5129 45.8197 936.7483 47.2727 944.684 49.6199 947.2548 49.8435 949.7138 50.9612 950.8315 53.4201 951.2785 56.2144 952.2845 58.6734 953.9611 59.9029 956.0847 60.2382 961.2262 60.0146 963.2381 60.797 968.0442 63.9266 970.5032 64.9326 973.0739 64.5972 978.2154 62.6971 980.3391 62.9207 983.4686 67.3915 985.3688 80.6923 989.9514 86.0573Z" />
</svg>