<?xml version="1.0" encoding="utf-8"?>
<svg xmlns="http://www.w3.org/2000/svg" viewBox="0 0 1021 803" style="stroke-width:0.25px;stroke-linejoin:round;stroke:#444;fill:#ddd" fill-rule="evenodd">
  <path class="AZ" d="M36.5432 191.4261L43.3613 193.1026 45.2614 199.6971 42.8024 204.9504 36.5432 202.8267 34.3078 200.0325 33.3019 196.5675 33.8607 193.3262 36.5432 191.4261ZM40.567 143.3645L57.1091 129.6166 83.4871 107.7095 89.0757 105.8094 94.6642 106.0329 97.9056 107.7095 106.2884 112.0685 108.971 112.6274 112.5476 112.2921 118.248 110.6155 120.8187 111.0626 123.2777 113.9686 128.978 119.3337 153.903 129.0578 165.3036 131.405 169.3274 132.9697 169.5509 134.4228 167.092 135.764 163.0682 137.2171 159.1562 142.0232 163.4035 148.6177 170.5569 154.7651 173.91 156.8888 182.6282 162.2538 208.4473 171.5308 216.8301 172.6485 220.9657 172.2014 224.4306 170.9719 229.0132 168.0659 233.3723 165.1598 237.2843 164.2657 250.3615 164.2657 253.4911 165.2716 256.1736 167.9541 261.2033 174.3251 271.4862 183.6021 275.0629 185.8375 285.4576 189.1906 288.2519 191.7614 293.1699 198.2441 296.1877 200.1442 299.9879 200.0325 301.5527 197.5735 302.5586 193.9968 304.4587 190.3084 308.1472 187.9612 311.5003 188.2965 314.8535 189.1906 318.2066 188.7436 320.6656 185.2787 321.6715 183.9374 323.1245 176.5605 324.0187 168.6248 325.6953 162.3656 326.7012 161.0243 329.0484 158.7889 330.0543 157.3359 330.3897 155.8828 330.6132 151.7473 330.9485 150.0707 332.4015 148.1706 333.8546 148.3942 334.4134 148.1706 333.2957 144.8175 327.8189 136.4347 324.4658 132.6344 323.3481 130.6226 323.1245 130.5108 321.895 129.7284 319.2125 130.7343 316.53 124.2516 307.9237 119.2219 291.0462 112.0685 282.8869 104.4681 279.422 103.5739 277.4101 102.568 268.2449 96.3088 265.3388 92.3968 263.774 87.3671 262.321 78.3136 262.0975 76.6371 258.2972 69.2602 257.8502 67.9189 255.3912 68.0307 254.2735 69.819 253.3793 71.9427 251.9263 73.1722 247.2319 69.2602 244.9965 58.8655 244.8847 47.0177 246.5613 39.082 249.9144 35.5053 253.7146 35.0582 261.8739 36.9583 265.4506 36.623 268.2449 35.2817 270.8156 32.9345 278.1925 23.7693 281.9927 17.7337 288.5872 4.0976 292.2757 4.9917 296.9701 4.88 305.0176 5.9977 308.1472 7.786 309.1531 12.2569 308.259 21.6457 309.2649 25.6694 312.2827 28.2402 315.6359 28.2402 318.6537 26.2283 324.2422 21.3103 327.8189 19.9691 334.8605 18.5161 336.9842 16.9513 337.9901 16.1689 340.8961 13.151 342.3492 13.151 343.1316 15.8336 344.6964 24.887 345.5905 28.1284 347.2671 30.8109 358.7795 41.4292 361.6856 43.2175 363.921 43.8881 368.3919 44.447 370.4037 45.4529 371.2979 46.7942 372.1921 51.0415 372.8627 52.8298 375.2099 56.0712 383.8163 63.4481 388.0636 70.3779 389.6284 77.3077 392.0873 81.6668 392.3109 81.6668 399.4642 80.6608 402.7056 79.3196 406.0587 78.649 409.1883 79.4314 411.9826 82.6727 413.2121 86.6965 413.8827 90.6085 415.1122 94.0734 418.13 96.4206 418.5771 96.7559 419.9184 98.2089 420.7008 100.2208 421.2596 102.4562 422.2656 104.8034 427.6306 111.6215 428.9718 114.4157 429.5307 120.0043 429.1954 132.1873 430.9837 137.4406 434.0015 140.4584 447.1905 148.5059 451.2143 149.959 452.6673 150.5178 470.6625 152.3062 474.4627 153.5356 479.2689 160.4655 482.5102 162.9244 485.9751 163.0362 492.1226 158.9007 495.4757 157.5594 499.0524 158.0065 508.1058 162.5891 513.2473 165.2716 516.6004 165.9422 528.6717 164.8245 531.3542 164.601 538.7311 162.3656 542.7549 159.7948 543.5373 157.5594 542.6431 154.5416 541.8607 149.8472 542.3078 145.041 543.9844 142.8056 546.2198 141.129 548.7905 137.9994 550.2436 133.8639 551.1377 130.1755 552.9261 128.2754 557.5087 129.0578 561.3089 126.8223 567.121 110.2802 570.3624 103.7975 576.0627 100.2208 596.0697 96.4206 601.2112 93.6263 610.3765 85.6905 625.3538 76.3018 629.3776 71.9427 632.8425 65.2364 640.1076 45.0058 641.3371 43.5528 653.1848 28.1284 661.5677 14.6041 663.4678 16.1689 668.721 19.4102 674.8684 24.9988 690.1811 46.3471 696.105 52.3827 698.5639 55.9594 699.5699 61.6597 711.4176 75.0723 718.1239 89.379 721.5888 90.7202 724.4948 93.7381 726.7303 97.4265 728.1833 100.3326 732.207 106.3682 732.8777 107.7095 733.7718 108.7154 738.0191 109.9449 739.4722 110.8391 742.1547 114.751 748.4139 127.8283 753.6671 138.8936 756.1261 142.5821 758.3615 146.9411 759.3674 151.9708 761.4911 171.9779 762.6088 176.2252 764.5089 178.0135 765.7384 180.696 768.6444 197.1264 776.9155 210.986 797.8167 234.6815 799.4933 237.2523 801.0581 241.0525 804.7465 244.1821 812.6823 249.1 816.4825 248.0941 819.8356 251.0001 822.9652 254.9121 826.4301 256.8122 828.3303 259.0476 827.5479 264.0773 824.53 272.5719 823.4123 277.0428 823.1888 279.39 823.4123 281.9607 824.1947 283.4138 826.4301 286.3198 826.989 287.5493 827.1008 287.7728 828.3303 289.7847 831.3481 292.6908 834.813 295.2615 837.1602 296.3792 844.6488 296.8263 848.002 297.7205 850.7963 299.2853 857.0554 304.8738 860.4086 306.5504 869.1267 307.6681 876.6154 310.0153 880.6392 310.3506 883.8805 309.68 893.4928 305.6562 897.6284 304.9856 917.4119 305.6562 918.8649 307.1092 919.6473 308.7858 920.2062 310.3506 920.9886 311.9154 924.1182 315.7156 927.3595 318.7334 930.9362 320.7453 946.5842 324.0985 949.602 325.8868 951.5021 329.2399 953.6257 334.4932 956.3083 339.4111 959.7732 341.5348 963.4616 342.9878 966.703 346.4527 969.2737 351.0353 970.9503 355.7297 972.7386 374.5073 973.9681 376.4074 975.4211 380.6547 976.3153 385.3491 975.7564 388.4787 972.4033 381.9959 968.8266 376.4074 964.4675 371.3777 955.8612 364.3361 952.2845 362.3242 948.3725 360.8712 940.5485 359.7535 934.0658 357.6298 930.6009 357.1827 928.589 357.4063 926.2418 358.4122 924.677 358.8593 917.9707 358.8593 914.9529 360.0888 909.029 365.0067 905.5641 365.0067 904.3347 364.0008 902.0992 360.3123 900.758 358.8593 898.8579 358.0769 894.387 357.2945 889.9162 354.8355 886.4513 356.7356 880.6392 361.9889 881.8686 367.3539 876.9507 372.3836 869.9091 376.0721 858.3967 378.6428 848.2255 384.5667 834.9248 389.4846 831.7952 391.8318 825.2007 399.2087 822.1828 401.3323 820.2827 403.7913 819.8356 408.7092 820.8416 414.8567 820.9534 417.3156 811.5646 420.8923 809.888 424.469 810.3351 429.0516 812.6823 433.6342 814.2471 435.3108 816.7061 437.2109 818.0473 438.9992 818.7179 441.3464 817.8238 442.6877 816.0354 443.8054 813.0176 446.7114 811.6763 447.3821 810.3351 448.2762 809.1056 450.6234 808.3232 453.3059 808.2114 455.4296 809.1056 459.9004 811.1175 464.8184 811.6763 467.3891 810.8939 470.0716 809.3292 471.7482 807.9879 472.8659 807.0937 474.0954 806.7584 476.219 806.982 477.5603 807.6526 478.678 808.0997 480.131 807.8761 481.6958 807.2055 482.7018 804.2994 484.7136 803.2935 487.955 803.4053 489.408 804.2994 490.9728 803.5171 493.8789 804.523 497.0085 808.5468 502.4853 808.3232 504.3854 805.8642 506.2855 801.3934 508.8562 797.0343 514.1095 793.3459 518.6921 789.9927 524.2806 790.1045 528.1926 788.0926 531.8811 786.3043 536.9108 784.963 542.164 784.1806 546.6349 784.4042 552.7823 786.0807 556.9178 802.2876 571.6716 804.2994 574.2424 805.7525 577.1484 805.6407 578.1543 804.8583 578.9367 803.7406 586.4254 803.9641 588.7726 805.4172 591.3433 803.2935 590.2256 801.7287 588.7726 800.4992 587.096 799.4933 585.1959 798.4873 585.1959 799.0462 588.4373 800.611 592.1257 802.7347 595.3671 805.4172 597.2672 805.4172 598.9438 801.5052 598.0496 799.0462 595.2553 796.8108 592.1257 787.9809 586.2019 782.1688 588.4373 777.6979 594.2494 775.9096 601.291 776.0213 625.8806 775.4625 628.7867 774.5683 632.8105 772.2211 639.9638 771.327 643.5405 770.8799 651.3645 769.9857 656.1706 768.4209 660.0826 755.3437 669.2479 748.5256 671.9304 743.7195 668.0184 744.2783 665.4476 744.1666 663.6593 744.3901 662.0945 746.0667 660.4179 753.8906 658.8531 756.5732 657.5119 758.8086 654.047 760.2616 649.5761 760.3734 645.1053 758.3615 640.9697 754.8966 639.0696 746.6255 638.8461 746.6255 636.8342 745.6196 627.669 744.949 625.0982 741.9311 622.5275 738.578 621.6333 731.2011 621.9686 729.0774 622.6393 728.0715 624.4276 727.4009 626.7748 725.9479 629.9044 725.8361 631.1339 725.8361 633.4811 725.5008 635.2694 724.7184 635.7165 723.8242 635.7165 723.3771 635.94 723.0418 646.4465 723.7124 651.9233 726.5067 656.7295 725.8361 662.2063 721.1417 678.1895 720.5828 679.6426 717.1179 687.6901 716.6708 688.1372 711.7529 694.1728 705.4937 692.4963 705.6055 700.432 706.0526 704.1205 706.835 707.5854 710.9705 718.0919 711.8647 752.4056 712.8706 789.7372 701.6935 787.39 696.105 787.39 692.193 789.5136 688.8398 792.9785 684.369 795.7728 679.6746 797.7847 675.5391 798.9024 667.4915 798.2318 666.5974 798.2318 661.1206 792.755 656.3144 784.8193 654.079 781.9132 649.8317 776.5482 647.1492 772.8597 644.2431 769.6184 641.4488 765.1475 638.6546 762.5768 636.4191 759.559 635.1897 753.7469 633.1778 748.9407 629.154 748.9407 620.3241 752.9645 614.9591 752.8527 611.8295 749.9466 609.0352 745.8111 600.6524 739.1048 600.3171 735.3046 601.0994 730.9455 600.2053 727.7042 599.7582 725.9158 597.6345 724.0157 574.6097 712.6151 563.3208 703.5616 559.8559 697.3024 559.4088 688.0254 561.0854 685.5664 570.1388 679.8661 570.6977 678.4131 570.6977 676.7365 571.2565 675.2835 603.3349 669.5832 610.4882 665.2241 610.4882 665.1123 612.053 662.7651 613.3943 659.8591 613.3943 659.7473 614.2884 656.7295 614.4002 653.5999 613.3943 650.8056 608.141 639.5167 605.5703 636.946 595.6227 632.9222 585.7868 623.1981 581.5395 617.2743 579.1923 611.2386 579.5276 603.5264 582.6572 597.1554 587.6869 592.3493 593.6108 589.3315 604.4526 587.096 613.6178 580.9486 618.0887 579.4956 619.877 578.9367 616.0768 570.7774 611.1589 564.0712 599.3111 553.0058 570.1388 517.7979 559.4088 507.8503 556.0557 505.5031 553.7085 504.9442 553.5967 504.9442 551.5848 507.962 549.7965 509.6386 547.6728 510.1975 534.4838 509.8622 530.3483 510.9799 526.9952 513.3271 524.3127 516.1213 516.824 523.8336 495.9228 535.5695 492.7932 537.3579 483.6279 546.7466 481.3925 548.1997 477.4805 548.6468 465.2975 552.8941 458.0323 556.9178 452.4438 561.6122 443.7256 572.7893 438.0253 578.7132 432.7721 581.731 430.7602 582.8487 413.4356 589.6668 405.1646 594.6965 403.488 596.5966 402.9292 598.832 396.5582 609.0032 393.6521 617.4978 392.758 619.1744 390.9696 621.298 389.7402 621.9686 379.3454 627.8925 377.2218 628.2278 374.651 627.5572 369.8449 625.3218 367.0506 625.4336 364.2563 626.7748 364.1446 626.7748 361.5738 629.0102 359.2266 631.6927 354.7558 639.5167 353.7498 640.858 352.2968 641.9757 349.5025 643.5405 348.1613 644.6582 346.0376 648.0113 343.1316 654.8294 340.2255 657.5119 330.1661 662.6534 327.0365 665.3359 324.6893 668.3537 319.7714 678.5249 317.7595 681.7662 315.4123 684.4487 312.7298 686.5724 309.9355 688.3607 306.1353 689.9255 303.0057 690.1491 296.9701 677.2954 296.2994 674.7246 296.0759 672.0421 296.4112 669.2479 296.9701 666.5653 297.1936 665.8947 297.4172 665.2241 299.6526 658.0707 300.0997 651.8116 299.2055 645.4406 296.9701 638.1755 292.8345 634.7106 287.0224 631.4692 282.5516 626.9983 282.4398 620.0685 286.3518 616.3801 292.4992 617.1625 303.0057 622.5275 305.1294 622.1922 313.1769 616.4919 316.8653 616.2683 318.4301 615.5977 317.7595 614.0329 317.536 613.3623 316.4183 612.021 315.3006 611.0151 307.8119 605.7618 303.6763 601.4028 301.9998 598.0496 300.9938 594.4729 299.7644 591.2316 296.9701 588.8844 284.4517 583.2958 278.8631 578.9367 276.4042 571.8952 278.7514 566.0831 284.2282 562.6182 296.9701 560.271 299.0937 559.265 300.3232 557.5884 300.3232 555.4648 299.0937 553.1176 299.2055 549.3174 301.2174 547.529 303.7881 545.9642 305.3529 543.0582 304.7941 539.3697 302.6704 536.4637 299.7644 534.5636 296.9701 533.893 286.0165 535.0107 282.5516 534.4518 279.9809 532.5517 275.9571 526.9631 273.4981 524.9513 267.4625 524.5042 255.6147 530.6516 249.5791 531.8811 245.7789 530.6516 243.2081 528.1926 239.0726 520.4804 236.6136 517.3508 233.5958 515.6743 227.0013 513.7741 221.6363 509.4151 214.93 495.779 210.1239 491.0846 199.1703 487.8432 193.47 484.8254 189.7815 482.9253 181.9575 475.1013 180.6163 472.4188 172.7923 456.4355 169.1039 452.1882 164.2977 449.841 146.1908 447.9409 140.714 445.482 140.3787 442.3524 140.1551 440.1169 151.2205 432.9636 179.7221 437.658 191.7934 436.5403 194.1406 434.5284 195.3701 432.1812 197.382 421.6747 198.0526 419.9981 201.8528 416.645 205.2059 412.1741 207.3296 406.5856 210.4592 391.9436 210.571 390.6023 210.4592 389.2611 210.1239 387.9198 205.653 381.9959 203.1941 379.6487 200.6233 378.3075 196.8231 378.531 194.3641 379.2017 193.2464 379.537 189.7815 379.4252 182.4046 371.2659 182.1811 371.0424 141.7199 348.0175 131.437 338.4052 125.8484 326.4457 124.3954 323.7631 120.8187 321.416 119.1421 319.5158 118.3597 317.0569 118.0244 312.0272 117.3538 309.7917 114.336 305.9915 110.7593 303.1972 107.4062 299.9559 104.9472 294.5909 104.9472 290.3436 104.9472 284.8668 109.3063 277.1546 116.1243 271.566 123.1659 268.2129 136.5784 261.6184 141.1611 256.4769 144.5142 246.9763 144.1789 241.9466 141.1611 240.2701 137.0255 240.0465 133.4488 238.8171 130.7663 236.0228 123.2777 226.4105 118.695 222.722 117.0185 222.1631 114.5595 221.6043 112.4359 219.2571 113.8889 211.7684 112.8829 206.4034 108.0768 206.8505 106.4002 207.7447 98.3527 211.7684 94.3289 211.0978 86.7285 207.9682 78.5692 207.074 75.7749 204.6151 73.0924 201.709 69.5157 199.4736 63.8154 193.5497 60.9094 191.9849 60.4623 196.2322 59.3446 198.9147 55.9914 198.5794 52.303 196.0087 50.0675 192.2085 51.8559 184.8316 69.0686 185.5022 74.9925 181.1431 74.769 177.4547 72.5336 174.2133 63.4801 167.06 60.4623 166.054 49.1734 166.054 46.1556 164.8245 45.1496 161.9185 46.938 157.1123 40.567 143.3645ZM129.3133 301.6325L135.1254 297.1616 137.4726 291.2377 133.0018 288.667 130.431 288.3317 127.8603 288.3317 125.5131 289.0023 123.2777 290.5671 122.2717 292.9143 121.9364 295.2615 122.2717 297.6087 123.2777 299.8441 129.3133 301.6325ZM237.396 694.1728L235.6077 694.3964 225.5483 691.9374 214.0359 686.6842 177.4867 678.9719 173.4629 677.4072 164.633 673.9422 149.0968 673.7187 139.2609 671.2597 134.4548 671.148 133.1135 670.8127 132.3311 670.7009 128.7545 668.5772 125.9602 667.7948 123.9483 667.236 119.9245 665.3359 116.2361 662.8769 114.2242 660.4179 114.0007 658.0707 114.4477 656.1706 115.1184 654.2705 115.5655 652.0351 114.6713 650.4703 110.5358 648.5702 108.971 647.3407 108.0768 645.5524 106.7355 640.7462 105.9531 638.9579 104.3883 637.1695 102.7118 636.2754 101.2587 635.0459 100.0293 632.8105 101.5941 629.5691 100.5881 627.1101 98.2409 625.6571 95.782 625.21 94.1054 624.3158 94.2172 622.4157 94.6642 620.2921 94.1054 618.9508 92.5406 618.7273 90.864 619.3979 89.7463 620.1803 89.2992 620.6274 71.1923 614.5917 66.6097 616.0448 65.492 612.5799 63.7036 601.4028 62.4741 599.0556 61.0211 596.8201 59.9034 594.4729 56.7738 587.4314 55.3208 585.1959 53.756 584.3018 51.9677 582.1781 50.6264 579.8309 50.0675 578.2661 49.0616 577.1484 42.8024 572.7893 42.2436 572.0069 41.7965 571.001 41.2376 570.1068 39.8964 569.7715 37.9963 569.7715 37.1021 569.6597 32.6312 566.4184 31.9606 564.7418 33.4136 562.0593 29.837 558.8179 27.7133 554.3471 22.4601 532.6635 20.3364 527.7455 16.7597 525.1748 17.4304 524.5042 17.8774 523.4982 13.9655 523.3865 10.1652 522.6041 9.4946 522.2688 7.0356 520.8157 6.5886 520.1451 4.5767 517.3508 2.6766 508.7444 1 505.9502 5.9179 503.8265 13.9655 502.2617 21.5659 502.4853 27.4898 501.0322 31.9606 498.4615 32.9666 497.9026 39.4493 492.9847 45.932 490.6375 51.8559 493.6553 53.0854 495.3319 64.5978 510.0857 66.3861 513.8859 67.1685 518.0215 66.8332 523.2747 65.1567 531.434 65.8273 534.6754 69.2922 536.9108 75.6631 535.346 80.5811 530.7634 85.2755 529.1986 86.2814 530.7634 90.6405 536.799 92.6524 541.4934 94.4407 544.0641 97.0114 545.0701 105.1707 545.8525 108.1886 547.4173 113.6653 553.0058 113.7771 553.1176 115.5655 554.1235 117.5773 554.4589 119.5892 554.1235 121.4893 553.1176 123.2777 552.3352 137.2491 543.3935 141.9435 541.4934 163.18 536.2402 164.1859 536.0166 168.2097 535.9048 173.0158 537.805 176.9278 540.5992 178.4926 543.5053 178.6044 547.3055 177.9338 553.0058 179.6103 563.2888 178.8279 566.8655 172.9041 576.4778 171.7864 581.0604 172.7923 583.2958 173.2394 584.4135 183.187 586.9843 186.7637 589.8903 190.0051 593.467 194.1406 596.7084 196.7113 597.9378 206.659 602.744 210.1239 606.2089 211.2416 607.9972 211.6887 609.6738 211.3534 611.2386 210.1239 612.8034 205.9883 618.2802 204.8706 623.9805 206.4354 629.9044 210.1239 635.94 214.7065 642.4228 218.1714 649.5761 227.2249 674.8364 237.396 694.1728ZM76.5573 217.6923L72.5336 217.0217 70.857 211.7684 71.4158 211.2096 71.9747 210.8743 72.6453 210.7625 73.4277 210.8743 78.3457 215.1216 76.5573 217.6923ZM1015.8823 370.5953L1012.6409 369.7011 1010.4055 370.4835 1007.8348 368.2481 1006.1582 364.8949 1006.6053 361.9889 1008.8407 363.7772 1010.5173 363.2184 1011.9703 361.9889 1013.7586 361.9889 1016.3294 364.6714 1017 368.2481 1015.8823 370.5953ZM975.8682 347.3469L973.2975 348.0175 969.8326 347.7939 970.615 342.2054 965.0264 334.4932 965.0264 329.1282 967.1501 330.2459 969.8326 329.3517 970.9503 330.8047 971.3974 335.6109 973.0739 338.0699 975.1976 340.0817 976.9859 343.0996 977.2095 345.8938 975.8682 347.3469Z" />
</svg>