<?xml version="1.0" encoding="utf-8"?>
<svg xmlns="http://www.w3.org/2000/svg" viewBox="0 0 1021 994" style="stroke-width:0.25px;stroke-linejoin:round;stroke:#444;fill:#ddd" fill-rule="evenodd">
  <path class="BA" d="M505.3116 872.1041L505.1998 871.9923 480.0513 856.4561 484.6339 856.6796 491.6755 859.921 496.1463 861.1505 492.2343 857.2385 486.4222 853.8854 500.3936 850.9793 507.7705 845.5025 506.8763 835.6667 506.8763 835.5549 506.7646 835.5549 498.8288 816.6656 490.8931 807.2768 488.0988 804.0354 452.6673 780.4517 450.3201 778.9987 446.2964 774.1925 443.2785 767.3745 441.1549 759.9976 439.3666 756.1974 436.684 753.7384 431.4308 750.3853 420.8125 740.4376 410.7531 725.0132 404.941 707.1298 409.7472 677.0634 405.6117 667.7864 397.5641 662.3096 372.4156 658.3976 357.2147 649.7912 351.4026 644.538 343.1316 637.1611 330.5014 622.2955 289.3696 580.046 260.4209 556.9094 256.6207 550.8737 254.497 543.2733 253.4911 537.1259 251.591 531.8726 240.8609 521.925 232.3663 510.0772 219.6244 497 212.1358 485.9347 209.3415 481.7991 205.3177 476.993 200.7351 473.4163 189.3344 469.2807 187.2108 465.0334 185.9813 459.6684 182.6282 454.0799 180.0574 453.0739 173.2394 453.521 170.4451 453.2975 167.8744 451.8444 164.9683 449.4972 159.9386 444.4675 156.1384 438.0966 150.3263 423.9017 146.6378 417.3072 135.349 405.1241 131.1017 398.8649 126.1837 383.2169 123.7248 371.9281 123.5012 366.3395 124.1718 362.4275 126.8543 356.5036 127.7485 353.4858 128.4191 347.3384 128.4191 347.1149 127.6367 343.7617 124.8425 340.9674 119.4774 337.3908 114.7831 336.1613 111.877 336.0495 110.8711 337.279 110.9828 334.3729 112.7712 332.9199 114.8948 331.4669 116.4596 328.7844 116.4596 323.1958 114.6713 316.266 108.3003 298.3826 106.9591 291.2293 105.1707 284.7465 102.1529 280.8345 96.6761 279.8286 87.1756 284.0759 81.8106 283.4053 76.4455 277.5932 78.4574 271.7811 82.8165 266.1925 83.9342 261.3864 86.0579 260.2686 86.505 259.9333 85.6108 255.0154 84.2695 250.4328 82.2576 247.0796 79.0163 245.5149 72.6453 244.6207 69.404 243.503 66.8332 241.7146 63.3683 236.5732 61.3564 227.5197 58.5622 223.4959 56.5503 223.3842 54.4266 224.6136 52.1912 225.1725 50.2911 223.0488 49.3969 219.9193 48.6145 216.119 47.7204 212.6541 45.932 210.6422 42.6906 210.4187 40.7905 212.6541 39.4493 215.7837 37.4374 218.1309 35.202 218.9133 30.6194 219.2486 28.0486 220.1428 24.2484 220.7017 22.013 218.2427 20.3364 214.5542 18.3245 211.2011 12.1771 206.9538 10.7241 205.0537 4.1296 194.1001 1.2235 187.8409 1 181.6935 4.6884 176.552 10.0535 174.8755 14.6361 172.7518 15.8656 166.2691 13.4066 159.3393 9.2711 152.7448 5.6944 145.3679 4.8002 136.0909 5.6944 133.4084 6.9239 129.6081 13.2948 118.3193 14.3008 111.8365 11.2829 100.6594 11.2829 93.7296 17.4304 77.8581 18.5481 72.1578 17.6539 50.2506 17.8774 47.3446 20.7835 39.297 23.466 36.8381 29.2781 31.473 43.3613 29.1259 68.2862 29.9083 74.2101 28.6788 77.1162 28.7905 80.2458 30.3553 82.4812 33.7085 82.3694 36.9498 81.3635 39.6323 81.2517 41.3089 83.4871 42.9855 89.1875 44.215 92.4288 46.7857 96.4526 53.3802 101.9294 67.7987 106.512 73.8343 130.3193 97.7534 137.6961 102.336 147.6438 106.695 157.2561 108.8187 163.5153 107.1421 164.9683 101.8889 167.7626 91.3824 173.1276 81.4348 174.3571 78.4169 174.8042 74.1696 174.3571 71.7107 174.2453 69.6988 176.1454 66.2339 178.6044 64.5573 185.4224 62.4337 188.2167 60.31 191.7934 54.7215 200.288 35.7204 212.5828 27.3375 227.6719 27.7846 279.5338 43.3208 286.24 42.4266 289.4814 39.6323 289.8167 36.8381 289.705 33.7085 291.158 29.2376 293.7287 26.6669 296.6348 25.4374 299.2055 23.6491 300.6585 19.5135 302.7822 18.1723 305.4647 15.1545 307.5883 12.0249 308.3707 10.3483 315.5241 4.3127 317.6477 6.4363 319.7714 14.1485 320.1067 17.1663 319.9949 20.2959 321.5597 22.3078 326.9248 21.749 326.1424 19.1782 325.1364 16.7193 328.9366 18.0605 332.178 22.0843 334.8605 23.9844 337.4312 19.1782 338.3254 22.0843 338.7725 24.2079 338.4372 26.4433 337.4312 29.5729 338.996 28.2317 343.1316 25.5492 344.6964 24.3197 349.7261 35.385 360.7914 43.7679 367.7212 47.0092 383.9281 54.4979 386.7223 52.9331 399.1289 52.0389 400.2466 50.3624 405.2763 39.4088 415.3358 46.1151 420.2537 48.127 428.7483 53.7155 431.2073 55.8392 434.7839 57.851 439.5901 57.2922 448.1965 54.4979 448.7553 53.2684 449.426 51.033 450.6554 49.58 452.6673 50.9212 454.2321 53.3802 454.4557 55.3921 453.6733 57.5157 451.7732 59.7512 455.1263 60.9806 458.1441 60.4218 464.4033 57.0686 462.0561 64.7809 460.7149 67.1281 462.615 66.4574 475.6922 64.6691 481.3925 65.3397 484.2986 64.8926 489.6636 61.5395 499.2759 51.2565 504.8645 48.3505 513.4708 48.7976 521.2948 53.2684 528.2246 60.1982 542.8667 79.0876 547.5611 83.4466 552.8143 85.5703 555.385 85.235 563.0972 81.9936 570.2506 80.6524 572.486 79.4229 576.7333 75.3991 592.6048 56.2862 596.5168 54.2744 600.5406 54.1626 604.6761 56.5098 619.0946 69.4752 624.7949 72.2695 629.9364 73.2755 632.9542 73.2755 635.525 73.3872 641.1135 72.1578 645.6961 69.3635 647.4845 65.4515 647.708 60.7571 648.2669 56.1745 651.0612 52.5978 657.5439 51.2565 663.8031 53.7155 675.6508 62.3219 679.451 63.9985 697.8933 65.5633 702.8112 67.9105 707.3938 71.5989 713.2059 77.9699 716.8944 81.9936 721.0299 84.6761 723.3771 86.1292 730.1952 88.6999 736.4543 88.9234 736.0073 83.782 734.666 79.3111 734.7778 76.7404 734.8895 75.958 738.6898 74.3932 740.8134 74.505 744.949 75.6227 747.0726 75.6227 748.7492 74.952 752.4376 72.7166 754.1142 72.3813 756.1261 73.2755 757.2438 74.952 759.0321 79.87 760.4851 82.776 762.3853 85.235 764.5089 86.2409 766.9679 84.8997 767.7503 83.1113 768.3091 80.8759 768.9798 78.7523 770.321 77.2992 772.1094 77.0757 773.6741 78.0816 774.9036 79.7582 784.6277 99.6535 787.7573 103.4537 790.8869 104.7949 798.152 105.4656 799.9404 106.1362 800.9463 107.2539 801.7287 108.7069 802.5111 110.9424 802.6229 111.7248 802.6229 113.7366 802.7347 114.8543 803.2935 115.8603 804.6348 117.6486 805.0818 118.9899 804.2994 122.5666 798.5991 126.9256 796.699 130.5023 799.4933 141.0088 808.435 150.6211 814.8059 154.8684 819.165 157.6627 827.2125 160.3452 849.3432 159.7864 857.1672 159.5628 860.0733 158.6686 868.3443 156.0979 873.7094 155.3155 877.9567 153.8625 901.3168 136.7615 904.5582 135.9791 906.2348 138.2145 907.2407 141.2323 908.4702 143.0207 911.0409 143.0207 915.7353 141.0088 918.3061 140.5617 929.8185 143.0207 932.1657 142.6854 934.4011 141.5677 936.6365 141.5677 941.8898 146.5974 944.4605 147.4915 947.143 147.1562 947.8136 146.8209 947.9254 146.4856 948.8196 147.6033 950.3844 149.3916 951.9492 150.8447 952.9551 152.9683 953.7375 155.9861 953.9611 159.6746 953.0669 160.6805 951.7256 161.0158 950.6079 162.8042 941.4427 207.0656 938.7602 213.7718 936.1894 217.5721 930.9362 222.0429 928.2537 225.0607 926.2418 228.4139 922.4416 239.3674 910.2585 260.2686 909.029 261.4981 906.2348 263.1747 905.0053 264.8513 904.4464 267.3102 904.67 273.1223 904.2229 275.6931 902.6581 278.5991 900.9815 281.1699 898.9696 282.8464 889.8044 285.976 889.022 291.6763 893.2693 307.8832 892.7105 317.8308 889.6926 323.1958 886.116 327.7784 883.8805 335.3789 884.3276 342.3087 886.3395 349.5738 892.0398 362.0922 896.846 367.7925 902.0992 370.2515 913.1646 372.7105 918.6414 375.393 920.8768 376.1754 924.5652 376.2871 932.9481 374.2752 935.9659 374.8341 940.325 378.6343 944.9076 385.2288 948.0372 393.0528 948.596 400.4297 950.2726 405.0123 955.1905 410.1538 966.5912 418.6484 969.2737 421.4427 971.1738 422.4486 972.6268 422.0015 975.6447 418.9837 977.2095 418.9837 979.3331 421.8898 979.892 428.3725 981.5685 430.6079 985.5923 434.4081 990.2867 441.338 991.8515 443.5734 1000.3461 448.4913 1004.5934 453.7446 1006.9406 455.6447 1007.9465 454.6387 1009.5113 452.5151 1011.8585 451.7327 1015.0999 454.6387 1017 461.4568 1014.8763 467.3806 1010.4055 472.2986 999.6755 480.3461 993.5281 482.5815 987.1571 483.1404 972.2915 481.6873 958.5437 482.6933 954.6317 483.811 950.8315 484.0345 947.4783 481.9109 940.7721 475.5399 934.1776 470.8455 930.7127 469.6161 926.9124 469.8396 921.5474 471.6279 919.312 473.6398 917.859 477.1047 917.9707 479.6755 919.2002 484.1463 918.6414 486.7171 915.6235 489.6231 918.6414 491.635 927.5831 498.453 935.5188 508.8477 949.4902 531.4255 976.0917 560.2625 981.345 572.1102 987.6042 592.1173 988.0513 601.6178 981.345 608.2123 980.2273 612.5714 979.7802 617.7129 980.1155 622.7426 981.345 626.5428 983.2451 628.2194 983.9157 629.8959 983.3569 631.4607 981.345 632.6902 971.5091 628.7782 968.3795 629.0018 965.1382 636.8257 962.9028 639.9553 960.7791 636.714 958.6554 630.6783 954.967 623.8603 950.4961 618.0482 946.1371 615.4774 943.3428 616.2598 937.3072 621.066 934.2893 622.8543 931.1597 622.9661 924.5652 621.8484 921.771 622.7426 918.0825 628.6664 915.6235 636.714 912.4939 642.7496 906.7936 642.7496 894.387 640.8495 887.9043 641.6319 880.9745 649.903 875.833 651.9149 870.2444 652.1384 865.8854 650.5736 862.4205 646.3263 859.6262 640.9613 855.9377 637.3846 850.0139 637.9435 846.2136 640.8495 840.0662 647.7793 835.2601 650.1265 832.8011 651.9149 831.2363 654.9327 831.3481 657.9505 833.807 659.8506 837.8308 660.8565 839.7309 662.086 843.1958 667.5628 843.084 669.91 841.9663 672.8161 841.9663 674.7162 847.6667 673.1514 849.455 674.4926 858.5085 686.4521 866.2207 708.024 874.0447 723.1131 872.2563 724.6779 865.3265 725.0132 862.3087 726.6898 861.7498 727.4722 860.4086 729.3723 858.732 732.5019 856.7201 735.5197 853.9259 737.9787 853.1435 736.1903 853.0317 735.855 847.7784 729.037 845.4312 725.0132 844.7606 721.9954 844.9842 719.4246 844.7606 716.9657 842.9723 714.3949 835.9307 709.477 829.6715 707.6887 814.1353 709.1417 809.3292 711.3771 810.2233 712.8301 811.7881 716.1833 812.5705 717.5245 805.7525 719.76 772.4447 744.2378 768.5327 750.1617 774.7919 753.1795 763.6147 769.051 759.3674 778.1045 757.2438 788.8345 757.132 789.6169 757.2438 798.8939 761.9382 826.0543 751.3199 824.6013 735.8955 824.8249 721.3652 828.0662 713.4295 835.6667 708.3998 849.5263 708.6233 855.7855 711.1941 862.8271 717.3415 875.3454 718.7945 882.1635 716.8944 885.6284 713.653 888.1991 711.0823 892.1111 711.3058 898.2585 713.7648 906.7531 717.2297 915.2477 726.2832 930.1133 731.6482 935.5901 736.119 941.4022 738.8015 951.1263 738.6898 961.4092 736.9014 965.8801 735.7837 968.7861 730.1952 974.1512 727.5127 975.716 722.2594 978.8455 724.0477 982.3105 724.7184 985.5518 723.7124 987.6755 721.0299 988.0108 718.1239 986.1107 715.1061 985.8871 712.0882 987.1166 709.4057 989.6873 705.1584 988.1226 695.8814 987.0048 692.0812 984.5459 691.8576 984.2106 686.6044 976.4983 683.6983 974.3747 676.6568 974.8218 662.4618 969.9039 653.9672 965.3212 608.4763 934.5842 594.3932 925.5307 588.2458 920.2774 577.0686 907.6473 570.6977 902.7294 561.5325 900.1586 558.7382 898.3703 550.5789 885.5166 550.02 881.4928 550.3553 872.8865 549.5729 869.4216 546.5551 865.286 544.2079 865.3978 542.0843 867.1861 540.0724 868.3039 534.4838 867.4097 523.642 863.0506 517.8299 861.9329 512.1296 863.2741 508.5529 866.9626 505.3116 872.1041Z" />
</svg>