<?xml version="1.0" encoding="utf-8"?>
<svg xmlns="http://www.w3.org/2000/svg" viewBox="0 0 1021 756" style="stroke-width:0.25px;stroke-linejoin:round;stroke:#444;fill:#ddd" fill-rule="evenodd">
  <path class="BF" d="M1017 424.6086L1012.4174 437.3505 1010.629 440.7036 1005.7111 446.2922 1004.2581 449.9806 1004.2581 452.3278 1004.3699 453.6691 1003.811 455.0103 1002.1344 456.6869 995.2046 460.5989 985.8158 468.3111 968.9384 485.6356 968.3795 486.1945 964.8029 487.8711 960.2202 487.5358 954.8552 485.4121 951.5021 483.8473 949.9373 483.6238 948.7078 484.4062 946.4724 483.7355 944.0134 484.2944 938.9837 486.3063 936.5248 486.5298 930.8244 486.0827 928.9243 486.7534 926.4653 487.8711 920.4297 489.2123 918.3061 490.33 915.7353 491.2242 913.0528 486.1945 910.8174 486.3063 911.0409 485.4121 911.3762 483.6238 911.5998 482.7296 899.5285 481.7237 897.0695 481.2766 894.9459 480.0471 894.2752 481.9472 892.934 482.6178 892.934 482.7296 891.3692 483.1767 889.6926 484.4062 888.5749 485.971 888.4631 487.0887 889.6926 489.8829 887.569 491.2242 884.6629 492.4537 882.0922 494.1303 880.9745 496.701 881.7569 498.9364 882.9864 500.7248 883.2099 502.4013 880.9745 504.3014 880.0803 503.1837 879.1861 502.8484 878.292 503.1837 877.3978 504.3014 876.6154 502.8484 875.0506 501.1718 873.5976 500.3894 873.0387 501.9542 873.2623 503.0719 874.4917 504.3014 874.8271 505.6427 874.6035 506.6486 873.0387 509.6664 868.7914 507.6546 866.6678 506.9839 864.2088 506.8722 863.0911 507.0957 862.4205 507.5428 861.7498 507.8781 860.6321 507.8781 860.8557 507.2075 859.8497 505.7545 858.6202 504.7485 857.279 506.7604 855.9377 508.1017 855.2671 509.6664 857.7261 513.6902 858.1732 518.1611 858.8438 520.3965 857.5025 519.9494 855.0436 518.7199 853.5905 518.7199 853.0317 519.3905 852.1375 521.7377 851.4669 522.2966 847.2196 523.1908 846.549 523.5261 846.6607 525.4262 847.1078 525.3144 848.002 524.532 849.1197 524.8673 849.3432 525.4262 849.1197 526.991 849.1197 527.5498 849.5668 527.8851 850.7963 528.444 851.0198 528.444 851.2433 530.0088 851.2433 531.4618 851.4669 532.9149 852.3611 534.2561 853.8141 535.8209 853.5905 537.8328 853.1435 538.5034 852.2493 537.6092 851.3551 536.268 851.0198 535.5974 849.6785 535.1503 845.7666 534.7032 845.2077 534.9267 843.8664 535.5974 843.084 535.5974 842.7487 535.3738 842.0781 534.0326 841.7428 533.809 841.0722 533.4737 840.4015 532.9149 839.5074 532.2442 836.7131 531.7971 836.1542 531.5736 835.5954 531.7971 834.7012 533.0266 833.9188 534.5914 832.9129 536.268 832.4658 536.4915 832.2422 537.8328 832.354 539.2858 832.8011 540.5153 833.807 540.9624 834.5894 541.7448 834.7012 543.1978 834.3659 544.7626 833.807 545.4332 831.5716 545.4332 829.7833 545.2097 825.8713 543.086 809.2174 543.3096 796.8108 543.5331 788.7633 545.0979 772.78 550.7982 774.3448 545.3215 772.2211 544.7626 772.6682 544.2037 772.8917 543.6449 773.0035 543.1978 773.1153 542.5272 773.1153 542.1919 772.8917 541.8565 772.5564 541.633 758.2497 538.727 747.0726 536.3798 717.7886 530.3441 702.0288 527.1028 695.3226 525.7615 688.8398 524.4202 671.4035 520.7318 671.0682 522.8554 671.5153 524.0849 671.8506 525.3144 670.8447 527.2145 669.1681 528.7793 662.7971 533.5855 660.4499 530.7912 657.991 528.7793 655.532 528.7793 653.073 531.9089 652.5142 533.809 652.1789 536.8268 651.5083 538.1681 649.9435 539.5094 646.5903 541.0741 645.3608 542.5272 645.3608 542.6389 645.0255 542.8625 644.6902 543.1978 644.2431 543.4213 643.796 543.5331 638.7663 543.4213 636.0838 543.6449 634.2955 544.4273 633.066 546.5509 632.1718 549.7923 630.8306 552.6983 628.5952 554.1514 622.4477 548.1157 622.7831 547.2216 623.789 546.2156 624.3479 545.2097 623.5655 544.2037 622.336 544.092 621.4418 544.4273 620.8829 544.3155 620.7712 542.8625 619.877 542.8625 605.235 542.6389 605.235 542.5272 604.5644 541.633 603.782 541.2977 603.1113 541.633 602.3289 542.5272 599.5347 542.9743 596.7404 546.2156 594.505 546.5509 595.2873 544.7626 593.9461 544.7626 593.3872 544.3155 592.3813 542.6389 591.4871 541.8565 590.3694 541.633 572.7096 540.2917 569.0211 540.8506 567.9034 542.8625 552.3672 542.6389 536.0486 542.5272 532.919 541.9683 528.56 540.2917 527.3305 539.7329 525.7657 539.0623 509.4471 538.6152 507.2117 539.2858 506.3175 541.633 504.8645 542.4154 484.8574 542.6389 456.8029 542.9743 427.8541 543.1978 396.7817 543.5331 371.745 543.7567 359.6737 543.8684 356.8794 543.9802 356.8794 542.5272 345.8141 542.3036 345.9259 543.086 345.5905 543.9802 346.3729 546.5509 347.7142 548.8981 348.4966 551.3571 347.826 554.3749 346.0376 556.275 344.0257 557.8398 342.3492 559.8517 341.3432 562.5342 340.002 568.6816 337.7666 572.1465 337.3195 575.1644 336.6488 576.3938 335.1958 577.7351 334.8605 578.5175 335.1958 579.8587 335.3076 580.4176 335.5311 580.4176 336.09 580.5294 336.6488 580.8647 337.0959 581.4235 337.0959 582.3177 336.7606 582.8766 336.4253 583.3237 335.6429 585.4473 333.9663 588.5769 333.5193 589.9182 334.0781 592.3771 337.9901 599.3069 338.2136 600.5364 338.4372 603.3307 338.7725 604.5602 339.4431 605.3426 341.1197 607.1309 341.5668 607.6898 341.9021 610.2605 342.908 611.9371 347.3789 615.9608 349.0554 616.7432 351.0673 617.0785 354.1969 617.1903 354.7558 617.7492 354.1969 618.9787 352.9674 620.2081 351.6262 620.767 349.9496 620.8788 348.7201 621.3259 347.7142 622.1083 346.82 623.3377 345.9259 625.2378 345.2552 627.9204 345.2552 630.6029 346.2612 632.7265 347.3789 633.2854 348.7201 633.3971 349.8378 633.7325 350.2849 634.5149 350.6202 636.0796 351.4026 636.3032 352.5204 636.3032 353.7498 636.7503 355.0911 637.5327 355.8735 637.9798 356.3206 638.6504 356.4323 640.327 355.9853 642.1153 355.0911 643.233 352.4086 645.2449 350.732 647.9274 350.732 650.6099 352.0733 656.422 352.0733 667.5991 352.6321 670.2816 355.5382 674.6407 356.4323 676.9879 356.3206 680.341 355.0911 686.2649 355.6499 689.618 358.6678 694.536 359.0031 695.7655 358.2207 697.1067 353.7498 702.1364 351.6262 706.4955 351.1791 709.178 352.0733 711.8605 353.0792 713.09 353.7498 713.2018 354.5322 713.09 355.6499 713.6488 356.3206 714.7666 356.4323 715.8843 356.8794 717.1138 357.8854 717.8961 358.2207 718.2315 356.6559 719.5727 355.5382 721.4728 354.8675 723.7083 354.644 725.7201 354.8675 727.8438 355.5382 729.185 360.1208 733.4323 364.8152 739.3562 360.7914 743.1564 357.6618 749.7509 355.2029 751.8746 352.185 751.651 349.279 749.4156 336.4253 732.3146 330.0543 719.7963 327.7072 713.7606 326.1424 710.7428 324.1305 708.6191 321.6715 708.0603 317.3124 709.4015 314.9652 709.2898 312.7298 707.3897 311.5003 704.3718 309.8238 698.1127 307.253 694.8713 304.347 694.2007 301.4409 694.2007 299.2055 692.8594 298.6466 690.2887 298.8702 687.1591 298.8702 684.7001 297.3054 683.6942 295.2935 685.1472 290.9344 691.2946 289.1461 693.0829 286.1283 693.4183 284.787 691.7417 284.5635 689.0592 284.6752 686.4884 284.1164 685.5943 282.7751 686.0414 281.3221 687.0473 280.2044 687.3826 278.7514 686.712 276.516 684.5883 274.9512 684.0295 254.7206 682.3529 247.0084 683.3589 244.8847 682.9118 243.4317 681.9058 242.6493 680.8999 241.6433 679.8939 239.9668 679.3351 239.5197 679.6704 238.2902 681.1234 237.6196 681.5705 236.8372 681.347 235.1606 680.4528 234.1547 680.2293 227.8955 681.0117 226.1072 681.6823 224.7659 682.4647 222.6422 684.7001 221.6363 685.5943 219.1773 686.2649 210.6827 686.4884 210.3474 686.4884 208.0002 687.2708 203.1941 690.4004 200.3998 691.0711 198.4997 692.077 197.9408 694.2007 197.1584 696.1008 193.0229 696.1008 192.0169 696.4361 190.0051 697.442 189.8933 697.7773 189.7815 698.448 189.558 699.1186 188.7756 699.2304 187.9932 699.0068 186.6519 698.2244 179.3868 696.1008 177.1514 696.3243 174.8042 698.1127 171.2275 703.3659 168.7685 704.5954 163.9624 705.266 161.727 706.0484 160.0504 707.6132 160.6092 707.725 162.0623 708.2838 158.262 712.3076 157.4796 713.5371 157.4796 714.6548 157.9267 717.7844 157.5914 719.3492 155.9149 722.7023 155.0207 723.5965 155.0207 723.7083 151.5558 722.2552 149.5439 721.6964 149.2086 723.7083 149.2086 725.8319 148.7615 727.0614 147.0849 726.1672 146.1908 724.826 145.073 720.4669 143.9553 718.5668 140.8257 717.8961 136.2431 718.1197 131.9958 717.6726 130.2075 714.9901 130.5428 712.5311 131.7723 709.178 132.1076 706.9426 131.7723 706.2719 130.9899 705.9366 129.9839 705.7131 127.6367 705.7131 127.1897 705.9366 127.1897 706.4955 126.7426 707.3897 126.0719 709.178 126.0719 710.8546 125.5131 712.1958 123.7248 712.7547 122.16 712.1958 120.3716 709.5133 118.9186 708.2838 117.242 709.9604 115.6772 710.7428 114.1124 710.9663 112.2123 710.9663 112.4359 711.3017 111.9888 712.084 111.0946 712.9782 110.0887 713.6488 108.971 714.0959 108.971 713.9842 108.971 713.5371 108.3003 712.7547 106.512 712.084 105.8414 711.5252 105.6178 710.5193 105.3943 709.178 104.9472 708.2838 103.4942 706.9426 102.7118 706.0484 102.2647 705.3778 101.7058 704.8189 100.3646 704.7072 99.0233 704.8189 98.5762 705.266 98.7998 705.9366 99.5822 706.6073 97.5703 706.9426 95.8937 704.1483 94.2172 704.7072 93.7701 703.5894 93.5465 703.1424 92.4288 702.1364 92.4288 701.1305 93.6583 701.2422 94.776 701.0187 96.7879 700.3481 95.5584 698.1127 94.9996 695.2066 93.8818 693.1947 91.5347 693.9771 90.6405 691.2946 88.8521 689.7298 86.2814 688.9474 83.2636 688.7239 82.1459 688.3886 81.6988 687.8297 81.1399 687.1591 79.6869 686.9355 78.681 687.4944 78.0103 688.6121 77.3397 689.5063 76.222 689.171 72.4218 685.5943 72.1982 684.1413 74.0983 678.7762 73.8748 677.9938 72.4218 674.8642 70.9688 672.9641 70.4099 671.7347 73.2042 671.6229 73.6513 669.8345 72.7571 667.4873 71.3041 665.4755 69.7393 664.4695 68.0627 663.6871 66.7215 662.3459 66.0508 659.9987 64.8213 661.1164 63.2565 661.787 61.8035 661.5635 60.7976 659.9987 62.5859 659.2163 61.6917 658.9927 61.0211 658.5457 60.127 658.3221 59.0092 658.3221 60.2387 657.2044 63.2565 656.1985 63.033 655.1925 59.7916 653.0689 59.0092 651.7276 59.7916 649.3804 56.4385 649.4922 56.4385 648.0392 57.5562 645.692 57.2209 643.0095 56.8856 643.9036 56.215 644.686 55.5443 645.3567 54.5384 645.692 52.9736 645.5802 52.8618 645.0213 53.3089 644.2389 53.6442 643.4565 53.6442 636.3032 52.7501 634.4031 52.6383 634.2913 50.6264 632.9501 48.5028 632.8383 47.6086 634.5149 46.3791 634.7384 40.1199 630.9382 38.108 631.497 32.0724 630.6029 29.9487 630.4911 29.0546 631.1617 28.3839 632.0559 27.4898 632.8383 26.0367 633.1736 24.5837 633.2854 23.9131 633.1736 23.3542 632.7265 22.6836 632.503 22.2365 632.9501 21.6777 633.7325 21.1188 634.0678 18.5481 634.0678 16.3127 633.5089 14.6361 632.6147 13.1831 631.3853 12.8477 630.6029 12.4007 629.3734 11.8418 628.3674 11.0594 627.9204 9.8299 627.8086 9.0475 627.6968 7.1474 627.0262 7.0356 624.679 5.4708 621.4376 3.2354 618.4198 1 617.1903 1.6706 615.2902 2.6766 608.5839 3.2354 607.578 6.2532 602.8836 7.9298 595.9538 7.5945 594.7243 6.5886 593.8301 6.7003 591.8183 7.5945 589.6946 8.9358 588.5769 6.9239 587.7945 6.8121 586.6768 6.1415 584.5531 6.0297 583.3237 7.2592 576.3938 7.9298 574.382 8.824 573.4878 9.9417 572.9289 10.7241 572.3701 10.9476 571.0288 10.8359 569.9111 12.6242 562.4224 12.1771 560.8576 10.6123 558.0634 8.2651 548.8981 6.4768 545.3215 3.5707 545.9921 4.4649 542.6389 3.1237 535.8209 2.9001 534.5914 3.3472 532.5795 5.1355 531.3501 17.9892 529.6735 20.1129 529.0029 22.3483 528.1087 25.3661 526.2086 26.7074 524.3085 27.4898 519.0552 28.7193 516.0374 32.743 511.9019 34.3078 509.1076 34.5314 507.0957 33.6372 493.3479 34.196 491.0007 36.2079 489.3241 39.0022 487.9828 40.0081 486.8651 39.8964 485.0768 39.2257 482.1707 39.2257 471.3289 37.9963 466.6345 33.4136 462.9461 31.9606 462.7226 30.7311 462.9461 29.5017 462.7226 28.6075 461.1578 28.4957 459.7047 29.2781 458.2517 30.1723 456.9105 30.9547 455.5692 31.9606 450.4277 32.2959 447.6334 32.1842 445.2862 31.1782 442.7155 29.6134 440.9272 27.6015 439.5859 25.1426 438.4682 23.8013 438.1329 22.6836 438.0211 20.4482 438.4682 20.0011 437.9094 16.648 435.8975 15.8656 435.6739 15.0832 434.2209 15.0832 433.5503 15.9773 433.3267 17.6539 432.9914 18.2128 433.215 19.7776 434.3327 20.56 434.668 21.2306 434.4444 22.2365 433.4385 22.5718 433.1032 27.0427 432.4326 27.6015 432.0972 28.1604 431.6502 28.7193 431.2031 29.5017 431.2031 30.3958 431.6502 31.0664 432.209 31.7371 432.5443 32.743 432.4326 33.6372 431.6502 36.2079 428.0735 41.1259 423.938 44.5908 420.1377 46.4909 418.4612 50.5146 417.2317 54.7619 414.6609 56.5503 413.7668 58.5622 413.655 63.7036 413.7668 65.9391 413.5432 67.5039 413.5432 68.8451 413.2079 70.0746 412.5373 71.1923 411.5314 73.9866 410.4136 76.7809 410.6372 79.5751 411.3078 82.1459 411.3078 87.6227 409.2959 90.4169 409.4077 92.8759 411.5314 95.1113 410.8607 98.688 410.1901 100.5881 409.0724 101.5941 407.7311 102.4882 406.1663 103.3824 404.4898 104.7237 403.2603 106.0649 402.925 108.6356 403.2603 109.9769 403.1485 112.5476 401.919 112.6594 401.5837 113.2183 400.2425 113.4418 398.1188 114.7831 395.6598 119.3657 392.9773 123.2777 392.7538 124.5072 391.4125 121.2658 385.1534 132.5547 375.7646 133.1135 375.2057 133.2253 374.4233 133.0018 372.9703 133.4488 370.8466 133.4488 369.8407 133.7842 368.9465 135.2372 368.0524 137.0255 367.9406 138.3668 368.9465 139.3727 370.3996 140.4904 371.4055 144.2906 370.6231 143.1729 365.0345 138.4785 353.8574 139.4845 350.7278 141.7199 348.0453 144.1789 345.5864 145.9672 343.1274 146.7496 341.3391 146.7496 340.892 146.079 340.4449 144.9613 338.6565 142.167 332.5091 140.0433 330.3855 134.4548 326.1382 133.3371 323.9028 134.1195 317.0847 134.5666 316.7494 135.4607 316.9729 136.802 316.7494 140.6022 315.2964 144.8495 314.1787 149.0968 313.8433 152.897 314.7375 156.5855 316.8612 158.262 317.42 160.9446 317.0847 163.4035 316.3023 164.9683 315.1846 165.1919 315.0728 166.4213 313.3963 169.1039 304.9017 169.2156 303.3369 167.6508 297.413 168.0979 289.9243 166.9802 286.2359 164.633 283.218 160.9446 279.9767 159.268 277.7413 155.8031 270.1408 152.1146 266.6759 151.3322 265.5582 151.3322 263.8816 152.0029 262.7639 152.897 261.6462 154.4618 257.2871 156.5855 256.393 164.8565 256.7283 166.3096 256.393 167.2037 255.1635 166.9802 254.0458 164.1859 252.481 163.2917 251.2515 163.9624 249.3514 165.7507 247.0042 168.0979 244.8805 170.1098 243.5393 171.3393 243.3157 172.5688 243.5393 173.7982 243.5393 175.1395 242.8686 177.5985 239.9626 179.6103 236.833 181.734 231.468 183.0752 229.009 185.1989 226.9971 186.3166 226.4383 189.6697 225.5441 190.8992 224.8735 192.7993 222.6381 194.3641 222.0792 195.8172 221.5204 197.7173 220.2909 199.3938 218.7261 200.0645 217.4966 199.0585 216.826 197.4937 216.7142 196.7113 216.1553 198.4997 214.0317 198.835 213.6964 199.2821 213.5846 199.8409 213.6964 200.288 214.0317 200.9586 214.9259 201.0704 215.1494 201.741 217.8319 202.0763 218.6143 203.1941 219.0614 206.3237 219.6202 206.9943 219.9556 206.8825 221.4086 205.9883 221.9674 204.8706 222.191 203.8647 222.5263 201.1822 224.9853 200.0645 225.6559 198.4997 227.2207 200.0645 228.4502 203.0823 229.2326 205.653 229.3443 208.2238 229.1208 210.2356 229.5679 214.7065 231.3562 219.9597 232.6975 222.3069 233.7034 231.8075 241.4156 237.7314 244.9923 248.2378 253.2634 249.132 253.4869 250.8086 253.2634 251.7028 253.5987 253.7146 255.7223 254.9441 256.5047 255.7265 256.6165 258.6326 256.6165 263.9976 257.3989 265.5624 257.6224 267.1272 257.2871 268.4684 255.1635 268.3567 252.8163 266.7919 248.2337 267.2389 244.4334 270.145 243.3157 291.158 242.0862 292.9463 240.8568 288.3637 207.996 290.2638 203.0781 291.0462 199.9485 291.4933 192.6834 290.7109 189.442 288.0284 187.4301 290.5991 184.8594 294.064 186.0889 299.7644 190.448 303.341 190.7833 306.1353 190.2244 308.8178 190.1127 312.0592 192.0128 314.2946 194.2482 314.9652 195.4777 315.3006 197.3778 316.1947 199.3897 317.6477 198.9426 319.8832 196.4836 321.448 195.7012 322.4539 195.3659 325.5835 195.7012 326.5894 196.1483 327.4836 196.7072 328.4895 197.1542 329.3837 196.9307 333.8546 195.2541 338.3254 193.4658 334.7487 181.0592 334.0781 173.9058 336.2018 168.8761 338.4372 165.0759 343.4669 147.9749 343.2433 147.7514 343.0198 147.4161 342.6845 147.1925 341.9021 147.4161 345.367 141.7157 364.2563 131.0975 366.4917 128.6385 373.7569 120.4792 376.5512 118.0202 387.0576 111.9846 393.9875 110.1963 403.8233 112.4317 433.778 126.7384 437.9135 127.7443 439.9254 127.409 442.3844 126.2913 448.6436 123.497 449.7613 122.4911 450.3201 121.1498 452.6673 88.6244 453.6733 85.0477 457.4735 83.3712 463.7327 83.0359 474.2392 83.93 483.2926 83.4829 492.2343 81.6946 536.7193 52.6341 542.196 50.0634 566.6739 44.0277 571.5919 41.9041 576.1745 38.998 602.6642 15.3025 602.776 15.3025 609.5941 8.3727 611.0471 7.255 613.3943 5.5784 617.7534 4.349 645.9197 4.2372 650.0552 4.1254 651.1729 4.796 654.1908 12.8436 655.4202 14.4084 659.1087 14.5201 663.6913 12.3965 671.7388 7.4785 679.6746 6.0255 688.7281 8.1492 705.829 15.3025 738.1309 26.5914 738.4662 29.6092 737.3485 31.3976 735.5602 32.9624 733.9954 34.9743 733.7718 38.7745 737.4603 46.4867 738.3545 50.5105 729.7481 74.9883 730.5305 81.6946 734.3307 88.1773 736.119 89.7421 754.5613 106.7314 760.0381 114.1083 760.3734 114.8906 760.2616 116.0084 759.0321 117.5732 758.585 118.8026 757.9144 122.8264 757.3556 124.3912 754.226 129.1974 753.6671 130.7622 754.226 132.327 755.9025 134.7859 756.6849 135.6801 757.4673 136.3507 758.138 137.0213 758.6968 138.1391 758.585 139.0332 757.4673 141.1569 757.5791 142.2746 758.6968 143.6158 760.3734 144.51 761.7146 145.6277 761.9382 147.9749 763.0559 150.3221 765.1795 151.7751 767.415 152.8928 768.7562 154.4576 768.7562 155.5754 767.6385 158.0343 767.7503 159.3756 768.5327 160.3815 771.2152 162.1699 772.2211 163.2876 773.3388 165.7465 774.3448 167.1996 774.9036 167.8702 776.8037 169.7703 781.1628 172.5646 782.3923 174.3529 783.8453 175.9177 786.3043 176.8119 787.1985 178.0414 786.4161 180.5003 785.1866 183.2946 784.6277 185.3065 786.4161 188.5479 789.7692 189.7773 806.8702 189.2185 808.2114 189.442 808.5468 190.448 808.5468 191.4539 808.6585 192.3481 808.5468 192.7952 808.0997 193.354 808.2114 194.2482 809.7762 195.7012 812.2352 196.9307 814.5824 197.0425 819.3886 196.5954 825.3124 198.3837 832.2422 202.5193 837.3837 208.1078 838.0543 214.0317 840.5133 218.0554 844.7606 221.185 858.732 227.6678 860.9674 228.4502 866.4442 229.1208 868.5679 229.6796 870.5798 231.1327 873.0387 233.8152 869.5738 235.2682 867.0031 234.0387 864.9912 232.1386 862.644 231.468 861.9734 232.2504 861.3028 233.7034 860.0733 238.1743 859.1791 238.5096 856.273 237.2801 849.455 235.4917 839.1721 231.3562 836.3778 230.9091 834.7012 236.1624 834.813 247.4513 834.813 259.8579 834.9248 268.2407 834.9248 270.5879 835.2601 273.1586 836.3778 275.2823 840.0662 277.2942 849.3432 278.0766 853.1435 279.9767 860.5204 286.2359 868.1208 292.7186 877.6213 300.7661 880.9745 303.5604 891.481 312.5021 898.5226 318.426 907.3525 325.9146 910.9292 327.9265 915.1765 329.0442 928.3655 330.2737 944.5723 331.615 946.9195 331.3914 949.0431 329.9384 950.6079 327.703 951.9492 325.1322 954.1846 321.8909 954.967 320.1025 955.5259 319.4319 956.6436 319.2084 957.5377 319.6554 958.5437 319.879 959.9967 318.873 962.1204 316.5259 963.3498 315.8552 975.7564 316.8612 980.8979 318.3142 984.3628 322.2262 985.0334 324.7969 985.5923 325.4675 986.9336 326.9206 988.2748 328.0383 990.622 329.4913 991.7397 330.9443 992.6339 332.7327 993.081 334.4092 993.9751 342.345 994.6458 344.0216 995.6517 346.0334 996.4341 347.0394 998.1107 348.8277 998.5578 349.8337 998.5578 350.3925 998.1107 351.7338 998.1107 352.4044 998.446 355.3105 997.5518 356.7635 995.6517 357.2106 987.9395 357.8812 987.3806 357.7694 985.9276 357.0988 985.5923 356.987 984.8099 357.4341 983.804 358.6636 983.2451 359.1107 975.8682 360.6755 973.8563 362.352 973.6328 366.1523 976.0917 370.7349 981.5685 378.4471 991.1809 391.9714 1000.2343 404.6015 1010.4055 418.9083 1017 424.6086Z" />
</svg>