<?xml version="1.0" encoding="utf-8"?>
<svg xmlns="http://www.w3.org/2000/svg" viewBox="0 0 1021 670" style="stroke-width:0.25px;stroke-linejoin:round;stroke:#444;fill:#ddd" fill-rule="evenodd">
  <path class="BG" d="M648.4904 562.622L642.2312 563.2926 638.8781 562.2867 636.7545 560.4983 632.3954 555.5804 631.0541 554.6862 628.7069 554.5745 625.242 557.9276 616.3003 558.2629 611.9413 559.4924 607.5822 562.9573 606.3527 563.5162 605.235 563.6279 604.229 563.9633 603.1113 565.1927 602.2172 567.8752 602.1054 571.0048 602.5525 574.1344 603.3349 576.5934 604.0055 577.7111 605.235 579.4994 607.5822 580.6172 609.8176 581.0642 611.7177 581.9584 613.059 583.635 614.0649 585.4233 615.5179 591.0119 615.6297 592.5767 615.4062 596.0416 615.6297 597.4946 616.5239 598.277 619.0946 598.7241 619.9888 599.73 620.8829 602.6361 621.1065 605.095 620.7712 607.554 620.2123 610.2365 618.3122 612.2484 618.0887 613.7014 619.7652 617.5017 620.4359 618.5076 622.6713 620.6312 623.1184 621.9725 622.8948 623.6491 622.0007 624.2079 620.9947 624.5432 620.2123 625.8845 618.3122 631.2495 615.8532 636.7263 613.9531 639.7441 612.9472 640.303 611.8295 639.9677 597.8581 643.209 595.8462 644.215 591.4871 647.2328 587.7987 649.0211 586.0103 649.2447 583.7749 648.7976 581.5395 648.7976 577.5157 650.8095 575.1685 651.3683 572.0389 650.0271 567.3446 644.7738 563.6561 643.3208 561.9795 643.9914 555.9439 648.127 550.3553 648.574 548.4552 649.1329 546.4433 650.5859 545.3256 651.8154 544.2079 652.5978 542.4196 652.8213 540.8548 652.3743 537.5017 650.3624 535.8251 649.8035 521.5184 648.7976 519.2829 649.58 518.0535 651.5919 517.0475 654.0508 515.5945 655.8392 514.0297 656.398 512.6884 656.2862 511.459 655.8392 509.7824 655.7274 505.6469 656.398 478.3747 665.3397 474.5745 665.5633 470.7743 665.0044 467.6447 663.1043 460.7149 653.492 457.5853 650.9212 457.0264 650.5859 450.879 647.6799 450.3201 647.0092 448.9789 644.8856 448.5318 644.3267 447.7494 644.3267 445.0669 644.8856 418.4653 633.4849 413.5474 630.4671 411.4238 630.1318 409.7472 630.4671 406.3941 631.6966 400.0231 632.1437 399.576 635.0497 400.0231 638.8499 398.5701 641.9795 395.3287 641.8678 391.8638 638.6264 386.387 631.473 383.1457 628.6788 380.2396 627.2257 376.9982 626.7787 373.3098 626.7787 374.204 624.655 368.6154 624.655 366.38 624.0961 363.921 621.8607 363.8092 620.9666 364.1446 618.6194 364.0328 617.5017 363.3622 616.831 361.7974 615.8251 361.2385 615.1545 360.3443 613.925 359.5619 613.1426 358.8913 612.1366 358.3325 610.3483 357.8854 604.3127 355.8735 598.6123 352.5204 595.5945 347.826 597.3828 344.2493 598.1652 340.8961 602.9714 338.4372 603.4185 335.084 602.8596 332.5133 603.1949 327.1483 604.7597 325.6953 604.9833 321.3362 604.4244 319.8832 604.648 318.8772 605.2068 317.7595 605.6539 316.1947 605.095 315.9712 603.8656 316.3065 602.0772 316.1947 600.1771 312.9534 598.1652 310.3826 595.1474 307.4766 595.4827 304.4587 596.824 301.7762 598.6123 301.5527 598.7241 299.0937 600.8477 298.4231 602.189 297.7525 605.6539 297.3054 606.4363 296.0759 606.3245 295.4053 605.4304 294.6229 604.0891 293.3934 603.0832 288.5872 601.7419 282.1045 601.0713 277.2983 603.3067 277.7454 610.3483 278.1925 615.1545 278.0807 616.9428 277.0748 618.6194 275.2865 619.5135 273.3864 619.0664 269.8097 616.7193 269.1391 618.284 268.3567 618.7311 267.4625 618.9547 266.5683 619.6253 263.8858 622.3078 261.5386 622.4196 253.8264 616.831 252.5969 616.6075 248.1261 620.743 245.5553 621.9725 242.2022 622.8667 238.7373 623.3138 235.8312 623.0902 233.484 624.3197 229.7956 630.4671 227.1131 631.1377 221.8598 629.9083 216.3831 629.9083 213.2535 631.1377 209.2297 635.2733 208.7826 635.4968 206.7707 636.8381 201.2939 636.6145 190.5639 631.026 174.5806 630.5789 171.451 631.5848 166.5331 635.2733 163.6271 636.8381 160.2739 637.1734 158.4856 635.6086 157.0326 633.1496 154.0147 631.026 151.1087 631.1377 147.3085 632.8143 143.7318 635.1615 141.3846 637.3969 140.8257 639.0735 140.4904 642.9855 139.708 645.1091 138.255 646.5622 136.4667 647.5681 132.7782 648.6858 125.9602 649.4682 93.7701 644.4385 97.6821 641.4207 98.2409 637.3969 97.4585 632.9261 97.1232 628.2317 97.6821 626.8904 99.4704 624.5432 99.9175 623.5373 99.6939 622.3078 98.7998 620.0724 98.5762 619.0664 98.1292 603.8656 98.0174 600.5124 98.7998 596.9358 98.9116 595.7063 98.5762 594.2532 97.0114 591.7943 96.5644 590.5648 96.229 587.6587 96.4526 584.5292 96.8997 581.5113 97.6821 579.0524 98.4645 578.27 101.0352 577.5993 101.9294 577.0405 102.4882 575.9228 103.4942 572.7932 104.9472 570.446 107.0708 566.9811 108.8592 561.9514 108.7474 556.8099 105.8414 552.2273 104.1648 551.4449 100.2528 551.2213 98.4645 550.4389 97.4585 548.7624 93.9936 540.6031 92.3171 533.1144 91.3111 530.5437 90.5287 529.6495 88.6286 528.6436 88.1815 528.0847 87.958 527.8612 87.5109 526.2964 87.6227 523.055 87.2873 521.4902 85.6108 516.5723 84.3813 511.5426 84.046 506.2893 83.7107 503.9421 82.4812 501.5949 82.3694 501.4832 82.2576 498.5771 82.2576 498.4653 81.9223 496.9006 81.0282 495.8946 79.2398 494.6651 78.2339 494.5534 75.7749 495.4475 74.6572 495.4475 73.316 494.4416 72.8689 492.9886 72.4218 491.5355 71.7512 490.6414 70.0746 490.5296 62.6977 490.8649 61.58 490.4178 60.7976 489.5237 60.2387 488.5177 59.4563 487.8471 54.6502 486.8411 46.7144 482.8174 45.2614 482.035 31.1782 471.8638 27.7133 468.3989 27.2662 467.5047 25.2543 464.1516 23.1307 457.7806 16.9833 453.198 1 431.5144 4.0178 429.8378 10.8359 429.7261 13.7419 428.7201 16.0891 425.5905 18.6598 417.543 21.2306 414.3017 23.6895 413.0722 25.7014 412.6251 27.4898 411.3956 29.2781 407.8189 31.5135 399.7714 32.0724 395.1888 31.4018 391.9474 31.4018 391.8356 30.1723 388.7061 28.0486 386.2471 23.1307 382.5586 14.6361 374.7347 13.9655 374.3993 14.5243 370.0403 16.5362 361.0986 17.095 358.8631 17.8774 353.3864 16.7597 350.3685 20.8953 342.321 23.1307 340.1974 23.2425 339.5267 23.3542 338.8561 23.2425 338.1855 23.1307 337.5149 20.6717 335.6147 18.5481 332.2616 14.6361 322.8728 14.0772 322.0904 14.3008 321.1963 14.8596 320.4139 15.8656 318.8491 17.2068 317.5078 21.3424 315.3842 23.1307 313.9311 25.5897 310.0191 27.0427 308.6779 29.2781 308.6779 32.1842 309.125 33.3019 308.4543 33.4136 308.3426 34.196 307.1131 36.4315 305.5483 40.9023 304.9894 53.0854 308.3426 58.0033 307.1131 62.9212 304.9894 64.9331 302.6422 65.0449 302.3069 65.9391 299.848 68.8451 289.1179 69.851 286.3237 70.9688 284.4235 72.8689 283.3058 77.3397 282.1881 79.4634 281.4057 79.5751 281.2939 81.6988 278.2761 88.5168 271.7934 89.2992 270.0051 90.5287 265.9813 91.3111 264.4165 92.6524 263.187 95.4466 261.8458 96.7879 260.8398 100.0293 255.8101 103.0471 248.545 104.8354 241.0563 104.5001 238.262 104.2766 235.6913 101.5941 234.4618 93.5465 232.6735 90.6405 230.8851 88.4051 228.6497 84.1578 222.7259 80.2458 218.8139 79.2398 217.2491 78.681 215.5725 78.2339 211.437 77.5633 209.6486 75.5514 206.6308 63.9272 194.8948 62.5859 193.8889 61.6917 193.33 59.0092 192.1006 57.4444 191.9888 54.4266 192.1006 52.8618 191.5417 51.9677 190.5358 51.5206 190.0887 49.7322 186.2884 48.5028 184.9472 46.938 184.5001 43.473 184.7237 41.7965 184.2766 40.2317 183.1589 37.8845 180.0293 36.7668 178.9116 31.4018 176.3408 29.1663 174.2172 27.6015 169.9699 24.5837 159.2398 22.5718 155.2161 22.4601 154.0983 22.6836 152.9806 23.1307 151.8629 23.3542 151.3041 23.3542 150.7452 23.3542 150.1864 23.1307 149.6275 22.5718 148.8451 22.3483 147.9509 22.5718 147.1685 23.1307 146.3861 23.1307 146.2744 23.1307 146.1626 23.1307 146.0508 23.1307 145.9391 21.9012 143.1448 21.6777 138.0033 20.6717 134.9855 18.9952 133.4207 14.189 130.7382 12.1771 128.8381 10.6123 126.4909 9.3828 123.6966 8.3769 120.7905 7.5945 117.8845 7.5945 115.9844 8.1534 112.2959 8.0416 110.5076 3.7943 105.4779 1.6706 99.3305 2.5648 94.4125 4.5767 89.2711 6.1415 82.3413 6.4768 75.5232 6.9239 74.4055 8.6004 71.3877 8.9358 70.3817 9.3828 66.9168 9.4946 60.3223 9.8299 57.5281 11.8418 54.5102 15.4185 52.9454 20.56 52.0513 23.1307 51.716 26.7074 51.6042 28.4957 49.257 29.7252 46.0156 31.6253 43.1096 34.9784 41.9919 38.3316 42.2154 41.2376 41.6565 43.1377 38.1916 43.1377 36.1798 42.02 31.3736 41.9083 29.1382 42.2436 26.5674 43.9201 19.9729 43.5848 19.8612 43.3613 19.1905 43.1377 17.9611 43.3613 16.6198 43.6966 16.2845 46.3791 13.2667 48.8381 9.2429 50.2911 7.6781 57.2209 4.4367 92.0935 28.3558 98.0174 30.9265 105.3943 31.9325 108.6356 33.3855 112.3241 35.062 113.7771 41.9919 110.9828 48.9217 105.3943 52.0513 101.8176 52.6101 95.3349 54.7338 91.9817 55.1809 88.7404 57.3045 86.952 62.3342 83.04 79.3234 83.1518 84.3531 85.1637 88.7122 89.1875 92.2889 94.2172 93.4066 115.789 91.5065 128.6427 90.3888 133.5606 88.2651 139.2609 87.0356 145.4084 83.6825 160.0504 81.6706 185.9813 83.0119 203.5294 92.736 208.112 93.5184 210.571 93.8537 224.3188 90.8359 227.8955 91.5065 237.1725 96.9833 293.9523 111.29 295.5171 111.7371 324.354 110.284 327.8189 110.1723 330.6132 109.2781 339.6667 102.4601 345.367 100.56 350.8438 101.2306 377.11 111.0664 384.1516 113.749 391.8638 114.8667 426.0658 112.5195 445.2904 119.3375 466.3034 120.9023 473.0097 122.5789 478.3747 125.8202 478.8218 126.0438 484.4103 130.4029 490.3342 133.8678 497.4876 134.8737 501.176 133.8678 507.8823 130.8499 510.3413 130.4029 511.3472 130.1793 518.6123 130.6264 522.4125 130.2911 525.3186 128.7263 528.4482 127.9439 532.1366 126.3791 535.6015 124.2554 538.0605 121.7965 540.9666 119.6728 551.026 119.3375 552.0319 119.3375 558.8499 116.4315 562.6502 110.1723 562.8737 109.2781 568.2387 103.6895 573.1567 100.8953 580.7571 91.1712 582.0983 87.9298 583.6631 85.3591 603.2231 70.8288 604.3408 67.3639 607.2469 63.0048 613.1707 56.2986 618.8711 53.2807 631.9483 49.8158 644.802 44.2273 648.2669 43.6684 661.903 41.6565 694.0931 36.8504 699.5699 34.9503 702.8112 34.615 704.376 34.1679 707.5056 32.156 709.4057 31.5971 716.6708 31.5971 722.4829 29.9206 737.9074 20.6436 756.9085 18.7435 761.1558 16.0609 773.0035 23.4378 790.1045 26.9028 793.5694 28.8029 797.4814 28.4675 797.705 28.5793 800.3875 30.703 799.6051 35.8444 803.07 39.7564 812.2352 44.1155 814.1353 45.7921 817.2649 51.3806 819.0532 52.6101 850.0139 52.3866 859.5144 49.3688 863.3146 50.71 866.4442 57.5281 867.5619 58.9811 873.9329 67.5875 884.5512 65.0167 895.7283 58.6458 904.7817 57.5281 904.7817 57.6398 908.6937 64.1226 915.9589 90.0535 921.4356 94.4125 954.967 109.7252 989.6161 115.6491 1012.9762 114.3078 1012.6409 117.4374 1012.0821 144.7096 1012.5292 147.5039 1014.2057 151.4158 1015.7705 154.2101 1016.8882 156.6691 1017 159.9105 1015.547 165.6108 1012.9762 172.7641 1010.0702 178.7998 1007.6112 181.2587 1005.9347 182.1529 998.446 189.418 996.8812 191.5417 995.987 194.336 995.8752 198.248 993.6398 195.1184 986.3747 191.0946 984.8099 189.7534 983.0216 187.6297 978.886 185.9531 971.2856 184.5001 967.5971 185.1707 961.5615 188.4121 958.5437 189.0827 947.9254 188.6356 944.5723 189.0827 938.3131 192.6594 933.954 198.8068 933.1716 200.8187 924.1182 224.5142 921.8827 228.0909 919.0884 230.2145 908.0231 233.2323 906.123 234.5736 905.1171 234.9089 903.4405 234.9089 903.4405 236.4737 909.1408 240.6092 910.2585 242.3976 910.035 244.9683 906.9054 254.6924 904.67 265.4224 903.5523 267.5461 902.0992 268.9991 900.8697 270.5639 900.1991 273.0229 900.4227 277.9408 902.8816 288.112 903.4405 292.6946 902.5463 307.6719 903.4405 311.0251 900.1991 313.484 900.1991 317.1725 901.4286 321.9787 902.3228 327.7908 902.3228 338.2972 901.9875 342.4328 901.5404 343.9976 893.2693 344.4447 884.5512 342.9916 877.3978 342.7681 875.6095 343.1034 874.4917 344.4447 873.4858 347.5743 872.927 349.9215 873.1505 351.9333 874.2682 353.6099 876.7272 354.9512 872.4799 355.7336 865.3265 358.7514 861.7498 359.422 858.732 361.9927 859.0673 367.8048 860.8557 373.9523 862.3087 377.6407 859.6262 376.4112 844.5371 375.9641 839.7309 378.7584 837.6073 383.341 836.4895 388.7061 834.7012 394.1828 831.7952 392.7298 830.2304 394.8535 830.3421 398.0948 832.354 400.2185 831.6834 401.7833 831.5716 402.901 832.354 406.2541 832.8011 404.5776 833.0246 404.2422 832.9129 404.2422 832.354 403.3481 833.4717 398.8772 838.5014 404.2422 840.178 404.6893 842.1899 402.901 843.5311 400.3303 845.0959 399.2125 848.002 401.895 849.455 399.5479 850.7963 399.8832 852.1375 401.1127 853.367 401.895 855.7142 401.2244 857.279 400.1067 858.8438 399.5479 861.191 400.2185 861.0792 401.3362 860.8557 401.5597 860.6321 401.448 860.0733 401.895 860.9674 405.6953 862.644 408.3778 865.103 408.9366 869.015 406.2541 869.3503 408.266 870.2444 409.3837 871.5857 409.6073 873.4858 409.2719 873.4858 410.8367 872.4799 411.1721 870.0209 412.4015 871.2504 414.5252 871.921 415.084 873.4858 415.4194 871.921 417.543 871.6975 420.5608 872.7034 423.5787 874.6035 425.9259 876.9507 426.9318 878.8508 426.5965 880.8627 426.0376 883.4334 425.9259 883.4334 427.2671 882.4275 428.4966 882.4275 429.6143 883.2099 430.8438 884.6629 431.9615 880.5274 435.4264 878.6273 439.4502 879.4097 443.4739 883.4334 446.8271 882.651 447.3859 882.651 447.6095 882.3157 448.5036 888.1278 452.3039 889.022 453.7569 889.8044 455.3217 891.7045 457.4453 893.8282 459.3454 895.7283 460.4631 895.393 461.2455 894.9459 462.9221 894.6106 463.5927 899.4167 466.387 900.6462 467.84 903.4405 473.8757 912.1586 479.4642 913.2763 481.5879 914.6176 483.5998 916.853 484.3822 916.1824 486.7294 916.9648 488.853 918.5296 490.5296 920.2062 491.8708 920.3179 492.8768 920.0944 493.2121 919.6473 493.2121 919.0884 493.4356 920.9886 495.4475 922.1063 498.2418 922.3298 501.2596 921.3239 503.9421 921.771 506.0658 915.9589 504.8363 913.4999 504.0539 905.5641 504.9481 903.3287 504.2774 899.0814 502.1538 895.0576 501.1479 893.6046 501.0361 890.475 501.5949 889.8044 501.2596 889.1338 501.1479 888.5749 501.2596 887.9043 501.5949 887.3454 503.7186 887.3454 506.7364 887.0101 508.8601 889.5809 510.4249 889.1338 511.7661 887.0101 512.5485 884.8865 512.6603 882.7628 511.8779 874.2682 507.1835 868.2326 506.96 855.6024 510.3131 855.2671 512.4367 854.7083 513.5545 853.8141 513.5545 852.5846 512.5485 851.2433 514.3369 849.5668 515.4546 846.1019 516.684 846.3254 517.1311 846.7725 517.4664 847.3314 517.8018 847.7784 518.1371 847.2196 518.5842 846.2136 519.143 845.8783 519.5901 848.1138 520.596 845.4312 521.7138 843.3076 520.149 839.3956 514.6722 836.9366 512.5485 825.0889 505.8422 821.1769 502.4891 817.6002 498.2418 810.6704 487.5118 806.3113 483.1527 801.0581 480.0231 795.3578 478.6818 791.8928 479.2407 789.7692 480.8055 786.1925 485.7234 785.7454 486.6176 785.6337 487.4 784.963 487.6235 781.051 486.6176 777.3626 486.3941 775.5743 486.6176 773.0035 484.6057 770.321 482.9292 767.3032 482.035 764.5089 482.035 764.2854 482.035 760.3734 483.9351 756.7967 490.7531 753.6671 492.9886 751.4317 493.8827 749.9787 496.1182 748.6374 498.8007 746.7373 500.9243 745.396 501.2596 742.3782 500.8125 740.7017 501.5949 738.9133 503.2715 737.4603 503.2715 735.8955 502.7127 734.1072 502.7127 732.3188 503.8304 730.4187 505.5069 728.7421 506.96 727.4009 507.6306 725.6125 507.1835 722.5947 504.501 721.0299 503.7186 719.1298 504.2774 715.6649 507.8541 713.9883 509.0836 710.8587 509.4189 695.5461 506.8482 692.64 507.1835 690.0693 509.0836 685.3749 514.1133 684.1454 515.0075 683.1395 516.1252 682.4689 517.4664 682.8042 518.3606 684.7043 519.5901 685.2631 520.3725 685.1514 521.602 684.369 523.5021 684.2572 524.6198 684.1454 525.9611 684.0337 527.5259 683.2513 531.4378 681.91 535.4616 679.7864 538.4794 672.0741 540.8266 655.3085 540.156 648.6022 545.9681 646.3668 551.2213 645.6961 556.0275 646.8139 560.3866 648.4904 562.622Z" />
</svg>