<?xml version="1.0" encoding="utf-8"?>
<svg xmlns="http://www.w3.org/2000/svg" viewBox="0 0 573 1024" style="stroke-width:0.25px;stroke-linejoin:round;stroke:#444;fill:#ddd" fill-rule="evenodd">
  <path class="BH" d="M222.1846 138.1254L277.9584 186.9694 291.0356 166.18 310.4838 150.7556 318.7549 172.4392 327.026 206.4176 343.6799 207.8706 330.6026 224.301 329.8202 251.1261 303.7776 257.7206 311.378 341.3254 308.4719 468.0739 289.2473 626.3419 277.6231 657.6378 240.068 719.3355 239.8444 719.6708 231.2381 676.1919 216.596 628.6891 196.1419 582.3041 170.3228 542.4018 113.9901 478.3569 104.4895 438.5663 129.7498 390.393 136.7914 369.38 143.833 348.4788 136.4561 294.3815 116.7844 241.1784 94.8772 202.3938 89.624 185.0693 90.4064 161.5974 105.4955 93.5287 114.8843 76.763 131.6499 68.6037 131.8735 68.6037 133.103 68.6037 160.5987 69.3861 176.6937 72.7393 197.4832 82.2398 214.2488 89.952 214.3606 89.8403 267.5637 68.7155 276.0583 74.3041 281.4233 93.0816 290.9239 106.0471 293.7182 111.971 296.5124 117.8948 289.2473 133.2075 277.0642 136.6724 240.2915 131.4191 222.1846 138.1254ZM23.4554 166.18L37.3151 170.8744 51.1747 178.5866 51.1747 203.288 53.969 223.4068 56.7633 244.9787 33.1795 238.8312 8.2546 240.396 1.3248 217.1476 4.119 187.8636 23.4554 166.18ZM286.9001 16.2948L327.026 4 356.1982 19.4244 357.5395 41.108 357.5395 62.6799 376.9877 90.5109 393.6416 98.2231 386.7118 118.3419 379.782 126.0541 358.9925 113.6475 353.404 93.6405 346.4741 73.5217 328.479 68.8273 311.8251 65.8095 300.7597 70.3921 284.1058 39.5432 286.9001 16.2948ZM509.8836 816.9118L520.5019 818.8119 531.1201 810.6526 544.1974 803.3875 544.1974 812.4409 540.956 825.0711 531.1201 839.6013 521.2843 852.3432 527.8788 858.7142 537.6029 869.556 532.6849 876.8211 517.2605 873.2444 509.8836 878.6095 499.2653 888.6689 494.3474 894.0339 500.0477 913.1468 509.8836 926.6711 512.3426 935.7245 503.2891 939.413 498.3712 948.4664 496.8064 960.2024 504.1833 965.6792 509.8836 973.8385 501.7243 981.9978 494.3474 994.6279 487.7529 1007.3699 491.1061 1016.4233 486.9705 1020 472.2167 1012.8466 462.4926 997.4222 467.4106 983.7861 477.1347 961.0966 476.3523 947.5723 476.3523 927.5652 464.9516 914.9351 465.734 902.1932 467.4106 884.9804 472.2167 865.9793 485.2939 845.0781 502.5067 824.1769 509.8836 816.9118ZM511.4484 772.5386L521.2843 767.956 530.3377 768.8502 531.9025 777.9036 518.0429 783.3804 511.4484 772.5386ZM549.1153 877.7153L568.6752 878.6095 564.6515 892.2455 554.0332 899.5107 548.2211 891.3514 545.7622 884.0862 549.1153 877.7153ZM534.3615 916.7234L542.5208 917.6176 558.057 920.3001 564.6515 927.5652 562.9749 938.5188 558.057 945.7839 553.1391 943.8838 546.6563 942.0955 537.6029 943.8838 531.1201 947.5723 525.4198 935.7245 527.8788 928.4594 523.7432 922.2002 526.2022 915.8293 534.3615 916.7234Z" />
</svg>