<?xml version="1.0" encoding="utf-8"?>
<svg xmlns="http://www.w3.org/2000/svg" viewBox="0 0 873 1024" style="stroke-width:0.25px;stroke-linejoin:round;stroke:#444;fill:#ddd" fill-rule="evenodd">
  <path class="BI" d="M737.4528 49.8262L721.9166 69.3861 715.6574 79.3338 697.774 122.701 693.9738 137.5666 691.9619 142.5963 687.3793 148.4084 676.2022 159.0266 672.402 164.9505 670.5019 176.4629 675.7551 181.4926 684.9204 181.6044 694.7562 178.363 711.6337 170.6508 722.3637 166.7388 719.3459 175.5688 692.409 203.9586 688.6088 210.1061 687.044 217.3712 686.9322 229.3307 676.6493 243.1903 671.2843 253.6968 672.2902 261.7443 684.0262 276.9452 691.1795 283.6515 699.6741 285.9987 697.5505 291.1402 700.233 294.9404 704.3685 298.9641 706.3804 304.7762 706.3804 304.9998 708.6158 303.8821 717.8928 291.0284 723.4814 286.4458 730.0759 283.9868 733.8761 284.6574 764.3897 302.9879 770.5371 305.5586 772.6607 306.8999 773.8902 309.8059 775.1197 317.5182 776.4609 319.53 782.7201 320.8713 787.5263 319.6418 792.2207 317.8535 798.0328 317.4064 803.8449 319.53 814.5749 326.5716 820.7223 328.4717 831.6759 327.4658 853.6948 321.3184 864.6484 321.4301 861.5188 327.0187 860.0658 329.5894 845.5355 346.3551 842.4059 353.8438 844.7531 360.6618 856.3773 371.6154 860.96 378.0981 861.0717 380.5571 858.8363 386.8163 858.3892 389.6106 860.0658 393.0755 866.2132 397.5463 868.1133 400.8994 868.5604 406.8233 867.778 412.7472 863.7542 424.0361 857.048 433.4249 857.2715 436.8898 859.3952 445.2726 859.6187 447.9551 852.5771 460.5853 841.2882 468.4092 828.211 469.8623 815.8044 463.6031 814.3514 469.1916 811.3336 473.4389 806.7509 476.0097 800.9388 476.7921 788.1969 481.5982 777.8022 488.081 768.9723 496.352 760.2541 506.7468 763.6073 508.5351 777.6904 516.2473 777.1316 528.7657 764.8367 540.7252 742.8178 551.0081 736.6704 558.2733 732.982 561.5146 729.7406 562.7441 717.2222 565.5384 716.4398 566.7679 715.6574 570.7916 715.2103 571.7976 706.1569 572.58 705.9333 571.6858 705.0392 571.574 697.2152 572.8035 695.9857 574.2565 694.3091 579.7333 693.0796 581.6334 680.0024 591.0222 677.4317 596.7226 678.5494 606.1113 678.4376 614.7177 674.8609 623.4359 655.5245 653.9494 652.2832 662.444 652.1714 662.7793 651.7243 671.4975 653.7362 679.4332 656.3069 686.6983 657.76 694.0752 656.1952 702.3463 635.2939 695.4165 623.4462 703.0169 605.3393 734.3129 580.7496 759.5732 575.0493 769.1855 566.89 803.0521 559.6249 820.712 558.3954 823.7298 547.33 842.7309 533.2469 860.0554 501.2803 886.657 496.3624 893.6986 484.4029 922.4238 478.479 929.9124 468.0843 935.8363 463.2781 939.6365 447.1831 948.8018 430.3056 964.5615 405.3806 976.2975 401.2451 977.7505 393.4211 976.4092 388.2796 973.8385 383.3617 973.2796 375.6495 977.8623 374.8671 979.5388 373.8612 987.251 371.4022 991.2748 363.4664 995.075 360.4486 997.7575 358.6603 1004.4638 358.4367 1010.6112 356.9837 1015.8645 351.6187 1020 349.495 1019.2176 330.2704 1017.7646 314.7342 1014.0761 315.8519 999.7694 314.7342 989.8218 308.6986 980.5448 292.1564 964.8968 285.2266 956.9611 267.5668 927.3417 263.543 916.6117 261.9782 906.2169 259.4075 896.3811 253.7072 890.0101 247.2244 884.8686 242.7536 878.7212 240.9652 868.8854 240.8535 859.9437 239.5122 852.1197 234.5943 844.8546 230.4587 840.3837 227.9998 836.36 223.3054 826.9712 212.7989 812.3292 210.4517 807.9701 209.7811 802.8286 211.0106 799.0284 212.7989 795.2282 213.5813 790.3102 211.6812 785.3923 202.8513 776.4506 198.8275 764.9382 194.3567 761.138 189.2152 758.0084 184.7443 753.5375 182.8442 748.8431 181.2794 733.754 165.6315 690.275 168.7611 521.1652 162.0548 501.8288 146.8539 491.6576 126.3998 488.081 104.6044 488.7516 105.4986 475.1155 107.6222 468.7446 118.3523 458.7969 120.5877 456.785 112.6519 450.3023 109.4106 441.1371 108.0693 409.8411 109.6341 400.2288 113.2108 392.2931 119.1347 388.9399 121.3701 383.5749 120.923 380.5571 117.6816 353.3967 113.3226 346.4669 106.8398 341.4372 98.9041 338.4194 90.1859 337.4134 81.1325 333.8367 77.1087 325.3421 75.3204 315.618 72.5261 308.1294 65.4845 303.435 56.8781 300.5289 49.7248 296.7287 46.5952 289.24 45.9245 281.6396 44.0244 276.9452 36.9828 266.774 32.6238 254.1439 30.6119 250.4554 23.5703 247.3259 13.7344 246.4317 5.1281 243.8609 1.4396 236.037 2.3338 225.9776 5.4634 217.93 11.3872 212.7886 20.9996 211.5591 14.7404 200.2702 22.7879 153.2145 33.5179 142.708 60.7901 140.9197 68.5023 142.0374 97.004 154.5558 107.3987 157.6854 127.2939 160.1443 137.2416 162.6033 145.7362 167.5212 151.5483 171.7685 151.8836 173.8922 151.213 179.4807 152.8895 185.8517 153.0013 186.2988 163.1725 195.9111 165.9668 201.7232 164.9608 206.9765 158.4781 215.024 156.9133 219.9419 157.9193 225.3069 162.2783 235.1428 162.8372 240.9549 167.0845 249.8966 178.5969 248.8906 198.8275 240.0607 207.2103 239.0548 216.3756 240.7314 233.3648 243.9727 244.2066 250.1201 253.1483 247.1023 261.9782 241.5138 272.2612 240.1725 277.0673 240.396 280.8675 238.943 284.3325 236.7076 298.3039 231.6779 301.657 231.9014 306.6867 233.578 326.2466 240.0607 335.0766 241.402 345.5831 240.0607 350.1657 237.2664 352.1776 232.9074 353.7424 223.0715 357.2073 218.7124 362.5723 218.6007 373.0788 221.842 384.703 222.1773 394.2035 220.389 403.0334 215.1358 412.6458 205.4117 418.905 196.9171 424.6053 187.193 429.0761 176.91 431.6469 166.5153 431.8704 161.3738 433.7705 113.0887 443.9417 77.6572 440.5886 41.4433 443.7182 17.4125 443.6064 13.0535 444.9476 10.4827 449.7538 10.2592 453.554 12.4946 456.7954 15.1771 457.5778 15.9595 465.8488 23.0011 469.5373 23.56 473.4493 23.2246 477.9201 23.3364 483.2851 25.2365 489.0972 29.5956 503.6275 46.9201 511.3397 53.6264 521.1756 60.1091 531.9056 64.3564 542.4121 64.0211 550.3479 58.4326 571.5844 31.831 572.5903 28.4779 572.8139 24.1188 574.4904 20.9892 579.9672 21.4363 594.6092 28.5897 600.4213 29.9309 608.0218 29.5956 616.9635 27.6955 625.7934 24.9012 632.4997 21.4363 638.5353 15.8477 640.7707 13.0535 642.6708 10.4827 647.2535 6.2354 654.8539 4 657.0893 5.1177 671.9549 8.6944 673.5197 8.0238 675.7551 10.7063 678.2141 17.3008 680.8966 20.9892 706.3804 41.8904 722.0284 49.2673 737.4528 49.8262Z" />
</svg>