<?xml version="1.0" encoding="utf-8"?>
<svg xmlns="http://www.w3.org/2000/svg" viewBox="0 0 504 1024" style="stroke-width:0.25px;stroke-linejoin:round;stroke:#444;fill:#ddd" fill-rule="evenodd">
  <path class="BJ" d="M460.7416 120.4656L457.1649 124.2658 445.9878 143.4904 443.9759 150.9791 442.97 153.5498 439.7286 162.3798 440.0639 166.18 442.4111 170.6508 471.4716 211.8944 475.3836 215.5828 476.7249 215.8064 478.2897 215.5828 478.5132 215.5828 479.7427 215.5828 481.0839 216.9241 479.5191 223.295 479.5191 226.8717 480.078 230.2249 481.3075 233.2427 482.984 236.037 482.984 236.1487 486.3372 250.7908 486.1136 255.7087 482.6487 264.3151 482.4252 267.2211 483.2076 269.233 484.5488 270.5743 486.0019 271.8037 487.2314 273.145 488.0138 274.9333 489.5785 280.2983 491.0316 282.1985 493.1552 282.8691 495.3906 283.2044 497.5143 284.4339 498.9673 287.6752 499.7497 292.4814 499.7497 296.3934 499.8615 301.5349 498.632 305.8939 494.4965 314.165 493.0435 318.5241 492.8199 327.0187 491.814 330.0365 489.355 333.1661 486.7843 333.6132 476.3895 328.1364 473.0364 327.4658 469.795 328.4717 466.6655 331.7131 465.5477 333.2779 465.1007 334.2838 464.9889 337.5252 464.3183 339.4253 460.1827 345.7963 456.9414 353.2849 457.0531 356.3028 459.4003 360.103 470.3539 371.5036 471.8069 373.6273 472.254 376.198 471.8069 379.1041 471.6952 379.9982 470.2421 383.6867 468.2303 385.1397 465.8831 386.2574 463.3123 388.7164 462.3064 391.3989 461.3004 405.4821 459.6239 408.7234 454.3706 414.9826 450.1233 422.8066 447.329 425.4891 437.4932 424.4832 431.234 426.1597 419.6098 430.9659 416.9273 432.866 415.4743 436.2191 415.1389 439.9076 415.6978 443.149 417.7097 448.1787 419.0509 453.2084 417.8215 457.4557 412.5682 460.4735 409.7739 460.2499 406.5326 459.6911 403.9618 460.4735 402.7323 464.609 402.9559 465.615 403.7383 467.7386 403.6265 468.6328 393.6789 481.5982 392.5612 482.716 389.8787 483.4983 388.7609 484.3925 385.6314 489.534 384.9607 494.0048 386.0784 498.5875 388.0903 503.8407 388.6492 506.5232 388.6492 517.1415 387.6432 520.6064 384.2901 526.9773 378.9251 543.8548 376.4661 548.9963 372.4424 551.6788 361.377 554.5848 359.4769 554.5848 357.9121 553.8024 356.3473 552.7965 354.559 551.9023 352.7706 551.6788 347.8527 551.9023 346.0644 552.2376 344.3878 553.3553 342.9348 554.8084 341.37 555.9261 339.2463 556.2614 326.7279 555.2554 327.2868 559.5028 326.9515 569.8975 326.0573 574.4801 325.4985 575.486 323.7101 578.1685 323.263 578.5039 323.5983 579.8451 324.269 580.2922 325.0514 580.5157 325.6102 581.6334 325.6102 584.2042 323.5983 588.8986 322.9277 591.3575 323.1513 592.8106 324.0454 595.3813 323.8219 596.8343 322.9277 597.6167 320.2452 598.958 319.2393 600.1875 319.2393 601.864 319.2393 602.0876 322.3689 641.9899 322.816 646.796 321.4747 652.3846 320.2452 654.2847 317.0039 657.9732 316.1097 659.985 316.1097 661.4381 316.5568 664.4559 316.5568 666.0207 315.2155 672.727 315.1037 675.8565 315.6626 679.7685 316.8921 683.457 320.1334 690.275 321.1394 693.7399 321.1394 697.3166 319.7981 700.3344 318.1216 703.0169 316.8921 705.8112 316.445 708.829 316.1097 718.5531 314.0978 728.9479 313.4272 739.2308 312.8683 740.6838 311.1917 743.8134 310.8564 745.0429 310.9682 745.8253 311.08 746.4959 312.3095 748.5078 314.2096 753.2022 318.0098 757.4495 319.4628 759.9085 319.9099 762.2557 318.3451 784.2746 318.0098 789.6396 318.904 796.0106 322.1453 802.0462 326.9515 807.8583 330.5282 813.7822 330.0811 820.6002 329.634 822.0532 329.5222 823.0592 329.0751 823.3945 325.4985 822.6121 323.8219 822.6121 322.5924 823.3945 322.1453 825.1828 325.6102 865.3087 325.3867 867.6559 324.9396 869.1089 323.5983 870.7855 322.1453 873.9151 321.3629 875.0328 321.2512 876.1505 321.81 878.2741 323.263 880.0625 327.5103 883.5274 328.4045 885.0922 327.8457 886.8805 326.1691 887.7747 324.0454 888.3336 322.1453 889.2277 318.0098 895.1516 318.5686 901.0755 320.6923 907.3347 321.4747 914.1527 319.7981 920.9707 319.351 924.5474 320.1334 927.677 321.3629 929.3536 322.816 930.3595 324.4925 930.9184 326.5044 931.0301 327.3986 931.8125 327.7339 933.4891 328.2927 940.9778 327.3986 942.8779 325.3867 944.1074 322.4806 946.7899 320.5805 950.2548 320.4688 953.6079 321.9218 960.5377 321.5865 963.8909 318.5686 972.7208 318.0098 974.2856 317.4509 977.6387 316.2215 984.9039 316.1097 994.8515 251.8413 1000.8871 238.8758 1003.7932 183.4373 1010.1641 140.5172 1020 139.2877 1016.6469 142.6408 1014.8585 163.4303 1009.9406 166.8952 1009.7171 163.7656 997.7575 160.636 985.4627 156.5004 978.7564 155.0474 977.7505 151.5825 975.9622 150.5766 975.068 150.1295 973.615 150.5766 970.1501 150.353 968.4735 149.3471 967.1322 146.6646 964.8968 146.2175 963.7791 145.9939 961.879 144.8762 961.4319 143.3114 961.6554 141.7466 961.4319 140.5172 960.6495 139.0641 959.6436 137.8347 958.3023 136.8287 956.9611 136.3816 955.2845 136.4934 953.8315 136.7169 952.3784 136.7169 951.149 134.9286 947.9076 132.805 946.231 131.799 944.3309 133.1403 940.6425 135.5992 937.4011 136.8287 935.7245 137.4993 933.1538 136.4934 929.2418 135.2639 925.8887 134.5933 923.0944 134.4815 920.3001 135.711 913.4821 135.3757 911.2466 133.9227 909.4583 131.4637 907.67 131.2402 907.4464 129.4518 904.7639 126.3222 893.1397 138.5053 893.2515 141.4113 892.3573 141.2996 868.3265 141.1878 844.631 141.1878 820.2649 141.076 804.1699 140.9642 790.0867 140.9642 787.2924 140.8525 754.8788 140.7407 728.9479 141.1878 702.9052 141.4113 684.1276 139.7348 670.0444 138.8406 668.5914 137.9464 668.2561 137.4993 667.5855 138.2817 663.5617 138.2817 660.7674 138.5053 659.3144 143.8703 650.4845 144.4292 647.5784 143.7585 646.0136 139.623 640.6486 138.7288 638.8603 138.5053 636.9602 138.5053 632.0422 138.17 610.0233 137.9464 594.8224 137.7229 576.9391 137.4993 556.4849 136.6052 552.0141 135.3757 547.9903 132.0226 542.1782 121.9631 531.56 108.9977 517.9239 108.1035 516.5826 105.0857 511.8882 102.7385 505.2937 101.6208 488.6398 99.7207 483.9454 97.0382 485.3985 94.5792 482.9395 93.0144 478.9157 92.4556 475.5626 93.1262 473.4389 96.0322 468.9681 97.0382 466.8444 97.1499 465.1679 97.1499 461.9265 97.4853 460.2499 97.8206 458.2381 96.4793 450.5259 96.2558 437.7839 96.0322 419.7888 95.8087 407.7175 95.8087 406.488 93.685 400.8994 76.584 389.387 53.4474 373.8508 39.5878 364.6856 30.3108 358.4264 14.8864 348.0317 2.5915 339.8724 1.362 337.4134 1.1385 333.6132 3.4857 316.624 5.8329 307.4587 5.9447 300.976 4.6034 286.1105 6.9506 280.6337 15.7805 272.1391 17.9042 269.1212 18.3513 267.4447 18.5748 263.6444 18.9101 261.8561 21.4809 257.0499 21.2573 255.2616 19.9161 251.9085 19.469 250.1201 19.9161 246.8788 24.1634 236.7076 29.0813 239.3901 31.205 239.7254 34.111 239.7254 34.7816 238.8312 35.2287 236.9311 35.1169 235.031 34.111 234.1369 32.8815 233.4662 32.3227 232.0132 32.2109 230.1131 32.3227 228.4365 32.9933 228.1012 34.3345 225.9776 35.2287 223.9657 36.3464 222.5127 37.0171 222.2891 37.7994 222.5127 41.3761 223.0715 42.4938 223.8539 43.2762 224.6363 44.1704 224.9716 44.6175 225.3069 45.5117 226.9835 45.7352 227.3188 46.7411 227.3188 48.5295 226.4246 49.2001 226.2011 54.118 226.76 55.7946 227.3188 56.2417 228.213 57.3594 229.7778 58.5889 230.8955 59.1477 230.2249 59.2595 227.5424 57.4712 225.6422 56.4652 223.8539 56.1299 222.0656 56.1299 220.1655 55.7946 218.2653 55.4593 218.2653 54.0063 217.4829 53.4474 217.2594 53.3356 216.477 53.671 214.3534 53.4474 213.6827 51.9944 213.3474 50.9884 214.2416 50.3178 214.5769 50.2061 212.0062 50.9884 211.6708 56.3535 210.4414 57.2476 209.7707 58.3653 206.7529 59.1477 205.9705 60.8243 205.9705 64.0657 207.5353 65.7422 208.0942 64.9598 205.1881 64.2892 199.5996 61.2714 194.5699 62.0538 192.558 63.7304 190.8814 65.4069 188.3107 66.9717 189.5402 68.2012 191.4403 67.9777 192.3344 69.4307 192.3344 70.2131 191.8873 71.1073 191.4403 72.4485 191.105 75.5781 191.2167 78.1488 191.9991 83.5139 194.5699 85.6375 190.7696 85.8611 189.4284 85.5257 187.8636 83.9609 186.187 83.5139 184.9575 84.408 182.9457 86.1964 183.8398 88.0965 185.9635 89.1024 187.7518 90.2201 186.4106 91.3378 185.9635 92.4556 186.4106 93.5733 187.7518 96.4793 185.4046 96.144 183.281 94.5792 180.9338 93.5733 178.1395 95.0263 175.0099 98.2677 172.8862 101.9561 171.3215 104.5268 169.6449 103.0738 166.0682 103.2974 164.727 104.5268 162.7151 106.6505 161.1503 108.6624 160.4796 110.3389 159.5855 111.3449 157.2383 113.9156 158.6913 117.0452 159.3619 132.3579 160.5914 132.0226 161.7091 131.5755 164.0563 131.3519 165.0623 134.1462 164.9505 137.4993 171.3215 140.7407 170.2037 143.535 168.7507 151.0237 167.0741 154.0415 165.6211 156.6122 164.8387 163.7656 165.2858 166.7834 165.0623 173.1543 162.4915 176.2839 161.9327 179.0782 162.7151 180.643 161.7091 182.6549 162.0444 186.7904 163.9446 193.7202 166.6271 199.4206 167.0741 203.8914 164.9505 204.562 164.1681 225.9103 142.3727 237.7581 132.6486 246.4762 127.7307 248.7117 125.4953 249.2705 123.9305 249.1587 122.1421 249.2705 119.2361 250.9471 114.5417 257.2063 107.6119 259.4417 103.2528 265.3656 87.2695 265.0303 85.593 263.1301 82.6869 262.9066 80.8986 263.8008 78.7749 265.142 78.4396 266.7068 78.6631 268.1598 78.2161 269.1658 76.9866 270.507 74.5276 271.6248 73.4099 273.1895 73.1864 274.9779 73.857 276.0956 73.6334 276.2074 70.7274 275.8721 68.7155 274.8661 67.9331 273.3013 67.5978 271.513 66.8154 269.8364 65.3624 268.7187 64.0211 267.8245 62.3446 262.3477 46.8084 260.7829 37.6431 260.6712 33.8429 262.0124 30.9369 266.0362 29.1485 268.1598 28.925 271.9601 29.0367 273.9719 28.8132 274.419 28.3661 275.7603 26.5778 276.5427 25.9072 277.7722 26.2425 278.6663 27.1366 279.5605 27.4719 280.4547 25.6836 281.2371 23.6717 282.3548 23.2246 283.8078 23.4482 285.7079 23.4482 286.2668 23.8953 286.4903 24.7894 286.9374 25.5718 288.1669 25.4601 289.0611 24.9012 290.6259 23.4482 291.2965 23.0011 297.1086 21.4363 297.6674 21.5481 299.1205 22.3305 299.9029 22.4422 300.9088 21.9952 302.8089 20.5421 303.9266 20.3186 309.627 21.7716 311.1917 20.9892 313.4272 17.3008 313.986 16.0713 314.2096 14.73 314.7684 13.6123 315.5508 12.6064 317.3392 11.9358 319.0157 13.0535 320.8041 12.6064 322.2571 11.4887 324.8278 8.3591 326.6162 7.1296 328.181 6.7943 331.4223 6.9061 333.0989 6.5707 337.0109 6.459 338.911 4 346.735 10.9298 349.9763 12.7182 351.6529 14.5065 352.8824 16.5184 353.8883 20.3186 355.2296 21.6598 357.0179 22.554 358.918 23.3364 364.2831 23.8953 365.6243 24.3424 366.2949 25.2365 367.8597 28.2543 374.4542 37.9784 402.2853 63.574 402.7323 64.4682 404.9678 66.1448 405.5266 67.0389 405.8619 70.6156 406.6443 74.3041 407.8738 77.3219 411.5623 83.5811 413.9095 86.2636 415.2507 87.6048 417.2626 88.9461 419.498 89.505 421.6217 88.499 423.9689 87.1578 425.869 87.4931 427.5455 88.499 429.4457 89.1696 436.7108 93.6405 442.6347 95.7641 444.423 96.9936 445.7642 98.3349 451.1293 106.0471 452.247 107.053 453.1411 107.6119 453.8118 108.2825 454.4824 109.6238 455.2648 112.1945 455.9354 113.424 456.159 114.877 456.7178 116.2183 458.1708 116.8889 459.6239 119.5714 460.7416 120.4656Z" />
</svg>