<?xml version="1.0" encoding="utf-8"?>
<svg xmlns="http://www.w3.org/2000/svg" viewBox="0 0 1021 787" style="stroke-width:0.25px;stroke-linejoin:round;stroke:#444;fill:#ddd" fill-rule="evenodd">
  <path class="BN" d="M856.9437 115.5251L857.3908 132.6261 864.3206 139.5559 874.2682 144.362 883.8805 150.8448 902.6581 177.5581 951.3903 318.9486 954.6317 336.7202 953.4022 349.6857 947.4783 379.1933 947.0312 408.7009 951.1668 440.2204 961.0026 469.6162 978.2154 492.641 1004.3699 517.3425 1015.2117 533.3257 1017 548.8619 1006.27 560.5979 989.9514 560.0391 972.6268 552.4386 959.1025 543.3851 952.6198 541.038 938.2013 541.5968 930.4891 538.2437 918.8649 528.5196 912.6057 526.1724 890.2515 528.5196 874.7153 525.0547 832.2422 509.2949 822.4064 502.7004 816.3707 492.0822 807.429 418.3132 798.7109 388.8056 774.3448 330.5728 767.862 301.5123 764.956 240.597 770.0975 181.2465 783.8453 195.3297 797.4814 186.6116 812.2352 170.0694 828.8891 161.1277 845.0959 157.7746 845.543 149.0564 839.1721 137.3205 834.813 124.8021 836.4895 118.99 841.2957 116.0839 848.3373 115.1898 856.7201 115.5251 856.9437 115.5251ZM734.2189 130.0553L717.2297 147.0446 714.8825 158.557 714.2119 171.0754 709.4057 182.5878 697.558 189.8529 684.369 190.1882 670.7329 187.841 656.985 187.1704 640.3311 191.753 626.8068 200.2476 602.776 223.2725 590.1459 231.2083 562.7619 242.7207 556.2792 248.6446 555.385 249.5387 554.938 261.9453 560.5265 275.805 574.945 303.4124 579.1923 318.8369 581.763 335.4908 585.4515 422.8958 589.9223 450.2798 603.2231 471.181 617.8651 476.546 628.9305 474.6459 634.4073 478.3343 632.7307 499.7944 625.9127 528.0725 620.3241 540.7026 612.2766 553.3328 594.3932 570.7691 589.587 575.3517 585.2279 582.1697 585.675 597.5942 609.0352 588.0936 611.4942 601.1708 606.1292 614.8069 589.1399 640.4025 583.8867 654.9328 579.7512 685.7816 573.9391 696.7352 505.3116 762.3449 470.2154 782.9108 439.4783 779.3341 435.7899 773.4102 430.3131 754.8562 426.6246 747.144 420.7008 741.4437 404.941 730.3783 357.9971 686.8993 347.3789 672.5926 340.002 657.9506 324.5776 610.6714 315.1888 600.7238 301.3292 599.9414 270.8156 605.4182 238.1784 598.9354 212.6946 597.1471 209.2297 590.329 208.0002 579.1519 210.3474 574.7928 220.7421 565.6276 223.2011 558.4743 218.1714 525.0547 208.0002 509.742 208.0002 488.8408 202.1881 467.8278 197.829 459.6685 189.8933 450.9504 187.4343 446.0325 186.7637 440.2204 185.0871 435.1906 179.6103 433.067 168.2097 432.7317 163.5153 430.4963 157.815 415.1836 149.0968 409.4833 130.6546 402.4417 106.2884 383.3288 90.6405 375.1695 49.7322 368.9103 1 345.5502 189.6697 351.9211 245.5553 341.3029 297.0818 312.2424 370.7391 285.6408 396.7817 276.252 412.4297 260.8276 423.9421 239.144 450.879 211.7601 540.9666 139.7794 569.0211 122.7902 694.5402 46.5623 790.9987 6.4364 809.7762 4.0892 823.8594 9.566 824.8653 19.4019 814.0235 27.0023 790.7751 37.5088 784.516 47.5682 772.1094 77.4111 769.9857 86.3528 764.956 96.6358 741.7076 118.0958 734.2189 130.0553Z" />
</svg>