<?xml version="1.0" encoding="utf-8"?>
<svg xmlns="http://www.w3.org/2000/svg" viewBox="0 0 903 1024" style="stroke-width:0.25px;stroke-linejoin:round;stroke:#444;fill:#ddd" fill-rule="evenodd">
  <path class="BO" d="M12.5276 597.0579L12.6394 591.4693 12.4158 588.7868 11.6334 586.5514 10.5157 585.0983 9.0627 583.6453 6.1567 581.1864 4.9272 580.7393 1.127 580.2922 1.0152 580.2922 2.2447 578.2803 3.4741 574.033 4.2565 572.3564 4.5919 572.2447 5.8213 572.0211 6.2684 571.9094 10.2922 568.2209 12.5276 566.6561 14.5395 565.8737 16.6631 565.5384 18.5633 564.756 20.2398 562.8559 20.5751 561.7382 20.2398 561.1793 19.681 560.9558 19.4574 560.5087 19.681 559.7263 20.1281 559.2792 23.2576 557.3791 24.1518 556.3732 26.0519 552.1259 33.5406 544.0783 34.5465 542.4018 35.9996 538.2662 36.6702 537.1485 37.7879 536.4779 40.4704 536.2543 41.8117 535.919 46.059 533.6836 47.2884 532.6777 48.5179 531.1129 49.4121 529.8834 47.512 527.2009 47.0649 525.8596 47.2884 523.5124 47.1767 519.0416 47.4002 517.4768 48.0708 516.1355 49.971 513.6766 52.4299 512.4471 60.701 509.0939 62.3776 506.5232 61.5952 504.3996 59.9186 503.2818 56.0066 501.7171 53.1006 498.3639 51.424 497.358 49.3003 498.1404 46.9531 497.358 46.1707 497.2462 45.2766 497.5815 43.9353 498.6992 43.0411 499.0345 41.141 499.0345 39.4645 498.3639 37.7879 497.4697 36.4466 496.2403 33.8759 492.9989 32.1993 488.8634 29.1815 480.9276 26.0519 472.9919 22.9223 465.1679 19.681 457.2321 18.7868 454.9967 18.4515 452.7613 19.1221 450.4141 23.8165 443.149 24.2636 441.6959 24.3754 440.1311 24.8224 438.6781 25.7166 437.2251 26.499 436.8898 28.5109 436.2191 29.0697 435.8838 29.0697 435.2132 28.1756 432.866 28.6227 431.6365 29.8521 430.0717 31.1934 428.8422 33.6524 427.9481 34.6583 425.042 36.1113 424.9303 37.8997 425.042 39.0174 424.1479 39.1292 422.6948 37.4526 421.0183 35.6642 418.3358 34.4348 417.218 30.0757 413.9767 28.8462 412.7472 24.5989 406.1527 23.3694 405.035 21.8046 403.582 21.3575 402.2407 21.6928 400.7877 22.8106 397.8816 23.0341 397.3228 22.6988 391.0636 22.8106 389.8341 23.4812 388.8282 25.1578 387.8222 29.1815 386.5927 30.411 385.9221 31.4169 383.6867 31.864 373.9626 32.7582 372.5096 34.2112 372.3978 35.8878 372.7331 37.5644 372.7331 38.0114 371.9507 37.7879 368.374 38.0114 367.1446 38.4585 366.8092 39.688 366.4739 40.2469 366.1386 43.1529 362.7855 44.4942 361.7795 49.3003 359.097 50.7534 357.644 50.418 356.191 49.4121 354.6262 48.8532 353.2849 48.8532 350.3789 48.965 348.9259 49.3003 347.5846 51.2004 346.2433 53.6594 345.5727 58.5773 344.9021 60.0304 343.4491 59.695 340.7666 57.9067 335.6251 57.4596 333.0543 57.0125 331.9366 56.2301 330.8189 52.3182 328.1364 51.3122 326.7952 50.8651 324.3362 50.8651 321.6537 50.6416 319.0829 49.3003 317.0711 48.4062 314.165 48.2944 313.1591 48.5179 311.9296 48.8532 311.0354 48.8532 310.1413 48.0708 309.0235 44.1589 305.7822 42.5941 303.6585 43.6 301.8702 44.6059 301.8702 46.8414 302.2055 47.6238 302.0937 48.2944 301.1996 48.2944 300.3054 48.1826 299.4112 48.4062 298.4053 48.965 297.5111 50.5298 295.8345 51.0887 294.8286 51.7593 293.0403 52.2064 291.1402 51.9828 289.4636 52.7652 274.598 51.7593 268.6741 51.5358 265.6563 52.0946 256.7146 51.9828 255.5969 51.0887 248.22 51.0887 244.9787 51.424 243.1903 53.7712 241.402 54.5536 239.6136 55.4477 238.1606 57.1243 238.3842 58.0185 236.2605 59.1362 234.6957 60.701 233.6898 66.7366 232.0132 67.2955 231.3426 68.9721 227.9894 68.3014 227.0953 65.8425 226.5364 65.1718 225.754 65.2836 224.5245 65.9542 223.4068 66.9602 222.6244 69.1956 221.3949 70.2015 220.5008 71.0957 219.3831 71.6546 218.1536 72.1017 216.7006 72.5487 216.0299 73.3311 215.6946 72.884 215.024 71.0957 211.7826 63.3835 198.1465 55.7831 184.5105 48.0708 170.8744 40.3586 157.2383 32.7582 143.6022 25.046 129.9661 17.3338 116.4418 9.6216 102.8057 9.398 102.3586 9.1745 101.9116 8.8392 101.4645 8.6156 101.0174 8.3921 100.5703 8.0568 100.0114 7.8332 99.5644 7.6097 99.1173 13.0865 99.3408 15.9925 99.1173 20.9105 97.8878 23.3694 98.2231 25.8284 98.8937 28.5109 99.3408 32.6464 99.229 38.4585 99.8997 41.141 100.4585 43.7118 100.235 44.8295 100.4585 50.3063 102.8057 50.6416 102.9175 51.3122 102.9175 51.6475 102.8057 53.3241 102.8057 56.789 103.6999 58.5773 103.9234 60.4774 103.4763 62.4893 102.6939 64.5012 102.3586 66.6249 103.0293 67.9661 103.5881 66.7366 105.3765 65.8425 107.1648 65.3954 109.0649 65.7307 112.1945 65.9542 112.8651 66.5131 113.3122 67.8543 113.3122 78.3608 111.1886 80.3727 110.0708 84.1729 107.3883 87.4143 106.2706 88.6438 106.0471 89.8733 106.0471 91.1028 106.2706 92.1087 106.0471 94.4559 103.8117 95.7971 103.141 99.262 102.8057 100.6033 102.2469 102.0563 101.1292 103.5094 99.6761 104.7388 98.1113 105.7448 96.5465 107.6449 92.0757 108.6508 90.6227 112.7864 86.1518 115.4689 81.3457 116.4748 80.1162 118.1514 78.8867 120.4986 77.769 121.7281 77.3219 122.9575 77.2101 124.9694 77.5454 133.7993 77.0983 134.9171 77.3219 135.923 77.6572 137.376 78.4396 140.2821 80.675 141.6233 81.3457 144.1941 80.675 145.4235 78.4396 146.0942 75.7571 146.8766 73.5217 147.659 72.7393 149.8944 70.8392 150.7886 69.7215 152.2416 67.3743 153.1358 66.3683 154.2535 65.3624 155.7065 64.9153 158.2772 63.6858 161.295 62.6799 162.8598 61.6739 164.0893 60.4444 165.0953 59.1032 165.4306 58.209 165.4306 57.6502 165.6541 57.0913 166.4365 56.4207 167.1072 56.1971 170.4603 56.0854 171.2427 55.9736 172.0251 55.7501 172.5839 55.303 172.6957 54.5206 172.2486 52.9558 172.3604 52.2851 173.4781 51.7263 175.1547 51.391 178.1725 51.2792 179.5138 51.5028 182.4198 52.2851 183.6493 52.2851 184.5435 51.7263 185.1023 50.9439 185.5494 50.0497 186.1083 49.4909 186.8906 49.2673 188.3437 49.1556 189.1261 49.0438 192.591 47.0319 204.4387 34.8488 214.1628 27.3602 215.5041 26.5778 221.5397 24.2306 222.3221 23.7835 222.6574 23.2246 222.881 22.3305 223.1045 21.5481 223.5516 20.9892 224.334 20.7657 233.0521 19.2009 237.523 19.5362 238.976 19.3127 240.429 18.8656 243.5586 17.0772 244.6763 16.6301 251.9415 15.5124 253.2827 15.0653 255.5182 13.5006 256.8594 12.9417 260.8832 12.6064 261.2185 12.7182 261.442 13.0535 261.7773 13.277 262.2244 13.3888 262.5597 13.0535 263.0068 12.1593 263.3421 11.9358 264.4598 11.7122 264.9069 11.824 265.8011 12.1593 267.7012 13.277 268.7072 13.5006 270.0484 13.277 273.4015 11.1534 274.7428 10.818 276.084 10.7063 277.09 10.818 280.1078 11.4887 281.002 11.6004 281.8961 11.0416 283.1256 9.8121 283.2374 10.371 283.5727 10.9298 283.908 11.6004 284.3551 11.824 285.1375 11.7122 285.3611 11.0416 285.2493 10.2592 285.3611 9.7003 286.0317 8.2473 286.4788 7.912 286.9259 8.9179 287.0376 9.5886 287.2612 10.1474 287.5965 10.5945 288.2671 10.818 291.0614 9.7003 292.1791 9.5886 291.9556 11.3769 291.6202 12.2711 291.9556 12.4946 292.6262 12.3828 293.185 12.4946 293.4086 12.4946 294.191 12.1593 294.5263 12.1593 294.9734 12.3828 295.644 13.1652 295.9793 13.5006 298.2147 14.9536 299.2207 15.5124 300.5619 15.736 301.4561 15.736 301.7914 15.4007 302.015 14.8418 302.3503 14.2829 302.462 14.0594 302.5738 13.3888 302.6856 13.0535 303.0209 12.8299 303.9151 12.7182 304.2504 12.6064 305.0328 11.6004 305.8152 10.4827 306.0387 9.8121 306.374 8.6944 306.8211 8.0238 310.1743 5.2295 311.1802 4.1118 311.8508 4 313.8627 4 315.204 4.4471 317.2158 6.2354 318.2218 8.5826 318.4453 8.8062 319.4513 12.1593 320.1219 12.9417 321.1278 13.8359 322.022 14.8418 322.4691 15.9595 322.1338 17.7479 320.569 20.7657 319.8983 22.4422 319.6748 25.4601 320.0101 28.4779 320.569 31.3839 322.022 35.1842 322.2455 36.8607 322.4691 40.1021 322.5809 40.7727 323.3633 42.5611 323.475 43.3435 323.2515 44.0141 322.022 46.026 321.2396 49.6026 320.3454 51.391 317.5512 52.7322 316.5452 54.1853 315.7628 55.8618 315.4275 57.2031 315.5393 57.7619 315.651 57.9855 315.9864 58.3208 314.198 61.4504 313.1921 62.4563 311.4037 62.9034 311.4037 63.3505 312.1861 64.6917 312.4097 65.2506 312.2979 65.5859 311.9626 66.2565 311.8508 66.7036 311.9626 67.3743 312.1861 68.1567 312.4097 68.8273 312.6332 69.0508 312.8568 69.8332 312.4097 73.5217 312.4097 74.6394 313.6392 76.0924 314.9804 76.8748 315.9864 77.9925 316.4334 80.1162 316.3217 81.4574 315.7628 84.2517 314.6451 87.7166 315.0922 88.6108 317.9982 89.3932 319.2277 90.2873 320.3454 91.5168 321.0161 92.6345 321.4631 99.0055 321.6867 99.4526 322.022 99.8997 322.4691 100.4585 322.4691 101.3527 322.1338 102.0233 321.6867 102.4704 321.1278 102.9175 320.4572 103.3646 319.3395 105.1529 319.2277 106.4942 319.6748 107.8354 319.8983 109.4002 319.3395 110.7415 316.5452 112.9769 315.4275 114.2064 315.204 116.1065 316.0981 117.2242 317.3276 118.1184 317.9982 119.1243 317.5512 120.242 316.5452 120.9127 315.8746 121.695 315.9864 123.4834 316.8805 124.9364 318.4453 126.0541 319.7866 126.8365 320.4572 127.2836 320.1219 128.2895 318.8924 129.7426 318.4453 130.6367 318.3336 131.4191 318.4453 131.978 320.9043 138.4607 322.9162 140.5844 325.4869 139.9138 327.2752 140.9197 328.0576 141.5903 328.6165 142.4845 328.6165 143.2669 328.0576 144.6081 328.0576 145.6141 328.2812 146.62 328.7283 146.8436 329.1754 146.8436 330.0695 147.1789 331.6343 148.2966 332.1932 148.9672 330.4048 149.5261 330.1813 150.1967 330.5166 151.985 330.4048 152.7674 329.7342 153.8851 329.6224 154.6675 329.6224 157.3501 330.0695 158.356 331.0755 159.4737 332.4167 160.4796 333.3109 160.815 333.8697 160.0326 334.3168 156.4559 334.6521 155.4499 335.0992 154.8911 336.1052 154.5558 336.3287 155.2264 336.1052 157.0147 337.1111 158.0207 338.4524 158.5795 339.6818 159.2502 340.3525 161.7091 341.2466 163.3857 341.582 164.1681 341.6937 164.9505 341.582 166.4035 341.582 167.1859 342.029 168.7507 342.3644 169.4213 343.1468 169.8684 343.3703 169.8684 344.1527 170.2037 344.5998 170.9861 344.7116 171.8803 344.3762 172.6627 343.3703 174.1157 343.2585 175.457 343.8174 176.6865 344.5998 177.5806 345.7175 178.1395 346.8352 178.4748 349.9648 178.5866 351.5296 178.9219 353.0944 179.4807 354.6592 179.7043 356.224 179.0337 357.1182 179.4807 358.4594 179.8161 359.6889 180.2631 360.2477 181.3809 360.5831 182.9457 361.4772 184.2869 363.8244 186.8576 363.2656 187.8636 363.6009 188.7578 364.495 189.0931 365.3892 188.8695 365.501 188.1989 365.8363 186.2988 366.0598 185.8517 367.2893 185.6282 367.5129 186.0752 367.8482 187.3047 367.8482 187.9754 367.4011 188.8695 367.4011 189.4284 367.6246 189.7637 368.1835 190.4343 368.407 190.6579 369.0777 191.4403 370.866 192.558 374.4427 194.1228 375.3369 194.2345 377.237 194.2345 377.684 194.3463 378.9135 195.3523 380.3666 196.1347 380.4783 195.9111 380.4783 195.6876 380.5901 195.5758 381.7078 195.6876 382.0431 195.7993 383.2726 196.9171 383.4961 197.4759 383.6079 198.3701 383.4961 200.0466 383.1608 201.6114 381.8196 204.6293 382.0431 205.9705 382.4902 206.3058 384.055 206.8647 384.7256 207.2 385.3963 207.9824 386.2904 209.5472 386.8493 210.3296 387.7435 211.3355 388.9729 212.2297 390.3142 212.9003 392.1025 213.1239 395.0086 212.565 396.1263 212.9003 396.9087 215.2475 397.5793 215.4711 398.2499 215.2475 398.697 215.1358 399.1441 214.8004 399.9265 213.9063 400.7089 213.6827 402.2737 213.4592 403.5032 213.9063 404.6209 214.5769 406.6328 216.8123 407.4152 217.0359 408.1976 216.2535 409.2035 214.6887 410.3212 216.0299 414.7921 216.1417 416.3569 218.3771 417.8099 218.1536 420.0453 217.2594 421.0513 217.5947 421.7219 218.2653 422.5043 218.8242 423.8455 218.8242 424.7397 218.0418 425.1868 217.3712 425.6339 216.7006 428.0928 213.571 428.2046 213.1239 429.4341 213.0121 431.6695 212.2297 432.6755 212.1179 443.2937 213.6827 443.5173 213.7945 447.4293 215.9182 450.5589 218.4889 451.7883 219.0477 453.3531 219.3831 454.3591 219.3831 455.1415 219.4948 455.9239 219.8301 456.5945 220.389 457.1534 221.1714 457.2651 221.9538 457.3769 222.6244 457.6004 223.4068 458.2711 223.9657 458.8299 224.1892 459.3888 224.4128 459.6123 225.3069 459.9476 225.754 462.7419 227.8777 464.3067 228.3248 465.2009 228.6601 467.3245 230.3366 468.2187 230.6719 473.4719 230.6719 474.2543 230.4484 474.5897 229.8895 475.2603 229.2189 476.8251 228.1012 477.1604 228.1012 478.0546 228.213 478.3899 228.1012 478.7252 227.7659 479.0605 226.9835 479.3958 226.6482 481.4077 225.754 481.6312 225.5305 482.4136 225.754 483.8667 226.4246 486.1021 226.9835 486.8845 227.9894 487.4433 230.6719 487.6669 231.2308 488.2257 231.5661 488.4493 232.0132 487.8904 232.9074 487.7787 233.3545 487.8904 233.8015 488.114 234.1369 489.7905 235.4781 490.5729 236.484 490.9083 237.1547 491.1318 238.8312 491.6906 240.2843 492.5848 241.402 493.479 242.0726 494.2614 242.4079 494.932 242.4079 495.6026 242.2961 496.2733 241.8491 496.9439 241.6255 497.2792 242.0726 497.5028 242.855 501.4147 247.8847 501.6383 248.3318 501.9736 248.6671 502.756 248.8906 503.5384 248.8906 504.0972 249.0024 504.4326 249.4495 504.5443 250.1201 504.8796 251.3496 505.8856 252.3556 507.1151 253.2497 508.5681 254.0321 508.6799 252.4673 509.4623 252.132 510.6917 252.132 512.1448 251.9085 513.0389 251.3496 513.8213 250.679 514.7155 250.5672 516.1685 251.4614 516.8392 252.0202 517.2862 252.6909 517.6216 253.3615 517.7333 255.1498 518.0686 255.4851 524.4396 258.2794 529.0222 258.1677 530.4752 258.3912 531.4812 259.0618 533.4931 261.5208 533.7166 261.8561 533.8284 262.6385 534.0519 262.7503 535.0579 262.7503 535.2814 262.7503 536.6227 263.5327 537.1815 263.7562 540.6464 264.2033 541.5406 264.0915 542.4348 263.3091 543.8878 263.9798 545.1173 263.6444 546.235 263.0856 548.9175 262.415 549.6999 262.3032 550.4823 262.5267 552.4942 263.868 552.6059 262.0796 553.2766 262.3032 554.9531 264.3151 555.7355 264.6504 556.4062 264.4268 556.8532 264.5386 556.965 265.6563 556.965 270.686 557.1886 272.0273 557.971 273.0332 559.5358 274.2627 562.7771 277.8394 563.7831 278.3982 563.8948 278.6218 565.0125 280.4101 565.4596 280.7454 567.0244 281.5278 568.3657 282.3102 571.9424 285.8869 572.613 286.4458 574.066 287.1164 574.6249 287.6752 574.9602 288.2341 576.4132 293.3756 577.3074 294.0462 578.9839 294.3815 580.437 294.0462 581.89 293.5991 583.343 293.2638 584.796 293.9344 586.1373 293.0403 587.8139 292.3696 589.714 291.9226 594.9672 291.4755 595.1908 291.5872 595.5261 291.5872 597.538 293.4873 598.3204 293.9344 601.7853 294.7168 605.1384 294.3815 608.268 293.152 613.2977 290.5813 614.4154 290.5813 615.5331 291.1402 618.2156 291.5872 619.6686 292.4814 620.5628 292.8167 621.3452 292.8167 623.0218 292.3696 627.9397 292.4814 628.6103 292.0343 629.0574 290.5813 630.1751 289.7989 633.3047 289.3518 633.5283 289.1283 634.4224 288.5694 635.4284 288.3459 635.8755 289.1283 635.8755 292.1461 637.2167 293.7109 640.4581 294.2697 644.0348 294.4933 646.4937 295.0521 647.835 296.3934 648.3938 296.7287 653.4235 298.8524 659.0121 303.3232 664.3771 307.5705 666.9479 308.9118 668.6244 309.3589 669.1833 309.5824 669.4068 309.9177 669.8539 310.8119 670.0774 311.1472 670.7481 311.4825 676.3366 312.8238 677.6779 313.6062 678.2367 314.9474 678.3485 317.0711 678.7956 319.0829 679.4662 321.0948 680.1369 322.6596 680.8075 323.3303 682.3723 324.6715 682.484 325.1186 682.1487 325.901 682.5958 326.3481 683.3782 326.6834 683.8253 327.0187 683.9371 327.6893 683.9371 328.1364 683.2664 329.5894 682.3723 333.0543 681.5899 334.7309 680.2486 335.8486 678.4603 336.4075 678.0132 336.7428 677.5661 337.7487 677.3426 339.5371 677.2308 341.2136 677.4543 342.2196 678.4603 344.0079 678.4603 345.908 678.2367 347.9199 678.2367 350.0436 679.0191 351.3848 683.0429 354.738 683.6018 355.9674 684.7195 360.7736 687.1784 366.1386 687.5138 369.38 685.2783 370.1624 686.5078 372.6213 690.0845 375.0803 690.9787 376.7569 691.2022 381.3395 691.5375 387.5987 691.7611 393.8579 692.0964 400.1171 692.3199 406.3762 692.6552 411.2942 692.2081 412.1883 683.8253 412.3001 669.6304 412.4119 673.5424 415.8768 678.5721 422.0242 686.5078 431.6365 693.3259 439.684 694.3318 441.3606 694.8906 443.2607 695.8966 454.6614 697.2378 470.0858 698.2438 481.3747 698.6909 489.6458 699.2497 498.2521 700.591 501.6053 702.9382 502.2759 707.9679 502.3877 722.051 502.9465 736.0224 503.3936 750.1056 503.9525 764.077 504.3996 778.0484 504.9584 792.1316 505.5173 806.103 505.9644 820.1861 506.5232 825.4394 506.635 827.116 506.5232 828.569 505.7408 829.1278 504.9584 830.2455 503.0583 830.6926 502.723 833.934 502.8348 834.7164 503.5054 835.0517 510.8823 834.7164 512 833.0398 513.453 832.9281 514.7943 834.3811 517.5886 833.4869 520.3828 826.11 528.7657 824.8805 531.1129 824.3217 533.6836 824.5452 537.0367 826.11 542.8488 826.3336 545.8667 826.11 546.4255 825.5512 547.7668 825.3276 548.4374 825.3276 549.4433 826.11 553.2436 827.3395 555.5908 827.7866 556.932 828.2337 562.297 828.569 563.5265 829.3514 564.8678 829.7985 566.5443 829.9102 573.4741 830.2455 576.3802 831.5868 578.6156 834.3811 580.1804 836.7283 580.5157 837.3989 580.7393 838.1813 581.1864 839.4108 582.3041 840.1932 582.7512 840.752 582.8629 841.9815 583.0865 842.6521 583.4218 843.4345 584.5395 844.664 587.1102 845.7817 588.0044 846.7877 588.2279 847.6818 588.3397 848.4642 588.5633 849.3584 589.2339 851.3703 591.4693 852.2645 592.0282 854.8352 593.1459 855.7294 593.7047 858.859 596.3872 860.9826 597.2814 863.7769 597.952 866.5712 598.1756 868.6948 597.505 870.3714 597.2814 871.7127 597.3932 873.2774 598.0638 874.2834 599.1815 875.0658 600.8581 875.2893 602.7582 875.1776 604.6583 875.2893 605.8878 875.2893 608.9056 875.4011 610.2469 875.96 611.6999 876.7424 612.7058 877.7483 613.6 878.7542 614.3824 879.9837 614.8295 879.3131 617.2884 879.5366 618.1826 880.8779 619.8592 881.9956 621.7593 881.7721 623.1006 879.5366 623.3241 886.3547 635.2836 890.1549 644.7842 892.7256 649.4785 895.6317 651.1551 897.0847 651.1551 898.3142 651.3787 898.9848 652.0493 898.873 653.8376 893.8433 653.8376 892.5021 654.1729 891.4961 655.0671 890.3784 658.8673 886.9135 669.9327 883.4486 680.998 879.9837 692.1751 876.5188 703.2405 875.6246 705.923 878.6425 706.1465 879.4249 706.8172 879.7602 708.2702 880.0955 712.9646 880.5426 716.3177 876.407 716.653 875.1776 717.4354 873.501 721.0121 871.1538 725.8183 866.1241 736.4365 861.0944 747.0548 858.859 751.8609 857.9648 753.8728 855.9529 758.1201 853.941 762.3674 853.0469 764.2675 850.4761 769.7443 851.035 771.9798 856.6235 777.1212 862.5474 782.598 869.9243 789.4161 869.2537 790.422 868.3595 791.6515 867.3536 792.7692 865.677 793.5516 863.8887 793.1045 862.6592 792.9927 862.1003 793.3281 861.9886 793.9987 861.4297 794.6693 860.7591 795.1164 859.8649 795.2282 857.9648 796.0106 855.7294 799.3637 853.8293 800.1461 853.2704 800.3696 852.3762 801.7109 852.0409 802.158 851.1468 802.7168 848.0172 803.8345 847.9054 801.8227 849.0231 797.6871 849.1349 796.0106 849.0231 792.7692 849.2466 790.9809 849.0231 788.5219 847.6818 784.051 847.5701 781.5921 847.7936 778.9096 847.5701 777.7919 846.7877 776.8977 843.8816 775.1094 836.9518 770.862 830.1338 766.6147 823.3157 762.2557 816.3859 758.0084 809.5679 753.7611 802.6381 749.5138 795.82 745.1547 789.002 740.9074 785.2018 738.6719 783.1899 737.1072 780.9545 735.5424 779.5014 735.207 773.4658 735.207 759.6062 735.4306 745.7465 735.6541 731.8869 735.7659 718.0273 735.9894 711.9916 736.1012 700.9263 738.4484 676.0013 743.9252 651.0763 749.2902 626.1514 754.767 601.2264 760.132 599.6616 760.4673 596.1967 760.9144 592.7318 761.4733 591.167 761.6968 584.5725 762.7028 583.4548 763.2616 582.7842 764.1558 581.4429 767.956 579.431 773.7681 577.3074 779.4684 575.2955 785.2805 573.1718 790.9809 572.1659 792.9927 571.2717 795.0046 570.8246 796.0106 570.2658 797.0165 569.3716 799.0284 568.1421 800.9285 566.9127 802.8286 565.6832 804.7287 564.4537 806.5171 561.2123 811.3232 557.8592 816.1294 554.6178 820.9355 551.2647 825.6299 549.8117 827.8653 548.1351 830.2125 545.4526 834.3481 544.8937 836.36 544.8937 843.5133 545.0055 850.4431 545.1173 858.0436 545.229 869.556 545.0055 874.6975 542.5465 882.8568 540.1993 891.0161 537.6286 899.846 534.9461 909.0112 532.3754 917.3941 529.0222 928.9065 526.3397 937.8482 523.0983 948.69 521.1982 955.7316 519.0746 963.2202 517.398 967.244 516.7274 967.0205 516.5039 966.4616 516.5039 965.6792 516.1685 965.0086 515.2744 964.1144 512.1448 961.7672 508.6799 960.0906 507.5622 958.9729 507.0033 957.6317 507.0033 955.0609 506.5562 954.055 506.7798 953.4961 506.7798 952.7138 506.3327 949.6959 506.1091 948.9135 504.9914 948.69 501.8618 948.0194 490.9083 948.69 467.7716 948.5782 444.635 948.3547 441.7289 948.9135 440.6112 949.5842 437.1463 952.602 436.3639 952.2667 433.3461 949.4724 431.7813 948.8018 424.9633 948.3547 422.9514 948.69 421.9454 949.2488 421.7219 949.4724 421.6101 949.9195 420.9395 951.7078 420.716 953.2726 420.3806 953.8315 419.8218 954.5021 419.2629 954.7256 418.8158 954.9492 418.3688 955.1727 417.6981 956.514 416.5804 960.9848 414.345 966.7969 413.7861 967.6911 412.2213 968.4735 411.6625 969.1441 406.2975 983.4508 404.5091 986.0216 400.7089 989.71 399.5912 991.6101 396.4616 1003.5696 396.3498 1009.27 395.6792 1010.8348 394.0026 1016.9822 394.1144 1017.9881 392.7732 1017.3175 392.4378 1013.629 391.5437 1012.5113 392.1025 1010.6112 391.879 1008.4876 390.873 1006.6992 389.3083 1005.9168 388.5259 1005.2462 386.514 1000.9989 385.8433 1000.44 385.1727 1000.2165 384.7256 999.7694 384.5021 998.5399 384.6139 997.6458 384.9492 996.081 384.9492 995.2986 385.2845 994.4044 385.8433 993.7338 386.4022 992.9514 386.514 991.7219 382.4902 987.6981 381.3725 986.2451 380.9254 984.345 380.7019 983.8979 379.3606 983.0037 378.9135 982.4449 379.0253 981.6625 379.5842 980.0977 379.4724 979.2035 378.4664 978.3094 376.9017 977.3034 376.0075 975.8504 376.6781 974.062 377.684 972.8326 378.1311 971.7149 378.1311 970.4854 377.4605 968.8088 376.7899 967.9146 374.8898 965.4557 374.2191 965.0086 372.6543 964.6733 371.0895 963.7791 369.6365 962.7732 368.0717 962.5496 367.5129 962.3261 366.8422 962.4378 365.501 962.9967 364.8304 963.1085 361.9243 962.4378 356.7828 959.5318 342.9232 956.2904 330.4048 956.4022 310.8449 956.6257 306.9329 956.1787 301.7914 955.508 301.1208 955.508 300.7855 955.8433 300.4502 956.1787 299.8913 956.514 289.6084 957.6317 287.3729 956.9611 285.2493 955.3963 275.8605 944.2191 274.1839 943.325 267.4777 942.0955 267.0306 941.6484 266.1364 937.8482 263.901 935.3892 260.7714 933.7127 254.5122 931.7008 253.171 932.1479 249.7061 945.2251 249.0354 952.602 248.7001 953.7197 248.253 954.7256 248.0295 954.8374 247.8059 954.6139 246.8 954.7256 246.2411 955.1727 245.5705 955.7316 245.1234 956.514 244.8999 957.2964 243.1116 958.6376 233.2757 961.5437 224.7811 963.8909 224.4458 964.2262 224.2222 964.8968 223.9987 965.3439 223.6634 965.4557 222.4339 965.1204 220.9809 964.8968 220.1985 964.6733 219.4161 964.5615 218.4101 965.0086 216.7336 966.4616 215.7276 968.0264 215.1688 969.9265 214.3864 975.8504 213.8275 977.6387 212.8216 978.7564 212.7098 979.4271 213.1569 981.7743 213.0451 982.5567 212.2627 983.1155 203.9916 985.798 201.9798 986.804 200.5267 988.3688 199.8561 989.4865 198.8502 990.1571 197.7325 990.3806 196.1677 990.2689 194.8264 990.2689 195.497 997.7575 195.2735 999.4341 194.4911 1000.6636 188.9025 1005.1344 186.7789 1007.7052 182.9787 1014.0761 159.7303 1019.1058 157.0477 1019.6647 151.9063 1020 140.5056 1019.3294 138.1584 1018.547 137.5996 1017.9881 135.923 1015.5292 135.5877 1015.5292 132.7934 1014.9703 132.011 1013.7408 131.6757 1011.7289 131.6757 1005.5815 134.0229 993.7338 134.0229 992.169 131.7875 987.6981 131.1168 983.6744 130.558 981.9978 127.6519 976.7446 127.2048 975.1798 127.2048 973.615 128.4343 968.5853 128.4343 967.0205 127.7637 965.1204 125.64 962.1025 125.4165 961.3201 125.64 960.5377 126.5342 959.1965 126.8695 958.5259 126.5342 956.7375 125.64 954.8374 124.4106 953.1608 122.9575 952.1549 119.3809 948.69 117.5925 947.0134 116.9219 946.1193 116.5866 944.8898 115.8042 931.9243 114.2394 925.7769 109.6568 917.3941 109.0979 914.7116 109.4332 895.3751 108.4273 891.9102 93.0029 866.3146 91.8851 865.1969 90.2086 864.7498 87.1908 864.8616 86.073 864.7498 84.5083 863.7439 82.8317 862.738 81.6022 859.3848 81.4904 849.2136 82.0493 847.4253 83.167 845.7487 88.1967 841.3897 88.3085 839.9366 86.073 838.1483 84.1729 837.3659 80.708 835.1305 73.2194 831.442 71.5428 830.2125 69.978 828.536 68.4132 826.4123 67.2955 823.9534 67.0719 821.4944 67.8543 819.4825 69.5309 818.1413 73.7782 816.6882 70.8722 811.435 69.978 808.8642 70.0898 805.7347 70.4251 803.4992 70.2015 802.7168 67.8543 802.2697 65.6189 800.8167 65.2836 799.2519 66.6249 797.9107 75.5666 795.1164 77.9138 794.8928 78.9197 795.1164 79.7021 795.3399 80.3727 795.2282 81.0433 794.4458 81.3787 793.6634 82.0493 790.9809 82.0493 789.4161 83.6141 785.8394 83.8376 784.7217 83.7259 784.1628 83.3905 783.7157 83.0552 782.7098 83.0552 780.3626 82.9435 779.8037 82.3846 778.686 81.714 778.2389 79.3668 777.233 78.1373 776.3388 75.7901 773.8799 72.2134 771.0856 71.7663 770.0796 71.8781 768.6266 72.884 767.0618 75.9019 764.3793 77.2431 762.9263 81.2669 756.8906 84.5083 751.8609 86.073 749.6255 87.1908 748.6196 90.0968 747.2783 90.7674 746.7195 90.2086 745.2664 88.8673 743.7017 87.4143 742.2486 79.4785 736.4365 76.9078 735.4306 74.8959 734.2011 72.2134 729.6185 70.5369 727.8301 63.607 721.6827 61.2598 720.0062 57.7949 718.7767 56.789 718.1061 56.0066 716.9883 54.2183 712.9646 52.877 710.5056 51.9828 709.3879 50.8651 708.7173 52.9888 705.6994 53.6594 704.2464 53.6594 702.5699 53.4359 701.6757 49.3003 693.0693 49.3003 692.9575 49.3003 692.8458 49.8592 691.8398 49.971 690.7221 49.8592 689.7162 49.3003 688.7102 47.6238 685.5806 46.9531 681.7804 46.9531 677.7567 47.512 674.0682 47.512 672.2799 46.9531 670.7151 44.3824 666.1325 44.0471 664.903 44.2706 660.6557 44.1589 659.985 43.0411 656.6319 42.9294 655.9613 42.9294 655.1789 42.7058 653.3905 41.9234 652.1611 39.688 649.7021 38.6821 646.1254 40.8057 643.7782 43.4882 641.6546 44.0471 638.3014 43.2647 637.0719 42.3705 637.0719 41.2528 637.519 39.688 637.6308 38.4585 637.1837 37.229 636.7366 34.9936 635.2836 33.3171 634.8365 32.7582 634.7248 32.3111 634.1659 30.7463 632.4893 29.6286 632.7129 28.7344 633.3835 27.8403 633.3835 26.7226 631.4834 26.0519 628.6891 25.9402 622.9888 25.4931 620.1945 23.593 616.6178 21.0222 613.7118 15.0983 608.3468 13.5336 605.9996 12.8629 603.2053 12.5276 597.0579Z" />
</svg>