<?xml version="1.0" encoding="utf-8"?>
<svg xmlns="http://www.w3.org/2000/svg" viewBox="0 0 1021 576" style="stroke-width:0.25px;stroke-linejoin:round;stroke:#444;fill:#ddd" fill-rule="evenodd">
  <path class="BT" d="M50.0675 361.266L56.9974 356.0128 67.7274 356.9069 74.0983 362.2719 81.6988 356.0128 76.8926 347.9652 71.7512 334.888 67.8392 321.1402 69.7393 313.0926 72.4218 305.8275 77.4515 300.9096 76.5573 299.1212 75.1043 296.1034 74.4337 292.415 76.1102 288.0559 80.4693 285.5969 84.1578 281.4614 83.4871 277.7729 87.5109 272.5197 92.6524 271.402 94.6642 266.2605 98.0174 261.4543 101.9294 258.7718 110.3122 255.4187 113.5536 256.2011 114.6713 256.4246 115.789 256.6482 118.8068 258.1012 120.3716 259.2189 121.154 254.9716 129.7604 241.7826 142.6141 219.6519 148.0909 205.7923 150.6616 193.2739 160.8328 186.4559 173.2394 180.7556 184.3047 172.2609 194.5877 158.5131 208.8944 131.3527 210.0121 129.229 217.0537 116.8224 221.4128 111.1221 226.4425 106.4277 232.4781 104.1923 238.402 99.3861 252.4851 81.2792 257.8502 77.9261 263.4387 76.1377 299.7644 69.4315 311.2768 64.1782 316.6418 54.4541 318.8772 48.9773 323.4598 45.0653 333.631 38.5826 336.3135 35.5648 341.0079 28.8585 343.6904 25.9525 346.9318 24.2759 349.279 25.3936 359.7855 19.1344 370.7391 21.7052 376.5512 18.352 382.2515 17.4579 406.6176 8.9633 422.4891 12.4282 431.4308 16.899 438.4724 15.7813 445.4022 7.8455 453.338 4.4924 464.2915 12.4282 464.2915 24.8348 473.345 37.8002 484.8574 39.7003 492.2343 24.8348 502.182 24.8348 511.1237 30.5351 523.0832 30.5351 538.0605 41.824 551.026 42.9417 562.9855 47.4125 565.8915 58.7014 556.9498 62.1663 551.026 73.4552 541.0783 74.5729 532.0249 84.7441 528.8953 102.6275 534.1485 101.9569 539.4018 102.0686 559.1853 104.8629 565.8915 103.2981 573.2684 102.404 582.0983 97.5978 587.0163 96.4801 592.046 97.5978 605.0114 106.316 613.6178 108.5514 623.789 111.2339 642.5666 112.3516 660.3382 116.2636 675.7626 129.229 680.1217 133.5881 690.2928 138.8414 703.3701 140.1826 715.6649 137.1648 723.8242 129.229 728.1833 122.6345 740.8134 107.769 746.5138 103.2981 754.4495 101.8451 762.1617 102.9628 769.3151 102.5157 775.4625 96.1448 781.2746 108.1043 790.9987 116.9342 814.3589 129.229 819.7239 131.1292 822.7417 132.1351 827.1008 132.8057 838.1661 132.9175 850.2374 137.9472 862.7558 139.512 869.3503 141.4121 875.7212 144.3182 880.6392 148.1184 885.2218 155.9424 883.9923 162.6486 880.4156 169.4667 877.7331 177.8495 858.3967 178.2966 858.9556 188.6913 870.8033 192.268 879.9685 201.8803 879.745 214.1751 877.286 224.4581 863.0911 244.4651 861.0792 257.5424 867.6737 282.5791 870.5798 287.3853 879.1861 294.4268 881.7569 300.1272 886.563 305.4922 893.4928 307.6158 900.8697 309.0689 907.576 311.9749 907.576 312.0867 923.4475 313.2044 934.6246 311.5278 946.8077 309.8513 960.1085 312.0867 979.1096 308.9571 982.6862 307.8394 997.3283 316.5575 1015.8823 365.0662 1017 369.09 1014.9881 375.0139 1005.4876 383.0614 1001.352 388.2029 1000.2343 391.2207 999.2284 397.7034 998.3342 400.6095 996.6576 403.292 992.7457 407.5393 991.9633 408.657 991.0691 409.8865 988.9454 414.8044 987.3806 420.7283 986.4865 426.9875 986.4865 433.2466 990.1749 444.2002 1005.264 459.4011 1010.4055 470.2429 1015.547 489.8029 1014.541 495.1679 1012.1938 506.5685 1001.0167 517.7457 982.6862 520.5399 977.3212 517.9692 967.7089 509.6981 962.4557 507.4627 957.873 508.804 958.5437 513.2748 958.5437 518.1927 952.0609 521.3223 955.6376 525.905 955.9729 531.4935 953.514 535.4055 948.7078 534.7349 945.5782 530.1523 944.684 524.5637 943.0075 519.6458 937.3072 516.5162 928.2537 518.1927 909.029 530.9347 900.0873 535.182 885.4453 537.0821 880.6392 536.7468 867.2266 532.723 861.8616 532.9465 850.7963 536.7468 845.2077 537.1938 841.1839 533.6172 834.2541 518.5281 831.3481 514.169 826.989 512.8277 814.8059 512.1571 810.5586 512.8277 805.1936 516.5162 802.064 521.8812 799.6051 528.0286 796.1402 534.2878 792.2282 538.1998 787.5338 541.3294 782.3923 543.5648 777.3626 545.0178 771.2152 545.1296 766.9679 543.453 758.0262 537.9762 747.6315 535.629 726.0596 536.0761 715.4414 534.7349 706.3879 534.8466 691.5223 541.6647 689.9575 542.4471 670.8447 543.5648 602.1054 547.5886 562.9855 543.1177 528.8953 525.3461 500.8407 505.2273 490.6695 503.6625 484.5221 505.6744 480.163 509.1393 476.1393 513.2748 471.2213 517.075 465.6328 518.8634 454.4557 518.4163 448.9789 518.9751 438.8077 525.4579 431.2073 545.912 423.6068 552.8418 412.0944 556.0832 377.6689 559.4363 358.556 564.5778 351.9615 565.2484 348.9437 564.8013 342.7963 562.9012 342.3492 562.7894 340.002 562.4541 338.8843 561.8953 336.4253 559.6598 335.1958 559.5481 333.631 560.8893 332.9604 562.6777 332.8486 564.2425 332.7369 564.9131 332.7369 565.6955 332.2898 567.7074 331.2838 569.9428 329.8308 571.5076 328.7131 571.5076 325.807 570.3899 324.6893 570.0546 312.618 570.1663 310.9415 569.9428 306.1353 569.1604 289.9285 561.8953 283.2222 561.6717 272.7157 566.0308 267.1272 566.1426 263.327 563.1248 268.2449 553.8477 267.5743 547.9239 259.9738 541.7765 247.9025 537.1938 235.4959 535.182 216.6066 537.4174 205.8766 531.8288 194.2524 523.6695 185.9813 517.9692 173.4629 521.3223 169.2156 521.0988 165.4154 521.5459 162.174 524.0048 159.0444 527.2462 155.4678 529.7052 146.9732 531.9406 138.4785 532.8348 121.3776 531.8288 111.7652 529.1463 107.5179 524.1166 105.059 517.2986 100.9234 508.804 96.229 503.4389 89.1875 498.1857 81.587 494.7208 75.1043 495.0561 72.31 497.1798 68.8451 498.1857 65.2684 497.8504 62.1388 495.9503 60.0152 492.4854 60.0152 489.244 60.4623 485.6673 59.7916 481.5318 54.3149 474.9373 48.2792 475.7197 42.3553 480.6376 37.7727 487.0086 35.8726 470.2429 35.8726 451.6889 34.4196 442.9707 30.5076 435.2585 23.6895 430.1171 4.6884 420.0576 1.8942 417.934 1 417.2634 3.459 407.4275 8.2651 396.2504 14.7479 386.6381 22.4601 381.3848 40.6788 376.5787 45.1496 373.2255 47.7204 371.2136 50.0675 361.266Z" />
</svg>