<?xml version="1.0" encoding="utf-8"?>
<svg xmlns="http://www.w3.org/2000/svg" viewBox="0 0 971 1024" style="stroke-width:0.25px;stroke-linejoin:round;stroke:#444;fill:#ddd" fill-rule="evenodd">
  <path class="BW" d="M545.3624 5.2295L541.2268 14.5065 541.2268 17.6361 541.8975 20.2068 544.9153 27.6955 549.1626 34.9606 551.9569 38.0902 555.4218 40.1021 558.5514 42.6728 560.675 46.6966 564.0282 54.9677 567.3813 60.4444 568.1637 62.6799 569.1696 67.2625 569.6167 68.6037 570.958 70.8392 577.776 78.1043 581.2409 80.4515 582.6939 81.9045 587.6119 88.9461 590.5179 91.6286 594.5417 93.6405 597.1124 95.9877 598.2301 99.7879 598.9008 107.7237 602.5892 115.9947 615.5547 127.6189 618.2372 136.2253 618.349 136.3371 617.9019 138.5725 616.2253 142.5963 615.89 144.8317 616.3371 147.5142 617.1195 149.5261 619.6902 153.8851 622.8198 158.0207 625.167 162.8268 635.0029 190.8814 637.6854 194.7934 641.5974 197.3641 646.2917 198.5936 651.7685 198.7054 652.8862 199.2642 653.8922 199.9349 654.6746 200.829 655.6805 202.2821 656.0158 203.1762 655.2334 205.4117 654.451 206.7529 653.7804 207.0882 653.7804 207.3118 655.0099 208.2059 655.9041 208.5413 659.0337 209.1001 661.2691 210.3296 664.1751 214.8004 666.0752 216.5888 667.9754 217.3712 672.1109 218.3771 674.011 219.1595 678.2583 221.842 679.9349 223.6304 680.829 225.754 681.6114 228.213 682.9527 229.666 684.8528 230.5602 689.5472 231.9014 691.0002 232.6838 691.3355 233.1309 692.1179 233.9133 693.571 235.9252 695.1358 237.49 696.9241 238.4959 698.936 238.8312 701.3949 238.943 705.3069 239.6136 716.9311 245.6493 720.6196 246.3199 724.0845 246.2081 727.4376 246.6552 730.7908 248.5553 731.7967 249.5613 733.585 252.132 734.7028 253.0262 735.9322 253.585 736.9382 253.585 738.0559 253.4733 739.2854 253.585 741.409 253.9204 743.5327 254.4792 745.4328 255.7087 746.774 257.6088 752.0273 271.2449 753.9274 284.0986 752.2508 299.9701 756.1628 297.9582 759.7395 297.3993 771.3637 297.5111 779.6348 298.5171 785.5586 297.5111 789.1353 299.1877 793.2708 299.1877 795.0592 299.9701 796.5122 301.4231 797.2946 303.3232 797.0711 307.6823 795.7298 311.5943 794.9474 315.5063 797.5182 324.2244 797.7417 328.6953 796.1769 337.637 795.618 338.8664 794.8356 339.7606 794.2768 340.7666 794.165 342.2196 794.165 343.4491 793.9415 346.0198 793.9415 347.0257 794.7239 353.2849 794.6121 355.5204 793.3826 361.4442 793.2708 363.3443 794.165 365.468 797.7417 370.3859 799.3065 372.0625 806.4598 377.3157 809.4777 381.116 812.1602 385.2515 815.8486 389.7223 816.7428 391.2871 816.9663 392.1813 816.9663 393.9696 817.0781 394.752 817.7487 395.758 819.4253 397.6581 822.5549 403.9173 822.7784 405.035 822.4431 405.9292 821.6607 407.2704 821.4372 408.2763 821.7725 408.4999 822.5549 408.7234 823.002 409.3941 822.4431 410.8471 822.8902 411.9648 823.3373 412.0766 823.8961 411.9648 824.6785 412.3001 825.1256 413.3061 826.1316 415.5415 826.6904 416.5474 827.9199 417.8887 829.3729 418.7828 831.0495 419.3417 836.9734 419.7888 844.6856 421.3536 856.9804 421.4653 860.7806 422.2477 864.9162 423.589 873.299 428.0598 875.5344 428.5069 877.211 428.1716 878.8876 427.501 882.576 426.6068 883.582 426.048 884.6997 425.9362 888.0528 426.7186 891.0706 427.0539 892.5237 427.501 896.5474 430.7424 901.2418 432.1954 916.3309 439.237 919.4605 440.1311 925.7197 440.4664 928.7375 441.2488 930.5259 442.4783 934.6614 443.8196 936.338 445.1608 936.6733 447.2845 935.332 449.8552 933.6554 452.5377 932.5377 454.8849 932.0906 459.5793 932.873 464.2737 934.8849 468.521 938.0145 471.8741 941.8147 473.886 945.615 474.5567 955.3391 474.3331 955.8979 474.6684 956.9039 475.8979 957.4627 476.9039 958.2451 479.1393 958.9157 480.1452 966.7397 486.9633 964.8396 487.6339 961.9336 487.4103 956.2332 486.1809 953.5507 486.5162 951.5388 487.8574 949.8623 489.3105 948.0739 489.9811 935.5556 490.7635 934.6614 491.0988 932.5377 494.1166 932.5377 494.5637 930.9729 495.5696 928.9611 497.5815 926.6139 500.7111 927.3963 508.5351 926.9492 509.8763 925.9432 510.7705 923.4843 515.2414 921.6959 516.6944 917.2251 516.1355 914.8779 516.2473 913.8719 517.8121 913.3131 519.9358 911.8601 521.0535 909.7364 521.7241 907.501 522.0594 903.0301 523.4007 895.5415 527.648 891.9648 528.8774 889.1705 528.8774 887.1586 528.5421 885.3703 528.8774 883.1349 530.7776 881.4583 531.3364 874.9756 529.6598 866.481 530.2187 862.569 531.3364 858.7688 533.4601 857.204 534.8013 853.5155 539.2722 852.5096 539.831 849.9388 540.0546 848.8211 540.3899 847.927 541.0605 844.5738 545.196 844.1267 546.202 843.9032 547.655 844.1267 548.9963 844.462 549.8904 844.3503 550.7846 843.6796 552.2376 842.6737 553.1318 841.6678 553.4671 840.5501 553.8024 839.7677 554.1377 839.3206 554.8084 838.7617 556.5967 838.3146 557.2673 836.8616 557.938 834.4026 558.6086 832.5025 559.5028 832.3908 560.7322 833.1732 563.0794 832.8378 565.5384 831.4966 567.7738 829.9318 569.5622 828.4788 570.4563 826.5787 571.4623 824.455 572.2447 822.4431 572.58 821.2136 573.6977 821.2136 576.2684 822.1078 580.9628 820.4312 584.0924 816.8546 586.6631 812.6073 588.4515 808.6953 589.4574 809.3659 591.4693 807.6893 592.1399 805.4539 591.9164 804.448 591.6928 804.1127 592.587 804.448 593.4812 804.895 594.2636 805.1186 594.8224 805.3421 595.1578 805.7892 595.6048 805.901 596.0519 805.4539 596.2755 805.3421 596.3872 804.5597 597.0579 804.448 597.0579 802.8832 601.4169 802.3243 602.4229 800.7595 603.2053 799.4183 602.5347 796.624 599.4051 792.4884 602.7582 791.259 603.2053 789.9177 602.7582 788.4647 602.0876 787.2352 601.9758 786.341 605.1054 784.4409 607.3408 783.9938 609.0174 783.8821 609.688 783.6585 610.2469 783.3232 610.8057 782.9879 610.9175 782.6526 611.2528 782.8761 612.0352 783.0997 612.9294 783.3232 613.6 782.7644 616.1707 781.1996 618.1826 779.0759 619.5239 776.8405 620.1945 772.5932 620.418 771.2519 620.8651 770.246 621.9828 769.4636 623.3241 768.4576 623.9947 767.0046 623.2123 767.787 621.5358 766.8928 621.424 765.4398 621.8711 764.2103 622.5417 763.875 623.2123 762.8691 624.4418 761.8631 625.1124 760.7454 621.6475 759.1806 622.877 756.8334 626.6772 755.0451 628.3538 753.2568 629.695 749.3448 631.7069 745.5446 632.9364 744.3151 634.2777 745.8799 636.4013 744.7622 636.8484 743.868 636.8484 743.0856 636.4013 742.3032 635.5072 742.0796 636.1778 741.2972 637.1837 740.8502 637.9661 739.956 636.8484 738.8383 636.4013 737.7206 636.6249 737.2735 637.519 737.7206 638.8603 738.6147 639.6427 739.1736 640.3133 738.7265 641.6546 737.497 640.8722 736.2675 640.9839 735.3734 641.8781 734.4792 643.2194 735.1498 643.2194 733.2497 644.5606 732.6909 645.2312 732.3556 646.349 731.6849 645.9019 731.0143 645.5666 731.1261 647.802 731.7967 649.7021 731.9085 651.3787 730.2319 652.4964 728.5553 652.3846 727.6612 651.1551 727.1023 649.8139 726.0964 649.3668 725.0904 650.1492 723.3021 654.8436 721.2902 658.4202 720.7314 660.5439 720.9549 661.5498 721.1784 662.444 718.2724 667.809 718.943 670.1562 718.6077 673.174 711.3426 703.1287 711.119 708.1584 709.1072 718.1061 708.1012 720.0062 706.4246 721.571 704.301 722.8004 695.1358 725.7065 693.0121 726.936 692.1179 728.6125 685.8587 735.207 679.1525 739.5661 676.3582 741.9133 673.7875 745.2664 670.7696 753.314 669.9872 754.6552 663.281 761.585 660.9338 761.2497 659.0337 761.0262 657.1336 760.5791 655.1217 760.4673 650.3155 761.138 638.6913 764.8264 623.0433 769.7443 619.6902 772.2033 618.1254 772.9857 612.8722 772.8739 609.4073 773.9916 608.6249 774.1034 608.066 774.6623 607.9542 777.4565 608.9602 785.7276 608.9602 790.3102 607.8425 793.9987 604.8246 800.9285 604.6011 805.1758 601.4715 810.6526 599.2361 818.253 590.2944 838.5954 586.9413 853.3492 585.8235 856.0317 581.3527 866.9853 579.1173 873.9151 565.8165 884.4216 558.4396 888.11 536.8678 890.3454 532.6205 889.563 527.9261 888.11 523.9023 887.4394 519.9903 887.9982 515.2959 890.2337 509.1485 895.0398 507.1366 895.8222 500.9892 897.4988 497.8596 897.8341 494.9536 897.1635 491.6004 896.3811 484.1118 897.1635 480.4233 896.3811 474.9465 892.5809 467.1226 889.6748 462.6517 887.9982 460.5281 888.2218 458.5162 889.116 455.7219 889.8983 450.4686 889.0042 446.1096 885.7628 439.068 877.2682 434.4854 874.5857 429.0086 874.6975 418.3903 877.6035 416.1549 877.9388 416.0431 877.38 416.602 876.374 416.4902 875.4799 415.3725 874.5857 414.3666 873.9151 413.1371 873.6915 407.7721 875.0328 405.8719 873.8033 404.3072 871.5679 399.6128 868.103 395.7008 862.9615 394.8066 862.4026 392.6829 861.732 391.7888 861.0614 391.1182 860.0554 390.0004 857.7083 389.1063 856.8141 383.2942 855.0257 382.0647 853.6845 381.2823 852.5668 370.3287 843.9604 367.758 842.3956 364.7402 840.9426 363.7342 840.1602 362.393 838.7072 360.8282 836.36 359.8222 835.354 358.3692 834.9069 357.0279 835.2422 353.6748 836.4717 351.8865 836.5835 350.2099 836.2482 345.5155 834.4598 339.927 833.3421 334.7855 833.6774 329.8675 835.1305 322.1553 838.8189 321.1494 839.7131 319.9199 840.3837 319.2493 839.8249 318.8022 838.7072 318.1316 837.7012 315.6726 837.3659 313.3254 838.7072 309.3017 842.7309 308.7428 843.7369 308.4075 844.7428 308.0722 845.637 306.8427 846.4194 305.3897 847.09 304.3837 847.7606 303.4895 848.7666 302.5954 850.1078 300.9188 854.5787 299.8011 855.9199 297.2304 856.9259 296.5597 858.0436 294.4361 865.1969 293.6537 866.8735 293.4301 867.8794 293.3184 868.7736 293.8772 869.8913 294.8832 871.1208 295.3303 872.3503 294.4361 873.468 293.0948 874.5857 292.9831 875.4799 293.3184 876.4858 293.5419 877.7153 293.3184 879.2801 292.9831 880.5096 292.4242 881.6273 287.8416 887.1041 286.3886 889.4513 285.8297 891.9102 285.8297 893.475 286.2768 893.8103 286.8356 894.0339 287.618 895.2634 288.2887 896.8282 288.4004 897.6106 287.2827 899.5107 285.7179 901.1872 283.5943 903.0873 282.5883 904.9875 283.8178 906.9993 284.3767 908.4524 284.4884 911.0231 284.1531 913.7056 283.5943 915.6057 282.7001 917.0587 281.6942 917.8411 278.7881 918.9589 277.6704 919.853 277.7822 920.859 278.1175 921.9767 278.0057 923.3179 273.7584 930.0242 273.5349 930.2477 272.5289 931.2537 270.5171 932.7067 269.2876 934.2715 267.611 938.1835 265.7109 941.2013 263.9226 941.9837 259.2282 940.9778 255.9868 941.5366 253.7514 943.4367 250.1747 948.69 244.8097 953.8315 242.3507 955.1727 240.7859 955.7316 235.9798 956.6257 235.0856 957.2964 233.9679 959.5318 229.8323 963.7791 227.9322 967.9146 224.5791 977.0799 220.6671 983.1155 215.5256 988.3688 209.3782 992.169 202.8955 993.7338 192.9479 993.8455 189.7065 994.4044 186.9122 995.4103 185.6827 996.6398 185.571 998.4282 186.4651 1003.5696 186.5769 1005.8051 186.1298 1007.9287 185.0121 1009.9406 183.112 1011.8407 177.2999 1015.8645 174.9527 1016.7586 172.829 1016.6469 166.6816 1015.0821 157.8517 1014.8585 152.822 1012.5113 150.4748 1012.0642 145.7804 1012.176 137.0623 1014.635 135.6092 1014.635 132.815 1014.2997 131.2502 1014.2997 122.3085 1016.8704 119.0671 1016.9822 105.5428 1013.8526 101.4073 1011.2818 97.0482 1009.4935 91.2361 1010.1641 88.5536 1011.6172 83.7474 1014.9703 77.1529 1018.0999 74.9175 1019.7765 74.6939 1020 74.1351 1018.8823 73.0174 1015.1938 72.0114 1013.9644 70.5584 1012.8466 69.8878 1012.2878 69.3289 1011.3936 67.8759 1008.264 66.7582 1004.0167 66.1993 999.7694 66.1993 996.3045 68.4348 988.4805 68.6583 985.798 68.0994 984.1215 66.4229 981.7743 65.864 980.3212 65.5287 977.4152 65.864 974.062 67.2053 967.9146 67.6524 966.5734 70.6702 964.2262 72.1232 962.4378 75.141 956.7375 81.0649 949.1371 83.4121 945.0015 85.3122 940.6425 89.7831 934.2715 90.1184 932.4832 86.3182 925.5534 85.9828 923.4297 86.2064 915.1586 85.3122 905.3228 82.5179 898.5047 82.5179 898.0576 81.2884 896.7164 80.7296 896.6046 79.7237 897.1635 78.3824 897.6106 78.3824 896.6046 79.5001 894.3692 77.2647 886.7688 76.2587 884.7569 75.2528 883.8627 72.5703 882.5215 71.7879 881.4037 71.7879 880.1743 72.6821 877.7153 72.5703 876.4858 71.7879 875.8152 70.5584 875.5916 69.5525 875.2563 69.2172 874.0268 69.776 873.1327 72.0114 871.7914 72.6821 870.6737 71.7879 867.6559 67.2053 863.5204 67.4288 860.279 68.0994 858.4906 71.1173 856.5905 69.776 855.3611 68.8818 855.3611 67.9877 856.0317 66.9817 856.367 65.9758 855.9199 65.864 854.6904 66.4229 853.3492 66.5347 852.3432 64.9699 852.5668 64.6345 850.3314 64.0757 849.3254 61.0579 847.9842 59.3813 846.7547 58.7107 845.5252 58.04 841.9485 57.593 841.0543 56.4752 839.6013 56.0282 838.8189 56.0282 837.9248 56.4752 837.3659 56.9223 836.6953 56.6988 835.5776 56.0282 834.9069 54.1281 833.901 53.4574 833.2304 53.3457 832.448 53.1221 829.5419 51.1102 828.7595 49.2101 827.53 48.2042 826.077 49.0983 824.0651 49.3219 822.5003 48.2042 820.0414 45.4099 815.5705 42.1685 808.5289 41.0508 807.0759 27.7501 796.0106 19.9261 791.2044 18.8084 790.8691 16.6847 790.7573 15.6788 790.5338 14.5611 789.7514 11.8785 786.51 6.5135 782.2627 4.6134 779.2449 2.7133 777.7919 2.0427 777.0095 1.5956 775.2211 1.5956 755.6612 1.4838 736.213 1.4838 716.7648 1.4838 697.3166 1.4838 677.9802 1.4838 674.8506 1.4838 658.6438 1.4838 639.3074 1.3721 619.971 1.3721 612.2587 1.3721 600.6345 1.3721 581.4099 1.3721 562.1853 1.3721 542.9606 1.2603 526.0832 1.2603 509.3175 1.2603 492.5518 1.2603 475.8979 1.2603 466.2856 25.4029 466.2856 49.4337 466.2856 73.5762 466.2856 97.7188 466.2856 103.6427 466.2856 104.9839 462.2618 104.8722 457.6792 104.8722 451.1965 104.8722 444.8255 104.8722 438.4546 104.8722 432.0836 104.8722 425.7127 104.7604 419.3417 104.7604 412.859 104.7604 406.488 104.7604 400.1171 104.7604 393.7461 104.6486 387.3751 104.6486 381.0042 104.6486 374.6332 104.6486 368.2623 104.6486 361.8913 104.6486 355.5204 104.5369 341.7725 104.5369 328.0246 104.4251 314.2768 104.4251 300.5289 104.4251 286.7811 104.4251 283.9868 104.3133 273.0332 104.3133 259.2854 104.3133 245.5375 104.2015 231.9014 104.2015 218.1536 104.0898 204.5175 104.0898 190.8814 104.0898 177.2453 103.978 163.6092 103.978 155.0029 103.978 149.9732 103.978 136.3371 103.978 131.8662 103.978 127.3954 103.978 122.9245 103.978 118.5655 103.978 114.0946 103.978 109.6238 103.978 105.1529 103.978 100.7938 103.978 96.323 103.978 91.8521 103.978 87.4931 103.978 83.0222 103.978 78.5514 103.978 74.0805 103.978 69.7215 103.978 65.2506 103.978 62.2328 105.8781 62.121 109.0077 62.0092 114.8198 61.7857 120.6319 61.4504 126.444 61.2268 132.2561 61.0033 137.0623 60.7798 141.9802 60.668 146.7864 60.4444 151.5925 60.2209 153.6044 60.1091 155.5045 59.9974 157.2928 59.662 159.0812 59.3267 160.7578 58.9914 162.5461 58.6561 171.2642 56.9795 179.9824 55.303 188.5888 53.6264 197.3069 51.8381 206.0251 50.1615 214.7432 48.4849 223.3496 46.8084 232.0678 45.02 240.7859 43.3435 249.5041 41.6669 258.2222 39.9903 266.8286 38.3138 275.5468 36.6372 284.2649 34.8488 292.9831 33.1723 301.5894 31.4957 310.6429 29.7074 322.826 28.7014 331.6559 27.919 338.8092 27.2484 342.7212 27.4719 344.0625 28.1426 344.6213 28.5897 344.7331 29.3721 344.7331 30.8251 345.0684 31.6075 345.8508 31.831 346.6332 31.9428 346.9685 32.2781 346.8568 34.8488 346.9685 35.6312 347.1921 36.1901 348.4216 37.7549 349.5393 40.4374 352.6689 44.1259 353.3395 45.2436 353.3395 45.9142 353.2277 47.7025 353.3395 48.2614 353.8983 48.5967 354.7925 48.932 355.6867 49.0438 356.8044 48.0378 358.3692 49.2673 359.8222 51.1674 360.3811 52.0616 361.7223 52.6205 363.1754 52.844 364.1813 53.2911 364.6284 54.6323 365.1872 55.7501 366.305 56.6442 366.8638 57.6502 365.9696 59.4385 369.3228 63.127 370.3287 65.3624 368.8757 67.5978 369.7699 69.1626 371.4464 73.7452 372.2288 78.3278 373.5701 79.4455 375.3584 79.3338 379.0469 78.1043 379.4939 77.8807 380.1646 77.3219 382.6235 74.4158 384.7472 73.9688 386.312 73.0746 396.0361 62.4563 397.6009 61.8975 398.8304 60.7798 400.6187 57.9855 401.96 56.756 404.9778 54.7441 406.5426 53.0675 406.8779 49.3791 410.4546 46.8084 411.1252 46.6966 411.684 46.8084 412.1311 47.1437 412.5782 47.479 413.0253 46.8084 413.4724 46.2495 414.7019 45.2436 417.6079 44.0141 418.5021 43.3435 421.4081 40.4374 422.3023 40.1021 425.9908 39.3197 429.4557 36.8607 434.4854 30.7133 438.062 28.925 440.0739 28.5897 442.3094 28.925 443.4271 29.2603 445.2154 30.2662 446.1096 30.378 447.1155 29.7074 450.0216 24.4541 451.6981 22.7776 453.1512 22.2187 456.7278 22.4422 458.9633 22.8893 460.3045 24.007 462.0928 27.4719 462.7635 28.1426 463.4341 28.4779 463.993 29.1485 464.1047 30.8251 467.6814 34.0664 469.0227 33.7311 473.7171 33.284 474.723 33.0605 475.0583 32.3899 476.5113 30.6015 476.8466 30.0427 477.2937 29.8191 482.4352 23.56 484 22.1069 487.5767 19.8715 490.2592 16.2948 490.818 15.8477 491.6004 15.4007 492.4946 15.0653 493.5006 14.8418 494.2829 14.5065 494.9536 13.0535 495.6242 12.6064 497.7479 12.1593 500.095 10.1474 501.8834 9.7003 503.8953 9.5886 511.4957 7.0178 512.1663 6.6825 512.9487 5.9001 513.284 5.2295 513.7311 4.6706 514.9606 4.4471 514.29 6.0119 515.4077 6.7943 516.0783 7.6884 516.8607 8.1355 518.4255 7.4649 519.3197 8.6944 520.6609 8.4708 523.4552 6.6825 524.4612 8.9179 527.7025 8.8062 531.0557 7.3531 534.4088 4 538.5443 4 545.3624 5.2295Z" />
</svg>