<?xml version="1.0" encoding="utf-8"?>
<svg xmlns="http://www.w3.org/2000/svg" viewBox="0 0 546 1024" style="stroke-width:0.25px;stroke-linejoin:round;stroke:#444;fill:#ddd" fill-rule="evenodd">
  <path class="BZ" d="M121.2795 1014.5232L107.1964 1020 74.3356 1011.5054 62.3761 1011.6172 51.7579 1013.4055 23.2562 1012.0642 16.5499 1014.9703 13.085 1015.0821 8.726 1016.5351 5.2611 1018.3234 4.4787 1019.5529 1.3491 1014.5232 1.5726 1009.7171 2.2432 990.9395 11.7438 901.5226 17.4441 821.4944 20.7972 781.4803 27.5035 672.5034 33.7627 571.6858 33.2039 460.9206 31.192 352.9496 29.6272 268.5624 29.2919 234.5839 32.0861 219.0477 40.0219 207.6471 70.8707 196.3582 78.8065 199.1525 84.9539 204.741 90.5425 211.0002 96.8017 215.8064 101.2725 216.2535 105.408 215.3593 108.9847 216.1417 114.0144 227.207 118.8206 230.7837 133.7979 239.6136 137.0393 238.6077 139.2747 235.4781 140.9513 226.8717 142.6278 224.0774 161.6289 209.7707 165.0938 205.5234 170.4589 190.3226 172.2472 186.7459 177.724 182.0515 182.8655 179.1454 187.2245 175.7923 190.913 169.9802 192.0307 165.7329 193.1484 156.903 194.2661 152.991 203.4314 137.343 204.6608 132.9839 203.4314 127.5072 202.0901 126.3894 212.5966 118.4537 223.4384 113.3122 227.9092 109.8473 231.5977 103.9234 232.7154 99.4526 233.0507 97.9996 233.7213 91.8521 235.0626 85.1459 238.6393 78.8867 250.1517 65.5859 254.7343 58.209 256.0756 53.7382 257.5286 43.7905 260.8817 34.4018 262.8936 22.554 264.7937 18.3067 267.588 15.4007 279.1004 6.3472 282.9007 6.7943 286.3656 8.6944 290.1658 9.8121 293.4072 9.365 300.8958 6.6825 304.9196 4.6706 307.3785 4 309.3904 4.6706 312.9671 8.1355 315.7614 9.8121 317.885 9.4768 320.1205 8.2473 322.9147 7.4649 345.9396 7.2414 348.0633 7.6884 348.0633 9.0297 354.4342 14.9536 347.1691 24.4541 318.3321 45.3553 315.6496 51.0557 319.8969 57.2031 325.1502 57.5384 343.0336 49.3791 340.9099 55.0794 337.445 61.1151 328.9504 71.9569 326.8267 75.4218 327.9444 77.2101 330.8505 76.9866 334.0919 74.6394 340.351 67.5978 352.6459 58.6561 358.458 55.8618 364.7172 54.7441 372.9882 55.8618 383.83 61.2268 388.6362 62.7916 396.5719 61.5622 407.7491 53.7382 420.7145 49.7144 425.0736 49.1556 426.9737 50.6086 426.3031 56.0854 424.1794 59.7738 416.8025 65.4741 408.3079 69.0508 406.6314 70.7274 406.5196 75.0865 409.2021 75.9806 412.4435 74.6394 415.2377 69.945 418.2556 67.8213 422.0558 66.1448 425.7442 65.4741 426.9737 67.5978 429.9915 113.8711 426.9737 149.7496 425.7442 155.897 420.6028 165.174 419.3733 171.3215 405.4019 207.2 399.0309 211.5591 399.0309 211.6708 383.6065 242.1844 385.8419 252.2438 381.3711 284.6574 372.2058 316.9593 369.2998 323.442 359.6875 335.0662 355.7755 342.2196 354.0989 350.6024 355.6637 359.8794 360.1345 364.6856 373.4353 371.3919 376.2296 377.3157 379.8063 380.5571 395.3425 383.3514 398.8074 386.481 394.3365 394.0814 384.7242 393.9696 375.2237 392.5166 370.9763 396.0933 369.9704 402.1289 364.2701 421.13 354.546 453.6554 350.9693 493.2224 350.634 501.3817 349.2927 516.5826 351.9752 524.8537 353.4283 532.2306 353.4283 533.013 353.7636 536.4779 355.6637 545.4196 357.1167 550.2257 360.6934 552.2376 368.6292 554.9201 373.1 560.844 376.2296 568.3327 377.9062 576.8273 378.9121 589.1221 381.0358 598.6227 380.1416 603.0935 377.7944 604.0994 374.553 604.0994 370.9763 605.4407 366.8408 609.1292 361.8111 615.053 357.452 621.7593 355.6637 628.0185 357.3403 635.1718 364.6054 646.6843 366.0584 653.3905 366.729 653.3905 367.9585 654.3965 368.9645 656.1848 368.6292 658.4202 367.1761 658.7556 362.37 658.0849 360.8052 658.4202 355.999 662.2205 354.0989 664.5677 353.4283 668.0326 352.5341 669.9327 350.7458 671.8328 348.8457 674.5153 348.0633 678.5391 348.3986 683.2334 350.1869 689.2691 350.634 693.0693 347.1691 720.565 344.8219 724.8123 341.5805 728.1655 337.8921 733.0834 333.6448 748.9549 331.6329 753.7611 330.4034 760.6909 332.8624 770.415 331.2976 773.9916 328.6151 777.4565 326.1561 777.6801 325.0384 771.6444 336.6626 727.4948 342.9218 720.9003 345.269 716.9883 335.5449 722.018 325.4855 747.5019 317.3262 756.8906 319.7851 757.3377 325.0384 759.7967 322.4677 761.138 320.5675 761.6968 318.2204 761.3615 314.8672 759.7967 315.6496 763.2616 316.5438 764.8264 318.5557 765.2735 322.4677 765.1617 322.4677 767.5089 318.4439 770.1914 315.6496 774.1034 314.979 778.7978 315.9849 780.8097 317.3262 783.604 310.3964 788.969 302.7959 804.2816 295.7543 807.523 295.0837 809.6466 294.4131 818.8119 294.5249 820.712 292.4012 822.0532 290.5011 822.0532 289.1598 821.3826 289.1598 820.712 286.8127 822.2768 286.0303 823.0592 285.5832 824.0651 284.1301 825.9652 279.324 837.5894 277.871 839.4895 274.9649 841.1661 265.2408 854.0198 264.1231 856.0317 262.5583 861.1732 261.5524 863.0733 261.3288 864.191 261.7759 867.4323 261.5524 868.5501 260.5464 868.7736 257.5286 868.3265 256.4109 868.5501 254.8461 869.4442 250.3752 870.4502 248.5869 871.4561 247.8045 872.9091 246.0162 879.1683 246.0162 863.0733 243.5572 863.0733 240.9865 871.4561 235.7332 872.6856 230.5917 869.4442 228.3563 864.4145 226.9033 862.2909 223.7737 861.9556 220.6441 862.6262 219.3029 863.0733 218.8558 864.4145 218.9675 871.2326 217.9616 873.8033 215.2791 874.6975 202.649 876.4858 200.5253 877.9388 198.737 879.7272 196.1662 881.292 191.1365 881.9626 185.8833 884.4216 184.3185 890.569 185.2127 905.5463 183.7596 913.5938 180.2947 919.5177 175.0415 923.0944 168.5587 924.3239 166.6586 925.3298 164.4232 927.7888 162.6349 930.6948 160.9583 937.5129 158.7229 939.413 155.4815 940.7542 151.9048 942.7661 147.7693 946.3428 145.981 948.3547 144.3044 950.7019 143.4102 954.9492 143.7455 959.3083 142.7396 962.5496 133.0155 965.4557 126.5328 969.3677 120.3854 974.5091 116.1381 979.7624 114.9086 989.3747 122.6208 1005.4697 121.2795 1014.5232ZM521.085 434.6543L525.7794 430.5188 530.0267 437.4486 536.2859 456.1144 534.6094 459.0205 533.9387 462.9325 534.0505 472.0977 531.4798 472.0977 531.5915 468.0739 531.4798 466.7327 529.3561 467.4033 527.9031 468.521 527.0089 470.0858 526.2265 472.0977 526.4501 448.514 525.2206 438.6781 521.085 434.6543ZM524.997 373.4037L529.4679 373.6273 534.8329 374.8568 539.4155 378.7688 541.6509 386.481 540.0861 392.4048 532.4857 407.6057 527.456 414.312 523.7675 420.9065 518.2908 424.4832 510.9139 418.6711 507.1136 425.042 502.4193 428.6187 498.1719 433.3131 495.4894 442.8136 493.1422 460.2499 492.2481 463.156 490.348 467.068 488.6714 471.8741 488.3361 477.4627 483.0828 472.0977 484.4241 470.7564 484.8712 469.527 485.0947 468.1857 485.5418 466.7327 486.436 458.4616 489.9009 444.8255 491.6892 426.048 494.5953 419.9006 499.4014 415.4297 505.8842 410.7353 513.4846 402.6878 517.2848 402.3525 522.7616 404.6997 527.456 405.3703 531.0327 402.0172 533.9387 394.305 534.6094 386.1457 531.4798 381.2277 527.3442 384.9162 523.9911 386.8163 521.085 386.481 521.3086 384.022 524.997 373.4037ZM432.3387 335.9604L437.3684 340.3195 441.0569 349.82 444.7453 370.4977 442.1746 370.4977 440.2745 366.8092 437.0331 357.5322 432.3387 335.9604ZM401.3781 319.9771L409.0903 316.2887 430.2151 301.7584 434.5741 299.8583 431.1092 312.4884 422.5029 320.3124 410.8787 324.2244 398.8074 325.2304 398.8074 323.442 399.2545 322.2125 401.3781 319.9771ZM493.1422 185.8517L495.4894 185.8517 492.5834 202.8409 485.3183 218.3771 473.6941 229.7778 457.599 234.1369 457.599 231.4543 461.511 231.6779 462.7405 231.4543 476.2648 221.7303 481.071 214.9122 483.0828 204.8528 477.159 205.0763 478.7238 193.0051 485.5418 168.5272 486.3242 166.8506 488.1125 165.3976 489.9009 163.6092 490.6833 160.5914 490.9068 156.6794 496.3836 136.1135 500.0721 132.6486 505.8842 135.1076 514.0435 129.7426 517.7319 134.9958 517.173 143.714 512.2551 148.2966 509.4608 152.6557 501.8604 173.7804 498.2837 180.822 495.713 179.0337 493.1422 177.916 492.2481 181.9397 490.9068 184.8458 488.6714 186.9694 485.5418 188.5342 485.5418 191.2167 488.3361 196.8053 491.801 191.6638 492.6952 189.3166 493.1422 185.8517ZM425.5207 384.4691L432.3387 389.7223 435.8036 394.8638 435.0212 398.7758 434.0153 400.4524 433.9035 402.7996 432.3387 406.3762 429.768 406.0409 429.0974 402.7996 428.6503 394.752 428.0914 393.0755 425.1854 393.4108 421.944 391.9578 419.8204 389.2752 418.5909 387.2634 417.3614 386.1457 417.4732 383.9102 419.9321 382.2337 425.5207 384.4691ZM472.4646 160.4796L474.7 159.5855 475.7059 160.7032 474.9235 164.727 471.9057 167.4095 467.882 168.1919 466.7642 165.7329 469.4468 161.8209 471.3469 160.5914 472.4646 160.4796ZM483.5299 149.6378L484.4241 151.2026 484.6476 155.4499 482.524 159.4737 479.3944 161.8209 478.0531 161.4856 477.6061 159.4737 477.0472 158.0207 477.6061 156.5677 479.5062 155.5617 481.518 153.8851 482.1887 151.6497 482.8593 150.1967 483.5299 149.6378ZM506.2195 114.6535L507.5607 115.3241 507.7843 116.8889 507.5607 118.9008 506.2195 122.8128 502.7546 127.3954 500.6309 125.4953 501.6369 118.789 503.0899 116.4418 504.2076 117.4477 504.4311 116.5536 503.8723 114.877 503.984 114.2064 505.2135 114.5417 506.2195 114.6535Z" />
</svg>