<?xml version="1.0" encoding="utf-8"?>
<svg xmlns="http://www.w3.org/2000/svg" viewBox="0 0 1021 1020" style="stroke-width:0.25px;stroke-linejoin:round;stroke:#444;fill:#ddd" fill-rule="evenodd">
  <path class="CD" d="M343.0198 106.0031L341.2315 93.4847 342.2374 86.8902 342.2374 85.1019 342.2374 84.4312 342.3492 83.3135 343.4669 81.4134 343.8022 80.2957 344.0257 78.9545 344.0257 75.6013 343.3551 71.0187 342.6845 68.895 340.7844 65.4301 340.4491 64.4242 340.1138 63.8653 338.6607 62.5241 338.2136 61.6299 338.549 60.5122 339.3314 59.0592 340.3373 58.0532 341.3432 58.165 342.3492 58.7239 343.3551 58.9474 344.4728 58.9474 345.5905 58.7239 348.0495 57.8297 349.7261 56.6002 351.0673 54.8119 353.7498 48.1056 355.0911 46.2055 356.8794 44.7525 357.4383 43.1877 357.5501 43.1877 357.8854 42.9641 358.8913 42.5171 359.1149 42.4053 360.9032 39.2757 361.9091 38.4933 362.8033 37.8227 363.5857 37.152 363.921 35.0284 364.3681 34.5813 364.8152 34.246 365.2623 33.7989 365.4858 33.24 366.0447 31.5635 366.6035 30.334 367.3859 29.4398 368.6154 28.2103 369.0625 27.7633 370.0684 27.4279 372.4156 27.4279 373.3098 27.2044 374.3157 25.8631 375.2099 24.4101 375.5452 23.963 378.0042 22.8453 382.8103 19.8275 383.9281 18.2627 384.7105 17.5921 385.9399 17.2568 389.4048 17.3685 390.5226 17.2568 392.1991 16.4744 393.2051 16.2508 395.2169 17.145 401.2526 17.2568 401.8114 17.3685 402.8174 17.9274 404.4939 18.2627 406.8411 19.3804 407.6235 19.8275 408.2942 20.6099 408.6295 21.2805 409.6354 22.8453 409.859 23.7395 410.4178 24.4101 411.7591 24.8572 416.4535 25.8631 417.9065 26.7573 419.136 27.875 420.8125 28.9927 424.3892 30.334 425.3952 31.0046 427.8541 34.0224 428.8601 34.9166 429.866 35.3637 432.325 36.2579 433.4427 36.3696 434.3369 36.705 435.1193 37.5991 436.1252 39.2757 437.3547 41.8464 437.8018 42.1817 438.6959 42.6288 439.7019 43.523 440.596 44.7525 440.9314 45.8702 440.596 46.6526 440.0372 47.5468 439.8136 48.5527 440.3725 49.7822 440.596 50.0057 446.0728 55.1472 447.1905 55.8178 448.42 56.1531 452.8909 55.3707 457.1382 55.3707 458.4794 55.259 459.2618 54.8119 459.9325 54.253 460.6031 53.9177 462.7267 53.8059 467.6447 54.8119 472.6744 56.712 473.5685 56.8238 474.0156 57.2708 475.0216 59.171 475.5804 59.8416 476.9217 60.1769 477.5923 60.5122 477.9276 61.4064 478.3747 61.6299 479.4924 61.6299 479.9395 61.8535 480.3866 62.1888 480.8337 62.4123 481.5043 62.4123 481.9514 62.077 482.2867 61.6299 482.622 61.2946 482.9573 60.8475 483.2926 60.624 483.7397 60.4004 484.1868 60.2887 484.9692 60.1769 485.5281 60.4004 485.8634 60.7358 486.0869 61.0711 488.6576 62.7476 489.5518 63.1947 490.7813 63.53 491.7872 63.53 494.1344 63.53 494.8051 63.6418 495.2521 63.9771 495.6992 64.3124 496.0345 64.536 496.5934 64.6477 497.7111 64.6477 498.27 64.9831 503.4114 62.3006 504.3056 62.1888 506.3175 62.4123 508.1058 62.1888 508.8882 62.3006 510.0059 62.7476 510.2295 62.9712 510.3413 63.1947 510.6766 63.4183 511.2354 63.53 512.8002 63.4183 513.2473 63.53 514.2532 63.9771 514.9239 64.536 515.818 65.0948 517.0475 65.3184 520.1771 65.5419 521.2948 65.3184 521.8537 65.2066 522.0772 64.9831 522.3008 64.9831 522.9714 64.9831 523.3067 65.0948 524.8715 65.7655 525.9892 66.3243 528.6717 66.7714 529.6777 67.1067 530.013 67.442 530.9072 68.448 531.466 68.7833 532.6955 69.2304 533.925 70.0128 539.0664 71.1305 545.4374 70.7952 545.8845 70.5716 546.8904 70.1245 547.2257 70.0128 549.1259 68.6715 550.1318 67.7773 550.4671 66.9949 550.6906 66.7714 551.6966 65.8772 552.0319 65.3184 551.9201 64.8713 551.5848 63.7536 551.5848 63.1947 553.1496 60.2887 553.5967 59.8416 554.2673 59.618 554.8262 59.171 555.385 58.6121 555.6086 58.0532 555.4968 57.6062 554.4909 56.4884 554.2673 55.4825 554.1556 54.0295 554.4909 52.6882 555.385 52.1294 557.7322 52.2411 558.8499 52.1294 559.6323 51.6823 559.9677 51.2352 560.0794 50.6763 560.0794 49.3351 560.1912 49.1116 560.8618 48.5527 561.0854 48.2174 561.1971 47.8821 561.756 46.9879 561.8678 46.6526 561.756 46.0937 561.4207 44.976 561.4207 44.4172 562.2031 43.9701 562.7619 43.2994 563.209 42.6288 563.6561 41.8464 564.215 40.0581 564.7738 39.2757 565.668 38.9404 566.4504 39.2757 567.4563 39.8345 568.3505 39.9463 569.0211 38.4933 570.1388 37.5991 570.5859 37.0403 570.1388 36.4814 569.9153 35.8108 569.9153 35.1402 570.2506 34.5813 570.8095 34.0224 571.1448 33.9107 571.7036 34.1342 572.486 34.1342 573.0449 33.9107 573.7155 33.5754 574.2744 33.3518 574.945 33.3518 575.3921 33.7989 575.9509 35.2519 576.5098 36.3696 576.7333 37.152 577.0686 37.9344 577.7393 38.158 578.4099 38.2697 579.0805 38.6051 579.7512 38.9404 580.31 39.4992 581.4277 39.9463 582.769 39.7228 585.2279 38.4933 586.0103 39.2757 587.3516 41.064 587.9105 41.5111 588.134 41.6229 589.587 42.5171 590.2576 44.0818 590.7047 44.1936 591.9342 44.4172 592.1578 44.6407 592.2695 44.7525 592.8284 45.4231 593.0519 45.5349 594.0579 45.5349 595.0638 45.7584 595.958 46.0937 596.8521 46.6526 597.2992 46.429 598.3052 46.429 598.7523 46.2055 598.9758 45.8702 598.9758 45.4231 598.9758 44.976 599.0876 44.4172 599.5347 43.4112 600.0935 42.7406 600.9877 42.2935 602.2172 42.1817 603.1113 41.8464 606.3527 39.2757 607.5822 38.7168 609.9294 38.158 612.053 37.0403 613.1707 36.705 615.5179 36.3696 616.7474 35.9226 618.7593 34.4695 619.7652 34.1342 620.3241 34.246 621.33 34.4695 621.7771 34.5813 622.2242 34.3578 622.7831 33.9107 623.2301 33.7989 625.4656 34.246 626.695 34.246 626.695 33.5754 626.4715 33.0165 626.4715 32.4576 626.5833 31.8988 626.9186 31.5635 627.2539 31.4517 627.4774 31.5635 628.3716 32.3459 629.2658 31.787 631.9483 30.4458 633.4013 29.3281 634.2955 28.7692 635.3014 28.6574 635.8603 28.881 636.8662 29.5516 637.6486 29.7751 638.2075 29.4398 639.6605 27.5397 640.6664 26.8691 641.7842 26.6455 642.5666 26.9809 643.0136 28.3221 643.349 28.3221 643.796 27.9868 643.9078 27.5397 643.9078 27.0926 644.0196 26.422 644.6902 24.969 644.802 24.7454 645.3608 24.4101 649.1611 23.8513 650.0552 23.2924 650.7259 22.6218 650.6141 21.9512 649.2728 21.7276 648.714 21.1688 649.0493 20.051 649.8317 18.7098 650.6141 18.0392 650.9494 18.598 651.3965 20.1628 651.7318 20.6099 652.4024 20.9452 652.626 20.4981 652.626 19.7157 652.7377 19.1569 653.9672 18.8216 655.0849 19.0451 655.4202 19.1569 656.8733 19.8275 657.8792 20.6099 658.2145 21.057 658.6616 22.0629 658.9969 22.3982 659.5558 22.6218 660.897 22.8453 661.5677 23.1806 662.0147 23.6277 662.0147 24.7454 662.3501 25.3043 662.9089 25.7514 664.4737 26.3102 665.2561 26.8691 664.5855 27.7633 664.3619 28.3221 664.9208 28.5457 668.4975 28.9927 669.5034 28.881 670.3976 28.3221 670.9564 28.881 671.6271 28.7692 672.1859 28.3221 672.7448 27.7633 673.1919 27.5397 673.6389 27.6515 674.086 27.875 674.7567 27.875 675.7626 27.5397 677.6627 26.3102 678.8922 26.0867 679.2275 25.8631 680.2334 25.1925 680.5688 24.969 681.1276 24.969 683.1395 25.5278 684.9278 26.5338 686.8279 27.0926 687.275 26.9809 687.6103 25.8631 688.1692 24.8572 688.3927 24.6337 688.9516 24.4101 689.2869 24.0748 689.734 23.516 690.2928 23.516 690.6282 23.7395 691.0752 24.0748 691.5223 24.1866 694.9872 24.0748 695.5461 23.7395 696.105 23.2924 698.3404 23.0689 699.2345 22.8453 699.6816 22.2865 699.9052 21.7276 700.0169 20.3864 700.1287 19.8275 700.9111 18.9333 701.0229 18.598 701.1347 18.0392 701.47 16.9215 701.3582 16.5861 701.0229 16.2508 699.9052 16.0273 699.5699 15.8037 699.2345 14.5743 699.6816 13.6801 700.3523 13.0095 700.6876 12.3388 700.7993 11.1094 701.1347 9.9916 701.8053 9.2092 702.923 8.8739 702.1406 7.868 702.5877 7.5327 703.3701 7.3091 703.9289 6.6385 704.8231 7.1974 706.0526 6.9738 708.3998 5.6326 708.5116 5.409 708.6233 5.5208 709.1822 6.0796 709.741 6.1914 710.9705 5.7443 711.6411 5.5208 711.1941 4.6266 711.7529 4.4031 712.7589 4.5149 713.4295 4.5149 713.7648 4.5149 714.2119 5.1855 714.4354 5.8561 714.7707 6.3032 716.0002 6.3032 715.8884 6.5267 715.6649 6.6385 715.5531 6.862 715.3296 7.0856 715.3296 7.4209 716.0002 7.9798 716.4473 7.868 716.7826 7.5327 717.4532 7.4209 717.7886 7.5327 718.1239 7.9798 718.3474 8.0915 718.4592 8.0915 719.6887 8.5386 720.3593 8.9857 721.9241 10.6623 722.4829 11.1094 723.2653 11.4447 723.936 11.4447 724.4948 10.6623 723.8242 10.327 724.2713 10.1034 725.0537 10.4387 725.1655 11.78 725.389 11.6682 725.9479 11.5564 726.2832 11.4447 726.0596 12.2271 726.1714 12.6741 726.5067 13.0095 726.842 14.1272 727.4009 13.7919 727.9597 13.233 728.0715 12.8977 729.301 12.8977 729.8598 13.6801 730.4187 14.5743 731.3129 15.4684 731.4246 14.3507 732.207 13.6801 733.1012 13.5683 733.8836 14.0154 733.8836 13.0095 734.1072 12.5624 734.666 12.3388 735.3366 12.4506 735.8955 12.7859 736.9014 13.9036 737.5721 14.3507 738.1309 13.9036 738.8015 13.7919 739.4722 13.7919 739.6957 13.7919 739.9193 13.1212 740.2546 13.0095 740.7017 13.0095 741.1487 13.233 741.037 12.7859 740.8134 11.4447 741.1487 11.5564 741.3723 11.6682 741.7076 11.78 742.1547 11.78 742.49 11.5564 742.8253 11.2211 743.0488 10.6623 743.8312 11.1094 744.1666 11.6682 744.5019 12.1153 745.2843 11.78 745.5078 12.0035 745.8431 12.2271 745.9549 12.4506 746.5138 12.0035 746.7373 11.78 747.1844 13.4565 747.5197 13.9036 748.1903 13.5683 748.1903 13.9036 748.1903 14.686 748.4139 14.5743 748.9727 14.4625 749.308 14.3507 749.6433 15.3567 750.6493 16.0273 751.6552 16.4744 752.9965 16.6979 754.0024 16.5861 755.0084 16.5861 755.4554 17.2568 755.7908 17.0332 756.9085 16.5861 757.4673 17.3685 758.2497 17.9274 759.0321 18.4862 759.7028 18.9333 760.7087 20.9452 760.8205 21.3923 761.4911 21.5041 762.9441 21.9512 763.8383 22.0629 764.2854 21.9512 764.956 21.7276 765.6266 21.2805 766.0737 20.9452 766.409 21.3923 767.0796 20.6099 767.9738 20.1628 768.9798 20.3864 769.3151 20.9452 769.6504 20.9452 769.9857 20.3864 770.4328 20.3864 771.2152 20.6099 771.6623 20.3864 772.4447 19.7157 773.0035 19.4922 775.5743 19.4922 776.3567 19.604 776.692 19.8275 778.8156 22.1747 779.2627 22.3982 779.598 22.3982 780.1569 21.8394 780.4922 21.7276 780.8275 21.8394 781.1628 22.0629 781.3864 22.2865 781.3864 22.3982 782.3923 22.51 782.6158 22.2865 783.2865 21.7276 783.51 21.1688 784.0689 19.9393 784.2924 19.4922 785.8572 17.7039 787.422 16.4744 788.9868 15.3567 790.8869 14.3507 793.3459 13.6801 795.6931 13.7919 797.8167 14.5743 802.1758 16.8097 803.4053 17.145 804.6348 17.2568 805.5289 17.4803 806.3113 17.9274 806.982 18.598 807.6526 19.1569 808.2114 19.2686 808.6585 19.3804 809.6645 19.4922 810.3351 19.604 811.0057 20.051 811.5646 20.1628 813.0176 20.7217 813.0176 21.3923 812.6823 23.8513 813.0176 24.0748 813.3529 24.2983 813.6882 24.5219 814.0235 24.7454 815.7001 25.9749 816.1472 26.5338 816.3707 26.9809 816.5943 28.0986 816.8178 28.6574 817.8238 29.4398 818.9415 29.8869 823.6359 30.334 824.53 31.0046 825.2007 32.2341 825.6477 34.4695 825.9831 35.3637 826.6537 35.9226 827.1008 35.9226 828.1067 35.5872 828.6656 35.5872 829.1127 35.9226 829.5597 36.4814 829.895 37.0403 830.1186 37.4873 830.3421 38.7168 829.895 41.8464 830.0068 43.9701 830.2304 45.3113 830.5657 46.2055 830.901 46.2055 832.1305 46.429 832.5776 46.5408 833.1364 46.9879 834.1424 48.1056 834.7012 48.4409 835.1483 48.4409 836.6013 48.2174 836.9366 48.3292 837.8308 48.6645 838.1661 48.6645 838.2779 48.4409 838.2779 48.1056 838.3897 47.9938 838.2779 47.9938 838.5014 47.7703 838.9485 47.5468 839.2838 47.6585 839.8427 48.2174 840.178 48.3292 840.7369 48.2174 843.5311 48.5527 843.6429 49.2233 843.4194 50.1175 843.1958 51.347 843.3076 51.9058 843.3076 52.3529 843.5311 52.8 843.7547 53.2471 845.4312 55.5943 845.9901 55.5943 846.7725 54.5883 847.3314 54.3648 848.2255 54.3648 848.5608 54.8119 848.7844 55.8178 850.2374 57.7179 851.2433 58.7239 852.2493 59.5063 854.2612 59.7298 856.7201 59.2827 858.9556 59.171 860.7439 60.5122 861.191 61.6299 861.4145 62.4123 861.7498 62.8594 863.0911 63.3065 864.3206 63.1947 865.4383 62.4123 866.4442 61.5182 868.4561 58.8356 869.2385 58.2768 870.468 58.0532 870.9151 58.0532 871.4739 58.165 871.921 58.165 872.4799 58.0532 872.8152 57.6062 872.927 56.9355 873.1505 56.3767 873.8211 55.9296 875.9448 55.4825 876.8389 54.9237 877.6213 53.8059 879.8568 49.5586 880.3039 49.4469 881.4216 49.4469 882.0922 49.1116 882.5393 48.6645 882.9864 48.4409 883.7688 48.6645 884.5512 49.6704 884.5512 50.8999 884.8865 51.9058 886.2277 52.4647 886.7866 52.4647 888.3514 52.2411 890.9221 52.4647 892.0398 52.3529 895.2812 51.4587 895.7283 51.9058 898.299 53.6942 898.8579 53.9177 899.0814 54.7001 899.1932 54.5883 901.3168 55.4825 901.8757 55.9296 905.3406 59.3945 906.5701 59.9534 907.9113 59.8416 908.2466 58.9474 908.3584 57.9415 909.029 57.2708 910.3703 57.2708 911.3762 57.4944 912.2704 57.2708 913.0528 56.0414 913.6117 54.8119 914.1705 54.0295 916.853 51.5705 917.5237 50.6763 917.9707 49.5586 918.3061 48.3292 918.6414 47.7703 919.6473 46.7644 919.7591 46.2055 919.7591 45.6466 919.8708 44.7525 919.9826 42.8524 920.4297 42.1817 921.2121 42.07 922.4416 42.2935 922.6651 42.4053 923.224 42.9641 923.4475 43.1877 924.2299 42.7406 924.5652 42.7406 925.2359 42.8524 926.8007 43.523 928.3655 43.6348 929.0361 43.7465 931.2715 44.7525 931.8304 45.1996 933.3952 46.5408 934.1776 46.9879 934.6246 47.0997 935.7424 46.7644 936.1894 46.9879 937.3072 47.6585 937.866 47.8821 938.5366 48.3292 938.3131 48.888 938.0895 49.2233 937.866 49.4469 937.5307 50.0057 937.5307 50.4528 937.9778 51.347 937.9778 51.7941 937.9778 52.3529 937.5307 54.0295 937.4189 56.3767 938.0895 58.2768 939.5426 59.5063 942.0015 59.3945 943.1193 59.618 944.4605 60.4004 945.69 61.5182 946.1371 62.6359 946.0253 63.0829 945.5782 63.6418 945.2429 64.2007 945.3547 64.8713 945.8018 65.4301 946.3606 65.5419 946.9195 65.5419 947.5901 65.6537 948.8196 66.3243 949.602 67.3303 950.8315 69.7892 951.6139 70.9069 952.508 71.354 954.7435 71.9129 955.9729 72.5835 956.42 73.5894 956.7553 74.8189 957.2024 76.0484 958.5437 77.6132 958.879 78.1721 958.9908 78.7309 958.9908 79.2898 959.1025 79.8486 959.4378 80.4075 960.332 80.631 963.7969 80.7428 967.3736 81.8605 971.7327 84.4312 973.7446 85.1019 974.1916 85.2136 975.3094 85.2136 975.7564 85.1019 976.3153 84.9901 976.8741 84.8783 977.433 85.1019 978.1036 86.4431 979.3331 94.2671 979.3331 95.3848 978.9978 97.3967 978.6625 98.0673 978.3272 98.4026 978.3272 98.738 978.886 99.185 979.3331 99.2968 979.892 99.2968 981.0097 99.185 981.6803 99.0733 983.3569 98.0673 984.251 97.732 984.8099 97.6202 986.3747 97.732 987.4924 97.0614 988.3866 95.9437 989.169 95.3848 990.1749 96.0554 990.3985 96.6143 990.5102 98.4026 990.9573 99.2968 991.6279 99.7439 993.3045 100.4145 994.0869 101.4205 993.5281 104.103 994.0869 105.2207 995.3164 104.7736 996.3223 103.9912 997.2165 103.6559 997.8871 104.8854 997.8871 105.4442 997.5518 106.8972 997.5518 107.5679 998.1107 108.6856 998.2224 109.2444 997.8871 110.4739 997.6636 110.8092 997.2165 111.3681 995.6517 113.0447 994.6458 114.9448 994.534 115.1683 994.4222 115.7272 994.3105 116.0625 994.0869 116.1743 993.4163 116.286 993.1927 116.3978 992.2986 118.2979 990.0631 124.8924 989.2807 127.3514 989.0572 128.4691 989.0572 129.475 989.7278 130.2574 992.1868 132.0458 993.1927 132.8282 994.4222 135.0636 994.9811 137.0755 994.8693 139.1991 993.5281 142.8876 993.1927 143.3347 992.9692 143.4464 992.2986 143.5582 992.075 143.7817 991.9633 144.0053 991.9633 144.5641 991.8515 144.8994 990.1749 149.7056 989.9514 150.3762 989.9514 150.5998 989.8396 150.9351 988.8337 152.6117 988.6101 153.1705 988.4983 154.1765 988.7219 156.0766 988.7219 157.0825 988.2748 157.9767 987.6042 158.9826 987.1571 160.1003 987.2689 160.9945 988.0513 161.3298 991.7397 161.3298 992.2986 161.6651 992.4103 162.224 992.4103 163.1182 992.5221 163.9006 993.081 164.6829 993.9751 165.8007 994.9811 166.6948 995.8752 167.0301 997.44 166.3595 998.1107 164.5712 999.0048 163.1182 1001.0167 163.1182 1001.9109 163.7888 1004.9287 167.1419 1005.0405 167.3655 1005.1523 167.7008 1005.0405 168.0361 1004.7052 168.1479 1004.5934 168.3714 1004.8169 168.9303 1005.5993 169.2656 1007.9465 169.7127 1008.7289 169.7127 1009.6231 169.6009 1012.1938 168.5949 1012.1938 170.9421 1012.4174 172.0598 1012.8645 172.954 1013.9822 173.8482 1017 175.5248 1017 175.7483 1015.547 176.9778 1015.4352 177.4249 1015.4352 178.0955 1015.3234 178.5426 1014.6528 178.7661 1013.9822 178.8779 1013.4233 179.1014 1012.4174 179.9956 1012.0821 180.5545 1011.2997 181.8957 1010.8526 182.3428 1010.2937 182.6781 1009.176 182.9017 1008.6172 183.1252 1006.27 184.69 1004.0345 186.5901 1003.6992 187.0372 1003.3639 187.4843 1002.9168 187.9314 1002.4697 188.2667 1001.7991 188.3784 1000.2343 188.602 997.9989 189.7197 992.8574 195.5318 990.1749 197.7672 989.3925 198.1025 989.0572 198.3261 988.4983 200.0026 988.0513 200.4497 984.251 202.7969 983.4686 203.6911 983.0216 204.8088 982.4627 205.9265 981.1215 206.8207 978.6625 207.9384 978.2154 208.4972 977.433 209.9503 976.9859 210.1738 976.5388 210.3974 975.98 210.9562 975.5329 211.6268 975.4211 212.1857 975.1976 213.4152 974.7505 214.5329 974.1916 215.6506 973.521 216.7683 971.8444 220.0097 971.1738 220.2332 970.2796 220.9039 969.9443 221.5745 970.615 222.2451 970.3914 222.6922 970.2796 223.251 970.2796 223.8099 970.2796 224.4805 971.062 224.1452 971.8444 224.5923 972.2915 225.3747 972.4033 226.2689 972.6268 226.0453 973.1857 225.4865 973.2975 225.71 973.1857 225.8218 973.2975 225.8218 973.521 225.9336 973.521 224.257 973.6328 223.6981 973.9681 223.9217 974.1916 224.4805 974.3034 224.8158 974.8623 225.3747 973.8563 226.2689 973.1857 226.8277 972.4033 227.0513 971.3974 227.3866 970.615 227.3866 969.4972 227.2748 968.8266 227.3866 967.9325 228.0572 967.2618 229.1749 966.5912 229.8455 965.697 229.3985 965.1382 228.9514 964.6911 228.8396 964.244 228.9514 963.6851 229.1749 962.1204 230.8515 962.0086 231.1868 961.8968 232.4163 961.6733 232.8634 961.5615 233.4222 960.8909 233.9811 960.8909 235.0988 961.1144 237.2224 960.7791 238.2284 959.5496 239.4579 959.3261 240.352 959.2143 240.4638 958.2084 242.3639 957.6495 243.0345 957.0906 243.2581 951.3903 244.5993 949.1549 245.6053 948.3725 246.1641 947.2548 247.0583 946.5842 247.5054 945.5782 249.629 945.4664 250.0761 945.8018 252.8704 945.1311 257.3413 945.1311 258.459 946.0253 262.818 946.2488 264.8299 945.4664 266.5065 945.2429 266.9536 944.237 268.0713 941.4427 271.3127 940.7721 272.3186 940.4367 273.4363 938.7602 282.2662 938.5366 282.6015 937.9778 282.9369 937.6425 282.8251 937.3072 282.4898 936.6365 282.2662 936.3012 282.8251 934.0658 286.1782 933.5069 287.6312 933.5069 288.5254 934.0658 290.8726 934.1776 291.8785 933.8422 292.8845 933.0598 294.7846 932.1657 300.2614 931.8304 302.1615 930.9362 307.4147 930.8244 308.3089 929.5949 315.0152 929.7067 316.0211 929.9303 316.3564 930.4891 317.4741 930.7127 318.3683 930.8244 321.6097 930.7127 322.3921 930.3773 322.6156 929.8185 322.6156 929.2596 322.8392 929.0361 323.398 929.1479 323.7333 929.5949 324.2922 929.7067 324.6275 929.5949 325.0746 929.3714 325.2981 929.0361 325.5217 928.9243 325.7452 928.2537 329.9925 928.1419 331.1102 928.589 333.1221 928.8125 334.3516 928.589 337.4812 928.4772 338.2636 927.9184 339.046 926.3536 339.4931 925.6829 340.499 925.6829 340.9461 925.6829 341.505 925.9065 342.5109 925.9065 343.2933 925.6829 343.7404 925.4594 344.1875 925.4594 344.2992 925.3476 344.8581 925.4594 345.864 926.2418 347.8759 926.4653 348.8818 926.3536 349.8878 925.7947 353.1292 925.7947 354.4704 926.2418 355.3646 926.8007 356.147 927.0242 357.2647 927.0242 357.7118 926.4653 359.053 926.5771 359.6119 927.136 360.7296 927.3595 361.2884 927.3595 362.2944 926.9124 365.424 924.7888 366.2064 922.6651 367.7712 920.765 369.6713 919.7591 371.2361 919.6473 371.5714 919.5355 371.6832 919.4238 371.7949 919.2002 371.7949 915.1765 371.9067 914.3941 372.3538 913.7234 373.1362 912.2704 376.154 911.7116 376.8246 909.1408 378.9483 908.4702 379.8425 907.3525 381.9661 906.0112 384.2015 903.9993 387.3311 902.9934 389.7901 902.7699 391.6902 902.8816 393.5903 904.3347 401.9732 904.4464 403.8733 904.1111 406.1087 903.2169 408.6794 901.8757 410.6913 900.0873 412.1443 897.7402 412.815 896.1754 412.7032 895.7283 412.9267 895.1694 413.3738 895.0576 413.9327 894.9459 414.4915 894.4988 415.2739 893.9399 416.1681 893.1575 416.9505 892.2634 417.5094 891.1457 417.8447 889.6926 418.4035 888.9102 418.9624 888.5749 420.4154 888.6867 421.5331 888.7985 422.6508 889.3573 423.545 889.5809 424.2156 888.6867 424.998 888.4631 425.7804 888.6867 426.451 889.1338 426.7864 889.6926 427.0099 890.2515 427.5688 890.5868 428.7982 890.2515 432.9338 890.6986 433.3809 892.7105 434.6103 893.3811 434.9457 894.9459 435.0574 896.0636 435.6163 896.846 436.5105 897.6284 437.8517 896.5107 437.9635 895.84 438.5223 895.5047 439.5283 895.393 440.646 895.84 441.5402 896.7342 441.7637 897.8519 441.8755 898.6343 442.2108 898.9696 442.6579 899.4167 444.1109 900.1991 445.2286 900.4227 445.7875 900.5344 446.6816 900.8697 447.464 901.6521 447.9111 902.6581 448.2464 903.4405 448.8053 903.7758 449.6994 903.9993 450.7054 904.4464 451.7113 905.4524 452.1584 906.4583 452.2702 907.3525 452.6055 908.0231 453.1644 908.582 453.9468 908.9173 456.9646 909.029 457.4117 908.6937 457.9705 908.0231 458.4176 907.6878 459.3118 907.4642 460.3177 907.576 463.8944 908.0231 464.9003 908.9173 465.6827 908.6937 465.9063 907.4642 467.024 907.2407 467.8064 907.1289 469.2594 907.0172 469.2594 904.8935 470.1536 903.664 471.9419 903.2169 474.2891 904.1111 487.8134 903.2169 488.5958 902.9934 488.8194 902.7699 489.9371 901.4286 491.8372 901.2051 492.7314 901.6521 493.9608 902.3228 494.855 902.6581 495.8609 901.6521 497.7611 901.6521 499.4376 901.2051 500.4436 901.5404 500.8906 901.6521 501.5613 901.5404 504.132 900.8697 505.9204 900.758 507.0381 901.2051 511.1736 901.0933 511.6207 900.5344 512.4031 900.4227 512.8502 900.6462 513.2972 901.3168 513.9679 901.5404 514.3032 901.7639 515.868 901.6521 516.8739 901.4286 517.321 900.6462 517.6563 899.752 518.774 898.9696 520.0035 898.6343 521.233 898.299 521.233 900.5344 521.9036 901.0933 522.2389 901.4286 522.5743 902.0992 523.1331 902.7699 523.4684 903.4405 523.4684 904.1111 522.5743 904.4464 519.3329 905.0053 518.2152 905.6759 517.0975 906.3465 513.9679 907.4642 511.6207 908.582 507.3734 908.9173 507.3734 909.9232 511.2854 907.6878 524.6979 906.9054 526.1509 906.6818 527.1569 906.6818 528.2746 907.0172 531.4042 906.7936 532.4101 906.123 532.1866 905.3406 531.6277 904.5582 531.6277 903.9993 532.2983 903.7758 534.3102 903.4405 535.3162 902.4345 536.881 902.0992 537.7751 901.3168 546.0462 901.6521 557.2233 902.0992 558.1175 902.3228 559.0117 901.9875 560.1294 901.4286 561.1353 901.2051 562.0295 901.3168 562.7001 901.7639 563.8178 902.3228 564.8238 902.8816 565.2708 903.7758 569.6299 905.5641 573.989 909.3644 580.0246 909.8114 580.36 915.9589 590.9782 915.7353 592.4312 915.1765 592.4312 914.8411 592.0959 914.3941 591.8724 913.7234 592.3195 913.7234 592.7666 914.2823 593.996 913.947 595.3373 914.3941 596.2315 914.7294 597.3492 913.947 598.3551 914.1705 598.3551 914.5058 598.3551 914.7294 598.3551 915.0647 598.3551 914.5058 599.0257 913.6117 601.2612 913.1646 602.0436 912.7175 602.6024 908.582 606.0673 905.5641 607.5204 906.0112 608.191 906.123 608.9734 906.0112 610.8735 906.3465 615.009 906.5701 616.1267 907.3525 616.7974 909.8114 618.1386 910.2585 618.3622 910.5938 618.6975 910.7056 619.4799 910.7056 620.1505 910.7056 620.5976 910.9292 620.9329 911.2645 621.2682 911.7116 621.6035 912.2704 621.8271 912.8293 622.0506 913.2763 622.6095 913.4999 623.0565 913.8352 625.7391 914.1705 627.3039 914.8411 628.5333 915.6235 629.0922 915.6235 629.7628 916.9648 632.7806 918.3061 637.8103 919.6473 639.7105 921.9945 639.4869 921.8827 640.1575 921.9945 641.1635 922.218 642.393 921.3239 644.6284 922.218 647.6462 922.3298 648.8757 922.6651 649.6581 925.3476 653.2348 929.3714 656.2526 930.042 656.9232 930.6009 657.7056 932.1657 660.7234 934.5129 663.2942 936.7483 666.6473 938.2013 668.1003 940.1014 669.218 943.0075 670.1122 944.1252 670.3358 944.7958 670.3358 945.4664 670.4475 946.5842 671.0064 947.0312 671.1182 948.0372 671.5652 955.4141 677.9362 956.1965 678.9421 957.5377 682.1835 958.7672 684.3072 959.1025 685.4249 959.4378 687.325 960.2202 689.7839 960.332 690.3428 960.4438 691.3487 960.8909 693.6959 961.0026 694.7019 959.9967 696.602 959.9967 697.8315 961.785 703.7553 963.0145 704.6495 963.4616 705.6554 963.5734 706.6614 963.3498 707.5556 963.5734 708.338 963.5734 709.9028 963.6851 710.5734 964.1322 711.244 965.4735 713.1441 966.9265 713.0323 968.156 713.4794 969.1619 714.3736 969.7208 715.8266 969.9443 715.9384 970.3914 716.0502 970.7267 716.0502 971.2856 716.1619 971.3974 716.3855 971.5091 716.8326 971.7327 717.1679 973.8563 719.4033 973.7446 719.6268 973.521 720.1857 974.6387 720.2975 975.8682 720.7446 976.8741 721.4152 978.3272 724.2095 978.6625 724.6565 979.7802 725.6625 980.5626 726.892 980.4508 727.8979 980.0037 728.9039 979.7802 730.2451 979.7802 731.251 966.703 733.2629 955.9729 734.9395 941.778 737.0631 927.6948 739.2986 926.8007 739.4103 915.6235 741.0869 907.1289 742.4282 897.9637 743.8812 891.5927 744.7754 890.1397 745.3342 890.3633 746.3402 892.5987 751.1463 892.3751 755.9525 890.3633 760.6469 883.5452 769.7003 874.7153 778.4185 869.6856 782.1069 864.8794 784.4541 862.644 785.9072 861.5263 787.919 862.4205 789.9309 864.6559 790.8251 867.3384 791.3839 869.1267 792.2781 870.2444 793.7311 870.3562 794.7371 870.2444 795.743 870.2444 796.5254 870.468 797.3078 871.1386 797.9784 872.3681 798.8726 872.7034 799.4315 872.927 799.9903 873.0387 800.7727 873.1505 801.6669 873.374 802.3375 874.0447 802.6728 875.7212 802.5611 875.2741 803.0081 874.1564 803.4552 873.8211 803.6788 874.0447 804.2376 875.0506 805.3553 875.2741 806.1377 875.3859 806.5848 875.9448 807.7025 876.0565 808.3732 876.0565 810.8321 876.3919 811.9498 877.1743 812.9558 877.6213 813.2911 878.1802 813.5146 878.5155 813.8499 878.6273 814.6323 879.9685 816.0854 879.8568 816.3089 878.8508 816.6442 878.4037 817.6502 877.8449 819.9974 876.2801 823.4623 876.0565 824.6917 876.3919 828.6037 876.2801 832.851 875.833 834.9747 874.9388 836.6513 873.5976 838.2161 873.1505 839.222 874.9388 840.7868 875.0506 841.0103 875.1624 841.5692 875.2741 841.9045 875.4977 842.0163 875.9448 842.2398 876.0565 842.2398 876.2801 843.3575 876.1683 844.1399 875.833 845.0341 875.7212 846.1518 875.833 847.4931 876.2801 848.499 876.7272 849.3932 877.1743 850.3991 877.1743 851.0697 877.0625 851.7404 876.9507 852.411 876.6154 852.8581 876.3919 853.4169 876.8389 854.1993 876.6154 854.7582 876.6154 855.4288 877.286 856.4348 878.6273 857.8878 878.6273 858.5584 878.292 859.6761 878.1802 860.3468 878.5155 860.9056 879.745 861.7998 880.0803 862.1351 879.745 863.2528 879.0744 864.2587 878.292 865.1529 877.5096 865.7118 877.1743 865.8235 876.5036 865.7118 876.1683 865.9353 875.9448 866.1589 875.1624 867.5001 874.8271 868.7296 874.38 869.1767 873.4858 870.1826 872.8152 871.3003 872.2563 872.5298 872.0328 873.8711 872.0328 876.2183 871.921 876.8889 871.3622 878.0066 871.2504 878.5655 871.0268 879.1243 870.1327 880.0185 869.7974 880.5773 869.7974 881.1362 869.9091 882.2539 869.7974 882.8128 869.5738 883.3716 868.9032 884.7129 868.1208 885.7188 868.1208 886.2777 868.6796 889.1837 868.6796 889.8543 868.5679 890.4132 868.1208 891.0838 868.009 891.4191 867.8972 891.978 868.009 893.7663 867.0031 895.89 866.556 896.4488 865.9971 897.2312 865.7736 898.4607 866.2207 900.4726 865.8854 900.5844 864.7677 901.5903 864.5441 901.8139 861.7498 905.8376 861.6381 906.8436 861.7498 909.7496 861.9734 910.532 862.1969 910.9791 862.8675 912.5439 863.3146 913.1028 864.097 913.8851 864.3206 914.444 865.3265 917.6854 865.2147 918.2442 865.103 918.4678 865.4383 918.9149 866.2207 919.6972 866.3325 920.2561 866.8913 923.9446 867.3384 924.727 868.1208 924.9505 868.7914 925.5094 869.2385 928.1919 869.7974 928.9743 870.5798 928.6389 871.1386 928.6389 871.5857 928.9743 872.0328 929.4213 872.2563 929.6449 872.927 930.7626 873.1505 931.2097 874.38 930.5391 875.0506 931.0979 876.0565 933.1098 876.7272 933.6686 879.2979 935.1217 880.4156 935.3452 882.3157 935.1217 882.7628 935.5688 882.9864 937.0218 883.2099 937.916 883.9923 938.4748 885.8924 939.4807 886.563 940.0396 887.2337 940.9338 887.9043 942.0515 888.1278 943.0574 888.5749 943.6163 891.7045 945.4046 893.1575 947.193 897.4048 955.2405 897.6284 955.6876 897.6284 956.47 897.9637 956.5817 898.299 956.5817 898.8579 956.9171 899.6403 956.9171 900.5344 956.47 901.4286 956.3582 901.9875 957.3641 902.8816 956.8053 903.9993 956.3582 905.3406 956.0229 909.6997 955.9111 910.1468 956.1347 911.1527 957.2524 911.8233 957.8112 912.2704 958.0348 912.941 958.1465 915.0647 958.1465 915.5118 958.2583 917.7472 959.4878 919.0884 960.0466 919.4238 960.0466 920.2062 959.9349 920.5415 960.0466 920.8768 960.1584 921.1003 960.382 921.3239 960.6055 921.6592 960.7173 922.6651 960.6055 923.4475 960.1584 924.0064 959.376 924.2299 958.3701 924.0064 957.3641 923.3358 957.0288 922.5534 957.0288 921.6592 956.6935 920.0944 954.6816 919.8708 954.2345 919.9826 953.7875 920.2062 953.2286 920.3179 951.9991 920.9886 949.8755 921.3239 949.2048 922.218 948.5342 924.4535 947.7518 925.5712 947.0812 926.3536 946.4106 926.8007 946.187 927.5831 946.187 928.2537 946.4106 929.1479 947.4165 929.7067 947.7518 930.7127 947.5283 933.3952 946.2988 935.2953 944.9575 936.413 944.5105 938.6484 944.2869 938.6484 944.3987 938.6484 944.6222 938.6484 950.4343 938.6484 956.8053 938.6484 965.8587 938.6484 974.018 938.6484 983.6304 938.6484 991.7897 938.6484 999.5019 938.6484 1007.7729 938.5366 1013.8086 937.7542 1015.4851 936.9718 1015.5969 933.5069 1015.5969 931.3833 1015.0381 930.2656 1014.591 929.4832 1014.0321 928.9243 1013.585 928.589 1013.0262 928.3655 1012.4673 928.1419 1011.7967 928.1419 1011.0143 928.589 1010.7908 929.0361 1010.679 929.3714 1010.4554 929.4832 1010.0084 929.3714 1008.8906 929.4832 1008.4436 929.8185 1007.9965 930.8244 1007.7729 931.1597 1007.5494 931.495 1007.1023 931.6068 1006.5435 931.7186 1005.9846 931.6068 1005.4257 931.1597 1004.7551 930.7127 1004.7551 930.2656 1004.9787 929.5949 1004.8669 928.589 1004.1963 927.6948 1003.4139 926.6889 1002.855 925.4594 1002.855 924.2299 1003.4139 921.1003 1006.3199 919.9826 1006.9905 912.4939 1009.8966 909.3644 1012.0202 908.1349 1012.4673 907.4642 1012.9144 906.4583 1014.1439 905.8994 1014.4792 905.1171 1014.2557 904.5582 1013.6968 904.2229 1012.8026 903.7758 1012.132 902.5463 1011.5732 901.3168 1011.5732 899.9756 1011.7967 899.5285 1011.7967 898.5226 1011.7967 897.6284 1012.2438 896.6224 1012.4673 895.7283 1012.2438 895.0576 1011.3496 893.3811 1009.7848 892.5987 1007.5494 890.9221 999.3901 890.2515 998.6077 889.8044 998.3842 888.7985 998.3842 888.2396 998.0488 887.7925 996.1487 887.569 996.037 887.2337 995.9252 887.0101 995.8134 886.7866 995.5899 886.6748 995.3663 886.7866 994.8075 886.7866 994.4722 886.7866 994.2486 887.0101 993.6898 887.0101 993.3545 886.8983 993.1309 886.116 992.9074 885.8924 992.6838 885.4453 990.6719 884.9982 990.1131 884.1041 989.2189 880.5274 984.5245 878.4037 982.2891 875.833 981.7303 875.1624 982.1773 874.38 983.8539 873.9329 984.4128 873.0387 984.8598 872.2563 984.7481 871.6975 984.301 871.4739 981.5067 870.6915 980.1655 869.462 978.936 868.3443 977.4829 868.009 976.1417 868.5679 975.3593 869.462 974.6887 870.0209 973.7945 870.0209 972.4532 869.462 971.3355 867.6737 969.4354 867.0031 968.2059 865.9971 965.5234 865.3265 964.4057 860.8557 960.4937 859.9615 960.0466 858.9556 959.7113 857.8378 959.5996 856.8319 959.8231 855.3789 959.8231 854.4847 959.1525 853.7023 958.3701 852.6964 957.923 851.3551 958.2583 850.5727 959.0407 849.7903 959.376 848.4491 958.3701 848.2255 957.8112 848.1138 957.2524 847.8902 956.8053 847.4431 956.5817 843.5311 956.1347 842.7487 956.2464 841.7428 956.3582 840.5133 956.0229 840.178 954.7934 839.9545 953.4521 839.1721 952.4462 836.1542 950.6579 835.1483 950.2108 833.807 950.099 833.0246 950.5461 832.4658 951.3285 831.4598 952.1109 829.7833 952.558 827.3243 952.6697 824.9771 952.4462 823.4123 951.9991 821.1769 949.4284 820.8416 949.2048 818.0473 946.8576 817.1531 945.7399 814.5824 938.2513 814.3589 936.0158 811.8999 931.6568 801.9523 925.5094 800.611 920.815 800.7228 918.9149 800.4992 916.3441 799.9404 913.7734 799.0462 912.5439 798.7109 912.5439 797.1461 913.1028 794.9107 913.3263 792.8988 913.9969 792.3399 913.9969 791.1105 913.8851 790.6634 913.8851 789.9927 914.6675 789.9927 915.6735 790.6634 918.0207 790.5516 919.4737 789.9927 920.3679 789.2103 921.0385 788.4279 922.268 787.8691 924.3916 787.6455 928.8625 786.6396 930.9861 784.7395 932.7745 782.7276 934.004 780.4922 934.451 777.9215 934.2275 776.5802 934.2275 775.7978 934.8981 775.1272 935.9041 774.3448 936.6865 773.3388 936.91 772.3329 936.4629 771.4387 935.7923 770.4328 935.1217 768.4209 934.6746 764.0618 934.451 762.1617 933.7804 761.2675 932.998 760.3734 932.2156 759.4792 931.545 758.2497 931.0979 756.2378 931.2097 754.226 931.545 753.6671 931.7685 752.5494 932.4392 751.9905 932.7745 751.4317 932.6627 750.314 932.2156 748.4139 932.3274 747.2961 931.7685 746.1784 931.0979 745.0607 930.6508 735.7837 930.7626 735.1131 930.6508 734.2189 930.2037 733.4365 928.5272 732.6541 927.9683 731.5364 927.5212 728.6304 925.174 728.4068 924.8387 728.1833 924.727 727.6244 924.6152 727.1773 924.727 726.1714 925.174 725.5008 925.2858 722.4829 925.2858 721.477 925.0623 719.4651 923.8328 717.7886 922.3798 715.8884 921.1503 713.5413 921.0385 713.0942 921.4856 712.8706 922.0444 712.7589 922.4915 712.0882 922.7151 711.4176 922.8268 711.0823 923.0504 710.747 923.4975 710.2999 923.721 709.1822 923.721 708.3998 923.3857 708.0645 922.6033 708.5116 921.262 708.6233 921.0385 708.5116 920.7032 708.5116 920.4796 707.5056 919.5855 704.4878 918.1325 704.0407 917.6854 703.7054 917.2383 703.3701 916.903 702.6994 916.6794 702.0288 916.6794 701.5817 916.6794 701.2464 916.4559 700.7993 916.0088 700.2405 915.1146 698.7875 910.6438 698.6757 909.6378 698.6757 909.1908 698.8992 908.6319 699.5699 907.7377 699.6816 907.2906 699.3463 906.2847 698.1168 904.1611 697.6697 903.0433 697.6697 901.7021 698.1168 901.1432 698.6757 900.5844 699.1228 899.5784 698.8992 899.1314 698.2286 898.6843 698.0051 898.2372 698.5639 897.7901 699.6816 897.343 700.1287 896.8959 700.1287 896.4488 700.0169 895.3311 700.1287 893.8781 700.0169 892.6486 699.3463 892.0898 697.6697 892.4251 692.64 894.884 689.3987 895.6664 681.7982 896.3371 679.7864 896.1135 677.5509 896.7842 673.5272 898.796 671.5153 899.2431 667.4915 899.2431 665.4796 900.1373 664.809 900.6961 663.9149 901.9256 663.356 902.4845 662.7971 902.8198 661.5677 903.0433 661.1206 903.2669 660.6735 903.714 660.3382 904.1611 660.1146 904.6081 660.0029 905.2788 659.5558 905.7259 658.9969 905.8376 658.4381 905.7259 657.8792 905.7259 655.6438 906.62 654.5261 906.8436 653.2966 906.7318 652.1789 906.1729 650.3905 904.4964 649.2728 903.8257 648.2669 903.6022 646.0315 903.6022 645.1373 903.2669 644.6902 902.2609 645.3608 901.7021 647.5963 901.0315 648.2669 900.2491 649.9435 897.5666 650.3905 896.6724 650.6141 895.6664 650.7259 894.437 650.6141 893.3193 650.3905 892.4251 649.9435 891.978 649.0493 891.0838 648.8257 890.525 648.8257 889.7426 649.1611 889.1837 649.6081 888.7366 649.8317 888.066 649.2728 886.9483 647.9316 885.8306 646.3668 884.8246 645.1373 884.2658 644.1314 884.154 642.2312 884.154 641.1135 884.0422 639.2134 883.3716 638.3193 883.3716 637.2015 883.7069 636.0838 883.9305 635.7485 883.2598 635.8603 881.3597 635.7485 880.8009 635.4132 879.6832 635.3014 879.1243 635.3014 878.5655 635.6367 877.6713 635.6367 877.1124 634.4073 875.9947 632.0601 875.1006 629.6011 874.6535 627.8128 874.6535 626.8068 875.1006 626.3597 876.2183 626.1362 877.4477 625.6891 878.5655 625.1303 879.0125 624.0125 879.6832 623.4537 880.1303 623.2301 880.6891 622.7831 881.9186 622.4477 882.4774 620.6594 883.0363 618.5358 882.701 616.3003 882.0304 614.2884 881.695 612.1648 881.9186 610.3765 881.8068 605.9056 880.4656 602.5525 879.5714 600.5406 879.4596 598.3052 879.5714 596.0697 880.1303 592.4931 882.1421 586.681 885.3835 582.3219 886.1659 576.9569 887.0601 574.6097 887.0601 572.486 886.8365 571.4801 886.2777 569.4682 885.0482 568.3505 884.3776 567.121 884.3776 565.8915 884.9364 564.7738 885.8306 563.6561 886.5012 561.6442 886.8365 559.6323 886.613 557.6205 886.0541 555.6086 885.16 551.473 883.5952 549.5729 883.8187 547.8964 888.1778 546.3316 889.519 540.9666 891.3074 540.1842 891.8662 537.837 894.437 536.9428 894.9958 535.4898 895.1076 536.2722 892.8722 536.4957 890.6367 535.8251 885.8306 535.4898 884.7129 534.5956 883.1481 534.4838 882.2539 534.2603 881.9186 533.4779 881.3597 533.3661 881.1362 533.3661 879.0125 532.1366 875.2123 531.6895 874.4299 531.6895 873.5358 532.5837 872.3063 533.8132 871.1886 534.8191 870.5179 537.0546 869.6238 538.3958 869.1767 539.4018 869.0649 539.8488 868.6178 540.0724 867.5001 539.8488 865.4882 539.9606 865.2647 540.2959 864.9294 539.4018 863.5881 539.29 861.688 539.29 860.4585 539.4018 859.4526 539.1782 857.1054 538.6194 855.9877 538.0605 855.3171 537.5017 854.5347 537.3899 853.4169 537.7252 852.2992 538.9547 850.2873 539.1782 849.505 539.29 848.9461 539.5135 847.9402 539.6253 847.2695 539.4018 846.5989 538.6194 845.7047 538.1723 844.0282 536.9428 841.7927 535.9369 839.3338 534.7074 836.8748 533.7014 834.4158 534.0367 832.6275 533.8132 831.9569 533.3661 829.7215 532.2484 826.7036 531.8013 824.8035 531.3542 823.574 530.6836 822.7916 528.56 821.4504 527.6658 820.668 527.1069 820.3327 526.7716 820.7798 526.3245 820.8915 525.8774 820.5562 522.7479 816.9795 522.189 815.4147 522.0772 813.7382 521.7419 813.8499 520.8477 814.1853 520.5124 814.4088 519.8418 812.2851 516.3769 808.7085 515.0356 806.5848 514.4768 804.3494 513.9179 799.655 513.2473 797.4196 512.912 796.8607 512.0178 795.743 511.7943 795.1842 511.7943 794.5135 512.3531 793.3958 512.6884 791.4957 514.365 788.1426 514.9239 785.9072 514.9239 783.6717 514.365 778.1949 515.0356 772.0475 514.9239 769.2532 515.371 765.0059 515.9298 763.6647 516.3769 761.8763 516.7122 761.541 517.2711 758.0761 517.9417 754.1641 518.5006 752.4876 519.3947 750.811 519.0594 750.6992 518.8359 750.5875 518.6123 750.4757 518.3888 750.4757 519.6183 746.2284 519.8418 743.8812 519.3947 741.6458 518.1652 739.5221 517.4946 738.1809 517.8299 737.5102 518.277 737.2867 518.6123 737.0631 518.0535 736.0572 516.4887 734.4924 516.1534 733.5982 515.4827 731.0275 515.371 728.6803 515.2592 727.7861 514.9239 727.1155 513.5826 725.5507 513.0238 724.5448 512.6884 723.4271 512.5767 722.1976 512.1296 721.527 510.453 720.6328 510.0059 720.1857 509.7824 719.1798 509.5589 715.4913 509.7824 715.0442 510.5648 713.9265 510.6766 713.3677 510.6766 712.697 510.3413 711.3558 510.6766 708.8968 510.9001 708.1144 511.5707 706.3261 511.9061 705.2084 512.5767 703.1965 513.2473 701.2964 513.5826 700.2904 513.8062 699.6198 513.9179 698.6139 514.1415 698.2785 514.9239 697.4961 515.0356 697.0491 515.0356 695.0372 514.9239 694.4783 514.8121 694.2548 514.7003 693.9195 514.7003 693.2488 514.8121 692.5782 515.371 691.4605 515.4827 690.7899 515.371 690.5663 514.8121 690.0075 514.7003 689.6722 514.7003 689.4486 515.0356 689.0015 515.0356 688.6662 514.9239 687.9956 514.5886 687.5485 514.2532 687.2132 513.9179 686.5426 514.0297 686.319 514.365 685.8719 514.4768 685.4249 514.1415 684.9778 513.9179 684.6425 512.6884 682.0717 512.3531 681.6246 511.9061 681.4011 511.5707 681.2893 511.3472 680.954 511.3472 680.8422 510.3413 680.7305 508.5529 680.7305 504.6409 680.8422 500.7289 680.8422 496.9287 680.8422 493.0167 680.8422 489.1047 680.8422 485.1927 680.8422 481.3925 680.8422 477.4805 680.8422 473.5685 680.8422 469.7683 680.8422 465.8563 680.954 461.9443 680.954 458.1441 680.954 454.2321 680.954 450.3201 680.954 446.5199 680.954 443.9492 680.954 443.9492 678.2715 443.8374 675.8125 444.1727 673.2418 445.2904 670.3358 446.1846 668.1003 447.6376 664.3001 448.8671 661.0587 445.7375 661.0587 441.1549 661.0587 436.684 661.0587 433.8898 661.0587 433.2191 661.1705 432.8838 661.5058 432.4367 662.4 432.2132 663.1824 431.8779 664.859 431.8779 665.6414 429.4189 665.6414 427.0717 665.6414 424.8363 665.6414 422.6009 665.6414 420.3655 665.6414 418.13 665.6414 415.8946 665.6414 414.218 665.6414 413.6592 665.6414 411.4238 665.6414 409.1883 665.6414 406.9529 665.6414 404.7175 665.6414 402.4821 665.6414 400.2466 665.6414 398.0112 665.6414 395.7758 665.6414 393.5404 665.6414 390.7461 665.6414 391.752 667.765 391.8638 668.4356 391.5285 669.218 390.0755 671.1182 389.4048 672.1241 388.846 673.8007 388.2871 682.5188 388.5107 684.3072 388.846 686.0955 390.299 689.6722 390.299 691.3487 388.7342 692.5782 388.6224 692.5782 387.9518 693.5842 387.393 695.7078 386.6106 696.4902 385.6046 696.7138 381.9162 696.3784 381.8044 697.8315 382.2515 699.2845 382.8103 700.7375 383.2574 702.0788 383.2574 703.42 383.0339 704.873 382.0279 708.1144 381.4691 709.791 380.6867 712.2499 380.5749 713.9265 380.6867 715.2678 381.9162 719.4033 380.4631 719.4033 373.6451 719.4033 366.8271 719.4033 360.009 719.4033 353.191 719.4033 350.8438 719.4033 350.0614 718.1738 349.7261 717.5032 349.5025 716.0502 348.9437 715.7149 345.1435 715.7149 341.0079 715.7149 337.0959 715.7149 336.5371 716.1619 336.4253 717.1679 336.6488 719.1798 335.6429 719.2915 335.3076 719.1798 332.0662 719.2915 331.1721 719.4033 329.9426 719.9622 329.1602 720.2975 328.4895 720.1857 326.4777 719.4033 323.9069 719.2915 319.8832 719.1798 318.989 719.2915 316.8653 720.2975 315.9712 720.521 315.077 721.1916 314.5182 722.4211 314.5182 723.8741 314.8535 725.2154 310.0473 725.3272 308.5943 724.9919 305.9118 722.6447 304.347 721.974 302.5586 721.7505 301.6645 721.974 298.4231 723.7624 297.7525 723.8741 295.9641 723.2035 294.2876 722.98 289.8167 724.6565 288.2519 724.6565 285.3459 723.8741 284.8988 723.4271 284.4517 722.6447 285.1223 721.0799 284.8988 720.1857 284.4517 719.7386 283.334 719.1798 282.7751 718.6209 282.4398 718.1738 281.9927 716.3855 281.7692 716.7208 281.4339 716.9443 281.2103 717.1679 281.0986 716.8326 280.9868 716.609 280.9868 716.4972 281.2103 716.0502 280.0926 715.4913 279.6455 715.156 279.422 714.8207 279.7573 714.0383 280.2044 713.5912 280.4279 713.1441 279.7573 712.3617 278.9749 712.697 278.8631 712.2499 278.8631 711.5793 278.7514 710.9087 278.1925 710.7969 277.5219 710.7969 277.0748 710.6851 277.6337 710.2381 277.6337 709.791 276.6277 709.791 276.2924 709.3439 276.4042 708.6733 276.2924 708.1144 275.7336 707.8909 274.5041 707.6673 274.2805 707.4438 274.057 706.9967 273.1628 706.1025 272.8275 705.4319 273.051 704.873 273.3864 704.426 273.3864 703.9789 272.4922 703.5318 272.7157 703.3083 272.604 703.1965 272.4922 702.7494 271.7098 703.1965 271.598 702.3023 271.598 701.0728 271.3745 700.1787 271.598 699.1727 270.4803 698.3903 267.9096 697.0491 267.1272 695.9314 266.233 693.3606 265.5624 692.1311 265.0035 691.684 264.5564 691.3487 264.2211 691.0134 264.1094 690.4546 264.3329 689.7839 265.0035 689.5604 265.6741 689.3369 265.8977 689.0015 265.6741 688.5545 265.2271 688.3309 264.1094 687.9956 263.6623 687.7721 263.327 687.5485 262.9916 687.6603 262.5446 688.4427 261.8739 687.8838 261.5386 687.2132 261.5386 685.8719 261.5386 685.3131 261.3151 684.5307 260.6444 683.9718 259.3032 683.3012 257.5149 681.96 256.0618 681.6246 255.8383 680.954 255.8383 680.0598 255.7265 679.2774 254.8323 678.048 254.1617 677.3773 253.7146 677.042 253.3793 676.5949 253.4911 673.6889 252.3734 670.224 252.4851 668.8827 254.2735 669.3298 254.2735 668.1003 254.6088 667.2062 254.8323 666.312 254.3853 665.4178 254.1617 664.9707 253.9382 664.5237 253.6029 664.3001 252.9322 664.0766 252.4851 663.853 252.4851 663.4059 252.7087 662.8471 252.8205 662.6235 252.3734 659.6057 251.8145 658.2645 250.4733 657.3703 249.9144 657.2585 248.5732 657.1468 248.0143 656.9232 247.3437 656.3644 247.1201 655.582 247.1201 654.7996 246.8966 654.0172 243.8788 649.8816 243.5435 648.9875 243.3199 648.0933 243.0964 646.0814 242.8728 645.1872 242.0904 643.3989 241.9787 642.5047 242.0904 641.4988 242.7611 640.3811 242.8728 639.934 242.314 639.2634 241.7551 638.8163 241.4198 638.2574 241.4198 637.6986 241.7551 636.9162 240.6374 636.8044 240.6374 636.3573 241.0845 635.5749 241.4198 634.9043 241.308 634.2337 240.9727 634.1219 240.6374 634.2337 240.3021 634.0101 239.9668 633.4513 239.9668 633.2277 239.9668 631.2158 240.1903 630.657 240.6374 630.5452 241.0845 630.4334 241.4198 630.3217 241.5316 629.7628 241.4198 629.204 241.1963 628.7569 241.0845 628.3098 241.0845 624.286 241.1963 623.3919 241.6433 622.7212 241.7551 622.0506 241.308 621.2682 240.3021 620.1505 240.0785 619.4799 239.5197 619.1446 238.8491 618.921 238.1784 618.5857 237.2843 617.3562 236.6136 616.7974 235.6077 616.6856 236.7254 615.4561 236.5019 614.8972 236.0548 614.8972 235.4959 615.2326 235.1606 615.2326 235.0488 614.6737 234.8253 611.2088 234.7135 610.7617 234.49 610.2029 233.9311 609.5322 233.9311 609.1969 234.6018 608.3028 234.8253 607.8557 232.8134 606.8497 232.4781 606.6262 230.4662 605.8438 229.4603 605.6202 228.5661 605.6202 227.4484 605.732 225.7718 606.2909 224.9894 606.4026 224.0953 606.2909 222.9776 605.6202 222.0834 604.9496 221.1892 604.3908 219.848 604.1672 216.7184 604.1672 211.8004 604.279 208.3355 604.279 206.9943 604.279 202.0763 604.3908 197.2702 604.5025 192.3523 604.6143 187.5461 604.6143 182.6282 604.7261 177.7102 604.8378 172.9041 604.9496 167.9861 604.9496 163.18 605.0614 158.262 605.1732 153.4559 605.1732 148.538 605.2849 143.7318 605.3967 138.8139 605.5085 136.802 605.5085 133.8959 605.5085 127.0779 606.8497 125.4013 606.6262 122.0482 605.732 119.5892 606.1791 114.7831 606.0673 109.1945 605.9556 108.1886 605.8438 105.059 604.7261 103.8295 604.6143 97.4585 605.0614 96.6761 604.7261 95.4466 604.0554 93.323 603.3848 86.0579 604.0554 77.2279 604.7261 72.9806 604.279 72.5336 604.3908 71.5276 604.8378 70.857 604.8378 69.2922 604.279 65.0449 604.279 63.3683 604.1672 62.9212 604.5025 61.9153 605.6202 61.2447 606.0673 59.5681 605.1732 57.4444 604.6143 52.8618 604.1672 52.1912 603.8319 51.297 603.9437 49.6205 604.5025 48.8381 604.6143 47.8321 604.3908 46.6026 604.5025 44.9261 604.279 42.4671 603.1613 41.7965 602.9377 39.8964 602.2671 39.0022 601.9318 37.5492 601.9318 35.5373 602.2671 33.5254 602.826 32.1842 603.6084 31.8488 603.8319 30.6194 604.7261 29.9487 605.6202 29.3899 606.6262 27.9369 608.191 28.2722 610.7617 25.5897 611.8794 22.1248 611.7677 19.4422 613.3325 15.0832 614.3384 13.7419 614.6737 12.9595 614.6737 12.736 613.7795 12.9595 613.3325 14.0772 612.6618 14.0772 611.3206 14.0772 610.9853 13.5184 610.6499 12.736 610.5382 11.8418 610.7617 11.6183 611.2088 11.2829 611.4323 10.8359 612.2147 10.277 611.097 9.9417 610.0911 9.8299 609.644 9.4946 609.4205 8.824 609.0851 8.7122 608.9734 7.5945 607.5204 3.9061 603.9437 3.0119 602.7142 1 599.2493 3.5707 597.7963 8.0416 597.1256 12.9595 597.2374 16.8715 597.2374 17.095 592.3195 17.2068 588.8546 17.4304 582.1483 17.6539 575.7773 17.8774 571.1947 17.9892 567.0592 17.6539 565.2708 16.9833 564.8238 13.7419 563.5943 13.4066 563.3707 13.1831 562.8119 13.0713 562.253 13.1831 561.8059 13.4066 561.2471 13.7419 561.2471 14.189 561.2471 14.6361 561.2471 19.1069 559.6823 21.007 558.341 21.9012 556.3292 22.1248 555.2114 22.5718 554.8761 24.5837 554.7644 25.925 554.3173 26.2603 553.6466 26.3721 552.8642 26.9309 551.7465 27.7133 551.0759 30.0605 549.6229 30.6194 548.9523 30.7311 547.7228 31.0664 546.6051 31.6253 545.3756 32.5195 544.4814 34.196 543.4755 44.5908 541.0165 46.4909 540.3459 46.938 538.8928 46.8262 536.9927 47.7204 535.875 49.0616 535.7633 50.1793 537.1045 50.6264 537.8869 51.5206 539.2282 52.1912 541.0165 52.7501 541.5754 54.2031 542.4695 56.662 544.705 57.668 545.2638 60.9094 546.4933 61.6917 546.8286 62.1388 547.3875 62.4741 548.0581 62.8095 549.8464 63.9272 552.1936 64.486 551.7465 66.0508 549.9582 68.7333 547.9463 69.404 547.611 69.5157 547.2757 69.2922 546.7168 68.7333 546.2697 70.5217 545.2638 71.0805 545.152 71.7512 545.4873 72.8689 546.6051 73.4277 546.9404 73.9866 546.7168 74.5454 546.4933 75.7749 544.3696 76.8926 543.699 77.3397 543.699 78.5692 544.0343 79.0163 544.0343 79.3516 543.5872 79.1281 542.6931 79.3516 542.0224 79.7987 541.7989 80.2458 541.9107 80.6928 542.0224 81.0282 541.5754 80.3575 539.2282 80.4693 538.1105 81.3635 535.875 81.4752 534.8691 80.9164 529.7276 81.1399 529.057 81.8106 528.7217 85.1637 527.604 86.2814 527.7157 87.3991 528.4981 87.958 529.057 88.6286 530.51 89.2992 531.0689 89.7463 531.1806 91.3111 531.0689 92.8759 531.516 93.4348 531.516 93.9936 531.1806 94.8878 530.0629 95.6702 529.5041 95.782 529.3923 95.8937 529.1688 97.4585 527.0451 99.4704 526.2627 104.1648 525.7039 106.1767 525.0332 108.1886 524.1391 110.2004 522.3507 111.3182 521.5683 113.6653 521.0095 116.0125 519.78 117.0185 519.6682 117.242 519.8917 117.4656 520.3388 117.4656 520.8977 117.3538 521.5683 117.1303 522.3507 116.9067 522.686 116.9067 522.9096 117.242 523.692 118.1362 525.0332 119.2539 526.2627 121.0422 527.4922 121.3776 527.8275 121.2658 528.8334 120.4834 529.8394 119.5892 530.8453 119.0304 531.7395 118.3597 532.4101 116.3479 533.1925 115.4537 533.9749 115.0066 534.7573 115.0066 535.2044 115.4537 536.3221 115.9008 538.4458 116.6832 539.4517 117.4656 540.1223 118.0244 541.0165 118.248 542.3578 118.1362 542.9166 117.8009 543.8108 117.5773 544.2579 117.6891 544.9285 117.9127 545.4873 118.1362 545.9344 118.3597 546.4933 117.4656 550.6288 117.6891 552.3054 118.695 552.0818 119.701 551.9701 120.3716 551.6348 121.3776 550.4053 122.0482 550.07 123.0541 549.8464 124.0601 549.8464 124.5072 550.4053 124.7307 550.6288 125.8484 550.6288 126.2955 550.6288 126.6308 550.8524 126.9661 551.6348 127.3014 551.7465 127.9721 551.9701 129.5369 552.976 130.2075 553.1996 132.2194 552.976 133.7842 552.4172 137.3608 550.1817 139.8198 549.1758 140.714 548.5052 141.1611 547.611 141.6081 546.8286 145.9672 539.4517 150.1028 535.4279 150.4381 534.7573 150.8851 534.0867 153.6794 532.6337 154.9089 531.6277 157.7032 527.604 159.7151 524.8097 159.9386 524.0273 160.4975 523.0213 161.8387 522.2389 163.2917 521.5683 164.2977 520.8977 170.2216 517.8799 172.3452 517.2092 173.6865 516.5386 174.1336 516.3151 174.3571 515.9798 175.4748 514.7503 175.8101 514.1914 177.4867 508.9382 178.1573 507.9322 178.9397 507.3734 179.8339 506.9263 187.5461 504.4673 189.8933 504.132 192.3523 503.6849 194.6994 503.0143 196.7113 501.8966 197.0466 501.673 198.2761 500.4436 199.2821 497.314 199.6174 496.7551 199.9527 496.308 201.6293 493.5138 202.5234 490.943 203.3058 490.1606 203.6411 488.9311 205.8766 484.5721 209.1179 480.5483 210.3474 478.2011 211.4651 475.295 214.0359 470.8242 214.7065 469.1476 215.0418 468.1417 215.1536 466.9122 214.8183 466.3534 214.1476 465.9063 213.5888 465.3474 213.2535 464.2297 213.5888 461.8825 213.5888 460.653 213.1417 459.6471 212.9182 458.7529 213.1417 455.8469 212.8064 452.829 213.0299 450.1465 212.8064 448.2464 212.4711 445.2286 212.4711 444.4462 212.5828 443.6638 213.9241 439.8636 215.0418 432.0396 213.2535 419.1859 213.2535 416.6152 213.1417 416.0563 213.0299 415.8328 212.4711 415.0504 212.2475 414.268 212.3593 413.3738 213.1417 411.0266 213.1417 410.6913 213.0299 410.2442 212.9182 409.0147 213.3652 407.7853 214.0359 406.6675 215.2653 404.991 216.6066 403.7615 218.1714 402.7556 221.0774 399.9613 223.4246 398.1729 226.7778 394.9316 227.5602 393.9256 228.0073 393.4785 228.3426 393.255 229.125 392.9197 230.0191 392.2491 230.3545 392.1373 230.578 391.3549 230.8015 390.6843 230.9133 390.5725 235.1606 384.9839 235.8312 383.6427 236.1666 382.0779 236.1666 380.1778 236.2783 379.6189 236.5019 378.7248 236.949 377.8306 237.9549 376.2658 238.6255 375.1481 239.855 372.6891 241.6433 370.3419 243.6552 366.4299 244.5494 365.2004 245.3318 363.1886 246.5613 360.9531 247.1201 359.5001 247.4554 359.053 247.7908 358.7177 249.0202 358.0471 251.4792 356.0352 253.1558 354.0233 255.1677 352.235 256.5089 350.782 256.6207 350.4466 256.956 350.3349 257.5149 349.8878 257.8502 349.776 259.5267 349.5525 262.0975 348.7701 265.6741 347.3171 266.6801 347.0935 269.3626 346.6464 272.1569 345.864 272.7157 345.5287 273.7217 344.2992 273.9452 344.0757 275.3982 343.2933 275.7336 342.958 276.8513 341.7285 278.1925 340.3872 285.3459 331.7809 288.3637 328.2042 289.4814 327.31 290.152 326.5276 290.8227 326.0805 291.0462 325.857 291.0462 325.6334 291.158 324.851 291.3815 324.5157 291.7168 324.0686 295.07 320.9391 295.8524 319.9331 296.2994 319.3743 295.7406 309.8737 294.5111 304.6205 294.3993 303.1674 294.5111 301.8262 296.6348 291.9903 297.6407 289.9784 301.7762 278.5778 306.3589 272.2068 306.6942 271.3127 307.0295 266.1712 306.9177 265.277 306.5824 264.1593 306.0235 263.3769 305.2411 262.9298 304.2352 260.3591 303.8999 259.0178 303.8999 257.5648 304.6823 253.4293 304.6823 251.9762 303.1175 245.1582 303.1175 240.9109 302.4469 237.2224 302.8939 235.993 303.8999 233.9811 305.0176 232.6398 307.253 228.9514 307.7001 227.9454 307.8119 224.5923 309.712 218.6684 309.9355 216.6565 310.2708 215.6506 313.4004 208.7208 313.5122 207.6031 313.1769 192.2904 313.2887 191.3963 313.7358 189.6079 313.9593 188.7138 313.9593 187.8196 313.624 185.3606 313.9593 180.3309 313.7358 178.6543 313.5122 177.0895 313.5122 176.3072 315.5241 170.6068 315.9712 170.048 317.2007 168.4832 317.4242 167.9243 318.3184 167.7008 318.8772 166.8066 319.6596 165.0183 320.2185 164.0123 320.6656 163.0064 321.0009 162.0004 321.5597 158.8708 322.0068 157.9767 322.6774 157.0825 325.807 154.2882 326.3659 154.0647 326.4777 153.6176 330.6132 146.6878 331.9545 143.1111 332.0662 141.6581 332.2898 140.8757 333.5193 138.1932 334.5252 136.8519 334.7487 136.2931 334.9723 135.0636 335.1958 134.5047 335.9782 133.2752 337.7666 128.022 338.4372 127.0161 339.5549 126.2337 341.455 125.3395 342.2374 124.5571 342.6845 123.6629 342.7963 123.1041 343.2433 121.8746 343.8022 114.1624 343.4669 107.4561 343.0198 106.0031ZM37.9963 604.9496L39.5611 605.1732 40.567 605.0614 41.5729 604.8378 42.8024 604.8378 41.3494 605.9556 39.8964 606.4026 36.8785 606.9615 36.0961 607.5204 34.4196 608.0792 32.743 609.4205 31.5135 609.7558 30.284 609.644 29.5017 608.7498 30.5076 607.6321 32.0724 606.4026 33.8607 605.0614 35.3138 604.8378 37.9963 604.9496Z" />
</svg>