<?xml version="1.0" encoding="utf-8"?>
<svg xmlns="http://www.w3.org/2000/svg" viewBox="0 0 1021 696" style="stroke-width:0.25px;stroke-linejoin:round;stroke:#444;fill:#ddd" fill-rule="evenodd">
  <path class="CF" d="M660.5617 10.6746L660.6735 12.91 671.7388 29.1168 679.8981 34.8172 693.9813 48.6768 706.9468 69.6898 719.9122 90.8145 721.5888 94.2794 723.8242 107.9155 723.3771 110.9333 722.3712 113.2805 719.4651 117.7514 718.571 119.9868 718.571 120.881 719.3534 122.8928 719.4651 123.8988 719.3534 126.3578 719.5769 127.1402 720.2475 128.1461 720.8064 128.0343 721.2535 128.2579 721.7006 128.9285 721.7006 129.3756 719.8004 135.523 719.6887 136.976 720.4711 139.3232 720.5828 140.5527 719.9122 141.4469 718.7945 142.2293 715.7767 146.0295 714.1001 147.8178 713.2059 148.3767 711.9765 148.6002 709.4057 148.4884 708.288 148.9355 707.3938 150.2768 706.9468 150.8356 705.2702 160.895 705.4937 162.7952 706.4997 164.4717 708.5116 165.5894 710.747 165.4777 713.5413 162.5716 714.9943 162.6834 715.5531 164.36 715.4414 167.1542 714.4354 171.6251 713.0942 173.7487 709.9646 177.4372 708.8469 179.4491 708.8469 181.3492 709.5175 183.4728 710.6352 185.1494 712.3118 185.9318 713.4295 185.7083 715.2178 184.2552 716.3355 183.5846 717.7886 183.3611 719.1298 183.4728 720.3593 184.0317 721.477 184.8141 722.4829 185.2612 724.9419 185.1494 727.5127 185.9318 728.7421 185.4847 731.2011 184.367 733.8836 184.2552 738.8015 185.3729 743.1606 184.9259 746.2902 186.2671 747.7432 186.4906 749.9787 186.1553 758.0262 187.4966 762.497 186.826 763.2794 186.7142 766.1855 186.7142 767.5267 187.4966 767.415 188.6143 765.9619 190.6262 765.6266 191.7439 766.1855 192.8616 768.3091 194.5382 768.6444 195.5441 768.1974 196.2147 764.956 198.3384 764.1736 199.2326 759.8145 206.6095 758.9204 209.292 758.6968 211.8627 759.3674 214.0981 761.044 216.11 763.1677 217.6748 765.2913 218.7925 766.5208 219.3514 769.2033 219.9102 769.6504 220.022 771.1034 220.1338 772.2211 220.1338 772.78 220.2455 773.3388 220.5809 774.6801 221.5868 775.0154 221.8103 780.0451 220.022 782.7276 219.7985 784.6277 221.5868 784.8513 222.2574 785.2983 222.8163 785.8572 223.1516 786.6396 223.2634 789.0986 224.8282 791.5575 224.9399 797.0343 224.0458 801.3934 224.8282 802.9582 224.8282 804.523 225.0517 806.982 226.393 811.4528 226.9518 813.9118 228.0695 820.618 234.2169 821.4004 235.5582 821.624 238.3525 823.1888 240.029 823.3006 241.3703 823.7476 241.9292 824.3065 242.488 824.8653 242.9351 825.536 243.2704 829.3362 247.5177 831.6834 249.3061 834.0306 250.2002 835.0365 250.0884 837.4955 249.5296 838.6132 249.5296 840.5133 249.8649 841.0722 250.2002 841.4075 250.6473 841.9663 251.0944 843.8664 251.765 844.8724 252.771 845.6548 254.0004 846.4372 256.4594 847.6667 258.5831 848.002 259.9243 848.1138 261.042 847.7784 264.3952 848.1138 265.6246 848.5608 266.7424 848.7844 267.8601 848.4491 269.2013 846.6607 270.7661 841.5193 272.5545 839.8427 274.1193 839.8427 275.1252 840.178 276.3547 841.8546 280.2667 846.4372 282.7256 847.5549 283.3963 848.002 283.9551 848.7844 285.1846 849.2315 285.7435 849.7903 286.0788 851.1316 286.5259 851.6904 286.8612 852.2493 287.9789 852.8081 290.2143 853.1435 291.4438 854.0376 292.5615 855.0436 293.3439 859.4026 295.4675 862.4205 297.8147 864.4323 298.7089 865.9971 298.2618 867.2266 298.4854 868.4561 299.156 871.921 302.3974 873.1505 303.068 877.9567 304.2975 879.4097 304.8563 881.3098 306.4211 881.8686 306.5329 883.4334 306.5329 884.2158 306.8682 885.4453 308.0977 886.2277 308.3212 888.2396 308.433 888.6867 309.1036 888.6867 310.1096 889.3573 311.3391 890.475 311.7861 894.0517 312.1215 895.2812 312.7921 895.6165 313.3509 895.84 314.804 896.1754 315.5864 898.6343 316.9276 899.4167 317.1512 900.9815 317.3747 901.7639 317.71 902.211 318.2689 902.3228 318.8277 902.4345 319.3866 903.4405 319.6101 906.9054 319.8337 907.3525 321.622 907.6878 325.7575 908.3584 327.4341 908.8055 327.7694 909.2526 327.6576 909.8114 327.5459 910.2585 327.5459 910.5938 327.8812 910.5938 328.2165 910.3703 328.7754 910.4821 329.2224 910.7056 330.2284 910.9292 331.1226 911.1527 332.0167 911.9351 332.9109 913.7234 334.0286 915.1765 334.3639 916.4059 334.9228 918.7531 337.9406 921.9945 340.176 923.224 341.5173 925.9065 342.9703 930.4891 344.6469 934.2893 346.7705 934.4011 348.5589 934.4011 349.453 933.8422 350.2354 932.6128 352.5826 930.1538 355.9358 928.589 359.0653 927.9184 359.6242 927.136 360.0713 926.4653 360.6301 925.9065 361.5243 927.3595 361.9714 927.4713 363.0891 927.0242 364.6539 926.9124 365.9952 927.3595 367.6717 928.2537 368.3424 929.4832 368.9012 930.9362 369.6836 932.2774 371.0249 934.0658 373.4838 935.6306 374.378 938.7602 375.1604 940.1014 376.0546 940.325 378.0664 940.325 379.9666 941.1074 380.4136 942.2251 380.3019 943.4546 380.6372 944.4605 381.8667 944.5723 383.3197 943.7899 384.7727 942.4486 385.8904 941.1074 386.6728 939.5426 387.7905 938.3131 389.1318 937.6425 390.5848 937.9778 392.2614 939.2073 391.9261 942.3369 389.6906 943.6781 390.1377 944.5723 391.479 945.1311 393.1556 945.9135 394.6086 947.143 395.5028 951.7256 397.1793 954.1846 397.4029 959.7732 397.1793 965.2499 399.4147 966.703 400.3089 967.4854 401.3149 967.9325 404.7798 968.6031 406.2328 970.3914 407.0152 972.1798 406.9034 973.521 406.4563 974.4152 406.5681 975.1976 408.3564 976.2035 409.6977 977.8801 409.8095 981.2332 409.0271 982.0156 409.9212 983.0216 412.1567 984.3628 413.1626 985.0334 414.3921 985.4805 414.7274 986.2629 414.8392 987.6042 414.2803 988.3866 414.2803 991.6279 415.5098 992.2986 416.0686 992.8574 417.4099 992.9692 418.1923 993.3045 418.7512 994.8693 419.31 995.987 419.8689 996.8812 420.8748 997.5518 422.1043 997.7754 423.3338 997.7754 424.0044 997.9989 424.4515 998.3342 424.7868 999.6755 425.681 999.7872 426.1281 999.5637 426.6869 999.4519 428.0282 999.1166 429.1459 999.1166 429.7047 999.5637 430.3754 1000.0108 430.4871 1000.3461 430.2636 1000.6814 430.2636 1001.0167 430.1518 1001.352 429.9283 1002.0227 429.8165 1002.6933 430.3754 1003.0286 431.046 1002.8051 432.3872 1003.0286 433.1696 999.7872 441.6642 999.6755 442.8937 999.7872 443.8997 1000.4579 445.9116 1000.905 449.7118 1001.2403 450.9413 1003.2521 455.8592 1004.5934 458.0946 1006.1582 460.1065 1010.629 463.1243 1012.7527 464.9127 1013.9822 468.0422 1016.2176 469.607 1017 470.613 1014.9881 469.8306 1014.2057 469.7188 1013.1998 468.9364 1012.3056 468.8246 1010.8526 468.7129 1010.0702 468.6011 1009.3996 468.2658 1008.2818 467.4834 1007.2759 466.5892 1006.1582 465.8068 1004.8169 465.5833 1003.1404 465.3597 1001.352 464.8009 994.9811 461.6713 991.7397 460.5536 988.3866 460.2183 984.8099 461.336 982.0156 462.789 979.6684 464.3538 977.5448 466.2539 975.1976 468.8246 974.8623 469.4953 974.0799 471.2836 973.6328 471.9542 972.7386 472.8484 972.4033 473.1837 970.9503 473.0719 970.9503 472.9602 970.615 472.5131 970.1679 472.1778 969.7208 471.9542 969.1619 472.1778 968.3795 473.0719 967.8207 473.0719 967.2618 472.7366 964.0205 469.2717 963.5734 468.9364 962.4557 468.8246 958.6554 468.8246 957.873 469.16 956.8671 470.0541 956.0847 470.3894 954.967 470.0541 954.2964 470.0541 953.8493 470.9483 953.4022 470.9483 952.7316 470.0541 951.3903 469.8306 950.0491 470.3894 949.0431 471.5072 948.596 470.9483 948.0372 471.5072 947.0312 471.9542 946.0253 472.4013 945.3547 472.5131 944.0134 472.4013 941.8898 471.7307 940.8838 471.5072 940.7721 470.9483 939.2073 468.0422 938.3131 467.2598 937.0836 466.5892 935.9659 465.695 935.2953 464.4656 933.6187 465.1362 933.0598 465.5833 932.3892 464.5773 931.048 464.5773 929.5949 464.6891 927.5831 464.3538 926.0183 463.6832 924.677 462.6772 924.0064 461.336 923.6711 461.4477 922.7769 461.6713 922.4416 461.8948 922.4416 460.5536 922.4416 460.2183 921.4356 460.5536 920.9886 459.8829 920.3179 457.5358 920.0944 457.7593 919.2002 458.5417 918.9767 458.2064 918.5296 457.8711 918.1943 457.5358 917.0766 457.9828 916.6295 457.424 916.0706 456.5298 914.9529 455.971 914.6176 456.7534 914.1705 457.3122 913.6117 457.5358 913.0528 457.5358 912.4939 457.424 912.1586 457.3122 911.7116 457.0887 912.0469 458.9888 912.2704 459.6594 911.5998 459.3241 910.8174 459.2123 910.3703 459.5476 910.1468 460.4418 909.6997 460.5536 908.8055 460.5536 907.7996 460.6653 906.9054 461.336 905.8994 460.5536 904.5582 458.9888 903.7758 458.5417 902.6581 458.3182 901.9875 458.6535 901.6521 459.3241 901.6521 460.7771 900.4227 460.2183 899.0814 460.4418 898.0755 461.336 897.9637 462.9008 896.5107 461.6713 895.84 460.2183 894.9459 459.2123 893.1575 459.1006 892.934 459.6594 892.1516 460.5536 891.3692 461.0007 890.8103 459.4359 890.3633 458.877 890.1397 458.0946 890.475 457.0887 890.1397 457.2004 889.2455 457.424 888.9102 457.5358 888.6867 455.6356 887.569 455.0768 886.8983 455.4121 887.7925 455.971 887.1219 456.9769 886.0042 457.0887 884.8865 456.5298 884.1041 455.971 881.8686 453.512 880.8627 452.7296 879.0744 452.2825 878.9626 452.1707 878.6273 451.9472 878.0684 451.2766 877.6213 451.1648 876.7272 451.2766 876.1683 451.8354 875.4977 451.9472 874.4917 451.1648 874.4917 450.6059 874.8271 450.3824 875.0506 450.0471 875.2741 449.8235 875.4977 449.4882 873.7094 449.6 873.1505 448.8176 872.927 447.8117 872.2563 446.8057 871.8092 446.8057 870.8033 447.0293 869.3503 446.8057 868.4561 447.0293 869.1267 448.4823 868.2326 448.7058 866.3325 449.3765 865.5501 449.2647 864.7677 448.3705 864.5441 448.2587 864.4323 448.5941 860.8557 450.4942 859.1791 450.8295 857.8378 450.0471 857.0554 451.053 855.826 451.3883 855.3789 451.8354 856.273 453.2884 854.7083 453.7355 853.7023 454.8532 853.2552 456.5298 853.1435 458.3182 852.5846 459.3241 851.6904 460.33 851.0198 461.6713 851.4669 463.3479 852.0257 463.6832 853.5905 464.0185 854.1494 464.4656 854.2612 465.1362 853.8141 466.5892 853.7023 467.4834 853.4788 467.9305 852.3611 469.2717 852.0257 470.1659 852.0257 472.066 851.6904 472.8484 851.0198 473.6308 849.7903 473.9661 846.3254 474.3014 845.6548 474.9721 844.7606 475.4191 839.7309 475.7545 839.0603 475.4191 838.5014 475.0838 837.9426 474.7485 837.0484 474.7485 836.4895 475.5309 835.9307 475.978 835.2601 476.2015 834.9248 476.5369 834.0306 478.1017 833.5835 479.7782 832.9129 479.89 830.2304 479.1076 827.5479 477.6546 824.6418 476.8722 823.7476 476.8722 823.1888 477.0957 821.7358 478.2134 821.4004 478.437 819.6121 478.7723 816.8178 480.5606 815.253 481.1195 814.3589 481.0077 813.5765 480.6724 813.0176 480.4488 812.347 480.7842 811.4528 481.6783 810.6704 482.4607 809.7762 482.5725 808.8821 481.6783 807.5408 482.4607 806.0878 482.5725 800.9463 482.0136 800.1639 481.6783 800.3875 480.8959 801.3934 479.5547 800.2757 478.7723 798.0403 477.9899 797.1461 477.3193 796.699 476.4251 796.699 474.8603 796.0284 474.0779 795.0224 473.7426 793.0106 473.4073 792.2282 473.0719 791.7811 472.5131 791.1105 471.0601 790.6634 470.3894 789.2103 469.3835 787.0867 468.2658 786.6396 468.154 784.963 467.8187 783.1747 468.2658 782.8394 469.16 782.9512 470.2777 782.7276 470.8365 781.6099 470.3894 781.1628 469.7188 780.4922 467.4834 780.0451 466.5892 778.9274 467.7069 777.8097 469.607 777.2508 471.2836 778.145 471.9542 780.0451 472.4013 780.2686 473.2955 779.2627 474.4132 777.9215 475.1956 772.2211 475.8662 771.4387 476.5369 771.327 476.7604 770.4328 478.9958 770.2092 479.89 770.2092 480.5606 769.9857 481.2312 769.3151 481.6783 768.868 481.6783 768.3091 479.7782 767.0796 479.2194 765.5149 479.5547 764.0618 480.5606 761.8264 483.3549 761.044 483.802 760.0381 483.5784 758.4733 482.4607 757.5791 482.1254 756.1261 482.349 754.7848 483.1314 752.8847 484.8079 748.8609 486.708 747.5197 487.6022 746.2902 486.3727 745.8431 486.2609 745.396 486.4845 745.0607 486.9316 744.7254 487.714 744.7254 488.6081 745.0607 489.3905 745.1725 490.3965 743.2724 490.3965 740.031 489.7259 739.4722 489.8376 738.578 490.5083 737.9074 490.7318 737.3485 490.7318 735.7837 490.2847 734.8895 490.1729 733.5483 490.62 730.5305 492.7437 728.7421 493.4143 725.2772 493.8614 723.7124 494.3085 720.6946 496.0968 717.1179 496.991 715.4414 497.6616 710.747 501.4618 709.4057 501.9089 707.5056 502.1325 706.2761 502.8031 705.382 503.809 704.8231 505.1503 704.7113 506.0444 704.7113 506.7151 704.5996 507.2739 704.2642 507.8328 703.5936 508.1681 702.1406 508.0563 701.5817 508.3916 700.2405 507.6092 698.8992 507.1622 697.4462 506.8268 695.9932 506.8268 695.6579 506.6033 694.8755 505.7091 694.6519 505.4856 694.3166 505.262 692.64 504.9267 691.9694 504.7032 690.9635 502.4678 688.8398 501.1265 688.5045 500.903 687.6103 500.3441 685.5985 497.6616 684.4807 496.6557 681.0158 498.3322 679.1157 498.6675 677.3274 497.9969 676.545 497.2145 675.6508 496.6557 674.6449 496.2086 673.6389 496.0968 672.7448 495.6497 672.1859 494.6438 671.9624 493.4143 671.0682 491.8495 670.2858 489.7259 669.6152 489.0552 668.6092 489.0552 667.7151 489.3905 666.8209 489.8376 665.9267 490.1729 664.6972 490.1729 664.0266 489.9494 663.4678 489.9494 662.6854 490.7318 662.2383 491.7377 662.2383 492.6319 662.5736 493.6378 663.2442 494.532 662.5736 495.3144 660.897 496.5439 660.0029 498.6675 658.6616 498.444 657.2086 497.6616 655.9791 497.2145 654.6378 497.6616 653.9672 498.7793 653.073 501.4618 652.5142 502.6913 651.8436 503.5855 650.9494 504.4796 649.8317 505.1503 649.8317 506.0444 650.2788 507.6092 650.3905 508.3916 650.2788 508.9505 649.4964 510.2917 649.2728 510.8506 649.0493 511.1859 648.0433 511.9683 647.8198 512.4154 647.8198 514.3155 647.5963 515.0979 647.1492 515.8803 646.1432 516.4392 644.4667 516.5509 641.0018 516.4392 639.6605 517.2216 639.2134 519.1217 639.3252 521.3571 639.7723 522.8101 641.1135 524.4867 641.3371 525.0455 640.89 525.8279 640.2194 526.7221 639.3252 527.3927 638.431 527.6163 637.7604 528.3987 635.525 532.5342 635.525 533.4284 635.9721 534.9932 635.9721 535.7756 635.525 536.558 634.1837 537.7875 633.8484 538.1228 633.2895 539.3523 631.8365 540.6935 629.154 542.5936 628.7069 542.8172 627.1421 543.376 626.3597 543.7113 617.0827 544.1584 609.5941 542.4818 607.9175 541.3641 606.1292 540.6935 605.3468 540.2464 603.8937 538.6816 603.4466 538.3463 601.9936 537.8992 597.9699 537.1168 596.4051 536.3344 594.1696 535.3285 593.6108 535.105 592.7166 535.2167 592.2695 535.3285 591.9342 535.4403 591.2636 535.7756 589.587 535.9991 585.1162 535.7756 583.2161 535.4403 581.9866 534.5461 580.8689 533.6519 579.5276 532.9813 578.7452 532.8695 576.5098 532.9813 575.7274 532.8695 575.2803 532.646 575.0568 532.3107 574.7215 531.9754 573.0449 531.3047 571.9272 531.193 569.2447 531.4165 566.3386 531.193 564.9974 531.3047 557.5087 535.105 556.7263 534.7696 555.2733 534.7696 554.3791 534.6579 553.8202 534.2108 553.2614 533.6519 552.479 533.2048 551.473 532.9813 548.1199 533.2048 546.6669 533.0931 544.8785 532.5342 543.5373 531.9754 539.8488 529.5164 539.4018 529.0693 538.9547 528.5105 538.0605 528.1751 537.0546 528.2869 536.3839 528.5105 535.8251 528.8458 535.1545 529.2928 534.7074 529.7399 534.2603 530.4106 533.8132 530.9694 533.0308 531.4165 532.1366 531.5283 531.466 531.0812 530.9072 530.6341 530.1248 530.2988 528.56 530.2988 528.0011 530.0752 527.3305 528.734 526.4363 528.2869 524.5362 527.6163 523.7538 526.7221 522.189 523.9278 521.6301 523.369 520.2889 523.1454 512.8002 520.3512 505.6469 518.8981 502.629 519.0099 501.5113 519.5688 500.6172 520.3512 499.4994 521.0218 497.5993 521.2453 491.4519 521.2453 484.7457 522.2513 482.9573 521.8042 481.3925 520.7982 473.345 513.3096 473.0097 512.9743 472.2273 511.2977 472.6744 509.7329 473.4568 508.5034 473.9039 507.3857 473.345 505.7091 472.1155 503.9208 470.5507 502.5795 469.2095 501.9089 468.6506 501.3501 466.974 497.6616 465.4092 495.3144 464.1798 493.9732 462.9503 493.4143 461.2737 493.1908 457.697 491.9613 456.244 491.2906 454.791 490.0612 451.2143 485.7021 449.7613 484.6961 444.508 482.6843 442.0491 481.0077 440.2607 479.4429 438.1371 478.1017 431.2073 476.6486 429.3072 475.978 428.5248 474.9721 428.1894 473.7426 426.8482 471.3954 426.1776 470.3894 425.2834 469.2717 424.1657 468.6011 420.7008 466.9245 418.2418 466.4774 416.677 465.695 416.0064 465.5833 407.1765 465.3597 404.2704 464.0185 402.7056 464.3538 400.2466 465.5833 398.6818 465.695 393.5404 465.5833 391.8638 465.9186 390.6343 467.0363 389.0695 469.2717 382.1397 473.6308 378.4513 475.3074 377.8924 475.978 376.6629 477.9899 375.2099 480.0018 373.9804 480.3371 370.4037 480.3371 369.0625 480.7842 368.2801 481.4548 366.4917 483.2431 365.374 484.6961 364.4799 486.4845 363.8092 488.9435 363.4739 489.7259 362.8033 490.3965 362.1327 490.8436 361.5738 491.5142 360.9032 494.532 359.8972 495.6497 358.4442 496.5439 357.103 497.6616 354.4205 502.2442 354.0851 502.4678 352.5204 503.0266 352.185 503.3619 352.0733 503.4737 351.1791 505.7091 348.4966 507.8328 346.5965 510.5153 342.6845 520.4629 340.7844 522.9219 338.3254 524.822 334.637 526.0515 333.0722 526.3868 331.5074 526.4986 329.9426 526.1633 328.4895 525.2691 327.0365 525.1573 325.4717 526.6103 324.354 528.6222 324.0187 530.2988 324.5776 531.64 326.7012 533.5402 327.1483 534.3226 327.5954 535.8873 330.3897 541.0288 331.3956 544.0466 332.5133 550.6411 332.4015 555.5591 332.0662 557.4592 331.5074 559.2475 329.9426 561.93 329.719 563.7184 329.8308 564.6125 329.8308 567.1833 328.266 576.9074 330.9485 595.0143 327.4836 595.0143 326.5894 594.0084 325.36 591.2141 322.1186 586.0726 320.8891 584.5078 318.8772 582.943 317.8713 582.943 316.9771 584.0607 315.6359 585.402 314.8535 585.7373 313.624 585.6255 312.7298 585.7373 312.3945 586.0726 312.0592 587.1903 311.7239 587.4139 311.165 587.4139 310.2708 586.9668 309.8238 586.855 303.6763 587.4139 302.7822 587.4139 302.1116 587.1903 301.5527 587.4139 300.9938 588.4198 300.435 590.8788 300.2114 591.5494 299.3173 592.8906 297.976 594.2319 296.2994 595.0143 294.6229 594.7908 293.6169 593.673 292.611 590.5435 291.2697 589.2022 288.5872 588.308 285.793 588.308 283.2222 588.9787 280.7633 590.2081 279.7573 590.3199 279.0867 589.9846 276.2924 588.308 275.8453 588.0845 275.3982 588.4198 272.4922 589.8728 270.9274 590.3199 269.9215 590.0964 269.3626 588.8669 268.9155 587.3021 268.2449 585.9608 267.2389 584.7314 266.0095 584.0607 265.3388 584.0607 263.8858 584.2843 263.2152 584.2843 262.6563 584.0607 261.8739 583.1666 261.4268 582.943 260.868 582.943 259.9738 583.2783 259.5267 583.3901 253.1558 583.3901 250.0262 582.943 247.1201 581.7135 244.3259 579.2546 243.8788 579.031 242.8728 578.9193 242.4257 578.6957 242.2022 577.578 241.8669 577.2427 240.0785 577.0191 238.7373 577.578 237.6196 578.3604 236.6136 578.9193 233.5958 580.484 232.031 582.4959 230.3545 583.949 227.5602 584.1725 225.5483 583.5019 224.5424 583.3901 223.4246 583.8372 222.3069 584.7314 221.6363 585.5138 220.9657 586.2961 219.6244 586.855 218.5067 587.0785 215.3771 586.9668 214.3712 587.1903 212.2475 588.0845 211.2416 588.1963 209.1179 588.0845 208.4473 588.308 207.1061 588.8669 206.5472 589.2022 205.653 589.9846 204.9824 590.3199 204.5353 590.3199 203.5294 590.2081 202.8587 590.3199 201.8528 590.6552 201.2939 590.2081 200.6233 589.5375 199.8409 589.0904 199.0585 589.0904 196.9349 589.314 196.1525 589.2022 194.8112 588.6433 194.0288 588.4198 192.9111 588.5316 192.7993 589.2022 193.0229 589.9846 192.7993 590.6552 191.3463 591.4376 189.6697 591.5494 183.2988 589.9846 181.734 589.8728 179.9457 589.9846 176.2572 590.9905 173.0158 593.1142 170.6686 596.0202 169.4392 599.4851 168.7685 605.9679 166.7567 610.8858 166.7567 612.7859 166.3096 614.4625 163.6271 618.2627 162.7329 620.051 162.6211 621.9512 163.2917 623.6277 164.0741 625.1925 164.633 626.9809 164.1859 629.7751 161.1681 635.4755 161.3916 638.9404 162.2858 640.3934 163.4035 641.7347 164.1859 643.0759 163.7388 644.976 161.5034 649.6704 159.7151 653.5824 158.7091 655.8178 155.356 662.8594 151.7793 670.3481 149.3204 675.7131 145.7437 683.2018 141.8317 691.6964 141.4964 691.4728 140.4904 690.914 140.6022 690.1316 141.0493 689.1256 141.0493 688.455 140.714 688.2315 139.5963 687.5608 139.3727 687.2255 139.2609 685.6607 139.1492 684.8783 138.9256 684.2077 138.3668 683.4253 136.9138 681.7487 135.9078 679.7369 135.2372 678.1721 135.1254 677.5014 135.1254 674.5954 134.7901 673.2541 133.7842 671.354 133.5606 670.3481 133.5606 668.6715 134.7901 665.989 135.1254 664.4242 134.9019 662.8594 133.7842 660.1769 133.5606 658.6121 133.7842 657.7179 134.343 656.6002 135.1254 655.4825 134.2312 655.259 133.2253 655.259 132.1076 655.3707 131.3252 655.3707 131.1017 654.7001 131.1017 653.5824 130.8781 650.8999 131.1017 648.888 133.2253 646.7644 133.8959 644.976 133.6724 642.8524 132.89 641.1758 131.9958 639.4992 130.7663 636.9285 129.0898 634.4695 128.5309 633.9107 127.7485 633.4636 126.9661 633.4636 126.0719 633.6871 125.066 634.0224 124.7307 633.6871 124.5072 633.3518 124.2836 632.9047 123.2777 628.9927 122.607 627.4279 121.2658 625.8631 119.8128 624.6337 118.4715 624.1866 115.2301 624.5219 114.8948 624.4101 114.0007 623.8513 113.5536 623.7395 113.2183 623.963 112.3241 624.4101 111.9888 624.5219 110.9828 624.4101 110.424 624.1866 109.7534 623.8513 103.9413 617.5921 96.6761 609.8799 88.9639 601.7206 80.9164 593.1142 74.3219 586.1844 69.0686 580.5958 68.2862 579.8134 62.0271 572.9954 55.209 563.1595 50.6264 552.2059 51.9677 552.2059 54.5384 552.8766 55.7679 552.9883 57.3327 552.653 60.3505 551.2 62.0271 550.8647 63.5919 550.1941 63.3683 549.2999 62.4741 548.6293 61.2447 548.5175 60.2387 548.5175 59.7916 547.9586 59.4563 546.8409 59.0092 545.7232 57.7798 545.2761 56.662 545.4997 55.7679 544.7173 55.209 542.5936 55.0972 538.2345 54.3149 533.5402 53.6442 531.3047 52.4147 529.1811 49.7322 525.8279 49.1734 524.7102 48.7263 522.8101 48.1674 522.0277 47.2733 521.4689 43.8084 520.2394 31.5135 511.7448 28.7193 508.9505 26.5956 505.7091 25.5897 502.0207 25.0308 496.0968 24.5837 494.7556 24.6955 494.1967 25.0308 493.4143 25.3661 491.4024 25.3661 490.62 24.2484 483.2431 23.9131 482.349 23.466 481.5666 23.1307 480.7842 23.3542 478.6605 22.9072 477.9899 22.4601 477.3193 22.1248 476.4251 22.2365 475.3074 22.2365 474.9721 22.7954 472.066 22.4601 469.0482 22.4601 465.0244 22.1248 463.3479 21.5659 461.5595 20.6717 459.8829 19.4422 458.6535 17.7657 457.8711 14.4125 456.7534 12.8477 455.7474 11.6183 454.2944 11.2829 453.4002 11.9536 453.2884 12.8477 452.3943 13.5184 451.1648 13.9655 449.7118 14.0772 448.7058 14.4125 448.3705 15.1949 447.141 15.8656 445.9116 15.8656 445.2409 16.9833 444.9056 17.3186 444.0114 17.2068 441.776 17.4304 440.4348 18.6598 438.3111 18.8834 437.4169 18.9952 435.0697 18.8834 434.0638 18.3245 432.8343 17.2068 431.046 16.8715 429.9283 16.7597 428.587 16.9833 427.3575 18.3245 423.8926 19.4422 419.5336 19.8893 418.4158 19.3305 416.851 18.8834 408.58 17.7657 407.127 17.3186 405.5622 16.3127 403.9974 15.4185 403.8856 13.2948 405.2268 12.0653 405.3386 9.6064 405.0033 8.3769 405.0033 7.0356 404.2209 6.4768 402.9914 6.1415 401.5384 5.5826 400.3089 4.4649 399.0794 3.3472 398.1853 2.453 397.0675 1.7824 396.5087 1.1118 395.5028 1 394.9439 1.2235 394.385 1.7824 393.7144 2.1177 393.7144 2.9001 394.2733 3.3472 394.2733 3.6825 393.938 4.0178 393.2673 4.2414 392.932 4.5767 392.1496 4.4649 391.8143 4.4649 391.3672 4.3531 391.0319 5.3591 390.1377 7.1474 388.3494 8.3769 388.0141 10.6123 385.7787 11.73 384.3256 12.4007 383.0961 15.642 383.0961 26.8191 377.7311 28.0486 376.837 30.9547 373.0367 31.7371 371.5837 31.8488 370.6895 31.8488 369.9072 31.5135 368.007 31.7371 367.1129 33.6372 364.4304 42.5789 344.1998 43.3613 342.2997 44.479 341.0702 45.7085 340.2878 50.4029 337.9406 51.297 337.1582 51.9677 336.0405 53.1971 332.4638 54.8737 329.2224 57.4444 322.4044 58.6739 317.4865 59.2328 316.0334 60.127 314.804 60.7976 314.3569 62.5859 313.4627 63.2565 312.6803 63.4801 311.8979 63.033 307.3153 63.1448 306.5329 63.4801 305.7505 64.5978 303.9622 66.0508 300.1619 67.8392 298.7089 68.9569 297.703 74.9925 294.3498 78.681 291.5556 78.9045 290.9967 79.5751 289.7672 80.0222 289.3201 80.5811 289.2084 82.0341 289.0966 82.3694 289.0966 82.4812 287.9789 81.0282 286.6376 81.2517 285.4081 85.499 279.7078 86.0579 278.5901 88.7404 279.3725 91.6464 279.596 97.235 278.8136 100.6999 279.149 104.7237 282.8374 107.6297 283.8433 110.424 283.7316 120.7069 281.2726 122.0482 280.7138 124.6189 279.149 125.7366 278.0312 127.4132 275.684 128.5309 274.4546 129.8722 273.7839 131.5487 273.2251 136.4667 272.5545 139.1492 271.6603 140.9375 271.6603 142.6141 271.4367 144.1789 270.5426 146.8614 268.4189 148.538 267.8601 155.356 266.8541 156.2502 266.1835 156.5855 265.0658 156.5855 259.8125 157.0326 258.136 158.1503 257.13 159.0444 257.13 159.7151 257.4653 160.4975 257.6889 161.6152 257.4653 162.0623 256.9065 163.0682 254.7828 163.5153 254.0004 164.7448 252.9945 166.086 252.2121 169.2156 251.3179 169.3274 251.9886 169.3274 252.6592 169.3274 253.4416 168.8803 255.7888 169.2156 257.2418 170.1098 258.4713 171.3393 259.3655 172.1217 259.7008 172.9041 259.9243 173.5747 260.1479 174.2453 260.9303 174.5806 261.9362 174.4689 262.8304 174.1336 263.6128 173.91 264.5069 174.2453 266.2953 175.1395 267.1894 178.1573 267.9718 179.9457 268.9778 181.734 270.319 184.64 273.5604 186.3166 276.4664 187.4343 277.1371 189.2227 276.9135 189.7815 276.69 189.8933 276.4664 191.5699 275.1252 191.7934 275.1252 192.6876 275.237 192.9111 275.1252 193.1347 274.4546 192.7993 274.1193 192.464 273.7839 192.464 273.2251 193.0229 271.6603 193.8053 270.6543 195.0348 269.9837 198.0526 269.0895 201.4057 268.5307 202.8587 268.7542 203.4176 267.7483 204.0882 267.3012 204.9824 267.1894 207.3296 267.6365 207.5531 267.3012 207.5531 266.6306 207.8884 265.8482 208.8944 264.954 210.4592 265.5129 211.3534 265.96 211.8004 266.407 212.2475 266.407 213.3652 265.7364 214.8183 264.2834 217.6125 260.9303 218.9538 259.589 219.6244 259.589 220.295 259.7008 220.7421 259.3655 220.9657 257.9124 221.5245 257.0183 222.5305 256.0123 222.5305 255.9006 223.8717 255.0064 234.3782 251.3179 235.943 250.312 236.949 249.0825 240.6374 250.2002 241.5316 249.6414 242.2022 247.853 243.5435 246.9589 245.1083 246.5118 247.9025 246.2882 249.5791 245.7294 251.0321 245.0587 252.5969 242.8233 254.1617 242.2645 255.8383 242.1527 257.1795 242.2645 267.9096 244.0528 271.1509 244.1646 274.1688 243.7175 280.4279 241.3703 287.6931 239.582 321.6715 238.6878 328.0425 237.3465 330.2779 233.9934 330.2779 230.1932 331.8427 227.1754 334.5252 224.8282 337.7666 223.1516 342.3492 221.5868 343.6904 220.9162 345.4788 219.3514 348.7201 214.4334 351.2909 211.9745 352.2968 210.5215 352.9674 208.6213 353.8616 207.1683 361.5738 198.2266 364.8152 191.8557 365.5976 191.4086 366.38 190.9615 367.1624 189.732 369.6213 187.9437 368.0565 186.1553 365.7094 184.367 364.4799 183.6964 363.8092 182.4669 354.5322 178.4431 353.5263 177.7725 353.191 176.7666 352.9674 175.4253 352.4086 174.6429 351.1791 175.3135 349.8378 174.3076 349.8378 173.0781 351.6262 170.3956 352.2968 170.7309 353.0792 170.7309 353.6381 170.3956 353.8616 169.6132 353.9734 168.8308 354.4205 168.6073 355.0911 168.4955 356.2088 167.7131 357.7736 167.266 358.1089 166.9307 358.3325 166.3718 358.7795 165.813 360.009 164.807 361.6856 163.5776 364.7034 162.1245 367.833 161.2304 369.8449 161.7892 370.4037 161.7892 371.0744 161.6774 373.0862 162.2363 373.5333 162.1245 373.9804 161.2304 374.9864 160.7833 378.116 160.6715 379.6807 160.2244 380.4631 160.2244 381.4691 160.6715 382.2515 161.3421 383.0339 161.6774 383.7045 160.7833 384.5987 161.3421 385.9399 161.901 387.393 162.2363 388.7342 162.3481 389.7402 162.1245 392.758 161.0068 393.4286 161.3421 399.4642 161.3421 399.7996 161.4539 400.1349 161.6774 400.582 161.6774 401.3644 161.3421 403.1527 161.3421 405.3881 160.448 407.7353 159.8891 409.859 161.3421 411.0884 160.7833 414.4416 160.7833 415.224 160.448 415.5593 160.1127 417.4594 159.3303 418.13 159.1067 419.0242 159.1067 421.0361 158.5479 422.7127 158.3243 429.1954 158.7714 430.2013 158.3243 431.2073 156.9831 432.325 157.4301 432.5485 157.4301 433.4427 157.2066 435.4546 155.8653 436.0134 155.7536 436.684 155.8653 437.2429 155.7536 437.5782 155.0829 437.5782 154.6359 437.8018 154.1888 438.0253 153.8535 438.3606 153.7417 438.9195 154.077 439.2548 155.1947 439.7019 155.3065 440.149 154.9712 440.149 154.6359 440.0372 154.1888 440.2607 153.7417 442.4961 151.8416 443.1668 151.5063 443.8374 151.618 444.8433 152.0651 445.514 152.0651 445.6257 151.8416 445.6257 151.2827 445.7375 150.7239 446.4081 150.5003 446.967 150.9474 447.6376 151.8416 448.5318 152.8475 449.873 153.1828 450.9908 152.8475 453.2262 151.2827 454.3439 150.9474 455.2381 151.171 456.1322 151.8416 457.8088 153.1828 459.3736 152.8475 465.8563 153.1828 467.3094 152.9593 467.7564 152.624 469.2095 151.618 469.9919 151.171 470.7743 151.0592 471.6684 151.5063 473.2332 149.8297 474.2392 147.9296 475.3569 146.253 477.3688 145.5824 477.8158 144.8 476.9217 142.8999 476.4746 140.9998 477.8158 140.2174 478.8218 139.9938 479.3806 139.5468 479.6042 138.7644 479.716 137.7584 480.0513 137.0878 480.7219 137.1996 482.3985 138.0937 482.5102 137.982 483.9633 138.0937 485.3045 138.5408 485.8634 138.5408 489.7754 138.5408 488.7694 135.4112 492.0108 133.7347 495.4757 132.6169 496.2581 132.0581 496.8169 132.6169 497.4876 131.9463 497.8229 131.0521 498.27 130.2697 499.1641 129.9344 499.4994 129.7109 499.9465 129.0403 500.2818 128.8167 500.6172 129.0403 501.176 129.3756 501.7349 129.5991 502.182 129.4873 502.629 127.9226 502.7408 125.9107 503.2997 124.2341 505.088 123.4517 505.8704 122.7811 508.8882 119.4279 509.5589 118.3102 509.8942 117.5278 510.5648 116.8572 512.2414 115.963 512.5767 115.1806 512.6884 114.51 513.1355 114.2865 514.365 114.7336 514.2532 113.7276 514.1415 113.5041 513.8062 113.1688 513.8062 112.6099 514.9239 112.2746 515.371 111.2686 515.4827 108.5861 515.7063 107.3567 516.824 105.233 517.0475 103.78 517.2711 103.4447 517.7182 102.9976 518.1652 102.5505 518.6123 102.4387 518.7241 102.327 518.8359 102.1034 518.9476 101.8799 519.3947 101.7681 519.8418 101.9916 520.5124 102.774 520.8477 102.8858 521.4066 102.6623 521.9655 102.2152 522.9714 101.321 523.1949 101.2092 523.5303 101.321 523.8656 101.321 523.9773 100.9857 523.8656 99.9798 523.9773 99.6444 525.095 96.7384 525.9892 95.3971 530.2365 92.6029 530.9072 92.3793 531.1307 91.1498 531.6895 90.0321 535.7133 85.4495 536.831 84.4436 537.837 85.226 541.0783 86.4554 542.0843 86.679 544.7668 85.5613 547.3375 82.9905 549.3494 79.8609 553.4849 70.4722 555.6086 67.6779 558.0675 66.1131 558.8499 66.2249 559.7441 66.5602 560.7501 66.6719 561.5325 66.3366 561.8678 66.5602 564.3267 65.7778 564.7738 65.5542 566.7857 64.9954 567.7916 63.7659 568.3505 62.2011 569.2447 60.6363 569.9153 60.4128 570.8095 60.301 571.5919 60.0774 571.9272 59.295 571.9272 58.6244 571.5919 57.5067 571.4801 56.6125 571.7036 54.936 574.1626 50.9122 573.6037 50.3534 573.492 49.7945 573.6037 49.2356 573.6037 48.7886 573.1567 48.0062 571.7036 46.4414 571.4801 45.7707 571.2565 44.4295 570.5859 41.4117 570.3624 39.7351 570.5859 38.2821 571.2565 35.9349 571.4801 34.3701 571.9272 33.1406 573.0449 32.3582 574.2744 32.0229 575.5039 31.9111 575.9509 31.6876 576.2862 31.1287 576.7333 30.5699 577.6275 30.2345 578.1864 30.2345 579.7512 29.7875 580.5336 29.6757 582.0983 30.4581 582.8807 30.6816 583.2161 30.011 583.5514 29.8992 585.3397 28.1109 587.6869 26.5461 589.0282 25.8755 593.8343 24.646 594.6167 23.7518 593.9461 22.0752 594.3932 21.0693 594.952 19.3927 595.8462 17.9397 597.2992 17.2691 603.782 17.9397 605.0114 17.7162 607.2469 18.8339 608.2528 17.2691 609.147 14.6983 611.3824 12.91 612.1648 11.7923 613.1707 11.0099 614.4002 11.5688 615.0708 11.5688 615.8532 11.0099 617.3063 9.6686 618.3122 9.1098 619.877 8.4392 621.6653 7.9921 621.8889 7.9921 624.0125 7.6568 625.242 7.2097 626.1362 6.6508 627.5892 4.9743 628.2598 4.4154 629.3776 4.3036 630.607 4.5272 631.7248 4.8625 632.6189 4.9743 633.4013 4.3036 635.0779 5.8684 636.7545 5.9802 638.431 5.5331 640.3311 5.3096 640.89 5.5331 642.4548 6.2037 643.2372 6.3155 645.9197 6.3155 646.7021 6.3155 649.4964 7.0979 651.5083 8.7745 656.2026 10.3393 660.5617 10.6746Z" />
</svg>