<?xml version="1.0" encoding="utf-8"?>
<svg xmlns="http://www.w3.org/2000/svg" viewBox="0 0 881 1024" style="stroke-width:0.25px;stroke-linejoin:round;stroke:#444;fill:#ddd" fill-rule="evenodd">
  <path class="CG" d="M874.9076 30.9369L875.9135 34.1782 876.8077 48.7085 875.4664 65.5859 874.3487 68.2684 874.1252 69.6097 873.3428 71.5098 871.5545 73.0746 867.4189 75.1982 865.0717 76.763 863.5069 78.8867 859.7067 90.3991 857.8066 93.3052 857.3595 94.4229 856.9124 96.9936 856.4653 98.2231 854.3417 101.2409 851.5474 107.1648 851.1003 108.7296 850.765 111.8592 847.7472 119.7949 838.9173 134.884 838.582 135.89 837.3525 136.2253 830.6462 142.4845 829.1932 144.3846 828.299 146.2847 826.9578 153.1028 826.1754 155.3382 825.1694 157.5736 823.9399 159.6972 822.2634 163.721 821.1457 165.5094 819.1338 166.0682 818.6867 167.2977 815.8924 170.6508 814.9982 171.9921 810.5274 184.2869 810.5274 185.9635 811.198 189.5402 811.4216 193.1168 810.8627 204.1822 811.5333 209.5472 811.5333 211.4473 811.198 213.4592 809.9685 217.2594 809.745 219.2713 810.6392 252.6909 810.4156 255.0381 803.4858 270.1272 802.8152 272.3626 802.2563 276.7217 798.2326 289.6871 797.7855 296.9523 797.0031 299.2994 792.1969 307.347 789.5144 310.253 787.279 314.6121 786.6084 317.2946 787.9496 325.3421 787.8378 334.6191 791.3028 349.3729 791.3028 352.6143 789.5144 361.556 789.6262 364.7974 790.2968 367.7034 792.5322 373.292 794.3206 374.1861 795.5501 376.0862 796.2207 378.3217 796.4442 380.3336 795.7736 391.6224 795.103 393.5226 785.0436 407.4939 775.9901 432.4189 773.8664 436.6662 769.0603 458.2381 768.725 461.2559 769.0603 464.1619 771.9663 475.7861 772.9723 496.352 772.0781 497.5815 770.4015 499.8169 763.0246 506.7468 762.354 507.6409 761.9069 508.5351 761.6834 510.2117 761.4598 510.6587 761.1245 511.1058 759.6715 512.1118 758.2185 513.7883 755.7595 515.5767 749.2768 523.5124 733.6288 542.29 730.611 545.0843 728.2638 547.9903 727.3696 548.7727 724.24 550.2257 723.9047 550.8964 721.5575 553.5789 720.3281 554.2495 714.2924 556.0378 708.3685 556.8202 706.1331 557.4909 698.4209 560.6205 692.8323 562.1853 689.1439 562.8559 688.3615 563.0794 687.132 563.9736 686.4614 564.1971 686.1261 564.9795 683.3318 568.1091 678.8609 572.1329 675.1725 576.3802 669.8075 580.7393 667.125 582.4158 666.3426 583.0865 665.7837 583.9806 664.5542 587.222 661.8717 592.0282 660.0834 596.2755 658.1833 599.0697 653.8242 607.6761 650.024 612.7058 647.3415 618.0708 645.7767 620.5298 643.4295 623.9947 642.6471 626.0066 641.9765 627.9067 641.8647 629.248 641.9765 633.16 641.1941 636.6249 639.741 639.5309 630.464 651.714 630.2405 652.0493 629.5699 653.5023 629.2345 655.0671 628.5639 655.4024 626.4403 656.9672 624.6519 657.7496 624.0931 657.9732 623.0871 658.9791 621.2988 661.2145 613.9219 668.4796 609.004 672.1681 602.5212 678.3155 599.2799 680.5509 596.3738 683.2334 593.4678 686.9219 592.1265 689.3809 591.2323 691.9516 591.3441 694.6341 591.5677 695.5283 591.5677 696.3107 590.0029 701.5639 589.7793 703.464 590.2264 705.2524 591.2323 706.8172 591.5677 707.4878 591.7912 708.4937 591.7912 714.1941 595.7032 742.1369 593.2442 759.2378 590.4499 767.6207 590.2264 769.1855 590.0029 770.862 590.897 777.6801 591.3441 781.8156 590.897 787.6277 591.5677 794.2222 591.0088 800.4814 591.5677 802.3815 592.6854 804.6169 592.6854 807.2994 591.903 812.3292 592.5736 814.7881 593.9149 816.1294 595.2561 817.1353 595.9267 818.3648 595.7032 821.0473 595.1443 823.171 593.5795 826.7476 587.8792 836.6953 585.532 842.9545 582.8495 847.9842 575.6961 856.8141 570.89 866.4264 570.1076 868.9971 568.431 870.6737 566.4191 876.2623 562.8425 882.5215 562.0601 883.4156 561.3894 884.6451 559.2658 891.4631 556.4715 894.1457 555.8009 894.7045 551.33 897.0517 546.1886 898.6165 540.9353 899.3989 535.9056 900.1813 519.1399 905.5463 517.0163 906.4405 515.2279 907.8935 513.7749 910.0172 510.1982 921.5296 509.5276 922.5355 506.9569 925.218 506.5098 926.0004 505.5039 926.4475 502.5978 927.9006 498.127 929.5771 485.1615 936.1716 482.9261 937.6246 479.6847 938.9659 476.8904 940.6425 475.6609 942.8779 474.9903 944.5545 470.743 950.7019 464.5956 959.42 462.0249 961.7672 455.7657 964.8968 454.8715 966.1263 454.0891 967.6911 445.1474 976.521 435.6469 992.5043 434.7527 994.4044 433.5232 996.1927 431.7349 997.6458 426.2581 999.993 418.5459 1004.9109 415.081 1006.0286 410.6101 1006.4757 409.3806 1006.0286 405.6922 1003.7932 404.2392 1003.3461 403.7921 1003.0108 402.7861 1001.446 402.2273 1000.8871 401.3331 1000.8871 398.7624 1000.9989 398.3153 1000.5518 397.3094 999.2106 395.1857 999.2106 392.9503 999.7694 391.4972 1000.5518 389.1501 1003.0108 387.697 1003.7932 385.4616 1004.1285 383.4497 1004.4638 383.0026 1000.8871 384.9028 991.8337 384.4557 990.6042 383.785 989.5982 383.338 988.4805 383.2262 987.1393 383.5615 986.0216 384.4557 984.0097 384.6792 982.892 384.2321 979.9859 382.8909 978.0858 381.2143 976.4092 379.426 974.2856 378.42 969.8147 377.5259 967.244 377.6376 966.3498 378.6436 964.5615 380.4319 962.8849 384.9028 961.0966 386.244 959.6436 387.5853 957.8552 389.4854 955.6198 391.1619 953.3844 391.4972 951.149 390.7149 950.3666 386.6911 947.7958 384.4557 945.1133 382.5556 942.2073 381.7732 940.5307 381.7732 939.9718 382.1085 939.3012 382.6673 937.6246 382.7791 936.1716 382.8909 934.8304 382.5556 933.9362 381.8849 933.3773 379.7613 933.6009 374.7316 936.2834 369.4783 937.5129 367.0194 939.1894 362.6603 943.1014 358.3012 945.1133 353.8304 946.5663 343.6592 947.7958 339.3001 949.5842 335.8352 954.1668 335.7234 954.5021 335.3881 954.7256 333.5998 956.0669 331.5879 958.4141 330.3584 959.1965 329.2407 959.1965 325.8876 958.3023 325.7758 958.1905 322.4227 958.4141 321.4167 958.1905 320.1872 957.0728 318.5107 953.9432 317.393 952.602 314.8222 950.8136 312.475 950.5901 305.0981 953.1608 303.7569 953.9432 303.3098 955.2845 304.5393 966.5734 304.0922 968.8088 302.3039 973.5032 301.8568 976.0739 303.4216 981.1036 302.6392 982.1096 301.745 981.9978 300.8508 981.6625 299.8449 982.2213 299.3978 983.4508 299.7331 985.5745 299.0625 986.4686 298.0565 986.5804 295.374 985.798 294.2563 985.6862 291.9091 987.3628 289.3384 992.0572 287.9971 992.3925 286.9912 992.7278 285.5382 992.169 283.191 989.71 281.738 989.0394 280.3967 989.2629 276.5965 991.4983 277.826 992.5043 278.273 993.5102 277.9377 994.4044 276.5965 995.075 270.6726 999.4341 267.4312 1003.3461 266.2018 1004.352 263.7428 999.3223 262.9604 995.1868 262.2898 993.8455 261.1721 992.7278 259.4955 991.8337 252.4539 989.2629 250.3303 987.9217 244.8535 983.1155 241.7239 981.1036 240.6062 979.9859 239.1531 976.1857 237.1413 973.0561 236.1353 971.3795 233.6763 968.3617 230.7703 968.697 228.8702 971.2678 229.0937 975.1798 223.7287 972.4972 216.1283 963.332 211.5457 959.6436 209.1985 957.0728 207.0748 951.4843 205.3982 949.1371 203.6099 948.1311 202.2686 948.2429 200.8156 948.9135 199.0273 949.2488 197.4625 948.9135 195.3388 947.7958 194.4447 947.3487 192.8799 946.6781 190.0856 948.3547 188.7443 951.0372 187.8502 953.8315 186.2854 955.6198 184.1617 956.8493 182.2616 958.4141 180.585 960.3142 178.1261 965.0086 176.7848 966.3498 174.9965 967.0205 162.1428 969.3677 154.207 971.9384 152.4187 972.1619 149.2891 971.7149 148.1714 973.3914 148.2832 978.3094 147.7243 980.7683 142.9182 990.3806 141.6887 991.8337 140.0121 992.5043 136.1001 992.9514 134.3118 993.2867 132.6352 993.9573 131.6293 994.8515 130.1762 992.169 129.0585 990.8277 128.0526 990.1571 126.5996 990.1571 126.0407 990.716 122.5758 1002.6755 119.4462 1007.5934 106.369 1018.7705 105.363 1020 103.5747 1018.4352 102.0099 1016.5351 99.3274 1012.176 94.9683 1006.811 92.174 1004.0167 91.0563 1000.8871 84.5736 994.0691 83.3441 992.6161 83.2323 991.9454 83.7912 991.163 84.4618 991.2748 86.0266 993.0631 86.5855 992.8396 87.1443 991.3866 86.809 988.9276 83.7912 984.9039 78.8733 980.433 78.3144 978.98 78.4262 977.8623 81.1087 977.8623 83.3441 975.4033 83.903 972.8326 81.7793 968.3617 68.5903 955.1727 56.519 944.778 45.9008 935.3892 40.424 931.9243 34.6119 926.8946 32.4882 923.3179 31.9294 922.6473 30.3646 920.0766 30.0293 918.9589 30.2528 916.3881 30.0293 915.0469 29.5822 914.1527 19.411 905.9934 8.0103 898.5047 4.0983 895.5987 1.1923 893.6986 3.0924 890.3454 10.8046 869.4442 12.7047 865.8675 15.7226 863.185 19.6345 860.6143 23.0994 857.82 26.8997 855.4728 31.7058 854.4669 36.0649 853.0139 38.7474 849.6607 40.8711 846.084 44.1124 843.9604 49.9245 844.7428 54.2836 848.0959 63.4488 863.0733 65.4607 865.0851 67.9197 865.9793 74.2906 865.1969 76.6378 865.4205 83.3441 867.3206 85.4678 867.4323 85.8031 867.3206 87.815 866.5382 90.2739 864.6381 92.3976 862.1791 93.2917 859.4966 92.5094 857.0376 90.2739 855.9199 87.4796 855.0257 85.0207 853.5727 83.903 851.1138 84.2383 848.4312 90.8328 832.6715 92.3976 829.8772 97.4273 826.1888 98.9921 823.618 97.7626 819.9296 93.2917 817.8059 87.815 816.2411 83.5677 814.2293 78.8733 810.429 76.4143 808.976 69.8198 806.1817 68.9256 805.5111 67.9197 804.5052 67.6961 804.0581 67.9197 803.3875 68.0315 795.3399 68.5903 793.3281 70.1551 790.422 71.3846 789.6396 72.9494 789.7514 75.6319 789.5278 78.538 787.7395 78.538 785.2805 76.7496 782.598 67.9197 773.0975 63.8959 767.2854 61.9958 765.1617 59.6486 764.3793 56.4073 765.3853 51.7129 768.7384 49.701 769.0737 49.1421 766.2794 50.2598 761.9204 50.4834 761.0262 58.978 747.1666 59.9839 744.2605 60.5428 741.8015 60.5428 739.4543 59.9839 736.4365 58.8662 733.8658 55.9602 729.0596 55.066 726.7124 54.9542 724.5888 55.8484 718.2178 55.4013 715.6471 52.9424 708.829 53.8365 706.5936 54.0601 706.4818 58.4191 706.5936 64.2312 708.382 65.796 709.1644 66.5784 710.1703 67.0255 711.0645 67.9197 712.0704 71.8317 715.2 73.9553 716.3177 75.8554 716.4295 77.8673 715.3118 81.7793 711.7351 84.3501 710.7292 88.5974 709.835 93.4035 708.2702 97.092 706.4818 98.3215 707.1525 100.4451 708.7173 104.3571 713.6352 107.9338 716.0942 111.5105 716.4295 157.6719 706.5936 156.3307 704.0229 157.2249 700.2227 158.7897 696.1989 159.5721 692.8458 158.7897 688.0396 158.9014 686.363 159.7956 684.5747 161.9193 681.3333 162.3663 679.3215 157.8955 677.1978 155.4365 673.5094 154.4306 668.815 153.4246 656.2966 153.8717 654.7318 155.213 654.9553 156.5542 656.4084 158.7897 658.7556 160.8015 659.4262 162.3663 658.6438 162.8134 657.4143 162.9252 656.1848 163.1487 655.1789 163.8194 653.7259 164.3782 652.9435 165.1606 652.2728 170.8609 648.4726 172.0904 648.0255 177.7908 647.802 182.7087 649.9256 190.4209 655.4024 190.9798 655.8495 195.8977 657.4143 197.7978 658.7556 199.1391 661.5498 201.7098 670.0444 202.8275 672.5034 203.4981 673.3976 205.2865 675.1859 205.8453 675.8565 206.2924 678.5391 206.0689 678.5391 206.0689 679.0979 205.9571 679.7685 206.1806 680.3274 208.4161 680.998 208.3043 681.6686 207.8572 682.3393 207.6337 682.8981 207.0748 683.7923 206.963 684.5747 207.1866 685.3571 208.7514 686.8101 209.1985 687.5925 209.3102 688.822 209.7573 690.9457 211.4339 690.8339 214.2282 689.3809 215.2341 690.3868 217.4695 693.9635 218.4755 695.3047 219.1461 698.4343 219.3696 699.3285 220.2638 700.2227 220.9344 700.2227 221.4933 700.3344 221.8286 701.6757 220.8227 702.6816 220.152 703.6876 219.9285 704.8053 219.8167 705.8112 219.4814 706.8172 219.0343 707.8231 218.4755 708.6055 217.246 709.7232 216.5754 710.8409 216.9107 711.5116 218.4755 711.3998 219.8167 710.0585 221.9404 707.9349 223.5052 707.4878 226.4112 708.0466 233.8999 711.3998 236.2471 712.0704 237.5883 711.7351 239.8238 710.5056 241.165 710.2821 242.2827 710.5056 262.5133 718.1061 264.637 718.3296 266.8724 717.7707 269.3314 718.2178 270.002 718.2178 271.5668 717.659 272.3492 717.8825 273.3551 719.3355 273.914 719.4473 275.1435 718.7767 275.7023 717.8825 276.0376 716.7648 276.5965 715.6471 277.826 714.5294 281.6262 711.9586 282.5204 710.9527 284.3087 708.829 285.4264 707.8231 286.7677 707.0407 289.5619 706.2583 290.7914 705.3641 291.2385 704.3582 291.5738 701.8992 292.3562 700.6697 301.1861 692.1751 302.1921 690.8339 302.6392 689.6044 302.7509 687.369 303.0862 686.0277 304.3157 683.6805 306.7747 680.1039 306.9982 679.4332 307.3336 679.6568 308.563 680.4392 310.2396 682.004 311.5809 684.2394 312.5868 686.6983 313.7045 691.5045 316.2752 696.8695 317.7283 698.9932 319.8519 701.2286 320.6343 702.3463 321.0814 705.5877 321.9756 706.4818 323.2051 707.0407 324.3228 707.8231 325.9993 710.0585 325.4405 710.8409 324.0992 711.6233 322.4227 715.2 319.9637 716.4295 319.1813 717.4354 319.0695 721.9063 318.9578 722.4651 320.8579 724.1417 323.5404 725.0359 326.3347 725.1476 328.7936 724.7006 330.8055 723.4711 331.9232 722.9122 333.0409 722.9122 334.0469 723.6946 334.4939 725.8183 335.1646 726.4889 336.0587 726.6007 341.4238 724.9241 342.2062 724.7006 343.3239 724.8123 345.1122 725.93 346.2299 726.3771 347.3476 726.1536 348.0183 725.3712 348.5771 723.8064 349.2477 721.6827 350.2537 720.6768 351.3714 719.7826 352.1538 718.7767 352.1538 715.7589 352.7127 714.5294 353.6068 713.6352 355.8422 711.7351 356.96 710.9527 358.0777 710.5056 363.6662 709.1644 364.1133 709.4997 363.2191 705.8112 354.501 698.3226 354.0539 694.2988 355.6187 693.0693 359.6425 691.6163 361.2073 689.9397 361.2073 689.0455 360.5366 687.0337 360.6484 685.916 361.2073 685.3571 363.2191 684.5747 364.0015 683.7923 364.5604 682.1157 365.231 676.0801 366.0134 673.7329 366.1252 672.6152 365.5663 671.6092 364.6722 670.9386 364.0015 670.268 363.8898 669.5974 364.5604 668.4796 364.4486 667.1384 364.7839 666.1325 365.3428 665.2383 366.237 664.3441 379.7613 659.0909 379.9848 658.9791 383.1144 657.3025 383.8968 655.7377 383.0026 650.5963 383.1144 649.7021 383.785 646.6843 384.1204 637.4073 384.9028 634.8365 386.3558 633.2717 389.0383 631.7069 388.1441 630.9245 385.6851 630.4774 383.785 629.9186 382.332 625.1124 380.0966 623.8829 379.3142 622.9888 380.3201 622.0946 382.6673 621.3122 383.785 620.7534 384.9028 619.8592 385.6851 618.7415 386.1322 617.4002 386.9146 616.3943 390.7149 615.6119 390.7149 613.9353 389.3736 611.8117 387.8088 610.2469 389.3736 606.8937 389.4854 604.0994 389.9325 602.9817 391.2737 601.7523 392.7267 600.7463 393.6209 599.4051 392.9503 597.0579 388.8147 594.3754 387.1382 592.587 386.4675 590.3516 386.8029 589.0103 387.5853 588.2279 388.5912 587.4455 389.3736 586.5514 390.0442 585.3219 390.4913 584.2042 390.9384 581.5217 391.0502 577.945 390.8266 576.8273 389.9325 575.3743 387.9206 573.4741 387.4735 572.9153 386.6911 571.574 386.6911 570.5681 387.2499 568.5562 387.3617 567.5503 387.0264 566.209 385.7969 563.6383 382.4438 554.5848 382.4438 552.9083 383.6733 550.4493 384.2321 545.4196 384.9028 542.7371 386.6911 539.831 388.703 537.5956 390.0442 535.1366 389.4854 531.56 388.703 528.6539 388.703 525.7479 389.3736 522.8418 394.068 512.6706 394.8504 508.8704 393.8444 505.4055 391.1619 499.8169 389.7089 498.2521 385.0145 495.1226 382.4438 491.6576 378.5318 489.1987 374.1727 487.1868 370.9314 486.2926 368.9195 486.6279 367.1311 487.4103 365.3428 488.081 363.4427 487.6339 361.319 486.7397 359.3072 486.7397 357.407 487.4103 355.3952 488.4163 355.2834 484.0572 354.3892 479.251 352.9362 474.6684 351.0361 470.6447 347.9065 467.7386 343.6592 465.615 339.0766 464.9443 334.8293 466.062 333.9351 464.9443 333.0409 464.1619 331.9232 463.7149 327.7877 463.156 326.8935 463.4913 326.4464 464.2737 326.1111 465.0561 325.5523 465.615 324.0992 466.1738 323.3168 466.2856 322.6462 465.8385 317.2812 459.3558 317.393 456.1144 318.6224 453.2084 323.8757 446.2785 325.3287 444.2667 326.4464 443.149 327.6759 441.6959 327.5641 440.4664 327.0053 439.1252 326.7817 437.4486 327.2288 436.3309 328.9054 434.2073 329.0172 432.9778 328.123 431.5248 326.7817 431.3012 325.4405 431.1894 324.6581 430.407 324.0992 422.0242 323.5404 419.2299 322.4227 415.6532 321.8638 412.6354 322.4227 409.9529 326.3347 404.029 330.4702 394.752 332.9292 392.1813 341.5355 387.3751 343.771 384.9162 344.218 382.4572 343.4356 380.11 342.2062 377.651 345.6711 372.7331 351.4832 371.9507 357.9659 372.7331 363.778 372.3978 365.3428 371.8389 366.0134 371.3919 366.4605 370.7212 375.0669 363.2326 375.8493 360.7736 376.1846 354.8497 379.5377 349.9318 384.9028 345.3492 388.9265 340.543 388.1441 335.178 387.8088 333.725 388.5912 332.8308 390.0442 331.9366 391.0502 330.9307 391.2737 329.2541 390.3795 328.36 387.5853 327.0187 385.4616 325.0068 383.4497 322.6596 381.8849 320.0889 380.5437 317.4064 378.7553 311.4825 377.1905 309.1353 371.602 306.5646 369.8136 304.1056 368.8077 301.0878 368.9195 292.3696 368.5842 289.24 366.9076 282.0867 366.237 280.7454 364.8957 279.7395 363.6662 279.1806 362.6603 278.51 362.4367 277.9512 362.2132 277.2805 360.8719 277.057 359.9778 276.3864 359.3072 275.604 358.3012 274.9333 353.7186 273.7039 351.3714 273.4803 349.2477 273.9274 345.1122 275.604 342.6532 275.3804 340.7531 274.1509 339.0766 272.4744 336.9529 271.1331 334.941 270.686 313.0339 268.6741 311.3573 269.1212 311.2455 269.6801 310.1278 272.5861 308.7866 275.3804 308.3395 275.7157 307.11 276.1628 306.7747 276.051 305.4334 275.3804 304.7628 275.2686 303.9804 275.604 302.6392 276.6099 301.8568 277.057 299.7331 277.3923 298.6154 277.5041 297.6095 277.3923 295.2623 277.6158 293.5857 278.7336 292.1327 279.963 287.8854 281.6396 285.3146 285.1045 283.7498 286.2222 279.8378 287.0046 276.3729 287.0046 272.7963 286.334 268.6607 284.881 266.9842 284.6574 264.4134 284.9927 262.178 285.5516 261.1721 286.4458 260.5014 288.5694 258.4895 289.0165 256.3659 289.3518 254.2422 292.0343 252.1186 292.9285 249.6596 293.3756 245.6359 293.152 243.2887 293.4873 242.0592 293.3756 241.7239 291.699 240.6062 290.9166 239.2649 290.3578 238.0354 289.3518 240.2708 289.1283 241.0532 287.6752 241.5003 286.1105 242.5063 285.3281 244.0711 285.1045 246.0829 284.4339 247.7595 283.3162 248.8772 280.969 249.5479 280.5219 249.7714 279.963 248.7655 278.51 248.4301 277.7276 248.4301 276.8334 248.4301 275.9393 248.3184 270.3507 248.4301 269.4565 246.53 268.2271 244.4064 262.6385 242.0592 261.409 242.7298 259.7325 242.618 258.1677 241.8356 256.8264 240.4944 255.8205 239.712 256.6029 237.5883 253.6968 235.6882 250.3437 237.5883 247.9965 238.0354 245.2022 237.3648 239.949 237.7001 237.49 238.5943 235.2546 238.9296 233.2427 238.0354 231.2308 239.4884 230.3366 240.7179 228.8836 241.6121 227.0953 242.7298 222.848 242.9534 220.9479 242.5063 219.6066 241.8356 218.7124 240.9415 216.5888 239.3767 214.5769 239.9355 214.018 241.2768 213.571 242.0592 211.7826 242.8416 210.4414 243.624 209.5472 244.4064 208.7648 244.9652 207.9824 245.3006 206.7529 244.6299 204.6293 244.6299 203.6233 245.6359 203.1762 246.3065 202.7292 248.4301 200.4937 249.1008 199.9349 253.2363 197.5877 254.4658 194.9052 254.9129 191.105 254.8011 184.1751 274.8081 184.2869 292.6915 184.5105 297.6095 184.5105 316.387 184.6222 337.1765 184.8458 355.7305 185.0693 367.9135 185.1811 369.0312 184.9575 374.0609 183.0574 381.4378 184.0634 383.338 185.0693 385.5734 187.0812 387.2499 187.5283 387.9206 187.3047 390.2678 185.8517 399.433 183.8398 400.4389 183.5045 400.886 182.4986 400.5507 181.3809 400.5507 180.3749 401.6684 179.369 402.2273 178.5866 405.2451 179.369 409.0453 183.7281 411.8396 184.9575 410.8337 186.7459 411.9514 187.3047 414.9692 187.193 416.6458 188.1989 418.8812 190.5461 420.6695 191.3285 419.8871 188.4224 420.6695 187.9754 423.7991 189.6519 422.1226 190.9932 421.4519 191.3285 422.5696 191.6638 423.7991 191.552 424.8051 191.3285 425.3639 191.3285 425.5875 192.1109 425.4757 194.6816 425.811 195.2405 432.9644 194.4581 434.6409 194.011 435.5351 193.0051 435.7586 191.552 435.7586 190.099 436.541 189.4284 438.2176 190.9932 439.7824 193.3404 440.1177 194.4581 442.3531 196.0229 441.1237 199.2642 440.6766 202.1703 445.2592 202.5056 447.8299 202.1703 448.8359 201.6114 449.8418 198.8172 450.9595 199.0407 456.4363 203.3998 458.2246 203.9586 460.4601 203.1762 461.9131 205.2999 463.8132 204.741 465.7133 202.7292 466.831 200.9408 467.6134 200.9408 469.29 201.4997 470.8548 198.1465 474.5432 199.4878 476.108 198.8172 477.8964 198.2583 480.3553 199.2642 480.9142 199.9349 481.5848 201.7232 482.0319 202.5056 482.7025 202.8409 486.6145 204.2939 487.5087 205.0763 488.1793 205.9705 488.4029 206.7529 488.2911 208.3177 488.0675 208.9883 488.2911 209.4354 489.1853 210.4414 489.7441 210.5531 492.4266 211.7826 492.4266 212.0062 493.7679 211.7826 496.0033 210.6649 498.3505 209.8825 504.2744 206.4176 509.3041 205.6352 514.4455 206.6411 524.2814 209.5472 535.3468 210.7767 535.9056 211.3355 537.1351 212.0062 538.5881 212.565 541.2706 213.0121 542.053 213.4592 546.5239 219.1595 547.9769 219.9419 551.1065 221.0596 553.9008 222.848 555.0185 223.4068 555.8009 224.1892 556.1362 225.9776 556.695 226.9835 558.0363 226.8717 559.6011 226.3129 560.8306 225.6422 561.1659 227.4306 562.9542 228.3248 565.1897 228.7718 567.2015 229.5542 568.431 228.8836 569.7723 228.9954 571.1135 229.4425 572.0077 230.3366 572.5666 231.6779 572.343 232.7956 572.0077 233.9133 572.0077 235.1428 573.0136 237.1547 577.5963 243.0785 582.8495 235.5899 583.8554 235.2546 586.3144 236.1487 587.5439 235.5899 587.991 233.6898 585.1967 220.8361 581.2847 210.6649 579.1611 207.2 578.1551 206.3058 577.4845 205.9705 577.0374 205.2999 576.9256 201.0526 577.1492 199.9349 578.9375 197.4759 578.9375 196.3582 578.6022 195.464 578.3787 194.4581 578.2669 194.3463 578.2669 194.1228 578.2669 193.5639 578.3787 192.8933 578.714 192.3344 579.2728 192.2227 579.7199 192.2227 579.9435 192.1109 580.167 190.4343 579.9435 189.3166 579.3846 188.3107 579.1611 186.8576 579.3846 185.5164 580.8376 182.9457 581.62 180.3749 583.5201 179.2572 585.8673 179.5925 587.991 181.7162 592.6854 178.1395 593.5795 176.91 593.0207 175.9041 592.3501 175.3452 598.2739 162.6033 603.6389 151.4262 607.3274 143.4904 612.5806 132.2015 617.6103 121.695 619.1751 118.3419 621.8576 112.6416 625.2108 105.4882 625.7696 102.6939 624.6519 100.6821 622.9754 98.782 621.6341 96.5465 621.2988 91.4051 625.7696 82.7987 626.552 78.5514 625.6579 75.9806 624.4284 73.6334 623.5342 71.0627 623.646 68.2684 624.9872 65.5859 628.8992 59.9974 629.5699 57.5384 629.6816 54.6323 632.5877 47.2554 633.5936 37.5314 635.4937 32.3899 639.0704 28.0308 643.8766 24.9012 649.2416 23.3364 651.9241 23.1129 654.2713 23.3364 663.8836 25.6836 666.3426 25.5718 668.578 24.3424 668.8015 23.4482 668.578 22.2187 668.6898 21.2128 670.3663 21.101 671.484 21.3245 673.6077 22.1069 674.7254 22.3305 677.855 21.8834 679.0845 21.9952 680.314 22.7776 681.2081 23.7835 682.1023 24.3424 683.6671 23.7835 684.5613 23.6717 686.1261 23.7835 686.7967 23.7835 687.8026 23.3364 689.1439 22.2187 689.9263 21.6598 691.8264 20.7657 692.9441 20.5421 696.0737 20.7657 697.6385 20.4304 700.7681 19.2009 702.3329 18.7538 707.0273 18.9773 708.7039 18.642 710.604 17.8596 711.7217 16.7419 712.6158 15.5124 714.2924 14.1712 715.969 13.5006 717.422 13.7241 720.4398 14.73 724.6871 14.3947 727.1461 12.0475 729.4933 9.1415 733.9641 6.7943 735.5289 6.0119 737.2055 4.7824 739.1056 4 741.7881 4.3353 742.347 4.8942 742.7941 6.459 743.3529 6.9061 744.9177 7.0178 745.4766 7.3531 749.8356 10.9298 753.9712 12.8299 758.6656 13.5006 768.2779 13.5006 768.8367 13.3888 770.178 12.8299 771.0722 12.8299 771.8546 13.1652 772.9723 14.5065 773.6429 14.8418 774.7606 14.8418 776.996 14.3947 778.002 14.5065 779.7903 15.5124 781.2433 17.3008 782.3611 19.4244 782.9199 21.6598 783.7023 23.56 785.3789 23.8953 787.6143 23.2246 791.9734 21.101 792.644 20.5421 793.3146 20.8774 797.4502 23.4482 798.5679 23.8953 799.9091 23.6717 803.5976 21.8834 807.5096 20.8774 811.6451 20.8774 815.5571 22.1069 817.6807 24.1188 819.1338 28.8132 820.6986 30.4898 823.1575 30.8251 825.6165 29.7074 827.6284 27.8073 828.9696 25.7954 829.4167 24.5659 830.3109 21.101 830.9815 19.5362 831.8757 19.2009 832.8816 19.5362 834.1111 19.5362 843.3881 18.7538 844.1705 18.8656 845.4 19.5362 846.2942 19.5362 846.7413 19.0891 847.1883 17.5243 847.6354 17.0772 848.9767 16.8537 850.9886 16.9655 851.9945 16.5184 854.1182 14.5065 855.4594 12.9417 856.9124 12.8299 859.9303 15.1771 861.7186 17.5243 866.5248 25.1248 868.4249 29.4838 869.7661 30.8251 874.9076 30.9369Z" />
</svg>