<?xml version="1.0" encoding="utf-8"?>
<svg xmlns="http://www.w3.org/2000/svg" viewBox="0 0 970 1024" style="stroke-width:0.25px;stroke-linejoin:round;stroke:#444;fill:#ddd" fill-rule="evenodd">
  <path class="CI" d="M100.6837 94.5347L103.5898 95.6524 106.9429 95.5406 110.1843 94.6464 113.0903 93.3052 115.9964 90.8462 117.4494 89.8403 121.4732 89.2814 123.038 88.7226 124.491 87.8284 125.944 86.4871 129.7442 81.681 130.3031 80.4515 130.8619 78.7749 131.9796 77.8807 133.0974 77.0983 133.9915 75.8689 134.3268 73.5217 136.1152 70.2803 134.1033 67.5978 137.2329 66.9272 140.6978 64.8035 142.4861 62.121 140.586 59.7738 142.1508 59.1032 142.8215 58.8796 142.8215 57.7619 144.9451 55.9736 146.3981 55.6383 148.1865 55.8618 149.6395 55.4147 150.4219 53.7382 151.0925 51.7263 151.9867 50.385 155.2281 49.8262 160.9284 53.2911 164.5051 53.7382 166.1816 53.5146 168.9759 53.5146 170.4289 53.0675 171.6584 51.9498 175.3469 47.0319 177.6941 46.9201 179.4824 47.3672 181.0472 48.2614 182.3884 49.7144 183.1708 51.6145 183.3944 53.4029 183.1708 55.1912 183.2826 56.5325 183.9532 58.209 186.6358 62.5681 186.8593 64.3564 186.4122 65.9212 186.6358 66.9272 188.6476 66.9272 190.1007 66.5919 194.4597 64.9153 198.0364 65.1388 198.9306 67.5978 197.9246 74.1923 198.1482 78.1043 199.3777 80.0044 202.0602 80.675 211.896 80.8986 224.4144 82.9105 239.9506 87.2695 242.6331 88.8343 245.2039 91.8521 247.551 95.4288 250.3453 97.9996 254.2573 97.8878 257.9458 96.5465 261.1871 94.0876 263.199 90.7344 262.7519 86.5989 261.2989 84.8106 259.1752 83.5811 257.4987 82.1281 257.1634 79.8926 260.9636 67.1507 262.8637 65.1388 266.4404 64.58 275.3821 65.8095 278.3999 65.3624 287.6769 61.0033 291.1418 60.668 294.6067 61.7857 300.5306 65.3624 303.9955 65.6977 307.6839 64.4682 309.0252 62.5681 309.0252 61.7857 309.8076 56.6442 310.4782 55.5265 311.4842 54.297 312.2666 52.844 312.2666 51.0557 311.3724 49.938 309.6958 49.1556 307.9075 48.7085 306.7898 48.0378 304.7779 44.9083 304.4426 42.2257 306.0074 36.9725 306.7898 29.7074 306.3427 28.4779 305.7838 27.3602 305.4485 25.9072 305.7838 23.0011 306.5662 19.9833 306.9015 19.8715 309.137 16.0713 308.9134 15.5124 312.3783 14.3947 314.502 15.736 317.7433 21.3245 320.0905 23.4482 323.3319 25.6836 329.7029 29.1485 332.2736 30.0427 340.88 31.7193 344.1213 31.9428 348.0333 31.2722 350.9394 29.2603 351.4982 25.4601 350.3805 24.007 348.3686 23.0011 346.5803 21.8834 345.6861 19.648 346.0215 13.3888 347.1392 10.4827 349.8217 9.1415 353.2866 8.9179 356.5279 9.4768 360.5517 9.5886 363.6813 8.1355 366.5873 6.1237 370.2758 4.4471 374.076 4 375.7526 4.8942 375.9761 7.1296 375.1937 13.7241 375.6408 14.9536 378.5469 16.0713 380.2234 16.9655 381.6765 18.1949 382.2353 19.5362 381.4529 21.4363 379.7763 22.3305 378.0998 23.1129 376.8703 24.5659 377.7645 26.8013 378.2116 28.7014 377.988 30.6015 376.9821 31.9428 374.076 34.29 373.2936 35.6312 373.2936 38.0902 374.076 38.4255 375.4173 38.0902 376.8703 38.202 377.6527 39.0961 378.5469 40.2139 379.441 41.108 380.447 41.4433 382.2353 41.2198 383.5766 41.108 384.4707 41.6669 385.1414 43.3435 384.9178 44.2376 383.2413 47.1437 382.9059 48.4849 383.4648 50.0497 386.0355 53.0675 383.5766 58.0972 383.1295 61.0033 385.4767 62.9034 381.6765 67.2625 381.6765 67.8213 382.1235 68.7155 382.3471 69.8332 382.0118 70.6156 380.6705 71.1745 379.5528 70.7274 378.8822 70.0568 378.4351 69.8332 376.535 71.9569 376.0879 74.0805 376.6468 80.1162 378.9939 79.5573 380.7823 80.7868 383.8001 84.4752 385.9238 85.8165 397.8833 90.1756 411.9664 90.0638 414.9843 87.046 416.7726 84.0282 417.8903 80.5633 418.4492 76.6513 420.3493 75.0865 427.7262 77.769 429.5145 76.316 428.8439 67.5978 429.5145 64.58 431.3029 61.8975 433.7618 60.2209 445.0507 54.1853 465.3931 49.7144 474.1112 48.8202 478.5821 47.7025 480.0351 47.5908 482.047 48.3732 485.5119 50.6086 489.7592 52.2851 492.5535 53.8499 495.3477 57.4266 497.2479 61.5622 497.4714 64.3564 499.7068 65.1388 500.8245 65.3624 502.2776 65.3624 503.1717 65.9212 503.8424 67.2625 504.4012 68.7155 504.8483 69.7215 506.5249 71.1745 508.7603 72.2922 511.331 72.9628 514.5724 73.0746 515.3548 72.6275 515.9136 71.6216 516.4725 71.0627 517.3667 71.398 518.0373 71.8451 518.8197 72.0686 520.608 71.9569 522.5081 71.5098 523.5141 70.5039 524.2965 69.3861 525.4142 68.7155 528.0967 68.8273 535.3618 69.8332 537.9326 69.1626 545.6448 73.7452 547.0978 73.6334 548.2155 71.5098 550.7862 71.7333 553.357 73.2981 553.4688 73.4099 554.5865 75.7571 554.5865 84.587 554.1394 85.4812 553.5805 86.3754 553.8041 87.1578 555.7042 87.2695 556.8219 86.9342 557.7161 86.1518 558.4985 85.0341 558.9455 84.0282 559.3926 87.2695 558.0514 90.1756 557.9396 91.9639 562.1869 91.7404 561.0692 94.6464 562.0751 96.323 565.9871 98.8937 566.3224 100.235 562.634 101.4645 561.181 102.8057 562.5222 102.8057 563.5282 103.141 564.4223 103.5881 565.4283 103.9234 563.3046 104.9294 564.6459 106.8295 566.3224 107.053 568.2226 106.2706 569.7873 104.9294 570.5697 107.8354 572.2463 109.2884 574.37 110.2944 576.2701 111.5239 578.0584 113.9828 579.0644 116.8889 578.5055 119.1243 575.1524 119.2361 575.823 120.8009 577.6113 123.1481 579.3997 126.9483 579.6232 127.9542 577.3878 134.437 577.6113 136.3371 582.1939 140.5844 583.5352 141.1432 584.4294 140.0255 585.3235 138.6843 586.553 137.9019 588.3414 138.2372 589.012 139.0196 589.5708 139.6902 590.9121 140.0255 594.6006 140.3608 597.7301 141.3668 599.9656 143.3787 600.9715 146.62 603.9893 145.6141 605.3306 148.073 606.113 151.6497 607.566 154.444 605.107 155.3382 603.7658 155.4499 602.201 155.3382 602.201 156.5677 603.5422 157.7971 603.8776 158.4678 604.3246 159.809 606.4483 159.1384 608.5719 162.4915 610.9191 162.0444 610.025 161.262 609.8014 160.4796 610.3603 159.9208 611.9251 159.809 613.4899 159.9208 614.2723 160.4796 614.8311 161.3738 615.7253 162.4915 617.5136 164.1681 618.0725 165.174 618.4078 166.9624 618.7431 168.1919 619.5255 168.8625 621.6492 169.6449 622.4316 170.6508 622.4316 171.2097 622.5433 171.3215 623.8846 170.7626 625.1141 169.9802 626.12 168.8625 626.6789 167.8565 626.5671 167.5212 628.8025 167.5212 630.8144 167.2977 632.7145 166.2917 634.7264 164.1681 636.5147 165.6211 638.7502 169.086 640.5385 169.6449 642.8857 169.086 643.4446 167.4095 643.5563 165.2858 644.3387 163.0504 644.7858 161.9327 644.8976 161.3738 645.4564 161.0385 648.2507 161.0385 649.592 161.262 650.4861 161.7091 650.8215 162.4915 650.4861 165.2858 648.9213 169.4213 648.586 172.3274 650.8215 175.6805 655.9629 176.2394 661.6633 175.9041 665.4635 176.7982 666.8047 179.1454 668.2578 184.3987 669.2637 186.187 671.3873 187.193 671.9462 185.7399 671.9462 183.1692 672.3933 180.5985 674.8523 181.2691 679.0996 183.0574 680.1055 181.8279 682.2292 177.8042 682.5645 175.7923 682.1174 171.9921 682.1174 170.6508 683.0116 169.1978 687.8177 164.1681 685.9176 163.4975 685.247 163.3857 687.3706 161.4856 690.0531 160.4796 695.977 159.6972 698.8831 158.1325 703.4657 151.6497 706.26 149.5261 708.9425 149.1908 717.9959 151.8733 719.5607 152.7674 720.5667 153.1028 721.4608 152.8792 721.7961 152.0968 721.9079 151.3144 722.0197 150.8673 724.4787 149.6378 725.8199 149.1908 730.8496 149.1908 731.8556 146.9553 732.5262 144.2728 734.8734 143.0433 738.2265 142.1492 744.1504 138.349 747.0564 137.4548 747.3917 137.343 757.7865 137.1195 760.8043 136.2253 762.1455 135.2194 764.7163 132.5369 766.2811 131.4191 768.6283 130.7485 776.2287 129.7426 777.4582 129.9661 779.4701 131.0838 780.476 131.3074 781.3702 130.8603 782.8232 128.9602 783.3821 128.6249 785.5057 129.2955 786.7352 130.525 787.7411 131.7545 789.4177 132.9839 792.1002 133.5428 801.489 132.3133 826.3022 134.3252 828.3141 135.1076 831.1084 137.6783 832.7849 138.5725 834.238 138.0136 836.0263 136.8959 837.7029 136.2253 838.3735 137.343 838.2617 140.5844 838.4853 143.8257 840.1618 145.8376 843.8503 145.5023 846.0857 143.3787 851.4507 135.6664 853.7979 133.9899 855.8098 135.1076 855.8098 138.2372 855.4745 142.0374 856.1451 145.167 858.9394 146.8436 862.5161 146.9553 866.0927 147.7377 869.3341 151.6497 871.2342 159.3619 872.799 163.0504 875.5933 165.3976 878.3876 165.5094 883.8644 163.9446 886.8822 164.6152 889.3411 167.1859 891.2413 170.8744 894.0355 178.2513 901.8595 193.6757 917.6193 214.6887 921.1959 217.4829 924.9961 217.8183 928.014 215.1358 931.8142 206.9765 936.7321 202.2821 938.8558 204.9646 939.0793 207.3118 938.4087 212.3415 938.6322 213.571 939.4146 216.2535 939.4146 220.6125 938.6322 223.295 936.7321 224.5245 934.6085 225.5305 932.9319 227.6541 932.7084 230.6719 933.9378 233.1309 936.1733 234.8075 938.8558 235.3663 941.4265 236.8194 941.203 239.8372 939.3029 242.855 934.2732 245.5375 932.4848 248.4436 929.6905 254.0321 926.3374 257.497 925.6668 258.8383 925.3315 266.8858 924.7726 269.3448 923.2078 271.5802 924.7726 272.4744 925.7785 273.5921 927.008 274.3745 929.2435 274.8216 933.2672 274.9333 937.291 275.8275 941.203 278.0629 942.2089 280.5219 942.4325 283.875 944.8914 291.3637 945.7856 292.0343 946.9033 292.2579 947.7975 292.5932 948.1328 293.9344 948.3563 296.7287 951.4859 307.7941 951.3741 310.0295 949.6976 310.9237 948.4681 312.0414 948.1328 314.0532 948.9152 315.2827 948.9152 315.3945 950.3682 314.7239 951.0388 317.1828 958.304 361.8913 965.5691 406.488 964.5631 408.947 957.4098 413.1943 955.2861 413.8649 953.4978 413.7531 951.4859 412.7472 950.1447 412.6354 949.1387 413.6414 948.021 415.765 947.3504 418.224 947.7975 420.2359 949.8094 424.8185 950.8153 428.6187 950.7035 431.413 949.1387 433.5366 945.8974 435.2132 936.5086 438.3428 933.6025 440.3547 926.3374 448.7375 923.7667 450.9729 923.5431 450.4141 922.7607 449.5199 921.7548 448.8493 920.7488 448.9611 920.3018 450.0788 919.6311 461.9265 919.0723 463.7149 917.8428 465.0561 914.2661 467.1798 912.9249 468.521 912.8131 469.3034 913.2602 471.4271 913.2602 472.2095 912.5895 473.3272 911.0248 475.2273 910.4659 476.2332 899.0652 500.7111 896.9416 507.1938 889.2294 555.9261 889.3411 557.8262 890.3471 560.0616 891.4648 561.4029 892.1354 562.6323 892.0237 564.8678 890.5706 567.8856 883.4173 576.9391 882.6349 578.6156 881.2936 586.5514 880.5112 587.6691 872.6872 590.2398 872.4637 590.3516 872.3519 590.3516 870.4518 591.5811 852.2331 622.877 849.5506 629.0244 849.3271 634.8365 850.1095 636.4013 852.0096 638.9721 854.1332 643.1076 854.5803 644.1135 851.4507 652.8317 850.5565 653.8376 847.6505 655.5142 846.5328 657.1908 846.3092 659.7615 858.7158 715.8706 860.616 718.2178 861.063 718.7767 865.7574 723.024 869.1106 731.8539 873.9167 758.2319 876.1521 763.9322 882.2996 775.1094 884.1997 780.8097 884.535 786.6218 883.082 804.6169 893.2531 803.8345 891.6883 813.6704 892.5825 817.8059 896.271 819.8178 899.4006 819.4825 904.4303 816.3529 907.001 815.347 918.2899 818.253 920.3018 819.9296 921.5312 821.9415 922.0901 824.5122 922.5372 832.7833 925.3315 844.1839 929.5788 854.2433 930.2494 857.1494 929.9141 859.9437 928.3493 861.8438 926.2256 862.2909 920.9724 861.2849 919.8547 871.1208 920.3018 873.2444 922.5372 876.4858 923.2078 878.2741 923.096 879.6154 922.5372 882.9685 922.649 884.4216 923.096 884.9804 925.2197 886.7688 926.0021 887.7747 924.5491 890.6807 922.3136 892.3573 918.6252 892.9162 912.366 892.5809 912.0307 888.2218 906.7774 887.5512 900.2947 888.3336 896.1592 888.2218 897.3887 891.3514 896.6063 894.5927 894.3708 897.0517 891.2413 898.0576 888.7823 897.2752 880.3994 893.3633 877.8287 891.4631 874.6991 892.3573 868.4399 892.4691 865.7574 893.6986 864.5279 890.6807 862.069 887.1041 859.1629 884.0862 856.704 882.745 855.3627 881.6273 857.0393 879.0565 859.4982 876.8211 860.5042 876.2623 861.1748 874.0268 861.7337 869.3325 862.6278 867.5441 864.7515 866.2029 866.4281 865.7558 867.5458 864.7498 867.8811 861.6202 867.5458 859.273 866.5398 858.1553 864.6397 857.82 862.069 857.82 861.2866 858.1553 860.3924 858.9377 859.1629 859.7201 857.8217 860.0554 856.4804 859.8319 854.3568 858.9377 852.9037 858.9377 851.4507 859.3848 848.4329 861.5085 846.421 862.2909 847.9858 865.8675 848.7682 869.1089 847.6505 871.3443 843.1796 871.9032 843.8503 873.0209 843.8503 874.1386 843.1796 875.2563 842.0619 876.2623 843.515 877.2682 844.1856 877.4917 843.1796 877.4917 844.6327 878.0506 846.3092 878.3859 847.9858 878.6095 849.6624 878.4977 849.6624 879.5036 848.2094 880.1743 845.8622 880.0625 844.1856 880.5096 842.8443 881.5155 841.6149 882.8568 840.6089 884.4216 839.9383 886.0981 838.2617 884.9804 837.144 885.5393 837.3675 886.9923 839.9383 888.2218 838.9323 890.3454 839.9383 891.5749 841.9502 892.2455 844.1856 892.5809 838.4853 897.2752 828.0905 896.7164 788.0765 888.2218 780.6996 887.7747 775.6699 886.7688 774.4404 886.3217 773.8815 885.5393 774.2168 884.0862 774.5521 882.9685 774.3286 881.8508 772.7638 880.5096 773.8815 878.4977 772.3167 879.8389 771.0872 881.8508 770.1931 884.0862 769.746 886.0981 768.5165 886.0981 766.6164 884.9804 763.5986 884.7569 757.2276 884.9804 755.104 884.4216 747.9506 880.5096 736.997 879.0565 731.9673 877.6035 729.6201 874.0268 732.638 875.0328 735.8793 874.6975 738.7854 873.1327 740.5737 870.7855 742.8091 873.5798 743.9268 874.8092 745.2681 875.2563 746.274 874.8092 746.7211 873.9151 746.6094 872.7974 745.827 871.9032 745.827 870.7855 747.9506 871.2326 753.4274 873.468 754.5451 873.5798 756.1099 873.0209 759.6866 874.3622 765.3869 877.4917 765.0516 876.4858 764.7163 874.921 764.381 874.0268 766.8399 874.1386 770.9755 874.6975 772.7638 874.0268 774.7757 871.5679 773.8815 870.1149 771.8696 868.9971 770.7519 867.097 768.8518 861.732 768.5165 859.4966 767.9576 858.2671 766.7282 857.3729 764.9398 857.1494 763.2633 857.82 762.2573 857.1494 760.8043 856.7023 759.463 856.9259 758.9042 858.3789 759.3513 859.273 762.7044 861.6202 766.6164 866.9853 769.0754 869.556 771.7579 870.7855 770.4166 872.7974 767.9576 872.5738 765.2751 872.015 763.2633 873.0209 762.0338 873.0209 760.1337 870.6737 758.6806 870.0031 757.0041 870.1149 754.5451 869.7795 752.8685 869.2207 750.9684 868.103 749.5154 866.5382 749.1801 864.5263 748.3977 865.1969 747.5035 865.8675 747.0564 866.5382 746.3858 865.3087 745.9387 863.9674 745.7152 862.738 745.827 861.0614 744.7092 861.0614 744.4857 863.2968 743.8151 865.1969 742.4738 866.2029 740.5737 865.5322 739.3442 866.4264 737.5559 866.6499 735.7675 866.3146 733.9792 865.5322 730.2908 866.0911 728.5024 866.5382 730.0672 867.9912 732.5262 868.5501 735.0969 868.4383 737.1088 867.5441 739.3442 869.7795 737.2206 871.4561 734.5381 873.0209 731.7438 873.5798 729.0613 872.462 727.1612 871.3443 723.6963 869.7795 720.3431 868.7736 718.8901 869.2207 717.5488 870.6737 714.6428 869.8913 710.1719 867.5441 708.0483 868.2147 706.3717 869.2207 704.6952 869.7795 702.5715 868.7736 701.6773 869.6678 700.5596 869.6678 699.4419 868.8854 698.3242 867.5441 694.0769 870.4502 691.9532 871.2326 689.6061 870.7855 689.9414 870.1149 690.3884 868.2147 690.7238 867.5441 686.7 866.7617 684.9117 867.097 683.1233 868.7736 681.8938 867.6559 680.4408 866.9853 679.3231 866.9853 678.3172 869.4442 675.7464 871.4561 674.5169 873.0209 673.3992 871.9032 671.4991 870.4502 669.4872 869.2207 668.0342 868.7736 666.4694 869.6678 664.7928 871.1208 663.1163 871.6796 661.5515 869.7795 661.9986 869.4442 662.2221 869.4442 662.3339 869.3325 662.6692 868.7736 656.8571 868.9971 654.6217 870.1149 653.951 873.0209 655.5158 872.2385 656.8571 872.462 657.863 873.5798 658.4219 875.2563 655.4041 874.4739 644.227 874.0268 643.5563 872.462 642.7739 871.2326 641.0974 868.7736 640.2032 870.2266 640.0914 871.4561 640.762 872.462 641.9915 873.0209 641.9915 874.0268 639.1972 874.5857 637.0736 875.5916 633.3851 878.4977 630.4791 876.5976 627.126 876.8211 624.2199 878.1624 622.6551 879.5036 621.5374 879.5036 620.5315 879.0565 619.1902 878.2741 617.9607 877.2682 617.2901 876.2623 619.0784 875.4799 620.6432 875.7034 622.4316 876.1505 624.667 876.2623 624.3317 874.8092 623.8846 873.8033 622.9904 873.2444 621.5374 873.0209 621.5374 871.9032 623.214 871.1208 624.2199 870.0031 624.667 868.4383 624.667 866.5382 623.7728 866.5382 621.7609 870.2266 619.1902 872.1267 615.8371 872.9091 611.8133 873.0209 616.0606 876.2623 612.931 879.0565 607.0072 881.5155 603.2069 883.8627 602.201 886.2099 602.4245 887.6629 603.8776 888.5571 606.4483 889.2277 609.2426 889.4513 612.0369 888.8924 613.6017 887.8865 612.8193 886.0981 612.8193 884.9804 616.843 883.8627 618.8549 882.745 619.5255 883.5274 620.3079 884.5333 621.5374 884.9804 623.5493 884.4216 626.6789 883.0803 629.1378 882.745 634.0558 882.745 635.5088 883.0803 636.5147 883.7509 637.1854 884.5333 637.7442 884.9804 640.0914 885.3157 641.6562 885.0922 645.3447 883.8627 643.7799 884.0862 641.8798 883.8627 640.315 883.1921 639.8679 881.7391 640.8738 880.8449 646.3506 879.5036 646.3506 881.7391 647.5801 881.7391 651.045 880.0625 660.322 880.6213 664.9046 878.4977 665.5752 880.8449 666.8047 879.8389 668.146 877.7153 669.1519 876.2623 672.058 876.374 674.5169 877.4917 676.7524 878.0506 678.7642 876.2623 681.7821 877.4917 684.7999 876.9329 687.9295 875.8152 694.4122 874.6975 698.5477 872.3503 701.0067 871.9032 720.4549 871.3443 725.3728 873.0209 723.9198 873.6915 722.355 874.0268 720.6784 874.1386 718.8901 874.0268 730.6261 879.5036 681.335 883.5274 632.0439 887.6629 606.2248 893.475 591.918 894.7045 589.1238 895.8222 587.4472 894.9281 585.6589 894.5927 577.0525 894.481 575.0406 894.7045 575.0406 893.6986 575.5994 893.6986 576.6054 893.6986 577.1642 893.6986 577.1642 892.5809 572.6934 892.6926 571.6875 890.7925 571.6875 887.8865 570.6815 884.9804 572.6934 882.5215 570.6815 881.9626 562.0751 883.0803 559.2809 883.9745 556.7101 885.4275 554.4747 887.2158 551.904 884.9804 547.3213 882.6332 542.0681 881.5155 537.2619 882.745 536.7031 882.0744 535.5854 881.292 535.3618 880.9567 535.0265 880.5096 534.0206 880.5096 532.344 882.2979 529.5497 881.5155 526.5319 880.1743 524.1847 880.5096 523.1788 880.5096 521.5022 879.7272 520.608 880.3978 520.4963 881.9626 521.1669 883.8627 520.608 883.6392 518.8197 882.745 518.9315 884.4216 518.8197 884.9804 520.1609 884.5333 520.3845 885.0922 521.0551 885.9864 521.1669 886.0981 522.2846 885.5393 523.067 885.204 525.3024 884.9804 525.3024 886.0981 524.0729 887.4394 520.3845 889.3395 518.8197 890.3454 518.8197 887.2158 516.5843 893.8103 515.5783 895.8222 510.2133 888.2218 509.0956 888.2218 508.9838 888.6689 509.0956 890.3454 506.9719 889.2277 509.3191 893.6986 515.8019 896.7164 523.5141 897.4988 529.7733 895.8222 527.2025 893.9221 524.52 894.0339 521.7257 894.481 518.8197 893.6986 518.8197 892.5809 520.4963 892.6926 521.7257 892.4691 522.9552 892.022 524.1847 891.4631 524.9671 890.7925 526.979 888.6689 527.5378 888.2218 529.885 888.6689 532.5675 890.0101 535.1383 890.6807 537.2619 889.2277 539.162 890.4572 541.1739 890.9043 542.7387 890.2337 543.7447 888.2218 540.8386 888.6689 539.6091 887.3276 538.4914 885.651 536.256 884.9804 536.256 883.8627 538.3796 884.9804 543.6329 884.198 553.1334 889.7866 557.269 888.6689 559.5044 886.9923 561.5163 886.657 566.9931 887.2158 567.6637 888.4453 568.5579 891.1278 569.8991 894.0339 571.7992 895.8222 532.0087 897.0517 525.8613 899.3989 494.0065 901.1872 489.4239 900.4048 485.4001 898.0576 481.041 901.299 484.2824 902.1932 485.4001 902.305 472.77 906.2169 437.8974 911.4702 436.7796 911.8055 419.008 917.3941 416.3255 918.7353 415.2078 920.1883 413.3077 920.1883 405.0366 923.2062 392.63 929.6889 349.4864 944.1074 348.1451 945.2251 347.1392 947.5723 344.792 948.9135 328.1381 952.9373 324.8967 953.3844 322.4377 954.1668 318.1904 958.1905 315.6197 959.8671 295.6127 965.6792 279.8529 966.7969 275.7174 968.8088 272.0289 969.703 270.2406 970.7089 265.8815 976.1857 257.3869 983.2273 247.551 989.1512 241.0683 991.163 229.3323 992.3925 220.0553 996.4163 218.0435 997.7575 216.4787 1000.8871 214.8021 1001.1107 212.7902 1001.1107 211.3372 1001.6695 208.4311 1004.0167 199.9365 1008.7111 187.5299 1018.9941 184.7356 1020 180.9354 1019.7765 174.0056 1018.3234 171.4349 1018.6587 166.2934 1015.0821 165.3992 1013.182 165.6228 1011.6172 167.1876 1008.7111 167.7464 1007.1463 167.5229 1005.5815 166.4052 1002.4519 166.7405 998.4282 166.4052 996.7516 165.9581 995.2986 165.7345 993.8455 166.4052 959.9789 165.7345 951.8196 165.2875 950.3666 164.3933 949.2488 163.1638 948.3547 161.9343 947.1252 161.1519 945.3369 161.1519 945.1133 161.1519 943.8838 162.0461 940.6425 162.2696 938.8541 161.1519 933.9362 161.2637 932.4832 166.0699 928.6829 168.0817 928.9065 169.423 929.8007 170.0936 929.9124 170.0936 927.4535 169.1994 924.4356 167.6347 922.312 166.6287 920.1883 166.8523 916.7234 166.7405 916.7234 165.511 907.5582 165.9581 904.8757 167.8582 901.9696 170.5407 900.7402 173.1114 900.8519 175.3469 901.7461 179.5942 893.9221 180.6001 891.1278 180.7119 888.5571 179.3706 881.0684 181.0472 875.8152 181.7178 874.3622 182.8355 872.9091 186.9711 870.6737 187.3064 870.2266 189.2065 870.5619 188.8712 871.2326 188.0888 872.015 188.3123 872.7974 188.7594 873.9151 188.7594 875.0328 189.2065 875.7034 190.6595 875.0328 191.4419 874.0268 192.0008 871.3443 192.4479 870.3384 194.348 867.6559 195.2421 865.9793 195.4657 864.191 195.0186 861.1732 194.1244 858.1553 193.0067 857.9318 191.3301 858.2671 188.9829 856.9259 187.5299 854.8022 186.4122 852.1197 185.7416 849.2136 185.7416 846.7547 187.977 847.8724 188.6476 846.1958 188.5359 840.2719 189.6536 837.9248 191.5537 836.4717 192.3361 835.1305 192.1125 834.9069 190.5477 833.3421 191.5537 833.4539 194.6833 833.2304 192.5596 830.4361 191.7772 827.4183 192.8949 825.5182 196.1363 826.077 194.1244 823.5063 190.7713 816.8 188.7594 812.6645 185.8534 800.1461 185.9651 794.334 186.9711 787.7395 186.3004 782.1509 181.2707 780.0273 180.7119 784.7217 179.9295 787.2924 178.8118 788.5219 177.247 787.516 176.4646 785.2805 175.4586 783.2686 172.9997 782.8216 173.4468 780.1391 172.329 780.5861 170.3172 782.2627 168.5288 783.1569 167.4111 782.598 165.2875 779.9155 164.1697 778.9096 165.3992 777.233 164.6168 776.2271 161.1519 774.6623 160.7048 774.6623 157.4635 772.8739 157.2399 772.2033 154.4457 771.868 152.0985 769.9679 150.4219 767.956 149.416 767.1736 147.6276 769.1855 145.8393 772.3151 143.6039 773.5446 140.8096 769.5208 138.9095 767.6207 132.6503 764.3793 130.6384 761.8086 130.4149 760.6909 130.5266 756.1083 130.8619 755.4376 132.315 754.6552 132.6503 753.7611 132.315 752.7551 131.5326 752.308 130.6384 752.0845 130.1913 751.5256 129.6325 747.949 129.0736 746.4959 127.5088 745.0429 126.0558 744.9311 124.1557 745.49 122.5909 746.2724 122.4791 747.0548 120.8025 744.8194 120.3554 741.578 120.8025 738.0013 121.4732 734.6482 123.5968 728.6125 123.1497 726.3771 120.8025 723.4711 113.7609 717.7707 113.2021 716.9883 112.755 715.2 112.5315 714.6411 111.5255 714.3058 110.7431 714.5294 110.0725 714.7529 109.2901 714.6411 99.1189 712.2939 96.5482 710.5056 93.7539 709.835 89.5066 709.9468 82.2415 710.9527 80.3414 711.7351 76.8765 713.747 74.641 714.3058 72.0703 714.3058 70.729 713.8587 69.7231 713.0763 68.0465 712.0704 66.1464 711.3998 53.8516 708.6055 52.5103 708.0466 52.175 707.376 52.175 706.2583 52.0633 705.0288 51.2809 703.6876 50.0514 703.1287 49.4925 703.5758 48.9337 704.2464 48.1513 704.3582 46.4747 702.9052 44.9099 701.1168 43.3451 700.4462 41.2215 702.2345 39.6567 701.4521 37.6448 701.4521 35.7447 702.1228 34.0681 703.7993 32.168 701.8992 32.7268 700.8933 34.1799 700.1109 34.9623 698.6579 34.627 697.4284 33.1739 694.5223 32.9504 693.0693 33.7328 690.4986 34.8505 689.4926 35.074 688.4867 33.0622 686.1395 28.0325 683.457 26.2441 681.1098 25.2382 680.4392 24.4558 681.7804 23.7851 684.6865 22.5557 687.7043 20.5438 689.2691 17.6377 688.3749 12.9433 682.004 11.2668 680.4392 9.3667 679.9921 5.5664 680.1039 4.1134 679.7685 1.4309 679.545 5.2311 674.6271 6.0135 674.2917 7.9136 673.9564 8.696 673.5094 9.0314 672.8387 9.702 670.6033 9.4784 670.3798 9.702 670.3798 12.2727 668.815 12.7198 668.9267 14.8435 666.2442 26.2441 657.1908 29.3737 653.7259 43.5686 637.8543 45.8041 634.3894 47.7042 629.8068 49.0454 625.0007 49.269 622.7652 49.1572 620.6416 48.3748 619.7474 47.1453 618.8532 46.3629 617.6238 48.3748 613.2647 48.4866 610.8057 48.3748 608.1232 48.4866 605.3289 49.3807 603.9877 52.6221 601.5287 53.7398 599.9639 54.1869 596.1637 51.5044 580.9628 51.2809 577.1626 50.8338 575.5978 49.8278 574.033 47.5924 571.6858 47.0336 570.6799 46.81 569.6739 47.1453 567.662 47.1453 566.5443 46.4747 565.3149 44.5746 562.9677 43.7922 561.7382 42.5627 556.7085 41.5568 554.6966 38.8743 550.7846 37.8683 548.8845 36.9741 545.8667 35.074 530.4422 31.8327 519.1534 29.0384 513.5648 22.4439 510.2117 29.5972 503.6172 33.621 501.4935 37.3095 505.8526 40.3273 505.629 45.9158 503.9525 51.1691 505.2937 57.093 509.8763 62.9051 512.4471 67.3759 507.3056 67.4877 506.1879 66.9288 503.6172 67.0406 502.3877 67.823 500.5993 70.9526 496.5756 71.6232 496.0167 73.4116 494.899 74.0822 494.3402 74.1939 493.6695 73.7469 492.1047 73.8586 491.4341 78.8883 485.622 79.6707 483.2748 80.2296 478.0216 80.7884 475.4508 81.5708 474.5567 82.5768 473.886 83.471 472.9919 83.8063 471.4271 83.0239 469.7505 79.4472 466.6209 78.3295 464.9443 78.6648 458.5734 86.4888 446.6139 88.1653 440.4664 88.3889 436.5545 88.0536 435.2132 90.5125 435.325 97.107 434.2073 98.6718 434.7661 100.2366 435.9956 102.1367 437.2251 104.931 437.4486 104.3722 435.5485 104.0369 433.9837 102.1367 430.5188 99.4542 427.6128 96.5482 425.8244 95.654 423.4772 95.5422 421.13 96.5482 416.3239 97.6659 414.312 98.6718 412.0766 98.4483 410.5118 96.5482 410.6235 87.0476 413.8649 85.4828 414.0884 70.1702 409.3941 57.093 400.6759 57.3165 398.9993 59.8872 396.3168 60.3343 394.4167 59.8872 391.5107 59.8872 388.4928 61.8991 379.4394 61.6756 376.0862 60.7814 374.0744 59.6637 372.3978 58.8813 370.6095 58.8813 368.7094 59.7755 367.5916 67.3759 361.4442 69.6113 361.2207 75.3117 362.3384 78.4413 362.0031 83.6945 359.8794 86.9359 359.6559 88.2771 360.103 89.9537 361.6678 90.9596 362.1149 92.3009 362.2266 95.0952 362.0031 96.5482 362.2266 101.2426 360.9971 103.7015 360.6618 105.937 361.1089 107.8371 362.6737 108.9548 364.7974 109.849 367.0328 110.9667 369.1564 112.755 370.7212 114.9904 371.9507 117.5612 372.7331 120.2437 372.8449 122.9262 371.6154 123.1497 369.38 122.7026 366.6975 123.3733 364.2385 126.8382 363.6796 130.1913 368.2623 135.1092 378.3217 138.6859 380.5571 143.045 381.116 152.2102 380.11 148.9689 373.4037 147.9629 369.9388 148.41 366.1386 149.6395 362.1149 149.6395 359.4323 147.6276 352.7261 147.2923 349.3729 147.6276 343.2255 146.8452 340.3195 145.7275 338.8664 141.2567 335.9604 139.8036 334.1721 136.0034 327.354 134.9975 326.0128 131.9796 323.3303 131.1972 322.4361 129.9678 320.4242 128.9618 319.7536 128.0677 319.7536 126.3911 320.536 125.6087 320.6477 116.2199 317.7417 112.755 317.4064 105.4899 315.171 103.9251 310.253 106.8311 296.3934 107.5018 288.5694 108.1724 284.7692 109.7372 280.969 112.0844 278.3982 126.2793 271.1331 129.2971 270.7978 132.4267 270.7978 136.227 270.2389 138.6859 268.3388 138.9095 268.2271 137.0094 265.7681 130.4149 262.0796 126.8382 259.2854 125.1616 257.497 123.038 253.4733 121.6967 253.2497 120.1319 253.9204 118.12 254.2557 110.0725 251.0143 109.9607 245.2022 115.5493 231.3426 116.1081 227.6541 120.2437 214.9122 119.4613 213.4592 112.8668 213.4592 109.5136 214.2416 103.5898 217.5947 100.3484 218.8242 97.4424 219.0477 93.8657 218.936 90.5125 218.2653 87.9418 216.8123 85.2593 214.018 76.0941 200.9408 74.8646 198.3701 74.1939 195.5758 73.6351 191.8873 73.5233 188.4224 73.7469 186.8576 79.559 145.2788 78.7766 141.8139 75.8705 142.1492 75.1999 141.9256 74.5293 140.4726 74.9763 139.802 75.7587 139.6902 75.9823 139.2431 75.7587 138.349 75.4234 135.5547 74.8646 134.6605 73.9704 134.437 73.0762 134.437 72.5174 134.1017 71.9585 132.7604 71.3997 131.1956 71.6232 129.7426 74.9763 128.5131 76.8765 126.9483 77.5471 125.3835 75.5352 124.6011 73.9704 122.8128 75.647 118.789 78.8883 114.5417 81.7944 111.7474 89.8419 108.7296 93.5304 106.7177 96.5482 102.8057 97.107 100.4585 97.8894 98.3349 99.0072 96.323 100.6837 94.5347ZM869.5576 899.1754L868.887 901.7461 868.7752 901.7461 861.8454 900.1813 846.421 898.6165 844.0738 897.4988 844.7444 895.2634 847.7623 892.5809 850.7801 890.3454 855.0274 891.4631 856.1451 892.2455 856.5922 893.1397 856.8157 894.0339 857.2628 894.7045 858.4923 895.2634 861.9572 896.3811 862.6278 896.3811 863.2985 895.934 864.6397 896.9399 866.9869 899.0636 869.1106 899.2871 869.5576 899.1754Z" />
</svg>