<?xml version="1.0" encoding="utf-8"?>
<svg xmlns="http://www.w3.org/2000/svg" viewBox="0 0 646 1024" style="stroke-width:0.25px;stroke-linejoin:round;stroke:#444;fill:#ddd" fill-rule="evenodd">
  <path class="CK" d="M594.7805 1015.0821L595.7865 1015.4174 596.5689 1016.1998 598.1337 1018.0999 598.3572 1018.9941 597.463 1019.6647 596.2336 1020 595.3394 1020 594.2217 1019.8882 593.4393 1019.5529 592.7686 1018.8823 592.2098 1017.8763 592.5451 1016.9822 593.2157 1015.9762 593.9981 1015.3056 594.7805 1015.0821ZM611.7697 845.3017L611.658 846.9782 611.8815 849.2136 611.7697 851.2255 610.7638 852.3432 610.7638 851.2255 610.4285 850.4431 609.8696 849.996 609.4226 849.3254 609.199 848.3195 609.6461 847.6488 611.2109 845.7487 611.7697 845.3017ZM594.3334 6.5707L592.7686 6.5707 591.4274 6.1237 590.0861 5.3413 589.192 4.4471 589.6391 4 594.3334 6.1237 594.3334 6.5707ZM454.6195 959.1965L456.0725 959.1965 457.6373 959.6436 458.755 960.426 459.3139 961.6554 459.3139 963.332 459.2021 964.0026 458.755 964.6733 456.7431 964.338 456.4078 964.4497 454.9548 963.6673 452.0487 963.8909 451.0428 962.9967 451.6017 962.4378 452.0487 960.873 452.1605 959.9789 452.7194 959.42 454.6195 959.1965ZM641.5009 876.374L641.1656 877.6035 640.3832 878.2741 639.489 877.9388 638.8184 876.8211 638.8184 875.3681 639.6008 874.921 640.7185 875.2563 641.5009 876.374ZM583.9387 863.4086L583.7152 864.9734 582.5975 865.4205 581.2562 865.1969 580.1385 863.9674 579.6914 862.0673 580.8091 861.732 582.4857 862.4026 583.9387 863.4086ZM569.632 850.5549L568.7378 849.6607 569.0732 849.7725 569.2967 849.996 569.632 850.5549ZM568.179 848.7666L567.7319 849.2136 567.5084 849.3254 567.6201 849.1019 568.179 848.7666ZM520.3409 805.5111L519.335 805.1758 518.4408 804.3934 517.9937 803.611 518.7761 803.3875 519.1114 803.8345 519.335 804.6169 519.7821 805.1758 520.788 804.9523 520.788 805.1758 520.6762 805.2876 520.3409 805.5111ZM1.4991 151.6497L2.1697 151.538 2.3933 151.538 2.7286 151.6497 2.2815 152.2086 1.9462 152.4321 1.6109 152.2086 1.4991 151.6497ZM365.3143 113.424L364.6437 112.8651 364.5319 112.6416 365.7614 113.3122 368.891 116.5536 365.3143 113.424ZM357.6021 86.9342L358.9433 86.3754 358.608 87.046 357.7139 87.6048 357.6021 86.9342ZM455.6254 770.6385L456.5196 770.5267 457.4138 771.1974 457.4138 771.868 457.1902 771.5327 456.9667 770.9738 456.7431 770.9738 456.0725 772.4268 456.0725 772.6504 456.296 774.4387 455.7372 775.2211 454.9548 775.2211 454.3959 774.4387 454.2842 773.4328 454.6195 771.868 454.9548 771.4209 455.6254 770.6385Z" />
</svg>