<?xml version="1.0" encoding="utf-8"?>
<svg xmlns="http://www.w3.org/2000/svg" viewBox="0 0 684 1024" style="stroke-width:0.25px;stroke-linejoin:round;stroke:#444;fill:#ddd" fill-rule="evenodd">
  <path class="CM" d="M249.4065 975.068L223.1403 975.068 196.7623 975.068 170.3843 975.068 169.1548 975.068 149.8184 975.068 144.118 975.068 132.2703 975.068 130.482 974.7327 124.8934 971.9384 123.3286 971.6031 121.7638 971.0442 119.5284 969.4794 117.5165 967.6911 116.3988 966.2381 116.1752 964.4497 116.5106 962.6614 116.3988 960.9848 115.3928 959.5318 116.5106 958.5259 116.5106 957.967 117.1812 956.4022 117.4047 939.9718 120.0872 928.2359 121.652 924.5474 121.9873 923.0944 122.3227 911.9173 123.2168 907.8935 124.5581 904.3168 126.2347 901.7461 128.023 899.5107 129.1407 897.0517 129.3642 894.2574 126.0111 881.4037 124.4463 879.2801 124.4463 878.7212 125.2287 878.7212 125.7876 878.6095 126.7935 878.1624 126.7935 877.6035 125.4523 877.7153 124.5581 877.4917 123.7757 876.9329 123.2168 876.374 122.658 875.5916 120.3108 871.2326 113.7163 862.9615 110.0278 859.8319 101.5332 853.908 103.4333 853.5727 105.6688 852.455 112.8221 846.9782 114.834 846.1958 117.1812 846.084 114.3869 845.3017 111.9279 846.3076 109.5807 847.7606 107.2336 848.543 101.1979 849.1019 100.192 848.543 99.7449 847.4253 100.0802 846.3076 101.5332 845.5252 98.9625 839.3778 94.7152 833.5657 93.5975 831.3303 93.0386 829.2066 95.274 831.3303 95.7211 831.6656 96.1682 832.0009 96.9506 833.901 97.2859 834.6834 98.4036 835.1305 99.9684 835.354 103.3216 835.2422 102.4274 834.7952 99.6331 834.0128 98.8507 833.5657 98.4036 833.1186 98.1801 832.6715 97.6212 831.8891 96.8388 830.1008 97.1741 827.8653 98.1801 825.7417 99.6331 824.2887 102.9862 827.3065 104.8864 827.7536 105.7805 825.6299 108.6866 827.0829 109.8043 827.9771 110.5867 829.2066 111.0338 828.3124 111.0338 827.3065 110.6985 826.4123 110.0278 825.6299 110.2514 825.5182 111.2573 825.6299 107.1218 824.0651 105.1099 822.9474 104.551 821.2708 105.6688 820.1531 107.9042 819.3707 110.4749 818.9237 112.2633 818.9237 112.2633 818.4766 112.1515 818.253 111.7044 817.6942 111.9279 817.5824 112.1515 817.5824 112.2633 817.4706 112.2633 817.0235 103.5451 818.5883 100.8626 818.253 99.5213 816.8 99.9684 814.5646 101.3097 812.5527 102.9862 811.6585 104.4393 810.3173 108.3513 804.5052 110.922 803.1639 111.2573 802.7168 111.5926 801.8227 111.4809 801.2638 110.0278 801.9344 108.3513 803.1639 107.5689 803.9463 106.8982 804.9523 106.3394 804.9523 106.3394 803.1639 104.7746 804.3934 101.8685 808.7525 100.3037 810.429 98.4036 811.435 96.0564 812.1056 94.2681 811.7703 94.2681 809.8702 93.0386 810.9879 91.362 810.0937 89.7972 808.5289 88.9031 806.5171 89.3502 804.3934 88.1207 803.0521 87.1147 803.4992 84.6558 806.1817 84.8793 806.5171 85.2146 806.9641 85.997 807.2994 86.7794 807.4112 87.6736 807.9701 87.7854 808.4172 88.6795 810.5408 89.6855 811.5468 91.1385 812.7762 91.9209 814.2293 90.6914 815.9058 89.3502 815.347 88.7913 815.2352 88.1207 815.0117 87.003 814.1175 85.8853 812.2174 85.3264 811.8821 84.9911 811.6585 84.7675 811.3232 84.6558 810.429 83.5381 810.6526 82.7557 810.9879 82.3086 811.5468 82.1968 812.5527 84.544 814.0057 85.2146 814.6763 85.4382 815.6823 85.2146 816.4647 84.8793 817.3589 84.6558 818.5883 84.8793 819.259 86.3323 820.0414 87.003 820.712 85.8853 821.2708 84.4322 821.6062 81.3026 821.9415 79.6261 821.7179 76.6083 820.9355 75.267 820.712 72.5845 819.3707 71.6903 816.3529 72.1374 813.1116 73.7022 810.9879 73.7022 810.429 71.5785 810.9879 70.5726 812.4409 70.0138 814.0057 66.9959 816.8 64.4252 816.2411 63.531 816.4647 63.6428 814.7881 63.7546 813.5586 63.531 812.5527 62.3015 811.6585 61.2956 811.435 59.619 811.435 58.0542 811.6585 57.2718 811.8821 55.8188 811.7703 51.2362 808.7525 43.524 805.1758 42.518 804.3934 42.2945 801.9344 43.9711 796.5694 44.1946 794.1105 41.5121 791.5397 39.3884 788.6337 37.8237 785.1688 35.7 772.6504 36.2589 770.415 38.4943 766.503 39.3884 764.4911 37.3766 766.6147 36.2589 767.2854 35.7 765.9441 35.9235 764.9382 36.3706 763.8205 36.5942 762.7028 36.3706 761.4733 35.7 760.8026 33.6881 760.132 33.0175 758.679 32.3469 757.673 31.5645 756.7789 30.8938 756.5553 30.5585 757.673 33.241 761.8086 33.9117 763.8205 33.3528 765.1617 32.5704 765.497 31.8998 764.9382 31.5645 763.5969 27.3172 760.2438 27.2054 761.3615 27.3172 762.2557 27.7642 762.9263 28.5466 763.2616 27.3172 765.3853 26.9818 765.7206 26.423 765.497 24.6347 764.4911 24.2993 764.1558 23.6287 763.3734 22.1757 762.8145 20.7227 762.0321 20.052 760.4673 19.1579 757.226 15.1341 751.6374 14.687 748.0607 13.234 750.2961 13.7928 752.8669 15.1341 755.5494 17.3695 763.7087 18.1519 764.4911 19.1579 764.9382 20.052 765.7206 20.6109 767.956 18.7108 769.0737 7.7572 769.8561 6.7513 769.409 7.1983 768.2913 8.3161 767.0618 9.2102 766.2794 8.2043 765.7206 7.1983 765.7206 6.5277 766.1677 5.9689 768.0678 5.2982 768.5149 4.2923 768.4031 3.2864 768.0678 1.9451 766.7265 1.3862 764.6029 1.8333 763.0381 3.2864 763.2616 3.7334 762.1439 5.5218 759.0143 4.4041 759.9085 3.2864 759.9085 2.3922 759.1261 1.9451 757.7848 2.1686 756.5553 2.8393 755.3259 4.4041 753.5375 6.9748 751.8609 7.4219 751.0785 7.4219 750.0726 7.0866 748.9549 6.9748 747.949 7.4219 746.8312 8.0925 747.5019 7.7572 744.037 7.869 742.2486 8.8749 741.4662 9.322 741.3545 10.8868 739.7897 10.5515 738.5602 10.2162 737.3307 9.9926 735.4306 10.775 734.0893 13.1222 732.301 13.6811 730.7362 17.146 725.2594 18.4872 723.3593 19.2696 721.6827 20.6109 717.7707 21.1697 716.653 22.8463 713.9705 23.7405 713.0763 24.7464 712.6293 25.7524 712.4057 26.6465 711.9586 27.3172 710.8409 29.6644 698.8814 29.5526 697.8755 28.882 695.7518 28.7702 694.6341 29.329 692.5105 31.2292 688.7102 31.788 686.8101 31.788 684.91 31.4527 683.2334 31.3409 681.4451 31.8998 679.545 33.1293 677.8684 34.8058 676.1919 36.1471 674.5153 36.5942 672.3916 35.7 670.0444 34.0234 668.2561 32.0116 666.6913 30.2232 665.0147 29.1055 662.7793 29.7761 661.5498 31.3409 660.3204 32.9057 658.4202 33.241 656.1848 32.4586 654.7318 31.5645 653.2788 31.3409 651.4904 32.3469 650.0374 35.4765 647.9138 36.5942 646.4607 38.159 645.0077 40.0591 645.2312 41.9592 645.9019 43.524 645.7901 43.7475 644.5606 43.9711 642.1017 44.4182 641.431 45.8712 640.7604 46.9889 639.5309 48.889 636.8484 57.0483 628.3538 69.1196 618.6297 71.355 615.3883 73.814 610.1351 75.0435 608.6821 76.2729 608.0114 77.2789 608.0114 78.3966 608.0114 79.7378 608.0114 82.1968 606.4466 84.8793 601.3052 87.4501 599.7404 88.0089 599.5168 91.5856 598.1756 93.3739 597.2814 94.7152 595.9402 96.8388 592.0282 98.0683 590.9105 100.7508 590.3516 101.7568 590.3516 104.8864 590.3516 106.0041 589.4574 106.1158 589.2339 112.8221 567.9974 114.3869 566.0972 116.5106 566.3208 118.1871 567.1032 119.9755 567.662 121.9873 566.7679 143.5592 548.4374 145.6828 547.2079 146.9123 547.5432 147.5829 548.9963 148.8124 555.479 149.7066 557.1556 151.6067 558.6086 154.0657 559.391 176.7552 559.0557 176.7552 557.0438 177.0905 555.7025 177.8729 554.473 178.8789 553.02 179.4377 552.5729 179.9966 552.4612 180.3319 552.1259 180.8908 545.4196 181.6732 542.0664 182.6791 538.8251 184.0204 536.3661 185.5851 538.378 186.144 542.7371 187.7088 544.0783 190.056 544.8607 196.2034 548.1021 203.3568 550.7846 206.2628 552.7965 207.7158 556.3732 208.4982 560.3969 210.2866 564.1971 213.0809 567.1032 221.3519 568.5562 224.3697 570.9034 226.0463 574.4801 226.2699 578.7274 226.1581 582.1923 226.3816 585.6572 227.9464 592.587 229.623 596.7226 231.076 598.0638 233.4232 598.3991 238.9 597.8403 241.4707 597.6167 241.9178 597.7285 242.9238 598.3991 243.5944 598.5109 244.1532 598.1756 245.0474 597.3932 245.3827 597.1696 246.3887 597.2814 248.2888 597.7285 249.1829 597.8403 251.4184 597.2814 253.6538 596.1637 255.3304 594.5989 255.8892 592.587 256.4481 588.8986 257.7893 585.8807 260.1365 583.9806 263.6014 583.6453 265.9486 582.3041 268.0723 579.398 270.643 573.4741 271.2019 571.0152 271.4254 568.668 270.9783 567.1032 269.0782 564.8678 268.4076 563.5265 268.9664 561.1793 270.5312 558.9439 276.008 553.9142 281.0377 550.6728 281.373 550.2257 281.7084 549.108 282.0437 548.6609 282.4908 548.5492 283.3849 548.6609 284.3909 548.4374 285.7321 548.3256 286.291 548.1021 286.8498 547.4315 286.9616 546.6491 287.2969 545.7549 288.5264 544.9725 292.3266 541.5076 293.3326 540.9487 294.562 540.6134 295.4562 540.6134 296.2386 541.0605 297.021 541.284 297.9152 540.837 298.6976 538.8251 297.5799 536.7014 294.115 532.9012 289.7559 526.5303 288.5264 525.5243 286.4028 525.0772 285.9557 524.5184 286.6263 523.736 288.1911 522.6183 289.9794 520.9417 295.4562 512.7824 300.5977 507.6409 306.1862 502.2759 308.5334 498.6992 309.8747 497.8051 310.9924 496.7991 311.3277 495.0108 310.0982 489.7575 309.8747 487.8574 310.21 485.9573 310.7689 484.0572 314.0102 478.3569 322.7284 466.1738 326.0815 462.5971 326.5286 461.3677 326.3051 459.9146 325.7462 457.6792 325.1873 454.2143 325.1873 450.8612 325.7462 448.6257 329.3229 443.4843 329.6582 442.3666 329.9935 441.5842 329.9935 439.7958 328.6523 432.6425 328.4287 428.6187 329.0993 424.8185 331.1112 421.9124 333.0113 421.0183 336.4762 421.6889 338.2646 421.3536 339.3823 420.6829 340.0529 419.5652 340.6118 418.5593 341.2824 417.6651 343.9649 415.765 344.6355 414.9826 344.6355 412.5237 344.412 411.1824 342.2883 406.1527 341.6177 404.9232 343.9649 405.7056 345.3062 405.9292 346.5356 405.7056 347.8769 405.1468 348.8828 404.4761 350.0006 403.8055 351.5653 403.6937 352.7948 404.029 355.5891 405.2585 356.9304 405.5938 358.2716 405.2585 367.2133 400.4524 368.7781 398.7758 370.1194 395.8697 370.9018 393.299 371.5724 392.2931 372.5783 391.846 373.8078 391.846 374.9255 392.0695 376.0432 392.0695 377.1609 391.6224 379.0611 388.9399 380.067 385.1397 382.0789 368.374 381.4083 365.1327 381.52 361.4442 383.3084 357.1969 387.3321 349.9318 387.891 348.367 388.2263 346.6904 388.3381 343.2255 387.5557 340.543 386.7733 338.6429 384.2025 338.3076 383.8672 337.9723 384.4261 336.4075 384.9849 335.9604 390.2382 333.5014 390.9088 332.9426 391.9147 332.0484 394.4855 328.6953 395.6032 327.8011 401.7506 325.1186 408.6804 324.0009 414.3807 321.7655 416.8397 315.3945 417.2868 309.5824 418.4045 303.5468 419.2987 301.4231 420.0811 299.9701 420.3046 298.5171 419.2987 296.5052 416.8397 293.9344 415.9455 292.4814 415.722 290.4695 416.3926 288.5694 418.5163 285.3281 418.8516 283.2044 418.5163 281.5278 417.5103 278.6218 417.3986 276.8334 418.9634 273.7039 421.9812 272.5861 428.7992 271.8037 430.4758 271.1331 431.7053 270.3507 432.5994 269.9036 434.3878 268.4506 435.5055 267.1094 436.8468 264.0915 437.0703 262.862 436.8468 261.8561 436.2879 260.0678 436.2879 258.8383 438.2998 253.3615 441.3176 236.484 444.559 225.1952 447.0179 220.0537 462.6659 197.5877 463.2248 196.47 463.7836 195.0169 463.2248 191.6638 463.6718 189.7637 464.566 188.3107 466.019 187.0812 469.3722 185.0693 470.3781 183.7281 471.9429 180.1514 474.0666 176.3512 476.9726 172.6627 480.214 169.3096 483.6789 166.5153 486.3614 166.5153 489.8263 167.5212 495.9737 170.2037 497.762 170.4273 499.7739 169.8684 501.674 168.9743 503.2388 167.7448 505.586 165.2858 506.7037 164.8387 509.0509 164.5034 509.8333 164.1681 517.6573 156.903 519.2221 156.0088 524.4754 154.3322 526.3755 153.2145 529.6168 150.3085 531.4052 149.1908 535.9878 147.5142 537.4408 146.7318 538.5585 145.0552 539.4527 142.9316 540.1233 140.6961 540.4586 138.796 540.4586 136.5606 539.8998 134.7723 538.8938 133.2075 537.4408 131.7545 536.9937 131.1956 536.6584 130.525 536.3231 129.9661 535.6525 129.519 534.1994 129.519 533.8641 129.4073 533.0817 128.4013 532.8582 127.5072 533.3053 126.7248 536.5466 122.4774 537.2173 121.0244 539.1174 111.8592 540.1233 108.9531 540.4586 105.9353 540.3469 105.2647 540.2351 104.3705 538.5585 100.4585 538.4468 98.6702 540.0116 97.6642 539.788 96.7701 541.3528 90.2873 541.7999 89.2814 542.247 88.7226 542.4705 88.1637 544.1471 86.3754 544.0353 85.4812 543.5882 84.587 542.5823 84.0282 541.7999 84.2517 540.5704 84.9223 539.4527 85.3694 539.0056 84.9223 538.335 83.0222 536.9937 81.9045 535.2054 80.8986 533.5288 79.6691 534.3112 79.222 534.6465 79.1102 534.6465 78.4396 533.7524 77.9925 531.0699 75.9806 530.511 75.4218 530.2875 74.5276 530.7345 73.1864 530.511 72.2922 528.052 71.0627 522.4635 69.6097 504.3565 69.0508 503.0153 68.8273 501.7858 68.0449 501.0034 66.7036 501.0034 65.6977 501.4505 62.9034 501.5623 61.2268 501.1152 59.662 500.8916 59.215 500.7799 52.2851 495.8619 28.2543 490.944 4.2235 522.0164 4 523.5812 4.8942 527.605 11.2651 527.605 11.3769 528.9462 12.7182 529.6168 14.0594 529.9521 15.6242 529.7286 17.4125 528.3873 21.5481 528.3873 22.6658 529.2815 24.007 531.964 26.0189 533.5288 27.6955 533.5288 31.1604 533.7524 31.9428 534.0877 32.3899 534.5348 32.3899 535.3172 32.0546 535.3172 32.9487 535.4289 33.8429 535.876 34.29 536.6584 34.1782 538.335 32.837 539.0056 32.7252 539.6762 33.0605 539.788 33.5076 539.8998 34.0664 540.1233 34.6253 541.6881 35.6312 542.247 36.0783 543.7 36.9725 546.2707 36.1901 547.7238 36.749 548.2826 38.202 547.0531 41.2198 548.0591 42.6728 549.4003 40.4374 549.8474 40.1021 550.6298 40.4374 551.4122 41.2198 551.9711 42.114 552.1946 42.8964 552.8652 44.3494 554.43 44.5729 557.3361 43.9023 558.342 45.8024 561.2481 56.8678 560.9128 57.3149 560.2421 58.6561 560.0186 59.3267 560.0186 60.3327 560.1304 60.4444 560.4657 60.5562 561.2481 61.2268 561.0245 60.7798 561.4716 60.668 562.0305 60.8915 562.4776 61.2268 562.5893 61.5622 562.3658 62.5681 562.4776 63.0152 563.707 65.1388 565.1601 72.0686 564.9365 72.851 564.8248 79.1102 564.713 80.2279 564.2659 81.681 564.2659 82.7987 564.4894 83.4693 564.9365 83.8046 565.3836 84.3635 565.4954 85.2576 565.0483 85.8165 564.3777 86.04 563.9306 86.3754 564.2659 87.7166 564.713 88.2755 566.9484 89.8403 568.8485 92.1875 570.1898 93.1934 571.1957 92.9699 572.6487 91.8521 574.3253 91.6286 575.8901 92.411 577.5667 93.864 577.1196 94.4229 576.7843 95.4288 576.7843 96.4348 577.2314 97.3289 577.902 97.9996 578.0138 98.5584 577.7902 99.229 577.5667 100.3468 578.4608 101.688 580.0256 103.0293 580.3609 104.0352 577.902 104.3705 577.4549 104.8176 577.6784 105.7118 578.1255 106.6059 578.4608 107.1648 578.7961 108.059 578.2373 108.8414 577.3431 109.512 576.896 110.2944 577.1196 112.5298 577.6784 113.8711 578.7961 114.6535 580.2492 114.877 580.808 115.7712 583.0435 121.0244 582.4846 121.9186 581.1433 123.2598 580.5845 124.154 580.6963 124.4893 581.7022 125.3835 581.814 125.9424 581.4787 126.3894 580.808 126.5012 580.2492 126.3894 579.9139 126.5012 579.2432 128.4013 579.1315 130.1897 579.355 131.978 580.6963 136.0018 581.7022 137.5666 584.1612 140.6961 585.1671 143.6022 584.0494 146.1729 579.9139 150.6438 579.1315 152.2086 578.5726 153.9969 578.0138 158.5795 577.5667 160.0326 577.5667 161.0385 577.902 161.7091 578.3491 162.1562 578.6844 162.6033 578.7961 163.4975 578.2373 164.9505 576.2254 167.9683 575.7783 169.4213 575.1077 174.8981 575.7783 184.0634 576.3372 191.7756 578.7961 197.4759 579.6903 198.8172 580.2492 200.382 579.9139 202.6174 578.7961 206.5294 579.0197 209.8825 585.726 222.9597 586.3966 225.0834 586.2848 226.5364 585.3906 228.1012 584.9436 230.2249 584.8318 232.4603 585.3906 234.1369 585.9495 234.6957 586.7319 235.031 587.7378 235.2546 588.7438 235.3663 589.638 235.5899 590.3086 236.037 590.6439 236.3723 592.4322 237.2664 593.2146 238.8312 594.4441 242.0726 595.7854 243.5256 596.9031 244.5316 597.7972 245.5375 598.1326 247.3259 598.2443 249.5613 598.8032 251.4614 599.8091 252.9144 611.8804 264.3151 615.2336 269.0095 616.463 269.6801 616.3513 270.1272 620.4868 273.5921 626.2989 277.1688 629.4285 278.1747 633.2287 281.6396 631.6639 282.0867 611.8804 286.8928 606.9625 287.1164 592.2087 282.3102 586.9554 282.0867 582.9317 282.5338 582.1493 282.7573 581.1433 283.3162 579.5785 284.7692 578.6844 285.3281 576.1136 285.9987 573.4311 285.7751 568.2897 284.5457 564.2659 284.3221 553.2006 287.787 549.7356 287.6752 524.0283 281.3043 502.4564 282.7573 501.227 282.7573 500.4446 283.0926 500.221 283.7633 500.221 284.6574 499.9975 285.5516 495.7502 294.0462 492.9559 297.8464 485.8025 304.1056 480.4375 311.9296 480.5493 313.1591 488.3733 319.4183 513.5218 348.4788 514.3042 352.279 515.9807 355.0733 535.5407 370.9448 555.1007 386.7045 556.5537 387.1516 557.3361 386.9281 558.1185 386.7045 558.9009 386.8163 559.6833 386.9281 560.9128 387.5987 564.3777 390.1694 565.1601 391.0636 565.6072 392.1813 566.166 392.6284 566.8366 392.8519 567.5073 393.4108 567.9543 394.1932 568.7367 396.4286 568.9603 397.5463 568.9603 398.3287 569.2956 398.9993 570.5251 399.3347 573.7664 399.7817 576.0019 400.5641 577.7902 401.7936 579.2432 403.582 583.0435 409.7294 588.0732 414.7591 589.4144 416.5474 591.7616 421.5771 603.6094 447.0609 609.0861 466.062 611.9922 473.4389 616.2395 476.4568 618.1396 476.5685 620.8221 477.1274 622.834 477.5745 622.7222 486.6279 621.6045 491.8812 619.1455 496.7991 615.5689 501.4935 614.8982 502.723 610.2039 509.2057 609.8685 510.547 611.5451 512.2235 611.3216 513.3413 610.9862 513.453 609.3097 513.5648 608.7508 513.6766 608.192 514.1237 607.5213 515.5767 607.186 516.1355 603.0505 519.3769 596.2325 523.1771 595.003 524.2948 592.9911 525.9714 591.3145 530.1069 590.085 532.2306 589.638 533.1248 589.5262 534.0189 589.9733 539.1604 589.7497 540.0546 588.9673 540.9487 586.9554 541.9547 586.173 542.4018 585.2789 543.8548 584.6083 545.5314 583.1552 551.0081 580.3609 558.7204 578.4608 562.4088 577.0078 566.4326 576.3372 567.7738 575.2195 568.668 569.9662 571.2387 568.5132 572.2447 567.2837 573.5859 566.3895 575.7096 556.3301 598.6227 554.0947 601.6405 553.8712 602.6464 554.2065 604.7701 554.3183 605.776 554.0947 606.6702 553.2006 608.3468 549.8474 612.5941 548.5062 613.7118 535.9878 619.7474 532.2993 619.7474 531.5169 621.0887 530.1757 622.7652 527.605 625.336 526.3755 625.6713 524.2518 627.6832 523.1341 628.6891 523.2459 629.0244 523.2459 629.5833 523.3576 630.0304 523.0223 630.8128 522.687 631.2598 522.3517 632.0422 522.0164 632.3776 521.5693 632.3776 520.6751 631.7069 520.2281 631.7069 519.5574 632.4893 519.3339 633.0482 519.4457 633.8306 520.2281 634.8365 520.8987 635.5072 522.0164 636.7366 523.2459 637.8543 524.5871 639.1956 525.146 640.6486 525.5931 642.2134 526.1519 643.5547 527.605 644.5606 529.1697 644.5606 531.964 644.8959 533.1935 644.6724 535.6525 643.2194 536.6584 643.3311 537.8879 645.1195 538.335 646.9078 539.5645 648.4726 540.1233 657.9732 540.7939 659.7615 540.1233 660.991 539.0056 665.7971 537.4408 669.8209 537.1055 671.1622 537.329 672.727 537.7761 673.9564 539.0056 676.0801 539.5645 677.4213 539.6762 678.5391 539.5645 681.2216 539.2292 682.1157 537.9997 684.5747 537.6644 686.0277 537.7761 688.5985 537.4408 689.6044 536.2113 690.0515 536.2113 690.7221 535.4289 692.1751 534.5348 693.5164 534.1994 693.9635 533.9759 695.0812 533.5288 696.646 532.7464 698.099 531.7405 699.105 530.9581 699.3285 531.2934 700.2227 532.7464 701.7875 534.5348 703.0169 538.335 704.2464 540.1233 705.1406 541.5763 706.5936 542.5823 708.382 543.2529 710.3938 543.5882 712.4057 543.5882 716.8766 543.9235 720.3415 543.3647 723.5828 543.3647 723.9182 543.2529 725.2594 543.5882 726.2653 544.1471 727.0477 544.5942 727.8301 544.3706 730.1773 544.7059 731.0715 545.2648 731.9657 545.7119 733.0834 546.9414 741.3545 546.8296 742.2486 546.4943 744.484 546.159 745.3782 546.0472 746.0488 546.6061 747.5019 547.1649 754.2081 548.3944 758.3437 550.6298 762.1439 553.8712 765.1617 567.8426 774.774 571.6428 776.2271 572.7605 776.7859 573.3194 777.6801 573.8782 779.9155 574.4371 781.145 577.5667 784.9452 578.9079 787.4042 579.6903 789.8631 580.5845 795.1164 580.6963 800.1461 581.2551 802.4933 582.2611 803.3875 583.6023 803.1639 584.9436 803.7228 585.5024 804.9523 585.8377 806.1817 586.2848 806.7406 587.5143 806.7406 588.8556 806.9641 589.9733 807.7465 590.1968 808.6407 588.4085 809.4231 586.5084 809.8702 583.0435 811.5468 581.3669 811.8821 579.9139 811.6585 577.0078 810.9879 575.5548 810.9879 580.6963 823.3945 588.2967 834.5716 595.4501 842.1721 596.3442 843.0662 602.2681 849.4372 609.645 857.2612 618.8102 866.9853 627.5284 876.2623 635.7994 884.9804 642.3939 892.022 643.0646 892.3573 643.7352 892.5809 644.8529 892.8044 645.1882 892.6926 646.1942 892.1338 646.6413 891.9102 647.2001 892.022 648.2061 892.6926 648.5414 892.8044 652.2298 892.3573 653.6828 892.9162 655.4712 894.2574 656.9242 896.1575 657.5948 897.8341 658.8243 902.305 659.0479 902.752 659.2714 903.1991 659.7185 903.5344 660.8362 903.0873 661.8421 902.8638 662.6245 902.9756 663.6305 903.3109 664.3011 904.0933 666.2012 906.7758 667.4307 909.6818 668.5484 911.582 669.4426 913.5938 669.6661 915.941 668.8837 917.9529 666.5365 920.3001 666.2012 922.6473 666.5365 925.6651 666.5365 926.8946 666.7601 927.677 667.6542 927.677 668.8837 927.4535 670.0014 927.5652 671.0074 927.7888 670.225 929.0183 669.5543 930.3595 669.219 931.2537 669.4426 933.1538 670.7838 936.1716 671.1191 937.96 670.6721 939.6365 669.3308 942.6543 669.219 944.6662 669.5543 945.7839 670.6721 947.7958 671.1191 949.4724 671.1191 952.7138 671.2309 953.4961 671.9015 955.2845 673.0193 957.5199 674.6958 959.42 675.2547 960.3142 675.59 961.0966 675.8135 961.879 675.9253 963.6673 676.1488 964.1144 677.3783 964.8968 677.7136 965.1204 677.7136 965.9028 677.2666 967.0205 677.1548 967.9146 678.2725 968.4735 678.6078 968.8088 679.0549 969.1441 679.6138 969.9265 678.8314 970.9325 675.2547 973.615 673.6899 972.0502 671.9015 971.7149 670.4485 972.609 669.8897 974.5091 668.8837 976.521 668.6602 977.527 668.7719 978.6447 669.219 979.4271 669.4426 980.2095 669.219 981.4389 668.9955 981.5507 668.6602 981.5507 668.3249 981.6625 667.9895 981.9978 667.8778 982.5567 667.8778 983.0037 667.9895 983.2273 668.1013 984.0097 668.4366 984.6803 668.4366 985.4627 667.0954 987.3628 666.8718 988.257 666.9836 991.4983 667.3189 991.9454 667.8778 992.169 668.6602 992.8396 670.225 995.5221 673.131 1003.2343 675.2547 1012.9584 675.0311 1014.4114 674.0252 1014.7468 672.1251 1014.1879 671.3427 1014.4114 667.4307 1020 663.9658 1015.5292 663.1834 1014.0761 663.1834 1013.182 663.5187 1012.2878 663.6305 1011.3936 663.1834 1010.3877 662.5128 1009.7171 661.5068 1009.3817 660.5009 1009.3817 659.6067 1009.8288 658.0419 1009.27 656.3653 1008.8229 655.0241 1008.264 654.8006 1006.811 653.7946 1007.3699 652.6769 1007.8169 651.5592 1007.8169 651.1121 1007.1463 650.8886 1005.8051 650.3297 1005.1344 649.4355 1004.6873 647.4237 1003.3461 645.0765 1002.5637 643.9587 1002.0048 640.6056 997.6458 639.935 997.3105 637.8113 996.9751 636.8054 996.5281 635.7994 995.9692 635.4641 995.6339 627.0813 994.6279 619.5926 992.5043 615.7924 991.7219 611.8804 992.2807 607.4096 994.9633 605.6212 995.5221 603.9447 996.4163 602.9387 996.5281 602.9387 996.3045 600.9268 995.4103 600.4798 995.2986 599.8091 994.6279 599.6974 994.1809 599.8091 993.7338 599.9209 992.6161 599.6974 991.9454 599.2503 991.2748 598.5796 990.716 595.5618 989.5982 595.1147 989.3747 594.7794 988.7041 594.2206 987.3628 593.7735 986.9157 591.9851 986.1333 590.5321 986.5804 589.4144 987.0275 586.6201 986.0216 585.3906 988.5923 584.1612 988.1452 583.6023 988.1452 582.7081 989.5982 581.2551 990.9395 579.8021 991.3866 578.7961 989.8218 577.1196 990.3806 575.7783 990.0453 571.531 986.6922 570.6369 986.5804 569.9662 988.7041 569.1838 989.1512 567.2837 989.3747 563.8188 989.0394 564.1541 986.9157 565.0483 984.4568 563.3717 983.2273 563.0364 982.4449 561.9187 980.6565 560.6892 979.4271 560.0186 979.9859 560.0186 980.9919 559.9068 982.1096 559.2362 982.892 557.8949 983.2273 552.5299 983.8979 552.3064 983.4508 552.3064 981.4389 552.1946 980.8801 551.7475 980.8801 550.9651 981.1036 550.071 981.1036 549.1768 980.8801 549.7356 980.6565 551.0769 979.6506 548.6179 978.4211 548.0591 978.6447 548.6179 980.8801 547.2767 980.3212 545.6001 978.5329 544.3706 977.7505 542.1352 977.8623 541.241 977.4152 542.0234 976.0739 539.8998 975.068 536.9937 971.8266 534.6465 971.2678 534.1994 971.8266 533.4171 972.609 533.4171 973.3914 533.6406 974.1738 533.4171 974.9562 532.5229 975.1798 525.5931 976.7446 523.8047 977.8623 523.3576 977.974 522.0164 977.7505 520.3398 976.1857 518.9986 975.2915 513.41 974.6209 509.498 976.0739 508.7156 976.1857 499.4386 976.0739 485.4672 975.9622 469.7075 975.8504 455.5125 975.7386 451.8241 975.7386 438.188 975.5151 423.0989 975.4033 423.0989 973.2796 423.4342 970.5971 423.0989 969.3677 422.2047 968.2499 420.8635 967.1322 419.5222 966.1263 418.5163 965.6792 417.9574 965.791 416.7279 966.3498 415.8338 966.3498 415.2749 966.1263 414.0454 965.1204 411.5865 964.6733 408.904 964.5615 408.1216 964.8968 407.1156 965.5674 405.3273 967.244 404.5449 967.6911 400.7447 968.1382 398.2857 967.0205 396.9444 966.6851 395.715 967.244 394.709 967.5793 393.1442 967.3558 390.5735 966.3498 389.6793 967.244 388.6734 967.5793 387.5557 967.4675 386.3262 967.0205 385.5438 968.0264 383.7554 967.6911 381.7436 966.7969 380.2905 966.3498 379.1728 966.7969 378.1669 967.6911 376.9374 968.4735 375.1491 968.8088 363.1895 967.0205 361.1777 966.2381 359.7246 965.1204 357.7128 965.6792 356.148 965.1204 351.23 963.5556 347.8769 963.332 342.959 964.4497 341.3942 964.1144 338.4881 962.3261 337.4822 961.9908 336.588 962.1025 334.7997 962.9967 333.7937 963.332 332.1172 963.5556 328.764 964.6733 326.9757 965.0086 323.1755 964.785 319.5988 964.2262 318.034 964.2262 312.7807 964.5615 306.1862 964.2262 299.3682 964.785 291.656 964.5615 288.7499 964.8968 287.4087 964.785 282.8261 963.332 281.0377 961.879 280.1436 961.3201 278.9141 961.2084 277.7964 961.4319 275.5609 962.3261 252.089 963.1085 251.8655 963.8909 252.3125 965.1204 252.4243 966.2381 251.8655 967.4675 251.1948 968.4735 250.636 969.4794 250.5242 970.8207 250.5242 971.9384 250.3007 973.0561 249.9653 974.062 249.4065 975.068Z" />
</svg>