<?xml version="1.0" encoding="utf-8"?>
<svg xmlns="http://www.w3.org/2000/svg" viewBox="0 0 856 1024" style="stroke-width:0.25px;stroke-linejoin:round;stroke:#444;fill:#ddd" fill-rule="evenodd">
  <path class="CO" d="M167.0717 694.9795L167.9764 694.5272 167.524 693.5093 166.8455 692.9439 166.0539 692.3785 165.6015 691.813 165.4884 690.9083 165.6015 689.7774 165.6015 688.7596 165.2622 687.8549 164.8099 687.7418 164.1313 688.081 163.0004 688.6465 162.5481 688.081 161.8695 687.5156 161.191 687.4025 160.6256 686.9501 159.3816 686.2716 158.8161 685.9323 157.3459 685.0276 156.5543 684.1229 155.9889 683.3313 156.3281 682.3134 156.7805 681.748 157.6852 681.4087 158.703 681.1825 159.7208 680.1647 160.6256 678.4684 161.4172 677.4506 162.8874 675.9804 164.1313 674.6233 164.923 673.7186 166.0539 672.8139 168.768 672.1354 170.012 672.3615 171.0298 672.2484 172.2738 672.5877 173.4047 673.0401 174.5356 673.3793 176.4581 673.4924 177.8152 673.7186 179.3985 673.9448 179.7378 674.0579 180.077 674.6233 180.6425 674.9626 181.2079 675.1888 181.7734 675.0757 181.7734 674.2841 181.8865 673.8317 181.9996 672.927 182.7912 672.0223 183.2435 670.5521 182.7912 669.6474 182.9043 668.8557 182.9043 668.6296 183.1305 668.2903 183.2435 667.951 183.2435 667.4987 183.1305 667.1594 182.9043 667.3856 182.565 668.0641 181.7734 668.5165 180.6425 668.5165 180.3032 667.7248 180.3032 666.707 180.5294 665.463 180.5294 664.6714 180.8687 663.2012 180.9817 662.5227 180.7556 662.0703 180.3032 661.5049 179.7378 660.9394 179.1723 660.7133 178.4938 661.1656 178.0414 661.8442 177.476 663.6536 176.7974 663.9929 176.3451 663.5405 176.3451 662.4096 176.1189 660.8264 175.4403 658.7907 174.8749 656.0766 174.4225 654.1541 174.1963 651.6661 174.8749 650.309 175.5534 648.7257 176.0058 647.2556 177.589 646.577 178.0414 644.9938 179.7378 641.9403 180.9817 639.4524 181.6603 637.756 182.4519 636.8513 182.1126 637.756 182.1126 638.7738 182.2257 639.6785 182.4519 640.6963 183.3566 638.0953 183.809 635.268 184.4875 634.1371 185.5053 634.4764 186.9755 632.667 188.3326 630.9706 189.8028 628.935 190.9337 628.4826 191.9515 627.4648 193.1955 626.3339 194.6656 625.4292 195.3442 625.4292 195.9096 626.7863 196.5882 628.3695 197.4929 629.8397 198.6238 631.423 199.9809 631.5361 199.3023 629.5004 198.963 627.9172 199.0761 626.1077 199.5285 625.3161 200.3201 624.5245 200.9987 625.5423 201.451 627.2386 201.1118 628.5957 201.6772 629.5004 202.1296 630.7444 202.5819 631.7622 203.4866 632.667 203.939 633.0062 205.9746 634.024 206.8793 634.3633 207.4448 634.2502 208.4626 633.6848 209.5935 633.3455 209.5935 633.0062 209.5935 632.5539 209.5935 632.2146 209.5935 632.1015 209.7066 631.7622 209.8197 631.5361 209.8197 629.5004 209.5935 628.5957 209.3673 627.691 208.8019 626.7863 208.4626 625.7685 209.028 625.203 210.272 625.4292 210.8375 625.0899 212.1946 624.9768 213.3255 625.0899 214.2302 624.9768 215.0218 624.5245 216.2658 623.7329 217.3967 623.8459 218.1883 624.6376 218.7538 625.6554 219.2061 626.3339 219.8847 626.447 220.9025 626.2208 220.4501 627.1256 219.8847 628.2565 219.9978 629.2743 221.1287 629.7266 221.8072 629.8397 222.9381 630.0659 223.7297 630.179 225.1999 629.8397 225.8785 629.7266 227.2355 629.5004 228.2533 628.5957 228.8188 627.5779 228.7057 626.5601 228.3664 625.8816 227.801 624.8638 226.8963 624.0721 226.1046 623.8459 226.1046 623.5067 227.2355 623.5067 227.2355 623.0543 226.4439 622.9412 226.1046 622.4889 226.1046 622.0365 226.4439 621.4711 225.7654 621.358 225.6523 621.0187 225.7654 620.4533 226.1046 619.8878 225.5392 619.7747 225.313 619.6616 225.1999 619.3224 225.313 618.7569 226.2177 619.0962 227.1224 618.7569 227.801 618.1915 228.5926 617.9653 228.9319 617.8522 229.4973 617.7391 229.8366 617.5129 229.6104 617.1736 229.045 617.0606 228.1402 617.5129 227.6879 617.5129 226.7832 616.9475 227.0093 616.6082 227.6879 616.1558 228.0272 615.8166 228.3664 615.9297 229.2711 616.1558 230.402 616.1558 231.1937 616.0427 231.4199 616.382 231.7591 616.8344 231.8722 617.1736 232.3246 617.1736 231.7591 615.9297 229.7235 615.3642 230.402 614.3464 231.1937 613.894 232.0984 613.7809 232.89 613.6679 233.5686 612.8762 234.0209 613.1024 234.4733 613.3286 234.8126 613.6679 235.0387 614.0071 235.378 612.65 234.134 612.3108 232.3246 612.537 231.1937 613.2155 230.8544 612.3108 230.8544 611.0668 231.0806 609.9359 231.8722 609.2573 232.6638 609.3704 233.2293 609.8228 233.6817 610.3882 234.2471 610.8406 234.9256 611.0668 235.1518 610.9537 235.1518 610.6144 235.4911 610.049 235.9435 609.5966 236.2827 609.3704 236.2827 609.1443 236.2827 608.4657 236.0565 608.2395 235.2649 608.0134 235.0387 607.7872 235.0387 607.4479 235.378 607.2217 235.6042 606.5432 235.9435 606.4301 236.0565 606.317 235.8304 605.7516 235.4911 605.5254 235.0387 605.5254 234.5864 605.5254 234.2471 604.9599 234.2471 605.4123 234.134 605.4123 234.134 605.5254 234.2471 605.7516 233.6817 606.0908 233.0031 606.2039 232.5508 605.9777 232.3246 605.4123 230.8544 606.6563 230.402 606.9955 230.402 606.2039 232.5508 603.7159 233.9078 601.9065 234.6995 601.0018 239.11 597.2698 240.2409 595.1211 240.9194 593.8771 241.711 593.6509 242.6158 594.1033 242.8419 593.5378 242.955 592.9724 243.0681 592.4069 243.4074 592.4069 243.9728 592.52 244.3121 592.1808 243.9728 591.6153 243.0681 591.163 242.2765 591.5022 240.9194 591.6153 240.8063 591.163 241.4849 590.2582 242.8419 589.0142 243.8598 588.4488 245.2168 587.8833 244.4252 587.2048 244.5383 586.0739 244.9907 585.3954 245.5561 584.8299 246.2346 584.3776 246.8001 584.4907 247.8179 584.2645 248.6095 584.1514 248.8357 584.0383 249.9666 583.0205 251.2106 585.3954 252.1153 586.3001 253.5855 586.8655 253.2462 586.187 251.3237 583.9252 250.8713 583.1336 250.7582 582.1158 250.9844 581.211 251.5499 580.5325 251.776 581.098 252.1153 581.5503 252.5677 581.8896 252.6808 581.5503 252.5677 581.211 252.1153 580.4194 252.0022 580.1932 252.2284 579.0623 252.7939 578.0445 253.1331 577.0267 252.6808 575.8958 253.3593 575.7827 253.9248 575.8958 253.6986 576.122 253.5855 576.4613 253.5855 576.8005 253.5855 577.2529 253.6986 577.7053 254.0378 577.7053 254.6033 577.2529 255.6211 577.366 255.8473 577.4791 256.4127 578.0445 256.6389 578.1576 256.6389 577.7053 256.4127 577.2529 255.9604 576.9136 255.508 576.6874 255.7342 576.5744 255.9604 576.3482 256.1866 576.2351 255.1687 575.8958 254.7164 575.8958 254.9426 575.3304 255.1687 575.2173 255.3949 575.3304 255.8473 575.5565 256.0735 574.6518 255.2818 574.3126 254.0378 574.4256 253.1331 574.6518 253.3593 573.7471 254.0378 573.634 254.9426 573.8602 255.8473 573.8602 255.6211 573.7471 254.9426 573.2947 254.7164 573.1817 255.0557 573.0686 255.1687 572.8424 255.3949 572.8424 255.8473 572.7293 255.7342 572.5031 255.508 571.9377 256.6389 571.7115 257.8829 571.5984 257.8829 571.9377 257.5436 572.39 258.1091 572.39 259.8054 571.9377 259.0138 571.7115 258.7876 571.2591 259.0138 570.8068 260.0316 569.5628 260.3709 568.8842 260.9363 567.1879 261.6149 567.6402 262.0672 567.7533 262.5196 567.6402 263.085 567.0748 263.7636 566.7355 264.6683 566.6224 265.0076 566.2832 264.1028 566.057 263.4243 566.1701 262.6327 566.3963 262.0672 566.3963 261.728 565.4915 262.1803 565.3785 263.085 565.1523 263.9898 564.813 264.5552 564.0214 263.5374 564.2476 261.1625 564.813 260.3709 564.4737 260.1447 563.569 260.2578 562.5512 260.5971 561.7596 262.1803 562.8905 263.085 563.1167 264.329 563.2297 264.5552 563.1167 264.4421 562.8905 264.1028 562.6643 263.5374 562.5512 262.8589 562.5512 262.4065 562.4381 262.0672 562.2119 261.728 561.7596 262.7458 561.7596 263.5374 561.6465 264.1028 561.1941 264.5552 560.5156 263.6505 559.9501 263.085 559.2716 263.1981 558.48 264.1028 557.8014 264.5552 558.0276 264.8945 558.3669 264.8945 558.8192 264.8945 559.3847 265.7992 558.5931 265.3468 557.3491 265.2337 556.3313 267.8348 555.4265 268.6264 554.5218 269.1919 553.3909 269.9835 552.7124 269.9835 552.26 266.4777 553.0516 266.4777 552.7124 266.9301 552.4862 267.2694 552.26 265.7992 552.3731 265.1207 552.26 264.5552 551.9207 264.7814 554.4087 261.3887 556.3313 257.3175 557.0098 255.0557 555.8789 255.1687 555.3134 256.0735 554.8611 256.1866 554.4087 256.0735 554.1825 255.0557 553.7302 254.3771 553.2778 254.0378 553.2778 253.9248 553.0516 253.9248 552.4862 253.9248 552.0338 254.0378 551.5815 254.264 551.1291 254.6033 549.6589 254.9426 549.0935 255.508 548.7542 256.2996 548.6411 256.8651 548.7542 256.8651 549.2066 256.1866 549.8851 259.0138 549.4328 259.8054 549.0935 259.8054 548.7542 257.8829 549.0935 258.1091 548.415 258.4484 547.7364 260.0316 545.927 260.9363 544.0045 260.3709 544.0045 260.0316 543.8914 259.9185 543.6652 259.8054 543.2128 258.9007 543.439 258.2222 542.9866 257.5436 542.195 256.6389 541.6296 256.8651 542.195 256.9782 542.7605 256.8651 543.439 256.6389 544.0045 256.1866 543.6652 255.6211 543.6652 255.1687 543.6652 254.7164 544.0045 254.7164 544.3437 254.9426 544.683 254.8295 544.7961 254.7164 545.2484 254.3771 545.0223 254.264 544.9092 254.0378 544.9092 253.5855 544.7961 253.6986 545.8139 253.5855 547.5102 253.1331 548.8673 252.5677 549.5459 252.3415 549.8851 252.1153 551.4684 252.0022 551.9207 251.0975 551.9207 250.3059 551.4684 250.0797 550.6768 250.419 549.8851 247.4786 547.6233 247.1394 547.0579 246.9132 546.1532 247.1394 545.3615 248.3833 545.2484 247.7048 544.3437 247.4786 544.0045 247.1394 542.4212 246.9132 540.6118 246.9132 538.9154 247.0263 538.1238 247.3655 537.4452 248.0441 536.8798 248.8357 536.7667 249.6273 536.8798 250.1928 536.7667 250.419 535.9751 250.6451 535.5227 251.2106 535.1834 251.8891 534.9573 252.5677 535.1834 253.4724 536.3143 253.8117 536.4274 254.7164 536.2012 255.7342 535.5227 256.6389 534.7311 258.2222 532.5824 253.4724 532.5824 252.5677 532.3562 251.776 531.4515 249.6273 527.9457 251.2106 525.5708 251.5499 524.6661 252.0022 522.2912 252.5677 521.3865 253.9248 520.7079 253.9248 520.3687 252.6808 520.7079 252.9069 519.1247 253.4724 516.4105 253.5855 508.6073 253.6986 509.0597 253.9248 509.512 254.264 509.8513 254.7164 510.1906 254.9426 509.6251 255.0557 508.6073 254.9426 507.8157 253.5855 507.024 253.3593 506.3455 253.2462 505.4408 253.1331 504.6492 254.3771 504.7622 255.3949 505.4408 256.1866 506.4586 256.6389 507.3633 256.9782 507.3633 256.2996 505.5539 253.9248 502.6135 253.5855 500.691 253.2462 500.8041 252.5677 501.0303 252.3415 501.1434 251.776 498.7685 251.0975 491.4176 250.7582 490.3998 250.419 481.805 250.7582 479.8825 251.2106 477.9599 252.0022 476.2636 251.0975 475.8112 251.0975 474.5672 251.2106 473.3232 250.9844 472.6447 250.419 472.1923 250.0797 471.0614 249.9666 468.7996 249.175 469.0258 248.6095 468.7996 248.3833 468.1211 248.3833 467.2164 248.8357 467.2164 249.0619 467.4426 249.2881 467.5557 249.5142 467.5557 249.9666 467.2164 249.4012 466.764 249.175 466.3117 248.7226 464.5022 248.8357 464.276 248.7226 464.0499 248.3833 463.7106 248.1572 463.5975 247.2524 463.3713 246.8001 463.2582 246.2346 462.6928 245.7823 462.0142 245.3299 461.5619 244.5383 461.3357 243.6336 461.3357 243.0681 461.4488 242.7289 461.9012 242.5027 462.4666 241.8241 461.9012 241.1456 461.9012 240.5801 462.1273 240.1278 462.1273 239.7885 461.4488 239.9016 460.8833 240.4671 460.5441 241.1456 460.431 241.711 459.8655 242.955 457.0383 243.6336 456.1336 244.199 456.0205 245.443 455.9074 246.0085 455.7943 246.687 455.2289 247.2524 454.7765 247.8179 454.3241 248.6095 454.211 249.6273 454.5503 250.5321 455.1158 251.4368 455.455 252.6808 455.0027 253.1331 454.6634 253.2462 454.3241 253.2462 453.8718 253.5855 453.4194 253.5855 453.1932 253.4724 452.5147 253.5855 452.1754 253.8117 452.1754 254.1509 452.1754 254.4902 452.2885 254.7164 452.0623 254.9426 451.3838 255.6211 450.9314 256.2996 450.4791 256.8651 450.0267 257.2044 449.4613 257.5436 448.7827 257.7698 448.1042 257.8829 447.4256 257.6567 445.0508 256.8651 443.0151 254.4902 439.2832 254.264 439.057 253.9248 438.8308 253.8117 437.4737 251.5499 431.3669 251.0975 431.3669 251.0975 432.837 250.7582 432.837 249.8535 430.3491 248.3833 428.0873 244.8776 423.7898 244.3121 422.772 244.0859 421.9804 244.0859 419.6055 244.5383 417.5699 244.5383 416.5521 244.0859 415.8736 244.5383 415.5343 246.687 417.3437 248.0441 419.0401 248.6095 418.5877 249.175 417.683 249.9666 415.5343 250.1928 414.4034 250.1928 413.3856 250.1928 412.5939 249.9666 411.9154 248.9488 410.4452 249.0619 409.9929 250.419 409.5405 250.5321 409.8798 250.7582 410.106 250.9844 410.2191 251.0975 410.3321 251.4368 409.4274 251.2106 408.6358 250.6451 408.0703 249.9666 407.618 249.9666 407.1656 250.8713 405.6955 251.0975 404.7907 251.0975 403.6598 251.8891 402.7551 252.1153 401.5111 252.0022 400.1541 251.5499 399.2493 249.6273 397.7792 249.175 397.3268 248.9488 396.8744 248.6095 396.5352 248.0441 396.1959 248.0441 395.5174 248.3833 394.2734 248.3833 393.5948 248.2703 392.8032 247.8179 392.577 247.2524 392.3508 245.3299 391.333 243.9728 391.5592 242.8419 392.4639 242.1634 393.3687 242.3896 393.7079 242.5027 394.1603 242.0503 394.2734 241.8241 394.3865 241.3718 394.6126 241.0325 394.6126 240.9194 393.1425 241.0325 392.4639 241.3718 391.7854 238.9969 386.6963 237.866 385.1131 236.1696 383.5298 235.378 382.9644 233.7947 382.6251 233.5686 382.2858 233.3424 382.0597 232.6638 382.2858 232.5508 382.6251 232.5508 383.1906 232.4377 383.6429 231.8722 383.8691 231.646 379.911 232.0984 378.2146 233.6817 377.5361 234.3602 376.5183 233.6817 374.2565 231.8722 370.8638 231.5329 370.8638 231.8722 371.5423 232.0984 371.7685 232.3246 371.9947 232.3246 372.447 231.8722 372.447 230.9675 371.0899 226.6701 366.5663 226.1046 366.2271 225.0868 366.114 224.5214 365.7747 224.1821 365.0962 223.7297 364.4176 222.9381 364.0784 223.2774 363.7391 222.5988 363.5129 221.9203 362.9475 220.9025 361.7035 220.4501 361.5904 222.825 354.1264 224.8606 347.6803 226.2177 347.9065 227.4617 347.7934 228.5926 347.1149 229.3842 345.984 229.9497 344.5138 229.7235 343.2698 228.4795 340.7818 227.9141 338.9724 227.6879 336.4844 228.0272 334.4488 229.3842 333.6572 229.9497 333.9964 232.89 336.3713 233.4555 337.0499 233.3424 337.163 233.1162 337.7284 233.1162 337.9546 233.3424 338.0677 233.7947 338.1808 233.9078 338.2939 235.4911 340.4426 235.9435 341.2342 236.622 344.1745 237.3005 344.74 238.5445 344.6269 240.0147 343.496 242.6158 340.8949 250.6451 335.8059 252.3415 334.3357 252.0022 333.2048 250.7582 332.187 250.0797 330.4907 250.1928 329.699 251.8891 327.5503 253.3593 324.2707 254.6033 323.0267 256.2996 322.122 258.2222 321.4435 260.0316 321.1042 262.0672 321.1042 262.4065 320.878 261.9541 319.9733 261.3887 319.4078 260.8232 318.9555 260.2578 318.39 259.9185 317.5984 259.8054 316.2413 258.5614 311.7177 256.8651 308.4381 256.4127 307.6465 254.9426 305.4978 253.6986 302.8967 253.2462 302.3313 252.4546 301.992 251.776 301.8789 250.9844 301.6527 250.3059 300.6349 249.8535 298.5993 249.4012 294.6411 248.6095 292.6055 247.5917 291.0223 247.0263 290.4568 246.0085 290.1175 244.3121 290.3437 243.8598 290.0045 243.8598 288.6474 244.3121 286.951 244.8776 286.2725 246.5739 284.5761 247.2524 283.106 247.1394 282.0882 246.9132 281.4096 246.9132 281.0703 247.931 280.3918 248.8357 280.2787 249.7404 280.1656 250.3059 279.7133 250.419 278.9216 250.419 278.6955 250.5321 278.4693 250.6451 278.3562 250.7582 278.13 251.663 278.6955 252.2284 280.7311 252.9069 281.862 253.5855 282.5405 254.264 283.3321 254.7164 284.1238 255.0557 285.2547 255.6211 287.5165 256.0735 288.6474 259.8054 291.2484 262.6327 292.3793 263.5374 293.0579 264.1028 293.7364 268.7395 301.4265 269.9835 302.3313 270.7752 302.4443 272.3584 302.5574 272.5846 302.5574 273.15 302.6705 273.4893 301.992 273.9417 301.992 274.2809 302.5574 274.2809 303.4622 273.9417 303.4622 273.7155 303.3491 273.4893 303.1229 273.4893 304.5931 273.9417 305.6109 274.6202 305.9501 275.5249 305.4978 275.5249 306.7418 276.3166 305.837 276.5427 306.5156 275.9773 307.4203 275.8642 308.325 275.638 308.2119 274.9595 307.9858 274.7333 307.8727 275.0726 309.9083 276.4297 310.813 277.7867 310.5868 277.8998 309.4559 281.4056 309.4559 281.0663 310.0214 280.7271 310.5868 280.614 311.1523 280.614 311.8308 281.0663 311.8308 281.1794 311.7177 281.7449 311.3785 281.7449 311.8308 279.8224 312.6224 279.8224 312.9617 280.2747 313.0748 280.614 313.301 281.1794 313.7533 281.0663 313.8664 281.0663 314.0926 281.0663 314.2057 280.7271 313.9795 280.3878 313.7533 280.0485 313.7533 279.4831 313.7533 279.9354 314.3188 280.5009 314.6581 281.0663 315.1104 281.4056 315.789 279.9354 315.1104 278.4653 314.6581 277.1082 314.8842 276.3166 315.789 276.3166 316.0151 276.3166 316.1282 276.4297 316.1282 276.6558 316.1282 275.638 319.4078 277.1082 321.4435 280.1616 322.4613 283.7805 322.5744 284.459 322.4613 285.1376 322.122 285.703 321.7827 286.1554 321.3304 286.2685 320.878 286.2685 320.5387 286.1554 320.0864 286.1554 319.634 286.2685 319.0686 286.7208 318.5031 286.8339 317.9377 287.2863 314.4319 287.1732 312.8486 286.4947 311.3785 286.2685 311.9439 286.2685 312.1701 286.2685 312.5093 286.4947 312.9617 286.1554 312.9617 285.8161 312.057 285.5899 310.813 285.5899 309.4559 286.2685 307.4203 286.0423 306.1763 285.2507 304.3669 284.9114 302.4443 285.0245 294.3019 284.6852 293.2841 283.8936 292.8317 283.102 292.4924 282.7627 291.7008 282.5365 290.683 282.1972 289.6652 281.0663 288.4212 279.2569 287.1772 277.1082 286.1594 275.5249 286.0463 275.5249 286.4987 274.8464 285.8201 275.7511 284.35 277.2213 282.6536 277.8998 281.5227 283.5543 279.7133 284.9114 279.6002 290.5659 278.0169 291.2444 277.5646 291.5837 277.1122 291.5837 276.4337 291.6968 275.8682 291.923 275.1897 292.3753 274.9635 292.3753 274.5111 292.0361 274.5111 292.0361 274.1719 293.0539 273.9457 297.012 272.4755 297.8037 271.9101 300.2916 269.4221 303.232 267.3865 304.589 266.1425 304.589 265.8032 304.1367 265.1247 304.589 264.6723 308.0948 263.7676 309.4519 262.976 310.4697 262.8629 311.0352 262.5236 311.2614 261.9581 311.8268 261.2796 313.9755 259.6963 314.4279 259.0178 313.8624 256.9822 314.4279 255.3989 315.5588 254.0419 317.4813 252.3455 318.0467 251.667 318.386 250.7622 319.0646 246.0125 319.4038 245.1077 319.7431 245.1077 321.4394 244.4292 321.6656 244.3161 322.3442 244.0899 322.6834 243.4114 322.5703 242.3936 322.6834 241.3758 322.9096 240.8103 323.5882 240.1318 324.1536 239.7925 324.606 239.5663 326.9809 238.7747 328.7903 238.2093 330.3736 237.3045 331.7306 236.1736 331.8437 234.7035 332.2961 233.9118 333.5401 234.0249 334.2186 234.5904 336.1411 234.4773 338.0637 234.138 339.4207 233.5726 339.8731 233.6857 340.3255 234.0249 340.6647 234.4773 340.6647 235.1558 339.8731 234.8166 338.9684 234.7035 338.1768 234.9297 337.4982 235.6082 337.9506 235.8344 338.2898 235.9475 338.6291 235.8344 339.0815 235.6082 339.4207 235.9475 339.6469 236.0606 339.76 236.2867 339.8731 236.7391 341.5695 235.4951 342.7004 235.0427 344.0574 234.8166 345.3014 234.9297 346.3192 235.2689 346.4323 235.2689 347.7894 235.7213 348.6941 235.1558 350.8428 233.2333 352.1999 230.5191 353.3308 226.7872 353.3308 223.3945 352.7654 221.8112 351.9737 221.0196 351.6345 220.5672 350.9559 219.4363 350.0512 219.4363 349.2596 218.8709 348.6941 218.5316 347.5632 218.5316 346.7716 218.8709 346.0931 219.3232 345.98 218.7578 349.1465 215.5913 349.7119 214.008 350.7297 210.8415 350.6167 209.4844 350.9559 208.2404 351.7476 206.6572 352.313 204.6215 352.6523 203.4907 352.5392 202.2467 353.3308 198.9671 353.4439 197.0445 352.6523 195.122 352.6523 193.878 352.8785 193.5387 353.1046 193.3126 353.557 193.1995 354.0093 192.9733 354.2355 192.634 354.801 191.39 355.2533 190.7115 355.3664 190.3722 355.5926 189.8068 355.7057 189.1282 355.5926 188.5628 355.7057 187.9973 355.9319 187.4319 354.1224 188.4497 351.7476 190.0329 349.4858 192.4078 347.1109 193.7649 346.0931 193.5387 346.8847 191.6162 348.581 190.7115 349.3727 190.146 349.825 189.5806 350.2774 189.0151 350.5036 188.2235 351.069 187.545 351.1821 186.8664 350.9559 186.1879 351.1821 185.7355 352.4261 185.7355 352.0868 185.2832 352.0868 184.7177 352.0868 184.2654 352.4261 183.813 352.8785 184.9439 354.1224 184.7177 356.1581 183.3606 356.8366 182.7952 356.8366 181.5512 356.4973 179.9679 356.3842 178.6109 355.9319 178.6109 355.4795 178.9501 355.1402 178.4978 354.801 177.0276 354.3486 177.0276 354.2355 177.5931 354.0093 177.9323 353.7832 178.1585 353.2177 178.1585 353.4439 177.7061 353.7832 176.6883 354.0093 176.236 354.3486 175.8967 355.0272 175.5574 355.3664 175.2182 357.0628 173.4087 357.5151 172.9564 357.289 173.9742 356.6104 175.2182 356.4973 176.236 357.402 176.5752 358.0806 176.1229 358.4199 174.8789 358.5329 173.4087 358.3068 172.1647 358.0806 171.9386 357.7413 171.8255 357.1759 171.8255 357.1759 171.4862 357.5151 170.6946 357.5151 170.5815 357.5151 169.9029 357.5151 169.3375 357.289 168.772 356.4973 168.6589 356.2711 168.4328 356.6104 167.8673 357.1759 167.3019 357.7413 167.0757 358.4199 166.9626 359.0984 166.7364 359.7769 166.2841 360.3424 165.8317 360.3424 165.4924 359.89 164.927 359.89 164.7008 360.1162 164.5877 360.5686 164.3615 360.6817 164.2484 361.134 164.0223 361.6995 164.0223 362.0387 163.9092 362.2649 163.2306 362.4911 163.2306 362.8304 162.6652 363.2827 162.0997 363.2827 161.7605 363.622 161.6474 364.9791 161.0819 368.711 160.0641 369.3896 159.6118 369.955 158.707 370.2943 158.1416 370.6336 158.0285 370.9728 158.2547 371.3121 158.2547 371.5383 158.4809 371.6514 158.8201 371.5383 159.0463 371.3121 159.2725 371.3121 159.4987 371.6514 159.8379 371.6514 160.0641 371.6514 160.2903 372.1037 160.2903 372.443 159.7248 373.687 158.5939 373.3477 158.1416 373.2346 157.6892 373.2346 157.2369 373.2346 156.6714 372.3299 157.463 372.1037 157.8023 370.8598 157.2369 370.6336 156.106 371.0859 155.0882 373.1215 154.4096 374.0263 153.2787 374.5917 152.9394 375.2703 152.9394 375.9488 152.8264 376.5142 152.4871 380.1331 150.1122 382.3949 149.5467 383.5258 148.8682 384.3175 147.9635 384.2044 147.0588 384.4305 146.4933 384.7698 145.1362 384.996 144.6839 385.5614 144.2315 386.3531 143.8923 387.3709 143.8923 388.5018 143.4399 389.1803 142.5352 390.6505 141.5174 390.7636 140.4996 392.3468 140.4996 394.2694 140.2734 395.1741 139.4817 395.1741 138.4639 395.061 137.4461 394.9479 137.1069 395.2872 136.7676 396.7573 137.4461 398.0013 137.8985 401.0548 138.9163 406.7093 141.1781 410.8936 142.6483 413.7208 143.3268 416.6612 143.7792 420.5062 144.1184 424.3513 143.8923 426.6131 143.6661 425.7084 144.2315 422.8811 144.797 417.4528 144.6839 416.7743 144.5708 416.0957 144.3446 415.5303 144.3446 414.8517 144.6839 414.6256 145.1362 414.7386 145.8148 414.7386 146.3802 414.2863 146.6064 414.0601 147.398 414.6256 149.0944 416.0957 151.8085 415.191 151.3562 414.2863 150.4515 413.6077 149.886 412.9292 150.5646 412.4768 149.9991 411.1198 149.9991 410.3281 149.6598 409.8758 149.886 409.4234 150.7907 409.0841 152.0347 408.9711 152.8264 408.9711 154.6358 408.9711 155.4274 409.4234 155.8798 410.215 155.5405 410.5543 154.6358 410.7805 153.618 411.3459 152.9394 411.3459 153.618 411.5721 154.0703 411.9114 154.2965 412.4768 154.2965 412.3638 154.862 412.4768 157.0107 413.3816 157.463 414.2863 157.35 415.0779 156.8976 415.3041 155.8798 414.6256 156.2191 414.0601 156.106 413.8339 155.5405 413.7208 154.6358 413.947 153.8442 414.3994 153.3918 414.6256 152.8264 414.5125 152.1478 415.6434 152.374 416.3219 153.1656 416.6612 154.2965 417.0004 157.1238 417.4528 157.8023 418.3575 157.9154 420.6193 157.8023 421.0717 157.8023 421.524 157.463 422.6549 156.4452 422.8811 156.2191 422.9942 155.6536 424.6906 152.6002 424.6906 152.2609 424.6906 150.5646 425.3691 149.3206 425.4822 148.8682 425.5953 148.5289 426.3869 147.6242 426.6131 147.285 427.0654 145.0232 427.6309 143.7792 431.1367 138.4639 431.3629 138.0116 431.1367 137.333 430.3451 136.4283 430.1189 135.8629 430.1189 135.1843 430.4581 134.1665 430.5712 133.6011 430.4581 133.0356 429.8927 132.0178 429.7796 131.4524 429.8927 131.2262 430.4581 130.6607 430.5712 130.4346 430.4581 130.0953 430.3451 129.8691 430.232 129.8691 430.1189 129.6429 430.232 129.0775 430.5712 128.512 431.3629 127.3811 431.589 127.0419 431.9283 126.9288 432.0414 126.7026 432.1545 126.024 432.9461 124.667 433.8508 124.5539 434.5294 124.7801 434.9817 124.4408 434.8687 123.0837 435.321 123.0837 435.321 123.423 435.4341 123.6492 435.6603 124.2146 436.3388 123.423 436.4519 123.0837 436.565 123.1968 436.6781 123.1968 436.9043 123.423 437.2435 123.423 437.2435 122.2921 437.809 122.7444 438.2614 123.6492 438.8268 123.8753 439.3923 123.5361 439.6184 122.9706 439.9577 122.6313 440.4101 123.0837 440.7493 123.0837 440.8624 122.6313 441.0886 122.4052 441.4279 122.2921 441.9933 122.2921 443.3504 122.4052 444.4813 122.8575 445.4991 123.5361 446.4038 124.4408 446.8562 124.5539 449.4573 125.1193 451.3798 126.2502 453.6416 126.9288 460.5401 127.4942 466.9862 126.9288 468.5695 126.9288 477.8428 126.9288 484.1759 126.024 484.7413 125.6848 485.0806 125.1193 486.89 123.7622 488.3602 122.9706 488.5864 122.7444 489.0387 122.2921 489.7173 120.8219 490.0565 120.5957 490.622 120.4826 491.1874 119.9172 491.9791 118.7863 492.6576 118.3339 494.4671 117.4292 497.7467 114.2627 504.7582 110.6438 514.7102 102.3882 515.728 101.8228 517.8767 101.0312 521.3825 100.2395 522.1741 99.9003 523.9835 98.6563 525.1144 98.9955 526.3584 98.317 527.6024 97.4123 528.9595 96.9599 532.3522 96.8468 533.37 96.6207 534.2747 96.0552 535.7449 94.8112 537.6674 94.3589 540.1554 92.5494 543.0957 91.3054 543.8874 90.4007 544.9052 89.3829 545.1313 88.8175 545.2444 88.252 545.923 86.1033 548.0717 82.9368 548.6371 81.0142 549.8811 79.2048 550.2204 78.5263 550.3335 77.3954 550.1073 74.1158 549.8811 72.8718 549.5419 72.4194 548.9764 71.9671 548.524 71.6278 548.2979 71.7409 548.411 70.9492 548.9764 70.4969 550.2204 69.7053 552.0298 70.2707 557.9105 69.2529 559.9461 69.7053 559.7199 70.8362 557.3451 73.3241 558.2498 73.7765 559.0414 75.2467 560.0592 75.699 561.7556 74.9074 562.0948 74.6812 562.2079 74.0027 562.6603 73.3241 563.1126 72.7587 563.6781 72.5325 564.3566 72.4194 565.1483 72.5325 565.8268 72.5325 566.053 71.9671 565.8268 71.2885 565.3744 70.8362 565.1483 70.2707 565.6006 69.7053 565.0352 69.2529 564.6959 68.8005 564.3566 68.3482 563.6781 68.122 562.8865 68.0089 562.2079 68.122 561.6425 68.4613 561.3032 68.9136 560.8508 68.9136 560.5116 68.122 563.1126 66.3126 565.2614 64.5031 565.3744 64.1638 565.6006 63.3722 565.8268 63.2591 566.8446 63.3722 567.1839 63.2591 567.9755 62.5806 568.4279 62.5806 569.1064 62.9199 568.0886 63.3722 567.4101 64.0508 567.1839 64.8424 567.9755 65.7471 568.3148 65.9733 568.6541 65.9733 569.5588 65.7471 569.5588 65.5209 569.4457 65.2947 569.4457 64.9555 569.6719 64.8424 570.4635 64.9555 570.6897 64.8424 571.8206 64.2769 572.4991 63.8246 572.8384 63.146 573.0646 62.0151 572.9515 62.0151 572.6122 61.902 572.386 61.789 572.6122 61.2235 573.0646 60.8842 573.5169 60.6581 574.0824 60.4319 574.6478 60.4319 574.3085 61.4497 574.6478 62.0151 575.2133 62.4675 575.4394 63.2591 575.7787 63.2591 575.8918 63.0329 576.118 62.6937 576.2311 62.2413 576.0049 62.0151 575.5525 61.902 575.8918 61.6759 576.3442 61.3366 576.5703 61.2235 577.2489 60.8842 578.0405 60.6581 578.8321 60.3188 579.3976 59.6402 578.606 59.7533 578.0405 59.9795 577.5882 60.3188 577.1358 60.4319 576.5703 60.2057 576.6834 59.7533 577.2489 59.301 577.8143 58.8486 577.1358 58.8486 576.5703 58.9617 576.118 59.1879 575.7787 59.6402 575.8918 58.7355 576.0049 58.3963 576.2311 58.057 575.4394 58.5093 573.9693 59.8664 573.4038 60.4319 573.0646 60.0926 573.63 58.9617 574.5347 58.057 575.5525 57.4915 576.7965 57.2654 577.9274 57.3785 579.6238 58.1701 580.8678 58.5093 585.0521 58.5093 586.183 58.7355 587.427 59.301 589.1233 60.4319 589.915 61.2235 590.3673 61.4497 591.0459 61.6759 593.1946 61.6759 593.6469 61.902 594.7778 62.6937 596.0218 63.146 598.6229 63.7115 600.5454 64.6162 601.5632 65.5209 602.2418 66.4256 602.4679 66.7649 602.6941 67.2173 602.9203 68.3482 606.4261 74.3419 606.7654 75.9252 609.0272 79.2048 609.3664 80.3357 609.0272 81.5797 608.2355 82.8237 607.557 83.7284 606.0868 84.8593 602.1287 87.1211 600.8847 88.3651 600.0931 88.8175 599.1883 89.1567 598.3967 89.3829 598.0574 89.8353 597.0396 93.0018 596.7004 93.4541 595.004 93.4541 593.9862 94.0196 592.0637 95.7159 589.8019 96.6207 588.2186 97.073 584.8259 97.9777 581.5463 98.7694 578.1536 99.6741 574.7609 100.5788 571.3682 101.4835 568.0886 102.2752 564.6959 103.1799 561.3032 104.0846 559.833 104.4239 558.7021 105.2155 557.7974 106.6857 557.232 107.7035 555.4225 110.9831 553.7262 114.1496 552.0298 117.3161 550.3335 120.4826 548.6371 123.7622 546.9408 126.9288 545.2444 130.0953 543.5481 133.3749 542.8695 134.0534 541.9648 134.3927 539.8161 133.8272 538.6852 133.7142 537.5543 133.9403 534.2747 135.0712 531.8998 135.1843 530.6558 135.4105 529.638 136.089 529.2988 136.6545 529.2988 137.6723 529.1857 138.2378 528.7333 138.9163 527.6024 140.0472 527.15 140.7257 525.2275 145.5886 524.2097 147.0588 523.0788 148.0766 520.5908 149.886 519.1207 151.5824 517.7636 154.1834 515.0494 162.0997 513.4662 164.5877 509.9604 168.772 508.8295 171.8255 508.0378 172.8433 507.1331 173.8611 506.2284 175.1051 505.776 176.236 505.776 176.4622 505.776 177.2538 505.776 178.4978 504.6451 191.1638 501.5917 201.455 501.5917 203.7168 501.1394 205.9786 501.1394 207.2226 501.4786 208.6928 501.931 209.7106 502.1572 210.8415 501.7048 212.3117 500.0085 216.0436 496.8419 220.9065 495.3718 224.8646 494.8063 225.8825 493.9016 226.9003 491.5267 228.3704 490.7351 229.1621 489.6042 231.65 485.0806 238.4354 483.045 243.4114 482.3664 244.6554 481.3486 245.5601 479.1999 247.0303 478.5214 248.1612 478.5214 249.4052 479.313 249.9706 480.1046 249.8575 486.4377 249.7444 488.8126 249.4052 490.8482 248.3874 492.7707 246.5779 493.7885 245.8994 495.2587 245.447 496.6158 244.7685 499.1037 242.3936 500.3477 242.2805 500.687 242.7329 501.4786 244.8816 501.4786 245.1077 501.1394 245.5601 501.1394 245.7863 501.3655 246.1256 501.931 246.691 502.0441 246.9172 502.2703 248.2743 502.1572 250.7622 502.4964 252.0062 503.5142 253.4764 504.5321 253.7026 505.776 253.2502 507.6986 252.0062 508.1509 251.7801 508.8295 251.5539 509.508 251.5539 509.9604 251.667 510.4127 251.667 510.8651 251.2146 511.996 252.3455 512.9007 252.911 513.24 253.4764 512.3353 254.8335 513.3531 255.9644 513.6923 257.0953 514.2578 259.5833 514.9363 262.1843 515.6149 264.6723 516.2934 267.2734 516.972 269.7614 517.6505 272.2493 518.2159 274.8504 518.8945 277.3384 519.573 279.7133 520.7039 281.6358 521.7217 282.7667 522.8526 284.0107 523.9835 285.2547 525.1144 286.3856 526.2453 287.6296 527.3762 288.8736 528.5071 290.1175 529.638 291.3615 530.7689 292.4924 532.126 293.9626 532.8045 294.528 533.37 294.8673 533.8224 294.9804 534.3878 295.2066 535.0663 295.9982 535.6318 296.7898 536.0841 297.8077 536.1972 298.8255 536.0841 299.7302 535.6318 301.6527 535.5187 302.5574 535.858 303.8014 537.7805 307.4203 539.0245 311.3785 539.1376 313.6402 538.1198 314.8842 537.215 314.8842 535.9711 314.7711 534.9533 314.8842 534.2747 315.902 534.0485 317.0329 533.5962 317.9377 532.9176 318.7293 532.0129 319.4078 531.4475 319.7471 530.7689 319.9733 530.3166 320.3126 530.0904 320.9911 530.3166 321.5565 531.5606 322.9136 531.8998 323.5922 532.126 324.61 532.3522 327.098 532.2391 328.1158 531.1082 331.6215 530.5427 337.6153 530.6558 338.8593 531.4475 341.1211 531.6736 342.252 531.4475 343.496 530.9951 344.6269 530.6558 345.8709 530.7689 347.228 532.3522 349.7159 534.5009 351.2992 535.5187 351.6385 536.9889 352.0908 539.8161 352.6563 544.4528 352.5432 546.3753 353.1086 548.411 355.7097 548.6371 355.9359 548.8633 356.1621 548.2979 358.537 548.1848 358.9893 548.411 360.7988 548.8633 362.382 549.4288 364.0784 552.5953 370.1852 553.6131 371.3161 554.1785 371.7685 555.7618 372.447 556.5534 372.8994 557.9105 374.0303 558.589 374.3695 558.589 374.4826 560.2854 374.8219 565.0352 375.9528 566.9577 376.0659 567.7493 375.9528 568.4279 375.6135 568.9933 375.0481 569.6719 374.5957 570.3504 374.5957 570.9159 374.7088 571.2551 374.4826 571.142 373.4648 572.8384 373.4648 574.1955 373.2386 575.5525 373.1256 577.1358 373.5779 576.9096 372.6732 577.2489 372.2208 578.0405 372.1077 579.963 372.1077 580.4154 372.447 580.7547 373.0125 581.4332 373.4648 581.7725 373.4648 582.2248 373.3517 583.0165 372.8994 583.4688 372.7863 583.8081 373.0125 583.9212 373.3517 584.0343 373.4648 584.0343 373.5779 585.1652 373.5779 585.2783 373.4648 586.2961 373.1256 587.5401 373.4648 588.671 374.4826 589.3495 374.2565 590.9328 373.5779 591.8375 373.3517 592.7422 373.4648 594.5516 374.0303 595.4564 374.0303 597.8313 373.5779 598.736 373.691 599.3014 374.0303 599.4145 374.7088 599.4145 375.5004 599.7538 376.0659 600.4323 376.4052 603.2596 376.5183 603.9381 376.7444 604.3905 377.1968 604.9559 377.3099 605.9737 376.9706 606.6523 376.5183 607.2177 375.9528 607.6701 375.6135 611.7413 376.0659 614.9078 375.7266 617.7351 374.5957 620.11 372.8994 620.7885 372.1077 621.0147 371.5423 621.4671 371.203 622.711 371.203 624.8598 370.4114 627.3477 370.2983 630.7404 369.3936 632.5499 369.3936 632.8891 369.6198 633.6808 370.2983 634.2462 370.5245 636.1687 370.9768 637.0735 370.8638 638.7698 370.4114 639.6745 370.1852 640.0138 370.6376 642.9541 374.2565 643.5196 374.5957 644.4243 374.8219 645.1028 374.8219 646.3468 374.7088 646.9123 374.7088 647.1385 374.935 647.4777 375.3874 647.7039 375.6135 648.6086 375.8397 654.4893 378.7801 656.2988 378.7801 659.5784 376.9706 661.614 376.5183 663.7627 376.4052 665.3459 376.7444 667.2685 378.3277 668.2863 379.5717 672.5837 385.1131 676.8811 390.6545 681.2916 396.1959 685.589 401.6242 689.9996 407.1656 694.297 412.707 698.5944 418.1354 703.0049 423.6768 704.7012 425.8255 705.2667 425.8255 705.3798 425.8255 706.85 425.3731 709.5641 424.1291 711.0343 423.7898 712.2783 424.3553 714.6532 427.1825 716.0102 428.2004 719.1768 426.3909 722.5695 422.9982 723.8134 422.3197 725.5098 420.7364 726.5276 420.2841 727.9978 420.171 729.1287 420.5102 731.2774 421.415 732.2952 421.1888 733.5392 421.415 735.0093 421.9804 736.2533 422.2066 739.8722 421.9804 741.1162 422.2066 744.7351 423.3375 745.9791 423.4506 747.2231 423.6768 749.598 424.8077 750.955 425.0338 751.7467 424.6946 753.2168 423.3375 753.8954 422.9982 757.4012 422.8851 761.5855 421.6411 762.8295 421.415 764.0735 421.6411 767.8054 422.6589 769.9541 422.6589 776.4003 420.2841 779.0013 419.9448 786.2391 420.6233 788.614 420.2841 790.6496 419.6055 791.102 419.4924 791.6674 419.2663 792.1198 418.8139 792.459 418.2484 792.5721 417.683 792.7983 417.0045 793.4768 416.7783 794.2685 416.7783 794.947 416.6652 795.5125 416.2128 796.5303 415.0819 797.2088 414.7427 797.7743 414.7427 798.7921 415.0819 802.7502 415.4212 811.7974 417.4568 813.3807 418.5877 814.9639 420.0579 816.5472 421.1888 818.809 421.415 818.4697 421.6411 817.3388 422.5459 816.7734 423.2244 816.4341 424.016 816.5472 426.2778 818.5828 429.5574 820.053 430.5752 820.5053 431.8192 820.6184 433.0632 820.3923 434.081 819.7137 434.6465 817.6781 435.5512 816.8865 436.0036 814.1723 439.057 813.6069 439.9617 810.2142 443.1282 808.8571 445.2769 807.9524 447.5387 807.5 450.0267 807.5 452.6278 808.0654 456.0205 808.1785 457.1514 808.4047 457.3776 809.1963 458.2823 809.4225 458.5085 809.3094 459.187 808.9702 459.6394 808.5178 460.0917 808.1785 460.431 807.6131 462.5797 807.2738 462.919 806.5953 463.0321 805.9167 463.4844 804.8989 464.6153 804.4466 464.9546 802.7502 465.6331 802.411 465.8593 801.8455 466.5378 801.5062 466.764 801.2801 466.8771 800.6015 466.764 800.3753 466.764 798.2266 468.5735 796.8695 470.8353 796.3041 473.3232 796.8695 475.472 797.3219 476.3767 797.7743 477.2814 798.0004 478.2992 798.0004 479.6563 797.8874 480.1086 797.435 481.4657 797.2088 482.2573 797.2088 482.8228 797.3219 483.5013 797.435 484.0668 797.5481 484.6322 798.0004 485.1977 799.0183 486.3286 799.2444 486.7809 799.1313 487.3464 798.7921 487.6857 798.5659 488.0249 798.4528 488.3642 798.5659 490.8522 798.4528 491.9831 797.6612 494.2449 797.3219 496.3936 797.2088 497.7507 797.3219 498.0899 797.8874 499.1077 798.0004 499.5601 798.0004 500.2386 797.7743 500.691 797.7743 500.9172 798.0004 501.4826 797.6612 502.6135 797.5481 505.1015 797.0957 506.0062 796.5303 506.911 796.191 508.1549 795.9648 511.4346 795.6256 512.9047 795.7386 514.7142 795.6256 515.2796 795.2863 515.732 794.947 516.0712 794.6077 516.4105 794.4947 517.2021 794.7208 517.8807 795.0601 518.4461 795.5125 518.8985 796.0779 519.2378 796.0779 518.8985 797.0957 519.577 797.5481 520.3687 798.0004 522.4043 798.2266 522.6305 799.0183 522.8566 799.2444 523.1959 799.2444 523.6483 798.9052 524.4399 798.7921 524.8923 799.0183 525.6839 799.8099 526.9279 800.0361 527.7195 799.8099 528.398 798.7921 530.2075 798.5659 532.4693 798.7921 534.2787 799.3575 536.0882 799.5837 537.8976 800.0361 539.0285 801.167 539.9332 802.1848 541.0641 802.7502 542.8736 803.3157 543.5521 803.768 544.5699 803.5419 545.5877 803.8811 545.8139 804.4466 547.171 804.5597 550.6768 804.8989 551.9207 807.1607 555.8789 807.7262 557.3491 808.0654 560.1763 808.4047 561.5334 809.4225 562.7774 810.5534 563.2297 811.5712 563.3428 812.7021 563.1167 813.833 563.0036 815.9817 564.0214 817.6781 566.1701 821.5232 576.2351 822.3148 577.366 823.1064 577.9314 825.2551 578.8362 827.1776 580.7587 826.9515 583.2467 825.3682 585.6215 821.9755 589.919 821.297 590.4844 820.6184 590.7106 819.3744 590.9368 818.6959 591.276 817.6781 592.2939 815.1901 594.5557 812.7021 596.8175 810.3272 599.0793 807.8393 601.3411 805.3513 603.6028 802.9764 605.8646 800.4884 608.1264 798.0004 610.3882 796.6434 611.7453 795.6256 613.3286 795.6256 617.2867 796.4172 616.6082 796.8695 615.8166 797.435 615.138 798.5659 614.7988 799.923 614.9118 800.4884 614.7988 801.6193 614.2333 802.0717 614.4595 802.7502 615.138 805.1251 616.382 806.4822 616.6082 807.6131 616.1558 808.744 615.9297 809.7618 616.7213 810.5534 618.0784 811.0058 619.0962 811.3451 621.6972 811.6843 622.9412 812.3629 623.5067 814.9639 623.5067 815.9817 623.8459 816.8865 624.6376 817.1126 625.0899 817.4519 626.2208 817.6781 626.5601 818.1305 627.0125 819.3744 627.5779 819.6006 627.9172 819.8268 628.4826 820.7315 629.5004 820.9577 629.7266 821.7493 629.9528 822.0886 630.5183 822.4279 631.0837 822.7671 631.7622 823.3326 632.1015 824.5766 632.8931 825.142 633.3455 825.3682 633.911 825.7075 634.7026 825.9337 635.3811 826.4991 635.6073 827.0646 635.8335 827.7431 636.2858 828.874 637.4167 829.3264 637.6429 831.362 638.3215 833.2845 639.5654 833.7369 639.9047 833.963 640.4702 833.963 641.6011 834.3023 642.1665 834.6416 643.2974 833.963 644.4283 832.8321 645.4461 832.1536 646.2378 832.1536 647.2556 833.0583 649.5174 833.5107 651.2137 834.4154 653.7017 834.9809 654.4933 835.7725 654.9457 836.7903 655.285 837.695 655.7373 838.0343 656.642 838.2605 659.8085 838.0343 660.7133 837.8081 661.1656 836.9034 662.4096 837.0165 663.0882 837.4688 663.6536 837.8081 664.106 838.2605 664.8976 839.3914 665.5761 839.6175 666.0285 839.7306 666.707 840.7484 668.6296 845.7244 681.748 845.8375 682.992 845.8375 685.48 846.0637 686.6109 846.6291 687.8549 847.8731 689.8905 848.4386 691.1345 848.6647 692.3785 848.2124 694.7533 848.4386 695.545 849.004 696.1104 849.6825 696.6759 850.248 697.2413 850.8134 698.3722 851.2658 699.8424 851.3789 701.1995 850.3611 703.3482 850.5873 704.7053 851.8313 707.0801 849.5695 707.5325 845.8375 708.5503 840.8615 710.0205 839.7306 709.7943 839.1652 708.3241 839.0521 705.3838 840.4092 688.8727 839.8437 685.2538 837.9212 679.1469 835.6594 674.7364 829.4394 666.4809 828.0824 663.9929 826.2729 659.4693 825.142 657.4337 823.6719 655.9635 822.7671 655.5111 820.2792 654.6064 819.4875 654.6064 818.9221 654.8326 817.9043 655.8504 817.4519 656.1897 815.4163 656.4159 814.3985 656.9813 812.8152 658.3384 810.6665 659.4693 806.256 664.106 799.3575 673.2663 797.6612 674.9626 795.2863 676.2066 793.4768 676.8851 791.4412 677.3375 789.4056 677.4506 787.4831 676.8851 785.5606 675.3019 783.9773 673.0401 782.8464 670.5521 781.6024 666.9332 781.037 665.9154 780.1322 665.1238 778.7752 664.5583 777.6443 664.3321 777.1919 664.106 776.7395 663.6536 776.6264 663.2012 776.6264 662.0703 776.2872 661.7311 775.8348 662.0703 772.4421 670.6652 771.3112 672.3615 771.6505 672.5877 773.1207 672.8139 773.6861 673.4924 773.573 674.7364 773.6861 675.7542 775.8348 675.8673 776.2872 676.0935 776.4003 676.6589 776.4003 677.3375 776.5134 677.6768 776.9657 678.016 777.9835 678.5815 773.6861 678.5815 770.972 678.5815 763.7342 678.5815 753.443 678.5815 741.7947 678.5815 730.0334 678.5815 719.8553 678.5815 712.6175 678.5815 709.9034 678.5815 707.5285 678.3553 703.2311 676.4328 699.0467 675.6411 696.785 675.7542 692.9399 677.5637 690.565 677.6768 689.321 677.5637 688.3032 677.5637 687.2854 677.7898 684.9105 679.0338 683.7796 679.3731 681.8571 679.3731 681.0654 679.3731 681.4047 681.5218 681.4047 685.48 681.4047 689.4381 681.4047 693.3963 681.4047 697.2413 681.2916 701.1995 681.2916 705.1576 681.2916 709.1158 681.2916 713.0739 681.2916 716.4666 682.5356 716.5797 684.9105 714.9964 686.3807 714.6572 687.1723 714.6572 687.8508 714.7703 688.3032 715.1095 688.4163 716.3535 689.0948 716.4666 694.5232 715.675 695.8802 715.7881 698.3682 716.5797 698.9337 716.6928 700.8562 716.6928 702.6656 716.3535 703.2311 716.4666 703.6834 716.6928 704.0227 716.919 704.1358 717.2582 704.4751 717.4844 705.4929 718.163 706.0583 718.276 708.7725 716.2404 709.6772 716.0142 710.695 716.2404 713.5223 717.7106 714.3139 718.276 715.3317 719.52 716.3495 720.0855 716.6888 720.5378 716.915 721.1033 716.915 721.7818 717.1411 722.3473 718.3851 723.1389 718.0459 725.1745 718.9506 726.0793 720.3077 726.5316 720.9862 726.984 721.3255 727.4363 721.3255 728.228 720.8731 728.4541 720.4207 728.5672 719.9684 728.7934 719.8553 729.9243 720.4207 732.5254 720.4207 733.8825 720.0815 734.4479 719.516 734.9003 719.0637 735.3526 719.1768 736.1443 719.6291 736.5966 720.8731 737.1621 721.3255 737.6144 722.004 738.8584 722.2302 739.8762 721.8909 740.6679 720.76 741.0071 720.1946 740.894 719.1768 740.5548 718.6113 740.5548 718.1589 740.7809 717.4804 741.6857 717.1411 741.9118 716.1233 742.0249 714.0877 741.6857 713.0699 741.7988 713.2961 740.2155 712.7306 739.537 711.7128 739.537 710.4688 739.8762 709.3379 740.4417 708.8856 740.2155 704.9274 736.1443 703.7965 735.4657 702.6656 735.1264 701.1955 735.3526 700.0646 735.805 698.2551 737.049 697.1242 737.1621 695.9933 737.6144 695.4279 738.9715 694.6362 739.8762 692.7137 739.537 691.1305 738.7453 690.2257 738.8584 688.077 740.5548 686.0414 741.5726 683.8927 742.3642 681.6309 742.8166 677.6728 743.0427 676.5419 743.382 675.524 743.6082 674.167 743.382 672.8099 743.382 671.5659 743.9475 670.5481 744.2867 669.6434 743.4951 669.5303 747.4533 669.5303 748.9234 669.4172 752.7685 669.3041 758.1968 669.0779 764.4167 668.9648 770.6367 668.7386 776.065 668.6256 780.0232 668.6256 781.3802 668.5125 784.3206 668.8517 786.3562 669.5303 787.4871 671.7921 790.0882 674.7324 792.8023 675.9764 794.6118 676.5419 795.1772 677.6728 795.6296 679.9346 796.0819 680.9524 796.7605 681.2916 797.2128 681.8571 798.5699 682.1963 799.1354 682.7618 799.4746 684.1189 800.1532 684.6843 800.4924 686.4938 802.415 687.2854 803.0935 691.9221 804.7898 692.8268 805.3553 693.8446 806.1469 694.5232 807.1647 694.9755 808.2956 695.3148 809.6527 695.3148 811.3491 695.4279 811.9145 695.7671 812.48 696.1064 812.9323 696.4457 813.3847 696.5588 814.0632 696.2195 815.4203 694.4101 818.1345 694.0708 819.1523 694.6362 820.5093 696.785 822.9973 697.2373 823.789 697.1242 825.2591 697.2373 825.8246 697.6897 826.6162 698.142 826.9555 698.5944 827.1817 698.9337 827.5209 699.2729 828.0864 699.386 828.7649 699.1598 829.3304 699.1598 829.8958 699.4991 830.6874 700.0646 831.0267 701.3085 831.5922 701.7609 831.9314 703.118 833.7409 703.4573 834.0801 704.0227 834.0801 704.2489 834.3063 704.4751 834.5325 704.7012 834.8718 704.5882 835.098 704.9274 837.2467 704.7012 837.8121 704.362 839.0561 704.362 839.7346 706.5107 843.2404 707.1892 844.9368 705.9452 848.1033 706.0583 850.7044 705.1536 856.0196 705.1536 858.6207 704.1358 862.5788 704.1358 863.7097 703.3442 866.537 702.6656 870.1558 700.9693 879.3161 699.386 888.5895 697.6897 897.8629 695.9933 907.0232 694.297 916.2965 692.6006 925.5699 690.9043 934.7302 689.2079 944.0036 687.6247 953.2769 685.9283 962.5503 684.232 971.7106 682.5356 980.984 680.8393 990.2573 679.1429 999.5307 677.4466 1008.8041 675.7502 1018.0775 675.7502 1018.1906 675.6371 1018.3037 675.6371 1018.4167 675.524 1018.5298 675.524 1018.6429 675.411 1018.756 675.2979 1018.8691 675.2979 1018.9822 675.1848 1019.2084 675.1848 1019.3215 675.0717 1019.4346 675.0717 1019.5476 674.9586 1019.6607 674.9586 1019.7738 674.8455 1019.8869 674.7324 1020 673.1492 1016.8335 672.2444 1015.3633 671.0004 1014.0062 669.3041 1012.6492 663.5365 1009.7088 661.9533 1008.1256 661.3878 1006.203 661.0485 1004.1674 660.37 1002.1318 659.0129 1000.2093 657.0904 998.2867 654.9417 996.7035 652.793 995.9118 651.0966 996.0249 649.9657 996.8166 647.7039 998.8522 646.2337 999.5307 644.6505 999.5307 641.5971 998.7391 641.0316 998.2867 633.2284 994.2155 630.7404 993.9893 632.663 990.9359 637.1866 983.9243 641.5971 976.9127 646.1207 969.9012 650.6443 962.8896 655.1679 955.878 659.5784 948.8664 664.102 941.7418 668.6256 934.7302 669.8695 932.6946 669.5303 932.5815 668.9648 932.016 668.3994 931.3375 668.0601 930.5459 667.3816 928.0579 666.703 927.6055 665.5721 928.3972 665.2329 928.8495 665.0067 929.528 664.6674 929.9804 664.215 930.0935 663.6496 929.7542 663.5365 929.3019 663.5365 928.7364 663.4234 928.171 662.2925 927.2663 661.2747 927.4924 660.37 927.9448 659.2391 927.6055 658.5606 926.5877 657.7689 924.0997 657.0904 923.0819 655.8464 922.4034 654.7155 922.8557 653.5846 923.5343 652.2275 923.8736 651.8882 923.7605 651.549 923.3081 651.2097 922.7427 651.2097 922.2903 651.549 922.0641 652.4537 921.6118 652.793 921.4987 653.0191 920.2547 652.3406 919.6892 651.0966 919.5761 649.8526 919.5761 649.1741 919.6892 647.817 920.2547 647.2516 920.3678 646.573 920.0285 646.2337 919.463 646.1207 918.8976 645.7814 918.3321 644.9898 917.6536 643.972 917.2012 642.9541 916.862 641.9363 916.7489 641.1447 916.2965 640.3531 915.5049 639.6745 914.9394 638.6567 915.618 638.5436 916.1834 638.5436 916.7489 638.5436 917.3143 638.0913 917.5405 635.7164 917.5405 635.264 917.3143 635.1509 916.5227 635.1509 915.7311 635.1509 915.1656 634.8117 914.6002 633.0022 913.0169 632.776 912.9038 632.776 911.3206 632.5499 910.8682 632.3237 910.5289 630.8535 910.4159 629.7226 910.0766 627.687 909.398 625.6514 908.041 622.711 904.8744 621.0147 903.8566 619.7707 904.4221 618.3005 904.0828 615.9256 903.065 614.2293 903.065 613.6638 903.8566 613.7769 905.1006 614.3424 906.5708 613.7769 906.9101 613.0984 906.9101 612.4199 906.797 610.9497 905.8923 610.2711 905.8923 608.5748 906.2315 607.3308 906.797 606.1999 909.5111 604.6167 910.3028 603.4858 911.2075 602.9203 911.3206 602.2418 911.0944 601.5632 910.642 600.9978 910.4159 600.0931 910.7551 598.9622 911.4337 597.8313 911.6598 597.3789 910.8682 593.3077 912.9038 591.3851 913.2431 590.7066 912.1122 590.9328 911.6598 591.7244 910.9813 591.9506 910.4159 591.7244 909.8504 590.3673 908.1541 589.3495 906.3446 588.7841 906.1184 587.9924 907.0232 587.427 909.1719 586.9746 909.8504 586.0699 909.398 585.6175 908.4933 585.6175 906.1184 585.2783 904.9875 584.7128 904.5352 581.3201 903.8566 580.1892 903.1781 579.0583 902.3865 577.9274 901.7079 576.6834 901.4817 574.7609 902.4996 573.63 902.6126 573.0646 901.7079 573.1776 899.6723 572.7253 899.333 571.4813 899.8985 568.2017 902.0472 567.6362 902.0472 567.297 902.6126 565.2614 905.7792 562.5472 907.9279 562.0948 908.3802 561.8687 909.6242 561.1901 910.3028 560.1723 910.5289 556.5534 910.0766 554.744 910.0766 553.0476 910.7551 551.4644 912.1122 548.9764 915.0525 548.0717 915.2787 544.4528 914.374 543.8874 914.4871 542.4172 914.7133 542.0779 915.0525 542.0779 916.1834 541.9648 916.5227 541.5125 916.7489 540.1554 916.862 537.8936 917.4274 536.5365 917.5405 535.5187 917.3143 534.5009 916.7489 533.7093 916.0703 533.4831 915.3918 532.9176 914.9394 527.037 914.0347 526.0191 913.6955 523.4181 911.5467 522.4003 911.0944 521.2694 910.8682 520.5908 911.7729 519.1207 914.9394 518.329 915.618 517.4243 915.9573 517.085 915.8442 516.8589 914.2609 516.7458 913.6955 516.5196 913.2431 516.1803 912.7907 515.5018 913.13 515.0494 913.5824 514.7102 914.1478 514.5971 914.8264 513.1269 913.6955 512.1091 913.3562 510.752 914.1478 509.0557 914.7133 508.3771 915.3918 507.5855 915.618 505.2106 916.0703 504.6451 916.0703 504.1928 915.7311 503.6273 914.8264 502.6095 912.1122 501.8179 911.4337 501.5917 911.0944 497.7467 908.9457 497.5205 909.5111 496.8419 910.8682 496.1634 911.5467 495.8241 910.3028 495.2587 909.8504 492.7707 909.1719 491.866 908.4933 491.6398 908.1541 491.4136 906.3446 491.1874 906.1184 490.3958 905.4399 490.2827 905.2137 490.1696 904.8744 489.6042 903.9697 489.4911 903.4043 489.6042 902.8388 489.7173 902.4996 490.2827 901.821 492.3183 900.0116 492.8838 898.7676 494.5801 895.9403 493.7885 895.2618 493.3362 894.0178 492.9969 892.6607 492.6576 891.6429 491.6398 890.1728 491.3005 889.3811 491.0744 888.4764 491.0744 887.6848 491.7529 886.2146 491.866 885.7622 491.5267 884.7444 490.1696 883.1612 489.8304 882.3695 490.2827 880.2208 489.8304 879.6554 489.378 879.3161 488.8126 879.0899 488.3602 878.6376 486.7769 876.9412 486.2115 876.9412 485.9853 878.5245 485.646 878.6376 483.7235 878.1852 482.8188 878.2983 481.9141 879.203 481.4617 879.8816 480.8963 879.7685 479.4261 878.5245 478.7476 878.0721 478.069 877.959 477.3905 877.959 476.5988 877.8459 476.0334 877.959 475.6941 877.959 475.6941 877.7329 475.4679 876.9412 475.3549 876.715 471.6229 874.4533 470.492 873.0962 470.6051 870.8344 471.2836 868.9118 471.736 868.0071 473.2061 867.2155 473.2061 866.1977 472.6407 863.7097 472.5276 863.0312 472.5276 862.3526 472.4145 861.7872 471.9622 861.2217 470.8313 860.317 470.1527 859.2992 468.004 858.2814 467.5516 857.4898 468.4564 856.3589 468.6825 855.7934 467.7778 855.3411 467.4386 855.0018 467.2124 854.5494 467.0993 854.0971 466.9862 852.8531 466.8731 852.4007 466.76 851.9484 466.5338 851.9484 465.7422 852.0614 465.516 851.9484 465.4029 851.7222 465.2898 851.0436 464.9506 850.252 464.7244 849.5735 464.4982 849.008 463.1411 848.6687 462.0102 847.8771 461.4448 847.6509 460.0877 847.4248 458.9568 846.8593 458.1652 845.9546 457.7128 844.9368 456.8081 845.276 455.9034 846.7462 454.9987 847.1986 454.3201 847.1986 453.4154 847.0855 451.8321 846.52 451.0405 845.9546 450.4751 845.3891 449.4573 843.8059 448.5525 841.5441 448.2133 840.9786 447.3085 840.6394 445.4991 840.9786 444.7075 840.6394 444.5944 840.0739 445.1598 839.1692 445.1598 838.6037 444.5944 838.2645 444.3682 838.3776 444.142 838.7168 443.9159 839.0561 443.3504 839.2823 443.0111 839.6215 442.6719 839.7346 441.9933 839.3954 441.541 839.0561 441.2017 838.4907 439.8446 834.5325 439.2792 833.9671 438.3744 835.5503 436.7912 835.6634 433.2854 834.3063 429.8927 833.7409 428.4225 832.8362 427.0654 831.1398 426.2738 828.5387 425.7084 827.8602 424.2382 826.8424 423.8989 826.39 424.3513 825.7115 425.0298 825.4853 425.9346 825.7115 426.7262 825.7115 427.0654 825.0329 426.7262 824.3544 426.1607 823.6759 425.8215 823.1104 426.2738 822.0926 425.8215 821.9795 424.9167 821.8664 424.3513 821.7533 423.8989 821.5272 421.9764 819.3785 421.6371 818.4737 421.6371 817.4559 421.8633 816.8905 422.6549 816.325 422.768 815.8727 420.0539 809.992 419.9408 809.4265 419.8277 808.8611 419.7146 808.1825 419.3753 807.9564 418.6968 807.9564 418.3575 807.8433 417.7921 807.0516 417.1135 806.1469 416.435 805.5815 412.9292 803.5459 411.459 802.3019 408.9711 799.8139 407.3878 797.0997 406.8224 796.6474 406.2569 796.7605 405.8045 796.9866 405.3522 797.3259 405.126 797.439 404.3344 797.439 403.9951 797.2128 403.7689 796.8736 403.5427 796.6474 403.0904 796.3081 402.8642 796.0819 402.5249 795.8557 401.0548 795.7427 399.9239 795.5165 399.3584 795.4034 398.3406 795.0641 398.793 794.2725 400.3762 793.1416 398.4537 789.0703 397.6621 787.9394 396.4181 786.9216 395.7395 787.0347 394.2694 789.4096 393.7039 789.862 393.1385 789.862 392.1207 789.5227 390.1981 789.1834 388.9541 788.618 388.1625 788.0525 385.9007 785.4515 385.4484 785.2253 384.996 784.9991 383.9782 784.9991 383.4127 784.886 382.8473 784.2075 380.5855 781.1541 379.4546 780.2493 378.2106 779.6839 375.7226 778.8923 374.4786 778.7792 373.687 779.0053 373.1215 779.5708 372.8954 780.7017 372.5561 781.3802 371.8776 782.285 370.9728 782.9635 370.1812 783.3028 369.0503 782.6242 365.4314 781.2671 362.2649 780.7017 361.134 779.9101 359.7769 779.4577 356.3842 777.4221 353.6701 774.9341 352.6523 774.5948 352.0868 774.2556 351.4083 773.4639 350.5036 772.6723 349.3727 772.2199 348.2418 772.333 345.7538 772.8985 344.5098 773.1247 343.1527 773.0116 342.0218 772.6723 341.1171 772.333 339.5338 771.4283 337.272 769.732 336.7066 768.9403 333.3139 766.7916 331.8437 765.4346 331.1652 764.5298 330.939 763.3989 330.7128 762.7204 326.8678 757.8575 326.5285 757.179 326.0761 756.2743 324.7191 756.5004 323.2489 756.9528 322.2311 756.9528 321.8918 756.5004 321.6656 755.0303 321.3264 754.4648 320.7609 754.2386 320.1955 754.1256 318.9515 754.2386 317.4813 754.1256 316.2373 753.8994 315.1064 753.3339 313.9755 752.6554 312.3923 750.959 311.8268 750.7329 311.2614 750.8459 310.2435 751.6376 309.9043 751.8638 309.565 752.0899 308.2079 753.7863 307.6425 754.0125 306.9639 754.1256 305.7199 754.2386 305.2676 754.1256 305.2676 754.4648 305.1545 758.7622 305.7199 762.6073 304.7021 763.2858 299.0476 763.8513 297.5775 764.6429 296.6728 764.756 295.6549 764.4167 294.0717 762.9466 293.167 762.3811 292.3753 762.1549 289.5481 761.8157 287.6256 761.2502 286.8339 761.4764 287.0601 763.8513 286.1554 763.8513 284.1198 762.9466 283.3281 762.8335 279.37 763.3989 278.5784 763.3989 277.6736 763.0597 276.7689 762.3811 275.5249 761.1371 274.8464 760.6848 273.9417 760.3455 273.2631 760.2324 271.0013 760.2324 269.1919 759.667 267.0432 757.179 265.7992 756.8397 265.1207 756.7266 264.1028 756.8397 261.1625 757.9706 259.9185 757.9706 259.0138 757.7444 258.2222 757.2921 257.0913 756.9528 250.9844 755.7088 249.0619 754.9172 247.4786 753.7863 246.9132 752.3161 246.687 750.6198 246.1215 748.6972 245.7823 742.5904 244.9907 739.8762 242.6158 739.3108 242.3896 739.3108 240.6932 739.537 238.5445 738.7453 234.8126 736.1443 233.5686 734.3348 233.2293 730.1505 231.5329 728.9065 230.0628 728.7934 225.5392 730.6028 224.4083 730.829 223.2774 730.829 222.0334 730.4898 220.6763 730.0374 220.1109 729.472 219.9978 728.9065 219.9978 728.228 219.7716 727.6625 219.2061 727.0971 218.98 726.984 218.6407 727.2102 217.9622 727.2102 214.1171 725.74 210.0459 725.5138 207.671 724.3829 200.207 718.7284 198.963 718.163 195.5703 717.2582 194.5525 716.6928 193.1955 715.675 187.7671 709.6812 187.0886 709.1158 186.7493 708.7765 183.5828 708.098 182.6781 708.211 181.8865 708.6634 181.5472 707.7587 180.3032 706.4016 180.077 705.8362 180.077 704.7053 179.5116 704.5922 178.7199 704.8183 177.8152 705.0445 176.4581 704.5922 175.3272 703.6874 174.4225 702.5565 173.8571 701.3126 173.2916 700.2947 171.5953 698.9377 170.4644 697.2413 167.0717 694.9795ZM206.9924 626.5601L207.1055 626.8994 208.4626 628.4826 208.915 629.7266 209.028 631.6492 208.3495 633.2324 206.7663 633.6848 205.5223 632.8931 203.939 631.3099 202.695 629.6135 202.1296 628.3695 202.3557 627.5779 202.695 627.2386 203.0343 626.8994 203.3736 626.3339 202.9212 625.6554 202.1296 624.1852 202.2427 623.5067 202.8081 623.1674 203.7128 623.7329 205.0699 623.2805 206.2008 623.959 206.5401 624.9768 206.9924 625.5423 207.1055 626.2208 206.9924 626.5601ZM220.1109 622.602L220.9025 623.1674 223.0512 625.9947 223.9559 626.6732 225.8785 627.8041 226.7832 628.4826 225.5392 629.3874 223.7297 629.5004 222.0334 629.0481 220.9025 628.4826 221.3549 628.1434 220.9025 627.691 222.1465 626.5601 222.1465 625.8816 221.3549 625.5423 220.337 625.4292 219.4323 624.7507 219.0931 623.6198 219.3192 622.602 220.1109 622.602ZM225.6523 624.6376L227.801 626.3339 228.5926 627.1256 228.3664 628.0303 227.3486 628.1434 225.8785 627.3517 223.2774 625.4292 221.6941 623.2805 221.3549 622.602 221.1287 621.9234 221.1287 621.358 221.2418 621.0187 221.6941 621.4711 221.9203 621.5841 222.4858 621.8103 222.7119 621.4711 222.825 621.358 223.0512 621.2449 223.2774 621.0187 224.8606 622.602 225.0868 623.0543 225.4261 624.1852 225.6523 624.6376ZM251.5499 532.5824L252.7939 533.1478 253.9248 533.0347 255.1687 532.8085 256.1866 533.0347 255.1687 534.618 254.4902 535.2965 253.6986 535.0703 252.6808 533.8264 251.3237 534.2787 249.9666 534.5049 246.9132 534.5049 245.7823 534.2787 245.1037 534.1656 244.199 534.3918 243.7467 534.7311 243.2943 535.2965 242.955 535.7489 240.8063 536.4274 240.5801 536.5405 240.354 536.0882 240.354 535.2965 240.5801 534.5049 241.1456 534.1656 241.9372 533.9394 243.1812 532.8085 243.8598 532.5824 244.6514 532.6955 246.0085 533.0347 246.8001 533.0347 246.5739 532.5824 245.6692 531.9038 245.3299 531.4515 247.2524 531.4515 245.8954 531.1122 246.0085 530.5467 247.0263 529.8682 248.0441 529.4159 247.7048 529.3028 247.4786 529.1897 247.2524 529.0766 246.8001 529.0766 246.9132 528.7373 247.0263 528.6242 247.2524 528.285 248.8357 529.0766 249.6273 529.7551 250.3059 530.5467 250.7582 531.5646 251.5499 532.5824ZM1.9604 53.9858L1.3949 52.8549 1.6211 51.6109 2.1866 50.7061 3.0913 50.0276 3.3175 50.7061 2.2996 55.1167 1.6211 55.2297 1.1687 54.6643 1.9604 53.9858ZM20.7333 7.2796L20.5071 5.9225 20.9595 4.6785 21.7511 4 22.5427 4.4524 22.882 5.4702 22.5427 6.3749 21.7511 6.9403 20.7333 7.2796ZM7.6149 550.2244L7.3887 550.1113 7.3887 549.8851 7.5018 549.6589 7.728 549.3197 8.0672 549.2066 8.1803 548.9804 8.1803 548.528 8.5196 548.3019 8.8589 548.415 9.1981 548.3019 9.3112 548.3019 9.5374 549.0935 9.4243 549.2066 9.1981 549.3197 8.972 549.5459 8.6327 549.5459 7.9541 550.1113 7.6149 550.2244ZM203.8259 605.7516L204.6175 605.073 205.0699 605.1861 204.9568 605.9777 204.9568 606.7694 204.9568 607.561 204.0521 608.4657 203.4866 609.0312 202.5819 609.2573 201.9034 609.0312 201.9034 608.4657 202.8081 608.3526 203.0343 607.4479 203.3736 606.317 203.8259 605.7516ZM352.7654 179.9679L353.3308 179.4025 353.7832 179.7418 354.5748 179.9679 355.5926 180.3072 355.7057 180.9858 355.0272 181.6643 354.5748 181.5512 353.8963 181.4381 353.3308 181.6643 353.2177 182.4559 352.9915 182.7952 352.5392 182.7952 352.313 182.1167 352.1999 181.2119 352.4261 180.4203 352.7654 179.9679Z" />
</svg>