<?xml version="1.0" encoding="utf-8"?>
<svg xmlns="http://www.w3.org/2000/svg" viewBox="0 0 809 1024" style="stroke-width:0.25px;stroke-linejoin:round;stroke:#444;fill:#ddd" fill-rule="evenodd">
  <path class="CR" d="M604.8587 53.0675L606.5353 52.844 607.4295 53.2911 607.9883 53.1793 608.9943 53.7382 608.9943 54.0735 608.5472 54.4088 608.5472 54.9677 609.2178 54.8559 610.112 54.0735 610.3355 53.2911 611.1179 53.5146 614.024 54.9677 617.6007 59.1032 622.0715 67.486 625.3129 76.316 624.8658 82.0163 622.295 78.7749 617.6007 67.2625 620.6185 81.681 620.2832 87.3813 615.2535 91.8521 617.936 91.2933 619.7243 90.0638 621.5127 88.499 623.7481 87.046 622.9657 87.9402 622.7421 89.0579 623.0774 90.2873 623.7481 91.8521 624.4187 89.7285 625.2011 85.593 626.207 83.3575 634.7017 107.053 645.4317 132.5369 658.0618 153.7734 691.8167 198.0348 694.4992 200.0466 705.6763 213.9063 712.6062 220.7243 716.8535 218.3771 718.4183 219.4948 723.1127 220.2772 724.1186 221.6185 724.2304 224.9716 724.7892 227.7659 726.0187 230.2249 728.3659 232.6838 736.5252 244.8669 739.2077 246.767 749.3789 260.5149 757.0911 267.78 761.5619 266.4387 762.5679 269.233 763.5738 276.4981 765.1386 279.7395 767.9329 281.8631 779.7806 285.9987 783.9162 286.4458 788.0517 286.334 791.9637 286.5575 795.4286 288.4576 799.7877 295.1639 802.8055 296.9523 802.9173 297.064 804.8174 303.7703 803.4761 303.8821 800.7936 302.429 798.1111 301.982 796.8816 303.8821 796.0992 310.8119 794.9815 313.0473 792.6343 313.3826 789.393 312.8238 786.2634 311.9296 784.475 311.0354 782.6867 309.0235 780.3395 304.6645 778.5512 302.6526 777.2099 303.3232 775.4216 302.6526 768.1564 296.3934 757.8735 292.2579 754.6321 292.705 751.3908 295.4992 749.3789 298.2935 749.0436 299.9701 751.1672 303.7703 752.3967 308.6882 753.1791 309.6942 754.2968 310.0295 755.0792 310.5883 754.8557 312.0414 752.1732 313.4944 742.7844 314.8356 739.4312 315.9534 737.9782 318.5241 737.5311 321.8772 737.7547 336.7428 737.9782 358.2029 738.4253 387.4869 738.4253 389.387 743.6785 387.1516 745.3551 387.1516 746.5846 388.1575 747.1435 389.4988 747.7023 390.84 748.4847 391.9578 749.4906 392.6284 753.5144 394.305 761.5619 400.3406 769.6095 403.1349 771.9567 404.6997 776.5393 412.4119 777.2099 414.0884 777.0981 414.312 774.6392 418.3358 769.3859 421.4653 751.1672 428.954 749.1553 430.5188 747.367 432.7542 748.2612 433.5366 749.7142 434.4308 749.6024 436.8898 748.0376 438.7899 742.7844 442.0312 741.3314 443.596 741.1078 446.2785 742.002 448.8493 743.5668 451.1965 749.0436 457.3439 752.0614 461.5912 754.185 466.1738 755.6381 471.5388 756.644 484.0572 756.0851 490.3164 754.5204 495.5696 750.6084 500.3758 746.0257 502.6112 740.996 504.176 735.9663 506.7468 728.1424 514.2354 720.0948 518.818 718.53 520.0475 718.3065 522.2829 719.9831 524.0713 724.901 526.9773 725.7952 527.9833 727.4717 530.4422 728.4777 531.2246 729.5954 531.3364 731.719 530.4422 733.3956 530.6658 736.4134 532.3424 737.6429 534.1307 738.4253 539.831 747.8141 560.2851 746.9199 568.2209 745.8022 572.2447 743.3432 570.3446 743.6785 567.662 745.0198 564.6442 745.8022 561.9617 745.2433 559.7263 733.2838 539.0486 729.0365 534.5778 707.1294 518.5945 701.0937 512.6706 706.2352 506.2997 707.2411 505.7408 708.2471 503.9525 710.1472 501.6053 711.3767 498.811 710.259 496.0167 704.4469 488.7516 703.5527 486.7397 703.4409 484.0572 704.6704 483.163 706.9058 482.4924 709.5883 480.7041 707.5765 480.1452 702.435 480.3688 699.8642 479.4746 698.523 477.9098 695.0581 470.98 695.6169 470.0858 695.9523 469.4152 696.2876 468.4092 697.5171 468.4092 699.1936 471.3153 699.6407 472.7683 699.8642 475.1155 700.6466 475.5626 705.8999 473.4389 705.8999 472.0977 703.5527 471.0917 700.982 469.1916 698.7465 466.9562 697.5171 464.8326 696.2876 464.8326 694.9463 466.9562 691.705 467.068 688.0165 466.7327 685.334 467.2915 683.9927 464.8326 681.9809 462.3736 679.5219 461.0323 676.9512 462.3736 671.3626 459.0205 669.7978 456.338 670.9155 452.6495 669.686 452.5377 668.4565 452.6495 669.2389 449.7435 666.6682 448.2904 662.9798 447.508 660.0737 446.5021 658.956 448.6257 658.0618 448.514 656.8323 447.6198 655.1558 447.6198 654.2616 448.6257 654.0381 449.8552 653.3674 450.9729 650.9085 451.42 645.0964 450.5259 642.7492 451.42 641.855 454.9967 643.1963 453.879 644.2022 453.879 650.4614 463.156 651.2438 466.062 654.9322 471.7624 656.2735 473.4389 658.6207 474.6684 665.2152 476.6803 667.8977 477.0156 670.2449 478.4686 672.5921 481.2629 674.8275 483.163 676.9512 481.8218 677.0629 486.2926 676.7276 488.081 675.7217 489.3105 675.7217 490.5399 678.2924 494.1166 679.4101 500.3758 678.963 506.8585 676.9512 511.3294 673.0392 511.4411 666.5564 509.4293 660.5208 506.4114 657.6147 504.0642 658.7325 504.0642 659.5149 504.6231 660.1855 504.9584 662.5327 505.182 659.1795 503.7289 657.7265 502.8348 656.2735 501.4935 656.2735 504.0642 646.1023 499.5934 642.5256 499.0345 631.6838 500.3758 628.666 500.3758 626.207 499.1463 623.7481 496.6873 619.5008 491.0988 604.1881 476.7921 603.1822 475.1155 602.3998 475.0037 598.8231 473.4389 597.7054 472.7683 597.1465 467.2915 602.5116 458.9087 603.741 457.4557 606.5353 455.8909 608.4354 455.1085 609.3296 455.6673 609.8884 456.6733 611.1179 455.4438 615.3652 448.8493 616.5947 447.6198 614.3593 444.8255 617.0418 441.5842 621.848 439.0134 626.207 437.8957 626.207 436.778 622.4068 436.3309 620.3949 436.4427 619.1655 437.5604 617.0418 439.7958 615.0299 440.69 614.3593 439.0134 615.1417 435.9956 617.6007 432.9778 621.9597 430.8541 623.9716 429.5129 624.8658 427.501 623.7481 425.6009 621.5127 424.3714 619.389 422.6948 618.9419 419.5652 622.4068 421.3536 623.9716 421.9124 626.207 421.9124 625.0893 420.5712 623.7481 419.5652 621.2891 418.224 620.1714 417.3298 619.6125 416.5474 618.6066 415.9886 616.5947 415.8768 618.7184 414.5355 618.3831 413.6414 617.1536 412.859 616.5947 412.3001 617.3771 410.2882 618.2713 408.8352 619.5008 407.6057 621.2891 406.0409 616.5947 393.7461 615.7006 392.1813 612.7945 389.0517 611.565 390.1694 607.653 385.0279 604.0763 378.9923 599.382 374.2979 592.3404 373.0684 592.7875 368.374 588.8755 364.462 583.5105 361.7795 579.5985 360.6618 565.7388 347.3611 552.1028 340.9901 549.9791 339.3135 532.9899 332.6073 531.8722 332.6073 530.7545 333.5014 529.7485 333.5014 528.9661 332.719 528.2955 331.266 525.8365 332.3837 524.3835 331.1542 522.7069 329.4777 519.6891 328.9188 521.5892 325.6774 519.1303 320.9831 514.5476 316.9593 510.0768 315.3945 510.0768 316.624 511.6416 316.9593 512.6475 317.4064 514.9947 319.0829 510.4121 318.3006 503.147 313.9415 498.5644 312.9355 494.0935 312.6002 470.5098 306.0057 465.9272 305.6704 463.8035 306.0057 461.5681 306.7881 459.2209 307.2352 456.8737 306.8999 454.7501 305.1116 454.0794 302.9879 453.297 301.3113 450.8381 300.7525 451.2851 301.4231 451.5087 301.982 451.9558 303.3232 449.0497 300.976 442.4552 296.7287 441.2257 294.0462 440.5551 291.5872 438.9903 290.3578 437.0902 289.5754 435.1901 288.4576 434.5195 286.6693 434.8548 284.7692 434.2959 283.5397 431.6134 283.6515 432.284 281.6396 432.0605 279.6277 431.6134 277.8394 431.6134 276.1628 432.6194 274.1509 435.6372 271.1331 436.8667 268.1153 438.0961 266.6623 439.3256 264.6504 439.8845 262.0796 439.3256 259.956 437.8726 258.0559 435.1901 255.3734 428.0367 244.6433 426.0249 243.0785 423.1188 241.8491 423.5659 239.1666 426.0249 235.031 421.6658 231.4543 420.8834 229.666 421.7776 227.0953 416.7479 225.5305 401.0999 227.0953 401.0999 225.754 403.3353 224.8598 406.0178 224.6363 412.1652 224.6363 412.1652 223.4068 406.5767 223.1833 401.547 222.2891 396.9644 220.7243 392.8288 218.3771 387.4638 214.018 386.6814 213.0121 385.5637 212.7886 383.3283 211.2238 381.6517 209.5472 382.5459 208.7648 379.6398 207.2 372.3747 200.382 368.4627 198.4818 366.6744 196.8053 365.5567 196.3582 364.6625 196.8053 363.8801 197.4759 362.8741 197.5877 361.4211 196.3582 362.4271 194.4581 362.7624 193.2286 361.98 192.6697 361.3094 192.3344 358.9622 190.2108 355.7208 191.3285 343.873 191.4403 340.6317 190.6579 337.8374 188.646 333.4783 184.0634 333.4783 182.9457 334.4843 179.5925 331.3547 175.9041 323.7542 170.5391 324.8719 174.2275 330.0134 177.916 331.1311 182.275 331.5782 190.6579 332.6959 195.464 334.7078 198.8172 332.4724 200.2702 332.8077 202.8409 334.8196 205.1881 340.2964 207.0882 342.1965 209.1001 344.4319 213.571 345.5496 213.571 347.0026 213.0121 347.6733 213.4592 347.8968 214.6887 346.332 214.8004 344.7672 214.6887 343.3142 214.2416 341.9729 213.571 341.9729 214.6887 345.3261 217.7065 349.3498 221.2832 359.9681 225.6422 361.4211 226.4246 362.6506 225.9776 365.4449 227.0953 372.2629 231.0073 375.3925 232.0132 378.7457 232.125 381.987 230.7837 383.9989 232.4603 388.4697 235.2546 390.4816 236.9311 390.4816 238.0488 387.0167 238.943 387.1285 241.5138 389.2521 244.5316 391.5993 246.767 390.1463 247.2141 388.8051 248.22 386.6814 250.4554 389.2521 251.5732 392.3817 251.9085 398.7527 251.7967 398.7527 252.9144 396.182 254.591 393.0524 255.9322 390.3699 257.7206 389.1404 260.8502 388.4697 261.6326 384.3342 263.9798 383.5518 265.321 382.6576 268.5624 381.987 270.0154 376.3985 267.2211 373.4924 266.9976 372.1512 269.3448 372.9336 270.7978 375.7278 274.2627 375.2807 275.0451 369.5804 277.8394 368.5745 278.0629 367.9039 278.9571 363.7683 281.0807 362.8741 282.5338 359.0739 294.8286 357.3974 297.9582 355.2737 300.7525 354.0442 300.7525 349.1263 290.5813 334.3725 270.5743 333.4783 268.2271 332.6959 267.3329 331.0194 266.327 326.6603 264.5386 326.325 263.0856 326.325 261.409 326.2132 260.1795 321.9659 255.5969 316.1538 252.2438 297.1527 245.4257 295.4761 245.7611 292.9054 247.5494 291.7877 247.9965 290.1111 247.5494 287.7639 245.8728 285.752 245.4257 284.6343 245.314 284.299 245.0904 284.0755 244.5316 283.4048 243.7492 282.1754 243.0785 281.1694 243.4139 280.387 243.9727 280.2752 244.308 270.3276 241.0667 265.5215 240.396 264.4037 239.6136 263.5096 238.8312 262.1683 238.0488 260.1564 238.1606 258.8152 238.943 257.6975 239.0548 256.1327 236.9311 257.3622 233.6898 255.462 229.1072 237.4669 206.8647 236.3492 204.8528 234.8961 200.0466 232.7725 196.6935 225.8427 179.7043 225.2838 174.6746 224.5014 171.545 223.4955 169.3096 225.9545 166.9624 226.9604 165.174 226.5133 163.721 222.8249 158.9149 220.3659 157.4618 221.7072 155.7853 224.8367 153.3263 226.8486 150.3085 228.3017 147.2906 231.3195 148.5201 232.996 146.62 234.2255 143.8257 238.0257 140.9197 236.5727 137.7901 233.8902 134.437 231.9901 132.5369 233.1078 131.7545 233.5549 131.4191 234.4491 131.3074 234.4491 130.0779 231.9901 130.0779 231.9901 128.8484 234.002 128.4013 235.3432 127.1718 236.7963 123.8187 238.0257 123.8187 240.4847 125.8306 243.9496 124.3776 247.5263 122.3657 250.2088 122.701 251.3265 122.701 251.103 120.3538 251.6618 119.2361 252.6678 118.5655 253.5619 117.7831 255.2385 114.9888 255.7974 115.1006 258.0328 115.3241 263.286 109.7355 262.9507 108.2825 262.0565 107.1648 259.7094 105.4882 252.4442 112.8651 252.3325 112.3063 252.3325 111.7474 252.1089 111.4121 251.3265 111.5239 251.3265 110.4062 253.3384 108.1707 254.5679 107.2766 256.1327 106.7177 254.9032 105.4882 254.7914 105.7118 254.4561 106.0471 254.1208 106.3824 253.5619 106.7177 254.009 105.2647 254.1208 104.7058 256.1327 104.147 256.1327 103.0293 254.9032 103.0293 254.9032 101.688 257.8092 99.3408 258.4799 93.3052 257.4739 81.4574 254.7914 78.3278 248.9793 75.6453 243.0554 74.7512 240.4847 76.5395 239.367 76.5395 234.5608 72.5157 233.1078 70.9509 233.8902 71.2862 235.0079 70.7274 235.455 69.7215 234.4491 68.492 233.1078 68.1567 229.7547 68.492 228.3017 68.492 223.0484 66.5919 219.0246 64.1329 214.442 62.121 207.8475 61.2268 207.8475 59.8856 211.7595 58.8796 219.2482 55.5265 223.4955 54.9677 222.8249 53.9617 222.266 53.1793 221.4836 52.844 219.807 52.5087 219.807 51.391 228.637 50.8321 230.7606 51.391 231.7666 52.7322 231.543 54.297 231.0959 55.6383 231.4312 56.1971 232.1019 56.5325 234.4491 58.6561 235.5668 58.6561 236.7963 57.3149 236.7963 56.1971 234.7844 54.1853 236.7963 52.9558 240.4847 52.3969 244.0614 52.5087 245.2909 53.1793 246.8557 54.7441 248.3087 54.9677 249.4264 54.6323 249.8735 53.5146 249.7617 52.2851 248.8675 51.391 248.8675 50.0497 251.4383 49.0438 252.2207 47.0319 251.6618 44.6847 250.2088 42.6728 248.8675 41.6669 245.9615 40.4374 244.6202 39.5432 243.1672 37.9784 243.1672 37.5314 244.0614 37.4196 245.2909 36.5254 247.9734 33.9547 249.5382 34.8488 251.3265 36.5254 254.9032 36.5254 257.0268 34.5135 256.5798 31.9428 254.6796 29.3721 252.4442 27.8073 250.9912 27.1366 255.2385 20.2068 258.4799 13.1652 263.3978 6.459 269.3217 4 274.3514 6.5707 279.3811 11.0416 285.0814 14.2829 302.9648 20.9892 326.7721 29.8191 333.0312 32.1663 358.4033 41.5551 386.905 52.1734 390.9287 52.6205 395.0642 51.0557 413.2829 38.9844 426.3602 30.378 431.9487 29.0367 435.0783 30.378 441.7846 35.2959 444.8024 35.743 448.6026 35.5195 452.7382 36.8607 461.4563 40.6609 462.4623 40.9963 463.3564 41.3316 464.2506 41.7787 464.9212 42.3375 468.945 47.3672 470.5098 48.5967 472.0746 49.6026 473.9747 50.2733 475.8748 50.4968 477.5514 49.8262 487.0519 43.567 488.505 42.6728 490.1815 43.567 490.6286 44.9083 490.6286 46.6966 490.9639 48.932 491.7463 50.1615 494.0935 53.1793 494.5406 54.4088 496.4407 56.1971 504.6 59.3267 506.5001 60.668 508.0649 62.3446 511.418 64.1329 514.5476 66.7036 515.1065 70.9509 512.7593 72.2922 511.9769 72.7393 511.1945 74.1923 511.5298 75.1982 512.2004 75.9806 512.6475 76.5395 516.5595 79.6691 517.4537 80.8986 519.4656 79.4455 522.1481 79.5573 523.3776 79.6691 524.9424 79.8926 527.066 79.5573 530.4191 82.7987 532.431 83.5811 534.4429 82.0163 535.6724 82.0163 537.796 84.1399 542.1551 81.3457 545.1729 82.0163 547.2966 79.8926 549.6438 79.5573 551.5439 80.8986 552.4381 83.9164 563.0563 92.411 564.174 92.9699 565.8506 93.1934 567.6389 92.8581 570.0979 91.0697 571.2156 90.7344 576.0218 91.7404 576.6924 91.2933 580.2691 87.046 592.0051 82.5751 592.8992 82.3516 604.5234 79.5573 610.6708 76.4277 611.2297 71.5098 609.6649 65.1388 609.5531 61.1151 607.7648 60.2209 608.3237 57.8737 607.9883 56.756 607.5413 56.6442 606.2 53.4029 604.8587 53.0675ZM351.5853 203.5116L353.3736 203.8469 354.3795 204.741 355.7208 205.0763 357.6209 205.0763 357.6209 206.1941 355.4972 206.9765 352.8147 207.6471 349.7969 207.8706 346.7791 207.5353 343.7613 206.1941 342.0847 204.6293 339.6257 200.0466 342.9789 198.9289 344.4319 198.8172 350.1322 199.8231 355.2737 201.3879 355.2737 202.6174 349.2381 202.6174 350.9146 203.5116 351.5853 203.5116ZM4.424 1019.8882L1.1826 1020 3.418 1016.088 5.5417 1014.4114 8.0007 1012.9584 10.4596 1012.5113 10.4596 1014.2997 10.3479 1016.5351 8.0007 1019.1058 4.424 1019.8882ZM569.5391 452.426L571.7745 451.3083 574.3452 451.1965 574.1217 453.3201 572.7804 453.879 570.545 453.4319 569.5391 452.426Z" />
</svg>