<?xml version="1.0" encoding="utf-8"?>
<svg xmlns="http://www.w3.org/2000/svg" viewBox="0 0 1021 851" style="stroke-width:0.25px;stroke-linejoin:round;stroke:#444;fill:#ddd" fill-rule="evenodd">
  <path class="CW" d="M920.5415 710.9636L1004.1463 796.5803 1017 818.711 996.0988 833.1295 946.2488 843.0771 887.6807 846.8773 840.5133 842.4065 778.4803 812.7871 655.532 728.5117 534.9309 692.186 457.1382 646.5834 387.393 589.8036 357.2147 537.9418 340.8961 488.986 302.3351 473.1145 256.956 468.8672 220.0715 454.8958 188.7756 417.3407 116.3479 298.975 88.8521 278.968 56.5503 261.9788 29.6134 240.4069 18.4363 207.658 23.9131 121.2589 19.6658 75.4327 1 34.5244 14.189 12.9526 25.7014 4.1227 37.4374 6.2463 50.6264 17.9823 151.444 61.126 194.1406 87.504 236.7254 124.8355 262.7681 170.1029 287.3578 281.9858 309.0414 330.271 395.4405 412.9816 495.9228 461.8256 792.3399 534.8122 826.4301 555.7134 840.5133 586.3387 847.4431 635.1827 865.8854 664.8021 920.5415 710.9636Z" />
</svg>