<?xml version="1.0" encoding="utf-8"?>
<svg xmlns="http://www.w3.org/2000/svg" viewBox="0 0 1021 390" style="stroke-width:0.25px;stroke-linejoin:round;stroke:#444;fill:#ddd" fill-rule="evenodd">
  <path class="CY" d="M840.6251 147.7208L840.0662 147.7208 839.7309 145.7089 837.1602 145.1501 834.5894 145.1501 833.6953 142.4675 831.4598 141.4616 827.9949 139.338 829.3362 138.2202 831.9069 138.2202 836.266 139.338 838.3897 142.0205 841.0722 142.0205 843.1958 142.0205 845.7666 143.5853 847.5549 146.7149 846.7725 146.7149 844.09 147.2737 842.3017 147.7208 840.6251 147.7208ZM818.9415 130.7316L817.1531 129.8374 816.7061 128.0491 817.4884 124.8077 818.0473 122.3487 820.7298 121.3428 824.0829 121.7899 824.0829 128.7197 821.0651 129.7256 818.9415 130.7316ZM796.699 139.785L795.9166 150.068 784.1806 154.5388 769.5386 169.1809 765.4031 177.7872 761.6029 188.8526 758.8086 201.0356 757.8026 213.1069 759.0321 226.0724 757.5791 231.6609 752.3259 234.0081 748.9727 236.5789 745.0607 248.6502 742.6018 252.4504 734.1072 255.0211 715.5531 255.1329 708.5116 257.033 703.5936 262.1745 697.8933 269.9985 691.2988 277.04 683.6983 280.1696 665.9267 284.6405 649.8317 292.4645 636.7545 295.3705 628.3716 285.1993 627.8128 304.2004 612.053 314.0363 570.8095 322.6427 562.4266 326.5547 557.3969 329.9078 550.4671 334.4904 542.4196 336.0552 502.4055 331.3608 462.5032 336.0552 453.8968 338.4024 446.0728 343.8792 420.2537 367.7982 414.5534 379.1989 400.6937 379.1989 388.9578 380.8755 385.0458 385.5699 381.2455 382.9991 380.3514 373.4986 386.7223 367.5747 389.4048 371.3749 400.2466 371.3749 398.9054 352.9327 380.6867 350.2502 373.7569 357.0682 370.292 363.4392 366.8271 360.3096 359.8972 357.0682 357.8854 361.7626 341.6785 357.5153 331.1721 349.2442 328.266 343.2086 327.8189 334.4904 324.5776 335.2728 320.2185 335.2728 317.4242 335.2728 314.5182 335.0493 312.618 334.2669 309.9355 337.2847 307.253 340.7496 305.4647 343.2086 297.976 344.5498 293.9523 354.4975 282.7751 353.0444 276.1806 351.0326 272.4922 355.727 272.8275 366.5688 266.4565 368.8042 243.2081 371.822 220.0715 367.2394 198.0526 357.5153 169.5509 339.7437 159.3798 335.2728 147.7556 332.4785 124.1718 330.0196 114.4477 325.9958 105.059 320.0719 82.9283 302.4121 79.6869 298.7237 76.222 279.1637 73.9866 276.0341 73.5395 269.6631 60.6858 234.0081 54.4266 228.6431 42.5789 220.7074 37.5492 215.4541 33.0783 208.6361 29.7252 200.4768 29.2781 191.7586 34.0843 183.0405 23.466 165.3806 22.3483 158.2273 22.3483 143.4735 20.0011 130.6198 7.818 109.6068 3.3472 99.2121 1 82.2229 2.9001 69.8163 9.2711 65.6807 20.4482 73.5047 37.1021 91.7234 46.3791 99.1003 56.8856 103.4594 79.9105 102.4535 100.0293 91.7234 116.5714 75.2931 128.978 57.4097 137.2491 36.3967 143.1729 24.8843 152.0029 18.5133 153.1206 15.2719 154.6854 12.0306 157.9267 10.5776 160.6092 11.36 164.8565 14.266 165.7507 14.9366 169.4392 15.719 175.0277 14.3778 179.3868 22.2018 187.6579 26.8961 195.8172 28.4609 202.4117 26.8961 209.3415 22.2018 213.2535 13.1483 216.7184 4.4301 234.3782 6.7773 237.9549 24.7725 241.4198 33.826 246.1142 40.7558 254.8323 45.4502 269.5861 50.2563 280.875 56.6273 292.2757 61.8805 298.3113 67.2455 300.435 77.305 300.435 83.5641 303.4528 89.0409 309.1531 91.6117 313.8475 91.6117 328.6013 87.3644 335.5311 82.5582 337.3195 79.4286 340.7844 72.0517 345.1435 69.3692 350.3967 72.0517 353.8616 76.8579 362.468 82.5582 369.8449 82.5582 377.2218 77.8638 387.6165 67.2455 397.6759 57.745 407.6235 52.9388 420.589 44.8913 426.6246 39.191 431.8779 38.0733 445.7375 39.6381 460.4913 42.8794 474.3509 42.8794 482.1749 39.191 485.6398 36.5085 489.1047 30.5846 502.5173 21.084 511.2354 21.084 518.6123 24.2136 526.101 26.8961 532.919 27.455 538.6194 30.1375 546.108 38.6321 551.6966 46.009 560.7501 51.2623 573.3802 54.5036 577.7393 52.9388 580.31 49.2504 581.2042 43.8854 588.134 38.6321 599.4229 26.3373 604.229 24.7725 613.2825 25.8902 627.5892 24.2136 637.2015 22.6488 640.2194 24.7725 640.2194 33.2671 641.8959 43.3265 646.255 47.5738 652.2906 54.5036 660.1146 62.9982 661.0088 67.2455 661.903 78.8697 661.0088 90.0469 661.0088 103.3476 657.5439 118.6603 654.079 130.8433 655.7556 139.785 661.0088 146.7149 667.1562 146.7149 676.2097 144.0323 680.1217 133.4141 682.2453 113.9659 685.4867 110.6128 689.6222 106.4772 694.7637 101.6711 699.1228 106.4772 699.1228 122.9076 702.5877 131.9611 709.5175 134.9789 719.5769 130.8433 723.8242 121.7899 728.7421 118.1014 734.7778 119.1074 741.1487 123.4664 745.9549 122.3487 750.4257 120.2251 756.3496 122.3487 761.6029 125.0312 773.7859 131.4022 780.7157 132.4081 786.7514 133.4141 795.4695 139.338 796.699 139.785ZM905.2288 90.0469L912.1586 92.6176 918.3061 95.3001 923.4475 96.9767 931.2715 96.9767 940.8838 92.6176 950.8315 92.6176 956.0847 96.4178 963.0145 99.5474 968.6031 98.4297 971.6209 96.4178 974.1916 92.9529 981.9039 99.5474 990.2867 109.1597 996.5459 127.7138 1002.8051 139.6733 1010.4055 150.7386 1017 155.3212 1009.2878 155.7683 994.9811 154.3153 981.1215 150.2915 974.974 143.4735 968.3795 140.0086 938.2013 143.9206 911.9351 151.8563 906.2348 155.3212 901.7639 160.0156 886.563 156.7743 876.1683 158.8979 871.921 156.2154 878.7391 149.9562 883.5452 148.8385 883.5452 137.2143 873.1505 136.0966 867.1149 130.8433 867.5619 115.9778 863.2029 111.1716 850.1256 105.4713 853.1435 97.9826 858.3967 93.7353 865.7736 90.0469 870.1327 93.1765 873.5976 96.9767 881.4216 95.3001 888.3514 90.4939 892.2634 85.7996 895.2812 81.9993 905.2288 90.0469Z" />
</svg>