<?xml version="1.0" encoding="utf-8"?>
<svg xmlns="http://www.w3.org/2000/svg" viewBox="0 0 1021 586" style="stroke-width:0.25px;stroke-linejoin:round;stroke:#444;fill:#ddd" fill-rule="evenodd">
  <path class="CZ" d="M411.8708 47.2711L415.1122 47.3828 420.4772 45.818 437.69 47.1593 437.9135 45.0356 437.8018 36.7646 437.5782 36.0939 437.4664 35.1998 437.69 33.8585 438.0253 33.0761 439.5901 31.3996 440.0372 30.1701 439.8136 23.2403 437.5782 19.8871 435.1193 17.987 434.4486 15.3045 435.231 14.5221 435.9017 13.8515 436.7958 13.4044 437.69 13.2926 439.8136 11.6161 440.4843 10.6101 440.9314 8.5982 443.8374 11.169 451.4378 12.9573 452.6673 15.3045 454.4557 16.9811 456.5793 18.0988 458.2559 17.7635 458.8147 15.3045 460.156 12.1749 462.0561 10.7219 463.8444 11.6161 464.5151 15.3045 465.9681 18.7694 474.4627 18.8812 478.4865 20.8931 480.9454 24.8051 480.7219 27.1523 479.4924 29.6112 478.3747 33.9703 478.8218 37.4352 480.2748 41.5707 481.9514 45.5945 483.6279 48.1652 486.6458 50.5124 489.3283 51.7419 491.5637 53.642 493.352 58.1129 493.4638 60.4601 493.0167 62.8073 492.905 65.0427 493.9109 67.0546 495.6992 67.6134 496.0345 67.7252 497.7111 65.9369 499.0524 63.3661 500.5054 61.6895 506.7646 61.1307 536.831 71.749 538.5076 72.8667 540.5195 75.8845 541.6372 77.0022 543.202 77.4493 555.7204 74.4315 559.4088 74.7668 559.7441 76.4433 560.1912 77.8964 567.7916 90.8618 568.7976 91.1971 572.9331 91.0854 581.8748 87.7322 584.3338 88.0675 586.3457 89.9677 588.3575 93.7679 589.587 96.8975 590.4812 100.2506 590.0341 103.0449 587.9105 104.8332 587.6869 105.6156 587.4634 106.2862 587.5751 107.0686 587.9105 107.7393 594.2814 106.6216 603.6702 97.5681 609.9294 98.2387 614.7355 101.8154 616.971 102.9331 619.5417 102.3743 621.33 100.0271 622.4477 97.0092 623.5655 94.662 625.4656 94.215 630.9424 94.3267 635.8603 95.5562 640.4429 98.2387 653.2966 111.763 654.6378 116.3457 649.9435 118.2458 650.5023 120.0341 650.5023 120.8165 650.0552 121.4871 649.3846 122.8284 649.1611 124.0579 648.9375 125.8462 649.0493 127.2992 649.3846 127.1875 648.1551 128.9758 645.0255 131.9936 643.5725 134.0055 641.0018 134.5644 636.1956 133.2231 633.8484 134.0055 632.7307 137.0233 630.4953 139.0352 627.8128 140.6 625.4656 142.5001 624.6832 142.8354 623.3419 143.7296 622.336 143.8414 623.1184 146.4121 623.3419 147.0827 620.4359 146.4121 619.2064 150.2123 620.6594 154.4596 625.4656 155.242 627.4774 161.3894 628.1481 162.7307 630.0482 164.2955 631.1659 164.0719 632.2836 163.066 633.9602 162.5072 640.89 162.5072 642.343 162.9542 643.349 165.1897 643.4607 167.3133 643.349 169.5487 643.6843 171.5606 646.3668 175.1373 653.073 177.5963 656.4262 179.9435 658.5498 182.9613 662.4618 190.0029 664.5855 192.9089 666.4856 196.3738 671.0682 201.18 672.633 205.5391 674.4213 213.5866 675.7626 216.4926 678.4451 219.9575 683.5866 224.7637 689.9575 228.0051 695.9932 227.558 700.6876 221.2988 704.0407 218.8398 705.829 216.2691 707.3938 213.0277 710.1881 209.004 713.5413 206.0979 716.5591 205.6508 719.4651 205.8744 721.3652 205.3155 723.0418 204.9802 724.4948 203.6389 726.9538 200.174 728.7421 198.9446 730.0834 198.8328 732.8777 199.8387 734.2189 199.8387 734.5542 198.9446 734.5542 196.0385 735.0013 195.4796 737.125 195.4796 738.0191 196.0385 738.8015 197.4915 740.3663 199.9505 742.1547 200.6211 743.1606 198.6092 742.8253 195.4796 740.9252 192.9089 740.7017 187.2086 739.1369 182.9613 736.3426 179.9435 732.6541 177.8198 729.8598 174.9138 728.4068 170.3311 727.2891 165.3014 725.6125 161.0541 720.8064 153.9008 720.6946 150.6594 724.8301 148.0887 728.295 148.5358 732.5424 151.1065 734.7778 152.4477 738.2427 152.0007 753.6671 156.3597 755.3437 157.3657 758.8086 160.3835 760.7087 161.3894 762.7206 161.3894 767.3032 160.3835 769.0915 160.9424 768.7562 161.613 769.3151 164.1837 770.2092 167.2015 771.1034 169.3252 772.5564 170.89 777.9215 174.2431 781.4981 175.2491 788.5397 175.0255 791.6693 176.3668 788.875 177.4845 789.3221 178.3787 789.7692 179.1611 790.4398 179.8317 791.1105 180.5023 790.8869 183.5201 791.2222 186.538 792.2282 188.8851 794.24 190.4499 795.9166 186.0909 799.2697 185.8673 802.5111 188.5498 803.8524 192.9089 804.6348 193.4678 805.4172 193.5795 806.3113 193.4678 807.0937 192.9089 811.4528 187.5439 818.6062 186.8733 832.0187 189.2205 835.4836 188.3263 838.0543 186.2026 842.5252 180.0552 843.4194 178.1551 843.7547 176.4785 844.7606 175.9197 847.3314 176.8139 848.1138 177.5963 850.908 181.3965 851.2433 181.9553 851.3551 182.5142 851.2433 183.2966 850.908 183.9672 849.3432 188.4381 849.0079 190.5617 849.3432 192.9089 850.908 194.4737 853.2552 198.8328 851.8022 202.4095 848.7844 205.092 842.4134 208.8922 838.3897 210.457 831.1245 210.7923 829.448 211.5747 828.442 213.9219 828.6656 215.5985 836.0425 224.8755 838.3897 225.9932 839.8427 225.6579 841.1839 224.9872 842.7487 224.5402 844.7606 225.099 848.7844 227.1109 850.908 227.558 851.0198 227.7815 851.0198 228.0051 851.0198 228.2286 850.908 228.4521 849.5668 229.5699 849.0079 230.9111 849.455 232.2524 850.908 233.5936 852.5846 235.6055 853.5905 238.1762 854.4847 241.0823 855.6024 243.8766 857.279 246.2238 867.0031 255.9479 872.4799 257.1773 877.9567 255.5008 882.4275 251.477 885.11 250.8064 891.1457 250.5828 896.0636 249.1298 896.846 248.1239 896.6224 245.7767 895.5047 244.2119 894.2752 244.1001 893.0458 244.5472 892.2634 244.2119 891.5927 238.8469 894.0517 239.5175 896.1754 240.0763 905.0053 245.7767 903.9993 250.1358 905.8994 252.3712 915.5118 254.1595 917.859 255.5008 922.5534 259.5245 924.3417 260.3069 927.9184 261.0893 929.7067 262.4306 930.2656 263.6601 931.3833 267.3485 932.1657 268.9133 935.1835 271.3723 937.3072 270.9252 941.5545 267.2367 941.3309 266.7897 941.1074 266.5661 940.8838 266.4543 940.5485 266.4543 946.5842 265.6719 952.3963 267.7956 963.5734 273.943 967.1501 273.943 972.9622 270.1428 975.1976 271.484 976.2035 275.7314 975.7564 279.308 976.4271 282.1023 980.4508 284.3377 976.3153 289.1439 976.4271 295.4031 978.9978 302.4447 982.5745 309.7098 984.0275 316.5278 984.9217 318.2044 986.9336 319.6574 991.6279 320.1045 993.7516 320.6634 995.7635 322.3399 998.6695 325.8048 1000.5696 326.9226 1002.6933 326.8108 1005.0405 325.6931 1007.3877 325.3578 1009.7349 327.0343 1010.2937 328.8227 1011.2997 336.8702 1011.9703 338.9938 1013.7586 343.1294 1014.4293 345.1413 1016.6647 355.0889 1017 359.895 1016.4411 363.6953 1010.2937 363.9188 1007.4994 364.9248 1001.2403 370.6251 997.1047 370.8486 992.7457 369.5074 987.8277 367.0484 986.71 366.8249 985.7041 367.0484 981.4568 369.3956 974.7505 368.3897 971.7327 370.2898 970.9503 372.1899 970.5032 376.549 969.8326 378.5608 968.4913 379.7903 963.5734 382.4728 957.2024 390.4086 953.8493 392.5322 949.4902 391.6381 949.0431 402.5916 945.5782 405.2741 939.9897 409.745 919.7591 417.569 915.2882 421.8163 911.7116 427.7402 908.9173 434.67 907.0172 442.2704 906.4583 448.4178 906.4583 449.7591 906.6818 460.042 905.6759 465.0717 902.5463 470.4367 898.0755 474.5723 893.1575 476.8077 885.11 476.2488 881.4216 476.8077 878.292 478.8196 876.2801 482.8433 875.3859 486.1965 874.1564 493.2381 872.927 496.4794 870.2444 499.1619 867.3384 499.2737 864.2088 498.7149 860.5204 499.3855 858.0614 501.3974 852.8081 510.3391 850.2374 512.5745 821.2887 523.9751 815.8119 523.081 811.2293 518.2748 808.9938 517.1571 805.4172 518.2748 802.7347 520.0631 799.8286 521.9633 797.1461 522.4103 780.0451 513.6922 772.78 511.9039 766.0737 513.2451 758.0262 519.169 756.6849 521.2926 755.7908 525.6517 753.5553 528.3342 748.4139 532.9168 744.7254 539.176 737.125 561.0832 735.4484 564.3245 732.9894 567.2306 732.6541 571.4779 727.5127 565.4422 725.389 550.4649 721.8123 545.4352 719.3534 545.2117 713.5413 547.2235 710.747 547.6706 707.9527 546.5529 702.4759 542.9762 700.2405 542.1938 694.4284 542.4174 692.0812 541.9703 690.0693 540.629 689.0634 537.9465 688.5045 534.5934 687.275 531.9109 684.369 530.6814 681.6865 530.3461 672.633 527.7754 670.0623 526.0988 668.721 525.6517 667.3798 525.8752 664.5855 526.993 663.0207 527.1047 658.7734 526.4341 656.0909 528.2224 648.4904 541.2997 646.8139 542.8645 644.4667 543.5351 643.6843 543.1998 641.6724 541.635 638.5428 542.0821 638.3193 542.3056 617.3063 539.176 603.4466 539.9584 595.5109 536.4935 580.4218 525.4282 580.1982 524.3105 580.1982 522.7457 579.4158 521.7397 576.8451 522.4103 576.6216 520.0631 575.5039 519.0572 573.8273 518.9454 571.9272 519.3925 573.492 517.3806 572.2625 517.3806 571.1448 516.9336 569.4682 515.7041 566.5622 515.4805 565.5562 515.0334 564.8856 513.9157 564.215 511.1215 563.3208 510.4508 558.7382 510.4508 557.5087 510.7861 552.1437 513.5804 549.5729 514.3628 546.108 514.3628 542.7549 513.5804 531.1307 506.9859 522.189 503.521 518.7241 502.1798 511.2354 495.697 507.9941 493.7969 501.3996 491.5615 494.1344 487.873 490.7813 486.9789 483.7397 486.8671 482.9573 486.3083 482.3985 485.1905 481.6161 484.2964 480.4983 484.2964 479.8277 485.1905 479.4924 488.3201 478.9336 489.4378 476.9217 492.0086 476.1393 492.4557 464.6268 495.5853 461.7208 495.4735 462.7267 492.2321 462.7267 489.1025 462.0561 486.0847 461.0502 482.8433 449.3142 481.8374 440.9314 478.9314 437.69 479.3784 437.1311 479.8255 436.9076 480.4961 436.9076 481.6139 437.1311 482.8433 435.0075 487.6495 435.0075 494.244 435.5663 501.1738 435.5663 507.5448 432.4367 521.8515 431.319 524.7575 431.0955 526.3223 431.319 527.7754 431.9897 529.5637 432.6603 531.0167 432.9956 531.4638 431.319 535.3758 428.1894 535.7111 420.4772 532.4697 412.6532 531.4638 410.3061 532.2462 409.4119 534.4816 408.853 537.2759 407.4 539.9584 406.6176 544.3175 398.6818 551.2473 395.8876 555.8299 395.3287 561.9773 395.3287 568.9072 394.6581 574.831 393.9875 575.5017 391.6403 577.8488 389.1813 577.7371 387.9518 576.1723 387.0576 574.0486 385.4928 571.925 384.4869 571.7014 382.1397 572.4838 381.022 572.3721 380.5749 571.4779 380.4631 569.9131 380.3514 568.4601 379.3454 567.6777 376.9982 567.7894 372.5274 570.0249 370.292 570.4719 368.5036 570.0249 362.5798 566.8953 358.8913 562.648 356.7677 564.2128 353.4145 573.1545 350.9556 575.6134 343.1316 578.9666 340.1138 581.4255 338.996 581.8726 337.543 581.9844 322.5657 576.7311 301.3292 574.3839 296.1877 572.2603 294.9582 571.0308 292.3875 567.7894 291.7168 566.56 291.0462 563.5421 291.2697 562.8715 292.1639 562.5362 293.1699 560.4125 293.6169 560.0772 294.2876 560.189 294.9582 559.9655 295.2935 558.6242 294.8464 557.1712 293.9523 556.5006 292.9463 556.1652 292.1639 555.3828 291.2697 553.4827 288.699 549.6825 287.4695 548.2295 277.2983 542.6409 274.057 539.9584 271.2627 537.8348 268.4684 536.27 262.4328 534.5934 259.415 531.5756 252.1498 517.0453 248.6849 511.5685 246.5613 510.3391 240.9727 509.5567 238.1784 508.1036 235.6077 505.6447 233.2605 502.068 231.5839 497.8207 231.2486 493.5734 228.5661 493.7969 225.9954 492.4557 223.4246 490.332 220.7421 488.7672 218.2832 488.2084 217.2772 487.9848 215.2653 488.9908 213.8123 491.5615 212.2475 495.4735 208.7826 493.7969 203.9765 490.332 199.7292 486.3083 197.4937 482.8433 197.382 476.3606 195.7054 472.3369 189.3344 465.8541 184.7518 459.7067 182.9635 458.1419 179.9457 457.0242 170.8922 456.5771 166.6449 454.1182 164.1859 450.2062 162.2858 445.7353 148.2026 426.5107 146.3025 425.5047 146.3025 425.393 141.4964 419.6926 140.8257 417.569 140.6022 415.3336 139.708 413.4334 137.1373 412.4275 132.89 407.8449 130.7663 406.1683 128.1956 404.7153 122.4953 403.1505 120.3716 403.8211 121.0422 406.8389 118.248 407.1743 109.418 405.833 106.4002 404.8271 104.053 402.3681 99.1351 391.3028 96.1173 388.1732 89.1875 384.82 86.1696 382.3611 84.4931 379.0079 83.7107 375.3195 83.3754 367.719 83.1518 363.807 82.0341 362.9129 80.4693 363.1364 78.681 362.5776 77.1162 360.901 75.8867 359.2244 74.9925 357.1008 73.9866 354.3065 73.4277 351.624 72.7571 346.4825 71.6394 343.9118 70.0746 342.2352 66.4979 340.2233 64.9331 338.3232 65.0449 337.7644 65.7155 335.976 64.5978 335.4172 64.1507 335.0818 65.492 332.2876 65.3802 329.158 64.1507 326.699 62.0271 325.5813 56.9974 323.2341 54.7619 321.6693 52.5265 319.6574 49.5087 315.1866 47.9439 312.1688 47.1615 309.7098 48.9498 306.2449 55.0972 303.6741 57.5562 301.2152 58.0033 297.415 58.1151 292.497 59.0092 289.1439 62.0271 290.1498 63.1448 286.5732 66.6097 280.0904 67.8392 276.5138 68.2862 272.0429 67.2803 270.3663 65.1567 269.4722 59.0092 265.8955 59.2328 263.3248 60.2387 260.1952 59.9034 256.7303 57.3327 254.3831 51.8559 253.7124 49.5087 251.477 49.3969 251.477 26.5956 239.2939 26.1485 237.8409 26.1485 235.7173 25.8132 233.2583 24.4719 230.9111 22.2365 229.1228 19.8893 227.6697 17.7657 225.7696 16.4244 222.193 16.3127 218.7281 17.4304 213.363 16.9833 209.7864 15.8656 206.9921 14.0772 204.4213 10.3888 200.3976 3.0119 195.7032 1.4471 192.9089 3.3472 190.1146 4.912 188.9969 5.9179 187.991 6.1415 184.9732 5.5826 181.62 4.4649 179.4964 1 175.9197 4.6884 176.1432 11.9536 176.7021 14.8596 178.714 15.7538 180.9494 15.642 184.9732 16.3127 186.7615 17.9892 188.3263 20.1129 188.9969 24.4719 189.1087 25.4779 189.6675 26.0367 190.5617 25.925 191.5677 25.2543 192.9089 25.0308 192.9089 24.8073 193.0207 24.5837 193.1325 24.4719 193.356 24.0249 193.8031 23.9131 194.2502 24.0249 194.809 24.4719 195.3679 27.0427 197.9386 27.7133 198.8328 28.3839 200.3976 28.6075 201.7388 28.7193 202.9683 30.6194 209.451 32.0724 211.7982 34.6431 212.1336 36.7668 210.5688 36.7668 208.5569 35.8726 205.9861 35.4255 203.0801 35.8726 198.9446 36.655 196.7091 39.6728 192.9089 40.1199 189.2205 41.3494 187.3204 43.026 186.2026 44.7025 184.4143 49.3969 175.9197 50.9617 174.2431 55.3208 171.7842 57.1091 170.2194 57.668 169.884 59.0092 169.884 59.6799 169.5487 60.0152 168.7663 59.9034 167.7604 59.6799 166.978 59.6799 166.5309 60.0152 165.4132 60.3505 164.2955 60.9094 163.066 62.0271 162.1718 66.1626 158.5952 72.1982 156.8068 83.4871 155.9127 91.5347 157.3657 93.4348 157.1421 95.1113 155.5773 98.4645 150.3241 100.3646 148.424 102.8235 147.5298 105.2825 147.418 107.965 147.7534 108.8592 147.418 110.9828 146.0768 112.3241 145.7415 113.5536 146.0768 127.525 154.5714 132.6664 154.9067 133.8959 153.6772 137.1373 150.4359 139.2609 147.9769 140.2669 143.6178 141.2728 134.0055 142.5023 133.1113 143.7318 132.8878 144.9613 133.1113 146.1908 134.0055 147.4202 134.3408 148.8733 134.5644 150.3263 134.4526 151.6675 134.0055 155.9149 132.5525 163.8506 132.9996 167.5391 130.2053 169.6627 126.2933 174.6924 112.8807 177.5985 113.2161 180.0574 114.8926 182.5164 116.0103 185.7578 114.3338 187.3226 109.5276 188.105 108.0746 193.8053 104.0508 194.6994 103.0449 194.8112 102.2625 195.2583 101.9272 197.0466 102.5978 197.829 103.492 199.9527 107.0686 200.9586 108.2981 204.3118 109.9747 207.1061 109.3041 209.6768 106.9569 212.2475 103.7155 213.7006 102.8213 214.7065 101.7036 214.8183 100.2506 213.9241 98.3505 216.3831 96.4504 218.3949 93.8796 219.0656 90.7501 217.2772 87.0616 223.4246 83.3732 230.2427 82.0319 243.767 82.1437 246.673 81.5848 252.3734 79.4612 255.6147 79.1259 262.5446 79.9083 265.2271 79.3494 269.5861 76.5551 270.4803 76.5551 271.3745 76.2198 272.3804 74.7668 272.4922 73.5373 272.0451 71.8607 271.9333 69.8488 272.4922 67.5017 273.9452 65.8251 275.1747 65.8251 276.6277 66.2722 278.5278 65.9369 280.0926 64.8191 282.3281 61.8013 284.0046 60.6836 286.9107 60.013 292.3875 60.7954 295.2935 60.5718 318.7655 49.8418 320.5538 48.0535 323.3481 43.9179 324.9129 42.2414 330.3897 41.1237 342.1256 42.1296 346.5965 38.3294 347.4906 32.4055 343.4669 30.0583 337.8783 28.4935 334.0781 24.5815 334.1899 22.1226 335.5311 21.2284 335.7547 20.7813 332.7369 19.5518 327.5954 18.8812 325.9188 17.7635 327.5954 15.3045 329.719 8.3747 333.2957 4.6862 338.1019 4.0156 343.6904 5.804 344.8081 6.8099 345.5905 8.1512 346.5965 9.4924 348.1613 10.3866 349.8378 10.3866 354.0851 8.4865 359.5619 8.8218 361.2385 7.9276 362.5798 4.6862 363.3622 6.6981 363.6975 8.1512 364.2563 9.4924 365.5976 11.5043 367.4977 12.8455 371.5215 13.8515 373.4216 15.3045 375.2099 17.5399 376.3276 19.3283 376.8865 21.6755 376.5512 25.2521 375.4334 28.1582 373.6451 31.6231 372.7509 34.5292 374.5393 35.8704 382.8103 32.4055 384.5987 32.4055 385.4928 35.088 384.5987 38.3294 382.0279 44.2532 381.4691 48.6123 382.2515 50.2889 387.393 51.8537 389.6284 52.9714 395.3287 57.4422 400.9173 58.6717 404.1586 58.7835 406.6176 58.1129 408.0706 56.4363 409.5237 53.642 411.8708 47.2711Z" />
</svg>