<?xml version="1.0" encoding="utf-8"?>
<svg xmlns="http://www.w3.org/2000/svg" viewBox="0 0 753 1024" style="stroke-width:0.25px;stroke-linejoin:round;stroke:#444;fill:#ddd" fill-rule="evenodd">
  <path class="DE" d="M650.2924 837.9248L647.8334 843.0662 647.7217 844.1839 648.057 844.0722 648.9512 845.7487 649.3982 846.084 650.4042 846.6429 649.2865 847.6488 649.0629 849.1019 649.51 853.1256 649.51 855.1375 649.1747 856.9259 648.7276 858.6024 647.2746 861.6202 646.9393 862.1791 646.2686 862.8497 645.598 863.185 643.9215 863.4086 643.5861 863.4086 642.9155 864.7498 642.2449 868.103 642.0213 867.8794 638.6682 866.3146 637.4387 864.4145 636.0975 863.4086 634.7562 862.6262 626.2616 860.279 623.5791 860.7261 620.8966 861.732 620.1142 862.4026 619.6671 863.185 619.7789 863.6321 620.0024 864.191 620.3377 866.4264 621.1201 867.6559 621.2319 868.6618 621.0084 869.8913 619.8906 872.2385 619.5553 873.3562 619.3318 874.4739 619.5553 877.9388 619.3318 879.2801 618.9965 880.0625 618.6612 880.7331 618.4376 881.4037 617.9905 883.9745 616.8728 885.8746 608.9371 892.9162 606.1428 894.3692 594.9657 896.3811 586.4711 899.7342 585.1298 900.6284 582.112 903.5344 579.5413 905.0992 578.3118 906.1052 578.4235 906.3287 573.8409 907.2229 572.6114 907.8935 571.9408 908.6759 570.376 911.1349 569.3701 912.3644 566.1287 914.5998 565.7934 915.0469 564.5639 916.8352 564.1168 917.0587 563.558 917.0587 562.9991 917.1705 562.552 918.0647 562.4403 919.7413 562.7756 921.3061 563.558 922.7591 564.3404 923.9886 570.0407 930.0242 571.2702 932.7067 571.4937 934.048 571.4937 934.2715 571.9408 935.501 572.6114 936.5069 574.5116 937.6246 576.1881 939.3012 576.8587 939.7483 578.2 941.0895 580.9943 947.4605 582.7826 950.143 583.1179 950.4783 577.8647 958.9729 577.4176 959.8671 577.1941 960.6495 577.1941 961.4319 577.0823 962.2143 576.5234 963.1085 575.0704 965.4557 576.4117 966.7969 580.8825 967.6911 582.112 967.4675 584.2356 966.5734 585.4651 966.7969 586.4711 967.5793 587.477 968.697 589.0418 971.4913 589.7124 973.2796 589.936 974.8444 589.8242 976.2975 589.7124 977.7505 589.4889 977.974 588.4829 980.433 588.4829 980.7683 587.1417 982.4449 586.9182 982.3331 587.0299 985.1274 587.1417 985.0156 587.1417 985.2392 586.3593 987.1393 586.1358 987.4746 586.1358 989.5982 586.1358 990.3806 586.3593 990.9395 586.5828 991.6101 586.8064 992.3925 586.9182 993.3985 584.571 996.081 584.0121 996.6398 583.1179 996.6398 582.5591 996.3045 582.112 995.8574 581.3296 995.4103 580.5472 995.4103 579.8766 995.8574 579.0942 996.081 578.2 995.7457 574.288 992.7278 570.4878 988.5923 569.8172 988.0334 569.0348 987.6981 567.8053 987.4746 565.7934 985.9098 565.3463 982.892 566.3523 980.0977 568.5877 978.98 567.0229 977.4152 564.8992 976.0739 563.558 974.5091 564.4521 972.3855 562.9991 972.4972 558.4165 971.3795 555.5105 971.3795 552.6044 972.0502 551.1514 972.8326 548.2453 975.4033 547.4629 976.0739 546.2334 976.6328 544.4451 976.9681 542.7685 976.9681 541.6508 976.4092 539.1919 974.3974 538.5212 973.615 538.1859 972.609 537.2917 970.0383 536.9564 969.3677 535.6152 969.1441 532.3738 970.3736 531.0326 970.5971 526.2264 969.5912 524.5498 969.8147 522.6497 970.7089 521.7556 970.9325 520.9732 970.1501 520.5261 968.8088 520.8614 968.0264 521.3085 967.244 521.6438 966.3498 521.8673 965.0086 522.0909 964.4497 521.8673 964.4497 520.6378 965.0086 519.9672 965.4557 518.0671 967.1322 516.7259 967.5793 516.8376 968.5853 517.1729 969.2559 517.7318 970.0383 518.4024 970.7089 518.8495 971.0442 519.073 971.7149 519.1848 974.9562 519.073 976.0739 518.8495 976.8563 516.5023 979.7624 515.8317 979.9859 497.1659 979.0917 490.2361 980.5448 489.3419 981.1036 488.5595 983.1155 487.6653 983.4508 483.0827 982.4449 476.4882 982.4449 472.9116 981.7743 471.4585 981.6625 471.1232 981.9978 468.8878 984.0097 468.3289 985.2392 467.6583 988.0334 467.2112 989.1512 465.7582 990.8277 463.9699 991.6101 460.1696 992.169 458.3813 991.6101 456.3694 991.3866 454.4693 991.7219 450.6691 996.1927 451.675 996.5281 452.5692 997.0869 452.7927 997.9811 452.1221 999.0988 450.7809 999.7694 447.316 999.7694 445.7512 1000.3283 444.1864 1001.7813 443.0686 1003.2343 441.9509 1004.4638 440.1626 1005.2462 438.2625 1005.0227 438.3743 1001.7813 436.6977 1001.1107 434.574 1001.6695 429.3208 1005.358 427.6442 1005.8051 419.1496 1005.6933 418.0319 1005.0227 417.2495 1003.3461 417.3613 1003.3461 417.6966 1002.7872 417.8084 1002.0048 417.8084 1001.2224 417.5848 1000.6636 413.5611 996.1927 409.3138 994.2926 408.7549 993.2867 411.4374 991.4983 412.108 990.716 410.2079 989.2629 409.3138 988.8158 408.196 988.7041 407.0783 989.0394 403.7252 990.6042 401.378 990.8277 400.7074 990.6042 400.2603 990.0453 400.0367 989.4865 399.7014 989.0394 388.8596 985.0156 386.9595 985.0156 385.8418 985.798 384.1652 988.0334 383.1593 988.9276 382.1534 989.0394 378.6884 988.5923 377.459 987.9217 376.7883 987.4746 376.3413 986.9157 376.2295 985.9098 376.453 985.1274 376.9001 984.5685 377.0119 984.1215 376.5648 982.892 376.3413 982.6684 375.6706 983.0037 374.3294 983.2273 373.0999 983.6744 373.2117 984.6803 373.9941 986.0216 374.4411 987.3628 374.3294 988.4805 373.547 993.3985 374.6647 993.9573 375.4471 994.7397 375.8942 995.8574 376.2295 997.3105 376.2295 999.8812 375.4471 1002.5637 374.2176 1005.0227 372.8763 1006.811 372.2057 1007.2581 370.5292 1007.9287 369.635 1008.4876 369.1879 1009.27 367.3996 1012.8466 365.8348 1014.8585 364.27 1016.3116 360.6933 1018.547 358.905 1019.2176 353.6517 1019.8882 352.4222 1020 352.0869 1019.8882 352.3105 1019.1058 353.0928 1017.7646 353.4282 1017.541 354.5459 1017.2057 354.8812 1016.7586 355.1047 1015.9762 355.1047 1015.3056 354.8812 1014.5232 356.3342 1010.0524 356.446 1007.8169 354.8812 1007.0345 351.3045 1007.7052 350.4103 1008.8229 350.075 1009.0464 349.6279 1009.0464 348.7338 1008.4876 348.3985 1008.4876 347.2807 1009.0464 346.7219 1009.4935 346.163 1009.4935 345.3806 1008.7111 344.9336 1007.5934 344.8218 1006.2521 344.5982 1005.0227 343.7041 1004.0167 345.6042 1002.5637 345.9395 1001.2224 345.2689 999.8812 341.2451 993.9573 340.2392 994.4044 339.5685 994.9633 338.8979 995.2986 338.0037 994.7397 337.7802 994.0691 337.7802 993.7338 337.7802 993.3985 337.1096 991.7219 335.9919 990.716 335.2095 989.5982 334.9859 987.5864 333.98 988.3688 332.7505 988.5923 330.2915 988.4805 327.8326 987.4746 327.4972 987.5864 326.4913 988.257 325.8207 988.3688 324.1441 987.4746 323.8088 986.2451 324.0323 984.6803 323.697 983.3391 322.8029 982.2213 321.5734 981.886 320.3439 981.9978 319.2262 982.5567 317.4378 984.6803 316.4319 986.9157 315.2024 988.7041 313.0788 989.8218 307.8255 989.8218 303.0194 988.5923 302.684 988.4805 302.4605 988.3688 280.1063 974.3974 276.9767 973.615 273.9589 973.615 272.8411 971.9384 268.3703 971.9384 259.2051 970.9325 257.6403 971.4913 256.4108 972.9443 253.393 973.8385 250.2634 974.1738 248.2515 973.615 245.9043 971.8266 245.7925 971.8266 244.6748 970.7089 244.6748 969.8147 246.1278 969.4794 244.0042 967.4675 241.4334 965.9028 239.198 965.791 238.4156 968.1382 239.0862 968.9206 234.8389 969.0323 234.6154 968.2499 234.5036 967.244 233.833 966.4616 233.4977 965.4557 233.7212 964.6733 234.8389 963.1085 235.0625 962.5496 234.5036 961.4319 233.7212 961.2084 232.8271 961.4319 231.9329 961.2084 231.374 960.2024 230.7034 958.8612 229.921 957.6317 228.9151 957.2964 228.1327 958.0788 227.6856 960.7613 226.6796 961.4319 225.8972 960.7613 225.6737 959.3083 225.5619 957.7435 225.4502 956.8493 223.8854 956.1787 221.8735 956.0669 220.5322 956.8493 221.3146 958.7494 220.0851 959.3083 215.7261 960.2024 214.8319 960.2024 214.1613 960.5377 213.0436 962.2143 212.7083 963.1085 212.0376 965.5674 211.2552 966.3498 209.1316 967.4675 208.3492 968.3617 208.2374 969.2559 208.5727 970.1501 208.7963 971.156 208.2374 972.4972 209.5787 972.9443 209.914 973.0561 212.0376 974.6209 213.7142 975.6268 215.1672 975.5151 216.3967 974.9562 217.5144 974.062 218.7439 973.5032 222.6559 972.8326 223.8854 973.0561 224.7795 973.3914 225.1149 973.5032 225.8972 973.615 225.4502 976.521 224.8913 976.1857 224.8913 975.5151 224.7795 975.2915 224.4442 975.2915 223.9971 975.5151 223.6618 975.7386 223.5501 976.4092 223.6618 976.9681 223.7736 977.4152 223.8854 977.8623 223.7736 978.6447 223.7736 979.5388 223.6618 980.433 223.3265 980.9919 223.2147 981.3272 222.097 981.6625 221.3146 980.7683 221.2029 980.6565 220.1969 978.98 218.9674 977.7505 216.5085 978.0858 214.0495 979.6506 213.0436 981.7743 212.9318 982.3331 210.6964 982.6684 210.4728 982.7802 205.2196 982.7802 202.2018 981.886 201.3076 981.3272 200.7487 980.2095 200.3017 979.0917 199.9663 978.5329 198.9604 978.4211 196.8367 977.7505 195.3837 977.7505 191.0246 978.5329 190.5776 978.7564 190.1305 979.4271 189.5716 979.9859 188.1186 980.433 186.3303 981.3272 185.6596 981.886 184.989 982.6684 184.6537 983.3391 184.3184 983.7861 183.536 984.345 179.8475 985.2392 169.2293 985.2392 169.0057 984.6803 168.8939 983.5626 168.5586 982.4449 168.1116 981.886 162.8583 981.5507 161.7406 980.9919 160.1758 983.3391 158.9463 984.9039 157.3815 985.798 154.1402 986.4686 150.5635 987.1393 148.7751 986.9157 147.6574 986.2451 144.6396 984.6803 144.8631 984.6803 146.7633 984.6803 147.5457 983.8979 148.6634 980.8801 146.875 980.9919 142.6277 982.3331 142.963 981.1036 143.1866 980.6565 142.963 979.4271 142.6277 978.8682 142.0689 978.4211 141.6218 977.7505 139.7217 974.062 138.604 972.4972 137.3745 971.9384 137.1509 971.3795 136.8156 970.0383 136.5921 967.4675 136.9274 966.6851 138.2686 965.2321 138.7157 964.4497 138.8275 962.5496 137.8216 958.3023 137.9333 956.6257 139.1628 952.602 139.6099 952.0431 140.7276 951.4843 140.8394 950.143 140.5041 947.7958 140.5041 947.3487 140.3923 947.0134 140.3923 946.6781 140.5041 946.1193 140.7276 945.6722 141.2865 945.1133 141.6218 944.5545 142.0689 943.325 142.2924 942.7661 142.1806 940.7542 142.6277 939.1894 144.7514 936.8422 145.5338 935.3892 145.3102 931.589 141.8453 925.3298 141.6218 920.3001 142.0689 917.9529 142.6277 916.0528 143.1866 915.0469 143.7454 914.2645 144.1925 913.2585 144.3043 911.582 144.8631 910.0172 150.0046 902.8638 150.8988 901.0755 151.4576 898.9518 151.5694 896.4928 152.1283 893.9221 153.4695 892.8044 154.9226 892.022 156.0403 890.2337 156.152 888.4453 155.8167 886.8805 155.2579 885.3157 155.0343 883.7509 155.0343 882.1861 155.705 878.9448 156.0403 877.6035 156.5991 876.374 157.158 875.5916 157.6051 874.3622 157.7168 872.015 158.1639 870.8972 159.1699 869.8913 161.1817 868.3265 161.1817 867.4323 160.2876 864.8616 160.2876 860.6143 160.9582 856.5905 164.4231 851.2255 165.3173 850.5549 166.6585 850.1078 167.888 848.9901 170.1234 846.3076 171.1294 845.637 172.2471 844.631 173.0295 843.4015 173.4766 842.5074 173.5883 840.1602 173.9237 839.0425 174.9296 838.7072 177.165 838.7072 177.8356 838.4836 178.2827 838.0365 178.3945 837.3659 178.618 836.1364 178.9534 835.5776 179.4004 835.1305 179.5122 834.9069 180.2946 834.7952 183.3124 833.2304 183.7595 832.7833 184.7655 831.1067 188.4539 820.8238 191.0246 816.0176 192.7012 814.1175 191.807 813.2233 183.7595 811.5468 170.7941 804.6169 169.341 804.3934 164.7584 804.9523 157.9404 802.9404 157.0462 803.1639 155.1461 804.2816 154.1402 804.5052 153.3578 804.3934 151.6812 803.7228 150.787 803.611 149.6693 803.8345 148.7751 804.2816 147.7692 804.5052 147.4339 804.3934 146.6515 804.2816 145.8691 803.611 145.0867 801.9344 144.5278 801.2638 142.7395 800.2579 139.1628 799.699 137.3745 798.5813 136.2568 797.1283 134.4684 794.1105 133.2389 792.9927 133.4625 792.5457 133.686 792.3221 134.2449 791.875 133.686 790.0867 132.233 789.5278 128.7681 789.3043 128.321 787.963 126.7562 787.7395 125.1914 788.2983 124.8561 788.2983 123.5149 789.0807 123.1795 789.7514 122.5089 791.5397 122.1736 792.2103 121.503 792.5457 119.8264 792.7692 119.1558 792.9927 118.5969 793.6634 117.7028 795.3399 117.2557 795.8988 116.8086 795.787 114.5732 794.7811 107.5316 794.6693 106.3021 794.2222 104.9608 793.5516 101.8312 791.3162 101.3842 791.3162 100.7135 791.9868 100.7135 792.6574 101.0488 793.3281 100.8253 793.9987 98.3663 795.5635 96.578 794.1105 95.6838 790.7573 95.6838 786.2865 93.8955 786.1747 88.8658 783.3804 87.9716 783.1569 85.5127 783.4922 82.1595 782.7098 81.3771 782.8216 80.8183 784.6099 81.4889 786.6218 81.8242 788.6337 80.3712 790.5338 79.3652 790.7573 76.1239 789.6396 72.5472 789.5278 71.5413 789.1925 70.5353 787.4042 70.7589 785.8394 71.2059 784.2746 70.6471 782.3745 70.3118 782.3745 69.1941 783.0451 68.8587 783.1569 68.6352 782.7098 68.5234 781.7039 68.4117 781.3685 68.1881 780.9215 67.5175 778.5743 67.1822 778.2389 66.0645 777.7919 65.6174 777.4565 65.5056 776.8977 65.7292 775.6682 65.5056 775.1094 60.1406 769.9679 58.7993 768.2913 58.2405 766.8383 58.6876 765.6088 60.1406 765.6088 60.4759 764.6029 60.2524 763.8205 56.2286 759.5732 55.6697 758.7908 55.8933 758.679 55.8933 758.0084 55.6697 757.0024 55.1109 755.9965 53.7696 754.5435 46.281 750.855 45.3868 750.6315 44.7162 750.9668 43.1514 751.9727 42.2572 752.1963 41.5866 752.0845 41.5866 751.1903 41.363 747.3901 41.8101 743.3663 42.0337 742.1369 42.0337 738.1131 42.4807 736.7718 43.7102 734.8717 45.8339 732.1892 46.6163 730.5127 47.2869 729.6185 47.5105 729.0596 47.3987 728.1655 46.9516 727.7184 46.3927 727.3831 46.281 726.936 47.5105 725.1476 53.5461 721.2356 53.3226 721.0121 52.7637 720.3415 53.099 719.7826 53.4343 719.5591 54.105 719.7826 53.5461 719.0002 53.2108 718.1061 52.9872 717.1001 53.099 715.9824 53.8814 715.3118 53.8814 714.7529 53.6579 714.1941 53.6579 713.2999 54.105 710.6174 54.2167 710.5056 54.2167 709.4997 54.3285 709.2761 53.9932 708.829 53.6579 708.829 51.0871 708.0466 47.1751 708.0466 45.8339 707.7113 44.3809 706.8172 42.0337 704.5817 40.6924 703.6876 39.91 703.6876 38.7923 704.3582 38.1217 704.3582 38.0099 703.9111 37.5628 702.5699 37.2275 701.7875 36.7804 701.0051 35.5509 700.2227 32.8684 698.9932 31.5272 697.7637 28.8447 691.281 27.5034 689.0455 26.6092 690.7221 25.9386 689.6044 24.7091 686.0277 23.3679 683.9041 22.9208 682.8981 23.1443 681.4451 22.6972 678.8744 22.1384 677.7567 21.2442 677.3096 22.0266 675.8565 22.3619 675.4095 22.1384 675.4095 21.6913 675.4095 21.5795 675.2977 22.0266 671.721 22.4737 670.0444 23.0326 668.1443 23.7032 667.2502 23.9267 666.4678 23.7032 665.6854 22.809 665.0147 23.0326 664.3441 23.2561 662.8911 23.4796 662.5558 24.1503 662.1087 25.8268 661.9969 26.3857 661.5498 26.8328 660.3204 26.9446 658.8673 26.4975 657.4143 25.3798 656.2966 26.2739 655.1789 28.0623 653.8376 28.8447 652.6081 30.5212 651.8257 34.0979 650.8198 35.5509 649.4785 35.2156 648.3608 35.3274 647.0196 35.8862 645.7901 36.7804 644.7842 37.7864 644.2253 38.7923 644.2253 39.6865 644.5606 40.8042 644.7842 42.9278 644.4488 43.9338 643.3311 43.822 642.3252 43.822 641.5428 40.916 636.6249 40.8042 635.0601 41.363 633.3835 42.0337 630.3657 42.0337 628.242 41.6983 627.7949 41.1395 627.6832 40.4689 626.5655 40.0218 625.2242 39.7982 624.1065 40.0218 623.1006 40.916 622.2064 39.3512 622.0946 35.8862 621.3122 34.6568 620.6416 34.4332 620.5298 34.2097 620.418 34.0979 620.5298 33.8744 620.6416 31.0801 621.5358 30.2977 621.5358 29.6271 620.9769 28.9564 619.5239 28.2858 618.8532 28.9564 617.7355 27.9505 617.7355 27.3916 617.4002 27.2799 616.8414 27.8387 615.8354 26.4975 614.1589 28.0623 611.8117 30.633 609.688 32.4213 608.5703 32.4213 608.1232 33.3155 607.0055 33.8744 605.776 33.7626 605.1054 28.0623 604.8818 26.3857 603.9877 25.4915 602.1993 26.4975 601.5287 21.5795 593.9283 20.0147 592.3635 18.6735 592.1399 15.4321 593.0341 14.3144 592.9223 14.0909 591.9164 14.3144 590.5751 14.3144 589.2339 12.9732 588.5633 12.8614 588.3397 12.8614 588.1162 12.8614 587.8926 12.9732 587.6691 13.1967 585.9925 12.6378 585.2101 11.8554 584.6513 11.1848 583.5336 10.8495 581.857 12.079 582.1923 13.3085 581.0746 13.7556 579.5098 13.532 578.3921 13.4202 577.2744 14.2026 575.9331 15.3204 575.3743 17.1087 575.486 18.0029 574.3683 18.5617 573.0271 18.5617 572.0211 17.8911 569.3386 18.0029 568.5562 18.4499 567.7738 18.6735 567.3267 15.991 566.3208 14.0909 565.2031 13.4202 564.4207 13.1967 563.4147 13.0849 561.6264 13.4202 560.5087 13.8673 559.391 13.7556 558.7204 10.8495 559.0557 8.6141 558.385 7.4964 558.2733 6.3787 558.4968 4.3668 559.6145 3.2491 559.8381 3.1373 556.5967 1.9078 552.7965 1.349 549.7787 3.6961 548.5492 4.8139 549.2198 5.8198 550.4493 6.8257 551.4552 8.3905 551.3435 9.3965 550.2257 10.9613 546.8726 12.079 545.6431 19.5677 539.7193 24.262 537.2603 25.3798 535.5837 23.7032 534.0189 25.6033 532.4541 26.2739 532.1188 24.3738 531.4482 20.3501 534.2425 18.3382 533.1248 17.7793 530.7776 18.0029 527.8715 18.7853 525.3008 19.5677 523.8477 21.2442 521.7241 25.4915 514.0119 26.2739 513.1177 28.3976 511.6647 29.18 510.547 29.6271 508.9822 29.8506 506.0761 30.4095 504.9584 29.18 503.5054 29.2917 501.0464 29.8506 498.2521 30.1859 495.6814 29.7388 493.3342 29.18 488.9751 25.9386 485.1749 20.4618 477.6862 20.1265 476.1215 20.5736 474.2213 21.4678 471.3153 15.991 468.8563 14.0909 466.5091 15.2086 462.7089 14.4262 461.9265 12.6378 460.5853 11.6319 460.1382 9.2847 460.1382 8.5023 459.8029 8.5023 458.3498 9.0612 457.9028 10.4024 456.5615 10.5142 453.879 9.3965 451.42 7.6081 449.967 7.8317 448.7375 9.1729 447.8433 12.5261 447.1727 14.0909 446.5021 15.7674 445.2726 16.9969 444.7138 20.2383 443.8196 22.9208 444.4902 24.8209 444.9373 26.1622 445.2726 25.0444 443.596 22.0266 440.3547 21.0207 439.5723 23.815 438.1193 26.3857 439.3487 29.0682 441.4724 31.7507 442.5901 34.3215 442.0312 34.9921 442.143 35.5509 442.7019 36.4451 444.2667 36.8922 444.7138 40.0218 445.2726 41.2513 446.055 41.5866 448.0669 44.6044 447.1727 44.9397 445.9432 44.2691 442.9254 49.5223 444.4902 51.1989 444.4902 52.5402 443.8196 56.4521 440.8018 64.6114 438.0075 71.8766 437.7839 74.0002 436.5545 75.9003 434.319 77.8004 430.8541 78.4711 430.1835 79.0299 430.0717 79.477 429.6246 79.5888 428.0598 79.3652 427.1657 78.9182 426.495 76.7945 424.2596 71.5413 421.2418 69.7529 420.7947 68.4117 419.7888 68.2999 417.7769 68.8587 416.4356 69.5294 416.1003 70.4235 415.9886 71.4295 415.5415 72.1001 414.6473 72.7707 412.9707 73.1061 412.3001 74.5591 410.8471 75.7886 410.0647 76.3474 410.0647 81.1536 409.5058 82.1595 408.4999 83.9479 404.8114 85.5127 403.1349 88.9776 401.6818 90.6541 400.2288 92.5542 397.0992 93.4484 396.0933 97.0251 393.8579 97.2486 393.1872 97.0251 392.7402 96.578 391.846 95.9074 389.0517 95.9074 386.5927 96.4662 384.5809 98.1428 380.7806 98.8134 375.8627 97.6957 372.5096 92.7778 364.3503 92.2189 364.5738 91.6601 365.5798 90.9894 366.2504 88.8658 366.8092 86.7421 367.0328 84.5067 366.5857 80.2594 365.0209 73.7767 364.1267 71.653 363.009 70.0882 361.1089 69.5294 359.097 69.4176 356.7498 69.1941 354.4026 68.1881 352.279 69.5294 352.1672 74.0002 349.9318 71.3177 347.5846 70.7589 346.8022 70.7589 345.6845 71.0942 344.5668 71.3177 343.3373 70.6471 341.8843 71.9883 340.8783 73.4414 339.8724 76.2356 338.9782 83.9479 338.8664 88.3069 340.2077 92.3307 339.5371 93.5602 340.0959 96.4662 340.9901 97.9193 338.084 98.4781 333.3897 99.2605 318.8594 99.9311 314.3886 100.8253 312.0414 101.3842 310.253 108.0904 299.6348 109.8788 295.1639 110.6612 290.8048 110.7729 285.9987 109.9905 276.2746 109.6552 275.0451 109.3199 274.3745 108.9846 273.4803 108.8728 271.9155 109.0964 270.7978 110.3259 267.78 110.8847 265.4328 111.1083 263.3091 110.9965 261.1855 110.7729 257.2735 111.5553 256.8264 112.4495 255.8205 113.2319 254.8145 113.9025 253.3615 114.2378 251.7967 113.5672 250.2319 115.6909 247.1023 116.8086 246.5435 118.7087 246.5435 120.3853 246.9905 123.2913 248.7789 124.7443 249.4495 122.8442 246.5435 119.6029 245.314 101.0488 244.6433 98.031 243.1903 96.8015 239.3901 96.8015 229.2189 97.1369 226.9835 98.7017 222.7362 99.1487 220.7243 99.8194 219.4948 101.3842 219.4948 104.6255 220.2772 105.0726 219.1595 105.855 218.7124 106.4139 217.3712 106.3021 215.6946 105.6315 214.6887 103.1725 213.4592 102.1666 212.3415 101.943 210.5531 103.1725 209.1001 105.7432 207.2 108.7611 203.8469 110.3259 202.7292 113.3437 199.5996 119.7146 197.1406 132.3448 195.6876 133.1272 196.2464 134.0213 197.4759 135.9215 197.923 147.9927 195.464 172.4706 191.9991 178.9534 193.8992 178.9534 194.9052 178.3945 198.8172 180.7417 203.7351 184.0948 208.0942 186.7773 209.9943 186.7773 210.8884 186.1067 212.565 187.3362 213.2356 189.1245 213.7945 190.1305 215.1358 189.7952 217.5947 189.0128 218.936 187.3362 220.2772 185.7714 221.0596 182.6418 221.2832 181.1888 222.1773 182.6418 226.76 183.4242 228.4365 184.5419 229.666 185.5479 229.2189 186.442 228.7718 187.895 228.7718 188.7892 229.3307 190.354 231.119 190.9129 231.5661 191.5835 232.125 192.2541 233.3545 193.1483 234.6957 194.266 235.2546 195.719 235.2546 196.6132 235.031 197.5074 234.4722 198.5133 233.4662 200.3017 230.6719 202.09 225.8658 202.5371 221.1714 200.1899 218.4889 196.9485 219.2713 195.2719 219.0477 195.3837 217.0359 196.0543 214.8004 196.725 210.1061 197.3956 208.0942 198.4015 206.9765 199.8546 206.4176 203.2077 206.3058 204.7725 206.9765 206.002 208.653 207.0079 210.5531 208.0139 211.8944 211.2552 213.571 218.185 215.024 221.4264 216.477 221.4264 217.4829 219.4145 219.1595 217.6262 221.3949 216.2849 224.301 215.8378 228.3248 215.9496 236.037 216.3967 239.3901 217.5144 241.8491 217.738 238.4959 216.8438 230.0013 216.9556 225.9776 218.185 222.9597 220.0851 221.6185 221.7617 219.9419 222.5441 216.0299 222.097 215.3593 219.9734 209.9943 219.4145 209.2119 218.5204 207.3118 217.8497 205.2999 217.2909 202.7292 216.0614 199.5996 215.8378 197.2524 216.0614 194.9052 216.5085 192.8933 219.5263 185.2928 221.7617 176.91 223.103 173.2216 224.2207 171.545 225.8972 169.9802 227.6856 168.8625 229.4739 168.4154 231.2623 168.5272 232.1564 168.9743 234.1683 171.3215 237.0744 173.7804 240.204 175.3452 246.5749 176.91 250.0398 176.7982 255.9637 175.3452 259.2051 175.6805 260.7699 173.7804 267.2526 172.2156 273.6235 172.3274 275.0766 171.3215 276.1943 172.1039 277.5355 172.3274 280.218 172.2156 281.0004 172.7745 282.7888 175.1217 290.7245 189.2048 293.9659 193.0051 296.3131 194.9052 297.4308 196.3582 298.5485 200.4937 304.1371 208.7648 305.3666 209.9943 306.8196 210.6649 308.8315 210.8884 309.8374 211.3355 314.6436 214.6887 320.1204 215.9182 324.5912 216.9241 325.7089 216.477 324.703 214.6887 321.5734 212.9003 314.3083 212.1179 311.2904 210.8884 305.4783 207.0882 302.7958 203.9586 301.7899 199.5996 301.5663 195.9111 301.231 193.4521 300.4486 192.6697 296.6484 190.5461 295.4189 190.099 293.407 188.3107 291.5069 184.1751 290.1657 179.7043 290.0539 176.91 287.1479 175.7923 282.0064 171.3215 278.8768 169.4213 275.859 168.6389 265.4642 168.4154 262.4464 166.9624 260.3228 166.4035 259.4286 167.0741 258.5344 168.4154 256.6343 167.8565 253.7283 165.6211 251.0458 162.268 244.3395 148.5201 247.4691 147.0671 248.9221 146.9553 250.934 147.5142 254.1754 149.6378 255.8519 150.1967 257.6403 149.4143 258.3109 147.8495 258.9815 145.0552 259.4286 142.1492 259.4286 140.0255 258.4227 138.5725 256.9696 137.2312 255.8519 135.7782 256.0755 134.2134 256.0755 133.3193 254.0636 132.7604 251.1575 133.2075 248.5868 134.5487 247.1338 136.2253 246.5749 136.2253 244.3395 132.3133 242.8865 129.1837 242.6629 128.5131 243.3336 125.7188 244.563 123.2598 245.3454 121.1362 244.7866 119.0125 244.7866 118.0066 245.7925 117.2242 249.2574 116.2183 250.7105 116.1065 251.4928 115.4359 252.8341 113.6475 254.0636 111.5239 254.846 109.4002 253.0576 109.7355 249.9281 112.418 248.1397 113.2004 248.3633 112.7534 248.5868 111.7474 248.6986 111.3003 246.2396 111.5239 241.9923 112.8651 239.5333 113.2004 236.6273 112.6416 235.3978 113.2004 232.6035 115.7712 231.7094 116.1065 229.4739 115.3241 227.2385 113.2004 225.5619 110.1826 225.2266 106.4942 226.4561 105.0411 228.6915 104.0352 231.1505 103.5881 233.0506 103.5881 233.0506 102.6939 231.5976 102.3586 230.4799 101.2409 229.3622 100.9056 228.1327 102.6939 227.462 101.1292 227.6856 99.5644 228.468 98.1113 229.2504 96.9936 230.927 97.776 237.6332 95.8759 246.5749 95.8759 248.5868 95.3171 250.3751 94.3111 253.7283 91.1815 256.8579 89.6167 258.3109 88.6108 258.8697 86.3754 258.8697 82.9105 256.7461 79.6691 250.1516 72.5157 249.1457 71.0627 248.6986 69.4979 248.0279 68.8273 246.3514 68.9391 244.563 69.3861 243.6689 70.0568 243.11 68.9391 245.9043 67.0389 243.11 59.4385 241.9923 57.4266 239.6451 55.9736 235.286 52.0616 232.4917 50.7204 232.4917 49.7144 232.9388 47.1437 231.9329 44.3494 230.3681 41.4433 229.2504 39.0961 228.8033 35.2959 229.1386 32.0546 230.2563 27.919 233.0506 28.8132 236.0684 28.925 241.657 26.9131 243.5571 26.5778 250.0398 27.6955 256.5226 30.378 273.7353 34.4018 275.0766 35.6312 275.5237 37.0843 275.7472 39.0961 276.3061 40.7727 277.7591 41.3316 283.6829 41.3316 284.9124 41.108 285.6948 40.3256 286.9243 39.9903 287.8185 39.2079 289.2715 38.8726 290.9481 40.4374 292.2893 40.5492 293.5188 40.1021 294.6365 40.1021 299.5545 37.6431 301.1193 35.743 303.0194 34.9606 304.0253 33.0605 305.143 32.1663 305.3666 37.3078 309.3903 38.7608 314.3083 38.9844 317.7732 40.5492 319.1144 41.6669 321.2381 42.5611 323.2499 43.9023 324.0323 46.3613 325.0383 47.7025 327.1619 47.3672 330.8504 45.9142 330.5151 43.0081 332.4152 42.7846 335.0977 44.4612 336.9978 46.8084 338.1155 51.7263 338.5626 52.844 339.345 53.8499 340.9098 55.5265 339.7921 56.3089 338.7861 56.1971 337.7802 55.7501 336.9978 55.5265 336.9978 55.8618 334.9859 57.4266 334.7624 57.4266 334.2035 57.7619 333.8682 57.7619 333.6447 58.0972 333.6447 59.3267 334.7624 59.4385 336.9978 58.7679 339.1215 58.6561 340.3509 60.3327 341.1333 59.5503 342.1393 59.5503 342.5864 60.3327 341.9157 62.3446 342.3628 64.3564 342.4746 67.1507 341.9157 72.9628 341.5804 75.4218 341.0216 77.4337 340.2392 78.9985 339.2332 80.5633 336.5507 83.0222 333.3094 84.8106 329.7327 85.9283 326.3795 86.3754 326.3795 87.2695 329.8444 89.1696 349.5162 84.4752 351.081 84.9223 355.9989 89.2814 354.3223 90.958 354.3223 92.5228 354.993 94.1993 355.44 96.4348 354.993 98.3349 353.7635 100.0114 352.3105 101.3527 350.9692 101.688 351.081 102.0233 351.4163 102.2469 351.4163 102.6939 350.9692 103.5881 351.7516 104.5941 352.0869 105.7118 351.7516 107.053 350.9692 108.3943 352.7575 107.7237 354.0988 106.0471 355.9989 101.688 357.1166 97.1054 357.6755 95.8759 358.4579 95.3171 361.5875 95.0935 362.7052 94.4229 363.1523 93.6405 363.5993 92.8581 364.3817 92.0757 365.2759 91.7404 368.7408 92.0757 370.5292 92.9699 375.4471 96.9936 388.3008 102.6939 395.5659 109.512 398.919 110.4062 402.7193 109.7355 405.4018 108.059 410.0961 103.5881 412.7787 101.9116 415.5729 100.6821 422.391 99.7879 422.391 100.7938 420.938 100.7938 418.9261 100.9056 420.2673 101.4645 421.7204 101.0174 423.6205 102.3586 429.3208 98.8937 431.8915 99.7879 428.8737 103.2528 427.9795 104.5941 427.5325 104.147 426.303 103.5881 427.1971 105.9353 427.8678 111.5239 428.5384 114.0946 427.9795 115.8829 427.9795 118.2301 428.5384 122.2539 428.2031 124.7129 427.4207 125.9424 426.6383 126.8365 426.303 128.066 416.8024 134.2134 413.5611 138.4607 412.108 139.3549 408.8667 140.4726 408.196 140.4726 407.5254 141.0315 406.9666 140.6961 406.4077 140.0255 405.6253 140.0255 404.9547 140.3608 404.6194 140.8079 401.4898 145.7259 400.7074 146.62 400.7074 147.5142 401.8251 150.1967 402.9428 152.2086 404.5076 153.4381 406.743 154.2205 409.8726 153.8851 410.655 154.2205 411.3256 155.6735 411.3256 157.2383 411.6609 158.5795 412.8904 158.9149 413.2257 158.9149 414.1199 159.0266 414.567 158.9149 415.5729 158.1325 418.0319 155.5617 419.3732 155.1146 420.8262 154.7793 425.1853 152.4321 435.1329 151.0909 435.8035 151.3144 436.3624 152.0968 436.9212 154.1087 437.4801 155.1146 440.3861 155.897 440.8332 156.5677 440.4979 159.6972 440.6097 161.1503 441.7274 161.7091 444.0746 161.9327 444.7452 161.7091 448.0983 158.9149 448.6572 159.3619 449.5514 161.262 449.9985 161.7091 453.4634 161.7091 453.4634 162.1562 456.593 166.18 457.2636 166.5153 458.1578 166.5153 458.2695 165.0623 459.0519 162.9386 459.7226 160.1443 459.3872 157.9089 459.9461 156.903 460.7285 156.2323 461.3991 156.1206 461.2873 155.4499 461.0638 153.8851 460.952 153.2145 463.7463 150.4202 463.7463 149.4143 463.1875 149.4143 463.1875 148.5201 465.1993 149.4143 465.9817 149.4143 467.5465 148.1848 468.9996 144.4964 470.1173 143.714 470.7879 143.4904 471.3468 142.8198 471.7938 141.9256 472.1292 140.9197 472.1292 140.2491 471.5703 139.802 471.5703 139.0196 471.7938 138.349 472.1292 137.9019 472.4645 137.4548 474.4763 133.7663 477.0471 131.978 480.2884 131.5309 486.9947 132.7604 506.4429 128.6249 509.5725 126.613 509.9078 130.6367 509.6843 134.437 509.796 137.7901 511.6961 140.0255 510.9138 138.349 510.4667 134.6605 510.1314 133.3193 510.9138 131.7545 513.2609 130.4132 513.9316 128.5131 513.0374 128.4013 512.1432 128.5131 511.3608 128.9602 510.5784 129.4073 511.2491 128.1778 513.9316 124.4893 515.6081 123.0363 517.62 119.6832 518.7377 119.0125 519.7437 118.6772 525.8911 115.3241 529.0207 112.7534 530.2502 111.3003 533.1562 105.6 538.0741 98.4466 538.633 97.1054 541.9861 91.1815 543.2156 87.4931 544.2216 86.3754 545.8981 85.4812 545.8981 86.3754 545.3393 86.3754 547.0158 89.1696 550.5925 90.6227 569.0348 90.6227 572.1644 92.0757 574.0645 91.0697 576.4117 91.6286 577.4176 93.1934 575.4057 95.0935 573.2821 95.5406 564.5639 94.7582 561.099 93.4169 558.9754 93.0816 558.3047 93.4169 557.4106 94.6464 556.9635 95.0935 555.2869 95.0935 553.1633 94.6464 552.3809 95.0935 551.9338 96.9936 551.3749 95.8759 550.9278 96.2112 550.2572 96.7701 549.6983 96.9936 549.9219 98.1113 550.2572 98.6702 550.7043 98.8937 551.3749 99.0055 551.1514 99.0055 550.9278 99.0055 550.8161 99.229 550.8161 99.7879 549.2513 99.0055 547.4629 99.1173 546.0099 100.1232 545.3393 101.688 543.998 100.0114 542.3215 99.229 539.4154 99.0055 538.0741 99.5644 536.9564 101.2409 536.3976 103.3646 536.8447 105.6 535.727 105.2647 535.2799 105.1529 534.721 104.5941 534.1622 105.6 534.6092 107.2766 534.2739 108.8414 533.268 110.0708 531.9267 110.4062 532.4856 112.3063 533.1562 113.7593 533.268 114.9888 532.3738 116.1065 535.9505 118.5655 537.9624 119.1243 539.6389 118.0066 538.4095 118.1184 537.4035 117.5595 535.727 116.1065 536.2858 114.5417 537.0682 113.3122 539.0801 111.3003 539.6389 110.965 540.5331 110.6297 540.8684 110.4062 541.092 109.7355 541.2037 107.9472 541.3155 107.3883 542.7685 106.1589 548.0218 103.5881 546.9041 102.8057 546.457 102.6939 546.457 101.688 547.91 101.1292 548.4689 101.2409 549.1395 101.688 549.1395 100.7938 550.7043 102.1351 553.0515 101.4645 557.5223 99.0055 557.2988 98.4466 557.0752 97.4407 556.9635 96.9936 557.8576 96.323 558.7518 95.9877 559.7578 95.7641 560.7637 95.8759 560.7637 96.9936 559.5342 97.2172 558.7518 98.3349 558.3047 100.0114 558.0812 101.688 559.0871 99.8997 559.4224 99.0055 559.7578 97.8878 560.5402 99.229 561.3226 100.4585 562.2167 100.9056 563.1109 99.7879 564.1168 100.6821 565.011 100.6821 565.7934 100.0114 566.464 99.0055 566.6876 100.0114 567.1347 101.0174 567.5817 101.9116 569.0348 103.6999 569.2583 104.0352 569.5936 103.8117 570.376 103.5881 571.9408 103.6999 572.835 103.4763 573.7292 102.6939 574.3998 101.5762 575.2939 99.3408 575.9646 97.8878 578.0882 95.8759 581.3296 93.7523 584.571 92.5228 586.5828 93.0816 585.5769 94.1993 585.5769 95.7641 586.1358 97.5525 587.1417 99.0055 590.6066 100.7938 591.6125 101.688 590.0477 104.4823 590.3831 106.6059 592.7303 110.4062 592.9538 111.971 592.9538 113.424 593.1773 114.6535 594.0715 115.1006 597.76 115.1006 597.76 116.1065 596.9776 116.1065 596.4187 116.4418 595.5245 117.0007 598.207 116.7771 602.4543 119.1243 605.2486 119.9067 607.3723 121.0244 610.0548 126.5012 612.2902 128.5131 610.949 129.4073 610.0548 130.4132 612.0667 130.4132 615.0845 128.8484 616.6493 129.4073 616.0904 131.0838 615.6433 131.7545 615.0845 132.3133 615.9787 132.8722 616.5375 132.5369 617.0964 132.0898 617.8788 132.3133 618.3259 132.9839 619.4436 136.2253 620.5613 138.2372 621.679 139.9138 623.2438 140.9197 625.1439 140.9197 625.1439 140.0255 624.4733 139.3549 623.5791 137.7901 622.9085 137.1195 622.9085 136.2253 632.9679 134.2134 635.3151 133.0957 639.5624 130.1897 641.7978 129.4073 642.2449 130.1897 642.0213 130.7485 641.5743 131.1956 640.6801 131.4191 640.6801 132.3133 643.2508 133.5428 649.6218 139.0196 649.6218 140.0255 648.5041 142.0374 647.8334 144.7199 646.8275 147.1789 644.5921 148.5201 645.598 149.3025 647.9452 152.3204 648.8394 153.7734 649.2865 154.1087 651.6337 155.1146 652.1925 155.4499 652.5278 156.4559 652.7514 157.4618 652.9749 158.0207 653.0867 158.5795 652.9749 159.1384 652.9749 159.6972 653.3102 159.9208 654.4279 159.809 654.7633 159.9208 655.2103 160.3679 655.6574 160.5914 656.2163 160.815 656.6634 160.9267 657.6693 161.4856 657.7811 162.8268 657.2222 164.2799 656.3281 165.6211 650.516 170.4273 649.6218 172.2156 650.4042 173.8922 651.969 174.6746 653.422 175.0099 654.0926 175.5688 654.6515 177.0218 655.881 178.8101 657.1105 179.9278 658.0046 179.8161 664.0403 184.8458 666.7228 185.4046 668.064 187.0812 668.3993 187.4165 670.2994 187.193 670.9701 187.4165 672.982 188.646 673.9879 189.0931 680.4706 189.5402 682.8178 188.8695 683.8238 186.9694 684.3826 186.5223 685.7239 186.7459 686.8416 187.8636 687.0651 190.099 686.5063 191.105 682.5943 193.8992 683.712 194.4581 684.8297 194.9052 686.171 195.1287 686.8416 195.0169 686.9534 198.9289 686.618 201.0526 687.8475 203.7351 689.5241 209.1001 689.6359 210.4414 689.4123 215.4711 689.5241 218.4889 690.0829 221.2832 692.0948 224.4128 692.8772 227.207 694.6656 230.1131 695.448 237.1547 697.2363 245.2022 697.7952 247.7729 697.9069 248.8906 697.9069 251.3496 698.1305 252.6909 698.6893 253.585 699.9188 254.591 700.2541 255.3734 701.2601 256.3793 699.1364 260.6266 698.5776 261.5208 697.6834 261.9679 696.901 263.1974 696.3421 264.7622 696.1186 266.6623 696.3421 268.7859 696.901 270.7978 697.0128 272.6979 694.6656 280.4101 694.3303 281.5278 693.3243 283.9868 690.7536 286.5575 685.9474 290.4695 681.0295 293.0403 677.1175 295.9463 677.1175 296.8405 677.5646 298.1817 678.5705 302.9879 678.7941 304.6645 678.4587 307.2352 677.5646 308.9118 675.4409 310.8119 676.3351 312.6002 677.7881 313.7179 679.4647 314.2768 681.253 314.3886 682.9296 315.171 685.6121 318.3006 687.8475 319.53 696.4539 325.901 697.6834 327.354 700.4777 332.9426 701.3718 333.725 702.9366 334.5074 705.2838 337.637 710.09 339.6488 714.8961 344.9021 715.3432 345.4609 717.8022 347.5846 715.5668 352.3908 714.8961 355.5204 716.4609 356.8616 716.7963 358.3146 715.455 361.4442 713.5549 364.5738 709.3076 368.374 709.7547 373.6273 711.6548 379.4394 713.4431 383.3514 712.8843 385.8103 714.7844 387.8222 717.4669 389.2752 719.8141 389.8341 722.0495 390.84 723.3908 393.0755 723.3908 395.8697 721.7142 397.9934 721.7142 398.7758 722.9437 400.6759 722.6084 402.576 721.7142 404.9232 721.2671 408.3881 722.0495 410.2882 727.3028 414.312 725.8497 416.1003 725.1791 417.3298 724.9556 418.4475 724.8438 419.677 724.5085 420.9065 722.7201 424.1479 722.273 425.3773 721.9377 433.5366 721.2671 436.1074 720.0376 438.4546 718.5846 440.4664 713.8902 445.2726 712.7725 447.508 712.996 450.3023 714.3373 452.426 715.9021 453.4319 717.0198 454.8849 717.3551 458.3498 718.1375 461.703 720.0376 463.9384 723.9496 467.1798 724.9556 469.527 725.8497 472.7683 725.9615 476.2332 724.9556 478.9157 723.3908 481.3747 722.7201 483.9454 722.9437 484.9514 723.1672 486.2926 724.9556 488.1927 730.3206 489.9811 731.9971 491.2106 733.8972 492.3283 737.6975 493.446 739.5976 494.3402 740.8271 495.3461 742.2801 496.9109 743.1743 498.6992 742.5036 500.3758 742.7272 503.7289 743.286 509.3175 743.286 509.4293 743.6213 511.7765 743.8449 512.6706 745.2979 515.3531 747.198 517.4768 748.4275 520.0475 747.9804 523.8477 748.204 524.1831 748.651 524.6301 747.198 527.3127 746.0803 530.7776 745.4097 534.466 745.2979 537.7074 745.1861 539.3839 744.6273 540.2781 743.9567 540.837 743.5096 541.7311 743.3978 543.0724 743.3978 545.5314 743.1743 546.9844 739.4858 556.2614 735.462 566.0972 732.556 569.3386 731.3265 571.2387 731.3265 573.5859 730.097 577.0508 729.3146 578.6156 728.5322 579.5098 727.191 579.8451 725.4026 579.8451 722.3848 579.1745 719.2552 576.7155 718.1375 576.0449 715.2315 575.2625 714.8961 574.3683 715.1197 572.0211 716.5727 568.7798 717.0198 567.1032 716.5727 565.6502 715.5668 565.5384 711.0959 567.4385 710.2018 566.6561 710.6488 565.0913 711.543 563.303 712.2136 561.7382 712.3254 559.7263 712.1019 558.4968 711.543 557.4909 710.5371 556.2614 709.5311 555.479 707.2957 554.9201 706.2898 554.2495 705.5074 553.1318 705.2838 552.3494 705.0603 551.567 704.6132 550.5611 703.9426 552.3494 702.9366 552.7965 700.0306 552.5729 697.6834 553.6906 696.7892 553.5789 695.895 553.1318 695.448 552.4612 695.0009 551.6788 694.3303 551.1199 691.3124 550.114 688.7417 550.5611 686.8416 552.5729 685.6121 556.2614 684.7179 557.6026 685.7239 558.2733 688.4064 558.6086 690.0829 559.2792 689.9712 559.5028 689.3006 559.9498 689.1888 561.4029 691.2007 563.4147 694.2185 564.3089 696.4539 565.5384 695.895 568.7798 693.5479 570.7916 687.1769 570.3446 684.2708 570.9034 683.3767 571.7976 681.8119 574.033 680.8059 575.0389 668.1758 580.851 666.611 580.9628 663.5932 580.5157 662.0284 580.9628 661.1342 581.5217 659.9047 583.0865 659.0106 583.7571 658.0046 583.8689 657.2222 583.6453 656.5516 583.7571 655.7692 584.6513 655.4339 585.8807 655.5457 586.9985 655.7692 587.8926 655.6574 588.5633 655.2103 589.3457 654.6515 589.5692 654.2044 589.5692 651.8572 591.0222 650.4042 591.3575 646.604 590.9105 644.8156 591.0222 641.7978 592.2517 640.233 592.587 632.8561 592.4752 629.1677 593.1459 625.8145 595.2695 626.8205 597.1696 626.4851 598.958 625.3674 600.2992 624.0262 601.3052 624.4733 602.4229 624.4733 603.2053 623.9144 603.7641 623.132 604.2112 621.679 605.9996 620.3377 607.229 618.7729 607.6761 616.9846 606.782 616.4257 606.1113 615.308 604.0994 614.8609 603.6524 613.855 603.3171 613.6315 603.4288 613.6315 603.8759 613.0726 604.4348 610.0548 606.5584 609.6077 607.4526 608.7135 610.0233 607.037 610.9175 605.6957 610.2469 604.3545 609.3527 602.7897 609.2409 599.9954 616.5061 598.8777 618.6297 596.8658 620.0827 592.6185 619.8592 590.2713 620.6416 589.4889 620.8651 588.7065 620.9769 588.0359 620.8651 587.2535 620.6416 586.6946 620.1945 585.9122 620.0827 585.2416 620.1945 584.571 620.6416 584.1239 625.8948 583.565 628.242 582.4473 629.5833 580.659 631.3716 579.9883 632.0422 577.1941 631.8187 569.5936 627.2361 568.923 627.0125 568.2524 627.2361 567.0229 627.9067 566.5758 628.1303 565.1228 627.9067 563.7815 628.0185 562.4403 628.4656 561.4343 629.5833 559.646 632.3776 558.7518 633.16 557.6341 633.3835 553.275 632.4893 547.2394 633.0482 543.8862 633.9424 541.6508 635.9542 541.092 636.4013 540.7567 637.0719 540.6449 637.7426 540.4213 638.3014 540.4213 638.525 540.5331 638.9721 540.5331 639.5309 540.4213 639.978 540.086 640.0898 539.3036 640.0898 538.9683 640.3133 538.0741 641.0957 535.6152 642.5487 534.8328 643.3311 532.262 648.0255 531.3679 648.9197 530.4737 649.5903 529.8031 650.5963 529.5795 652.6081 527.903 654.62 527.4559 655.8495 527.2323 658.0849 527.4559 659.7615 527.903 661.1028 527.903 662.2205 526.7853 663.0029 525.444 662.8911 524.5498 661.5498 523.6557 658.0849 523.5439 657.4143 523.4321 656.6319 523.0968 655.8495 522.7615 655.4024 521.3085 653.9494 521.0849 653.6141 520.9732 653.2788 521.0849 653.0552 521.3085 652.8317 521.4202 652.7199 521.532 652.6081 521.6438 652.6081 521.7556 652.6081 522.0909 651.9375 522.0909 651.2669 521.8673 650.8198 521.3085 650.4845 518.9613 650.4845 517.7318 650.0374 516.8376 649.255 516.5023 648.2491 516.5023 646.1254 516.0552 644.8959 514.4904 643.7782 510.5784 643.5547 508.5666 643.3311 510.4667 645.343 511.0255 646.4607 511.3608 648.2491 511.2491 649.9256 510.6902 650.4845 509.796 651.0433 508.7901 652.6081 509.6843 654.1729 513.708 656.6319 515.7199 658.8673 516.6141 660.2086 517.1729 661.7734 517.5083 663.6735 516.8376 666.5795 516.9494 668.4796 517.62 670.3798 518.8495 671.4975 520.079 672.1681 521.3085 673.2858 521.9791 674.5153 522.2026 675.7448 522.2026 676.9743 522.4262 677.7567 534.8328 684.3512 536.0623 685.5806 539.0801 685.916 540.5331 687.2572 540.6449 689.0455 540.086 690.8339 540.086 692.1751 543.3274 694.0752 544.5569 694.5223 545.004 695.5283 544.7804 697.9872 544.1098 699.8873 542.2097 703.3523 541.6508 705.3641 539.9743 704.8053 539.5272 706.5936 539.5272 709.2761 539.1919 711.288 537.9624 712.6293 534.6092 714.0823 533.6033 715.9824 534.0504 717.3237 534.8328 718.8884 536.5094 721.3474 537.7388 722.3534 538.9683 723.2475 541.6508 724.5888 542.7685 725.1476 543.4392 726.4889 543.5509 728.1655 542.8803 729.7303 542.9921 729.842 543.6627 730.1773 543.3274 731.1833 543.2156 731.5186 544.1098 732.5245 546.0099 733.5305 546.9041 734.5364 547.4629 735.8777 547.7982 738.6719 548.1336 740.125 548.6924 741.6898 549.2513 742.8075 549.8101 743.7017 550.7043 744.5958 551.5985 744.9311 552.4926 744.8194 553.0515 745.2664 553.1633 747.3901 553.4986 751.5256 553.8339 753.5375 554.7281 755.3259 556.4046 756.6671 560.0931 758.4554 561.7696 760.132 564.4521 766.1677 565.6816 767.5089 567.3582 768.0678 572.1644 768.7384 573.6174 768.5149 573.2821 766.9501 574.3998 766.6147 577.5294 767.5089 578.8706 768.1795 580.1001 769.1855 582.4473 771.6444 583.7886 772.2033 584.2356 773.2092 584.3474 774.4387 584.7945 775.5564 587.3652 778.686 588.3712 779.2449 595.9716 789.6396 597.0893 792.0986 598.3188 794.2222 600.666 795.5635 605.5839 795.787 607.2605 796.4576 608.2664 797.24 610.7254 800.5932 614.1903 804.1699 615.0845 806.2935 615.0845 809.7584 616.314 811.6585 618.6612 813.8939 621.2319 815.7941 623.132 816.6882 623.9144 814.4528 624.6968 813.1116 625.8145 812.6645 626.3734 812.7762 627.7146 812.9998 629.1677 813.8939 630.5089 815.0117 631.9619 815.7941 633.415 815.5705 633.6385 817.9177 634.5327 820.2649 635.7622 822.165 637.1034 823.5063 638.6682 824.2887 641.686 824.7358 642.9155 825.4064 644.8156 828.3124 648.7276 836.2482 650.2924 837.9248ZM682.4825 162.0444L681.0295 165.8447 680.3589 166.2917 679.5765 166.5153 681.0295 168.3036 681.7001 170.4273 672.4231 171.545 670.6348 171.2097 669.2935 170.3155 667.3934 172.4392 664.9344 173.7804 660.3518 175.0099 655.0986 175.1217 652.3043 174.3393 650.7395 172.2156 651.8572 171.8803 653.5338 170.5391 656.2163 169.9802 659.0106 168.3036 659.793 167.5212 660.3518 163.4975 657.334 157.7971 657.5575 154.2205 661.5813 154.444 663.0343 155.1146 662.4755 156.1206 662.699 156.903 662.0284 159.5855 661.9166 161.7091 663.2579 159.4737 664.2638 158.9149 667.6169 158.9149 667.1699 159.2502 666.8345 159.5855 666.611 160.1443 666.4992 160.9267 669.2935 161.7091 668.6229 159.9208 669.6288 156.5677 669.5171 152.8792 668.3993 150.532 666.4992 151.3144 665.8286 149.079 664.9344 147.1789 663.8167 145.7259 662.4755 144.7199 660.9107 144.3846 659.3459 144.7199 658.4517 145.7259 659.2341 147.5142 659.2341 148.5201 658.4517 148.8554 657.7811 149.7496 657.1105 150.8673 656.8869 151.8733 656.4398 152.2086 653.5338 153.2145 653.7573 151.4262 654.3162 150.1967 654.9868 149.4143 655.2103 148.5201 654.7633 146.8436 654.2044 146.62 653.5338 147.1789 650.8513 148.2966 649.7336 149.9732 648.5041 151.0909 646.9393 150.4202 647.6099 147.7377 649.7336 143.1551 650.1806 139.4667 649.51 137.343 646.1569 133.8781 645.1509 132.3133 645.9333 130.7485 647.1628 129.4073 648.7276 128.8484 650.1806 129.4073 650.963 130.7485 652.6396 135.3311 653.5338 137.1195 655.7692 139.3549 661.1342 142.4845 664.152 143.714 666.611 145.2788 681.0295 161.0385 682.3707 162.0444 682.4825 162.0444ZM78.4711 208.0942L76.6827 208.4295 73.7767 209.659 72.3237 209.9943 72.3237 210.8884 73.2178 211.2238 73.8884 211.7826 74.4473 212.565 75.1179 213.9063 74.3355 213.4592 73.3296 212.1179 72.5472 211.8944 71.7648 212.0062 70.5353 212.6768 70.0882 212.7886 68.6352 212.1179 67.5175 210.4414 67.1822 208.8766 68.0763 208.0942 74.3355 206.1941 77.3534 205.9705 78.4711 208.0942ZM84.6185 198.7054L87.6363 197.2524 98.7017 195.7993 101.8312 196.8053 84.6185 198.7054ZM105.7432 193.8992L109.5435 191.6638 113.9025 190.9932 123.0678 191.105 123.1795 191.7756 123.0678 191.9991 122.8442 191.9991 119.044 193.4521 109.0964 194.7934 105.7432 193.8992ZM124.7443 191.105L126.0856 190.2108 127.7622 189.9872 129.327 190.3226 130.4447 191.105 130.1094 191.6638 129.8858 191.8873 129.2152 192.1109 125.9738 191.105 124.7443 191.105ZM186.2185 192.1109L187.2244 190.3226 188.7892 189.6519 190.6893 189.8755 192.3659 191.105 191.2482 191.105 190.354 191.4403 189.1245 192.7815 188.6774 193.0051 188.0068 192.8933 187.5597 192.558 187.0009 192.4462 186.2185 193.0051 186.2185 192.1109ZM137.0392 186.4106L144.3043 186.4106 145.9809 187.4165 145.9809 187.9754 145.8691 188.0871 145.6455 188.0871 145.5338 188.1989 139.4981 188.0871 136.8156 188.7578 136.5921 191.105 134.1331 191.3285 133.4625 190.6579 133.1272 188.7578 133.5743 187.193 134.5802 186.5223 137.0392 186.4106ZM148.7751 186.4106L150.787 183.8398 154.2519 183.0574 161.1817 183.5045 161.1817 184.5105 159.9523 184.5105 158.1639 185.6282 155.9285 186.6341 153.5813 186.7459 151.5694 185.4046 150.787 186.5223 150.1164 187.0812 149.4458 187.0812 148.7751 186.4106ZM166.0997 184.5105L164.5349 183.3927 164.8702 182.4986 166.3232 181.9397 167.9998 181.7162 169.341 181.8279 170.5705 182.275 172.8059 183.6163 172.0235 183.3927 171.1294 183.5045 167.6645 182.7221 166.2114 182.8339 166.0997 184.5105ZM451.4515 156.1206L452.681 152.8792 455.587 150.4202 458.9402 149.3025 461.3991 150.4202 459.0519 157.6854 458.1578 158.9149 457.1518 158.9149 457.04 158.0207 457.5989 155.5617 457.2636 153.9969 456.593 153.9969 456.1459 155.1146 456.4812 157.0147 455.3635 158.0207 454.0222 158.0207 452.681 157.1265 451.4515 156.1206ZM463.9699 143.1551L463.9699 142.8198 464.4169 141.8139 469.8937 139.1314 471.0114 138.0136 469.6702 139.9138 465.87 143.3787 464.864 145.6141 464.4169 145.6141 463.9699 143.1551ZM254.846 80.5633L254.5107 80.675 254.2871 81.1221 254.2871 81.681 254.3989 82.4634 252.8341 83.9164 251.8282 85.7047 250.7105 87.2695 248.6986 88.2755 245.2337 88.499 243.5571 87.9402 242.6629 86.3754 243.5571 85.8165 243.6689 85.0341 243.3336 84.2517 242.6629 83.5811 245.2337 81.0103 248.0279 79.7809 251.2693 79.5573 254.846 80.5633ZM441.7274 86.8224L446.4218 95.8759 436.2506 94.1993 434.6858 95.0935 435.1329 95.6524 435.4682 95.8759 432.1151 96.0994 429.9914 95.7641 429.0972 94.5347 429.3208 91.7404 428.8737 90.6227 427.756 90.1756 425.6323 90.0638 424.7382 90.3991 424.0675 91.1815 423.5087 91.1815 423.1734 90.1756 422.9498 89.6167 422.5028 89.6167 421.4968 90.1756 421.2733 88.2755 423.6205 82.5751 426.7501 79.4455 430.7738 78.7749 437.7036 81.7927 439.7155 83.5811 440.3861 84.4752 441.7274 86.8224ZM595.5245 70.0568L593.5127 71.7333 593.0656 73.9688 592.9538 76.763 592.1714 79.6691 591.6125 80.4515 590.3831 81.4574 589.936 82.4634 589.6007 83.9164 589.4889 85.2576 589.3771 88.2755 588.8183 88.2755 588.8183 86.3754 589.0418 83.134 591.6125 73.857 592.1714 70.2803 592.7303 69.3861 594.0715 68.9391 595.1892 68.9391 596.0834 69.0508 596.6422 69.945 596.6422 71.5098 596.5305 71.2862 596.3069 71.0627 595.9716 70.9509 595.9716 72.9628 595.5245 72.9628 595.5245 70.0568ZM640.6801 99.0055L642.9155 102.9175 644.2568 104.8176 646.2686 105.6 645.1509 106.3824 644.145 107.6119 643.3626 109.512 643.0273 111.7474 643.0273 113.9828 642.8037 114.877 641.9096 114.7652 640.1212 114.0946 641.1272 114.0946 641.7978 113.7593 642.1331 112.7534 641.7978 111.3003 641.2389 111.3003 640.4565 112.1945 639.2271 112.6416 637.8858 112.6416 636.8799 112.1945 636.8799 111.3003 639.8977 109.9591 641.1272 108.9531 641.7978 107.3883 637.5505 107.7237 635.7622 108.2825 634.0856 109.4002 638.5564 106.1589 640.1212 105.6 640.1212 104.5941 637.8858 104.3705 636.7681 104.4823 635.9857 105.0411 634.868 106.3824 634.1974 106.0471 633.5267 105.1529 632.6326 104.5941 624.585 105.6 623.132 106.4942 618.7729 110.2944 617.8788 111.7474 616.8728 113.8711 614.9727 114.3182 613.1844 115.2123 612.8491 119.0125 613.9668 118.0066 613.9668 117.336 613.7432 117.1124 613.5197 117.1124 613.4079 117.0007 617.3199 116.33 617.8788 116.5536 618.4376 119.7949 618.3259 121.248 616.9846 121.8068 614.6374 121.4715 612.0667 120.5773 609.1606 118.6772 609.8312 117.8948 610.2783 116.2183 611.1725 114.0946 609.943 114.877 609.3842 115.4359 608.9371 116.1065 609.2724 116.5536 609.4959 117.0007 607.8194 116.8889 607.037 117.0007 606.3663 117.5595 605.6957 117.8948 604.8015 117.336 604.1309 116.5536 603.5721 116.1065 602.3426 115.8829 601.0013 115.2123 600.1072 113.9828 600.5542 112.1945 599.3248 111.8592 596.8658 113.0887 595.9716 113.2004 595.4128 112.0827 595.9716 111.1886 597.0893 110.7415 598.3188 111.3003 598.3188 110.4062 593.2891 106.4942 594.4068 103.4763 595.9716 101.0174 597.9835 100.1232 600.5542 101.688 601.1131 100.7938 602.0073 101.688 603.125 101.4645 605.5839 99.7879 604.2427 99.6761 603.3485 98.782 602.9014 97.3289 603.3485 95.8759 603.3485 95.0935 602.2308 94.9817 601.5602 94.1993 601.1131 93.5287 600.2189 93.0816 596.6422 94.0876 597.9835 91.1815 598.6541 90.3991 600.8895 89.8403 603.3485 88.6108 605.0251 88.2755 605.0251 87.2695 605.5839 87.046 606.031 86.3754 603.7956 85.4812 602.7897 84.8106 602.2308 83.5811 602.4543 83.2458 602.6779 83.0222 602.9014 82.5751 602.7897 81.5692 600.4425 82.4634 598.8777 82.6869 598.3188 82.0163 598.0953 81.5692 597.76 81.4574 597.3129 81.1221 597.2011 80.1162 597.0893 78.8867 596.754 78.1043 596.1952 77.769 595.5245 77.769 597.4246 76.8748 603.5721 75.9806 605.0251 76.316 605.3604 77.0983 606.3663 77.5454 607.2605 78.2161 607.7076 80.1162 608.0429 81.1221 608.7135 80.5633 609.0488 78.9985 608.3782 76.763 609.4959 75.0865 611.0607 73.5217 612.5138 72.404 613.9668 71.8451 613.0726 74.7512 612.402 75.9806 611.7314 76.763 612.1784 76.763 612.6255 76.8748 613.0726 77.2101 613.4079 77.769 612.9608 78.4396 612.2902 80.5633 613.4079 80.5633 614.4139 80.2279 615.0845 79.3338 615.6433 77.769 614.8609 77.6572 614.0785 76.9866 613.4079 76.763 613.4079 75.7571 614.5256 74.7512 615.4198 76.6513 616.8728 78.4396 617.8788 80.3397 617.3199 82.4634 618.8847 84.8106 620.8966 85.593 625.1439 85.4812 624.585 84.4752 625.3674 82.5751 625.7028 82.0163 626.2616 81.5692 626.2616 80.5633 625.591 78.5514 625.1439 77.5454 624.585 76.763 624.585 75.7571 625.0321 75.4218 625.2557 75.1982 625.591 74.8629 626.2616 74.7512 626.2616 73.857 625.2557 73.9688 624.585 74.5276 624.0262 75.31 623.4673 75.7571 622.5732 75.9806 619.7789 75.7571 619.3318 75.31 618.8847 74.4158 618.3259 73.4099 617.5435 72.9628 616.314 72.6275 615.8669 71.9569 615.5316 71.0627 615.0845 70.0568 614.0785 68.6037 613.855 68.0449 612.8491 68.9391 612.1784 69.7215 610.8372 71.5098 608.9371 72.6275 607.5958 74.1923 606.1428 75.31 604.4662 74.7512 604.1309 73.0746 604.8015 70.5039 605.8075 68.1567 606.9252 67.0389 607.2605 66.4801 607.5958 65.1388 607.7076 63.7976 607.484 63.2387 603.9074 64.1329 602.6779 65.0271 602.119 64.9153 602.2308 63.2387 602.6779 62.2328 603.4603 61.3386 604.4662 60.668 615.6433 57.3149 617.9905 57.3149 620.1142 58.5443 620.1142 59.3267 618.8847 60.4444 617.2081 61.3386 615.6433 62.6799 615.0845 64.6917 615.308 67.1507 615.9787 69.1626 617.0964 70.7274 618.4376 71.8451 621.7908 73.0746 632.409 70.9509 635.9857 71.8451 638.4447 74.5276 639.0035 78.1043 636.8799 81.5692 633.3032 84.0282 631.5149 85.7047 630.7325 87.8284 631.0678 90.1756 631.7384 92.6345 632.6326 94.6464 633.5267 95.8759 635.2033 96.7701 639.0035 97.776 640.6801 99.0055ZM203.4312 56.5325L207.5668 64.2447 209.1316 65.1388 208.0139 66.1448 205.2196 67.1507 203.3195 65.3624 201.7547 62.5681 200.1899 60.3327 202.5371 55.8618 203.9901 54.297 205.7784 53.6264 205.7784 54.297 205.6667 54.4088 205.4431 54.4088 205.2196 54.5206 204.3254 55.5265 203.4312 56.5325ZM216.9556 47.7025L221.4264 48.0378 223.3265 49.1556 224.7795 51.7263 224.7795 52.6205 224.1089 53.7382 223.2147 56.5325 222.5441 57.4266 221.4264 57.7619 219.9734 57.6502 218.7439 57.2031 218.0733 56.5325 215.9496 57.4266 213.2671 56.5325 208.5727 53.6264 210.1375 50.6086 212.0376 48.8202 214.1613 47.9261 216.9556 47.7025ZM205.7784 20.5421L205.3314 25.5718 208.0139 28.2543 211.9259 29.2603 229.6975 28.3661 227.6856 29.9309 217.5144 29.3721 216.1732 30.0427 213.9377 31.831 212.7083 32.1663 207.1197 32.1663 206.5608 31.9428 205.8902 30.7133 205.2196 30.378 204.4372 30.378 203.8783 30.6015 201.4194 32.2781 200.9723 32.7252 200.7487 33.7311 200.637 36.5254 200.4134 37.0843 200.7487 44.7965 200.5252 47.3672 200.0781 49.2673 199.5193 49.7144 199.0722 47.7025 198.9604 44.0141 199.9663 28.7014 200.637 25.6836 206.8961 8.2473 210.2493 4 214.1613 6.0119 209.1316 6.3472 208.5727 7.0178 210.8081 7.2414 211.4788 8.9179 210.6964 10.9298 207.455 12.8299 205.8902 15.0653 204.996 17.9714 205.7784 20.5421ZM228.1327 77.8807L233.3859 75.6453 233.4977 77.0983 232.8271 80.5633 230.927 83.5811 228.6915 84.9223 226.7914 84.9223 225.7855 83.9164 225.0031 81.9045 225.4502 79.6691 226.9032 78.5514 227.5738 78.2161 228.1327 77.8807ZM168.5586 128.5131L168.2233 128.8484 168.1116 128.2895 167.7762 128.1778 167.4409 127.5072 167.1056 127.0601 166.6585 126.613 167.7762 126.5012 168.3351 127.0601 168.5586 128.5131ZM169.2293 126.8365L170.6823 126.3894 171.0176 127.1718 169.6763 127.6189 169.2293 126.8365Z" />
</svg>