<?xml version="1.0" encoding="utf-8"?>
<svg xmlns="http://www.w3.org/2000/svg" viewBox="0 0 939 1024" style="stroke-width:0.25px;stroke-linejoin:round;stroke:#444;fill:#ddd" fill-rule="evenodd">
  <path class="DJ" d="M835.3919 701.8992L806.3314 747.6136 658.011 980.7683 649.2928 977.6387 643.7043 982.5567 638.1157 989.4865 629.8447 992.5043 622.4678 991.2748 608.7199 987.251 585.5833 984.9039 573.0649 982.1096 563.5644 974.062 549.4812 942.9897 538.7512 938.9659 525.3386 938.407 485.7716 929.0183 481.5243 929.3536 460.0642 931.0301 409.7672 946.3428 372.5474 970.9325 360.4761 976.7446 352.0933 976.2975 343.3751 973.2796 330.745 971.2678 312.5263 977.4152 307.7201 977.974 297.6607 977.527 292.8546 978.0858 272.9593 987.0275 265.3589 989.0394 254.7406 988.9276 226.0154 982.2213 195.2783 985.5745 180.1892 990.6042 162.8647 1008.264 147.4403 1012.176 115.809 1013.5173 112.0088 1015.0821 109.4381 1017.8763 106.4202 1020 101.6141 1019.3294 98.2609 1016.5351 96.8079 1013.182 94.9078 1010.2759 28.851 996.7516 14.8796 991.3866 10.8559 986.0216 7.9498 982.2213 18.0092 966.0145 21.4741 941.6484 22.8154 832.0009 15.8856 769.9679 1.4671 704.47 1.1318 673.2858 17.5622 621.5358 25.2744 578.1685 34.1043 560.0616 42.3754 554.3613 64.3943 544.749 69.9828 537.3721 73.0007 529.2128 77.8068 525.8596 84.066 523.9595 91.89 520.1593 99.6022 514.2354 105.8614 507.9762 127.2097 477.3509 173.4829 411.4059 196.0607 369.1564 202.2081 362.3384 215.3971 355.8557 219.868 348.8141 228.3626 327.9129 302.914 225.6422 319.9032 188.1989 353.6581 142.5963 382.3833 111.4121 392.2191 109.7355 407.42 113.7593 433.1274 125.2717 520.756 203.288 528.1329 192.558 530.8154 191.7756 548.4752 186.7459 556.0757 175.7923 560.8818 170.6508 577.5358 167.4095 584.5773 163.721 587.8187 148.2966 582.5655 130.3014 580.5536 113.2004 605.0315 90.0638 617.9969 59.1032 627.3857 50.8321 632.3036 51.391 639.2334 56.9795 645.0455 56.4207 766.5408 4 775.7061 10.0356 780.8475 20.2068 785.2066 31.6075 791.2422 41.3316 845.8983 104.0352 859.0873 125.0482 867.0231 133.431 875.7413 135.89 884.9065 129.519 884.9065 149.7496 886.0242 159.3619 888.8185 168.9743 893.1776 176.91 898.319 183.1692 902.3428 190.099 904.0194 200.2702 904.69 222.0656 906.4783 233.6898 909.9432 241.6255 930.8444 271.0213 932.4092 280.6337 930.8444 313.9415 934.8682 357.0851 931.9622 375.4156 923.8029 392.4048 911.6198 406.488 896.7542 416.2121 892.2834 417.4416 877.3061 420.1241 861.9934 427.9481 850.8163 429.96 826.7855 430.5188 816.279 433.4249 798.0603 446.5021 755.0284 498.1404 752.1223 500.0405 748.881 501.3817 743.2924 503.7289 739.3804 506.2997 736.9215 510.2117 734.7978 518.1474 731.78 521.5006 723.956 524.4066 693.3307 525.8596 685.3949 528.8774 677.0121 534.8013 668.6293 538.6015 653.5402 533.013 642.8101 534.6895 590.7248 553.3553 576.0827 562.297 563.229 576.1567 523.9974 648.0255 520.3089 652.8317 515.0557 655.8495 497.7311 660.8792 492.4779 661.2145 479.0653 658.7556 464.3116 659.3144 459.6172 658.7556 456.5993 656.5201 451.3461 649.1432 448.2165 647.1314 436.1452 647.802 429.5507 652.6081 429.4389 656.5201 436.8158 654.8436 439.2748 667.2502 439.2748 667.809 439.4983 681.5569 442.7397 693.1811 461.182 700.3344 472.2473 710.6174 479.0653 713.2999 486.8893 711.8469 495.7193 703.5758 502.0902 701.6757 506.8964 703.0169 512.1496 705.3641 517.5146 706.4818 522.6561 703.7993 525.8975 696.5342 522.0972 692.1751 516.3969 689.2691 513.4909 686.0277 518.4088 676.6389 529.5859 668.7032 555.1815 658.7556 593.0719 654.2847 605.1432 651.0433 610.9553 646.6843 615.4262 641.9899 620.1206 640.3133 626.268 644.8959 630.9624 647.1314 645.1573 646.9078 723.3971 645.9019 735.3567 643.4429 746.422 643.7782 758.4933 651.0433 769.5586 648.3608 775.3707 640.5369 779.618 632.9364 785.6537 631.1481 789.0068 637.0719 797.0543 670.4915 797.5014 671.1622 803.5371 679.7685 809.908 684.4629 827.3443 693.8517 835.3919 701.8992Z" />
</svg>