<?xml version="1.0" encoding="utf-8"?>
<svg xmlns="http://www.w3.org/2000/svg" viewBox="0 0 1021 413" style="stroke-width:0.25px;stroke-linejoin:round;stroke:#444;fill:#ddd" fill-rule="evenodd">
  <path class="EC" d="M799.0462 18.2215L802.6229 20.5686 803.8524 22.357 805.6407 23.81 806.3113 24.816 806.8702 26.1572 807.7644 27.3867 808.9938 28.2809 810.3351 28.7279 811.341 28.6162 812.1234 28.3926 812.7941 28.5044 812.7941 29.7339 813.1294 30.2927 814.3589 31.634 814.6942 32.6399 815.5883 32.0811 816.4825 32.0811 819.8356 32.8635 820.2827 33.1988 820.9534 33.6459 826.6537 40.0168 828.1067 41.1345 829.2244 41.6934 832.8011 42.5876 834.0306 43.2582 841.9663 49.2938 844.4253 50.5233 848.7844 50.6351 852.9199 52.1999 853.5905 52.1999 853.8141 52.0881 854.1494 52.0881 854.7083 52.647 854.9318 53.3176 854.9318 53.9882 855.0436 54.6589 855.7142 55.2177 857.0554 55.7766 858.3967 56.0001 859.6262 56.0001 860.8557 55.7766 865.6618 53.9882 867.1149 53.9882 869.015 55.4413 869.3503 59.8003 870.6915 61.7004 874.6035 64.3829 876.8389 65.2771 878.6273 65.0536 878.8508 64.9418 881.4216 65.6124 882.204 68.5185 882.651 74.8894 883.0981 76.9013 883.4334 78.8014 883.9923 80.2545 885.6689 81.5957 887.7925 82.3781 894.2752 83.6076 895.393 84.0547 896.2871 84.5018 897.1813 84.8371 898.5226 84.7253 901.5404 83.6076 902.6581 83.384 903.4405 83.6076 904.67 83.9429 907.0172 86.5136 908.8055 87.0725 911.2645 87.1843 912.0469 87.296 913.0528 87.6314 913.6117 88.0784 914.9529 89.4197 915.9589 90.2021 916.853 90.5374 917.7472 90.5374 921.9945 89.8668 922.7769 89.9785 924.9006 90.9845 925.7947 90.8727 925.6829 88.5255 926.3536 88.1902 928.4772 88.7491 931.495 89.0844 932.2774 89.4197 933.2834 90.0903 934.8482 91.5433 936.0777 91.9904 936.9718 91.8787 938.5366 90.9845 944.4605 90.3139 945.5782 89.6432 944.9076 85.6195 945.1311 81.0369 945.0194 80.7015 945.69 80.8133 946.9195 80.7015 947.5901 80.5898 948.149 80.3662 949.602 78.5779 949.9373 78.2426 950.2726 78.1308 951.3903 77.2366 952.0609 77.1249 952.7316 77.3484 954.4081 79.1367 955.5259 79.9191 956.7553 80.3662 957.9848 80.7015 959.5496 80.8133 960.8909 80.7015 961.5615 80.8133 962.0086 81.0369 962.3439 81.5957 962.6792 83.2723 963.0145 83.7194 964.1322 83.7194 965.697 83.1605 967.0383 83.0487 967.5971 83.9429 967.9325 84.6135 971.9562 89.755 972.2915 90.5374 972.5151 91.6551 973.1857 92.6611 974.6387 94.1141 978.3272 96.3495 978.886 97.1319 981.345 98.9202 983.0216 99.9262 984.0275 100.2615 985.1452 100.5968 986.4865 100.7086 987.9395 100.5968 990.5102 100.038 991.6279 99.8144 992.8574 100.2615 993.8634 101.1557 994.6458 101.9381 995.2046 102.3851 996.3223 102.7205 999.1166 105.2912 1002.6933 107.4149 1004.1463 107.9737 1005.264 108.7561 1008.7289 109.4267 1012.5292 110.8798 1013.6469 111.5504 1012.9762 112.4446 1011.5232 113.4505 1010.7408 113.7858 1009.9584 114.0094 1009.0642 114.1211 1006.9406 113.7858 1006.3817 113.8976 1004.8169 114.9035 1003.2521 114.7917 999.0048 112.4446 998.1107 112.3328 997.3283 112.221 996.2106 112.3328 995.3164 112.221 994.1987 111.7739 993.081 111.4386 992.1868 111.7739 991.8515 112.7799 992.1868 114.1211 992.7457 115.3506 993.3045 116.0212 993.8634 116.133 995.2046 116.0212 995.7635 116.133 996.5459 116.4683 997.7754 117.6978 998.5578 118.1449 999.7872 118.4802 1000.7932 119.1508 1001.4638 120.045 1003.3639 126.863 1004.4816 129.4338 1006.27 131.781 1007.3877 132.8987 1008.0583 133.3458 1008.7289 133.3458 1009.3996 133.3458 1009.7349 133.5693 1010.0702 133.9046 1012.4174 135.693 1012.6409 136.0283 1012.9762 136.6989 1013.1998 137.0342 1013.5351 137.0342 1014.0939 136.6989 1014.3175 136.8107 1014.9881 137.9284 1015.2117 139.0461 1015.0999 141.3933 1015.0999 141.9521 1015.2117 142.3992 1015.3234 142.8463 1015.2117 143.4052 1014.6528 143.964 1013.9822 144.2993 1013.3116 144.7464 1012.9762 145.4171 1013.088 146.0877 1013.3116 147.2054 1013.3116 147.7642 1013.1998 148.4349 1012.8645 149.4408 1012.8645 150.2232 1015.547 159.3884 1015.547 159.9473 1015.4352 160.9532 1015.547 161.5121 1015.9941 162.1827 1016.5529 162.7416 1017 163.3004 1017 163.7475 1016.5529 163.7475 1013.6469 163.7475 1011.0761 164.0828 1009.7349 164.0828 1009.0642 163.524 1008.7289 162.9651 1007.9465 161.9592 1006.1582 160.3944 1005.8229 160.9532 1005.0405 163.9711 1003.2521 171.1244 1001.4638 178.166 999.5637 185.3194 997.7754 192.4727 996.8812 196.0494 996.0988 198.0613 995.6517 198.6201 994.6458 199.8496 991.4044 202.8674 988.9454 205.7735 985.9276 209.2384 982.9098 212.8151 979.892 216.28 976.8741 219.8567 973.8563 223.3216 970.8385 226.8982 967.8207 230.3631 964.6911 233.9398 961.1144 236.7341 957.5377 239.4166 953.9611 242.2109 950.2726 245.0052 946.6959 247.7994 943.1193 250.482 939.4308 253.2762 935.8541 256.0705 932.3892 258.753 929.7067 260.3178 928.8125 260.8767 923.224 262.7768 915.6235 265.4593 908.0231 268.1418 900.4227 270.8243 892.8222 273.5068 885.2218 276.1893 877.6213 278.8718 869.9091 281.4426 862.3087 284.1251 860.6321 284.6839 858.2849 285.5781 857.1672 286.137 852.6964 290.049 846.6607 298.2083 843.6429 300.6672 842.8605 301.5614 840.9604 305.1381 840.178 306.2558 838.0543 307.9323 837.2719 308.7147 837.2719 310.056 837.9426 311.1737 838.9485 311.8443 839.7309 312.7385 839.8427 314.4151 839.2838 315.6446 838.3897 316.0916 837.2719 316.3152 836.266 317.0976 835.4836 317.4329 834.9248 316.3152 834.0306 312.515 833.5835 311.509 832.9129 310.9502 830.2304 310.1678 829.0009 310.056 827.9949 310.3913 827.3243 311.509 827.3243 311.8443 827.7714 313.0738 827.6596 313.7444 827.2125 316.3152 826.4301 318.7741 826.3184 319.1095 825.2007 321.5684 824.8653 322.7979 824.6418 323.9156 824.7536 326.151 824.9771 327.3805 824.9771 327.9394 824.4183 328.2747 823.7476 328.3865 823.4123 328.4982 823.4123 328.8336 823.4123 329.616 824.1947 333.5279 823.7476 334.6457 822.2946 336.0987 821.8475 336.434 821.0651 336.7693 820.7298 337.1046 820.0592 338.2223 819.6121 339.4518 819.0532 343.9227 819.0532 344.258 818.8297 344.5933 817.9355 345.0404 817.1531 345.2639 816.4825 345.3757 815.8119 345.4875 815.1413 346.1581 814.9177 347.164 814.9177 350.7407 814.2471 353.4232 810.5586 361.1354 809.9998 363.8179 809.4409 365.0474 808.435 365.9416 807.8761 367.1711 807.9879 369.5183 808.435 371.7537 809.2174 372.8714 810.6704 373.7656 810.4469 374.7715 809.5527 375.8892 808.6585 377.3422 808.435 378.46 808.5468 379.6894 808.435 380.8072 807.8761 381.8131 806.3113 382.9308 805.6407 383.3779 800.0521 385.5015 797.5932 386.9546 794.7989 389.5253 793.6812 391.0901 793.0106 392.7667 793.0106 394.4432 794.3518 397.1257 794.6871 398.5788 794.0165 399.8083 792.6752 400.1436 791.1105 400.1436 789.881 400.4789 789.2103 401.4848 788.5397 404.3909 788.0926 405.6204 786.5278 407.2969 784.7395 408.7499 783.6218 407.6322 782.9512 407.1851 782.3923 406.8498 781.7217 406.8498 780.7157 407.0734 780.1569 407.0734 779.0392 406.8498 777.0273 406.1792 776.0213 405.9557 774.4565 405.9557 771.6623 406.0674 770.321 405.7321 769.4268 404.7262 768.7562 403.3849 767.9738 402.2672 767.5267 401.9319 766.2972 401.4848 765.7384 401.1495 765.4031 400.5906 765.0678 399.3612 764.7325 398.8023 763.6147 398.0199 762.3853 397.3493 761.3793 396.5669 760.9322 395.2256 760.7087 394.1079 759.1439 391.0901 758.4733 387.5134 756.6849 384.9427 756.6849 383.6014 758.138 381.1425 758.2497 380.2483 757.9144 379.6894 756.6849 378.907 755.2319 378.907 754.8966 378.6835 754.0024 378.1246 753.5553 377.9011 750.5375 374.8833 748.8609 373.9891 746.6255 374.3244 744.5019 375.5539 740.4781 376.7834 738.2427 376.4481 736.6779 374.8833 735.4484 372.9832 733.8836 371.5301 732.3188 371.1948 730.754 371.1948 729.1892 370.9713 727.5127 370.0771 726.3949 369.1829 724.3831 367.0593 723.2653 366.1651 722.2594 365.718 721.0299 365.4945 720.024 365.1592 719.5769 364.6003 719.4651 364.6003 717.0062 364.9356 716.3355 365.1592 715.6649 365.4945 715.2178 365.8298 714.659 366.724 714.1001 368.8476 713.653 369.8536 712.6471 370.8595 707.9527 374.4362 705.4937 375.7774 704.9349 376.3363 704.4878 376.3363 703.3701 376.3363 702.3641 376.001 699.6816 374.4362 698.7875 373.7656 698.3404 372.4243 698.5639 371.4184 706.4997 360.8001 707.1703 359.4589 704.376 359.7942 701.8053 360.5766 699.6816 360.353 698.4521 357.6705 698.4521 357.1117 698.6757 355.8822 698.6757 355.3233 698.3404 354.5409 697.3344 353.1997 696.9991 352.4173 697.1109 351.2996 697.6697 349.7348 698.3404 348.2817 699.011 347.2758 699.9052 346.6052 701.0229 346.2699 702.2524 346.2699 703.4818 346.2699 704.7113 346.7169 707.2821 348.0582 708.3998 348.2817 709.6293 347.7229 710.747 346.3816 711.5294 345.0404 712.4235 343.9227 717.1179 341.799 718.1239 340.6813 718.1239 340.1224 718.1239 340.0107 717.7886 339.6754 717.2297 339.34 716.6708 338.7812 716.5591 338.2223 716.5591 337.1046 716.4473 336.5458 715.8884 335.3163 714.659 333.4162 714.4354 332.1867 714.5472 331.7396 714.7707 331.2925 714.9943 330.8454 714.8825 330.1748 714.5472 329.0571 714.5472 328.61 714.5472 328.0512 714.5472 327.4923 714.9943 326.2628 715.1061 325.704 714.9943 325.0333 714.659 323.8039 714.659 323.1332 714.5472 322.5744 713.9883 322.3508 713.3177 322.1273 712.9824 321.792 712.9824 321.2331 713.4295 319.6683 713.5413 318.4388 713.5413 317.88 713.4295 317.3211 712.9824 316.874 712.0882 316.5387 711.6411 316.2034 711.5294 314.8622 711.8647 313.6327 712.0882 312.6267 711.1941 311.9561 708.8469 311.2855 707.9527 310.8384 707.5056 310.6149 707.3938 310.1678 707.2821 309.7207 707.5056 309.0501 708.288 308.603 708.6233 307.8206 708.9586 307.0382 709.5175 306.144 708.9586 307.8206 708.7351 308.2677 709.0704 309.4971 709.8528 308.9383 710.1881 307.0382 710.747 306.144 712.4235 307.8206 713.2059 307.4853 717.6768 306.5911 718.3474 306.7029 718.9063 306.8146 719.3534 306.8146 719.9122 306.5911 721.2535 304.9145 721.5888 304.691 723.8242 299.9966 724.4948 299.1024 725.8361 299.326 726.1714 300.779 725.7243 303.685 726.3949 303.3497 726.7303 302.6791 727.0656 302.0085 727.6244 301.3378 728.0715 300.8908 730.0834 299.773 730.9776 298.6553 731.5364 297.4259 731.8717 296.0846 732.0953 293.7374 733.1012 291.502 735.2249 288.2606 735.6719 287.0311 735.1131 286.0252 735.3366 284.5722 736.119 282.225 736.2308 281.219 738.1309 274.9598 739.3604 272.7244 739.5839 272.2773 740.1428 271.0479 740.3663 269.5948 741.5958 266.1299 742.3782 265.0122 744.1666 263.2239 744.7254 262.1062 744.7254 260.6531 744.3901 257.9706 743.4959 255.847 743.3842 255.5117 742.0429 255.5117 741.3723 255.5117 740.8134 255.2881 740.1428 254.1704 738.9133 250.929 738.2427 249.6996 737.7956 248.9172 737.6838 248.1348 737.7956 244.5581 737.3485 241.7638 737.3485 240.9814 737.6838 239.6402 737.7956 238.8578 737.5721 238.4107 737.4603 238.1871 736.6779 237.1812 736.4543 236.9576 736.3426 236.6223 736.2308 236.287 736.119 235.8399 736.119 235.1693 736.4543 234.4987 736.7897 233.9398 736.9014 233.381 736.4543 232.7103 737.4603 231.7044 738.3545 231.3691 739.1369 230.922 739.3604 229.5807 739.9193 228.9101 740.8134 228.3513 741.8194 227.6806 742.2664 226.4512 738.6898 228.463 738.3545 228.7983 738.1309 229.2454 738.1309 230.3631 737.6838 230.5867 735.6719 230.6985 735.2249 231.1455 735.2249 231.7044 734.666 233.1574 734.1072 235.6164 734.1072 237.293 734.4425 239.0813 736.2308 242.3227 736.4543 244.111 735.4484 255.9587 734.7778 258.4177 734.4425 259.0883 732.7659 260.8767 732.207 261.3238 731.2011 261.5473 729.0774 262.7768 728.1833 263.0003 727.6244 262.665 727.2891 261.8826 726.7303 261.6591 725.5008 261.8826 725.0537 261.6591 724.2713 261.1002 723.936 260.0943 724.7184 259.2001 726.5067 257.9706 727.0656 256.6294 727.4009 255.7352 727.9597 255.1763 729.6363 255.0646 729.9716 255.2881 730.4187 255.847 730.8658 256.2941 731.5364 256.2941 732.0953 255.9587 732.3188 255.3999 732.3188 254.841 731.9835 254.1704 731.6482 255.3999 730.8658 255.1763 729.4128 253.8351 728.0715 253.9469 726.9538 254.5057 726.0596 254.841 725.7243 253.9469 725.9479 252.6056 727.0656 250.0349 727.4009 248.5818 727.6244 247.9112 728.0715 247.5759 728.8539 247.4641 729.4128 247.1288 729.8598 246.6817 731.0893 244.7816 730.5305 244.8934 730.3069 245.1169 729.6363 245.6758 729.1892 245.8993 727.9597 245.7876 727.4009 245.8993 726.6185 246.3464 726.1714 247.1288 723.4889 253.8351 719.3534 259.6472 717.565 261.6591 715.5531 262.5532 715.1061 263.3356 714.659 263.8945 714.1001 264.2298 713.5413 264.2298 713.2059 264.0063 712.9824 263.5592 712.6471 263.2239 711.7529 262.7768 711.1941 263.2239 710.9705 264.2298 711.1941 265.4593 711.4176 265.6828 713.0942 267.3594 713.3177 267.8065 713.3177 268.4771 713.2059 269.8184 712.6471 270.3772 711.3058 270.1537 708.7351 269.1477 706.1644 267.0241 705.2702 266.4652 704.4878 265.6828 704.1525 265.4593 703.7054 265.3475 702.6994 265.2358 702.1406 265.0122 699.7934 263.5592 693.3107 255.9587 688.3927 251.2644 686.3809 250.7055 684.5925 249.8113 682.6924 249.9231 679.451 248.8054 678.3333 248.3583 675.7626 246.1229 674.5331 245.564 673.5272 245.564 672.8565 245.4523 672.2977 244.8934 671.9624 242.8815 671.5153 241.8756 670.5094 240.5343 669.727 239.6402 667.4915 237.8518 667.1562 237.5165 666.9327 236.8459 666.8209 236.287 667.0444 235.9517 667.4915 236.0635 667.7151 236.287 667.8268 236.6223 668.0504 236.8459 669.6152 237.1812 670.2858 237.1812 670.6211 237.4047 670.9564 238.4107 671.7388 239.3048 673.1919 239.1931 675.4273 238.4107 678.4451 235.9517 680.9041 234.7222 683.0277 232.375 683.4748 228.7983 682.5806 226.8982 682.1336 224.9981 681.91 224.551 682.2453 223.8804 682.916 223.7686 683.6983 223.3216 683.9219 221.8685 683.6983 220.3037 682.0218 213.821 681.1276 211.362 680.7923 210.2443 680.2334 209.2384 679.6746 208.5678 678.8922 207.4501 677.5509 203.8734 676.6568 202.8674 676.4332 202.085 676.3215 201.1909 676.545 200.5202 678.6686 198.9554 678.4451 197.6142 678.4451 195.8259 679.004 195.3788 679.6746 194.7081 680.457 194.4846 681.4629 194.4846 681.6865 193.7022 681.6865 192.808 681.7982 191.6903 682.1336 190.5726 681.7982 189.2314 682.1336 188.3372 683.1395 187.8901 683.0277 186.3253 681.2394 183.8663 677.6627 179.5073 674.7567 174.3658 673.4154 171.348 672.633 169.5596 673.0801 168.3301 673.7507 167.5477 674.6449 166.8771 675.4273 165.9829 675.8744 165.4241 676.3215 164.7535 677.1039 163.9711 677.8862 163.0769 677.998 162.6298 678.6686 162.2945 679.5628 162.518 680.3452 162.518 681.2394 162.071 682.0218 161.7356 682.916 161.9592 683.6983 161.6239 684.369 161.4003 684.2572 161.9592 685.3749 162.4063 686.2691 162.518 687.0515 161.8474 687.4986 161.7356 687.9457 161.065 688.6163 160.9532 689.1751 161.7356 689.734 161.8474 690.8517 161.9592 692.3047 161.4003 693.646 160.2826 694.9872 158.8296 695.8814 155.0294 696.105 153.9117 696.8873 149.9997 698.0051 146.9818 699.3463 144.1876 700.1287 142.3992 700.464 142.0639 700.9111 141.7286 701.8053 141.6168 702.5877 141.2815 702.6994 142.8463 703.5936 144.0758 705.1584 144.8582 706.7232 145.0817 709.9646 145.0817 709.9646 144.4111 708.288 143.964 706.4997 143.5169 705.2702 143.5169 704.376 142.8463 703.7054 141.1697 702.923 139.7167 702.1406 139.3814 701.6935 138.8226 701.5817 137.3695 700.9111 135.5812 700.7993 133.9046 699.9052 132.0045 698.7875 130.6633 698.0051 128.0925 698.6757 127.1983 699.9052 127.0866 701.9171 125.5218 703.8172 122.7275 704.376 121.6098 704.5996 120.8274 705.1584 119.4861 705.6055 118.4802 706.9468 118.0331 707.7292 116.8036 708.5116 115.4624 709.6293 116.4683 710.9705 115.7977 712.4235 114.68 714.1001 113.4505 717.6768 109.5385 720.5828 105.8501 721.5888 104.6206 722.0359 103.3911 722.1476 102.6087 722.4829 102.3851 722.8183 102.2734 724.0477 101.8263 725.0537 99.5909 725.5008 97.579 725.8361 94.3376 725.8361 92.8846 725.2772 90.3139 725.1655 85.7312 725.7243 84.1664 725.7243 83.6076 725.9479 83.384 726.5067 83.7194 726.842 84.0547 727.0656 84.5018 727.4009 85.3959 727.848 85.3959 727.848 84.6135 728.5186 83.384 728.6304 82.937 728.5186 82.1546 728.1833 81.5957 727.4009 80.8133 725.9479 78.4661 725.5008 77.2366 725.2772 76.0072 725.5008 74.6659 725.9479 73.9953 726.3949 73.4364 726.9538 72.4305 727.0656 71.201 726.7303 69.9715 726.2832 68.8538 725.9479 67.1772 725.389 66.3948 724.4948 65.9477 723.3771 65.836 722.5947 65.5007 722.1476 64.83 721.8123 63.8241 721.5888 62.9299 721.5888 60.3592 722.2594 57.7884 723.4889 55.6648 725.2772 54.2118 726.3949 54.6589 727.2891 54.7706 729.301 54.6589 730.1952 54.3235 731.3129 53.3176 732.207 52.9823 732.9894 52.8705 734.5542 52.3117 736.4543 51.9763 737.5721 51.0822 738.3545 50.8586 738.8015 50.6351 740.7017 49.1821 741.037 48.735 741.8194 47.6173 742.2664 47.1702 743.7195 46.4996 747.4079 45.3818 748.9727 44.2641 749.308 44.9348 749.308 45.3818 748.0785 49.1821 748.4139 50.0762 748.8609 50.6351 749.5316 51.0822 750.2022 51.7528 750.9846 53.4294 751.4317 53.8765 750.4257 51.0822 749.6433 50.5233 749.4198 50.0762 749.4198 49.7409 749.7551 49.1821 749.7551 48.8468 749.6433 47.282 749.8669 46.1642 750.314 45.2701 751.4317 44.7112 754.0024 45.4936 756.9085 43.8171 761.044 40.1286 762.2735 39.7933 766.6326 40.1286 767.0796 40.0168 768.5327 39.458 769.0915 39.3462 770.7681 39.3462 771.5505 39.2344 772.2211 38.8991 773.6741 39.5697 775.3507 39.3462 777.0273 38.7873 778.5921 38.452 779.7098 37.8932 784.2924 31.7458 785.1866 31.2987 786.6396 31.8575 787.8691 32.7517 788.6515 34.093 788.9868 35.546 789.2103 37.2226 790.3281 36.6637 790.9987 35.7695 791.2222 34.54 791.4458 31.9693 791.7811 31.1869 792.3399 30.6281 793.0106 29.7339 793.1223 30.2927 793.4576 30.5163 794.0165 30.5163 794.5754 30.181 795.1342 29.6221 795.246 29.175 795.246 28.7279 795.4695 28.0573 796.4755 26.9396 797.4814 26.8278 799.9404 27.722 799.4933 26.8278 798.4873 26.4925 797.1461 26.3807 796.2519 26.0454 795.8048 25.1513 796.0284 24.3689 796.5872 23.5865 798.8227 21.351 799.158 20.5686 799.158 19.6745 798.9344 18.8921 799.0462 18.2215ZM724.4948 266.2417L727.2891 266.3535 731.4246 268.9242 733.9954 269.5948 733.8836 270.0419 733.7718 270.489 733.4365 270.9361 733.213 271.2714 732.5424 271.8303 729.4128 273.1715 729.301 273.6186 728.4068 274.5128 728.1833 274.8481 727.848 275.7422 727.4009 276.6364 726.842 277.1953 726.7303 277.1953 726.0596 278.313 725.389 279.766 724.6066 281.1073 724.1595 282.1132 723.1536 282.5603 722.3712 283.4545 722.4829 284.9075 721.477 285.6899 721.1417 286.584 720.1358 288.0371 718.0121 287.8135 716.7826 288.4842 715.7767 288.8195 714.3237 288.7077 712.8706 288.2606 711.9765 287.8135 711.6411 286.4723 711.9765 284.3486 712.2 277.0835 712.4235 276.3011 714.5472 272.5009 715.3296 270.0419 716.2238 269.3713 719.9122 268.3653 723.2653 266.6888 724.4948 266.2417ZM143.2847 186.1018L144.8495 186.6606 146.079 188.0019 146.1908 189.2314 144.2906 189.902 142.3905 189.6784 137.4726 187.443 138.7021 186.1018 139.5963 186.3253 142.5023 186.3253 143.2847 186.1018ZM99.6939 180.9603L99.8057 181.1838 100.141 181.2956 100.3646 181.6309 100.5881 182.078 100.4763 182.4133 100.3646 182.6369 100.2528 182.8604 100.141 183.0839 99.9175 183.3075 99.1351 183.531 98.9116 183.6428 98.7998 183.8663 98.9116 184.6487 98.9116 184.8723 98.5762 185.3194 96.5644 186.5488 96.229 186.5488 93.9936 186.3253 93.0994 185.6547 92.3171 184.8723 90.9758 184.0899 91.5347 183.4193 92.0935 182.6369 92.4288 181.8545 92.8759 179.9543 93.4348 179.0602 94.1054 178.7249 94.776 179.5073 95.8937 179.1719 97.5703 179.5073 99.0233 180.2897 99.6939 180.9603ZM164.633 146.5348L165.4154 146.9818 166.1978 146.9818 166.9802 146.6465 167.6508 146.3112 167.8744 148.5466 166.7567 151.0056 164.9683 153.241 163.18 154.5823 161.0563 155.2529 160.721 155.5882 160.6092 156.2589 159.8268 157.9354 158.5974 159.8355 157.815 160.7297 156.9208 161.2886 156.0266 161.6239 155.1325 161.7356 153.0088 161.6239 152.3382 161.8474 151.1087 162.7416 150.3263 162.9651 149.6557 162.7416 148.4262 161.9592 147.8673 161.6239 145.6319 161.2886 145.1848 161.065 145.073 160.5062 145.4084 159.8355 146.1908 158.9414 146.6378 158.4943 149.0968 157.3766 149.8792 156.7059 150.5498 154.5823 151.1087 154.5823 153.6794 153.9117 154.3501 153.241 155.2442 151.3409 155.8031 150.6703 157.4796 149.1055 157.815 148.5466 158.262 148.2113 160.3857 147.4289 161.0563 146.7583 162.0623 146.7583 163.8506 146.1994 164.633 146.5348ZM111.0946 137.5931L111.7652 138.2637 111.6535 139.605 110.8711 142.1757 110.8711 142.9581 111.2064 143.7405 111.3182 144.4111 111.2064 144.6347 110.6475 145.9759 110.6475 146.3112 109.6416 146.6465 108.971 147.6525 108.3003 148.7702 107.5179 149.6644 107.0708 149.9997 106.7355 150.1114 103.7177 149.9997 103.4942 150.2232 103.1589 151.4527 102.3765 152.0116 101.2587 152.2351 100.141 152.1233 98.0174 151.4527 96.7879 151.2292 96.3408 150.8938 96.1173 150.5585 95.782 150.4468 95.3349 149.9997 93.9936 148.2113 93.4348 147.5407 92.6524 147.6525 91.4229 147.4289 90.4169 146.8701 89.7463 146.3112 89.6345 145.5288 89.7463 142.6228 90.0816 140.9462 90.7523 139.4932 91.6464 138.2637 92.6524 137.2578 93.2112 136.8107 94.8878 136.14 95.5584 135.9165 96.229 136.0283 97.5703 136.2518 98.0174 136.3636 98.5762 136.2518 99.2469 135.693 99.6939 135.5812 105.3943 134.9106 106.7355 134.2399 107.0708 134.3517 107.4062 134.5752 107.7415 134.7988 108.0768 135.1341 108.1886 135.693 108.0768 136.3636 108.1886 137.0342 108.6356 137.2578 109.1945 137.2578 110.424 137.5931 111.0946 137.5931ZM37.8845 132.4516L37.3256 132.7869 33.0783 134.4635 32.0724 134.687 31.5135 134.687 30.8429 134.4635 29.6134 133.6811 28.4957 133.3458 26.7074 132.6751 26.3721 132.5634 25.7014 132.6751 25.4779 132.6751 25.1426 132.4516 25.1426 132.2281 25.2543 132.0045 25.0308 131.781 24.0249 130.6633 23.2425 129.4338 22.6836 128.0925 22.3483 125.2982 21.5659 123.0628 21.6777 122.2804 27.0427 122.3922 29.2781 121.2745 32.0724 120.6039 33.5254 120.1568 33.8607 120.1568 34.6431 120.6039 36.655 122.7275 37.3256 123.0628 37.9963 123.6217 38.2198 124.9629 37.8845 127.1983 37.8845 132.4516ZM88.5168 122.2804L89.2992 122.7275 88.9639 123.8452 87.6227 125.7453 87.1756 127.0866 86.0579 127.4219 84.7166 127.1983 82.1459 126.416 77.8986 126.416 76.7809 126.0806 75.6631 125.41 74.5454 125.0747 73.2042 125.6336 72.31 124.5158 71.9747 122.951 71.3041 121.7216 69.851 121.3862 72.4218 117.9213 72.5336 117.1389 72.1982 116.0212 72.6453 114.9035 73.6513 114.2329 74.769 114.0094 75.2161 114.2329 75.4396 114.2329 75.6631 114.0094 76.8926 114.7917 81.0282 116.2448 82.4812 116.4683 84.4931 117.2507 87.6227 120.7156 89.2992 121.8333 89.0757 121.9451 88.8521 121.9451 88.5168 122.2804ZM73.6513 149.2173L74.2101 149.5526 74.5454 149.5526 74.769 149.7761 74.769 150.6703 74.5454 151.0056 73.0924 151.6762 72.5336 151.8998 70.6334 157.8237 70.857 159.3884 70.7452 160.3944 69.404 160.0591 68.7333 161.065 67.1685 162.7416 66.4979 163.7475 65.492 163.3004 64.486 163.1887 62.5859 163.3004 61.3564 163.6358 59.4563 165.0888 52.5265 167.436 51.1853 167.1007 50.2911 167.3242 44.8143 166.5418 37.9963 166.6536 36.7668 166.3183 35.7608 165.4241 35.5373 164.7535 35.4255 164.0828 35.4255 162.7416 35.202 162.071 34.6431 161.8474 33.9725 161.8474 33.3019 161.6239 31.7371 159.2767 32.2959 156.4824 33.9725 153.9117 35.7608 152.1233 42.9142 147.5407 43.1377 147.0936 43.1377 146.6465 43.3613 146.423 44.3672 146.3112 45.8202 145.6406 47.9439 145.0817 48.7263 145.0817 49.3969 145.3053 49.7322 145.5288 49.9558 145.7524 50.2911 145.9759 51.4088 146.3112 51.9677 146.3112 52.6383 146.0877 52.9736 145.7524 53.5325 144.8582 53.8678 144.6347 53.8678 144.0758 54.4266 142.7345 55.3208 141.8404 56.215 142.1757 56.8856 141.1697 56.8856 140.2756 56.4385 139.4932 55.7679 138.8226 54.8737 138.4872 53.0854 137.9284 52.4147 137.5931 50.9617 136.2518 49.5087 134.3517 48.391 132.2281 47.8321 130.2162 47.9439 128.4278 47.7204 127.7572 47.0497 127.1983 46.4909 127.0866 45.7085 126.9748 45.3732 126.863 45.1496 126.5277 44.5908 125.6336 40.9023 123.6217 39.4493 122.0569 39.5611 120.1568 38.3316 119.4861 37.5492 118.1449 37.6609 116.9154 39.114 116.4683 37.9963 114.9035 37.6609 114.0094 37.4374 112.8916 37.4374 110.8798 37.4374 110.3209 37.1021 109.315 37.1021 108.7561 36.5432 106.7442 35.202 105.7383 33.3019 105.7383 31.29 106.5207 29.1663 107.9737 28.0486 108.1972 26.9309 107.5266 25.7014 105.8501 25.4779 105.5147 25.5897 104.9559 25.925 104.6206 26.3721 104.5088 30.5076 102.1616 31.6253 101.0439 32.0724 98.5849 33.5254 99.032 34.7549 98.6967 35.9844 98.1378 37.8845 97.579 38.3316 97.1319 38.6669 96.573 39.114 96.126 39.8964 95.9024 41.0141 95.9024 41.5729 95.6789 42.5789 96.573 43.026 98.0261 43.2495 99.2556 43.473 99.8144 44.2554 100.3733 45.0378 103.0558 45.5967 103.6146 45.932 103.8382 46.8262 104.9559 47.1615 105.2912 48.5028 105.2912 49.0616 105.403 49.5087 105.6265 49.9558 106.7442 50.0675 108.1972 49.844 110.9915 50.9617 117.8096 51.6323 118.8155 54.2031 121.1627 54.4266 121.3862 54.5384 121.7216 54.4266 122.504 54.6502 123.1746 55.0972 123.3981 55.5443 123.5099 55.7679 123.7334 61.9153 127.6454 62.3624 128.3161 62.4741 128.8749 62.8095 129.322 63.5919 130.2162 63.9272 130.3279 64.8213 130.5515 64.8213 130.8868 64.7096 131.3339 64.5978 131.5574 64.486 131.781 65.0449 134.1282 65.2684 136.5871 64.9331 137.7048 63.2565 139.1579 62.8095 140.052 64.1507 139.1579 64.486 139.7167 64.5978 140.8344 64.8213 141.7286 67.3921 142.2875 68.6216 142.9581 68.6216 144.2993 69.404 144.4111 70.0746 144.7464 70.6334 145.1935 71.0805 145.9759 70.6334 146.7583 71.5276 147.0936 73.6513 149.2173ZM91.6464 87.8549L91.0876 87.6314 90.4169 87.1843 89.9699 86.6254 89.7463 86.1783 89.8581 84.8371 90.864 83.8311 92.2053 83.1605 93.4348 82.937 94.8878 83.384 96.3408 84.0547 97.4585 84.9488 98.0174 86.1783 97.6821 87.0725 96.5644 88.0784 95.2231 88.8608 93.8818 89.0844 93.2112 88.8608 92.4288 88.0784 91.6464 87.8549ZM74.4337 65.5007L76.8926 66.8419 77.675 69.5244 76.6691 71.5363 73.9866 70.4186 74.4337 69.1891 73.9866 66.5066 74.4337 65.5007ZM794.5754 21.7981L794.5754 22.357 794.6871 22.8041 795.0224 23.4747 795.0224 25.5983 794.7989 28.0573 793.9047 29.6221 792.4517 28.9515 791.8928 29.6221 791.2222 30.181 789.9927 29.2868 789.0986 28.2809 788.875 27.1631 789.7692 25.8219 794.5754 21.7981ZM12.6242 21.1275L12.8477 21.1275 13.0713 21.6864 12.9595 21.9099 12.736 22.2452 12.4007 22.0217 12.1771 21.6864 12.1771 21.351 12.6242 21.1275ZM12.4007 20.5686L12.736 20.5686 12.5124 20.7922 12.4007 20.5686ZM1 4.5854L1.3353 4.2501 1.6706 4.4736 1.6706 5.0325 1.2235 5.1442 1 4.5854ZM739.0251 255.5117L739.6957 257.0765 741.1487 257.6353 741.9311 258.9766 740.5899 260.8767 738.4662 261.9944 738.2427 264.6769 736.7897 265.5711 735.5602 265.4593 735.2249 264.118 736.119 261.7708 737.3485 258.5295 739.0251 255.5117Z" />
</svg>