<?xml version="1.0" encoding="utf-8"?>
<svg xmlns="http://www.w3.org/2000/svg" viewBox="0 0 1021 670" style="stroke-width:0.25px;stroke-linejoin:round;stroke:#444;fill:#ddd" fill-rule="evenodd">
  <path class="EE" d="M396.5582 560.3866L398.2348 557.5923 399.4642 554.798 400.0231 551.3331 400.3584 547.7564 400.9173 544.4033 408.5177 525.514 411.312 513.6662 419.0242 504.1657 421.8185 498.8007 421.8185 484.1586 422.9362 477.5641 423.1597 473.8757 422.3773 470.6343 421.1479 467.84 420.3655 464.5987 420.3655 461.2455 422.3773 454.7628 422.4891 451.4097 422.3773 448.0565 422.9362 444.7034 426.1776 440.1208 430.9837 436.9912 435.3428 432.9674 437.2429 426.0376 435.6781 419.4431 432.1014 414.3017 418.5771 403.4598 412.0944 400.6656 405.3881 400.1067 399.9113 402.901 398.123 405.36 396.3347 409.0484 394.8816 412.9604 394.3228 416.6488 394.0992 421.3432 393.4286 424.1375 388.5107 432.9674 386.4988 435.7617 384.1516 437.6618 381.2455 438.4442 375.4334 436.7677 372.5274 436.7677 369.8449 439.4502 366.9388 446.38 365.4858 447.6095 362.5798 446.6035 360.9032 444.7034 356.097 436.3206 348.7201 429.6143 344.4728 424.1375 333.8546 419.5549 327.3718 418.996 324.354 417.6548 323.4598 416.7606 321.7833 414.0781 321.0009 413.2957 319.5479 413.0722 318.5419 413.9663 317.6477 415.084 316.53 415.5311 315.077 414.8605 313.5122 413.5193 311.9474 412.9604 310.4944 414.4134 309.4884 416.2018 308.4825 417.543 307.3648 417.8783 306.1353 416.6488 305.1294 414.0781 304.2352 410.6132 303.6763 406.9248 303.341 403.9069 302.6704 399.4361 300.7703 396.9771 298.6466 395.3006 296.9701 392.5063 295.9641 388.4825 295.9641 385.3529 296.9701 377.8642 297.0818 368.8108 296.1877 361.3221 293.8405 357.6337 289.2579 359.9809 287.246 359.7573 284.1164 357.6337 281.0986 354.9512 279.422 352.8275 278.1925 348.4684 278.0807 345.0035 277.4101 343.2152 274.9512 344.2211 272.8275 347.1272 271.598 350.4803 270.2568 351.9333 267.9096 349.5861 267.3507 346.5683 268.3567 343.327 269.8097 339.9738 270.5921 336.8442 269.5861 331.1439 267.7978 323.5435 266.5683 315.4959 267.2389 308.3426 268.692 305.6601 270.0332 305.213 273.3864 306.4425 274.5041 305.7718 275.0629 304.3188 275.0629 302.8658 272.3804 300.295 272.0451 296.1595 272.9393 292.6946 274.9512 292.5828 281.0986 295.6007 287.1342 294.5947 293.0581 292.2475 299.0937 291.5769 302.2233 292.8064 308.4825 296.9419 311.0532 297.8361 315.9712 297.8361 316.4183 296.8301 316.6418 294.7065 316.4183 292.5828 315.4123 291.5769 312.9534 290.1239 312.2827 286.8825 313.2887 283.3058 315.5241 280.9586 318.2066 281.1822 324.4658 284.7589 327.4836 285.2059 323.2363 280.0645 318.0948 276.4878 313.0651 276.1525 308.8178 280.9586 305.9118 277.1584 302.6704 276.8231 295.8524 278.9468 284.1164 278.0526 280.4279 278.9468 277.2983 280.8469 275.6218 282.4117 274.5041 284.0882 273.4981 284.3118 268.3567 282.9705 265.3388 283.5294 256.3971 287.3296 262.321 276.2642 265.3388 273.47 270.5921 272.5758 271.8216 270.3404 261.7622 256.7043 260.4209 250.7804 255.1677 242.8447 255.1677 236.6972 258.6326 231.8911 269.2508 232.6735 272.7157 227.9791 275.51 229.8792 278.3043 229.991 281.0986 228.985 286.24 224.626 287.5813 223.0612 288.0284 221.0493 288.1402 217.2491 287.0224 209.7604 284.4517 204.3954 280.9868 200.7069 277.1866 198.1362 279.1985 202.2717 283.8928 206.9661 285.9047 211.1017 284.5635 211.884 281.6574 212.2194 280.4279 213.0018 277.1866 217.2491 276.963 218.3668 276.963 220.1551 276.0689 223.62 274.5041 223.9553 273.6099 222.5023 272.7157 220.6022 271.7098 219.5963 261.4268 216.9138 257.1795 213.3371 252.9322 206.6308 254.0499 206.8543 256.3971 206.519 257.4031 206.6308 256.2854 201.0422 257.1795 197.1303 264.4447 188.5239 266.1212 187.0708 267.7978 187.965 270.5921 191.7652 270.7039 175.6702 265.4506 160.3575 262.9916 148.5098 271.7098 142.8095 273.4981 143.033 276.8513 144.3743 278.7514 144.7096 280.2044 144.0389 282.4398 141.1329 286.1283 139.2328 288.0284 136.662 290.2638 134.3149 293.6169 134.0913 302.1116 142.3624 302.5586 142.4741 304.4587 142.8095 306.3589 140.0152 306.4706 136.662 305.3529 133.6442 303.341 131.9677 305.1294 127.9439 308.7061 126.1556 322.901 125.8202 329.8308 127.7204 337.3195 127.0497 345.5905 123.8084 353.7498 123.1377 360.4561 129.9558 363.5857 122.6906 362.3562 117.1021 352.0733 102.9072 350.732 99.8893 351.1791 96.5362 353.191 93.1831 355.3146 91.1712 357.6618 90.5006 360.4561 91.0594 364.927 94.4125 373.9804 104.0249 378.563 106.0367 383.0339 103.6895 381.6926 98.3245 377.5571 92.6242 373.6451 88.9358 376.7747 86.9239 390.9696 85.8062 396.5582 83.6825 398.3465 79.8823 400.2466 69.5993 400.9173 67.4757 411.5355 64.905 415.1122 65.2403 418.2418 67.6992 424.0539 74.4055 427.2953 75.8585 430.2013 74.5173 432.7721 71.8348 435.231 69.8229 438.2488 70.7171 447.5259 77.4233 450.3201 78.2057 453.2262 76.8645 452.5556 73.9584 449.9848 71.0524 446.967 69.8229 446.967 67.4757 451.2143 67.9228 452.8909 67.0286 453.5615 64.1226 454.1204 60.6576 455.5734 59.4282 457.3617 59.7635 459.1501 60.993 462.0561 65.7991 464.068 71.2759 466.6387 74.8526 471.1096 73.8466 473.0097 72.3936 473.9039 71.1641 477.5923 63.2284 478.0394 61.5518 476.5864 56.7457 475.5804 54.8455 474.1274 53.5043 472.8979 51.9395 472.3391 49.0334 472.3391 46.1274 472.1155 43.892 471.7802 41.7683 471.1096 39.3094 476.0275 35.9562 482.1749 40.9859 493.0167 54.5102 497.0405 55.6279 509.4471 52.3866 513.2473 53.3925 519.8418 57.8634 523.0832 58.8693 526.101 57.1927 524.7597 49.0334 526.9952 45.6803 530.7954 45.9039 538.5076 51.0453 572.7096 60.993 572.9331 60.993 571.8154 53.7278 573.9391 49.7041 577.851 48.0275 592.7166 48.0275 594.3932 47.1333 594.3932 44.8979 593.2755 42.6625 591.5989 41.6565 587.0163 35.8444 584.5573 23.1025 583.9985 10.3606 585.0044 4.5485 587.7987 6.8957 593.0519 17.514 596.0697 19.8612 599.4229 21.3142 602.2172 24.7791 607.0233 32.8266 610.6 35.5091 615.7415 37.2975 620.3241 36.2915 622.4477 30.5912 621.1065 25.2262 618.7593 21.6495 616.971 17.6257 617.9769 11.0312 616.971 10.6959 615.5179 9.4664 614.7355 9.1311 618.5358 4.2132 623.4537 5.778 632.2836 15.3903 631.1659 17.7375 633.066 21.7613 634.4073 29.3617 636.6427 32.8266 639.6605 34.3914 641.3371 34.0561 642.5666 33.8326 645.2491 31.0383 647.5963 26.3439 646.4785 24.2202 648.714 16.7316 652.1789 19.0788 655.7556 25.0026 658.5498 28.3558 661.7912 27.4616 662.1265 25.4497 661.4559 22.6554 661.6794 19.8612 663.6913 16.7316 665.5914 15.7256 667.7151 16.2845 673.1919 19.3023 679.3393 25.2262 679.8981 26.5674 680.2334 28.3558 680.457 30.5912 681.91 31.1501 712.2 30.5912 715.2178 31.5971 721.8123 35.9562 731.6482 38.3034 740.5899 43.6684 746.9608 45.5685 750.5375 45.6803 753.22 44.7861 758.585 40.3153 760.9322 39.3094 767.5267 39.8682 773.7859 41.7683 779.7098 45.1215 785.6337 50.0394 792.2282 57.4163 799.6051 65.4638 807.429 68.3699 814.1353 72.6172 817.3767 73.8466 845.8783 76.4174 871.3622 74.8526 892.7105 73.2878 917.4119 79.547 942.0015 81.1118 966.9265 87.2592 973.6328 85.0238 979.7802 80.7765 984.5864 74.8526 990.2867 63.899 993.4163 69.8229 1000.5696 73.6231 1004.0345 77.3116 1007.723 86.7003 1009.2878 89.4946 1011.1879 91.8418 1015.3234 95.3067 1017 97.5421 1016.3294 103.466 1012.4174 100.8953 1005.3758 106.8191 992.4103 107.8251 987.3806 110.3958 998.8931 115.0902 1002.6933 114.9784 999.4519 119.3375 980.7861 119.0022 971.8444 124.0319 968.3795 128.6145 969.7208 134.2031 967.0383 140.9094 962.0086 164.3813 952.7316 190.5358 950.0491 197.242 943.1193 210.0957 941.4427 217.1373 938.6484 221.6081 938.3131 222.0552 924.1182 234.7971 903.7758 253.1276 898.6343 270.6757 892.934 290.4592 895.9518 304.4306 899.1932 320.0785 907.1289 358.0807 916.0706 400.6656 906.3465 423.8022 904.5582 439.2266 906.5701 453.6451 910.3703 461.8044 913.7234 468.7342 919.9826 482.5938 928.1419 493.9945 929.1479 502.8244 928.0301 510.6484 928.3655 519.3666 931.3833 520.596 934.2893 523.055 935.2953 530.3201 934.5129 534.2321 933.3952 537.5853 932.7245 541.0502 933.6187 545.2975 934.96 546.974 951.1668 553.5685 953.7375 556.5864 955.1905 562.5102 953.1787 566.534 949.3784 569.2165 939.319 573.352 916.2942 576.9287 913.2763 577.3758 911.2645 578.6053 912.4939 579.2759 915.8471 582.4055 911.488 584.6409 909.2526 586.4293 907.6878 589.1118 906.9054 594.1415 908.6937 602.6361 908.4702 606.3245 905.7877 609.4541 892.4869 614.1485 889.9162 616.7193 888.7985 618.5076 888.0161 620.8548 887.569 623.7608 887.7925 625.2139 888.1278 626.4433 888.5749 630.3553 888.9102 631.3613 889.2455 632.479 888.9102 638.6264 888.4631 639.8559 887.2337 641.3089 885.3336 642.3149 883.0981 642.4266 881.198 643.209 879.745 645.668 879.8568 649.4682 880.9745 654.3861 882.5393 659.1923 883.7688 662.3219 878.5155 665.675 853.8141 656.6216 840.9604 655.7274 837.1602 653.9391 833.9188 650.1388 828.1067 640.9736 824.3065 637.9558 818.7179 636.0557 816.0354 636.0557 813.1294 636.7263 810.6704 636.1674 808.8821 634.0438 806.982 632.5908 803.9641 633.932 801.5052 637.7322 799.8286 642.2031 797.9285 646.3386 794.6871 649.2447 791.7811 650.1388 779.3745 649.3564 774.0095 651.1448 768.868 654.2744 764.0618 658.5217 763.0559 660.4218 762.497 662.6572 761.7146 664.4455 760.1498 665.2279 758.585 664.6691 755.679 662.5454 754.1142 662.0983 751.9905 663.3278 749.7551 665.3397 747.2961 665.7868 744.2783 662.4337 739.0251 654.7215 736.3426 652.1507 736.2308 652.0389 723.6007 646.5622 721.5888 645.668 714.8825 640.9736 709.5175 634.4909 694.3166 609.5659 689.0634 603.4185 671.4035 588.5529 669.9505 584.8645 669.5034 578.6053 669.9505 575.9228 670.8447 574.1344 671.4035 572.3461 670.9564 569.44 669.727 567.987 667.8268 566.9811 634.2955 564.075 630.2717 560.163 628.1481 554.1274 626.695 547.98 624.2361 543.8444 621.7771 543.7327 619.9888 544.4033 611.4942 547.3094 607.4704 547.6447 603.6702 547.0858 600.0935 544.9622 596.7404 540.4913 595.958 538.0323 595.7344 536.1322 595.7344 535.7969 595.5109 534.1204 594.1696 531.8849 592.6048 530.7672 586.9045 529.5377 580.6453 525.4022 570.9212 513.6662 564.5503 510.2013 562.8737 510.2013 561.8678 510.7602 560.8618 511.0955 559.4088 510.2013 558.4029 508.413 556.5028 502.9362 555.385 500.8125 552.5908 498.4653 549.6847 497.9065 547.5611 499.9184 547.4493 505.1716 551.9201 513.3309 552.9261 518.1371 549.7965 522.3844 544.655 525.0669 542.196 525.0669 539.8488 523.055 537.837 516.5723 536.3839 509.0836 534.1485 502.9362 530.013 500.1419 522.5243 500.3655 518.8359 501.4832 515.2592 503.7186 513.0238 505.954 503.5232 515.9017 499.3877 518.6959 487.0928 520.4843 483.2926 523.055 479.9395 526.0728 478.1512 527.6376 474.0156 526.967 469.8801 524.2845 464.8504 523.055 462.5032 526.0728 459.5971 534.4557 457.1382 536.4675 447.4141 537.5853 436.1252 536.4675 432.9956 537.2499 424.501 544.9622 418.2418 548.3153 416.2299 550.6625 413.5474 557.8158 411.7591 560.8337 408.0706 562.9573 403.488 563.1809 396.5582 560.3866ZM338.549 486.3941L337.6548 479.1289 340.4491 474.7699 345.0317 473.0933 349.7261 474.211 351.0673 481.3644 347.9377 487.8471 342.908 490.5296 338.549 486.3941ZM224.5424 367.246L228.4543 368.699 233.8194 372.2757 238.6255 377.0818 240.9727 381.9998 239.6315 386.3589 229.4603 379.0937 225.6601 381.9998 227.6719 382.5586 229.5721 383.4528 231.0251 385.2411 232.1428 388.1472 225.213 387.0295 222.1952 385.2411 219.0656 381.9998 218.3949 380.5468 217.7243 378.4231 216.7184 376.4112 215.1536 375.6288 212.6946 375.6288 212.4711 376.1877 211.4651 377.8642 211.1298 378.982 210.3474 383.4528 209.7886 385.1294 208.5591 387.1413 207.4414 388.3707 205.0942 390.3826 203.9765 390.2708 202.4117 389.6002 201.1822 390.1591 200.5116 393.624 200.6233 395.5241 200.8469 397.4242 201.1822 399.3243 201.5175 400.7773 197.829 403.6834 194.4759 407.9307 191.2345 410.5014 184.0812 404.8011 180.3927 405.0246 179.275 407.5954 182.7399 411.3956 172.1217 426.1494 169.5509 427.4906 166.9802 428.273 164.2977 430.1732 159.7151 436.097 157.4796 437.7736 153.903 438.4442 146.5261 437.6618 143.0612 438.7795 141.2728 442.5798 148.7615 447.2741 143.3965 452.4156 134.7901 453.6451 132.4429 446.6035 130.0957 444.8152 127.0779 444.1446 124.0601 444.2563 121.4893 445.5976 119.0304 448.1683 118.1362 449.3978 117.3538 448.8389 115.5655 445.5976 113.33 443.6975 111.877 445.7094 110.5358 450.8508 109.418 451.8568 108.8592 452.5274 108.4121 452.9745 107.2944 453.0862 107.1826 452.0803 106.4002 447.4977 106.2884 446.6035 104.053 446.38 101.2587 447.7212 98.5762 449.7331 96.8997 451.9685 95.2231 453.5333 93.323 452.8627 91.4229 451.745 89.7463 451.9685 88.6286 452.9745 85.6108 454.7628 84.3813 454.9864 79.4634 458.116 74.9925 462.2515 72.8689 465.3811 71.6394 466.387 71.1923 467.9518 70.857 479.2407 70.1864 485.8352 68.8451 492.4297 64.3743 504.8363 63.1448 507.6306 61.3564 510.0895 59.6799 512.7721 59.4563 515.6781 60.2387 522.4961 58.1151 525.514 35.5373 546.1916 30.3958 546.4152 26.1485 540.0442 26.8191 536.5793 26.2603 533.2262 24.6955 530.7672 22.4601 529.7613 22.013 529.3142 21.7894 528.0847 21.6777 526.7435 21.9012 525.514 26.1485 525.8493 27.378 525.514 28.4957 523.3903 30.1723 517.0194 31.1782 514.2251 37.2139 504.8363 39.8964 498.4653 41.4612 495.6711 43.1377 494.5534 45.4849 495.224 47.4968 496.5652 49.3969 497.4594 51.4088 496.5652 52.303 494.5534 53.1971 488.2942 54.2031 485.2763 60.2387 475.8876 56.5503 471.9756 50.4029 469.4048 39.3375 467.5047 36.2079 464.1516 30.3958 449.8449 26.8191 446.6035 16.4244 446.38 11.1712 444.7034 6.5886 440.4561 4.0178 435.2029 2.7883 431.6262 2.6766 429.0554 4.6884 427.6024 13.0713 430.1732 11.2829 425.4788 8.4887 420.7844 7.4827 417.0959 10.8359 415.5311 13.7419 417.6548 16.3127 421.5668 18.8834 424.0257 21.9012 421.6785 20.56 416.3135 22.6836 413.0722 26.2603 412.0662 29.5017 413.2957 28.1604 409.8308 26.1485 403.2363 19.1069 389.3767 15.642 384.9058 11.9536 378.3113 9.8299 375.6288 5.2473 371.158 1 365.3459 9.3828 369.2579 11.9536 369.2579 14.4125 368.3637 14.7479 367.246 14.7479 365.6812 16.3127 363.1105 22.4601 363.334 27.0427 364.8988 31.0664 368.9226 37.9963 381.9998 38.8904 385.0176 39.2257 389.2649 39.5611 391.0532 40.2317 391.9474 41.1259 392.3945 42.02 392.5063 43.473 391.2768 43.5848 388.5943 42.6906 384.1234 43.5848 376.0759 44.3672 372.611 45.932 369.2579 48.0557 367.246 53.1971 364.5635 55.209 362.1045 57.1091 357.8572 57.7798 355.6218 58.8975 354.6158 61.8035 354.5041 62.2506 355.1747 62.8095 356.7395 63.2565 358.6396 63.4801 359.9809 63.7036 363.6693 64.3743 365.4576 66.7215 367.246 71.4158 368.0284 72.9806 361.9927 73.2042 353.4981 73.8748 347.4625 79.2398 342.7681 101.8176 340.1974 115.789 329.0202 121.0422 327.4554 122.7188 329.132 125.7366 336.2854 127.525 337.9619 128.5309 338.6326 130.2075 341.4268 131.437 342.0975 133.0018 341.4268 135.796 338.5208 136.802 337.9619 140.1551 338.9679 142.7259 340.7562 145.5201 341.7622 148.985 340.1974 154.2383 333.4911 157.4796 331.0321 163.0682 333.9382 171.6746 331.8145 175.2513 332.7087 178.7162 334.9441 185.9813 337.5149 193.47 342.8799 202.1881 347.0154 205.4295 351.598 207.7767 357.969 209.0062 359.8691 211.3534 362.1045 217.8361 365.5694 224.5424 367.246ZM248.6849 344.2211L251.1439 349.2508 251.7028 351.7098 248.4614 354.1688 247.1201 356.8513 245.5553 358.7514 243.0964 357.8572 240.6374 355.9571 237.8431 355.0629 232.2546 354.5041 230.0191 355.2865 225.213 358.0807 223.4246 357.8572 209.2297 344.2211 200.9586 340.9798 197.1584 336.956 197.7173 330.4733 199.7292 328.9085 204.6471 330.585 206.9943 329.3556 207.4414 327.679 208.5591 321.308 209.2297 319.0726 212.3593 314.7135 215.8242 313.1487 219.2891 313.2605 233.8194 317.6196 240.5256 321.7551 242.6493 324.3259 243.5435 327.2319 243.3199 330.3615 242.9846 333.2675 243.2081 335.8383 244.5494 338.5208 247.4554 342.2092 248.6849 344.2211ZM245.8906 205.6249L250.0262 212.2194 250.585 215.6843 249.2438 220.6022 247.5672 222.167 245.5553 221.6081 243.6552 220.1551 242.0904 219.5963 240.3021 220.1551 235.4959 223.62 232.2546 223.62 226.7778 220.3787 223.4246 219.5963 222.4187 220.1551 222.0834 221.6081 221.4128 222.9494 215.4889 224.4024 213.8123 224.1789 211.3534 222.6141 206.7707 209.5369 205.8766 207.7485 206.659 204.1718 208.6708 201.9364 211.3534 200.8187 214.93 200.2598 220.9657 200.8187 232.1428 204.5072 239.1844 202.4953 242.7611 202.3835 245.8906 205.6249ZM74.4337 247.092L64.0389 249.7745 58.8975 249.3274 37.7727 237.5914 34.8667 234.3501 36.655 229.2086 42.8024 228.2026 54.6502 229.991 101.8176 223.62 98.688 221.4964 98.4645 219.3727 100.4763 218.5903 103.9413 220.6022 105.8414 220.3787 105.7296 209.4251 108.4121 206.6308 111.9888 206.4073 114.7831 205.1778 117.242 202.607 119.3657 198.1362 119.9245 195.3419 119.9245 192.7712 120.2598 190.2004 121.6011 187.5179 123.2777 186.7355 130.2075 187.5179 130.3193 187.5179 134.343 188.1886 139.1492 189.9769 141.9435 192.9947 138.3668 201.8246 139.9316 206.8543 142.9494 210.9899 145.5201 213.0018 161.6152 211.884 177.1514 219.4845 179.6103 223.62 180.0574 226.7496 179.275 231.5558 179.6103 234.3501 181.0634 237.2561 184.4165 240.1622 185.646 241.8387 186.6519 243.7388 188.9991 246.4213 190.1168 248.0979 190.5639 249.5509 190.6757 251.1157 190.6757 254.6924 191.1228 256.7043 192.2405 257.2631 193.3582 257.3749 193.9171 257.5985 194.1406 263.8576 193.0229 267.099 190.6757 267.5461 184.0812 262.8517 182.4046 262.0693 180.7281 261.8458 179.6103 262.9635 179.1633 264.8636 178.3809 265.8695 176.369 264.0812 173.6865 265.5342 171.004 265.5342 168.4332 266.4284 166.4213 270.3404 167.9861 270.3404 168.9921 271.1228 169.5509 272.7993 169.7745 275.5936 169.5509 279.3938 168.7685 280.1762 167.5391 280.1762 165.8625 281.9646 162.9564 283.7529 158.3738 283.8647 154.1265 282.2999 152.2264 278.9468 154.0147 275.7054 157.4796 273.1347 159.9386 270.5639 158.8209 267.3226 156.0266 267.099 152.1146 268.9991 148.2026 271.7934 145.5201 274.4759 142.167 282.0763 136.6902 299.848 132.4429 306.4425 125.5131 310.2427 116.5714 311.3604 107.965 308.9014 101.8176 302.1952 103.2706 301.1892 104.7237 299.6244 107.2944 295.7124 105.059 292.4711 102.1529 286.7707 99.5822 280.5116 98.5762 275.5936 98.5762 268.105 98.1292 263.7459 96.5644 260.281 88.8521 251.1157 84.4931 247.9861 79.6869 246.6449 74.4337 247.092ZM430.0895 27.2381L432.4367 31.7089 435.5663 39.98 434.3369 43.1096 430.0895 44.2273 425.8422 39.4211 425.5069 33.3855 427.6306 27.7969 430.0895 27.2381ZM229.3485 576.8169L230.9133 578.4935 231.6957 581.176 230.9133 585.1998 227.6719 585.5351 224.3188 583.2997 222.5305 580.5054 222.6422 577.9347 222.9776 575.4757 223.5364 573.6873 225.9954 574.0227 229.3485 576.8169Z" />
</svg>