<?xml version="1.0" encoding="utf-8"?>
<svg xmlns="http://www.w3.org/2000/svg" viewBox="0 0 1021 911" style="stroke-width:0.25px;stroke-linejoin:round;stroke:#444;fill:#ddd" fill-rule="evenodd">
  <path class="EG" d="M910.7056 803.6113L894.7223 818.1416 876.6154 835.4661 887.7925 825.0714 899.5285 814.1178 910.7056 803.6113 911.8233 806.1821 913.4999 809.5352 914.6176 817.8063 915.1765 819.2593 916.853 822.3889 920.3179 826.748 922.5534 827.8657 921.5474 826.5244 919.2002 822.3889 920.8768 822.3889 921.8827 823.2831 922.6651 824.5125 923.224 826.0773 924.1182 830.5482 924.3417 831.3306 925.6829 832.2248 926.3536 833.2307 927.0242 834.3484 928.0301 835.6897 929.5949 837.5898 932.7245 840.0487 935.7424 841.2782 937.1954 841.8371 937.5307 842.1724 938.5366 842.843 939.6543 843.5136 940.8838 843.849 945.5782 844.1843 952.2845 845.5255 958.6554 847.6492 961.0026 849.1022 965.1382 853.0142 966.3677 855.1378 966.9265 859.3851 968.2678 862.0677 970.8385 864.3031 973.4092 866.2032 974.6387 866.8738 975.8682 867.3209 975.6447 865.9796 976.0917 865.9796 977.8801 867.9915 977.433 870.5623 978.7743 874.2507 984.4746 876.8215 987.1571 878.3862 989.0572 879.6157 994.0869 883.863 1001.5756 891.1282 1003.2521 891.9106 1004.4816 891.7988 1004.7052 891.2399 1004.9287 890.6811 1005.1523 890.3458 1005.8229 890.5693 1007.2759 891.4635 1007.9465 892.1341 1008.3936 892.693 1009.6231 895.4872 1010.2937 896.4932 1011.5232 897.7227 1014.7646 899.6228 1016.7765 900.2934 1017 903.6465 1017 904.7642 1016.4411 905.6584 1015.7705 906.5526 1015.7705 906.6644 996.3223 906.6644 976.9859 906.6644 957.5377 906.6644 938.2013 906.6644 918.8649 906.6644 899.5285 906.6644 880.0803 906.6644 860.7439 906.6644 841.4075 906.6644 822.0711 906.6644 802.7347 906.6644 783.2865 906.6644 782.8394 906.6644 782.1688 906.6644 763.9501 906.6644 744.6136 906.6644 725.2772 906.6644 707.6174 906.6644 705.829 906.6644 697.3344 906.6644 688.8398 906.6644 680.3452 906.6644 671.8506 906.6644 663.2442 906.6644 654.7496 906.6644 653.073 906.6644 646.255 906.6644 637.7604 906.6644 629.154 906.6644 620.6594 906.6644 612.1648 906.6644 603.6702 906.6644 595.1756 906.6644 586.5692 906.6644 578.0746 906.6644 569.58 906.6644 567.3446 906.6644 562.4266 906.6644 565.1091 898.7286 567.0092 893.0283 567.121 890.6811 566.3386 888.781 564.5503 886.8809 562.9855 886.0985 561.4207 885.8749 559.7441 886.2102 558.1793 886.9926 556.0557 889.3398 552.3672 897.052 552.0319 897.7227 547.8964 906.1055 546.7787 906.7761 543.6491 906.7761 535.6015 906.7761 527.4422 906.7761 519.3947 906.7761 511.2354 906.7761 503.1879 906.7761 495.0286 906.7761 486.9811 906.7761 478.8218 906.7761 470.7743 906.7761 462.615 906.7761 454.5674 906.7761 446.4081 906.7761 438.3606 906.7761 430.3131 906.7761 422.1538 906.7761 414.1063 906.7761 405.947 906.7761 397.8994 906.7761 389.7402 906.7761 381.6926 906.7761 373.5333 906.7761 365.4858 906.7761 357.3265 906.7761 349.279 906.7761 341.2315 906.7761 333.0722 906.7761 325.0246 906.7761 316.8653 906.7761 308.8178 906.7761 300.6585 906.7761 292.611 906.7761 284.4517 906.7761 276.4042 906.7761 268.2449 906.7761 260.1974 906.7761 252.0381 906.7761 243.9905 906.7761 235.943 906.7761 227.7837 906.7761 219.7362 906.7761 211.5769 906.7761 203.5294 906.7761 195.3701 906.7761 187.3226 906.7761 179.1633 906.7761 171.1157 906.7761 162.9564 906.7761 154.9089 906.7761 146.7496 906.7761 138.7021 906.7761 130.6546 906.6644 122.4953 906.6644 114.4477 906.6644 106.2884 906.6644 98.2409 906.6644 90.0816 906.6644 82.0341 906.6644 73.8748 906.6644 65.8273 906.6644 57.7798 906.6644 49.6205 906.6644 41.4612 906.6644 33.4136 906.6644 25.3661 906.6644 25.3661 880.5099 25.3661 854.2437 25.3661 827.8657 25.3661 801.4877 25.3661 775.1097 25.3661 748.5081 25.3661 722.0184 25.3661 695.4168 25.3661 668.7035 25.3661 641.9902 25.3661 615.1651 25.3661 588.2283 25.3661 561.4032 25.3661 534.3546 25.3661 507.3059 25.3661 480.1455 25.3661 461.9268 25.3661 444.267 25.3661 435.9959 25.3661 404.3647 25.3661 390.058 25.3661 386.3695 25.3661 353.2853 25.3661 345.9084 25.3661 308.5768 25.3661 270.7981 25.3661 254.8149 25.3661 243.0789 24.6955 237.6021 23.2425 232.4606 16.4244 215.6949 15.5303 212.3418 15.4185 208.6534 16.0891 201.7235 16.0891 199.3763 14.9714 195.4644 10.6123 188.311 10.0535 184.2872 11.5065 179.2575 11.6183 177.3574 11.1712 175.2338 4.0178 157.2386 1.6706 152.9913 1 150.8677 1 147.1792 2.3413 143.7143 5.8062 137.5669 7.1474 134.2138 7.9298 132.8725 10.1652 129.9664 12.736 127.3957 17.5421 120.0188 19.2187 116.6657 20.0011 113.4243 20.2246 111.5242 22.7954 104.8179 23.6895 99.5647 24.6955 95.6527 25.925 92.2996 26.4838 88.9464 25.3661 85.0344 21.6777 77.3222 20.56 72.2925 17.6539 66.3686 17.095 64.3568 15.1949 53.962 15.0832 46.0263 14.3008 37.7552 14.3008 34.2903 15.3067 31.1607 28.831 19.9836 31.9606 11.7125 34.196 8.3594 39.4493 4.2239 39.3375 4.8945 40.3435 11.3772 41.2376 14.395 42.8024 16.4069 44.5908 16.9658 48.8381 17.1893 51.9677 18.8659 53.756 18.8659 57.5562 18.307 58.3386 18.5306 59.3446 18.9777 60.3505 19.2012 61.8035 18.307 63.9272 17.7482 66.2744 17.5246 79.7987 13.6127 95.4466 8.2476 99.1351 7.6888 107.2944 8.1359 140.2669 17.3011 164.1859 20.5425 165.6389 21.3249 166.9802 21.7719 171.1157 21.5484 172.7923 21.6602 178.7162 24.5662 182.1811 25.6839 185.9813 25.6839 188.9991 24.5662 190.4521 24.3427 191.9052 25.3486 193.0229 26.4663 193.8053 26.8017 194.5877 26.8017 195.5936 27.0252 197.829 28.3664 203.0823 30.1548 208.6708 30.7136 210.7945 31.3843 212.1358 32.3902 212.6946 31.9431 213.477 31.496 213.8123 31.049 214.8183 31.1607 219.9597 31.049 220.5186 31.2725 221.1892 31.6078 221.7481 32.2784 221.7481 32.7255 221.6363 33.0608 221.7481 33.7315 222.4187 34.9609 222.754 35.5198 223.2011 35.7433 223.4246 35.9669 223.5364 37.4199 223.76 38.0905 224.4306 39.0965 225.213 42.0025 226.1072 43.3438 228.0073 45.1321 230.4662 46.4734 233.037 47.3675 238.2902 48.1499 240.4139 49.0441 242.2022 49.3794 244.1023 48.3735 248.2378 50.6089 253.1558 49.7147 262.8799 45.0204 264.3329 44.7968 265.1153 45.4674 265.5624 46.8087 265.6741 48.7088 265.8977 49.4912 267.3507 53.0679 267.686 56.1975 267.9096 57.0916 270.4803 58.5447 274.5041 59.1035 289.3696 59.1035 290.3756 59.3271 291.158 59.8859 291.8286 60.5565 292.4992 61.0036 293.5052 61.3389 295.9641 61.0036 297.8642 61.2272 301.4409 62.1213 303.0057 62.3449 304.6823 61.8978 308.3707 60.1095 310.2708 59.7741 311.8356 59.9977 313.2887 60.7801 314.6299 61.6743 315.6359 62.6802 316.3065 63.1273 319.3243 63.0155 320.442 63.2391 321.3362 63.6861 322.6774 64.3568 337.543 69.7218 340.4491 71.3983 342.1256 72.069 344.1375 72.2925 344.5846 72.8514 345.1435 75.5339 345.4788 76.4281 346.0376 76.7634 347.6024 77.3222 362.0209 84.9227 375.4334 84.3638 378.0042 83.805 389.2931 78.3282 401.5879 72.4043 406.0587 69.0512 409.5237 67.2628 409.9707 66.9275 410.5296 66.0333 411.2002 65.3627 423.495 56.3092 424.7245 53.7385 427.0717 54.2974 429.5307 53.1796 433.3309 49.7147 432.5485 48.597 432.325 48.7088 431.5426 49.0441 432.1014 48.0382 432.6603 47.3675 433.3309 47.3675 433.8898 48.3735 434.4486 48.3735 435.4546 47.3675 439.2548 43.7909 440.4843 43.1202 441.602 42.5614 443.1668 40.2142 443.8374 39.6553 445.0669 39.4318 445.7375 38.9847 446.2964 38.3141 447.0788 37.7552 446.7435 37.6435 446.5199 37.6435 446.4081 37.4199 446.5199 36.9728 448.7553 35.7433 448.5318 38.5376 450.879 40.4377 451.1025 40.4377 454.2321 41.4437 457.3617 41.779 456.5793 42.2261 455.6851 43.232 455.0145 43.6791 454.9028 44.238 455.0145 44.3497 455.3498 44.3497 455.5734 44.4615 454.5674 45.1321 454.9028 45.8028 455.7969 46.5851 456.6911 47.0322 460.156 45.0204 459.7089 46.1381 460.156 46.6969 460.9384 46.8087 461.2737 46.6969 461.609 46.1381 464.1798 43.6791 464.4033 44.1262 464.4033 44.238 464.7386 44.4615 464.8504 43.9026 465.0739 43.5673 465.1857 43.1202 465.2975 42.3378 465.8563 42.3378 465.7446 43.4556 465.9681 44.238 466.4152 44.685 466.974 45.0204 467.3094 44.3497 468.2035 41.779 466.8623 41.1084 465.7446 41.3319 464.5151 42.0025 462.9503 42.3378 462.9503 41.779 463.2856 41.6672 463.8444 41.779 464.1798 41.779 464.1798 41.1084 462.8385 41.5554 457.9206 41.779 457.9206 41.1084 460.9384 40.326 463.8444 38.6494 468.9859 34.0668 470.7743 31.049 471.892 27.137 472.2273 23.1132 471.5567 19.6483 472.1155 19.6483 472.5626 21.5484 473.2332 23.3367 474.4627 24.678 476.1393 25.0133 473.7921 23.225 472.5626 20.3189 473.1215 18.6424 476.1393 20.3189 478.3747 22.1073 480.9454 23.1132 483.9633 23.4485 487.5399 23.0014 499.2759 19.8718 523.9773 11.0419 523.9773 11.7125 522.7479 11.8243 515.0356 14.7304 508.6647 18.5306 504.1938 20.5425 500.6172 23.0014 500.1701 23.225 499.0524 23.4485 498.3817 23.6721 495.2521 25.9075 493.7991 26.3546 490.446 26.6899 489.7754 27.0252 489.3283 27.0252 488.0988 29.0371 488.0988 29.7077 489.7754 30.1548 490.446 30.1548 490.8931 29.7077 491.4519 29.7077 492.7932 30.4901 495.1404 30.3783 497.3758 29.5959 498.3817 28.7018 499.1641 27.137 500.8407 27.584 502.5173 29.0371 503.5232 30.3783 504.0821 30.3783 504.6409 28.7018 505.8704 27.0252 507.4352 25.6839 508.6647 25.0133 509.4471 24.678 510.3413 25.1251 511.3472 25.7957 512.5767 26.3546 513.4708 26.2428 514.4768 26.0193 515.7063 25.9075 516.6004 26.3546 516.3769 26.4663 516.1534 26.4663 516.0416 26.5781 516.0416 27.0252 517.1593 27.3605 518.6123 26.9134 520.0653 26.0193 521.1831 25.0133 520.9595 24.9015 520.736 24.9015 520.6242 24.7898 520.6242 24.4545 520.9595 24.2309 520.9595 24.1191 520.9595 24.0074 521.1831 23.6721 523.9773 24.9015 524.5362 25.6839 525.3186 25.0133 525.8774 24.2309 526.8834 22.3308 526.3245 21.4366 526.6598 20.8778 528.0011 19.6483 528.2246 19.0894 528.1129 18.5306 528.1129 18.0835 528.56 17.6364 529.1188 17.5246 532.1366 17.7482 532.919 18.0835 534.2603 18.9777 534.4838 19.4248 534.4838 19.8718 534.5956 20.2072 535.378 20.3189 536.0486 20.2072 536.6075 19.6483 536.9428 19.0894 535.378 18.307 535.9369 17.9717 536.4957 17.7482 537.0546 17.86 535.378 15.6245 532.0249 13.0538 528.1129 11.3772 524.3127 11.2655 525.095 10.8184 527.2187 10.036 534.2603 8.9183 536.831 9.2536 544.5432 11.7125 555.2733 16.6305 557.6205 17.6364 561.0854 20.3189 569.6917 24.3427 572.486 25.0133 573.7155 25.0133 575.8392 24.9015 588.4693 21.3249 595.8462 16.9658 598.864 15.9598 602.1054 16.0716 604.7879 17.4129 606.0174 19.9836 606.3527 21.2131 609.0352 24.7898 610.1529 27.584 611.4942 29.2606 614.0649 31.6078 614.9591 32.0549 617.0827 32.502 617.1945 32.6138 618.0887 32.9491 620.1006 35.2963 620.6594 35.7433 621.7771 36.3022 625.1303 38.8729 626.0244 39.4318 623.4537 38.8729 615.1826 33.7315 615.6297 33.7315 616.0768 33.7315 616.3003 33.8432 616.8592 34.4021 616.7474 33.7315 616.3003 33.2844 615.7415 33.0608 614.0649 32.8373 613.6178 32.502 613.3943 32.0549 613.059 31.6078 610.8235 30.4901 609.9294 29.7077 609.5941 29.7077 608.9234 29.7077 608.6999 28.3664 608.141 27.2487 607.4704 26.3546 606.688 25.6839 607.8057 25.6839 608.8117 25.5722 604.6761 20.3189 603.782 18.7541 602.5525 17.1893 601.5465 16.6305 601.5465 16.9658 600.2053 16.4069 599.6464 16.7422 599.3111 17.6364 598.1934 16.9658 598.1934 17.3011 598.1934 17.9717 598.1934 18.307 597.8581 18.0835 597.2992 17.86 596.9639 17.6364 596.9639 18.4188 596.8521 18.9777 596.4051 19.6483 598.1934 19.6483 597.7463 20.766 598.9758 23.1132 598.7523 24.4545 599.3111 24.4545 599.3111 25.0133 598.7523 25.0133 598.864 25.4604 599.1993 25.9075 599.3111 26.3546 598.7523 26.3546 598.4169 25.2369 597.8581 24.3427 597.0757 23.7838 595.8462 23.6721 596.1815 23.0014 595.8462 22.8897 595.2873 23.4485 594.7285 25.0133 595.2873 25.1251 595.5109 25.0133 595.8462 24.4545 596.5168 24.9015 596.9639 25.0133 597.6345 25.0133 597.6345 25.6839 596.9639 25.6839 596.9639 26.3546 597.2992 27.0252 597.7463 27.3605 598.4169 27.584 599.3111 27.6958 598.7523 28.2547 597.8581 28.4782 597.0757 28.2547 596.4051 27.6958 595.8462 27.6958 595.958 28.1429 595.7344 28.2547 595.5109 28.2547 595.2873 28.3664 595.6227 28.7018 595.958 29.0371 596.4051 29.7077 595.2873 31.1607 595.0638 32.2784 595.8462 32.9491 597.6345 32.9491 597.6345 33.7315 596.5168 33.5079 595.6227 33.1726 594.8403 33.0608 594.1696 33.7315 593.6108 33.7315 593.0519 33.1726 592.4931 33.1726 592.046 33.7315 591.9342 34.7374 592.2695 35.1845 592.8284 35.6316 592.9402 35.9669 591.9342 36.414 591.9342 36.9728 592.3813 37.867 591.8224 38.2023 590.8165 38.5376 590.1459 39.0965 590.0341 40.4377 590.4812 41.3319 591.3754 41.5554 592.2695 41.1084 592.3813 41.1084 592.2695 40.8848 592.1578 40.8848 592.046 40.773 591.9342 40.4377 593.0519 40.8848 593.6108 41.1084 594.3932 41.1084 595.0638 41.5554 595.2873 42.4496 595.2873 43.232 595.6227 43.6791 596.5168 43.9026 597.8581 44.5733 599.0876 45.4674 599.87 46.3616 600.5406 44.7968 600.9877 44.1262 601.5465 43.6791 601.2112 44.5733 601.0994 45.2439 601.2112 45.691 601.5465 46.3616 600.4288 46.3616 600.4288 47.0322 601.5465 47.0322 601.323 47.2558 601.0994 47.4793 600.8759 47.7029 600.9877 48.3735 601.4348 48.3735 601.6583 48.1499 601.7701 47.9264 602.1054 47.7029 602.2172 47.8146 602.2172 48.0382 602.3289 48.2617 602.6642 48.3735 602.6642 47.7029 603.2231 47.7029 602.8878 49.0441 603.2231 49.9383 603.8937 49.9383 604.4526 48.3735 605.3468 48.2617 606.688 46.9205 608.2528 45.8028 610.1529 46.3616 608.9234 46.3616 608.9234 47.0322 610.1529 47.7029 610.3765 47.2558 610.9353 46.8087 611.2706 46.3616 612.5001 47.0322 612.5001 47.7029 612.1648 48.1499 611.9413 48.4853 611.8295 49.7147 612.7237 49.2677 613.059 49.0441 612.9472 49.9383 612.7237 50.3854 612.3883 50.8325 611.8295 51.056 611.8295 51.6149 612.3883 52.509 612.3883 53.515 610.7118 55.0798 610.7118 55.7504 611.6059 55.7504 612.2766 55.5268 612.8354 55.0798 613.059 54.4091 613.5061 54.4091 613.6178 55.4151 613.7296 55.6386 613.9531 56.1975 614.4002 56.7563 615.1826 57.0916 615.1826 57.7623 614.4002 57.9858 613.7296 58.3211 613.2825 58.88 613.059 59.7741 613.5061 59.8859 614.0649 60.4448 614.9591 59.8859 615.6297 59.7741 616.3003 59.9977 616.8592 60.4448 616.8592 61.0036 616.3003 61.0036 616.3003 61.786 617.1945 62.4567 618.2004 63.0155 619.3182 63.0155 620.3241 62.3449 620.3241 61.786 619.0946 61.6743 618.3122 61.1154 617.7534 60.1095 617.5298 59.1035 618.7593 59.3271 620.4359 60.2212 621.2183 60.333 621.5536 60.4448 620.8829 59.1035 622.2242 58.9917 622.6713 59.1035 622.6713 58.3211 622.2242 58.3211 622.2242 58.2094 622.2242 58.0976 622.1124 57.7623 622.2242 57.6505 623.2301 57.0916 623.2301 57.6505 623.4537 57.7623 623.9008 57.6505 624.3479 57.7623 624.0125 56.7563 624.6832 55.9739 625.5773 55.9739 626.4715 57.5387 627.5892 57.9858 628.8187 57.9858 630.0482 57.7623 632.0601 56.6446 632.9542 54.8562 632.7307 53.0679 631.1659 51.6149 633.1778 51.6149 633.2895 51.6149 633.5131 51.6149 633.8484 48.8206 633.9602 47.3675 633.5131 45.8028 632.0601 44.0144 631.8365 43.1202 632.9542 42.3378 631.613 41.6672 629.9364 40.9966 628.2598 40.773 627.1421 41.1084 626.5833 39.4318 627.5892 39.5436 628.7069 39.6553 630.7188 40.1024 634.4073 40.773 635.525 41.6672 635.9721 41.6672 636.978 41.779 637.2015 43.3438 637.9839 44.685 639.2134 45.4674 641.7842 46.1381 642.7901 47.0322 644.3549 49.0441 647.8198 52.509 649.3846 53.7385 651.7318 57.7623 653.9672 59.7741 656.4262 61.3389 659.3322 62.1213 659.444 62.2331 663.1325 62.3449 666.5974 61.8978 672.7448 60.2212 680.1217 56.6446 681.5747 55.5268 685.0396 53.7385 685.9338 53.0679 686.4926 53.0679 686.4926 53.7385 683.9219 54.8562 679.2275 58.3211 676.545 59.1035 671.9624 61.2272 664.809 63.0155 668.8328 63.0155 668.8328 63.6861 667.7151 64.3568 670.174 64.3568 671.18 64.0215 671.7388 63.0155 672.1859 63.0155 672.2977 63.6861 672.5212 63.6861 672.9683 63.6861 673.4154 63.6861 678.5569 60.4448 682.8042 59.1035 683.6983 58.3211 684.2572 58.3211 684.5925 58.88 685.7102 59.2153 685.4867 59.6624 684.8161 59.7741 684.8161 60.4448 685.7102 60.1095 687.7221 59.1035 687.7221 58.3211 685.3749 58.3211 685.3749 57.7623 686.4926 57.3152 687.9457 57.6505 689.1751 58.5447 689.9575 59.7741 690.1811 60.333 690.4046 61.2272 690.5164 61.786 689.3987 61.786 692.0812 62.792 693.4224 62.6802 694.5402 61.786 694.5402 61.0036 693.7578 60.5565 693.3107 60.4448 693.3107 59.7741 696.552 58.88 697.3344 58.3211 696.9991 57.6505 697.1109 56.9799 697.558 56.0857 697.8933 55.0798 697.3344 55.0798 696.8873 55.7504 695.099 57.0916 694.8755 57.427 694.5402 57.6505 694.5402 57.9858 695.099 58.3211 693.9813 58.6564 692.0812 58.5447 690.1811 58.3211 688.8398 57.7623 691.2988 57.5387 692.7518 55.9739 693.7578 54.0738 695.099 52.3972 696.105 51.9502 698.1168 51.5031 699.1228 51.056 700.6876 49.4912 701.6935 49.0441 703.1465 49.0441 703.1465 49.7147 700.7993 49.7147 700.7993 50.3854 701.8053 51.056 704.8231 55.0798 705.7173 56.7563 705.382 57.2034 704.2642 57.5387 703.1465 58.3211 703.0348 58.0976 703.0348 57.874 702.923 57.6505 702.4759 57.7623 702.4759 58.3211 703.9289 59.3271 704.5996 60.5565 704.5996 62.1213 703.7054 63.6861 706.6114 62.5684 708.1762 62.1213 709.2939 62.3449 709.8528 62.2331 710.2999 62.2331 710.9705 62.3449 710.9705 61.786 709.8528 61.0036 709.2939 61.0036 709.2939 61.786 708.8469 61.786 708.8469 61.0036 713.2059 59.3271 714.4354 58.3211 714.9943 58.3211 714.4354 59.1035 714.9943 59.7741 715.6649 59.2153 716.3355 59.1035 716.8944 59.5506 717.2297 60.4448 717.9003 60.4448 718.0121 59.5506 717.9003 58.6564 717.7886 58.4329 719.018 58.3211 718.2356 57.9858 717.4532 58.0976 716.6708 57.9858 715.6649 57.7623 724.7184 57.0916 724.0477 55.3033 725.0537 54.968 726.3949 54.8562 726.3949 53.0679 727.2891 53.515 727.6244 53.7385 728.1833 53.7385 729.301 53.515 732.5424 55.1915 734.1072 55.7504 740.2546 56.3092 741.8194 57.0916 741.8194 56.421 743.7195 56.9799 746.5138 56.7563 763.7265 52.2855 779.7098 45.9145 792.3399 37.6435 792.4517 37.6435 794.4636 41.3319 795.0224 42.8967 796.4755 47.5911 797.3696 50.2736 800.611 60.4448 803.1817 68.7158 806.4231 77.0987 810.6704 88.3876 815.8119 101.9119 817.6002 109.6241 817.8238 113.6479 818.2708 115.3244 819.6121 117.1128 820.3945 118.2305 820.3945 119.5717 819.6121 122.4778 819.5003 124.1543 819.6121 125.2721 820.171 126.1662 824.7536 130.19 825.6477 131.5312 828.442 139.467 833.36 153.6619 836.6013 162.9389 836.8249 163.4978 836.9366 164.0567 837.0484 164.6155 836.9366 165.2861 837.4955 170.4276 841.1839 180.487 844.4253 189.5405 846.549 199.3763 846.4372 205.9708 846.996 208.318 848.8961 212.23 849.5668 213.5713 848.6726 214.1301 847.8902 214.689 847.3314 215.3596 846.7725 216.2538 846.3254 217.3715 845.9901 218.2657 845.543 219.0481 844.5371 219.4952 844.7606 219.6069 844.9842 219.6069 845.0959 219.7187 845.0959 220.1658 844.4253 220.5011 843.8664 221.06 843.6429 221.6188 843.9782 222.1777 843.1958 222.2894 842.7487 222.513 842.8605 222.9601 843.4194 223.4072 842.4134 224.3013 840.5133 227.3191 840.0662 227.7662 839.1721 228.2133 838.8367 228.5486 838.5014 229.2193 838.1661 229.7781 837.8308 230.2252 837.0484 230.6723 837.0484 231.2311 837.8308 232.5724 837.4955 233.9136 836.9366 235.2549 836.4895 236.4844 836.4895 241.4023 836.0425 242.52 835.0365 243.4142 834.0306 244.0848 833.5835 244.6437 833.5835 245.9849 833.2482 247.5497 832.6893 249.0028 831.9069 250.2322 832.1305 251.3499 831.9069 257.0503 832.1305 257.9444 832.9129 259.1739 833.1364 260.2916 832.9129 261.4094 832.2422 261.9682 831.4598 262.1917 829.6715 263.4212 829.3362 263.9801 829.1127 265.2096 829.1127 265.7684 829.5597 267.6685 829.6715 273.3689 827.4361 275.0454 827.4361 275.6043 827.6596 276.4985 827.8832 277.7279 827.8832 279.0692 827.4361 280.1869 827.7714 280.634 827.9949 280.9693 828.5538 282.087 827.7714 282.6459 827.6596 283.2047 827.7714 283.7636 827.9949 284.4342 827.7714 285.4402 827.4361 286.1108 826.989 286.5579 826.7655 287.005 826.3184 288.6815 824.4183 291.4758 823.3006 295.8349 819.9474 300.8646 818.8297 303.6589 818.7179 303.8824 818.8297 304.1059 818.7179 304.2177 818.2708 304.2177 819.3886 307.1238 818.3826 308.9121 816.4825 310.3651 814.8059 312.0417 815.0295 312.2652 815.1413 312.2652 815.3648 312.7123 814.2471 313.2712 813.5765 314.5007 812.7941 318.748 812.4587 319.7539 811.5646 321.3187 811.341 321.4305 811.1175 322.4364 809.888 324.7836 809.6645 326.0131 809.7762 327.5779 809.9998 328.8074 810.3351 329.8133 810.7822 330.8193 810.7822 331.4899 810.1116 333.0547 810.8939 334.3959 811.8999 335.7372 812.6823 337.302 813.4647 337.9726 813.6882 338.5315 813.6882 339.2021 813.4647 339.6492 813.2411 339.8727 813.1294 340.208 813.0176 341.4375 812.347 344.6789 811.341 347.3614 812.7941 349.9321 811.341 356.6384 812.0117 357.309 809.7762 357.6443 809.1056 357.9796 808.8821 358.5385 808.6585 359.4327 808.2114 360.2151 807.2055 360.8857 806.6466 362.227 805.976 362.5623 805.3054 362.5623 804.1877 363.0094 803.4053 363.1211 803.5171 363.4564 803.5171 363.5682 803.6288 363.5682 803.9641 363.7917 803.4053 365.2448 802.5111 368.0391 801.7287 368.9332 801.1699 368.9332 800.8345 368.4861 800.1639 368.2626 799.6051 367.8155 799.0462 368.3744 798.4873 370.498 797.705 371.504 798.3756 372.7334 797.3696 373.7394 795.6931 374.41 794.5754 374.6336 793.793 374.6336 793.5694 374.6336 793.9047 376.0866 794.24 376.6454 797.2579 376.7572 797.2579 377.3161 796.5872 377.3161 796.5872 377.9867 797.0343 378.322 797.2579 378.7691 797.705 379.8868 796.9226 379.4397 796.5872 379.2162 796.699 379.5515 796.699 379.775 796.8108 379.8868 797.2579 379.8868 797.2579 380.5574 796.5872 380.5574 796.1402 379.775 794.6871 377.7631 793.1223 376.0866 792.4517 375.5277 791.5575 375.0806 790.3281 374.6336 782.2805 373.8512 780.3804 372.5099 774.7919 365.6919 774.3448 365.3565 773.6741 365.4683 768.868 361.1092 767.862 360.5504 766.7443 360.4386 765.7384 361.221 764.6207 358.6503 764.0618 359.2091 763.2794 358.315 760.3734 355.856 759.7028 355.5207 759.4792 355.4089 759.1439 354.9618 758.9204 354.1794 758.585 353.8441 758.0262 353.2853 757.4673 353.0617 756.1261 352.7264 756.1261 350.3792 752.2141 347.9202 752.1023 346.2437 750.9846 345.2377 749.5316 343.3376 748.5256 341.214 748.7492 339.8727 748.3021 339.5374 747.9668 339.4256 747.7432 339.0903 747.5197 338.5315 746.9608 338.5315 746.9608 339.2021 746.402 339.2021 746.1784 338.755 745.396 337.9726 745.2843 337.6373 744.0548 333.0547 743.6077 332.2723 742.9371 332.7194 742.3782 331.4899 740.3663 328.5838 739.5839 327.019 728.7421 320.4245 728.1833 319.4186 727.848 319.3068 725.8361 315.8419 724.2713 314.3889 723.2653 313.2712 723.2653 312.7123 718.0121 308.8003 717.1179 307.9062 716.7826 307.1238 716.4473 306.3414 715.7767 305.2237 714.8825 304.1059 713.8766 303.6589 714.4354 302.8765 714.4354 303.6589 714.9943 303.6589 714.4354 300.5293 713.0942 300.3057 712.3118 301.5352 713.8766 302.8765 712.5353 302.4294 711.6411 301.1999 711.1941 299.5233 710.8587 295.7231 710.2999 294.0465 708.8469 291.2523 709.6293 289.3521 710.747 284.9931 711.5294 282.7576 710.5234 281.5282 710.0763 280.7458 709.6293 278.8457 709.0704 278.3986 708.288 278.175 707.6174 277.6162 707.1703 275.8278 706.835 271.5805 706.4997 270.351 706.4997 269.7922 707.2821 268.898 707.3938 268.1156 707.0585 265.8802 706.835 265.4331 706.4997 264.0919 706.3879 262.6388 706.835 261.9682 707.3938 261.2976 706.835 260.0681 705.829 258.9504 705.382 259.0622 705.1584 258.0562 704.7113 257.2738 703.9289 257.0503 703.1465 257.3856 702.2524 256.2679 700.0169 255.0384 699.1228 254.1442 698.1168 251.797 697.8933 251.2382 697.6697 250.6793 696.4403 249.6734 696.2167 249.2263 695.8814 249.1145 694.5402 246.9909 694.3166 246.7673 693.646 246.432 693.3107 246.3202 693.1989 245.9849 692.9754 245.2025 692.8636 244.979 689.0634 241.067 687.7221 240.6199 685.9338 239.614 684.1454 238.3845 683.0277 237.155 682.5806 235.702 682.2453 233.6901 681.6865 232.0135 680.5688 231.2311 679.7864 231.0076 679.2275 230.2252 677.5509 226.0897 677.4392 226.0897 677.6627 222.513 677.3274 220.8364 675.092 219.8305 671.0682 216.8127 671.7388 216.8127 671.4035 216.142 671.0682 215.8067 670.6211 215.6949 669.9505 215.5832 670.174 215.3596 670.3976 215.1361 670.6211 214.8008 670.5094 214.2419 669.9505 214.2419 669.6152 215.0243 669.3916 215.8067 669.5034 216.3656 669.9505 216.8127 668.8328 216.8127 669.5034 213.3477 669.6152 208.8769 668.6092 204.9649 666.0385 203.0648 666.0385 202.5059 666.4856 201.3882 666.4856 200.047 666.1503 198.5939 666.0385 197.2527 666.262 195.7997 666.9327 193.8996 667.1562 192.8936 667.0444 191.3288 666.8209 190.3229 666.4856 189.5405 666.0385 188.6463 664.0266 186.0756 663.6913 185.0696 663.356 184.399 661.4559 182.4989 659.6675 181.6047 660.1146 180.7106 661.0088 179.8164 661.4559 179.4811 661.4559 176.7986 660.3382 174.8985 656.985 171.5453 657.6557 171.0982 657.991 170.6512 657.8792 170.2041 657.4321 169.6452 657.8792 169.4217 658.1028 169.3099 657.8792 169.0864 657.4321 168.9746 657.0968 168.4157 656.7615 167.8569 656.3144 167.4098 656.0909 166.9627 656.2026 166.7392 656.4262 166.5156 656.7615 166.4039 657.4321 166.2921 657.4321 165.7332 657.2086 165.0626 657.2086 164.5037 657.4321 163.6096 656.985 163.6096 655.8673 165.9568 655.7556 166.9627 655.9791 167.7451 656.4262 168.304 656.8733 168.9746 656.985 170.2041 656.3144 170.2041 656.0909 168.9746 655.4202 168.4157 654.5261 168.304 653.5201 168.9746 652.0671 168.4157 650.5023 169.4217 649.0493 171.21 648.2669 172.8866 648.2669 174.6749 648.714 176.0162 649.9435 177.0221 651.7318 177.4692 650.2788 178.6987 643.349 188.5345 642.9019 189.3169 642.1195 190.2111 639.6605 194.682 639.2134 196.2468 639.1017 200.1587 638.6546 201.7235 637.4251 203.0648 637.4251 203.8472 638.3193 204.5178 639.3252 205.8591 640.1076 207.2003 640.7782 209.2122 641.6724 210.2182 645.9197 213.0124 646.9256 213.9066 650.7259 218.3774 653.4084 219.9422 655.7556 222.4012 657.7674 225.1955 658.5498 226.9838 658.8851 229.331 659.7793 232.5724 660.897 235.4784 662.0147 237.155 662.0147 237.8256 661.6794 239.5022 664.0266 248.891 664.2502 249.7851 664.2502 251.9088 663.8031 252.6912 663.0207 253.3618 662.5736 254.4795 661.6794 254.9266 661.3441 255.709 662.0147 256.715 661.5677 259.621 661.4559 262.9741 662.0147 263.9801 664.4737 266.6626 665.3679 267.7803 665.7032 268.7862 665.7032 270.6864 666.0385 271.6923 667.9386 273.816 668.2739 274.0395 671.7388 278.8457 674.6449 279.4045 676.545 281.4164 677.6627 284.3224 681.3512 298.4056 681.6865 300.3057 682.5806 300.641 686.4926 302.8765 688.5045 304.8883 689.5105 306.1178 690.2928 307.7944 691.187 308.1297 692.0812 308.3532 692.8636 308.8003 693.0871 309.3592 693.646 311.2593 696.105 315.9537 696.7756 316.6243 696.8873 317.0714 696.6638 317.1832 696.4403 317.0714 696.2167 317.1832 699.9052 320.201 701.47 322.2129 701.3582 324.3365 702.0288 324.7836 702.5877 325.9013 702.923 327.019 703.1465 327.9132 703.4818 328.2485 705.382 330.8193 709.2939 335.0666 710.1881 337.0784 711.0823 337.6373 711.9765 337.9726 712.7589 338.5315 713.0942 339.7609 713.0942 340.8787 713.3177 341.5493 714.7707 341.7728 716.112 342.5552 718.9063 345.9084 720.6946 347.0261 720.5828 347.5849 720.6946 348.3673 720.6946 348.9262 720.5828 349.7086 721.1417 350.2674 722.1476 350.491 723.0418 350.2674 723.7124 351.6087 725.6125 352.5029 729.301 353.5088 735.2249 358.8738 737.125 362.8976 738.1309 363.7917 738.6898 364.7977 740.4781 369.1568 740.7017 370.2745 740.7017 370.8333 741.1487 371.504 741.484 373.4041 741.8194 374.0747 741.8194 374.6336 741.2605 374.6336 740.1428 374.6336 739.2486 372.6217 737.2367 371.3922 735.0013 370.6098 733.3248 369.4921 732.7659 369.4921 732.207 370.8333 731.9835 371.7275 732.0953 372.3981 732.7659 373.4041 734.3307 375.0806 735.2249 376.1983 735.5602 377.6514 736.119 378.4338 737.2367 377.9867 738.4662 377.4278 739.0251 377.6514 738.9133 378.8809 738.578 380.2221 738.0191 381.5634 737.2367 382.4575 737.5721 382.7928 738.0191 383.4635 738.3545 383.687 739.9193 384.8047 740.4781 385.0283 740.7017 385.3636 741.484 387.1519 741.8194 387.599 741.8194 388.2696 740.9252 387.4872 739.0251 385.0283 738.3545 385.0283 738.3545 385.6989 738.6898 386.2578 739.0251 387.0402 738.3545 387.0402 737.9074 385.2518 736.4543 385.3636 734.7778 386.7048 733.8836 388.2696 735.7837 389.2756 737.2367 391.1757 739.5839 395.3112 739.2486 395.9818 739.0251 396.6525 738.9133 397.5466 739.0251 398.5526 740.3663 399.6703 744.0548 401.2351 745.2843 402.4646 745.5078 403.247 745.6196 405.3706 745.8431 406.2648 746.402 407.0472 747.855 408.612 748.4139 409.5062 748.9727 411.4063 749.5316 415.5418 750.0904 416.8831 752.8847 419.4538 756.1261 421.6892 759.591 423.3658 761.2675 424.5953 762.3853 426.1601 762.497 427.166 762.3853 430.7427 762.1617 430.9662 761.3793 431.6369 761.2675 431.9722 761.2675 432.531 761.7146 433.3134 761.8264 433.8723 761.8264 435.9959 762.1617 437.5607 763.0559 438.7902 764.6207 439.9079 766.0737 441.2492 767.6385 443.3728 768.1974 444.9376 766.9679 444.7141 766.9679 446.2789 767.5267 447.5084 769.2033 449.8556 769.9857 451.3086 770.9916 453.9911 771.774 455.3323 772.78 456.1147 774.0095 456.7854 775.0154 457.456 775.4625 458.4619 776.0213 461.4798 776.1331 462.9328 775.4625 463.9387 774.1212 464.0505 773.2271 463.1563 772.4447 462.821 771.5505 464.6094 771.327 465.8388 771.327 467.5154 771.4387 469.192 771.774 470.4215 771.774 472.7686 770.2092 478.469 770.8799 481.1515 772.1094 482.1574 774.7919 482.9398 776.1331 483.7222 776.9155 485.0635 777.8097 487.9695 780.4922 491.5462 781.7217 494.0052 784.516 502.2762 785.7454 504.7352 787.422 507.3059 788.5397 509.6531 790.5516 512.671 797.5932 528.8778 800.8345 533.6839 803.9641 541.6197 810.5586 550.7849 811.1175 552.0144 812.0117 554.5851 817.6002 562.968 820.618 566.3211 821.2887 567.2153 828.5538 581.6338 829.6715 585.9928 831.6834 589.9048 832.5776 594.5992 834.0306 597.17 837.6073 601.7526 838.1661 602.8703 838.9485 605.5528 839.5074 606.7823 841.9663 610.6943 842.9723 614.6063 846.7725 621.3125 853.9259 633.7191 854.2612 636.6252 855.1553 639.1959 856.4966 640.7607 858.1732 642.7726 858.3967 644.4492 858.5085 647.8023 858.732 649.5906 859.1791 650.9319 859.8497 651.9378 860.8557 652.832 862.1969 653.6144 864.3206 655.6263 865.7736 658.3088 867.6737 665.4622 868.1208 666.6916 869.5738 669.0388 871.1386 671.9449 872.3681 673.0626 872.3681 674.5156 871.0268 677.3099 871.0268 679.7689 874.4917 681.1101 878.6273 688.9341 889.8044 697.5405 891.5927 699.6641 894.7223 708.4941 896.9578 710.953 900.0873 715.5356 901.5404 715.3121 900.8697 714.0826 900.0873 712.8531 900.9815 712.6296 902.6581 714.4179 905.0053 715.4239 908.0231 718.5535 909.1408 721.1242 909.3644 723.8067 911.9351 725.2597 914.5058 724.8127 916.5177 725.3715 918.7531 726.0421 920.4297 726.9363 921.771 728.2776 923.4475 732.4131 925.0123 734.3132 924.4535 735.2074 923.1122 733.419 921.4356 731.6307 920.2062 731.5189 917.1883 732.9719 915.9589 733.5308 914.2823 732.8602 912.7175 732.3013 911.1527 731.966 910.035 732.0778 908.8055 731.8542 907.2407 731.2954 906.6818 730.513 905.7877 729.3953 904.8935 729.06 904.7817 728.6129 903.5523 728.054 901.7639 727.6069 900.9815 728.1658 899.8638 730.2894 899.305 732.9719 899.8638 737.331 899.0814 741.1312 898.5226 743.8138 899.1932 746.1609 900.758 746.4963 901.4286 747.614 901.4286 748.9552 901.0933 749.6259 901.2051 751.1906 901.3168 752.1966 901.4286 754.2085 901.0933 758.0087 900.9815 765.8327 900.758 767.2857 899.9756 769.8564 899.752 771.1977 900.0873 772.5389 900.8697 773.8802 902.6581 776.4509 904.1111 779.1334 904.5582 780.5865 904.8935 782.0395 904.7817 786.2868 905.4524 790.6459 906.2348 793.999 906.7936 797.0168 910.7056 803.6113ZM847.5549 845.0784L840.5133 861.397 844.7606 851.6729 847.5549 845.0784ZM832.5776 879.504L811.0057 883.863 788.0926 889.0045 802.5111 885.9867 817.6002 882.7453 832.5776 879.504ZM772.1094 468.4096L773.3388 468.4096 773.7859 468.4096 775.4625 471.9862 776.0213 473.8864 776.1331 476.01 774.9036 474.8923 774.3448 473.6628 772.1094 468.4096ZM776.3567 401.1233L778.145 401.9057 778.7039 403.4705 779.0392 405.1471 780.0451 406.2648 780.0451 406.8237 779.4862 406.8237 778.3685 406.6001 776.9155 404.8118 776.3567 404.2529 774.5683 403.6941 773.7859 403.247 773.0035 402.241 772.2211 401.6822 770.321 402.5763 769.5386 401.9057 768.9798 400.788 768.6444 399.7821 769.0915 399.2232 769.6504 398.7761 770.2092 398.6644 770.8799 398.5526 772.78 398.8879 773.4506 399.2232 774.233 399.7821 774.9036 400.3409 775.2389 400.6762 776.3567 401.1233ZM824.53 359.2091L825.8713 360.4386 827.4361 361.7799 827.4361 362.5623 824.1947 362.7858 821.2887 362.5623 818.9415 361.5563 817.2649 359.4327 817.1531 359.2091 817.2649 357.9796 816.9296 356.1913 816.4825 355.4089 816.8178 354.9618 816.9296 354.8501 817.1531 355.4089 817.3767 354.6265 817.8238 354.0677 818.2708 353.7323 818.8297 353.5088 820.2827 354.2912 820.7298 354.7383 821.0651 355.4089 818.9415 355.856 817.9355 356.3031 817.712 357.309 818.0473 357.7561 818.3826 358.0914 819.8356 358.2032 822.1828 357.8679 823.3006 357.4208 823.4123 357.6443 823.6359 357.6443 824.0829 358.315 824.4183 358.9856 824.53 359.2091ZM690.8517 60.2212L690.5164 59.7741 690.0693 59.7741 690.6282 59.3271 691.187 59.4388 691.5223 59.9977 691.7459 61.0036 690.8517 60.2212ZM723.8242 49.7147L726.3949 50.2736 728.6304 51.3913 732.207 54.4091 730.4187 53.0679 717.4532 47.4793 714.9943 47.0322 717.6768 47.144 721.9241 49.1559 723.8242 49.7147ZM699.1228 46.0263L701.3582 44.7968 714.4354 46.3616 713.8766 46.8087 712.8706 46.8087 710.2999 46.3616 707.8409 46.0263 705.382 45.5792 702.4759 46.3616 701.1347 46.1381 698.8992 46.9205 688.9516 52.2855 687.1633 53.7385 688.1692 52.2855 690.0693 51.3913 691.6341 50.4971 692.7518 49.8265 693.8695 49.0441 698.1168 47.0322 699.1228 46.0263ZM836.7131 359.0974L836.7131 362.674 834.4777 363.68 832.4658 363.0094 830.901 361.5563 832.5776 358.8738 836.7131 359.0974Z" />
</svg>