<?xml version="1.0" encoding="utf-8"?>
<svg xmlns="http://www.w3.org/2000/svg" viewBox="0 0 1021 921" style="stroke-width:0.25px;stroke-linejoin:round;stroke:#444;fill:#ddd" fill-rule="evenodd">
  <path class="EH" d="M1016.8882 4.1942L1016.8882 17.0479 1016.8882 29.7898 1016.8882 42.5317 1016.8882 55.3854 1016.8882 57.1737 1016.8882 62.5387 1016.8882 70.698 1016.8882 81.3163 1016.8882 93.9464 1016.8882 107.9178 1017 122.8952 1017 138.4314 1017 153.8558 1017 168.7213 1017 182.6927 1017 195.2111 1017 205.7176 1017 213.8769 1017 219.1301 1017 221.0303 1017 227.0659 1016.2176 228.8542 1013.8704 229.5249 1003.5875 229.5249 991.5162 229.5249 979.3331 229.5249 967.1501 229.5249 955.0788 229.5249 942.8957 229.5249 930.7127 229.5249 918.5296 229.5249 906.4583 229.5249 894.2752 229.5249 882.0922 229.5249 870.0209 229.5249 857.8378 229.5249 845.6548 229.5249 833.4717 229.5249 821.4004 229.5249 809.2174 229.5249 797.0343 229.5249 784.963 229.5249 772.78 229.5249 760.5969 229.5249 748.5256 229.5249 736.3426 229.5249 724.1595 229.5249 712.0882 229.5249 699.9052 229.5249 687.7221 229.5249 675.5391 229.5249 663.4678 229.5249 651.2847 229.5249 639.1017 229.5249 627.0304 229.5249 614.8473 229.5249 614.8473 239.696 614.8473 249.7554 614.8473 259.9266 614.8473 269.986 614.8473 280.1572 614.8473 290.2166 614.8473 300.3878 614.8473 310.4472 614.8473 320.5066 614.8473 330.6778 614.8473 340.7372 614.8473 350.7966 614.8473 360.856 614.8473 370.9154 614.8473 380.9748 614.8473 391.0342 614.8473 400.9818 614.8473 411.0413 614.8473 421.1007 614.8473 431.1601 614.8473 441.1077 614.8473 451.1671 614.8473 461.1147 614.8473 471.1741 614.8473 481.1218 614.8473 491.0694 614.8473 501.1288 614.8473 511.0765 614.8473 521.0241 614.8473 530.9717 614.8473 541.0311 614.8473 550.9788 614.8473 561.597 614.4002 566.0679 612.7237 568.1915 600.4288 571.5447 574.0508 584.2866 569.6917 585.5161 549.3494 588.5339 541.9725 590.9928 534.3721 596.2461 521.4066 605.2996 506.3175 615.8061 494.2462 624.1889 491.899 627.2067 481.6161 641.8487 477.7041 650.1198 476.1393 658.9497 477.3688 667.3326 483.1809 684.0982 484.8574 692.5928 486.7575 725.1183 488.7694 757.7554 492.2343 811.4056 492.905 822.6945 494.2462 843.5957 476.5864 843.5957 471.5567 843.5957 457.4735 843.5957 435.5663 843.5957 407.1765 843.7075 373.5333 843.7075 339.7784 843.7075 336.09 843.7075 295.9641 843.7075 254.497 843.7075 213.1417 843.7075 173.0158 843.7075 135.5725 843.7075 101.9294 843.7075 73.5395 843.7075 51.6323 843.7075 37.5492 843.7075 32.5195 843.7075 18.5481 843.7075 17.4304 844.8252 15.3067 856.0023 12.9595 868.4089 7.818 883.2745 7.0356 887.2982 4.2414 899.146 3.7943 902.9462 6.7003 916.8058 5.3591 913.5645 1.4471 907.7524 1 904.511 1.3353 902.7227 2.453 899.7048 2.6766 897.9165 2.6766 891.6573 3.1237 889.4219 5.3591 882.8274 10.3888 844.2663 11.5065 839.5719 11.73 837.6718 11.9536 832.4186 19.554 831.1891 46.1556 825.9359 64.2625 824.5946 111.3182 824.5946 129.3133 822.0239 143.8436 822.0239 164.4095 823.3651 181.2869 825.9359 199.3938 828.5066 219.848 828.5066 236.7254 829.7361 258.409 829.7361 274.1688 828.5066 285.0106 822.0239 294.6229 809.1702 298.1996 798.7755 301.888 789.6102 300.6585 780.445 299.429 775.3035 305.4647 768.8208 312.7298 758.4261 319.9949 751.9433 322.3421 746.6901 329.6073 741.4369 337.9901 732.2716 342.908 725.7889 348.8319 716.8472 350.0614 708.9114 352.5204 698.405 352.5204 680.1862 354.9793 658.0556 358.556 643.5253 360.9032 631.7893 363.3622 613.4589 370.6273 581.9394 372.9745 572.7741 377.8924 558.3557 383.8163 545.0549 388.7342 535.8897 394.7699 527.9539 403.1527 522.7007 416.4535 517.4474 426.0658 512.1942 438.1371 506.8292 448.9789 502.9172 458.703 497.5521 462.2796 492.4107 468.3153 483.1337 476.6981 466.0327 481.6161 455.4144 488.7694 442.1136 497.264 432.8366 502.5173 429.26 506.8763 426.2421 517.8299 419.5359 531.0189 411.6001 540.743 405.0056 549.1259 398.2993 556.391 393.1579 564.7738 385.1103 568.4623 378.4041 573.2684 366.4446 579.3041 347.7788 584.1102 327.8835 588.9164 306.4234 592.4931 293.1227 596.1815 277.1394 600.9877 264.9563 604.5644 251.6556 607.0233 246.1788 607.0233 239.5843 609.4823 230.0837 609.9294 229.4131 613.059 224.7187 621.5536 222.148 631.1659 219.3537 646.3668 217.23 650.8376 214.8828 653.073 207.0589 654.8614 200.2408 660.5617 189.1755 666.9327 180.3455 670.7329 174.9805 675.6508 165.5917 680.6805 158.8855 689.1751 150.3909 696.6638 143.6846 699.2345 136.7548 699.2345 128.5955 693.8695 122.001 690.0693 109.9297 705.6055 106.2413 719.2416 102.1057 731.76 98.082 746.7373 92.7169 757.9144 92.7169 766.6326 91.3757 779.1509 94.0582 791.5575 95.3994 800.2757 99.4232 815.253 107.4707 827.7714 112.9475 835.1483 112.9475 843.1958 110.265 850.0139 106.4648 854.1494 106.2413 860.2968 108.9238 870.0209 114.4006 879.9685 114.4006 889.9162 112.9475 897.4048 106.2413 909.9232 95.3994 919.8708 87.2402 928.8125 82.0987 936.0777 80.7574 944.237 80.7574 953.514 80.5339 968.4913 81.8751 978.4389 81.8751 992.075 79.975 1003.3639 77.7396 1008.3936 73.6041 1008.3936 68.2391 1005.9347 60.1915 1003.1404 52.3675 1002.4697 45.2142 1004.1463 37.6138 1005.9347 31.5781 1004.7052 22.0776 1001.1285 10.7887 1000.4579 4.5295 1000.5696 4.1942 1000.6814 4.1942 1008.3936 4.1942 1016.8882 4.1942Z" />
</svg>