<?xml version="1.0" encoding="utf-8"?>
<svg xmlns="http://www.w3.org/2000/svg" viewBox="0 0 1021 896" style="stroke-width:0.25px;stroke-linejoin:round;stroke:#444;fill:#ddd" fill-rule="evenodd">
  <path class="ER" d="M1016.1058 837.6343L983.1333 851.8293 981.5685 852.0528 979.6684 850.488 978.3272 850.3762 975.8682 852.6117 972.2915 860.9945 965.697 867.2537 966.2559 871.9481 967.5971 876.7542 966.8147 881.0015 964.9146 882.0075 960.332 882.7899 959.1025 884.2429 956.9789 887.2607 952.1727 888.602 951.5021 888.7138 949.4902 891.7316 925.6829 870.495 918.7531 867.3655 914.6176 866.3595 911.9351 866.8066 904.1111 875.1894 896.9578 867.589 884.5512 850.7116 874.7153 833.7223 867.4502 827.4631 858.9556 822.657 850.3492 819.0803 838.5014 811.4799 830.5657 800.3028 818.8297 774.5954 814.0235 766.5479 808.7703 759.7298 802.9582 753.5824 791.334 743.9701 775.4625 730.8928 749.0845 713.9036 728.6304 700.8264 724.0477 696.2438 713.3177 677.1309 701.5817 656.1179 685.4867 637.7875 669.6152 619.6805 660.4499 613.086 650.167 609.174 636.4191 607.1622 632.1718 605.8209 616.0768 597.9969 607.2469 593.4143 596.9639 583.802 585.3397 572.9602 579.3041 569.3835 572.8213 566.701 559.1853 563.3479 556.5028 563.3479 549.0141 565.5833 546.7787 565.695 543.3138 565.0244 540.2959 564.4656 537.5017 565.1362 532.8073 569.16 529.7894 570.0541 526.9952 569.4953 524.648 568.3776 516.7122 561.4477 512.4649 558.7652 507.9941 557.3122 503.1879 557.424 501.2878 557.7593 494.4697 558.877 490.3342 558.5417 482.622 556.1945 481.7278 555.7474 480.8337 554.8532 477.7041 551.053 475.3569 549.1529 472.3391 547.3646 469.7683 547.3646 468.5388 550.4942 465.8563 554.1826 459.7089 557.2004 447.3023 560.6653 444.3963 560.8889 436.1252 559.5476 432.4367 560.1065 430.3131 562.0066 427.0717 567.3716 423.2715 567.3716 420.1419 561.5595 415.6711 548.5941 413.6592 545.2409 410.9767 541.9996 407.9589 539.2053 404.6057 537.0816 403.1527 536.5228 398.7936 535.5168 393.3168 534.8462 393.0933 534.2873 391.1932 536.1875 390.9696 538.87 391.1932 541.776 390.7461 544.6821 388.6224 547.4763 385.4928 549.4882 379.1219 552.3943 374.204 556.9769 371.2979 558.9888 364.5916 559.6594 355.5382 563.4596 352.6321 564.1303 349.8378 564.3538 347.1553 564.1303 344.3611 563.1243 341.3432 563.0125 331.9545 567.9305 326.3659 569.4953 314.7417 570.8365 307.253 570.7248 306.0235 571.0601 304.6823 570.9483 302.8939 569.4953 301.9998 568.154 300.9938 564.8009 299.7644 563.5714 291.7168 559.1006 289.2579 557.3122 287.5813 554.965 286.24 552.1707 284.8988 546.2469 283.8928 544.235 282.3281 543.0055 280.5397 542.1113 279.0867 540.6583 278.3043 539.2053 277.6337 534.8462 277.2983 534.0638 276.2924 531.7166 274.8394 529.8165 272.4922 528.9223 268.8037 528.6988 260.1974 530.1518 257.5149 529.593 240.9727 522.8867 239.7432 521.769 238.9608 520.316 238.8491 518.8629 238.5138 517.6334 236.949 516.5157 235.2724 516.2922 234.6018 515.5098 234.2664 514.5039 233.7076 513.2744 233.5958 512.8273 233.7076 511.1507 233.5958 510.4801 233.037 510.033 231.5839 509.8095 230.9133 509.2506 228.0073 503.5503 226.2189 500.8678 223.5364 498.5206 217.389 513.4979 207.4414 537.3052 197.7173 560.8889 188.2167 583.802 179.4986 604.815 174.0218 618.004 172.3452 619.7923 169.5509 618.004 167.9861 616.1039 167.3155 613.5331 167.092 609.5094 166.6449 608.0563 165.5272 606.8268 163.9624 606.0444 162.3976 605.7091 160.4975 605.0385 159.4915 603.2502 158.8209 599.3382 157.7032 596.4321 157.0326 595.538 150.8851 590.2847 148.6497 589.0552 148.2026 587.3787 148.3144 583.802 148.0909 581.4548 147.532 580.2253 145.1848 577.8781 139.4845 569.4953 136.5784 567.8187 132.89 564.6891 130.7663 565.0244 127.525 566.1421 116.2361 565.9186 111.0946 567.1481 106.7355 570.3894 104.3883 573.7426 103.1589 576.8722 102.7118 580.1135 102.6 583.802 102.1529 587.0433 101.0352 589.7259 99.3586 591.626 97.4585 592.9672 96.3408 593.1908 93.5465 592.8554 92.3171 592.9672 90.0816 594.7556 89.1875 595.0909 87.6227 594.9791 86.3932 594.532 85.1637 593.8614 83.9342 592.9672 81.2517 589.167 80.3575 588.6081 75.3278 587.9375 65.3802 584.9197 60.4623 584.2491 50.1793 584.2491 48.7263 584.6961 46.2673 586.1492 44.9261 586.4845 38.108 586.4845 35.0902 587.0433 30.3958 589.2788 28.2722 589.7259 25.0308 589.8376 22.4601 590.3965 20.56 591.9613 19.4422 595.0909 16.5362 594.9791 13.1831 566.2539 10.8359 546.8057 8.6004 527.134 6.8121 511.9331 5.8062 503.3267 2.6766 476.9487 1 462.0832 1.2235 458.6183 2.3413 455.9358 13.5184 444.9822 16.3127 440.6231 24.0249 417.8218 26.9309 412.9039 31.9606 409.5507 29.837 402.7327 30.1723 396.0264 38.4433 365.8482 40.3435 362.3833 47.8321 354.5593 51.8559 347.853 59.121 327.0636 66.0508 307.3919 71.0805 293.0851 73.5395 288.9496 79.9105 282.3551 81.3635 278.3314 81.0282 274.8664 78.2339 268.4955 77.4515 265.1424 77.675 261.7892 78.2339 258.9949 78.3457 256.2007 77.3397 253.4064 77.1162 252.9593 74.9925 250.0532 72.6453 247.5943 70.6334 244.8 69.6275 241.1116 69.7393 238.8761 71.6394 232.6169 72.0865 229.5991 71.7512 224.3459 71.9747 221.5516 73.4277 218.6455 75.6631 216.5219 80.6928 212.8334 82.3694 210.7098 86.0579 201.2092 86.6167 191.7087 86.952 191.0381 88.0697 189.6968 88.2933 189.0262 88.1815 188.132 87.2873 186.679 87.0638 186.1201 87.2873 179.7492 86.952 177.7373 85.6108 175.8372 84.046 174.2724 83.4871 172.484 87.1756 167.2308 87.958 164.1012 87.3991 161.0834 84.3813 156.8361 84.046 155.4948 84.2695 154.1536 84.3813 154.1536 85.3872 152.9241 88.4051 152.5888 90.864 153.5947 93.0994 155.1595 95.782 156.2772 99.6939 156.9479 101.2587 157.6185 107.1826 161.1952 108.6356 161.4187 116.9067 160.0774 119.1421 160.4128 123.7248 160.1892 130.9899 155.6066 135.349 155.2713 149.5439 159.295 158.0385 149.0121 159.3798 145.8825 160.0504 142.3058 163.4035 136.382 164.2977 133.1406 165.0801 126.4343 164.8565 123.64 163.18 116.2631 163.6271 114.4748 165.1919 113.4689 185.3107 107.2097 191.4581 106.3155 197.6055 103.0741 204.2 91.1146 209.4532 88.3204 212.5828 89.1028 217.1655 93.5736 220.6304 94.5795 224.207 93.7971 227.2249 91.4499 231.9193 85.3025 242.2022 78.3727 242.314 78.2609 245.8906 77.0315 249.3556 77.0315 250.8086 78.5963 250.9204 81.2788 250.6968 84.4084 251.591 87.8733 253.8264 87.8733 256.3971 85.6378 257.9619 82.62 257.9619 80.9435 257.6266 79.8257 257.4031 78.8198 258.0737 77.3668 258.9679 77.255 264.3329 75.5784 266.7919 77.1432 269.1391 79.4904 271.8216 81.0552 275.3982 80.6081 277.969 78.0374 278.3043 74.9078 278.1925 71.4429 278.9749 68.3133 281.5457 65.9661 289.0343 62.2777 292.1639 59.8187 296.2994 53.0007 305.4647 28.6345 309.712 22.4871 331.2838 4.2684 331.5074 5.945 332.9604 7.6216 334.0781 12.6513 340.5608 21.8165 341.0079 23.3813 341.2315 26.6227 341.5668 28.2992 344.3611 32.2112 344.8081 33.1054 345.4788 35.8997 359.7855 57.8068 370.4037 82.5083 380.9102 101.0623 384.5987 114.4748 386.2752 117.6044 384.4869 123.8636 387.2812 128.558 391.4167 132.9171 393.5404 137.835 394.3228 143.9824 395.664 149.2356 400.1349 158.6244 400.8055 161.6422 401.3644 168.125 402.1468 171.3663 404.4939 175.949 405.2763 182.4317 406.0587 185.0024 411.0884 196.5149 414.3298 208.9215 412.3179 207.8037 415.3358 214.8453 416.1182 218.422 416.4535 223.0046 413.6592 225.9107 416.1182 233.1758 415.4475 237.1996 414.3298 236.0818 414.5534 238.5408 416.0064 239.2114 417.6829 239.3232 418.4653 239.8821 418.2418 245.3589 418.4653 246.8119 419.0242 248.2649 419.6948 249.4944 420.3655 250.8356 420.589 252.8475 420.3655 259.1067 420.589 261.0068 421.1479 262.4598 422.4891 265.0306 422.7127 266.9307 422.4891 268.9426 421.5949 272.8546 421.5949 275.09 426.2893 295.6559 426.8482 302.6975 427.407 305.0447 430.9837 312.8686 436.237 333.4345 439.143 338.9113 448.3083 344.4999 449.6495 346.9589 450.879 348.0766 456.4675 350.5355 457.9206 351.8768 458.0323 353.8887 457.2499 355.677 456.3558 357.2418 455.9087 358.9184 456.3558 360.7067 458.4794 363.0539 458.9265 364.2834 459.1501 368.5307 460.0442 370.9897 464.1798 375.684 461.4972 375.9076 459.7089 377.4724 459.0383 379.7078 460.0442 382.1668 460.6031 380.8255 462.0561 379.2607 463.7327 378.5901 465.1857 379.9314 464.8504 382.9492 461.9443 384.2904 458.4794 384.7375 456.9146 384.7375 457.2499 386.3023 460.0442 390.6614 460.7149 396.0264 461.0502 397.1441 463.1738 397.9265 466.7505 398.2618 469.9919 397.8147 471.4449 396.5853 472.6744 394.6851 475.3569 394.3498 478.3747 394.9087 480.7219 396.0264 484.4103 401.0561 492.3461 426.7635 492.905 427.3223 495.811 428.44 496.3699 428.9989 496.7052 431.6814 497.7111 434.3639 498.9406 436.5993 500.6172 438.1641 498.3817 446.6587 497.5993 460.1831 497.9347 460.8537 499.2759 461.8596 499.6112 462.4185 500.1701 464.8774 501.6231 466.1069 503.635 466.1069 505.7586 465.101 507.2117 468.007 509 468.4541 511.3472 467.6717 514.7003 467.2246 515.7063 466.4422 516.6004 464.5421 516.9358 462.642 516.7122 461.3008 515.9298 459.8477 516.4887 458.8418 518.3888 457.5006 521.2948 452.3591 521.6301 449.3413 518.5006 443.9762 516.9358 437.7171 515.7063 435.3699 513.6944 435.3699 512.4649 437.8288 511.459 439.1701 510.1177 435.9287 509.6706 432.7991 510.1177 424.7516 509.8942 422.9633 509.1118 419.9454 509 418.2689 509.3353 416.257 510.1177 415.6981 511.1237 415.3628 512.0178 414.4686 513.0238 408.9919 514.0297 407.4271 516.2651 408.9919 517.2711 408.9919 517.3828 407.7624 518.3888 404.7446 519.2829 404.7446 519.3947 405.3034 519.2829 406.7564 520.9595 405.527 522.9714 402.062 524.4244 400.3855 526.6598 404.4092 529.6777 407.6506 544.0961 419.7219 546.3316 420.8396 549.7965 421.622 551.026 422.0691 552.479 422.9633 554.2673 424.5281 555.385 426.0928 555.9439 427.6576 555.6086 429.446 554.4909 431.3461 551.8084 433.4697 550.4671 434.9228 549.6847 436.3758 547.3375 442.2997 549.0141 442.1879 550.3553 442.5232 551.2495 443.5292 551.473 445.2057 551.1377 445.6528 549.5729 446.2117 549.3494 446.7705 549.5729 447.4411 550.3553 448 550.4671 448.4471 551.2495 449.6766 554.8262 452.3591 555.6086 453.7003 556.0557 455.7122 558.0675 459.8477 558.7382 461.8596 558.6264 463.648 558.2911 465.6598 558.0675 467.6717 558.7382 469.4601 560.6383 468.7894 562.7619 469.2365 564.3267 470.3542 564.9974 472.0308 565.3327 473.2603 566.0033 473.5956 566.6739 473.7074 567.121 474.7133 567.0092 476.1663 566.2268 478.5135 566.0033 479.6312 567.4563 482.4255 571.033 484.2139 582.2101 488.2376 584.6691 489.3553 585.7868 490.2495 586.7927 493.1556 589.0282 492.5967 592.4931 489.6906 595.958 488.3494 598.3052 485.2198 600.3171 481.6431 602.4407 479.0724 602.2172 481.5314 602.776 483.7668 604.229 484.8845 606.688 484.4374 607.4704 483.0961 607.1351 481.3078 607.3586 479.743 610.1529 479.0724 611.7177 478.9606 612.2766 478.8488 613.8414 480.0783 613.5061 480.6372 613.2825 481.7549 613.5061 482.7608 615.4062 483.3197 616.5239 483.7668 616.971 484.6609 617.5298 485.4433 618.9828 485.5551 619.9888 484.9963 620.8829 484.2139 621.6653 483.3197 622.2242 482.3138 621.4418 481.0843 621.1065 479.743 621.1065 476.837 621.8889 477.6194 622.6713 479.2959 623.2301 480.0783 627.3657 481.0843 627.701 482.4255 627.5892 483.8785 627.5892 485.2198 628.3716 486.5611 629.6011 487.3435 630.2717 487.2317 631.1659 486.7846 632.5072 486.5611 635.3014 487.0081 636.7545 487.6788 637.4251 489.1318 637.9839 495.2792 638.5428 496.5087 642.9019 498.4088 642.2312 495.7263 643.4607 494.8321 647.5963 495.1674 648.6022 495.8381 649.0493 497.2911 648.3787 498.1853 646.0315 497.2911 645.0255 498.4088 652.2906 506.0092 652.4024 505.6739 652.8495 505.3386 653.6319 505.6739 654.4143 506.9034 654.6378 508.1329 654.4143 512.3802 653.073 515.9569 653.073 517.7452 654.4143 519.7571 658.2145 522.5514 659.5558 524.3397 659.5558 527.3575 661.1206 526.3516 662.5736 525.681 664.1384 525.5692 665.815 526.2398 665.815 523.222 669.3916 524.7868 677.4392 524.3397 681.91 526.7987 686.6044 530.2636 690.8517 531.3813 701.0229 531.7166 718.6827 535.8521 720.3593 536.5228 722.1476 538.87 724.6066 544.6821 726.6185 547.3646 733.3248 552.059 737.9074 555.3003 741.484 559.7712 743.8312 565.1362 744.7254 570.9483 745.9549 573.4073 748.4139 574.8603 750.8728 576.0898 752.1023 577.431 752.7729 578.5487 755.5672 582.0136 757.5791 588.2728 760.7087 592.073 767.7503 598.2205 771.6623 602.9149 773.0035 605.0385 774.0095 607.8328 775.1272 612.9743 775.9096 614.8744 777.1391 616.5509 779.1509 618.1157 784.1806 621.2453 786.8631 623.4807 789.0986 626.275 794.6871 636.7815 796.2519 643.2642 797.5932 645.6114 807.2055 648.5175 809.2174 648.6293 814.1353 646.7292 816.0354 646.5056 817.1531 647.1762 820.171 652.3177 822.6299 654.8884 823.7476 655.5591 825.8713 656.1179 827.5479 656.0062 830.901 655.2238 832.1305 655.0002 834.7012 656.1179 840.0662 659.5828 842.0781 660.3652 843.7547 661.5947 844.5371 664.389 844.9842 667.6304 845.6548 670.0893 851.914 674.8955 852.9199 677.0191 853.5905 677.0191 857.0554 681.8253 858.0614 683.949 858.3967 684.1725 859.738 684.7314 860.185 684.9549 860.8557 686.7432 861.7498 690.2081 862.7558 691.8847 864.3206 692.3318 866.2207 691.5494 867.7855 690.767 868.4561 690.8788 868.9032 691.7729 871.5857 693.673 872.5916 694.5672 873.1505 696.0202 874.0447 699.5969 874.6035 700.9382 878.1802 703.6207 878.7391 703.7325 879.4097 705.8561 880.5274 705.8561 881.5333 704.9619 881.4216 704.2913 880.6392 703.7325 878.4037 700.9382 877.9567 700.044 877.6213 699.7087 877.1743 699.4851 876.7272 698.9263 876.7272 697.8086 877.1743 697.6968 879.2979 697.8086 879.8568 697.8086 879.9685 693.673 877.9567 691.8847 875.2741 690.4317 872.0328 690.3199 870.9151 689.8728 871.2504 688.9787 872.5916 688.1963 874.6035 688.1963 879.8568 692.4436 885.4453 699.9322 887.569 700.9382 890.3633 702.6147 891.3692 706.5267 891.2574 712.8977 893.0458 718.0392 894.387 720.3864 895.9518 721.3923 897.4048 723.0689 898.5226 727.0926 900.8697 745.0878 903.1052 748.7762 903.8876 756.3767 903.7758 757.0473 904.1111 757.4944 908.8055 760.4004 912.0469 761.2946 918.9767 761.9652 921.771 761.4064 923.5593 759.9534 924.677 757.9415 925.5712 755.4825 927.5831 756.0414 928.1419 756.9355 928.2537 758.2768 928.8125 759.7298 929.7067 760.5122 930.7127 761.0711 931.495 761.9652 931.8304 763.53 933.0598 765.5419 940.6603 772.0246 946.0253 780.9663 947.9254 782.1958 950.9432 782.6429 953.514 783.7606 955.5259 785.3254 957.3142 787.002 958.4319 789.4609 959.8849 798.1791 962.4557 803.8794 963.0145 806.7855 963.4616 811.1446 964.0205 813.6035 965.1382 815.2801 967.2618 815.8389 969.1619 815.1683 971.1738 814.0506 973.4092 813.2682 975.4211 817.4037 978.4389 819.9745 982.5745 821.3157 987.9395 821.651 987.2689 822.4334 985.9276 824.7806 987.3806 824.8924 988.4983 824.5571 990.0631 823.7747 989.8396 823.5512 992.6339 821.651 993.1927 821.651 994.9811 819.6392 996.3223 817.4037 996.7694 815.9507 996.6576 814.9448 996.993 814.0506 998.446 813.2682 997.44 811.7034 997.3283 810.1386 997.6636 808.7974 998.446 807.6796 1002.6933 811.0328 1004.8169 813.1564 1005.7111 814.7212 1006.3817 816.286 1007.9465 817.6273 1009.8466 818.8568 1011.4114 820.0862 1012.4174 822.0981 1012.6409 826.7925 1012.9762 829.1397 1017 836.5166 1016.1058 837.6343ZM601.8818 378.8136L604.1173 378.8136 604.8997 379.2607 606.1292 385.5199 605.235 388.426 602.9996 389.6554 602.9996 389.5437 599.87 387.9789 598.7523 387.7553 597.411 387.42 590.0341 389.3201 586.9045 389.5437 583.6631 388.426 578.4099 385.8552 574.945 385.2964 567.3446 386.8612 565.8915 386.6376 564.9974 386.5259 564.4385 385.967 563.5443 384.7375 562.9855 383.9551 562.5384 383.6198 561.9795 383.0609 560.5265 385.6317 558.8499 386.9729 556.2792 387.1965 552.479 386.5259 546.4433 384.0669 545.6609 383.9551 543.5373 383.508 540.0724 384.2904 538.8429 382.5021 537.837 381.1608 533.8132 369.2013 535.4898 369.2013 536.6075 369.5366 536.7193 370.0955 536.7193 370.2073 535.8251 371.325 537.0546 371.9956 538.0605 373.0015 538.3958 373.6722 538.6194 374.1193 538.9547 375.684 540.0724 375.684 541.5254 375.1252 543.5373 375.9076 545.6609 377.1371 547.3375 377.8077 549.2376 377.6959 555.6086 375.684 552.8143 370.6543 549.1259 366.5188 544.655 363.7245 539.5135 362.7186 534.4838 363.7245 532.8073 363.2774 531.6895 360.4832 531.9131 357.3536 533.2543 355.5652 535.2662 355.3417 538.8429 357.6889 539.7371 358.3595 541.749 358.4713 542.4196 357.2418 540.5195 354.5593 539.7371 351.8768 539.5135 351.3179 542.5314 349.8649 546.5551 349.5296 548.2317 349.6414 548.3435 349.6414 549.0141 347.7413 548.0081 345.1705 546.2198 343.0469 544.7668 342.0409 539.4018 342.488 537.7252 341.5938 535.9369 338.9113 535.8251 338.9113 541.4136 339.3584 547.3375 340.6997 552.8143 342.9351 556.1674 345.1705 557.1734 345.9529 558.6264 348.1883 559.297 349.1943 558.5146 351.5415 556.9498 353.218 556.7263 355.0064 557.844 356.1241 559.297 356.2359 560.6383 355.677 561.9795 355.0064 561.6442 354.4475 560.9736 353.3298 560.8618 352.3239 562.4266 351.8768 563.9914 352.771 564.3267 354.7828 564.3267 355.0064 563.5443 367.7483 563.8796 370.2073 564.7738 371.9956 564.8856 372.4427 567.5681 377.0253 568.127 378.2548 569.58 378.3666 578.5217 381.0491 580.8689 376.5782 581.6513 375.684 582.9925 375.3487 580.9806 374.5663 577.851 373.5604 576.5098 371.7721 577.6275 370.0955 580.4218 369.2013 583.7749 368.9778 586.9045 369.2013 588.5811 369.5366 589.9223 369.9837 590.593 370.2073 591.1518 370.5426 592.046 371.325 592.7166 372.5545 592.9402 373.8957 593.3872 375.1252 594.6167 375.684 596.8521 376.1311 599.9817 378.2548 601.8818 378.8136ZM557.7322 314.7688L555.4968 316.7806 555.0497 319.2396 555.9439 320.1338 557.2851 320.8044 558.4029 321.9221 559.9677 323.0398 560.6383 324.4928 557.9558 325.1635 553.4849 323.7105 549.7965 321.6986 543.3138 321.0279 541.749 319.4631 541.8607 316.7806 543.0902 314.4334 545.7727 313.3157 549.1259 313.0922 550.4671 312.198 549.9083 310.8568 549.6847 309.292 549.5729 307.7272 549.9083 305.9388 550.9142 305.2682 554.8262 308.286 555.9439 308.9567 557.3969 309.292 560.1912 310.5215 561.3089 312.4216 560.303 313.8746 557.7322 314.7688Z" />
</svg>