<?xml version="1.0" encoding="utf-8"?>
<svg xmlns="http://www.w3.org/2000/svg" viewBox="0 0 1021 913" style="stroke-width:0.25px;stroke-linejoin:round;stroke:#444;fill:#ddd" fill-rule="evenodd">
  <path class="ES" d="M580.0865 472.3715L579.0805 471.4773 578.4099 470.4714 577.851 469.3537 577.404 468.0124 578.0746 468.0124 578.9688 468.0124 579.9747 468.5713 580.6453 469.2419 581.5395 469.3537 582.6572 468.7948 582.3219 469.9125 580.31 471.4773 580.0865 472.3715ZM688.1692 501.0967L689.2869 503.4439 689.734 504.0028 688.3927 504.5616 687.3868 503.5557 687.275 501.9909 688.1692 501.0967ZM740.2546 29.7576L740.1428 30.4283 740.031 31.7695 740.1428 32.5519 741.3723 33.1108 741.9311 33.8932 742.1547 35.1227 742.2664 35.3462 742.3782 35.6815 742.8253 35.5697 743.3842 35.2344 744.2783 35.1227 745.2843 34.7873 745.6196 34.7873 746.5138 35.2344 746.9608 35.5697 746.9608 35.7933 746.8491 36.2404 746.8491 36.7992 747.1844 37.8052 747.4079 38.1405 747.9668 38.364 748.5256 38.4758 749.0845 38.364 749.5316 38.0287 749.7551 37.5816 750.2022 36.4639 750.8728 36.0168 751.767 36.1286 753.1083 36.4639 755.0084 37.4699 755.5672 37.4699 756.0143 37.2463 756.5732 37.2463 757.8026 38.5876 758.0262 40.823 757.5791 43.282 756.7967 45.2938 756.2378 46.0762 754.4495 48.0881 754.0024 48.5352 754.5613 49.8765 755.4554 50.8824 756.4614 51.4413 757.5791 51.7766 758.8086 51.8883 759.591 51.553 759.9263 50.7706 760.0381 49.0941 760.3734 47.8646 761.1558 46.9704 762.1617 46.6351 763.1677 46.8586 762.1617 47.7528 761.8264 48.5352 762.0499 49.3176 762.8323 50.2118 763.6147 50.7706 766.2972 51.2177 767.862 52.1119 769.3151 53.3414 770.9916 53.1178 771.4387 53.2296 772.1094 53.7884 772.4447 54.012 774.0095 54.2355 774.7919 54.4591 775.3507 55.1297 776.9155 56.2474 778.5921 56.8063 782.2805 57.1416 785.7454 56.471 786.9749 56.918 787.5338 58.7064 787.7573 59.1535 787.7573 59.6006 787.6455 59.8241 787.5338 60.1594 787.7573 60.7183 788.2044 61.1653 788.6515 61.2771 789.0986 61.1653 789.5457 61.2771 791.1105 62.2831 792.0046 62.9537 793.6812 65.3009 793.793 65.5244 793.6812 65.748 793.6812 65.9715 794.0165 66.195 794.6871 66.195 794.9107 66.195 795.1342 66.6421 795.1342 66.9774 795.1342 67.3128 795.5813 67.6481 795.9166 67.6481 796.699 67.0892 797.0343 66.9774 797.1461 65.5244 798.2638 65.5244 800.7228 66.6421 802.064 66.5304 803.1817 65.8597 805.3054 64.1832 805.7525 64.5185 806.0878 64.4067 806.4231 63.9596 806.6466 63.4008 807.3173 63.9596 807.429 64.0714 810.1116 65.6362 810.5586 66.8657 811.7881 66.9774 813.1294 66.6421 813.9118 66.3068 813.8 67.3128 814.1353 68.4305 814.6942 69.3246 815.3648 69.8835 815.7001 70.2188 815.7001 70.6659 815.8119 71.113 816.3707 71.3365 816.9296 71.4483 817.2649 71.7836 817.3767 72.0072 817.712 72.3425 819.5003 73.0131 821.0651 72.9013 824.53 71.5601 827.3243 71.2248 828.1067 70.5541 828.8891 70.4424 831.2363 71.113 832.0187 71.4483 832.9129 73.2366 833.6953 74.019 834.3659 73.9073 835.5954 72.1189 836.3778 71.3365 837.2719 71.0012 838.5014 72.1189 838.6132 72.3425 838.5014 72.566 838.6132 72.7895 838.8367 73.0131 839.7309 73.2366 840.6251 73.1249 842.3017 72.6778 843.084 73.0131 848.6726 72.9013 850.2374 73.1249 850.908 72.9013 851.1316 72.3425 851.2433 72.2307 851.3551 71.2248 851.0198 70.3306 850.4609 69.5482 849.7903 69.3246 850.1256 68.7658 850.2374 68.4305 850.5727 68.2069 850.1256 67.5363 850.7963 65.748 850.6845 64.5185 850.908 63.6243 851.914 63.1772 853.1435 63.0655 853.9259 63.1772 855.4906 63.8479 856.273 63.9596 857.1672 63.8479 857.9496 64.0714 859.8497 65.1891 861.191 65.748 861.6381 65.9715 862.3087 66.7539 862.8675 66.9774 863.2029 66.7539 863.6499 66.3068 864.097 66.195 864.5441 66.3068 865.2147 66.9774 865.5501 67.201 869.462 67.4245 870.3562 67.7598 871.2504 68.4305 871.5857 69.3246 872.0328 70.3306 872.4799 71.113 873.2623 71.6718 873.7094 71.7836 875.2741 71.2248 880.7509 71.3365 881.8686 71.5601 881.6451 72.4542 881.8686 72.6778 882.3157 72.6778 882.651 72.9013 883.4334 74.3543 884.3276 75.5838 885.11 77.7075 885.7806 78.4899 885.5571 78.937 885.3336 79.4958 885.2218 80.0547 885.6689 80.39 885.6689 80.6135 884.8865 81.843 884.7747 82.6254 885.7806 82.4019 886.563 83.1843 886.6748 84.0784 885.7806 84.7491 885.5571 84.8608 884.7747 85.1961 886.116 87.208 886.116 87.9904 886.563 88.4375 889.3573 88.7728 889.6926 88.6611 890.2515 88.4375 890.475 88.1022 890.6986 87.6551 890.9221 87.4316 893.8282 87.0963 895.2812 86.4256 895.7283 84.7491 895.9518 84.6373 896.0636 84.5255 896.1754 84.5255 896.2871 84.7491 896.846 84.9726 897.4048 84.9726 897.8519 84.7491 898.299 84.1902 898.4108 84.302 898.5226 84.4138 898.5226 84.5255 898.5226 84.7491 899.4167 85.0844 902.211 85.5315 903.1052 85.8668 905.6759 87.6551 906.6818 87.8787 907.576 87.9904 908.2466 88.214 908.9173 89.2199 909.4761 91.5671 909.9232 92.4613 910.8174 93.2437 911.3762 93.6908 911.9351 93.6908 913.1646 93.579 913.8352 93.4672 914.3941 93.0201 915.1765 92.2377 916.1824 91.4553 916.4059 91.12 916.7413 90.2259 916.9648 89.8905 917.7472 89.5552 919.8708 89.7788 922.6651 88.8846 924.0064 88.7728 925.3476 89.4435 925.9065 89.8905 928.4772 91.12 929.9303 91.4553 930.6009 91.4553 930.9362 92.4613 931.6068 93.4672 932.501 94.1378 933.3952 94.3614 934.2893 94.9202 934.7364 95.032 935.2953 95.032 935.5188 94.6967 935.9659 93.6908 936.3012 93.4672 937.1954 93.3554 939.2073 94.1378 940.2132 94.2496 941.4427 94.2496 941.4427 93.9143 940.8838 93.3554 940.4367 92.126 940.7721 91.6789 942.6722 90.1141 943.4546 89.667 944.4605 89.667 946.1371 89.8905 947.143 89.7788 947.8136 89.3317 949.2667 87.9904 949.9373 87.5433 950.7197 87.4316 951.3903 87.5433 952.1727 87.3198 953.7375 86.2021 955.1905 86.7609 955.8612 86.3139 956.42 86.3139 957.7613 86.4256 957.9848 86.5374 958.3201 87.208 958.6554 87.7669 959.1025 88.214 959.6614 88.5493 960.5556 88.8846 961.6733 88.9964 962.9028 88.8846 964.8029 88.5493 964.8029 89.4435 964.3558 90.6729 964.5793 91.6789 964.5793 92.6848 965.1382 93.579 965.9206 94.2496 966.9265 94.0261 967.9325 94.0261 968.6031 94.8085 968.8266 94.8085 969.3855 94.3614 969.9443 94.4732 971.062 95.2556 969.9443 97.3792 969.8326 97.9381 969.609 98.8322 969.2737 99.2793 968.9384 99.6146 968.6031 100.2853 967.8207 99.9499 966.1441 100.2853 964.8029 99.7264 964.3558 99.0558 963.5734 99.2793 962.5674 100.2853 962.0086 101.6265 962.0086 103.7502 961.8968 105.2032 962.2321 106.3209 962.9028 107.1033 964.4675 108.1092 965.3617 109.227 966.3677 110.68 966.2559 111.4624 965.697 112.0212 965.4735 112.9154 965.8088 113.8096 966.0323 115.0391 966.0323 115.4861 966.2559 115.8215 967.0383 116.4921 967.3736 116.9392 967.1501 118.1686 966.0323 120.0688 965.4735 121.6336 964.6911 122.416 963.4616 124.3161 962.0086 124.0925 960.2202 125.4338 959.7732 127.1103 958.5437 127.781 954.5199 131.0223 953.6257 132.3636 952.1727 132.6989 951.1668 132.9224 949.9373 133.2578 949.4902 133.3695 949.2667 133.4813 948.596 134.1519 948.3725 134.3755 948.2607 134.8226 947.8136 134.9343 947.2548 134.9343 946.6959 136.3873 940.9956 138.7345 931.8304 142.9818 930.9362 143.9878 928.2537 145.7761 924.9006 147.2292 923.5593 148.2351 922.3298 149.9117 920.2062 153.8237 918.8649 155.612 917.4119 156.9532 914.2823 158.7416 912.3822 159.1887 909.3644 159.524 906.3465 160.3064 905.3406 160.8652 904.8935 160.977 903.4405 160.977 894.6106 163.6595 890.6986 163.9948 879.4097 168.2421 876.1683 168.9128 875.833 169.1363 875.0506 170.5893 874.9388 171.0364 874.7153 171.3717 874.1564 171.707 873.1505 171.0364 872.8152 170.9246 870.8033 170.9246 868.9032 171.26 867.1149 172.0424 865.9971 172.8248 860.8557 177.8545 858.3967 181.2076 853.4788 186.2373 852.5846 187.9139 853.8141 188.6963 855.0436 189.1433 855.6024 189.1433 855.826 188.808 855.7142 188.3609 855.0436 187.9139 855.826 188.0256 856.4966 188.3609 856.9437 188.808 858.0614 190.1493 859.1791 191.1552 859.738 191.1552 860.6321 191.3788 860.6321 192.6083 859.9615 193.9495 859.5144 194.5084 856.6084 195.4025 855.3789 196.5202 853.1435 199.9851 851.8022 201.1029 850.4609 201.5499 849.0079 201.7735 848.002 200.0969 850.1256 199.7616 851.1316 200.544 852.6964 199.6498 854.2612 196.9673 853.367 196.8556 852.0257 196.9673 848.3373 198.1968 847.4431 198.7557 846.6607 199.6498 845.9901 200.6558 844.5371 204.1207 843.8664 205.909 843.084 207.0267 842.3017 207.9209 841.631 208.9268 841.4075 210.3799 840.178 211.6094 837.0484 217.7568 836.4895 218.3156 835.3718 219.3216 834.7012 219.9922 833.1364 222.1158 830.4539 224.463 827.7714 229.9398 826.5419 231.2811 824.1947 232.6223 823.077 234.4107 821.0651 238.5462 819.9474 240.3345 817.1531 243.4641 812.4587 251.2881 812.2352 251.9587 812.1234 253.3 811.7881 254.3059 811.341 255.0883 810.2233 256.2061 809.5527 257.1002 809.1056 258.1062 808.7703 259.1121 808.5468 259.8945 807.0937 261.9064 806.6466 262.9123 806.3113 265.036 806.4231 267.942 806.7584 270.401 807.6526 274.313 810.4469 280.5722 810.8939 281.4663 811.4528 282.4723 810.8939 282.9194 810.3351 283.3664 810.5586 284.4842 811.0057 286.6078 811.7881 288.5079 812.9058 290.6316 814.1353 292.9788 815.8119 295.8848 816.4825 296.779 818.1591 298.1202 819.8356 299.9086 820.7298 300.5792 821.9593 300.9145 824.0829 301.1381 826.2066 301.8087 828.2185 302.9264 829.5597 304.4912 829.448 304.603 828.8891 304.9383 829.448 305.1618 829.7833 305.4971 831.0128 306.5031 831.4598 306.3913 831.7952 307.0619 831.7952 308.0679 831.4598 308.515 830.6774 308.515 829.895 308.7385 829.2244 309.0738 828.5538 309.6327 827.9949 310.8622 827.9949 311.0857 827.7714 311.1975 826.8772 311.3092 826.5419 311.421 825.9831 312.0916 825.4242 312.3152 824.9771 312.7623 824.53 313.6564 824.8653 314.4388 823.9712 314.2153 823.3006 314.3271 822.7417 314.6624 821.9593 314.7741 820.5063 314.8859 819.9474 314.9977 819.2768 315.5565 818.7179 316.5625 818.7179 317.3449 818.8297 318.1273 818.4944 319.0215 817.8238 319.6921 817.1531 320.0274 815.253 320.0274 813.2411 320.4745 812.1234 320.9216 810.6704 321.9275 806.3113 323.7158 805.6407 324.2747 805.4172 324.9453 805.0818 325.1689 803.4053 326.9572 802.8464 327.8514 802.7347 328.9691 802.7347 329.5279 802.5111 329.7515 801.0581 329.8633 800.4992 330.0868 799.9404 330.5339 799.8286 331.4281 798.152 331.3163 797.8167 333.6635 798.4873 338.9167 797.9285 339.5873 797.1461 339.6991 795.5813 339.5873 794.5754 339.9227 793.6812 340.5933 793.0106 341.4875 792.5635 342.3816 792.3399 343.164 792.1164 344.0582 792.0046 346.5172 791.7811 350.3174 791.6693 351.3233 791.2222 351.8822 790.1045 352.3293 789.2103 353.2234 788.7633 354.0058 786.9749 358.5884 786.8631 359.4826 786.8631 359.5944 787.0867 361.8298 786.8631 362.3887 785.6337 360.9356 784.516 363.9535 783.9571 364.4006 782.9512 364.7359 782.6158 365.5183 782.7276 366.5242 784.1806 369.2067 784.6277 369.7656 786.0807 370.7715 787.1985 371.2186 788.0926 371.3304 788.4279 370.6597 789.2103 371.2186 789.5457 371.7774 789.4339 372.5598 788.7633 373.0069 788.3162 373.454 787.9809 373.6776 787.5338 373.6776 787.1985 373.3422 786.7514 373.6776 785.5219 374.1246 784.7395 374.2364 783.51 375.0188 781.7217 375.0188 781.1628 375.1306 780.604 375.3541 779.4862 376.1365 779.0392 375.8012 777.2508 375.0188 775.7978 374.6835 772.8917 374.5717 772.1094 374.6835 771.4387 375.0188 770.8799 375.3541 770.6563 375.913 770.7681 376.4718 771.327 377.4778 769.8739 377.1425 768.5327 376.8072 768.1974 376.1365 767.9738 375.6894 767.0796 375.5777 765.7384 375.0188 765.0678 374.7953 764.3971 375.4659 764.2854 376.0248 762.9441 376.0248 761.4911 375.8012 760.1498 376.4718 759.3674 376.9189 757.3556 378.9308 756.6849 379.3779 755.7908 379.6014 755.4554 379.7132 755.1201 380.0485 754.7848 380.2721 754.673 380.6074 754.5613 380.8309 754.1142 382.731 754.0024 383.0663 753.6671 383.4017 753.3318 383.2899 753.1083 383.1781 752.7729 383.0663 752.4376 383.4017 751.5435 384.184 751.0964 384.2958 750.4257 384.4076 748.1903 385.4135 747.0726 386.0842 746.9608 386.7548 746.6255 387.2019 745.7314 387.0901 745.396 387.5372 745.0607 388.5431 744.5019 389.7726 743.1606 391.6727 740.4781 394.3552 739.3604 395.92 738.578 398.2672 738.2427 400.2791 737.6838 401.7321 737.4603 403.2969 736.119 406.7618 735.1131 408.3266 735.1131 409.109 735.2249 409.5561 735.4484 410.0032 735.4484 410.4503 735.4484 411.0091 735.2249 411.3444 734.8895 411.4562 733.8836 411.4562 733.5483 411.6798 732.9894 412.2386 731.4246 413.2446 730.754 414.027 730.3069 416.3741 729.7481 417.0448 729.0774 417.6036 728.4068 418.386 728.1833 418.8331 727.9597 419.9508 727.7362 420.3979 727.2891 420.6215 726.842 420.7332 726.3949 420.9568 725.9479 421.9627 725.1655 422.5216 724.2713 422.9686 723.3771 423.0804 721.7006 422.5216 720.4711 421.1803 719.3534 419.7273 718.1239 418.386 716.5591 417.3801 715.6649 417.0448 714.5472 416.933 713.7648 417.0448 712.3118 417.8272 711.4176 418.0507 710.9705 417.9389 709.741 417.3801 709.1822 417.2683 705.6055 417.9389 704.8231 418.386 703.9289 420.5097 703.0348 422.9686 701.9171 424.1981 701.6935 424.4217 701.1347 424.8688 700.0169 425.4276 698.4521 425.6512 697.6697 425.3158 696.7756 425.7629 695.5461 424.8688 694.6519 424.1981 693.8695 423.8628 693.4224 423.9746 693.0871 424.4217 692.64 424.6452 692.193 424.3099 690.9635 422.6333 689.6222 421.7392 688.8398 421.7392 686.3809 422.5216 682.3571 421.8509 678.6686 422.0745 675.4273 421.5156 670.8447 422.0745 670.174 422.5216 669.6152 423.1922 668.721 423.8628 667.0444 424.8688 664.2502 424.8688 662.4618 423.4157 661.5677 423.5275 660.897 423.8628 659.3322 423.0804 658.6616 422.1862 657.2086 422.298 655.7556 422.4098 655.0849 422.9686 652.7377 423.1922 649.4964 422.1862 647.9316 421.6274 645.5844 422.1862 642.343 423.0804 638.0957 421.8509 636.978 422.1862 635.6367 423.1922 631.7248 423.751 630.4953 423.8628 622.4477 423.304 621.6653 423.5275 621.1065 423.9746 619.7652 426.21 619.5417 426.6571 618.8711 427.3277 618.424 428.2219 618.2004 429.1161 616.971 431.3515 614.0649 431.6868 612.8354 434.1458 611.2706 435.1517 610.8235 435.3752 609.9294 435.8223 608.0293 436.2694 606.1292 436.1576 600.8759 435.487 599.87 435.487 599.4229 435.5988 598.9758 436.0459 595.7344 438.2813 592.6048 438.5048 590.593 439.8461 590.0341 440.0696 588.3575 440.1814 587.5751 440.5167 587.0163 440.852 586.4574 441.6344 585.2279 443.8699 585.2279 444.3169 584.4455 446.4406 583.9985 447.223 583.7749 447.4465 583.4396 447.7818 583.1043 448.0054 582.3219 448.3407 582.4337 448.7878 582.5454 449.2349 582.0983 450.0173 580.6453 452.8116 580.4218 453.3704 580.1982 455.9411 579.3041 455.9411 578.9688 454.7117 578.1864 454.2646 577.1804 453.8175 576.2862 453.8175 576.0627 454.3763 575.7274 454.8234 575.5039 455.4941 575.5039 456.2765 575.8392 457.0589 575.6156 457.5059 575.7274 458.2883 575.9509 458.8472 576.0627 459.2943 575.9509 459.9649 575.6156 460.3002 575.3921 460.6355 574.3861 460.9708 569.9153 462.6474 569.2447 463.0945 567.7916 463.4298 567.0092 461.7532 565.1091 460.7473 564.3267 460.0767 563.3208 460.5238 562.3149 460.1884 561.4207 459.6296 559.5206 459.0707 558.8499 458.4001 557.844 457.0589 554.938 454.1528 554.0438 453.5939 553.0378 453.5939 551.026 453.9293 548.6788 453.2586 547.4493 451.6938 546.5551 449.7937 545.5492 448.1172 543.0902 446.7759 542.8667 445.9935 542.7549 445.0993 542.4196 444.0934 541.9725 443.0875 540.4077 441.2991 539.4018 438.8402 538.7311 437.1636 537.7252 435.2635 536.7193 434.3693 536.2722 433.9222 536.831 433.6987 537.2781 433.8105 538.7311 435.0399 539.0664 435.5988 538.8429 436.0459 539.1782 436.6047 539.8488 437.3871 540.4077 437.2754 540.743 436.94 541.3019 436.1576 542.196 435.0399 541.8607 435.0399 540.9666 435.3752 540.1842 435.2635 539.8488 434.3693 540.0724 432.6927 539.7371 431.575 537.5017 429.5631 537.0546 429.2278 534.0367 429.1161 533.1426 428.8925 532.4719 428.1101 531.9131 425.8747 531.466 424.8688 530.7954 423.751 530.5718 422.7451 530.7954 421.7392 531.5778 420.845 532.4719 420.3979 534.1485 419.7273 534.7074 419.2802 535.1545 417.9389 534.8191 415.5917 535.0427 414.2505 536.6075 412.9092 540.1842 413.2446 541.5254 411.4562 540.6312 412.1268 539.5135 412.5739 538.3958 412.5739 537.5017 411.9033 535.6015 412.5739 534.7074 413.2446 534.3721 414.474 534.7074 417.8272 534.3721 418.4978 532.8073 418.4978 531.5778 416.8212 530.013 413.1328 529.007 411.3444 527.7776 410.0032 516.7122 401.9557 515.4827 401.285 514.4768 401.0615 513.6944 400.7262 511.7943 399.1614 510.9001 398.7143 510.0059 398.2672 509.2235 396.926 508.8882 395.4729 509.2235 394.8023 509.7824 394.3552 511.3472 392.008 511.7943 391.0021 509.5589 393.5728 508.3294 394.467 506.8763 394.467 506.8763 394.8023 507.8823 396.3671 508.3294 397.2613 508.4411 397.9319 507.7705 398.0437 503.8585 396.0318 502.4055 395.5847 500.6172 395.0259 499.3877 395.4729 500.7289 395.6965 501.2878 396.0318 490.3342 396.2553 489.6636 396.5906 488.7694 397.373 487.987 397.4848 487.2046 397.1495 486.4222 396.8142 485.7516 394.2435 485.5281 393.014 485.8634 392.1198 485.4163 390.2197 485.081 385.7488 484.2986 383.9605 484.4103 383.2899 484.2986 382.0604 483.9633 380.7191 483.6279 379.6014 483.4044 379.2661 482.622 378.5955 482.2867 378.2602 481.9514 377.7013 481.8396 377.5895 481.8396 377.366 481.7278 376.9189 481.5043 376.1365 481.3925 376.1365 481.2807 376.1365 481.2807 375.4659 481.3925 375.2424 481.8396 374.6835 481.9514 374.46 482.0631 374.1246 482.0631 373.9011 481.9514 373.5658 482.3985 373.2305 483.5162 372.001 483.8515 371.5539 484.075 370.6597 484.5221 367.8655 485.081 366.1889 485.8634 365.0712 490.1107 361.4945 491.3402 359.2591 491.7872 357.359 492.7932 354.6765 493.0167 353.6705 493.0167 353.1117 492.905 352.5528 492.905 352.1057 493.1285 351.7704 494.5815 351.4351 495.0286 351.0998 495.6992 351.2116 496.2581 351.3233 496.8169 351.4351 497.3758 351.0998 497.9347 350.988 498.27 350.7645 498.7171 350.0938 499.1641 348.8644 499.6112 348.4173 500.3936 348.529 502.9644 349.6468 504.0821 349.4232 504.4174 348.082 504.8645 347.4113 505.3116 345.623 506.0939 343.8347 506.7646 341.9345 507.0999 341.1521 507.547 339.4756 507.4352 339.3638 506.7646 338.9167 505.5351 339.0285 504.3056 339.3638 504.1938 339.3638 503.9703 339.252 503.4114 340.0344 502.2937 340.5933 501.176 340.8168 500.5054 340.8168 499.8348 340.258 499.3877 339.8109 497.5993 335.1165 497.3758 334.893 496.5934 334.3341 496.2581 333.9988 496.1463 333.6635 495.811 332.8811 495.5875 332.5458 490.8931 326.3983 489.5518 325.3924 488.993 325.0571 489.5518 324.3865 489.9989 323.8276 490.1107 323.157 489.5518 322.3746 489.9989 321.704 490.7813 318.7979 492.6814 316.0036 492.905 315.2212 492.7932 314.7741 492.5696 314.5506 492.2343 314.4388 492.0108 313.9917 492.0108 313.5447 491.899 312.9858 492.0108 311.6446 492.3461 309.7444 492.4579 309.2974 492.905 308.515 492.905 308.2914 494.9168 306.6149 495.5875 306.056 496.2581 305.8325 497.0405 305.1618 497.7111 304.4912 497.9347 303.9323 498.3817 303.597 500.3936 303.1499 501.176 302.7029 501.7349 302.144 502.2937 301.6969 502.629 301.4734 502.629 300.691 502.8526 299.7968 502.182 298.5673 503.1879 297.7849 504.1938 296.3319 505.6469 293.4259 506.0939 292.867 506.3175 292.3081 506.3175 291.7493 505.7586 291.3022 506.0939 290.2963 505.7586 289.1785 505.1998 288.1726 504.4174 287.3902 503.4114 286.7196 502.182 286.3843 501.0642 286.496 499.9465 287.1667 499.3877 287.3902 498.7171 287.2784 498.0464 286.9431 497.5993 286.496 497.4876 285.9372 498.0464 284.8195 498.1582 284.2606 497.5993 283.1429 496.4816 282.6958 495.2521 282.3605 494.1344 281.6899 493.4638 280.7957 493.1285 279.5662 493.2403 278.3367 493.7991 277.3308 491.5637 274.5365 490.7813 273.8659 490.446 273.1953 490.2224 271.9658 490.2224 270.6245 490.446 269.8421 490.7813 268.948 491.0048 267.6067 491.0048 266.3772 490.6695 265.8184 488.7694 265.2595 487.8752 264.8124 487.0928 264.2536 486.7575 263.0241 486.3105 262.4652 484.7457 261.6828 484.075 261.0122 482.7338 259.2239 481.8396 258.4415 480.3866 254.3059 480.0513 253.5235 480.0513 253.4118 489.7754 253.8589 490.3342 253.6353 491.1166 253.3 491.899 253.1882 493.7991 253.1882 494.4697 252.9647 495.4757 253.6353 496.9287 253.6353 503.5232 252.8529 504.1938 252.5176 504.7527 251.2881 504.6409 250.841 504.5292 250.5057 504.5292 249.9469 504.7527 249.388 505.3116 248.3821 505.5351 247.8232 505.4233 247.3761 505.1998 246.8173 505.1998 246.1466 505.5351 245.3642 505.8704 245.0289 506.8763 244.6936 507.3234 244.3583 508.4411 242.6817 508.5529 242.1229 508.6647 241.1169 508.6647 240.5581 508.6647 240.3345 508.5529 239.6639 508.5529 239.4404 508.6647 239.1051 509.1118 238.7697 509.2235 238.5462 509.5589 237.0932 509.6706 236.5343 509.5589 235.9755 509.7824 235.3048 510.5648 233.9636 508.7765 230.7222 507.7705 229.4927 507.2117 228.4868 506.6528 228.0397 506.2057 227.8162 504.9762 227.7044 504.4174 227.4809 503.9703 226.6985 503.635 224.6866 503.1879 223.7924 503.635 223.1218 504.0821 221.7805 504.4174 221.2217 505.3116 220.8864 507.2117 219.5451 507.7705 219.5451 508.1058 219.4333 509 219.5451 509.8942 219.4333 510.6766 218.8745 510.7883 218.5392 510.7883 218.0921 510.9001 217.5332 511.0119 217.0861 511.3472 216.7508 513.2473 215.2978 513.6944 214.9625 514.4768 213.5095 512.912 212.0564 511.9061 210.3799 511.5707 208.368 512.4649 206.3561 513.4708 204.7913 513.5826 204.1207 513.3591 203.1147 512.912 202.2206 512.3531 201.7735 512.0178 201.1029 511.9061 200.0969 512.2414 199.2028 513.2473 197.1909 513.5826 196.1849 513.5826 195.5143 513.4708 194.3966 513.1355 192.4965 512.5767 190.4846 512.4649 189.7022 512.4649 188.4727 512.4649 187.9139 512.6884 187.5785 512.6884 187.2432 512.5767 186.5726 512.4649 186.2373 512.5767 184.6725 513.2473 184.449 513.4708 183.7783 513.2473 182.8842 512.8002 182.5488 512.0178 182.4371 511.6825 181.8782 511.3472 180.6487 510.3413 178.1898 509.6706 177.1838 508.3294 175.619 507.8823 174.9484 507.7705 174.166 508.2176 173.3836 508.4411 172.2659 509.3353 171.8188 512.1296 172.0424 513.3591 171.9306 514.0297 171.26 515.818 168.6892 516.1534 167.5715 516.0416 166.1185 516.2651 165.6714 516.824 164.889 518.3888 163.5477 518.6123 162.9889 518.9476 162.0947 520.6242 159.7475 521.0713 159.0769 521.9655 158.9651 524.8715 158.9651 525.3186 158.6298 527.8893 157.5121 529.4541 156.2826 530.9072 154.8296 532.2484 152.4824 532.4719 152.4824 533.0308 152.5942 533.1426 152.4824 533.2543 152.1471 533.3661 151.7 533.3661 151.3647 533.1426 151.3647 533.8132 150.8058 534.3721 150.5823 535.8251 150.4705 535.8251 150.0234 537.5017 147.2292 537.6134 146.7821 537.3899 146.4468 537.3899 145.8879 537.7252 145.329 538.8429 144.0996 540.9666 140.8582 540.5195 140.2993 539.9606 139.4052 538.0605 137.3933 536.0486 136.052 533.8132 135.2696 530.1248 134.4872 529.5659 134.4872 529.2306 134.7108 528.8953 135.1579 528.3364 135.605 527.554 135.9403 527.1069 136.052 525.8774 135.605 525.2068 134.599 524.9833 133.3695 524.8715 132.2518 524.648 131.693 524.4244 131.1341 524.2009 130.687 524.5362 130.1282 524.8715 129.5693 524.9833 129.0105 526.101 124.0925 526.6598 122.9748 525.4304 122.5277 524.648 122.416 524.3127 121.9689 524.648 119.3981 524.5362 118.3922 523.8656 117.6098 522.7479 117.1627 522.189 118.504 520.6242 118.951 517.4946 119.0628 516.0416 118.7275 514.4768 116.1568 513.0238 115.8215 512.8002 117.7216 511.6825 118.3922 508.8882 118.6157 507.6587 118.2804 506.541 117.498 505.8704 117.1627 505.5351 116.9392 504.4174 117.7216 502.8526 118.3922 501.3996 117.7216 500.0583 116.6039 498.6053 115.5979 497.9347 115.7097 497.1523 116.1568 496.4816 116.7156 496.1463 117.0509 496.0345 117.9451 496.3699 119.8452 496.2581 120.8512 495.6992 121.6336 495.2521 122.1924 493.7991 123.1983 490.5578 124.3161 489.7754 124.4278 488.0988 124.3161 487.4282 124.4278 486.8693 124.8749 485.7516 126.1044 485.1927 126.6633 484.9692 125.6573 484.5221 124.6514 483.9633 123.869 483.2926 123.6454 482.9573 123.5337 482.1749 123.0866 481.8396 123.0866 481.5043 123.4219 481.5043 123.7572 481.3925 124.0925 481.169 124.5396 480.4983 125.0985 479.6042 125.4338 478.5982 125.5455 477.8158 125.4338 477.0334 125.0985 477.0334 124.5396 477.7041 122.5277 475.3569 122.5277 474.5745 122.0806 473.2332 121.1865 472.5626 120.9629 471.3331 121.6336 468.5388 122.3042 467.3094 122.3042 466.7505 122.416 466.6387 122.7513 466.4152 123.1983 466.0799 123.5337 464.7386 123.5337 464.4033 121.7453 464.2915 120.0688 463.3974 120.4041 463.1738 121.1865 462.9503 122.1924 462.5032 122.9748 461.7208 122.9748 460.9384 122.863 460.2678 123.1983 459.7089 123.7572 459.2618 124.4278 457.8088 125.9926 457.697 125.9926 455.7969 126.6633 451.8849 126.3279 451.8849 126.2162 452.1085 124.7631 451.9967 123.9807 451.6614 123.5337 450.0966 122.863 449.5377 121.7453 449.6495 120.6276 450.0966 119.6217 451.7732 116.9392 453.1144 115.7097 454.4557 114.8155 455.1263 114.2567 455.5734 113.4743 455.6851 112.3565 455.3498 111.4624 454.6792 110.7917 453.785 110.4564 452.8909 110.5682 452.1085 110.9035 451.3261 111.1271 450.7672 110.68 450.6554 109.674 450.7672 107.1033 450.4319 106.0974 449.9848 105.5385 448.6436 106.5444 447.7494 106.8798 446.967 106.8798 446.6317 106.9915 446.2964 107.2151 445.0669 108.3328 444.3963 108.6681 437.3547 109.7858 436.5723 110.1211 435.0075 111.2388 434.1133 111.5741 432.5485 111.5741 431.6543 111.7977 430.9837 112.3565 430.5366 113.0272 430.0895 114.2567 429.7542 114.9273 428.7483 115.4861 427.6306 115.8215 426.6246 116.3803 426.0658 116.7156 425.6187 117.7216 424.9481 118.7275 424.0539 119.3981 423.1597 119.6217 422.3773 120.0688 421.7067 120.9629 420.9243 121.6336 420.2537 121.41 420.3655 120.5158 419.4713 108.6681 419.5831 107.6622 420.0301 107.2151 421.8185 107.2151 422.7127 106.9915 423.048 106.4327 422.8244 105.8738 421.9303 105.5385 421.8185 105.0914 422.042 104.8679 423.1597 104.309 423.2715 103.9737 423.3833 103.4149 423.6068 102.856 424.0539 102.6325 424.2774 102.4089 425.1716 101.403 427.5188 99.5029 428.0777 99.2793 428.3012 99.1675 429.7542 97.8263 430.5366 97.491 431.5426 96.8204 431.7661 96.485 431.9897 96.038 431.9897 94.1378 431.8779 93.6908 431.7661 93.6908 431.319 93.8025 430.6484 94.4732 430.2013 95.5909 429.5307 96.7086 428.413 97.1557 427.5188 97.3792 425.0598 98.4969 424.6128 99.0558 424.0539 99.1675 421.7067 98.944 420.8125 99.2793 421.0361 98.4969 421.4832 97.1557 421.4832 96.2615 421.8185 96.2615 422.3773 97.2674 422.7127 96.8204 422.7127 94.8085 422.6009 94.3614 422.4891 94.0261 422.7127 93.9143 423.2715 93.8025 424.9481 94.1378 425.1716 94.0261 425.5069 93.2437 427.1835 91.2318 427.9659 90.4494 429.4189 89.4435 430.0895 88.8846 430.4249 87.9904 429.9778 88.214 429.6425 88.1022 429.1954 87.9904 428.7483 87.9904 428.6365 88.1022 428.5248 88.214 427.5188 88.7728 426.4011 89.667 425.8422 90.1141 424.8363 90.3376 423.3833 90.4494 421.9303 90.2259 420.8125 89.5552 420.4772 88.8846 420.2537 87.7669 419.9184 87.0963 419.3595 86.7609 417.7947 86.5374 417.4594 86.3139 417.7947 85.6432 418.5771 85.1961 419.5831 84.7491 420.2537 84.6373 420.8125 84.7491 421.1479 85.3079 421.1479 85.8668 420.589 86.3139 420.9243 86.5374 421.5949 86.7609 422.2656 86.8727 422.7127 86.7609 422.8244 86.0903 422.7127 85.3079 422.7127 84.7491 423.2715 84.1902 422.7127 82.0666 422.7127 81.0606 422.8244 80.1664 423.2715 79.384 423.8304 78.937 424.3892 78.7134 424.9481 77.931 426.6246 74.2426 426.96 72.7895 426.7364 72.7895 426.4011 73.7955 425.954 74.8014 425.3952 75.4721 424.6128 75.8074 423.7186 75.4721 423.1597 74.6897 422.7127 73.6837 422.1538 73.2366 421.3714 74.4661 421.3714 75.2485 421.8185 75.8074 420.8125 77.1486 420.2537 77.4839 419.5831 77.0369 419.8066 76.3662 419.2477 76.7015 417.6829 77.8193 418.3536 78.6017 417.7947 79.0487 416.2299 79.4958 416.1182 79.8311 415.7828 81.2842 415.3358 81.3959 415.0004 81.7312 414.3298 82.5136 413.6592 81.7312 413.5474 80.6135 413.3239 79.6076 412.3179 79.1605 411.6473 78.4899 411.8708 77.0369 412.5415 75.4721 413.1003 74.4661 413.1003 73.7955 413.2121 72.9013 413.5474 71.6718 413.9945 70.8894 414.218 70.4424 414.5534 69.9953 415.1122 69.8835 415.224 69.66 416.5652 68.9893 417.6829 67.3128 418.3536 66.7539 419.4713 66.4186 419.8066 65.9715 420.0301 65.0773 419.9184 64.0714 419.0242 63.5125 418.8007 64.9656 418.13 65.8597 417.1241 66.3068 415.8946 66.4186 413.5474 66.0833 412.6532 66.3068 412.765 67.3128 411.7591 68.4305 411.2002 68.7658 410.3061 68.5422 409.7472 68.0952 409.4119 67.3128 409.1883 66.3068 408.7413 65.1891 409.3001 65.1891 409.7472 64.9656 410.0825 64.5185 410.3061 63.9596 409.9707 63.1772 409.3001 62.7301 408.5177 62.3948 408.4059 61.9477 408.1824 61.1653 408.1824 60.7183 408.2942 60.4947 408.6295 60.0476 408.7413 59.7123 408.853 59.1535 408.7413 58.7064 408.5177 58.4828 407.7353 58.3711 407.2882 58.1475 406.6176 57.0298 406.0587 56.8063 406.0587 57.1416 406.2823 57.8122 406.0587 58.1475 405.6117 58.2593 405.3881 58.2593 405.1646 57.3651 404.7175 57.3651 404.2704 57.7004 403.8233 58.0358 403.488 58.5946 403.0409 59.8241 402.7056 60.3829 402.4821 60.2712 402.035 58.8182 401.6997 58.3711 401.6997 58.0358 401.9232 57.4769 402.9292 54.9062 402.9292 54.4591 403.0409 54.012 403.1527 53.4531 403.3762 53.1178 403.488 52.559 403.2645 52.2237 402.5938 51.6648 402.2585 50.2118 402.5938 49.8765 403.2645 49.8765 403.488 49.3176 403.8233 48.1999 404.2704 47.641 404.8293 47.3057 405.0528 46.5233 405.7234 47.1939 406.2823 47.3057 406.8411 47.0822 407.5118 46.5233 407.7353 46.188 407.8471 45.9645 408.0706 45.6292 408.5177 45.2938 408.853 45.0703 409.1883 44.9585 409.9707 44.9585 409.9707 44.5114 409.1883 44.8468 408.1824 45.0703 407.5118 44.9585 407.5118 44.5114 406.0587 45.1821 405.4999 45.0703 405.0528 44.0644 407.1765 41.9407 408.6295 41.1583 410.3061 41.9407 411.0884 41.9407 411.8708 41.7172 412.5415 41.4936 413.1003 41.0465 413.6592 40.5994 414.1063 39.8171 414.3298 38.9229 414.6651 38.9229 415.5593 39.5935 416.677 39.5935 417.9065 39.0347 418.6889 38.4758 417.6829 38.5876 417.2359 38.1405 416.5652 36.7992 416.3417 36.7992 415.7828 36.4639 415.4475 36.1286 415.7828 35.9051 416.2299 35.9051 418.0183 35.1227 419.9184 33.7814 421.3714 33.4461 421.7067 32.999 422.042 32.6637 422.4891 32.5519 423.1597 32.8872 424.501 34.3403 425.2834 34.6756 426.1776 34.7873 427.8541 35.3462 428.7483 35.458 429.9778 35.0109 431.5426 34.1167 433.2191 33.5579 434.7839 34.2285 437.1311 33.1108 437.5782 32.7755 437.69 32.2166 438.0253 31.6578 438.4724 31.3224 439.4783 31.0989 439.5901 30.8754 439.7019 30.6518 440.0372 30.4283 442.4961 29.7576 442.6079 30.54 443.055 31.2107 444.0609 32.1048 444.6198 31.3224 444.7316 30.7636 444.6198 29.3106 445.0669 28.5282 445.9611 28.6399 447.3023 29.5341 447.9729 29.7576 448.1965 30.3165 448.42 30.9871 448.7553 31.6578 449.7613 32.6637 450.2084 33.3343 450.5437 34.2285 450.879 33.2226 450.879 32.3284 450.5437 30.4283 450.5437 29.4223 450.7672 28.8635 451.2143 28.4164 452.1085 27.8575 451.2143 27.4105 450.4319 27.2987 448.8671 27.4105 448.0847 27.1869 446.967 25.9574 446.1846 25.7339 447.0788 25.0633 451.6614 24.3926 451.9967 24.2809 452.2202 24.0573 452.4438 23.6102 452.4438 23.1631 452.2202 23.0514 451.1025 23.6102 448.42 24.0573 448.5318 23.8338 448.6436 23.722 448.9789 23.6102 448.8671 23.3867 448.42 23.1631 447.8612 23.9455 446.967 24.2809 444.9551 24.3926 445.2904 23.4985 445.514 22.1572 445.7375 21.263 446.1846 21.4866 446.8552 20.5924 446.4081 20.2571 446.0728 19.81 445.8493 19.1394 445.8493 18.4688 446.0728 18.4688 446.8552 18.5805 447.1905 18.4688 448.1965 18.5805 449.5377 17.9099 456.1322 12.8802 456.244 13.5508 456.6911 13.9979 457.1382 13.9979 457.697 13.7744 457.2499 13.7744 457.0264 13.7744 457.0264 13.3273 457.2499 13.2155 457.4735 12.992 457.697 12.8802 456.8029 12.2096 456.6911 11.5389 456.9146 10.8683 457.0264 10.0859 457.3617 9.6388 458.0323 9.4153 459.4854 9.4153 460.8266 9.08 462.1679 8.2976 463.2856 7.2916 464.1798 6.0622 465.4092 6.1739 465.9681 7.0681 466.3034 8.1858 466.974 9.08 466.974 9.4153 466.6387 9.3035 466.1916 9.1917 465.9681 9.08 465.6328 9.6388 465.521 10.1977 465.4092 10.6448 465.7446 11.0919 465.2975 11.5389 465.0739 11.4272 464.7386 11.0919 464.5151 11.4272 464.4033 11.5389 464.1798 11.6507 464.1798 11.986 466.4152 12.2096 466.8623 11.6507 465.9681 10.3095 466.527 9.9741 467.0858 9.9741 468.2035 10.3095 468.0917 10.0859 467.98 9.6388 467.8682 9.4153 468.5388 8.7447 469.3212 8.074 470.2154 7.5152 472.0037 7.0681 473.0097 6.3975 473.7921 5.5033 474.0156 4.4974 474.2392 4.3856 474.5745 4.4974 474.9098 4.9444 475.0216 5.6151 474.798 6.0622 473.7921 7.2916 473.6803 8.1858 473.9039 8.5211 474.2392 8.4094 474.6862 8.1858 474.798 8.074 474.6862 7.7387 474.798 7.4034 475.1333 7.2916 475.4686 7.2916 476.251 6.8446 476.3628 7.7387 477.4805 9.8624 477.3688 10.8683 477.7041 10.7565 478.2629 9.9741 478.71 9.08 479.2689 9.3035 479.6042 8.9682 480.0513 8.4094 480.7219 8.1858 482.5102 8.4094 483.0691 8.6329 486.7575 10.7565 488.5459 11.4272 491.4519 16.4569 493.5756 17.5746 493.4638 17.7981 493.352 18.0217 493.2403 18.2452 492.905 18.357 492.905 18.8041 493.5756 19.1394 493.9109 18.9158 494.2462 18.5805 494.8051 18.357 495.4757 18.357 496.3699 18.6923 498.0464 18.9158 500.8407 18.8041 501.6231 18.357 502.4055 18.8041 503.1879 18.9158 503.7468 19.3629 503.7468 20.5924 503.4114 21.263 502.9644 22.0454 502.7408 22.8278 503.1879 23.9455 503.4114 23.9455 503.635 22.9396 503.8585 21.9337 504.0821 21.0395 504.7527 20.5924 505.088 19.1394 507.6587 18.5805 512.1296 18.357 512.8002 18.5805 515.4827 18.357 517.3828 18.9158 518.5006 19.0276 521.0713 17.6864 523.3067 17.9099 525.6539 18.8041 527.3305 19.6982 527.7776 19.3629 528.2246 19.2512 529.4541 19.2512 529.3424 18.9158 529.2306 18.2452 529.1188 17.9099 529.7894 18.0217 530.7954 18.6923 531.466 18.8041 533.8132 18.357 536.1604 18.357 536.7193 18.2452 537.9487 17.6864 539.0664 17.4628 539.29 17.1275 539.6253 16.7922 540.2959 16.6804 541.749 17.7981 542.3078 17.9099 545.7727 18.357 546.4433 17.9099 547.2257 18.357 547.8964 18.0217 548.567 17.4628 549.2376 17.1275 554.4909 17.1275 554.7144 16.5686 554.3791 16.1216 554.2673 15.5627 554.8262 15.0039 554.7144 14.7803 554.6026 14.3332 554.4909 14.1097 555.9439 14.1097 556.5028 13.8861 556.7263 13.1037 556.9498 12.4331 557.7322 12.5449 559.1853 13.2155 560.1912 14.1097 562.6502 17.0157 563.4326 18.357 563.7679 18.357 563.9914 17.4628 564.3267 17.7981 564.8856 18.8041 567.2328 19.2512 576.2862 18.8041 577.7393 19.2512 577.851 20.0336 577.2922 21.0395 576.5098 21.8219 576.7333 22.269 577.2922 21.9337 578.1864 21.5983 578.6334 21.3748 578.9688 20.9277 579.0805 20.5924 579.3041 20.2571 579.9747 20.1453 581.8748 20.2571 582.6572 20.5924 585.8986 22.7161 587.4634 23.2749 591.3754 23.4985 592.3813 23.8338 592.9402 24.6162 593.3872 24.2809 596.6286 25.175 596.9639 25.0633 597.6345 24.5044 598.0816 24.3926 598.6405 24.5044 599.6464 25.0633 602.8878 25.7339 606.5762 27.5222 607.4704 27.7458 617.5298 28.6399 617.6416 28.7517 618.8711 29.8694 619.7652 28.9752 621.1065 28.7517 622.336 29.087 623.2301 29.8694 623.4537 29.8694 624.0125 29.087 624.3479 28.8635 626.4715 29.087 632.0601 28.5282 633.4013 27.5222 636.1956 26.6281 637.3133 26.5163 639.3252 26.5163 639.5487 26.2927 639.5487 26.0692 639.6605 25.7339 639.9958 25.6221 640.3311 25.7339 641.4488 26.5163 641.6724 26.181 641.8959 26.0692 642.1195 26.0692 642.343 26.0692 642.2312 25.9574 641.7842 25.6221 641.7842 25.175 643.349 24.0573 644.1314 23.722 644.802 23.9455 645.3608 23.6102 645.5844 23.6102 645.8079 23.9455 647.0374 23.1631 648.4904 22.8278 649.8317 23.0514 651.0612 23.9455 649.0493 24.8397 648.2669 25.3986 647.5963 26.0692 648.1551 26.6281 648.3787 26.8516 648.6022 26.9634 648.3787 26.9634 648.2669 26.9634 648.2669 27.0751 648.2669 27.2987 648.714 27.4105 649.1611 27.2987 649.8317 26.9634 650.167 26.6281 650.7259 25.7339 650.9494 25.6221 651.2847 25.7339 651.7318 26.2927 652.1789 26.5163 652.2906 26.181 652.1789 25.6221 651.9553 25.0633 651.62 24.8397 651.62 24.3926 652.2906 24.5044 652.5142 24.6162 652.8495 24.8397 652.9613 24.5044 653.1848 24.3926 652.8495 23.9455 653.4084 23.722 654.6378 23.6102 655.1967 23.2749 655.6438 22.8278 656.2026 22.6043 659.5558 21.4866 660.7853 21.5983 660.6735 22.7161 661.4559 22.7161 662.0147 23.1631 662.5736 23.722 662.9089 23.9455 666.0385 24.5044 666.262 24.7279 666.4856 25.0633 666.4856 25.3986 666.3738 25.9574 666.262 26.0692 665.9267 25.9574 665.5914 26.0692 665.3679 25.8457 664.9208 25.6221 664.5855 25.5103 664.3619 25.8457 664.2502 26.181 663.8031 26.5163 663.1325 26.9634 664.0266 27.0751 664.4737 27.8575 664.9208 28.0811 665.5914 26.9634 666.0385 27.634 666.7091 27.7458 668.0504 27.2987 668.721 27.4105 670.8447 28.1928 673.6389 28.6399 675.6508 29.4223 676.3215 29.5341 676.7685 29.7576 677.7745 30.9871 679.004 31.3224 679.7864 31.6578 680.6805 31.7695 681.6865 30.8754 683.1395 31.7695 685.3749 33.7814 685.3749 33.3343 684.8161 31.7695 684.7043 30.9871 684.4807 30.54 684.4807 30.3165 684.7043 30.093 685.2631 29.8694 685.822 29.1988 687.7221 27.9693 688.5045 27.7458 688.5045 27.2987 688.1692 27.2987 688.1692 26.9634 688.9516 26.5163 690.0693 26.4045 692.3047 26.5163 694.5402 26.2927 695.4343 25.8457 696.2167 25.6221 696.7756 25.7339 697.7815 26.4045 698.6757 27.2987 699.011 27.9693 699.5699 29.5341 699.6816 30.8754 699.9052 30.6518 700.2405 29.5341 700.2405 29.1988 700.2405 28.8635 700.3523 28.5282 700.5758 28.1928 701.0229 28.0811 701.5817 28.3046 702.1406 28.5282 703.4818 28.7517 706.1644 29.8694 708.0645 30.3165 709.0704 30.6518 709.9646 31.9931 714.3237 34.1167 716.112 34.6756 718.1239 34.8991 720.024 34.6756 721.5888 34.2285 722.0359 34.1167 722.3712 34.3403 722.5947 34.7873 723.0418 35.2344 723.6007 35.458 723.7124 35.3462 723.8242 35.2344 724.0477 35.1227 724.3831 35.0109 724.6066 35.1227 724.7184 35.458 724.8301 35.6815 725.1655 35.9051 726.5067 34.7873 727.0656 34.6756 727.9597 34.452 731.2011 33.3343 732.207 32.6637 732.7659 32.4402 733.3248 32.4402 733.8836 32.8872 734.2189 33.4461 734.5542 33.7814 735.2249 33.3343 735.0013 33.1108 734.5542 32.6637 734.3307 32.4402 736.119 31.546 737.7956 30.093 739.4722 29.1988 740.2546 29.7576ZM910.8174 87.9904L909.6997 87.8787 909.1408 87.3198 909.029 86.6492 909.5879 85.5315 910.035 85.3079 910.5938 85.8668 911.0409 86.9845 911.488 87.7669 911.3762 87.8787 910.9292 87.9904 910.8174 87.9904ZM11.5065 897.9961L12.4007 898.1079 13.1831 898.555 13.7419 899.2256 13.9655 899.8963 13.7419 900.6787 11.8418 903.5847 11.73 903.8083 11.8418 904.1436 11.8418 904.4789 11.6183 904.8142 11.3947 904.926 11.1712 905.0377 10.9476 905.1495 10.9476 905.4848 10.7241 905.7084 10.3888 906.0437 10.0535 906.379 9.9417 906.8261 9.8299 908.0556 9.3828 908.6144 8.7122 908.6144 7.818 908.0556 7.1474 907.3849 6.7003 906.7143 6.1415 906.1554 2.7883 905.7084 1.8942 905.2613 1.2235 904.5906 1 902.8023 2.1177 902.2435 4.1296 902.3552 5.9179 902.8023 6.5886 902.3552 8.3769 900.6787 8.7122 900.2316 8.7122 899.6727 8.9358 899.4492 9.9417 899.0021 11.5065 897.9961ZM126.2955 888.8309L126.6308 889.1662 127.3014 889.6133 127.525 889.9486 127.4132 890.731 127.0779 891.6252 126.9661 892.5194 127.525 893.4135 127.525 893.7488 127.0779 893.9724 126.7426 894.4195 126.2955 895.5372 126.6308 896.2078 126.9661 897.2138 126.8543 897.9961 126.1837 898.2197 125.6249 898.6668 124.1718 900.4551 123.5012 901.014 120.3716 902.0199 119.8128 902.3552 119.5892 902.3552 118.3597 903.6965 117.9127 903.92 117.3538 903.6965 117.0185 903.3612 116.5714 903.1376 114.5595 903.0259 113.7771 902.8023 112.9947 902.467 110.5358 900.3433 110.2004 899.8963 109.9769 899.5609 109.0827 899.0021 108.6356 898.6668 108.4121 898.3315 107.1826 895.4254 106.8473 894.4195 107.0708 893.4135 106.9591 892.8547 106.8473 891.9605 106.8473 891.1781 107.0708 890.6193 107.5179 890.1722 109.3063 889.1662 110.0887 888.6074 111.2064 887.4897 111.9888 886.2602 111.7652 885.0307 112.2123 884.4718 112.4359 883.5777 112.3241 882.5717 112.1006 881.7893 112.5476 881.7893 113.1065 881.7893 113.5536 881.9011 113.8889 882.1246 114.5595 882.0129 117.0185 882.7953 120.3716 882.7953 123.2777 883.5777 124.2836 883.1306 124.1718 881.454 125.5131 881.2305 125.6249 881.3422 125.8484 881.9011 125.8484 882.3482 125.5131 882.5717 125.1778 883.1306 125.1778 884.5836 125.5131 886.5955 125.6249 886.9308 125.7366 887.4897 125.9602 888.1603 126.2955 888.8309ZM39.6728 879.7774L41.9083 879.2186 44.0319 879.8892 45.932 881.1187 48.391 882.907 48.9498 884.1365 49.1734 885.2542 48.5028 886.2602 47.6086 886.819 46.2673 888.0485 45.2614 888.8309 44.2554 889.0545 43.1377 889.3898 42.02 889.1662 39.6728 887.7132 38.108 885.366 38.108 883.5777 38.3316 881.6776 39.6728 879.7774ZM79.4634 882.6835L78.9045 883.5777 78.2339 884.4718 75.2161 887.4897 74.5454 888.4956 74.2101 889.1662 72.6453 888.8309 70.1864 889.8369 69.0686 890.1722 68.2862 890.5075 67.5039 890.3957 67.0568 889.7251 66.945 889.1662 67.0568 888.6074 66.6097 888.3838 66.2744 888.1603 66.1626 887.7132 66.0508 886.7073 65.9391 886.3719 65.2684 885.5895 63.5919 883.8012 63.1448 883.0188 62.9212 881.9011 62.2506 881.1187 61.4682 880.3363 61.0211 879.6657 60.6858 877.4303 60.574 876.9832 59.9034 875.9772 59.3446 874.7477 57.8915 873.1829 57.4444 872.177 58.5622 871.5064 61.0211 870.3887 61.9153 870.724 62.9212 871.5064 63.4801 871.6182 64.0389 871.6182 65.2684 871.2828 66.2744 870.724 67.7274 870.2769 68.8451 869.8298 69.7393 870.0534 71.5276 869.9416 72.4218 869.8298 73.316 869.1592 74.4337 868.9356 74.9925 868.8239 75.8867 868.7121 76.7809 867.9297 78.9045 866.0296 79.7987 865.2472 80.134 864.8001 80.2458 864.0177 80.3575 863.7942 81.2517 863.2353 81.587 863.0118 82.3694 862.5647 83.3754 862.3411 84.2695 862.0058 84.4931 861.1117 85.2755 861.3352 89.6345 861.447 92.4288 860.441 93.4348 861.1117 93.0994 862.5647 91.6464 863.4589 88.4051 865.359 87.6227 866.812 86.6167 867.7062 85.3872 868.9356 84.1578 870.0534 83.3754 870.3887 82.7047 870.8358 82.2576 871.8417 82.2576 872.9594 82.4812 873.7418 82.593 874.3007 82.4812 874.8595 82.0341 875.1948 81.6988 875.6419 81.3635 876.8714 79.9105 879.5539 79.4634 881.7893 79.4634 882.6835ZM190.3404 852.6171L192.0169 851.9464 193.6935 851.7229 195.2583 852.17 196.4878 853.7348 197.0466 855.4113 197.1584 857.7585 196.8231 862.1176 196.5996 863.2353 195.7054 865.1354 195.5936 865.8061 195.4818 867.5944 195.5936 868.1532 195.7054 868.4886 196.1525 869.1592 196.1525 869.4945 195.9289 870.0534 195.1465 870.8358 195.0348 871.0593 194.923 871.5064 194.923 872.0652 194.6994 872.5123 194.0288 873.63 193.5817 874.4124 193.1347 876.2008 192.1287 877.8773 190.5639 878.7715 185.8695 879.5539 183.7459 880.1128 182.2928 881.2305 180.5045 881.6776 179.4986 882.1246 178.0455 883.8012 176.8161 885.4778 175.4748 886.9308 173.5747 887.825 172.457 887.825 170.6686 886.9308 169.7745 886.7073 166.7567 886.9308 166.1978 886.7073 166.4213 886.5955 166.5331 885.9249 166.6449 885.366 166.6449 885.1425 166.9802 885.0307 168.545 885.366 169.4392 885.2542 171.1157 884.6954 173.6865 883.4659 176.9278 881.3422 178.2691 880.1128 178.9397 879.2186 179.4986 878.3244 179.7221 877.3185 179.9457 874.8595 180.3927 873.9653 181.3987 872.4006 182.5164 868.7121 182.7399 868.1532 183.2988 867.7062 184.64 865.4707 185.646 862.9 187.4343 860.3293 187.9932 857.7585 188.6638 856.1937 188.8873 854.2936 189.1109 853.623 189.558 853.0641 190.3404 852.6171ZM19.554 848.3697L19.4422 849.3757 19.7776 850.6052 20.2246 851.4993 21.007 851.9464 21.1188 852.9524 19.7776 854.5172 19.1069 855.6349 19.4422 856.6408 20.0011 858.5409 19.6658 859.4351 19.3305 860.7763 18.3245 862.2294 17.4304 864.2413 16.5362 866.0296 16.0891 867.0355 15.8656 867.0355 15.642 866.5884 14.6361 866.0296 14.3008 865.0237 13.9655 862.5647 13.4066 861.8941 13.0713 861.1117 12.1771 859.7704 11.8418 858.6527 10.1652 855.9702 9.9417 854.6289 9.8299 853.8465 9.6064 853.0641 8.824 852.5053 8.3769 851.9464 8.6004 850.3816 9.8299 848.7051 11.3947 847.252 12.5124 846.4696 13.4066 847.0285 14.5243 847.252 15.642 847.4756 17.4304 846.805 18.3245 847.1403 19.1069 847.8109 19.554 848.3697ZM212.4711 826.5744L213.2535 826.4626 214.1476 827.0215 215.3771 828.2509 214.93 829.2569 214.8183 830.151 214.4829 830.8217 213.5888 831.3805 213.3652 832.1629 213.477 832.9453 213.8123 833.616 213.8123 834.6219 213.8123 834.9572 213.3652 835.6278 213.2535 836.0749 213.2535 836.4102 213.2535 837.3044 213.2535 837.7515 212.4711 839.0927 211.2416 840.2105 209.7886 840.9928 207.6649 841.5517 207.2178 841.9988 206.7707 842.4459 206.3237 842.6694 205.5413 842.7812 204.5353 843.0047 203.7529 843.1165 202.1881 843.4518 201.0704 844.346 200.0645 845.6872 199.2821 847.252 198.9468 847.252 198.4997 846.5814 197.6055 846.2461 195.4818 846.2461 195.1465 846.0226 194.8112 845.3519 194.6994 844.7931 194.8112 844.4578 195.3701 844.346 195.7054 843.8989 196.1525 843.1165 196.376 842.2223 196.5996 839.6516 196.7113 838.981 198.1644 836.522 198.9468 835.6278 199.6174 835.1807 200.3998 834.8454 201.1822 834.6219 202.2999 834.6219 203.0823 834.2866 204.6471 833.0571 205.5413 832.4982 206.3237 832.1629 207.1061 832.0512 209.3415 832.0512 210.0121 831.8276 210.4592 831.2688 211.018 830.0393 211.5769 828.2509 211.9122 827.3568 212.4711 826.5744ZM212.2475 824.3389L212.6946 825.2331 212.024 826.4626 210.9063 827.3568 209.7886 827.1332 209.7886 826.7979 210.571 826.0155 210.9063 824.8978 211.3534 824.0036 212.2475 824.3389ZM788.0926 365.1829L787.7573 366.4124 787.7573 367.7537 788.4279 369.8773 787.5338 368.8714 787.3102 367.1948 787.3102 365.2947 787.1985 363.6182 787.422 363.6182 787.422 363.7299 787.422 363.8417 787.5338 364.0652 787.6455 364.2888 787.8691 364.8476 788.0926 365.1829ZM890.1397 311.7563L891.9281 310.9739 892.7105 311.8681 892.5987 313.2094 891.5927 313.4329 890.0279 313.4329 887.7925 311.9799 887.0101 311.5328 886.2277 312.2034 885.7806 312.5387 884.9982 313.5447 884.3276 313.9917 883.657 313.7682 883.8805 312.6505 883.657 312.2034 883.657 311.6446 883.8805 311.1975 884.1041 310.6386 884.1041 310.1915 883.8805 309.968 883.657 309.7444 883.8805 309.4091 884.4394 308.7385 884.7747 309.0738 885.2218 308.8503 885.6689 308.1796 885.8924 307.2855 886.0042 307.2855 886.116 307.2855 886.116 307.509 886.116 307.6208 888.3514 310.7504 890.1397 311.7563ZM893.7164 287.7255L893.4928 288.2844 893.8282 289.4021 894.4988 291.414 893.7164 291.414 893.1575 291.8611 892.8222 292.6435 892.5987 293.5376 892.3751 293.8729 890.8103 294.9906 889.3573 297.1143 888.7985 297.5614 887.569 298.232 887.1219 298.9026 886.8983 298.6791 886.6748 298.3438 886.4513 298.1202 885.7806 299.1262 885.11 299.4615 884.6629 301.3616 884.5512 302.8146 883.0981 302.8146 882.651 301.6969 881.8686 301.0263 881.198 301.3616 880.8627 301.3616 880.7509 301.2498 880.3039 301.3616 879.9685 300.5792 879.1861 300.3557 878.4037 300.5792 878.0684 301.3616 876.7272 300.3557 876.1683 299.685 875.9448 298.6791 876.5036 297.3378 876.6154 296.4437 876.2801 295.773 876.6154 295.326 877.0625 295.1024 877.6213 294.9906 878.0684 295.326 878.4037 294.9906 878.8508 294.8789 879.9685 294.9906 879.5215 292.5317 879.6332 291.0787 880.0803 290.5198 880.7509 290.2963 881.4216 289.7374 882.5393 288.5079 882.7628 288.5079 883.2099 288.955 884.1041 288.1726 884.5512 288.5079 885.4453 287.8373 886.6748 287.1667 888.0161 286.8314 888.9102 286.9431 889.3573 286.3843 890.0279 286.1607 890.5868 286.1607 891.3692 286.8314 891.7045 286.9431 892.4869 286.9431 893.0458 287.0549 893.3811 287.3902 893.7164 287.7255ZM972.7386 247.2644L973.9681 247.5997 976.5388 249.1645 978.1036 249.2762 977.8801 249.8351 977.8801 250.3939 977.9919 250.841 978.1036 251.2881 977.8801 251.6234 977.6565 251.847 977.5448 252.1823 977.7683 252.9647 977.2095 254.5295 976.6506 255.4237 976.0917 255.759 975.3094 255.9825 974.8623 256.6531 974.6387 257.6591 974.974 258.5532 973.1857 260.2298 971.2856 262.4652 969.8326 265.3713 969.3855 268.6127 968.9384 268.2773 968.8266 268.1656 968.0442 270.6245 966.703 272.0776 962.5674 274.6483 960.7791 276.2131 960.4438 276.7719 960.2202 276.9955 959.8849 277.219 959.4378 277.4426 959.2143 277.219 957.9848 275.3189 957.7613 275.0954 956.9789 274.7601 956.7553 274.5365 956.5318 273.9777 956.42 273.4188 956.3083 272.86 955.9729 272.6364 955.5259 272.5246 954.8552 271.854 954.4081 271.7422 953.8493 271.854 953.1787 272.0776 952.7316 272.1893 948.8196 271.854 947.0312 271.1834 945.9135 269.7304 945.4664 266.6008 944.7958 266.1537 944.9076 265.1477 945.5782 263.8065 945.1311 262.577 943.7899 261.3475 942.3369 260.4534 941.1074 260.118 940.1014 260.4534 937.1954 262.0182 936.6365 262.6888 936.0777 264.3653 934.96 265.4831 933.7305 265.7066 932.9481 264.1418 932.8363 264.03 932.7245 263.5829 932.8363 263.2476 933.2834 262.9123 932.0539 261.6828 931.6068 262.2417 931.2715 262.4652 931.048 262.2417 930.7127 261.6828 929.4832 262.4652 929.2596 262.577 928.8125 262.2417 928.3655 261.124 927.5831 260.4534 927.3595 259.4474 927.3595 258.2179 927.6948 257.3238 930.9362 255.3119 931.8304 255.0883 932.7245 254.5295 934.8482 252.1823 935.5188 251.847 936.5248 251.7352 937.1954 251.3999 937.9778 250.841 939.4308 249.2762 939.6543 248.9409 939.8779 248.2703 939.9897 248.0468 940.2132 248.0468 940.7721 248.1585 940.9956 248.0468 942.0015 246.929 942.2251 246.7055 942.4486 246.5937 943.3428 245.476 943.5663 245.2525 943.9017 245.1407 945.2429 244.4701 945.9135 243.9112 946.4724 243.3524 946.9195 243.0171 947.5901 242.7935 947.8136 242.6817 948.0372 242.1229 948.2607 242.0111 949.1549 242.1229 949.602 242.0111 950.9432 241.4523 953.6257 239.5521 955.0788 239.2168 957.6495 238.9933 960.1085 238.3227 964.8029 236.4226 965.3617 237.205 965.5853 236.9814 965.8088 236.8696 966.3677 237.205 965.9206 237.5403 964.244 238.3227 963.6851 238.4344 963.0145 238.7697 962.4557 239.4404 961.8968 239.8875 961.338 239.6639 961.0026 239.6639 961.0026 241.564 962.5674 241.7876 966.0323 240.8934 966.0323 241.2287 965.5853 241.564 965.4735 241.8993 965.5853 242.3464 965.3617 242.7935 965.1382 243.1288 964.9146 243.3524 964.1322 243.5759 962.6792 244.023 962.3439 244.4701 962.3439 245.6996 962.791 246.929 964.0205 248.1585 965.4735 248.9409 966.8147 249.2762 969.8326 249.2762 970.7267 248.9409 972.068 247.5997 972.7386 247.2644ZM1015.547 238.9933L1015.6587 239.7757 1016.6647 241.4523 1017 242.3464 1016.7765 242.3464 1016.5529 242.0111 1016.2176 241.6758 1015.8823 241.3405 1015.547 241.1169 1015.3234 245.0289 1013.088 245.3642 1009.8466 243.7994 1002.4697 238.8815 1001.0167 238.3227 999.2284 238.3227 995.8752 238.9933 994.1987 238.3227 994.4222 237.652 994.4222 236.7579 994.534 235.9755 995.0928 235.5284 994.7575 235.1931 993.7516 234.8578 993.4163 234.5224 992.9692 233.74 992.9692 233.5165 993.081 233.1812 993.1927 232.5106 993.7516 231.7282 996.8812 231.0575 997.9989 231.5046 1002.358 231.0575 1004.1463 231.1693 1004.7052 231.0575 1005.3758 230.7222 1006.0464 230.1634 1006.6053 229.8281 1006.7171 230.6105 1007.0524 231.0575 1008.0583 231.8399 1008.0583 232.0635 1007.9465 232.3988 1007.9465 232.8459 1008.2818 233.0694 1008.5054 232.9576 1008.8407 232.5106 1009.2878 231.8399 1009.176 230.9458 1009.5113 230.7222 1009.8466 231.0575 1009.6231 231.8399 1009.8466 232.287 1011.1879 233.0694 1011.4114 233.5165 1011.635 233.8518 1012.0821 234.2989 1012.3056 234.4107 1012.9762 234.5224 1013.3116 234.746 1013.7586 235.3048 1014.2057 236.3108 1014.0939 237.205 1013.3116 237.5403 1013.9822 237.8756 1014.7646 237.7638 1015.3234 237.9873 1015.547 238.9933ZM955.9729 283.3664L955.8612 284.9312 954.967 286.2725 953.514 286.1607 952.7316 284.2606 953.9611 283.0311 955.7494 282.2487 955.9729 283.3664ZM645.1373 507.2441L645.1373 507.3559 645.0255 507.3559 645.0255 507.2441 645.1373 507.2441ZM711.3058 509.0325L711.5294 509.0325 711.6411 509.256 711.4176 509.4795 711.1941 509.256 711.3058 509.0325ZM576.5098 468.5713L576.7333 468.6831 576.6216 468.7948 576.5098 468.7948 576.5098 468.6831 576.5098 468.5713Z" />
</svg>