<?xml version="1.0" encoding="utf-8"?>
<svg xmlns="http://www.w3.org/2000/svg" viewBox="0 0 1021 798" style="stroke-width:0.25px;stroke-linejoin:round;stroke:#444;fill:#ddd" fill-rule="evenodd">
  <path class="ET" d="M74.2101 380.6695L73.9866 375.4163 76.1102 365.2451 84.4931 341.4378 88.5168 337.6376 89.9699 335.4022 90.0816 334.6198 89.8581 332.9432 89.8581 332.1608 90.0816 331.8255 90.7523 331.1549 90.9758 330.7078 91.5347 327.8018 91.4229 324.6722 88.1815 309.4713 87.8462 306.677 88.4051 304.218 94.2172 295.947 96.7879 290.8055 97.9056 289.3525 99.0233 288.3465 107.2944 282.6462 108.4121 282.1991 109.1945 282.5344 117.4656 289.7996 119.3657 291.1408 120.2598 291.9232 120.7069 292.9292 120.4834 295.0528 120.5952 296.0587 121.2658 296.2823 121.8246 295.7234 122.7188 293.5998 123.613 292.9292 124.7307 292.8174 125.5131 293.0409 126.2955 292.9292 127.1897 291.8114 127.525 290.582 127.525 289.6878 127.8603 288.9054 129.0898 287.7877 132.7782 284.8816 133.8959 283.3168 134.343 280.8579 134.0077 279.8519 131.9958 278.3989 131.3252 277.5047 131.437 276.7223 135.9078 263.5333 136.1314 261.4097 135.2372 259.9567 134.1195 258.6154 133.4488 256.7153 133.6724 255.2623 142.167 236.2612 142.3905 234.9199 142.2788 233.6904 140.8257 230.7844 140.3787 229.4431 140.4904 226.5371 139.9316 223.9663 140.0433 222.5133 140.4904 220.9485 141.2728 219.1602 142.167 217.5954 143.1729 216.2541 145.8554 214.5776 147.3085 214.0187 151.7793 212.2304 153.903 209.8832 154.0147 209.2125 154.0147 207.9831 154.0147 207.6477 154.2383 206.9771 154.9089 206.4183 157.3679 204.9652 158.7091 203.4004 159.268 201.7239 159.9386 197.9237 161.1681 194.9058 161.727 194.1234 162.3976 193.5646 163.8506 192.7822 164.5212 192.2233 165.1919 191.3292 165.4154 190.435 165.5272 188.5349 166.3096 186.523 179.0515 165.1747 179.6103 164.5041 180.1692 164.2805 181.5105 164.1688 182.0693 163.8334 182.8517 163.1628 183.0752 162.3804 183.187 161.7098 183.6341 159.9215 183.6341 159.5861 183.8576 159.3626 184.7518 158.9155 184.8636 158.8037 186.5402 158.2449 206.9943 155.3388 207.6649 155.2271 208.4473 155.4506 208.8944 155.6741 209.2297 155.8977 209.9003 156.233 211.8004 156.7919 212.8064 156.3448 213.3652 155.0035 214.7065 147.2913 214.7065 145.6147 214.3712 144.497 212.8064 141.8145 212.8064 140.2497 213.5888 139.0202 214.5947 138.0143 215.1536 137.0084 215.1536 136.4495 214.93 135.7789 214.3712 134.6612 214.2594 133.3199 220.8539 110.4068 230.9133 95.8766 231.5839 93.8647 231.8075 89.9527 232.031 88.4997 234.8253 81.5699 236.0548 78.4403 235.8312 74.9754 234.7135 71.5105 234.3782 69.8339 234.2664 68.0455 234.6018 66.4807 240.6374 47.4796 241.9787 47.4796 242.5375 46.1384 243.3199 45.4678 244.4376 45.1325 245.8906 45.1325 246.8966 44.9089 249.0202 43.903 250.3615 43.6794 253.3793 43.6794 253.9382 43.5677 255.0559 42.897 255.7265 42.6735 260.3091 42.6735 262.5446 43.0088 266.9036 44.3501 269.2508 44.5736 269.5861 44.9089 270.8156 46.5855 271.3745 46.9208 271.9333 47.2561 272.4922 47.4796 273.1628 47.4796 273.6099 47.3679 274.6158 46.5855 275.0629 46.4737 276.4042 46.6972 276.8513 46.5855 277.7454 45.9149 278.4161 45.1325 278.9749 43.903 279.1985 42.4499 279.1985 40.7734 279.422 39.4321 279.9809 37.9791 280.9868 36.5261 282.8869 34.9613 285.2341 34.5142 290.2638 34.626 291.8286 34.0671 292.7228 33.9553 294.3993 35.2966 295.6288 36.079 298.1996 39.8792 299.2055 40.8851 299.5408 41.444 299.6526 42.4499 299.5408 44.1265 299.7644 44.7971 300.7703 45.356 303.4528 47.7032 303.7881 48.1503 304.2352 49.3798 304.5705 51.1681 305.0176 51.9505 305.9118 52.2858 306.5824 52.3976 307.253 52.7329 307.8119 53.2917 308.0354 53.9624 308.0354 55.7507 308.3707 56.8684 309.1531 57.7626 310.3826 58.545 311.0532 57.7626 313.5122 51.8387 317.4242 42.4499 321.6715 32.2788 326.0306 21.6605 330.5014 11.0422 333.1839 4.336 334.4134 5.3419 335.1958 6.5714 336.5371 9.1421 336.7606 9.3657 337.4312 9.4774 337.6548 9.701 337.7666 10.0363 337.7666 10.7069 337.7666 10.9305 337.9901 11.4893 338.2136 11.9364 338.4372 12.2717 339.2196 12.3835 339.8902 12.9424 340.002 13.5012 340.1138 14.0601 340.4491 14.7307 341.0079 15.1778 348.3848 18.3074 349.6143 18.5309 353.5263 17.8603 355.0911 17.9721 356.097 18.3074 356.7677 19.2015 357.2147 20.3193 357.3265 20.6546 357.6618 22.5547 357.9971 23.2253 358.6678 23.7842 359.4502 24.2312 360.2326 24.7901 360.6796 25.6843 361.2385 28.3668 361.7974 29.5963 362.5798 30.6022 363.6975 31.4964 367.2741 33.3965 367.833 33.9553 368.2801 35.5201 368.7272 36.079 369.5096 36.7496 370.0684 36.7496 370.6273 36.6378 373.9804 36.6378 379.1219 36.079 381.6926 35.4084 385.9399 33.1729 387.1694 33.2847 388.3989 33.62 389.7402 33.7318 390.9696 33.62 392.1991 33.3965 396.2229 31.7199 399.2407 31.3846 400.582 30.4904 402.8174 28.4785 405.6117 27.1373 406.9529 26.2431 407.9589 25.0136 408.1824 23.6724 408.0706 22.3311 408.1824 21.2134 409.0766 20.3193 409.0766 20.5428 411.5355 20.8781 413.4356 21.3252 414.218 21.5487 415.6711 22.5547 417.0123 23.7842 418.13 25.2372 419.136 26.6902 421.0361 32.5023 422.4891 35.1848 424.1657 35.073 425.6187 32.7259 426.6246 31.9435 428.3012 31.6081 431.8779 32.167 433.2191 32.167 438.8077 30.6022 441.4902 29.2609 442.7197 27.5844 443.2785 26.2431 444.508 26.2431 445.8493 27.0255 446.8552 27.8079 448.1965 29.4845 448.6436 29.9316 448.9789 30.1551 452.4438 31.1611 454.3439 31.3846 457.3617 30.8257 458.1441 30.714 460.3795 30.6022 462.3914 31.2728 464.2915 32.5023 467.8682 35.6319 468.8741 36.079 470.1036 36.3025 471.4449 35.9672 473.5685 34.1789 474.798 33.8436 476.1393 34.0671 477.7041 34.4024 478.71 34.2906 482.0631 33.3965 483.2926 33.2847 489.3283 34.8495 492.2343 36.079 494.9168 37.6438 500.1701 42.4499 504.7527 46.809 508.6647 48.8209 515.818 52.2858 517.8299 52.9564 523.8656 53.8506 528.56 55.5272 532.5837 58.545 539.7371 66.5925 546.8904 74.8636 552.1437 84.2524 556.9498 92.747 558.9617 94.7589 568.127 100.6827 579.9747 108.1714 587.0163 114.0953 592.1578 118.3426 594.8403 121.1369 597.1875 124.1547 599.3111 127.7314 604.5644 139.2438 608.141 144.2735 613.3943 147.6266 617.3063 149.3032 620.9947 151.4268 624.2361 154.2211 628.7069 161.8216 634.1837 169.3102 637.4251 172.7751 633.4013 178.2519 631.2777 182.8345 622.2242 195.2411 621.2183 197.7001 620.6594 198.5943 619.0946 199.3767 618.3122 200.1591 615.6297 205.3006 610.0411 213.3481 607.4704 217.0365 606.688 217.8189 605.6821 218.4895 604.7879 218.9366 604.0055 219.1602 603.4466 219.6073 603.1113 220.6132 602.4407 221.5074 599.7582 222.6251 598.7523 223.2957 597.6345 225.5311 596.7404 230.7844 594.7285 237.0436 594.7285 240.8438 596.5168 248.7795 597.411 256.2682 597.1875 269.569 596.7404 272.5868 595.5109 274.4869 595.958 274.934 596.4051 275.6046 598.0816 276.2752 606.1292 277.9518 606.3527 278.2871 606.4645 278.6224 606.9116 278.9578 607.4704 279.0695 607.8057 278.846 608.141 278.5107 608.5881 278.2871 612.5001 278.1754 614.2884 277.6165 616.4121 275.4928 618.3122 274.934 622.0007 274.4869 625.4656 275.2693 626.8068 275.2693 627.701 275.0458 630.0482 274.0398 630.7188 273.9281 631.8365 273.9281 632.5072 273.9281 634.6308 273.1457 636.1956 273.3692 637.3133 273.8163 638.3193 273.8163 639.7723 273.1457 644.2431 270.1278 650.3905 268.3395 652.9613 268.116 653.5201 268.0042 658.3263 269.2337 659.8911 269.2337 661.2323 269.7925 662.9089 273.481 664.0266 274.4869 665.5914 274.8222 668.3857 275.1575 670.0623 275.6046 670.9564 275.7164 671.9624 275.3811 672.633 274.4869 673.3036 273.9281 674.3096 274.3751 673.5272 275.8282 672.8565 278.6224 672.2977 279.7402 671.18 280.7461 668.2739 281.9756 667.268 283.0933 666.7091 284.4345 666.4856 285.5523 666.0385 286.67 665.0326 287.7877 662.5736 289.6878 661.7912 290.8055 661.1206 292.4821 660.4499 295.2763 660.0029 296.6176 659.1087 297.8471 657.8792 298.5177 656.538 298.9648 655.6438 299.6354 655.7556 301.0884 657.0968 304.218 658.8851 307.0123 662.5736 310.7008 663.6913 312.042 664.3619 313.9421 665.2561 320.2013 666.4856 324.6722 668.3857 328.8077 670.174 331.0431 676.6568 335.1787 678.3333 336.8552 679.5628 338.8671 680.3452 341.2143 680.9041 343.4497 682.2453 346.5793 684.1454 348.4794 686.6044 349.4854 689.734 350.0442 692.193 351.1619 693.5342 353.3974 695.4343 364.3509 696.4403 367.1452 697.8933 368.71 699.6816 369.2689 700.2405 369.4924 700.9111 370.163 701.5817 371.7278 702.0288 372.3985 702.6994 373.0691 704.0407 373.9633 704.5996 374.5221 706.1644 377.6517 706.6114 378.8812 706.7232 381.2284 707.0585 382.4579 707.9527 383.5756 711.4176 385.6992 716.6708 388.8288 717.9003 388.9406 719.5769 388.27 720.6946 388.27 721.7006 388.8288 726.842 393.5232 732.8777 399.1118 741.5958 407.0475 746.2902 411.2948 748.9727 412.8596 754.3377 414.7597 760.3734 416.6598 766.2972 418.6717 772.3329 420.6836 778.2568 422.6955 784.2924 424.5956 790.2163 426.6075 796.1402 428.6194 802.1758 430.6312 808.0997 432.5314 814.1353 434.5432 820.0592 436.5551 826.0948 438.567 832.0187 440.4671 838.0543 442.479 843.9782 444.4909 850.0139 446.5028 855.7142 448.4029 861.3028 450.303 867.0031 452.2031 872.7034 454.1032 878.4037 456.1151 884.1041 458.0152 889.8044 459.9153 895.5047 461.8154 901.2051 463.8273 906.9054 465.7274 912.6057 467.6275 918.3061 469.5276 923.8946 471.4277 929.5949 473.4396 935.2953 475.3397 940.9956 477.2398 945.2429 478.6928 949.2667 480.7047 955.3023 480.7047 964.9146 480.7047 975.5329 480.7047 986.1512 480.7047 994.9811 480.7047 1007.3877 480.7047 1017 480.7047 1013.7586 483.9461 1010.4055 487.0757 1007.1641 490.3171 1003.811 493.5584 1000.5696 496.688 997.3283 499.9294 993.9751 503.1707 990.7338 506.3003 987.3806 509.5417 986.71 510.2123 984.1393 512.7831 980.7861 515.9127 977.5448 519.154 974.1916 522.3954 970.9503 525.525 967.5971 528.7663 964.3558 532.0077 961.0026 535.1373 957.7613 538.3787 954.4081 541.62 951.1668 544.7496 947.8136 547.991 944.5723 551.2323 941.3309 554.3619 937.9778 557.6033 934.7364 560.8447 931.3833 563.9743 928.1419 567.2156 924.7888 570.3452 923.4475 571.6865 920.4297 574.7043 917.3001 577.6103 915.9589 578.9516 914.5058 580.4046 911.5998 583.1989 907.4642 587.4462 903.3287 591.6935 899.1932 595.9408 895.0576 600.1881 890.9221 604.5472 886.7866 608.7945 882.651 613.0418 878.5155 617.2891 871.2504 625.2249 863.9853 633.2724 856.7201 641.2081 850.2374 648.3615 849.455 649.2557 842.1899 657.1914 834.9248 665.2389 827.6596 673.1747 820.3945 681.1105 816.4825 685.3578 811.1175 691.1699 809.2174 692.064 805.5289 691.8405 801.9523 691.6169 798.4873 691.3934 794.9107 691.1699 791.4458 690.9463 787.9809 690.7228 787.7573 690.7228 784.4042 690.611 780.9393 690.3875 777.3626 690.1639 773.8977 689.9404 770.321 689.7168 766.8561 689.6051 763.3912 689.3815 759.8145 689.158 756.3496 688.9344 752.7729 688.7109 749.308 688.4873 745.1725 688.2638 742.7135 688.9344 736.7897 690.9463 734.7778 691.5052 728.0715 692.9582 722.93 694.1877 715.3296 695.976 710.6352 698.2114 703.0348 701.7881 695.3226 705.4766 687.6103 709.165 681.91 713.8594 676.8803 717.9949 676.3215 718.6656 675.8744 719.3362 674.9802 721.6834 673.7507 726.3778 672.7448 728.6132 670.7329 730.8486 670.6211 730.9604 668.1622 732.637 665.2561 733.7547 660.4499 734.5371 650.2788 736.3254 639.884 738.1138 631.8365 739.455 626.8068 739.455 620.8829 739.5668 618.7593 740.1256 616.4121 741.3551 612.5001 744.3729 607.8057 747.279 606.5762 748.3967 606.1292 749.738 606.1292 751.7498 605.7938 752.644 604.8997 753.4264 603.8937 754.6559 600.6524 756.556 597.6345 755.9971 594.6167 754.4323 591.3754 753.4264 588.4693 754.9912 587.5751 755.2147 586.5692 755.103 584.7809 754.3206 583.6631 754.2088 578.2981 755.5501 576.5098 755.6618 573.0449 756.6678 565.4444 757.1149 558.5146 757.4502 555.0497 757.0031 551.6966 755.7736 548.6788 753.4264 544.3197 747.279 542.5314 745.6024 541.5254 744.9318 538.284 743.9259 537.0546 743.2552 536.2722 742.5846 535.1545 740.4609 533.4779 738.5608 529.4541 735.7666 527.8893 733.7547 523.642 736.6607 518.0535 738.7844 510.9001 741.5787 502.0702 744.9318 501.7349 745.2671 501.2878 746.3848 500.9525 746.7201 495.5875 748.6202 488.7694 750.9674 488.5459 750.9674 488.3223 750.9674 488.0988 750.8557 487.5399 750.7439 487.4282 751.0792 487.4282 751.4145 487.2046 751.8616 484.075 753.4264 477.4805 756.556 471.6684 759.3503 465.8563 762.1446 464.5151 763.8211 463.1738 767.3978 461.2737 772.4275 460.156 774.5512 458.9265 776.2277 453.5615 781.1457 449.0906 785.1694 447.3023 787.2931 445.8493 791.7639 444.7316 793.5523 442.6079 793.664 441.4902 792.9934 440.9314 792.0992 440.596 791.2051 440.0372 790.4227 437.9135 789.6403 429.4189 789.4167 430.0895 788.1872 429.7542 787.5166 428.8601 787.4048 428.413 787.6284 425.8422 789.1932 423.2715 789.305 420.589 788.7461 414.5534 785.84 413.6592 785.5047 412.9886 785.2812 409.0766 786.1754 408.0706 786.1754 407.0647 785.84 405.8352 785.6165 403.0409 786.1754 401.2526 786.1754 396.2229 784.8341 389.5166 783.0458 388.2871 782.3751 387.2812 781.2574 385.3811 778.7985 385.3811 779.2455 385.3811 780.2515 385.3811 780.6986 381.3573 780.475 381.022 780.1397 380.9102 779.8044 380.7985 779.5809 379.9043 780.0279 379.4572 780.0279 378.563 779.9162 377.6689 779.6926 377.4453 779.2455 377.2218 778.7985 376.7747 778.1278 375.4334 777.0101 375.0981 776.8983 374.4275 777.1219 374.3157 777.6807 374.3157 778.3514 374.3157 778.6867 370.8508 780.2515 367.0506 780.5868 359.7855 779.6926 352.5204 778.9102 350.3967 779.1338 348.273 779.5809 347.4906 779.4691 345.9259 778.1278 343.914 777.4572 343.0198 777.0101 342.0139 775.7806 340.2255 772.9864 338.996 771.7569 336.8724 770.4156 330.1661 766.0565 323.6834 761.921 316.7536 757.3384 310.4944 753.4264 305.0176 749.8497 297.3054 744.82 290.5991 740.5727 284.0046 736.3254 280.4279 733.9782 279.9809 733.8664 279.5338 733.8664 279.1985 733.7547 278.9749 733.4194 278.6396 731.9663 278.4161 731.2957 277.969 730.6251 277.4101 730.5133 276.0689 730.6251 275.6218 730.2898 274.5041 728.5014 273.8334 727.9426 271.0392 727.3837 266.233 724.9248 262.2092 723.807 249.132 723.9188 249.0202 723.807 248.5732 723.807 247.5672 723.1364 247.0084 723.0246 236.3901 723.2482 223.76 723.4717 222.8658 723.36 221.6363 722.8011 220.9657 722.5776 220.295 722.5776 217.9479 722.9129 208.112 723.0246 207.7767 723.0246 206.2119 722.6893 204.7589 721.6834 202.1881 719.3362 200.9586 718.6656 200.5116 717.6596 200.5116 716.5419 200.7351 715.2007 200.6233 713.8594 199.7292 712.1828 199.6174 711.0651 190.4521 701.2293 188.7756 698.435 188.2167 695.0818 188.4403 680.8869 188.7756 679.9927 191.3463 676.6396 191.9052 675.2983 191.9052 673.9571 191.3463 672.2805 190.0051 669.7098 189.7815 668.3685 190.2286 666.8037 192.0169 664.1212 191.6816 663.5624 187.9932 662.1094 183.5223 659.3151 181.8458 658.868 180.6163 659.2033 179.3868 659.7622 177.7102 660.0975 176.1454 659.6504 173.2394 657.3032 171.6746 656.2972 170.4451 656.0737 168.9921 655.8502 167.6508 655.8502 166.4213 656.0737 164.8565 657.0796 162.174 660.0975 160.6092 661.2152 158.9327 661.4387 157.7032 660.8799 156.6972 659.6504 154.4618 656.1855 154.2383 655.5149 154.2383 654.7325 154.7971 653.9501 155.356 653.2794 155.8031 652.497 155.4678 651.7146 155.0207 650.3734 152.3382 648.2497 146.9732 645.0084 143.9553 642.7729 143.1729 641.4317 142.6141 637.5197 141.6081 635.7314 136.1314 627.9074 135.4607 626.3426 135.349 625.4484 135.4607 624.7778 135.6843 623.9954 135.9078 622.9894 135.6843 622.207 134.5666 621.0893 134.2312 620.3069 134.2312 619.5245 134.4548 618.7421 135.1254 617.2891 135.0136 616.5067 134.4548 612.8183 133.8959 611.477 132.7782 610.1358 131.437 608.9063 130.3193 607.565 129.0898 604.3237 126.7426 600.0763 126.4073 598.7351 126.2955 594.7113 125.8484 592.923 123.1659 588.3404 122.607 586.8873 122.0482 582.9754 120.4834 579.0634 119.8128 576.3809 119.1421 573.5866 118.695 573.2513 117.9127 572.3571 117.5773 571.1276 117.1303 570.3452 112.5476 567.3274 111.3182 566.7685 109.8651 566.6568 106.9591 566.6568 105.7296 566.3215 104.9472 565.7626 104.5001 562.9683 104.5001 562.633 104.1648 561.9624 104.053 561.5153 104.2766 561.4035 104.8354 560.9564 104.9472 560.8447 104.9472 559.5034 104.6119 558.2739 104.1648 557.268 103.6059 556.3738 99.2469 553.2442 89.6345 551.0088 89.411 550.7853 88.9639 550.5617 88.4051 550.2264 88.0697 548.9969 87.7344 548.5498 85.0519 546.538 84.3813 545.6438 83.9342 545.3085 83.3754 545.0849 82.8165 544.4143 82.7047 542.8495 82.7047 542.1789 82.7047 540.0552 82.3694 538.6022 81.6988 537.3727 80.8046 536.8139 79.6869 537.3727 78.4574 537.708 77.1162 536.7021 75.2161 534.3549 72.0865 531.8959 71.7512 531.7842 71.5276 531.3371 71.5276 524.9661 71.0805 522.7307 69.851 520.8306 61.4682 512.2242 59.4563 510.9947 58.6739 510.8829 57.3327 510.6594 56.662 510.5476 53.1971 507.9769 51.0735 504.9591 50.1793 503.9531 49.5087 503.6178 47.385 502.9472 45.5967 501.7177 44.8143 501.6059 40.4552 502.053 39.0022 501.6059 38.2198 501.0471 37.3256 499.8176 36.655 499.2587 35.9844 498.9234 34.7549 498.4763 34.196 498.0293 32.9666 497.5822 31.1782 497.6939 28.2722 498.2528 27.7133 498.5881 26.0367 499.7058 25.1426 499.7058 21.4541 498.6999 20.2246 497.5822 19.1069 496.3527 18.101 495.4585 17.5421 495.3468 15.3067 495.0114 13.4066 494.229 12.8477 494.1173 10.6123 494.5644 10.277 494.6761 9.8299 495.3468 8.9358 495.1232 7.4827 494.4526 5.5826 494.3408 5.1355 494.1173 4.912 493.6702 4.6884 492.9996 4.3531 492.4407 3.2354 491.7701 2.6766 490.6524 1 486.0697 1.2235 485.3991 2.1177 484.3932 2.1177 484.2814 2.453 483.6108 2.7883 483.2755 3.1237 482.8284 3.459 481.3754 3.7943 480.7047 4.5767 479.587 8.4887 475.5633 8.824 475.0044 9.1593 474.222 9.3828 473.6631 9.6064 473.3278 11.6183 472.9925 12.8477 472.4337 13.6301 471.763 14.189 470.7571 14.4125 469.4158 14.189 469.0805 13.1831 468.4099 13.0713 468.0746 13.0713 467.0686 13.1831 466.398 13.4066 465.7274 13.9655 465.0568 14.5243 464.4979 15.1949 464.3861 15.642 463.9391 15.7538 463.0449 14.8596 462.7096 14.189 462.3743 13.7419 461.5919 13.2948 461.033 12.736 460.3624 12.5124 459.58 12.736 459.1329 13.2948 457.7916 13.4066 457.0092 13.2948 456.6739 12.736 456.3386 12.5124 456.1151 12.6242 455.668 12.9595 455.2209 13.0713 454.8856 13.0713 453.7679 13.1831 453.209 13.4066 452.7619 14.4125 452.3149 15.4185 452.0913 15.8656 451.6442 15.642 451.1971 15.642 450.9736 17.5421 449.297 18.7716 449.0735 26.1485 450.7501 26.8191 450.5265 27.7133 449.7441 28.2722 449.5206 28.7193 449.4088 29.6134 449.6323 34.196 449.0735 34.8667 448.7382 34.8667 448.5146 34.5314 447.9558 35.8726 447.9558 36.9903 448.6264 37.9963 449.4088 39.114 449.8559 40.3435 449.6323 41.3494 449.0735 42.3553 448.7382 43.6966 448.8499 45.8202 450.7501 47.1615 453.0972 48.8381 454.8856 51.8559 455.3327 52.6383 455.2209 52.8618 455.1091 55.7679 452.6502 56.4385 452.2031 57.5562 451.756 58.6739 451.4207 61.0211 451.1971 64.8213 451.0854 66.0508 450.7501 67.3921 449.9677 74.0983 443.932 75.5514 442.3672 76.4455 440.8024 76.6691 439.2376 77.0044 437.5611 75.9985 417.6658 75.1043 397.8823 74.2101 380.6695Z" />
</svg>