<?xml version="1.0" encoding="utf-8"?>
<svg xmlns="http://www.w3.org/2000/svg" viewBox="0 0 458 1024" style="stroke-width:0.25px;stroke-linejoin:round;stroke:#444;fill:#ddd" fill-rule="evenodd">
  <path class="FI" d="M345.6421 128.066L340.7242 132.9839 335.6945 134.884 325.0762 142.708 323.1761 142.8198 323.2879 144.9435 323.8468 146.0612 324.6292 146.62 332.9002 145.9494 336.3651 146.7318 339.3829 150.0849 337.1475 158.6913 335.8063 162.3798 325.188 183.3927 324.7409 184.8458 324.7409 186.5223 325.2998 189.2048 326.0822 192.4462 333.6826 221.3949 334.8003 223.7421 336.2534 224.8598 348.1011 229.8895 359.9488 234.9193 361.2901 235.9252 362.4078 237.7135 365.8727 244.9787 367.4375 248.3318 374.4791 263.4209 377.0498 266.774 389.3447 278.51 388.4505 279.963 388.0034 281.0807 387.7799 282.422 387.4446 289.4636 387.221 290.9166 386.2151 295.7228 385.4327 297.7347 369.1141 320.3124 368.5552 321.4301 368.1081 323.3303 367.8846 324.1127 367.4375 324.7833 365.3139 327.354 351.6778 353.0614 349.6659 361.7795 351.2307 369.2682 360.843 385.6986 362.5196 391.2871 362.6314 391.5107 363.7491 393.5226 363.9726 394.4167 363.9726 395.4227 364.1961 396.5404 364.5315 397.3228 369.2259 405.3703 369.6729 407.1586 370.12 411.5177 370.3436 413.5296 371.126 417.1063 372.1319 420.3476 374.4791 426.3833 380.2912 437.3369 383.7561 442.143 384.762 444.8255 385.6562 448.8493 386.7739 456.6733 387.221 458.4616 388.7858 462.7089 389.3447 464.3855 390.5741 469.4152 392.0272 473.7743 392.3625 475.5626 393.592 484.9514 393.7037 487.4103 393.592 489.534 393.0331 490.5399 391.5801 489.9811 389.0094 488.3045 379.1735 491.3223 376.6028 493.2224 377.8322 495.2343 380.9618 497.6933 382.1913 499.7052 381.7442 500.9347 378.3911 504.9584 377.8322 506.4114 377.6087 506.9703 377.2734 510.6587 377.8322 519.4887 377.3851 523.1771 373.0261 528.9892 371.573 532.3424 373.4732 534.3542 379.2853 534.1307 381.9678 535.3602 382.3031 539.1604 381.856 539.9428 381.4089 540.6134 381.0736 541.284 380.9618 542.29 381.5207 543.0724 382.1913 543.2959 382.7502 543.6312 382.5266 544.9725 381.5207 546.3138 375.1497 547.8785 373.4732 549.4433 372.3554 552.1259 371.9084 556.3732 373.8085 564.6442 376.491 571.2387 379.8441 575.486 383.8679 576.492 391.4683 576.6037 393.1449 577.3861 393.8155 578.1685 393.9273 578.7274 393.7037 579.398 393.4802 580.404 393.4802 581.6334 393.3684 582.1923 393.4802 582.7512 393.9273 583.8689 394.3744 584.6513 395.9392 586.4396 396.7216 588.3397 396.3862 590.2398 395.6039 591.8046 394.5979 592.9223 387.5563 596.3872 387.221 596.8343 386.9975 597.3932 387.221 597.6167 387.4446 597.8403 387.6681 597.952 387.6681 599.6286 387.7799 600.5228 388.1152 601.4169 388.0034 601.6405 388.0034 601.9758 388.0034 602.1993 388.1152 602.5347 388.5623 602.7582 388.674 602.9817 388.5623 603.5406 390.3506 604.7701 391.8036 606.6702 391.4683 608.9056 390.5741 611.3646 390.2388 613.8235 391.133 615.7237 392.8096 617.2884 395.7156 619.1886 402.1983 621.424 404.2102 623.1006 405.4397 624.7771 406.3339 626.4537 407.3398 627.7949 409.687 628.4656 411.14 629.3597 412.0342 630.8128 411.6989 632.7129 410.9165 634.613 410.9165 636.1778 411.4754 637.7426 412.146 639.5309 413.1519 643.5547 412.9284 646.796 411.8107 649.5903 410.0223 652.3846 402.5337 661.3263 399.8512 667.4737 397.2804 671.0504 391.0212 673.7329 388.8976 675.2977 388.1152 675.8565 389.0094 678.3155 398.957 690.7221 404.6573 695.3047 407.1163 699.105 408.0105 700.8933 409.1282 701.8992 422.876 709.835 429.247 717.7707 437.6298 723.6946 438.7475 724.8123 439.6417 726.3771 439.8652 728.1655 439.977 729.9538 440.2006 731.8539 440.6476 733.754 441.0947 735.0953 442.2124 736.5483 444.7832 738.5602 446.0127 739.9014 448.6952 744.1487 449.5893 745.0429 450.1482 745.49 451.1541 747.1666 451.713 749.402 452.3836 751.6374 453.8366 752.8669 450.1482 760.0202 448.4716 763.4851 447.2421 767.2854 445.342 775.78 444.6714 777.7919 442.7713 780.8097 441.9889 782.9333 440.9829 787.1806 440.3123 789.0807 439.4182 790.1985 437.2945 791.5397 436.6239 792.3221 436.1768 793.3281 435.3944 795.2282 429.4705 802.0462 428.9117 802.9404 427.9057 805.9582 427.2351 807.0759 426.4527 807.8583 421.7583 811.435 418.0699 815.2352 416.3933 816.1294 415.7227 816.8 415.1638 817.5824 414.0461 820.4884 408.7928 827.8653 402.9807 834.5716 394.9332 846.9782 388.0034 857.7083 382.4149 863.6321 381.5207 864.9734 380.5147 867.9912 379.7323 869.4442 373.8085 876.5976 372.579 877.6035 369.8965 878.833 369.0023 879.7272 368.2199 881.0684 367.4375 883.1921 366.7669 884.9804 360.7312 891.4631 359.5018 893.3633 359.0547 894.3692 358.384 895.5987 355.9251 899.3989 352.9073 902.1932 346.7598 906.1052 344.5244 907.8935 341.6184 910.9113 339.1594 912.2526 338.4888 913.035 337.2593 915.2704 334.6886 918.1765 333.9062 919.4059 333.2355 921.1943 331.6707 923.765 327.9823 924.771 326.0822 926.224 320.1583 932.4832 316.3581 938.1835 312.3343 941.0895 306.4105 949.0253 305.4045 950.2548 301.8278 954.055 298.2512 958.4141 297.5805 957.6317 297.0217 956.6257 296.351 956.0669 295.4569 956.6257 295.5686 956.8493 295.904 957.5199 296.0157 957.7435 295.3451 958.1905 295.2333 959.0847 295.4569 960.2024 296.0157 961.2084 295.3451 961.6554 295.1216 961.7672 295.6804 962.3261 296.0157 962.3261 294.5627 963.7791 294.0039 964.0026 291.2096 963.4438 291.5449 962.5496 292.8861 961.879 293.445 961.2084 291.7684 960.873 290.986 960.9848 290.3154 961.7672 289.9801 962.7732 290.0919 963.4438 290.4272 964.1144 290.8743 965.2321 289.3095 964.6733 285.8446 961.6554 284.3915 962.3261 284.8386 962.4378 284.9504 962.6614 285.2857 963.4438 285.0622 963.6673 284.6151 964.338 284.3915 964.6733 284.8386 965.0086 285.2857 965.3439 285.621 965.791 285.8446 966.3498 283.7209 965.9028 280.1442 962.9967 278.3559 962.3261 275.1145 962.1025 274.4439 961.7672 274.4439 960.6495 275.4498 960.3142 277.5735 960.6495 276.6793 959.7553 273.6615 957.7435 274.3321 956.1787 273.7733 955.6198 272.7673 956.0669 272.2085 957.1846 272.432 958.4141 272.9909 959.7553 273.2144 960.873 272.2085 961.7672 272.0967 960.6495 271.8732 960.426 271.0908 960.6495 270.5319 960.426 269.973 959.1965 269.526 958.8612 269.1906 959.1965 268.8553 960.3142 268.52 960.6495 268.1847 960.426 267.5141 959.1965 267.067 958.8612 266.7317 958.9729 266.2846 959.3083 265.8375 959.7553 265.8375 960.3142 265.9493 961.0966 265.7257 961.6554 265.3904 961.9908 264.8316 963.7791 263.9374 964.2262 262.0373 964.0026 263.0432 965.3439 263.3785 966.3498 263.2668 967.244 263.0432 967.0205 261.702 965.5674 261.3667 964.8968 257.5664 966.3498 256.337 966.3498 256.6723 965.9028 256.8958 965.3439 257.2311 964.0026 256.4487 964.0026 255.6663 964.2262 254.7722 964.785 254.2133 965.4557 254.1015 966.1263 254.1015 967.5793 254.1015 968.1382 253.7662 968.4735 252.8721 969.0323 252.5367 969.4794 251.9779 969.703 251.1955 968.8088 250.4131 967.6911 249.8542 966.9087 249.0718 966.7969 248.0659 966.7969 247.3953 967.244 247.2835 968.1382 246.3893 968.4735 245.2716 967.9146 244.2657 966.7969 243.4833 965.4557 243.148 963.8909 243.8186 962.9967 244.9363 962.3261 245.7187 961.5437 246.8364 959.1965 246.9482 958.6376 246.8364 956.7375 246.9482 955.9551 247.507 955.1727 249.4072 953.6079 251.0837 953.8315 254.6604 956.6257 253.7662 953.2726 252.425 951.0372 250.7484 950.0312 248.9601 950.8136 247.9541 952.0431 246.3893 955.0609 242.8127 962.1025 242.3656 964.8968 243.595 967.5793 242.9244 968.9206 242.5891 969.4794 242.142 969.8147 241.0243 969.8147 240.689 970.1501 241.0243 971.4913 240.5772 971.3795 240.1301 970.9325 239.3477 969.8147 239.4595 970.8207 239.236 971.2678 239.0124 971.4913 238.5653 971.4913 238.0065 971.8266 237.8947 972.3855 237.8947 972.9443 237.6712 973.2796 236.8888 972.609 236.3299 971.2678 235.8828 969.8147 235.5475 969.2559 234.9887 968.8088 234.318 967.8029 233.6474 966.9087 233.0886 966.9087 232.9768 968.0264 233.5356 969.1441 234.8769 971.0442 230.9649 970.2618 230.5178 970.3736 229.7354 971.3795 229.4001 971.4913 229.0648 970.9325 227.3882 969.2559 226.047 968.4735 225.5999 968.0264 224.0351 965.9028 222.6938 964.8968 221.2408 964.1144 220.1231 964.0026 220.1231 964.6733 222.3585 965.791 222.8056 966.3498 223.6998 967.8029 224.7057 968.3617 225.041 969.1441 225.1528 970.0383 225.1528 970.7089 224.8175 971.156 224.2586 971.0442 223.8116 971.156 224.0351 972.1619 224.4822 972.8326 226.047 973.8385 226.8294 975.4033 227.1647 975.8504 227.7235 976.0739 227.9471 976.521 227.9471 977.527 227.6118 978.5329 227.2765 978.98 225.1528 979.5388 225.1528 977.6387 223.3645 974.9562 223.8116 973.8385 223.2527 973.8385 222.9174 974.2856 222.5821 974.7327 222.2468 974.9562 221.6879 974.8444 221.3526 974.6209 218.8936 972.1619 217.9994 971.4913 216.9935 971.0442 218.4465 973.0561 219.3407 973.9503 220.1231 974.3974 219.676 976.1857 218.7818 977.8623 218.6701 978.98 219.1172 980.2095 220.2349 982.4449 220.682 984.1215 219.7878 984.0097 219.1172 983.7861 218.6701 983.2273 218.1112 982.4449 218.4465 981.886 217.7759 980.8801 216.9935 980.5448 216.0993 980.433 215.3169 980.0977 213.9757 978.4211 213.3051 977.8623 212.7462 978.4211 212.9697 979.8741 214.4228 980.9919 217.2171 982.4449 214.4228 983.5626 214.4228 984.1215 213.6404 984.5685 212.6344 984.0097 209.2813 980.0977 209.0578 979.5388 209.0578 978.4211 209.3931 977.6387 209.8402 977.3034 209.0578 976.7446 209.0578 976.0739 211.2932 976.0739 210.7343 974.2856 209.8402 974.1738 208.8342 974.8444 208.1636 975.6268 207.0459 976.2975 203.9163 977.3034 203.9163 977.8623 204.5869 978.1976 204.8105 979.0917 204.6987 980.2095 204.4751 981.3272 204.3634 981.5507 204.0281 981.6625 203.8045 981.9978 203.581 983.3391 203.2457 983.7861 202.9103 984.0097 197.0982 984.1215 197.21 982.892 196.6512 982.3331 195.0864 981.886 195.1981 982.2213 195.4217 983.2273 195.4217 983.5626 194.1922 984.1215 190.2802 984.1215 190.0567 984.2332 190.0567 984.5685 190.0567 985.5745 189.8331 986.0216 189.386 985.798 188.6036 985.2392 188.6036 985.9098 190.0567 986.9157 190.6155 987.5864 190.1684 987.8099 189.7213 987.8099 190.2802 988.7041 189.4978 989.2629 187.0388 989.9336 186.0329 989.8218 186.1447 989.2629 186.2564 989.0394 186.3682 988.7041 184.5799 989.8218 184.1328 990.4924 184.9152 991.0513 184.6916 991.4983 184.021 991.4983 183.3504 992.2807 182.568 991.9454 182.1209 991.0513 182.568 990.3806 183.0151 989.2629 183.2386 987.9217 182.9033 986.9157 182.1209 986.804 181.562 987.9217 180.5561 991.9454 180.109 992.6161 176.6441 992.8396 175.7499 992.6161 175.3029 991.6101 176.8677 991.0513 176.7559 989.5982 175.6382 988.3688 174.1851 988.7041 175.0793 991.0513 174.4087 991.3866 173.291 992.3925 172.7321 992.7278 170.6085 993.0631 169.2672 993.5102 168.9319 993.7338 168.7084 994.0691 168.5966 994.7397 168.7084 995.7457 168.4848 996.081 167.926 996.081 167.7024 995.4103 167.4789 994.5162 167.3671 993.7338 166.92 993.1749 164.3493 991.7219 163.6787 991.6101 163.5669 991.8337 164.014 992.7278 164.6846 993.2867 165.2435 993.5102 165.467 993.9573 165.1317 994.9633 164.5728 995.5221 164.014 995.8574 163.4551 996.1927 163.1198 997.1987 165.9141 996.081 165.6905 996.8634 165.3552 997.4222 164.5728 998.3164 165.3552 998.987 165.3552 999.5459 162.5609 1001.5578 160.9961 1004.0167 160.2138 1004.7991 159.2078 1005.1344 157.9783 1005.2462 158.3136 1004.0167 159.5431 1001.3342 159.9902 1000.6636 159.2078 1000.5518 158.2019 1001.5578 156.3018 1004.1285 155.9664 1002.6755 155.2958 1003.1226 154.4017 1004.2403 153.731 1004.6873 153.9546 1003.3461 154.5134 1002.6755 155.0723 1002.2284 155.6311 1001.446 155.7429 1000.8871 155.7429 1000.2165 155.7429 999.3223 156.0782 998.3164 154.0663 998.2046 153.0604 998.5399 152.3898 999.5459 152.9486 1000.1047 151.6074 1000.9989 151.2721 1001.2224 150.7132 1001.2224 149.2602 1000.6636 148.1425 1000.5518 147.3601 1000.8871 147.3601 1001.6695 148.366 1002.3402 147.5836 1002.899 146.913 1002.6755 146.2424 1002.1166 145.5717 1001.7813 145.2364 1001.8931 143.6716 1002.7872 143.2245 1002.7872 142.7774 1002.3402 141.995 1003.6814 141.2127 1003.5696 140.8773 1002.7872 141.6597 1001.7813 141.6597 1001.2224 140.8773 1001.3342 140.4303 1001.8931 140.0949 1002.6755 139.6479 1003.4579 138.9772 1004.2403 138.3066 1004.5756 135.5123 1005.0227 132.4945 1008.0405 131.3768 1007.1463 124.5587 1008.0405 123.9999 1007.7052 123.5528 1006.6992 123.2175 1006.3639 122.6586 1006.3639 119.9761 1007.1463 118.1878 1008.0405 117.1818 1008.0405 117.6289 1006.811 119.4173 1003.5696 120.0879 1002.899 121.2056 1002.5637 121.8762 1002.1166 121.8762 1001.446 121.6527 1000.7754 121.5409 999.993 121.6527 999.2106 122.0998 998.3164 120.535 998.8752 120.0879 999.2106 119.7526 999.8812 119.529 1000.7754 119.3055 1001.446 118.6349 1001.7813 118.1878 1002.1166 118.076 1003.0108 117.9642 1004.0167 117.6289 1004.9109 117.2936 1005.4697 116.2877 1006.1404 115.9524 1006.5875 114.6111 1009.0464 112.9345 1010.8348 109.2461 1012.9584 108.6872 1013.8526 108.6872 1015.4174 109.1343 1016.6469 109.805 1016.9822 109.805 1017.541 102.7634 1018.7705 102.3163 1019.2176 99.7455 1018.7705 98.8514 1018.9941 97.9572 1019.4411 95.4982 1020 94.8276 1019.8882 95.61 1019.3294 96.616 1017.4293 97.2866 1016.9822 98.9631 1016.6469 104.7752 1013.8526 106.4518 1013.629 106.1165 1011.9525 106.34 1011.2818 106.7871 1011.2818 107.2342 1011.5054 108.6872 1011.3936 109.6932 1010.9465 110.5873 1009.7171 111.5933 1007.9287 112.2639 1006.1404 112.9345 1003.6814 113.2699 1002.0048 112.4875 1002.6755 109.805 1008.7111 108.6872 1010.2759 107.9048 1010.2759 107.9048 1010.0524 108.0166 1009.4935 108.1284 1009.1582 107.6813 1008.7111 107.2342 1008.5993 106.7871 1008.7111 106.4518 1009.1582 106.5636 1009.7171 104.887 1009.1582 104.4399 1009.9406 104.3282 1010.8348 103.9928 1010.8348 103.7693 1010.2759 103.6575 1009.3817 103.9928 1006.9228 104.1046 1006.5875 104.7752 1005.9168 107.9048 1004.6873 108.4637 1003.7932 109.4696 1001.7813 110.1403 1001.2224 107.9048 1000.3283 103.8811 1001.2224 101.8692 1001.2224 100.975 1000.7754 99.9691 1000.2165 99.2985 999.3223 99.0749 998.0928 99.2985 997.0869 99.9691 996.081 101.3103 994.4044 100.5279 993.2867 100.3044 993.8455 99.8573 995.1868 99.6338 995.6339 99.2985 995.8574 98.5161 996.3045 98.1807 996.6398 98.1807 995.2986 97.7337 994.4044 97.063 993.9573 95.61 993.5102 94.8276 992.5043 94.2688 992.0572 94.7158 991.2748 94.7158 990.4924 94.4923 989.8218 93.9334 989.2629 96.1689 985.3509 97.063 984.1215 99.7455 981.4389 100.5279 980.0977 100.7515 979.3153 101.0868 977.974 101.3103 977.3034 102.4281 976.2975 102.8751 975.7386 102.7634 974.9562 101.981 974.7327 100.8633 975.8504 99.8573 977.527 99.4102 978.98 97.063 978.1976 94.3805 979.4271 88.5684 984.6803 83.427 986.2451 80.968 987.4746 79.8503 987.5864 80.4091 986.804 82.6446 985.2392 81.8622 985.0156 81.7504 984.345 82.5328 982.6684 82.9799 982.2213 84.88 981.3272 82.8681 981.5507 81.8622 981.9978 79.962 983.5626 78.9561 984.0097 76.7207 984.1215 77.056 983.5626 77.056 983.0037 77.056 982.4449 77.2795 981.886 77.5031 981.4389 78.2855 980.7683 79.1796 979.4271 80.4091 977.974 80.6327 976.7446 82.7563 974.2856 84.0976 973.2796 84.2094 972.0502 83.874 971.2678 82.0857 973.1679 80.6327 973.5032 77.2795 973.2796 78.0619 971.0442 71.5792 972.7208 70.1262 972.609 69.6791 972.3855 68.4496 970.8207 65.6553 968.697 64.7612 968.2499 62.9728 968.1382 62.7493 967.4675 62.6375 966.4616 62.3022 966.0145 61.5198 967.244 60.7374 968.1382 60.0668 967.9146 58.8373 966.3498 58.8373 966.1263 58.8373 965.4557 58.8373 965.2321 58.7255 965.2321 58.1667 965.3439 58.0549 965.2321 57.6078 964.8968 57.3843 964.785 57.2725 964.4497 57.496 963.4438 55.4842 963.4438 55.5959 962.8849 55.8195 961.7672 56.043 961.2084 55.2606 960.7613 54.1429 960.426 52.9134 960.3142 52.0193 960.6495 51.6839 961.5437 51.7957 962.5496 52.9134 964.6733 51.0133 964.0026 50.1191 964.0026 49.225 964.6733 49.4485 963.2202 50.0074 960.6495 50.1191 958.8612 50.1191 957.6317 50.1191 956.514 50.678 955.6198 51.7957 955.3963 51.2369 954.7256 51.0133 953.8315 51.1251 952.9373 51.5722 951.9314 48.7779 954.055 47.9955 955.1727 46.9895 955.9551 44.8659 956.4022 44.0835 957.1846 44.0835 957.8552 44.4188 958.9729 44.307 959.7553 43.9717 960.3142 43.86 960.6495 43.86 961.0966 43.86 962.1025 43.3011 963.2202 42.0716 963.7791 40.7304 963.8909 39.8362 963.4438 40.9539 962.4378 40.2833 960.6495 38.1596 957.1846 38.8303 957.0728 40.7304 957.7435 40.7304 957.1846 39.7244 956.7375 36.8184 956.6257 35.5889 957.0728 35.03 957.1846 34.6947 956.9611 34.0241 956.1787 33.6888 956.0669 33.6888 955.3963 33.9123 955.3963 34.1359 955.2845 34.4712 954.9492 33.9123 953.7197 35.1418 954.1668 35.9242 954.2785 36.1477 953.7197 34.2476 951.9314 33.3535 951.4843 32.4593 950.4783 31.7887 949.1371 31.3416 947.9076 31.4534 947.4605 31.4534 947.237 31.3416 946.7899 34.3594 947.684 34.9183 947.684 35.1418 946.5663 35.03 945.6722 34.5829 944.8898 34.2476 943.8838 36.1477 943.8838 36.1477 943.325 35.2536 943.2132 34.4712 942.8779 33.577 942.319 32.7946 941.5366 33.4652 941.0895 33.8006 940.9778 34.2476 940.9778 33.3535 939.6365 32.7946 939.3012 32.2358 939.1894 32.4593 938.0717 32.2358 936.8422 31.6769 936.1716 31.118 936.3952 30.7827 936.0598 30.5592 935.6128 30.3356 935.1657 30.2239 934.495 30.671 933.7127 29.8886 932.0361 30.5592 931.7008 32.5711 932.1479 33.577 932.0361 34.4712 931.0301 34.0241 930.6948 33.577 930.5831 32.4593 930.5831 32.2358 930.3595 31.3416 928.7947 31.7887 928.5712 32.5711 927.7888 32.9064 927.5652 33.2417 927.7888 33.577 928.3476 34.0241 928.7947 34.4712 928.7947 34.2476 927.9006 34.0241 927.0064 33.8006 926.224 33.4652 925.8887 33.0182 925.6651 32.7946 925.3298 32.6828 924.771 32.4593 924.1003 30.671 920.0766 29.8886 919.4059 30.5592 918.5118 30.7827 918.2882 29.665 917.2823 29.2179 916.6117 29.1062 915.3822 30.0003 915.3822 31.7887 916.7234 32.7946 917.0587 33.6888 916.8352 33.6888 916.3881 33.577 916.1646 32.9064 915.6057 31.9004 915.3822 33.1299 914.5998 35.4771 915.8293 36.7066 915.3822 36.1477 914.8233 35.5889 913.8174 35.3653 912.6997 35.9242 911.9173 35.4771 909.7936 35.2536 908.8994 34.8065 908.3406 35.1418 908.2288 36.1477 907.67 35.9242 907.7817 35.5889 907.67 35.3653 907.4464 35.03 907.2229 35.5889 905.9934 35.03 905.9934 35.5889 905.4345 36.2595 905.211 37.6008 905.3228 37.3772 904.4286 37.2655 904.2051 38.4949 903.4227 39.8362 903.0873 39.2773 901.1872 38.3832 900.4048 36.4831 899.5107 36.8184 898.6165 37.3772 898.1694 37.8243 897.6106 37.6008 896.4928 39.2773 896.4928 39.2773 895.934 39.1656 895.3751 39.2773 893.8103 39.2773 893.0279 39.1656 892.4691 38.8303 892.2455 38.7185 891.7985 38.7185 891.3514 38.7185 890.4572 38.7185 890.0101 38.4949 888.3336 38.1596 887.7747 37.6008 887.1041 37.0419 886.7688 35.9242 886.3217 35.3653 885.8746 36.4831 885.204 39.1656 885.4275 40.395 884.7569 39.8362 883.4156 39.1656 882.5215 37.8243 881.1802 35.03 879.7272 34.2476 878.833 39.7244 879.6154 41.2892 878.833 40.395 876.2623 40.1715 875.8152 39.5009 875.5916 38.4949 876.0387 37.8243 875.8152 36.1477 873.468 35.8124 872.462 35.8124 872.1267 36.036 871.9032 36.7066 871.6796 37.8243 871.4561 42.5187 873.5798 45.2012 875.3681 46.4307 875.8152 46.4307 875.1446 43.5246 872.2385 42.1834 870.1149 41.2892 866.4264 40.5068 865.7558 39.6127 865.3087 38.942 864.5263 38.942 863.7439 39.2773 862.5144 39.1656 861.8438 38.1596 859.7201 38.1596 859.1613 38.942 859.3848 40.395 860.6143 40.9539 860.279 39.948 858.9377 37.0419 856.9259 36.1477 854.914 36.2595 853.7963 36.7066 852.6785 36.9301 851.4491 36.8184 850.4431 36.2595 849.8843 35.5889 849.6607 35.1418 849.1019 35.3653 847.7606 34.0241 845.8605 33.4652 844.7428 33.0182 843.5133 33.4652 843.178 33.8006 842.6191 33.9123 842.0603 33.0182 841.5014 32.9064 840.719 32.7946 839.9366 32.4593 839.266 32.124 839.1542 30.2239 839.266 29.8886 839.1542 29.665 839.1542 28.7708 838.3718 28.212 838.1483 28.9944 836.36 28.3238 835.6893 26.5354 835.1305 28.212 829.4301 28.5473 827.1947 28.7708 823.0592 28.9944 822.2768 29.665 824.1769 30.3356 821.6062 30.5592 820.3767 30.2239 819.3707 30.7827 818.3648 32.124 817.3589 32.6828 816.6882 32.9064 815.4587 32.4593 814.5646 31.3416 813.3351 32.2358 810.2055 31.3416 810.3173 30.7827 811.2114 30.3356 812.4409 29.665 813.3351 29.8886 811.8821 30.3356 809.3113 30.5592 807.8583 30.5592 803.7228 30.7827 802.3815 28.5473 803.2757 27.9884 802.9404 27.6531 802.0462 27.5414 800.8167 27.7649 799.699 28.212 798.6931 27.9884 797.3518 25.1942 801.9344 25.0824 802.9404 25.753 804.1699 24.7471 803.9463 24.6353 802.6051 24.8589 800.8167 25.0824 799.2519 24.8589 799.1402 24.5235 798.8048 24.3 798.6931 24.6353 797.5754 24.8589 797.24 25.0824 796.793 24.4118 796.2341 23.6294 796.4576 22.847 797.1283 22.2881 798.0224 22.1763 796.9047 22.9587 794.1105 23.1823 792.5457 22.3999 793.2163 21.9528 793.4398 21.6175 792.9927 21.3939 791.3162 21.5057 789.7514 21.9528 788.5219 22.5117 787.6277 23.1823 786.9571 22.9587 786.2865 21.9528 784.6099 22.847 783.8275 23.6294 782.598 24.5235 781.8156 25.4177 782.0392 24.7471 780.3626 21.841 779.5802 21.1704 778.3507 20.6116 778.686 20.1645 779.3567 19.4938 780.8097 19.6056 778.686 20.1645 775.1094 20.0527 773.4328 20.8351 773.2092 21.9528 772.3151 22.9587 771.0856 23.4058 769.7443 23.4058 768.7384 23.1823 768.6266 22.9587 768.7384 22.6234 768.5149 21.841 767.5089 21.6175 766.9501 21.1704 765.3853 21.5057 764.1558 22.0646 763.2616 22.9587 762.9263 23.8529 763.8205 24.3 764.044 24.5235 763.2616 24.7471 763.0381 25.4177 761.6968 25.753 761.138 25.9766 759.5732 25.9766 758.3437 26.0883 757.1142 26.8707 756.1083 27.8767 756.22 30.671 757.4495 31.5651 757.0024 31.7887 756.5553 32.5711 755.6612 32.9064 755.1023 33.1299 754.5435 33.2417 753.314 33.6888 752.0845 34.1359 750.1844 34.2476 749.5138 34.4712 749.402 35.9242 748.7314 35.2536 745.49 35.03 743.8134 35.03 741.8015 35.03 741.1309 35.03 740.7956 35.1418 740.5721 35.5889 739.9014 36.036 739.9014 36.3713 740.3485 36.5948 740.3485 36.7066 739.0073 37.2655 737.7778 38.3832 738.4484 40.1715 740.5721 41.401 741.1309 42.6305 742.1369 43.9717 742.6957 45.2012 741.8015 43.4129 739.2308 40.7304 736.6601 39.948 735.5424 39.6127 734.3129 40.395 732.9716 39.948 733.3069 39.3891 733.5305 38.7185 733.3069 38.2714 732.7481 38.1596 731.7421 38.1596 730.7362 38.1596 730.0656 37.6008 729.842 37.8243 728.8361 38.3832 728.5008 39.6127 728.6125 39.6127 728.0537 37.9361 727.3831 37.489 726.7124 37.2655 725.1476 37.6008 724.3652 38.3832 723.6946 39.2773 723.1358 39.8362 723.024 42.1834 725.5947 43.5246 726.1536 44.4188 724.2535 45.2012 725.0359 46.3189 725.8183 47.4366 726.0418 48.3308 725.4829 47.7719 725.0359 46.4307 724.5888 45.8718 724.2535 45.8718 723.5828 47.5484 722.3534 48.1073 722.1298 49.7838 722.3534 50.678 722.018 52.6899 720.565 53.8076 720.4532 53.3605 721.7945 53.2487 722.6887 53.584 726.2653 53.584 727.0477 53.137 728.0537 54.2547 728.2772 57.496 731.1833 56.9372 729.1714 56.2666 727.3831 57.496 726.8242 57.8314 726.2653 58.2784 725.4829 58.502 724.5888 58.6138 723.8064 58.7255 723.024 59.1726 722.3534 59.8432 721.7945 60.2903 722.2416 60.6256 723.024 61.0727 723.5828 61.7433 723.5828 62.8611 722.6887 63.4199 722.3534 63.867 722.4651 64.6494 723.024 65.32 723.024 65.5436 722.6887 65.6553 722.3534 65.5436 721.9063 65.6553 721.6827 65.8789 721.6827 66.2142 721.9063 66.4377 722.2416 66.5495 722.3534 68.2261 719.7826 69.1202 718.1061 69.5673 716.653 69.9026 716.653 70.7968 719.0002 71.8028 718.3296 72.6969 716.3177 73.5911 714.8647 73.144 714.3058 72.9205 713.6352 72.4734 712.2939 71.9145 711.288 70.685 710.0585 68.6732 707.0407 68.4496 706.5936 67.779 706.4818 67.1084 706.2583 66.6613 705.6994 66.2142 704.6935 65.9906 702.2345 66.8848 701.0051 68.3378 701.1168 69.4556 702.4581 70.685 704.2464 72.0263 704.8053 73.2558 705.0288 74.7088 705.923 71.2439 702.011 69.6791 699.4403 69.3438 697.0931 69.7909 695.8636 70.238 695.5283 71.3557 695.7518 72.0263 696.1989 72.0263 697.0931 71.8028 698.099 71.9145 698.9932 72.8087 699.4403 73.8146 699.6638 74.4853 700.4462 74.4853 702.7934 74.9323 702.3463 75.603 701.3404 76.1618 700.8933 76.1618 700.2227 75.8265 699.3285 75.9383 698.5461 76.2736 697.7637 76.3854 696.7578 76.4971 696.646 77.2795 693.2928 77.6149 692.6222 78.0619 692.1751 78.509 691.5045 78.6208 690.3868 78.9561 690.275 80.6327 691.3927 80.2974 690.1633 78.6208 686.9219 79.4032 685.6924 79.7385 685.2453 80.0738 684.91 79.962 684.3512 79.962 684.0158 79.8503 683.6805 81.5268 684.1276 82.3092 683.7923 82.6446 682.1157 82.5328 680.3274 82.421 679.4332 82.6446 679.3215 83.427 679.7685 84.0976 680.8862 84.4329 681.3333 84.6564 680.7745 84.7682 679.8803 85.2153 679.4332 85.6624 679.3215 85.9977 679.545 86.6683 680.3274 87.1154 681.3333 87.3389 682.451 87.1154 683.6805 87.5625 684.4629 88.4567 686.4748 88.6802 686.9219 89.3508 686.8101 90.1332 686.4748 90.8039 686.0277 91.2509 685.2453 91.5862 685.0218 92.0333 684.91 92.3686 684.7982 92.5922 684.0158 92.5922 683.3452 92.5922 682.7864 92.704 682.3393 92.8157 681.7804 93.4864 680.8862 94.8276 680.2156 95.3865 679.2097 94.7158 678.5391 92.5922 677.3096 95.3865 677.3096 94.6041 675.8565 94.2688 675.4095 95.3865 675.9683 95.9453 676.0801 96.3924 675.633 96.5042 675.1859 96.616 674.4035 96.5042 673.7329 96.3924 673.3976 95.61 672.9505 95.2747 671.9446 95.3865 670.8268 96.2806 670.268 97.063 670.3798 97.6219 671.0504 98.4043 673.0623 99.0749 673.9564 99.522 673.8447 99.522 672.8387 99.0749 671.6092 99.0749 671.4975 99.2985 670.268 99.1867 669.8209 99.0749 668.9267 101.4221 666.4678 102.0927 665.4618 102.5398 665.0147 104.4399 665.7971 104.9988 665.4618 105.3341 664.903 105.7812 664.4559 105.6694 664.3441 105.3341 663.897 105.3341 663.2264 105.893 662.5558 106.34 662.2205 107.6813 661.8851 110.8109 661.9969 112.1521 661.5498 112.9345 659.985 113.9405 661.1028 114.8347 660.991 115.7288 659.985 116.623 658.6438 115.3935 657.4143 114.8347 656.6319 114.8347 655.7377 115.17 654.5083 115.0582 653.6141 114.8347 652.7199 114.6111 651.8257 114.7229 651.2669 115.2817 647.0196 115.8406 646.2372 116.623 646.2372 118.076 647.0196 118.2996 647.2431 118.7466 648.0255 119.1937 648.2491 119.6408 648.2491 119.9761 647.9138 120.4232 647.6902 121.7645 648.5844 124.447 649.0315 125.1176 648.0255 124.5587 645.7901 123.5528 643.5547 122.8822 642.437 123.2175 641.431 123.6646 641.3193 124.8941 641.7663 125.2294 641.431 126.1235 639.8662 126.5706 639.3074 126.7942 638.0779 127.5766 636.8484 128.5825 635.8425 128.6943 635.7307 129.3649 634.7248 129.1414 634.7248 129.2531 633.16 129.3649 631.8187 129.9238 631.1481 130.8179 631.7069 131.3768 631.8187 133.3887 630.701 133.9475 630.1421 134.2828 629.248 135.0652 626.2301 135.9594 626.3419 137.7477 627.4596 138.4184 628.242 138.0831 627.1243 137.8595 625.8948 137.7477 624.5536 137.8595 622.9888 138.4184 621.5358 139.6479 619.7474 140.2067 618.4062 140.6538 615.5001 140.9891 614.6059 141.8833 613.8235 143.6716 613.0411 144.3422 612.147 144.1187 610.5822 144.6776 610.6939 145.1246 610.5822 145.5717 610.2469 146.0188 609.5762 146.1306 609.688 147.8072 608.5703 149.3719 608.5703 149.4837 608.235 149.4837 606.5584 149.5955 605.776 149.819 605.2172 150.2661 604.9936 151.4956 605.3289 151.9427 604.9936 152.1662 604.2112 152.3898 602.9817 152.6133 602.5347 153.5075 601.864 154.2899 601.6405 155.0723 601.0816 155.7429 599.2933 155.7429 598.6227 155.5194 597.8403 155.5194 597.0579 156.3018 596.3872 156.3018 595.6048 156.19 594.8224 156.0782 594.7107 156.3018 592.6988 156.6371 591.5811 157.7548 589.4574 157.9783 588.675 158.0901 587.7809 158.3136 587.1102 158.5372 586.7749 159.096 586.5514 160.3255 584.763 162.0021 583.7571 162.7845 582.9747 163.3433 581.5217 163.008 580.404 162.7845 580.0686 162.7845 579.5098 163.3433 578.3921 163.9022 577.8332 165.1317 576.8273 163.5669 575.3743 163.1198 574.4801 163.7904 574.1448 164.6846 574.2565 168.0377 576.1567 168.4848 576.0449 168.8201 575.486 168.8201 575.0389 168.373 574.3683 168.2613 573.8095 168.5966 572.1329 169.379 571.6858 171.0556 571.574 171.2791 569.6739 172.7321 568.668 177.8736 567.8856 185.2505 563.7501 186.0329 563.5265 186.8153 563.8618 187.1506 564.756 187.4859 565.8737 188.0448 566.8796 188.3801 566.8796 188.7154 566.5443 189.0507 566.4326 189.4978 566.8796 189.6096 567.215 189.7213 568.668 189.9449 569.1151 190.5037 570.2328 191.1744 571.0152 191.9568 571.4623 192.8509 571.574 192.8509 572.1329 192.5156 572.1329 192.1803 572.2447 191.5097 572.8035 192.8509 573.4741 196.8747 572.1329 197.0982 571.7976 196.6512 570.0092 196.7629 569.1151 197.3218 566.0972 197.4336 565.4266 196.9865 564.1971 196.5394 564.1971 195.9805 564.6442 195.4217 564.8678 194.8628 564.4207 193.7451 563.0794 192.1803 562.4088 191.3979 561.5146 190.0567 558.7204 190.2802 558.4968 190.7273 557.7144 190.9508 557.4909 190.6155 556.8202 191.2861 556.4849 195.4217 557.1556 196.2041 557.7144 197.6571 559.391 198.663 560.2851 199.5572 560.5087 200.3396 560.0616 200.4514 558.7204 200.2278 557.4909 199.669 556.5967 199.4454 555.7025 199.669 554.1377 199.3337 553.5789 199.2219 553.1318 199.2219 552.6847 199.3337 552.1259 198.4395 550.8964 197.8806 550.0022 197.6571 549.108 197.6571 547.9903 197.4336 547.2079 197.21 546.6491 196.8747 546.0902 195.5334 544.749 190.9508 543.4077 191.1744 541.284 191.5097 540.1663 192.8509 538.6015 193.4098 537.8191 193.8569 536.7014 193.9686 535.3602 193.7451 533.9072 194.1922 534.0189 194.751 533.9072 195.1981 533.6836 195.757 533.2365 195.4217 533.1248 194.8628 532.6777 194.5275 532.5659 194.9746 531.0011 195.0864 530.554 194.4157 529.9952 194.0804 529.8834 193.7451 529.8834 194.304 528.8774 194.8628 525.7479 195.4217 524.4066 195.3099 524.0713 194.9746 523.4007 194.8628 523.0653 195.1981 522.9536 195.5334 522.73 195.9805 521.7241 193.1862 518.2592 193.7451 517.9239 194.8628 517.9239 195.4217 517.5886 195.8688 517.0297 196.5394 515.5767 196.8747 514.9061 196.4276 513.2295 196.9865 509.541 196.7629 507.7527 195.5334 505.5173 194.304 503.6172 191.1744 500.3758 190.2802 499.9287 189.1625 499.9287 188.2683 500.264 187.3741 500.0405 186.3682 498.4757 186.1447 497.6933 186.0329 496.9109 185.9211 496.6873 185.6976 495.6814 185.2505 494.7872 184.6916 494.4519 183.6857 494.7872 183.1268 494.0048 182.3444 493.446 180.4443 493.8931 179.5502 493.7813 178.9913 493.1107 178.3207 491.5459 177.8736 490.987 176.3088 490.2046 174.744 489.8693 173.0674 490.2046 171.6144 490.987 170.4967 492.3283 170.0496 492.7754 169.2672 492.9989 168.7084 492.5518 168.5966 491.6576 168.4848 487.7457 168.373 487.075 168.0377 486.6279 165.467 485.1749 164.9081 484.3925 164.2375 483.0513 163.7904 481.5982 163.5669 479.6981 164.014 477.1274 164.5728 475.2273 166.92 469.974 167.4789 468.0739 167.8142 467.4033 168.4848 466.8444 169.7143 466.5091 170.0496 466.062 170.1614 464.7208 169.4908 465.5032 167.3671 466.8444 167.0318 466.8444 166.6965 466.8444 166.3612 467.068 166.2494 467.8504 166.2494 468.8563 166.2494 469.4152 166.1376 469.527 165.1317 470.5329 163.3433 475.1155 162.2256 476.4568 161.2197 476.5685 160.4373 476.345 159.5431 476.345 158.649 477.1274 158.5372 477.4627 158.4254 477.9098 158.3136 478.4686 157.9783 478.9157 157.5312 479.1393 155.6311 478.1333 154.4017 476.2332 153.9546 475.7861 152.278 475.1155 150.7132 473.7743 151.0485 475.1155 151.1603 476.6803 150.9367 477.9098 150.1543 478.5804 149.3719 478.2451 148.5895 477.0156 147.9189 475.6744 147.5836 474.4449 147.5836 473.7743 147.5836 471.9859 145.907 469.0799 145.0129 465.0561 144.0069 463.156 143.1128 461.1441 143.2245 458.7969 143.1128 457.3439 141.995 452.2024 141.6597 450.8612 141.2127 450.1905 140.2067 449.0728 139.7596 448.4022 139.4243 447.508 137.1889 440.69 136.1829 439.3487 131.9356 437.7839 130.4826 436.4427 129.3649 434.6543 128.0237 429.5129 127.5766 426.8304 127.0177 424.5949 126.9059 423.3655 126.9059 422.3595 127.2413 421.0183 127.4648 420.0123 127.4648 418.5593 127.2413 416.6592 127.1295 415.3179 127.0177 414.2002 126.2353 412.3001 126.0118 411.0706 126.4589 408.7234 127.4648 407.1586 128.6943 406.2645 129.7002 405.8174 129.7002 404.1408 130.7062 403.2466 131.9356 402.576 132.8298 401.5701 132.8298 400.3406 135.0652 398.7758 135.9594 397.8816 136.2947 396.3168 136.4065 394.5285 136.1829 392.6284 135.9594 390.7283 136.2947 389.0517 136.63 387.1516 136.8536 385.0279 136.8536 382.9043 136.2947 379.1041 136.4065 378.3217 137.7477 375.9745 138.3066 374.0744 139.2008 373.8508 140.2067 373.8508 140.7656 373.5155 140.9891 372.6213 140.8773 371.8389 139.2008 366.6975 138.0831 363.7914 137.1889 362.3384 135.6241 359.9912 133.2769 354.6262 132.271 353.2849 130.9297 352.7261 130.2591 351.9437 129.2531 350.2671 127.6883 346.8022 127.4648 345.908 127.2413 345.1256 127.2413 344.2315 127.1295 342.8902 127.0177 341.6607 126.6824 341.1019 126.2353 340.543 125.1176 338.4194 124.2234 337.1899 123.5528 335.8486 123.2175 333.725 123.6646 332.8308 124.2234 331.8249 124.5587 330.7072 124.8941 329.3659 124.1117 328.9188 123.8881 328.1364 123.9999 326.1245 124.3352 324.448 125.2294 323.442 129.9238 321.2066 131.0415 319.4183 131.9356 316.0651 130.4826 315.171 130.4826 312.712 131.0415 309.6942 131.1532 307.2352 130.5944 306.4528 129.7002 306.0057 126.9059 305.4469 123.9999 303.6585 122.3233 303.7703 120.7585 304.5527 119.1937 304.6645 117.8525 302.8761 117.2936 300.1936 117.8525 298.07 118.7466 296.1699 119.529 293.9344 119.082 292.705 120.0879 291.4755 121.6527 290.246 122.3233 289.24 122.2116 286.5575 121.8762 284.881 120.8703 282.0867 120.535 280.2983 120.0879 275.9393 119.6408 274.2627 119.529 272.8097 119.529 266.4387 119.3055 264.0915 119.1937 261.5208 119.4173 258.9501 120.0879 256.9382 121.5409 255.8205 124.447 254.7028 125.7882 253.585 126.7942 251.4614 126.7942 249.4495 126.0118 248.1083 123.2175 246.9905 119.529 242.2961 118.4113 241.2902 115.2817 238.3842 114.9464 237.3782 114.8347 236.484 113.1581 229.8895 112.711 228.6601 112.1521 227.8777 110.6991 227.9894 107.2342 230.4484 106.34 230.5602 106.0047 229.8895 105.893 229.7778 105.7812 229.5542 105.6694 228.5483 105.6694 227.9894 105.893 226.9835 106.1165 224.1892 106.0047 223.295 105.6694 222.5127 105.893 219.9419 105.2223 218.0418 103.434 215.6946 102.8751 214.5769 102.6516 213.571 102.5398 212.6768 102.2045 211.7826 101.6457 210.8884 95.4982 206.5294 94.2688 204.9646 92.5922 201.1644 91.5862 200.0466 89.0155 201.0526 87.8978 199.5996 86.6683 197.5877 85.5506 196.3582 84.7682 196.3582 83.9858 196.6935 83.2034 196.6935 81.5268 195.3523 79.6267 195.1287 77.056 193.6757 73.7029 193.3404 73.5911 193.1168 73.5911 191.9991 73.4793 191.7756 70.685 190.8814 61.0727 190.7696 59.7315 189.5402 59.6197 188.9813 59.6197 188.1989 59.6197 187.5283 59.2844 187.193 59.0608 187.0812 58.6138 186.4106 58.0549 185.2928 56.8254 183.6163 56.6019 182.9457 54.8135 180.4867 47.2131 178.2513 46.4307 174.6746 44.0835 173.1098 40.395 169.3096 37.2655 168.3036 35.9242 167.0741 35.4771 165.9564 34.1359 162.3798 33.9123 161.1503 33.577 160.0326 32.6828 159.3619 29.7768 159.3619 29.4415 159.1384 29.2179 158.8031 28.8826 157.7971 28.6591 157.5736 28.212 156.7912 25.753 152.2086 23.0705 149.4143 19.7174 146.1729 12.8993 143.2669 12.0052 141.9256 12.1169 139.5784 13.3464 138.9078 14.0171 137.0077 14.0171 134.9958 13.1229 133.431 11.111 132.7604 8.3167 129.8543 3.3988 129.0719 1.1634 126.9483 5.0754 119.7949 6.1931 119.1243 18.1526 126.3894 19.7174 126.9483 20.8351 126.0541 23.1823 121.0244 18.1526 110.1826 19.3821 106.2706 20.0527 104.4823 20.8351 103.3646 29.7768 97.3289 43.1893 99.6761 44.1953 100.5703 55.9312 123.5952 59.0608 129.7426 64.7612 136.2253 65.32 137.6783 65.8789 140.5844 66.4377 141.7021 69.5673 147.5142 72.9205 150.4202 73.4793 151.538 74.4853 161.9327 75.0441 164.0563 75.8265 164.3916 80.5209 162.6033 81.6386 162.4915 82.7563 162.7151 93.3746 168.3036 100.3044 167.0741 102.4281 167.7448 103.5458 168.9743 106.6754 174.451 107.6813 174.8981 119.4173 167.1859 126.0118 166.0682 129.812 163.8328 131.265 159.1384 132.0474 154.2205 134.7299 152.2086 137.8595 152.3204 146.2424 156.903 147.5836 159.2502 148.5895 160.4796 154.5134 164.6152 160.7726 166.7388 168.2613 169.4213 171.9497 172.6627 175.0793 177.5806 176.4206 181.0455 177.203 182.0515 178.2089 181.8279 179.1031 180.2631 179.6619 178.2513 180.2208 176.3512 181.3385 175.2334 182.4562 175.2334 185.1387 173.3333 186.2564 173.1098 187.0388 172.6627 187.5977 171.545 188.1565 169.1978 187.5977 168.1919 187.7095 167.5212 187.933 166.8506 188.0448 165.9564 188.1565 160.7032 188.3801 158.1325 188.9389 155.897 190.5037 152.6557 198.216 145.6141 200.1161 144.4964 202.0162 144.0493 207.0459 145.8376 208.1636 145.6141 209.0578 144.6081 209.7284 142.9316 210.1755 141.255 210.8461 139.6902 212.1873 137.7901 212.6344 136.6724 212.858 135.1076 213.3051 133.6546 215.0934 131.978 215.4287 130.4132 215.3169 129.6308 214.9816 129.0719 214.1992 128.2895 213.8639 127.6189 213.7521 127.0601 213.8639 126.613 213.7521 126.1659 213.1933 124.3776 213.1933 123.5952 213.5286 122.4774 213.5286 121.695 213.6404 117.8948 213.6404 117.336 213.8639 117.0007 213.9757 116.4418 214.0875 115.5476 213.9757 114.7652 213.4168 112.6416 213.1933 112.0827 212.5227 108.9531 212.6344 105.8235 214.1992 96.4348 214.6463 94.87 218.4465 88.0519 218.223 87.046 216.9935 82.4634 217.9994 79.7809 218.4465 79.1102 218.7818 78.1043 218.7818 75.31 219.0054 73.857 219.676 72.6275 219.4525 71.7333 219.0054 71.0627 218.7818 70.3921 219.3407 69.0508 221.9114 67.0389 222.9174 65.0271 223.6998 62.4563 223.6998 59.662 222.6938 56.9795 222.0232 55.8618 221.9114 54.7441 222.2468 53.5146 222.6938 52.0616 223.6998 50.385 224.8175 49.4909 230.9649 47.7025 231.7473 47.2554 232.1944 46.3613 232.7532 45.2436 234.6534 42.114 236.6652 37.7549 240.8008 32.837 242.0303 30.378 241.5832 28.2543 241.9185 27.3602 243.3715 25.2365 244.2657 22.8893 245.6069 22.1069 252.7603 20.8774 255.4428 21.6598 259.243 20.5421 260.5843 20.9892 262.8197 22.6658 264.0492 22.3305 265.1669 22.4422 268.1847 24.7894 268.9671 24.9012 277.797 21.5481 279.4736 19.3127 279.1383 18.9773 278.5794 18.1949 278.2441 17.9714 278.6912 16.8537 279.2501 16.5184 279.9207 16.5184 280.5913 16.1831 283.2738 12.7182 288.1917 10.2592 288.5271 8.1355 290.2036 5.5648 292.3273 4.7824 297.5805 5.9001 300.7101 4 301.9396 4.5589 303.1691 6.5707 305.4045 11.9358 313.1167 25.7954 314.0109 26.8013 321.9466 30.378 321.9466 34.4018 322.9526 36.8607 324.5174 38.202 326.0822 38.8726 339.4947 45.4671 353.019 52.1734 353.6897 53.4029 355.9251 62.6799 361.849 76.9866 357.0428 87.2695 341.9537 106.0471 341.5066 107.6119 341.1713 110.1826 340.3889 118.789 340.3889 120.6891 340.9477 121.9186 345.6421 128.066ZM75.0441 1000.1047L74.7088 998.2046 75.1559 997.4222 75.9383 997.7575 76.7207 998.987 76.7207 1002.0048 76.6089 1003.4579 76.3854 1004.6873 76.1618 1004.6873 75.7147 1003.905 75.0441 1003.6814 74.3735 1004.0167 74.1499 1004.9109 73.9264 1005.1344 73.4793 1004.1285 73.0322 1002.7872 72.6969 1001.7813 72.5851 1000.5518 72.5851 999.2106 72.8087 998.2046 73.4793 997.7575 73.9264 998.3164 73.9264 999.3223 74.1499 1000.2165 75.0441 1000.1047ZM37.2655 993.2867L38.7185 991.2748 40.395 990.3806 42.1834 990.4924 43.86 991.6101 43.5246 992.5043 43.0776 992.9514 42.0716 993.7338 42.854 993.8455 43.0776 994.1809 43.0776 994.8515 42.6305 995.6339 42.0716 995.9692 41.5128 995.9692 40.395 995.6339 39.948 995.6339 38.8303 996.081 38.4949 996.4163 38.0479 996.4163 37.6008 995.9692 37.1537 995.4103 36.7066 994.9633 37.3772 994.4044 38.1596 994.2926 39.8362 994.4044 39.5009 993.3985 38.8303 993.1749 37.2655 993.2867ZM47.5484 988.7041L49.7838 988.1452 52.0193 988.1452 53.4723 989.2629 53.4723 989.8218 53.0252 989.8218 52.5781 989.8218 52.131 990.0453 51.7957 990.3806 52.0193 990.6042 52.6899 991.6101 49.4485 991.6101 50.9015 992.0572 50.5662 992.3925 50.1191 992.6161 49.6721 992.7278 49.8956 992.9514 50.1191 993.2867 49.1132 994.2926 47.8837 994.9633 46.5425 995.075 45.5365 994.4044 45.8718 993.9573 45.9836 993.7338 45.8718 992.7278 46.4307 992.169 46.6542 992.0572 46.6542 991.6101 45.8718 991.163 46.0954 990.2689 46.6542 989.2629 47.5484 988.7041ZM31.3416 986.9157L32.0122 988.1452 33.0182 988.7041 35.3653 988.7041 35.3653 989.2629 33.6888 989.1512 33.0182 989.71 32.7946 991.0513 32.4593 991.0513 32.124 990.3806 31.5651 990.0453 30.2239 989.8218 29.5532 989.5982 29.2179 989.0394 28.7708 988.7041 27.9884 988.7041 28.5473 987.5864 29.4415 987.1393 31.3416 986.9157ZM60.5139 986.9157L61.0727 988.1452 58.6138 990.3806 58.8373 990.6042 59.3961 991.3866 59.7315 991.6101 58.502 993.0631 57.1607 993.2867 56.043 992.169 55.4842 989.8218 56.043 989.4865 58.0549 988.7041 59.1726 987.3628 59.8432 986.9157 60.5139 986.9157ZM215.8758 987.251L216.2111 986.5804 216.8817 986.3569 218.4465 986.4686 217.8877 987.5864 217.4406 987.9217 216.77 988.257 216.0993 988.1452 215.8758 987.251ZM66.773 987.5864L67.3319 985.9098 68.2261 984.345 69.3438 983.4508 70.1262 984.1215 70.3497 986.1333 69.232 988.257 67.6672 989.1512 66.773 987.5864ZM207.94 984.6803L206.5988 984.345 205.7046 983.0037 205.4811 981.3272 206.2635 979.8741 206.9341 980.3212 210.5108 984.1215 210.1755 984.6803 209.5048 985.0156 208.8342 985.5745 208.3871 986.3569 208.4989 987.5864 207.493 986.9157 207.1576 986.5804 207.2694 986.0216 207.94 984.6803ZM93.0393 984.4568L93.9334 982.4449 94.9394 980.7683 96.1689 979.8741 97.6219 980.0977 97.3983 981.9978 96.616 983.1155 95.61 983.8979 94.7158 984.9039 94.3805 985.798 94.2688 986.5804 93.9334 987.251 92.8157 987.8099 92.5922 988.4805 92.5922 989.3747 92.8157 990.3806 92.5922 990.4924 92.3686 990.6042 92.2569 990.8277 92.0333 991.0513 92.2569 991.0513 92.8157 991.6101 92.704 992.3925 92.5922 992.7278 93.151 995.2986 91.698 997.6458 88.3449 1000.6636 88.3449 1001.2224 88.6802 1001.1107 88.9037 1001.3342 89.4626 1001.7813 89.0155 1002.3402 88.4567 1003.7932 88.3449 1004.1285 87.3389 1003.905 86.8919 1004.0167 86.333 1004.6873 85.7741 1003.1226 85.2153 1001.7813 84.88 1002.6755 83.5387 1004.352 83.3152 1004.4638 83.0916 1004.7991 83.2034 1005.8051 82.9799 1005.8051 82.9799 1004.5756 82.8681 1003.7932 82.5328 1003.5696 82.0857 1004.1285 81.8622 1003.1226 82.0857 1002.4519 82.5328 1001.7813 82.6446 1000.6636 82.1975 1001.3342 80.7444 1002.7872 80.0738 1003.7932 78.1737 1004.352 77.5031 1004.6873 77.5031 1002.5637 77.6149 1001.5578 77.8384 1000.6636 77.6149 999.5459 77.7266 998.5399 77.8384 997.6458 77.7266 996.9751 77.1678 996.4163 76.0501 995.7457 75.603 994.9633 76.3854 994.6279 77.9502 993.5102 78.8443 993.2867 82.9799 993.2867 82.9799 992.7278 75.2677 992.0572 75.7147 990.2689 76.0501 987.9217 76.6089 986.1333 77.8384 985.798 76.9442 987.9217 76.7207 988.8158 77.3913 989.2629 81.5268 988.4805 82.9799 987.3628 83.7623 986.9157 91.8098 985.6862 93.0393 984.4568ZM62.5257 978.4211L63.5317 978.1976 68.4496 978.6447 71.3557 979.7624 72.1381 980.6565 72.0263 981.6625 71.8028 982.1096 71.0204 982.4449 70.685 982.3331 70.4615 981.9978 70.1262 981.7743 69.7909 982.1096 69.5673 982.3331 69.1202 982.892 68.8967 983.0037 66.9966 983.4508 66.4377 983.3391 67.1084 982.4449 66.5495 981.5507 65.6553 981.1036 64.6494 981.1036 63.9788 981.3272 65.6553 981.3272 64.8729 983.0037 63.7552 982.6684 62.6375 981.9978 61.8551 982.1096 61.408 982.1096 61.2963 980.8801 61.6316 979.4271 62.5257 978.4211ZM74.1499 977.8623L73.3675 978.3094 72.5851 978.4211 71.0204 977.8623 71.691 976.4092 72.5851 975.5151 73.5911 975.068 74.597 974.9562 74.7088 975.1798 74.7088 975.5151 74.7088 975.8504 74.7088 976.0739 75.8265 976.7446 76.4971 976.7446 77.056 976.7446 77.5031 976.9681 77.8384 977.8623 76.9442 978.8682 75.7147 979.6506 74.4853 980.0977 73.2558 980.0977 73.5911 979.6506 73.8146 979.0917 74.1499 977.8623ZM58.0549 976.7446L57.2725 977.1916 56.4901 977.3034 55.7077 977.0799 54.9253 976.7446 54.7018 976.8563 54.59 977.0799 54.2547 977.3034 54.0311 977.3034 54.0311 977.0799 54.0311 976.2975 54.0311 976.0739 53.137 975.2915 52.6899 975.068 51.3486 974.7327 50.4545 974.1738 49.5603 973.3914 49.225 972.3855 49.5603 971.4913 50.2309 970.7089 51.0133 970.3736 51.7957 970.3736 51.7957 969.8147 49.7838 967.5793 49.8956 966.4616 50.2309 965.5674 50.5662 965.1204 51.2369 965.2321 51.7957 965.9028 53.6958 967.1322 54.0311 967.8029 54.1429 968.5853 54.4782 969.0323 54.9253 969.1441 55.2606 969.2559 56.043 971.0442 56.043 971.4913 54.8135 971.156 54.2547 971.0442 53.8076 971.4913 54.2547 972.0502 55.4842 972.609 56.043 973.2796 55.7077 973.8385 57.049 973.7267 57.6078 974.062 58.0549 974.9562 57.049 975.5151 56.6019 975.6268 57.2725 975.9622 57.6078 976.0739 58.0549 976.0739 58.0549 976.7446ZM46.766 964.338L46.3189 965.2321 45.7601 966.2381 45.2012 966.5734 44.9777 965.791 45.313 964.1144 46.3189 962.1025 47.4366 960.6495 48.3308 960.6495 48.219 961.7672 47.7719 962.6614 46.766 964.338ZM30.0003 964.338L29.2179 963.8909 27.7649 963.6673 27.0943 962.9967 27.5414 961.2084 27.2061 960.2024 26.6472 959.3083 26.2001 957.7435 27.0943 957.7435 28.3238 959.3083 29.3297 961.2084 29.4415 961.9908 30.2239 964.338 30.0003 964.338ZM33.0182 957.7435L33.8006 959.1965 35.8124 959.5318 36.7066 960.6495 36.4831 960.6495 36.3713 960.7613 36.2595 960.873 35.9242 960.6495 35.7007 961.4319 35.5889 962.2143 35.7007 962.8849 35.9242 963.4438 35.2536 963.332 34.6947 963.7791 34.5829 964.4497 35.03 965.2321 34.0241 964.6733 33.0182 963.6673 32.124 962.1025 31.6769 959.9789 31.118 960.873 30.671 961.2084 30.3356 960.6495 30.2239 959.1965 30.5592 957.967 31.3416 957.6317 33.0182 957.7435ZM29.1062 957.1846L28.4355 957.1846 28.1002 956.7375 27.8767 955.9551 27.6531 955.3963 26.8707 955.1727 26.4237 954.9492 25.9766 954.2785 25.6413 953.0491 25.8648 952.4902 26.8707 951.9314 27.0943 951.3725 27.2061 950.7019 27.4296 950.3666 27.9884 950.8136 27.9884 951.4843 28.1002 952.1549 28.4355 952.7138 28.7708 953.1608 28.4355 954.2785 28.3238 955.6198 28.4355 956.514 29.1062 956.6257 29.1062 957.1846ZM27.6531 930.5831L26.3119 930.5831 25.753 930.3595 25.0824 929.9124 26.2001 929.0183 28.212 929.9124 29.1062 929.3536 28.9944 929.0183 28.8826 928.7947 28.8826 928.4594 28.7708 928.1241 29.1062 928.0123 29.4415 927.3417 29.665 927.0064 28.4355 925.3298 27.7649 924.771 26.8707 924.6592 27.8767 923.2062 28.5473 922.8708 29.3297 922.9826 30.1121 924.2121 30.671 924.9945 32.2358 926.4475 31.4534 927.3417 30.7827 927.5652 30.3356 928.1241 30.2239 929.9124 29.8886 930.6948 29.1062 930.8066 28.1002 930.4713 27.6531 930.5831ZM34.2476 721.6827L33.9123 722.9122 33.9123 724.1417 34.1359 725.1476 34.4712 726.1536 33.4652 726.7124 32.3475 726.936 31.7887 726.6007 32.4593 725.4829 31.7887 725.3712 28.7708 728.0537 28.7708 728.6125 29.1062 728.7243 29.8886 729.1714 29.2179 730.0656 28.4355 730.4009 26.8707 730.5127 26.3119 729.842 25.8648 728.7243 25.3059 727.4948 24.5235 726.7124 24.0765 727.0477 23.4058 727.6066 22.847 727.6066 22.2881 726.1536 23.1823 726.1536 23.1823 725.4829 22.6234 725.0359 21.3939 723.4711 21.0586 722.6887 20.7233 721.7945 20.1645 718.8884 20.0527 717.8825 21.7293 719.3355 23.4058 719.2238 24.9706 718.5531 26.8707 718.5531 26.8707 719.112 26.2001 719.4473 25.6413 720.1179 24.8589 722.3534 24.9706 723.1358 24.9706 723.2475 24.8589 723.5828 25.4177 724.0299 27.6531 724.2535 27.9884 724.477 28.3238 724.8123 28.6591 724.9241 28.9944 724.5888 29.1062 723.9182 28.9944 723.3593 28.7708 722.8004 28.7708 722.3534 29.7768 721.2356 31.4534 720.4532 33.1299 720.4532 34.2476 721.6827ZM29.8886 717.8825L29.7768 716.4295 29.4415 716.3177 28.8826 716.653 28.212 716.653 26.2001 714.1941 26.4237 713.747 26.6472 713.6352 27.0943 713.6352 28.212 713.0763 29.665 711.7351 31.118 710.9527 32.2358 712.2939 32.2358 713.747 31.5651 715.3118 29.8886 717.8825ZM181.8974 550.114L183.5739 549.8904 184.6916 551.2317 183.3504 552.1259 180.5561 552.1259 177.0912 551.1199 174.744 551.3435 173.9616 553.1318 170.7202 555.1437 171.838 557.8262 174.4087 557.6026 175.0793 558.1615 174.5205 558.6086 174.0734 558.7204 173.6263 558.7204 173.0674 558.7204 172.7321 559.0557 172.285 559.8381 171.9497 560.0616 171.1673 560.2851 170.2732 560.2851 169.8261 559.6145 170.1614 558.1615 170.0496 557.8262 169.6025 556.8202 169.0437 555.8143 168.0377 558.2733 166.92 558.7204 165.467 556.2614 164.7964 554.5848 164.3493 553.2436 164.1257 551.9023 165.0199 550.6728 167.8142 547.655 171.5026 547.3197 175.3029 546.202 177.3147 546.9844 177.8736 548.4374 176.8677 549.108 177.3147 549.7787 178.3207 549.5551 179.5502 549.7787 181.8974 550.114ZM137.3007 1006.6992L137.636 1007.0345 137.5242 1007.1463 137.5242 1007.8169 137.0771 1008.264 136.5183 1008.264 136.5183 1008.4876 136.4065 1008.5993 136.0712 1008.8229 135.5123 1008.9347 134.8417 1008.3758 134.6182 1008.3758 134.5064 1008.264 134.7299 1007.5934 135.4006 1006.6992 136.4065 1006.4757 137.3007 1006.6992ZM94.8276 998.8752L96.0571 998.7635 96.3924 999.0988 96.1689 999.6576 96.0571 1000.44 95.8336 1000.9989 95.61 1001.3342 95.3865 1001.3342 95.0512 1001.7813 94.7158 1002.899 94.4923 1003.5696 94.157 1004.0167 93.7099 1003.5696 93.2628 1002.2284 93.4864 1001.1107 94.6041 1000.8871 94.6041 1000.5518 94.2688 1000.2165 93.7099 1000.2165 93.4864 999.8812 93.8217 999.3223 94.8276 998.8752ZM97.7337 995.2986L97.8454 995.8574 97.9572 996.4163 97.7337 997.0869 97.2866 997.4222 96.8395 997.534 96.616 997.4222 96.7277 997.0869 96.5042 997.0869 95.9453 997.4222 95.2747 997.7575 94.157 997.7575 93.7099 997.7575 93.0393 997.6458 93.0393 997.4222 93.4864 996.8634 93.8217 996.081 94.2688 995.4103 94.4923 995.075 94.9394 994.6279 96.0571 994.0691 96.8395 994.1809 97.3983 994.6279 97.7337 995.2986ZM57.7196 993.7338L58.0549 993.8455 58.6138 994.2926 58.3902 994.9633 57.6078 995.1868 56.9372 995.2986 55.8195 995.075 55.5959 994.8515 55.2606 994.1809 55.4842 993.622 56.043 993.2867 56.6019 993.0631 57.1607 993.622 57.7196 993.7338ZM71.0204 988.5923L73.5911 987.5864 74.0382 988.257 73.3675 989.8218 72.3616 990.4924 71.3557 990.8277 71.3557 991.163 71.9145 991.7219 72.0263 992.169 71.4674 992.2807 70.4615 992.2807 70.0144 992.0572 70.238 991.8337 70.238 991.4983 70.1262 990.8277 70.238 990.3806 70.4615 990.1571 70.4615 989.9336 70.4615 989.3747 70.685 988.8158 71.0204 988.5923ZM57.3843 980.7683L57.1607 980.8801 57.049 980.7683 57.2725 980.433 57.9431 979.8741 58.502 979.7624 58.3902 980.2095 57.9431 980.6565 57.3843 980.7683ZM56.3783 981.1036L55.8195 981.4389 55.0371 981.4389 54.3664 981.2154 53.8076 980.433 53.3605 980.433 52.9134 979.2035 53.137 978.6447 53.8076 978.6447 54.3664 978.7564 55.0371 978.5329 56.4901 978.5329 57.049 978.7564 57.049 979.3153 56.3783 981.1036ZM70.4615 973.9503L70.1262 974.7327 66.4377 975.9622 65.9906 976.0739 65.0965 975.8504 64.6494 975.1798 64.6494 974.7327 64.8729 974.3974 68.6732 973.3914 69.9026 973.2796 70.4615 973.9503ZM66.6613 972.609L66.6613 973.2796 62.7493 975.1798 62.414 975.068 63.1964 973.615 63.867 972.9443 64.2023 972.8326 66.6613 972.609ZM30.7827 972.609L31.3416 973.7267 31.5651 974.7327 31.4534 975.1798 31.3416 975.2915 31.0063 975.068 30.7827 975.1798 30.5592 974.8444 30.5592 974.2856 30.4474 974.062 30.1121 973.9503 29.3297 974.1738 28.9944 973.615 28.9944 973.0561 29.3297 972.609 29.4415 972.0502 30.0003 971.9384 30.7827 972.609ZM248.4012 967.3558L250.1895 968.5853 250.5249 968.9206 250.4131 969.3677 249.8542 969.9265 247.1717 970.7089 246.6129 971.3795 246.1658 973.0561 245.8305 973.0561 245.2716 972.4972 244.4892 970.9325 244.7128 970.2618 246.7246 969.8147 247.2835 969.3677 247.507 968.9206 247.507 968.2499 247.7306 967.8029 248.0659 967.3558 248.4012 967.3558ZM59.1726 714.7529L59.5079 714.7529 60.6256 716.653 60.5139 717.3237 60.0668 718.4414 59.3961 718.8884 58.7255 718.8884 58.3902 718.5531 58.502 717.8825 58.2784 717.659 58.0549 717.7707 57.9431 718.2178 57.9431 718.6649 57.7196 718.8884 57.496 718.8884 57.1607 718.6649 57.049 717.9943 57.1607 716.8766 57.6078 715.8706 58.1667 715.5353 59.0608 716.0942 59.3961 715.9824 59.1726 715.5353 58.6138 714.9765 58.3902 714.5294 58.6138 714.4176 58.8373 714.4176 59.0608 714.6411 59.1726 714.7529ZM64.0905 721.2356L63.7552 721.3474 61.6316 720.3415 61.408 719.8944 61.5198 719.5591 61.408 719.112 60.8492 718.7767 60.9609 718.3296 61.2963 718.1061 61.5198 717.8825 61.7433 717.3237 61.5198 716.4295 61.0727 715.6471 60.9609 715.0882 61.408 714.8647 61.9669 714.6411 62.6375 714.1941 63.1964 714.4176 63.5317 714.4176 63.867 714.7529 64.2023 715.4235 64.6494 715.7589 64.8729 715.7589 64.8729 715.3118 65.0965 715.0882 65.5436 715.2 65.7671 715.4235 65.9906 715.8706 66.2142 715.8706 66.5495 715.6471 66.6613 715.2 66.773 714.4176 66.9966 713.747 67.3319 713.2999 67.4437 713.0763 67.6672 713.1881 67.8908 713.9705 67.8908 714.4176 68.0025 715.5353 68.3378 716.2059 68.2261 716.5413 67.779 717.4354 67.3319 718.6649 66.773 719.2238 65.8789 719.2238 64.5376 717.8825 62.8611 718.2178 62.8611 718.4414 63.867 718.7767 64.6494 719.2238 64.8729 720.2297 64.6494 720.7886 64.3141 720.9003 64.0905 721.0121 64.0905 721.2356ZM56.3783 713.8587L56.043 713.747 55.9312 713.2999 56.043 713.0763 56.1548 712.741 56.2666 712.2939 56.4901 711.8469 56.7136 711.288 56.9372 710.8409 57.1607 710.5056 57.3843 710.0585 57.6078 709.6114 57.9431 709.0526 58.7255 708.9408 59.3961 709.1644 60.0668 708.7173 60.6256 708.6055 60.8492 708.829 60.9609 708.9408 61.408 709.1644 61.8551 709.0526 62.0787 709.1644 62.0787 709.3879 61.7433 709.6114 61.408 709.7232 61.408 710.0585 61.6316 710.6174 61.2963 711.288 60.5139 711.5116 59.1726 710.7292 58.6138 710.9527 58.1667 711.8469 57.9431 712.2939 57.496 712.9646 56.7136 713.747 56.3783 713.8587ZM91.4745 672.2799L92.1451 672.2799 92.3686 672.6152 92.2569 672.9505 92.0333 673.0623 92.0333 673.2858 92.0333 673.8447 91.8098 674.4035 91.698 674.7388 91.5862 675.2977 91.2509 676.1919 90.9156 675.9683 90.4685 675.5212 90.245 675.8565 90.3568 676.5272 90.245 677.086 89.6861 677.1978 89.3508 677.6449 88.6802 677.8684 87.8978 677.1978 87.2272 676.3036 86.7801 674.9624 86.5565 674.6271 86.333 674.2917 86.333 673.8447 87.2272 673.174 87.5625 672.8387 87.8978 672.3916 88.5684 671.721 89.6861 671.1622 90.4685 671.2739 90.8039 671.9446 91.0274 672.5034 91.2509 672.6152 91.3627 672.3916 91.4745 672.2799ZM78.7326 1014.635L79.1796 1014.7468 79.2914 1014.8585 78.9561 1015.3056 76.4971 1016.7586 75.8265 1016.8704 75.2677 1016.6469 75.2677 1015.9762 75.603 1015.5292 75.8265 1015.5292 76.0501 1015.5292 77.056 1014.9703 77.9502 1014.8585 78.2855 1014.635 78.7326 1014.635ZM41.6245 983.3391L42.1834 983.3391 42.6305 983.5626 42.5187 984.345 41.9598 985.0156 41.8481 985.5745 41.6245 986.0216 41.2892 986.1333 41.0657 986.0216 40.6186 986.1333 40.0597 985.6862 40.0597 984.5685 40.395 983.2273 41.0657 982.1096 41.7363 982.1096 41.8481 982.892 41.5128 983.1155 41.6245 983.3391ZM27.5414 933.042L27.7649 933.1538 27.8767 934.2715 27.6531 934.9421 27.0943 934.7186 25.4177 933.7127 25.3059 933.8244 25.0824 933.7127 25.0824 933.3773 24.8589 933.042 24.4118 932.7067 24.6353 932.3714 25.3059 932.1479 25.9766 932.4832 26.0883 933.2656 26.0883 933.4891 26.5354 933.3773 26.759 933.3773 26.9825 933.6009 27.2061 933.4891 27.5414 933.042ZM34.2476 905.4345L34.4712 905.6581 34.5829 905.8816 34.2476 905.7699 32.7946 904.9875 32.0122 905.4345 31.3416 905.4345 31.118 905.3228 31.2298 905.3228 31.118 904.9875 30.8945 904.2051 31.118 903.758 31.3416 903.6462 31.5651 903.4227 31.5651 903.1991 31.7887 902.6403 32.4593 902.1932 32.9064 902.5285 32.6828 903.3109 32.9064 904.0933 34.2476 905.4345ZM38.2714 865.8675L38.3832 865.9793 38.4949 866.3146 38.3832 866.6499 38.0479 866.6499 37.8243 866.8735 37.7125 867.3206 37.489 867.3206 36.5948 866.9853 35.8124 866.5382 35.8124 866.3146 36.2595 866.2029 36.8184 865.3087 38.2714 865.8675ZM25.4177 749.1784L24.6353 748.5078 24.3 748.8431 23.7411 749.1784 22.847 748.5078 22.3999 747.6136 22.3999 747.2783 22.6234 747.1666 22.847 747.3901 22.9587 747.6136 23.1823 747.1666 23.4058 746.4959 23.0705 746.1606 22.6234 745.7135 22.1763 744.9311 22.1763 744.1487 22.3999 743.7017 22.7352 743.3663 23.0705 743.3663 23.1823 743.7017 23.4058 743.9252 24.4118 744.3723 24.8589 744.8194 25.3059 745.49 25.6413 746.4959 25.8648 747.8372 25.9766 748.7314 25.753 749.0667 25.4177 749.1784Z" />
</svg>