<?xml version="1.0" encoding="utf-8"?>
<svg xmlns="http://www.w3.org/2000/svg" viewBox="0 0 1021 640" style="stroke-width:0.25px;stroke-linejoin:round;stroke:#444;fill:#ddd" fill-rule="evenodd">
  <path class="FK" d="M461.2737 543.5424L466.3034 547.0073 465.6328 553.2664 461.609 559.4139 456.5793 562.0964 454.1204 562.767 451.2143 564.4436 448.7553 567.0143 446.5199 574.0559 443.8374 573.8323 441.4902 570.4792 441.2667 564.8906 441.1549 564.1083 440.9314 563.4376 440.596 562.767 440.0372 562.0964 443.055 558.6315 445.7375 552.5958 446.967 545.1072 445.9611 536.8361 442.4961 530.9122 437.9135 528.0062 433.8898 524.3177 432.325 516.382 433.5545 507.6638 436.5723 511.464 441.0431 524.2059 455.0145 522.6411 461.0502 524.2059 465.4092 530.2416 464.068 532.477 462.8385 535.6066 461.9443 539.4068 461.2737 543.5424ZM36.2079 363.3672L33.0783 364.3732 24.5837 369.9617 24.5837 372.756 27.1545 374.3208 30.0605 374.7679 33.0783 374.209 36.2079 372.756 29.5017 384.0449 19.6658 384.0449 9.2711 376.7798 1 366.8321 2.3413 365.3791 3.7943 364.3732 6.8121 363.3672 9.2711 364.5967 15.4185 366.385 20.1129 371.0794 21.3424 369.1793 22.4601 363.3672 23.3542 361.1318 23.9131 358.0022 25.1426 355.0961 28.1604 353.9784 30.6194 354.6491 32.743 356.4374 34.5314 359.4552 36.2079 363.3672ZM106.0649 423.2766L97.7938 425.9591 92.0935 425.7355 78.7927 420.147 79.9105 415.5644 80.6928 413.8878 76.5573 413.776 74.8807 410.7582 73.9866 407.0697 72.7571 404.3872 69.9628 403.2695 63.9272 402.5989 61.1329 401.2576 60.127 400.1399 59.4563 399.0222 58.6739 398.1281 57.2209 398.1281 59.4563 388.0686 57.5562 381.4741 53.0854 377.6739 47.7204 376.1091 52.7501 370.0735 56.5503 367.391 61.1329 366.7204 72.6453 366.9439 74.3219 366.4968 77.7868 358.7846 83.1518 350.29 86.3932 346.9369 90.5287 344.8132 91.87 344.5897 94.8878 344.5897 96.1173 344.8132 98.3527 346.378 99.1351 348.1663 99.3586 349.7311 100.0293 350.8488 105.8414 353.7549 108.1886 357.108 106.9591 361.9142 101.5941 366.4968 87.7344 374.6561 82.593 382.4801 81.9223 386.2803 83.3754 387.2862 103.9413 380.2447 112.5476 372.3089 118.1362 369.1793 122.7188 364.3732 125.4013 353.9784 124.1718 350.1782 121.3776 348.7252 120.1481 346.8251 123.2777 341.4601 126.8543 338.1069 130.0957 337.6598 132.2194 340.3424 133.1135 346.378 132.5547 350.4018 131.2134 355.0961 129.6486 359.2317 128.1956 361.9142 126.6308 366.1615 125.9602 377.3386 125.4013 382.4801 123.613 387.8451 117.4656 401.2576 129.2015 401.2576 126.9661 405.505 125.066 413.8878 123.2777 417.2409 119.2539 420.147 106.0649 423.2766ZM14.5243 300.7754L20.56 300.6636 30.7311 305.5815 36.2079 306.811 31.29 309.7171 20.1129 309.0464 15.5303 311.6172 13.4066 316.1998 12.5124 321.5648 12.5124 335.2009 9.0475 333.8596 5.4708 331.6242 2.5648 328.0475 1 322.6825 2.6766 313.5173 4.912 307.4816 8.3769 303.4579 14.5243 300.7754ZM478.9336 328.7182L471.2213 337.9952 452.4438 355.2079 422.4891 399.134 416.7888 410.9817 414.1063 418.1351 411.0884 423.9472 406.7294 427.971 394.211 431.3241 376.1041 444.9602 373.9804 431.4359 373.0862 429.5358 365.9329 428.418 362.1327 427.0768 360.4561 424.9531 359.2266 419.9234 356.4323 420.147 353.5263 422.6059 351.738 424.9531 351.0673 429.7593 354.4205 439.1481 353.6381 443.5072 348.0495 446.8603 323.5716 444.9602 316.9771 448.6486 313.624 449.0957 311.9474 444.9602 312.8416 442.1659 317.9831 436.6891 319.6596 432.8889 300.9938 440.7129 296.4112 444.9602 293.3934 453.343 295.07 460.3846 298.3113 468.0968 300.0997 478.3798 298.6466 485.3096 295.1817 491.0099 272.4922 518.2821 269.1391 521.0763 262.8799 520.741 254.0499 514.2583 247.9025 514.8172 249.0202 515.4878 249.3556 517.835 249.2438 520.741 248.6849 522.6411 246.7848 523.8706 244.8847 521.9705 242.8728 519.3998 238.1784 515.9349 232.9252 507.3285 231.2486 505.3166 227.8955 504.0871 222.4187 499.0574 218.6185 499.0574 216.9419 500.9575 216.3831 504.1989 217.2772 507.2167 224.8777 511.0169 229.2367 517.3879 232.2546 525.5472 234.1547 533.7065 222.5305 547.6779 206.659 556.7314 191.3463 555.0548 181.5105 536.8361 185.1989 537.2832 187.9932 538.2891 190.5639 538.6244 193.47 536.8361 188.2167 532.7006 181.1751 524.7648 174.916 515.8231 172.0099 508.558 174.1336 507.105 177.9338 502.6341 179.4986 497.8279 175.0277 495.5925 146.4143 494.363 142.8376 495.5925 140.4904 498.9457 142.167 500.9575 145.8554 501.9635 149.4321 502.187 155.2442 504.9813 161.6152 511.9111 167.092 520.2939 169.8862 527.6708 153.4559 527.6708 148.7615 526.8884 146.4143 524.653 144.9613 521.4117 132.1076 503.7518 128.7545 500.5105 125.066 499.9516 121.2658 500.0634 117.4656 499.0574 112.4359 494.1395 103.1589 481.0623 98.1292 476.9267 85.0519 474.0207 80.6928 468.8792 82.593 457.8139 85.6108 453.2312 92.6524 454.796 107.965 461.2788 120.2598 462.1729 123.2777 464.1848 124.5072 468.6557 124.3954 473.9089 125.6249 477.4856 131.2134 476.9267 127.0779 461.2788 146.3025 458.708 164.2977 451.5547 164.2977 448.4251 155.2442 443.1718 147.532 441.8306 140.9375 438.2539 135.0136 426.6297 159.6033 426.4062 172.5688 429.6475 177.822 439.2598 179.7221 439.2598 180.8398 435.7949 182.0693 433.6713 185.5342 429.5358 185.9813 434.2301 187.4343 438.3657 189.6697 440.0422 192.464 437.695 195.4818 434.4537 198.1644 434.2301 201.1822 435.3479 209.1179 436.6891 212.024 438.2539 216.7184 442.0541 221.4128 447.3074 223.8717 447.4191 226.3307 442.0541 222.5305 439.2598 222.5305 436.0185 229.6838 436.242 237.7314 434.6772 245.3318 431.4359 251.591 426.6297 258.8561 412.9936 260.4209 410.9817 261.3151 409.0816 259.7503 405.505 256.5089 403.3813 252.5969 405.952 242.314 415.4526 228.7897 420.7058 214.7065 420.3705 202.9705 413.8878 225.5483 415.3408 231.2486 412.323 233.2605 410.87 238.8491 408.411 239.9668 405.952 240.8609 401.8165 242.9846 397.681 245.6671 394.1043 247.9025 391.8689 245.22 386.3921 245.4436 382.8154 247.0084 379.7976 247.9025 376.1091 247.4554 371.7501 246.0024 361.8024 245.7789 355.5432 248.6849 347.7193 255.503 342.0189 263.327 339.6717 269.1391 341.4601 266.9036 345.2603 264.5564 348.6134 259.415 353.9784 268.1331 351.8548 271.7098 351.8548 273.1628 355.5432 272.3804 359.7905 267.0154 372.756 270.3685 374.8796 278.6396 382.4801 279.0867 374.9914 281.3221 369.2911 285.1223 366.2733 290.4873 366.8321 287.0224 360.0141 286.0165 354.7608 286.5754 339.8953 287.6931 335.648 290.2638 332.8537 293.5052 331.736 296.4112 332.0713 298.3113 334.1949 300.3232 341.4601 301.9998 344.8132 304.0117 344.3661 306.5824 342.1307 308.8178 341.6836 309.8238 346.378 311.0532 347.4957 313.8475 345.7074 322.4539 337.7716 323.3481 329.3888 323.0128 319.7765 323.5716 313.0702 315.9712 310.3877 308.9296 311.9525 302.2233 314.8585 295.4053 316.4233 278.7514 313.9644 271.4862 316.1998 273.1628 325.8121 270.9274 331.0653 268.8037 331.0653 266.4565 329.1652 263.327 328.7182 250.585 336.9892 246.7848 338.3305 234.0429 338.3305 230.0191 339.8953 227.8955 343.6955 226.3307 347.831 224.3188 350.8488 218.5067 350.8488 215.6007 344.1426 212.9182 335.9833 207.8884 332.0713 201.6293 329.3888 196.376 322.3472 193.2464 313.0702 193.47 303.6814 197.4937 295.8574 202.0763 296.7516 207.4414 300.9989 235.7195 309.9406 243.767 310.1641 250.4733 307.1463 263.5505 296.7516 270.145 294.5162 292.4992 296.8634 312.3945 288.8158 318.3184 289.8218 330.1661 301.8931 336.9842 305.1344 352.7439 306.811 348.6084 298.3164 341.7903 293.622 333.8546 291.6101 326.4777 291.163 320.8891 288.3688 304.1234 269.3677 301.1056 267.5793 295.4053 265.3439 292.3875 262.8849 284.6752 250.5901 277.2983 249.8077 235.6077 230.5831 232.1428 227.2299 229.2367 217.7294 228.5661 212.3644 231.2486 209.9054 247.9025 209.9054 261.5386 213.5938 264.4447 211.3584 260.4209 202.1932 254.6088 196.0458 247.1201 191.7985 239.1844 189.2277 228.3426 187.7747 220.5186 188.4453 216.7184 187.8865 207.7767 182.745 203.9765 181.9626 201.1822 180.8449 197.9408 178.1624 195.8172 174.5857 196.1525 171.1208 197.2702 166.2029 195.8172 160.7261 191.5699 151.002 194.6994 151.2255 197.7173 151.002 200.3998 149.8843 202.9705 147.5371 212.3593 154.0198 243.767 166.4264 253.7146 172.5738 282.6634 197.1635 305.8 208.8994 331.2838 212.8114 377.8924 203.6462 371.0744 195.7105 350.9556 193.9221 353.6381 183.5274 359.6737 175.7034 366.2682 169.556 367.833 163.6321 369.7331 161.732 373.0862 164.8616 374.0922 167.6559 376.1041 179.1683 393.3168 164.7498 402.5938 160.6143 410.9767 163.4086 410.9767 166.4264 409.4119 167.8794 408.6295 169.3325 407.9589 171.009 407.0647 172.6856 433.778 177.8271 442.1608 181.9626 437.69 184.198 432.8838 185.0922 422.7127 185.0922 430.8719 194.3692 445.9611 194.3692 499.2759 181.9626 504.4174 179.8389 513.9179 171.009 519.73 169.556 519.73 172.6856 499.8348 187.2158 492.4579 191.0161 505.3116 198.2812 518.9476 198.5047 546.7787 187.8865 544.8785 183.6392 541.5254 179.7272 537.6134 176.8211 534.1485 175.7034 532.3602 173.1327 532.1366 159.7201 531.3542 154.0198 533.7014 154.3551 538.6194 153.6845 541.0783 154.0198 540.5195 152.0079 539.7371 146.8664 539.29 144.7428 543.3138 144.631 548.4552 145.7487 552.9261 148.3195 554.7144 152.455 556.8381 155.4728 585.675 167.2088 593.2755 172.5738 597.5228 179.1683 585.3397 178.4977 580.4218 180.7331 577.9628 187.8865 579.0805 194.7045 582.6572 195.0398 587.3516 193.3633 591.4871 194.3692 583.9985 198.84 570.8095 213.9292 564.215 219.2942 562.3149 214.2645 559.4088 212.5879 555.9439 213.5938 552.5908 216.1646 552.5908 219.2942 553.7085 221.6414 553.3732 224.3239 550.9142 231.7008 552.9261 230.4713 558.8499 228.7947 558.8499 231.7008 549.7965 244.4427 548.7905 247.3487 547.8964 259.9789 545.8845 262.8849 542.4196 264.8968 535.378 273.8385 531.3542 275.5151 528.2246 273.7267 526.6598 269.8147 526.5481 264.785 527.6658 259.9789 518.8359 270.7089 514.0297 274.6209 510.0059 272.3855 494.5815 288.0334 502.4055 287.4746 501.2878 292.3925 491.4519 305.2462 478.9336 328.7182ZM403.2645 129.2066L399.1289 131.8891 397.2288 132.1127 397.2288 135.4658 401.1408 140.8308 397.8994 145.3017 391.4167 147.7606 385.6046 147.5371 380.1278 144.0722 375.2099 138.9307 371.0744 132.7833 368.1683 125.8535 381.5809 121.6062 385.9399 121.6062 390.299 122.8356 401.3644 129.0948 403.2645 129.2066ZM326.4777 169.556L306.2471 173.468 302.1116 172.7974 296.8583 170.4502 292.8345 166.2029 292.0521 160.0554 295.9641 153.5727 303.0057 149.8843 316.6418 147.5371 319.7714 149.549 325.4717 158.2671 328.4895 160.279 332.6251 159.9437 336.3135 158.9377 339.6667 157.0376 343.0198 154.0198 337.8783 148.9901 322.3421 140.0484 311.5003 136.5835 298.1996 126.7476 294.2876 122.8356 289.705 116.2411 289.3696 113.2233 292.3875 110.429 296.9701 109.8702 299.5408 112.7762 301.2174 117.2471 303.1175 121.3826 308.9296 126.4123 316.3065 128.8713 324.1305 129.7655 331.2838 129.2066 346.5965 125.6299 353.6381 127.53 356.6559 137.0306 357.8854 138.8189 360.1208 143.7369 360.7914 148.6548 357.4383 151.002 346.7083 163.4086 342.3492 173.9151 340.8961 175.7034 337.9901 175.4799 329.8308 170.7855 326.4777 169.556ZM993.8634 306.811L1005.1523 302.7872 1010.629 302.0048 1017 303.6814 1017 306.811 1009.0642 307.4816 980.3391 321.7883 974.527 322.9061 955.1905 323.3531 951.5021 324.6944 951.2785 328.2711 947.5901 331.5124 943.9017 333.189 900.758 338.3305 878.7391 334.7538 867.6737 335.2009 867.6737 338.3305 871.1386 339.0011 880.9745 344.8132 885.6689 346.6015 900.5344 347.7193 900.5344 350.8488 892.5987 353.3078 875.9448 352.1901 867.6737 353.9784 848.002 366.4968 840.4015 366.8321 846.4372 369.7382 852.3611 369.2911 869.9091 360.6847 888.9102 360.4612 884.9982 365.7144 877.9567 370.7441 870.2444 374.6561 858.0614 378.121 836.4895 391.8689 822.8535 397.9045 796.8108 393.6572 782.1688 394.7749 771.8858 398.1281 726.842 397.4574 720.024 394.7749 710.2999 385.6097 697.2227 380.58 690.8517 375.1032 684.8161 371.6383 681.91 368.3969 680.457 364.4849 679.451 359.7905 677.8862 355.7668 675.092 353.9784 671.6271 356.6609 668.4975 363.1437 666.262 370.0735 665.4796 374.4326 666.9327 380.2447 670.7329 385.8332 675.4273 390.1923 688.6163 394.3278 700.1287 400.3635 710.5234 408.5228 716.0002 417.2409 711.9765 425.2884 719.3534 427.7474 735.4484 423.2766 743.7195 423.7237 754.3377 426.7415 762.497 432.6653 762.6088 442.0541 770.321 448.4251 755.5672 458.4845 750.9846 464.1848 754.226 467.3144 756.3496 471.4499 757.5791 476.7032 760.0381 492.4629 759.9263 497.1573 757.6909 498.8339 752.8847 499.0574 750.314 496.822 741.484 479.8328 738.2427 475.0266 734.8895 471.0029 730.9776 468.2086 725.7243 467.3144 723.1536 466.3085 719.8004 462.1729 718.0121 461.2788 716.2238 462.1729 715.4414 464.1848 714.3237 466.3085 711.1941 467.3144 708.7351 466.7556 704.4878 464.6319 702.3641 464.1848 698.6757 465.7496 698.8992 469.3263 700.3523 473.6854 700.464 476.9267 696.6638 481.174 687.8339 486.6508 683.9219 491.0099 679.2275 494.363 676.3215 488.998 672.9683 473.5736 667.1562 480.1681 663.9149 476.2561 661.903 467.985 659.6675 461.2788 653.5201 458.1492 647.2609 459.714 642.343 459.6022 640.2194 451.5547 635.0779 454.349 630.9424 453.0077 622.6713 444.9602 620.5476 441.4953 618.9828 439.8187 616.8592 439.2598 613.5061 440.7129 612.1648 443.0601 611.2706 445.7426 609.147 448.4251 605.0114 450.437 601.4348 450.9958 597.7463 450.1017 593.6108 448.4251 591.1518 446.6367 589.2517 444.4013 587.1281 442.7248 583.7749 442.0541 581.763 443.0601 577.6275 447.3074 575.1685 448.4251 572.2625 451.1076 573.8273 456.3608 578.0746 459.4904 586.4574 454.0136 601.323 457.8139 605.4585 460.8317 606.0174 467.3144 605.9056 474.0207 608.0293 476.9267 613.6178 475.9208 617.5298 474.2442 621.2183 473.7971 626.5833 476.9267 616.8592 489.3333 627.1421 488.6627 632.1718 489.5569 636.4191 492.7982 631.613 497.2691 620.6594 501.8517 616.8592 505.3166 614.7355 513.923 618.7593 516.7173 625.3538 516.1584 641.6724 510.4581 647.1492 510.1228 648.0433 514.8172 645.0255 518.7292 630.3835 527.6708 633.9602 533.8183 640.4429 539.4068 644.3549 545.5542 640.2194 553.0429 634.1837 554.3842 627.1421 551.3663 614.9591 543.5424 607.5822 542.6482 601.0994 543.7659 595.3991 543.0953 589.8106 536.8361 588.3575 532.9241 587.6869 529.0121 586.5692 525.2119 583.7749 521.0763 580.5336 519.1762 577.0686 518.2821 573.7155 516.4937 570.4741 511.5758 565.5562 513.8112 554.1556 500.5105 548.7905 499.0574 547.5611 501.9635 546.3316 507.4403 544.8785 516.382 543.4255 519.3998 540.1842 516.2702 535.2662 508.558 528.8953 513.0288 531.6895 521.1881 541.0783 533.7065 539.9606 533.5947 537.9487 536.5008 536.0486 540.7481 535.2662 544.9954 536.7193 548.0132 540.0724 549.1309 546.7787 549.8015 553.8202 553.9371 558.4029 559.3021 560.0794 566.1201 558.8499 575.0618 557.0616 576.7384 553.7085 581.0975 552.1437 585.6801 555.7204 587.8037 556.391 589.5921 562.7619 596.7454 564.215 597.3043 562.0913 605.4636 556.391 602.6693 546.7787 590.9333 540.2959 587.0213 525.8774 584.1153 519.73 578.5267 520.8477 569.585 517.3828 563.8847 511.6825 560.6433 498.6053 557.2902 493.6873 553.49 493.5756 547.6779 500.3936 540.0774 495.5875 537.5067 485.8634 540.7481 481.8396 538.5127 481.0572 535.8301 481.2807 529.9063 480.8337 527.6708 472.0037 517.4997 461.4972 509.4521 458.8147 506.6579 455.6851 502.187 453.6733 497.0455 454.2321 492.1276 456.1322 490.5628 458.5912 490.8981 461.1619 492.3512 463.1738 494.0277 469.0977 500.8458 471.2213 502.187 476.3628 501.8517 480.0513 498.4986 480.7219 493.0218 476.9217 486.4273 488.6576 483.9683 493.7991 480.3916 496.4816 473.5736 491.4519 471.0029 485.7516 466.7556 481.0572 461.167 478.9336 454.6843 479.2689 450.5487 480.7219 448.6486 482.9573 449.3193 485.7516 453.1195 488.5459 455.0196 492.6814 455.3549 500.3936 454.6843 495.9228 445.7426 493.5756 442.3894 490.5578 439.2598 495.2521 436.9127 505.3116 435.1243 510.0059 432.8889 510.0059 429.5358 494.1344 425.0649 486.7575 420.0352 486.6458 410.9817 493.352 406.6227 502.7408 410.0876 512.3531 415.6761 519.73 417.2409 525.6539 411.6524 521.5184 405.952 514.0297 400.2517 510.0059 394.7749 511.6825 389.6334 515.371 389.2981 519.73 390.1923 523.642 388.7393 525.3186 384.9391 525.2068 380.9153 523.3067 377.6739 519.73 376.1091 524.648 372.9795 545.8845 365.0438 551.5848 370.6323 555.0497 365.8262 558.8499 344.8132 563.209 349.3958 567.7916 350.29 577.9628 347.7193 573.1567 336.8774 572.1507 332.0713 599.4229 313.0702 604.229 319.3294 607.8057 316.4233 611.3824 310.1641 615.8532 306.811 637.5369 302.7872 642.2312 303.6814 643.796 307.2581 643.9078 311.2818 643.5725 315.5292 644.0196 319.5529 645.4726 323.0178 647.4845 326.0356 649.0493 329.3888 649.8317 333.6361 648.9375 337.8834 647.3727 342.0189 646.3668 345.8191 647.9316 352.5254 647.8198 356.4374 647.0374 360.2376 646.0315 363.3672 650.8376 361.3553 656.3144 360.0141 661.0088 357.2198 663.4678 350.8488 662.1265 344.2543 658.7734 336.3186 656.0909 328.0475 657.0968 315.9762 653.4084 312.176 650.167 306.9228 651.9553 297.4222 654.4143 295.075 657.6557 294.6279 660.3382 293.622 661.5677 289.5982 660.6735 285.3509 658.4381 284.9039 655.6438 285.2392 649.6081 281.6625 629.6011 273.9503 616.8592 262.8849 610.6 252.0431 615.6297 244.3309 623.6772 234.9421 626.5833 219.2942 640.89 247.1252 649.9435 256.7375 655.9791 244.4427 648.3787 233.8244 646.5903 223.4297 650.8376 217.9529 661.5677 222.312 654.1908 214.7116 628.3716 202.8638 622.6713 198.84 623.6772 192.022 626.3597 184.6451 630.16 178.7212 634.2955 175.7034 635.9721 176.4858 641.5606 180.7331 644.0196 181.9626 647.4845 181.9626 656.7615 179.1683 659.3322 177.1564 660.6735 172.7974 661.6794 168.4383 662.5736 166.4264 681.6865 165.8675 688.3927 163.9674 693.9813 160.1672 696.552 154.0198 694.8755 147.8724 686.8279 135.8011 683.8101 127.8653 681.1276 124.4004 678.2216 121.2708 676.0979 120.0414 674.7567 118.0295 671.2917 104.2816 677.2156 106.6288 686.2691 117.4706 690.6282 120.0414 696.8873 120.9355 710.1881 126.077 733.7718 140.3837 740.3663 141.6132 754.8966 141.6132 758.138 143.0662 760.9322 145.4134 764.0618 147.3135 768.4209 147.5371 768.4209 144.7428 767.3032 139.1542 771.6623 134.2363 778.2568 130.6596 805.1936 127.9771 810.2233 130.6596 814.9177 134.4598 826.4301 138.3718 831.4598 143.178 844.3135 158.6024 846.2136 164.8616 847.2196 174.1386 848.4491 180.3978 847.1078 185.4275 840.4015 191.0161 834.813 193.475 827.4361 195.4869 820.2827 196.0458 815.0295 194.3692 812.2352 189.2277 807.429 173.6915 803.4053 169.556 798.5991 170.7855 794.1283 175.927 785.969 187.8865 795.5813 188.11 797.2579 194.2574 793.6812 214.488 797.4814 217.6176 815.3648 207.67 821.9593 208.3406 823.1888 213.1468 822.7417 218.8471 821.624 224.8827 820.9534 230.3595 821.2887 238.1835 822.2946 240.9778 826.6537 240.9778 827.7714 240.3072 829.6715 236.0598 831.4598 235.1657 832.6893 236.5069 834.4777 243.325 835.4836 245.8957 839.2838 248.3547 843.7547 248.1311 847.6667 245.5604 849.9021 240.9778 855.826 244.5545 859.4026 249.2488 861.191 255.7316 861.6381 264.5615 863.3146 270.7089 867.3384 278.5329 872.1446 285.2392 876.2801 288.0334 881.198 285.1274 878.8508 278.3094 871.4739 266.2381 874.4917 260.6495 880.6392 261.879 892.8222 269.3677 890.6986 258.6376 883.8805 254.055 876.6154 251.2607 873.2623 245.8957 875.1624 242.5426 878.9626 239.6365 881.5333 236.0598 880.1921 230.3595 876.5036 228.3476 867.7855 232.3714 863.6499 231.7008 860.7439 228.1241 860.5204 224.5474 860.8557 220.859 859.738 216.1646 858.3967 213.5938 856.3848 210.7996 854.4847 210.2407 853.7023 214.488 852.5846 218.8471 849.7903 221.1943 846.3254 222.2002 843.084 222.312 839.8427 220.6354 841.1839 216.4999 846.2136 209.9054 859.1791 183.1921 862.644 179.1683 865.7736 177.7153 873.374 171.009 877.1743 169.556 936.6365 165.0851 952.2845 160.1672 960.7791 160.279 968.2678 162.4026 971.3974 164.8616 974.4152 169.556 979.2213 188.2218 981.1215 191.0161 984.1393 193.3633 992.8574 208.3406 995.8752 211.4702 999.7872 213.8174 1007.4994 216.1646 1005.264 220.6354 999.7872 224.1003 997.6636 228.7947 1004.9287 228.7947 1007.1641 232.9303 1004.7052 238.0717 997.6636 240.9778 962.3439 236.1716 938.5366 221.7531 932.6128 220.4119 930.1538 224.1003 933.6187 235.1657 918.5296 228.6829 900.5344 237.96 905.5641 246.3428 915.0647 253.2726 925.6829 258.0788 933.6187 259.9789 949.9373 255.9551 957.873 260.873 984.3628 263.6673 994.8693 266.7969 1003.811 272.9443 1007.4994 283.3391 1002.358 289.1512 990.5102 293.622 970.3914 297.4222 970.3914 300.7754 987.4924 307.0345 993.8634 306.811ZM445.9611 120.0414L434.1133 117.0235 431.4308 115.347 429.5307 111.5468 428.8601 107.6348 430.3131 104.7287 434.3369 104.2816 440.8196 100.9285 448.0847 103.4992 455.4616 108.0818 462.3914 110.429 491.4519 107.2994 494.0227 107.9701 494.1344 109.6466 493.7991 111.7703 494.5815 114.1175 496.4816 117.1353 497.3758 120.0414 499.0524 122.0532 503.2997 122.8356 505.1998 121.6062 506.4293 118.8119 507.3234 115.7941 508.1058 114.1175 511.0119 111.7703 513.0238 110.7644 515.818 110.429 522.3008 112.888 527.1069 119.259 530.1248 128.3124 531.3542 138.4836 524.4244 140.2719 517.8299 143.9604 501.3996 144.7428 494.6933 141.2779 485.1927 126.3006 477.9276 122.8356 445.9611 120.0414ZM440.3725 598.5338L445.0669 590.3745 452.332 587.9155 461.9443 587.8037 462.9503 593.057 456.244 595.0689 456.244 601.3281 450.9908 606.6931 447.6376 612.9523 454.0086 617.1996 465.0739 615.7465 472.7861 611.7228 476.1393 617.5349 468.9859 622.8999 463.2856 628.712 460.9384 635.53 453.1144 631.7298 446.8552 627.4825 442.4961 622.6763 435.231 623.6823 431.7661 617.8702 425.5069 613.1758 434.1133 605.7989 441.3784 603.8988 440.3725 598.5338ZM823.8594 444.7366L827.6596 448.4251 827.7714 449.0957 826.4301 449.7663 826.0948 453.0077 825.2007 456.8079 821.9593 456.9197 816.5943 454.5725 814.0235 454.5725 814.0235 456.5844 815.8119 461.0552 814.4706 463.0671 811.2293 462.62 810.8939 463.8495 813.9118 465.8614 817.0414 464.4084 819.3886 461.6141 819.9474 462.62 818.6062 466.8673 817.9355 471.2264 818.4944 475.5855 820.8416 480.8387 820.618 483.633 819.8356 485.5331 819.9474 488.4392 821.8475 491.9041 820.5063 493.916 814.5824 492.7982 812.347 490.3393 814.4706 487.7685 814.5824 484.6389 813.0176 484.6389 809.9998 485.6449 805.4172 483.2977 801.3934 480.1681 794.9107 476.815 794.1283 474.4678 794.1283 470.3322 792.6752 466.6438 789.0986 463.2906 786.7514 459.2669 788.7633 456.2491 792.2282 453.6783 796.1402 451.4429 800.2757 450.3252 803.07 448.4251 805.7525 447.8662 806.5349 447.3074 804.4112 445.1837 805.4172 443.9542 809.6645 444.1778 813.0176 445.519 814.5824 447.7545 815.8119 449.7663 817.3767 449.9899 819.9474 449.5428 821.5122 447.5309 821.1769 444.4013 822.4064 443.9542 823.8594 444.7366ZM465.4092 431.6594L467.0858 433.7831 467.7564 438.4774 465.2975 441.8306 462.5032 442.8365 460.9384 442.2777 460.3795 440.9364 459.7089 439.3716 458.703 438.1421 457.2499 438.0304 455.5734 438.3657 454.3439 436.4656 456.0205 430.877 455.4616 427.3003 456.5793 422.6059 460.0442 419.141 462.9503 420.147 463.062 423.1648 462.0561 426.8532 463.6209 430.3182 465.4092 431.6594ZM447.1905 140.719L451.1025 145.0781 455.0145 148.8783 462.7267 154.6904 463.1738 145.5252 469.433 146.4194 470.9978 153.6845 477.257 157.4847 487.987 158.9377 488.993 164.191 480.7219 166.2029 470.1036 171.5679 461.3855 176.4858 453.1144 177.4917 444.9551 172.2385 445.8493 165.4205 451.6614 160.5025 444.8433 158.6024 433.778 160.6143 424.9481 155.3611 423.048 150.4431 430.7602 149.549 439.0312 148.543 441.3784 140.2719 447.1905 140.719ZM223.4246 120.0414L227.2249 124.2887 228.2308 129.7655 226.8895 134.3481 225.213 135.1305 224.3188 132.5597 224.0953 129.989 223.2011 127.9771 219.7362 126.6359 214.1476 125.2946 208.4473 120.6002 205.5413 110.9879 209.4532 107.1877 217.2772 113.6704 221.1892 118.4766 223.4246 120.0414ZM75.4396 24.0299L77.1162 25.93 77.3397 28.1655 75.1043 28.8361 71.3041 27.7184 61.9153 23.3593 58.0033 22.4651 55.5443 21.3474 55.3208 19.0002 57.668 16.8766 59.3446 14.9765 59.121 12.741 57.2209 8.382 57.3327 4.47 61.2447 5.4759 64.9331 9.2761 68.8451 14.9765 70.1864 17.5472 71.3041 20.565 71.9747 22.018 75.4396 24.0299Z" />
</svg>