<?xml version="1.0" encoding="utf-8"?>
<svg xmlns="http://www.w3.org/2000/svg" viewBox="0 0 1021 371" style="stroke-width:0.25px;stroke-linejoin:round;stroke:#444;fill:#ddd" fill-rule="evenodd">
  <path class="FM" d="M1016.2176 186.3942L1016.4411 186.6177 1016.6647 186.7295 1016.8882 186.8413 1017 187.1766 1016.8882 187.6237 1016.2176 188.9649 1015.9941 189.1884 1015.4352 189.3002 1014.8763 189.1884 1014.4293 188.9649 1013.8704 188.9649 1012.9762 188.9649 1012.4174 188.8531 1011.7468 188.6296 1011.635 187.959 1012.0821 187.2883 1013.9822 185.6118 1014.7646 185.0529 1015.547 184.8294 1016.2176 185.2765 1016.2176 185.5 1016.2176 186.1706 1016.2176 186.3942ZM823.6359 121.1198L823.8594 121.4551 824.1947 121.6787 824.6418 121.5669 824.9771 121.3433 825.536 123.467 825.536 123.9141 825.2007 124.0259 824.3065 123.9141 824.1947 124.0259 824.3065 124.4729 824.6418 125.2553 824.7536 125.7024 824.53 126.373 824.1947 126.8201 823.7476 126.9319 821.7358 127.2672 820.9534 127.1554 820.5063 126.7084 819.6121 127.0437 819.165 126.5966 818.7179 126.0377 818.2708 125.5906 818.4944 125.0318 818.4944 124.5847 818.3826 124.0259 818.0473 123.6905 818.1591 123.467 818.2708 123.0199 817.1531 123.0199 816.9296 122.3493 817.1531 121.008 817.6002 120.5609 818.3826 120.5609 819.0532 120.3374 819.165 119.4432 819.9474 119.7785 820.2827 120.0021 820.618 119.7785 820.9534 119.7785 821.2887 119.8903 821.624 120.0021 822.6299 119.8903 823.077 120.0021 823.077 120.1139 823.7476 120.5609 823.8594 120.5609 824.1947 120.8963 824.0829 121.008 823.6359 121.1198ZM551.026 102.7893L552.3672 102.454 552.9261 102.6776 553.4849 103.46 553.5967 104.0188 553.2614 104.8012 552.9261 105.1365 552.3672 104.4659 552.1437 104.4659 551.8084 104.8012 551.3613 104.8012 550.8024 104.5777 550.2436 104.4659 550.3553 104.3541 550.4671 104.3541 550.8024 104.2424 551.1377 104.0188 552.2554 103.7953 552.3672 103.5717 552.2554 103.1246 551.3613 103.2364 551.026 102.7893ZM562.7619 99.7715L562.9855 99.548 563.4326 99.548 563.8796 99.6597 564.4385 99.7715 563.9914 100.2186 563.3208 100.6657 562.5384 101.1128 561.8678 101.1128 561.8678 100.6657 561.9795 100.2186 562.2031 99.4362 562.4266 99.548 562.5384 99.548 562.7619 99.7715ZM6.1415 12.7018L5.6944 13.3724 5.8062 13.9312 6.365 14.1548 7.2592 13.8195 7.0356 14.2666 6.5886 14.9372 6.0297 15.496 5.5826 15.8314 5.0238 15.6078 4.6884 14.7136 4.2414 14.9372 3.7943 15.2725 1.5589 18.8492 1.1118 19.408 1 18.4021 1.3353 17.0608 2.0059 15.7196 2.6766 15.1607 2.9001 14.9372 3.2354 13.4842 3.459 13.0371 4.1296 12.7018 4.3531 13.0371 4.4649 14.1548 4.5767 13.7077 4.6884 13.2606 4.8002 12.9253 5.0238 12.7018 5.3591 12.3664 5.9179 12.1429 6.2532 12.1429 6.1415 12.7018ZM682.0218 366.234L682.2453 366.3458 682.3571 366.4575 682.1336 366.5693 681.6865 366.5693 681.5747 366.3458 681.7982 366.234 682.0218 366.234ZM678.2216 364.6692L678.4451 364.5574 678.8922 364.6692 678.6686 364.8927 678.2216 364.8927 678.2216 364.6692ZM681.3512 364.4457L681.4629 364.6692 681.3512 364.781 681.0158 364.781 680.7923 364.5574 680.7923 364.3339 681.0158 364.3339 681.3512 364.4457ZM684.8161 251.2215L684.8161 250.6626 685.3749 250.2155 685.4867 250.7744 684.8161 251.2215ZM681.2394 249.6567L681.3512 250.2155 680.5688 250.6626 680.457 250.1037 681.2394 249.6567ZM635.6367 188.6296L635.7485 188.1825 636.3074 187.7354 636.978 187.4001 637.3133 187.5119 637.2015 187.8472 636.6427 188.2943 635.9721 188.5178 635.6367 188.6296ZM777.6979 168.7343L777.6979 168.6226 777.5861 168.6226 777.5861 168.5108 777.6979 168.5108 777.8097 168.5108 777.8097 168.6226 777.6979 168.6226 777.6979 168.7343ZM458.5912 130.9557L458.5912 130.7321 458.5912 130.3968 458.703 130.1733 458.9265 130.0615 459.0383 130.285 458.9265 130.5086 458.8147 130.7321 458.5912 130.9557ZM809.2174 130.1733L809.3292 129.7262 809.4409 129.6144 809.6645 129.5026 809.6645 129.838 809.5527 129.9497 809.2174 130.1733ZM561.9795 105.5836L561.756 104.0188 561.8678 103.3482 562.2031 103.6835 562.3149 104.1306 562.3149 104.6894 562.0913 105.1365 561.9795 105.5836ZM453.338 103.3482L453.1144 102.9011 453.338 102.9011 453.4497 103.0129 453.338 103.1246 453.338 103.3482ZM502.9644 53.8336L502.8526 53.4982 503.0761 53.4982 503.0761 53.61 503.0761 53.7218 502.9644 53.8336ZM472.8979 53.9453L472.7861 53.3865 472.8979 52.7158 473.2332 52.157 473.6803 52.157 473.7921 52.6041 473.5685 53.0512 473.2332 53.61 472.8979 53.9453ZM491.2284 37.4032L491.4519 36.9561 491.5637 36.9561 491.7872 36.9561 491.6755 37.1796 491.5637 37.2914 491.4519 37.2914 491.2284 37.4032ZM100.5881 4.766L100.9234 4.4307 101.2587 4.4307 101.3705 4.5425 101.0352 4.8778 100.6999 4.9895 100.5881 4.766Z" />
</svg>