<?xml version="1.0" encoding="utf-8"?>
<svg xmlns="http://www.w3.org/2000/svg" viewBox="0 0 657 1024" style="stroke-width:0.25px;stroke-linejoin:round;stroke:#444;fill:#ddd" fill-rule="evenodd">
  <path class="FO" d="M472.4143 1018.2117L461.4607 1020 450.9542 1009.9406 433.4062 983.5626 390.1507 942.5426 369.5848 913.035 371.8202 887.6629 359.3019 872.1267 344.5481 848.4312 333.5945 823.8416 332.2532 805.7347 330.0178 800.8167 325.7705 785.7276 335.4946 785.7276 334.4887 782.0392 334.2651 781.145 332.2532 778.3507 349.6895 766.503 358.0724 765.2735 365.114 772.0915 355.5017 782.9333 352.0367 785.7276 356.6194 790.1985 361.4255 792.3221 366.4552 792.7692 371.8202 791.9868 348.7954 813.1116 348.7954 819.3707 390.9331 814.341 403.675 831.1067 432.9591 835.4658 443.4656 846.7547 444.5833 860.1672 439.2183 868.103 431.5061 869.6678 425.2469 864.0792 419.323 856.5905 411.499 853.0139 404.2339 853.908 400.5454 860.3908 409.8224 862.8497 415.2992 871.3443 419.2112 880.9567 423.5703 887.6629 428.3765 888.6689 438.7712 886.0981 443.4656 887.6629 448.0482 893.475 450.0601 899.846 448.607 905.211 443.4656 908.7877 443.4656 915.6057 463.2491 926.0004 461.4607 934.6068 457.2134 936.0598 451.7366 934.9421 446.3716 935.2774 430.053 944.5545 421.6702 945.5604 410.9402 942.0955 410.9402 949.5842 416.3052 950.9254 420.9996 954.3903 424.5762 960.7613 426.8117 970.0383 432.2884 958.7494 440.7831 955.0609 459.6724 956.4022 458.5547 960.0906 456.431 970.0383 466.9375 974.5091 474.0909 989.0394 476.3263 1006.0286 472.4143 1018.2117ZM492.5331 592.3635L485.8268 602.9817 482.6972 609.9116 484.262 613.0411 485.268 618.2944 484.262 647.3549 481.9149 650.5963 478.4499 657.6378 474.2026 664.6794 469.3965 667.9208 466.0433 665.1265 434.971 599.6286 428.6 592.3635 385.0092 584.316 377.297 581.0746 370.9261 573.9212 368.2436 561.0675 366.2317 543.4077 355.9487 518.818 352.0367 502.723 363.1021 504.7349 383.2209 513.7883 392.8332 515.8002 408.1459 513.2295 413.8462 515.8002 418.3171 520.9417 425.0233 533.013 430.3883 536.4779 466.6022 546.9844 472.4143 554.1377 475.5439 568.4444 489.2917 582.4158 492.5331 592.3635ZM125.1413 314.9474L112.2876 303.8821 103.3459 280.7454 102.3399 260.6266 113.7406 258.7265 130.7298 276.1628 136.5419 279.6277 140.1186 280.2983 151.1839 279.6277 154.8724 277.3923 156.1019 272.5861 156.4372 267.8917 157.7784 265.6563 163.367 263.4209 171.6381 253.4733 205.0576 244.7551 205.0576 251.1261 201.9281 251.1261 201.9281 258.7265 220.3703 271.5802 226.4059 273.2568 231.6592 276.6099 239.2596 293.2638 244.1776 300.4172 256.0253 304.6645 268.5437 303.8821 280.2796 306.4528 289.6684 321.3184 283.7446 334.2838 279.4972 347.4728 273.6851 357.9793 263.6257 362.8972 255.1311 361.3325 247.3072 357.5322 239.5949 356.5263 231.1003 362.8972 234.9006 366.5857 238.8125 369.0447 243.0598 370.2741 247.7542 370.4977 219.9232 384.3573 211.6521 391.2871 215.6759 380.3336 217.7996 376.8686 214.5582 362.6737 209.0814 350.1553 202.4869 344.1197 195.3336 349.0376 199.3573 352.3908 205.1694 359.4323 209.5285 368.1505 208.6343 376.8686 203.6046 377.9864 182.3681 362.8972 152.7487 356.6381 133.5241 342.8902 126.8178 342.1078 126.8178 335.178 172.3087 335.178 161.6904 326.7952 149.3956 320.4242 125.1413 314.9474ZM201.9281 237.8253L197.3454 231.7897 195.8924 227.9894 195.3336 220.389 196.4513 209.4354 199.2455 206.6411 202.3751 206.3058 205.0576 202.9527 207.7402 188.8695 208.1872 178.4748 210.3109 171.3215 217.7996 167.4095 208.7461 152.3204 208.8579 130.8603 214.8935 90.5109 217.3525 95.4288 219.4761 96.4348 221.8233 96.0994 224.6176 97.5525 257.2548 105.4882 273.3498 115.4359 280.1679 129.4073 286.3153 154.2205 309.2284 200.382 309.2284 223.8539 325.2117 229.3307 352.3721 253.2497 376.5146 260.9619 380.6502 266.8858 381.0972 275.7157 378.0794 286.5575 373.6086 294.0462 367.2376 300.6407 360.6431 305.3351 355.2781 307.4587 396.9688 305.4469 404.1221 318.077 410.8284 333.3897 413.0638 344.2315 409.1518 349.0376 381.3208 349.0376 381.3208 356.6381 398.1982 364.3503 430.3883 363.5679 443.4656 376.8686 438.3241 389.2752 434.6356 405.9292 435.6416 420.3476 451.4013 429.5129 450.5072 438.0075 448.0482 451.0847 449.9483 468.0739 434.4121 473.9978 419.8818 458.3498 406.134 437.2251 376.0675 416.6592 350.6955 372.8449 333.818 362.8972 327.1118 360.5501 322.6409 353.5085 320.2937 341.6607 319.5113 325.1186 316.3817 315.7298 309.0048 305.8939 300.2867 297.6229 293.2451 292.8167 255.8018 286.5575 247.4189 282.0867 242.6128 272.3626 243.0598 262.7503 250.6603 258.7265 246.5248 246.5435 240.042 247.7729 232.4416 254.591 224.6176 258.7265 219.4761 256.3793 206.1754 243.7492 201.9281 237.8253ZM281.7327 115.3241L277.5971 109.1767 272.2321 103.4763 267.873 97.5525 267.2024 90.5109 271.2262 83.3575 276.1441 84.4752 281.6209 88.7226 286.6506 90.5109 297.0453 86.04 314.3699 72.404 336.1652 67.5978 341.9773 69.6097 346.8953 73.6334 351.1426 78.5514 355.6134 82.4634 361.5373 83.4693 363.5492 93.9758 355.2781 101.2409 344.4363 107.6119 339.0713 115.3241 339.2948 132.5369 340.6361 146.3965 344.5481 157.6854 352.0367 167.4095 347.2306 136.2253 349.3542 124.154 384.8975 111.4121 396.6334 112.1945 404.1221 125.4953 400.3219 126.5012 391.3802 133.0957 428.6 139.4667 433.1826 144.2728 429.1589 154.5558 420.5525 164.3916 410.9402 167.4095 410.9402 175.1217 416.4169 176.91 425.4704 186.187 430.3883 188.9813 434.3003 188.1989 443.3538 182.7221 448.16 181.3809 474.2026 191.2167 494.3215 205.2999 495.7745 211.8944 489.5153 215.6946 477.5558 216.9241 448.9424 212.7886 440.1124 216.9241 440.1124 223.8539 498.457 255.3734 515.558 273.2568 490.7448 269.9036 466.1551 258.7265 466.1551 265.6563 476.6616 267.8917 486.2739 275.604 502.2572 292.8167 502.2572 300.4172 493.6508 299.0759 483.815 300.5289 475.0968 305.4469 469.3965 314.9474 471.5201 316.8475 473.532 319.8653 475.8792 321.3184 475.8792 328.807 471.8554 333.0543 470.0671 337.3017 470.2906 342.2196 472.4143 349.0376 454.978 336.8546 450.2836 315.618 450.0601 290.246 446.3716 265.6563 438.1006 247.3259 425.3586 226.4246 410.9402 213.0121 397.5276 216.9241 408.7047 230.2249 422.8997 242.855 435.0827 259.956 440.1124 286.5575 431.6178 308.5765 412.2814 292.705 374.8381 244.7551 355.3899 245.9846 350.4719 241.2902 347.4541 236.8194 337.5065 225.9776 333.818 223.8539 328.1177 218.3771 298.2748 167.1859 281.7327 115.3241ZM528.2999 216.9241L512.0931 194.1228 506.7281 178.5866 508.7399 161.0385 512.0931 154.8911 513.9932 155.5617 515.2227 159.0266 517.011 161.0385 520.8112 159.6972 521.5936 155.7853 521.5936 149.9732 523.2702 142.9316 524.1644 134.2134 522.8231 105.9353 521.7054 97.5525 515.8933 76.4277 511.9813 57.5384 514.4403 42.6728 528.2999 33.8429 524.7232 41.4433 538.024 81.7927 554.3426 110.5179 574.5732 130.9721 600.057 146.5083 591.2271 162.1562 576.3615 164.5034 561.0488 157.7971 550.9894 146.5083 547.7481 154.1087 565.4079 179.0337 574.7967 187.193 583.8502 181.3809 585.1914 199.2642 586.868 205.0763 590.3329 209.9943 590.3329 216.9241 582.3971 222.6244 572.673 225.0834 563.2843 222.5127 556.0191 213.3474 543.0537 185.5164 535.565 177.5806 528.2999 181.3809 538.4711 216.1417 542.7184 227.0953 544.6185 234.2486 541.3771 234.4722 536.9063 231.7897 532.1001 227.5424 530.7589 224.1892 529.8647 220.5008 528.2999 216.9241ZM41.3129 301.8702L47.9074 307.9058 52.2664 310.9237 47.7956 312.8238 41.76 313.6062 2.7518 309.9177 1.0752 302.6526 13.9289 295.0521 27.7886 294.2697 41.3129 301.8702ZM631.1294 97.2172L645.4361 97.5525 652.9248 102.6939 652.3659 109.2884 638.3945 124.154 641.5241 134.6605 641.6359 144.0493 639.4004 150.532 635.0414 155.897 628.8939 159.5855 621.4053 162.4915 613.4695 160.9267 607.881 150.6438 602.8513 137.1195 601.1747 125.7188 606.875 117.7831 614.8108 113.7593 631.1294 97.2172ZM505.4986 115.8829L507.6222 124.3776 508.1811 139.4667 501.1395 145.2788 490.7448 140.0255 481.1325 125.8306 476.4381 116.1065 463.5844 83.9164 458.3311 60.3327 460.0077 37.6431 467.8317 29.3721 475.5439 37.196 479.7912 52.1734 500.2453 100.5703 505.4986 115.8829ZM472.4143 142.2609L475.5439 146.62 479.7912 157.6854 477.7793 168.4154 470.5142 170.5391 461.9078 165.5094 455.0898 154.3322 451.2895 137.7901 446.5952 122.5892 443.1303 116.1065 433.7415 101.2409 421.1113 77.0983 417.7582 68.6037 409.2636 42.6728 408.3694 28.2543 413.1756 23.7835 419.7701 29.8191 426.141 41.7787 439.2183 75.8689 472.4143 142.2609ZM589.327 80.7868L593.0154 84.9223 596.2568 95.3171 594.0213 104.3705 590.8917 111.3003 582.3971 115.3241 567.1963 109.6238 553.0013 95.2053 541.7124 74.9747 534.6708 57.7619 530.2 31.7193 524.0526 25.3483 519.47 12.1593 525.8409 4 537.018 7.5767 543.8361 15.6242 548.6422 28.5897 552.2189 43.567 558.1428 54.8559 564.9608 64.58 567.6433 73.6334 567.6433 80.675 570.3259 87.1578 575.3556 85.9283 580.6088 78.9985 586.3091 78.5514 589.327 80.7868Z" />
</svg>