<?xml version="1.0" encoding="utf-8"?>
<svg xmlns="http://www.w3.org/2000/svg" viewBox="0 0 1021 984" style="stroke-width:0.25px;stroke-linejoin:round;stroke:#444;fill:#ddd" fill-rule="evenodd">
  <path class="FR" d="M530.3483 4.1747L531.3542 6.7454 532.0249 11.5516 532.8073 13.6752 535.2662 16.4695 536.2722 18.1461 536.4957 20.2697 536.1604 20.9404 534.5956 22.6169 534.1485 23.5111 535.4898 28.429 535.378 29.0997 534.9309 30.3292 534.8191 30.7762 535.0427 31.2233 535.8251 31.5586 536.1604 32.0057 536.831 33.347 537.1663 34.0176 537.6134 34.2411 538.6194 34.4647 539.29 34.4647 540.5195 34.2411 541.1901 34.3529 542.0843 34.8 542.4196 35.4706 542.6431 36.1413 543.0902 37.0354 545.6609 39.4944 546.108 40.165 547.0022 42.4004 547.3375 43.0711 548.6788 44.1888 554.1556 46.6477 554.4909 46.8713 555.6086 47.0948 556.5028 46.4242 558.6264 42.7358 559.8559 41.3945 561.4207 40.3886 564.9974 39.2708 570.5859 37.4825 572.3743 38.0414 573.492 39.1591 574.6097 41.2827 575.6156 42.9593 576.5098 45.0829 577.0686 45.7536 577.9628 45.8653 578.9688 46.2007 579.5276 47.2066 580.31 49.7773 579.3041 51.5657 579.8629 54.6953 581.6513 60.8427 581.763 64.3076 582.0983 65.5371 583.2161 66.9901 584.1102 67.6607 587.1281 69.2255 588.3575 69.5608 590.0341 69.4491 593.0519 68.3314 594.0579 67.549 594.7285 66.8783 595.3991 66.4312 596.4051 66.3195 597.411 66.6548 597.8581 67.2136 597.7463 68.1078 597.0757 69.3373 597.9699 69.8961 602.4407 70.0079 604.0055 70.3432 605.4585 71.0139 606.7998 72.3551 607.9175 74.4788 608.5881 78.6143 608.5881 83.644 609.147 88.1149 611.6059 90.3503 611.8295 89.6796 611.9413 89.6796 612.053 89.7914 612.3883 89.5679 612.6119 89.2326 612.8354 88.3384 614.1767 86.2147 614.7355 85.5441 615.6297 85.2088 618.6475 84.9853 621.5536 85.3206 622.8948 85.9912 624.1243 86.8854 625.3538 87.4442 626.9186 87.4442 631.2777 85.5441 632.8425 85.4323 634.1837 86.103 636.4191 88.6737 637.8722 89.4561 639.3252 90.7974 641.2253 94.8211 642.4548 95.4917 643.0136 94.9329 642.9019 94.1505 642.9019 93.4799 643.796 93.1446 644.4667 93.3681 645.3608 93.927 646.255 94.7094 646.7021 95.38 646.4785 96.4977 645.8079 97.2801 644.1314 98.6213 643.4607 99.6273 643.1254 100.5215 642.7901 102.5333 641.4488 106.7806 641.2253 108.7925 642.2312 109.2396 643.5725 108.6807 644.3549 108.569 645.0255 108.9043 646.255 113.4869 646.5903 114.4928 647.1492 115.387 647.0374 116.0576 645.4726 116.9518 643.796 118.0695 642.5666 119.299 642.0077 119.8579 641.6724 120.6403 641.4488 121.9815 641.7842 122.0933 642.1195 123.7699 642.2312 125.3347 641.6724 125.2229 645.5844 127.3465 646.4785 127.6818 647.4845 127.4583 651.7318 126.8994 662.1265 129.6937 662.6854 129.9173 664.6972 129.4702 674.3096 124.664 677.2156 124.2169 677.998 123.7699 678.5569 122.5404 679.1157 120.8638 679.6746 117.3989 679.5628 116.6165 679.3393 116.0576 679.1157 115.4988 679.3393 114.3811 679.6746 113.5987 687.0515 106.11 688.9516 105.2158 689.2869 106.7806 690.0693 107.116 692.193 106.6689 692.8636 107.563 692.7518 109.4631 692.4165 111.5868 692.193 113.4869 691.5223 112.7045 691.0752 112.8163 689.734 115.7223 689.734 116.6165 689.8458 117.5107 689.734 118.7402 687.0515 125.3347 686.8279 127.123 687.7221 128.576 690.9635 129.9173 692.0812 131.9292 692.193 133.2704 691.9694 134.2763 691.6341 135.1705 691.2988 136.4 691.0752 136.9589 690.4046 137.7413 690.2928 138.4119 690.4046 138.859 691.0752 140.0884 691.2988 140.6473 691.2988 144.6711 691.8576 145.4535 693.7578 145.7888 695.2108 145.4535 698.2286 144.4475 699.5699 144.3358 699.6816 144.3358 700.9111 145.1182 703.4818 147.5771 704.9349 148.3595 707.3938 149.1419 708.1762 149.9243 711.1941 154.1716 712.2 155.1776 713.4295 156.1835 714.9943 156.6306 718.1239 155.7364 719.6887 155.7364 721.1417 157.0777 722.3712 158.7542 722.93 160.319 722.5947 160.7661 722.0359 161.1014 721.8123 162.6662 722.0359 163.5604 722.3712 164.0075 723.4889 164.231 723.936 164.1193 724.3831 163.5604 724.6066 163.0015 724.8301 162.6662 725.2772 162.778 726.0596 163.2251 728.1833 164.0075 728.7421 164.4546 729.5245 165.1252 732.8777 171.2726 733.1012 172.1668 733.1012 173.2845 732.8777 174.2904 732.8777 175.2964 733.213 176.1905 734.7778 176.6376 736.5661 175.5199 738.2427 174.1787 739.5839 173.6198 741.7076 174.6257 742.3782 174.7375 743.3842 174.6257 743.6077 174.1787 743.7195 173.3963 744.6136 172.2785 746.2902 171.3844 747.855 171.8315 749.308 172.5021 750.8728 172.8374 751.6552 172.3903 752.5494 171.2726 753.3318 170.8255 754.1142 170.9373 755.5672 171.8315 756.3496 172.055 758.585 174.9611 759.8145 176.0788 761.4911 176.9729 765.9619 177.9789 767.1914 179.3201 768.1974 182.338 769.3151 181.8909 775.2389 181.5556 776.2449 181.2202 776.9155 180.2143 777.8097 179.879 777.9215 179.3201 777.9215 178.6495 778.2568 177.9789 778.8156 177.7553 780.7157 177.5318 780.2686 176.6376 784.2924 176.1905 786.1925 176.4141 788.0926 177.0847 788.2044 177.1965 791.5575 179.6554 793.3459 180.6614 794.7989 180.8849 795.3578 180.8849 796.0284 180.7732 797.3696 179.879 797.9285 179.6554 798.7109 179.7672 805.0818 183.0086 806.3113 184.1263 806.6466 185.0205 806.8702 185.9146 806.8702 186.4735 806.7584 186.4735 807.2055 187.2559 810.5586 190.8326 810.7822 191.3914 810.5586 192.2856 809.3292 192.3974 808.8821 193.2915 809.3292 194.521 810.5586 195.974 815.1413 200.4449 815.253 200.892 815.0295 201.8979 815.1413 202.345 815.4766 202.6803 816.4825 203.0156 816.8178 203.3509 817.3767 205.251 817.6002 205.6981 817.6002 205.9217 817.712 206.8158 817.9355 207.1512 818.2708 207.1512 819.165 206.4805 819.5003 206.4805 819.9474 208.1571 819.5003 209.4983 819.3886 210.8396 820.2827 212.2926 821.0651 212.6279 824.0829 212.6279 826.8772 213.6339 827.6596 213.5221 828.8891 211.8455 828.6656 210.169 828.1067 208.3806 828.5538 206.9276 829.2244 206.8158 832.1305 207.4865 834.1424 207.2629 834.9248 207.3747 839.1721 209.8337 840.7369 209.8337 840.6251 213.6339 841.4075 216.5399 842.9723 217.7694 845.0959 216.4282 845.2077 215.8693 844.9842 215.3105 844.8724 214.7516 845.543 214.081 845.9901 214.081 848.5608 216.0928 849.6785 216.6517 850.7963 216.987 856.7201 217.0988 858.6202 217.8812 858.9556 217.993 859.4026 217.5459 860.185 216.0928 860.6321 215.534 861.191 215.3105 862.644 215.1987 863.0911 214.8634 863.5382 214.3045 863.9853 212.7397 864.3206 212.2926 865.4383 211.622 865.7736 211.5102 867.1149 211.1749 868.4561 211.2867 868.6796 212.4044 871.6975 212.6279 872.927 213.075 873.374 214.6398 872.927 214.9751 872.7034 215.1987 872.5916 215.534 873.5976 216.5399 875.1624 219.1107 876.0565 220.2284 877.5096 221.2343 880.6392 221.7932 882.0922 222.5756 882.651 223.1344 883.3217 224.5875 883.9923 225.1463 884.6629 225.2581 884.8865 225.2581 885.7806 225.1463 886.563 224.6992 887.4572 224.5875 888.1278 224.6992 889.6926 225.2581 890.3633 225.3699 891.1457 225.1463 892.8222 224.2521 893.4928 224.0286 899.305 225.7052 903.2169 225.2581 904.4464 225.3699 915.4 231.2937 922.218 232.635 923.0004 233.4174 923.0004 233.5292 921.5474 235.0939 919.4238 239.2295 916.2942 247.8359 915.4 249.2889 915.0647 249.736 912.4939 251.0772 911.8233 251.0772 911.7116 251.3008 911.3762 251.6361 911.0409 252.1949 910.9292 253.2009 910.8174 253.7597 910.3703 254.095 909.8114 254.3186 907.9113 254.3186 907.1289 254.6539 906.7936 255.5481 906.6818 257.56 906.3465 258.3424 905.6759 259.3483 904.67 260.2425 903.8876 260.8013 901.9875 263.0367 900.9815 263.9309 899.752 264.378 898.9696 264.9369 896.0636 269.5195 895.5047 272.8726 895.5047 276.5611 896.2871 278.7965 896.2871 279.4671 894.6106 280.8084 893.7164 281.7025 893.3811 282.7085 893.2693 284.6086 892.934 285.6145 892.4869 286.2851 891.9281 287.2911 891.5927 288.5206 891.1457 291.3149 891.0339 292.6561 891.2574 293.8856 891.7045 295.2268 892.0398 296.5681 891.9281 298.0211 891.0339 299.5859 889.6926 300.2565 888.5749 301.1507 888.1278 303.3861 888.0161 305.5098 887.569 307.2981 886.7866 308.7512 882.4275 314.8986 881.9804 316.1281 881.8686 317.6928 881.5333 318.4752 881.0862 319.1459 880.5274 320.04 880.0803 321.6048 879.6332 323.6167 879.8568 327.864 882.8746 333.229 882.9864 336.3586 882.3157 337.6999 880.5274 339.6 880.0803 340.9413 880.1921 342.6178 880.0803 343.1767 879.6332 344.1826 879.4097 344.6297 878.8508 345.0768 878.7391 345.5239 878.6273 345.971 878.6273 346.3063 878.7391 346.5298 878.7391 346.9769 879.0744 348.877 878.8508 349.9947 877.9567 350.5536 877.6213 351.0007 876.6154 354.3538 876.3919 355.8068 877.286 359.3835 877.1743 361.0601 876.8389 361.7307 875.7212 362.9602 875.3859 363.6308 875.6095 365.8662 875.833 366.9839 876.1683 367.431 877.1743 367.9899 878.0684 369.2194 879.6332 372.349 880.0803 372.9078 880.5274 373.2431 880.8627 373.802 880.9745 374.8079 880.8627 375.1432 880.5274 376.2609 878.0684 377.1551 876.3919 378.0493 876.0565 378.3846 873.374 380.5083 873.5976 380.62 874.7153 381.5142 874.9388 381.5142 874.9388 382.5201 874.7153 383.079 874.1564 383.3025 873.374 383.1908 873.0387 383.3025 872.927 383.6378 873.0387 384.0849 873.5976 384.7556 873.5976 384.9791 873.5976 385.0909 873.5976 385.3144 873.4858 385.6497 873.374 385.7615 872.3681 386.7674 871.4739 386.6557 870.9151 386.2086 870.5798 385.985 869.462 385.6497 868.6796 385.8733 868.6796 386.5439 869.015 387.1028 869.2385 387.4381 869.5738 387.8851 869.6856 388.444 869.462 389.4499 869.1267 389.897 868.1208 391.2383 866.8913 391.6854 866.2207 392.0207 863.3146 391.7971 861.4145 391.7971 859.6262 392.1325 856.9437 393.2502 856.4966 393.3619 855.9377 393.1384 855.7142 392.8031 855.4906 392.4678 855.1553 392.2442 853.1435 391.5736 851.6904 390.6794 851.2433 389.0029 852.5846 386.0968 850.6845 386.3204 849.9021 386.0968 849.7903 386.0968 848.7844 385.6497 847.2196 385.3144 843.7547 385.8733 841.9663 385.6497 841.2957 385.0909 840.7369 384.9791 840.0662 385.0909 839.5074 385.6497 838.1661 385.985 838.3897 387.1028 839.0603 388.5558 839.3956 389.7853 838.8367 390.6794 837.8308 391.4618 836.7131 392.1325 834.9248 392.5795 834.813 394.4796 833.0246 395.5974 832.0187 396.9386 831.1245 398.5034 830.7892 399.8447 839.0603 398.9505 840.2898 398.3916 841.2957 399.174 842.4134 400.18 843.084 401.1859 842.5252 402.3036 841.9663 402.7507 841.1839 402.8625 840.5133 403.3096 839.5074 404.7626 839.0603 404.8744 838.5014 404.9861 837.1602 406.3274 836.7131 408.3393 837.0484 410.91 832.354 414.3749 830.3421 416.3868 829.0009 418.6222 828.8891 418.734 824.4183 422.7578 822.4064 423.5402 822.5182 425.2167 821.5122 425.7756 821.1769 425.9991 820.9534 426.558 819.2768 427.2286 818.6062 427.8992 817.6002 429.464 818.4944 431.3641 816.9296 433.7113 812.2352 437.1762 804.8583 439.5234 801.5052 441.5353 800.4992 445.0002 800.7228 446.0062 801.6169 447.6827 801.8405 448.8004 801.7287 450.2535 801.5052 450.8123 801.3934 451.1476 800.9463 452.0418 799.8286 455.3949 799.7168 455.842 799.9404 456.4009 800.2757 456.9597 800.8345 457.5186 800.8345 459.1952 800.611 459.9776 799.8286 460.9835 799.0462 461.5424 796.8108 462.7718 794.9107 464.7837 794.24 465.4543 789.3221 468.1369 780.0451 476.6315 779.0392 477.8609 779.2627 479.2022 780.9393 481.1023 778.4803 484.2319 776.1331 488.3674 775.3507 489.1498 775.0154 489.8205 775.0154 490.2675 775.2389 490.8264 775.3507 491.1617 775.3507 491.497 775.3507 492.2794 775.5743 492.9501 775.4625 493.6207 774.6801 494.4031 774.9036 494.6266 778.3685 496.6385 779.3745 497.7562 780.2686 499.321 780.2686 500.4387 779.0392 503.1212 778.0332 505.4684 777.8097 506.2508 777.3626 509.0451 777.3626 510.1628 777.3626 511.057 777.0273 511.7276 775.5743 512.1747 775.1272 512.2865 774.7919 512.1747 774.233 512.0629 774.1212 511.9512 774.0095 512.0629 773.7859 512.0629 769.6504 514.0748 767.9738 515.1925 767.7503 516.3102 768.4209 517.7633 769.6504 519.2163 769.4268 520.1105 768.9798 521.1164 767.9738 523.24 769.6504 522.3459 772.78 521.5635 776.0213 521.4517 778.3685 522.4576 780.604 521.3399 784.0689 517.2044 788.5397 514.1866 790.3281 512.3982 789.9927 510.051 789.4339 509.8275 788.3162 510.3864 787.6455 509.9393 787.3102 509.604 786.6396 507.9274 786.6396 507.4803 785.969 505.8037 785.6337 504.7978 786.0807 503.4565 787.5338 501.4447 789.4339 498.8739 791.7811 496.862 793.9047 496.1914 796.1402 496.0796 798.3756 495.5208 804.2994 491.497 808.6585 490.6029 813.3529 490.7146 823.6359 493.3971 824.6418 493.956 825.3124 494.9619 825.4242 495.8561 825.4242 496.862 824.9771 498.5386 823.1888 500.6623 822.7417 501.78 824.0829 504.1272 826.5419 506.6979 828.1067 509.3804 825.6477 514.1866 824.4183 517.7633 823.8594 521.2282 824.4183 522.9047 829.895 524.0224 831.0128 525.1402 830.901 525.8108 830.4539 526.5932 829.895 527.2638 829.5597 527.8227 829.7833 527.7109 829.895 528.7168 829.895 529.7228 829.7833 529.8345 829.7833 530.6169 829.6715 531.064 829.6715 531.3993 830.3421 531.8464 831.0128 531.9582 831.5716 531.5111 832.0187 530.9523 832.5776 530.7287 834.1424 531.3993 838.8367 536.7644 839.1721 536.9879 839.3956 537.9938 840.178 540.1175 840.7369 541.9058 841.0722 542.9118 841.5193 543.6942 840.5133 544.253 839.8427 545.1472 839.2838 546.2649 838.8367 547.6062 837.9426 549.2827 836.4895 550.4004 834.9248 551.1828 833.4717 551.6299 831.7952 551.6299 831.2363 551.7417 831.2363 552.1888 831.1245 552.9712 831.1245 553.4183 830.6774 553.53 830.2304 552.8594 829.7833 552.5241 829.2244 552.3006 827.3243 552.8594 826.2066 553.53 825.4242 554.9831 824.9771 556.6596 824.9771 558.448 825.0889 560.1245 825.8713 564.2601 827.3243 566.3837 829.2244 567.8367 831.0128 568.1721 831.9069 568.5074 833.4717 570.0722 834.3659 570.7428 836.6013 571.3017 837.4955 571.9723 837.9426 573.4253 837.719 573.9842 836.9366 575.7725 836.8249 576.5549 836.9366 577.3373 837.719 578.455 837.9426 579.2374 838.2779 583.3729 838.8367 584.7142 841.9663 586.5025 844.9842 588.8497 845.2077 589.185 845.6548 589.8557 846.2136 591.0851 846.7725 592.2029 847.6667 592.8735 850.5727 594.2147 851.1316 594.6618 851.0198 595.8913 850.4609 597.3443 849.0079 599.9151 846.7725 602.5976 846.4372 603.1564 846.7725 606.0625 847.5549 607.9626 847.5549 609.5274 845.6548 611.0922 844.3135 613.5512 843.8664 613.9982 843.5311 613.8865 842.637 612.8805 842.0781 612.657 839.6191 613.3276 837.1602 614.4453 836.266 615.2277 835.0365 617.3514 834.0306 618.3573 833.4717 618.4691 831.7952 618.4691 831.2363 618.6926 830.901 619.5868 831.2363 620.0339 831.6834 620.481 831.4598 621.1516 829.2244 622.2693 826.7655 621.3751 824.1947 619.9221 821.8475 619.5868 821.2887 619.8103 820.0592 620.8163 819.3886 621.1516 818.9415 621.2634 817.6002 621.1516 817.0414 621.2634 814.5824 622.7164 814.3589 622.8282 813.3529 623.7223 812.5705 624.84 813.8 626.7402 814.9177 627.6343 815.0295 628.4167 814.9177 629.1991 815.1413 630.0933 815.9237 631.4345 816.7061 632.1052 819.0532 632.3287 820.9534 633.67 821.4004 636.4642 821.1769 641.941 822.4064 643.9529 824.6418 645.9648 829.448 648.7591 830.7892 649.0944 834.1424 648.4238 835.3718 648.5355 838.8367 649.8768 840.0662 651.3298 840.4015 651.7769 840.5133 652.3358 840.5133 652.6711 840.4015 652.8946 840.4015 653.3417 840.2898 653.4535 839.9545 655.0183 839.9545 655.13 840.7369 657.2537 841.0722 659.6009 841.2957 660.495 843.4194 664.407 843.8664 665.7483 842.637 665.7483 840.0662 664.9659 838.8367 664.9659 837.2719 665.8601 835.9307 667.4249 835.4836 669.4367 836.266 671.4486 835.2601 672.231 832.9129 676.3666 829.448 679.0491 828.6656 680.3903 828.8891 683.4081 830.4539 686.0906 832.5776 688.3261 834.3659 689.7791 832.0187 691.1204 831.5716 691.9028 831.0128 694.9206 830.7892 695.5912 830.7892 696.0383 831.0128 696.9325 831.3481 697.3795 832.8011 699.1679 833.36 700.1738 834.2541 702.0739 834.5894 702.8563 835.2601 703.4152 836.6013 704.4211 837.1602 705.2035 837.6073 706.2095 837.8308 707.1036 838.1661 707.886 838.8367 708.6684 839.7309 709.0037 840.6251 708.892 841.4075 708.5567 842.3017 708.5567 843.1958 708.7802 847.3314 711.0156 850.0139 712.0216 857.3908 716.4924 858.732 717.0513 860.5204 717.3866 861.4145 717.7219 861.8616 718.3925 862.3087 719.2867 862.9793 719.8455 863.5382 720.0691 866.3325 720.0691 878.4037 716.6042 880.4156 716.4924 883.2099 714.5923 885.3336 714.9276 884.4394 718.169 885.2218 719.9573 886.7866 721.4103 887.569 723.1987 887.9043 723.7575 887.7925 725.4341 887.0101 726.44 886.0042 727.2224 885.2218 728.1166 884.7747 729.3461 884.2158 731.4697 883.657 732.5875 882.0922 734.264 878.5155 737.2818 877.1743 739.5173 874.1564 742.8704 873.0387 744.8823 873.374 747.2295 874.8271 751.9239 873.8211 752.4827 873.5976 752.4827 873.2623 752.4827 872.927 752.5945 872.927 752.9298 873.0387 754.1593 872.927 754.4946 872.4799 754.8299 872.0328 754.7182 871.4739 755.277 870.9151 755.9476 870.2444 756.5065 869.462 755.3888 868.2326 754.6064 866.8913 755.1652 865.7736 756.2829 865.4383 757.4007 865.3265 758.5184 864.4323 759.189 863.7617 759.9714 863.4264 760.8656 862.8675 761.9833 862.0851 762.095 860.8557 761.8715 859.4026 761.3127 857.8378 761.5362 856.7201 762.2068 855.826 763.2128 856.0495 764.2187 854.82 765.56 854.1494 766.007 853.5905 764.7776 852.3611 764.554 851.4669 764.8893 850.5727 765.0011 850.0139 765.8953 849.455 766.3424 849.2315 767.013 848.7844 769.6955 849.1197 772.2662 849.2315 772.8251 849.455 773.831 849.6785 774.6134 848.6726 775.284 847.8902 773.6075 847.2196 773.2722 846.1019 773.2722 844.9842 774.0546 844.09 775.0605 843.1958 775.7311 842.637 776.4018 842.1899 775.284 841.0722 775.284 839.6191 775.1723 838.3897 775.284 837.3837 775.9547 836.266 777.1842 835.9307 778.6372 836.6013 779.0843 836.4895 779.0843 836.8249 779.4196 836.8249 779.7549 834.813 782.4374 834.4777 784.6728 833.0246 785.6788 832.6893 786.6847 831.1245 786.7965 831.0128 786.2376 830.7892 785.9023 830.5657 785.567 830.2304 785.9023 830.1186 786.5729 830.3421 787.8024 829.448 788.1377 828.6656 787.8024 827.5479 787.8024 824.9771 788.473 824.3065 787.5789 823.1888 787.1318 822.5182 787.5789 821.4004 788.5848 821.5122 791.0438 820.5063 792.4968 820.5063 794.0616 818.8297 794.2851 817.4884 794.3969 816.9296 795.7382 816.5943 796.7441 815.9237 797.4147 814.0235 799.2031 812.2352 800.3208 811.7881 801.7738 813.1294 802.2209 817.3767 801.1032 818.8297 801.4385 819.165 802.1091 818.2708 803.7857 817.1531 804.5681 816.9296 806.3564 817.3767 807.0271 817.9355 808.1448 816.5943 809.2625 815.1413 810.0449 814.3589 810.2684 813.0176 810.8273 812.347 810.7155 812.0117 810.2684 811.8999 809.486 811.1175 809.8213 809.888 809.8213 808.2114 810.0449 807.9879 810.9391 807.3173 812.0568 805.8642 812.9509 803.9641 812.5039 802.064 812.8392 800.0521 812.8392 798.7109 813.398 797.0343 814.404 796.1402 816.0805 796.4755 817.31 796.8108 818.6513 794.5754 818.6513 793.5694 817.8689 793.3459 817.4218 792.0046 816.9747 790.2163 816.0805 788.4279 815.857 786.0807 816.3041 784.2924 816.9747 783.2865 817.5336 782.1688 818.5395 781.4981 820.4396 781.3864 822.675 782.7276 823.2339 783.7336 823.0103 783.2865 823.9045 781.6099 824.1281 777.5861 824.3516 777.0273 824.0163 778.0332 823.4574 779.1509 823.0103 780.0451 822.3397 779.8216 820.5514 778.4803 819.3219 777.2508 819.4337 774.0095 819.8807 772.78 819.8807 771.9976 817.8689 770.321 817.6453 767.9738 817.6453 766.2972 816.5276 766.5208 815.9688 766.6326 815.0746 766.7443 814.6275 765.6266 814.5157 764.5089 814.851 762.497 815.857 763.7265 816.3041 764.7325 818.4277 765.8502 818.9866 767.5267 819.6572 766.7443 820.5514 765.1795 820.4396 763.1677 820.4396 762.2735 820.7749 760.9322 823.0103 758.3615 822.2279 756.3496 820.6631 755.7908 819.769 757.2438 818.8748 758.2497 817.8689 757.8026 817.1982 757.132 816.6394 755.9025 816.4158 755.679 815.6334 755.3437 814.851 754.3377 814.7393 752.9965 814.7393 749.8669 813.398 749.308 811.2744 748.3021 810.2684 747.0726 809.7096 745.6196 809.5978 744.8372 810.492 744.0548 812.0568 742.3782 811.3861 741.3723 811.2744 740.3663 810.0449 739.5839 808.9272 738.9133 807.5859 738.0191 807.1388 737.2367 807.5859 736.5661 807.8095 733.5483 807.4741 732.0953 807.5859 730.0834 807.2506 729.0774 807.1388 727.2891 807.5859 725.7243 806.8035 725.9479 805.127 726.1714 804.2328 726.6185 803.2268 727.2891 801.662 726.3949 800.6561 726.2832 799.6502 726.0596 799.0913 725.1655 795.6264 722.0359 793.6145 718.2356 796.1853 712.9824 796.0735 710.4117 796.4088 706.1644 796.1853 704.0407 795.5146 702.6994 793.391 702.1406 791.0438 703.4818 788.473 705.7173 787.2436 711.8647 787.2436 713.7648 786.6847 715.1061 785.567 716.4473 783.7787 717.3415 781.655 717.1179 779.4196 715.1061 780.7608 713.2059 781.4315 711.4176 781.2079 709.8528 779.4196 709.4057 777.9666 709.4057 777.1842 709.0704 776.6253 707.6174 776.1782 707.0585 776.0664 705.382 776.1782 705.1584 775.8429 704.1525 774.5017 703.7054 774.1663 703.2583 774.837 702.8112 776.0664 702.4759 777.4077 702.3641 778.0783 702.6994 779.9784 703.3701 780.7608 704.1525 781.2079 705.1584 781.9903 706.0526 784.4493 705.2702 786.5729 703.5936 787.6906 701.5817 787.9142 700.5758 787.6906 696.7756 785.4552 694.9872 786.3494 694.3166 786.9083 692.64 787.2436 691.9694 787.9142 691.4106 789.1437 691.6341 789.7025 692.4165 791.4909 692.5283 792.6086 694.8755 792.4968 693.1989 794.0616 691.7459 794.844 691.4106 793.2792 690.1811 791.0438 687.275 789.3672 684.9278 787.2436 683.9219 784.6728 684.0337 779.0843 683.9219 777.5195 683.4748 776.0664 682.8042 774.3899 681.7982 772.9369 680.5688 772.2662 680.5688 772.8251 682.6924 776.1782 682.916 777.1842 682.916 784.0022 683.9219 787.1318 685.822 789.1437 687.9457 790.7085 689.5105 792.4968 689.2869 794.3969 687.275 794.5087 678.5569 794.2851 673.5272 793.1674 671.7388 792.0497 671.6271 790.4849 673.0801 788.9201 673.1919 787.6906 672.633 786.4612 670.9564 785.2317 668.0504 784.0022 660.897 784.7846 646.8139 783.6669 645.1373 783.2198 643.6843 782.5492 641.7842 781.0961 640.6664 778.8607 641.7842 776.6253 641.6724 776.4018 639.884 774.837 635.8603 774.5017 631.9483 774.9487 629.2658 775.9547 628.3716 776.7371 614.6238 788.1377 606.4645 791.7144 604.229 793.6145 598.864 800.6561 597.411 801.3267 594.7285 799.8737 593.0519 800.209 590.0341 800.3208 585.3397 802.3327 580.31 806.4682 579.1923 807.9212 578.6334 808.8154 577.7393 809.5978 576.9569 810.6037 575.7274 811.6097 574.8332 812.8392 574.0508 814.5157 572.8213 815.857 571.2565 817.1982 570.5859 818.9866 570.0271 820.4396 569.3564 822.1162 568.2387 824.6869 567.7916 826.4752 567.2328 827.9283 566.5622 830.7226 566.1151 832.7344 566.3386 833.6286 567.2328 834.1875 567.2328 836.0876 566.6739 841.6761 566.2268 847.0411 566.1151 850.8414 566.4504 853.3003 566.0033 857.2123 566.3386 862.242 566.5622 866.154 567.0092 869.1718 568.0152 870.4013 569.4682 871.0719 571.3683 871.519 572.9331 872.0779 573.492 872.9721 573.492 874.0898 573.2684 875.0957 573.8273 875.9899 574.4979 876.6605 575.6156 878.4488 575.9509 880.4607 575.9509 880.796 572.9331 881.3549 571.1448 881.3549 569.3564 881.2431 567.9034 880.796 567.121 880.2372 566.4504 879.4548 565.8915 878.6724 565.4444 877.5547 564.9974 877.4429 562.9855 877.4429 562.2031 877.2194 561.0854 878.0018 558.8499 877.1076 556.5028 878.8959 555.385 879.1195 554.1556 879.1195 553.0378 879.2312 551.9201 879.9019 549.9083 881.9138 548.7905 882.5844 547.3375 882.8079 544.655 882.4726 543.202 882.5844 541.9725 883.1432 539.0664 885.4904 538.5076 886.2728 539.1782 888.0612 539.9606 889.0671 540.0724 889.4024 538.1723 889.5142 536.7193 889.2906 533.4779 888.1729 532.1366 888.1729 531.5778 888.7318 531.0189 890.1848 530.5718 890.6319 529.9012 890.7437 529.1188 890.4084 527.6658 889.626 526.4363 889.2906 525.095 888.2847 523.9773 886.8317 523.4185 885.2669 522.4125 885.2669 520.1771 884.708 516.1534 882.8079 515.371 882.1373 513.4708 881.0196 511.2354 881.2431 506.9881 882.5844 503.7468 882.2491 502.629 882.6961 502.2937 883.255 501.7349 884.5963 501.3996 885.1551 499.8348 886.3846 498.6053 887.7259 497.8229 888.1729 496.7052 888.5083 494.9168 888.7318 493.9109 888.5083 493.1285 887.9494 491.7872 886.8317 491.1166 885.3787 490.2224 881.9138 489.2165 880.2372 488.0988 879.7901 486.8693 879.7901 485.1927 879.343 481.3925 876.6605 479.9395 876.1017 475.5804 875.5428 474.3509 874.9839 474.3509 874.6486 474.3509 874.4251 474.2392 874.2015 474.0156 874.0898 474.2392 871.7426 475.0216 869.8425 476.251 868.613 478.0394 868.3894 477.7041 868.0541 477.1452 867.16 475.5804 866.7129 474.4627 865.9305 475.0216 864.0304 467.1976 863.248 466.4152 862.9127 462.615 860.3419 461.609 860.4537 459.5971 861.2361 457.3617 861.1243 456.3558 864.8128 454.791 865.3716 453.785 864.1421 452.5556 860.9008 451.3261 859.0007 450.0966 856.877 449.426 856.5417 448.8671 856.4299 448.5318 856.0946 448.7553 854.7534 447.1905 854.3063 438.5842 854.3063 436.3487 855.0887 435.5663 854.9769 434.3369 854.0827 433.6662 852.7415 433.1074 851.2884 432.4367 849.9472 431.2073 848.8295 429.7542 848.3824 423.9421 848.0471 423.3833 847.7118 422.2656 846.7058 421.5949 846.4823 420.9243 846.7058 420.2537 847.2647 419.5831 847.6 418.9124 847.3765 417.7947 846.2587 417.2359 845.8117 415.1122 844.9175 412.0944 843.1292 410.9767 843.0174 409.6354 843.1292 408.4059 842.7938 406.0587 841.8997 404.8293 841.7879 402.9292 841.8997 401.3644 842.5703 401.029 843.9116 401.1408 845.9234 400.1349 848.4942 400.9173 849.6119 400.4702 850.059 400.1349 850.3943 399.6878 851.4002 400.6937 851.7355 401.5879 852.7415 402.035 854.1945 401.9232 855.7593 401.8114 855.9828 401.3644 856.7652 400.4702 856.9888 398.0112 856.7652 389.4048 856.9888 388.1754 856.4299 385.6046 857.2123 384.2634 857.2123 382.8103 856.9888 382.475 856.6535 382.475 856.3182 382.475 855.8711 382.3633 855.5358 380.4631 853.971 379.1219 854.418 377.8924 855.6475 375.9923 858.33 374.9864 858.5536 373.8686 857.2123 372.4156 854.6416 371.2979 854.0827 367.6095 853.0768 366.4917 853.3003 365.1505 854.1945 361.015 854.7534 355.6499 856.7652 353.191 856.9888 350.5085 855.8711 350.0614 855.424 349.7261 854.9769 349.279 854.5298 348.3848 854.3063 347.7142 853.971 347.4906 853.4121 347.3789 852.7415 346.9318 852.1826 345.8141 851.2884 345.0317 849.8354 344.5846 848.2706 344.8081 846.5941 343.4669 847.1529 341.5668 847.7118 339.6667 847.4882 338.8843 845.6999 334.8605 843.2409 334.637 843.1292 333.631 842.1232 333.1839 843.1292 332.7369 843.7998 332.178 844.0233 331.6191 843.3527 328.266 846.0352 326.5894 847.0411 324.4658 847.1529 320.7773 845.4763 318.989 845.3646 318.8772 847.6 318.3184 847.8235 317.0889 848.6059 316.53 848.7177 315.8594 848.2706 315.8594 847.7118 315.9712 847.1529 315.6359 846.5941 315.3006 846.4823 314.1828 846.4823 313.7358 846.2587 313.7358 845.9234 313.8475 845.4763 313.7358 845.0293 311.0532 841.4526 309.8238 840.4466 307.4766 838.9936 306.8059 838.8818 306.1353 838.8818 305.4647 838.8818 304.6823 838.2112 304.347 837.3171 304.4587 836.7582 304.6823 836.3111 304.6823 835.7523 304.347 834.9699 303.341 832.2873 301.5527 831.7285 296.1877 832.6227 290.7109 832.1756 288.0284 831.3932 285.6812 829.4931 284.787 828.4871 283.6693 828.1518 281.2103 827.9283 280.7633 827.4812 279.6455 826.6988 278.9749 826.4752 276.4042 826.6988 274.1688 824.9105 271.8216 823.5692 267.7978 822.8986 266.4565 822.0044 265.3388 820.6631 265.0035 819.4337 265.5624 818.2042 267.0154 816.9747 265.4506 816.5276 263.8858 817.0865 262.6563 818.4277 262.2092 820.3278 261.9857 822.8986 261.4268 824.1281 260.3091 824.4634 258.409 824.3516 256.7325 823.9045 255.1677 823.0103 253.9382 821.5573 253.044 819.5454 253.6029 818.763 256.3971 815.6334 257.2913 814.5157 258.409 811.4979 259.0796 807.6977 258.8561 804.2328 256.8442 802.2209 256.0618 802.1091 255.2794 802.4444 254.497 802.5562 251.591 801.1032 249.4673 800.4326 248.1261 800.3208 247.1201 800.9914 246.5613 802.5562 246.1142 803.4504 245.3318 803.8975 244.5494 804.0092 243.767 803.8975 242.8728 803.4504 242.5375 803.0033 242.0904 801.4385 241.9787 800.5443 242.2022 799.9855 242.2022 799.5384 241.4198 799.0913 240.1903 798.4207 239.5197 798.4207 238.1784 798.9795 236.6136 799.2031 235.8312 799.5384 235.0488 799.6502 234.9371 799.3149 234.7135 798.9795 234.49 797.0794 233.5958 795.8499 231.6957 794.9558 231.5839 793.7263 231.6957 791.7144 231.8075 790.7085 232.031 790.8202 233.1487 791.6026 233.7076 790.932 234.9371 790.3732 241.0845 789.3672 242.6493 787.02 244.2141 786.2376 245.4436 785.2317 246.1142 784.4493 247.5672 781.5432 247.9025 780.4255 248.4614 779.6431 251.2557 776.0664 251.7028 775.0605 253.8264 772.1545 254.2735 769.1366 255.9501 763.7716 258.7443 748.0119 260.4209 742.5351 262.8799 730.1285 267.2389 702.8563 269.1391 689.2202 269.6979 683.1846 269.4744 681.8433 268.9155 679.0491 269.0273 678.2667 270.8156 675.5842 271.0392 674.9135 271.2627 673.7958 272.4922 669.325 273.8334 667.6484 275.6218 667.5366 279.8691 668.5426 282.2163 668.2073 283.6693 667.2013 283.6693 665.7483 281.9927 663.96 282.8869 663.96 282.2163 662.5069 277.0748 657.589 276.2924 657.2537 275.9571 657.1419 275.6218 656.8066 275.2865 656.5831 274.8394 656.5831 274.6158 656.9184 274.3923 657.3655 274.2805 657.7008 274.1688 657.9243 273.7217 658.8185 270.5921 663.5129 269.8097 667.8719 269.2508 670.2191 268.8037 671.3369 272.9393 623.1635 275.8453 607.6273 277.0748 586.8378 277.5219 585.3848 279.8691 580.5787 280.875 579.0139 281.9927 578.5668 282.6634 579.0139 282.8869 579.4609 282.8869 580.1316 282.7751 581.2493 282.5516 581.5846 282.4398 582.1435 282.4398 582.7023 282.6634 583.1494 283.4458 584.3789 284.0046 585.1613 288.5872 588.738 291.6051 590.4145 292.611 590.7498 300.9938 600.1386 302.8939 602.9329 303.7881 605.9507 303.8999 607.9626 304.7941 611.5393 306.1353 620.7045 306.3589 621.8222 308.7061 627.5226 311.0532 630.5404 313.7358 633.1111 315.9712 634.4524 316.53 635.123 317.2007 636.3525 317.2007 637.3584 317.0889 638.8114 317.0889 640.9351 317.4242 642.947 317.9831 644.5118 318.989 645.1824 318.6537 643.8411 318.4301 641.1586 317.9831 639.9292 318.6537 637.2466 317.8713 635.123 316.3065 633.5582 314.7417 632.5523 316.8653 632.664 318.6537 633.1111 320.2185 633.8935 321.7833 635.123 319.9949 632.1052 317.3124 630.7639 314.2946 629.758 311.8356 627.8579 310.6062 625.2871 309.712 622.1575 307.0295 603.38 306.1353 599.5798 303.8999 593.3206 302.4469 590.5263 300.8821 588.0673 297.7525 584.3789 287.9166 577.2255 287.6931 576.8902 287.3578 574.9901 286.9107 574.543 284.6752 573.7606 280.9868 569.9604 278.8631 569.178 277.6337 568.8427 276.4042 568.1721 275.51 567.1661 274.6158 566.0484 273.3864 565.0425 270.9274 565.6013 269.6979 565.1542 270.8156 558.2244 270.8156 556.8832 275.3982 555.5419 276.7395 555.5419 281.2103 560.7952 281.9927 561.354 282.7751 562.1364 287.6931 564.3718 286.1283 562.5835 279.8691 557.5538 278.0807 555.4301 277.7454 554.536 277.6337 553.4183 277.2983 551.8535 276.8513 550.4004 276.2924 549.3945 277.0748 548.9474 277.5219 548.3886 277.8572 547.8297 278.1925 547.3826 278.9749 546.712 280.0926 546.0414 280.6515 545.9296 281.2103 546.0414 281.6574 545.8178 281.9927 544.7001 281.881 543.5824 281.4339 542.5765 280.9868 541.6823 280.5397 541.2352 280.9868 540.8999 281.6574 540.1175 281.9927 539.8939 280.875 539.1116 280.0926 537.7703 279.0867 534.4172 280.5397 535.5349 281.7692 535.5349 282.6634 534.7525 283.4458 533.0759 283.4458 532.4053 283.1105 531.9582 282.6634 531.5111 282.2163 531.1758 280.9868 530.6169 280.6515 529.8345 280.6515 528.8286 280.0926 527.4873 280.2044 526.5932 280.0926 526.1461 279.7573 526.0343 278.8631 525.699 278.6396 525.5872 278.3043 525.1402 277.8572 524.8048 277.8572 524.3578 278.6396 523.4636 277.0748 522.2341 276.516 522.1223 276.2924 522.0106 276.2924 521.4517 276.4042 521.0046 276.2924 520.6693 275.9571 520.6693 274.8394 520.6693 274.1688 520.5575 273.4981 520.5575 272.9393 520.4458 272.2686 519.7751 272.1569 518.881 272.604 517.875 273.2746 517.0926 273.9452 516.6455 273.6099 514.7454 274.3923 513.4042 279.0867 510.3864 279.6455 509.1569 279.6455 508.3745 279.3102 507.4803 279.0867 506.0273 277.6337 503.9036 274.5041 503.6801 271.9333 505.2449 272.0451 508.4862 270.145 507.9274 268.8037 506.2508 267.5743 504.3507 266.4565 504.1272 265.7859 503.9036 263.6623 502.6741 262.0975 501.3329 261.2033 500.8858 257.5149 502.1153 255.7265 502.0035 254.9441 499.8799 254.6088 497.3091 253.4911 495.5208 251.9263 494.4031 250.0262 494.0678 245.3318 493.8442 243.5435 493.1736 244.1023 491.9441 242.9846 490.8264 239.2961 490.2675 236.949 488.1439 235.0488 487.6968 234.1547 487.138 233.5958 486.2438 232.8134 484.1201 232.1428 483.0024 232.2546 484.2319 232.5899 485.9085 232.7017 486.8026 232.3663 487.2497 231.8075 486.8026 231.1369 485.9085 229.5721 478.5316 229.9074 476.855 228.7897 476.2961 228.2308 475.1784 227.8955 473.8372 227.4484 472.7195 226.4425 471.49 225.3248 470.484 224.5424 469.5899 223.8717 467.0191 222.9776 466.2367 221.7481 465.9014 220.6304 465.6779 220.0715 465.119 217.9479 460.8717 214.1476 456.848 212.024 455.2832 210.2356 454.7243 209.3415 454.0537 208.8944 452.4889 208.6708 450.5888 208.5591 448.8004 208.6708 446.565 209.1179 445.5591 210.9063 444.3296 210.571 442.8766 211.5769 441.7589 214.2594 440.0823 215.0418 438.6293 216.1595 434.9408 217.0537 433.1525 218.2832 432.2583 218.1714 430.47 217.389 428.6816 216.6066 427.5639 215.4889 426.4462 211.3534 424.099 203.4176 422.7578 200.9586 421.3047 201.8528 420.7459 202.6352 420.0752 203.4176 419.4046 205.653 419.1811 206.2119 418.734 206.4354 417.9516 206.659 416.3868 206.659 415.0455 205.8766 413.4807 205.653 411.916 205.7648 410.7982 206.1001 409.457 206.5472 408.2275 207.1061 407.3333 208.7826 406.6627 215.1536 405.9921 215.6007 405.6568 216.0477 405.4332 216.6066 405.3215 217.1655 405.9921 217.7243 406.4392 221.1892 407.4451 222.3069 407.3333 221.7481 406.6627 222.6422 406.6627 223.3129 406.8862 223.9835 407.3333 224.6541 408.004 223.2011 408.004 223.2011 408.7864 226.1072 410.91 228.9014 411.4689 229.6838 411.916 231.1369 413.5925 232.7017 414.2631 236.5019 414.3749 235.0488 413.4807 232.2546 412.9219 231.0251 411.916 228.9014 409.457 226.5542 407.3333 224.0953 405.8803 222.754 405.4332 221.0774 405.3215 220.5186 405.0979 219.5127 404.092 216.9419 403.3096 207.3296 403.9802 205.2059 405.3215 204.7589 406.1039 204.4235 406.7745 204.0882 407.3333 203.3058 408.004 201.2939 408.6746 199.6174 410.2394 198.3879 410.7982 197.0466 410.7982 195.7054 410.2394 194.6994 409.3452 193.0229 407.3333 191.9052 406.6627 190.7875 406.5509 190.1168 406.5509 189.558 406.6627 189.1109 407.2216 188.7756 407.8922 188.6638 408.451 188.6638 408.7864 186.6519 408.6746 180.1692 405.3215 180.1692 404.6508 181.734 404.8744 184.64 406.2156 186.2048 405.9921 187.4343 404.6508 186.7637 403.1978 185.4224 401.8565 184.4165 400.4035 183.8576 400.7388 183.6341 400.8506 183.4106 401.0741 183.7459 401.8565 183.7459 402.1919 183.4106 403.1978 182.9635 403.1978 182.8517 400.2917 181.9575 398.727 179.1633 396.8268 184.64 393.4737 185.4224 393.5855 186.0931 393.809 187.2108 394.0326 187.099 394.7032 186.9872 394.7032 186.7637 394.815 187.2108 395.4856 187.8814 394.7032 190.3404 393.3619 190.5639 392.6913 189.4462 392.4678 187.7696 392.4678 186.6519 392.0207 187.2108 390.5677 186.0931 389.7853 184.64 389.5617 183.7459 389.0029 184.4165 387.1028 183.4106 385.7615 184.193 385.0909 188.4403 384.8673 191.011 384.1967 192.464 384.1967 191.3463 383.9732 189.4462 384.3085 188.2167 384.1967 182.9635 382.1848 181.8458 381.9613 180.9516 382.073 178.6044 382.8554 176.0337 382.8554 175.4748 383.079 175.0277 383.4143 174.5806 383.5261 173.91 382.8554 174.916 382.6319 176.1454 381.8495 177.1514 380.7318 177.7102 379.3905 176.5925 380.3965 175.6983 380.62 174.6924 380.5083 173.4629 380.7318 174.0218 380.8436 174.4689 381.0671 174.6924 381.5142 174.916 382.1848 173.1276 382.1848 172.3452 381.9613 171.5628 381.4024 171.451 383.8614 170.5569 384.4202 168.2097 383.6378 167.092 383.6378 163.5153 384.9791 162.174 385.0909 161.0563 384.9791 160.1622 384.532 159.268 383.6378 159.1562 383.1908 158.0385 381.1789 157.815 381.0671 157.4796 380.5083 156.809 380.2847 156.0266 380.0612 155.8031 379.9494 155.9149 379.8376 155.9149 379.3905 154.6854 378.9435 155.9149 378.0493 157.815 378.0493 158.8209 380.0612 159.268 380.0612 159.6033 379.6141 160.0504 379.3905 160.4975 379.5023 161.1681 380.0612 161.2799 379.5023 161.6152 377.9375 162.7329 379.2788 164.4095 379.8376 166.3096 379.6141 167.7626 378.6081 167.3155 377.9375 169.998 374.1373 170.3333 372.2372 168.7685 370.2253 168.7685 370.8959 169.4392 371.5666 169.5509 372.2372 169.1039 372.796 168.2097 373.0196 169.2156 373.6902 168.8803 374.1373 168.6568 374.3608 167.7626 374.4726 167.4273 373.9138 163.9624 371.6783 165.4154 371.9019 166.8684 372.349 165.9743 371.1195 165.1919 370.6724 163.0682 370.2253 163.9624 370.8959 162.5094 371.5666 158.9327 371.9019 158.262 372.6843 157.7032 373.9138 156.3619 374.5844 154.0147 375.1432 154.0147 374.4726 154.4618 374.4726 154.4618 373.6902 153.5677 373.802 153.3441 374.0255 153.1206 374.4726 152.5617 374.4726 152.3382 373.2431 152.2264 372.1254 152.4499 371.343 153.1206 370.8959 152.1146 370.8959 151.3322 370.3371 150.8851 369.3311 150.7734 368.1017 150.2145 368.1017 150.3263 368.884 150.6616 370.2253 150.7734 370.8959 150.7734 373.3549 150.9969 374.3608 151.5558 375.4785 152.3382 376.4845 153.1206 377.2669 152.897 377.9375 152.7853 378.2728 152.5617 378.6081 152.4499 378.2728 151.6675 377.2669 151.1087 377.6022 150.5498 377.0433 149.7674 375.9256 148.8733 375.1432 149.2086 376.4845 148.8733 377.0433 148.2026 376.8198 147.8673 375.4785 147.6438 373.9138 147.1967 374.0255 146.9732 375.1432 147.4202 376.5963 146.4143 376.4845 145.9672 376.3727 145.5201 375.8139 143.3965 377.0433 142.2788 377.1551 141.2728 376.5963 141.7199 376.2609 142.167 375.8139 141.4964 375.255 140.714 374.6961 139.9316 374.8079 139.3727 375.8139 139.708 376.0374 139.9316 376.3727 140.2669 376.5963 139.4845 380.0612 139.9316 382.9672 141.0493 385.3144 142.6141 387.1028 141.6081 387.1028 140.2669 386.6557 139.8198 387.1028 139.3727 387.1028 138.4785 384.1967 138.3668 383.1908 138.5903 382.073 139.1492 380.3965 139.3727 378.9435 139.1492 376.5963 138.7021 374.8079 137.9197 373.4667 136.9138 372.349 136.2431 371.9019 135.4607 371.5666 134.9019 371.2312 134.5666 370.5606 134.6783 369.2194 135.5725 366.3133 140.714 363.9661 140.4904 363.4073 140.3787 362.8484 140.2669 362.066 140.2669 361.0601 139.9316 361.2836 139.1492 361.6189 138.8139 361.8425 138.8139 359.607 138.8139 358.9364 138.3668 358.9364 137.8079 360.0541 137.1373 359.8306 136.1314 359.3835 135.1254 359.607 136.0196 359.9424 136.6902 360.7248 137.1373 361.8425 137.4726 363.1837 137.1373 363.2955 137.0255 363.4073 137.0255 363.519 136.9138 363.9661 136.1314 363.2955 135.6843 363.7426 135.1254 364.4132 134.1195 364.6367 134.343 364.9721 135.1254 366.0898 134.1195 366.5369 133.7842 367.431 133.5606 368.437 132.89 368.884 132.4429 368.437 130.3193 366.0898 128.5309 365.5309 125.5131 364.7485 123.7248 364.6367 124.9542 364.0779 126.1837 364.3014 128.8662 365.3074 128.8662 364.6367 127.8603 363.9661 126.6308 363.519 123.7248 363.1837 123.7248 362.5131 124.2836 362.4013 124.6189 362.1778 124.6189 361.6189 124.6189 360.7248 124.8425 360.2777 126.0719 360.5012 126.519 360.3894 127.4132 358.0422 127.9721 356.8128 128.8662 356.1421 128.8662 355.3597 127.4132 357.1481 125.5131 358.9364 123.3894 360.1659 121.9364 360.613 122.4953 360.8365 122.9424 361.2836 123.2777 361.8425 123.2777 362.5131 117.5773 363.8543 116.5714 363.6308 116.3479 363.0719 114.2242 360.3894 113.2183 358.2658 112.4359 357.3716 112.2123 356.9245 111.877 356.1421 111.2064 356.8128 109.9769 356.8128 107.6297 356.1421 105.8414 356.2539 105.1707 356.1421 104.7237 355.8068 103.8295 354.9127 103.6059 354.6891 100.9234 354.9127 99.5822 354.3538 99.0233 353.0125 98.4645 352.6772 94.776 354.6891 93.7701 353.7949 92.3171 353.7949 90.7523 354.1303 89.5228 354.0185 89.411 353.6832 88.1815 351.1124 87.6227 350.6653 87.1756 350.2183 86.952 349.6594 87.1756 348.4299 86.6167 348.4299 86.1696 348.2064 85.2755 347.6475 85.0519 346.5298 83.8224 345.0768 81.9223 343.7355 80.134 343.4002 80.6928 345.5239 80.2458 347.0887 78.681 348.7652 77.2279 348.4299 78.0103 348.4299 78.5692 348.3182 78.9045 347.8711 79.1281 346.9769 78.3457 347.2004 77.675 347.3122 77.1162 347.5358 76.7809 348.4299 74.769 346.7534 73.8748 346.418 72.7571 346.3063 71.9747 345.8592 71.0805 344.6297 70.4099 342.9531 70.1864 341.2766 69.404 342.5061 69.851 344.0708 70.7452 345.5239 71.6394 346.3063 71.6394 346.9769 70.7452 346.9769 70.0746 347.3122 69.404 347.7593 68.7333 348.4299 67.3921 346.1945 66.4979 346.418 66.2744 347.6475 67.2803 348.4299 67.0568 348.7652 66.8332 349.1006 66.8332 349.7712 68.7333 349.7712 68.7333 350.5536 66.4979 352.6772 65.3802 353.3479 63.7036 353.7949 53.5325 353.3479 53.6442 352.5655 53.4207 351.1124 53.5325 350.5536 53.9795 350.2183 54.6502 350.2183 55.209 350.1065 55.5443 349.4359 55.3208 347.6475 54.2031 344.965 53.5325 342.1707 52.5265 340.2706 49.2851 335.9116 43.1377 331.1054 42.4671 330.7701 41.4612 331.3289 40.6788 332.3349 39.7846 332.8937 37.6609 330.7701 36.4315 330.5465 34.0843 330.7701 28.9428 329.2053 29.3899 328.87 29.7252 328.3111 30.0605 327.6405 30.5076 326.8581 30.5076 326.5228 30.6194 326.0757 30.8429 325.7404 31.0664 325.7404 31.6253 326.2992 31.9606 326.5228 54.3149 321.4931 58.2268 322.7226 59.2328 322.2755 59.5681 321.4931 60.2387 318.587 59.9034 317.4693 58.8975 316.1281 58.6739 315.4574 58.3386 313.1102 57.4444 312.2161 54.5384 311.5454 53.9795 311.2101 53.5325 310.6513 53.1971 310.0924 53.0854 309.4218 51.297 309.9806 47.6086 307.6334 45.7085 308.3041 44.7025 310.2042 43.6966 312.5514 42.5789 314.4515 40.7905 315.1221 41.3494 312.8867 41.6847 312.2161 40.9023 310.9866 40.4552 310.0924 40.3435 309.4218 40.6788 308.1923 41.2376 307.7452 41.4612 307.2981 41.0141 306.1804 40.1199 305.9569 35.9844 305.8451 36.2079 304.7274 35.9844 303.7215 36.7668 303.2744 37.3256 303.3861 37.8845 303.6097 38.6669 303.7215 39.5611 303.3861 39.6728 302.7155 39.4493 301.9331 39.3375 301.5978 40.567 298.3564 41.4612 297.4623 42.5789 298.0211 41.6847 301.8213 43.5848 302.8273 49.844 302.3802 50.5146 302.7155 50.9617 303.1626 51.5206 303.4979 52.4147 303.7215 53.1971 303.6097 56.4385 302.7155 61.1329 302.3802 60.6858 302.8273 60.2387 302.9391 59.2328 302.9391 60.6858 303.6097 66.2744 302.3802 66.2744 301.5978 64.1507 301.7096 63.3683 301.3743 63.033 300.1448 62.4741 300.9272 61.4682 301.1507 60.574 300.8154 60.2387 299.8095 59.7916 299.9212 56.8856 300.1448 57.4444 299.1388 57.668 298.9153 58.3386 298.6917 58.3386 298.2447 58.6739 297.7976 59.3446 297.3505 60.6858 295.7857 59.4563 295.8975 57.8915 297.0152 56.8856 297.3505 56.8856 296.5681 57.3327 296.5681 57.3327 295.7857 56.8856 295.7857 56.662 296.3446 56.215 296.9034 55.9914 297.3505 54.8737 296.9034 52.7501 298.3564 51.1853 298.6917 51.4088 298.2447 51.6323 298.0211 51.1853 297.3505 50.6264 297.9094 49.844 298.3564 48.8381 298.58 47.9439 298.6917 47.9439 298.0211 51.8559 293.215 52.6383 292.5443 59.2328 288.6323 58.0033 289.0794 55.8796 290.3089 54.4266 290.756 49.844 291.5384 47.6086 292.4326 43.2495 295.2268 39.8964 296.121 37.8845 297.127 36.5432 297.3505 35.3138 297.0152 32.8548 296.0092 31.5135 295.7857 31.29 296.121 31.29 296.9034 31.1782 297.6858 30.6194 298.0211 27.0427 298.0211 26.1485 297.6858 25.5897 296.5681 25.1426 294.4444 26.3721 294.3327 26.2603 292.9914 25.1426 290.0854 25.0308 288.1853 25.3661 286.1734 26.1485 284.8321 27.4898 284.385 27.4898 283.7144 25.7014 282.4849 26.3721 279.4671 28.1604 276.2257 29.3899 274.4374 30.0605 274.8845 30.8429 275.2198 30.284 274.4374 31.4018 273.655 32.743 273.2079 34.8667 272.9844 36.2079 273.3197 38.5551 274.6609 39.3375 274.4374 37.7727 272.202 37.2139 270.749 38.2198 270.0783 41.3494 270.9725 42.5789 270.8607 40.7905 270.0783 40.9023 269.743 41.1259 269.2959 40.9023 268.9606 40.3435 268.6253 40.3435 267.9547 45.7085 267.9547 47.2733 267.7311 49.6205 266.6134 51.1853 266.5017 50.1793 265.9428 49.844 265.831 49.844 265.0486 51.7441 264.7133 53.6442 263.5956 55.5443 262.8132 57.3327 262.925 58.5622 264.378 58.1151 266.7252 59.6799 266.5017 61.8035 265.2722 62.5859 265.0486 63.3683 265.2722 64.9331 265.831 65.9391 265.831 65.9391 265.0486 64.5978 264.7133 64.9331 263.5956 66.1626 262.3661 67.2803 261.5837 68.6216 261.0249 70.1864 260.6895 71.7512 260.8013 72.9806 261.5837 73.4277 260.9131 73.763 260.9131 74.0983 261.3602 74.4337 262.1426 74.8807 262.1426 75.3278 261.6955 75.5514 261.0249 75.6631 260.2425 75.3278 259.3483 76.3338 259.1248 77.2279 258.7894 78.681 257.8953 81.1399 257.1129 81.4752 257.56 81.3635 258.4541 81.1399 259.2365 81.1399 259.7954 82.0341 260.1307 82.0341 260.8013 81.4752 260.8013 81.4752 261.5837 82.2576 262.0308 82.7047 262.8132 82.8165 263.8191 82.3694 265.0486 84.3813 263.1485 85.3872 262.5897 86.7285 262.925 86.0579 263.4838 85.7226 263.7074 85.7226 264.378 86.6167 265.4957 88.6286 266.837 89.5228 267.9547 90.0816 267.284 89.5228 266.5017 90.0816 265.831 89.7463 265.1604 89.5228 264.2662 89.0757 262.1426 89.5228 262.1426 89.7463 262.8132 89.9699 263.1485 90.5287 263.7074 90.3052 261.8073 90.5287 259.7954 91.0876 258.6777 91.9817 259.3483 92.2053 258.9012 92.4288 258.3424 92.4288 257.7835 92.4288 257.1129 93.323 258.3424 94.6642 258.7894 97.7938 258.5659 98.5762 258.9012 100.141 260.3542 100.9234 260.8013 101.8176 260.8013 104.2766 260.1307 104.2766 261.919 105.9531 262.3661 107.965 262.3661 108.971 261.919 108.3003 259.4601 108.0768 257.8953 108.3003 257.1129 111.877 256.4422 110.8711 255.7716 108.5239 252.8656 108.1886 251.0772 108.971 250.1831 110.8711 249.2889 112.4359 246.6064 112.7712 245.7122 113.2183 245.7122 113.8889 246.2711 116.1243 246.3828 118.4715 247.8359 119.3657 247.8359 119.0304 248.1712 118.8068 248.5065 118.695 248.8418 118.4715 249.2889 120.1481 249.4007 120.9305 249.4007 121.6011 248.9536 122.2717 248.0594 122.7188 247.7241 128.5309 245.6004 129.4251 244.9298 129.8722 244.9298 130.5428 245.1534 132.5547 242.4708 133.6724 242.8062 134.1195 244.2592 134.1195 246.3828 133.5606 248.2829 132.6664 249.2889 132.7782 249.736 132.89 250.0713 133.2253 250.7419 133.4488 249.4007 134.0077 248.3947 136.1314 245.824 137.8079 244.371 138.3668 243.5886 139.1492 243.9239 140.3787 242.3591 141.2728 242.0238 142.167 242.5826 142.6141 243.5886 142.6141 244.7063 142.167 245.7122 142.167 246.3828 143.1729 247.1652 142.6141 247.9476 141.7199 250.7419 141.2728 251.5243 139.8198 253.5362 139.8198 254.3186 140.2669 254.3186 142.6141 249.6242 143.9553 247.6123 145.073 247.8359 145.7437 247.277 146.4143 247.0535 147.1967 247.277 147.8673 247.8359 147.4202 248.6183 147.6438 248.73 147.7556 248.73 147.8673 248.8418 147.8673 249.2889 147.1967 249.5124 146.6378 249.8477 145.5201 250.7419 145.5201 251.4125 146.4143 252.1949 148.2026 252.8656 151.6675 252.9773 153.1206 253.5362 153.0088 254.4304 153.0088 254.9892 153.1206 255.7716 152.4499 256.3305 152.1146 256.4422 152.1146 257.1129 153.1206 257.7835 154.3501 258.9012 155.4678 260.1307 155.9149 261.1366 160.3857 265.0486 161.0563 268.1782 161.3916 268.9606 161.5034 269.5195 161.2799 270.0783 161.1681 270.5254 161.3916 271.196 161.727 271.5314 162.6211 271.9784 164.2977 273.2079 168.2097 275.2198 167.9861 276.114 167.7626 276.8964 167.3155 277.4552 166.8684 278.0141 167.6508 278.0141 168.3215 278.3494 168.8803 279.02 169.4392 279.8024 170.4451 280.5848 170.5569 279.5789 170.5569 278.1259 170.8922 277.3435 173.5747 277.4552 174.6924 277.0081 176.0337 275.5551 177.7102 272.8726 178.2691 272.202 178.9397 271.6431 180.1692 271.3078 184.8636 268.4018 185.8695 267.284 185.8695 266.5017 185.1989 266.5017 183.8576 265.831 186.9872 264.9369 188.4403 265.1604 189.1109 266.5017 190.8992 265.831 193.0229 264.4898 194.8112 262.7014 195.7054 260.8013 196.0407 261.919 196.4878 262.7014 197.1584 263.0367 198.0526 262.925 198.0526 263.7074 197.6055 264.1545 197.2702 264.6015 197.0466 265.2722 196.7113 265.831 194.8112 267.9547 196.0407 268.9606 197.2702 268.0664 198.7232 266.6134 200.288 265.831 200.6233 266.3899 200.9586 268.8488 201.1822 269.4077 201.9646 269.743 202.4117 270.6372 202.747 271.8667 202.8587 272.9844 203.5294 272.5373 204.0882 271.7549 204.3118 270.6372 204.3118 269.4077 204.5353 270.9725 204.9824 272.202 205.5413 272.8726 206.659 272.202 206.659 271.5314 206.3237 271.4196 205.653 270.8607 206.4354 269.743 207.3296 269.0724 208.112 269.1842 209.0062 270.0783 208.5591 269.5195 208.112 268.7371 207.5531 267.284 210.6827 266.1663 214.0359 265.831 214.1476 266.2781 215.6007 268.9606 215.7124 270.1901 216.0477 271.196 216.7184 271.9784 217.5008 272.202 217.2772 273.3197 217.0537 273.655 218.842 276.4493 219.2891 277.7905 218.9538 280.1377 219.6244 279.3553 221.7481 278.0141 219.848 276.5611 220.295 275.7787 219.1773 273.8785 218.9538 272.202 219.4009 272.202 219.7362 272.7608 220.0715 272.9844 220.8539 273.655 220.295 272.4255 219.7362 271.8667 218.9538 271.5314 218.1714 271.5314 217.6125 270.9725 216.2713 267.8429 215.6007 266.5017 215.8242 265.7193 216.3831 264.7133 217.1655 264.0427 218.1714 263.7074 218.5067 263.3721 218.5067 262.5897 218.6185 261.919 219.1773 261.5837 221.7481 261.5837 221.4128 260.8013 228.4543 259.3483 228.2308 259.7954 228.2308 260.2425 228.4543 260.8013 228.9014 261.5837 227.2249 264.378 227.2249 266.837 228.7897 268.6253 231.6957 269.4077 236.7254 269.5195 242.2022 268.6253 245.5553 266.837 246.0024 266.7252 246.673 266.5017 252.1498 267.284 259.5267 265.6075 262.0975 266.5017 260.9798 264.7133 259.5267 263.9309 256.8442 263.7074 256.8442 263.9309 256.5089 264.378 256.0618 264.4898 255.9501 264.0427 255.8383 263.3721 255.6147 262.7014 255.2794 262.3661 252.8205 261.5837 252.0381 261.0249 251.591 260.466 251.0321 258.007 248.4614 255.6598 247.9025 253.2009 247.9025 250.2948 247.5672 247.8359 246.7848 246.1593 245.1083 245.7122 245.1083 244.9298 246.0024 244.4827 246.7848 243.5886 247.2319 242.3591 247.7908 237.3294 248.2378 236.2117 248.7967 237.1058 249.2438 235.8763 249.2438 234.9822 248.9085 234.4233 248.1261 234.1998 247.7908 233.5292 248.5732 227.4935 249.0202 225.9287 249.9144 225.3699 251.591 226.1523 251.591 225.4816 250.2497 224.9228 248.7967 224.9228 247.4554 225.5934 246.8966 227.27 246.673 227.7171 246.226 227.0464 245.6671 226.0405 245.4436 225.1463 245.5553 222.5756 245.6671 221.4579 246.0024 220.4519 244.9965 220.2284 244.6612 219.446 244.7729 218.2165 245.1083 216.8752 245.5553 215.534 246.0024 214.8634 247.3437 213.9692 246.5613 213.2986 246.3377 213.4103 246.0024 213.9692 245.4436 212.2926 244.9965 210.2807 244.6612 208.1571 244.5494 206.257 245.1083 205.251 246.3377 205.1393 248.7967 205.9217 248.7967 205.251 247.3437 204.804 245.5553 203.9098 244.1023 203.9098 243.5435 205.9217 242.4257 204.5804 241.308 200.6684 240.3021 199.4389 240.7492 198.9919 240.9727 198.8801 241.1963 198.6565 239.2961 197.0917 238.402 195.974 237.8431 194.2975 239.2961 194.2975 239.2961 193.6268 238.402 191.3914 237.8431 191.3914 237.2843 193.2915 236.0548 192.3974 234.49 190.7208 233.1487 189.9384 233.3723 189.156 233.484 188.8207 233.7076 188.4854 232.7017 188.7089 231.8075 189.156 231.0251 189.156 230.3545 188.4854 230.1309 187.0323 230.3545 183.4557 230.3545 181.8909 230.1309 181.2202 229.7956 180.5496 228.7897 178.6495 228.6779 178.2024 228.6779 177.6436 228.4543 176.7494 227.7837 175.6317 225.9954 173.3963 225.5483 172.8374 225.9954 171.2726 228.0073 169.4843 228.4543 168.4783 228.6779 165.1252 228.6779 163.3369 228.2308 161.7721 227.6719 160.6543 227.2249 159.6484 226.666 158.866 224.4306 158.4189 221.4128 157.0777 221.9716 154.6187 221.7481 153.0539 222.0834 152.1597 223.9835 151.9362 224.5424 152.1597 225.9954 153.1657 226.7778 153.3892 228.6779 153.1657 229.3485 153.3892 229.6838 153.8363 230.0191 155.1776 230.3545 155.6246 230.578 155.7364 231.3604 155.6246 231.6957 155.6246 233.2605 156.1835 237.8431 156.8541 242.9846 158.6425 244.1023 158.5307 244.1023 158.866 244.1023 159.3131 244.3259 159.8719 244.7729 160.0955 245.4436 159.8719 246.4495 158.866 247.1201 158.5307 247.9025 158.7542 249.3556 159.3131 250.2497 159.3131 251.3674 158.7542 252.4851 157.7483 254.2735 155.2893 255.2794 154.5069 258.409 153.501 259.7503 153.3892 268.0213 154.954 268.5802 155.2893 268.8037 155.96 269.1391 157.7483 270.7039 160.9897 271.0392 162.8898 269.2508 164.1193 268.9155 165.1252 268.8037 166.1311 268.4684 166.5782 267.0154 166.5782 266.3448 166.8018 265.8977 167.3606 265.5624 169.9314 266.4565 172.055 267.686 173.8433 268.692 176.8612 273.9452 183.4557 274.6158 185.1322 274.8394 187.4794 274.7276 188.5971 274.3923 189.4913 274.057 189.9384 273.9452 190.2737 274.1688 191.3914 274.7276 191.2796 275.51 190.8326 276.2924 190.7208 276.963 191.3914 277.5219 192.062 278.3043 192.5091 279.6455 192.1738 279.6455 191.3914 278.8631 190.3855 279.422 188.9325 280.5397 187.5912 281.7692 187.0323 290.9344 187.5912 299.0937 190.7208 310.9415 191.3914 313.8475 192.2856 315.6359 192.5091 318.0948 191.0561 319.7714 191.5032 322.7892 192.8444 327.4836 192.8444 328.7131 193.2915 330.8367 194.7446 334.3017 195.527 340.7844 199.4389 342.4609 197.8741 353.6381 195.1916 356.7677 193.6268 358.6678 192.062 360.2326 191.615 360.9032 191.0561 362.5798 188.4854 367.1624 185.1322 375.7688 183.1204 384.3751 181.2202 387.5047 179.5437 388.846 178.426 390.0755 176.7494 385.1575 179.879 379.4572 180.6614 373.6451 179.879 368.7272 178.2024 367.2741 178.2024 366.1564 178.0906 364.4799 177.6436 363.1386 176.7494 362.5798 175.7435 362.3562 175.0728 361.3503 174.4022 361.1267 173.508 361.2385 172.3903 361.462 171.6079 364.927 165.0134 367.7212 155.6246 368.7272 154.3952 372.1921 151.6009 372.9745 151.6009 373.6451 150.9303 382.6986 146.6829 383.481 145.677 392.0873 140.5355 394.4345 139.7531 397.2288 137.9648 402.5938 135.9529 408.5177 135.9529 437.0194 126.7877 438.6959 125.4464 440.3725 124.8876 443.1668 121.758 452.1085 114.4928 455.7969 109.9102 456.5793 109.2396 457.2499 108.3454 458.703 102.6451 461.1619 99.4037 463.5091 99.0684 470.3272 102.4216 470.9978 102.4216 471.5567 101.8627 471.5567 101.0803 470.886 101.0803 470.4389 100.9685 469.9919 100.5215 469.6565 99.6273 471.1096 99.6273 471.1096 98.8449 469.7683 98.8449 468.3153 98.3978 467.3094 97.5036 466.8623 96.2741 466.1916 94.9329 463.1738 93.4799 462.5032 92.5857 462.615 89.1208 463.1738 84.8735 464.6268 81.9674 466.1916 82.3028 467.3094 82.5263 467.3094 81.8557 463.5091 78.8378 463.5091 78.0554 464.7386 74.4788 464.8504 69.3373 465.1857 64.8664 467.3094 63.3017 465.4092 60.3956 465.0739 58.8308 464.7386 53.6893 464.068 49.1067 463.9562 46.8713 464.2915 44.8594 465.7446 40.6121 466.6387 38.9355 466.974 36.9237 466.527 34.3529 465.4092 30.3292 465.2975 28.7644 465.1857 28.2055 466.8623 26.8642 467.5329 26.6407 468.9859 26.5289 470.2154 25.9701 471.4449 24.8524 473.4568 22.0581 475.5804 20.0462 488.7694 14.2341 489.9989 14.4576 492.4579 13.1164 503.5232 11.6634 515.371 7.7514 516.1534 7.3043 516.7122 7.3043 520.8477 7.7514 526.4363 6.2983 529.2306 4.9571 530.3483 4.2865 530.3483 4.1747ZM493.1285 879.9019L493.2403 879.9019 494.0227 879.6783 494.2462 879.6783 493.4638 878.3371 492.7932 876.7723 492.0108 875.7663 491.2284 876.1017 490.446 877.7782 490.5578 878.8959 491.5637 879.6783 493.1285 879.9019ZM1009.9584 860.5655L1011.7468 863.1362 1011.2997 863.1362 1009.9584 860.5655ZM948.3725 901.6972L948.9314 900.5795 948.3725 900.0207 947.3666 899.6854 946.9195 899.3501 947.143 898.4559 947.9254 898.3441 949.7138 898.3441 950.2726 898.1206 950.8315 897.6735 951.3903 897.3382 954.1846 896.7793 955.1905 896.3322 955.8612 895.8851 956.3083 895.6616 956.5318 895.7734 956.7553 895.6616 956.8671 894.8792 955.8612 894.0968 955.6376 893.8733 953.0669 892.6438 952.9551 892.3085 952.7316 891.6378 952.3963 891.3025 951.5021 892.1967 951.055 892.0849 950.8315 891.7496 950.7197 891.079 951.055 890.7437 953.0669 889.5142 951.6139 888.1729 950.0491 888.2847 947.3666 889.5142 947.9254 888.7318 947.4783 887.9494 947.2548 886.9435 947.143 885.9375 947.3666 885.0433 947.9254 885.4904 948.596 885.4904 949.2667 885.0433 949.7138 884.3727 950.6079 884.9316 950.8315 884.4845 950.9432 883.7021 951.1668 883.0315 951.5021 882.5844 951.6139 882.2491 951.9492 881.9138 954.1846 881.5784 954.8552 880.9078 954.967 880.0136 954.967 878.8959 955.6376 877.6664 955.9729 876.9958 955.6376 876.6605 954.8552 876.5487 954.6317 876.2134 954.7435 875.8781 955.3023 873.4191 956.1965 872.4132 957.426 871.8543 958.7672 871.519 958.3201 870.6249 958.7672 868.5012 958.2084 867.607 958.2084 866.9364 958.7672 867.2717 958.9908 867.2717 959.1025 867.3835 959.2143 868.2777 960.332 867.607 961.1144 867.9424 961.6733 868.613 962.5674 868.9483 963.5734 868.5012 964.4675 867.607 965.0264 866.3776 965.3617 865.0363 964.9146 864.3657 967.4854 864.2539 971.8444 861.9067 979.6684 860.2301 981.7921 859.1124 982.0156 857.3241 985.7041 853.1886 986.4865 852.5179 988.163 852.2944 989.7278 852.2944 990.5102 852.5179 991.1809 852.4062 994.7575 853.4121 996.2106 854.3063 996.6576 854.7534 997.1047 855.424 997.44 856.0946 998.1107 857.9947 998.5578 857.9947 1001.0167 853.7474 1002.0227 850.9531 1001.352 848.9413 1001.9109 847.0411 1001.5756 845.4763 1000.5696 843.9116 999.4519 842.4585 1001.352 839.776 1001.352 838.9936 1000.905 838.0994 1000.905 837.3171 1001.2403 836.4229 1001.6873 835.7523 1003.2521 834.0757 1003.0286 833.5168 1002.9168 833.2933 1003.0286 832.8462 1003.2521 832.0638 1002.5815 831.2814 1002.1344 829.8284 1002.0227 828.1518 1002.358 826.9223 1003.4757 826.1399 1006.27 826.1399 1007.6112 825.5811 1008.5054 826.9223 1009.0642 827.4812 1010.4055 828.2636 1010.4055 828.9342 1009.8466 829.7166 1009.7349 830.7226 1010.0702 831.8403 1010.8526 832.7344 1010.5173 834.5228 1011.8585 843.1292 1011.7468 845.9234 1009.5113 854.7534 1009.6231 855.8711 1009.3996 857.2123 1009.5113 859.8948 1009.3996 860.2301 1009.176 860.4537 1009.0642 860.6772 1008.9525 861.1243 1009.176 861.4596 1009.5113 861.5714 1009.7349 861.6832 1009.9584 861.7949 1010.0702 862.5773 1010.2937 863.1362 1010.2937 863.5833 1009.9584 864.3657 1010.5173 864.8128 1010.7408 865.4834 1010.8526 866.154 1011.2997 866.9364 1011.8585 867.3835 1013.7586 868.2777 1013.5351 866.8246 1013.3116 866.2658 1012.1938 863.8068 1014.2057 866.8246 1014.8763 868.3894 1015.2117 870.1778 1014.9881 875.6546 1015.2117 878.4488 1016.1058 880.4607 1015.6587 881.6902 1015.3234 883.0315 1015.2117 884.4845 1015.2117 886.1611 1015.4352 888.1729 1016.7765 891.7496 1017 893.6497 1016.5529 905.2739 1017 907.3976 1016.8882 908.18 1016.7765 909.8565 1016.5529 910.5272 1016.1058 911.4213 1014.2057 913.2097 1013.4233 914.3274 1012.4174 916.6746 1007.6112 923.6044 1006.6053 924.6103 1006.27 925.5045 1006.1582 928.7459 1005.5993 935.2286 1006.27 941.5996 1006.1582 948.3058 1005.9347 948.7529 1005.3758 948.9765 1004.7052 949.6471 1004.1463 950.4295 1003.6992 951.3237 1004.7052 951.3237 1004.4816 953.0002 1004.1463 954.0062 1003.4757 954.4532 1002.8051 954.4532 1002.2462 954.4532 1002.0227 955.0121 1002.358 956.3534 1001.352 955.9063 1000.3461 955.6827 999.3402 955.571 998.5578 955.7945 998.6695 956.5769 997.9989 957.4711 997.6636 958.3652 998.5578 958.9241 1000.7932 958.0299 1002.2462 957.8064 1002.8051 958.5888 1002.5815 959.93 1001.9109 961.0477 1000.905 961.8301 999.6755 962.0537 999.1166 962.5008 998.5578 963.5067 997.8871 964.4009 996.6576 964.6244 996.8812 965.295 996.993 965.8539 996.8812 966.5245 996.6576 967.1952 997.44 967.5305 997.6636 968.2011 997.3283 968.9835 996.6576 969.6541 997.1047 970.3248 995.987 970.7718 994.0869 972.0013 992.9692 972.2249 992.9692 972.8955 993.5281 973.4543 993.7516 974.125 993.5281 974.9074 992.9692 975.4662 992.9692 976.0251 993.7516 975.6898 994.7575 974.5721 995.6517 974.125 995.4282 975.4662 994.8693 977.031 994.3105 978.3723 993.7516 979.1547 992.6339 979.8253 991.7397 979.49 990.0631 977.9252 988.9454 977.4781 986.8218 977.1428 985.0334 976.3604 985.8158 974.0132 986.1512 973.6779 986.71 973.4543 985.5923 972.4484 983.9157 971.7778 982.9098 970.9954 983.9157 969.6541 983.9157 969.0953 983.0216 969.3188 981.0097 970.9954 980.5626 970.3248 980.6744 970.1012 980.7861 970.1012 980.8979 969.9894 981.0097 969.6541 980.3391 969.8777 980.0037 969.9894 979.6684 970.3248 979.1096 969.6541 978.4389 968.9835 976.6506 968.4246 974.974 968.2011 973.8563 968.4246 973.1857 967.8658 972.6268 967.3069 971.9562 966.7481 970.2796 966.4128 970.1679 966.0774 969.9443 965.6304 969.609 965.295 968.9384 965.0715 968.3795 965.0715 967.8207 965.0715 967.2618 964.6244 968.156 963.9538 968.156 963.3949 967.3736 963.0596 966.8147 962.7243 966.1441 962.8361 965.2499 962.6125 964.3558 962.1655 963.9087 961.8301 964.244 960.0418 964.0205 959.3712 963.0145 958.9241 963.4616 957.8064 964.0205 955.9063 964.6911 954.565 965.8088 955.1239 969.4972 953.4473 970.1679 952.8884 970.5032 951.659 971.1738 950.9883 972.1798 950.4295 972.9622 949.4235 971.3974 949.3118 967.0383 948.0823 965.3617 948.0823 963.7969 947.747 962.9028 946.8528 963.4616 944.9527 961.785 944.9527 958.879 946.0704 957.3142 946.1822 957.426 945.8469 957.7613 944.9527 956.8671 945.0645 956.0847 944.8409 955.4141 944.5056 954.5199 944.2821 955.4141 943.835 957.3142 943.4997 958.2084 943.0526 958.7672 942.2702 959.1025 941.2642 958.9908 940.4818 958.2084 939.923 958.2084 939.2524 959.7732 939.2524 961.2262 938.8053 963.4616 937.3523 963.1263 936.5699 962.5674 935.8992 961.8968 935.5639 961.1144 935.4521 963.3498 934.6697 963.9087 934.2227 963.7969 933.9991 963.5734 933.3285 963.2381 932.8814 963.0145 932.8814 963.7969 931.6519 963.9087 931.5402 964.1322 931.0931 964.8029 930.3107 964.9146 929.7518 964.6911 929.64 963.9087 929.0812 963.5734 928.2988 963.2381 927.7399 962.791 927.4046 962.0086 927.1811 960.6673 927.2928 958.3201 928.6341 956.8671 929.0812 953.9611 929.3047 952.7316 929.5283 951.7256 930.3107 951.1668 929.0812 951.9492 927.5164 951.7256 926.2869 949.7138 923.9397 953.1787 923.6044 954.5199 923.0455 955.4141 921.4807 954.5199 920.8101 955.1905 919.6924 956.5318 918.6865 957.9848 918.2394 958.4319 918.0158 960.2202 917.0099 960.5556 917.0099 960.6673 915.7804 960.332 915.2216 959.2143 914.3274 957.9848 911.7567 957.5377 910.8625 956.8671 910.7507 954.8552 911.3096 954.5199 910.8625 953.9611 909.7448 952.7316 908.9624 951.1668 908.6271 949.7138 908.6271 950.0491 907.7329 950.2726 907.3976 949.7138 906.9505 949.1549 906.727 948.596 906.6152 947.9254 906.727 948.596 906.6152 949.1549 906.2799 950.2726 905.4975 950.2726 904.8268 948.3725 904.8268 948.3725 904.1562 949.1549 903.8209 949.3784 902.9267 949.1549 902.0326 948.3725 901.6972ZM271.598 541.9058L271.2627 542.8 271.9333 543.4706 273.9452 544.7001 274.5041 545.5943 274.6158 546.3767 274.057 550.624 273.2746 553.1947 272.2686 554.7595 271.0392 554.2007 270.0332 550.7358 269.4744 549.3945 268.8037 548.0532 264.6682 543.4706 263.2152 542.3529 261.7622 540.5646 260.6444 538.6645 260.868 537.7703 261.0915 536.7644 260.3091 534.4172 258.7443 530.9523 260.868 531.2876 263.2152 532.5171 265.4506 534.3054 267.0154 536.0937 267.7978 536.5408 268.692 536.2055 269.5861 536.0937 270.5921 537.0997 270.9274 538.3292 270.8156 539.4469 270.8156 540.4528 271.598 541.2352 271.598 541.9058ZM267.3507 520.6693L267.0154 520.334 266.6801 520.2222 263.5505 519.6634 256.8442 515.3043 252.9322 515.9749 251.9263 515.5278 249.132 512.3982 248.3496 511.8394 248.3496 511.1688 252.3734 510.1628 253.6029 510.3864 254.0499 510.8334 254.3853 511.3923 254.3853 511.9512 254.0499 512.51 252.3734 511.8394 251.591 511.8394 252.8205 513.8513 254.7206 513.8513 256.6207 512.9571 258.2972 512.51 258.2972 513.1806 257.4031 513.1806 257.4031 513.963 258.5208 514.5219 265.4506 515.6396 267.1272 516.7573 268.3567 518.2103 269.1391 520.1105 268.5802 520.1105 268.0213 520.334 267.3507 520.6693ZM194.2524 462.9954L196.9349 464.1131 198.2761 465.119 199.0585 466.4603 197.4937 465.7897 191.9052 465.6779 191.1228 463.8895 191.6816 462.9954 192.9111 462.7718 194.2524 462.9954ZM203.7529 437.288L204.5353 438.1822 206.8825 439.4117 207.5531 440.0823 207.8884 441.5353 208.112 443.659 207.7767 445.0002 206.659 444.3296 205.5413 441.9824 204.0882 439.6352 202.4117 438.5175 200.5116 439.4117 199.3938 437.8469 198.3879 433.9349 197.1584 432.4818 201.0704 432.2583 202.4117 432.4818 203.7529 433.376 203.9765 434.4937 203.6411 435.835 203.7529 437.288ZM140.4904 402.0801L141.3846 402.5272 143.3965 402.4154 144.0671 403.1978 143.8436 405.0979 141.9435 405.6568 136.5784 405.2097 133.0018 404.092 131.7723 403.1978 131.9958 401.633 131.437 399.9564 130.7663 398.2799 130.3193 396.8268 130.8781 396.268 131.2134 395.5974 131.6605 395.5974 132.2194 396.1562 133.1135 396.3798 136.2431 398.0563 137.9197 399.3976 138.1432 399.6211 140.4904 402.0801ZM6.7003 283.7144L6.8121 283.938 6.9239 284.2733 7.1474 284.4968 7.5945 284.385 7.5945 285.1674 4.0178 287.0675 2.7883 287.2911 2.7883 286.6205 3.1237 286.5087 3.5707 286.6205 3.7943 286.6205 3.3472 285.5028 2.6766 285.391 1 285.8381 1 285.1674 3.7943 283.4909 5.3591 283.0438 6.7003 283.7144ZM787.0867 825.134L787.6455 824.9105 788.2044 825.6928 788.3162 827.0341 786.7514 827.7047 785.8572 828.1518 784.8513 828.4871 784.0689 828.2636 782.3923 827.2576 782.2805 826.8106 782.9512 826.4752 784.963 826.4752 785.5219 826.1399 785.7454 825.9164 785.969 825.8046 786.1925 825.9164 786.9749 825.8046 787.0867 825.134Z" />
</svg>