<?xml version="1.0" encoding="utf-8"?>
<svg xmlns="http://www.w3.org/2000/svg" viewBox="0 0 1021 527" style="stroke-width:0.25px;stroke-linejoin:round;stroke:#444;fill:#ddd" fill-rule="evenodd">
  <path class="GE" d="M1 43.199L1.7824 39.6223 12.0653 12.6855 14.0772 9.3323 17.7657 6.9851 27.9369 4.1909 38.3316 4.1909 75.7749 18.1623 81.8106 18.9447 86.505 17.7152 96.3408 12.5737 101.8176 11.9031 106.1767 14.1385 107.5179 15.2562 115.2301 21.0683 130.6546 26.4333 135.5725 29.3394 156.3619 45.9933 160.9446 47.2228 176.7043 45.0991 181.9575 46.2168 186.7637 48.6758 191.4581 52.476 196.7113 54.8232 207.5531 52.6996 212.1358 54.4879 213.5888 56.4998 215.7124 61.4177 217.0537 63.5414 219.2891 65.2179 227.2249 67.6769 231.1369 70.1359 237.9549 77.0657 241.9787 79.3011 247.5672 79.86 258.6326 78.2952 264.1094 78.9658 274.057 81.7601 278.7514 82.3189 289.3696 81.0894 293.7287 81.313 298.1996 82.5425 302.8939 84.8897 307.7001 86.3427 312.5063 86.5662 317.4242 85.5603 329.3837 78.854 330.1661 78.4069 334.0781 77.1774 359.6737 75.0538 360.9032 75.1656 370.0684 76.5068 378.6748 82.3189 382.5868 86.3427 387.0576 89.8076 396.2229 94.9491 399.1289 95.6197 401.3644 94.7255 405.3881 90.9253 407.9589 89.584 412.765 89.4723 419.8066 87.3486 425.8422 87.4604 431.6543 89.0252 435.9017 91.8195 440.149 95.8432 444.508 98.7493 457.4735 103.5554 457.4735 106.3497 456.3558 109.7029 455.9087 113.056 457.2499 115.2914 464.7386 120.5447 481.0572 135.9691 483.9633 137.5339 486.8693 139.2105 515.9298 147.3697 530.1248 151.3935 535.8251 152.8465 546.2198 157.988 548.7905 160.2234 555.0497 167.7121 557.844 169.5004 571.9272 172.9653 575.9509 174.9772 578.7452 176.4303 580.4218 182.4659 576.9569 187.3838 571.5919 191.184 567.3446 195.4314 566.8975 201.467 571.2565 206.832 578.0746 208.6204 585.4515 209.291 591.4871 210.8558 594.952 213.5383 596.9639 214.9913 599.7582 216.4443 602.5525 215.9972 604.8997 213.9854 608.5881 208.7321 610.6 206.4967 617.1945 203.4789 631.7248 202.6965 637.0898 201.1317 638.7663 200.5728 640.89 198.4492 643.796 195.5431 646.5903 189.731 650.0552 185.4837 663.5795 185.2602 669.727 183.2483 681.4629 176.8773 685.822 175.6479 693.4224 175.089 699.9052 175.8714 705.6055 177.6597 706.1644 177.8833 711.7529 181.1246 714.2119 183.0248 718.6827 187.8309 720.4711 190.6252 724.1595 202.5847 726.0596 204.5966 727.4009 203.1436 729.8598 191.8547 734.2189 182.2424 735.2249 179.001 739.0251 173.7477 745.6196 175.089 762.1617 186.9367 764.8442 188.278 767.6385 188.8369 770.5446 188.3898 771.8858 187.7191 776.1331 185.819 779.0392 185.4837 783.8453 187.3838 788.2044 191.184 803.1817 209.4028 804.8583 212.197 806.0878 214.8795 807.6526 218.568 809.2174 220.9152 814.2471 223.0388 820.7298 222.1447 832.9129 218.4562 841.631 218.6798 854.3729 220.9152 866.2207 225.6096 872.3681 232.9865 872.3681 233.21 871.921 237.9044 854.4847 283.6188 855.9377 288.425 860.5204 291.331 866.6678 294.2371 883.3217 305.8613 893.8282 308.6556 895.9518 310.6674 900.1991 321.3975 901.8757 323.6329 903.8876 324.7506 906.6818 324.9741 907.7996 324.5271 909.8114 322.9623 911.0409 322.627 912.0469 323.074 914.6176 325.3095 915.8471 325.9801 918.6414 325.8683 920.6532 325.3095 922.1063 326.3154 923.224 330.7862 926.8007 332.4628 931.495 332.5746 940.325 330.7862 940.4367 330.7862 940.4367 330.6745 941.778 330.3392 943.0075 330.2274 944.3487 330.3392 945.8018 330.7862 949.7138 334.0276 956.42 341.9634 960.6673 343.8635 969.7208 344.6459 973.4092 346.7695 977.0977 351.7992 971.2856 363.647 968.0442 369.012 961.5615 376.9477 959.3261 378.9596 956.8671 380.0773 953.7375 380.4127 946.6959 378.8479 943.3428 379.1832 940.4367 382.3128 938.9837 389.2426 939.0955 399.5255 940.9956 408.6908 945.1311 412.0439 946.4724 410.9262 947.143 409.1378 948.149 407.573 950.2726 407.4613 950.6079 408.579 953.9611 415.0617 954.1846 416.5147 955.4141 424.4505 956.7553 428.8096 959.3261 432.1627 967.2618 437.7513 969.0502 438.5337 972.1798 439.3161 979.2213 445.9106 993.9751 452.1697 1001.4638 456.6406 1003.811 462.2292 1006.1582 461.335 1007.1641 462.0056 1007.3877 462.1174 1008.3936 463.9057 1011.2997 467.1471 1016.1058 474.524 1017 477.43 1016.5529 477.6536 1015.3234 477.43 1013.9822 479.1066 1013.6469 480.5596 1013.5351 484.1363 1013.1998 485.4776 1012.3056 486.707 1010.2937 488.6072 1009.3996 489.8366 1007.9465 495.3134 1007.1641 502.2432 1005.9347 508.6142 1005.0405 509.8437 1002.9168 512.7497 1000.0108 513.3086 997.1047 512.5262 994.0869 512.1909 990.9573 514.2028 989.2807 517.4441 988.3866 520.5737 987.0453 522.6974 983.6922 522.8091 981.0097 521.1326 976.7624 515.4322 974.3034 513.1968 965.2499 510.2908 962.1204 508.3906 953.1787 500.2314 948.8196 494.7546 946.4724 492.4074 943.6781 491.4014 932.2774 491.5132 928.9243 492.2956 925.1241 494.7546 921.1003 497.3253 918.0825 498.443 914.5058 498.7783 907.1289 497.8842 884.6629 489.7249 877.0625 485.0305 874.1564 483.2421 867.8972 477.8771 864.2088 472.065 867.5619 467.9295 871.0268 466.5882 873.2623 465.4705 873.0387 464.241 869.462 462.788 859.6262 460.7761 837.8308 452.2815 832.9129 447.5871 830.7892 445.0164 828.5538 444.6811 823.5241 446.1341 820.5063 446.4694 818.0473 446.0223 810.7822 442.2221 807.9879 440.7691 803.07 440.4338 798.152 442.2221 775.1272 461.2232 760.7087 473.2945 758.8086 474.4122 755.4554 477.5418 753.5553 478.8831 747.855 478.9948 733.213 476.7594 730.3069 479.6655 731.5364 482.5715 737.2367 485.254 738.2427 486.707 738.8015 487.6012 737.3485 489.7249 733.3248 490.1719 711.0823 489.7249 704.8231 487.2659 701.6935 486.8188 698.4521 488.2718 696.552 490.9543 694.6519 494.0839 692.4165 496.0958 689.2869 495.2017 688.5045 493.6369 687.9457 491.625 687.1633 490.0602 685.4867 490.1719 684.5925 490.9543 681.4629 494.3075 677.7745 495.4252 674.4213 495.2017 671.0682 493.9722 663.0207 489.0542 661.1206 488.8307 659.3322 489.3895 658.1028 490.5073 656.985 491.7367 655.6438 492.7427 652.0671 493.3015 649.2728 492.2956 641.8959 487.1541 637.8722 485.4776 636.1956 485.4776 634.4073 486.707 634.0719 488.2718 633.9602 489.9484 633.1778 491.8485 630.7188 494.3075 627.8128 495.8723 624.5714 496.4311 618.2004 494.6428 615.1826 494.9781 609.0352 497.7724 605.5703 498.5548 605.5703 498.6666 602.2172 499.449 588.2458 499.7843 581.6513 502.4668 574.6097 508.726 571.7036 509.9554 568.0152 510.2908 543.3138 506.7141 536.831 507.0494 528.6717 510.4025 527.2187 510.7378 525.6539 510.6261 524.2009 510.2908 525.8774 505.0375 523.7538 500.3431 519.6183 496.4311 515.4827 494.0839 510.6766 492.7427 506.3175 493.078 492.3461 496.99 490.2224 495.4252 486.534 486.4835 483.5162 482.9068 480.4983 482.5715 477.1452 482.9068 473.1215 481.6773 481.2807 477.43 483.5162 475.5299 485.5281 472.6239 485.3045 471.5062 480.8337 470.9473 476.251 468.7119 468.8741 462.2292 457.8088 454.6287 455.5734 452.2815 450.9908 443.6751 449.873 442.3339 448.5318 441.775 447.7494 440.9926 447.1905 440.0985 446.2964 439.2043 441.8255 437.7513 440.596 436.9689 439.3666 434.7334 438.5842 432.2745 437.4664 430.9332 435.4546 432.1627 431.6543 436.5218 428.8601 435.5158 425.954 432.3862 422.042 430.0391 423.3833 428.0272 426.2893 425.5682 427.5188 424.0034 428.1894 422.2151 428.5248 420.2032 428.9718 418.1913 430.2013 416.2912 427.2953 414.9499 406.0587 413.0498 398.4583 413.7205 395.4405 414.7264 394.8816 414.9499 394.6581 415.0617 391.6403 417.4089 390.0755 420.762 388.6224 429.0331 387.0576 432.2745 383.8163 435.7394 379.2337 442.6692 376.1041 444.6811 374.3157 444.7928 372.3039 444.9046 345.7023 434.5099 338.3254 434.957 334.637 434.6217 332.178 432.2745 329.9426 430.9332 327.7072 430.9332 322.901 432.2745 320.7773 431.2685 318.6537 430.9332 316.53 431.2685 314.2946 432.2745 308.9296 433.951 298.0878 429.8155 292.0521 432.2745 289.9285 433.8393 285.2341 440.6573 279.0867 445.9106 277.6337 446.8047 275.8453 446.0223 269.8097 440.322 267.7978 439.6514 263.327 439.0925 261.5386 438.4219 260.9798 437.0806 260.9798 435.5158 261.2033 433.951 260.9798 433.1686 259.7503 433.1686 255.9501 434.8452 251.4792 435.2923 249.5791 434.8452 233.3723 428.0272 243.3199 410.1438 247.7908 404.1081 256.956 398.0725 259.5267 392.0369 266.5683 380.3009 267.0154 377.9537 267.0154 376.0536 267.2389 374.4888 268.1331 372.7004 270.5921 369.2355 271.3745 367.559 271.7098 365.7706 271.7098 349.2285 271.7098 348.4461 269.9215 335.5924 269.6979 331.0098 269.0273 328.1037 262.8799 317.3737 258.2972 309.2144 256.6207 307.8732 255.0559 306.1966 254.3853 302.2846 254.0499 295.3548 252.8205 286.0778 244.8847 258.0232 244.2141 256.7937 243.2081 255.2289 239.0726 251.2052 238.5138 249.7521 238.0667 246.2872 230.2427 198.2256 227.6719 190.0663 223.76 183.1365 218.842 177.7715 212.5828 174.1948 201.0704 172.0712 198.6114 170.6182 196.1525 168.3827 192.464 166.3708 188.6638 164.9178 185.646 164.4707 183.8576 164.9178 180.8398 166.8179 178.9397 167.265 177.2631 166.2591 170.4451 155.7526 166.8684 143.0107 160.6092 132.0571 158.0385 126.1332 154.2383 126.245 148.3144 128.9275 144.5142 127.5862 140.0433 120.6564 137.3608 118.9799 137.2491 117.9739 133.7842 111.8265 132.6664 110.9323 121.7129 106.5733 106.512 104.4496 99.4704 104.8967 94.5525 106.1262 92.6524 106.238 90.864 105.5673 87.958 102.6613 86.505 101.9906 85.8343 101.4318 83.1518 98.6375 81.8106 97.6316 80.3575 97.0727 75.5514 96.1785 63.3683 90.3664 57.7798 89.6958 53.8678 94.8373 52.303 93.1607 50.0675 87.5722 48.6145 84.8897 45.2614 81.4248 43.6966 79.0776 44.3672 72.5948 42.02 66.4474 38.6669 60.8589 36.2079 57.7293 31.6253 55.6056 23.2425 53.0349 18.4363 48.1169 16.2009 47.111 9.2711 45.9933 4.5767 43.9814 1 43.199Z" />
</svg>