<?xml version="1.0" encoding="utf-8"?>
<svg xmlns="http://www.w3.org/2000/svg" viewBox="0 0 1021 1004" style="stroke-width:0.25px;stroke-linejoin:round;stroke:#444;fill:#ddd" fill-rule="evenodd">
  <path class="GG" d="M189.2227 745.1582L230.9133 727.2748 274.057 694.6376 314.4064 676.866 347.826 704.4735 339.5549 731.4103 306.5824 787.5195 297.3054 854.2469 284.6752 902.7556 285.0106 915.0504 282.4398 923.4332 266.4565 939.9754 246.1142 952.9408 232.7017 951.4878 220.295 944.2227 203.6411 939.9754 9.2711 939.9754 1 931.8161 6.365 915.3857 22.1248 899.8495 44.5908 895.4904 35.0902 851.3408 47.8321 838.04 72.6453 837.593 99.5822 831.7809 189.2227 745.1582ZM626.3597 890.4607L641.3371 910.4678 645.2491 949.5877 624.5714 980.3248 606.688 999.9965 597.411 996.308 604.0055 976.301 607.4704 960.5413 601.8818 941.4284 602.776 925.7804 608.4763 917.7329 614.0649 905.2145 621.6653 893.8139 626.3597 890.4607ZM1008.6172 4.0035L1017 12.1628 1017 29.4873 981.5685 68.8308 955.4141 84.1435 923.0004 92.5263 904.1111 77.549 919.7591 43.5705 947.5901 26.6931 967.5971 24.5694 1000.2343 5.4565 1008.6172 4.0035ZM444.7316 781.5956L456.5793 775.1129 461.8326 804.1734 445.4022 842.8462 443.1668 830.4396 441.9373 802.8321 444.7316 781.5956Z" />
</svg>