<?xml version="1.0" encoding="utf-8"?>
<svg xmlns="http://www.w3.org/2000/svg" viewBox="0 0 702 1024" style="stroke-width:0.25px;stroke-linejoin:round;stroke:#444;fill:#ddd" fill-rule="evenodd">
  <path class="GH" d="M485.8608 8.3591L486.9785 11.0416 489.6611 13.5006 492.7906 15.2889 495.6967 15.9595 498.6028 15.6242 503.856 14.2829 506.762 14.1712 512.0153 16.1831 514.3625 19.9833 514.9213 24.9012 514.4743 30.4898 514.0272 32.5017 513.0212 33.6194 511.5682 34.5135 510.3387 35.8548 509.5563 37.3078 506.2032 53.4029 506.315 54.8559 507.0974 57.9855 506.8738 59.7738 505.5326 61.0033 502.2912 63.2387 500.0558 66.033 498.9381 68.8273 498.0439 75.4218 497.485 77.6572 496.5909 81.681 496.4791 85.0341 498.0439 88.3872 499.3851 89.505 501.1735 90.2873 503.0736 90.8462 506.6503 91.2933 507.768 92.0757 508.7739 92.9699 510.1152 93.9758 515.0331 95.5406 516.4861 96.4348 517.7156 97.9996 519.504 101.4645 520.8452 103.0293 529.1163 108.2825 531.5752 110.965 539.511 125.8306 539.9581 126.3894 541.1876 126.2777 541.8582 125.3835 542.3053 124.3776 542.7524 123.9305 546.8879 125.4953 548.3409 125.7188 550.1293 125.2717 551.5823 124.4893 553.0353 124.0422 554.6001 124.4893 556.1649 126.0541 556.2767 127.7307 555.7178 129.4073 555.4943 130.8603 557.2826 133.6546 559.9651 136.1135 561.5299 138.6843 560.1887 141.9256 562.4241 141.8139 569.2421 140.6961 570.6952 141.4785 573.9365 144.0493 570.1363 146.9553 569.3539 149.4143 568.9068 151.985 567.7891 154.1087 568.0127 159.4737 567.2303 170.7626 568.6833 174.8981 570.6952 176.1276 572.4835 176.5747 573.713 177.5806 574.1601 180.822 573.6012 183.5045 573.4894 183.9516 571.8129 184.3987 569.3539 184.0634 566.5596 184.5105 567.5656 186.0752 567.4538 187.0812 566.8949 188.0871 566.5596 189.5402 566.8949 190.6579 568.6833 194.4581 569.801 197.5877 569.6892 198.8172 568.5715 199.8231 566.5596 202.0585 565.3301 204.4057 564.9948 206.6411 565.7772 213.0121 565.6655 214.8004 562.3123 227.207 562.5359 230.1131 563.3183 231.7897 564.5477 233.0191 565.5537 234.5839 566.2243 236.9311 566.6714 239.8372 566.2243 242.6315 564.5477 244.6433 561.7535 244.9787 559.071 243.5256 554.9354 239.0548 552.7 243.6374 552.8118 248.22 555.2707 251.5732 560.1887 252.132 566.5596 250.4554 569.6892 251.0143 571.0305 254.3674 569.9128 256.4911 567.342 257.2735 564.436 256.7146 562.3123 255.3734 559.518 257.1617 555.7178 257.3853 547.8938 256.4911 547.5585 257.497 546.7761 261.9679 546.7761 262.9738 547.2232 263.4209 548.3409 264.4268 549.9057 265.5446 551.5823 266.327 555.4943 265.5446 557.7297 265.6563 559.071 267.3329 558.5121 269.0095 556.5002 270.3507 554.0413 271.3567 547.5585 272.6979 547.5585 274.9333 548.6762 277.5041 547.335 279.2924 548.1174 281.4161 551.0234 281.7514 553.9295 281.0807 561.0828 278.6218 562.2006 277.6158 562.8712 276.2746 563.3183 273.0332 564.1007 271.8037 566.4479 270.7978 570.0245 270.1272 576.2837 269.7919 579.1898 270.2389 587.5726 273.2568 588.5785 274.7098 588.8021 276.2746 588.4668 277.8394 587.4608 279.6277 587.3491 279.8513 587.4608 279.963 587.5726 280.1866 592.1552 281.7514 595.0613 284.2103 595.9554 287.8988 594.5024 295.9463 594.2789 300.6407 593.6083 302.6526 592.0435 304.3292 590.2551 305.3351 589.0256 306.7881 588.9139 309.9177 590.814 315.618 590.814 318.1888 588.9139 321.4301 585.449 324.5597 584.443 326.1245 584.443 328.5835 583.6606 333.725 580.9781 338.6429 579.4133 343.4491 581.4252 348.367 581.537 348.367 589.0256 361.2207 591.0375 369.0447 587.5726 373.9626 586.7902 375.9745 586.5667 378.4334 586.0078 380.5571 584.2195 381.3395 582.2076 381.0042 580.6428 380.5571 579.1898 380.3336 577.5132 380.8924 578.4074 381.563 577.2897 384.1338 575.7249 386.0339 574.0483 382.4572 572.1482 381.6748 570.1363 382.1219 569.1304 383.5749 569.4657 385.5868 570.4716 391.3989 575.0542 401.3465 581.3134 410.0647 587.5726 414.4238 590.2551 417.4416 593.9436 421.0183 598.0791 423.9243 608.362 428.8422 611.0446 434.6543 613.0564 440.5782 619.0921 445.6079 619.4274 447.2845 619.4274 449.0728 619.7627 451.42 619.6509 452.9848 619.7627 453.6554 620.3216 454.2143 622.2217 454.5496 622.7805 455.1085 623.4512 459.0205 622.2217 461.3677 619.7627 462.9325 612.8329 466.062 610.1504 467.7386 605.0089 472.433 603.6677 473.1036 602.4382 473.2154 601.6558 473.886 601.544 475.8979 602.1029 477.5745 603.3323 478.6922 604.4501 480.0334 604.6736 482.2689 603.8912 484.2807 602.6617 485.2867 601.8793 486.4044 602.6617 490.3164 603.2206 497.6933 604.6736 503.6172 604.7854 506.635 604.6736 512.5589 606.2384 522.9536 606.3502 523.736 606.1266 533.2365 607.5796 542.29 607.2443 550.4493 607.6914 553.5789 603.2206 552.7965 601.2087 556.0378 600.6498 560.9558 600.7616 565.2031 599.8674 567.3267 597.7438 568.4444 595.173 569.1151 593.1612 570.0092 591.5964 571.574 590.5904 573.2506 590.0316 575.2625 589.4727 584.4277 590.2551 592.1399 592.7141 599.0697 597.632 603.5406 600.5381 603.8759 603.6677 603.3171 609.368 601.1934 610.3739 602.5347 612.9447 612.9294 612.7211 616.3943 610.5975 622.0946 609.1444 629.4715 605.456 638.8603 604.8971 645.1195 605.5678 652.1611 605.456 659.0909 602.4382 664.4559 600.4263 665.5736 593.8318 667.3619 591.5964 667.4737 589.2492 668.2561 591.0375 670.6033 595.5084 674.0682 597.4085 677.4213 596.9614 680.1039 593.72 685.5806 592.6023 688.9338 593.1612 690.3868 594.6142 691.281 596.5143 692.8458 601.0969 701.2286 602.1029 702.6816 604.7854 703.2405 607.5796 704.6935 609.8151 706.9289 611.1563 709.3879 611.2681 711.9586 609.9268 719.8944 610.821 723.2475 612.8329 725.1476 615.0683 726.7124 616.4096 729.2832 617.9744 729.3949 622.3334 729.2832 623.6747 729.5067 625.6866 731.5186 625.5748 732.9716 624.5689 734.4246 623.5629 736.4365 623.4512 737.4425 623.2276 740.6838 624.2336 744.484 626.1337 748.2843 628.5926 752.0845 631.834 755.4376 639.658 759.3496 643.57 761.8086 648.5997 767.956 650.6116 769.5208 653.8529 770.3032 665.8124 770.415 669.948 783.0451 672.2952 786.51 673.5246 787.4042 674.7541 787.8513 675.8718 788.5219 677.1013 789.9749 679.1132 793.1045 680.9015 795.1164 683.0252 796.1223 695.9906 797.6871 697.779 800.1461 697.4437 805.7347 697.3319 805.7347 696.326 806.07 689.1726 809.8702 683.8076 814.1175 675.8718 822.6121 674.0835 825.4064 670.1715 833.1186 669.5009 836.2482 669.2773 839.4895 667.6008 846.7547 666.2595 849.6607 661.3416 854.3551 654.9706 856.5905 625.1277 859.9437 569.0186 855.9199 562.2006 856.2552 558.5121 857.1494 556.612 857.9318 555.8296 858.826 555.0472 859.273 551.247 859.3848 549.9057 859.8319 546.9997 861.9556 536.4932 864.8616 534.146 866.4264 529.7869 870.4502 523.7513 872.2385 521.5158 874.5857 519.7275 877.38 517.2685 879.9507 504.8619 884.198 504.0795 884.6451 502.0677 886.657 501.1735 887.4394 499.7205 887.8865 497.2615 888.11 463.6184 898.9518 456.5768 899.846 455.5708 900.4048 453.6707 901.299 442.1583 910.9113 440.9288 912.6997 440.1464 915.1586 438.0228 917.2823 432.4342 920.7472 421.4806 923.5415 419.5805 923.5415 418.4628 924.6592 415.8921 926.5593 413.3213 927.4535 411.9801 925.218 403.9326 930.8066 401.9207 931.589 392.7554 939.0777 389.067 943.5485 386.7198 945.0015 375.0956 946.6781 371.5189 946.5663 369.1717 944.4427 368.1658 945.8957 366.601 946.3428 362.8008 946.6781 359.0006 947.5723 357.1004 947.4605 356.318 946.1193 355.7592 944.6662 354.5297 945.0015 352.6296 946.6781 350.0589 946.9017 347.4881 947.5723 331.1695 954.6139 329.6047 956.8493 328.1517 958.1905 324.9103 960.0906 318.7629 962.8849 315.5216 963.5556 305.3504 963.8909 303.6738 964.338 300.0971 966.5734 298.3088 967.244 296.744 967.3558 293.5026 967.1322 291.9378 967.244 289.0318 968.1382 283.3315 970.9325 272.4897 972.4972 268.913 973.8385 266.3422 975.7386 266.2305 975.8504 263.995 974.7327 261.2008 974.5091 258.5183 975.1798 256.6182 976.7446 256.3946 978.0858 257.4006 980.433 257.0652 981.6625 256.0593 982.7802 255.5004 983.3391 244.7704 988.7041 242.8703 990.1571 238.2877 995.075 237.9524 996.3045 238.2877 997.3105 238.1759 998.0928 236.7229 998.3164 235.2699 998.4282 224.5398 1001.5578 212.5803 1006.9228 210.1213 1009.1582 206.3211 1014.5232 203.9739 1016.7586 201.7385 1017.6528 190.8967 1018.9941 188.773 1019.8882 184.6375 1020 183.7433 1019.8882 182.5139 1018.7705 182.0668 1017.2057 182.2903 1015.4174 181.955 1013.9644 179.8314 1013.4055 178.6019 1013.2937 176.2547 1012.5113 174.4663 1012.3996 174.6899 1011.6172 173.2369 1010.0524 166.5306 1004.7991 163.1774 1003.3461 161.7244 1002.4519 161.0538 1001.1107 160.8303 999.8812 160.1596 998.6517 159.2655 997.7575 142.9469 991.3866 116.4571 985.9098 90.7497 977.1916 70.2956 975.6268 47.7178 971.6031 26.0342 965.0086 23.5752 964.4497 24.2459 961.7672 25.3636 961.5437 26.8166 960.9848 28.605 960.6495 39.7821 960.7613 43.1352 961.7672 44.0294 962.6614 46.0413 965.4557 46.8237 966.0145 48.9473 965.791 52.0769 964.4497 53.8652 963.8909 53.4182 959.5318 57.7772 957.7435 63.3658 956.8493 66.7189 955.2845 72.9781 955.6198 76.5548 955.0609 78.7902 953.4961 80.355 950.4783 79.4608 949.4724 77.449 947.684 76.8901 947.1252 76.7783 945.7839 77.449 942.4308 77.5607 941.0895 76.7783 939.3012 74.6547 936.1716 74.2076 933.9362 75.2135 924.2121 80.4668 925.218 82.5904 924.8827 84.1552 922.8708 84.4905 920.0766 83.8199 917.2823 79.5726 907.2229 76.7783 896.0458 76.443 887.7747 75.8842 885.204 74.6547 883.1921 72.6428 881.5155 61.4657 878.6095 58.8949 879.6154 53.8652 882.745 50.7356 883.0803 47.0472 881.0684 46.2648 877.0447 47.8296 867.2088 37.6584 867.9912 39.1114 850.1078 38.7761 844.4075 36.876 838.7072 30.8404 827.6418 28.605 822.0532 23.7988 795.787 20.4457 786.9571 15.863 782.8216 15.416 782.2627 13.5158 779.9155 1.221 724.3652 1.4446 721.6827 2.5623 720.0062 5.4683 718.4414 6.2507 717.4354 9.3803 708.7173 8.9332 707.7113 6.9213 703.5758 4.9095 701.1168 4.2388 699.4403 4.4624 693.7399 7.0331 687.7043 25.14 656.6319 27.0402 655.4024 27.1519 655.4024 27.3755 655.2906 35.0877 652.7199 35.8701 651.6022 37.2113 643.7782 37.9937 642.1017 45.1471 633.16 46.4883 630.0304 46.7119 627.9067 45.9295 626.6772 44.9235 625.336 43.9176 623.1006 43.8058 621.3122 51.4063 572.9153 53.5299 566.5443 64.8188 542.1782 65.4894 541.1723 67.0542 539.2722 67.6131 538.1545 67.6131 537.3721 67.166 535.2484 67.2778 534.466 68.7308 533.2365 72.1957 531.1129 73.4252 529.7716 73.8723 527.9833 74.6547 516.2473 75.1018 515.0178 75.9959 514.9061 77.1136 515.6884 77.896 516.5826 78.1196 517.0297 80.6903 514.9061 87.8437 506.635 90.638 504.5113 100.0267 501.3817 103.2681 499.8169 104.8329 497.6933 104.9447 495.0108 103.9387 491.2106 101.8151 486.6279 101.4798 484.6161 102.1504 482.1571 103.2681 480.0334 104.274 479.1393 105.5035 479.1393 107.5154 480.1452 109.3037 480.257 111.4274 479.5864 118.469 475.4508 119.5867 472.9919 112.3216 428.7305 105.1682 384.3573 104.3858 381.8983 103.0446 382.569 102.9328 382.4572 102.1504 381.2277 102.5975 379.2158 103.7152 378.2099 105.3917 377.204 105.6153 375.0803 102.3739 364.015 102.2622 361.3325 101.8151 359.8794 101.0327 359.5441 99.915 359.4323 99.0208 358.6499 96.5618 351.273 96.3383 348.0317 95.3323 345.4609 91.4204 343.3373 87.5084 342.4431 83.4846 342.2196 81.2492 341.8843 80.0197 340.9901 79.0138 339.9842 77.5607 339.09 79.0138 336.8546 79.6844 334.3956 79.9079 326.4598 80.5785 325.1186 83.9317 321.6537 86.6142 316.0651 88.5143 313.1591 93.4322 310.5883 95.3323 307.5705 95.5559 304.5527 93.0969 303.2114 90.3026 302.5408 88.179 300.976 86.9495 298.5171 87.173 295.4992 88.7378 293.3756 90.8615 292.3696 92.7616 291.2519 93.544 288.5694 93.544 284.2103 92.7616 281.6396 92.5381 280.2983 93.2087 275.2686 93.0969 273.0332 90.9733 270.3507 85.2729 263.1974 79.6844 258.0559 78.902 256.3793 78.5667 253.8086 78.7902 251.2378 79.5726 248.6671 80.9139 246.3199 82.9257 244.6433 82.4787 244.1963 81.2492 243.3021 80.8021 241.8491 80.5785 240.396 79.7961 239.0548 78.4549 238.3842 77.5607 238.4959 76.6666 238.3842 75.4371 236.9311 74.3194 233.578 74.8782 230.3366 77.5607 224.9716 82.9257 218.936 83.9317 217.2594 83.4846 215.6946 79.7961 209.659 79.1255 205.747 80.5785 198.4818 80.6903 194.4581 79.6844 191.552 76.1077 186.187 75.4371 182.9457 75.4371 169.3096 73.7605 162.1562 73.8723 159.0266 75.8842 155.6735 79.0138 153.2145 80.2432 151.8733 80.6903 149.7496 80.6903 147.626 80.1315 146.8436 79.1255 146.2847 77.5607 145.3905 75.9959 144.8317 74.6547 144.8317 73.6487 144.4964 73.3134 142.5963 72.7546 141.5903 71.4133 141.255 69.7367 141.0315 68.3955 140.4726 67.166 137.9019 67.166 134.5487 67.9484 131.3074 68.9543 128.9602 70.0721 127.5072 71.3015 126.5012 72.8663 125.9424 74.8782 125.8306 76.5548 125.16 78.0078 123.5952 78.6784 122.1421 78.1196 121.4715 74.2076 121.3597 71.6369 120.9127 69.7367 119.9067 64.26 115.1006 63.0305 113.0887 62.5834 109.9591 62.1363 109.1767 60.0127 107.053 59.2303 106.1589 58.8949 104.5941 58.5596 101.2409 58.2243 99.6761 53.5299 91.2933 52.8593 88.1637 53.3064 86.5989 55.43 82.7987 56.3242 80.2279 56.7713 79.5573 57.1066 78.8867 57.1066 77.8807 56.6595 77.2101 55.9889 76.8748 55.3183 76.6513 54.9829 76.6513 54.8712 75.9806 54.4241 74.4158 54.8712 73.4099 56.5477 71.7333 57.4419 70.2803 58.0008 66.5919 60.6833 62.2328 62.3598 54.8559 63.5893 51.6145 65.6012 49.1556 68.1719 47.2554 70.2956 44.9083 71.078 41.2198 70.1838 38.202 68.5073 35.4077 67.5013 32.2781 67.9484 31.1604 67.7249 30.2662 81.2492 30.4898 81.3609 32.1663 84.7141 32.1663 99.4679 32.0546 129.9814 31.7193 167.8718 31.2722 203.0798 30.9369 237.2817 30.6015 261.6479 30.378 263.4362 29.3721 264.5539 26.5778 267.3482 25.6836 287.1317 26.3542 289.0318 27.1366 290.5966 27.6955 295.8498 29.7074 299.7618 30.4898 319.6571 30.7133 338.5464 30.8251 339.8877 28.3661 344.3585 27.6955 365.9304 29.4838 367.2716 29.7074 368.3893 30.4898 369.507 32.7252 370.2894 33.1723 371.966 33.1723 370.8483 35.2959 373.6426 34.9606 377.1075 31.0486 380.4606 30.4898 381.3548 29.3721 382.249 29.0367 383.1431 29.3721 384.0373 30.4898 401.8089 30.8251 402.9266 30.9369 403.1502 32.7252 403.8208 32.837 404.9385 32.3899 406.3915 32.6134 407.2857 33.7311 406.6151 34.9606 405.4974 36.1901 404.9385 37.3078 412.5389 44.5729 415.2215 42.8964 416.7862 39.3197 418.0157 35.4077 419.4688 32.7252 421.7042 31.9428 424.9455 31.4957 430.9812 31.7193 431.54 31.6075 432.0989 31.2722 432.546 30.9369 432.8813 30.4898 434.4461 28.7014 438.4699 26.6895 440.37 25.2365 441.2641 23.56 441.5994 19.8715 442.2701 17.6361 445.2879 13.7241 448.3057 13.7241 451.3235 16.1831 454.1178 19.5362 461.9418 13.7241 463.9537 11.824 465.1832 9.4768 464.8479 8.0238 464.1772 6.5707 464.6243 4 485.8608 8.3591Z" />
</svg>