<?xml version="1.0" encoding="utf-8"?>
<svg xmlns="http://www.w3.org/2000/svg" viewBox="0 0 1021 771" style="stroke-width:0.25px;stroke-linejoin:round;stroke:#444;fill:#ddd" fill-rule="evenodd">
  <path class="GN" d="M244.7729 510.7955L243.2081 509.7895 241.9787 508.6718 241.4198 507.107 241.8669 504.9834 242.2022 504.8716 244.3259 504.9834 244.7729 504.7598 244.7729 504.3128 244.6612 503.6421 244.7729 503.195 248.4614 499.2831 251.0321 495.0358 252.7087 493.0239 255.0559 491.6826 257.5149 491.5708 261.8739 492.465 264.4447 491.6826 264.4447 490.7884 256.0618 491.1238 252.1498 490.6767 250.4733 489.2237 250.6968 488.7766 251.9263 487.6589 252.3734 486.8765 252.3734 485.0881 253.3793 482.2938 254.0499 479.3878 251.0321 482.5174 249.8026 485.9823 248.9085 489.559 247.5672 493.5827 244.2141 492.1297 242.7611 491.2355 241.8669 489.7825 243.0964 489.1119 243.3199 487.7706 242.8728 484.1939 243.0964 484.1939 243.3199 483.5233 243.6552 482.5174 243.767 481.8468 243.5435 481.2879 242.2022 480.5055 241.8669 480.282 241.4198 477.4877 241.4198 473.3521 242.314 470.7814 244.7729 472.6815 244.3259 469.6637 244.4376 468.3224 244.7729 466.9812 243.767 466.9812 242.9846 467.9871 241.8669 468.546 240.4139 468.8813 238.6255 468.8813 237.6196 469.5519 236.949 471.005 235.6077 477.3759 234.7135 478.7172 231.5839 477.1524 230.1309 476.7053 229.5721 475.8111 230.6898 473.6875 229.2367 472.458 227.8955 470.3343 227.0013 467.6518 226.7778 465.0811 227.7837 462.3986 230.8015 458.4866 231.6957 455.5805 230.6898 455.5805 227.3366 458.1513 222.1952 458.4866 217.6125 457.0336 215.6007 454.1275 214.7065 449.992 214.7065 447.7565 216.1595 445.6329 217.389 444.0681 218.3949 442.2798 219.0656 440.1561 219.2891 437.5854 218.3949 437.5854 215.3771 443.7328 213.477 446.3035 211.018 447.0859 209.1179 445.8564 207.2178 443.3975 205.7648 440.2679 205.4295 437.5854 201.1822 439.2619 197.9408 441.2738 193.1347 443.9563 189.3344 445.074 189.1109 445.4094 188.105 446.08 187.099 446.3035 186.5402 445.6329 186.7637 444.4034 187.5461 444.0681 188.4403 443.8446 189.3344 443.2857 193.8053 436.9147 196.5996 433.6734 198.2761 429.9849 200.288 426.6318 200.6233 424.5081 200.5116 416.5724 200.6233 415.5664 201.2939 414.8958 203.1941 414.1134 203.5294 413.2193 204.4235 411.6545 206.4354 410.7603 208.4473 409.419 209.1179 407.0718 206.3237 408.6366 204.6471 409.0837 203.1941 408.1895 197.2702 401.0362 196.8231 399.4714 196.2642 399.6949 195.8172 399.8067 194.923 400.3656 196.4878 404.7246 196.9349 408.6366 195.3701 411.7662 191.2345 413.7781 186.2048 413.2193 183.6341 409.9779 183.2988 405.507 184.64 401.3715 190.3404 394.2182 192.5758 389.6355 192.1287 385.0529 190.8992 384.047 190.4521 385.9471 190.2286 388.6296 189.8933 389.9708 188.3285 390.865 185.646 394.777 183.7459 395.6712 183.8576 396.23 183.2988 396.6771 178.4926 398.4655 177.9338 398.4655 175.1395 398.2419 172.5688 397.7948 170.5569 397.0124 169.6627 396.0065 168.8803 394.4417 166.9802 392.0945 164.633 389.8591 162.6211 388.8531 158.9327 386.5059 158.1503 385.5 156.4737 382.2586 155.2442 381.6998 153.0088 381.588 151.8911 381.2527 150.7734 380.3585 148.0909 377.4525 146.079 376.6701 144.626 376.4465 143.1729 375.8877 141.0493 374.0993 140.6022 370.6344 142.7259 366.6107 146.1908 364.487 149.8792 367.0578 148.8733 365.3812 146.9732 363.034 145.1848 361.4692 144.4024 361.8045 143.2847 363.5928 141.2728 362.8105 139.708 361.2457 140.0433 360.3515 143.0612 359.122 145.2966 356.216 148.985 349.845 147.0849 350.8509 145.6319 352.0804 142.9494 355.0982 141.3846 355.9924 137.6961 357.7807 136.802 358.4514 136.5784 360.1279 136.802 366.4989 136.3549 368.0637 135.2372 369.5167 133.4488 370.5227 131.2134 370.858 128.0838 369.852 125.6249 367.8402 124.3954 365.0459 124.5072 362.2516 126.7426 360.0162 130.0957 357.5572 132.1076 354.9865 130.2075 352.751 129.6486 354.7629 128.0838 355.8806 125.9602 356.4395 123.7248 356.5513 124.0601 359.5691 121.6011 361.9163 118.5833 362.9222 117.0185 361.8045 116.5714 360.7986 115.6772 359.6809 114.6713 358.1161 114.2242 355.9924 114.6713 354.9865 115.5655 354.2041 116.1243 353.3099 115.6772 352.304 114.8948 351.9686 114.1124 352.1922 113.5536 352.6393 113.33 353.1981 111.9888 355.4336 108.971 353.757 100.8117 346.1565 99.3586 345.4859 97.4585 345.0388 95.3349 345.1506 93.4348 345.7095 91.6464 345.933 89.8581 345.0388 87.0638 347.8331 85.6108 346.2683 85.1637 342.9152 85.1637 339.7856 86.2814 335.3147 86.1696 333.5264 85.6108 331.7381 84.8284 330.8439 83.9342 330.285 75.4396 321.4551 73.9866 318.4373 73.5395 315.5312 73.6513 311.9546 74.3219 308.7132 75.6631 307.0366 75.7749 306.9249 75.6631 306.9249 73.5395 307.1484 71.9747 308.1543 70.7452 309.4956 69.1804 310.7251 67.3921 311.3957 65.0449 311.731 62.9212 311.3957 61.6917 309.7191 60.7976 309.7191 59.7916 311.5075 58.8975 310.9486 58.2268 308.825 58.0033 306.4778 58.1151 304.0188 58.4504 302.1187 59.9034 298.3185 61.4682 298.7656 63.2565 297.3125 65.2684 295.0771 67.3921 293.6241 64.0389 293.5123 62.9212 291.724 63.1448 289.1532 64.7096 281.441 65.8273 279.4292 67.3921 280.3233 68.1745 280.3233 68.398 278.1997 69.5157 277.082 70.6334 276.5231 71.1923 275.8525 72.9806 269.5933 76.222 262.9988 78.1221 262.2164 79.2398 260.3163 79.3516 258.0809 78.681 256.1807 79.1281 255.6219 80.4693 253.4982 77.7868 254.2806 77.4515 255.3983 77.8986 256.9631 77.5633 259.1986 72.9806 262.4399 72.4218 262.9988 70.5217 264.5636 68.1745 268.0285 66.2744 271.7169 64.7096 276.2996 62.8095 279.3174 58.8975 284.0118 55.0972 287.3649 53.1971 288.1473 52.4147 286.4707 52.6383 284.2353 53.4207 282.6705 54.6502 281.7763 56.1032 281.1057 55.0972 280.8822 54.3149 280.9939 53.4207 281.3293 52.4147 282.1117 50.5146 280.3233 52.1912 274.7348 53.3089 272.3876 54.7619 270.1521 55.5443 269.3697 57.5562 268.0285 58.4504 267.2461 59.2328 266.1284 59.5681 265.2342 59.7916 264.8989 59.121 264.5636 58.0033 263.893 56.215 266.2402 49.9558 271.1581 48.391 273.5053 46.8262 278.6468 44.9261 280.3233 43.5848 277.529 41.7965 275.8525 40.4552 273.9524 40.1199 270.711 42.02 270.711 43.5848 269.4815 44.8143 267.5814 45.7085 265.7931 46.3791 264.0047 46.8262 261.8811 46.938 260.0927 46.7144 259.1986 47.1615 258.3044 47.385 257.7455 47.6086 256.1807 45.0378 258.0809 44.2554 259.1986 43.9201 260.5398 43.2495 261.0987 39.2257 262.9988 38.2198 262.9988 38.108 261.434 38.2198 259.8692 38.5551 258.5279 39.2257 257.2985 38.4433 255.9572 38.3316 254.7277 38.8904 253.61 40.1199 252.4923 37.5492 252.2688 36.7668 250.5922 37.1021 248.4685 38.2198 246.792 40.0081 245.6743 42.3553 244.7801 44.9261 244.1095 47.1615 243.8859 48.8381 242.9917 49.7322 241.0916 50.2911 239.0798 50.9617 238.1856 53.1971 237.6267 55.7679 234.4971 58.0033 233.3794 56.9974 232.597 56.215 231.7029 55.209 229.4674 54.9855 230.8087 54.5384 232.0382 53.8678 232.9323 52.8618 233.3794 52.0794 233.4912 49.9558 234.3854 49.5087 234.7207 48.9498 237.515 47.4968 239.8622 45.3732 240.9799 42.9142 239.9739 42.2436 240.6446 41.5729 240.9799 40.6788 241.0916 39.2257 241.0916 40.1199 238.4091 39.2257 236.7326 37.9963 236.2855 37.3256 237.7385 33.5254 242.88 29.2781 242.0976 26.4838 234.1618 23.2425 234.2736 25.5897 236.7326 25.925 239.3033 25.1426 241.7623 24.2484 243.8859 21.3424 241.7623 19.7776 241.0916 17.5421 241.0916 22.1248 244.5565 23.8013 246.3449 24.2484 248.6921 22.9072 251.2628 20.3364 253.8336 17.7657 255.6219 16.648 255.7337 16.4244 255.3983 15.7538 255.2866 15.0832 255.3983 14.7479 255.7337 14.9714 256.6278 15.642 257.9691 15.7538 258.6397 15.7538 263.4459 16.3127 264.2283 17.5421 264.8989 18.8834 265.6813 19.4422 267.2461 19.2187 267.9167 17.5421 270.711 15.0832 269.4815 10.1652 268.6991 7.7063 267.2461 4.8002 264.2283 2.5648 261.0987 1.2235 258.0809 1 255.2866 1.8942 252.7158 4.0178 250.0333 5.0238 249.5862 7.7063 248.6921 8.2651 248.245 8.3769 247.1273 8.824 246.2331 9.3828 245.3389 10.0535 244.7801 10.0535 243.8859 9.3828 243.9977 9.2711 243.7741 9.2711 243.3271 9.1593 242.88 13.0713 238.8562 17.6539 233.3794 30.8429 207.7838 33.5254 196.8303 35.5373 191.577 49.1734 171.57 51.6323 168.8875 54.9855 166.9873 60.6858 166.4285 71.9747 167.7697 77.675 166.7638 89.8581 160.0575 102.6 153.016 104.2766 151.6747 105.1707 150.2217 106.8473 146.8685 107.8532 145.7508 109.3063 144.8567 110.0887 144.9684 110.8711 145.4155 122.2717 146.1979 125.5131 145.7508 126.8543 145.9744 128.0838 146.8685 129.2015 147.8745 130.5428 148.6569 132.7782 149.2157 134.6783 149.104 138.8139 148.4333 140.9375 148.4333 146.9732 149.3275 149.5439 148.4333 155.4678 144.7449 156.4737 143.9625 159.4915 145.4155 162.174 145.4155 164.633 143.9625 166.3096 141.28 166.7567 139.9387 166.9802 136.8091 166.4213 135.2443 166.8684 134.4619 168.8803 134.4619 170.1098 135.3561 170.5569 138.1504 171.6746 138.821 173.6865 139.3799 173.7982 140.274 173.4629 141.3917 174.2453 142.3977 177.0396 142.733 180.5045 142.1741 183.8576 140.8329 185.9813 139.1563 186.7637 137.368 187.4343 131.3323 187.4343 128.7616 185.4224 112.3312 185.8695 106.5191 186.9872 100.8188 186.8755 98.1363 185.3107 95.9009 184.0812 95.2303 179.1633 94.4479 176.9278 93.4419 175.363 92.3242 172.3452 89.0828 171.5628 87.6298 171.2275 86.6239 170.5569 85.7297 166.8684 84.5002 165.5272 83.4943 162.8447 80.9235 160.1622 79.247 157.4796 78.3528 153.7912 77.9057 152.7853 77.3469 153.3441 75.7821 153.3441 72.7642 153.6794 71.3112 156.6972 67.9581 165.0801 64.0461 168.3215 61.3636 170.8922 59.7988 174.6924 58.7928 177.0396 59.5752 175.2513 62.7048 184.5283 62.5931 188.552 61.14 190.7875 57.5634 191.3463 53.8749 192.464 51.0806 192.5758 49.5158 192.1287 45.4921 192.2405 43.592 192.5758 42.4743 195.0348 36.6622 195.4818 34.315 195.1465 31.856 193.5817 29.0617 186.6519 20.3436 185.4224 16.5433 185.0871 13.4138 186.2048 4.1367 230.578 5.8133 236.7254 7.4899 237.1725 7.6017 237.7314 7.8252 238.9608 8.7194 239.6315 8.9429 240.4139 8.9429 240.7492 8.6076 241.0845 8.1605 241.7551 7.937 245.8906 7.0428 247.1201 6.931 248.2378 7.2663 249.9144 8.384 251.1439 8.6076 252.2616 8.384 254.6088 7.7134 255.6147 7.7134 256.3971 8.0487 257.7384 9.5018 258.2972 9.7253 258.8561 9.7253 260.6444 9.1664 261.8739 9.1664 262.7681 9.0547 263.6623 9.0547 264.78 9.8371 266.1212 8.2723 268.5802 9.6135 271.0392 9.5018 273.3864 9.0547 275.51 9.39 277.2983 11.2901 277.8572 13.9726 277.7454 16.7669 277.1866 19.2259 275.1747 24.032 274.6158 26.2674 275.2865 29.0617 276.8513 31.2971 278.8631 32.4149 281.2103 32.6384 283.8928 32.3031 286.3518 33.309 288.5872 33.0855 290.152 31.7442 290.5991 29.0617 292.9463 23.4732 297.8642 23.3614 303.2293 26.1557 306.6942 29.1735 306.5824 29.7323 306.3589 30.7383 306.6942 31.856 308.1472 33.1972 309.3767 33.7561 313.5122 33.9796 315.6359 35.0974 316.1947 36.4386 317.0889 37.5563 319.8832 38.0034 328.7131 37.4446 331.5074 37.7799 334.1899 38.8976 336.4253 40.6859 340.3373 45.045 341.0079 46.3862 341.1197 47.3922 341.6785 47.951 343.5787 47.951 343.8022 47.951 344.8081 47.6157 348.8319 45.3803 351.5144 44.3744 353.7498 43.9273 356.097 44.0391 359.0031 44.7097 364.927 46.8333 367.3859 48.6217 371.2979 54.6573 373.5333 55.775 396.67 49.7394 401.6997 46.8333 406.2823 42.6978 408.7413 41.4683 412.0944 41.3565 420.3655 44.1508 423.2715 44.3744 425.0598 44.0391 430.3131 41.2448 431.8779 40.1271 432.4367 39.9035 433.3309 39.9035 433.6662 40.0153 433.778 40.2388 442.1608 43.8155 444.9551 44.3744 456.1322 44.8215 461.2737 44.0391 471.892 40.0153 477.4805 39.0094 489.3283 38.1152 493.9109 38.5623 502.9644 41.8036 506.7646 42.0272 506.6528 44.7097 504.0821 45.045 500.8407 44.9332 498.7171 46.0509 498.0464 49.1805 498.9406 54.7691 499.0524 58.0105 496.4816 63.599 492.5696 67.6228 490.3342 71.7583 492.905 77.3469 495.4757 79.6941 503.8585 83.4943 506.3175 85.3944 511.7943 92.8831 514.0297 94.8949 516.7122 96.6833 519.5065 98.1363 522.3008 99.1422 524.8715 99.1422 529.3424 97.2421 531.5778 97.1304 533.7014 96.5715 535.7133 94.4479 537.2781 91.7653 538.0605 87.7416 538.9547 87.2945 540.1842 87.1827 541.3019 86.6239 543.202 83.4943 543.8726 82.8237 543.9844 82.6001 548.3435 79.4705 549.9083 77.6822 551.6966 71.6465 552.7025 70.1935 554.6026 69.8582 557.844 69.97 563.7679 67.9581 566.4504 67.8463 569.8035 68.7405 572.2625 70.5288 577.7393 79.1352 580.9806 81.5942 584.222 83.0472 586.681 85.1708 587.4634 89.0828 587.1281 90.3123 585.7868 92.7713 585.5633 93.889 586.2339 95.342 589.9223 99.1422 595.5109 109.7605 599.4229 113.896 605.1232 113.6725 607.1351 112.6666 608.4763 111.4371 610.0411 108.9781 611.2706 106.4074 611.7177 104.5073 612.8354 103.0542 615.2944 101.3777 618.0887 99.9246 620.2123 99.254 619.3182 96.1244 620.7712 94.4479 623.5655 93.1066 626.3597 91.2065 626.3597 90.2006 626.0244 88.6358 626.0244 87.2945 627.3657 86.7356 627.8128 86.1768 626.695 83.3825 626.8068 82.0413 629.2658 81.1471 635.8603 81.7059 637.2015 79.5823 638.0957 78.4646 642.7901 74.5526 644.6902 73.3231 645.5844 74.1055 646.4785 74.5526 648.4904 75.2232 648.3787 73.2113 649.1611 72.6525 650.3905 72.5407 651.7318 71.8701 652.2906 70.6406 652.5142 70.3053 653.5201 70.9759 653.9672 71.7583 654.3025 71.7583 655.0849 70.1935 660.3382 68.0699 661.4559 68.6287 662.1265 69.5229 662.9089 70.4171 667.4915 71.3112 672.2977 73.6584 674.9802 74.1055 678.3333 73.9937 679.2275 74.1055 680.5688 74.7761 682.4689 76.3409 683.5866 77.0116 684.4807 77.3469 684.9278 77.4586 687.275 77.5704 688.6163 77.9057 690.2928 78.7999 693.0871 80.9235 694.7637 81.8177 697.3344 82.6001 702.1406 85.1708 704.9349 85.6179 707.3938 86.2886 712.0882 90.0888 714.5472 91.3183 715.8884 91.3183 718.6827 90.8712 719.6887 90.8712 721.1417 91.43 723.3771 93.2184 724.7184 94.0008 727.1773 94.7832 734.7778 95.0067 738.1309 91.43 739.8075 88.9711 740.4781 87.2945 740.2546 84.3884 740.3663 81.9295 741.3723 79.8058 743.4959 77.5704 747.855 74.7761 763.2794 69.5229 765.9619 67.0639 768.1974 65.4991 773.7859 62.9284 776.1331 62.5931 784.516 64.0461 787.7573 60.8047 788.4279 58.9046 787.9809 55.6633 789.7692 55.1044 790.9987 52.869 791.5575 50.1865 791.5575 48.3981 790.7751 47.7275 788.4279 47.2804 787.422 46.6098 786.7514 45.2685 786.6396 44.0391 786.3043 43.0331 782.5041 40.9095 780.0451 38.5623 778.0332 36.2151 777.3626 34.762 779.3745 32.1913 785.7454 30.6265 788.0926 29.0617 788.9868 28.8382 789.7692 28.9499 791.6693 30.0677 793.5694 30.7383 794.5754 30.1794 795.6931 29.2853 797.4814 29.1735 807.8761 31.4089 813.6882 33.309 830.0068 41.8036 834.7012 44.2626 837.1602 46.9451 838.725 50.0747 838.9485 53.0925 837.719 56.2221 835.8189 59.0164 834.3659 62.0342 834.1424 65.7227 834.5894 67.0639 835.9307 69.2993 836.3778 70.7524 837.3837 72.3172 839.0603 72.2054 841.7428 71.0877 843.8664 72.3172 845.6548 74.7761 846.7725 77.9057 846.549 81.0353 844.5371 86.5121 843.9782 89.5299 844.5371 92.2124 846.996 94.3361 850.0139 94.4479 853.1435 94.1125 856.0495 94.6714 858.5085 96.795 859.1791 99.1422 858.9556 101.8248 859.1791 104.8426 859.8497 106.2956 860.8557 107.6369 861.5263 109.0899 861.6381 110.7664 854.82 146.4215 857.3908 146.3097 859.6262 147.3156 861.8616 148.6569 864.3206 149.551 867.2266 149.104 869.462 148.098 871.3622 147.6509 873.1505 148.9922 876.1683 159.0516 876.7272 161.5106 877.8449 164.3048 879.2979 166.9873 880.8627 168.9992 888.3514 172.4641 892.0398 172.6877 895.5047 169.8934 896.2871 171.6817 896.9578 174.5878 897.5166 177.1585 898.5226 179.2822 900.1991 179.841 903.9993 179.9528 912.2704 182.5235 916.4059 184.4237 919.4238 186.9944 916.9648 187.665 914.0587 189.0063 912.4939 190.7946 913.6117 192.9183 916.0706 193.3653 918.6414 192.9183 919.9826 193.5889 919.2002 197.1656 917.6354 199.0657 915.0647 199.9598 912.3822 200.0716 909.9232 199.7363 904.67 198.6186 903.3287 199.5128 901.8757 202.6424 901.9875 203.2012 902.4345 203.8718 902.7699 204.766 902.5463 205.7719 901.9875 206.1073 900.6462 206.219 900.1991 206.3308 899.0814 207.1132 896.1754 208.3427 895.2812 208.9015 893.6046 211.3605 892.8222 216.2784 891.5927 218.5139 890.475 219.1845 887.6807 219.1845 886.563 219.6316 885.2218 221.3081 885.2218 222.6494 885.5571 223.9906 885.4453 225.5554 883.9923 228.3497 877.7331 234.8325 876.5036 236.6208 875.3859 238.8562 874.8271 241.3152 875.4977 243.5506 877.5096 245.0036 879.745 244.333 882.0922 243.1035 884.7747 242.88 887.1219 243.2153 889.5809 243.2153 891.9281 242.9917 894.1635 242.3211 896.6224 240.6446 897.9637 238.5209 901.5404 231.0322 903.8876 231.0322 906.5701 231.9264 909.3644 231.8146 910.8174 231.3675 912.0469 231.5911 914.6176 232.4853 915.9589 232.2617 918.6414 230.8087 920.2062 230.8087 923.224 232.3735 926.13 235.056 928.2537 238.1856 929.0361 241.427 929.2596 255.8454 928.9243 258.4162 928.1419 259.6457 927.136 260.7634 924.2299 268.4756 924.0064 271.3816 927.5831 272.8347 928.2537 275.2936 930.3773 302.7893 931.8304 306.4778 936.0777 312.2899 939.4308 318.6608 942.0015 320.0021 944.9076 320.1139 948.0372 319.4432 950.1608 318.5491 951.3903 317.8784 952.2845 318.2138 953.6257 320.3374 954.0728 322.014 954.2964 325.7024 954.967 327.4908 957.6495 329.3909 961.2262 330.0615 968.7149 330.3968 971.2856 331.9616 973.2975 334.9794 974.7505 338.4443 975.6447 341.5739 975.98 345.1506 975.1976 348.392 972.1798 355.0982 970.8385 356.663 969.8326 358.4514 969.1619 360.2397 968.7149 362.2516 966.0323 365.7165 962.9028 367.5048 955.9729 370.0756 953.4022 372.5345 950.6079 376.223 949.1549 379.6879 950.3844 381.2527 952.1727 381.9233 951.6139 383.2646 949.9373 384.6058 947.0312 385.7235 946.9195 386.953 947.3666 388.4061 947.8136 389.5238 948.2607 389.7473 949.0431 389.8591 949.8255 390.0826 950.3844 390.7532 950.6079 393.2122 950.8315 393.9946 950.6079 394.3299 949.9373 394.4417 949.602 395.0006 950.1608 396.23 950.7197 396.4536 953.2904 396.23 953.8493 399.2479 948.8196 435.3499 948.7078 436.5794 948.7078 439.709 949.2667 442.8386 949.9373 445.2976 950.9432 447.533 958.879 458.9337 961.2262 461.3926 963.4616 462.5103 966.3677 463.181 969.4972 463.2927 971.9562 463.0692 974.7505 461.9515 980.0037 459.0454 982.9098 458.3748 988.4983 458.4866 989.2807 459.6043 985.5923 470.6696 985.257 473.911 980.3391 485.9823 980.4508 491.012 987.3806 493.8063 989.169 493.471 990.5102 492.9121 991.6279 493.1356 993.5281 496.7123 994.9811 498.1653 998.1107 500.6243 1003.811 503.7539 1005.4876 505.8776 1005.264 506.1011 1003.1404 507.6659 999.899 508.2248 997.1047 508.2248 994.534 508.4483 982.2392 514.8193 980.1155 516.9429 980.1155 517.0547 978.7743 520.4078 978.1036 523.6492 977.5448 530.4672 975.0858 542.4267 976.4271 546.7858 982.6862 548.6859 985.7041 549.0212 993.9751 551.4802 994.534 551.3684 995.987 550.6978 996.7694 550.6978 997.6636 551.2567 998.7813 553.045 999.4519 553.8274 1002.0227 556.0628 1003.0286 557.2923 1006.27 563.2162 1007.4994 564.781 1011.4114 567.3517 1012.3056 568.4694 1013.088 571.1519 1012.7527 576.4052 1013.088 579.3112 1014.7646 585.1233 1014.7646 587.4705 1013.7586 590.9354 1013.3116 594.2886 1014.2057 597.3064 1017 603.1185 1009.0642 604.0127 1005.264 603.4538 1002.1344 601.5537 997.8871 592.8355 994.9811 588.9235 991.9633 589.3706 991.4044 591.4943 991.8515 593.7297 991.5162 595.7416 989.2807 596.7475 986.9336 596.6358 984.6981 595.9651 982.798 594.9592 981.2332 593.6179 980.2273 591.7178 979.4449 589.8177 978.5507 587.9176 976.7624 586.5763 974.8623 586.241 972.7386 586.4646 968.7149 587.5823 967.3736 587.3587 965.0264 587.5823 963.9087 587.4705 963.0145 587.0234 961.4497 585.7939 960.332 585.3469 957.5377 585.5704 952.9551 587.3587 950.1608 587.6941 945.2429 586.6881 943.3428 586.9117 936.7483 592.2767 935.9659 593.1708 935.9659 594.8474 936.7483 596.4122 937.6425 597.8652 938.4249 599.6536 938.5366 602.4479 936.8601 610.3836 936.8601 612.9543 937.1954 615.5251 936.8601 617.2017 934.6246 619.5488 934.4011 621.0019 945.8018 628.4905 959.1025 632.6261 960.4438 632.4025 968.7149 629.6083 970.3914 629.4965 970.5032 630.8377 969.7208 632.8496 968.7149 634.5262 967.8207 638.7735 967.9325 640.7854 968.7149 642.7972 971.1738 644.362 973.521 646.821 975.1976 649.8388 975.5329 651.2919 975.98 652.8567 973.521 652.7449 971.8444 651.6272 970.5032 650.5095 969.1619 650.0624 963.4616 651.0683 961.338 650.9565 961.5615 652.186 961.338 655.4274 959.9967 660.9042 953.1787 671.2989 952.8433 676.7757 953.8493 678.2287 956.9789 680.9112 957.6495 682.3642 957.3142 683.8173 956.5318 684.5997 955.6376 685.0468 955.0788 685.8292 954.5199 688.0646 954.0728 692.6472 953.4022 694.6591 948.9314 699.8006 948.9314 700.3594 949.2667 701.7007 949.1549 702.2595 948.596 702.8184 947.0312 703.7125 946.4724 704.2714 943.6781 707.7363 943.1193 709.3011 943.0075 710.307 943.4546 712.6542 943.3428 713.5484 939.4308 718.0193 934.5129 715.7838 929.2596 711.7601 924.677 710.6424 919.8708 712.0954 917.3001 712.3189 914.0587 708.5187 910.5938 710.307 904.3347 716.1191 900.1991 713.4366 895.84 710.1953 893.2693 707.0657 892.3751 703.2655 893.1575 698.124 876.7272 697.2298 875.7212 700.0241 872.1446 704.3832 871.1386 707.2892 870.8033 711.9836 870.5798 712.8778 869.7974 714.219 869.5738 715.0014 869.6856 715.8956 870.2444 716.1191 870.9151 716.3427 871.2504 716.9015 871.3622 720.1429 870.9151 722.9372 869.5738 725.3961 867.2266 727.9669 863.4264 730.2023 862.5322 730.8729 862.0851 732.2142 861.8616 735.0085 861.3028 736.238 860.185 737.3557 857.9496 737.9145 856.7201 738.8087 854.1494 741.8265 852.9199 743.7266 852.2493 745.2914 852.5846 747.6386 853.5905 750.0976 854.2612 752.6683 853.367 755.4626 851.8022 756.3568 845.8783 758.5922 844.09 758.8157 841.5193 754.6802 839.7309 753.5625 838.9485 756.8039 837.4955 756.245 836.9366 756.3568 836.4895 758.5922 835.8189 758.5922 832.8011 759.5981 831.6834 760.157 829.3362 759.9334 827.4361 761.0512 825.7595 762.616 823.8594 763.9572 822.0711 764.5161 820.0592 764.8514 819.2768 765.1867 818.2708 765.522 816.7061 766.8633 817.9355 762.1689 817.4884 760.2688 814.8059 758.9275 813.6882 758.0333 813.6882 755.6861 812.9058 755.1273 809.7762 755.2391 808.9938 755.1273 805.6407 751.9977 803.7406 743.2795 801.7287 740.4853 799.6051 740.2617 795.0224 741.4912 792.787 741.1559 792.0046 740.2617 791.1105 737.4674 790.1045 736.238 788.9868 735.5673 787.9809 735.232 785.969 735.0085 783.7336 735.0085 782.5041 735.232 781.9452 735.7909 781.6099 737.2439 780.9393 737.691 780.1569 737.9145 778.0332 740.9323 776.4684 739.5911 773.8977 735.0085 772.3329 737.2439 768.3091 741.1559 767.1914 741.7147 767.1914 741.603 766.6326 741.2677 768.1974 739.9264 768.9798 738.5851 769.3151 736.9086 769.4268 735.0085 769.9857 733.3319 771.327 731.9906 774.1212 729.867 777.2508 725.1726 778.3685 722.2666 777.9215 720.3664 780.2686 717.4604 781.2746 715.8956 781.9452 712.2072 782.7276 710.0835 783.9571 708.2952 785.4101 707.1774 782.5041 703.8243 782.2805 699.1299 783.6218 694.212 785.1866 690.6353 781.7217 686.1645 780.4922 683.8173 776.9155 679.2347 773.7859 673.5343 772.4447 667.7222 772.78 661.9101 774.5683 655.8745 774.6801 655.4274 775.686 654.1979 776.0213 652.8567 775.7978 651.4036 775.0154 649.9506 773.4506 648.0505 771.9976 647.827 770.5446 648.9447 768.868 651.0683 769.0915 649.3917 770.5446 646.9328 770.8799 645.4798 768.4209 635.4204 768.4209 633.8556 767.862 632.179 766.5208 631.5084 763.2794 630.8377 761.2675 629.3847 761.044 625.5845 761.9382 621.6725 763.2794 619.5488 763.8383 618.8782 764.0618 618.2076 763.9501 617.6487 763.2794 617.0899 762.497 615.6369 761.9382 614.0721 761.2675 612.619 759.9263 611.5013 761.4911 609.9365 762.2735 609.2659 763.2794 608.707 763.8383 608.4835 765.5149 607.4776 764.7325 607.1422 763.8383 606.0245 761.3793 604.348 754.5613 601.4419 752.7729 598.9829 751.6552 598.2006 750.6493 599.2065 749.9787 600.2124 748.9727 600.6595 747.855 600.7713 746.7373 600.6595 744.3901 600.7713 742.2664 601.2184 741.037 600.7713 741.2605 598.3123 742.6018 596.524 744.3901 595.2945 745.5078 593.6179 744.7254 590.7119 742.9371 588.9235 740.2546 587.5823 737.5721 587.5823 735.8955 589.4824 735.5602 592.3884 735.4484 594.4003 735.0013 594.7356 733.1012 592.612 731.6482 590.2648 730.9776 587.8058 730.0834 581.3231 729.301 578.8641 727.848 577.0758 725.6125 576.7405 725.6125 578.4171 724.9419 579.6465 724.0477 580.6525 723.0418 581.882 723.0418 582.9997 723.4889 584.0056 723.3771 584.8998 719.9122 585.9057 717.4532 587.247 716.2238 587.5823 715.5531 586.6881 714.9943 586.0175 714.3237 585.7939 712.4235 586.241 711.6411 586.3528 709.0704 586.3528 706.7232 586.6881 704.4878 587.4705 702.2524 588.5882 696.8873 592.8355 691.4106 596.0769 688.3927 596.6358 686.6044 595.9651 686.0455 594.065 687.3868 587.5823 686.4926 585.5704 684.369 584.4527 676.6568 582.4408 674.3096 582.4408 671.9624 583.1114 667.3798 587.6941 665.0326 589.0353 664.0266 586.6881 661.1206 587.8058 659.7793 588.0294 658.2145 587.9176 656.6497 588.1411 655.532 587.8058 654.4143 587.1352 650.6141 586.0175 649.7199 585.9057 645.5844 586.5763 643.4607 587.3587 641.7842 588.4765 640.2194 589.9295 638.8781 591.8296 635.525 598.6476 633.8484 600.7713 625.8009 608.707 620.9947 611.8366 618.424 612.8426 616.971 612.5073 613.059 610.0483 611.0471 609.1541 606.4645 608.9306 602.6642 610.1601 599.9817 613.0661 598.9758 617.6487 596.1815 615.3015 597.6345 610.7189 600.7641 606.0245 603.2231 603.1185 605.235 599.7653 607.2469 587.8058 608.6999 587.5823 609.0352 586.5763 609.0352 584.8998 609.3705 582.9997 610.3765 581.3231 612.5001 579.3112 614.6238 575.2875 616.8592 572.3814 619.4299 570.146 622.2242 569.5871 625.3538 569.3636 627.9245 567.5752 629.8246 564.8927 630.9424 561.8749 625.0185 554.0509 624.2361 552.7097 622.2242 551.1449 616.6356 543.6562 616.1886 543.3209 615.1826 542.6503 614.7355 542.0914 614.7355 541.6443 614.8473 540.1913 614.8473 539.5207 613.5061 535.6087 613.2825 534.2674 613.059 524.0963 613.7296 519.2901 615.8532 511.1308 615.7415 510.6837 615.6297 509.9013 615.5179 509.0072 613.8414 507.6659 610.7118 506.7717 605.235 506.2129 599.5347 506.4364 594.6167 504.8716 593.7226 499.8419 595.1756 493.918 597.6345 489.559 598.9758 488.553 600.5406 487.8824 601.9936 486.9882 602.9996 485.4234 603.2231 484.0822 602.6642 481.735 602.6642 480.5055 603.2231 478.8289 604.1173 477.2641 604.5644 475.6993 604.4526 474.0228 598.5287 468.8813 597.1875 468.2107 595.2873 466.9812 593.7226 465.5282 592.046 463.0692 590.8165 462.7339 589.3635 462.7339 588.0222 462.6221 587.1281 462.7339 584.6691 462.6221 582.9925 462.0633 584.3338 460.9455 585.7868 459.8278 585.4515 459.0454 583.3278 457.7042 581.316 455.4688 579.7512 453.3451 579.1923 450.8861 579.9747 447.4212 580.0865 445.4094 579.0805 444.5152 577.6275 443.8446 576.6216 442.6151 575.9509 438.8149 575.5039 437.5854 574.1626 436.2441 570.6977 433.7851 569.6917 432.4439 568.6858 428.7554 568.127 427.7495 567.2328 426.9671 564.9974 426.1847 564.215 425.7376 563.4326 424.3964 561.756 419.702 558.5146 413.4428 553.8202 407.2954 548.1199 401.8186 537.9487 395.3359 536.9428 393.6593 535.0427 384.4941 534.1485 381.4762 532.5837 380.135 530.6836 379.9114 526.101 378.5702 522.5243 378.2349 493.4638 378.3466 435.231 378.682 434.5604 387.1766 433.6662 388.4061 407.9589 394.1064 403.5998 395.0006 401.2526 394.8888 399.0172 394.4417 396.4464 393.4358 393.2051 391.4239 390.6343 389.1884 388.1754 387.6237 385.0458 387.5119 364.4799 391.871 358.2207 394.1064 353.3028 397.0124 352.5204 398.3537 352.4086 399.1361 352.6321 400.142 352.6321 401.595 350.732 411.878 350.8438 412.3251 351.2909 413.8899 351.4026 414.5605 350.9556 414.8958 350.2849 414.784 349.6143 414.784 349.279 415.4547 349.3908 417.1312 349.1672 417.6901 348.7201 417.8019 344.4728 420.3726 343.2433 421.7139 341.0079 425.6259 340.5608 426.0729 340.4491 431.9968 339.8902 433.1145 338.7725 433.2263 337.4312 433.1145 336.09 433.5616 335.5311 434.6793 334.3017 439.2619 333.9663 439.9326 333.631 440.2679 333.1839 440.4914 332.4015 440.715 331.3956 441.2738 331.2838 441.8327 331.5074 442.5033 331.5074 443.1739 326.813 458.263 326.2541 459.0454 325.2482 459.8278 324.8011 460.3867 324.4658 461.2809 323.9069 462.0633 323.2363 461.9515 322.5657 461.5044 322.0068 461.3926 319.6596 462.7339 318.8772 463.4045 317.7595 464.8575 317.8713 465.9752 318.4301 467.2047 318.3184 468.3224 316.4183 468.7695 314.0711 469.999 310.7179 475.4758 308.4825 477.3759 305.5765 477.9348 303.0057 477.7112 300.3232 477.9348 297.3054 479.4996 294.6229 476.7053 291.7168 478.7172 289.5932 482.9645 288.9226 486.9882 289.5932 488.3295 291.4933 490.6767 291.6051 491.7944 291.0462 492.0179 288.9226 492.2415 288.1402 492.5768 286.7989 494.4769 285.6812 496.4888 283.8928 500.8479 281.9927 503.195 279.5338 504.7598 274.2805 507.3306 270.145 510.4602 268.0213 510.7955 264.8917 509.6778 259.7503 506.4364 257.5149 505.8776 253.9382 506.5482 248.0143 508.3365 244.7729 510.7955Z" />
</svg>