<?xml version="1.0" encoding="utf-8"?>
<svg xmlns="http://www.w3.org/2000/svg" viewBox="0 0 1021 941" style="stroke-width:0.25px;stroke-linejoin:round;stroke:#444;fill:#ddd" fill-rule="evenodd">
  <path class="GQ" d="M744.2783 258.7495L746.2902 261.7673 746.402 265.1205 745.8431 268.8089 746.2902 272.3856 748.5256 275.2916 752.6612 278.8683 757.132 281.9979 760.3734 283.1156 763.3912 283.898 774.6801 289.4866 778.2568 290.0454 802.1758 290.0454 813.5765 290.0454 852.5846 290.0454 855.2671 290.0454 908.3584 290.0454 961.4497 290.0454 1014.541 290.0454 1015.8823 296.8635 1015.9941 311.1702 1016.2176 357.667 1016.3294 366.944 1016.5529 404.1638 1016.7765 450.6606 1017 497.1574 963.9087 497.0457 950.9432 496.9339 910.7056 496.8221 857.6143 496.7103 853.4788 496.7103 804.4112 496.4868 785.0748 496.4868 779.9333 497.1574 776.4684 497.6045 775.4625 500.1752 775.4625 505.4285 774.7919 507.7757 772.78 509.7876 769.8739 510.3464 766.7443 509.8993 763.6147 508.5581 760.7087 506.3227 756.1261 501.0694 753.1083 498.9458 750.4257 497.9398 745.1725 497.381 745.396 496.375 745.1725 493.3572 743.8312 488.8864 744.1666 486.7627 745.5078 485.645 747.855 484.8626 750.5375 484.3037 752.7729 484.192 751.6552 483.2978 749.5316 482.5154 746.9608 482.0683 744.8372 481.8448 742.9371 481.2859 738.578 478.827 736.3426 478.2681 729.0774 479.8329 727.1773 479.3858 726.5067 477.5975 727.2891 475.6974 728.6304 474.1326 729.7481 473.3502 726.5067 474.8032 722.3712 478.3799 719.018 482.2919 717.565 484.8626 716.3355 486.0921 710.4117 487.5451 706.0526 489.4452 704.4878 487.3216 701.6935 478.827 700.2405 476.5915 698.3404 474.8032 695.4343 473.3502 692.193 472.6795 689.9575 473.1266 687.8339 474.1326 682.2453 475.1385 676.9921 477.7092 674.3096 478.2681 672.7448 477.2622 668.6092 472.5678 666.262 471.003 666.5974 469.2146 666.1503 467.7616 663.9149 464.7438 666.5974 463.6261 668.721 461.6142 670.2858 458.9317 673.0801 449.8782 674.6449 446.6369 676.6568 445.2956 679.451 443.8426 681.91 440.3777 683.8101 436.3539 684.7043 433.1125 684.2572 426.4063 684.9278 423.5002 689.8458 421.2648 696.7756 415.0056 699.9052 410.9818 700.464 410.6465 700.7993 409.7524 701.6935 408.8582 702.4759 407.6287 702.923 405.8404 704.9349 400.6989 707.8409 395.4457 711.4176 392.6514 713.7648 393.4338 716.0002 395.5574 719.3534 396.6751 724.0477 396.0045 727.4009 394.4397 730.5305 392.4278 734.4425 390.5277 730.8658 390.7513 723.6007 395.5574 720.4711 394.8868 712.7589 387.5099 710.0763 382.592 711.9765 377.7858 722.3712 367.5029 722.8183 366.8322 723.936 364.8204 724.8301 363.8144 728.4068 361.4672 729.8598 360.0142 730.5305 358.7847 732.0953 355.208 732.8777 354.2021 733.6601 353.4197 734.2189 352.1902 734.8895 347.9429 735.6719 346.7134 736.5661 345.8193 736.9014 344.9251 737.9074 343.2485 744.1666 337.1011 746.0667 331.0655 745.396 323.6886 740.4781 309.1583 738.8015 305.8052 738.2427 304.3521 738.0191 302.3403 738.4662 300.5519 739.2486 299.3224 740.031 298.4283 740.4781 297.4223 741.9311 275.4034 741.3723 271.3796 739.9193 268.3618 738.4662 264.3381 740.7017 261.2085 744.2783 258.7495ZM3.459 933.065L2.3413 931.0531 2.1177 928.9295 2.9001 927.1411 4.6884 925.9117 7.0356 929.9354 6.365 934.2945 3.9061 936.5299 1 934.4063 1.8942 934.1827 2.5648 933.4003 3.459 933.065ZM588.5811 8.2703L593.2755 14.1942 595.0638 17.212 595.8462 21.0122 595.5109 24.3653 594.8403 27.4949 593.7226 30.2892 592.2695 32.6364 585.7868 38.3367 583.9985 43.2547 578.0746 50.1845 577.6275 50.8551 574.0508 60.3557 571.033 62.8146 570.1388 66.9502 569.6917 67.9561 569.2447 68.515 564.215 71.5328 563.5443 74.4388 563.4326 82.5981 562.3149 85.5042 554.3791 94.7812 548.2317 104.7288 546.6669 106.7407 544.8785 105.623 540.8548 103.8347 539.9606 102.7169 538.8429 103.164 536.2722 102.2699 531.3542 99.4756 530.013 99.9227 525.9892 100.8168 524.2009 100.8168 522.3008 100.0344 518.5006 97.5755 516.1534 97.0166 512.3531 96.9048 508.1058 95.8989 504.7527 93.3282 503.2997 88.0749 502.5173 86.1748 500.9525 83.8276 499.723 81.4804 500.2818 79.4685 501.0642 77.9037 502.0702 70.3033 503.2997 66.9502 505.6469 62.4793 509 59.4615 513.1355 60.691 515.371 59.3497 518.3888 59.4615 524.7597 60.691 527.6658 59.4615 528.6717 56.5554 528.2246 53.3141 526.5481 50.8551 528.7835 49.6256 531.5778 47.6138 534.0367 45.2666 535.0427 43.0311 536.2722 26.489 538.6194 20.2298 543.3138 12.6294 549.4612 6.482 556.8381 4.4701 556.391 5.1407 555.7204 7.0408 561.1971 8.1585 563.6561 8.2703 565.3327 7.0408 569.3564 8.2703 575.1685 9.0527 581.2042 8.9409 586.1221 7.0408 586.5692 7.8232 587.1281 8.0468 588.5811 8.2703Z" />
</svg>