<?xml version="1.0" encoding="utf-8"?>
<svg xmlns="http://www.w3.org/2000/svg" viewBox="0 0 1021 870" style="stroke-width:0.25px;stroke-linejoin:round;stroke:#444;fill:#ddd" fill-rule="evenodd">
  <path class="GS" d="M930.1538 863.363L930.3773 861.4629 930.9362 860.457 931.9421 860.0099 940.1014 859.7864 940.1014 861.0158 939.2073 862.4689 939.0955 864.1454 938.6484 865.4867 933.3952 865.7102 931.7186 865.0396 930.1538 863.363ZM923.6711 859.7864L924.1182 861.5747 924.2299 863.2513 924.677 864.8161 926.0183 865.7102 925.0123 865.822 924.1182 865.7102 923.224 865.2631 922.4416 864.4807 919.9826 862.916 917.5237 860.9041 916.853 858.8922 919.4238 857.5509 923.4475 857.6627 923.5593 858.2216 923.4475 858.8922 923.6711 859.7864ZM983.5804 787.5822L986.5982 786.9116 989.2807 787.9175 994.7575 792.053 992.7457 794.2884 990.8455 796.0768 988.7219 797.1945 986.4865 797.7534 983.5804 796.971 981.5685 794.1767 981.2332 790.4882 983.5804 787.5822ZM1015.3234 693.4708L1015.6587 694.8121 1016.7765 697.4946 1017 698.6123 1016.5529 701.9655 1016.4411 703.642 1016.2176 703.0832 1015.8823 702.8596 1015.6587 702.7479 1011.7468 700.1771 1000.6814 696.0416 998.3342 691.9061 998.5578 691.0119 999.1166 689.7824 999.7872 688.1058 1000.0108 686.2057 1000.5696 685.088 1002.0227 684.5292 1010.7408 684.5292 1013.8704 685.3116 1016.4411 687.8823 1015.3234 693.4708ZM1001.2403 592.2062L998.7813 591.9826 996.5459 590.5296 994.6458 588.2942 993.5281 585.7234 996.6576 581.2526 998.2224 580.2466 1000.0108 581.2526 1000.4579 582.2585 1001.1285 585.3881 1001.7991 586.7294 1003.0286 587.6235 1004.2581 587.9589 1007.0524 587.9589 1005.7111 589.6354 1004.2581 590.6414 1001.2403 592.2062ZM974.7505 472.1639L976.4271 470.3756 978.3272 470.7109 980.2273 472.611 981.7921 475.2935 981.345 475.4053 981.1215 475.6288 980.8979 476.0759 980.6744 476.4112 980.0037 475.2935 978.9978 475.6288 977.5448 474.7347 974.7505 472.1639ZM938.8719 411.9193L940.2132 412.3663 942.2251 413.484 943.6781 415.0488 943.9017 416.7254 942.6722 418.0667 937.7542 419.5197 934.96 418.7373 933.954 417.7314 933.6187 415.7195 934.2893 414.1547 935.7424 413.037 937.5307 412.2546 938.8719 411.9193ZM899.5285 352.3452L900.9815 349.998 902.6581 349.3274 904.67 349.7745 906.5701 351.2275 906.5701 352.3452 905.2288 353.1276 904.1111 355.2513 902.9934 356.7043 901.8757 355.5866 900.1991 353.0158 899.5285 352.3452ZM87.0638 76.6057L88.2933 76.3822 89.9699 77.8352 92.6524 81.0766 92.6524 82.1943 91.9817 82.0825 91.6464 82.4178 91.3111 82.8649 90.864 83.2002 88.7404 83.7591 87.7344 83.6473 86.7285 83.2002 86.7285 82.1943 88.5168 82.1943 84.9402 80.0706 84.7166 78.2823 85.3872 77.4999 86.2814 77.1646 87.0638 76.6057ZM1 8.7606L1.6706 7.084 3.0119 6.5252 6.1415 6.7487 2.7883 8.6488 1.8942 8.7606 1 8.7606ZM187.7696 109.3547L185.4224 109.5782 187.2108 113.4902 191.011 116.7316 195.1465 118.967 198.3879 119.7494 198.3879 120.8671 197.382 121.2024 196.1525 121.9848 195.2583 123.1025 194.8112 124.332 194.0288 124.7791 192.464 124.5556 189.558 123.7732 187.8814 126.791 185.3107 127.5734 182.5164 127.0145 180.1692 125.785 175.9219 122.5437 173.4629 121.2024 170.7804 120.8671 171.6746 122.4319 172.7923 123.6614 173.91 124.4438 175.1395 124.7791 176.2572 125.2262 177.9338 127.7969 179.0515 128.9146 179.9457 129.4735 180.8398 129.697 183.0752 129.8088 183.9694 130.2559 185.646 132.2678 186.6519 132.9384 186.6519 133.9443 185.646 134.0561 184.7518 133.9443 183.8576 133.609 183.0752 132.9384 183.2988 133.609 183.5223 135.2856 183.7459 136.068 181.1751 136.068 180.281 135.5091 179.6103 133.9443 179.275 135.8444 179.275 136.6268 179.6103 137.9681 178.4926 137.9681 176.7043 137.1857 175.6983 137.0739 175.2513 137.521 174.5806 138.4152 173.6865 139.0858 171.2275 139.1976 169.998 138.7505 168.9921 137.6328 168.4332 136.068 169.2156 135.9562 169.7745 135.6209 170.7804 134.9503 167.3155 132.9384 163.4035 127.7969 161.727 127.0145 159.8268 125.338 156.6972 121.7613 156.4737 119.6376 155.5795 119.9729 154.3501 117.7375 154.6854 115.5021 153.903 112.9314 153.1206 109.8018 150.2145 104.4367 143.7318 95.495 142.6141 94.3773 141.4964 94.1538 140.1551 93.7067 138.9256 92.9243 138.4785 91.8066 138.7021 90.13 139.9316 88.3417 140.1551 87.224 139.2609 85.2121 137.1373 83.2002 134.9019 81.7472 133.4488 81.0766 130.9899 81.1883 130.0957 81.6354 128.4191 83.6473 127.1897 83.9826 125.9602 83.8708 124.9542 83.2002 123.5012 81.4119 122.4953 79.7353 121.2658 78.2823 112.5476 74.035 111.9888 74.035 111.2064 74.1468 110.424 74.1468 110.2004 73.4761 110.3122 72.9173 110.7593 71.2407 110.8711 71.0172 110.8711 70.2348 111.3182 69.1171 111.4299 68.4464 111.3182 67.3287 111.0946 67.3287 110.6475 67.4405 110.2004 66.9934 108.8592 65.4286 107.2944 64.4227 105.5061 63.9756 103.7177 63.9756 104.3883 62.9696 102.6 61.9637 103.1589 60.5107 103.9413 59.84 104.9472 59.7283 106.1767 59.9518 104.053 57.4928 100.6999 57.3811 94.1054 58.9459 92.9877 58.6106 89.6345 56.8222 87.958 55.3692 87.0638 54.475 86.7285 53.9162 86.8403 52.9102 87.1756 51.569 87.2873 50.3395 86.505 49.7806 85.3872 49.4453 83.9342 48.5512 82.7047 47.4334 81.6988 46.3157 81.0282 45.9804 79.3516 46.5393 78.4574 46.3157 77.0044 45.3098 74.9925 44.7509 73.4277 44.8627 70.9688 46.4275 65.8273 46.9864 64.1507 47.5452 62.5859 48.8865 62.0271 47.8805 61.3564 47.2099 60.574 47.2099 59.6799 47.7688 58.6739 45.6451 59.0092 44.6392 65.492 41.8449 66.8332 41.7331 65.1567 39.4977 60.3505 37.5976 59.121 34.8033 62.6977 34.9151 66.6097 33.6856 73.8748 29.8854 71.7512 28.8794 63.8154 28.8794 60.9094 29.8854 59.7916 29.4383 57.7798 28.097 56.7738 27.7617 48.8381 27.7617 46.7144 28.3206 45.932 29.7736 46.6026 31.1149 48.5028 31.7855 46.938 32.4561 40.1199 33.9091 36.7668 33.5738 34.9784 33.7974 35.4255 33.1267 35.8726 32.2326 36.2079 31.7855 35.0902 31.1149 32.0724 27.7617 35.202 25.8616 36.655 24.5204 37.9963 22.732 36.5432 22.2849 33.6372 22.6202 32.0724 21.7261 37.4374 18.9318 40.0081 16.9199 41.4612 13.7903 31.1782 13.7903 26.1485 14.6845 24.919 14.2374 23.0189 12.8961 22.1248 12.6726 17.3186 14.5727 14.6361 14.908 12.4007 13.2315 10.7241 12.3373 7.371 15.8022 5.5826 15.8022 5.8062 14.3492 6.2532 13.0079 6.9239 12.1138 7.9298 11.6667 7.5945 10.549 7.1474 9.8783 6.5886 9.6548 5.5826 9.6548 7.0356 8.8724 11.5065 8.7606 15.8656 6.9723 17.6539 6.7487 19.554 7.1958 22.3483 9.2077 23.8013 9.6548 25.7014 9.4312 27.6015 8.6488 29.3899 7.3076 30.8429 5.7428 30.8429 4.2898 32.743 4.178 35.0902 4.8486 36.7668 5.7428 35.9844 6.0781 35.5373 6.5252 35.202 7.3076 34.9784 8.7606 51.9677 8.3135 58.0033 6.1899 61.4682 5.7428 61.4682 6.7487 56.1032 9.6548 56.7738 10.7725 56.1032 12.6726 54.4266 12.6726 56.215 14.4609 57.5562 15.4669 59.121 15.8022 61.1329 15.8022 61.9153 15.5787 63.3683 14.7963 64.1507 14.6845 69.0686 14.6845 74.2101 18.1494 74.9925 18.2612 75.5514 15.914 76.7809 15.3551 78.3457 15.3551 79.5751 14.6845 79.4634 13.2315 80.8046 12.7844 82.593 12.8961 83.8224 12.6726 82.1459 14.908 82.7047 15.5787 84.046 15.5787 84.9402 15.8022 84.9402 17.367 84.046 18.4847 82.0341 19.7142 82.3694 21.0554 82.2576 22.3967 81.9223 23.6262 81.3635 24.8557 83.7107 24.6321 85.499 22.732 87.0638 20.0495 89.0757 17.7023 90.9758 16.6964 93.7701 15.8022 96.0055 16.2493 96.6761 18.7083 92.9877 22.2849 91.4229 24.4086 92.6524 25.7498 94.4407 25.3028 101.3705 20.7201 100.9234 20.273 100.141 19.1553 99.6939 18.7083 101.4823 18.1494 103.4942 18.3729 107.8532 19.7142 110.2004 21.1672 110.8711 21.7261 110.9828 23.2909 109.9769 25.191 110.2004 26.7558 109.7534 27.9853 110.2004 28.8794 111.0946 29.2147 112.1006 28.7677 112.3241 27.6499 112.6594 24.0733 113.1065 22.732 115.3419 21.9496 123.7248 23.738 123.1659 24.8557 124.8425 24.8557 125.7366 25.191 126.6308 25.7498 126.6308 26.7558 125.9602 27.9853 125.7366 28.6559 125.5131 29.8854 124.0601 28.8794 122.4953 28.7677 120.9305 29.3265 119.5892 30.7795 122.0482 31.3384 122.9424 31.8972 122.607 32.7914 121.6011 33.2385 119.4774 33.1267 118.4715 33.7974 120.5952 35.1386 123.3894 34.9151 128.5309 32.7914 133.4488 31.7855 134.2312 32.6796 135.0136 34.1327 135.9078 34.9151 137.2491 33.7974 137.6961 34.8033 137.8079 35.2504 137.6961 35.8092 137.2491 36.8152 136.0196 35.8092 134.5666 35.6975 131.9958 36.8152 130.7663 37.8211 123.5012 43.2979 122.9424 43.5215 122.4953 43.8568 122.0482 44.7509 122.16 45.4216 122.607 46.3157 122.7188 47.4334 122.0482 48.8865 124.1718 49.11 125.8484 48.8865 127.3014 48.2158 133.2253 43.0744 135.4607 42.1802 136.6902 43.745 137.8079 42.6273 139.0374 43.1861 139.708 44.9745 139.2609 47.2099 138.5903 47.7688 137.8079 47.7688 137.0255 48.1041 136.6902 49.3336 136.9138 50.116 137.4726 50.563 137.6961 51.2337 137.2491 52.9102 138.1432 54.2515 138.255 55.8163 137.9197 57.3811 137.2491 58.9459 140.6022 54.9221 142.5023 53.6926 143.9553 54.3633 146.3025 58.4988 147.7556 60.3989 149.5439 60.9578 151.1087 59.7283 150.8851 57.8282 150.1028 55.2574 149.5439 52.3514 149.3204 51.2337 147.3085 48.8865 146.6378 47.657 146.3025 46.7628 146.1908 45.5333 146.079 43.745 151.6675 45.8686 154.3501 47.5452 154.9089 49.7806 155.9149 49.5571 156.9208 49.5571 157.5914 50.0042 157.9267 51.3454 158.0385 52.9102 158.262 54.0279 158.1503 55.0339 157.2561 55.9281 159.8268 57.9399 159.7151 58.6106 158.5974 59.6165 157.9267 62.4108 159.0444 63.305 166.086 62.9696 165.8625 64.8697 165.7507 66.7699 165.3036 68.3347 163.7388 69.0053 164.1859 70.4583 164.8565 71.3525 165.6389 71.9113 166.6449 72.0231 166.6449 73.3644 167.4273 74.2585 168.545 74.8174 169.5509 75.1527 170.1098 74.9292 171.3393 74.035 172.0099 74.4821 173.4629 76.1586 175.4748 75.9351 176.369 76.2704 176.7043 77.6117 176.9278 79.2882 177.5985 80.4059 178.6044 80.9648 177.0396 82.3061 175.1395 83.8708 171.3393 88.3417 172.3452 89.2359 173.91 91.4713 174.8042 92.2537 176.2572 92.4772 184.193 92.0301 185.4224 91.3595 187.6579 89.3476 188.6638 88.7888 189.558 89.2359 189.2227 90.9124 187.7696 95.3833 185.7578 99.0717 185.4224 99.407 187.5461 106.0015 187.7696 109.3547ZM847.7784 417.9549L849.455 416.3901 851.3551 416.5019 851.5787 418.1784 850.0139 419.855 848.002 419.6315 847.7784 417.9549Z" />
</svg>