<?xml version="1.0" encoding="utf-8"?>
<svg xmlns="http://www.w3.org/2000/svg" viewBox="0 0 790 1024" style="stroke-width:0.25px;stroke-linejoin:round;stroke:#444;fill:#ddd" fill-rule="evenodd">
  <path class="GU" d="M628.443 38.202L653.0327 92.8581 695.2822 123.8187 743.3438 137.5666 785.258 140.6961 785.8168 169.5331 751.1678 234.3604 677.7341 342.2196 593.6822 419.677 441.5616 516.5826 382.2111 578.8392 348.568 680.5509 326.3255 910.4642 267.7574 1000.1047 225.7315 1018.0999 176.6639 1020 136.3145 1005.9168 111.8366 961.5437 79.0877 919.2942 71.4872 906.9993 56.8452 813.8939 49.2448 797.3518 37.8441 783.0451 23.7609 771.6444 6.2129 763.5969 30.8025 738.8955 46.3387 713.5234 54.498 682.1157 56.8452 638.525 52.2626 618.1826 40.1913 592.9223 26.5552 571.3505 1.1832 552.4612 11.9132 533.7954 30.579 523.1771 40.5266 536.2543 73.6109 532.9012 218.131 448.514 251.3271 418.7828 382.2111 342.2196 407.6949 316.624 429.4903 287.0046 448.6032 251.3496 498.7884 86.2636 514.2129 56.5325 542.491 29.4838 581.3873 6.6825 614.6952 4 628.443 38.202Z" />
</svg>