<?xml version="1.0" encoding="utf-8"?>
<svg xmlns="http://www.w3.org/2000/svg" viewBox="0 0 680 1024" style="stroke-width:0.25px;stroke-linejoin:round;stroke:#444;fill:#ddd" fill-rule="evenodd">
  <path class="GY" d="M675.7136 916.2763L669.3427 918.7353 665.2072 921.0825 662.9717 921.3061 660.8481 920.1883 658.948 918.6235 656.7125 917.2823 654.1418 916.947 651.7946 917.8411 650.0063 919.2942 647.9944 920.3001 645.2001 920.1883 642.5176 919.7413 640.6175 920.1883 634.6936 924.8827 633.1288 925.6651 631.2287 925.6651 621.3928 923.9886 619.6045 923.3179 617.3691 921.5296 616.4749 920.1883 615.3572 919.5177 612.3394 919.5177 607.7568 919.9648 605.5213 919.9648 603.0624 919.4059 599.4857 917.5058 596.915 915.3822 595.3502 912.5879 594.456 908.6759 590.3205 905.3228 583.6142 908.0053 571.8782 915.3822 569.1957 914.8233 564.166 911.6937 560.8129 911.3584 557.795 912.5879 555.7832 914.3762 553.9948 916.6117 551.8712 918.5118 548.9651 920.0766 547.065 920.7472 545.7238 921.9767 542.2589 931.1419 540.8058 933.6009 531.7524 945.1133 527.6168 948.2429 521.2459 949.8077 516.9986 950.0312 505.3744 947.9076 500.4564 947.5723 496.0974 948.8018 485.032 953.7197 480.3376 956.514 478.1022 957.4081 475.755 957.2964 471.6195 955.6198 469.4958 955.2845 468.6017 956.2904 468.8252 958.4141 469.6076 962.6614 469.1605 965.0086 468.2663 967.4675 465.9191 971.9384 463.6837 974.6209 457.8716 975.7386 451.3889 975.5151 447.0298 974.2856 446.0239 973.1679 445.0179 970.1501 444.012 968.8088 441.6648 967.6911 440.2118 967.9146 438.9823 968.697 437.3057 969.2559 434.6232 969.1441 431.6054 968.697 428.6993 967.8029 426.3521 966.5734 425.3462 965.5674 424.005 963.332 423.4461 962.9967 421.8813 964.1144 420.8754 965.9028 420.2047 967.9146 419.1988 969.5912 417.9693 970.3736 414.8397 971.8266 413.8338 972.7208 413.6102 974.062 414.3926 976.9681 414.3926 978.3094 410.7042 980.7683 408.9158 981.1036 398.9682 982.7802 398.5211 983.2273 396.9563 985.3509 397.8505 988.1452 400.4212 993.5102 401.3154 996.4163 401.4272 999.7694 400.533 1002.1166 396.1739 1008.8229 395.0562 1008.9347 393.9385 1008.264 392.8208 1007.9287 392.9326 1007.5934 392.3737 1007.0345 391.5913 1006.4757 390.9207 1006.1404 390.3618 1006.3639 388.5735 1007.7052 387.6793 1008.1523 373.7079 1006.811 371.696 1006.9228 370.0195 1008.1523 366.2193 1013.629 364.0956 1016.088 361.4131 1017.8763 358.1717 1019.2176 355.3774 1019.8882 352.9185 1020 350.4595 1019.6647 347.6652 1018.4352 344.2003 1015.6409 342.9708 1012.8466 342.3002 1009.8288 340.0648 1006.5875 337.6058 1004.4638 334.8116 1003.0108 334.0292 1002.6755 328.6641 1000.5518 305.751 996.5281 296.9211 993.7338 294.4622 992.3925 292.7856 990.0453 289.8795 983.4508 288.6501 981.9978 286.1911 980.5448 285.6322 978.1976 285.2969 975.6268 283.7321 973.5032 282.5026 973.3914 279.7084 974.1738 278.0318 973.7267 277.4729 973.0561 276.467 970.9325 276.0199 970.1501 275.3493 969.8147 273.5609 969.5912 273.0021 969.3677 271.7726 967.9146 268.9783 963.1085 267.7488 961.6554 263.5015 958.1905 261.1543 955.2845 257.3541 949.0253 254.4481 946.6781 251.542 945.7839 249.0831 946.0075 246.7359 946.6781 243.9416 946.9017 242.3768 946.4546 241.0355 945.7839 239.6943 944.778 236.6765 941.5366 236.4529 940.4189 238.6883 937.5129 241.5944 931.9243 241.4826 930.2477 241.0355 930.0242 240.2531 930.2477 238.4648 929.9124 233.3233 927.9006 231.7585 927.7888 228.9642 928.7947 227.2877 928.6829 226.0582 927.2299 225.3876 924.4356 225.164 921.4178 225.2758 919.1824 225.7229 917.6176 227.5112 914.9351 228.0701 913.4821 228.1818 912.2526 227.8465 908.6759 228.1818 907.4464 228.9642 905.211 228.9642 904.0933 228.5172 902.6403 227.0641 899.7342 226.8406 897.9459 227.2877 896.4928 228.8525 894.0339 229.1878 892.6926 229.1878 891.2396 227.9583 887.2158 227.8465 882.0744 228.6289 876.7094 228.4054 872.015 225.3876 868.7736 224.1581 868.4383 221.4756 868.3265 220.2461 868.103 218.4578 867.2088 214.3222 863.6321 208.8454 860.7261 206.2747 858.9377 204.8217 856.2552 205.0452 855.0257 206.4982 852.6785 206.3865 851.2255 206.0512 849.7725 205.9394 846.7547 205.7158 845.3017 201.6921 836.36 201.245 833.6774 201.245 832.0009 201.0215 830.9949 199.9037 828.6477 199.3449 828.0889 197.5565 827.4183 196.8859 826.8594 196.9977 826.4123 197.6683 824.7358 197.7801 824.0651 193.421 815.5705 192.9739 812.9998 193.7563 790.5338 196.6624 779.2449 196.9977 776.3388 196.5506 768.5149 197.1095 765.0499 198.4507 761.8086 202.1392 755.7729 202.9216 755.2141 203.8157 754.8788 204.5981 754.4317 205.0452 753.5375 204.9334 752.5316 203.9275 751.0785 203.704 750.2961 204.151 749.8491 205.8276 749.6255 206.1629 749.0667 205.9394 748.1725 204.7099 746.943 204.3746 746.0488 204.3746 744.2605 205.0452 743.1428 206.0512 742.2486 206.9453 741.0191 208.8454 734.8717 209.4043 733.4187 212.981 727.6066 214.434 722.9122 214.8811 722.8004 215.7752 722.8004 216.6694 722.5769 217.34 721.9063 217.4518 720.9003 216.6694 719.112 216.4459 718.2178 217.1165 711.6233 214.6575 712.4057 215.1046 710.0585 217.4518 704.3582 216.3341 700.7815 213.8751 697.9872 211.7515 694.9694 211.7515 690.9457 215.2164 687.1454 226.5053 683.2334 231.6468 678.3155 234.7763 676.9743 236.0058 675.9683 236.7882 674.4035 236.9 673.2858 236.7882 672.0563 236.7882 670.3798 238.0177 666.9149 239.6943 665.2383 245.2828 662.6675 247.9653 660.5439 248.4124 658.6438 247.8536 656.4084 247.5183 653.2788 248.3007 650.4845 250.3125 647.2431 252.8833 644.6724 255.454 643.6664 256.7953 643.4429 257.5777 642.7723 257.8012 641.7663 257.4659 640.3133 256.46 639.1956 254.8952 638.6367 250.5361 637.9661 249.1948 637.9661 248.3007 637.4073 248.4124 633.9424 247.8536 633.0482 247.0712 632.3776 245.0593 628.9127 240.4767 624.5536 239.1354 622.4299 239.5825 619.1886 241.1473 616.9531 241.4826 614.9413 238.5766 612.7058 232.6527 610.8057 230.4173 609.1292 228.8525 605.5525 228.5172 603.9877 228.5172 602.87 228.8525 600.411 229.1878 599.6286 230.4173 597.952 230.7526 597.0579 230.4173 596.1637 229.076 594.5989 228.8525 593.9283 230.3055 591.3575 234.9999 586.5514 235.7823 583.31 235.8941 582.3041 235.8941 580.9628 235.447 580.5157 233.8822 580.2922 232.2056 579.8451 231.0879 578.7274 229.9702 577.3861 228.8525 576.2684 220.9167 571.6858 219.0166 569.3386 217.8989 570.5681 216.7812 570.9034 213.8751 570.121 213.2045 570.0092 211.7515 570.0092 211.0809 569.7857 210.522 569.0033 210.9691 567.215 210.4102 566.7679 208.6219 566.6561 205.9394 567.9974 204.7099 568.1091 203.9275 567.4385 201.9156 564.8678 200.6861 564.0854 199.3449 563.7501 197.7801 563.7501 196.4388 564.0854 195.88 565.2031 195.0976 566.0972 193.3092 565.8737 190.0679 564.756 187.3854 565.2031 185.2617 565.7619 183.8087 565.4266 183.1381 562.8559 182.3557 561.8499 180.9026 561.0675 179.4496 561.0675 178.6672 562.0735 178.3319 563.7501 177.5495 564.3089 176.32 564.3089 174.6435 563.9736 172.5198 562.8559 170.955 560.7322 170.2844 558.2733 170.7315 555.5908 174.4199 551.6788 175.6494 551.567 178.3319 551.4552 179.5614 551.0081 180.9026 549.7787 181.3497 548.5492 181.4615 547.0961 181.9086 545.5314 182.5792 543.9666 186.4912 538.1545 187.6089 535.919 188.5031 533.5718 188.8384 531.0011 188.1678 524.9655 190.0679 518.818 190.515 510.547 191.4091 506.5232 192.4151 504.0642 192.8622 501.4935 192.9739 496.1285 195.4329 487.8574 195.2094 483.9454 191.4091 481.9336 185.3735 478.4686 182.5792 476.345 180.7909 474.3331 180.4556 473.9978 176.0965 463.8266 174.867 462.2618 168.7196 464.4972 166.7077 462.7089 165.4782 459.4675 163.6899 458.9087 157.8778 460.3617 155.4188 461.703 149.8303 467.2915 147.2595 469.0799 144.2417 469.1916 138.2061 467.068 135.3 467.1798 134.2941 468.0739 132.6175 470.7564 131.2762 471.7624 130.2703 471.6506 129.3761 470.98 128.482 469.974 127.3642 469.3034 124.6817 468.7446 116.9695 469.8623 114.9576 469.6387 113.3928 468.8563 112.0516 468.0739 110.375 467.2915 108.6985 466.9562 100.5392 466.3974 97.5213 466.5091 91.3739 467.8504 80.8674 456.4497 70.4727 444.9373 59.9662 433.4249 49.5715 421.9124 39.1768 410.4 28.7821 398.8876 18.3873 387.3751 7.9926 375.8627 3.6336 370.9448 1.2864 365.3562 2.7394 363.9032 7.322 361.3325 9.3339 359.6559 15.7048 349.4847 17.4932 345.0139 18.7227 343.1138 20.511 342.1078 25.0936 341.2136 27.329 340.543 29.0056 339.5371 30.3469 337.7487 31.7999 334.1721 33.5882 332.6073 35.4883 332.3837 37.5002 332.4955 39.065 332.1602 39.4003 329.9248 39.5121 328.0246 40.1827 322.7714 39.9592 321.4301 39.5121 320.9831 39.065 320.6477 38.6179 319.7536 37.9473 318.7476 35.6001 317.2946 34.8177 315.9534 33.8118 312.1531 33.5882 310.5883 34.4824 303.9938 35.153 302.0937 36.3825 300.4172 36.6061 299.1877 36.7178 298.07 36.4943 296.9523 36.159 295.8345 34.5942 293.8227 33.3647 289.6871 32.247 287.5635 30.1233 285.6634 28.2232 284.5457 26.882 283.2044 26.6584 280.4101 27.5526 275.604 29.5645 270.4625 32.247 265.5446 36.6061 260.6266 37.8355 259.0618 40.518 258.503 43.4241 258.8383 45.9948 259.6207 47.3361 257.0499 50.2421 257.497 53.1482 258.3912 55.6072 256.4911 61.9781 257.2735 64.7724 256.8264 65.5548 256.2675 69.2432 252.3556 69.4668 251.7967 69.5785 250.5672 69.2432 249.3377 67.902 247.4376 67.5667 245.8728 68.3491 245.314 70.1374 245.4257 73.1552 246.3199 74.1612 246.9905 75.0553 247.8847 76.2848 248.7789 77.9614 249.3377 79.3026 249.226 82.4322 248.4436 83.997 248.22 86.7913 249.0024 91.821 252.2438 93.9447 253.0262 96.8507 251.9085 99.0861 249.5613 102.8864 243.9727 105.1218 242.1844 107.8043 241.0667 117.6402 238.7195 135.1882 227.7659 138.8767 226.8717 141.1121 228.213 142.4534 221.3949 143.5711 219.0477 145.6947 217.3712 147.9301 215.8064 149.942 214.2416 151.2833 212.2297 152.2892 209.9943 152.9598 207.5353 152.8481 205.1881 151.7304 203.0645 150.0538 201.3879 145.2476 198.7054 145.1359 198.5936 143.4593 196.8053 141.8945 195.9111 140.1062 195.7993 137.8707 196.1347 135.8589 196.0229 134.4058 195.2405 132.9528 194.3463 131.2762 193.6757 127.6996 193.6757 124.7935 194.7934 122.5581 196.9171 119.5403 202.3938 117.7519 202.3938 108.1396 194.7934 106.6866 193.3404 104.6747 189.2048 104.5629 185.0693 106.3513 181.3809 109.7044 178.363 110.2633 177.3571 110.5986 176.3512 110.5986 175.2334 110.375 174.1157 109.1455 172.2156 107.5807 168.4154 106.5748 166.6271 105.6806 165.8447 104.3394 165.2858 103.3334 164.6152 102.7746 163.2739 102.7746 162.1562 102.8864 161.262 102.8864 160.4796 102.2157 159.4737 100.4274 158.1325 98.5273 157.6854 96.7389 157.0147 93.6094 151.2026 92.827 149.1908 92.7152 147.0671 94.6153 143.4904 100.8745 141.4785 102.9981 138.796 104.8982 135.2194 106.2395 133.3193 107.1337 132.6486 109.1455 132.9839 110.375 132.0898 110.9339 130.3014 110.5986 128.1778 112.7222 124.4893 112.7222 123.0363 112.2751 120.3538 112.3869 119.1243 113.0575 117.8948 116.1871 114.2064 118.8696 109.0649 120.7697 107.1648 123.8993 106.1589 135.5235 106.3824 141.4474 105.8235 144.8006 103.2528 145.9183 100.1232 148.9361 97.3289 155.6424 92.7463 156.2012 92.2992 158.2131 90.3991 159.5543 88.1637 161.2309 86.2636 167.8254 83.6928 170.1726 81.7927 172.408 79.4455 175.2023 77.3219 178.1084 76.4277 183.5851 76.9866 186.603 76.763 188.8384 75.4218 190.2914 72.9628 191.4091 67.3743 192.9739 65.3624 193.1975 63.6858 192.8622 62.121 192.8622 60.1091 193.8681 57.9855 197.333 55.1912 198.786 53.6264 201.245 52.3969 208.063 50.8321 210.8573 50.7204 213.7634 49.7144 216.3341 47.3672 218.1224 44.2376 218.2342 41.4433 212.7574 32.5017 198.4507 16.4066 190.0679 4 192.7504 5.2295 197.333 8.1355 202.2509 13.1652 210.0749 25.1248 215.2164 30.1545 219.1284 32.1663 225.8347 33.9547 229.1878 35.743 236.7882 41.2198 240.7002 43.3435 244.8358 44.2376 246.0652 46.3613 246.2888 46.6966 246.5123 47.8143 246.9594 48.0378 247.8536 47.9261 255.5658 49.4909 256.5717 50.4968 258.3601 52.7322 270.6549 63.2387 267.5253 58.209 262.7191 53.4029 256.907 49.6026 246.6241 45.3553 233.9939 36.6372 225.7229 32.0546 224.6052 30.4898 222.8168 26.6895 223.1521 24.9012 226.3935 24.3424 228.7407 25.3483 233.5469 29.2603 239.1354 30.9369 241.8179 32.837 246.2888 36.6372 255.3422 42.0022 267.8606 47.7025 282.3909 58.209 307.5394 73.1864 315.8105 79.4455 317.8223 81.3457 319.8342 84.0282 327.2111 90.8462 345.9887 111.971 353.0303 117.5595 357.054 123.3716 360.5189 128.066 363.8721 135.1076 366.2193 138.349 366.6663 137.4548 365.3251 134.1017 365.5486 132.5369 367.4487 132.6486 370.9136 133.8781 373.7079 136.2253 376.3904 138.796 378.6259 141.5903 380.8613 144.9435 383.7673 149.6378 387.2322 153.8851 389.4677 157.0147 400.1977 167.7448 402.6567 171.9921 403.6626 176.5747 402.3213 181.0455 403.2155 180.0396 402.5449 185.9635 403.2155 203.7351 400.8683 218.2653 399.1917 220.5008 396.0622 222.848 393.9385 224.5245 391.8149 227.0953 390.3618 229.7778 389.4677 232.6838 388.5735 237.9371 385.3321 246.2081 385.1086 249.1142 385.3321 258.2794 385.1086 259.6207 383.7673 261.409 383.5438 262.862 383.5438 287.5635 382.7614 290.4695 382.3143 292.0343 373.1491 305.1116 373.8197 305.4469 374.155 305.8939 378.4023 302.0937 379.7436 301.1996 380.1906 300.6407 380.526 299.8583 381.0848 299.4112 382.9849 300.3054 384.1026 300.4172 384.7733 300.4172 386.4498 300.3054 385.3321 299.4112 387.6793 293.9344 388.2382 275.7157 389.5794 270.0154 404.1097 244.4198 407.6864 239.3901 412.7161 235.9252 418.7517 234.3604 424.5638 234.6957 429.8171 236.2605 437.9763 240.6196 440.6589 243.0785 441.3295 243.5256 441.7766 243.9727 442.8943 244.9787 443.5649 245.314 444.1238 245.5375 444.6826 244.9787 445.1297 243.3021 446.3592 242.9668 458.0952 244.4198 466.5898 248.5553 469.384 250.7908 473.4078 253.9204 478.5493 258.9501 482.2377 261.7443 489.6146 268.7859 493.9737 273.2568 495.315 275.2686 497.7739 276.3864 500.7917 279.516 508.6157 285.8869 512.9748 289.4636 515.8809 291.9226 517.781 293.9344 519.7928 295.9463 522.4754 298.8524 525.2696 305.6704 529.5169 315.5063 530.97 317.4064 531.4171 320.0889 532.0877 321.2066 533.2054 319.53 533.4289 318.3006 533.6525 316.7358 533.6525 314.3886 535.4408 312.4884 536.7821 311.7061 537.3409 311.1472 537.8998 311.0354 540.5823 311.259 543.4883 312.2649 545.7238 313.3826 548.518 314.7239 552.8771 317.2946 554.5537 318.1888 559.2481 321.4301 564.8366 325.4539 576.1255 336.9663 579.0316 341.1019 581.7141 346.1316 582.9436 351.7201 583.2789 355.185 583.8377 356.7498 584.5084 358.2029 584.8437 359.4323 584.9554 360.8854 582.9436 357.9793 581.9376 357.0851 584.2848 362.0031 585.179 364.015 585.179 366.921 585.4025 369.1564 585.8496 374.1861 583.5024 378.9923 582.9436 381.563 581.9376 383.9102 581.267 385.475 581.267 388.3811 579.814 391.7342 579.4787 394.9756 582.72 400.2288 582.4965 407.7175 580.8199 412.0766 579.1433 414.7591 577.5785 417.8887 570.6487 427.9481 570.6487 428.954 569.4193 431.7483 568.9722 433.9837 568.7486 436.8898 568.1898 440.1311 566.8485 442.3666 560.1422 449.0728 559.0245 450.5259 558.5774 452.0906 559.1363 453.3201 560.3658 453.3201 562.2659 452.5377 563.7189 452.873 564.6131 452.873 564.9484 453.2084 565.1719 462.8207 565.5073 463.9384 566.1779 464.7208 567.4074 465.0561 568.5251 464.8326 569.4193 464.2737 569.7546 463.3795 568.4133 461.703 567.7427 460.3617 567.9662 459.0205 569.0839 458.3498 570.6487 458.3498 571.99 458.6851 572.6606 459.5793 572.7724 459.8029 573.6666 462.1501 578.2492 467.7386 579.2551 470.5329 578.5845 472.433 576.9079 473.9978 574.7843 475.3391 572.6606 476.1215 571.8782 473.4389 570.6487 471.9859 568.9722 471.4271 566.5132 471.4271 564.9484 472.2095 564.0542 474.1096 563.1601 478.0216 561.1482 482.716 560.7011 484.2807 560.4776 486.0691 561.1482 487.6339 566.1779 492.1047 564.7249 492.9989 563.6072 492.8871 562.6012 492.3283 561.3717 492.1047 559.4716 492.44 558.2421 492.8871 557.2362 493.446 555.7832 494.0048 552.3183 495.0108 541.4765 496.1285 539.1293 496.7991 537.3409 496.9109 536.4468 496.4638 534.3231 494.4519 533.6525 494.0048 530.0758 494.2284 526.9462 494.7872 520.9106 496.9109 515.5455 494.5637 510.4041 494.899 505.7097 497.1344 502.133 500.7111 500.0094 504.6231 498.4446 505.8526 495.0914 506.2997 493.3031 505.9644 492.0736 505.4055 490.7323 504.9584 488.944 505.4055 487.9381 506.4114 485.1438 511.1058 483.2437 513.3413 480.7847 516.0238 478.5493 519.1534 477.6551 523.8477 478.6611 525.7479 481.0083 526.8656 483.2437 528.4304 485.032 534.1307 488.7205 538.8251 489.9499 541.1723 489.7264 543.8548 488.6087 546.202 486.1497 549.7787 484.0261 556.8202 481.6789 560.7322 479.1081 566.7679 478.1022 571.3505 476.8727 573.1388 475.1961 574.9272 473.8549 577.0508 473.296 579.5098 473.7431 581.7452 474.5255 583.7571 474.8608 586.1043 474.6373 589.5692 473.7431 592.2517 472.1783 594.5989 460.2188 606.8937 458.3187 609.7998 458.0952 612.5941 459.8835 618.5179 461.6718 630.2539 463.0131 635.0601 466.3662 639.3074 475.3079 646.4607 477.5433 649.0315 484.5849 659.2026 487.491 665.4618 488.0498 668.1443 488.3851 674.4035 489.1675 677.3096 490.7323 679.8803 493.0795 681.3333 499.7858 684.1276 505.0391 687.4807 505.4861 688.4867 506.1568 690.8339 507.2745 692.8458 507.3862 693.4046 507.6098 693.8517 508.1686 694.5223 508.8393 694.8576 510.2923 694.9694 510.6276 695.4165 511.1865 695.64 513.9807 697.3166 516.2162 699.8873 516.1044 702.3463 513.9807 706.3701 513.9807 707.2642 514.3161 708.9408 514.2043 709.835 513.5337 712.4057 513.4219 713.5234 513.7572 714.9765 514.3161 716.5413 514.7631 717.3237 515.4338 717.8825 516.5515 718.3296 520.4635 719.112 522.8107 720.4532 527.058 722.8004 528.6228 723.2475 529.8523 723.024 531.1935 720.3415 532.9818 720.6768 534.6584 721.7945 535.4408 722.3534 536.5585 722.3534 537.6762 722.5769 538.4586 723.024 538.7939 723.6946 539.241 724.3652 540.3587 723.6946 541.2529 722.8004 541.5882 722.3534 545.5002 721.3474 546.5062 720.1179 546.2826 717.659 550.6417 719.5591 554.3301 720.6768 558.0186 720.0062 562.2659 716.653 565.7308 723.6946 566.1779 725.5947 565.8426 730.4009 565.619 731.1833 564.5013 732.9716 564.8366 734.0893 565.619 735.207 566.1779 736.8836 565.9543 738.4484 565.2837 741.3545 565.1719 743.031 565.3955 744.484 566.9603 747.7254 566.5132 749.2902 565.619 750.4079 565.3955 751.3021 566.9603 752.4198 568.3015 752.6433 569.6428 752.1963 570.8723 751.4139 571.7664 750.6315 571.99 750.9668 572.1018 751.0785 572.1018 751.1903 572.6606 751.4139 570.537 755.4376 571.7664 758.0084 574.1136 760.132 575.4549 763.1498 575.5667 764.2675 576.2373 766.0559 576.3491 767.0618 575.902 767.6207 574.0019 767.5089 573.5548 767.956 573.7783 769.6326 574.2254 770.862 574.3372 771.9798 573.5548 773.2092 572.4371 774.9976 574.2254 776.0035 578.6963 776.4506 579.3669 778.4625 577.9139 780.4744 575.7902 782.1509 574.449 783.4922 576.3491 790.6455 576.9079 791.9868 578.0256 792.6574 578.3609 793.8869 579.0316 795.2282 580.7081 795.787 581.9376 795.4517 584.7319 794.2222 586.2967 793.8869 587.3026 794.7811 584.9554 799.8108 585.8496 802.3815 586.2967 802.0462 590.9911 801.3756 592.3323 801.9344 591.997 803.4992 590.9911 805.1758 590.544 806.5171 591.2146 808.4172 594.7913 812.1056 596.1326 814.6763 596.915 820.0414 598.0327 820.8238 600.9387 819.259 601.8329 821.0473 601.4976 822.6121 600.827 824.4004 600.9387 826.7476 601.6094 827.9771 605.0743 832.0009 605.2978 833.0068 604.5154 837.7012 605.4096 838.9307 607.4215 838.2601 610.2157 836.2482 611.3334 837.4777 611.1099 838.9307 610.4393 840.4955 610.2157 841.8367 610.6628 843.7369 611.2217 844.9663 613.5689 846.9782 614.2395 848.3195 614.016 849.7725 613.1218 851.7844 614.1277 854.2433 619.0457 858.6024 620.6105 861.6202 620.4987 866.5382 621.0575 867.7677 622.3988 868.4383 625.5284 868.9971 626.7579 869.6678 628.4344 872.3503 629.8875 878.3859 630.8934 881.4037 631.8993 885.4275 645.0883 904.2051 648.8886 905.7699 662.3011 905.9934 667.4426 908.6759 668.225 909.7936 669.2309 910.7996 670.3486 911.4702 673.2547 912.3644 674.4842 913.3703 675.2666 914.7116 675.7136 916.2763ZM415.3986 223.6304L421.6578 224.5245 421.4342 225.1952 413.722 230.7837 406.904 232.9074 404.2215 235.9252 403.7744 233.578 404.6685 230.4484 406.0098 227.6541 408.1334 225.9776 409.3629 224.1892 409.9218 223.6304 411.1513 223.4068 415.3986 223.6304Z" />
</svg>