<?xml version="1.0" encoding="utf-8"?>
<svg xmlns="http://www.w3.org/2000/svg" viewBox="0 0 1021 762" style="stroke-width:0.25px;stroke-linejoin:round;stroke:#444;fill:#ddd" fill-rule="evenodd">
  <path class="HK" d="M708.0645 19.9791L716.8944 19.3085 703.3701 37.0801 694.3166 48.0337 681.1276 61.558 672.2977 61.558 671.18 82.571 686.7162 78.1001 688.0574 70.6114 709.1822 64.5758 716.2238 56.8636 730.0834 30.9327 737.125 29.4796 742.7135 35.5153 752.6612 29.4796 758.2497 35.5153 750.314 51.9457 761.044 49.2631 772.6682 60.105 771.774 73.2939 780.4922 78.9943 794.9107 70.6114 798.152 78.1001 798.152 90.3949 794.3518 106.1547 807.7644 107.0488 815.1413 118.7848 831.9069 126.9441 882.4275 111.7432 893.6046 105.5958 897.8519 116.3259 863.9853 143.7098 844.3135 161.9285 823.077 171.2055 799.2697 181.712 778.2568 197.0246 769.8739 210.6607 751.2081 222.9556 737.125 222.9556 710.6352 187.7476 685.2631 192.5538 675.5391 186.2946 671.18 195.5716 674.086 212.1138 682.4689 216.5846 685.2631 230.3325 672.2977 227.3146 671.18 218.3729 658.4381 210.6607 637.4251 213.6785 630.3835 222.9556 595.8462 230.1089 612.053 239.6095 631.8365 253.3573 654.7496 268.8935 675.5391 283.6473 672.2977 298.96 681.1276 306.4486 671.18 326.4557 682.4689 323.1025 696.552 294.4891 716.0002 275.5998 723.2653 254.9221 733.3248 254.5868 747.0726 263.8638 775.4625 263.8638 779.3745 274.035 775.4625 292.7008 785.0748 304.9956 792.1164 285.2121 814.6942 273.1408 792.1164 238.0447 814.6942 219.9377 837.3837 213.6785 835.9307 197.0246 877.286 167.7406 879.6332 177.2411 889.9162 179.3648 879.6332 198.5894 898.8579 203.5074 903.1052 233.462 893.6046 245.8686 901.9875 262.299 911.5998 250.3395 920.3179 279.1765 928.8125 277.6117 927.4713 243.9685 942.4486 204.6251 956.7553 216.5846 955.8612 233.5738 961.0026 245.8686 989.0572 247.3217 1014.3175 253.3573 1009.9584 268.4464 1017 298.96 995.5399 288.9006 981.9039 286.6651 961.0026 327.7969 969.7208 322.7672 987.6042 348.4746 996.2106 390.1652 990.5102 391.6183 989.0572 381.8942 972.1798 381 977.7683 397.6539 970.7267 414.5314 961.0026 423.473 944.1252 429.5087 938.3131 455.4396 928.8125 441.8035 928.8125 417.5492 910.1468 429.5087 904.8935 415.9844 893.6046 402.2365 896.3989 371.9465 871.3622 361.3283 868.1208 344.4508 852.6964 355.4044 834.7012 359.6517 809.3292 341.433 794.9107 341.433 778.2568 365.7991 786.5278 394.6361 798.152 411.5135 792.1164 425.0378 775.4625 409.9487 773.8977 390.1652 759.591 397.6539 754.4495 409.7252 772.8917 428.391 785.0748 478.2409 793.4576 481.2587 818.8297 486.4002 820.2827 508.5309 827.3243 508.5309 841.5193 505.5131 855.4906 523.8436 844.7606 536.5855 830.4539 546.6449 817.4884 542.0623 814.6942 543.6271 816.0354 554.2453 815.7001 569.4462 834.7012 563.2988 840.178 578.6114 840.178 592.3593 828.6656 599.848 814.6942 587.5531 795.4695 576.1525 798.152 558.8279 786.5278 526.8614 771.2152 514.7901 772.6682 499.4774 773.8977 487.5179 754.4495 475.1113 747.0726 508.5309 749.8669 526.8614 724.4948 554.2453 705.0466 534.4618 675.5391 498.0244 681.1276 516.3549 676.8803 516.3549 646.255 483.0471 630.16 501.6011 638.8781 514.7901 638.8781 520.714 625.0185 514.7901 621.33 529.4321 612.053 536.0266 603.6702 540.6092 595.3991 529.991 597.0757 507.9721 592.6048 498.0244 591.1518 488.971 581.4277 488.971 581.4277 475.2231 568.2387 463.04 542.9784 448.5098 518.0535 436.3267 516.6004 446.2744 498.27 415.9844 494.0227 390.1652 482.8455 382.5648 469.6565 395.8656 436.5723 390.1652 435.1193 396.2009 420.9243 396.2009 415.1122 403.6895 398.4583 399.2187 384.4869 403.6895 365.9329 411.5135 330.9485 420.4552 321.0009 414.5314 321.0009 403.6895 291.6051 403.6895 279.422 393.7419 262.7681 388.6004 252.1498 364.3461 245.22 362.7813 241.0845 349.0334 229.7956 361.44 248.3496 378.2057 212.8064 382.5648 194.5877 397.6539 169.1039 384.0178 160.6092 384.0178 139.8198 370.3817 146.8614 347.4686 132.89 326.4557 108.4121 306.7839 130.8781 287.5593 169.1039 285.2121 187.7696 271.576 211.3534 227.3146 253.6029 209.0959 291.6051 151.1985 302.8939 151.1985 316.9771 155.8928 315.1888 167.7406 314.1828 181.712 321.0009 177.2411 342.2374 171.2055 347.826 171.2055 350.6202 163.4933 349.1672 152.9868 349.1672 137.6741 370.1802 126.9441 398.4583 119.3437 405.3881 111.7432 412.5415 97.9954 426.4011 93.4128 435.1193 90.3949 447.7494 84.1358 442.3844 71.6174 458.8147 61.7815 489.3283 61.7815 499.3877 72.6233 504.9762 75.0823 526.2128 54.5164 542.9784 52.1692 561.9795 54.5164 571.2565 27.6913 585.7868 10.8139 606.1292 4.1076 623.789 19.1967 654.1908 19.1967 691.7459 21.3204 708.0645 19.9791ZM541.5254 754.5393L493.7991 757.8924 499.6112 741.015 499.6112 681.888 481.8396 682.2233 485.6398 669.705 486.3105 643.6623 498.1582 648.3567 505.6469 670.7109 520.6242 687.1413 533.3661 681.888 533.3661 693.9593 520.6242 703.1245 542.9784 701.5597 563.6561 701.5597 572.5978 706.2541 551.8084 720.8961 544.655 730.6202 555.9439 754.7628 541.5254 754.5393ZM682.4689 546.6449L693.646 558.8279 705.0466 555.8101 719.018 561.8458 732.9894 587.5531 747.0726 598.2832 747.0726 618.1784 736.0073 631.7028 742.7135 649.9215 751.2081 666.5754 742.7135 669.705 755.4554 706.2541 732.9894 710.8367 727.2891 703.1245 713.4295 690.9415 713.2059 670.4873 707.5056 647.9096 695.2108 637.7384 684.7043 646.4565 695.2108 649.9215 695.2108 665.1223 688.0574 666.5754 675.5391 681.888 688.0574 701.5597 682.4689 715.3076 689.5105 729.0554 668.2739 733.6381 665.2561 703.1245 671.18 698.5419 666.1503 689.1531 647.2609 698.5419 638.8781 693.9593 647.2609 683.4528 634.6308 675.8524 643.0136 663.5575 638.8781 652.9393 623.2301 649.9215 625.242 633.3793 602.4407 648.4684 595.3991 659.0867 591.1518 659.0867 587.0163 648.4684 584.1102 634.7206 568.2387 625.6671 539.0664 624.2141 526.5481 618.1784 519.2829 602.8658 516.6004 593.8123 508.1058 578.6114 496.8169 574.1406 498.27 561.8458 502.4055 558.8279 511.0119 554.2453 526.5481 546.6449 544.655 540.6092 564.1032 546.6449 577.0686 554.2453 592.6048 558.8279 616.3003 558.8279 633.066 543.6271 648.6022 534.4618 665.9267 541.5034 682.4689 546.6449ZM17.3186 718.996L4.3531 703.7952 2.0059 678.3113 1 657.5219 4.3531 646.6801 22.3483 646.6801 22.3483 627.3437 35.9844 623.767 35.9844 611.5839 24.8073 602.8658 25.7014 602.0834 41.5729 589.7886 54.3149 578.9468 55.5443 575.5936 72.0865 572.5758 84.9402 558.8279 100.3646 532.7853 134.2312 532.7853 152.5617 534.4618 164.9683 548.0979 183.5223 540.6092 225.4365 516.3549 252.1498 522.3905 264.78 501.0422 280.4279 498.0244 293.1699 475.2231 325.2482 449.404 330.9485 463.04 372.9745 429.5087 382.9221 436.3267 392.8697 447.8392 387.2812 463.04 384.4869 479.8057 377.2218 473.5465 363.1386 470.7523 350.6202 470.7523 347.3789 501.154 316.9771 496.5714 316.9771 522.3905 333.9663 514.9019 325.6953 539.9386 328.0425 587.5531 301.5527 587.5531 285.6812 581.4057 307.1413 611.9193 280.4279 633.044 321.0009 660.5397 294.2876 681.888 261.5386 697.2007 259.1914 683.4528 259.1914 640.7562 238.2902 640.7562 221.1892 640.7562 196.1525 640.7562 164.9683 666.5754 152.5617 666.5754 146.8614 675.8524 164.9683 680.435 164.9683 692.2827 148.3144 703.4598 125.1778 705.4717 103.1589 683.4528 100.3646 669.705 84.9402 674.3993 66.4979 687.8119 40.2317 710.5014 17.3186 718.996Z" />
</svg>