<?xml version="1.0" encoding="utf-8"?>
<svg xmlns="http://www.w3.org/2000/svg" viewBox="0 0 1021 687" style="stroke-width:0.25px;stroke-linejoin:round;stroke:#444;fill:#ddd" fill-rule="evenodd">
  <path class="HM" d="M881.0862 446.7766L928.3655 465.8894 976.3153 470.6956 1017 464.7717 751.5435 547.4824 659.6675 645.1704 609.0352 667.9717 479.3806 682.502 419.5831 672.6661 361.015 625.7222 343.8022 602.362 297.4172 526.0223 238.8491 382.5081 226.2189 336.3466 239.5197 306.5037 219.0656 289.6263 207.7767 268.6133 209.3415 246.5944 227.4484 226.3638 192.6876 202.6683 164.7448 190.4853 62.6977 180.7612 32.0724 161.2012 10.9476 123.5343 1 64.2956 59.7916 44.5121 108.3003 4.498 168.3215 72.4549 179.3868 75.3609 192.3523 106.7686 221.5245 143.9884 250.3615 166.9015 263.5505 155.3891 271.0392 110.5689 289.3696 90.5618 312.9534 96.0386 336.8724 126.3286 312.8416 144.4355 335.3076 191.2677 373.0862 199.3152 413.9945 180.2023 445.2904 144.4355 480.0513 161.8718 579.7512 166.2309 620.9947 195.515 640.2194 216.3044 679.7864 233.1818 700.3523 246.3708 713.653 265.7073 740.9252 316.3396 754.5613 326.6226 799.7168 381.8375 818.2708 412.9099 881.0862 446.7766Z" />
</svg>