<?xml version="1.0" encoding="utf-8"?>
<svg xmlns="http://www.w3.org/2000/svg" viewBox="0 0 1021 758" style="stroke-width:0.25px;stroke-linejoin:round;stroke:#444;fill:#ddd" fill-rule="evenodd">
  <path class="HN" d="M1.3353 513.1254L1 507.8722 1.2235 505.1897 2.3413 502.9542 4.0178 501.9483 7.5945 500.9424 8.9358 499.4893 10.6123 496.5833 12.8477 494.1243 17.8774 489.7652 19.4422 487.8651 20.2246 486.5239 21.4541 485.7415 24.2484 485.4062 26.2603 485.7415 30.284 487.1945 32.1842 486.971 34.0843 485.1826 34.8667 482.3883 34.9784 479.3705 34.3078 470.8759 34.8667 469.87 36.5432 467.9699 36.9903 466.6286 36.655 463.7226 36.4315 463.3872 35.7608 462.2695 34.196 460.9283 32.4077 458.5811 29.3899 451.2042 27.8251 448.6334 24.5837 444.6097 23.1307 442.486 22.3483 440.1388 22.5718 437.0092 23.8013 434.9974 27.8251 431.5325 29.3899 429.297 30.6194 427.5087 32.6312 422.7025 32.6312 418.2317 29.5017 415.2139 32.0724 407.5017 34.0843 404.3721 36.3197 402.5837 37.3256 401.6895 42.3553 399.1188 58.8975 393.5303 64.5978 390.8477 85.1637 374.8645 99.2469 363.9109 113.33 352.9573 127.525 341.892 141.7199 330.8266 147.0849 326.5793 158.262 317.7494 165.7507 310.2607 170.6686 301.7661 171.6746 300.5366 175.0277 300.4249 177.7102 299.5307 180.0574 298.1894 182.8517 296.96 183.8576 298.1894 184.9754 295.954 184.8636 294.1657 185.3107 292.6009 187.2108 291.9303 188.2167 292.2656 195.5936 297.6306 199.6174 298.8601 203.8647 296.96 213.3652 286.7888 217.389 284.218 216.4948 281.5355 218.0596 280.9767 224.5424 281.8708 234.0429 276.1705 235.1606 273.8233 235.6077 272.1468 234.6018 271.3644 232.8134 270.9173 231.3604 269.6878 230.6898 268.4583 231.2486 267.8994 238.1784 267.7877 240.8609 266.8935 243.5435 264.9934 248.3496 263.4286 262.321 262.4227 265.3388 261.6403 266.233 259.1813 267.5743 258.846 268.5802 258.5107 271.4862 258.846 274.1688 259.8519 281.4339 264.211 284.2282 264.4345 284.2282 263.4286 282.5516 261.752 284.2282 259.8519 289.9285 256.387 286.7989 260.6343 285.6812 263.3168 287.0224 264.4345 287.9166 265.664 303.2293 279.5237 308.1472 281.6473 313.4004 280.6414 314.2946 279.6354 315.9712 276.9529 316.6418 276.1705 318.3184 275.947 322.4539 276.1705 323.3481 275.4999 324.354 272.5938 326.813 271.1408 330.0543 270.8055 346.82 274.7175 361.5738 279.859 376.6629 281.5355 393.9875 285.5593 399.7996 286.0064 406.0587 285.3358 416.0064 282.4297 418.9124 281.8708 419.3595 281.4238 422.1538 279.3001 422.7127 278.9648 423.6068 278.1824 425.6187 278.9648 427.6306 280.0825 428.413 280.6414 435.3428 281.2002 467.1976 278.4059 472.5626 278.6295 477.5923 280.6414 477.9276 280.8649 481.7278 283.3239 484.1868 283.9945 488.2106 284.218 491.4519 283.771 494.1344 282.4297 509.6706 272.8174 513.6944 268.2348 515.4827 266.7817 521.1831 264.4345 526.7716 263.0933 550.1318 262.1991 552.1437 261.6403 553.8202 260.8579 560.1912 256.1635 563.5443 252.3633 565.1091 248.2277 562.4266 244.7628 552.1437 243.3098 547.2257 242.0803 548.0081 240.1802 552.2554 239.7331 564.8856 242.3039 573.6037 243.9804 579.6394 244.651 587.3516 246.8865 595.0638 248.8983 597.6345 249.3454 599.5347 250.2396 599.87 252.1397 599.87 254.4869 600.3171 256.387 601.5465 256.387 601.4348 255.1575 601.7701 254.7105 602.2172 254.3751 602.6642 254.0398 605.3468 254.1516 606.7998 256.2752 609.7058 258.6224 613.059 261.1932 620.3241 264.211 632.6189 267.5641 641.1135 266.7817 653.2966 265.5523 670.8447 265.1052 680.2334 261.0814 692.0812 252.475 699.9052 247.7806 712.3118 247.4453 720.3593 250.1278 736.0073 257.2812 755.679 263.2051 765.0678 266.4464 767.3032 268.2348 766.2972 270.2466 764.2854 273.3762 764.2854 276.0587 764.2854 280.3061 767.7503 283.6592 770.8799 284.1063 774.9036 282.765 775.4625 279.3001 775.9096 277.7353 777.4744 277.9589 778.5921 279.9707 781.4981 281.9826 785.6337 281.4238 789.5457 281.8708 797.4814 282.8768 798.9344 281.0884 801.5052 280.0825 798.0403 278.6295 793.9047 277.6235 781.051 275.4999 776.2449 273.3762 772.1094 271.3644 770.6563 268.6818 777.2508 270.0231 799.6051 274.2704 814.2471 275.8352 823.9712 276.2823 827.3243 277.4 836.1542 284.8887 848.1138 294.6128 865.7736 309.7019 882.9864 324.5674 892.5987 332.615 905.0053 340.2154 908.0231 342.0037 911.0409 343.345 916.7413 344.3509 918.1943 345.1333 919.312 346.6981 919.4238 348.0394 918.3061 348.9336 915.9589 349.2689 913.0528 348.1512 906.9054 343.2332 902.3228 341.6684 899.1932 339.433 897.6284 338.7624 892.7105 338.6506 890.5868 338.2035 888.6867 336.3034 889.4691 336.0799 890.1397 335.521 890.9221 335.2975 889.4691 333.1738 884.1041 327.1382 882.9864 327.1382 881.198 328.0323 879.0744 326.6911 876.7272 324.791 874.6035 323.785 871.2504 324.1204 869.7974 325.2381 868.5679 326.6911 866.3325 328.2559 865.2147 327.5853 860.7439 325.9087 862.8675 324.1204 863.6499 323.0026 864.097 321.9967 863.3146 321.5496 861.5263 321.2143 859.6262 321.2143 858.3967 321.4378 857.9496 323.2262 858.9556 326.1322 860.8557 329.2618 862.9793 331.7208 862.5322 332.0561 862.4205 332.1679 862.1969 332.3914 861.8616 332.9503 860.7439 332.9503 855.826 323.4497 854.0376 321.4378 852.2493 321.1025 850.0139 321.5496 847.2196 322.4438 845.3195 322.332 842.5252 321.6614 840.6251 321.4378 841.8546 325.2381 842.8605 326.5793 845.8783 327.697 845.9901 329.0383 845.4312 330.9384 845.0959 332.9503 846.2136 332.9503 846.6607 330.3795 849.9021 328.8147 851.4669 324.1204 852.9199 323.6733 854.4847 324.5674 856.7201 330.156 859.2909 334.6268 860.2968 338.4271 856.8319 339.9919 855.0436 341.892 856.273 346.1393 859.0673 350.8337 861.8616 353.7397 866.1089 355.9751 869.5738 356.8693 871.1386 355.3045 869.5738 350.2748 871.6975 352.0631 873.7094 354.2986 874.38 356.9811 873.0387 359.6636 875.2741 362.4579 878.5155 362.905 886.4513 361.899 886.4513 363.1285 884.8865 363.0167 883.7688 363.352 881.9804 364.2462 881.9804 365.2521 883.3217 368.1582 885.3336 370.8407 888.0161 372.7408 891.481 373.5232 894.387 373.0761 898.1872 372.182 901.8757 370.6172 904.3347 368.8288 902.3228 366.8169 895.393 363.1285 894.1635 361.899 893.6046 360.7813 892.934 359.9989 891.481 359.6636 889.6926 359.5518 877.286 355.081 875.1624 353.7397 871.4739 348.2629 869.5738 346.8099 871.0268 345.5804 872.5916 344.6862 876.1683 343.345 890.8103 349.8277 893.1575 353.1809 894.0517 354.9692 896.2871 356.6458 899.0814 357.8752 903.664 358.8812 905.5641 360.2224 907.2407 362.1226 908.6937 364.2462 907.576 365.0286 906.2348 366.1463 905.3406 366.5934 905.3406 367.5993 908.0231 368.1582 910.2585 366.5934 912.0469 366.3699 913.2763 371.2878 912.941 377.547 913.2763 379.2235 914.5058 380.453 915.7353 380.3413 916.5177 379.2235 916.5177 376.9881 917.7472 376.9881 919.2002 380.2295 920.5415 379.4471 923.224 374.5292 925.7947 373.0761 929.1479 372.0702 934.96 371.2878 935.7424 370.5054 935.407 366.5934 935.6306 365.2521 936.7483 364.5815 937.7542 364.6933 938.9837 365.0286 949.4902 367.1523 952.2845 366.5934 952.2845 367.5993 951.2785 368.6053 951.3903 369.2759 951.9492 370.0583 952.2845 371.2878 952.2845 376.3175 951.5021 378.8882 949.602 380.0059 947.7019 379.2235 946.8077 376.3175 946.2488 375.5351 944.7958 374.9762 943.1193 374.6409 941.778 374.5292 940.7721 375.1998 939.8779 376.7646 938.8719 379.2235 938.0895 380.1177 937.4189 380.6766 936.8601 381.459 936.6365 383.2473 936.9718 384.8121 937.9778 385.1474 939.0955 384.5886 939.9897 383.8062 939.0955 382.4649 938.9837 381.3472 939.319 380.3413 939.9897 379.2235 941.2191 379.2235 941.5545 383.3591 942.6722 386.3769 944.684 387.4946 947.8136 386.1534 948.7078 385.1474 950.2726 382.6884 951.1668 381.6825 952.508 380.7883 959.7732 378.2176 959.6614 377.547 958.9908 375.7586 958.3201 374.7527 957.3142 373.9703 956.42 372.9644 955.7494 371.2878 955.1905 368.8288 953.9611 365.6992 951.9492 363.6873 948.9314 365.2521 944.1252 362.3461 941.6662 361.7872 938.8719 363.1285 937.866 361.899 938.2013 361.3402 938.8719 359.6636 936.1894 359.2165 929.1479 356.6458 927.6948 355.6398 926.0183 353.6279 922.5534 352.622 920.0944 351.0572 921.1003 347.9276 923.6711 346.6981 926.2418 348.0394 928.589 350.2748 930.4891 351.3925 932.2774 352.0631 949.8255 361.2284 971.8444 369.6112 980.2273 375.7586 982.1274 379 984.8099 389.8418 987.6042 396.6598 991.9633 403.0308 996.993 407.0546 1017 415.1021 1014.8763 415.4374 1009.3996 415.1021 1007.1641 415.5492 1002.8051 417.5611 995.6517 417.4493 994.9811 417.5611 992.9692 416.7787 991.7397 415.8845 991.8515 414.9903 993.8634 414.0961 986.5982 413.3138 983.804 413.5373 981.345 415.1021 980.5626 412.8667 978.7743 411.8607 976.7624 410.9666 974.6387 409.4018 973.0739 412.3078 970.615 415.1021 967.2618 417.114 963.4616 417.5611 962.0086 416.6669 959.9967 413.6491 959.1025 412.7549 956.9789 412.4196 955.3023 412.6431 954.7435 413.4255 955.8612 415.1021 954.967 416.2198 954.7435 417.2257 954.6317 419.7965 953.0669 418.3435 952.1727 419.0141 951.9492 421.026 952.3963 423.2614 951.5021 422.8143 949.0431 422.1437 949.4902 422.7025 949.9373 423.8202 950.1608 424.4909 947.8136 425.1615 943.7899 428.4029 939.7661 429.8559 938.9837 431.756 938.6484 433.9914 937.9778 436.0033 936.7483 436.0033 935.407 434.3267 932.3892 433.4326 928.7008 433.209 925.5712 433.6561 922.4416 435.1091 921.8827 437.0092 923.3358 441.8154 922.218 441.8154 921.5474 440.3624 920.3179 439.58 918.6414 439.3564 916.6295 439.4682 916.9648 442.1507 913.6117 443.492 904.4464 444.0508 905.6759 445.9509 906.4583 446.8451 907.6878 447.6275 904.67 447.7393 901.4286 448.7452 898.5226 450.4218 896.6224 452.2101 895.6165 450.9806 895.0576 450.5336 894.387 450.31 893.2693 449.8629 894.0517 451.4277 894.2752 452.2101 892.1516 451.6513 889.5809 448.7452 887.569 447.6275 886.7866 451.5395 886.7866 453.1043 887.569 454.4455 871.4739 455.3397 868.6796 455.0044 868.3443 453.6631 867.5619 453.2161 864.7677 453.3278 863.0911 453.1043 862.4205 452.5454 861.9734 451.763 858.2849 449.3041 857.0554 449.4158 855.2671 450.8689 857.1672 454.8926 858.2849 456.4574 859.738 457.7987 859.738 459.1399 858.6202 459.8106 857.9496 459.6988 857.1672 459.3635 855.826 459.1399 854.3729 459.3635 853.4788 460.1459 852.8081 460.9283 851.914 461.4871 847.8902 462.6048 845.543 462.8284 843.5311 462.046 839.6191 457.7987 838.3897 456.7927 836.9366 455.8986 834.7012 455.1162 832.5776 455.3397 831.6834 457.3516 832.5776 465.1756 831.6834 468.9758 828.442 470.6524 826.5419 470.5406 822.6299 469.6464 820.171 469.4229 818.9415 468.5287 817.712 464.1696 816.1472 462.4931 814.0235 465.7344 811.6763 469.9817 808.7703 473.6702 802.6229 475.7938 798.3756 478.2528 796.5872 478.6999 794.1283 478.0293 792.4517 476.5762 790.6634 475.5703 788.2044 476.3527 788.7633 472.9996 789.3221 471.8818 777.4744 471.4348 773.7859 470.6524 767.415 467.9699 764.2854 467.6345 761.2675 469.4229 758.8086 463.6108 757.132 460.8165 753.7789 458.5811 754.0024 456.3457 753.5553 454.3338 750.314 453.8867 750.4257 453.5514 751.6552 451.8748 752.1023 451.4277 749.7551 447.404 746.1784 444.7215 741.9311 443.492 737.6838 443.7155 727.9597 445.5039 725.2772 447.0686 717.7886 454.222 714.8825 456.3457 712.3118 458.134 711.9765 458.3575 709.741 460.3694 708.288 463.0519 707.3938 469.3111 706.9468 470.3171 706.0526 470.6524 703.4818 471.4348 704.376 472.9996 708.9586 476.3527 705.382 479.7058 704.4878 481.0471 708.6233 481.0471 708.3998 481.6059 707.5056 483.8414 701.6935 489.7652 698.2286 491.33 695.4343 489.3182 692.8636 486.4121 689.8458 485.6297 688.6163 488.0887 687.8339 492.6713 687.4986 501.2777 686.9397 502.2836 683.2513 506.3074 683.0277 507.4251 683.363 509.9958 683.2513 511.0018 678.7804 514.4667 681.3512 516.255 684.2572 518.9375 686.3809 522.2906 686.4926 526.0909 684.5925 528.8851 681.2394 530.897 677.2156 532.2383 673.1919 533.0207 667.0444 533.0207 665.3679 533.356 661.4559 535.2561 659.8911 535.7032 658.9969 536.5974 658.3263 537.7151 657.2086 539.1681 656.7615 540.3976 656.3144 540.9564 655.6438 541.0682 653.8554 540.7329 653.1848 540.9564 651.62 542.4095 649.7199 544.8684 648.1551 547.5509 646.9256 551.7982 645.5844 555.0396 643.796 558.281 641.8959 560.6282 637.6486 563.9813 634.9661 565.5461 629.0422 567.2227 628.1481 569.4581 627.701 572.1406 626.248 574.376 623.2301 575.382 620.5476 575.9408 619.0946 576.1644 615.5179 577.2821 613.9531 579.6293 612.3883 581.3058 606.688 583.0942 607.2469 584.8825 606.688 584.9943 606.2409 584.9943 606.0174 585.2178 606.1292 586.0002 605.1232 586.0002 603.6702 585.5531 600.4288 588.4592 598.3052 589.4651 595.3991 589.2416 593.7226 588.7945 592.9402 589.8004 592.7166 593.3771 591.1518 598.5186 590.4812 601.76 591.04 603.213 593.499 603.9954 594.3932 605.8955 594.0579 608.4662 592.7166 611.1487 591.5989 612.2664 591.2636 612.6018 591.1518 612.49 590.8165 612.3782 588.6928 609.9193 585.3397 609.6957 581.5395 609.8075 577.9628 608.578 575.3921 605.3366 573.7155 601.8717 571.8154 598.9657 568.2387 597.4009 566.0033 597.5127 564.5503 598.1833 563.0972 598.5186 560.7501 597.7362 559.7441 596.7303 556.1674 592.0359 544.655 583.653 544.2079 579.1822 545.9963 575.4937 545.9963 573.7054 533.4779 575.4937 531.2425 576.7232 529.4541 578.3998 528.56 579.8528 528.0011 581.4176 526.7716 583.5413 524.8715 585.5531 522.8596 586.6708 520.9595 587.3415 519.2829 588.571 513.6944 597.2891 502.9644 608.9133 500.3936 612.9371 499.1641 617.9668 498.1582 620.4257 496.2581 622.6612 493.7991 623.7789 490.8931 624.5613 482.3985 625.1201 481.2807 624.8966 479.716 624.4495 478.8218 623.7789 476.251 621.0964 473.7921 621.4317 471.6684 622.5494 469.3212 623.3318 466.4152 622.5494 460.9384 619.5316 454.5674 619.8669 441.2667 622.4376 434.1133 621.5435 430.7602 621.8788 427.0717 623.7789 425.1716 625.0084 424.3892 625.679 424.0539 626.7967 423.7186 629.0321 423.6068 632.0499 423.1597 640.9916 423.3833 642.4447 424.0539 643.3388 424.7245 643.7859 426.1776 644.9036 426.7364 646.0213 426.8482 648.7039 425.8422 654.0689 425.954 656.8631 431.2073 676.982 430.9837 679.6645 428.8601 684.2471 428.6365 686.7061 429.1954 688.2708 430.2013 688.8297 431.319 689.0532 432.325 690.0592 433.5545 692.1828 433.8898 693.1888 434.8957 697.9949 434.5604 700.5657 433.2191 702.8011 430.9837 704.813 429.866 705.7072 428.6365 706.4895 427.1835 706.8249 425.6187 706.3778 416.2299 701.6834 413.4356 701.4598 410.7531 702.2422 408.6295 703.6953 400.8055 710.5133 399.4642 712.1899 398.3465 714.4253 397.1171 719.1197 396.8935 719.5668 397.2288 720.5727 398.4583 723.2552 398.6818 723.5905 397.3406 732.4205 397.6759 733.5382 398.6818 733.8735 399.2407 734.5441 398.7936 736.1089 398.0112 737.0031 395.664 738.2326 394.6581 738.9032 390.8579 744.9388 388.9578 746.9507 384.8222 749.6332 381.4691 751.198 380.5749 753.9923 378.6748 753.8805 374.8746 751.5333 372.5274 751.3098 335.084 753.657 335.1958 753.657 336.7606 752.5393 337.2077 750.4156 338.4372 748.7391 340.1138 747.5096 342.3492 746.7272 342.3492 745.7212 337.8783 745.4977 334.637 744.8271 332.178 743.4858 330.0543 741.0268 329.0484 739.3503 328.7131 738.4561 329.0484 735.7736 330.0543 735.4383 335.084 734.6559 336.7606 734.097 327.2601 731.6381 322.0068 731.0792 318.8772 731.9734 317.8713 731.9734 317.4242 725.4906 315.1888 718.8961 312.0592 713.084 308.9296 708.8367 307.9237 706.266 307.7001 706.0425 307.253 705.3718 306.3589 705.4836 305.2411 705.7072 304.4587 705.4836 303.341 703.9188 302.7822 702.5776 303.0057 701.2363 304.4587 699.6715 305.8 698.7773 308.5943 697.4361 310.0473 696.2066 313.2887 691.624 314.5182 690.5063 316.6418 690.9534 319.2125 690.3945 324.4658 688.2708 324.2422 686.9296 324.2422 685.9237 324.4658 684.8059 322.1186 682.5705 321.0009 681.7881 319.4361 681.4528 316.1947 682.0117 314.9652 681.7881 313.4004 680.2233 310.6062 682.2352 309.712 683.1294 308.9296 684.8059 308.5943 687.0414 309.1531 688.2708 309.2649 689.165 307.7001 690.5063 306.6942 690.618 300.9938 690.5063 298.4231 691.0651 296.9701 691.1769 295.4053 690.5063 295.4053 689.3886 297.7525 689.3886 297.7525 688.2708 294.7347 687.6002 291.4933 686.4825 288.699 686.259 286.5754 688.2708 285.4576 688.2708 285.793 686.7061 287.5813 682.4587 285.3459 681.5646 284.787 679.7762 285.4576 675.0818 284.5635 672.5111 282.5516 672.9582 280.2044 674.8583 278.6396 676.7584 280.2044 681.5646 277.7454 685.9237 273.3864 689.2768 268.692 690.5063 265.7859 689.9474 261.9857 687.6002 258.8561 686.5943 258.6326 685.3648 258.6326 684.2471 258.0737 683.6882 256.5089 683.6882 255.3912 683.3529 253.044 682.5705 265.8977 676.6466 268.692 673.4053 269.1391 671.2816 268.8037 669.0462 268.0213 667.0343 266.6801 665.5813 264.3329 664.6871 260.868 665.8048 259.1914 665.1342 257.5149 661.334 258.409 656.7514 262.321 647.2508 262.7681 644.233 262.6563 637.9738 263.2152 635.0678 264.6682 632.9441 266.233 631.3793 267.0154 629.591 266.0095 626.7967 266.7919 624.1142 270.145 616.5138 271.598 614.0548 268.692 612.8253 264.1094 608.9133 261.5386 606.6779 260.5327 606.119 258.2972 605.2249 257.4031 604.666 256.0618 602.7659 254.497 598.295 252.9322 597.0656 250.4733 597.1773 248.9085 598.5186 247.5672 600.3069 245.8906 601.4246 244.3259 601.5364 241.1963 600.8658 239.5197 600.754 238.2902 601.2011 236.1666 602.7659 235.3842 603.213 234.2664 602.8777 231.9193 601.3129 231.0251 601.0893 230.578 600.9776 228.2308 601.6482 220.7421 605.4484 219.4009 601.2011 216.7184 598.0715 213.7006 595.2772 211.3534 592.4829 209.0062 586.2238 207.1061 584.659 202.8587 584.4354 194.3641 585.4414 191.6816 585.3296 187.7696 584.5472 187.4343 584.4354 184.9754 584.1001 183.2988 584.7707 183.2988 585.3296 183.4106 588.6827 183.7459 589.2416 185.1989 590.5828 185.5342 591.0299 184.7518 593.3771 183.6341 593.6007 182.2928 593.3771 180.281 594.1595 179.275 595.389 178.6044 596.5067 178.0455 597.5127 176.7043 598.7421 174.916 599.301 173.0158 599.5245 171.2275 600.1952 170.1098 602.207 168.9921 601.76 167.7626 601.4246 166.4213 601.2011 165.4154 601.3129 164.8565 601.8717 164.7448 602.8777 164.7448 603.8836 164.5212 604.3307 163.4035 604.2189 160.721 603.213 159.1562 603.1012 152.6735 604.5542 149.6557 605.8955 146.6378 607.6838 142.2788 607.9074 143.7318 605.5602 143.62 602.8777 141.8317 598.5186 141.3846 596.842 141.7199 594.3831 142.2788 592.3712 142.3905 590.3593 141.6081 588.571 141.3846 588.1239 142.0552 588.2356 142.2788 588.1239 142.2788 588.0121 142.3905 587.6768 142.5023 587.1179 141.0493 585.6649 139.4845 584.9943 132.3311 584.4354 119.9245 580.5234 115.789 580.1881 111.6535 580.8587 110.6475 581.3058 110.6475 580.9705 110.7593 580.0763 110.3122 578.7351 109.5298 577.6174 108.4121 576.6114 107.6297 576.2761 104.053 575.829 101.5941 574.1525 101.5941 571.8053 102.6 569.011 102.7118 566.105 101.5941 564.2048 100.141 564.4284 98.4645 565.4343 96.5644 566.2167 89.411 565.6579 86.505 566.105 85.499 561.2988 83.04 556.2691 79.5751 552.0218 75.5514 549.451 72.9806 549.3393 70.7452 550.3452 68.8451 551.4629 67.2803 551.7982 65.8273 550.7923 65.2684 549.004 65.1567 547.6627 65.0449 546.8803 64.3743 544.7567 62.9212 542.2977 61.4682 540.3976 57.3327 537.268 56.5503 535.815 55.8796 530.6735 54.8737 528.5498 52.303 527.2086 46.7144 526.538 44.8143 524.9732 45.4849 523.2966 45.5967 521.62 45.2614 519.9435 44.479 518.3787 43.5848 517.1492 42.6906 516.3668 41.7965 516.1432 40.3435 516.5903 39.0022 517.9316 36.655 522.5142 35.202 523.8554 27.6015 521.62 23.466 518.714 15.1949 516.9256 10.1652 514.4667 3.7943 513.4607 1.3353 513.1254ZM286.0165 702.0187L286.4636 703.2482 286.24 705.8189 284.4517 708.2779 280.875 708.8367 278.9749 708.6132 278.1925 708.2779 277.5219 707.719 277.5219 706.7131 278.6396 706.7131 278.0807 705.8189 277.0748 703.9188 276.4042 703.0246 279.0867 702.2422 281.2103 701.9069 286.0165 702.0187ZM284.787 688.8297L286.4636 689.2768 290.8227 688.3826 293.2816 688.2708 293.2816 689.3886 290.3756 690.618 292.3875 697.3243 289.9285 699.6715 282.3281 697.2125 278.8631 695.0889 279.3102 692.1828 281.4339 689.0532 282.8869 688.0473 284.787 688.8297ZM406.0587 223.8616L407.0647 224.8675 405.6117 227.6618 406.0587 229.5619 402.9292 229.4502 400.4702 230.1208 395.9993 231.9091 392.1991 234.1446 389.7402 232.2444 386.7223 231.1267 388.0636 229.2266 395.3287 225.6499 399.576 224.7558 401.9232 224.3087 404.1586 223.7498 406.0587 223.8616ZM450.4319 197.0365L451.5496 192.901 456.244 188.989 462.7267 184.9652 467.7564 182.8416 477.4805 178.1472 488.0988 174.5705 495.1404 172.5586 500.0583 171.888 506.541 172.3351 511.5707 172.5586 519.6183 172.6704 516.2651 173.6763 512.8002 175.4647 509.6706 174.4587 504.7527 175.6882 501.2878 174.9058 498.3817 175.3529 497.264 175.9118 495.0286 177.4766 494.0227 177.9237 492.5696 177.9237 490.2224 178.4825 487.3164 180.6062 481.2807 183.624 475.4686 185.7476 469.2095 190.2185 463.6209 191.895 459.9325 192.3421 457.3617 194.8011 454.6792 197.3718 451.4378 199.719 450.4319 197.0365ZM563.7679 166.9701L566.3386 162.3875 568.127 160.0403 573.6037 157.5813 576.6216 158.699 579.0805 160.8227 578.2981 162.8345 574.7215 163.2816 573.8273 165.7406 571.7036 168.6466 568.4623 168.8702 566.3386 171.3292 557.9558 176.9177 557.2851 175.4647 558.9617 172.4469 561.1971 168.1996 563.7679 166.9701ZM884.8865 4.0077L886.116 4.1195 887.3454 4.343 888.4631 4.7901 889.5809 5.2372 888.0161 5.5725 886.6748 5.5725 885.5571 5.0136 884.8865 4.0077Z" />
</svg>