<?xml version="1.0" encoding="utf-8"?>
<svg xmlns="http://www.w3.org/2000/svg" viewBox="0 0 1021 1005" style="stroke-width:0.25px;stroke-linejoin:round;stroke:#444;fill:#ddd" fill-rule="evenodd">
  <path class="HR" d="M519.3947 15.4571L520.4007 16.2395 527.8893 20.9339 530.1248 23.2811 531.2425 23.2811 531.9131 21.0457 533.0308 20.1515 534.3721 20.375 535.9369 21.381 540.5195 22.2751 544.2079 24.8459 547.3375 28.7579 550.1318 33.4523 553.3732 37.6996 558.6264 40.9409 560.6383 45.4118 561.8678 45.4118 563.0972 41.8351 564.3267 42.6175 569.0211 43.7352 569.8035 44.0705 570.5859 44.6294 571.2565 45.4118 572.0389 46.3059 573.1567 47.3119 573.6037 46.5295 573.9391 45.4118 574.945 45.4118 577.0686 47.5354 578.6334 49.6591 579.6394 51.0003 581.316 55.1359 580.7571 59.0479 582.0983 62.7363 583.7749 67.766 584.8926 69.219 586.2339 70.3367 592.6048 77.8254 596.8521 85.8729 598.5287 87.9966 607.6939 95.4853 609.0352 97.3854 609.9294 100.0679 611.9413 102.1915 620.2123 108.4507 622.7831 109.792 636.7545 110.2391 638.6546 111.3568 645.5844 120.4102 646.4785 122.7574 648.714 130.6932 649.0493 133.1521 650.2788 137.2877 652.9613 138.2936 655.7556 138.7407 657.3204 140.8644 656.0909 141.0879 653.8554 142.0938 652.7377 142.4292 652.7377 144.1057 655.3085 144.9999 655.532 145.2234 657.3204 146.7882 659.1087 147.2353 660.897 144.1057 661.903 148.353 661.6794 150.4767 662.2383 151.2591 665.7032 151.0355 669.727 149.4707 671.6271 150.2531 672.7448 154.2769 673.6389 153.4945 674.3096 152.7121 674.7567 151.9297 676.2097 151.0355 690.8517 151.7062 698.2286 153.1592 704.4878 156.0652 712.6471 164.6716 713.8766 167.0188 714.1001 169.0307 714.9943 172.7191 715.2178 175.5134 715.4414 176.8547 715.7767 178.5312 717.1179 179.4254 721.0299 179.649 742.0429 186.1317 747.0726 189.8201 750.4257 195.6322 750.4257 196.7499 752.5494 196.3029 753.4436 194.5145 754.3377 192.6144 755.9025 191.7202 758.6968 191.7202 770.6563 191.7202 788.6515 196.7499 790.6634 196.7499 792.5635 195.9675 795.5813 193.8439 797.0343 193.285 811.2293 193.285 814.3589 194.4028 819.7239 198.3147 823.6359 198.4265 826.5419 201.5561 829.5597 202.7856 832.4658 201.5561 835.2601 199.9913 838.0543 199.9913 840.8486 203.7915 840.9604 203.7915 842.0781 204.1268 843.1958 204.2386 844.4253 204.1268 845.6548 203.7915 849.0079 201.109 854.9318 193.7321 857.7261 191.832 861.6381 193.6204 866.1089 191.9438 873.4858 185.5728 875.6095 183.1139 879.2979 175.737 881.8686 172.8309 882.0922 172.7191 882.651 171.2661 883.0981 168.2483 883.7688 167.0188 887.6807 163.1068 890.8103 162.4362 899.4167 165.454 906.123 169.0307 908.2466 169.2542 910.035 168.2483 910.8174 166.5717 911.5998 164.2245 913.2763 161.6538 915.5118 163.6657 916.2942 163.6657 917.4119 163.6657 920.3179 161.542 923.7828 160.5361 925.6829 159.5301 927.3595 157.5183 929.9303 157.2947 930.9362 161.0949 927.9184 163.1068 926.5771 164.3363 925.0123 166.2364 928.589 169.0307 930.3773 171.0426 930.9362 172.9427 929.5949 174.6193 927.4713 175.0663 921.9945 175.5134 921.5474 182.3315 921.1003 183.7845 920.5415 184.7904 920.2062 185.9081 920.8768 187.3612 923.4475 190.0437 924.677 192.1673 929.7067 198.4265 930.4891 202.115 931.2715 209.6036 932.6128 212.7332 935.0717 214.6333 937.9778 216.3099 940.4367 218.5453 941.4427 222.122 940.5485 224.2457 935.7424 230.7284 933.8422 232.1814 931.8304 234.3051 931.048 238.8877 930.9362 243.4703 930.2656 245.5939 931.7186 246.8234 935.1835 252.412 936.8601 253.9768 939.9897 253.9768 942.2251 252.1884 944.0134 250.0648 947.0312 248.5 948.4843 247.4941 950.0491 247.047 951.6139 248.1647 952.6198 250.1766 953.1787 251.4061 953.9611 252.5238 955.6376 253.9768 958.5437 255.318 961.0026 255.8769 963.2381 257.1064 965.1382 260.6831 960.2202 265.601 949.9373 264.148 948.596 263.9244 946.2488 269.9601 946.3606 274.4309 947.2548 277.337 949.7138 279.9077 952.2845 284.155 950.8315 287.5081 946.4724 288.1788 942.6722 290.3024 943.0075 295.1086 946.1371 297.344 946.2488 297.344 948.149 298.0146 949.3784 299.4677 952.0609 301.4795 955.9729 301.4795 958.4319 301.9266 961.1144 302.9326 963.4616 305.3915 963.9087 307.7387 964.8029 312.8802 974.1916 318.357 980.7861 321.1513 991.6279 326.5163 996.7694 328.0811 1011.9703 329.7576 1015.2117 331.3224 1017 336.2404 1016.6647 341.9407 1014.6528 343.9526 1014.0939 344.5114 999.2284 345.1821 998.446 344.6232 996.993 342.3878 996.2106 342.0525 994.9811 342.4996 994.3105 343.6173 993.8634 344.735 992.9692 345.2938 985.7041 346.2998 982.1274 346.0762 978.7743 344.8468 976.8741 342.9466 973.6328 338.2523 971.6209 337.1345 967.8207 338.0287 969.0502 341.6054 971.2856 346.188 970.615 350.2118 966.8147 350.8824 957.2024 349.9882 954.6317 352.3354 954.8552 354.4591 956.1965 356.3592 957.873 358.0358 959.2143 359.7123 960.5556 362.7301 961.0026 365.0773 961.6733 370.8894 963.1263 378.0428 963.3498 380.6135 962.9028 382.9607 962.1204 385.8668 961.5615 388.8846 961.8968 391.3436 963.7969 393.0201 967.2618 391.6789 968.8266 393.4672 969.4972 397.1557 968.2678 398.944 966.3677 399.7264 964.6911 400.7323 962.0086 405.315 960.4438 407.4386 958.3201 408.6681 955.8612 408.3328 952.3963 404.5326 950.0491 403.8619 945.4664 406.4327 945.9135 411.3506 949.602 418.3922 947.7019 418.951 942.5604 419.0628 927.9184 419.5099 922.5534 417.7216 919.7591 415.8215 915.5118 413.0272 909.5879 406.6562 907.7996 399.7264 909.029 397.3792 912.7175 394.4732 913.2763 392.126 913.0528 391.2318 912.1586 390.1141 911.7116 389.3317 911.5998 388.6611 911.5998 387.3198 911.5998 386.8727 911.0409 385.4197 910.5938 384.302 909.9232 383.6314 908.6937 383.1843 903.8876 382.7372 901.8757 381.843 899.752 379.384 893.3811 366.195 892.4869 365.0773 891.481 364.5185 890.3633 364.6303 889.4691 365.5244 888.9102 366.9774 888.5749 368.4305 888.1278 369.66 886.4513 370.4424 884.9982 369.8835 883.8805 368.2069 882.8746 366.3068 881.7569 363.0655 880.9745 361.9477 879.6332 361.3889 878.5155 361.6124 876.0565 363.0655 874.9388 363.5125 873.5976 363.4008 870.8033 362.7301 869.3503 362.6184 866.8913 363.7361 866.8913 364.1832 866.7795 365.8597 867.6737 368.8776 867.8972 372.2307 863.7617 372.1189 859.2909 370.4424 857.7261 369.4364 855.0436 367.7598 852.5846 365.0773 848.6726 360.83 845.7666 358.3711 842.4134 356.8063 830.3421 355.8003 827.7714 354.6826 819.9474 348.9823 815.8119 347.4175 811.5646 348.3117 809.6645 350.6589 809.2174 353.6767 809.1056 356.8063 807.9879 359.2652 804.9701 361.1653 801.2816 361.9477 799.6051 361.9477 797.4814 361.9477 794.24 361.2771 790.4398 359.4888 780.8275 350.7706 778.145 349.3176 775.4625 349.3176 772.8917 350.6589 762.3853 363.289 759.591 365.9715 758.138 366.7539 753.3318 367.7598 748.3021 369.8835 746.6255 370.107 743.1606 368.654 740.031 365.748 730.3069 353.2296 725.7243 348.7587 720.5828 345.7409 714.8825 345.4056 711.1941 347.4175 704.8231 354.1238 701.2464 356.471 699.4581 356.6945 695.6579 356.2474 686.9397 357.4769 685.7102 357.924 686.6044 356.3592 688.1692 351.2177 684.0337 353.4531 682.0218 353.7884 679.8981 353.0061 681.1276 351.4413 681.5747 350.1 681.4629 348.7587 680.457 347.0822 679.1157 346.2998 678.3333 347.1939 677.8862 348.7587 677.5509 349.5411 671.7388 351.4413 668.6092 351.7766 666.262 350.4353 664.6972 348.9823 658.9969 345.2938 655.7556 343.9526 649.0493 339.5935 645.8079 346.7469 645.0255 347.8646 636.8662 348.5352 634.9661 349.5411 624.2361 344.5114 619.7652 342.4996 612.3883 336.911 609.0352 329.5341 608.0293 330.4283 605.3468 332.2166 604.229 332.999 605.0114 330.9871 605.1232 329.5341 604.8997 328.0811 604.229 326.181 602.5525 329.3106 600.7641 328.0811 598.6405 325.5103 596.1815 324.5044 596.8521 326.181 597.2992 327.8575 593.7226 328.3046 592.7166 326.9634 592.8284 324.8397 592.6048 322.9396 591.2636 317.7981 589.8106 316.3451 585.1162 320.3689 584.5573 321.4866 583.2161 323.4985 581.4277 325.5103 579.9747 326.4045 579.0805 329.087 577.2922 330.3165 575.3921 331.0989 573.7155 332.8872 572.7096 335.7933 572.8213 337.9169 572.5978 339.7053 570.4741 341.6054 566.0033 342.1642 531.8013 331.8813 521.7419 331.546 513.6944 337.1345 508.1058 349.6529 505.7586 353.3414 503.8585 354.7944 499.3877 356.1356 497.7111 357.2534 496.4816 359.4888 496.4816 360.9418 496.8169 362.5066 496.4816 365.4127 495.6992 367.3128 492.2343 373.9073 490.3342 380.8371 489.44 384.302 485.1927 385.4197 478.8218 383.9667 472.2273 381.1724 467.4211 378.0428 451.6614 362.2831 448.6436 358.3711 445.0669 348.7587 442.3844 344.3997 440.2607 342.7231 436.4605 341.9407 435.0075 340.823 435.1193 339.7053 435.6781 337.9169 435.7899 335.7933 434.3369 333.5579 432.2132 332.5519 430.3131 332.4402 426.4011 333.2226 409.9707 332.7755 400.6937 334.3403 396.7817 337.8052 395.1052 339.4817 393.0933 344.8468 392.9815 346.6351 393.5404 361.1653 392.8697 364.9656 388.846 375.4721 388.7342 380.0547 390.7461 387.4316 390.0755 391.6789 385.8282 399.1675 385.0458 401.7383 384.4869 403.4149 385.0458 409.5623 387.393 414.3684 390.1872 418.8393 391.752 423.4219 390.9696 427.6692 387.9518 429.1222 384.4869 430.2399 381.9162 433.5931 382.1397 437.6168 384.0398 441.7524 388.3989 449.0175 389.4048 450.247 393.4286 453.0413 394.7699 455.2767 395.8876 457.7356 397.3406 459.3004 399.9113 458.9651 401.4761 458.4063 404.6057 458.1827 406.0587 457.6239 407.4 456.1708 408.2942 454.0472 409.5237 452.4824 411.6473 452.7059 412.8768 454.0472 413.4356 456.2826 413.8827 458.8534 414.5534 460.977 415.7828 462.3183 417.2359 461.8712 418.6889 461.0888 420.0301 461.2006 421.8185 463.8831 423.1597 469.9187 425.3952 473.2718 427.1835 474.3895 429.3072 475.1719 433.5545 475.7308 435.6781 476.7367 437.0194 478.9722 437.8018 481.99 438.4724 485.3431 438.2488 485.5667 436.7958 486.2373 436.0134 489.4787 433.2191 493.0553 431.8779 496.9673 435.3428 500.7675 438.9195 501.2146 445.1787 498.4204 448.8671 499.091 450.7672 501.6617 451.9967 505.909 452.8909 510.6034 457.1382 522.5629 458.2559 527.0338 458.2559 530.834 457.2499 532.5106 455.7969 533.5165 454.6792 534.5224 454.5674 536.3108 455.2381 535.6402 457.1382 535.6402 460.2678 536.5343 463.8444 538.7697 465.6328 540.6699 466.1916 542.9053 466.1916 543.0171 465.7446 547.0408 465.1857 549.0527 463.3974 552.9647 462.8385 555.6472 463.062 559.2239 464.7386 566.7125 467.8682 577.1073 470.6625 581.2428 478.1512 589.2903 480.7219 593.6494 484.5221 603.0382 486.9811 607.2855 490.3342 610.5268 492.2343 612.0916 493.9109 612.9858 495.811 613.2094 500.2818 612.874 501.9584 613.5447 504.1938 617.2331 504.9762 620.8098 506.4293 623.6041 513.9179 626.3983 516.9358 628.7455 519.6183 631.8751 521.5184 634.6694 526.4363 641.9345 534.8191 650.5409 540.4077 658.3649 547.5611 664.9594 548.7905 668.4243 549.4612 672.4481 550.9142 677.5895 553.3732 681.5015 572.486 696.8142 599.7582 724.757 608.0293 734.4811 613.5061 739.399 617.418 742.8639 627.3657 748.5642 644.0196 751.135 649.3846 754.7117 652.0671 760.8591 648.8257 780.7543 652.7377 792.6021 659.3322 802.7733 666.3738 809.3678 669.8387 811.6032 671.6271 813.168 672.8565 815.7387 674.1978 820.5449 676.2097 825.1275 678.8922 828.2571 680.3452 829.263 703.8172 844.7992 705.7173 846.9229 710.9705 853.1821 716.2238 865.5887 716.2238 865.7004 716.7826 872.1832 711.9765 875.7598 702.6994 877.7717 702.5877 877.66 697.3344 874.6421 694.7637 875.7598 691.5223 873.748 688.6163 870.7301 686.8279 868.2712 684.4807 863.8003 683.8101 861.0061 685.2631 858.8824 689.1751 856.8705 686.7162 855.8646 683.9219 856.9823 680.7923 858.7706 677.4392 860.0001 678.6686 859.4413 682.0218 856.8705 680.3452 856.7587 678.6686 856.5352 677.2156 855.641 676.0979 853.6292 677.4392 851.9526 676.3215 849.8289 676.0979 848.823 672.4095 851.9526 666.5974 846.6993 657.2086 834.181 632.5072 821.3273 626.5833 816.4094 623.6772 814.9563 622.4477 813.8386 621.33 810.8208 620.1006 809.4795 618.3122 808.6971 616.6356 808.3618 615.5179 807.803 614.2884 806.4617 612.5001 803.5557 612.1648 802.5497 611.6059 799.4201 611.3824 798.526 610.6 798.1906 608.3646 797.52 607.6939 797.0729 591.4871 775.9482 586.681 772.7068 584.8926 771.0303 583.6631 769.4655 582.3219 768.3477 560.1912 765.1064 550.1318 760.6355 538.3958 758.0648 522.7479 746.6641 522.5243 746.1053 522.4125 744.9876 521.9655 743.9816 521.0713 743.4228 519.9536 743.7581 518.3888 744.8758 517.6064 745.0993 511.0119 743.4228 498.1582 743.4228 498.1582 741.858 501.5113 741.858 505.5351 740.852 509.2235 739.1755 512.2414 736.94 509.3353 735.1517 505.4233 734.2575 488.7694 733.9222 486.6458 734.4811 483.5162 736.6047 482.2867 736.94 479.1571 737.4989 472.0037 739.7343 450.9908 740.1814 450.9908 741.858 456.6911 743.311 459.1501 745.0993 460.4913 748.4525 449.873 748.4525 450.2084 751.0232 447.7494 750.7997 442.1608 748.4525 437.5782 748.2289 435.6781 747.223 433.2191 745.0993 432.1014 745.0993 432.1014 746.6641 430.0895 745.2111 426.1776 745.3229 424.9481 743.4228 424.8363 743.8699 424.8363 744.5405 424.6128 745.0993 423.8304 745.0993 424.1657 742.4168 425.0598 741.9697 426.4011 742.0815 427.9659 741.0756 428.5248 739.5108 428.0777 738.3931 427.7424 737.1636 428.6365 735.3752 425.8422 735.7106 424.7245 736.0459 423.8304 736.94 423.2715 734.7046 421.8185 733.4751 417.9065 732.1339 420.8125 731.7986 421.1479 730.2338 419.6948 728.669 416.677 728.7807 416.677 727.216 417.4594 726.7689 418.3536 725.9865 419.136 725.4276 417.3476 724.1981 416.677 723.8628 417.9065 722.4098 416.677 720.7332 417.9065 719.0567 416.7888 715.48 418.6889 714.1387 424.9481 714.2505 424.9481 712.4622 417.2359 710.8974 414.4416 710.8974 416.4535 709.5561 418.13 709.6679 419.5831 710.4503 420.9243 710.8974 422.7127 710.2267 422.3773 708.6619 420.9243 706.9854 419.136 705.9794 421.4832 705.0853 422.6009 703.2969 422.2656 701.285 420.2537 699.3849 420.3655 703.8558 418.9124 704.0793 414.7769 700.5026 412.3179 698.379 411.2002 698.4908 409.6354 698.1554 408.5177 697.7084 407.5118 696.5906 405.0528 692.7904 403.9351 691.4492 397.0053 687.4254 394.9934 685.5253 391.4167 684.2958 380.2396 683.4017 377.8924 680.7191 376.1041 675.3541 372.0803 673.454 367.6095 672.2245 364.927 668.6479 370.0684 670.8833 372.8627 671.5539 375.5452 671.8892 375.5452 670.1009 374.5393 669.6538 373.8686 669.6538 373.4216 669.9891 373.3098 670.1009 368.6154 666.0771 357.5501 660.4886 352.8557 656.4648 352.5204 656.2413 349.0554 650.7645 346.82 648.1937 344.3611 647.1878 341.7903 646.7407 340.2255 646.2936 338.8843 645.623 336.9842 644.17 336.09 642.6052 335.4194 640.9286 334.1899 639.0285 324.8011 627.6278 320.3303 620.8098 317.2007 617.5684 313.7358 616.1154 306.4706 607.2855 306.5824 606.5031 298.8702 598.0085 296.9701 596.8908 295.4053 595.5495 294.6229 593.8729 295.2935 591.414 292.611 589.5139 283.6693 580.1251 286.3518 575.8778 284.8988 570.5128 281.3221 565.9301 277.7454 563.5829 279.7573 561.124 282.8869 559.2239 285.9047 559.7827 287.1342 564.3653 289.1461 567.0479 292.8345 565.2595 294.5111 561.5711 290.5991 558.5532 291.9404 558.2179 292.1639 557.7708 292.2757 557.6591 292.9463 558.5532 294.2876 558.5532 293.3934 555.6472 292.8345 554.6413 301.3292 560.3416 304.9058 565.036 306.8059 566.6008 309.4884 566.8243 307.253 558.5532 308.7061 557.9944 309.4884 557.3238 309.9355 556.4296 310.8297 555.2001 308.4825 554.5295 306.5824 552.6294 305.0176 550.0586 303.6763 547.1526 307.0295 548.3821 311.8356 552.7411 316.7536 554.6413 329.0484 561.6828 331.7309 562.6888 345.367 564.8124 349.0554 564.4771 349.7261 561.7946 347.2671 560.2298 335.9782 558.5532 335.1958 557.7708 329.9426 551.0646 328.6013 550.0586 311.7239 541.8993 309.2649 539.4404 285.4576 514.8507 277.2983 503.5618 272.4922 498.1968 267.686 495.8496 267.0154 494.7319 261.4268 490.1493 259.9738 490.0375 258.9679 487.9139 241.7551 460.8652 238.7373 452.8177 240.7492 449.7999 240.5256 446.2232 239.4079 441.9759 238.7373 437.058 238.2902 423.6454 238.7373 419.3981 242.4257 404.0855 244.1023 400.397 245.22 395.8144 243.9905 390.2259 234.0429 367.0892 233.3723 362.9537 231.6957 360.0476 229.0132 358.0358 218.5067 352.3354 199.8409 337.8052 191.1228 326.181 188.6638 324.8397 185.7578 321.8219 184.5283 318.4688 186.8755 316.1216 184.8636 314.1097 178.6044 309.4153 181.734 313.1037 182.2928 313.5508 181.6222 315.4509 180.1692 316.5686 178.3809 316.4569 176.9278 315.3392 174.5806 312.6567 155.9149 303.1561 149.3204 301.5913 146.1908 299.9147 143.3965 299.3559 140.2669 301.8149 136.6902 307.5152 133.4488 315.0039 131.2134 323.3867 129.3133 340.2641 127.0779 348.0881 126.9661 348.4234 126.7426 349.3176 122.7188 355.0179 117.5773 353.0061 120.2598 356.3592 119.9245 360.0476 117.8009 363.5125 115.0066 366.3068 113.8889 364.5185 113.2183 366.5304 113.2183 368.2069 113.8889 372.7895 113.2183 372.3425 112.1006 371.7836 111.4299 371.3365 111.4299 372.7895 114.1124 375.9191 115.3419 381.1724 114.8948 386.7609 112.7712 391.2318 110.7593 392.6848 109.418 392.573 108.0768 391.6789 106.1767 391.2318 104.1648 392.0142 102.1529 393.9143 100.5881 396.1497 99.6939 398.0498 98.5762 398.0498 99.0233 393.2437 100.3646 391.12 101.147 388.9964 99.6939 384.5255 96.1173 381.2842 95.5584 379.384 95.8937 377.7075 95.6702 376.478 93.6583 376.2545 94.3289 379.1605 93.5465 383.4078 94.3289 385.4197 96.1173 386.5374 97.7938 386.7609 99.0233 387.3198 99.6939 389.667 97.9056 391.5671 95.4466 396.3733 94.3289 397.6028 93.6583 396.3733 92.6524 396.3733 93.323 398.0498 93.6583 400.0617 93.4348 402.2971 92.6524 404.6443 91.3111 404.1972 90.5287 404.309 90.6405 405.0914 91.5347 406.3209 91.5347 407.9975 90.6405 407.9975 90.4169 408.221 90.4169 408.7799 90.1934 409.7858 88.5168 408.7799 84.7166 409.8976 82.0341 409.7858 83.3754 410.9035 84.2695 412.0212 85.499 414.592 84.3813 414.592 84.3813 416.1568 85.499 416.1568 85.499 417.9451 84.2695 418.7275 83.4871 419.8452 82.0341 422.863 82.3694 424.6514 82.593 425.2102 82.593 425.8809 82.0341 427.8927 83.8224 427.781 84.9402 428.2281 85.7226 429.3458 86.7285 431.1341 80.4693 431.4694 77.4515 431.0223 74.9925 429.3458 74.6572 430.3517 74.5454 430.5752 73.763 431.1341 72.7571 427.2221 71.1923 426.775 69.404 427.2221 67.8392 426.2162 66.6097 427.8927 68.5098 428.6751 70.2981 430.1282 71.0805 432.14 70.2981 434.599 71.8629 438.6228 72.6453 439.6287 70.0746 440.97 69.404 438.7345 69.5157 434.7108 68.9569 431.1341 67.7274 430.1282 62.5859 428.1163 60.7976 427.8927 61.1329 426.9986 61.58 425.322 61.9153 424.5396 61.3564 424.4278 60.127 424.5396 59.5681 424.5396 60.7976 422.863 59.5681 421.0747 57.668 421.5218 54.9855 420.6276 52.1912 418.6157 50.0675 416.1568 51.4088 414.592 53.1971 417.1627 55.6561 417.9451 58.1151 416.4921 59.5681 412.9154 54.9855 414.0331 53.1971 413.586 51.4088 411.2388 51.4088 409.7858 52.0794 409.1152 52.8618 407.4386 53.756 406.3209 51.7441 403.9737 47.8321 394.5849 40.7905 386.9845 31.8488 374.4661 30.5076 373.3484 28.3839 370.8894 25.4779 368.5422 21.9012 367.9834 22.6836 366.4186 23.5778 363.9596 24.2484 362.9537 20.1129 357.0298 24.4719 354.1238 39.6728 353.0061 36.2079 351.3295 32.2959 350.7706 24.2484 351.1059 20.0011 352.4472 17.9892 352.3354 17.2068 350.3235 17.5421 347.7528 17.9892 345.6292 17.7657 343.9526 15.9773 342.9466 16.8715 341.2701 16.9833 340.0406 16.3127 339.0347 14.8596 337.8052 14.8596 336.3521 16.3127 335.458 16.9833 333.8932 16.8715 331.8813 15.9773 329.5341 17.2068 327.0751 17.095 324.6162 15.8656 322.4925 13.6301 321.1513 14.3008 319.6982 15.1949 318.4688 16.5362 317.6864 18.3245 317.6864 18.3245 316.1216 16.648 315.3392 15.3067 314.2215 14.3008 312.7684 13.6301 310.9801 15.4185 310.6448 16.9833 309.8624 19.554 307.627 17.5421 306.621 12.9595 306.3975 11.2829 306.0622 9.3828 304.162 7.818 301.256 7.7063 298.6853 10.1652 297.5675 10.1652 296.1145 8.1534 293.8791 3.0119 279.2371 3.3472 278.79 3.9061 278.2311 4.2414 277.5605 3.459 276.4428 3.3472 276.331 3.7943 275.8839 4.2414 274.0956 1.4471 267.5011 1 263.9244 1.8942 260.6831 3.0119 260.6831 4.6884 262.0243 12.5124 265.8245 15.3067 266.1598 16.0891 266.2716 22.013 272.7543 25.2543 273.5367 28.1604 273.425 45.2614 272.6426 53.4207 277.784 55.7679 280.1312 58.4504 280.9136 67.6156 282.2549 69.404 280.9136 70.9688 278.5664 73.4277 276.1075 81.4752 272.6426 83.7107 269.6248 80.134 265.2657 80.134 262.5832 80.6928 260.9066 81.9223 260.0124 84.6048 260.6831 89.0757 261.5772 91.5347 262.9185 93.8818 265.2657 98.1292 268.3953 102.7118 269.9601 106.8473 270.1836 107.2944 270.1836 111.7652 269.4012 119.9245 265.601 124.2836 264.2597 128.0838 265.1539 134.9019 268.1717 142.9494 269.7365 150.8851 268.9541 157.4796 265.2657 160.6092 262.2479 167.4273 257.3299 169.6627 253.1944 170.5569 249.6177 171.2275 244.1409 171.451 243.0232 172.457 239.8936 174.1336 237.5464 178.3809 232.6285 180.281 230.0578 182.4046 225.0281 183.7459 223.575 184.64 223.2397 186.6519 222.3455 188.552 223.3515 188.8873 227.1517 188.6638 231.7343 188.8873 234.9757 190.4521 238.1053 192.6876 240.4525 198.6114 245.1469 199.8409 245.7057 200.8469 246.3763 200.9586 246.3763 201.9646 247.7176 202.2999 249.6177 201.6293 253.9768 201.741 255.2063 205.0942 258.1123 221.0774 265.1539 221.0774 265.2657 221.1892 265.2657 223.8717 272.0837 231.0251 273.6485 238.402 270.966 241.6433 265.2657 242.314 260.0124 245.4436 259.9007 249.3556 262.4714 252.3734 265.2657 254.8323 265.601 256.3971 265.8245 258.2972 266.7187 259.9738 268.2835 268.3567 268.507 270.145 269.9601 282.6634 280.6901 290.4873 281.8078 297.6407 279.1253 307.1413 275.5486 312.7298 275.6604 314.7417 275.1015 316.1947 273.7603 319.2125 269.4012 320.8891 267.9482 312.2827 262.1361 309.8238 257.8888 308.3707 252.6355 307.3648 246.2646 307.253 246.041 306.3589 243.2468 305.1294 240.5642 304.9058 238.5524 307.1413 237.4347 308.259 236.4287 308.9296 234.5286 309.9355 232.6285 314.9652 231.0637 317.0889 229.946 319.5479 229.0518 323.0128 229.0518 322.1186 226.9282 319.3243 222.2338 318.989 221.8985 316.1947 218.6571 315.6359 218.21 314.9652 218.5453 312.9534 219.1042 312.171 219.7748 311.9474 220.7807 311.165 221.2278 308.9296 220.4454 307.4766 219.3277 306.5824 218.0982 304.7941 214.7451 303.1175 213.0685 301.888 212.5097 301.5527 211.5037 301.7762 210.9449 302.6704 208.5977 304.1234 206.9211 311.0532 203.0091 315.7476 201.4443 332.5133 195.8558 332.6251 195.744 334.637 194.1792 334.4134 191.832 333.631 189.2613 334.5252 186.9141 336.4253 186.0199 338.3254 186.2435 340.2255 186.9141 342.2374 187.2494 343.914 186.5788 347.1553 183.8963 348.8319 183.1139 353.3028 183.8963 359.7855 185.014 366.4917 184.7904 369.8449 183.7845 373.3098 181.8844 375.0981 179.4254 374.9864 175.9605 372.9745 170.9308 372.1921 167.8012 372.8627 164.7834 374.0922 161.8773 374.9864 158.8595 375.2099 154.724 374.9864 147.1235 374.7628 141.9821 376.1041 136.9524 378.116 133.9345 378.7866 131.3638 377.8924 130.0226 376.4394 127.5636 374.3157 126.1106 369.5096 124.0987 367.3859 122.7574 366.0447 121.3044 362.5798 117.7277 360.2326 112.1392 360.2326 105.88 362.6915 98.8384 365.9329 92.691 366.4917 91.9086 368.8389 88.779 372.5274 86.8789 375.4334 87.1024 387.7283 87.9966 390.9696 85.8729 394.5463 79.9491 396.3347 78.6078 396.8935 78.1607 399.576 76.8195 402.2585 76.1488 409.9707 75.9253 410.3061 75.9253 410.7531 75.9253 416.7888 72.5722 421.9303 69.6661 427.7424 68.6602 429.6425 68.1013 430.5366 67.8778 434.1133 66.0894 437.4664 63.7422 439.3666 61.6186 439.8136 61.1715 441.0431 57.7066 441.0431 54.4652 440.7078 50.8886 440.7078 46.4177 446.0728 47.5354 446.967 47.759 448.9789 47.4237 450.6554 46.0824 451.9967 44.1823 453.4497 42.6175 455.5734 42.1704 457.2499 42.9528 461.2737 46.9766 463.7327 48.4296 466.6387 49.1002 468.0917 48.9884 474.2392 47.5354 478.1512 47.5354 479.0453 46.753 478.9336 46.1942 478.71 44.0705 477.9276 42.841 475.0216 40.9409 473.9039 39.5997 473.4568 37.5878 473.7921 33.564 473.6803 31.5521 471.6684 24.6223 470.9978 21.1574 471.1096 19.7044 471.2213 17.5807 475.6922 12.551 476.1393 11.8804 481.6161 9.7568 484.1868 8.192 487.5399 7.0743 489.3283 4.9506 489.9989 4.1682 491.2284 5.9565 491.3402 6.0683 492.3461 4.1682 494.358 5.733 496.4816 6.0683 498.7171 5.8448 500.7289 6.0683 502.182 6.9625 505.088 10.0921 506.541 11.098 507.9941 11.3216 511.7943 10.8745 513.5826 11.098 515.2592 12.104 519.3947 15.4571ZM850.1256 967.4122L850.908 971.2124 849.9021 978.7011 850.0139 982.8366 851.2433 986.4133 853.1435 989.5429 855.2671 992.1136 856.6084 993.0078 859.6262 994.6844 860.5204 997.3669 860.2968 1000.8318 856.4966 994.9079 854.1494 993.4549 848.4491 991.6666 845.8783 990.2135 845.6548 986.8604 815.9237 967.524 812.7941 962.8296 812.9058 960.5942 813.2411 957.4646 813.3529 954.4468 812.2352 953.2173 803.4053 951.6525 796.3637 947.5169 793.5694 946.8463 790.6634 946.6228 787.9809 945.9521 785.8572 944.3873 784.7395 942.0402 788.2044 942.0402 784.516 938.4635 783.0629 936.6751 782.2805 933.9926 779.7098 936.5634 775.4625 934.3279 768.1974 927.6217 757.9144 922.3684 754.3377 918.4564 756.4614 913.2032 751.6552 913.4267 746.5138 909.403 741.5958 908.2853 740.4781 908.5088 739.1369 909.0677 738.0191 909.8501 737.0132 911.8619 735.8955 911.4149 734.8895 910.5207 734.4425 910.0736 733.3248 909.2912 729.301 905.9381 726.842 904.9321 730.0834 908.0617 731.6482 910.2971 733.8836 916.1092 733.8836 917.1152 732.7659 917.8976 731.6482 917.674 731.6482 916.221 731.8717 914.4327 731.6482 913.2032 728.1833 910.9678 719.5769 907.2793 711.7529 905.7145 702.5877 901.4672 693.1989 899.6789 678.5569 893.8668 679.004 887.9429 674.6449 885.0369 663.2442 882.4661 649.4964 872.742 643.6843 870.8419 640.89 868.83 639.6605 868.2712 637.5369 867.8241 619.2064 867.8241 613.6178 866.4828 610.7118 865.2534 607.5822 863.2415 605.9056 860.8943 607.6939 858.4353 607.6939 856.8705 606.0174 856.0881 605.0114 854.8586 604.229 853.5174 603.1113 851.9526 606.7998 852.6232 612.3883 857.3176 615.4062 858.4353 630.16 856.8705 644.1314 858.7706 669.9505 869.3889 676.0979 873.3009 680.9041 877.66 681.2394 878.5541 681.2394 879.8954 681.3512 881.2366 682.0218 882.4661 682.8042 882.8014 684.8161 882.3543 685.5985 882.4661 688.7281 884.8133 690.1811 885.4839 692.0812 885.7075 692.7518 885.2604 692.64 883.025 693.3107 882.4661 694.3166 882.8014 695.9932 884.0309 696.8873 884.2545 699.011 884.5898 700.5758 885.4839 703.2583 887.4958 709.9646 889.6195 713.2059 891.296 715.1061 893.8668 716.2238 893.8668 718.6827 893.5315 725.9479 900.6848 730.4187 901.9143 725.1655 897.7788 723.6007 894.9845 725.6125 892.1902 724.4948 890.6254 719.5769 892.5255 715.2178 889.7312 717.3415 886.3781 719.6887 883.9191 723.4889 883.025 727.2891 883.8074 734.5542 886.7134 738.1309 887.2723 739.5839 886.6017 740.9252 885.3722 742.49 885.2604 744.5019 888.0547 744.949 890.2901 744.7254 895.9904 745.1725 898.6729 750.5375 907.1675 752.4376 908.2853 758.4733 910.0736 762.6088 913.2032 769.9857 921.6978 774.0095 925.0509 783.3982 931.0866 813.4647 951.3172 819.0532 954.4468 828.442 957.5763 833.1364 957.3528 835.0365 958.8058 838.5014 963.9473 838.6132 964.0591 841.1839 965.7356 847.3314 966.4063 850.1256 967.4122ZM578.4099 914.8798L589.2517 916.4446 591.4871 917.8976 591.8224 921.4743 589.8106 924.8274 586.5692 927.0628 582.9925 927.6217 582.5454 925.9451 581.0924 925.7216 578.4099 924.4921 576.6216 926.6157 574.2744 927.2864 572.0389 926.0569 570.1388 922.8155 572.2625 921.586 572.5978 919.5741 571.7036 918.2329 570.1388 919.6859 568.9094 919.6859 570.1388 916.8916 573.2684 915.5504 578.4099 914.8798ZM716.2238 924.4921L719.6887 927.5099 728.5186 931.4219 731.6482 935.781 669.1681 917.8976 667.1562 920.4683 663.6913 918.9035 660.3382 915.6622 658.5498 913.2032 661.5677 912.6443 667.1562 910.5207 670.2858 910.7442 669.5034 911.0795 668.4975 911.6384 666.7091 913.2032 668.6092 913.0914 670.5094 913.2032 672.1859 913.762 673.7507 914.8798 675.092 913.2032 677.998 915.2151 686.3809 915.3268 692.8636 919.3506 701.6935 921.0272 705.6055 922.8155 705.0466 923.3744 704.9349 923.4861 704.4878 924.4921 714.3237 925.498 716.2238 924.4921ZM625.4656 871.289L628.3716 875.3128 631.0541 877.8835 637.3133 882.4661 636.0838 884.2545 632.8425 882.4661 629.154 882.6897 621.33 884.2545 605.4585 880.9013 598.1934 881.3484 585.3397 886.2663 577.2922 887.4958 558.0675 883.5838 549.6847 881.0131 546.5551 881.3484 546.4433 882.4661 543.5373 881.4602 540.6312 879.4483 552.3672 873.0773 552.3672 871.289 549.1259 870.2831 542.3078 869.3889 539.4018 868.2712 543.0902 865.924 546.8904 865.8122 550.8024 866.4828 554.7144 866.4828 558.2911 868.7183 562.9855 870.6184 572.5978 873.0773 581.9866 873.0773 584.3338 872.2949 588.2458 870.1713 608.3646 868.2712 621.8889 872.5185 625.4656 871.289ZM472.2273 847.1464L473.0097 846.1405 473.7921 845.4699 474.3509 845.8052 474.6862 848.0406 474.1274 849.4936 473.0097 850.4996 470.9978 851.9526 468.9859 854.6351 466.974 856.3117 451.6614 861.0061 445.7375 861.4531 441.602 860.0001 445.2904 857.9882 445.7375 854.4116 444.3963 851.6173 442.7197 851.9526 441.602 851.9526 439.143 848.823 439.9254 848.0406 440.596 847.5935 441.4902 847.37 442.7197 847.1464 446.7435 844.6875 453.2262 843.3462 460.0442 843.458 465.1857 845.4699 464.2915 846.5876 463.9562 847.1464 467.8682 845.4699 469.9919 845.5816 472.2273 847.1464ZM550.02 834.181L546.108 834.6281 527.1069 830.4925 512.5767 824.904 507.3234 823.898 504.3056 821.7744 502.4055 821.3273 494.6933 818.0859 495.4757 816.9682 496.2581 816.5211 498.1582 816.4094 500.2818 817.6388 502.182 817.4153 506.4293 814.7328 507.547 816.4094 507.9941 815.5152 510.0059 813.2798 510.0059 814.7328 516.1534 812.7209 521.4066 815.9623 526.2128 819.8743 531.1307 819.6507 526.4363 814.7328 521.8537 811.9385 520.2889 810.1502 522.8596 810.4855 527.554 810.1502 531.1307 813.2798 531.8013 813.168 533.4779 811.8267 534.7074 811.4914 536.831 811.4914 541.9725 812.2738 544.2079 813.2798 545.4374 814.3975 546.4433 816.2976 547.8964 818.1977 550.02 819.6507 550.1318 820.7684 549.9083 821.1037 549.3494 821.1037 548.9023 821.3273 552.2554 823.898 555.9439 825.351 559.9677 826.0217 576.7333 825.9099 579.5276 824.3451 581.8748 826.6923 585.0044 827.6982 595.7344 828.2571 606.0174 830.9396 621.6653 830.269 629.4893 831.0514 636.0838 834.181 593.0519 834.181 550.02 834.181ZM516.9358 797.0729L503.4114 789.249 500.6172 785.6723 501.9584 786.5664 502.9644 787.4606 504.0821 787.4606 504.1938 785.8958 504.7527 785.6723 505.5351 785.8958 506.4293 785.6723 505.5351 783.9957 505.6469 782.4309 506.7646 781.3132 508.7765 780.7543 506.4293 776.6188 504.0821 771.142 507.6587 770.9185 508.7765 771.142 515.7063 773.9363 549.1259 775.1658 570.1388 780.7543 570.1388 782.4309 567.7916 782.4309 569.58 783.3251 571.2565 783.8839 572.5978 783.6604 573.6037 782.4309 575.1685 783.6604 578.4099 787.4606 580.31 788.0195 581.763 787.7959 583.1043 788.243 584.3338 790.4784 582.0983 794.8375 580.8689 796.1788 579.5276 795.3964 576.398 799.6437 570.6977 800.9849 538.8429 801.9909 527.7776 800.4261 516.9358 797.0729ZM498.1582 782.4309L495.4757 785.4487 490.7813 784.2193 479.2689 776.9541 470.7743 773.3774 466.4152 772.7068 466.3034 771.7009 466.527 771.3656 466.974 771.3656 467.4211 771.142 465.7446 769.689 465.2975 768.0124 466.1916 766.6712 468.6506 766.1123 478.4865 766.8947 482.0631 768.9066 482.8455 772.7068 487.5399 772.148 490.7813 774.8305 493.9109 778.966 498.1582 782.4309ZM375.5452 710.8974L386.1635 715.7035 375.9923 712.6857 374.3157 713.3563 372.8627 711.4562 365.374 705.8677 362.5798 704.5264 363.921 702.7381 364.5916 703.9675 365.374 704.4146 370.6273 704.9735 372.5274 706.7618 373.9804 708.9972 375.5452 710.8974ZM303.6763 658.7002L304.5705 661.1592 317.6477 671.8892 319.6596 674.5717 321.895 677.0307 326.813 681.278 325.36 680.2721 315.1888 675.5777 311.9474 673.3422 308.3707 668.6479 303.6763 665.1829 301.4409 663.0593 298.8702 659.8179 297.976 656.9119 300.2114 655.4589 303.6763 658.7002ZM310.8297 635.0047L309.8238 632.2105 305.2411 626.8454 303.6763 624.2747 306.9177 624.3865 309.712 625.616 318.989 632.6575 323.9069 633.7752 324.8011 634.1106 325.2482 635.4518 325.6953 639.4756 326.1424 640.8168 327.1483 641.9345 329.4955 642.9405 330.8367 643.8347 332.178 645.623 333.631 648.1937 334.8605 651.0998 335.5311 653.7823 334.1899 653.1117 332.9604 652.5528 331.6191 652.3293 330.1661 652.2175 328.8249 651.7704 328.1542 650.7645 327.8189 649.7585 327.1483 648.8644 322.7892 647.5231 320.442 646.1818 318.989 643.8347 319.6596 643.2758 320.1067 642.3816 317.8713 641.3757 314.7417 639.252 312.0592 636.9048 310.8297 635.0047ZM302.5586 622.7099L300.3232 620.2509 298.7584 617.0096 297.1936 614.8859 295.2935 616.1154 294.2876 616.1154 294.064 614.9977 293.7287 614.4388 293.3934 613.7682 292.9463 612.874 291.2697 615.5565 287.9166 612.874 284.3399 608.6267 279.7573 604.8265 273.7217 597.3378 270.5921 594.8789 270.9274 593.9847 271.0392 593.7612 271.1509 593.7612 271.7098 593.2023 271.0392 591.8611 269.4744 588.1726 297.6407 611.0857 301.2174 615.7801 302.5586 622.7099ZM231.6957 591.414L233.037 590.5198 234.1547 590.5198 235.2724 591.5257 236.2783 593.3141 234.0429 594.2083 230.3545 592.9788 227.7837 590.2963 228.2308 586.496 229.0132 589.1785 230.4662 590.7433 231.6957 591.414ZM283.6693 639.0285L296.0759 647.7466 296.6348 650.5409 292.3875 651.9939 283.7811 645.1759 281.6574 645.7348 282.4398 646.6289 282.8869 647.7466 283.6693 648.8644 287.9166 651.9939 288.9226 652.9999 290.2638 654.0058 291.6051 653.7823 292.611 654.1176 292.9463 656.2413 292.1639 657.359 290.4873 656.353 288.9226 654.5647 288.3637 653.7823 282.2163 650.0938 279.6455 647.8584 277.0748 644.7288 270.2568 634.2223 266.1212 629.1926 259.3032 614.4388 255.8383 611.0857 251.0321 608.8503 236.3901 593.2023 236.0548 590.5198 235.1606 588.3961 232.9252 584.9312 233.8194 584.7077 234.6018 584.8195 235.2724 584.9312 238.6255 588.8432 248.2378 596.5554 249.132 598.1202 249.9144 600.3557 250.9204 602.2558 252.3734 603.0382 254.7206 603.8206 256.1736 605.1618 257.7384 605.9442 259.9738 604.7147 259.1914 607.0619 258.8561 607.9561 261.2033 608.2914 262.6563 609.6327 263.327 612.0916 263.5505 615.333 264.2211 618.2391 265.8977 620.5862 273.9452 629.4162 275.8453 630.5339 278.3043 630.8692 278.8631 631.9869 283.6693 639.0285ZM237.6196 492.4965L235.7195 490.8199 217.7243 468.5774 214.5947 463.2124 212.9182 457.7356 213.7006 457.7356 214.2594 458.1827 220.8539 465.8949 232.1428 482.5488 238.7373 487.6903 238.1784 480.537 242.2022 480.3134 248.1261 484.1136 252.9322 489.1433 256.8442 495.6261 259.415 498.1968 265.7859 500.2087 267.686 503.003 269.3626 506.6914 271.7098 510.7152 268.3567 510.1563 263.5505 506.1326 259.9738 505.7972 260.7562 503.2265 261.2033 502.3323 254.0499 498.1968 250.6968 496.8556 248.7967 495.4025 246.4495 494.2848 243.4317 494.2848 243.4317 495.8496 252.9322 501.1029 267.0154 521.4452 275.3982 527.2573 272.604 525.0219 269.9215 521.7805 267.5743 517.645 265.8977 512.5035 273.051 516.0802 289.1461 533.0694 292.9463 535.5284 295.4053 538.3227 300.3232 542.7935 302.5586 545.3642 299.2055 546.2584 295.1817 543.9112 290.9344 540.6699 287.1342 538.7697 287.1342 540.4463 290.2638 541.1169 293.2816 543.1288 295.8524 545.8113 297.8642 548.7174 294.2876 548.7174 294.6229 550.0586 295.07 550.841 295.7406 551.3999 296.6348 551.9587 292.9463 550.9528 285.3459 547.5997 281.2103 547.1526 281.2103 548.7174 288.3637 553.7471 288.3637 555.2001 284.4517 554.3059 280.875 552.1823 277.8572 549.0527 275.3982 545.3642 275.3982 543.9112 277.7454 543.9112 277.7454 542.1229 276.2924 541.2287 275.51 540.2228 274.057 537.205 275.9571 537.3167 277.1866 536.9814 278.0807 535.8637 278.8631 534.0754 274.5041 531.1693 273.051 530.6105 271.3745 530.834 268.692 532.3988 267.1272 532.287 265.3388 530.1634 262.321 523.7924 251.7028 514.8507 250.138 514.5154 241.0845 509.0386 241.0845 507.5856 242.0904 507.2503 243.767 506.2443 244.7729 505.7972 242.6493 501.7735 237.7314 494.5084 237.6196 492.4965ZM163.4035 490.9317L177.2631 505.909 178.6044 510.7152 174.8042 511.1623 170.1098 506.6914 164.4095 499.2028 162.0623 497.5262 162.0623 495.8496 165.7507 496.9673 166.8684 497.5262 162.0623 491.267 159.3798 489.0316 156.2502 487.6903 155.0207 490.1493 153.2323 491.0435 151.2205 490.5964 149.2086 489.1433 149.2086 487.6903 150.3263 487.6903 150.3263 487.5785 150.1028 487.0197 149.4321 485.7902 152.5617 481.99 151.444 477.1838 146.8614 469.3598 145.9672 466.1185 144.7377 458.6298 144.5142 454.4943 147.8673 456.8415 152.2264 458.8534 155.1325 461.9829 153.903 467.6833 154.6854 469.8069 155.4678 473.6072 156.2502 480.2017 157.2561 482.4371 163.4035 490.9317ZM214.1476 439.6287L214.1476 441.4171 214.4829 442.6465 216.4948 444.5466 214.1476 442.9818 211.4651 442.1994 208.8944 442.0877 206.9943 442.7583 199.8409 434.599 202.0763 434.4872 204.2 434.599 206.2119 435.1579 208.112 436.1638 208.112 434.599 207.5531 433.8166 207.3296 433.2578 207.3296 432.5871 206.9943 431.1341 209.9003 433.5931 210.571 434.599 211.8004 434.599 209.565 429.7928 208.112 427.781 205.7648 426.2162 205.4295 425.4338 204.6471 422.863 208.3355 423.4219 211.8004 424.5396 211.2416 423.5337 210.571 421.0747 213.8123 421.41 216.2713 423.1983 216.8301 425.6573 214.1476 427.8927 214.1476 429.3458 215.3771 430.2399 222.1952 436.9462 226.3307 439.4052 228.2308 441.1935 233.1487 449.4646 234.49 454.3825 232.9252 457.7356 228.0073 453.4883 219.7362 443.9878 214.1476 439.6287ZM175.1395 467.6833L174.1336 469.8069 174.2453 471.8188 175.363 472.4894 177.4867 471.1482 178.6044 474.3895 177.4867 476.1779 176.2572 477.5191 175.0277 478.1898 173.1276 477.8545 168.0979 477.8545 160.2739 469.0245 154.5736 456.7297 155.0207 445.9997 154.2383 445.7761 153.7912 445.4408 153.3441 444.9937 152.6735 444.5466 151.1087 445.5526 150.1028 443.7642 149.4321 440.5229 149.2086 432.6989 148.8733 430.4635 148.0909 429.5693 146.1908 429.3458 143.5083 426.1044 140.714 411.5741 137.3608 407.9975 137.4726 406.8798 137.6961 406.2091 138.5903 404.6443 137.0255 400.2853 138.5903 399.5029 142.6141 401.1794 143.8436 402.1854 146.9732 406.8798 148.538 407.9975 151.5558 408.1092 153.3441 407.8857 154.3501 406.4327 155.0207 402.9678 154.4618 401.6265 153.6794 397.8263 153.903 395.3673 156.2502 398.0498 157.4796 396.3733 154.0147 393.1319 151.5558 388.8846 146.3025 374.1308 145.2966 372.2307 136.1314 361.1653 134.6783 358.1475 134.4548 354.5708 136.3549 349.5411 138.255 346.188 140.714 343.729 143.8436 342.9466 147.9791 344.5114 149.3204 347.3057 148.7615 357.1416 149.2086 362.9537 150.3263 367.3128 153.4559 376.2545 157.5914 384.8608 158.5974 386.2021 160.8328 388.1022 164.7448 388.6611 166.8684 389.667 168.2097 392.6848 167.7626 396.9321 166.3096 401.2912 164.4095 404.6443 165.7507 406.3209 164.0741 410.5682 163.8506 414.0331 164.4095 421.9689 166.6449 429.1222 166.9802 433.146 164.4095 434.599 165.3036 437.2815 167.4273 440.8582 168.0979 442.7583 168.2097 445.329 167.2037 448.3469 166.8684 451.3647 167.9861 456.6179 170.2216 460.4182 172.9041 463.7713 175.1395 467.6833ZM211.1298 399.5029L208.2238 398.7205 199.8409 393.0201 194.923 391.0083 194.1406 389.2199 194.0288 385.4197 194.4759 376.7015 193.47 374.6897 190.4521 376.2545 190.4521 377.931 192.7993 379.7194 188.3285 380.0547 174.5806 377.931 170.2216 376.478 165.8625 373.0131 162.174 368.5422 159.8268 364.5185 161.2799 362.3948 162.7329 361.3889 164.2977 361.1653 166.3096 361.1653 166.9802 360.0476 166.8684 357.8122 167.092 355.465 168.6568 354.4591 175.1395 354.3473 177.9338 352.8943 176.369 349.5411 178.6044 346.188 179.4986 344.1761 179.9457 342.1642 179.4986 340.2641 178.9397 338.4758 179.0515 336.5757 180.9516 334.452 181.2869 331.7695 181.1751 329.6459 180.281 328.3046 178.6044 327.8575 181.1751 325.0633 183.6341 324.8397 189.2227 327.8575 187.4343 327.7458 186.8755 327.8575 187.2108 329.6459 187.7696 331.0989 188.4403 332.1048 189.2227 332.999 191.7934 337.4699 194.0288 342.9466 189.4462 345.1821 192.1287 346.9704 197.4937 347.5293 201.1822 346.2998 202.1881 350.7706 200.0645 359.377 201.1822 364.5185 203.4176 366.8657 206.4354 367.8716 214.1476 367.9834 214.0359 374.9132 224.3188 384.5255 226.8895 391.2318 225.8836 391.2318 223.8717 392.6848 221.7481 393.2437 219.5127 392.6848 217.6125 391.2318 215.2653 393.0201 215.2653 394.5849 217.6125 396.5968 216.9419 398.1616 214.3712 399.1675 211.1298 399.5029ZM484.1868 744.2052L488.3223 745.6582 495.3639 748.3407 494.5815 749.7937 488.0988 750.4644 479.2689 748.8996 476.8099 749.1231 475.3569 749.9055 473.2332 750.4644 470.4389 750.0173 468.3153 749.2349 467.1976 748.3407 467.1976 747.1112 468.4271 746.5524 469.2095 746.6641 470.3272 746.8877 472.6744 747.223 474.1274 745.9935 473.4568 744.0934 476.251 742.9757 484.1868 744.2052ZM217.389 556.8767L219.7362 558.5532 222.8658 561.5711 222.5305 563.0241 220.0715 563.0241 218.5067 563.4712 217.5008 564.7007 215.4889 564.2536 213.7006 561.6828 213.9241 559.7827 215.7124 559.7827 216.2713 559.0003 216.2713 557.212 217.389 556.8767ZM192.2405 545.2525L197.382 548.8292 200.5116 552.9647 199.8409 553.7471 196.9349 552.1823 189.7815 545.5878 189.1109 543.6877 192.2405 545.2525ZM223.9835 536.3108L225.3248 538.658 226.2189 543.0171 224.5424 544.6936 221.7481 543.7994 219.848 542.3464 216.8301 539.6639 217.0537 537.652 218.842 534.746 218.0596 527.2573 218.7303 526.922 219.5127 526.6985 221.4128 526.3631 223.4246 527.4809 224.8777 529.6045 225.213 531.9517 224.3188 533.9636 223.76 535.4166 223.9835 536.3108ZM128.7545 467.9068L132.4429 463.5477 135.0136 463.9948 134.9019 466.342 133.8959 467.795 131.5487 468.3539 131.3252 468.6892 130.9899 469.0245 130.8781 469.9187 131.2134 471.1482 130.7663 472.4894 130.8781 473.7189 131.3252 474.5013 132.4429 476.625 133.3371 479.6428 132.1076 479.9781 130.0957 478.6369 127.9721 477.9662 126.7426 476.4014 126.8543 474.2778 127.1897 472.4894 128.7545 467.9068Z" />
</svg>