<?xml version="1.0" encoding="utf-8"?>
<svg xmlns="http://www.w3.org/2000/svg" viewBox="0 0 1021 632" style="stroke-width:0.25px;stroke-linejoin:round;stroke:#444;fill:#ddd" fill-rule="evenodd">
  <path class="HU" d="M1017 144.4871L1014.541 147.3932 1010.8526 154.323 1008.3936 156.6702 1002.358 158.9056 1000.0108 160.5822 998.3342 163.6 998.446 165.5001 999.2284 166.9531 999.4519 168.5179 998.2224 171.0887 997.3283 171.6475 994.0869 171.9828 991.0691 173.4359 989.169 174.8889 985.4805 179.695 981.1215 183.607 975.6447 185.9542 969.9443 186.7366 964.8029 185.9542 953.6257 180.0304 949.0431 181.1481 946.5842 189.8662 944.9076 191.5428 942.8957 192.3252 940.7721 192.5487 933.8422 191.5428 931.9421 191.6546 929.2596 192.6605 926.4653 194.2253 924.7888 196.0136 921.5474 200.9316 920.3179 202.1611 917.859 203.9494 916.7413 205.4024 916.1824 206.9672 915.6235 211.1028 915.1765 213.0029 911.488 218.3679 911.0409 219.8209 910.9292 221.3857 910.7056 222.8387 910.7056 223.174 909.9232 224.8506 908.6937 225.7448 907.7996 226.3036 900.5344 228.2037 891.2574 235.2453 886.7866 240.0515 883.8805 245.5283 884.3276 252.3463 885.6689 260.0585 885.7806 267.4354 882.8746 273.5828 876.1683 275.5947 873.4858 277.2713 870.6915 280.2891 864.9912 288.7837 863.9853 291.3545 862.3087 299.2902 861.5263 301.3021 859.8497 304.5435 859.1791 307.0024 859.1791 309.5732 859.5144 311.4733 859.5144 313.5969 858.6202 316.2794 857.3908 318.0678 854.0376 321.1974 852.5846 323.321 851.914 325.3329 851.2433 329.2449 850.2374 331.145 847.2196 334.1628 839.8427 339.0807 836.4895 342.2103 830.5657 349.2519 830.7892 350.0343 831.1245 351.152 832.4658 351.8227 833.9188 352.0462 834.9248 352.9404 836.266 355.5111 836.3778 355.7347 835.8189 355.9582 832.9129 366.8 831.6834 368.3648 824.8653 374.0651 824.1947 374.2887 823.9712 374.8475 823.7476 377.4183 823.8594 380.1008 824.4183 382.448 824.4183 384.7952 823.1888 387.5894 821.624 388.9307 816.1472 390.4955 813.0176 393.4015 811.1175 396.9782 807.9879 405.8081 807.3173 406.8141 806.7584 407.9318 806.4231 409.273 806.3113 410.6143 806.6466 411.1732 806.982 411.732 807.429 412.1791 811.4528 414.8616 811.0057 419.2207 808.2114 423.2444 805.1936 425.0328 801.1699 425.7034 799.4933 428.2741 799.2697 429.0565 798.2638 431.9626 795.1342 436.0981 791.8928 437.7747 786.4161 437.3276 783.1747 438.2218 780.9393 440.9043 780.0451 445.0398 779.4862 453.4227 777.5861 457.4464 775.0154 460.6878 772.8917 464.1527 772.5564 468.6235 776.9155 477.0064 777.8097 481.8125 774.3448 484.3833 768.0856 484.7186 765.0678 485.7245 762.6088 488.7424 761.044 493.4367 760.4851 503.0491 759.1439 507.2964 757.4673 510.5377 756.0143 511.6554 751.6552 511.6554 750.6493 512.1025 743.4959 520.8207 740.8134 521.9384 737.9074 519.3677 736.9014 518.1382 735.6719 517.4675 734.4425 517.4675 732.9894 518.1382 730.0834 518.2499 724.4948 515.791 721.8123 515.2321 720.8064 515.5674 718.571 516.7969 717.1179 516.9087 715.8884 516.3498 713.2059 514.0026 711.7529 513.332 708.8469 513.1085 705.6055 514.0026 703.9289 515.0086 702.5877 515.6792 696.7756 520.5971 696.105 521.8266 696.2167 523.8385 697.558 528.6447 697.558 530.3212 696.3285 531.5507 694.9872 531.3272 693.5342 530.8801 692.4165 531.2154 691.6341 532.892 691.5223 535.4627 691.5223 535.9098 690.7399 538.1452 688.3927 540.6042 685.4867 542.169 676.9921 543.9573 675.8744 543.8455 674.086 543.1749 672.633 542.169 668.2739 538.1452 662.3501 535.6862 656.2026 534.2332 652.5142 540.1571 628.4834 540.8277 622.336 548.5399 614.2884 541.6101 611.6059 540.4924 607.8057 542.2807 606.688 542.3925 605.5703 541.8337 604.0055 539.71 603.2231 539.0394 600.7641 538.3688 599.3111 538.5923 595.5109 540.4924 591.2636 541.0513 585.0044 537.4746 575.3921 536.5804 569.3564 537.9217 567.121 538.8158 554.6026 544.0691 552.0319 543.5102 542.8667 537.5864 539.6253 535.4627 536.4957 534.4568 533.2543 534.345 524.5362 536.0216 521.4066 535.9098 518.6123 536.4686 514.9239 538.1452 511.459 540.4924 509.2235 542.9514 509.5589 544.6279 510.6766 546.6398 511.0119 548.4282 507.0999 550.5518 505.9822 552.0048 505.3116 553.6814 504.1938 555.1344 501.6231 557.2581 500.3936 557.7052 498.7171 558.0405 496.8169 558.9347 495.5875 560.723 494.4697 562.9584 493.0167 564.635 490.446 565.5292 484.9692 565.5292 482.1749 566.088 480.9454 567.0939 479.1571 568.4352 478.0394 571.1177 477.3688 573.6884 475.6922 575.9239 471.5567 576.7063 458.3677 575.365 455.1263 573.3531 452.8909 569.1058 449.5377 567.7646 446.0728 569.3294 443.7256 573.3531 443.5021 579.7241 440.8196 580.5065 437.0194 579.9476 433.5545 582.5184 432.9956 583.3008 432.8838 584.0832 433.1074 584.8656 434.2251 586.6539 434.5604 587.6598 434.3369 588.3305 433.5545 588.7776 430.6484 587.4363 421.4832 586.6539 419.2477 586.8774 417.7947 588.554 416.1182 589.56 413.1003 590.4541 410.5296 592.2425 409.6354 592.2425 408.9648 592.2425 406.9529 590.4541 405.4999 592.8013 404.8293 594.7014 404.1586 596.2662 402.5938 597.1604 400.8055 596.8251 394.8816 593.8073 387.5047 591.2365 384.5987 591.7954 381.2455 595.1485 380.6867 596.2662 380.2396 598.837 379.9043 600.1782 379.6807 600.1782 377.4453 602.749 374.0922 609.1199 372.3039 611.3553 365.8211 616.9439 362.0209 618.3969 358.556 616.7204 356.2088 618.3969 350.9556 624.8796 348.1613 627.1151 347.0436 627.4504 346.0376 627.5622 344.9199 627.4504 344.0257 627.1151 343.914 627.1151 341.455 623.8737 338.996 623.8737 336.6488 625.215 334.0781 626.2209 331.5074 625.3267 328.8249 622.4207 325.4717 622.4207 320.8891 618.9558 318.0948 618.0616 305.8 618.0616 304.4587 618.5087 301.888 620.4088 300.2114 620.9677 298.5349 620.9677 282.7751 616.6086 272.3804 616.6086 269.9215 616.6086 268.5802 617.391 267.7978 619.0675 267.0154 620.6323 265.2271 620.9677 265.1153 620.0735 262.2092 615.0438 257.8502 611.8024 239.6315 606.2139 236.1666 605.9903 234.9371 605.2079 234.7135 603.7549 234.49 602.6372 234.3782 600.1782 233.5958 596.9369 233.3723 595.1485 232.2546 593.1366 225.213 585.648 219.7362 583.189 213.3652 581.8477 200.5116 581.1771 199.2821 581.9595 198.835 582.7419 198.2761 583.4125 197.4937 583.9714 196.4878 580.5065 194.923 579.8359 191.3463 581.1771 188.3285 581.4007 187.8814 580.8418 188.105 578.8299 187.2108 575.1415 185.646 577.9358 184.0812 577.4887 182.6282 576.2592 182.2928 575.9239 180.0574 575.1415 180.0574 573.6884 181.1751 573.4649 182.9635 572.5707 184.0812 572.3472 182.7399 570.5589 180.281 570.2235 177.9338 569.3294 176.9278 565.6409 176.5925 563.5173 174.6924 556.5875 173.91 554.5756 167.8744 546.7516 166.1978 545.7457 154.0147 545.2986 151.7793 544.1809 144.626 538.7041 142.8376 536.804 142.0552 534.5685 140.8257 532.892 132.89 526.4092 131.437 524.5091 127.7485 517.5793 122.16 510.9848 121.0422 509.9789 120.0363 508.7494 118.5833 504.3903 117.4656 501.149 117.9127 497.684 116.4596 494.2191 115.5655 492.9897 114.2242 491.2013 112.3241 489.3012 111.5417 489.1894 111.2064 490.1954 110.8711 490.9778 109.8651 490.0836 109.1945 489.1894 108.5239 488.5188 107.8532 488.0717 107.1826 487.7364 103.1589 486.8422 102.1529 486.1716 101.0352 489.3012 99.9175 489.3012 98.1292 485.3892 93.5465 482.5949 90.7523 478.9065 88.2933 474.771 85.6108 471.4178 82.3694 469.1824 78.3457 468.4 77.0044 467.5058 75.8867 467.2823 74.9925 468.0647 74.3219 469.9648 73.4277 469.9648 71.4158 467.9529 64.9331 463.9292 64.0389 463.2585 61.9153 453.8697 56.8856 449.5107 51.297 440.7925 45.932 437.6629 43.2495 435.4275 42.5789 433.8627 42.02 432.4097 43.473 430.286 46.2673 428.9448 47.1615 428.0506 48.391 426.9329 47.4968 422.7974 45.2614 421.2326 42.4671 421.1208 41.6847 420.7855 41.5729 420.6737 40.4552 420.2266 40.3435 416.5382 38.3316 416.8735 36.8785 415.1969 35.6491 412.738 33.9725 410.5025 31.8488 404.2433 31.5135 403.4609 31.7371 402.5668 32.0724 401.002 33.4136 398.6548 34.0843 397.6488 35.0902 395.1899 35.8726 392.5074 36.2079 390.6073 35.6491 389.4895 33.4136 389.3778 32.0724 388.7072 31.4018 387.813 29.1663 385.0187 27.6015 384.1245 13.7419 385.354 7.1474 385.9129 6.365 385.6893 1 384.3481 3.3472 383.2304 5.2473 381.442 10.7241 373.9534 12.4007 372.165 16.2009 369.3707 19.3305 368.0295 20.4482 367.2471 21.4541 365.5705 21.4541 364.2293 21.3424 363.1116 21.7894 361.7703 23.2425 360.429 24.8073 360.0937 25.925 359.0878 26.5956 355.7347 28.0486 353.2757 30.0605 353.0521 35.6491 354.1699 41.7965 353.3875 44.9261 353.8345 47.4968 355.7347 48.391 356.4053 49.0616 356.6288 49.844 356.4053 50.5146 355.8464 50.5146 355.7347 52.9736 355.2876 56.8856 355.2876 59.6799 354.6169 59.0092 352.158 56.8856 350.2579 54.7619 349.4755 50.5146 349.0284 52.303 347.24 59.0092 344.5575 60.6858 343.4398 61.3564 342.3221 60.7976 341.0926 59.0092 340.1985 55.9914 339.1925 54.8737 336.2865 55.8796 333.1569 59.0092 331.145 62.4741 326.5624 63.1448 323.9916 61.3564 321.3091 58.8975 321.0856 53.8678 323.5446 51.8559 322.2033 51.8559 320.9738 53.0854 317.2854 53.0854 315.2735 52.0794 313.9322 50.7382 313.7087 49.6205 313.8205 48.7263 313.0381 48.1674 309.4614 50.5146 304.6552 49.9558 300.7432 54.6502 298.1725 56.7738 296.2724 57.7798 293.3663 57.1091 289.6779 52.6383 280.0656 52.1912 279.7303 51.5206 279.3949 50.8499 279.0596 50.4029 278.1655 50.5146 276.936 51.1853 276.2653 51.9677 275.93 52.1912 275.2594 51.8559 266.7648 53.4207 263.9705 55.209 263.4117 57.2209 264.8647 59.0092 267.7707 75.1043 260.3938 80.8046 256.0348 82.8165 254.3582 82.2576 245.4165 83.9342 243.6282 88.2933 241.7281 89.9699 238.9338 90.0816 235.4689 88.9639 232.6746 86.8403 230.5509 84.2695 229.2097 85.1637 224.8506 83.9342 220.3798 81.2517 216.8031 78.0103 215.3501 73.0924 216.2442 63.1448 212.1087 59.0092 213.1146 50.6264 209.6497 47.9439 208.0849 49.2851 206.4084 51.5206 202.7199 52.6383 201.6022 53.5325 202.7199 54.2031 203.3905 54.9855 203.6141 55.9914 202.9435 57.668 201.3787 63.7036 198.1373 64.9331 196.9078 65.8273 195.0077 65.492 192.1017 66.3861 189.978 71.8629 187.4073 78.2339 188.1897 90.1934 192.884 92.0935 194.2253 92.8759 196.2372 93.4348 198.5844 94.5525 200.9316 96.229 202.6081 97.9056 203.6141 106.2884 204.9553 107.6297 204.62 109.3063 203.0552 112.2123 198.3608 114.2242 196.6843 116.3479 202.4964 122.0482 203.5023 133.8959 200.4845 144.8495 199.0315 147.9791 197.5784 146.1908 196.5725 144.9613 194.8959 144.1789 192.6605 143.9553 185.2836 142.9494 180.8128 142.7259 177.0125 144.9613 174.4418 143.9553 173.1006 142.6141 168.8532 141.3846 167.9591 138.255 166.5061 137.3608 165.5001 137.2491 163.1529 139.1492 162.147 144.2906 160.9175 146.7496 159.0174 148.3144 156.782 149.0968 153.8759 149.7674 149.8521 149.4321 149.4051 148.6497 149.1815 147.8673 148.7344 147.7556 147.7285 148.2026 147.0579 149.5439 146.1637 149.8792 145.7166 150.2145 143.8165 150.9969 142.4752 151.1087 141.0222 149.4321 139.2339 158.8209 131.2981 164.2977 128.0568 169.7745 129.1745 175.9219 130.9628 177.4867 131.2981 187.2108 132.8629 192.0169 136.7749 207.3296 157.4526 208.7826 158.7938 210.3474 159.4645 214.1476 160.2469 215.4889 161.141 220.6304 168.7415 222.4187 170.6416 223.9835 170.5298 225.4365 169.8592 227.1131 169.6356 229.3485 170.7534 232.4781 172.9888 235.2724 175.5595 236.5019 177.9067 238.0667 179.695 244.4376 183.0482 247.7908 184.9483 260.3091 188.4132 269.0273 187.8543 303.341 185.6189 321.7833 187.519 327.3718 186.9602 338.549 182.3776 369.1743 178.8009 375.8805 179.3597 381.3573 181.7069 385.8282 182.6011 390.1872 182.154 393.8757 179.9186 398.7936 174.2183 401.4761 172.2064 404.8293 171.3122 408.5177 170.0827 408.7413 169.971 402.9292 165.7237 398.5701 161.4763 397.6759 157.229 398.0112 152.5347 399.4642 143.3694 399.0172 140.7987 398.0112 139.9045 397.7877 139.0103 399.6878 136.6631 401.029 135.769 403.9351 135.3219 405.3881 134.0924 409.4119 125.7096 411.9826 123.5859 426.2893 120.3446 433.5545 118.7798 435.6781 117.662 439.0312 117.8856 442.0491 117.9974 450.9908 116.6561 469.5448 119.0033 471.2213 118.668 480.163 112.8559 500.3936 113.303 508.4411 107.6026 508.6647 106.4849 508.6647 105.2554 508.6647 104.026 508.4411 102.7965 508.3294 102.6847 508.3294 102.5729 508.3294 102.4612 508.4411 102.3494 510.1177 98.7727 511.5707 90.0546 513.2473 86.8132 515.818 85.2484 529.5659 81.6717 531.1307 81.6717 532.6955 82.1188 534.3721 83.5718 537.6134 87.5956 539.1782 88.378 545.9963 87.0367 549.5729 87.5956 552.2554 90.837 552.2554 93.0724 551.473 94.9725 551.026 96.8726 552.479 98.9963 553.932 99.2198 559.297 97.0961 562.9855 98.3256 568.6858 103.4671 571.8154 104.6966 575.2803 103.3553 582.0983 96.9844 585.5633 94.8607 591.2636 93.0724 591.7107 92.8488 597.7463 89.1604 600.5406 88.0427 601.7701 87.0367 602.8878 85.0249 603.6702 81.0011 604.3408 79.4363 606.1292 77.2009 607.4704 76.9773 609.0352 77.5362 611.6059 77.7597 614.1767 76.642 618.6475 72.5065 620.3241 71.7241 623.3419 73.2889 625.0185 75.0772 626.8068 75.8596 630.2717 74.0713 634.6308 69.7122 638.3193 64.0119 641.4488 57.4174 647.2609 39.534 649.0493 36.0691 651.2847 33.0513 655.8673 28.2451 656.2026 27.9098 658.2145 24.892 658.3263 24.1096 658.3263 23.3272 658.3263 22.433 658.2145 21.6506 657.991 17.7386 657.991 15.8385 658.2145 14.1619 662.4618 12.4854 671.7388 11.8147 703.4818 4.4378 705.9408 4.4378 708.1762 5.6673 712.6471 9.6911 714.8825 10.2499 719.5769 10.8088 727.7362 15.7267 732.9894 16.2856 736.7897 15.9503 741.1487 16.7327 745.396 18.6328 748.4139 21.6506 752.2141 22.5448 763.7265 16.9562 768.7562 15.8385 771.4387 17.068 773.3388 18.6328 775.0154 19.3034 777.2508 18.0739 778.9274 15.615 779.8216 13.156 781.051 11.0323 784.0689 9.3558 786.5278 8.7969 791.6693 8.6851 799.3815 6.2262 801.6169 6.8968 806.6466 9.9146 809.3292 10.9206 810.5586 12.1501 811.5646 14.0502 813.0176 18.4092 814.0235 20.0858 816.3707 21.2035 821.8475 21.0917 824.4183 21.6506 825.7595 24.2213 827.6596 33.4983 828.8891 35.9573 837.2719 48.9228 840.8486 53.0583 844.7606 55.9644 849.455 57.6409 854.0376 57.1938 861.8616 53.1701 868.2326 52.2759 872.8152 49.5934 875.0506 48.811 882.8746 48.3639 885.5571 47.358 888.2396 47.2462 897.2931 48.1404 900.0873 47.2462 902.6581 45.2343 905.4524 41.5459 909.029 42.2165 909.2526 42.1047 909.4761 42.1047 910.9292 40.5399 915.8471 38.5281 920.9886 39.1987 926.3536 41.8812 924.1182 48.6992 924.0064 52.2759 928.1419 52.0524 929.2596 52.2759 930.3773 54.176 930.3773 56.2997 930.042 58.9822 930.1538 62 931.7186 66.5826 939.0955 77.9833 940.1014 78.9892 941.1074 79.3245 942.3369 78.9892 943.4546 77.9833 944.1252 77.7597 944.684 77.648 945.3547 77.7597 948.2607 78.8774 950.6079 79.4363 952.9551 79.2128 955.8612 77.7597 956.5318 77.648 957.0906 77.7597 957.7613 78.095 968.8266 92.8488 970.8385 97.4315 972.9622 104.5848 975.5329 109.8381 976.3153 110.844 976.6506 110.844 978.6625 109.7263 989.3925 109.7263 992.1868 108.8321 994.7575 107.1556 997.3283 106.4849 999.7872 108.0497 1000.2343 109.1674 1005.5993 112.1853 1010.0702 116.3208 1012.0821 118.8915 1013.6469 121.9094 1014.6528 126.1567 1014.0939 128.5039 1013.088 130.6275 1012.8645 134.0924 1010.2937 137.222 1011.5232 140.0163 1017 144.4871Z" />
</svg>