<?xml version="1.0" encoding="utf-8"?>
<svg xmlns="http://www.w3.org/2000/svg" viewBox="0 0 694 1024" style="stroke-width:0.25px;stroke-linejoin:round;stroke:#444;fill:#ddd" fill-rule="evenodd">
  <path class="IE" d="M497.2853 89.2814L494.3792 90.3991 493.038 92.0757 491.8085 93.9758 490.579 95.4288 480.7431 96.8818 478.9548 98.3349 477.39 100.1232 473.0309 106.9413 473.7015 109.2884 473.2545 109.7355 472.4721 109.9591 471.8014 111.8592 472.6956 118.6772 472.4721 120.9127 471.4661 122.8128 471.2426 123.1481 468.113 124.3776 466.8835 126.0541 466.3246 129.1837 466.9953 136.0018 466.9953 138.796 465.4305 144.4964 462.9715 149.1908 451.7944 163.1622 450.7884 166.7388 450.5649 173.3333 451.012 175.3452 451.9062 176.2394 451.9062 176.7982 449.8943 177.6924 448.2177 177.5806 445.4234 176.0158 440.729 177.4689 435.4758 175.9041 432.7933 177.5806 427.4283 182.8339 422.175 185.8517 416.9218 186.2988 411.8921 183.6163 407.533 179.7043 405.4094 179.5925 400.1561 184.9575 392.5557 188.7578 395.0146 190.8814 396.0206 191.4403 394.7911 195.464 396.0206 198.1465 398.5913 199.8231 401.2738 200.6055 402.5033 201.3879 404.0681 204.741 405.2976 206.0823 406.5271 206.1941 408.986 204.2939 410.1037 203.9586 412.2274 205.1881 417.1453 209.659 419.6043 210.5531 422.175 209.3237 424.5222 207.5353 426.1988 207.9824 426.5341 213.1239 426.5341 213.3474 420.1631 215.4711 404.9623 230.1131 399.0384 232.3485 393.0028 232.125 381.3785 229.4425 378.1372 233.0191 375.0076 237.7135 373.1075 241.5138 372.3251 242.6315 370.5367 244.308 366.8483 246.5435 358.689 249.0024 355.8947 250.5672 355.0006 251.0143 357.0124 252.8026 357.4595 254.8145 357.7948 257.0499 359.2479 259.1736 362.9363 263.3091 369.419 272.4744 372.9957 276.2746 376.9077 278.3982 381.3785 278.3982 384.6199 286.6693 386.6318 290.4695 389.3143 293.3756 390.6556 293.9344 391.7733 294.3815 397.8089 295.3875 400.0443 297.064 401.162 301.3113 401.7209 312.8238 403.7328 316.9593 406.7506 318.7476 415.1334 319.9771 424.2987 319.3065 427.093 319.8653 438.1583 328.1364 439.1642 329.813 439.3878 332.1602 439.9466 334.3956 441.735 335.7369 458.1653 339.5371 461.4067 338.8664 467.7777 333.8367 471.5779 334.1721 469.9013 336.4075 470.4602 336.8546 471.9132 336.631 473.2545 336.9663 474.3722 339.3135 474.7075 340.4312 475.3781 340.543 477.6135 339.9842 485.1022 342.5549 486.667 342.4431 487.5612 342.3314 484.0963 334.9545 484.0963 333.1661 485.214 331.8249 489.9084 329.0306 490.3554 329.7012 489.9084 331.6013 489.6848 333.9485 489.7966 336.9663 489.573 339.3135 490.1319 340.4312 492.2556 339.3135 493.7086 337.7487 494.8263 335.4015 495.1616 332.719 494.491 330.1483 497.5088 328.5835 497.2853 327.2422 495.944 326.0128 495.1616 324.895 496.0558 322.3243 496.9499 320.6477 498.2912 319.3065 499.9678 317.9652 508.4624 315.7298 511.7037 313.6062 510.6978 309.2471 512.8215 306.2293 507.3447 301.6466 508.3506 297.9582 503.2091 295.3875 502.762 292.5932 503.5444 292.3696 504.6622 292.705 505.5563 291.699 505.6681 291.699 506.8976 289.24 506.8976 289.1283 506.4505 288.6812 505.8916 287.3399 505.4446 285.7751 505.6681 284.5457 506.1152 284.2103 506.7858 283.875 509.4683 284.4339 510.6978 284.4339 515.7275 280.5219 523.2162 268.6741 527.687 264.3151 532.4932 263.868 537.7464 266.4387 547.247 274.4862 548.2529 276.2746 549.7059 280.7454 550.9354 281.5278 552.7238 281.6396 553.7297 282.6455 555.1827 286.7811 556.9711 291.699 557.3064 295.4992 556.0769 298.1817 553.3944 299.6348 558.7594 302.429 560.2124 303.9938 560.8831 306.2293 561.4419 308.8 562.3361 311.4825 564.795 315.618 567.8129 319.1947 571.0542 321.989 574.4074 324.1127 576.3075 324.2244 577.537 322.8832 578.6547 321.2066 580.3312 320.2007 582.1196 320.4242 583.7961 321.4301 587.0375 324.2244 589.2729 326.7952 590.5024 328.36 591.3966 333.0543 589.9436 337.7487 586.4787 342.2196 588.0435 345.2374 587.9317 348.2552 585.4727 354.4026 587.8199 356.3028 591.9554 361.3325 594.1909 362.5619 594.9733 362.0031 595.8674 360.6618 596.6498 359.5441 597.4322 358.6499 598.6617 358.3146 601.0089 359.3206 602.2384 359.5441 615.3156 354.6262 619.5629 354.4026 619.6747 354.8497 620.2336 355.9674 621.2395 357.0851 622.1337 357.8675 623.2514 357.8675 627.1634 356.4145 630.8518 355.7439 631.746 354.8497 632.4166 352.6143 632.3048 350.4906 632.0813 348.4788 632.3048 346.8022 634.3167 343.3373 635.5462 343.5608 636.7757 345.3492 638.564 346.6904 640.5759 346.2433 642.8113 345.1256 645.0468 344.7903 647.3939 346.6904 657.0063 356.191 659.3535 357.4205 660.4712 358.2029 662.7066 361.8913 663.6008 362.7855 666.9539 363.1208 668.1834 363.5679 669.4129 364.3503 672.3189 368.7094 671.7601 371.9507 666.7304 377.9864 664.1596 378.9923 660.2476 377.5393 656.671 375.3039 654.5473 373.5155 652.4237 373.8508 641.6936 369.1564 633.5343 368.1505 633.5343 370.0506 635.4344 371.3919 634.4285 373.8508 632.5284 377.204 631.5224 381.563 630.74 389.2752 630.6283 393.9696 631.5224 398.5523 634.8756 403.2466 640.0171 405.9292 651.4177 407.4939 651.4177 409.3941 649.7411 414.0884 649.6294 418.6711 651.1942 422.5831 654.5473 425.3773 651.4177 428.954 650.6353 435.8838 651.0824 442.7019 651.753 454.1025 652.5354 457.9028 653.5414 461.5912 654.5473 464.3855 656.1121 465.7267 658.3475 467.4033 660.0241 468.521 662.7066 474.7802 666.9539 477.6862 671.5365 479.9217 674.5543 482.1571 675.7838 484.5043 676.9015 487.9692 677.2369 491.8812 676.2309 495.4579 673.6602 499.5934 672.9895 501.27 672.5425 503.3936 671.4248 505.5173 669.6364 510.2117 668.2952 512.1118 667.1774 509.541 664.4949 509.0939 661.3653 510.2117 658.9064 512.1118 668.7422 516.9179 669.5246 519.824 669.9717 522.8418 671.4248 524.6301 670.8659 525.4125 669.86 527.3127 669.4129 528.2068 671.8718 529.4363 678.131 529.8834 680.9253 531.6717 679.2487 536.2543 677.3486 536.4779 675.225 534.5778 673.1013 533.4601 672.4307 532.9012 670.5306 530.3305 669.9717 529.7716 668.5187 530.1069 665.8362 531.3364 664.7185 531.6717 655.7768 538.7133 655.3297 541.5076 656.3356 543.6312 659.9123 547.4315 662.9301 552.0141 664.942 553.8024 669.3011 554.8084 670.8659 556.1496 671.9836 556.3732 673.8837 557.3791 673.8837 559.391 673.1013 561.5146 672.5425 562.5206 672.4307 568.2209 672.6542 571.7976 673.5484 575.486 675.1132 578.2803 675.225 578.2803 677.0133 580.5157 677.9075 583.31 676.7898 588.0044 678.8017 591.0222 684.1667 602.0876 683.8314 603.0935 683.7196 603.2053 683.6078 603.2053 683.049 603.6524 683.8314 607.8997 683.6078 614.0471 682.7136 620.0827 681.4842 623.9947 680.8135 628.0185 682.8254 632.0422 689.3081 639.4191 689.7552 641.3193 687.7433 642.2134 686.9609 643.2194 685.3961 648.0255 684.6138 649.1432 682.9372 650.9316 677.7957 663.0029 678.9134 664.903 672.3189 671.2739 670.5306 673.6211 668.854 677.3096 665.1656 689.3809 666.0597 694.9694 665.6127 696.1989 662.9301 702.4581 655.7768 715.3118 654.8826 720.0062 655.1062 723.8064 656.671 731.0715 657.118 734.8717 656.671 745.7135 654.6591 750.0726 645.3821 765.6088 642.5878 768.9619 640.0171 770.415 637.6699 773.7681 634.0932 780.1391 632.6402 784.051 632.5284 788.7454 632.8637 793.1045 632.5284 796.4576 631.5224 794.5575 630.293 793.3281 628.9517 792.7692 620.01 793.5516 616.7686 792.5457 617.6628 787.963 616.3216 788.5219 614.9803 789.3043 613.7508 790.1985 612.5213 791.4279 612.5213 792.9927 614.8685 793.8869 616.9922 795.787 618.7805 798.5813 619.8982 801.9344 618.8923 804.5052 623.6985 805.6229 625.1515 807.6348 625.9339 810.3173 627.834 808.0818 631.5224 801.9344 631.5224 803.4992 628.9517 808.7525 631.9695 814.4528 639.9053 822.5003 635.5462 833.3421 633.5343 836.1364 631.9695 837.7012 630.8518 838.1483 629.3988 837.813 627.4987 836.36 627.834 835.0187 628.9517 833.901 630.293 830.7714 630.0694 829.6537 628.2811 829.4301 627.3869 829.989 626.0457 831.8891 624.1455 833.4539 623.922 834.0128 623.4749 834.2363 616.7686 834.2363 616.7686 832.7833 619.8982 832.7833 617.7746 830.8832 616.2098 830.8832 613.6391 832.7833 606.2622 834.2363 599.7794 838.1483 597.0969 837.813 593.0732 833.4539 590.2789 832.0009 578.8782 828.536 568.0364 830.2125 565.1304 829.4301 565.1304 827.53 567.4776 826.5241 569.6012 824.4004 571.166 821.1591 571.5013 817.3589 569.6012 819.9296 567.0305 822.5003 564.0127 823.8416 560.9948 822.5003 559.9889 824.0651 560.1007 826.077 560.3242 826.8594 560.3242 827.6418 559.9889 829.4301 561.6655 828.3124 562.1125 827.53 563.1185 827.53 562.5596 831.2185 562.1125 832.6715 560.9948 834.2363 562.0008 834.3481 563.1185 834.2363 563.1185 836.1364 562.5596 836.2482 561.5537 836.1364 560.9948 836.1364 562.1125 837.813 551.0472 844.631 549.4824 846.3076 547.8058 849.4372 545.6822 851.5608 543.1114 849.996 544.4527 846.8664 546.3528 845.1899 548.2529 843.9604 550.0413 842.0603 550.0413 839.6013 547.3587 829.4301 546.4646 827.7536 545.0116 825.4064 543.2232 823.3945 541.5466 822.5003 539.8701 820.8238 537.6347 812.9998 535.6228 810.3173 536.0699 813.2233 536.5169 815.9058 536.7405 817.2471 536.8523 819.7061 537.2993 820.9355 539.423 825.0711 539.9818 827.53 537.97 833.7892 538.3053 836.2482 542.1055 836.1364 542.1055 837.813 539.6465 839.8249 535.2875 845.9723 532.605 848.0959 529.14 848.8783 522.2102 849.1019 518.9689 849.996 519.863 847.2018 524.2221 841.2779 520.869 839.7131 518.9689 839.4895 516.8452 839.7131 516.8452 841.2779 517.6276 841.9485 518.0747 842.7309 518.41 843.6251 518.9689 844.631 517.4041 844.4075 515.3922 843.2898 514.1627 842.9545 512.2626 843.6251 511.2567 845.0781 510.586 846.7547 509.5801 848.0959 506.4505 849.549 503.6562 849.549 497.8441 848.0959 468.3365 851.2255 457.83 857.0376 452.1297 858.3789 451.3473 858.9377 450.7884 860.279 450.0061 861.5085 448.4413 861.732 447.4353 860.8378 446.7647 859.0495 446.3176 857.3729 445.7587 856.5905 443.188 857.4847 440.1702 859.6084 438.3818 862.9615 438.9407 866.9853 440.3937 865.0851 442.7409 864.7498 445.647 865.5322 450.1178 867.6559 451.3473 867.8794 451.5708 868.8854 450.6767 872.015 445.7587 875.5916 445.1999 883.0803 444.641 884.8686 443.4116 885.4275 441.8468 885.651 440.6173 886.657 437.7112 888.4453 429.5519 887.5512 426.3106 889.2277 425.0811 892.6926 425.0811 895.2634 424.1869 896.4928 407.8683 894.2574 407.4212 893.2515 407.1977 890.9043 406.5271 888.6689 404.7387 887.6629 404.5152 888.3336 404.2916 888.8924 404.0681 894.8163 403.7328 896.9399 401.7209 900.1813 399.4855 902.8638 396.9147 904.4286 393.6734 904.6521 398.1442 908.8994 400.0443 909.5701 398.3678 912.029 394.9029 913.5938 388.5319 915.0469 380.4844 918.6235 378.1372 921.6414 381.0432 924.9945 378.5843 926.4475 366.9601 928.9065 361.148 931.2537 351.4239 932.1479 347.1766 931.8125 345.5 931.9243 343.9352 931.7008 343.2646 930.9184 343.5999 929.13 344.7176 927.7888 346.0589 927.0064 347.4001 926.5593 347.0648 925.6651 346.3942 923.3179 348.6296 922.8708 350.7532 921.9767 352.7651 920.5237 354.777 918.1765 353.7711 917.7294 352.9887 917.0587 352.0945 916.6117 350.5297 916.4999 351.7592 913.2585 352.4298 912.2526 353.7711 911.4702 352.9887 909.2348 351.9827 908.6759 350.7532 909.5701 349.412 911.4702 347.4001 910.0172 344.2705 909.3465 338.0113 909.5701 338.0113 908.0053 336.6701 906.7758 334.0993 907.3347 331.1933 908.6759 328.399 909.5701 322.0281 909.2348 318.8985 909.5701 315.7689 911.4702 320.9103 913.3703 327.2813 914.2645 331.1933 917.1705 328.399 924.9945 334.0993 924.4356 335.8877 924.9945 335.8877 926.5593 334.8817 926.5593 334.8817 928.3476 336.223 929.5771 336.8936 929.9124 334.6582 930.4713 333.6523 931.0301 332.6463 931.8125 338.0113 931.8125 335.3288 935.9481 334.8817 936.8422 335.1053 938.1835 335.6641 939.413 336.1112 940.866 335.3288 942.7661 330.2991 948.4664 328.6226 951.149 324.487 953.3844 318.7867 954.8374 316.8866 956.1787 314.8747 959.0847 313.8688 956.2904 311.7451 954.1668 309.2861 953.1608 307.386 953.8315 309.6215 955.6198 310.4039 958.4141 309.7332 961.2084 307.386 962.5496 306.2683 957.5199 303.027 955.7316 295.9854 955.6198 295.9854 957.1846 297.5502 958.0788 300.6798 958.4141 302.2446 959.0847 303.6976 957.4081 304.5917 957.1846 305.3741 959.0847 305.0388 960.426 303.9211 961.5437 302.6916 962.3261 301.6857 962.5496 299.3385 968.4735 298.8914 970.0383 299.115 972.7208 299.7856 976.4092 300.1209 979.3153 298.109 977.527 295.8736 972.609 293.7499 970.8207 291.291 970.5971 283.6905 972.7208 265.3601 970.8207 267.5955 973.2796 270.1662 974.1738 275.7548 974.2856 275.7548 976.0739 274.7488 976.7446 273.7429 977.7505 276.8725 979.3153 275.1959 980.7683 274.3018 982.6684 274.0782 984.9039 274.8606 987.6981 269.0485 987.0275 267.7073 988.0334 266.5895 987.0275 265.4718 985.4627 264.2424 984.345 258.542 984.345 256.9772 984.0097 255.7477 983.3391 254.7418 983.2273 253.7359 984.345 250.6063 983.0037 248.4826 985.798 246.8061 990.0453 245.353 992.9514 239.988 994.7397 239.0938 995.2986 238.4232 997.9811 237.082 997.3105 235.7407 995.5221 235.4054 994.5162 234.2877 993.9573 231.2699 991.7219 229.4815 991.163 227.6932 991.2748 225.4578 992.6161 216.9631 994.5162 215.063 993.7338 211.5981 991.6101 209.5862 991.163 209.5862 992.9514 210.3686 993.2867 211.5981 994.5162 210.3686 997.3105 208.4685 999.4341 206.1213 1000.7754 203.7741 1001.2224 199.8622 1000.2165 198.6327 1000.5518 199.0798 1003.1226 199.0798 1004.5756 196.8443 1004.6873 195.8384 1006.2521 195.056 1008.264 193.8265 1009.8288 192.1499 1010.0524 190.6969 1009.27 189.3557 1008.8229 187.5673 1009.8288 187.4556 1008.1523 187.1202 1006.9228 186.6732 1005.9168 186.3378 1004.5756 182.2023 1007.2581 181.867 1009.4935 180.9728 1009.8288 179.7433 1009.7171 178.5139 1010.6112 176.7255 1012.2878 174.6019 1013.0702 169.5722 1013.182 171.3605 1011.9525 172.8135 1010.6112 173.9312 1008.9347 174.9372 1006.4757 172.7018 1008.0405 170.9134 1008.8229 170.3546 1008.0405 171.6958 1004.5756 173.3724 1002.4519 177.1726 999.8812 179.0727 997.9811 178.6256 997.4222 178.4021 997.3105 178.2903 996.9751 177.8432 996.1927 176.6138 997.4222 171.6958 1000.44 171.137 1001.8931 169.6839 1003.5696 166.4426 1006.4757 164.6542 1003.905 164.8778 1001.5578 165.8837 998.8752 166.4426 995.2986 165.4366 993.7338 162.8659 992.5043 160.0716 991.9454 158.0597 992.9514 159.401 995.8574 155.0419 997.9811 144.0883 1000.44 143.5295 1001.446 143.3059 1003.7932 142.7471 1004.6873 140.0646 1004.4638 139.0586 1004.5756 136.0408 1007.4816 134.3642 1008.1523 131.6817 1008.1523 131.4582 1005.6933 129.6699 1002.899 127.4344 1001.6695 126.4285 1003.7932 118.0457 1011.5054 119.0516 1012.6231 119.4987 1012.9584 120.1693 1013.182 109.6628 1018.2117 110.1099 1015.4174 108.7686 1015.9762 104.2978 1020 103.2919 1018.2117 102.2859 1020 102.3977 1016.8704 102.733 1015.7527 103.2919 1014.7468 103.2919 1013.182 101.9506 1012.7349 101.28 1012.176 100.1623 1009.8288 103.5154 1008.7111 106.3097 1006.6992 111.7865 1001.2224 114.5807 999.3223 119.9458 997.8693 123.2989 996.1927 125.9814 993.9573 132.6877 986.2451 135.5937 984.0097 141.1823 981.4389 144.3119 979.3153 137.2703 978.5329 107.6509 993.7338 98.0386 994.5162 104.5213 990.1571 105.9744 989.5982 107.4274 988.4805 108.5451 986.2451 109.8864 983.8979 115.922 981.7743 134.8113 971.4913 136.935 968.2499 141.8529 967.5793 147.5532 964.5615 153.2536 963.2202 157.7244 961.2084 158.0597 957.1846 158.8421 955.9551 159.5128 954.5021 160.1834 953.8315 160.1834 952.2667 157.948 951.149 155.6008 952.602 152.9183 953.6079 149.4534 950.8136 148.1121 950.9254 147.4415 950.5901 147.3297 949.5842 147.665 946.4546 147.4415 945.5604 146.5473 944.4427 145.2061 943.325 143.753 942.4308 142.1882 941.9837 142.8589 945.1133 142.6353 947.4605 142.7471 949.5842 144.3119 952.2667 141.2941 953.0491 139.1704 954.6139 134.9231 959.0847 131.9053 960.9848 128.6639 961.9908 118.6045 963.1085 113.3513 965.3439 94.0149 968.0264 87.6439 970.9325 85.4085 972.7208 85.0732 973.3914 85.0732 974.2856 84.9614 975.1798 84.4025 976.0739 83.5084 976.7446 73.896 979.8741 70.2076 982.892 68.4193 982.5567 65.4014 981.3272 63.8366 980.9919 56.795 981.886 53.3301 983.4508 50.6476 986.2451 49.6417 984.345 50.7594 983.4508 51.0947 982.1096 51.2065 980.6565 51.7653 979.3153 52.6595 978.6447 63.166 975.7386 65.4014 974.2856 65.4014 973.1679 65.2897 972.9443 64.8426 972.9443 64.3955 972.7208 65.0661 969.703 63.8366 967.9146 61.4894 967.1322 59.1422 967.3558 61.1541 964.2262 64.3955 963.5556 70.6547 964.1144 74.0078 962.6614 81.2729 955.6198 81.2729 953.8315 75.0138 953.8315 77.5845 949.3606 82.3906 945.5604 87.7557 942.9897 91.7794 941.9837 91.2206 943.1014 90.4382 945.6722 89.6558 947.0134 92.3383 946.4546 94.909 945.2251 96.6974 942.6543 97.0327 938.5188 99.0446 939.9718 101.7271 940.4189 107.5392 940.1954 107.5392 938.5188 106.3097 938.2953 103.2919 936.8422 103.2919 935.3892 105.4155 933.9362 109.3275 929.3536 112.3453 927.677 114.1337 924.3239 114.9161 923.3179 116.1455 922.9826 120.1693 923.3179 125.0872 921.7531 134.1407 916.6117 139.0586 915.0469 139.0586 913.1468 127.8815 914.5998 111.7865 920.7472 108.8804 922.5355 107.5392 924.1003 106.645 925.7769 101.5035 925.7769 99.1563 926.5593 100.1623 928.3476 95.5796 931.3655 93.9031 931.8125 94.1266 930.5831 94.5737 927.7888 94.909 926.5593 92.6736 926.5593 91.4441 927.5652 90.5499 928.9065 89.6558 929.9124 87.7557 930.5831 84.0672 931.1419 82.2789 931.8125 75.5726 937.1776 72.1077 938.7424 68.6428 936.8422 65.5132 940.1954 61.6012 943.325 57.5774 945.7839 53.7772 947.0134 54.6714 943.7721 40.1411 936.8422 46.065 935.0539 47.4063 929.0183 44.8355 922.7591 38.5763 919.7413 36.8998 921.0825 32.9878 927.0064 31.1994 928.3476 29.4111 929.3536 24.605 933.8244 22.2578 935.3892 21.4754 932.1479 23.2637 924.8827 22.2578 921.6414 20.0223 921.0825 16.8927 921.4178 14.8809 920.9707 15.9986 918.1765 15.8868 917.0587 15.5515 916.7234 15.2162 916.7234 14.9926 916.4999 15.2162 915.6057 15.5515 915.0469 15.8868 914.3762 15.9986 913.1468 15.4397 913.035 14.4338 913.1468 13.8749 913.1468 13.8749 911.4702 18.9046 910.7996 31.7583 906.2169 34.329 906.2169 35.6703 905.4345 36.1174 903.758 36.0056 901.9696 35.4468 901.1872 33.3231 899.9578 31.9818 897.1635 30.4171 894.7045 27.511 894.2574 27.511 892.6926 29.2993 891.5749 33.0996 890.2337 34.9997 889.2277 33.7702 885.5393 36.8998 883.8627 41.2589 882.9685 45.1708 880.1743 55.0067 875.5916 69.537 872.462 75.7961 868.6618 79.0375 860.1672 80.267 860.1672 80.1552 864.7498 81.6083 866.6499 83.8437 867.097 85.9673 866.9853 85.4085 864.7498 88.6498 849.996 93.456 852.7903 98.2622 853.0139 109.6628 851.5608 108.5451 850.5549 107.3156 848.8783 106.4215 848.0959 111.7865 844.631 81.2729 846.4194 83.2848 851.5608 82.2789 854.3551 81.6083 855.4728 80.7141 851.4491 79.1493 849.7725 77.1374 848.7666 75.0138 848.0959 70.3194 847.7606 49.6417 853.0139 46.065 855.3611 44.3884 853.7963 42.8237 851.4491 41.2589 849.996 39.6941 850.5549 38.5763 852.1197 37.4586 852.7903 33.5466 848.7666 31.7583 848.6548 27.511 849.996 27.511 851.5608 29.0758 851.5608 30.3053 851.8961 32.876 853.2374 32.876 854.8022 28.964 854.1316 21.6989 851.5608 18.1222 851.5608 18.234 853.2374 18.6811 854.0198 20.2459 854.8022 16.8927 854.914 10.8571 857.82 7.6157 858.3789 3.9273 856.9259 2.8096 853.908 2.586 849.6607 1.2448 844.631 2.586 843.9604 5.3803 841.2779 5.3803 839.7131 3.8155 837.7012 5.6039 835.4658 8.8452 833.5657 11.7513 832.7833 10.6336 836.1364 14.0985 839.0425 15.9986 839.7131 17.5634 838.8189 17.8987 836.807 17.4516 835.0187 17.3398 833.2304 19.1282 830.9949 17.5634 829.7655 16.8927 829.4301 18.3458 825.6299 20.1341 824.624 22.4813 824.7358 25.3873 824.0651 27.1757 822.165 30.5288 816.6882 32.3172 815.5705 48.3004 810.8761 50.6476 812.9998 48.8593 822.5003 49.0828 824.0651 59.1422 822.5003 63.6131 819.8178 67.7486 815.347 69.0899 809.982 65.4014 805.1758 70.8782 805.064 72.5548 805.9582 71.7724 808.6407 72.5548 812.2174 72.6666 816.1294 73.3372 819.259 75.4608 820.6002 78.0316 821.0473 82.726 823.2827 87.8674 824.4004 94.2384 824.5122 96.4738 823.171 99.6034 819.0354 101.3917 818.0295 103.2919 818.9237 102.2859 819.7061 101.28 820.6002 103.8507 822.165 114.9161 820.6002 112.4571 818.0295 110.3334 817.3589 105.4155 817.3589 100.4976 814.4528 98.1504 813.8939 95.8032 815.5705 94.6855 814.341 93.7913 812.7762 93.2325 810.8761 92.8971 808.6407 94.7972 810.429 96.1385 811.435 97.8151 811.435 100.1623 810.3173 98.1504 809.0878 97.1444 808.7525 95.8032 808.6407 95.8032 806.7406 97.368 806.6288 101.28 805.1758 99.6034 800.9285 100.0505 788.7454 97.4798 786.1747 89.4322 784.6099 85.0732 782.4862 82.2789 779.4684 84.6261 777.0095 87.5321 776.0035 97.9268 775.3329 113.2395 768.1795 115.2514 766.3912 117.4868 763.0381 120.1693 761.3615 124.1931 761.4733 128.2168 762.591 130.7876 763.9322 130.1169 760.4673 128.3286 758.7908 125.8696 758.3437 123.2989 758.679 124.1931 757.3377 124.5284 755.9965 124.1931 754.767 123.2989 753.4257 123.2989 751.7492 124.5284 750.1844 124.8637 748.7314 124.4166 745.7135 124.9755 743.9252 128.6639 739.4543 129.4463 740.2367 130.4523 739.5661 131.6817 738.3366 133.2465 737.7778 139.6175 739.4543 151.8006 739.4543 153.03 740.0132 154.3713 741.1309 155.9361 741.6898 157.5009 740.4603 158.6186 738.7837 159.6245 738.0013 160.854 737.7778 172.4782 738.2249 173.1488 738.2249 174.3783 738.6719 176.6138 737.5542 186.3378 737.7778 191.8146 736.6601 194.3854 735.6541 196.3972 733.4187 198.6327 731.8539 217.2985 725.93 220.0927 723.9182 221.434 726.7124 224.2283 727.3831 227.3579 726.7124 229.4815 725.7065 230.4875 724.2535 231.3816 721.9063 232.6111 719.7826 234.2877 718.7767 261.2245 715.3118 266.366 713.5234 263.5717 713.5234 253.6241 709.4997 248.4826 708.382 238.535 709.9468 235.8525 709.4997 234.1759 708.2702 233.9524 706.7054 235.9642 704.9171 235.9642 703.2405 235.2936 701.0051 235.5172 697.9872 235.1818 695.4165 232.8347 694.4106 234.0641 692.3987 235.8525 689.0455 236.9702 687.5925 232.9464 688.7102 228.1403 691.3927 224.5636 694.7459 224.2283 697.9872 219.1986 707.4878 205.6743 726.0418 202.7682 727.6066 189.0204 729.1714 188.238 729.842 185.779 733.1952 184.326 734.3129 182.4259 734.6482 180.414 734.4246 178.6256 733.6422 177.0608 732.6363 179.5198 730.4009 182.8729 728.1655 185.3319 725.4829 185.3319 722.1298 180.5257 725.1476 169.2369 728.7243 161.4129 728.9479 158.1715 728.389 155.1537 727.0477 153.9242 724.8123 152.8065 723.3593 147.5532 722.6887 145.5414 720.565 146.3238 716.5413 144.6472 715.2 139.0586 715.3118 139.0586 717.1001 140.3999 717.5472 141.6294 718.5531 142.6353 720.1179 143.3059 722.1298 131.6817 727.6066 124.8637 729.0596 121.5106 730.6244 120.1693 733.4187 119.6105 736.9954 118.4927 737.4425 117.0397 736.5483 115.922 736.1012 111.8982 739.119 84.4025 742.9193 84.4025 741.3545 87.1968 740.125 93.6795 735.3188 101.6153 733.1952 132.6877 703.2405 132.3524 702.2345 131.6817 699.7756 133.3583 698.9932 135.5937 697.0931 137.0468 696.3107 139.0586 695.7518 143.8648 696.3107 145.5414 695.9754 148.4474 694.7459 150.124 694.4106 151.577 693.4046 152.2476 690.9457 152.6947 688.1514 153.9242 685.6924 153.03 684.6865 153.03 684.5747 153.4771 684.2394 153.9242 682.451 152.6947 680.5509 154.3713 679.6568 156.0479 677.9802 157.6127 675.9683 159.0657 673.6211 159.9598 671.3857 160.4069 669.3738 160.9658 667.809 162.307 666.6913 162.307 664.903 162.5306 661.5498 172.0311 652.2728 173.8195 647.3549 170.9134 646.4607 158.8421 647.1314 154.8184 645.6783 159.1774 641.3193 160.9658 638.9721 165.5484 631.1481 167.0014 629.3597 168.678 628.242 167.5603 626.4537 175.7196 610.8057 179.0727 607.1173 181.6435 602.87 183.6553 597.3932 186.3378 592.9223 189.5792 591.5811 193.2677 593.7047 200.421 600.6345 203.7741 602.0876 206.792 600.9699 209.9216 598.958 213.3865 597.952 216.9631 600.1875 217.4102 596.0519 215.1748 593.8165 208.4685 591.5811 208.4685 589.681 217.522 588.0044 219.8692 588.8986 224.5636 592.8106 227.5814 593.1459 227.5814 591.5811 221.2105 588.0044 221.2105 585.9925 224.6754 587.6691 226.6872 588.0044 228.4756 585.9925 230.2639 585.2101 231.3816 585.5454 230.5992 588.0044 232.164 590.0163 233.7288 591.6928 235.7407 592.6988 237.9761 593.1459 236.6349 588.0044 235.8525 585.9925 234.8465 584.4277 236.7466 580.5157 239.2056 577.8332 244.3471 573.9212 242.6705 574.033 239.8762 575.2625 238.535 575.486 223.3341 575.0389 221.2105 573.9212 223.893 572.2447 230.8228 570.4563 233.8406 570.2328 233.8406 568.5562 229.4815 568.5562 229.4815 566.8796 230.9345 565.6502 234.9583 564.4207 236.9702 563.4147 236.9702 561.7382 224.7871 559.9498 221.6575 560.5087 216.2925 562.8559 166.5543 566.9914 161.7482 569.4504 159.401 571.127 156.0479 572.0211 149.5651 572.0211 146.3238 570.4563 144.5354 568.1091 143.1942 565.6502 141.1823 563.4147 144.2001 558.9439 143.0824 556.0378 140.3999 556.0378 139.0586 560.844 138.2762 566.3208 136.4879 569.6739 134.1407 570.0092 131.6817 566.8796 131.6817 564.9795 134.6996 559.7263 133.3583 548.1021 136.4879 545.8667 136.935 546.0902 138.4998 547.2079 139.6175 547.4315 140.1763 546.9844 141.1823 544.5254 141.6294 543.9666 142.0765 543.0724 135.929 536.925 137.6056 535.0249 143.3059 531.6717 137.7174 531.4482 135.0349 531.8953 132.6877 533.4601 134.6996 536.4779 135.0349 540.9487 133.6936 544.749 130.7876 545.8667 127.9933 543.0724 128.6639 538.2662 130.2287 533.6836 130.1169 531.6717 129.2228 531.1129 128.6639 530.2187 127.9933 529.7716 126.9873 530.7776 124.8637 533.4601 123.0754 534.2425 121.8459 536.2543 120.1693 540.2781 116.4809 546.9844 114.1337 549.8904 106.8685 553.2436 104.2978 553.2436 101.7271 550.2257 98.7092 547.655 92.003 549.2198 89.6558 547.4315 90.3264 546.4255 91.1088 543.1842 91.4441 540.2781 92.003 538.378 93.0089 537.3721 94.3502 537.0367 96.4738 536.925 99.0446 536.1426 105.3037 531.8953 107.5392 529.7716 107.5392 528.2068 102.2859 528.2068 102.2859 526.1949 105.4155 524.6301 105.4155 522.8418 103.1801 522.8418 101.5035 523.6242 98.0386 526.1949 98.1504 528.095 96.1385 529.4363 93.7913 529.101 92.8971 526.1949 93.6795 523.9595 96.6974 521.8359 98.0386 519.2651 96.0267 519.4887 94.909 520.8299 93.7913 522.1712 92.3383 522.8418 90.8853 522.3947 89.6558 521.3888 88.2028 521.1652 86.5262 522.8418 86.0791 525.4125 86.5262 528.3186 86.5262 530.6658 84.8496 531.6717 83.173 532.007 80.6023 533.1248 74.4549 533.2365 72.443 532.7894 70.6547 531.6717 69.0899 529.5481 68.1957 527.2009 67.078 525.4125 64.9543 524.6301 58.6952 525.7479 55.0067 525.4125 52.8831 522.8418 51.6536 524.0713 50.4241 524.6301 47.518 524.6301 48.8593 520.4946 50.5359 517.7003 52.7713 516.1355 56.0127 515.6884 61.8248 516.9179 64.1719 516.5826 66.5191 514.1237 66.5191 512.1118 64.7308 511.8882 63.2778 510.9941 62.0483 509.2057 61.2659 506.8585 64.619 507.5292 68.4193 509.2057 71.4371 509.7646 72.7783 506.8585 69.7605 507.1938 63.9484 506.0761 58.1363 503.5054 55.0067 499.8169 54.7832 498.2521 54.0008 495.1226 52.6595 492.2165 51.2065 490.8752 46.7356 492.1047 44.9473 492.3283 43.3825 490.8752 46.9592 487.7457 50.5359 487.8574 54.2243 489.0869 58.1363 489.3105 57.801 488.081 57.2421 485.1749 57.0186 483.9454 63.8366 484.0572 70.6547 485.8455 71.5488 486.8515 73.7843 490.8752 75.3491 490.2046 77.4727 486.9633 79.0375 485.8455 69.7605 479.5864 67.4133 476.4568 73.3372 475.1155 85.2967 476.345 89.6558 475.1155 94.909 471.7624 97.0327 471.6506 98.5975 472.3212 101.8388 474.6684 109.2157 475.8979 121.1752 476.7921 121.1752 475.1155 118.4927 473.7743 107.8745 474.6684 101.1682 472.0977 88.6498 464.3855 86.5262 452.7613 87.4204 447.2845 89.0969 443.0372 90.1029 439.0134 88.6498 434.2073 90.1029 433.2013 96.0267 432.1954 100.1623 430.5188 103.7389 430.0717 105.4155 429.5129 106.9803 427.9481 107.8745 427.7245 111.0041 429.8482 112.6806 430.5188 141.1823 425.3773 141.1823 423.4772 138.8351 423.0301 132.6877 419.9006 133.5818 419.3417 134.1407 418.7828 134.9231 418.3358 135.929 418.1122 135.929 416.3239 135.2584 414.2002 136.8232 411.853 142.1882 407.4939 140.9587 407.3822 138.0527 405.7056 139.2822 404.5879 140.1763 403.0231 140.847 401.0112 141.1823 398.5523 140.1763 398.7758 139.5057 398.9993 138.9469 399.4464 138.0527 400.3406 133.6936 398.664 111.7865 398.5523 96.6974 407.1586 88.3145 409.1705 83.2848 403.8055 85.1849 402.2407 86.0791 394.9756 88.6498 393.0755 88.2028 390.6165 88.2028 389.4988 88.6498 387.7105 88.6498 386.1457 87.5321 386.1457 87.5321 384.3573 94.909 382.3454 96.2503 383.1278 99.6034 385.5868 101.7271 386.1457 103.5154 387.4869 104.186 393.6343 105.9744 394.9756 107.3156 394.1932 107.2039 392.0695 106.9803 389.1635 107.5392 386.1457 106.0861 384.5809 104.8567 382.569 103.4036 381.116 101.28 380.7806 101.28 382.3454 102.2859 384.3573 100.4976 383.6867 99.3799 381.7866 97.5915 375.3039 97.7033 374.0744 97.7033 372.9567 97.0327 371.7272 96.0267 371.5036 93.456 371.8389 92.8971 370.9448 92.3383 369.2682 91.2206 367.8152 90.1029 365.6915 89.6558 361.7795 90.3264 357.8675 92.003 356.6381 94.0149 356.0792 95.8032 353.6202 93.6795 352.7261 93.6795 351.1613 95.0208 349.5965 97.0327 348.4788 95.8032 346.6904 100.1623 343.002 98.7092 341.6607 96.9209 341.549 92.8971 343.002 93.2325 345.1256 93.1207 346.1316 92.3383 346.4669 90.6617 346.6904 90.6617 348.4788 91.7794 348.4788 87.3086 354.0673 82.9495 354.9615 79.1493 351.7201 76.0197 344.9021 79.0375 345.0139 85.9673 343.002 88.6498 341.3254 84.0672 337.8605 82.1671 335.2898 81.2729 332.2719 82.2789 332.8308 84.4025 333.6132 85.4085 334.1721 83.3966 331.0425 78.1433 325.0068 80.1552 326.4598 82.0553 326.5716 83.5084 325.4539 84.4025 323.2185 76.4668 316.5122 73.0019 315.171 70.6547 317.8535 72.8901 320.6477 71.9959 322.8832 69.4252 323.8891 66.5191 323.2185 67.8604 326.0128 68.6428 326.7952 68.6428 328.5835 66.4074 328.36 64.5073 328.6953 61.2659 330.5954 61.2659 332.2719 63.2778 332.9426 64.0602 334.5074 64.3955 339.5371 63.0542 339.6488 60.1482 341.3254 62.1601 342.7784 64.0602 345.2374 64.3955 347.4728 61.713 348.4788 58.9187 348.2552 56.5715 347.2493 55.2303 344.5668 55.0067 339.5371 55.9009 336.4075 59.3658 329.0306 60.1482 326.0128 60.5953 321.2066 61.9365 319.0829 63.6131 317.4064 65.4014 314.165 60.5953 314.0532 58.6952 313.0473 57.0186 310.7001 59.9246 310.7001 61.2659 308.2411 62.1601 304.7762 63.3895 301.7584 65.0661 300.1936 71.7724 296.1699 72.443 295.0521 72.7783 293.7109 73.449 292.705 75.0138 292.5932 75.9079 293.4873 76.2432 295.0521 76.4668 296.7287 77.0256 297.9582 78.9257 299.6348 81.6083 300.976 84.2908 301.3113 86.5262 299.8583 87.6439 301.8702 88.8734 302.9879 90.2146 302.9879 91.7794 301.7584 92.003 302.5408 92.003 302.9879 92.1147 303.2114 92.8971 303.3232 89.4322 309.9177 85.8556 312.9355 82.0553 312.4884 78.1433 308.8 77.1374 313.9415 79.4846 315.5063 83.173 315.7298 85.9673 316.9593 88.4263 318.7476 90.5499 316.8475 92.5618 313.9415 94.909 312.4884 92.7854 309.3589 93.7913 305.1116 96.2503 301.4231 98.5975 299.8583 101.9506 300.7525 107.3156 304.7762 110.6688 305.3351 109.7746 303.0997 108.6569 301.6466 105.4155 299.8583 105.4155 297.9582 106.9803 297.3993 108.4333 297.2876 111.7865 297.9582 108.8804 296.2816 100.8329 294.4933 99.1563 291.8108 98.2622 288.0106 98.5975 286.1105 107.5392 283.6515 110.7805 284.4339 116.7044 288.1223 119.6105 289.0165 145.9884 290.9166 147.665 290.6931 150.5711 289.3518 152.2476 289.0165 153.5889 289.4636 155.7125 291.8108 156.942 292.5932 169.1251 294.3815 170.5781 293.9344 172.4782 292.9285 174.2666 291.4755 175.3843 290.0224 176.8373 288.793 178.7374 289.1283 185.5554 292.4814 187.0085 292.5932 188.1262 293.7109 189.3557 298.6288 190.1381 299.8583 192.9323 299.2994 194.4971 298.7406 194.7207 297.9582 195.7266 300.0818 196.0619 302.2055 195.6149 304.1056 194.7207 305.3351 194.7207 307.1234 198.0738 308.8 198.0738 310.7001 195.1678 312.8238 195.8384 315.2827 203.3271 321.989 205.2272 325.0068 206.4567 329.0306 206.4567 334.1721 207.4626 334.1721 207.5744 329.4777 208.1332 325.4539 208.3568 321.7655 207.4626 317.8535 210.9275 316.4004 214.2806 312.9355 216.9631 307.6823 218.0809 300.7525 220.3163 296.3934 225.4578 295.8345 234.8465 297.9582 235.8525 297.6229 236.7466 296.7287 237.529 296.2816 239.3174 297.8464 241.9999 299.4112 244.4589 300.3054 247.812 302.8761 250.1592 303.3232 257.7596 303.3232 261.1128 302.3173 264.2424 299.8583 268.4897 303.0997 277.8784 301.1996 282.1257 303.3232 283.0199 305.8939 283.467 308.9118 284.4729 311.4825 288.832 313.1591 290.6204 314.9474 293.7499 319.8653 295.8736 318.1888 298.2208 317.6299 303.2505 317.8535 303.2505 316.0651 301.0151 314.9474 298.2208 314.165 295.8736 312.6002 294.8677 309.6942 293.8617 307.6823 291.5145 306.2293 288.7202 305.3351 286.373 305.3351 286.373 303.3232 287.379 302.0937 289.1673 298.9641 290.5086 297.9582 293.9735 299.6348 295.9854 300.1936 296.8795 298.8524 298.6679 297.7347 309.5097 299.8583 307.0507 296.6169 304.2564 294.3815 301.3504 293.0403 298.4443 292.5932 295.3147 292.8167 294.197 292.1461 293.7499 290.0224 294.6441 287.3399 296.5442 288.0106 300.1209 290.9166 303.1387 289.1283 302.021 286.5575 298.6679 284.5457 295.4265 283.6515 280.1139 283.6515 279.3315 282.7573 279.1079 280.0748 279.7785 278.0629 281.3433 276.2746 283.1317 275.1569 287.6025 273.8156 305.4859 261.0737 307.9449 260.1795 308.9508 259.3971 309.3979 257.2735 309.5097 252.0202 310.0685 247.5494 311.1862 248.3318 312.304 251.2378 312.751 252.8026 313.4217 253.0262 313.5334 253.2497 313.6452 254.8145 318.1161 251.5732 322.6987 249.3377 323.1458 249.226 335.6641 246.767 337.5642 246.3199 344.4941 241.5138 349.412 240.396 349.412 238.3842 344.3823 238.1606 342.1469 237.1547 340.135 234.5839 348.5178 227.5424 348.0707 222.4009 355.2241 215.9182 354.777 209.3237 356.4536 210.3296 357.4595 211.5591 358.689 212.565 360.5891 212.9003 362.3774 204.4057 363.1598 202.0585 362.7128 201.4997 362.4892 201.4997 362.3774 201.2761 362.1539 200.382 359.1361 203.288 356.1183 204.8528 345.6118 206.6411 340.0232 211.2238 336.8936 212.9003 336.8936 211.3355 338.4584 208.9883 338.682 206.5294 337.5642 204.6293 335.3288 203.8469 333.0934 205.0763 329.1814 210.1061 325.2694 212.1179 318.1161 220.1655 315.9924 221.9538 313.8688 223.295 311.6333 223.7421 311.6333 222.1773 315.3218 217.7065 317.669 215.6946 320.575 214.9122 322.5869 212.9003 322.1398 209.2119 320.2397 206.8647 318.0043 209.3237 316.8866 209.3237 317.4454 203.5116 315.4336 203.5116 312.8628 207.0882 311.6333 212.1179 310.8509 213.6827 309.1744 212.3415 307.7213 210.2178 307.0507 208.3177 307.1625 207.2 307.0507 206.0823 305.8212 205.6352 304.8153 205.9705 303.2505 207.0882 302.2446 207.5353 298.5561 207.7589 296.7678 208.4295 295.0912 212.1179 293.1911 211.5591 290.0615 209.3237 278.4373 209.2119 275.7548 207.5353 276.9843 204.9646 275.5312 203.5116 262.9011 198.5936 260.1068 198.5936 260.6657 197.5877 261.001 196.6935 261.4481 195.7993 262.2305 194.7934 262.2305 193.2286 260.2186 191.8873 259.2127 189.9872 259.548 188.3107 261.6716 187.5283 263.907 187.3047 265.8072 186.4106 266.9249 184.3987 267.3719 181.2691 269.1603 179.2572 280.0021 171.2097 284.0259 169.6449 299.3385 170.092 307.4978 172.7745 311.6333 172.8862 311.6333 171.2097 300.9033 168.5272 297.9972 165.6211 300.3444 164.5034 307.2743 164.1681 309.0626 164.8387 310.9627 167.9683 313.4217 171.0979 316.216 172.6627 319.0102 171.2097 310.8509 163.0504 305.1506 160.9267 299.562 156.903 295.9854 156.5677 296.5442 153.9969 297.7737 153.3263 299.2267 153.3263 301.1268 152.8792 302.5799 151.6497 304.7035 148.8554 306.3801 147.4024 309.3979 150.532 312.751 150.7556 320.0162 149.4143 328.5108 152.8792 331.7521 152.8792 331.7521 151.0909 328.9579 150.6438 325.6047 149.1908 323.1458 146.3965 323.2575 141.9256 325.3812 139.6902 331.4168 140.6961 333.6523 140.1373 331.6404 138.349 329.9638 133.6546 327.9519 132.6486 325.0459 132.4251 324.2635 132.6486 323.7046 133.8781 323.3693 135.7782 323.3693 137.4548 323.2575 138.349 318.8985 138.1254 315.3218 134.2134 312.5275 128.7366 310.5156 123.7069 312.5275 122.2539 313.9805 123.0363 315.4336 124.6011 317.4454 125.3835 319.5691 125.0482 321.581 124.2658 325.3812 121.695 320.9103 119.7949 317.4454 116.4418 311.6333 109.0649 311.6333 107.1648 312.8628 105.8235 314.5394 105.2647 316.216 105.6 318.0043 107.1648 319.5691 104.4823 320.0162 103.4763 319.0102 103.4763 319.7926 99.6761 321.0221 99.0055 322.5869 99.229 324.2635 98.1113 327.2813 91.6286 328.399 90.6227 329.852 92.1875 330.2991 98.4466 331.7521 99.7879 332.5345 98.6702 333.5405 93.7523 334.8817 92.2992 333.0934 84.4752 332.5345 79.7809 333.2052 77.6572 334.9935 75.8689 337.4525 67.5978 338.9055 64.8035 341.3645 64.6917 349.9708 68.492 352.7651 67.9331 357.4595 65.3624 360.0303 64.8035 359.0243 67.1507 358.0184 68.9391 357.236 70.7274 356.9007 73.1864 357.6831 74.5276 359.4714 72.9628 364.054 66.3683 373.331 60.4444 376.3488 59.3267 378.4725 57.2031 379.9255 52.844 381.8256 48.932 385.2905 48.2614 389.3143 51.391 388.0848 54.4088 381.0432 59.3267 381.0432 61.1151 387.526 57.6502 388.5319 58.3208 389.5378 59.662 391.885 59.4385 394.344 58.3208 395.797 57.3149 397.8089 61.1151 397.8089 62.7916 397.2501 65.9212 398.4795 65.4741 400.8267 63.6858 403.1739 62.7916 402.3915 65.4741 401.2738 67.2625 399.709 68.1567 397.8089 68.492 397.8089 70.2803 400.715 70.1685 402.3915 70.7274 403.7328 70.6156 405.2976 68.492 407.0859 63.574 406.6388 60.668 403.1739 55.6383 402.2798 50.1615 404.7387 46.9201 408.7625 43.7905 412.6745 39.0961 413.0098 40.4374 413.2333 40.5492 413.7922 41.108 410.2155 53.7382 409.992 55.6383 410.3273 56.0854 410.7744 57.2031 411.5568 58.4326 412.6745 59.3267 414.0157 59.3267 415.4688 57.5384 416.9218 57.3149 418.9337 58.3208 422.175 60.4444 425.0811 63.2387 426.3106 65.6977 426.6459 66.7036 427.9871 70.2803 428.4342 72.1804 428.4342 74.0805 427.6518 78.8867 427.4283 81.3457 428.546 78.8867 431.005 71.8451 432.1227 70.2803 432.6815 68.3802 431.6756 64.1329 430.2226 59.9974 429.4402 58.3208 429.2166 55.6383 428.546 52.1734 427.2047 49.2673 425.3046 48.2614 424.0751 50.2733 424.4105 54.1853 425.4164 58.3208 426.3106 61.1151 424.1869 60.7798 422.7339 59.215 421.5044 57.3149 420.0514 55.6383 415.5805 54.297 413.6804 52.6205 414.2393 49.1556 418.3748 40.6609 418.3748 39.0961 423.9634 39.9903 426.3106 39.0961 431.8991 34.29 433.7992 33.6194 436.37 34.6253 438.0465 37.196 439.276 39.8785 440.6173 41.108 441.3997 43.1199 441.0644 47.2554 440.3937 51.391 440.0584 52.844 440.9526 55.303 442.8527 57.0913 447.3235 59.3267 447.4353 62.4563 448.6648 66.1448 450.4531 69.0508 452.1297 70.2803 454.2534 72.2922 454.4769 76.763 453.5827 81.1221 452.1297 83.134 449.7825 83.8046 447.9942 85.4812 445.1999 88.8343 436.8171 94.3111 436.8171 96.0994 445.9823 94.4229 449.0001 95.9877 447.3235 101.5762 445.5352 103.5881 437.823 109.0649 432.7933 116.4418 430.6696 118.2301 430.6696 120.1303 433.6875 119.1243 436.4817 117.2242 451.012 102.9175 452.6886 102.5822 453.918 99.6761 457.0476 98.2231 460.6243 97.3289 463.195 96.0994 465.2069 92.8581 466.1011 88.499 465.4305 84.8106 462.6362 83.134 461.9656 82.0163 462.5244 79.6691 464.201 75.8689 464.201 69.3861 463.0833 68.9391 456.9359 59.3267 453.3592 56.3089 452.1297 54.7441 451.4591 52.9558 450.9002 50.0497 450.9002 47.479 454.3651 44.3494 456.0417 39.655 456.377 34.1782 454.7004 29.9309 457.3829 30.1545 459.6184 31.2722 461.742 31.6075 464.201 29.9309 463.7539 29.0367 463.6421 28.3661 463.5304 27.5837 463.195 26.2425 466.3246 28.925 469.566 30.9369 472.9191 30.8251 478.7312 24.4541 481.8608 23.4482 484.9904 25.013 487.3376 29.9309 484.0963 30.0427 483.0903 29.9309 485.9964 32.0546 489.3495 33.6194 492.8144 33.8429 495.8322 31.6075 485.9964 23.6717 481.4138 17.7479 481.0784 11.4887 476.9429 9.0297 475.1546 7.3531 473.8133 5.5648 476.2723 4 478.9548 4.5589 484.208 7.5767 494.8263 11.4887 497.2853 11.824 503.2091 15.0653 505.221 16.8537 513.1568 29.0367 515.3922 31.0486 523.1044 34.6253 528.8047 35.6312 535.7345 38.6491 538.9759 41.108 542.4408 39.5432 544.5645 43.6788 544.0056 49.1556 539.423 51.9498 535.1757 52.844 530.0342 55.0794 525.1163 58.209 519.9748 63.4623 514.9451 66.1448 510.8096 67.486 508.6859 69.3861 501.9796 78.8867 499.6325 83.2458 497.6206 88.1637 497.2853 89.2814ZM126.4285 559.9498L130.1169 566.209 127.0991 570.9034 121.8459 572.58 119.0516 569.4504 118.6045 565.6502 117.8221 563.7501 117.5986 562.297 119.0516 559.9498 120.8399 558.6086 123.0754 558.1615 125.0872 558.6086 126.4285 559.9498ZM80.267 384.3573L82.0553 383.3514 83.7319 382.7925 85.2967 383.0161 86.5262 384.3573 86.5262 386.1457 85.2967 388.1575 84.2908 392.2931 83.8437 396.8757 84.4025 400.3406 81.0494 403.4702 78.1433 401.7936 75.2373 398.1052 71.7724 394.9756 69.8723 394.8638 67.7486 395.1991 66.0721 394.8638 65.4014 392.2931 65.7367 388.3811 66.2956 385.475 66.0721 383.0161 64.3955 380.7806 61.2659 379.7747 49.6417 382.3454 45.3944 381.7866 37.9057 378.8805 33.7702 378.7688 33.7702 377.0922 37.7939 376.8686 41.0353 375.9745 43.7178 373.292 45.5062 368.1505 46.7356 369.6035 47.9651 370.1624 49.3064 369.6035 50.6476 368.1505 54.0008 372.1743 57.9128 371.0565 61.8248 368.0387 64.9543 366.3622 78.3669 366.8092 81.2729 368.1505 84.4025 375.0803 81.2729 375.0803 81.6083 377.204 81.6083 379.2158 81.1612 381.0042 80.267 382.3454 80.267 384.3573ZM301.1268 105.2647L303.5858 106.3824 305.4859 107.7237 306.7154 110.0708 307.386 114.4299 300.6798 116.5536 297.3266 116.33 294.8677 114.4299 294.8677 112.7534 295.203 111.6356 295.3147 111.5239 295.203 111.1886 294.8677 109.0649 297.1031 107.5001 297.9972 107.1648 297.6619 106.4942 297.2149 105.7118 296.8795 105.2647 298.2208 103.8117 299.3385 103.4763 300.2327 104.0352 301.1268 105.2647ZM102.733 972.3855L104.186 972.0502 105.4155 972.8326 104.186 974.6209 103.2919 975.1798 91.2206 979.2035 89.544 978.4211 87.1968 977.1916 87.6439 974.8444 89.8793 972.9443 92.7854 971.8266 96.362 971.4913 101.6153 972.3855 102.733 972.3855ZM26.6168 901.1872L28.2934 901.4108 28.964 902.9756 27.8463 904.8757 25.052 906.7758 19.1282 909.5701 13.7631 910.1289 12.3101 911.582 9.1805 912.029 8.7334 910.1289 11.416 906.5523 19.2399 901.1872 20.693 899.846 23.4872 899.9578 24.605 900.1813 25.7227 901.4108 26.6168 901.1872ZM128.6639 604.4348L129.111 604.2112 129.7816 604.5465 129.5581 606.4466 126.7638 607.3408 108.6569 598.8462 103.6272 595.2695 105.192 593.0341 108.7686 592.9223 112.6806 595.8284 114.5807 595.9402 118.2692 595.1578 121.1752 595.4931 125.0872 597.0579 126.3167 598.958 124.9755 600.8581 125.0872 602.5347 128.6639 604.4348Z" />
</svg>