<?xml version="1.0" encoding="utf-8"?>
<svg xmlns="http://www.w3.org/2000/svg" viewBox="0 0 368 1024" style="stroke-width:0.25px;stroke-linejoin:round;stroke:#444;fill:#ddd" fill-rule="evenodd">
  <path class="IL" d="M1.0954 578.6156L4.6721 575.3743 16.0727 566.8796 23.7849 558.4968 24.4556 554.026 22.6672 545.196 22.6672 540.7252 27.4734 531.6717 52.5101 507.6409 55.7515 505.2937 55.8633 505.2937 63.0166 498.6992 69.164 493.5578 61.2283 488.7516 52.6219 482.2689 54.522 477.798 59.887 470.8682 79.5587 436.8898 81.0118 434.8779 93.5301 406.7116 99.5658 392.9637 103.7013 386.3692 110.6311 363.3443 110.7429 362.1149 110.5194 359.3206 110.6311 358.0911 113.649 356.4145 131.5323 300.4172 139.3563 261.2972 146.1744 227.0953 147.5156 224.5245 148.7451 212.9003 149.8628 209.3237 149.5275 205.5234 154.5572 184.0634 155.7867 160.4796 157.575 155.1146 160.9282 153.3263 163.7224 153.9969 168.1933 156.903 171.5464 157.5736 173.5583 157.1265 181.2705 148.8554 182.2765 146.62 184.0648 139.6902 185.0707 136.3371 184.6237 133.0957 181.9411 131.7545 183.2824 127.8425 184.7354 111.7474 187.7532 103.2528 188.6474 98.2231 187.7532 93.6405 188.7592 92.6345 189.9887 90.958 190.9946 90.1756 189.4298 88.3872 190.4358 88.1637 190.6593 87.9402 208.4309 89.2814 209.3251 88.9461 211.784 87.046 213.2371 86.4871 214.5783 86.5989 217.7079 87.3813 219.2727 87.4931 227.432 84.8106 230.1145 84.8106 231.344 85.2576 232.5735 85.9283 235.0325 87.9402 237.2679 90.6227 238.8327 93.7523 240.8446 96.4348 243.7506 96.7701 256.269 93.5287 266.8872 88.9461 273.5935 88.3872 274.7112 84.3635 278.8468 76.9866 280.7469 72.5157 281.9763 65.8095 282.4234 52.844 284.2118 46.9201 286.2237 43.3435 287.4531 39.7668 289.0179 37.196 291.5887 36.9725 292.8182 38.5373 296.8419 44.9083 299.6362 46.9201 299.748 46.9201 300.9774 48.0378 301.201 46.9201 304.107 43.7905 304.5541 40.3256 307.0131 38.9844 311.7075 38.4255 313.4958 35.0724 321.9904 26.2425 325.9024 25.1248 328.8085 24.9012 331.9381 24.007 334.9559 22.554 337.6384 20.8774 341.2151 16.8537 345.6859 8.0238 349.0391 4 349.3744 5.3413 348.1449 7.0178 347.8096 11.3769 347.1389 12.8299 346.5801 16.2948 343.0034 18.9773 341.2151 20.8774 336.4089 23.1129 344.9035 28.925 337.4149 39.4315 338.9796 41.5551 345.2388 45.8024 346.133 58.209 351.0509 61.3386 351.8333 68.9391 349.3744 74.0805 346.9154 77.9925 346.9154 81.9045 355.1865 85.4812 354.5158 88.9461 357.4219 114.0946 358.6514 117.336 363.9046 126.0541 360.775 131.978 359.2102 132.4251 355.41 138.9078 352.8393 146.8436 353.6217 150.0849 351.9451 156.7912 340.8798 169.9802 334.9559 178.8101 331.1557 179.8161 318.9726 187.5283 311.7075 194.1228 309.025 195.464 308.1308 196.0229 302.8776 195.3523 302.7658 195.2405 302.8776 195.3523 298.742 198.2583 295.3889 202.7292 293.4888 204.5175 291.924 205.1881 291.3651 205.9705 291.2534 208.2059 292.1475 210.1061 294.0476 211.2238 294.0476 212.7886 292.4828 212.7886 292.4828 214.8004 293.8241 217.1476 294.4947 223.9657 295.7242 227.207 294.83 228.5483 294.4947 228.7718 294.3829 228.1012 294.0476 227.207 293.4888 228.1012 292.4828 230.8955 291.1416 229.1072 291.924 234.5839 292.4828 236.2605 289.465 236.2605 289.465 238.0488 290.6945 237.9371 291.5887 237.9371 293.1535 240.2843 293.6006 241.402 295.7242 243.6374 295.7242 245.2022 293.7123 245.8728 292.3711 247.2141 291.5887 249.0024 291.1416 250.7908 292.0358 251.3496 292.4828 251.7967 293.0417 252.2438 294.0476 252.3556 294.0476 254.3674 292.7064 255.2616 291.1416 255.9322 292.4828 257.7206 289.465 259.7325 290.0239 260.1795 290.471 260.0678 290.8063 260.2913 291.1416 261.5208 289.465 261.5208 289.465 263.0856 290.918 264.5386 291.1416 265.5446 290.1356 266.327 288.012 266.6623 289.0179 269.5683 289.465 270.4625 290.5827 271.5802 291.4769 273.2568 273.5935 268.5624 268.452 267.2211 263.1988 267.1094 257.3867 265.321 256.1572 258.7265 256.269 250.5672 254.3689 244.4198 247.7744 240.396 241.1799 239.6136 227.2085 240.2843 223.1847 238.8312 216.9255 233.578 213.9077 232.0132 213.5724 231.7897 209.6604 232.0132 206.5308 234.4722 200.9422 240.9549 194.1242 245.314 187.5297 248.4436 181.6058 252.6909 177.2468 260.2913 174.676 273.9274 173.7818 278.3982 172.2171 283.7633 171.3229 284.3221 168.4168 285.4398 167.5227 286.1105 166.6285 289.3518 165.8461 297.6229 165.1755 301.0878 167.9697 301.8702 169.5345 303.8821 169.8699 306.6763 169.0875 309.9177 167.5227 313.1591 158.9163 321.2066 158.1339 325.1186 159.1398 328.4717 162.3812 334.6191 164.5048 341.4372 163.946 350.3789 168.9757 368.374 166.7403 370.9448 167.1873 375.4156 166.9638 379.3276 164.5048 382.3454 167.6344 386.9281 169.0875 388.1575 168.1933 389.6106 168.6404 391.0636 170.9876 392.9637 174.0054 393.5226 176.0173 397.6581 175.0113 409.9529 174.1172 411.0706 168.8639 411.2942 167.0756 411.853 165.1755 414.0884 162.7165 416.2121 162.3812 417.218 163.0518 417.7769 167.7462 418.4475 170.3169 418.224 173.4465 417.4416 177.4703 413.3061 179.8175 412.0766 181.7176 411.7413 184.2883 411.853 186.8591 413.4178 188.9827 417.7769 192.3359 419.677 194.236 419.4535 197.7009 422.2477 205.8602 423.9243 208.5427 423.589 208.5427 422.2477 207.7603 420.6829 207.9838 419.3417 209.4369 419.0064 210.8899 419.0064 214.5783 421.0183 215.1372 420.6829 215.249 419.677 215.249 415.765 214.4666 411.9648 213.6842 409.3941 212.6782 407.3822 212.79 405.8174 214.3548 404.6997 216.4784 405.2585 217.4844 408.3881 217.3726 410.9589 217.7079 412.859 219.0492 414.8708 221.5081 414.2002 222.7376 414.312 223.52 415.0944 224.3024 415.8768 223.0729 417.7769 223.52 418.224 224.973 418.4475 225.979 419.1182 225.0848 421.0183 223.9671 422.6948 224.6377 425.7127 224.973 427.8363 225.5319 428.6187 224.526 430.1835 223.2965 433.7602 223.4083 435.6603 224.8613 437.1133 225.5319 439.237 224.526 440.9135 223.2965 442.0312 222.5141 445.8315 221.5081 446.9492 221.0611 449.0728 220.0551 449.5199 218.6021 448.6257 217.8197 447.3963 217.0373 446.9492 215.9196 447.9551 212.79 445.9432 207.0897 446.7256 204.2954 443.596 201.6129 443.2607 200.3834 442.2548 195.2419 443.3725 192.6712 447.2845 188.0886 451.3083 180.4881 458.0145 161.5988 469.974 157.575 474.7802 157.0162 475.7861 153.5513 482.6042 152.5453 489.6458 152.4336 496.9109 151.2041 505.2937 141.2564 522.0594 138.0151 530.7776 140.5858 539.3839 145.5037 543.1842 151.3158 544.0783 157.4633 543.0724 163.0518 541.1723 176.2408 539.3839 203.8483 539.6075 216.8138 534.6895 240.9563 514.5707 253.6982 507.1938 268.7873 505.9644 268.8991 506.0761 268.5638 521.1652 268.452 523.736 267.5579 529.5481 263.6459 540.0546 259.5103 547.4315 261.1869 549.3316 260.8516 554.9201 257.722 560.3969 254.9277 566.6561 256.1572 573.8095 258.2809 580.404 260.6281 585.5454 263.8694 592.0282 265.4342 599.0697 264.4283 606.4466 254.0336 627.1243 252.5805 634.613 252.6923 642.7723 250.1216 647.4667 244.1977 653.167 241.5152 655.8495 238.7209 661.6616 238.0503 667.4737 238.162 673.2858 237.4914 678.9861 236.1502 681.4451 232.4617 684.7982 230.6734 686.8101 229.2204 689.9397 228.5497 692.8458 227.5438 699.3285 225.7554 705.4759 212.79 731.8539 203.2894 763.3734 202.1717 769.409 198.3715 779.9155 198.3715 786.0629 199.4892 788.7454 202.6188 793.8869 203.2894 797.5754 202.8424 801.152 201.6129 803.8345 200.0481 806.5171 198.8186 809.6466 196.6949 823.0592 195.1301 827.4183 195.0184 834.7952 199.601 850.4431 199.601 858.4906 195.9125 867.097 186.5238 881.292 183.953 891.3514 183.8413 894.481 182.9471 896.7164 181.8294 898.7283 181.047 900.9637 179.3704 909.5701 179.1469 925.1063 178.2527 930.2477 167.9697 958.0788 166.2932 964.4497 165.1755 978.7564 163.0518 985.1274 160.1458 989.9336 158.581 995.5221 157.575 1002.4519 156.6809 1005.8051 155.2278 1008.0405 151.4276 1012.8466 149.6393 1015.5292 148.7451 1017.3175 148.4098 1018.9941 147.6274 1020 145.9508 1020 143.9389 1019.8882 142.3741 1020 140.474 1016.3116 135.4443 1005.8051 133.8795 999.7694 134.2149 982.1096 128.5145 955.9551 119.9081 931.9243 110.184 905.3228 108.8428 891.4631 108.9546 889.8983 108.731 888.3336 108.3957 886.7688 107.7251 885.4275 99.2305 860.7261 86.1532 822.9474 78.7763 801.8227 76.3174 798.246 64.2461 787.6277 62.7931 785.1688 62.2342 782.2627 62.6813 777.6801 64.805 770.0796 64.805 766.503 62.5695 763.3734 59.1046 758.5672 57.7634 754.2081 57.3163 743.5899 52.5101 723.1358 38.874 687.0337 27.5851 657.1908 19.0905 634.7248 12.1607 612.9294 3.4426 585.6572 1.0954 578.6156Z" />
</svg>