<?xml version="1.0" encoding="utf-8"?>
<svg xmlns="http://www.w3.org/2000/svg" viewBox="0 0 790 1024" style="stroke-width:0.25px;stroke-linejoin:round;stroke:#444;fill:#ddd" fill-rule="evenodd">
  <path class="IM" d="M293.2413 1020L279.1581 984.5685 261.9453 981.886 242.2736 993.0631 220.7018 1000.9989 196.671 991.8337 166.0457 951.3725 141.7913 941.9837 106.5834 958.4141 74.3933 990.9395 40.5266 1013.629 1.2949 1000.9989 1.2949 980.0977 10.0131 975.068 15.8252 970.2618 22.755 966.1263 34.9381 962.7732 32.9262 908.5641 88.2529 829.989 103.0067 780.5861 103.7891 696.4224 110.1601 660.4321 125.4727 618.7415 130.9495 591.9164 129.0494 573.0271 132.2908 561.7382 168.6164 552.9083 208.2952 525.5243 242.6089 481.0394 292.7942 435.9956 315.819 404.6997 387.6879 228.7718 426.3607 152.991 484.8171 97.3289 572.3339 45.2436 633.9198 30.378 664.6569 13.277 694.0527 4 721.1013 18.642 711.6008 59.215 678.0694 164.8387 681.199 202.9527 690.0289 223.9657 700.6472 270.686 709.7007 289.4636 722.4426 297.3993 752.3972 301.1996 764.6921 310.253 773.4102 326.0128 783.5814 351.273 785.7051 374.9685 770.8395 385.2515 761.3389 394.1932 738.3141 442.8136 726.131 452.6495 716.0716 475.1155 707.2417 501.1582 697.6294 521.3888 687.4582 532.007 642.638 557.7144 656.3858 634.3894 620.619 675.5212 564.2864 706.1465 517.3425 750.9668 518.9073 785.5041 429.155 846.3076 405.4595 876.0387 395.5119 897.8341 372.487 908.5641 346.6679 915.2704 328.1139 924.771 314.9249 944.778 293.2413 1020Z" />
</svg>