<?xml version="1.0" encoding="utf-8"?>
<svg xmlns="http://www.w3.org/2000/svg" viewBox="0 0 570 1024" style="stroke-width:0.25px;stroke-linejoin:round;stroke:#444;fill:#ddd" fill-rule="evenodd">
  <path class="IO" d="M553.5392 997.7575L555.3275 995.5221 556.8923 994.2926 558.2336 992.6161 559.3513 988.8158 560.6925 991.4983 561.3631 994.0691 561.1396 997.0869 559.5748 1000.7754 555.8864 1005.1344 542.8091 1016.7586 537.6677 1020 534.9851 1007.0345 537.6677 980.5448 534.5381 969.5912 531.5202 967.0205 521.1255 961.2084 517.2135 960.2024 513.078 957.5199 503.2421 944.3309 509.2778 945.2251 531.8556 960.7613 537.6677 966.4616 540.4619 977.6387 537.6677 1016.8704 542.362 1012.7349 553.5392 997.7575ZM561.1396 948.9135L565.9458 957.1846 563.5986 963.5556 558.9042 969.703 556.4452 977.527 556.6688 980.6565 557.1158 983.3391 558.7924 987.5864 556.8923 985.1274 554.8804 981.5507 553.7627 977.7505 554.9922 974.2856 562.2573 960.0906 558.01 949.0253 548.6212 938.2953 540.7972 925.218 545.7152 928.5712 561.1396 948.9135ZM41.9625 660.3204L47.3275 660.4321 44.1979 661.9969 42.6331 661.7734 41.9625 660.7674 41.9625 660.3204ZM1.2778 538.6015L1.0542 533.7954 1.7249 531.8953 3.9603 530.1069 4.6309 533.7954 4.0721 535.919 2.8426 537.3721 1.2778 538.6015ZM36.4857 449.8552L38.274 446.2785 40.3977 443.596 43.3037 441.8077 46.6569 441.3606 44.8685 446.6139 42.2978 451.8671 39.3917 453.9908 36.4857 449.8552ZM235.5502 102.0233L231.6382 99.1173 230.6322 98.1113 234.8795 98.8937 236.2208 99.8997 235.9972 101.0174 235.5502 102.0233ZM440.8738 50.2733L445.2329 46.3613 444.0034 48.932 442.6622 50.0497 441.5444 50.2733 440.8738 50.2733ZM219.008 30.7133L223.5906 23.6717 222.92 27.6955 221.467 29.8191 219.9022 30.6015 219.008 30.7133ZM229.6263 8.3591L233.4265 7.2414 232.5323 9.5886 231.6382 9.8121 230.744 9.0297 229.6263 8.3591ZM323.9612 7.5767L323.2905 6.459 322.3964 5.9001 321.9493 5.3413 322.3964 4 324.0729 4.2235 324.4083 5.0059 323.9612 6.1237 323.9612 7.5767Z" />
</svg>