<?xml version="1.0" encoding="utf-8"?>
<svg xmlns="http://www.w3.org/2000/svg" viewBox="0 0 1005 1024" style="stroke-width:0.25px;stroke-linejoin:round;stroke:#444;fill:#ddd" fill-rule="evenodd">
  <path class="IQ" d="M613.2183 33.9547L611.877 37.6431 611.877 38.8726 612.6594 41.108 613.2183 42.0022 614.0007 42.3375 614.7831 42.5611 615.4537 43.1199 615.9008 43.9023 616.4596 45.9142 616.9067 46.473 617.8009 46.6966 619.8128 46.1377 620.8187 46.026 621.4893 46.473 622.7188 47.7025 624.9542 48.932 625.6249 50.0497 625.4013 51.391 624.2836 52.844 623.7248 56.1971 624.2836 58.5443 625.2895 60.5562 625.7366 63.4623 625.1778 66.4801 623.8365 68.8273 620.1481 73.2981 619.0304 76.4277 619.9245 78.6631 621.9364 80.0044 624.6189 80.5633 627.7485 80.4515 629.2015 80.675 630.5428 81.7927 631.437 82.9105 632.4429 83.6928 633.6724 84.0282 635.0136 84.1399 636.6902 85.0341 638.255 87.046 640.714 91.6286 641.8317 94.4229 641.6081 96.7701 639.5963 101.3527 638.5903 105.7118 638.4785 108.3943 638.1432 108.6178 636.9138 109.1767 636.4667 109.512 636.2431 111.5239 637.6961 113.424 638.0315 113.7593 639.708 115.1006 641.0493 116.5536 641.0493 118.3419 641.7199 119.3479 642.6141 120.242 643.3965 121.4715 643.9553 123.1481 644.0671 124.3776 644.5142 125.4953 645.6319 126.8365 648.4262 128.1778 651.444 127.9542 657.1443 125.607 659.7151 125.8306 661.5034 128.066 662.6211 131.3074 663.0682 134.2134 663.2917 139.6902 664.0741 141.9256 665.9743 144.3846 663.5153 145.9494 664.0741 147.5142 665.9743 148.9672 667.4273 150.4202 667.9861 152.8792 667.6508 158.6913 668.2097 161.3738 671.3393 165.5094 672.6805 168.0801 672.2334 170.5391 671.004 172.5509 669.7745 175.1217 669.1039 177.8042 669.7745 179.8161 669.8862 179.8161 671.6746 181.7162 673.7982 182.0515 676.0337 181.2691 678.1573 179.8161 679.9457 179.2572 683.4106 177.5806 686.0931 177.5806 688.3285 178.363 692.2405 179.8161 696.0407 183.3927 697.382 184.1751 700.0645 184.734 703.1941 187.5283 707.8884 194.2345 710.4592 200.7173 711.6887 202.3938 713.5888 202.9527 717.389 201.7232 718.6185 201.9468 720.1833 203.0645 722.3069 202.9527 724.3188 201.9468 726.7778 199.8231 727.7837 199.9349 728.9014 200.2702 729.9074 200.382 733.2605 199.2642 739.7432 199.4878 741.7551 198.8172 743.767 197.6994 745.3318 197.0288 747.0084 197.1406 750.2497 198.3701 750.9204 198.4818 751.4792 198.9289 751.9263 201.4997 752.3734 202.2821 753.044 203.0645 753.8264 203.7351 755.9501 204.6293 758.0737 204.5175 762.4328 203.6233 764.3329 202.8409 766.1212 201.6114 767.9096 200.7173 770.145 200.9408 771.8216 202.1703 772.604 203.8469 772.3804 205.8587 771.1509 207.8706 769.5861 209.3237 766.4565 211.3355 765.1153 213.3474 763.4387 214.9122 761.3151 215.1358 757.4031 214.9122 752.2616 217.7065 750.138 218.1536 742.9846 217.93 740.8609 218.7124 739.6315 220.0537 738.7373 222.0656 738.402 224.301 738.402 226.4246 739.4079 231.2308 739.0726 232.9074 736.0548 232.0132 735.4959 232.0132 735.0488 232.125 735.943 234.6957 737.0607 237.0429 737.5078 237.6018 737.6196 238.0488 737.5078 238.6077 737.0607 239.0548 736.2783 239.7254 735.7195 240.5078 735.4959 241.5138 735.4959 242.7432 736.8372 246.3199 743.4317 256.8264 749.0202 261.8561 751.4792 264.7622 752.2616 268.4506 752.0381 268.8977 751.4792 270.1272 750.2497 271.692 749.2438 273.2568 749.5791 275.2686 751.0321 276.2746 754.9441 276.1628 756.5089 277.5041 756.0618 280.7454 753.9382 284.5457 752.4851 288.1223 754.6088 290.5813 753.8264 292.0343 752.7087 292.705 751.4792 292.9285 748.9085 293.8227 747.0084 293.2638 746.0024 293.3756 743.2081 295.0521 741.7551 296.5052 740.1903 296.9523 737.0607 295.611 735.7195 295.7228 734.7135 295.2757 732.5899 293.8227 731.0251 293.2638 730.3545 293.5991 728.9014 295.9463 728.7897 296.5052 729.125 298.07 728.9014 298.6288 728.3426 298.9641 726.8895 299.0759 726.2189 299.2994 725.1012 300.4172 724.6541 301.8702 724.5424 303.5468 724.8777 305.2233 725.7718 308.4647 725.5483 310.8119 724.6541 313.0473 723.8717 316.0651 722.3069 318.1888 719.6244 317.1828 718.3949 316.624 716.6066 315.618 714.1476 315.7298 713.477 318.077 713.7006 321.2066 713.2535 324.3362 710.3474 326.2363 707.4414 326.5716 706.2119 327.1305 705.2059 328.5835 704.8706 330.0365 705.0942 332.4955 704.7589 333.9485 701.9646 337.1899 701.1822 339.2018 702.6352 340.9901 703.5294 341.4372 704.4235 342.1078 705.2059 343.1138 705.5413 344.1197 705.8766 345.3492 706.3237 346.1316 706.8825 346.8022 707.3296 347.5846 707.6649 349.9318 707.6649 352.279 708.0002 354.4026 709.1179 355.9674 709.4532 356.8616 709.4532 358.2029 709.1179 359.4323 708.7826 360.2147 708.112 360.4383 705.8766 359.6559 698.835 359.097 695.7054 358.3146 692.2405 356.4145 688.2167 355.2968 687.7696 358.6499 688.6638 363.6796 688.552 367.3681 687.9932 368.374 687.4343 369.2682 686.7637 370.0506 686.0931 370.7212 680.7281 371.8389 679.7221 373.5155 682.8517 383.6867 684.193 386.3692 686.0931 387.8222 688.105 386.1457 690.3404 386.1457 692.464 387.4869 694.0288 389.9459 694.5877 392.7402 694.3641 395.758 693.0229 401.6818 692.464 402.7996 691.1228 405.1468 690.8992 406.2645 691.3463 407.7175 692.1287 408.7234 692.6876 409.8411 692.6876 411.1824 691.6816 412.6354 687.5461 415.9886 686.0931 417.5534 683.5223 419.7888 682.4046 422.4713 681.5105 425.6009 679.9457 429.0658 679.1633 429.96 678.1573 430.6306 675.9219 431.6365 678.0455 434.6543 680.3927 435.8838 683.0752 436.1074 686.0931 435.6603 686.3166 435.6603 686.5402 435.7721 686.6519 435.8838 695.8172 452.5377 697.1584 453.9908 698.7232 455.332 700.0645 456.785 700.8469 458.9087 701.2939 461.3677 701.9646 463.4913 702.9705 465.5032 704.3118 467.5151 705.8766 469.0799 710.6827 472.5448 711.1298 473.4389 711.4651 474.3331 711.3534 478.6922 712.1358 479.5864 713.9241 479.1393 715.6007 478.0216 718.5067 475.1155 720.4068 474.3331 725.3248 474.3331 727.5602 473.7743 727.1131 477.4627 729.0132 479.3628 731.1369 480.8158 731.8075 483.4983 730.578 485.3985 725.7718 488.4163 724.207 490.4282 725.8836 491.993 728.9014 492.6636 732.031 492.3283 733.9311 490.4282 734.3782 490.2046 734.9371 490.0928 735.4959 490.2046 735.6077 490.3164 735.943 490.4282 736.2783 490.6517 736.6136 490.8752 739.9668 495.2343 741.1963 497.358 741.9787 499.5934 742.314 502.1641 742.4257 504.176 742.8728 505.9644 746.3377 509.2057 750.3615 515.0178 753.6029 517.5886 755.0559 519.0416 755.9501 521.1652 755.9501 522.3947 755.3912 524.7419 755.2794 525.7479 755.7265 526.8656 756.956 527.648 756.956 528.7657 756.2854 530.3305 754.8323 532.007 752.1498 534.8013 749.9144 536.3661 748.3496 536.7014 746.5613 536.5897 744.3259 536.8132 742.314 537.9309 742.2022 539.3839 743.6552 540.6134 748.1261 541.1723 750.0262 541.9547 751.4792 543.2959 752.0381 544.9725 751.3674 547.0961 749.9144 548.6609 748.2378 550.0022 746.8966 551.4552 749.132 556.3732 755.0559 557.1556 767.1272 555.7025 777.969 559.1674 788.1402 563.9736 791.0462 566.8796 800.5468 572.3564 800.8821 572.58 805.5765 576.3802 812.2827 580.5157 816.53 585.3219 847.2671 612.147 850.5085 614.6059 853.6381 616.2825 856.8794 616.9531 860.4561 616.5061 862.2444 615.8354 866.9388 613.2647 868.3919 613.3765 874.204 615.3883 876.3276 616.5061 877.6689 618.0708 878.7866 619.8592 880.4631 622.0946 883.2574 624.2183 883.8163 625.1124 883.9281 626.4537 883.5927 627.2361 883.0339 627.9067 882.1397 630.1421 881.6926 630.5892 881.6926 631.2598 882.3633 632.8246 882.8103 633.607 885.9399 636.5131 886.387 637.0719 886.7223 637.8543 888.6224 640.3133 889.1813 640.9839 890.1872 641.5428 890.7461 642.9958 892.758 644.5606 893.3168 646.1254 893.0933 647.802 892.5344 648.9197 891.9756 650.0374 891.5285 651.3787 891.4167 653.0552 891.4167 653.9494 892.1991 654.5083 893.7639 654.9553 895.1052 655.8495 895.8876 657.079 896.7817 658.0849 898.3465 658.3085 900.3584 659.0909 900.582 659.4262 902.035 661.5498 904.3822 666.8031 905.947 668.5914 909.5237 670.3798 910.5296 672.5034 910.9767 674.6271 914.6651 681.2216 915.3358 682.2275 917.2359 683.3452 918.0183 684.1276 918.5771 685.2453 919.0242 687.369 919.4713 688.2631 921.0361 690.0515 925.0598 693.0693 926.5129 695.193 926.7364 697.7637 926.1776 700.558 910.6414 742.9193 910.4178 763.3734 909.9707 792.2103 943.5021 792.2103 944.6198 792.881 944.9551 794.4458 944.6198 851.6726 944.7316 855.2493 955.5734 856.8141 956.6911 857.2612 957.8088 857.9318 959.4854 859.7201 960.8266 862.0673 961.7208 864.6381 962.5032 869.8913 963.062 871.009 963.8444 871.9032 964.9622 872.3503 966.1916 872.5738 967.4211 872.462 971.1096 871.9032 972.4508 871.9032 973.6803 872.3503 974.5745 873.1327 976.6981 876.5976 979.9395 880.3978 983.9633 884.0862 984.6339 884.9804 985.081 886.2099 985.3045 887.5512 985.081 888.7806 984.2986 889.7866 983.2926 890.6807 982.5102 891.6867 982.2867 892.9162 982.5102 893.8103 983.7397 896.4928 985.8634 898.84 986.4222 900.0695 986.6458 900.2931 988.5459 906.1052 988.7694 907.67 989.6636 909.9054 990.1107 910.6878 990.7813 911.3584 992.2343 912.4761 993.6873 913.4821 996.9287 914.3762 997.5993 914.7116 997.5993 915.2704 1000.0583 915.2704 1000.5054 916.3881 999.2759 917.8411 996.5934 918.5118 985.4163 917.3941 977.5923 914.7116 974.0156 911.9173 970.4389 910.7996 964.7386 907.2229 960.2678 905.6581 955.5734 904.7639 951.2143 904.7639 947.3023 905.7699 940.2607 909.6818 939.4783 906.5523 939.143 902.9756 938.4724 899.7342 936.7958 897.4988 938.0253 901.299 938.1371 902.752 937.9135 904.3168 937.4664 905.7699 937.3547 906.9993 938.1371 908.0053 938.1371 910.7996 916.0064 899.6224 910.0825 898.5047 883.7045 898.5047 877.8924 899.2871 861.462 906.1052 856.097 909.6818 852.6321 914.7116 843.914 936.954 840.1138 943.9956 839.6667 945.6722 839.2196 949.1371 838.996 950.3666 836.9842 954.7256 829.3837 967.4675 826.3659 975.4033 824.8011 977.7505 818.3184 984.9039 811.8356 995.7457 796.523 1012.9584 793.6169 1016.1998 789.0343 1017.2057 784.6752 1018.0999 782.8869 1018.547 780.2044 1019.1058 775.7336 1020 764.8917 1019.1058 757.1795 1018.3234 749.3556 1017.6528 741.6433 1016.9822 733.8194 1016.1998 723.4246 1015.3056 712.9182 1014.4114 702.4117 1013.4055 692.0169 1012.5113 681.5105 1011.5054 671.004 1010.6112 660.6092 1009.6053 650.1028 1008.7111 641.9435 1007.9287 633.8959 1007.1463 625.7366 1006.4757 617.5773 1005.6933 608.3003 1004.9109 607.6297 1004.5756 606.9591 1004.352 606.2884 1004.1285 605.6178 1003.7932 597.7938 997.534 588.0697 989.5982 578.3457 981.7743 568.6216 973.8385 558.8975 966.0145 547.1615 956.514 535.5373 947.0134 523.8013 937.5129 517.095 932.0361 512.0653 928.0123 500.4411 918.5118 488.7052 909.0112 476.9692 899.3989 465.345 889.8983 456.2915 882.5215 447.3498 875.2563 438.2964 867.8794 429.3547 860.5025 418.5129 851.6726 410.8007 844.9663 408.7888 843.2898 399.1765 834.7952 389.4524 826.4123 379.84 817.9177 371.1219 810.429 362.5155 802.9404 353.9091 795.4517 345.3028 787.963 338.4847 782.1509 329.4312 776.6741 320.4895 771.3091 311.4361 766.0559 302.4944 760.6909 293.5527 755.3259 284.611 749.9608 275.6693 744.7076 266.7276 739.3426 257.7859 733.9776 248.8442 728.6125 239.9025 723.2475 230.8491 717.8825 221.9074 712.5175 212.9657 707.1525 204.024 701.7875 195.0823 696.4224 186.1406 691.0574 175.6341 684.7982 169.9338 681.4451 164.457 679.3215 129.5844 672.5034 121.4251 671.1622 101.1945 667.6972 80.9639 664.2323 60.8451 660.7674 40.6145 657.3025 40.391 657.3025 40.0557 657.4143 39.7204 657.5261 39.4968 657.6378 39.4968 656.7437 51.6799 646.2372 54.3624 642.437 52.2387 634.2777 50.6739 630.5892 48.5503 629.3597 29.2139 634.7248 28.2079 634.0541 27.4255 632.2658 22.5076 614.9413 22.3958 614.7177 22.284 614.4942 22.3958 614.4942 22.5076 614.3824 30.3316 611.9234 23.5135 586.5514 18.7074 568.7798 14.013 551.4552 10.5481 538.6015 6.3008 522.9536 1.4946 505.5173 12.7835 498.6992 24.0724 491.8812 35.3613 485.1749 46.6502 478.3569 57.9391 471.5388 69.2279 464.7208 80.5168 458.0145 91.8057 451.1965 103.0946 444.3784 114.3835 437.5604 125.6724 430.7424 136.9613 423.9243 144.3382 419.4535 148.2502 417.1063 159.5391 410.2882 170.8279 403.3584 182.1168 396.5404 197.0942 387.4869 222.2427 380.7806 225.1487 378.7688 227.4959 375.5274 231.1844 367.3681 248.7325 333.2779 249.6266 330.2601 249.8502 327.0187 248.956 305.2233 248.3971 284.6574 248.2854 281.7514 249.2913 274.1509 253.5386 258.7265 254.4328 246.4317 255.327 242.7432 255.4387 242.7432 260.2449 235.4781 263.7098 230.2249 265.2746 226.4246 265.8334 222.5127 265.3864 205.1881 264.9393 201.0526 263.8216 197.0288 255.8858 179.8161 253.3151 173.6686 252.868 171.4332 252.868 169.3096 256.2211 137.5666 257.0035 134.2134 266.057 116.5536 268.0689 113.6475 271.0867 112.3063 277.6812 111.1886 309.4242 104.4823 312.2185 103.141 314.901 100.7938 328.6488 86.04 348.9912 64.1329 359.6095 52.844 366.0922 46.5848 369.3336 44.1259 369.3336 42.2257 368.6629 40.7727 367.9923 39.5432 367.3217 37.9784 371.7925 37.4196 377.7164 35.5195 386.4345 34.0664 388.1111 33.284 388.4464 32.6134 389.6759 29.1485 402.5296 10.371 402.8649 9.365 403.0884 8.4708 403.2002 7.5767 403.8708 6.5707 404.5415 6.1237 409.5712 4 410.4653 4 411.6948 4.1118 412.589 4.7824 413.0361 7.0178 413.9303 7.6884 422.4249 10.4827 426.4486 11.0416 430.8077 9.5886 433.4902 7.5767 437.4022 5.9001 441.426 4.7824 444.6673 4.5589 446.3439 5.0059 459.7564 12.2711 460.5388 12.4946 461.3212 12.6064 462.2154 12.4946 463.2213 11.4887 464.1155 11.0416 466.0156 10.818 467.2451 11.0416 469.9276 13.1652 471.2689 14.1712 475.5162 16.2948 480.2106 20.2068 481.8871 20.8774 483.2284 20.7657 485.6873 19.7597 487.0286 19.5362 488.2581 19.7597 489.1523 20.2068 490.9406 21.6598 493.6231 22.6658 496.0821 23.0011 506.4768 22.3305 509.1593 22.554 511.6183 23.1129 512.6242 23.8953 514.7479 26.0189 515.5303 26.466 516.8715 26.1307 518.6598 24.2306 524.1366 23.2246 527.2662 19.648 530.284 15.2889 533.9725 12.0475 538.6669 11.2651 542.02 11.9358 544.0319 12.1593 553.8678 16.2948 556.1032 17.8596 557.7798 19.5362 559.0092 21.7716 559.9034 24.6777 560.3505 27.4719 560.4623 29.1485 560.3505 30.378 559.5681 31.831 558.5622 32.2781 557.3327 32.5017 555.9914 33.284 554.3149 35.5195 553.4207 38.0902 553.4207 40.8845 554.2031 43.4552 558.2268 52.844 558.8975 54.1853 559.7916 54.9677 564.0389 55.9736 565.3802 55.8618 566.2744 54.9677 567.2803 52.844 568.8451 50.0497 569.1804 48.0378 570.0746 46.6966 578.681 43.7905 581.3635 42.3375 583.9342 40.3256 586.3932 37.196 590.0816 33.7311 593.9936 30.8251 597.3468 29.2603 599.2469 29.1485 609.9769 30.7133 611.9888 31.7193 613.2183 33.9547Z" />
</svg>