<?xml version="1.0" encoding="utf-8"?>
<svg xmlns="http://www.w3.org/2000/svg" viewBox="0 0 1021 930" style="stroke-width:0.25px;stroke-linejoin:round;stroke:#444;fill:#ddd" fill-rule="evenodd">
  <path class="IR" d="M42.6906 13.1091L42.8024 13.3327 43.5848 13.7798 43.6966 13.8915 44.8143 14.1151 46.0438 14.1151 45.932 14.4504 45.7085 14.6739 46.8262 15.4563 47.4968 16.9094 49.0616 23.5039 49.7322 24.8451 50.7382 25.851 50.2911 26.6334 50.5146 27.0805 51.8559 28.0865 52.1912 28.1982 52.7501 28.0865 53.0854 28.1982 53.3089 28.5336 53.4207 28.8689 53.6442 29.0924 55.5443 30.3219 55.7679 30.769 55.9914 31.2161 56.4385 31.8867 56.9974 32.5573 57.4444 32.7809 57.8915 33.4515 58.7857 35.6869 59.121 36.3575 59.5681 37.0282 59.9034 37.6988 60.4623 41.1637 60.7976 42.1696 62.2506 41.7226 67.7274 43.5109 67.8392 43.3991 68.1745 43.1756 68.7333 42.952 69.1804 43.0638 69.2922 43.5109 69.1804 44.0697 69.1804 44.7404 69.7393 44.9639 70.4099 45.0757 71.0805 45.5228 71.4158 46.3052 70.9688 47.3111 71.3041 47.9817 71.7512 48.3171 72.31 48.5406 72.7571 49.0994 72.9806 49.6583 73.4277 51.1113 73.6513 51.6702 74.2101 52.0055 75.4396 52.5644 75.6631 53.0114 75.5514 53.7938 75.3278 54.3527 75.2161 54.9116 75.3278 55.5822 75.8867 56.3646 77.0044 57.147 78.2339 57.7058 78.7927 57.8176 79.6869 58.0411 80.6928 58.7118 81.0282 58.8235 81.3635 58.8235 82.8165 58.9353 85.8343 59.6059 90.5287 59.7177 93.2112 60.7237 94.4407 61.2825 105.5061 63.6297 108.971 65.1945 112.1006 65.9769 112.5476 65.8651 116.1243 65.418 117.0185 64.971 119.701 62.9591 120.8187 62.512 121.4893 62.2884 123.5012 62.1767 124.7307 61.8414 125.2895 61.7296 126.0719 61.9531 131.5487 64.3003 132.4429 64.6356 133.4488 64.5239 134.5666 64.0768 135.4607 63.5179 136.2431 62.8473 137.0255 62.0649 137.5844 61.059 139.0374 58.0411 139.708 57.147 140.714 56.3646 143.7318 54.7998 144.626 53.9056 145.5201 51.8937 146.1908 50.8878 146.5261 50.5525 147.4202 49.9936 147.8673 49.6583 148.2026 49.323 149.5439 46.9758 150.2145 46.0816 150.9969 45.411 151.8911 45.0757 152.7853 44.9639 154.2383 45.6345 155.0207 45.8581 155.6913 45.7463 158.8209 43.958 159.1562 43.7344 159.7151 43.0638 159.9386 42.6167 160.8328 40.046 162.7329 36.9164 162.9564 36.2458 163.4035 35.6869 165.9743 34.1221 171.2275 32.1102 171.7864 31.7749 173.3512 30.8807 175.1395 29.0924 177.822 25.7393 179.4986 24.2862 181.734 23.0568 185.4224 21.7155 186.5402 21.6037 187.2108 21.1567 190.0051 18.3624 191.011 17.8035 197.2702 14.2268 199.5056 11.8796 200.3998 11.0972 201.4057 10.3149 202.6352 9.9795 206.659 10.0913 207.3296 9.8678 207.8884 9.4207 208.4473 8.5265 209.2297 8.6383 210.2356 9.4207 213.477 12.4385 222.3069 23.0568 225.8836 26.4099 227.3366 28.4218 228.5661 30.8807 228.0073 31.1043 226.666 31.5514 223.8717 33.4515 220.5186 34.0103 218.842 35.0163 217.2772 36.4693 216.2713 38.3694 216.1595 40.7166 216.9419 42.505 218.1714 44.4051 221.1892 47.3111 224.207 48.5406 224.9894 49.323 226.5542 52.6761 226.8895 53.5703 226.7778 54.4645 226.5542 55.4704 226.2189 56.3646 225.6601 57.0352 223.5364 58.3765 213.8123 60.1648 213.5888 60.6119 213.5888 61.059 213.477 61.5061 210.6827 63.1826 210.2356 63.965 210.3474 66.7593 211.3534 68.6594 214.8183 71.4537 221.7481 74.9186 222.4187 75.4774 222.5305 76.0363 222.8658 77.0422 222.6422 78.3835 222.754 79.5012 225.213 81.5131 226.1072 82.7426 227.0013 83.6367 228.6779 83.6367 231.3604 82.4073 232.5899 82.4073 233.1487 83.8603 233.484 85.6486 234.2664 86.5428 235.0488 87.3252 235.943 88.7782 236.8372 89.6724 237.6196 90.7901 238.8491 92.4667 239.6315 93.3608 240.9727 95.708 242.6493 97.3846 242.9846 97.3846 245.4436 97.6081 246.673 97.2728 248.1261 96.6022 249.4673 95.8198 250.4733 94.7021 251.591 94.1432 253.3793 94.1432 256.7325 94.8139 256.8442 100.7377 256.2854 102.6378 256.6207 104.0909 256.7325 107.6675 257.7384 110.1265 258.5208 118.2858 260.6444 126.1098 260.1974 127.3393 260.1974 128.9041 260.4209 130.3571 260.868 131.363 262.6563 134.3809 262.6563 135.0515 262.5446 135.7221 262.4328 136.1692 262.9916 138.7399 264.1094 141.3107 266.7919 145.3344 270.3685 149.0229 274.1688 151.8172 282.6634 156.1762 286.5754 157.5175 306.8059 160.3118 309.0414 159.9765 310.8297 159.1941 312.5063 158.8587 314.4064 159.8647 313.8475 159.9765 313.2887 159.7529 312.9534 159.7529 312.618 160.3118 316.9771 161.9883 323.7952 163.5531 326.2541 164.5591 327.9307 166.1239 327.7072 168.4711 328.1542 169.3652 328.8249 171.8242 329.3837 172.7184 330.1661 173.9479 331.3956 177.5245 332.9604 180.0953 334.7487 181.8836 338.549 184.7897 341.2315 187.9193 342.0139 188.3663 343.0198 188.7017 348.8319 192.6136 349.9496 192.949 350.6202 193.2843 352.185 194.9608 352.9674 195.6315 361.2385 200.1023 368.8389 205.5791 373.3098 207.591 387.9518 210.497 397.3406 213.1795 407.0647 214.9679 416.4535 217.6504 426.1776 216.4209 434.8957 213.1795 443.9492 210.9441 453.2262 209.1558 462.2796 207.3674 471.2213 204.6849 479.9395 202.0024 497.4876 197.9787 499.8348 197.6433 520.5124 196.4139 524.3127 195.5197 526.8834 193.396 526.7716 195.855 523.7538 196.8609 520.0653 197.4198 517.6064 198.0904 516.9358 198.4257 516.1534 198.314 514.8121 197.8669 514.0297 197.9787 512.5767 198.6493 511.6825 198.7611 508.6647 198.314 505.9822 198.314 506.3175 199.0964 507.0999 199.3199 508.7765 199.2081 507.7705 199.6552 507.3234 199.6552 508.6647 201.3318 510.7883 202.3377 518.9476 203.0084 519.73 203.5672 520.736 203.7908 527.2187 202.0024 527.8893 201.4436 528.2246 200.4376 528.2246 193.6196 528.0011 192.5019 527.2187 192.0548 526.2128 191.6077 526.3245 190.7135 527.554 188.3663 526.3245 186.4662 525.4304 184.0073 524.3127 178.4187 522.7479 174.1714 522.5243 173.1655 521.9655 167.5769 536.3839 168.9182 537.3899 168.8064 538.284 168.3593 539.29 167.4651 540.2959 166.7945 541.4136 166.7945 542.6431 166.9063 543.7608 166.9063 545.6609 166.2356 554.6026 161.0942 555.8321 160.8706 558.9617 161.653 560.1912 161.653 560.9736 161.2059 562.2031 159.8647 563.3208 159.4176 563.8796 158.747 566.4504 157.1822 567.7916 156.0645 568.0152 155.5056 568.127 154.4997 568.9094 152.8231 569.0211 151.9289 569.1329 150.3641 569.0211 149.8053 568.7976 149.47 568.2387 148.9111 568.0152 148.464 567.9034 147.1228 568.7976 144.9991 569.0211 143.6579 569.3564 142.6519 570.0271 141.5342 571.5919 139.8576 579.5276 134.3809 581.9866 131.5866 582.4337 130.916 582.6572 130.0218 583.3278 129.6865 583.9985 129.5747 584.5573 129.3512 585.0044 128.7923 585.5633 127.5628 586.0103 127.1157 587.0163 126.7804 590.0341 126.1098 590.7047 125.8862 591.1518 124.8803 592.3813 124.2097 594.7285 123.4273 595.2873 123.3155 596.4051 122.4213 597.5228 121.8625 601.4348 118.8447 602.6642 118.2858 606.0174 118.174 616.4121 115.9386 617.9769 115.9386 621.33 116.721 623.3419 117.8387 624.1243 118.174 626.8068 118.174 627.701 118.5094 629.154 119.18 629.8246 119.4035 630.607 119.5153 638.2075 118.174 640.3311 118.3976 640.5547 118.5094 642.2312 119.18 643.0136 119.2917 647.5963 118.5094 648.3787 117.9505 648.9375 116.8328 649.0493 115.6033 648.8257 114.4856 647.3727 112.809 647.708 111.9149 651.0612 108.7853 652.8495 107.5558 654.7496 106.8851 659.5558 106.6616 660.4499 106.8851 661.2323 107.3322 661.903 107.8911 662.5736 108.2264 663.4678 108.0029 667.6033 106.2145 670.174 105.7674 670.7329 105.8792 672.7448 107.5558 674.5331 108.5617 675.3155 108.897 683.2513 110.3501 685.3749 111.2442 686.4926 111.356 687.3868 110.7971 688.1692 110.2383 689.8458 109.0088 690.4046 108.3382 691.5223 106.5498 691.6341 106.3263 692.0812 105.8792 693.0871 105.4321 693.646 105.3204 694.2048 105.4321 695.3226 105.7674 695.8814 106.2145 696.105 106.5498 696.105 107.1087 696.3285 107.6675 697.558 109.7912 698.4521 112.0266 699.1228 113.0326 700.7993 114.8209 701.47 116.8328 702.5877 118.5094 702.8112 119.6271 702.6994 120.7448 701.5817 124.3215 702.923 126.1098 710.5234 129.1276 711.4176 129.0158 712.2 128.6805 713.0942 128.5688 713.9883 128.6805 716.6708 129.4629 719.2416 129.4629 720.024 129.2394 720.8064 129.2394 721.477 129.6865 722.1476 130.2453 722.8183 130.6924 723.0418 130.6924 723.2653 130.6924 724.1595 130.4689 724.6066 130.5806 724.9419 131.0277 725.389 132.0337 725.7243 132.369 726.5067 132.7043 727.4009 132.7043 728.295 132.4807 729.0774 132.369 730.9776 132.9278 739.2486 136.8398 742.7135 137.734 744.5019 137.8458 745.2843 138.0693 746.1784 138.5164 746.6255 138.9635 746.6255 139.4106 746.5138 139.8576 746.5138 140.4165 747.4079 141.9813 747.5197 142.4284 747.6315 143.6579 747.6315 144.552 747.9668 145.3344 748.8609 146.1168 749.7551 146.4521 753.8906 147.011 754.4495 147.3463 755.9025 148.3523 756.5732 148.5758 761.3793 148.0169 762.2735 147.5699 763.0559 146.5639 763.503 145.4462 764.1736 144.4403 764.956 143.8814 765.9619 143.7696 766.8561 144.2167 769.4268 146.5639 771.774 147.5699 772.8917 147.6816 774.1212 147.5699 774.5683 147.3463 774.9036 146.8992 775.2389 146.5639 775.9096 146.5639 777.0273 146.7875 777.5861 146.7875 778.145 146.5639 778.8156 145.6697 778.9274 144.6638 779.2627 144.2167 782.3923 146.0051 786.4161 147.011 788.5397 147.9052 789.3221 148.464 789.9927 148.6876 791.5575 148.9111 792.1164 149.2464 793.793 151.0348 800.8345 156.0645 801.9523 156.1762 804.8583 154.835 806.0878 155.1703 807.2055 156.1762 808.2114 157.6293 808.435 158.5234 808.3232 159.9765 808.5468 160.6471 808.7703 161.2059 808.5468 161.7648 808.2114 162.4354 807.9879 163.2178 808.0997 164.5591 809.2174 169.1417 809.7762 170.0359 813.1294 172.8301 814.1353 173.9479 814.3589 174.3949 814.3589 174.7303 814.1353 174.9538 814.0235 175.0656 814.0235 175.5127 813.8 176.0715 814.0235 176.5186 814.8059 176.7421 815.253 177.0774 815.5883 177.5245 816.0354 177.7481 816.4825 177.7481 818.1591 177.0774 818.9415 177.1892 819.8356 178.1952 820.171 179.2011 820.5063 180.4306 820.8416 181.5483 821.5122 182.1072 822.0711 181.9954 822.4064 181.5483 822.9652 180.6541 823.5241 180.3188 824.0829 180.3188 831.6834 182.8895 835.1483 185.7956 837.0484 186.9133 841.4075 187.6957 843.3076 188.5899 844.8724 190.6018 846.8843 194.8491 849.3432 198.5375 854.9318 205.3556 855.9377 207.1439 857.5025 211.1677 858.6202 213.1795 860.2968 214.0737 868.6796 213.9619 876.0565 213.8502 887.3454 213.6266 893.4928 213.5149 898.9696 213.4031 901.5404 213.8502 903.664 214.1855 904.1111 216.4209 904.5582 217.4268 904.7817 217.9857 904.7817 218.8799 904.7817 219.6623 904.5582 220.3329 904.2229 221.0035 903.8876 221.4506 903.664 222.233 903.7758 223.0154 904.1111 223.9096 902.9934 229.2746 902.6581 232.4042 903.4405 234.3043 903.2169 234.5278 903.2169 234.7514 902.9934 235.1985 903.5523 235.422 903.9993 235.7573 904.3347 236.0926 904.5582 236.5397 904.67 237.2103 904.7817 237.881 904.7817 239.4458 905.0053 240.0046 905.7877 241.3459 906.5701 245.3696 906.6818 247.3815 906.7936 247.7168 906.6818 248.0521 906.123 248.8345 905.8994 249.2816 905.6759 249.8405 905.5641 250.5111 905.5641 251.07 905.3406 251.7406 904.8935 252.0759 904.4464 252.2994 904.1111 252.6348 903.9993 253.4172 904.1111 254.6466 904.1111 255.3173 903.4405 255.9879 902.4345 256.8821 901.7639 257.6645 902.5463 257.9998 903.7758 258.2233 904.8935 258.7822 905.7877 259.5646 906.6818 260.6823 907.1289 261.5765 907.6878 262.5824 908.0231 263.8119 908.2466 266.0473 908.3584 267.0532 908.4702 268.171 908.1349 269.624 908.4702 270.0711 908.4702 270.7417 908.1349 272.1947 908.0231 272.6418 908.1349 273.7595 907.9113 274.2066 907.2407 274.8772 907.0172 275.3243 907.1289 277.0009 907.9113 278.4539 909.1408 280.4658 909.5879 281.1364 910.1468 283.7072 910.2585 285.0484 909.9232 286.3897 909.1408 287.6191 907.9113 289.0722 907.3525 290.4134 906.9054 292.4253 906.6818 293.0959 905.5641 294.549 905.2288 295.2196 905.0053 296.5608 905.2288 299.914 904.7817 301.0317 903.7758 301.5905 902.5463 301.8141 901.4286 301.8141 900.6462 302.4847 900.3109 303.826 900.3109 305.279 900.3109 305.8378 900.6462 306.1732 900.8697 306.732 900.8697 307.4026 900.3109 307.6262 899.9756 307.9615 900.3109 308.6321 902.211 311.0911 902.3228 311.4264 902.211 312.097 902.0992 312.6559 902.211 313.2147 902.6581 313.7736 901.4286 315.5619 901.0933 316.5679 900.758 319.1386 899.9756 321.5976 899.752 322.8271 899.6403 323.4977 898.8579 324.7272 898.7461 325.5096 898.7461 326.1802 898.9696 327.2979 899.0814 327.8568 898.8579 330.204 898.4108 332.3276 896.7342 332.7747 896.5107 333.8924 895.5047 335.6807 893.8282 337.022 892.8222 338.1397 892.8222 339.7045 892.934 341.2693 892.7105 342.8341 892.1516 343.6165 891.5927 343.7283 890.9221 343.7283 890.1397 343.84 889.4691 344.1754 889.1338 344.6224 888.7985 345.1813 886.4513 347.8638 885.4453 348.5344 884.1041 348.9815 881.198 349.3168 879.9685 349.9875 879.1861 351.3287 879.745 351.4405 880.1921 351.664 880.5274 352.1111 880.9745 353.6759 881.4216 354.123 882.7628 354.6818 883.3217 355.2407 883.8805 356.0231 884.6629 357.6997 888.5749 362.7294 889.2455 363.9589 885.2218 364.1824 879.9685 364.5177 876.1683 364.7413 876.6154 366.0825 875.7212 366.9767 873.2623 368.3179 871.3622 370.218 869.6856 372.4535 868.2326 375.4713 867.8972 378.2656 868.009 379.1597 868.5679 384.6365 870.1327 394.3606 870.0209 396.8196 868.3443 400.508 867.8972 402.5199 869.2385 407.2143 872.5916 410.3439 876.8389 412.1322 880.9745 412.4675 884.7747 412.244 886.8983 412.3558 888.5749 412.8029 889.4691 413.2499 890.3633 414.1441 890.8103 415.0383 890.6986 415.1501 890.3633 415.8207 889.5809 416.0442 887.0101 416.2678 886.116 416.8266 886.0042 417.8326 886.116 418.8385 886.2277 419.9562 886.0042 421.1857 885.4453 421.8563 883.657 422.974 882.204 424.3153 880.1921 427.1096 877.6213 430.5745 874.7153 434.3747 872.1446 437.8396 871.921 438.7338 871.921 443.7635 872.7034 447.6755 874.2682 452.8169 876.0565 458.9644 877.8449 465.2235 879.745 471.818 881.8686 478.9714 884.2158 487.6895 886.0042 494.284 885.8924 499.4255 885.2218 504.3435 884.8865 505.3494 883.5452 507.1377 883.0981 508.1437 883.3217 508.479 883.7688 508.7025 883.9923 509.0378 883.5452 510.4909 883.657 511.0497 883.9923 511.7204 884.2158 512.391 884.2158 513.7322 883.8805 517.5325 883.9923 520.5503 884.6629 526.2506 883.9923 530.8332 884.2158 532.2862 884.9982 535.3041 885.5571 541.0044 887.3454 541.7868 892.5987 542.5692 901.4286 543.9105 901.5404 543.9105 910.4821 545.1399 920.765 546.7047 926.9124 547.5989 929.7067 548.046 931.1597 548.6048 932.1657 549.3872 934.0658 551.7344 934.4011 552.9639 934.0658 555.5347 934.0658 556.7641 934.5129 557.9936 935.9659 560.3408 936.413 561.7938 936.5248 563.5822 936.6365 564.2528 937.5307 566.1529 938.2013 568.1648 938.4249 569.3943 938.4249 570.6238 938.0895 571.8532 937.0836 573.8651 937.3072 574.6475 937.5307 578.7831 937.1954 579.0066 937.0836 579.4537 936.9718 580.4596 937.0836 580.5714 937.1954 580.9067 936.3012 581.9127 931.9421 587.1659 925.2359 595.2134 919.312 602.4785 914.9529 607.62 909.2526 614.4381 906.3465 618.0147 901.9875 623.268 893.8282 632.9921 889.8044 637.6865 886.7866 641.2631 891.0339 646.2928 893.8282 649.5342 897.2931 653.6697 901.2051 658.4759 905.3406 663.3938 909.6997 668.5353 910.7056 669.4295 911.8233 669.8766 912.7175 670.5472 913.1646 672.0002 913.0528 673.2297 912.4939 675.3534 912.4939 676.4711 912.941 677.7006 914.6176 679.6007 915.2882 680.6066 915.5118 681.2772 915.6235 682.842 915.9589 683.5127 916.5177 684.1833 916.9648 684.295 917.4119 684.4068 917.9707 684.6304 918.5296 685.5245 918.8649 686.5305 919.2002 687.4246 920.0944 687.76 920.6532 688.207 920.765 688.7659 920.6532 689.3248 920.0944 689.7718 919.7591 690.2189 919.5355 690.5542 919.7591 690.8895 920.0944 691.2249 920.765 691.5602 921.4356 692.0073 921.8827 692.6779 924.1182 697.7076 924.3417 698.9371 924.4535 699.943 924.7888 700.8372 926.2418 702.5138 927.8066 705.8669 929.3714 707.767 934.7364 712.6849 936.9718 715.4792 940.325 718.6088 942.0015 720.5089 942.8957 721.0678 946.0253 721.9619 948.596 723.415 950.1608 723.862 953.6257 724.1974 955.3023 724.5327 959.7732 726.5446 966.703 727.9976 968.156 728.6682 968.7149 729.4506 969.1619 730.233 969.7208 731.0154 970.615 731.4625 971.5091 731.686 972.068 732.1331 972.4033 732.692 972.7386 733.6979 973.521 735.0392 976.8741 738.6158 977.8801 739.2865 986.4865 737.6099 987.716 738.2805 987.9395 740.4042 987.1571 746.4398 986.2629 753.2579 987.2689 757.3934 988.6101 763.0937 988.9454 766.6704 989.3925 771.4766 989.7278 774.4944 990.1749 779.9712 990.5102 782.989 990.1749 785.448 987.3806 791.7072 988.3866 792.9366 988.7219 793.6073 988.6101 794.6132 988.3866 795.3956 988.0513 796.0662 987.4924 796.5133 986.71 796.5133 988.9454 798.5252 989.7278 798.9723 990.1749 798.9723 990.8455 798.5252 991.2926 798.5252 991.6279 798.637 992.8574 799.3076 994.534 799.6429 995.987 799.6429 999.1166 798.9723 1000.4579 798.7487 1003.1404 797.9663 1004.5934 797.8546 1005.4876 797.9663 1006.1582 797.9663 1009.0642 796.9604 1009.5113 797.0722 1010.182 797.2957 1011.5232 798.5252 1012.1938 798.8605 1013.4233 799.4194 1013.9822 799.6429 1014.541 800.3135 1015.2117 801.4312 1017 805.3432 1016.1058 805.0079 1014.9881 805.0079 1013.9822 805.455 1013.4233 806.4609 1013.1998 807.0198 1012.6409 807.8022 1012.4174 808.4728 1012.3056 809.1435 1012.6409 815.738 1013.088 816.8557 1013.7586 817.8616 1014.2057 818.7558 1013.9822 819.8735 1013.1998 820.6559 1011.0761 820.9912 1010.182 821.4383 1009.8466 822.3325 1009.3996 830.9388 1008.8407 833.286 1007.6112 834.4037 1007.1641 834.4037 1006.7171 834.1802 1006.3817 833.8449 1005.9347 833.7331 1005.3758 833.6213 1003.811 833.9567 1001.7991 833.9567 999.6755 833.6213 994.9811 833.5096 990.8455 833.3978 987.2689 833.286 986.71 833.5096 986.2629 833.9567 985.7041 834.9626 985.3688 835.2979 985.0334 835.5215 984.5864 835.6332 982.9098 836.0803 982.4627 835.9685 981.9039 835.745 981.345 835.6332 980.8979 835.8568 980.4508 836.3039 980.0037 836.6392 978.886 837.0862 970.1679 837.9804 969.609 838.0922 969.1619 838.4275 968.8266 839.2099 968.4913 839.4334 967.9325 839.657 966.8147 839.5452 966.3677 839.657 965.9206 839.8805 965.2499 840.3276 964.8029 840.5512 963.7969 840.9982 963.2381 841.2218 963.0145 841.6689 962.9028 842.2277 963.0145 842.563 963.2381 842.8983 963.2381 843.3454 962.6792 844.3514 961.1144 845.9162 960.6673 846.6986 961.0026 848.0398 961.4497 849.1575 961.5615 849.9399 960.4438 850.6106 958.4319 850.2752 956.0847 849.4928 954.0728 849.1575 953.1787 850.6106 953.0669 852.0636 952.508 852.6224 950.3844 853.0695 949.2667 853.4048 948.2607 853.8519 946.4724 855.0814 940.1014 856.8697 938.7602 857.8757 937.9778 859.5523 937.6425 861.3406 937.0836 864.9173 936.6365 868.0469 936.1894 871.6235 935.5188 876.5415 934.96 880.677 934.6246 881.6829 933.8422 882.6889 932.9481 882.8007 931.9421 882.8007 930.8244 883.136 929.7067 884.589 929.9303 886.8244 930.6009 889.0598 930.3773 891.0717 930.042 891.5188 929.2596 892.3012 929.0361 892.8601 928.8125 893.7542 928.589 897.1074 928.2537 902.1371 927.9184 907.9492 927.5831 912.8671 925.9065 917.6733 925.5712 916.8909 925.4594 915.8849 924.5652 915.2143 924.3417 914.879 924.1182 914.6554 923.6711 914.9908 923.4475 915.3261 923.4475 916.332 923.224 916.6673 923.5593 916.8909 924.0064 917.5615 924.3417 917.785 923.224 917.6733 922.3298 917.338 921.5474 917.338 920.3179 918.2321 921.5474 918.5674 922.1063 918.9028 922.5534 919.3498 922.218 919.9087 921.4356 921.0264 921.2121 921.5853 921.2121 921.9206 921.1003 922.1441 920.765 922.5912 919.9826 922.9265 917.0766 923.8207 917.859 924.3795 916.6295 925.9443 907.7996 922.9265 904.67 922.2559 904.67 921.3617 903.8876 919.9087 896.6224 917.2262 887.9043 915.7732 880.6392 914.0966 875.7212 913.426 874.8271 912.9789 875.6095 912.1965 874.38 910.4081 874.1564 909.6257 874.1564 906.3844 873.9329 905.8255 872.0328 903.9254 871.2504 903.4783 870.3562 903.3666 869.3503 903.3666 865.7736 904.4843 864.8794 905.0431 864.3206 905.8255 863.5382 906.8315 863.0911 907.5021 863.0911 907.8374 863.3146 908.1727 863.5382 909.4022 863.7617 909.514 864.097 909.6257 864.6559 909.8493 865.103 909.8493 865.3265 910.0728 865.5501 910.4081 866.1089 910.967 865.5501 910.8552 865.5501 911.0788 867.1149 911.8612 866.8913 912.5318 866.3325 912.42 864.6559 911.7494 862.4205 910.8552 861.4145 910.1846 859.1791 910.2964 857.6143 909.0669 858.0614 908.0609 858.2849 907.8374 857.5025 907.5021 856.6084 907.3903 854.7083 907.5021 853.2552 907.7256 852.9199 907.8374 852.4728 908.3963 852.4728 908.7316 852.5846 909.0669 853.7023 909.7375 853.367 910.8552 851.914 910.8552 850.7963 910.1846 850.2374 909.9611 848.4491 909.7375 848.002 909.4022 847.4431 908.6198 846.6607 908.1727 844.7606 908.2845 842.0781 908.7316 839.1721 908.8433 837.2719 910.2964 835.0365 909.514 832.8011 907.3903 830.4539 906.7197 824.4183 907.1668 821.9593 907.1668 818.0473 906.1608 815.4766 903.5901 813.5765 902.5842 810.5586 903.143 804.4112 904.149 802.9582 904.3725 799.9404 904.8196 796.9226 906.2726 795.8048 906.4961 795.3578 906.3844 795.0224 906.0491 794.6871 905.8255 794.24 905.9373 793.6812 906.1608 793.2341 906.2726 792.0046 906.1608 790.9987 905.9373 790.1045 905.602 789.4339 905.0431 786.9749 901.1311 785.6337 899.5663 783.6218 898.6722 781.7217 898.6722 781.2746 898.4486 780.9393 897.8898 780.7157 897.3309 780.4922 896.7721 779.9333 896.6603 775.3507 896.6603 765.8502 894.8719 762.497 895.4308 759.7028 895.2073 758.6968 894.7602 759.1439 893.866 757.5791 893.866 755.9025 894.2013 755.1201 894.6484 754.0024 895.6543 753.1083 895.8779 752.7729 895.6543 752.6612 895.4308 752.3259 895.4308 751.767 895.9897 751.3199 896.325 750.7611 896.5485 750.314 896.4367 750.0904 895.9897 749.8669 896.2132 747.9668 897.4427 746.0667 897.778 744.2783 897.4427 742.6018 896.8838 740.9252 896.6603 739.4722 895.9897 738.3545 894.4249 736.7897 891.0717 735.1131 889.0598 733.1012 888.6128 730.9776 889.1716 728.8539 890.2893 727.0656 891.7424 725.8361 892.413 725.0537 892.413 725.2772 889.8422 725.5008 889.1716 725.6125 888.9481 725.6125 888.7245 725.5008 888.2774 725.0537 886.9362 724.1595 886.1538 723.0418 885.9303 721.8123 885.8185 720.5828 885.9303 717.6768 886.6009 717.0062 886.4891 715.8884 885.9303 715.3296 885.8185 714.7707 885.9303 713.653 886.1538 713.0942 886.2656 711.8647 886.1538 708.288 885.0361 708.6233 884.589 701.5817 884.1419 700.7993 883.8066 700.464 882.8007 700.1287 880.0064 698.8992 876.9886 698.2286 874.6414 697.7815 873.5237 697.2227 873.0766 697.1109 872.853 695.9932 871.4 695.7696 871.4 695.099 871.5118 694.8755 871.4 694.7637 871.1765 694.6519 870.5058 693.8695 868.3822 693.7578 867.3762 693.1989 866.2585 693.0871 865.5879 693.4224 864.3584 695.099 862.5701 695.6579 861.3406 694.8755 859.5523 691.4106 855.6403 691.7459 854.0755 691.2988 853.7402 690.9635 851.0576 690.6282 849.7164 690.0693 848.7105 689.0634 847.7045 688.8398 847.2574 688.6163 846.8103 688.5045 845.4691 688.3927 844.9102 689.2869 837.5333 689.1751 834.7391 685.7102 821.103 685.0396 820.097 683.2513 818.5322 682.5806 817.5263 682.6924 816.6321 681.0158 815.5144 680.457 814.9556 681.2394 815.0673 681.7982 814.732 682.3571 814.3967 683.0277 814.1732 682.5806 813.7261 682.4689 813.1672 682.6924 812.6084 683.0277 812.1613 681.3512 812.8319 680.9041 812.9437 680.3452 812.8319 680.0099 812.4966 679.8981 812.273 679.5628 812.1613 679.3393 811.9377 679.004 811.4906 678.6686 811.2671 677.6627 811.826 677.3274 811.6024 677.2156 811.1553 677.2156 810.4847 676.545 810.7083 676.2097 810.3729 676.2097 809.9259 676.6568 809.7023 676.9921 809.4788 677.8862 808.4728 678.3333 808.1375 678.3333 807.6904 676.7685 807.4669 675.5391 806.6845 674.6449 805.3432 674.3096 804.1138 673.7507 804.6726 673.0801 804.8961 671.6271 804.8961 670.8447 804.6726 670.3976 804.1138 669.9505 803.5549 669.5034 803.2196 664.0266 803.2196 662.7971 802.7725 662.4618 803.2196 661.2323 802.549 659.5558 802.2136 656.3144 802.1019 654.7496 801.7666 651.9553 800.6488 650.3905 800.4253 647.1492 800.5371 645.4726 800.9842 644.2431 801.8783 643.1254 802.4372 639.6605 802.549 638.3193 802.7725 637.8722 803.1078 636.978 804.002 636.8662 804.2255 636.7545 804.8961 636.4191 805.1197 635.9721 805.2315 635.525 805.455 634.6308 806.2374 631.1659 808.3611 629.8246 809.4788 629.8246 809.7023 629.6011 809.9259 628.5952 810.7083 628.0363 810.9318 625.6891 811.1553 623.4537 811.7142 622.8948 811.826 621.2183 811.7142 620.5476 811.826 619.7652 812.3848 619.3182 812.4966 617.418 812.4966 615.7415 812.1613 615.1826 812.1613 614.1767 812.6084 612.3883 814.2849 611.7177 814.6202 611.1589 815.0673 608.3646 818.1969 609.0352 817.9734 609.3705 817.7498 609.8176 817.4145 610.0411 818.8675 609.7058 820.6559 609.0352 822.3325 608.3646 823.4502 606.5762 825.015 604.6761 826.0209 602.4407 826.468 600.0935 826.3562 595.8462 824.9032 593.3872 824.5679 591.3754 825.462 590.8165 826.5798 590.4812 827.6975 590.0341 828.4799 588.6928 828.8152 587.6869 828.927 585.3397 829.5976 584.5573 829.9329 581.0924 833.0625 580.5336 833.3978 575.5039 837.5333 569.8035 840.8865 569.4682 841.2218 569.1329 841.5571 568.6858 841.8924 568.127 842.0042 567.4563 841.8924 566.5622 841.3336 566.0033 841.2218 561.4207 841.6689 559.1853 841.3336 558.2911 839.9923 557.6205 838.204 556.0557 836.7509 553.7085 836.3039 548.9023 836.5274 547.0022 835.6332 546.108 834.0684 545.3256 832.1683 544.3197 830.38 542.7549 829.1505 541.6372 828.927 540.5195 829.0387 539.5135 829.374 535.4898 829.5976 534.4838 829.4858 530.7954 828.4799 529.9012 828.3681 529.3424 828.1446 528.3364 827.3622 527.8893 827.1386 527.3305 827.1386 526.2128 827.3622 522.7479 828.927 520.4007 829.2623 518.277 829.9329 517.0475 829.9329 514.7003 829.1505 513.4708 829.0387 512.2414 829.7094 511.5707 829.4858 508.7765 827.1386 504.8645 824.7914 499.723 820.8794 499.0524 819.9853 498.7171 818.8675 498.6053 816.0733 498.1582 814.8438 497.264 813.7261 495.5875 812.7201 477.7041 806.5727 476.4746 806.4609 475.3569 806.1256 474.6862 805.3432 474.1274 804.4491 473.4568 803.6667 470.3272 802.8843 469.8801 802.2136 469.433 800.9842 468.3153 800.3135 465.8563 799.5311 461.609 795.7309 459.8207 794.5014 457.0264 793.2719 452.8909 791.4836 451.7732 790.2541 451.7732 789.0246 452.2202 788.354 453.1144 787.9069 454.2321 787.7952 455.2381 787.9069 456.3558 787.6834 457.0264 787.1245 456.4675 785.7833 455.6851 785.0009 453.5615 784.2185 452.7791 783.5479 452.332 782.8772 451.4378 780.8653 451.1025 780.3065 447.1905 776.171 445.4022 774.8297 443.5021 774.0473 434.1133 771.9237 432.1014 770.9177 425.954 765.1056 424.0539 763.8761 421.8185 762.982 419.3595 762.6466 415.6711 763.0937 414.8887 762.7584 413.8827 762.1996 411.9826 762.3113 409.9707 762.7584 406.6176 763.429 404.6057 763.0937 400.0231 762.0878 399.4642 761.976 399.1289 761.5289 399.1289 760.9701 398.9054 760.523 398.6818 760.2994 397.0053 760.0759 394.7699 759.2935 393.6521 758.1758 392.4227 756.0521 391.1932 755.2697 390.7461 756.9463 389.6284 757.0581 388.6224 753.4814 387.6165 752.0284 386.8341 749.793 384.8222 746.5516 383.9281 745.7692 382.8103 744.5397 382.5868 743.422 383.7045 740.1806 383.5927 738.6158 382.5868 736.8275 380.6867 735.1509 380.0161 734.3685 378.2277 731.4625 376.4394 729.6741 376.1041 729.0035 372.8627 721.0678 372.4156 719.1677 372.4156 711.5672 371.745 708.9965 370.5155 706.7611 369.1743 705.1963 367.4977 704.0785 365.2623 703.6315 363.1386 703.4079 362.1327 703.1844 361.6856 702.5138 361.2385 701.396 358.7795 698.2664 358.3325 697.037 357.9971 695.4722 358.2207 693.9074 359.3384 693.2367 360.3443 693.6838 361.3503 694.4662 362.2444 695.5839 362.8033 696.5899 363.3622 696.1428 363.2504 695.6957 363.0268 695.1369 363.0268 694.4662 363.4739 694.1309 364.4799 693.125 364.927 692.4543 365.0387 691.2249 364.927 689.7718 364.3681 688.8777 363.4739 689.213 363.0268 687.4246 362.6915 686.8658 362.0209 686.3069 361.6856 686.3069 361.2385 686.6422 360.7914 686.754 360.5679 686.4187 360.4561 685.4128 360.3443 684.9657 360.2326 684.6304 359.0031 684.4068 354.8675 684.6304 353.8616 684.8539 352.5204 685.6363 351.0673 685.4128 349.8378 684.4068 349.3908 682.7303 349.279 681.2772 349.3908 680.6066 349.9496 679.8242 350.2849 679.0418 350.6202 678.0359 351.0673 677.5888 351.8497 678.4829 352.185 676.024 352.2968 675.5769 351.738 675.3534 351.4026 675.018 350.8438 673.9003 351.1791 672.3355 351.1791 669.9883 350.8438 667.6411 350.5085 665.9646 349.7261 664.7351 348.7201 663.2821 347.9377 662.9468 347.9377 664.7351 347.6024 664.0645 346.1494 661.829 343.3551 659.4818 342.908 658.6994 342.5727 657.6935 341.6785 656.5758 340.002 654.7875 336.8724 653.558 336.4253 652.8873 336.09 651.7696 335.3076 650.5402 333.8546 648.9754 332.5133 646.9635 330.0543 642.4926 328.8249 640.7043 327.8189 639.8101 325.6953 638.4689 323.5716 636.3452 323.4598 636.1217 323.2363 635.3393 323.2363 634.2216 323.0128 633.5509 323.9069 633.5509 324.0187 633.1039 323.6834 632.6568 323.0128 632.3215 323.5716 630.3096 322.3421 626.8447 322.6774 625.2799 322.0068 624.721 321.1127 623.6033 320.442 622.3738 320.1067 621.3679 319.8832 620.6972 319.1008 620.1384 318.6537 620.0266 317.2007 619.4678 315.4123 619.2442 313.4004 619.4678 311.5003 620.2502 294.9582 630.7567 293.0581 631.5391 291.3815 631.2037 289.9285 629.0801 289.705 628.0741 289.705 625.2799 289.2579 624.2739 288.9226 623.7151 288.8108 623.3798 288.5872 623.1562 288.0284 622.8209 287.4695 622.5974 287.0224 622.4856 285.9047 622.3738 285.3459 622.3738 284.2282 622.7091 283.5575 622.8209 282.9987 622.5974 282.2163 622.0385 281.7692 621.9267 280.6515 622.1503 278.7514 622.9327 277.6337 623.1562 276.2924 623.0444 275.7336 622.5974 275.8453 620.0266 275.6218 619.9149 274.9512 619.356 274.7276 619.0207 274.7276 618.6854 274.7276 617.7912 274.8394 617.2323 275.0629 616.897 274.9512 616.4499 274.3923 616.1146 274.057 617.1206 273.4981 618.1265 272.7157 618.9089 271.8216 619.0207 270.9274 618.3501 270.4803 617.5677 269.9215 617.0088 268.9155 616.897 267.686 616.4499 264.2211 614.4381 263.5505 613.7674 263.2152 611.7556 262.2092 610.5261 260.868 609.8554 259.1914 609.4084 259.7503 608.4024 260.6444 608.1789 262.7681 608.5142 263.8858 608.5142 265.6741 607.8436 266.5683 607.7318 267.686 608.0671 269.8097 609.1848 270.5921 609.4084 271.7098 609.5201 272.604 609.8554 273.3864 610.5261 274.057 611.532 274.2805 610.6378 275.2865 608.8495 276.8513 606.9494 277.1866 606.2788 277.1866 605.1611 276.1806 605.3846 275.3982 604.9375 274.8394 603.9316 274.5041 601.6961 273.8334 602.0315 273.051 602.9256 272.1569 603.5963 272.2686 602.8139 272.3804 602.5903 272.604 602.255 272.1569 601.5844 271.7098 601.6961 271.1509 602.1432 270.3685 602.255 270.0332 602.0315 269.4744 601.2491 269.1391 601.0255 268.8037 601.1373 268.3567 601.3608 268.0213 601.4726 267.0154 601.2491 266.0095 601.0255 265.1153 600.9138 264.2211 601.4726 262.321 601.1373 260.868 602.1432 260.5327 603.3727 261.8739 604.0433 263.5505 604.3787 264.8917 605.1611 265.3388 606.2788 264.2211 607.2847 263.327 607.2847 260.5327 606.9494 259.862 607.0612 257.0678 609.7437 256.8442 610.079 256.3971 610.7496 256.0618 611.532 256.7325 612.0909 256.5089 612.538 256.1736 612.985 255.9501 613.3204 256.3971 614.6616 257.2913 615.5558 258.2972 616.4499 259.1914 617.3441 259.6385 618.4618 259.9738 619.8031 260.3091 622.5974 260.1974 623.3798 259.7503 624.6092 259.5267 625.2799 259.5267 625.9505 259.862 627.0682 259.862 627.7388 259.5267 628.9683 258.8561 630.086 257.9619 630.8684 256.8442 631.092 253.2675 630.6449 252.3734 631.092 251.3674 630.6449 247.679 630.6449 245.4436 629.4154 244.5494 629.1919 244.4376 630.3096 244.6612 630.9802 245.4436 632.2097 245.5553 632.9921 245.3318 633.5509 244.9965 634.1098 244.5494 634.5569 244.1023 634.8922 242.8728 635.2275 238.9608 634.8922 238.9608 634.4451 238.7373 634.7804 238.6255 635.004 238.2902 634.7804 236.6136 634.3333 235.8312 633.8862 235.1606 633.2156 234.8253 632.8803 234.6018 632.545 234.0429 631.3155 233.9311 630.5331 233.037 627.5153 232.9252 627.4035 232.5899 626.7329 231.4722 625.6152 230.9133 624.1622 230.8015 623.7151 230.9133 623.0444 231.2486 622.5974 231.8075 622.1503 232.1428 621.5914 232.3663 620.9208 232.2546 620.2502 231.9193 619.6913 231.5839 619.1325 229.5721 617.2323 227.8955 615.3322 226.7778 613.5439 226.3307 613.0968 225.6601 612.8733 224.9894 612.8733 223.0893 613.2086 222.4187 613.2086 221.8598 613.0968 221.1892 612.8733 220.8539 612.4262 220.6304 611.8673 220.1833 609.1848 219.6244 607.8436 218.9538 606.6141 218.1714 605.7199 217.6125 605.3846 216.9419 605.1611 211.4651 604.3787 211.3534 602.4785 211.4651 572.971 211.3534 572.1886 210.7945 571.8532 193.47 571.8532 193.6935 556.9877 193.8053 546.3694 201.8528 524.574 202.1881 523.121 201.9646 521.7798 201.2939 520.7738 199.1703 519.209 198.3879 518.2031 198.1644 517.756 197.9408 516.6383 197.6055 516.0794 197.1584 515.7441 196.2642 515.0735 195.9289 514.6264 194.0288 511.1615 193.8053 510.1556 193.2464 509.0378 191.3463 508.1437 190.5639 507.1377 189.3344 504.4552 188.6638 503.3375 188.552 503.2257 187.4343 502.7787 186.6519 502.6669 186.2048 502.108 185.7578 501.5492 185.0871 501.1021 184.3047 500.8785 183.9694 500.5432 183.8576 500.0961 183.9694 499.202 184.193 498.5314 184.5283 497.9725 184.7518 497.4136 184.8636 496.5195 184.64 495.7371 183.5223 494.9547 183.2988 494.0605 182.7399 493.837 182.4046 493.5017 181.5105 492.1604 181.2869 491.8251 181.0634 491.4898 179.4986 490.0367 179.275 489.7014 178.9397 488.8073 178.9397 488.4719 179.1633 488.2484 179.6103 487.1307 179.8339 486.7954 180.0574 486.3483 179.9457 485.6777 179.7221 485.2306 178.2691 484.1129 177.3749 482.9952 176.8161 481.9892 176.1454 481.2068 175.0277 480.648 172.0099 479.642 171.3393 479.5303 168.8803 480.8715 167.9861 481.2068 166.086 481.4304 164.4095 481.095 162.8447 480.2009 161.1681 478.9714 145.2966 465.1118 143.0612 462.6528 139.708 460.5292 137.2491 458.629 137.0255 458.5173 132.1076 455.6112 130.6546 454.1582 125.4013 451.6992 119.8128 449.9109 113.6653 450.5815 110.5358 450.2462 109.418 447.6755 110.0887 447.0048 110.9828 446.2224 111.7652 445.44 112.1006 444.3223 111.7652 443.5399 110.9828 442.8693 109.9769 442.4222 107.7415 442.0869 106.9591 441.5281 107.0708 440.7457 108.0768 440.1868 109.1945 440.075 110.0887 440.075 110.9828 439.9633 112.1006 439.0691 113.5536 437.7278 114.2242 436.8337 114.5595 435.9395 114.5595 435.3806 114.0007 435.0453 113.7771 434.4865 113.7771 433.9276 114.1124 432.6981 114.1124 432.0275 113.6653 431.0216 112.8829 430.2392 111.2064 428.8979 109.0827 425.9919 107.2944 424.2035 107.0708 423.3094 107.0708 422.3034 106.8473 420.9622 106.512 419.8444 105.8414 418.7267 104.053 416.4913 103.9413 416.3795 103.7177 416.2678 103.6059 416.156 103.4942 416.156 103.2706 416.0442 102.9353 416.156 102.7118 416.2678 101.7058 417.1619 100.141 417.3855 98.5762 417.0502 97.6821 416.2678 98.4645 415.1501 101.0352 413.697 101.5941 412.6911 101.2587 411.2381 100.141 410.5674 99.2469 409.5615 99.4704 407.6614 98.3527 407.8849 95.782 407.9967 94.776 408.332 93.2112 409.8968 92.4288 410.4557 91.4229 410.6792 91.0876 410.2321 91.0876 407.9967 90.9758 407.5496 90.7523 406.9908 88.2933 405.2024 87.5109 404.42 86.7285 403.4141 86.2814 402.4081 85.8343 401.2904 85.6108 399.9492 85.2755 398.9432 84.6048 398.1608 83.7107 397.4902 83.04 396.7078 78.3457 388.1014 78.2339 388.1014 78.1221 387.9897 78.0103 387.9897 76.4455 388.2132 75.1043 388.1014 73.8748 387.4308 72.8689 385.9778 73.9866 385.4189 74.4337 385.0836 74.8807 384.6365 75.6631 382.8482 76.1102 381.1716 76.7809 379.8304 78.0103 378.7127 78.7927 377.8185 80.9164 376.1419 81.4752 375.3595 81.4752 374.6889 81.1399 374.13 80.8046 373.5712 80.4693 372.9006 80.5811 372.2299 81.3635 371.1122 81.587 370.4416 82.3694 367.4238 82.4812 365.859 82.1459 364.4059 81.3635 363.1765 80.2458 362.5058 79.1281 362.5058 78.0103 363.2882 77.0044 362.6176 76.3338 361.1646 74.769 355.9113 75.2161 355.1289 78.0103 354.4583 78.4574 354.123 78.7927 353.7877 79.0163 353.3406 79.3516 352.7817 79.3516 350.8816 78.9045 348.3109 79.1281 346.5226 81.2517 347.1932 83.04 348.0873 84.6048 348.5344 88.2933 348.758 89.411 349.2051 89.7463 349.0933 89.9699 348.758 90.0816 348.0873 90.0816 347.305 89.9699 346.9696 89.2992 346.0755 89.1875 345.0695 89.1875 343.84 88.9639 342.6106 88.7404 342.1635 88.5168 341.8282 88.2933 341.4928 88.0697 340.8222 87.8462 340.2634 87.5109 339.8163 87.0638 339.481 86.6167 339.1457 85.8343 338.2515 86.2814 337.2455 87.7344 335.569 87.8462 334.7866 87.7344 333.5571 87.8462 332.7747 88.4051 331.9923 89.0757 331.7688 90.5287 331.657 91.9817 330.5393 92.3171 328.9745 92.2053 327.4097 92.5406 326.1802 93.7701 326.0684 94.6642 326.6273 95.3349 326.9626 96.7879 327.4097 97.5703 326.4037 97.9056 324.8389 98.3527 323.6095 98.5762 322.38 98.0174 320.7034 97.9056 319.8092 97.9056 319.0268 98.1292 318.2444 98.688 317.6856 99.0233 317.5738 99.8057 317.5738 100.141 317.3503 100.2528 317.015 100.141 316.2326 100.141 316.009 100.8117 314.7795 101.2587 314.6678 102.0411 314.8913 103.1589 315.5619 103.7177 315.7855 104.3883 315.7855 105.9531 316.4561 106.7355 316.2326 107.5179 315.5619 108.971 314.6678 109.418 314.6678 110.424 314.8913 111.7652 314.4442 112.4359 314.3325 112.9947 313.9971 113.4418 313.2147 112.3241 311.9853 112.9947 310.0851 114.1124 308.185 114.336 306.5085 113.5536 305.8378 111.5417 305.8378 110.7593 305.279 110.6475 304.273 111.0946 303.4906 111.7652 302.7083 111.9888 302.0376 112.1006 301.8141 111.7652 299.914 110.5358 298.4609 107.6297 295.7784 104.2766 290.4134 103.4942 288.5133 103.4942 287.9545 103.6059 287.3956 103.9413 286.9485 104.3883 286.6132 104.5001 286.3897 104.6119 286.1661 104.5001 285.8308 104.3883 285.6073 103.7177 284.3778 103.2706 283.0365 103.4942 283.0365 103.8295 283.0365 105.3943 283.4836 105.5061 282.5894 105.059 280.1305 105.059 279.0128 105.1707 277.895 105.6178 276.8891 106.2884 276.1067 107.4062 275.7714 111.0946 275.8832 112.1006 275.6596 114.7831 274.2066 116.9067 274.3184 117.9127 274.2066 118.8068 273.4242 119.4774 272.3065 121.0422 271.3006 121.9364 270.5182 122.4953 269.5122 122.607 268.5063 122.2717 267.6121 121.3776 267.0532 120.2598 266.8297 119.2539 267.3886 118.3597 267.9474 117.3538 268.3945 115.1184 268.8416 114.0007 268.8416 112.9947 268.3945 112.5476 268.0592 112.2123 267.7239 111.9888 267.2768 111.7652 265.9355 111.5417 265.712 111.0946 265.6002 109.5298 265.0414 108.6356 265.0414 107.7415 265.3767 106.7355 265.9355 105.7296 266.2708 102.3765 266.1591 100.6999 266.7179 100.141 266.6062 99.5822 266.4944 99.0233 266.3826 97.7938 267.5003 96.7879 268.0592 95.6702 268.171 94.776 267.5003 94.2172 267.3886 92.2053 268.0592 91.3111 267.7239 90.6405 266.8297 89.2992 263.5883 86.8403 260.1234 85.2755 258.6704 83.8224 258.3351 83.1518 257.888 81.2517 256.0997 79.2398 255.429 78.0103 254.982 76.6691 254.982 74.8807 255.8761 73.9866 256.0997 72.8689 256.8821 71.7512 257.2174 70.6334 257.1056 69.6275 256.0997 69.2922 255.0937 69.6275 253.7525 70.2981 252.4112 70.9688 251.2935 71.0805 250.064 70.5217 248.7228 68.8451 246.5991 68.6216 245.2579 68.7333 242.24 68.398 240.8988 67.7274 240.2282 66.7215 239.4458 66.3861 238.6634 67.7274 237.7692 66.7215 236.5397 66.2744 235.422 66.1626 232.6277 65.9391 231.0629 65.3802 229.3864 64.486 228.2686 63.1448 228.1569 60.127 229.3864 58.6739 229.4981 57.2209 228.8275 56.5503 228.1569 56.4385 227.4862 56.3267 226.8156 56.1032 226.0332 55.6561 225.3626 55.209 224.9155 54.8737 224.4684 54.7619 223.4625 54.0913 222.7919 53.3089 222.0095 53.0854 221.8977 52.303 220.8917 52.4147 219.8858 52.6383 219.6623 53.3089 219.4387 53.5325 219.327 53.5325 217.8739 54.0913 215.6385 55.0972 213.2913 55.209 212.0618 54.6502 210.6088 53.4207 208.2616 52.6383 207.2557 51.7441 206.8086 51.0735 206.6968 50.4029 206.585 49.844 206.138 49.3969 205.5791 48.7263 205.0202 47.9439 204.9085 46.3791 204.9085 44.9261 204.6849 43.9201 203.9025 43.473 202.7848 44.0319 201.22 45.932 198.8728 46.7144 197.7551 46.938 196.0785 46.7144 194.6255 46.2673 193.6196 45.932 192.3901 46.1556 190.6018 46.8262 189.9311 46.8262 189.1487 46.4909 188.5899 45.3732 188.031 44.8143 187.3604 44.3672 187.1369 43.9201 187.1369 42.9142 187.4722 42.3553 187.3604 42.1318 187.0251 41.9083 186.0191 41.6847 185.5721 41.2376 185.3485 40.9023 185.2367 40.567 185.0132 40.2317 184.5661 39.7846 183.4484 39.7846 182.7778 40.4552 180.8777 40.7905 179.6482 40.4552 178.5305 40.0081 177.4128 39.7846 176.0715 40.2317 174.842 40.9023 174.2832 41.5729 173.8361 42.2436 173.0537 42.3553 170.93 41.1259 169.477 38.108 167.5769 37.6609 166.6827 37.4374 165.7886 36.8785 165.1179 34.9784 165.4532 34.5314 164.8944 33.749 162.9943 32.9666 162.3237 30.9547 162.2119 30.284 161.7648 29.9487 160.6471 30.6194 158.747 30.3958 157.6293 30.1723 156.1762 30.284 154.6114 30.6194 152.9349 31.0664 151.5936 30.8429 150.4759 29.7252 149.5817 28.6075 148.3523 28.831 146.3404 29.2781 145.7815 31.1782 144.3285 31.6253 143.4343 31.5135 142.7637 29.6134 140.4165 28.2722 139.2988 26.8191 138.6282 25.3661 138.7399 24.6955 139.187 23.9131 139.4106 23.1307 139.4106 22.7954 138.6282 22.7954 138.1811 23.0189 137.1751 22.9072 136.8398 22.5718 136.5045 22.2365 136.6163 21.9012 136.7281 21.4541 136.6163 20.8953 135.8339 20.56 135.0515 20.3364 134.2691 20.1129 133.5985 19.4422 133.2631 17.6539 132.2572 16.9833 132.1454 13.5184 132.4807 11.73 132.2572 10.8359 130.8042 10.9476 130.2453 11.0594 130.0218 11.6183 129.3512 12.0653 128.5688 11.9536 127.7864 11.73 126.7804 11.8418 125.998 12.1771 125.2156 12.6242 124.3215 13.0713 123.3155 14.3008 121.8625 14.8596 120.8565 15.3067 119.5153 15.7538 118.6211 16.4244 118.0623 17.4304 117.6152 17.7657 117.1681 17.3186 115.9386 17.4304 115.268 17.7657 114.9327 18.7716 114.4856 19.1069 114.0385 19.4422 113.0326 19.7776 111.6913 20.0011 110.4618 19.7776 107.2205 21.2306 105.5439 23.1307 103.9791 24.3602 102.3025 24.3602 101.2966 23.9131 100.1789 23.2425 99.2847 22.5718 98.6141 21.6777 98.2788 21.007 98.5023 19.3305 99.5083 16.648 98.9494 15.8656 98.6141 15.4185 98.2788 15.3067 97.7199 15.4185 96.6022 15.4185 96.0433 15.3067 94.255 15.3067 93.4726 15.9773 90.7901 15.9773 89.6724 15.5303 86.2075 15.7538 83.525 15.7538 82.1837 15.4185 81.066 15.0832 80.6189 14.6361 80.2836 13.6301 80.0601 13.0713 79.7248 13.1831 79.2777 13.6301 78.8306 13.8537 78.2717 13.6301 77.154 13.4066 76.2598 13.2948 75.4774 13.5184 74.1362 14.8596 69.2183 14.6361 67.2064 11.8418 65.8651 10.9476 65.0827 10.277 64.0768 9.7182 62.512 9.4946 62.0649 9.3828 61.5061 9.3828 60.9472 9.3828 60.2766 8.9358 59.9413 8.4887 59.4942 8.1534 59.0471 7.9298 58.0411 7.818 57.4823 7.4827 57.0352 8.2651 55.8057 9.0475 55.1351 9.6064 54.2409 9.1593 51.5584 9.3828 50.5525 10.3888 48.4288 9.9417 46.7523 7.9298 45.411 5.5826 44.0697 4.2414 43.0638 4.2414 42.505 4.5767 41.2755 4.4649 40.6048 3.9061 39.2636 3.6825 38.7047 3.6825 38.1459 3.7943 37.6988 3.7943 37.1399 3.2354 35.7987 2.9001 34.3457 2.6766 33.675 1.2235 32.1102 1 31.2161 1.5589 30.4337 2.5648 29.763 3.3472 29.4277 4.2414 29.4277 5.3591 29.5395 6.5886 29.4277 9.4946 28.6453 10.7241 28.8689 14.3008 30.6572 15.642 30.769 16.8715 30.4337 19.554 29.2042 20.56 28.5336 21.4541 27.0805 21.4541 25.851 21.3424 24.6216 21.5659 23.0568 22.1248 22.2744 22.1248 21.492 22.013 20.5978 21.9012 19.5919 22.013 18.4741 22.2365 17.58 23.9131 14.1151 24.2484 13.2209 24.2484 12.8856 24.3602 12.1032 24.1366 9.8678 24.3602 9.0854 29.9487 4.5028 31.29 4.0557 32.0724 4.7263 33.5254 6.8499 34.196 7.6323 37.3256 9.0854 38.3316 9.9795 42.6906 13.1091ZM554.2673 852.9578L554.6026 853.1813 554.8262 853.4048 555.1615 853.7402 555.2733 854.0755 554.2673 856.3109 553.932 856.4227 553.3732 856.1991 552.7025 855.8638 552.3672 855.5285 552.3672 854.7461 552.2554 854.1872 552.2554 853.6284 552.3672 852.9578 552.7025 852.5107 553.1496 852.2871 553.7085 852.3989 554.2673 852.9578ZM528.4482 842.4513L524.5362 842.2277 524.2009 842.2277 522.4125 841.4453 521.4066 839.657 521.9655 838.8746 522.7479 838.204 523.642 837.9804 524.648 837.9804 525.5421 838.3157 527.554 838.5393 528.2246 838.7628 528.3364 839.0981 528.4482 839.2099 528.3364 839.7688 528.4482 840.2158 528.7835 840.4394 529.007 840.6629 529.1188 840.7747 529.2306 841.11 529.2306 841.4453 529.1188 841.7806 529.007 842.116 528.4482 842.4513ZM490.5578 824.1208L489.6636 824.6796 488.6576 824.6796 485.6398 824.1208 484.6339 823.7855 484.5221 823.6737 483.8515 823.2266 482.1749 821.8854 481.7278 821.3265 481.9514 820.9912 482.2867 820.9912 482.7338 820.7677 483.2926 820.7677 487.6517 822.1089 491.6755 822.4442 492.905 822.8913 493.5756 823.5619 494.0227 823.8972 493.2403 824.1208 491.2284 824.009 490.5578 824.1208ZM648.714 822.1089L648.9375 820.5441 649.7199 819.4264 651.0612 818.8675 653.073 818.644 653.2966 820.4323 651.7318 821.8854 649.7199 822.4442 648.714 822.1089ZM643.0136 812.1613L644.0196 812.3848 645.3608 812.9437 646.1432 813.6143 646.4785 813.8378 646.9256 814.9556 646.0315 815.4026 645.2491 815.9615 642.0077 816.7439 640.7782 817.8616 639.6605 820.4323 638.9899 821.4383 636.8662 823.6737 636.5309 824.4561 636.0838 825.015 634.0719 826.0209 633.6249 826.5798 633.1778 826.8033 630.4953 829.374 629.0422 830.2682 627.8128 829.7094 626.5833 828.5916 625.242 827.4739 621.7771 829.2623 620.7712 830.1564 619.7652 830.7153 618.6475 830.7153 616.3003 830.38 615.1826 830.6035 614.0649 831.0506 611.2706 833.1743 608.3646 834.4037 606.5762 835.745 605.5703 836.1921 602.3289 836.5274 600.0935 837.198 599.0876 837.8686 598.6405 837.9804 598.4169 837.9804 598.1934 837.9804 597.5228 837.7569 597.0757 837.7569 596.8521 838.204 596.5168 838.651 595.958 838.9864 595.2873 839.0981 594.8403 839.2099 594.6167 839.0981 594.3932 838.9864 594.1696 838.204 593.9461 836.7509 594.2814 835.745 594.3932 835.0744 594.0579 834.7391 593.6108 832.9507 594.1696 832.3919 596.6286 833.286 597.1875 832.9507 597.5228 833.0625 597.6345 833.0625 600.4288 831.4977 607.4704 829.2623 608.4763 829.1505 609.147 828.8152 609.3705 828.8152 611.8295 827.2504 612.8354 826.468 616.3003 825.1267 616.8592 825.015 617.9769 825.1267 618.424 825.1267 618.8711 824.9032 619.4299 824.4561 619.877 824.3443 619.7652 823.8972 619.5417 823.4502 620.3241 822.556 620.5476 821.4383 620.2123 818.8675 619.877 817.8616 618.9828 816.9674 618.0887 816.2968 617.7534 815.8497 619.0946 815.0673 626.3597 817.8616 628.3716 817.3028 633.9602 813.7261 640.89 812.1613 643.0136 812.1613ZM656.6497 806.0139L657.2086 806.4609 657.8792 806.6845 658.3263 807.0198 658.3263 807.1316 658.5498 807.914 658.3263 808.6964 657.8792 809.2552 657.4321 809.367 657.0968 809.5905 656.3144 809.7023 654.6378 809.0317 654.7496 807.5787 655.7556 806.2374 656.6497 806.0139ZM332.0662 676.6946L333.0722 677.1417 333.631 677.477 333.2957 678.4829 333.5193 679.6007 333.1839 680.4948 332.6251 680.6066 332.0662 680.0477 331.6191 678.8183 331.2838 677.5888 330.8367 676.9182 331.5074 676.4711 332.0662 676.6946ZM555.2733 875.4238L555.4968 875.9826 555.6086 876.9886 555.1615 877.4356 554.3791 877.2121 553.5967 876.8768 553.3732 876.2062 554.0438 875.7591 555.2733 875.4238ZM626.248 831.2741L626.5833 831.833 626.695 833.286 626.0244 834.5155 624.9067 835.1861 624.0125 834.6273 624.1243 833.286 624.9067 831.9448 625.6891 831.2741 626.248 831.2741ZM507.547 830.7153L508.1058 830.9388 508.5529 831.833 507.8823 832.5036 506.9881 832.3919 506.0939 831.9448 505.5351 831.1624 505.9822 830.6035 506.9881 830.4917 507.547 830.7153ZM581.763 877.771L581.763 878.3298 581.9866 879.0004 581.6513 879.4475 581.2042 879.4475 580.8689 879.6711 580.31 879.1122 580.0865 879.3358 580.1982 879.0004 579.9747 878.6651 579.7512 878.1063 580.5336 877.6592 581.4277 877.4356 581.763 877.771Z" />
</svg>