<?xml version="1.0" encoding="utf-8"?>
<svg xmlns="http://www.w3.org/2000/svg" viewBox="0 0 787 1024" style="stroke-width:0.25px;stroke-linejoin:round;stroke:#444;fill:#ddd" fill-rule="evenodd">
  <path class="IT" d="M28.9672 114.4299L31.8733 117.7831 33.4381 118.6772 35.4499 119.0125 37.5736 119.0125 39.5855 118.6772 43.6092 117.0007 45.3976 115.8829 46.2917 115.5476 51.2097 116.1065 53.3333 115.3241 57.2453 112.5298 59.1454 111.6356 60.4867 111.5239 61.2691 110.5179 61.8279 109.4002 62.9457 108.8414 69.6519 110.5179 70.6579 111.1886 71.6638 112.0827 72.8933 113.8711 73.0051 114.0946 73.7875 114.4299 74.3463 114.2064 74.7934 113.9828 75.464 113.9828 78.5936 115.1006 80.4937 115.1006 81.6114 115.4359 81.9468 115.4359 82.8409 114.9888 82.9527 114.6535 82.9527 114.2064 83.1762 113.2004 83.1762 113.0887 84.5175 112.9769 84.741 111.1886 85.4117 109.8473 86.4176 109.0649 91.0002 108.059 91.6708 107.8354 92.1179 107.5001 92.9003 106.3824 93.0121 106.1589 93.6827 104.8176 93.7945 104.5941 94.1298 101.9116 94.1298 100.7938 94.2416 99.7879 94.6887 98.782 95.3593 98.2231 96.7006 98.1113 97.4829 97.8878 100.2772 95.4288 101.7303 92.2992 101.5067 88.8343 99.6066 85.1459 98.0418 83.8046 97.8183 83.3575 98.1536 82.5751 98.8242 81.681 100.0537 80.3397 101.5067 79.6691 104.301 79.1102 105.6422 78.1043 108.8836 73.857 110.7837 72.9628 111.5661 72.2922 112.125 71.5098 112.5721 70.7274 112.5721 69.7215 112.125 69.3861 111.9014 68.9391 112.3485 67.8213 113.8015 66.2565 115.5899 65.3624 118.3842 64.6917 119.2783 64.58 121.0667 64.9153 121.9608 66.1448 122.2961 68.3802 122.2961 71.1745 122.0726 73.9688 121.0667 78.8867 120.8431 81.3457 121.0667 83.5811 121.7373 85.1459 122.9668 86.1518 124.7551 86.8224 126.5435 87.7166 128.3318 89.6167 132.4673 95.7641 133.138 96.0994 134.3674 96.5465 137.497 98.3349 138.6147 98.4466 139.0618 98.1113 140.0678 97.2172 140.5149 96.9936 140.8502 97.2172 141.0737 97.2172 141.5208 98.1113 142.0796 98.4466 143.0856 98.5584 145.0975 98.5584 146.1034 98.8937 147.78 101.1292 146.774 103.3646 144.8739 105.6 143.7562 108.2825 143.5327 108.7296 143.4209 108.9531 144.5386 109.0649 145.5446 109.4002 149.3448 111.4121 149.6801 111.7474 150.1272 112.418 150.7978 113.8711 151.9155 115.8829 152.4744 117.1124 152.8097 118.3419 152.9215 120.0185 152.6979 121.1362 152.2508 122.2539 152.0273 123.7069 154.7098 122.9245 156.8334 123.9305 158.7336 124.2658 160.8572 121.695 162.5338 118.5655 162.7573 116.8889 161.9749 115.3241 161.4161 114.9888 159.963 114.6535 159.2924 114.3182 158.7336 113.424 158.1747 111.7474 157.5041 110.965 157.3923 110.7415 157.2805 110.5179 157.3923 110.2944 157.5041 110.0708 159.6277 108.059 158.51 104.7058 158.7336 103.6999 160.4101 102.3586 161.8631 101.9116 162.5338 101.5762 162.9809 100.6821 163.2044 99.4526 163.0926 97.3289 163.3162 96.0994 164.5457 94.3111 169.3518 91.0697 169.7989 90.1756 170.1342 89.0579 170.4695 88.0519 171.2519 87.6048 172.0343 87.1578 172.705 86.4871 173.3756 85.4812 174.3815 82.1281 176.2816 78.1043 176.6169 75.9806 176.6169 74.7512 175.7228 71.398 175.7228 70.0568 175.8345 68.8273 175.7228 67.9331 174.8286 67.2625 174.2697 66.033 174.7168 63.6858 175.8345 61.4504 177.1758 60.2209 180.3054 59.8856 181.6466 60.2209 181.6466 61.3386 183.3232 63.0152 183.8821 63.2387 184.5527 62.9034 184.888 62.3446 185.1116 61.6739 185.5586 61.0033 186.5646 60.2209 187.1234 60.1091 187.347 60.7798 187.6823 69.8332 187.5705 71.2862 187.7941 71.8451 188.2411 72.2922 189.6942 73.0746 190.253 73.6334 191.5943 76.9866 192.3767 78.2161 193.8297 79.1102 195.2827 79.6691 202.7714 79.7809 204.0009 79.222 205.0068 77.8807 205.1186 77.0983 205.0068 76.0924 205.1186 74.9747 205.7892 74.1923 206.5716 74.1923 208.1364 75.1982 208.9188 75.31 210.3718 74.8629 214.7309 72.6275 217.5252 72.1804 218.8664 72.2922 220.2077 72.6275 221.7725 73.6334 222.2196 75.1982 222.2196 77.0983 222.6667 79.222 223.6726 80.4515 226.2433 82.7987 226.914 84.3635 226.914 86.4871 229.1494 86.5989 231.9437 85.4812 233.732 84.3635 234.6262 82.5751 233.732 80.8986 231.0495 78.1043 230.4906 77.0983 230.1553 76.2042 230.2671 75.4218 230.6024 74.0805 231.0495 73.1864 232.3908 71.9569 232.9496 71.2862 233.3967 69.2744 232.9496 68.1567 231.8319 67.7096 228.8141 67.1507 226.914 66.3683 225.908 65.1388 227.0257 63.127 226.4669 62.7916 226.1316 62.2328 226.0198 61.5622 225.908 60.668 226.2433 59.662 226.2433 57.5384 226.3551 56.8678 226.914 55.9736 228.2552 54.6323 228.8141 53.8499 229.5965 50.7204 229.9318 50.0497 230.6024 49.7144 236.7498 47.9261 238.4264 47.9261 239.5441 48.7085 239.6559 49.8262 239.3206 51.7263 239.5441 52.844 242.2266 53.7382 242.7855 54.1853 243.1208 54.6323 243.5679 55.0794 244.2385 55.4147 245.1327 55.6383 247.3681 55.4147 252.0625 56.6442 253.292 56.4207 253.7391 55.5265 254.1861 54.8559 254.745 52.5087 254.745 50.0497 254.2979 48.1496 252.8449 47.0319 250.1624 46.6966 248.9329 45.3553 248.374 43.567 248.7094 42.6728 249.38 42.0022 250.0506 40.7727 250.1624 39.4315 250.1624 38.4255 250.3859 37.5314 251.5036 36.749 252.286 35.6312 252.0625 34.29 251.6154 32.837 251.5036 31.4957 252.9567 29.7074 253.292 29.1485 253.6273 28.2543 253.9626 25.1248 256.0862 26.9131 258.7688 27.2484 265.475 25.3483 266.5927 25.2365 267.5987 25.4601 272.6284 28.4779 273.299 29.4838 272.9637 30.1545 271.5107 31.2722 271.1754 31.831 271.5107 32.6134 272.2931 32.6134 273.6343 32.1663 274.4167 32.5017 276.3168 33.5076 276.9875 33.6194 278.2169 33.1723 278.8876 33.1723 279.4464 33.5076 280.5641 34.5135 281.2348 34.7371 281.9054 34.7371 284.029 33.9547 285.1468 33.8429 287.4939 34.0664 288.6117 34.4018 289.5058 34.29 290.4 33.284 291.9648 30.8251 292.1883 30.4898 292.859 30.2662 293.1943 29.9309 293.3061 29.3721 293.1943 28.4779 293.3061 28.0308 294.5355 25.1248 295.2062 21.7716 295.765 20.5421 300.0123 16.2948 301.13 15.6242 305.7127 14.1712 310.2953 13.3888 312.6425 13.8359 314.6543 14.8418 316.6662 14.9536 318.9017 12.8299 319.4605 12.0475 320.0194 11.6004 320.69 11.4887 321.8077 11.7122 322.2548 12.0475 322.5901 12.3828 322.9254 12.8299 323.4843 13.1652 324.1549 13.277 324.7138 13.1652 325.3844 12.8299 327.2845 12.2711 328.8493 12.1593 332.2024 12.8299 332.3142 12.8299 332.7613 12.8299 333.3201 12.8299 334.5496 12.9417 336.6733 14.5065 337.9028 14.9536 338.6851 14.8418 339.9146 13.7241 340.697 13.277 343.6031 12.8299 345.9503 11.0416 348.7446 9.4768 351.5388 8.4708 356.2332 8.2473 362.9395 4.7824 364.0572 4.5589 367.075 4 368.6398 4.4471 368.6398 5.6766 368.6398 7.0178 367.1868 8.9179 363.2748 11.1534 362.6042 12.8299 363.0513 13.7241 363.2748 14.8418 363.7219 17.0772 364.169 18.1949 364.6161 19.0891 364.6161 19.9833 363.6101 20.8774 364.2807 21.2128 365.8455 21.4363 366.5162 21.8834 367.2986 22.554 367.6339 23.2246 368.081 23.6717 368.9751 24.007 371.7694 24.1188 372.7754 24.7894 373.3342 26.9131 373.3342 28.0308 373.2224 28.8132 372.9989 29.4838 372.7754 30.4898 372.7754 31.831 372.8871 32.3899 373.3342 32.837 373.8931 33.284 375.3461 33.7311 376.6873 33.9547 377.6933 34.6253 378.3639 36.749 379.5934 39.8785 381.8288 41.8904 384.5113 42.8964 386.0761 43.2317 388.088 43.567 390.0999 44.9083 391.2176 45.4671 392.1118 45.5789 395.912 45.02 399.1534 45.3553 399.2651 45.4671 399.824 45.6906 401.0535 46.5848 401.6123 46.8084 402.1712 46.8084 403.2889 46.473 403.736 46.3613 404.4066 46.5848 405.9714 47.1437 409.7716 49.4909 425.0843 50.6086 430.4493 51.8381 434.5848 54.4088 436.0378 54.9677 438.6086 55.1912 445.3149 53.7382 448.2209 54.1853 452.1329 53.9617 452.58 54.0735 453.5859 55.1912 454.033 55.5265 456.8273 55.6383 464.763 58.209 465.769 58.3208 466.7749 58.0972 466.7749 58.8796 466.6631 59.5503 466.4396 60.1091 466.1043 60.668 465.9925 63.0152 465.769 63.4623 465.2101 64.58 463.9806 65.2506 462.4158 65.1388 460.1804 65.4741 458.6156 66.9272 457.1626 68.9391 455.5978 70.6156 452.58 72.2922 451.0152 73.4099 450.121 73.7452 449.3386 73.857 448.5562 74.7512 447.662 76.763 446.7679 78.3278 446.5443 78.8867 444.756 79.8926 445.3149 80.8986 445.6502 82.0163 446.0972 84.3635 446.9914 85.593 447.215 86.9342 447.7738 87.7166 449.5622 87.4931 448.5562 85.8165 449.5622 86.1518 451.574 86.2636 452.4682 86.8224 454.2565 87.1578 455.486 88.0519 457.4979 89.952 459.1745 90.2873 461.0746 90.0638 461.9688 90.1756 462.6394 90.2873 462.8629 91.1815 463.0865 92.0757 461.2981 95.5406 455.1507 100.235 453.9212 101.1292 452.4682 103.141 453.0271 103.6999 453.1388 104.3705 452.9153 104.9294 452.4682 105.6 452.1329 105.8235 451.127 106.8295 452.0211 107.8354 452.2447 108.059 452.3564 108.059 452.3564 108.1707 452.4682 108.2825 452.4682 108.3943 454.2565 110.4062 456.1567 110.2944 458.2803 109.2884 460.1804 108.8414 460.5157 108.7296 461.6334 110.5179 461.1864 112.5298 460.7393 114.3182 460.1804 115.6594 458.1685 120.1303 457.945 123.3716 458.5039 124.4893 458.9509 125.3835 460.7393 126.3894 463.0865 126.613 464.0924 126.9483 466.7749 128.9602 467.3338 129.519 471.9164 131.5309 477.0579 140.3608 477.8403 141.1432 478.8462 141.7021 479.4051 141.7021 479.4051 141.8139 479.5168 142.0374 478.958 143.2669 477.7285 144.8317 476.3872 146.3965 473.3694 146.7318 470.6869 145.3905 467.4455 145.6141 468.0044 144.9435 468.675 143.8257 470.4634 143.714 472.4752 143.9375 473.8165 143.6022 473.0341 143.3787 472.3635 142.708 471.8046 141.7021 469.3457 140.3608 470.4634 139.802 470.2398 138.2372 469.3457 136.4488 468.4515 135.2194 463.31 129.7426 462.0805 128.8484 458.5039 127.1718 456.9391 126.9483 455.8213 127.9542 455.1507 129.9661 455.486 131.8662 457.2744 132.0898 454.8154 133.3193 454.4801 133.6546 454.1448 134.2134 452.3564 134.6605 451.574 134.9958 450.4563 136.2253 448.8915 137.343 447.215 137.9019 445.5384 137.2312 446.4326 137.0077 447.662 136.4488 448.668 135.7782 449.1151 134.9958 448.5562 133.3193 445.8737 132.7604 445.0913 131.4191 443.8618 131.8662 437.6026 130.4132 436.932 130.0779 435.3672 128.5131 434.9201 128.1778 434.2495 128.2895 431.9023 129.1837 431.2317 130.525 430.6728 130.7485 430.0022 130.4132 429.4433 129.1837 428.6609 128.8484 428.1021 129.2955 427.8785 130.1897 428.2139 131.0838 428.8845 131.4191 428.8845 132.0898 427.4315 132.2015 426.0902 132.9839 425.4196 134.3252 425.7549 135.89 426.8726 136.6724 428.2139 136.4488 430.6728 135.2194 429.8904 136.6724 427.5432 138.5725 427.0961 140.1373 426.4255 141.0315 424.8607 141.5903 419.6075 141.7021 417.1485 142.3727 406.4185 149.3025 395.3531 154.6675 388.8704 157.1265 387.7527 158.0207 387.3056 158.356 384.8466 159.0266 383.0583 160.1443 382.1641 160.3679 382.723 158.9149 383.3936 157.6854 383.8407 156.6794 383.5054 155.897 384.176 155.897 384.6231 155.7853 384.8466 155.3382 384.8466 154.5558 385.2937 154.5558 385.629 155.3382 385.8526 155.6735 386.1879 155.6735 386.635 155.2264 385.7408 153.9969 386.5232 153.9969 387.1938 153.9969 387.8645 153.7734 387.9762 153.9969 388.088 153.7734 388.3116 154.1087 388.4233 154.444 388.5351 154.5558 388.3116 154.5558 387.6409 154.5558 387.6409 155.2264 389.0939 155.0029 389.4293 153.8851 389.4293 152.5439 390.0999 151.985 391.2176 151.8733 392.1118 151.4262 392.8942 150.6438 393.453 149.4143 392.6706 149.7496 390.9941 150.9791 390.547 150.9791 389.3175 149.6378 388.7586 148.8554 388.5351 147.5142 387.0821 148.2966 385.2937 149.8614 384.2878 151.538 384.8466 152.6557 384.8466 153.2145 383.8407 153.2145 382.723 152.2086 382.1641 152.6557 381.7171 152.6557 381.27 150.6438 380.4876 152.2086 380.8229 153.1028 383.0583 153.9969 383.0583 154.5558 382.2759 155.0029 381.0464 155.1146 380.264 154.8911 380.3758 153.9969 378.2521 153.8851 375.5696 155.4499 373.1107 157.7971 371.8812 160.3679 371.8812 160.9267 372.2165 160.9267 371.6576 161.8209 371.4341 162.6033 371.5459 163.4975 372.2165 164.1681 371.6576 165.0623 371.5459 165.7329 371.5459 166.4035 371.3223 167.2977 370.8752 167.633 370.2046 167.633 369.9811 167.9683 370.5399 169.1978 369.7575 170.5391 369.4222 171.545 368.9751 172.2156 367.5221 172.4392 366.7397 172.1039 365.9573 171.545 365.3985 171.7685 365.0631 173.7804 365.7338 174.5628 366.4044 176.5747 367.075 176.91 367.8574 176.4629 368.3045 175.3452 368.5281 174.1157 368.1927 173.1098 369.534 173.5569 369.7575 174.5628 369.7575 175.9041 369.9811 177.5806 369.3105 177.916 369.0869 178.363 369.4222 178.9219 369.9811 179.4807 369.7575 180.822 370.4282 181.9397 371.5459 182.6103 372.7754 182.6103 372.5518 182.275 372.44 182.275 372.2165 182.0515 373.2224 181.3809 374.6755 179.8161 375.4579 179.4807 374.7872 180.9338 375.2343 182.275 375.905 183.6163 376.352 184.9575 376.352 188.0871 376.7991 191.552 376.1285 191.3285 375.4579 190.8814 375.4579 190.3226 375.4579 189.4284 375.4579 188.9813 374.7872 191.105 374.7872 192.6697 375.3461 193.6757 376.7991 193.4521 376.5756 193.1168 376.4638 192.8933 376.352 192.2227 377.5815 193.3404 378.4757 194.6816 379.1463 196.1347 379.9287 197.2524 379.9287 197.923 379.4816 198.0348 379.1463 198.1465 378.9228 198.3701 378.5875 198.5936 379.4816 199.9349 380.3758 198.4818 380.5993 197.3641 380.264 196.2464 379.4816 194.7934 380.3758 195.6876 381.6053 196.2464 382.3877 196.9171 382.1641 197.923 383.2818 199.0407 383.7289 199.4878 384.3996 199.9349 385.7408 201.6114 387.1938 203.0645 387.9762 202.3938 387.7527 202.3938 387.3056 202.5056 387.1938 202.3938 387.1938 201.7232 388.1998 201.7232 389.2057 202.0585 389.8763 202.7292 390.3234 203.7351 390.2117 204.5175 389.541 205.5234 389.8763 206.1941 389.3175 207.0882 389.0939 207.5353 388.8704 208.0942 388.5351 208.0942 387.9762 208.2059 387.7527 209.2119 387.6409 212.2297 387.1938 213.6827 386.4114 215.2475 384.3996 217.4829 384.2878 217.1476 384.0642 216.2535 383.6172 215.1358 383.0583 214.3534 384.0642 212.2297 384.2878 211.112 384.0642 210.1061 383.2818 209.7707 382.4994 210.2178 381.9406 211.0002 381.7171 211.5591 380.9347 213.1239 380.9347 214.018 382.6112 214.6887 382.4994 215.3593 382.0524 216.0299 381.27 216.3652 381.27 216.9241 381.7171 217.0359 382.6112 217.4829 383.0583 217.4829 382.6112 219.1595 381.3817 220.0537 379.9287 220.1655 378.6992 219.0477 378.0286 218.0418 376.352 216.3652 375.1226 215.4711 374.4519 215.4711 372.7754 216.9241 372.7754 217.4829 373.6695 217.4829 371.8812 223.9657 371.4341 227.5424 371.8812 231.5661 372.6636 234.5839 373.3342 236.037 373.8931 236.5958 374.0048 237.6018 373.6695 244.1963 373.8931 248.22 375.905 257.3853 376.1285 259.8442 376.352 260.5149 376.5756 261.0737 377.4697 262.3032 377.6933 262.7503 377.8051 264.6504 378.2521 266.5505 379.4816 269.9036 380.8229 272.4744 382.6112 275.0451 385.2937 277.6158 386.635 280.0748 388.7586 282.422 391.2176 284.3221 392.8942 284.9927 396.6944 290.1342 398.5945 292.0343 400.6064 293.7109 401.8359 294.3815 404.7419 295.3875 404.8537 295.3875 407.9833 295.8345 409.2128 296.6169 411.7835 298.7406 416.1426 300.5289 416.8132 301.5349 417.3721 302.2055 437.4909 319.8653 445.0913 324.5597 446.4326 325.1186 446.9914 325.901 450.121 327.0187 451.9094 328.0246 452.4682 327.6893 453.0271 327.0187 453.3624 326.6834 453.5859 326.5716 453.6977 326.3481 453.9212 326.2363 454.2565 326.1245 454.7036 326.2363 454.8154 326.6834 455.0389 327.1305 455.1507 327.2422 456.492 327.9129 457.3861 329.4777 458.1685 330.9307 458.8392 331.6013 460.0686 331.9366 461.1864 332.719 461.7452 333.9485 461.2981 335.4015 470.6869 359.5441 471.6928 361.3325 472.0282 362.0031 472.3635 365.2444 472.6988 365.9151 473.4812 367.2563 475.6048 371.8389 476.499 374.9685 477.6167 382.569 480.1875 392.0695 482.7582 401.2348 485.1054 407.3822 486.4466 410.1765 490.5822 416.771 490.9175 418.1122 491.3646 419.0064 500.8651 430.5188 505.0007 434.2073 509.695 437.3369 511.8187 439.1252 514.5012 443.7078 523.1076 452.2024 525.4548 453.6554 529.255 455.2202 531.8257 455.7791 532.9435 456.6733 533.3905 458.0145 533.7259 461.5912 534.1729 463.3795 534.9553 464.609 536.073 465.1679 536.4084 465.2796 537.5261 465.5032 538.8673 466.2856 541.2145 468.1857 543.4499 469.3034 548.815 470.3094 551.4975 471.2035 552.3916 471.9859 554.18 474.3331 554.9624 474.892 556.0801 475.2273 558.7626 477.2392 559.9921 477.9098 561.3333 478.2451 562.7864 478.4686 570.3868 478.4686 578.2108 480.257 581.2286 480.3688 592.0704 478.4686 602.6887 479.0275 619.2308 477.0156 624.8194 478.4686 624.8194 478.5804 626.7195 479.1393 628.0607 481.5982 629.2902 481.4865 629.0667 482.9395 629.5138 484.6161 630.0726 487.8574 630.1844 488.9751 630.1844 490.5399 629.6255 491.5459 628.396 492.9989 627.0548 494.2284 625.8253 494.7872 624.484 495.2343 623.3663 496.2403 621.6898 498.3639 619.3426 500.264 612.6363 503.8407 610.9597 506.0761 610.4009 509.3175 610.7362 512.8942 611.7421 515.8002 613.1952 517.8121 614.9835 519.6004 618.8955 522.3947 623.1428 523.736 624.037 524.5184 625.0429 525.4125 637.226 531.1129 647.7325 536.8132 651.6444 537.9309 652.7622 538.8251 653.8799 539.831 656.4506 541.6194 671.9868 546.9844 673.3281 548.1021 673.7751 548.1021 673.7751 547.4315 674.2222 547.4315 675.5635 548.8845 686.8524 552.5729 696.3529 557.8262 701.1591 561.4029 703.3945 563.6383 705.8535 567.3267 706.7476 567.7738 707.8653 568.1091 710.2125 570.0092 714.2363 574.3683 715.354 574.9272 716.6953 575.2625 719.0425 576.8273 724.631 578.2803 725.4134 578.7274 732.1197 581.5217 738.3789 586.2161 743.5204 587.1102 745.7558 588.2279 745.644 590.2398 746.4264 590.2398 748.103 589.681 749.1089 589.9045 749.3325 590.4634 749.3325 591.2458 749.6678 592.1399 751.2326 593.593 751.4561 594.1518 751.1208 598.0638 756.4858 602.5347 762.5215 605.9996 763.7509 606.2231 764.198 606.5584 765.5393 608.9056 766.3217 609.688 768.4453 611.5881 770.2337 614.3824 771.1278 615.7237 772.3573 616.2825 772.9162 616.8414 777.2752 622.877 781.4108 632.8246 781.6343 633.3835 781.9696 633.7188 782.4167 633.9424 782.0814 634.9483 782.305 635.5072 782.5285 636.066 782.4167 636.9602 781.9696 637.7426 780.8519 638.6367 780.2931 641.2075 779.5107 642.2134 777.0517 644.0018 775.5987 647.6902 775.3751 648.5844 775.1516 650.3727 774.481 652.2728 774.3692 653.0552 774.8163 655.2906 774.8163 656.2966 773.9221 660.7674 774.1457 661.5498 773.8103 661.7734 773.1397 663.0029 772.8044 663.2264 771.3514 663.1146 770.7925 663.0029 770.2337 662.6675 767.1041 660.0968 765.9864 659.7615 763.3039 659.7615 762.5215 659.6497 760.8449 658.532 759.2801 657.7496 757.1564 655.8495 754.8092 654.1729 753.9151 653.8376 753.3562 653.3905 749.1089 647.0196 748.3265 646.2372 748.3265 645.6783 749.3325 645.5666 750.0031 645.0077 750.1149 644.0018 749.6678 642.7723 748.9971 641.9899 747.2088 641.431 746.5382 640.9839 748.7736 639.5309 749.3325 637.6308 748.4383 635.6189 746.5382 633.3835 744.7498 631.9305 743.7439 630.8128 743.2968 629.5833 743.2968 627.9067 743.185 626.4537 742.8497 625.2242 742.0673 624.5536 742.8497 624.5536 742.8497 623.9947 739.6084 621.424 738.6024 620.9769 716.5835 619.8592 715.4658 619.5239 711.8891 617.512 711.3303 617.4002 709.8772 617.6238 709.2066 617.512 708.7595 617.1767 707.6418 615.9472 707.1947 615.7237 706.077 615.3883 702.5003 613.2647 698.8119 611.9234 697.0235 611.0293 696.2411 609.7998 697.6942 609.1292 699.0354 608.0114 699.259 606.5584 698.0295 605.1054 699.259 604.6583 702.5003 605.2172 703.8416 604.5465 704.2887 603.0935 702.9474 602.9817 700.2649 603.8759 700.3767 603.6524 700.712 603.3171 699.259 602.6464 698.0295 603.2053 696.9118 604.0994 695.5705 604.5465 695.0117 604.2112 694.6763 603.5406 694.341 602.7582 694.0057 602.0876 693.3351 601.864 691.7703 601.864 691.2114 601.6405 686.2935 601.3052 681.4873 603.5406 677.3518 607.6761 674.1105 612.3705 668.8572 619.971 667.4042 622.7652 665.8394 627.7949 665.3923 628.6891 664.4981 629.248 662.0392 633.3835 659.4684 635.7307 658.4625 636.6249 657.1212 638.6367 656.6741 641.8781 656.7859 642.9958 657.6801 646.1254 658.9096 648.8079 658.2389 649.8139 657.233 650.708 656.1153 652.7199 653.0975 655.626 650.862 659.7615 649.7443 662.5558 649.6326 665.1265 650.415 667.4737 652.2033 669.7091 652.2033 670.268 651.3091 672.3916 653.321 674.8506 656.2271 676.8625 658.4625 677.8684 666.6218 678.3155 668.8572 678.9861 669.8631 679.7685 670.9809 680.7745 671.9868 682.004 672.4339 683.3452 672.9927 684.0158 676.9047 686.0277 680.0343 688.5985 681.152 688.9338 682.7168 689.1573 683.8345 689.7162 684.6169 690.6103 685.3993 691.8398 686.8524 693.5164 688.8642 695.0812 691.2114 696.1989 693.4469 696.4224 691.0997 702.2345 690.6526 706.9289 690.5408 708.0466 690.7644 709.1644 691.2114 710.1703 692.3292 712.0704 692.6645 713.0763 692.2174 715.7589 691.0997 720.6768 691.2114 723.1358 692.7762 726.2653 692.9998 726.936 693.4469 727.3831 695.6823 728.1655 696.5765 728.389 695.347 729.2832 694.6763 729.842 694.341 730.4009 694.341 733.754 694.341 734.2011 692.2174 736.213 691.8821 736.5483 691.435 736.8836 690.8761 737.666 689.8702 739.3426 689.3113 737.666 687.6348 737.3307 685.8464 737.8895 684.5052 738.7837 682.8286 736.7718 681.8227 736.1012 680.2579 735.8777 678.8048 735.9894 672.4339 737.7778 665.1688 741.0191 662.598 743.031 662.0392 743.7017 661.4803 744.2605 657.5683 746.2724 655.8917 747.8372 655.1094 748.9549 654.4387 751.3021 653.6563 752.6433 652.8739 754.0964 652.5386 756.1083 653.321 756.6671 653.5446 756.8906 653.4328 758.4554 654.1034 764.8264 655.3329 770.5267 655.3329 772.6504 654.8858 778.7978 654.327 779.9155 651.7562 782.2627 650.862 783.604 650.0796 783.8275 648.1795 785.5041 646.0559 786.2865 639.7967 789.5278 637.5613 791.5397 628.6196 802.7168 627.5019 805.3993 625.7135 814.2293 624.8194 816.8 624.1487 817.9177 623.3663 818.8119 622.5839 819.5943 621.6898 820.1531 618.5602 820.8238 617.5542 821.3826 613.754 820.1531 601.9063 820.8238 600.1179 820.3767 598.3296 819.4825 596.7648 818.4766 595.6471 817.3589 594.3058 815.5705 593.6352 813.8939 593.747 812.3292 595.0882 811.0997 593.4117 808.4172 592.8528 806.9641 593.0763 805.6229 593.9705 804.1699 594.4176 802.7168 594.3058 801.152 593.747 799.1402 593.4117 796.2341 594.6411 794.5575 596.7648 793.5516 603.4711 791.4279 604.1417 790.7573 604.2535 790.422 605.2594 789.5278 605.4829 789.0807 606.3771 785.3923 611.295 774.9976 612.0774 771.4209 611.9657 768.6266 610.9597 766.2794 609.0596 764.1558 608.6125 763.8205 607.7184 763.3734 607.2713 763.0381 606.7124 762.1439 606.6007 761.6968 606.7124 761.2497 606.8242 760.3556 607.2713 759.4614 608.5008 758.7908 611.295 757.7848 615.4306 754.9905 617.666 753.9846 620.6838 753.7611 625.3782 754.3199 626.3842 754.0964 627.5019 753.5375 629.2902 752.0845 630.6315 749.6255 631.6374 746.4959 632.0845 742.9193 631.9727 739.3426 631.6374 737.666 630.9668 736.4365 629.9608 735.6541 628.6196 735.3188 627.6136 734.6482 626.6077 733.0834 622.9193 724.477 620.2367 704.5817 619.7897 701.6757 617.2189 693.7399 614.76 690.3868 613.0834 687.369 611.295 685.4689 609.3949 684.1276 608.8361 683.1217 608.2772 680.998 607.7184 678.7626 606.8242 675.5212 605.3712 673.2858 604.8123 671.8328 603.6946 663.2264 603.6946 663.7853 603.3593 662.1087 603.024 661.2145 602.4651 660.8792 602.4651 660.4321 603.2475 657.079 602.6887 655.1789 600.565 651.9375 600.1179 650.708 599.6708 648.9197 598.6649 647.4667 596.4295 645.1195 594.6411 642.1017 593.2999 640.9839 592.8528 640.3133 592.8528 639.1956 591.9586 639.6427 587.0407 639.1956 585.5877 640.0898 584.47 641.8781 582.1228 643.3311 580.1109 645.9019 578.8814 646.349 575.64 646.0136 574.4106 645.5666 572.5105 642.9958 571.8398 642.7723 571.1692 643.1076 570.4986 643.3311 569.8279 643.4429 569.0455 643.3311 569.0455 642.7723 570.275 641.7663 569.2691 639.5309 567.2572 637.2955 565.6924 636.2895 564.3512 635.7307 560.3274 631.3716 559.3215 630.9245 558.2037 631.0363 556.3036 631.5952 555.0741 631.3716 554.2917 630.8128 553.3976 629.1362 552.1681 627.9067 550.3798 627.1243 549.7091 626.6772 549.1503 626.0066 547.9208 626.3419 546.8031 625.4477 546.1325 625.1124 545.7971 623.6594 547.4737 621.424 547.9208 619.5239 547.4737 618.0708 547.4737 617.2884 548.1443 616.8414 548.9267 616.7296 549.5974 616.2825 550.1562 615.7237 551.6092 615.1648 551.9446 614.2706 551.8328 611.8117 550.3798 608.7938 544.6794 596.6108 542.8911 593.7047 541.2145 591.4693 539.4262 589.681 537.6378 588.2279 535.7377 587.6691 533.6141 588.5633 531.6022 590.0163 530.8198 590.2398 527.4667 590.0163 526.5725 590.3516 523.89 592.8106 522.1017 593.1459 520.2015 592.587 518.3014 591.4693 517.2955 592.1399 514.0541 592.9223 512.7129 594.1518 509.695 595.7166 508.8009 596.8343 508.0185 595.6048 507.9067 593.8165 508.5773 592.2517 509.9186 591.4693 511.2598 591.3575 511.8187 591.134 512.4893 590.4634 512.9364 589.4574 515.5072 586.8867 517.6308 586.1043 517.8543 584.6513 517.519 583.0865 516.6249 581.857 515.3954 580.851 514.0541 581.2981 512.9364 580.7393 512.2658 580.2922 511.4834 579.398 510.4774 578.7274 509.248 577.2744 506.9008 574.5919 505.6713 573.6977 504.4418 573.5859 502.6535 573.6977 501.0887 574.2565 500.3063 575.2625 499.7474 576.9391 498.2944 576.9391 497.2884 575.5978 495.2766 575.3743 493.7118 574.4801 492.7058 574.033 491.8117 574.2565 491.3646 575.0389 491.4763 576.1567 491.6999 577.2744 491.8117 578.3921 491.3646 578.1685 489.5762 577.945 489.1292 577.2744 489.7998 573.8095 489.3527 570.5681 487.7879 566.4326 484.0994 559.9498 481.864 558.385 480.9699 557.6026 480.7463 556.8202 480.6345 554.9201 480.5228 554.026 478.8462 550.5611 476.7226 546.8726 472.6988 541.7311 468.1162 537.7074 467.3338 537.3721 465.3219 537.8191 464.316 537.8191 463.8689 537.0367 459.8451 537.5956 457.8332 538.9369 458.6156 541.5076 456.492 541.7311 455.8213 541.5076 455.2625 540.9487 454.9272 540.0546 454.5919 539.7193 454.033 540.3899 453.5859 540.3899 452.3564 538.8251 442.0735 534.0189 439.6145 533.9072 434.2495 534.9131 433.1318 535.4719 430.7846 537.0367 428.3256 537.8191 426.7608 539.9428 425.3078 540.3899 423.743 539.831 423.2959 538.7133 423.0724 537.2603 422.4018 535.8073 421.6194 534.6895 420.3899 532.2306 419.4957 530.8893 415.8073 526.5303 413.9072 524.8537 411.7835 523.6242 410.4422 523.1771 405.3008 522.9536 404.4066 522.73 399.7122 519.7122 398.1474 519.0416 397.365 519.7122 396.9179 520.6064 395.912 519.6004 390.9941 512.2235 384.6231 504.6231 377.8051 498.3639 376.6873 497.5815 375.0108 497.0227 374.0048 496.1285 373.446 495.905 371.4341 495.5696 370.987 495.3461 369.9811 494.1166 369.4222 492.5518 369.1987 490.8752 369.0869 489.0869 368.7516 487.2986 368.081 485.622 366.4044 482.716 364.9514 480.5923 358.5804 475.6744 357.798 475.2273 357.2392 474.5567 357.0156 473.4389 356.5685 472.7683 354.7802 472.433 354.1096 472.2095 353.2154 471.0917 352.2095 470.1976 350.98 469.3034 349.8623 468.7446 344.7208 468.9681 343.9384 469.0799 343.6031 467.9622 342.8207 466.2856 341.703 464.7208 340.8088 463.9384 340.3617 462.7089 338.9087 460.8088 338.5734 460.0264 338.4616 458.6851 338.0145 457.2321 334.4378 449.8552 332.873 447.3963 325.0491 441.2488 321.8077 440.3547 317.3369 437.8957 315.6603 437.3369 315.6603 436.6662 315.1014 436.3309 314.4308 436.1074 313.6484 435.9956 312.9778 436.1074 313.4249 436.6662 311.5248 436.6662 306.7186 434.8779 305.8244 434.7661 304.5949 434.7661 303.589 435.1014 303.1419 435.7721 302.9184 437.1133 301.9124 438.5663 301.8007 439.684 301.13 439.4605 300.5712 439.4605 300.0123 439.5723 299.9006 439.684 299.4535 439.237 298.5593 438.1193 296.771 437.5604 295.8768 436.4427 295.4297 435.1014 295.4297 434.0955 296.2121 432.9778 297.1063 432.6425 299.0064 433.3131 300.4594 433.2013 301.4653 431.7483 302.136 429.6246 302.136 427.3892 302.0242 426.048 300.5712 423.7008 300.1241 422.136 299.4535 422.2477 298.6711 422.5831 298.1122 422.6948 297.3298 421.4653 296.771 419.7888 296.1003 418.3358 294.9826 417.7769 294.8708 416.1003 293.1943 414.7591 290.0647 412.859 289.7294 411.853 289.3941 410.4 289.0587 409.1705 288.4999 408.6117 287.941 408.2763 286.0409 406.1527 282.576 404.3644 272.0695 400.6759 273.7461 399.4464 274.305 397.9934 274.4167 396.3168 274.4167 394.1932 274.5285 393.6343 274.9756 393.1872 275.1991 392.6284 274.8638 391.3989 274.1932 390.5047 273.4108 389.9459 268.8282 387.8222 265.5868 386.9281 262.4572 386.8163 259.5512 387.8222 259.7747 388.7164 259.9982 389.0517 258.2099 389.9459 256.8686 388.4928 255.5274 384.1338 257.0922 382.6807 258.0981 381.116 259.5512 376.0862 259.3276 374.9685 259.3276 373.0684 259.5512 371.1683 259.9982 370.0506 259.4394 368.4858 259.2158 366.5857 259.1041 362.8972 258.7688 360.9971 258.0981 359.2088 252.8449 348.2552 248.5976 342.4431 247.7034 341.3254 245.5798 340.3195 245.0209 338.8664 243.4561 332.0484 241.4442 310.1413 240.6618 306.7881 237.9793 300.0818 235.9674 296.9523 233.1732 294.8286 231.1613 291.3637 230.1553 290.4695 228.9259 290.1342 226.4669 288.4576 225.1256 288.1223 224.1197 287.5635 223.4491 287.3399 223.1138 287.787 222.8902 288.2341 222.3314 288.6812 221.7725 288.793 221.1019 288.3459 220.0959 287.3399 217.8605 285.5516 216.8546 284.3221 216.0722 284.7692 213.9485 282.9809 212.8308 283.0926 213.2779 283.7633 212.9426 283.875 212.6073 284.2103 212.3837 284.3221 212.719 285.1045 213.0543 285.6634 213.6132 285.9987 214.1721 286.2222 214.1721 286.7811 213.8367 287.0046 213.6132 287.3399 213.2779 288.1223 214.0603 288.5694 213.8367 289.1283 213.1661 289.0165 212.8308 287.787 212.3837 287.0046 209.2541 285.5516 205.901 282.5338 205.1186 282.0867 203.3303 280.4101 202.6596 279.963 200.7595 279.8513 199.9771 279.6277 199.3065 279.2924 197.0711 276.6099 196.624 276.4981 196.1769 275.3804 195.0592 274.598 192.1531 273.145 191.3707 272.5861 190.7001 271.8037 190.3648 270.5743 189.5824 270.9096 188.3529 271.1331 187.2352 270.9096 186.7881 270.2389 186.341 269.3448 183.2114 268.0035 182.7644 265.9916 175.8345 262.0796 173.7109 260.5149 173.152 261.409 172.5932 262.415 172.3696 263.5327 172.4814 264.9857 169.4636 263.7562 168.2341 262.862 168.3459 261.7443 167.1164 259.6207 165.3281 258.6147 158.7336 257.3853 155.4922 256.2675 153.5921 255.1498 153.0332 255.4851 150.0154 255.3734 148.4506 255.0381 148.0035 254.7028 147.2211 253.6968 143.0856 253.3615 141.409 253.585 140.6266 254.0321 138.7265 255.5969 137.9441 256.3793 137.497 256.7146 137.0499 256.7146 136.4911 256.7146 136.044 256.7146 132.0202 259.6207 130.9025 259.8442 130.1201 260.1795 128.4436 261.7443 123.6374 264.9857 122.1844 266.8858 122.5197 268.6741 121.8491 269.6801 121.6255 270.2389 121.6255 270.9096 121.402 271.1331 120.396 271.8037 120.0607 272.1391 119.7254 273.2568 119.8372 274.1509 119.8372 275.1569 118.943 276.1628 117.2664 276.9452 113.578 278.1747 111.6779 279.2924 110.7837 280.1866 109.8895 281.0807 108.3248 283.4279 108.1012 284.0986 108.213 285.5516 108.1012 286.2222 107.7659 287.6752 107.207 288.6812 104.1892 292.2579 103.0715 294.3815 104.0774 296.2816 104.0774 296.8405 102.5127 297.1758 100.6125 299.4112 98.936 300.0818 98.3771 300.5289 98.0418 301.0878 97.8183 301.5349 97.4829 302.2055 96.7006 302.6526 95.1358 303.0997 90.4414 306.2293 79.0407 309.0235 75.7993 311.1472 73.1168 311.8178 64.9575 311.8178 63.1692 312.4884 62.275 312.4884 61.8279 312.0414 61.1573 311.7061 60.4867 311.7061 59.1454 307.347 58.8101 305.1116 59.8161 303.2114 62.7221 300.0818 64.0634 297.9582 67.4165 295.0521 68.8695 293.3756 69.4284 292.3696 69.8755 290.3578 70.3226 289.24 71.105 288.4576 71.9991 287.6752 72.7815 286.6693 72.8933 285.1045 72.558 284.5457 71.8873 282.8691 70.4343 281.4161 69.5402 279.7395 70.4343 276.7217 68.4224 276.3864 65.7399 278.1747 63.8398 278.2865 52.4392 281.6396 49.8684 281.5278 49.1978 281.4161 48.6389 280.8572 48.1919 280.0748 47.7448 279.4042 46.9624 279.0689 45.174 278.7336 43.9446 278.1747 37.0147 273.9274 34.3322 272.9215 30.532 270.9096 29.7496 270.686 28.8554 270.686 28.073 271.0213 27.2906 271.1331 26.3965 270.7978 25.7259 270.0154 25.5023 269.233 25.2788 268.4506 24.8317 267.4447 24.2728 266.774 22.9316 265.8799 22.3727 265.2092 21.9256 264.5386 21.255 262.6385 20.6961 261.7443 19.2431 260.0678 19.0196 259.6207 18.6843 258.8383 18.796 258.3912 18.9078 257.8323 19.4667 254.9263 19.9138 254.1439 22.1492 252.9144 20.3608 251.4614 18.4607 249.3377 16.8959 246.767 16.7842 243.9727 17.4548 242.7432 20.8079 240.1725 23.0433 236.2605 23.9375 235.4781 23.1551 233.578 23.714 231.6779 24.8317 230.2249 26.3965 229.3307 27.626 229.3307 29.9732 230.1131 31.0909 230.0013 30.7556 228.8836 28.7437 225.0834 28.5201 224.301 28.1848 221.9538 27.4024 220.0537 27.4024 219.9419 27.7377 218.3771 27.8495 218.3771 27.8495 217.93 27.9613 217.7065 27.9613 217.3712 27.8495 216.8123 27.5142 216.3652 26.3965 215.1358 23.0433 213.6827 21.9256 213.6827 18.6843 214.2416 17.4548 214.018 12.9839 211.3355 10.8603 209.4354 9.6308 207.5353 9.7426 202.3938 9.4073 199.7113 7.6189 198.3701 5.3835 198.2583 4.7129 197.5877 3.9305 196.2464 3.7069 195.3523 3.8187 194.6816 3.7069 194.011 2.5892 193.1168 1.4715 191.3285 2.2539 190.3226 3.2598 189.4284 3.3716 189.3166 5.7188 187.9754 6.2777 187.8636 7.5072 187.8636 7.9542 187.8636 8.5131 187.5283 9.7426 186.5223 10.1897 186.2988 12.5369 186.7459 14.884 187.9754 17.2312 188.8695 19.4667 187.8636 19.5784 187.193 19.1314 186.8576 18.9078 186.2988 19.2431 185.5164 19.6902 185.2928 21.255 185.2928 21.8139 185.0693 22.8198 184.2869 23.9375 182.275 24.8317 181.3809 27.1789 180.3749 29.4143 179.7043 29.9732 179.9278 30.7556 180.9338 31.0909 181.0455 31.538 180.5985 32.8792 178.363 34.5558 176.7982 34.5558 175.3452 33.8851 173.5569 33.5498 170.7626 33.8851 170.2037 36.0088 167.7448 37.3501 165.2858 38.0207 163.8328 38.0207 162.7151 37.5736 162.268 34.7793 161.0385 33.8851 160.3679 33.3263 159.3619 32.8792 158.1325 32.4321 157.4618 32.2086 157.1265 29.4143 155.0029 26.3965 153.3263 25.8376 151.985 25.5023 148.073 25.2788 147.4024 24.4964 146.2847 24.3846 145.5023 24.6081 144.7199 25.3905 143.1551 25.5023 142.5963 25.0552 141.1432 24.2728 140.5844 22.1492 140.0255 21.255 139.3549 19.802 137.9019 18.9078 137.5666 17.2312 137.2312 15.4429 135.89 14.1017 133.8781 13.431 130.0779 13.2075 128.2895 13.2075 126.7248 13.6546 125.16 14.437 123.7069 15.4429 123.1481 17.2312 122.5892 17.7901 122.8128 18.2372 123.0363 18.5725 123.7069 19.0196 123.5952 19.1314 123.1481 19.1314 122.4774 19.2431 122.0304 19.6902 121.9186 21.255 121.9186 22.708 121.5833 24.1611 120.8009 25.5023 119.6832 26.3965 118.1184 26.8436 116.8889 27.2906 115.7712 27.9613 114.877 28.9672 114.4299ZM383.3936 302.6526L385.5173 302.3173 386.635 300.4172 386.635 300.0818 386.635 299.8583 386.7468 299.6348 386.8585 299.4112 386.9703 299.2994 387.4174 298.4053 387.5292 296.8405 387.3056 295.2757 386.8585 294.3815 384.9584 294.7168 382.9465 295.8345 382.2759 296.5052 381.27 297.5111 380.5993 299.7465 381.4935 301.6466 383.3936 302.6526ZM384.9584 480.7041L385.0702 480.7041 385.0702 480.5923 384.9584 480.5923 384.9584 480.7041ZM355.2273 910.6878L357.798 913.1468 358.6922 914.3762 358.804 916.2763 357.2392 918.4 355.0037 918.1765 352.7683 916.4999 351.2035 914.5998 350.8682 914.0409 350.4211 912.6997 350.1976 911.3584 350.98 910.6878 351.3153 910.576 351.7624 910.2407 352.0977 910.1289 352.5448 910.3525 353.1036 911.1349 353.4389 911.2466 353.9978 911.4702 354.4449 911.6937 354.7802 911.582 355.2273 910.6878ZM373.2224 819.5943L374.1166 819.7061 374.7872 819.4825 375.3461 819.1472 375.905 819.0354 376.352 819.5943 377.358 820.1531 378.5875 820.712 379.4816 820.8238 378.6992 821.7179 377.6933 821.8297 376.6873 821.3826 375.905 820.8238 374.899 821.2708 374.1166 821.1591 373.5578 820.4884 373.2224 819.5943ZM586.5936 789.4161L588.6055 789.6396 592.2939 791.2044 594.6411 791.6515 594.4176 792.3221 594.0823 792.7692 593.5234 792.881 592.8528 792.7692 590.1703 794.5575 589.2761 795.6752 588.829 796.793 588.6055 797.9107 589.7232 797.9107 586.4818 803.1639 584.8053 807.523 577.6519 816.5765 571.8398 825.8535 570.4986 828.536 569.3809 830.2125 567.8161 831.5538 565.916 834.4598 565.4689 835.5776 565.5806 836.4717 566.2513 838.0365 566.363 838.9307 566.1395 839.8249 565.2453 840.719 565.0218 841.5014 564.7982 843.2898 564.0158 845.637 563.6805 847.4253 562.6746 850.4431 559.545 854.2433 558.3155 856.4788 557.9802 857.9318 557.8684 859.3848 557.9802 867.5441 558.3155 868.9971 558.7626 870.1149 559.2097 870.7855 563.7923 873.3562 566.2513 873.8033 567.4807 874.6975 568.4867 876.0387 569.0455 878.0506 568.0396 877.0447 567.369 877.38 566.9219 878.2741 566.363 879.1683 566.4748 877.7153 566.1395 877.1564 565.4689 877.1564 564.5747 877.4917 565.0218 878.4977 564.0158 880.1743 564.6865 882.745 566.1395 884.5333 567.2572 883.6392 568.1514 884.198 568.1514 884.7569 566.9219 884.9804 567.1454 886.2099 568.1514 887.5512 569.2691 888.2218 570.8339 888.3336 571.8398 888.8924 572.1751 890.1219 571.8398 892.1338 570.8339 891.5749 570.3868 892.2455 570.4986 893.2515 571.0574 893.8103 572.3987 893.5868 572.9575 893.9221 573.5164 894.9281 573.7399 896.2693 573.2928 896.4928 572.5105 896.2693 572.1751 895.8222 571.8398 895.934 569.4926 897.1635 569.9397 897.7223 569.3809 898.0576 569.2691 898.2812 569.4926 898.84 569.4926 899.3989 567.9278 899.5107 566.8101 900.1813 565.8042 900.8519 564.7982 901.0755 563.3452 901.8579 562.3393 903.4227 558.9861 912.029 558.9861 912.9232 558.092 913.7056 558.4273 915.2704 559.6568 917.9529 560.7745 922.8708 560.7745 923.8768 559.4332 925.1063 558.092 925.5534 556.7507 925.1063 555.5212 924.1003 554.6271 922.8708 554.0682 922.312 553.2858 921.8649 552.3916 921.6414 551.8328 921.6414 551.4975 922.2002 550.8268 922.7591 549.1503 921.9767 546.5795 920.1883 544.2323 919.2942 541.8851 919.6295 537.5261 921.8649 537.3025 921.1943 537.079 920.9707 536.2966 921.3061 535.1789 920.3001 531.2669 919.7413 530.3727 918.2882 529.5903 917.3941 525.7901 915.941 524.5606 915.1586 523.4429 915.3822 518.3014 914.1527 517.6308 913.2585 512.2658 901.7461 510.5892 899.3989 504.6653 893.5868 500.0827 890.569 494.7177 887.9982 492.2587 887.5512 484.8818 888.2218 484.2112 888.3336 482.9817 889.116 482.3111 889.3395 479.5168 889.0042 475.3813 885.7628 472.9223 884.7569 470.1281 884.198 467.7809 883.1921 465.6572 881.6273 460.0686 876.1505 458.1685 874.6975 455.8213 874.0268 452.9153 873.468 450.5681 872.6856 448.4444 871.3443 445.2031 868.7736 442.4088 867.097 441.2911 865.8675 440.6205 865.5322 439.8381 865.1969 439.0557 864.8616 437.4909 861.732 437.0438 861.3967 435.5908 860.5025 434.9201 859.4966 434.3613 859.0495 433.5789 858.826 433.2436 858.6024 432.5729 857.3729 432.2376 857.1494 424.1901 856.0317 423.2959 856.4788 422.5135 856.5905 421.9547 856.2552 421.5076 855.4728 421.0605 853.7963 420.837 853.1256 419.1604 851.3373 417.0367 850.4431 411.7835 849.7725 406.5303 849.8843 401.0535 850.8902 398.4827 850.6667 397.0297 849.2136 394.2354 844.631 393.1177 843.5133 392.2235 843.0662 389.6528 842.9545 388.4233 842.3956 387.3056 840.9426 386.4114 839.266 385.7408 837.9248 385.5173 836.6953 385.4055 835.5776 385.182 834.5716 384.6231 833.5657 383.8407 832.6715 383.2818 831.442 383.2818 830.4361 384.3996 829.8772 384.5113 830.2125 385.5173 829.6537 385.7408 829.3184 385.629 829.0948 386.0761 826.7476 386.2997 826.7476 386.635 825.1828 386.635 824.5122 386.5232 824.0651 385.9644 823.171 385.7408 822.3886 385.7408 821.8297 385.7408 821.7179 385.8526 821.6062 387.4174 818.4766 387.8645 816.2411 388.1998 814.8999 388.3116 813.6704 387.6409 812.7762 389.6528 811.9938 391.3294 810.0937 393.1177 808.6407 395.1296 809.4231 397.1415 807.9701 398.0356 806.9641 398.371 805.6229 398.7063 804.9523 399.6004 804.9523 400.6064 805.2876 401.5006 805.3993 402.8418 804.1699 402.73 802.0462 402.5065 800.0343 403.2889 798.5813 403.6242 799.5872 404.4066 799.4755 405.189 799.5872 405.5243 801.0403 407.0891 804.8405 408.8774 808.0818 409.6598 808.7525 411.4482 809.7584 412.2306 810.3173 412.3424 811.0997 414.3542 812.3292 417.1485 811.8821 422.6253 809.4231 424.8607 807.6348 425.4196 807.0759 425.5314 806.6288 425.4196 806.1817 425.3078 805.1758 425.196 804.3934 424.5254 803.611 424.4136 802.8286 426.6491 800.8167 426.3138 800.0343 426.7608 799.3637 427.4315 798.8048 428.2139 798.5813 428.8845 798.6931 431.1199 799.5872 432.5729 799.9226 434.473 799.9226 435.9261 799.2519 436.4849 797.3518 437.4909 797.6871 438.2733 797.4636 439.0557 797.1283 440.2851 796.793 441.1793 796.3459 441.7382 796.2341 442.0735 796.4576 442.1853 797.0165 442.1853 797.5754 442.4088 797.9107 444.8678 799.5872 445.2031 800.2579 445.3149 802.9404 445.5384 803.7228 446.5443 806.07 454.4801 805.3993 456.2684 806.7406 456.1567 808.1936 456.2684 808.976 456.7155 809.982 457.3861 810.5408 459.2862 811.3232 461.6334 813.3351 463.5336 814.5646 466.5514 815.1234 467.5573 815.5705 467.222 815.7941 467.222 815.9058 467.1102 816.2411 468.4515 816.2411 472.6988 816.8 474.1518 816.4647 477.0579 814.8999 479.7404 814.2293 480.6345 813.5586 481.4169 812.7762 482.3111 812.2174 486.8937 811.435 487.7879 810.5408 490.4704 812.1056 491.8117 812.6645 493.3765 812.7762 494.2706 812.7762 496.2825 812.2174 504.33 813.3351 508.1303 813.1116 511.5952 812.1056 514.7248 810.5408 516.8484 811.5468 519.978 810.8761 528.0255 807.8583 530.1492 806.4053 532.0493 804.5052 534.5083 801.4873 535.1789 801.152 537.4143 801.3756 538.7556 801.2638 543.6735 799.9226 544.5677 799.3637 545.2383 799.1402 545.9089 799.0284 547.6972 799.1402 548.3679 799.4755 549.4856 801.0403 549.9327 801.3756 550.7151 801.3756 552.3916 801.9344 554.5153 801.8227 555.1859 801.9344 555.4095 802.2697 556.0801 803.2757 556.4154 803.7228 557.7567 803.9463 558.8744 803.4992 559.9921 802.8286 563.5688 801.5991 565.2453 799.3637 567.7043 794.5575 567.4807 793.8869 567.4807 793.6634 567.4807 793.4398 567.7043 792.7692 567.4807 792.5457 567.9278 792.5457 568.1514 793.4398 567.7043 795.4517 568.0396 796.4576 568.822 797.1283 569.9397 797.3518 571.0574 797.3518 572.9575 797.0165 578.099 795.2282 579.6638 794.2222 580.3344 793.5516 582.9052 792.3221 585.5877 789.7514 586.5936 789.4161ZM549.7091 778.4625L549.7091 779.692 550.8268 780.2508 551.4975 781.0332 552.0563 781.9274 552.3916 783.1569 551.8328 783.7157 551.0504 784.2746 549.5974 782.8216 548.5914 781.5921 548.3679 780.2508 549.262 778.4625 549.7091 778.4625ZM545.9089 774.9976L545.3501 774.4387 545.4618 772.9857 546.0207 771.5327 547.0266 770.9738 549.1503 770.9738 549.7091 771.5327 549.262 772.7622 549.7091 773.0975 550.268 773.6563 550.6033 773.8799 550.6033 774.4387 548.815 774.4387 549.1503 775.4447 549.3738 775.78 549.7091 776.1153 549.7091 776.7859 548.5914 777.0095 547.6972 776.3388 546.8031 775.4447 545.9089 774.9976ZM543.0029 768.7384L542.8911 769.6326 540.4321 768.5149 538.4202 766.8383 539.8733 765.8323 542.2205 765.7206 543.2264 766.0559 543.897 767.0618 543.5617 767.3971 543.3382 767.8442 543.0029 768.7384ZM122.9668 724.5888L123.0785 725.1476 123.4139 725.3712 123.8609 725.2594 124.308 724.9241 124.4198 724.7006 124.7551 724.9241 123.5256 726.0418 123.1903 726.6007 123.4139 727.2713 122.855 728.5008 122.2961 731.295 121.7373 733.6422 121.402 733.9776 120.7314 734.2011 119.949 734.0893 119.7254 733.6422 119.6136 733.0834 119.3901 732.4128 116.9311 728.389 115.9252 725.5947 116.2605 723.8064 116.2605 723.1358 115.7017 723.1358 115.7017 722.5769 116.7076 720.9003 118.3842 722.018 120.396 721.7945 122.1844 722.1298 122.9668 724.5888ZM113.1309 714.5294L113.1309 717.2119 113.4662 720.6768 113.1309 722.018 112.125 722.4651 110.6719 722.3534 109.7778 721.7945 109.8895 720.9003 109.8895 720.3415 108.3248 718.6649 107.7659 717.5472 108.1012 716.2059 109.1072 715.5353 112.125 714.9765 113.1309 714.5294ZM482.7582 585.5454L482.0876 585.2101 481.0816 585.3219 480.0757 585.6572 479.1815 586.2161 478.6227 585.6572 477.1696 584.9866 476.499 584.316 476.9461 582.6394 477.2814 581.857 477.8403 581.4099 477.7285 581.0746 477.3932 580.2922 478.7344 580.2922 482.87 581.7452 484.2112 582.6394 483.9877 583.1982 483.8759 583.6453 484.2112 584.316 483.6524 584.6513 482.7582 585.5454ZM111.119 554.6966L109.5542 555.8143 109.5542 558.2733 109.2189 560.1734 106.76 560.0616 107.3188 559.2792 107.5424 558.385 107.6541 557.6026 107.6541 556.7085 108.1012 556.0378 108.8836 555.1437 110.1131 554.026 111.119 553.5789 111.2308 552.5729 111.119 551.3435 111.2308 550.4493 111.6779 550.3375 112.9074 550.5611 113.1309 550.2257 113.2427 549.7787 113.578 549.3316 114.4722 548.6609 114.4722 549.3316 114.5839 549.8904 114.8075 550.4493 115.4781 551.1199 115.7017 552.1259 115.4781 553.2436 114.8075 554.026 111.119 554.6966ZM210.5954 598.0638L212.3837 599.8521 212.8308 600.411 212.8308 601.1934 212.0484 602.7582 211.8249 603.5406 211.6013 605.4407 211.0425 606.782 209.5894 609.2409 208.5835 612.3705 207.6893 613.4882 206.3481 613.9353 205.3421 614.4942 204.5597 615.6119 203.442 618.0708 202.5479 619.0768 200.9831 620.5298 200.2007 621.6475 199.6418 623.3241 199.53 624.6653 199.8653 628.242 199.9771 629.0244 201.5419 633.4953 202.2125 634.613 203.2185 635.0601 203.6656 635.5072 205.2304 637.6308 206.5716 638.7485 206.4598 639.978 204.1127 646.4607 203.6656 649.255 204.3362 651.4904 204.6715 651.2669 205.1186 650.9316 205.5657 651.0433 205.6774 651.4904 205.4539 652.3846 205.0068 652.4964 204.5597 652.4964 204.3362 652.7199 203.7773 653.8376 203.442 654.9553 203.442 655.9613 203.8891 656.8554 203.442 656.8554 203.442 657.4143 203.6656 657.5261 204.0009 657.8614 204.3362 657.9732 204.3362 658.532 203.442 659.538 202.8832 661.3263 202.5479 663.4499 202.4361 665.5736 202.5479 666.6913 202.8832 668.815 202.9949 669.9327 202.7714 670.8268 202.2125 672.2799 202.1008 673.5094 201.8772 673.9564 201.6537 674.6271 201.3184 675.5212 201.2066 676.6389 201.6537 680.4392 201.4301 682.7864 199.8653 688.3749 200.8713 689.8279 200.536 692.5105 198.8594 697.0931 198.077 700.7815 197.9652 702.011 198.1888 703.2405 198.7476 704.0229 200.2007 705.2524 200.2007 705.6994 198.4123 706.3701 196.7358 708.382 195.8416 710.7292 196.1769 712.741 195.7298 713.5234 195.9534 713.9705 196.4004 714.4176 196.624 715.0882 196.5122 715.6471 195.8416 717.4354 195.7298 718.2178 195.171 719.0002 193.9415 719.5591 192.9355 720.3415 192.6002 722.018 192.1531 721.6827 191.8178 721.4592 191.9296 721.0121 192.1531 720.3415 191.1472 719.5591 190.1413 719.4473 189.1353 719.6708 188.1294 720.3415 187.6823 720.3415 187.347 719.5591 186.7881 719.112 185.4469 718.5531 183.7703 716.5413 183.3232 716.2059 182.7644 715.8706 181.1996 714.1941 180.6407 713.8587 179.9701 713.747 179.0759 713.2999 178.2935 712.741 177.7347 712.1822 177.2876 712.741 176.3934 712.1822 175.1639 711.8469 172.8167 711.6233 171.5872 712.1822 170.4695 713.2999 169.6871 714.5294 169.4636 715.0882 167.5635 714.4176 166.1105 712.9646 163.4279 709.835 162.7573 710.2821 162.3102 709.9468 161.7514 709.1644 161.1925 708.7173 160.1866 708.4937 159.516 708.4937 159.4042 708.829 160.2983 709.1644 160.2983 709.835 159.963 710.5056 160.4101 710.9527 160.969 711.1762 161.0807 711.6233 161.1925 711.6233 161.8631 711.7351 163.5397 711.3998 163.875 711.8469 163.875 712.5175 163.7633 712.8528 161.1925 715.7589 160.2983 716.8766 159.8513 718.5531 159.6277 720.3415 159.8513 722.018 160.1866 723.5828 160.7454 724.9241 161.0807 725.4829 161.5278 725.93 161.5278 726.4889 160.5219 728.2772 159.8513 731.1833 160.2983 731.1833 159.6277 731.7421 159.4042 731.6304 158.9571 731.1833 158.3982 732.301 151.692 739.119 151.2449 739.2308 150.5743 739.3426 150.2389 739.5661 149.5683 740.7956 149.0095 741.1309 148.2271 740.9074 147.3329 740.2367 145.8799 738.7837 145.8799 740.4603 144.8739 738.8955 143.3091 737.5542 141.5208 736.6601 140.0678 736.5483 138.6147 737.1072 136.9382 738.3366 135.8205 740.0132 136.044 741.6898 135.0381 742.2486 134.7028 741.6898 135.1498 740.125 134.591 739.6779 133.3615 739.5661 132.3556 739.3426 132.3556 738.7837 133.3615 737.3307 133.3615 735.207 132.5791 733.754 131.1261 734.2011 130.5672 729.7303 129.7848 726.0418 129.226 726.0418 128.7789 726.4889 127.2141 725.7065 126.0964 725.4829 126.4317 725.1476 126.9905 723.8064 126.0964 723.1358 124.7551 724.0299 124.6433 723.6946 124.4198 723.2475 124.0845 721.7945 123.5256 720.7886 122.855 720.3415 122.0726 720.9003 121.7373 720.0062 121.8491 717.8825 121.6255 716.8766 121.1784 716.2059 120.5078 715.8706 120.0607 715.9824 120.2843 716.8766 119.949 716.5413 119.6136 716.0942 119.3901 715.5353 119.3901 714.7529 119.1666 713.8587 118.8312 713.6352 118.3842 713.5234 117.9371 713.2999 117.49 712.0704 117.3782 711.3998 117.7135 710.7292 121.0667 706.9289 121.402 705.3641 120.2843 703.464 120.396 702.1228 118.1606 700.4462 117.6018 698.7696 117.8253 697.9872 119.0548 696.646 119.3901 695.9754 119.6136 694.7459 119.5019 693.9635 118.6077 691.7281 118.3842 691.3927 118.3842 691.0574 118.943 690.0515 120.7314 687.8161 121.6255 686.363 122.6315 683.5688 123.4139 682.004 122.9668 681.3333 123.5256 680.2156 123.3021 678.5391 122.5197 674.9624 122.2961 671.1622 122.0726 670.268 122.0726 669.7091 122.2961 668.815 122.1844 666.6913 122.2961 666.1325 123.1903 666.356 123.7492 666.8031 125.8728 670.1562 126.9905 671.2739 128.3318 671.8328 130.1201 671.3857 126.767 670.3798 126.0964 669.7091 126.3199 668.2561 127.1023 666.8031 128.22 665.4618 128.7789 664.4559 128.3318 664.4559 128.1083 665.0147 127.8847 665.4618 127.4376 665.9089 126.9905 666.1325 127.7729 665.3501 128.5553 663.897 129.0024 662.3322 129.226 661.2145 129.4495 658.4202 129.3377 657.5261 128.7789 656.2966 127.3259 654.5083 125.4257 653.3905 123.4139 653.2788 121.6255 654.5083 122.0726 655.0671 122.2961 654.62 122.5197 654.5083 122.9668 654.5083 123.4139 654.5083 122.6315 655.0671 122.1844 655.8495 121.6255 657.9732 121.1784 657.4143 121.7373 656.4084 121.2902 655.7377 120.5078 655.0671 119.5019 654.1729 119.2783 654.1729 119.1666 653.9494 118.943 653.3905 118.8312 652.7199 119.0548 652.1611 119.2783 651.6022 119.3901 651.0433 118.8312 647.9138 118.943 646.9078 119.7254 645.0077 119.7254 644.0018 118.943 642.7723 117.9371 643.3311 117.8253 642.9958 118.2724 642.3252 119.3901 641.6546 119.6136 641.6546 121.5138 641.5428 122.7432 641.0957 123.1903 640.9839 123.7492 640.5369 124.4198 639.5309 124.9787 638.1897 125.2022 636.9602 124.8669 635.7307 123.7492 633.4953 123.4139 631.9305 123.1903 627.3479 124.308 623.4359 124.308 620.8651 123.4139 618.8532 121.9608 617.4002 120.2843 616.2825 119.8372 616.8414 118.3842 615.7237 118.1606 613.9353 118.943 609.4645 118.6077 607.8997 117.9371 605.6642 117.0429 603.6524 116.037 602.7582 114.8075 601.9758 114.2486 600.2992 114.0251 598.1756 113.4662 596.1637 112.125 594.7107 110.5602 594.8224 107.207 596.8343 105.8658 596.1637 106.5364 594.4871 107.207 593.2576 105.754 592.8106 104.6363 593.7047 103.9657 595.4931 103.6304 597.3932 103.0715 596.2755 102.7362 594.9342 102.2891 592.6988 102.2891 592.1399 103.4068 591.4693 104.4128 590.6869 105.1952 589.4574 105.4187 587.3338 105.6422 587.3338 105.8658 586.8867 105.9776 586.4396 105.6422 586.2161 104.7481 586.1043 104.4128 585.8807 104.0774 585.5454 103.0715 583.9806 102.6244 583.4218 101.842 583.1982 106.76 571.3505 107.207 570.0092 107.207 568.3327 106.76 567.1032 105.6422 566.5443 104.7481 565.8737 104.9716 564.4207 105.754 562.8559 106.3129 561.8499 106.76 561.8499 106.9835 562.8559 107.4306 562.9677 108.1012 562.9677 108.5483 563.6383 108.5483 564.3089 108.213 565.3149 108.1012 566.4326 108.3248 567.4385 111.2308 571.3505 113.3545 572.58 120.7314 573.6977 124.4198 574.7036 125.8728 574.9272 127.2141 574.7036 132.2438 572.4682 133.585 571.2387 134.591 569.8975 135.0381 568.668 139.5089 566.5443 141.1855 566.5443 142.3032 566.6561 143.1974 567.1032 146.9976 564.1971 148.1153 562.9677 150.4625 558.9439 151.2449 558.2733 151.1331 557.938 151.1331 557.8262 150.7978 557.6026 152.9215 556.8202 153.5921 556.4849 154.0392 555.9261 154.7098 554.3613 155.0451 554.026 155.9393 553.5789 157.057 552.4612 158.0629 551.2317 158.9571 549.108 160.1866 548.4374 164.7692 547.8785 165.6634 547.5432 167.4517 545.7549 167.8988 546.4255 168.9047 544.9725 169.3518 543.6312 169.24 540.0546 169.7989 538.4898 171.0284 537.8191 172.5932 537.3721 173.7109 536.8132 173.8227 537.5956 174.2697 538.0427 174.8286 538.1545 175.4992 537.9309 176.1699 539.0486 176.1699 542.0664 176.8405 542.7371 176.6169 542.29 176.5052 541.8429 176.6169 541.1723 176.8405 540.3899 177.2876 540.3899 177.6229 541.5076 177.5111 541.7311 177.2876 542.1782 177.2876 542.7371 178.2935 542.6253 178.6288 542.4018 179.0759 542.1782 179.4112 542.6253 180.4172 543.2959 180.6407 541.284 181.6466 541.6194 184.1056 543.9666 184.1056 543.2959 184.6645 543.6312 185.1116 543.8548 185.6704 543.9666 186.341 543.9666 186.341 544.5254 186.0057 544.749 185.7822 545.0843 185.6704 545.3078 185.4469 545.7549 186.1175 546.0902 186.5646 546.6491 187.0117 547.4315 187.6823 548.1021 187.2352 548.7727 187.2352 549.6669 187.6823 551.6788 188.3529 549.8904 188.8 549.2198 189.4706 548.6609 189.2471 548.3256 189.1353 547.9903 188.9118 547.655 188.5765 547.4315 189.3589 546.9844 190.1413 546.9844 191.0354 547.3197 191.9296 547.4315 192.2649 547.2079 192.6002 546.7608 192.9355 546.6491 193.4944 547.4315 193.0473 548.1021 193.6062 548.5492 194.0532 548.9963 194.3886 549.108 194.8356 548.6609 195.2827 548.6609 195.3945 549.108 195.5063 549.108 195.7298 549.3316 195.618 550.3375 195.5063 551.2317 195.0592 552.0141 194.3886 552.9083 194.2768 552.4612 194.0532 552.1259 193.9415 551.6788 192.8238 556.932 192.1531 558.2733 193.4944 558.2733 193.0473 557.0438 194.2768 556.4849 194.9474 556.7085 195.171 557.4909 194.8356 558.8321 195.171 558.8321 195.2827 558.7204 195.171 558.4968 195.2827 558.2733 195.7298 558.7204 195.8416 558.8321 196.1769 558.8321 197.1828 557.8262 198.9712 557.938 200.8713 558.6086 202.1008 559.391 201.3184 560.3969 200.3124 560.2851 199.1947 559.7263 198.1888 559.391 197.1828 560.0616 196.8475 561.4029 196.5122 562.9677 195.7298 564.0854 196.0651 565.3149 195.171 565.6502 192.1531 565.3149 192.1531 565.7619 192.2649 565.8737 191.7061 565.9855 192.1531 566.9914 192.712 566.9914 193.2708 566.6561 193.9415 566.5443 194.6121 566.8796 195.8416 567.662 196.1769 567.7738 197.5182 567.4385 198.4123 566.7679 199.4183 566.3208 200.7595 566.5443 200.4242 567.3267 199.9771 567.8856 199.53 568.3327 198.8594 568.3327 198.8594 568.8915 201.2066 570.121 201.6537 570.4563 201.7655 571.4623 202.1008 572.0211 202.6596 571.9094 203.442 571.3505 203.8891 572.1329 204.448 572.6917 205.2304 572.9153 206.1245 573.1388 203.8891 573.9212 203.2185 574.4801 203.8891 575.486 203.8891 576.0449 202.8832 575.8213 201.989 576.2684 201.7655 577.0508 202.4361 577.8332 202.5479 576.9391 202.8832 577.945 204.7833 580.5157 205.2304 581.7452 205.4539 583.31 207.4658 587.3338 207.6893 588.4515 208.0246 593.8165 208.2482 594.7107 208.5835 595.3813 208.9188 595.7166 209.9248 595.8284 210.1483 596.3872 210.1483 597.1696 210.5954 598.0638ZM282.9113 437.8957L284.029 438.9017 284.9232 440.9135 285.1468 442.0312 285.8174 442.9254 284.6997 443.9314 283.8055 443.3725 281.3465 440.8018 280.6759 439.684 281.5701 439.0134 281.5701 437.8957 282.0172 437.4486 282.9113 437.8957ZM253.292 397.0992L252.7331 397.6581 252.3978 398.664 252.3978 399.67 252.8449 400.6759 252.3978 402.2407 251.7272 403.2466 250.833 403.9173 249.7153 404.3644 250.9448 404.9232 252.0625 406.3762 252.3978 408.0528 251.3919 409.2823 251.1683 408.3881 250.6095 408.3881 249.9388 408.3881 249.1564 408.0528 248.9329 407.4939 248.2623 405.9292 248.0387 405.5938 247.1446 405.035 246.3622 404.2526 245.468 404.2526 244.6856 406.1527 244.1267 404.6997 241.556 406.0409 240.2147 404.9232 239.8794 406.2645 239.5441 406.8233 239.2088 406.8233 233.8438 406.7116 232.3908 406.1527 231.1613 404.9232 230.826 402.576 231.4966 401.0112 232.8378 400.0053 234.5144 399.5582 235.9674 399.4464 236.6381 399.5582 238.0911 400.4524 238.8735 400.6759 240.103 400.7877 241.556 400.6759 241.556 400.2288 241.4442 400.2288 241.1089 400.0053 242.0031 399.4464 242.0031 398.7758 242.0031 398.664 243.1208 398.7758 245.5798 398.7758 245.2444 400.1171 246.0268 400.5641 246.921 400.5641 247.3681 400.3406 247.5916 399.5582 248.1505 399.1111 248.7094 398.664 249.1564 398.2169 249.8271 395.9815 250.3859 394.9756 251.1683 394.5285 251.8389 394.752 252.3978 395.3109 252.9567 396.2051 253.292 397.0992ZM213.725 377.3157L213.8367 377.5393 213.9485 377.7628 214.1721 377.9864 214.6191 379.2158 213.8367 381.0042 212.6073 382.4572 211.1542 382.569 210.0365 380.6689 211.4895 377.204 212.719 376.5333 213.725 377.3157ZM378.3639 163.1622L379.7052 161.3738 380.8229 160.5914 381.9406 160.815 383.5054 162.268 382.723 161.8209 381.8288 161.5974 379.9287 161.5974 376.352 168.5272 376.2403 167.9683 376.7991 166.2917 378.3639 163.1622ZM411.6717 989.1512L412.1188 989.1512 412.5659 989.5982 412.7894 990.4924 412.4541 990.716 411.4482 990.716 411.1129 990.4924 410.7776 989.9336 410.7776 989.4865 411.2246 989.2629 411.6717 989.1512ZM509.1362 769.9679L508.9127 768.9619 509.8068 768.6266 510.0304 769.6326 509.1362 769.9679ZM524.1135 766.3912L524.3371 767.2854 524.7842 767.7325 524.7842 768.0678 524.0018 768.1795 522.5487 767.7325 521.9899 766.6147 521.9899 765.6088 522.2134 765.497 523.3311 765.8323 524.1135 766.3912ZM431.9023 754.6552L433.02 754.6552 433.6906 755.1023 433.8024 755.4376 432.4612 756.6671 431.6788 756.8906 430.8964 756.5553 430.8964 755.8847 431.2317 755.2141 431.9023 754.6552ZM566.9219 746.8312L567.369 747.0548 567.5925 747.3901 567.4807 748.0607 567.1454 748.6196 567.0337 749.0667 566.6983 749.6255 566.2513 749.9608 565.4689 749.7373 564.2394 748.6196 564.2394 748.2843 564.6865 747.8372 565.2453 747.5019 565.5806 747.1666 565.8042 746.8312 566.2513 746.7195 566.9219 746.8312ZM448.3327 577.3861L448.668 576.9391 449.1151 576.9391 448.7798 577.8332 447.9974 578.2803 448.3327 577.3861ZM396.0238 1018.4352L396.0238 1018.547 396.1355 1019.1058 396.0238 1019.7765 395.3531 1020 394.7943 1019.8882 394.459 1019.6647 394.2354 1019.6647 391.6647 1018.547 390.4352 1018.2117 389.7646 1017.8763 390.3234 1017.4293 391.6647 1017.4293 392.4471 1017.6528 395.4649 1017.9881 396.0238 1018.0999 396.1355 1018.2117 396.0238 1018.4352ZM360.0334 817.2471L360.3688 817.9177 360.4805 818.7001 359.5864 818.7001 358.3569 817.9177 357.6862 816.8 357.2392 815.9058 357.6862 815.347 358.804 815.2352 359.4746 815.7941 360.0334 817.2471ZM189.6942 539.1604L190.0295 539.831 190.0295 540.1663 190.0295 540.837 189.4706 543.1842 189.6942 543.6312 189.6942 544.0783 189.4706 544.749 189.0235 544.6372 188.5765 543.9666 188.0176 543.5195 187.5705 543.743 187.2352 543.5195 188.0176 541.8429 187.6823 541.284 187.9058 540.5017 188.3529 539.2722 188.8 538.6015 189.2471 538.7133 189.6942 539.1604ZM186.8999 540.0546L187.1234 540.5017 187.1234 540.837 184.5527 541.3958 183.3232 541.0605 183.0997 540.3899 183.0997 539.6075 183.3232 539.2722 183.8821 539.0486 184.3292 538.7133 184.5527 538.1545 184.6645 537.3721 184.9998 537.2603 185.3351 537.1485 185.7822 536.8132 186.2293 536.925 186.6763 537.5956 186.7881 538.2662 186.7881 538.9369 186.7881 539.7193 186.8999 540.0546ZM243.6796 441.5842L244.2385 441.0253 244.9091 442.0312 244.6856 443.4843 243.4561 443.149 243.6796 441.5842ZM230.1553 419.3417L230.4906 419.7888 230.6024 420.0123 230.6024 420.3476 230.3789 421.0183 229.82 421.3536 228.9259 421.3536 228.0317 421.13 227.4728 420.5712 227.5846 419.9006 228.2552 419.677 228.9259 418.8946 229.3729 417.6651 229.7083 417.6651 229.9318 418.5593 230.1553 419.3417ZM376.9109 158.2442L378.0286 158.2442 379.1463 159.0266 379.0345 160.1443 378.3639 160.4796 377.358 161.1503 376.352 160.9267 376.0167 159.6972 376.9109 158.2442Z" />
</svg>