<?xml version="1.0" encoding="utf-8"?>
<svg xmlns="http://www.w3.org/2000/svg" viewBox="0 0 1021 645" style="stroke-width:0.25px;stroke-linejoin:round;stroke:#444;fill:#ddd" fill-rule="evenodd">
  <path class="JE" d="M693.646 49.2754L758.0262 112.9849 963.2381 215.7026 957.6495 280.6417 977.7683 308.0256 1001.4638 348.5986 1017 367.3761 979.2213 402.2487 961.8968 445.2806 957.3142 500.4956 957.6495 574.1528 946.4724 640.992 917.6354 640.2096 879.0744 611.8197 839.0603 594.7187 705.382 592.0362 631.3894 558.9519 530.4601 455.8989 492.6814 429.8562 453.4497 412.867 423.3833 412.867 388.1754 450.7574 354.7558 511.8963 319.7714 594.7187 282.8869 582.3121 228.4543 522.7381 183.187 503.737 170.7804 514.1317 81.9223 552.0221 37.4374 553.3634 68.5098 410.408 39.114 260.6347 1 131.0919 4.8002 49.2754 55.9914 30.8331 117.5773 49.2754 199.7292 94.7662 258.7443 90.5189 303.7881 75.8769 345.7023 48.1576 393.6521 4.008 427.9659 38.4336 522.7479 62.2408 571.9272 94.7662 601.5465 62.7997 628.9305 53.0756 693.646 49.2754Z" />
</svg>