<?xml version="1.0" encoding="utf-8"?>
<svg xmlns="http://www.w3.org/2000/svg" viewBox="0 0 1021 410" style="stroke-width:0.25px;stroke-linejoin:round;stroke:#444;fill:#ddd" fill-rule="evenodd">
  <path class="JM" d="M981.7921 255.0176L985.0334 262.8416 988.8337 271.7833 995.6517 283.5193 1004.3699 292.7963 1017 302.2968 1012.1938 306.2088 988.163 312.3562 971.2856 321.6332 961.5615 324.4275 953.2904 322.3039 956.5318 319.9567 957.873 318.2801 959.6614 312.3562 951.2785 315.374 943.7899 326.5512 935.7424 329.0101 928.4772 326.8865 920.0944 323.0862 911.5998 320.8508 897.6284 326.1041 861.0792 329.2337 835.3718 325.3217 831.5716 325.4334 828.1067 326.1041 824.3065 325.657 819.5003 322.3039 817.3767 317.9448 816.4825 312.2444 815.0295 307.4383 811.4528 305.3146 807.6526 304.1969 805.1936 301.4026 803.07 298.1613 800.1639 295.5905 786.1925 292.2374 782.7276 290.3373 775.5743 287.4312 765.9619 287.9901 749.0845 292.0139 741.9311 292.908 717.6768 292.0139 717.6768 288.6607 768.7562 285.6429 765.5149 282.5133 763.1677 280.2779 757.0202 278.8249 743.0488 278.7131 733.5483 278.8249 723.8242 273.1245 715.5531 267.6477 709.4057 264.7417 707.9527 269.7714 705.829 275.0246 700.0169 281.5074 698.2286 285.3076 692.193 284.5252 690.4046 288.1019 688.5045 299.279 680.2334 328.7866 674.086 337.5047 666.5974 342.3109 660.4499 342.3109 656.4262 340.5226 652.7377 337.9518 647.5963 335.9399 621.8889 335.9399 621.8889 332.3633 631.7248 329.0101 626.695 324.5393 620.4359 316.1564 615.5179 312.3562 609.9294 310.1208 596.5168 308.6678 584.3338 312.9151 573.9391 319.0625 566.2268 334.3751 564.4385 338.7342 568.0152 352.2585 564.5503 353.5998 558.7382 357.2882 555.2733 358.6295 556.5028 361.2002 557.2851 366.2299 558.4029 369.2477 553.4849 367.0123 548.4552 366.7888 543.6491 368.4653 539.1782 372.2656 547.3375 377.2953 555.9439 379.1954 564.9974 378.413 574.2744 375.6187 579.0805 393.9492 577.6275 402.332 566.2268 405.9087 556.6145 405.4616 547.8964 403.4497 539.29 399.3142 498.9406 363.1003 490.6695 352.5938 455.9087 332.3633 445.6257 328.563 434.7839 327.11 426.1776 330.6867 416.3417 337.2812 406.5058 338.1754 386.2752 332.3633 366.2682 328.8983 303.341 332.475 300.2114 331.9162 290.4873 325.3217 274.1688 317.1624 270.0332 314.0328 268.0213 310.2326 263.2152 297.7142 262.2092 293.8022 260.4209 290.6726 252.1498 287.7666 249.5791 285.6429 248.9085 275.36 249.6909 263.0651 246.7848 252.6704 234.9371 248.3113 202.747 248.0878 195.3701 245.2935 184.3047 219.6979 180.7281 214.4447 176.7043 211.6504 172.0099 209.3032 168.3215 208.2972 165.5272 205.7265 163.2917 199.8026 160.3857 188.2902 151.6675 170.5186 140.1551 164.0359 105.9531 164.8183 85.0519 161.3534 77.3397 161.2416 72.9806 165.2653 69.404 167.2772 66.2744 166.6066 54.8737 161.9122 53.756 161.2416 47.1615 160.1239 32.8548 155.5413 24.919 154.5353 16.7597 152.5234 8.824 147.2702 3.0119 139.6697 1 131.1751 3.5707 127.0396 10.3888 122.2334 13.6301 118.0979 14.9714 111.727 14.3008 96.9732 15.1949 92.7259 18.7716 86.9138 19.2187 83.2253 20.7835 81.3252 28.0486 80.7663 32.5195 77.7485 36.2079 72.0482 41.0141 68.1362 48.8381 70.7069 53.6442 56.8473 67.8392 43.6583 84.4931 38.1815 96.3408 47.3468 103.2706 39.1875 110.6475 38.9639 119.2539 42.2053 129.8722 44.2172 159.9386 40.5287 169.998 40.6405 175.0277 42.4288 178.6044 43.7701 183.7459 45.1113 188.9991 44.2172 193.6935 40.864 194.1406 37.7344 194.0288 33.9342 196.9349 28.9045 207.4414 15.3802 212.2475 10.9094 220.4068 7.1091 239.1844 4.0913 260.5327 4.8737 297.976 13.033 330.9485 20.2981 376.1041 21.1923 396.1111 26.1102 428.3012 28.4574 440.4843 31.4752 449.9848 37.2873 464.7386 33.4871 488.5459 33.4871 513.0238 36.2814 529.9012 40.6405 532.0249 42.7641 533.7014 48.9116 535.9369 50.9234 538.7311 50.9234 541.1901 49.8057 542.6431 48.2409 542.3078 47.3468 563.0972 50.9234 565.668 52.4882 573.492 59.418 575.9509 60.9828 591.04 61.5417 607.0233 58.8592 615.5179 57.2944 621.1065 58.7474 630.8306 63.33 636.3074 64.336 663.8031 63.1065 669.1681 60.3122 676.7685 59.418 682.916 59.8651 688.5045 60.8711 691.8576 65.1184 690.4046 70.2598 690.4046 76.8543 695.5461 81.6605 712.0882 92.0552 726.7303 100.5498 729.0774 105.356 733.4365 118.2097 736.2308 122.457 740.5899 125.1395 749.0845 127.4867 773.1153 129.3868 781.1628 131.1751 787.9809 134.7518 796.8108 143.8053 803.6288 148.1644 811.4528 150.6233 826.8772 149.6174 835.0365 155.4295 837.6073 156.1001 839.9545 158.3355 842.7487 160.3474 846.549 161.2416 881.5333 161.2416 883.8805 162.6946 887.569 169.7362 889.2455 171.8598 923.4475 178.3426 941.2191 184.7135 943.4546 194.8847 956.6436 207.6266 966.9265 222.2686 981.7921 255.0176Z" />
</svg>