<?xml version="1.0" encoding="utf-8"?>
<svg xmlns="http://www.w3.org/2000/svg" viewBox="0 0 907 1024" style="stroke-width:0.25px;stroke-linejoin:round;stroke:#444;fill:#ddd" fill-rule="evenodd">
  <path class="JO" d="M128.1989 247.8847L127.4165 246.4317 126.4106 245.314 125.8517 244.5316 124.9575 241.8491 126.9694 241.402 127.8636 240.7314 127.64 239.7254 126.4106 238.3842 126.4106 236.9311 127.8636 236.9311 127.5283 235.8134 127.193 235.5899 126.8576 235.7017 126.4106 235.2546 129.2048 233.3545 127.8636 231.6779 129.3166 231.119 130.6579 230.2249 130.6579 228.3248 129.6519 228.213 129.0931 227.8777 128.646 227.4306 127.8636 226.8717 128.3107 225.1952 129.0931 223.5186 130.3226 222.1773 132.2227 221.6185 132.2227 220.0537 130.2108 218.0418 129.7637 217.0359 128.3107 214.8004 127.4165 214.8004 126.4106 214.9122 126.4106 213.2356 129.2048 213.2356 128.646 211.6708 127.8636 206.5294 129.2048 208.2059 130.099 205.5234 130.6579 204.6293 130.8814 205.6352 130.9932 206.1941 131.3285 205.9705 132.2227 204.6293 130.9932 201.6114 130.3226 195.2405 129.2048 193.1168 129.2048 191.2167 130.6579 191.2167 130.6579 189.6519 128.8695 188.646 128.0871 186.8576 128.0871 184.8458 128.646 184.0634 130.099 183.3927 131.8873 181.7162 135.0169 177.5806 138.8172 174.7864 138.9289 174.7864 143.8469 175.457 144.6293 175.0099 147.0882 173.6686 154.018 167.5212 165.4187 160.2561 168.9954 159.3619 170.3366 158.6913 171.5661 158.4678 172.6838 158.5795 173.4662 159.2502 173.4662 159.3619 175.3663 161.8209 197.7206 166.9624 199.7325 168.1919 203.3091 171.7685 204.3151 172.1039 206.9976 172.1039 207.78 172.5509 208.1153 174.2275 207.78 175.7923 207.1094 176.7982 206.4387 176.6865 208.2271 179.0337 210.1272 180.822 212.2508 181.4926 215.2686 180.9338 220.0748 181.3809 221.0807 184.1751 220.4101 188.3107 220.6337 193.0051 222.5338 197.1406 231.9226 211.3355 233.0403 214.2416 233.152 215.2475 233.8227 215.4711 236.3934 215.5828 239.2994 215.6946 247.0117 214.5769 248.3529 214.6887 250.4766 215.5828 251.7061 215.8064 252.712 215.3593 255.0592 213.1239 256.1769 212.7886 258.4123 214.018 265.2304 220.8361 278.5311 230.1131 296.8616 247.4376 299.8794 249.226 304.015 250.4554 315.6392 251.6849 318.9923 253.8086 326.5927 254.7028 354.9826 258.1677 362.4713 263.868 366.1597 261.7443 370.6306 261.8561 383.9314 265.4328 386.8374 265.5446 389.4081 264.6504 422.8277 241.7373 454.5707 220.9479 454.6825 220.8361 477.5956 206.1941 513.1388 183.281 529.5692 172.7745 548.6821 160.4796 584.3371 137.5666 619.8803 114.6535 646.2583 97.5525 682.4722 74.7512 700.0202 63.6858 744.5052 35.6312 795.3611 4 804.9734 39.4315 813.5798 71.1745 820.7331 97.5525 830.2337 132.6486 840.0695 168.8625 853.9292 220.389 837.9459 225.4187 837.7223 225.5305 837.6106 225.754 837.7223 225.9776 837.9459 226.4246 848.1171 261.7443 849.6818 265.4328 851.6937 266.6623 891.0372 255.7087 895.2845 258.2794 898.4141 265.7681 902.7732 282.3102 897.4081 290.1342 872.4832 311.4825 872.4832 313.3826 870.3595 314.0532 866.3358 317.0711 841.7461 340.543 834.481 343.6726 810.8972 350.4906 764.2887 364.1267 717.5683 377.651 670.9597 391.1754 631.7281 402.576 624.2394 404.6997 585.0077 416.5474 572.8246 420.2359 521.4099 435.6603 469.9952 451.0847 426.5162 464.1619 418.5804 466.5091 445.5173 495.905 472.5659 525.3008 473.013 525.7479 499.6145 554.6966 526.5514 583.9806 527.222 584.763 527.8926 585.5454 528.5633 586.3278 529.2339 587.1102 551.9234 614.0471 574.7248 640.8722 597.5261 667.6972 620.3274 694.5223 630.6103 706.5936 630.6103 706.8172 630.6103 706.9289 630.3868 706.9289 629.0455 707.8231 613.8447 716.3177 588.6961 730.5127 566.1184 743.2546 561.3122 747.2783 558.6297 751.5256 552.5941 766.503 545.1054 784.7217 538.2873 801.3756 529.0103 823.9534 524.5395 827.9771 500.0616 833.0068 472.3424 838.8189 442.723 845.0781 412.7683 851.3373 394.3261 855.1375 376.3309 858.826 370.6306 861.732 365.7127 867.097 354.2002 886.657 344.6997 902.8638 331.7342 924.8827 318.4334 947.4605 302.3384 960.7613 278.3076 980.7683 256.2887 998.987 233.8227 1017.6528 228.4576 1019.7765 222.7573 1020 201.1855 1016.3116 177.2664 1012.176 165.4187 1010.1641 140.9408 1005.8051 110.092 1000.5518 81.255 995.5221 48.9531 989.9336 24.2517 985.5745 1.2268 981.5507 4.0211 979.6506 5.3624 957.967 6.8154 951.7078 11.2862 941.9837 11.1745 938.1835 6.8154 933.8244 4.0211 933.8244 3.7976 933.042 3.7976 932.3714 3.574 932.0361 2.5681 932.1479 3.4623 925.6651 4.9153 920.4119 7.7096 915.941 9.7215 909.9054 10.7274 896.4928 12.2922 890.569 21.9045 864.4145 22.7987 859.6084 23.0222 844.9663 24.587 836.9188 25.3694 834.7952 26.3754 833.0068 27.1578 830.8832 27.2695 827.9771 29.7285 818.4766 38.5584 805.1758 41.9116 797.1283 41.9116 789.5278 37.6642 774.774 37.776 767.956 39.229 763.8205 41.2409 751.3021 42.4704 748.2843 43.8117 745.8253 44.9294 743.2546 45.4882 739.9014 44.8176 736.4365 41.9116 731.6304 40.7938 729.0596 40.7938 723.3593 44.4823 713.5234 45.4882 707.8231 54.4299 678.3155 66.5012 653.5023 68.1778 647.6902 69.0719 641.6546 69.8543 638.8603 71.1956 635.9542 72.7604 634.0541 76.3371 630.9245 77.4548 628.5773 78.2372 623.2123 78.1254 617.8473 78.6843 612.3705 81.255 606.8937 83.8257 604.4348 89.4143 599.0697 91.7615 594.5989 91.7615 586.9985 93.1028 579.9569 102.8268 560.6205 103.8328 553.6906 102.3798 547.0961 99.2502 541.0605 97.0147 536.1426 95.0029 529.8834 93.8851 523.2889 96.5677 517.365 99.4737 512.2235 99.809 506.9703 98.2442 505.2937 102.0444 498.2521 105.7329 488.4163 106.6271 482.9395 106.6271 480.4805 106.9624 466.3974 106.8506 466.2856 106.9624 466.3974 107.0741 466.2856 107.0741 466.062 106.9624 465.7267 108.1919 447.6198 111.4332 429.96 116.1276 419.1182 121.2691 407.0469 127.8636 399.67 123.5045 386.481 123.5045 384.6926 125.7399 381.563 120.7102 362.0031 121.2691 360.103 122.6103 359.3206 123.9516 358.8735 124.9575 357.7558 125.0693 355.8557 123.8398 353.1732 123.5045 351.0495 123.3927 347.8081 122.9457 345.1256 120.7102 339.4253 120.2631 328.1364 121.4926 323.8891 124.9575 320.9831 122.7221 317.9652 122.8339 315.171 126.4106 309.1353 125.2928 307.5705 125.2928 306.2293 126.187 305.1116 127.8636 304.3292 127.8636 302.429 126.9694 299.523 127.9754 295.611 130.6579 284.0986 127.8636 284.0986 128.1989 282.6455 128.7578 281.7514 129.6519 281.0807 130.6579 280.5219 128.9813 277.6158 128.1989 273.0332 128.3107 268.3388 129.2048 265.4328 127.3047 261.7443 127.5283 254.4792 126.4106 252.0202 126.4106 250.3437 127.8636 250.3437 127.8636 252.0202 129.2048 252.0202 128.8695 249.7848 128.1989 247.8847Z" />
</svg>