<?xml version="1.0" encoding="utf-8"?>
<svg xmlns="http://www.w3.org/2000/svg" viewBox="0 0 1021 508" style="stroke-width:0.25px;stroke-linejoin:round;stroke:#444;fill:#ddd" fill-rule="evenodd">
  <path class="KG" d="M1012.7527 138.9316L1013.3116 140.8317 1013.5351 144.8554 1013.9822 146.8673 1014.9881 148.6557 1016.1058 150.2205 1017 152.0088 1017 154.356 1014.6528 158.268 1010.0702 159.8328 986.9336 159.6092 982.2392 160.8387 978.886 162.2917 977.3212 163.4095 976.0917 165.1978 975.3094 167.4332 974.1916 172.0158 973.4092 174.2513 970.0561 177.3809 965.9206 177.9397 961.5615 177.8279 957.5377 178.8339 952.2845 182.5223 946.3606 184.8695 939.0955 189.8992 937.1954 190.5699 935.0717 190.6816 929.2596 188.7815 927.2477 189.2286 925.5712 190.3463 921.2121 194.4818 919.312 195.9349 917.3001 196.7173 913.0528 197.835 909.3644 199.288 898.9696 206.7767 893.4928 207.7826 891.8163 208.6768 883.4334 214.4889 871.0268 219.5186 869.6856 220.1892 868.5679 221.3069 867.7855 222.6482 867.0031 225.666 866.1089 226.8955 862.8675 228.3485 856.1613 229.8015 847.5549 236.396 843.8664 238.1844 842.3017 239.3021 840.7369 241.2022 840.4015 243.3259 841.9663 248.132 842.1899 250.2557 841.2957 252.3793 839.6191 253.8323 835.9307 256.0678 834.4777 257.5208 832.1305 260.9857 830.4539 264.3388 827.8832 269.145 826.6537 271.0451 825.3124 272.6099 816.0354 280.6574 814.3589 281.2163 812.4587 280.9927 808.8821 279.4279 796.8108 277.6396 793.5694 277.7514 790.4398 278.7573 778.2568 285.3518 776.9155 285.7989 775.2389 286.0224 770.4328 285.6871 763.3912 287.8108 760.7087 287.699 758.0262 286.246 752.7729 284.0106 747.6315 282.8928 744.7254 283.1164 739.3604 284.793 727.9597 284.0106 725.1655 283.1164 720.2475 280.5457 717.6768 280.0986 707.8409 282.334 704.1525 283.8988 701.8053 286.246 700.464 288.1461 697.1109 290.7168 695.5461 292.1699 694.6519 294.5171 694.9872 296.8642 695.6579 299.2114 695.8814 301.6704 695.099 304.1294 693.646 305.5824 690.0693 307.7061 686.9397 310.3886 684.5925 314.077 683.0277 318.4361 682.3571 330.7309 682.0218 332.7428 681.0158 334.5311 676.0979 338.3314 673.8625 342.0198 670.8447 350.5144 668.721 353.9793 666.262 356.4383 658.2145 361.8033 655.3085 364.5976 653.7437 365.1564 652.4024 363.7034 650.9494 356.2147 650.0552 354.2029 647.3727 353.4205 644.6902 356.3265 641.8959 360.2385 638.8781 362.2504 637.0898 361.8033 633.6249 359.9032 631.9483 359.3443 629.6011 359.5679 621.4418 363.4799 620.2123 365.2682 619.2064 367.2801 617.6416 369.292 615.8532 370.5215 613.8414 370.9685 611.8295 370.8568 605.9056 369.4037 603.8937 369.1802 601.8818 369.4037 597.6345 371.3039 595.6227 371.4156 594.0579 369.7391 593.2755 367.6154 591.7107 362.3622 591.5989 360.015 592.2695 357.6678 593.499 355.9912 594.3932 354.4264 594.1696 352.3028 593.2755 350.9615 590.7047 348.5025 589.6988 346.9377 589.0282 344.7023 588.5811 337.8843 586.9045 332.631 584.3338 330.1721 580.9806 330.0603 577.1804 332.4075 557.0616 348.6143 556.0557 349.1732 555.0497 349.3967 553.932 349.8438 553.3732 350.8497 553.0378 351.9674 552.3672 352.9734 550.5789 353.3087 548.9023 352.5263 547.2257 351.2968 545.4374 350.6262 543.202 350.9615 538.7311 353.0851 536.3839 353.4205 533.0308 352.6381 529.6777 351.185 521.6301 345.5965 519.5065 344.7023 517.6064 344.8141 517.2711 345.2612 516.1534 346.9377 515.818 348.279 515.7063 348.6143 515.0356 350.8497 513.8062 353.4205 513.1355 355.8794 513.8062 357.6678 518.1652 361.6915 519.2829 363.3681 520.0653 367.2801 517.1593 368.0625 509.4471 366.0506 507.4352 365.9388 505.6469 366.6095 500.9525 371.4156 499.3877 372.6451 495.811 374.5452 492.7932 376.8924 484.5221 385.8341 474.6862 393.8816 471.4449 395.3347 468.5388 395.7817 465.7446 395.3347 462.615 394.1052 459.3736 393.3228 456.1322 393.7699 452.8909 395.1111 449.9848 397.123 447.0788 398.4642 441.0431 399.2466 438.4724 401.3703 437.5782 402.5998 436.7958 404.0528 436.237 405.6176 436.0134 407.4059 435.4546 410.2002 434.0015 412.2121 432.1014 414.1122 430.8719 416.4594 430.0895 421.3773 429.6425 422.8304 428.9718 423.8363 426.2893 426.0717 425.1716 427.7483 424.3892 429.8719 423.9421 432.3309 424.0539 434.5663 424.9481 436.9135 426.1776 437.8077 427.7424 438.143 429.5307 439.2607 430.8719 441.3844 431.4308 443.8433 431.8779 448.9848 433.8898 455.3558 433.4427 456.697 431.4308 457.9265 429.866 459.156 428.7483 460.9443 427.7424 463.6268 426.6246 467.7624 425.7305 469.4389 424.1657 470.3331 406.8411 472.6803 404.1586 471.3391 395.7758 470.3331 392.4227 470.6684 382.3633 473.2392 380.1278 474.804 379.4572 476.5923 379.2337 478.2689 378.563 479.4983 373.3098 480.5043 364.0328 483.7457 361.1267 483.9692 357.8854 483.075 356.2088 482.2926 355.0911 481.9573 353.9734 482.1809 349.3908 484.5281 348.0495 484.6398 346.3729 484.081 340.6726 482.8515 338.7725 482.7397 334.7487 483.6339 333.4075 483.6339 316.3065 479.163 314.8535 479.0513 313.1769 479.6101 312.2827 480.3925 310.4944 482.6279 309.4884 483.2986 307.9237 483.2986 305.6882 481.7338 304.2352 481.2867 303.2293 481.7338 300.3232 484.8634 298.8702 485.0869 297.3054 484.9751 294.2876 484.1927 292.611 484.3045 289.2579 486.0928 287.246 486.3164 285.5694 486.8752 284.4517 488.7754 282.3281 495.1463 278.5278 503.4174 277.5219 503.5292 276.516 502.0761 275.7336 500.176 275.51 499.0583 275.3982 498.1641 275.1747 497.3817 273.2746 496.3758 271.8216 495.2581 271.0392 494.811 267.1272 494.1404 265.1153 493.358 264.3329 491.5696 264.2211 488.9989 263.6623 485.9811 262.6563 483.4103 260.9798 482.1809 259.3032 482.4044 256.0618 484.1927 252.7087 484.8634 251.1439 485.6458 241.9787 492.1285 238.6255 493.5815 235.2724 493.9168 233.484 493.358 231.8075 492.1285 230.4662 490.2284 229.7956 487.8812 230.0191 485.4222 230.9133 483.8574 232.1428 482.6279 233.2605 480.8396 233.5958 478.4924 233.3723 475.3628 232.4781 472.6803 231.0251 471.3391 229.2367 471.3391 219.848 473.3509 215.3771 473.1274 211.5769 471.4508 209.6768 467.2035 210.4592 465.4152 212.8064 461.9503 213.2535 460.1619 212.6946 458.2618 211.3534 456.4735 211.2416 456.3617 209.7886 455.0205 206.659 453.1204 204.9824 453.2321 201.741 454.7969 199.1703 455.244 198.2761 455.5793 197.6055 456.0264 196.376 457.3677 195.7054 457.9265 192.464 459.7149 191.2345 460.609 188.3285 464.0739 187.3226 464.7446 186.2048 464.7446 180.9516 463.7386 177.0396 463.9622 173.1276 464.9681 170.1098 466.98 168.2097 470.3331 166.8684 474.2451 165.1919 477.4865 162.174 479.0513 159.7151 478.3806 157.4796 476.9276 155.4678 475.9217 153.6794 476.8158 152.5617 478.0453 151.7793 478.3806 150.9969 478.2689 149.5439 478.2689 148.538 478.6042 145.6319 480.169 143.1729 480.5043 140.3787 480.0572 137.9197 478.6042 136.4667 476.1452 136.5784 474.6922 137.0255 473.1274 137.2491 471.4508 136.6902 469.7743 135.796 468.9919 133.6724 468.0977 132.6664 467.2035 132.5547 467.0917 130.7663 461.3914 129.5369 458.9325 127.3014 457.2559 125.6249 457.0323 122.2717 457.5912 120.7069 457.4794 119.4774 456.8088 117.4656 454.9087 116.1243 454.4616 114.5595 454.5734 111.6535 455.6911 110.0887 456.0264 109.1945 456.3617 108.6356 457.0323 108.1886 457.703 107.6297 458.0383 106.7355 458.0383 104.7237 457.4794 103.8295 457.3677 102.6 457.8147 94.4407 463.8504 92.7641 464.1857 91.1993 463.6268 91.0876 461.9503 91.9817 457.703 91.9817 455.5793 91.5347 453.3439 90.7523 452.2262 89.2992 453.3439 86.7285 458.8207 85.9461 460.0502 84.3813 460.4972 82.9283 459.9384 79.7987 458.1501 77.8986 457.703 75.8867 457.703 73.9866 458.2618 72.4218 459.7149 71.0805 461.7267 70.2981 462.3974 67.5039 461.1679 63.7036 460.7208 56.5503 462.1738 52.9736 461.0561 49.1734 458.8207 45.4849 457.703 41.7965 457.2559 33.749 457.703 32.1842 458.3736 29.0546 461.0561 27.4898 462.062 25.8132 462.6209 24.0249 462.8444 22.013 462.8444 18.101 463.5151 16.2009 462.8444 13.9655 460.4972 13.4066 460.1619 12.5124 460.609 12.1771 461.3914 11.9536 462.2856 11.3947 463.1798 7.818 464.6328 6.4768 461.7267 6.9239 447.5318 6.5886 445.2964 5.9179 443.2845 4.5767 441.6079 3.0119 440.2667 1.5589 438.7019 1 436.4664 1.2235 431.7721 2.2295 427.1894 6.4768 414.3358 8.2651 410.312 8.7122 409.1943 8.7122 408.4119 9.0475 408.1883 10.277 408.4119 13.0713 411.4297 17.4304 419.0301 26.2603 415.9006 26.1485 414.3358 24.0249 410.4238 24.1366 409.6414 24.0249 408.859 23.9131 408.0766 23.466 407.4059 22.7954 403.4939 23.3542 400.4761 24.8073 397.6818 26.7074 394.8876 27.0427 394.1052 27.378 392.0933 27.8251 391.5344 28.6075 391.758 29.5017 393.6581 30.1723 394.2169 31.6253 394.3287 33.0783 394.1052 69.404 381.1397 72.6453 381.475 85.7226 390.0814 87.7344 390.752 92.3171 390.4167 94.4407 390.6403 96.4526 391.6462 97.7938 393.0992 98.9116 394.7758 100.4763 396.3406 102.0411 397.2348 105.2825 397.6818 108.8592 399.2466 116.1243 400.3644 118.4715 401.035 120.5952 402.488 121.6011 404.7234 120.1481 407.2942 118.695 408.4119 117.242 409.1943 115.789 410.2002 114.5595 411.8768 113.7771 414.1122 113.4418 416.2359 114.2242 417.8007 116.1243 418.4713 117.0185 417.4653 117.6891 414.7828 118.3597 413.7769 119.4774 413.218 123.3894 413.1063 125.2895 412.3239 127.1897 411.2062 128.7545 409.5296 129.9839 407.2942 130.7663 403.1586 130.6546 399.4702 131.1017 396.3406 133.5606 394.1052 139.4845 392.0933 140.714 391.3109 144.2906 388.1813 144.8495 387.3989 145.1848 387.1754 145.7437 387.0636 146.1908 387.2871 146.4143 387.6224 146.5261 387.846 148.2026 386.9518 148.8733 386.393 150.1028 385.9459 155.0207 387.0636 157.815 386.0576 160.9446 383.7105 162.3976 380.8044 160.4975 377.8983 163.8506 374.4334 169.2156 373.5393 179.9457 375.1041 182.8517 374.7688 184.193 372.7569 184.9754 370.0744 186.4284 367.8389 187.6579 367.5036 188.6638 368.286 189.4462 369.5155 190.4521 370.6332 191.6816 371.1921 193.2464 371.3039 196.1525 370.9685 197.9408 371.1921 200.8469 373.8746 204.9824 375.2158 205.8766 376.5571 206.5472 378.3454 208.2238 380.022 210.2356 381.2515 212.3593 382.0339 216.7184 382.9281 218.9538 382.7045 219.7362 381.3633 219.9597 379.2396 220.5186 376.8924 222.1952 375.4394 223.8717 376.7806 225.1012 379.5749 225.7718 382.0339 225.7718 386.9518 226.3307 388.7402 228.2308 389.6343 229.4603 389.1872 234.2664 386.393 235.8312 384.9399 236.8372 383.2634 238.5138 379.4631 241.4198 376.5571 244.7729 376.3336 248.3496 377.2277 252.0381 377.563 253.044 377.2277 253.6029 377.116 254.2735 377.3395 255.3912 377.7866 256.8442 378.0101 258.1855 377.6748 258.7443 376.3336 258.2972 375.4394 257.6266 374.9923 256.956 374.5452 254.2735 373.3157 252.5969 372.0862 251.9263 370.2979 252.4851 368.5096 260.4209 364.4858 262.8799 362.0268 264.2211 358.6737 264.78 356.4383 265.5624 355.2088 271.7098 351.7439 273.2746 351.4086 277.5219 351.185 278.1925 351.0733 279.8691 351.2968 280.6515 351.9674 280.7633 351.9674 280.3162 353.1969 278.9749 353.644 277.4101 353.8675 276.4042 354.0911 275.9571 355.2088 277.0748 355.6559 281.3221 355.4323 282.6634 355.9912 288.0284 359.1208 290.5991 360.1267 292.7228 359.6796 294.6229 357.1089 295.6288 353.9793 295.7406 351.185 295.1817 349.732 294.7347 348.7261 290.7109 345.82 289.9285 344.8141 289.9285 344.7023 289.9285 343.3611 290.4873 341.4609 290.4873 339.2255 288.5872 335.8724 288.8108 333.8605 291.6051 332.631 294.6229 335.3135 297.6407 338.8902 300.3232 340.2315 303.8999 340.6785 310.3826 345.1494 314.0711 344.9259 315.5241 343.8081 316.3065 342.3551 316.7536 340.6785 316.8653 338.8902 317.6477 336.8783 319.3243 336.8783 322.6774 338.4431 325.36 337.1019 326.4777 329.0543 328.6013 325.7012 331.8427 324.2482 338.549 322.5716 346.3729 317.6537 355.0911 314.4123 359.4502 311.9534 362.2444 308.1531 361.7974 305.6942 361.015 305.5824 358.8913 305.0235 353.5263 305.3589 351.6262 304.1294 350.2849 302.341 348.8319 301.3351 342.0139 304.4647 337.7666 307.4825 336.6488 307.5943 336.8724 305.5824 336.4253 302.0057 332.8486 300.9998 321.0009 302.1175 317.0889 301.6704 313.5122 300.1056 310.6062 296.976 306.6942 290.7168 304.9058 290.0462 302.6704 289.9344 300.9938 289.0403 300.9938 286.246 301.1056 285.4636 301.1056 284.9047 300.8821 284.3459 300.3232 284.0106 295.4053 283.5635 292.8345 282.7811 290.9344 281.5516 288.2519 277.4161 287.0224 276.5219 285.3459 277.9749 284.8988 278.7573 283.7811 281.9987 283.1105 282.5575 279.7573 283.1164 274.3923 284.6812 271.598 285.5754 272.9393 282.6693 273.4981 280.4339 273.4981 278.0867 272.7157 271.7157 272.4922 268.1391 272.0451 264.8977 271.0392 262.4387 268.692 261.0975 266.4565 261.4328 264.3329 262.8858 262.321 264.6741 259.5267 266.3507 257.9619 265.4565 256.5089 263.4447 254.2735 261.5446 247.0084 262.8858 244.6612 261.6563 244.1023 256.5149 244.3259 251.2616 243.767 247.2378 242.314 243.6612 233.7076 230.6957 232.9252 230.0251 232.1428 229.6898 231.5839 230.2486 231.5839 232.8194 230.8015 233.49 229.9074 233.0429 229.4603 231.031 228.4543 230.6957 228.0073 231.3663 227.6719 232.7076 227.1131 233.7135 226.2189 233.3782 226.1072 231.8134 227.7837 224.9954 227.7837 222.4246 227.3366 219.9657 226.2189 218.4009 224.207 218.0656 222.0834 218.848 220.9657 220.1892 219.1773 224.9954 220.0715 227.0073 222.6422 230.3604 223.0893 232.5958 222.6422 235.0548 221.301 239.1903 218.2832 245.8966 215.7124 248.5791 212.5828 249.138 208.5591 247.4614 204.2 243.2141 202.8587 242.9905 202.2999 244.5553 203.1941 265.6801 202.6352 269.9274 200.6233 271.7157 194.2524 266.2389 192.0169 269.2568 191.011 271.4922 189.7815 271.604 188.552 270.3745 187.6579 268.6979 186.5402 264.0035 185.5342 262.5505 183.2988 262.4387 181.3987 263.4447 181.1751 265.1212 181.6222 267.3567 181.8458 269.9274 180.9516 272.2746 179.4986 271.2686 177.1514 267.3567 175.6983 266.1272 172.2334 265.6801 170.5569 264.6741 168.6568 263.2211 166.6449 262.2152 162.174 261.4328 158.262 262.1034 156.4737 261.8799 154.7971 260.3151 153.4559 258.5267 152.0029 256.9619 150.3263 255.7325 148.538 254.9501 146.4143 255.1736 144.626 256.0678 143.1729 256.2913 142.0552 254.6147 141.8317 252.4911 143.2847 245.0024 143.0612 242.3199 142.167 239.8609 137.0255 230.9193 135.4607 228.7956 133.7842 227.6779 130.5428 228.2367 119.3657 234.7195 116.1243 235.949 115.5655 235.8372 114.0007 235.8372 112.5476 234.4959 110.3122 230.2486 108.971 228.4603 107.4062 227.119 103.9413 224.9954 90.9758 223.5424 87.5109 221.754 85.8343 217.7303 87.8462 214.6007 102.7118 205.7707 108.1886 201.4117 111.2064 199.9586 114.0007 198.0585 116.1243 194.8172 118.9186 189.0051 122.8306 184.1989 131.9958 176.3749 134.7901 174.6983 143.9553 173.6924 147.1967 172.4629 148.2026 170.3393 148.538 163.1859 150.1028 158.7151 153.903 157.7091 158.3738 157.9327 162.174 156.9267 175.2513 147.2026 182.8517 144.9672 186.3166 142.62 187.6579 137.9256 187.3226 137.8139 184.4165 136.8079 171.451 127.5309 168.545 126.3014 165.6389 126.7485 161.5034 129.7663 159.4915 131.6664 156.809 130.9958 154.9089 129.9899 151.2205 126.3014 150.7734 124.4013 151.8911 122.5012 154.1265 120.3776 155.1325 119.3716 158.1503 115.6832 158.8209 114.2301 158.5974 113.336 158.0385 112.5536 157.9267 111.2123 158.4856 108.7534 159.4915 106.2944 160.8328 104.2825 162.174 102.9413 166.6449 105.7355 168.0979 105.8473 169.3274 105.1767 170.2216 103.9472 170.4451 102.4942 169.6627 101.0411 166.4213 98.1351 165.5272 97.0174 164.633 92.323 168.0979 90.1993 176.0337 88.9699 177.4867 87.4051 177.9338 85.6167 177.822 80.587 178.0455 78.0163 178.8279 76.7868 182.2928 75.5573 183.8576 74.5514 184.9754 72.9866 186.9872 69.2981 188.552 68.5157 190.5639 69.1864 192.6876 70.1923 194.6994 70.5276 196.376 69.857 197.7173 68.404 198.9468 66.6156 199.9527 64.8273 201.6293 63.2625 203.8647 63.2625 208.2238 64.7155 209.7886 64.0449 210.7945 63.9331 211.6887 64.492 215.3771 67.6216 216.4948 68.0686 218.0596 67.7333 228.2308 61.1388 231.2486 60.2447 237.7314 59.9094 240.8609 58.6799 242.4257 58.3446 243.8788 59.0152 245.3318 60.0211 246.7848 60.6917 252.4851 62.1448 263.1034 68.0686 266.1212 68.9628 267.4625 68.7393 270.145 67.398 271.598 67.0627 283.334 67.5098 289.4814 70.0805 300.3232 77.4574 303.5646 78.0163 310.1591 77.9045 323.3481 81.1459 326.1424 82.7107 328.3778 85.1696 331.5074 91.0935 333.8546 93.3289 336.9842 94.782 340.1138 95.6761 343.2433 95.7879 355.0911 93.776 359.1149 93.8878 362.5798 95.3408 364.4799 96.7938 365.9329 97.688 367.6095 98.1351 374.204 98.5822 376.3276 99.3646 377.6689 101.0411 377.4453 104.8414 377.5571 107.5239 378.563 109.2004 387.0576 110.6535 392.4227 112.8889 395.1052 112.33 395.1052 110.0946 388.3989 97.1292 387.0576 93.2172 386.2752 89.0816 386.6106 84.2755 387.6165 79.9164 392.4227 68.851 394.8816 63.3743 395.2169 61.4741 394.9934 59.2387 393.8757 54.9914 393.6521 52.8678 393.9875 50.7441 394.6581 48.9558 396.5582 45.6026 400.1349 35.3197 401.1408 33.5314 402.5938 32.1901 406.9529 29.6194 422.7127 23.0249 424.3892 22.6895 428.1894 22.9131 431.6543 21.013 434.6722 12.2948 437.4664 10.1712 439.3666 10.8418 442.6079 13.9714 444.2845 14.642 458.8147 12.8537 460.3795 11.9595 460.6031 10.1712 459.5971 7.9358 457.1382 4.4708 459.8207 6.0356 464.5151 10.2829 467.0858 11.4007 470.1036 12.0713 472.7861 13.4125 477.5923 17.4363 479.3806 18.3305 483.2926 18.7776 486.534 21.013 490.3342 22.0189 492.1226 23.0249 493.352 24.5897 495.6992 28.6134 496.9287 30.1782 506.4293 37.5551 509.6706 38.7846 520.1771 40.5729 528.0011 44.4849 530.6836 46.8321 533.2543 48.0616 538.8429 49.7382 541.4136 51.303 543.6491 53.0913 549.2376 56.4444 551.5848 57.0033 557.7322 56.8915 578.5217 59.6858 582.0983 59.2387 583.9985 59.4623 589.9223 62.033 592.2695 61.9212 594.952 60.6917 597.6345 58.7916 599.7582 56.5562 600.7641 54.9914 603.782 46.8321 604.7879 45.938 606.2409 45.6026 607.1351 45.4909 611.9413 45.1556 615.5179 45.6026 622.6713 47.7263 624.7949 47.8381 630.8306 45.8262 633.1778 45.8262 639.9958 47.5028 648.3787 47.5028 656.2026 49.8499 657.2086 49.7382 659.1087 48.9558 660.1146 48.844 661.1206 49.4029 662.1265 51.4147 663.0207 51.9736 664.6972 51.4147 667.3798 48.7322 669.1681 47.9498 671.6271 48.2851 676.3215 50.297 678.7804 50.7441 680.6805 50.297 684.2572 48.7322 688.281 48.844 690.0693 48.3969 693.646 46.4968 693.9813 46.0497 694.0931 45.4909 694.3166 44.932 694.9872 44.8202 696.6638 45.1556 697.2227 45.1556 697.8933 44.7085 699.9052 42.3613 701.6935 41.1318 703.4818 40.7965 707.6174 40.6847 711.1941 39.2317 712.9824 39.0081 714.7707 39.7905 725.2772 41.5789 728.4068 42.6966 729.4128 43.5908 732.0953 47.391 733.4365 48.3969 735.0013 48.844 736.5661 48.844 738.1309 48.844 747.1844 50.4088 750.2022 49.5146 754.1142 47.6145 755.5672 47.2792 757.0202 47.391 759.4792 48.2851 763.1677 48.2851 764.956 49.2911 766.6326 50.6323 768.4209 51.6383 769.8739 51.6383 774.7919 49.2911 776.692 48.9558 782.7276 49.1793 788.9868 50.6323 789.5457 51.4147 789.881 52.1971 790.5516 52.9795 791.5575 53.7619 793.9047 52.6442 795.4695 51.6383 796.3637 51.303 798.3756 50.9677 800.4992 51.1912 802.6229 51.9736 807.8761 55.1032 811.8999 55.7738 821.8475 54.8796 825.9831 55.1032 830.2304 54.5443 832.0187 54.8796 835.8189 56.2209 837.719 56.3327 839.3956 55.7738 842.7487 53.5384 844.6488 52.8678 848.6726 52.5325 854.82 53.2031 863.8735 56.3327 867.6737 58.5681 870.8033 61.2506 872.3681 62.1448 883.5452 63.2625 890.9221 66.2803 896.9578 66.6156 900.5344 68.0686 904.1111 68.1804 911.2645 64.492 914.8411 63.8213 917.1883 64.492 917.859 65.7215 917.3001 70.5276 917.4119 73.4337 917.9707 76.0044 918.8649 78.3516 920.2062 80.6988 923.5593 84.0519 930.8244 87.5168 933.7305 90.5347 937.866 100.5941 940.4367 104.059 945.1311 105.9591 953.8493 106.5179 961.338 105.0649 965.3617 105.2884 985.8158 109.6475 989.6161 112.33 990.9573 113.7831 994.4222 119.0363 1000.4579 124.5131 1003.4757 128.5369 1005.9347 132.7842 1008.7289 136.5844 1012.7527 138.9316ZM236.7254 407.853L234.3782 408.5237 231.0251 411.0944 229.4603 411.8768 227.1131 411.9886 225.6601 413.7769 226.5542 415.5652 228.5661 416.9065 230.2427 417.8007 232.7017 418.4713 234.0429 418.2477 234.9371 416.7947 237.0607 409.0825 236.7254 407.853ZM180.6163 401.5938L179.9457 401.4821 179.6103 401.2585 179.275 400.9232 174.1336 398.7996 171.5628 397.123 169.998 395.1111 168.7685 391.8697 167.2037 388.9637 165.0801 387.6224 162.174 389.1872 160.6092 392.9875 160.0504 395.1111 159.9386 397.0112 160.4975 399.0231 162.7329 404.0528 163.8506 405.5058 165.0801 406.1765 167.5391 406.7353 168.545 407.5177 168.9921 411.0944 165.0801 417.2418 165.1919 420.3714 166.3096 420.9303 167.6508 420.1479 168.8803 418.8066 169.998 418.136 171.6746 418.2477 172.1217 419.2537 172.3452 420.5949 173.4629 421.6009 174.8042 421.7127 179.1633 420.4832 182.2928 420.4832 183.5223 419.9243 184.5283 418.4713 184.64 414.7828 180.6163 410.4238 180.3927 407.2942 181.9575 405.8411 186.2048 402.8233 186.7637 400.9232 186.0931 399.8055 184.9754 399.582 182.6282 400.2526 182.0693 400.5879 181.0634 401.3703 180.6163 401.5938ZM118.1362 420.8185L116.7949 420.7067 116.6832 422.6068 117.3538 424.6187 118.5833 426.2953 121.7129 428.5307 122.607 429.6484 125.2895 434.231 125.7366 434.5663 130.5428 430.7661 133.1135 429.4249 136.2431 428.866 137.1373 427.9718 137.2491 425.8482 136.5784 423.6128 135.4607 423.2774 132.5547 424.6187 129.3133 424.5069 118.1362 420.8185Z" />
</svg>