<?xml version="1.0" encoding="utf-8"?>
<svg xmlns="http://www.w3.org/2000/svg" viewBox="0 0 1021 852" style="stroke-width:0.25px;stroke-linejoin:round;stroke:#444;fill:#ddd" fill-rule="evenodd">
  <path class="KH" d="M999.7872 4.455L1002.0227 9.7083 1001.1285 14.738 996.6576 24.7974 996.3223 27.8152 997.1047 33.7391 996.8812 36.8686 995.8752 39.1041 993.081 43.1278 992.2986 45.8103 992.075 47.2634 991.4044 49.9459 989.0572 55.0873 987.3806 58.1052 984.9217 60.1171 981.2332 61.123 980.0037 60.4524 979.3331 59.1111 978.2154 58.3287 975.6447 59.1111 974.1916 60.4524 973.521 62.1289 973.2975 63.9173 972.7386 65.7056 968.8266 72.7472 967.3736 76.3239 967.0383 80.3476 967.4854 82.136 969.1619 85.9362 969.7208 87.9481 969.7208 89.8482 968.7149 96.778 962.2321 115.5556 961.338 120.2499 962.1204 122.5971 963.9087 124.4972 966.0323 127.8504 966.4794 131.7624 965.8088 135.8979 965.8088 139.9217 967.9325 143.4983 971.1738 144.7278 978.4389 143.9454 981.345 145.1749 982.5745 147.075 982.6862 148.9751 982.4627 150.8752 982.5745 152.6636 985.3688 158.4757 985.4805 159.4816 985.9276 161.9406 985.3688 164.176 984.3628 166.4114 983.4686 169.7646 985.5923 175.6884 985.257 177.4768 984.0275 181.7241 984.0275 183.8477 984.9217 186.7538 988.6101 191.1129 990.3985 194.1307 990.8455 195.0249 995.2046 199.831 998.5578 204.749 1014.4293 235.8213 1015.8823 242.9747 1017 262.4229 1016.3294 268.4585 1010.182 283.4359 1007.6112 289.695 988.2748 336.9743 988.7219 339.7685 991.7397 342.004 992.1868 343.457 992.2986 344.7982 991.8515 345.8042 990.8455 346.5866 989.7278 348.4867 989.3925 350.7221 989.7278 352.8458 991.9633 357.7637 992.6339 363.7993 993.4163 366.7054 994.7575 369.0526 1000.1226 375.2 1002.6933 380.6768 1003.2521 385.8183 1003.1404 391.0715 1003.5875 396.9954 1008.2818 418.679 1008.7289 425.0499 1008.0583 430.9738 1006.9406 433.5446 1005.8229 435.6682 1005.3758 437.7919 1006.7171 440.3626 1006.7171 444.9452 1001.1285 460.9285 1000.1226 465.8464 998.5578 470.3173 995.7635 473.7822 990.8455 475.9058 986.1512 479.0354 979.6684 487.8653 975.3094 488.0889 971.6209 484.8475 965.9206 475.9058 961.338 473.1116 952.9551 473.8939 943.6781 476.8 940.5485 477.8059 929.1479 483.3945 923.5593 489.4301 922.218 492.2244 919.9826 494.3481 914.8411 497.9248 908.8055 505.5252 895.6165 518.7142 891.0339 521.8438 883.8805 524.6381 876.8389 525.4205 862.1969 524.3028 859.738 524.5263 856.1613 524.8616 851.8022 527.4323 848.6726 532.1267 846.4372 538.4977 842.7487 543.4156 838.6132 544.6451 829.1127 542.4097 830.5657 545.3157 814.1353 543.0803 804.8583 542.9685 799.0462 547.1041 796.4755 546.9923 795.4695 545.651 794.6871 543.9745 792.8988 542.6332 790.4398 542.2979 788.2044 542.5215 783.7336 543.6392 783.9571 544.4216 785.5219 548.8924 791.2222 559.6224 792.2282 564.4286 791.7811 564.9875 788.9868 569.5701 788.7633 570.9113 788.6515 574.5998 788.3162 576.2763 786.9749 579.0706 785.4101 581.6414 784.4042 584.3239 784.6277 587.4535 789.881 596.3952 791.4458 600.7542 791.5575 600.9778 789.7692 603.9956 787.3102 603.9956 784.8513 602.6543 780.604 599.7483 777.9215 598.7424 776.1331 598.5188 774.0095 598.6306 763.2794 601.5366 760.7087 601.0895 758.9204 599.6365 756.2378 595.3892 754.7848 593.7127 750.9846 591.7008 737.7956 587.4535 729.8598 587.3417 719.9122 584.2121 711.0823 582.7591 706.6114 587.4535 706.4997 590.136 705.9408 592.8185 704.8231 595.2774 699.5699 600.866 697.7815 605.0015 695.4343 607.684 689.9575 607.4605 680.9041 604.1074 677.5509 604.778 673.7507 608.0194 673.1919 608.4664 670.7329 611.2607 668.4975 614.7256 667.9386 618.6376 668.4975 619.5318 670.3976 622.7732 672.7448 624.0026 677.8862 624.8968 680.0099 626.5734 680.7923 628.697 681.0158 631.3795 680.5688 636.4092 683.5866 646.804 683.9219 649.71 683.363 652.7278 681.2394 659.3223 678.1098 674.0761 678.2216 676.8704 680.6805 678.7705 683.8101 679.5529 686.3809 681.1177 686.9397 685.365 688.9516 690.73 692.8636 693.7479 703.1465 696.3186 705.9408 698.8893 710.6352 706.2662 713.5413 709.5076 720.2475 715.2079 722.8183 718.4493 724.7184 722.473 726.9538 718.2257 729.8598 716.5492 733.213 716.9963 736.6779 719.6788 738.9133 723.0319 742.0429 734.209 744.1666 738.121 742.8253 739.3505 740.8134 739.2387 736.6779 739.127 733.3248 739.4623 732.6541 740.2447 731.6482 742.1448 731.9835 742.5919 731.76 747.6216 731.5364 748.0686 732.4306 751.31 737.2367 760.2517 742.1547 779.0293 737.9074 775.5644 732.8777 774.2231 721.9241 773.2172 716.8944 771.4288 711.5294 768.7463 706.7232 765.1696 703.1465 761.0341 701.3582 759.0222 694.9872 753.769 694.6519 756.8986 692.8636 761.2576 690.6282 765.0579 688.8398 767.0697 684.8161 767.0697 681.4629 764.8343 678.8922 761.7047 677.4392 758.9105 675.2037 752.2042 673.8625 749.1864 667.3798 740.1329 663.9149 734.209 660.6735 730.4088 655.532 729.8499 650.0552 731.5265 645.5844 734.209 641.8959 736.5562 637.5369 738.5681 634.7426 739.2387 616.7474 743.0389 607.1351 745.0508 605.6821 744.8273 601.323 742.7036 595.958 741.1388 595.0638 740.6917 592.6048 742.3683 584.7809 751.4218 579.0805 763.1578 577.2922 764.9461 574.3861 763.9402 567.7916 758.1281 564.8856 756.2279 556.391 754.6631 537.7252 751.1982 535.0427 750.1923 532.8073 747.2862 532.3602 744.7155 531.2425 743.8213 526.9952 746.0568 524.5362 747.8451 523.642 748.6275 521.8537 750.3041 519.73 753.0983 518.5006 756.2279 519.1712 762.9342 522.189 770.3111 529.007 783.053 529.1188 789.3122 524.4244 793.8948 505.6469 803.5072 503.0761 805.6308 500.8407 808.0898 493.0167 820.1611 488.3223 824.9672 481.5043 827.7615 472.8979 828.0968 463.3974 826.9791 458.8147 826.4202 444.508 824.6319 436.237 824.9672 433.2191 825.6378 430.7602 827.538 428.8601 830.3322 427.2953 833.4618 419.2477 845.1978 417.2359 847.0979 414.5534 847.545 411.0884 846.7626 410.6414 845.6449 407.4 841.6211 405.3881 840.3916 402.7056 841.6211 395.8876 834.5795 394.0992 833.4618 388.2871 833.4618 385.0458 834.8031 383.1457 835.2502 381.5809 834.8031 380.0161 831.5617 379.3454 823.1789 377.11 821.5023 375.9923 820.9435 373.6451 818.2609 372.4156 817.3668 371.0744 817.7021 369.8449 818.4845 368.6154 818.8198 367.1624 817.3668 364.1446 821.3905 359.2266 821.5023 349.3908 818.8198 346.1494 819.2669 341.5668 820.4964 338.2136 820.1611 319.8832 815.0196 316.6418 814.796 314.0711 813.9019 308.7061 809.431 308.3707 807.978 304.2352 800.2658 303.5646 800.0422 300.8821 800.2658 300.2114 799.9305 300.2114 799.1481 300.435 798.1421 300.2114 797.4715 299.6526 796.242 299.3173 793.336 298.8702 792.2183 297.4172 796.0185 297.5289 800.2658 298.8702 807.5309 298.1996 810.884 296.523 814.2372 292.2757 820.1611 290.0403 822.5083 287.5813 823.7377 284.3399 824.1848 279.7573 824.1848 277.2983 823.7377 276.1806 822.7318 275.3982 821.3905 273.8334 820.1611 271.9333 819.714 268.692 819.6022 267.2389 818.8198 267.2389 820.1611 271.3745 822.3965 274.9512 825.9732 275.9571 829.3263 271.9333 830.8911 265.6741 830.444 258.409 832.0088 254.9441 832.2323 252.3734 830.8911 251.0321 828.2086 250.6968 825.4143 250.8086 824.1848 250.2497 823.626 249.8026 821.0552 248.9085 820.1611 247.4554 820.0493 246.5613 820.6081 246.0024 821.3905 244.9965 821.5023 243.767 821.167 241.9787 820.3846 240.4139 818.9316 238.8491 814.4607 236.949 812.3371 233.1487 809.431 229.9074 810.7723 228.9014 808.3133 229.9074 804.7366 232.3663 802.8365 233.9311 801.3835 235.943 798.0304 237.6196 794.2301 238.402 791.4359 241.5316 786.965 248.9085 784.7296 263.8858 784.1707 263.9976 784.1707 264.78 784.059 264.78 783.7237 264.78 782.7177 262.2092 781.9353 261.6504 780.8176 262.7681 772.323 263.327 770.7582 265.0035 769.4169 267.2389 768.1875 269.4744 766.6227 271.2627 763.8284 271.598 761.593 271.2627 753.9925 268.3567 747.1745 262.7681 737.3386 259.1914 727.7263 262.0975 721.02 258.409 718.114 256.5089 717.4433 250.8086 716.7727 248.4614 715.7668 246.7848 714.3138 244.5494 707.2722 240.4139 703.6955 234.9371 701.6836 229.125 701.013 229.4603 701.6836 229.5721 701.9072 229.6838 701.9072 230.4662 702.3542 227.8955 706.378 226.4425 706.378 225.5483 705.0367 224.9894 704.4779 222.5305 703.8073 222.5305 705.0367 223.6482 707.3839 222.5305 710.29 218.6185 715.8785 222.5305 714.0902 222.8658 716.1021 221.4128 719.6788 216.4948 728.6205 215.2653 732.1971 214.8183 736.5562 212.6946 741.6977 212.1358 743.9331 212.3593 745.8332 213.2535 748.9628 213.477 751.1982 212.3593 754.2161 209.7886 756.1162 206.659 756.7868 204.2 756.0044 203.4176 756.8986 202.5234 757.5692 200.1762 758.5751 198.6114 753.8807 194.5877 751.1982 189.7815 749.0746 185.8695 746.6156 177.9338 751.4218 174.6924 754.5514 175.363 757.3457 172.6805 757.2339 170.4451 757.5692 168.6568 758.5751 167.4273 760.0282 163.7388 758.1281 159.268 757.681 156.9208 756.675 159.4915 753.3219 153.6794 748.6275 152.2264 747.9569 150.9969 746.3921 151.8911 743.0389 153.4559 739.9094 154.2383 739.127 153.903 733.0913 152.0029 723.1437 151.5558 717.7787 152.2264 715.8785 153.4559 713.8667 154.9089 711.2959 155.4678 707.7193 155.2442 704.3661 154.4618 702.0189 151.5558 696.9892 151.1087 695.5362 150.8851 693.8596 150.5498 692.2948 149.6557 690.9536 148.4262 690.6183 144.626 690.5065 143.7318 690.2829 144.0671 688.1593 146.3025 686.818 147.8673 685.5886 146.3025 683.5767 146.3025 682.3472 147.7556 680 152.897 674.9703 158.3738 671.7289 160.8328 674.2997 162.0623 674.2997 161.8387 671.2818 159.9386 666.3639 159.4915 663.5696 156.809 664.5756 155.4678 665.2462 154.2383 666.2521 151.8911 663.905 151.2205 661.6695 151.1087 659.0988 150.3263 655.5221 149.0968 652.6161 146.3025 648.4805 144.9613 646.0216 146.6378 646.4686 147.1967 646.5804 147.3085 647.1393 147.7556 648.8158 148.985 648.8158 150.2145 646.6922 152.1146 645.0156 154.5736 643.8979 157.5914 643.4508 160.1622 644.5685 163.18 649.1512 166.086 650.1571 160.0504 638.6447 158.262 636.7446 159.0444 634.6209 159.4915 633.9503 158.262 633.9503 157.815 634.7327 156.9208 636.7446 157.7032 638.3094 157.3679 640.0977 156.0266 641.5507 154.2383 641.9978 152.3382 641.1036 150.1028 637.527 144.9613 634.9562 143.62 630.8207 143.5083 625.9028 143.7318 621.9908 142.3905 623.332 143.0612 619.3083 143.7318 617.8552 141.9435 617.7435 140.9375 617.1846 139.8198 615.1727 139.8198 621.9908 139.4845 625.0086 138.4785 627.3558 137.1373 627.3558 135.1254 626.5734 132.3311 627.244 129.6486 628.5853 127.8603 629.9265 123.9483 624.5615 127.8603 621.9908 128.8662 623.2202 131.7723 626.0145 133.2253 626.0145 132.5547 624.0026 130.431 621.4319 129.3133 619.3083 129.3133 611.2607 131.437 609.1371 134.1195 610.0312 137.3608 611.4843 140.9375 611.2607 140.9375 609.8077 138.5903 610.0312 136.6902 609.4724 135.2372 608.4664 134.4548 607.1252 134.4548 605.7839 135.9078 605.7839 135.9078 604.4427 133.7842 605.3369 133.2253 605.7839 131.7723 605.7839 131.5487 604.3309 130.5428 601.7602 129.3133 601.7602 129.3133 605.7839 127.8603 604.4427 127.8603 608.5782 126.6308 608.5782 126.9661 603.2132 127.9721 599.0777 129.9839 595.9481 133.2253 593.7127 135.1254 592.9303 136.802 592.4832 138.4785 592.9303 140.3787 594.3833 142.7259 595.501 145.4084 594.9421 147.7556 593.2656 148.985 591.0301 147.7556 591.0301 146.079 593.6009 143.3965 593.3773 140.6022 591.7008 138.4785 589.6889 137.1373 589.6889 129.3133 593.7127 128.1956 592.5949 126.8543 590.136 125.7366 587.3417 125.2895 585.1063 124.1718 583.4297 119.701 581.0825 113.33 571.0231 112.1006 571.0231 115.0066 577.3941 124.3954 587.3417 126.6308 593.7127 126.1837 597.0658 123.9483 602.8779 123.9483 605.7839 125.9602 614.1668 125.7366 617.6317 123.9483 621.9908 123.613 619.42 121.7129 615.9551 121.2658 613.1608 120.5952 611.8196 117.242 608.5782 116.1243 607.1252 119.0304 602.6543 118.248 591.4772 116.1243 583.6532 110.6475 575.3822 102.4882 563.9815 93.7701 546.9923 91.87 537.2682 88.7404 530.4502 87.6227 528.9971 84.9402 525.7558 75.1043 510.5549 73.6513 502.7309 78.0103 470.5408 78.9045 466.8524 81.0282 463.1639 85.9461 458.8048 87.6227 456.0106 87.2873 454.2222 87.0638 452.0986 84.8284 449.6396 78.681 446.2865 75.9985 443.4922 75.5514 441.9274 75.2161 438.686 74.4337 437.0095 73.0924 435.6682 68.398 432.8739 53.756 418.0084 47.9439 413.7611 37.1021 410.1844 35.9844 409.2902 34.0843 407.949 32.743 404.8194 32.2959 400.5721 32.5195 396.4365 33.4136 393.3069 35.8726 391.1833 37.7727 385.0359 37.9963 383.024 37.5492 380.6768 36.8785 379.3355 35.8726 378.1061 34.7549 376.0942 33.5254 371.9586 32.743 364.47 31.7371 359.8873 30.6194 357.7637 29.9487 355.5283 30.284 353.5164 32.4077 351.0574 32.743 350.3868 32.4077 349.7162 30.8429 348.1514 30.3958 347.2572 30.7311 346.4748 31.7371 345.8042 33.1901 345.1336 34.196 344.2394 34.7549 343.2334 34.8667 342.2275 34.8667 342.004 31.6253 340.1039 29.7252 337.4213 26.5956 331.2739 17.8774 320.991 14.0772 314.3965 4.0178 287.5714 3.7943 287.0125 3.5707 273.1529 4.8002 261.1934 4.0178 246.3278 4.0178 245.769 4.1296 243.4218 4.0178 241.857 3.2354 240.0686 1.2235 236.7155 1 234.5919 4.5767 230.0092 12.0653 229.1151 27.6015 230.4563 39.2257 229.4504 43.026 228.1091 51.9677 222.8559 55.5443 221.9617 48.7263 217.4909 44.5908 213.3553 44.8143 209.2198 50.9617 204.4136 70.2981 195.0249 74.8807 191.0011 75.6631 189.2128 75.8867 185.0772 76.3338 183.0653 77.2279 181.5006 80.6928 177.1415 82.2576 173.6766 85.499 162.9465 89.0757 156.5756 93.7701 151.8812 104.8354 143.163 107.6297 139.9217 108.3003 137.3509 108.3003 134.4449 108.8592 129.8623 110.3122 126.8444 114.2242 121.0323 115.6772 117.9028 116.1243 113.9908 116.1243 111.3083 116.1243 110.5259 117.0185 107.2845 120.0363 104.2667 123.2777 102.7019 130.3193 100.69 133.5606 98.6781 135.9078 96.778 148.985 85.4891 155.2442 82.0242 159.1562 80.6829 170.7804 79.0064 179.275 76.3239 185.1989 74.5355 198.1644 74.5355 202.2999 74.0884 205.5413 72.5237 210.9063 68.6117 213.7006 67.8293 214.3712 68.2763 215.3771 69.2823 216.9419 70.1765 218.9538 70.5118 220.295 69.9529 227.5602 64.8114 234.9371 61.0112 238.1784 60.4524 241.6433 61.6818 244.2141 63.3584 247.0084 64.029 250.9204 61.9054 252.1498 60.3406 252.4851 58.7758 253.044 57.3228 254.8323 56.3168 256.8442 56.0933 258.7443 56.6521 260.3091 57.7699 261.4268 58.9993 261.8739 61.0112 261.5386 65.7056 262.0975 67.4939 263.5505 68.0528 270.145 68.4999 281.3221 71.4059 285.0106 71.7413 287.4695 71.5177 289.0343 71.1824 290.7109 71.1824 293.5052 72.0766 295.5171 73.3061 297.4172 74.7591 299.6526 76.1003 302.4469 76.6592 305.8 76.2121 306.8059 75.0944 307.3648 73.5296 309.0414 71.853 319.4361 71.2942 324.6893 75.765 331.3956 74.2002 333.0722 73.3061 333.2957 73.3061 338.6607 70.6235 345.5905 68.7234 346.7083 69.2823 347.7142 70.5118 349.0554 71.5177 351.5144 71.5177 352.9674 70.8471 357.6618 65.5938 357.9971 64.5879 358.4442 64.029 360.1208 64.029 359.4502 64.8114 359.6737 66.488 360.7914 68.3881 363.0268 69.1705 366.4917 68.2763 369.0625 66.1527 371.9685 64.5879 376.5512 65.035 386.9459 69.2823 408.7413 72.5237 409.9707 72.9707 411.312 73.4178 412.4297 73.3061 413.1003 73.3061 414.1063 72.7472 415.3358 71.6295 416.9006 70.5118 418.9124 69.9529 422.4891 70.6235 425.5069 72.0766 428.6365 72.6354 432.4367 71.0706 434.5604 68.7234 436.3487 65.7056 438.5842 62.7996 441.602 61.123 444.6198 61.0112 449.426 63.0231 452.6673 62.9113 453.8968 61.9054 455.7969 58.7758 457.3617 58.1052 458.9265 58.8876 459.9325 62.3525 461.1619 63.4702 464.068 62.9113 469.8801 58.3287 472.4508 56.9875 475.6922 57.211 478.2629 58.8876 480.8337 60.8994 483.9633 62.4642 485.3045 62.576 488.8812 62.0172 490.6695 62.1289 492.1226 62.6878 495.2521 64.8114 496.8169 65.5938 500.0583 66.1527 507.6587 67.6057 511.2354 68.6117 512.2414 71.0706 512.2414 73.7531 511.3472 82.6948 511.6825 84.3714 517.8299 95.7721 521.1831 99.5723 525.3186 101.6959 535.7133 98.3428 541.6372 88.5069 545.9963 78.5593 551.6966 75.5415 551.5848 81.8007 552.3672 86.3833 554.1556 90.5188 565.5562 107.8433 569.1329 111.42 570.4741 112.0906 573.1567 112.9848 574.6097 113.879 579.5276 120.697 581.0924 122.2618 582.9925 123.0442 586.1221 123.3795 591.5989 123.4913 597.2992 122.5971 602.6642 120.8088 607.1351 117.791 610.3765 116.8968 613.1707 115.332 618.5358 111.5318 620.1006 112.5377 621.5536 113.6554 622.8948 115.1085 624.0125 116.6733 626.9186 115.4438 630.3835 117.0086 633.2895 120.1382 634.7426 123.6031 637.6486 121.4794 639.6605 121.5912 641.5606 122.8207 644.6902 124.1619 647.4845 124.3855 651.5083 123.8266 653.6319 123.9384 658.9969 126.8444 661.903 131.6506 664.0266 137.1274 667.268 141.9336 683.8101 156.4638 688.0574 158.811 688.8398 159.2581 693.646 160.3758 698.3404 159.9287 703.1465 157.9168 707.6174 158.1404 717.565 160.7111 721.3652 160.4876 724.1595 157.0227 723.8242 147.7457 726.1714 144.7278 728.9657 141.9336 732.3188 139.5864 735.3366 137.0156 736.7897 133.4389 735.8955 129.6387 733.3248 126.7327 730.1952 124.1619 727.6244 121.2559 722.7065 109.5199 719.6887 106.055 713.2059 101.8077 710.5234 99.3487 708.8469 95.325 709.6293 90.407 708.9586 86.6068 706.835 83.4772 703.1465 80.4594 702.2524 78.3358 701.9171 76.1003 702.2524 73.7531 703.1465 71.6295 706.9468 72.3001 715.4414 75.2062 718.7945 75.0944 719.2416 74.0884 719.6887 70.9589 720.3593 70.1765 721.2535 70.0647 723.3771 70.2882 726.3949 70.0647 730.9776 70.8471 737.6838 71.2942 741.3723 70.8471 744.3901 69.0587 747.1844 64.8114 748.5256 60.5641 750.4257 50.2812 752.2141 46.9281 753.3318 48.1575 765.0678 55.3109 766.8561 55.8697 769.5386 55.9815 772.1094 55.3109 773.3388 55.0873 783.6218 53.7461 788.5397 51.6224 790.5516 47.8222 791.2222 47.7105 792.6752 46.481 793.4576 45.1397 791.334 43.9102 791.1105 42.569 791.4458 41.116 791.8928 40.3336 793.6812 39.2158 795.6931 39.5512 798.152 40.11 801.1699 40.3336 801.1699 39.1041 799.7168 38.5452 798.9344 37.651 798.4873 36.198 798.3756 34.2979 798.7109 32.286 799.6051 31.7272 800.9463 31.6154 802.2876 30.9448 806.4231 27.1446 807.5408 28.1505 809.9998 31.9507 810.7822 34.5215 811.7881 40.7806 812.4587 42.569 814.1353 43.6867 818.4944 44.5809 820.5063 45.8103 824.1947 51.6224 827.4361 53.4108 829.7833 54.752 843.7547 58.9993 844.6488 59.67 846.1019 61.3465 846.996 62.576 848.4491 65.4821 855.1553 75.0944 860.185 80.1241 862.8675 82.0242 865.5501 83.1419 868.4561 83.2537 875.833 79.0064 876.8389 78.1122 877.8449 77.5534 879.9685 77.4416 881.6451 78.0004 885.2218 80.3476 887.2337 80.6829 889.5809 80.0123 890.2515 79.0064 890.3633 77.7769 892.4869 72.6354 894.8341 72.1883 895.7283 71.6295 899.4167 65.8174 905.0053 58.8876 905.1171 57.8816 905.7877 57.6581 908.1349 58.7758 911.3762 61.2348 912.941 63.582 915.0647 64.6997 919.312 63.3584 925.1241 59.3347 930.3773 54.6403 931.9421 51.5107 933.0598 48.1575 934.6246 45.8103 937.4189 45.8103 937.5307 45.8103 940.4367 46.3692 942.1133 45.475 944.1252 41.4513 944.5723 37.4275 944.7958 36.0862 945.5782 35.1921 947.8136 33.8508 948.7078 32.9567 952.1727 28.1505 955.0788 25.468 958.5437 25.8033 963.7969 29.4917 967.3736 32.8449 969.2737 33.5155 972.8504 34.2979 977.3212 36.3098 979.5567 36.4216 982.0156 34.4097 982.5745 32.8449 982.5745 31.1683 982.3509 29.4917 982.4627 27.927 983.0216 26.3622 984.4746 24.462 985.0334 23.3443 986.5982 18.8735 987.8277 17.5322 990.8455 16.0792 997.2165 6.6904 999.7872 4.455ZM283.1105 828.2086L285.793 830.1087 287.246 834.1325 287.0224 838.268 285.1223 840.1681 281.9927 840.1681 279.1985 839.6092 276.8513 838.0444 275.2865 834.8031 276.8513 834.356 277.6337 833.7971 279.1985 832.2323 277.969 829.8851 278.5278 828.4321 280.4279 827.8733 283.1105 828.2086ZM189.6697 786.0708L190.4521 786.7415 192.1287 787.0768 193.5817 787.971 193.6935 790.7652 191.1228 791.6594 188.8873 792.7771 187.099 794.4537 185.8695 797.4715 184.193 796.0185 183.2988 793.7831 182.8517 791.6594 182.5164 790.7652 182.6282 790.3182 176.5925 787.971 173.5747 785.6238 171.3393 782.8295 170.7804 779.9234 172.5688 777.3527 176.4807 775.8997 179.7221 776.9056 182.2928 779.0293 184.5283 781.3765 184.9754 782.0471 185.3107 783.3883 185.8695 784.059 186.8755 784.3943 188.2167 784.2825 189.2227 784.6178 189.6697 786.0708ZM139.8198 663.5696L140.714 665.6933 141.6081 667.3699 141.9435 668.8229 140.9375 670.1641 141.9435 672.8466 141.8317 676.5351 140.9375 680 139.8198 682.3472 137.1373 683.5767 134.1195 683.5767 132.3311 682.5707 133.2253 680.8942 131.1017 678.7705 130.431 674.635 130.5428 667.4816 129.0898 659.2106 129.0898 654.4044 130.5428 650.1571 130.8781 651.0513 131.437 651.9454 131.7723 652.8396 133.8959 650.9395 135.796 650.716 137.2491 651.9454 139.708 656.8634 139.8198 658.987 139.5963 660.9989 139.8198 663.5696ZM138.4785 635.2915L139.3727 637.1916 141.6081 640.433 142.3905 641.9978 142.3905 643.4508 141.4964 644.7921 139.3727 649.0394 138.4785 650.1571 136.5784 650.0453 136.3549 648.0334 137.1373 643.4508 135.4607 640.3212 132.89 636.6328 131.884 633.0561 134.4548 629.9265 137.6961 631.9384 138.4785 632.609 138.9256 633.615 138.8139 634.6209 138.7021 635.2915 138.4785 635.2915ZM196.7113 814.796L197.0466 814.796 197.6055 815.5784 197.6055 817.0315 196.8231 818.4845 195.9289 820.7199 194.6994 822.2847 192.6876 821.0552 188.6638 814.9078 187.3226 811.7782 188.105 809.0957 190.6757 808.0898 192.7993 807.8662 193.9171 808.2015 194.3641 809.5428 192.464 812.2253 192.3523 813.1195 192.2405 814.1254 192.5758 815.6902 193.5817 816.5844 194.923 816.6961 196.2642 815.5784 196.7113 814.796Z" />
</svg>