<?xml version="1.0" encoding="utf-8"?>
<svg xmlns="http://www.w3.org/2000/svg" viewBox="0 0 1021 53" style="stroke-width:0.25px;stroke-linejoin:round;stroke:#444;fill:#ddd" fill-rule="evenodd">
  <path class="KI" d="M1005.9678 11.669L1005.8638 11.669 1005.9678 11.5649 1006.0719 11.5649 1006.2801 11.5649 1006.2801 11.4609 1006.3841 11.5649 1006.2801 11.5649 1006.176 11.5649 1006.0719 11.5649 1005.9678 11.5649 1005.9678 11.669ZM66.7767 48.6164L66.7767 48.7204 66.8808 48.8245 66.7767 48.8245 66.7767 48.7204 66.7767 48.6164ZM54.9119 31.7559L55.016 31.7559 55.016 31.86 54.9119 31.86 54.8078 31.7559 54.9119 31.7559ZM57.5138 27.1765L57.6179 27.1765 57.722 27.1765 57.722 27.2806 57.6179 27.2806 57.722 27.3847 57.6179 27.3847 57.6179 27.2806 57.5138 27.2806 57.5138 27.1765ZM1016.7918 23.0134L1016.8959 23.1175 1017 23.2216 1016.8959 23.2216 1016.7918 23.0134ZM1015.7511 19.3707L1015.8552 19.4748 1015.8552 19.5789 1015.8552 19.683 1015.7511 19.5789 1015.7511 19.4748 1015.7511 19.3707 1015.647 19.3707 1015.7511 19.3707ZM1014.5022 19.3707L1014.6062 19.4748 1014.5022 19.4748 1014.6062 19.4748 1014.5022 19.3707 1014.3981 19.2666 1014.294 19.2666 1014.3981 19.2666 1014.3981 19.1626 1014.5022 19.2666 1014.5022 19.3707ZM1010.9635 18.9544L1010.9635 19.1626 1010.8595 19.0585 1010.8595 18.9544 1010.8595 18.7463 1010.8595 18.8503 1010.9635 18.9544ZM1010.1309 17.6014L1010.1309 17.7055 1010.1309 17.8096 1010.1309 17.9136 1010.1309 17.8096 1010.1309 17.7055 1010.1309 17.6014 1010.0268 17.3933 1010.1309 17.4973 1010.1309 17.6014ZM1010.0268 17.2892L1010.0268 17.3933 1009.8187 17.2892 1009.8187 17.1851 1009.9228 17.1851 1009.9228 17.2892 1010.0268 17.2892ZM1007.6331 15.1036L1007.6331 14.9995 1007.7371 14.8954 1007.6331 14.8954 1007.7371 14.8954 1007.7371 14.9995 1007.6331 15.1036ZM1008.2575 14.1669L1008.4657 14.2709 1008.4657 14.375 1008.3616 14.2709 1008.2575 14.2709 1008.1535 14.2709 1008.2575 14.1669ZM1006.0719 12.7098L1006.0719 12.8139 1006.0719 12.9179 1005.9678 12.9179 1005.8638 13.022 1005.8638 13.1261 1005.8638 13.022 1005.8638 12.9179 1005.9678 12.9179 1005.9678 12.8139 1006.0719 12.8139 1006.0719 12.7098 1005.9678 12.6057 1005.8638 12.6057 1005.8638 12.5016 1005.8638 12.6057 1006.0719 12.7098ZM1005.9678 10.4201L1005.9678 10.5242 1005.8638 10.5242 1005.9678 10.4201 1005.9678 10.316 1005.9678 10.4201ZM51.1651 10.4201L51.2692 10.4201 51.2692 10.5242 51.1651 10.5242 51.0611 10.5242 50.957 10.5242 50.957 10.4201 50.8529 10.4201 50.5407 10.316 50.4366 10.316 50.3325 10.2119 50.2284 10.1079 50.1244 10.1079 50.1244 10.0038 50.2284 9.8997 50.2284 10.0038 50.1244 10.0038 50.1244 10.1079 50.2284 10.1079 50.3325 10.1079 50.3325 10.2119 50.4366 10.2119 50.5407 10.2119 50.4366 10.2119 50.4366 10.1079 50.3325 10.1079 50.4366 10.1079 50.4366 10.0038 50.5407 10.0038 50.5407 10.1079 50.5407 10.0038 50.5407 9.8997 50.5407 10.0038 50.5407 9.8997 50.6447 9.8997 50.6447 10.0038 50.7488 10.0038 50.7488 9.8997 50.6447 9.8997 50.5407 9.7956 50.4366 9.7956 50.4366 9.6916 50.3325 9.6916 50.2284 9.6916 50.3325 9.5875 50.5407 9.6916 50.6447 9.7956 50.8529 9.7956 50.8529 9.8997 50.7488 9.8997 50.7488 10.0038 50.7488 10.1079 50.8529 10.2119 50.957 10.2119 51.0611 10.316 51.0611 10.4201 51.1651 10.4201ZM1005.1352 6.7774L1005.2393 6.7774 1005.2393 6.6733 1005.3434 6.6733 1005.4474 6.6733 1005.5515 6.6733 1005.4474 6.6733 1005.3434 6.6733 1005.2393 6.7774 1005.1352 6.7774ZM45.1287 4.2796L45.2327 4.3836 45.2327 4.4877 45.1287 4.5918 45.0246 4.5918 44.9205 4.4877 45.0246 4.4877 45.1287 4.4877 45.1287 4.3836 45.0246 4.2796 44.9205 4.1755 44.8164 4.2796 44.9205 4.3836 44.8164 4.3836 44.8164 4.1755 44.9205 4.1755 45.0246 4.1755 45.0246 4.2796 45.1287 4.2796ZM1.1041 29.0499L1 29.0499 1 28.9458 1.1041 29.0499ZM995.8724 18.0177L995.7683 18.0177 995.8724 17.9136 995.8724 18.0177Z" />
</svg>