<?xml version="1.0" encoding="utf-8"?>
<svg xmlns="http://www.w3.org/2000/svg" viewBox="0 0 1004 1024" style="stroke-width:0.25px;stroke-linejoin:round;stroke:#444;fill:#ddd" fill-rule="evenodd">
  <path class="KN" d="M807.3119 690.1633L871.245 691.5045 926.907 710.2821 969.6036 751.9727 994.4168 822.2768 997.9935 851.4491 999.5583 926.1122 994.4168 954.1668 978.6571 993.1749 966.2505 1006.811 910.3649 1020 767.5213 1008.3758 723.8188 890.6807 747.5143 755.1023 807.3119 690.1633ZM649.6028 488.3045L691.6287 512.1118 728.5132 564.8678 728.7367 618.1826 660.1092 644.3371 621.1011 617.512 588.0168 496.1285 527.1015 458.1263 486.8639 412.5237 458.5858 402.2407 361.6802 407.7175 321.8897 402.2407 224.0899 362.3384 92.1999 280.2983 1.4417 176.6865 25.9196 72.0686 37.8791 61.0033 46.1502 55.0794 55.3154 51.6145 69.8457 48.0378 107.4008 31.9428 120.7015 22.4422 129.1961 4 435.7845 188.7578 511.1183 270.3507 564.4331 402.4642 599.1939 462.8207 649.6028 488.3045Z" />
</svg>