<?xml version="1.0" encoding="utf-8"?>
<svg xmlns="http://www.w3.org/2000/svg" viewBox="0 0 947 1024" style="stroke-width:0.25px;stroke-linejoin:round;stroke:#444;fill:#ddd" fill-rule="evenodd">
  <path class="KP" d="M603.89 845.0781L595.7307 849.3254 591.7069 852.455 590.8128 854.914 591.1481 858.1553 592.3776 864.4145 591.7069 871.009 589.8068 876.7094 587.0125 881.8508 583.6594 886.657 575.9472 894.8163 566.6702 900.7402 556.7226 904.3168 546.8867 905.0992 531.6858 904.2051 522.0735 906.2169 520.0616 905.7699 518.2733 903.9815 516.3732 901.299 515.2554 900.4048 487.2009 902.8638 478.7063 905.5463 474.3472 905.8816 460.5993 901.7461 442.716 903.3109 438.1333 902.752 428.7446 903.758 419.0205 907.7817 409.7435 913.5938 401.8077 920.0766 401.0253 921.1943 399.237 923.4297 397.2251 928.3476 394.319 935.7245 391.8601 938.407 386.2715 942.7661 383.8125 945.3369 371.4059 964.338 365.5938 968.9206 361.9054 970.3736 359.2229 970.7089 357.4345 971.9384 356.6521 976.2975 357.6581 992.169 355.9815 994.5162 355.4227 997.4222 353.9696 997.6458 350.9518 999.5459 346.9281 1001.8931 344.4691 1001.3342 324.2385 988.3688 323.009 987.251 319.5441 981.2154 318.5382 980.433 315.7439 980.7683 312.8378 981.7743 301.4372 987.8099 298.5311 988.9276 295.178 989.2629 289.9248 989.1512 286.7952 989.8218 283.7773 991.8337 282.5479 993.1749 282.3243 993.7338 282.5479 994.4044 282.9949 997.3105 284.0009 1001.1107 284.895 1003.0108 284.6715 1005.5815 284.2244 1008.1523 283.7773 1009.4935 276.8475 1008.0405 274.9474 1000.6636 273.4944 997.1987 271.3707 997.4222 270.0295 996.8634 269.3589 992.7278 268.9118 984.2332 264.6645 987.3628 262.7644 987.251 261.982 983.5626 260.976 981.5507 258.8524 979.2035 256.5052 977.3034 254.9404 976.6328 252.705 978.5329 253.7109 980.7683 255.7228 982.7802 256.8405 983.5626 257.1758 985.4627 258.5171 990.3806 258.8524 993.0631 257.6229 991.8337 256.0581 990.716 254.4933 989.8218 253.0403 989.2629 251.2519 989.0394 250.246 989.1512 249.4636 989.0394 248.0106 987.9217 245.6634 985.3509 238.3982 973.9503 237.8394 972.1619 236.9452 970.8207 233.4803 970.1501 232.5861 969.3677 232.2508 968.0264 232.1391 965.9028 232.4744 962.5496 231.8037 961.7672 229.5683 961.5437 228.0035 961.2084 225.5446 959.5318 224.0915 959.0847 218.0559 958.7494 215.4851 958.1905 209.673 955.3963 206.0964 954.6139 202.4079 954.5021 199.8372 955.8433 199.7254 958.8612 202.2961 961.879 205.9846 964.338 208.7789 965.3439 213.8086 964.5615 215.2616 965.5674 214.2557 969.2559 215.7087 968.5853 217.1617 968.1382 218.6147 968.3617 220.1795 969.2559 218.3912 971.6031 217.1617 974.1738 219.8442 974.1738 220.9619 973.8385 222.0796 972.8326 223.0856 974.1738 221.409 975.9622 219.6207 977.3034 217.6088 978.4211 215.1498 979.0917 212.8026 978.98 211.1261 977.7505 209.4495 976.0739 207.3259 974.1738 206.8788 978.4211 208.22 982.7802 208.7789 986.9157 206.2081 990.3806 208.3318 992.6161 209.226 993.0631 208.6671 994.7397 207.6612 995.5221 204.7551 995.5221 204.1963 996.081 204.4198 997.3105 205.314 999.3223 205.7611 1002.0048 205.7611 1003.5696 204.7551 1004.352 203.3021 1004.2403 201.8491 1003.905 200.5078 1003.2343 199.2783 1001.8931 199.8372 1001.5578 199.949 1001.3342 200.0607 1001.1107 200.396 1000.5518 198.6077 999.6576 196.9311 999.4341 195.8134 1000.44 195.3663 1002.4519 194.3604 1002.6755 192.5721 1002.2284 191.3426 1000.8871 192.3485 997.9811 188.8836 1001.1107 186.9835 1005.6933 184.6363 1009.8288 179.4948 1011.9525 174.3534 1012.0642 171.6708 1012.6231 170.5531 1013.7408 169.8825 1016.7586 168.3177 1019.2176 166.1941 1020 164.4057 1018.0999 166.4176 1008.5993 168.5413 1004.4638 172.4532 1005.5815 180.389 1001.8931 178.1536 1000.6636 173.1239 1001.5578 170.5531 1000.5518 172.3415 997.9811 175.4711 995.5221 178.936 993.7338 181.9538 993.0631 189.1072 994.8515 191.9014 993.9573 192.3485 989.2629 189.8895 990.2689 187.9894 989.9336 186.4246 988.5923 185.3069 986.6922 189.5542 981.886 189.7778 979.8741 185.8658 979.0917 183.0715 978.0858 181.842 976.1857 180.5008 975.068 177.3712 976.6328 177.8183 977.3034 178.1536 978.5329 178.4889 979.0917 174.8004 979.0917 173.0121 979.4271 171.4473 980.433 174.2416 981.5507 177.93 983.5626 180.5008 986.2451 180.389 989.2629 177.5947 986.9157 173.7945 985.2392 169.7707 984.5685 166.5294 985.4627 167.2 986.804 168.0942 987.8099 169.2119 988.7041 170.5531 989.2629 165.9705 993.0631 163.1762 994.8515 160.4937 995.5221 160.6055 995.1868 160.4937 994.4044 160.1584 993.5102 159.4878 993.0631 150.5461 993.0631 152.3344 990.2689 158.5936 986.2451 160.4937 982.892 159.376 979.7624 153.1168 976.1857 153.5639 972.8326 150.6579 973.3914 148.9813 976.0739 147.64 979.4271 146.0752 982.3331 143.8398 984.0097 141.3809 984.7921 138.8101 984.7921 130.4273 983.4508 128.7507 982.892 124.8387 979.5388 123.2739 979.0917 120.0326 978.8682 117.6854 977.7505 116.7912 975.5151 117.7971 971.6031 114.2205 973.8385 112.8792 974.1738 113.4381 971.0442 114.6675 969.1441 116.5677 968.1382 119.3619 967.8029 121.1503 967.1322 124.8387 964.4497 126.8506 964.1144 128.8625 964.8968 132.6627 967.3558 135.2334 967.8029 137.5806 967.6911 139.5925 967.1322 141.2691 966.0145 142.6103 964.1144 141.6044 962.6614 139.9278 963.8909 138.363 964.1144 136.7982 963.5556 133.6686 960.7613 132.998 960.5377 132.5509 959.9789 131.7685 957.6317 131.3215 954.055 132.6627 952.7138 138.6983 952.602 145.0693 951.3725 146.7459 952.0431 147.3047 953.6079 147.64 955.3963 148.5342 956.514 151.552 956.7375 152.558 950.5901 155.464 949.0253 154.2345 946.1193 151.8873 945.0015 146.0752 945.1133 143.3927 944.6662 138.4748 942.8779 136.2394 942.4308 133.8922 942.9897 126.8506 946.4546 119.809 947.7958 117.7971 949.0253 106.8436 942.4308 102.0374 937.5129 99.1314 936.1716 97.9019 939.5248 96.3371 940.7542 92.6486 941.6484 85.9424 942.4308 68.9531 939.1894 67.5001 937.2893 68.5061 935.1657 71.971 933.7127 78.9008 933.2656 81.8068 931.7008 82.9245 928.0123 83.9305 927.5652 89.9661 926.224 91.0838 924.771 93.431 920.1883 94.884 918.6235 98.2372 917.9529 100.5844 919.6295 104.3846 925.5534 105.8376 924.8827 114.7793 918.6235 111.0909 917.0587 103.4904 918.2882 99.3549 915.3822 97.343 912.9232 97.0077 911.4702 96.8959 908.4524 98.349 896.8282 99.0196 894.9281 105.3905 884.9804 106.3965 882.8568 108.1848 877.2682 109.8614 875.3681 110.9791 874.921 111.7615 875.1446 112.2086 876.4858 111.8733 879.1683 113.6616 877.1564 116.1206 873.0209 118.2442 868.5501 118.9149 865.4205 117.9089 863.5204 115.3382 861.5085 114.7793 859.6084 115.1146 857.3729 115.4499 855.8081 115.2264 854.3551 112.991 852.5668 113.4381 851.1138 115.4499 851.002 118.356 852.6785 120.0326 851.5608 121.262 851.2255 122.0444 853.0139 124.2799 855.4728 127.4095 852.5668 130.7626 850.7784 134.3393 853.2374 135.3452 851.2255 135.2334 847.7606 135.6805 844.9663 134.1157 843.4015 132.998 841.1661 132.7745 838.9307 133.6686 837.2541 135.7923 838.0365 137.3571 841.0543 138.5866 843.7369 141.8279 843.178 142.3868 841.725 141.7162 839.0425 141.9397 836.5835 143.281 837.1424 143.8398 838.9307 145.2928 839.8249 147.7518 839.1542 149.9872 838.8189 153.4521 836.5835 154.5699 836.4717 156.1347 837.813 159.4878 839.0425 160.9408 837.4777 162.1703 836.807 163.7351 834.9069 165.9705 833.4539 169.3237 832.0009 173.4592 832.2244 174.8004 832.3362 178.1536 833.3421 179.9419 833.5657 180.2772 833.0068 180.5008 831.6656 181.2832 830.2125 182.9597 829.6537 189.3307 833.5657 190.0013 835.354 190.4484 838.8189 191.3426 839.8249 193.1309 839.4895 193.8015 837.813 194.2486 835.8011 194.9193 834.7952 196.3723 835.354 197.7135 836.5835 198.8312 838.0365 199.2783 839.266 200.8431 841.8367 204.308 843.8486 208.3318 844.631 211.2378 843.8486 209.8966 842.3956 208.22 839.6013 207.3259 838.5954 205.7611 838.1483 202.7432 838.0365 201.2902 837.2541 194.6957 828.9831 192.3485 827.0829 190.4484 826.7476 186.9835 826.7476 185.3069 825.8535 184.4128 824.624 180.6125 817.6942 180.8361 816.8 180.7243 816.6882 179.4948 816.9118 179.0477 817.6942 178.4889 819.259 177.3712 820.6002 175.4711 820.712 176.7006 821.7179 177.8183 822.8356 178.8242 824.1769 176.5888 825.5182 172.2297 827.7536 169.9943 827.1947 168.4295 824.624 167.5353 824.624 166.6411 827.0829 165.2999 827.7536 161.3879 827.0829 161.1644 826.5241 160.829 825.5182 160.2702 824.624 159.4878 824.624 158.7054 825.7417 159.0407 826.8594 159.8231 827.8653 160.4937 828.536 160.4937 829.6537 158.3701 830.4361 156.1347 830.4361 153.8992 829.5419 151.9991 827.7536 151.105 825.7417 151.6638 824.1769 154.5699 820.712 153.4521 820.1531 152.558 819.3707 153.2286 817.5824 152.4462 815.4587 150.7696 813.6704 148.5342 813.1116 149.2048 817.5824 147.193 823.618 143.0574 823.8416 141.4926 821.4944 140.822 819.259 138.5866 818.1413 136.91 816.6882 135.6805 811.7703 136.5747 808.6407 137.2453 805.5111 137.6924 798.4695 137.916 795.3399 139.5925 790.8691 140.9338 786.51 143.3927 782.8216 144.9575 779.692 144.6222 777.6801 146.6341 774.8858 149.6519 769.5208 152.3344 765.8323 153.5639 762.7028 155.1287 760.132 158.0348 760.132 161.6114 760.2438 164.4057 759.5732 157.0288 758.4554 157.3641 757.0024 157.923 755.6612 157.923 754.3199 157.3641 753.314 157.5877 752.0845 157.4759 750.5197 157.8112 749.1784 158.3701 748.2843 158.4818 747.6136 157.4759 746.7195 158.8172 744.9311 160.382 744.2605 163.9586 744.1487 165.6352 743.5899 165.1881 742.2486 163.9586 740.5721 163.5116 739.0073 165.6352 735.3188 168.7648 733.8658 172.2297 733.9776 175.4711 735.207 174.5769 732.301 173.2356 730.9597 172.9003 729.1714 178.4889 718.8884 180.389 716.9883 178.0418 716.7648 176.2535 715.2 175.4711 712.741 176.477 709.4997 175.8064 708.829 174.4651 706.9289 176.0299 707.376 176.5888 707.7113 177.3712 708.2702 180.5008 706.4818 181.7303 705.0288 182.4009 703.0169 179.3831 703.1287 170.4414 701.6757 167.6471 700.4462 167.9824 697.7637 171.4473 692.734 169.8825 692.6222 168.3177 692.734 166.8647 693.2928 165.5234 693.9635 165.9705 689.0455 168.0942 686.2513 170.8884 684.0158 173.4592 681.1098 174.2416 678.8744 174.8004 676.3036 175.8064 674.18 179.9419 672.5034 181.1714 670.6033 181.3949 668.0326 180.389 665.5736 178.1536 667.2502 163.0645 675.1859 159.8231 676.3036 158.5936 677.1978 157.2524 677.5331 156.0229 676.6389 152.2227 671.8328 151.552 671.3857 150.2108 669.5974 147.64 668.9267 146.2988 667.6972 148.5342 664.3441 138.6983 664.3441 139.1454 665.4618 140.1514 668.3679 140.7102 669.4856 134.2275 669.4856 132.7745 669.0385 132.4392 668.1443 132.3274 666.9149 131.7685 665.5736 130.8744 664.1206 130.5391 662.8911 129.9802 662.1087 128.1919 661.8851 125.9564 662.3322 124.6152 662.444 122.7151 661.8851 121.5974 661.1028 118.4678 658.1967 117.7971 657.3025 117.3501 655.9613 116.3441 655.7377 115.0029 655.7377 113.8851 655.2906 109.7496 651.0433 108.1848 650.8198 106.8436 654.0612 105.167 652.7199 103.2669 652.0493 101.5903 650.9316 100.2491 645.343 98.6843 642.9958 96.4488 641.2075 93.9899 639.7545 91.6427 638.9721 88.4013 638.525 87.2836 638.0779 86.7248 636.2895 82.5892 635.9542 81.0244 634.7248 80.4656 630.4774 79.0125 628.1303 78.1184 630.2539 78.0066 632.154 78.5655 633.8306 79.4596 635.2836 80.242 637.519 79.5714 639.6427 79.5714 641.9899 78.6772 643.5547 78.789 645.4548 80.5773 646.1254 80.0185 649.0315 78.2301 649.1432 76.6653 650.3727 77.2242 652.2728 78.6772 654.2847 77.4477 654.8436 74.6535 653.8376 71.6356 655.626 68.6178 658.532 64.9294 660.4321 63.6999 663.6735 63.2528 664.4559 61.2409 663.0029 61.3527 662.2205 61.4645 661.6616 62.0233 660.4321 61.0174 660.2086 60.4585 659.8733 60.1232 659.3144 59.3408 657.3025 61.9116 654.2847 62.4704 650.8198 64.3705 649.5903 65.0411 646.9078 64.5941 644.3371 63.5881 644.2253 62.3586 645.0077 61.2409 645.0077 60.6821 644.2253 59.7879 641.9899 59.229 641.0957 57.8878 640.2015 56.5465 639.8662 55.6524 639.4191 55.2053 637.8543 55.4288 636.1778 56.0994 633.16 56.2112 631.3716 55.5406 630.4774 52.8581 628.9127 52.1875 627.4596 52.7463 623.6594 52.6345 622.3182 51.2933 621.7593 46.1518 621.5358 33.7452 619.1886 33.1864 619.4121 32.6275 619.971 32.0686 620.418 31.398 620.3063 30.7274 619.7474 30.1685 618.1826 29.8332 617.8473 29.2744 617.1767 28.7155 613.7118 28.2684 612.5941 27.2625 612.147 23.3505 611.3646 21.3386 607.4526 20.3327 606.1113 19.3267 604.9936 18.3208 604.2112 17.4266 603.6524 18.9914 601.3052 20.8915 600.2992 22.9034 599.7404 24.4682 598.5109 25.3624 595.8284 26.3683 586.6631 29.6097 581.857 33.7452 582.5276 38.3278 584.2042 43.2458 582.8629 40.3397 581.2981 33.5217 580.9628 30.2803 580.2922 27.5978 578.0568 26.4801 574.8154 25.9212 571.4623 24.4682 568.5562 26.7036 566.209 47.3813 546.5373 47.9402 546.202 49.505 545.8667 50.3991 545.3078 50.6227 544.5254 50.8462 542.4018 51.2933 541.3958 53.5287 539.2722 59.4526 535.4719 61.7998 532.9012 64.0352 531.3364 71.3003 529.6598 74.0946 528.2068 75.6594 525.189 76.8889 520.7182 78.2301 516.8062 80.5773 515.1296 83.9305 514.3472 86.9483 512.3353 93.9899 505.182 99.0196 498.6992 99.9138 496.352 100.6961 495.2343 102.1492 496.5756 103.4904 498.5875 103.9375 499.5934 105.0552 500.1523 106.3965 500.5993 109.9732 500.9347 113.8851 500.264 116.7912 500.4876 119.5855 500.264 121.8209 499.5934 122.4915 497.6933 121.4856 495.2343 119.809 492.8871 118.0207 490.5399 118.0207 487.9692 119.4737 485.622 123.0504 484.169 126.5153 482.9395 128.8625 481.4865 132.4392 479.9217 135.1217 478.2451 138.0277 476.1215 142.1633 474.2213 147.193 472.5448 150.9932 470.8682 153.0051 470.1976 154.2345 468.7446 155.1287 466.8444 156.0229 464.7208 158.3701 463.7149 160.4937 463.4913 162.7292 464.4972 164.6293 465.1679 167.4235 464.2737 168.5413 464.1619 169.8825 464.609 171.5591 466.2856 172.565 466.8444 175.8064 466.9562 176.3652 465.5032 176.0299 463.156 176.0299 462.9325 176.5888 460.3617 177.7065 459.4675 180.1655 459.9146 181.5067 459.0205 181.9538 457.791 182.0656 455.1085 182.5127 453.6554 183.8539 451.42 185.3069 450.3023 187.0953 449.967 193.1309 449.7435 195.031 448.9611 196.037 446.8374 196.3723 442.7019 197.0429 438.9017 198.7195 437.6722 200.8431 438.231 202.855 440.0194 203.9727 441.5842 204.308 442.143 212.8026 442.0312 214.8145 440.69 213.4733 437.7839 209.3377 432.7542 214.9263 425.6009 217.9441 423.4772 218.2794 423.1419 222.7503 422.2477 223.9798 421.6889 224.7622 420.4594 225.321 419.1182 226.2152 418.3358 227.6682 418.224 228.7859 418.5593 235.0451 421.3536 236.4981 421.2418 242.422 416.9945 244.2103 416.1003 246.5575 415.765 248.1223 416.771 249.7989 418.6711 251.5872 419.9006 253.5991 418.8946 255.7228 417.218 260.1936 416.771 261.982 415.765 263.0997 413.8649 262.3173 412.9707 260.4172 412.7472 258.07 412.9707 259.7465 410.1765 262.2055 409.2823 264.9998 408.8352 267.4587 407.0469 270.3648 402.4642 271.259 400.1171 270.9237 398.4405 271.8178 396.9875 273.0473 395.8697 274.3886 395.1991 275.9534 394.6403 275.618 392.1813 277.0711 390.1694 279.1947 388.0458 280.8713 385.475 278.8594 381.8983 282.2125 378.657 298.6429 368.8211 300.7666 367.0328 302.1078 364.7974 305.7963 356.4145 307.4728 354.2909 311.0495 350.6024 312.7261 348.367 316.0792 340.4312 317.644 337.9723 324.7974 329.2541 329.38 325.7892 333.6273 325.7892 333.1802 326.6834 332.8449 327.354 332.5096 328.0246 331.6154 328.5835 331.6154 330.0365 336.6451 328.5835 336.6451 323.6656 334.6332 317.5182 333.6273 312.6002 334.5215 310.1413 339.5512 302.0937 341.8983 293.2638 344.5809 288.0106 345.1397 285.3281 344.5809 282.8691 343.0161 280.1866 343.1278 277.8394 348.1575 272.3626 350.5047 267.78 352.8519 267.2211 357.9934 267.5564 359.5582 266.5505 364.1408 262.3032 366.488 260.8502 364.4761 259.1736 362.3525 257.9441 360.5641 256.4911 359.4464 254.1439 361.9054 253.138 364.2526 253.138 366.3762 253.9204 368.3881 255.4851 372.7472 260.2913 375.2062 261.9679 376.3239 260.1795 378.224 255.3734 386.2715 251.9085 388.1716 246.8788 389.5129 244.6433 392.6425 242.4079 395.7721 241.5138 397.1133 242.9668 397.3369 247.2141 398.1193 248.3318 399.9076 248.1083 403.149 248.7789 405.8315 251.0143 410.7494 255.0381 412.0906 254.8145 412.6495 257.3853 415.7791 262.415 417.0086 264.8739 414.5496 264.5386 412.9848 265.4328 412.5377 267.3329 413.0966 270.2389 414.4378 272.1391 416.6733 273.5921 421.1441 275.4922 420.697 276.2746 420.0264 278.1747 422.4854 278.51 429.974 281.5278 431.9859 283.4279 428.8563 284.6574 425.7267 286.5575 423.0442 289.1283 421.1441 292.705 422.1501 292.8167 423.4913 293.152 424.4972 293.8227 425.3914 295.7228 426.6209 295.2757 428.521 294.0462 429.8623 294.3815 430.6447 295.2757 431.2035 296.1699 431.9859 296.6169 433.1036 295.7228 435.0037 291.8108 435.8979 291.0284 438.1333 292.0343 441.3747 294.4933 443.3866 295.0521 444.7278 294.6051 445.7338 294.0462 446.7397 293.9344 447.8574 295.0521 447.9692 296.3934 447.075 297.6229 445.8455 298.5171 444.9514 298.9641 447.4103 300.0818 450.2046 300.976 455.7932 301.6466 457.2462 301.3113 459.7052 300.3054 460.9347 300.1936 462.2759 300.7525 463.3936 301.6466 464.176 302.5408 464.6231 302.9879 467.8645 303.2114 470.2117 302.2055 472.2235 300.976 474.6825 300.1936 477.1415 300.8642 479.7122 302.2055 482.1712 302.9879 484.6301 301.6466 484.9655 306.0057 486.9773 308.0176 492.5659 309.5824 497.3721 312.9355 498.4898 313.4944 499.7193 312.9355 501.3958 310.253 502.0664 310.253 505.9784 311.7061 519.7263 312.1531 523.4147 310.8119 526.0972 312.712 529.0033 313.2708 531.3505 312.0414 532.3564 308.9118 533.8095 307.4587 536.9391 306.4528 542.8629 305.5586 547.222 309.5824 548.675 308.8 549.9045 307.4587 551.134 305.5586 552.6988 307.6823 552.8106 311.1472 552.587 314.6121 553.1459 316.7358 554.3754 317.0711 555.8284 316.624 558.2873 315.2827 557.7285 319.53 560.2992 321.5419 563.7641 321.4301 565.9996 319.4183 568.1232 320.536 565.9996 323.3303 572.147 323.8891 577.8473 318.4123 592.7129 291.2519 594.9483 283.7633 592.0422 279.516 591.8187 276.051 589.9186 272.1391 587.3479 268.8977 583.4359 267.1094 577.9591 262.5267 574.0471 258.8383 573.3765 254.591 571.9234 250.4554 564.9936 237.2664 564.2112 233.578 559.2933 232.0132 557.8403 229.2189 556.7226 226.2011 553.9283 209.5472 554.04 206.6411 555.9402 203.9586 558.8462 203.0645 565.5525 202.9527 588.9127 196.3582 603.6664 197.5877 607.1314 198.7054 610.0374 201.0526 616.8554 200.7173 621.7734 203.1762 623.7853 203.5116 629.8209 201.1644 631.1622 201.3879 632.8387 202.6174 634.18 201.835 636.1919 198.8172 637.6449 197.4759 639.0979 196.8053 649.9397 197.6994 653.8517 196.8053 655.5283 193.4521 669.4997 194.1228 679.112 196.8053 682.018 197.5877 687.2713 195.7993 689.5067 188.0871 690.7362 185.4046 693.8658 184.6222 697.3307 184.1751 699.9014 182.8339 703.7017 178.6983 705.1547 176.1276 705.3782 172.6627 708.8431 174.7864 711.3021 175.0099 713.4257 173.5569 717.4495 168.7507 721.8086 164.9505 724.4911 161.8209 725.6088 160.815 726.6147 159.6972 727.0618 158.5795 726.3912 156.7912 723.1498 156.5677 722.2557 155.2264 722.591 152.991 723.8205 151.8733 725.3853 151.3144 726.6147 150.532 727.1736 148.8554 727.0618 147.1789 727.3971 145.8376 729.0737 144.4964 727.956 143.2669 726.8383 142.4845 725.497 142.0374 724.1558 141.9256 724.1558 140.4726 728.8502 140.4726 730.3032 139.3549 731.1974 136.4488 730.862 135.4429 729.9679 134.884 729.1855 134.2134 729.0737 132.4251 729.5208 130.7485 730.1914 129.4073 731.3091 128.6249 739.0213 126.9483 740.0273 126.5012 740.5861 122.9245 741.7039 120.0185 743.3804 119.1243 745.057 121.5833 747.0689 120.3538 745.8394 118.6772 745.1688 116.8889 745.3923 115.4359 747.0689 114.9888 748.6337 115.5476 749.9749 118.0066 751.9868 118.9008 753.3281 118.4537 754.8928 117.336 756.793 116.33 758.9166 116.33 765.9582 122.2539 766.9641 123.9305 770.9879 126.1659 771.8821 127.6189 772.4409 129.7426 773.6704 130.4132 775.1234 130.0779 776.3529 128.9602 777.1353 126.9483 777.2471 125.0482 777.6942 123.5952 781.2708 122.1421 782.2768 120.0185 782.3886 117.4477 781.8297 114.9888 787.8653 115.4359 793.3421 117.0007 798.0365 116.1065 801.725 109.512 802.3956 102.4704 802.0603 94.7582 802.8427 87.9402 806.6429 83.8046 806.6429 82.5751 804.1839 82.0163 803.5133 79.3338 804.9663 76.6513 808.6548 75.7571 807.9842 72.851 809.1019 71.1745 810.2196 69.945 810.1078 68.3802 808.3195 66.7036 806.8664 65.9212 805.8605 64.58 805.637 60.8915 805.8605 58.4326 806.4194 56.1971 808.2077 52.1734 810.5549 47.0319 811.3373 44.3494 811.8961 38.3138 817.0376 24.3424 818.0436 22.3305 818.826 20.2068 818.9377 15.6242 819.4966 13.5006 821.1732 12.1593 825.5322 11.6004 827.5441 10.7063 826.2029 10.1474 825.0851 9.365 824.191 8.2473 823.6321 6.7943 825.1969 6.1237 827.8794 4.3353 829.556 4 831.4561 4.3353 832.5738 5.2295 836.9329 11.1534 838.3859 12.6064 840.3978 13.5006 842.1861 13.8359 847.8865 13.5006 854.7045 10.5945 858.6165 9.5886 860.4048 11.3769 859.9578 14.0594 858.84 17.189 857.2752 20.095 855.3751 21.5481 861.4108 24.3424 869.123 24.2306 875.7175 25.3483 878.2882 32.3899 876.1646 49.1556 876.2763 56.756 879.1824 63.6858 887.0064 71.7333 888.1241 75.1982 898.0717 83.8046 899.6365 84.2517 900.866 84.1399 902.0955 84.2517 903.1014 85.1459 903.4367 86.7107 902.8779 90.5109 903.5485 92.6345 906.6781 95.0935 908.9135 93.9758 909.3606 91.0697 907.0134 87.9402 908.9135 85.0341 911.2607 83.134 913.8315 82.9105 915.9551 85.1459 916.4022 87.2695 917.1846 95.0935 918.0788 98.782 919.7553 102.6939 919.9789 103.4763 920.2024 105.7118 920.7613 106.6059 921.5437 107.1648 922.1025 108.1707 924.5615 115.4359 926.2381 118.1184 928.9206 120.3538 932.1619 121.4715 934.7327 124.2658 936.2975 127.7307 936.8563 132.4251 936.8563 137.343 937.1916 140.0255 938.6447 141.8139 942.5567 144.9435 941.886 146.1729 937.8623 147.4024 932.609 149.079 930.4854 149.4143 928.5853 151.2026 927.6911 151.3144 927.8029 147.7377 927.6911 145.6141 927.3558 144.3846 925.4557 142.4845 923.6673 141.0315 919.42 140.4726 916.2904 138.5725 915.0609 137.0077 910.8136 136.2253 908.5782 137.2312 909.1371 139.6902 907.237 141.7021 904.8898 142.2609 903.6603 140.4726 901.8719 139.2431 900.1954 139.2431 900.0836 140.9197 899.9718 142.5963 898.1835 144.0493 896.7305 145.7259 897.0658 148.4084 897.0658 149.7496 897.7364 151.0909 898.9659 151.2026 899.9718 151.7615 899.9718 153.8851 899.1894 155.3382 898.0717 155.0029 895.9481 152.3204 894.3833 152.7674 893.3773 155.1146 894.7186 157.3501 893.042 157.9089 892.0361 160.4796 889.6889 160.9267 889.0183 165.2858 887.2299 166.6271 885.5534 166.9624 885.7769 164.0563 886.7828 159.9208 885.6651 156.5677 883.765 156.3441 877.5058 162.6033 874.2645 167.0741 872.2526 168.6389 870.3525 168.7507 870.6878 171.545 869.9054 182.9457 869.123 182.9457 867.8935 182.3868 866.3287 183.3927 864.3168 186.0752 864.7639 186.4106 865.211 187.64 864.2051 188.5342 862.8638 188.1989 860.4048 186.187 858.5047 185.1811 854.481 185.1811 851.6867 187.4165 850.9043 191.105 850.7925 192.558 848.6689 192.8933 848.2218 194.4581 847.5512 195.6876 846.3217 200.4937 845.9864 203.6233 844.9804 204.1822 843.1921 199.9349 841.5155 200.6055 841.292 204.6293 838.4977 206.0823 839.5036 206.9765 840.1743 207.9824 841.4037 210.1061 840.0625 210.5531 838.9448 211.4473 837.38 214.1298 837.9388 213.6827 837.4917 215.5828 836.8211 217.93 836.4858 218.8242 835.927 222.5127 834.4739 223.7421 833.3562 223.1833 832.015 221.5067 828.5501 220.0537 826.0911 221.3949 825.1969 225.5305 824.191 230.5602 824.3028 237.0429 822.1791 243.4139 820.0554 245.2022 819.6084 248.5553 818.2671 249.673 815.9199 245.8728 814.0198 245.9846 808.4312 249.5613 806.6429 255.1498 804.7428 261.8561 803.5133 264.2033 799.7131 265.8799 796.2482 270.9096 795.1305 277.1688 793.1186 285.2163 790.1008 290.3578 791.7773 294.9404 791.442 298.1817 790.6596 301.0878 791.6656 306.7881 794.9069 310.9237 797.813 313.7179 799.6013 315.5063 802.7309 315.171 803.9604 317.9652 805.9723 320.7595 807.5371 321.989 808.543 322.1008 810.7784 321.6537 811.5608 321.989 812.9021 323.8891 812.7903 324.5597 812.0079 325.3421 811.5608 327.9129 811.2255 328.4717 810.1078 332.8308 809.996 333.8367 807.7606 335.7369 806.084 339.9842 800.3837 364.2385 799.266 372.8449 801.6132 379.9982 800.719 382.569 800.3837 385.5868 800.6073 391.846 801.6132 400.4524 802.2838 402.3525 804.8546 405.7056 806.9782 407.0469 805.637 408.1646 804.631 412.3001 805.1899 413.6414 802.5074 417.3298 802.9545 421.13 801.1661 425.6009 799.9366 428.1716 798.3718 427.9481 797.2541 426.048 795.2422 426.7186 792.1127 427.3892 789.4301 426.8304 786.8594 427.3892 784.4004 426.9421 782.7239 427.3892 778.9237 427.1657 776.3529 429.1776 775.9058 432.866 773.2233 433.4249 771.0997 435.6603 769.4231 436.3309 765.1758 435.9956 757.9107 438.3428 752.4339 442.2548 747.0689 445.2726 745.2805 447.2845 743.604 450.4141 741.145 456.338 740.0273 458.9087 738.9096 458.4616 737.5683 457.0086 736.3388 454.3261 735.2211 452.426 732.7622 452.2024 729.8561 452.873 727.6207 454.6614 726.8383 456.5615 725.9441 458.5734 725.9441 459.6911 726.0559 460.9206 725.2735 462.2618 725.0499 463.3795 724.7146 465.7267 724.044 466.8444 723.5969 468.7446 723.1498 469.8623 722.0321 471.2035 721.3615 472.3212 721.2497 474.3331 721.0262 479.0275 719.3496 479.5864 718.5672 481.3747 717.8966 483.3866 712.6433 489.9811 707.2783 497.358 700.3485 497.1344 692.5245 499.8169 681.4592 511.5529 675.7589 516.5826 671.3998 517.365 668.9408 519.7122 664.2464 521.277 661.7875 521.3888 659.9991 523.5124 655.64 522.8418 650.7221 524.2948 648.0396 528.2068 646.2513 528.2068 646.0277 526.4185 643.2334 527.7597 640.7745 530.7776 640.3274 535.6955 642.1157 536.7014 646.2513 538.378 646.8101 540.1663 647.8161 541.6194 647.0337 544.4136 647.369 548.9963 645.3571 549.7787 644.0158 551.0081 643.0099 552.2376 642.2275 553.02 641.1098 552.9083 639.2097 551.9023 636.3036 551.7905 634.7388 553.02 629.7091 555.479 628.7032 558.4968 627.4737 559.9498 624.903 561.5146 620.5439 561.6264 618.532 563.5265 616.073 566.4326 614.0612 567.4385 610.5963 568.8915 607.802 568.3327 603.89 568.7798 599.978 574.4801 598.525 581.857 594.7248 580.851 591.5952 574.7036 589.1362 572.58 585.2242 574.2565 583.9947 576.492 585.0007 581.6334 583.6594 581.9688 580.418 581.5217 578.965 581.6334 577.4002 582.1923 574.8295 583.7571 573.4882 584.0924 572.2587 583.6453 571.8117 582.8629 571.141 581.9688 551.9164 578.6156 551.2458 579.5098 551.134 582.1923 550.6869 583.31 549.4574 584.316 548.0044 585.0983 546.6631 585.4337 545.6572 586.3278 543.31 590.5751 542.3041 591.9164 540.851 592.4752 537.3861 590.2398 535.1507 594.4871 535.1507 597.7285 534.1448 605.6642 532.8035 607.4526 519.2792 608.7938 521.4029 610.6939 521.0675 612.5941 516.4849 614.8295 511.4552 614.1589 506.8726 615.8354 504.5254 621.8711 502.0664 623.6594 500.0546 620.9769 496.3661 619.0768 494.0189 622.9888 491.8953 623.7712 489.4363 625.6713 487.4244 628.0185 485.6361 632.2658 481.5006 634.9483 480.4946 636.5131 480.2711 637.9661 478.9298 640.8722 478.5945 642.437 478.7063 644.1135 479.3769 646.9078 479.7122 651.3787 480.1593 653.3905 481.1652 654.1729 482.5065 654.0612 486.0832 655.7377 488.6539 659.3144 489.2128 663.5617 483.736 671.721 481.3888 679.545 483.6242 692.0634 487.5362 710.8409 487.4244 715.9824 486.3067 717.8825 484.7419 718.6649 483.0653 718.1061 481.6123 715.9824 481.3888 713.5234 482.3947 710.7292 484.5184 705.5877 479.4887 698.5461 479.0416 695.9754 477.7003 693.9635 475.912 693.2928 474.1237 694.6341 469.7646 698.7696 469.4293 699.3285 468.4233 700.7815 467.6409 701.6757 460.8229 704.2464 460.8229 705.5877 462.4994 706.4818 465.9644 707.376 467.6409 708.2702 469.4293 706.9289 471.7765 706.2583 473.6766 707.0407 474.5707 710.0585 473.5648 711.5116 469.0939 712.5175 467.6409 713.2999 466.8585 712.1822 466.0761 711.3998 465.182 710.9527 464.176 710.7292 462.723 711.1762 462.8348 712.1822 463.5054 713.4117 463.7289 714.5294 462.0524 719.5591 460.8229 724.8123 459.9287 730.1773 461.4935 733.6422 462.9465 737.4425 465.182 739.0073 466.8585 739.7897 469.8763 743.2546 471.5529 744.1487 474.3472 743.7017 475.0178 742.0251 474.5707 740.125 474.5707 739.0073 477.1415 738.6719 480.1593 745.9371 483.0653 747.8372 493.9072 746.7195 497.4838 747.8372 499.1604 749.2902 500.3899 750.9668 501.8429 752.4198 503.8548 753.0904 513.8024 752.9787 516.0378 753.314 517.4909 754.767 520.844 760.6909 525.4266 767.0618 526.3208 768.9619 527.215 771.6444 529.4504 774.8858 534.3683 779.9155 534.8154 782.3745 535.3743 783.0451 536.7155 781.8156 537.7215 781.2568 538.5039 781.8156 539.0627 783.0451 539.6216 785.8394 540.2922 787.4042 541.4099 788.4101 542.7512 788.8572 545.4337 790.422 550.3516 798.3578 553.0341 801.5991 564.2112 804.2816 581.424 825.8535 583.6594 824.9593 590.1421 821.3826 591.9305 820.712 596.4013 827.7536 597.519 828.8713 599.978 830.3243 601.431 831.6656 603.1076 835.0187 603.2194 835.5776 603.3311 838.2601 603.2194 841.6132 603.89 844.9663 603.89 845.0781ZM105.167 661.7734L104.4964 663.0029 102.708 663.897 104.2728 667.9208 106.1729 671.9446 103.0433 673.8447 98.9078 676.3036 95.7782 679.9921 92.9839 680.5509 89.519 682.3393 92.2015 677.5331 93.9899 678.3155 95.1076 676.1919 92.9839 674.2917 93.3193 673.3976 94.9958 673.174 95.1076 672.3916 95.4429 671.4975 94.6605 670.8268 94.6605 667.5855 97.0077 666.2442 96.8959 663.4499 98.6843 661.8851 98.4607 660.3204 101.1432 659.985 105.167 661.7734ZM98.9078 862.8497L101.3668 867.097 101.9256 869.2207 95.6664 867.4323 92.7604 866.0911 89.9661 863.9674 86.7248 866.5382 85.3835 864.8616 86.0541 861.8438 91.5309 858.2671 93.2075 857.9318 93.9899 859.6084 96.3371 860.3908 98.0136 861.3967 98.9078 862.8497ZM163.5116 1003.3461L164.8528 1003.0108 161.1644 1008.0405 158.7054 1010.4994 154.9052 1012.9584 153.6757 1014.1879 151.6638 1015.6409 148.646 1016.1998 147.8636 1014.8585 152.1109 1009.7171 154.1228 1008.7111 155.6876 1009.3817 156.0229 1008.1523 156.3582 1006.4757 157.1406 1006.4757 157.4759 1006.2521 157.6994 1005.6933 158.2583 1005.358 159.2642 1005.2462 163.5116 1003.3461ZM137.2453 999.8812L136.5747 998.3164 136.3512 997.3105 137.0218 996.8634 139.9278 994.7397 142.4986 993.7338 143.1692 993.7338 143.6163 994.4044 143.8398 995.1868 143.3927 995.5221 142.6103 995.7457 140.7102 997.7575 138.4748 999.6576 137.2453 999.8812ZM120.2561 990.6042L121.7091 990.9395 122.268 992.7278 121.8209 994.0691 121.5974 993.9573 121.1503 994.0691 119.5855 995.7457 118.1325 996.1927 116.5677 996.1927 115.4499 995.7457 115.4499 994.8515 116.2323 994.4044 116.7912 993.7338 117.5736 993.1749 118.5795 993.5102 119.4737 993.9573 119.9208 993.7338 120.1443 993.0631 120.1443 992.6161 119.809 991.7219 120.2561 990.6042ZM70.5179 676.4154L71.4121 674.8506 72.9769 674.5153 73.424 675.7448 73.424 677.8684 72.9769 679.8803 71.971 680.998 70.0708 680.8862 69.4002 679.9921 69.9591 678.4273 69.7355 677.5331 70.5179 676.4154ZM70.4062 673.0623L68.7296 674.18 66.7177 674.2917 64.2587 672.5034 58.3349 674.18 57.8878 674.6271 57.2172 674.4035 57.4407 673.0623 58.4466 672.1681 59.8997 671.3857 62.2469 669.262 62.9175 669.4856 64.9294 669.1503 68.5061 668.1443 71.0768 668.3679 72.0827 669.5974 71.6356 671.3857 70.4062 673.0623ZM57.2172 694.6341L56.7701 692.9575 56.7701 691.5045 57.9996 690.9457 59.6761 689.4926 59.8997 691.0574 60.0114 691.3927 60.3468 691.9516 60.5703 694.0752 58.782 694.9694 58.1113 695.0812 57.2172 694.6341ZM1.8904 623.5476L2.5611 622.877 2.3375 622.2064 2.6728 622.0946 3.1199 621.7593 2.7846 621.424 3.2317 621.2004 3.6788 620.9769 4.1259 620.9769 4.4612 621.3122 4.7965 621.6475 5.02 622.4299 5.5789 622.5417 5.5789 623.1006 5.4671 623.5476 6.026 623.5476 6.026 624.1065 5.8024 624.6653 5.2436 624.7771 4.9083 625.2242 4.2376 625.336 3.7905 626.0066 3.567 626.5655 3.1199 626.5655 2.8964 626.1184 2.114 626.0066 1.4433 625.8948 1.4433 625.7831 1.4433 625.0007 1.5551 624.2183 1.8904 623.5476Z" />
</svg>