<?xml version="1.0" encoding="utf-8"?>
<svg xmlns="http://www.w3.org/2000/svg" viewBox="0 0 1021 323" style="stroke-width:0.25px;stroke-linejoin:round;stroke:#444;fill:#ddd" fill-rule="evenodd">
  <path class="KY" d="M169.5509 260.9763L180.7281 262.3176 191.5699 265.7825 197.6055 273.3829 199.3938 289.5898 187.2108 298.9785 170.2216 301.8846 149.5439 296.296 135.2372 298.4197 122.3835 300.6551 110.9828 302.7788 101.8176 309.2615 91.1993 317.5326 85.2755 318.315 46.1556 313.1735 36.2079 312.5029 25.4779 313.6206 18.4363 318.9856 12.1771 312.3911 13.2948 302.667 15.4185 298.3079 17.5421 291.1546 19.6658 280.4245 19.6658 271.2593 16.7597 262.6529 7.371 255.6113 1 251.364 2.3413 243.54 5.9179 238.5103 14.4125 235.6043 25.4779 239.2927 23.8013 247.6756 29.5017 258.2938 34.6431 270.3651 32.5195 283.2188 41.1259 294.6195 57.5562 294.5077 68.9569 290.1486 70.2981 282.7717 74.769 274.0536 78.2339 275.9537 87.0638 278.4127 86.952 275.5066 86.1696 273.4947 83.3754 269.3592 87.0638 274.0536 85.9461 271.3711 84.3813 269.5827 84.2695 267.9062 87.0638 265.3354 84.2695 262.8765 82.593 260.0822 79.2398 252.37 90.1934 253.7112 112.2123 263.1 124.0601 265.3354 156.5855 260.8646 169.5509 260.9763ZM829.895 38.2164L847.4431 38.3282 864.097 31.7337 874.1564 37.6575 871.8092 38.7752 865.9971 42.4637 850.3492 47.0463 805.7525 70.1829 784.6277 67.1651 793.4576 55.5409 803.6288 49.8406 815.3648 40.34 829.895 38.2164ZM929.7067 37.8811L971.2856 19.8859 991.6279 7.5911 1005.4876 4.0144 1014.0939 7.5911 1017 17.0916 988.6101 32.2925 939.8779 46.5992 916.5177 53.7526 929.7067 37.8811Z" />
</svg>