<?xml version="1.0" encoding="utf-8"?>
<svg xmlns="http://www.w3.org/2000/svg" viewBox="0 0 1021 566" style="stroke-width:0.25px;stroke-linejoin:round;stroke:#444;fill:#ddd" fill-rule="evenodd">
  <path class="KZ" d="M840.0662 508.666L838.9485 507.9954 838.2779 506.9894 837.6073 505.76 836.8249 504.754 835.1483 503.1892 834.2541 501.848 833.9188 501.4009 832.8011 500.7303 827.3243 499.5008 826.2066 499.5008 824.1947 499.8361 821.8475 499.7243 820.618 499.1655 819.9474 498.2713 818.7179 495.5888 817.9355 494.6946 816.0354 493.8004 815.1413 492.9063 814.8059 492.2356 814.4706 491.6768 814.3589 490.8944 814.3589 490.112 814.4706 488.8825 814.2471 488.5472 813.6882 488.3237 812.6823 488.5472 810.7822 489.5531 809.7762 489.4414 808.8821 489.1061 807.2055 488.9943 805.1936 488.2119 802.1758 487.8766 801.7287 487.653 800.9463 486.8706 799.9404 486.3118 797.4814 485.4176 795.8048 485.3058 794.6871 485.4176 794.1283 485.5294 793.2341 486.0882 792.8988 486.3118 792.3399 486.3118 791.334 485.8647 790.7751 485.8647 789.6574 485.9765 788.5397 485.8647 785.8572 486.2 784.7395 485.9765 783.3982 485.0823 782.8394 484.9705 782.1688 484.8587 781.6099 484.9705 781.3864 485.0823 781.051 485.3058 780.3804 485.6411 780.0451 485.4176 779.9333 485.1941 779.8216 484.9705 779.7098 484.747 778.0332 484.4117 776.3567 484.2999 775.7978 484.4117 774.5683 485.0823 774.1212 484.9705 773.6741 484.747 773.2271 484.4117 772.6682 484.0763 771.6623 484.1881 770.9916 483.8528 770.6563 483.8528 770.2092 483.9646 769.2033 484.5234 768.4209 484.747 765.9619 484.2999 765.5149 484.2999 765.0678 484.2999 764.6207 484.1881 764.2854 483.8528 763.6147 482.8469 763.2794 482.6233 762.497 482.288 759.591 481.8409 759.1439 481.6174 758.6968 481.7292 757.6909 482.0645 756.5732 482.0645 756.1261 482.1762 755.5672 482.5116 755.1201 483.1822 754.8966 483.2939 754.7848 483.2939 754.3377 483.1822 754.1142 483.2939 754.0024 483.4057 754.0024 483.5175 753.8906 483.6293 752.9965 484.1881 752.4376 484.2999 751.4317 484.2999 750.4257 484.6352 749.8669 484.747 749.308 484.6352 747.9668 484.0763 747.2961 484.0763 746.8491 484.2999 746.0667 484.9705 745.6196 485.0823 745.396 484.9705 745.1725 484.4117 744.8372 484.2999 744.6136 484.2999 744.0548 484.5234 743.8312 484.5234 741.7076 483.8528 739.4722 483.8528 737.5721 483.4057 737.0132 483.5175 735.3366 484.0763 734.7778 483.9646 732.7659 483.4057 731.8717 483.2939 730.5305 483.4057 730.3069 483.4057 729.9716 483.5175 729.6363 483.741 728.8539 485.9765 728.6304 486.3118 727.9597 486.9824 727.2891 487.5413 726.5067 487.7648 725.9479 487.8766 724.2713 487.2059 723.8242 487.0942 722.8183 487.2059 717.2297 486.4235 715.5531 486.5353 714.8825 486.3118 713.4295 485.4176 712.8706 484.9705 712.0882 484.5234 710.6352 484.0763 709.8528 483.741 709.1822 483.0704 707.0585 482.0645 704.2642 481.6174 703.3701 481.2821 700.7993 479.2702 700.464 478.8231 699.7934 477.7054 699.4581 477.2583 699.011 477.0348 698.0051 476.8112 697.1109 476.1406 696.105 476.0288 695.5461 475.8053 694.3166 474.6876 693.5342 474.3523 692.7518 474.1287 692.0812 473.9052 690.7399 472.6757 690.0693 472.3404 690.7399 473.2345 690.9635 473.7934 690.9635 474.3523 690.5164 474.5758 686.6044 475.0229 686.1573 474.9111 685.2631 474.0169 684.7043 473.7934 684.0337 474.464 683.1395 476.8112 682.2453 477.2583 681.2394 477.2583 680.7923 477.3701 676.545 479.0466 675.3155 479.829 674.9802 480.1644 674.6449 480.6114 673.7507 483.4057 673.1919 484.2999 672.9683 484.747 672.8565 485.4176 672.9683 485.9765 673.3036 487.0942 673.3036 487.653 673.3036 488.2119 672.633 489.6649 671.2917 492.6827 670.9564 493.9122 670.9564 495.1417 671.0682 496.2594 671.5153 497.3771 673.3036 500.842 673.3036 501.4009 672.633 501.5127 671.0682 500.9538 668.8328 500.6185 668.4975 500.1714 668.4975 499.389 668.6092 498.3831 668.2739 497.936 667.6033 497.7124 665.815 497.6007 665.4796 497.4889 665.0326 497.2653 664.4737 496.8183 663.5795 496.4829 662.4618 496.3712 659.3322 496.93 658.4381 496.93 657.6557 496.7065 656.7615 496.2594 656.0909 495.7006 655.3085 494.1358 654.6378 493.4651 653.8554 493.018 650.3905 492.1239 648.6022 492.1239 647.708 492.0121 644.802 490.0002 643.1254 489.3296 639.884 489.2178 639.5487 489.3296 638.8781 489.6649 638.431 489.6649 637.6486 489.4414 634.7426 487.8766 633.2895 487.4295 632.8425 487.3177 632.3954 486.9824 632.0601 486.8706 631.613 486.9824 630.8306 487.2059 629.0422 487.3177 628.2598 487.653 625.4656 489.3296 625.0185 489.4414 624.7949 489.3296 623.789 488.5472 623.5655 488.3237 623.2301 488.4354 622.7831 488.5472 621.6653 488.2119 620.9947 488.2119 620.5476 488.5472 620.3241 489.1061 619.9888 489.5531 619.6535 490.0002 619.2064 490.112 618.6475 490.0002 618.0887 489.7767 617.5298 489.5531 617.0827 489.7767 616.5239 490.7826 616.1886 491.2297 615.8532 491.4532 614.8473 491.7886 614.6238 492.1239 614.6238 492.9063 614.6238 494.2475 614.512 494.6946 614.1767 495.1417 611.9413 495.477 611.0471 496.0359 611.2706 497.2653 611.4942 497.6007 612.3883 498.3831 612.6119 498.7184 612.6119 499.1655 612.2766 499.5008 611.9413 499.7243 611.6059 499.6125 610.3765 498.8301 610.0411 499.2772 609.7058 499.8361 609.3705 500.5067 609.2587 501.0656 609.2587 501.5127 609.3705 501.7362 609.4823 501.9597 609.2587 502.295 608.4763 503.301 608.2528 503.6363 607.5822 504.1952 607.3586 504.6422 607.4704 505.2011 608.4763 506.207 608.9234 506.4306 609.7058 506.6541 608.8117 507.3248 608.0293 507.9954 607.4704 508.2189 607.0233 508.5542 606.5762 508.5542 606.1292 508.666 605.5703 508.4425 604.8997 508.3307 604.6761 508.3307 604.3408 508.3307 604.229 508.5542 604.0055 508.8895 603.8937 509.1131 603.782 509.4484 603.6702 509.6719 603.5584 509.8955 603.2231 510.3426 602.8878 510.7897 602.5525 511.2367 602.2172 511.7956 601.9936 512.4662 601.7701 513.0251 601.5465 513.5839 601.323 514.031 600.8759 514.2546 600.5406 514.4781 600.2053 514.3663 599.87 514.3663 599.6464 514.2546 599.4229 514.1428 599.1993 513.9193 598.9758 513.6957 598.864 513.4722 598.864 513.1369 598.7523 512.9133 598.6405 512.6898 598.4169 512.4662 598.1934 512.2427 597.9699 512.0191 597.7463 511.9074 597.6345 511.9074 597.411 511.7956 596.1815 512.3545 594.952 512.9133 594.505 513.3604 593.9461 513.8075 593.6108 514.4781 593.2755 515.1487 593.2755 515.484 593.1637 515.7076 592.9402 515.9311 592.8284 516.1547 592.6048 516.2664 592.3813 516.3782 592.1578 516.3782 591.9342 516.49 591.7107 516.6018 591.4871 516.7135 591.3754 516.9371 591.1518 517.1606 590.3694 518.6136 589.4752 520.0667 589.1399 520.402 588.8046 520.7373 587.7987 521.5197 586.7927 522.3021 586.1221 522.5256 585.4515 522.8609 585.2279 522.9727 585.0044 523.1963 584.8926 523.4198 584.6691 523.6433 584.3338 524.0904 583.8867 524.5375 583.4396 524.7611 582.8807 524.9846 581.5395 525.0964 580.0865 525.0964 578.4099 525.5435 576.7333 525.9905 576.5098 526.2141 576.2862 526.3259 575.9509 526.7729 575.6156 527.22 574.3861 528.226 573.0449 529.2319 572.3743 529.4554 571.7036 529.679 571.3683 529.9025 571.033 530.1261 570.8095 530.5732 570.6977 531.0202 570.6977 531.2438 570.8095 531.3556 571.033 531.8026 571.1448 532.138 571.2565 532.2497 571.2565 532.4733 571.033 532.585 570.9212 532.6968 570.1388 532.4733 569.4682 532.3615 569.2447 532.4733 569.1329 532.4733 568.574 532.8086 568.127 533.1439 567.9034 533.1439 567.7916 533.1439 567.3446 533.0321 567.0092 532.9204 566.7857 532.9204 566.5622 532.9204 565.8915 533.3674 565.2209 533.8145 564.9974 534.1498 564.662 534.4851 564.5503 534.8205 564.4385 535.1558 564.215 535.044 563.9914 534.9322 563.6561 535.044 563.4326 535.044 562.8737 535.3793 562.3149 535.6029 562.2031 535.7146 562.0913 535.8264 562.0913 535.9382 561.9795 536.0499 562.0913 536.1617 562.0913 536.2735 562.2031 536.497 562.3149 536.6088 562.4266 536.7206 562.5384 536.8323 562.5384 537.0559 562.5384 537.1677 562.5384 537.503 562.5384 537.7265 562.4266 539.2913 562.2031 540.8561 562.0913 541.0796 561.9795 541.3032 561.756 541.5267 561.5325 541.7503 561.0854 541.9738 560.7501 542.3091 560.303 542.5327 559.8559 542.7562 559.297 542.7562 558.7382 542.868 558.5146 542.9798 558.2911 543.0915 558.0675 543.3151 557.9558 543.4268 557.6205 543.9857 557.2851 544.5446 556.391 544.8799 555.6086 545.327 555.2733 545.6623 554.938 546.1094 554.4909 547.4506 554.0438 548.6801 553.7085 549.0154 553.4849 549.3507 552.7025 549.686 552.479 549.7978 551.9201 550.0213 551.5848 550.2449 551.2495 550.4684 551.1377 550.9155 551.026 551.2508 550.9142 551.2508 550.9142 551.1391 550.8024 551.1391 550.6906 551.1391 550.5789 551.0273 550.5789 551.2508 550.5789 551.3626 550.5789 551.8097 550.5789 552.145 550.5789 552.2568 550.5789 552.4803 550.4671 552.5921 550.3553 552.8156 550.3553 552.9274 550.2436 552.9274 550.1318 553.0392 550.1318 553.1509 550.02 553.3745 550.02 553.598 550.1318 554.9393 550.2436 556.3923 550.3553 556.7276 550.4671 556.9512 550.5789 557.0629 550.5789 557.2865 550.8024 557.2865 550.9142 557.3982 551.1377 557.51 551.473 557.51 551.473 557.7336 551.473 557.9571 551.473 558.1806 551.5848 558.4042 551.6966 558.516 551.6966 558.7395 551.8084 558.963 551.9201 559.0748 551.9201 559.1866 551.9201 559.2983 551.5848 559.8572 551.2495 560.3043 551.5848 560.5278 551.8084 560.6396 551.6966 560.8631 551.5848 560.9749 551.3613 561.1985 551.1377 561.3102 550.8024 561.3102 550.4671 561.1985 549.9083 560.9749 549.4612 560.7514 549.2376 560.7514 549.1259 560.7514 549.0141 560.7514 548.9023 560.8631 548.7905 560.9749 548.7905 561.1985 548.6788 561.3102 548.567 561.422 548.4552 561.3102 548.2317 561.3102 548.0081 561.5338 547.8964 561.6455 547.8964 561.7573 547.7846 561.8691 544.8785 560.3043 542.9784 559.2983 541.9725 558.7395 541.0783 558.0689 540.2959 557.3982 539.1782 556.2805 538.0605 555.1628 537.6134 554.9393 537.2781 554.7157 536.7193 554.604 536.2722 554.4922 536.1604 554.4922 536.1604 554.3804 536.1604 554.2686 536.1604 554.1569 536.2722 554.0451 536.3839 553.9333 536.831 553.7098 537.2781 553.598 537.5017 553.3745 537.7252 553.2627 537.837 553.0392 538.0605 552.8156 538.1723 552.5921 538.3958 552.3685 538.5076 551.9215 538.7311 551.4744 538.9547 551.0273 539.0664 550.4684 539.1782 549.9096 539.29 549.3507 539.29 548.9036 539.29 548.3448 539.29 548.233 539.1782 548.0095 539.0664 547.8977 538.9547 547.7859 538.8429 547.7859 538.9547 547.6741 539.0664 547.6741 539.29 547.4506 539.6253 547.2271 539.5135 547.1153 539.4018 547.1153 539.29 547.1153 539.29 546.8917 539.4018 546.78 539.4018 546.6682 539.29 546.3329 539.29 545.9976 538.9547 545.9976 538.7311 545.9976 538.5076 546.4447 538.3958 546.78 538.284 546.5564 538.0605 546.4447 537.9487 546.4447 537.837 546.3329 537.6134 546.4447 537.5017 546.5564 537.3899 546.6682 537.1663 546.78 537.0546 546.5564 536.831 546.2211 536.7193 545.5505 536.7193 544.9916 536.4957 544.6563 536.3839 544.321 535.8251 543.6504 535.2662 542.868 535.2662 542.7562 535.1545 542.5327 535.0427 542.5327 534.9309 542.0856 534.8191 541.5267 534.4838 541.7503 534.1485 541.9738 533.4779 542.4209 532.6955 542.9798 532.4719 542.9798 532.2484 542.9798 531.9131 542.868 531.6895 542.868 531.1307 542.5327 530.6836 542.3091 530.3483 542.1974 530.1248 542.0856 526.8834 542.3091 523.642 542.5327 521.6301 542.6444 518.5006 542.7562 515.818 542.9798 512.1296 543.2033 509.7824 543.3151 506.8763 543.5386 505.8704 543.2033 505.4233 543.0915 504.8645 542.9798 504.3056 542.3091 503.7468 541.6385 502.629 536.7206 501.6231 531.8026 500.7289 527.7789 499.9465 523.6433 499.6112 519.396 499.1641 515.1487 499.0524 515.1487 498.9406 515.1487 498.8288 515.037 498.7171 515.037 498.6053 515.037 498.4935 515.1487 495.4757 515.037 492.7932 515.037 489.9989 515.037 486.9811 515.037 486.8693 514.9252 486.7575 514.9252 486.7575 514.7017 486.7575 514.4781 486.8693 507.9954 486.8693 502.4068 486.9811 501.4009 486.9811 501.1773 487.0928 500.9538 487.3164 500.842 487.6517 500.7303 487.7635 500.3949 487.8752 500.1714 487.987 499.2772 487.987 498.3831 488.5459 490.0002 489.1047 481.5056 485.5281 483.5175 481.9514 485.4176 481.7278 485.4176 481.5043 485.4176 479.9395 482.0645 478.0394 478.2642 476.6981 475.47 474.5745 471.1109 474.1274 470.6638 473.5685 470.2167 470.9978 468.6519 468.4271 466.9754 467.1976 465.6341 465.9681 464.4046 463.2856 460.8279 460.6031 457.363 460.156 457.0277 459.8207 456.5806 459.3736 456.5806 459.0383 456.4689 458.5912 456.6924 458.1441 456.8042 455.6851 458.1454 453.2262 459.5985 450.7672 460.9397 448.3083 462.281 447.8612 462.3927 447.4141 462.5045 446.0728 462.3927 442.6079 462.0574 439.143 461.8339 435.7899 461.4986 432.325 461.1633 428.5248 460.8279 424.7245 460.4926 420.9243 460.1573 417.1241 459.822 414.8887 460.1573 412.5415 460.4926 410.3061 460.9397 408.0706 461.275 405.7234 461.6103 403.488 461.9457 401.2526 462.3927 399.0172 462.7281 397.5641 462.9516 396.1111 463.2869 394.7699 463.5105 393.3168 463.734 392.4227 463.9575 391.6403 464.0693 390.7461 464.2928 389.8519 464.4046 387.7283 464.8517 387.2812 464.6282 386.7223 464.4046 384.8222 462.281 383.481 460.6044 382.0279 459.0396 380.6867 457.363 379.2337 455.7982 377.8924 454.1217 376.4394 452.4451 374.9864 450.7685 373.5333 449.2037 371.8568 447.1919 370.4037 445.6271 369.0625 444.174 366.2682 441.1562 364.8152 438.6972 364.4799 437.9149 364.3681 436.1265 364.1446 435.3441 363.6975 434.3382 363.1386 433.6675 361.5738 432.6616 359.3384 431.2086 356.4323 429.1967 352.7439 426.7377 348.6084 423.9435 344.0257 420.9256 339.2196 417.6843 334.3017 414.3311 329.2719 410.978 324.354 407.7366 319.7714 404.607 315.4123 401.701 313.8475 400.5833 311.6121 399.1303 308.4825 397.0066 306.0235 395.33 305.2411 394.8829 305.9118 394.1006 306.2471 392.7593 306.5824 392.2004 307.7001 391.8651 309.1531 390.971 309.3767 390.1886 310.0473 387.6178 310.0473 385.8295 310.1591 384.6 310.1591 384.0411 310.2708 383.9294 310.6062 383.8176 310.7179 383.8176 311.3886 383.3705 312.171 383.0352 312.8416 382.3646 312.9534 382.141 313.0651 381.8057 313.2887 381.4704 313.624 381.0233 313.7358 380.9116 313.9593 380.9116 314.1828 381.0233 314.2946 380.9116 314.4064 380.9116 314.5182 380.7998 314.8535 380.5762 315.077 380.4645 315.077 380.2409 316.1947 380.9116 316.7536 381.0233 318.0948 380.688 318.5419 380.3527 319.5479 379.1232 319.9949 378.0055 320.1067 377.3349 320.1067 376.776 319.9949 376.4407 319.7714 376.3289 319.4361 376.3289 318.8772 376.5525 318.4301 376.776 317.9831 377.4466 317.6477 377.6702 317.3124 378.1173 317.2007 378.5644 317.0889 379.0114 316.8653 379.235 316.8653 379.0114 316.7536 378.7879 316.53 378.5644 316.1947 378.4526 315.3006 378.3408 314.8535 378.3408 314.4064 378.5644 314.1828 379.0114 314.0711 379.5703 314.0711 379.9056 314.0711 380.1292 313.9593 380.3527 313.7358 380.3527 313.5122 380.2409 313.0651 379.9056 312.8416 379.9056 312.618 379.9056 312.3945 380.2409 312.171 380.2409 311.6121 379.9056 311.0532 380.0174 310.7179 379.9056 310.0473 379.6821 309.8238 379.6821 309.6002 379.6821 309.4884 379.4585 309.2649 379.3468 309.0414 379.3468 308.7061 379.4585 308.3707 379.6821 308.0354 380.0174 307.9237 380.2409 307.8119 380.7998 307.8119 381.0233 308.0354 381.4704 308.4825 382.2528 308.4825 382.3646 308.3707 382.4763 308.259 382.4763 307.9237 382.2528 307.4766 382.141 306.9177 382.0293 306.8059 382.0293 306.5824 382.141 306.4706 382.141 306.2471 381.9175 306.1353 381.9175 305.9118 381.9175 305.6882 382.0293 305.2411 382.4763 304.9058 383.0352 304.9058 383.147 304.5705 383.7058 304.4587 384.2647 304.2352 384.7118 304.2352 385.0471 304.2352 385.8295 303.8999 386.1648 303.7881 386.5001 303.6763 387.6178 303.6763 387.7296 303.6763 388.4002 303.5646 388.7355 303.5646 388.8473 303.341 389.4062 303.4528 389.965 303.4528 390.3003 303.4528 390.971 303.4528 391.1945 303.341 391.3063 302.8939 391.418 302.5586 391.5298 302.5586 391.6416 302.5586 391.8651 302.4469 392.3122 302.3351 392.6475 302.2233 392.7593 301.9998 392.6475 301.3292 392.3122 300.7703 392.3122 298.7584 392.8711 297.3054 393.3182 295.7406 393.7652 294.2876 394.2123 292.8345 394.6594 291.3815 394.9947 289.9285 395.4418 288.4755 395.8889 287.0224 396.336 283.8928 397.3419 280.7633 398.2361 277.7454 399.242 274.6158 400.1362 272.2686 400.9186 269.9215 401.701 267.5743 402.3716 265.2271 403.154 262.8799 403.9364 260.6444 404.7188 258.2972 405.3894 255.9501 406.1718 255.3912 406.3954 253.6029 406.9542 251.2557 407.7366 248.9085 408.4073 246.5613 409.1897 244.3259 409.9721 241.9787 410.6427 239.6315 411.4251 237.2843 412.2075 237.1725 412.2075 237.1725 412.3193 237.1725 420.3668 237.1725 428.4143 237.2843 436.3501 237.2843 444.2858 237.2843 452.2216 237.2843 460.1573 237.2843 467.9813 237.2843 475.9171 237.2843 483.6293 237.2843 491.4532 237.2843 499.1655 237.2843 506.8777 237.2843 514.5899 237.2843 522.3021 237.2843 529.9025 237.2843 537.503 235.6077 537.3912 234.7135 537.503 232.4781 538.5089 230.2427 538.8442 228.7897 539.4031 225.6601 539.6266 224.8777 539.4031 224.0953 538.956 223.6482 538.6207 223.2011 538.0618 222.5305 536.3853 222.1952 535.7146 221.8598 535.2675 220.295 534.2616 219.4009 533.4792 218.6185 532.585 217.0537 529.679 215.3771 526.8847 214.2594 525.3199 211.6887 521.855 211.4651 521.1844 211.3534 520.5138 211.3534 519.8431 211.4651 519.1725 211.4651 518.6136 211.2416 518.0548 210.6827 517.2724 206.4354 513.3604 203.5294 511.3485 200.9586 509.6719 196.8231 506.8777 192.9111 504.3069 191.1228 503.6363 189.2227 503.4128 183.2988 504.4187 179.4986 505.2011 175.1395 505.9835 173.4629 506.3188 167.9861 508.4425 166.5331 509.3366 162.6211 510.6779 157.3679 515.1487 154.0147 518.5019 150.2145 522.3021 149.2086 523.308 149.0968 522.7492 149.3204 521.9668 150.3263 519.5078 150.5498 518.2783 150.3263 516.9371 150.1028 516.2664 149.7674 515.7076 149.5439 515.3723 149.3204 515.2605 149.0968 514.9252 148.985 514.4781 149.2086 513.3604 149.2086 513.0251 148.985 512.6898 148.3144 511.9074 148.538 511.3485 148.7615 510.7897 148.985 510.119 148.985 509.4484 149.2086 508.8895 149.5439 508.666 149.991 508.4425 150.3263 508.2189 151.5558 505.8717 152.897 503.9716 153.1206 503.7481 153.2323 503.4128 153.2323 502.9657 153.2323 502.295 153.2323 501.9597 153.3441 501.6244 154.1265 500.9538 154.3501 500.6185 154.3501 500.2832 154.4618 499.7243 154.4618 499.5008 154.9089 498.0477 155.1325 496.8183 155.1325 495.7006 154.7971 494.3593 154.1265 492.9063 153.6794 492.1239 152.6735 491.4532 152.3382 490.6708 152.3382 490.0002 152.5617 489.6649 152.7853 490.112 153.0088 490.7826 153.2323 491.4532 153.6794 491.7886 153.903 491.9003 154.7971 492.4592 154.9089 492.6827 155.0207 493.018 155.0207 493.1298 155.1325 493.1298 155.4678 494.3593 155.8031 495.0299 156.0266 495.2535 156.2502 495.0299 156.5855 494.3593 156.6972 493.4651 156.809 492.7945 156.5855 491.3415 156.0266 490.3355 155.1325 489.7767 154.0147 489.6649 153.903 488.8825 152.5617 488.1001 149.991 487.0942 147.532 486.8706 147.1967 486.9824 146.8614 486.9824 146.6378 487.2059 146.3025 487.4295 146.1908 487.5413 145.8554 488.2119 145.7437 488.3237 145.073 488.1001 143.3965 485.7529 142.5023 485.0823 141.9435 484.9705 139.708 485.3058 138.1432 485.9765 137.2491 486.6471 136.6902 486.8706 136.1314 486.5353 134.6783 484.8587 134.343 484.2999 133.7842 483.1822 133.4488 482.6233 133.1135 482.0645 132.89 480.835 132.6664 480.1644 131.437 478.8231 131.1017 478.1525 130.7663 478.0407 130.431 477.9289 130.2075 477.8172 130.0957 477.3701 130.2075 477.1465 130.3193 476.8112 130.431 476.4759 130.3193 475.8053 130.0957 475.1347 129.6486 474.6876 128.6427 475.2464 127.4132 475.1347 126.8543 475.2464 126.6308 475.47 126.519 475.6935 126.2955 475.9171 126.0719 475.9171 125.7366 475.9171 125.1778 475.5817 124.8425 475.47 122.607 475.9171 120.2598 475.9171 119.9245 475.5817 120.0363 474.7993 120.9305 472.0051 121.2658 470.6638 121.3776 466.0812 121.2658 465.4106 120.4834 463.8458 120.3716 463.5105 120.3716 463.1751 120.2598 462.3927 120.2598 462.1692 119.8128 461.7221 118.8068 460.9397 118.695 460.3809 118.5833 459.822 118.3597 459.822 118.1362 459.9338 117.8009 460.0455 117.4656 459.9338 117.3538 459.822 117.0185 459.5985 116.3479 458.5925 114.0007 453.7864 113.7771 453.2275 113.7771 452.5569 113.6653 452.2216 113.4418 451.998 113.33 451.6627 113.2183 451.5509 113.2183 451.2156 113.2183 450.4332 113.2183 450.0979 112.9947 449.7626 112.3241 449.092 112.1006 448.7567 111.877 448.086 111.5417 447.5272 111.2064 446.8565 110.9828 446.5212 110.7593 446.4095 110.2004 446.1859 109.9769 446.0741 109.7534 445.6271 109.7534 445.2917 109.8651 444.9564 109.9769 444.5094 109.8651 441.6033 109.7534 440.9327 109.6416 440.3738 108.971 439.4796 107.965 438.809 105.8414 437.8031 97.1232 436.1265 96.0055 435.5677 95.4466 435.2323 94.8878 434.7853 94.4407 434.1146 94.3289 433.3322 94.4407 431.7674 94.4407 430.985 94.3289 430.4262 94.4407 430.0909 94.2172 429.532 94.1054 428.3025 94.1054 427.1848 94.4407 426.5142 94.8878 427.5201 95.2231 427.073 95.4466 426.1789 95.5584 425.62 95.8937 425.3965 95.8937 424.9494 95.8937 424.5023 96.0055 424.167 96.3408 423.9435 96.5644 423.9435 96.7879 424.167 97.0114 424.3905 100.9234 425.1729 102.1529 425.0612 103.2706 424.7259 103.9413 424.7259 104.1648 425.2847 104.5001 425.3965 106.7355 425.3965 107.0708 425.7318 107.4062 425.8436 107.6297 425.7318 107.8532 425.3965 107.965 425.0612 108.0768 424.9494 108.4121 424.8376 109.6416 424.9494 110.3122 425.0612 110.8711 425.3965 111.6535 426.1789 112.4359 427.1848 112.6594 427.2966 113.33 427.1848 113.5536 427.2966 113.6653 427.5201 113.6653 427.7437 113.4418 427.9672 113.2183 427.9672 113.6653 428.5261 114.2242 428.9732 116.2361 429.9791 117.0185 430.0909 117.6891 430.0909 118.4715 429.8673 119.0304 429.532 120.3716 428.1908 120.3716 428.079 120.4834 427.9672 120.5952 427.8554 120.7069 427.7437 120.9305 427.7437 121.4893 427.7437 121.8246 427.6319 122.4953 427.4084 122.9424 427.5201 122.7188 428.6378 123.5012 428.8614 125.1778 428.4143 126.8543 429.1967 127.4132 429.1967 127.7485 428.7496 127.6367 428.1908 127.1897 427.8554 126.8543 427.5201 125.4013 426.626 124.3954 425.7318 123.7248 425.62 122.607 426.0671 121.3776 426.1789 120.7069 425.62 119.8128 422.9375 119.2539 421.9316 118.4715 421.1492 116.4596 419.8079 116.2361 419.5844 116.0125 419.3608 115.789 419.1373 114.8948 419.0255 114.6713 418.9138 114.5595 418.6902 114.336 418.4667 112.6594 417.4607 112.5476 416.7901 112.4359 416.0077 112.5476 415.3371 112.9947 415.0018 113.2183 414.89 113.33 414.5547 113.33 414.3311 113.2183 413.9958 112.8829 413.884 112.5476 413.7723 112.3241 413.7723 112.2123 413.3252 112.4359 412.7663 112.9947 412.431 113.6653 412.2075 114.1124 412.0957 114.7831 412.2075 115.0066 412.2075 115.4537 411.8722 115.5655 411.6486 115.9008 411.2015 116.1243 410.8662 117.1303 410.1956 117.8009 409.8603 118.3597 409.7485 118.695 409.9721 119.1421 410.6427 119.701 411.0898 120.2598 411.2015 120.4834 410.7545 120.2598 410.0838 119.9245 409.3014 119.5892 408.8543 119.4774 408.519 119.5892 408.0719 119.8128 407.6249 119.8128 407.2895 119.8128 407.066 119.5892 406.5072 119.4774 406.3954 119.701 405.8365 120.0363 405.2777 120.7069 404.0482 120.9305 403.6011 121.154 402.9305 123.2777 400.3597 123.5012 399.8009 123.613 398.9067 123.7248 398.2361 124.1718 398.5714 124.8425 399.8009 125.7366 400.248 126.9661 400.248 128.1956 399.9127 129.0898 399.3538 129.8722 398.4596 130.0957 398.3479 130.6546 398.3479 130.8781 398.2361 131.2134 397.5655 131.5487 396.8948 131.884 396.2242 132.3311 395.8889 132.5547 396.2242 132.89 396.6713 133.1135 397.2301 133.1135 397.789 135.2372 398.1243 135.6843 398.2361 136.3549 398.9067 136.802 399.1303 137.2491 398.9067 138.0315 398.2361 138.4785 398.1243 139.0374 398.1243 140.1551 398.4596 140.6022 398.5714 148.3144 397.5655 149.4321 397.9008 151.2205 397.5655 152.4499 397.9008 156.5855 399.8009 159.0444 400.1362 160.2739 400.8068 160.9446 401.0304 163.2917 400.8068 163.8506 400.9186 165.3036 401.3657 165.8625 401.4774 166.4213 401.2539 167.4273 400.695 167.9861 400.5833 168.2097 400.4715 168.4332 400.1362 168.6568 400.0244 169.2156 400.248 169.3274 400.248 169.4392 400.1362 169.6627 399.9127 169.8862 399.6891 169.7745 399.3538 169.3274 399.0185 166.7567 398.4596 166.5331 398.3479 166.4213 398.0125 166.1978 397.9008 165.9743 397.6772 165.1919 397.5655 164.0741 397.2301 160.9446 395.6653 160.2739 395.5536 160.0504 395.4418 159.6033 394.7712 159.4915 394.5476 159.268 394.4359 158.262 394.3241 157.1443 393.7652 156.6972 393.4299 156.809 392.9828 156.6972 392.7593 156.4737 392.424 156.5855 392.2004 156.809 391.7534 156.809 391.5298 156.6972 391.3063 156.6972 390.971 156.6972 390.0768 156.809 389.4062 157.1443 388.9591 157.5914 388.8473 158.0385 388.6238 158.262 387.9531 158.7091 386.6119 159.7151 384.9353 160.0504 384.4882 160.3857 384.2647 160.9446 384.0411 161.1681 383.8176 162.0623 382.5881 162.3976 382.0293 162.8447 380.5762 163.2917 379.9056 163.9624 379.1232 164.1859 378.7879 164.2977 378.5644 164.5212 377.782 164.7448 377.3349 165.1919 376.3289 165.3036 375.7701 165.1919 375.2112 165.1919 375.4348 165.0801 374.8759 165.1919 374.4288 165.7507 373.5347 165.9743 373.0876 166.086 372.4169 166.3096 369.958 167.092 366.8284 167.092 364.2576 166.4213 362.3575 165.3036 360.9045 163.9624 359.675 164.5212 359.675 165.3036 360.3457 165.7507 360.5692 165.7507 360.3457 165.3036 360.0103 165.0801 359.4515 165.0801 358.7809 165.1919 358.1102 164.7448 358.3338 164.1859 358.8926 163.6271 359.3397 163.18 359.1162 163.0682 358.4455 163.4035 357.4396 164.1859 355.8748 164.1859 356.5454 164.5212 356.8807 164.9683 356.9925 165.4154 356.6572 165.5272 356.0983 165.6389 354.7571 165.8625 354.1982 166.086 354.8689 166.3096 354.7571 166.5331 354.0865 166.7567 353.6394 166.9802 353.6394 167.5391 353.6394 167.7626 353.6394 168.0979 353.5276 168.2097 353.4158 168.3215 352.9688 168.3215 351.5157 167.8744 350.6216 167.092 350.2862 166.3096 350.1745 165.8625 349.9509 165.6389 349.5039 165.7507 348.2744 165.3036 345.8154 164.7448 344.8095 164.7448 344.3624 164.5212 344.1388 163.4035 344.2506 162.9564 344.2506 162.5094 343.8035 161.6152 342.2387 161.1681 342.0152 160.0504 342.0152 157.815 342.4623 156.3619 342.2387 153.5677 342.2387 153.0088 342.127 152.5617 341.7916 151.6675 340.7857 151.2205 340.6739 149.6557 340.3386 149.2086 340.4504 148.985 340.7857 148.8733 341.2328 148.8733 342.127 148.7615 342.4623 147.6438 343.9153 147.1967 344.2506 144.8495 345.1448 144.1789 345.1448 143.2847 344.5859 143.0612 344.6977 142.8376 344.9212 142.8376 345.4801 143.0612 345.5919 143.7318 345.8154 143.8436 345.9272 144.0671 346.1507 144.1789 346.486 144.4024 346.9331 144.4024 347.3802 144.2906 347.492 141.1611 347.2684 140.4904 346.9331 140.2669 346.7096 140.0433 346.5978 140.0433 346.3743 140.0433 345.8154 139.8198 345.9272 139.5963 345.5919 138.7021 344.8095 138.4785 344.5859 138.3668 344.3624 138.255 343.9153 138.3668 343.6917 138.7021 343.4682 138.9256 343.1329 138.8139 342.6858 138.255 342.574 137.8079 343.2447 137.3608 344.5859 136.802 344.8095 136.0196 344.6977 135.2372 344.5859 134.6783 344.2506 135.4607 343.1329 135.6843 342.9094 135.1254 342.7976 134.5666 343.0211 133.4488 343.6917 133.0018 343.6917 132.4429 343.4682 131.9958 343.1329 131.5487 342.574 130.5428 341.7916 130.2075 341.2328 130.7663 339.668 130.6546 338.8856 130.3193 338.3267 129.7604 338.215 129.2015 338.662 128.978 339.3327 128.8662 340.1151 128.6427 340.7857 128.1956 340.8975 127.6367 340.2268 126.9661 338.9974 126.519 338.4385 125.9602 338.215 124.2836 337.8796 122.9424 337.3208 119.701 336.6502 118.695 335.9795 118.1362 336.0913 117.0185 336.9855 116.0125 337.4326 112.6594 338.215 112.2123 338.5503 111.5417 339.5562 111.0946 339.668 110.7593 339.5562 110.2004 339.1091 109.8651 338.9974 109.6416 339.1091 109.418 339.3327 109.418 339.5562 109.5298 339.668 109.418 340.0033 107.4062 343.4682 106.9591 343.8035 106.7355 343.2447 106.8473 342.7976 107.2944 342.0152 107.4062 341.5681 107.2944 341.3446 106.9591 341.5681 106.0649 342.4623 105.3943 342.9094 104.7237 343.0211 104.2766 342.7976 103.8295 342.7976 103.7177 343.4682 103.6059 345.2565 103.4942 345.8154 103.1589 346.3743 102.7118 346.5978 102.2647 346.486 102.7118 345.8154 103.0471 345.2565 102.9353 344.8095 102.3765 344.6977 101.4823 345.033 101.3705 345.033 101.0352 345.3683 100.8117 345.2565 100.6999 345.033 99.8057 344.3624 99.5822 344.2506 99.3586 344.1388 99.2469 344.1388 99.1351 344.3624 98.9116 344.6977 98.1292 347.0449 97.6821 347.492 97.7938 347.0449 97.9056 345.7036 97.5703 346.0389 97.3468 346.3743 97.235 346.8213 97.0114 347.1567 96.7879 347.2684 96.3408 347.3802 96.1173 347.492 96.0055 347.6037 95.8937 347.8273 94.776 349.8392 94.3289 350.398 93.8818 350.2862 93.8818 349.9509 93.9936 349.5039 94.1054 349.0568 93.8818 348.945 93.5465 349.0568 92.7641 349.5039 90.5287 351.9628 89.8581 353.1923 89.411 353.6394 88.9639 353.8629 87.958 353.7512 87.6227 353.8629 87.3991 354.0865 86.952 354.6453 86.7285 354.8689 85.9461 355.316 85.6108 355.8748 85.2755 355.8748 84.6048 355.6513 84.2695 355.9866 84.1578 356.6572 84.046 357.1043 83.3754 356.8807 83.04 356.3219 82.8165 356.0983 82.593 356.3219 82.593 357.1043 82.4812 357.4396 82.2576 357.2161 81.8106 356.5454 81.4752 356.3219 81.1399 356.4337 81.1399 356.6572 81.2517 357.5514 81.1399 357.8867 79.5751 355.763 79.1281 355.5395 79.1281 356.2101 79.2398 357.8867 78.7927 357.5514 78.5692 357.7749 78.3457 358.222 78.1221 358.5573 77.8986 357.7749 77.5633 357.3278 76.1102 356.6572 75.6631 356.3219 75.3278 355.8748 75.3278 355.2042 75.3278 356.3219 75.4396 356.8807 75.7749 357.3278 75.9985 358.222 76.222 358.5573 75.8867 358.5573 75.5514 358.3338 75.2161 358.3338 74.9925 358.222 75.1043 357.9985 75.2161 357.6631 75.2161 357.3278 75.1043 357.2161 74.5454 356.769 74.3219 356.5454 74.2101 356.769 74.2101 356.9925 74.2101 357.1043 73.316 356.9925 72.5336 356.6572 71.7512 356.0983 71.3041 355.4277 71.4158 356.3219 73.0924 358.222 73.5395 359.3397 72.9806 359.1162 72.0865 359.1162 71.9747 359.1162 71.6394 358.6691 71.4158 358.1102 71.0805 357.6631 70.6334 357.6631 70.6334 357.8867 70.9688 358.3338 71.0805 359.0044 71.1923 359.7868 71.8629 360.1221 72.7571 361.1281 72.8689 361.4634 72.9806 361.7987 72.8689 362.2458 72.7571 362.5811 71.7512 361.7987 71.3041 361.3516 70.9688 360.7927 70.6334 360.2339 70.2981 359.8986 69.9628 359.675 69.2922 359.675 69.5157 359.7868 69.7393 360.0103 69.851 360.4574 69.9628 361.0163 70.0746 361.3516 70.9688 362.3575 70.857 362.3575 70.6334 362.5811 70.2981 362.3575 68.2862 361.6869 67.9509 361.6869 67.8392 361.7987 67.9509 362.2458 68.1745 362.4693 68.398 362.5811 68.6216 362.5811 69.0686 362.9164 69.1804 363.587 69.2922 364.2576 69.2922 364.593 69.2922 364.8165 64.486 362.0222 62.6977 360.5692 61.6917 359.4515 61.1329 359.2279 60.4623 359.2279 59.7916 359.3397 59.2328 359.3397 57.668 358.1102 56.9974 357.3278 56.3267 356.769 55.3208 356.5454 53.0854 356.4337 52.1912 356.0983 52.8618 355.316 52.4147 354.9806 52.303 354.4218 52.1912 353.9747 51.9677 353.5276 51.0735 352.9688 50.6264 352.857 50.1793 352.7452 50.7382 351.9628 51.4088 350.1745 52.6383 349.0568 54.2031 348.7215 55.6561 349.1685 56.1032 349.7274 56.5503 350.2862 57.2209 351.6275 57.7798 351.9628 61.58 351.1804 62.3624 350.6216 63.8154 348.8332 56.1032 336.7619 52.4147 326.9261 52.0794 326.0319 51.8559 325.3613 51.5206 325.1377 50.6264 325.026 49.7322 324.6906 49.0616 324.1318 47.8321 322.3435 47.7204 322.3435 43.1377 314.1842 41.5729 312.9547 39.8964 312.1723 30.0605 312.284 24.8073 309.7133 24.1366 309.7133 23.6895 310.0486 23.5778 310.6075 23.5778 312.8429 23.466 314.5195 23.2425 315.1901 22.9072 315.3019 18.2128 312.0605 17.4304 311.2781 16.9833 310.7193 16.8715 310.2722 17.095 309.8251 17.3186 309.1545 17.5421 308.9309 17.6539 308.8191 17.8774 308.7074 17.8774 308.3721 17.7657 308.1485 16.9833 306.6955 15.1949 304.5718 15.0832 304.1248 15.4185 303.7894 17.3186 302.56 18.3245 301.6658 18.6598 300.8834 18.2128 300.4363 16.8715 300.3245 16.5362 299.8774 16.5362 299.2068 16.648 298.5362 16.8715 297.8656 16.648 297.0832 16.5362 296.8596 15.9773 296.3008 15.7538 295.9655 15.9773 295.7419 16.2009 295.5184 16.4244 295.2948 16.7597 294.6242 16.7597 294.5124 16.7597 294.2889 16.4244 293.73 15.8656 293.2829 13.4066 292.6123 7.1474 290.4887 1 288.2532 4.4649 278.5292 7.818 269.2521 8.3769 268.4697 9.2711 267.7991 11.1712 266.7932 11.73 266.3461 12.1771 265.899 13.4066 264.2224 14.4125 262.3223 14.9714 260.3105 14.6361 258.4103 13.4066 256.7338 9.7182 253.9395 8.3769 253.3806 9.8299 244.1036 11.3947 234.7149 11.9536 233.1501 12.8477 232.2559 18.3245 229.7969 20.0011 228.0086 21.5659 225.9967 22.1248 224.879 22.1248 223.5377 20.6717 221.6376 20.56 220.5199 20.7835 219.9611 21.6777 219.0669 21.9012 218.508 21.7894 217.9492 21.4541 217.5021 21.2306 217.055 21.5659 216.2726 22.013 215.9373 23.6895 215.1549 24.0249 214.7078 24.6955 213.143 24.8073 212.8077 25.5897 211.69 26.7074 210.7958 27.8251 210.1252 28.831 210.1252 29.5017 210.5723 31.0664 212.6959 32.1842 213.3666 32.5195 213.7019 32.8548 214.2607 32.9666 214.596 33.1901 214.9314 33.749 215.1549 34.0843 215.2667 35.202 216.7197 35.6491 217.3903 36.655 218.2845 37.6609 219.8493 38.6669 220.7435 38.7787 221.1905 38.8904 221.6376 39.114 222.1965 39.4493 222.6436 40.6788 223.6495 41.2376 224.6554 41.4612 225.7732 41.5729 226.8909 41.9083 228.0086 42.1318 228.3439 42.3553 229.1263 42.4671 229.4616 42.8024 229.7969 43.8084 230.6911 44.2554 231.5853 44.479 232.3677 44.7025 232.9265 45.5967 233.0383 46.3791 232.9265 46.6026 233.0383 47.7204 234.156 49.1734 235.0502 49.5087 235.0502 49.844 234.9384 50.4029 234.0442 50.7382 233.8207 55.7679 231.8088 58.3386 230.3558 60.2387 228.0086 60.6858 227.338 60.7976 227.0026 60.7976 226.5556 60.574 224.9908 60.3505 224.4319 60.0152 223.9848 58.2268 223.426 58.2268 222.42 58.4504 221.0788 58.0033 219.514 56.8856 217.3903 56.215 214.7078 55.5443 209.1193 55.6561 206.4367 55.5443 205.2073 54.9855 204.3131 53.6442 204.0895 53.0854 203.7542 52.9736 202.9718 53.3089 202.413 53.9795 202.5248 57.2209 204.4249 58.3386 204.7602 59.4563 204.5366 64.0389 201.0717 66.2744 198.1657 67.2803 197.2715 70.7452 196.3773 72.8689 195.4832 73.8748 194.589 74.2101 193.2477 73.763 192.0183 72.8689 191.0123 72.31 190.0064 72.6453 188.8887 73.2042 187.8827 73.4277 187.3239 73.6513 185.9826 73.8748 185.2002 74.2101 184.6414 74.5454 184.1943 75.1043 184.0825 77.1162 184.6414 83.04 184.5296 83.4871 184.3061 84.6048 182.6295 88.1815 179.4999 89.2992 179.0528 93.7701 178.0469 96.6761 176.5938 97.1232 176.2585 97.235 175.8114 97.235 175.3644 97.0114 174.582 97.0114 173.9113 97.235 173.4642 97.5703 173.2407 97.9056 172.9054 97.7938 172.6818 97.5703 172.4583 97.4585 172.2348 97.6821 172.0112 98.0174 171.8994 99.4704 171.7877 99.9175 171.6759 100.2528 171.3406 100.4763 170.5582 101.0352 170.5582 101.4823 170.3347 101.7058 169.9993 101.8176 168.9934 101.5941 166.758 101.5941 166.0873 102.0411 165.6403 102.4882 165.5285 102.9353 165.1932 102.9353 164.1872 103.0471 163.2931 103.4942 163.4048 104.5001 164.0755 105.6178 164.0755 105.8414 164.299 105.3943 164.9696 104.9472 165.752 105.2825 166.0873 105.8414 166.0873 106.512 166.0873 107.5179 165.6403 108.1886 164.8579 108.3003 163.7402 107.1826 160.387 107.0708 159.0458 107.6297 158.3751 108.971 158.5987 109.418 158.934 109.8651 159.3811 110.3122 159.8282 110.5358 160.4988 110.9828 161.2812 111.5417 161.6165 117.6891 161.9518 118.1362 161.84 118.695 161.5047 119.2539 161.2812 119.701 161.6165 120.2598 162.7342 120.5952 163.0695 121.154 163.2931 122.16 163.2931 122.7188 163.5166 122.9424 164.4108 122.9424 165.305 122.7188 165.8638 122.3835 166.3109 121.8246 166.5344 119.4774 166.9815 119.3657 167.3168 119.5892 167.8757 120.0363 168.5463 120.2598 168.9934 120.2598 169.1052 121.0422 169.8876 122.8306 170.1111 124.9542 169.7758 126.2955 168.9934 126.6308 168.4345 126.9661 167.7639 127.4132 167.4286 127.9721 167.3168 128.6427 167.6521 128.8662 167.9875 128.978 168.5463 128.978 169.5523 129.5369 170.67 130.6546 170.5582 131.9958 169.7758 132.89 168.9934 132.89 167.5404 132.5547 166.1991 132.4429 164.9696 133.7842 163.4048 134.5666 162.2871 135.0136 161.84 135.796 161.5047 136.4667 161.6165 137.1373 161.9518 137.8079 162.2871 138.4785 162.5107 139.1492 162.6224 139.9316 162.6224 140.6022 162.3989 141.0493 161.9518 141.6081 160.6106 141.9435 160.0517 142.6141 159.7164 144.0671 159.8282 144.7377 159.8282 145.2966 159.3811 145.6319 158.1516 145.9672 157.7045 146.6378 158.1516 147.0849 159.4928 147.4202 161.1694 147.7556 162.3989 149.3204 165.5285 150.1028 168.211 150.2145 168.5463 150.5498 169.1052 150.8851 169.5523 151.3322 169.9993 151.8911 170.3347 152.1146 170.4464 152.5617 170.1111 154.7971 170.2229 154.9089 170.5582 155.2442 170.4464 155.5795 169.9993 155.8031 169.664 155.9149 169.4405 156.2502 169.3287 156.809 169.3287 157.0326 169.1052 157.1443 168.8816 157.3679 168.5463 157.7032 168.4345 157.9267 168.5463 158.4856 169.1052 158.7091 169.3287 160.1622 169.1052 160.6092 169.3287 160.2739 170.1111 160.8328 170.1111 161.3916 170.5582 161.8387 170.67 162.174 170.5582 162.5094 170.2229 162.8447 169.8876 163.18 169.5523 164.0741 169.2169 167.092 169.3287 166.8684 168.5463 166.9802 168.211 167.3155 168.211 167.6508 168.211 167.8744 168.211 168.0979 168.4345 168.0979 168.6581 168.3215 168.8816 168.545 168.9934 168.6568 168.8816 168.7685 168.7699 168.9921 168.7699 170.7804 168.9934 171.2275 168.9934 171.7864 168.6581 172.3452 168.9934 173.3512 169.4405 173.5747 169.7758 174.1336 170.67 174.4689 171.1171 177.0396 172.123 178.0455 172.9054 178.3809 173.2407 178.6044 173.9113 178.3809 174.1349 177.4867 174.582 177.9338 175.1408 177.9338 175.8114 177.822 176.4821 177.9338 177.1527 178.8279 178.0469 179.1633 178.4939 179.3868 179.2763 179.9457 179.947 184.5283 181.2882 185.7578 181.0647 186.4284 181.2882 187.4343 182.0706 187.8814 182.5177 188.552 183.9707 189.1109 184.3061 190.3404 184.4178 190.7875 184.8649 191.011 185.4238 191.3463 186.9886 191.4581 187.5474 191.6816 187.8827 191.7934 188.218 191.6816 188.8887 192.464 189.8946 192.9111 190.2299 193.9171 190.9006 194.2524 191.3476 194.5877 191.9065 194.923 192.3536 195.4818 192.8007 197.4937 193.136 197.829 193.3595 198.2761 193.8066 198.4997 194.0301 199.6174 194.2537 199.9527 194.3655 200.1762 194.7008 200.1762 195.1479 200.1762 195.4832 199.9527 195.9303 198.6114 197.7186 198.3879 198.501 198.2761 200.2893 198.1644 201.0717 197.6055 202.8601 197.4937 203.6425 197.6055 204.4249 198.0526 205.2073 198.9468 206.4367 199.3938 206.8838 199.9527 207.2191 200.5116 207.3309 201.6293 207.1074 201.741 207.1074 202.747 206.6603 204.2 205.4308 204.8706 204.3131 204.8706 202.9718 203.9765 200.1776 203.9765 199.3952 204.3118 197.8304 204.2 197.048 204.0882 196.8244 203.7529 196.3773 203.6411 196.042 203.7529 195.7067 204.0882 195.0361 204.3118 194.7008 203.9765 193.136 202.6352 192.3536 201.1822 191.9065 200.6233 191.4594 200.8469 191.1241 201.4057 190.9006 201.6293 190.4535 201.1822 189.0004 201.2939 188.5534 201.8528 188.218 203.9765 187.5474 204.5353 187.5474 205.0942 187.6592 205.653 187.9945 206.659 188.8887 208.2238 189.6711 208.7826 190.2299 209.4532 191.2359 210.3474 192.13 214.1476 193.2477 214.4829 194.0301 214.4829 195.5949 215.0418 196.6009 220.5186 201.8541 221.1892 202.1894 221.6363 202.413 222.0834 202.3012 223.3129 201.9659 223.9835 201.9659 224.5424 202.1894 225.213 202.5248 225.5483 203.1954 225.7718 203.866 225.9954 204.3131 227.1131 204.8719 227.5602 205.2073 228.2308 206.325 229.3485 207.1074 230.2427 206.7721 231.9193 204.8719 236.1666 202.5248 239.7432 199.5069 240.3021 198.6128 241.1963 193.8066 241.5316 192.9124 241.7551 192.3536 242.2022 192.2418 244.2141 193.136 244.9965 193.3595 245.6671 193.2477 246.1142 192.6889 246.3377 192.13 246.5613 190.677 246.8966 190.3417 248.1261 190.1182 248.5732 189.5593 248.5732 189.0004 248.2378 187.8827 248.3496 187.3239 248.5732 186.8768 248.9085 186.4297 249.6909 185.7591 250.4733 185.9826 252.7087 189.224 253.1558 189.4475 254.9441 189.8946 255.3912 189.7828 255.503 189.3358 255.2794 188.6651 254.8323 187.4356 254.7206 186.6532 255.0559 186.0944 255.6147 185.7591 256.0618 185.5355 256.7325 185.4238 257.1795 185.6473 258.0737 186.3179 258.6326 186.5415 259.3032 186.5415 259.9738 186.4297 260.6444 186.0944 261.2033 185.8708 263.327 186.0944 264.4447 185.8708 266.1212 184.8649 266.5683 184.6414 266.9036 184.8649 267.2389 185.7591 267.4625 187.2121 267.5743 187.9945 268.0213 188.218 268.5802 188.218 269.0273 188.4416 269.4744 188.7769 269.9215 189.3358 270.145 190.0064 270.3685 191.4594 270.5921 192.0183 271.0392 192.6889 271.4862 193.136 273.051 194.0301 273.7217 194.2537 274.2805 194.2537 274.9512 193.9184 275.3982 193.3595 275.6218 192.6889 275.9571 192.13 276.516 191.7947 277.5219 191.9065 279.8691 192.6889 280.6515 192.2418 280.9868 191.1241 281.0986 189.7828 280.7633 187.2121 280.9868 185.7591 281.4339 184.7531 281.7692 183.859 282.5516 183.7472 283.6693 184.4178 284.0046 184.5296 285.3459 184.5296 285.6812 184.6414 285.9047 184.8649 286.3518 185.5355 286.5754 185.5355 287.246 185.2002 287.5813 185.0884 289.4814 184.7531 289.705 184.7531 289.8167 184.9767 289.8167 185.2002 289.8167 185.4238 289.8167 185.6473 290.3756 186.0944 291.0462 186.4297 291.7168 186.4297 292.2757 185.9826 292.611 185.312 292.8345 184.5296 293.1699 183.7472 293.7287 183.4119 294.2876 183.3001 295.2935 182.7413 295.6288 182.9648 296.4112 183.7472 296.6348 184.3061 296.7465 184.8649 296.7465 185.4238 296.9701 185.8708 297.4172 186.0944 300.5468 186.2062 301.5527 186.6532 302.3351 187.6592 302.5586 189.3358 302.4469 190.1182 302.1116 190.677 301.7762 191.1241 301.3292 191.5712 301.2174 192.13 301.2174 192.8007 301.5527 193.5831 301.7762 194.0301 302.2233 194.1419 303.5646 194.0301 303.7881 194.3655 303.5646 195.9303 303.6763 196.4891 304.1234 196.9362 304.6823 196.9362 305.4647 196.8244 306.1353 196.7127 306.6942 197.1597 307.1413 198.501 307.3648 198.9481 307.8119 199.3952 309.6002 200.8482 310.6062 201.2953 317.3124 201.9659 317.8713 202.0777 318.3184 202.6365 318.5419 203.1954 318.8772 203.5307 319.2125 203.7542 319.6596 203.7542 322.0068 203.1954 323.3481 203.1954 324.354 203.7542 324.8011 204.4249 326.1424 204.8719 326.4777 205.2073 326.3659 206.2132 325.807 206.4367 324.354 206.2132 323.6834 206.8838 323.6834 207.4427 324.0187 208.0015 325.4717 209.231 326.2541 208.8957 327.0365 208.0015 327.9307 207.3309 329.1602 207.1074 330.5014 207.2191 331.7309 206.9956 332.7369 205.8779 333.8546 203.5307 334.1899 202.9718 334.9723 201.9659 335.1958 201.5188 335.3076 200.8482 335.1958 199.3952 335.1958 198.6128 335.3076 197.9421 336.4253 195.3714 336.5371 195.0361 336.7606 194.8125 337.8783 194.3655 339.4431 194.2537 340.6726 194.8125 341.1197 196.2656 341.2315 197.6068 341.6785 198.8363 342.5727 199.6187 343.4669 200.4011 344.8081 201.0717 355.2029 202.3012 357.6618 201.8541 364.5916 199.5069 371.4097 197.1597 372.3039 196.3773 372.8627 195.2596 373.198 193.5831 373.5333 190.0064 373.7569 188.8887 374.9864 182.2942 375.5452 180.5058 376.3276 179.3881 377.4453 178.7175 378.6748 178.3822 378.2277 178.1586 376.9982 177.5998 376.2158 176.9292 375.657 175.8114 374.651 172.6818 374.0922 171.8994 373.9804 171.6759 373.0862 171.4524 371.9685 170.7817 371.0744 170.3347 370.7391 170.4464 370.0684 170.67 369.7331 170.67 369.3978 170.5582 368.6154 170.1111 367.9448 169.8876 366.2682 170.1111 365.7094 169.9993 364.7034 169.664 364.2563 169.5523 363.3622 169.5523 363.1386 169.5523 362.9151 169.4405 362.8033 169.3287 362.6915 169.2169 362.5798 169.1052 362.468 168.8816 362.2444 168.7699 361.462 168.0992 361.1267 167.7639 360.7914 166.9815 360.6796 166.5344 360.5679 166.0873 360.5679 164.8579 360.6796 164.299 360.2326 164.299 350.1732 164.0755 349.9496 163.9637 349.7261 163.6284 349.7261 163.2931 349.6143 162.9578 349.3908 162.7342 346.7083 162.2871 346.1494 161.84 346.1494 161.0576 346.5965 160.4988 347.7142 159.9399 348.1613 159.6046 348.273 159.2693 348.273 158.5987 348.3848 158.3751 348.9437 157.9281 349.1672 157.7045 349.279 157.3692 348.6084 156.475 344.1375 155.3573 341.5668 153.4572 340.7844 153.1219 340.4491 153.569 340.2255 154.1278 339.6667 154.5749 338.8843 154.3514 338.3254 153.9043 337.2077 151.2218 336.9842 150.5512 336.9842 149.8805 337.4312 148.9864 338.1019 148.9864 342.3492 148.9864 345.9259 145.0744 347.9377 143.3978 349.9496 142.5036 351.2909 142.6154 352.7439 142.8389 354.0851 142.8389 355.3146 141.833 356.3206 140.1564 356.7677 139.7094 359.1149 138.7034 359.6737 138.3681 360.9032 136.9151 361.3503 136.468 362.468 135.9091 363.2504 135.1267 361.6856 132.8913 361.2385 132.3325 361.1267 131.6618 361.015 129.9853 360.7914 129.2029 360.5679 128.8675 360.3443 128.644 357.9971 127.8616 357.5501 127.4145 357.4383 126.7439 357.5501 124.8438 357.5501 124.0614 357.4383 123.3908 357.3265 123.1672 357.103 123.0554 355.7617 123.1672 355.3146 123.1672 354.9793 122.9437 354.8675 122.6084 354.8675 122.273 354.7558 122.0495 354.4205 121.826 354.1969 121.6024 354.0851 121.2671 354.0851 120.82 354.0851 120.3729 354.644 118.6964 355.6499 118.0257 356.8794 117.8022 357.9971 117.2433 358.3325 116.6845 358.8913 115.5668 359.3384 115.0079 363.6975 110.9842 361.5738 108.9723 363.4739 108.9723 364.3681 108.7487 365.2623 108.0781 366.0447 107.4075 366.9388 107.2957 367.833 107.5193 368.6154 108.0781 369.3978 108.4134 370.0684 108.5252 370.8508 108.4134 371.5215 108.0781 372.7509 107.0722 373.3098 106.9604 374.0922 107.2957 374.9864 108.0781 376.4394 109.6429 377.2218 109.9782 378.0042 109.4194 378.563 108.9723 379.0101 108.8605 380.0161 109.084 382.5868 108.7487 383.481 109.084 385.1575 110.3135 386.0517 110.5371 387.9518 109.7547 388.846 109.084 389.4048 108.0781 389.8519 106.0662 389.9637 105.1721 389.7402 104.1661 389.1813 103.1602 388.2871 102.6013 382.9221 101.5954 381.2455 100.813 379.7925 99.36 378.6748 97.9069 378.2277 97.6834 375.7688 99.0246 374.9864 99.1364 374.0922 98.9129 371.6332 96.901 370.7391 96.5657 368.3919 96.5657 367.2741 96.3421 366.2682 95.3362 365.7094 94.442 365.4858 93.3243 365.5976 92.3184 366.0447 91.3124 367.1624 89.6359 367.3859 89.077 367.4977 88.6299 367.6095 87.2887 368.0565 86.8416 368.7272 86.7298 369.3978 86.8416 369.8449 87.2887 370.4037 88.1828 370.9626 89.077 371.745 89.6359 372.4156 89.7476 373.0862 89.3006 374.3157 87.8475 374.9864 87.2887 375.9923 86.7298 375.3217 84.0473 375.0981 83.3767 374.7628 83.2649 371.8568 83.2649 371.1861 83.6002 370.0684 85.165 369.1743 85.2768 365.7094 84.3826 365.2623 84.0473 365.0387 83.8238 364.8152 83.1531 364.5916 82.8178 363.3622 82.4825 359.8972 82.259 359.2266 81.4766 359.7855 80.4706 362.3562 81.3648 363.2504 80.5824 363.3622 80.0235 363.2504 79.4647 363.3622 79.0176 363.4739 78.4587 363.921 78.2352 364.8152 78.1234 365.0387 77.6763 365.374 76.6704 365.9329 75.888 366.6035 75.2174 367.1624 74.5468 367.2741 73.5408 366.6035 72.982 365.7094 72.6466 365.0387 72.1996 364.5916 71.4172 364.3681 71.1936 363.8092 71.0818 362.2444 71.0818 361.6856 70.9701 361.462 70.523 361.462 70.0759 361.462 69.5171 361.6856 69.07 362.1327 68.3993 362.5798 68.1758 363.8092 67.8405 364.5916 67.8405 365.8211 68.064 365.9329 68.2876 366.0447 68.6229 366.2682 68.9582 366.6035 69.5171 367.0506 69.8524 367.4977 69.8524 367.833 69.07 367.9448 68.3993 367.833 67.6169 367.2741 66.2757 367.1624 66.0521 367.0506 65.158 368.3919 65.0462 369.0625 64.7109 369.5096 64.0403 369.9567 63.4814 370.6273 63.2579 372.6392 63.5932 372.9745 63.9285 373.6451 65.4933 374.0922 65.8286 375.9923 66.2757 375.9923 67.6169 376.2158 68.064 376.6629 68.1758 377.11 68.064 377.4453 67.7287 377.5571 67.0581 377.6689 66.2757 380.0161 66.2757 380.3514 66.611 380.6867 66.7228 381.022 66.7228 381.5809 65.9404 381.9162 65.9404 382.2515 66.0521 382.5868 66.2757 382.8103 67.0581 382.8103 67.6169 383.0339 68.064 383.481 68.3993 384.3751 68.6229 387.1694 68.8464 387.1694 66.2757 387.1694 66.0521 387.1694 65.2697 397.3406 64.8227 397.8994 64.9344 398.123 65.3815 398.123 66.2757 397.0053 67.0581 396.67 67.6169 396.7817 68.3993 397.2288 69.1817 398.4583 69.8524 399.0172 70.4112 399.2407 70.7465 399.4642 71.1936 399.7996 71.3054 400.1349 71.4172 400.582 71.1936 400.6937 70.8583 400.4702 69.5171 400.3584 69.2935 400.3584 68.9582 400.582 68.3993 401.6997 67.2816 401.2526 66.4992 401.1408 66.2757 400.8055 64.8227 401.4761 63.705 402.7056 62.9226 403.7116 62.699 405.947 62.5872 407.2882 61.9166 407.7353 62.0284 408.853 62.5872 409.5237 62.699 411.6473 62.0284 414.1063 62.3637 414.7769 62.0284 415.1122 61.246 415.1122 60.6871 414.8887 60.0165 414.6651 59.2341 415.0004 58.5635 415.8946 58.3399 417.3476 58.3399 420.1419 59.0106 420.2537 59.1223 421.1479 59.1223 421.8185 58.787 423.1597 57.6693 423.8304 57.334 425.5069 57.2222 429.5307 55.3221 430.4249 55.4339 431.2073 55.7692 433.2191 57.4458 433.8898 57.5575 434.3369 57.7811 434.5604 57.2222 435.3428 56.8869 436.237 56.6634 437.0194 56.2163 437.4664 55.0986 436.684 54.0926 436.3487 53.422 436.3487 53.0867 436.5723 52.8631 436.684 52.5278 436.9076 52.4161 437.3547 52.8631 437.69 53.0867 438.0253 53.0867 438.3606 53.0867 438.4724 52.8631 438.9195 52.4161 439.143 52.1925 439.4783 52.1925 440.596 52.5278 441.2667 52.3043 442.3844 51.7454 443.1668 51.6337 443.7256 51.2983 443.8374 51.1866 444.1727 50.963 444.508 51.0748 445.1787 51.2983 447.6376 51.0748 447.8612 50.8513 448.0847 50.6277 448.3083 50.2924 448.42 50.1806 448.7553 50.1806 449.3142 50.4042 449.5377 50.4042 450.2084 50.2924 451.2143 49.6218 451.5496 49.8453 453.1144 51.1866 453.8968 51.7454 454.791 51.7454 456.3558 50.963 457.9206 49.6218 459.4854 48.8394 461.1619 49.51 463.1738 52.1925 463.5091 52.6396 463.8444 52.8631 464.1798 52.9749 464.6268 52.9749 464.8504 52.8631 465.0739 52.5278 465.2975 52.5278 466.0799 52.7514 466.3034 52.7514 466.974 51.4101 466.1916 46.8275 466.7505 45.8216 466.6387 45.2627 466.6387 45.0392 466.6387 44.0332 467.0858 43.4744 470.2154 42.0213 470.886 42.0213 472.3391 42.4684 472.8979 42.2449 473.0097 41.3507 472.7861 39.7859 472.8979 39.2271 473.5685 39.0035 476.0275 39.3388 479.4924 40.5683 480.163 40.3448 480.8337 39.6741 481.6161 38.3329 482.2867 37.2152 483.0691 36.6563 484.9692 35.9857 485.4163 36.321 485.6398 39.2271 485.9751 39.8977 488.993 38.78 497.7111 35.6504 499.2759 35.4268 502.4055 35.5386 503.9703 35.3151 504.5292 34.868 505.5351 33.862 505.9822 33.6385 510.9001 33.3032 511.6825 33.1914 513.1355 32.2972 513.9179 32.1855 515.818 32.1855 516.824 31.9619 517.3828 31.1795 517.9417 30.1736 518.5006 29.503 519.1712 29.1677 520.8477 29.6147 522.5243 29.2794 526.9952 29.503 528.7835 28.8323 530.3483 27.6029 531.3542 25.8145 531.8013 25.2557 532.4719 24.6968 533.3661 24.3615 534.1485 24.4733 536.6075 25.591 540.5195 25.0321 540.8548 24.585 541.0783 23.4673 541.6372 23.2438 541.8607 22.7967 541.9725 22.2378 542.196 21.4554 542.6431 21.1201 543.3138 21.1201 543.8726 20.8966 543.9844 20.0024 541.9725 18.7729 541.0783 17.6552 541.5254 16.4257 540.9666 15.8669 540.743 15.7551 542.3078 14.8609 542.8667 14.7492 543.202 14.8609 543.5373 15.0845 543.9844 15.1963 544.4315 15.1963 545.6609 14.6374 546.3316 14.6374 548.2317 15.1963 549.9083 14.5256 550.4671 14.5256 551.1377 14.7492 551.3613 14.6374 551.6966 14.1903 551.6966 13.7432 551.5848 12.9608 551.5848 12.5138 552.0319 12.0667 553.1496 11.2843 553.3732 10.6136 553.2614 9.6077 553.2614 8.9371 553.4849 8.1547 553.8202 7.3723 554.2673 7.7076 554.6026 7.8194 556.8381 8.1547 557.3969 8.49 557.9558 8.9371 558.8499 10.5019 559.297 11.0607 559.8559 11.396 560.5265 11.0607 560.7501 10.3901 560.7501 9.7195 560.6383 8.0429 560.0794 7.5958 559.5206 7.3723 559.1853 6.9252 558.8499 5.4722 558.7382 5.1369 558.7382 4.8015 558.9617 4.4662 559.4088 4.2427 559.8559 4.1309 564.215 5.8075 564.8856 6.7017 565.3327 8.0429 565.8915 8.9371 566.8975 8.6018 568.9094 6.4781 569.58 6.3663 573.0449 7.9311 577.9628 8.6018 581.2042 10.3901 581.8748 11.0607 583.8867 13.9668 584.5573 14.4139 586.5692 14.6374 587.5751 14.9727 591.04 17.3199 591.3754 17.4317 591.8224 16.9846 592.6048 15.6433 593.1637 15.1963 595.3991 14.4139 595.6227 14.1903 595.6227 13.855 595.7344 13.4079 595.7344 13.0726 596.0697 12.402 597.0757 10.8372 597.5228 10.6136 597.7463 10.7254 599.5347 11.396 600.0935 11.396 600.6524 11.2843 601.2112 10.949 601.6583 10.3901 602.6642 9.7195 604.0055 9.4959 605.4585 9.7195 606.4645 10.2783 606.1292 10.8372 605.6821 11.6196 605.5703 12.2902 605.7938 12.9608 607.5822 15.308 609.9294 18.5494 610.3765 19.7789 610.3765 20.226 610.3765 20.7848 610.3765 20.8966 610.3765 21.0084 610.3765 21.1201 610.2647 22.3496 610.1529 22.9085 610.0411 23.4673 609.9294 24.2497 610.3765 25.4792 610.1529 25.9263 609.8176 26.4851 609.7058 27.1558 609.5941 27.9382 609.8176 28.6088 610.7118 29.7265 610.9353 30.2854 610.8235 31.5149 611.1589 32.8561 612.1648 33.9738 613.3943 34.6444 614.4002 34.9798 615.4062 34.868 615.965 35.0915 616.4121 35.5386 617.3063 36.8799 617.5298 37.774 617.5298 38.6682 617.1945 39.3388 616.7474 39.6741 615.4062 40.0095 614.6238 40.7919 614.512 41.9096 614.6238 45.0392 614.6238 45.2627 614.6238 45.4862 614.6238 45.7098 615.0708 46.2686 615.1826 46.8275 615.0708 48.2805 615.1826 48.5041 615.2944 48.6158 615.7415 48.8394 615.8532 48.9512 615.8532 49.2865 615.8532 50.0689 615.8532 50.6277 615.7415 52.4161 614.2884 52.7514 613.8414 52.7514 613.3943 52.5278 612.5001 52.0807 611.9413 51.8572 611.0471 51.8572 610.4882 52.1925 610.2647 52.9749 610.3765 54.5397 611.9413 54.6515 612.2766 54.7633 612.3883 55.4339 612.3883 56.4398 612.2766 57.4458 612.053 58.1164 613.059 58.5635 613.3943 59.0106 613.7296 59.5694 614.512 61.1342 614.9591 61.6931 615.5179 61.6931 616.4121 61.0224 617.0827 60.24 618.3122 58.0046 618.9828 57.4458 619.6535 57.5575 620.4359 58.0046 621.2183 58.1164 622.0007 58.1164 622.2242 58.2282 622.4477 58.6752 622.6713 59.2341 622.7831 61.3578 623.3419 61.246 624.6832 60.5754 625.242 60.4636 625.4656 60.6871 626.0244 61.1342 626.248 61.3578 626.695 61.4695 627.0304 61.3578 627.9245 60.9107 628.5952 60.3518 628.8187 59.793 628.7069 57.8928 628.8187 56.9987 629.0422 56.2163 629.3776 55.6574 629.9364 55.4339 634.8543 55.9927 635.4132 56.1045 635.8603 56.4398 636.3074 56.8869 637.7604 59.6812 638.3193 60.3518 639.1017 60.5754 639.6605 60.5754 640.2194 60.24 640.5547 59.5694 640.5547 58.3399 640.1076 57.6693 639.437 57.334 638.6546 57.2222 637.9839 56.8869 637.5369 56.5516 637.4251 56.3281 637.4251 55.7692 637.5369 55.3221 637.6486 54.7633 637.7604 54.3162 638.3193 53.1985 638.431 52.7514 638.2075 52.3043 637.6486 51.8572 636.7545 51.2983 636.5309 50.8513 636.4191 50.1806 636.8662 49.9571 639.6605 50.2924 640.4429 50.8513 641.3371 51.8572 642.1195 53.0867 642.4548 54.3162 642.7901 54.7633 643.9078 55.2103 644.2431 55.881 644.1314 56.4398 643.2372 58.4517 645.4726 59.3459 647.8198 60.24 647.9316 60.3518 647.8198 60.5754 647.708 60.6871 647.4845 61.3578 647.1492 61.4695 646.8139 61.3578 646.3668 61.3578 646.255 61.4695 646.1432 62.0284 646.0315 62.1402 645.8079 62.1402 645.0255 61.9166 644.802 62.0284 644.6902 62.4755 644.802 63.0343 644.9138 63.4814 645.3608 64.152 645.9197 64.7109 646.255 65.2697 646.0315 66.2757 645.3608 67.8405 645.1373 68.6229 645.1373 69.4053 645.5844 69.8524 646.3668 70.0759 647.1492 69.9641 647.708 69.6288 648.714 68.3993 649.3846 67.1699 649.7199 66.9463 650.0552 66.9463 652.626 68.064 653.2966 67.7287 653.1848 66.2757 652.626 65.0462 652.1789 64.152 651.5083 63.705 650.7259 63.705 648.4904 64.152 648.3787 63.8167 648.4904 63.0343 648.714 62.2519 648.9375 61.6931 650.0552 60.4636 651.3965 60.24 654.6378 60.6871 657.8792 61.0224 659.3322 60.7989 659.6675 61.0224 659.8911 61.5813 660.1146 62.3637 660.1146 63.9285 661.3441 64.4873 661.5677 65.158 661.7912 66.2757 662.2383 66.8345 665.4796 67.6169 669.727 68.6229 670.0623 68.5111 670.174 68.1758 670.174 67.6169 670.2858 67.2816 670.5094 67.0581 671.2917 67.1699 671.5153 67.1699 671.8506 67.5052 672.4095 68.1758 672.7448 68.2876 673.3036 68.064 673.6389 67.8405 673.7507 67.2816 673.6389 66.2757 673.8625 65.4933 675.3155 65.158 675.7626 64.4873 675.6508 64.0403 675.4273 63.4814 675.3155 63.1461 675.6508 62.9226 676.9921 62.699 677.4392 62.8108 677.4392 62.9226 677.5509 63.8167 677.7745 63.9285 679.1157 63.4814 678.1098 70.1877 677.6627 71.3054 677.2156 71.8642 676.545 71.976 672.7448 71.3054 672.0741 71.3054 671.5153 71.6407 670.9564 72.3113 670.5094 73.2055 671.6271 74.0997 669.3916 74.9938 668.9446 75.4409 668.3857 79.2411 667.268 79.4647 666.8209 79.6882 666.4856 80.2471 666.1503 81.0295 666.262 81.5883 667.1562 82.5943 666.4856 83.9355 670.5094 86.171 669.3916 88.7417 670.9564 89.9712 671.2917 89.8594 671.9624 89.1888 673.7507 87.2887 674.3096 86.7298 674.5331 86.3945 674.7567 85.9474 674.9802 85.165 675.092 84.8297 675.2037 84.6062 675.6508 84.3826 675.8744 84.3826 676.4332 84.4944 676.6568 84.3826 676.7685 84.0473 676.7685 83.712 676.8803 83.0414 676.8803 82.7061 676.9921 82.4825 677.1039 82.3707 679.004 82.3707 679.451 82.4825 680.3452 83.0414 680.6805 82.9296 682.4689 81.4766 683.2513 81.1413 684.0337 81.1413 685.0396 81.3648 686.7162 81.5883 687.0515 81.8119 687.1633 82.4825 687.1633 83.2649 687.1633 83.9355 687.4986 84.2708 688.281 84.2708 688.5045 84.0473 689.0634 83.0414 689.2869 82.9296 690.9635 82.9296 691.187 83.0414 691.4106 83.6002 691.6341 84.1591 691.8576 84.6062 692.3047 84.8297 692.193 85.7239 692.3047 86.3945 693.1989 87.2887 694.5402 88.4064 695.2108 88.6299 695.7696 87.9593 696.9991 84.0473 696.8873 83.8238 696.6638 83.3767 696.2167 82.9296 696.105 82.7061 696.3285 80.5824 696.552 79.6882 696.8873 79.2411 700.9111 79.4647 701.2464 79.1294 701.5817 77.1175 701.9171 76.5586 702.1406 76.3351 702.3641 76.2233 703.5936 76.1116 703.9289 75.888 704.0407 75.3292 704.376 74.0997 704.5996 73.429 704.8231 73.0937 705.6055 72.8702 707.7292 72.8702 708.6233 73.0937 710.5234 74.0997 711.1941 74.0997 714.4354 71.6407 717.3415 69.4053 721.2535 66.4992 719.4651 63.4814 721.1417 62.1402 722.0359 61.6931 722.93 61.6931 725.5008 61.9166 726.3949 61.8048 727.6244 61.1342 729.1892 60.4636 731.9835 59.1223 736.3426 56.9987 739.9193 55.3221 739.5839 54.3162 739.5839 53.6455 739.8075 52.9749 740.1428 52.1925 740.7017 51.4101 741.1487 51.1866 746.1784 52.5278 747.1844 52.1925 748.7492 51.0748 749.308 50.8513 749.7551 50.8513 750.4257 50.8513 750.8728 50.8513 751.3199 50.4042 751.4317 49.6218 751.4317 48.8394 751.5435 48.057 752.1023 47.3864 752.7729 47.2746 754.226 47.3864 754.7848 47.2746 756.5732 46.3804 757.0202 46.1569 757.6909 46.2686 758.0262 46.604 757.8026 47.6099 757.3556 47.9452 755.3437 48.5041 754.8966 48.8394 754.3377 49.3982 754.1142 49.9571 754.4495 50.516 755.679 50.8513 756.1261 51.2983 756.3496 52.3043 756.2378 53.3102 755.7908 54.2044 755.2319 54.875 754.7848 55.6574 754.5613 56.8869 754.3377 57.334 754.0024 57.7811 753.4436 58.3399 753.22 58.6752 751.8788 60.24 750.4257 60.24 747.1844 59.0106 745.6196 58.8988 745.1725 59.1223 744.7254 59.4576 744.6136 59.6812 747.1844 64.152 747.4079 64.7109 747.6315 66.2757 748.4139 67.6169 750.5375 69.2935 753.5553 71.7525 758.2497 75.5527 762.8323 79.2411 767.415 82.9296 772.1094 86.618 775.4625 89.4123 778.4803 92.7655 779.7098 94.2185 781.8334 96.4539 784.516 100.813 786.1925 103.8308 788.875 108.5252 791.5575 113.2196 794.24 118.0257 796.9226 122.7201 800.4992 129.3146 803.9641 135.9091 807.5408 142.3919 811.0057 148.9864 813.6882 154.0161 816.3707 159.0458 817.6002 161.2812 819.0532 164.0755 821.624 169.1052 823.8594 173.7996 826.0948 178.6057 828.3303 183.4119 830.5657 188.1063 831.6834 190.5652 833.0246 193.4713 833.6953 195.4832 834.0306 196.1538 834.5894 196.9362 835.3718 197.8304 836.266 198.3892 837.0484 198.3892 835.5954 196.1538 835.2601 194.9243 836.0425 194.4772 836.4895 194.7008 837.3837 195.7067 837.8308 195.9303 838.3897 195.8185 838.725 195.4832 839.0603 194.1419 839.3956 193.5831 839.7309 193.2477 840.7369 192.8007 840.9604 192.5771 841.2957 192.13 841.5193 191.9065 841.8546 191.9065 842.8605 192.0183 843.8664 191.7947 844.8724 191.2359 845.7666 190.2299 846.3254 188.8887 846.3254 188.3298 846.4372 187.6592 846.4372 186.8768 846.3254 186.3179 846.1019 185.7591 845.4312 184.9767 845.0959 184.5296 844.9842 183.9707 844.9842 183.3001 845.0959 181.9589 845.3195 181.1765 845.6548 180.7294 846.1019 180.3941 846.6607 180.2823 848.7844 180.6176 849.7903 180.3941 850.1256 179.3881 850.1256 178.7175 850.3492 178.1586 850.5727 177.5998 850.908 177.1527 851.3551 176.7056 851.8022 176.7056 855.1553 178.2704 855.826 178.3822 856.1613 178.1586 856.3848 177.7116 856.8319 177.3762 857.3908 177.3762 857.6143 177.9351 857.6143 179.2763 857.8378 180.0587 858.1732 180.5058 859.1791 181.0647 860.2968 181.6235 860.8557 181.7353 861.5263 181.8471 862.1969 181.0647 862.5322 180.8411 863.0911 180.9529 863.5382 181.2882 863.6499 181.7353 863.6499 182.4059 863.4264 183.3001 861.7498 187.4356 861.0792 189.7828 860.9674 190.3417 861.191 190.677 861.6381 191.0123 862.3087 191.1241 863.6499 191.1241 866.6678 190.1182 869.6856 190.2299 869.6856 191.6829 870.1327 193.0242 870.6915 194.1419 871.3622 195.1479 870.8033 196.042 870.3562 196.9362 870.1327 197.9421 870.468 198.8363 871.1386 199.2834 876.5036 199.0598 877.0625 198.7245 877.8449 197.495 878.292 197.1597 878.7391 197.1597 879.6332 197.8304 880.1921 197.8304 881.9804 197.495 883.2099 197.7186 884.3276 198.0539 884.8865 198.501 886.4513 199.8422 887.0101 200.1776 888.2396 200.4011 888.9102 200.2893 889.5809 200.0658 890.0279 199.7305 890.475 199.0598 890.9221 198.7245 891.3692 198.7245 891.8163 198.9481 892.1516 198.8363 892.3751 198.6128 892.8222 198.3892 893.0458 198.501 893.3811 198.6128 893.6046 198.8363 894.7223 198.501 895.2812 198.8363 896.3989 199.954 899.6403 197.7186 901.3168 196.9362 901.9875 196.042 901.9875 193.3595 902.6581 192.5771 903.664 192.3536 905.5641 192.9124 908.9173 193.2477 910.035 192.9124 910.9292 191.9065 911.5998 190.4535 912.1586 188.8887 912.3822 188.8887 912.6057 188.7769 912.941 188.8887 913.4999 189.1122 913.947 189.1122 914.3941 189.1122 914.7294 188.8887 917.5237 188.5534 920.3179 188.8887 920.9886 190.0064 921.3239 190.4535 921.8827 190.7888 924.677 191.3476 925.2359 191.5712 926.6889 192.9124 927.2477 193.2477 927.6948 193.3595 928.8125 193.3595 929.3714 193.5831 929.9303 193.8066 930.3773 194.2537 931.1597 195.7067 931.495 196.042 932.3892 196.4891 933.1716 197.2715 933.0598 199.7305 933.7305 200.96 936.5248 202.9718 936.8601 203.3072 937.6425 204.3131 937.866 205.0955 937.9778 205.6543 938.0895 206.2132 938.9837 207.2191 939.2073 207.8898 939.319 208.5604 938.7602 210.684 939.0955 211.9135 939.7661 213.0312 940.325 214.3725 940.4367 215.2667 940.325 216.1608 940.325 216.9432 940.5485 217.6139 940.8838 217.9492 941.6662 218.0609 941.8898 218.2845 942.1133 218.6198 942.4486 219.1787 942.5604 219.514 943.5663 219.514 944.4605 218.7316 945.3547 218.2845 946.2488 218.9551 946.9195 219.8493 947.7019 220.2964 948.4843 220.5199 949.4902 220.5199 950.3844 220.5199 950.9432 221.1905 951.5021 221.8612 952.2845 222.42 952.7316 222.5318 953.6257 222.42 954.0728 222.6436 954.2964 222.9789 954.967 224.4319 955.1905 224.6554 955.6376 224.4319 956.0847 224.2084 956.42 223.9848 956.9789 224.0966 958.6554 224.879 958.879 225.1025 959.7732 226.4438 959.9967 226.8909 959.8849 227.5615 959.4378 227.785 958.3201 228.0086 958.0966 228.1204 957.9848 230.3558 958.0966 231.3617 958.6554 231.8088 960.1085 232.1441 960.6673 232.5912 961.0026 233.4854 961.1144 234.9384 961.2262 235.4972 961.6733 236.1679 963.3498 237.9562 963.7969 239.0739 964.1322 242.2035 964.8029 243.3212 965.8088 243.8801 966.8147 243.5448 967.2618 243.2095 967.7089 242.8741 968.2678 242.6506 968.8266 242.5388 969.3855 242.7624 970.5032 243.5448 971.062 243.7683 971.9562 243.7683 972.5151 243.5448 972.9622 243.3212 973.7446 242.6506 974.0799 242.4271 974.527 242.5388 974.8623 242.8741 975.1976 243.9919 975.5329 244.5507 975.98 244.6625 976.4271 244.5507 977.3212 244.2154 977.8801 244.2154 978.2154 244.4389 978.6625 244.886 978.9978 245.3331 979.3331 245.5567 979.7802 245.4449 980.6744 244.7743 981.1215 244.5507 981.6803 244.5507 982.6862 244.6625 982.6862 244.9978 982.4627 246.5626 982.4627 247.2332 982.798 247.6803 983.2451 247.7921 983.5804 247.6803 984.0275 247.2332 984.8099 246.3391 985.9276 246.0037 986.9336 246.2273 987.4924 247.2332 988.4983 248.3509 989.5043 247.1215 990.2867 245.1096 990.8455 243.7683 992.2986 242.7624 993.8634 242.2035 995.5399 240.6387 995.987 240.4152 996.0988 240.1916 996.0988 239.8563 996.0988 239.4092 995.8752 238.9622 996.993 238.2915 997.2165 238.1798 997.44 237.8444 997.6636 237.6209 997.8871 237.7327 997.9989 237.7327 998.2224 237.6209 998.6695 236.9503 998.8931 236.1679 999.3402 235.609 1000.1226 235.7208 1001.1285 236.2796 1001.5756 236.2796 1002.2462 236.1679 1002.6933 236.1679 1003.0286 236.2796 1003.0286 236.7267 1002.8051 237.1738 1002.5815 237.6209 1002.4697 237.9562 1002.5815 238.4033 1002.8051 238.8504 1003.4757 239.521 1002.9168 240.0799 1002.4697 240.4152 1001.9109 240.6387 1000.6814 240.6387 1000.2343 241.0858 999.3402 242.4271 998.8931 243.0977 998.8931 243.6565 999.0048 244.2154 999.4519 244.7743 1000.1226 245.2213 1000.6814 245.2213 1001.7991 244.886 1002.358 244.9978 1004.0345 246.1155 1004.5934 246.6744 1004.5934 247.2332 1004.3699 248.0156 1004.3699 248.9098 1004.7052 249.5804 1005.3758 250.0275 1006.6053 250.5864 1007.2759 251.1452 1007.2759 251.5923 1006.9406 251.9276 1006.6053 252.71 1006.8288 253.1571 1007.3877 253.716 1008.9525 255.0572 1009.2878 255.3925 1009.3996 255.7278 1009.3996 256.1749 1009.6231 256.622 1009.9584 256.8455 1010.2937 256.9573 1010.8526 257.0691 1012.9762 256.8455 1013.7586 256.9573 1014.4293 257.2926 1015.7705 258.2986 1016.1058 259.081 1016.6647 261.7635 1017 262.7694 1013.9822 261.8752 1012.9762 261.4282 1011.8585 261.0928 1008.3936 262.5459 1007.6112 262.4341 1006.1582 261.987 1005.4876 262.0988 1004.9287 262.4341 1004.3699 263.7754 1004.0345 264.446 1003.0286 265.2284 1002.5815 265.7872 1002.2462 266.4579 1001.9109 267.2403 1001.7991 267.7991 1001.7991 268.4697 1002.0227 269.3639 1002.5815 270.5934 1003.3639 271.3758 1003.811 272.1582 1003.1404 273.2759 1002.6933 273.8348 1002.4697 274.2818 1002.5815 274.7289 1002.8051 276.2937 1002.8051 276.8526 1002.6933 277.2997 1000.7932 279.8704 999.5637 280.9881 999.2284 281.547 998.8931 282.1058 998.446 283.4471 998.2224 283.8942 997.6636 284.2295 994.8693 285.459 992.4103 285.2354 991.7397 285.5707 991.2926 286.0178 990.2867 287.2473 988.9454 288.0297 984.251 287.5826 978.7743 288.365 977.8801 289.0356 977.0977 290.1534 973.8563 298.3127 973.1857 302.4482 972.8504 303.9012 972.4033 304.7954 972.068 305.6895 972.068 306.5837 974.0799 317.5373 974.0799 318.7668 973.6328 321.2257 973.7446 322.3435 974.1916 323.4612 975.8682 326.3672 976.0917 327.1496 975.98 327.8202 975.8682 328.4909 975.8682 329.1615 976.0917 329.8321 976.0917 330.391 975.8682 331.6205 975.7564 332.2911 975.6447 332.8499 975.3094 333.1853 974.1916 333.297 973.6328 333.5206 973.0739 333.8559 972.8504 334.5265 972.7386 335.1971 972.6268 335.756 972.4033 336.2031 972.068 336.7619 971.8444 337.4326 971.8444 338.1032 971.6209 338.5503 969.9443 338.4385 966.8147 338.9974 965.3617 338.7738 964.9146 338.8856 964.3558 339.2209 964.0205 339.5562 963.4616 340.6739 962.9028 341.2328 961.1144 342.4623 960.4438 343.3564 960.1085 343.4682 958.9908 343.8035 958.6554 344.0271 958.2084 344.3624 957.6495 345.4801 957.2024 345.8154 955.3023 346.2625 953.4022 347.0449 952.7316 347.1567 952.2845 346.9331 952.1727 346.3743 952.3963 345.8154 952.7316 345.2565 953.0669 344.6977 953.0669 343.3564 952.6198 342.3505 951.7256 341.4563 950.8315 341.0092 949.7138 340.8975 947.3666 341.5681 946.2488 341.3446 944.9076 340.6739 944.4605 340.6739 944.0134 340.6739 940.9956 340.4504 938.3131 340.6739 936.7483 341.5681 936.0777 341.6799 934.4011 341.3446 932.0539 341.3446 922.5534 337.9914 918.3061 335.0854 917.3001 334.6383 915.0647 334.0794 914.5058 333.8559 913.2763 332.7382 912.6057 332.5146 911.9351 332.4029 911.2645 332.4029 910.7056 332.5146 910.035 332.8499 909.8114 333.297 909.8114 334.7501 909.8114 335.1971 909.4761 335.9795 909.4761 336.4266 909.4761 336.7619 909.6997 337.4326 909.5879 337.8796 909.2526 339.2209 909.1408 340.0033 909.2526 340.6739 909.3644 341.3446 909.2526 341.9034 909.1408 342.4623 905.4524 350.1745 903.2169 358.7809 902.211 360.9045 902.0992 361.5751 901.7639 363.4752 901.4286 364.7047 899.752 367.3872 898.7461 369.5109 898.0755 371.8581 897.4048 376.776 896.7342 380.0174 896.3989 381.1351 895.7283 382.8117 893.8282 386.053 892.934 389.6297 892.1516 391.418 892.0398 392.424 891.8163 393.2064 892.7105 394.6594 893.6046 394.9947 897.4048 395.5536 899.9756 396.6713 900.3109 397.3419 900.4227 398.6832 900.4227 400.0244 899.8638 403.2658 899.1932 405.8365 898.0755 407.7366 896.3989 407.9602 895.2812 407.1778 893.1575 404.8306 891.9281 404.0482 890.6986 403.8246 889.3573 404.2717 884.6629 406.6189 883.3217 406.9542 882.4275 406.5072 881.8686 405.9483 881.5333 405.7248 879.8568 405.3894 879.5215 405.1659 879.2979 404.7188 879.2979 403.8246 879.1861 402.5952 878.7391 401.1421 878.1802 400.1362 877.286 400.0244 876.2801 399.8009 875.2741 400.248 873.2623 401.701 863.3146 404.8306 861.3028 405.9483 860.2968 406.3954 859.1791 406.3954 856.0495 407.6249 855.4906 407.6249 853.367 406.9542 852.2493 406.9542 848.2255 408.519 846.4372 408.2955 845.9901 408.4073 845.4312 408.8543 844.9842 410.0838 844.5371 410.4191 843.9782 410.5309 842.0781 410.4191 840.2898 411.0898 838.5014 410.8662 837.3837 410.8662 836.3778 411.4251 835.4836 412.3193 833.0246 414.4429 831.7952 415.0018 831.3481 415.4488 830.901 416.4548 831.5716 417.349 834.7012 419.2491 835.8189 419.3608 840.2898 418.4667 840.9604 418.4667 841.4075 418.6902 842.637 419.8079 846.6607 421.3727 847.1078 421.5963 847.2196 422.0433 847.1078 422.4904 846.6607 422.8257 845.0959 423.1611 844.2018 423.6081 843.7547 424.2788 843.6429 424.6141 843.7547 424.9494 844.2018 425.5083 844.4253 425.9553 844.3135 426.4024 843.9782 427.1848 843.3076 429.7556 843.084 431.2086 843.1958 432.4381 844.09 437.5795 844.09 438.9208 843.4194 441.3798 843.3076 442.721 843.4194 443.3916 843.7547 443.8387 844.6488 444.6211 844.8724 445.18 845.0959 445.8506 845.0959 446.4095 845.0959 447.1919 845.4312 447.8625 845.7666 448.6449 846.6607 449.9861 849.6785 457.8101 852.5846 465.5223 852.4728 466.64 852.1375 467.7578 850.7963 470.105 851.2433 470.6638 852.1375 470.8873 853.1435 471.3344 853.4788 471.8933 853.7023 472.4521 853.7023 473.1228 853.8141 473.7934 853.9259 474.464 854.4847 475.47 854.5965 476.1406 854.4847 476.8112 854.1494 477.3701 853.5905 477.7054 853.0317 477.8172 852.5846 477.7054 851.2433 476.6994 850.2374 476.6994 849.2315 477.1465 847.2196 478.5996 845.0959 479.6055 843.9782 480.2761 843.6429 481.1703 844.2018 482.0645 844.9842 482.7351 846.6607 483.6293 847.8902 483.741 848.3373 484.0763 848.6726 484.6352 848.5608 485.3058 848.002 485.6411 846.6607 485.8647 844.8724 486.5353 844.3135 486.9824 843.1958 487.4295 842.7487 487.5413 841.8546 487.2059 841.4075 487.2059 841.0722 487.4295 840.5133 488.3237 839.9545 490.3355 839.5074 491.3415 838.6132 492.7945 838.3897 493.2416 838.3897 494.024 838.5014 494.5828 838.725 495.0299 838.9485 496.3712 839.1721 496.93 839.8427 497.936 840.0662 498.4948 840.178 498.8301 839.9545 499.2772 839.7309 499.9479 839.7309 500.3949 840.2898 503.0774 840.5133 503.6363 840.7369 504.0834 841.0722 504.5305 841.5193 506.9894 841.2957 507.6601 841.0722 508.1072 840.0662 508.666ZM811.4528 359.3397L811.5646 358.7809 811.6763 356.5454 811.8999 355.4277 811.8999 355.2042 811.8999 355.0924 812.347 354.8689 814.5824 354.5336 814.9177 354.5336 815.4766 354.7571 815.9237 354.0865 816.3707 352.6334 815.9237 350.8451 815.5883 350.0627 814.9177 349.6156 814.6942 349.2803 814.4706 348.6097 814.2471 348.1626 813.4647 347.3802 812.9058 347.1567 811.2293 346.9331 810.7822 346.9331 810.4469 347.2684 810.4469 347.492 810.5586 348.1626 810.6704 348.6097 810.6704 349.0568 810.6704 349.3921 810.7822 349.7274 809.6645 349.5039 808.8821 348.8332 808.0997 347.9391 807.2055 347.492 806.6466 347.492 805.5289 347.8273 804.8583 347.9391 804.523 348.2744 804.1877 348.945 804.1877 349.6156 804.9701 350.1745 806.1996 352.1864 806.6466 352.4099 807.5408 352.7452 807.9879 353.0805 808.3232 353.6394 808.0997 353.8629 804.8583 354.1982 804.8583 353.8629 805.1936 353.6394 805.4172 353.5276 805.5289 353.4158 805.4172 352.7452 805.1936 351.851 804.8583 351.0686 804.523 350.7333 804.2994 350.6216 803.8524 350.0627 803.6288 349.9509 803.2935 349.9509 802.6229 350.1745 802.2876 350.1745 800.7228 349.5039 800.1639 349.3921 799.8286 349.6156 799.6051 349.9509 799.6051 350.2862 799.3815 350.7333 798.3756 351.404 797.8167 351.9628 797.3696 352.5217 797.2579 352.857 797.2579 353.3041 797.2579 353.7512 797.0343 353.8629 796.9226 354.0865 796.5872 354.7571 796.4755 354.8689 796.2519 354.6453 796.1402 354.1982 795.9166 353.7512 795.9166 353.4158 796.4755 352.7452 796.699 352.2981 796.5872 352.1864 796.2519 352.1864 796.0284 352.2981 795.8048 352.5217 795.4695 352.857 795.3578 353.4158 795.3578 354.31 795.1342 354.7571 794.5754 354.4218 794.7989 353.7512 794.7989 353.0805 794.5754 352.4099 794.24 351.9628 793.9047 352.6334 793.793 353.7512 793.6812 355.763 793.793 356.0983 794.24 356.9925 794.24 357.3278 794.0165 357.7749 793.3459 358.222 793.2341 358.4455 793.3459 359.5633 793.2341 359.8986 792.787 360.1221 792.5635 360.0103 791.7811 359.5633 791.5575 359.3397 791.2222 358.5573 790.8869 356.8807 790.5516 356.4337 789.9927 356.769 789.6574 356.4337 789.0986 355.2042 788.7633 354.7571 788.4279 354.5336 788.0926 354.5336 786.8631 354.9806 786.5278 355.0924 786.0807 354.8689 784.0689 353.9747 782.5041 352.857 782.057 352.857 781.051 353.1923 779.2627 353.1923 778.3685 352.9688 777.9215 352.4099 777.1391 352.857 776.9155 352.9688 776.692 352.857 776.2449 352.5217 776.0213 352.4099 775.4625 352.5217 775.4625 352.857 775.9096 353.3041 776.3567 353.4158 775.686 353.7512 771.774 353.4158 769.8739 354.0865 767.862 354.31 767.3032 354.5336 766.7443 354.8689 766.409 355.4277 766.1855 355.9866 765.8502 356.4337 764.1736 356.8807 763.9501 356.8807 763.6147 356.6572 763.503 356.4337 763.6147 356.2101 763.503 355.8748 762.7206 354.5336 761.8264 353.6394 760.7087 353.3041 759.4792 353.4158 758.8086 353.6394 758.585 353.6394 758.2497 353.6394 758.0262 353.5276 756.7967 351.9628 756.2378 351.6275 755.9025 351.9628 756.0143 353.0805 756.9085 354.31 758.0262 355.4277 758.585 356.4337 757.9144 356.0983 756.4614 355.2042 754.226 354.31 753.5553 353.8629 753.1083 353.1923 753.4436 352.9688 753.5553 352.5217 753.4436 352.1864 753.3318 351.9628 752.7729 352.4099 752.3259 352.5217 751.767 352.5217 750.5375 352.1864 750.2022 352.1864 748.9727 352.7452 748.7492 352.9688 748.5256 353.0805 748.4139 353.3041 748.4139 353.5276 748.4139 354.0865 748.3021 354.4218 748.0785 354.4218 747.5197 353.8629 745.5078 352.6334 745.396 353.3041 745.0607 353.3041 744.7254 352.857 744.6136 352.2981 744.6136 350.9569 744.6136 350.1745 744.3901 349.9509 743.4959 349.7274 741.037 348.1626 739.0251 347.6037 737.9074 347.6037 737.3485 348.0508 737.2367 348.3861 737.125 348.1626 736.7897 347.7155 736.4543 347.7155 736.2308 347.9391 736.0073 348.1626 735.7837 348.3861 735.4484 348.6097 735.0013 348.8332 734.666 348.945 734.1072 348.945 734.1072 348.7215 734.3307 348.2744 733.9954 347.8273 733.8836 347.3802 734.4425 346.9331 733.4365 346.3743 732.5424 346.9331 731.76 347.7155 730.8658 348.1626 730.5305 348.0508 729.6363 347.7155 729.0774 347.7155 728.8539 347.8273 728.4068 348.1626 728.1833 348.1626 728.0715 348.1626 727.7362 347.9391 727.5127 347.9391 727.1773 348.0508 726.0596 348.8332 725.6125 348.945 725.1655 349.0568 722.7065 350.0627 719.3534 350.1745 718.2356 350.5098 717.565 350.5098 717.1179 350.2862 716.5591 349.8392 714.9943 349.1685 713.5413 348.1626 713.2059 347.9391 712.8706 347.492 712.7589 346.486 712.5353 345.9272 712.0882 346.2625 712.0882 346.486 712.2 346.9331 712.2 347.2684 711.5294 347.492 711.3058 347.7155 710.9705 348.2744 710.747 348.4979 710.4117 348.7215 710.0763 348.7215 709.8528 348.3861 709.741 347.9391 709.8528 347.7155 710.1881 347.7155 710.4117 347.492 710.4117 346.7096 710.0763 346.3743 709.6293 346.5978 709.1822 347.6037 708.7351 347.492 707.6174 346.9331 707.3938 347.3802 707.0585 348.4979 706.7232 348.7215 705.7173 348.7215 704.5996 348.3861 700.7993 348.7215 701.3582 349.3921 701.47 349.7274 701.1347 349.9509 700.6876 349.8392 700.464 349.6156 700.2405 349.6156 699.7934 349.9509 699.5699 350.5098 698.8992 353.9747 699.011 354.7571 698.8992 355.0924 698.6757 354.9806 698.5639 354.9806 698.3404 354.9806 698.0051 355.2042 695.8814 355.9866 695.5461 356.3219 695.4343 356.769 695.3226 357.3278 694.9872 358.222 694.9872 358.6691 694.3166 358.6691 693.0871 359.2279 692.4165 359.3397 691.8576 359.5633 691.4106 360.1221 691.0752 360.681 690.6282 361.1281 689.734 360.681 688.9516 360.681 688.1692 361.0163 687.3868 361.5751 684.9278 364.2576 685.1514 364.9283 684.9278 365.2636 684.4807 365.3754 684.1454 365.8224 684.369 366.1578 684.4807 366.9402 684.5925 367.2755 684.9278 367.2755 685.2631 367.0519 685.4867 367.0519 685.5985 367.3872 685.4867 368.0579 685.4867 368.3932 685.7102 368.505 686.3809 368.6167 686.6044 368.505 686.8279 368.2814 686.7162 368.7285 686.3809 369.0638 685.5985 369.7344 685.2631 369.958 684.9278 369.958 683.8101 369.2873 683.4748 369.1756 683.0277 369.1756 682.5806 369.1756 682.0218 369.3991 681.7982 369.6227 681.3512 370.7404 680.2334 369.1756 680.0099 368.6167 679.8981 368.2814 679.451 368.505 679.1157 369.0638 679.004 369.958 678.4451 369.7344 677.8862 369.8462 677.3274 370.0697 676.9921 371.2992 676.7685 371.411 676.545 371.5228 676.4332 371.6345 676.545 371.9699 676.6568 372.1934 676.8803 372.3052 677.1039 372.4169 676.545 373.3111 676.6568 373.9817 677.1039 374.4288 678.4451 375.323 678.7804 375.6583 679.004 375.8818 679.1157 376.3289 679.004 376.776 679.1157 377.1113 679.5628 377.3349 679.2275 377.5584 678.8922 377.5584 678.1098 377.3349 678.2216 377.2231 678.2216 376.776 678.3333 376.6642 677.8862 376.6642 677.3274 376.9996 676.9921 377.2231 677.2156 377.3349 677.4392 377.5584 677.2156 377.8937 676.6568 378.5644 676.9921 379.235 676.7685 379.7938 676.3215 380.2409 675.7626 380.2409 675.7626 380.4645 675.8744 380.9116 675.9861 381.0233 675.6508 381.0233 675.5391 381.2469 675.4273 381.6939 675.4273 382.6999 675.3155 382.9234 674.9802 383.3705 674.8684 383.2587 673.7507 383.2587 673.5272 383.0352 672.8565 382.0293 672.5212 382.141 672.5212 382.3646 672.4095 382.5881 672.4095 382.6999 671.6271 383.147 671.5153 383.2587 671.2917 383.5941 671.2917 383.8176 671.7388 384.3765 672.2977 384.7118 673.7507 384.8235 674.1978 385.3824 674.6449 385.2706 674.6449 385.4942 674.4213 385.8295 674.1978 385.9413 673.8625 385.9413 673.6389 386.1648 673.5272 386.3883 673.5272 387.7296 673.3036 388.1767 672.9683 388.1767 671.8506 388.0649 671.6271 388.0649 671.5153 388.512 671.5153 389.2944 671.5153 389.6297 671.4035 389.965 671.2917 390.5239 671.6271 391.1945 672.0741 391.7534 672.4095 391.9769 673.6389 392.0887 674.086 392.3122 676.0979 393.877 676.545 394.3241 676.8803 394.9947 677.3274 396.6713 677.6627 397.3419 678.1098 398.0125 678.5569 398.5714 679.1157 399.0185 679.6746 399.3538 679.5628 399.5773 679.3393 399.4656 679.2275 399.3538 678.8922 399.5773 680.6805 400.695 681.2394 401.2539 680.9041 401.701 680.9041 402.1481 681.2394 402.4834 681.5747 402.7069 681.6865 402.8187 681.91 402.8187 682.1336 402.9305 682.2453 403.154 682.3571 403.4893 682.4689 403.7129 683.0277 404.2717 683.8101 404.607 684.5925 404.4953 685.2631 404.16 685.7102 404.3835 685.822 404.7188 685.5985 404.9424 685.1514 404.9424 685.1514 405.1659 685.4867 405.2777 685.7102 405.5012 685.822 405.7248 685.5985 406.0601 685.822 406.3954 685.9338 406.7307 686.2691 406.9542 686.4926 407.066 686.1573 407.066 685.4867 407.1778 685.2631 407.4013 685.2631 408.2955 685.3749 408.7426 685.5985 409.0779 686.3809 409.9721 686.4926 410.1956 686.3809 410.4191 685.5985 410.978 685.2631 411.2015 685.4867 411.3133 685.7102 411.5369 685.822 411.6486 685.7102 411.7604 685.5985 412.0957 687.6103 412.5428 688.0574 412.3193 688.7281 413.2134 688.9516 413.3252 689.1751 413.1017 689.0634 412.5428 688.7281 412.0957 688.3927 411.8722 688.5045 411.5369 688.8398 410.6427 688.5045 410.7545 687.6103 411.3133 687.3868 410.8662 687.3868 410.5309 687.4986 410.3074 687.8339 410.1956 688.5045 410.0838 689.0634 409.8603 689.5105 409.525 689.9575 408.9661 689.2869 407.2895 689.0634 404.8306 689.0634 404.16 689.2869 403.0422 689.6222 401.9245 689.734 400.8068 689.6222 399.5773 689.2869 399.6891 689.1751 399.8009 689.0634 400.0244 689.1751 400.248 688.8398 400.5833 688.3927 400.5833 687.9457 400.4715 687.6103 400.1362 687.3868 399.6891 687.4986 399.4656 687.7221 399.242 687.8339 398.7949 687.8339 398.2361 687.3868 397.5655 687.3868 397.0066 688.0574 395.2183 687.6103 394.7712 687.3868 394.2123 687.3868 393.6535 687.7221 392.9828 688.6163 392.2004 689.6222 391.5298 691.4106 390.971 691.9694 390.5239 692.3047 389.7415 692.3047 389.0708 692.0812 388.4002 691.8576 387.8414 693.0871 388.6238 693.646 388.7355 693.9813 388.0649 693.8695 387.8414 693.9813 387.6178 693.7578 387.1707 692.4165 386.1648 691.9694 386.5001 691.5223 386.5001 691.2988 386.1648 691.2988 385.3824 691.4106 385.1589 691.5223 384.8235 691.7459 384.6 691.9694 384.4882 692.3047 384.6 692.5283 384.8235 692.64 385.0471 692.4165 385.3824 692.7518 385.3824 692.9754 385.1589 693.1989 384.8235 693.3107 384.4882 693.4224 384.3765 693.5342 384.2647 693.646 384.2647 693.646 384.0411 693.646 383.9294 693.4224 383.5941 693.3107 383.3705 693.3107 383.147 692.8636 382.4763 692.8636 382.141 692.7518 381.2469 692.5283 380.4645 692.193 379.7938 691.8576 379.1232 691.5223 378.5644 691.2988 377.6702 691.4106 376.9996 692.0812 376.5525 692.5283 376.1054 692.8636 375.8818 693.0871 375.7701 693.8695 375.8818 694.4284 375.7701 695.5461 375.323 696.105 375.2112 696.6638 375.2112 696.9991 375.5465 697.8933 376.3289 698.3404 376.8878 698.5639 376.8878 698.8992 376.776 699.1228 376.2172 699.3463 376.1054 699.5699 376.2172 701.3582 375.4348 701.2464 374.4288 701.9171 373.6464 702.8112 373.3111 703.2583 373.87 704.5996 373.1993 705.0466 372.7523 705.4937 372.1934 705.829 371.5228 705.4937 370.8521 705.1584 370.1815 705.1584 369.7344 705.2702 369.1756 706.4997 367.6108 706.835 366.9402 706.9468 366.1578 707.0585 365.2636 707.1703 364.593 707.9527 362.0222 708.288 361.6869 708.7351 361.9105 709.1822 362.3575 709.741 362.6928 710.2999 362.6928 710.8587 362.5811 711.4176 362.134 711.7529 361.4634 711.9765 360.7927 712.3118 360.0103 713.2059 358.8926 713.7648 358.6691 714.1001 359.1162 713.653 359.3397 712.9824 360.2339 712.5353 360.5692 712.5353 360.7927 712.9824 360.9045 713.2059 361.0163 713.5413 361.3516 713.7648 361.5751 713.9883 361.1281 714.1001 361.2398 714.3237 361.4634 714.5472 361.5751 714.8825 361.5751 715.4414 361.3516 715.7767 361.3516 715.6649 361.5751 716.112 361.4634 716.7826 360.7927 717.1179 360.5692 717.3415 360.4574 717.1179 360.0103 716.5591 359.3397 717.3415 359.0044 717.565 358.8926 717.4532 358.6691 717.0062 358.3338 716.8944 358.222 717.0062 357.7749 717.4532 357.5514 718.3474 357.3278 718.9063 357.4396 719.2416 357.7749 719.3534 357.9985 719.018 358.1102 718.7945 358.4455 718.7945 359.0044 718.9063 359.4515 719.3534 359.675 719.3534 359.7868 719.3534 360.0103 719.2416 360.1221 719.6887 360.1221 720.1358 359.7868 720.4711 359.2279 720.8064 358.6691 720.9182 358.7809 721.1417 359.1162 721.2535 359.3397 721.3652 358.7809 721.5888 358.6691 721.9241 358.7809 722.2594 358.5573 722.2594 358.4455 722.3712 358.3338 721.7006 357.9985 721.5888 357.6631 721.477 357.2161 721.3652 356.769 721.2535 356.5454 721.1417 356.4337 720.9182 356.2101 720.6946 355.6513 720.4711 354.7571 720.4711 353.9747 720.8064 353.6394 721.1417 353.5276 721.8123 352.6334 722.1476 352.4099 722.3712 352.2981 722.7065 352.1864 724.2713 352.1864 724.7184 352.4099 725.0537 352.9688 724.7184 353.0805 724.4948 353.1923 724.3831 353.4158 724.7184 353.6394 724.2713 354.0865 723.7124 354.1982 723.2653 353.9747 723.3771 353.4158 723.2653 353.1923 723.1536 352.6334 722.93 352.7452 722.8183 352.9688 722.7065 353.1923 722.7065 353.5276 722.5947 353.6394 722.3712 353.7512 722.1476 353.9747 722.1476 354.4218 722.3712 354.7571 723.3771 356.5454 724.8301 357.6631 725.0537 357.9985 724.8301 358.4455 724.1595 359.1162 723.8242 359.675 724.8301 359.4515 725.2772 359.3397 725.7243 359.1162 726.2832 358.6691 726.5067 358.6691 726.7303 358.6691 726.7303 358.8926 726.842 359.1162 727.0656 359.1162 727.2891 358.8926 727.5127 357.9985 727.7362 357.6631 728.1833 357.4396 728.5186 357.4396 729.1892 357.6631 729.4128 357.7749 729.5245 357.9985 729.6363 358.222 729.8598 358.3338 729.9716 358.3338 730.4187 357.9985 730.5305 357.8867 731.4246 357.7749 731.8717 357.6631 732.207 356.8807 732.6541 356.9925 733.4365 357.3278 734.1072 357.3278 734.3307 357.4396 734.5542 357.8867 734.1072 358.1102 733.8836 358.1102 733.8836 358.3338 736.4543 358.1102 736.5661 358.1102 736.9014 358.3338 737.0132 358.3338 737.2367 358.222 737.3485 358.1102 737.3485 357.9985 737.2367 357.8867 737.125 357.6631 736.9014 357.3278 736.7897 356.9925 736.9014 356.8807 737.4603 356.9925 738.4662 357.3278 740.2546 357.5514 740.7017 357.4396 740.5899 356.6572 741.037 356.769 741.484 356.9925 741.8194 356.8807 741.7076 356.2101 741.9311 356.3219 742.3782 356.4337 742.3782 356.2101 742.2664 356.0983 741.9311 355.8748 742.3782 355.6513 742.9371 355.8748 744.8372 356.8807 745.2843 357.1043 754.1142 357.4396 755.0084 357.8867 758.0262 360.1221 758.4733 360.1221 758.4733 359.3397 761.3793 360.3457 762.0499 360.3457 762.6088 360.3457 763.1677 360.0103 763.6147 359.4515 764.1736 359.1162 764.7325 359.1162 765.2913 359.3397 765.7384 359.675 765.9619 359.7868 766.0737 360.0103 766.2972 360.2339 766.5208 360.3457 766.8561 360.2339 767.3032 359.675 768.0856 359.4515 769.3151 358.5573 769.8739 358.3338 770.4328 358.3338 770.9916 358.5573 771.4387 359.0044 772.3329 360.0103 775.0154 361.4634 778.5921 361.7987 777.8097 362.4693 777.5861 362.8046 778.0332 363.0282 778.3685 362.8046 778.7039 362.3575 779.1509 362.134 780.1569 362.0222 780.7157 361.7987 781.051 361.5751 780.604 361.3516 780.1569 361.3516 779.598 361.3516 779.0392 361.5751 779.0392 361.3516 780.3804 360.7927 781.9452 361.2398 784.516 363.3635 785.6337 364.4812 786.1925 364.9283 788.4279 365.3754 789.2103 365.3754 789.6574 364.8165 789.3221 364.8165 789.0986 364.7047 788.875 364.593 788.6515 364.2576 788.4279 364.4812 788.2044 364.593 787.9809 364.593 787.7573 364.593 787.7573 364.2576 788.7633 364.1459 791.6693 364.7047 792.3399 364.0341 792.0046 363.8106 792.787 363.587 793.5694 363.6988 794.24 364.3694 794.7989 365.2636 794.5754 365.2636 795.1342 365.9342 796.0284 366.2695 796.8108 365.9342 796.9226 365.04 796.699 364.7047 795.9166 364.3694 795.5813 364.0341 795.4695 363.3635 795.6931 362.8046 796.0284 362.3575 796.4755 362.134 796.8108 361.9105 798.152 361.7987 798.7109 361.9105 799.8286 362.8046 800.2757 363.0282 800.611 363.1399 800.9463 363.1399 801.3934 363.1399 801.9523 362.9164 802.8464 362.3575 803.2935 362.3575 804.8583 363.0282 807.0937 363.4752 807.6526 363.3635 808.7703 362.6928 809.7762 361.9105 810.6704 361.0163 811.341 359.8986 811.4528 359.3397ZM358.7795 373.3111L358.8913 372.5287 359.6737 372.3052 360.9032 371.5228 361.5738 370.5168 362.2444 370.0697 363.2504 370.0697 364.5916 369.6227 365.1505 368.7285 366.2682 368.8403 366.6035 368.505 366.9388 368.505 367.1624 368.2814 367.2741 368.1696 367.6095 368.0579 367.9448 367.499 368.2801 366.7166 368.3919 366.1578 368.5036 365.8224 368.6154 365.5989 368.8389 365.4871 369.1743 364.7047 369.3978 363.4752 369.3978 363.2517 369.3978 363.1399 369.3978 362.8046 369.3978 362.6928 369.6213 362.6928 369.6213 361.7987 369.3978 361.5751 369.3978 361.4634 369.0625 361.1281 369.1743 359.3397 369.9567 359.4515 370.292 358.5573 373.4216 355.5395 373.5333 354.8689 374.0922 353.9747 374.7628 353.5276 375.3217 352.1864 373.5333 352.2981 372.8627 352.857 372.4156 352.2981 371.745 352.6334 371.2979 353.1923 370.0684 353.1923 369.7331 353.7512 369.6213 354.5336 368.0565 355.6513 367.6095 355.4277 367.3859 355.6513 367.2741 355.9866 367.7212 356.2101 368.0565 356.0983 368.0565 356.5454 367.9448 356.8807 368.1683 357.3278 368.6154 357.5514 368.8389 358.1102 368.8389 358.5573 368.2801 359.4515 367.833 359.675 367.1624 359.675 367.1624 359.7868 366.1564 360.2339 365.8211 360.2339 365.4858 360.3457 364.2563 360.0103 362.468 360.0103 360.9032 360.0103 359.5619 359.5633 358.2207 358.222 357.5501 356.8807 356.8794 356.2101 356.6559 355.6513 356.6559 355.4277 356.6559 355.316 356.6559 355.2042 356.8794 354.1982 357.103 352.6334 357.6618 350.8451 357.7736 350.2862 357.6618 349.9509 357.5501 349.6156 356.9912 349.2803 356.3206 349.2803 355.2029 349.2803 354.5322 349.0568 354.0851 349.0568 353.5263 348.8332 353.0792 348.6097 352.4086 348.6097 352.0733 348.3861 351.738 348.2744 351.5144 348.2744 351.4026 348.3861 350.8438 348.4979 350.3967 348.4979 350.2849 348.8332 350.2849 349.1685 350.3967 349.5039 350.8438 349.7274 351.5144 350.0627 353.0792 350.7333 354.7558 352.1864 355.7617 352.857 356.3206 353.1923 356.3206 353.3041 356.3206 353.4158 356.2088 353.7512 354.644 354.5336 354.5322 354.6453 354.5322 354.7571 354.4205 354.8689 354.3087 354.9806 353.9734 355.316 353.4145 355.6513 352.9674 355.8748 352.4086 356.2101 351.738 356.3219 351.1791 356.2101 350.6202 355.8748 350.1732 355.4277 349.0554 354.7571 349.0554 354.5336 349.1672 354.31 349.1672 354.1982 349.0554 354.0865 348.9437 354.0865 348.7201 353.9747 348.6084 354.0865 348.4966 354.31 348.4966 354.5336 348.6084 354.8689 348.6084 355.8748 348.0495 357.5514 347.826 357.8867 347.7142 358.4455 347.7142 358.5573 347.4906 359.2279 347.3789 359.0044 347.3789 358.6691 347.1553 356.9925 346.82 355.6513 346.4847 354.31 346.0376 353.1923 345.5905 352.4099 344.9199 351.7393 344.4728 351.2922 344.0257 351.1804 343.5787 351.2922 343.2433 351.5157 342.6845 352.0746 342.2374 352.5217 341.9021 352.7452 341.3432 353.1923 340.6726 353.7512 340.2255 354.31 339.8902 354.4218 339.2196 354.5336 338.6607 354.6453 338.2136 354.8689 337.6548 355.5395 337.4312 355.8748 337.3195 355.9866 337.0959 356.769 336.8724 358.3338 336.7606 359.2279 336.8724 360.2339 336.9842 360.7927 337.2077 361.1281 337.4312 361.2398 337.6548 361.3516 337.8783 361.5751 338.6607 361.9105 338.549 362.0222 338.996 362.4693 339.2196 362.8046 339.8902 363.2517 340.6726 363.6988 341.1197 363.8106 341.5668 363.8106 341.6785 363.6988 341.9021 363.3635 342.2374 363.0282 342.7963 362.9164 343.914 362.9164 344.4728 362.8046 344.8081 362.5811 345.2552 362.2458 345.5905 362.0222 346.0376 362.0222 346.82 362.5811 347.7142 363.3635 348.273 363.9223 349.0554 364.7047 349.9496 365.1518 351.2909 365.9342 351.738 366.046 351.9615 365.9342 352.0733 365.7107 352.4086 365.04 352.6321 364.8165 352.8557 364.8165 352.9674 365.04 353.0792 365.1518 353.191 364.7047 353.6381 364.9283 353.8616 364.8165 354.0851 364.4812 354.3087 364.3694 354.8675 363.0282 355.3146 363.1399 355.3146 363.4752 355.4264 364.0341 355.6499 364.3694 355.8735 365.1518 357.4383 368.1696 357.8854 369.2873 357.8854 369.3991 357.7736 369.958 357.6618 370.4051 357.4383 370.8521 357.103 371.1875 355.9853 372.3052 356.7677 373.4229 358.7795 373.3111ZM95.2231 410.8662L94.9996 411.6486 94.8878 412.5428 95.1113 413.3252 95.5584 413.6605 96.1173 413.437 96.6761 412.9899 96.8997 412.2075 96.6761 410.8662 96.7879 410.6427 97.0114 410.5309 97.1232 410.1956 97.3468 409.525 97.235 409.0779 97.1232 408.9661 97.0114 409.1897 96.7879 409.1897 96.3408 409.1897 96.1173 409.1897 96.0055 409.1897 95.782 409.3014 95.4466 409.525 95.3349 410.0838 95.2231 410.8662ZM92.0935 418.4667L92.7641 418.0196 93.2112 416.9019 92.8759 417.0136 92.0935 417.6843 91.7582 417.6843 91.4229 417.4607 91.1993 417.2372 90.9758 417.1254 90.4169 416.9019 90.0816 416.2312 89.9699 415.4488 89.9699 414.5547 89.6345 414.6664 89.2992 414.4429 89.0757 413.9958 88.9639 413.437 89.0757 412.8781 89.411 411.9839 89.5228 411.5369 89.8581 410.6427 91.3111 409.8603 91.4229 409.1897 90.1934 409.525 89.8581 409.7485 89.6345 409.9721 88.1815 413.2134 88.1815 413.884 88.6286 414.7782 89.6345 415.7842 89.8581 416.2312 89.9699 416.7901 90.0816 417.2372 90.1934 417.5725 90.5287 417.9078 91.3111 418.3549 92.0935 418.4667ZM107.4062 416.5666L107.0708 416.0077 106.8473 415.6724 106.8473 415.3371 106.8473 414.5547 106.6238 414.1076 106.512 414.1076 106.4002 413.884 106.2884 413.6605 106.1767 413.6605 106.0649 413.884 105.8414 414.1076 105.3943 414.3311 104.9472 414.2194 104.6119 413.6605 104.3883 413.2134 104.1648 413.2134 104.1648 413.7723 104.5001 414.4429 105.6178 415.1135 105.8414 415.5606 105.7296 415.8959 105.7296 416.1195 106.0649 416.2312 106.0649 416.4548 105.8414 416.7901 105.9531 417.0136 106.2884 417.0136 106.6238 416.7901 106.9591 416.6783 107.5179 416.7901 107.4062 416.5666ZM155.6913 396.4477L155.5795 395.7771 155.356 395.2183 155.0207 394.2123 154.5736 393.6535 154.1265 393.4299 153.2323 393.4299 153.1206 393.5417 153.2323 393.7652 153.1206 394.1006 152.7853 394.3241 152.4499 394.6594 152.0029 395.1065 152.2264 395.8889 152.897 396.7831 153.903 397.5655 155.1325 398.0125 155.8031 397.789 155.8031 397.0066 155.6913 396.4477ZM84.4931 366.2695L84.1578 365.2636 83.8224 364.8165 83.3754 364.3694 82.3694 363.6988 81.587 363.6988 81.587 364.3694 82.7047 367.6108 83.1518 368.505 83.7107 368.952 84.1578 368.7285 84.6048 367.1637 84.4931 366.2695Z" />
</svg>