<?xml version="1.0" encoding="utf-8"?>
<svg xmlns="http://www.w3.org/2000/svg" viewBox="0 0 856 1024" style="stroke-width:0.25px;stroke-linejoin:round;stroke:#444;fill:#ddd" fill-rule="evenodd">
  <path class="LA" d="M228.5532 15.9595L229.2239 17.6361 229.8945 18.8656 231.0122 22.6658 231.3475 23.1129 232.3535 23.7835 232.6888 24.3424 232.6888 25.013 232.3535 26.466 232.577 27.2484 234.1418 29.0367 236.1537 30.378 237.7185 31.9428 238.3891 34.4018 240.6245 36.4136 247.3308 39.8785 255.3783 47.8143 258.955 49.938 259.9609 50.9439 260.7433 52.2851 261.8611 55.303 262.6435 56.6442 264.8789 58.4326 267.6732 59.9974 269.4615 61.5622 268.4556 63.127 268.1202 63.4623 267.8967 63.7976 267.6732 64.2447 267.5614 64.6917 268.9026 69.2744 273.1499 71.5098 278.1796 73.1864 281.5328 76.0924 285.4448 84.9223 286.4507 89.8403 285.8919 96.9936 286.2272 99.6761 286.786 102.4704 287.4567 104.3705 288.2391 105.6 288.5744 105.8235 289.0215 105.4882 294.9453 105.3765 296.1748 105.1529 299.6397 102.8057 302.2105 99.5644 303.5517 95.6524 303.887 85.9283 305.7871 84.0282 308.0226 85.8165 309.0285 91.2933 308.6932 96.2112 309.0285 98.4466 310.3697 99.8997 312.2699 99.7879 320.4292 96.2112 321.0998 95.7641 321.6586 95.9877 322.5528 97.5525 322.9999 98.8937 323.2234 100.3468 323.1117 108.6178 323.5587 111.5239 324.6765 114.2064 324.6765 114.5417 324.7882 114.877 324.6765 115.2123 324.6765 115.5476 322.3293 117.7831 318.1937 123.0363 315.7348 125.2717 310.5933 133.6546 312.3816 132.8722 314.6171 131.4191 316.7407 130.4132 318.3055 130.6367 318.1937 132.0898 314.5053 138.1254 314.0582 140.5844 313.9464 146.1729 313.4993 148.1848 312.1581 149.5261 308.3579 150.532 306.4578 151.985 305.2283 154.2205 306.1224 154.7793 308.2461 154.5558 310.7051 154.6675 312.3816 155.2264 313.8347 156.3441 314.9524 157.5736 315.5112 159.0266 315.3994 160.1443 314.3935 162.4915 314.3935 163.721 315.0641 164.9505 315.8465 165.174 316.7407 165.174 317.9702 165.8447 319.1997 167.8565 319.1997 167.9683 320.3174 172.6627 320.988 174.6746 321.5469 175.7923 322.1057 176.6865 322.9999 177.0218 324.6765 176.7982 327.4707 178.0277 329.1473 180.0396 331.718 185.5164 335.1829 193.2286 337.3066 196.6935 340.548 200.7173 342.1128 202.3938 342.8952 202.9527 344.0129 203.5116 346.1365 203.7351 347.2542 204.0704 348.1484 204.5175 349.7132 205.6352 350.8309 206.0823 352.0604 206.0823 352.9546 205.8587 354.2958 205.4117 355.3018 205.2999 357.0901 205.8587 363.4611 209.2119 366.5906 210.3296 367.8201 210.4414 368.379 210.4414 371.285 209.659 371.5086 209.659 373.744 208.3177 374.5264 207.5353 374.8617 206.8647 375.4206 206.5294 376.9854 207.0882 378.4384 208.4295 380.4503 212.4532 381.6798 214.018 382.5739 214.6887 383.4681 215.2475 384.3623 215.4711 385.48 215.5828 392.5216 217.0359 394.6452 218.3771 399.0043 223.0715 401.4633 225.1952 401.7986 225.754 402.3574 225.9776 403.5869 226.2011 404.5928 226.0893 405.9341 225.6422 407.1636 224.9716 407.8342 224.4128 407.7224 223.4068 406.6047 221.0596 406.493 219.9419 407.0518 218.3771 407.7224 217.93 408.6166 217.8183 410.0696 217.2594 412.3051 215.8064 412.7521 215.024 412.4168 213.9063 412.1933 211.4473 412.5286 209.4354 413.5345 207.0882 414.6523 204.741 415.77 203.5116 416.9994 203.0645 419.3466 203.3998 420.4644 203.288 421.4703 202.7292 423.1469 201.1644 424.041 200.6055 432.3121 197.923 434.5475 196.9171 435.6652 196.6935 437.0065 196.6935 441.142 196.0229 446.2835 189.8755 450.3073 189.6519 451.0897 189.9872 452.7662 191.3285 453.6604 191.7756 454.7781 191.9991 457.2371 191.9991 458.4666 192.2227 461.7079 193.3404 462.4903 193.8992 463.1609 194.7934 464.3904 197.3641 464.7257 197.923 465.5081 197.923 468.0789 197.1406 469.0848 197.1406 470.0908 197.4759 471.2085 198.0348 472.2144 198.7054 473.1086 199.376 474.4498 201.2761 476.2382 204.9646 477.6912 206.7529 478.5854 207.3118 480.3737 207.9824 481.2679 208.653 481.8267 209.5472 482.8327 211.5591 483.6151 212.4532 485.8505 213.1239 488.4212 213.1239 490.7684 213.3474 492.3332 215.024 493.3392 218.8242 495.2393 220.7243 501.0514 223.5186 507.4223 225.754 508.9871 227.4306 508.8754 227.8777 508.093 230.7837 500.8278 240.7314 498.3689 242.7432 495.5746 243.6374 492.6685 243.0785 489.8743 240.8431 487.5271 245.5375 481.0443 250.0084 480.3737 252.2438 483.9504 254.4792 488.533 255.7087 504.5163 255.3734 506.0811 256.1558 508.6518 259.8442 510.5519 261.0737 514.7992 262.7503 516.364 264.0915 516.8111 264.9857 517.1464 266.4387 517.37 267.78 517.2582 268.8977 516.4758 270.4625 515.6934 270.7978 514.6875 270.686 513.7933 271.4684 513.3462 273.0332 513.1227 275.4922 513.2344 277.8394 513.6815 279.4042 517.4817 281.4161 522.2879 280.4101 527.4294 278.7336 531.9002 278.51 541.9596 283.875 542.0714 284.7692 541.4008 286.1105 541.6243 288.793 543.0773 291.0284 547.4364 293.9344 548.2188 295.8345 547.8835 296.2816 546.3187 296.6169 545.9834 296.8405 545.9834 297.6229 546.2069 298.6288 546.4305 300.8642 546.7658 302.3173 546.9893 303.7703 546.5422 305.4469 546.2069 305.7822 545.0892 306.7881 543.5244 307.0117 540.2831 306.6763 538.0476 307.0117 537.6006 307.5705 537.377 308.5765 536.2593 310.253 533.8003 312.1531 527.6529 315.8416 525.5293 318.6359 524.7469 320.7595 525.4175 321.4301 528.6589 321.6537 530.7825 322.4361 531.6767 323.1067 531.6767 324.1127 531.4531 326.1245 530.3354 329.9248 528.1 331.6013 525.4175 332.8308 522.735 335.2898 520.4996 335.9604 519.0465 336.0722 517.5935 336.5193 515.8052 337.7487 514.3521 339.4253 513.458 340.9901 509.8813 350.4906 508.8754 351.8319 507.8694 351.9437 505.9693 350.7142 504.9634 350.4906 503.9574 350.826 502.2809 352.0554 501.2749 352.3908 498.5924 352.7261 496.6923 352.279 490.3213 348.4788 487.5271 347.2493 486.6329 346.5787 484.9563 345.0139 483.9504 343.4491 482.6091 342.4431 480.3737 342.2196 478.3618 342.7784 473.1086 346.1316 470.9849 342.6667 467.0729 341.3254 465.6199 339.9842 462.3785 340.8783 457.6842 342.2196 455.2252 342.2196 454.6663 342.7784 453.8839 343.5608 453.1015 345.3492 452.2074 346.1316 449.8602 346.4669 447.7365 345.7963 442.3715 343.002 441.0303 342.5549 440.0243 343.002 439.3537 344.9021 439.689 346.3551 441.8127 352.6143 443.1539 354.2909 446.6188 356.4145 447.9601 357.5322 448.6307 359.4323 448.8542 361.556 449.1895 363.4561 450.419 365.1327 450.5308 365.1327 449.9719 366.5857 449.0778 367.0328 447.8483 367.3681 446.7306 368.0387 445.9482 369.2682 445.5011 372.0625 445.1658 373.1802 444.2716 374.9685 444.1598 374.9685 443.8245 374.5215 442.148 374.745 439.5772 375.6392 437.0065 376.9804 434.5475 377.5393 433.318 378.7688 431.0826 382.1219 429.2943 383.4631 425.2705 385.2515 423.8175 386.3692 422.9233 388.3811 424.041 388.9399 426.0529 388.9399 427.8413 389.1635 429.2943 391.9578 429.8531 392.8519 430.6355 393.4108 433.5416 394.8638 436.8947 397.3228 437.0065 397.3228 439.3537 396.3168 441.7009 396.2051 444.0481 396.7639 456.4547 402.3525 461.0373 405.4821 462.155 406.5998 462.6021 408.947 462.6021 411.0706 463.608 412.0766 466.8494 411.1824 469.0848 411.7413 470.7614 412.9707 472.2144 414.5355 473.891 415.9886 476.1264 416.8827 478.0265 417.5534 479.8149 418.4475 481.715 420.1241 484.9563 425.042 486.2976 426.1597 488.3095 426.6068 491.7744 426.1597 493.898 426.7186 495.7981 427.9481 497.1394 429.2893 501.0514 435.2132 502.3926 436.4427 506.1928 438.4546 507.7576 439.684 510.7755 442.8136 512.5638 444.0431 513.6815 444.3784 515.8052 444.4902 516.9229 444.9373 517.4817 445.6079 518.823 447.508 519.7172 448.2904 521.0584 448.8493 525.641 449.4081 530.0001 450.7494 531.5649 450.9729 537.9359 450.4141 540.9537 451.3083 542.0714 454.3261 543.3009 455.4438 545.201 456.0026 547.4364 456.0026 549.3365 455.4438 551.1249 455.7791 556.8252 459.1322 559.5077 460.1382 560.9607 460.0264 562.1902 459.6911 563.5315 459.4675 564.8727 459.9146 568.1141 465.2796 570.573 466.9562 571.3554 467.9622 571.3554 469.4152 571.3554 469.8623 570.4613 471.7624 569.3436 471.9859 568.0023 471.5388 566.6611 471.7624 564.9845 473.886 563.5315 477.3509 561.8549 483.9454 561.296 488.8634 562.4138 492.1047 565.0963 494.6755 568.5612 497.2462 570.573 499.2581 570.4613 500.7111 569.7906 502.2759 569.9024 504.7349 570.9084 506.2997 576.3851 509.7646 577.0558 510.547 578.0617 512.4471 578.7323 513.1177 579.9618 513.453 581.0795 513.3413 584.0974 513.0059 584.6562 512.6706 585.1033 512.6706 585.8857 514.0119 586.1092 515.2414 585.3268 518.1474 585.4386 519.4887 586.5563 521.1652 588.4564 522.5065 590.4683 523.4007 592.2567 523.8477 593.0391 524.2948 593.3744 524.7419 593.5979 524.8537 594.7156 524.1831 595.1627 523.4007 595.6098 520.7182 596.2804 519.6004 598.2923 518.7063 600.7513 518.9298 602.9867 519.824 604.6633 521.1652 605.4457 522.2829 606.3398 525.5243 606.3398 526.1949 606.1163 526.8656 605.8927 527.3127 605.781 527.5362 606.2281 527.9833 607.5693 528.3186 608.0164 528.6539 609.8047 532.7894 610.8107 533.5718 612.7108 534.6895 613.7167 535.5837 614.2756 536.925 614.7227 539.6075 615.058 540.7252 615.8404 541.6194 618.5229 543.0724 620.0877 546.202 620.3112 546.8726 619.0817 555.8143 620.3112 559.8381 624.6703 563.8618 627.5763 569.3386 630.0353 572.8035 631.0413 574.7036 632.4943 579.2862 633.5002 581.0746 634.8415 582.1923 640.7653 584.8748 644.342 587.222 647.3598 590.0163 654.625 599.6286 656.9722 602.0876 666.808 614.0471 685.4738 630.1421 687.9328 631.4834 689.4976 631.5952 690.8388 630.8128 692.5154 629.1362 692.9625 628.1303 693.2978 627.1243 693.8567 626.3419 695.3097 626.3419 696.6509 626.9008 696.8745 627.9067 696.7627 629.1362 696.9862 630.5892 697.5451 631.3716 699.1099 633.0482 699.557 633.7188 699.4452 634.8365 698.551 636.6249 698.4393 637.8543 698.9981 639.6427 702.463 645.343 707.8281 650.3727 709.0575 652.3846 708.9458 653.0552 708.1634 654.2847 708.1634 654.8436 710.0635 658.6438 710.5106 659.7615 710.8459 660.8792 711.8518 661.7734 713.7519 662.6675 715.8756 663.5617 717.8875 663.897 720.4582 664.6794 723.5878 661.6616 724.5937 663.5617 724.5937 666.2442 724.7055 697.5402 725.3761 700.4462 726.3821 702.9052 728.9528 705.8112 731.0765 707.0407 733.3119 707.9349 734.8767 708.1584 736.5532 708.9408 737.0003 710.2821 736.5532 716.5413 736.665 717.8825 738.2298 722.4651 740.0182 725.5947 742.4771 727.4948 745.8303 726.936 745.8303 728.2772 746.1656 728.8361 746.948 728.7243 748.0657 728.2772 749.0716 727.4948 749.1834 727.3831 749.4069 726.4889 749.4069 725.5947 749.9658 724.5888 752.9836 722.6887 754.2131 721.4592 754.6602 719.5591 757.1191 715.4235 759.8017 715.5353 761.7018 718.5531 762.0371 723.3593 761.59 727.1595 761.3664 727.4948 761.0311 727.9419 760.8076 728.389 760.8076 729.0596 761.2547 729.3949 762.0371 729.1714 762.7077 728.7243 763.043 728.7243 764.496 731.8539 765.502 733.3069 767.4021 734.8717 770.1964 736.4365 770.9788 737.1072 771.4259 738.2249 771.8729 740.9074 772.0965 741.6898 773.326 742.4722 774.779 742.6957 778.5792 742.5839 782.9383 743.031 784.6149 743.5899 784.9502 743.7017 786.962 744.7076 789.1975 746.2724 790.0916 747.8372 791.3211 754.0964 791.9917 755.5494 792.3271 755.9965 792.9977 756.8906 794.3389 758.2319 796.0155 759.2378 797.5803 759.6849 799.1451 759.9085 800.9334 760.4673 803.8395 762.3674 807.975 767.7325 810.5458 770.0796 813.6754 771.0856 817.0285 770.6385 823.1759 769.0737 825.4113 768.9619 825.9702 769.5208 825.7466 770.862 825.6349 771.0856 825.5231 773.0975 826.082 774.4387 826.8644 775.3329 826.9761 776.4506 825.6349 778.1272 823.9583 779.4684 820.8287 785.057 819.1521 787.0689 817.5873 787.8513 813.2283 788.6337 811.2164 789.4161 803.5042 794.4458 802.4982 794.7811 801.4923 794.5575 800.4864 794.1105 799.2569 793.6634 797.9156 793.9987 796.6861 795.3399 793.8919 801.5991 793.6683 804.0581 795.0096 805.7347 801.157 809.4231 802.3865 810.6526 802.8336 812.3292 803.3924 817.2471 803.8395 819.0354 804.9572 820.712 806.8573 822.165 811.1046 824.2887 812.5576 825.6299 818.4815 836.4717 819.8228 837.2541 820.7169 836.807 821.3876 835.8011 822.5053 835.0187 823.2877 834.9069 825.5231 835.4658 826.1937 835.354 826.7526 834.9069 827.3114 835.0187 827.9821 836.4717 828.3174 837.3659 828.7645 837.813 829.4351 837.813 830.2175 837.3659 831.7823 838.1483 832.1176 840.4955 832.0058 843.178 832.4529 845.3017 834.5766 846.5311 839.3827 845.7487 841.3946 846.3076 841.7299 847.3135 841.9535 847.6488 842.177 852.1197 842.8476 854.2433 844.1889 855.6964 849.2186 859.4966 850.8952 861.2849 851.5658 862.9615 851.6776 864.7498 850.7834 870.2266 850.4481 871.009 849.7774 871.2326 849.2186 870.6737 848.548 870.3384 847.4303 871.3443 847.0949 872.462 846.7596 876.2623 846.2008 878.3859 844.9713 880.1743 844.3007 880.8449 842.7359 882.0744 842.177 882.9685 842.2888 884.0862 843.2947 886.2099 843.1829 887.4394 841.9535 888.6689 840.1651 888.8924 837.1473 888.3336 835.359 888.5571 833.4589 889.116 830.2175 890.0101 828.0938 890.2337 827.0879 891.2396 826.9761 892.8044 827.7585 894.7045 827.535 896.3811 827.9821 897.9459 828.8762 899.1754 830.2175 900.1813 832.0058 901.1872 838.7121 906.3287 839.718 907.3347 839.3827 908.5641 837.7062 910.7996 833.0118 915.3822 832.1176 916.947 832.5647 918.7353 833.6824 920.5237 834.2413 922.312 832.9 923.765 833.6824 924.8827 834.8001 925.7769 835.6943 926.8946 835.4707 928.5712 833.9059 929.8007 830.2175 935.2774 828.4292 936.1716 827.7585 936.954 826.8644 939.5248 826.529 940.1954 825.6349 941.3131 825.2996 942.319 825.2996 943.2132 825.4113 944.2191 825.4113 945.2251 825.076 946.0075 823.623 947.237 822.2817 947.237 819.711 946.0075 817.5873 945.5604 816.4696 945.1133 814.346 943.2132 811.3282 940.9778 809.3163 940.866 807.5279 942.4308 805.6278 945.2251 805.069 945.6722 803.7277 946.5663 803.2806 947.1252 803.0571 947.7958 802.8336 950.143 801.7158 952.4902 800.7099 953.0491 799.0333 952.7138 798.9216 952.7138 797.245 952.7138 796.3508 954.1668 795.6802 956.0669 794.786 957.967 791.7682 960.6495 788.3033 962.9967 785.8443 963.7791 784.6149 963.2202 783.6089 961.7672 781.8206 960.3142 780.3675 959.7553 780.0322 959.7553 780.0322 960.426 776.6791 964.4497 774.5554 967.9146 773.9966 968.1382 772.6553 968.4735 771.4259 971.4913 771.3141 972.1619 770.9788 972.7208 769.5257 973.1679 768.408 972.9443 766.2844 971.6031 765.2784 971.2678 764.049 971.3795 763.3783 971.7149 762.9312 972.1619 758.5722 974.7327 756.8956 974.6209 755.3308 973.9503 753.766 972.8326 750.7482 969.9265 746.8362 964.2262 745.942 962.5496 745.4949 961.879 744.6008 960.873 744.0419 960.5377 735.8826 957.967 734.5414 957.1846 732.6413 956.1787 730.4058 952.7138 729.2881 952.0431 726.7174 951.4843 725.7114 950.9254 725.3761 949.8077 724.7055 946.1193 724.2584 944.6662 722.9172 942.4308 722.2465 941.7602 719.7876 944.1074 719.0052 944.4427 718.2228 944.5545 717.6639 944.8898 717.5521 946.0075 717.5521 947.1252 717.7757 947.9076 718.3345 948.4664 719.1169 948.8018 719.1169 949.5842 717.3286 949.4724 715.9873 949.0253 714.7579 948.9135 713.6402 949.5842 713.4166 950.0312 713.1931 950.8136 713.3048 951.596 714.6461 952.3784 714.199 953.1608 713.3048 953.8315 712.8578 953.9432 711.74 956.1787 708.834 957.4081 702.7983 958.1905 702.1277 958.3023 700.5629 958.7494 699.1099 958.6376 697.9922 958.3023 691.1741 954.1668 690.5035 953.3844 689.3858 955.3963 688.2681 961.4319 687.5975 963.8909 685.9209 966.3498 684.1326 967.4675 681.8971 967.6911 677.9851 967.4675 675.3026 966.9087 673.5143 967.0205 672.3966 967.0205 671.726 967.0205 671.3906 967.4675 671.1671 969.3677 670.8318 969.9265 668.9317 969.9265 664.0138 968.2499 661.6666 967.9146 661.2195 969.1441 660.9959 970.4854 661.2195 971.8266 661.6666 973.0561 663.902 974.8444 665.1315 976.6328 665.5785 978.8682 665.1315 981.7743 666.0256 984.1215 667.5904 985.5745 671.3906 988.0334 673.179 990.0453 676.085 996.9751 677.5381 998.6517 679.3264 1000.2165 680.8912 1001.8931 681.4501 1004.0167 680.5559 1006.2521 678.8793 1007.7052 676.8674 1009.0464 675.1909 1010.723 673.8496 1012.5113 674.0732 1017.8763 672.3966 1019.8882 670.1612 1020 664.3491 1018.547 661.6666 1018.4352 658.8723 1019.5529 656.1898 1019.8882 653.3955 1019.2176 652.9484 1018.9941 650.3777 1017.541 640.6536 1009.0464 638.7535 1006.2521 637.524 1003.0108 635.8474 1000.2165 632.7178 998.5399 631.4883 998.4282 629.0294 998.7635 627.4646 998.6517 625.6762 997.8693 624.5585 997.0869 623.329 997.0869 621.6525 998.3164 620.7583 996.3045 619.0817 994.5162 617.0699 993.622 615.3933 994.2926 614.7227 993.2867 613.9403 992.5043 613.0461 991.8337 612.1519 991.2748 609.0223 993.5102 607.3458 994.4044 605.5574 994.9633 602.8749 996.6398 599.7453 997.7575 596.3922 998.2046 593.1508 998.2046 591.3625 997.9811 590.2448 997.534 589.2388 996.6398 586.4446 992.6161 585.5504 992.0572 583.9856 991.6101 583.2032 991.163 581.0795 989.1512 574.485 978.98 573.3673 976.521 572.9202 973.8385 572.9202 970.1501 574.485 970.2618 580.4089 968.9206 582.4208 968.0264 583.2032 967.1322 584.5444 964.6733 585.4386 964.0026 586.4446 964.1144 588.4564 965.4557 589.9095 965.5674 590.5801 965.0086 592.7037 962.9967 593.5979 962.2143 594.8274 961.7672 597.8452 961.2084 598.9629 960.6495 599.5218 959.8671 600.416 957.1846 600.9748 956.0669 601.7572 955.1727 604.3279 952.7138 607.9046 948.0194 609.2459 944.8898 609.5812 941.4249 608.0164 933.7127 608.1282 930.136 609.0223 924.8827 608.5752 923.765 607.4575 921.6414 607.234 919.0706 607.7928 916.3881 608.5752 914.2645 609.1341 913.9292 610.6989 913.5938 611.146 913.1468 611.146 912.4761 610.3636 910.9113 610.2518 909.123 610.4754 908.4524 610.9224 908.3406 612.7108 908.3406 613.2696 908.1171 614.1638 905.5463 612.2637 901.8579 613.3814 899.6224 617.8523 896.8282 618.8582 895.2634 615.9521 894.7045 615.8404 894.7045 614.4991 893.5868 611.146 888.8924 611.0342 888.3336 611.0342 887.1041 610.8107 886.5452 610.2518 886.4334 608.7988 886.657 608.2399 886.5452 605.5574 883.6392 603.0985 883.1921 602.0925 881.292 602.0925 878.6095 602.5396 876.1505 603.322 873.8033 604.3279 872.1267 608.9106 867.3206 612.0402 864.7498 615.1697 862.6262 615.6168 862.5144 615.7286 859.3848 615.3933 856.8141 614.9462 856.367 612.8226 856.8141 610.5871 856.8141 608.3517 856.367 606.5634 855.2493 605.8927 853.1256 606.8987 850.5549 609.1341 849.1019 614.3873 847.4253 618.4111 844.8546 618.8582 844.4075 620.1994 843.0662 620.8701 840.9426 620.9818 836.0246 621.5407 833.4539 624.2232 826.3006 625.4527 820.2649 624.335 814.7881 621.0936 810.0937 616.1757 806.8524 611.2578 805.1758 608.7988 804.9523 604.2162 805.2876 602.6514 805.064 601.1983 804.2816 599.7453 802.8286 598.5158 801.0403 594.1568 791.3162 592.8155 787.0689 593.0391 782.9333 595.7216 779.8037 598.0688 778.9096 599.2982 778.2389 599.8571 777.3448 599.8571 777.0095 599.7453 776.4506 598.8512 775.78 597.7334 775.4447 584.6562 772.0915 580.0736 771.868 578.9559 771.6444 564.3139 766.3912 561.1843 765.2735 558.8371 763.3734 557.0487 761.0262 555.931 758.2319 555.4839 755.2141 555.5957 749.9608 555.2604 747.5019 554.0309 745.2664 553.1367 744.3723 550.9013 743.2546 549.8954 742.6957 549.113 742.0251 546.8776 739.6779 545.9834 738.8955 542.9656 737.2189 541.9596 736.213 541.1772 735.207 540.7301 733.9776 539.6124 730.2891 538.7183 728.2772 537.4888 726.2653 536.0358 724.477 534.1356 722.9122 527.8765 719.4473 525.8646 717.7707 524.6351 715.6471 524.0762 713.2999 523.9645 710.6174 524.5233 705.5877 525.7528 700.6697 527.3176 696.3107 527.4294 695.0812 527.3176 693.7399 524.9704 684.1276 524.8586 682.7864 525.0822 681.6686 525.0822 681.3333 525.8646 678.6508 526.0881 677.3096 525.9763 675.8565 525.641 674.6271 524.5233 672.1681 524.188 670.9386 523.7409 667.0266 523.0703 660.0968 523.6292 657.5261 530.8943 640.2015 531.4531 637.6308 531.9002 632.154 531.6767 625.1124 532.012 619.4121 532.012 617.9591 531.6767 616.5061 528.9942 610.5822 528.5471 609.9116 527.7647 609.2409 525.8646 608.1232 524.9704 607.4526 524.188 606.5584 522.3997 603.0935 520.1642 599.7404 518.823 598.3991 513.458 594.9342 511.4461 594.2636 494.0098 584.9866 490.6567 581.9688 487.3035 578.0568 486.8564 577.0508 486.1858 574.8154 485.8505 574.033 485.4034 573.2506 483.7268 571.2387 481.2679 566.0972 479.4795 563.9736 472.2144 559.5028 471.5438 558.9439 471.2085 558.6086 470.3143 557.4909 469.6437 556.2614 468.526 552.6847 463.608 541.6194 462.7139 540.3899 462.155 539.6075 455.1134 533.1248 453.6604 531.3364 452.3191 529.101 447.6248 517.1415 442.0362 507.1938 439.9125 504.9584 437.1183 503.5054 434.4358 503.1701 431.9768 503.8407 429.7414 505.2937 427.953 507.4174 427.5059 508.1998 427.0589 508.6469 426.6118 508.9822 425.7176 509.0939 423.9293 508.7586 422.9233 507.5292 422.1409 506.0761 421.0232 504.6231 419.3466 503.5054 417.5583 502.6112 415.6582 501.9406 413.7581 501.6053 407.1636 501.27 405.7106 500.8229 399.3396 497.9168 398.3337 497.2462 397.3277 496.352 395.7629 495.2343 389.1684 493.446 386.3741 493.2224 383.4681 492.44 382.4622 492.3283 380.8974 492.6636 380.3385 492.6636 378.3266 492.3283 372.0674 490.3164 370.9497 490.3164 362.008 492.2165 359.3255 493.446 356.8666 495.2343 354.9664 497.5815 353.8487 500.4876 353.8487 501.27 353.9605 501.7171 354.2958 502.1641 354.5194 502.8348 355.5253 503.2818 360.2197 506.5232 360.8903 507.5292 360.7785 508.5351 359.6608 509.4293 358.3196 509.9881 354.184 510.6587 351.7251 511.5529 348.3719 512.1118 347.366 512.4471 346.4718 513.0059 345.2424 514.5707 344.46 516.3591 343.7893 520.3828 343.1187 522.8418 341.7774 524.6301 339.8773 525.8596 337.5301 526.642 337.6419 526.5303 337.7537 526.4185 337.9772 525.8596 337.8655 525.9714 337.4184 526.1949 336.5242 526.642 335.5183 527.7597 334.9594 529.3245 334.8476 531.4482 335.7418 538.378 335.1829 539.4957 334.0652 540.2781 333.0593 541.9547 331.8298 543.743 329.8179 544.4136 327.9178 543.9666 324.4529 541.6194 322.441 541.1723 320.6527 541.5076 311.0404 545.8667 309.3638 546.8726 308.6932 548.1021 302.0987 551.6788 298.0749 555.479 296.2866 556.5967 292.3746 557.4909 290.8098 558.4968 290.1392 560.2851 290.8098 562.4088 291.9275 564.1971 291.9275 564.9795 289.4685 564.6442 283.6564 561.8499 282.0916 561.4029 282.0916 560.2851 283.9917 552.5729 282.5387 547.8785 278.962 545.9784 269.3497 545.9784 265.2142 545.196 261.5257 543.2959 258.5079 540.7252 256.3843 538.0427 253.0311 538.2662 249.678 536.4779 243.9777 531.4482 241.4069 527.8715 240.5128 527.4244 240.0657 527.0891 236.7125 524.6301 235.5948 522.6183 235.2595 520.6064 234.4771 518.9298 232.4652 517.7003 227.212 517.4768 223.9706 517.365 223.1882 517.9239 221.3999 519.824 204.4107 538.1545 202.0635 538.9369 197.8162 536.4779 193.3453 535.2484 192.3394 533.9072 191.6688 533.9072 189.7686 535.6955 188.8745 537.8191 187.8685 542.8488 185.0743 550.5611 184.7389 552.9083 174.3442 555.0319 172.4441 556.2614 171.4382 558.4968 170.3205 559.8381 167.7497 558.1615 167.7497 559.9498 167.4144 561.5146 166.9673 562.7441 166.1849 563.8618 164.0613 564.6442 162.8318 565.0913 165.2908 567.1032 163.0553 568.668 159.2551 570.3446 157.1315 572.58 156.6844 573.4741 156.1255 574.3683 155.6784 575.3743 155.4549 575.5978 154.449 573.3624 154.2254 572.58 154.1136 572.1329 153.7783 572.0211 153.3312 572.2447 152.8842 572.58 151.3194 574.033 149.6428 574.1448 147.9662 574.033 146.4014 574.5919 145.7308 575.5978 146.4014 575.9331 147.6309 575.9331 148.1898 576.1567 148.078 576.9391 147.9662 577.1626 145.9543 579.7333 145.1719 580.0686 144.3895 579.9569 142.9365 580.5157 130.5299 590.6869 128.518 593.4812 126.2826 597.8403 125.5002 598.8462 124.159 599.4051 122.7059 599.6286 121.5882 600.2992 121.2529 602.0876 119.3528 604.7701 118.7939 605.4407 117.6762 606.1113 117.3409 606.1113 116.7821 605.776 113.6525 604.5465 110.2993 602.5347 108.3992 602.0876 106.8344 600.0757 104.9343 598.3991 102.9224 597.0579 100.687 595.9402 95.7691 595.046 91.7453 594.2636 89.957 592.9223 89.957 590.2398 91.5218 587.7809 95.322 583.31 97.6692 578.0568 97.8927 577.1626 98.4516 575.0389 98.2281 572.58 97.8927 571.3505 98.1163 570.4563 98.8987 569.6739 99.9046 569.1151 100.0164 568.8915 100.0164 568.5562 100.0164 568.3327 99.9046 568.1091 99.234 567.215 98.8987 566.4326 99.1222 565.7619 99.9046 565.0913 102.2518 564.0854 102.8107 562.6323 102.4754 558.6086 102.9224 556.1496 103.7048 554.9201 107.2815 553.02 110.2993 550.3375 111.9759 547.5432 113.4289 544.4136 115.4408 541.284 116.8938 540.0546 120.4705 537.8191 121.3647 536.2543 121.0294 534.5778 119.1293 530.2187 118.6822 527.9833 119.1293 525.8596 120.8058 521.3888 121.1411 519.4887 120.6941 518.4827 120.0234 517.9239 119.1293 517.365 118.4586 516.6944 117.5645 514.3472 117.2292 513.5648 117.2292 509.3175 117.4527 508.1998 118.0116 507.3056 119.9117 505.182 120.247 504.3996 119.1293 502.8348 112.0877 499.4816 111.1935 498.5875 108.511 496.1285 106.9462 494.0048 106.1638 491.993 106.8344 489.6458 110.0758 486.1809 110.8582 483.9454 111.0817 482.716 111.5288 482.1571 118.7939 478.1333 120.247 476.6803 120.6941 475.4508 120.5823 472.7683 120.9176 471.6506 121.7 470.8682 123.6001 470.0858 124.6061 469.6387 127.7356 466.6209 129.1887 464.609 129.7475 462.8207 129.1887 460.9206 126.5062 458.3498 125.9473 456.1144 126.2826 454.2143 127.9592 450.4141 128.518 448.4022 127.9592 441.2488 128.071 439.0134 128.9651 436.8898 131.7594 433.6484 132.8771 431.8601 133.9948 428.0598 134.6655 426.2715 139.4716 421.6889 138.5774 418.1122 135.5596 414.7591 130.6417 410.2882 129.3004 408.8352 128.518 407.0469 128.2945 404.2526 128.6298 397.211 126.3944 387.2634 126.2826 386.5927 126.5062 385.9221 126.5062 385.2515 126.1708 384.2455 125.5002 383.7985 123.6001 383.4631 122.8177 382.9043 122.1471 379.3276 122.8177 374.4097 124.4943 370.1624 126.9532 368.5976 129.6358 367.927 131.0888 365.2444 131.6476 361.8913 131.4241 358.9853 130.977 357.4205 130.5299 356.191 129.6358 355.2968 128.071 354.4026 126.1708 353.9556 124.9414 354.1791 123.9354 354.9615 122.7059 355.6321 120.0234 356.4145 116.7821 356.8616 113.5407 356.5263 110.5229 355.4086 105.4932 352.279 103.146 351.3848 99.9046 351.0495 89.957 351.1613 89.2864 351.0495 88.7275 351.1613 87.6098 351.8319 87.2745 352.3908 85.8215 354.738 81.2388 360.2147 76.0974 365.1327 75.0914 366.6975 74.1972 366.3622 73.4149 365.1327 72.4089 364.015 70.7323 363.1208 61.5671 359.5441 58.6611 359.7677 56.3139 361.4442 55.0844 363.5679 54.0784 365.1327 52.1783 365.2444 48.937 364.2385 45.6956 362.8972 43.7955 361.6678 42.3425 360.2147 42.0072 358.4264 42.0072 356.5263 41.6718 354.5144 40.7777 352.9496 38.4305 350.0436 37.5363 348.5905 36.8657 346.4669 36.5304 342.6667 36.195 340.7666 35.4127 339.3135 34.2949 337.8605 33.6243 336.9663 33.0655 335.2898 33.5125 333.1661 36.3068 329.4777 37.6481 327.5776 38.8776 324.2244 39.7717 323.1067 40.5541 322.5479 42.7895 321.6537 43.7955 320.9831 44.8014 319.1947 45.2485 317.1828 45.8074 313.0473 48.7134 305.4469 51.5077 296.9523 52.2901 292.1461 52.0666 285.9987 51.843 284.7692 51.3959 284.9927 50.7253 286.5575 49.9429 287.0046 48.0428 286.334 46.2545 285.2163 45.3603 284.2103 45.025 283.5397 43.1249 282.6455 42.2307 282.0867 41.7836 281.4161 41.2248 279.7395 40.6659 278.8453 37.8716 274.9333 31.3889 260.7384 29.1535 258.1677 24.9062 257.0499 20.7706 257.9441 17.4175 260.2913 15.2938 263.0856 13.9526 267.4447 13.729 267.6682 13.1702 267.78 10.5994 268.6741 10.2641 268.8977 9.2582 269.9036 9.2582 274.598 7.5816 276.2746 5.5697 276.2746 3.5579 275.2686 1.9931 273.3685 1.4342 271.0213 1.6578 266.8858 1.4342 264.7622 1.3224 263.1974 1.6578 261.5208 2.8872 260.0678 4.005 258.3912 4.5638 256.2675 4.7873 253.6968 5.7933 249.8966 7.2463 239.2783 8.4758 235.1428 9.9288 231.9014 9.9288 230.3366 10.7112 228.4365 13.1702 224.8598 13.729 223.295 14.1761 221.2832 15.4056 219.8301 18.4234 217.1476 21.3295 213.571 23.0061 212.0062 27.4769 210.6649 28.9299 209.1001 29.9359 207.2 31.3889 205.6352 33.5125 205.1881 43.3484 206.7529 48.1546 208.2059 50.7253 208.0942 54.4138 206.8647 57.7669 204.9646 58.7728 204.1822 60.8965 202.5056 63.6908 199.8231 63.6908 199.0407 60.4494 198.3701 50.5018 200.1584 48.3781 198.5936 48.6017 196.2464 49.7194 191.3285 49.9429 188.7578 50.39 188.0871 52.5136 186.7459 53.0725 185.8517 52.849 184.9575 51.5077 181.6044 53.6314 180.7102 58.6611 179.7043 60.7847 178.4748 62.126 176.5747 67.9381 165.7329 71.5147 151.0909 71.6265 149.6378 71.6265 148.2966 71.9618 147.4024 73.4149 147.0671 74.4208 147.0671 75.4267 147.2906 76.4327 147.7377 77.2151 148.2966 79.4505 149.079 82.0212 148.7437 86.1568 147.0671 87.3862 145.9494 91.1865 142.0374 92.7513 141.5903 103.146 136.0018 118.9057 123.0363 120.4705 122.2539 120.9176 120.4656 120.6941 118.3419 122.3706 118.4537 123.8237 120.3538 123.9354 123.9305 121.7 133.7663 122.0353 136.3371 122.9295 136.8959 126.1708 138.6843 128.2945 140.2491 128.7416 140.1373 128.9651 140.1373 129.1887 141.1432 127.8474 144.6081 126.1708 146.9553 126.3944 147.7377 127.4003 148.8554 127.6239 149.1908 127.4003 150.8673 126.2826 155.3382 127.6239 156.7912 129.1887 160.1443 130.3064 161.7091 131.9829 163.2739 133.7713 163.9446 135.6714 163.721 138.1304 162.7151 143.4954 158.9149 145.7308 158.1325 158.4727 155.6735 160.9317 155.6735 163.3906 156.1206 167.1909 157.4618 167.9733 157.5736 168.4204 157.9089 168.8674 159.2502 168.7557 160.3679 168.085 161.4856 167.638 162.6033 168.1968 163.8328 169.8734 164.0563 174.2325 162.1562 176.4679 162.1562 178.1444 163.6092 180.1563 167.4095 181.9447 168.6389 183.5095 168.7507 185.6331 168.4154 187.7568 167.633 188.9862 166.8506 189.2098 165.6211 189.3216 164.3916 188.6509 162.7151 188.2039 161.3738 189.7686 159.9208 192.2276 160.4796 193.3453 160.2561 194.2395 159.6972 194.9101 158.9149 195.1337 158.356 195.2454 157.9089 195.3572 156.6794 195.0219 155.1146 194.1277 153.8851 192.7865 152.7674 191.4452 151.8733 185.5213 149.7496 183.9565 148.2966 183.1741 146.2847 183.1741 144.1611 184.2919 139.6902 184.8507 127.7307 186.4155 125.16 186.8626 122.9245 185.4096 118.1184 185.5213 116.1065 187.1979 114.9888 189.6569 114.6535 192.0041 113.9828 193.3453 111.8592 193.1218 109.4002 191.557 108.5061 189.4333 107.8354 187.7568 106.7177 187.3097 105.3765 187.7568 102.9175 187.645 101.688 186.9744 100.6821 185.186 99.1173 184.6272 98.3349 184.6272 96.5465 185.0743 94.4229 187.3097 87.6048 187.1979 86.4871 184.4036 83.9164 183.8448 83.0222 182.3917 80.0044 179.9328 76.4277 179.5975 75.4218 179.4857 74.5276 179.2622 73.5217 178.4798 72.5157 174.5678 71.2862 172.1088 69.8332 170.9911 68.0449 170.3205 63.2387 169.3145 60.7798 166.2967 55.7501 165.179 53.1793 165.179 50.4968 165.9614 48.3732 166.5202 46.026 165.9614 42.7846 164.5084 40.6609 161.0435 36.5254 160.8199 34.4018 162.6083 32.1663 163.6142 31.2722 164.7319 30.6015 166.1849 30.6015 167.5262 31.0486 168.8674 31.2722 170.3205 30.6015 170.8793 29.5956 172.4441 24.5659 172.7794 22.6658 172.8912 22.1069 174.9031 20.095 175.1266 19.8715 175.3502 17.5243 175.2384 15.1771 175.3502 12.7182 176.3561 10.0356 177.9209 8.0238 180.2681 6.0119 182.9506 4.4471 186.192 4 187.1979 4 187.645 4 190.9981 6.7943 194.6866 14.8418 197.4809 17.6361 200.3869 18.1949 201.3928 16.6301 201.8399 14.1712 202.9576 12.0475 204.9695 11.2651 209.8875 11.1534 212.2347 10.1474 214.5818 9.8121 216.8173 10.0356 223.7471 11.7122 224.753 12.0475 225.8707 12.8299 226.4296 13.8359 226.4296 14.9536 227.212 15.9595 228.5532 15.9595Z" />
</svg>