<?xml version="1.0" encoding="utf-8"?>
<svg xmlns="http://www.w3.org/2000/svg" viewBox="0 0 783 1024" style="stroke-width:0.25px;stroke-linejoin:round;stroke:#444;fill:#ddd" fill-rule="evenodd">
  <path class="LB" d="M4.0541 999.4341L4.0541 998.4282 4.7248 995.7457 2.3776 996.081 1.5952 995.2986 1.5952 993.7338 1.1481 991.8337 4.3894 985.0156 8.9721 977.974 14.5606 972.609 25.9613 967.8029 29.6497 961.6554 32.8911 954.6139 36.356 949.3606 33.3382 945.1133 36.356 944.5545 38.0326 945.3369 39.9327 949.3606 55.4689 915.6057 57.8161 897.1635 46.9743 881.4037 58.0396 873.1327 65.8636 861.6202 75.5877 834.6834 76.8172 826.5241 77.1525 809.7584 79.1644 801.152 88.5531 787.0689 91.7945 779.3567 89.7826 771.6444 116.6077 750.855 130.132 736.6601 135.9441 718.3296 137.0618 710.2821 156.7336 656.4084 153.4922 652.1611 161.5397 645.2312 167.5754 619.6356 176.2935 614.0471 175.9582 606.5584 196.4123 556.4849 198.4242 544.1901 199.3184 518.371 199.4301 513.9001 197.7536 506.5232 194.624 500.4876 192.8356 495.4579 195.6299 490.5399 201.2185 488.6398 208.0365 489.7575 213.9604 492.3283 217.09 495.1226 220.6667 495.1226 225.5846 492.3283 232.9615 492.8871 237.7677 493.2224 245.3681 490.5399 248.6095 486.2926 253.5274 473.886 256.2099 468.8563 256.4334 466.2856 255.651 465.2796 252.4097 465.0561 256.8805 459.8029 263.0279 444.8255 266.8282 438.6781 270.1813 437.4486 278.7877 437.3369 280.9113 434.7661 280.6878 429.0658 278.3406 426.1597 275.5463 424.3714 273.8697 422.0242 273.758 406.8233 282.2526 379.4394 284.488 360.103 282.8114 352.7261 275.5463 339.09 273.8697 330.2601 273.8697 308.9118 275.5463 304.3292 282.8114 298.9641 284.488 295.7228 284.7116 276.051 287.1705 256.4911 293.5415 239.949 305.7245 229.3307 314.5545 236.5958 322.9373 223.5186 330.7613 203.7351 337.6911 190.7696 366.4163 175.0099 375.358 162.8268 365.9692 147.626 365.9692 143.714 375.5815 146.2847 416.6015 135.5547 444.209 109.0649 452.5919 103.0293 457.8451 97.4407 460.7512 88.6108 461.1982 59.215 459.7452 45.9142 456.6156 34.7371 451.0271 27.6955 457.6216 27.3602 462.0924 28.7014 465.8926 30.4898 474.9461 37.8667 486.235 41.108 497.971 41.4433 511.7188 39.4315 524.5725 40.4374 547.1503 42.0022 549.3857 41.3316 555.5331 37.5314 558.7745 36.749 561.3452 37.8667 567.4926 42.4493 570.6222 43.567 601.8064 41.8904 606.9479 39.5432 611.6422 34.4018 613.6541 28.5897 613.7659 16.2948 615.5542 11.4887 626.2843 4 633.9965 9.0297 646.1795 31.2722 656.5743 40.6609 668.7573 44.7965 681.611 44.5729 694.1294 40.5492 692.1175 60.3327 688.429 63.2387 682.9523 58.7679 675.24 56.5325 667.6396 61.3386 666.5219 68.8273 667.1925 78.1043 664.8453 87.9402 654.7859 95.9877 640.591 103.5881 631.9846 112.8651 637.1261 122.5892 638.5791 125.3835 639.9204 125.8306 641.3734 125.9424 642.8264 125.8306 644.1677 125.3835 654.2271 122.3657 669.4279 121.5833 683.5111 122.8128 690.6645 125.2717 690.6645 125.3835 693.9058 135.89 699.0473 143.9375 705.9771 149.7496 714.807 153.6616 722.2957 162.9386 725.9842 165.3976 729.7844 164.0563 738.0554 169.9802 740.8497 175.5688 740.4026 182.4986 738.6143 192.7815 737.273 197.0288 735.3729 200.0466 733.6964 203.288 733.2493 208.4295 734.7023 213.4592 737.273 218.2653 748.4502 234.0251 753.927 240.0607 757.6154 241.7373 761.4156 241.402 764.7688 242.1844 767.4513 247.1023 766.3336 255.2616 761.4156 262.0796 757.5036 270.2389 759.9626 281.9749 763.3157 290.9166 775.8341 303.435 778.5166 309.4706 778.8519 310.1413 764.3217 326.2363 752.2504 346.4669 729.1138 366.2504 719.0543 379.1041 716.0365 387.934 715.0306 395.3109 712.2363 401.0112 703.7417 405.2585 696.7001 405.5938 685.523 401.4583 679.5991 400.8994 668.7573 406.488 651.5446 428.3952 630.9787 446.5021 622.8194 456.5615 615.7778 467.7386 604.7124 490.2046 605.6066 492.5518 608.9597 498.4757 612.2011 502.2759 627.402 514.1237 647.7443 517.5886 656.5743 523.1771 657.5802 535.919 651.4328 544.1901 641.4851 545.7549 621.9252 541.1723 595.4354 527.9833 586.382 526.3067 578.558 529.2128 571.2928 535.1366 563.0218 540.1663 552.18 540.3899 548.0444 537.8191 541.4499 529.4363 538.0968 527.4244 519.5428 538.9369 510.6011 542.7371 500.877 545.3078 492.6059 548.7727 487.5762 555.479 480.5347 568.7798 463.4337 583.4218 456.3921 594.04 453.2625 601.1934 443.7619 609.9116 439.9617 615.3883 439.1793 620.6416 440.6323 631.9305 439.2911 637.8543 436.8321 640.3133 430.1259 642.884 428.0022 644.8959 425.9903 658.1967 432.9201 662.444 444.3208 664.6794 456.3921 671.3857 463.769 673.5094 473.2695 678.2037 481.8759 684.6865 486.4585 691.7281 484.782 703.2405 476.8462 712.6293 466.2279 719.6708 456.3921 724.2535 444.209 724.0299 432.026 728.0537 426.2139 736.213 433.1437 748.8431 424.9844 768.6266 408.8893 782.1509 399.3888 787.8513 386.5351 795.5635 374.1285 803.0521 366.1927 812.5527 355.798 833.2304 347.4152 842.7309 341.2678 846.6429 334.1144 849.7725 326.7375 851.8961 319.9195 852.5668 310.7542 855.0257 291.0825 875.7034 286.7234 883.5274 275.8816 884.8686 270.1813 887.8865 269.1754 896.2693 262.1338 903.5344 261.7985 905.9934 261.7985 906.1052 258.7806 903.5344 258.6689 903.5344 252.0744 898.6165 242.6856 883.8627 239.7795 880.1743 233.7439 880.8449 230.279 886.657 227.1494 895.1516 222.455 903.5344 218.4312 917.1705 217.2018 947.684 214.4075 963.332 210.0484 973.7267 200.4361 991.0513 197.8653 1000.44 181.9938 1001.7813 157.2924 1012.3996 128.1201 1020 121.1903 1019.1058 116.3842 1012.7349 112.8075 1005.4697 107.666 999.2106 101.9657 994.5162 98.9479 993.1749 96.2653 991.9454 90.0062 991.9454 70.8933 998.2046 67.2048 997.9811 59.8279 996.081 56.6983 995.8574 53.3452 997.0869 47.6449 1001.5578 45.4095 1002.5637 4.0541 999.4341Z" />
</svg>