<?xml version="1.0" encoding="utf-8"?>
<svg xmlns="http://www.w3.org/2000/svg" viewBox="0 0 491 1024" style="stroke-width:0.25px;stroke-linejoin:round;stroke:#444;fill:#ddd" fill-rule="evenodd">
  <path class="LC" d="M477.2664 264.5386L486.767 339.9842 486.5435 406.9351 456.7006 604.0994 463.8539 716.9883 433.0051 842.1721 426.4106 859.8319 418.9219 862.9615 387.7377 871.6796 377.1195 878.833 365.607 903.3109 343.2528 1000.9989 327.7166 1015.8645 320.1162 1020 307.7096 1020 262.3305 957.8552 76.5668 885.4275 34.9879 835.354 27.0521 821.9415 11.963 805.1758 2.2389 785.8394 19.4517 745.7135 22.246 719.7826 19.4517 669.4856 15.5397 653.0552 8.4981 640.0898 2.2389 623.8829 1.233 597.8403 7.7157 570.7916 30.07 523.1771 34.9879 501.9406 48.5122 466.2856 107.8627 380.11 130.1052 322.6596 190.5734 231.119 203.5388 220.8361 227.6814 207.0882 240.088 194.7934 245.9001 178.9219 255.6242 133.7663 265.5718 115.9947 326.2636 28.5897 361.3597 4 409.4213 19.7597 398.2442 63.9094 414.8981 86.8224 441.9468 102.4704 461.9538 124.8246 468.7718 156.6794 477.2664 264.5386Z" />
</svg>