<?xml version="1.0" encoding="utf-8"?>
<svg xmlns="http://www.w3.org/2000/svg" viewBox="0 0 581 1024" style="stroke-width:0.25px;stroke-linejoin:round;stroke:#444;fill:#ddd" fill-rule="evenodd">
  <path class="LK" d="M573.1223 717.1001L573.793 721.2356 576.4755 730.4009 576.8108 735.7659 575.3578 746.1606 563.51 787.2924 562.8394 791.5397 562.6158 797.1283 561.7217 801.8227 558.0332 809.0878 557.1391 812.3292 555.686 816.8 550.7681 824.624 548.4209 828.3124 550.0975 834.5716 547.3032 842.0603 523.0488 880.5096 515.0013 888.6689 500.024 899.2871 495.1061 900.7402 488.6233 904.2051 440.7853 941.8719 431.1729 947.1252 400.1006 958.0788 399.6535 954.3903 399.6535 954.1668 397.8651 952.7138 397.7534 952.7138 397.418 952.8255 395.8532 953.2726 394.8473 955.2845 394.2884 959.6436 392.9472 961.3201 390.7118 961.9908 387.6939 963.2202 382.1054 966.6851 376.5168 969.1441 349.6917 974.8444 336.6145 979.3153 322.4196 981.9978 315.9369 984.4568 312.0249 989.9336 304.9833 988.5923 300.736 990.2689 298.277 991.163 288.3294 998.5399 278.4935 1005.9168 273.9109 1011.1701 263.2926 1010.6112 258.9336 1011.1701 255.4686 1012.5113 251.892 1014.5232 245.6328 1019.2176 243.8444 1019.6647 242.0561 1020 237.8088 1018.4352 233.2262 1016.088 230.6554 1015.3056 228.8671 1014.7468 213.8898 1016.5351 209.6425 1015.6409 207.5188 1013.5173 206.1776 1010.723 205.0598 1009.0464 204.2774 1007.8169 199.9184 1010.3877 196.0064 1010.723 189.0766 1009.7171 187.4 1009.3817 186.1705 1008.8229 185.2763 1007.7052 184.1586 1006.4757 182.1468 1005.9168 181.029 1006.2521 180.0231 1007.1463 179.0172 1007.8169 177.6759 1007.8169 177.2288 1007.4816 176.7817 1007.0345 175.2169 1004.7991 174.3228 1004.2403 174.211 1004.1285 172.3109 1003.4579 161.3573 999.5459 156.7747 998.5399 153.6451 997.8693 148.0565 993.3985 146.7153 992.8396 144.2563 991.6101 142.3562 993.5102 137.5501 989.5982 116.5371 967.3558 114.8605 966.0145 114.637 965.791 114.0781 965.0086 113.7428 964.0026 113.8546 961.7672 113.1839 960.6495 112.2898 959.42 109.9426 956.4022 98.0948 931.2537 97.536 928.9065 97.6477 926.6711 97.6477 924.5474 97.2007 923.2062 95.077 918.7353 92.9534 906.664 88.1472 898.1694 85.2411 885.9864 84.1234 881.5155 83.5646 881.0684 82.4469 880.3978 81.3292 879.3919 80.6585 878.0506 80.8821 876.4858 82.1116 876.1505 83.4528 876.2623 84.1234 876.2623 82.1116 862.6262 81.9998 861.5085 76.6348 847.7606 54.5041 790.9809 51.0392 771.4209 50.7039 769.5208 50.7039 750.855 51.0392 750.0726 53.6099 743.9252 54.2805 741.0191 54.1688 738.0013 54.1688 737.8895 41.8739 694.0752 43.5505 687.5925 43.4387 691.6163 44.4447 694.0752 45.7859 695.9754 47.0154 698.3226 49.4744 706.9289 50.7039 709.0526 52.2686 709.0526 52.7157 706.5936 53.3864 705.5877 54.057 705.3641 54.2805 705.4759 54.1688 697.5402 53.6099 694.0752 52.2686 691.1692 51.0392 690.3868 47.686 689.6044 46.233 688.5985 46.0095 688.2631 45.1153 686.363 45.5624 684.2394 46.4565 682.3393 47.0154 680.5509 34.3853 587.7809 32.8205 584.4277 33.8264 583.31 34.6088 583.1982 36.5089 584.4277 36.956 579.9569 38.1855 574.7036 38.5208 572.2447 38.8561 569.6739 37.4031 565.7619 35.3912 562.1853 35.0559 559.8381 34.7206 557.4909 34.7206 547.8785 28.7967 518.7063 28.0143 515.3531 24.9965 508.9822 22.4257 495.4579 18.1784 484.8396 11.6957 455.5556 11.6957 447.1727 12.8134 447.7316 12.9252 447.8433 12.9252 448.0669 13.484 448.9611 14.3782 444.1549 13.037 428.7305 11.6957 424.1479 15.943 421.3536 19.9668 416.1003 22.8728 410.1765 23.9905 405.2585 25.22 402.0172 32.8205 389.9459 32.7087 390.1694 28.9085 399.3347 23.9905 407.941 25.1083 410.0647 25.3318 410.5118 27.2319 412.5237 29.6909 413.4178 32.8205 413.4178 30.2497 420.5712 27.679 425.7127 26.5613 426.6068 25.3318 426.7186 24.4376 427.501 23.9905 430.1835 24.2141 436.4427 23.9905 438.3428 19.6315 452.2024 19.855 454.8849 20.1903 460.0264 24.6612 465.3914 25.8906 466.8444 20.7492 477.6862 29.0202 483.7219 40.9798 484.6161 47.0154 480.257 45.8977 475.6744 43.8858 472.0977 43.2152 470.6447 42.2092 469.527 39.9738 466.6209 37.4031 464.9443 36.6207 462.1501 45.3388 445.6079 45.0035 442.5901 43.8858 440.3547 42.5446 438.4546 41.7622 436.5545 41.5386 433.4249 41.8739 427.9481 41.7622 425.8244 41.7622 425.7127 41.6504 425.2656 40.9798 423.4772 40.5327 423.0301 39.9738 422.5831 39.5267 421.4653 39.9738 418.5593 41.2033 416.1003 44.5564 411.7413 45.3388 408.8352 45.8977 403.3584 48.2449 392.5166 50.7039 367.0328 52.2686 364.1267 53.9452 362.6737 55.2865 360.9971 55.8453 357.1969 55.8453 346.3551 57.2983 340.9901 60.7633 337.637 65.0106 334.7309 68.3637 331.1542 68.699 329.813 71.2697 321.8772 71.6051 321.5419 71.8286 321.3184 72.3875 319.0829 74.8464 313.8297 77.0818 288.4576 70.9344 272.2508 71.3815 269.4565 71.8286 251.0143 71.8286 250.7908 71.2697 244.5316 70.4873 241.5138 69.1461 239.2783 68.0284 236.5958 70.4873 235.3663 73.9523 234.6957 76.1877 234.0251 91.165 220.5008 98.989 216.5888 102.2304 213.7945 103.9069 207.4235 107.0365 200.829 108.7131 191.7756 117.0959 170.3155 117.3195 169.086 118.1019 165.9564 119.6667 159.5855 119.6667 144.3846 120.2255 142.1492 119.7784 140.6961 116.7606 140.1373 109.6073 136.4488 106.9248 133.7663 105.1364 128.8484 104.8011 127.9542 103.5716 121.9186 103.4598 118.4537 106.5894 115.1006 112.2898 112.3063 118.549 110.2944 123.8022 109.512 126.1494 108.2825 131.738 100.7938 132.4086 100.235 133.4145 99.4526 135.3146 98.3349 137.6618 97.4407 140.5679 96.9936 138.1089 92.5228 136.6559 90.5109 135.2029 88.499 131.4026 84.6988 126.3729 80.8986 107.3718 69.7215 103.4598 64.9153 111.7309 65.1388 119.6667 68.3802 135.2029 77.4337 149.9567 81.1221 153.8686 83.6928 160.0161 89.0579 161.4691 91.8521 158.3395 93.4169 159.0101 95.2053 159.9043 96.9936 158.3395 98.782 163.7045 102.4704 176.4464 99.3408 199.6948 90.0638 206.0658 90.6227 219.7019 94.4229 235.9087 101.7998 248.2035 104.147 230.6554 92.0757 224.6198 89.2814 219.2548 88.0519 218.4724 87.7166 217.69 87.3813 213.1074 83.8046 211.319 82.7987 209.5307 82.4634 207.407 82.5751 204.2774 82.7987 202.2656 83.5811 201.9303 84.0282 201.3714 84.9223 200.3655 85.4812 196.9006 82.9105 195.5593 82.6869 187.1765 82.9105 184.8293 82.2398 166.4988 66.2565 158.6748 61.1151 158.563 61.1151 155.7688 59.8856 142.5798 54.0735 137.7736 51.2792 134.5322 51.2792 135.2029 57.6502 136.9912 59.4385 139.6737 61.5622 141.3503 64.1329 139.6737 67.486 137.7736 68.1567 135.8735 67.0389 134.1969 65.5859 129.1672 63.0152 119.5549 54.6323 114.0781 52.2851 116.8724 55.4147 121.9021 59.7738 124.8081 62.9034 118.549 61.7857 112.4015 59.215 99.9949 52.2851 90.0473 44.4612 84.2352 42.3375 83.6763 42.0022 81.4409 40.5492 79.3173 39.655 78.982 41.5551 76.1877 39.655 75.07 37.0843 74.6229 34.0664 73.6169 30.7133 71.9404 27.8073 70.9344 26.466 68.2519 23.0011 66.5754 19.9833 72.1639 17.189 82.3351 7.6884 86.8059 5.6766 86.9177 5.6766 107.0365 7.4649 117.543 6.2354 121.3432 6.6825 122.908 10.2592 122.5727 15.736 123.3551 17.6361 125.5905 18.3067 127.7142 18.642 133.8616 20.2068 135.2029 20.9892 136.3206 23.2246 139.1149 23.1129 141.2385 22.4422 142.1327 22.2187 143.3622 21.9952 144.2563 21.8834 146.2682 23.1129 147.1624 23.56 154.3157 31.4957 177.0053 56.3089 185.0528 61.3386 203.6068 69.945 204.2774 70.2803 204.2774 68.2684 194.8887 63.574 172.1991 44.9083 153.6451 23.4482 144.2563 18.3067 129.5025 14.8418 125.5905 12.0475 125.0317 8.0238 130.5085 5.6766 132.185 5.3413 137.5501 4.4471 148.2801 4 153.4216 4.8942 156.9982 7.4649 159.3454 15.9595 161.6926 19.5362 195.4475 59.4385 200.3655 63.0152 210.4249 68.8273 281.6231 126.7248 281.8466 127.1718 283.7468 130.1897 286.541 133.8781 292.1296 139.1314 295.5945 143.6022 292.5767 145.2788 292.4649 145.2788 290.7883 144.4964 290.5648 144.3846 290.453 144.3846 287.7705 140.9197 286.3175 140.1373 281.6231 139.3549 279.6112 139.9138 280.6172 142.0374 280.9525 142.708 294.2532 155.2264 299.5065 158.1325 297.4946 154.8911 296.2651 151.8733 296.824 149.7496 300.4007 148.8554 302.0772 149.9732 304.8715 158.1325 307.3305 163.0504 317.1663 182.7221 315.1545 182.0515 309.6777 179.9278 306.3245 179.9278 304.8715 183.6163 306.8834 184.5105 311.0189 185.2928 314.8191 187.64 314.8191 187.9754 315.378 193.5639 317.1663 193.5639 317.9487 192.1109 318.7311 191.4403 319.6253 190.9932 320.8548 190.2108 322.0843 195.3523 322.3078 196.0229 325.8845 204.4057 330.8024 211.8944 335.8321 215.1358 336.1674 215.4711 336.7263 215.9182 336.7263 217.8183 335.4968 219.6066 333.1496 220.5008 332.479 219.7184 329.5729 215.1358 326.5551 213.4592 319.5135 211.6708 315.378 209.7707 317.2781 212.4532 318.284 213.9063 327.5611 222.6244 327.6728 227.5424 330.6906 229.7778 328.0081 232.3485 325.5492 235.2546 329.5729 238.3842 333.932 238.0488 337.5087 234.8075 340.1912 230.1131 341.8678 225.754 341.9795 225.8658 351.2565 237.1547 359.5276 251.3496 362.8807 254.8145 367.5751 256.2675 371.3754 259.2854 376.9639 272.8097 378.3052 274.2627 379.7582 275.8275 379.87 275.8275 386.1292 278.7336 389.3705 285.4398 392.9472 299.0759 393.6178 296.6169 394.4002 295.611 395.8532 295.9463 398.3122 297.2876 397.6416 299.8583 404.7949 307.6823 407.1421 311.5943 407.1421 316.2887 405.242 318.1888 402.5595 319.4183 400.1006 322.2125 400.2123 322.2125 402.0007 321.7655 404.0125 321.2066 404.4596 320.9831 405.3538 320.4242 405.4656 320.536 411.0541 332.719 411.8365 338.9782 405.4656 340.0959 405.3538 340.0959 406.695 335.8486 405.0185 332.4955 402.1124 332.0484 400.1006 336.5193 400.7712 339.9842 402.6713 342.4431 403.6772 345.1256 401.7771 349.1494 400.2123 347.9199 397.418 345.7963 392.9472 343.002 388.4763 341.8843 384.1173 343.7844 380.7641 348.2552 381.9936 350.6024 386.0174 350.0436 391.3824 345.5727 395.0708 349.4847 398.3122 354.1791 402.336 358.0911 408.0363 359.7677 419.884 359.5441 423.9078 356.9734 421.2253 350.9377 428.0433 347.8081 430.7259 346.914 433.5201 347.1375 433.6319 347.1375 436.7615 348.9259 439.5558 352.0554 441.6794 355.6321 443.5795 366.0268 447.6033 379.4394 447.7151 382.9043 447.8268 386.481 444.5855 384.1338 441.1206 377.204 438.1028 375.7509 437.991 377.651 439.2205 386.1457 439.3322 386.7045 440.7853 389.9459 442.4618 390.84 444.0266 391.5107 444.1384 391.5107 447.6033 391.5107 450.2858 392.8519 451.9624 402.7996 453.9743 409.7294 454.3096 410.8471 454.8684 415.0944 455.6508 417.7769 461.0158 435.9956 463.0277 447.8433 458.3333 454.3261 455.7626 443.596 455.4273 442.0312 451.4035 431.1894 449.6152 431.1894 449.2799 439.4605 449.6152 442.0312 449.3916 441.9195 449.1681 442.7019 449.1681 444.0431 449.6152 445.6079 450.3976 446.6139 452.633 447.2845 453.0801 448.0669 455.2037 453.5437 459.6746 456.8968 464.0337 456.5615 465.4867 450.9729 467.1633 450.9729 468.7281 453.879 469.1751 454.6614 471.2988 464.0502 473.4224 467.7386 476.3285 470.8682 478.2286 473.886 481.3582 481.2629 482.5877 480.0334 484.2642 478.804 485.0466 477.5745 486.1644 480.0334 485.0466 481.2629 485.6055 482.2689 486.1644 482.8277 486.1644 482.9395 486.4997 483.4983 486.6114 484.7278 486.7232 484.6161 487.9527 483.6101 490.6352 482.2689 491.9765 481.2629 492.5353 482.716 493.3177 484.5043 492.7589 486.6279 491.8647 488.7516 491.8647 490.3164 491.9765 491.8812 493.7648 495.4579 496.8944 497.9168 499.018 499.4816 500.9182 502.6112 499.6887 502.723 499.1298 503.0583 498.3474 503.6172 497.7886 503.9525 497.3415 504.176 496.5591 507.0821 495.8884 509.8763 498.9063 518.7063 500.4711 520.6064 504.1595 524.8537 504.2713 524.8537 509.6363 523.8477 511.4246 523.8477 513.213 529.3245 515.2249 532.6777 515.8955 533.6836 526.9608 545.3078 530.5375 551.0081 531.2081 556.0378 525.5078 557.8262 522.8253 556.0378 516.5661 547.8785 513.213 545.0843 508.9657 543.5195 508.8539 543.5195 508.4068 543.5195 505.389 543.743 502.7065 546.5373 500.9182 552.3494 503.936 553.6906 506.9538 554.1377 509.5245 553.1318 511.4246 550.5611 514.4425 551.6788 517.2367 553.02 518.2427 554.2495 518.9133 555.0319 518.4662 557.8262 521.9311 560.9558 525.2843 564.1971 527.9668 567.3267 530.7611 572.0211 529.4198 573.5859 529.0845 575.0389 529.5316 576.8273 530.7611 579.2862 532.4376 577.2744 531.4317 573.8095 534.4495 574.8154 540.4851 579.2862 541.9382 581.2981 546.6326 593.4812 546.2972 593.9283 544.8442 600.5228 545.0678 601.3052 545.0678 601.4169 546.2972 603.8759 546.6326 604.8818 545.6266 606.6702 543.7265 608.1232 542.6088 609.688 543.9501 612.0352 545.2913 613.7118 545.6266 614.9413 545.7384 615.1648 546.5208 616.6178 548.4209 618.2944 545.6266 620.3063 545.8502 621.3122 546.0737 622.3182 548.1974 622.7652 550.321 620.0827 551.8858 620.0827 553.8977 630.5892 553.7859 634.3894 555.5743 634.3894 555.5743 634.2777 555.7978 630.701 556.4684 627.1243 557.4744 623.9947 559.1509 621.8711 559.1509 620.0827 558.9274 619.6356 558.3685 618.0708 558.8156 617.1767 560.2686 617.8473 562.6158 620.0827 563.3982 622.0946 563.9571 627.6832 567.9809 633.9424 574.3518 656.073 573.1223 717.1001ZM537.8026 569.4504L537.3556 566.6561 536.3496 564.5325 535.1201 561.9617 534.3377 559.391 534.4495 556.7085 535.2319 554.3613 535.5672 551.7905 534.3377 548.7727 537.5791 552.0141 540.8205 559.5028 543.0559 562.9677 543.6147 564.4207 546.0737 570.9034 552.3329 580.851 555.2389 585.5454 559.598 608.1232 559.598 608.235 559.3745 613.3765 555.5743 616.5061 551.9976 613.7118 550.8799 612.4823 550.321 611.9234 550.2092 610.6939 549.9857 609.3527 549.9857 608.7938 551.1034 592.4752 550.321 586.8867 547.5267 584.4277 546.409 582.0805 537.8026 569.4504ZM16.1666 200.829L13.2605 199.7113 12.031 197.2524 12.8134 194.6816 16.1666 193.5639 27.679 193.5639 32.8205 194.9052 38.0737 196.2464 49.0273 200.4937 59.5338 206.5294 68.3637 215.1358 68.2519 215.1358 64.1164 214.2416 56.6277 210.5531 52.2686 209.7707 58.9749 217.3712 64.2282 223.4068 66.5754 227.5424 60.4279 226.76 56.4042 223.6304 53.6099 220.2772 51.4862 218.7124 48.9155 217.3712 38.2972 207.8706 33.044 205.5234 27.679 203.0645 23.8788 202.0585 21.8669 201.4997 16.1666 200.829ZM20.5256 90.0638L18.402 91.9639 16.2783 93.9758 9.7956 94.4229 3.76 92.411 1.1892 89.0579 1.1892 78.3278 1.8598 75.6453 3.6482 75.9806 5.3248 78.2161 6.4425 80.8986 10.9133 82.3516 16.1666 82.7987 17.5078 83.6928 20.5256 90.0638ZM62.9987 59.4385L58.9749 56.5325 55.0629 50.4968 48.8037 37.9784 51.598 33.5076 52.2686 27.8073 53.9452 23.1129 59.5338 21.8834 62.4398 22.7776 62.5516 22.7776 62.7751 25.013 61.7692 28.1426 61.0986 31.6075 61.2103 35.1842 61.5457 38.0902 61.5457 38.3138 61.7692 38.8726 62.6634 40.8845 63.8928 42.2257 64.787 43.3435 65.9047 43.567 70.9344 43.3435 71.7168 44.1259 72.0521 48.0378 72.7228 49.6026 75.6288 51.5028 79.6526 53.1793 83.0057 55.0794 83.2293 55.7501 84.1234 57.6502 82.3351 59.4385 78.982 59.4385 75.2935 58.3208 72.7228 56.756 70.9344 56.3089 66.24 58.9914 62.9987 59.4385Z" />
</svg>