<?xml version="1.0" encoding="utf-8"?>
<svg xmlns="http://www.w3.org/2000/svg" viewBox="0 0 985 1024" style="stroke-width:0.25px;stroke-linejoin:round;stroke:#444;fill:#ddd" fill-rule="evenodd">
  <path class="LR" d="M1.3305 401.4583L8.9309 397.9934 10.831 396.8757 10.2722 390.7283 11.2781 386.7045 17.8726 382.9043 20.108 378.9923 21.6728 374.4097 22.1199 370.833 21.3375 365.9151 22.1199 364.3503 27.2614 363.7914 29.0497 363.1208 30.391 361.7795 30.8381 359.6559 30.0557 356.6381 26.5908 351.0495 26.0319 348.5905 26.7025 347.6964 31.0616 343.6726 39.4444 330.5954 43.4682 329.7012 63.1399 320.7595 65.2636 318.8594 80.7998 298.7406 85.0471 293.2638 120.5903 265.0975 130.4262 259.5089 139.4796 257.497 142.721 256.044 145.2917 254.0321 147.8625 250.9025 179.829 211.7826 188.8825 204.0704 200.1714 197.923 201.9597 197.3641 207.4365 196.47 206.8777 138.1254 207.213 135.2194 208.1072 132.9839 210.3426 131.1956 216.3782 127.8425 218.949 125.3835 224.4257 114.9888 228.0024 110.6297 233.591 107.8354 238.3971 107.1648 257.7336 107.053 262.6515 106.3824 267.3459 104.8176 271.9285 102.1351 277.8524 96.4348 278.523 91.9639 276.6229 87.1578 274.8345 80.3397 275.3934 74.8629 279.5289 65.6977 286.9058 35.9666 287.1294 23.4482 289.7001 23.6717 292.1591 23.2246 297.1888 21.3245 298.9771 25.3483 303.0009 23.0011 311.1602 15.0653 315.1839 13.8359 319.2077 13.9476 332.8438 17.3008 336.4205 19.4244 338.097 23.0011 335.6381 34.29 336.644 37.5314 339.8854 38.6491 344.9151 37.7549 354.6392 32.0546 363.9162 24.6777 367.9399 22.554 371.8519 21.3245 375.8757 20.8774 380.4583 20.7657 381.6878 20.5421 385.0409 19.648 386.1586 20.2068 387.2763 21.3245 388.5058 22.8893 390.6295 22.2187 394.8768 19.9833 400.9124 18.3067 401.136 16.6301 400.3536 14.8418 400.3536 12.8299 402.0301 10.818 403.7067 9.0297 404.9362 6.9061 404.7127 4 408.8482 4.5589 411.3072 7.6884 412.7602 11.824 414.2132 23.2246 415.3309 27.4719 417.7899 31.7193 421.143 35.2959 422.0372 34.7371 422.149 31.2722 422.7078 26.2425 425.6139 22.8893 430.42 22.8893 435.1144 25.1248 438.244 28.2543 439.5853 33.5076 437.5734 36.4136 434.4438 38.5373 432.2084 41.6669 431.873 46.026 433.9967 46.6966 437.5734 45.9142 441.7089 45.8024 443.609 46.026 445.7327 45.6906 447.4092 44.9083 448.6387 43.2317 450.3153 41.3316 452.2154 42.7846 455.345 47.0319 467.3045 52.0616 471.5518 55.1912 473.2284 56.9795 474.4579 57.6502 471.5518 59.4385 470.5459 59.8856 468.9811 60.7798 467.4163 61.8975 464.8455 64.58 467.081 66.7036 468.3105 69.2744 469.2046 71.9569 470.5459 74.3041 471.6636 75.4218 472.1107 76.4277 471.6636 77.5454 470.5459 78.6631 468.1987 82.4634 466.6339 89.3932 467.081 95.8759 470.5459 98.4466 476.358 99.5644 478.7052 100.9056 479.4876 103.6999 479.4876 106.4942 483.9584 124.0422 483.3996 126.613 480.8288 130.9721 480.4935 133.7663 483.2878 130.1897 485.8585 128.1778 488.4293 128.4013 491.2235 131.7545 492.453 134.3252 492.9001 136.8959 492.3413 139.2431 490.6647 141.4785 490.3294 142.2609 487.1998 152.7674 486.6409 162.9386 488.9881 172.998 494.4649 183.0574 500.7241 191.105 502.736 195.1287 508.8834 203.0645 506.3127 209.2119 503.8537 217.8183 504.3008 225.9776 509.3305 231.9014 506.7597 233.8015 504.6361 236.9311 503.2948 240.6196 502.1771 247.1023 500.3888 249.7848 496.1415 254.8145 497.0356 258.1677 495.0238 263.3091 489.547 271.4684 484.629 275.1569 482.3936 277.5041 481.3877 280.5219 481.2759 283.7633 480.6053 286.6693 479.1523 289.1283 476.4697 291.3637 477.3639 292.0343 477.4757 292.1461 479.4876 291.1402 486.4174 284.3221 489.0999 280.4101 493.6825 288.5694 496.4768 290.9166 500.0535 285.5516 501.5065 285.2163 502.6242 284.3221 503.1831 281.7514 504.189 280.8572 506.3127 280.5219 510.3364 280.4101 513.8013 280.8572 515.4779 281.4161 517.4898 282.6455 519.1663 284.7692 520.8429 289.5754 522.2959 291.2519 525.9844 291.8108 534.1437 289.6871 537.8321 290.0224 541.297 294.9404 544.5384 310.1413 550.4623 315.618 551.9153 315.8416 557.2803 315.618 558.6216 316.624 558.7333 320.7595 560.6334 322.3243 565.3278 324.6715 566.1102 327.9129 563.8748 336.1839 566.6691 333.725 568.5692 333.0543 569.9105 332.6073 573.2636 332.0484 576.3932 331.0425 579.7463 328.6953 582.7641 325.901 586.1173 324.1127 590.141 324.448 592.1529 323.3303 597.4062 321.7655 598.5239 321.6537 599.3063 317.8535 600.424 317.5182 602.8829 318.6359 604.2242 312.9355 607.242 314.8356 611.8246 322.1008 614.9542 321.7655 625.349 317.7417 627.9197 316.1769 629.4845 311.3707 628.3668 306.7881 626.6902 302.429 626.1314 298.4053 627.2491 295.8345 629.4845 292.4814 633.8436 287.0046 636.079 285.6634 639.991 284.4339 642.0029 282.6455 642.897 280.5219 643.2323 275.604 644.1265 273.2568 645.5795 272.1391 652.174 268.1153 656.3096 263.7562 658.6568 259.2854 659.5509 254.591 659.3274 248.8906 658.6568 247.7729 657.5391 247.5494 656.6449 247.1023 656.3096 245.5375 656.7567 244.1963 658.2097 241.7373 658.545 240.2843 659.1039 232.0132 660.7804 226.9835 667.0396 219.2713 668.9397 214.4651 697.4414 216.0299 696.2119 225.0834 697.6649 231.6779 702.1358 237.1547 709.848 242.855 717.1131 247.4376 727.0607 252.4673 731.4198 260.9619 736.3377 278.0629 739.132 301.4231 740.4733 306.1175 742.0381 309.0235 746.1736 314.8356 747.6266 317.9652 749.5267 325.4539 750.6444 327.354 753.5505 330.9307 754.5564 332.8308 754.6682 334.3956 754.1094 337.5252 754.3329 339.09 755.2271 340.543 758.692 344.1197 760.145 346.5787 760.8156 348.8141 761.1509 354.738 765.2865 377.7628 764.6158 383.5749 762.8275 385.8103 758.0213 389.6106 756.6801 391.7342 756.3448 395.9815 756.6801 399.8935 756.4565 403.6937 753.4387 410.4 754.5564 412.1883 756.5683 413.4178 757.686 414.8708 757.9096 418.1122 757.4625 421.4653 755.4506 428.7305 752.4328 435.7721 749.0796 441.0253 727.5078 465.1679 722.8134 470.4211 705.6007 484.169 702.3593 488.081 701.8004 488.081 697.7767 490.3164 697.5531 490.3164 697.7767 490.7635 696.659 494.1166 696.2119 495.1226 695.0942 495.7932 692.1881 496.2403 691.0704 496.7991 685.1465 504.2878 689.1703 504.5113 691.5175 505.0702 697.3296 504.8466 700.1239 505.629 702.6946 507.9762 709.848 517.5886 714.207 519.0416 717.2249 516.5826 719.125 512.1118 720.2427 507.6409 721.3604 505.629 722.9252 506.635 725.6077 510.2117 733.0964 514.2354 736.3377 517.9239 736.0024 519.2651 734.2141 520.8299 732.9846 524.7419 733.4317 527.0891 735.5553 531.4482 736.1142 533.3483 734.8847 535.4719 732.6493 536.7014 731.8669 538.1545 734.6612 541.0605 737.2319 538.6015 740.2497 537.4838 743.1558 537.4838 745.6147 538.6015 748.7443 536.0308 751.2033 537.0367 753.5505 539.6075 756.1212 541.9547 757.2389 541.8429 758.0213 540.7252 759.0273 539.9428 760.8156 540.9487 762.0451 542.8488 762.2686 544.8607 762.2686 546.5373 762.604 547.4315 764.8394 548.3256 783.3934 552.4612 786.1877 553.5789 788.7584 555.0319 790.435 556.2614 792.4469 556.932 796.3589 556.932 799.6002 556.1496 804.9652 553.1318 807.7595 552.0141 818.8249 550.4493 825.3076 550.2257 829.4431 551.2317 833.3551 553.9142 848.7795 557.6026 850.1208 557.7144 851.1267 557.2673 852.2444 557.0438 853.6975 557.4909 854.1446 558.2733 854.8152 561.0675 855.5976 562.297 866.2158 570.7916 869.9043 575.3743 870.5749 578.6156 867.3336 587.8926 866.2158 592.9223 865.657 598.3991 866.3276 603.3171 868.8983 606.6702 869.0101 605.5525 871.3573 604.323 874.2634 603.4288 876.4988 603.6524 878.7342 605.776 879.7402 608.0114 880.5226 613.4882 881.305 614.2706 882.5344 614.7177 883.7639 615.2766 884.3228 616.8414 883.8757 618.1826 881.6403 619.3003 881.0814 620.418 880.9696 627.3479 881.1932 629.0244 884.3228 632.9364 893.7116 637.9661 896.6176 640.7604 900.9767 646.796 904.218 645.1195 907.0123 640.3133 909.6948 637.0719 911.2596 638.4132 913.8304 641.431 917.407 644.2253 921.6543 644.8959 921.9897 645.7901 926.9076 648.4726 927.5782 648.5844 932.7197 650.9316 933.9492 652.4964 932.0491 654.9553 933.8374 656.5201 937.0788 660.5439 938.7553 661.4381 941.5496 660.0968 944.4557 657.6378 946.244 656.8554 945.4616 660.8792 949.1501 661.5498 950.8266 664.6794 951.9443 668.1443 954.1798 669.4856 956.0799 667.6972 957.3094 663.7853 957.98 656.6319 965.6922 659.985 966.8099 668.2561 965.2451 678.4273 965.0216 687.2572 969.3806 706.1465 972.5102 712.4057 977.6517 722.6887 980.6695 726.6007 975.6398 725.7065 973.9633 728.6125 975.081 733.1952 978.3223 737.4425 973.6279 737.666 972.0631 737.5542 974.5221 739.9014 974.8574 740.3485 973.6279 742.3604 970.8337 744.5958 969.0453 748.0607 969.2689 757.1142 968.1512 759.6849 964.798 757.8966 964.9098 761.6968 965.804 766.0559 967.4805 770.0796 969.716 773.4328 973.2926 775.3329 975.7516 774.8858 977.5399 775.2211 978.8812 779.8037 979.5518 784.3864 979.3283 787.0689 977.8752 789.6396 974.9692 793.6634 974.4103 795.2282 973.5162 799.2519 972.2867 800.705 970.0513 801.8227 969.4924 800.8167 969.3806 799.0284 968.71 797.4636 968.3747 796.2341 969.6042 795.0046 970.0513 794.1105 967.257 793.5516 966.6981 794.2222 960.4389 797.5754 958.7624 799.8108 957.6447 802.0462 955.1857 809.982 957.0858 821.2708 956.974 825.2946 955.521 829.5419 949.1501 841.2779 945.6851 839.9366 941.6614 839.8249 937.7494 841.6132 934.7316 845.9723 934.1727 850.2196 936.0728 864.0792 935.7375 869.2207 937.4141 872.5738 939.6495 875.7034 940.9908 880.3978 940.9908 883.9745 940.0966 883.8627 938.0847 882.5215 934.9551 882.1861 927.69 887.9982 927.5782 890.2337 929.2548 897.6106 928.9195 900.4048 927.5782 905.3228 927.5782 907.2229 927.5782 907.4464 928.6959 910.2407 930.596 911.9173 932.3844 913.3703 933.8374 915.1586 934.508 917.2823 935.514 929.8007 934.508 981.1036 934.8433 983.3391 935.514 985.4627 935.9611 988.0334 935.514 994.0691 937.1905 998.987 937.5259 1001.2224 936.7435 1003.5696 934.2845 1008.0405 933.9492 1010.4994 935.2904 1013.2937 943.1144 1018.6587 943.1144 1018.7705 930.596 1020 927.0194 1019.5529 921.4308 1017.2057 918.3012 1016.6469 901.9826 1016.6469 899.9707 1015.8645 898.9648 1014.1879 898.1824 1012.5113 897.0647 1011.7289 893.1527 1011.3936 883.7639 1007.5934 880.8579 1005.9168 878.1754 1003.5696 876.7223 1000.8871 875.3811 997.6458 873.2574 994.8515 866.1041 992.6161 860.292 988.1452 857.6095 987.1393 853.6975 986.5804 851.3503 985.3509 849.4502 983.7861 847.103 982.2213 842.8557 980.5448 832.4609 977.7505 824.3017 976.521 809.2125 970.5971 780.152 967.0205 771.6574 964.2262 761.3745 952.8255 757.5743 950.9254 752.9916 950.0312 728.2902 941.0895 701.6887 922.2002 687.829 914.488 654.5212 902.305 647.0326 898.2812 630.2669 884.0862 624.0077 880.0625 616.6308 876.7094 614.1718 876.2623 609.2539 874.0268 601.877 872.9091 596.0649 871.1208 590.3646 868.4383 586.3408 865.4205 587.0114 864.8616 587.235 864.6381 587.235 864.4145 587.7938 863.6321 577.2873 860.7261 568.7927 855.6964 555.1567 843.8486 551.3564 841.5014 542.9736 837.4777 535.5967 832.0009 531.2376 830.3243 527.2139 828.3124 524.0843 824.0651 527.2139 824.0651 523.9725 819.7061 519.1663 817.0235 513.9131 815.0117 509.2187 812.5527 481.2759 786.2865 479.5993 782.7098 477.0286 773.9916 474.905 769.7443 472.3342 767.2854 468.4222 764.6029 464.2867 762.4792 460.71 761.585 460.0394 761.138 453.3331 759.7967 451.8801 759.9085 451.5448 757.5613 454.4508 753.9846 455.0097 751.7492 451.0977 745.9371 427.1787 731.9657 392.4178 698.5461 359.5571 671.4975 350.9507 661.8851 349.2741 660.4321 345.0268 657.9732 343.5738 656.1848 342.9032 653.7259 343.9091 650.708 343.5738 647.802 341.3384 644.1135 337.5382 640.9839 333.2909 638.7485 329.7142 637.9661 327.1435 636.5131 310.1542 623.1006 300.4301 612.3705 287.6882 604.4348 283.3292 602.4229 274.2757 600.7463 270.0284 598.2873 267.4576 595.046 268.1283 591.8046 270.3637 593.1459 272.152 593.3694 273.7168 592.3635 274.8345 590.1281 270.0284 589.1221 266.5635 586.3278 263.5457 583.0865 259.969 580.2922 252.145 575.486 248.233 573.8095 243.6504 573.5859 243.6504 575.3743 255.9452 581.7452 261.422 586.3278 263.2103 591.8046 259.6337 587.3338 252.9274 583.31 245.327 580.1804 196.8183 568.1091 165.9694 552.3494 161.275 548.1021 163.0634 543.9666 164.2928 545.9784 165.5223 547.3197 167.1989 548.3256 169.7696 548.8845 165.8576 542.29 165.0752 536.4779 167.4224 531.1129 172.8992 525.6361 169.5461 525.6361 166.9754 526.3067 165.0752 527.5362 163.0634 529.101 157.363 517.5886 149.4273 509.0939 140.262 502.723 102.4834 482.2689 59.5633 466.8444 30.8381 454.1025 25.5848 447.8433 25.3613 438.3428 26.8143 432.9778 27.1496 430.6306 27.1496 427.501 23.9083 421.3536 23.0141 420.2359 18.5432 418.8946 13.8488 415.9886 9.8251 412.6354 7.4779 410.1765 1.3305 401.4583Z" />
</svg>