<?xml version="1.0" encoding="utf-8"?>
<svg xmlns="http://www.w3.org/2000/svg" viewBox="0 0 1021 1011" style="stroke-width:0.25px;stroke-linejoin:round;stroke:#444;fill:#ddd" fill-rule="evenodd">
  <path class="LS" d="M827.1008 165.1568L833.1364 164.8215 842.9723 167.504 852.0257 171.7513 855.826 176.5574 855.9377 185.9462 858.3967 191.9818 863.8735 195.7821 873.2623 198.3528 887.6807 204.9473 922.1063 241.3847 935.8541 245.632 952.508 246.0791 965.2499 251.4441 967.3736 278.9398 972.068 284.6402 978.5507 289.6699 984.251 296.1526 987.4924 304.2001 992.075 321.0776 1003.6992 336.9491 1007.9465 347.3438 1008.2818 350.2498 1007.9465 357.515 1008.2818 360.9799 1010.182 363.8859 1015.7705 369.4745 1017 372.2688 1015.547 379.1986 1007.8348 390.2639 1007.0524 397.8644 1007.2759 404.7942 1005.3758 410.1592 1001.9109 414.4065 997.1047 417.9832 986.1512 422.7893 973.6328 426.7013 961.8968 431.8428 953.0669 440.8963 950.0491 450.9557 949.9373 461.3504 949.9373 463.2505 952.8433 474.7629 958.7672 482.1398 951.9492 486.8342 951.2785 494.3229 951.3903 502.2586 946.6959 508.2943 914.5058 518.2419 902.4345 527.966 895.6165 539.9255 890.3633 553.5616 882.5393 567.8683 882.5393 569.2096 881.9804 579.9396 879.4097 592.6815 879.1861 604.1939 885.3336 612.8003 890.5868 616.9359 891.7045 620.4008 891.481 624.6481 892.3751 631.4661 896.9578 640.6314 897.9637 645.4375 895.2812 649.573 890.475 651.9202 879.4097 655.2734 874.38 657.5088 841.631 677.9629 825.2007 688.2459 776.5802 720.2124 749.7551 731.3895 722.1476 737.3134 684.5925 751.6201 670.5094 751.6201 650.2788 743.6844 643.2372 742.902 636.4191 744.5785 618.3122 755.4204 608.0293 759.1088 587.9105 756.2028 577.851 757.7675 569.58 765.1444 566.0033 771.8507 558.9617 785.2633 552.3672 791.8578 548.567 794.7638 543.3138 802.3642 540.4077 805.2703 536.3839 807.0586 524.2009 808.847 516.4887 811.9766 507.7705 817.3416 501.2878 824.6067 500.3936 833.6602 504.9762 840.1429 511.1237 843.049 516.0416 847.2963 517.1593 858.3616 514.1415 868.7563 508.6647 875.3508 473.2332 903.4054 469.8801 909.2175 470.7743 913.0177 475.6922 921.5123 477.0334 926.3185 476.4746 930.2305 469.433 952.8083 467.98 955.7143 464.6268 960.1851 461.3855 962.9794 457.8088 964.9913 454.3439 967.4503 451.6614 972.0329 449.2024 981.757 449.5377 989.6927 450.5437 997.405 450.4319 1006.9055 440.3725 1002.4347 391.0814 998.1873 382.3633 995.2813 373.9804 991.1458 370.0684 987.9044 366.7153 984.663 363.2504 981.8688 358.3325 980.1922 354.7558 980.751 346.7083 984.7748 342.5727 985.4454 325.0246 983.0982 310.4944 978.5156 297.976 970.4681 275.3982 944.649 249.9144 925.2008 247.3437 921.0652 246.673 916.7062 246.4495 912.3471 244.9965 908.0998 235.0488 893.7931 224.0953 883.063 222.754 878.2569 221.1892 872.8919 205.9883 865.8503 199.3938 860.2617 194.923 852.9966 191.7934 841.1488 188.7756 837.9075 182.0693 837.9075 173.2394 841.5959 170.3333 842.043 166.086 841.3724 157.7032 839.0252 157.4796 838.9134 152.897 838.3546 153.5677 830.8659 144.2906 804.8232 143.5083 790.9636 152.6735 768.274 158.9327 761.7913 159.268 757.0969 155.356 753.8556 148.985 752.0672 139.708 752.0672 134.4548 753.2967 130.6546 751.7319 125.5131 743.6844 122.7188 736.8663 117.0185 714.065 111.0946 704.3409 91.0876 687.3517 83.04 677.8512 71.6394 650.3554 37.1021 567.8683 33.5254 560.715 21.3424 542.2727 15.7538 537.3548 10.277 534.2252 4.3531 529.419 1 527.7425 6.0297 515.7829 6.2532 508.0707 9.3828 503.5999 13.8537 503.5999 17.7657 509.3002 20.56 505.6118 23.8013 497.8996 26.0367 495.8877 30.1723 495.7759 31.4018 498.2349 32.5195 501.2527 35.8726 502.7057 37.7727 501.3645 51.297 487.0578 53.5325 485.493 65.3802 480.6868 77.5633 479.4573 81.8106 477.8925 89.2992 473.757 101.0352 471.298 109.8651 467.4978 123.5012 459.4503 125.4013 457.4384 126.2955 456.4325 129.0898 452.1851 131.2134 447.1554 131.9958 441.6787 134.2312 439.8903 144.0671 440.3374 146.3025 438.3255 148.0909 429.7191 152.6735 422.2305 169.998 403.1176 172.7923 401.1057 174.4689 398.1997 175.0277 392.0523 173.7982 388.3638 171.3393 385.346 169.6627 382.5517 170.6686 379.3103 174.4689 376.1807 178.2691 374.9513 182.1811 372.8276 186.2048 367.2391 187.2108 362.9917 187.9932 351.8146 189.3344 347.9026 196.2642 343.5436 213.2535 337.955 216.7184 336.8373 220.8539 333.2606 220.1833 327.6721 217.6125 316.6067 217.7243 312.0241 220.5186 307.7768 224.7659 305.2061 229.0132 303.5295 232.031 301.8529 255.9501 272.4571 265.4506 254.6855 264.8917 252.003 263.4387 243.173 266.233 239.9317 269.1391 243.173 271.1509 242.3906 275.0629 240.3788 277.6337 239.9317 274.057 235.1255 268.8037 229.7605 266.9036 225.4014 273.4981 223.6131 278.7514 221.2659 283.8928 215.6773 291.9404 204.0531 293.5052 203.4943 295.5171 204.0531 297.1936 204.2767 297.8642 202.2648 297.8642 198.7999 298.3113 197.2351 299.3173 195.7821 300.2114 193.2113 300.6585 189.2993 300.6585 182.7048 304.1234 178.9046 310.7179 176.6692 315.1888 172.9807 312.0592 164.9332 359.6737 168.1746 370.7391 163.1449 374.651 155.9915 377.3336 148.3911 380.6867 142.1319 386.7223 138.667 394.6581 139.5612 399.576 144.1438 403.488 149.1735 408.1824 151.6325 419.4713 151.6325 423.2715 150.5147 423.7186 147.7205 423.6068 144.032 425.3952 140.2318 441.1549 119.107 459.7089 99.2118 461.0502 96.5293 472.5626 79.4283 478.1512 72.4985 482.2867 66.6864 486.0869 68.1394 508.6647 65.7922 513.9179 65.3451 522.3008 69.0336 531.9131 70.0395 541.5254 68.81 550.02 65.5686 558.0675 58.1917 569.3564 38.7436 577.404 30.5843 586.0103 27.0076 644.1314 23.0956 652.4024 21.0837 676.2097 4.8769 682.3571 4.0945 690.2928 9.9066 695.8814 16.6129 699.6816 24.5486 702.1406 33.8256 705.1584 53.3856 709.6293 60.0919 728.0715 60.5389 734.3307 65.7922 746.402 88.7053 749.8669 91.3878 762.9441 93.735 763.1677 93.8468 769.7622 96.3057 776.1331 100.2177 776.2449 100.3295 781.9452 105.3592 787.3102 111.8419 804.0759 141.573 827.1008 165.1568Z" />
</svg>