<?xml version="1.0" encoding="utf-8"?>
<svg xmlns="http://www.w3.org/2000/svg" viewBox="0 0 1021 783" style="stroke-width:0.25px;stroke-linejoin:round;stroke:#444;fill:#ddd" fill-rule="evenodd">
  <path class="LT" d="M981.345 244.6886L983.0216 251.9537 983.6922 260.2248 983.2451 268.2723 981.5685 274.9785 978.2154 280.3436 973.9681 285.2615 970.615 290.8501 969.8326 298.227 973.0739 304.5979 972.5151 308.1746 966.3677 314.322 964.9146 317.7869 962.6792 329.0758 961.4497 331.9818 957.3142 339.6941 955.6376 345.2826 956.42 348.524 959.1025 350.4241 969.3855 354.2243 972.4033 354.4479 982.798 351.5418 1011.5232 356.6833 1015.4352 359.7011 1017 364.8426 1015.0999 369.6487 1010.9644 372.8901 1006.4935 374.1196 999.7872 375.9079 997.1047 377.4727 992.1868 382.3906 989.5043 386.1909 988.163 389.4322 987.0453 397.8151 985.1452 406.645 982.4627 411.0041 978.6625 411.6747 960.4438 403.5154 957.9848 403.7389 956.5318 405.3037 955.5259 407.0921 954.4081 408.2098 952.7316 408.7686 951.2785 408.7686 932.0539 403.8507 924.3417 405.192 918.8649 413.7983 918.4178 417.2633 918.5296 424.7519 918.3061 428.3286 917.4119 430.8993 911.0409 444.8707 908.0231 449.5651 905.1171 453.9242 902.5463 456.8303 896.2871 460.4069 875.2741 464.766 872.1446 464.6542 865.7736 463.2012 862.644 463.0894 856.1613 465.8837 854.1494 467.6721 853.4788 469.9075 853.1435 472.7018 852.0257 475.7196 848.4491 479.9669 844.4253 483.0965 840.9604 486.6732 839.1721 492.3735 839.5074 495.056 840.9604 501.0916 841.0722 503.5506 840.2898 506.0096 839.3956 506.5684 838.2779 506.6802 836.4895 507.5744 832.8011 510.9275 830.901 513.61 830.3421 517.6338 831.0128 532.9464 830.6774 535.9642 830.0068 539.2056 829.1127 541.8881 828.3303 544.9059 828.2185 548.7062 829.3362 554.5183 833.5835 565.1365 834.5894 570.9486 833.6953 576.8725 831.2363 581.5669 827.9949 584.92 817.3767 591.1792 814.8059 594.7559 812.9058 600.7915 812.1234 608.6155 812.2352 614.8747 811.5646 620.575 808.5468 627.0578 800.611 636.6701 797.3696 643.041 797.0343 650.5297 799.4933 654.3299 803.1817 655.7829 810.6704 655.2241 821.0651 649.7473 823.6359 649.0767 825.9831 650.5297 826.989 652.8769 827.5479 655.7829 829.3362 661.0362 830.0068 662.1539 830.7892 662.3774 832.6893 661.7068 833.4717 661.8186 835.1483 663.7187 836.7131 665.8424 838.0543 668.5249 839.1721 671.878 839.9545 672.7722 840.8486 673.1075 841.7428 673.7781 842.1899 675.5664 841.7428 676.9077 839.7309 679.702 839.1721 681.0432 838.9485 694.5675 837.6073 699.1502 833.5835 702.168 831.5716 702.5033 825.0889 701.6091 823.1888 702.5033 820.5063 706.3035 818.7179 707.3095 814.9177 707.4212 799.6051 704.9623 794.9107 702.6151 790.9987 698.8149 789.6574 693.5616 790.9987 691.5497 795.9166 689.7614 797.1461 687.6377 796.1402 685.067 792.0046 682.8316 792.4517 679.9255 795.9166 677.8019 800.0521 678.1372 801.5052 677.0195 789.3221 660.3656 788.4279 658.689 787.3102 657.5713 785.0748 657.0124 780.7157 659.1361 773.7859 669.419 769.6504 672.1015 755.4554 672.8839 744.3901 668.9719 741.3723 669.5308 739.1369 673.4428 735.5602 687.3024 732.7659 693.4498 725.6125 701.3856 718.1239 706.3035 710.4117 707.6448 696.7756 702.2798 688.7281 701.162 680.7923 702.0562 679.8981 702.6151 674.8684 705.6329 674.086 707.533 674.086 709.7684 674.3096 711.6685 674.1978 712.7862 670.9564 714.9099 669.5034 716.81 668.3857 716.9218 668.0504 717.9277 668.8328 722.3986 670.9564 728.7695 673.1919 733.7992 674.7567 739.3878 674.4213 747.4353 674.4213 747.5471 672.1859 752.5768 669.1681 754.2534 657.8792 756.0417 654.7496 755.8182 652.1789 753.2474 649.9435 747.5471 649.3846 747.1 648.714 746.9882 648.0433 747.1 643.9078 750.2296 632.8425 752.465 624.1243 757.4947 604.3408 775.3781 598.0816 778.5077 591.8224 778.5077 586.3457 776.8311 580.5336 777.0547 577.1804 776.384 575.3921 773.5898 572.3743 765.2069 567.5681 759.2831 562.0913 757.3829 556.391 758.3889 545.6609 764.201 540.6312 765.654 529.5659 765.7658 526.6598 765.0952 521.6301 761.742 518.8359 760.6243 516.2651 761.1832 503.0761 768.7836 501.7349 769.0072 500.2818 768.5601 497.1523 766.66 495.9228 766.4364 493.2403 767.5541 490.3342 769.7895 479.4924 771.2426 470.9978 774.931 468.3153 775.1546 465.2975 774.1486 449.7613 764.6481 443.8374 763.0833 444.508 761.4067 444.6198 759.8419 444.1727 758.3889 443.055 757.0476 441.2667 755.4828 439.9254 753.3592 439.143 750.6767 439.2548 747.5471 440.0372 746.2058 441.0431 745.0881 443.055 743.2998 445.7375 738.8289 445.6257 732.1227 443.055 718.3748 441.8255 712.1156 439.9254 705.5211 437.4664 699.5972 434.6722 695.3499 432.9956 694.4558 429.3072 693.4498 427.5188 692.2204 425.954 689.8732 422.8244 683.8375 421.1479 681.2668 417.9065 678.5843 414.4416 675.5664 400.582 670.3132 393.9875 666.1777 383.2574 657.236 380.1278 655.6712 376.5512 656.4536 372.4156 658.2419 368.5036 658.2419 365.374 653.8828 365.374 650.7532 366.38 647.4001 367.0506 644.6058 365.9329 642.9293 360.009 642.2586 358.1089 640.9174 356.9912 639.0173 356.2088 636.6701 355.2029 634.3229 353.4145 632.4228 351.6262 632.0875 347.7142 632.8699 345.8141 632.6463 335.4194 627.2813 331.7309 626.7224 327.4836 628.8461 327.2601 629.1814 322.7892 637.3407 319.5479 640.0232 309.1531 621.4692 304.5705 611.1862 303.5646 599.562 304.7941 576.4254 308.5943 562.2305 309.3767 556.8655 309.1531 553.6241 308.0354 546.8061 308.1472 543.6765 308.8178 541.6646 312.618 535.9642 312.7298 534.8465 312.2827 533.5053 311.9474 532.0523 312.2827 530.5992 312.8416 530.0404 314.2946 529.7051 316.0829 528.1403 319.2125 526.4637 320.5538 524.8989 322.901 520.8751 328.266 516.8514 330.9485 514.0571 333.1839 508.8039 333.631 503.4388 332.9604 497.962 330.2779 485.779 328.9366 481.9788 326.813 479.5198 316.4183 474.6019 315.077 472.2547 316.9771 468.2309 314.6299 467.3367 312.9534 465.4366 311.7239 463.4248 310.6062 462.1953 309.0414 461.6364 299.3173 461.6364 296.4112 460.1834 294.3993 456.4949 292.1639 449.7887 289.2579 436.1526 287.3578 430.1169 285.6812 428.2168 284.6752 426.9873 280.4279 424.6402 262.321 430.0052 233.5958 426.5403 230.3545 426.0932 211.5769 431.0111 209.3415 433.3583 207.4414 436.0408 204.2 438.4998 200.1762 438.8351 195.5936 437.3821 191.6816 434.1407 190.1168 429.111 190.1168 424.1931 189.558 420.8399 187.5461 419.2751 183.0752 419.7222 178.4926 423.1871 177.0396 423.8578 175.363 423.1871 171.1157 420.3928 164.9683 418.8281 161.6152 416.5926 155.8031 411.4512 143.8436 408.8804 140.8257 406.3097 137.8079 402.3977 125.6249 392.7854 118.5833 389.3205 101.147 388.7616 94.8878 383.6201 84.1578 365.0661 78.7927 359.7011 74.4337 360.3717 60.2387 372.3312 60.4623 370.7664 59.6799 363.8366 59.6799 361.6012 60.7976 360.3717 62.0271 360.8188 63.3683 360.5953 64.3743 357.5774 64.0389 355.1185 62.8095 351.5418 61.3564 348.4122 60.2387 347.071 58.8975 345.7297 58.3386 342.4883 58.4504 335.6703 56.662 335.335 46.6026 344.9473 45.7085 342.7119 45.7085 342.0413 46.1556 341.7059 52.7501 326.5051 54.2031 324.1579 56.8856 320.8047 56.9974 313.4278 54.8737 301.133 52.7501 291.9678 52.5265 289.6206 51.7441 288.6146 50.1793 286.7145 48.5028 284.2556 47.7204 281.3495 47.9439 277.6611 48.1674 275.2021 48.2792 272.9667 47.7204 269.8371 41.2376 252.4008 40.0081 247.0358 39.4493 241.3354 38.3316 238.2058 31.1782 225.6875 29.5017 223.7873 27.9369 222.7814 26.8191 220.7695 26.0367 213.1691 24.4719 207.1334 21.6777 181.2025 21.6777 167.5664 22.1248 164.2133 23.6895 159.966 24.1366 157.06 24.1366 130.5702 23.2425 119.7284 29.837 118.0518 40.0081 117.94 46.938 116.0399 49.5087 110.1161 50.7382 101.6215 53.756 91.562 58.1151 84.744 64.2625 78.0377 70.6334 72.5609 75.9985 69.8784 83.8224 69.4314 86.505 68.5372 110.6475 49.8714 117.0185 46.63 132.3311 45.8476 180.9516 22.9345 183.9694 21.4815 203.1941 12.4281 211.018 12.9869 214.2594 14.6635 220.6304 19.4696 224.0953 20.8109 275.3982 19.1343 286.4636 21.7051 286.9107 21.9286 291.4933 24.3876 299.2055 32.4351 302.1116 33.7763 304.7941 33.3293 329.1602 23.1581 335.5311 18.799 340.6726 15.2223 346.82 14.1046 352.4086 17.2342 356.6559 26.1759 362.6915 41.6003 370.6273 47.7477 379.3454 45.6241 387.9518 36.2353 386.4988 32.9939 389.6284 30.9821 409.7472 26.2877 413.5474 27.0701 425.1716 31.988 443.055 39.7002 449.3142 40.1473 459.7089 33.8881 465.2975 32.2116 477.3688 32.8822 482.0631 32.0998 483.5162 32.5469 484.9692 34.7823 485.1927 37.0177 484.9692 39.0296 485.1927 40.0355 490.5578 40.9297 502.5173 38.1354 508.2176 38.359 510.453 39.0296 529.5659 45.177 545.7727 58.0307 551.5848 61.2721 556.7263 62.278 557.0616 62.278 561.6442 61.3838 582.5454 50.4303 587.7987 49.5361 593.3872 51.6597 604.4526 59.819 610.0411 61.3838 615.965 58.7013 625.9127 52.8892 629.2658 49.5361 643.2372 30.3114 650.0552 24.9464 656.4262 22.1521 672.0741 15.2223 673.7507 15.1106 677.5509 16.5636 679.004 16.34 680.1217 13.5458 680.3452 10.0809 681.0158 6.7277 683.363 4.4923 687.0515 5.7218 690.1811 10.975 694.6519 24.164 699.1228 43.0534 701.0229 48.8655 702.8112 51.995 708.5116 58.4778 710.1881 61.4956 713.3177 71.4432 718.3474 80.832 724.6066 85.4146 766.0737 92.6798 784.2924 95.8094 796.0284 93.6857 804.7465 97.8212 807.6526 98.4919 818.0473 97.5977 820.171 98.6036 821.4004 101.2861 824.6418 111.6809 826.0948 114.9222 828.2185 117.0459 838.1661 123.9757 843.1958 129.7878 856.3848 144.6534 871.921 155.0481 881.6451 161.5308 892.3751 173.6021 909.4761 188.5794 913.8352 195.3975 917.859 204.7862 926.9124 221.3284 937.7542 229.5994 961.785 241.2237 971.5091 243.9062 981.345 244.6886ZM12.1771 364.8426L1 361.9365 13.9655 339.3587 21.1188 321.3636 28.2722 296.5504 30.0605 270.843 31.1782 265.5898 30.284 264.1367 31.1782 261.2307 29.7252 255.0833 30.1723 235.9704 28.7193 227.5876 34.3078 234.6292 36.7668 248.2652 37.1021 274.9785 36.655 278.7788 35.0902 283.9202 34.7549 287.4969 34.7549 299.0094 32.743 304.0391 30.0605 309.0688 29.0546 313.7631 32.4077 317.8987 32.4077 319.7988 29.837 323.0402 26.7074 328.7405 23.9131 335.5585 22.7954 341.8177 20.56 347.9651 12.0653 359.3658 12.1771 364.8426Z" />
</svg>