<?xml version="1.0" encoding="utf-8"?>
<svg xmlns="http://www.w3.org/2000/svg" viewBox="0 0 1021 626" style="stroke-width:0.25px;stroke-linejoin:round;stroke:#444;fill:#ddd" fill-rule="evenodd">
  <path class="LV" d="M895.84 148.0816L920.4297 147.8581 919.6473 157.3586 920.0944 163.5061 918.5296 168.8711 918.0825 173.4537 921.5474 177.2539 936.3012 184.1837 943.7899 192.6783 945.69 194.802 959.8849 203.7437 962.4557 206.0909 964.244 209.7793 965.0264 215.815 964.3558 230.3452 963.3498 238.281 962.0086 243.8695 957.7613 247.8933 944.684 254.2642 942.0015 258.1762 944.0134 262.8706 947.5901 264.7707 950.9432 267.3415 951.6139 273.936 950.9432 276.7303 948.7078 282.3188 947.8136 285.2249 947.4783 287.7956 947.143 292.9371 946.6959 295.8431 937.3072 315.8502 934.5129 324.9036 936.7483 325.4625 939.0955 326.1331 950.7197 319.6504 956.6436 317.9738 962.9028 319.7622 965.9206 322.3329 971.3974 328.5921 974.527 331.051 975.1976 334.7395 972.6268 340.5516 969.2737 346.5872 967.7089 350.8345 970.1679 355.3054 983.9157 365.1413 985.3688 369.3886 985.4805 380.901 986.2629 386.266 988.163 390.4015 990.622 393.1958 1001.7991 398.6726 1004.2581 400.5727 1005.1523 403.5905 1004.1463 405.826 1000.4579 409.2909 999.6755 412.3087 1000.1226 414.7677 1001.2403 417.0031 1008.5054 426.3919 1009.6231 428.4037 1010.0702 431.198 1009.6231 439.9162 1010.0702 445.7283 1011.0761 450.758 1016.6647 468.0825 1017 470.765 1016.7765 474.4535 1015.9941 476.4653 1014.7646 478.0301 1013.6469 480.7127 1012.4174 486.7483 1011.635 492.6722 1010.2937 498.2607 1007.4994 503.0669 1002.1344 499.4902 996.2106 501.8374 993.7516 503.514 989.9514 506.3083 983.9157 509.2143 978.1036 510.4438 976.3153 511.4497 974.1916 513.6851 972.7386 516.4794 971.5091 519.4972 969.8326 522.8504 960.332 530.2273 955.9729 534.6981 955.3023 540.7338 950.7197 548.8931 936.8601 558.1701 932.9481 569.2354 931.9421 581.1949 930.7127 586.4482 929.4832 590.2484 925.5712 590.8073 907.9113 589.1307 903.3287 587.7894 898.9696 585.1069 895.393 581.0832 892.5987 584.4363 886.0042 590.919 883.3217 592.0367 879.4097 589.9131 870.6915 582.4244 867.6737 580.7479 861.9734 579.8537 843.7547 582.2009 843.5311 582.3127 840.5133 584.2128 832.4658 594.1604 824.4183 608.9142 821.624 612.2673 810.4469 618.0794 807.2055 618.303 799.7168 615.2851 795.9166 614.8381 792.5635 616.7382 789.5457 621.9914 781.6099 621.3208 773.6741 619.1971 754.226 609.6966 745.396 602.9903 738.0191 589.5778 734.7778 581.9773 731.3129 576.5006 717.3415 564.3175 708.7351 554.5934 700.7993 549.2284 688.1692 540.8455 677.5509 528.7743 673.5272 524.1916 665.3679 518.4913 663.6913 516.8147 662.4618 514.1322 659.8911 505.7494 658.8851 503.514 657.0968 502.7316 648.8257 503.4022 646.3668 502.9551 639.3252 499.4902 629.8246 501.2785 614.9591 498.7078 581.316 492.8957 576.2862 489.0955 572.2625 481.495 569.6917 473.4475 568.3505 470.9886 563.6561 465.7353 562.3149 463.1646 560.7501 458.4702 557.1734 443.1575 553.4849 432.5393 550.9142 428.292 548.0081 427.286 545.9963 429.0744 545.5492 431.7569 545.3256 434.5512 544.4315 436.7866 543.3138 437.0101 540.1842 435.7806 538.8429 435.8924 526.101 441.5927 520.9595 443.8282 515.4827 448.1872 504.0821 463.7234 501.3996 466.5177 493.352 471.2121 488.5459 473.3358 483.9633 472.1063 475.0216 465.5118 470.5507 463.7234 466.1916 464.5058 449.3142 473.3358 445.514 474.1182 445.4022 474.1182 441.1549 473.3358 436.4605 470.6532 423.2715 460.2585 407.8471 455.2288 405.947 454.67 401.3644 454.5582 391.6403 456.7936 387.2812 456.123 387.1694 455.2288 387.2812 453.664 387.1694 451.7639 385.9399 449.9756 384.8222 449.6403 380.9102 450.1991 371.1861 449.752 366.7153 451.0933 358.2207 456.123 353.191 455.7877 338.6607 449.5285 329.2719 445.5047 326.1424 444.8341 309.9355 448.7461 307.3648 450.3109 308.4825 452.9934 301.5527 460.5938 294.3993 462.2704 288.0284 457.3525 283.1105 444.8341 279.6455 437.569 275.1747 434.9982 270.145 435.8924 266.0095 438.7985 260.868 442.3751 241.0845 450.6462 238.9608 450.9815 236.5019 449.9756 230.3545 443.3811 226.5542 441.3692 226.2189 441.1457 217.2772 439.1338 175.6983 440.475 172.9041 439.3573 167.6508 435.4453 165.0801 434.1041 158.7091 433.657 143.1729 441.0339 140.714 442.1516 101.2587 460.8174 88.8521 461.3762 83.7107 464.0587 64.1507 479.1479 61.9153 479.9303 55.5443 480.2656 51.297 482.501 46.0438 486.8601 41.1259 492.3369 37.5492 497.8136 35.202 505.9729 34.0843 512.9028 32.0724 517.7089 26.3721 519.2737 18.101 519.2737 12.8477 520.615 12.8477 520.5032 12.736 519.3855 11.3947 510.1085 9.3828 501.8374 3.1237 485.9659 1.6706 480.4891 1 475.1241 1.3353 473.5593 2.5648 468.6414 2.9001 465.7353 2.9001 462.941 2.7883 460.7056 1.3353 450.758 1 445.7283 1.2235 440.8103 2.453 437.0101 4.3531 433.5452 5.1355 431.5333 5.8062 429.2979 6.1415 426.3919 6.1415 421.4739 6.8121 418.9032 5.8062 414.5441 5.4708 409.9615 6.2532 407.6143 8.7122 410.0733 9.6064 412.644 10.3888 419.3503 11.6183 422.3681 9.6064 425.833 10.6123 426.7272 11.6183 427.3978 11.6183 430.9745 11.6183 432.7628 9.6064 436.0042 12.8477 440.5868 13.9655 441.3692 15.1949 440.8103 16.2009 439.2455 16.5362 437.2337 14.9714 431.9804 14.7479 427.5096 14.8596 423.1505 15.4185 420.468 14.8596 418.6796 14.189 414.2088 13.5184 411.7498 12.736 409.8497 12.0653 408.732 9.6064 406.6084 8.0416 405.826 6.8121 405.6024 5.8062 405.0436 4.8002 403.0317 4.2414 400.2374 4.6884 399.1197 5.3591 398.002 6.8121 387.6073 11.8418 372.9652 13.5184 364.6942 14.5243 342.787 13.9655 337.7573 12.9595 333.1747 12.736 328.8156 14.5243 324.3448 26.0367 316.6326 27.378 314.2854 36.5432 308.585 39.114 305.9025 44.2554 297.9668 45.7085 296.2902 47.385 295.2843 51.4088 291.7076 55.8796 287.5721 59.0092 282.5424 61.6917 275.1655 63.3683 266.0002 63.4801 255.4937 63.033 252.8112 61.58 245.8814 61.9153 243.0871 63.1448 239.3987 63.4801 237.1633 63.1448 220.2858 63.4801 214.9208 64.3743 210.2264 66.1626 205.6438 68.398 202.1789 70.7452 200.7259 72.6453 198.6022 77.8986 184.6308 87.958 171.2183 103.3824 140.8165 107.6297 136.0103 113.5536 132.769 139.3727 130.9806 145.4084 129.0805 172.7923 114.1032 213.3652 91.8607 219.2891 89.9606 222.5305 89.7371 224.0953 89.1782 225.7718 88.0605 227.6719 87.2781 229.6838 87.7252 231.1369 88.6194 231.0251 88.9547 230.3545 89.6253 229.6838 91.5254 228.3426 101.3613 227.7837 112.2031 228.3426 117.4563 229.7956 121.2565 237.5078 132.8807 268.692 160.1529 278.7514 172.7831 290.152 182.8425 297.4172 186.978 302.2233 188.0957 304.0117 188.9899 304.347 191.0018 304.4587 193.5725 305.0176 196.1432 308.1472 202.5142 308.8178 203.7437 310.1591 207.991 311.2768 213.1325 312.3945 222.2977 313.5122 226.9921 315.6359 229.004 316.8653 231.4629 320.7773 255.382 322.2304 259.4057 324.2422 260.9705 326.7012 261.9765 333.4075 269.8004 345.0317 274.4948 356.9912 276.842 358.6678 278.295 365.5976 288.3545 366.8271 289.4722 367.7212 290.2546 374.3157 292.3782 383.1457 293.2724 407.0647 287.3485 415.6711 283.213 419.2477 281.4246 424.6128 276.842 427.1835 273.1536 428.9718 269.6887 430.8719 267.1179 436.3487 265.5531 441.7138 261.9765 455.4616 252.923 456.5793 249.2345 459.3736 246.3285 462.5032 244.2048 464.9622 243.3107 464.9622 240.5164 466.4152 238.7281 469.7683 236.2691 479.0453 225.4273 482.0631 218.1622 483.1809 207.7674 482.7338 195.8079 479.3806 163.2825 479.1571 153.5584 478.4865 147.8581 477.0334 145.2873 476.1393 142.1578 476.8099 135.3397 478.3747 125.6156 476.8099 110.303 476.0275 106.8381 469.8801 96.4433 467.8682 91.5254 467.8682 86.7193 466.4152 74.3127 465.9681 68.1652 466.4152 64.8121 467.4211 61.5707 468.7624 58.7765 474.9098 61.2354 478.9336 61.0119 482.1749 59.2235 483.7397 56.541 486.0869 50.2818 487.7635 48.27 493.352 45.2521 500.7289 38.4341 503.5232 37.8752 513.3591 38.7694 521.8537 37.7635 524.0891 36.0869 526.6598 28.71 528.6717 26.0275 533.0308 27.1452 536.7193 29.4924 540.4077 30.163 541.8607 28.71 544.7668 26.0275 548.2317 23.7921 558.9617 22.2273 562.5384 19.7683 570.9212 11.0502 572.9331 9.0383 575.9509 7.1382 579.3041 6.1322 585.7868 5.9087 589.4752 8.3677 591.3754 13.8444 592.7166 20.3272 594.3932 26.0275 596.4051 27.8158 598.6405 27.8158 603.1113 25.4686 605.9056 21.7802 605.0114 17.5329 600.9877 10.3795 601.2112 5.7969 602.9996 4.0086 605.5703 4.5674 608.0293 6.5793 609.0352 8.3677 610.7118 13.1738 611.6059 14.7386 612.8354 15.521 613.7296 15.2975 614.6238 14.8504 616.0768 14.7386 621.6653 17.8682 630.16 28.1512 635.6367 31.7278 640.6664 32.8455 642.0077 33.7397 643.2372 35.7516 643.4607 37.2046 643.4607 37.4282 643.5725 39.2165 644.3549 41.3402 647.2609 45.2521 650.3905 47.1523 653.6319 47.5993 657.2086 47.3758 664.6972 44.6933 666.262 44.2462 668.3857 44.2462 670.5094 47.9347 671.8506 53.2997 673.6389 58.5529 677.2156 62.0178 706.6114 64.5886 708.288 65.4827 709.2939 66.7122 709.741 69.2829 709.2939 70.8477 708.5116 72.4125 708.0645 74.7597 708.5116 80.2365 709.741 83.4779 725.1655 96.4433 729.8598 101.9201 743.1606 123.7155 747.855 129.4158 753.6671 133.5514 755.4554 134.3338 766.6326 139.1399 768.9798 141.4871 773.6741 148.1934 776.2449 151.2112 778.4803 150.7641 780.3804 149.0876 782.2805 147.9699 783.6218 148.3052 786.1925 150.2053 787.5338 150.6524 788.9868 149.9817 789.6574 148.4169 790.1045 146.5168 790.9987 144.7285 795.1342 141.04 799.7168 138.3575 804.4112 136.7927 815.253 137.4634 817.8238 136.681 820.618 134.1102 822.2946 130.4218 823.7476 126.6216 825.9831 123.2684 828.5538 122.0389 830.3421 123.3802 831.9069 125.2803 834.0306 125.6156 836.4895 125.0568 838.9485 125.1685 843.7547 126.8451 847.1078 129.4158 852.2493 137.4634 855.0436 140.8165 858.3967 142.3813 869.6856 143.1637 891.2574 151.0994 895.84 148.0816Z" />
</svg>