<?xml version="1.0" encoding="utf-8"?>
<svg xmlns="http://www.w3.org/2000/svg" viewBox="0 0 1021 990" style="stroke-width:0.25px;stroke-linejoin:round;stroke:#444;fill:#ddd" fill-rule="evenodd">
  <path class="LY" d="M142.9494 4.3804L144.2906 4.7157 146.5261 5.4981 147.4202 6.1688 148.3144 8.0689 149.3204 8.963 151.3322 9.969 159.1562 11.1985 161.5034 12.0926 160.1622 10.6396 156.0266 9.2983 154.9089 7.8453 158.0385 9.6337 164.8565 11.8691 179.8339 21.4814 182.5164 24.2757 184.9754 24.9463 189.1109 27.7406 194.1406 30.1996 196.9349 30.982 221.4128 33.5527 227.4484 33.1056 243.4317 28.4112 246.1142 27.1817 248.1261 25.5052 249.2438 24.8345 250.6968 24.611 255.1677 24.3875 261.2033 25.5052 261.9857 25.8405 262.6563 26.5111 275.2865 33.2174 278.1925 33.9998 289.1461 33.5527 291.8286 33.888 297.3054 35.5646 302.2233 37.6882 313.9593 39.7001 314.6299 40.0354 315.7476 41.0414 316.1947 41.2649 317.2007 41.8238 319.5479 44.0592 323.0128 46.4064 328.6013 51.2125 331.5074 54.3421 332.8486 54.7892 343.1316 56.5776 344.2493 57.1364 345.1435 58.0306 347.9377 59.5954 349.279 60.0425 361.1267 60.4895 374.0922 62.9485 376.9982 63.9545 378.4513 64.178 379.3454 64.6251 381.6926 67.8664 384.0398 69.3195 384.934 70.1019 385.4928 72.8961 386.0517 74.4609 387.393 77.1435 390.0755 80.9437 390.5226 82.1732 390.4108 83.738 389.7402 86.4205 389.6284 89.4383 389.5166 91.2266 389.8519 96.8152 390.5226 99.4977 398.123 119.393 399.6878 122.1872 406.6176 132.0231 410.7531 136.4939 415.5593 140.1824 433.6662 148.677 453.785 152.2537 477.3688 152.4772 491.1166 155.495 505.088 160.413 516.0416 162.7602 518.277 162.7602 518.8359 162.9837 519.2829 163.319 521.6301 164.5485 523.4185 166.3369 524.0891 166.7839 524.7597 167.0075 534.1485 169.8018 539.0664 172.2607 544.5432 174.0491 549.1259 174.9432 550.02 175.7256 551.8084 178.2964 552.9261 179.4141 554.1556 180.0847 559.9677 181.3142 570.0271 185.2262 572.1507 186.4557 573.9391 188.1322 579.6394 194.8385 595.2873 206.4627 598.7523 210.4865 600.6524 212.2748 604.8997 214.5102 607.5822 215.0691 608.8117 215.7397 618.0887 221.7754 620.8829 223.0048 626.4715 223.7872 632.2836 223.899 638.2075 223.2284 641.5606 222.3342 644.5784 221.44 649.7199 218.8693 656.8733 214.1749 658.2145 213.5043 661.0088 213.0572 662.3501 212.2748 670.8447 205.6803 681.4629 192.8266 684.2572 187.9087 685.822 185.785 688.0574 183.8849 689.2869 182.7672 693.3107 174.0491 696.3285 165.778 696.6638 162.6484 696.3285 153.0361 695.099 151.0242 693.5342 146.1063 692.193 144.0944 689.3987 141.0766 688.281 139.5118 684.0337 127.3287 683.5866 124.1991 683.5866 120.846 683.363 119.6165 682.2453 116.8222 681.7982 115.3692 681.5747 112.3514 681.7982 108.8865 682.6924 102.5155 683.5866 99.7212 683.4748 98.9388 683.1395 98.1564 683.0277 97.374 683.363 96.5916 684.1454 95.4739 689.9575 83.0673 691.5223 80.8319 703.7054 68.4253 704.5996 66.8605 707.7292 63.1721 709.0704 62.3897 711.6411 61.2719 712.7589 60.266 713.5413 59.3718 722.93 51.8832 737.9074 45.4004 746.7373 39.3648 754.226 35.5646 757.132 34.8939 769.3151 35.6763 772.2211 35.4528 777.4744 33.9998 780.0451 32.5468 789.881 23.4933 790.8869 23.0462 793.9047 22.8227 796.8108 22.0403 798.5991 23.4933 801.3934 24.611 804.523 25.3934 807.0937 25.6169 821.1769 24.0521 821.4004 23.8286 822.0711 22.7109 822.4064 22.4873 823.8594 22.2638 824.53 22.152 825.3124 22.4873 825.7595 22.9344 825.8713 23.3815 825.8713 23.8286 826.2066 24.611 828.2185 26.7347 830.7892 27.2935 836.7131 27.1817 839.2838 28.0759 845.543 32.8821 846.7725 33.6645 847.8902 34.1116 849.0079 34.4469 852.0257 34.6704 867.0031 39.253 870.468 41.4884 871.5857 41.8238 872.3681 41.9355 874.4917 42.8297 875.2741 42.9415 877.5096 42.8297 878.9626 43.2768 881.6451 44.7298 884.5512 45.1769 885.7806 45.624 886.563 46.4064 886.7866 47.5241 886.3395 48.3065 885.2218 49.7595 884.9982 50.4301 885.6689 55.0128 886.2277 56.2422 887.2337 57.1364 888.5749 57.9188 888.0161 59.4836 887.2337 64.178 885.8924 63.7309 886.116 62.9485 886.0042 62.3897 885.5571 61.719 884.9982 61.1602 884.1041 67.3076 884.1041 68.8724 885.11 69.6548 889.022 71.2196 890.475 71.4431 891.481 72.1138 892.7105 73.5668 893.7164 75.2433 894.6106 77.4788 895.5047 78.0376 896.5107 78.2612 897.2931 78.7083 897.7402 79.6024 898.4108 81.279 898.9696 81.8378 898.8579 80.6084 898.1872 77.1435 899.4167 77.7023 902.211 77.7023 902.7699 77.9259 904.5582 79.4906 904.8935 79.7142 912.941 80.3848 921.8827 80.273 932.8363 82.8438 942.8957 87.0911 941.4427 88.5441 941.1074 89.103 941.6662 89.4383 943.3428 90.1089 947.3666 93.3503 948.8196 93.6856 961.0026 93.5738 977.9919 94.8033 983.804 93.015 985.1452 92.009 985.9276 91.6737 988.4983 92.2326 989.0572 92.009 989.5043 91.7855 989.9514 91.6737 990.5102 91.8972 990.7338 92.1208 991.5162 92.6796 992.4103 92.9032 993.7516 93.5738 995.7635 93.9091 998.446 94.9151 1005.8229 96.5916 1008.1701 97.9329 1009.176 100.5036 1008.6172 103.4097 1008.5054 105.0862 1008.9525 106.4275 1011.0761 108.8865 1014.541 113.9162 1014.8763 115.1457 1015.7705 117.2693 1017 119.5047 1016.7765 119.7283 1016.6647 120.0636 1012.7527 123.305 1010.9644 125.8757 1008.6172 132.2466 998.1107 140.7413 997.3283 143.2002 997.3283 145.8827 997.9989 152.1419 997.9989 158.2893 999.5637 166.3369 1000.0108 167.7899 1002.2462 172.4843 1003.0286 176.2845 1005.8229 182.3201 1006.7171 185.2262 1006.27 187.7969 1005.3758 190.3677 1004.5934 193.3855 1003.9228 197.521 1001.9109 202.5507 1001.6873 204.1155 1001.1285 206.5745 999.899 209.1452 996.0988 214.8455 994.1987 216.8574 992.5221 218.9811 991.8515 220.0988 990.8455 222.6695 988.163 227.4757 987.1571 230.0464 987.0453 232.8407 987.716 234.5173 989.5043 237.7586 994.9811 251.6183 995.3164 253.2948 995.2046 254.7479 994.0869 258.5481 994.534 261.6777 997.8871 267.1545 998.7813 270.284 998.7813 272.0724 998.2224 277.3256 998.3342 280.2317 999.0048 282.8024 1004.2581 295.6561 1005.3758 299.5681 1005.8229 303.8154 1005.8229 312.8689 1005.8229 325.1637 1005.8229 354.2242 1005.8229 382.9494 1005.8229 388.6497 1005.8229 414.1336 1005.8229 416.9278 1005.8229 427.8814 1005.8229 452.2475 1005.8229 458.6185 1005.8229 472.2546 1005.8229 486.226 1005.8229 507.1272 1005.8229 527.9166 1005.8229 548.7061 1005.8229 569.4955 1005.8229 590.1732 1005.8229 610.7391 1005.8229 631.305 1005.8229 651.8708 1005.8229 672.325 1005.8229 692.7791 1005.8229 713.1215 1005.8229 733.4638 1005.8229 753.8062 1005.8229 774.0367 1005.8229 794.2673 1005.8229 814.4979 1005.8229 823.1043 1005.8229 831.5989 1005.8229 840.2053 1005.8229 848.8117 1005.8229 857.418 1005.8229 865.9127 1005.8229 874.519 1005.8229 883.0136 1005.8229 891.62 1005.8229 900.1146 1005.8229 908.6092 1005.8229 917.2156 1005.8229 923.6983 1005.8229 930.1811 1005.8229 936.6638 1005.8229 943.1465 1005.8229 950.747 1005.8229 951.1941 1005.7111 951.3058 1005.7111 951.4176 1005.5993 951.5294 1005.3758 951.6411 1005.264 951.6411 1005.1523 951.6411 1005.0405 951.6411 998.5578 951.6411 989.169 951.6411 981.345 951.6411 973.4092 951.6411 964.8029 951.6411 957.6495 951.6411 952.1727 951.6411 941.778 951.6411 941.778 960.1358 941.778 968.6304 941.778 977.125 941.778 985.6196 933.954 981.484 926.0183 977.3485 918.0825 973.1012 910.1468 968.9657 902.3228 964.8301 894.387 960.6946 886.4513 956.5591 878.5155 952.4235 870.6915 948.288 862.7558 944.0407 854.82 939.9052 846.8843 935.7696 839.0603 931.6341 831.1245 927.3868 823.1888 923.2513 815.253 919.1157 807.429 914.8684 799.4933 910.7329 791.5575 906.5974 783.6218 902.3501 775.7978 898.2145 767.862 894.079 759.9263 889.8317 751.9905 885.6961 744.0548 881.5606 736.2308 877.3133 728.295 873.1778 720.3593 868.9305 712.5353 864.7949 704.5996 860.5476 696.6638 856.4121 688.7281 852.1648 680.7923 848.0293 672.9683 843.782 665.0326 839.5347 657.0968 835.3991 649.1611 831.1518 641.3371 827.0163 634.7426 823.5514 633.4013 822.769 625.4656 818.5217 617.5298 814.3861 609.7058 810.1388 601.7701 805.8915 593.8343 801.756 585.8986 797.5087 578.0746 793.2614 570.1388 789.0141 562.2031 784.7668 554.2673 780.6312 546.4433 776.3839 538.5076 772.1366 530.5718 767.8893 522.6361 763.642 514.8121 759.3947 506.8763 755.2592 498.9406 751.0119 491.0048 746.7646 483.1809 742.5173 475.2451 738.27 467.3094 734.0227 459.3736 729.7754 451.4378 725.5281 443.6139 721.2807 435.6781 717.0334 429.866 713.7921 428.5248 714.0156 425.7305 715.4686 422.042 717.257 418.3536 719.0453 414.5534 720.9454 410.9767 722.7338 407.1765 724.5221 403.488 726.3105 399.7996 728.2106 396.1111 729.9989 392.4227 731.7872 388.7342 733.6873 385.0458 735.4757 381.3573 737.264 377.6689 739.0524 373.9804 740.9525 370.292 742.7408 366.6035 744.5292 365.4858 745.088 365.4858 745.1998 354.5322 751.1237 343.5787 757.1593 332.6251 763.1949 321.6715 769.1188 317.536 771.3542 316.53 771.466 315.6359 771.0189 312.7298 768.4482 304.6823 761.2948 296.7465 754.1415 288.699 746.9881 280.6515 739.723 277.0748 736.5934 269.5861 732.3461 263.1034 730.7813 257.4031 729.3283 251.8145 727.987 246.1142 726.6458 240.5256 725.3045 234.8253 723.8515 229.2367 722.5102 223.5364 721.169 217.8361 719.716 212.2475 718.3747 206.5472 717.0334 200.9586 715.6922 195.2583 714.2392 189.6697 712.8979 183.9694 711.5567 178.3809 710.1036 172.6805 708.7624 167.7626 698.8147 163.2917 689.6495 156.1384 675.0075 156.0266 674.7839 151.444 665.3952 146.9732 656.3417 145.2966 654.1063 143.1729 652.9886 140.6022 652.0944 120.2598 645.3881 104.9472 640.2466 92.7641 636.2229 91.4229 635.9993 89.9699 636.1111 82.9283 638.6818 75.4396 641.4761 72.8689 641.8114 71.7512 641.2526 63.2565 634.5463 62.1388 633.2051 61.3564 630.7461 60.2387 624.1516 59.0092 622.2515 49.5087 616.6629 48.7263 614.7628 48.5028 605.0387 48.2792 594.9793 47.9439 585.7023 47.1615 581.2315 44.7025 576.6488 34.8667 563.0128 27.0427 551.9474 17.2068 538.1996 8.2651 525.5694 6.8121 521.6574 8.3769 518.3043 9.2711 517.1866 10.3888 514.2805 12.6242 512.2686 13.1831 511.1509 13.4066 509.9215 13.5184 508.5802 36.0961 497.7384 37.3256 496.2854 40.0081 487.1201 39.8964 485.5553 39.114 483.5435 39.3375 481.0845 40.9023 473.3723 40.6788 472.3663 39.6728 471.4722 36.7668 469.9074 36.0961 469.2367 35.4255 467.8955 34.196 460.4068 28.831 441.1822 28.831 439.9527 29.1663 438.835 30.1723 435.9289 31.0664 431.6816 31.9606 430.2286 34.6431 427.099 35.202 425.7578 34.5314 424.193 33.6372 422.6282 33.4136 421.0634 34.9784 419.9457 36.7668 418.9397 37.8845 417.4867 42.2436 403.0682 42.4671 402.5094 42.5789 399.6033 33.1901 374.7901 32.2959 370.5428 35.5373 344.9472 37.1021 332.7641 36.8785 318.9045 35.5373 307.7274 30.3958 290.0675 25.3661 272.4077 17.7657 258.101 9.6064 245.8062 6.2532 241.8942 2.453 237.3116 1 234.8526 15.8656 226.5815 30.1723 218.9811 32.0724 218.534 36.7668 218.1987 38.4433 217.1927 46.3791 206.9098 53.0854 195.9562 58.8975 189.2499 62.9212 181.0906 63.9272 178.0728 63.9272 175.5021 62.3624 170.2488 62.0271 167.6781 62.3624 164.7721 62.2506 163.4308 60.2387 159.0717 58.3386 151.2477 53.5325 138.3941 53.4207 137.0528 54.0913 132.2466 55.0972 130.4583 59.2328 125.8757 63.4801 118.2752 66.8332 115.5927 73.9866 115.7045 77.5633 114.2515 78.5692 113.4691 79.4634 112.4631 80.2458 111.3454 81.3635 108.7747 84.046 106.204 84.9402 103.6332 85.3872 97.5976 86.8403 96.1446 88.0697 96.2563 89.1875 96.927 90.4169 97.374 91.6464 97.0387 93.7701 95.2504 96.1173 93.7974 98.2409 91.6737 100.8117 85.7498 102.4882 83.8497 122.3835 74.3492 139.0374 66.3017 143.5083 63.2838 144.2906 62.5014 145.6319 61.2719 146.7496 58.9248 146.5261 55.6834 145.073 53.0009 140.8257 48.7536 139.4845 45.8475 139.3727 41.6002 140.3787 33.5527 139.9316 25.7287 141.0493 20.4755 141.0493 16.2282 141.2728 15.1105 143.0612 7.8453 142.9494 4.3804Z" />
</svg>