<?xml version="1.0" encoding="utf-8"?>
<svg xmlns="http://www.w3.org/2000/svg" viewBox="0 0 983 1024" style="stroke-width:0.25px;stroke-linejoin:round;stroke:#444;fill:#ddd" fill-rule="evenodd">
  <path class="MA" d="M1.0011 1020L1.1129 1018.4352 3.6836 1008.7111 3.9072 1005.8051 3.6836 1003.3461 3.7954 1001.7813 4.9131 999.993 5.0249 999.2106 5.1366 998.4282 5.1366 997.6458 4.9131 997.3105 4.1307 996.6398 3.9072 996.3045 4.2425 995.2986 4.466 993.3985 5.6955 990.6042 6.1426 987.9217 6.7014 986.3569 13.0724 973.2796 15.3078 970.9325 15.6431 970.2618 15.7549 969.9265 16.4255 968.3617 16.7608 967.9146 17.7668 967.244 18.1021 966.9087 19.108 964.5615 19.7787 963.6673 21.3435 963.1085 21.567 962.7732 22.0141 962.4378 22.6847 962.3261 23.2436 962.5496 23.6906 962.9967 24.3613 963.7791 31.1793 961.0966 32.297 960.0906 33.5265 958.5259 34.5325 956.9611 36.6561 949.2488 36.7679 948.1311 37.4385 947.3487 40.4563 944.2191 41.2387 943.325 42.0211 939.0777 42.1329 933.3773 42.4682 931.9243 43.1388 929.5771 43.6977 928.4594 44.9272 926.7828 44.9272 926.1122 44.7036 925.5534 44.5919 925.1063 44.5919 924.3239 44.7036 923.8768 45.2625 922.6473 45.3743 922.312 45.5978 922.0884 46.9391 921.8649 48.5039 921.5296 50.404 919.7413 52.5276 917.3941 53.0865 916.0528 53.5336 914.7116 53.7571 913.2585 53.7571 911.6937 53.31 910.1289 52.0805 909.9054 49.6216 910.576 50.0686 909.3465 51.0746 907.2229 51.6334 906.4405 54.5395 903.758 54.763 903.3109 59.3457 892.6926 60.0163 891.7985 60.6869 891.3514 61.4693 890.6807 64.2636 885.8746 65.046 881.4037 65.7166 880.1743 66.6108 878.833 68.8462 874.921 71.7523 871.4561 71.9758 871.1208 72.9817 870.3384 73.4288 869.8913 73.7641 869.2207 74.0994 867.7677 74.323 867.097 75.2172 865.5322 76.2231 864.3028 77.0055 863.0733 77.229 861.3967 77.4526 858.4906 77.229 857.2612 76.4466 855.6964 76.5584 855.3611 76.782 854.8022 76.1113 855.3611 75.9996 856.1435 76.1113 857.0376 75.9996 857.9318 75.5525 858.4906 73.9877 859.6084 73.4288 859.8319 72.6464 859.8319 72.0876 859.7201 71.5287 859.8319 70.5228 860.7261 69.8521 861.5085 69.5168 862.4026 68.5109 864.6381 67.7285 866.0911 67.6167 866.4264 67.505 867.3206 66.8343 868.6618 66.7226 869.2207 66.2755 870.0031 63.3694 872.6856 62.4752 871.9032 62.8106 870.7855 64.2636 869.2207 64.4871 868.2147 66.7226 863.9674 70.5228 858.7142 70.9699 857.5965 71.864 856.4788 72.7582 855.3611 77.229 851.5608 79.2409 850.7784 81.9234 849.2136 82.7058 848.4312 84.7177 848.2077 86.2825 847.09 87.6238 845.637 88.5179 844.1839 91.0887 841.2779 92.7652 838.7072 95.1124 836.9188 96.1184 836.0246 96.5655 834.7952 97.0125 834.0128 102.6011 829.3184 105.9542 825.7417 110.2015 819.259 111.7663 817.4706 113.7782 815.6823 114.8959 814.8999 116.1254 814.341 117.3549 813.8939 120.0374 813.4469 121.2669 812.7762 123.3905 811.0997 123.2788 809.5349 123.5023 809.1996 124.2847 807.6348 125.7377 805.8464 127.1908 804.6169 128.7556 803.7228 129.8733 802.8286 130.6557 801.4873 131.2145 797.1283 132.6675 793.1045 133.2264 789.9749 134.0088 788.0748 134.2323 787.1806 134.1206 786.0629 133.897 784.9452 133.897 783.9393 134.2323 782.9333 133.7853 782.4862 134.2323 781.4803 134.4559 780.4744 134.6794 779.3567 134.6794 778.2389 134.5677 777.233 134.0088 775.78 133.7853 774.8858 133.897 768.8502 133.4499 767.1736 135.3501 759.3496 135.7971 758.2319 137.5855 751.4139 140.3798 747.3901 141.1622 746.7195 141.721 746.0488 143.5094 741.6898 143.9564 738.5602 144.0682 738.2249 144.6271 736.9954 144.9624 734.8717 147.4213 728.6125 152.004 722.018 153.6805 719.0002 154.0158 718.1061 154.1276 716.7648 155.1336 713.747 155.6924 712.741 155.4689 711.7351 156.0277 707.8231 155.916 706.8172 155.2453 704.8053 155.4689 704.1347 155.916 703.3523 156.5866 701.3404 156.9219 700.558 160.3868 696.0871 160.9457 695.64 163.8517 695.0812 167.2048 693.2928 172.2345 688.2631 173.1287 687.1454 173.6876 685.916 174.3582 684.91 175.8112 684.2394 182.6293 683.5688 183.747 683.0099 190.1179 679.6568 201.1833 671.6092 208.6719 666.8031 212.2486 662.6675 215.9371 655.1789 217.2783 651.4904 218.396 646.0136 220.1844 641.9899 221.9727 633.2717 223.2022 630.701 228.2319 623.1006 228.2319 622.7652 227.7848 622.0946 227.7848 621.7593 228.679 621.3122 231.9204 613.4882 233.9322 606.4466 234.044 604.8818 234.3793 603.6524 235.6088 601.0816 235.7206 599.8521 235.7206 599.5168 236.1677 598.2873 236.8383 597.6167 238.6266 596.7226 240.6385 595.046 242.8739 594.2636 243.8799 593.1459 246.4506 588.8986 247.9036 583.8689 248.5743 582.4158 249.5802 581.4099 250.6979 580.7393 256.51 578.5039 267.5754 576.6037 276.4053 576.8273 287.3589 573.2506 304.0128 570.3446 304.7952 569.7857 306.1364 568.3327 306.36 568.2209 307.4777 567.8856 321.1138 561.8499 339.3325 553.9142 341.3443 552.2376 342.7974 550.3375 345.1446 546.3138 346.1505 545.196 347.2682 544.3019 348.1624 543.1842 348.4977 541.7311 349.0565 540.7252 352.745 538.1545 355.5393 534.5778 356.0981 533.5718 358.5571 532.007 359.116 531.4482 359.563 530.554 359.8983 530.1069 362.022 528.4304 362.2455 528.095 363.475 525.9714 365.1516 524.1831 366.1575 523.5124 383.5938 514.5707 387.7294 511.6647 392.7591 509.0939 395.1063 507.5292 402.5949 500.3758 408.9659 490.7635 410.5307 488.7516 411.7602 487.7457 414.1074 486.9633 415.0015 485.8455 416.4546 483.4983 418.0194 481.4865 418.69 480.257 419.0253 479.0275 419.3606 478.3569 421.4843 476.7921 421.8196 476.345 422.3784 474.892 424.8374 471.0917 425.2845 470.3094 425.3963 468.8563 425.7316 467.1798 426.2904 465.8385 426.9611 464.7208 429.8671 462.0383 430.3142 461.1441 430.7613 460.0264 433.2202 456.5615 441.156 447.9551 447.4152 436.778 451.3272 427.6128 451.886 424.9303 452.892 415.8768 454.1215 411.1824 454.2332 409.8411 454.0097 407.941 453.3391 406.9351 452.3331 406.3762 451.3272 405.2585 450.6565 404.029 449.0917 400.4524 448.5329 398.1052 448.0858 397.7699 447.4152 397.6581 446.6328 397.4345 446.0739 396.8757 444.9562 394.9756 440.5971 391.9578 439.3677 391.9578 437.9146 391.6224 437.0205 390.6165 437.1322 387.8222 438.4735 385.1397 440.0383 382.6807 441.156 380.3336 441.6031 378.7688 441.6031 377.8746 441.3795 377.204 440.9325 376.5333 440.9325 376.0862 441.156 375.5274 441.156 374.745 440.7089 360.6618 440.4854 359.4323 439.5912 356.8616 440.2618 355.185 441.9384 345.0139 442.0502 340.9901 441.8266 339.3135 441.156 338.4194 440.2618 337.7487 439.5912 336.7428 441.4913 334.2838 442.8326 331.8249 444.2856 327.4658 444.9562 326.4598 446.1857 325.4539 446.521 324.895 446.8563 323.6656 447.7505 322.6596 448.0858 321.8772 448.8682 320.6477 449.2035 319.9771 450.0977 314.2768 450.5448 313.1591 456.1333 307.0117 458.5923 303.5468 459.0394 302.9879 460.0453 302.3173 460.4924 301.7584 460.9395 301.0878 461.4983 299.8583 461.8337 299.2994 468.987 291.8108 469.7694 290.3578 470.2165 289.3518 470.8871 286.4458 470.9989 285.2163 471.3342 284.3221 473.5696 281.5278 474.352 279.516 474.9109 277.2805 475.2462 269.9036 474.9109 269.4565 473.7932 268.8977 473.5696 268.3388 473.6814 266.774 474.0167 265.6563 475.6933 262.415 476.1404 260.9619 476.2521 259.6207 475.8051 258.3912 475.2462 257.7206 474.6873 256.6029 474.352 255.4851 474.352 254.2557 475.4697 252.0202 484.5232 244.308 491.453 235.9252 497.3769 231.7897 499.5006 229.7778 506.4304 220.389 514.1426 211.8944 514.5897 211.0002 514.5897 210.1061 514.5897 208.5413 515.1485 207.5353 520.1782 201.6114 520.7371 201.2761 521.1842 201.3879 521.8548 202.0585 522.3019 202.2821 523.8667 202.1703 524.9844 201.835 527.2198 200.7173 529.4552 198.9289 533.0319 194.4581 535.1556 192.6697 537.7263 191.6638 546.1091 189.6519 551.9212 187.0812 554.8273 185.7399 557.7333 184.9575 559.1864 184.3987 560.5276 182.6103 562.0924 181.9397 566.2279 180.7102 568.5751 179.369 569.8046 179.1454 570.9223 178.5866 571.9283 177.2453 572.9342 176.3512 574.1637 176.6865 574.8343 176.2394 575.3932 176.2394 576.0638 176.5747 576.7344 176.6865 577.2933 176.4629 578.2992 175.7923 580.0876 175.3452 581.4288 174.8981 582.5465 174.2275 583.3289 173.5569 585.4526 170.8744 587.2409 170.092 588.9175 167.9683 590.147 167.5212 589.6999 168.0801 590.9294 168.5272 592.1589 168.0801 592.9413 167.633 597.4121 164.6152 599.7593 162.4915 601.9947 161.262 604.4537 160.3679 606.5773 160.0326 606.6891 160.0326 607.695 159.5855 609.5952 157.9089 611.8306 157.1265 618.2015 151.985 624.6843 144.8317 630.0493 135.7782 634.073 127.0601 640.7793 116.8889 641.4499 115.6594 642.4559 112.7534 643.9089 110.4062 657.0979 82.4634 662.3512 64.2447 673.5283 35.9666 673.8636 34.6253 673.9754 32.7252 674.1989 31.7193 675.5402 28.7014 676.7696 24.5659 676.8814 24.007 677.105 23.3364 677.8873 22.1069 678.1109 21.4363 678.4462 17.8596 678.8933 16.0713 679.4521 14.9536 680.5699 13.7241 682.6935 13.3888 688.3938 14.1712 689.0645 14.0594 690.741 12.3828 691.5234 11.824 692.6411 11.1534 693.7589 10.9298 694.5413 11.2651 695.5472 10.818 697.0002 10.7063 698.4532 11.1534 699.4592 11.824 703.1476 9.7003 704.1536 8.6944 706.389 6.2354 707.5067 5.1177 708.7362 4.5589 709.295 4.5589 709.5186 4.8942 710.301 5.2295 710.8598 5.2295 711.0834 4.6706 711.1952 4.1118 711.3069 4 711.754 4.1118 712.3129 5.7883 712.9835 7.3531 713.9894 8.6944 715.3307 9.9239 714.9954 11.0416 715.2189 12.9417 716.1131 16.8537 716.4484 19.9833 716.6719 20.8774 717.0073 21.6598 717.5661 22.1069 717.9014 22.2187 718.9074 22.1069 719.2427 22.1069 719.3545 22.554 719.2427 23.7835 719.2427 24.2306 720.2486 28.2543 720.9193 29.7074 722.1487 30.9369 724.7195 32.837 726.9549 34.8488 732.0964 42.3375 733.1023 43.0081 734.5553 43.3435 735.673 43.6788 736.9025 44.4612 738.9144 46.473 740.7028 48.8202 741.7087 50.0497 744.3912 50.9439 747.7443 54.0735 750.2033 55.5265 758.9215 58.209 767.0807 59.9974 767.0807 60.1091 774.3459 62.2328 776.1342 62.3446 777.3637 62.0092 780.8286 59.7738 789.3232 58.209 794.4647 55.8618 799.7179 54.8559 802.2887 53.6264 802.8475 54.4088 802.7358 54.7441 801.9534 55.0794 801.618 55.303 801.9534 55.7501 802.4004 56.3089 803.1828 57.5384 804.1888 57.9855 805.4183 58.0972 807.0948 58.209 808.2125 58.0972 810.3362 57.8737 811.7892 57.2031 812.3481 55.8618 812.7952 53.8499 814.1364 52.3969 815.7012 51.8381 817.3778 52.0616 818.4955 52.844 821.0662 55.1912 822.4075 56.0854 826.9901 56.8678 828.5549 57.7619 829.3373 57.7619 830.1197 57.7619 830.7903 57.7619 831.4609 57.9855 832.6904 58.5443 833.2493 58.7679 836.3789 58.9914 839.0614 58.4326 846.6618 55.7501 847.8913 54.9677 850.6856 51.9498 851.3562 51.5028 851.8033 51.6145 852.3622 51.8381 853.0328 52.1734 853.8152 52.0616 855.7153 50.0497 858.1743 44.1259 859.7391 41.7787 859.6273 40.9963 859.8508 40.3256 860.5215 40.1021 861.1921 40.5492 861.5274 41.108 861.1921 42.4493 861.4156 43.3435 860.8568 45.5789 861.6392 48.4849 861.7509 48.8202 860.5215 50.0497 860.745 52.1734 862.0862 53.5146 863.8746 52.844 864.7688 54.0735 864.2099 54.7441 863.8746 55.9736 863.8746 57.2031 864.0981 59.5503 864.3217 60.5562 864.8805 61.4504 865.7747 62.5681 867.3395 63.7976 869.4631 64.4682 873.934 64.9153 871.2515 62.6799 866.5571 57.3149 865.6629 55.7501 865.9982 55.0794 866.7806 55.7501 869.7985 58.9914 870.2455 59.7738 873.1516 62.9034 875.8341 64.3564 878.9637 65.4741 885.2229 66.3683 888.1289 66.1448 889.582 65.8095 890.5879 65.1388 891.8174 63.6858 893.0469 62.6799 894.2763 62.4563 900.0884 64.6917 901.4297 64.9153 902.8827 65.3624 904.5593 66.2565 906.1241 66.9272 906.2359 69.8332 906.7947 71.8451 907.9124 73.2981 909.7008 73.9688 912.048 75.6453 913.9481 77.4337 915.96 78.7749 918.7542 79.1102 919.5366 79.6691 919.7602 80.5633 919.8719 81.5692 920.0955 82.5751 920.9897 83.5811 924.231 85.593 926.2429 87.6048 932.7256 91.7404 933.8433 92.8581 933.6198 93.4169 932.8374 93.9758 931.3844 97.3289 928.143 102.3586 927.5842 103.5881 934.9611 111.1886 937.1965 111.8592 937.8671 112.3063 931.3844 120.242 933.7316 123.0363 935.2964 126.3894 939.6554 140.0255 939.7672 141.0315 939.9908 141.9256 939.7672 143.4904 936.9729 155.3382 936.7494 158.8031 937.3083 162.3798 937.9789 164.5034 937.8671 165.3976 937.42 166.4035 936.8612 167.1859 936.0788 167.8565 935.5199 168.6389 935.1846 169.7567 935.6317 170.8744 936.5259 171.545 938.6495 172.3274 939.7672 173.1098 940.4378 174.004 943.1204 180.5985 943.4557 183.0574 942.6733 185.0693 941.7791 186.4106 940.5496 190.5461 939.7672 192.3344 939.0966 194.2345 939.0966 201.3879 939.6554 203.8469 942.785 206.8647 943.9028 208.8766 944.6851 211.2238 945.9146 213.0121 947.5912 214.4651 949.3795 215.8064 950.3855 216.8123 950.7208 218.2653 950.7208 220.0537 950.4972 221.6185 950.3855 222.4009 950.1619 223.0715 949.8266 223.6304 949.3795 224.1892 946.697 225.9776 955.0799 239.949 956.98 241.6255 960.892 243.0785 977.993 256.3793 978.9989 257.9441 975.4222 261.9679 973.4103 263.5327 971.1749 264.4268 968.6042 264.8739 967.5982 265.321 966.5923 266.6623 966.0334 267.8917 965.1393 270.5743 964.2451 277.1688 964.0216 278.0629 964.1333 278.6218 964.0216 279.2924 963.5745 279.963 963.2392 280.4101 962.2332 281.1925 962.0097 281.6396 962.2332 282.8691 963.2392 282.8691 965.4746 281.9749 966.7041 281.9749 967.9336 282.3102 968.9395 283.2044 969.2748 284.6574 968.0453 287.2282 965.6981 287.8988 961.0037 287.6752 960.5567 287.5635 959.1036 287.5635 956.7564 287.4517 953.6268 287.3399 949.9384 287.1164 945.6911 286.8928 940.9967 286.6693 935.967 286.4458 930.7138 286.2222 925.3487 285.9987 919.9837 285.6634 914.7305 285.4398 909.589 285.2163 904.8946 284.9927 900.4238 284.7692 896.6235 284.5457 888.1289 284.2103 877.1754 287.2282 865.7747 288.2341 862.3098 290.246 866.5571 301.5349 869.1278 308.5765 858.3978 310.0295 845.097 314.0532 827.2136 317.2946 824.9782 317.5182 822.4075 316.9593 818.1602 319.0829 817.3778 337.637 812.7952 337.9723 809.442 340.4312 808.6596 341.4372 808.4361 342.6667 808.7714 348.1435 808.6596 349.7083 807.4301 351.9437 806.9831 353.3967 807.2066 354.6262 807.8772 355.2968 808.8832 355.2968 810.0009 354.8497 811.7892 353.1732 812.6834 352.6143 813.8011 352.9496 814.6953 353.8438 816.3718 356.5263 817.3778 357.644 819.6132 358.6499 820.3956 359.3206 820.9545 360.6618 821.178 361.8913 821.2898 363.3443 824.6429 368.7094 821.178 374.1861 818.1602 377.0922 818.6073 381.563 819.0543 386.1457 807.5419 392.0695 797.259 394.5285 787.8702 395.0873 780.6051 396.9875 774.5694 400.4524 767.7514 409.3941 759.145 416.3239 750.2033 420.3476 743.8323 423.8125 738.6909 427.7245 731.7611 433.6484 725.3901 438.1193 719.3545 444.4902 715.1072 452.873 709.5186 461.8147 703.1476 470.1976 697.112 472.0977 692.0823 470.1976 689.8469 463.7149 682.2464 464.7208 674.9813 466.1738 667.2691 466.1738 658.2156 466.1738 649.721 467.1798 640.6675 469.6387 632.1729 470.6447 627.0315 475.5626 616.3014 471.0917 609.4834 470.6447 604.789 471.0917 597.971 474.1096 592.3824 479.9217 585.4526 479.5864 584.1113 480.0334 582.7701 480.1452 581.4288 480.1452 578.7463 479.6981 575.8403 479.5864 573.8284 480.4805 570.0282 484.2807 569.134 485.0631 566.2279 486.6279 562.4277 490.0928 555.945 494.4519 550.3564 499.8169 548.3446 501.27 541.4147 504.3996 537.2792 507.1938 533.2554 511.1058 532.2495 511.6647 530.0141 512.6706 529.1199 513.453 526.9963 517.1415 526.2139 517.9239 523.4196 519.4887 520.7371 521.7241 512.9131 525.9714 511.6836 526.9773 511.013 528.3186 510.7894 530.2187 510.7894 533.3483 510.7894 537.5956 510.7894 541.7311 510.7894 545.8667 510.7894 550.0022 510.7894 554.2495 510.7894 558.385 510.7894 562.5206 510.7894 566.6561 510.7894 570.9034 510.7894 575.0389 510.7894 579.1745 510.7894 583.31 510.7894 587.4455 510.7894 591.5811 510.7894 595.7166 510.7894 599.8521 506.5421 599.8521 502.6301 599.8521 502.5184 600.0757 502.8537 603.2053 504.642 608.9056 505.3127 613.8235 504.4185 616.8414 503.5243 620.6416 503.8596 624.33 505.3127 628.242 506.5421 632.3776 506.5421 635.1718 503.9714 637.1837 498.2711 638.3014 491.3413 639.3074 486.3116 639.3074 478.7111 638.6367 474.0167 638.7485 469.8812 638.7485 466.1927 639.4191 461.6101 641.9899 456.5804 646.1254 450.2095 651.6022 446.4092 655.0671 441.3795 655.7377 436.3498 655.7377 431.4319 653.0552 428.3023 651.6022 426.1787 651.714 422.7138 653.7259 418.69 655.0671 414.8898 655.0671 408.5188 652.2728 400.9184 648.2491 396.5593 646.1254 390.1883 645.4548 383.9292 644.1135 379.4583 644.7842 373.758 644.7842 366.1575 647.5784 359.8983 649.5903 352.9685 651.6022 345.0328 653.5023 346.9329 659.6497 349.7272 663.0029 349.7272 667.1384 348.3859 670.6033 344.5857 674.0682 340.2266 678.4273 337.7677 681.7804 335.1969 686.5866 333.2968 689.2691 330.0554 693.7399 327.1494 699.3285 326.2552 702.7934 325.1375 706.8172 322.9021 707.9349 315.1899 709.0526 310.2719 710.3938 306.0246 711.7351 304.4598 714.0823 304.1245 714.5294 302.895 719.3355 302.895 722.6887 301.6656 725.3712 299.8772 732.1892 297.4183 738.3366 295.6299 746.4959 293.7298 753.2022 291.2708 764.044 288.8119 774.2152 285.7941 783.7157 283.3351 789.7514 281.5468 793.1045 277.1877 797.1283 273.611 799.8108 269.2519 803.2757 264.334 806.6288 257.6277 810.5408 252.1509 814.0057 249.9155 815.5705 247.233 817.3589 242.9857 822.0532 239.2972 828.7595 236.8383 834.1245 232.591 842.8427 229.4614 847.5371 227.673 850.2196 222.7551 852.9021 217.2783 854.914 211.1309 857.5965 206.213 860.279 199.5067 862.9615 195.2594 865.644 192.1298 869.556 189.6708 874.2504 186.653 880.9567 184.1941 888.3336 182.9646 893.0279 179.2761 909.0112 178.0466 918.2882 176.8172 924.2121 175.0288 931.589 173.7993 942.8779 173.7993 952.0431 172.5699 957.4081 172.011 961.4319 168.8814 966.0145 166.4224 969.2559 162.1751 973.9503 158.4867 976.521 157.2572 979.2035 153.5688 982.4449 149.9921 987.8099 146.8625 991.0513 147.5331 993.7338 148.092 998.3164 146.3036 1003.0108 144.4035 1008.264 139.5974 1014.7468 134.0088 1018.0999 126.073 1018.6587 115.1195 1018.6587 106.5131 1018.0999 96.1184 1018.0999 86.9531 1016.7586 78.3468 1015.4174 67.952 1014.7468 60.5751 1014.7468 51.4099 1016.088 27.6026 1016.088 18.4374 1016.7586 4.9131 1019.4411 1.0011 1020Z" />
</svg>