<?xml version="1.0" encoding="utf-8"?>
<svg xmlns="http://www.w3.org/2000/svg" viewBox="0 0 852 1024" style="stroke-width:0.25px;stroke-linejoin:round;stroke:#444;fill:#ddd" fill-rule="evenodd">
  <path class="ME" d="M29.0536 685.1336L29.7242 676.3036 27.4888 669.5974 19.8883 665.1265 16.4234 663.0029 10.8349 656.2966 6.1405 648.3608 3.0109 639.0838 2.6756 628.8009 5.1345 609.4645 3.0109 599.8521 7.5935 595.6048 12.6232 593.4812 17.6529 593.9283 22.6826 597.1696 27.1535 596.499 28.83 592.8106 27.8241 587.4455 24.8063 581.5217 33.6362 576.2684 38.2188 573.5859 47.6076 564.4207 49.5077 559.6145 52.5255 552.1259 52.6373 534.6895 48.1664 518.2592 40.566 508.4233 31.6243 499.1463 16.3117 474.1096 10.3878 459.6911 6.2523 445.2726 5.8052 434.8779 10.1642 428.1716 15.641 423.8125 18.8824 418.0004 16.4234 406.488 5.9169 385.3633 1.5579 373.292 1.3343 362.8972 9.8289 339.3135 23.1297 326.5716 47.8311 320.9831 73.9856 320.6477 91.869 323.1067 83.9332 277.1688 83.7097 261.5208 83.9332 260.2913 87.5099 241.9608 94.6633 226.6482 113.6644 199.9349 103.0461 194.6816 109.7524 184.8458 165.8615 143.3787 177.4857 139.6902 176.1444 137.2312 173.5737 131.6427 172.1207 129.1837 180.1682 125.2717 206.4344 122.8128 217.1645 125.9424 228.9004 134.2134 232.03 138.5725 232.3653 142.708 231.9183 147.0671 233.036 152.2086 236.948 158.9149 246.0014 170.6508 246.225 171.2097 247.5662 174.1157 252.1488 169.9802 255.6138 164.9505 258.408 159.5855 260.7552 156.3441 261.7612 155.0029 266.7909 152.2086 278.4151 151.6497 281.5447 148.8554 268.2439 123.5952 255.1667 87.046 239.9658 66.8154 236.8362 64.58 227.2239 67.0389 227.2239 63.9094 229.124 58.9914 229.3475 54.9677 223.5354 45.8024 220.2941 43.7905 213.476 41.8904 209.3405 38.7608 209.0052 33.6194 211.6877 28.5897 215.8232 25.5718 223.9825 21.5481 234.3772 9.8121 240.9717 5.0059 250.9194 4 257.0668 10.0356 261.8729 19.0891 267.685 26.3542 275.0619 28.925 284.4507 28.5897 293.1689 25.2365 304.9048 11.1534 315.8584 9.8121 336.8714 13.1652 328.0415 27.1366 328.265 44.6847 335.5301 60.668 347.0426 70.5039 407.399 97.8878 414.7759 103.2528 433.2182 130.9721 459.1491 158.356 464.5141 166.2917 472.0028 183.281 476.4736 190.099 492.1216 203.3998 493.0157 204.1822 506.6518 222.0656 514.2523 229.1072 523.3057 233.9133 542.8657 239.7254 552.3662 240.8431 557.9548 238.7195 561.5315 235.1428 565.1081 235.4781 577.9618 259.0618 586.0094 269.7919 595.0628 277.1688 605.3458 281.0807 619.9878 282.0867 634.9651 280.8572 639.9948 277.7276 650.2778 267.1094 654.5251 264.7622 660.0019 266.6623 663.2432 271.4684 665.814 277.7276 669.1671 283.5397 673.5262 288.0106 700.016 306.7881 715.2168 321.989 715.9992 322.7714 742.7125 349.3729 748.1893 351.273 753.219 352.9496 776.9145 355.2968 789.5447 360.7736 812.5695 377.5393 839.6182 391.2871 846.995 400.8994 847.6657 415.8768 843.3066 439.1252 807.6516 445.1608 790.7741 451.5318 787.0857 453.879 783.3972 460.5853 782.9502 466.2856 783.7326 471.7624 782.9502 477.5745 771.9966 490.0928 757.0193 485.622 740.5889 475.6744 724.8292 471.5388 719.9112 473.886 715.6639 477.2392 706.4987 484.7278 702.922 489.6458 702.1396 501.4935 707.1693 510.7705 707.5046 511.1058 732.6531 535.3602 736.118 541.5076 737.0122 543.6312 731.0883 559.0557 726.0586 568.668 724.6056 573.5859 724.3821 583.1982 725.6116 591.5811 725.1645 599.4051 719.7994 607.229 708.5106 600.6345 699.01 607.5644 683.1385 628.8009 671.9614 632.0422 650.5013 631.3716 639.5477 638.9721 639.436 639.0838 635.4122 643.1076 618.7583 652.9435 615.964 653.8376 611.7167 655.1789 603.781 654.1729 596.2923 650.3727 581.8738 639.0838 574.2734 620.6416 572.7086 615.053 572.485 611.0293 573.2674 601.9758 574.0498 597.8403 577.2912 590.6869 579.4149 587.4455 580.0855 588.0044 579.7502 582.0805 579.4149 576.0449 575.6146 560.844 568.7966 547.8785 558.7372 542.6253 548.566 547.4315 540.6303 554.6966 536.1594 558.7204 524.647 572.4682 517.2701 584.5395 514.6993 592.6988 512.2404 608.4585 509.7814 615.6119 504.3046 621.8711 498.0454 625.4477 492.7922 630.0304 490.3332 639.0838 484.9682 650.2609 478.8208 660.2086 471.6674 668.5914 462.9493 674.2917 457.1372 684.1276 434.5594 710.2821 432.324 713.747 428.1884 723.4711 427.2943 727.8301 427.5178 735.9894 427.1825 739.0073 384.933 804.9523 371.8558 819.1472 370.6263 825.4064 374.9854 834.9069 375.0971 835.0187 381.9152 842.7309 407.1755 861.5085 413.77 869.4442 414.8877 870.7855 415.8936 876.4858 407.8461 894.2574 405.7224 904.4286 405.2754 916.1646 406.8402 927.4535 410.8639 936.3952 410.9757 936.5069 414.2171 940.6425 411.8699 950.5901 409.2991 952.8255 405.7224 953.2726 403.3752 955.3963 406.2813 969.1441 405.1636 973.2796 403.487 976.4092 402.9282 979.3153 403.1517 983.3391 402.9282 985.798 403.9341 988.1452 408.0696 992.0572 411.5345 998.4282 411.1992 1013.8526 411.6463 1020 403.5988 1013.182 387.5037 995.075 380.0151 991.3866 347.825 980.7683 340.2245 975.8504 329.3827 971.8266 325.8061 969.3677 322.3411 963.4438 322.1176 960.2024 322.6765 956.9611 321.447 951.0372 319.3233 950.0312 314.8525 945.8957 311.6111 941.4249 313.7348 939.3012 314.0701 936.7305 312.17 907.5582 287.1332 884.5333 283.7801 875.927 287.8039 867.3206 284.4507 863.8557 278.9739 861.3967 272.2677 849.4372 255.502 849.8843 251.8135 843.5133 250.8076 837.1424 248.5722 835.5776 245.5543 835.4658 242.7601 833.5657 236.7244 820.712 230.3535 814.0057 212.6936 800.705 207.5521 791.6515 204.4226 771.9798 200.6223 763.8205 194.2514 760.132 186.5392 760.132 179.8329 762.9263 176.5915 767.8442 174.4679 765.0499 171.7854 762.3674 170.5559 759.6849 163.4025 763.8205 160.0494 766.1677 157.814 768.7384 156.808 769.8561 153.3431 771.4209 150.4371 768.1795 146.1898 759.6849 131.6595 747.6136 125.065 739.4543 124.9532 731.295 122.3825 729.1714 118.5823 724.8123 115.8998 722.8004 115.8998 719.112 116.9057 710.5056 109.1935 703.2405 100.4754 702.9052 98.1282 714.9765 95.1103 714.9765 91.6454 712.6293 82.0331 713.9705 80.133 712.8528 77.7858 708.9408 72.4208 704.5817 66.2734 700.8933 61.8025 699.105 62.8085 696.9813 62.8085 696.3107 63.2556 695.8636 65.0439 694.6341 53.9785 686.6983 50.5136 680.7745 52.7491 673.9564 58.3376 671.8328 94.4397 683.9041 99.5812 685.5806 112.3231 692.5105 118.9176 699.105 122.2707 689.8279 121.6001 682.3393 111.6525 659.7615 111.3172 654.2847 113.1055 645.4548 98.5752 664.0088 78.4564 667.809 31.7361 661.6616 31.7361 666.1325 40.0072 672.2799 36.3187 689.4926 43.8074 694.6341 35.201 691.7281 29.0536 685.1336Z" />
</svg>