<?xml version="1.0" encoding="utf-8"?>
<svg xmlns="http://www.w3.org/2000/svg" viewBox="0 0 517 1024" style="stroke-width:0.25px;stroke-linejoin:round;stroke:#444;fill:#ddd" fill-rule="evenodd">
  <path class="MG" d="M73.6953 621.3122L73.4717 618.965 74.2541 616.1707 79.2838 605.8878 80.8486 603.5406 84.9842 599.4051 86.6607 597.2814 88.002 594.9342 89.1197 592.1399 89.455 589.9045 89.5668 586.6631 89.0079 584.2042 87.6667 583.9806 87.1078 581.9688 86.7725 581.4099 86.2136 581.0746 85.2077 581.0746 84.7606 580.851 83.8664 580.0686 82.8605 578.9509 82.1899 577.6097 81.8546 576.2684 82.1899 575.2625 83.5311 572.6917 84.09 571.9094 84.6488 570.9034 84.8724 569.6739 84.7606 567.1032 84.6488 566.3208 84.3135 565.6502 84.2018 564.9795 84.3135 564.0854 84.6488 563.7501 85.8783 562.9677 86.2136 562.5206 86.6607 561.0675 86.7725 559.9498 87.3314 559.1674 88.8961 558.9439 89.7903 557.6026 89.5668 554.6966 88.1138 549.7787 87.1078 547.3197 85.7666 545.196 82.4134 541.9547 81.8546 541.0605 81.2957 538.6015 80.0662 536.1426 73.5835 527.648 72.354 525.3008 71.7952 522.73 72.354 518.371 73.2482 516.0238 73.2482 511.5529 73.2482 511.3294 72.9129 510.7705 72.8011 510.547 72.9129 509.9881 73.5835 509.4293 73.6953 508.9822 74.1424 507.1938 74.2541 506.4114 73.9188 504.0642 72.2422 498.9228 68.8891 489.7575 63.8594 482.716 59.3886 476.1215 58.8297 473.886 58.8297 459.244 56.0354 444.8255 55.9237 440.0194 58.0473 430.8541 58.3826 427.6128 57.9355 426.495 56.259 424.9303 55.3648 421.5771 50.8939 415.2062 50.4469 413.4178 50.5586 411.1824 51.1175 406.5998 51.8999 404.4761 55.4766 398.5523 56.7061 395.5344 57.1531 395.3109 57.9355 395.758 58.3826 395.1991 59.0532 393.0755 64.4183 384.6926 65.536 383.4631 66.0948 382.3454 66.3184 381.3395 66.5419 377.8746 68.442 377.8746 70.2304 375.0803 72.5776 368.8211 73.0246 368.0387 74.9248 366.0268 75.3718 365.468 75.9307 363.7914 76.3778 363.009 77.6073 361.6678 78.3897 360.3265 79.7309 357.3087 81.631 354.5144 84.09 351.8319 86.1019 348.9259 86.7725 345.6845 86.3254 344.2315 85.0959 341.1019 84.7606 339.6488 85.0959 337.8605 85.9901 336.9663 86.6607 337.4134 86.7725 339.2018 87.8902 337.3017 88.4491 335.178 88.3373 333.1661 87.6667 331.1542 85.0959 327.1305 83.9782 324.895 83.8664 322.5479 84.09 321.6537 84.6488 320.6477 85.3195 319.6418 85.9901 318.8594 86.4372 318.077 86.6607 317.0711 86.8843 312.9355 87.1078 311.9296 87.6667 311.259 88.7844 311.0354 91.1316 310.9237 93.5905 310.5883 108.9032 312.0414 110.8033 311.5943 111.6975 311.7061 113.374 313.0473 114.6035 313.8297 115.833 314.165 116.8389 313.8297 117.5096 312.9355 117.9567 312.2649 118.5155 311.5943 119.4097 311.0354 120.4156 310.8119 122.4275 310.4766 123.3217 310.0295 122.7628 309.5824 126.8983 307.5705 128.9102 306.341 130.2515 304.5527 132.7105 300.5289 134.2752 298.5171 135.84 296.9523 137.7402 295.8345 142.0992 294.0462 144.7817 292.1461 145.3406 292.5932 145.4524 293.5991 145.5641 295.9463 146.7936 299.9701 146.9054 300.3054 146.9054 300.976 146.9054 301.5349 146.4583 302.9879 146.3465 304.2174 146.4583 305.2233 147.0172 305.8939 148.1349 306.1175 149.2526 305.6704 149.9232 304.888 150.4821 303.9938 151.2645 303.3232 153.6117 302.3173 154.6176 301.6466 155.0647 300.5289 154.9529 299.8583 153.4999 299.4112 152.7175 298.5171 152.1586 297.2876 152.1586 296.3934 152.7175 295.7228 164.2299 294.4933 164.677 294.3815 165.2359 294.158 166.13 293.4873 166.6889 295.4992 167.2477 296.2816 167.4713 296.5052 167.5831 296.7287 167.5831 297.7347 166.8007 299.8583 166.9124 300.6407 168.1419 300.0818 168.589 301.4231 169.1479 301.3113 169.8185 300.0818 169.0361 296.2816 169.2596 295.4992 170.3773 294.2697 170.9362 293.4873 170.8244 293.2638 170.9362 291.4755 171.048 290.8048 171.2715 290.246 171.495 289.6871 171.495 289.0165 170.9362 288.0106 170.1538 287.4517 169.7067 286.7811 170.2656 285.7751 172.501 283.3162 174.8482 281.8631 175.5188 281.7514 176.7483 282.1985 177.7542 282.5338 178.8719 282.5338 179.8779 282.6455 182.4486 284.2103 184.0134 283.9868 188.2607 281.5278 189.1549 281.1925 190.1608 280.969 191.1668 280.969 192.7316 281.1925 193.2904 281.8631 193.1787 284.2103 193.1787 285.3281 193.4022 285.9987 194.0728 286.2222 195.0788 286.4458 195.6376 286.5575 196.8671 286.4458 197.426 286.4458 199.3261 287.5635 201.0026 287.5635 201.0026 287.1164 200.332 286.2222 199.8849 284.9927 200.1085 284.2103 200.7791 283.5397 201.338 282.7573 201.338 281.5278 199.6614 282.422 197.9848 283.6515 197.0906 284.0986 197.426 282.5338 198.4319 280.8572 199.8849 279.2924 201.5615 278.0629 203.2381 276.9452 204.8029 276.3864 206.4794 276.051 209.9443 276.051 211.7327 276.2746 212.5151 276.4981 212.8504 277.057 212.8504 277.8394 212.9622 278.6218 213.2975 279.4042 213.8563 279.963 213.0739 281.3043 212.7386 282.422 212.1798 283.5397 210.9503 284.4339 212.4033 285.7751 213.521 286.8928 214.4152 288.2341 216.8741 293.3756 218.1036 294.7168 219.5567 295.9463 219.6684 295.2757 219.6684 294.3815 219.6684 293.4873 220.1155 293.0403 220.6744 293.152 221.4568 294.6051 222.0156 295.0521 223.3569 294.7168 224.0275 293.3756 223.9157 291.8108 223.4686 290.4695 225.257 290.3578 226.5982 291.699 227.8277 293.3756 229.2807 294.4933 230.0631 293.9344 229.2807 292.0343 227.6042 289.0165 226.1512 288.3459 223.2451 285.5516 221.4568 284.9927 219.2213 285.1045 218.6625 284.9927 217.3212 284.2103 217.433 283.7633 218.3272 283.2044 219.1096 282.5338 221.0097 279.516 221.345 278.1747 220.5626 276.9452 219.7802 276.9452 218.886 277.057 217.9919 277.057 217.6565 276.4981 217.8801 275.2686 218.886 273.3685 219.6684 270.686 221.0097 269.233 224.1393 266.774 228.6101 261.7443 230.2867 260.5149 230.3985 260.8502 230.5102 261.1855 230.622 261.5208 230.622 261.9679 231.4044 261.5208 233.3045 259.7325 236.3223 257.6088 237.2165 256.8264 238.7813 255.5969 240.6814 255.4851 242.5815 255.4851 244.1463 255.0381 243.2521 254.3674 241.0167 253.8086 240.7932 253.0262 241.5756 252.2438 245.5993 251.2378 252.8645 245.9846 258.1177 241.1784 261.1355 240.2843 263.0356 239.1666 264.1534 238.943 264.6004 239.1666 264.824 239.7254 264.9358 240.396 264.9358 242.4079 265.0475 242.7432 265.8299 244.5316 266.3888 245.314 267.1712 245.8728 268.2889 246.5435 270.6361 247.5494 271.8656 248.3318 271.8656 249.226 271.1949 250.2319 270.0772 252.0202 269.1831 252.8026 268.1771 253.4733 267.3947 254.2557 264.2651 260.6266 263.4827 263.0856 263.7063 264.7622 264.3769 264.9857 264.9358 263.9798 265.6064 261.5208 266.3888 260.7384 267.73 260.4031 270.189 259.956 272.5362 259.0618 274.7716 257.9441 277.007 257.2735 279.2425 258.0559 281.8132 257.0499 282.9309 256.2675 283.1545 255.0381 282.8191 254.591 282.3721 254.4792 281.8132 254.4792 281.2543 254.2557 280.5837 253.9204 280.3602 253.585 279.1307 251.3496 278.2365 246.767 278.2365 246.3199 278.013 246.0964 277.1188 245.9846 276.4482 246.0964 274.4363 247.1023 274.2128 246.0964 274.3245 245.314 274.9952 243.5256 274.101 243.6374 273.3186 243.6374 272.7597 243.3021 272.3127 241.8491 271.1949 241.0667 270.6361 240.5078 270.5243 238.8312 271.1949 237.2664 273.095 234.5839 275.4422 232.4603 278.4601 230.4484 281.0308 228.1012 282.5956 223.8539 283.6015 222.5127 287.0664 219.1595 288.5195 218.3771 290.196 217.8183 291.7608 217.5947 292.7668 216.8123 292.8785 215.1358 292.4315 213.571 291.3138 213.3474 290.5314 214.018 290.196 215.2475 289.4136 215.5828 288.2959 215.6946 287.6253 215.2475 286.5076 213.6827 286.9547 213.6827 289.0783 210.2178 297.7965 200.9408 298.8024 200.1584 299.2495 200.4937 299.5848 201.2761 300.0319 202.1703 301.4849 203.8469 301.4849 204.5175 301.2614 208.9883 301.4849 210.1061 301.8202 210.4414 302.2673 210.5531 302.7144 210.8884 302.938 211.6708 302.7144 211.8944 301.932 213.6827 297.9083 218.3771 296.9023 220.0537 296.1199 222.2891 295.4493 231.119 295.6728 232.0132 296.6788 232.5721 297.4612 232.4603 299.8084 231.119 300.479 230.5602 301.7085 228.6601 302.3791 226.5364 303.385 224.6363 305.2851 223.0715 306.0675 223.6304 306.4029 222.9597 306.2911 221.1714 306.6264 219.9419 311.6561 210.2178 312.1032 208.0942 312.4385 207.2 314.6739 204.8528 314.8975 204.2939 314.8975 202.9527 315.121 202.3938 315.6799 201.9468 316.9094 201.3879 317.2447 201.1644 318.8095 199.2642 319.4801 198.2583 319.7036 197.2524 320.2625 196.1347 321.2684 195.5758 322.2744 194.7934 322.6097 193.2286 325.6275 197.4759 326.9688 198.7054 327.8629 199.0407 330.0983 199.5996 330.8807 200.1584 331.2161 201.0526 331.1043 202.7292 331.2161 203.6233 332.3338 202.5056 332.3338 200.9408 331.7749 199.376 330.8807 198.7054 332.7809 197.1406 334.681 197.2524 336.0222 198.8172 336.5811 201.1644 336.4693 206.0823 336.9164 207.5353 338.0341 205.6352 338.3694 203.5116 338.3694 200.4937 337.8106 197.923 336.3575 196.6935 335.3516 196.3582 334.5692 195.6876 333.0044 194.011 331.6631 193.2286 330.5454 193.4521 328.4218 194.7934 327.5276 195.1287 326.5217 195.3523 325.6275 195.1287 324.5098 194.2345 323.9509 193.2286 323.5039 192.1109 323.0568 191.7756 321.0449 194.4581 320.1507 195.3523 319.4801 195.6876 319.033 195.1287 317.58 192.558 317.2447 191.7756 317.4682 191.4403 318.1388 190.7696 318.2506 190.2108 318.1388 189.5402 317.9153 189.0931 317.58 188.7578 316.3505 186.2988 316.3505 185.8517 316.6858 185.6282 316.7976 185.4046 316.0152 184.734 315.9034 184.5105 316.0152 181.3809 316.4623 179.0337 317.3564 176.6865 318.6977 174.8981 320.3743 173.7804 320.9331 173.2216 321.1567 172.1039 321.2684 169.8684 321.492 169.086 322.1626 168.4154 323.8392 167.8565 327.0805 170.2037 329.316 170.092 330.3219 169.8684 331.6631 170.092 332.222 169.8684 332.8926 169.086 333.3397 167.8565 333.5633 166.6271 333.675 165.6211 333.4515 163.9446 332.7809 161.9327 331.6631 160.2561 330.3219 159.4737 331.2161 158.4678 332.7809 158.8031 335.5751 160.9267 336.2458 161.262 336.8046 161.4856 337.3635 161.8209 337.8106 162.3798 337.9223 163.2739 337.4752 164.0563 336.9164 164.727 336.5811 165.6211 336.3575 167.4095 335.3516 171.2097 335.1281 173.1098 335.1281 173.7804 335.2398 174.8981 335.6869 175.7923 336.5811 175.7923 337.0282 175.2334 337.1399 174.3393 337.0282 173.5569 337.0282 172.8862 337.587 172.4392 338.4812 171.8803 339.2636 171.2097 339.2636 170.5391 338.7047 169.9802 338.1459 169.086 337.6988 168.1919 337.587 167.4095 338.1459 165.7329 339.9342 163.1622 340.3813 161.5974 340.3813 159.9208 340.2695 158.2442 339.5989 157.0147 336.8046 156.0088 335.2398 155.0029 332.6691 152.5439 338.0341 149.7496 338.0341 148.7437 334.681 146.5083 331.8867 145.3905 330.9925 144.8317 329.2042 141.3668 328.0865 136.5606 328.6453 132.5369 331.7749 131.1956 330.9925 130.0779 330.0983 129.6308 329.4277 128.9602 329.316 127.1718 329.5395 125.607 330.0983 123.4834 331.1043 122.0304 332.4455 122.4774 333.5633 122.5892 334.1221 120.8009 334.4574 117.5595 335.0163 117.0007 335.7987 116.5536 336.4693 116.5536 337.0282 117.336 336.8046 117.7831 336.0222 118.3419 335.5751 119.1243 336.134 120.242 336.4693 120.0185 337.1399 119.9067 337.587 119.7949 337.2517 120.6891 337.3635 121.4715 337.9223 121.8068 338.7047 121.4715 339.04 120.9127 339.04 120.242 339.3754 119.6832 340.3813 119.2361 339.1518 117.7831 339.04 117.336 341.6108 117.336 342.7285 118.1184 343.1756 119.9067 343.5109 121.9186 343.8462 123.2598 345.7463 122.3657 346.864 122.9245 347.4229 124.3776 347.6464 126.1659 348.8759 129.4073 349.0994 130.6367 349.0994 131.1956 349.2112 131.6427 349.323 132.0898 350.4407 132.4251 350.3289 132.9839 349.5465 133.8781 350.3289 135.3311 352.229 136.6724 354.2409 137.6783 355.8057 138.1254 357.8176 137.5666 359.8295 136.2253 360.8354 134.5487 359.6059 132.6486 360.1648 131.5309 360.1648 127.7307 360.6119 126.5012 361.8414 124.154 362.0649 123.2598 360.6119 120.6891 360.2766 119.3479 361.6178 118.789 362.4002 119.2361 364.5239 122.2539 364.8592 120.9127 365.418 119.5714 366.2004 118.5655 366.8711 117.7831 367.7652 117.4477 369.1065 117.2242 370.4477 117.2242 371.2301 117.336 371.2301 116.8889 371.2301 116.2183 371.2301 115.7712 372.9067 117.2242 373.6891 117.6713 374.3597 117.5595 374.248 116.8889 373.0185 114.4299 372.4596 112.418 371.2301 110.7415 370.6713 109.9591 370.5595 108.9531 370.4477 107.9472 370.6713 105.9353 371.789 106.1589 372.4596 106.8295 372.9067 107.7237 373.6891 108.3943 373.6891 109.6238 374.9186 110.5179 378.7188 111.971 379.3894 112.0827 380.0601 111.971 380.8425 111.6356 381.7366 111.4121 382.6308 111.5239 383.525 111.7474 384.1956 111.8592 386.7663 111.1886 389.3371 109.6238 391.6843 107.6119 393.3608 105.3765 392.1314 104.0352 393.1373 101.9116 395.8198 98.782 395.5963 97.8878 394.5903 96.2112 394.3668 95.0935 394.3668 92.6345 394.4785 91.5168 396.1551 85.8165 397.0493 83.8046 398.9494 81.1221 399.5083 80.0044 399.9553 78.8867 400.0671 77.9925 400.4024 77.0983 401.2966 76.0924 402.1908 75.1982 402.9732 74.7512 402.6378 72.9628 403.7556 68.2684 403.9791 66.3683 403.532 65.4741 402.1908 63.7976 401.5201 62.9034 401.073 61.8975 400.8495 61.1151 400.5142 57.8737 400.1789 57.0913 399.1729 55.5265 398.7259 55.1912 398.2788 55.303 397.9435 55.303 397.7199 54.5206 397.7199 53.8499 398.0552 53.4029 398.3905 53.0675 398.7259 52.5087 398.6141 51.9498 398.167 51.0557 398.167 50.6086 398.9494 48.8202 399.1729 48.5967 398.6141 47.7025 397.8317 47.5908 396.8257 48.0378 395.8198 48.5967 395.708 46.473 395.1492 45.2436 392.9138 43.2317 391.796 40.2139 391.2372 39.3197 391.0136 40.6609 388.1076 39.3197 389.0018 38.5373 390.2312 36.6372 391.0136 36.5254 391.796 36.9725 392.5784 37.196 394.3668 37.196 396.714 37.7549 398.2788 38.9844 400.4024 43.1199 401.073 43.567 402.1908 43.2317 403.3085 42.4493 403.9791 41.7787 404.2026 40.6609 404.4262 36.8607 404.538 36.4136 405.4321 34.8488 405.4321 34.5135 405.3204 33.5076 405.4321 32.837 405.991 31.9428 406.8851 31.2722 407.8911 31.0486 408.7853 31.3839 409.2323 30.1545 410.0147 29.4838 410.7971 28.925 411.6913 27.919 412.6972 29.2603 413.5914 28.2543 414.4856 26.466 415.4915 25.4601 416.6092 26.3542 417.727 26.0189 418.5094 24.7894 418.9564 23.56 418.8447 23.0011 418.6211 22.4422 418.3976 21.8834 418.3976 21.101 418.8447 20.2068 419.4035 19.7597 419.9624 19.4244 420.4095 19.0891 421.0801 18.8656 421.3036 18.5303 420.8565 17.6361 420.1859 16.8537 419.7388 16.7419 419.18 16.8537 418.3976 16.6301 418.0623 16.2948 417.8387 15.8477 417.5034 15.4007 416.9446 15.0653 416.2739 14.9536 413.5914 15.0653 414.5974 13.7241 417.3916 12.8299 418.3976 11.6004 419.5153 12.3828 421.7507 15.6242 422.3096 15.0653 422.7567 15.6242 422.8684 14.1712 422.3096 12.7182 421.3036 11.4887 419.8506 11.1534 420.1859 10.371 420.633 9.9239 421.0801 9.5886 421.3036 9.1415 422.086 8.9179 422.3096 8.6944 422.1978 8.4708 421.9743 8.0238 421.8625 7.4649 421.9743 7.0178 424.0979 4.6706 425.3274 4 426.6686 4.2235 427.3393 4.7824 429.2394 7.0178 429.7982 8.0238 429.7982 10.0356 430.2453 10.9298 431.5866 12.7182 431.8101 14.5065 431.5866 16.4066 431.9219 18.5303 433.1514 21.2128 433.2631 22.2187 432.9278 22.2187 430.2453 19.3127 429.5747 19.2009 429.0158 19.7597 428.5688 20.6539 428.0099 21.101 427.1157 20.7657 426.3333 20.095 425.7745 18.9773 425.6627 18.0832 424.8803 18.4185 424.3215 18.9773 423.9861 19.648 423.7626 20.5421 424.545 20.9892 424.4332 21.7716 423.2037 24.007 424.3215 23.8953 425.7745 24.1188 427.004 24.5659 427.5628 25.2365 427.3393 25.6836 426.3333 26.5778 426.1098 26.9131 426.2216 27.5837 426.5569 28.2543 426.8922 28.4779 427.3393 27.919 428.1217 26.6895 428.6805 26.3542 429.2394 26.8013 430.0218 27.919 429.91 28.2543 429.5747 28.8132 429.5747 29.2603 430.2453 29.3721 431.5866 29.4838 432.369 29.3721 432.8161 28.925 433.2631 27.6955 432.2572 25.6836 432.5925 24.6777 433.9338 24.007 434.7162 24.4541 436.7281 27.6955 436.9516 28.5897 436.9516 29.3721 437.1751 30.378 437.8458 31.4957 438.5164 32.2781 439.0752 33.284 439.187 34.8488 439.6341 33.9547 440.193 33.284 440.9754 32.9487 441.9813 32.837 442.9872 33.0605 443.4343 33.5076 443.7696 33.9547 444.9991 35.1842 445.4462 36.0783 445.4462 36.8607 444.8873 37.196 443.8814 36.9725 443.099 36.6372 442.3166 36.5254 441.5342 37.196 443.2108 38.6491 444.2167 39.7668 444.9991 39.8785 446.3404 38.202 448.2405 42.6728 448.6876 44.1259 448.9111 46.026 448.6876 47.0319 448.0169 46.9201 447.4581 46.026 447.2345 45.1318 447.2345 43.2317 446.8992 45.1318 447.9052 49.2673 447.5699 50.8321 447.011 51.6145 446.6757 52.3969 446.5639 53.1793 446.7875 53.9617 447.4581 55.1912 448.0169 55.1912 448.464 54.6323 449.2464 54.5206 450.3641 55.1912 451.7054 56.5325 452.9349 57.9855 453.4937 59.215 453.7173 60.1091 454.3879 61.6739 454.4997 62.4563 454.3879 63.3505 453.4937 64.9153 453.0466 65.9212 453.7173 65.5859 454.3879 65.4741 454.9468 65.4741 455.5056 65.9212 455.9527 65.1388 456.3998 64.4682 456.7351 63.7976 457.0704 61.7857 457.6293 61.2268 458.4117 61.1151 459.4176 61.4504 459.0823 62.2328 458.8587 62.4563 459.7529 62.6799 460.7589 63.127 461.5413 63.7976 463.3296 65.3624 463.6649 65.9212 463.3296 67.7096 463.4414 68.3802 464.3355 70.2803 465.0062 71.0627 465.9003 71.398 466.7945 71.2862 467.8004 71.2862 468.4711 71.9569 468.5828 73.4099 468.024 73.7452 467.2416 73.9688 467.018 74.5276 468.024 75.7571 468.9182 76.316 469.9241 76.6513 470.5947 77.2101 470.93 78.6631 471.2653 79.7809 472.9419 81.681 473.2772 82.3516 473.389 86.2636 472.8301 92.0757 472.8301 93.1934 473.1655 94.6464 473.2772 95.7641 473.5008 96.6583 475.4009 99.5644 475.6244 100.7938 475.4009 103.8117 475.7362 104.9294 476.6304 105.4882 477.5245 105.2647 478.3069 104.8176 479.0893 104.9294 479.6482 105.9353 479.5364 107.2766 479.0893 109.6238 479.2011 111.6356 480.207 115.7712 480.9894 117.7831 481.3248 118.2301 482.1072 118.789 482.4425 119.2361 482.5542 119.7949 482.4425 121.1362 482.4425 121.695 482.666 123.1481 482.8895 123.7069 483.1131 123.9305 483.3366 124.154 483.5602 124.2658 483.8955 124.2658 484.3426 124.3776 484.3426 124.6011 484.3426 125.0482 484.5661 125.4953 484.7897 126.2777 484.2308 128.7366 484.5661 129.8543 485.125 130.7485 486.8015 134.1017 487.3604 136.5606 488.1428 150.9791 489.484 156.3441 489.7076 158.356 489.7076 160.9267 489.037 163.0504 488.8134 164.2799 488.7017 166.8506 488.9252 168.3036 489.3723 169.1978 491.1606 170.8744 492.2783 172.998 492.3901 175.1217 491.4959 180.5985 490.8253 182.9457 490.6018 184.0634 490.7135 185.2928 491.6077 188.7578 492.1666 196.8053 494.0667 200.7173 494.2902 203.3998 493.6196 205.747 492.0548 206.6411 492.7254 207.5353 494.6255 208.5413 495.4079 209.1001 495.9668 210.1061 496.4139 211.3355 497.308 216.0299 502.3377 227.207 503.5672 229.1072 507.0321 233.3545 507.7028 234.4722 508.2616 237.0429 509.044 237.7135 509.9382 238.2724 510.8323 238.943 511.7265 240.7314 512.3971 243.0785 512.7325 247.7729 512.6207 248.22 512.2854 249.3377 511.6147 250.4554 511.6147 251.0143 511.7265 251.5732 511.8383 252.2438 511.7265 252.8026 511.0559 254.4792 510.9441 255.2616 511.0559 255.9322 511.2794 256.6029 511.2794 257.0499 511.0559 257.6088 510.1617 258.503 509.8264 258.9501 509.3793 261.5208 508.1498 265.2092 508.0381 266.5505 507.591 268.4506 501.3318 280.4101 500.7729 282.5338 501.4436 282.8691 500.9965 283.875 495.9668 290.4695 494.2902 294.6051 493.5078 295.4992 492.3901 295.8345 491.2724 295.7228 490.1547 295.7228 489.1487 296.5052 487.6957 292.9285 486.578 291.8108 484.7897 292.0343 481.3248 289.0165 480.0953 287.4517 479.5364 285.2163 479.2011 281.5278 479.0893 280.969 478.1952 280.6337 477.1892 279.8513 476.295 278.8453 475.7362 278.0629 475.2891 277.057 474.842 275.9393 474.7303 274.7098 474.7303 273.4803 475.0656 272.3626 475.5127 271.3567 475.6244 270.3507 474.9538 269.3448 474.5067 268.8977 474.0596 268.6741 473.6125 268.5624 473.0537 268.5624 472.7184 268.3388 470.7065 265.6563 470.4829 264.7622 470.93 262.415 470.93 261.1855 470.3712 257.497 470.4829 257.0499 470.7065 256.6029 470.8183 256.1558 470.3712 255.4851 470.0359 255.3734 468.6946 255.2616 466.9063 256.2675 464.3355 256.4911 459.7529 256.4911 457.5175 257.2735 455.9527 258.7265 451.9289 264.4268 452.0407 266.327 453.4937 270.4625 453.6055 271.4684 453.4937 272.4744 452.8231 274.4862 452.5996 274.4862 453.0466 275.3804 453.9408 276.1628 454.7232 277.1688 455.2821 279.6277 456.1762 281.9749 456.7351 285.6634 457.4057 288.0106 458.4117 289.9107 458.6352 290.8048 458.4117 292.0343 457.8528 293.2638 455.7292 297.064 455.1703 299.1877 455.0585 301.5349 455.5056 303.9938 456.3998 306.1175 458.2999 307.9058 462.8825 309.4706 464.8944 310.8119 466.4592 313.1591 466.7945 315.2827 465.3415 322.1008 465.2297 325.0068 465.565 327.4658 466.7945 328.5835 467.5769 329.0306 467.6887 330.1483 467.4651 333.0543 467.1298 334.0603 467.1298 334.6191 467.1298 337.1899 466.7945 338.084 463.1061 344.5668 460.9824 346.914 457.8528 349.4847 457.9646 352.8378 458.5234 354.4026 459.6411 355.9674 461.0942 357.4205 462.5472 358.2029 464.2238 358.4264 466.1239 358.3146 464.0002 359.4323 461.7648 360.3265 457.6293 360.9971 455.9527 361.8913 452.376 362.2266 450.923 362.5619 449.8053 363.3443 448.9111 364.462 444.2167 373.9626 440.9754 383.2396 437.3987 391.846 436.7281 397.0992 437.0634 398.1052 439.187 401.5701 442.5402 419.677 442.8755 424.4832 442.0931 429.6246 439.6341 438.3428 436.1692 449.5199 436.0574 450.8612 436.1692 452.0906 436.5045 453.0966 436.7281 453.6554 437.5105 454.5496 437.8458 455.1085 438.0693 456.0026 437.6222 456.4497 436.9516 456.6733 436.1692 457.1204 434.0455 461.2559 432.369 475.8979 431.8101 476.9039 430.4689 478.5804 430.0218 479.4746 428.3452 484.5043 424.2097 493.2224 420.5212 506.9703 415.0444 519.6004 412.4737 523.5124 406.1028 546.8726 397.2728 569.6739 394.8139 581.4099 394.7021 583.0865 394.7021 585.8807 392.4667 592.6988 392.0196 591.8046 391.1254 590.5751 390.2312 589.9045 389.5606 590.6869 389.8959 591.4693 391.5725 593.9283 391.9078 595.046 391.796 595.9402 385.9839 608.1232 381.9602 619.0768 380.1718 624.6653 376.3716 636.4013 369.33 663.1146 368.5476 664.3441 367.6535 665.4618 367.0946 666.5795 367.3182 667.6972 368.3241 666.8031 368.7712 667.0266 368.9947 668.0326 368.8829 669.262 368.4359 670.3798 367.0946 672.6152 366.8711 673.9564 366.6475 676.5272 365.9769 678.9861 363.4062 685.0218 363.1826 686.0277 363.0708 688.3749 361.9531 694.8576 360.8354 697.5402 359.9413 699.4403 350.9996 728.2772 342.0579 749.1784 333.1162 770.0796 332.222 775.1094 329.8748 780.2508 326.9688 800.3696 325.5157 804.9523 325.1804 812.2174 322.8332 820.712 320.1507 828.0889 318.4741 839.266 310.0913 864.8616 309.3089 863.8557 308.8618 862.9615 308.5265 862.8497 307.7441 863.8557 306.9617 865.5322 307.5206 865.9793 308.6383 866.0911 309.8678 866.7617 310.2031 868.7736 306.5146 884.9804 302.7144 895.3751 301.4849 897.6106 301.0378 898.0576 299.9201 898.84 299.473 899.1754 299.3613 899.1754 298.6906 899.3989 298.5789 899.3989 298.1318 899.846 298.2436 900.0695 298.5789 900.2931 298.5789 900.7402 298.5789 900.8519 298.1318 902.8638 296.9023 905.4345 296.6788 905.9934 292.655 917.1705 292.0961 917.6176 291.202 917.3941 289.749 916.6117 289.4136 917.0587 290.4196 921.3061 288.5195 933.8244 282.5956 948.8018 280.919 951.596 280.6955 952.7138 280.6955 955.1727 280.2484 956.4022 276.6717 959.0847 275.6658 961.5437 276.2246 966.4616 275.4422 968.4735 274.7716 967.5793 274.2128 966.5734 273.9892 965.4557 273.9892 964.2262 273.4304 965.2321 273.3186 966.3498 273.5421 967.5793 273.5421 968.9206 273.2068 970.4854 272.7597 971.0442 270.6361 971.9384 269.5184 972.609 267.5065 974.5091 264.1534 978.6447 263.371 979.0917 263.1474 978.7564 262.4768 976.9681 261.6944 976.8563 261.4708 976.9681 261.3591 977.1916 257.2235 980.0977 255.7705 981.5507 254.9881 982.1096 252.9762 982.892 252.0821 983.4508 251.1879 984.7921 250.4055 985.4627 249.8466 985.4627 249.176 985.1274 248.3936 985.1274 247.723 986.0216 247.0524 986.4686 242.2462 987.8099 241.1285 987.8099 238.7813 987.0275 231.6279 986.1333 223.4686 986.3569 213.0739 988.9276 199.1025 995.075 190.2726 999.7694 180.4367 1005.2462 173.3952 1011.9525 172.0539 1012.9584 170.6009 1013.5173 169.0361 1013.629 165.5712 1017.0939 160.6532 1018.0999 140.6462 1018.9941 139.6403 1019.2176 138.6343 1019.7765 137.5166 1020 136.2871 1019.7765 135.6165 1018.8823 134.9459 1015.9762 134.387 1014.635 132.2634 1013.0702 124.7747 1010.1641 122.651 1008.5993 121.7569 1007.5934 120.8627 1005.2462 119.6332 1004.1285 114.4917 1000.2165 109.7974 997.9811 107.0031 997.0869 99.5144 995.9692 92.1375 995.6339 81.8546 993.5102 80.5133 992.7278 79.5074 989.71 77.1602 987.1393 76.7131 985.4627 78.0543 986.0216 79.2838 987.1393 81.4075 989.71 82.8605 990.716 83.9782 990.716 84.6488 989.8218 84.3135 988.1452 83.1958 988.3688 82.1899 987.8099 80.4015 986.0216 79.2838 985.2392 78.1661 984.6803 77.0484 984.4568 75.7072 984.4568 73.2482 983.4508 69.0009 978.7564 66.5419 977.4152 64.3065 977.527 63.5241 977.3034 57.8238 973.5032 57.0414 971.8266 56.5943 965.6792 55.9237 963.1085 50.7822 956.0669 50.1116 953.6079 50.7822 946.6781 50.1116 944.1074 49.4409 942.7661 46.4231 939.413 46.0878 939.1894 45.6407 938.8541 45.3054 938.1835 45.0818 937.5129 44.8583 935.9481 44.6348 935.2774 42.2876 933.2656 37.3696 929.9124 35.246 927.677 32.8988 922.0884 31.6693 910.576 32.6752 897.387 31.4458 889.8983 31.5575 889.2277 32.1164 887.7747 32.3399 886.9923 32.2282 886.0981 31.4458 883.8627 30.7751 880.8449 30.3281 879.3919 29.4339 878.0506 30.4398 876.4858 30.3281 871.009 30.6634 868.6618 32.2282 867.097 36.9226 864.9734 38.152 863.2968 38.0403 862.0673 37.0343 860.0554 37.2579 858.7142 38.2638 857.5965 38.5991 857.1494 39.0462 855.8081 39.0462 855.1375 38.8227 854.4669 38.0403 853.3492 36.2519 851.7844 34.9107 849.996 31.8928 847.09 31.4458 846.7547 30.9987 846.7547 30.4398 846.6429 29.881 846.084 29.7692 845.637 29.4339 843.9604 28.7633 841.2779 28.4279 834.4598 27.5338 828.7595 26.5278 825.5182 24.6277 823.3945 19.8216 819.8178 19.0392 818.7001 17.9215 816.3529 16.9155 815.347 15.686 814.4528 13.2271 811.7703 11.774 809.4231 10.9916 807.7465 10.6563 806.7406 10.321 803.611 9.4268 801.4873 8.9798 797.5754 8.1974 795.4517 7.7503 792.6574 7.415 792.0986 6.5208 790.7573 6.0737 790.0867 5.6266 788.2983 5.6266 786.51 5.8502 783.0451 5.1795 776.0035 4.1736 772.3151 2.497 768.8502 2.497 768.1795 2.497 767.3971 2.497 766.6147 2.0499 764.8264 1.2675 763.0381 1.3793 761.4733 2.9441 760.2438 4.8442 760.0202 6.2972 761.4733 6.7443 760.2438 6.6326 759.0143 6.409 757.673 6.2972 756.3318 3.9501 756.22 2.9441 753.2022 2.9441 746.3842 3.0559 745.49 3.7265 744.037 3.9501 743.2546 3.9501 741.4662 4.0618 740.6838 4.2854 740.3485 4.6207 740.0132 4.8442 739.6779 5.0678 739.5661 5.2913 739.4543 5.6266 739.3426 5.8502 739.119 5.2913 736.9954 5.4031 735.9894 5.7384 735.0953 6.1855 734.2011 6.8561 733.4187 7.6385 734.5364 7.7503 735.7659 7.3032 738.5602 8.7562 736.5483 8.9798 732.9716 8.868 729.1714 9.2033 726.1536 9.9857 724.8123 14.6801 719.112 15.9096 718.1061 17.2508 717.9943 18.8156 718.8884 18.8156 698.7696 19.3745 696.8695 20.8275 693.4046 21.2746 691.5045 21.8334 692.8458 22.3923 692.8458 23.7336 691.5045 25.6337 690.4986 26.5278 689.1573 26.8631 688.9338 30.7751 688.9338 33.3459 688.2631 34.6871 688.5985 35.9166 689.1573 37.2579 689.3809 38.9344 688.7102 40.9463 687.1454 42.7347 685.1336 43.4053 683.2334 43.7406 680.998 46.3113 673.9564 48.8821 659.4262 53.3529 650.708 54.8059 649.255 57.1531 648.6961 58.3826 647.5784 62.1828 640.4251 63.077 637.4073 63.7476 633.8306 64.6418 630.4774 66.5419 628.1303 66.5419 628.8009 66.6537 629.248 66.989 630.1421 68.6656 626.0066 69.6715 624.7771 72.8011 622.3182 73.6953 621.3122ZM474.2832 354.738L474.5067 353.732 474.6185 352.5025 474.842 351.3848 475.4009 350.4906 476.295 349.82 479.0893 348.2552 478.754 349.9318 476.1833 355.2968 474.3949 360.9971 470.93 368.4858 468.3593 371.8389 466.4592 376.198 465.1179 377.8746 464.5591 375.8627 464.8944 373.9626 466.571 370.2741 466.9063 369.2682 467.018 368.374 467.1298 366.2504 467.3534 365.0209 467.9122 364.015 469.477 362.2266 474.2832 354.738ZM360.1648 105.9353L360.7237 106.4942 361.6178 107.1648 362.512 107.9472 362.6238 108.8414 362.0649 109.4002 361.3943 109.7355 360.6119 109.8473 359.9413 109.9591 359.6059 109.7355 359.3824 109.4002 359.1589 109.0649 359.1589 108.8414 358.8235 108.9531 357.8176 109.4002 355.2469 108.9531 354.3527 108.6178 353.4585 107.8354 352.8997 107.8354 352.8997 108.8414 352.6761 108.8414 352.4526 108.7296 352.229 108.5061 352.0055 108.3943 351.3349 107.6119 350.8878 106.0471 350.5525 102.9175 350.776 101.5762 351.2231 100.3468 351.1113 99.4526 350.1054 99.0055 350.776 98.1113 351.8937 98.3349 352.8997 98.8937 353.9056 98.4466 354.3527 98.8937 355.0233 99.229 355.8057 99.3408 356.2528 99.0055 356.3646 98.4466 356.0293 97.8878 355.5822 97.3289 355.3586 96.7701 355.4704 95.3171 355.8057 94.4229 356.5881 94.0876 358.0411 94.0876 359.1589 94.4229 359.8295 95.3171 359.7177 96.5465 358.9353 97.776 359.6059 98.1113 360.2766 99.5644 360.8354 101.2409 360.8354 102.0233 361.7296 102.4704 361.3943 103.6999 360.6119 105.0411 360.1648 105.9353Z" />
</svg>