<?xml version="1.0" encoding="utf-8"?>
<svg xmlns="http://www.w3.org/2000/svg" viewBox="0 0 1021 814" style="stroke-width:0.25px;stroke-linejoin:round;stroke:#444;fill:#ddd" fill-rule="evenodd">
  <path class="MK" d="M49.6205 269.6891L58.7857 279.4132 63.5919 282.0957 70.0746 281.6486 73.0924 279.1897 77.3397 271.1421 79.9105 269.3538 83.5989 271.701 91.0876 282.3193 94.8878 285.1135 103.4942 282.2075 107.965 277.066 111.5417 273.154 118.1362 261.7534 122.2717 251.8057 122.4953 249.9056 123.8365 238.952 122.607 233.9223 118.8068 217.7155 119.3657 205.6442 124.1718 179.2662 128.1956 167.8656 135.9078 158.365 146.079 152.5529 183.187 139.9228 211.2416 130.3105 222.6422 126.3985 232.7017 121.3688 237.2843 116.7861 250.585 103.7089 260.0856 97.5615 263.2152 97.5615 265.8977 98.3439 271.1509 101.2499 286.24 112.9859 300.3232 126.8455 306.6942 137.4638 310.3826 145.176 311.9474 146.7408 315.3006 150.2057 318.4301 150.8763 335.5311 154.2295 339.6667 153.3353 340.2255 149.6469 340.4491 148.4174 340.1138 137.6873 339.4431 133.1047 338.2136 130.1987 337.4312 127.2926 337.8783 122.5982 361.2385 86.8315 363.921 84.596 366.38 82.5842 373.3098 82.0253 387.0576 87.2785 391.305 86.9432 390.8579 83.2548 388.0636 78.5604 387.393 73.9778 393.8757 70.2893 398.5701 71.7424 402.1468 75.5426 406.2823 76.5485 408.0706 74.4249 411.8708 69.8422 418.9124 74.6484 426.96 74.5366 443.6139 70.1776 444.508 70.6246 448.8671 72.8601 468.5388 72.5248 482.3985 76.325 489.2165 76.6603 495.2521 72.8601 500.9525 65.9303 506.0939 62.8007 544.7668 39.1052 552.8143 37.3168 568.574 37.4286 571.3683 36.758 584.7809 25.022 589.0282 23.0101 594.0579 24.1278 615.1826 35.0814 628.1481 39.7758 635.1897 40.5582 641.3371 41.2288 654.9732 38.7699 709.6293 15.6332 720.024 4.7914 723.7124 4.1208 725.389 6.8033 725.7243 15.8568 726.842 19.7688 732.6541 26.6986 739.0251 31.5047 746.0667 34.1872 753.8906 34.6343 792.8988 87.6139 807.8761 98.9028 813.1294 114.3272 817.9355 122.71 819.2768 124.8337 827.5479 133.2165 861.8616 158.0297 865.5501 159.9298 884.8865 169.7657 896.7342 172.3364 898.5226 173.9012 899.9756 176.2484 901.7639 178.3721 904.3347 179.4898 922.4416 178.7074 926.4653 179.1545 928.2537 181.2781 929.1479 184.743 930.4891 188.3197 933.6187 190.7787 936.413 190.7787 942.4486 188.655 944.684 188.7668 949.1549 191.7846 951.3903 194.4671 952.0609 198.1556 952.1727 198.4909 952.508 205.5325 952.6198 205.6442 955.7494 211.3446 956.6436 217.1567 957.3142 229.8986 960.332 242.1934 964.5793 254.2647 965.1382 258.0649 965.0264 265.8889 966.0323 269.9127 966.5912 270.4715 967.7089 271.8128 972.4033 274.2717 974.1916 276.3954 976.6506 282.7663 980.8979 300.985 989.3925 320.8803 991.8515 324.7923 996.2106 326.8042 1005.5993 327.2513 1009.7349 329.2631 1016.7765 340.4403 1017 352.9586 1012.7527 365.2535 1007.4994 373.7481 1004.0345 379.3366 1001.4638 387.0488 1000.2343 389.7314 997.9989 391.0726 991.7397 392.8609 989.8396 394.7611 987.9395 400.7967 986.71 408.0618 986.3747 415.774 987.0453 422.8156 988.2748 425.8334 992.075 431.7573 992.9692 435.334 992.6339 438.3518 990.7338 447.1817 990.9573 455.341 991.9633 492.3373 992.5221 494.908 994.7575 500.273 995.3164 503.2909 994.3105 505.7498 989.7278 511.4502 988.3866 514.6915 989.2807 525.9804 991.2926 537.0458 989.8396 546.8816 980.3391 554.3703 944.3487 551.576 932.7245 553.6997 926.4653 554.8174 919.0884 561.3001 914.7294 565.2121 911.0409 579.9659 910.5938 581.866 909.029 623.5567 905.2288 643.899 900.6462 654.5173 896.3989 657.6469 891.2574 655.0761 884.2158 648.7052 881.0862 644.5696 879.2979 640.4341 877.5096 637.9751 877.0625 637.4163 872.4799 636.2986 866.4442 637.9751 865.103 641.7754 865.4383 646.4697 864.5441 650.8288 857.7261 659.547 850.908 665.2473 849.5668 665.8062 843.4194 668.1534 834.7012 668.7122 821.7358 666.8121 815.4766 666.8121 807.8761 669.1593 802.3993 670.6123 796.0284 671.2829 784.2924 670.7241 779.7098 669.0475 771.327 663.5707 767.7503 661.7824 762.8323 661.4471 752.7729 663.2354 745.2843 663.459 741.9311 665.5826 739.4722 665.3591 738.6898 663.459 738.1309 656.5292 737.0132 654.5173 733.4365 653.5113 721.3652 651.9465 706.3879 647.1404 701.8053 646.5815 698.6757 646.1344 689.734 646.9168 680.6805 651.1641 666.4856 664.1296 658.1028 667.1474 655.1967 666.0297 642.0077 658.8763 641.1135 657.4233 640.4429 654.7408 639.2134 652.2818 636.3074 651.1641 634.6308 652.1701 630.607 656.7527 628.7069 658.2057 603.3349 665.6944 591.3754 672.1771 587.6869 674.8596 581.2042 679.7776 578.0746 683.3542 576.5098 688.2722 576.1745 696.9903 576.0627 698.7787 575.2803 702.6906 569.9153 710.8499 555.8321 724.486 550.4671 734.3219 550.3553 734.3219 550.3553 734.4337 535.4898 744.8284 531.466 749.7463 530.7954 754.1054 530.6836 759.8057 529.3424 765.7296 524.3127 770.8711 520.9595 771.6535 513.0238 773.33 492.4579 768.7474 481.2807 773.8889 480.4983 775.9008 479.6042 782.7188 478.0394 785.6249 476.1393 786.2955 470.4389 785.9602 468.0917 786.4073 464.1798 789.5369 454.9028 798.8139 451.4378 801.0493 440.3725 798.9256 422.9362 783.1659 421.3714 782.9424 391.1932 778.695 381.4691 778.9186 372.0803 783.1659 357.6618 797.5844 351.5144 801.0493 338.1019 803.9553 324.4658 803.9553 318.4301 802.7259 303.8999 799.5963 293.6169 799.0374 265.5624 807.532 207.3296 809.8792 207.2178 796.0196 203.9765 786.1837 197.2702 779.701 177.5985 773.8889 156.6972 770.7593 156.3619 770.8711 148.6497 772.7712 135.4607 783.9483 128.4191 786.7426 118.4715 784.5072 114.336 781.0422 109.0827 776.4596 103.3824 764.3883 95.6702 734.2101 88.0697 699.8964 84.046 691.4018 79.6869 688.1604 76.222 687.6015 75.2161 687.4898 70.1864 687.7133 64.8213 687.1545 61.6917 685.7014 53.5325 681.9012 50.7382 674.7479 50.9617 665.3591 49.0616 653.5113 42.6906 641.3283 28.0486 620.5388 23.1307 607.1263 16.4244 578.7364 14.3008 562.8649 14.4125 561.7472 15.7538 551.4642 21.4541 553.2526 27.1545 549.7877 32.2959 543.1932 36.0961 536.0398 38.8904 527.2099 39.0022 520.0565 38.5551 518.8271 36.5432 513.5738 31.8488 506.8675 28.831 504.8557 22.2365 503.738 19.4422 501.3908 18.6598 498.4847 17.8774 489.8783 16.5362 485.8546 15.7538 484.4015 11.5065 476.1305 8.4887 473.0009 4.0178 470.989 1.2235 463.0532 2.453 448.8583 1 441.2579 20.2246 437.0106 26.0367 434.6634 31.29 431.422 34.6431 427.9571 36.7668 422.4803 36.7668 421.3626 36.7668 417.7859 28.3839 393.1963 26.3721 381.9074 23.2425 343.5699 24.3602 337.9813 27.6015 330.9397 31.4018 325.6865 40.6788 316.633 43.2495 312.0504 42.9142 308.4737 42.2436 300.985 39.114 287.5725 39.2257 284.6664 39.5611 275.8365 49.6205 269.6891Z" />
</svg>