<?xml version="1.0" encoding="utf-8"?>
<svg xmlns="http://www.w3.org/2000/svg" viewBox="0 0 464 1024" style="stroke-width:0.25px;stroke-linejoin:round;stroke:#444;fill:#ddd" fill-rule="evenodd">
  <path class="MM" d="M21.8232 373.5155L22.2703 373.4037 22.6056 373.1802 22.9409 372.9567 23.2762 372.6213 23.8351 371.8389 24.5057 371.6154 25.0646 371.6154 25.6234 371.2801 26.0705 370.4977 26.0705 369.8271 25.9587 369.0447 25.9587 368.1505 26.1823 367.1446 26.4058 367.1446 26.6294 367.2563 26.8529 367.1446 26.8529 366.5857 26.7411 365.0209 26.8529 364.2385 27.3 363.9032 28.5295 364.2385 31.7708 366.5857 35.124 369.8271 36.0182 371.0565 36.4652 372.6213 36.6888 374.1861 37.2476 374.745 37.8065 374.1861 38.2536 372.6213 38.7007 371.3919 39.3713 371.1683 40.2655 371.6154 40.9361 372.6213 41.1596 372.9567 41.4949 373.0684 41.8303 373.0684 42.1656 372.8449 42.2773 372.7331 42.3891 372.6213 42.3891 372.1743 42.3891 371.8389 42.2773 371.3919 42.1656 371.0565 41.8303 370.3859 41.7185 369.6035 41.7185 368.9329 42.7244 367.0328 43.1715 366.6975 43.8421 366.4739 44.7363 366.1386 44.6245 365.6915 44.6245 362.0031 44.6245 361.556 44.7363 361.2207 45.2952 360.9971 45.7422 360.9971 47.0835 361.2207 48.0894 361.556 48.7601 362.0031 49.5425 362.3384 50.6602 362.0031 49.6542 360.3265 49.766 359.6559 49.766 359.5441 49.9895 359.6559 51.1073 359.097 51.6661 358.9853 52.0014 358.7617 52.225 358.0911 52.3367 357.5322 51.8897 351.0495 51.219 348.8141 49.4307 346.914 48.9836 346.0198 48.5365 344.1197 48.4248 342.8902 48.9836 340.7666 49.0954 339.5371 48.7601 338.4194 47.6424 336.4075 47.1953 335.4015 47.0835 334.1721 47.5306 329.813 49.2072 328.2482 49.3189 328.36 49.766 327.1305 51.6661 324.895 52.3367 323.7773 52.4485 322.7714 52.1132 321.6537 51.1073 319.6418 50.7719 318.5241 50.4366 316.9593 50.5484 315.5063 51.219 314.5003 52.4485 313.9415 53.4545 314.2768 54.2369 315.0592 54.9075 316.0651 56.0252 316.9593 57.3664 316.8475 58.5959 316.2887 59.6019 315.3945 60.3843 314.3886 62.5079 310.0295 62.5079 309.3589 62.3961 308.6882 62.3961 307.7941 62.8432 304.1056 62.6197 301.7584 62.6197 300.7525 62.955 299.8583 63.9609 298.5171 64.1845 297.9582 64.1845 297.5111 64.0727 296.8405 63.7374 293.5991 63.8492 292.0343 65.414 281.3043 65.3022 279.516 65.0787 278.9571 64.408 277.9512 64.0727 277.3923 62.5079 276.2746 61.7255 269.7919 61.7255 267.78 61.6138 266.8858 61.3902 266.5505 61.0549 266.2152 60.6078 265.6563 59.4901 263.868 59.1548 262.9738 58.8195 261.9679 58.8195 260.7384 58.8195 259.7325 58.8195 259.3971 59.1548 258.1677 59.8254 257.2735 61.1667 256.7146 62.1726 257.3853 63.6256 259.6207 64.1845 260.2913 65.7493 261.9679 66.0846 262.7503 66.3081 263.4209 66.6435 263.9798 67.6494 264.0915 68.6553 263.9798 70.2201 263.0856 71.1143 262.7503 71.4496 262.9738 71.6732 263.3091 72.0085 263.6444 72.4556 263.5327 72.7909 263.1974 73.0144 262.862 73.238 262.415 73.3497 261.9679 74.5792 261.1855 77.0382 261.0737 79.6089 261.409 81.2855 261.9679 83.2974 264.7622 84.3033 265.321 88.4388 264.7622 89.8919 265.0975 91.3449 265.6563 93.0215 266.1034 94.2509 266.327 97.157 268.0035 97.9394 268.5624 98.7218 269.6801 99.3924 270.4625 100.2866 270.5743 100.9572 269.9036 101.069 269.6801 101.1807 268.5624 101.1807 267.3329 101.1807 266.2152 101.7396 265.0975 103.975 261.9679 104.1986 261.1855 104.5339 259.0618 104.7574 258.503 105.2045 257.8323 105.4281 256.9382 105.6516 254.9263 106.2105 252.8026 108.7812 246.8788 109.0047 245.8728 109.1165 244.0845 109.34 243.1903 109.7871 242.6315 110.7931 241.9608 111.1284 241.5138 111.2402 240.9549 111.0166 240.0607 111.1284 239.7254 111.6872 239.0548 112.2461 238.6077 112.6932 237.9371 112.805 235.7017 113.252 235.031 113.8109 234.5839 114.5933 234.0251 115.2639 231.2308 115.5992 230.4484 116.2699 229.7778 118.5053 228.3248 119.1759 227.0953 120.1818 223.1833 120.6289 222.2891 121.4113 222.1773 121.9702 222.1773 122.6408 222.0656 123.3114 221.7303 123.9821 220.9479 124.3174 219.9419 124.5409 218.936 124.5409 217.93 124.8762 216.2535 126.8881 213.4592 127.6705 212.0062 128.6765 207.2 129.4589 206.0823 130.4648 204.2939 130.6883 201.9468 130.353 199.5996 129.4589 198.0348 127.5587 197.1406 125.5469 196.6935 123.7585 196.0229 122.529 194.2345 122.3055 191.9991 125.3233 183.6163 126.441 181.7162 127.447 180.5985 127.8941 180.1514 129.5706 178.9219 130.5766 178.5866 132.3649 178.363 133.2591 178.1395 134.1532 177.3571 135.4945 175.2334 136.1651 174.3393 136.6122 174.1157 137.6182 174.1157 138.177 173.7804 138.177 173.5569 137.7299 173.1098 137.8417 172.7745 137.9535 172.5509 138.5123 172.3274 138.7359 172.1039 143.3185 165.2858 143.6538 164.8387 144.2127 164.727 145.2186 164.5034 145.6657 164.2799 146.001 163.1622 145.8892 161.9327 144.8833 156.1206 144.995 155.0029 145.3304 153.7734 145.8892 153.2145 147.7893 152.5439 148.5717 151.985 150.8072 149.6378 152.3719 147.626 152.9308 146.5083 152.9308 145.3905 152.2602 144.6081 150.4718 144.0493 149.6894 143.4904 149.2424 139.6902 149.4659 139.1314 149.8012 138.6843 150.0248 138.349 149.913 137.9019 149.4659 137.6783 149.0188 137.5666 148.6835 137.343 148.2364 137.0077 147.5658 135.3311 147.3422 133.0957 147.454 130.7485 147.7893 128.9602 148.5717 127.0601 148.5717 126.2777 148.3482 125.16 147.454 123.2598 147.3422 122.3657 148.0129 121.248 148.7953 120.5773 150.3601 118.9008 150.8072 118.0066 151.1425 117.4477 151.1425 117.0007 151.1425 116.6653 151.366 115.1006 151.4778 114.6535 152.0366 114.0946 152.4837 113.8711 153.6014 113.6475 154.0485 113.3122 154.4956 112.8651 155.1662 111.8592 155.7251 111.4121 156.6193 111.3003 157.4017 112.418 157.8487 112.5298 158.5194 112.5298 159.4135 112.3063 161.3136 111.3003 165.2256 110.0708 166.1198 109.512 167.6846 107.6119 168.8023 105.1529 170.1436 103.2528 172.2672 102.6939 173.4967 102.9175 174.5026 102.9175 175.3968 102.5822 175.9557 101.3527 176.5145 100.0114 177.0734 99.229 177.8558 99.0055 180.203 98.6702 180.8736 98.4466 181.3207 97.776 182.6619 95.4288 184.8974 92.7463 186.2386 92.1875 189.1447 91.6286 190.4859 90.958 191.9389 89.505 193.0567 87.9402 194.845 84.2517 196.8569 81.5692 199.9865 79.3338 203.4514 77.769 216.9757 75.4218 220.3288 75.5336 221.1112 75.8689 222.2289 75.7571 223.2349 75.4218 224.0173 74.9747 225.0232 73.6334 225.4703 72.7393 226.0292 72.2922 227.4822 72.5157 227.9293 72.851 228.1528 73.0746 228.5999 73.2981 229.1587 73.1864 229.7176 72.9628 230.6118 71.9569 231.1706 71.7333 232.0648 71.8451 233.0707 72.0686 234.7473 72.9628 235.6415 73.5217 236.3121 74.3041 237.4298 76.0924 237.9887 76.8748 239.6652 78.2161 239.8888 78.6631 239.5535 79.7809 238.9946 80.7868 239.1064 81.681 240.2241 82.6869 247.2657 85.9283 247.7128 86.3754 248.0481 86.8224 248.3834 87.2695 249.054 87.4931 249.5011 87.4931 250.06 87.1578 250.507 87.046 250.9541 86.9342 251.6248 87.1578 252.0718 87.6048 252.5189 87.7166 253.1895 87.4931 253.3013 87.1578 253.8602 85.593 253.9719 85.1459 253.6366 84.587 253.1895 84.2517 252.7425 83.9164 252.4072 83.5811 252.2954 83.0222 252.1836 82.0163 251.9601 81.5692 250.507 80.0044 242.236 69.0508 241.0065 67.0389 240.7829 65.9212 241.4536 64.2447 241.4536 63.4623 241.23 62.9034 241.0065 61.8975 241.0065 61.3386 240.7829 60.7798 240.2241 59.8856 240.0006 59.3267 240.1123 58.0972 240.4476 56.9795 241.1183 55.9736 242.0124 55.303 244.0243 53.8499 244.9185 53.0675 246.595 50.8321 247.2657 50.385 248.9422 49.8262 249.6129 49.6026 249.9482 49.6026 250.1717 49.4909 250.2835 48.7085 250.3953 48.0378 250.7306 47.8143 251.7365 47.479 252.0718 47.1437 252.5189 46.2495 252.8542 46.026 253.3013 45.9142 253.7484 45.5789 256.3191 43.3435 257.1015 42.3375 257.7722 41.4433 258.4428 40.8845 259.337 40.4374 260.3429 40.1021 261.1253 40.2139 261.7959 40.9963 261.7959 41.7787 262.0195 42.114 263.1372 41.7787 264.0314 41.2198 264.2549 40.7727 264.1431 40.1021 264.1431 38.7608 264.3667 37.8667 265.2608 36.1901 265.4844 35.4077 265.1491 33.7311 262.6901 31.0486 262.0195 29.5956 262.243 27.5837 263.8078 24.1188 263.5843 22.554 264.0314 21.5481 265.9315 20.4304 266.2668 19.8715 266.6021 18.642 267.3845 18.4185 268.2787 18.5303 269.2846 18.5303 269.8435 17.8596 270.067 16.7419 270.067 14.5065 269.9552 13.9476 269.8435 13.5006 269.7317 12.9417 269.9552 12.3828 270.7376 11.6004 271.0729 11.1534 271.1847 10.4827 271.9671 9.5886 272.6377 7.4649 273.1966 6.459 273.979 4.4471 274.8732 4 275.9909 4.6706 277.1086 6.459 278.3381 7.2414 279.6793 6.2354 281.2441 5.5648 282.6971 6.9061 284.709 12.9417 286.0503 14.73 287.6151 15.1771 290.8564 13.7241 292.7565 14.5065 295.2155 17.8596 296.8921 18.8656 297.6745 19.5362 297.6745 20.5421 297.2274 22.1069 297.5627 22.7776 299.5746 23.0011 300.4688 23.56 303.8219 26.8013 304.0454 26.9131 304.4925 27.919 304.4925 29.0367 304.269 34.1782 304.0454 35.4077 303.4866 36.6372 303.7101 37.3078 305.6102 38.3138 306.3926 39.0961 307.0633 40.1021 306.9515 40.9963 305.9455 41.4433 305.1631 42.114 305.3867 43.1199 306.2809 44.1259 307.9574 45.2436 308.181 45.8024 308.0692 46.5848 308.0692 47.7025 308.2927 48.2614 308.6281 48.5967 308.7398 48.932 308.2927 50.2733 308.4045 50.8321 310.0811 53.5146 310.9752 55.303 311.9812 59.7738 312.9871 61.7857 314.6637 62.5681 316.5638 62.0092 317.458 60.668 318.0168 58.8796 318.2404 56.9795 318.2404 54.8559 318.3521 53.7382 318.911 53.2911 319.4699 53.4029 322.1524 54.8559 323.0465 55.6383 324.6113 54.8559 325.6173 55.6383 326.735 57.8737 327.4056 58.5443 328.7469 58.5443 329.4175 58.209 329.8646 57.7619 330.3117 57.4266 330.9823 57.4266 331.4294 57.7619 331.8765 58.209 332.3235 58.8796 332.5471 59.4385 332.6589 60.5562 332.1 62.9034 331.9882 65.2506 332.3235 70.3921 332.4353 70.9509 332.7706 71.0627 333.2177 71.0627 333.4413 71.398 334.0001 73.1864 333.8883 75.0865 332.6589 78.8867 332.3235 80.5633 332.2118 82.4634 332.7706 86.1518 333.2177 87.1578 333.7766 87.4931 334.4472 87.7166 335.2296 88.499 335.5649 89.7285 335.2296 90.7344 334.6707 91.6286 334.2237 92.7463 335.4531 97.776 335.4531 98.3349 335.3414 98.8937 334.559 99.7879 334.3354 100.3468 334.559 101.4645 335.7884 103.2528 336.2355 104.3705 336.1238 105.4882 335.3414 107.6119 335.2296 108.8414 336.012 110.6297 336.012 111.1886 336.012 111.6356 336.012 112.0827 336.2355 112.6416 336.4591 113.8711 336.1238 114.9888 335.0061 116.8889 334.6707 118.789 334.4472 126.1659 334.3354 127.2836 334.0001 128.2895 333.553 129.2955 331.4294 131.6427 331.0941 132.8722 330.7587 133.9899 330.647 134.884 330.9823 135.4429 331.9882 135.3311 332.4353 135.7782 333.6648 138.5725 333.8883 139.4667 333.6648 140.0255 333.2177 140.2491 332.8824 140.5844 332.9942 141.8139 332.6589 142.2609 330.7587 143.8257 330.0881 143.8257 329.7528 143.2669 329.8646 141.1432 329.5293 141.1432 328.6351 141.4785 326.6232 141.9256 325.9526 142.4845 325.729 143.3787 325.8408 144.3846 326.1761 145.2788 327.1821 147.2906 327.4056 148.4084 327.2938 149.6378 327.6292 150.3085 328.188 150.4202 328.7469 150.3085 329.3057 150.532 329.8646 151.0909 331.5411 153.5498 331.9882 154.6675 332.2118 154.8911 332.8824 155.1146 333.1059 155.4499 333.2177 156.2323 333.1059 157.0147 332.8824 157.6854 332.5471 158.2442 329.8646 160.2561 329.0822 160.5914 328.5233 160.5914 328.0762 160.3679 326.6232 159.809 325.5055 158.8031 324.8349 158.4678 323.9407 158.5795 323.3818 158.9149 322.1524 160.3679 321.4817 160.9267 321.0347 161.9327 320.364 163.8328 320.0287 164.2799 319.5816 164.6152 319.3581 164.9505 319.2463 165.6211 319.1345 166.2917 319.0228 166.7388 317.1227 169.1978 316.7873 169.8684 316.1167 172.4392 315.6696 173.2216 314.8872 173.8922 313.8813 174.3393 312.7636 174.7864 312.093 174.6746 310.5282 173.1098 309.8575 172.7745 305.6102 171.2097 305.1631 171.3215 305.0514 171.9921 305.0514 174.7864 304.8278 175.6805 304.269 176.3512 303.263 177.2453 303.0395 177.5806 303.0395 178.0277 303.263 179.4807 303.4866 179.9278 303.7101 180.4867 303.5983 182.7221 303.7101 183.5045 303.4866 183.8398 302.5924 184.0634 301.81 184.6222 301.1394 185.8517 300.2452 188.1989 299.6864 188.8695 297.5627 189.8755 296.7803 190.4343 294.4331 193.4521 293.4272 194.1228 292.3095 194.2345 291.8624 193.7875 291.4153 193.0051 290.8564 191.9991 288.9563 191.105 287.8386 192.4462 286.6091 196.8053 285.4914 199.376 284.5972 200.7173 283.8149 201.2761 282.9207 201.6114 282.6971 202.0585 282.9207 204.1822 282.9207 207.9824 283.1442 209.8825 283.9266 211.5591 285.8267 213.0121 286.3856 213.9063 286.0503 215.024 285.1561 215.4711 284.0384 215.4711 282.0265 215.1358 280.9088 215.3593 279.7911 216.0299 277.7792 217.7065 274.4261 220.0537 274.3143 220.0537 274.2025 221.2832 274.5378 228.3248 273.1966 235.9252 273.1966 237.2664 273.5319 237.7135 277.6674 237.0429 278.8969 237.0429 279.6793 237.1547 280.0146 237.6018 280.2382 238.1606 280.4617 238.7195 280.5735 239.2783 280.797 239.949 281.6912 240.6196 282.1383 241.1784 282.1383 242.4079 281.3559 242.7432 280.3499 242.855 279.5675 243.4139 279.9029 244.8669 283.7031 246.2081 283.9266 248.22 283.7031 248.6671 283.256 249.0024 282.9207 249.3377 282.8089 249.8966 282.9207 250.5672 283.7031 251.5732 283.9266 252.132 283.7031 253.4733 283.1442 254.7028 273.4201 264.8739 274.2025 265.9916 276.2144 266.8858 278.1145 268.2271 278.4498 268.6741 278.6734 269.233 278.8969 270.2389 279.4558 269.3448 280.0146 269.0095 280.4617 268.7859 281.5794 268.4506 282.5854 268.0035 285.1561 265.4328 286.162 264.6504 287.2798 264.3151 288.0622 264.2033 288.7328 264.0915 289.627 263.3091 291.7506 260.9619 292.4212 260.4031 303.3748 256.044 307.175 255.1498 309.1869 255.1498 312.8754 256.1558 314.7755 256.1558 315.6696 255.8205 317.2344 254.9263 318.1286 254.591 320.1405 254.4792 322.1524 254.591 323.6054 254.9263 325.6173 256.4911 327.0703 257.1617 327.7409 257.497 328.4116 257.0499 329.1939 256.8264 330.5352 256.044 332.6589 255.7087 334.4472 254.9263 339.5887 254.4792 341.4888 253.9204 342.0476 253.585 342.1594 253.6968 342.4947 255.3734 341.6006 257.0499 336.9062 260.1795 334.4472 262.415 333.553 262.7503 332.5471 263.0856 331.7647 263.4209 331.5411 263.868 331.8765 264.3151 332.3235 265.2092 332.2118 265.6563 331.8765 267.1094 331.7647 267.78 332.2118 271.9155 331.9882 272.3626 331.7647 272.6979 331.7647 273.0332 332.4353 273.5921 332.8824 273.7039 334.0001 273.7039 335.5649 274.2627 337.5768 274.598 338.3592 275.1569 338.6945 276.051 338.6945 278.8453 339.1416 279.7395 341.2652 283.2044 341.6006 283.4279 341.6006 283.7633 341.2652 284.5457 340.9299 284.881 338.471 286.334 337.9121 286.8928 337.6886 287.6752 338.6945 290.5813 339.2534 290.9166 340.2593 290.5813 341.1535 290.5813 341.9359 291.3637 342.6065 292.4814 343.2771 294.7168 343.3889 295.8345 343.2771 296.8405 342.83 297.8464 342.4947 298.1817 341.8241 298.4053 341.377 298.6288 341.4888 299.1877 341.8241 299.4112 343.6124 299.2994 344.3948 300.7525 341.8241 305.4469 341.7123 307.347 345.5125 307.6823 347.4127 308.2411 348.4186 308.3529 349.4245 308.2411 350.2069 308.3529 350.5422 309.1353 350.8776 310.1413 351.66 311.1472 352.6659 311.5943 353.5601 311.5943 355.4602 311.3707 355.9073 311.3707 357.2485 311.8178 358.0309 311.9296 358.1427 311.9296 358.2545 311.9296 358.8133 311.9296 359.0369 312.1531 359.0369 313.1591 359.1486 313.4944 359.5957 313.8297 359.931 314.0532 360.3781 314.0532 360.937 313.8297 362.0547 312.8238 362.5018 312.6002 363.3959 312.3767 363.843 311.9296 364.2901 311.0354 364.849 310.253 365.8549 310.0295 366.7491 310.5883 368.3139 312.712 369.4316 313.4944 373.2318 313.6062 374.0142 314.0532 374.126 314.8356 373.9024 315.618 373.9024 316.5122 374.2377 317.5182 376.1378 319.9771 376.2496 321.3184 375.1319 322.3243 373.5671 322.2125 370.7728 320.7595 369.9904 321.0948 369.8787 321.6537 370.1022 324.2244 369.9904 325.1186 369.4316 326.0128 368.2021 327.5776 367.1961 329.7012 366.7491 330.0365 366.0784 330.2601 365.5196 330.4836 365.0725 330.8189 364.6254 331.266 364.6254 332.719 366.9726 338.8664 367.0844 339.9842 366.5255 341.8843 366.4138 343.002 366.5255 343.5608 367.0844 344.455 367.0844 345.1256 366.8608 345.6845 366.4138 346.3551 363.2842 349.7083 361.2723 350.7142 360.937 351.3848 361.1605 351.8319 361.384 352.1672 361.4958 352.8378 361.2723 353.6202 360.3781 354.6262 360.0428 355.2968 359.3722 357.9793 359.0369 358.8735 357.3603 361.1089 357.025 362.2266 357.8074 363.1208 356.2426 363.9032 357.3603 365.1327 359.7075 366.1386 361.7194 366.6975 365.7431 367.0328 367.4197 366.921 370.5493 365.5798 371.2199 365.468 373.9024 366.5857 374.573 366.6975 376.3614 366.4739 381.1675 367.7034 381.6146 367.927 381.9499 368.374 382.5088 369.38 382.7323 369.6035 383.7383 370.1624 384.1854 369.7153 384.7442 368.9329 385.7502 368.4858 386.5326 368.7094 389.6622 370.2741 389.9975 370.6095 390.3328 371.0565 390.6681 371.3919 391.3387 371.2801 391.7858 370.833 391.7858 369.7153 392.0094 369.2682 393.0153 369.1564 396.9273 369.8271 396.4802 370.4977 396.4802 371.2801 396.7037 372.0625 397.2626 372.6213 398.045 374.4097 397.4861 376.4216 395.6978 380.4453 395.586 381.6748 395.8096 382.6807 396.7037 384.5809 397.2626 387.5987 397.8215 388.4928 399.6098 389.4988 403.9689 389.6106 405.9807 390.2812 406.6514 390.84 407.0985 391.2871 407.2102 391.6224 407.0985 392.0695 406.7631 392.2931 406.2043 392.4048 405.6454 392.6284 405.0866 393.4108 404.6395 394.305 404.3042 395.3109 404.1924 396.0933 404.1924 396.9875 404.416 398.1052 404.7513 399.3347 405.3101 400.0053 406.3161 400.6759 408.1044 403.2466 409.3339 403.6937 409.8927 403.3584 411.5693 402.1289 412.2399 401.6818 413.8047 401.123 414.5871 400.6759 415.146 400.0053 415.2578 400.0053 415.8166 398.9993 416.3755 398.4405 417.2696 398.1052 418.2756 397.9934 419.3933 398.2169 420.1757 398.664 421.6287 400.0053 421.964 400.8994 422.4111 401.7936 423.0817 402.2407 423.9759 402.1289 425.0936 401.7936 427.5526 402.3525 428.8938 402.2407 431.4646 401.4583 432.6941 400.7877 433.4765 400.0053 435.6001 398.8876 438.2826 395.8697 440.4063 392.8519 442.3064 391.0636 444.43 390.0576 449.4597 388.6046 450.3539 388.1575 452.9246 386.2574 453.4835 385.8103 454.2659 385.3633 454.9365 385.1397 456.7249 385.475 457.0602 386.3692 457.1719 389.0517 457.619 389.6106 458.2897 390.0576 458.9603 391.0636 459.2956 392.1813 459.1838 392.9637 459.5191 393.6343 459.2956 394.305 458.7367 394.9756 458.5132 395.9815 458.8485 396.8757 458.9603 397.8816 458.7367 398.664 457.9543 398.9993 450.9128 404.9232 446.1066 407.3822 445.436 407.6057 443.7594 409.3941 443.2006 409.8411 441.3004 410.6235 440.071 410.8471 439.1768 410.4 438.7297 410.1765 438.2826 409.9529 437.8355 409.9529 437.3884 409.8411 436.7178 410.0647 436.6061 410.5118 436.6061 411.0706 436.4943 411.7413 434.9295 418.3358 432.247 423.2537 431.6881 424.1479 430.6822 424.7067 428.4468 425.1538 427.4408 425.6009 428.1114 427.0539 428.2232 427.501 427.8879 427.8363 426.9937 428.5069 426.7702 428.7305 426.6584 429.96 426.2113 432.1954 426.0996 433.2013 426.9937 433.8719 431.5763 433.0895 433.0294 433.4249 433.0294 433.7602 431.6881 434.9897 430.7939 435.7721 430.3469 436.1074 428.7821 437.0015 427.1055 437.5604 425.9878 437.5604 423.7524 437.0015 419.3933 436.2191 418.3873 436.4427 417.7167 437.1133 417.2696 438.0075 416.599 438.6781 414.5871 439.3487 413.8047 440.0194 412.4635 441.6959 411.1222 442.9254 410.5634 443.4843 410.3398 444.4902 410.1163 445.1608 408.9986 446.7256 408.6633 447.6198 408.6633 448.2904 407.9926 449.7435 407.4338 451.6436 406.7631 456.4497 406.3161 458.2381 406.2043 459.3558 405.9807 460.3617 405.4219 461.0323 404.863 461.8147 404.7513 462.4854 404.7513 463.2678 404.863 464.1619 402.6276 462.7089 402.1805 462.1501 401.957 461.5912 401.6217 461.1441 400.951 460.697 400.2804 460.5853 399.6098 460.5853 399.0509 460.3617 398.4921 459.6911 398.045 459.244 397.8215 458.6851 397.7097 458.2381 397.3744 457.791 396.8155 457.3439 396.592 457.2321 396.3684 457.3439 393.5741 457.791 392.4564 458.2381 391.5623 458.7969 391.0034 459.5793 390.3328 461.5912 389.7739 462.4854 388.9915 463.2678 388.0974 463.6031 385.9737 463.6031 384.9678 463.8266 383.0677 464.609 382.0617 464.7208 381.6146 464.609 380.8322 464.1619 380.3851 463.9384 379.8263 463.8266 378.9321 464.0502 378.3733 463.9384 374.4613 462.7089 372.0023 460.9206 371.3317 460.697 370.3257 461.0323 370.7728 461.9265 372.6729 463.9384 373.12 464.9443 373.6789 468.0739 375.3554 469.8623 375.6908 470.7564 375.3554 472.0977 374.9084 473.1036 374.7966 473.1036 374.3495 473.4389 373.6789 473.7743 373.0083 474.4449 371.3317 475.8979 365.296 477.798 363.9548 478.0216 362.9488 477.4627 360.937 475.7861 360.0428 475.4508 357.9191 474.7802 356.9132 474.6684 354.9013 475.0037 352.6659 475.8979 350.7658 477.3509 349.7598 479.1393 349.201 482.9395 349.201 483.3866 349.5363 484.3925 349.5363 484.9514 349.4245 485.1749 349.201 485.5102 348.9774 485.8455 348.8657 486.4044 348.9774 487.7457 349.3128 488.7516 349.3128 489.7575 348.9774 491.0988 348.3068 492.2165 347.5244 492.8871 345.6243 493.6695 343.7242 495.0108 342.9418 495.2343 342.0476 493.6695 341.377 493.1107 340.5946 492.5518 339.1416 491.8812 336.1238 494.2284 335.1178 494.5637 330.647 495.2343 329.7528 495.5696 329.3057 496.0167 328.4116 497.1344 328.0762 497.4697 326.9585 497.6933 325.9526 498.0286 325.3937 498.4757 325.282 498.9228 325.0584 498.9228 324.276 498.5875 323.7172 498.1404 323.2701 497.5815 322.823 497.2462 322.2641 497.358 322.1524 497.358 320.364 498.2521 318.0168 498.3639 315.6696 498.1404 313.6578 498.1404 311.3106 499.2581 310.0811 499.5934 309.1869 498.9228 308.9634 498.3639 309.0751 497.2462 308.8516 496.6873 308.5163 496.4638 306.7279 495.905 304.7161 494.1166 303.7101 493.446 302.3689 493.6695 301.6982 493.446 301.0276 492.5518 300.357 491.7694 299.2393 492.1047 298.904 492.7754 298.2333 496.352 298.2333 497.358 298.6804 499.2581 298.6804 500.264 298.4569 500.9347 298.0098 501.0464 297.4509 501.0464 296.8921 501.27 296.445 501.6053 295.7744 502.4994 295.3273 502.9465 292.1977 504.5113 291.3035 504.6231 290.2976 504.8466 289.8505 505.5173 289.7387 506.4114 289.8505 507.5292 290.074 508.1998 290.2976 508.4233 290.2976 508.7586 289.9623 509.541 289.5152 510.0999 287.8386 511.6647 286.162 514.0119 286.162 514.3472 286.4974 515.4649 286.6091 515.912 286.9444 517.2532 287.6151 518.2592 288.0622 519.1534 287.7268 520.2711 287.2798 520.4946 286.6091 520.3828 286.162 520.4946 285.9385 521.0535 286.2738 521.5006 287.6151 522.6183 288.0622 523.1771 288.3975 524.1831 288.621 525.189 288.3975 529.3245 288.0622 530.1069 287.2798 531.0011 284.1502 533.4601 283.5913 534.466 283.256 536.4779 282.9207 537.3721 282.1383 538.1545 281.1323 538.9369 280.5735 539.3839 280.797 540.0546 281.9147 541.1723 283.1442 542.1782 283.7031 542.7371 283.9266 543.4077 283.7031 544.749 283.7031 545.196 284.3737 547.2079 284.4855 548.2139 284.5972 549.3316 284.8208 551.3435 285.3796 553.4671 285.715 555.7025 285.3796 557.8262 285.0443 558.4968 284.9326 558.6086 284.5972 558.4968 282.2501 559.1674 279.5675 559.1674 278.5616 559.391 274.9849 561.8499 272.973 562.7441 270.6259 562.7441 269.3964 562.9677 268.8375 562.8559 268.2787 562.5206 268.0551 562.1853 267.9433 561.7382 266.8256 560.0616 266.3785 559.7263 266.0432 559.7263 264.9255 559.5028 265.2608 560.1734 266.3785 561.1793 266.9374 562.1853 267.1609 562.9677 268.3904 565.4266 269.6199 567.4385 269.8435 568.668 269.8435 569.8975 270.067 571.2387 270.8494 572.4682 271.8553 573.4741 272.973 574.2565 273.979 574.9272 274.4261 574.4801 274.6496 574.033 275.6556 571.4623 275.6556 571.3505 276.3262 571.2387 278.8969 572.3564 279.5675 572.6917 279.9029 573.4741 279.7911 574.4801 279.4558 575.2625 278.6734 575.5978 278.5616 576.1567 279.1205 577.2744 281.6912 580.9628 281.9147 581.2981 281.9147 581.6334 281.9147 582.0805 282.0265 582.6394 282.5854 583.6453 282.6971 584.2042 282.5854 584.5395 282.3618 585.0983 282.3618 585.3219 282.4736 585.769 282.5854 585.8807 282.8089 585.769 283.0325 585.8807 283.7031 586.2161 283.8149 586.4396 284.0384 587.1102 284.709 588.8986 284.9326 589.2339 285.1561 589.4574 285.3796 590.1281 285.4914 590.7987 285.2679 591.0222 285.1561 591.2458 283.7031 592.1399 282.2501 594.7107 282.0265 595.4931 282.6971 598.0638 281.4677 598.1756 281.9147 598.958 282.5854 599.4051 283.0325 600.0757 283.256 600.7463 283.5913 601.4169 284.8208 602.4229 285.2679 602.9817 285.3796 603.5406 285.3796 604.2112 285.3796 604.8818 285.715 605.5525 286.2738 606.2231 293.3154 612.9294 294.6567 614.1589 295.3273 614.6059 296.5568 615.1648 297.1156 615.5001 297.5627 616.059 297.7862 616.8414 298.904 618.6297 299.4628 620.1945 299.7981 620.8651 300.4688 621.6475 301.1394 621.9828 301.9218 622.2064 302.4806 622.6535 302.816 623.3241 302.816 623.9947 302.5924 625.1124 302.7042 625.8948 303.1513 626.3419 307.5103 630.5892 308.2927 631.0363 309.1869 631.8187 311.087 634.3894 312.2047 635.1718 311.7576 635.7307 311.5341 636.2895 311.6459 636.7366 312.9871 636.7366 312.9871 637.1837 312.7636 637.6308 312.54 637.8543 313.2107 639.0838 313.8813 639.7545 314.7755 639.978 317.3462 640.0898 318.3521 640.3133 319.2463 640.9839 320.1405 641.8781 320.6993 642.6605 321.5935 644.4488 322.1524 645.1195 322.4877 645.7901 322.4877 646.6843 322.5994 647.4667 323.4936 647.9138 323.9407 648.2491 324.276 648.9197 324.7231 650.4845 324.0525 649.9256 323.4936 649.8139 323.0465 650.0374 322.9348 650.8198 323.1583 651.4904 323.6054 651.714 324.1642 651.9375 324.4996 652.3846 324.3878 652.9435 323.7172 653.6141 322.9348 654.1729 322.1524 654.3965 321.4817 655.2906 321.1464 656.2966 321.2582 657.1908 322.7112 658.4202 323.0465 658.9791 323.3818 660.4321 324.0525 661.4381 325.8408 662.6675 326.6232 663.6735 326.735 664.2323 326.8468 664.6794 326.8468 665.1265 326.735 665.6854 326.735 666.356 327.0703 666.8031 330.0881 671.0504 330.5352 671.9446 330.4234 672.5034 329.9763 673.6211 329.9763 674.18 330.647 675.7448 331.4294 679.545 331.7647 680.4392 332.7706 681.1098 333.553 680.4392 335.1178 678.2037 338.1356 675.7448 338.8063 674.5153 339.2534 672.2799 339.7004 671.3857 340.7064 670.4915 340.9299 672.3916 341.8241 673.2858 343.0536 674.0682 343.9477 675.2977 343.9477 676.3036 343.5007 678.6508 343.2771 680.998 342.9418 681.8922 341.4888 683.5688 340.9299 684.5747 340.5946 685.5806 340.4828 686.6983 340.4828 687.9278 340.2593 688.3749 339.0298 689.7162 338.5827 690.0515 337.8003 690.1633 337.465 689.9397 337.2415 689.6044 336.5708 689.2691 333.4413 688.822 332.5471 688.9338 331.5411 689.3809 331.0941 690.275 330.7587 691.3927 330.0881 692.3987 329.5293 692.8458 329.0822 693.0693 328.6351 693.1811 328.0762 693.1811 327.5174 692.9575 326.8468 692.734 326.2879 692.6222 325.8408 693.0693 325.9526 693.7399 327.4056 695.7518 327.7409 696.7578 327.5174 697.7637 326.9585 699.7756 326.9585 701.1168 327.2938 703.3523 327.1821 704.2464 325.6173 709.6114 325.5055 710.8409 325.729 712.741 325.729 713.6352 325.6173 716.653 326.8468 724.5888 326.9585 727.1595 326.5114 729.6185 325.1702 731.1833 324.9466 730.0656 324.276 729.2832 323.1583 728.6125 322.1524 728.1655 321.1464 728.7243 320.364 729.0596 318.5757 729.3949 318.2404 729.6185 318.1286 730.0656 318.3521 730.9597 318.3521 731.4068 318.0168 731.7421 317.5697 731.9657 317.5697 732.0774 317.3462 732.1892 317.2344 732.5245 317.2344 732.7481 317.3462 732.8598 317.6815 733.0834 317.9051 733.3069 318.1286 733.6422 318.1286 734.4246 317.9051 734.76 317.5697 734.8717 316.7873 734.6482 315.1108 733.5305 314.2166 733.1952 312.9871 732.9716 312.4283 733.0834 310.6399 735.6541 309.8575 736.4365 308.9634 736.8836 308.5163 736.8836 306.9515 736.7718 307.0633 737.4425 307.3986 738.2249 307.7339 739.0073 307.3986 739.9014 306.3926 741.8015 306.1691 742.8075 306.5044 744.037 308.0692 745.7135 308.4045 746.8312 308.181 747.3901 307.9574 747.8372 307.7339 748.396 307.7339 748.7314 307.7339 749.0667 307.9574 749.6255 308.9634 751.4139 309.2987 752.5316 309.1869 754.4317 309.2987 755.5494 309.4105 755.8847 309.9693 756.3318 310.1928 756.6671 310.1928 756.8906 309.9693 757.673 310.4164 758.679 313.0989 763.1498 319.2463 769.0737 319.9169 770.0796 320.364 771.1974 320.6993 772.5386 321.0347 773.2092 321.7053 773.5446 322.3759 773.8799 325.8408 781.145 328.188 784.1628 328.6351 784.4981 329.3057 784.9452 329.641 785.1688 330.4234 785.2805 330.7587 785.5041 331.0941 785.8394 331.7647 786.6218 332.1 786.9571 332.8824 786.9571 333.4413 786.7336 334.0001 786.8453 335.2296 789.3043 336.3473 790.5338 342.3829 795.1164 343.5007 795.5635 344.7301 795.8988 345.6243 796.5694 346.0714 797.3518 346.1832 798.5813 346.5185 799.4755 348.0833 801.4873 348.7539 802.4933 349.3128 803.611 349.7598 804.2816 351.3246 805.5111 351.5482 805.7347 351.7717 806.5171 351.9953 806.8524 352.2188 806.9641 353.0012 807.1877 353.2248 807.4112 353.4483 807.8583 353.5601 808.1936 353.5601 808.5289 353.4483 809.1996 353.4483 810.0937 354.0072 812.5527 354.4542 813.4469 356.1308 815.0117 356.3543 815.4587 356.6897 815.9058 356.6897 817.3589 356.4661 818.4766 356.6897 822.9474 358.478 830.9949 358.478 832.0009 358.2545 834.6834 358.3662 835.6893 358.3662 836.1364 358.1427 836.6953 357.9191 837.1424 357.6956 837.5894 357.6956 838.3718 358.3662 840.2719 358.5898 841.3897 358.478 842.2838 358.3662 842.2838 357.6956 842.9545 355.6837 843.178 354.6778 843.5133 354.1189 844.4075 354.1189 845.4134 354.2307 846.5311 354.1189 847.8724 353.6718 849.1019 353.4483 850.3314 353.6718 851.3373 354.7895 852.2315 355.6837 852.7903 356.5779 853.6845 357.2485 854.6904 357.3603 855.6964 357.2485 856.2552 356.9132 856.7023 356.8014 857.1494 356.6897 857.82 356.8014 858.3789 357.4721 859.9437 357.6956 861.5085 357.8074 862.0673 358.2545 862.6262 359.2604 863.6321 359.5957 864.191 359.8193 865.3087 359.7075 866.3146 359.8193 867.2088 360.3781 868.103 360.8252 868.3265 361.9429 868.5501 362.5018 868.8854 362.7253 869.3325 362.8371 870.4502 362.9488 870.7855 363.5077 871.1208 364.6254 871.4561 365.0725 871.7914 365.4078 872.3503 365.8549 872.9091 366.4138 873.3562 368.9845 874.8092 369.4316 875.4799 369.5433 875.927 369.6551 876.8211 369.6551 877.8271 369.4316 879.0565 369.3198 879.6154 368.7609 880.7331 368.6492 881.1802 368.7609 882.2979 369.9904 884.4216 370.3257 885.5393 370.4375 888.4453 370.6611 889.4513 370.8846 890.1219 371.667 891.0161 372.0023 891.5749 372.1141 892.1338 372.0023 893.1397 372.1141 893.6986 372.3376 894.1457 372.7847 895.2634 373.0083 895.7105 372.8965 896.4928 372.5612 896.9399 372.0023 897.387 371.7788 897.8341 371.8905 898.7283 372.6729 898.9518 375.4672 897.9459 376.0261 897.9459 376.4732 898.1694 376.6967 898.6165 376.5849 899.1754 376.3614 899.6224 376.2496 900.2931 375.4672 902.752 375.2437 904.2051 376.1378 904.8757 377.032 905.211 377.8144 905.8816 378.1497 906.7758 378.038 907.7817 377.2556 909.9054 377.1438 910.9113 377.4791 912.1408 378.1497 912.9232 379.0439 913.7056 380.0498 914.3762 380.8322 914.5998 380.944 915.0469 380.2734 918.5118 379.8263 919.7413 376.4732 924.2121 375.9143 924.6592 373.7906 924.8827 372.6729 925.1063 371.7788 925.5534 371.3317 926.4475 371.2199 927.677 371.3317 929.8007 371.1081 930.5831 370.6611 931.7008 370.1022 932.4832 368.6492 934.048 368.0903 934.8304 367.8668 936.1716 367.755 937.0658 367.4197 937.96 365.5196 939.9718 364.9607 940.7542 364.1783 942.8779 363.6195 944.1074 361.9429 946.0075 361.2723 947.237 359.7075 951.8196 359.3722 952.2667 358.2545 952.602 357.8074 952.9373 357.4721 953.3844 356.9132 954.5021 356.5779 954.9492 356.019 955.3963 355.6837 955.7316 353.6718 956.7375 352.7777 957.6317 352.5541 958.0788 352.107 959.6436 351.66 960.3142 351.2129 960.3142 350.654 959.9789 350.0952 959.8671 349.4245 959.7553 349.201 959.6436 348.9774 959.6436 348.5304 960.2024 348.195 960.6495 347.9715 961.0966 347.8597 961.6554 347.8597 962.2143 347.9715 962.8849 348.4186 963.8909 348.4186 964.6733 348.195 965.791 347.9715 966.1263 347.6362 966.5734 347.3009 966.5734 345.5125 967.4675 344.9537 967.3558 344.5066 967.244 344.0595 967.1322 343.3889 967.3558 342.9418 967.9146 342.7183 968.4735 342.4947 968.9206 342.1594 969.3677 341.8241 969.4794 340.7064 969.5912 340.2593 969.703 339.2534 970.5971 337.0179 973.615 336.4591 974.7327 336.012 976.9681 336.2355 977.6387 337.2415 978.5329 337.5768 979.0917 338.2474 982.3331 338.2474 983.3391 337.465 985.3509 337.0179 987.9217 336.012 991.0513 335.6767 991.2748 335.4531 991.4983 335.2296 991.8337 334.559 993.0631 333.7766 995.6339 333.4413 997.6458 332.9942 998.4282 331.8765 999.6576 330.7587 1001.2224 327.9645 1007.0345 326.5114 1009.1582 325.6173 1009.8288 325.282 1009.3817 325.1702 1008.9347 324.7231 1008.1523 324.4996 1007.7052 324.4996 1007.2581 324.4996 1006.1404 324.4996 1005.6933 324.1642 1004.0167 324.1642 1001.6695 323.1583 999.993 322.9348 999.3223 322.9348 998.987 322.9348 998.6517 323.8289 996.5281 324.0525 995.7457 324.276 993.2867 324.9466 991.4983 324.9466 990.3806 324.0525 987.3628 323.1583 985.798 323.1583 984.7921 323.4936 982.5567 323.1583 980.433 321.5935 976.6328 321.37 974.3974 321.37 972.1619 321.5935 971.4913 322.2641 971.156 323.3818 971.3795 324.0525 971.8266 324.9466 973.3914 325.3937 972.8326 325.3937 972.0502 325.0584 971.3795 324.4996 970.9325 325.0584 970.5971 325.6173 970.7089 326.1761 971.0442 326.6232 971.6031 326.9585 970.8207 327.4056 969.3677 327.6292 968.8088 328.5233 967.5793 328.6351 966.7969 328.4116 965.9028 328.8586 965.9028 329.3057 965.791 329.7528 965.5674 330.0881 965.2321 329.5293 965.0086 328.2998 964.8968 327.8527 964.6733 327.6292 964.338 327.4056 963.8909 327.6292 963.5556 329.1939 963.1085 329.7528 962.5496 330.3117 961.879 330.9823 961.6554 331.2058 961.7672 331.7647 962.2143 332.2118 962.3261 332.3235 962.2143 333.1059 961.9908 333.7766 961.7672 334.0001 961.9908 334.2237 961.4319 334.4472 960.426 334.559 959.5318 334.2237 958.7494 334.6707 958.4141 334.3354 957.967 333.4413 957.2964 333.2177 957.0728 333.3295 956.4022 333.6648 956.1787 334.0001 956.0669 334.4472 955.7316 334.7825 955.1727 334.559 954.3903 334.1119 953.4961 334.0001 952.3784 333.1059 952.7138 332.4353 952.2667 331.5411 950.5901 333.7766 950.0312 334.8943 949.3606 335.3414 948.3547 335.3414 946.6781 335.9002 945.2251 336.2355 944.1074 336.5708 943.7721 336.6826 943.5485 336.012 942.6543 335.0061 940.1954 334.7825 939.3012 334.6707 938.407 335.0061 937.5129 333.7766 937.7364 333.553 937.2893 334.0001 935.501 334.4472 934.495 335.4531 934.048 337.465 933.9362 337.0179 933.1538 336.9062 931.1419 336.3473 930.3595 335.9002 930.2477 335.1178 930.5831 334.6707 930.3595 334.559 929.8007 334.8943 929.0183 334.6707 928.5712 335.3414 927.677 335.4531 926.8946 335.3414 924.9945 335.4531 924.1003 335.7884 922.9826 336.2355 922.0884 337.1297 922.2002 337.6886 921.8649 338.1356 921.9767 338.471 922.312 339.0298 922.5355 339.5887 922.312 339.7004 921.7531 339.5887 921.1943 339.8122 920.7472 340.4828 920.6354 341.4888 920.7472 342.3829 921.0825 343.0536 921.4178 343.3889 921.4178 342.6065 919.9648 338.918 919.1824 337.8003 918.2882 338.2474 916.947 339.3651 915.7175 340.0358 914.5998 339.1416 913.2585 339.5887 914.1527 339.2534 914.7116 338.6945 915.1586 338.2474 915.8293 337.1297 917.8411 336.7944 917.9529 335.9002 917.8411 335.6767 918.0647 335.5649 918.1765 334.8943 918.8471 334.7825 918.9589 334.2237 919.1824 334.1119 919.853 334.0001 920.6354 333.7766 921.1943 333.2177 921.7531 332.7706 921.9767 332.3235 921.8649 330.9823 921.0825 329.4175 919.853 329.0822 919.5177 328.9704 918.9589 328.7469 918.2882 328.7469 917.8411 328.8586 917.5058 329.4175 916.4999 329.7528 916.2763 329.9763 916.2763 330.1999 916.2763 330.0881 915.7175 328.7469 915.7175 329.5293 914.5998 329.7528 914.3762 330.0881 914.2645 330.647 914.2645 330.9823 914.2645 331.0941 914.3762 331.6529 913.5938 331.9882 912.5879 332.6589 911.9173 334.0001 911.8055 333.3295 911.0231 332.2118 911.1349 330.0881 911.8055 325.9526 911.8055 326.3997 910.7996 327.4056 910.3525 329.9763 910.3525 330.8705 910.1289 331.7647 909.6818 332.5471 909.0112 333.1059 907.8935 333.7766 907.67 334.3354 907.5582 334.6707 907.3347 334.6707 905.6581 334.6707 905.0992 334.3354 904.2051 333.8883 903.5344 333.7766 902.9756 334.2237 902.1932 331.8765 902.4167 331.5411 901.9696 330.8705 901.4108 330.1999 900.8519 330.3117 900.2931 330.647 899.6224 330.4234 899.1754 330.0881 898.6165 330.0881 897.9459 330.4234 897.6106 331.0941 897.387 332.2118 897.1635 332.2118 896.8282 331.5411 896.8282 331.9882 896.2693 333.4413 895.4869 334.1119 894.8163 334.3354 894.2574 334.1119 893.5868 333.7766 893.1397 333.4413 892.9162 331.7647 893.1397 330.647 893.8103 329.641 894.5927 328.4116 895.3751 327.9645 895.2634 327.0703 894.9281 326.6232 894.7045 325.8408 893.9221 325.3937 892.9162 325.5055 891.9102 326.0644 890.9043 326.9585 890.3454 327.8527 890.0101 332.4353 889.116 333.553 888.4453 334.0001 887.4394 333.6648 886.5452 332.7706 886.0981 331.0941 885.4275 329.8646 884.198 329.641 883.9745 328.8586 883.7509 328.7469 883.1921 329.0822 881.9626 329.0822 880.8449 329.3057 880.1743 329.9763 879.8389 331.0941 879.7272 333.1059 879.7272 333.6648 879.5036 334.1119 879.1683 334.1119 878.833 333.7766 878.6095 333.3295 878.6095 332.6589 878.1624 332.2118 877.9388 331.6529 877.8271 331.0941 877.8271 330.5352 877.8271 330.0881 877.4917 329.7528 876.374 330.0881 875.3681 330.7587 874.2504 331.0941 873.1327 331.3176 872.9091 331.6529 872.9091 332.1 872.9091 332.2118 872.9091 332.2118 872.5738 331.8765 871.7914 331.9882 870.3384 332.2118 869.6678 332.6589 869.2207 332.9942 868.8854 333.2177 868.4383 333.2177 867.6559 333.1059 867.5441 331.6529 867.8794 330.9823 867.7677 330.647 867.5441 330.647 867.2088 330.7587 866.8735 331.2058 866.6499 331.7647 866.6499 332.2118 866.5382 332.5471 866.0911 332.1 865.8675 329.9763 866.0911 329.4175 865.5322 329.4175 864.9734 329.5293 865.0851 329.7528 865.0851 330.3117 864.7498 330.647 864.7498 330.8705 864.5263 331.0941 863.9674 330.3117 859.7201 329.7528 859.3848 328.6351 858.0436 327.9645 857.5965 328.5233 856.367 328.8586 855.9199 329.1939 855.6964 329.0822 855.4728 328.4116 853.5727 327.8527 852.455 327.7409 852.0079 327.5174 849.996 327.6292 849.3254 327.9645 848.8783 327.6292 847.4253 327.4056 843.6251 326.8468 842.8427 326.1761 842.5074 323.4936 840.3837 323.1583 838.4836 322.9348 837.813 322.3759 838.4836 322.1524 838.0365 322.0406 837.4777 322.0406 836.9188 322.0406 836.36 321.4817 834.7952 321.37 834.0128 322.0406 833.5657 322.0406 833.1186 321.9288 832.7833 322.0406 831.7773 321.5935 832.0009 321.37 832.448 321.0347 833.5657 321.0347 832.6715 320.9229 831.8891 320.6993 831.2185 320.364 830.6596 320.1405 830.4361 319.8052 830.2125 319.4699 829.989 319.2463 829.5419 319.3581 829.2066 319.8052 828.7595 319.9169 828.3124 319.6934 827.7536 318.4639 826.077 318.0168 824.9593 317.5697 824.5122 316.8991 824.0651 316.1167 823.8416 316.3403 823.171 316.1167 822.7239 315.1108 822.0532 315.1108 820.9355 313.2107 818.253 312.6518 817.0235 312.9871 817.3589 313.3224 816.6882 312.093 816.3529 311.087 816.3529 310.4164 816.0176 310.1928 814.341 310.8635 812.4409 310.9752 811.6585 310.8635 810.8761 310.6399 810.2055 310.6399 809.5349 310.9752 808.7525 310.6399 808.1936 309.8575 805.2876 309.8575 803.0521 309.7458 802.4933 309.634 801.9344 309.5222 801.5991 309.8575 801.152 309.8575 800.8167 309.2987 800.2579 308.6281 799.4755 308.0692 798.4695 307.7339 797.5754 307.3986 797.5754 307.3986 798.246 307.175 799.3637 307.0633 799.9226 307.2868 800.2579 307.9574 801.152 308.181 801.3756 308.0692 802.8286 307.8457 803.4992 307.2868 804.2816 307.175 804.9523 307.9574 806.9641 308.181 807.8583 308.0692 808.8642 307.5103 810.6526 307.175 815.0117 307.8457 817.4706 307.9574 818.3648 307.8457 819.259 307.3986 820.2649 307.2868 820.6002 307.0633 820.8238 306.9515 821.0473 306.7279 821.6062 306.6162 822.2768 306.6162 822.8356 306.7279 823.8416 307.2868 824.5122 307.5103 824.9593 307.0633 825.2946 306.7279 825.1828 306.2809 824.9593 305.722 824.1769 305.6102 824.624 305.3867 824.9593 305.3867 825.2946 305.2749 824.7358 305.2749 823.9534 305.1631 823.3945 304.8278 823.0592 304.6043 822.9474 304.8278 822.3886 305.2749 821.9415 305.722 821.6062 305.4985 821.3826 305.1631 820.8238 304.9396 820.6002 305.722 820.3767 306.0573 819.7061 306.0573 818.9237 305.722 818.1413 306.5044 818.1413 306.6162 817.6942 306.1691 817.2471 305.4985 817.0235 304.269 817.0235 303.9337 817.0235 303.263 816.6882 303.3748 816.3529 303.7101 815.5705 303.9337 815.2352 302.7042 814.6763 302.1453 813.1116 302.4806 811.7703 303.5983 811.9938 303.263 809.6466 303.263 807.523 303.4866 806.6288 303.5983 806.1817 303.3748 805.9582 303.1513 805.8464 302.7042 805.6229 302.3689 805.2876 302.1453 804.9523 302.0336 803.7228 301.3629 801.5991 301.1394 800.4814 301.3629 799.2519 302.4806 797.6871 302.9277 796.9047 302.9277 796.1223 303.4866 795.2282 303.5983 794.5575 303.4866 793.9987 302.9277 792.2103 303.5983 792.2103 303.3748 791.5397 303.1513 790.9809 302.816 790.8691 302.5924 791.4279 300.1334 788.2983 298.7922 785.2805 297.6745 783.604 297.2274 782.4862 297.0039 781.2568 297.0039 780.1391 297.1156 779.0213 297.7862 777.3448 298.0098 776.3388 297.5627 776.7859 297.2274 777.3448 296.7803 777.6801 296.2215 777.4565 296.1097 777.0095 295.5508 774.5505 293.986 771.7562 293.5389 770.1914 294.2096 768.8502 292.8683 767.8442 292.1977 766.503 292.1977 765.0499 293.0919 763.7087 295.1037 763.1498 296.3332 764.3793 297.5627 766.1677 299.351 766.9501 297.5627 764.6029 297.1156 763.3734 298.0098 763.0381 297.2274 762.7028 296.5568 762.3674 296.2215 761.6968 296.5568 760.9144 296.2215 760.5791 295.8861 760.132 295.6626 759.5732 295.5508 759.2378 295.4391 759.0143 295.2155 759.2378 294.8802 759.7967 294.8802 759.9085 295.1037 760.132 295.2155 760.5791 295.2155 760.9144 294.4331 761.4733 293.7625 761.138 293.2036 760.2438 293.0919 759.0143 292.7565 759.0143 292.6448 760.0202 292.9801 762.2557 292.533 762.7028 292.3095 762.8145 292.0859 763.0381 291.6388 763.3734 290.9682 763.3734 290.6329 763.2616 290.4094 762.9263 290.1858 762.591 289.9623 762.2557 288.621 756.22 287.5033 754.767 287.8386 754.2081 287.9504 753.6493 287.9504 752.4198 288.0622 751.7492 288.5092 751.0785 288.621 750.6315 288.5092 749.2902 288.0622 748.5078 287.3915 747.949 286.4974 747.5019 286.7209 747.0548 287.168 746.8312 287.6151 746.7195 288.1739 746.7195 288.0622 746.3842 287.7268 745.7135 287.5033 745.3782 288.1739 744.484 288.2857 743.3663 288.1739 739.2308 288.3975 738.3366 288.9563 737.3307 287.5033 737.4425 286.8327 737.2189 286.2738 736.6601 284.9326 734.3129 284.8208 733.8658 284.709 732.9716 284.8208 731.6304 284.709 731.0715 284.0384 730.5127 284.2619 729.9538 284.4855 729.6185 284.8208 729.5067 285.2679 729.3949 285.8267 727.6066 286.162 727.8301 286.4974 727.7184 287.5033 726.936 287.168 726.2653 285.8267 722.5769 285.8267 721.7945 286.4974 720.3415 286.162 719.6708 284.9326 716.5413 284.9326 716.2059 285.1561 715.7589 285.1561 715.3118 284.9326 714.9765 284.709 714.5294 284.9326 714.0823 284.9326 713.2999 284.709 712.5175 284.2619 711.8469 284.0384 711.3998 284.1502 710.9527 284.3737 710.5056 284.4855 710.0585 284.2619 709.6114 283.5913 708.829 283.3678 708.382 283.4795 708.1584 283.9266 707.7113 284.0384 707.376 284.0384 703.9111 283.8149 703.2405 283.0325 703.0169 283.3678 701.5639 282.2501 700.2227 279.5675 698.3226 278.1145 696.4224 276.7733 695.0812 276.438 694.6341 276.438 694.4106 275.9909 692.2869 276.1026 691.7281 276.2144 691.3927 276.438 691.0574 276.885 691.0574 277.6674 690.7221 278.2263 689.9397 278.6734 688.9338 279.5675 682.8981 280.1264 681.8922 280.2382 681.2216 280.1264 680.5509 280.0146 679.9921 279.5675 678.9861 279.0087 676.9743 278.7851 674.6271 279.0087 672.3916 279.5675 670.268 280.2382 668.7032 281.3559 667.2502 282.9207 666.356 284.709 665.9089 284.4855 665.5736 284.2619 665.2383 283.8149 665.0147 283.3678 664.7912 282.9207 665.1265 280.3499 666.9149 279.1205 667.3619 278.2263 667.4737 274.9849 667.0266 273.7554 667.1384 272.526 667.3619 272.1906 667.4737 271.9671 667.809 271.7436 668.0326 271.2965 668.1443 271.0729 668.0326 270.4023 667.809 270.067 667.809 268.614 667.809 267.608 668.1443 266.7139 668.815 265.9315 669.9327 264.2549 662.1087 264.2549 660.7674 263.9196 659.538 262.9136 660.991 261.5724 660.6557 260.1194 658.532 259.337 656.7437 258.7781 654.7318 258.7781 653.2788 259.5605 652.1611 259.1134 651.6022 258.8899 651.0433 259.0017 650.4845 259.337 649.1432 258.8899 649.1432 258.4428 650.2609 258.331 650.9316 258.2193 651.714 257.6604 651.3787 257.5486 650.708 257.4369 649.9256 257.5486 649.1432 258.2193 647.6902 257.8839 647.3549 257.3251 647.4667 256.878 647.6902 256.4309 646.6843 256.5427 645.343 257.2133 642.6605 257.2133 641.7663 256.9898 641.3193 256.2074 640.4251 255.8721 639.978 255.425 639.3074 255.2014 638.525 255.0897 637.8543 255.9838 636.5131 257.3251 636.8484 259.0017 637.4073 260.3429 636.7366 258.4428 635.8425 257.4369 635.5072 256.3191 635.3954 255.0897 635.6189 254.6426 636.2895 254.3073 637.1837 253.7484 638.3014 252.8542 637.1837 252.1836 635.3954 251.9601 633.607 252.6307 632.7129 252.6307 632.3776 251.6248 632.154 251.2894 631.2598 251.0659 630.1421 250.6188 629.1362 249.5011 628.5773 248.2716 628.242 247.4892 627.6832 247.7128 626.5655 242.236 622.4299 241.7889 621.9828 241.4536 621.424 241.3418 620.5298 241.3418 618.8532 241.1183 618.0708 240.5594 618.965 240.1123 620.9769 239.777 621.7593 239.5535 621.5358 239.1064 620.9769 238.9946 620.6416 238.6593 620.8651 238.4358 621.0887 238.2122 621.2004 237.9887 621.424 238.324 621.7593 239.5535 623.3241 241.23 624.4418 242.5713 625.5595 242.5713 627.3479 241.4536 628.5773 240.2241 629.695 239.4417 631.1481 239.777 633.4953 241.7889 637.0719 242.4595 638.9721 242.5713 641.2075 242.236 641.8781 241.3418 643.5547 240.8947 645.9019 240.3359 646.349 238.6593 645.9019 238.8828 646.349 239.1064 646.9078 239.3299 647.3549 239.777 647.6902 239.1064 647.6902 237.9887 647.3549 237.318 647.3549 237.318 647.6902 237.9887 648.1373 238.6593 648.5844 239.1064 649.1432 239.3299 649.9256 239.2182 650.708 238.5475 651.9375 238.2122 653.167 237.4298 654.9553 236.7592 655.1789 236.3121 655.5142 236.4239 655.9613 236.9827 656.4084 236.0886 657.7496 235.1944 658.6438 233.0707 660.0968 232.6237 660.6557 231.7295 662.1087 230.7235 665.1265 228.7117 666.6913 227.4822 668.1443 224.5761 669.262 221.4465 669.9327 218.4287 670.268 216.5286 668.815 215.4109 668.5914 214.2932 668.0326 210.94 665.4618 210.0459 664.6794 209.7106 663.897 209.7106 662.5558 209.487 661.5498 209.1517 660.6557 208.1458 658.532 207.8105 657.4143 207.6987 656.2966 207.6987 655.1789 208.1458 654.3965 210.1576 652.9435 210.8283 652.3846 209.2635 652.2728 206.6927 654.2847 204.9044 654.62 205.1279 655.1789 206.0221 656.1848 206.2457 656.6319 206.581 658.6438 207.1398 659.538 208.4811 661.1028 208.7046 662.1087 208.5928 662.6675 208.034 663.897 207.9222 664.4559 208.1458 665.0147 208.7046 666.1325 211.1636 669.4856 211.946 670.9386 212.8402 671.4975 213.2872 672.2799 212.5048 673.5094 211.7224 674.0682 210.7165 676.1919 207.4751 677.3096 204.5691 677.9802 203.4514 678.3155 202.2219 678.5391 201.1042 678.2037 200.6571 677.086 200.0982 676.4154 196.5216 675.0741 199.5394 677.7567 199.6512 679.0979 197.0804 682.004 195.1803 683.7923 194.1744 684.1276 193.2802 684.0158 193.1684 683.5688 193.5037 682.8981 193.7273 681.8922 192.8331 682.6746 192.1625 683.6805 191.4919 684.3512 190.2624 684.4629 190.3741 684.0158 190.5977 682.6746 186.9092 686.2513 185.9033 687.9278 184.7856 688.1514 183.6679 687.9278 183.2208 687.1454 183.2208 686.363 182.9972 685.2453 182.6619 684.3512 182.1031 683.7923 182.5502 688.822 182.2149 689.9397 180.7618 692.0634 180.4265 692.9575 180.4265 695.5283 180.203 696.1989 179.0853 698.3226 171.9319 705.923 168.8023 708.2702 167.2375 709.7232 166.4551 710.2821 165.4492 710.6174 164.3315 710.6174 161.0901 710.2821 160.1959 709.9468 159.8606 709.3879 159.6371 704.1347 160.0842 703.6876 160.643 703.3523 161.2019 702.6816 161.4254 701.6757 161.2019 700.8933 162.5431 699.6638 163.3255 698.2108 163.7726 696.4224 163.9961 694.6341 163.9961 693.5164 163.7726 692.734 162.9902 691.0574 162.8784 690.0515 163.102 689.3809 163.4373 688.7102 163.6608 687.7043 163.3255 687.7043 162.9902 688.2631 162.4314 688.7102 162.096 689.2691 161.8725 689.9397 162.096 690.7221 162.8784 692.3987 162.9902 693.4046 162.8784 695.7518 162.6549 696.4224 161.0901 698.4343 160.4195 700.6697 159.19 702.1228 158.0723 702.5699 157.4017 701.2286 157.737 700.1109 158.6311 698.6579 159.3018 697.0931 159.19 695.4165 157.4017 698.2108 156.6193 699.8873 156.2839 701.6757 156.731 705.5877 156.0604 706.9289 154.0485 707.376 152.5955 706.7054 151.7013 705.2524 151.1425 703.2405 151.1425 701.2286 152.2602 695.193 151.8131 693.5164 150.6954 696.4224 150.2483 694.2988 150.9189 692.0634 152.2602 690.275 154.0485 689.6044 155.8369 689.7162 156.2839 689.6044 156.731 689.2691 156.6193 689.0455 156.0604 688.822 155.5015 688.822 155.1662 688.7102 154.8309 688.2631 154.6074 688.1514 154.3838 688.1514 153.6014 688.4867 153.1543 688.4867 152.819 688.5985 152.4837 688.4867 152.1484 687.7043 151.8131 687.7043 151.4778 688.5985 150.0248 690.6103 148.7953 691.6163 148.6835 693.0693 149.0188 695.7518 149.0188 697.0931 148.0129 703.6876 147.6776 705.0288 147.0069 705.8112 146.4481 706.0348 145.7774 706.2583 145.1068 706.3701 144.8833 706.8172 144.7715 707.1525 144.548 707.5996 144.3244 707.9349 143.9891 708.0466 142.7596 708.1584 142.089 708.0466 140.3007 707.376 138.0652 707.0407 137.5064 706.7054 138.0652 705.6994 138.6241 705.3641 139.1829 705.1406 139.63 704.6935 139.9653 704.1347 139.9653 703.6876 139.8536 703.1287 139.5183 702.7934 139.2947 702.5699 138.2888 703.7993 137.7299 704.0229 137.5064 702.7934 137.6182 701.1168 137.5064 700.4462 136.9475 698.8814 136.8358 698.3226 137.0593 697.5402 137.6182 696.7578 138.2888 695.9754 138.7359 695.7518 139.63 695.64 140.5242 695.3047 141.1948 694.6341 141.4184 693.5164 139.63 694.6341 139.4065 693.6282 139.1829 691.3927 138.2888 689.6044 138.2888 688.822 138.5123 688.0396 139.5183 686.4748 140.1889 685.8042 141.0831 685.3571 142.2008 685.2453 143.2067 684.91 143.9891 684.2394 144.548 683.2334 144.8833 682.3393 144.6597 682.6746 143.9891 683.3452 143.8773 683.5688 143.542 683.9041 142.3125 684.1276 141.4184 684.4629 140.3007 684.4629 139.8536 684.6865 138.5123 686.363 138.4006 686.5866 137.8417 687.1454 137.6182 688.1514 137.5064 690.4986 137.6182 691.0574 138.177 692.0634 138.2888 692.6222 138.2888 692.9575 138.5123 693.1811 138.6241 693.4046 137.9535 694.6341 137.8417 694.8576 137.3946 695.5283 134.3768 697.5402 133.7062 698.5461 132.2531 701.8992 131.8061 702.5699 131.0237 703.1287 130.1295 703.5758 129.1235 703.6876 127.8941 703.2405 127.3352 702.5699 127.1117 701.5639 126.6646 700.4462 126.5528 701.4521 125.9939 701.3404 125.4351 700.558 124.988 699.7756 126.3293 698.7696 128.2294 697.7637 130.1295 696.5342 131.5825 694.6341 132.1414 692.0634 132.4767 691.6163 132.9238 691.1692 133.3708 690.6103 133.4826 690.1633 133.5944 689.7162 133.7062 688.5985 133.9297 688.4867 134.265 688.1514 134.7121 687.7043 134.7121 687.0337 133.8179 687.5925 133.3708 688.1514 132.5884 689.9397 131.2472 692.1751 130.9119 693.1811 130.2413 694.5223 129.4589 695.193 128.5647 695.7518 125.6586 698.5461 124.4292 699.2167 123.1997 698.9932 122.9761 697.6519 124.3174 695.7518 126.9999 693.1811 128.1176 691.3927 128.9 689.1573 129.3471 686.8101 129.1235 684.4629 128.3411 682.7864 128.2294 681.8922 128.6765 680.998 129.2353 680.1039 130.2413 676.8625 130.5766 676.5272 131.0237 676.4154 131.5825 676.4154 131.5825 676.0801 131.1354 675.5212 130.2413 670.4915 130.353 669.9327 130.5766 669.262 130.9119 668.9267 131.2472 668.815 131.5825 668.4796 131.5825 667.809 129.7942 668.5914 129.1235 668.4796 128.7882 667.3619 128.4529 668.5914 129.1235 673.174 129.1235 676.3036 128.9 677.086 127.6705 678.4273 127.447 679.2097 127.1117 680.5509 126.3293 681.7804 125.2116 682.6746 124.0938 683.0099 123.9821 682.6746 124.5409 681.8922 125.6586 680.4392 126.6646 678.3155 126.441 677.3096 125.7704 677.4213 125.2116 678.3155 124.8762 679.9921 124.5409 680.5509 124.0938 680.998 123.535 681.2216 122.9761 681.1098 122.529 680.7745 122.1937 680.4392 121.8584 680.1039 120.8525 679.8803 120.6289 680.3274 120.7407 682.451 120.6289 683.6805 120.5172 684.6865 120.1818 685.5806 117.4993 689.9397 116.1581 691.6163 114.4815 692.5105 113.4756 692.6222 112.6932 692.9575 112.2461 693.7399 112.0226 695.193 111.6872 695.7518 110.6813 696.0871 109.6754 696.0871 108.893 695.7518 107.887 696.8695 107.1046 697.2048 106.5458 696.8695 105.3163 694.7459 104.981 694.0752 104.981 693.1811 105.3163 687.2572 106.434 681.1098 106.3222 677.086 106.434 676.4154 106.6575 676.1919 107.3282 675.4095 107.5517 675.0741 108.2223 670.8268 107.9988 667.5855 108.2223 667.0266 110.0107 667.5855 111.2402 667.5855 111.6872 666.4678 112.1343 664.903 112.0226 664.1206 111.0166 663.7853 111.0166 663.4499 112.2461 662.7793 112.805 661.8851 112.805 659.2026 112.9167 658.4202 113.3638 656.8554 113.4756 656.2966 113.6991 655.5142 114.5933 654.3965 114.8168 653.7259 114.7051 651.4904 114.4815 650.5963 113.9227 649.255 113.5873 648.4726 113.8109 647.6902 114.258 647.4667 114.7051 647.5784 115.2639 647.802 115.9345 647.6902 116.4934 647.2431 118.0582 645.1195 116.9405 645.1195 117.4993 644.3371 117.6111 643.4429 117.6111 639.7545 117.6111 639.3074 117.8347 638.7485 118.7288 637.519 118.9524 636.8484 119.1759 635.8425 119.0641 634.9483 117.6111 634.2777 117.3876 633.607 117.4993 632.9364 118.0582 632.3776 120.4054 633.4953 120.7407 633.2717 120.9642 633.0482 121.2996 632.8246 121.7466 632.4893 121.8584 632.0422 121.6349 631.5952 121.1878 631.3716 120.7407 631.1481 120.4054 630.9245 120.2936 630.2539 120.4054 627.7949 120.7407 627.1243 121.5231 627.0125 122.082 626.6772 122.1937 625.4477 122.8644 625.6713 123.535 625.8948 124.0938 626.3419 124.6527 626.9008 123.7585 623.4359 123.1997 617.8473 123.1997 617.0649 123.4232 616.1707 123.4232 615.5001 123.1997 614.8295 122.8644 614.0471 122.6408 613.8235 122.529 613.4882 122.529 612.8176 122.8644 611.4763 123.7585 611.8117 124.7645 612.7058 125.6586 613.3765 125.3233 612.5941 124.4292 610.8057 124.4292 610.2469 124.6527 609.688 124.3174 609.1292 123.535 608.235 122.9761 607.229 122.6408 606.1113 122.529 603.6524 122.082 602.5347 119.8465 600.5228 119.3994 598.958 119.2877 595.7166 118.9524 594.3754 117.164 590.5751 116.9405 589.7927 117.2758 589.0103 118.8406 588.3397 119.3994 587.6691 119.5112 586.4396 119.2877 585.2101 118.8406 584.0924 117.8347 582.5276 117.8347 581.9688 117.8347 581.4099 117.6111 580.7393 117.3876 580.2922 116.8287 579.6216 116.6052 579.2862 116.2699 577.1626 115.8228 576.1567 115.0404 575.5978 112.6932 575.9331 111.6872 575.8213 111.0166 575.2625 110.9048 574.7036 110.9048 574.033 111.0166 573.2506 111.2402 572.9153 111.5755 572.6917 112.1343 573.3624 113.0285 573.1388 113.5873 573.6977 114.1462 573.8095 114.5933 573.4741 115.1521 572.58 115.5992 572.2447 114.9286 571.3505 114.7051 570.4563 114.1462 569.6739 112.9167 569.3386 112.2461 569.0033 111.9108 568.1091 111.5755 567.1032 111.2402 566.3208 108.5576 563.4147 107.5517 561.8499 106.7693 560.1734 107.5517 560.3969 107.6635 559.8381 107.2164 555.479 106.9928 554.8084 101.9631 549.8904 101.9631 549.4433 102.2985 549.4433 103.1926 550.2257 105.0927 550.2257 108.5576 549.4433 107.7752 549.108 107.2164 548.7727 105.9869 549.6669 105.2045 549.3316 103.6397 546.9844 102.1867 545.0843 101.8514 544.0783 101.9631 542.5135 101.4043 542.9606 101.1807 543.6312 101.1807 544.4136 101.1807 545.0843 100.3983 545.3078 99.3924 544.9725 98.3865 544.4136 97.7158 543.6312 97.2688 543.8548 97.0452 543.9666 96.2628 542.9606 95.9275 541.3958 96.2628 539.831 97.0452 538.8251 96.3746 536.925 96.3746 536.2543 96.4864 535.5837 96.9334 534.5778 97.0452 534.2425 97.6041 533.2365 97.7158 533.1248 97.6041 532.7894 97.4923 532.3424 97.3805 532.007 98.7218 531.1129 99.1689 530.6658 98.3865 530.6658 97.2688 531.0011 96.7099 531.0011 95.9275 530.6658 95.8157 530.3305 96.151 529.6598 96.3746 528.8774 96.2628 528.3186 95.9275 527.0891 96.0393 526.3067 96.2628 525.6361 96.9334 524.1831 97.0452 523.5124 96.7099 519.0416 96.9334 518.1474 97.3805 517.5886 97.9394 516.4708 98.1629 515.2414 97.7158 514.459 97.2688 515.8002 95.9275 518.371 95.5922 519.9358 96.0393 522.73 96.0393 524.4066 95.4804 525.0772 94.9216 525.7479 94.0274 526.8656 93.0215 527.5362 91.6802 526.8656 91.4567 526.3067 91.3449 524.9655 91.1213 524.4066 90.5625 524.0713 90.1154 524.4066 89.7801 525.0772 89.7801 525.8596 90.0036 526.3067 91.6802 527.8715 92.1273 528.5421 92.1273 528.9892 91.9037 529.5481 91.792 530.1069 91.9037 533.6836 92.2391 534.8013 92.5744 535.3602 93.3568 536.4779 93.5803 537.1485 93.4685 537.7074 93.245 538.6015 93.245 539.0486 93.0215 539.6075 91.792 541.0605 91.6802 541.0605 91.2331 541.284 91.1213 541.3958 91.1213 541.6194 91.2331 542.0664 91.3449 542.4018 91.4567 542.5135 90.786 543.0724 90.3389 542.5135 89.6683 541.7311 87.5447 541.0605 84.8622 538.378 83.8562 537.9309 81.6208 537.0367 80.8384 536.4779 80.3913 535.8073 80.1678 535.3602 79.8325 534.9131 79.2736 534.466 78.7147 534.3542 78.3794 534.466 78.0441 534.3542 77.4853 533.6836 77.3735 533.013 77.597 531.7835 77.3735 531.2246 77.0382 530.7776 76.8146 530.2187 76.5911 529.5481 76.4793 528.9892 76.144 528.2068 74.3557 526.642 73.685 525.8596 72.3438 522.9536 71.7849 522.6183 68.7671 518.4827 68.2083 517.4768 67.9847 516.4708 68.0965 514.2354 68.4318 513.453 69.326 512.6706 70.4437 512.1118 71.5614 512.2235 72.0085 512.5589 72.1202 513.0059 72.3438 513.453 72.7909 513.6766 74.5792 513.6766 75.5851 515.3531 75.8087 516.5826 75.0263 517.365 77.2617 518.9298 78.4912 519.3769 79.9442 519.6004 80.2795 520.9417 81.8443 522.0594 83.968 522.73 85.8681 522.6183 87.5447 521.7241 90.786 519.2651 91.792 518.1474 91.792 517.9239 91.792 517.2532 91.792 517.0297 91.9037 516.9179 92.3508 516.8062 92.4626 516.6944 93.3568 515.3531 93.6921 514.5707 93.6921 513.5648 93.5803 511.7765 93.8039 511.2176 93.9156 510.7705 93.5803 510.4352 93.245 510.4352 91.6802 510.7705 90.4507 510.4352 90.0036 509.8763 90.2272 509.3175 91.1213 508.8704 90.5625 508.6469 90.1154 508.5351 88.8859 508.5351 88.3271 508.3116 86.9858 506.9703 84.8622 505.629 83.8562 504.6231 83.4091 503.5054 82.962 502.8348 81.0619 502.0524 80.6149 501.27 81.0619 500.264 81.9561 499.7052 83.0738 499.7052 84.1915 500.0405 83.8562 499.0345 84.3033 498.2521 84.9739 497.4697 85.5328 496.6873 84.8622 495.4579 84.5268 495.1226 84.0798 496.6873 83.2974 498.1404 82.1796 499.0345 80.6149 498.811 80.1678 498.4757 79.7207 497.8051 79.6089 496.9109 79.6089 495.905 80.056 495.2343 81.1737 494.6755 81.7326 494.1166 80.1678 493.8931 79.4971 494.7872 79.1618 495.7932 78.7147 496.352 76.4793 496.2403 75.8087 495.7932 75.8087 494.4519 75.1381 495.7932 74.8028 496.352 74.0204 496.6873 74.0204 493.1107 74.3557 492.44 77.0382 488.4163 78.0441 487.7457 79.2736 487.6339 81.0619 487.7457 80.5031 487.1868 80.3913 486.5162 80.6149 486.0691 81.3972 485.9573 81.0619 485.5102 80.8384 485.0631 80.3913 484.8396 79.9442 484.7278 79.7207 484.9514 79.6089 485.7338 79.4971 485.9573 76.8146 485.9573 76.2558 486.0691 75.9205 486.2926 75.4734 486.2926 74.5792 486.2926 74.3557 486.5162 74.0204 487.4103 73.685 487.7457 73.0144 487.8574 72.232 487.6339 71.6732 487.1868 71.2261 486.6279 71.5614 486.5162 71.8967 486.0691 72.232 485.9573 70.3319 485.1749 69.773 484.7278 70.5554 484.0572 69.773 483.6101 69.5495 483.0513 69.773 482.3806 70.5554 482.2689 70.4437 481.8218 70.2201 481.4865 69.5495 481.8218 69.1024 482.1571 68.6553 482.6042 68.5436 483.2748 68.2083 483.0513 67.6494 482.4924 67.4259 482.2689 66.9788 483.4983 66.7552 483.8337 66.1964 484.0572 65.6375 483.8337 64.9669 483.2748 64.5198 482.6042 64.2963 482.0453 64.0727 480.7041 62.955 477.9098 62.955 476.5685 62.5079 476.5685 62.5079 478.6922 62.3961 479.6981 61.8373 479.9217 61.502 479.3628 60.8314 475.8979 60.3843 475.8979 60.049 477.0156 59.3783 477.9098 58.3724 478.4686 57.2547 478.804 55.9134 478.6922 54.3486 478.2451 53.1191 477.9098 52.4485 478.4686 51.6661 478.1333 50.9955 477.5745 50.3249 477.0156 49.9895 476.2332 50.1013 477.3509 50.4366 478.2451 51.3308 479.9217 52.4485 483.7219 55.4663 489.6458 55.5781 491.0988 54.4604 490.2046 53.678 488.8634 52.4485 485.9573 51.6661 483.2748 50.9955 481.71 50.1013 481.0394 48.9836 481.71 48.6483 483.3866 48.8718 485.1749 49.766 487.1868 50.1013 488.8634 50.3249 489.6458 50.8837 490.4282 51.1073 490.6517 51.3308 490.7635 51.5543 490.987 52.0014 491.7694 52.0014 491.8812 50.9955 490.6517 50.5484 490.5399 50.3249 490.4282 49.766 489.7575 49.2072 488.1927 46.4129 484.0572 46.0776 483.163 45.9658 481.71 45.4069 480.7041 44.0657 479.251 43.0597 477.798 42.5009 477.1274 42.1656 476.6803 42.1656 475.0037 41.942 474.4449 42.8362 474.6684 45.6305 474.4449 46.1893 474.1096 46.7482 473.4389 47.5306 472.2095 47.6424 472.433 47.7541 472.6565 47.8659 472.8801 47.8659 473.3272 48.2012 473.3272 49.3189 470.4211 49.5425 469.8623 49.5425 469.527 47.9777 469.974 45.854 472.3212 44.401 473.3272 42.948 472.9919 42.8362 471.3153 43.5068 468.4092 44.401 467.5151 45.5187 463.3795 46.3011 462.4854 47.5306 461.9265 48.0894 460.697 48.5365 458.0145 47.6424 458.7969 47.0835 461.0323 46.4129 461.703 45.6305 461.5912 45.1834 460.5853 44.9598 459.1322 45.0716 458.0145 46.9717 454.4378 47.7541 452.5377 47.1953 451.3083 46.9717 452.3142 46.5246 453.5437 45.9658 454.7732 45.2952 455.6673 44.6245 456.8968 44.401 458.3498 44.7363 461.3677 44.2892 463.8266 43.1715 465.8385 40.1537 469.8623 38.2536 473.9978 38.1418 474.2213 37.8065 474.4449 37.3594 474.7802 36.6888 474.7802 36.3535 474.6684 36.0182 474.3331 35.6828 473.6625 32.4415 471.0917 31.8826 470.5329 31.8826 469.6387 32.1062 468.8563 32.5532 468.0739 33.2239 467.4033 36.4652 465.0561 38.3653 464.7208 40.489 463.9384 40.0419 463.7149 39.5948 463.6031 38.5889 463.6031 38.03 463.4913 37.8065 463.2678 37.6947 462.9325 37.3594 462.4854 36.1299 461.4794 35.6828 460.9206 35.3475 460.2499 34.9004 455.4438 34.6769 454.5496 34.0063 453.9908 32.8886 453.9908 33.1121 455.1085 32.5532 456.338 31.6591 456.6733 31.1002 455.7791 31.8826 455.5556 32.2179 455.4438 30.7649 454.3261 30.3178 452.6495 29.9825 450.8612 29.2001 449.2964 28.1942 447.7316 26.2941 444.4902 24.841 443.4843 26.0705 445.9432 28.4177 449.4081 28.5295 449.967 28.9766 454.3261 30.0943 457.2321 30.0943 458.1263 29.759 460.697 30.2061 466.2856 29.759 467.4033 29.4237 466.7327 28.5295 465.5032 27.9706 464.7208 25.7352 458.6851 24.7293 457.2321 20.0349 452.7613 19.476 451.8671 19.0289 449.4081 18.3583 448.2904 16.4582 446.5021 16.1229 445.9432 15.8993 445.3844 15.564 445.1608 14.8934 444.9373 14.3345 444.8255 13.3286 444.0431 12.7697 443.9314 11.8756 443.3725 11.4285 442.2548 10.8696 439.7958 8.0754 431.5248 7.1812 430.1835 6.8459 429.2893 6.287 424.3714 6.0635 423.7008 3.9398 422.0242 3.6045 421.13 3.2692 420.3476 2.1515 419.2299 1.7044 418.4475 1.4809 417.4416 1.5926 416.6592 1.9279 414.9826 1.9279 413.9767 1.5926 411.7413 1.5926 410.7353 1.9279 409.7294 3.2692 407.7175 3.9398 405.3703 4.4987 404.2526 5.3928 404.1408 6.9576 404.1408 8.9695 401.7936 10.5343 402.3525 11.205 403.2466 11.4285 404.1408 11.5403 405.035 11.8756 406.0409 12.3227 406.488 12.8815 406.8233 14.111 407.1586 16.2347 407.3822 17.9112 407.0469 19.2525 407.3822 20.2584 409.5058 20.5937 411.7413 20.929 412.859 21.5997 413.5296 22.6056 413.4178 23.8351 412.6354 24.841 411.6295 25.2881 410.7353 25.1763 410.1765 25.0646 409.6176 23.2762 404.1408 22.7174 401.3465 22.6056 400.0053 21.8232 386.9281 22.7174 378.5452 22.6056 376.8686 21.8232 373.5155ZM300.9158 1019.7765L299.9099 1020 298.904 1019.8882 298.3451 1019.2176 298.7922 1018.2117 299.5746 1017.8763 300.357 1018.0999 300.9158 1018.8823 300.9158 1019.7765ZM309.634 982.3331L309.2987 983.4508 308.5163 984.2332 307.8457 984.2332 307.3986 983.3391 307.6221 982.5567 308.2927 982.1096 309.0751 981.886 309.8575 981.886 309.8575 981.9978 309.634 982.2213 309.634 982.3331ZM319.8052 958.6376L320.0287 957.7435 320.4758 957.2964 320.9229 957.4081 321.0347 958.1905 320.8111 958.7494 320.364 959.1965 320.0287 959.3083 319.8052 958.6376ZM270.7376 916.8352L270.4023 916.6117 269.7317 915.941 270.6259 915.941 271.4083 916.4999 271.52 917.0587 270.7376 916.8352ZM289.7387 865.1969L289.627 864.191 289.9623 863.5204 290.5211 863.4086 291.08 864.3028 291.3035 865.0851 291.08 865.5322 290.5211 865.5322 289.7387 865.1969ZM312.9871 1006.6992L312.2047 1006.5875 311.9812 1006.6992 311.8694 1007.0345 311.9812 1007.3699 312.3165 1007.8169 312.7636 1007.9287 312.9871 1008.264 312.6518 1008.8229 311.6459 1009.0464 311.087 1009.9406 310.7517 1010.8348 310.4164 1011.2818 309.634 1011.6172 307.8457 1012.7349 307.0633 1012.7349 306.9515 1013.2937 306.7279 1013.7408 306.6162 1014.1879 306.7279 1014.5232 305.3867 1016.6469 304.8278 1017.2057 304.7161 1016.1998 304.1572 1016.4233 303.9337 1015.3056 304.0454 1013.9644 304.1572 1013.2937 304.269 1012.7349 304.4925 1011.2818 305.1631 1011.1701 305.4985 1010.723 305.722 1010.3877 305.8338 1010.2759 306.1691 1010.0524 306.3926 1009.6053 306.5044 1009.1582 306.7279 1008.8229 307.0633 1008.4876 308.4045 1007.7052 309.9693 1006.4757 310.9752 1006.0286 311.9812 1006.3639 312.2047 1006.2521 312.3165 1006.1404 312.9871 1006.3639 312.9871 1006.6992ZM307.3986 1003.0108L307.2868 1002.6755 306.8397 1002.0048 306.7279 1001.5578 306.9515 1000.9989 307.2868 1000.5518 307.3986 1000.1047 307.0633 999.6576 307.0633 999.2106 307.9574 999.2106 309.2987 999.993 310.1928 1000.3283 310.3046 1000.5518 310.1928 1000.6636 310.0811 1000.6636 309.8575 1000.6636 309.7458 1000.9989 309.634 1001.2224 309.634 1001.446 309.8575 1001.7813 309.0751 1002.2284 308.5163 1002.5637 308.2927 1003.1226 307.9574 1005.5815 307.3986 1007.0345 307.3986 1003.0108ZM293.4272 983.6744L292.9801 984.4568 293.3154 984.7921 293.8743 984.7921 294.2096 984.6803 294.4331 985.0156 294.6567 985.3509 295.1037 986.2451 294.8802 986.5804 294.5449 986.804 294.2096 986.9157 293.7625 986.804 294.3213 987.6981 294.5449 987.9217 293.4272 988.4805 292.533 988.257 292.3095 987.4746 293.0919 986.4686 292.7565 985.798 292.533 984.9039 292.7565 984.0097 293.4272 983.6744ZM323.1583 963.1085L324.3878 963.7791 325.6173 964.6733 326.1761 966.1263 325.5055 968.0264 324.8349 968.4735 323.9407 968.4735 323.3818 968.1382 323.6054 967.4675 324.0525 967.3558 324.4996 967.3558 324.8349 967.244 324.9466 966.7969 324.7231 966.4616 324.3878 966.3498 323.9407 966.3498 323.4936 966.5734 323.4936 965.9028 323.1583 965.1204 323.0465 964.338 322.9348 963.6673 323.1583 963.1085ZM292.4212 963.4438L292.7565 961.9908 293.5389 961.4319 294.5449 961.4319 295.5508 961.6554 294.992 963.1085 294.3213 964.1144 293.3154 964.8968 292.0859 965.5674 292.4212 965.0086 292.6448 964.4497 292.6448 964.0026 292.4212 963.4438ZM311.6459 965.9028L311.7576 966.9087 311.7576 967.9146 312.093 968.5853 312.9871 968.8088 312.54 969.4794 312.4283 970.0383 312.54 970.7089 312.9871 971.156 312.7636 971.156 312.7636 971.2678 312.7636 971.3795 312.6518 971.6031 312.093 972.7208 311.6459 973.1679 310.7517 973.3914 310.0811 973.1679 309.8575 972.609 309.8575 970.9325 310.0811 971.0442 310.1928 971.156 310.9752 970.5971 310.7517 970.1501 309.8575 969.4794 309.8575 968.697 310.3046 967.1322 310.1928 966.2381 310.0811 966.1263 309.2987 965.9028 309.1869 965.6792 309.1869 965.2321 309.0751 964.8968 308.9634 964.6733 308.0692 963.5556 307.0633 962.6614 306.9515 962.9967 306.8397 963.2202 306.7279 963.4438 306.3926 961.6554 305.9455 961.4319 305.4985 961.3201 305.1631 961.6554 304.9396 962.2143 304.6043 962.4378 303.0395 963.5556 302.5924 963.7791 301.9218 963.2202 302.3689 962.4378 303.5983 961.0966 303.7101 960.873 304.3807 960.426 304.7161 960.2024 304.8278 959.8671 304.9396 958.9729 305.1631 958.6376 305.8338 958.4141 306.7279 958.5259 307.7339 958.9729 308.4045 959.5318 308.9634 960.3142 309.2987 961.2084 309.5222 962.2143 309.5222 963.2202 309.7458 964.2262 310.4164 964.785 311.087 965.2321 311.6459 965.9028ZM324.9466 958.7494L324.3878 958.9729 324.0525 959.3083 323.8289 959.6436 323.8289 960.2024 322.7112 959.7553 322.2641 958.8612 322.3759 957.8552 322.823 957.0728 323.6054 956.4022 323.9407 956.0669 324.1642 955.6198 324.276 955.0609 324.1642 954.1668 324.1642 953.8315 324.7231 952.9373 325.0584 953.1608 325.282 953.8315 325.729 955.8433 325.729 956.6257 325.5055 958.0788 325.6173 959.5318 325.5055 959.8671 325.1702 959.9789 324.9466 959.6436 324.9466 959.1965 324.9466 958.7494ZM311.9812 944.5545L312.3165 944.6662 312.7636 944.5545 313.2107 944.5545 313.3224 944.8898 312.9871 945.4486 312.2047 945.8957 310.5282 946.3428 310.5282 945.6722 310.4164 944.8898 309.8575 944.3309 309.2987 943.8838 309.1869 943.5485 309.7458 943.2132 310.8635 943.1014 312.3165 943.1014 311.9812 944.1074 311.9812 944.5545ZM312.2047 915.941L312.8754 915.941 313.546 917.0587 314.2166 918.5118 314.4402 919.5177 314.3284 919.9648 313.9931 920.1883 313.546 920.1883 313.3224 920.4119 313.3224 920.859 313.3224 922.5355 312.7636 924.6592 312.6518 925.7769 312.9871 926.7828 312.3165 928.0123 312.4283 931.0301 311.9812 932.4832 311.6459 932.1479 311.5341 932.3714 311.4223 932.5949 311.3106 932.8185 311.3106 933.1538 310.7517 932.7067 310.0811 931.8125 309.8575 931.3655 309.5222 931.8125 309.4105 932.0361 309.4105 932.3714 309.5222 932.8185 308.6281 932.9303 308.2927 933.2656 308.4045 933.7127 309.1869 933.9362 308.7398 934.1597 308.0692 934.2715 307.5103 934.2715 306.9515 934.1597 306.3926 933.9362 306.3926 933.7127 306.3926 932.8185 306.9515 933.042 307.3986 932.9303 307.7339 932.5949 308.181 932.1479 307.9574 931.7008 307.8457 930.5831 307.6221 930.136 307.5103 929.6889 307.9574 929.3536 308.5163 929.0183 308.8516 928.6829 308.7398 928.3476 308.5163 928.1241 308.2927 927.9006 308.181 927.3417 308.2927 926.8946 309.0751 926.3358 309.2987 925.4416 309.634 925.218 310.0811 925.1063 310.1928 924.9945 310.3046 924.4356 309.9693 923.4297 309.8575 922.8708 310.0811 921.7531 311.6459 918.9589 311.8694 916.6117 312.2047 915.941ZM325.282 915.7175L325.6173 915.941 325.9526 916.3881 326.0644 916.8352 326.2879 917.5058 326.2879 918.0647 326.2879 919.6295 325.8408 921.1943 325.9526 925.218 325.729 925.8887 325.0584 926.6711 324.9466 927.3417 324.9466 928.0123 325.1702 929.2418 325.282 930.0242 324.7231 929.5771 323.8289 928.5712 323.4936 928.2359 322.9348 928.0123 322.2641 927.9006 321.7053 927.5652 321.37 927.1182 320.4758 928.1241 320.0287 928.0123 319.8052 927.2299 319.9169 926.0004 319.5816 926.3358 319.3581 926.3358 319.1345 926.1122 318.911 925.6651 319.2463 924.6592 318.911 923.8768 318.2404 923.4297 317.9051 922.9826 317.3462 921.5296 317.458 920.859 318.5757 920.7472 318.3521 920.3001 317.3462 919.5177 317.2344 919.1824 317.3462 918.5118 317.5697 918.1765 318.0168 918.1765 318.2404 917.8411 318.4639 917.8411 318.911 917.5058 319.0228 917.2823 318.4639 917.1705 317.9051 917.1705 317.458 917.1705 317.1227 916.947 316.8991 916.4999 318.0168 916.2763 320.2523 916.6117 321.0347 916.4999 320.9229 916.2763 320.8111 916.1646 320.6993 915.7175 321.37 915.7175 322.823 916.1646 323.3818 916.0528 324.6113 915.7175 325.282 915.7175ZM300.8041 921.0825L301.2512 921.3061 301.4747 921.5296 301.4747 921.9767 301.1394 922.5355 302.0336 923.5415 302.3689 923.9886 302.5924 924.6592 301.2512 923.8768 300.9158 923.5415 300.8041 923.2062 300.4688 922.9826 299.6864 921.7531 298.7922 921.1943 298.5686 920.859 299.2393 920.7472 299.4628 920.1883 299.4628 919.1824 299.1275 918.1765 298.3451 917.8411 298.5686 916.6117 298.0098 913.7056 298.6804 912.4761 298.5686 914.488 298.6804 915.0469 299.0157 915.3822 300.2452 916.4999 300.6923 917.1705 300.6923 918.5118 300.9158 919.6295 302.1453 919.2942 302.1453 919.9648 301.81 920.4119 301.3629 920.7472 300.8041 921.0825ZM280.9088 910.3525L281.4677 910.7996 281.5794 911.3584 281.4677 911.8055 281.1323 912.3644 281.0206 912.5879 281.2441 913.9292 281.0206 913.9292 280.2382 913.5938 279.7911 912.3644 279.7911 911.6937 280.9088 910.3525ZM310.9752 912.9232L310.8635 911.582 311.087 910.576 311.5341 910.2407 312.54 910.9113 312.6518 911.582 312.4283 912.4761 311.8694 913.1468 311.3106 913.1468 310.9752 912.9232ZM311.6459 908.8994L311.3106 909.3465 310.8635 909.4583 310.5282 909.3465 309.5222 907.8935 309.9693 907.1111 310.8635 906.7758 311.3106 906.9993 311.3106 907.4464 311.6459 908.4524 311.6459 908.8994ZM328.7469 907.2229L330.647 907.67 331.5411 908.2288 331.5411 908.8994 331.5411 908.5641 330.0881 909.0112 327.1821 909.0112 326.0644 909.4583 325.282 910.2407 324.276 910.9113 323.2701 911.3584 322.3759 911.1349 321.5935 909.5701 321.37 909.0112 321.37 908.2288 321.4817 907.7817 321.9288 906.9993 322.0406 906.664 321.9288 906.1052 321.7053 905.8816 321.37 905.6581 320.8111 905.0992 320.5876 904.9875 320.364 904.6521 320.364 904.2051 320.364 902.5285 319.9169 900.9637 319.9169 900.2931 320.364 899.6224 320.6993 900.1813 322.0406 901.5226 323.1583 902.9756 323.9407 904.6521 324.4996 905.0992 325.5055 905.7699 326.5114 905.4345 327.2938 905.8816 328.7469 907.2229ZM302.9277 895.7105L303.3748 895.4869 304.0454 895.2634 304.7161 895.1516 304.9396 895.5987 305.1631 897.8341 304.9396 898.2812 304.6043 897.4988 303.9337 896.9399 303.0395 896.7164 302.1453 897.1635 301.9218 897.0517 301.81 897.0517 301.6982 896.9399 301.0276 895.7105 300.0217 894.7045 299.6864 894.0339 299.9099 893.0279 300.357 891.9102 301.0276 890.9043 301.6982 890.4572 302.7042 890.4572 303.4866 890.6807 304.0454 891.1278 304.269 892.022 304.269 892.4691 304.0454 893.475 303.9337 894.0339 303.7101 894.3692 303.263 894.7045 302.9277 895.1516 302.9277 895.7105ZM301.3629 886.4334L301.2512 886.7688 300.4688 888.3336 300.0217 888.6689 299.4628 889.0042 298.904 889.2277 298.5686 889.3395 298.4569 889.6748 298.0098 891.4631 297.5627 890.569 297.3392 890.4572 297.1156 889.563 296.445 889.4513 295.6626 889.563 295.2155 889.3395 295.3273 888.6689 295.9979 888.11 296.5568 887.5512 296.2215 886.8805 295.5508 887.3276 295.4391 887.5512 295.2155 887.8865 294.8802 887.8865 294.8802 886.4334 295.6626 885.8746 296.7803 885.5393 298.3451 884.5333 298.904 884.5333 299.1275 884.7569 298.904 885.204 298.3451 885.651 298.1216 885.9864 298.2333 886.3217 298.6804 886.8805 299.351 886.657 299.6864 886.7688 300.1334 886.8805 300.1334 886.3217 300.1334 885.651 300.357 885.204 301.2512 884.7569 301.4747 884.198 301.6982 883.5274 301.81 883.1921 302.5924 883.5274 303.1513 884.4216 303.263 885.5393 302.9277 886.4334 302.4806 886.7688 302.1453 886.7688 301.81 886.5452 301.3629 886.4334ZM324.1642 879.7272L324.276 880.5096 324.1642 883.4156 323.8289 884.0862 323.2701 884.3098 322.4877 884.0862 322.1524 883.4156 322.823 879.8389 323.3818 878.7212 324.1642 879.7272ZM310.9752 875.927L311.087 875.5916 311.3106 875.8152 311.6459 876.2623 311.6459 876.4858 312.7636 878.0506 312.4283 879.2801 311.1988 879.7272 310.0811 879.1683 309.7458 878.6095 309.634 878.0506 309.8575 876.7094 310.0811 876.4858 310.4164 876.4858 310.7517 876.2623 310.9752 875.927ZM288.9563 874.921L289.1799 874.6975 289.627 874.4739 290.1858 874.3622 290.2976 874.4739 290.5211 875.3681 290.8564 875.8152 290.9682 876.374 290.2976 877.4917 290.2976 877.2682 290.1858 877.1564 290.074 877.0447 289.9623 876.8211 289.8505 876.4858 289.7387 876.374 289.627 876.374 289.2916 876.4858 289.2916 876.0387 289.5152 875.8152 289.4034 875.5916 289.0681 875.3681 288.9563 874.921ZM321.7053 875.0328L321.9288 876.4858 321.9288 878.4977 321.7053 880.5096 321.1464 881.6273 317.9051 886.657 315.7814 888.5571 313.3224 887.8865 313.8813 886.7688 314.1048 886.4334 314.2166 885.4275 314.8872 883.1921 315.1108 881.9626 314.999 881.5155 314.5519 880.8449 314.3284 880.1743 314.1048 879.9507 314.1048 879.7272 314.2166 879.3919 314.6637 879.0565 314.999 878.833 314.8872 878.4977 313.9931 876.7094 313.4342 874.3622 313.3224 871.7914 314.1048 869.6678 314.8872 870.5619 317.6815 871.2326 318.5757 872.2385 318.5757 872.6856 318.2404 874.921 318.4639 875.7034 319.6934 877.9388 319.8052 876.5976 320.2523 874.921 320.9229 874.0268 321.7053 875.0328ZM312.9871 848.8783L313.4342 848.9901 313.7695 848.7666 314.2166 848.543 314.7755 848.8783 315.1108 849.549 314.999 849.8843 314.4402 850.3314 314.1048 850.7784 313.7695 851.002 313.546 851.2255 313.3224 851.7844 313.3224 852.3432 313.3224 853.908 313.9931 856.1435 313.9931 857.2612 313.3224 857.9318 313.3224 856.8141 312.6518 855.5846 312.6518 854.6904 312.3165 853.6845 311.6459 850.3314 310.4164 847.2018 310.1928 846.084 310.1928 845.0781 310.3046 842.7309 310.5282 842.0603 311.3106 842.1721 311.6459 842.9545 312.6518 848.2077 312.9871 848.8783ZM294.5449 808.4172L294.8802 808.7525 294.5449 809.4231 294.3213 810.429 294.2096 812.3292 293.7625 812.3292 293.6507 811.435 293.6507 809.982 293.8743 808.6407 294.5449 808.4172ZM63.6256 793.6634L63.8492 796.0106 63.5139 797.0165 62.5079 797.5754 62.955 793.7751 63.0668 793.1045 63.2903 792.881 63.6256 793.6634ZM77.8206 755.8847L78.3794 755.1023 78.7147 754.3199 79.2736 753.4257 80.2795 752.9787 80.2795 753.314 79.9442 754.2081 79.2736 755.2141 78.603 755.8847 77.8206 755.8847ZM280.9088 718.5531L281.2441 719.3355 281.3559 720.2297 281.1323 721.1239 280.9088 721.7945 280.5735 720.7886 280.2382 717.1001 280.4617 717.4354 280.6853 717.7707 280.797 718.1061 280.9088 718.5531ZM136.5004 699.2167L136.6122 699.9991 137.0593 701.4521 137.1711 702.1228 136.9475 702.7934 136.0534 704.3582 135.271 706.3701 133.9297 706.5936 132.3649 706.1465 131.2472 705.5877 131.2472 705.1406 132.2531 704.47 133.0355 703.3523 134.0415 701.2286 135.3827 699.2167 136.2769 698.4343 136.5004 699.2167ZM128.0058 683.7923L128.3411 686.4748 127.6705 689.1573 126.441 691.6163 123.8703 694.8576 123.3114 695.3047 122.529 695.7518 119.7348 696.646 118.9524 697.0931 118.7288 697.4284 118.7288 697.7637 118.7288 698.3226 118.7288 698.6579 118.17 699.3285 117.0523 700.2227 116.6052 700.8933 116.8287 701.6757 116.3816 702.4581 115.2639 704.1347 114.8168 704.1347 114.8168 703.6876 115.5992 702.3463 115.1521 700.4462 113.8109 697.2048 114.1462 695.5283 115.5992 694.6341 117.3876 693.7399 119.0641 692.5105 119.623 691.6163 120.4054 689.8279 120.7407 689.1573 122.3055 687.7043 125.4351 683.7923 127.1117 682.5628 128.0058 683.7923ZM277.1086 673.5094L276.9968 674.4035 277.2204 676.4154 277.1086 677.5331 276.7733 678.092 276.438 678.5391 276.2144 678.9861 275.9909 679.7685 276.1026 680.2156 275.8791 682.1157 276.2144 683.7923 274.9849 685.0218 273.4201 684.4629 273.0848 682.1157 272.526 681.3333 270.4023 679.6568 270.9612 677.9802 271.6318 677.4213 271.7436 676.3036 271.52 674.9624 271.1847 673.9564 270.5141 672.9505 270.1788 672.3916 270.067 671.721 270.2905 671.3857 270.6259 671.1622 270.8494 670.8268 270.5141 670.268 270.9612 669.5974 271.8553 669.0385 272.7495 668.5914 273.5319 668.4796 275.6556 669.4856 276.885 669.8209 277.891 669.9327 278.1145 670.9386 278.1145 671.9446 277.1086 673.5094ZM81.3972 546.202L81.509 546.8726 81.9561 548.1021 82.0679 548.5492 81.9561 549.8904 81.509 551.1199 80.7266 552.1259 79.6089 552.7965 78.7147 553.02 77.3735 552.9083 76.2558 552.6847 75.8087 552.2376 75.4734 551.567 74.9145 550.8964 73.685 549.8904 68.7671 543.9666 68.5436 543.5195 68.0965 542.1782 72.7909 541.7311 74.0204 541.284 74.5792 540.5017 75.1381 540.2781 76.144 541.3958 77.1499 542.29 77.7088 542.4018 78.2677 542.5135 79.4971 542.5135 81.2855 542.29 81.6208 542.6253 81.7326 543.9666 81.3972 545.6431 81.3972 546.202ZM92.9097 512.8942L93.0215 513.6766 92.9097 514.7943 92.5744 515.8002 92.0155 516.2473 91.3449 516.5826 90.1154 518.2592 89.333 518.9298 89.2212 519.0416 88.9977 519.1534 88.6624 519.2651 88.4388 519.1534 88.3271 518.9298 88.2153 518.5945 87.9917 518.4827 87.3211 518.818 87.3211 519.2651 87.5447 519.7122 87.4329 520.1593 87.0976 520.3828 86.427 520.3828 85.3092 520.3828 84.3033 520.4946 83.968 520.3828 83.4091 519.9358 82.8503 519.2651 81.6208 517.4768 81.3972 516.8062 81.2855 516.2473 80.7266 515.5767 80.6149 515.0178 80.6149 514.7943 80.5031 514.6825 80.3913 514.5707 80.2795 514.2354 80.3913 514.0119 80.7266 514.0119 80.9502 514.0119 81.0619 513.6766 80.6149 512.7824 79.9442 512.3353 78.2677 511.7765 77.4853 511.3294 76.9264 510.7705 76.144 508.8704 76.5911 508.7586 76.8146 508.6469 76.8146 508.1998 76.4793 507.7527 78.4912 505.2937 78.9383 505.182 79.2736 505.2937 80.2795 505.4055 80.6149 505.5173 81.1737 505.9644 81.3972 506.2997 81.6208 506.7468 81.8443 507.1938 84.3033 509.0939 85.1975 509.9881 85.9799 509.541 87.0976 509.4293 88.2153 509.541 89.2212 510.2117 90.1154 510.8823 92.1273 512.1118 92.9097 512.8942ZM69.1024 491.8812L69.773 493.446 69.773 494.3402 69.5495 495.1226 66.6435 492.8871 65.8611 491.6576 64.1845 485.7338 63.9609 483.9454 64.9669 484.0572 65.9728 484.7278 66.5317 485.2867 66.867 485.7338 67.0905 486.0691 67.4259 486.5162 68.0965 486.9633 68.8789 487.5221 69.1024 488.3045 68.9906 490.8752 69.1024 491.8812ZM41.6067 479.4746L41.8303 480.257 44.1774 486.5162 44.5128 488.4163 44.7363 490.7635 44.401 490.7635 44.0657 489.7575 43.8421 487.4103 43.5068 486.5162 42.8362 485.5102 39.7066 479.5864 39.4831 478.6922 39.3713 478.3569 39.036 478.1333 38.8124 477.9098 38.8124 477.3509 38.9242 476.7921 39.1477 476.5685 39.4831 476.6803 39.8184 477.0156 40.7125 477.5745 41.0479 478.0216 41.2714 478.4686 41.4949 478.9157 41.6067 479.4746Z" />
</svg>