<?xml version="1.0" encoding="utf-8"?>
<svg xmlns="http://www.w3.org/2000/svg" viewBox="0 0 1021 498" style="stroke-width:0.25px;stroke-linejoin:round;stroke:#444;fill:#ddd" fill-rule="evenodd">
  <path class="MN" d="M915.2882 120.0719L908.582 135.0493 908.1349 136.167 901.4286 151.2561 894.8341 166.3452 894.7223 167.1276 895.1694 168.8042 895.1694 169.6983 894.4988 171.2631 887.3454 182.552 887.0101 183.3344 886.8983 184.3404 886.8983 185.3463 887.6807 194.7351 887.3454 196.2999 886.4513 197.0823 878.9626 200.659 878.292 201.5531 878.292 202.0002 879.2979 208.0359 879.8568 210.8301 880.3039 211.9479 880.9745 213.0656 889.022 221.5602 890.9221 222.5661 892.8222 221.4484 896.2871 216.8658 899.4167 214.8539 901.3168 214.1833 907.2407 215.5245 909.4761 215.4128 917.4119 213.6244 919.6473 213.5127 920.6532 213.7362 924.3417 215.4128 926.6889 216.1952 927.4713 216.6422 935.2953 224.0191 936.6365 224.1309 937.866 222.5661 938.9837 220.4425 940.2132 219.213 941.8898 217.76 948.7078 208.8183 949.4902 208.0359 950.9432 207.477 955.9729 207.8123 956.7553 207.7006 958.879 206.8064 960.6673 206.4711 962.5674 206.3593 963.3498 206.5828 964.8029 207.5888 965.697 207.8123 971.7327 208.2594 973.9681 209.3771 975.98 211.7243 979.3331 217.4246 981.0097 219.213 987.4924 222.119 990.2867 223.125 991.0691 223.6838 991.5162 224.3545 991.7397 225.2486 992.075 228.6018 992.2986 229.3842 992.6339 229.943 993.4163 230.3901 996.3223 231.5078 997.5518 231.9549 998.2224 232.2902 998.446 232.9608 998.2224 233.4079 997.5518 234.5256 997.3283 235.1963 998.5578 235.5316 1003.4757 240.1142 1003.9228 240.673 1004.3699 241.5672 1004.5934 242.2378 1005.0405 242.7967 1006.9406 243.4673 1008.2818 244.4733 1010.5173 247.044 1011.4114 248.497 1012.1938 250.0618 1012.4174 251.0678 1012.4174 253.7503 1012.5292 254.3091 1012.6409 254.5327 1012.7527 254.7562 1013.1998 255.5386 1014.2057 256.5446 1014.6528 257.1034 1014.8763 257.5505 1014.8763 257.8858 1015.0999 258.2211 1015.3234 258.5564 1015.6587 258.6682 1016.2176 258.78 1016.5529 258.8917 1016.6647 259.2271 1016.5529 259.6741 1016.3294 260.0095 1016.2176 260.3448 1016.2176 260.9036 1016.3294 261.1272 1016.4411 261.3507 1016.5529 261.4625 1016.7765 261.5743 1016.8882 261.7978 1016.8882 262.0213 1016.7765 262.2449 1016.7765 262.5802 1016.7765 263.5861 1016.3294 265.1509 1016.3294 265.9333 1016.4411 266.2686 1016.8882 267.1628 1017 267.4981 1017 267.9452 1016.7765 268.2805 1016.5529 268.6158 1015.9941 269.6218 1015.4352 270.1806 1014.7646 270.6277 1014.2057 270.516 1013.5351 270.1806 1013.088 270.4042 1012.7527 270.963 1012.1938 271.8572 1011.7468 272.3043 1011.1879 272.8631 1010.4055 273.1985 1009.8466 273.3102 1009.176 273.0867 1008.0583 272.1925 1007.3877 272.0807 1006.6053 272.0807 1004.2581 271.6337 1002.6933 271.6337 999.899 272.3043 998.446 272.4161 990.3985 270.1806 989.6161 269.7336 988.8337 269.0629 987.9395 267.1628 987.3806 266.4922 986.71 266.604 985.9276 267.6099 985.4805 267.9452 984.9217 267.7217 984.5864 267.051 984.4746 266.2686 984.251 265.598 983.5804 265.2627 982.5745 265.7098 981.7921 266.604 980.6744 268.7276 979.5567 269.3982 978.4389 269.0629 977.3212 268.3923 976.0917 268.057 975.6447 268.1688 974.7505 268.8394 974.3034 268.9512 971.7327 268.9512 970.615 268.7276 968.4913 267.7217 967.3736 267.2746 966.3677 267.1628 965.3617 267.2746 964.3558 267.6099 963.3498 268.2805 962.1204 269.2865 961.785 269.51 959.9967 269.6218 959.4378 269.8453 956.9789 271.7454 955.9729 271.8572 954.4081 272.1925 953.6257 272.6396 952.9551 273.0867 952.3963 273.8691 951.5021 275.5457 951.055 276.2163 950.3844 276.5516 947.2548 276.9987 946.4724 276.7751 945.0194 275.881 944.4605 275.2103 943.5663 273.3102 943.231 272.7514 942.7839 272.8631 941.3309 273.9809 941.1074 273.9809 940.7721 273.8691 940.2132 273.6455 937.6425 274.2044 938.2013 275.6574 938.3131 276.4398 938.0895 276.9987 936.8601 278.6752 936.5248 279.9047 936.413 283.0343 935.8541 284.0403 934.7364 284.3756 923.8946 283.705 919.8708 282.699 919.4238 282.699 919.0884 282.9226 918.4178 283.705 916.4059 285.3815 915.9589 285.6051 914.0587 285.8286 912.7175 286.2757 912.0469 286.8345 911.5998 287.0581 910.9292 288.5111 910.7056 289.4053 910.2585 290.0759 904.8935 295.5527 900.4227 304.4944 900.1991 305.7239 900.6462 307.1769 901.3168 308.1828 901.6521 309.3006 900.9815 310.8653 898.9696 313.5479 898.1872 314.2185 896.6224 315.0009 896.1754 315.2244 895.6165 315.2244 894.0517 314.8891 893.7164 315.1127 893.1575 315.7833 886.3395 321.5954 883.8805 324.3897 883.0981 325.0603 882.204 325.5074 876.9507 326.9604 872.7034 327.7428 866.1089 327.7428 860.185 328.637 859.0673 328.5252 853.8141 326.4015 852.6964 326.2898 851.5787 326.5133 847.3314 328.1899 846.996 328.4134 846.8843 328.8605 846.6607 330.8724 846.3254 331.8783 845.4312 333.7784 843.7547 336.4609 837.1602 342.6084 835.5954 343.6143 835.1483 344.0614 834.9248 344.6202 834.2541 345.738 833.2482 347.191 832.2422 348.0851 831.0128 348.644 829.6715 348.9793 827.7714 349.2029 826.989 349.5382 825.3124 351.3265 822.1828 353.6737 820.171 355.7974 818.9415 356.6915 818.0473 357.0268 815.7001 356.8033 815.253 356.5798 814.3589 355.7974 813.8 355.6856 802.1758 354.5679 799.3815 353.4502 798.0403 353.4502 790.9987 351.4383 786.7514 349.5382 785.8572 348.8675 785.1866 347.9734 783.8453 345.738 781.2746 343.0554 780.3804 342.4966 779.2627 342.273 770.7681 342.3848 767.6385 341.4906 766.8561 341.4906 766.5208 341.4906 765.9619 341.6024 765.6266 341.9377 765.4031 342.3848 764.956 342.7201 764.3971 343.0554 762.9441 343.3908 762.3853 343.6143 760.5969 345.0673 759.7028 345.9615 759.0321 346.9674 753.1083 359.1505 752.7729 360.1564 752.7729 360.9388 752.8847 362.3919 752.8847 363.1743 752.7729 363.9567 752.4376 364.5155 751.767 365.6332 750.9846 367.4216 750.6493 367.8686 750.6493 367.9804 749.8669 368.7628 749.0845 369.9923 748.5256 371.3336 748.3021 372.6748 748.3021 374.4631 748.7492 375.3573 750.6493 376.5868 751.2081 377.2574 751.4317 378.0398 751.6552 379.8282 752.1023 381.393 752.8847 382.846 755.7908 386.8697 756.7967 387.8757 760.3734 390.3347 761.3793 391.2288 762.2735 392.3465 765.0678 397.5998 765.5149 399.0528 765.6266 400.3941 765.6266 401.8471 765.1795 402.9648 764.5089 403.5237 763.9501 403.6354 762.497 404.3061 760.1498 404.1943 759.591 404.4178 754.5613 410.5652 753.6671 411.4594 752.6612 412.0183 749.308 412.2418 748.4139 412.6889 746.402 414.2537 738.8015 417.3833 734.8895 419.6187 733.6601 420.8482 729.301 426.7721 725.6125 430.7958 725.1655 431.69 724.3831 433.8136 723.3771 435.602 722.0359 437.1668 719.1298 439.514 718.3474 440.2964 717.565 442.5318 717.0062 443.2024 708.5116 446.8909 707.5056 447.5615 707.0585 448.0086 706.835 448.3439 706.4997 448.5674 706.0526 448.791 705.4937 448.9028 703.7054 448.9028 701.3582 449.2381 693.646 452.703 688.9516 456.1679 688.7281 456.2796 688.5045 456.2796 688.3927 456.2796 688.1692 456.7267 688.0574 456.8385 687.8339 456.9503 682.916 457.2856 681.4629 457.8444 680.5688 457.9562 672.4095 456.9503 671.2917 457.062 668.2739 458.6268 667.1562 459.0739 666.1503 459.0739 657.8792 457.5091 651.0612 457.6209 648.3787 456.9503 646.5903 456.7267 642.5666 457.3974 629.0422 459.521 615.5179 461.7564 602.1054 463.8801 587.9105 470.1393 573.7155 476.3985 561.1971 482.8812 558.9617 484.1107 557.5087 485.2284 557.0616 485.3402 556.5028 485.5637 554.938 486.4579 553.1496 486.7932 552.5908 487.0167 546.6669 493.1641 545.4374 493.6112 544.2079 492.0464 543.5373 491.3758 542.8667 491.1523 533.5897 491.1523 530.5718 490.7052 530.3483 490.2581 530.4601 481.5399 518.1652 483.9989 505.8704 486.4579 504.8645 486.3461 495.5875 481.3164 486.4222 476.3985 486.3105 476.3985 485.4163 475.9514 474.4627 473.3806 463.5091 470.8099 452.5556 468.2392 450.6554 467.2332 447.8612 464.2154 443.1668 456.3914 440.0372 454.156 436.4605 453.1501 432.8838 452.8147 426.8482 453.4854 414.1063 451.3617 401.4761 449.2381 388.846 447.2262 387.393 447.2262 376.3276 450.5793 371.745 452.0323 358.8913 450.3558 346.0376 448.5674 333.1839 446.8909 320.442 445.2143 310.0473 443.7613 299.6526 442.42 299.5408 442.42 288.2519 443.6495 276.963 444.7672 273.9452 445.3261 273.4981 445.2143 273.2746 445.1025 273.051 444.4319 272.604 439.0669 272.3804 438.0609 272.0451 437.1668 271.2627 436.1608 259.0796 423.9778 257.9619 422.5248 257.4031 420.96 257.0678 419.1716 256.956 417.1597 256.7325 415.5949 252.2616 405.8708 249.0202 395.4761 247.3437 391.5641 246.4495 390.67 245.3318 390.3347 243.767 390.2229 240.7492 389.4405 240.4139 388.9934 240.4139 387.8757 240.7492 385.4167 240.5256 383.1813 240.5256 382.7342 240.7492 382.2871 241.1963 381.5047 241.308 380.2752 241.7551 379.4928 242.6493 378.2634 242.9846 377.3692 242.314 377.0339 231.5839 378.4869 230.2427 378.2634 227.4484 376.8103 221.5245 374.9102 220.8539 374.5749 220.4068 374.0161 220.0715 373.2337 219.5127 372.563 217.389 370.4394 213.3652 367.9804 212.3593 367.4216 210.3474 367.4216 209.4532 367.0862 209.0062 366.4156 208.112 364.5155 207.5531 363.7331 204.9824 360.8271 204.5353 360.4917 203.9765 360.2682 203.5294 360.2682 202.0763 360.9388 200.6233 360.9388 198.0526 360.6035 196.4878 360.0447 194.8112 358.1446 189.7815 350.9912 188.9991 350.3206 183.8576 347.6381 180.5045 347.4145 179.8339 347.191 178.6044 346.4086 177.9338 346.0733 177.2631 346.0733 175.6983 346.2968 174.916 346.2968 172.457 345.0673 171.5628 344.9556 169.6627 345.1791 168.8803 345.2909 168.2097 345.0673 167.6508 345.0673 167.092 345.0673 166.4213 345.1791 165.5272 345.1791 164.5212 344.732 162.8447 343.7261 162.3976 343.7261 161.3916 343.9496 160.8328 343.9496 159.3798 343.7261 155.8031 344.732 153.6794 344.8438 150.6616 345.5144 150.1028 345.5144 148.6497 344.9556 148.2026 344.8438 146.6378 345.0673 146.079 345.0673 144.626 344.5085 144.0671 344.5085 142.5023 344.9556 141.7199 344.732 139.0374 342.8319 138.0315 342.3848 137.0255 342.0495 135.9078 342.0495 134.9019 342.1613 133.1135 342.4966 127.6367 342.1613 126.9661 342.273 125.6249 342.7201 124.9542 342.7201 121.8246 341.9377 121.4893 342.0495 121.154 342.273 120.9305 342.273 120.4834 341.9377 118.4715 339.2552 117.9127 338.9199 117.242 338.9199 116.6832 339.2552 116.1243 339.9259 115.6772 340.3729 115.0066 340.3729 111.877 339.5905 109.8651 338.5846 109.418 338.1375 108.7474 337.0198 108.3003 336.5727 107.2944 336.0139 105.8414 335.6785 104.3883 335.6785 103.2706 335.7903 101.0352 337.1316 100.0293 337.1316 99.5822 335.7903 99.5822 335.0079 99.8057 334.5608 99.8057 334.1138 99.4704 333.3314 98.9116 332.8843 97.5703 332.3254 97.4585 331.7666 97.4585 330.3135 97.0114 329.084 96.5644 327.8546 96.229 326.5133 95.782 325.6191 93.6583 324.0543 92.9877 323.2719 94.4407 312.6537 94.8878 311.6477 101.4823 302.5943 103.2706 300.9177 103.6059 300.6942 104.1648 299.3529 104.1648 297.2293 103.9413 295.2174 103.2706 293.9879 102.3765 292.7584 100.8117 287.5052 100.8117 286.611 101.0352 285.9404 102.0411 284.7109 103.2706 281.3578 103.6059 280.4636 104.053 278.6752 104.5001 277.8928 105.1707 276.2163 105.5061 275.2103 105.5061 274.4279 105.059 273.8691 104.3883 273.6455 103.9413 273.1985 103.9413 271.969 104.3883 270.0689 104.5001 268.8394 104.5001 268.1688 104.1648 266.4922 103.2706 264.9274 102.1529 263.8097 101.7058 263.1391 101.4823 262.1331 101.5941 261.7978 101.9294 261.1272 102.0411 260.7919 101.9294 260.233 101.7058 260.0095 101.4823 259.7859 101.2587 259.4506 100.9234 258.6682 100.6999 257.774 100.4763 256.9916 99.9175 256.321 99.2469 255.7622 98.5762 255.3151 97.9056 255.0915 97.1232 255.0915 95.8937 254.868 94.9996 253.7503 87.2873 240.1142 87.1756 239.7789 87.2873 239.4436 87.5109 239.1083 87.8462 238.4376 87.958 237.6552 87.8462 236.8728 87.5109 236.314 86.6167 235.6433 86.3932 234.4139 86.505 232.9608 86.3932 231.5078 85.9461 230.949 84.9402 230.0548 84.4931 229.3842 83.5989 227.037 83.1518 226.3663 82.8165 225.4722 83.1518 224.8015 83.4871 224.2427 83.3754 223.7956 82.7047 223.2367 82.0341 222.9014 79.1281 222.0073 77.675 221.3366 76.222 220.4425 75.1043 219.213 74.6572 218.5424 74.3219 217.6482 74.0983 216.6422 74.2101 215.7481 74.5454 214.7421 74.3219 213.9597 73.8748 213.4009 72.5336 213.4009 71.3041 212.9538 70.7452 213.2891 70.5217 213.848 70.5217 214.4068 70.4099 215.0774 69.9628 215.6363 68.9569 215.9716 65.6037 216.3069 64.5978 215.9716 64.2625 215.4128 63.9272 214.0715 63.7036 213.5127 63.2565 212.9538 62.1388 212.7303 61.58 212.5067 61.2447 211.8361 61.0211 211.0537 60.6858 210.3831 60.2387 210.1595 59.6799 209.936 59.3446 209.4889 59.0092 208.8183 59.121 208.0359 58.8975 206.8064 58.0033 206.2475 56.7738 206.3593 55.8796 206.6946 54.3149 206.6946 53.756 206.5828 52.5265 205.9122 52.0794 205.9122 51.4088 206.2475 49.9558 207.477 49.3969 208.0359 48.6145 208.7065 47.8321 208.8183 46.1556 208.4829 43.2495 208.4829 42.3553 208.0359 38.7787 203.1179 38.2198 202.6708 37.4374 202.4473 35.5373 202.7826 34.7549 202.6708 33.749 202.0002 31.7371 199.8766 30.8429 199.5413 29.9487 199.653 29.3899 199.4295 28.1604 198.4235 27.6015 197.7529 27.378 196.8587 27.2662 195.9646 27.0427 195.0704 26.9309 194.0645 27.378 192.2761 27.1545 191.4937 25.1426 189.1465 24.4719 188.8112 23.8013 188.8112 23.1307 189.0348 22.4601 189.0348 21.4541 188.3641 19.7776 186.2405 18.8834 185.4581 16.7597 184.3404 16.2009 184.2286 15.0832 184.3404 14.5243 184.3404 13.9655 184.0051 12.9595 183.2227 12.0653 182.7756 11.6183 182.2167 11.2829 181.9932 10.9476 181.9932 10.1652 182.105 9.8299 182.105 8.7122 181.5461 7.818 180.4284 7.4827 179.3107 8.4887 178.4165 8.9358 178.0812 9.2711 177.5223 9.3828 177.0752 9.6064 176.7399 11.0594 175.734 11.2829 175.2869 11.1712 174.0574 10.3888 173.0515 8.4887 171.822 7.818 171.4867 6.365 171.5985 4.2414 170.7043 3.6825 170.2572 3.1237 169.5866 3.0119 169.2513 3.0119 168.2453 2.9001 167.7982 2.5648 167.4629 2.2295 167.2394 1.5589 166.9041 1 166.3452 1 165.5628 1.2235 164.6686 1.6706 163.8862 4.1296 162.6568 5.2473 161.6508 5.2473 159.8625 4.8002 159.3036 4.1296 159.0801 3.6825 158.633 3.459 157.6271 3.6825 156.6211 3.9061 155.9505 4.1296 155.1681 4.0178 154.0504 3.5707 152.5974 3.459 152.0385 4.1296 152.3738 4.6884 152.3738 7.9298 151.9267 8.4887 151.5914 9.0475 150.809 10.277 149.6913 12.736 148.1265 13.8537 147.0088 13.9655 145.7793 13.4066 144.3263 12.9595 142.8733 13.6301 141.4202 13.8537 140.8614 14.4125 139.2966 14.8596 138.626 15.642 138.0671 21.2306 137.0612 22.013 137.0612 23.5778 137.5083 24.3602 137.62 26.2603 137.5083 26.9309 137.2847 28.2722 136.3905 28.7193 136.167 29.2781 136.2788 29.837 136.6141 30.6194 137.8436 31.29 138.4024 32.0724 138.626 36.7668 138.9613 36.9903 138.7377 36.3197 137.1729 36.3197 135.2728 36.4315 134.4904 36.7668 134.0433 37.3256 133.8198 37.9963 134.1551 38.3316 134.714 38.5551 135.4964 38.8904 136.167 39.2257 136.7259 39.4493 137.2847 39.6728 137.7318 40.1199 138.0671 41.3494 137.7318 45.932 135.7199 47.0497 134.8257 47.7204 133.708 47.2733 132.4785 46.4909 131.0255 46.8262 129.9078 47.7204 129.349 48.8381 129.5725 50.7382 131.3608 51.6323 131.9197 52.6383 131.9197 53.4207 131.0255 54.0913 129.796 54.8737 128.9019 55.8796 128.9019 57.3327 127.8959 60.3505 126.7782 62.4741 125.6605 63.033 125.1017 63.3683 124.431 63.033 123.5369 62.4741 123.0898 61.0211 122.4191 60.6858 121.8603 60.6858 121.4132 61.1329 120.8543 61.2447 120.2955 61.0211 120.0719 60.4623 119.5131 60.3505 119.1778 60.3505 118.6189 60.4623 116.607 60.574 116.16 60.9094 115.9364 61.9153 115.0422 63.5919 114.3716 68.2862 114.2598 69.9628 113.8128 71.5276 113.0304 72.31 111.8009 72.4218 111.242 72.4218 110.2361 72.6453 108.8948 73.0924 108.0007 74.0983 107.33 78.2339 106.4359 79.4634 105.7652 83.3754 102.8592 83.9342 102.5239 85.2755 102.4121 85.8343 102.1886 87.5109 100.8473 88.8521 100.6238 91.5347 101.2944 92.9877 101.2944 93.5465 101.0708 94.1054 100.7355 94.5525 100.2884 94.9996 99.7296 95.1113 99.059 95.1113 97.6059 95.4466 97.0471 96.5644 96.3765 99.0233 95.5941 100.141 94.6999 102.3765 91.7938 103.2706 91.0114 104.3883 90.4526 108.1886 90.3408 109.1945 90.1173 112.2123 88.4407 113.4418 88.4407 116.1243 88.9996 117.1303 88.6642 117.6891 87.7701 117.9127 86.7641 118.248 85.7582 119.0304 84.9758 122.2717 83.6345 123.0541 82.7404 124.7307 79.7226 125.5131 78.9402 127.7485 77.5989 130.0957 76.7047 132.4429 76.3694 137.5844 77.4871 140.6022 77.3754 143.2847 75.8106 144.9613 72.2339 144.9613 71.3397 145.073 70.4455 145.1848 69.6631 145.6319 68.9925 146.1908 68.6572 147.0849 68.3219 147.7556 68.5454 148.3144 69.2161 148.8733 71.2279 149.6557 72.4574 150.6616 73.2398 151.8911 73.7987 153.1206 74.5811 154.9089 77.3754 156.1384 78.046 156.809 78.046 157.5914 77.7107 158.262 77.1518 158.8209 76.4812 159.268 75.6988 159.3798 74.0222 159.6033 73.2398 160.8328 72.3457 162.7329 72.0103 164.7448 72.1221 165.9743 72.9045 166.4213 74.6928 166.4213 77.04 166.9802 79.0519 167.3155 80.0579 167.5391 80.6167 167.9861 80.952 168.545 81.2873 170.5569 81.8462 171.5628 81.7344 173.1276 81.7344 180.5045 81.2873 184.193 82.5168 195.2583 82.9639 206.3237 83.5228 206.9943 83.8581 207.4414 84.5287 207.5531 85.3111 207.6649 87.0994 208.8944 90.229 209.1179 91.4585 209.3415 96.6 209.6768 99.1707 210.0121 100.4002 210.4592 101.4062 211.1298 102.3003 213.8123 103.418 214.3712 103.9769 214.5947 104.5358 214.7065 105.3182 214.93 105.9888 215.2653 106.6594 216.6066 107.8889 216.9419 108.5595 217.5008 110.0125 217.8361 110.4596 218.5067 110.6832 219.4009 110.5714 222.4187 109.4537 227.8955 109.1184 228.9014 109.4537 229.7956 110.2361 230.4662 111.8009 231.0251 112.9186 231.2486 113.2539 232.8134 114.1481 241.6433 114.0363 242.9846 114.4834 244.4376 115.6011 244.9965 116.16 245.4436 116.607 245.5553 116.7188 246.226 116.9424 246.7848 116.8306 247.3437 116.2717 248.1261 114.9305 248.7967 114.4834 251.9263 114.0363 253.1558 113.4774 254.3853 111.8009 255.2794 110.7949 256.5089 110.4596 257.7384 110.6832 258.5208 111.8009 258.9679 113.1421 259.5267 114.1481 260.3091 114.4834 261.2033 113.8128 261.5386 113.1421 261.8739 112.5833 262.321 112.1362 262.7681 111.8009 263.2152 111.5773 263.774 111.4656 264.2211 111.5773 264.6682 111.8009 269.3626 113.9245 270.8156 115.0422 272.1569 116.3835 272.9393 116.9424 273.7217 117.0541 274.6158 116.7188 276.1806 115.6011 276.963 115.2658 277.8572 115.2658 278.5278 115.6011 278.9749 116.2717 279.422 117.2777 279.8691 118.1718 280.4279 118.3954 281.0986 118.1718 281.7692 117.613 283.4458 115.8246 284.1164 115.7129 292.611 116.9424 293.7287 118.0601 294.8464 120.0719 295.4053 120.6308 296.2994 120.9661 296.7465 121.0779 297.3054 121.525 297.6407 122.4191 298.4231 123.6486 299.9879 124.431 301.888 124.8781 303.1175 124.8781 304.347 124.431 305.9118 123.7604 308.5943 121.7485 310.7179 120.0719 311.7239 118.9542 311.9474 117.3894 311.6121 116.4953 311.3886 115.9364 311.5003 115.4893 313.8475 114.8187 316.7536 113.4774 317.4242 113.3657 318.0948 113.5892 319.2125 114.8187 319.7714 115.154 320.3303 114.8187 321.2244 113.701 322.2304 112.695 326.7012 110.3479 328.4895 108.336 333.4075 97.4942 333.631 96.7118 333.7428 95.7058 333.631 94.8117 333.4075 93.2469 333.5193 91.6821 334.5252 88.6642 334.637 87.0994 334.4134 85.7582 333.8546 84.864 333.0722 84.1934 332.2898 83.8581 330.2779 83.5228 329.3837 83.1875 327.0365 81.2873 326.3659 80.6167 325.9188 79.7226 324.354 75.587 323.3481 73.0163 323.4598 72.0103 324.8011 69.9985 324.6893 69.4396 323.6834 68.6572 323.2363 68.0983 322.901 67.4277 322.5657 66.8689 321.1127 65.9747 319.9949 64.7452 319.1008 63.2922 318.989 61.7274 321.0009 57.3683 321.5597 55.6917 321.7833 54.0152 322.0068 53.3446 322.901 50.9974 323.0128 50.215 322.901 49.0972 322.4539 47.4207 322.4539 46.6383 322.6774 45.7441 323.0128 45.0735 323.9069 43.844 324.354 43.1734 325.807 39.8202 326.3659 38.7025 326.7012 38.2554 327.2601 38.1437 328.6013 37.3613 329.4955 37.2495 332.0662 37.8084 332.4015 36.9142 332.5133 35.6847 332.178 33.4493 332.4015 32.3316 332.6251 31.4374 333.4075 29.6491 333.7428 28.6431 335.6429 25.4018 338.549 24.0605 344.6964 22.2722 345.7023 21.378 346.7083 20.2603 347.6024 18.919 349.6143 14.56 350.1732 12.2128 350.3967 11.4304 351.6262 9.7538 351.8497 8.9714 351.9615 8.189 351.9615 6.4007 352.185 5.5065 353.0792 4.3888 354.4205 4.3888 354.7558 4.6123 355.5382 5.2829 355.8735 6.8477 356.5441 8.0772 357.5501 8.7479 363.0268 10.648 364.0328 11.3186 364.8152 12.2128 365.374 13.1069 366.0447 13.8893 366.9388 14.4482 374.3157 16.5718 378.2277 16.6836 379.1219 17.1307 381.4691 19.3661 383.481 21.8251 385.7164 23.837 388.5107 24.7311 391.4167 24.3958 394.9934 25.0664 404.4939 24.9547 406.3941 26.0724 408.5177 26.743 422.042 33.7846 423.6068 35.1259 424.9481 35.4612 426.1776 35.4612 427.5188 35.7965 428.7483 36.9142 429.866 38.3672 430.9837 39.0378 432.1014 39.0378 435.1193 37.9201 436.4605 37.8084 437.9135 38.0319 440.2607 39.0378 441.9373 38.9261 442.7197 39.0378 443.2785 39.3732 444.9551 40.6026 445.8493 40.938 448.42 40.7144 448.9789 40.938 450.0966 41.9439 450.6554 42.2792 453.1144 42.391 453.785 42.8381 454.3439 43.3969 457.2499 45.4088 457.5853 46.303 457.1382 47.3089 455.7969 49.6561 455.6851 50.1032 455.9087 50.662 456.1322 51.5562 456.244 52.4504 456.1322 53.2328 455.9087 55.0211 456.1322 56.8095 456.6911 58.9331 457.5853 60.7215 458.3677 62.1745 458.703 62.8451 458.8147 63.5157 458.5912 64.1864 458.2559 64.857 459.0383 66.1982 458.8147 67.5395 458.1441 68.9925 457.9206 70.3338 458.3677 71.8986 459.2618 72.7927 461.1619 74.3575 461.8326 75.8106 461.609 76.9283 460.8266 78.046 460.156 79.2755 460.0442 80.7285 460.3795 82.1815 461.0502 83.5228 461.8326 84.4169 463.2856 85.0876 466.4152 85.5347 467.6447 86.5406 469.9919 90.8997 470.9978 91.6821 470.9978 91.7938 475.5804 92.9116 479.4924 95.9294 480.7219 96.4882 482.2867 96.8235 487.2046 96.1529 489.44 96.8235 490.6695 99.3943 491.0048 100.8473 491.7872 101.7415 492.7932 102.0768 495.9228 101.7415 496.9287 101.965 498.0464 102.4121 499.9465 103.8651 502.0702 104.8711 504.1938 104.9828 507.8823 102.3003 509.7824 102.3003 513.8062 104.0887 515.9298 104.424 518.5006 104.0887 520.8477 103.0827 522.4125 101.2944 523.0832 100.1767 524.7597 98.9472 525.6539 98.053 526.5481 97.1589 527.4422 96.6 529.5659 95.9294 532.919 96.1529 533.925 95.9294 534.5956 95.4823 535.8251 94.2528 536.6075 94.0293 539.6253 94.0293 540.5195 93.8057 542.4196 92.4645 543.0902 92.2409 544.0961 92.0174 547.7846 92.4645 548.6788 92.4645 549.5729 92.1292 550.3553 91.7938 553.8202 88.776 555.0497 88.1054 556.6145 87.8818 566.4504 90.5644 570.8095 90.229 571.7036 90.4526 573.2684 91.1232 574.8332 91.4585 576.5098 91.4585 577.2922 91.6821 579.0805 93.1351 579.1923 93.4704 579.1923 93.9175 579.1923 94.3646 579.3041 94.6999 579.5276 95.0352 582.0983 95.2587 582.8807 95.7058 584.1102 96.6 584.7809 97.0471 585.5633 97.1589 591.7107 95.2587 595.1756 94.9234 598.5287 95.2587 601.323 96.2647 602.6642 97.0471 607.3586 101.1826 608.5881 101.7415 608.8117 102.1886 609.3705 104.0887 609.5941 104.5358 610.2647 105.2064 610.4882 105.5417 610.6 106.1006 610.9353 107.2183 611.1589 107.7771 611.6059 108.2242 612.6119 108.6713 613.059 108.8948 614.6238 110.4596 615.5179 111.1303 616.5239 111.5773 617.418 111.4656 618.2004 111.0185 618.9828 110.9067 620.8829 112.5833 632.3954 112.8068 632.9542 113.0304 633.066 113.1421 634.2955 113.9245 634.9661 114.1481 635.8603 114.0363 636.3074 114.0363 637.7604 114.5952 639.3252 114.7069 639.5487 115.154 639.437 116.4953 639.2134 117.2777 638.9899 117.9483 638.7663 118.7307 638.8781 119.7366 639.437 122.0838 639.5487 123.8722 639.5487 124.5428 639.3252 125.1017 638.6546 127.0018 638.6546 127.5606 639.1017 127.8959 639.7723 128.0077 641.1135 127.8959 641.4488 128.2312 641.2253 129.349 641.1135 130.1314 641.4488 130.9138 642.0077 131.4726 644.3549 133.2609 645.0255 133.5963 647.5963 133.9316 648.4904 134.2669 648.9375 134.8257 649.1611 135.3846 649.3846 136.0552 649.7199 136.7259 651.5083 138.9613 655.9791 142.8733 657.991 144.2145 658.9969 144.3263 660.2264 144.4381 664.6972 143.5439 668.1622 143.6557 670.3976 143.2086 673.6389 144.2145 674.4213 144.2145 677.6627 143.3204 681.5747 143.6557 682.4689 143.991 683.1395 144.4381 684.9278 145.1087 685.5985 145.444 686.8279 145.3322 687.1633 145.5558 687.275 145.8911 687.3868 146.6735 687.4986 147.1206 688.0574 147.3441 688.8398 147.6794 695.5461 147.2323 697.3344 147.903 698.3404 149.0207 698.8992 149.1325 701.3582 149.8031 709.8528 152.262 711.3058 152.0385 712.6471 151.4796 713.8766 150.5855 715.1061 149.4678 715.5531 148.6854 715.8884 148.3501 716.2238 148.4618 717.7886 150.2502 718.3474 150.6972 720.2475 151.1443 723.2653 153.0444 724.4948 153.4915 725.8361 153.6033 727.2891 153.3798 730.754 152.262 734.666 150.0266 740.1428 146.0029 744.3901 144.4381 744.949 144.1028 745.8431 142.8733 746.402 142.4262 747.1844 142.3144 747.855 142.538 749.308 143.3204 750.0904 143.4321 750.8728 143.4321 751.6552 143.3204 755.2319 141.4202 756.5732 140.8614 768.3091 140.1908 771.327 138.7377 780.9393 134.4904 782.2805 134.1551 785.7454 134.6022 788.5397 136.0552 789.4339 136.2788 790.4398 136.167 791.8928 135.8317 794.6871 134.3787 796.5872 132.5903 797.2579 132.1432 797.9285 131.8079 798.7109 131.5844 800.2757 131.5844 800.8345 131.2491 801.1699 130.1314 801.2816 128.343 801.2816 127.6724 801.6169 126.7782 803.8524 122.3074 804.6348 121.1897 805.6407 120.1837 812.0117 115.2658 812.9058 114.0363 813.3529 113.4774 815.0295 112.3597 815.5883 111.8009 817.1531 110.4596 822.6299 107.5536 823.3006 107.4418 824.6418 107.6653 825.3124 107.6653 825.7595 107.4418 829.6715 103.5298 830.2304 103.0827 831.5716 102.7474 832.2422 102.4121 834.2541 100.4002 836.8249 98.8354 839.5074 97.8295 840.9604 98.053 843.8664 99.5061 845.4312 99.9531 851.3551 99.059 854.2612 99.8414 861.9734 104.3122 862.5322 104.8711 862.9793 105.5417 863.6499 106.9947 864.097 107.6653 868.6796 112.8068 873.7094 116.607 874.2682 116.7188 876.2801 116.7188 876.9507 116.9424 878.1802 116.9424 880.3039 116.607 883.657 117.3894 884.6629 117.3894 885.7806 117.0541 895.393 111.4656 897.9637 110.6832 900.5344 110.7949 903.1052 111.8009 911.8233 115.2658 913.1646 116.4953 914.2823 118.0601 915.2882 120.0719Z" />
</svg>