<?xml version="1.0" encoding="utf-8"?>
<svg xmlns="http://www.w3.org/2000/svg" viewBox="0 0 1021 906" style="stroke-width:0.25px;stroke-linejoin:round;stroke:#444;fill:#ddd" fill-rule="evenodd">
  <path class="MT" d="M966.3677 611.6033L1006.4935 676.9894 1017 756.7941 1002.8051 808.4323 966.3677 788.2018 925.2359 834.0279 912.0469 861.6354 912.0469 901.873 869.5738 884.6603 857.9496 877.5069 766.7443 868.4535 639.1017 828.4394 525.3186 765.4004 476.3628 687.943 467.98 678.1072 430.4249 657.7648 422.2656 642.1168 422.2656 540.7404 410.5296 425.2807 395.4405 373.4189 367.7212 339.664 401.3644 309.4858 435.1193 288.6964 472.2273 276.5133 514.0297 272.6013 514.0297 296.8557 489.8871 301.3265 474.3509 309.374 440.149 339.664 649.7199 363.9184 693.646 381.4664 782.7276 458.1415 859.8497 485.6372 873.2623 510.8975 876.2801 543.5347 876.0565 576.2836 890.2515 579.0779 966.3677 611.6033ZM194.3641 4.127L263.1034 29.3872 348.4966 84.3787 400.0231 139.1465 367.7212 162.7303 321.1127 164.6304 249.9144 197.1558 203.4176 207.5505 154.2383 203.7503 99.6939 188.8847 47.4968 166.3069 4.3531 138.3641 12.6242 103.0444 2.9001 67.2777 1 39.5584 32.4077 28.6048 194.3641 4.127Z" />
</svg>