<?xml version="1.0" encoding="utf-8"?>
<svg xmlns="http://www.w3.org/2000/svg" viewBox="0 0 674 1024" style="stroke-width:0.25px;stroke-linejoin:round;stroke:#444;fill:#ddd" fill-rule="evenodd">
  <path class="MU" d="M123.1348 989.9336L123.023 992.3925 122.4641 995.1868 121.4582 998.3164 121.2347 999.8812 121.7935 1001.446 119.4463 1002.2284 116.7638 1004.352 115.0872 1006.6992 115.8696 1008.4876 115.9814 1009.1582 116.4285 1010.0524 116.5403 1010.6112 116.205 1011.5054 115.6461 1011.7289 115.0872 1011.7289 114.5284 1011.9525 113.1871 1014.2997 112.5165 1015.4174 111.287 1016.1998 103.2395 1018.7705 95.0802 1020 92.2859 1019.7765 87.7033 1018.3234 85.1326 1018.0999 83.1207 1018.9941 77.5321 1013.9644 76.3026 1012.5113 75.8556 1011.1701 77.4204 1010.6112 79.7675 1011.0583 81.1088 1010.8348 81.6677 1009.4935 82.2265 1006.5875 82.1147 1005.5815 80.997 1005.0227 81.7794 1002.4519 81.8912 996.8634 82.3383 993.7338 83.0089 991.9454 85.1326 987.5864 86.0267 986.804 86.1385 986.4686 88.2622 984.6803 89.2681 984.2332 91.28 983.6744 92.2859 983.2273 93.8507 981.5507 94.186 979.6506 94.186 977.7505 95.6391 975.068 96.8685 971.3795 97.4274 970.2618 97.8745 969.703 100.557 967.5793 101.2276 967.244 102.4571 967.1322 103.016 966.7969 103.463 966.1263 104.0219 965.3439 105.0278 965.0086 106.5926 965.2321 110.8399 966.5734 111.9576 967.1322 112.5165 968.2499 111.9576 970.0383 112.293 971.0442 112.9636 971.9384 113.746 973.7267 114.5284 975.1798 114.7519 976.2975 115.3108 976.9681 115.6461 977.0799 116.7638 976.8563 117.2109 976.9681 118.2168 977.8623 118.5521 978.5329 118.2168 981.7743 118.9992 982.892 120.0052 983.6744 120.8993 986.5804 122.6877 988.8158 123.1348 989.9336ZM1.1924 4.5589L1.3042 4.3353 1.5277 4.1118 1.7513 4 2.1983 4 2.9807 6.1237 5.4397 10.0356 5.4397 12.0475 3.4278 9.5886 1.6395 6.7943 1.1924 5.5648 1.1924 4.5589ZM668.131 934.2715L669.8076 934.7186 669.4723 936.7305 667.4604 938.8541 664.5543 939.8601 662.4307 940.1954 660.8659 941.0895 659.5246 942.2073 657.6245 943.4367 654.8303 940.4189 654.3832 940.1954 654.6067 938.407 655.3891 937.5129 656.5068 937.0658 659.86 934.9421 662.8778 933.9362 666.0074 933.4891 668.131 934.2715Z" />
</svg>