<?xml version="1.0" encoding="utf-8"?>
<svg xmlns="http://www.w3.org/2000/svg" viewBox="0 0 144 1024" style="stroke-width:0.25px;stroke-linejoin:round;stroke:#444;fill:#ddd" fill-rule="evenodd">
  <path class="MV" d="M63.2349 1019.2176L64.4644 1020 63.5702 1020 63.3466 1019.7765 63.2349 1019.2176ZM68.5999 1017.7646L68.1528 1018.3234 67.9293 1018.7705 67.5939 1019.1058 66.9233 1019.3294 67.0351 1018.547 67.3704 1018.2117 68.5999 1017.7646ZM58.2052 1015.8645L58.5405 1017.2057 58.0934 1016.9822 58.0934 1016.6469 58.0934 1016.3116 58.2052 1015.8645ZM73.1825 1011.8407L71.6177 1014.0761 71.5059 1012.7349 71.953 1011.6172 72.5119 1011.0583 73.1825 1011.8407ZM74.0767 1007.0345L73.8531 1009.4935 72.959 1008.5993 72.7354 1007.5934 73.0707 1006.4757 74.1884 1005.6933 74.3002 1006.0286 74.3002 1006.3639 74.0767 1006.6992 74.0767 1007.0345ZM98.5546 967.3558L99.6723 968.5853 99.8958 969.2559 99.784 970.0383 99.0017 969.3677 98.6663 968.697 98.5546 968.0264 98.5546 967.3558ZM54.405 900.8519L54.852 901.299 55.4109 901.5226 55.6344 901.9696 55.4109 902.752 54.852 902.4167 54.7403 902.0814 54.7403 901.9696 54.6285 901.8579 54.6285 901.4108 54.405 900.8519ZM69.1587 899.2871L70.2765 899.6224 69.7176 900.2931 69.4941 900.2931 69.3823 899.846 69.1587 899.2871ZM46.8045 895.3751L46.8045 895.4869 47.2516 896.7164 47.2516 896.8282 46.6927 896.6046 46.6927 896.3811 46.581 896.2693 46.6927 896.0458 46.6927 895.934 46.6927 895.8222 46.8045 895.3751ZM91.2894 893.475L90.06 894.1457 90.2835 893.3633 90.6188 893.2515 90.9541 893.3633 91.2894 893.475ZM39.8747 890.7925L40.0982 891.0161 40.3218 891.1278 40.4336 891.2396 40.21 891.5749 39.5394 891.2396 39.5394 891.0161 39.8747 890.7925ZM108.8375 880.0625L108.7257 880.0625 108.1669 880.9567 108.1669 881.0684 107.8316 880.3978 107.8316 880.286 107.9433 880.0625 108.2787 880.1743 108.8375 880.0625ZM36.6333 878.0506L36.9686 879.2801 36.5216 878.9448 36.4098 878.6095 36.5216 878.2741 36.6333 878.0506ZM34.2861 865.9793L34.2861 867.097 33.8391 866.6499 33.8391 866.3146 34.2861 865.9793ZM106.0432 864.4145L106.0432 864.5263 106.3785 865.644 105.8197 865.4205 105.7079 865.1969 105.8197 864.8616 106.0432 864.4145ZM92.4072 847.09L92.4072 847.4253 92.4072 847.7606 92.2954 847.8724 92.0718 847.8724 91.8483 847.4253 91.9601 847.2018 92.2954 847.2018 92.4072 847.09ZM90.507 831.3303L90.3953 831.6656 90.3953 831.8891 90.3953 832.1127 90.2835 832.1127 90.1717 832.1127 89.9482 831.6656 90.06 831.442 90.1717 831.442 90.2835 831.442 90.3953 831.442 90.507 831.3303ZM88.0481 820.2649L87.9363 820.6002 87.9363 820.8238 87.9363 820.9355 87.9363 821.0473 87.8245 821.1591 87.7128 821.1591 87.4892 820.712 87.601 820.4884 87.8245 820.3767 88.0481 820.2649ZM20.0912 473.7743L20.3147 473.9978 20.5383 474.2213 20.5383 474.4449 20.0912 474.6684 19.6441 474.4449 19.7559 474.2213 19.9794 473.9978 20.0912 473.7743ZM15.1733 472.8801L15.285 473.1036 15.3968 473.2154 15.7321 473.4389 15.8439 473.5507 15.5086 473.6625 14.838 473.6625 14.838 473.5507 15.0615 473.2154 15.1733 472.8801ZM32.7213 468.2975L30.5977 469.6387 30.4859 469.6387 31.0448 468.7446 31.6036 468.2975 32.1625 468.2975 32.7213 468.2975ZM34.5097 459.5793L34.6215 459.9146 34.845 460.0264 34.845 460.1382 34.9568 460.2499 34.3979 460.5853 34.0626 460.2499 34.0626 460.1382 34.2861 459.9146 34.5097 459.5793ZM2.096 445.4961L2.096 445.6079 2.2078 446.055 2.5431 446.2785 2.6549 446.6139 2.3196 447.0609 1.9843 446.9492 1.649 446.7256 1.649 446.2785 1.8725 445.9432 2.096 445.4961ZM104.1431 417.4416L104.0314 417.5534 103.1372 418.4475 102.8019 418.5593 103.0254 418.224 103.3607 417.8887 104.1431 417.4416ZM3.4373 409.5058L3.4373 409.8411 3.6608 409.9529 3.7726 410.0647 3.7726 410.1765 3.8844 410.1765 3.6608 410.4 2.9902 410.1765 2.8784 410.1765 2.8784 410.0647 3.2138 409.8411 3.4373 409.5058ZM108.0551 396.4286L108.1669 397.7699 107.608 397.3228 107.3845 397.0992 107.3845 396.7639 107.7198 396.6521 108.0551 396.4286ZM38.1981 375.3039L38.4217 375.5274 38.6452 375.6392 38.8688 375.7509 38.8688 375.9745 38.4217 375.9745 38.3099 375.8627 38.3099 375.6392 38.1981 375.3039ZM133.4272 353.2849L133.2036 353.6202 132.7565 353.732 133.4272 353.2849ZM133.4272 350.9377L132.9801 351.3848 133.0919 351.0495 133.4272 350.9377ZM90.9541 348.1435L91.0659 349.2612 90.6188 349.0376 90.6188 348.8141 90.8424 348.4788 90.9541 348.1435ZM94.6426 327.1305L94.6426 327.4658 94.7543 327.8011 94.7543 328.0246 94.419 328.1364 94.1955 327.8011 94.3073 327.5776 94.5308 327.4658 94.6426 327.1305ZM105.8197 315.618L105.8197 315.9534 105.8197 316.2887 105.8197 316.5122 105.4844 316.624 105.4844 316.5122 105.2608 316.2887 105.3726 316.0651 105.5961 315.9534 105.8197 315.618ZM39.3158 293.152L38.0864 295.0521 38.0864 295.1639 38.0864 293.8227 38.4217 293.2638 38.8688 293.152 39.3158 293.152ZM31.2683 292.705L31.9389 292.705 31.7154 292.8167 31.2683 292.8167 31.2683 292.705ZM100.2311 283.2044L98.7781 283.4279 99.1134 282.8691 99.337 282.7573 99.784 282.9809 100.2311 283.2044ZM30.7095 275.0451L30.2624 275.4922 30.3741 275.2686 30.7095 275.0451ZM32.6096 274.7098L32.6096 274.8216 32.4978 275.0451 32.386 275.1569 32.1625 275.1569 32.6096 274.7098ZM47.8105 263.6444L47.6987 263.9798 47.3634 264.0915 47.8105 263.6444ZM48.3693 262.0796L48.4811 262.5267 48.7046 262.7503 48.7046 262.9738 48.2575 262.9738 47.9222 262.6385 48.034 262.5267 48.2575 262.415 48.3693 262.0796ZM53.8461 258.503L53.8461 258.8383 53.399 258.8383 53.399 258.9501 53.8461 258.503ZM55.5227 256.9382L55.9697 257.0499 56.4168 257.2735 56.3051 257.2735 55.9697 257.1617 55.5227 256.9382ZM23.7796 248.4436L23.6679 248.7789 23.4443 248.8906 23.3326 248.8906 23.7796 248.4436ZM59.2111 247.5494L59.2111 247.8847 58.764 247.9965 59.2111 247.5494ZM107.0492 247.3259L106.7139 247.5494 106.2668 247.4376 107.0492 247.3259ZM119.2322 242.6315L117.7792 243.5256 117.1086 243.6374 116.2144 243.4139 116.1026 243.4139 116.885 242.9668 117.6674 242.7432 118.4498 242.6315 119.2322 242.6315ZM56.6404 240.5078L56.1933 240.9549 56.1933 240.7314 56.6404 240.5078ZM103.1372 239.2783L103.1372 239.3901 102.3548 239.5019 102.8019 239.2783 102.9136 239.2783 103.1372 239.2783ZM123.9266 236.037L123.8149 236.037 123.5913 236.2605 123.0325 236.1487 123.9266 236.037ZM126.162 234.6957L126.0503 234.6957 125.2679 234.8075 125.715 234.5839 126.162 234.6957ZM35.9627 233.4662L35.8509 233.8015 35.5156 233.9133 35.9627 233.4662ZM93.7484 232.2367L93.8602 232.5721 94.0837 232.7956 94.1955 233.0191 93.9719 233.1309 93.5249 232.9074 93.5249 232.6838 93.6366 232.4603 93.7484 232.2367ZM84.0243 231.4543L84.2479 231.6779 84.6949 231.5661 84.9185 231.5661 84.8067 231.9014 83.5772 232.125 83.3537 231.7897 83.5772 231.6779 83.9125 231.5661 84.0243 231.4543ZM87.601 223.6304L86.8186 223.7421 87.1539 223.5186 87.601 223.6304ZM111.8553 220.6125L111.6318 220.7243 111.0729 220.7243 111.8553 220.6125ZM89.1658 219.0477L89.2776 219.4948 88.9422 219.7184 89.1658 219.0477ZM34.6215 218.4889L34.3979 218.7124 34.3979 218.936 34.2861 219.1595 33.9508 219.2713 33.8391 218.7124 33.9508 218.6007 34.2861 218.6007 34.6215 218.4889ZM44.122 215.1358L43.8985 215.3593 43.7867 215.6946 43.6749 215.9182 43.4514 215.9182 43.3396 215.4711 43.3396 215.3593 43.4514 215.2475 43.7867 215.2475 44.122 215.1358ZM102.1312 208.5413L101.7959 208.7648 101.3488 208.653 102.1312 208.5413ZM42.7807 186.2988L42.5572 186.6341 42.4454 186.9694 42.3337 187.193 41.9983 187.193 41.8866 186.5223 41.9983 186.4106 42.1101 186.4106 42.3337 186.4106 42.7807 186.2988ZM35.4039 103.141L35.6274 103.3646 35.9627 103.5881 36.0745 103.6999 35.9627 103.9234 35.2921 103.8117 35.1803 103.5881 35.4039 103.3646 35.4039 103.141ZM28.027 89.7285L28.2505 90.0638 28.474 90.1756 28.5858 90.2873 28.6976 90.2873 28.5858 90.6227 27.9152 90.3991 27.8034 90.2873 28.027 89.952 28.027 89.7285ZM54.7403 1008.4876L55.6344 1009.3817 56.5286 1010.723 57.1992 1012.3996 57.4228 1013.8526 56.5286 1013.8526 54.405 1009.1582 53.8461 1006.6992 55.6344 1005.8051 55.6344 1006.811 54.852 1006.811 54.7403 1007.2581 54.852 1007.8169 54.7403 1008.4876ZM89.5011 697.5402L90.8424 697.8755 90.1717 698.6579 89.9482 698.6579 89.7246 698.099 89.5011 697.5402ZM94.0837 695.64L94.1955 696.1989 94.419 696.646 94.3073 696.9813 94.0837 696.9813 93.3013 697.0931 93.4131 696.5342 93.6366 696.1989 93.8602 695.9754 94.0837 695.64ZM100.9018 692.9575L102.3548 692.9575 101.4606 693.7399 101.1253 693.7399 101.0135 693.2928 100.9018 692.9575ZM109.3964 690.8339L108.5022 691.6163 106.9374 692.8458 106.9374 692.734 106.8256 692.734 106.8256 692.6222 106.7139 692.6222 107.0492 692.2869 107.3845 691.8398 107.9433 691.3927 109.3964 690.8339ZM111.7436 687.2572L111.7436 687.369 111.2965 688.3749 111.2965 688.5985 111.1847 688.1514 111.2965 687.8161 111.52 687.5925 111.7436 687.2572ZM74.7473 684.3512L73.7414 684.91 73.7414 684.1276 73.9649 684.1276 74.1884 684.2394 74.3002 684.2394 74.7473 684.3512ZM113.979 679.2097L113.4201 681.8922 112.973 683.2334 112.4142 684.3512 112.3024 684.3512 113.5319 680.1039 113.979 679.2097ZM113.5319 673.5094L113.5319 674.8506 113.1966 674.5153 113.3084 674.18 113.5319 673.5094ZM83.2419 671.4975L83.5772 671.8328 84.0243 671.9446 84.0243 672.1681 83.4655 672.6152 83.0184 672.2799 83.1301 672.0563 83.2419 671.8328 83.2419 671.4975ZM112.7495 666.9149L112.6377 667.4737 112.3024 667.4737 112.526 667.2502 112.7495 666.9149ZM114.3143 659.6497L113.7554 660.991 113.6437 660.5439 113.7554 660.2086 113.979 659.985 114.3143 659.6497ZM115.8791 656.073L118.1145 656.073 117.891 656.2966 117.4439 656.6319 115.8791 657.6378 115.0967 658.0849 115.0967 657.5261 115.2085 657.079 115.8791 656.073ZM47.6987 648.6961L47.3634 648.9197 47.2516 648.9197 47.0281 649.0315 47.0281 648.9197 47.6987 648.6961ZM55.5227 646.1254L55.4109 646.349 55.4109 646.6843 55.2991 646.796 54.9638 646.6843 54.852 646.349 54.9638 646.2372 55.2991 646.2372 55.5227 646.1254ZM57.0875 644.4488L57.1992 644.6724 57.7581 645.4548 56.9757 645.4548 56.8639 645.2312 56.9757 644.7842 57.0875 644.4488ZM35.2921 634.613L35.0685 634.9483 34.6215 634.8365 35.2921 634.613ZM32.386 627.7949L32.4978 629.248 31.9389 628.8009 31.9389 628.4656 32.1625 628.1303 32.386 627.7949ZM86.7068 625.1124L86.7068 625.2242 86.7068 625.5595 86.4833 625.7831 86.4833 625.8948 86.7068 625.1124ZM88.0481 613.4882L89.054 615.1648 89.5011 616.5061 89.6129 616.8414 89.7246 618.6297 89.1658 620.3063 88.0481 614.6059 88.0481 613.4882ZM82.9066 604.5465L83.0184 606.1113 82.7948 605.9996 82.5713 605.776 82.5713 605.4407 82.7948 605.1054 82.9066 604.5465ZM60.9994 598.3991L60.7759 598.7344 60.3288 598.7344 60.9994 598.3991ZM29.0329 581.6334L29.3682 581.7452 29.7035 581.7452 29.8153 581.9688 29.5917 582.4158 29.1447 582.4158 29.1447 582.1923 29.1447 581.9688 29.0329 581.6334ZM25.4562 580.0686L25.568 581.4099 24.7856 581.0746 24.6738 580.7393 25.1209 580.404 25.4562 580.0686ZM44.9044 573.8095L46.2457 573.3624 46.2457 573.4741 45.6868 574.3683 45.3515 574.3683 44.9044 573.9212 44.9044 573.8095ZM88.0481 569.1151L87.9363 569.4504 88.0481 569.6739 88.0481 569.8975 87.7128 570.121 87.3774 569.4504 87.4892 569.2268 87.7128 569.2268 88.0481 569.1151ZM93.9719 568.1091L92.8542 569.4504 92.966 568.668 93.3013 568.3327 93.7484 568.2209 93.9719 568.1091ZM113.3084 554.2495L113.4201 554.2495 113.5319 554.3613 113.6437 554.473 113.4201 554.8084 113.4201 554.6966 113.3084 554.2495ZM88.8305 552.7965L88.9422 553.02 89.1658 553.2436 89.1658 553.4671 88.9422 553.5789 88.4952 553.2436 88.4952 553.1318 88.7187 552.9083 88.8305 552.7965ZM43.1161 546.3138L44.0102 547.0961 43.3396 547.3197 43.2278 547.2079 43.2278 546.7608 43.1161 546.3138ZM115.432 546.0902L115.0967 547.2079 114.9849 546.9844 115.0967 546.6491 115.432 546.0902ZM118.2263 545.196L117.1086 546.5373 117.2204 545.7549 117.6674 545.4196 118.0028 545.3078 118.2263 545.196ZM25.1209 544.1901L25.1209 544.3019 24.7856 545.3078 24.4503 545.6431 24.4503 545.3078 25.1209 544.1901ZM29.2564 529.3245L29.3682 529.5481 29.5917 529.6598 29.8153 529.7716 29.5917 530.1069 29.0329 530.2187 28.9211 529.9952 29.1447 529.7716 29.2564 529.3245ZM121.6912 526.3067L121.6912 526.8656 121.1323 527.2009 121.6912 526.3067ZM39.0923 525.8596L39.2041 525.8596 39.3158 526.1949 39.5394 526.3067 39.6512 526.5303 39.2041 526.8656 38.757 526.642 38.8688 526.4185 38.9805 526.1949 39.0923 525.8596ZM47.4751 513.453L47.6987 513.6766 47.6987 513.7883 47.9222 513.7883 48.1458 513.9001 47.9222 514.3472 47.3634 514.3472 47.2516 514.2354 47.3634 513.9001 47.4751 513.453ZM46.1339 507.3056L46.3574 507.5292 46.581 507.7527 46.6927 507.9762 46.1339 508.1998 45.7986 508.088 45.7986 507.8645 46.0221 507.6409 46.1339 507.3056ZM20.3147 499.4816L20.5383 499.8169 20.7618 499.8169 20.8736 499.9287 20.7618 500.3758 20.0912 500.3758 20.0912 500.264 20.203 499.9287 20.3147 499.4816ZM109.1728 493.2224L109.2846 493.3342 109.5081 493.446 109.5081 493.7813 109.1728 493.2224ZM139.2393 481.4865L139.9099 482.0453 139.6864 482.0453 139.351 481.8218 139.2393 481.4865ZM107.8316 475.0037L108.1669 475.5626 107.8316 475.4508 107.8316 475.0037ZM35.8509 444.602L35.9627 444.9373 36.298 445.1608 36.298 445.2726 35.7392 445.4961 35.4039 445.2726 35.4039 445.1608 35.6274 444.9373 35.8509 444.602ZM34.9568 439.684L35.1803 439.9076 35.2921 440.1311 35.4039 440.1311 35.4039 440.3547 34.9568 440.5782 34.845 440.5782 34.5097 440.3547 34.6215 440.1311 34.845 439.9076 34.9568 439.684ZM34.845 431.1894L34.9568 431.5248 35.0685 431.6365 35.1803 431.7483 35.2921 431.8601 34.7332 432.0836 34.3979 431.8601 34.3979 431.7483 34.6215 431.5248 34.845 431.1894ZM98.8899 429.96L98.6663 430.1835 98.331 430.407 98.2193 430.6306 98.1075 430.2953 98.2193 429.96 98.4428 429.8482 98.6663 429.96 98.8899 429.96ZM99.6723 420.3476L99.6723 420.5712 99.0017 420.7947 99.6723 420.3476ZM86.9304 417.1063L86.8186 417.218 86.3715 417.5534 86.3715 417.3298 86.9304 417.1063ZM96.9898 394.5285L96.7662 394.752 96.5427 394.8638 96.9898 394.5285ZM113.0848 378.3217L113.8672 379.1041 113.7554 380.2218 113.4201 382.2337 111.9671 386.0339 110.5141 387.5987 108.5022 388.8282 105.3726 388.6046 104.0314 387.934 98.1075 385.9221 98.2193 385.1397 108.614 385.6986 109.7317 385.0279 110.4023 382.9043 111.4083 379.8865 113.0848 378.3217ZM34.845 375.1921L36.6333 375.7509 36.0745 375.8627 35.6274 375.7509 34.845 375.1921ZM119.4558 365.3562L119.0087 365.5798 118.6734 365.5798 119.4558 365.3562ZM121.5794 362.5619L121.5794 362.6737 121.4677 363.009 121.5794 363.2326 121.5794 363.4561 121.2441 363.5679 121.0206 363.2326 121.1323 363.1208 121.3559 362.8972 121.5794 362.5619ZM124.9326 361.6678L124.8208 362.0031 124.9326 362.2266 124.9326 362.3384 124.8208 362.4502 124.709 362.4502 124.4855 362.4502 124.3737 362.4502 124.1502 361.8913 124.3737 361.7795 124.5972 361.7795 124.9326 361.6678ZM128.8446 358.6499L128.8446 358.9853 128.9563 359.3206 128.9563 359.5441 128.621 359.6559 128.3975 359.3206 128.5092 359.097 128.7328 358.9853 128.8446 358.6499ZM36.4098 352.8378L36.298 354.9615 35.4039 354.8497 35.1803 354.738 34.6215 353.732 36.4098 352.8378ZM113.979 329.0306L113.979 329.3659 114.0908 329.7012 114.0908 329.9248 113.7554 330.0365 113.6437 329.9248 113.5319 329.7012 113.6437 329.4777 113.7554 329.3659 113.979 329.0306ZM123.9266 224.8598L124.4855 225.8658 124.8208 226.8717 124.709 227.9894 124.2619 229.1072 123.7031 225.5305 123.9266 224.8598ZM42.7807 219.0477L42.5572 219.2713 42.3337 219.7184 42.1101 219.9419 41.8866 219.2713 41.9983 219.1595 42.3337 219.1595 42.7807 219.0477ZM26.9092 215.024L26.7975 215.2475 26.6857 215.4711 26.5739 215.6946 26.3504 215.8064 26.1268 215.2475 26.2386 215.1358 26.5739 215.1358 26.9092 215.024ZM44.4573 198.8172L44.2338 199.1525 44.2338 199.376 44.122 199.5996 43.8985 199.5996 43.6749 199.1525 43.7867 198.9289 44.122 198.9289 44.4573 198.8172ZM43.8985 191.105L43.7867 191.3285 43.6749 191.6638 43.5631 191.7756 43.3396 191.8873 43.1161 191.3285 43.3396 191.2167 43.5631 191.2167 43.8985 191.105ZM93.0778 183.1692L93.0778 183.281 91.513 186.187 91.4012 186.0752 91.7365 185.1811 93.0778 183.1692ZM40.3218 178.8101L40.21 179.4807 39.7629 179.9278 40.3218 178.8101ZM91.7365 175.6805L91.7365 176.1276 91.9601 176.4629 92.0718 176.6865 91.513 177.1336 91.0659 176.6865 91.1777 176.3512 91.513 176.1276 91.7365 175.6805ZM38.9805 173.2216L38.757 174.451 38.4217 174.1157 38.1981 173.8922 38.3099 173.6686 38.6452 173.4451 38.9805 173.2216ZM100.5664 169.6449L98.4428 170.9861 98.331 170.9861 99.1134 169.9802 99.6723 169.6449 100.1194 169.6449 100.5664 169.6449ZM37.304 166.6271L37.6393 168.4154 37.1922 168.0801 37.0804 167.633 37.304 166.6271ZM97.7722 160.4796L97.7722 160.815 97.7722 161.1503 97.7722 161.3738 97.4369 161.4856 97.1015 161.0385 97.2133 160.815 97.5486 160.7032 97.7722 160.4796ZM33.1684 152.8792L32.9449 154.5558 32.386 153.6616 32.4978 153.3263 33.1684 152.8792ZM92.7425 152.7674L93.4131 154.444 92.2954 153.8851 92.0718 153.4381 92.7425 152.7674ZM31.0448 151.3144L30.8212 151.538 30.7095 151.8733 30.7095 151.985 30.4859 151.8733 30.2624 151.7615 30.2624 151.2026 30.4859 151.0909 30.7095 151.3144 31.0448 151.3144ZM74.6355 138.0136L74.412 138.4607 73.9649 138.4607 74.6355 138.0136ZM74.8591 134.3252L74.7473 134.3252 74.1884 134.7723 74.0767 134.7723 74.412 134.437 74.8591 134.3252ZM70.7235 131.6427L70.5 131.978 70.0529 132.0898 70.7235 131.6427ZM77.2063 128.4013L76.9827 128.6249 76.871 128.9602 76.7592 129.1837 76.5356 129.1837 76.5356 128.8484 76.6474 128.6249 76.871 128.5131 77.2063 128.4013ZM70.5 126.3894L69.8294 126.8365 70.0529 126.5012 70.5 126.3894ZM77.2063 124.154L76.871 125.4953 76.5356 124.9364 76.6474 124.7129 76.871 124.4893 77.2063 124.154ZM46.4692 119.7949L45.7986 120.242 46.0221 120.0185 46.4692 119.7949ZM73.4061 117.5595L73.5178 118.0066 73.7414 118.2301 73.7414 118.5655 73.2943 118.9008 72.7354 118.5655 72.8472 118.2301 73.1825 118.0066 73.4061 117.5595ZM58.764 111.4121L58.4287 111.7474 57.9816 111.8592 58.764 111.4121ZM70.0529 110.2944L69.7176 111.0768 69.2705 111.4121 69.1587 111.4121 69.2705 111.4121 70.0529 110.2944ZM52.8402 108.5061L52.6166 108.9531 52.1695 108.9531 52.8402 108.5061ZM67.5939 106.0471L67.7057 106.0471 67.8175 106.3824 67.9293 106.4942 68.041 106.4942 68.2646 106.7177 68.1528 107.2766 67.3704 107.053 67.2586 106.8295 67.4822 106.4942 67.5939 106.0471ZM58.2052 105.3765L57.5345 105.8235 57.7581 105.6 58.2052 105.3765ZM66.3645 103.0293L66.0292 103.2528 65.9174 103.4763 65.6938 103.5881 65.4703 103.4763 65.5821 103.141 65.8056 103.0293 66.0292 103.0293 66.3645 103.0293ZM44.6809 100.5703L44.9044 100.9056 45.1279 101.0174 45.2397 101.1292 45.1279 101.4645 44.5691 101.3527 44.4573 101.1292 44.5691 100.9056 44.6809 100.5703ZM1.8725 95.0935L1.5372 95.3171 1.3136 95.5406 1.2019 95.7641 1.0901 95.4288 1.2019 95.0935 1.4254 94.9817 1.649 95.0935 1.8725 95.0935ZM29.3682 91.2933L29.5917 91.6286 29.8153 91.7404 29.9271 91.7404 30.0388 91.8521 29.9271 92.1875 29.2564 91.9639 29.1447 91.8521 29.2564 91.5168 29.3682 91.2933ZM48.3693 91.1815L48.034 91.8521 47.6987 92.0757 47.5869 92.1875 48.3693 91.1815ZM37.0804 75.7571L36.8569 75.9806 36.7451 76.2042 36.5216 76.316 36.298 76.2042 36.4098 75.6453 36.6333 75.5336 36.8569 75.6453 37.0804 75.7571ZM32.1625 74.9747L32.386 75.1982 32.6096 75.31 32.7213 75.4218 32.6096 75.7571 32.0507 75.6453 31.9389 75.4218 32.0507 75.1982 32.1625 74.9747ZM45.9103 72.7393L45.7986 73.0746 45.9103 73.2981 46.0221 73.5217 45.6868 73.6334 45.575 73.4099 45.3515 73.0746 45.4633 72.851 45.6868 72.851 45.9103 72.7393ZM47.8105 67.486L47.5869 67.7096 47.4751 67.9331 47.3634 68.1567 47.0281 68.0449 47.1398 67.3743 47.3634 67.2625 47.5869 67.486 47.8105 67.486ZM51.0518 61.4504L50.0459 62.4563 50.1576 61.6739 50.3812 61.4504 50.7165 61.4504 51.0518 61.4504ZM55.7462 55.9736L55.5227 56.5325 55.2991 56.9795 55.0756 57.3149 54.5167 57.5384 54.6285 56.5325 54.9638 56.0854 55.7462 55.9736ZM46.8045 49.4909L46.6927 49.8262 46.8045 50.0497 46.8045 50.2733 46.581 50.385 46.4692 50.2733 46.1339 49.938 46.2457 49.7144 46.581 49.6026 46.8045 49.4909ZM31.3801 48.932L31.1565 49.1556 31.0448 49.3791 30.933 49.4909 30.5977 49.3791 30.7095 48.8202 30.933 48.7085 31.1565 48.8202 31.3801 48.932ZM62.7878 45.9142L63.3466 45.9142 63.5702 46.026 63.5702 46.3613 63.682 46.8084 61.8936 50.8321 60.8877 52.6205 59.2111 53.9617 59.0993 53.9617 59.6582 51.9498 61.8936 48.3732 62.7878 45.9142ZM65.6938 40.2139L67.7057 40.5492 66.6998 41.2198 65.9174 41.4433 65.5821 41.108 65.6938 40.2139ZM41.4395 38.7608L41.216 38.9844 40.9924 39.2079 40.8806 39.4315 40.6571 39.3197 40.7689 38.6491 40.9924 38.5373 41.216 38.6491 41.4395 38.7608ZM60.7759 38.5373L60.5524 38.7608 60.4406 38.9844 60.2171 39.0961 59.9935 38.9844 60.1053 38.4255 60.3288 38.3138 60.5524 38.4255 60.7759 38.5373ZM38.8688 37.3078L38.8688 37.6431 38.9805 37.8667 38.9805 38.0902 38.6452 38.202 38.3099 37.6431 38.4217 37.4196 38.6452 37.4196 38.8688 37.3078ZM54.7403 37.3078L54.7403 37.4196 54.5167 37.5314 54.405 37.8667 54.2932 37.9784 54.0696 37.8667 53.9579 37.8667 54.0696 37.196 54.2932 37.196 54.5167 37.3078 54.7403 37.3078ZM37.4157 36.3019L37.1922 36.4136 36.9686 36.6372 36.8569 36.8607 36.6333 36.749 36.7451 36.0783 36.9686 35.9666 37.1922 36.1901 37.4157 36.3019ZM55.858 31.4957L55.7462 31.831 55.858 32.1663 55.858 32.3899 55.6344 32.5017 55.2991 31.9428 55.2991 31.7193 55.6344 31.6075 55.858 31.4957ZM69.8294 28.7014L69.7176 30.4898 69.1587 32.2781 68.4881 33.0605 68.1528 32.0546 68.2646 30.8251 68.7117 29.5956 69.2705 28.7014 69.8294 28.7014ZM32.386 23.56L32.386 23.6717 32.386 24.007 32.1625 24.3424 32.386 23.56ZM67.8175 21.7716L67.3704 24.3424 67.2586 24.4541 67.1469 24.4541 67.0351 24.3424 66.9233 24.3424 66.9233 23.1129 66.9233 22.2187 67.2586 21.7716 67.8175 21.7716ZM27.9152 19.2009L27.9152 19.648 27.8034 19.8715 27.9152 19.2009ZM39.4276 14.3947L39.6512 16.1831 39.0923 15.5124 39.0923 15.0653 39.4276 14.3947ZM35.5156 10.5945L35.2921 11.3769 35.1803 10.9298 35.5156 10.5945ZM30.7095 5.9001L30.5977 7.1296 29.8153 6.3472 29.9271 6.1237 30.2624 6.0119 30.7095 5.9001ZM26.9092 4L27.021 4.1118 27.021 4.4471 26.7975 4.6706 26.9092 4Z" />
</svg>