<?xml version="1.0" encoding="utf-8"?>
<svg xmlns="http://www.w3.org/2000/svg" viewBox="0 0 1021 346" style="stroke-width:0.25px;stroke-linejoin:round;stroke:#444;fill:#ddd" fill-rule="evenodd">
  <path class="MY" d="M935.5188 170.2616L935.1835 169.9263 932.501 167.5791 932.2774 166.9085 932.6128 166.2378 933.6187 165.5672 934.6246 165.1201 935.5188 164.8966 936.413 164.8966 938.3131 165.5672 939.2073 165.679 939.7661 165.9025 940.325 166.5732 940.9956 167.5791 941.4427 168.138 941.8898 168.3615 942.4486 168.4733 943.1193 168.585 945.5782 169.3674 945.8018 169.8145 946.1371 170.5969 943.231 170.5969 939.6543 170.5969 937.3072 170.5969 935.5188 170.2616ZM126.6308 61.3965L127.9721 62.4024 130.6546 64.3025 131.3252 64.5261 132.5547 64.1908 132.7782 63.6319 132.3311 63.1848 131.437 63.5201 131.9958 62.626 133.1135 62.7377 139.1492 64.8614 140.2669 65.6438 142.5023 67.8792 148.6497 80.174 149.7674 81.5153 150.8851 82.4095 151.3322 82.7448 154.0147 84.4213 155.2442 85.4273 156.2502 86.6568 156.9208 88.3333 157.4796 89.1157 158.8209 89.7864 168.0979 97.1633 170.3333 98.1692 172.457 98.6163 173.3512 99.1751 176.0337 101.6341 180.8398 106.9991 186.0931 115.382 187.8814 119.741 193.0229 128.3474 196.0407 133.936 196.376 134.9419 196.5996 135.2772 197.4937 136.3949 197.7173 136.842 197.829 137.5127 197.382 138.9657 197.4937 140.1952 197.9408 142.3188 198.835 150.1428 198.835 151.3723 198.2761 152.3782 197.9408 153.3842 198.6114 155.7314 198.4997 156.5138 200.1762 161.3199 200.288 162.8847 200.1762 163.4436 199.3938 165.2319 199.0585 165.9025 198.7232 166.1261 197.9408 167.0202 197.7173 167.4673 197.829 167.9144 198.1644 169.2557 197.829 169.8145 197.4937 169.9263 197.382 170.0381 196.9349 170.1498 196.5996 170.4851 195.4818 171.9382 195.0348 172.7206 194.923 173.6147 195.3701 175.2913 197.2702 179.9857 197.0466 181.327 195.9289 180.6563 195.0348 182.1094 194.4759 184.4565 194.2524 186.1331 194.3641 188.0332 194.1406 189.0392 193.2464 189.0392 192.7993 189.7098 192.3523 190.604 192.1287 191.2746 192.1287 192.2805 192.464 193.1747 194.4759 197.5338 194.5877 198.2044 195.4818 199.4339 197.2702 201.1105 198.4997 202.8988 197.7173 204.4636 199.5056 204.0165 197.0466 209.3815 196.7113 211.5052 197.6055 217.9879 197.9408 218.9938 198.1644 219.9998 197.0466 232.5182 197.382 234.6418 199.0585 238.3303 201.5175 241.5716 207.6649 247.6073 208.3355 247.9426 209.1179 248.0543 210.0121 248.0543 210.3474 248.2779 211.1298 248.9485 211.6887 249.1721 212.1358 249.0603 213.3652 248.5014 214.1476 248.8367 214.2594 249.1721 214.1476 249.6191 214.2594 250.0662 216.0477 251.5193 216.7184 252.3017 218.0596 255.2077 217.6125 256.4372 217.5008 257.4431 217.9479 258.3373 221.7481 263.1435 222.1952 263.5905 223.3129 264.4847 223.6482 264.82 223.8717 265.3789 223.9835 266.3848 224.0953 266.9437 224.4306 267.5025 225.3248 268.6202 225.4365 269.2909 225.3248 269.738 224.8777 270.7439 224.7659 271.4145 225.1012 272.4205 227.5602 275.4383 228.9014 278.6796 229.7956 280.0209 230.4662 281.2504 230.8015 281.8092 231.8075 283.0387 232.1428 283.5976 232.5899 284.8271 232.7017 285.833 232.4781 288.0684 232.8134 289.0744 233.3723 290.1921 234.0429 290.8627 234.7135 290.3039 235.0488 290.3039 236.3901 292.7628 236.949 295.2218 237.8431 296.563 238.1784 297.3454 238.1784 299.022 238.5138 299.8044 239.0726 300.475 239.5197 301.1457 239.2961 301.7045 239.6315 302.3751 239.9668 304.4988 241.0845 307.4048 241.5316 309.752 241.5316 311.0933 241.1963 311.6521 240.7492 312.0992 240.9727 314.3347 240.6374 315.1171 238.7373 315.1171 238.5138 315.3406 237.9549 316.123 237.7314 316.2348 235.3842 316.123 234.3782 315.8994 232.2546 315.1171 231.8075 314.7817 231.8075 314.2229 231.8075 313.2169 231.5839 312.4345 230.9133 311.9875 230.2427 311.4286 229.6838 310.9815 229.4603 309.0814 230.8015 308.1872 232.7017 307.4048 233.9311 305.9518 233.037 305.7283 232.031 305.9518 231.2486 306.5107 229.4603 307.7402 229.125 307.9637 228.9014 307.6284 228.5661 306.6224 227.0013 303.2693 225.7718 301.481 224.5424 300.5868 224.3188 301.2574 224.7659 302.7105 226.7778 305.7283 226.7778 306.5107 226.5542 307.9637 226.666 308.6343 226.8895 309.305 227.0013 310.0873 226.8895 310.9815 224.9894 312.4345 222.5305 311.8757 218.0596 309.5285 216.7184 309.6403 214.5947 310.6462 213.5888 310.9815 211.4651 310.758 210.6827 310.8697 209.7886 311.3168 207.2178 314.67 205.653 315.8994 203.7529 315.5641 203.7529 315.3406 203.3058 314.7817 202.9705 314.3347 202.747 314.67 202.747 315.2288 203.0823 316.0112 203.0823 316.4583 202.9705 317.0172 202.0763 318.3584 201.2939 320.1468 200.6233 319.1408 198.835 317.576 198.1644 316.5701 197.7173 315.5641 196.0407 309.9756 195.0348 307.9637 193.5817 306.2871 191.3463 304.9459 185.1989 302.5987 176.4807 297.1219 174.3571 296.116 173.2394 295.7806 172.0099 295.6689 171.2275 295.4453 170.5569 294.8865 169.7745 293.5452 168.7685 292.4275 167.5391 291.3098 166.086 290.4156 164.4095 289.6332 163.6271 289.9685 161.0563 290.3039 160.1622 290.3039 159.0444 289.6332 158.3738 288.6273 157.3679 286.5036 156.4737 285.4977 152.2264 282.0328 151.6675 281.4739 151.3322 280.8033 151.7793 280.6915 151.7793 280.468 151.6675 280.2444 151.6675 280.0209 150.9969 279.462 150.1028 278.6796 148.0909 277.5619 140.8257 274.6559 132.5547 271.191 130.7663 270.185 129.4251 269.0673 125.5131 264.7083 124.9542 264.4847 123.8365 264.2612 122.7188 263.7023 122.16 262.8081 122.2717 261.914 121.3776 261.8022 120.5952 261.4669 119.0304 260.4609 118.1362 261.1316 116.4596 261.2433 115.9008 261.914 115.4537 260.6845 115.3419 259.0079 115.1184 257.5549 114.2242 256.996 113.8889 256.7725 113.4418 256.4372 112.6594 255.543 111.5417 252.5252 111.0946 251.9663 110.424 251.7428 107.965 251.5193 107.2944 251.0722 106.8473 250.5133 105.9531 249.9545 103.0471 249.3956 102.0411 248.9485 100.2528 248.6132 99.1351 248.1661 97.1232 246.7131 95.8937 245.2601 93.323 241.3481 91.7582 240.0068 89.411 239.448 87.1756 239.2244 85.8343 238.3303 86.7285 236.0948 85.6108 235.8713 85.7226 235.2007 88.2933 232.0711 89.0757 231.2887 89.7463 231.0651 90.3052 230.5063 90.3052 229.165 89.9699 226.5943 89.6345 225.9237 88.1815 224.8059 87.8462 224.1353 86.7285 217.429 86.505 216.3113 85.7226 215.5289 83.9342 213.9641 83.7107 213.6288 83.5989 213.1817 83.2636 212.7347 82.2576 212.5111 81.6988 212.2876 81.2517 211.9523 81.1399 211.7287 80.8046 210.8345 78.3457 207.5932 76.6691 206.0284 76.3338 205.5813 75.8867 204.3518 74.8807 202.8988 74.4337 200.5516 73.9866 199.4339 73.2042 198.3162 69.404 195.7454 68.1745 195.1866 67.6156 194.8513 67.3921 194.516 66.4979 193.0629 65.1567 191.3864 64.3743 190.7157 61.9153 190.3804 61.3564 189.8216 61.3564 188.9274 61.9153 187.6979 62.9212 186.8037 63.033 186.4684 62.4741 186.2449 61.3564 186.4684 60.7976 186.5802 60.4623 186.8037 59.9034 187.0273 58.6739 186.692 57.3327 186.0213 56.662 185.5743 55.9914 184.7919 55.7679 184.0095 55.5443 183.0035 55.6561 180.4328 55.8796 179.5386 56.5503 179.2033 59.7916 179.3151 60.7976 179.2033 61.58 178.1974 62.4741 177.7503 63.5919 177.6385 64.3743 177.7503 63.9272 176.6326 62.6977 176.7443 61.4682 177.415 60.9094 177.7503 59.5681 177.6385 59.3446 176.8561 59.4563 175.6266 59.4563 174.2854 58.8975 173.503 56.215 171.7146 55.4326 170.9322 54.4266 170.1498 53.1971 169.9263 52.0794 170.7087 51.5206 169.591 51.0735 167.9144 50.8499 166.3496 51.1853 165.679 50.4029 165.4554 50.1793 164.7848 50.0675 164.0024 49.844 163.22 49.2851 162.5494 48.8381 162.4376 48.6145 162.2141 48.8381 161.0964 49.2851 159.7551 49.5087 158.9727 49.5087 158.0785 49.7322 157.2961 50.7382 156.6255 50.9617 155.9549 51.0735 154.5019 52.0794 151.037 52.7501 149.6957 51.9677 150.031 50.9617 149.6957 50.1793 149.0251 49.844 148.0191 50.0675 147.0132 50.5146 146.119 51.1853 145.5602 52.0794 146.119 52.4147 145.3366 52.8618 144.7778 53.3089 144.3307 53.756 143.9954 52.5265 143.7718 51.4088 144.1072 50.6264 144.2189 50.2911 142.7659 50.0675 140.1952 50.5146 139.5245 52.0794 139.4128 52.0794 138.9657 51.7441 138.9657 50.9617 138.6304 51.4088 137.9597 51.297 137.6244 50.2911 137.1773 49.7322 137.1773 49.3969 137.2891 49.1734 137.2891 48.8381 136.5067 48.8381 135.8361 49.1734 134.9419 49.1734 134.3831 48.8381 134.1595 48.391 134.1595 47.9439 133.936 47.8321 133.2653 47.2733 133.6007 46.7144 133.7124 45.4849 133.7124 44.9261 133.4889 45.1496 133.0418 45.7085 132.5947 45.932 132.5947 45.932 131.9241 45.7085 131.7006 45.3732 131.477 44.8143 131.0299 44.2554 130.6946 43.6966 130.8064 43.1377 131.1417 42.8024 131.5888 42.1318 130.8064 41.9083 130.1358 41.6847 129.4651 41.3494 128.6827 40.1199 127.2297 39.7846 126.112 39.0022 124.3237 38.5551 123.653 38.2198 122.4235 38.2198 121.9765 38.4433 121.9765 38.6669 122.0882 38.8904 121.8647 39.4493 121.3058 40.0081 120.8587 40.4552 120.1881 40.9023 118.5116 41.5729 116.9468 41.6847 115.829 41.5729 115.2702 41.1259 114.2642 41.0141 113.9289 41.1259 113.2583 41.5729 112.3641 41.6847 111.8053 41.5729 111.1347 40.3435 108.6757 39.2257 107.2227 39.0022 106.552 38.8904 105.3226 39.2257 100.8517 38.8904 99.6222 37.7727 97.6103 37.4374 96.4926 37.1021 92.0218 37.5492 92.2453 38.2198 92.3571 38.7787 92.3571 39.2257 92.0218 39.3375 91.5747 38.8904 91.2394 38.4433 91.0158 38.2198 90.7923 38.7787 84.6449 37.3256 74.1384 36.9903 73.2442 36.2079 72.2383 35.5373 71.1206 34.6431 68.7734 32.743 65.4202 32.1842 63.2966 31.4018 62.5142 29.6134 61.3965 28.3839 59.7199 27.2662 57.4845 26.3721 55.0255 26.1485 52.7901 25.925 51.7842 26.3721 51.0018 26.8191 49.884 27.0427 48.5428 26.9309 48.0957 26.8191 47.2015 26.8191 46.7545 27.1545 46.1956 27.6015 45.7485 27.9369 45.3014 27.8251 44.6308 27.4898 43.4013 27.378 42.5072 27.7133 40.3835 27.8251 39.2658 27.9369 38.5952 28.2722 38.1481 29.0546 37.9245 29.5017 38.2598 29.6134 38.3716 29.837 38.7069 30.284 38.9305 31.0664 38.9305 31.0664 38.8187 31.8488 38.3716 32.2959 38.3716 32.9666 38.3716 33.5254 38.5952 33.8607 38.9305 35.7608 44.7426 36.3197 45.7485 37.3256 46.6427 38.8904 47.4251 39.3375 47.6486 40.567 47.9839 41.3494 48.0957 42.6906 47.8722 43.473 48.0957 45.1496 49.3252 46.0438 49.7723 49.2851 50.6664 51.0735 51.4488 51.9677 51.6724 52.8618 51.5606 56.215 49.1017 57.1091 49.1017 57.2209 49.437 57.1091 50.6664 57.3327 51.1135 57.7798 51.3371 58.2268 51.4488 58.7857 51.4488 59.3446 51.5606 60.574 52.2312 61.0211 53.2372 61.1329 55.6961 61.2447 56.255 61.4682 56.9256 62.1388 57.9316 62.2506 58.3787 62.1388 58.8257 61.9153 59.2728 61.9153 59.3846 61.8035 59.8317 61.9153 61.2847 62.0271 61.7318 62.4741 62.5142 62.6977 62.5142 62.9212 62.1789 63.5919 61.9553 64.2625 62.0671 66.3861 62.5142 67.3921 62.2906 68.7333 60.8376 69.7393 60.6141 71.4158 61.9553 72.31 62.2906 74.6572 61.7318 75.3278 61.9553 75.6631 62.626 75.7749 63.7437 75.6631 64.9732 75.2161 65.4202 74.5454 65.7556 73.8748 66.6497 73.763 67.7674 74.6572 68.5498 75.5514 69.3322 75.9985 70.3382 75.6631 72.3501 75.5514 75.3679 75.2161 77.0444 75.1043 78.0504 74.769 78.9446 73.763 79.3916 72.7571 79.6152 71.8629 80.0623 69.7393 84.4213 69.404 84.9802 69.2922 85.6508 69.404 86.2097 69.6275 86.6568 70.0746 87.2156 70.6334 88.4451 70.9688 88.8922 71.5276 89.1157 72.5336 89.004 72.9806 89.1157 74.2101 89.8981 75.1043 91.0158 75.8867 92.3571 76.5573 93.6983 77.3397 94.0337 78.7927 93.5866 81.2517 92.1336 82.0341 91.3512 82.7047 90.457 83.1518 89.451 83.2636 88.2216 83.9342 85.8744 85.499 85.092 87.6227 84.7567 89.5228 83.7507 91.4229 82.5212 96.8997 80.3976 98.688 79.727 99.9175 79.3916 101.0352 79.727 101.8176 80.8447 102.1529 81.4035 102.3765 81.7388 102.8235 82.0741 103.3824 82.1859 103.8295 82.2977 103.9413 82.7448 103.7177 83.3036 103.7177 83.7507 104.7237 86.0979 105.5061 86.9921 106.6238 87.2156 107.0708 86.9921 107.1826 86.9921 108.0768 86.0979 108.6356 85.9861 109.418 86.0979 109.7534 86.6568 110.0887 87.3274 110.5358 87.8862 111.6535 88.4451 112.5476 88.3333 113.1065 87.6627 113.5536 86.545 113.7771 86.3215 115.3419 85.3155 115.5655 84.8684 115.789 84.4213 116.0125 83.9743 116.5714 83.6389 118.3597 82.1859 118.695 80.174 118.695 77.9386 119.4774 75.815 120.7069 74.2502 124.5072 71.2323 125.9602 69.8911 126.519 68.2145 126.2955 64.1908 126.6308 61.3965ZM803.1817 131.5888L804.0759 131.5888 804.8583 131.477 805.4172 131.1417 805.976 129.3534 806.5349 128.9063 807.2055 129.018 807.8761 129.6887 807.9879 130.024 808.2114 130.1358 809.4409 130.1358 809.888 130.1358 810.4469 130.3593 810.7822 130.6946 811.341 131.7006 812.2352 132.0359 813.3529 132.0359 814.1353 131.9241 814.8059 131.477 816.4825 129.6887 816.7061 129.3534 818.8297 127.565 820.5063 125.4414 821.0651 125.1061 822.1828 124.9943 823.1888 124.5472 823.9712 123.8766 824.4183 123.3177 824.7536 122.5353 825.0889 120.4117 825.2007 118.5116 825.3124 117.9527 825.8713 116.9468 826.3184 116.4997 826.7655 116.1644 826.989 115.829 826.6537 115.1584 824.6418 116.0526 822.7417 115.9408 820.9534 115.2702 816.3707 111.2464 816.259 110.7993 816.3707 110.3523 816.3707 110.0169 815.8119 109.7934 815.5883 110.0169 814.5824 110.7993 814.2471 110.2405 814.3589 109.4581 814.6942 108.6757 815.0295 106.9991 815.4766 106.3285 815.8119 105.7696 815.9237 105.3226 816.5943 104.7637 819.2768 103.1989 819.8356 102.193 820.5063 101.4106 824.0829 98.7281 825.8713 94.8161 826.989 93.8101 827.6596 94.9278 825.8713 98.281 826.989 99.8458 827.2125 99.2869 827.4361 97.8339 827.6596 97.275 829.448 98.8398 830.5657 99.2869 835.1483 99.6222 836.6013 99.5105 837.9426 99.0634 839.5074 97.7221 840.8486 95.7102 841.9663 93.363 842.5252 91.2394 842.9723 89.004 843.1958 87.998 843.7547 87.1039 844.5371 86.545 849.2315 83.9743 850.0139 83.0801 850.3492 81.8506 850.4609 79.3916 850.7963 78.3857 854.0376 73.2442 854.7083 71.0088 853.9259 69.444 852.8081 69.8911 852.3611 69.2205 852.9199 68.2145 854.4847 67.7674 855.3789 67.2086 857.8378 63.5201 858.9556 62.5142 859.6262 62.1789 860.4086 62.0671 861.0792 62.2906 861.8616 62.626 862.5322 62.7377 862.7558 62.1789 862.5322 60.5023 861.8616 60.2788 860.9674 60.8376 859.6262 60.9494 859.6262 60.6141 860.9674 59.9435 861.8616 59.0493 862.0851 58.8257 862.4205 58.714 863.4264 58.8257 863.9853 58.4904 864.097 58.3787 864.097 58.0433 864.5441 56.3668 864.6559 56.0315 864.8794 55.5844 865.4383 55.0255 870.0209 51.5606 870.8033 50.7782 871.6975 50.1076 872.7034 49.6605 873.4858 48.9899 873.7094 47.9839 873.8211 47.0898 873.8211 46.978 873.9329 45.9721 874.38 45.1897 875.0506 44.8543 875.9448 44.1837 879.1861 39.8246 879.9685 39.154 880.4156 38.3716 880.7509 37.4774 880.8627 36.1362 880.7509 34.3479 880.8627 33.9008 881.0862 33.4537 881.7569 32.5595 881.9804 32.0007 881.8686 30.1006 881.9804 29.2064 883.5452 28.5358 883.8805 27.6416 884.4394 25.6297 884.4394 24.512 884.5512 24.0649 884.9982 23.8414 885.2218 23.6178 885.7806 22.8354 886.0042 22.1648 886.4513 21.7177 887.0101 21.3824 887.6807 21.3824 887.7925 21.4942 888.3514 22.7237 890.475 24.1767 890.8103 24.7355 891.481 28.424 890.475 27.8651 889.9162 27.7534 889.6926 27.9769 889.3573 29.5417 889.3573 29.877 889.9162 30.4359 890.8103 30.6594 891.481 31.1065 891.8163 32.2242 891.5927 34.2361 891.0339 35.6891 889.3573 38.1481 888.4631 39.9364 887.6807 42.1718 888.0161 44.0719 890.0279 44.519 891.1457 43.9602 891.9281 43.066 892.5987 42.0601 893.0458 41.7248 893.8282 41.3894 896.0636 39.154 897.7402 37.9245 898.0755 37.3657 898.299 35.4656 898.6343 35.242 898.9696 35.242 899.305 34.9067 899.9756 33.4537 901.8757 31.5536 902.0992 30.7712 901.8757 29.7652 900.6462 27.418 900.758 26.3003 901.0933 25.7415 901.5404 25.6297 901.9875 25.8532 902.6581 25.965 903.1052 25.7415 903.4405 25.4062 903.5523 25.0708 903.4405 24.8473 902.9934 24.6238 902.8816 24.0649 902.9934 23.5061 903.2169 23.1707 903.7758 23.059 904.3347 23.1707 905.0053 23.3943 905.3406 23.5061 905.7877 23.1707 906.5701 22.5001 906.9054 22.6119 907.3525 22.8354 908.6937 23.3943 909.029 23.5061 909.2526 23.7296 911.9351 25.2944 912.1586 25.5179 912.3822 25.965 912.4939 26.8592 912.1586 29.3182 911.9351 29.877 911.1527 30.3241 910.9292 31.2183 911.0409 32.2242 911.3762 33.1184 913.2763 35.5773 913.4999 36.4715 913.6117 39.7129 913.8352 40.607 914.5058 41.7248 915.1765 42.0601 917.1883 42.0601 917.9707 42.2836 918.7531 42.8425 919.8708 44.1837 921.1003 45.4132 921.9945 46.0838 922.8887 46.3074 923.6711 46.0838 924.3417 45.525 925.5712 43.5131 926.3536 42.5072 926.8007 42.5072 926.9124 43.2895 927.0242 44.7426 927.136 44.7426 928.3655 45.9721 928.1419 45.8603 928.0301 46.0838 928.0301 46.4191 928.0301 46.7545 928.2537 46.7545 928.9243 46.978 929.1479 47.0898 929.8185 47.7604 930.3773 47.9839 931.048 48.0957 931.7186 47.7604 932.2774 47.6486 932.8363 47.9839 934.0658 49.3252 934.6246 50.2194 935.1835 51.3371 935.5188 51.3371 935.6306 50.89 935.9659 50.6664 936.1894 50.7782 936.5248 51.0018 936.7483 51.3371 936.8601 51.6724 936.8601 52.2312 936.8601 52.7901 937.0836 53.2372 937.5307 54.1314 937.6425 54.5784 937.4189 55.0255 937.0836 55.4726 936.8601 55.9197 937.4189 57.3727 936.8601 60.8376 936.5248 61.62 935.7424 61.62 934.0658 61.3965 933.0598 61.62 932.1657 62.2906 930.7127 63.6319 930.2656 64.5261 930.4891 65.3085 931.6068 66.6497 932.3892 68.6616 933.1716 68.9969 933.3952 69.3322 933.3952 69.8911 933.6187 70.2264 933.6187 70.6735 933.3952 71.3441 932.9481 71.7912 932.501 71.903 932.0539 72.1265 931.9421 72.7971 932.2774 73.5795 932.9481 73.8031 933.7305 74.1384 934.0658 75.3679 933.7305 76.262 933.0598 76.9327 931.2715 78.0504 924.677 80.2858 923.4475 81.6271 924.3417 81.5153 927.2477 80.174 928.589 79.8387 932.2774 79.8387 935.7424 79.3916 938.3131 79.727 939.2073 79.6152 939.5426 79.0563 939.0955 77.7151 939.6543 77.3798 940.2132 77.3798 940.7721 77.6033 941.5545 77.7151 942.4486 77.7151 944.9076 77.1562 945.4664 76.8209 945.69 76.1503 946.4724 75.4796 947.8136 74.5855 949.4902 72.3501 950.4961 71.903 950.7197 71.5677 951.055 71.4559 951.7256 71.6794 953.514 73.4678 953.6257 74.0266 953.6257 74.5855 953.7375 75.0326 954.6317 75.4796 954.7435 76.1503 954.6317 77.1562 954.8552 78.3857 957.0906 81.2917 957.3142 81.6271 957.426 81.9624 955.8612 83.9743 955.0788 84.4213 953.9611 84.7567 952.7316 84.8684 951.7256 84.4213 950.9432 84.7567 947.7019 84.4213 946.8077 84.7567 946.2488 85.4273 946.1371 85.9861 946.6959 86.3215 946.9195 86.6568 948.3725 90.7923 948.8196 91.1276 949.0431 91.1276 949.3784 91.0158 950.0491 90.9041 950.8315 90.6805 952.8433 89.6746 953.7375 89.451 954.1846 89.5628 954.5199 90.0099 954.967 90.2334 955.4141 90.1217 955.8612 89.8981 956.42 89.7864 956.9789 90.0099 957.426 90.7923 957.873 91.0158 958.3201 90.7923 958.7672 90.1217 958.7672 89.6746 958.5437 89.1157 958.879 88.2216 959.1025 87.8862 959.4378 87.5509 959.5496 87.1039 959.1025 86.0979 959.2143 85.5391 959.9967 84.9802 962.3439 84.7567 964.4675 83.7507 965.5853 83.9743 968.2678 85.4273 968.4913 85.5391 968.8266 85.3155 969.3855 84.6449 969.8326 84.5331 970.2796 84.7567 970.8385 84.9802 971.1738 85.2037 972.1798 85.4273 977.433 88.5569 979.2213 90.0099 980.0037 90.457 980.8979 90.9041 981.6803 91.3512 981.9039 92.0218 981.7921 92.5806 981.345 92.8042 981.0097 93.0277 980.7861 93.2513 980.3391 96.1573 980.0037 97.275 979.7802 98.3927 980.1155 99.5105 980.5626 99.5105 981.0097 98.1692 981.345 97.6103 981.7921 97.1633 982.0156 96.6044 981.9039 95.2631 982.1274 94.7043 983.4686 93.6983 984.5864 93.6983 985.5923 94.4807 988.0513 97.3868 989.0572 98.3927 989.9514 98.7281 991.2926 98.9516 992.2986 99.734 992.9692 100.7399 993.3045 101.9694 993.7516 101.6341 993.8634 101.4106 993.9751 101.0752 993.9751 100.5164 996.4341 102.4165 997.3283 102.64 998.446 103.1989 999.3402 104.3166 999.5637 105.3226 998.5578 105.8814 999.1166 106.3285 1000.0108 106.6638 1000.7932 106.6638 1001.4638 106.2167 1001.5756 105.5461 1001.2403 104.9872 1001.1285 104.5402 1001.7991 104.0931 1003.1404 104.2048 1005.4876 105.4343 1007.0524 105.5461 1011.1879 103.646 1012.4174 103.4224 1013.3116 103.7578 1013.9822 104.5402 1015.2117 106.2167 1016.3294 107.3344 1016.8882 108.0051 1017 108.8992 1016.8882 110.0169 1016.4411 111.8053 1016.3294 112.6994 1016.5529 115.0466 1016.4411 116.3879 1015.3234 117.3938 1012.7527 120.1881 1010.7408 121.3058 1001.2403 124.7707 991.6279 127.565 989.7278 128.6827 988.4983 129.2416 987.2689 129.5769 986.1512 129.6887 985.3688 129.5769 983.6922 128.7945 982.2392 128.571 981.2332 128.2356 980.5626 128.3474 979.892 128.4592 978.3272 129.6887 977.2095 130.3593 976.7624 130.3593 976.0917 129.9122 975.7564 129.5769 974.8623 127.9003 973.0739 125.8884 971.3974 124.9943 970.3914 124.659 969.9443 124.9943 969.3855 124.7707 968.2678 125.5531 966.703 126.8944 966.2559 126.5591 966.0323 126.7826 965.9206 127.3415 966.0323 128.0121 964.0205 127.4532 962.1204 128.571 959.2143 131.9241 958.3201 132.4829 957.9848 132.93 957.7613 133.4889 957.873 134.1595 958.0966 134.3831 958.4319 134.4948 959.7732 135.2772 960.1085 135.6125 960.4438 136.0596 961.0026 137.6244 962.2321 139.5245 963.6851 141.2011 965.2499 142.6541 967.0383 143.9954 967.7089 144.5542 968.156 144.8895 968.6031 145.1131 969.1619 145.1131 970.1679 145.2249 970.615 145.3366 970.8385 145.6719 971.2856 146.6779 971.5091 147.0132 971.8444 147.2367 972.1798 147.5721 973.0739 147.9074 973.1857 147.0132 973.9681 146.7897 974.8623 147.125 975.5329 147.5721 976.0917 148.2427 976.2035 148.9133 975.98 149.5839 975.4211 150.2546 975.1976 150.8134 975.6447 151.484 976.3153 151.9311 976.6506 152.3782 976.9859 152.7135 977.9919 152.1547 979.4449 151.037 980.0037 151.3723 981.345 151.5958 981.9039 151.8194 981.6803 152.49 982.2392 153.4959 984.251 155.7314 984.3628 156.0667 983.9157 156.6255 983.3569 156.9608 982.9098 156.8491 982.3509 156.6255 981.5685 156.5138 981.7921 157.2961 981.5685 158.0785 981.0097 158.7492 980.5626 159.308 979.7802 159.8669 978.9978 160.0904 976.9859 159.9787 976.0917 160.0904 974.4152 160.5375 973.4092 160.7611 971.1738 160.7611 969.9443 160.5375 969.1619 159.9787 968.4913 160.8728 968.156 161.0964 963.4616 162.4376 959.2143 162.8847 957.9848 163.22 951.1668 166.6849 950.0491 166.7967 946.8077 165.7908 945.9135 165.679 945.3547 165.4554 943.3428 163.5553 942.5604 163.1083 942.1133 162.8847 941.6662 162.8847 941.5545 162.6612 941.2191 161.6552 940.9956 161.4317 940.325 161.3199 938.6484 160.7611 937.4189 160.4257 936.8601 160.314 935.7424 159.5316 935.1835 158.6374 934.7364 157.6315 933.8422 156.6255 933.0598 156.7373 931.9421 157.4079 930.9362 158.3021 930.4891 158.8609 930.7127 159.308 931.7186 159.9787 931.9421 160.5375 931.9421 162.6612 932.1657 163.22 932.9481 164.0024 932.9481 164.5613 932.7245 165.2319 932.2774 165.679 931.2715 166.4614 930.8244 166.7967 930.6009 167.2438 930.2656 167.5791 930.1538 168.0262 930.3773 168.2497 931.2715 169.1439 931.6068 169.591 931.048 169.4792 930.6009 169.591 928.4772 170.4851 928.0301 170.0381 927.2477 169.7028 925.7947 169.8145 924.9006 169.8145 923.224 169.4792 921.771 169.1439 920.5415 168.3615 917.6354 165.2319 913.3881 163.1083 911.488 161.767 911.0409 161.2081 910.8174 160.7611 910.3703 160.4257 909.5879 160.314 909.029 160.4257 908.1349 161.2081 907.6878 161.4317 898.1872 161.6552 895.2812 160.8728 893.0458 160.8728 889.022 161.6552 887.0101 161.2081 885.11 159.8669 884.2158 159.7551 882.5393 161.0964 881.6451 161.4317 880.6392 161.4317 879.2979 160.8728 877.9567 161.5435 877.286 161.5435 874.9388 158.1903 874.38 158.1903 874.0447 158.7492 872.927 159.8669 872.5916 160.6493 872.5916 161.2081 872.8152 161.5435 872.927 161.8788 872.5916 162.3259 871.5857 162.5494 871.0268 162.3259 870.468 162.3259 869.2385 163.5553 868.6796 163.7789 868.1208 163.6671 867.6737 163.4436 866.3325 161.2081 866.1089 160.5375 865.8854 160.314 865.5501 160.2022 865.2147 160.2022 864.8794 160.2022 863.4264 158.8609 862.1969 159.0845 860.7439 159.8669 859.1791 160.2022 858.5085 160.2022 856.1613 159.5316 855.0436 159.4198 854.4847 159.4198 853.9259 159.0845 853.4788 160.2022 853.0317 160.8728 852.5846 161.3199 851.5787 161.8788 849.1197 164.3377 848.4491 164.673 847.5549 164.3377 847.1078 163.7789 846.7725 162.8847 846.549 162.1023 846.2136 161.6552 845.543 161.3199 844.3135 160.8728 842.1899 160.7611 841.0722 160.4257 840.6251 159.7551 840.4015 158.8609 839.9545 158.4139 839.2838 158.5256 838.6132 159.1963 838.1661 160.8728 838.1661 162.5494 837.9426 164.1142 835.9307 165.7908 835.8189 166.4614 835.4836 167.0202 834.813 167.2438 834.2541 166.9085 833.9188 166.4614 833.5835 166.3496 831.3481 168.3615 831.0128 168.8086 830.6774 169.1439 829.5597 169.4792 829.1127 169.9263 828.6656 171.1558 828.442 172.0499 827.8832 176.6326 827.2125 178.868 826.2066 180.8799 825.7595 181.4387 823.8594 182.4447 823.5241 182.8917 823.5241 184.0095 824.3065 184.7919 825.4242 185.3507 826.0948 186.1331 826.0948 187.8097 824.0829 193.8453 823.8594 195.8572 823.8594 197.9809 824.0829 199.2103 825.3124 202.3399 825.4242 202.8988 825.3124 203.9047 825.3124 204.4636 825.4242 205.1342 826.3184 206.5872 826.7655 207.705 826.7655 208.2638 826.4301 208.8227 825.8713 208.9344 825.4242 208.8227 824.9771 208.5991 824.53 208.4873 823.4123 209.7168 822.4064 212.064 820.618 219.888 820.618 220.7822 821.5122 221.7881 822.2946 222.0117 822.4064 222.4587 820.618 224.8059 820.2827 225.8119 820.0592 227.9355 819.6121 228.9415 818.8297 229.3886 816.7061 229.6121 813.3529 231.0651 811.6763 231.2887 810.2233 230.618 808.8821 228.6062 808.2114 228.3826 807.3173 229.7239 806.4231 231.624 805.7525 232.2946 802.8464 234.3065 801.9523 235.0889 801.2816 236.2066 801.0581 236.7655 800.9463 237.3243 800.7228 237.8832 800.3875 238.442 799.6051 239.1127 799.158 239.2244 799.0462 239.448 799.3815 240.2304 800.7228 241.9069 801.0581 242.9129 800.4992 244.2541 799.9404 244.5894 799.3815 244.7012 798.9344 244.9248 798.5991 245.5954 798.5991 246.0425 799.158 247.0484 799.3815 247.6073 799.158 248.6132 798.7109 249.8427 798.5991 250.8486 799.3815 251.631 799.9404 251.631 801.0581 251.0722 801.6169 250.9604 802.1758 250.9604 802.8464 251.1839 803.5171 251.5193 803.9641 251.8546 804.7465 252.637 805.6407 253.8664 806.1996 255.0959 806.3113 255.9901 805.6407 256.996 804.523 257.3314 802.1758 257.5549 801.0581 258.2255 799.158 260.4609 798.3756 260.908 797.4814 261.3551 795.246 263.2552 794.24 263.9259 792.2282 263.7023 791.5575 264.0376 791.2222 265.1553 791.334 266.273 791.4458 267.0554 791.1105 267.7261 789.7692 268.1732 785.7454 268.732 784.1806 269.6262 783.3982 271.6381 782.8394 274.4323 782.8394 275.4383 783.0629 275.8854 783.6218 276.6678 783.7336 277.2266 783.7336 278.9032 783.7336 279.3503 784.2924 280.5798 784.8513 280.5798 785.7454 280.2444 786.8631 280.0209 787.422 280.468 787.6455 281.1386 787.6455 281.921 787.5338 282.5916 787.0867 283.5976 786.8631 284.4917 786.8631 285.3859 786.9749 286.5036 786.9749 287.3978 786.3043 288.0684 783.3982 289.1861 780.604 289.5215 780.0451 289.745 779.4862 290.1921 779.0392 290.6392 778.8156 291.0862 778.5921 291.6451 778.7039 291.9804 778.8156 292.4275 779.0392 293.0981 779.0392 294.6629 778.4803 298.2396 777.5861 300.9221 776.2449 303.1575 775.4625 304.0517 773.5624 305.5047 773.0035 306.3989 773.0035 307.6284 773.2271 308.7461 773.2271 309.8638 773.0035 310.8697 772.1094 311.6521 770.8799 311.9875 769.7622 311.5404 765.7384 308.6343 764.5089 308.0755 763.2794 307.9637 762.2735 308.1872 754.5613 311.4286 754.4495 311.4286 753.3318 312.211 752.8847 312.4345 752.2141 312.211 751.6552 311.6521 751.2081 311.0933 750.6493 310.6462 748.7492 310.0873 746.6255 310.0873 739.2486 311.3168 738.2427 311.6521 737.0132 312.6581 733.9954 316.5701 725.7243 322.0469 724.4948 322.3822 723.0418 321.7116 720.3593 318.582 719.2416 317.9113 718.2356 317.9113 717.1179 318.1349 715.1061 319.029 712.6471 318.9173 708.8469 316.0112 706.3879 315.1171 703.3701 314.4464 701.0229 314.3347 700.3523 314.1111 698.6757 312.7699 696.7756 311.8757 694.7637 311.6521 692.7518 311.9875 690.7399 312.6581 689.9575 312.6581 689.8458 312.211 690.0693 311.6521 691.7459 310.5344 692.5283 309.6403 693.0871 308.6343 693.4224 307.5166 693.3107 306.3989 692.8636 305.6165 691.9694 305.1694 690.7399 304.7223 689.8458 304.4988 687.3868 304.6106 686.3809 304.387 685.4867 304.1635 684.5925 304.0517 683.6983 304.387 683.1395 304.8341 682.8042 305.2812 682.4689 305.7283 681.91 306.0636 681.4629 305.9518 680.1217 305.6165 664.6972 304.8341 663.4678 305.0576 662.5736 305.6165 661.903 306.3989 661.0088 307.0695 660.1146 307.4048 656.8733 307.6284 655.6438 308.0755 649.7199 310.8697 648.714 311.6521 648.3787 312.9934 648.6022 313.4405 649.8317 313.4405 650.0552 313.8876 650.0552 314.5582 649.9435 315.1171 648.2669 318.3584 645.5844 326.1824 645.1373 326.7413 644.4667 327.0766 643.1254 327.3001 638.9899 327.1883 635.7485 328.3061 631.1659 333.7828 628.1481 334.5652 626.5833 334.1182 623.9008 333.0004 622.5595 332.5534 621.5536 332.5534 620.8829 332.5534 616.5239 334.3417 615.2944 336.0183 614.6238 336.3536 614.0649 335.1241 613.8414 334.2299 613.6178 333.4475 613.059 333.0004 612.1648 333.0004 610.1529 333.6711 609.0352 333.8946 608.0293 333.7828 606.7998 333.4475 599.87 330.4297 598.864 330.3179 587.2398 333.224 583.9985 333.3358 582.4337 333.6711 580.9806 334.3417 578.0746 336.8007 577.6275 337.5831 577.5157 338.4772 577.404 338.9243 577.0686 339.1479 576.7333 339.1479 576.2862 338.7008 576.0627 338.589 575.5039 338.9243 575.3921 339.0361 574.3861 339.4832 574.1626 339.4832 573.6037 339.2596 573.2684 339.2596 572.7096 339.5949 571.8154 340.4891 571.033 340.8244 570.3624 340.7127 569.9153 340.3773 569.58 339.9303 569.2447 339.7067 568.574 339.7067 568.4623 339.8185 568.2387 340.1538 567.6799 340.8244 565.5562 341.8304 563.0972 341.6068 560.6383 340.3773 558.7382 338.8125 556.6145 335.9065 555.7204 335.1241 555.0497 334.9006 552.479 334.3417 551.6966 334.4535 551.026 334.677 550.4671 334.4535 550.3553 333.4475 550.1318 332.1063 547.5611 328.4178 546.4433 326.1824 545.6609 325.1765 544.7668 324.6176 541.749 324.2823 540.743 323.8352 539.5135 323.0528 538.5076 321.0409 537.5017 320.1468 535.6015 319.2526 534.9309 318.6937 534.3721 317.576 533.3661 314.5582 532.6955 313.7758 531.8013 313.2169 530.7954 313.2169 529.7894 313.4405 528.7835 313.3287 527.7776 312.5463 526.8834 310.3109 526.5481 309.9756 525.5421 310.5344 525.2068 310.4227 525.095 308.9696 524.7597 308.5226 520.1771 304.4988 519.1712 303.2693 518.6123 302.1516 518.277 301.1457 518.277 298.7985 518.6123 294.7747 518.277 293.7688 517.3828 293.4334 515.1474 293.3217 514.4768 293.0981 513.9179 292.651 513.3591 291.9804 513.0238 291.4216 512.8002 290.7509 512.8002 290.3039 512.8002 289.9685 512.4649 288.0684 512.4649 287.286 512.912 286.6154 514.8121 285.0506 515.371 284.38 516.1534 283.2623 517.4946 280.8033 518.5006 278.1208 518.7241 279.015 518.8359 280.1327 519.3947 282.2563 519.5065 283.2623 519.2829 284.1564 519.0594 284.8271 518.9476 285.6095 519.5065 286.8389 520.9595 288.9626 521.9655 289.9685 522.9714 290.7509 526.2128 292.0922 528.0011 293.2099 530.1248 294.1041 531.0189 294.7747 531.5778 295.6689 532.4719 297.4572 533.1426 298.3514 533.8132 298.4631 536.3839 298.4631 537.0546 298.3514 537.837 297.9043 538.9547 297.7925 545.5492 297.7925 546.2198 298.0161 547.2257 298.6867 547.7846 298.9102 548.0081 298.6867 548.9023 298.0161 549.2376 297.7925 549.6847 297.6807 550.02 297.569 550.3553 297.7925 551.5848 299.1338 551.9201 299.2455 552.1437 298.3514 552.7025 297.7925 552.8143 297.4572 552.7025 297.1219 552.479 296.563 552.479 296.3395 552.3672 294.7747 552.479 294.2158 553.0378 293.0981 553.932 292.651 554.6026 292.8746 555.0497 294.3276 555.4968 294.9982 555.6086 295.3336 555.7204 295.6689 555.6086 296.4513 555.6086 296.7866 555.8321 297.1219 556.0557 297.4572 556.391 297.6807 556.7263 297.7925 557.0616 298.0161 557.5087 298.1278 558.6264 298.1278 559.1853 297.9043 559.8559 297.0101 561.4207 296.4513 562.3149 295.8924 563.0972 295.7806 563.7679 296.7866 563.209 297.569 562.7619 298.2396 562.4266 299.022 562.3149 300.1397 562.2031 300.475 561.3089 301.481 560.9736 302.0398 562.3149 301.481 563.0972 301.3692 563.7679 301.7045 564.3267 302.2634 564.4385 302.8222 564.662 303.2693 565.2209 303.4928 565.668 303.3811 566.7857 302.8222 567.3446 302.8222 568.0152 303.0458 570.1388 304.1635 573.1567 305.0576 574.4979 305.84 575.1685 307.0695 574.8332 308.299 573.9391 309.305 571.9272 310.5344 571.9272 310.9815 573.2684 310.8697 574.3861 310.758 575.3921 310.1991 576.398 309.305 576.8451 308.4108 576.8451 307.4048 576.6216 306.3989 576.5098 305.6165 577.9628 304.4988 580.31 304.8341 584.7809 306.6224 586.9045 308.0755 590.9283 312.0992 592.8284 313.4405 595.958 314.8935 596.6286 315.1171 597.8581 315.0053 599.5347 314.1111 600.6524 313.7758 602.3289 314.4464 604.229 315.8994 606.2409 316.9054 608.4763 315.8994 607.5822 315.7877 606.1292 315.3406 605.4585 315.1171 605.235 314.7817 604.7879 313.4405 604.3408 313.1052 603.5584 312.9934 602.1054 312.4345 601.323 312.3228 600.7641 312.5463 598.864 313.4405 597.7463 313.4405 596.7404 313.1052 595.958 312.5463 595.1756 311.7639 594.2814 311.0933 591.9342 310.1991 591.1518 309.5285 590.1459 307.0695 589.1399 306.0636 588.9164 305.393 588.9164 303.9399 588.9164 303.4928 589.6988 301.7045 590.1459 299.8044 590.593 299.1338 593.6108 298.5749 594.7285 298.4631 595.7344 298.9102 596.4051 299.8044 597.0757 301.0339 597.8581 301.7045 599.0876 301.1457 599.7582 301.0339 600.4288 301.5927 601.323 302.0398 602.4407 301.7045 601.4348 301.3692 600.8759 301.1457 599.9817 300.475 599.5347 300.3633 599.0876 300.3633 598.0816 300.1397 597.7463 300.1397 597.5228 300.0279 597.5228 299.3573 596.9639 298.5749 596.8521 298.3514 596.6286 298.1278 595.7344 297.9043 595.3991 297.7925 595.1756 297.569 593.9461 295.5571 593.7226 294.8865 593.6108 294.1041 593.8343 293.7688 594.952 293.4334 595.3991 293.2099 595.2873 292.8746 594.505 292.4275 594.2814 291.9804 594.505 290.8627 594.952 289.9685 596.0697 288.1802 597.6345 284.8271 599.1993 280.0209 599.3111 278.7914 599.5347 278.5679 600.2053 278.6796 601.2112 279.015 602.4407 278.9032 601.0994 277.7855 600.9877 276.556 601.7701 275.8854 602.6642 275.8854 603.6702 276.3325 605.5703 276.6678 606.0174 276.556 606.688 276.1089 607.0233 275.7736 608.0293 274.4323 608.141 273.9853 607.6939 273.5382 607.1351 273.7617 606.5762 274.3206 606.1292 275.6618 605.6821 275.7736 605.1232 275.5501 603.6702 274.6559 602.6642 274.4323 598.864 274.9912 598.1934 274.8794 597.8581 274.3206 597.8581 273.0911 598.1934 272.3087 598.9758 271.5263 599.9817 270.9674 600.9877 271.191 600.5406 270.185 599.5347 269.8497 598.6405 269.6262 598.1934 269.2909 598.3052 268.2849 598.864 265.9377 599.4229 262.2493 600.0935 260.7963 601.323 259.7903 601.7701 260.6845 602.4407 261.1316 604.229 261.6904 604.7879 262.1375 606.1292 263.7023 606.5762 264.0376 606.7998 264.2612 607.1351 264.4847 607.5822 264.7083 607.9175 264.5965 609.5941 263.4788 610.0411 263.367 611.8295 263.1435 612.1648 263.1435 613.1707 263.9259 614.1767 264.4847 613.7296 263.4788 612.7237 262.4728 611.0471 260.908 610.6 260.2374 609.9294 258.1138 609.5941 257.3314 611.1589 257.4431 612.6119 257.7784 613.8414 257.8902 614.8473 256.996 615.1826 257.1078 615.1826 257.2196 615.2944 257.1078 615.6297 256.996 614.512 256.549 612.5001 256.1019 611.7177 255.543 611.0471 254.9842 610.4882 254.4253 610.2647 253.6429 610.2647 252.4134 611.1589 249.1721 611.3824 247.1602 611.7177 246.3778 612.2766 245.8189 616.0768 243.0246 621.6653 239.448 623.2301 238.6656 633.1778 236.7655 641.1135 236.5419 655.7556 232.6299 670.0623 228.8297 677.998 227.1531 681.2394 225.9237 681.7982 225.9237 690.8517 223.1294 692.5283 222.2352 695.3226 219.2174 696.4403 217.3173 695.7696 216.0878 696.105 215.6407 697.4462 214.7465 700.0169 212.5111 700.464 212.2876 700.6876 211.7287 702.4759 209.0462 706.4997 205.4695 707.3938 204.0165 707.6174 203.6812 707.7292 203.2341 707.8409 202.1164 708.0645 201.5575 709.2939 200.6634 709.5175 200.3281 709.9646 199.7692 712.4235 196.9749 713.653 194.8513 713.9883 193.7336 714.2119 192.5041 714.5472 191.4981 715.5531 190.7157 717.6768 189.4862 730.3069 178.6444 741.1487 164.5613 742.2664 161.9905 741.8194 159.9787 742.9371 158.3021 743.4959 156.0667 743.4959 153.6077 742.2664 148.6898 742.6018 147.9074 743.8312 147.5721 747.1844 149.1369 750.0904 149.5839 751.0964 150.1428 752.7729 151.484 754.1142 151.9311 754.673 152.3782 755.1201 153.3842 755.4554 153.6077 756.2378 153.6077 756.5732 153.7195 756.6849 154.0548 756.7967 154.5019 756.9085 154.8372 757.4673 155.396 757.8026 156.0667 758.138 157.5197 758.138 158.9727 758.9204 159.9787 759.2557 162.3259 759.0321 162.7729 758.3615 163.4436 758.138 163.7789 758.2497 164.5613 758.4733 165.0084 760.2616 165.1201 762.497 165.5672 764.6207 165.2319 765.6266 165.2319 766.2972 165.9025 767.3032 169.2557 767.862 170.2616 768.6444 171.2675 771.8858 174.1736 772.8917 174.956 773.3388 175.4031 773.5624 175.9619 774.0095 177.1914 774.233 177.6385 776.3567 177.862 778.8156 176.409 783.6218 171.9382 783.9571 171.1558 784.2924 169.0321 784.6277 168.0262 785.8572 166.2378 786.1925 165.2319 785.969 164.3377 784.4042 165.0084 784.4042 164.0024 784.6277 163.4436 784.963 163.1083 786.1925 161.9905 786.7514 161.0964 787.1985 160.2022 787.6455 158.1903 787.7573 156.7373 787.422 156.5138 786.6396 156.6255 785.6337 156.2902 784.6277 154.8372 784.4042 152.9371 784.0689 146.7897 783.9571 145.6719 783.6218 144.666 782.6158 142.6541 782.2805 141.76 782.2805 140.8658 782.3923 140.8658 782.8394 140.4187 784.7395 139.6363 785.5219 139.0774 787.1985 137.4009 788.2044 136.842 789.3221 136.5067 790.3281 136.6185 791.2222 136.7303 792.1164 136.7303 793.0106 136.1714 793.3459 135.389 793.3459 134.6066 793.4576 133.7124 794.6871 132.5947 795.246 132.3712 795.6931 132.0359 796.1402 131.5888 796.4755 131.1417 796.8108 132.2594 796.8108 134.2713 797.1461 136.1714 796.8108 140.3069 797.0343 144.4425 797.4814 146.4543 799.158 150.5899 799.7168 152.6018 800.3875 157.7432 800.8345 158.4139 801.5052 158.8609 804.4112 159.9787 805.5289 160.2022 807.0937 160.0904 807.5408 160.2022 808.3232 160.8728 808.8821 161.0964 809.888 161.0964 810.3351 161.2081 811.2293 161.8788 812.4587 162.4376 813.5765 162.4376 814.3589 161.6552 814.1353 160.5375 813.4647 159.4198 811.5646 157.7432 810.4469 156.1784 809.7762 154.0548 809.4409 151.9311 809.4409 149.9193 809.888 147.7956 809.9998 146.9014 809.7762 145.6719 806.4231 135.8361 805.0818 134.0477 804.4112 133.6007 803.7406 133.2653 803.1817 132.8183 803.1817 131.5888ZM962.2321 82.2977L963.0145 82.5212 963.1263 83.0801 962.9028 83.5272 962.2321 83.7507 961.8968 83.8625 961.0026 84.1978 960.6673 84.1978 960.332 84.1978 959.8849 84.086 959.4378 83.7507 959.4378 83.4154 959.6614 82.9683 960.2202 82.5212 960.8909 82.4095 962.2321 82.2977ZM609.9294 262.1375L609.9294 262.3611 610.0411 262.8081 609.8176 263.1435 609.3705 262.8081 608.8117 262.5846 608.3646 262.8081 608.0293 263.2552 607.8057 263.8141 607.2469 263.0317 606.3527 260.908 605.7938 260.4609 604.7879 260.0139 604.5644 259.0079 604.8997 256.6607 605.0114 254.5371 604.1173 246.0425 604.229 243.36 604.8997 241.7952 606.688 242.4658 607.8057 244.0306 608.3646 246.266 608.3646 255.3195 608.8117 259.1197 609.9294 262.1375ZM237.8431 241.6834L237.9549 244.2541 237.8431 244.9248 237.2843 245.3718 236.2783 245.7072 235.2724 245.7072 234.49 245.4836 233.484 244.3659 233.037 243.807 233.037 243.36 233.1487 243.0246 232.8134 242.1305 232.9252 241.6834 233.1487 241.4598 233.8194 241.1245 234.1547 240.7892 234.6018 240.0068 234.6018 239.2244 234.3782 238.442 234.2664 237.6596 234.3782 237.1008 234.7135 236.5419 235.1606 236.2066 235.7195 236.3184 235.943 236.5419 236.0548 236.8772 236.1666 237.4361 236.2783 237.8832 236.949 238.8891 237.2843 239.5597 237.8431 241.6834ZM988.4983 153.1606L989.6161 153.4959 990.2867 154.2783 990.0631 155.0607 988.8337 155.2843 986.9336 155.2843 986.1512 156.0667 985.8158 156.0667 985.5923 155.9549 985.5923 155.7314 985.4805 154.6136 985.257 154.3901 984.5864 153.8312 984.3628 153.6077 984.251 153.0488 984.4746 152.9371 984.9217 152.9371 985.1452 152.9371 985.8158 152.8253 988.4983 153.1606ZM977.3212 145.1131L977.9919 144.2189 979.3331 144.2189 980.7861 144.7778 981.9039 145.3366 981.9039 145.7837 981.1215 145.7837 980.6744 146.119 980.4508 146.7897 980.5626 147.5721 979.5567 146.5661 979.2213 146.4543 978.9978 146.6779 978.7743 147.2367 978.5507 147.5721 978.2154 147.3485 977.433 146.7897 976.5388 146.3426 975.7564 146.119 975.0858 146.119 974.8623 146.0073 974.4152 145.5602 974.1916 145.3366 972.4033 145.1131 968.8266 143.9954 968.8266 143.6601 972.9622 143.6601 973.521 143.4365 973.8563 143.1012 974.1916 142.7659 974.527 142.5424 975.5329 142.7659 975.98 143.4365 976.4271 144.3307 977.3212 145.1131ZM808.5468 107.7815L809.1056 110.464 809.1056 111.6935 808.0997 112.6994 807.6526 112.5877 806.6466 112.0288 806.1996 112.0288 805.1936 112.923 803.8524 113.7054 803.9641 112.923 805.4172 108.8992 805.8642 108.3404 807.3173 106.9991 808.0997 106.6638 808.5468 107.7815ZM35.3138 103.4224L35.7608 104.2048 36.5432 104.6519 37.1021 105.099 36.0961 106.8873 35.8726 108.8992 35.6491 109.7934 34.4196 112.2524 34.3078 113.1465 31.5135 112.6994 29.3899 112.6994 29.2781 112.8112 29.2781 112.923 29.1663 112.923 28.831 112.8112 28.6075 112.5877 28.6075 112.3641 29.2781 111.9171 29.5017 111.2464 29.1663 108.4521 29.2781 106.105 29.1663 105.5461 28.9428 105.2108 28.7193 104.8755 28.6075 104.6519 28.7193 104.0931 28.9428 103.7578 28.9428 103.4224 28.6075 102.9754 29.2781 102.7518 29.5017 103.0871 29.7252 103.5342 30.1723 103.7578 30.6194 103.646 30.9547 103.3107 31.1782 102.8636 31.5135 102.64 32.4077 102.4165 33.5254 102.5283 34.5314 102.7518 35.3138 103.4224ZM8.2651 62.2906L8.9358 60.6141 10.1652 60.167 10.8359 59.4964 11.0594 60.3905 10.6123 60.8376 10.277 61.3965 10.277 62.0671 10.1652 62.4024 10.1652 63.1848 10.5006 64.079 10.277 64.8614 9.8299 65.6438 9.2711 65.8673 8.3769 65.1967 8.1534 64.3025 7.7063 64.1908 7.2592 63.1848 8.2651 62.2906ZM14.189 55.8079L14.7479 56.7021 14.8596 57.1492 14.9714 57.5963 14.4125 57.8198 13.7419 58.0433 13.2948 58.6022 12.6242 58.9375 12.4007 59.7199 11.5065 59.1611 11.2829 57.9316 10.277 57.9316 9.3828 58.2669 8.4887 59.2728 7.818 60.0552 6.9239 60.0552 6.365 60.7259 5.6944 61.0612 5.2473 61.1729 4.5767 58.714 4.912 57.8198 4.8002 56.4785 3.9061 56.1432 2.5648 55.9197 1.6706 55.9197 1.2235 55.2491 1 54.3549 1 52.1195 2.2295 52.5666 3.2354 52.1195 4.912 52.2312 5.6944 52.7901 7.4827 53.0136 8.2651 52.7901 9.0475 52.1195 9.7182 51.2253 10.1652 51.1135 10.9476 51.1135 10.7241 50.6664 10.6123 50.3311 11.1712 50.3311 11.6183 50.5547 11.9536 51.6724 12.4007 52.4548 12.9595 53.0136 14.0772 53.4607 13.9655 53.9078 14.4125 54.1314 14.8596 54.4667 14.6361 55.1373 14.189 55.8079ZM923.4475 34.9067L924.677 36.5833 925.5712 38.1481 925.3476 39.7129 923.4475 41.3894 922.1063 41.7248 920.5415 41.7248 918.8649 41.5012 917.6354 41.0541 917.0766 40.7188 916.9648 40.2717 917.0766 39.8246 917.5237 39.4893 918.0825 39.2658 920.6532 39.154 921.5474 38.9305 922.1063 38.4834 922.3298 37.5892 921.8827 37.1421 919.9826 37.0304 919.8708 36.3597 920.4297 35.6891 922.5534 35.4656 923.4475 34.9067ZM899.305 4.1696L899.9756 4.8403 900.3109 6.0697 900.1991 7.411 899.6403 8.0816 898.7461 7.1875 897.9637 7.6345 897.6284 8.5287 898.1872 9.5347 893.2693 10.7641 893.4928 11.2112 893.9399 11.5465 894.2752 11.8818 893.9399 12.4407 893.4928 12.6642 892.8222 12.6642 892.0398 12.6642 891.481 12.4407 893.9399 7.7463 894.7223 7.411 896.5107 6.9639 897.1813 6.6286 899.305 4.1696ZM908.0231 4.8403L911.9351 4.1696 913.1646 4.505 913.7234 5.3991 913.8352 6.6286 913.2763 10.6524 912.7175 12.2172 911.9351 13.2231 911.0409 12.776 910.035 13.1113 907.0172 13.6702 906.4583 14.0055 906.123 14.3408 904.7817 14.8997 904.2229 15.235 903.8876 15.9056 903.664 16.4645 903.4405 16.9116 902.8816 17.3586 902.4345 16.1292 902.0992 12.1054 902.3228 11.323 902.5463 10.8759 902.4345 8.6405 902.6581 8.0816 902.9934 7.8581 903.7758 7.6345 904.2229 7.2992 905.5641 6.0697 906.6818 5.2873 907.3525 4.952 908.0231 4.8403ZM85.0519 228.1591L84.9402 228.7179 84.4931 229.0532 83.7107 229.2768 83.3754 228.7179 83.7107 228.0473 84.7166 227.712 85.0519 228.1591ZM88.5168 227.9355L88.5168 228.2708 88.5168 228.9415 88.4051 230.171 87.7344 230.8416 86.7285 231.1769 85.9461 231.7358 85.6108 232.0711 85.3872 232.2946 84.9402 232.4064 84.8284 232.0711 84.9402 231.5122 86.1696 228.3826 86.952 227.2649 87.8462 226.9296 88.5168 227.2649 88.5168 227.9355Z" />
</svg>