<?xml version="1.0" encoding="utf-8"?>
<svg xmlns="http://www.w3.org/2000/svg" viewBox="0 0 1021 989" style="stroke-width:0.25px;stroke-linejoin:round;stroke:#444;fill:#ddd" fill-rule="evenodd">
  <path class="NA" d="M358.7795 951.8677L357.4383 952.9854 356.6559 954.2149 355.7617 955.109 353.7498 954.7737 352.8557 954.2149 348.273 950.4146 345.9259 947.7321 344.8081 946.0556 336.7606 937.8963 335.4194 937.3374 334.8605 936.7785 330.3897 930.6311 325.5835 924.9308 315.6359 917.6657 313.624 915.6538 309.712 910.6241 304.347 906.3768 303.341 905.1473 300.9938 901.4589 298.5349 898.7763 298.1996 898.2175 298.0878 897.2116 298.6466 895.535 298.6466 894.6408 297.7525 892.0701 295.7406 889.164 288.2519 881.6754 287.246 880.2223 286.9107 878.0987 286.9107 873.7396 286.7989 873.069 286.3518 871.9513 279.0867 860.4388 277.969 857.6446 276.963 856.3033 275.7336 855.7444 275.1747 855.0738 272.9393 850.603 269.8097 846.5792 269.3626 845.685 268.3567 838.9788 267.9096 838.1964 267.4625 837.5257 267.0154 836.8551 266.7919 835.8492 267.3507 832.3843 266.3448 826.9075 266.7919 825.678 265.3388 822.5484 264.8917 820.9836 264.78 819.0835 264.78 815.6186 264.3329 813.942 263.2152 812.3772 262.6563 812.2655 261.3151 812.1537 260.6444 811.8184 260.5327 811.4831 259.9738 810.5889 259.415 809.8065 259.1914 809.8065 258.9679 808.0182 258.409 806.4534 255.9501 801.3119 255.6147 799.8589 255.9501 797.6234 255.1677 795.9469 254.0499 794.2703 253.4911 792.8173 253.2675 790.9172 253.4911 789.2406 254.1617 788.0111 255.2794 787.564 256.0618 787.4523 256.7325 787.1169 257.2913 787.1169 257.5149 787.8993 257.5149 791.1407 258.0737 791.1407 258.409 789.4641 259.862 785.1051 259.862 784.2109 259.415 783.0932 257.8502 777.9517 256.8442 772.922 255.1677 769.7924 252.7087 767.2217 249.8026 765.3216 245.3318 763.4215 244.6612 762.6391 244.1023 756.1563 244.4376 749.7854 242.8728 747.5499 242.6493 746.8793 242.9846 745.9851 243.4317 745.8734 243.9905 746.0969 244.6612 745.7616 245.6671 743.0791 245.6671 739.5024 244.8847 735.9257 243.6552 733.2432 240.3021 727.5429 239.855 724.8604 241.0845 721.7308 240.5256 721.7308 236.7254 717.1482 235.3842 714.9128 235.2724 713.9068 235.2724 713.2362 235.3842 712.1185 235.3842 705.524 235.7195 703.7356 237.9549 699.4883 238.1784 698.1471 238.1784 696.247 237.8431 694.5704 236.2783 692.8938 235.7195 690.7702 235.3842 686.97 233.5958 681.9403 233.1487 678.0283 232.3663 675.0105 232.3663 673.3339 234.6018 667.0747 234.3782 666.1805 235.943 660.2567 236.2783 656.7917 235.4959 653.6622 234.49 651.5385 232.9252 648.2971 231.9193 645.0558 231.6957 638.4613 230.8015 635.2199 226.4425 626.9488 224.6541 624.4899 220.9657 620.8014 219.9597 618.3425 217.389 615.3246 216.9419 613.3128 217.1655 612.4186 218.2832 611.1891 218.5067 610.6303 218.5067 607.2771 218.1714 605.7123 216.4948 602.6945 214.8183 598.4472 210.7945 590.5114 209.2297 584.8111 207.7767 582.1286 207.2178 578.3284 206.659 577.0989 206.9943 575.4223 206.9943 572.7398 206.659 569.9455 206.1001 568.1572 206.659 566.9277 207.1061 564.6923 207.6649 563.5746 208.112 563.351 208.8944 563.2393 209.4532 563.0157 209.7886 562.2333 210.7945 560.2215 210.1239 559.2155 210.2356 554.6329 208.8944 550.7209 208.6708 549.2679 209.7886 537.4201 209.3415 534.5141 208.5591 532.2787 205.7648 524.79 204.7589 521.1015 204.8706 520.3191 205.4295 519.6485 207.3296 516.2954 208.2238 515.4012 208.2238 517.0778 208.5591 517.8602 209.0062 517.4131 209.2297 515.6248 209.1179 512.4952 207.7767 502.9946 206.8825 500.0886 205.653 497.9649 204.5353 495.6177 203.7529 493.047 203.3058 490.1409 202.9705 484.8877 203.0823 484.1053 203.4176 483.3229 204.4235 481.7581 204.6471 480.9757 204.6471 477.6226 204.8706 477.399 205.3177 477.399 205.5413 477.7343 205.0942 478.405 205.4295 478.9638 205.8766 479.7462 206.1001 480.0815 205.653 481.7581 205.5413 483.4347 206.1001 484.2171 207.6649 483.4347 207.5531 484.4406 206.659 486.8996 207.7767 485.7818 209.4532 482.5405 210.4592 481.7581 211.3534 480.9757 211.9122 479.0756 212.2475 475.3871 211.8004 461.0804 210.3474 450.4622 208.5591 447.5561 207.7767 443.9794 205.0942 438.3909 203.6411 433.5847 201.1822 428.4432 200.7351 427.7726 195.8172 422.184 194.2524 419.6133 194.2524 417.6014 194.0288 416.9308 182.5164 401.7299 176.8161 396.3649 176.2572 395.0237 170.1098 389.2116 168.6568 388.5409 168.6568 387.6468 168.8803 386.8644 169.1039 386.529 169.5509 384.4054 169.6627 383.9583 169.4392 382.9524 169.1039 382.17 163.0682 373.1165 161.9505 367.8633 159.6033 362.1629 151.8911 351.9917 147.1967 344.056 144.2906 340.4793 142.3905 338.1321 135.6843 326.0608 132.5547 321.7018 131.6605 318.7957 130.5428 317.678 128.5309 316.0014 126.9661 313.3189 126.1837 310.6364 125.4013 303.9301 123.3894 296.7768 116.9067 284.0349 115.1184 276.9933 114.6713 273.6402 113.1065 267.1574 110.5358 260.3394 108.7474 257.5451 105.7296 256.6509 102.4882 254.4155 99.9175 250.0564 97.5703 240.1088 91.7582 228.9317 91.0876 226.5845 87.8462 222.3372 82.3694 212.166 81.6988 210.2659 80.9164 209.1482 79.0163 205.1244 78.3457 204.342 74.9925 198.3064 73.9866 195.7356 73.6513 194.2826 73.0924 190.5942 72.31 188.9176 69.851 185.6762 68.2862 182.9937 64.7096 173.8285 63.1448 171.3695 60.9094 168.687 58.2268 166.5634 57.4444 165.4457 56.5503 159.7453 55.8796 158.0688 43.6966 141.7502 35.202 136.1616 31.6253 131.9143 31.0664 131.579 29.837 129.6789 29.0546 129.2318 28.2722 128.7847 24.5837 126.4375 23.3542 122.302 23.0189 120.849 22.1248 118.39 22.013 117.4958 22.013 116.7134 21.9012 115.931 22.1248 115.1486 20.3364 112.5779 17.4304 104.8657 16.9833 104.3068 10.8359 97.8241 9.6064 94.2474 9.1593 89.6648 7.818 85.8646 6.9239 83.0703 5.9179 75.4699 4.2414 69.6578 3.0119 61.6102 2.2295 57.5865 1.6706 55.0157 1 50.7684 1.2235 44.621 3.7943 28.8613 4.5767 27.7436 5.5826 27.8553 6.9239 28.526 7.7063 28.7495 8.824 28.6377 9.1593 28.3024 9.3828 27.7436 9.8299 27.1847 11.1712 26.1788 14.3008 24.7257 17.7657 22.0432 20.8953 20.5902 24.3602 19.5843 27.8251 19.1372 28.2722 18.9136 28.7193 18.8019 29.2781 18.8019 30.0605 19.3607 32.6312 20.1431 33.5254 19.9196 33.8607 19.5843 34.3078 19.3607 34.9784 19.5843 35.4255 20.0314 35.6491 20.5902 35.7608 21.1491 35.9844 21.8197 36.4315 22.155 37.2139 22.7139 37.9963 23.1609 38.7787 23.3845 39.5611 23.7198 39.8964 24.5022 40.1199 25.1728 40.3435 25.5081 45.7085 24.9493 50.6264 25.1728 51.7441 24.7257 52.7501 23.8316 53.5325 23.8316 55.3208 24.9493 56.662 25.3964 61.1329 25.7317 63.7036 26.4023 64.7096 26.2905 66.4979 25.2846 69.851 22.3785 71.7512 21.8197 73.6513 21.4844 74.9925 20.8138 77.675 18.4666 81.0282 16.9018 83.4871 16.1194 84.046 15.4487 84.6048 14.331 85.3872 13.6604 85.9461 13.4369 87.2873 12.9898 87.8462 12.5427 88.1815 11.8721 88.2933 10.9779 88.7404 10.1955 90.5287 9.7484 91.9817 8.966 94.3289 8.4072 98.2409 6.1717 106.2884 4.7187 107.965 4.1598 109.6416 4.0481 111.0946 5.054 111.9888 4.4952 112.5476 4.9422 113.1065 5.7246 113.8889 6.1717 115.5655 6.3953 116.4596 6.3953 117.242 6.1717 117.242 6.7306 119.1421 5.8364 120.2598 5.5011 120.8187 5.8364 121.2658 5.9482 123.1659 5.3893 124.5072 5.054 125.8484 5.5011 128.5309 7.4012 129.8722 7.7365 131.5487 7.9601 133.1135 8.6307 134.2312 9.7484 135.2372 12.878 136.3549 13.8839 137.0255 15.2252 136.2431 17.4606 142.7259 21.0373 149.2086 26.4023 156.4737 30.5378 163.5153 34.4498 164.4095 35.2322 167.8744 39.9266 168.9921 40.8208 170.7804 41.1561 171.6746 40.9326 172.9041 40.1502 173.5747 40.0384 174.3571 40.1502 175.8101 40.5972 177.3749 40.709 178.6044 41.1561 179.4986 41.1561 180.281 40.9326 181.5105 40.1502 181.9575 40.0384 185.3107 40.5972 186.9872 40.2619 187.6579 38.6971 187.7696 38.3618 188.6638 38.3618 193.8053 38.3618 213.0299 38.3618 232.2546 38.3618 251.4792 38.3618 270.8156 38.3618 289.1461 38.3618 290.0403 38.3618 309.2649 38.3618 328.4895 38.3618 347.7142 38.3618 367.0506 38.3618 386.2752 38.3618 405.4999 38.3618 418.2418 38.3618 424.7245 38.3618 444.0609 38.3618 463.2856 38.4736 472.3391 38.4736 482.5102 38.4736 501.7349 38.4736 505.7586 38.4736 506.3175 38.4736 506.4293 38.9207 506.7646 39.7031 507.2117 40.0384 507.7705 40.3737 509 43.3915 509.1118 44.1739 509.3353 44.3975 511.1237 44.8446 513.6944 49.8743 513.9179 50.7684 514.9239 51.3273 518.8359 54.5686 519.0594 55.2393 519.3947 56.5805 519.8418 57.2512 520.5124 58.0336 521.9655 58.7042 522.6361 59.1513 526.9952 63.7339 528.4482 65.7458 529.4541 66.6399 532.4719 67.3106 539.0664 70.6637 548.9023 72.5638 555.2733 72.2285 557.844 71.2226 559.4088 70.8872 560.303 70.8872 562.5384 71.3343 565.8915 71.1108 567.0092 71.8932 578.9688 75.4699 591.8224 75.2463 596.0697 74.3521 597.8581 74.1286 599.4229 74.5757 600.0935 75.9169 600.7641 76.4758 602.3289 77.2582 604.0055 77.8171 605.235 77.9288 605.5703 77.4817 606.4645 76.0287 606.9116 75.6934 618.7593 75.6934 621.5536 77.2582 624.2361 78.2641 625.0185 78.3759 629.3776 77.9288 631.3894 77.9288 632.3954 77.8171 633.4013 77.2582 633.9602 77.9288 635.0779 76.9229 636.8662 76.4758 638.8781 76.5876 640.6664 77.2582 643.2372 75.1345 644.0196 75.5816 645.1373 75.5816 647.5963 75.1345 648.4904 75.4699 651.3965 77.9288 653.4084 77.37 655.1967 78.2641 656.8733 79.7172 658.3263 81.3937 659.1087 81.9526 661.6794 83.2938 663.9149 84.8586 664.809 85.4175 666.7091 84.8586 669.727 84.7469 672.4095 84.9704 673.5272 85.641 674.086 86.3117 675.4273 86.8705 676.6568 87.0941 677.2156 86.7587 677.7745 85.9763 679.004 86.4234 681.2394 87.5411 682.916 88.9942 684.8161 88.8824 687.0515 87.9882 689.5105 87.5411 690.5164 85.4175 696.4403 83.8527 697.4462 83.5174 704.376 81.6173 705.6055 82.1761 706.835 81.8408 708.1762 81.282 709.5175 81.0584 710.6352 81.282 713.653 81.0584 714.8825 81.3937 718.3474 83.2938 722.5947 84.8586 724.8301 85.8646 726.0596 87.5411 726.5067 87.6529 727.848 87.3176 733.213 86.1999 752.1023 82.6232 770.8799 78.9348 789.7692 75.3581 808.5468 71.6696 823.8594 68.6518 839.1721 65.5222 854.5965 62.5044 869.9091 59.4866 876.1683 58.2571 879.1861 57.6982 881.8686 57.1394 883.2099 57.1394 885.4453 56.5805 888.6867 55.9099 891.9281 55.351 895.0576 54.6804 898.299 54.0098 901.5404 53.3392 904.7817 52.6685 907.9113 51.9979 911.1527 51.3273 914.3941 50.6567 917.6354 49.986 920.765 49.3154 924.0064 48.6448 927.2477 47.9741 930.3773 47.3035 933.6187 46.6329 936.8601 45.9623 939.0955 45.5152 940.4367 45.4034 941.8898 45.627 945.8018 45.7387 946.5842 46.2976 947.2548 45.9623 950.3844 45.0681 951.7256 44.8446 953.0669 45.1799 956.1965 46.2976 958.4319 46.7447 959.8849 47.4153 961.785 47.7506 962.4557 48.1977 962.9028 48.7565 963.5734 49.2036 964.6911 49.6507 965.3617 49.7625 966.1441 49.7625 966.9265 49.4272 968.0442 48.3095 968.8266 47.8624 969.2737 47.3035 969.8326 46.7447 970.5032 46.5211 973.8563 46.5211 980.3391 47.5271 980.6744 47.7506 981.0097 48.0859 981.5685 48.533 982.3509 48.6448 984.8099 48.533 989.9514 49.6507 991.9633 50.5449 992.8574 51.8861 994.4222 51.2155 995.3164 51.8861 995.4282 51.8861 996.2106 53.2274 997.44 54.1216 998.1107 54.1216 999.5637 53.6745 1000.3461 53.5627 1000.5696 53.7862 1000.1226 55.1275 1000.1226 55.6864 1000.5696 56.2452 1000.905 56.5805 1001.4638 56.6923 1002.358 56.6923 1002.5815 57.0276 1003.9228 58.2571 1004.1463 58.3689 1004.8169 60.7161 1004.9287 61.0514 1005.7111 61.2749 1006.1582 61.6102 1006.6053 62.1691 1006.7171 62.7279 1007.3877 61.8338 1007.9465 61.8338 1009.0642 62.9515 1009.2878 63.3986 1009.176 64.4045 1009.2878 64.8516 1009.6231 65.1869 1010.5173 65.634 1010.8526 65.9693 1011.8585 67.1988 1012.4174 67.5341 1013.6469 67.5341 1014.7646 67.8694 1015.7705 68.4283 1016.5529 69.3224 1017 70.3284 1012.0821 69.4342 1009.0642 69.3224 1006.6053 71.8932 1004.1463 72.8991 1001.7991 73.0109 1001.1285 71.3343 999.0048 72.6756 998.1107 72.7873 997.44 71.8932 996.3223 72.3403 995.6517 72.005 995.2046 71.3343 994.4222 70.8872 994.8693 69.7695 994.0869 69.8813 993.7516 70.2166 993.4163 70.7755 992.8574 71.3343 992.4103 71.5579 986.8218 73.458 985.3688 73.5697 984.1393 73.9051 982.3509 75.3581 980.7861 75.6934 980.3391 75.9169 979.892 77.0347 979.2213 77.2582 978.5507 77.37 977.8801 77.7053 977.3212 78.0406 976.9859 78.3759 974.974 80.9466 972.4033 82.6232 971.2856 83.6292 967.4854 88.2118 967.1501 88.3235 966.9265 88.7706 965.9206 90.0001 965.5853 90.559 964.9146 90.6707 961.4497 91.1178 960.4438 91.3414 957.873 88.8824 957.7613 87.6529 957.426 87.2058 956.9789 86.9823 956.42 86.4234 955.0788 83.9645 954.1846 83.0703 952.508 82.735 949.9373 82.6232 948.8196 83.0703 947.5901 84.2998 945.4664 88.1 944.7958 88.6589 944.1252 88.4353 942.7839 87.7647 942.0015 87.5411 940.4367 87.3176 938.8719 87.5411 936.3012 88.8824 932.6128 93.2415 930.1538 95.1416 927.3595 95.5887 926.8007 95.924 924.677 98.0476 924.0064 98.4947 921.8827 99.3889 920.9886 100.0595 920.6532 100.5066 920.3179 101.0655 919.9826 100.8419 919.6473 100.6184 919.312 100.5066 918.8649 100.6184 916.1824 102.4067 915.9589 105.201 914.8411 106.3187 912.6057 107.7717 911.7116 108.6659 910.2585 110.6778 909.4761 111.5719 908.2466 111.9073 901.2051 119.6195 900.0873 120.4019 898.5226 120.6254 896.7342 122.7491 896.2871 123.1961 895.9518 123.3079 893.2693 124.3139 891.9281 124.3139 890.9221 123.5315 890.3633 120.1783 889.1338 116.8252 888.4631 115.7075 889.5809 114.0309 888.9102 112.3543 886.4513 109.7836 887.0101 108.4424 886.6748 107.7717 885.8924 107.1011 885.4453 106.2069 885.11 105.3128 884.3276 104.9774 883.3217 104.7539 882.3157 104.3068 881.8686 103.748 880.8627 102.4067 879.745 101.4008 878.9626 102.1832 878.292 102.0714 877.6213 101.8479 877.1743 101.6243 877.0625 101.289 877.286 99.9477 877.1743 99.3889 876.7272 98.6065 874.4917 95.924 873.5976 94.0239 872.7034 92.7944 872.5916 92.3473 872.4799 91.7884 872.5916 90.0001 872.2563 89.6648 871.6975 89.6648 871.2504 89.4413 870.9151 88.8824 870.9151 87.8765 870.9151 87.3176 870.468 86.9823 869.462 86.4234 866.6678 86.3117 861.4145 86.7587 854.9318 87.3176 846.1019 88.1 839.5074 89.4413 833.2482 90.6707 826.8772 91.9002 820.5063 93.1297 814.2471 94.3592 807.8761 95.5887 801.5052 96.8182 795.246 98.0476 788.875 99.2771 782.6158 100.5066 776.2449 101.7361 769.8739 102.9656 763.6147 104.195 757.2438 105.4245 750.8728 106.7658 744.6136 107.9953 738.2427 109.2248 737.0132 109.4483 735.6719 109.6718 734.4425 109.8954 733.1012 110.2307 731.76 110.2307 730.3069 110.3425 726.7303 110.4542 723.2653 110.566 719.6887 110.7895 716.2238 110.9013 711.9765 111.1249 707.7292 111.2366 703.4818 111.4602 699.2345 111.5719 696.8873 111.6837 695.5461 111.7955 695.5461 114.0309 695.5461 117.2723 695.5461 120.4019 695.5461 123.6432 695.5461 126.8846 695.5461 130.126 695.5461 133.3673 695.5461 136.6087 695.5461 139.8501 695.5461 143.0914 695.5461 146.3328 695.5461 149.5741 695.5461 152.8155 695.5461 156.0569 695.5461 159.2982 695.5461 162.5396 695.5461 165.781 695.5461 175.6168 695.5461 179.3053 695.6579 185.5645 695.6579 195.5121 695.6579 205.4597 695.6579 215.4074 695.7696 225.355 695.7696 235.3026 695.7696 245.362 695.8814 255.3097 695.8814 265.2573 695.8814 273.3048 695.8814 275.3167 695.8814 285.2644 695.9932 295.3238 695.9932 305.3832 695.9932 315.4426 695.9932 325.3902 695.9932 330.0846 696.105 334.6672 696.105 339.3616 696.105 343.9442 696.105 348.6386 696.105 353.2212 696.105 357.9156 696.105 362.4982 696.2167 367.1926 696.2167 371.887 696.2167 376.4696 696.2167 381.164 696.2167 385.8584 696.2167 390.441 696.2167 395.1354 696.3285 399.8298 696.3285 403.0712 695.3226 406.089 691.0752 406.089 673.4154 406.089 655.8673 406.089 638.3193 406.089 620.7712 406.089 620.7712 413.0188 620.7712 425.2019 620.7712 437.3849 620.7712 449.6798 620.8829 461.8628 620.8829 475.8342 620.8829 489.9174 620.8829 503.8888 620.8829 512.3834 620.8829 517.9719 620.8829 532.0551 620.8829 546.1383 620.8829 557.8743 620.8829 560.2215 620.9947 574.3046 620.9947 588.4996 620.9947 602.6945 620.9947 616.7777 620.9947 631.0844 620.9947 632.0903 620.9947 636.6729 620.9947 641.3673 620.9947 645.9499 620.9947 650.6443 620.9947 655.227 620.9947 659.9213 620.9947 664.504 620.9947 669.1983 620.9947 673.8927 620.9947 678.4754 620.9947 683.1697 621.1065 687.8641 621.1065 692.4468 621.1065 697.1411 621.1065 701.8355 621.1065 702.8415 621.1065 706.5299 621.1065 711.1125 621.1065 715.8069 621.1065 720.5013 621.1065 725.1957 621.1065 729.8901 621.1065 734.4727 621.1065 739.1671 621.1065 743.8615 621.1065 748.5559 621.1065 753.2503 621.1065 757.9447 621.1065 762.6391 621.1065 767.3334 621.1065 772.0278 621.1065 776.7222 621.1065 781.4166 621.1065 786.111 621.1065 790.8054 621.1065 795.4998 621.1065 800.3059 621.1065 805.0003 621.1065 809.6947 621.1065 814.3891 621.1065 819.0835 621.1065 823.8897 621.1065 828.584 621.1065 833.2784 621.1065 838.0846 621.1065 842.779 621.1065 847.4734 621.1065 852.2795 621.1065 856.9739 621.1065 861.6683 621.1065 866.4745 621.1065 871.1689 621.1065 875.975 621.1065 880.6694 621.1065 885.4756 621.1065 890.17 621.1065 894.9761 621.1065 899.7823 621.1065 904.4767 621.1065 909.2828 621.1065 914.089 621.1065 918.7834 621.1065 923.5895 621.1065 928.3957 621.1065 933.0901 621.1065 936.555 620.9947 939.014 618.6475 939.6846 617.8651 939.6846 615.5179 939.3493 614.6238 939.4611 612.7237 940.5788 609.2587 943.7084 607.1351 944.2672 603.4466 944.6025 601.7701 945.1614 600.3171 946.3909 598.9758 947.0615 591.4871 947.6204 590.8165 947.8439 590.0341 948.291 589.587 948.9616 589.1399 949.6322 588.4693 950.4146 588.0222 951.0853 587.4634 952.7618 586.9045 952.9854 586.2339 953.3207 585.7868 953.9913 583.5514 960.9211 582.769 962.1506 581.5395 963.1565 579.9747 963.9389 573.9391 965.5037 572.8213 965.9508 572.0389 965.8391 570.2506 964.386 569.1329 964.4978 568.127 965.2802 567.3446 966.3979 566.0033 968.8569 565.7798 970.6452 566.2268 972.5453 569.0211 977.3515 569.0211 978.4692 568.127 979.0281 565.668 979.1398 565.2209 979.4751 564.3267 980.8164 563.7679 981.487 559.5206 983.7224 556.391 984.8402 553.4849 984.9519 552.2554 983.2754 551.9201 982.94 551.026 982.6047 548.4552 982.2694 547.8964 982.1576 547.114 981.2635 545.2139 978.2457 543.9844 977.0162 528.2246 974.7807 513.9179 976.9044 511.1237 978.3574 509.5589 978.9163 509.2235 978.6927 508.3294 977.7986 507.9941 977.6868 507.547 977.6868 506.8763 978.1339 506.541 978.2457 504.9762 978.581 504.1938 978.8045 503.635 979.1398 502.182 979.8105 500.2818 979.4751 497.1523 978.2457 495.4757 978.1339 488.8812 979.1398 486.1987 980.034 484.8574 980.034 478.4865 977.7986 475.6922 976.3455 471.1096 972.5453 468.5388 970.8688 465.8563 969.751 453.338 966.9568 450.879 967.1803 450.0966 967.5156 448.5318 968.5216 447.8612 968.8569 446.8552 968.9686 444.508 968.298 442.8315 967.5156 442.4961 965.8391 442.6079 963.7154 442.1608 961.8153 441.0431 961.0329 439.8136 961.3682 438.3606 962.0388 436.7958 962.3741 433.6662 962.8212 430.4249 963.6036 427.6306 963.1565 427.407 960.5858 428.413 957.0091 428.8601 953.656 428.0777 951.7559 425.2834 950.7499 424.7245 949.2969 424.2774 947.3968 422.2656 944.7143 421.5949 943.1495 421.9303 941.92 422.9362 940.8023 424.1657 939.9081 425.5069 939.5728 426.6246 938.7904 427.2953 936.7785 427.5188 934.4314 427.2953 932.5312 426.96 931.6371 425.7305 929.9605 425.1716 929.1781 424.9481 928.0604 424.8363 927.1662 424.6128 926.3838 423.9421 925.2661 423.6068 924.4837 423.495 923.366 423.2715 922.4718 422.3773 922.0248 420.4772 922.1365 415.6711 923.2542 413.3239 922.8072 411.6473 920.7953 411.312 916.8833 411.5355 914.9832 411.5355 912.9713 410.8649 911.5183 408.9648 910.9594 407.5118 910.2888 406.5058 908.724 405.7234 906.9356 404.6057 905.7062 403.8233 905.3708 403.0409 905.3708 401.5879 905.7062 400.6937 906.1532 398.2348 908.0534 396.2229 907.4945 395.3287 907.718 394.211 908.9475 393.3168 909.2828 392.6462 909.1711 391.8638 908.1651 391.305 908.0534 390.8579 908.3887 389.5166 909.8417 389.2931 910.0652 388.7342 916.8833 388.1754 917.6657 387.84 917.6657 387.393 917.3304 386.1635 917.4421 385.8282 917.1068 385.6046 916.995 385.1575 917.3304 384.934 917.8892 385.1575 918.3363 386.4988 920.0129 386.4988 920.6835 385.3811 920.907 383.8163 920.907 383.3692 921.2424 383.0339 922.0248 383.2574 922.5836 383.8163 923.4778 384.2634 924.4837 384.1516 925.6014 383.481 926.1603 382.6986 925.825 381.9162 925.2661 381.2455 925.0426 379.9043 925.6014 379.569 927.1662 379.9043 928.9546 380.4631 930.184 382.0279 932.643 382.5868 934.2078 381.8044 934.9902 380.6867 935.6608 380.2396 937.3374 380.2396 939.3493 380.0161 940.8023 379.1219 942.2553 377.7806 944.0437 376.3276 945.2732 375.0981 945.1614 374.7628 944.379 374.5393 943.2613 374.204 942.3671 373.5333 941.92 372.7509 942.2553 367.0506 947.9557 364.2563 948.8498 362.1327 949.8558 360.2326 951.197 358.7795 951.8677Z" />
</svg>