<?xml version="1.0" encoding="utf-8"?>
<svg xmlns="http://www.w3.org/2000/svg" viewBox="0 0 1021 438" style="stroke-width:0.25px;stroke-linejoin:round;stroke:#444;fill:#ddd" fill-rule="evenodd">
  <path class="NC" d="M49.5087 63.4145L49.6205 64.8675 49.5087 66.097 49.1734 67.3265 48.6145 68.4442 47.7204 66.4323 45.7085 67.103 44.479 65.9853 43.2495 62.6321 43.2495 61.5144 44.1437 60.3967 44.8143 57.0436 45.932 56.82 47.1615 57.9377 48.1674 61.738 49.5087 63.4145ZM514.4768 419.4057L515.818 421.8647 517.4946 423.5413 518.8359 425.4414 518.9476 429.2416 517.2711 428.0121 515.7063 424.5472 514.4768 424.3237 513.8062 425.3296 513.8062 427.2297 514.4768 430.6946 512.5767 433.8242 508.4411 433.2653 500.9525 430.2475 501.6231 426.6708 501.7349 418.288 502.7408 415.4937 505.088 414.9349 508.6647 415.7173 512.1296 417.2821 514.4768 419.4057ZM419.8066 395.1514L421.5949 394.5925 422.9362 394.7043 424.1657 395.4867 425.2834 397.0515 425.2834 398.7281 424.9481 399.734 424.2774 399.8458 423.3833 398.9516 422.3773 399.734 421.7067 400.1811 419.8066 400.9635 419.8066 401.8576 422.3773 402.193 422.1538 403.1989 420.7008 404.0931 419.8066 404.2048 418.9124 403.8695 417.0123 403.4224 415.7828 402.5283 416.677 400.5164 417.6829 398.8398 417.7947 397.3868 418.2418 396.2691 419.8066 395.1514ZM595.5109 258.0081L596.4051 261.026 596.2933 266.0557 595.3991 271.5325 593.7226 275.5562 594.3932 282.0389 594.0579 284.945 592.3813 286.1745 590.8165 286.5098 585.8986 287.9628 582.0983 290.0865 576.5098 289.6394 571.9272 287.2922 572.1507 283.3802 569.3564 282.0389 565.8915 281.2565 562.4266 281.1448 559.5206 282.3743 559.1853 281.9272 558.8499 281.4801 558.7382 280.9212 558.6264 280.3624 559.9677 279.3564 561.6442 278.0152 562.8737 276.0033 563.0972 273.5443 562.4266 272.4266 559.5206 269.1853 558.6264 267.844 557.844 265.2733 557.3969 261.473 556.8381 259.1259 555.8321 256.7787 552.2554 251.3019 554.1556 250.2959 555.8321 249.9606 557.5087 249.9606 559.5206 250.2959 562.8737 251.9725 564.8856 252.5314 567.121 250.5195 575.8392 244.4838 576.1745 246.3839 573.7155 250.0724 573.0449 252.7549 573.7155 255.1021 575.2803 257.6728 577.0686 259.9083 578.4099 261.026 582.5454 262.0319 587.2398 261.473 591.7107 259.9083 595.5109 258.0081ZM370.292 157.7494L371.4097 157.6376 374.7628 157.7494 374.0922 158.9789 372.7509 159.6495 369.3978 160.6554 368.7272 159.873 368.0565 159.426 367.1624 158.9789 365.8211 158.7553 366.8271 158.0847 367.833 157.7494 369.0625 157.6376 370.292 157.7494ZM502.7408 201.1166L504.4174 202.3461 506.3175 204.358 506.9881 206.1463 502.7408 207.7111 501.8466 209.723 501.8466 215.088 501.6231 217.9941 500.7289 219.6706 499.2759 221.0119 497.264 222.3531 495.0286 221.3472 492.1226 221.3472 489.44 220.3413 488.3223 216.0939 487.3164 215.4233 485.1927 215.088 482.9573 214.5292 482.0631 213.1879 481.8396 210.8407 481.0572 210.0583 469.0977 208.7171 465.1857 207.4876 461.7208 204.4697 458.5912 201.1166 458.2559 200.1107 458.0323 198.7694 457.5853 197.6517 454.791 196.6458 454.0086 195.1927 454.1204 193.4044 454.9028 191.5043 449.6495 186.6981 448.6436 184.6862 456.6911 185.3569 459.3736 184.6862 461.9443 183.345 463.5091 181.6684 465.7446 177.8682 469.7683 173.1738 470.9978 170.3795 470.3272 167.3617 468.6506 166.3558 461.7208 163.4497 451.7732 164.5674 451.5496 163.2262 452.1085 160.2084 453.6733 157.1905 456.3558 155.8493 460.8266 155.0669 461.7208 155.2904 462.615 156.1846 463.6209 156.6317 464.7386 156.7435 466.1916 156.7435 467.5329 156.4081 468.5388 155.2904 469.2095 153.9492 469.433 152.3844 473.9039 151.0431 483.7397 156.5199 485.5281 156.7435 486.4222 159.3142 485.4163 161.7732 483.7397 164.1204 482.9573 166.8029 483.0691 168.4794 483.8515 172.1679 485.5281 175.9681 485.081 177.7564 483.2926 180.5507 482.9573 182.2273 483.4044 183.345 484.4103 183.9039 485.6398 184.3509 486.9811 185.1333 488.3223 186.4746 489.44 187.257 492.7932 188.4865 494.358 188.5982 495.6992 188.5982 496.5934 188.9336 497.264 190.4983 497.8229 191.169 498.6053 192.622 499.1641 193.2926 497.7111 195.7516 497.264 197.0928 497.264 198.3223 498.3817 199.8871 499.8348 200.446 501.2878 200.5578 502.7408 201.1166ZM398.2348 116.3941L399.6878 117.4 402.9292 119.1883 403.5998 120.1943 403.0409 121.7591 401.5879 122.3179 397.6759 122.0944 396.1111 122.5415 394.7699 123.6592 394.0992 125.1122 393.8757 126.4535 393.4286 126.9006 391.4167 132.1538 390.6343 133.8304 390.5226 135.954 390.9696 139.866 391.752 140.8719 393.4286 140.8719 397.2288 140.4249 392.1991 150.0372 390.0755 152.8315 388.0636 154.2845 385.0458 155.6257 381.9162 156.5199 379.3454 156.7435 378.3395 155.8493 377.5571 154.8433 379.569 154.0609 381.3573 152.6079 384.7105 149.143 386.8341 146.1252 387.84 144.3369 388.2871 141.8779 388.0636 133.2715 388.7342 131.2596 390.1872 129.2477 391.8638 126.5652 393.2051 123.5474 393.8757 121.0884 393.2051 118.4059 390.7461 114.941 389.6284 113.7116 389.0695 113.8233 388.2871 114.3822 388.5107 113.1527 389.9637 111.6997 391.9756 110.8055 393.8757 110.4702 395.4405 111.3644 396.4464 112.9292 397.2288 114.7175 398.2348 116.3941ZM450.4319 372.1265L450.0966 373.4678 449.3142 373.6913 448.3083 373.6913 447.6376 374.6972 447.9729 375.5914 448.8671 376.5974 449.5377 377.7151 449.0906 379.0563 448.6436 379.9505 447.6376 383.4154 446.7435 385.3155 446.0728 386.3215 445.0669 387.3274 444.8433 386.6568 444.3963 386.0979 443.6139 386.4332 442.9432 387.1039 441.3784 387.7745 440.8196 388.3333 440.9314 389.004 441.4902 390.2334 437.3547 393.5866 434.7839 394.7043 431.5426 394.1454 434.3369 393.1395 435.3428 392.4689 436.1252 391.1276 434.1133 391.2394 433.2191 391.4629 432.1014 390.3452 431.4308 388.4451 430.3131 386.4332 429.7542 385.8744 429.4189 384.1978 428.5248 385.2037 427.7424 387.2156 427.5188 388.2216 426.4011 387.6627 425.7305 386.3215 425.1716 384.7567 424.2774 383.4154 424.9481 383.1919 426.1776 382.5212 424.9481 380.7329 423.7186 381.18 422.8244 383.0801 422.3773 387.2156 422.1538 387.8862 422.1538 388.6686 422.6009 390.2334 422.9362 390.457 425.2834 392.2453 423.8304 392.5806 422.042 392.2453 420.4772 391.7982 419.8066 391.6865 419.4713 392.3571 418.6889 393.2513 417.6829 393.9219 416.677 394.1454 413.4356 393.363 411.6473 391.5747 411.7591 389.6746 414.3298 388.2216 414.3298 387.3274 411.9826 387.6627 409.0766 387.3274 407.2882 385.9861 408.0706 383.4154 407.1765 382.5212 405.2763 383.1919 402.1468 382.0741 399.4642 380.0623 398.2348 378.0504 397.6759 377.8268 394.6581 379.1681 393.3168 379.5034 392.1991 379.2799 388.9578 377.8268 387.84 377.0444 387.393 375.7032 388.1754 374.9208 388.846 374.0266 387.393 372.6854 386.1635 372.2383 382.3633 371.6794 381.022 371.7912 379.569 373.8031 378.6748 377.0444 377.3336 379.2799 374.7628 378.4975 374.651 379.0563 374.651 379.3916 374.4275 379.5034 373.8686 379.5034 374.9864 382.1859 373.6451 382.8565 371.8568 382.1859 371.6332 380.9564 371.9685 379.727 372.1921 376.1503 373.0862 374.6972 373.0862 373.6913 371.1861 373.8031 369.3978 373.356 367.9448 372.3501 366.7153 370.6735 370.9626 370.897 372.8627 370.3382 373.8686 368.8851 371.5215 368.6616 370.7391 367.4321 371.1861 362.9613 369.9567 363.073 367.0506 362.5142 365.8211 362.9613 365.374 363.7437 364.8152 366.3144 364.4799 366.8733 362.8033 367.2086 362.1327 367.8792 361.7974 368.8851 360.9032 370.2264 359.6737 370.7853 359.1149 369.8911 359.2266 368.3263 360.4561 366.8733 359.1149 366.0909 355.8735 362.9613 355.8735 362.0671 356.7677 361.62 357.103 361.0612 357.4383 360.2788 357.5501 359.0493 356.7677 359.0493 355.4264 360.3905 352.0733 359.7199 352.2968 360.9494 349.7261 361.9553 347.6024 361.1729 345.4788 360.0552 343.2433 360.0552 343.1316 357.2609 341.9021 355.1373 340.1138 353.796 338.3254 353.2372 336.6488 352.343 335.1958 350.7782 333.5193 350.4429 331.5074 353.2372 330.1661 352.343 328.7131 351.3371 329.3837 350.5547 329.719 349.7723 329.719 348.7663 329.719 347.3133 330.6132 347.3133 331.7309 348.6546 333.0722 349.2134 334.1899 348.6546 334.3017 346.4191 333.4075 345.0779 330.8367 343.9602 329.719 342.5072 333.2957 342.5072 334.8605 342.8425 336.09 343.4013 335.8664 341.9483 335.3076 341.0541 334.3017 340.607 332.8486 340.607 332.178 339.7129 332.4015 337.8128 332.9604 336.1362 333.2957 335.6891 332.2898 332.5595 330.6132 331.2183 326.0306 329.7652 324.4658 330.7712 323.6834 330.4359 323.7952 329.2064 325.2482 327.8651 323.9069 327.1945 322.901 326.1886 322.4539 324.7355 322.4539 323.059 320.442 324.4002 319.6596 325.7415 319.7714 329.3182 319.2125 330.2123 317.7595 330.2123 316.3065 329.877 315.3006 329.7652 315.8594 330.5476 315.7476 332.2242 314.8535 333.3419 313.0651 332.336 311.165 329.6535 309.9355 328.424 305.9118 326.8592 303.1175 322.1648 301.3292 321.1589 300.435 320.8235 299.429 320.2647 297.7525 318.8117 296.8583 318.3646 296.1877 318.5881 295.5171 319.0352 294.6229 319.2587 290.8227 319.147 289.5932 318.4763 289.2579 316.2409 292.0521 317.4704 291.158 316.1292 287.4695 312.4407 287.4695 311.4348 288.0284 310.0935 288.1402 308.9758 287.0224 308.5287 285.5694 308.864 285.1223 309.7582 285.1223 310.9877 285.5694 312.4407 283.4458 311.7701 282.9987 310.0935 283.1105 307.9699 282.7751 305.7344 281.7692 304.2814 280.3162 303.0519 279.3102 301.4871 279.3102 298.8046 278.3043 298.8046 277.2983 301.04 275.8453 302.8284 274.1688 304.0579 272.0451 304.6167 272.1569 301.8224 272.0451 300.1459 271.0392 299.587 268.5802 299.8106 268.4684 300.0341 268.4684 300.7047 268.3567 301.3754 267.5743 301.8224 266.7919 301.7107 249.2438 292.8807 245.22 289.1923 246.7848 286.1745 246.7848 285.1685 244.9965 285.8392 243.8788 285.5039 243.9905 284.7215 245.8906 284.2744 243.8788 282.5978 241.6433 283.1567 239.5197 284.4979 237.2843 285.1685 235.0488 284.7215 221.1892 278.574 219.4009 277.0092 218.2832 275.1091 217.0537 270.6383 216.7184 269.8559 214.2594 269.5206 212.5828 268.7382 209.0062 265.8321 207.8884 265.6086 206.659 265.4968 205.7648 265.2733 205.4295 264.3791 203.6411 262.3672 203.1941 262.0319 198.2761 253.202 198.0526 251.9725 198.4997 251.1901 198.4997 250.6312 197.6055 249.7371 197.2702 249.5135 196.376 249.5135 195.2583 249.9606 194.3641 250.4077 194.4759 250.2959 194.0288 252.3078 192.9111 252.9784 191.6816 252.3078 191.1228 250.2959 190.1168 251.1901 189.1109 251.9725 187.8814 252.0843 186.4284 251.3019 188.8873 248.6194 188.6638 246.2722 186.5402 244.9309 183.6341 245.4898 184.7518 243.3661 184.193 242.0249 181.0634 239.7894 179.8339 241.6895 180.281 244.5956 179.275 246.4957 177.822 247.3899 176.5925 247.0546 175.4748 245.9369 174.8042 244.4838 175.2513 243.3661 175.363 242.1366 175.8101 240.9072 176.5925 239.7894 175.5866 238.56 174.6924 238.2246 173.6865 238.1129 172.457 237.3305 171.7864 236.4363 170.8922 234.8715 161.1681 223.0238 160.4975 221.0119 160.2739 217.9941 160.3857 215.8704 160.2739 213.2997 159.1562 211.8466 156.6972 212.7408 156.809 210.8407 157.0326 210.3936 157.5914 209.8348 157.5914 208.7171 156.809 208.7171 156.1384 208.4935 154.9089 207.9347 155.6913 206.8169 155.4678 206.2581 154.5736 206.2581 153.1206 206.9287 152.7853 208.6053 151.2205 208.8288 150.1028 207.7111 149.5439 205.4757 148.7615 205.3639 147.0849 205.6992 146.079 206.4816 146.8614 207.9347 145.9672 208.9406 145.073 209.8348 142.6141 203.2403 140.9375 200.446 138.8139 199.1047 141.2728 197.3164 140.1551 196.0869 137.3608 194.9692 135.2372 193.2926 137.2491 193.0691 138.3668 192.1749 138.4785 190.9454 137.8079 189.4924 136.1314 188.5982 134.4548 188.3747 133.3371 187.8158 133.3371 185.5804 132.4429 185.5804 130.431 186.9217 128.4191 186.0275 125.2895 182.7861 123.8365 182.4508 121.154 182.3391 119.8128 181.7802 119.2539 180.9978 117.5773 177.8682 114.6713 177.3094 112.3241 175.8563 106.512 169.9325 102.6 167.2499 100.8117 165.3498 99.5822 163.1144 100.3646 163.0026 102.3765 163.338 104.3883 162.5556 105.3943 160.3201 104.6119 158.5318 102.7118 157.3023 100.3646 156.7435 98.4645 155.2904 95.5584 148.6959 93.0994 147.2429 89.1875 137.5188 88.4051 138.0777 87.8462 138.1894 87.1756 138.3012 86.505 138.413 85.1637 135.954 76.7809 130.4772 74.769 127.4594 73.316 121.6473 72.9806 119.7472 72.31 117.4 70.7452 116.3941 69.0686 115.6117 67.7274 114.3822 67.0568 111.4761 68.6216 111.1408 72.0865 112.3703 73.316 110.9173 73.8748 108.5701 73.8748 104.3228 73.316 103.3168 71.9747 101.4167 70.4099 99.7402 68.8451 98.9578 62.6977 98.6224 61.1329 97.9518 62.0271 96.1635 62.1388 94.2634 61.3564 93.3692 59.4563 94.1516 60.0152 95.4928 59.2328 97.1694 58.0033 98.3989 56.7738 98.9578 54.7619 98.3989 54.2031 97.0576 53.8678 95.8282 52.7501 95.1575 50.7382 93.8163 51.1853 91.022 53.6442 89.1219 57.668 90.3514 58.8975 88.6748 58.3386 86.9982 55.8796 83.7569 57.4444 83.0862 58.3386 81.6332 58.5622 79.8449 57.668 77.9448 55.7679 76.38 54.0913 76.7153 52.5265 77.6095 50.4029 77.9448 50.4029 76.9388 51.0735 76.38 51.5206 75.7094 52.1912 74.0328 50.2911 73.4739 49.6205 72.1327 49.7322 70.3443 50.4029 68.4442 51.4088 68.556 53.1971 68.4442 55.7679 69.8972 58.2268 72.1327 60.3505 74.4799 61.6917 77.7212 62.9212 78.5036 65.8273 79.8449 75.5514 91.4691 77.4515 93.2574 83.5989 96.7223 86.2814 97.1694 89.1875 96.1635 89.9699 96.1635 91.6464 100.0755 93.0994 101.5285 95.4466 101.8638 94.2172 100.0755 92.3171 95.2693 91.5347 90.7985 91.7582 89.6807 92.9877 89.6807 116.6832 98.846 120.8187 102.5344 127.8603 111.5879 129.7604 113.3762 132.3311 115.2763 135.1254 116.7294 137.3608 117.2882 141.4964 121.0884 142.8376 121.6473 146.8614 122.9886 148.7615 124.7769 152.4499 129.8066 154.4618 130.8125 155.5795 131.8185 160.2739 138.413 167.092 144.6722 168.4332 144.7839 172.457 147.2429 174.4689 149.2548 173.7982 151.0431 176.1454 152.6079 181.3987 152.8315 183.6341 154.8433 186.2048 155.7375 191.011 159.7613 204.9824 162.5556 205.3177 162.7791 206.4354 164.1204 207.1061 164.5674 207.6649 164.3439 208.2238 163.8968 209.1179 163.4497 209.9003 163.4497 211.5769 164.0086 212.1358 164.4557 212.5828 165.2381 213.5888 166.244 216.7184 169.0383 217.7243 170.8266 217.1655 173.062 218.5067 178.7624 219.848 180.7743 221.8598 182.2273 223.8717 183.4568 225.4365 184.9098 226.1072 187.0334 227.2249 187.4805 234.1547 188.4865 236.6136 189.2689 237.2843 190.0513 236.7254 194.7457 235.8312 197.8752 235.4959 198.6576 234.9371 199.7754 235.1606 200.6695 235.7195 201.5637 235.943 202.5696 236.3901 204.9168 237.5078 206.4816 241.8669 209.723 245.5553 211.7349 247.2319 213.1879 249.0202 215.088 250.0262 215.4233 253.3793 215.6469 254.3853 216.0939 254.6088 217.0999 254.0499 218.5529 254.8323 218.2176 255.1677 218.2176 255.3912 217.9941 255.9501 217.547 259.9738 220.9001 261.6504 222.8002 262.2092 224.2532 262.8799 224.7003 263.2152 225.1474 263.8858 226.2651 261.6504 226.2651 259.6385 225.7063 257.7384 224.7003 255.9501 223.3591 256.5089 224.7003 257.7384 226.3769 259.3032 227.6064 260.868 228.1652 262.2092 229.0594 263.2152 231.1831 263.9976 233.4185 264.8917 234.9833 267.9096 236.3245 275.8453 238.3364 278.3043 240.7954 282.1045 239.7894 285.6812 241.6895 288.2519 245.1545 289.2579 248.3958 291.6051 247.837 292.9463 253.8726 295.5171 256.2198 294.1758 253.4255 294.064 252.3078 294.6229 251.3019 295.8524 250.6312 297.0818 250.6312 298.1996 251.5254 299.0937 253.202 299.8761 251.9725 299.9879 250.5195 299.5408 248.8429 298.1996 247.5017 300.5468 248.0605 302.4469 250.5195 306.9177 259.0141 307.8119 261.473 307.253 262.7025 304.4587 262.0319 305.4647 263.4849 310.8297 266.8381 310.0473 268.1793 311.0532 268.2911 312.7298 267.844 313.5122 267.2851 313.1769 265.4968 312.3945 264.1556 311.5003 263.0378 310.8297 262.0319 309.712 258.6788 309.3767 255.9963 310.3826 254.9903 313.0651 256.6669 317.0889 261.026 318.4301 261.473 321.6715 261.8084 322.901 262.479 323.2363 263.4849 322.3421 263.932 321.1127 264.2673 320.7773 264.8262 321.3362 265.385 322.2304 265.7204 323.3481 265.8321 323.6834 267.3969 323.9069 269.9677 324.2422 271.6442 327.3718 270.1912 329.719 270.1912 331.9545 271.4207 338.7725 277.5681 339.5549 278.0152 341.2315 278.4623 341.9021 278.9094 343.2433 281.3683 347.826 284.4979 352.7439 286.8451 363.1386 290.1982 363.1386 291.0924 359.4502 291.0924 359.4502 291.9866 360.4561 292.6572 360.6796 293.4396 360.9032 294.3338 361.3503 295.0044 362.2444 295.4515 364.0328 295.5633 368.5036 296.7927 370.4037 297.6869 371.8568 300.4812 376.9982 304.2814 377.5571 305.2873 378.0042 307.7463 378.7866 308.9758 379.6807 309.5347 382.0279 310.5406 381.022 311.4348 384.0398 314.1173 389.8519 320.7118 392.3109 322.053 394.7699 323.9531 398.2348 327.6416 401.3644 329.877 402.7056 327.8651 407.2882 331.1065 408.9648 331.7771 408.9648 332.7831 407.9589 333.4537 406.9529 334.0125 405.7234 334.4596 404.4939 334.6832 404.4939 335.6891 405.6117 336.248 409.4119 335.6891 411.2002 336.1362 412.5415 336.8068 413.6592 337.1421 414.3298 336.5833 415.3358 339.154 416.7888 340.4953 418.9124 341.1659 421.7067 341.5012 429.3072 343.4013 431.2073 344.519 437.9135 349.7723 439.143 351.5606 440.596 354.2431 440.8196 355.3608 440.596 359.0493 440.0372 359.8317 439.143 360.8376 439.0312 361.7318 441.0431 362.0671 442.1608 362.626 443.2785 364.079 445.0669 366.8733 449.7613 370.6735 450.4319 372.1265ZM81.0282 76.0447L83.04 78.9507 80.5811 78.2801 76.7809 76.2682 73.763 74.0328 73.0924 71.462 72.9806 65.4264 73.8748 65.4264 79.7987 73.2504 81.0282 76.0447ZM9.7182 20.3826L11.1712 22.8416 11.5065 23.9593 8.0416 27.0889 4.1296 18.1472 3.5707 15.0176 3.9061 9.3173 3.1237 7.3054 1 5.9641 1.7824 4.1758 3.9061 5.2935 5.3591 7.3054 8.1534 13.8999 9.0475 18.3707 9.7182 20.3826ZM1016.6647 387.4392L1017 387.6627 1016.7765 388.1098 1016.4411 387.8862 1016.6647 387.4392Z" />
</svg>