<?xml version="1.0" encoding="utf-8"?>
<svg xmlns="http://www.w3.org/2000/svg" viewBox="0 0 1021 807" style="stroke-width:0.25px;stroke-linejoin:round;stroke:#444;fill:#ddd" fill-rule="evenodd">
  <path class="NE" d="M222.1952 802.7466L221.7481 802.2996 221.0774 801.2936 220.5186 800.9583 220.295 800.5112 220.1833 799.9524 219.9597 799.3935 219.6244 798.3876 219.4009 797.8287 219.1773 797.6052 218.7303 797.3816 218.2832 797.0463 216.1595 793.9167 215.7124 793.3579 214.93 792.9108 212.5828 792.0166 209.6768 790.2283 209.0062 790.0047 208.3355 789.6694 207.5531 789.4459 206.659 790.0047 205.7648 790.4518 204.8706 790.2283 204.0882 789.6694 203.5294 789.1106 202.6352 788.1046 201.1822 785.6457 200.7351 784.4162 200.3998 782.9631 200.288 781.5101 200.0645 781.1748 199.1703 780.5042 198.9468 780.1689 187.8814 769.9977 185.3107 766.1975 184.64 764.968 184.4165 764.6327 183.8576 764.4091 181.734 764.1856 181.0634 763.8503 180.281 763.515 179.8339 762.9561 179.3868 761.5031 178.8279 760.7207 178.2691 759.9383 176.9278 759.2677 173.7982 756.4734 173.1276 757.4793 171.5628 757.5911 170.8922 757.7029 169.5509 757.5911 168.9921 757.8146 168.2097 758.2617 167.2037 759.4912 166.6449 759.9383 165.9743 760.1618 165.3036 759.7147 164.633 759.9383 164.2977 760.2736 164.0741 760.8325 163.9624 761.2795 163.7388 761.8384 162.8447 763.2914 162.2858 763.6267 159.9386 762.9561 159.4915 763.0679 158.8209 763.6267 158.3738 763.8503 158.0385 763.8503 157.4796 763.515 157.2561 763.4032 155.0207 764.0738 154.6854 764.1856 154.1265 764.8562 153.6794 764.968 153.2323 765.0798 153.0088 764.7444 152.897 764.4091 152.7853 764.2974 152.0029 764.1856 151.444 764.1856 150.9969 764.2974 150.6616 765.0798 150.3263 765.8622 149.991 765.7504 149.6557 765.3033 149.0968 765.1915 148.7615 765.4151 148.3144 766.1975 148.0909 766.421 147.3085 766.421 145.8554 766.421 144.9613 766.5328 143.3965 767.2034 142.8376 768.3211 142.8376 769.8859 143.5083 773.4626 145.6319 779.7218 145.9672 780.2806 146.5261 780.8395 147.0849 781.3983 147.8673 781.7337 148.4262 781.8454 148.8733 782.1807 148.985 782.9631 148.985 784.0809 148.4262 784.1926 147.7556 783.9691 147.1967 784.0809 146.7496 784.5279 146.1908 785.4221 145.7437 785.981 145.1848 786.0927 144.626 785.981 144.0671 786.2045 143.7318 786.9869 143.8436 787.7693 144.5142 788.887 144.626 789.5576 141.2728 786.6516 136.2431 779.4982 131.6605 773.2391 126.9661 766.421 124.1718 762.6208 122.9424 760.2736 123.0541 758.3735 124.0601 757.5911 127.7485 756.8087 128.0838 756.5851 128.5309 755.9145 128.8662 755.691 129.0898 755.691 129.7604 756.0263 130.0957 756.1381 133.8959 755.8028 134.9019 755.5792 135.349 754.9086 135.2372 753.4556 135.2372 753.1202 135.4607 752.4496 135.4607 752.1143 135.1254 751.6672 134.343 750.773 134.0077 750.2142 133.4488 749.2083 133.1135 748.3141 132.6664 744.4021 132.4429 743.5079 131.9958 742.7255 131.437 741.9431 130.3193 741.1607 129.5369 740.7136 128.8662 739.9312 128.6427 739.5959 128.3074 738.3664 126.6308 736.3546 124.0601 735.6839 117.8009 735.1251 117.242 735.4604 116.1243 736.6899 115.3419 737.137 114.8948 737.0252 114.4477 736.8017 113.8889 736.9134 113.6653 737.2487 113.2183 738.1429 112.1006 739.7077 111.4299 741.049 110.6475 742.1667 109.5298 742.8373 108.4121 743.0608 100.2528 742.2784 93.7701 741.7196 91.5347 741.1607 89.7463 740.1548 85.3872 736.4663 81.8106 733.4485 76.5573 728.9777 74.9925 727.6364 70.1864 723.5009 66.3861 720.2595 62.6977 717.2417 60.7976 716.2358 56.1032 715.7887 54.3149 714.7827 53.756 713.7768 53.5325 712.5473 53.5325 711.3178 53.5325 707.0705 53.5325 700.9231 53.4207 695.3345 54.3149 692.652 55.6561 692.8756 60.7976 694.8875 64.2625 695.7816 65.7155 696.4523 66.1626 696.2287 66.7215 693.9933 67.0568 693.3227 67.3921 692.8756 68.6216 693.2109 69.6275 694.2168 70.857 694.7757 72.6453 694.1051 71.4158 692.7638 70.4099 691.9814 69.2922 691.7579 66.6097 691.4226 65.492 691.0872 58.4504 687.7341 56.3267 686.1693 55.0972 684.1574 54.7619 681.2514 52.1912 678.4571 48.7263 676.3334 45.8202 675.4393 43.3613 675.6628 42.2436 675.6628 40.9023 674.9922 40.2317 674.3216 40.1199 673.8745 40.3435 673.5392 40.3435 673.3156 40.3435 672.8685 40.3435 672.4215 40.1199 671.8626 39.5611 671.7508 30.9547 672.0861 29.2781 671.4155 28.3839 669.8507 28.7193 668.8448 29.2781 667.3917 29.7252 666.1623 29.2781 665.6034 28.0486 665.1563 27.2662 664.3739 26.5956 663.4798 24.4719 662.0267 23.466 661.1326 23.2425 660.6855 22.6836 660.0149 22.2365 658.7854 21.6777 658.2265 20.3364 657.3323 19.8893 656.8853 19.8893 656.2146 20.4482 654.9851 20.4482 654.4263 19.7776 653.6439 18.6598 653.085 17.5421 652.3026 17.095 651.1849 16.9833 649.9554 16.3127 649.3966 15.4185 648.9495 14.8596 648.2789 14.8596 647.72 15.4185 646.6023 15.4185 646.267 15.1949 645.7081 14.8596 645.2611 14.4125 645.0375 13.9655 644.5904 13.1831 643.3609 12.9595 642.5785 13.1831 641.7961 14.7479 639.3372 15.0832 638.5548 15.4185 636.5429 15.642 635.984 16.2009 635.0899 16.3127 634.531 16.0891 634.1957 13.4066 630.5073 4.1296 622.0127 3.2354 621.2303 1.3353 617.9889 1 614.6358 5.2473 602.3409 4.8002 600.329 2.9001 596.5288 3.0119 594.6287 3.7943 593.6228 4.6884 592.8404 5.3591 591.9462 5.1355 590.4932 4.8002 587.14 4.8002 585.4635 5.3591 584.7928 13.8537 586.9165 15.9773 586.9165 17.9892 586.5812 22.2365 585.0164 24.2484 584.9046 34.196 588.4813 35.0902 588.4813 36.8785 588.0342 38.6669 587.2518 40.567 586.5812 50.4029 586.2459 52.0794 585.9106 53.6442 585.1282 59.0092 580.0985 63.2565 576.0747 68.398 571.2685 72.7571 567.2448 74.5454 566.1271 76.6691 565.68 81.3635 565.4564 87.6227 565.2329 93.7701 565.0094 100.0293 564.7858 106.1767 564.674 112.4359 564.4505 118.5833 564.227 124.8425 564.0034 130.9899 563.7799 137.2491 563.5563 143.3965 563.3328 149.6557 563.1092 155.8031 562.8857 162.0623 562.6622 168.2097 562.4386 174.4689 562.3268 180.7281 562.1033 183.8576 561.9915 184.193 561.0974 184.193 558.6384 184.3047 557.4089 184.5283 556.7383 184.9754 556.403 185.9813 556.1794 188.552 556.0677 196.1525 557.4089 208.2238 559.4208 214.93 560.6503 215.2653 560.762 216.3831 560.9856 217.0537 553.2734 217.6125 551.485 223.3129 548.0201 228.3426 542.4316 230.6898 541.2021 235.7195 540.1961 238.1784 538.8549 239.855 536.9548 239.9668 536.5077 240.7492 534.4958 241.308 531.9251 241.8669 525.4424 242.314 524.2129 243.3199 522.6481 247.0084 518.9596 247.1201 518.7361 247.1201 518.5125 247.1201 518.1772 247.1201 518.0655 247.1201 517.9537 247.0084 517.8419 247.0084 517.7301 246.226 515.83 246.0024 513.9299 246.226 512.1416 251.9263 497.9466 252.9322 496.3818 254.1617 495.0406 255.7265 493.9229 258.5208 492.4699 259.415 491.5757 259.862 490.0109 259.862 482.634 259.862 476.8219 259.7503 467.8802 259.7503 463.6329 259.9738 463.074 260.7562 461.7328 261.0915 460.9504 260.7562 454.3559 260.7562 453.2382 261.2033 452.0087 261.6504 451.7851 262.321 451.7851 263.2152 451.1145 263.2152 444.0729 263.2152 439.8256 263.2152 431.5546 263.1034 423.1717 263.1034 414.9007 263.1034 406.5178 263.1034 398.2468 262.9916 389.8639 262.9916 385.1695 262.9916 381.4811 262.9916 373.21 262.9916 364.8272 262.8799 356.4443 262.8799 348.0615 262.8799 339.7904 262.8799 339.6787 262.8799 331.2958 262.7681 322.913 262.7681 314.5301 262.7681 306.0355 274.8394 303.5766 287.0224 301.1176 299.0937 298.6586 311.2768 296.1997 317.6477 294.9702 331.7309 292.0641 345.8141 289.2699 352.185 287.9286 360.4561 286.252 363.3622 285.1343 366.1564 283.2342 371.1861 278.5398 375.2099 274.8514 379.3454 271.1629 383.3692 267.4745 387.393 263.786 391.4167 260.0976 395.4405 256.4091 399.576 252.7207 403.5998 248.9205 407.6235 245.232 411.6473 241.5436 415.7828 237.8551 419.8066 234.1667 423.8304 230.3664 427.8541 226.678 431.9897 222.9895 436.0134 219.3011 439.7019 215.8362 442.1608 213.7125 447.0788 209.3535 451.6614 205.3297 456.244 201.3059 460.8266 197.3939 465.4092 193.3702 471.7802 187.7816 480.2748 182.5284 484.6339 179.7341 488.993 176.9398 493.352 174.2573 497.7111 171.463 502.0702 168.6688 506.4293 165.8745 510.7883 163.192 515.1474 160.3977 519.6183 157.6034 523.9773 154.8091 528.3364 152.1266 532.6955 149.3323 537.0546 146.5381 541.4136 143.7438 545.7727 141.0613 550.1318 138.267 554.4909 135.4727 558.9617 132.6784 563.3208 129.8842 567.6799 127.0899 572.0389 124.4074 576.398 121.6131 580.7571 118.8188 585.1162 116.0245 589.4752 113.2303 593.8343 110.436 598.3052 107.7535 602.6642 104.9592 607.0233 102.1649 611.3824 99.3706 615.7415 96.5763 620.1006 93.7821 624.4596 90.9878 628.8187 88.1935 633.1778 85.3992 637.6486 82.605 642.0077 79.8107 646.3668 77.0164 650.7259 74.3339 655.0849 71.5396 659.444 68.7453 663.8031 65.951 668.1622 63.1568 672.5212 60.3625 676.8803 57.5682 681.3512 54.7739 685.7102 51.9796 690.0693 49.1854 694.4284 46.3911 698.7875 43.5968 703.1465 40.6908 707.5056 37.8965 711.8647 35.1022 716.3355 32.3079 720.6946 29.5136 725.0537 26.7194 729.4128 23.9251 733.7718 21.1308 738.1309 18.3365 742.49 15.5422 746.8491 12.748 751.2081 9.8419 755.679 7.0476 760.0381 4.2534 765.6266 5.7064 771.327 7.0476 777.0273 8.3889 782.7276 9.8419 788.3162 11.1832 794.0165 12.5244 799.7168 13.8657 805.3054 15.3187 811.0057 16.66 816.7061 18.0012 822.2946 19.4542 827.9949 20.7955 833.6953 22.1367 839.3956 23.5898 844.9842 24.931 850.6845 26.2723 857.1672 27.9488 864.7677 32.0844 868.3443 35.3257 876.3919 42.5909 884.4394 49.7442 892.4869 56.8976 900.5344 64.0509 903.4405 66.7334 904.3347 67.1805 905.3406 67.0688 909.4761 64.8333 920.4297 58.7977 931.3833 52.8738 942.3369 46.8382 953.4022 40.8025 954.1846 45.1616 954.967 49.5207 955.7494 53.8798 956.5318 58.2388 957.3142 62.5979 958.0966 66.957 958.879 71.3161 959.5496 75.6751 960.332 80.0342 961.1144 84.3933 961.8968 88.7524 962.6792 93.1114 963.4616 97.3587 964.244 101.7178 964.8029 104.7356 965.2499 107.6417 965.8088 110.436 965.8088 111.7772 965.8088 115.4657 965.9206 120.4954 966.0323 126.3075 966.1441 132.2314 966.2559 137.2611 966.2559 140.8377 966.2559 142.2908 966.2559 144.0791 966.5912 145.1968 967.5971 146.2028 970.615 147.7675 971.8444 148.6617 974.0799 151.3442 975.5329 153.8032 976.6506 155.4798 977.7683 157.1563 978.7743 158.8329 979.892 160.5095 981.0097 162.186 982.0156 163.8626 983.1333 165.5392 984.1393 167.2157 985.257 169.0041 986.3747 170.6806 987.3806 172.3572 988.4983 174.0338 989.6161 175.7103 990.622 177.3869 991.7397 179.0635 992.7457 180.74 993.8634 182.4166 991.2926 183.8696 989.7278 186.5521 989.169 189.7935 989.7278 192.8113 990.3985 194.5997 991.4044 196.0527 992.5221 197.3939 997.7754 201.5295 999.5637 203.5414 1003.2521 207.7887 1007.0524 211.9242 1010.7408 216.0597 1014.4293 220.307 1015.9941 221.9836 1016.8882 223.4366 1017 224.5543 1016.5529 225.7838 1015.2117 228.131 1012.6409 232.9372 1010.0702 237.6316 1007.4994 242.326 1004.9287 247.0204 1004.0345 248.8087 1002.0227 254.1737 1001.7991 257.0798 1001.4638 260.2094 1001.2403 263.2272 1001.0167 266.3568 1000.6814 269.4864 1000.4579 272.616 1000.2343 275.7455 999.899 278.8751 999.6755 282.0047 999.4519 285.0226 999.2284 288.1521 998.8931 291.2817 998.6695 294.4113 998.446 297.5409 998.1107 300.5587 997.8871 303.6883 997.6636 306.8179 997.3283 309.9475 997.1047 312.9653 996.8812 316.0949 996.5459 319.2245 996.3223 322.2424 996.0988 325.3719 995.7635 328.5015 995.5399 331.6311 995.3164 334.649 994.9811 337.7785 994.7575 340.9081 994.534 343.926 994.1987 347.0556 993.9751 350.1851 993.7516 353.203 993.4163 356.3326 993.1927 359.4622 992.9692 362.48 992.7457 365.6096 992.4103 368.6274 992.1868 371.757 991.9633 374.8866 991.6279 377.9044 991.4044 381.034 991.1809 383.493 991.1809 384.0518 990.8455 387.1814 990.622 390.1992 990.3985 393.3288 990.0631 396.3466 989.8396 399.4762 989.6161 402.6058 989.2807 405.6237 989.0572 408.7532 988.8337 411.7711 988.4983 414.9007 988.2748 417.9185 988.0513 421.0481 987.716 424.0659 987.4924 427.1955 987.2689 430.2133 986.9336 433.3429 986.71 436.3607 986.4865 439.3785 986.2629 442.5081 985.9276 445.526 985.7041 448.6556 985.4805 451.6734 985.1452 454.803 985.0334 456.4795 984.8099 457.2619 984.5864 457.9326 983.804 459.162 981.5685 461.5092 977.9919 465.4212 974.4152 469.3332 970.8385 473.2452 967.1501 477.1572 963.5734 481.0692 959.9967 484.9812 956.42 488.8932 952.7316 492.8052 949.1549 496.7172 945.5782 500.6292 942.0015 504.5411 938.3131 508.4531 934.7364 512.3651 931.1597 516.2771 927.5831 520.1891 923.8946 523.9893 921.4356 526.6718 917.6354 530.8074 914.1705 534.6076 912.3822 537.1783 910.4821 539.8608 908.4702 542.6551 906.5701 545.3376 904.67 548.0201 902.7699 550.8144 900.8697 553.4969 898.9696 556.1794 896.9578 558.8619 895.0576 561.6562 893.1575 564.3387 891.2574 567.0212 889.3573 569.7037 887.4572 572.498 885.5571 575.1805 883.5452 577.863 881.6451 580.5455 879.8568 583.2281 878.1802 586.8047 876.0565 591.3873 875.0506 593.3992 874.7153 594.6287 874.7153 596.0817 874.9388 597.423 875.833 600.329 875.9448 601.6703 875.3859 603.2351 874.38 603.6822 873.1505 603.7939 871.8092 604.1293 871.2504 604.5763 869.1267 606.9235 867.8972 607.8177 867.6737 608.153 867.7855 608.4883 868.4561 609.159 868.6796 609.4943 869.015 612.065 869.015 613.2945 868.4561 614.524 866.3325 616.3123 865.3265 616.5359 863.7617 616.8712 861.191 616.9829 858.8438 617.9889 857.1672 618.7713 855.1553 621.7891 855.0436 625.7011 856.273 630.2837 857.1672 633.6369 857.8378 636.7664 858.2849 638.7783 858.8438 640.902 859.2909 643.0256 859.738 645.1493 860.185 647.2729 860.6321 649.3966 861.0792 651.5202 861.5263 653.6439 862.0851 655.6558 862.5322 657.7794 862.9793 659.9031 863.4264 662.0267 863.8735 664.1504 864.3206 666.274 864.7677 668.3977 865.2147 670.4096 849.3432 669.7389 847.4431 670.0743 846.8843 670.5213 846.8843 671.7508 845.8783 672.4215 843.3076 674.7686 842.8605 675.4393 842.5252 676.1099 842.5252 676.3334 842.8605 676.7805 842.9723 677.2276 842.7487 677.6747 842.3017 677.7865 841.8546 677.7865 841.631 677.8982 841.0722 678.7924 841.1839 679.1277 842.0781 679.2395 840.8486 680.8043 839.2838 681.3631 837.6073 681.6985 835.9307 682.4809 836.1542 681.922 836.266 681.2514 836.1542 680.6925 835.4836 680.5807 835.1483 680.9161 834.7012 681.922 834.1424 682.4809 834.1424 681.6985 834.1424 681.4749 833.1364 681.8102 831.9069 681.922 831.2363 681.6985 831.5716 681.0278 831.5716 680.5807 829.7833 680.8043 828.1067 681.3631 822.2946 684.2692 820.618 684.6045 818.8297 684.1574 818.4944 685.2751 817.9355 685.3869 817.1531 684.9398 816.1472 684.7163 816.1472 685.1634 816.5943 685.2751 817.0414 685.6105 817.4884 685.9458 817.9355 686.5046 817.0414 687.1752 815.253 689.1871 815.253 689.4107 815.3648 689.9695 815.253 690.0813 815.0295 690.1931 814.4706 690.0813 814.3589 690.0813 814.0235 690.3048 813.2411 690.5284 813.0176 690.8637 813.2411 691.5343 813.6882 692.0932 813.6882 692.3167 812.7941 692.4285 812.6823 692.205 812.347 691.7579 811.8999 691.4226 811.7881 691.6461 811.6763 691.7579 811.2293 692.7638 809.5527 694.8875 808.5468 695.6699 807.0937 696.0052 806.3113 696.3405 805.8642 697.9053 805.3054 698.2406 804.2994 698.0171 803.7406 697.57 803.1817 697.0111 802.5111 696.4523 802.3993 697.57 802.2876 697.9053 801.8405 698.3524 801.3934 698.6877 800.9463 698.7994 800.7228 698.4641 800.3875 698.6877 798.0403 700.9231 797.8167 702.0408 797.0343 703.1585 796.5872 704.1645 797.5932 704.6116 797.1461 706.0646 796.8108 706.7352 796.3637 707.2941 795.8048 707.5176 794.3518 707.7411 794.1283 707.9647 793.5694 711.5414 793.2341 712.3238 792.3399 712.6591 791.334 712.5473 790.1045 712.1002 788.6515 711.8767 786.8631 711.7649 784.6277 711.6531 783.51 711.3178 782.9512 711.7649 782.5041 711.4296 781.9452 710.8707 781.3864 710.4237 780.7157 710.5354 780.3804 710.8707 780.0451 711.2061 779.8216 711.3178 779.2627 711.3178 779.1509 710.9825 779.1509 710.6472 778.9274 710.2001 778.145 709.8648 774.9036 708.6353 773.8977 708.8589 772.5564 709.8648 771.6623 709.9766 769.4268 710.2001 765.7384 709.1942 764.3971 708.6353 761.4911 706.2881 752.5494 700.8113 745.396 697.7935 726.0596 692.8756 694.7637 693.0991 683.0277 691.6461 676.8803 692.205 675.092 692.5403 643.9078 699.3583 641.2253 700.476 629.0422 707.2941 627.9245 708.4118 627.5892 709.0824 627.3657 710.759 627.0304 711.4296 626.5833 711.8767 626.3597 711.9884 626.0244 711.8767 625.3538 712.212 624.0125 712.9944 621.8889 715.0063 610.9353 728.0835 610.4882 728.6424 609.7058 729.313 609.0352 729.7601 608.5881 729.9836 607.2469 729.9836 593.6108 728.4188 592.3813 728.5306 588.9164 729.4248 586.5692 729.4248 567.9034 727.3011 565.5562 726.9658 548.6788 721.9361 546.3316 720.5948 545.2139 719.2536 543.4255 716.2358 542.0843 714.7827 539.29 712.6591 537.7252 711.9884 536.0486 711.5414 535.2662 711.5414 533.7014 711.7649 532.919 711.9884 532.2484 712.3238 531.9131 712.5473 531.6895 712.5473 531.0189 712.3238 530.5718 711.9884 524.2009 706.0646 522.6361 704.1645 521.7419 703.3821 520.8477 703.0468 520.8477 702.935 518.9476 702.4879 517.9417 702.0408 515.818 700.2525 514.0297 699.2465 512.5767 697.7935 511.7943 697.1229 510.0059 696.4523 493.6873 694.2168 491.5637 694.3286 489.3283 695.3345 465.9681 709.5295 463.9562 710.2001 461.7208 710.2001 455.0145 708.9706 453.5615 709.1942 449.6495 713.7768 446.6317 716.5711 445.1787 717.2417 444.8433 717.2417 443.7256 717.4652 438.9195 717.4652 436.7958 717.2417 434.7839 716.4593 432.7721 714.8945 430.4249 712.7708 426.6246 708.3 424.9481 705.3939 419.8066 695.7816 409.3001 684.1574 400.2466 675.551 395.9993 673.0921 394.7699 672.8685 391.305 672.0861 390.0755 672.3097 386.387 674.4333 385.7164 674.6569 385.2693 674.4333 384.934 674.098 384.2634 673.7627 366.1564 666.4976 347.9377 659.2325 345.8141 658.7854 336.3135 660.4619 334.5252 661.3561 333.8546 662.362 332.7369 664.821 331.8427 665.827 329.9426 667.28 329.1602 667.6153 326.9248 667.9506 317.7595 667.6153 311.2768 668.733 307.4766 668.5095 306.0235 667.8388 304.5705 666.4976 303.1175 665.827 301.1056 666.0505 288.2519 669.1801 280.6515 671.0802 277.1866 672.4215 274.1688 674.6569 263.9976 684.381 262.2092 685.2751 260.3091 685.6105 256.1736 685.7222 256.0618 701.482 255.8383 703.0468 253.8264 717.2417 243.5435 733.3367 239.4079 737.3605 225.3248 747.9788 225.1012 748.6494 225.6601 765.0798 223.9835 773.6861 223.9835 776.5922 225.5483 781.3983 225.7718 783.6338 224.7659 785.7574 223.6482 786.8751 222.9776 787.8811 222.6422 788.9988 222.9776 792.6872 223.2011 793.3579 223.5364 794.0285 223.76 794.252 224.0953 794.3638 225.5483 796.0404 226.3307 797.2699 226.666 798.4993 226.2189 799.9524 225.4365 800.7348 222.1952 802.7466Z" />
</svg>