<?xml version="1.0" encoding="utf-8"?>
<svg xmlns="http://www.w3.org/2000/svg" viewBox="0 0 1021 916" style="stroke-width:0.25px;stroke-linejoin:round;stroke:#444;fill:#ddd" fill-rule="evenodd">
  <path class="NI" d="M407.4 835.0601L407.2882 835.0601 397.0053 830.8128 393.0933 830.1421 390.1872 828.5773 388.5107 824.8889 386.6106 817.2884 382.9221 811.6999 361.015 787.1102 359.2266 785.769 358.3325 785.3219 355.0911 783.0865 354.4205 782.1923 347.3789 780.1804 344.1375 777.2744 337.3195 768.8915 331.8427 765.9855 324.8011 758.6086 315.9712 753.4671 312.9534 750.7846 312.171 749.108 310.1591 742.8488 303.8999 740.0546 296.1877 732.5659 277.4101 724.2948 274.1688 721.9476 271.4862 718.7063 269.1391 712.1118 244.6612 693.3342 240.6374 688.3045 235.1606 675.8979 232.9252 674.1096 230.9133 672.9919 225.5483 667.5151 222.3069 662.9325 218.842 656.338 218.1714 653.2084 217.1655 650.3023 214.8183 647.8433 209.7886 643.9314 204.9824 637.8957 197.2702 624.4832 190.0051 604.6997 187.9932 601.5701 182.9635 597.0992 140.9375 571.3919 138.3668 568.1505 126.8543 561.4442 120.5952 554.738 106.4002 548.2552 105.8414 543.4491 108.1886 546.5787 112.2123 549.2612 116.9067 551.1613 121.3776 552.0554 116.3479 546.4669 113.6653 544.3432 110.8711 543.4491 109.0827 542.1078 104.5001 533.2779 103.1589 533.2779 105.2825 541.1019 101.9294 538.1958 96.5644 531.3778 92.6524 527.5776 90.0816 526.4598 77.3397 516.5122 75.6631 514.7239 74.6572 512.6002 73.5395 508.9118 72.9806 510.1413 71.4158 512.0414 70.7452 513.1591 48.2792 486.8928 45.5967 481.4161 46.4909 482.422 47.385 482.9809 49.844 484.3221 49.844 482.9809 48.8381 482.6455 47.0497 481.4161 47.0497 480.1866 46.4909 478.0629 43.026 475.1569 38.4433 472.5861 34.3078 471.5802 34.3078 472.8097 39.7846 476.3864 42.5789 479.0689 42.6906 481.4161 40.567 481.1925 37.5492 478.8453 33.0783 474.3745 9.0475 459.956 4.0178 455.4851 1 450.2319 1 444.0845 4.8002 436.8194 10.6123 431.7897 16.5362 427.9894 20.7835 423.4068 21.7894 415.2475 23.1307 415.2475 22.5718 419.8301 21.7894 421.0596 24.1366 421.0596 26.9309 421.3949 29.2781 422.1773 30.284 423.1833 31.1782 423.7421 36.4315 428.213 37.6609 428.9954 41.4612 433.9133 42.3553 434.6957 44.9261 436.2605 45.5967 436.8194 45.8202 438.1606 45.3732 441.402 45.5967 442.7432 52.303 449.4495 61.0211 451.3496 82.1459 450.0084 82.1459 448.4436 71.4158 448.6671 66.0508 448.1083 63.8154 446.2081 65.8273 442.855 75.7749 437.9371 77.1162 436.9311 124.0601 433.9133 127.0779 434.2486 131.884 437.1547 134.2312 437.3782 135.349 433.9133 139.5963 431.7897 144.8495 428.5483 147.1967 425.9776 152.0029 418.4889 153.1206 417.4829 156.1384 416.0299 157.2561 414.9122 157.815 412.9003 156.9208 412.1179 155.8031 411.5591 155.356 410.3296 157.0326 399.2642 156.6972 398.7054 155.1325 395.3523 154.7971 394.1228 155.1325 393.5639 156.5855 387.64 158.0385 384.734 159.7151 382.7221 169.5509 374.2275 172.2334 372.3274 175.5866 371.4332 179.0515 371.6568 190.8992 377.5806 192.7993 378.1395 194.6994 377.5806 196.1525 376.5747 197.7173 375.5688 200.5116 372.998 202.0763 370.2037 202.5234 366.9624 201.2939 360.9267 200.8469 359.6972 199.3938 357.0147 198.0526 355.7853 196.7113 355.4499 195.4818 354.8911 194.6994 352.7674 195.0348 349.7496 197.6055 343.9375 197.9408 340.5844 191.3463 315.3241 191.2345 311.7474 192.464 305.0411 192.3523 301.688 191.5699 300.3468 189.7815 298.8937 188.8873 298.3349 188.105 297.2172 187.7696 295.3171 188.3285 284.0282 188.552 280.4515 188.9991 277.4337 189.3344 276.2042 190.3404 275.31 192.6876 273.6334 197.2702 271.2862 201.6293 270.9509 210.571 272.0686 227.2249 268.8273 235.3842 268.3802 242.0904 272.1804 245.7789 273.1864 248.6849 272.1804 251.4792 270.7274 254.497 270.3921 257.7384 273.6334 258.9679 274.5276 260.868 275.1982 262.321 275.4218 272.8275 274.7512 276.6277 273.7452 279.6455 272.2922 282.1045 269.6097 283.2222 266.3683 284.8988 260.1091 288.1402 254.9677 301.5527 240.5492 308.5943 229.3721 310.7179 228.0308 313.1769 227.0249 315.6359 225.7954 317.9831 223.2246 319.5479 220.5421 320.3303 218.5303 321.3362 216.6301 323.6834 214.6183 326.4777 213.1652 342.1256 210.818 342.1256 213.1652 339.8902 217.6361 340.4491 223.2246 354.9793 233.8429 359.3384 239.655 360.7914 240.9963 363.5857 242.0022 365.4858 241.5551 367.3859 240.7727 370.1802 240.6609 374.651 242.5611 376.9982 246.2495 379.0101 250.6086 382.3633 254.5206 386.8341 256.1971 391.6403 255.9736 395.7758 256.3089 398.5701 259.4385 398.9054 259.5503 399.0172 259.662 399.4642 259.215 400.9173 257.8737 402.5938 254.5206 403.0409 251.2792 401.9232 248.8202 398.7936 247.8143 398.0112 246.026 398.9054 241.8904 400.9173 235.6312 401.1408 230.9369 402.1468 229.8191 404.2704 230.2662 407.9589 230.6015 410.5296 229.3721 414.6651 225.6836 416.4535 226.2425 417.6829 226.2425 417.5712 225.2365 417.9065 225.013 418.4653 225.013 419.136 224.7894 418.4653 222.554 425.6187 220.3186 427.6306 218.3067 429.5307 215.4007 434.0015 213.8359 435.7899 213.5006 439.143 212.9417 442.9432 211.7122 444.9551 208.8062 445.4022 205.453 446.5199 202.6587 453.8968 200.5351 457.3617 198.5232 462.7267 194.3877 465.0739 191.3699 467.3094 187.3461 468.9859 183.3223 470.5507 177.9573 472.4508 174.6042 474.798 171.4746 476.8099 169.5745 477.7041 169.4627 479.9395 169.798 480.7219 169.5745 481.2807 168.9039 481.9514 167.3391 483.4044 165.5507 484.1868 164.2095 485.3045 162.98 487.2046 162.5329 492.1226 160.0739 494.2462 159.6268 501.9584 159.6268 507.0999 158.7327 512.2414 157.0561 516.3769 154.4854 518.7241 150.9087 518.6123 146.1025 515.9298 141.967 512.2414 138.6139 509 136.3784 514.5886 132.0194 514.8121 130.6781 514.365 127.4367 514.5886 126.0955 519.2829 121.0658 520.0653 119.7245 520.5124 108.9945 521.2948 103.1824 522.9714 100.1646 526.6598 101.0587 530.013 104.7472 533.4779 107.3179 537.837 105.3061 545.1021 97.9292 546.3316 95.0231 546.5551 94.3525 541.3019 94.3525 542.5314 92.6759 547.0022 88.4286 541.1901 84.2931 540.0724 82.2812 543.3138 81.387 544.4315 80.8282 545.1021 79.5987 546.108 71.7747 547.8964 68.4216 550.6906 65.7391 551.1377 65.5155 554.3791 63.3919 558.0675 60.7094 567.4563 51.5441 570.8095 49.644 582.9925 47.4086 588.4693 47.185 593.7226 48.7498 598.1934 52.103 601.2112 57.1327 600.6524 57.6915 598.9758 59.8152 598.864 60.2623 602.9996 60.7094 603.5584 63.2801 603.3349 66.0744 607.4704 68.9804 609.7058 72.5571 612.7237 79.8222 616.5239 77.475 620.4359 77.9221 628.3716 81.387 632.9542 82.393 647.9316 82.84 647.1492 84.2931 646.5903 88.4286 649.7199 87.4227 651.8436 88.6521 653.9672 90.5523 657.0968 91.4464 659.444 90.7758 664.6972 87.8697 672.2977 85.0755 676.0979 80.4928 679.004 75.1278 681.6865 71.1041 683.6983 73.116 685.1514 78.5927 686.7162 79.8222 689.8458 80.0458 694.7637 81.1635 696.9991 81.387 701.2464 79.1516 702.2524 74.4572 701.2464 64.5096 702.3641 62.0506 704.9349 61.8271 707.7292 62.833 709.6293 63.8389 711.1941 65.1802 716.0002 70.4334 718.571 71.4394 721.5888 71.2158 726.5067 69.7628 727.7362 69.0922 728.6304 68.0862 729.6363 67.1921 731.5364 66.745 733.213 67.0803 734.2189 67.5274 735.0013 67.6392 736.4543 66.745 736.4543 65.1802 734.666 63.3919 733.213 61.4917 730.8658 56.462 733.1012 54.6737 734.5542 54.5619 739.2486 57.468 739.8075 58.4739 740.5899 59.2563 742.7135 59.4799 746.1784 59.3681 747.2961 60.0387 747.6315 61.6035 751.2081 62.0506 771.4387 60.9329 770.321 59.2563 770.4328 57.2444 771.4387 52.4383 773.8977 53.7795 777.2508 57.3562 779.8216 58.0268 779.598 57.1327 778.5921 55.2326 780.0451 55.7914 780.8275 56.015 781.6099 56.5738 782.7276 58.0268 785.1866 55.7914 788.875 53.7795 792.8988 52.4383 796.699 52.4383 795.1342 51.3206 794.1283 50.3146 792.6752 47.8557 804.0759 47.0733 808.3232 45.5085 807.8761 42.1553 810.5586 42.0436 812.5705 42.2671 814.1353 43.273 814.9177 45.0614 816.4825 45.0614 814.4706 39.0257 815.253 36.5668 819.0532 34.7784 823.1888 34.2196 827.6596 34.4431 831.4598 35.5608 833.2482 37.7963 834.7012 37.7963 835.5954 35.2255 836.0425 32.4312 837.0484 30.084 842.0781 28.1839 847.2196 24.0484 850.1256 23.266 849.7903 22.4836 849.2315 20.9188 848.7844 20.36 851.8022 21.2541 852.9199 21.813 852.2493 18.9069 852.5846 16.448 853.7023 15.5538 855.7142 17.4539 855.826 14.2125 856.1613 12.8713 857.279 11.53 855.826 9.4064 856.6084 8.4004 858.6202 8.1769 861.3028 8.624 862.4205 9.6299 864.8794 13.5419 866.7795 14.5479 871.5857 13.989 875.7212 11.53 878.9626 7.9534 880.8627 4.2649 883.4334 6.2768 886.116 7.3945 888.2396 8.7358 889.2455 11.53 892.3751 9.4064 895.9518 9.1828 904.8935 10.1888 902.5463 11.4183 902.3228 12.536 903.8876 13.5419 906.3465 14.5479 907.1289 14.4361 916.2942 14.5479 921.6592 12.0889 924.5652 11.53 931.3833 11.8653 934.1776 11.4183 932.6128 13.6537 928.9243 15.442 927.0242 17.3421 924.0064 13.7655 921.5474 16.3362 919.5355 20.807 918.0825 23.1542 915.4 24.4955 912.941 27.5133 911.1527 31.09 910.3703 33.996 909.8114 35.002 907.2407 37.5727 906.123 39.1375 905.6759 41.1494 905.2288 45.732 904.7817 47.7439 903.1052 50.4264 900.6462 52.3265 893.6046 55.1208 894.0517 53.8913 894.6106 52.8854 896.3989 50.7617 896.3989 52.4383 897.0695 51.2088 897.5166 50.2029 897.6284 49.1969 897.6284 47.7439 896.0636 48.7498 895.393 48.9734 893.6046 47.7439 893.6046 46.5144 896.0636 45.2849 898.4108 45.0614 900.4227 45.732 901.9875 47.7439 901.8757 43.8319 899.6403 38.3551 899.0814 33.996 897.7402 29.7487 894.8341 29.0781 891.5927 30.3076 889.1338 31.8724 885.11 35.6726 876.0565 47.4086 873.8211 52.4383 875.833 50.3146 876.5036 49.3087 879.4097 51.6559 881.6451 60.2623 882.9864 62.2741 885.6689 63.8389 888.5749 66.745 891.7045 67.7509 894.8341 63.8389 893.3811 62.4977 889.5809 60.1505 887.9043 59.4799 890.1397 58.1386 892.5987 58.921 894.7223 60.9329 896.3989 63.8389 896.2871 59.0328 897.7402 57.468 899.5285 59.3681 907.576 96.4761 908.0231 97.5938 909.9232 101.6176 911.5998 111.677 921.5474 140.6257 922.6651 149.0086 921.6592 156.1619 916.0706 169.5745 899.0814 197.0702 891.7045 206.0119 890.6986 209.5886 889.2455 212.1593 879.5215 218.9773 875.3859 224.7894 872.4799 231.6075 867.5619 251.1674 859.738 277.769 854.82 301.7998 855.1553 312.1945 854.2612 317.2242 854.2612 321.248 850.0139 331.6427 846.3254 345.6141 844.09 372.6627 844.4253 377.8042 845.8783 380.7102 844.4253 382.0515 845.543 384.6222 852.3611 426.2011 856.8319 453.585 850.0139 508.9118 850.0139 521.2066 850.6845 523.2185 853.5905 529.2541 855.6024 535.9604 861.3028 544.0079 862.644 549.1494 862.1969 555.6321 859.9615 558.9853 855.826 560.4383 849.2315 560.6618 844.2018 561.6678 839.1721 563.5679 834.3659 564.3503 830.2304 562.1149 831.7952 560.5501 836.0425 557.5322 837.2719 556.191 837.3837 553.732 836.6013 550.4906 835.3718 547.5846 830.901 543.5608 831.2363 529.813 830.2304 524.5597 831.0128 524.2244 831.2363 524.1127 831.3481 524.0009 831.7952 523.2185 833.0246 523.2185 840.2898 525.5657 845.3195 519.0829 847.1078 509.5824 844.4253 503.2114 844.4253 501.6466 846.1019 499.6348 846.8843 496.8405 847.2196 485.1045 847.5549 484.6574 848.3373 483.9868 849.3432 482.8691 850.0139 481.4161 849.2315 475.8275 845.3195 472.4744 839.8427 471.1331 834.5894 471.5802 830.3421 474.0392 828.5538 477.9512 828.6656 482.1985 830.2304 485.8869 834.813 488.3459 835.2601 488.6812 835.1483 489.4636 835.5954 493.0403 835.8189 494.4933 836.7131 495.9463 837.719 496.5052 838.5014 497.2876 838.725 499.523 838.725 502.9879 838.2779 504.4409 837.2719 506.1175 838.0543 507.1234 840.178 510.3648 833.807 514.165 822.8535 523.3303 816.259 526.1245 807.429 527.1305 803.7406 528.36 802.1758 531.0425 802.1758 541.996 802.3993 542.2196 803.1817 541.7725 804.9701 541.8843 807.429 542.4431 809.1056 542.3314 810.4469 542.7784 812.1234 544.7903 813.4647 554.1791 812.6823 558.6499 811.2293 562.8972 810.5586 566.8092 812.1234 570.7212 815.9237 572.5096 822.2946 571.1683 823.4123 574.4097 823.1888 576.5333 822.0711 580.5571 821.8475 583.0161 822.2946 584.2455 823.3006 582.3454 826.5419 571.6154 827.7714 568.9329 829.5597 567.8152 833.5835 568.374 834.4777 570.0506 824.8653 589.2752 820.3945 614.0884 821.8475 640.9135 823.4123 645.4961 821.9593 646.2785 820.5063 646.8374 821.2887 642.5901 819.8356 639.0134 814.6942 632.6425 812.5705 627.2774 814.3589 625.042 817.3767 623.0301 818.9415 618.1122 817.9355 614.6473 815.253 610.5118 811.5646 606.9351 807.7644 605.1468 801.5052 605.8174 801.8405 608.947 805.0818 610.8471 807.7644 608.0528 809.3292 608.0528 812.7941 611.6295 814.1353 613.8649 814.6942 616.6592 814.0235 620.1241 810.8939 624.7067 810.5586 628.0598 809.4409 632.0836 805.7525 632.1954 797.2579 629.6246 796.1402 630.2953 798.7109 631.8601 803.7406 633.8719 804.8583 635.5485 805.7525 637.7839 806.1996 640.3547 806.3113 643.149 805.976 645.0491 804.0759 648.8493 803.7406 650.4141 804.0759 651.5318 804.7465 652.7613 805.1936 654.1025 804.9701 655.4438 803.8524 656.785 802.7347 657.3439 801.6169 657.791 800.9463 658.3498 797.1461 663.2678 795.9166 664.0502 794.1283 664.7208 792.1164 666.1738 790.4398 668.0739 789.5457 669.8623 792.2282 671.7624 795.5813 674.6684 798.3756 677.9098 800.0521 681.9336 801.6169 683.0513 803.6288 683.8337 805.6407 684.0572 808.6585 683.7219 808.8821 682.716 808.0997 681.3747 807.7644 679.8099 809.1056 675.6744 810.2233 673.5507 812.1234 672.7683 815.4766 672.6565 817.4884 674.3331 826.989 712.5589 827.4361 719.9358 827.3243 722.6183 827.1008 724.1831 826.3184 725.5243 824.6418 727.0891 824.3065 726.4185 821.4004 727.0891 818.4944 727.9833 818.2708 728.4304 816.7061 729.2128 814.6942 732.2306 812.7941 732.9012 810.3351 732.9012 808.3232 733.2365 806.6466 734.0189 804.9701 735.5837 802.8464 742.0664 800.8345 751.9023 798.152 759.2792 793.793 758.6086 792.4517 758.6086 785.969 766.8796 784.0689 770.121 783.0629 773.6977 783.0629 794.8224 789.3221 822.2064 793.793 833.16 799.9404 842.6605 801.9523 847.802 806.7584 855.7377 808.5468 857.3025 812.2352 859.6497 813.6882 863.6735 815.3648 868.1443 818.9415 867.4737 818.1591 865.2383 819.7239 865.6854 821.4004 869.262 821.8475 869.4856 822.1828 870.7151 821.624 873.5094 823.6359 874.6271 823.7476 879.2097 825.6477 886.5866 825.0889 892.2869 817.8238 895.9754 804.4112 899.2167 803.2935 899.4403 789.7692 904.5817 785.5219 909.6114 784.7395 910.0585 779.1509 908.9408 777.8097 909.3879 774.9036 911.3998 773.0035 911.7351 770.9916 911.5116 769.6504 910.8409 757.3556 901.0051 756.3496 897.4284 754.1142 895.8636 751.3199 896.4224 748.9727 898.7696 745.396 897.9872 740.3663 901.2286 737.9074 898.7696 736.4543 898.7696 734.1072 900.558 731.76 899.6638 727.9597 895.9754 725.5008 896.4224 723.7124 896.0871 722.2594 895.8636 719.018 895.8636 716.7826 897.5402 715.6649 896.0871 711.1941 892.5105 710.747 891.7281 709.8528 890.8339 709.5175 889.7162 710.4117 888.0396 711.1941 887.4807 714.1001 886.0277 713.3177 880.998 709.741 877.9802 705.829 875.9683 704.0407 873.9564 701.9171 872.5034 692.3047 868.815 690.1811 866.8031 689.6222 865.3501 686.9397 861.8851 685.9338 860.3204 685.5985 857.7496 685.5985 855.626 685.1514 854.0612 683.1395 853.0552 681.4629 854.1729 670.3976 861.3263 668.4975 862.2205 666.262 861.9969 664.0266 861.1028 662.2383 860.0968 660.4499 858.532 655.7556 852.7199 654.9732 852.1611 653.9672 851.6022 652.8495 851.1551 651.7318 850.8198 641.5606 846.349 636.8662 844.7842 632.3954 845.0077 628.8187 844.5606 621.1065 838.8603 617.418 837.2955 611.0471 838.8603 595.8462 848.9197 574.7215 862.8911 569.9153 864.6794 565.2209 864.1206 532.1366 851.8257 502.7408 840.8722 495.3639 838.1897 467.6447 827.9067 446.967 820.1945 440.3725 816.3943 434.5604 811.2528 428.6365 808.1232 421.8185 811.0293 416.1182 818.8532 412.3179 827.0125 407.4 835.0601ZM824.53 865.4618L824.4183 866.356 823.3006 867.3619 822.5182 867.4737 822.5182 866.6913 822.9652 866.356 822.9652 865.9089 821.8475 865.3501 821.1769 865.4618 820.171 864.903 821.1769 864.7912 824.53 865.4618ZM812.1234 668.2975L810.5586 662.7089 810.1116 655.1085 811.5646 648.514 815.7001 645.6079 816.0354 645.6079 816.259 645.8315 816.3707 646.1668 816.259 646.8374 814.9177 649.0728 813.4647 652.426 812.4587 656.2262 812.1234 659.6911 813.2411 667.2915 813.3529 670.0858 812.1234 668.2975ZM949.8255 612.7472L949.3784 608.1646 951.3903 604.4761 954.1846 602.9113 956.5318 604.8114 955.7494 606.2645 949.8255 612.7472ZM1008.5054 134.9254L1011.8585 133.2488 1014.541 133.2488 1016.3294 135.0372 1017 138.5021 1015.6587 144.3142 1011.8585 146.1025 1001.0167 145.0966 1000.1226 144.9848 1000.905 144.9848 1001.0167 144.9848 1001.4638 144.873 1001.6873 144.426 1001.6873 143.5318 1004.9287 141.7435 1006.27 139.2845 1007.0524 136.9373 1008.5054 134.9254Z" />
</svg>