<?xml version="1.0" encoding="utf-8"?>
<svg xmlns="http://www.w3.org/2000/svg" viewBox="0 0 859 1024" style="stroke-width:0.25px;stroke-linejoin:round;stroke:#444;fill:#ddd" fill-rule="evenodd">
  <path class="NL" d="M853.8482 120.3538L854.5188 130.8603 854.7424 136.7842 854.0717 142.5963 852.5069 148.9672 849.3773 157.1265 848.8185 160.1443 849.042 164.5034 849.8244 166.8506 850.9421 168.7507 851.7245 171.9921 853.8482 198.4818 853.5129 211.6708 851.3892 223.4068 846.5831 235.7017 828.3644 264.4268 826.6878 269.233 824.4524 275.604 822.5523 287.8988 820.4286 327.4658 818.8638 340.3195 814.84 348.1435 806.9043 345.6845 803.5512 344.2315 792.5976 345.7963 780.8616 342.3314 759.8486 342.6667 752.36 344.9021 748.448 347.8081 744.536 350.6024 746.4361 354.4026 745.989 357.7558 744.9831 360.7736 745.0948 363.7914 746.6596 366.1386 753.9248 372.286 741.6299 378.5452 737.9415 378.8805 740.624 384.5809 741.4064 391.0636 741.7417 397.5463 743.0829 402.9113 747.442 408.0528 753.3659 410.9589 770.914 413.4178 782.3146 417.7769 788.5738 418.8946 794.3859 418.4475 799.9745 416.771 801.9864 414.8708 803.4394 412.4119 804.7806 411.7413 818.305 433.7602 821.4345 443.149 819.5344 456.338 815.0636 466.7327 813.4988 472.2095 813.387 478.804 815.2871 486.6279 816.6284 488.9751 817.1872 489.9811 816.5166 491.8812 806.6807 497.9168 804.3336 500.7111 799.0803 509.2057 794.7212 513.1177 785.2207 517.2532 780.8616 521.8359 775.9437 531.8953 773.1494 534.466 760.0722 535.919 758.8427 536.0308 755.266 538.0427 751.4658 541.9547 750.3481 544.0783 748.5597 548.6609 746.7714 550.8964 744.0889 552.2376 741.7417 552.4612 739.7298 553.3553 738.165 557.1556 738.6121 562.6323 742.1888 565.0913 746.9949 566.5443 761.5252 574.7036 767.2255 580.7393 768.3432 582.5276 768.9021 584.9866 768.7903 589.3457 767.5608 590.4634 765.8843 590.6869 764.0959 592.6988 759.0662 601.9758 753.9248 608.1232 747.8891 611.3646 728.2174 612.0352 706.1985 619.6356 695.2449 628.0185 691.6682 629.695 687.0856 629.695 672.8906 625.4477 674.679 633.4953 673.7848 637.0719 665.5138 639.4191 664.8431 633.8306 661.1547 631.7069 652.6601 630.4774 651.6541 629.248 649.1952 624.7771 647.6304 623.3241 645.842 623.1006 638.9122 624.5536 631.4235 621.5358 624.2702 615.7237 617.1168 612.2587 609.6282 616.3943 612.3107 618.5179 620.5817 627.2361 623.5996 631.9305 620.0229 631.0363 614.7696 629.695 607.6163 627.7949 598.5628 630.2539 595.4332 631.9305 590.8506 635.2836 586.4915 637.1837 577.4381 638.7485 573.7496 641.431 573.079 644.5606 578.1087 648.4726 581.0147 655.4024 580.6794 662.6675 576.991 666.2442 575.7615 667.5855 575.538 671.3857 577.7734 672.2799 584.1443 672.1681 586.7151 673.3976 591.633 677.1978 593.8684 679.4332 590.8506 689.6044 595.9921 696.0871 610.9694 702.6816 608.3987 710.7292 607.1692 715.7589 608.1751 720.1179 622.9289 740.5721 631.8706 750.855 633.4354 762.591 634.5531 769.0737 633.659 776.1153 631.9824 783.604 631.7589 790.1985 635.112 794.2222 633.7707 797.3518 633.1001 805.064 631.8706 809.5349 629.747 812.6645 624.0466 816.5765 621.6994 818.8119 610.4106 839.9366 605.7162 845.637 603.4807 849.549 601.5806 856.5905 600.91 864.5263 602.4748 871.009 607.7281 873.9151 618.6816 866.3146 623.8231 868.103 622.0348 869.1089 617.0051 873.2444 621.5877 877.6035 618.3463 881.9626 605.7162 888.8924 585.1503 904.9875 582.2442 908.4524 577.9969 917.3941 575.2026 920.4119 571.1789 920.859 568.1611 918.1765 565.5903 914.7116 562.4607 913.035 556.3133 916.2763 557.5428 924.5474 560.8959 934.7186 561.2312 943.5485 564.2491 942.8779 569.9494 940.0836 572.9672 939.1894 575.985 939.6365 581.7971 941.5366 589.8447 940.6425 590.2917 942.4308 588.9505 945.4486 588.0563 948.3547 588.3916 953.3844 588.9505 956.1787 590.6271 958.0788 595.8803 961.3201 603.1454 963.8909 602.6983 965.3439 601.4689 967.244 601.1336 969.5912 602.9219 976.7446 602.9219 979.5388 601.5806 983.2273 599.1217 986.1333 594.092 985.6862 591.0741 987.4746 589.0623 990.9395 589.2858 993.9573 589.7329 997.1987 588.6152 1001.446 585.3738 1004.352 582.0207 1003.5696 583.0266 1008.0405 584.7032 1010.9465 586.9386 1012.5113 588.2799 1014.635 587.8328 1019.2176 583.3619 1020 567.2669 1019.5529 564.9197 1018.7705 562.349 1017.9881 543.1243 1018.4352 540.8889 1016.8704 536.3063 1011.8407 534.0708 1010.9465 532.1707 1012.5113 529.7118 1016.088 528.5941 1017.7646 526.3586 1018.2117 523.8997 1017.7646 519.8759 1015.4174 522.2231 1007.3699 522.5584 1003.2343 519.0935 1002.2284 514.2873 999.8812 513.0579 998.987 509.3694 996.4163 505.681 991.0513 505.2339 983.2273 521.2172 965.2321 523.7879 964.2262 526.3586 963.332 527.4763 962.4378 530.2706 958.0788 534.0708 949.9195 536.6416 945.6722 534.5179 944.3309 532.3943 944.3309 527.4763 945.6722 536.1945 931.589 539.6594 923.0944 536.6416 918.9589 537.2004 914.2645 538.3182 910.9113 540.1065 909.6818 542.6772 911.9173 544.3538 909.6818 545.5833 907.1111 547.2598 902.305 546.5892 900.8519 546.2539 899.846 545.695 897.2752 548.154 897.4988 550.5012 897.1635 552.7366 896.2693 554.8603 894.9281 549.8306 889.4513 550.5012 885.4275 553.6308 882.2979 553.0719 880.6213 551.0601 876.1505 547.2598 875.8152 540.5536 877.6035 537.5358 875.0328 532.9531 868.6618 529.2647 866.4264 526.4704 866.2029 517.1934 868.103 513.3932 868.103 510.9342 866.4264 508.8106 863.9674 505.7927 861.8438 493.2744 858.0436 489.4741 854.8022 488.2447 853.6845 487.4623 845.637 485.8975 838.7072 481.8737 833.3421 476.6205 830.1008 471.8143 829.5419 467.4552 831.6656 458.1782 838.2601 453.4838 839.9366 427.3294 838.8189 420.3996 840.6073 418.9465 840.9426 415.0345 839.9366 414.9228 827.3065 411.0108 822.3886 406.8752 821.9415 398.3806 822.7239 394.4686 820.6002 393.4627 818.253 391.1155 810.429 389.9978 807.2994 382.3974 798.8048 380.9443 795.4517 381.7267 787.7395 384.1857 782.0392 384.9681 776.1153 380.609 767.7325 374.0145 763.3734 373.3439 762.4792 369.9908 763.3734 368.6495 765.497 367.8671 768.8502 366.3023 773.2092 362.8374 778.9096 357.8077 785.9512 352.1074 791.3162 347.413 792.6574 338.8066 788.7454 334.6711 787.6277 319.2466 787.0689 314.5523 785.057 315.7817 780.8097 318.2407 780.3626 327.9648 784.9452 326.2882 778.7978 327.2942 773.321 328.7472 768.2913 328.1883 762.9263 325.9529 759.9085 322.2645 757.4495 318.1289 755.8847 314.9993 755.5494 307.6224 759.3496 290.5215 780.4744 288.1743 782.1509 285.2682 783.3804 281.8033 783.604 274.7617 781.8156 268.3908 782.9333 265.3729 782.7098 261.1256 779.5802 261.5727 776.1153 263.4728 771.7562 263.8081 765.7206 262.0198 762.8145 259.2255 762.2557 252.631 763.3734 240.7833 767.7325 229.1591 774.5505 231.8416 777.4565 231.3945 780.0273 229.9415 782.8216 229.7179 786.3982 231.5063 789.6396 236.4242 795.5635 237.7655 799.0284 236.7595 805.1758 232.5122 807.4112 222.1175 806.7406 217.8702 805.2876 209.8227 800.9285 207.8108 800.8167 203.4517 800.705 202.5575 799.5872 200.7692 795.4517 200.0986 791.0926 200.2103 787.4042 199.875 784.6099 197.5278 783.0451 194.9571 786.3982 190.1509 787.8513 170.1439 787.2924 165.5613 785.8394 161.0904 783.0451 148.9074 772.4268 145.2189 770.9738 136.0537 769.9679 132.9241 771.868 126.3296 784.3864 123.8706 788.0748 120.4057 789.8631 112.47 790.7573 109.5639 792.5457 107.2167 792.9927 104.8695 791.875 98.7221 785.5041 85.4213 778.7978 76.7032 770.5267 73.2383 770.0796 64.073 773.5446 59.0433 773.7681 46.525 770.9738 42.5012 768.7384 39.1481 763.7087 36.242 758.0084 33.5595 753.8728 26.1826 747.5019 23.8354 743.5899 22.9413 737.8895 25.2884 734.6482 48.0898 720.4532 107.552 713.9705 112.47 714.7529 115.8231 716.653 119.3998 720.0062 122.5294 724.3652 124.653 729.5067 122.3058 730.5127 118.5056 733.0834 117.0526 734.4246 117.0526 736.6601 138.2891 738.8955 149.0191 743.2546 158.1844 751.1903 161.0904 756.7789 165.4495 769.0737 168.8026 773.5446 174.0559 775.1094 185.6801 773.5446 189.9274 775.78 194.3982 774.327 201.5516 774.6623 204.0106 773.9916 208.3696 772.8739 211.2757 764.7146 209.4873 757.0024 204.9047 751.3021 198.6455 747.6136 196.6337 747.2783 188.6979 745.8253 179.5327 741.6898 176.0678 741.4662 169.138 742.2486 165.7848 741.6898 160.4198 738.5602 142.8717 722.018 154.7195 716.4295 160.5316 714.7529 180.4268 715.7589 186.2389 717.5472 191.3804 721.9063 191.4922 722.018 190.4862 715.3118 187.692 712.6293 186.7978 712.5175 178.0796 712.1822 175.7325 711.288 173.497 709.7232 171.7087 707.5996 170.591 704.47 169.9204 700.4462 169.8086 696.3107 170.4792 693.2928 173.3853 690.1633 177.1855 688.4867 184.7859 687.9278 182.4387 685.4689 176.8502 681.4451 161.4257 676.6389 158.1844 671.9446 156.8431 660.0968 153.0429 652.7199 147.6779 647.802 141.4187 643.4429 137.2832 646.5725 131.5828 648.3608 125.8825 648.3608 121.5234 649.5903 120.741 651.0433 119.1762 651.2669 117.0526 651.2669 115.0407 641.2075 121.4117 636.8484 135.3831 632.6011 137.2832 630.0304 141.5305 629.695 149.0191 631.3716 155.1666 634.7248 156.0607 634.9483 157.7373 634.7248 160.0845 633.7188 162.767 631.3716 161.0904 628.1303 155.3901 620.3063 153.9371 619.0768 152.5958 617.6238 152.1487 615.3883 152.5958 612.5941 153.6018 610.5822 154.7195 609.1292 155.1666 608.0114 154.4959 602.4229 150.2486 588.3397 147.7897 582.3041 149.0191 579.6216 150.4722 577.1626 160.8669 579.5098 169.3615 578.0568 176.9619 573.1388 208.705 534.466 235.7536 494.4519 258.2196 453.5437 271.6321 413.9767 273.5322 403.6937 273.5322 401.0112 277.8913 391.6224 287.2801 320.7595 291.1921 302.6526 291.8627 297.1758 293.9864 285.6634 303.3751 261.2972 305.4988 249.226 305.7223 242.4079 306.6165 233.578 308.2931 226.0893 310.8638 222.848 324.4999 224.9716 326.6235 222.848 328.3001 225.5305 324.947 236.8194 330.2002 243.5256 339.2537 246.2081 347.9718 245.6493 353.0015 242.7432 362.3903 234.5839 367.0847 232.9074 375.9146 231.6779 384.6328 227.8777 429.2295 187.7518 432.4708 183.8398 436.6064 180.3749 446.7776 177.916 451.3602 175.0099 455.9428 165.8447 461.9784 140.5844 466.4493 129.2955 474.2733 120.1303 479.0794 115.8829 487.2387 112.418 490.9272 108.1707 494.3921 103.141 498.4158 99.0055 502.8867 97.3289 513.505 95.5406 521.2172 88.8343 556.7604 74.4158 564.8079 68.7155 569.8376 68.2684 584.7032 60.5562 606.1633 59.5503 630.1941 58.7679 649.754 58.0972 651.9894 58.8796 655.9014 62.4563 658.0251 63.2387 659.9252 62.5681 665.6255 58.0972 698.598 48.4849 750.9069 40.3256 772.8141 44.0141 777.3967 46.1377 781.1969 50.0497 788.6856 80.7868 789.8033 81.2339 795.1683 85.1459 795.6154 86.04 796.6213 86.8224 797.7391 88.6108 799.3039 90.2873 806.3454 92.6345 815.1754 97.6642 819.0873 96.4348 820.9875 98.5584 823.67 99.229 826.2407 98.5584 828.1408 96.4348 829.7056 96.4348 829.7056 99.0055 827.9173 100.4585 827.0231 101.5762 827.0231 103.2528 828.1408 106.2706 828.5879 112.3063 835.2942 116.2183 851.3892 120.3538 853.8482 120.3538ZM1.2576 798.5813L37.1362 786.9571 40.3776 784.2746 43.8425 783.8275 57.9256 792.9927 79.4975 799.1402 86.6508 805.5111 91.3452 807.523 100.2869 807.523 108.6697 809.982 114.0348 809.1996 135.7184 799.8108 138.7362 796.3459 139.8539 789.1925 141.9776 786.0629 146.7837 786.2865 151.9252 788.2983 155.1666 790.3102 156.6196 792.5457 159.0785 798.1342 161.0904 800.2579 163.5494 801.152 168.9144 801.8227 171.1498 803.611 172.6029 804.2816 180.2033 804.8405 184.0035 799.1402 185.4565 797.7989 189.8156 798.3578 194.6218 801.152 194.51 802.6051 192.8334 810.8761 191.604 814.4528 182.8858 826.4123 171.9322 835.1305 144.4365 848.9901 134.3771 856.9259 129.3474 858.4906 103.0812 858.826 100.3987 857.5965 97.0455 853.6845 96.7102 849.996 97.0455 846.084 95.9278 841.3897 91.6805 838.7072 64.6319 829.6537 58.9316 828.6477 53.4548 828.9831 44.6249 830.9949 41.0482 831.2185 37.8068 832.0009 35.4596 834.5716 35.0125 838.5954 35.5714 843.0662 34.9008 846.4194 24.3943 848.0959 17.3527 847.3135 12.2112 844.8546 10.6464 844.1839 5.2814 838.2601 2.1518 829.3184 2.2636 821.0473 3.1578 812.3292 1.2576 798.5813ZM153.6018 687.9278L162.8788 690.4986 167.1261 693.5164 167.5732 699.2167 165.226 702.7934 161.6493 705.3641 157.7373 706.9289 140.6363 710.2821 136.7243 710.0585 128.4532 706.9289 123.6471 703.5758 121.5234 698.7696 120.1822 694.187 116.7173 691.3927 107.9991 687.9278 106.4343 686.4748 105.0931 684.5747 103.193 683.0099 100.2869 682.7864 94.8101 689.3809 93.4689 690.6103 83.5212 691.1692 79.0504 689.7162 76.0326 685.4689 76.7032 673.8447 84.7507 668.5914 103.4165 665.9089 104.3107 665.5736 107.9991 665.9089 110.9052 667.4737 132.1417 668.1443 137.0596 669.1503 140.6363 671.9446 148.9074 682.2275 150.0251 684.1276 151.4781 686.0277 153.6018 687.9278ZM343.3892 169.9802L343.3892 172.2156 347.9718 172.2156 346.407 177.1336 343.501 182.8339 337.3536 192.4462 326.9589 201.0526 321.9292 210.7767 314.4405 213.0121 306.7283 209.7707 302.481 200.382 303.8222 190.7696 308.1813 179.8161 313.6581 170.8744 324.1646 161.8209 329.4178 150.7556 335.0064 141.5903 341.9362 141.9256 342.8304 144.1611 343.2774 146.0612 343.1657 147.8495 341.9362 149.5261 345.0658 154.6675 347.3012 161.262 347.3012 167.0741 343.3892 169.9802ZM340.3714 129.2955L349.7602 117.1124 364.2904 103.6999 379.3795 94.87 390.4449 96.4348 390.4449 99.0055 384.6328 99.0055 381.8385 100.5703 375.3558 103.0293 357.8077 120.1303 353.0015 127.3954 347.3012 132.4251 340.3714 129.2955ZM461.196 51.5028L464.1021 49.2673 497.0746 42.8964 491.8213 50.0497 485.5622 52.2851 472.7085 52.844 473.1556 54.0735 473.6026 56.8678 474.0497 58.0972 471.1437 59.662 461.9784 60.4444 452.0308 64.8035 444.2068 66.8154 413.4697 80.4515 407.0988 80.2279 404.4163 74.6394 406.8752 68.2684 418.8348 64.0211 422.7468 60.4444 427.7765 60.5562 457.5076 54.4088 461.196 51.5028ZM516.7463 37.5314L569.8376 35.4077 578.8911 40.1021 556.9839 45.2436 534.1826 45.2436 528.4823 46.6966 517.7523 51.6145 512.1637 50.2733 508.2517 44.6847 509.593 39.3197 513.3932 36.0783 516.7463 37.5314ZM635.8944 22.3305L657.9133 20.3186 664.0607 22.3305 664.0607 24.9012 661.0429 24.9012 622.9289 37.196 618.5699 42.8964 617.2286 40.5492 617.1168 39.3197 618.5699 37.5314 616.2227 32.5017 621.8112 27.5837 630.0823 23.7835 635.8944 22.3305ZM686.7503 4.4471L689.8799 4 702.0629 9.365 701.057 9.2532 700.2746 9.7003 699.604 10.7063 699.0451 12.1593 691.1094 9.4768 687.1974 7.0178 686.7503 4.4471Z" />
</svg>