<?xml version="1.0" encoding="utf-8"?>
<svg xmlns="http://www.w3.org/2000/svg" viewBox="0 0 1021 587" style="stroke-width:0.25px;stroke-linejoin:round;stroke:#444;fill:#ddd" fill-rule="evenodd">
  <path class="NP" d="M1010.7408 369.7838L1013.7586 370.4545 1015.4352 371.1251 1016.4411 371.9075 1016.7765 373.584 1015.2117 376.2666 1015.8823 381.9669 1014.541 385.5436 1012.7527 389.232 1009.7349 400.968 1002.0227 414.2688 998.8931 421.3103 998.6695 422.8751 998.8931 424.2164 999.4519 427.0107 999.7872 427.5695 1000.905 428.799 1001.1285 429.3579 1000.905 430.5873 1000.2343 431.3697 999.6755 432.0404 999.1166 433.0463 998.1107 436.1759 997.7754 437.7407 997.8871 439.7526 998.446 441.3174 1000.0108 443.9999 1000.3461 445.5647 999.5637 449.0296 996.5459 455.9594 994.6458 460.2067 994.0869 470.0426 992.2986 474.1781 992.075 475.2958 992.2986 476.4135 992.8574 477.5312 994.8693 479.4314 997.1047 484.4611 999.3402 485.9141 1001.2403 486.8083 1002.9168 488.373 1005.4876 492.0615 1008.0583 496.5323 1009.8466 501.4503 1010.9644 503.5739 1013.7586 507.933 1014.8763 510.0567 1015.3234 512.5156 1015.7705 518.5513 1016.8882 524.0281 1017 526.7106 1016.8882 529.3931 1016.3294 532.0756 1014.2057 538.223 1008.6172 549.2883 1006.8288 555.324 1005.9347 558.3418 1005.8229 559.6831 1006.1582 561.4714 1005.1523 567.1717 1001.4638 573.878 996.7694 578.9077 992.8574 579.3548 991.0691 577.6782 987.0453 575.2193 985.257 573.5427 984.4746 572.2014 983.6922 569.7425 983.1333 568.6248 982.798 568.7365 979.7802 566.2776 979.6684 565.7187 977.433 566.2776 973.6328 569.5189 971.5091 569.5189 969.2737 568.2894 967.1501 567.507 965.4735 568.1777 964.6911 571.0837 963.7969 573.2074 961.8968 574.2133 959.8849 573.878 958.2084 572.425 956.1965 571.3073 953.4022 572.3132 952.0609 573.3191 949.0431 575.6663 944.3487 577.79 939.9897 576.5605 931.048 571.419 927.2477 570.7484 923.1122 570.9719 919.0884 572.0897 915.6235 574.2133 914.1705 576.2252 911.8233 581.2549 910.2585 582.5961 908.582 582.2608 903.3287 579.9136 901.7639 578.9077 900.6462 577.0076 899.752 574.8839 898.4108 573.5427 894.6106 574.7722 887.9043 575.5546 884.3276 573.9898 881.5333 570.1895 879.4097 565.6069 878.1802 561.4714 876.7272 554.5416 876.6154 552.1944 876.2801 549.6237 874.8271 549.6237 873.0387 551.1884 869.2385 555.1004 867.6737 556.3299 862.9793 557.8947 859.5144 559.1242 855.6024 561.4714 854.3729 564.601 851.914 567.3953 848.8961 569.4072 845.6548 570.3013 844.5371 570.0778 840.0662 568.4012 838.3897 568.6248 837.4955 569.966 836.6013 571.6426 835.3718 572.6485 833.0246 572.2014 824.3065 566.8364 815.9237 563.0362 813.4647 561.4714 813.3529 561.4714 811.6763 559.4595 809.9998 558.0065 807.9879 556.8888 805.6407 556.3299 801.8405 554.7651 794.1283 550.6296 790.4398 549.2883 789.3221 549.2883 786.6396 549.6237 785.7454 549.5119 784.8513 548.5059 784.7395 546.4941 783.8453 545.5999 781.7217 545.1528 779.0392 545.4881 774.3448 547.1647 771.5505 548.953 770.6563 549.1766 769.4268 548.953 768.6444 548.3942 768.0856 547.7235 767.1914 547.2765 765.2913 546.7176 764.5089 546.6058 764.2854 546.6058 761.4911 546.7176 760.7087 546.4941 760.0381 545.8234 751.4317 540.4584 747.6315 539.2289 743.2724 540.5702 740.2546 540.9055 738.1309 542.2468 729.5245 549.6237 726.842 551.1884 724.8301 551.5238 723.936 550.7414 723.7124 549.6237 723.7124 548.3942 723.4889 547.2765 722.4829 546.3823 721.2535 546.7176 720.024 547.1647 718.9063 546.9411 712.2 541.5761 710.4117 539.3407 709.0704 534.4228 709.9646 524.1398 709.0704 519.3337 707.2821 517.21 697.4462 511.7332 696.105 511.2861 686.2691 515.1981 680.7923 518.1042 676.3215 520.5631 673.9743 521.2338 671.7388 520.5631 669.6152 520.4514 667.4915 522.3515 665.815 524.4751 665.4796 524.8105 663.4678 526.2635 659.1087 527.6047 657.3204 527.7165 645.6961 524.5869 642.1195 520.7867 642.1195 515.9805 641.6724 511.7332 636.7545 509.6096 633.9602 509.9449 626.9186 512.7392 623.6772 512.4039 623.4537 510.6155 623.6772 508.4919 621.5536 507.3741 619.877 507.1506 618.424 506.7035 615.5179 505.1387 614.4002 502.6798 613.7296 499.7737 611.9413 497.0912 609.147 495.4146 602.8878 493.4028 599.9817 491.6144 598.6405 489.379 596.6286 488.9319 594.6167 489.7143 592.9402 490.9438 591.4871 490.9438 576.5098 486.92 574.8332 485.6905 574.1626 482.7845 575.2803 479.5431 577.0686 476.3018 578.2981 473.2839 578.9688 467.6954 578.6334 462.3304 577.5157 457.0771 575.5039 451.9356 572.2625 447.2413 568.574 444.6705 532.6955 438.076 530.013 436.2877 527.6658 432.9345 526.4363 430.3638 524.7597 429.0226 520.9595 429.6932 519.73 429.2461 518.3888 425.893 517.2711 424.5517 514.2532 423.3222 512.912 422.5398 511.6825 421.3103 511.2354 418.7396 509 418.2925 506.541 419.2985 500.1701 427.1224 497.4876 429.0226 493.5756 429.1343 488.5459 428.2402 486.9811 427.6813 486.8693 427.6813 484.075 428.5755 478.2629 428.9108 475.804 429.9167 476.9217 432.1521 480.4983 436.1759 480.8337 437.5172 481.2807 438.9702 481.2807 440.0879 480.0513 440.535 479.2689 441.0938 478.3747 442.4351 478.2629 442.3233 477.5923 441.5409 471.7802 439.529 454.5674 430.1403 445.4022 426.7871 431.7661 424.887 420.0301 424.7752 416.7888 426.0047 416.1182 427.346 415.8946 429.0226 416.1182 430.6991 418.0183 433.2699 417.7947 434.9464 417.0123 436.7348 414.3298 440.7585 412.2062 442.8822 409.7472 444.2234 406.9529 444.447 404.1586 443.441 402.8174 441.988 402.035 439.9761 400.582 437.2936 399.1289 435.6171 392.8697 430.3638 388.2871 428.4637 372.9745 428.5755 365.1505 426.6754 359.3384 423.434 356.2088 422.4281 340.7844 421.3103 337.9901 418.069 336.6488 412.704 335.4194 402.1975 333.8546 396.8325 331.7309 393.2558 330.9485 392.9205 328.266 391.9145 312.5063 395.9383 301.888 397.1678 297.0818 395.7147 290.2638 388.7849 280.6515 383.9788 265.6741 371.5722 260.3091 369.3367 258.1855 368.1073 255.8383 365.6483 253.2675 363.5246 253.1558 363.4129 250.2497 362.5187 243.8788 361.8481 240.1903 363.5246 235.1606 369.4485 232.2546 371.4604 228.7897 371.1251 225.3248 369.1132 221.8598 366.4307 215.7124 362.854 210.6827 357.489 208.0002 355.2536 205.0942 354.2476 198.835 352.7946 196.376 350.8945 196.2642 350.7827 194.6994 348.212 192.1287 346.4237 181.1751 340.7233 179.275 339.1585 178.7162 337.8173 178.6044 336.3642 177.9338 334.3524 176.369 331.7816 174.1336 329.3227 171.451 327.4226 168.6568 326.3048 166.6449 326.6402 165.8625 327.8696 165.4154 329.658 164.1859 331.3345 162.3976 332.2287 160.3857 332.564 159.0444 332.0052 159.3798 329.9933 157.3679 329.4344 156.5855 328.3167 157.0326 327.199 158.9327 326.4166 157.2561 322.9517 149.991 314.5689 148.3144 310.6569 145.7437 302.274 143.1729 298.9209 140.2669 297.3561 127.8603 295.0089 122.0482 293.8912 121.154 292.3264 120.9305 290.5381 120.4834 289.085 119.0304 288.1909 117.1303 288.8615 114.6713 288.7497 112.2123 288.3026 110.2004 287.632 107.8532 285.9554 107.2944 283.9436 107.0708 281.8199 106.0649 279.6963 104.2766 278.9139 99.1351 278.9139 96.8997 278.4668 94.776 277.1255 89.9699 272.0958 87.958 270.7546 84.046 269.6369 81.9223 268.6309 80.5811 266.9543 78.1221 262.26 76.5573 261.0305 71.8629 260.2481 69.7393 259.4657 67.5039 258.348 66.7215 257.2303 66.7215 255.889 66.945 254.6595 66.6097 253.7653 63.9272 253.7653 61.8035 253.6536 59.2328 254.9948 58.0033 257.0067 57.668 259.4657 58.7857 268.5191 58.1151 270.4193 55.6561 269.078 50.4029 262.5953 48.1674 261.254 45.5967 261.1422 43.2495 261.8129 40.7905 262.1482 38.3316 261.1422 36.8785 259.3539 33.5254 252.3123 32.5195 251.4182 30.284 250.8593 29.2781 250.4122 28.2722 249.2945 27.0427 247.0591 26.2603 246.1649 24.1366 244.8237 19.7776 244.0413 17.4304 243.2589 15.642 241.8058 11.3947 236.2173 7.371 233.7583 6.2532 233.5348 4.0178 233.0877 1.6706 231.2993 1 225.4872 1 222.5812 1.4471 220.0105 2.2295 217.6633 3.7943 215.3161 5.6944 213.7513 7.818 212.6336 9.6064 211.2923 10.6123 208.8333 10.277 204.1389 11.2829 197.768 13.7419 192.2912 17.5421 190.3911 19.6658 190.7264 22.3483 190.7264 24.6955 190.0558 26.2603 188.1557 25.925 185.9202 23.8013 179.9964 24.4719 177.8727 26.5956 177.5374 28.1604 178.8787 29.3899 179.1022 31.9606 169.7134 32.5195 166.3603 32.1842 163.6778 31.1782 162.8954 30.0605 163.0072 29.0546 162.7836 28.2722 161.3306 27.378 155.5185 24.8073 150.8241 23.8013 148.3651 24.3602 145.9062 25.7014 144.9002 29.2781 143.6707 30.0605 142.3295 30.3958 140.5411 31.29 139.5352 32.4077 138.7528 33.5254 137.2998 36.0961 135.2879 37.1021 134.1702 37.9963 132.9407 38.108 132.1583 37.7727 131.3759 37.5492 130.4817 37.9963 129.4758 38.6669 128.9169 40.2317 128.1345 41.0141 127.5757 43.8084 124.4461 45.2614 121.4283 45.4849 118.2987 44.2554 114.4985 42.5789 110.6982 41.4612 107.1216 41.3494 103.4331 43.2495 99.4094 46.4909 96.7268 53.9795 94.715 56.662 92.4795 63.033 84.432 65.8273 79.9612 67.3921 74.7079 68.5098 72.249 70.4099 71.243 74.8807 70.5724 77.2279 69.9018 78.7927 68.784 82.0341 65.7662 86.505 62.6366 87.7344 61.2954 91.5347 55.2597 93.2112 53.4714 100.8117 47.6593 103.2706 43.8591 101.5941 40.0589 103.3824 38.3823 105.5061 35.6998 107.5179 34.2468 108.7474 36.0351 109.9769 38.6058 112.1006 39.0529 120.4834 36.2586 121.4893 36.1469 122.8306 37.3763 124.3954 39.7235 125.8484 42.5178 127.4132 47.2122 130.3193 52.0184 131.3252 54.2538 132.5547 60.6248 132.5547 60.8483 134.2312 62.1895 137.5844 61.2954 140.4904 61.2954 146.3025 63.9779 149.0968 63.419 150.4381 61.4072 150.2145 57.2716 151.8911 56.1539 154.1265 55.4833 155.356 54.4773 155.4678 54.2538 156.0266 53.0243 156.4737 50.7889 156.2502 49.8947 155.2442 47.6593 155.356 46.5416 156.6972 45.5356 158.5974 45.4239 160.6092 45.5356 162.2858 45.3121 164.2977 43.8591 165.7507 41.959 166.6449 39.5 167.2037 35.0292 168.7685 32.3466 169.2156 31.0054 169.1039 29.7759 168.3215 27.4287 168.0979 26.1992 167.9861 21.1695 168.4332 18.8223 169.7745 16.8105 170.3333 14.7986 170.1098 12.4514 170.4451 10.5513 172.9041 9.7689 175.2513 10.7748 179.8339 15.2457 182.2928 16.6987 185.646 17.1458 186.9872 16.6987 188.4403 11.1101 188.9991 9.8806 190.0051 9.3218 192.3523 8.8747 194.0288 8.0923 194.6994 6.8628 195.0348 5.6333 195.8172 4.7392 198.7232 4.4039 201.4057 5.1862 216.6066 12.2278 219.2891 12.8985 222.0834 12.4514 224.7659 11.4454 227.4484 10.9983 232.8134 13.3455 237.0607 13.0102 239.5197 13.4573 240.6374 14.2397 242.0904 16.3634 242.9846 17.1458 244.2141 17.3693 245.4436 16.9222 246.673 16.3634 247.7908 15.9163 253.044 15.581 255.9501 15.9163 257.9619 16.9222 258.5208 19.1576 257.0678 27.4287 257.5149 31.2289 258.8561 33.7997 261.0915 35.3645 264.4447 36.5939 266.3448 38.3823 265.6741 41.1766 262.7681 46.6534 262.8799 48.6652 263.774 51.6831 264.8917 54.5891 266.1212 56.1539 268.5802 56.601 270.8156 55.7068 273.1628 55.2597 278.7514 58.8364 281.3221 59.2835 283.8928 59.2835 286.6871 59.9541 287.6931 60.8483 289.1461 63.3073 290.2638 64.0897 292.2757 64.425 294.1758 64.0897 296.0759 64.0897 297.976 65.3191 299.6526 67.5546 301.6645 69.5664 303.8999 71.243 306.2471 72.4725 312.2827 74.3726 314.5182 75.6021 324.1305 87.6734 326.2541 89.2382 327.5954 89.1264 330.1661 88.344 331.3956 88.4558 332.8486 89.3499 332.9604 90.5794 332.2898 92.0325 331.9545 93.709 333.0722 96.168 340.6726 102.0919 343.0198 105.7803 344.3611 107.0098 345.9259 107.7922 347.3789 108.351 348.7201 109.2452 349.5025 110.9218 351.2909 113.6043 353.8616 112.5983 356.7677 110.4747 359.2266 109.4688 360.3443 110.0276 362.1327 112.1513 363.2504 112.9337 364.4799 113.0454 367.2741 112.7101 368.7272 112.9337 375.7688 119.1928 376.7747 120.6459 378.563 124.1108 379.7925 125.2285 381.6926 125.1167 382.3633 123.5519 382.6986 121.54 383.3692 119.9752 384.2634 119.6399 387.5047 118.7458 390.4108 118.4105 391.9756 118.5222 393.4286 119.0811 395.1052 120.4223 395.5523 121.2047 395.9993 123.1048 396.3347 123.6637 397.3406 124.3343 399.4642 125.005 400.3584 125.5638 403.2645 128.5816 404.2704 130.4817 404.6057 132.6054 404.1586 133.8349 403.3762 134.6173 402.8174 135.5114 402.5938 137.2998 404.6057 140.3176 412.6532 138.641 416.0064 142.1059 416.3417 144.6767 416.0064 146.8003 416.2299 148.5887 420.0301 151.7183 420.3655 153.3948 420.1419 155.0714 420.8125 157.0833 422.2656 158.5363 423.8304 159.3187 425.1716 160.3246 426.2893 164.3484 427.6306 165.5779 431.0955 167.0309 433.3309 168.5957 434.5604 170.7194 435.6781 176.0844 435.9017 179.214 436.237 180.667 437.1311 181.7847 438.5842 182.4553 441.8255 182.9024 443.1668 184.0201 444.6198 184.9143 449.6495 185.8085 451.5496 185.9202 453.4497 185.1378 453.5615 185.0261 454.5674 183.0142 455.1263 180.5552 456.0205 178.208 458.5912 175.7491 461.609 174.6314 464.7386 174.5196 467.8682 174.8549 470.7743 174.5196 476.3628 171.7253 479.2689 170.8311 480.163 170.384 481.2807 168.4839 481.9514 167.7015 485.8634 166.6956 488.2106 166.3603 489.7754 166.3603 491.3402 166.6956 492.4579 167.3662 493.2403 168.4839 493.5756 170.384 495.1404 169.4899 496.7052 169.0428 498.1582 169.3781 499.2759 170.9429 500.9525 172.6195 503.1879 172.2842 505.5351 171.2782 507.7705 171.39 508.8882 172.7312 509.6706 176.6432 510.5648 178.208 512.2414 178.5433 514.2532 178.3198 515.9298 178.5433 516.7122 180.5552 515.9298 182.9024 514.2532 185.1378 513.0238 187.485 513.8062 190.2793 516.6004 192.9618 517.2711 193.9678 517.7182 195.309 518.5006 199.8916 521.2948 201.5682 524.0891 202.4624 525.4304 204.3625 522.4125 216.5455 524.648 220.3458 525.8774 222.3576 532.2484 226.0461 540.743 227.8344 542.3078 228.5051 543.5373 229.6228 545.6609 233.0877 548.2317 235.4349 549.3494 236.6644 551.2495 243.2589 552.8143 245.9414 555.9439 246.9473 558.8499 246.8355 560.9736 247.7297 562.9855 248.9592 565.4444 249.8534 572.3743 251.0828 573.492 251.7535 574.7215 254.2124 575.5039 255.2184 577.9628 256.1125 580.31 256.6714 581.8748 257.7891 581.2042 264.3836 582.769 265.6131 588.4693 265.8366 590.9283 267.0661 594.1696 270.8663 596.2933 272.6547 597.9699 273.3253 599.4229 273.4371 606.3527 272.99 607.8057 273.3253 609.9294 273.9959 611.2706 274.2195 612.5001 273.7724 613.5061 272.8782 615.0708 269.5251 615.7415 268.6309 619.5417 266.619 620.6594 266.2837 621.6653 265.8366 622.5595 264.7189 623.789 262.1482 624.5714 261.0305 625.4656 260.1363 628.2598 259.5774 630.7188 260.4716 635.4132 263.8248 641.4488 265.7249 642.343 267.4014 641.0018 274.5548 640.5547 275.6725 639.884 277.0138 638.8781 277.6844 636.7545 278.5785 636.0838 279.5845 635.8603 280.4787 635.8603 283.1612 635.0779 285.0613 631.8365 286.9614 631.0541 288.4144 632.0601 296.1266 632.0601 298.9209 631.613 303.1682 631.3894 304.9565 632.2836 307.0802 635.0779 308.7568 638.2075 308.7568 640.6664 307.5273 643.1254 306.9684 647.0374 310.6569 649.3846 311.6628 651.8436 312.2217 653.8554 312.3334 655.532 311.8864 658.9969 310.3216 660.4499 310.098 662.0147 310.8804 663.2442 312.1099 664.4737 313.1158 666.7091 313.3394 668.6092 312.4452 671.5153 309.2039 673.1919 308.0861 675.3155 308.0861 677.2156 308.7568 680.7923 310.5451 683.4748 310.098 686.3809 310.098 689.2869 310.4333 691.9694 311.104 694.5402 312.8923 696.2167 314.5689 697.7815 314.5689 701.2464 309.3156 702.1406 308.5332 704.8231 307.5273 705.7173 306.7449 705.829 305.5154 705.829 304.1741 706.1644 302.9447 707.9527 302.6094 708.5116 305.7389 708.7351 311.9981 710.747 315.6866 713.0942 318.7044 715.8884 321.3869 719.1298 323.5106 724.6066 325.9695 727.2891 327.6461 729.1892 329.7697 729.6363 331.3345 730.1952 334.4641 732.4306 337.3702 732.6541 338.7114 732.5424 340.0527 732.5424 341.7293 733.5483 344.9706 734.8895 346.9825 739.2486 350.8945 740.8134 353.4652 740.8134 356.1477 740.2546 359.0538 740.1428 361.9598 741.5958 365.4248 743.8312 366.3189 749.5316 365.6483 752.6612 365.9836 753.1083 365.9836 754.0024 365.7601 755.679 364.9777 759.591 361.0657 760.3734 360.5068 760.2616 358.942 759.591 357.9361 758.8086 357.1537 758.138 356.036 758.138 354.4712 758.4733 353.2417 758.4733 352.124 757.3556 350.8945 757.3556 350.7827 756.1261 349.8886 755.9025 349.1062 756.1261 348.212 756.1261 347.0943 756.6849 344.6353 756.7967 343.8529 756.4614 342.847 755.0084 340.7233 754.7848 339.2703 765.7384 327.9814 768.1974 328.4285 769.4268 331.2228 769.6504 334.6877 768.868 337.5937 767.7503 339.9409 768.0856 341.2822 768.9798 342.2881 769.8739 343.9647 770.7681 347.9884 771.5505 349.7768 773.4506 350.7827 773.5624 350.8945 776.0213 351.5651 778.5921 351.9004 780.9393 352.4593 783.0629 354.0241 785.969 357.7125 787.1985 358.6067 788.4279 358.8303 789.4339 358.4949 790.4398 357.9361 791.5575 357.7125 792.6752 358.2714 796.9226 361.8481 799.3815 362.854 801.0581 362.7422 805.6407 360.2833 808.3232 358.8303 809.9998 356.8184 810.7822 354.1359 810.7822 350.8945 810.6704 348.3238 811.4528 346.759 812.5705 345.3059 813.4647 343.4058 813.8 341.2822 813.8 339.0468 814.1353 336.9231 815.3648 335.3583 817.3767 335.023 819.0532 336.2525 820.7298 337.8173 822.7417 338.7114 824.53 338.2644 827.3243 335.8054 828.8891 335.023 831.1245 335.1348 833.5835 336.1407 835.8189 337.5937 837.6073 339.2703 838.1661 340.9469 837.6073 345.1942 838.6132 347.0943 842.4134 348.4355 851.1316 347.9884 854.5965 350.7827 854.5965 350.8945 855.7142 354.2476 857.7261 356.5948 860.4086 357.8243 863.6499 358.1596 867.3384 357.489 868.9032 357.0419 869.6856 356.8184 871.8092 356.9301 874.9388 358.8303 878.8508 363.0776 885.6689 372.0193 890.5868 374.7018 893.8282 374.9253 900.1991 374.1429 907.3525 376.043 910.2585 374.3664 913.0528 371.7957 916.5177 370.5662 919.2002 371.3486 918.6414 373.2487 917.1883 375.7077 917.1883 377.8314 919.4238 377.7196 930.4891 374.59 935.2953 373.3605 937.4189 373.137 939.8779 373.8076 940.5485 374.59 940.9956 375.7077 941.6662 376.8254 942.6722 377.6078 944.7958 377.7196 948.596 375.5959 950.4961 375.0371 953.514 375.5959 955.8612 376.4901 958.5437 377.6078 961.785 377.2725 965.4735 375.4842 968.4913 372.8017 970.8385 369.4485 972.7386 365.5365 974.1916 363.3011 975.5329 363.0776 977.9919 364.4188 987.8277 364.8659 989.0572 365.313 991.7397 366.6542 993.3045 366.9895 994.8693 366.6542 998.2224 365.313 999.6755 365.2012 1002.5815 366.0954 1007.9465 369.1132 1010.7408 369.7838Z" />
</svg>