<?xml version="1.0" encoding="utf-8"?>
<svg xmlns="http://www.w3.org/2000/svg" viewBox="0 0 906 1024" style="stroke-width:0.25px;stroke-linejoin:round;stroke:#444;fill:#ddd" fill-rule="evenodd">
  <path class="NU" d="M534.8813 9.9239L673.8129 26.1307 688.2314 52.5087 840.6872 476.2332 901.6025 600.2992 826.6041 628.4656 777.6483 674.2917 681.6369 789.9749 458.2063 945.5604 417.5216 924.2121 374.6014 942.319 278.1429 1020 261.3772 964.4497 218.6806 939.5248 158.9948 936.2834 91.2615 945.5604 108.2507 927.0064 122.1103 906.664 139.0996 886.7688 167.9365 867.7677 143.0116 773.321 131.2756 747.8372 1.3975 704.8053 16.0395 602.9817 131.2756 421.6889 122.1103 389.2752 102.5504 359.2088 87.4613 327.2422 91.2615 285.6634 109.8155 256.044 130.605 250.4554 155.0828 248.1083 186.3788 225.9776 294.7968 9.9239 467.3715 4 534.8813 9.9239Z" />
</svg>