<?xml version="1.0" encoding="utf-8"?>
<svg xmlns="http://www.w3.org/2000/svg" viewBox="0 0 667 1024" style="stroke-width:0.25px;stroke-linejoin:round;stroke:#444;fill:#ddd" fill-rule="evenodd">
  <path class="NZ" d="M10.6182 1014.3762L10.2873 1014.9551 9.8738 1016.6092 10.2046 1017.3535 10.4527 1018.1805 10.6182 1019.0903 10.6182 1020 10.1219 1019.7519 9.7911 1019.2557 9.2949 1018.0151 8.7987 1017.767 6.8138 1018.346 6.8138 1017.767 9.6257 1014.7897 10.6182 1014.3762ZM53.2926 952.6802L53.9543 951.5223 55.2775 950.6953 56.518 950.5299 57.0969 951.605 56.3526 952.2667 55.0294 953.2591 53.7888 953.6726 53.2926 952.6802ZM69.1715 916.7046L68.5926 917.3662 67.7656 917.6143 67.0212 917.3662 66.6904 916.2911 66.9385 915.216 67.5175 914.7197 68.3445 914.5543 69.0888 914.8024 69.7504 915.3814 69.1715 916.7046ZM117.3871 912.5695L118.2141 914.3889 117.5525 916.043 116.3946 917.3662 115.8984 918.1105 116.1465 917.2835 115.8157 916.5392 115.1541 915.7949 114.7406 914.8024 115.5676 914.7197 116.3946 914.3062 117.0562 913.6446 117.3871 912.5695ZM96.0498 937.7937L98.4482 939.5305 99.1925 940.2748 99.2752 940.771 98.8617 941.0191 98.2828 941.1018 97.8693 941.1018 97.6212 940.8537 97.2077 939.7786 96.7941 939.4478 95.5536 939.3651 95.2228 939.944 95.6363 941.9289 94.9747 942.3424 93.0725 941.5153 93.7341 942.7559 89.6817 942.7559 86.2909 943.3348 84.885 943.9964 81.4942 947.2218 80.5018 948.5451 79.7574 949.124 78.765 949.124 77.8553 948.6278 77.1109 947.9661 76.2839 947.5526 74.2991 947.8834 73.5547 947.718 73.0585 946.8083 72.7277 945.6505 72.2315 945.0716 71.1564 946.064 70.1639 946.3121 69.7504 946.5602 69.7504 946.891 69.4196 948.8759 68.5099 948.2142 65.7807 950.4472 64.1267 951.0261 65.1191 952.1013 66.8558 951.7705 70.1639 950.4472 69.5023 952.0186 68.9234 953.0937 67.1867 954.9131 67.1867 952.9283 66.525 953.011 65.5326 954.0034 64.7056 955.1613 63.7131 955.7402 61.8937 956.1537 59.9915 956.3191 58.9164 955.9056 58.5856 954.4169 58.9991 952.3494 59.6607 950.3645 60.2396 949.124 60.8186 948.6278 61.8937 948.4624 62.9688 947.5526 64.871 946.5602 63.9613 945.8986 63.9613 945.1543 64.2921 944.3272 64.6229 943.3348 64.5402 942.0943 64.2921 941.1845 64.2921 940.2748 64.7056 939.1997 65.2845 938.3726 65.8634 937.8764 67.1867 936.9667 68.0964 936.6359 68.758 936.884 69.4196 937.2148 70.1639 937.2975 71.0737 936.2224 70.9083 934.2375 70.4947 932.17 70.7429 930.4332 71.4045 930.0197 72.9758 930.0197 73.7201 929.3581 74.6299 927.7867 74.9607 926.877 75.0434 925.8019 74.7953 923.9824 74.051 922.2457 72.2315 919.4338 71.9007 918.6068 72.1488 917.8624 72.5623 917.2835 72.7277 916.7046 72.7277 916.2084 72.645 915.7949 72.4796 915.4641 72.2315 915.0505 71.9834 914.4716 72.0661 914.0581 72.3142 913.6446 72.3969 913.2311 72.7277 910.9154 73.472 909.7576 74.7126 909.4268 76.3666 909.3441 77.8553 909.8403 78.6823 910.0057 79.3439 909.5922 80.1709 908.8479 80.7499 908.6825 83.3136 910.0057 84.3888 910.9154 85.2985 911.9906 90.1779 918.9376 91.005 919.6819 91.9147 920.3435 92.659 921.0878 92.9898 922.163 93.6514 922.4111 94.892 923.1554 95.5536 924.1478 94.4785 925.223 95.6363 925.8019 95.6363 926.2981 94.2304 926.7943 89.2682 926.2981 89.6817 925.223 86.6217 925.0575 85.5466 925.6365 86.1255 927.1251 85.9601 928.0348 83.3136 931.8392 84.6369 931.6737 86.539 929.1927 87.7796 928.5311 88.3585 928.7792 89.8471 929.937 91.2531 930.2678 93.4033 931.2602 93.1552 931.8392 92.9898 932.2527 92.7417 932.5835 92.2455 932.8316 92.2455 933.4105 92.9071 933.4105 95.8844 932.3354 96.546 932.2527 97.2904 931.8392 97.7039 931.7565 97.8693 932.0873 98.0347 932.6662 98.4482 933.2451 98.9444 933.6586 99.3579 933.9067 99.1098 934.7337 98.779 936.7186 98.6136 937.2975 98.0347 937.6283 97.3731 937.5456 96.7114 937.3802 96.0498 937.2975 96.0498 937.7937ZM14.6706 824.4913L15.663 825.3184 16.4073 826.807 16.9035 828.6265 16.9862 830.2805 16.8208 832.0173 16.1592 833.2578 15.2495 833.9194 14.009 834.0848 13.9263 833.6713 13.5127 832.927 13.0165 832.5135 12.6857 833.9194 12.1895 834.2502 11.6933 834.2502 11.2798 834.0848 10.949 833.2578 10.7009 831.7691 10.5354 830.1151 10.6182 829.2881 9.7911 827.7994 8.8814 827.8821 5.4906 831.9346 4.5809 832.5962 3.423 833.0097 3.7538 831.9346 4.2501 830.5286 4.9117 829.2881 5.5733 828.7092 5.656 828.4611 6.3176 827.3032 6.7311 826.1454 7.3928 825.98 8.7987 825.98 13.1819 824.4913 14.1744 824.4086 14.6706 824.4913ZM28.9781 789.2601L29.4743 791.9893 30.3013 794.6357 32.2862 799.846 30.4667 800.2595 29.7224 800.0114 28.8127 799.019 27.903 798.44 26.7451 798.0265 25.67 797.5303 25.1738 796.4552 24.5949 795.4628 24.5122 794.8011 25.0084 794.553 24.9257 794.2222 25.2565 793.4779 28.5646 788.1849 28.5646 788.5158 28.73 788.7639 28.8127 788.9293 28.9781 789.2601ZM433.8895 485.163L434.7992 485.2457 434.9646 485.8247 434.8819 486.6517 435.0473 487.6441 434.6338 488.5538 434.303 490.7041 433.8895 491.6138 433.1451 492.1101 432.1527 492.1928 431.1603 492.1101 430.1678 492.1101 429.4235 492.5236 428.0176 493.7641 427.5214 494.0949 426.6943 494.2603 423.8825 494.0949 424.1306 493.8468 424.7922 493.2679 424.9576 493.1025 425.5365 493.1025 426.8597 493.1852 427.356 492.8544 430.1678 489.629 431.0776 490.6214 432.3181 490.1252 433.2278 488.9674 433.1451 487.6441 432.4835 487.9749 431.8219 487.8922 431.243 487.396 430.9122 486.6517 431.9046 486.569 432.5662 486.0728 433.2278 485.4939 433.8895 485.163ZM401.3047 470.6901L401.9663 470.3593 402.2971 469.7804 402.3798 469.0361 402.049 468.2917 401.4701 468.9534 401.3047 469.2015 400.9739 468.3744 400.8912 467.4647 400.9739 466.555 401.3047 465.8107 402.1317 466.555 402.7933 467.4647 403.5376 468.0436 404.6955 468.2917 404.6955 467.7955 404.0339 467.2166 403.3722 466.4723 402.9587 465.5626 402.7933 464.322 402.9587 463.2469 403.6204 460.5177 403.9512 459.9388 404.1993 460.0215 404.282 460.6004 404.4474 461.1793 405.0263 461.3447 405.2744 460.3523 405.5225 459.6907 406.0187 459.3599 406.763 459.7734 406.8457 460.8485 406.6803 462.1718 406.9284 463.3296 407.342 462.668 409.0787 462.0891 409.9057 461.3447 408.0863 461.3447 409.3268 460.2696 409.823 459.6907 410.3193 458.8637 410.8982 456.7961 411.1463 456.3826 411.3944 457.4577 411.3944 458.4501 411.229 459.4426 410.6501 461.3447 410.9809 462.0891 411.1463 462.5853 410.8982 462.7507 410.5674 462.9988 409.7403 463.9085 409.4922 464.322 409.3268 465.0663 409.1614 466.9685 408.8306 467.7955 408.5825 467.8782 407.5074 467.7955 407.1766 467.9609 406.5149 468.8707 406.1841 469.2015 404.8609 469.6977 404.4474 469.9458 404.282 470.442 404.1166 470.9382 403.9512 471.269 403.2068 471.7652 402.4625 472.0961 401.6355 472.1788 400.9739 471.7652 401.1393 471.5171 401.222 471.269 401.222 471.0209 401.3047 470.6901ZM344.7362 645.5232L345.067 646.5156 344.7362 648.335 344.4881 650.2372 344.4054 654.2069 343.9919 654.6204 343.6611 655.6956 343.8265 657.2669 344.8189 661.981 346.3902 666.4469 346.2248 667.6874 345.5632 666.7777 344.9016 666.695 344.6535 667.1912 345.067 668.1836 345.894 668.8453 349.2848 669.755 347.7135 670.4993 344.0746 670.7474 342.5032 671.2436 341.0146 672.6496 341.6762 673.2285 343.1648 673.4766 344.4054 673.8074 345.4805 672.3188 347.5481 671.8225 349.5329 671.8225 350.36 671.988 350.6081 673.1458 351.1043 674.2209 351.6832 674.8825 351.8486 674.5517 352.1794 672.6496 352.5929 670.7474 354.0816 671.6571 354.4124 672.3188 354.4951 673.5593 354.3297 675.6269 354.4951 676.1231 355.2394 675.875 355.7356 675.2961 356.1491 674.3863 356.5626 673.642 357.307 673.3112 358.134 673.3939 358.961 673.7247 359.5399 674.3863 359.788 675.3788 361.3594 673.642 362.021 673.3112 362.1864 674.6344 362.848 675.3788 363.5923 675.9577 364.254 676.8674 364.254 677.4463 364.1713 678.1079 363.9232 678.6042 363.8405 679.0177 364.0059 679.4312 364.4194 680.2582 364.5848 680.589 364.8329 682.6566 364.6675 684.8895 364.1713 686.9571 363.5096 688.8593 362.848 687.8668 361.5248 689.6036 360.5324 689.3555 360.1188 691.0095 360.1188 691.5057 359.7053 690.8441 359.2091 690.7614 358.7129 691.0095 358.2994 691.5057 358.0513 690.5133 357.307 688.8593 357.1416 687.8668 357.1416 686.709 357.307 686.0474 357.2243 685.4685 356.5626 684.476 356.2318 683.4836 356.3972 682.3258 356.3145 681.416 355.6529 681.0852 354.7432 681.416 354.4124 682.1604 354.5778 683.0701 355.2394 683.7317 354.4951 685.7166 354.4124 687.7841 354.9913 689.8517 356.728 692.5809 356.5626 692.7463 355.2394 692.4982 351.6832 692.4982 350.9389 692.0847 349.6983 690.5133 348.4578 690.9268 347.7962 690.4306 346.6383 688.8593 344.4881 686.6263 344.4881 685.6339 345.4805 684.2279 344.5708 684.3106 343.0821 685.0549 338.6162 685.6339 337.0449 686.4609 333.9022 686.7917 329.1054 688.5284 326.8724 688.8593 326.3762 688.6112 326.6243 687.7841 327.1206 687.2052 327.8649 686.8744 329.2708 686.709 337.5411 683.8144 338.3681 683.7317 339.1951 683.4836 338.7816 682.9047 337.2103 681.9123 336.5486 681.7468 334.8119 681.995 333.9022 681.5814 333.4886 681.1679 332.827 680.0928 332.4135 679.5966 330.9249 678.8523 329.5189 679.1004 328.113 679.6793 326.5416 680.0101 325.6319 680.8371 325.1357 682.7393 324.8876 684.9722 324.8876 686.7917 325.053 687.9495 325.1357 688.363 324.9703 688.7766 324.3087 689.6863 323.7298 689.9344 319.1811 690.6787 318.5195 690.5133 317.4444 690.9268 316.4519 692.0847 313.9709 692.9117 312.813 693.9041 307.1066 696.6333 296.6033 704.4073 294.9493 704.6554 294.0396 704.49 293.2125 704.5727 292.4682 705.0689 288.4158 707.8808 286.4309 708.377 285.6039 708.7079 284.9423 709.2868 284.3634 710.0311 283.7018 710.61 282.2131 711.0235 280.7245 712.0987 280.1455 712.3468 279.2358 712.6776 278.2434 713.8354 277.6645 714.4143 277.3337 715.0759 275.9277 715.6549 275.1834 716.1511 271.8753 719.79 270.5521 720.5343 269.4769 720.1208 268.6499 720.6997 267.9883 721.1959 267.5748 722.023 267.4094 722.7673 264.4321 728.2256 264.184 729.1354 264.184 733.5186 263.9359 734.9245 263.1915 736.0824 261.6202 737.9845 261.4548 738.6462 261.4548 739.5559 261.2894 740.3002 260.6278 740.631 260.2142 740.7137 258.6429 741.7061 259.8007 743.1948 260.1315 745.8413 260.1315 751.6304 260.7105 755.3521 260.7932 756.6753 260.5451 758.0812 259.8834 758.7429 259.1391 759.1564 258.6429 760.0661 260.1315 760.3142 260.7105 762.2164 260.6278 764.6974 260.2142 769.2461 259.6353 770.8174 258.9737 771.9753 258.5602 772.9677 257.9813 774.1255 257.8159 775.2834 254.0943 782.3131 248.057 788.5985 245.0797 795.0492 243.7565 800.5903 243.0121 802.2444 242.3505 804.1465 243.1775 805.1389 244.0873 806.0487 244.0046 807.8681 241.937 810.2665 241.4408 811.3416 241.4408 812.1687 241.6062 812.9957 241.7716 813.9881 241.0273 815.3941 239.4559 816.4692 238.3808 817.7097 238.7943 819.6119 238.1327 820.5216 237.4711 821.0178 236.7267 820.9351 235.7343 820.1908 235.817 821.0178 235.9824 821.8449 236.4786 823.3335 235.5689 824.1605 234.9073 824.4913 232.9224 824.4086 231.8473 824.8221 231.8473 825.6492 232.6743 826.3935 233.9149 826.5589 232.5916 829.4535 232.1781 829.867 231.5992 830.0324 230.8549 830.4459 229.7797 831.4383 229.2835 831.6037 228.9527 831.521 228.7046 831.521 228.6219 832.1827 228.6219 832.927 228.7046 833.3405 228.87 833.5059 229.3662 833.5886 230.1932 833.8367 230.9376 834.3329 231.6819 834.4983 232.3435 833.5886 233.3359 834.4156 234.8246 835.16 235.8997 835.987 235.9824 837.0621 234.99 837.8064 232.3435 838.3026 231.1857 838.9643 230.1932 840.6183 229.7797 841.1145 229.2835 841.2799 228.7046 841.4453 228.1257 841.6934 227.4641 843.6783 225.3965 845.0842 224.9003 846.4075 225.8927 845.9113 227.8776 845.3324 229.5316 843.9264 232.0127 842.934 232.757 842.1897 233.584 840.3702 234.2457 839.4605 234.99 838.9643 235.6516 838.7989 236.3132 838.3853 236.8921 837.3102 237.4711 838.3026 237.6365 839.5432 237.4711 843.8437 236.9748 844.8361 236.2305 845.2497 234.99 845.3324 233.9149 845.2497 233.6667 845.4151 233.0878 845.8286 232.8397 846.3248 232.8397 846.9037 232.757 847.3172 221.4268 848.5578 216.7127 850.1291 212.6603 853.1064 209.5176 857.7377 208.6906 859.5572 208.4425 860.4669 208.2771 862.8653 207.7809 864.3539 207.6982 865.0155 207.2847 866.7523 206.2922 868.2409 205.0517 869.3988 203.8939 870.1431 200.9993 871.3836 199.676 872.2934 198.5182 873.6993 197.5258 875.188 196.5333 876.3458 188.9247 881.8042 187.0225 884.4506 186.2782 888.5858 186.4436 890.736 186.1955 891.563 184.6242 892.142 183.3836 893.2171 182.8874 893.4652 181.9777 893.2998 180.1582 892.5555 179.2485 892.3901 178.2561 892.5555 176.6847 893.2171 175.775 893.4652 176.6847 893.8787 181.068 894.0441 179.9928 896.856 178.2561 898.0138 176.2712 898.7582 174.4518 900.3295 173.7074 900.2468 172.3015 899.6679 170.7302 899.2544 169.655 899.8333 168.9107 900.4949 166.0161 902.2317 166.3469 902.5625 166.9258 903.5549 167.174 903.8857 165.6853 904.3819 163.8659 903.803 162.2118 903.6376 161.2194 905.5398 160.0615 904.63 159.7307 904.4646 157.8286 904.1338 156.8361 904.2165 156.0918 904.7127 155.0167 905.9533 154.3551 906.4495 153.6934 906.6149 151.7913 906.863 151.047 906.7803 150.3026 906.036 150.5508 904.4646 150.3853 903.5549 150.3026 903.4722 149.641 903.3068 149.1448 903.8857 149.1448 905.6225 148.4832 906.2014 148.4005 906.6149 148.2351 906.9457 147.9043 907.1938 146.2502 907.1938 145.2578 906.863 144.6789 906.1187 144.3481 905.3744 143.9346 904.9608 143.2729 905.0435 143.2729 905.7052 143.4383 906.6976 143.1902 907.69 141.7016 908.5998 139.8821 908.1035 137.98 907.1111 136.4913 906.6149 134.6719 906.6976 133.6794 906.5322 133.1005 905.5398 131.6946 900.5776 131.6119 899.8333 131.2811 898.9236 130.5368 898.9236 128.9654 899.5025 123.3416 900.5776 121.4395 900.5776 121.9357 899.7506 122.5973 899.5025 123.3416 899.3371 124.086 898.9236 123.0108 898.2619 121.6049 897.9311 118.8757 897.8484 119.2892 899.0063 120.0335 899.6679 120.3643 900.3295 119.62 901.1565 119.8681 901.4046 120.1989 901.9836 120.3643 902.2317 117.4698 903.2241 108.0417 902.2317 108.7033 900.8257 109.0341 900.4122 109.4476 900.0814 110.2746 899.8333 112.1768 899.8333 112.8384 900.0814 113.4173 900.9911 114.9887 901.3219 115.9811 900.8257 114.7406 899.5025 113.1692 898.8409 108.3725 898.9236 106.2222 897.5176 105.0644 897.2695 104.6509 898.6755 104.9817 900.3295 106.6357 902.4798 107.2974 903.8857 105.8087 903.6376 103.8239 901.1565 102.5833 900.5776 102.3352 900.2468 102.2525 899.5025 101.9217 898.7582 100.5158 898.2619 100.1022 897.8484 99.8541 897.1041 99.7714 896.1944 101.4255 895.6982 102.0044 895.6982 102.5833 895.8636 102.666 896.1117 102.666 896.4425 102.9141 897.0214 103.3276 896.5252 106.1395 894.0441 106.6357 891.9766 106.3049 889.4128 105.2298 887.5106 103.9066 887.5106 104.3201 889.4955 103.7411 891.3976 102.7487 892.5555 101.5909 892.3901 100.9293 891.3149 99.8541 888.0068 96.8768 882.5485 96.0498 881.556 94.4785 881.1425 89.1028 882.135 88.3585 882.5485 88.2758 883.4582 88.4412 884.3679 88.3585 884.7814 87.5315 884.5333 86.6217 884.1198 85.6293 883.789 84.9677 884.0371 83.3136 883.789 82.2385 883.789 81.825 884.5333 81.4942 885.4431 80.8326 885.6085 80.1709 885.5258 79.592 885.2777 78.8477 884.8641 78.4342 884.7814 78.0207 885.0295 77.1937 885.7739 76.9455 885.9393 76.2839 885.6085 75.7877 885.1123 75.2088 884.2852 74.6299 884.0371 74.1337 883.2928 73.3893 881.8869 72.8104 881.3079 71.5699 880.5636 70.9083 879.9847 71.6526 879.5712 72.3969 879.2404 73.0585 878.7442 73.5547 877.7517 70.8256 874.0301 69.4196 871.7972 69.4196 870.1431 68.5926 869.4815 66.3596 869.2334 65.2845 868.9026 62.7207 867.1658 61.8937 866.9177 55.6083 866.2561 55.1948 866.4215 54.864 867.0004 54.7813 868.2409 54.6159 868.9026 53.9543 870.1431 53.7888 871.2182 53.6234 872.2107 53.2926 873.4512 52.631 874.3609 51.804 874.609 49.9018 874.5263 49.0748 874.7744 47.4208 875.8496 46.5937 876.1804 45.5186 876.015 43.2029 875.188 42.0451 875.1053 41.1354 875.3534 40.7219 875.6015 40.391 875.9323 39.9775 876.0977 39.7294 875.8496 39.4813 875.3534 39.2332 875.1053 38.6543 874.9398 35.0981 873.2858 34.1884 873.2858 33.2786 873.4512 32.2862 873.4512 28.5646 872.3761 21.1214 872.5415 17.3998 871.9626 14.3398 869.6469 12.6857 867.4139 12.4376 866.6696 12.7684 866.1734 14.3398 865.4291 14.9187 865.0155 16.9862 862.6172 18.8884 859.9707 20.377 856.2491 21.2868 854.6777 22.3619 854.0161 24.016 853.6026 26.497 851.535 27.8203 850.708 27.8203 850.2118 26.6624 850.3772 23.3543 852.3621 20.956 853.2718 19.6327 854.0161 18.8884 855.0085 18.6403 855.9183 18.8057 856.4972 18.9711 856.9934 18.8884 857.7377 18.6403 857.9031 16.9035 859.8053 16.8208 860.1361 16.6554 860.0534 16.2419 859.3918 16.2419 858.9783 16.49 858.3993 16.49 857.7377 15.8284 857.1588 15.1668 859.6399 13.43 860.6323 9.4603 861.542 9.4603 860.1361 9.6257 858.8956 10.1219 858.3166 10.949 858.8129 11.1971 856.3318 11.776 854.595 12.8511 853.3545 14.3398 852.3621 17.6479 851.6177 19.0538 850.8734 19.9635 849.1367 18.1441 850.0464 16.2419 850.708 15.4149 850.6253 14.4225 850.2945 13.5954 849.881 13.43 849.3848 16.4073 845.6632 16.9035 844.8361 16.9862 844.2572 16.4073 843.6783 15.8284 843.761 15.2495 844.2572 14.6706 844.8361 14.5052 845.167 14.2571 845.6632 14.0917 846.2421 14.009 846.6556 13.0165 847.3999 12.6857 847.7307 11.1971 850.2118 10.949 850.9561 10.2046 851.8659 4.9944 853.4372 4.2501 853.8507 2.9268 855.2567 2.5133 855.5875 2.1825 855.174 1.6863 854.2642 1.4382 853.2718 1.4382 852.6102 1.6036 851.7004 1.6036 850.708 1.2728 849.1367 1.2728 842.0243 1.6863 840.2048 2.5133 839.4605 6.0695 838.9643 9.8738 838.9643 9.4603 839.4605 9.8738 840.0394 11.1971 838.8816 12.8511 838.3853 16.2419 838.3853 17.6479 838.1372 20.5425 837.0621 22.0311 836.814 23.6851 837.0621 24.4295 837.0621 25.0084 836.4832 25.5046 835.9043 26.0008 835.4081 27.0759 834.581 29.7224 833.4232 30.8803 832.5135 31.5419 830.8594 29.2262 831.7691 28.3992 831.9346 24.5122 831.4383 19.3846 832.927 18.0614 832.5135 19.1365 830.1978 19.7981 829.3708 20.7079 828.7092 23.6024 827.8821 24.5122 827.1378 19.2192 827.8821 18.3095 827.634 17.896 825.8146 17.896 824.0778 18.5576 822.7546 19.7981 822.2584 21.2868 821.9276 24.016 820.4389 25.5873 820.1908 28.4819 821.1832 29.9705 821.2659 31.2111 820.1908 29.3089 820.1908 28.4819 819.9427 27.8203 819.033 31.3765 817.9578 32.9478 816.7173 33.444 814.7324 26.1662 818.6195 21.7003 819.5292 18.6403 821.2659 18.0614 821.3486 16.9035 821.6794 16.2419 821.7621 15.2495 821.5967 14.836 821.3486 14.1744 819.86 14.1744 818.7022 16.2419 814.2362 17.1516 809.6049 17.7306 808.3643 20.2116 807.0411 22.8581 808.1989 25.5046 809.9357 27.8203 810.5146 27.2414 808.6125 26.3316 806.7103 25.5046 806.0487 24.843 807.8681 23.8505 807.0411 21.7003 805.8833 20.7079 805.2217 20.0462 804.3119 19.7981 803.4022 20.1289 802.4925 20.8733 801.1692 22.7754 799.1844 23.9333 798.2746 24.5122 798.5228 24.9257 799.846 25.9181 800.8384 28.2338 801.9136 27.7376 802.3271 27.2414 802.8233 26.9105 803.4022 26.7451 804.1465 28.4819 803.8984 29.9705 803.1541 31.4592 803.0714 33.0305 804.6427 33.444 805.3871 33.6921 806.0487 33.5267 806.793 33.0305 807.8681 31.6246 808.9433 31.0457 809.6876 31.5419 810.0184 33.3613 809.9357 34.023 809.5222 34.7673 808.6952 35.0981 807.62 35.3462 806.6276 35.7597 806.2141 37.2484 807.62 37.91 808.0335 38.4889 808.6952 38.8197 810.5146 39.8121 813.1611 40.0602 812.913 40.2256 812.6649 40.6392 812.9957 41.3008 813.3265 41.7143 813.74 41.3835 811.1762 38.5716 807.4546 33.0305 801.9136 33.8575 800.8384 34.7673 800.3422 40.3083 798.6882 41.3008 798.7709 41.8797 799.3498 42.7894 801.2519 43.6164 801.9136 44.6089 802.3271 45.7667 802.3271 46.7591 801.9136 47.3381 800.9211 46.4283 800.5903 44.5262 800.673 43.7818 800.1768 43.2029 799.3498 43.0375 798.9363 43.2029 797.4476 43.451 796.6206 43.9473 796.2898 43.9473 796.2071 41.8797 796.2071 39.8121 797.1995 38.4062 797.613 33.9403 798.0265 33.0305 797.4476 32.9478 796.4552 32.4516 794.8838 32.1208 793.3952 31.1284 792.4855 30.8803 791.6584 30.7149 788.1849 31.1284 786.8617 32.2862 786.0347 33.9403 786.1174 35.2635 787.0271 37.4138 790.0044 37.9927 790.5833 38.9024 790.9141 39.8121 790.9141 40.2256 790.3352 39.8948 789.839 37.91 788.1849 35.9251 785.5385 34.7673 784.546 33.444 784.4633 35.5943 780.9071 36.9175 779.5839 38.1581 779.9147 40.2256 783.3882 40.3083 784.546 40.2256 785.5385 40.3083 786.4482 40.97 787.1098 41.2181 786.0347 41.0527 784.4633 41.3008 783.8844 42.1278 783.4709 45.4359 783.8844 44.6089 782.892 41.5489 781.7341 40.391 780.9898 39.4813 779.7493 38.8197 778.426 38.737 777.1855 39.4813 775.945 40.8046 775.4488 42.2105 775.8623 43.6164 776.6066 45.1051 777.0201 46.2629 777.599 47.5862 778.7569 48.8267 779.5012 49.571 778.5915 48.4959 778.3433 41.9624 774.4563 41.3008 773.7947 41.5489 772.7196 42.4586 771.6444 45.1878 769.2461 46.0975 768.8326 47.1726 768.5845 48.4132 768.5018 48.1651 768.1709 47.5862 767.3439 47.3381 766.9304 51.5559 764.4493 53.2926 764.2839 54.037 766.6823 54.2851 767.0131 54.6159 767.5093 55.0294 768.0055 55.1948 768.7499 55.0294 769.4942 54.5332 770.9828 54.4505 771.7271 54.864 772.8023 55.5256 773.5466 55.9391 774.539 55.5256 775.945 57.5932 776.1931 58.5856 776.0277 58.3375 775.2007 58.1721 774.7871 57.924 774.2082 57.8413 773.6293 57.8413 773.0504 57.6759 772.5542 56.518 771.479 56.3526 770.652 56.518 769.5769 56.518 768.3363 56.1045 767.1785 55.691 766.4342 54.9467 763.9531 54.7813 762.9607 55.4429 760.3142 57.0969 758.6602 59.0818 758.3293 60.8186 760.0661 61.1494 761.0585 60.984 761.6374 60.5705 762.1337 60.0742 763.2915 59.8261 764.6974 59.9915 765.8553 60.4877 766.6823 61.4802 767.5093 61.5629 765.7726 62.0591 764.6147 62.638 763.5396 63.0515 762.2164 62.9688 760.645 61.4802 759.0737 61.1494 757.6677 60.5705 756.6753 60.405 756.0964 61.4802 755.6002 62.0591 755.0212 62.638 754.6904 63.2169 755.1039 64.2921 756.5926 65.1191 757.5023 66.1942 758.0812 67.6002 758.4947 66.6904 757.9985 64.6229 755.3521 63.2169 754.1115 62.9688 753.2845 63.3823 752.2094 64.2921 751.465 67.1867 750.638 67.5175 750.1418 68.0137 749.0667 68.2618 748.5705 68.6753 748.3223 69.585 748.0742 69.9985 747.7434 71.5699 746.0067 73.1412 745.3451 74.7953 745.6759 77.1937 747.9088 79.0131 748.984 79.7574 749.811 81.4115 753.2018 81.825 752.3748 81.9077 751.2169 81.825 749.9764 81.4115 749.0667 81.0807 748.7359 79.9228 747.9915 78.4342 746.4202 78.1034 746.1721 77.8553 746.0894 77.5245 745.924 77.2764 745.3451 77.1937 744.7661 77.2764 742.6986 76.9455 740.5483 76.6147 739.3905 76.2012 738.4807 77.4418 736.5786 81.9904 731.451 83.5617 729.9624 85.5466 728.6392 86.9525 726.9024 86.6217 724.3386 91.5839 724.3386 92.0801 724.0905 92.7417 722.7673 92.7417 721.6094 92.5763 721.3613 92.0801 720.6997 90.7569 720.1208 90.7569 719.6246 93.3206 718.7149 94.3131 718.0532 96.2979 715.7376 99.7714 713.4219 101.9217 711.2716 103.6584 708.956 103.7411 708.4597 103.8239 707.7154 103.9893 706.723 104.4028 705.8133 104.9817 705.2344 105.5606 704.6554 106.2222 704.2419 106.8838 703.9938 106.4703 703.8284 105.3952 702.9187 106.4703 702.3398 107.5455 702.0917 110.9363 701.8435 112.9211 701.3473 114.8233 700.4376 115.8984 699.6106 116.3946 699.0317 117.1389 698.6182 118.5449 698.7836 119.0411 698.5354 120.447 697.2122 121.3568 697.7911 122.1838 699.1144 123.3416 700.3549 125.9054 700.6857 129.0481 699.6933 132.0254 697.8738 135.3335 694.5657 137.8146 692.829 138.8897 691.7538 139.8821 691.0095 143.3556 689.1074 144.1827 688.2803 144.5135 687.6187 144.5135 686.8744 144.7616 686.2955 145.1751 685.882 146.6637 684.8895 147.16 684.7241 148.2351 684.1452 150.3026 681.6641 151.2951 681.0852 152.3702 680.6717 156.3399 677.9425 159.0691 677.0328 160.5578 676.2058 161.2194 675.1306 161.4675 674.5517 162.0464 673.9728 162.708 673.4766 163.2869 673.3112 164.6929 673.1458 165.1891 673.2285 165.6853 673.3112 166.1815 673.2285 166.7604 672.7323 167.5875 671.988 169.8204 671.3263 171.6399 669.8377 173.8729 670.3339 175.0307 670.2512 177.9253 667.9355 179.0004 667.6874 179.9101 667.0258 181.7296 664.2139 182.5566 663.2215 182.8874 662.3945 182.8874 661.4847 184.0453 660.1615 185.4512 659.9134 186.0301 659.1691 186.1128 658.1766 186.4436 656.5226 187.6015 655.1166 188.7593 654.1242 196.1198 650.4853 196.7814 649.3275 197.2777 647.3426 198.4355 646.9291 199.2625 646.1848 199.7587 644.9442 200.1722 643.8691 200.7512 643.4556 202.0744 642.8767 203.3976 641.8015 204.142 641.4707 205.0517 641.3053 205.7133 641.4707 206.8711 642.2151 207.4501 642.3805 211.0063 636.674 209.2695 636.3432 207.9463 637.9145 206.7057 639.8994 205.3825 640.8091 206.4576 637.501 208.2771 635.3508 209.683 634.2756 210.2619 633.1178 210.2619 632.5389 214.3144 632.2908 215.4722 631.7118 215.8857 631.2156 215.4722 630.554 216.4646 629.727 217.209 628.6519 218.036 627.9902 219.2765 628.5691 219.4419 627.2459 220.0208 626.9978 220.3516 626.4189 222.5846 625.0956 227.4641 623.2762 229.5316 621.6221 231.2684 621.374 232.1781 621.2913 232.757 621.2086 233.1705 620.6297 233.9149 619.8027 234.4938 619.3065 236.4786 618.314 237.4711 617.1562 239.4559 614.2616 240.4484 613.6827 241.3581 612.8557 246.0721 604.7508 246.7337 604.0065 247.23 603.7584 248.3878 603.3449 249.3802 602.6006 249.7937 601.6908 250.6208 600.2849 251.117 599.6233 251.6959 599.3752 252.5229 598.7963 253.4326 597.3903 254.8386 594.8265 255.831 594.1649 259.718 586.1428 260.8759 584.8195 261.4548 583.6617 261.6202 581.346 261.951 579.6093 264.5975 575.4742 265.7553 572.1661 267.244 561.2493 268.2364 558.5201 268.4018 556.8661 268.9807 555.1293 269.3115 554.4677 271.131 552.1521 271.958 550.9115 272.4542 549.1748 273.4466 544.6261 274.191 543.1375 274.6872 540.7391 275.845 537.9272 275.4315 537.1002 275.1007 537.6791 274.8526 537.1002 274.7699 536.6867 274.6872 533.2959 275.5142 532.6343 278.8223 533.1305 282.6266 532.5516 283.619 532.6343 284.0326 532.6343 286.7617 531.4764 291.8893 528.0856 293.2952 526.5143 293.7915 526.1008 294.6185 525.9354 295.3628 526.0181 295.859 525.8527 296.2725 524.1986 296.686 523.7024 297.1823 523.3716 297.7612 522.7927 298.5055 521.6348 300.5731 517.0035 300.8212 516.6727 301.0693 516.59 301.2347 516.3419 301.3174 514.8532 301.4001 514.6878 301.5655 514.5224 301.8963 514.2743 302.3098 513.6127 302.5579 512.9511 302.806 512.1241 302.806 511.297 303.4676 510.2219 304.8736 508.9814 306.5276 507.9889 307.6028 507.4927 307.4374 506.8311 307.3547 506.1695 307.5201 505.4252 308.2644 504.0192 308.3471 503.1922 308.3471 501.6208 308.5952 499.8841 308.8433 499.1398 309.3395 499.3879 309.5876 499.2225 310.0838 498.8917 310.7455 498.6435 311.4071 498.5608 310.3319 496.576 310.0011 495.6663 309.5049 487.6441 309.6703 486.7344 310.1665 485.0803 310.2492 484.4187 309.9184 480.6144 309.9184 472.7577 309.5876 470.5247 309.5876 469.2842 310.0838 468.7053 310.7455 468.6225 311.2417 468.4571 311.6552 468.0436 312.3168 466.555 313.64 464.8182 313.8055 464.4047 313.9709 463.6604 314.0536 463.3296 314.3844 462.9988 314.7979 462.9161 315.1287 462.9161 315.5422 462.7507 315.7076 462.4199 315.873 462.0063 316.1211 461.5101 316.4519 461.3447 316.5346 461.3447 317.279 461.3447 317.6925 461.3447 318.4368 460.6004 319.9254 459.608 320.5871 459.3599 320.8352 459.1118 323.647 456.8788 329.1054 450.0972 331.5038 447.7815 333.4886 446.9545 332.6616 449.3529 332.5789 450.1799 333.3232 450.428 333.5713 450.0972 333.9022 449.4356 334.3157 448.9394 335.2254 449.4356 335.7216 449.1875 336.1351 448.8567 336.5486 448.5258 336.3005 447.4507 337.9546 446.7064 338.0373 446.0448 337.3757 445.3004 337.2103 445.0523 336.4659 445.714 335.7216 446.2102 334.8946 446.2929 334.233 446.0448 336.3832 443.3156 338.8643 442.0751 349.6983 441.4961 353.1718 441.9923 356.4799 442.9021 358.2994 443.0675 356.9761 443.5637 345.2324 442.654 344.3227 442.8194 343.7438 443.5637 343.2475 445.0523 342.6686 447.8642 342.1724 449.2702 341.3454 449.9318 341.8416 451.5031 341.5935 451.9993 340.7665 452.0821 339.8567 451.9993 340.6011 453.9015 340.9319 454.1496 341.8416 454.4804 342.0897 454.8112 342.0897 456.0518 341.4281 458.202 341.7589 459.3599 342.0897 459.0291 343.2475 458.3674 343.9919 460.435 345.894 462.3372 350.6081 466.1415 351.2697 466.3896 352.014 466.0588 353.3372 465.0663 353.5853 464.9009 354.3297 464.8182 354.4951 464.6528 354.4124 463.6604 354.4951 463.3296 355.4048 462.5026 355.8183 462.5026 356.3972 463.3296 357.0589 462.2545 357.8032 461.5928 358.6302 461.6755 359.3745 462.7507 359.6226 463.6604 359.7053 464.322 359.3745 465.8107 359.7053 466.4723 359.6226 467.0512 358.961 467.7955 359.8707 467.9609 360.6978 467.8782 361.3594 468.1263 362.021 469.2015 361.8556 469.615 361.2767 472.7577 361.4421 474.0809 361.6075 474.7425 361.5248 475.2387 360.8632 476.2312 359.6226 477.5544 358.2994 478.6295 358.7956 478.9604 359.2091 479.1258 359.6226 479.0431 360.1188 478.6295 360.7805 482.2685 360.8632 483.4263 361.194 484.5014 361.7729 485.4112 362.1864 486.4036 362.021 487.6441 361.7729 486.8998 361.4421 486.4036 361.0286 485.9074 360.5324 485.6593 360.1188 488.223 360.2842 488.8847 361.194 489.7944 361.4421 490.2906 361.6075 491.1176 362.021 491.1176 362.5999 490.2079 363.0134 491.1176 363.5096 494.0949 364.1713 496.0798 364.254 496.6587 363.9232 497.0722 363.0134 497.5684 362.7653 498.0646 363.1788 499.1398 364.0886 499.8014 365.3291 500.0495 367.8929 500.0495 369.0507 499.8841 370.0431 499.3052 372.1107 497.5684 374.0129 496.4106 374.9226 495.3354 376.9902 492.3582 380.381 488.9674 381.7869 488.3884 382.3658 487.396 382.9447 487.1479 383.2755 487.396 383.3582 487.8922 383.1928 488.5538 382.9447 489.1328 384.8469 488.3057 385.7566 487.6441 386.5009 486.8998 387.4107 485.163 387.8242 484.6668 388.3204 484.5841 388.8166 484.9149 389.2301 484.9149 389.7263 484.1706 389.1474 483.3436 389.6436 482.3512 390.6361 481.5241 391.3804 481.1106 392.3728 481.5241 393.1998 482.4339 393.7788 483.7571 393.8615 485.163 394.1923 485.163 394.5231 484.4187 394.7712 484.2533 395.0193 484.4187 395.3501 485.163 396.0944 484.6668 395.3501 482.9301 396.0944 482.1031 397.5831 481.6068 398.9063 480.9452 399.3198 480.1182 399.2371 479.3739 398.8236 478.8777 398.162 478.6295 396.0117 480.1182 395.6809 479.9528 395.6809 478.9604 395.7636 478.5468 396.5906 477.389 397.0869 476.9755 398.3274 476.3966 398.9063 475.9831 399.4852 475.6523 402.2144 475.2387 402.5452 474.9079 403.7858 473.0058 405.109 472.0961 404.8609 475.4042 406.1841 475.735 406.4322 475.4042 408.0863 473.7501 408.169 473.3366 408.3344 472.4269 408.4171 472.1788 408.7479 472.0133 409.4922 471.7652 412.2214 470.2766 412.6349 470.1939 413.2965 470.1939 413.9582 470.3593 414.4544 470.6901 415.0333 472.5923 414.0409 472.9231 411.3944 472.1788 411.8079 473.1712 411.4771 473.6674 410.8982 474.1636 410.6501 475.2387 410.0711 474.9906 409.4922 474.9079 408.9133 475.156 408.4171 475.735 408.7479 476.1485 408.8306 476.3966 409.0787 476.562 409.4922 476.7274 408.5825 477.5544 406.8457 478.1333 405.109 478.216 404.3647 477.389 403.5376 477.3063 401.9663 477.5544 401.1393 478.2987 402.4625 479.7047 401.6355 480.2009 401.1393 480.7798 401.1393 481.3587 402.049 481.6895 401.8836 482.5993 401.5528 483.4263 401.0566 484.1706 400.5604 484.6668 400.9739 485.2457 401.6355 485.4112 402.2144 484.9976 402.4625 483.9225 403.7031 482.0204 403.7858 481.6895 407.342 481.0279 409.2441 480.9452 410.6501 481.6895 410.0711 481.6068 409.5749 481.7722 409.3268 482.1858 409.1614 482.9301 408.996 483.5917 408.5825 483.509 408.0863 483.2609 407.6728 483.1782 407.4247 483.0955 407.0112 482.8474 406.6803 482.7647 406.5149 483.4263 406.5976 483.6744 406.8457 484.0879 406.9284 484.4187 406.8457 485.0803 406.5976 485.4112 406.2668 485.4112 405.7706 485.163 405.4398 486.8171 404.6128 487.3133 403.7858 487.5614 403.2068 488.6365 404.0339 488.6365 405.0263 489.1328 405.8533 489.8771 406.1841 490.8695 406.1014 491.6138 405.5225 493.2679 405.4398 494.0949 404.7782 494.9219 403.2068 495.749 400.2295 496.6587 400.395 497.4857 400.7258 498.0646 401.222 498.3954 401.7182 498.5608 407.5074 495.17 409.4922 494.5911 409.4922 494.0949 408.7479 493.8468 408.0036 493.8468 407.342 493.7641 406.9284 493.1025 409.2441 492.8544 410.402 492.8544 411.229 493.3506 412.1387 493.6814 413.4619 493.516 414.7852 493.1025 415.6122 492.6063 415.2814 492.4409 414.4544 491.6138 417.6798 491.8619 419.2511 491.4484 420.409 490.1252 414.289 490.2906 413.2965 490.6214 413.2138 490.8695 413.2138 491.1176 413.0484 491.4484 412.5522 491.6138 412.2214 491.6138 411.9733 491.5311 411.7252 491.3657 411.3944 491.1176 411.8079 490.1252 408.9133 491.3657 407.4247 491.3657 406.9284 489.1328 407.2593 487.9749 407.8382 487.3133 408.4998 486.8171 409.1614 486.1555 409.3268 485.742 409.1614 485.2457 409.1614 484.8322 409.5749 484.6668 410.0711 484.5841 410.3193 484.336 410.402 483.9225 410.3193 483.1782 412.2214 483.5917 411.6425 484.7495 411.4771 485.9074 411.8079 488.1403 412.8003 486.4036 413.2138 484.9976 413.9582 484.1706 415.6122 484.1706 414.7025 482.7647 414.4544 482.0204 415.3641 480.5317 415.3641 479.4566 414.9506 478.7123 414.0409 478.6295 413.7101 479.3739 413.4619 480.5317 413.1311 481.276 412.3868 480.9452 410.7328 479.0431 410.3193 478.216 412.2214 478.216 411.8079 477.3063 411.7252 476.562 412.056 476.3139 412.883 476.7274 413.0484 475.156 413.9582 475.5696 415.943 477.6371 417.1009 478.4641 418.2587 478.795 419.2511 478.4641 420.0781 477.1409 421.0706 478.1333 421.9803 477.7198 422.4765 476.562 422.3111 475.2387 423.1381 475.4869 423.9652 476.3139 424.6268 477.389 424.9576 478.4641 424.9576 479.2912 424.8749 479.7874 424.6268 480.1182 423.4689 480.2836 423.1381 480.6144 423.2208 481.0279 423.4689 481.6895 424.4614 482.5166 425.4538 482.1858 426.4462 481.1933 427.5214 479.7047 429.7543 477.4717 430.4987 477.1409 430.9122 478.1333 430.4987 479.3739 427.6868 483.9225 427.356 484.5841 427.356 485.9901 427.1906 486.6517 427.0252 486.4863 426.1981 486.8998 425.5365 487.4787 425.7019 487.6441 425.4538 487.8095 424.9576 488.1403 424.4614 488.1403 424.2133 487.396 424.2133 484.4187 424.0479 484.0879 423.6344 484.5841 423.2208 485.4939 423.0554 486.1555 422.2284 485.8247 422.2284 486.4036 422.6419 487.396 423.0554 488.1403 424.2133 489.3809 424.6268 490.0425 424.9576 491.1176 424.7095 491.283 423.9652 491.5311 423.7998 491.6138 423.7998 491.4484 422.7246 492.1101 422.2284 492.6063 421.9803 493.1025 421.5668 493.4333 420.8225 493.5987 417.9279 493.5987 416.5219 494.0949 415.6122 495.0873 414.9506 494.6738 414.289 494.5084 413.7101 494.8392 413.2965 495.5836 412.4695 495.2527 411.4771 495.5009 410.4847 496.1625 409.7403 496.9068 409.5749 497.7338 410.8155 497.6511 412.3868 497.2376 412.9657 496.9068 414.1236 497.2376 414.9506 496.9068 415.6949 496.2452 416.6873 495.5836 417.349 495.5836 417.9279 495.749 418.5068 495.8317 419.5819 495.0873 420.6571 494.8392 421.236 494.5911 421.8149 495.3354 422.5592 495.9971 423.3035 496.4933 423.9652 496.6587 424.7095 496.4933 425.4538 495.749 426.0327 495.5836 427.5214 495.4182 428.6792 494.8392 430.9122 493.1025 430.2505 494.9219 429.3408 496.6587 428.9273 497.1549 427.8522 498.1473 427.356 498.8917 427.1079 499.5533 426.8597 500.2976 426.5289 500.8765 424.7922 501.29 423.4689 502.3652 422.7246 502.6133 422.9727 501.8689 423.8825 500.2976 423.9652 499.8841 423.4689 499.636 422.3111 500.7938 421.5668 500.6284 421.9803 499.5533 420.409 500.7111 419.3338 502.4479 418.4241 504.5981 417.4317 506.5003 416.1084 508.3197 415.8603 509.1468 415.943 510.5527 416.5219 512.7857 416.6046 513.8608 416.2738 515.0186 417.2663 515.2667 417.9279 516.1765 418.176 517.1689 418.0106 517.5824 418.176 517.8305 418.8376 518.244 419.4165 518.0786 419.6646 516.59 419.4165 516.2592 418.9203 514.7705 418.7549 513.6127 419.4992 514.2743 422.5592 519.4846 422.6419 520.5597 422.89 521.4694 423.1381 522.2138 423.4689 523.537 423.4689 524.364 424.6268 528.3337 424.9576 528.83 425.4538 530.1532 426.6943 530.8148 428.0176 530.9802 429.0927 530.6494 428.7619 532.3862 424.8749 539.9121 423.8825 541.318 417.5971 548.1823 413.2965 552.731 411.7252 555.3775 410.9809 557.0315 410.6501 558.5201 410.7328 560.7531 410.5674 562.1591 410.0711 562.8207 409.7403 563.565 409.3268 564.4747 409.2441 564.8055 408.169 566.2115 407.1766 568.1963 406.1014 569.1888 403.6204 570.8428 402.4625 571.9179 400.7258 574.7298 400.395 574.9779 400.0641 575.0606 399.2371 575.0606 398.7409 576.3012 398.4928 576.7974 397.9139 577.3763 397.335 577.7898 396.9214 578.3687 396.8387 579.5266 397.0042 580.2709 397.9139 581.4287 398.3274 582.0904 397.9966 582.6693 397.5831 583.1655 396.4252 581.6768 395.8463 581.2633 394.9366 581.0979 394.275 581.346 393.1171 582.3385 392.5382 582.5866 391.8766 583.1655 388.982 586.7217 387.9069 589.5336 386.9972 592.759 385.7566 595.4882 383.3582 596.8114 383.3582 597.3076 383.6891 597.3903 383.9372 597.473 384.1853 597.6384 384.5161 597.8038 380.2155 607.0665 379.6366 609.6303 378.8096 611.2843 377.7345 612.6076 376.0804 613.4346 375.9977 614.2616 376.2458 615.6676 376.1631 616.4946 376.2458 616.9081 376.2458 617.4043 375.8323 618.314 375.3361 618.893 374.8399 619.1411 374.5091 619.5546 374.3437 620.6297 374.1783 621.1259 373.5993 621.6221 371.2837 623.1108 370.6221 623.3589 369.1334 623.607 366.8177 624.7648 366.4869 625.5092 366.3215 626.3362 366.0734 626.9978 365.6599 627.494 363.0134 629.5616 355.5702 631.381 353.7508 632.2908 352.3448 634.1102 348.127 637.2529 347.3 638.6589 346.0594 641.8015 344.8189 643.8691 344.4881 644.448 344.7362 645.5232ZM476.9775 178.2541L478.218 177.5925 478.4661 177.7579 479.045 178.5022 479.5412 179.412 479.1277 179.7428 478.3007 179.9909 477.7218 180.5698 477.6391 181.2314 478.0526 182.6374 478.1353 183.299 477.9699 183.7952 477.7218 183.9606 477.0602 183.8779 476.6466 183.8779 475.4888 184.2914 474.4137 184.4568 473.1731 184.2914 470.9402 183.3817 471.3537 182.8855 470.1958 181.7276 469.6169 181.6449 468.9553 182.2239 468.3764 182.472 468.211 181.6449 468.2937 180.4871 468.7899 179.6601 469.2034 179.6601 471.9326 179.6601 472.5115 179.9909 473.0077 180.6525 473.5867 181.066 474.5791 180.3217 476.9775 178.2541ZM514.1109 170.3147L513.7801 170.4801 513.4492 170.5628 513.0357 170.5628 512.7049 170.5628 512.4568 170.5628 512.0433 170.3974 511.3817 170.0666 511.2163 169.9012 511.299 169.6531 511.4644 169.3223 511.5471 169.1569 511.5471 168.9088 511.5471 168.6606 511.4644 168.4125 511.1336 168.1644 510.6374 168.0817 510.2239 167.7509 509.9757 167.0066 511.4644 166.5931 511.7952 167.0893 512.3741 168.9088 513.0357 168.9915 513.4492 169.2396 513.8628 169.6531 514.1109 170.3147ZM459.7753 154.4358L460.437 154.0223 461.3467 154.3531 462.091 155.0974 462.3391 156.0899 462.7526 157.6612 462.6699 158.3228 461.7602 158.6536 459.858 158.5709 459.2791 158.3228 460.1061 157.7439 460.1061 156.9169 459.6099 155.2628 459.7753 154.4358ZM475.158 139.7975L475.3234 140.2937 475.8196 140.7899 476.2331 141.5342 476.2331 142.3613 475.7369 142.9402 474.9099 143.271 474.0002 143.3537 473.2558 143.3537 472.1807 141.865 473.0077 140.5418 474.4137 139.7975 475.158 139.7975ZM497.2396 147.0753L498.232 148.5639 498.7282 148.8947 497.6531 151.2104 497.1569 151.7066 496.3298 151.7893 495.9163 151.2931 495.7509 150.4661 495.7509 149.5564 495.4201 148.8947 494.6758 149.0602 493.8488 149.5564 493.2698 149.5564 493.0217 148.8947 492.8563 147.158 492.6909 146.5791 492.2774 146.2483 491.7812 146.2483 490.458 146.5791 490.7061 146.0002 490.6234 145.5867 490.458 145.1731 490.0444 144.6769 488.8039 145.0904 487.2326 144.4288 485.992 143.0229 485.6612 141.4515 487.0672 143.1883 487.4807 143.3537 487.9769 142.7748 487.9769 141.9477 487.8115 141.038 488.0596 140.2937 488.4731 139.1359 487.7288 138.5569 486.6536 137.978 485.992 136.8202 487.6461 136.8202 488.3904 136.5721 488.9693 135.9105 487.8942 134.7526 487.6461 133.4294 488.3077 132.3543 489.7136 132.1888 490.2926 132.3543 490.7061 132.7678 491.1196 133.4294 491.2023 134.2564 491.4504 134.6699 493.1044 135.9105 492.0293 136.4067 492.112 137.2337 492.939 137.978 494.345 138.8877 495.7509 139.4667 496.2471 139.6321 496.7433 139.8802 496.4952 140.4591 495.999 141.1207 495.7509 141.6996 495.5028 142.6921 495.2547 143.4364 495.172 144.2634 495.9163 145.4212 496.1644 145.6694 496.4125 145.9175 496.7433 146.0002 497.0742 146.0829 497.2396 146.1656 497.2396 146.4964 497.1569 146.7445 497.2396 147.0753ZM311.7379 4L311.986 4 312.3995 4 312.3995 4.2481 312.2341 4.4962 311.7379 4.4962 311.7379 4.7443 311.9033 5.1578 311.9033 5.3232 312.0687 5.4886 311.9033 5.4886 311.6552 5.5713 311.3244 5.654 310.9936 5.4059 310.7455 5.0751 310.4147 4.7443 310.1665 4.4962 310.0011 4.0827 310.1665 4 310.3319 4 310.6628 4.1654 311.3244 4.2481 311.6552 4.0827 311.7379 4ZM574.5664 377.6498L574.9799 378.8077 575.3107 378.8077 575.6415 379.2212 576.5512 379.7174 577.9572 380.7925 578.3707 381.1233 579.0323 381.6195 580.0247 381.6195 581.8442 381.3714 583.581 381.8676 583.4155 382.8601 582.4231 384.266 581.8442 386.0028 581.5961 386.499 581.0172 387.0779 580.3556 387.4914 579.115 387.9876 578.7015 388.8147 577.461 393.5287 577.461 393.7768 577.461 394.1076 577.5437 394.5211 577.461 395.0173 577.2129 395.1827 576.3858 395.5136 576.055 395.7617 575.3107 397.1676 573.4912 403.3703 572.3334 406.2649 571.5891 407.5054 571.341 408.167 571.341 409.0768 571.4237 410.8962 571.341 411.3924 571.2583 411.7232 570.5967 412.7984 570.4313 413.1292 569.5215 415.6103 568.1983 418.2567 565.9653 421.4821 563.6497 423.7151 563.1534 423.8805 562.6572 423.6324 562.161 423.0535 561.6648 422.7227 561.0859 423.2189 559.6799 425.2037 559.1837 426.3616 559.0183 427.7675 559.3491 427.1886 559.8453 426.6924 560.3416 426.3616 560.9205 426.2789 557.3643 433.474 556.7853 438.6015 555.8756 440.2556 554.5524 440.3383 553.1464 440.0075 552.0713 440.3383 548.9286 445.5486 545.6205 448.8567 545.207 449.7664 545.1243 450.5107 544.8762 451.3377 544.5454 452.0821 543.4702 454.1496 543.1394 454.3977 542.2297 454.5631 541.8162 454.8112 541.4854 455.4729 539.3351 460.9312 538.0946 462.9988 536.1924 467.7955 535.2827 471.1863 534.4557 472.5923 531.8092 473.7501 530.6514 475.0733 529.6589 476.7274 529.08 478.216 527.3433 484.8322 526.1854 487.5614 520.6444 495.3354 512.2914 502.2825 510.2239 504.4327 507.4947 506.4176 504.352 508.0716 492.2774 517.5824 488.5558 519.0711 487.6461 519.7327 485.8266 521.8002 484.9169 522.2138 480.7818 522.5446 479.872 522.1311 479.3758 519.8154 478.5488 519.0711 478.7969 517.9959 478.5488 517.1689 478.0526 516.4246 477.7218 515.5149 477.6391 514.5224 478.5488 509.0641 478.3007 508.3197 477.7218 507.8235 471.1883 505.2597 469.6996 505.0943 468.2937 505.4252 467.0532 506.3349 464.324 509.2295 463.8278 509.643 463.2488 509.8084 462.3391 509.5603 461.1813 508.6505 460.437 507.9062 460.2716 507.3273 461.0159 505.9214 460.9332 504.6808 460.5197 503.3576 460.5197 501.6208 460.9332 500.0495 462.091 497.2376 462.3391 495.3354 461.7602 493.7641 460.2716 493.2679 458.7002 493.5987 457.5424 494.0949 456.7153 494.8392 456.0537 495.5009 455.5575 496.4106 455.2267 497.5684 457.7905 498.23 458.6175 498.9744 458.2867 500.6284 457.8732 501.2073 457.377 501.7035 456.798 501.7862 456.2191 501.3727 455.6402 501.1246 454.9786 501.6208 454.317 502.2825 453.5726 502.6133 451.0916 502.1171 448.4451 500.7111 446.3775 498.6435 445.8813 496.0798 446.5429 494.6738 447.5354 494.0949 450.0164 493.5987 450.9262 492.8544 452.9937 490.2079 454.3997 488.9674 455.7229 485.8247 456.5499 485.163 457.7905 484.5841 458.4521 483.7571 459.031 483.7571 459.7753 485.6593 460.437 484.9976 460.7678 484.336 460.6851 483.5917 460.5197 482.5993 460.1888 482.4339 459.5272 481.5241 459.1137 480.6144 459.5272 480.1182 460.1888 479.8701 461.1813 478.5468 461.7602 478.216 462.4218 478.0506 463.0834 477.5544 463.7451 476.8928 464.2413 476.2312 464.6548 475.3214 464.8202 474.5771 464.9856 472.7577 466.1434 469.4496 466.6396 468.3744 469.865 464.8182 472.925 459.6907 475.4888 453.9015 476.9775 449.0221 477.5564 447.7815 478.0526 446.2929 478.218 442.2405 478.5488 440.5864 478.5488 440.2556 478.4661 439.7594 478.4661 439.3459 478.7142 439.1805 479.045 439.1805 479.6239 439.0978 479.9547 438.8497 479.6239 437.6918 479.4585 436.6167 479.3758 435.5416 479.4585 434.9626 479.9547 433.7221 480.6164 429.587 480.7818 426.6924 480.6991 425.9481 480.451 425.3691 479.5412 423.7151 478.8796 419.0011 477.8045 415.114 477.0602 413.2119 476.2331 411.6405 472.098 407.2573 470.9402 405.2724 465.978 399.566 462.1737 397.1676 459.1137 395.7617 457.7078 395.5136 455.3094 395.5136 453.2418 395.5136 448.8586 393.8595 445.5505 393.5287 444.1446 393.1979 442.8213 392.2882 437.0322 386.8298 435.957 385.5066 432.8143 380.4617 430.5814 378.0633 427.7695 376.492 424.8749 375.5823 415.5295 374.0936 412.3868 373.0185 404.9436 367.3947 402.9587 365.2444 401.3047 362.4326 400.3123 359.1245 399.9814 355.8991 400.2295 352.6737 400.9739 349.2829 402.5452 346.1402 405.0263 344.1553 410.6501 341.5915 424.6268 332.8251 425.8673 332.4943 433.1451 332.9905 435.7916 332.0807 438.19 330.2613 444.7235 323.397 445.5505 321.9083 446.0467 319.3446 446.5429 317.6905 446.6256 316.7808 446.6256 314.6305 446.8737 314.1343 446.9565 313.8862 447.7835 313.6381 447.4527 312.3976 447.6181 311.4051 447.9489 310.33 448.1143 309.0895 448.2797 297.0149 448.7759 294.4511 450.6781 290.0679 451.3397 287.5868 451.7532 284.8576 452.084 280.8052 452.5802 278.3241 452.6629 276.8355 452.4148 275.595 451.9186 274.3544 451.6705 273.1139 451.9186 272.1214 452.7456 272.6177 453.8208 272.7004 454.8132 272.4523 455.6402 272.1214 455.7229 272.8658 456.0537 273.5274 456.3845 274.1063 456.7153 274.5198 457.1289 274.5198 457.1289 273.5274 457.9559 274.1063 458.6175 275.016 459.3618 275.5123 460.5197 274.9333 460.1061 274.6852 458.9483 273.5274 460.437 272.9485 462.091 273.1966 463.6624 273.0312 464.6548 271.6252 463.5796 271.6252 463.1661 271.7079 462.7526 272.1214 462.3391 271.6252 462.5045 270.2193 461.4294 269.2269 459.858 268.7306 458.7829 268.9788 458.3694 269.8058 458.204 270.4674 457.7905 270.9636 456.9635 271.129 456.3845 270.7155 456.3018 269.7231 456.5499 268.5652 456.7153 267.8209 457.2116 267.0766 457.7078 266.9112 458.2867 266.8285 458.9483 266.4977 460.6851 264.5128 461.5948 263.8512 461.6775 262.528 461.0159 261.3701 459.7753 261.2047 458.8656 262.4453 458.3694 264.0166 457.7078 264.9263 456.2191 263.8512 455.971 262.528 456.3845 255.9945 457.8732 252.6864 460.437 251.7766 463.5796 251.6939 466.4742 251.2804 466.3088 250.6188 465.978 250.2053 465.4818 249.9572 464.9856 249.7918 465.7299 249.2129 466.3088 248.4685 466.4742 247.5588 466.1434 246.4837 463.8278 247.8896 463.5796 248.2204 463.4142 248.9648 463.0834 249.2956 462.918 249.2129 462.5872 249.0475 462.1737 248.8821 460.5197 249.6264 459.6099 248.5512 456.0537 234.988 452.911 227.3794 452.3321 224.2367 452.3321 223.4924 452.8283 222.6654 453.4899 222.2519 455.0613 221.8383 455.6402 221.4248 456.3018 220.1843 456.7153 218.6129 457.4597 217.2897 458.7829 216.7108 458.8656 216.4627 458.6175 215.9665 458.0386 215.6357 457.2943 216.0492 456.798 216.4627 455.7229 217.207 455.2267 217.6205 453.7381 220.4324 452.911 220.8459 451.7532 219.7708 450.9262 218.5302 448.6932 213.2373 448.1143 211.087 446.8737 208.6059 446.6256 208.027 446.2948 206.5384 443.9792 202.1551 443.6484 200.253 444.5581 200.1703 446.0467 200.5011 448.197 199.8395 449.024 200.0876 449.6029 200.6665 449.4375 201.4108 448.9413 202.1551 448.8586 202.5687 451.5878 208.027 451.8359 210.1773 452.5802 211.914 453.5726 212.6584 454.1516 211.087 453.4899 209.2676 453.3245 208.1924 453.9862 207.7789 455.5575 208.027 456.3018 207.9443 457.1289 207.3654 455.971 207.3654 453.2418 206.8692 452.2494 206.373 453.0764 205.9595 456.0537 203.3957 456.4672 203.5611 456.3845 205.0497 458.6175 202.3206 459.858 201.3281 461.264 201.1627 463.3315 203.5611 464.0759 203.9746 464.8202 203.6438 464.9856 202.8995 464.6548 201.9897 464.2413 201.1627 464.324 200.4184 461.5121 199.2606 460.5197 198.3508 459.6099 198.6816 459.1137 197.8546 458.7829 196.5314 458.2867 195.5389 456.8807 197.193 456.0537 196.5314 455.971 194.96 456.5499 194.133 457.2116 193.9676 457.8732 193.4714 458.3694 192.8098 458.6175 191.9827 455.0613 191.4038 451.4224 191.5692 449.6029 192.1481 448.1143 193.2233 447.7008 194.0503 447.37 195.7044 447.0392 196.4487 446.5429 197.193 446.0467 197.193 444.8062 196.0352 443.9792 197.193 442.8213 198.2681 441.5808 198.6816 440.423 198.1027 439.844 196.9449 437.6111 189.0882 436.4532 182.7201 435.3781 179.6601 432.5662 174.4498 425.0403 164.8563 423.3862 161.7963 423.0554 158.6536 423.2208 157.8266 423.4689 157.2477 423.8825 156.8342 424.5441 156.7515 423.9652 158.6536 423.8825 159.5634 424.2133 160.5558 425.0403 158.7363 425.6192 157.992 426.3635 157.7439 427.1906 158.2401 428.0176 160.4731 429.0927 161.4655 430.3333 163.6985 431.0776 164.2774 431.9873 164.5255 432.5662 165.1044 432.4835 165.9315 431.6565 166.5931 433.8895 167.4201 434.4684 167.5028 434.4684 167.6682 433.9722 167.999 433.1451 168.3298 432.4008 168.4125 432.897 168.826 433.1451 169.405 433.0624 170.0666 432.8143 170.7282 433.3932 170.8109 433.9722 170.9763 435.0473 171.7206 435.0473 171.2244 435.0473 170.3147 435.0473 169.8185 435.6262 170.8109 436.1224 172.2996 436.7013 173.1266 437.2803 171.7206 437.8592 171.8033 438.0246 171.059 438.19 169.9012 438.4381 168.9088 438.7689 168.4125 439.5959 167.6682 439.9267 167.0066 439.0997 167.3374 438.7689 167.5028 438.2727 166.1796 438.8516 163.1196 438.4381 162.3753 437.9419 163.3677 437.6938 162.8715 437.6938 159.3153 437.6938 159.0672 437.8592 158.7363 438.7689 157.7439 438.3554 156.9996 437.6938 156.2553 437.1976 155.4282 437.4457 154.6839 438.6862 153.6088 438.6035 153.1953 436.8667 152.1201 436.4532 152.1201 435.6262 153.3607 434.8819 153.9396 434.3857 154.2704 431.243 154.5185 429.5062 154.105 428.2657 152.9472 427.9349 150.7969 428.6792 151.2104 429.0927 149.5564 429.6716 149.391 430.416 149.9699 431.243 150.3007 433.6414 150.1353 434.7165 149.8045 435.6262 149.1429 436.4532 148.2331 437.1149 147.7369 438.7689 147.0753 440.2575 145.6694 440.8365 145.4212 441.25 145.4212 441.5808 145.1731 441.8289 144.2634 441.4981 143.9326 441.3327 143.9326 441.25 143.7672 441.0846 143.3537 440.5057 143.9326 439.7613 144.3461 439.017 144.5942 438.7689 144.5942 438.19 144.6769 437.6938 144.925 436.3705 146.1656 435.7916 146.5791 435.3781 145.7521 434.4684 146.4137 433.3932 147.4061 432.4008 147.985 430.9949 147.7369 430.2505 147.4061 429.7543 147.0753 429.5062 145.8348 430.0851 145.5867 431.6565 146.0829 432.5662 146.9099 432.9797 146.9926 433.2278 145.2558 434.1376 143.1056 435.3781 141.4515 435.7089 140.7072 435.7916 140.211 435.8743 139.6321 436.1224 138.6396 437.0322 139.0532 437.6938 138.9705 437.8592 138.3915 437.2803 137.3164 436.7013 136.9029 434.6338 136.324 434.8819 138.3915 434.1376 140.7072 432.8143 142.5267 431.243 143.3537 432.1527 142.1958 432.4008 141.9477 431.8219 141.6996 431.1603 141.865 430.7468 141.7823 430.4987 141.2034 430.416 140.1283 430.0024 139.9629 429.5889 140.1283 429.0927 140.0456 428.5138 139.7975 428.1003 139.8802 427.9349 139.6321 427.9349 138.6396 428.0176 137.8953 428.183 137.2337 428.6792 135.9105 427.7695 135.9932 427.1906 136.4067 426.0327 137.7299 426.2808 135.8278 425.4538 135.8278 423.0554 137.7299 423.6344 138.3088 423.6344 139.7975 424.3787 140.0456 425.3711 140.0456 426.0327 140.211 426.6116 140.6245 427.1906 141.4515 426.8597 142.444 426.8597 143.0229 427.356 143.3537 427.7695 143.1883 428.0176 142.8575 428.4311 142.1958 428.9273 142.1958 429.5889 142.7748 430.4987 144.2634 428.5965 144.7596 428.2657 144.925 428.1003 145.5867 427.7695 145.9175 427.356 146.0829 426.777 146.0829 426.3635 145.8348 425.6192 144.925 425.123 144.6769 424.5441 144.5942 424.1306 144.3461 422.89 142.444 422.3938 141.4515 421.7322 140.4591 420.8225 139.6321 419.83 139.384 417.1836 139.3013 416.6873 138.8877 416.3565 138.2261 415.5295 137.3991 414.6198 136.6548 413.8755 136.324 412.9657 135.8278 412.6349 134.5872 412.5522 131.9407 412.2214 130.9483 410.6501 129.2943 410.0711 127.2267 409.3268 126.4824 407.6728 125.1591 409.6576 123.3397 410.1538 122.2646 409.9057 120.6105 409.6576 120.1143 409.0787 119.5354 408.4171 119.1219 408.0863 119.2046 407.9209 120.0316 408.3344 120.6932 408.9133 121.1894 409.1614 121.5202 408.8306 123.0089 406.763 124.084 406.5149 125.1591 409.3268 129.1289 409.7403 129.8732 410.8982 130.5348 411.3117 132.1061 411.5598 133.9256 411.9733 135.1661 412.3868 135.7451 413.0484 137.2337 413.4619 137.978 414.0409 138.3915 414.7025 138.6396 415.3641 139.1359 415.7776 140.3764 416.2738 140.8726 416.8527 141.2861 417.2663 141.6996 420.2435 146.331 420.9879 146.7445 421.8149 146.5791 422.5592 146.6618 423.0554 147.4888 421.9803 147.985 422.4765 148.812 423.5516 149.9699 424.2133 151.4585 423.7171 152.8645 422.6419 153.7742 420.0781 154.932 417.4317 155.0147 416.1911 152.6164 414.4544 146.0829 407.342 136.324 405.3571 132.3543 393.0344 115.6484 380.7118 99.0252 380.381 97.7846 380.7118 96.7095 382.5312 94.2284 382.9447 93.1533 383.1101 91.6646 383.4409 90.0933 384.1853 89.1836 385.2604 89.7625 385.5085 89.1009 385.5912 88.77 386.1701 89.349 386.6663 90.0933 387.2453 90.7549 388.0723 91.0857 388.155 90.5895 388.0723 88.2738 388.2377 87.3641 389.7263 89.7625 390.0571 88.6046 390.0571 87.2814 390.3053 86.0409 391.215 85.0484 391.7939 85.0484 392.042 85.3792 392.3728 85.5446 393.1171 85.0484 393.2825 84.6349 393.6961 83.229 394.5231 81.6576 392.5382 82.3193 391.9593 82.1538 391.9593 81.3268 391.8766 80.8306 391.6285 80.5825 391.0496 80.4998 390.8015 80.8306 390.8015 83.3117 390.2225 82.2365 389.3128 79.0939 388.4031 80.169 388.5685 81.3268 389.3128 82.6501 389.7263 83.7252 389.3955 84.883 388.4858 85.4619 387.4107 85.4619 386.0874 84.5522 385.5085 84.4695 385.1777 84.7176 385.6739 86.0409 385.3431 86.3717 384.7642 86.5371 384.268 86.7025 383.7718 87.0333 383.4409 86.7852 382.7793 85.7928 382.3658 85.7928 381.7869 86.1236 380.7118 86.9506 381.1253 87.8603 380.7945 88.3565 380.1328 88.6873 379.6366 89.2663 379.5539 89.5971 379.7193 89.9279 379.8847 90.176 379.9674 90.176 379.802 95.1381 379.6366 95.7171 379.1404 95.7998 378.6442 95.3862 373.9302 88.77 373.3512 86.9506 373.5993 85.8755 375.5015 83.7252 375.088 83.7252 374.3437 83.6425 373.9302 83.7252 375.088 82.402 375.5015 81.7403 375.8323 80.996 374.1783 81.2441 373.1858 82.3193 372.5242 83.8079 372.028 85.5446 371.4491 85.0484 369.795 83.0636 369.4642 82.402 369.8777 81.823 371.8626 80.3344 372.4415 79.5901 371.6972 79.342 370.1258 80.2517 369.0507 80.4998 368.141 80.169 367.3967 79.5074 366.0734 77.7706 363.9232 75.4549 363.5096 74.6279 363.6751 73.3047 364.4194 72.8912 365.4945 73.1393 366.4869 73.6355 368.2237 71.2371 369.2988 68.0944 369.4642 64.6209 368.7199 61.3128 366.9832 57.095 366.3215 56.0199 363.0134 52.6291 362.021 51.2231 360.2842 46.8399 359.6226 46.1783 358.6302 45.6821 347.4654 30.8783 345.2324 28.9761 340.6011 26.1643 341.18 25.6681 341.5108 25.1718 342.0897 23.9313 342.007 23.3524 341.9243 22.36 342.1724 21.6983 343.0821 22.2772 344.3227 22.9389 347.5481 23.1043 348.8713 23.9313 349.6156 23.187 351.2697 22.7735 352.9237 21.6983 359.1264 22.2772 360.1188 22.0291 360.6978 21.5329 361.2767 20.8713 361.9383 20.7059 362.7653 21.6156 361.194 22.6908 360.7805 24.014 360.8632 27.5702 360.6978 28.3972 360.5324 28.9761 360.0361 29.307 359.2091 29.3897 358.8783 28.9761 358.7129 28.2318 358.2994 27.4048 357.5551 27.074 357.6378 26.7432 357.8032 25.9989 357.8859 25.6681 356.8107 25.2545 356.3972 25.4199 355.9837 27.074 355.8183 28.5626 355.4048 28.9761 354.4951 28.3972 354.4124 29.0589 354.247 29.5551 353.9162 29.9686 353.3372 30.2994 353.9162 30.8783 355.6529 32.1188 355.8183 31.3745 356.0664 30.7956 356.4799 30.3821 357.1416 30.2994 356.8107 31.2091 356.6453 31.7053 356.3972 32.1188 356.9761 32.5324 357.4724 32.6151 357.9686 32.2842 358.2994 31.6226 358.5475 32.367 358.6302 33.2767 358.6302 37.081 358.8783 37.5772 359.3745 37.081 360.0361 35.5096 360.1188 33.6075 359.788 31.7053 358.961 30.2994 360.367 30.961 361.194 34.2691 361.7729 38.1561 362.3518 40.7199 364.1713 42.7875 366.4042 44.7723 368.2237 47.0053 368.7199 49.8172 366.0734 46.6745 364.9156 45.6821 365.1637 48.0804 367.4794 50.3961 374.7572 54.6966 374.5918 55.5236 373.4339 56.9296 373.1031 57.5085 372.855 58.1701 372.855 60.8993 373.0204 61.3128 373.3512 61.2301 373.9302 61.3128 375.7496 61.809 376.2458 61.809 376.6593 61.1474 376.8247 60.4031 377.0729 59.7415 377.8999 59.4107 378.5615 58.5836 378.4788 56.6815 377.7345 53.4561 377.9826 52.0501 379.0577 51.5539 380.381 51.3058 381.6215 50.5615 382.035 49.6518 381.9523 48.9074 381.6215 48.2458 381.6215 47.8323 382.2831 47.1707 382.6966 47.1707 383.0274 47.6669 383.3582 48.4939 383.3582 49.0729 383.2755 49.6518 382.9447 50.7269 384.5988 49.8999 385.2604 49.8172 384.9296 50.4788 385.095 51.0577 385.922 52.1328 383.6891 53.0426 381.4561 53.0426 380.8772 53.2907 380.5464 54.3658 380.7945 55.6063 381.3734 56.7642 381.8696 57.6739 382.6139 58.6663 383.5236 59.4934 384.5988 60.155 385.7566 60.4031 388.4031 60.0723 389.4782 60.4031 390.4707 61.809 391.1323 60.6512 391.215 60.4031 390.6361 59.5761 389.9744 58.9972 389.3955 58.1701 389.3128 57.1777 389.8917 56.0199 390.5534 55.9372 391.2977 56.5988 391.9593 57.6739 392.6209 56.9296 393.3652 56.8469 393.9442 57.1777 394.5231 58.6663 395.3501 58.9972 397.0042 58.9972 397.1696 58.8317 397.335 58.5009 397.5004 58.2528 397.9139 58.0874 398.4928 58.2528 398.5755 58.5836 398.5755 59.0799 398.6582 59.4107 398.989 59.8242 399.1544 60.3204 399.3198 60.6512 399.816 60.8166 400.2295 60.8166 400.5604 60.982 401.3047 61.3128 400.6431 61.6436 400.3123 62.2225 400.0641 62.9669 399.816 63.5458 398.5755 64.4555 397.9966 65.0344 398.162 65.6133 399.9814 67.2674 401.1393 67.1847 401.3874 66.9366 401.3047 66.4404 401.3047 65.8615 402.4625 63.5458 402.4625 63.1323 402.3798 62.1398 402.4625 61.809 402.7933 61.3955 403.7858 61.3128 404.6955 60.7339 405.5225 60.7339 407.1766 60.8166 407.0112 61.1474 407.4247 61.9744 408.4171 63.1323 410.5674 64.7863 411.4771 65.8615 411.8079 67.5155 412.5522 68.6733 414.289 69.0042 417.4317 68.5906 418.7549 69.0042 420.0781 69.9139 421.1533 71.2371 421.5668 72.9739 419.3338 73.6355 418.6722 73.3874 418.5068 72.8085 418.4241 72.0641 418.176 71.4025 417.9279 71.4852 417.5144 71.816 416.9354 71.816 416.2738 70.9063 414.9506 71.6506 414.3717 72.0641 414.8679 72.4777 415.943 74.1317 414.1236 74.2971 413.9582 75.2895 414.7852 75.9512 415.943 75.4549 416.4392 75.8685 417.1009 76.0339 417.6798 75.8685 418.176 75.4549 418.9203 76.5301 418.7549 77.4398 418.3414 78.2668 418.176 79.0939 418.5895 80.0036 420.6571 82.1538 420.9052 82.7328 421.0706 83.4771 421.236 85.2965 421.4014 85.5446 421.7322 84.8003 422.1457 83.7252 422.3111 82.8155 423.3862 83.3944 423.9652 83.6425 424.5441 83.7252 424.4614 83.3944 424.296 82.6501 424.2133 82.402 424.9576 82.3193 425.4538 82.6501 425.7846 83.0636 426.1981 83.3117 426.6943 82.9809 426.8597 82.3193 426.6943 81.6576 426.1981 81.4095 425.0403 81.2441 423.4689 80.8306 422.063 80.169 421.5668 79.0939 421.9803 79.5901 422.7246 78.8457 424.0479 78.763 426.777 79.0939 426.5289 78.4322 426.3635 78.1841 426.9425 78.1841 427.6868 78.2668 428.2657 78.4322 428.2657 78.6803 428.8446 78.3495 428.9273 78.1014 428.9273 77.7706 429.2581 77.109 430.7468 75.4549 432.4008 74.1317 432.8143 75.7858 432.3181 77.109 431.6565 78.4322 431.243 80.0036 431.6565 81.6576 432.6489 82.3193 433.8068 82.402 435.0473 82.402 435.0473 82.8155 434.5511 83.7252 436.2051 85.7928 435.3781 86.4544 435.0473 86.289 433.5586 84.6349 431.8219 83.3117 431.243 82.8155 432.1527 84.3041 434.2203 88.77 435.3781 89.7625 436.5359 89.8452 437.6938 90.176 437.6111 90.0106 437.6938 89.8452 437.7765 89.6798 438.0246 89.7625 438.2727 89.9279 438.4381 90.5068 438.6035 90.6722 439.017 91.1684 440.3403 93.4841 440.6711 94.3111 438.5208 94.6419 438.7689 95.4689 441.5808 97.7846 444.2273 100.5965 444.7235 102.1678 443.9792 104.4835 443.1521 103.9873 440.7538 103.5738 439.7613 103.4911 439.1824 103.9046 440.0921 104.6489 442.1597 105.8068 441.8289 105.8895 441.0846 106.303 442.4905 106.6338 442.9867 106.8819 443.2348 107.4608 443.0694 108.1224 442.5732 108.6186 441.9943 108.9495 441.4154 109.1149 444.5581 111.0997 445.137 111.7613 445.2197 112.6711 444.8062 114.2424 444.9716 114.8213 446.2948 117.3851 444.8062 117.7986 443.6484 117.0543 442.5732 115.9792 441.4154 115.1521 441.7462 113.8289 440.1748 113.4154 440.2575 112.3403 439.4305 112.3403 438.0246 113.0019 437.2803 113.1673 436.8667 113.0846 436.2878 112.423 435.957 112.3403 435.6262 112.5057 435.2954 113.4981 435.0473 113.6635 434.1376 113.7462 434.0549 113.5808 434.2203 113.0019 434.2203 111.7613 434.0549 110.8516 433.8068 110.0246 433.3932 109.2803 432.8143 108.6186 432.4835 110.1073 432.8143 113.7462 432.5662 114.8213 432.3181 115.5656 432.2354 116.3927 432.4008 117.2197 432.8143 117.7986 433.6414 117.8813 434.0549 117.3851 434.4684 116.4754 434.8819 115.7311 435.8743 115.5656 439.4305 116.0619 440.6711 116.4754 441.5808 117.6332 441.3327 118.9565 440.3403 120.2797 439.1824 121.5202 440.0921 122.5127 440.2575 124.1667 440.1748 125.8208 440.2575 127.0613 440.9192 127.971 443.4002 129.7905 444.3927 130.2867 445.0543 130.4521 446.4602 130.4521 447.0392 130.7829 447.6181 131.6099 447.5354 132.2716 447.2046 132.8505 447.0392 133.5948 447.37 135.1661 447.9489 135.9932 448.6932 136.6548 449.6856 137.7299 452.7456 142.5267 454.4824 144.5115 456.7153 146.0829 458.204 146.6618 458.204 147.0753 457.8732 147.985 457.8732 148.1504 458.1213 148.2331 458.204 148.3985 458.0386 148.6466 457.8732 148.7293 457.7078 148.7293 457.5424 148.5639 457.5424 148.3985 457.2116 148.6466 457.0462 148.5639 456.8807 148.6466 456.7153 149.391 457.2116 150.6315 458.3694 151.1277 459.9407 151.2931 461.264 151.7066 459.6099 152.0374 455.0613 151.7893 454.1516 151.9547 454.317 152.8645 455.0613 155.6764 455.8883 157.4958 456.0537 158.6536 455.8883 159.8942 455.6402 160.9693 454.5651 157.7439 453.7381 156.4207 452.2494 155.8418 453.2418 158.819 453.1591 159.9769 451.9186 160.0596 451.9186 160.5558 452.4148 160.7212 452.911 160.9693 453.3245 161.3828 453.7381 161.879 453.4072 162.6234 452.2494 163.285 451.9186 163.7812 451.9186 164.6909 452.4975 165.8488 452.6629 166.7585 452.5802 168.1644 452.911 168.4125 453.5726 169.1569 454.1516 169.4877 454.8959 169.7358 456.3845 169.8185 458.7002 168.9088 459.3618 168.9088 459.9407 169.405 459.6926 169.7358 457.2116 171.2244 455.8056 171.7206 454.9786 171.6379 452.6629 170.7282 453.7381 171.9687 454.6478 173.6228 457.8732 183.8779 456.7153 183.5471 455.971 182.8855 455.2267 182.6374 453.7381 183.3817 453.3245 183.0509 453.0764 182.6374 453.1591 182.1411 453.4072 181.5622 452.3321 181.3141 451.5878 179.412 450.7608 179.412 448.8586 180.4044 447.9489 180.9833 447.0392 181.9757 447.0392 182.472 447.5354 182.5547 449.4375 182.2239 450.43 182.472 449.9337 182.9682 449.1067 183.4644 448.6105 184.0433 448.8586 184.5395 449.7683 185.1184 450.0164 185.3665 450.0164 185.7801 450.0164 188.6746 450.2646 189.5844 450.9262 189.9979 451.4224 189.6671 451.5051 188.7573 451.4224 187.8476 451.5051 187.1033 451.9186 187.6822 452.3321 186.8552 452.8283 186.1936 453.4899 185.6974 454.1516 185.2838 454.9786 185.2011 457.5424 185.7801 460.9332 185.7801 462.1737 186.5244 462.0083 188.5919 461.4294 189.419 460.9332 189.8325 460.6024 190.4941 460.8505 191.7346 461.1813 192.6444 461.4294 193.1406 461.8429 193.0579 462.3391 192.3136 463.8278 184.7876 464.2413 184.7876 465.3991 188.013 465.8126 189.5844 465.7299 191.4038 466.9705 191.073 468.3764 190.9903 469.038 190.4941 468.211 188.84 467.9629 187.6822 469.2861 187.3514 471.0229 187.5995 472.098 188.013 472.7596 189.5844 472.1807 192.7271 472.8423 193.8849 473.7521 194.133 474.4137 193.8849 474.9926 193.4714 475.9023 193.1406 477.2256 192.2309 477.5564 192.3963 477.8045 192.6444 478.1353 192.7271 479.872 191.9 480.3683 191.7346 480.9472 191.9827 482.105 192.9752 482.8493 193.2233 483.2628 193.4714 485.165 195.8698 485.5785 196.6141 485.8266 197.3584 485.992 198.3508 485.992 200.0049 485.2477 204.7189 485.4958 206.2903 486.1574 207.7789 486.9845 209.1022 487.8115 210.0946 489.7963 211.2524 492.2774 211.3351 494.7585 210.6735 496.826 209.6811 497.3223 209.1849 497.4877 208.7713 497.7358 208.4405 498.5628 208.2751 498.9763 208.6059 499.1417 209.2676 499.1417 210.8389 499.3898 212.1621 500.1341 212.9892 501.1266 213.1546 502.119 212.493 501.2093 212.2449 500.6304 211.5832 500.2996 210.5081 500.1341 208.3578 499.6379 206.5384 499.4725 205.6287 498.5628 203.5611 498.3974 202.5687 498.3974 199.0125 498.1493 198.1027 497.9012 197.6065 496.6606 193.3887 496.2471 192.5617 495.7509 191.7346 495.0066 191.073 493.6834 190.0806 493.1044 189.5017 492.7736 188.7573 492.6082 188.013 492.2774 187.3514 491.6158 186.6898 492.7736 186.2763 494.0969 186.5244 495.2547 186.4417 496.0817 185.2838 494.2623 185.3665 493.4352 185.2011 492.6909 184.7876 493.3525 184.5395 494.0142 184.3741 494.5931 184.126 495.0066 183.3817 494.5104 183.3817 494.0969 183.2163 493.8488 183.0509 493.4352 182.8855 496.2471 182.1411 497.1569 181.3141 496.826 179.6601 495.999 180.239 495.7509 180.5698 495.3374 179.9082 495.0893 179.2466 495.0066 178.5022 495.3374 177.8406 494.1796 175.7731 494.5104 173.9536 495.2547 172.2996 495.0066 170.7282 494.5104 170.4801 493.8488 170.3974 493.3525 170.1493 493.1044 169.5704 492.939 169.405 491.9466 167.999 490.9542 167.5028 488.9693 166.6758 488.0596 165.8488 487.5634 164.939 487.3153 163.8639 487.1499 161.2174 487.5634 160.225 488.7212 160.225 490.0444 160.4731 491.8639 160.0596 492.1947 160.4731 492.4428 160.9693 492.7736 161.6309 492.939 162.1271 493.1044 162.3753 493.3525 162.5407 493.7661 162.7888 494.8412 163.8639 495.4201 163.9466 496.826 162.3753 497.8185 163.6158 498.4801 165.3525 498.3974 167.0893 497.2396 168.4125 498.3147 169.3223 499.5552 169.405 500.5477 169.7358 500.9612 171.4725 501.1266 173.2093 500.9612 174.119 500.3823 173.7882 499.7206 173.2093 499.1417 173.3747 498.9763 173.9536 499.3071 174.7806 499.886 175.0287 501.4574 174.7806 502.119 174.946 502.4498 175.7731 502.2844 176.4347 501.8709 177.0963 501.7055 177.8406 502.119 179.8255 502.8633 179.9909 505.0963 178.2541 504.2693 177.9233 503.9385 177.8406 504.352 177.179 505.0136 176.9309 505.7579 177.0963 506.4195 177.5925 507.0812 177.9233 507.9082 177.5098 509.2314 176.352 510.2239 176.0212 510.9682 175.9385 511.7125 176.2693 512.3741 177.0963 513.0357 177.179 513.7801 176.7655 514.359 176.6828 514.4417 177.8406 514.1109 178.7503 513.6147 178.9985 512.0433 178.7503 511.7952 179.0812 510.7201 181.066 509.9757 181.5622 508.5698 182.1411 507.9082 182.7201 507.0812 183.8779 506.2541 185.2838 506.9158 185.8628 506.833 186.359 506.6676 186.8552 506.7503 187.4341 507.412 188.013 508.0736 188.4265 508.4871 188.4265 508.4044 187.6822 509.3141 186.9379 508.9006 184.7876 509.5622 183.8779 510.8028 184.5395 513.0357 184.0433 514.2763 185.0357 514.4417 185.7801 514.4417 187.5995 514.6071 188.3438 515.5168 189.419 515.7649 189.9979 516.013 190.9076 516.3438 194.133 516.0957 196.2833 516.1784 196.6968 516.2611 197.3584 515.9303 198.1027 515.4341 198.847 515.186 199.5914 515.5168 200.0876 516.0957 199.6741 516.6746 198.9298 517.0882 198.3508 518.0806 199.6741 517.8325 201.4108 517.0882 203.2303 516.1784 204.7189 516.0957 205.2978 516.5919 205.546 517.3363 205.7114 517.8325 205.9595 517.9979 206.7865 517.9152 208.7713 518.246 209.6811 517.6671 209.2676 517.2536 208.7713 517.0055 208.1097 516.7573 207.3654 516.3438 207.3654 516.5919 209.0195 516.9228 210.5081 517.0055 211.7486 516.3438 212.493 518.1633 213.4027 518.8249 214.0643 519.3211 215.3048 519.9 217.9513 520.0654 220.7632 520.3136 221.8383 521.306 223.9886 521.5541 224.981 521.7195 225.4772 522.4638 226.0562 522.7119 226.6351 522.6292 227.5448 522.3811 227.4621 521.9676 227.0486 521.5541 227.1313 521.0579 228.2064 521.6368 228.6199 523.7871 229.0335 524.6968 229.3643 525.6892 230.0259 526.5989 230.7702 527.3433 231.5972 527.9222 232.507 528.7492 234.4918 529.2454 235.3188 530.8168 236.8075 531.4784 237.7172 531.6438 238.8751 529.7416 237.3864 529.08 236.9729 528.253 236.8902 527.426 237.0556 526.5989 236.8902 525.6892 236.0632 526.2681 235.7324 527.9222 235.1534 526.02 233.7475 525.1103 232.9205 524.366 232.0107 523.2908 231.3491 521.8849 231.2664 519.3211 231.7626 519.6519 232.1761 520.1481 232.9205 520.3963 233.2513 520.2309 233.6648 520.0654 234.0783 519.9827 234.6572 520.0654 235.1534 520.3963 235.6497 520.7271 235.7324 521.0579 235.567 521.2233 235.567 521.4714 235.8151 522.0503 235.8978 522.2984 236.0632 522.3811 236.4767 522.2157 236.8902 522.0503 237.221 521.9676 237.4691 522.2157 239.0405 522.2984 239.3713 522.5465 239.7021 522.8773 239.8675 523.7871 239.8675 524.2006 239.7021 524.5314 239.3713 524.6968 239.0405 524.9449 238.8751 525.8546 239.3713 526.3508 240.1983 526.6816 241.1907 527.1779 242.2659 528.0876 241.6042 528.5838 242.0177 529.08 242.7621 529.5762 243.1756 530.4033 242.8448 530.6514 242.1004 531.0649 241.5215 532.0573 241.6869 532.8016 242.1832 533.1324 242.8448 533.2151 243.6718 533.1324 244.8296 533.4632 245.4085 534.1249 245.4085 535.0346 245.1604 535.7789 245.0777 535.0346 241.6869 533.8768 239.6194 533.546 238.7096 534.2903 238.4615 535.3654 239.3713 537.2676 242.8448 538.5908 243.6718 540.0794 244.0026 543.3875 245.6567 544.9589 245.9875 545.6205 246.3183 546.9438 247.5588 547.6054 247.8896 549.2594 247.8896 549.5075 248.1377 549.7556 248.6339 550.0864 248.7993 550.7481 248.3858 561.6648 256.3253 563.8978 257.4004 567.3713 257.9793 570.6794 259.3026 574.401 259.7988 577.3783 261.7009 582.4231 262.4453 584.4907 263.6031 581.2653 263.6031 580.6864 263.7685 581.0172 264.182 583.581 266.0015 584.2426 266.3323 585.0696 266.4977 585.7312 266.0842 585.8966 265.2571 585.6485 264.2647 585.235 263.6031 586.1447 263.355 586.7236 263.6858 587.1372 264.182 587.8815 264.5128 591.4377 264.5128 591.6031 264.6782 592.182 265.7534 592.5128 265.9188 592.7609 265.8361 593.009 265.588 593.3398 265.5053 593.5053 265.2571 593.5053 264.7609 593.5053 264.2647 593.8361 264.0166 594.4977 264.0166 596.1517 263.6031 601.0312 263.1896 602.3544 262.3626 603.3468 261.5355 607.5647 258.8891 609.2187 257.4004 609.7976 256.6561 609.963 256.0772 609.963 254.2577 610.8728 252.6037 611.0382 251.942 611.369 251.5285 613.6847 250.288 614.5117 249.0475 615.1733 246.4837 615.7522 245.3258 616.5792 244.3334 616.9101 243.7545 617.0755 242.9275 617.489 242.4313 622.9473 240.8599 624.0225 240.7772 625.0149 240.4464 625.7592 239.7021 626.9998 237.7172 627.9095 237.221 630.3079 236.9729 631.3003 236.5594 632.0446 235.7324 632.21 235.0707 631.9619 234.3264 631.3003 233.2513 633.4505 233.6648 646.9311 234.3264 648.2543 234.7399 648.9159 235.3188 648.1716 236.0632 648.1716 236.5594 648.8332 236.8902 649.8256 237.9653 650.4046 238.4615 651.3143 238.7923 652.224 238.8751 654.2089 238.8751 654.8705 239.1232 655.9456 240.1156 656.6072 240.281 658.344 240.281 659.0056 240.3637 659.8326 240.7772 660.6597 241.4388 661.9002 242.7621 662.7272 244.168 662.6445 245.3258 662.1483 245.9048 661.1559 247.6415 659.0883 249.7918 657.9305 253.0172 657.1862 254.7539 655.2013 256.1599 654.457 257.6485 652.8856 262.0317 652.3067 263.1069 651.397 264.2647 650.9835 264.9263 650.8181 265.7534 651.2316 267.3247 652.0586 268.8133 652.6375 270.302 652.3067 272.1214 651.397 273.0312 650.3219 273.8582 649.7429 274.9333 651.1489 277.9106 650.9835 279.3166 650.3219 280.6398 649.4948 281.8803 649.164 283.2863 649.9083 284.6922 650.9835 285.9328 651.5624 286.8425 651.397 287.5868 650.9008 288.3311 649.991 289.2409 649.7429 290.1506 649.6602 291.7219 649.2467 292.6317 649.991 292.7971 650.4873 293.2933 650.8181 294.0376 650.8181 295.03 650.4046 295.609 648.337 296.7668 648.0889 297.3457 648.1716 301.8943 647.8408 302.3906 641.7208 309.3376 636.097 314.2997 635.1873 314.7959 633.037 312.8111 631.6311 312.4803 630.2252 312.8111 629.0673 313.6381 628.6538 313.8862 628.2403 313.7208 628.0749 313.8035 627.9922 314.6305 627.9922 314.9613 628.1576 315.7057 628.323 316.0365 629.3154 317.1943 629.8116 317.9386 629.6462 318.7656 628.7365 320.5024 628.323 322.0737 628.323 325.7127 627.7441 329.8478 626.9998 331.9153 626.8344 334.7272 626.4208 335.8851 626.9171 337.2083 626.5035 338.2834 625.7592 339.2759 625.3457 340.6818 629.15 341.0953 630.9695 342.0877 631.7138 343.8245 628.7365 346.8845 627.4133 350.4407 626.9171 352.7564 626.2554 353.5007 625.4284 354.245 624.6014 355.1547 623.1127 350.8542 622.6992 348.5385 622.6992 346.471 623.03 345.3131 623.4435 344.1553 623.9398 343.1629 624.436 342.3359 624.436 341.5088 623.6917 341.0126 622.6165 341.0953 621.9549 342.1705 621.376 341.8396 619.7219 340.6818 618.8949 340.351 610.2112 340.0202 601.362 339.7721 600.7004 339.4413 600.2042 339.0278 599.7079 338.8624 598.302 340.1029 588.1296 345.1477 580.6864 348.7039 580.0247 349.6137 579.7766 351.185 579.1977 352.6737 578.4534 354.0796 577.1302 355.8991 575.1453 358.0493 573.9048 359.0418 573.6567 359.2899 573.0777 361.192 572.4161 362.1018 572.0026 362.9288 571.8372 363.8385 571.7545 365.079 572.0026 366.2369 572.4161 366.8985 573.0777 367.3947 573.6567 368.2217 574.0702 369.6277 574.401 376.2439 574.5664 377.6498Z" />
</svg>