<?xml version="1.0" encoding="utf-8"?>
<svg xmlns="http://www.w3.org/2000/svg" viewBox="0 0 767 1024" style="stroke-width:0.25px;stroke-linejoin:round;stroke:#444;fill:#ddd" fill-rule="evenodd">
  <path class="OM" d="M415.7549 117.5595L418.7727 117.8948 420.5611 120.6891 424.3613 121.4715 423.9142 124.3776 421.2317 125.8306 418.9963 126.613 417.8785 127.6189 414.9725 129.6308 413.4077 130.3014 411.8429 129.8543 410.7252 129.2955 410.5017 128.2895 410.7252 125.607 413.2959 124.2658 414.3019 123.1481 413.743 122.2539 413.4077 121.248 413.1842 119.4596 415.7549 117.5595ZM416.0902 126.2777L417.9903 125.607 418.4374 123.8187 417.0961 122.8128 416.202 122.8128 415.7549 123.3716 416.0902 126.2777ZM398.095 38.9844L398.5421 37.9784 399.4363 34.1782 405.8073 23.8953 408.1545 19.0891 409.1604 18.0832 410.7252 17.189 410.837 17.8596 410.7252 19.3127 411.8429 21.101 411.6194 21.6598 411.1723 23.2246 411.8429 23.2246 412.8488 22.2187 415.3078 22.1069 415.8667 21.4363 416.4255 21.101 417.655 21.5481 418.8845 22.7776 419.108 24.6777 419.7787 23.4482 420.4493 23.56 421.3435 24.007 422.4612 23.8953 425.0319 21.9952 426.1496 21.7716 429.0557 22.554 429.7263 22.4422 429.9498 21.5481 429.5028 20.5421 428.8321 19.7597 428.0497 19.5362 426.1496 19.3127 425.0319 19.3127 424.1377 19.8715 423.5789 20.5421 422.6847 21.5481 421.567 22.1069 420.4493 21.7716 420.4493 20.5421 421.1199 15.9595 421.1199 14.2829 424.026 16.5184 425.2554 17.0772 425.8143 15.4007 425.3672 14.6183 424.2495 13.5006 422.9083 12.6064 421.7905 12.1593 422.2376 11.1534 422.6847 11.0416 423.3553 11.0416 423.9142 10.7063 425.0319 9.1415 425.5908 7.912 425.479 5.5648 425.8143 4 426.3732 4 427.7144 6.9061 429.1674 5.9001 429.7263 5.453 430.3969 6.2354 429.9498 7.0178 429.9498 7.3531 430.1734 7.5767 430.3969 8.3591 431.4029 7.5767 431.9617 7.912 432.4088 8.5826 433.0794 9.1415 435.3149 9.8121 436.5443 9.9239 437.7738 9.8121 437.5503 9.365 437.215 8.1355 436.9914 7.6884 439.1151 6.9061 440.121 9.5886 439.8975 10.7063 438.5562 10.818 436.0972 10.7063 434.4207 11.2651 431.5146 13.8359 429.9498 14.8418 430.0616 14.8418 430.0616 15.5124 429.1674 16.6301 431.2911 18.8656 432.4088 19.7597 433.7501 20.2068 434.6442 19.7597 435.6502 18.9773 436.6561 18.7538 437.7738 20.2068 435.9855 23.4482 435.0913 23.7835 434.4207 21.7716 433.5265 21.8834 432.4088 21.7716 432.7441 22.7776 432.8559 23.4482 432.7441 24.007 432.4088 24.6777 433.6383 25.9072 435.0913 26.8013 436.3208 27.919 436.9914 29.9309 435.8737 29.8191 434.8678 29.5956 433.9736 29.1485 433.0794 28.3661 431.7382 29.0367 430.5087 28.4779 429.8381 27.2484 429.7263 25.4601 429.1674 25.7954 427.7144 26.5778 427.1556 26.9131 427.0438 25.6836 427.2673 24.9012 427.7144 24.2306 428.4968 23.8953 426.2614 23.56 423.8024 25.013 422.4612 27.0249 423.1318 28.3661 422.5729 29.4838 422.4612 30.8251 422.6847 32.1663 423.1318 33.6194 423.9142 31.3839 424.8084 30.2662 425.8143 29.9309 426.3732 30.6015 426.4849 31.831 426.2614 33.1723 425.8143 34.29 427.7144 35.0724 436.4326 34.9606 435.5384 36.4136 434.0854 37.6431 431.0675 39.4315 428.2733 40.5492 427.3791 41.4433 427.7144 43.2317 430.1734 41.8904 431.5146 43.1199 431.6264 45.1318 429.391 46.6966 429.8381 47.7025 431.0675 49.4909 431.4029 50.2733 432.297 50.7204 434.4207 51.2792 433.7501 51.8381 433.4147 52.1734 433.0794 53.6264 431.6264 52.844 430.0616 52.3969 428.6086 52.5087 427.7144 53.6264 429.2792 56.0854 428.6086 58.5443 427.0438 60.7798 425.8143 63.0152 425.7025 63.9094 425.8143 66.3683 423.9142 68.2684 422.2376 71.1745 421.2317 72.6275 419.7787 73.4099 419.7787 71.1745 418.4374 73.4099 417.0961 76.8748 416.4255 80.8986 417.0961 84.4752 417.5432 85.7047 413.5195 86.8224 412.0664 87.1578 410.5017 86.7107 409.831 85.9283 408.8251 83.8046 407.9309 83.0222 405.6955 82.6869 405.3602 82.4634 405.1366 82.3516 404.5778 81.0103 404.1307 76.2042 404.2425 74.4158 405.2484 73.2981 406.4779 72.2922 407.2603 70.8392 406.8132 69.4979 404.466 66.4801 404.1307 64.6917 404.5778 63.127 406.4779 60.4444 407.0367 58.8796 407.4838 49.2673 408.1545 46.026 408.378 44.0141 407.8191 41.8904 406.3661 37.6431 405.2484 37.5314 400.3305 38.8726 398.095 38.9844ZM427.7144 155.2264L429.8381 163.9446 436.0972 176.91 437.1032 178.0277 437.7738 180.4867 438.3327 184.9575 449.7333 206.6411 452.0805 209.3237 457.5573 214.2416 468.1756 227.207 470.2992 230.5602 471.1934 232.5721 472.0876 235.5899 481.5881 247.1023 493.1006 256.9382 502.154 264.3151 505.2836 266.327 519.0315 271.692 536.8031 276.3864 544.18 279.7395 549.8803 281.6396 553.9041 282.3102 556.1395 282.422 562.734 282.0867 564.5223 282.422 567.3166 286.1105 568.3226 286.8928 570.6697 287.5635 573.464 288.9047 575.8112 289.24 588.4414 288.5694 592.6887 288.793 597.0477 289.7989 602.9716 292.2579 604.6482 292.5932 606.3248 293.3756 609.9014 296.9523 611.6898 298.4053 615.0429 299.523 619.5138 300.0818 624.2081 299.9701 628.1201 299.1877 630.2438 298.4053 631.138 297.7347 631.8086 295.7228 632.7028 295.7228 634.4911 296.2816 638.6266 296.2816 640.862 296.7287 642.8739 297.7347 643.6563 299.0759 645.6682 303.3232 646.4506 304.2174 647.0095 304.4409 647.4565 304.888 647.7919 305.3351 648.1272 305.6704 648.3507 305.6704 648.9096 305.5586 649.5802 305.5586 650.2508 305.6704 651.5921 306.8999 652.3745 307.7941 652.7098 308.5765 653.4922 308.5765 654.051 307.1234 654.2746 307.6823 654.4981 308.0176 654.7217 308.4647 654.8334 309.3589 655.5041 309.3589 655.6158 308.8 656.0629 307.9058 656.6218 308.3529 656.8453 308.4647 658.0748 307.9058 660.422 311.0354 661.0926 312.712 660.7573 314.3886 661.5397 315.8416 662.5457 320.6477 663.7751 322.6596 669.4755 328.0246 672.9404 329.5894 674.2816 331.4895 675.9582 336.0722 676.9641 337.637 679.8702 340.543 681.3232 342.6667 682.1056 348.9259 688.253 355.185 688.7001 356.0792 689.259 359.2088 689.7061 359.8794 690.1531 360.4383 692.8356 362.6737 697.9771 365.6915 701.2185 368.1505 703.6774 371.0565 705.354 374.2979 708.9307 383.2396 709.266 384.8044 709.9366 386.8163 711.725 388.1575 715.1899 390.1694 719.1019 396.3168 719.6607 397.9934 720.8902 399.5582 725.0257 403.4702 728.0436 405.035 730.279 407.0469 732.5144 408.2763 733.0733 408.8352 733.0733 409.9529 732.5144 410.1765 731.732 409.9529 731.0614 409.6176 731.1732 411.0706 731.8438 411.7413 732.9615 411.853 734.4145 411.7413 741.9032 409.1705 744.4739 410.1765 748.3859 413.1943 748.9448 413.1943 750.5096 413.0825 751.0684 413.1943 751.292 413.6414 751.5155 414.7591 751.7391 415.3179 751.7391 415.6532 751.6273 416.1003 751.6273 416.771 752.2979 417.4416 752.8568 417.7769 753.4156 418.0004 754.0862 418.1122 754.6451 418.224 754.9804 417.6651 754.4216 416.5474 752.9685 414.9826 753.4156 413.5296 754.4216 413.5296 756.3217 413.1943 759.0042 413.8649 761.0161 416.6592 762.4691 420.1241 762.9162 423.2537 761.0161 440.4664 759.7866 445.0491 757.8865 449.1846 752.2979 457.0086 749.3919 459.4675 747.8271 461.2559 747.0447 463.0442 746.8211 465.5032 745.0328 470.5329 744.5857 475.5626 743.6915 477.5745 739.7795 479.251 738.6618 481.0394 737.097 484.8396 729.3848 495.3461 726.4788 504.6231 724.5787 508.9822 715.5252 523.5124 714.8546 526.8656 714.5193 527.7597 713.7369 528.5421 700.1008 534.5778 697.3065 536.2543 686.4647 545.196 673.3875 559.0557 669.3637 565.3149 668.3578 566.209 667.0165 567.215 665.5635 569.3386 662.5457 574.9272 662.2103 575.9331 661.9868 579.5098 661.6515 580.6275 661.0926 581.5217 655.5041 586.1043 655.8394 588.2279 654.2746 589.681 650.2508 591.8046 650.2508 591.9164 649.5802 593.8165 649.4684 593.9283 648.7978 594.5989 648.3507 595.046 648.1272 595.7166 648.3507 596.6108 649.0213 597.6167 649.8037 598.3991 650.8097 598.958 652.2627 598.2873 653.8275 596.7226 654.9452 596.0519 654.8334 598.1756 653.8275 599.5168 652.0392 600.8581 650.3626 601.3052 649.4684 600.2992 648.9096 600.2992 648.3507 601.7523 647.5683 604.5465 646.7859 605.9996 646.0035 606.6702 643.8799 607.8997 642.8739 608.9056 641.6444 610.9175 640.5267 613.4882 639.8561 616.3943 639.5208 619.0768 637.0618 624.1065 635.7206 627.6832 635.8323 629.3597 635.2735 630.1421 634.8264 633.607 634.4911 634.3894 633.7087 634.5012 632.4792 634.9483 631.138 635.6189 630.2438 636.5131 629.5732 639.3074 627.4495 640.4251 624.767 640.3133 622.1963 639.3074 620.4079 638.4132 619.0667 637.9661 615.9371 637.8543 614.7076 638.0779 612.3604 639.0838 611.0191 639.3074 611.2427 638.4132 611.8015 637.9661 611.3545 637.6308 607.8895 636.7366 605.9894 636.5131 603.9776 635.6189 603.754 633.607 604.9835 629.3597 604.9835 630.701 605.3188 631.8187 606.1012 632.8246 606.9954 633.607 607.4425 631.5952 606.4365 626.9008 607.3307 624.7771 608.6719 622.7652 609.6779 619.7474 609.9014 616.7296 609.0073 614.4942 606.9954 613.8235 604.2011 614.0471 601.4068 614.9413 598.2772 616.9531 594.3652 617.9591 593.1358 618.8532 592.4651 619.7474 590.7886 624.6653 590.7886 625.7831 591.3474 626.9008 591.6827 627.7949 590.9003 628.5773 589.6708 629.1362 587.3237 629.695 585.5353 630.5892 583.747 631.7069 581.5116 633.9424 580.6174 634.9483 580.0585 636.1778 579.7232 637.519 580.0585 638.525 581.5116 640.0898 581.7351 640.9839 581.0645 643.3311 579.2761 644.6724 575.1406 646.349 573.464 647.3549 571.7875 648.8079 570.3344 650.4845 569.7756 652.3846 569.2167 653.5023 568.2108 654.8436 567.2048 656.6319 567.2048 659.2026 568.9932 663.3382 569.552 665.9089 567.9872 669.5974 566.5342 675.2977 566.4224 676.7507 566.1989 679.7685 563.9635 685.2453 562.3987 691.0574 561.281 693.5164 555.1336 702.6816 554.2394 705.3641 554.5747 708.4937 555.2453 709.7232 556.1395 710.7292 556.8101 711.7351 557.1454 713.0763 557.2572 716.2059 557.0337 717.7707 556.5866 719.112 555.916 721.7945 555.6924 723.8064 556.363 725.8183 561.0574 733.5305 561.8398 735.3188 562.3987 738.1131 562.3987 740.9074 561.9516 743.4781 560.275 748.1725 559.9397 750.2961 560.1633 752.6433 562.0634 757.8966 563.0693 759.5732 565.4165 762.3674 566.0871 764.044 565.193 768.4031 565.0812 770.415 568.7696 777.1212 568.7696 778.5743 566.4224 781.0332 565.0812 782.1509 564.6341 782.2627 560.275 782.9333 559.8279 783.4922 559.3809 784.051 558.3749 784.8334 557.1454 785.6158 556.1395 785.8394 536.0207 784.9452 530.5439 785.7276 507.519 789.4161 495.5595 792.7692 479.2409 799.5872 472.9817 804.1699 468.8462 806.1817 466.6108 807.9701 465.6048 810.0937 464.8224 811.2114 454.4277 821.6062 452.6394 825.2946 452.3041 830.1008 452.8629 833.4539 452.9747 834.5716 452.6394 835.9129 451.2981 837.813 450.7393 839.4895 449.8451 841.5014 449.6216 842.6191 449.6216 846.8664 448.7274 851.1138 443.6977 862.9615 445.1507 864.9734 444.9272 867.097 443.5859 869.1089 441.6858 870.5619 437.4385 872.462 435.4266 873.6915 432.4088 879.0565 431.7382 879.5036 430.3969 879.9507 429.7263 880.3978 425.2554 885.4275 424.9201 886.0981 425.0319 888.4453 424.026 888.6689 408.8251 886.657 406.8132 886.9923 404.0189 888.3336 401.7835 888.7806 393.6242 888.11 391.6123 888.3336 385.3531 890.9043 381.7765 891.7985 356.9633 892.9162 347.2392 895.4869 345.1155 895.7105 344.3331 895.934 343.7743 896.2693 343.3272 896.8282 342.7683 897.1635 340.98 897.1635 340.8682 897.1635 337.6268 898.0576 336.8444 898.5047 335.5032 900.1813 334.1619 904.2051 333.2678 905.8816 331.8147 907.5582 331.3677 908.3406 329.9146 912.4761 329.4675 913.1468 328.1263 914.7116 319.1846 922.2002 316.5021 927.2299 315.8315 929.2418 315.4961 931.589 315.9432 934.2715 316.9492 935.7245 320.1905 937.5129 322.0906 939.5248 322.873 941.6484 322.873 946.231 322.2024 948.1311 318.2904 953.4961 318.0669 954.5021 317.8433 955.8433 317.9551 957.1846 318.6257 957.7435 319.2964 958.0788 319.4081 958.8612 318.9611 960.0906 318.4022 960.6495 315.8315 961.9908 314.9373 962.5496 314.3784 963.332 313.9314 964.2262 313.596 966.0145 312.5901 967.5793 312.9254 968.0264 312.0312 969.1441 309.1252 970.1501 307.5604 970.9325 307.1133 971.8266 306.5545 973.1679 305.7721 974.5091 304.6543 975.068 300.6306 979.5388 296.2715 982.7802 295.7127 982.7802 294.7067 981.2154 293.589 981.886 292.4713 983.3391 291.3536 984.1215 289.7888 984.345 288.3358 984.9039 286.9945 985.1274 285.6532 984.7921 284.2002 986.3569 282.3001 987.0275 278.3881 987.4746 275.1468 988.8158 273.582 988.8158 272.4642 987.4746 271.3465 988.1452 269.5582 987.8099 268.4405 988.257 265.1991 986.1333 264.4167 986.9157 263.6343 984.9039 263.1872 983.1155 262.1813 981.886 258.1575 981.1036 255.3633 980.2095 254.1338 979.9859 253.0161 980.0977 251.0042 980.5448 249.8865 980.6565 246.4216 979.9859 245.1921 979.9859 244.1861 980.2095 242.1743 981.2154 241.5036 981.3272 237.0328 979.9859 234.5738 979.8741 232.6737 981.3272 231.6678 980.8801 230.7736 980.6565 212.7784 982.7802 205.0662 982.7802 203.3897 983.2273 199.1424 985.3509 198.0246 986.1333 197.6893 987.0275 197.6893 987.8099 197.9129 988.5923 198.0246 989.3747 197.8011 990.1571 196.3481 991.3866 196.1245 992.0572 195.0068 993.0631 192.5479 993.622 188.077 993.8455 182.3767 995.075 180.4766 995.1868 178.6882 995.8574 176.6763 996.9751 174.6645 997.7575 172.8761 997.3105 171.0878 998.4282 168.6288 1000.44 166.5052 1002.7872 165.611 1004.5756 164.8286 1005.6933 163.0403 1006.811 159.5754 1008.3758 156.4458 1009.1582 140.9096 1009.4935 132.7503 1010.723 116.9905 1015.7527 108.7195 1020 102.6838 1006.3639 96.6482 992.7278 90.5008 978.98 84.4651 965.2321 80.7767 956.7375 79.7707 955.3963 78.0942 954.7256 74.4057 954.5021 72.9527 953.6079 73.1762 953.6079 73.6233 953.4961 73.8469 953.4961 70.7173 946.231 66.5817 936.3952 62.4462 926.5593 58.3107 916.8352 54.1751 906.9993 50.0396 897.1635 45.9041 887.3276 41.7685 877.4917 37.633 867.6559 33.4975 857.82 29.3619 847.9842 25.1146 838.1483 20.9791 828.2007 16.8436 818.3648 12.708 808.5289 8.5725 798.5813 4.437 788.7454 1.7545 782.2627 1.0838 780.5861 11.8139 776.7859 28.356 770.9738 45.0099 765.1617 61.552 759.2378 78.0942 753.4257 94.6363 747.5019 111.2902 741.6898 127.8323 735.8777 144.3745 729.9538 161.0284 724.1417 177.5705 718.2178 194.1127 712.4057 210.7666 706.4818 227.3087 700.6697 243.8508 694.7459 260.5047 688.9338 277.0469 683.0099 291.5771 677.8684 294.7067 667.9208 295.3773 665.9089 297.1657 660.0968 299.96 651.1551 303.5366 639.5309 307.8957 625.7831 312.5901 610.3586 317.7316 593.9283 322.9848 576.9391 327.1204 563.8618 328.3498 559.9498 333.3795 543.4077 338.1857 527.9833 342.5448 514.1237 346.1215 502.3877 348.9157 493.3342 350.7041 487.5221 351.3747 485.3985 351.8218 483.8337 355.5102 472.0977 355.3985 469.6387 354.3925 467.4033 349.251 458.7969 341.4271 445.7197 333.6031 432.6425 325.7791 419.5652 317.9551 406.488 311.8077 396.2051 312.8136 380.8924 312.2548 365.468 312.5901 362.3384 315.6079 352.279 324.7732 336.0722 326.8968 329.5894 329.0205 319.0829 330.0264 315.5063 331.8147 312.8238 331.9265 312.8238 335.5032 308.8 336.8444 306.7881 339.974 293.7109 340.8682 291.9226 345.4508 285.1045 345.8979 283.7633 345.5626 275.7157 345.1155 272.6979 343.5507 270.3507 339.974 268.2271 338.4092 266.774 337.5151 264.8739 337.9622 263.3091 342.0977 262.5267 346.2332 260.9619 348.1333 259.8442 350.9276 258.2794 353.6101 257.2735 356.4044 256.7146 359.534 256.8264 362.7754 257.3853 364.2284 257.2735 365.7932 256.7146 367.5815 256.3793 370.0405 258.3912 371.8288 258.6147 383.1177 253.9204 389.2651 252.4673 390.3828 250.7908 386.8062 244.308 385.5767 239.7254 384.1237 235.9252 381.2176 234.6957 375.7408 236.9311 374.176 236.8194 368.0286 235.4781 366.9109 234.9193 366.7991 233.3545 367.4697 231.4543 371.27 224.7481 371.9406 223.1833 372.2759 218.0418 372.0524 217.1476 371.27 216.2535 369.3699 214.9122 368.6992 214.1298 368.4757 212.565 368.5875 206.7529 367.4697 202.2821 367.2462 200.0466 368.2521 198.5936 369.5934 197.0288 370.264 193.4521 372.9465 190.9932 372.6112 188.9813 371.1582 185.6282 370.7111 184.5105 370.4876 182.6103 370.9347 178.5866 370.9347 176.5747 370.0405 168.4154 371.1582 165.0623 374.0642 161.3738 376.7468 158.8031 377.1938 158.4678 380.547 156.3441 384.3472 155.3382 388.2592 155.897 388.4827 156.0088 391.0535 157.5736 392.1712 160.815 392.9536 165.5094 393.4007 167.7448 391.0535 166.0682 389.824 165.3976 388.4827 165.0623 386.8062 165.6211 386.4708 166.9624 387.1415 168.5272 390.7182 171.8803 393.6242 179.1454 396.5303 181.6044 397.9833 181.7162 398.095 181.8279 400.2187 181.7162 402.007 181.1573 402.9012 180.0396 403.4601 178.2513 405.5837 175.6805 407.1485 171.7685 408.6015 171.0979 412.1782 170.6508 413.9666 169.7567 417.2079 166.6271 417.7668 166.0682 420.4493 164.1681 420.8964 163.0504 421.0081 162.3798 421.2317 160.4796 421.4552 156.903 422.0141 156.3441 422.4612 155.897 427.7144 155.2264ZM374.7349 934.048L374.2878 933.1538 374.2878 932.9303 374.7349 932.1479 375.9644 931.589 377.3056 931.2537 379.2057 932.3714 379.9881 932.7067 378.5351 933.6009 375.629 933.6009 374.7349 934.048ZM395.9714 927.1182L396.1949 928.4594 396.1949 928.6829 397.0891 929.9124 398.4304 930.6948 399.7716 931.2537 396.7538 933.1538 395.0772 933.8244 393.6242 934.048 389.2651 933.8244 387.9239 933.2656 387.1415 931.1419 389.6004 929.5771 393.4007 928.3476 395.9714 927.1182ZM672.0462 612.7058L672.2697 614.9413 672.8286 616.7296 675.8464 622.0946 676.7406 623.6594 676.2935 624.8889 675.5111 625.6713 671.7109 628.4656 667.7989 630.701 666.0106 632.2658 663.7751 635.8425 662.5457 638.1897 661.4279 643.2194 660.5338 644.8959 660.5338 646.1254 660.6455 646.2372 660.7573 647.1314 660.7573 647.802 660.3102 648.5844 657.0689 651.8257 655.2805 654.1729 654.4981 655.1789 653.604 655.5142 652.3745 655.7377 651.2568 655.9613 650.8097 656.6319 650.4744 657.7496 649.5802 658.8673 648.5743 659.7615 647.4565 659.7615 647.0095 658.8673 646.5624 658.0849 646.0035 654.8436 645.8917 651.6022 646.1153 649.9256 646.1153 649.7021 645.8917 648.8079 646.5624 640.6486 647.1212 639.3074 648.1272 637.8543 648.686 637.4073 650.3626 636.066 651.145 635.7307 651.3685 635.6189 651.4803 635.3954 651.9274 633.4953 652.1509 632.9364 653.8275 632.2658 655.3923 632.2658 657.0689 631.9305 658.7454 630.8128 659.5278 629.695 659.9749 629.1362 660.3102 627.9067 660.3102 627.6832 660.7573 623.6594 661.3162 621.7593 662.2103 620.1945 666.9047 614.0471 668.6931 610.2469 669.8108 606.8937 670.5932 605.6642 672.0462 605.3289 673.2757 607.0055 673.1639 608.7938 672.4933 610.6939 672.0462 612.7058Z" />
</svg>