<?xml version="1.0" encoding="utf-8"?>
<svg xmlns="http://www.w3.org/2000/svg" viewBox="0 0 1021 431" style="stroke-width:0.25px;stroke-linejoin:round;stroke:#444;fill:#ddd" fill-rule="evenodd">
  <path class="PA" d="M83.7107 13.4177L85.7226 14.6472 102.2647 27.8362 112.5476 38.1191 119.0304 41.6958 123.5012 38.5662 123.1659 41.584 122.3835 43.9312 117.6891 52.0905 117.1303 54.1024 117.6891 56.4496 119.2539 58.1262 121.154 59.3557 122.607 60.8087 122.4953 62.7088 120.1481 64.4971 115.789 64.1618 115.3419 66.1737 114.5595 67.515 114.7831 68.4091 115.5655 68.7444 116.5714 68.5209 118.248 69.6386 119.8128 71.7623 120.8187 74.1095 121.2658 76.2331 122.16 77.9097 128.3074 81.7099 129.5369 81.7099 130.7663 79.698 132.89 79.4745 133.8959 78.8039 131.884 75.6743 134.1195 76.3449 135.0136 78.1332 135.5725 80.1451 136.6902 81.7099 138.5903 82.2688 139.9316 81.4864 140.4904 79.698 140.2669 76.9037 141.3846 76.9037 141.6081 79.1392 142.8376 80.2569 144.1789 80.4804 144.8495 79.8098 144.9613 77.6861 145.1848 76.1213 145.9672 75.6743 147.3085 76.9037 147.4202 76.3449 147.4202 75.8978 147.6438 75.5625 148.4262 75.6743 148.7615 77.2391 149.3204 78.4685 149.991 79.4745 150.8851 80.4804 152.0029 80.4804 152.0029 79.2509 153.2323 79.2509 152.6735 81.9334 153.0088 86.6278 152.0029 88.7515 146.7496 85.5101 143.9553 84.5042 139.5963 84.1689 137.6961 85.5101 137.1373 88.5279 137.6961 91.7693 138.9256 93.7812 138.9256 94.8989 138.0315 94.4518 135.4607 93.7812 136.3549 96.2402 140.4904 98.4756 141.3846 100.2639 140.2669 111.6646 139.4845 111.5528 138.9256 111.3293 138.4785 110.9939 137.8079 110.5469 140.714 113.3411 144.8495 115.353 149.0968 115.6883 152.0029 114.0118 158.1503 116.1354 160.3857 117.3649 160.3857 118.8179 162.9564 122.7299 163.7388 123.7359 164.1859 124.2947 164.5212 125.5242 165.0801 126.0831 165.7507 126.3066 167.6508 126.0831 171.004 126.3066 179.1633 123.7359 183.0752 123.2888 185.1989 124.1829 186.9872 125.5242 189.7815 126.0831 192.3523 125.5242 194.8112 123.9594 196.2642 121.9475 195.8172 120.0474 197.7173 119.265 199.2821 119.1532 201.741 120.0474 202.0763 120.718 203.6411 122.1711 205.5413 123.0652 206.4354 121.8358 208.112 121.3887 218.2832 126.0831 221.4128 124.63 222.1952 121.6122 221.6363 114.5706 209.9003 107.9761 203.8647 98.9227 202.2999 97.3579 200.0645 96.3519 196.8231 94.1165 194.1406 91.5458 193.47 89.981 196.1525 89.981 200.5116 91.0987 204.5353 91.5458 206.4354 89.4221 200.8469 86.7396 198.1644 84.8395 199.2821 82.8276 202.8587 82.8276 205.8766 85.063 209.9003 89.981 213.9241 92.9988 214.5947 93.7812 214.3712 95.2342 213.0299 95.7931 211.2416 95.4578 209.9003 94.8989 209.9003 96.0166 211.3534 97.805 212.6946 99.258 213.5888 101.8287 214.8183 102.2758 217.0537 102.2758 221.1892 102.8347 223.76 103.0582 228.0073 107.7526 230.8015 108.535 233.2605 114.3471 234.1547 115.1295 236.6136 116.9178 246.8966 131.7834 253.8264 139.2721 257.2913 141.5075 258.2972 143.0723 260.1974 145.0842 262.2092 146.8725 263.6623 147.5431 265.2271 147.8784 268.3567 148.8844 270.3685 148.8844 273.4981 147.9902 282.4398 149.6668 284.5635 149.1079 289.3696 149.1079 293.3934 151.6787 302.6704 152.2375 309.2649 151.008 318.4301 150.5609 325.0246 149.6668 332.6251 148.7726 340.002 147.5431 341.3432 148.2138 343.0198 147.8784 344.5846 146.7607 345.9259 145.1959 359.4502 140.7251 372.6392 135.1365 375.5452 134.1306 381.9162 134.3541 385.8282 133.2364 387.393 131.1128 388.9578 129.4362 392.5344 124.7418 394.4345 122.2828 396.1111 121.2769 396.67 120.718 397.2288 119.4886 398.2348 118.1473 399.6878 117.7002 402.2585 114.6824 406.2823 112.7823 412.5415 108.9821 415.0004 107.9761 417.7947 105.1818 427.7424 100.0404 440.2607 94.7871 457.2499 89.3103 477.1452 87.7455 479.8277 86.8514 485.4163 83.61 487.0928 82.8276 493.1285 82.157 499.6112 80.4804 505.3116 78.1332 510.2295 75.3389 516.3769 68.2974 523.1949 62.3735 527.554 58.1262 527.8893 56.2261 531.3542 50.6375 535.7133 48.8492 536.7193 48.9609 537.3899 50.6375 537.0546 57.232 537.3899 59.0204 538.284 60.1381 539.8488 61.0322 541.6372 61.144 543.3138 60.2498 544.655 57.1202 544.8785 53.5436 545.8845 51.867 549.2376 54.2142 548.9023 52.7612 548.4552 49.7433 548.1199 48.1785 548.4552 48.5139 549.2376 49.2963 550.4671 48.1785 548.3435 45.1607 549.9083 43.4842 551.9201 44.3783 555.1615 44.1548 558.9617 45.8314 562.0913 51.0846 563.4326 53.0965 562.6502 49.2963 561.756 46.6138 561.756 44.1548 563.4326 41.0252 566.0033 38.7898 571.1448 36.7779 573.9391 34.9895 574.3861 34.4307 574.8332 33.2012 575.1685 32.6424 575.7274 32.1953 576.9569 30.2952 578.5217 29.2892 581.0924 27.5009 582.0983 23.03 583.3278 18.7827 586.3457 17.5532 587.7987 16.3238 586.9045 15.4296 585.0044 16.1002 583.4396 16.5473 582.5454 15.4296 583.6631 14.759 584.6691 13.9766 585.5633 12.1882 588.0222 11.0705 590.0341 9.5057 591.4871 7.8292 594.6167 6.935 597.2992 7.2703 600.7641 6.1526 605.1232 4.1407 608.2528 5.0349 609.147 7.0468 610.0411 8.7233 610.0411 10.0646 608.2528 11.0705 608.2528 12.1882 609.9294 12.9706 610.0411 13.3059 610.6 14.6472 611.4942 14.0883 612.053 13.753 612.6119 13.1942 613.059 12.1882 614.2884 12.1882 615.2944 12.9706 616.7474 13.6413 620.1006 14.6472 620.2123 13.1942 621.4418 9.9528 622.336 11.5176 623.4537 12.0765 624.7949 11.9647 626.0244 11.0705 632.6189 12.6353 642.2312 13.753 653.1848 16.7708 658.8851 18.7827 666.7091 19.7887 669.9505 18.1121 673.1919 17.1062 677.2156 17.4415 680.1217 17.665 683.1395 16.9944 686.3809 15.9884 691.8576 15.5414 698.0051 14.5354 705.2702 13.9766 707.5056 15.3178 707.5056 17.3297 704.5996 18.8945 702.4759 18.5592 700.6876 19.7887 698.7875 20.0122 693.646 20.5711 690.7399 21.1299 688.8398 24.3713 689.2869 28.5068 690.1811 34.0954 693.1989 35.1013 695.9932 34.4307 697.7815 35.3249 700.0169 34.8778 702.2524 34.5425 704.1525 34.3189 705.9408 34.6542 708.3998 34.6542 711.4176 35.9955 713.2059 36.5543 714.7707 37.7838 716.0002 38.9015 716.8944 40.2428 718.1239 40.0193 720.3593 39.7957 721.8123 39.9075 723.4889 40.3546 725.6125 40.131 726.5067 38.4545 728.4068 38.1191 731.6482 38.7898 736.5661 37.8956 737.9074 36.219 740.9252 36.7779 742.8253 36.5543 744.7254 35.7719 747.0726 34.6542 748.8609 36.8897 751.6552 38.2309 753.8906 38.0074 759.591 39.5722 763.503 39.2369 765.7384 40.9134 768.5327 41.3605 770.9916 40.3546 773.0035 38.678 775.9096 37.5603 778.4803 38.2309 781.7217 40.4663 784.1806 41.4723 789.881 41.4723 792.787 43.4842 794.5754 42.7018 797.1461 43.4842 799.0462 45.2725 800.9463 46.9491 805.6407 49.1845 807.429 50.3022 809.888 51.0846 814.3589 51.9788 817.9355 53.8789 820.5063 55.8908 823.1888 57.1202 824.8653 57.9026 826.4301 58.1262 828.7773 58.685 831.0128 60.0263 833.6953 61.5911 836.8249 63.3794 839.5074 63.9383 842.1899 63.4912 843.8664 64.0501 845.9901 65.2795 848.2255 65.6149 851.3551 67.6267 853.0317 69.8622 857.5025 70.8681 863.0911 71.6505 866.3325 72.88 868.4561 74.5565 869.1267 76.792 872.8152 80.8157 875.0506 81.151 878.0684 82.6041 883.8805 89.1986 886.7866 93.7812 889.1338 96.799 891.7045 100.711 897.6284 104.7348 896.7342 102.2758 895.9518 100.1521 894.0517 96.1284 893.8282 93.4459 896.846 94.8989 899.0814 98.9227 900.4227 100.8228 905.1171 104.0641 905.7877 107.9761 907.4642 109.8762 909.6997 111.2175 912.2704 113.4529 912.8293 115.4648 914.3941 117.3649 916.2942 118.9297 916.7413 120.4945 915.0647 123.6241 918.4178 127.5361 920.8768 133.0129 922.6651 134.913 924.2299 133.46 925.0123 133.7953 925.2359 136.2542 928.589 138.3779 932.0539 141.5075 935.9659 146.0901 939.2073 147.5431 938.3131 146.0901 937.1954 145.0842 936.1894 143.8547 935.8541 142.1781 936.7483 141.2839 938.6484 142.9605 940.4367 145.1959 940.9956 146.3136 946.1371 150.3374 945.5782 153.467 948.7078 156.1495 949.7138 153.1317 951.3903 153.467 952.9551 156.4848 952.3963 159.2791 952.0609 161.9616 951.2785 163.9735 953.4022 165.9854 958.879 169.6738 962.9028 171.7975 968.6031 172.8034 973.9681 172.3563 977.0977 170.3444 977.7683 171.1268 978.6625 171.7975 979.6684 172.3563 980.7861 172.6916 980.5626 175.1506 978.7743 176.3801 975.98 176.6036 973.1857 177.2743 970.3914 179.0626 970.1679 180.4039 970.9503 182.1922 971.1738 185.3218 969.1619 189.6809 964.244 194.8223 962.3439 196.8342 960.8909 202.0875 960.8909 205.9994 962.4557 207.0054 967.7089 206.5583 970.615 207.5642 972.4033 209.0173 975.1976 213.9352 977.7683 219.9708 979.1096 231.9304 980.6744 238.1895 982.5745 241.2074 984.6981 241.9898 987.0453 242.1015 989.2807 243.1075 990.5102 244.8958 994.3105 252.8316 998.7813 259.4261 1000.3461 261.7733 1005.3758 271.3856 1009.0642 285.0217 1009.3996 289.1572 1010.5173 291.7279 1012.1938 293.2927 1013.9822 294.634 1015.6587 296.4223 1017 299.2166 1016.1058 299.8872 1009.6231 299.8872 1004.4816 300.8932 998.6695 302.9051 993.4163 305.6993 989.7278 309.276 985.3688 319.3354 980.2273 325.7064 979.6684 327.83 982.0156 332.9715 985.4805 336.3246 986.5982 339.566 981.5685 344.1486 957.3142 359.2377 949.4902 367.1735 945.1311 370.7502 941.2191 371.0855 939.4308 369.0736 937.3072 360.4672 935.9659 358.12 931.2715 351.6373 930.8244 351.302 929.2596 350.9667 928.8125 350.5196 928.8125 349.849 929.4832 348.2842 929.5949 347.8371 927.9184 345.937 919.312 338.5601 917.5237 337.5541 913.3881 339.7895 912.2704 346.2723 913.0528 353.6492 914.6176 359.0142 918.5296 366.6146 919.0884 370.4149 917.5237 374.8857 914.9529 378.0153 911.5998 380.0272 907.7996 380.6978 903.7758 379.6919 897.7402 399.0283 890.6986 421.7178 890.5868 421.7178 886.6748 420.6001 881.7569 416.0175 874.38 406.7405 871.5857 404.8404 870.2444 403.2756 869.6856 401.3755 870.0209 399.4754 870.6915 397.687 871.0268 395.8987 870.2444 394.2221 869.2385 393.4397 868.7914 393.775 868.4561 394.4457 867.8972 394.781 866.556 394.2221 866.1089 393.1044 866.4442 392.2102 867.2266 392.322 865.2147 389.1924 864.097 388.5218 862.4205 389.9748 861.4145 389.9748 857.279 385.1686 854.4847 382.7097 852.4728 381.592 851.914 380.9213 851.4669 379.2448 850.6845 377.5682 848.8961 376.7858 847.8902 376.0034 846.996 374.3268 845.8783 370.8619 844.7606 370.8619 844.09 373.4327 843.6429 371.7561 843.5311 365.6087 842.637 362.4791 840.8486 361.8085 839.1721 363.2615 838.8367 366.2793 837.8308 364.0439 838.1661 362.3673 838.725 360.9143 838.8367 359.0142 838.1661 357.1141 837.3837 356.1081 835.3718 354.3198 831.6834 349.5136 829.2244 347.6135 825.8713 347.1664 826.2066 345.2663 825.536 343.8133 824.0829 342.8074 822.2946 342.3603 823.9712 339.0072 824.8653 336.5482 824.7536 334.3128 823.5241 331.4067 818.2708 323.471 817.4884 321.4591 815.9237 315.8705 812.1234 311.1761 807.8761 307.0406 804.6348 303.0168 802.3993 297.6518 800.9463 292.0633 800.9463 289.9396 801.3934 287.9277 800.9463 286.2512 797.9285 280.6626 797.4814 278.4272 798.3756 275.1858 800.3875 271.9444 802.3993 270.8267 804.4112 276.4153 806.8702 277.533 809.6645 277.0859 811.6763 275.4094 816.5943 277.9801 823.3006 274.5152 829.2244 268.1442 831.6834 261.7733 831.4598 258.1966 830.4539 256.0729 829.0009 254.5081 826.989 252.8316 821.9593 246.9077 819.9474 245.6782 819.9474 244.337 824.6418 244.8958 826.0948 244.5605 828.3303 243.331 828.3303 241.9898 827.3243 241.4309 826.7655 240.9838 826.4301 240.425 825.8713 239.6426 827.2125 239.0837 827.6596 238.9719 828.3303 237.1836 829.7833 238.1895 831.6834 240.0897 832.9129 240.7603 834.3659 241.2074 835.7072 241.2074 838.2779 240.7603 838.5014 240.0897 840.6251 237.1836 841.1839 236.6248 840.8486 231.9304 841.1839 230.0303 841.631 229.8067 844.7606 226.4536 845.543 224.8888 845.8783 223.324 845.8783 219.8591 846.549 218.9649 848.2255 218.1825 849.9021 217.959 850.5727 218.7414 851.4669 225.1123 851.8022 226.4536 853.5905 227.9066 856.3848 229.4714 859.5144 230.8127 861.9734 231.2597 863.8735 232.3774 865.3265 235.06 868.4561 243.331 870.1327 245.6782 872.2563 247.243 874.8271 247.9136 875.7212 247.5783 877.5096 247.0195 879.4097 247.1312 880.7509 249.5902 881.8686 250.4844 883.4334 251.2668 884.8865 251.4903 887.3454 251.4903 887.3454 250.3726 884.6629 249.8138 882.204 248.4725 880.3039 246.4606 879.1861 244.337 887.7925 246.0135 892.3751 247.6901 895.2812 251.0432 899.4167 253.2787 900.3109 254.5081 900.5344 257.0789 901.0933 258.979 902.211 260.2085 903.8876 261.1026 905.7877 260.0967 907.6878 261.1026 909.1408 263.5616 909.8114 266.4677 910.9292 268.3678 913.6117 269.1502 916.4059 268.3678 918.0825 265.9088 913.2763 265.9088 906.9054 258.1966 903.8876 258.7554 895.0576 247.4666 893.2693 246.2371 890.6986 244.784 875.3859 241.9898 871.6975 240.5367 868.6796 237.966 866.6678 234.6129 865.9971 230.7009 862.1969 223.1004 861.191 218.4061 863.7617 215.8353 861.8616 214.6058 859.8497 212.8175 857.8378 210.8056 856.4966 208.5702 855.7142 205.6641 856.1613 203.9876 857.1672 202.8699 857.7261 201.4168 857.5025 199.1814 856.4966 198.6226 854.9318 198.2872 853.0317 196.6107 852.2493 194.7106 852.0257 193.034 851.4669 191.6927 849.5668 190.6868 850.2374 192.2516 850.3492 196.7224 851.2433 198.399 853.4788 199.852 854.3729 200.0756 854.4847 200.5227 854.3729 206.3348 854.5965 207.7878 857.0554 213.4881 857.279 215.2765 856.4966 216.953 855.3789 216.953 852.1375 211.4762 850.0139 208.7937 848.3373 207.3407 845.6548 207.3407 843.3076 208.7937 841.7428 211.588 841.1839 215.1647 840.0662 217.8472 837.4955 219.9708 834.2541 221.3121 831.2363 221.7592 829.6715 221.2003 829.1127 219.7473 829.0009 218.1825 829.3362 216.953 830.3421 215.8353 835.3718 213.2646 836.0425 213.8234 836.4895 214.1587 837.719 214.6058 837.9426 208.9055 837.0484 203.5405 834.1424 194.1517 832.9129 194.1517 831.6834 196.6107 832.5776 198.1755 834.1424 199.6285 835.3718 201.4168 835.1483 204.4347 833.807 207.0054 832.9129 209.0173 834.1424 210.9174 834.1424 212.2586 833.6953 212.5939 833.0246 212.9293 831.6834 213.2646 831.0128 211.9233 829.895 211.1409 829.0009 210.5821 828.3303 209.7997 827.7714 208.3466 827.9949 208.1231 828.6656 208.1231 829.3362 207.3407 831.2363 203.9876 831.0128 202.311 828.3303 201.4168 829.1127 203.5405 828.7773 204.5464 827.8832 205.2171 826.989 206.1112 824.6418 210.9174 821.8475 211.3645 820.3945 209.3526 818.7179 203.764 817.4884 205.1053 817.2649 207.3407 814.9177 210.8056 811.7881 213.8234 809.3292 214.6058 807.7644 211.6998 805.976 201.3051 804.6348 197.8402 805.3054 196.6107 805.7525 195.493 804.6348 195.493 804.6348 196.6107 803.4053 196.6107 803.4053 193.034 802.2876 193.034 801.6169 197.2813 804.7465 205.9994 806.4231 214.3823 809.6645 217.0648 810.4469 219.8591 805.7525 230.0303 804.9701 228.5772 803.7406 227.7948 802.3993 227.236 802.064 227.1242 800.9463 226.4536 797.0343 221.6474 795.1342 220.4179 796.0284 218.2943 795.9166 215.1647 795.1342 212.0351 793.9047 209.7997 792.6752 210.8056 792.0046 211.9233 791.6693 213.1528 791.4458 214.6058 790.6634 212.9293 788.7633 210.5821 787.9809 208.5702 787.9809 206.1112 789.2103 200.1873 787.9809 197.1695 782.9512 190.3515 780.9393 188.2278 783.51 188.3396 785.4101 188.8985 787.1985 189.122 789.2103 188.2278 786.4161 185.9924 785.4101 184.2041 785.7454 178.0567 775.0154 175.0388 775.9096 172.3563 776.2449 171.5739 775.1272 171.4622 774.5683 171.6857 773.7859 172.6916 772.3329 171.7975 771.1034 171.7975 769.7622 172.3563 768.5327 172.6916 767.0796 171.7975 765.9619 169.7856 764.3971 165.5383 766.8561 163.5264 767.7503 160.3968 767.5267 156.8201 766.7443 153.467 765.4031 153.467 765.1795 156.373 765.8502 159.9497 765.7384 162.4087 763.1677 161.9616 760.2616 165.203 755.0084 158.1614 750.2022 158.2732 746.8491 156.1495 743.3842 148.7726 740.7017 146.3136 740.7017 145.1959 742.0429 145.1959 742.0429 143.9664 739.4722 143.184 737.7956 141.6193 736.4543 139.7191 734.666 138.0426 736.119 140.9486 736.3426 143.184 735.3366 144.9724 732.4306 146.3136 729.8598 146.7607 728.1833 146.0901 724.7184 142.1781 723.6007 139.3838 722.8183 136.0307 721.9241 133.1246 699.2345 121.2769 690.2928 119.265 685.822 116.1354 685.1514 115.1295 684.9278 113.4529 685.3749 112.447 686.0455 111.441 686.3809 109.8762 686.4926 106.1878 686.2691 103.17 684.8161 101.2699 681.5747 100.9345 681.5747 99.7051 685.2631 99.3697 688.1692 97.805 690.0693 95.4578 691.187 92.5517 692.193 92.5517 693.7578 94.8989 695.4343 94.7871 698.2286 92.5517 701.6935 91.2105 703.2583 90.3163 704.0407 88.7515 703.0348 89.3103 700.6876 89.5339 699.2345 89.981 698.1168 90.8751 695.8814 93.3341 695.2108 93.7812 693.8695 93.2223 693.4224 92.2164 692.8636 91.2105 691.187 91.3222 690.0693 92.2164 687.9457 95.346 686.9397 96.0166 686.6044 96.4637 686.0455 97.2461 685.0396 98.1403 683.363 98.4756 681.7982 98.5873 680.457 98.9227 679.6746 99.5933 679.3393 100.9345 680.457 102.164 682.6924 102.8347 684.7043 104.2877 685.1514 107.9761 684.369 110.0998 682.5806 113.1176 680.1217 115.2413 677.4392 114.5706 676.3215 114.0118 672.1859 112.8941 671.9624 112.1117 671.18 110.6586 670.2858 110.2116 669.8387 112.3352 666.9327 113.2294 653.073 110.7704 648.4904 111.6646 647.4845 111.6646 647.4845 110.5469 643.2372 111.7763 633.4013 110.8822 629.6011 112.8941 628.0363 111.6646 626.4715 111.7763 624.7949 112.447 621.7771 113.1176 619.6535 113.9 618.3122 114.0118 617.0827 114.4589 616.6356 115.2413 616.5239 116.1354 615.965 116.4707 615.5179 117.0296 610.6 120.0474 610.2647 121.6122 610.4882 123.0652 610.1529 124.2947 608.2528 124.7418 611.2706 129.8833 611.9413 132.0069 609.5941 130.3304 606.7998 127.5361 604.4526 124.2947 603.5584 121.2769 602.4407 121.2769 602.6642 122.2828 602.9996 122.8417 603.5584 123.7359 603.5584 124.7418 602.4407 124.7418 603.6702 129.1009 602.8878 132.9011 600.4288 134.6894 596.5168 133.2364 588.5811 134.6894 586.1221 135.9189 587.0163 138.0426 587.0163 139.1603 585.1162 138.4897 583.8867 137.5955 582.769 137.2602 581.0924 138.0426 580.5336 137.4837 580.31 137.1484 579.9747 137.0366 578.857 136.8131 578.857 138.0426 579.3041 138.6014 579.5276 139.4956 579.9747 140.3898 577.0686 139.9427 574.1626 141.3957 571.9272 143.8547 570.4741 146.3136 569.6917 149.7785 570.4741 160.1733 570.8095 161.1792 571.5919 161.6263 572.486 161.9616 572.8213 162.5205 572.5978 163.6382 572.2625 164.6441 571.7036 165.5383 571.3683 166.8795 570.6977 168.3326 569.8035 169.7856 568.7976 170.9033 568.0152 171.4622 565.8915 172.4681 563.7679 172.9152 563.6561 173.5858 563.7679 174.3682 563.4326 175.0388 560.4147 175.8212 557.6205 177.2743 559.8559 179.3979 565.668 180.7392 571.2565 178.5037 576.398 175.933 578.4099 174.8153 579.0805 174.0329 579.8629 174.0329 579.9747 175.4859 579.3041 176.7154 573.492 181.298 566.5622 187.5572 563.3208 188.7867 557.6205 190.6868 551.1377 192.2516 549.7965 193.9282 550.1318 195.94 549.7965 197.1695 549.2376 197.8402 548.3435 198.1755 546.4433 198.6226 545.7727 198.8461 543.0902 201.3051 541.8607 202.1992 540.2959 202.5345 539.4018 203.3169 537.7252 206.5583 536.831 207.3407 536.4957 208.0113 532.8073 211.1409 520.6242 219.1884 513.6944 223.7711 505.9822 227.7948 493.9109 234.054 488.8812 236.1777 480.6101 237.1836 479.0453 237.0718 476.9217 236.2894 475.9157 236.1777 474.3509 236.513 471.3331 237.966 469.9919 238.4131 465.2975 237.1836 463.062 235.7306 461.9443 234.5011 462.8385 233.6069 461.1619 234.3893 461.0502 235.06 461.2737 236.0659 460.6031 237.1836 457.4735 239.3073 446.5199 250.1491 445.1787 253.3904 445.7375 270.0443 445.514 272.0562 445.1787 272.7268 444.0609 274.1799 446.8552 275.5211 448.1965 278.8743 448.9789 282.3392 450.5437 283.7922 453.1144 284.351 459.7089 287.2571 461.7208 288.7101 467.5329 290.4985 471.1096 296.7576 473.5685 304.0228 475.9157 308.9407 492.4579 322.1297 502.8526 331.6303 518.6123 351.7491 526.6598 366.5029 528.7835 371.6443 528.56 374.9975 525.9892 381.7037 524.648 383.1568 522.5243 383.7156 517.8299 383.9392 516.4887 384.1627 504.3056 388.7453 493.4638 388.7453 491.3402 389.9748 489.2165 388.9689 484.6339 387.8512 482.9573 386.3981 481.8396 386.3981 480.2748 387.1805 474.6862 388.7453 474.6862 389.9748 476.9217 389.7513 478.71 389.3042 480.2748 388.5218 481.8396 387.7394 482.9573 388.7453 470.5507 392.8809 465.9681 396.1222 465.2975 400.7048 468.3153 405.6228 467.7564 407.2993 463.3974 407.8582 462.2796 408.1935 460.9384 409.0877 459.8207 409.9818 459.2618 410.876 458.9265 412.7761 457.697 413.4468 456.1322 413.8938 454.4557 415.0116 453.785 416.4646 453.785 417.6941 453.6733 418.7 452.2202 419.7059 450.9908 419.8177 447.6376 418.8118 445.8493 418.5882 424.7245 421.159 423.495 421.4943 404.6057 424.9592 390.8579 425.518 387.2812 424.5121 386.0517 424.5121 385.1575 425.518 384.2634 425.8534 383.3692 425.518 382.5868 424.5121 381.3573 424.5121 379.0101 426.8593 377.11 425.6298 374.3157 421.0472 373.4216 420.2648 372.0803 419.4824 370.6273 418.8118 368.9507 418.5882 367.2741 418.0294 367.1624 416.7999 368.0565 415.5704 368.9507 415.0116 369.6213 414.2292 369.5096 410.5407 369.6213 409.0877 370.5155 407.8582 372.4156 406.4052 373.0862 405.511 373.7569 403.1638 373.8686 399.9224 373.198 397.1282 368.7272 394.4457 368.8389 391.2043 370.6273 385.8393 369.8449 383.4921 363.5857 376.7858 363.0268 376.4505 361.6856 375.221 360.9032 373.8798 363.0268 372.6503 363.3622 371.1972 363.4739 369.4089 364.1446 367.9559 364.3681 365.944 362.8033 363.485 360.5679 361.3614 358.7795 360.1319 358.7795 359.0142 360.009 359.0142 360.009 357.7847 351.738 349.4019 349.9496 348.5077 348.7201 348.0606 348.0495 347.5018 348.273 345.8252 349.0554 344.3722 350.3967 343.2545 352.0733 342.8074 354.1969 343.3662 353.3028 341.9132 351.4026 340.3484 349.1672 339.2307 347.7142 338.7836 347.3789 337.8894 350.6202 332.748 348.7201 332.8597 347.0436 332.6362 345.7023 332.0773 344.5846 331.4067 345.2552 331.2949 345.7023 331.2949 345.9259 331.0714 345.9259 330.289 341.9021 329.5066 340.3373 327.0476 340.4491 324.3651 341.6785 323.2474 342.6845 322.8003 343.4669 322.0179 344.6964 321.2355 346.4847 320.7884 348.7201 320.7884 350.3967 320.4531 351.5144 319.4472 351.738 317.2118 350.6202 317.2118 346.7083 319.4472 345.4788 314.8646 345.9259 304.0228 342.2374 311.0644 339.5549 313.2998 337.543 309.9466 336.5371 309.9466 336.8724 311.8468 337.543 313.188 338.549 314.1939 340.002 314.8646 340.002 316.0941 332.178 316.0941 330.6132 315.647 328.4895 314.0822 326.3659 313.6351 322.0068 312.4056 321.1127 309.6113 320.6656 307.1524 317.536 306.4817 319.2125 307.1524 319.7714 307.823 319.8832 308.9407 317.6477 309.7231 317.9831 311.0644 321.1127 313.6351 324.0187 315.3117 324.5776 315.4234 324.354 316.9882 323.7952 318.2177 323.5716 319.3354 326.7012 325.3711 325.0246 329.8419 321.2244 333.5304 317.536 336.2129 316.7536 334.8716 316.6418 333.9774 316.9771 333.4186 317.536 332.748 317.536 331.4067 315.077 331.2949 312.7298 331.4067 312.7298 332.748 314.5182 333.195 315.5241 334.201 317.536 337.4424 315.1888 338.3365 314.1828 338.2248 312.7298 337.4424 313.9593 339.566 315.1888 341.019 316.3065 341.019 318.5419 339.7895 321.1127 338.7836 321.7833 340.6837 321.1127 348.2842 321.448 350.296 321.448 351.5255 321.1127 352.9785 320.442 353.8727 318.3184 355.5493 317.536 356.667 316.3065 356.667 314.7417 355.5493 309.2649 352.6432 308.0354 352.4197 307.0295 350.1843 304.9058 349.4019 300.9938 349.4019 286.6871 345.4899 281.9927 345.8252 281.3221 343.9251 280.0926 342.1367 278.7514 340.7955 277.4101 339.9013 273.3864 340.9073 268.3567 340.4602 264.4447 338.8954 264.2211 336.2129 265.6741 335.7658 268.9155 334.0892 270.8156 332.3009 264.1094 330.289 262.2092 330.8479 261.9857 333.8657 257.9619 331.0714 255.9501 330.289 255.9501 329.1713 257.0678 327.6065 256.1736 326.1535 254.6088 324.5887 253.7146 322.6886 254.0499 319.7825 254.8323 317.8824 257.2913 314.8646 257.2913 313.6351 256.0618 312.8527 254.8323 312.5174 253.6029 312.7409 252.4851 313.6351 251.3674 313.6351 250.0262 312.5174 250.0262 311.1761 251.7028 309.8349 251.7028 308.6054 250.2497 307.823 247.7908 307.7112 248.2378 305.0287 248.4614 302.1227 249.4673 300.5579 252.4851 301.6756 252.0381 300.1108 251.2557 298.9931 248.9085 296.9812 249.6909 295.6399 249.4673 293.0692 250.0262 290.9455 248.0143 291.8397 247.0084 291.6162 246.673 291.7279 246.673 293.9634 247.4554 296.3106 247.7908 297.6518 247.2319 298.2107 245.8906 297.9871 244.9965 297.4283 244.4376 296.5341 244.3259 295.1928 243.767 293.2927 240.6374 289.0454 239.5197 287.3689 237.0607 280.7744 235.943 279.0978 234.9371 281.7803 234.7135 283.2333 234.8253 284.9099 232.9252 283.1216 232.9252 280.6626 232.5899 278.2036 229.9074 276.7506 229.9074 275.4094 231.4722 276.3035 232.8134 276.6388 233.9311 276.4153 234.8253 275.4094 235.943 275.4094 236.5019 275.9682 236.949 276.08 238.2902 276.7506 232.4781 265.9088 228.5661 261.1026 226.8895 258.4201 226.4425 255.1788 225.3248 255.1788 224.3188 257.0789 223.9835 259.0908 224.5424 260.5438 226.4425 261.1026 225.3248 262.6674 222.754 265.4617 221.6363 267.0265 220.5186 267.0265 217.389 264.6793 203.9765 259.3143 202.4117 258.4201 195.2583 256.6318 192.7993 256.4083 191.011 255.2905 191.6816 252.608 194.4759 247.9136 192.464 248.5843 190.1168 250.0373 188.2167 252.1609 187.4343 254.5081 186.4284 255.067 183.9694 253.5022 180.3927 250.3726 177.822 252.2727 172.2334 251.9374 166.5331 250.1491 163.7388 247.9136 162.7329 247.9136 162.3976 251.155 158.0385 260.6556 157.7032 260.432 156.9208 259.9849 156.6972 259.9849 156.6972 261.1026 155.6913 261.1026 157.2561 257.0789 157.1443 255.7376 155.6913 256.4083 155.8031 254.9552 156.1384 253.8375 156.6972 253.1669 157.9267 252.8316 157.9267 251.4903 155.5795 251.7139 152.5617 253.3904 150.2145 253.8375 148.7615 253.3904 146.5261 251.0432 144.8495 250.3726 144.8495 249.2549 145.7437 248.9196 146.5261 248.3607 147.3085 247.9136 145.2966 242.5486 145.073 240.0897 146.079 238.4131 146.079 237.1836 145.073 236.4012 144.9613 235.507 145.2966 234.6129 146.079 233.6069 146.3025 234.054 146.3025 234.6129 146.4143 234.9482 147.3085 234.8364 146.4143 232.4892 146.6378 230.7009 148.0909 229.4714 150.8851 228.8008 146.7496 228.689 144.626 228.8008 143.7318 229.4714 141.0493 235.1717 140.8257 236.1777 137.4726 235.8424 134.9019 234.7246 133.5606 232.4892 134.343 228.8008 131.5487 230.0303 128.5309 230.9244 125.4013 231.148 122.4953 230.0303 122.7188 231.2597 123.1659 233.7187 123.5012 234.8364 120.8187 235.2835 115.9008 237.8542 113.6653 238.4131 110.424 237.5189 107.8532 235.507 107.5179 233.4952 110.6475 232.3774 110.6475 231.2597 109.1945 230.7009 108.4121 229.6949 108.1886 228.2419 108.3003 226.4536 106.512 227.7948 106.2884 230.0303 105.5061 232.1539 102.3765 233.6069 102.3765 234.8364 103.0471 235.8424 103.7177 236.9601 104.2766 238.3013 104.7237 239.6426 101.3705 240.3132 100.2528 240.2014 98.7998 239.6426 94.3289 240.425 87.2873 238.5249 75.2161 233.6069 68.9569 232.3774 62.1388 232.3774 55.3208 233.2716 43.1377 237.0718 37.8845 240.0897 33.8607 244.337 31.29 250.3726 30.8429 257.6377 32.0724 264.9029 36.0961 276.7506 36.0961 277.7565 33.9725 280.1037 32.8548 283.0098 31.4018 284.4628 27.8251 282.5627 28.831 278.5389 29.7252 270.8267 20.6717 250.8197 19.8893 245.2311 18.6598 243.4428 15.642 241.878 14.0772 241.6545 11.9536 242.5486 10.9476 242.4369 9.9417 241.6545 8.2651 239.1955 7.371 238.1895 2.5648 235.3953 1 233.7187 1.1118 231.4833 2.6766 230.2538 10.5006 225.7829 18.101 218.5178 23.1307 215.9471 27.9369 214.4941 32.5195 212.2586 36.3197 207.5642 37.8845 202.4228 38.4433 196.2754 37.4374 184.0923 36.0961 178.7273 33.8607 174.2564 31.0664 170.2327 25.5897 164.0853 24.0249 161.8498 23.2425 159.3909 23.466 156.7084 24.8073 155.2553 29.9487 152.014 31.5135 150.1139 31.6253 147.7667 30.1723 146.8725 29.3899 146.0901 31.0664 143.8547 33.0783 142.4017 50.8499 135.1365 56.1032 132.0069 58.4504 128.0949 58.5622 127.8714 57.8915 126.1948 53.4207 118.7062 51.0735 117.1414 43.2495 114.4589 35.3138 108.535 31.4018 106.8584 30.3958 106.1878 29.6134 105.1818 29.1663 103.8406 28.4957 102.4993 27.378 101.6052 25.7014 101.6052 20.56 103.7288 20.56 101.8287 20.2246 73.2153 19.8893 52.2023 19.7776 37.7838 20.2246 34.4307 21.6777 31.9717 24.919 30.854 34.0843 29.5128 36.655 28.0597 36.8785 26.6067 36.0961 26.1596 34.9784 25.8243 34.196 24.8184 33.0783 20.0122 30.9547 16.3238 31.29 14.6472 33.1901 11.8529 36.4315 9.1704 39.6728 8.8351 49.6205 12.7471 56.7738 18.8945 58.4504 19.5651 59.9034 18.8945 61.6917 20.9064 63.8154 25.1537 65.7155 27.1656 67.3921 27.948 70.4099 28.8421 73.6513 29.401 75.8867 29.0657 77.0044 26.8303 77.675 20.124 78.9045 18.2239 81.587 18.671 84.1578 20.124 85.499 20.0122 83.7107 13.4177ZM215.8242 412.6644L217.5008 411.9937 218.842 412.1055 220.5186 412.5526 222.8658 412.6644 220.7421 414.3409 218.5067 418.8118 216.9419 421.0472 217.7243 421.9414 218.2832 423.2826 216.9419 423.2826 214.3712 415.4586 214.5947 413.8938 213.9241 412.8879 213.8123 412.4408 214.5947 411.4349 215.2653 411.4349 215.7124 411.5466 215.936 411.882 215.8242 412.6644ZM329.3837 365.0498L331.7309 363.8204 334.7487 362.7026 340.002 361.4732 342.2374 362.1438 344.5846 362.4791 349.5025 362.4791 347.3789 366.2793 346.0376 367.8441 344.1375 368.5147 342.2374 369.5207 340.8961 369.7442 339.4431 369.0736 338.3254 368.2912 337.3195 367.7323 336.2018 367.5088 334.637 367.397 332.8486 367.7323 331.9545 368.7383 331.3956 369.856 330.5014 370.8619 325.6953 373.3209 323.2363 376.227 322.2304 376.7858 320.7773 376.7858 319.2125 376.4505 317.9831 375.8916 317.536 375.6681 312.7298 377.3447 311.7239 377.3447 313.2887 375.1092 314.9652 373.3209 316.7536 371.9796 318.8772 371.0855 325.0246 370.1913 326.813 368.6265 327.9307 366.7264 329.3837 365.0498ZM240.5256 393.5515L242.6493 394.5574 247.9025 394.1103 248.9085 395.3398 253.7146 404.2815 250.4733 405.6228 246.7848 406.6287 243.0964 406.7405 237.1725 403.2756 229.6838 402.7167 226.4425 401.9343 224.6541 400.3695 220.5186 395.7869 217.1655 393.775 209.9003 387.7394 205.9883 379.3565 204.5353 378.1271 204.2 377.3447 202.8587 372.762 203.5294 372.6503 207.1061 372.6503 208.7826 372.0914 208.6708 371.4208 210.9063 367.5088 211.2416 367.397 211.6887 365.3851 211.6887 363.8204 212.024 362.3673 212.9182 360.8025 214.2594 359.9084 217.389 359.2377 222.3069 355.6611 223.9835 354.7669 224.0953 355.4375 225.3248 355.4375 224.8777 354.0963 224.5424 351.8608 224.0953 350.5196 225.3248 350.5196 225.3248 351.8608 226.4425 351.8608 226.3307 350.9667 226.5542 350.7431 227.1131 350.6314 227.6719 350.5196 231.5839 361.8085 231.8075 363.8204 232.1428 364.1557 233.484 366.2793 233.5958 366.7264 233.3723 368.1794 233.484 368.5147 234.0429 368.6265 235.4959 368.403 235.943 368.5147 237.5078 369.6325 238.6255 370.0795 239.2961 371.0855 239.5197 373.8798 238.5138 374.6622 232.9252 376.7858 232.8134 378.0153 231.4722 383.045 231.1369 383.9392 232.2546 386.0628 235.2724 388.8571 235.943 390.6454 236.2783 392.4338 237.0607 393.8868 238.1784 394.5574 239.5197 393.5515 240.5256 393.5515ZM146.079 253.8375L142.5023 252.8316 140.0433 252.608 138.9256 253.3904 138.9256 254.9552 139.0374 255.7376 140.2669 258.7554 135.4607 255.1788 134.1195 254.8435 130.6546 254.3964 129.5369 253.8375 128.1956 251.155 129.7604 249.5902 135.4607 247.9136 137.9197 249.0314 141.3846 250.1491 144.626 251.6021 146.079 253.8375ZM123.5012 243.331L128.3074 246.7959 124.8425 247.5783 118.9186 250.8197 116.0125 251.4903 113.8889 250.5961 111.4299 248.3607 109.418 245.6782 108.3003 243.331 109.418 243.331 113.33 243.7781 122.2717 237.4072 125.9602 238.4131 128.0838 240.3132 127.9721 241.9898 126.1837 242.7722 123.5012 241.9898 123.5012 243.331ZM683.9219 234.8364L685.0396 237.0718 685.822 240.7603 687.0515 242.2133 687.9457 242.5486 688.8398 243.1075 688.1692 243.7781 686.2691 244.2252 684.4807 243.331 682.2453 244.5605 682.1336 246.0135 683.2513 247.0195 683.1395 248.5843 682.1336 248.696 681.4629 249.5902 681.3512 251.9374 679.004 252.1609 675.9861 246.0135 676.545 243.7781 677.6627 243.8899 677.7745 242.5486 678.5569 240.2014 677.8862 238.5249 678.6686 235.7306 680.7923 233.2716 682.1336 233.0481 682.916 233.2716 683.8101 234.2776 683.9219 234.8364ZM120.1481 273.5092L120.7069 271.3856 121.8246 269.0384 123.5012 267.1383 125.2895 266.0206 127.3014 265.9088 127.7485 267.0265 127.525 268.9266 127.7485 271.162 124.6189 272.6151 122.7188 273.1739 120.1481 273.5092ZM685.5985 221.9827L684.1454 222.8769 680.7923 220.3062 677.7745 218.0707 679.7864 213.8234 682.0218 215.6118 683.8101 217.7354 684.5925 217.0648 685.0396 215.5 685.9338 216.0589 685.2631 218.2943 686.6044 219.0767 686.3809 220.4179 685.5985 221.9827ZM161.3916 57.7909L165.7507 59.8028 167.9861 61.2558 169.7745 63.7147 166.4213 63.2677 162.9564 64.7207 160.1622 67.2914 158.7091 71.3152 157.9267 70.9799 156.0266 68.968 156.1384 68.8562 156.4737 68.7444 156.6972 67.962 156.6972 63.9383 156.0266 62.3735 154.3501 61.3675 154.3501 60.2498 156.6972 61.3675 155.1325 57.6791 152.5617 56.4496 149.4321 55.779 146.079 54.2142 146.079 53.0965 147.0849 52.3141 147.9791 51.867 148.8733 52.2023 149.6557 53.0965 151.2205 53.7671 152.5617 53.9906 154.0147 53.8789 155.6913 53.0965 157.3679 53.9906 161.3916 57.7909ZM125.9602 42.1429L130.6546 38.5662 133.4488 37.4485 136.6902 37.3367 141.4964 44.4901 142.6141 48.9609 140.2669 51.7552 140.2669 53.0965 140.9375 53.9906 141.2728 54.4377 140.9375 55.1084 140.2669 56.4496 137.8079 52.4259 134.2312 48.7374 125.9602 42.1429ZM718.7945 208.7937L718.571 206.7818 719.1298 205.9994 720.8064 206.8936 722.8183 208.1231 723.8242 209.4644 724.6066 211.3645 725.1655 213.3763 725.2772 215.1647 725.2772 216.5059 727.4009 216.953 728.5186 219.1884 728.295 221.2003 726.842 222.0945 726.3949 224.3299 728.7421 228.8008 727.2891 232.7128 725.7243 234.1658 725.7243 235.7306 724.7184 237.0718 722.5947 236.8483 721.7006 236.0659 720.4711 236.2894 719.3534 236.513 718.0121 236.7365 717.565 235.8424 717.2297 234.7246 716.6708 235.8424 715.3296 237.4072 713.8766 239.3073 713.9883 240.8721 713.5413 242.3251 715.2178 244.337 715.5531 247.8019 716.5591 248.5843 717.9003 248.696 717.9003 249.4784 716.7826 250.3726 714.3237 249.0314 712.5353 247.5783 712.7589 245.0076 711.6411 240.9838 710.5234 239.3073 707.3938 237.966 706.3879 237.1836 705.382 235.3953 706.1644 232.7128 707.3938 231.2597 707.9527 228.2419 707.3938 227.1242 705.829 225.4476 705.382 224.1064 706.0526 222.8769 706.835 221.7592 706.835 220.5297 706.0526 217.4001 706.3879 215.8353 704.5996 211.1409 705.1584 208.682 707.3938 208.5702 708.9586 209.6879 715.8884 206.6701 717.4532 208.1231 718.0121 209.0173 718.2356 209.7997 718.7945 208.7937ZM601.7701 149.3315L602.9996 148.3255 604.1173 148.6608 604.6761 148.4373 604.7879 148.9961 604.3408 149.4432 604.8997 150.4492 605.6821 151.008 606.688 151.3433 606.7998 152.3493 606.4645 153.3552 605.6821 153.5788 605.1232 152.6846 604.3408 152.1257 603.1113 152.3493 601.9936 152.014 601.5465 151.008 601.7701 149.3315ZM257.1795 95.2342L257.6266 95.6813 258.5208 96.0166 258.9679 95.6813 259.7503 95.6813 260.7562 96.2402 261.6504 96.9108 262.321 97.5814 262.5446 98.1403 263.1034 98.6991 262.9916 99.1462 262.2092 99.1462 261.3151 98.6991 259.862 98.4756 258.1855 98.252 257.2913 98.252 256.5089 98.4756 256.2854 97.3579 255.9501 96.5755 255.6147 95.9048 255.9501 95.346 257.1795 95.2342ZM174.4689 84.0571L173.5747 83.1629 173.6865 82.3805 174.8042 82.8276 175.4748 83.9453 176.4807 84.5042 177.7102 84.616 178.2691 86.069 178.7162 87.2985 179.8339 87.7455 181.1751 88.4162 180.8398 89.4221 179.275 90.0927 177.9338 90.9869 176.9278 90.6516 175.363 89.5339 174.0218 88.6397 173.1276 87.2985 173.2394 85.8454 174.4689 84.0571Z" />
</svg>