<?xml version="1.0" encoding="utf-8"?>
<svg xmlns="http://www.w3.org/2000/svg" viewBox="0 0 696 1024" style="stroke-width:0.25px;stroke-linejoin:round;stroke:#444;fill:#ddd" fill-rule="evenodd">
  <path class="PE" d="M646.4938 972.3855L639.564 979.2035 636.9933 980.9919 634.5343 981.3272 632.0754 980.9919 629.7282 981.1036 627.9398 983.0037 627.6045 985.4627 628.1634 987.4746 629.1693 989.3747 629.6164 991.8337 629.7282 993.2867 630.0635 994.2926 631.1812 996.3045 631.6283 997.4222 631.8518 998.5399 631.6283 999.6576 628.3869 1007.1463 627.1574 1008.9347 626.1515 1010.0524 624.0278 1011.9525 621.4571 1015.0821 620.4512 1015.8645 619.2217 1016.3116 617.6569 1016.3116 616.3156 1016.7586 612.5154 1018.9941 611.1741 1019.3294 608.2681 1019.6647 602.456 1019.1058 599.6617 1019.3294 598.3205 1020 596.8674 1018.7705 594.1849 1017.0939 590.8318 1014.635 589.1552 1013.5173 587.1433 1012.5113 585.2432 1011.3936 582.5607 1009.9406 579.7664 1007.2581 579.6547 1007.0345 579.3194 1006.4757 578.984 1006.0286 578.7605 1005.9168 578.2017 1005.8051 577.8663 1005.6933 574.7367 1002.7872 573.8426 1002.2284 571.8307 1001.6695 571.1601 1000.9989 570.4894 998.7635 569.9306 997.6458 569.1482 997.0869 568.254 996.7516 566.0186 994.9633 564.9009 994.4044 561.6595 993.2867 560.5418 993.1749 557.7475 990.3806 556.518 989.71 555.8474 989.0394 554.1708 987.0275 553.2767 986.4686 550.7059 985.2392 548.6941 983.7861 547.4646 983.2273 546.3469 983.0037 544.5585 983.2273 544.335 983.3391 544.2232 982.7802 544.5585 982.1096 545.4527 980.9919 545.6762 979.6506 545.4527 978.5329 545.1174 977.4152 544.6703 971.6031 544.4468 970.4854 543.6644 968.2499 543.4408 966.3498 543.2173 966.1263 542.882 966.0145 542.4349 965.6792 540.9818 963.7791 538.97 962.4378 538.8582 962.2143 538.0758 960.426 537.1816 959.7553 536.2875 959.42 534.1638 959.0847 532.9343 958.6376 532.3755 958.3023 531.4813 957.4081 530.4754 956.8493 530.2518 956.7375 521.1983 954.3903 519.1865 953.3844 517.3981 951.9314 514.8274 948.9135 513.4861 947.684 510.5801 945.8957 509.3506 945.3369 508.1211 945.1133 504.768 944.778 504.3209 944.5545 503.9856 943.9956 504.0974 942.7661 503.9856 942.2073 503.2032 941.4249 500.9678 940.1954 500.5207 939.6365 499.9618 938.7424 498.6206 938.0717 496.0498 937.5129 494.7086 936.6187 494.485 935.6128 494.485 934.6068 494.038 933.4891 490.9084 929.9124 489.6789 929.0183 489.12 928.7947 488.5612 928.7947 488.1141 928.6829 487.667 928.3476 487.1081 927.5652 486.6611 927.2299 486.214 927.1182 485.8787 926.8946 484.6492 926.1122 484.0903 925.7769 481.8549 925.4416 478.6135 924.1003 472.9132 924.1003 468.107 922.312 462.2949 918.0647 452.9062 914.7116 451.0061 912.6997 448.6589 911.4702 446.647 910.0172 445.641 909.6818 443.5174 909.7936 442.5114 909.4583 441.729 908.8994 440.9466 908.6759 440.0525 909.0112 439.6054 908.2288 438.823 905.8816 438.3759 905.3228 437.8171 905.0992 436.2523 904.7639 433.2344 903.1991 429.8813 902.4167 423.5103 900.1813 419.263 899.5107 417.9218 900.5166 418.0336 899.0636 417.0276 898.2812 416.4688 897.7223 416.1334 897.387 414.1216 896.7164 410.2096 894.9281 408.6448 893.9221 405.1799 891.4631 401.3796 888.6689 399.8149 887.3276 399.8149 886.657 400.1502 885.9864 399.7031 885.0922 399.1442 884.3098 397.4677 883.5274 392.7733 880.9567 391.9909 880.7331 389.6437 880.3978 388.7495 879.8389 387.9671 878.9448 387.8553 878.3859 387.1847 877.9388 385.8435 877.4917 383.7198 877.9388 381.8197 877.4917 379.9196 876.8211 377.5724 875.1446 377.2371 874.8092 377.1253 873.6915 377.0135 873.1327 376.6782 872.6856 376.6782 871.9032 376.3429 871.1208 375.0017 870.5619 372.3191 869.7795 364.4952 866.3146 360.6949 864.191 355.4417 861.9556 354.2122 860.3908 348.2883 857.2612 346.7235 856.0317 346.0529 855.8081 345.1587 855.9199 344.8234 856.1435 344.4881 856.0317 343.5939 855.3611 341.9174 853.5727 341.3585 853.1256 340.2408 852.7903 339.1231 852.5668 338.3407 852.2315 338.0054 851.3373 337.6701 851.1138 336.7759 850.8902 336.6641 850.4431 336.7759 850.2196 337.5583 849.8843 338.5642 849.549 338.7878 848.7666 338.0054 847.5371 336.4406 846.5311 334.2052 845.637 332.7521 844.1839 333.7581 844.1839 334.4287 843.8486 334.6523 843.2898 334.5405 842.6191 334.3169 842.0603 333.9816 841.6132 331.2991 839.0425 330.1814 838.5954 327.3871 838.1483 326.6047 837.5894 326.0459 836.5835 325.5988 835.2422 323.0281 831.5538 322.6927 830.4361 322.2457 829.8772 320.2338 828.536 319.6749 827.9771 319.5631 827.53 319.6749 825.7417 319.4514 825.4064 317.1042 823.5063 312.5216 821.2708 311.0685 820.4884 309.9508 819.9296 308.6096 819.0354 306.2624 817.0235 303.5799 815.6823 303.3563 815.4587 302.9092 815.1234 302.3504 814.8999 301.9033 814.7881 301.3444 814.5646 300.8974 814.0057 300.562 813.4469 300.2267 812.888 299.7796 812.4409 299.4443 812.2174 297.0971 810.9879 296.3147 810.2055 296.5383 808.976 296.3147 807.6348 296.203 806.2935 295.5323 805.064 294.5264 803.7228 293.9675 803.3875 293.8558 802.7168 294.0793 802.2697 294.5264 801.3756 294.3029 800.9285 293.6322 799.5872 292.4028 798.9166 290.5026 797.7989 289.832 797.1283 288.8261 795.6752 288.0437 794.8928 287.4848 794.6693 286.1436 794.5575 285.6965 794.334 285.2494 793.8869 284.6905 792.0986 286.2553 791.875 286.7024 791.4279 286.7024 790.8691 286.3671 790.0867 285.8083 789.0807 285.4729 788.5219 285.0259 787.2924 284.467 786.2865 283.5728 785.8394 282.6787 785.5041 282.2316 784.7217 281.8963 783.8275 281.5609 783.1569 280.7785 782.7098 278.8784 781.9274 278.8784 783.1569 277.7607 784.9452 276.7548 783.0451 277.2019 781.5921 277.0901 779.4684 276.643 778.2389 277.2019 777.7919 277.2019 776.8977 277.9843 776.4506 277.649 775.8917 277.7607 775.3329 277.8725 774.774 277.3136 774.1034 276.9783 773.2092 277.649 772.9857 277.7607 771.5327 277.4254 770.5267 276.4195 769.9679 276.3077 769.2972 276.3077 768.8502 276.5312 768.4031 276.643 768.0678 276.3077 767.7325 275.7488 767.6207 275.4135 767.8442 275.19 768.7384 274.8547 769.1855 274.184 768.9619 273.1781 769.0737 272.1722 768.5149 271.0545 768.5149 271.0545 767.0618 271.278 766.2794 271.9486 764.3793 272.5075 763.5969 272.2839 762.9263 272.8428 762.4792 273.737 762.7028 274.7429 761.9204 275.7488 761.9204 276.4195 762.0321 276.7548 762.7028 276.1959 763.4851 276.0842 764.2675 276.5312 764.7146 277.2019 765.0499 278.3196 765.8323 278.6549 765.2735 278.7667 764.044 278.9902 762.9263 279.8844 760.3556 280.3315 758.679 280.3315 757.5613 280.4432 755.9965 281.1139 754.2081 281.7845 752.4198 282.6787 747.8372 282.3433 743.5899 281.8963 741.578 280.4432 737.5542 277.649 733.6422 275.8606 731.9657 272.2839 727.2713 267.9249 721.571 266.1365 719.5591 265.8012 718.2178 265.0188 716.9883 264.3482 714.5294 264.6835 712.5175 264.3482 710.2821 263.5658 708.829 263.0069 708.1584 259.2067 704.9171 258.2008 703.5758 255.8536 698.9932 255.4065 698.3226 255.4065 696.7578 255.4065 696.3107 254.9594 695.7518 254.0652 694.8576 252.3887 692.5105 250.0415 690.9457 248.9238 690.1633 248.2531 688.5985 249.3708 687.1454 249.9297 685.1336 249.3708 683.0099 247.5825 681.3333 246.0177 678.5391 240.7645 675.633 237.6349 674.2917 237.076 674.2917 236.8525 673.9564 235.9583 673.0623 235.623 672.5034 235.3994 671.8328 235.623 671.2739 235.8465 670.8268 235.9583 670.268 235.0641 668.0326 233.164 666.6913 231.8228 666.2442 230.8168 665.9089 228.4696 665.6854 228.9167 664.6794 229.5873 663.897 230.1462 663.0029 230.3697 661.6616 230.0344 657.8614 229.5873 656.6319 229.1403 654.9553 228.9167 654.3965 228.1343 653.0552 227.799 651.9375 228.1343 650.5963 227.3519 649.255 227.3519 648.8079 228.3579 648.9197 228.9167 648.1373 228.6932 647.0196 227.3519 644.4488 227.1284 643.3311 226.4578 641.9899 225.6754 640.8722 224.893 640.5369 224.2223 640.2015 223.5517 639.6427 222.6575 638.4132 222.434 638.0779 222.8811 637.519 222.8811 637.0719 222.6575 636.6249 221.6516 635.5072 220.981 634.0541 220.5339 633.4953 220.0868 633.2717 219.4162 633.0482 219.0809 632.6011 218.2985 631.7069 217.4043 631.0363 215.0571 630.0304 213.2688 628.4656 204.7741 623.9947 203.4329 622.877 202.7623 622.3182 202.874 621.6475 202.7623 620.3063 202.427 619.1886 202.874 618.8532 202.6505 618.4062 203.0976 617.9591 203.6564 617.8473 204.3271 618.0708 204.7741 617.7355 205.4448 617.512 205.6683 616.6178 205.5565 615.1648 204.8859 613.9353 204.3271 613.1529 204.5506 612.4823 203.4329 611.141 203.7682 610.5822 203.2094 609.688 203.4329 609.1292 202.9858 608.1232 201.9799 606.8937 202.2034 606.3349 202.7623 605.8878 202.2034 604.6583 201.7563 603.8759 201.8681 603.0935 201.421 601.9758 200.8622 601.0816 200.0798 599.9639 199.1856 598.7344 199.2974 597.8403 197.9561 596.7226 196.9502 595.8284 196.9502 594.9342 197.1737 594.4871 196.2795 593.1459 196.3913 592.8106 194.8265 591.3575 193.9323 590.6869 193.597 590.0163 193.3735 589.4574 192.9264 589.0103 191.6969 587.8926 188.232 581.9688 188.4556 581.2981 187.6732 579.9569 186.6672 579.1745 185.2142 577.945 185.326 577.0508 184.7671 575.8213 183.7612 574.4801 182.867 573.4741 182.7552 572.9153 183.2023 572.3564 183.0905 571.7976 182.5317 571.127 180.408 569.7857 180.2963 568.7798 180.2963 567.3267 179.2903 566.4326 178.8432 565.9855 178.7315 565.0913 178.2844 563.8618 178.5079 563.1912 177.9491 562.4088 177.7255 561.7382 176.7196 560.5087 174.3724 558.385 173.9253 557.2673 173.4782 556.7085 173.4782 556.1496 173.9253 556.0378 174.2606 555.7025 174.2606 555.0319 173.7018 554.3613 173.9253 554.026 173.8135 553.3553 173.8135 552.9083 172.9194 551.6788 172.6958 550.4493 172.3605 549.7787 171.9134 549.108 171.6899 548.5492 171.131 548.3256 171.0193 547.9903 170.6839 547.9903 170.5722 547.655 170.6839 547.3197 171.0193 546.9844 170.9075 546.4255 171.0193 545.7549 170.9075 545.0843 170.6839 544.1901 170.3486 543.743 170.2369 542.7371 170.4604 541.6194 170.9075 540.837 170.9075 539.1604 168.7838 537.1485 166.9955 535.1366 166.6602 533.9072 165.766 532.9012 165.3189 531.8953 164.7601 531.3364 164.0894 530.2187 163.307 529.3245 163.0835 527.5362 163.4188 526.0832 162.4129 525.5243 162.1893 524.5184 162.1893 523.736 161.7422 522.9536 161.2952 521.6123 161.7422 520.9417 162.4129 520.1593 162.0776 519.3769 161.2952 519.2651 160.1774 518.4827 159.9539 516.9179 160.0657 516.0238 160.5128 515.5767 160.8481 515.2414 160.2892 515.0178 159.7304 514.459 159.2833 514.1237 159.0597 513.453 158.2773 513.1177 157.6067 513.2295 157.0479 513.5648 155.8184 512.1118 155.8184 511.5529 155.7066 510.9941 155.1477 510.6587 154.7007 510.2117 155.2595 509.7646 155.7066 509.4293 156.3772 509.2057 156.7125 508.1998 156.8243 507.0821 156.3772 505.7408 155.3713 505.0702 154.2536 504.8466 153.4712 505.0702 153.0241 505.4055 152.8006 505.8526 153.0241 506.2997 153.1359 506.9703 153.3594 508.088 153.3594 508.7586 152.6888 508.5351 152.0182 507.0821 150.9004 505.8526 150.118 505.0702 150.2298 504.3996 150.0063 504.176 150.2298 503.8407 151.0122 504.176 152.3535 504.5113 152.6888 504.0642 152.9123 503.5054 152.9123 502.3877 152.4652 501.0464 151.9064 500.264 151.2358 499.5934 150.4534 499.4816 149.4474 499.5934 149.0003 499.2581 148.4415 498.3639 148.5532 497.4697 148.8886 496.5756 149.2239 496.0167 148.665 495.5696 147.4355 495.0108 147.3238 494.4519 147.7708 494.5637 148.1062 494.2284 148.1062 492.9989 147.7708 491.5459 147.3238 490.7635 146.6531 489.6458 146.3178 488.7516 145.4237 487.8574 144.3059 486.2926 141.7352 482.8277 141.847 482.3806 141.9587 481.8218 142.2941 481.3747 142.9647 480.9276 143.0765 479.3628 142.8529 478.0216 142.9647 477.2392 142.5176 475.7861 142.0705 473.6625 140.3939 471.3153 138.7174 469.1916 136.5937 467.1798 135.3642 466.2856 133.6877 465.615 132.9053 464.9443 132.2347 464.1619 132.4582 463.3795 133.0171 463.4913 133.3524 463.6031 134.023 463.156 134.2465 462.0383 134.2465 460.9206 130.8934 455.8909 130.7816 454.6614 129.4404 452.873 129.6639 452.0906 127.8756 450.0788 122.1752 445.0491 122.1752 443.7078 118.9339 441.5842 112.5629 436.778 109.7686 433.5366 107.9803 430.9659 107.3097 428.7305 104.6272 425.7127 104.0683 425.042 103.5095 424.4832 103.733 424.0361 104.4036 423.8125 105.0743 423.2537 105.186 422.136 104.5154 420.9065 102.5035 417.7769 98.5915 412.4119 97.1385 410.6235 97.0267 409.2823 96.8032 408.2763 96.8032 407.7175 97.362 407.0469 97.5856 406.3762 97.0267 404.6997 96.3561 403.3584 96.4679 402.2407 95.4619 399.7817 93.7854 397.8816 91.6617 395.6462 90.8793 394.8638 91.2146 393.7461 91.3264 392.2931 90.3205 390.9518 84.5084 385.1397 81.7141 382.3454 81.0435 381.2277 78.1374 378.657 77.355 376.9804 77.1315 375.1921 76.3491 373.4037 75.0078 371.8389 74.1136 370.833 67.8545 365.9151 65.1719 364.1267 58.1304 360.103 49.3004 355.6321 34.6584 348.2552 31.3053 346.6904 27.8404 343.3373 23.9284 340.543 19.1222 337.8605 14.3161 334.1721 12.7513 332.1602 11.6336 328.9188 11.7453 326.6834 11.7453 324.3362 11.6336 323.7773 12.7513 322.8832 13.0866 321.7655 13.3101 321.4301 14.5396 321.3184 15.2102 320.0889 15.2102 319.1947 15.7691 318.5241 16.6633 318.6359 17.781 320.2007 19.3458 320.9831 21.3576 321.7655 23.146 321.989 25.1579 320.0889 27.2815 316.1769 27.7286 311.0354 26.2756 306.8999 23.5931 300.8642 21.9165 298.9641 16.8868 294.0462 15.8809 292.9285 14.6514 292.5932 13.9807 292.8167 12.6395 291.8108 11.5218 290.0224 10.1805 288.4576 9.0628 286.7811 9.2864 286.2222 9.6217 285.7751 10.4041 285.5516 10.7394 284.4339 10.6276 283.7633 10.1805 283.2044 10.1805 282.5338 10.9629 282.3102 10.7394 281.4161 10.5158 280.1866 10.9629 279.4042 11.8571 279.516 12.7513 278.9571 13.7572 279.8513 15.322 279.7395 16.2162 278.51 16.4397 276.6099 15.2102 274.0392 13.4219 272.1391 11.7453 270.9096 10.4041 268.8977 9.5099 267.3329 7.6098 264.8739 3.2507 260.1795 1.4624 257.8323 1.6859 257.0499 2.3565 256.7146 3.2507 255.9322 3.0272 254.8145 2.5801 253.585 3.0272 250.7908 3.0272 249.8966 2.8036 248.8906 2.2448 247.7729 1.9095 246.767 2.133 245.9846 2.6919 245.4257 3.1389 245.2022 3.3625 244.8669 3.8096 244.1963 4.592 242.4079 4.592 241.1784 3.8096 238.0488 4.0331 237.0429 4.7037 235.7017 5.4861 234.4722 6.045 233.8015 10.8512 230.5602 12.0806 229.2189 13.0866 227.4306 13.869 226.5364 14.8749 226.2011 15.8809 225.9776 16.4397 225.4187 17.3339 223.6304 20.2399 219.1595 21.9165 217.3712 24.0402 215.8064 26.2756 214.5769 27.058 213.7945 27.3933 212.565 27.5051 211.3355 27.9521 210.2178 28.8463 208.3177 30.2993 206.4176 32.3112 204.8528 40.9176 199.7113 42.4824 198.1465 44.8296 194.7934 45.1649 193.6757 45.612 193.4521 46.1708 193.4521 46.6179 193.1168 47.5121 192.7815 51.2006 192.8933 52.3183 192.6697 53.436 192.2227 54.3301 191.4403 54.6655 190.5461 54.7772 189.8755 55.5596 188.646 55.7832 188.0871 55.7832 187.5283 56.2303 187.7518 57.0127 188.1989 59.1363 188.7578 59.9187 189.3166 59.8069 190.3226 59.4716 191.4403 59.5834 192.558 59.9187 192.8933 60.8129 193.2286 61.1482 193.6757 61.26 194.1228 61.26 194.6816 61.1482 195.6876 60.8129 197.2524 60.7011 197.5877 61.1482 198.0348 61.5953 198.1465 62.1541 198.3701 62.2659 198.9289 62.2659 199.4878 62.6012 200.6055 62.6012 201.1644 62.6012 201.7232 62.2659 202.7292 62.1541 203.288 62.1541 203.8469 62.1541 204.1822 62.4894 205.1881 62.6012 205.747 62.3777 206.1941 62.1541 206.5294 62.0424 206.9765 62.2659 208.0942 63.3836 209.8825 63.8307 211.0002 63.9425 211.4473 63.9425 212.4532 64.0542 212.9003 64.6131 213.4592 65.0602 213.7945 65.3955 214.1298 65.3955 214.6887 64.5013 215.6946 60.254 217.5947 59.4716 218.6007 58.6892 219.8301 57.795 220.9479 56.6773 221.5067 55.5596 221.2832 53.3242 220.0537 52.2065 219.7184 51.0888 219.7184 49.9711 219.7184 48.9651 220.0537 48.1827 220.6125 47.5121 221.5067 46.9532 222.848 46.5062 224.1892 46.3944 224.301 46.3944 225.3069 46.6179 225.9776 47.5121 227.207 47.8474 227.8777 47.8474 228.4365 47.6239 229.4425 47.6239 229.8895 48.7416 232.3485 50.6417 232.5721 52.9889 231.9014 55.5596 231.5661 55.0008 232.7956 47.7356 242.4079 47.5121 243.3021 48.071 244.4198 48.7416 245.0904 51.2006 246.5435 52.0947 246.767 53.1007 246.767 53.5477 246.767 53.9948 246.3199 56.2303 245.0904 60.4776 241.8491 61.3717 240.9549 61.707 240.0607 62.2659 238.1606 62.713 237.3782 63.1601 237.0429 63.7189 236.7076 64.3895 236.484 66.625 236.2605 66.7367 236.1487 67.0721 236.8194 67.9662 237.0429 69.0839 237.2664 70.0899 237.6018 70.984 238.4959 72.7724 240.396 73.8901 241.1784 75.3431 241.9608 76.7961 242.0726 78.1374 242.1844 79.5904 242.5197 81.0435 243.7492 82.1612 245.5375 83.5024 246.8788 85.5143 247.2141 89.2028 246.0964 91.1029 244.9787 93.003 244.7551 94.5678 245.4257 97.2503 248.22 97.6974 248.3318 98.4798 249.0024 98.8151 249.1142 100.1563 249.1142 101.274 249.7848 101.6094 250.3437 101.3858 251.1261 100.1563 253.3615 100.1563 254.4792 101.7211 256.8264 102.3917 260.0678 103.733 262.7503 103.8448 262.862 103.9565 263.868 104.4036 264.9857 105.2978 265.7681 106.4155 266.327 107.4215 267.1094 107.645 267.5564 107.9803 268.6741 108.3156 269.1212 108.7627 269.4565 109.8804 269.9036 110.3275 270.1272 110.9981 271.2449 111.6688 272.3626 112.3394 273.2568 113.6806 273.5921 116.1396 273.4803 117.4809 273.4803 118.4868 273.5921 120.2751 274.2627 121.2811 274.4862 121.8399 274.4862 122.7341 274.2627 123.293 274.3745 123.8518 274.598 124.4107 275.0451 125.4166 276.051 126.9814 274.7098 128.4344 273.2568 128.7697 272.0273 129.4404 269.4565 129.9992 268.5624 131.1169 268.2271 132.57 268.2271 133.7994 267.8917 134.3583 266.8858 134.1348 265.5446 132.9053 263.0856 132.7935 261.6326 133.4641 260.0678 134.4701 258.7265 136.929 256.3793 139.2762 255.0381 144.1942 253.138 144.753 252.6909 146.3178 251.6849 146.7649 250.7908 146.8767 249.7848 146.7649 248.6671 146.9884 247.6612 147.7708 246.4317 148.5532 245.4257 148.665 244.5316 147.4355 243.7492 146.7649 242.6315 146.3178 240.6196 146.2061 238.6077 146.6531 237.49 147.6591 236.5958 148.2179 235.4781 148.665 233.1309 152.0182 226.2011 152.577 223.7421 152.577 220.5008 152.8006 219.6066 153.3594 219.0477 154.03 218.8242 154.5889 218.8242 155.3713 218.6007 156.1537 218.1536 156.3772 217.93 156.3772 217.5947 156.8243 213.571 157.2714 212.4532 157.8303 211.4473 158.1656 211.2238 158.8362 210.8884 159.2833 210.5531 160.6245 209.3237 160.9598 208.2059 160.1774 204.741 160.1774 203.9586 160.2892 203.7351 160.5128 203.6233 161.1834 203.5116 161.6305 203.1762 161.6305 202.6174 161.4069 201.6114 161.4069 199.5996 161.5187 198.4818 161.854 197.3641 162.86 195.2405 162.9717 195.0169 163.6424 192.7815 164.0894 190.4343 164.0894 189.7637 163.7541 188.7578 163.7541 188.4224 164.313 187.3047 165.2072 187.0812 166.4366 187.193 168.7838 187.8636 169.4545 188.4224 169.9015 189.2048 170.5722 192.7815 171.131 193.7875 171.9134 193.4521 172.6958 192.6697 173.7018 192.4462 174.5959 192.1109 175.043 190.9932 174.9312 189.5402 174.2606 188.7578 173.3664 188.0871 172.8076 187.0812 172.8076 185.9635 173.3664 185.1811 175.3783 183.7281 176.049 182.7221 177.7255 179.4807 178.5079 178.5866 181.1904 176.4629 186.6672 169.086 190.691 165.5094 191.6969 164.9505 193.8206 164.2799 195.2736 163.721 202.2034 161.3738 209.0215 158.9149 215.9513 156.5677 222.7693 154.1087 229.5873 151.7615 236.5172 149.3025 243.3352 146.9553 250.1532 144.4964 255.1829 142.8198 256.0771 142.2609 258.4243 140.8079 261.5539 138.4607 264.7953 136.0018 268.0366 133.431 271.278 130.9721 274.5194 128.5131 277.7607 125.9424 281.1139 123.4834 284.3552 121.0244 287.5966 118.4537 290.2791 115.3241 293.0734 112.1945 295.7559 108.9531 298.4384 105.8235 301.2327 102.5822 303.9152 99.4526 306.5977 96.323 309.392 93.0816 311.5156 90.5109 314.5334 87.7166 315.4276 86.7107 315.8747 86.2636 316.5453 84.3635 317.3277 81.1221 319.0043 74.7512 320.6809 68.2684 322.2457 61.8975 323.9222 55.4147 324.5928 52.7322 324.9282 52.2851 326.493 53.7382 327.1636 54.5206 327.4989 55.0794 328.0578 55.5265 329.2872 55.5265 331.6344 55.303 334.2052 55.303 334.6523 55.303 334.6523 54.8559 334.3169 54.297 333.7581 53.8499 333.311 53.2911 333.1992 52.7322 333.311 51.8381 333.311 51.391 330.852 43.1199 330.9638 42.4493 331.2991 41.4433 331.4109 40.8845 331.2991 40.3256 331.0756 39.3197 331.0756 38.7608 331.2991 38.0902 331.858 37.7549 332.5286 37.4196 333.0875 36.8607 333.1992 36.4136 333.0875 35.9666 332.9757 35.6312 332.8639 35.1842 333.0875 33.0605 332.8639 32.0546 332.3051 31.0486 331.9697 30.9369 331.5227 31.1604 331.1873 31.1604 330.9638 30.9369 330.7403 30.2662 330.5167 30.0427 328.3931 28.3661 328.1695 28.0308 327.8342 27.919 327.1636 27.919 326.6047 27.8073 325.9341 27.4719 324.9282 26.466 323.3634 24.3424 322.3574 21.9952 320.6809 15.8477 320.0102 15.0653 319.1161 14.5065 317.9983 14.1712 317.3277 13.8359 316.21 12.7182 315.5394 12.2711 314.9805 12.2711 313.8628 12.3828 313.304 12.2711 312.8569 11.7122 312.298 10.5945 311.9627 9.365 312.298 8.4708 313.0804 8.1355 314.0864 8.4708 315.0923 8.8062 315.9865 9.0297 316.8806 8.9179 317.663 8.9179 318.4454 9.0297 322.2457 11.1534 323.6987 11.2651 325.1517 10.2592 325.5988 10.2592 327.4989 10.5945 328.2813 10.4827 329.0637 10.2592 329.7343 9.9239 330.9638 9.0297 331.6344 8.2473 332.4168 7.912 333.311 7.2414 333.9816 6.459 334.3169 5.7883 334.4287 4.6706 334.9876 4.1118 335.77 4 336.8877 4.1118 339.3466 4.7824 340.4644 5.3413 341.5821 6.1237 343.7057 9.0297 344.3763 9.7003 344.8234 9.8121 345.7176 9.9239 346.2765 10.0356 346.6118 10.2592 348.8472 12.7182 349.5178 13.277 350.7473 13.8359 352.5356 14.1712 353.5416 14.5065 353.9887 14.5065 354.6593 13.9476 356.0006 11.824 356.6712 11.7122 357.7889 12.7182 358.5713 13.7241 360.4714 17.5243 358.9066 18.642 358.4595 19.4244 359.4655 19.7597 360.0243 19.7597 361.142 20.095 362.4833 20.2068 362.8186 20.4304 363.0421 20.6539 363.3774 20.8774 363.7128 21.2128 363.8245 21.4363 364.1598 21.6598 364.9422 21.6598 365.1658 21.5481 365.6129 21.3245 366.06 20.9892 366.6188 20.8774 367.1777 21.3245 368.6307 23.8953 370.9779 26.3542 372.4309 27.4719 375.6723 29.4838 376.3429 30.0427 377.0135 30.8251 377.5724 31.6075 377.7959 31.7193 378.5783 31.7193 378.8019 31.9428 378.9136 32.5017 379.0254 33.0605 379.0254 33.1723 379.1372 33.6194 381.7079 39.2079 381.5961 39.655 380.9255 40.2139 380.702 40.6609 380.5902 41.7787 381.0373 42.5611 382.8256 44.5729 383.2727 44.7965 383.7198 45.02 384.7257 45.02 385.1728 45.2436 384.7257 46.026 385.0611 46.6966 385.6199 47.2554 385.8435 47.9261 385.5081 48.5967 384.7257 48.5967 383.9433 48.3732 383.2727 48.5967 382.8256 49.1556 383.1609 49.7144 384.5022 50.6086 385.0611 51.2792 385.8435 53.8499 387.0729 55.4147 388.526 56.1971 391.7673 56.756 395.1205 58.0972 396.5735 57.9855 397.4677 56.4207 398.0265 56.9795 399.3678 60.7798 399.5913 61.2268 400.0384 61.6739 400.709 61.8975 401.0443 61.7857 401.2679 61.5622 401.9385 61.2268 402.162 61.0033 402.2738 60.668 402.6091 60.5562 403.0562 60.8915 403.0562 61.3386 402.6091 62.3446 402.6091 62.7916 403.3915 63.127 405.0681 62.7916 405.9623 63.127 406.2976 63.574 407.1917 65.8095 408.0859 67.3743 408.6448 67.9331 409.4272 68.3802 410.8802 68.9391 411.7744 69.0508 412.445 69.0508 413.3392 68.6037 414.2333 67.2625 415.0157 66.9272 415.4628 67.9331 416.2452 68.7155 417.2512 69.2744 418.4806 69.4979 419.1513 69.7215 420.1572 70.5039 421.4985 70.8392 421.722 71.2862 421.8338 71.9569 422.2809 72.7393 422.3926 73.4099 422.5044 73.6334 422.7279 73.6334 423.3986 73.5217 423.6221 73.6334 423.7339 73.9688 423.8457 74.4158 423.9574 75.6453 424.0692 75.9806 424.2927 76.4277 424.6281 76.763 425.5222 77.2101 425.1869 77.769 424.4045 78.7749 424.8516 79.6691 426.8635 80.5633 427.5341 81.5692 428.6518 82.3516 429.0989 83.0222 429.2107 83.4693 429.0989 84.1399 429.2107 84.8106 429.7695 87.046 429.7695 88.1637 428.4283 88.9461 427.9812 89.7285 427.3106 91.5168 427.1988 93.6405 428.3165 94.9817 431.7814 97.2172 431.8932 97.3289 432.1167 98.1113 432.2285 98.3349 432.452 98.3349 433.0109 98.2231 433.7933 98.3349 434.3521 98.3349 435.0228 98.4466 435.6934 98.8937 437.0347 100.0114 437.5935 100.1232 438.0406 99.5644 438.9348 98.6702 439.7172 98.5584 441.6173 99.0055 441.9526 98.8937 442.1761 97.4407 442.735 97.4407 444.188 99.0055 444.6351 99.4526 445.1939 99.6761 445.641 99.8997 445.9763 100.5703 445.641 102.5822 445.8646 103.3646 447.2058 104.8176 447.5411 105.7118 447.4294 106.2706 446.8705 107.6119 446.7587 108.3943 446.9823 109.2884 447.3176 109.9591 448.3235 111.4121 448.6589 112.418 448.9942 113.6475 449.3295 114.7652 450.1119 115.4359 448.5471 118.1184 447.9882 119.3479 445.9763 121.1362 445.5293 121.695 445.3057 122.0304 445.3057 122.5892 445.4175 123.1481 445.8646 123.9305 445.9763 124.2658 446.1999 124.6011 446.9823 125.16 447.0941 125.3835 447.4294 127.0601 447.5411 127.5072 448.4353 128.066 450.7825 128.6249 451.2296 129.1837 451.5649 130.3014 452.3473 129.6308 453.0179 128.4013 453.1297 127.8425 456.8182 129.8543 457.0417 130.1897 457.8241 130.8603 458.7183 133.431 459.2771 134.3252 459.7242 134.6605 460.1713 134.6605 462.5185 134.2134 463.3009 133.9899 463.9715 133.3193 465.4245 132.7604 466.8776 132.0898 467.7717 132.4251 469.2248 133.431 469.3365 132.7604 469.5601 132.2015 470.0072 131.8662 470.6778 131.5309 471.0131 131.8662 471.2366 132.4251 471.3484 132.9839 471.5719 134.437 471.9073 134.5487 472.8014 134.2134 473.4721 133.5428 474.9251 130.525 475.5957 129.7426 476.6017 129.8543 477.4958 130.4132 480.0666 132.4251 481.0725 132.6486 486.6611 133.5428 487.1081 133.9899 487.4435 134.6605 488.1141 135.3311 489.12 135.89 490.126 136.1135 491.3554 136.0018 493.4791 135.4429 494.8204 135.2194 495.2674 135.1076 495.3792 134.7723 495.3792 133.6546 495.6028 133.431 497.0558 133.0957 497.6146 133.0957 501.0795 133.8781 501.8619 133.6546 504.3209 130.8603 505.8857 129.519 507.3387 128.9602 509.1271 128.9602 512.592 129.4073 513.4861 129.1837 514.1568 128.5131 514.4921 127.2836 514.8274 126.8365 517.3981 124.8246 519.41 121.8068 519.6336 121.248 520.1924 121.248 523.322 119.2361 524.5515 118.6772 524.9986 119.0125 524.8868 120.9127 525.3339 121.8068 526.4516 121.695 528.2399 120.6891 529.5812 120.9127 530.5871 121.5833 531.5931 122.3657 532.7108 123.0363 535.8404 123.5952 536.511 124.154 536.7345 125.16 536.8463 127.3954 537.1816 128.2895 538.0758 128.6249 538.5229 128.066 539.0817 125.9424 539.7524 125.16 540.3112 125.3835 541.3172 127.0601 542.6584 128.7366 542.7702 129.2955 542.6584 129.7426 541.876 130.4132 541.6525 130.8603 542.3231 131.978 544.1114 131.6427 548.0234 129.7426 548.4705 130.4132 549.4765 130.1897 550.5942 129.6308 551.4883 129.2955 552.0472 129.4073 552.7178 129.9661 553.2767 130.0779 553.8355 129.9661 554.8415 129.1837 556.4063 128.4013 557.524 125.8306 558.7535 125.2717 560.2065 124.9364 560.9889 124.9364 562.3301 125.8306 563.0008 125.9424 563.6714 125.8306 564.1185 125.607 563.6714 124.2658 563.5596 122.9245 564.1185 122.2539 565.6833 122.2539 567.9187 123.2598 569.3717 123.4834 570.4894 123.0363 572.166 124.0422 574.9603 127.0601 576.8604 128.2895 578.8723 128.9602 579.8782 129.1837 581.2195 129.4073 581.5548 129.6308 581.6666 130.0779 581.6666 131.6427 581.8901 131.7545 583.5667 133.2075 583.902 133.7663 584.0138 134.3252 584.0138 135.1076 584.1255 135.7782 584.4608 136.1135 586.6963 136.1135 587.1433 135.89 587.1433 135.3311 587.1433 134.6605 587.2551 134.2134 588.2611 133.6546 588.9317 134.1017 589.6023 134.884 590.4965 135.2194 591.3906 135.3311 592.3966 135.6664 593.4025 136.1135 594.0732 136.7842 594.4085 137.343 594.5202 137.9019 594.8556 138.349 595.5262 138.6843 596.085 138.6843 597.3145 138.1254 597.9851 137.9019 599.1029 137.9019 600.3323 138.0136 601.003 138.5725 600.7794 139.802 600.4441 139.9138 599.5499 140.2491 599.3264 140.5844 599.3264 141.0315 599.5499 141.4785 599.8853 141.9256 600.2206 142.0374 601.5618 141.7021 602.5678 141.0315 603.6855 140.6961 604.915 141.255 605.5856 142.2609 606.368 144.6081 606.9268 145.6141 607.9328 145.9494 608.827 145.5023 609.7211 145.2788 610.8388 146.1729 611.0624 146.7318 610.9506 147.1789 611.0624 147.7377 611.6212 147.9613 612.0683 147.8495 612.4036 147.4024 612.6272 146.8436 612.9625 146.2847 614.0802 145.6141 614.6391 145.9494 615.3097 148.4084 615.645 149.1908 616.0921 149.8614 616.7627 150.3085 617.098 150.4202 616.9862 150.532 615.8685 152.4321 611.5095 159.1384 607.2622 165.8447 603.0149 172.4392 598.6558 179.1454 594.4085 185.8517 590.1612 192.558 585.9139 199.2642 581.5548 205.9705 579.7664 208.7648 582.1136 209.1001 589.4905 212.9003 590.1612 213.3474 593.0672 214.018 594.5202 214.1298 595.8615 213.4592 597.9851 211.5591 599.2146 210.7767 600.7794 210.6649 602.7913 211.3355 604.915 212.9003 606.7033 214.6887 607.9328 216.5888 608.6034 218.4889 608.9387 220.5008 609.4976 222.2891 610.9506 223.7421 616.5392 226.5364 618.104 227.8777 619.2217 229.2189 620.2276 230.5602 621.6806 233.6898 621.7924 235.1428 621.3453 236.5958 620.3394 237.9371 618.551 239.2783 617.7686 239.3901 616.9862 239.1666 616.3156 238.7195 615.645 238.0488 615.4215 237.6018 615.0861 236.2605 614.5273 235.2546 613.4096 234.8075 612.1801 234.9193 611.1741 235.4781 610.5035 236.484 609.6094 238.4959 608.6034 239.5019 607.9328 238.7195 607.5975 237.8253 607.1504 237.2664 606.7033 237.1547 606.2562 237.2664 605.6974 237.0429 603.0149 234.9193 602.5678 234.2486 602.456 233.2427 602.9031 231.119 602.7913 230.0013 602.456 229.2189 601.7854 228.5483 601.1147 228.3248 600.1088 229.8895 599.4382 229.666 598.0969 228.4365 597.2028 228.1012 596.3086 227.9894 595.5262 228.213 594.7438 228.6601 592.5084 230.4484 591.6142 230.6719 591.0553 230.3366 590.9436 229.5542 590.72 228.7718 589.8259 228.4365 588.9317 228.8836 588.5964 229.7778 588.3728 230.7837 587.9257 231.3426 585.355 229.7778 585.2432 228.9954 585.4668 227.9894 585.355 227.207 584.5726 226.9835 583.6784 227.4306 583.1196 227.9894 582.5607 229.666 582.0019 230.1131 580.9959 230.1131 577.531 229.2189 576.9722 229.2189 574.4014 230.5602 573.7308 231.119 573.5073 231.9014 573.9543 233.2427 573.8426 233.6898 572.9484 234.0251 572.166 234.3604 571.7189 235.2546 571.4954 236.2605 570.9365 237.1547 569.26 238.7195 568.5893 239.6136 568.1422 240.6196 566.9128 241.7373 565.795 240.7314 565.0127 239.7254 564.6773 240.9549 563.6714 241.8491 560.7653 240.6196 559.4241 241.1784 558.7535 242.4079 558.3064 242.6315 557.4122 242.5197 556.9651 242.0726 556.4063 240.8431 555.9592 240.5078 555.065 241.0667 554.2826 242.2961 553.612 243.1903 552.0472 241.5138 550.8177 241.2902 549.4765 241.5138 548.6941 242.2961 548.4705 242.9668 548.5823 243.5256 548.5823 244.0845 548.0234 244.7551 547.9117 244.7551 547.5763 244.5316 547.241 244.5316 546.9057 244.6433 546.3469 245.314 546.2351 245.5375 545.4527 245.8728 545.0056 245.5375 544.6703 244.8669 544.1114 244.5316 543.4408 244.4198 540.8701 244.7551 539.1935 244.7551 538.4111 244.8669 537.6287 245.2022 537.2934 245.7611 536.9581 246.8788 536.6228 247.2141 536.1757 247.2141 534.8344 246.8788 534.052 246.9905 531.5931 248.1083 531.8166 246.8788 531.2578 247.1023 530.14 248.22 529.4694 248.4436 529.0223 248.4436 528.5752 248.22 528.0164 247.6612 527.1222 246.9905 526.5634 247.2141 525.8927 247.6612 524.8868 247.7729 524.3279 247.6612 522.9867 246.9905 522.4278 246.9905 521.9807 247.2141 521.869 247.5494 521.7572 247.8847 521.6454 248.22 521.1983 248.3318 516.7275 248.7789 515.8333 249.1142 514.3803 250.0084 511.8096 252.5791 510.133 253.0262 509.2388 253.8086 508.7917 254.1439 508.3447 254.2557 507.7858 254.0321 507.3387 253.8086 506.8916 253.8086 506.4446 254.2557 505.4386 256.2675 504.8798 257.0499 503.762 257.9441 500.7442 259.6207 497.9499 261.6326 497.0558 262.1914 496.0498 262.5267 495.2674 262.5267 493.2556 262.3032 492.5849 262.415 492.3614 262.862 492.2496 263.1974 491.9143 263.5327 489.6789 264.0915 489.12 264.7622 488.6729 267.78 488.1141 268.6741 487.2199 269.233 485.9904 269.9036 485.7669 270.0154 484.9845 270.0154 484.7609 270.1272 484.5374 270.3507 484.5374 270.686 484.5374 271.0213 484.5374 271.2449 484.2021 271.692 484.0903 272.2508 483.755 272.4744 482.8608 272.5861 481.8549 272.6979 480.9607 273.145 480.0666 273.8156 478.7253 275.2686 477.1605 275.9393 476.4899 276.6099 476.2663 277.2805 476.2663 277.7276 476.0428 278.2865 475.5957 278.7336 475.0369 278.8453 472.1308 278.8453 471.0131 278.51 469.8954 278.3982 469.2248 278.9571 468.5541 279.8513 467.66 280.2983 465.4245 280.7454 465.0892 280.6337 464.4186 280.4101 464.195 280.5219 463.9715 280.7454 463.9715 281.5278 463.8597 281.7514 463.0773 282.1985 462.6303 282.3102 461.9596 282.3102 460.6184 282.6455 460.3948 283.4279 460.8419 284.4339 461.289 285.2163 461.6243 286.1105 461.9596 289.4636 461.8479 290.246 461.289 291.0284 460.7301 291.8108 460.2831 292.5932 459.9477 294.9404 459.7242 295.8345 458.1594 299.1877 457.6006 300.976 457.8241 302.7644 458.3829 304.5527 458.3829 306.0057 457.4888 311.1472 456.9299 312.712 456.1475 314.2768 450.4472 321.7655 448.5471 323.5538 445.4175 330.4836 444.188 332.3837 443.4056 334.5074 443.2938 336.9663 443.8527 338.3076 446.5352 341.3254 446.7587 342.2196 447.3176 346.6904 447.6529 347.9199 448.8824 350.3789 449.2177 351.7201 449.2177 352.8378 448.9942 354.0673 448.1 356.3028 446.8705 358.6499 445.3057 360.103 443.4056 361.1089 440.9466 361.7795 437.1464 361.8913 435.9169 362.2266 434.0168 364.015 431.8932 365.3562 428.2047 368.4858 423.7339 371.0565 421.0514 373.292 419.4866 374.1861 418.816 374.745 418.1453 376.198 417.5865 376.8686 415.351 378.3217 414.7922 378.8805 414.4569 379.8865 414.3451 382.9043 413.0039 387.8222 412.2215 389.387 411.8861 390.7283 412.2215 391.6224 412.3332 392.0695 416.1334 397.4345 416.6923 399.7817 417.1394 400.8994 417.2512 401.9054 416.6923 402.9113 415.7981 403.4702 414.6804 403.6937 412.5568 403.582 411.1037 403.6937 410.2096 403.9173 408.1977 405.1468 406.9682 405.5938 405.9623 405.5938 403.7268 404.6997 402.6091 404.6997 402.7209 405.7056 404.2857 408.3881 404.621 409.7294 404.3975 410.6235 403.9504 411.5177 403.8386 412.7472 403.168 413.8649 402.4974 414.2002 400.5972 414.9826 401.1561 415.9886 403.2798 417.218 410.4331 424.7067 411.8861 425.7127 413.6745 426.495 415.6864 427.1657 417.3629 428.5069 417.81 430.6306 417.2512 432.7542 415.4628 433.8719 413.6745 433.2013 412.8921 433.2013 412.7803 434.2073 413.3392 436.778 413.6745 437.5604 415.351 438.9017 417.6982 439.7958 419.7101 440.9135 420.6043 442.7019 421.0514 443.9314 422.8397 446.2785 423.3986 447.6198 423.3986 448.6257 423.0633 450.7494 423.2868 451.7553 423.9574 453.0966 425.5222 455.1085 426.0811 456.5615 426.3046 458.9087 426.6399 459.9146 427.4223 460.5853 431.7814 463.0442 432.3403 463.6031 433.2344 464.7208 433.7933 465.1679 434.3521 465.3914 435.4699 465.615 435.9169 465.7267 436.6993 466.5091 437.1464 467.5151 437.1464 468.6328 436.6993 471.0917 436.6993 472.2095 437.0347 473.1036 439.3818 476.1215 440.3878 477.1274 441.5055 477.6862 444.6351 478.3569 445.7528 478.9157 446.647 479.8099 447.3176 480.9276 448.2118 483.2748 452.4591 489.4222 453.2415 490.0928 455.2534 491.4341 455.924 492.2165 457.4888 494.4519 457.8241 495.3461 458.3829 500.0405 458.1594 501.6053 457.7123 502.723 457.1535 503.3936 454.6945 505.4055 454.5827 506.8585 454.2474 507.5292 453.5768 507.9762 452.6826 508.1998 451.9002 508.3116 451.2296 508.7586 450.6707 509.6528 449.7766 511.4411 448.5471 513.1177 445.641 516.0238 444.4116 517.8121 466.3187 517.9239 473.025 519.2651 473.2485 519.4887 473.6956 519.824 474.0309 519.9358 474.2545 519.824 474.7015 519.6004 474.9251 519.4887 476.0428 519.7122 478.1664 520.3828 480.5136 521.6123 481.5196 521.8359 483.9785 522.1712 487.2199 521.9476 488.3376 522.1712 489.4553 522.73 490.9084 524.0713 491.9143 524.7419 492.4732 524.7419 493.1438 524.6301 493.7026 524.7419 494.038 525.189 494.038 525.7479 493.9262 527.3127 494.1497 528.4304 494.5968 529.4363 496.1616 531.1129 496.4969 532.1188 496.2734 533.2365 495.6028 535.2484 496.2734 537.3721 500.0736 539.831 501.1913 542.0664 501.4149 542.6253 501.8619 543.743 501.9737 544.3019 501.8619 545.0843 500.9678 546.0902 500.6325 546.6491 500.6325 547.7668 500.7442 548.7727 500.6325 549.6669 500.0736 550.8964 502.9796 550.8964 512.7037 550.8964 522.4278 550.8964 532.1519 550.8964 541.876 550.8964 543.8879 550.8964 544.8938 550.6728 545.4527 550.2257 545.6762 549.8904 545.8998 549.5551 546.6822 549.4433 547.3528 549.6669 547.6881 550.0022 548.1352 550.2257 548.9176 550.2257 549.9235 549.6669 551.9354 548.1021 554.5062 547.2079 555.2886 546.202 555.7356 544.8607 556.518 543.6312 557.4122 542.9606 560.9889 541.3958 564.4538 540.5017 565.4597 539.7193 565.795 539.0486 566.4657 537.5956 566.9128 537.0367 567.5834 536.4779 569.0364 535.5837 569.5953 535.0249 571.1601 532.7894 572.0542 531.7835 574.8485 530.3305 575.8545 529.4363 577.9781 527.3127 579.0958 526.4185 582.6725 524.4066 583.6784 523.4007 585.5785 521.0535 586.6963 520.0475 587.814 519.6004 588.9317 519.2651 591.1671 519.0416 591.2789 519.824 591.1671 519.9358 590.6083 520.9417 590.4965 521.8359 590.1612 522.5065 589.1552 522.9536 589.267 523.1771 589.3788 523.6242 589.4905 523.736 588.8199 523.9595 588.3728 524.5184 588.2611 525.189 589.0435 526.5303 588.4846 526.642 587.814 526.5303 587.4787 526.4185 586.0256 526.4185 585.6903 526.5303 586.2492 527.5362 586.6963 529.3245 587.0316 530.3305 587.5904 531.2246 589.267 532.4541 589.8259 533.2365 590.2729 534.466 590.1612 535.4719 589.7141 536.3661 589.0435 537.3721 588.9317 537.7074 588.7081 538.378 588.4846 538.7133 588.1493 538.7133 587.5904 538.378 587.3669 538.378 586.808 538.7133 586.2492 539.0486 585.8021 539.4957 585.4668 540.1663 585.0197 542.4018 585.0197 545.6431 585.0197 548.1021 584.9079 552.6847 584.9079 559.7263 584.9079 566.8796 584.9079 573.9212 584.9079 580.9628 584.9079 588.0044 584.7961 595.046 584.7961 602.0876 584.7961 606.6702 589.4905 602.87 590.72 602.6464 592.173 603.8759 594.5202 606.782 595.9733 608.1232 598.4322 609.3527 601.2265 609.7998 604.0208 609.688 606.7033 609.1292 608.9387 608.3468 622.2395 601.5287 624.4749 601.6405 625.4809 601.9758 626.5986 602.0876 628.834 601.864 630.287 601.9758 631.1812 602.4229 633.1931 603.7641 635.0932 604.0994 641.7994 603.3171 642.8054 603.4288 643.0289 603.7641 643.2525 604.0994 643.476 604.4348 643.5878 604.7701 643.8113 605.1054 644.0349 605.4407 644.2584 605.776 644.3702 606.1113 650.0705 616.1707 655.7708 626.2301 661.4712 636.2895 667.1715 646.4607 672.8718 656.5201 678.5722 666.5795 684.2725 676.7507 689.9728 686.8101 691.3141 689.2691 691.5376 689.7162 690.9788 689.9397 690.6435 690.4986 690.3081 691.6163 689.8611 692.5105 689.3022 693.2928 688.5198 693.9635 686.8432 694.8576 686.1726 695.5283 685.6138 696.3107 685.502 697.2048 686.0608 697.7637 687.8492 698.2108 688.408 698.8814 687.0668 701.3404 686.7315 701.8992 682.1488 703.1287 681.0311 703.7993 680.2487 705.0288 679.5781 706.5936 678.3486 706.3701 677.678 707.4878 677.1191 708.829 675.3308 710.1703 675.1073 711.3998 675.1073 713.8587 675.7779 719.3355 675.8897 720.1179 675.4426 726.8242 675.5543 729.0596 676.3367 733.4187 675.7779 744.3723 675.8897 745.7135 675.5543 747.0548 675.1073 748.396 674.6602 749.0667 673.5425 750.4079 673.0954 750.9668 672.9836 751.7492 673.0954 752.5316 673.0954 753.2022 672.5365 753.7611 671.9777 753.8728 670.3011 753.5375 669.5187 753.6493 668.8481 754.8788 669.9658 756.5553 672.8718 758.9025 673.4307 759.7967 673.4307 760.4673 673.2072 761.138 672.9836 762.0321 673.0954 762.7028 673.766 764.9382 674.7719 766.3912 674.8837 768.2913 674.9955 770.3032 675.219 772.0915 676.0014 773.0975 678.9075 775.1094 679.4663 775.8917 679.8017 776.7859 680.137 778.686 681.4782 782.4862 681.7018 784.3864 680.6958 785.5041 677.0074 786.0629 675.219 786.51 673.766 787.516 673.4307 788.4101 673.4307 789.5278 673.4307 791.7633 673.8778 792.7692 674.6602 793.8869 674.8837 795.0046 673.766 796.0106 670.1893 798.0224 669.1834 798.8048 667.0597 801.2638 666.6127 801.4873 665.7185 801.7109 665.3832 801.9344 665.1596 802.9404 665.3832 805.5111 665.0479 806.1817 663.8184 806.07 662.5889 805.8464 661.5829 805.9582 660.8006 807.0759 660.4652 814.341 659.7946 815.9058 658.9004 816.4647 655.8826 817.2471 654.6531 818.0295 654.0943 818.8119 654.0943 819.7061 654.3178 824.4004 654.2061 824.8475 653.3119 826.9712 653.0883 827.9771 653.4237 828.9831 654.5414 830.1008 655.4355 830.8832 658.5651 835.8011 659.4593 836.6953 662.7007 839.1542 663.5948 839.9366 664.9361 841.9485 666.2773 843.178 666.1656 844.1839 665.2714 844.8546 664.0419 844.8546 662.9242 844.8546 662.2536 847.09 660.3535 847.6488 659.3475 848.6548 658.4534 849.7725 658.118 850.7784 658.7887 852.455 658.7887 852.9021 658.3416 853.1256 656.8886 853.6845 656.3297 854.0198 655.6591 855.0257 655.3238 856.1435 655.212 857.2612 654.8767 858.3789 651.4118 863.7439 650.8529 865.4205 651.1882 867.097 651.8589 868.7736 654.2061 874.5857 656.5532 880.5096 658.7887 886.3217 661.1359 892.1338 662.3653 895.2634 664.2655 897.6106 665.2714 898.5047 666.5009 899.2871 667.7304 899.7342 669.1834 899.7342 669.7422 899.3989 670.86 898.6165 671.4188 898.393 671.9777 898.5047 673.766 899.0636 675.3308 898.5047 676.5603 899.2871 678.7957 901.7461 681.59 902.8638 682.8195 903.758 683.3783 905.3228 682.1488 907.2229 676.1132 909.6818 674.2131 910.576 672.8718 912.3644 672.313 913.3703 672.2012 914.488 672.313 917.8411 672.2012 919.6295 672.4248 920.5237 673.8778 922.6473 673.2072 923.5415 672.313 924.6592 671.4188 925.3298 668.1774 927.0064 667.1715 927.2299 665.2714 927.4535 664.3772 928.0123 663.9301 928.7947 662.8124 931.9243 662.1418 933.1538 656.5532 939.0777 655.1002 942.2073 654.4296 942.9897 652.0824 944.3309 651.7471 944.778 651.6353 945.3369 651.7471 945.6722 652.1942 945.7839 652.4177 946.1193 652.1942 947.0134 651.0765 948.4664 649.6234 949.0253 648.0586 949.2488 646.4938 949.9195 644.8173 951.0372 641.9112 953.7197 641.5759 953.8315 640.57 953.9432 640.3464 954.055 639.7876 955.2845 638.8934 958.5259 637.9992 959.9789 638.111 959.9789 640.9053 960.3142 641.7994 960.6495 643.9231 962.4378 645.0408 963.5556 645.8232 964.5615 646.4938 966.2381 646.6056 968.2499 646.4938 972.3855ZM281.8963 788.4101L282.2316 789.0807 282.4551 789.5278 283.014 789.8631 282.7904 790.3102 282.1198 790.0867 281.2256 789.5278 280.555 789.0807 280.555 788.4101 281.0021 788.2983 281.8963 788.4101ZM268.3719 764.1558L268.7073 764.2675 268.7073 764.9382 268.4837 765.497 267.9249 765.6088 267.366 765.6088 266.9189 765.3853 267.0307 764.7146 267.4778 764.2675 267.5895 763.7087 268.2602 763.7087 268.3719 764.1558ZM225.34 665.3501L227.4637 667.2502 227.9108 667.809 228.1343 668.1443 227.5755 668.0326 226.9048 668.1443 226.1224 667.5855 225.1165 666.9149 224.4459 666.0207 224.2223 665.2383 224.6694 665.0147 225.34 665.3501ZM28.3992 351.1613L28.0639 351.4966 27.7286 352.5025 28.0639 353.1732 28.511 353.732 28.511 354.4026 28.511 355.2968 28.6228 356.3028 27.9521 356.4145 27.2815 356.3028 27.058 355.8557 27.2815 355.2968 27.058 354.4026 26.6109 353.9556 27.058 353.5085 27.1697 352.7261 27.8404 350.826 28.3992 351.1613Z" />
</svg>