<?xml version="1.0" encoding="utf-8"?>
<svg xmlns="http://www.w3.org/2000/svg" viewBox="0 0 1021 706" style="stroke-width:0.25px;stroke-linejoin:round;stroke:#444;fill:#ddd" fill-rule="evenodd">
  <path class="PG" d="M9.3828 88.7729L10.277 88.7729 11.6183 89.3318 13.9655 88.1023 16.5362 88.4376 19.2187 89.3318 22.013 89.7789 24.0249 89.7789 24.919 90.1142 25.4779 90.4495 25.925 90.8966 26.3721 91.1201 27.1545 91.3437 28.831 91.3437 29.6134 91.679 29.9487 92.0143 30.6194 93.4673 30.9547 93.9144 31.8488 93.5791 33.8607 95.591 35.3138 96.2616 36.7668 96.3734 49.844 101.8502 64.9331 109.0035 67.0568 109.3388 67.2803 109.8977 67.2803 110.5683 67.6156 111.2389 70.6334 113.2508 71.9747 113.4744 74.4337 113.0273 78.3457 112.692 79.0163 113.0273 82.7047 116.2686 83.04 116.9393 82.8165 117.4981 82.593 118.2805 82.3694 119.0629 82.4812 119.7336 82.9283 119.8453 84.7166 120.0689 85.2755 120.1806 87.5109 119.3982 88.9639 120.1806 90.5287 121.0748 91.9817 121.6337 93.5465 121.7454 94.5525 122.0807 96.4526 122.9749 104.8354 125.4339 111.9888 128.8988 119.701 131.246 132.89 135.2697 134.343 135.4933 135.1254 135.6051 137.3608 136.8345 138.255 136.9463 139.2609 136.9463 140.1551 137.0581 142.0552 138.2876 147.4202 139.6288 148.985 139.6288 151.2205 139.5171 152.3382 139.4053 153.4559 139.6288 153.903 139.1817 155.0207 139.6288 159.7151 140.0759 160.3857 140.2994 161.6152 141.1936 162.5094 141.4172 163.2917 141.5289 177.5985 143.9879 180.6163 144.9938 181.8458 145.888 185.646 149.6882 186.3166 151.5883 186.6519 152.0354 187.099 152.3707 188.105 152.8178 188.6638 153.1531 189.2227 153.4884 191.2345 154.0473 191.4581 154.3826 192.1287 154.0473 193.0229 153.3767 193.47 153.3767 193.9171 153.6002 194.0288 153.9355 193.5817 154.8297 194.1406 155.6121 194.8112 156.2827 195.8172 156.618 198.1644 156.7298 199.3938 157.0651 200.5116 157.5122 202.9705 161.536 203.8647 162.0948 206.5472 163.3243 207.5531 163.5479 209.1179 164.3303 212.4711 169.1364 214.1476 169.807 216.3831 169.9188 220.7421 169.5835 221.5245 169.6953 222.1952 169.5835 223.9835 169.5835 223.4246 170.1424 222.754 170.4777 221.9716 170.5894 221.1892 170.4777 221.7481 171.2601 222.3069 171.7072 222.9776 172.0425 223.6482 172.6013 224.7659 173.0484 226.4425 172.1542 227.3366 172.6013 227.8955 173.4955 228.2308 174.0543 228.7897 174.1661 229.4603 174.1661 229.6838 173.9426 229.6838 173.719 229.9074 173.2719 230.578 172.6013 231.1369 171.7072 231.4722 170.7012 231.2486 170.0306 233.5958 169.4717 236.6136 169.4717 239.6315 169.807 241.8669 170.4777 242.7611 170.3659 246.226 170.4777 247.2319 170.7012 248.1261 171.7072 248.9085 172.7131 249.4673 173.8308 249.8026 175.1721 249.8026 180.8724 250.2497 181.6548 251.2557 182.4372 251.8145 182.7725 252.4851 183.1078 253.3793 183.4431 261.7622 184.7844 264.4447 185.7903 266.233 187.3551 267.3507 188.1375 269.4744 188.6964 271.0392 189.7023 271.3745 190.0376 271.4862 190.2612 271.598 190.3729 271.7098 190.5965 271.8216 191.0436 271.7098 191.4906 270.8156 191.826 270.4803 192.273 270.4803 193.0554 270.8156 193.9496 271.7098 194.6202 274.7276 195.1791 275.8453 195.738 277.8572 197.7498 279.3102 198.644 279.6455 199.0911 279.6455 201.5501 279.8691 201.8854 280.875 202.4442 283.334 206.0209 285.1223 207.0268 292.1639 209.374 294.7347 209.2623 297.6407 208.5916 300.5468 208.2563 303.1175 209.374 305.9118 212.8389 310.0473 216.1921 312.5063 219.0981 313.0651 220.1041 314.4064 222.0042 315.077 222.4513 315.6359 222.4513 316.0829 222.2277 316.53 222.2277 317.536 223.4572 318.989 226.5868 326.3659 234.8579 327.3718 235.752 328.6013 236.1991 329.719 236.9815 329.9426 237.2051 332.178 237.8757 332.8486 238.5463 333.7428 239.7758 334.5252 241.1171 334.3017 241.6759 333.5193 242.2348 333.0722 243.6878 332.6251 246.7056 332.7369 248.3822 333.4075 251.0647 333.5193 252.5177 333.7428 252.853 334.3017 253.7472 334.5252 254.4178 334.4134 254.9767 333.9663 255.7591 333.5193 256.4297 333.631 256.6532 333.4075 259.1122 333.1839 260.5652 333.0722 261.2359 333.1839 264.1419 333.0722 265.3714 332.6251 266.6009 330.2779 269.954 329.9426 271.407 329.9426 271.9659 330.2779 273.0836 330.3897 273.7542 330.1661 274.6484 328.9366 276.7721 328.8249 279.0075 329.6073 281.1311 330.9485 282.6959 332.8486 283.2548 336.9842 282.5842 338.549 283.0312 339.5549 285.1549 340.002 285.1549 340.1138 284.596 340.3373 283.8136 340.4491 283.2548 340.8961 283.4783 341.1197 283.5901 341.3432 283.7019 342.2374 282.8077 343.1316 282.5842 344.2493 282.4724 345.0317 281.8018 346.2612 283.0312 347.3789 283.4783 348.6084 283.8136 350.1732 284.7078 350.6202 284.2607 350.9556 284.149 351.1791 284.3725 351.5144 284.7078 352.185 284.596 354.5322 285.7138 355.6499 286.0491 357.3265 286.0491 358.1089 286.1608 358.4442 286.7197 358.7795 287.5021 359.5619 287.8374 361.2385 287.8374 362.468 288.508 363.2504 288.7316 364.3681 288.3963 365.0387 288.8433 365.7094 289.4022 366.2682 289.7375 366.9388 289.7375 368.3919 289.4022 369.286 289.2904 370.0684 289.2904 370.6273 289.4022 371.8568 290.1846 372.3039 290.5199 372.8627 290.967 373.6451 291.1905 374.5393 291.1905 374.0922 291.1905 375.5452 291.1905 376.8865 290.8552 378.116 290.8552 379.3454 291.8612 379.6807 292.42 380.0161 293.0906 380.3514 293.6495 382.0279 293.9848 382.8103 294.3201 391.305 301.0264 395.7758 302.2559 398.0112 303.5971 399.576 303.9325 400.1349 304.2678 400.4702 305.609 400.8055 306.7267 401.8114 307.062 402.9292 306.7267 404.0469 306.3914 405.6117 306.1679 406.7294 306.3914 407.7353 306.7267 408.853 306.8385 409.859 307.2856 410.4178 308.2915 410.7531 309.521 411.4238 310.527 414.8887 312.8741 415.4475 312.9859 416.1182 313.0977 416.677 313.3212 417.2359 313.8801 417.7947 313.5448 418.6889 312.8741 419.4713 312.8741 419.9184 312.9859 420.589 313.7683 421.4832 315.2213 422.1538 315.892 422.4891 315.4449 423.2715 315.1096 429.4189 315.892 430.0895 315.892 430.7602 315.6684 431.5426 315.1096 432.1014 314.3272 432.7721 313.6565 433.778 313.3212 434.3369 313.433 436.0134 314.2154 436.4605 314.2154 436.684 314.1036 436.684 313.8801 437.0194 313.5448 437.4664 313.3212 437.8018 313.433 438.1371 313.7683 441.4902 314.9978 444.508 315.3331 445.7375 315.892 446.6317 316.6744 447.4141 317.4568 447.6376 317.6803 448.42 317.7921 448.7553 318.0156 448.8671 318.3509 448.9789 319.0216 449.0906 319.3569 449.5377 319.804 451.4378 320.6981 456.1322 325.169 457.9206 328.4103 458.5912 329.081 459.7089 329.7516 460.3795 331.3164 460.8266 333.1047 461.609 334.1107 463.1738 336.3461 468.2035 338.9168 469.8801 340.5934 470.1036 341.5993 470.1036 342.1582 469.8801 342.7171 469.8801 343.4994 470.3272 344.3936 470.9978 345.0642 471.5567 345.8466 471.892 347.7468 472.5626 349.3116 472.6744 350.2057 472.4508 350.7646 472.0037 351.2117 471.7802 351.8823 472.2273 352.6647 471.4449 353.5589 471.5567 354.5648 472.0037 355.7943 472.2273 357.1355 472.0037 357.4708 470.9978 358.1415 470.7743 358.2532 470.886 359.1474 471.2213 359.5945 471.6684 359.5945 472.2273 359.2592 471.7802 364.736 466.527 366.5243 454.6792 367.1949 454.0086 367.5303 452.8909 368.648 452.332 368.9833 451.5496 368.8715 450.879 368.648 450.0966 368.4244 449.426 368.7597 448.1965 368.9833 443.6139 367.5303 442.1608 367.5303 439.3666 368.3127 437.9135 368.5362 427.407 367.9773 426.6246 367.9773 426.1776 367.3067 425.7305 366.8596 425.0598 366.4125 424.2774 366.189 423.2715 366.0772 419.9184 366.189 419.0242 366.4125 417.3476 367.7538 416.2299 367.9773 413.9945 367.9773 412.765 368.0891 411.8708 368.5362 411.7591 370.101 410.7531 373.007 410.4178 374.4601 410.5296 377.8132 410.9767 380.9428 411.4238 382.5076 413.6592 385.3019 415.0004 386.6431 415.7828 387.5373 416.1182 387.7608 416.9006 387.9844 417.4594 387.8726 418.3536 386.9784 419.2477 386.6431 419.136 387.5373 418.8007 388.2079 418.4653 388.7668 418.2418 389.3256 418.3536 390.2198 419.0242 391.3375 419.2477 392.1199 419.136 393.0141 418.5771 394.5789 418.6889 395.473 419.0242 395.473 422.4891 398.2673 423.2715 399.0497 423.8304 400.0557 424.0539 401.5087 423.8304 404.6383 424.2774 405.6442 424.6128 406.3149 424.3892 406.6502 424.0539 406.9855 423.8304 407.5443 424.2774 408.1032 424.7245 409.3327 425.0598 411.4563 425.1716 412.127 426.2893 413.8035 426.6246 414.4741 426.96 414.6977 427.2953 415.033 427.5188 415.3683 427.407 415.7036 427.0717 415.9272 426.7364 416.0389 426.6246 416.2625 426.96 416.9331 427.2953 417.0449 427.7424 416.9331 428.413 417.2684 428.7483 417.7155 428.7483 418.1626 428.8601 418.4979 429.866 418.6097 430.0895 418.3861 431.2073 417.2684 431.6543 417.2684 432.1014 417.6037 432.325 417.9391 432.4367 418.2744 432.1014 418.6097 436.1252 419.6156 438.1371 420.5098 439.0312 422.0746 439.2548 422.7452 439.9254 423.0805 440.596 423.3041 441.1549 423.3041 442.1608 423.4158 442.8315 423.8629 443.2785 424.4218 444.1727 425.0924 443.6139 425.6513 443.9492 425.8748 444.7316 425.8748 445.4022 426.0983 447.0788 427.3278 447.8612 428.222 448.1965 429.0044 448.1965 431.5751 448.8671 432.2458 452.4438 432.8046 453.4497 433.3635 453.6733 434.2576 453.785 436.046 454.2321 437.499 455.1263 438.505 455.6851 439.6227 455.1263 440.9639 458.3677 440.5168 458.3677 439.958 457.8088 439.7344 457.2499 439.2873 457.0264 438.6167 457.0264 437.7226 458.8147 439.0638 460.2678 440.5168 461.2737 442.5287 461.8326 446.8878 462.2796 448.0055 463.1738 448.7879 464.4033 449.235 465.521 449.3468 467.5329 448.8997 468.9859 448.7879 469.433 449.0114 469.7683 449.4585 470.3272 449.5703 470.9978 449.0114 471.6684 448.7879 472.4508 448.8997 473.2332 449.1232 476.3628 451.4704 477.9276 452.2528 479.3806 452.5881 479.8277 453.147 480.0513 453.7058 480.8337 456.2766 481.5043 457.1707 482.7338 457.2825 484.1868 456.9472 485.3045 456.8354 485.9751 457.6178 486.7575 457.2825 487.5399 457.1707 489.2165 457.1707 489.5518 456.9472 490.6695 456.5001 491.3402 456.5001 490.8931 457.3943 490.7813 458.512 492.2343 464.6594 493.1285 466.2242 493.5756 468.2361 494.8051 470.695 495.2521 472.2598 495.6992 474.16 495.811 476.1718 495.1404 477.7366 497.0405 481.8722 497.3758 483.437 497.264 484.5547 496.5934 487.0136 496.4816 488.2431 496.7052 489.6961 496.9287 491.0374 497.4876 492.0433 498.6053 492.8257 500.9525 494.0552 501.6231 494.9494 503.1879 494.3905 504.5292 494.8376 505.6469 495.5083 506.541 495.8436 506.9881 495.9553 507.547 496.2906 507.9941 496.8495 508.1058 497.5201 508.4411 497.9672 510.9001 498.6378 511.459 499.1967 512.2414 500.985 512.912 501.991 513.9179 502.9969 514.2532 504.2264 514.1415 508.9208 514.9239 513.3916 515.2592 514.0623 515.9298 514.174 516.4887 514.3976 516.824 514.7329 516.9358 515.18 516.824 515.6271 516.4887 516.2977 516.3769 516.633 516.6004 516.9683 517.1593 517.7507 517.3828 518.1978 517.9417 520.9921 519.1712 523.5628 520.9595 525.6865 523.3067 527.0277 529.1188 528.1454 531.466 528.0337 532.4719 528.4807 533.1426 528.1454 535.9369 527.4748 537.0546 527.4748 537.9487 527.2513 538.7311 526.916 540.0724 526.1336 540.8548 525.5747 541.5254 524.7923 541.749 524.0099 542.3078 524.2334 543.4255 524.3452 544.8785 524.2334 545.8845 523.7864 547.3375 524.9041 549.1259 524.7923 553.3732 523.7864 553.8202 523.5628 554.0438 523.3393 554.1556 523.1157 554.3791 522.4451 554.7144 522.2216 555.1615 522.1098 555.6086 521.998 556.6145 520.7685 557.3969 520.0979 558.2911 519.6508 559.0735 521.6627 565.1091 521.2156 566.5622 522.4451 567.3446 521.998 567.9034 521.998 568.2387 522.2216 568.4623 522.8922 568.9094 522.8922 569.58 522.5569 570.1388 522.8922 570.5859 523.6746 570.6977 524.457 570.5859 525.4629 570.1388 526.2453 569.3564 527.4748 569.6917 527.6983 570.0271 527.8101 570.2506 528.0337 570.6977 528.0337 569.6917 528.369 569.1329 528.4807 568.4623 528.4807 569.3564 529.3749 570.5859 529.5985 571.4801 529.822 571.2565 531.275 570.4741 532.281 569.3564 533.1751 568.127 533.5105 567.0092 533.1751 566.5622 533.734 565.4444 535.8576 565.2209 536.64 565.1091 538.0931 564.4385 540.3285 564.3267 541.7815 563.7679 542.8992 561.5325 544.7993 561.0854 546.4759 561.3089 547.9289 562.6502 550.6114 562.8737 552.0645 563.9914 554.5234 566.4504 555.6411 571.2565 556.5353 573.0449 557.4295 573.3802 557.7648 574.1626 558.5472 574.4979 558.7707 574.7215 558.8825 575.5039 558.7707 575.8392 558.7707 576.6216 559.6649 576.7333 559.7767 579.0805 560.6708 578.4099 561.565 579.5276 561.7886 579.7512 561.7886 585.1162 561.7886 586.4574 562.0121 590.4812 563.6887 591.4871 563.5769 592.6048 562.7945 593.2755 562.4592 594.0579 562.571 594.952 563.018 595.6227 562.7945 597.2992 562.2356 597.8581 562.1239 599.4229 562.2356 602.1054 563.2416 605.235 563.5769 608.4763 564.9182 610.0411 564.9182 614.2884 564.3593 616.0768 564.5828 616.7474 565.1417 617.7534 567.1536 618.3122 567.6007 618.7593 567.7124 619.2064 568.0477 619.5417 569.0537 619.7652 570.0596 619.6535 570.2832 619.2064 570.1714 618.2004 570.5067 614.512 572.295 613.1707 572.8539 608.4763 573.7481 605.9056 574.5305 604.3408 574.754 602.9996 574.1952 602.1054 574.9776 598.9758 575.9835 597.8581 576.5424 597.1875 577.9954 597.5228 579.1131 599.3111 581.2367 604.229 585.2605 606.3527 587.8312 606.2409 590.5138 607.9175 590.6255 608.9234 591.0726 611.0471 593.1963 611.9413 593.7551 613.1707 594.314 614.4002 594.6493 615.6297 594.7611 619.5417 594.6493 620.9947 594.7611 622.2242 595.2081 624.5714 596.6612 625.1303 596.7729 626.0244 596.6612 626.695 596.4376 627.9245 595.8788 628.5952 595.767 629.154 595.9905 629.7129 596.6612 630.3835 597.7789 632.5072 598.4495 633.066 598.7848 634.0719 600.2378 635.3014 601.2438 636.1956 601.8026 638.8781 602.2497 641.6724 603.2557 643.1254 603.591 644.4667 603.2557 644.9138 603.3674 645.6961 603.3674 646.3668 603.2557 646.7021 602.9204 649.4964 603.591 651.1729 604.2616 651.9553 604.1498 652.9613 603.3674 653.5201 603.2557 656.4262 603.591 656.0909 604.1498 655.1967 605.1558 655.0849 605.4911 655.4202 606.2735 656.985 607.2794 657.3204 608.1736 658.1028 608.5089 659.8911 608.2854 664.2502 607.1677 668.6092 606.9441 669.6152 606.6088 671.6271 605.044 672.9683 604.5969 674.7567 604.8205 674.5331 605.7146 673.3036 606.6088 670.6211 607.2794 662.2383 611.7503 659.8911 612.6444 657.3204 613.0915 656.2026 612.9798 655.8673 612.868 655.532 612.5327 654.1908 612.6444 651.1729 611.415 649.7199 611.0796 646.9256 610.9679 645.5844 610.6326 644.6902 609.9619 642.9019 609.9619 640.5547 611.862 639.3252 614.4328 640.2194 616.78 640.5547 616.8917 640.6664 616.78 640.7782 616.3329 641.7842 616.8917 644.802 617.0035 646.0315 617.4506 646.5903 617.7859 647.3727 618.0095 649.6081 618.3448 650.2788 618.7919 651.2847 619.5743 659.444 622.145 661.0088 623.3745 661.4559 625.7217 662.3501 626.8394 662.5736 627.51 662.1265 628.2924 661.1206 628.963 652.9613 631.9809 652.2906 631.5338 651.9553 631.422 650.167 631.7573 649.2728 631.8691 648.714 631.9809 647.708 632.7633 647.4845 632.9868 646.9256 633.7692 646.1432 634.4398 645.8079 634.4398 645.5844 634.6634 645.2491 634.9987 644.802 635.5575 644.9138 636.4517 643.9078 636.1164 642.7901 636.0046 641.5606 636.2282 640.7782 636.4517 639.884 634.9987 638.8781 634.4398 637.4251 634.7751 634.2955 636.3399 634.2955 636.4517 633.8484 636.3399 633.2895 636.1164 632.8425 635.7811 632.8425 635.5575 632.1718 635.7811 631.5012 636.2282 630.16 637.4576 629.7129 636.8988 628.1481 635.7811 627.9245 635.334 628.1481 634.8869 628.5952 634.4398 628.8187 633.881 628.0363 633.4339 626.4715 633.7692 624.7949 634.3281 623.789 635.1105 622.6713 633.5457 622.336 633.2103 621.6653 632.9868 621.4418 633.0986 621.1065 633.3221 620.5476 633.2103 619.6535 632.0926 619.0946 631.7573 618.6475 631.7573 618.0887 631.8691 617.418 631.7573 616.7474 631.3102 617.9769 630.5278 617.8651 629.7454 617.1945 628.963 616.7474 628.2924 616.5239 628.0689 616.0768 628.6277 615.4062 629.969 614.8473 629.969 614.2884 629.7454 613.1707 628.963 613.3943 628.7395 613.6178 627.51 612.8354 628.1806 612.6119 628.516 612.1648 628.516 611.8295 627.8453 610.9353 627.3982 609.0352 626.6158 609.4823 627.51 609.2587 627.6218 609.0352 627.6218 608.9234 627.7336 609.0352 628.0689 608.3646 627.6218 607.6939 627.3982 606.9116 627.1747 606.2409 627.0629 606.9116 626.2805 608.0293 625.9452 608.8117 625.4981 609.0352 624.2686 608.5881 624.4922 607.6939 624.7157 607.9175 624.2686 608.3646 623.8216 608.8117 623.598 609.4823 623.3745 609.9294 624.1569 610.6 624.1569 612.3883 623.8216 615.4062 624.604 618.5358 623.598 619.0946 623.3745 619.3182 623.0392 619.4299 621.8097 619.5417 621.4744 619.9888 621.3626 621.4418 621.0273 620.5476 620.5802 619.6535 620.5802 618.7593 620.5802 617.7534 620.5802 617.0827 620.2449 615.6297 619.3507 614.1767 619.0154 613.3943 618.6801 612.9472 618.6801 612.6119 618.7919 612.2766 619.4625 611.9413 619.5743 611.8295 620.0213 611.7177 621.1391 611.3824 622.2568 610.8235 622.9274 610.2647 622.4803 610.0411 621.9215 609.9294 621.4744 609.9294 620.8037 609.8176 620.2449 609.4823 620.0213 609.147 619.9096 609.0352 619.5743 608.3646 617.8977 608.0293 617.2271 607.3586 616.5564 605.5703 615.4387 601.8818 614.321 600.4288 613.3151 599.0876 612.6444 596.8521 612.4209 592.3813 612.5327 590.1459 613.0915 588.9164 613.2033 587.2398 612.5327 586.5692 613.0915 585.675 613.4268 584.5573 613.0915 584.1102 613.5386 585.0044 613.9857 585.0044 614.4328 582.9925 614.4328 582.4337 614.2092 582.2101 612.9798 581.763 612.5327 581.0924 612.7562 580.4218 613.3151 579.7512 613.5386 578.5217 613.0915 579.3041 612.5327 579.3041 612.0856 578.857 611.7503 577.0686 611.415 576.9569 610.9679 576.8451 610.2972 576.5098 609.5149 573.492 608.3971 572.7096 608.7325 571.3683 610.0737 570.6977 610.7443 569.9153 610.1855 568.574 609.7384 567.121 609.4031 565.8915 609.2913 564.9974 609.0678 560.1912 606.6088 559.1853 606.1617 557.3969 605.9382 556.1674 605.6029 555.6086 605.4911 554.2673 605.7146 553.7085 605.7146 553.2614 605.4911 551.6966 606.1617 550.9142 606.3853 550.2436 606.497 549.3494 606.7206 548.567 607.2794 547.8964 607.9501 547.3375 608.3971 545.9963 608.5089 544.655 608.0618 540.0724 605.8264 539.29 605.6029 538.284 605.4911 534.8191 606.0499 533.925 606.0499 532.6955 605.6029 531.8013 605.4911 531.1307 605.2675 531.2425 603.7028 530.6836 603.2557 530.7954 603.0321 531.0189 602.4733 531.1307 602.2497 530.4601 602.2497 530.2365 602.2497 530.5718 601.4673 531.1307 601.0202 531.8013 600.9085 532.6955 600.9085 533.1426 600.3496 532.4719 599.3437 531.5778 598.7848 531.1307 599.7908 530.7954 600.2378 530.013 600.1261 529.3424 599.7908 528.8953 599.4554 528.56 598.8966 527.8893 596.6612 527.4422 596.6612 526.9952 599.4554 526.5481 600.7967 525.3186 601.2438 524.648 602.0262 524.4244 602.3615 524.0891 602.2497 523.3067 601.8026 520.1771 601.8026 518.5006 601.3556 517.7182 601.2438 517.3828 601.5791 516.9358 602.138 516.1534 602.4733 515.1474 602.6968 509.8942 602.6968 508.5529 603.2557 504.1938 601.4673 503.5232 600.6849 502.9644 599.2319 501.6231 598.226 500.3936 598.0024 499.8348 599.0084 498.8288 598.3377 498.0464 597.5553 497.1523 596.7729 495.6992 596.2141 495.0286 596.2141 493.7991 596.3259 493.352 596.2141 493.0167 595.8788 492.5696 594.8728 492.0108 594.314 491.1166 596.7729 488.5459 598.226 485.3045 598.7848 482.7338 598.0024 481.7278 599.679 481.0572 600.3496 480.0513 600.9085 478.8218 600.1261 478.0394 598.7848 477.4805 597.3318 476.8099 596.2141 475.6922 595.5435 474.6862 595.767 473.345 596.1023 471.7802 596.2141 471.7802 595.767 473.0097 595.3199 473.5685 594.2022 473.4568 593.0845 472.6744 592.5256 472.1155 592.5256 471.6684 592.9727 471.3331 593.4198 471.1096 594.8728 470.7743 594.7611 469.8801 593.8669 467.0858 593.1963 465.521 593.6433 462.9503 596.2141 462.5032 596.2141 461.3855 590.5138 460.7149 590.402 459.8207 590.1784 459.1501 589.7314 458.8147 589.396 458.4794 588.949 457.697 588.8372 456.8029 588.8372 456.1322 588.7254 455.2381 588.1666 452.8909 585.8194 452.332 584.7017 451.9967 583.6957 451.1025 582.8015 449.9848 582.0191 449.0906 581.2367 448.6436 580.3426 448.3083 579.2249 448.1965 576.3188 447.9729 574.8658 447.3023 573.6363 441.2667 565.8123 439.4783 563.9122 438.8077 563.018 438.2488 561.9003 437.5782 560.8944 436.237 560.2238 435.7899 560.6708 435.7899 559.1061 435.231 558.1001 434.2251 557.2059 432.9956 556.5353 431.9897 555.9765 431.0955 555.9765 430.8719 556.5353 431.6543 557.8766 430.0895 557.9883 427.9659 557.3177 425.954 556.3118 424.501 555.3058 424.0539 554.5234 423.7186 552.288 423.3833 551.2821 422.6009 550.7232 421.7067 550.4997 420.8125 550.6114 419.6948 550.835 420.0301 551.3938 421.0361 551.8409 421.4832 552.288 421.7067 553.0704 421.5949 553.6293 421.3714 554.0763 421.0361 554.1881 420.2537 554.1881 419.0242 553.6293 417.9065 552.7351 417.0123 550.6114 415.224 547.9289 414.6651 546.6994 413.771 543.3463 413.2121 541.8933 412.0944 540.3285 410.7531 539.9932 407.9589 540.552 407.2882 539.6579 408.0706 539.4343 408.7413 539.099 408.9648 538.5402 408.6295 537.7578 407.9589 537.4224 407.4 535.7459 407.2882 533.734 408.1824 532.1692 407.8471 531.8339 407.5118 531.3868 407.0647 530.9397 406.8411 530.3809 407.2882 530.1573 408.6295 529.822 410.1943 528.7043 410.4178 528.7043 410.8649 528.0337 412.765 526.5806 413.2121 525.6865 413.2121 525.0158 412.9886 524.2334 412.6532 523.6746 412.3179 523.3393 411.4238 523.5628 410.9767 524.2334 410.9767 524.9041 411.2002 525.2394 411.0884 525.6865 408.9648 527.8101 408.1824 528.4807 405.8352 528.5925 403.7116 527.6983 401.6997 526.3571 399.4642 525.2394 398.6818 525.0158 397.4524 525.2394 396.67 525.2394 396.1111 525.0158 395.2169 524.457 390.5226 523.3393 389.2931 522.8922 387.6165 521.7745 386.4988 520.2097 385.7164 518.6449 384.7105 517.3036 384.934 516.4095 384.8222 515.2917 384.3751 514.3976 384.0398 514.0623 384.3751 513.3916 384.4869 512.1622 384.934 511.268 386.0517 511.7151 387.0576 510.9327 387.7283 510.0385 388.0636 509.1443 387.84 507.9149 386.9459 508.809 385.8282 509.2561 385.1575 509.0326 385.6046 507.9149 385.2693 507.6913 384.934 507.2442 384.7105 506.7971 384.7105 506.3501 384.2634 505.4559 383.481 505.2323 382.5868 505.3441 382.1397 505.3441 381.8044 504.897 381.8044 504.1146 381.9162 503.444 381.9162 502.7734 381.5809 501.991 381.2455 501.3204 378.0042 497.7437 377.2218 496.5142 376.8865 495.62 376.4394 494.8376 373.198 493.0493 371.5215 491.4845 365.7094 482.9899 364.927 480.8662 364.8152 478.1837 364.7034 477.6249 364.1446 476.8425 364.0328 476.5072 364.0328 474.3835 363.5857 473.2658 362.9151 472.0363 362.0209 471.1421 359.7855 470.248 357.8854 468.3479 357.3265 467.9008 355.6499 467.6772 354.9793 467.0066 353.8616 464.6594 354.7558 463.877 354.5322 462.7593 353.7498 461.6416 352.8557 460.971 353.5263 460.6356 354.0851 460.1886 354.1969 459.7415 353.8616 459.0708 352.5204 459.4062 350.5085 458.6238 346.9318 456.7237 343.0198 455.8295 340.8961 455.7177 339.1078 456.2766 337.7666 455.2706 333.5193 453.9294 332.6251 452.8117 332.5133 452.5881 332.178 452.2528 331.8427 451.9175 331.7309 451.3586 331.9545 451.1351 332.8486 451.0233 333.0722 450.688 333.0722 450.2409 332.7369 450.0174 332.4015 449.7938 332.178 449.4585 332.2898 449.0114 333.0722 447.4466 332.6251 447.4466 331.8427 448.4526 330.8367 448.4526 329.719 448.229 328.4895 448.7879 329.4955 450.2409 328.266 450.688 324.1305 450.688 323.3481 450.4645 322.0068 449.235 321.1127 448.7879 320.1067 448.8997 319.1008 449.1232 318.0948 449.235 316.9771 448.7879 316.9771 449.235 315.7476 448.8997 311.165 449.6821 309.6002 449.5703 308.3707 449.3468 307.3648 448.7879 303.4528 445.0994 301.5527 444.0935 298.982 443.7582 298.4231 443.87 297.7525 444.0935 297.0818 444.3171 296.2994 444.2053 295.6288 443.87 294.2876 442.5287 293.7287 441.7463 292.8345 441.0757 292.2757 440.1815 291.7168 440.9639 291.158 441.9699 291.2697 442.3052 289.9285 442.4169 288.2519 441.9699 286.7989 441.0757 286.1283 439.7344 285.9047 439.0638 285.4576 438.3932 284.8988 438.1696 284.6752 438.8403 284.6752 440.2933 284.4517 440.6286 283.8928 440.9639 279.6455 440.9639 278.9749 440.5168 276.963 438.1696 276.0689 439.2873 275.2865 439.1756 274.5041 438.505 273.4981 438.1696 273.051 438.2814 272.2686 438.6167 271.8216 438.6167 271.7098 438.3932 271.3745 437.8343 271.1509 437.7226 270.5921 437.499 269.9215 437.0519 269.3626 436.4931 269.3626 436.046 270.3685 434.7047 270.9274 433.4752 271.0392 426.8807 270.8156 425.316 270.0332 424.1982 269.4744 425.5395 269.1391 428.7809 268.5802 430.2339 269.0273 431.3516 268.1331 431.9105 266.7919 432.134 265.5624 432.134 264.5564 431.7987 263.5505 431.0163 262.2092 429.2279 259.7503 427.4396 259.0796 425.8748 258.2972 425.0924 256.6207 423.6394 256.2854 424.8689 256.5089 426.2101 256.956 427.4396 257.1795 428.5573 256.5089 429.5633 255.0559 430.1221 253.2675 430.1221 252.0381 429.7868 251.3674 429.1162 250.6968 427.9985 250.0262 426.769 249.8026 425.763 249.8026 425.0924 249.6909 424.4218 249.4673 423.9747 249.0202 423.4158 248.7967 422.857 248.9085 421.1804 248.7967 420.398 247.7908 419.2803 247.4554 420.0627 247.4554 424.8689 246.8966 427.1043 247.0084 427.8867 247.3437 428.4455 248.7967 429.7868 248.5732 430.4574 247.9025 430.9045 247.2319 431.1281 247.0084 430.9045 246.5613 430.0103 244.8847 428.6691 244.2141 427.8867 243.9905 427.4396 243.767 426.2101 243.767 425.763 243.5435 425.4277 243.0964 425.2042 242.6493 424.8689 242.4257 424.6453 241.7551 423.5276 241.0845 421.2922 240.5256 420.398 240.0785 420.398 240.4139 421.6275 240.5256 424.1982 240.8609 425.2042 241.7551 427.1043 241.8669 428.1102 241.9787 430.3457 242.4257 432.134 242.7611 432.8046 243.4317 433.587 243.9905 434.4812 244.2141 435.5989 244.9965 436.2695 246.3377 438.0579 246.8966 439.7344 245.1083 439.958 244.9965 439.6227 243.6552 437.7226 243.3199 437.499 242.9846 436.7166 242.2022 435.8224 241.1963 434.9283 240.5256 434.4812 239.7432 436.046 238.5138 436.6048 237.396 436.046 236.8372 434.1459 236.6136 432.134 235.8312 430.3457 233.5958 426.9925 233.9311 428.7809 234.7135 430.681 235.1606 432.2458 234.49 433.1399 233.3723 432.5811 231.9193 429.4515 230.8015 428.3338 230.3545 429.1162 229.7956 429.675 228.9014 430.0103 228.119 430.2339 228.119 430.681 229.7956 430.7927 230.2427 431.9105 229.7956 433.4752 229.0132 434.8165 229.6838 435.1518 230.578 435.9342 231.1369 436.8284 231.2486 437.7226 230.578 438.1696 228.119 439.0638 227.1131 439.6227 225.8836 438.2814 225.213 437.9461 224.4306 437.7226 223.6482 437.8343 222.8658 438.0579 222.0834 438.2814 221.4128 437.9461 220.295 437.0519 207.6649 432.6928 202.747 429.7868 201.1822 428.4455 200.5116 427.2161 200.1762 425.8748 197.7173 421.404 197.1584 420.1745 196.9349 419.9509 196.376 419.5039 195.7054 419.2803 194.0288 419.0568 193.3582 419.0568 192.2405 418.7215 190.0051 416.9331 189.3344 416.2625 189.2227 416.0389 188.8873 415.3683 188.4403 416.2625 189.1109 417.2684 191.2345 419.6156 191.9052 420.0627 192.5758 420.1745 194.0288 420.8451 195.5936 421.0686 195.7054 421.5157 195.4818 421.9628 195.3701 422.2981 196.5996 425.0924 201.9646 434.4812 202.4117 435.8224 202.6352 437.1637 202.747 438.8403 203.0823 440.4051 203.7529 441.6345 205.5413 443.7582 208.7826 448.6761 209.7886 451.5822 208.8944 452.8117 208.7826 453.0352 207.5531 452.5881 206.5472 451.4704 205.653 450.2409 204.5353 449.235 203.4176 449.0114 199.5056 448.7879 199.9527 449.1232 200.5116 449.9056 200.9586 450.2409 201.5175 450.4645 202.6352 450.5762 203.1941 450.688 204.4235 451.3586 206.8825 453.9294 205.8766 455.2706 204.7589 455.9413 203.3058 456.1648 197.0466 456.1648 195.8172 455.8295 195.2583 455.3824 194.1406 454.3765 193.5817 453.9294 191.2345 453.147 190.5639 452.8117 189.2227 452.141 187.6579 452.141 183.2988 453.2587 179.4986 453.0352 178.3809 452.6999 177.5985 451.8057 176.4807 449.235 175.5866 447.8937 174.6924 447.2231 173.4629 446.9996 171.6746 446.9996 171.451 446.8878 170.6686 446.5525 169.998 446.3289 169.6627 446.776 169.7745 447.3349 170.2216 447.782 170.7804 448.1173 171.451 448.3408 174.1336 448.6761 174.916 449.235 175.1395 450.9116 175.5866 452.141 176.8161 453.147 182.2928 455.6059 183.0752 456.5001 183.8576 459.1826 187.6579 466.1124 188.2167 467.789 187.7696 469.0185 186.6519 469.6891 185.3107 469.8009 168.2097 470.248 167.5391 470.4715 165.6389 471.701 159.9386 472.0363 144.1789 476.1718 142.7259 476.2836 141.4964 476.0601 134.9019 473.0422 126.2955 471.5892 126.0719 471.4774 125.4013 471.1421 124.2836 471.701 120.9305 472.4834 119.5892 472.5952 118.1362 472.9305 114.336 475.3894 112.8829 475.9483 111.5417 476.0601 108.5239 475.8365 107.0708 475.3894 106.0649 474.4953 105.5061 473.2658 103.9413 466.5595 102.4882 464.7712 99.5822 464.2123 95.782 464.9947 93.4348 465.2183 92.8759 465.33 92.5406 465.6653 91.9817 466.2242 91.3111 466.8948 90.5287 467.0066 89.7463 467.2301 89.0757 467.4537 88.0697 468.1243 87.7344 468.7949 87.958 469.3538 89.0757 469.8009 90.5287 468.3479 91.4229 467.6772 92.4288 467.4537 92.9877 467.2301 93.4348 466.8948 93.8818 466.5595 94.8878 467.0066 95.782 466.8948 98.5762 466.2242 100.4763 465.8889 102.0411 466.2242 102.8235 467.6772 102.9353 469.242 104.9472 475.7248 106.512 477.5131 108.6356 478.7426 111.5417 479.0779 113.8889 478.1837 118.3597 475.1659 120.8187 474.3835 126.0719 475.2777 127.1897 474.9424 129.9839 475.8365 132.3311 477.8484 133.0018 478.1837 134.4548 478.519 138.8139 481.4251 141.3846 482.431 149.7674 484.2194 152.3382 485.1135 154.3501 486.4548 163.0682 493.6081 166.8684 498.1908 168.8803 501.4321 171.451 504.5617 172.1217 505.6794 172.3452 506.5736 172.3452 515.4035 172.7923 517.6389 172.7923 518.7567 172.1217 519.8744 170.5569 521.3274 169.7745 521.8862 168.6568 522.4451 166.6449 523.004 162.8447 523.004 160.8328 523.3393 161.2799 523.7864 160.6092 524.0099 159.268 524.1217 158.1503 524.3452 157.4796 524.2334 157.1443 524.3452 157.0326 524.5688 156.809 525.0158 156.4737 525.4629 156.0266 525.6865 155.0207 525.91 149.0968 527.6983 147.8673 528.2572 146.3025 529.5985 144.7377 530.6044 144.0671 530.8279 143.2847 531.1633 142.6141 531.9457 142.0552 532.8398 141.4964 533.6222 140.1551 534.2928 137.0255 535.6341 134.6783 537.4224 127.4132 540.3285 126.2955 540.9991 125.8484 541.7815 122.16 543.9052 119.4774 544.1287 117.1303 543.4581 115.1184 542.1168 111.877 539.3226 109.5298 537.7578 107.0708 536.64 105.1707 536.8636 103.3824 535.9694 102.3765 535.6341 100.8117 535.5223 99.6939 535.187 96.7879 533.6222 93.323 532.3927 92.4288 532.1692 91.7582 532.3927 90.4169 533.3987 89.6345 533.6222 87.3991 533.5105 77.8986 534.1811 76.5573 534.5164 72.4218 535.9694 71.0805 536.3047 69.404 536.4165 68.0627 536.193 65.2684 535.187 63.7036 534.9635 58.0033 535.9694 56.3267 535.8576 55.7679 536.3047 54.7619 536.7518 53.756 537.1989 52.8618 537.3107 51.7441 536.9754 50.9617 536.3047 50.0675 535.8576 48.9498 536.4165 48.1674 536.193 46.7144 536.193 45.3732 535.9694 44.3672 534.6282 41.5729 532.6163 39.4493 531.6103 36.8785 531.0515 34.3078 531.0515 31.9606 531.7221 26.7074 535.8576 24.5837 536.8636 21.3424 537.1989 18.7716 536.193 11.6183 529.822 9.4946 528.5925 9.4946 520.7685 9.6064 507.6913 9.6064 494.9494 9.6064 482.9899 9.4946 464.9947 9.4946 453.5941 9.4946 450.7998 9.4946 437.9461 9.4946 425.4277 9.4946 407.5443 9.4946 404.7501 9.4946 396.2554 9.4946 385.9725 9.4946 378.5956 8.4887 378.7074 7.2592 378.0367 7.0356 375.9131 5.4708 376.3602 4.912 375.466 4.8002 374.013 4.4649 372.8953 3.2354 372.0011 2.6766 371.3305 2.453 370.6598 2.5648 370.3245 3.2354 369.4304 3.3472 368.9833 2.9001 368.2009 1.5589 366.8596 1 366.189 1 365.5184 1.1118 364.9595 1.4471 364.0653 2.1177 361.8299 2.0059 360.6004 1 360.1534 1.6706 359.1474 2.5648 358.8121 3.6825 358.5886 4.6884 357.8062 4.5767 357.3591 4.1296 356.6884 3.9061 356.2414 4.4649 356.0178 5.0238 355.9061 5.3591 355.6825 5.5826 355.3472 5.5826 353.6706 5.8062 352.8882 6.2532 352.4411 7.2592 352.3294 7.7063 351.6587 7.9298 350.4293 7.5945 349.4233 6.5886 349.5351 6.5886 348.6409 6.365 348.0821 5.9179 347.7468 5.2473 347.635 5.8062 347.2997 6.4768 347.1879 7.1474 347.0761 7.9298 347.1879 7.7063 346.2937 8.1534 345.7349 8.6004 345.2878 8.824 344.6172 8.7122 344.1701 8.0416 343.6112 7.9298 343.2759 7.9298 343.0524 8.2651 342.8288 8.6004 341.4876 9.2711 340.7052 9.4946 340.5934 9.4946 333.44 9.4946 318.1274 9.4946 304.9384 9.4946 292.42 9.4946 274.9837 9.4946 272.1894 9.4946 263.8066 9.4946 250.6176 9.4946 250.3941 9.4946 249.7234 9.4946 235.1932 9.4946 223.2337 9.3828 194.732 9.3828 183.2196 9.2711 169.5835 9.2711 154.8297 9.2711 132.5872 9.2711 115.8216 9.3828 102.7443 9.3828 90.8966 9.3828 88.7729ZM868.7914 698.0376L869.1267 698.2612 869.5738 698.3729 869.9091 698.5965 870.1327 698.9318 869.9091 699.6024 869.5738 699.826 869.1267 699.7142 868.7914 699.3789 868.2326 699.7142 867.7855 699.826 867.4502 699.7142 866.8913 699.3789 866.1089 699.9377 865.3265 700.273 864.5441 700.273 863.6499 699.826 863.4264 700.7201 862.9793 700.7201 862.5322 700.4966 862.0851 700.273 859.0673 700.273 858.732 700.273 858.5085 699.826 858.0614 699.826 857.7261 700.0495 857.1672 700.6084 857.0554 700.8319 856.273 701.0554 855.4906 701.5025 854.9318 701.3908 854.4847 700.273 855.0436 700.3848 855.6024 700.273 856.0495 699.9377 855.9377 699.3789 855.4906 698.9318 855.0436 698.9318 854.4847 699.2671 853.8141 699.3789 853.1435 699.1553 852.8081 698.7083 852.5846 698.2612 852.3611 698.0376 851.6904 698.1494 851.1316 698.3729 850.5727 698.3729 849.9021 698.0376 850.0139 697.7023 850.3492 697.0317 849.6785 696.9199 849.455 696.6964 849.3432 696.2493 849.3432 695.5787 848.6726 696.1375 848.1138 696.8081 847.5549 697.2552 846.8843 697.4788 844.3135 696.0257 843.3076 696.6964 842.637 696.1375 842.4134 695.1316 842.4134 694.2374 842.8605 693.6785 843.5311 693.1197 843.8664 692.4491 843.4194 691.7784 842.637 691.5549 842.3017 691.7784 842.1899 692.1138 841.8546 692.3373 841.2957 692.2255 840.9604 691.8902 840.6251 691.3314 839.6191 691.7784 838.6132 692.3373 836.9366 693.6785 836.6013 692.3373 839.2838 691.1078 839.2838 689.9901 838.6132 689.6548 837.1602 689.6548 836.4895 689.4312 835.8189 688.9842 835.0365 687.6429 834.4777 686.9723 833.9188 686.8605 833.36 687.084 832.9129 687.084 832.8011 686.4134 833.1364 684.9604 833.0246 684.5133 832.1305 684.2898 831.6834 684.0662 831.1245 683.6191 830.6774 683.0603 830.4539 682.6132 830.5657 681.8308 830.7892 681.0484 831.4598 679.5954 834.9248 682.0543 836.266 682.3897 837.4955 682.0543 838.0543 682.0543 838.6132 683.1721 839.1721 683.5074 839.9545 683.6191 840.6251 683.8427 842.3017 684.9604 842.9723 685.2957 844.5371 685.631 845.2077 685.8546 847.1078 687.4194 851.2433 688.9842 854.3729 691.1078 855.1553 691.3314 856.6084 691.4431 864.3206 693.5668 864.9912 693.9021 865.2147 694.6845 865.7736 695.3551 866.3325 695.914 867.8972 696.2493 868.2326 696.8081 868.7914 698.0376ZM903.7758 681.719L903.8876 682.3897 904.1111 683.1721 904.5582 683.9545 905.1171 684.2898 904.67 685.1839 904.2229 685.7428 903.5523 686.3017 902.8816 686.7487 902.3228 685.631 901.0933 685.1839 899.5285 684.9604 898.1872 685.2957 895.84 686.5252 894.8341 686.4134 894.4988 684.7369 894.1635 684.7369 893.7164 686.5252 892.7105 687.3076 891.2574 687.3076 889.4691 686.7487 888.4631 686.7487 887.9043 686.4134 887.6807 685.5193 887.3454 685.0722 886.7866 684.6251 886.0042 684.4015 885.3336 684.2898 885.6689 683.8427 886.116 683.3956 886.563 683.0603 887.2337 682.8367 886.8983 682.6132 886.2277 681.4955 886.6748 681.4955 886.8983 681.6073 887.2337 681.9426 888.3514 682.6132 891.2574 682.725 892.7105 683.3956 893.1575 682.8367 894.0517 683.2838 894.4988 683.0603 894.4988 682.6132 894.1635 681.9426 893.6046 681.9426 893.6046 682.3897 893.1575 682.3897 892.7105 682.1661 892.2634 681.8308 892.0398 681.4955 892.2634 681.0484 891.5927 680.7131 891.2574 680.3778 890.9221 679.8189 890.8103 679.1483 892.1516 679.5954 894.0517 679.5954 896.846 679.1483 897.6284 679.5954 898.1872 679.4836 898.7461 679.2601 899.305 679.1483 899.9756 679.4836 900.1991 680.0425 900.6462 680.3778 901.4286 680.1542 902.7699 680.7131 903.4405 681.1602 903.7758 681.719ZM830.0068 676.9129L830.6774 676.4658 831.0128 676.354 831.0128 675.9069 829.1127 674.4539 828.6656 674.901 828.3303 674.7892 828.1067 674.4539 827.7714 674.0068 825.4242 672.6656 824.4183 671.4361 824.6418 670.5419 825.4242 670.2066 826.3184 670.6537 827.2125 671.4361 830.4539 672.1067 833.4717 674.2304 834.7012 674.4539 834.4777 675.1245 833.9188 675.9069 833.36 676.4658 832.5776 676.1305 832.4658 676.4658 831.7952 676.8011 830.901 677.0246 830.0068 676.9129ZM804.7465 632.7633L805.3054 632.7633 807.5408 633.6574 808.435 634.1045 808.9938 634.9987 808.9938 635.5575 808.435 636.1164 807.5408 636.4517 806.7584 636.6752 803.8524 637.0106 803.07 637.1223 801.7287 637.6812 801.0581 637.9047 799.4933 637.793 797.705 637.2341 793.6812 635.5575 789.5457 634.6634 786.7514 632.7633 786.7514 632.2044 787.1985 632.3162 787.422 632.2044 787.5338 631.9809 787.6455 631.7573 792.0046 633.0986 793.0106 632.9868 793.5694 632.9868 795.6931 634.3281 796.4755 634.6634 798.4873 633.9927 800.8345 632.7633 802.9582 631.9809 804.7465 632.7633ZM688.1692 630.8631L686.3809 632.4279 686.1573 632.9868 687.7221 633.2103 687.3868 633.5457 686.7162 634.3281 686.2691 634.6634 686.2691 635.2222 685.3749 635.334 684.1454 634.7751 683.6983 633.4339 683.0277 632.875 680.1217 632.875 678.8922 632.7633 678.6686 633.7692 678.7804 634.6634 678.7804 635.4458 678.1098 636.0046 677.4392 634.1045 677.3274 633.0986 677.5509 631.7573 677.998 631.0867 678.7804 630.5278 679.6746 630.0807 680.7923 629.969 684.4807 629.969 685.1514 630.0807 685.7102 630.7514 686.2691 630.8631 686.8279 630.7514 687.0515 630.3043 687.275 630.0807 687.7221 630.4161 687.8339 630.6396 687.8339 630.8631 687.8339 630.9749 688.1692 630.8631ZM674.8684 626.1688L675.6508 626.5041 676.4332 627.1747 676.545 627.9571 675.7626 628.963 676.2097 629.4101 675.9861 630.1925 675.9861 631.0867 675.7626 631.7573 676.2097 632.5397 676.2097 633.2103 675.8744 633.7692 675.3155 634.1045 673.9743 633.5457 672.2977 632.9868 670.6211 632.7633 669.2799 633.2103 668.6092 631.8691 668.0504 631.3102 667.4915 630.8631 667.9386 630.4161 668.9446 631.0867 670.0623 631.6455 671.18 632.0926 672.5212 632.2044 673.7507 632.3162 674.1978 632.0926 673.8625 631.6455 669.2799 627.6218 668.9446 627.0629 669.0563 626.3923 669.727 626.057 670.2858 626.1688 670.8447 626.6158 671.18 627.0629 672.0741 626.9512 673.0801 626.9512 673.9743 626.7276 674.8684 626.1688ZM695.099 586.3782L696.9991 585.1487 699.7934 584.2546 702.2524 584.5899 703.3701 587.2724 703.1465 588.7254 701.8053 591.7432 701.2464 594.6493 699.2345 598.5613 698.7875 599.0084 699.1228 599.679 698.4521 601.9144 698.7875 603.2557 697.4462 602.2497 694.9872 600.2378 693.7578 599.4554 686.8279 597.5553 683.6983 597.1083 682.2453 597.1083 681.1276 596.9965 680.3452 596.6612 680.1217 595.6552 679.8981 593.6433 680.0099 591.855 680.7923 591.5197 681.3512 590.8491 682.2453 589.9549 682.6924 589.0607 682.0218 588.7254 681.5747 588.3901 680.9041 587.7195 679.8981 586.3782 679.451 586.3782 679.5628 588.1666 678.4451 589.2843 676.9921 589.2843 676.2097 588.0548 676.0979 587.4959 675.7626 587.2724 675.4273 587.0488 675.3155 586.8253 675.2037 586.2664 675.3155 582.9133 675.092 582.4662 673.6389 580.5661 673.4154 580.119 673.3036 579.2249 672.7448 578.5542 672.0741 578.1072 670.7329 577.7718 670.5094 577.3248 670.3976 576.8777 670.174 576.5424 669.8387 576.4306 668.8328 576.3188 668.3857 576.0953 667.7151 575.4246 667.0444 574.754 666.7091 573.8598 666.5974 572.6304 666.7091 571.5127 666.9327 570.0596 667.268 569.2772 669.2799 570.2832 670.6211 571.2891 671.6271 572.5186 672.0741 573.9716 672.7448 575.5364 674.1978 576.4306 676.0979 577.1012 677.5509 577.9954 682.0218 582.9133 683.1395 583.5839 684.8161 584.2546 686.3809 585.037 687.275 586.3782 685.7102 586.0429 685.2631 587.0488 685.5985 588.5019 686.1573 589.1725 686.8279 589.6196 689.1751 591.4079 690.5164 591.9668 691.7459 592.4139 692.3047 592.4139 692.7518 591.9668 693.1989 591.2961 693.3107 590.5138 693.0871 589.9549 692.5283 589.7314 692.5283 589.1725 693.4224 588.0548 695.099 586.3782ZM669.8387 565.8123L670.0623 566.93 668.721 566.8183 665.815 565.8123 661.6794 566.2594 660.1146 566.2594 657.7674 565.5888 655.4202 564.5828 652.8495 563.8004 649.9435 563.9122 647.3727 564.3593 645.1373 564.3593 644.9138 563.9122 645.8079 562.7945 648.1551 561.1179 649.7199 560.3355 650.3905 559.5531 650.5023 558.659 650.5023 557.2059 649.9435 556.5353 646.7021 554.6352 644.6902 549.829 644.4667 547.8172 645.0255 546.2524 646.4785 545.1347 648.2669 544.464 649.9435 544.3523 653.8554 546.3641 656.0909 547.0348 656.985 547.8172 658.2145 549.4937 660.1146 550.7232 661.2323 551.2821 662.1265 551.0585 663.4678 550.4997 664.809 550.2761 666.0385 549.829 667.0444 548.5996 669.6152 550.3879 671.7388 552.288 672.0741 552.7351 672.0741 553.1822 671.9624 554.1881 672.0741 554.6352 672.7448 555.1941 673.6389 555.8647 674.6449 556.3118 675.5391 556.5353 675.6508 556.8706 675.3155 559.5531 674.9802 560.0002 674.4213 560.2238 673.9743 560.4473 674.3096 561.1179 675.092 561.6768 675.8744 561.6768 676.4332 561.7886 676.8803 563.5769 677.4392 564.024 678.1098 564.2475 678.5569 564.9182 678.5569 565.8123 678.1098 566.5947 677.4392 567.2653 676.6568 567.7124 675.9861 566.93 674.7567 567.7124 672.5212 569.9479 672.5212 568.8301 673.3036 567.2653 673.4154 566.4829 672.9683 565.9241 671.9624 565.7006 669.8387 565.8123ZM640.7782 546.6994L640.89 546.6994 641.4488 547.3701 641.5606 547.7054 641.3371 547.9289 641.0018 548.2642 640.7782 548.5996 640.4429 549.6055 639.3252 552.0645 638.6546 552.9586 638.5428 553.4057 639.1017 553.6293 640.2194 553.6293 640.3311 554.2999 640.2194 554.747 639.884 555.5294 638.6546 556.7589 636.978 556.7589 635.0779 555.9765 633.4013 555.0823 633.2895 555.3058 633.1778 555.4176 632.8425 555.5294 632.9542 554.5234 632.8425 553.4057 632.5072 552.6233 631.8365 552.288 630.7188 552.0645 628.1481 551.2821 627.4774 551.0585 627.0304 550.2761 626.695 549.4937 626.248 548.8231 623.6772 546.4759 623.2301 545.9171 623.3419 543.6816 623.5655 541.7815 624.2361 539.8814 625.5773 538.2048 627.1421 536.8636 628.7069 535.7459 630.3835 535.4106 632.0601 535.8576 635.525 537.8695 637.2015 538.9872 638.431 540.552 639.6605 543.5699 639.9958 545.2464 640.5547 546.1406 640.7782 546.6994ZM817.2649 530.9397L818.3826 531.4986 817.3767 532.281 816.8178 533.0634 817.2649 533.5105 816.9296 533.9575 816.7061 534.5164 815.9237 534.7399 815.253 534.2928 814.8059 533.734 813.9118 533.2869 813.4647 533.6222 812.9058 534.4046 813.0176 534.9635 814.2471 535.8576 815.5883 536.9754 815.9237 538.0931 815.3648 538.8755 815.0295 538.8755 814.5824 537.8695 813.6882 536.8636 812.347 536.9754 810.4469 538.4284 807.8761 538.6519 806.5349 539.099 805.976 538.6519 804.9701 538.6519 804.4112 537.7578 803.2935 536.5283 802.3993 536.0812 801.3934 535.187 800.8345 534.2928 800.3875 533.734 800.0521 534.5164 799.2697 535.2988 799.3815 536.3047 801.0581 536.64 800.9463 537.8695 799.8286 539.099 798.8227 537.1989 797.4814 536.64 795.5813 535.8576 794.4636 535.2988 793.6812 533.8458 794.1283 532.8398 795.5813 533.9575 797.1461 534.0693 796.8108 533.0634 797.1461 532.3927 797.5932 532.0574 798.0403 532.0574 798.3756 531.8339 797.705 531.1633 797.2579 530.8279 796.4755 530.4926 795.0224 529.822 793.1223 528.1454 791.6693 527.1395 790.5516 526.0218 788.875 526.6924 788.3162 526.2453 787.5338 525.5747 786.4161 524.7923 784.4042 524.0099 782.057 524.457 781.6099 523.8981 783.9571 522.8922 783.9571 522.4451 783.6218 521.3274 782.1688 519.7626 780.7157 518.9802 779.0392 520.2097 778.9274 521.3274 779.1509 522.6686 779.1509 525.3512 779.1509 526.1336 778.7039 527.0277 778.0332 523.6746 776.4684 520.7685 777.5861 519.4273 780.8275 517.6389 782.057 517.9743 785.1866 521.1039 790.6634 520.6568 793.5694 520.8803 795.246 521.4392 797.705 521.7745 799.8286 521.4392 801.0581 521.4392 802.5111 521.4392 803.7406 521.6627 804.7465 522.1098 805.4172 523.004 806.1996 523.3393 807.429 525.3512 808.5468 526.1336 810.7822 526.8042 812.1234 526.1336 813.6882 527.0277 814.3589 527.8101 814.1353 529.4867 815.8119 530.0455 817.2649 530.9397ZM690.7399 505.6794L691.7459 506.1265 692.5283 507.4678 692.8636 508.809 692.7518 509.815 691.9694 509.0326 690.0693 505.6794 686.2691 503.2205 686.1573 502.7734 686.3809 502.2145 689.734 497.8554 691.187 494.2788 691.4106 493.0493 691.187 492.714 690.0693 491.5963 689.1751 491.0374 688.6163 490.8139 684.7043 490.4785 683.5866 489.9197 683.1395 488.5784 684.369 486.9019 684.4807 486.2312 684.7043 485.4488 685.0396 484.7782 686.1573 483.5487 687.275 482.5428 688.7281 482.0957 691.8576 481.8722 691.8576 482.2075 691.8576 482.3193 691.6341 482.3193 691.4106 482.3193 691.2988 485.6724 691.0752 487.0136 690.5164 488.3549 692.5283 490.5903 692.5283 493.4964 690.2928 502.9969 690.1811 504.897 690.7399 505.6794ZM186.4284 496.7377L187.7696 497.1848 188.7756 498.3025 189.3344 499.8673 189.3344 501.4321 188.6638 502.7734 187.7696 502.9969 186.9872 502.4381 186.6519 501.2086 186.2048 500.2026 185.1989 499.532 177.3749 495.8436 175.8101 494.7259 175.0277 494.2788 174.0218 494.167 173.2394 493.8317 172.7923 493.2728 172.457 492.3787 168.2097 488.802 164.4095 487.796 162.6211 487.0136 161.9505 486.343 160.3857 484.2194 159.6033 483.5487 158.1503 482.6546 157.4796 481.8722 158.5974 481.7604 159.4915 481.5369 160.2739 481.6486 162.7329 484.4429 163.7388 485.2253 169.6627 486.5666 175.2513 488.5784 176.8161 488.802 177.3749 489.1373 177.9338 489.6961 178.6044 490.9256 184.9754 496.2906 186.4284 496.7377ZM171.004 482.3193L169.5509 481.5369 167.6508 480.1956 166.7567 478.7426 168.2097 477.7366 169.1039 477.6249 169.6627 477.9602 170.1098 478.4073 170.5569 478.6308 171.451 478.6308 173.5747 478.1837 178.0455 478.0719 184.0812 478.7426 184.8636 479.3014 184.8636 480.978 185.0871 481.9839 186.0931 483.7723 186.6519 484.7782 186.5402 485.6724 185.8695 486.2312 184.64 486.4548 181.1751 486.343 179.7221 486.1195 176.5925 484.5547 175.4748 483.2134 174.0218 482.7663 171.004 482.3193ZM484.8574 291.4141L486.3105 293.0906 486.7575 294.879 486.0869 300.9146 484.6339 304.156 484.1868 305.9443 483.5162 305.609 483.1809 305.4972 483.2926 305.9443 483.1809 306.8385 483.1809 307.2856 482.5102 307.1738 481.9514 307.2856 481.5043 307.7327 480.9454 308.2915 480.6101 307.3974 480.3866 305.1619 480.0513 304.0442 479.4924 303.4854 478.71 303.1501 476.8099 302.703 474.5745 302.4794 473.5685 302.0323 472.6744 300.8029 472.4508 300.3558 472.2273 298.9028 471.7802 298.3439 469.2095 296.2202 468.4271 295.2143 467.0858 292.9789 466.0799 291.7494 465.7446 291.1905 465.7446 290.6317 466.1916 288.8433 465.9681 285.602 466.1916 284.7078 466.8623 283.9254 468.5388 283.5901 469.433 282.8077 469.6565 283.143 469.7683 283.2548 469.9919 283.3666 470.3272 283.7019 470.5507 283.4783 470.7743 283.3666 470.9978 283.3666 471.3331 283.2548 472.1155 284.0372 473.5685 285.7138 474.4627 286.4961 475.4686 286.9432 478.1512 287.3903 479.8277 288.1727 481.6161 289.0669 484.8574 291.4141ZM1014.7646 361.2711L1015.0999 362.8359 1016.7765 365.4066 1017 367.1949 1016.5529 368.7597 1015.6587 370.2128 1014.541 371.6658 1013.3116 372.6717 1014.0939 369.6539 1014.2057 367.8656 1013.5351 367.1949 1012.9762 367.8656 1011.0761 372.2246 1009.3996 370.3245 1006.9406 370.8834 1004.3699 372.56 1002.8051 374.1248 1001.1285 376.3602 1000.2343 377.0308 998.8931 377.2543 998.1107 377.1426 996.8812 376.4719 996.0988 376.3602 993.081 376.3602 990.1749 375.6895 987.2689 374.6836 982.0156 372.2246 979.2213 369.8774 978.5507 369.4304 977.433 369.2068 976.3153 368.4244 974.1916 366.6361 973.6328 365.8537 972.7386 364.4007 964.5793 355.459 963.6851 353.6706 964.9146 353.6706 965.3617 353.7824 965.9206 354.1177 967.1501 351.8823 967.8207 348.6409 968.0442 345.3996 967.8207 342.4935 966.4794 339.3639 964.244 337.6873 957.5377 335.6755 955.0788 334.3342 953.6257 333.1047 952.0609 332.5459 951.3903 332.0988 950.8315 331.4282 950.6079 330.9811 950.2726 329.5281 949.2667 326.8455 948.149 325.5043 947.9254 325.169 947.4783 324.4983 944.3487 323.1571 942.3369 320.9217 940.6603 319.804 939.7661 319.0216 938.9837 318.1274 938.7602 317.2332 938.0895 316.3391 935.6306 314.4389 935.0717 313.0977 934.96 312.3153 934.6246 310.974 934.6246 310.3034 935.0717 309.7446 935.2953 309.0739 935.407 308.2915 935.1835 306.8385 934.4011 305.7208 932.8363 304.0442 932.1657 303.2618 931.9421 302.703 931.8304 302.2559 932.0539 301.5853 933.1716 298.791 934.0658 293.0906 934.5129 291.6376 934.6246 290.4081 933.7305 289.2904 933.7305 288.8433 933.954 288.7316 933.954 288.6198 934.0658 288.508 934.1776 288.3963 935.407 289.514 935.9659 289.7375 936.413 289.2904 936.6365 288.1727 936.1894 287.1668 935.7424 286.1608 935.407 285.3784 934.6246 283.8136 931.7186 280.9076 931.8304 279.5663 934.0658 279.231 936.8601 280.7958 939.319 283.143 940.5485 285.1549 941.778 284.9314 943.0075 285.602 944.1252 286.7197 944.7958 287.8374 945.1311 287.2785 945.69 286.9432 946.3606 287.055 947.0312 286.4961 947.8136 286.8315 948.7078 286.9432 953.2904 286.9432 953.9611 287.2785 953.514 287.8374 953.514 288.3963 954.1846 288.7316 954.5199 288.3963 954.8552 287.8374 955.3023 287.3903 956.42 287.3903 956.6436 287.7256 956.6436 288.2845 956.6436 288.8433 956.3083 289.514 956.1965 289.9611 956.42 290.1846 957.873 290.6317 958.0966 290.6317 958.4319 291.5259 958.7672 293.0906 960.4438 294.9908 961.8968 298.2321 962.9028 299.6851 963.2381 299.9087 963.7969 300.1322 964.1322 300.3558 964.5793 301.2499 964.8029 301.4735 964.9146 302.1441 964.5793 304.4913 965.1382 305.609 965.697 308.068 966.3677 309.1857 967.3736 308.8504 968.4913 309.1857 969.609 309.8563 970.7267 310.0799 974.0799 313.7683 974.3034 314.1036 974.527 314.3272 975.0858 314.7743 975.4211 314.7743 976.2035 314.6625 976.5388 314.7743 976.8741 315.1096 977.6565 316.3391 978.6625 317.4568 979.1096 318.3509 979.892 321.9276 980.1155 322.5982 982.4627 327.2926 985.8158 330.7575 986.1512 330.9811 987.0453 330.7575 987.716 330.3105 988.2748 329.5281 989.0572 330.0869 989.5043 331.0928 990.2867 332.2106 991.7397 332.8812 993.4163 332.6576 993.7516 331.8752 993.8634 330.8693 994.9811 330.0869 994.9811 330.534 994.7575 330.8693 994.6458 331.0928 994.8693 331.4282 995.4282 331.8752 995.0928 332.6576 996.7694 334.2224 997.44 335.7872 997.9989 336.2343 998.6695 336.4579 999.3402 336.4579 1000.0108 336.905 1000.5696 337.6873 1001.4638 339.2521 1002.1344 340.3699 1003.0286 341.264 1004.0345 341.8229 1005.264 342.0464 1006.7171 342.6053 1007.723 344.0583 1009.176 347.1879 1010.629 349.1998 1012.3056 350.9881 1013.6469 353 1014.2057 355.459 1014.2057 356.2414 1013.8704 357.5826 1013.7586 358.2532 1013.9822 359.1474 1014.6528 360.6004 1014.7646 361.2711ZM488.3223 275.8779L490.1107 276.8838 491.4519 278.7839 491.5637 280.684 489.6636 281.8018 487.6517 281.2429 486.6458 279.3428 486.8693 277.2191 488.3223 275.8779ZM455.1263 269.8422L456.3558 269.954 456.9146 270.6246 457.2499 271.407 457.9206 272.0777 457.2499 273.3072 456.5793 273.866 454.6792 274.9837 453.338 273.0836 453.1144 272.9718 452.4438 273.0836 452.332 273.0836 452.2202 272.7483 452.332 272.5248 452.332 272.1894 452.1085 271.9659 452.1085 271.1835 453.0026 270.5129 454.1204 269.954 455.1263 269.8422ZM428.413 268.7245L428.5248 270.2893 428.9718 271.8541 429.7542 273.1954 430.7602 273.9778 430.7602 274.4249 429.7542 275.4308 429.5307 276.7721 429.6425 278.1133 429.3072 279.1193 428.8601 279.4546 428.413 279.4546 428.0777 279.1193 427.5188 279.1193 426.8482 279.3428 425.1716 280.4605 422.9362 280.3487 421.0361 279.0075 418.2418 275.8779 415.7828 273.9778 415.0004 273.0836 414.6651 271.9659 414.6651 270.8482 415.0004 268.501 415.5593 266.9362 416.2299 266.3773 418.6889 265.5949 419.6948 264.9243 420.7008 264.0301 421.9303 263.3595 423.3833 263.3595 425.6187 265.9303 426.6246 266.6009 428.1894 267.3833 428.413 267.7186 428.413 268.7245ZM933.7305 264.7008L933.6187 266.8244 931.8304 273.0836 931.7186 277.4427 931.048 279.3428 929.5949 280.0134 930.042 278.6722 928.9243 279.0075 928.4772 279.7899 928.1419 280.7958 927.2477 281.4664 926.13 276.7721 923.3358 270.0658 923.1122 268.1657 922.5534 266.6009 922.5534 265.7067 923.3358 265.2596 923.7828 264.7008 924.0064 263.5831 924.0064 259.8946 923.6711 258.5534 922.6651 258.218 920.765 259.7828 921.2121 257.4356 922.7769 254.9767 924.9006 252.7413 926.8007 251.4 928.9243 251.7353 930.4891 253.6354 931.2715 255.8708 931.3833 257.771 931.048 259.8946 930.9362 260.9006 931.3833 261.9065 932.0539 262.5771 932.7245 263.0242 933.2834 263.5831 933.7305 264.7008ZM556.9498 242.5701L557.5087 242.2348 560.0794 241.2288 560.8618 242.3465 560.7501 243.3525 559.297 245.3644 558.4029 244.9173 557.5087 244.2466 556.8381 243.576 556.9498 242.5701ZM360.7914 238.6581L360.9032 237.5404 361.462 236.6462 362.2444 236.0873 363.4739 236.0873 364.4799 237.5404 364.8152 238.3228 364.8152 239.3287 364.3681 239.1052 364.0328 238.8816 363.921 239.1052 363.921 239.2169 363.8092 239.3287 363.4739 239.3287 363.8092 240.4464 362.6915 240.5582 361.462 239.8876 360.7914 238.6581ZM583.6631 226.3633L584.5573 226.8103 585.675 227.481 586.5692 228.3751 586.9045 229.3811 586.7927 230.4988 586.681 231.0576 586.4574 231.393 585.7868 231.6165 585.5633 231.2812 585.4515 230.7223 585.2279 230.2752 584.7809 229.6046 584.4455 228.8222 583.9985 228.1516 583.2161 227.7045 582.2101 227.9281 581.8748 228.5987 582.2101 229.3811 583.2161 229.6046 582.769 230.1635 582.2101 230.4988 580.8689 231.0576 579.3041 229.7164 580.0865 228.2634 581.8748 227.0339 583.6631 226.3633ZM346.9318 219.0981L347.826 219.8805 350.3967 222.4513 350.732 223.4572 350.8438 225.1338 350.8438 227.481 350.5085 228.0398 350.2849 228.8222 350.1732 230.2752 349.8378 231.0576 349.0554 231.6165 346.5965 233.1813 344.8081 233.9637 343.0198 234.299 342.1256 233.9637 339.8902 231.9518 339.5549 231.393 338.996 230.387 338.7725 229.3811 338.7725 228.1516 339.1078 226.8103 340.1138 224.0161 340.8961 222.7866 344.1375 219.3217 345.4788 218.651 346.9318 219.0981ZM778.4803 206.3562L778.2568 207.3622 774.9036 214.8508 774.6801 217.198 775.2389 219.4334 777.2508 223.6807 777.9215 226.2515 778.0332 229.1575 776.8037 233.5166 776.3567 236.4227 771.9976 243.1289 771.327 243.576 771.1034 243.7996 769.9857 246.1468 769.5386 246.4821 768.3091 247.2645 766.9679 248.8293 765.9619 249.2763 763.0559 249.7234 761.044 250.3941 759.591 250.3941 756.2378 249.6117 755.2319 249.4999 753.7789 249.1646 752.9965 249.0528 752.2141 249.6117 751.3199 249.2763 749.8669 248.6057 748.6374 249.3881 748.3021 250.8411 748.5256 258.7769 748.8609 260.4535 749.5316 261.5712 752.9965 264.2537 753.4436 264.7008 753.5553 265.4832 753.8906 265.9303 754.5613 266.2656 755.9025 266.6009 758.6968 270.0658 759.0321 271.2953 760.2616 273.7542 760.4851 275.4308 758.4733 279.1193 758.138 279.231 757.6909 279.6781 757.4673 280.237 757.2438 280.684 757.0202 281.2429 756.4614 281.3547 755.679 281.3547 754.8966 281.4664 751.767 283.143 751.3199 283.4783 748.5256 286.4961 747.9668 286.7197 745.7314 286.9432 743.6077 287.8374 742.8253 287.8374 741.7076 288.3963 740.5899 289.514 739.2486 290.5199 737.4603 290.6317 736.0073 289.9611 734.1072 287.5021 732.8777 286.4961 731.6482 286.1608 729.9716 286.0491 728.295 286.1608 727.1773 286.7197 725.5008 288.9551 724.8301 289.2904 723.936 289.0669 723.7124 288.508 723.7124 287.8374 723.4889 287.1668 722.2594 286.6079 717.6768 286.4961 715.3296 286.2726 714.3237 286.4961 713.5413 287.3903 713.0942 288.8433 713.5413 290.0728 714.1001 290.967 714.4354 291.8612 714.7707 292.0847 716.3355 292.0847 717.0062 292.3083 718.7945 294.0966 719.018 295.3261 717.7886 296.4438 716.0002 297.1144 714.4354 296.6673 713.4295 297.338 712.2 298.2321 711.1941 299.2381 710.747 300.1322 710.6352 301.4735 710.2999 302.8147 709.741 303.9325 709.1822 304.7149 707.0585 306.7267 706.1644 307.2856 704.0407 308.1798 703.0348 308.4033 702.4759 308.2915 701.5817 309.4092 699.011 311.3094 697.8933 312.4271 697.558 313.0977 697.4462 313.6565 697.2227 314.1036 695.4343 315.5567 694.9872 315.5567 694.7637 314.7743 690.9635 316.1155 689.0634 317.0097 688.1692 318.2392 687.275 319.9157 685.1514 320.1393 681.3512 319.3569 676.545 320.4746 675.7626 320.9217 675.092 321.5923 673.8625 320.9217 671.6271 318.9098 671.18 318.9098 670.8447 319.6922 670.5094 320.4746 670.174 321.257 670.8447 322.8218 670.5094 323.6042 670.0623 324.3866 669.5034 326.0631 668.721 326.622 667.4915 326.8455 665.1443 327.7397 662.7971 328.075 662.1265 328.4103 661.4559 328.9692 661.1206 328.9692 660.7853 328.5221 660.3382 327.9633 659.3322 327.9633 657.991 328.6339 656.6497 329.6398 655.9791 330.534 655.7556 330.4222 655.6438 330.4222 655.6438 330.3105 655.532 330.0869 653.073 332.4341 651.62 333.3283 650.167 333.7754 649.6081 334.1107 647.9316 335.899 647.2609 336.4579 644.2431 337.352 642.5666 337.4638 641.4488 337.2403 640.6664 336.7932 639.9958 337.1285 639.3252 337.5756 638.6546 337.9109 638.431 337.6873 638.3193 337.4638 638.0957 337.1285 637.7604 337.0167 637.5369 337.0167 636.978 337.352 634.2955 337.9109 632.5072 338.0227 631.3894 337.6873 630.7188 336.5696 630.2717 336.2343 628.8187 335.899 628.4834 335.5637 627.9245 335.4519 626.9186 335.5637 625.8009 336.3461 624.3479 337.5756 622.8948 338.4697 621.6653 338.1344 621.5536 337.7991 621.4418 337.4638 621.4418 336.6814 621.33 336.3461 620.9947 336.1226 620.5476 336.0108 619.6535 335.4519 619.2064 335.7872 618.6475 337.0167 618.5358 337.0167 617.7534 337.4638 618.5358 338.1344 618.424 338.8051 617.7534 339.3639 616.7474 339.6992 616.971 338.6933 616.7474 337.6873 616.0768 336.7932 615.1826 336.4579 614.2884 336.6814 613.1707 337.1285 611.9413 337.9109 610.8235 338.8051 610.0411 337.9109 609.3705 337.6873 608.6999 337.7991 608.0293 337.9109 606.2409 337.7991 605.7938 337.9109 604.1173 337.5756 597.6345 337.4638 597.1875 337.5756 595.958 338.5815 595.1756 338.8051 593.6108 338.4697 592.4931 338.4697 591.4871 338.8051 591.04 338.2462 588.4693 336.3461 587.7987 335.5637 587.3516 334.7813 586.4574 333.2165 585.4515 331.2046 581.5395 326.0631 579.9747 324.9454 573.492 323.1571 572.2625 322.2629 571.4801 321.9276 570.3624 321.7041 569.2447 321.9276 567.5681 323.2689 566.7857 323.4924 566.2268 323.716 564.662 324.2748 563.5443 324.4983 561.5325 324.3866 560.6383 324.163 560.0794 323.4924 559.7441 323.4924 559.8559 324.4983 559.5206 325.7278 558.9617 326.9573 558.2911 327.7397 557.3969 328.075 554.7144 328.1868 554.1556 328.4103 553.1496 328.9692 552.3672 328.8574 552.3672 327.7397 552.9261 327.4044 553.7085 327.5162 554.1556 327.4044 553.7085 326.3985 554.1556 325.3925 553.7085 324.163 552.5908 323.0453 551.026 322.5982 551.6966 321.4805 552.479 320.5864 552.8143 319.5804 552.3672 318.4627 551.8084 319.6922 551.2495 319.9157 550.4671 319.5804 549.5729 319.804 544.4315 317.7921 541.6372 317.0097 539.8488 317.4568 539.4018 317.1215 538.9547 316.5626 539.29 316.0037 539.7371 315.4449 540.1842 314.9978 540.8548 314.7743 540.4077 314.1036 539.9606 313.9919 539.5135 313.9919 538.9547 313.7683 538.7311 313.3212 538.6194 312.8741 538.5076 312.5388 537.837 312.4271 535.6015 312.2035 534.8191 312.4271 533.925 313.3212 533.4779 312.8741 533.925 311.8682 533.8132 310.974 533.5897 310.1916 533.4779 309.4092 532.919 308.7386 531.8013 308.6268 530.6836 308.7386 530.2365 308.5151 529.7894 307.7327 528.8953 307.5091 526.9952 307.7327 525.8774 307.1738 524.3127 305.609 523.3067 305.0502 521.7419 306.3914 520.736 307.062 519.8418 307.2856 518.6123 306.9503 516.6004 305.2737 515.4827 304.4913 514.1415 304.2678 510.9001 304.0442 509.7824 303.3736 509.1118 303.1501 508.2176 303.0383 507.547 302.8147 507.2117 302.0323 504.8645 299.4616 503.635 296.6673 503.4114 294.0966 504.5292 286.4961 505.7586 284.0372 507.547 282.0253 510.0059 280.9076 510.2295 280.9076 510.3413 280.7958 510.3413 280.684 510.453 280.4605 511.5707 280.9076 512.3531 281.2429 513.9179 282.5842 514.365 282.8077 515.5945 283.143 516.1534 283.4783 516.4887 284.0372 516.824 285.2667 517.1593 285.8255 518.9476 286.9432 520.9595 286.4961 522.8596 285.1549 524.5362 283.4783 525.3186 282.9195 526.3245 283.0312 528.3364 283.7019 530.6836 283.5901 531.5778 283.7019 532.2484 284.2607 532.8073 284.9314 533.7014 285.602 534.8191 286.0491 537.5017 286.4961 538.5076 286.9432 538.6194 286.1608 539.0664 285.7138 540.4077 285.1549 541.4136 284.2607 541.8607 284.149 542.8667 284.149 543.7608 283.9254 547.3375 281.8018 552.479 284.149 553.2614 284.9314 554.4909 285.0431 559.5206 287.2785 560.4147 287.8374 560.9736 287.9492 561.4207 287.9492 561.756 288.1727 562.2031 288.6198 562.9855 289.8493 562.8737 289.7375 563.5443 290.6317 563.8796 290.8552 572.2625 289.9611 573.9391 289.2904 575.0568 290.0728 575.8392 289.8493 576.7333 288.9551 577.7393 288.3963 578.1864 289.0669 578.857 289.6257 579.6394 289.7375 579.9747 288.8433 581.8748 290.0728 582.3219 290.1846 582.9925 289.6257 583.5514 287.8374 584.3338 287.3903 585.5633 287.1668 590.1459 285.1549 590.2576 285.4902 590.4812 285.7138 590.7047 285.8255 591.04 286.0491 591.3754 285.4902 591.9342 285.1549 592.6048 285.1549 593.3872 285.602 593.9461 284.9314 594.2814 284.2607 594.1696 283.4783 593.8343 282.8077 594.1696 282.8077 594.1696 283.0312 594.2814 283.2548 594.8403 283.3666 595.2873 284.3725 595.2873 285.7138 594.7285 287.7256 595.3991 288.3963 596.4051 288.7316 597.0757 288.8433 597.9699 288.508 598.6405 288.0609 599.3111 287.6139 600.4288 287.3903 601.0994 287.1668 601.6583 286.4961 601.9936 285.602 602.1054 284.7078 602.5525 284.7078 604.7879 286.0491 607.4704 286.0491 610.0411 285.2667 612.1648 283.7019 612.8354 282.9195 614.6238 280.0134 614.9591 278.8957 614.7355 278.0015 614.1767 277.778 613.3943 277.5545 612.6119 277.2191 612.053 276.5485 611.0471 274.8719 610.3765 273.9778 610.8235 273.3072 611.3824 271.9659 611.7177 271.1835 612.053 270.8482 612.9472 270.0658 613.3943 269.6187 614.4002 268.8363 615.7415 268.1657 616.971 267.1597 617.7534 265.5949 617.7534 264.9243 617.6416 264.2537 617.3063 262.9124 617.1945 262.9124 616.4121 262.4653 616.4121 261.9065 616.7474 261.2359 616.971 260.0064 617.6416 258.7769 617.7534 257.9945 617.6416 257.6592 616.971 257.1003 616.7474 256.6532 616.8592 256.2062 616.971 255.9826 617.1945 255.8708 618.3122 252.7413 620.6594 251.2882 623.5655 250.9529 626.4715 251.8471 628.0363 252.5177 628.7069 253.0766 629.2658 253.6354 629.6011 254.6414 629.3776 255.2002 629.0422 255.6473 628.8187 256.2062 628.1481 257.3239 626.8068 257.9945 623.789 258.7769 622.5595 259.6711 620.9947 261.2359 620.1006 262.6889 621.2183 264.0301 621.5536 265.7067 621.6653 267.3833 621.4418 268.501 620.9947 268.8363 619.6535 269.0598 619.0946 269.3952 618.3122 270.0658 618.0887 270.4011 619.3182 271.407 619.6535 272.0777 619.877 273.6425 621.5536 276.325 623.5655 280.3487 623.789 281.1311 623.789 282.4724 624.1243 283.9254 624.6832 285.3784 625.5773 286.4961 626.8068 287.3903 628.2598 287.7256 632.8425 288.0609 634.1837 288.508 635.4132 288.7316 636.6427 288.3963 637.0898 287.6139 637.6486 286.6079 638.3193 285.602 639.1017 285.1549 640.1076 284.7078 642.1195 283.143 642.7901 282.8077 643.6843 281.69 644.0196 281.4664 644.4667 281.2429 647.8198 280.684 649.1611 280.684 650.3905 280.9076 654.4143 282.4724 655.7556 283.3666 656.4262 284.3725 656.6497 285.7138 657.4321 287.1668 658.5498 288.0609 659.8911 287.6139 660.897 287.055 663.2442 286.9432 664.2502 286.4961 666.1503 285.0431 666.9327 284.0372 667.4915 282.8077 667.1562 281.9135 667.268 281.2429 667.8268 281.0194 668.3857 281.4664 670.3976 280.3487 672.1859 281.0194 673.7507 282.4724 674.8684 283.7019 676.8803 283.4783 677.5509 283.2548 678.1098 282.9195 679.2275 281.4664 680.5688 281.1311 681.91 280.237 683.1395 279.1193 684.0337 278.1133 684.7043 276.7721 684.8161 275.4308 684.4807 272.413 684.7043 270.96 685.3749 267.9421 687.1633 263.9184 688.7281 261.4594 690.5164 259.4475 692.3047 257.771 692.7518 257.5474 693.7578 257.2121 694.2048 256.8768 695.4343 255.312 696.4403 254.6414 698.3404 251.8471 699.2345 250.8411 699.4581 250.8411 700.0169 250.9529 700.1287 250.8411 700.2405 250.7294 700.1287 250.1705 700.1287 249.947 700.7993 249.7234 702.5877 249.1646 703.1465 248.8293 703.7054 248.2704 704.5996 247.8233 705.4937 247.3762 706.3879 247.2645 707.2821 246.8174 707.6174 245.9232 707.9527 243.9113 708.3998 243.9113 709.2939 244.6937 713.5413 245.8114 714.9943 246.3703 716.3355 246.5938 717.565 246.1468 719.1298 244.8055 721.8123 246.2585 724.3831 248.1586 725.6125 247.8233 726.7303 247.0409 727.6244 245.9232 728.8539 243.6878 729.301 242.4583 729.5245 241.1171 729.6363 239.5523 729.7481 239.3287 729.8598 239.2169 729.9716 238.9934 730.0834 238.6581 729.9716 238.211 729.6363 237.9875 729.301 237.8757 729.1892 237.6521 728.9657 236.9815 728.0715 235.4167 727.848 234.6343 727.6244 232.0636 727.9597 226.5868 727.4009 224.0161 725.9479 222.116 725.2772 220.8865 725.0537 219.2099 725.0537 216.3039 724.8301 214.9626 724.1595 213.5096 723.2653 212.3919 721.1417 210.7153 720.3593 209.7094 720.1358 209.1505 720.024 208.5916 720.024 207.2504 719.8004 206.3562 718.571 205.3503 718.1239 204.6796 718.0121 204.009 718.2356 203.3384 718.4592 202.8913 718.571 202.556 718.4592 201.8854 717.6768 200.097 717.2297 198.5322 717.4532 197.4145 718.1239 196.4086 719.4651 194.9556 720.4711 195.2909 724.2713 195.9615 726.842 195.9615 727.7362 196.0733 728.9657 196.6321 729.6363 196.8557 730.5305 196.7439 731.4246 196.4086 731.9835 196.6321 731.9835 197.7498 733.1012 197.0792 734.4425 196.9674 737.2367 197.191 738.1309 197.4145 740.4781 198.5322 741.1487 199.0911 741.5958 200.4323 741.9311 202.1089 742.49 203.5619 743.7195 204.2326 745.1725 204.4561 747.9668 205.3503 749.4198 205.1267 750.314 204.5679 752.4376 201.6618 752.7729 200.3206 751.9905 199.2029 750.8728 198.1969 750.314 197.191 750.9846 195.9615 752.1023 196.0733 753.4436 196.8557 754.673 197.191 755.2319 197.191 756.0143 197.0792 756.5732 196.8557 756.7967 196.6321 757.132 196.4086 758.9204 196.8557 759.591 196.8557 760.4851 195.8497 760.7087 194.2849 761.2675 193.0554 762.8323 192.6084 763.8383 193.8378 765.0678 194.732 766.0737 195.8497 766.8561 198.8675 766.7443 199.4264 765.8502 199.6499 765.4031 199.6499 764.1736 199.3146 763.7265 199.0911 763.503 198.644 763.3912 197.7498 763.0559 197.191 762.2735 197.191 761.9382 197.8616 762.0499 198.8675 762.2735 200.5441 762.3853 203.0031 762.8323 203.7855 764.1736 204.2326 764.6207 204.1208 765.0678 203.7855 765.6266 203.5619 766.5208 203.6737 766.9679 204.1208 767.5267 204.7914 768.0856 205.3503 768.9798 205.5738 773.1153 206.0209 774.3448 206.0209 777.1391 205.2385 778.145 205.2385 778.4803 206.3562ZM285.2341 186.2374L286.3518 186.6845 287.0224 187.4669 287.246 188.5846 287.0224 189.8141 286.6871 190.82 286.0165 191.4906 285.0106 191.7142 283.5575 191.7142 282.5516 191.2671 281.881 190.2612 281.5457 189.0317 281.5457 187.8022 281.7692 186.908 282.2163 186.7963 282.7751 186.908 282.8869 187.1316 284.1164 186.1256 284.5635 185.9021 285.2341 186.2374ZM830.4539 147.4528L832.4658 145.888 833.2482 145.5527 834.4777 147.1175 835.0365 148.1234 835.0365 149.2411 834.5894 149.0176 834.4777 149.0176 834.3659 149.1294 834.2541 149.2411 833.36 148.5705 831.3481 147.8999 830.4539 147.4528ZM837.8308 140.523L839.6191 140.523 840.6251 141.1936 840.9604 142.3113 840.6251 143.7644 839.8427 142.5349 838.5014 142.4231 837.0484 142.7584 835.5954 142.8702 835.9307 142.0878 836.4895 141.4172 837.8308 140.523ZM927.9184 133.3696L929.5949 136.4992 932.9481 142.1996 934.4011 145.4409 933.954 146.6704 932.1657 142.8702 930.7127 139.2935 928.2537 135.6051 926.0183 131.9166 921.9945 129.5694 924.9006 129.9047 927.0242 131.0224 927.9184 133.3696ZM794.1283 123.422L794.4636 123.8691 795.246 123.9809 795.4695 124.3162 795.5813 124.9868 795.3578 125.5457 795.0224 126.6634 794.1283 128.8988 794.3518 130.1283 793.6812 130.7989 793.0106 130.4636 790.8869 128.787 790.4398 128.2282 786.9749 124.5397 786.4161 123.6455 785.8572 122.3043 786.0807 120.7395 787.5338 119.51 788.9868 118.3923 791.5575 118.1688 794.1283 118.8394 794.0165 122.5278 794.1283 123.422ZM682.6924 112.8037L683.363 113.0273 684.0337 112.9155 684.5925 113.0273 684.9278 113.6979 683.8101 114.0332 682.6924 114.5921 682.2453 113.5861 681.5747 113.3626 679.8981 113.6979 676.8803 113.6979 673.5272 113.0273 672.0741 113.0273 671.18 114.145 670.174 113.8097 669.5034 114.0332 669.0563 114.4803 668.1622 114.5921 667.7151 114.3685 668.2739 113.5861 669.8387 112.3567 670.8447 112.5802 672.4095 111.5743 675.3155 109.2271 679.3393 110.5683 680.7923 111.4625 682.0218 112.4684 682.6924 112.8037ZM755.2319 110.1212L755.679 110.9036 755.679 112.8037 754.5613 113.8097 753.8906 115.3745 752.1023 115.4862 750.7611 113.4744 749.8669 112.0213 749.9787 109.5624 749.7551 108.78 748.9727 108.5564 748.1903 108.1094 747.6315 107.327 748.0785 107.327 747.9668 106.4328 748.5256 105.4268 749.1963 105.0915 749.8669 105.8739 750.7611 107.4387 751.9905 108.78 753.4436 109.6741 755.2319 110.1212ZM751.3199 102.7443L750.7611 103.6385 749.5316 104.3091 748.0785 104.868 745.5078 105.7622 744.7254 105.2033 744.7254 103.1914 744.5019 101.5149 744.2783 99.0559 744.5019 95.9263 746.0667 95.9263 748.9727 96.9322 749.4198 97.1558 750.7611 98.3853 751.0964 98.497 750.9846 99.1677 751.2081 100.3971 750.9846 101.7384 749.8669 102.1855 749.9787 102.409 750.314 103.1914 750.9846 102.8561 751.3199 102.7443ZM749.1963 93.0202L747.7432 92.2378 747.7432 90.5613 748.7492 88.9965 750.314 88.4376 751.4317 88.9965 752.3259 90.1142 752.8847 91.1201 752.8847 91.679 752.6612 91.9025 752.5494 92.3496 752.2141 92.7967 751.5435 93.0202 749.1963 93.0202ZM826.8772 201.2147L826.2066 204.9032 826.0948 206.5798 826.8772 208.3681 825.0889 210.2682 821.2887 213.5096 820.3945 215.745 820.618 217.0862 821.1769 217.8686 822.0711 218.5393 822.6299 219.4334 822.9652 220.4394 822.9652 221.4453 822.9652 222.563 822.6299 223.569 822.1828 224.1278 820.5063 225.2455 819.9474 225.9162 820.0592 227.5927 819.9474 228.1516 819.5003 228.8222 818.6062 229.6046 818.1591 230.0517 817.6002 230.9459 816.8178 233.1813 816.259 234.1872 815.7001 234.8579 815.0295 235.305 814.4706 235.9756 814.0235 236.9815 812.4587 236.5344 811.8999 237.5404 811.4528 238.9934 810.7822 240.2229 810.1116 238.211 809.1056 236.1991 807.429 234.5226 805.1936 233.2931 805.4172 231.6165 803.5171 229.9399 801.1699 228.2634 799.6051 226.8103 799.2697 225.6926 799.158 222.0042 798.9344 221.5571 797.4814 220.8865 796.9226 220.4394 796.699 219.9923 796.2519 216.5274 795.5813 214.4037 795.4695 213.5096 796.699 210.2682 796.8108 209.8211 797.705 202.556 796.9226 200.9912 797.2579 200.097 797.2579 199.3146 796.9226 198.4205 796.4755 197.7498 797.0343 196.5204 797.0343 195.2909 796.5872 194.0614 794.9107 191.826 791.5575 185.1197 791.1105 183.2196 790.6634 182.1019 789.5457 180.2018 788.0926 178.7487 787.5338 177.9663 787.3102 176.7369 787.0867 176.4015 786.0807 175.7309 785.8572 175.3956 785.7454 174.6132 785.5219 173.8308 785.2983 173.2719 784.8513 172.8249 784.4042 172.6013 783.1747 172.4895 782.6158 172.266 782.1688 171.8189 781.4981 170.3659 780.2686 169.4717 774.5683 162.4301 774.3448 161.7595 774.6801 160.1947 774.5683 159.6359 773.8977 159.1888 772.8917 158.5182 771.2152 156.8416 770.5446 155.8356 769.7622 154.0473 768.7562 153.6002 767.5267 153.3767 766.5208 152.9296 766.2972 152.5943 765.7384 151.4766 765.5149 151.0295 764.956 150.6942 763.6147 150.0235 761.9382 148.6823 760.5969 148.4587 759.2557 148.5705 749.308 146.5586 746.7373 145.5527 737.5721 139.9641 724.3831 126.8869 723.2653 126.2163 719.1298 125.2103 714.9943 123.6455 714.4354 123.1985 714.3237 122.8631 713.9883 122.5278 713.653 122.0807 713.4295 120.7395 713.0942 120.1806 712.0882 119.2865 707.7292 116.8275 706.3879 115.8216 705.9408 115.598 702.923 114.3685 701.3582 112.9155 700.6876 112.3567 699.4581 112.0213 698.2286 111.7978 697.3344 111.3507 696.9991 110.3448 695.3226 108.6682 693.9813 108.6682 693.4224 108.6682 693.4224 108.3329 693.4224 108.1094 693.3107 107.774 692.3047 107.2152 691.4106 106.4328 691.2988 106.2092 691.0752 105.6504 690.9635 105.5386 690.0693 104.9798 689.8458 104.7562 689.2869 104.4209 688.5045 104.1974 686.2691 103.9738 685.7102 103.5267 684.9278 102.7443 684.1454 101.9619 683.6983 101.6266 683.1395 101.2913 682.3571 101.1795 680.7923 100.956 678.8922 99.9501 677.4392 99.8383 672.1859 100.8442 669.3916 100.8442 667.0444 100.1736 665.5914 98.497 665.7032 97.7146 666.1503 96.7087 667.0444 96.2616 668.1622 96.9322 669.3916 97.4911 670.8447 96.9322 673.4154 95.2557 674.8684 96.3734 675.9861 95.3674 675.9861 93.8026 674.3096 93.4673 675.3155 92.4614 675.2037 91.679 674.4213 91.2319 673.6389 91.1201 672.4095 91.0084 671.5153 90.7848 669.2799 89.7789 670.7329 86.9846 670.5094 86.8728 670.3976 86.2022 670.6211 85.8669 672.0741 86.5375 672.633 87.2081 673.0801 87.9905 673.6389 88.6612 675.8744 89.8906 676.2097 90.0024 676.545 90.7848 677.3274 91.3437 678.8922 92.1261 680.5688 94.2497 681.3512 94.8086 681.7982 95.0321 684.7043 95.4792 685.2631 95.8145 685.7102 96.0381 686.1573 96.2616 686.3809 96.4851 686.9397 98.0499 687.275 98.497 688.0574 98.8323 688.8398 98.9441 689.734 99.1677 690.5164 99.503 694.6519 101.2913 695.9932 102.7443 696.552 105.2033 697.6697 106.8799 700.464 107.4387 705.4937 107.327 706.2761 107.4387 706.6114 107.8858 706.9468 108.4447 707.2821 108.8917 707.9527 109.2271 708.6233 109.1153 709.2939 108.8917 709.8528 108.6682 711.3058 109.0035 712.5353 109.5624 713.7648 110.3448 714.8825 111.4625 717.0062 113.9215 717.3415 114.0332 718.9063 114.145 719.4651 114.145 723.3771 117.051 724.1595 116.9393 729.301 120.1806 730.6422 121.6337 731.3129 122.7514 732.4306 124.2044 733.8836 125.2103 735.6719 124.875 736.0073 126.5516 736.9014 127.6693 737.9074 128.3399 738.8015 128.5635 741.3723 128.3399 742.1547 128.5635 743.4959 129.2341 744.2783 129.4576 745.2843 129.0106 746.0667 129.3459 747.0726 130.4636 748.4139 131.246 748.6374 131.3578 750.7611 131.3578 751.3199 131.4695 752.2141 132.1402 752.6612 132.2519 753.3318 132.2519 753.8906 132.2519 754.0024 132.4755 753.8906 132.8108 754.1142 133.1461 754.1142 133.4814 754.0024 134.2638 754.1142 134.4873 754.226 134.5991 754.7848 134.8227 754.8966 134.9344 755.3437 135.4933 757.8026 137.9523 761.1558 142.7584 762.9441 144.7703 764.956 146.4469 767.415 147.8999 772.2211 150.1353 773.2271 151.253 774.5683 151.9237 774.7919 152.259 775.2389 154.8297 775.4625 155.0532 776.0213 155.165 776.4684 155.5003 776.692 155.8356 777.0273 156.618 777.8097 157.5122 778.4803 159.077 778.9274 159.8594 780.2686 160.7536 781.6099 160.7536 782.8394 159.9712 783.51 158.9652 784.4042 159.9712 785.2983 161.2007 785.969 162.5419 786.3043 163.7714 786.5278 164.442 787.8691 165.7833 788.0926 166.5657 787.9809 167.3481 787.7573 168.0187 787.5338 168.6893 787.8691 169.5835 788.4279 170.1424 789.0986 170.813 788.9868 171.0365 789.7692 171.2601 790.4398 171.3718 792.0046 171.4836 793.6812 171.8189 794.9107 172.6013 796.0284 173.6073 797.3696 174.6132 798.5991 175.2838 799.8286 175.7309 801.1699 176.0662 802.6229 176.178 804.0759 175.5074 804.9701 174.6132 805.7525 174.3897 806.6466 176.178 806.7584 176.8486 806.8702 178.1899 806.982 178.8605 807.3173 179.5311 808.2114 180.7606 808.435 181.3195 808.9938 182.4372 810.2233 182.8843 811.7881 182.996 813.0176 182.996 813.0176 182.8843 814.0235 182.1019 814.6942 182.996 814.8059 183.7784 814.6942 184.7844 814.8059 185.7903 815.5883 186.7963 817.712 188.4728 818.6062 189.4788 820.3945 193.1672 821.5122 194.732 822.0711 195.8497 821.9593 196.4086 823.1888 196.8557 824.8653 198.1969 826.2066 199.7617 826.8772 201.2147ZM647.2609 84.1903L647.5963 85.1963 647.2609 86.2022 646.5903 87.0964 646.255 88.2141 646.3668 89.3318 646.4785 90.226 646.8139 91.0084 647.2609 91.679 646.8139 92.3496 646.255 92.6849 644.9138 93.0202 642.343 93.9144 641.6724 94.138 641.0018 94.3615 640.4429 94.2497 640.2194 93.6909 639.7723 92.9085 638.7663 93.132 637.7604 93.6909 637.0898 94.3615 636.6427 94.138 635.9721 93.6909 635.6367 93.4673 634.6308 93.6909 629.6011 94.0262 629.0422 94.138 628.4834 94.138 627.9245 93.9144 627.3657 93.4673 625.1303 91.1201 623.6772 90.3377 623.1184 89.8906 622.0007 86.5375 619.0946 83.1844 618.2004 82.402 616.6356 82.9608 614.6238 81.9549 613.1707 80.5019 613.1707 79.6077 613.6178 79.2724 614.0649 79.6077 614.512 79.943 614.9591 80.0548 615.6297 79.8312 620.5476 76.4781 621.5536 76.2546 622.4477 76.2546 623.2301 76.1428 624.0125 75.6957 626.695 74.8015 626.695 74.578 627.5892 74.3545 628.9305 73.7956 629.9364 73.6838 631.5012 74.2427 635.0779 76.4781 636.6427 76.4781 637.2015 76.8134 638.9899 77.5958 639.5487 77.7076 639.884 77.8194 640.4429 78.49 640.7782 78.7135 642.5666 79.1606 644.4667 79.8312 646.0315 81.0607 646.8139 82.6255 646.255 84.7492 646.9256 84.4139 647.2609 84.1903ZM469.8801 64.4068L471.3331 66.1952 472.3391 67.0893 473.5685 67.6482 472.0037 70.2189 470.7743 71.3366 469.2095 71.7837 466.4152 71.7837 465.4092 71.6719 464.8504 71.3366 463.3974 70.3307 463.6209 69.8836 463.7327 69.7718 463.8444 69.5483 465.6328 69.9954 467.1976 69.4365 468.0917 67.9835 467.6447 66.3069 468.2035 65.9716 468.7624 65.4128 468.9859 64.8539 468.9859 64.4068 469.8801 64.4068ZM443.3903 47.3058L444.0609 47.7529 444.1727 48.7589 444.1727 50.7707 443.2785 52.5591 441.3784 52.8944 438.9195 52.7826 436.684 52.8944 437.0194 52.5591 437.69 51.5531 436.3487 51.4414 435.6781 51.8884 435.231 52.6708 434.8957 53.7886 434.4486 53.7886 434.0015 52.7826 433.3309 53.9003 432.7721 55.6887 432.7721 56.5828 431.9897 57.1417 429.866 59.936 428.8601 60.7184 428.1894 60.9419 427.6306 60.9419 426.96 60.9419 426.1776 60.7184 423.7186 59.4889 423.1597 59.3771 421.5949 59.7124 419.0242 61.0537 417.3476 61.1655 417.3476 60.9419 417.4594 60.7184 417.7947 60.2713 415.6711 60.9419 413.5474 61.389 411.312 61.5008 403.5998 60.2713 403.2645 60.1595 402.8174 59.4889 402.4821 59.3771 402.035 59.3771 401.3644 59.7124 401.029 59.8242 400.6937 59.6007 400.3584 59.1536 399.7996 58.5947 399.2407 58.4829 398.9054 58.2594 398.2348 57.3652 398.0112 57.0299 397.5641 56.6946 397.2288 56.5828 395.9993 56.5828 394.3228 56.1358 393.9875 56.1358 393.5404 56.6946 393.6521 57.3652 393.9875 57.8123 394.5463 58.0359 395.5523 58.3712 396.1111 59.3771 395.9993 60.2713 394.9934 60.7184 392.5344 61.1655 391.305 60.9419 390.6343 59.8242 389.4048 60.3831 388.1754 60.6066 387.2812 61.1655 386.6106 63.5127 385.4928 63.7362 384.3751 63.2891 383.2574 62.0596 382.9221 61.1655 382.1397 58.4829 382.1397 57.8123 383.1457 56.4711 383.8163 56.1358 384.934 56.5828 385.6046 56.4711 387.7283 55.9122 388.2871 55.9122 388.6224 55.5769 388.846 54.6827 388.7342 54.0121 388.2871 53.1179 386.7223 51.1061 386.387 50.5472 386.1635 49.7648 386.0517 48.9824 386.1635 48.0882 386.387 47.8647 387.5047 48.3118 387.7283 48.5353 388.0636 48.9824 388.5107 49.3177 389.2931 49.2059 389.5166 48.6471 389.9637 46.8587 390.4108 46.4117 390.6343 46.2999 390.7461 46.1881 390.9696 46.0763 391.305 45.9646 391.752 46.0763 392.4227 46.747 392.758 46.9705 393.4286 46.8587 394.5463 46.4117 395.3287 46.4117 396.1111 46.6352 397.7877 47.1941 398.6818 47.3058 399.576 47.0823 402.1468 45.5175 403.9351 44.9586 405.6117 44.8469 407.0647 45.1822 408.6295 45.9646 410.3061 45.4057 421.7067 45.9646 422.3773 46.2999 423.1597 47.0823 423.8304 47.9765 424.2774 48.7589 424.7245 48.7589 425.0598 47.6411 425.8422 47.0823 426.6246 47.0823 427.0717 47.5294 427.407 48.3118 428.413 48.4235 430.3131 48.3118 433.1074 49.4295 433.5545 49.4295 434.0015 49.7648 436.684 50.5472 437.8018 50.3237 439.5901 50.3237 441.3784 50.7707 442.2726 51.5531 442.7197 51.5531 442.7197 49.653 442.4961 49.0942 441.9373 48.0882 441.8255 47.5294 441.2667 46.9705 440.3725 46.2999 439.9254 45.8528 440.9314 45.5175 441.602 45.9646 442.7197 47.0823 443.3903 47.3058ZM598.1934 12.9921L598.4169 13.5509 599.3111 15.5628 599.9817 16.9041 601.4348 18.8042 602.1054 20.2572 600.9877 20.2572 599.4229 21.0396 598.4169 21.1514 597.7463 20.9278 597.6345 20.5925 597.5228 20.2572 597.0757 19.6983 595.958 18.916 595.3991 18.5806 594.7285 18.3571 594.7285 20.2572 593.6108 19.9219 591.2636 17.91 590.593 17.6865 589.9223 17.2394 588.5811 15.7864 588.2458 15.2275 588.0222 14.8922 587.6869 14.6686 586.7927 14.7804 586.4574 14.6686 585.5633 13.6627 585.1162 12.4332 585.0044 9.7507 587.2398 5.2799 587.7987 4.4975 588.2458 4.8328 588.8046 5.0563 590.3694 4.9446 590.9283 5.1681 592.3813 6.8447 596.5168 9.0801 597.5228 9.9743 597.6345 10.8684 597.5228 11.5391 597.6345 12.3215 598.1934 12.9921ZM897.7402 214.4037L899.6403 215.1861 901.0933 216.6392 901.8757 218.5393 901.8757 220.4394 900.4227 222.2277 898.6343 221.5571 897.2931 219.8805 897.2931 218.0922 897.6284 218.7628 898.1872 220.2158 898.6343 220.8865 899.4167 221.3336 899.8638 221.2218 900.758 220.2158 901.0933 218.651 899.9756 216.9745 898.5226 215.6332 897.2931 214.8508 897.1813 214.9626 897.0695 215.0744 896.9578 215.1861 896.846 215.2979 896.846 214.8508 897.0695 214.6273 897.7402 214.4037ZM894.9459 212.6154L894.7223 211.1624 894.0517 209.7094 893.8282 208.4799 894.4988 207.921 894.9459 208.5916 895.2812 209.8211 895.393 212.6154 894.9459 212.6154ZM783.0629 192.273L784.1806 193.3908 784.4042 194.6202 784.0689 195.9615 783.51 197.191 783.0629 197.191 782.6158 197.0792 781.1628 196.7439 780.8275 196.6321 780.7157 195.738 780.604 194.9556 780.1569 194.3967 779.3745 194.0614 781.1628 192.8319 781.6099 192.273 782.1688 191.2671 782.8394 191.9377 783.0629 192.273ZM862.3087 185.7903L861.7498 186.2374 862.644 189.1435 861.7498 191.2671 859.9615 191.826 858.0614 189.8141 857.9496 189.7023 857.6143 189.8141 857.3908 189.8141 857.279 189.4788 857.279 188.9199 857.3908 188.6964 857.5025 188.3611 857.9496 187.3551 858.8438 186.3492 859.0673 186.0139 859.6262 185.2315 860.8557 184.5608 861.9734 184.5608 862.3087 185.7903ZM865.9971 182.996L867.2266 183.1078 867.7855 184.002 867.6737 185.1197 866.8913 185.7903 865.9971 185.6785 865.2147 185.1197 864.4323 184.5608 863.2029 184.7844 863.7617 184.1138 865.2147 183.4431 865.9971 182.996ZM756.7967 617.0035L757.0202 616.2211 757.8026 616.2211 757.5791 616.8917 756.7967 617.0035ZM741.5958 613.0915L741.5958 612.5327 742.1547 612.3091 741.5958 613.0915ZM740.4781 607.2794L741.1487 606.6088 741.2605 606.9441 740.7017 607.6147 740.4781 607.2794ZM253.044 149.3529L253.7146 149.5765 254.2735 149.9118 254.3853 150.4706 253.9382 150.6942 253.6029 150.5824 253.044 150.5824 252.7087 150.5824 252.4851 150.2471 252.5969 149.8 253.044 149.3529ZM216.8301 130.24L217.6125 129.0106 219.1773 128.3399 220.8539 130.24 221.7481 131.1342 220.4068 132.3637 218.1714 131.8048 216.8301 130.24ZM133.2253 30.5402L133.3371 29.0871 134.343 28.0812 135.5725 27.7459 136.4667 28.5283 136.0196 28.64 135.1254 29.0871 134.0077 29.7578 133.2253 30.5402ZM684.8161 564.9182L685.2631 565.1417 685.4867 565.7006 685.2631 566.3712 684.369 566.93 684.0337 566.5947 683.9219 565.8123 683.5866 565.3652 683.363 565.1417 682.916 564.5828 681.1276 563.5769 680.2334 562.6827 680.457 561.6768 681.6865 561.0062 682.916 560.8944 683.9219 561.2297 684.7043 561.6768 684.8161 562.2356 685.0396 562.3474 685.0396 562.7945 684.8161 563.9122 684.4807 564.024 684.2572 564.024 684.369 564.5828 684.4807 564.8064 684.8161 564.9182ZM200.288 487.0136L200.7351 487.349 200.8469 488.0196 200.1762 489.4726 199.0585 489.9197 198.0526 489.2491 197.9408 488.2431 198.7232 487.6843 199.5056 487.4607 199.9527 487.1254 200.288 487.0136ZM190.7875 479.9721L191.011 480.5309 191.3463 481.4251 191.1228 481.9839 190.3404 482.431 189.1109 482.3193 187.5461 481.4251 185.1989 478.6308 181.8458 477.1778 182.5164 476.2836 185.7578 475.9483 188.3285 476.5072 189.6697 477.5131 190.4521 478.7426 190.7875 479.9721ZM190.0051 460.8592L191.2345 461.6416 191.9052 462.6475 191.7934 463.877 190.3404 464.7712 188.105 464.5476 186.7637 462.8711 185.7578 460.971 186.7637 459.8532 188.552 460.0768 189.4462 460.5239 190.0051 460.8592ZM190.8992 457.059L191.6816 457.9531 192.3523 459.6297 191.9052 460.1886 190.8992 459.7415 189.1109 459.1826 186.3166 458.9591 184.64 458.0649 184.0812 456.8354 183.4106 455.4942 184.3047 454.6 186.6519 454.8235 189.558 456.053 190.8992 457.059ZM695.8814 243.1289L696.9991 243.7996 698.2286 244.9173 698.2286 245.9232 697.1109 246.9292 696.3285 247.1527 694.6519 247.488 693.4224 247.2645 692.9754 246.8174 691.9694 246.2585 691.187 245.4761 691.4106 244.6937 692.3047 243.7996 692.8636 243.4642 693.9813 242.9054 694.9872 242.7936 695.8814 243.1289ZM184.8636 141.1936L183.7459 141.1936 181.8458 140.4112 181.3987 140.2994 180.6163 139.9641 179.6103 139.07 179.7221 138.5111 180.0574 138.064 180.1692 137.2816 180.6163 136.8345 181.9575 137.0581 183.7459 137.9523 185.4224 139.1817 185.8695 140.4112 184.8636 141.1936ZM616.3003 26.4046L617.1945 26.4046 617.5298 26.5164 617.1945 26.9635 615.965 27.2988 614.2884 27.187 613.2825 26.8517 613.059 26.6282 612.5001 26.4046 611.9413 26.6282 611.7177 26.8517 611.6059 27.0752 611.0471 27.187 610.3765 26.7399 610.0411 25.8458 610.0411 25.1751 610.6 24.9516 612.1648 25.5105 612.7237 24.9516 613.059 23.8339 613.5061 23.6103 614.2884 24.3927 614.7355 25.3987 615.2944 26.1811 616.3003 26.4046Z" />
</svg>