<?xml version="1.0" encoding="utf-8"?>
<svg xmlns="http://www.w3.org/2000/svg" viewBox="0 0 1021 983" style="stroke-width:0.25px;stroke-linejoin:round;stroke:#444;fill:#ddd" fill-rule="evenodd">
  <path class="PK" d="M859.8497 6.6925L861.0792 6.0219 865.103 5.016 867.4502 4.1218 868.3443 4.3453 869.2385 5.5748 870.9151 7.1396 875.6095 7.2514 877.5096 8.8162 877.6213 8.8162 879.4097 11.6105 879.8568 12.6164 880.1921 14.9636 880.5274 15.746 881.4216 15.4107 881.7569 14.6283 882.3157 12.3928 882.9864 11.3869 883.8805 10.7163 884.9982 10.1574 887.1219 9.5986 889.4691 9.5986 894.8341 8.8162 895.9518 9.0397 896.846 9.5986 898.6343 11.1634 900.758 12.3928 908.2466 13.9576 910.5938 14.9636 912.2704 16.7519 913.2763 19.0991 913.7234 22.1169 913.8352 25.2465 914.2823 28.2644 915.6235 30.1645 919.4238 30.2762 919.8708 29.7174 920.0944 28.935 920.4297 28.1526 924.3417 26.6996 929.2596 27.7055 934.2893 30.0527 938.0895 32.847 941.8898 36.2001 943.4546 38.212 949.8255 50.395 949.8255 50.5068 950.0491 51.7363 950.4961 53.6364 949.2667 59.8956 949.2667 62.9134 949.8255 64.1429 951.3903 66.1548 952.0609 67.1607 952.1727 68.502 951.3903 69.1726 950.2726 69.7315 949.3784 70.7374 949.3784 71.5198 949.8255 72.9728 949.8255 73.7552 949.4902 74.4259 949.0431 74.7612 945.9135 76.773 945.1311 77.5554 944.684 78.8967 945.0194 81.4674 946.3606 83.9264 948.3725 85.8265 950.2726 86.7207 955.0788 87.056 956.8671 88.0619 958.4319 90.968 958.9908 93.874 959.3261 97.1154 959.8849 99.7979 961.6733 101.3627 963.1263 101.4745 966.1441 100.6921 967.5971 100.4685 968.8266 100.8039 969.8326 101.1392 970.8385 101.1392 973.1857 99.4626 974.3034 99.4626 975.3094 99.6861 976.5388 99.4626 976.9859 99.0155 977.7683 97.6743 978.3272 97.2272 978.9978 97.0036 979.7802 96.8919 981.1215 96.8919 982.6862 96.333 984.9217 93.9858 986.1512 94.3211 986.71 96.7801 985.8158 103.151 987.0453 105.61 989.169 106.8395 993.7516 108.5161 995.7635 110.0809 997.2165 112.2045 997.9989 113.0987 999.1166 113.6575 1000.0108 113.7693 1008.5054 134.447 1017 155.0129 1016.6647 155.2364 1015.4352 156.8012 1015.6587 158.7013 1016.2176 160.825 1015.7705 163.1722 1014.7646 164.5134 1011.0761 167.5312 1009.8466 168.8725 1009.0642 169.5431 1008.0583 169.3196 1006.3817 168.2019 1004.7052 167.7548 1002.4697 167.9783 1000.3461 168.7607 998.7813 169.8784 998.2224 171.6668 998.5578 175.8023 997.8871 177.2553 992.1868 182.7321 991.4044 183.1792 985.9276 184.4087 984.9217 184.4087 983.9157 183.9616 981.1215 181.9497 978.7743 181.6144 976.3153 182.5086 967.7089 187.5383 961.0026 189.3266 958.879 189.3266 954.967 187.6501 952.7316 188.0971 951.7256 188.9913 950.4961 191.2267 949.602 192.2327 949.1549 192.568 947.4783 193.0151 943.3428 196.1447 939.7661 199.9449 938.4249 200.9508 937.3072 201.2861 934.6246 200.9508 933.2834 200.9508 929.7067 201.845 926.9124 201.7332 910.3703 197.2624 907.7996 195.9211 905.3406 194.1328 904.3347 193.0151 903.4405 191.562 902.6581 191.0032 901.8757 190.5561 899.6403 190.5561 895.5047 191.4503 889.6926 191.6738 867.5619 187.203 851.6904 181.3909 847.7784 180.7202 843.7547 181.0556 839.7309 182.7321 835.0365 186.197 833.4717 187.0912 823.5241 188.7678 822.6299 189.2149 820.8416 190.7796 820.7298 192.568 821.1769 194.4681 821.1769 196.7035 820.2827 198.1565 817.2649 200.2802 816.259 202.0685 816.1472 204.8628 815.8119 205.8688 815.253 206.4276 813.8 207.3218 813.1294 207.7689 812.0117 209.4454 811.7881 211.4573 812.2352 213.2457 813.5765 214.6987 815.1413 215.5928 816.7061 216.2635 818.2708 216.487 820.0592 216.2635 821.9593 216.487 822.9652 217.7165 824.4183 221.5167 825.3124 222.9697 825.7595 224.6463 825.536 226.2111 824.4183 227.3288 820.618 229.3407 819.165 230.7937 818.6062 233.1409 819.165 235.3763 820.618 237.3882 822.5182 238.7295 824.4183 239.1766 828.6656 238.0589 830.0068 238.1706 833.2482 239.2883 835.5954 239.1766 837.9426 238.6177 840.178 238.5059 842.1899 239.959 842.9723 242.4179 842.3017 244.8769 840.8486 247.0006 839.1721 248.6771 837.0484 250.2419 834.813 251.2479 827.9949 252.4773 826.5419 253.8186 824.4183 257.7306 824.0829 258.6248 823.7476 259.5189 823.5241 260.5249 823.4123 262.7603 823.5241 263.878 823.8594 264.9957 824.4183 266.1134 827.4361 268.6842 831.3481 270.8078 834.7012 273.4903 835.7072 277.6259 834.3659 283.438 832.4658 288.9147 831.9069 290.1442 831.2363 291.1502 830.3421 292.0443 829.3362 292.8267 826.989 293.8327 825.9831 294.5033 825.3124 295.8446 825.0889 299.0859 825.9831 301.4331 827.6596 303.2215 830.0068 304.7862 832.0187 306.9099 835.4836 311.7161 837.8308 313.0573 843.6429 314.0633 845.4312 315.181 846.1019 316.8575 846.2136 320.546 846.996 324.458 846.7725 326.0228 846.1019 327.364 845.7666 327.9229 845.6548 328.0347 845.0959 328.9288 845.6548 330.2701 846.549 331.3878 847.5549 332.1702 848.8961 332.3937 850.1256 332.0584 852.1375 330.8289 853.367 330.7172 854.3729 331.276 856.273 333.1761 857.279 333.735 858.5085 333.735 861.8616 333.1761 863.0911 332.8408 864.3206 331.8349 864.8794 330.7172 865.103 329.4877 865.7736 328.0347 866.8913 326.9169 868.009 326.5816 868.7914 327.364 869.1267 329.0406 868.6796 330.6054 867.1149 333.735 866.556 335.4116 866.6678 336.9763 867.1149 339.9942 867.0031 341.559 866.4442 342.7884 865.7736 344.1297 865.3265 345.471 865.5501 346.924 867.4502 352.0655 869.1267 354.0773 871.3622 354.8597 873.7094 354.748 875.9448 354.0773 878.4037 353.8538 882.7628 356.0892 885.3336 355.7539 888.0161 354.748 890.0279 354.5244 892.0398 355.3068 894.387 357.2069 896.5107 358.5482 900.8697 359.6659 902.9934 360.8954 907.2407 364.4721 909.029 365.9251 910.7056 368.0487 911.0409 369.7253 910.4821 371.1783 908.4702 373.5255 907.9113 374.755 907.2407 377.214 907.0172 378.1081 905.1171 377.8846 904.2229 378.1081 902.7699 378.5552 900.8697 379.5612 899.4167 380.9024 899.5285 382.6908 898.6343 382.579 897.2931 382.1319 896.7342 382.3554 896.0636 383.0261 895.5047 383.3614 894.9459 383.2496 891.1457 381.7966 890.0279 382.0201 890.475 384.1438 889.8044 384.2556 888.2396 384.032 887.6807 384.3673 887.2337 385.1497 886.8983 385.7086 886.563 386.2674 885.7806 386.7145 884.2158 386.8263 882.8746 386.7145 881.6451 386.9381 880.6392 388.1675 877.8449 387.1616 876.7272 388.8382 876.1683 391.4089 875.0506 393.309 873.7094 393.5326 869.6856 392.7502 867.8972 396.1033 867.1149 396.7739 866.1089 397.1092 861.3028 400.7977 860.4086 401.8036 859.738 403.0331 859.5144 404.7097 859.5144 405.6039 859.4026 405.9392 859.1791 406.1627 858.6202 406.9451 858.5085 407.2804 858.3967 408.1746 858.2849 408.5099 858.0614 408.6217 857.6143 408.8452 857.3908 408.957 856.7201 410.1865 856.6084 410.41 857.1672 411.1924 860.7439 417.6751 862.5322 424.605 864.4323 427.6228 864.5441 428.964 864.2088 430.3053 863.5382 431.5348 862.4205 432.7642 861.7498 434.1055 859.2909 440.3647 858.8438 442.0413 858.8438 445.3944 857.8378 448.3004 857.6143 449.7535 857.8378 451.2065 858.1732 452.2124 858.732 453.1066 859.5144 454.2243 860.5204 454.6714 863.3146 454.1125 864.5441 454.2243 865.4383 454.7832 866.6678 455.7891 867.2266 456.4597 863.5382 458.4716 862.1969 459.4776 861.3028 460.8188 861.191 462.2718 860.2968 463.166 859.4026 464.3955 858.3967 465.4014 857.1672 465.8485 855.826 465.8485 854.5965 466.0721 853.5905 466.5191 852.4728 467.5251 851.8022 468.8663 851.4669 469.8723 851.0198 470.4311 849.6785 470.3194 848.002 469.8723 847.3314 469.7605 846.549 469.984 845.8783 470.4311 845.3195 471.1018 844.9842 471.7724 845.4312 473.1136 844.6488 474.4549 843.4194 475.4608 842.1899 475.7961 841.9663 476.1315 842.5252 477.5845 842.637 478.0316 842.0781 478.5904 841.1839 479.3728 840.6251 479.8199 839.3956 481.8318 838.2779 482.726 837.8308 483.2848 837.4955 484.7378 836.4895 485.4085 836.3778 486.0791 836.1542 487.085 835.5954 487.4204 834.1424 487.7557 832.8011 488.4263 831.9069 489.0969 831.0128 489.8793 830.1186 490.997 829.448 492.4501 829.5597 493.6795 829.6715 495.0208 829.448 496.8091 828.6656 497.7033 826.0948 498.4857 825.6477 499.0446 825.2007 499.9387 822.0711 504.5213 821.4004 504.9684 820.618 505.0802 819.6121 504.7449 819.7239 505.192 819.8356 506.3097 819.9474 506.7568 818.8297 506.645 817.6002 507.3156 816.5943 508.3216 816.1472 509.551 816.0354 509.7746 819.0532 511.4512 820.3945 513.3513 821.7358 516.4809 822.6299 519.6105 822.5182 520.6164 822.4064 521.7341 812.0117 530.564 809.5527 531.9053 798.152 534.476 787.3102 539.6175 786.4161 540.6234 783.7336 549.4534 781.051 558.2833 777.8097 568.9015 774.3448 575.6078 771.2152 581.5317 766.2972 591.0322 762.497 596.3972 760.8205 599.0798 758.8086 603.9977 758.0262 605.1154 757.0202 605.786 748.8609 610.0333 741.7076 613.8336 733.4365 618.1926 724.3831 622.887 722.7065 624.1165 718.0121 629.8168 716.5591 632.8347 712.8706 647.1414 711.6411 650.4945 709.8528 653.6241 707.3938 656.1948 699.6816 662.5658 694.6519 669.1603 693.9813 670.6133 693.646 671.8428 692.9754 680.5609 692.5283 681.6787 691.7459 682.3493 681.6865 685.3671 672.9683 688.1614 667.7151 688.6085 662.6854 688.1614 657.3204 688.6085 651.9553 689.7262 647.1492 691.4028 639.437 695.203 632.3954 698.7796 627.1421 700.0091 622.7831 699.3385 619.5417 697.1031 617.1945 693.6382 615.1826 689.0556 615.0708 687.7143 615.2944 685.1436 614.7355 683.6905 613.9531 682.7964 612.2766 681.3433 610.1529 678.8844 608.5881 677.6549 606.7998 676.7607 605.0114 676.0901 603.6702 675.9783 602.4407 676.3136 599.9817 677.2078 597.6345 677.6549 596.5168 677.9902 595.3991 678.7726 591.8224 682.6846 587.5751 685.8142 586.9045 686.4848 581.4277 692.1851 580.7571 693.4146 576.0627 707.0507 574.6097 709.1744 569.2447 714.4276 565.5562 720.575 558.1793 727.6166 554.1556 730.4109 548.4552 736.223 545.8845 740.6938 544.2079 745.9471 542.8667 754.6652 541.5254 763.0481 541.9725 765.8424 543.9844 768.0778 553.7085 772.1015 556.2792 773.8899 560.7501 777.9136 563.4326 778.9196 578.5217 778.3607 580.8689 778.9196 583.2161 780.2608 585.0044 782.4963 585.2279 785.067 584.8926 790.8791 585.1162 793.5616 584.8926 794.7911 584.3338 796.2441 583.9985 797.5854 584.1102 799.0384 584.5573 801.8327 584.222 804.4034 583.3278 806.9741 579.9747 812.5627 579.6394 813.7922 579.6394 816.2512 579.0805 819.8278 579.0805 820.9455 580.31 824.4105 582.2101 827.7636 584.6691 830.7814 587.3516 833.0168 588.4693 834.4699 589.6988 838.2701 590.7047 839.9466 591.5989 840.6173 594.0579 841.5114 597.6345 842.2938 605.0114 842.0703 607.4704 841.6232 609.8176 840.5055 612.1648 839.8349 614.7355 840.3937 616.0768 842.1821 616.3003 845.0881 615.965 851.1238 615.6297 859.1713 616.0768 861.5185 617.0827 862.9715 619.6535 865.7658 620.1006 867.4424 620.4359 869.1189 621.1065 870.4602 623.2301 872.9191 627.1421 876.384 628.2598 877.7253 628.9305 879.4019 631.0541 888.9024 632.3954 892.7026 634.1837 896.3911 637.9839 902.315 640.1076 908.3506 641.3371 910.2507 641.7842 910.9213 640.4429 911.9273 636.3074 913.9392 635.4132 915.6157 634.9661 917.7394 635.0779 919.6395 636.3074 920.7572 636.5309 921.2043 636.6427 921.5396 636.5309 921.9867 636.3074 922.5455 636.1956 923.8868 636.0838 924.4457 636.0838 925.0045 636.1956 925.4516 636.3074 926.0105 637.7604 926.7928 640.2194 927.2399 642.4548 927.9106 642.9019 929.6989 642.343 930.2578 639.3252 931.3755 638.6546 932.1579 638.2075 932.9403 637.5369 933.3873 636.3074 933.3873 634.9661 932.8285 633.7366 932.7167 632.6189 933.052 628.7069 935.7345 627.8128 936.964 628.0363 938.0817 628.8187 939.3112 628.4834 939.7583 627.3657 939.9818 626.0244 940.4289 623.6772 941.6584 622.4477 941.9937 614.0649 941.3231 611.7177 940.2054 610.6 939.1994 610.1529 938.1935 609.8176 935.511 609.2587 933.052 609.3705 932.2696 609.7058 931.8226 610.7118 931.1519 611.1589 930.4813 610.3765 928.8047 607.6939 928.693 601.2112 930.2578 598.3052 932.3814 597.1875 932.7167 593.7226 932.9403 592.6048 933.4991 590.2576 935.1757 589.0282 935.511 587.6869 935.511 584.1102 936.7405 581.8748 936.964 581.2042 937.4111 580.5336 938.5288 578.9688 942.7761 578.2981 944.0056 576.0627 946.0175 573.2684 946.5763 560.5265 946.7999 557.1734 946.3528 554.3791 945.0116 549.4612 939.7583 547.6728 938.8641 529.9012 938.4171 525.3186 940.2054 522.7479 940.5407 521.6301 940.3172 518.0535 938.5288 516.6004 938.0817 515.371 938.3053 512.8002 939.7583 511.1237 940.4289 510.0059 940.2054 509.1118 939.3112 507.8823 937.1876 507.4352 936.6287 506.8763 936.1816 506.3175 935.9581 505.4233 935.9581 505.088 936.4052 504.9762 936.964 504.8645 937.5229 502.8526 941.2113 502.182 941.6584 501.0642 940.7642 500.6172 936.7405 499.723 935.2875 496.4816 935.1757 495.1404 938.0817 495.1404 943.5585 495.1404 950.8237 495.0286 960.3242 490.2224 960.3242 483.9633 960.2124 476.6981 960.2124 473.7921 960.6595 471.7802 962.1125 471.7802 961.5537 471.7802 960.8831 471.5567 960.3242 471.1096 960.1007 470.3272 960.2124 470.3272 960.7713 470.5507 961.5537 470.6625 962.0008 470.1036 962.8949 469.3212 963.6773 468.4271 964.1244 467.5329 963.6773 467.1976 963.0067 467.0858 962.4479 466.8623 962.2243 466.1916 962.3361 465.6328 962.7832 465.521 963.4538 465.521 964.0127 465.4092 964.4597 465.521 964.5715 465.8563 964.795 465.9681 965.1304 465.7446 965.3539 465.521 965.3539 464.8504 965.2421 464.7386 965.2421 464.2915 965.5774 463.1738 966.0245 462.615 966.3598 461.1619 968.707 461.1619 968.8188 461.1619 968.707 459.4854 964.4597 459.4854 966.5834 459.4854 967.254 459.7089 967.7011 460.2678 968.5953 460.3795 968.9306 460.0442 970.2718 458.9265 972.9543 458.5912 974.2956 458.703 975.5251 459.3736 977.537 459.4854 978.7664 459.0383 978.8782 457.8088 977.984 456.0205 976.1957 455.7969 977.8723 454.791 977.8723 453.5615 976.8663 453.0026 975.5251 453.2262 974.9662 454.1204 974.2956 454.3439 974.0721 454.2321 972.8426 454.3439 972.3955 454.791 971.2778 455.1263 971.0542 456.0205 971.0542 456.0205 970.6072 455.1263 969.8248 454.2321 968.8188 453.338 967.3658 453.0026 965.801 453.5615 964.0127 453.6733 963.2303 452.6673 963.342 451.1025 962.3361 450.4319 962.1125 452.2202 968.0364 453.0026 969.6012 451.8849 972.1719 451.2143 973.4014 450.4319 973.8485 450.0966 973.4014 449.873 972.619 449.6495 971.8366 449.6495 971.2778 449.3142 970.8307 448.5318 970.9425 447.9729 971.2778 447.8612 971.5013 447.3023 971.2778 446.5199 971.0542 445.9611 970.6072 445.7375 969.8248 445.514 969.3777 444.9551 969.2659 444.3963 969.3777 443.9492 969.1541 443.6139 968.4835 443.7256 967.5893 443.3903 967.0305 442.8315 966.9187 442.3844 967.254 441.3784 968.1482 441.1549 967.1422 441.0431 964.5715 440.596 964.0127 440.149 965.4657 439.5901 970.0483 439.0312 971.0542 437.2429 970.7189 435.4546 970.1601 431.9897 968.707 432.7721 969.2659 433.4427 970.0483 433.5545 971.0542 432.8838 971.9484 431.7661 972.1719 430.4249 972.0602 428.0777 971.5013 427.5188 971.5013 426.96 971.5013 426.5129 971.3895 426.4011 970.8307 426.5129 969.9365 426.7364 969.3777 426.96 968.8188 427.2953 968.1482 427.7424 964.348 428.0777 963.4538 428.0777 963.0067 427.8541 963.0067 427.7424 962.8949 427.7424 962.7832 427.7424 962.5596 426.96 963.6773 426.8482 966.5834 426.4011 967.8129 425.5069 968.26 424.501 967.9246 423.9421 967.1422 423.8304 965.801 422.9362 966.6952 422.3773 966.3598 421.9303 965.5774 421.2596 964.9068 420.3655 964.9068 420.1419 965.3539 420.589 966.1363 421.2596 966.8069 417.6829 965.9128 416.9006 965.3539 417.5712 965.2421 418.0183 965.3539 418.4653 965.2421 419.0242 964.9068 419.5831 964.348 420.2537 962.7832 420.8125 962.1125 420.2537 962.3361 419.5831 962.8949 418.8007 963.2303 418.2418 963.0067 418.13 962.3361 418.2418 961.2184 418.6889 959.7653 416.0064 959.2065 415.224 958.7594 416.3417 956.4122 416.9006 955.7416 417.7947 955.9651 419.5831 954.8474 420.1419 954.1768 420.3655 953.0591 418.9124 954.4003 417.5712 954.1768 416.2299 953.5062 414.5534 953.0591 410.9767 953.3944 409.1883 953.0591 408.2942 952.0531 408.0706 949.8177 407.4 948.0294 405.7234 945.1233 405.4999 944.2292 405.2763 943.335 405.2763 939.9818 405.0528 939.423 404.4939 938.6406 404.7175 938.1935 405.0528 937.4111 405.2763 937.0758 404.8293 935.2875 406.1705 934.3933 408.0706 934.1697 409.6354 934.2815 408.4059 933.6109 407.2882 933.3873 404.7175 933.3873 403.9351 932.605 404.0469 930.8166 404.941 927.687 404.4939 928.2459 404.0469 928.5812 403.1527 929.14 403.0409 927.3517 402.3703 925.7869 401.3644 924.3339 400.1349 922.9926 401.3644 921.7631 401.1408 921.3161 399.6878 921.0925 399.1289 920.3101 398.7936 919.3042 398.5701 918.2982 398.4583 917.2923 399.4642 917.7394 400.582 917.8512 401.8114 917.7394 402.8174 917.2923 401.029 916.1746 400.0231 915.7275 398.9054 915.3922 397.7877 915.504 397.0053 915.8393 396.4464 915.6157 396.3347 914.2745 396.7817 912.2626 397.8994 910.586 399.4642 909.0212 401.029 907.9035 402.8174 907.0094 402.9292 906.4505 402.2585 905.4446 401.4761 904.8857 400.9173 904.8857 400.2466 905.3328 398.0112 905.7799 397.4524 905.5563 397.1171 904.1033 396.67 903.4327 396.2229 902.8738 395.664 902.6503 394.5463 902.762 393.8757 902.9856 393.2051 903.0974 391.9756 902.6503 391.5285 903.0974 392.0873 904.6622 390.9696 904.1033 388.3989 902.2032 387.2812 901.8679 386.1635 901.309 385.2693 900.5266 384.7105 899.856 384.2634 899.856 384.2634 901.0855 384.4869 901.6443 384.7105 902.2032 383.2574 901.9796 382.0279 901.1972 380.9102 900.1913 379.569 899.2971 377.7806 899.1854 376.1041 899.856 374.5393 900.0795 373.0862 899.2971 372.4156 899.6325 369.1743 899.9678 367.6095 900.6384 366.8271 900.7502 365.2623 900.1913 365.374 898.7383 366.7153 897.397 368.3919 896.5029 368.3919 896.0558 366.9388 895.1616 366.9388 892.5909 367.9448 887.2259 368.0565 883.0903 368.3919 881.7491 368.9507 880.6314 370.1802 879.0666 370.5155 877.9488 370.4037 876.4958 369.5096 874.2604 369.1743 873.0309 368.7272 872.4721 366.4917 870.3484 365.5976 869.9013 364.927 869.4542 361.5738 866.1011 359.3384 864.7598 358.556 863.6421 359.0031 862.3009 360.5679 862.748 361.3503 861.2949 361.015 859.5066 359.5619 858.6124 358.7795 857.3829 358.2207 854.924 357.5501 853.1356 356.4323 853.8063 356.2088 853.471 356.097 853.1356 355.9853 852.8003 355.0911 853.1356 354.7558 852.5768 354.5322 851.6826 354.1969 850.9002 352.0733 848.6648 351.6262 847.5471 350.0614 848.1059 348.4966 847.8824 347.6024 847.1 347.826 845.647 346.7083 846.4294 345.4788 846.8765 343.2433 847.1 342.4609 846.9882 341.2315 846.6529 340.4491 846.5411 340.2255 846.7647 339.7784 847.1 339.2196 847.4353 336.9842 847.8824 335.7547 848.6648 334.7487 849.7825 333.9663 850.9002 332.8486 853.3592 332.5133 853.8063 331.8427 854.0298 331.0603 854.7004 330.5014 855.4828 330.1661 856.1535 331.8427 856.0417 336.7606 855.1475 337.543 854.924 338.2136 854.3651 339.2196 853.2474 339.3314 853.0239 339.5549 852.9121 339.8902 852.9121 340.2255 852.8003 340.4491 852.6886 340.4491 852.1297 340.3373 851.6826 340.4491 851.3473 341.6785 850.9002 343.5787 850.5649 345.367 850.6767 346.0376 851.1238 346.3729 851.9062 347.0436 852.2415 347.826 852.465 348.6084 852.8003 349.1672 853.471 350.0614 854.924 350.732 855.7064 351.6262 854.924 352.8557 854.5887 354.0851 854.8122 355.0911 855.7064 352.9674 857.6065 355.4264 859.1713 356.3206 860.289 355.4264 861.4067 354.5322 861.2949 353.4145 860.5125 351.6262 858.9477 346.82 856.8241 343.8022 856.1535 341.6785 856.6006 340.002 856.2652 337.9901 856.8241 335.9782 857.6065 334.1899 858.0536 328.6013 858.0536 324.4658 859.2831 319.5479 860.0655 316.7536 859.9537 315.3006 860.0655 313.1769 861.1832 311.7239 861.6303 309.4884 862.8597 306.9177 863.3068 303.6763 864.9834 302.4469 865.2069 300.9938 864.9834 292.1639 862.5244 290.8227 862.3009 289.4814 862.6362 288.0284 863.195 286.6871 863.6421 285.4576 863.3068 285.793 862.9715 286.3518 861.8538 284.2282 861.9656 282.5516 862.3009 281.2103 862.8597 279.8691 863.7539 277.8572 862.6362 276.0689 863.3068 274.7276 864.8716 273.2746 867.4424 272.8275 868.0012 272.1569 868.2248 271.2627 868.5601 270.4803 868.5601 268.9155 868.113 267.1272 867.8894 265.2271 867.2188 264.1094 867.107 260.3091 867.107 256.5089 866.3246 254.6088 866.3246 252.8205 867.107 251.4792 866.4364 249.4673 866.2129 245.4436 866.5482 243.8788 867.2188 242.4257 868.4483 241.4198 869.9013 240.7492 871.3543 240.4139 873.1427 240.4139 874.0369 240.7492 874.7075 241.4198 875.0428 242.5375 875.3781 243.3199 875.8252 243.3199 876.6076 242.8728 876.6076 239.855 877.5018 238.9608 877.5018 237.396 877.0547 236.5019 877.0547 238.1784 874.3722 238.1784 873.2545 237.0607 871.5779 236.0548 870.9073 234.2664 870.3484 232.4781 869.9013 231.3604 869.9013 230.578 870.5719 229.6838 872.025 228.9014 872.2485 228.119 872.3603 226.8895 872.6956 226.3307 872.8074 224.9894 872.3603 222.8658 870.2366 221.4128 869.4542 218.7303 868.7836 216.0477 868.5601 215.4889 868.3365 214.7065 867.4424 214.1476 867.107 210.3474 866.9953 204.7589 865.7658 204.7589 864.7598 205.3177 863.5304 205.5413 862.3009 205.2059 861.9656 204.6471 861.6303 204.0882 861.0714 203.8647 860.1772 204.0882 859.3948 204.6471 859.0595 205.4295 858.9477 206.2119 858.9477 207.6649 859.2831 208.3355 859.0595 208.5591 858.0536 208.2238 857.7183 207.6649 857.6065 206.7707 857.6065 203.9765 858.2771 202.4117 858.3889 201.6293 857.83 198.1644 859.5066 197.382 860.4008 198.2761 860.1772 198.6114 859.9537 199.0585 861.1832 199.5056 861.5185 200.1762 861.0714 201.0704 860.1772 201.8528 860.1772 202.6352 861.4067 203.8647 863.7539 202.9705 864.9834 202.5234 865.2069 201.4057 865.2069 199.1703 865.5422 198.0526 865.5422 196.9349 865.2069 195.3701 865.7658 192.9111 865.4305 186.5402 863.0833 182.4046 862.3009 178.1573 862.4127 174.0218 863.0833 172.0099 863.7539 170.8922 864.3128 169.7745 865.2069 168.0979 867.107 167.2037 868.7836 166.5331 869.3425 165.5272 869.0072 165.8625 870.1249 166.3096 871.019 168.2097 873.3662 168.545 873.5898 168.6568 873.7015 168.545 874.1486 168.4332 874.7075 168.2097 875.1546 167.8744 875.4899 167.5391 875.6017 165.5272 875.2663 161.9505 873.5898 159.7151 873.2545 155.4678 873.8133 154.3501 873.5898 151.444 872.2485 147.3085 871.1308 145.1848 870.9073 143.1729 871.3543 139.2609 873.478 137.8079 873.8133 132.5547 873.2545 121.7129 870.9073 111.3182 870.5719 106.512 870.6837 103.3824 871.1308 102.6 872.5838 102.7118 873.5898 104.053 874.1486 102.8235 874.7075 101.2587 874.2604 99.3586 874.7075 97.5703 875.7134 96.3408 876.6076 95.6702 877.2782 94.8878 878.2842 94.4407 879.2901 94.6642 880.4078 95.4466 881.1902 96.7879 881.5255 97.6821 881.9726 97.3468 882.9785 94.6642 882.9785 91.6464 882.755 89.5228 882.1961 90.9758 880.9667 91.1993 880.7431 91.4229 880.5196 91.6464 880.4078 92.2053 880.0725 92.7641 880.1843 93.2112 879.9607 93.323 879.1783 92.4288 877.5018 92.0935 876.1605 90.6405 875.1546 89.2992 874.3722 87.6227 874.1486 85.3872 873.8133 82.4812 873.9251 79.7987 874.8193 78.4574 875.3781 77.675 876.7194 77.1162 877.8371 78.0103 878.6195 78.3457 880.1843 79.0163 880.8549 79.4634 881.6373 78.1221 882.0844 75.6631 881.8608 72.7571 881.5255 68.9569 881.4138 65.9391 881.8608 65.2684 883.2021 65.0449 883.7609 64.486 884.4316 63.8154 886.4435 63.033 886.3317 61.8035 887.2259 60.2387 887.7847 58.0033 888.12 56.4385 887.5612 55.8796 886.4435 56.215 884.9904 56.8856 884.208 56.4385 883.3139 56.662 882.6432 57.668 881.7491 58.3386 881.0784 58.5622 880.6314 58.5622 879.6254 58.7857 878.9548 59.6799 877.7253 59.9034 877.0547 59.7916 876.0487 59.5681 875.8252 59.2328 875.937 58.7857 876.1605 58.5622 876.2723 58.0033 876.8311 57.668 877.0547 57.3327 876.9429 56.5503 876.2723 56.215 876.1605 55.4326 876.0487 55.0972 875.7134 54.7619 875.3781 54.2031 875.1546 53.5325 875.0428 51.5206 875.1546 50.5146 874.931 49.844 874.8193 49.0616 875.1546 47.6086 875.0428 49.6205 869.2307 49.9558 863.4186 50.4029 856.4888 50.7382 850.5649 51.0735 846.4294 51.297 845.5352 51.6323 844.8646 52.5265 843.8586 52.9736 843.4116 53.0854 840.9526 52.4147 838.1583 52.0794 835.5876 53.4207 833.7992 54.7619 833.4639 55.9914 833.4639 57.1091 833.2404 58.0033 832.1227 58.3386 830.8932 59.0092 825.9752 59.7916 820.1631 60.4623 815.9158 60.9094 812.1156 61.4682 807.8683 62.0271 805.7447 62.9212 803.8446 64.486 802.6151 71.9747 800.4914 74.3219 798.9266 75.4396 798.3678 76.6691 798.0325 79.3516 797.5854 79.9105 796.803 80.134 795.1264 81.1399 793.4498 83.4871 793.7851 86.2814 794.6793 88.6286 795.0146 90.0816 794.344 89.9699 793.3381 89.411 791.9968 89.0757 790.432 89.5228 789.5378 91.4229 787.6377 92.0935 786.4083 91.9817 785.9612 91.7582 785.6259 91.6464 785.067 91.7582 784.5081 92.0935 783.9493 92.6524 783.614 93.8818 783.1669 94.4407 782.8316 95.2231 782.2727 95.782 782.0492 96.3408 781.9374 97.6821 782.0492 98.2409 781.8256 98.688 781.4903 99.1351 780.5961 99.6939 780.2608 100.2528 780.0373 110.7593 778.9196 111.9888 778.4725 112.5476 778.0254 112.9947 777.5783 113.5536 777.243 114.2242 777.3548 115.0066 777.6901 115.4537 777.6901 117.4656 777.3548 117.9127 777.1312 118.4715 776.7959 118.8068 776.5724 119.4774 775.3429 120.0363 774.6723 120.7069 774.4487 124.9542 774.5605 129.8722 774.6723 135.5725 774.8958 137.9197 775.2311 140.4904 775.3429 142.2788 774.8958 142.8376 774.8958 143.3965 775.2311 143.8436 775.5664 144.4024 775.79 144.9613 775.79 146.4143 774.4487 147.0849 771.6545 147.532 761.3715 147.9791 760.3656 148.985 759.8067 151.5558 759.3596 152.5617 758.4655 152.6735 757.236 152.2264 756.1183 151.444 754.8888 150.8851 753.6593 150.5498 745.7235 150.6616 744.8294 150.8851 744.1587 151.5558 743.1528 151.7793 742.4822 152.4499 741.3645 153.6794 740.8056 155.1325 740.8056 156.1384 741.2527 154.0147 736.4465 153.1206 735.1053 152.4499 734.4347 151.8911 734.0993 150.3263 733.5405 149.6557 733.0934 147.9791 731.5286 147.1967 731.3051 146.6378 731.3051 143.1729 732.311 142.3905 732.4228 141.2728 732.311 139.5963 732.311 136.3549 733.3169 134.6783 733.6523 131.1017 734.3229 129.4251 734.4347 127.4132 733.9876 125.9602 733.2052 125.4013 732.9816 124.9542 733.0934 124.0601 733.6523 123.613 733.6523 122.7188 733.0934 119.9245 730.6344 120.9305 730.6344 121.6011 730.1873 121.9364 729.405 122.2717 728.399 122.3835 727.1695 122.0482 726.4989 120.8187 724.9341 124.0601 717.5572 124.5072 714.5394 124.1718 710.8509 123.613 704.3682 123.2777 700.7915 122.7188 695.0912 122.3835 690.8439 120.7069 684.0259 119.5892 679.1079 120.5952 671.0604 121.4893 663.7953 121.154 661.2245 119.8128 660.4421 109.5298 662.454 108.1886 661.6716 104.2766 657.4243 103.3824 655.8595 102.9353 654.63 102.4882 653.9594 101.8176 653.5123 100.8117 653.177 99.8057 652.6182 99.1351 651.724 98.5762 650.718 97.9056 649.9356 96.1173 648.9297 87.8462 647.2531 82.7047 645.0177 80.6928 644.5706 76.4455 644.1235 74.5454 643.5647 71.6394 641.8881 67.8392 640.7704 66.7215 640.2116 64.7096 637.8644 60.6858 634.1759 58.1151 630.8228 51.6323 624.8989 49.844 622.6635 48.0557 618.7515 46.2673 616.6278 45.932 615.6219 45.7085 614.3924 45.3732 613.0512 42.6906 606.9037 42.2436 606.1213 41.4612 605.5625 40.6788 605.2272 40.2317 604.8919 40.0081 604.4448 40.2317 603.9977 40.6788 603.5506 41.2376 602.88 41.4612 602.3211 41.2376 601.6505 40.6788 601.2034 39.5611 600.7563 39.114 599.6386 38.7787 598.4091 38.108 597.4032 37.4374 597.0679 36.8785 596.9561 36.3197 596.7326 35.6491 596.0619 35.3138 595.1678 35.202 593.3794 34.9784 592.597 34.196 591.3675 32.1842 589.1321 31.6253 587.6791 31.6253 586.3378 32.2959 583.7671 32.4077 582.3141 31.8488 580.5257 30.7311 579.7433 29.3899 579.1845 28.1604 578.1785 23.0189 572.0311 18.101 566.219 13.4066 560.5187 9.3828 555.6008 6.0297 551.6888 1 545.6531 2.9001 546.5473 7.371 548.0003 12.6242 549.6769 17.8774 551.3535 23.0189 553.03 28.2722 554.8184 33.5254 556.4949 38.7787 558.1715 43.9201 559.8481 49.1734 561.5246 54.4266 563.2012 59.5681 564.8778 64.8213 566.5543 70.0746 568.2309 75.2161 569.9075 80.4693 571.584 85.7226 573.2606 90.9758 575.049 96.8997 576.9491 103.3824 578.1785 111.2064 577.3961 112.9947 577.2844 116.1243 576.9491 119.1421 576.6138 122.2717 576.3902 125.2895 576.0549 128.4191 575.8314 131.437 575.496 134.5666 575.1607 137.5844 574.9372 140.714 574.6019 143.7318 574.3783 146.8614 574.043 149.8792 573.7077 153.0088 573.4842 156.0266 573.1488 159.1562 572.9253 162.174 572.59 171.7864 571.6958 185.5342 574.3783 197.0466 576.6138 204.2 579.6316 205.8766 578.9609 208.2238 574.4901 209.6768 572.59 211.8004 571.4723 228.7897 566.4426 230.1309 566.4426 241.7551 566.5543 250.2497 566.6661 260.6444 568.4545 263.774 568.5662 272.9393 565.9955 276.516 564.8778 280.2044 563.8718 283.7811 562.7541 287.4695 561.6364 291.158 560.6305 294.7347 559.5128 298.4231 558.5068 301.9998 557.3891 305.6882 556.3832 309.2649 555.2655 312.9534 554.2595 316.6418 553.1418 320.2185 552.0241 323.9069 551.0182 327.4836 549.9004 331.1721 548.8945 336.5371 547.3297 341.455 543.753 343.1316 541.5176 344.4728 539.2822 344.8081 539.0586 345.367 538.8351 345.5905 538.4998 345.0317 537.8292 343.1316 536.3761 340.5608 533.6936 338.3254 532.1288 337.9901 531.2347 338.1019 530.0052 338.996 527.3227 343.1316 519.0516 343.3551 517.5986 343.2433 513.2395 344.3611 503.6272 344.2493 502.1741 343.914 500.7211 343.4669 499.7152 341.9021 497.8151 340.8961 494.909 341.0079 491.6677 347.1553 468.3075 347.7142 467.1898 348.8319 466.6309 357.3265 464.9543 358.6678 464.2837 364.5916 458.2481 365.8211 456.5715 367.9448 448.3004 369.5096 447.1827 371.8568 446.8474 373.4216 445.6179 374.9864 443.9414 376.7747 442.3766 381.022 440.2529 383.3692 439.5823 387.0576 439.4705 387.9518 439.9176 388.3989 440.9235 388.5107 442.6001 388.3989 443.159 388.0636 443.7178 387.84 444.0531 387.84 444.7238 388.3989 445.0591 389.1813 445.2826 390.6343 445.6179 391.8638 445.6179 394.211 445.0591 395.5523 444.9473 396.7817 445.2826 399.0172 446.6239 400.3584 447.071 401.3644 447.1827 404.6057 447.071 408.6295 447.4063 409.7472 447.1827 414.1063 445.2826 417.9065 444.8355 420.1419 443.8296 423.495 443.159 424.7245 442.7119 428.6365 440.1411 429.5307 439.4705 430.4249 438.7999 431.4308 438.4646 433.8898 438.5763 434.8957 438.1293 435.5663 436.788 435.231 433.6584 432.9956 432.9878 427.7424 433.6584 426.5129 433.3231 425.2834 432.5407 424.3892 431.423 424.0539 428.5169 423.1597 427.2875 422.2656 426.1697 421.8185 425.052 422.6009 423.7108 424.6128 423.7108 428.6365 424.605 430.6484 424.3814 432.5485 423.599 433.8898 422.7048 435.9017 421.2518 439.8136 416.8927 441.4902 415.9986 442.3844 415.9986 444.2845 416.2221 446.8552 416.1103 447.5259 415.775 448.1965 414.7691 449.3142 413.8749 452.5556 412.0866 452.8909 411.5277 453.1144 409.9629 453.4497 409.2923 455.4616 407.3922 455.7969 406.8333 456.244 406.1627 457.4735 403.0331 458.3677 402.0272 459.5971 401.9154 461.2737 402.4743 462.615 403.2567 464.1798 404.5979 464.8504 405.4921 465.6328 406.2745 466.974 406.498 469.433 406.3862 472.0037 406.6098 478.5982 408.957 480.8337 409.4041 481.9514 408.957 483.2926 408.1746 484.075 407.2804 483.5162 406.6098 482.2867 406.3862 478.5982 406.498 477.257 406.2745 476.1393 405.8274 475.9157 405.045 477.1452 404.1508 479.8277 402.6978 481.2807 402.1389 482.7338 402.1389 484.8574 402.9213 488.4341 405.045 492.0108 405.7156 492.7932 406.1627 493.2403 407.0569 493.352 410.0747 493.9109 411.0806 495.4757 412.9807 498.3817 417.2281 500.0583 418.3458 502.5173 418.1222 506.541 416.1103 508.6647 415.3279 510.9001 415.5515 512.5767 414.7691 514.8121 413.2043 516.824 411.416 517.6064 410.0747 518.6123 409.4041 519.5065 408.3981 526.3245 397.7799 528.1129 395.9915 531.1307 393.6443 531.2425 393.4208 531.466 392.9737 531.2425 392.0795 529.3424 386.3792 528.1129 379.4494 528.1129 377.7728 528.6717 374.6432 528.6717 371.5136 529.1188 368.384 529.1188 366.7075 528.8953 365.1427 527.3305 361.0072 526.6598 357.8776 526.9952 354.748 528.1129 351.9537 530.013 349.6065 531.2425 348.7123 533.925 347.8182 535.0427 346.924 538.284 341.8943 539.0664 340.4413 539.29 339.5471 538.6194 337.0881 538.5076 335.7469 538.3958 335.188 537.9487 334.8527 537.3899 334.6292 536.831 334.2938 536.3839 333.8468 536.0486 333.1761 535.9369 331.7231 536.6075 330.7172 538.7311 329.1524 540.2959 327.0287 541.8607 325.7992 542.3078 325.4639 542.8667 323.2285 541.749 315.181 542.3078 313.8397 542.9784 312.6102 544.5432 310.4866 546.6669 309.1453 549.2376 308.81 550.4671 308.81 552.479 308.4747 553.1496 308.5865 553.5967 308.81 554.2673 308.9218 555.385 308.6982 558.2911 306.5746 560.7501 306.1275 564.8856 308.2512 567.5681 308.0276 572.2625 305.1216 572.9331 305.0098 574.7215 305.2333 575.5039 304.898 575.9509 304.2274 578.0746 300.2036 578.7452 299.8683 580.31 300.4272 581.6513 300.5389 582.8807 299.8683 593.499 290.8149 593.9461 288.3559 592.9402 286.0087 589.6988 282.3202 589.3635 281.7614 588.9164 280.5319 588.4693 280.0848 586.681 279.526 586.2339 279.1906 585.3397 278.0729 584.7809 276.7317 584.5573 275.2787 584.6691 273.8256 585.8986 269.1312 586.0103 267.3429 585.675 266.784 585.2279 266.4487 584.222 266.0017 583.6631 265.4428 583.3278 265.1075 582.9925 263.878 582.4337 260.9719 581.8748 260.0778 579.1923 260.6366 575.8392 259.1836 574.8332 258.9601 573.3802 258.8483 572.3743 258.1777 571.7036 256.7246 571.2565 255.2716 570.6977 254.1539 569.2447 251.9185 568.6858 250.8008 567.9034 247.8947 567.3446 246.8888 565.4444 245.1004 565.1091 243.871 565.8915 242.865 567.0092 241.6355 567.121 240.5178 566.8975 239.4001 567.0092 238.1706 568.127 237.1647 569.8035 236.6058 573.1567 236.047 575.2803 236.1587 588.8046 240.9649 592.3813 241.3002 594.505 242.4179 595.6227 242.7532 600.6524 242.9768 605.9056 244.0945 607.8057 244.2063 616.1886 242.9768 624.6832 243.0886 629.154 242.1944 630.2717 239.959 630.4953 238.953 631.1659 238.8413 632.8425 239.4001 633.9602 239.4001 634.8543 239.1766 635.6367 238.5059 636.3074 237.5 637.6486 237.0529 640.6664 236.3823 641.6724 235.3763 642.0077 234.0351 641.7842 232.8056 641.6724 231.5761 642.343 230.0113 644.1314 227.9994 644.5784 226.9935 644.5784 225.2052 644.4667 223.6404 643.796 221.0696 643.796 219.6166 645.6961 214.3634 645.3608 212.4633 641.0018 210.0043 638.9899 208.1042 637.2015 205.9805 635.9721 203.9686 635.3014 202.5156 634.9661 200.8391 635.0779 199.1625 635.7485 197.8212 636.7545 197.3741 636.8662 197.3741 638.2075 197.2624 640.7782 197.7095 641.8959 197.1506 642.5666 195.5858 642.7901 193.7975 642.5666 192.2327 642.1195 190.4443 642.1195 189.3266 642.7901 188.4325 647.2609 184.8558 649.6081 183.5145 650.5023 182.7321 653.7437 177.926 654.7496 175.3552 655.8673 173.008 658.1028 171.2197 665.7032 168.2019 666.5974 167.8666 667.1562 167.3077 667.6033 166.5253 668.1622 164.737 668.721 163.8428 669.3916 163.3957 669.8387 162.7251 669.9505 162.0545 669.6152 161.2721 669.6152 157.9189 671.2917 155.907 675.6508 152.8892 677.2156 150.4303 677.7745 148.8655 677.4392 147.8595 675.5391 146.2947 672.0741 142.271 670.9564 140.3708 671.0682 138.2472 672.9683 135.7882 676.0979 133.1057 676.6568 131.988 676.7685 130.4232 676.2097 129.4173 675.4273 128.5231 674.9802 127.8525 674.6449 127.2936 674.1978 125.6171 674.5331 124.164 674.9802 122.711 674.9802 121.258 674.4213 120.1403 673.4154 119.3579 669.9505 117.5695 668.6092 116.5636 668.0504 115.3341 668.8328 113.7693 669.9505 112.3163 670.3976 110.8633 670.0623 109.522 669.2799 108.1807 668.8328 107.7337 667.9386 106.9513 667.6033 106.5042 667.268 105.61 667.268 104.9394 667.3798 104.2688 667.268 103.4864 666.8209 102.2569 664.809 98.5684 663.9149 97.3389 661.0088 95.3271 660.3382 94.0976 660.1146 91.6386 659.2205 90.5209 657.3204 89.7385 655.532 89.2914 653.8554 88.6208 652.2906 86.8325 651.3965 86.1618 649.1611 84.9323 648.4904 84.3735 648.3787 84.0382 648.1551 82.9205 648.714 81.691 650.7259 79.5673 651.0612 78.8967 651.3965 77.2201 651.7318 76.6613 654.1908 75.0965 656.0909 74.2023 656.6497 73.7552 657.0968 72.9728 657.4321 71.408 657.7674 70.8492 661.6794 69.3961 663.0207 68.502 667.8268 63.0252 668.8328 62.3546 670.0623 61.9075 671.5153 61.5722 672.7448 60.9015 672.4095 59.8956 671.7388 58.7779 672.0741 57.5484 673.6389 55.9836 674.1978 55.2012 674.6449 53.86 675.4273 51.5128 675.9861 50.8421 677.2156 50.7304 678.4451 51.1774 682.0218 53.6364 683.9219 55.6483 684.8161 55.9836 685.822 55.9836 686.8279 55.6483 687.6103 54.7541 687.3868 53.6364 686.2691 51.5128 686.2691 49.0538 687.4986 48.2714 691.6341 47.9361 692.64 47.6008 693.4224 46.9301 694.2048 46.1477 694.9872 45.3653 698.0051 43.6888 699.011 42.5711 700.3523 41.9004 702.923 41.2298 703.9289 40.3356 704.0407 39.5532 703.7054 38.8826 703.5936 38.3238 704.1525 37.6531 704.9349 37.2061 706.4997 36.6472 710.0763 36.2001 711.1941 35.5295 710.747 34.3 709.8528 32.7352 710.0763 31.7293 711.0823 31.0586 713.8766 29.8292 719.3534 28.5997 722.1476 28.3761 724.7184 27.5937 727.6244 27.7055 728.9657 27.3702 732.8777 24.0171 735.8955 22.4523 739.9193 21.5581 744.0548 21.2228 749.308 22.0052 754.8966 21.6699 756.6849 21.2228 758.2497 20.3286 759.8145 19.9933 761.7146 20.7757 762.6088 20.8875 763.2794 20.4404 764.8442 19.4344 765.8502 19.0991 775.2389 18.0932 777.1391 18.3167 779.0392 18.7638 779.9333 18.8756 780.8275 18.7638 783.9571 17.6461 786.9749 17.8696 791.1105 17.3108 793.0106 17.6461 795.1342 17.8696 803.2935 16.5284 807.6526 16.7519 807.7644 16.7519 811.6763 16.8637 815.4766 17.6461 817.3767 18.4285 822.5182 21.6699 824.4183 22.1169 826.3184 22.8993 828.1067 22.8993 831.7952 21.6699 832.354 20.8875 832.6893 18.205 833.1364 17.0872 834.0306 16.4166 835.0365 16.0813 839.1721 16.6402 840.6251 16.0813 843.7547 13.6223 848.8961 10.2692 850.5727 8.9279 853.1435 8.1455 854.4847 8.0338 855.7142 8.4809 855.9377 8.5926 856.1613 8.9279 857.279 10.6045 858.5085 11.6105 859.5144 11.3869 859.9615 8.9279 860.185 8.2573 860.2968 7.6985 860.185 7.1396 859.8497 6.6925ZM410.5296 953.6179L411.4238 954.5121 412.8768 954.6239 415.6711 953.6179 416.9006 954.4003 417.3476 954.6239 416.1182 955.1827 415.7828 956.0769 415.4475 956.9711 413.6592 957.4182 412.6532 956.9711 411.6473 955.9651 411.0884 955.1827 410.8649 954.7356 410.5296 953.6179Z" />
</svg>