<?xml version="1.0" encoding="utf-8"?>
<svg xmlns="http://www.w3.org/2000/svg" viewBox="0 0 1021 971" style="stroke-width:0.25px;stroke-linejoin:round;stroke:#444;fill:#ddd" fill-rule="evenodd">
  <path class="PL" d="M478.4865 886.5909L478.9336 884.0201 478.71 880.7788 477.257 874.0725 476.8099 872.7312 475.5804 869.937 475.1333 868.4839 474.4627 863.0072 474.0156 861.7777 472.4508 860.66 470.886 860.9953 469.3212 861.6659 467.8682 861.7777 466.527 860.9953 464.5151 858.6481 463.2856 857.5304 461.8326 857.0833 458.703 856.8597 457.3617 855.8538 456.6911 854.7361 455.6851 850.1535 453.2262 845.2355 451.5496 840.4294 451.4378 836.2938 454.2321 833.0525 451.5496 831.5994 451.1025 829.5876 451.4378 827.2404 450.7672 824.3343 449.2024 823.4402 445.2904 826.0109 442.9432 826.0109 435.3428 821.8754 431.4308 820.4223 427.407 820.9812 427.6306 820.9812 427.7424 820.9812 427.8541 821.2047 427.9659 821.4283 425.1716 823.999 423.7186 824.2226 421.7067 822.546 421.1479 821.54 420.3655 819.0811 420.0301 818.1869 418.8007 817.2927 416.4535 816.8457 415.224 816.2868 411.9826 813.4925 410.4178 812.7101 404.0469 811.4806 402.7056 809.9158 403.3762 807.0098 397.4524 803.0978 395.9993 802.7625 394.3228 802.3154 394.7699 805.8921 395.3287 806.1156 396.1111 805.8921 397.0053 805.8921 397.6759 807.0098 397.7877 808.5746 397.3406 809.2452 393.9875 810.2512 389.9637 810.3629 388.0636 810.81 385.1575 813.4925 381.4691 814.6102 377.7806 813.8278 371.1861 807.3451 370.0684 805.7803 369.286 803.8802 368.7272 801.8683 367.9448 800.1917 366.8271 798.8505 365.9329 797.8446 365.5976 796.9504 365.9329 796.0562 366.8271 795.2738 366.9388 795.162 366.9388 795.0503 366.9388 794.9385 366.8271 794.715 365.4858 794.3796 362.6915 793.0384 361.3503 792.7031 360.2326 792.9266 359.4502 793.4855 358.3325 793.5972 356.7677 792.9266 351.8497 786.6674 351.6262 785.5497 352.4086 783.8732 353.5263 783.3143 358.4442 783.2025 361.1267 782.0848 365.4858 779.5141 367.4977 777.7257 368.3919 775.3785 366.8271 772.3607 365.8211 771.3548 365.5976 769.6782 365.7094 768.2252 366.8271 765.3191 367.0506 764.7603 367.1624 764.3132 367.1624 763.8661 366.8271 763.5308 365.0387 761.0718 364.4799 760.513 362.6915 759.8424 362.0209 760.2894 361.7974 761.4072 361.2385 762.6366 358.2207 766.7722 356.4323 768.2252 354.0851 768.8958 345.0317 767.2193 340.2255 767.6663 337.2077 771.3548 336.7606 771.6901 336.2018 771.8019 335.6429 771.6901 335.084 771.3548 334.1899 768.337 331.9545 766.5486 329.719 766.7722 328.6013 769.6782 327.2601 768.6723 326.5894 766.9957 326.3659 764.9838 326.4777 762.9719 326.0306 762.5249 325.5835 762.0778 325.2482 761.5189 325.0246 760.9601 326.813 760.1777 324.8011 759.2835 319.9949 759.3953 317.536 758.7246 313.9593 756.4892 313.0651 755.3715 312.3945 754.0303 311.7239 751.9066 311.3886 750.23 311.6121 749.7829 310.4944 749.4476 307.3648 750.0065 306.0235 750.0065 304.6823 749.3359 302.3351 747.324 301.2174 746.6534 290.8227 743.7473 288.4755 743.9708 286.9107 743.0767 284.1164 741.4001 281.7692 741.0648 278.9749 742.7414 278.9749 744.9768 282.3281 749.7829 283.4458 752.689 284.2282 756.1539 285.1223 759.1717 287.0224 761.1836 289.5932 762.6366 291.3815 764.6485 292.4992 767.4428 292.611 771.3548 293.9523 773.0314 294.1758 775.155 293.5052 776.4963 292.2757 776.0492 291.158 774.4844 290.7109 773.4784 290.0403 773.0314 288.5872 773.0314 288.3637 773.4784 288.3637 775.3785 288.1402 775.9374 287.1342 776.0492 285.3459 775.3785 284.4517 775.3785 283.2222 776.2727 281.5457 778.6199 280.5397 779.4023 279.422 779.7376 278.1925 780.0729 276.1806 779.8494 274.1688 780.1847 271.8216 782.1966 270.0332 784.8791 268.9155 787.1145 267.686 788.7911 265.4506 790.4677 262.321 794.715 258.1855 795.0503 253.9382 792.8149 250.4733 789.5735 248.6849 787.2263 247.679 785.2144 246.5613 779.8494 245.4436 776.8316 242.4257 773.702 241.0845 771.3548 239.6315 769.3429 237.0607 764.6485 235.6077 762.5249 233.3723 760.9601 228.7897 759.2835 227.0013 756.9363 226.7778 755.4833 226.8895 754.0303 226.7778 752.5772 226.1072 751.1242 225.1012 750.7889 220.5186 750.7889 219.2891 751.236 218.6185 751.7948 217.8361 752.0184 216.4948 750.9007 216.0477 750.0065 214.7065 745.9827 211.4651 745.3121 210.4592 742.5178 211.2416 739.9471 213.3652 740.3942 213.1417 739.9471 212.5828 738.1587 213.2535 738.1587 214.1476 737.4881 214.7065 737.2646 216.2713 736.0351 218.0596 734.9174 219.6244 733.5761 220.4068 731.5642 221.9716 731.0054 225.213 731.8996 227.0013 731.5642 227.8955 730.223 230.0191 728.2111 230.9133 726.9816 230.578 726.9816 230.578 726.0875 230.6898 724.858 230.9133 724.0756 231.3604 723.1814 231.5839 722.7343 231.5839 722.1755 231.2486 720.946 234.3782 719.6047 233.484 716.5869 224.8777 707.4217 221.7481 705.6333 218.3949 704.8509 214.7065 704.7392 213.477 704.9627 212.6946 706.6393 211.9122 708.6512 210.6827 710.216 209.0062 710.5513 207.4414 709.8806 204.3118 707.4217 199.9527 706.9746 193.6935 713.122 189.3344 713.9044 189.2227 713.3455 189.1109 712.8985 189.2227 712.3396 189.3344 711.8925 190.7875 710.663 191.1228 708.7629 190.5639 706.5275 189.6697 704.4039 188.3285 701.8331 186.9872 700.6036 185.3107 700.2683 179.275 702.6155 176.4807 702.6155 175.8101 702.392 170.6686 693.6738 170.3333 692.6679 170.1098 691.6619 167.6508 691.3266 159.1562 693.4503 158.1503 693.115 157.3679 692.3326 156.0266 690.3207 154.9089 689.5383 134.5666 682.3849 130.431 682.7202 129.4251 683.9497 128.4191 685.6263 127.3014 686.8558 127.1897 686.744 125.9602 686.4087 125.2895 685.0674 125.2895 683.5026 125.6249 681.9378 125.6249 680.373 124.3954 677.3552 122.8306 676.014 121.0422 675.2316 119.0304 673.6668 117.9127 671.8784 116.6832 669.1959 115.789 666.4017 115.4537 664.0545 116.1243 661.1484 117.0185 659.4718 117.1303 657.907 115.5655 655.2245 112.8829 653.8833 107.0708 653.7715 106.0649 651.4243 105.6178 648.9653 104.3883 648.4065 103.1589 649.3007 102.2647 651.4243 101.9294 653.1009 100.6999 653.3244 99.3586 652.6538 98.1292 651.4243 97.235 649.8595 92.0935 648.7418 90.1934 646.9535 89.9699 648.2947 89.411 648.9653 87.958 650.0831 87.3991 650.1948 86.8403 650.5301 86.2814 650.8655 85.8343 651.4243 86.2814 653.3244 87.958 654.5539 89.411 656.7893 89.5228 661.4837 89.2992 662.3779 88.2933 663.4956 87.958 664.0545 87.8462 664.9486 87.958 665.5075 88.0697 665.9546 88.1815 671.5431 87.958 672.9961 76.4455 672.102 72.7571 673.1079 70.5217 672.9961 70.6334 670.0901 71.9747 667.6311 75.6631 663.6074 80.6928 651.4243 85.2755 639.9119 85.6108 638.1235 85.6108 634.9939 85.7226 633.4292 86.2814 632.3114 87.0638 631.529 87.7344 630.4113 87.958 628.3994 88.0697 624.2639 88.9639 619.7931 90.3052 615.434 91.9817 611.9691 91.6464 611.522 91.1993 611.0749 91.7582 606.3805 90.3052 603.1392 87.958 600.4567 86.1696 597.2153 85.8343 596.0976 85.3872 593.0798 85.3872 592.968 84.8284 586.0382 84.3813 581.7909 85.2755 579.779 84.2695 577.5436 82.3694 575.5317 80.8046 574.3022 78.4574 573.1845 73.763 571.8432 71.4158 570.502 69.2922 568.9372 62.5859 566.7018 60.3505 564.3546 60.0152 562.5662 59.7916 561.4485 60.6858 558.3189 62.5859 555.0776 63.8154 551.8362 63.7036 547.5889 62.6977 543.4534 61.3564 540.5473 56.4385 536.5235 54.0913 533.841 53.0854 529.5937 52.7501 525.3464 51.297 523.4463 49.5087 522.1051 47.8321 519.5343 47.4968 516.0694 48.8381 513.2751 54.6502 507.3513 56.5503 504.7805 58.1151 501.8745 58.8975 498.6331 59.2328 488.5737 59.7916 487.0089 62.0271 482.9851 62.4741 481.4204 62.5859 479.9673 62.9212 478.4025 63.7036 477.0613 65.6037 474.7141 59.0092 469.7961 58.0033 467.3372 58.5622 463.0899 59.6799 460.0721 60.127 457.7249 58.6739 455.3777 58.6739 454.3717 60.574 451.801 60.6858 448.3361 59.0092 445.43 56.215 444.2006 53.3089 443.5299 49.844 441.7416 47.6086 439.1708 48.2792 436.153 46.1556 431.3469 43.6966 424.0817 43.1377 417.4872 48.391 412.9046 50.8499 408.9926 52.5265 405.0806 52.0794 403.2923 50.1793 401.504 50.9617 397.7037 53.756 391.6681 50.6264 389.0974 50.0675 388.4267 44.1437 381.8322 38.108 379.3733 35.202 375.3495 33.1901 374.4553 32.1842 373.4494 28.7193 366.6314 27.1545 364.7312 16.3127 356.7955 13.6301 355.2307 10.277 351.3187 8.2651 350.4245 6.0297 350.3128 3.9061 349.6421 2.1177 348.1891 1 345.8419 3.6825 343.4947 4.6884 341.4828 5.1355 338.3532 4.912 336.2296 3.6825 330.1939 3.0119 328.5174 3.0119 327.5114 7.9298 323.823 14.0772 320.5816 20.1129 315.7755 23.2425 312.5341 24.5837 309.5163 24.8073 308.0633 27.9369 298.5627 27.7133 296.1037 27.0427 293.6448 26.7074 290.9623 26.9309 288.7268 27.7133 286.6032 28.7193 285.1502 29.837 284.4795 30.5076 283.3618 33.1901 278.2204 31.8488 276.9909 31.4018 275.9849 29.9487 274.6437 29.2781 273.6377 28.9428 271.9612 28.9428 268.8316 28.7193 267.3785 28.0486 264.249 25.925 254.3013 24.919 245.4714 22.7954 241.8947 21.6777 238.318 19.2187 234.5178 18.5481 231.0529 18.4363 227.2527 18.6598 220.9935 18.5481 219.3169 16.4244 212.7224 14.8596 209.3693 15.3067 206.6868 15.1949 201.8806 15.1949 201.7689 16.0891 201.6571 17.9892 200.8747 19.3305 199.6452 19.4422 198.304 17.6539 197.0745 18.6598 196.4039 18.9952 195.845 18.6598 195.2861 17.6539 194.7273 18.2128 193.386 19.2187 194.2802 20.6717 195.0626 21.9012 195.9568 23.0189 199.3099 24.4719 200.4276 27.2662 201.6571 29.2781 203.8925 30.3958 204.7867 34.8667 205.5691 40.3435 207.581 42.2436 209.034 43.8084 211.2694 47.1615 217.6404 48.2792 219.2052 48.8381 218.7581 48.9498 215.9638 49.3969 214.399 50.2911 213.2813 51.6323 212.2754 51.5206 211.6047 51.5206 210.9341 51.6323 209.9282 50.5146 209.5928 47.9439 209.3693 46.8262 208.6987 43.6966 201.0982 44.2554 197.298 46.8262 189.9211 47.9439 190.9271 48.9498 190.5917 50.0675 190.0329 51.6323 189.9211 50.9617 185.562 51.297 182.0971 51.9677 179.0793 52.303 175.838 51.6323 175.838 51.4088 177.8498 50.6264 179.1911 48.1674 181.6501 48.8381 182.8795 47.9439 182.5442 47.1615 181.9854 46.6026 181.4265 46.0438 180.5323 46.6026 179.9735 47.4968 178.744 48.1674 178.1851 46.8262 175.2791 44.3672 173.8261 33.0783 172.7084 31.5135 170.92 32.8548 167.5669 32.5195 167.2316 32.4077 167.2316 32.4077 167.008 32.1842 166.4492 31.1782 168.1257 30.3958 168.3493 29.5017 167.9022 28.2722 167.5669 27.4898 167.9022 26.7074 168.7964 26.0367 169.9141 25.2543 171.0318 28.2722 171.5906 29.837 172.373 30.7311 173.4908 30.5076 175.6144 29.5017 177.0674 28.1604 177.6263 27.2662 176.9557 24.4719 178.744 23.1307 179.1911 21.6777 179.3029 21.6777 180.5323 23.0189 181.0912 23.0189 181.4265 21.6777 181.6501 20.6717 181.5383 19.1069 180.7559 17.8774 180.5323 16.2009 179.4146 11.3947 172.2613 8.9358 171.2553 8.7122 171.2553 7.9298 168.5728 6.1415 166.3374 7.1474 166.1139 7.9298 165.4432 9.7182 160.8606 11.3947 161.643 12.5124 162.5372 15.5303 163.7667 25.5897 164.5491 29.6134 163.7667 33.5254 161.643 40.9023 156.278 67.7274 144.3185 90.864 138.1711 119.0304 126.2116 137.3608 121.2936 157.3679 115.9286 177.0396 106.9869 193.3582 104.975 204.5353 101.1748 203.3058 102.4043 198.2761 104.7515 200.3998 106.3163 209.3415 104.7515 209.3415 103.6338 208.6708 103.6338 208.6708 102.4043 213.477 102.4043 213.477 101.5101 213.3652 101.3983 213.1417 101.3983 212.8064 101.1748 213.0299 98.3805 210.6827 98.2688 205.2059 99.9453 208.6708 98.2688 212.9182 95.4745 219.1773 88.0976 217.8361 90.6683 215.6007 93.1273 214.7065 94.3568 215.6007 94.0215 217.5008 93.6861 219.0656 93.0155 220.5186 91.3389 224.0953 89.6624 225.3248 88.0976 224.207 85.5268 222.1952 85.5268 221.301 86.6446 219.7362 88.0976 224.0953 80.6089 235.8312 65.5198 235.8312 66.5257 235.2724 68.3141 236.2783 68.7612 237.9549 68.0905 239.1844 66.5257 239.855 64.1785 239.2961 63.5079 237.9549 64.0668 236.5019 65.5198 238.5138 61.2725 242.0904 57.8076 249.0202 53.4485 270.145 50.3189 278.4161 47.0776 282.6634 46.2952 286.5754 44.9539 296.2994 34.2239 326.813 19.8054 365.2623 12.5403 382.475 6.6164 409.5237 4.1574 426.1776 4.1574 428.5248 4.9398 432.1014 8.1812 433.5545 8.9636 435.6781 9.4107 470.3272 30.2001 476.5864 38.3594 477.5923 40.3713 478.71 43.0538 478.71 45.401 476.9217 46.2952 476.4746 45.7363 476.0275 44.395 475.3569 43.1656 473.5685 41.8243 472.3391 38.5829 470.6625 36.4593 465.8563 28.1882 464.8504 27.7411 461.2737 27.0705 460.3795 26.6234 459.4854 25.0586 456.5793 24.0527 450.5437 19.8054 444.6198 16.8993 443.6139 15.5581 440.3725 12.9873 439.4783 12.652 438.2488 13.2109 437.5782 14.1051 436.1252 19.1348 435.9017 20.2525 435.9017 22.8232 436.4605 23.4938 438.9195 24.6116 439.4783 25.2822 440.7078 27.4058 442.1608 30.6472 442.0491 31.9884 441.7138 33.1062 441.7138 34.2239 442.9432 35.5651 442.2726 38.9183 443.5021 40.3713 445.4022 40.036 447.0788 37.8006 446.5199 40.7066 447.3023 43.0538 448.5318 44.9539 451.1025 53.0014 451.8849 54.678 451.5496 58.7018 451.5496 65.5198 452.2202 72.1143 453.6733 75.0204 455.2381 75.5792 458.3677 77.9264 459.9325 78.4853 461.2737 78.597 463.062 79.1559 464.4033 80.0501 465.0739 81.6149 466.7505 84.0738 483.8515 89.5506 487.6517 89.8859 490.7813 88.0976 491.6755 88.9917 492.905 89.6624 495.6992 90.4448 533.7014 84.7444 542.0843 80.7207 546.108 79.8265 549.3494 78.2617 555.4968 71.779 557.2851 70.9966 559.4088 72.7849 564.4385 74.4615 572.3743 74.9086 593.2755 76.0263 632.6189 78.1499 661.903 79.7147 691.187 81.2795 727.4009 83.1796 771.4387 85.5268 799.6051 87.0916 827.7714 88.5447 851.4669 89.7741 870.5798 90.7801 877.5096 88.5447 879.4097 86.9799 881.9804 82.1737 882.0922 81.9502 884.6629 80.7207 886.7866 81.056 892.934 84.1856 893.9399 84.2974 896.2871 83.8503 897.2931 84.0738 898.4108 85.1915 898.9696 86.5328 899.4167 87.874 900.0873 88.9917 901.2051 89.7741 904.67 90.2212 905.3406 91.1154 905.0053 92.792 904.3347 94.8039 904.3347 96.5922 906.2348 99.1629 908.4702 99.1629 910.9292 98.157 912.941 97.7099 914.8411 98.6041 921.1003 103.8573 925.0123 106.2045 933.1716 109.3341 935.1835 111.1224 937.0836 112.6872 938.0895 114.252 939.8779 117.7169 940.7721 119.0582 941.8898 119.8406 944.0134 120.3994 945.0194 120.9583 946.6959 123.4173 948.0372 126.8822 949.1549 130.7942 949.9373 134.4826 951.3903 142.5301 951.5021 146.4421 949.9373 149.1246 948.7078 150.1306 948.149 150.8012 947.7019 151.5836 947.5901 153.3719 948.0372 154.9367 948.9314 156.278 949.9373 157.1722 950.6079 157.8428 950.8315 158.737 950.8315 159.7429 950.3844 160.7488 950.4961 165.7785 951.5021 169.9141 952.8433 173.9378 953.9611 178.2969 954.8552 187.3504 955.9729 190.9271 958.4319 194.5037 958.6554 205.122 961.0026 216.9697 969.609 243.5713 974.4152 253.5189 976.4271 258.8839 980.5626 274.979 982.3509 279.7851 984.1393 282.2441 985.1452 284.5913 985.9276 287.0503 987.1571 289.7328 988.9454 291.7447 990.7338 293.0859 991.7397 295.0978 991.5162 299.2333 990.622 301.5805 989.3925 303.7042 988.3866 305.9396 988.2748 309.2927 989.169 312.1988 992.1868 316.1108 993.4163 318.5697 993.5281 319.911 993.3045 321.9229 993.3045 323.0406 994.1987 327.735 994.1987 329.0762 993.8634 330.0822 992.7457 332.3176 992.5221 333.6589 992.6339 335.4472 992.9692 336.4531 993.3045 337.3473 993.6398 338.5768 994.4222 358.9191 994.6458 363.9488 993.3045 371.1022 989.2807 376.1319 975.7564 385.4089 958.879 390.2151 949.8255 395.4683 940.8838 402.957 928.589 421.9581 924.4535 426.9878 922.6651 429.8938 917.9707 439.5062 918.1943 439.6179 918.9767 440.1768 919.7591 440.8474 920.8768 442.524 921.2121 444.6476 920.3179 447.6655 922.6651 449.1185 929.9303 451.0186 931.495 450.4597 932.8363 451.801 939.0955 454.1482 941.2191 454.3717 941.2191 455.3777 940.5485 456.9425 940.7721 457.2778 942.2251 456.6072 943.5663 457.2778 944.4605 458.1719 945.3547 458.3955 946.8077 456.6072 947.2548 457.3895 948.2607 458.2837 948.9314 459.0661 950.6079 457.3895 950.9432 458.619 950.7197 460.6309 950.2726 461.1898 953.0669 466.7783 955.0788 467.449 959.8849 467.3372 961.785 468.4549 962.4557 469.7961 963.0145 471.1374 963.5734 472.1433 964.5793 472.5904 965.8088 473.3728 966.1441 475.3847 966.2559 477.2848 967.1501 479.2967 968.6031 485.5559 969.7208 488.3502 968.156 489.4679 966.8147 491.5915 964.9146 496.1741 964.244 499.192 964.1322 504.557 963.4616 506.3453 963.9087 506.5689 964.0205 506.5689 964.1322 506.7924 964.1322 507.463 963.0145 508.2454 962.5674 511.7103 961.4497 513.1634 963.0145 516.0694 964.9146 518.6402 963.7969 522.4404 961.785 524.3405 959.6614 525.6817 957.9848 527.6936 957.5377 528.8113 957.0906 530.5997 956.5318 534.3999 956.8671 535.1823 957.6495 536.4118 957.873 537.4177 956.8671 537.8648 956.5318 538.3119 956.8671 539.3178 957.426 540.4355 957.9848 541.2179 956.6436 542.7827 955.9729 543.2298 955.0788 543.3416 955.0788 544.5711 956.3083 545.8006 956.42 547.3653 955.8612 551.8362 956.1965 554.1834 957.0906 556.4188 959.3261 560.219 958.6554 560.3308 957.9848 560.219 959.2143 562.7898 960.7791 563.4604 962.2321 564.2428 962.5674 566.4782 962.791 567.4842 963.4616 569.7196 965.0264 570.8373 966.9265 571.5079 968.3795 572.5139 966.703 575.7552 966.9265 576.7612 971.062 582.9086 971.8444 584.8087 970.7267 585.3675 969.9443 586.4853 969.8326 588.1618 970.5032 590.3972 968.6031 591.0679 966.8147 592.968 965.4735 595.427 964.9146 597.5506 965.5853 601.0155 967.1501 601.7979 969.0502 601.9097 970.8385 603.0274 976.4271 615.3222 978.7743 618.1165 983.9157 621.3579 988.7219 626.3876 989.8396 628.2877 988.163 629.1818 987.8277 630.6349 989.2807 633.8762 991.9633 638.0118 992.8574 640.1354 993.9751 646.9535 993.9751 647.9594 993.5281 649.1889 994.3105 649.8595 995.6517 650.3066 996.8812 651.2008 997.9989 652.8773 998.2224 654.2186 998.3342 655.6716 998.8931 657.7953 1000.4579 660.366 1007.2759 666.737 1015.7705 671.3196 1017 673.3315 1015.7705 676.1257 1012.7527 676.7964 1009.3996 676.7964 1007.2759 677.8023 1004.5934 676.2375 1001.7991 676.5728 999.4519 678.3612 998.2224 681.1554 998.446 684.1733 999.899 686.2969 1002.358 687.4146 1005.1523 687.7499 1005.1523 688.7559 1003.811 691.5502 1005.264 694.0091 1008.0583 695.6857 1010.7408 696.3563 1010.182 700.0448 1010.9644 703.3979 1013.5351 709.6571 1011.1879 713.7926 1012.1938 721.3931 1012.9762 723.405 1013.4233 723.852 1013.3116 724.2991 1012.0821 726.0875 1010.182 728.0993 1003.5875 731.5642 1003.3639 733.4644 1003.4757 736.5939 1003.3639 738.6058 1002.8051 740.3942 1000.6814 745.5356 995.3164 747.7711 976.8741 747.9946 973.4092 749.1123 971.6209 750.0065 970.2796 751.3477 969.1619 753.6949 967.9325 757.9422 967.8207 758.1658 966.4794 760.1777 958.4319 768.8958 955.5259 771.3548 949.9373 775.6021 945.3547 779.1788 922.218 804.3273 919.2002 809.1334 915.4 812.0395 911.3762 816.5103 900.4227 832.6054 896.1754 837.0762 895.6165 838.3057 894.8341 841.4353 894.387 842.6648 893.4928 843.4472 891.7045 844.1178 890.8103 844.7884 889.8044 845.9062 883.5452 857.3068 881.8686 859.0952 880.7509 859.5422 878.5155 859.9893 877.3978 860.9953 876.7272 862.3365 874.9388 867.2545 867.2266 877.6492 864.6559 883.6848 866.6678 889.2734 867.3384 891.6206 868.009 898.2151 868.3443 900.0034 868.5679 900.8976 869.9091 902.9095 872.1446 905.2567 872.7034 906.4861 873.1505 908.9451 874.4917 923.14 874.1564 925.4872 872.4799 930.1816 871.0268 935.6584 869.3503 939.0116 868.7914 940.9117 869.462 941.6941 869.9091 941.4705 871.2504 939.6822 872.8152 940.9117 872.7034 940.9117 872.3681 941.0234 875.6095 943.3706 878.6273 947.2826 880.5274 948.6239 884.9982 951.1946 886.2277 952.7594 886.2277 954.1007 885.3336 957.1185 885.2218 959.2421 885.6689 960.6952 887.3454 963.4894 887.4572 963.8248 887.569 964.3836 886.4513 966.8426 884.4394 965.9484 882.0922 963.9365 880.3039 962.9306 879.1861 962.5953 877.286 959.9128 876.2801 959.0186 875.1624 958.795 872.927 959.5774 869.2385 959.2421 867.1149 959.4657 864.8794 959.2421 862.4205 957.4538 858.6202 953.3183 856.6084 952.6476 854.4847 954.6595 850.908 952.9829 842.9723 952.6476 839.2838 951.5299 834.1424 946.2767 832.0187 945.4943 826.3184 945.7178 821.624 944.153 820.8416 943.5942 820.618 942.5882 820.9534 941.5823 820.8416 940.4646 819.7239 939.2351 818.9415 939.1233 816.4825 939.3469 815.4766 939.3469 814.3589 938.788 811.0057 936.6644 803.8524 935.3231 800.9463 933.1994 800.2757 928.2815 799.0462 922.8047 796.1402 917.9986 792.4517 914.5337 786.9749 911.8512 783.2865 908.3862 781.3864 907.3803 779.3745 907.7156 777.5861 909.2804 776.1331 911.0688 775.1272 911.7394 773.5624 910.5099 770.0975 905.2567 768.4209 903.4683 767.415 903.133 765.8502 903.4683 765.0678 903.4683 764.0618 902.6859 762.1617 900.8976 761.1558 900.1152 759.2557 899.6681 751.9905 900.4505 750.4257 901.1211 748.6374 901.9035 747.0726 901.4564 743.3842 902.2388 741.7076 902.2388 731.76 899.4446 726.0596 896.4267 724.7184 896.0914 722.93 897.3209 719.6887 902.0153 718.0121 903.6919 715.7767 904.0272 714.2119 903.0212 712.7589 901.3447 710.9705 900.1152 709.4057 900.0034 705.2702 900.7858 703.7054 901.5682 701.6935 903.8036 702.923 905.2567 705.2702 906.7097 706.4997 909.0569 705.6055 910.5099 703.8172 910.8452 701.5817 910.8452 700.0169 911.1805 698.0051 913.1924 694.6519 918.1103 692.4165 920.0105 690.0693 920.9046 688.1692 920.5693 686.6044 919.3398 684.9278 917.5515 683.0277 916.2102 681.4629 915.9867 679.6746 915.9867 677.4392 915.6514 675.7626 914.5337 666.8209 903.6919 665.2561 903.4683 661.3441 904.0272 659.2205 903.6919 658.2145 903.8036 657.2086 904.3625 655.6438 906.3744 654.4143 907.4921 652.0671 908.3862 649.8317 907.8274 641.2253 903.3565 639.6605 903.8036 639.6605 906.4861 634.4073 906.5979 630.2717 905.0331 629.0422 905.1449 628.0363 905.9273 627.701 906.8215 627.4774 908.2745 626.9186 910.5099 626.248 912.6336 625.6891 913.3042 617.8651 914.0866 616.3003 914.869 614.1767 917.5515 613.1707 918.4457 610.9353 918.2221 610.6 917.9986 610.0411 918.781 608.141 923.14 607.5822 924.9284 606.9116 926.7167 605.5703 928.1697 605.0114 933.6465 604.0055 937.5585 601.9936 939.0116 598.6405 937.4468 593.3872 932.4171 590.593 930.964 587.3516 931.4111 585.4515 932.7524 583.5514 934.7642 582.0983 936.2173 579.8629 937.1114 575.1685 936.7761 572.5978 935.7702 571.2565 933.9818 571.7036 931.97 575.5039 925.7108 575.9509 925.2637 576.6216 925.1519 577.1804 924.8166 577.5157 923.9224 577.2922 923.2518 577.2922 923.14 576.5098 922.3576 576.398 922.3576 576.2862 921.9106 574.8332 920.9046 574.4979 920.3458 574.6097 919.7869 575.3921 918.5574 575.5039 917.8868 574.945 910.3981 574.3861 907.8274 573.492 904.9213 573.492 904.8096 572.486 904.1389 569.1329 905.4802 567.121 905.7037 564.8856 905.4802 559.0735 903.4683 559.297 901.68 559.1853 899.221 559.4088 898.3268 559.8559 897.3209 555.8321 897.3209 553.7085 896.762 551.9201 895.4208 551.3613 894.3031 549.7965 889.2734 547.8964 881.4494 546.6669 878.3198 544.3197 876.755 543.5373 875.8608 541.8607 872.843 540.9666 872.5077 540.4077 872.2842 539.8488 872.5077 539.4018 873.2901 530.6836 883.0142 529.9012 883.6848 528.4482 884.2437 527.4422 884.4672 524.3127 884.4672 522.3008 884.8025 520.6242 885.6967 519.1712 887.038 517.8299 889.2734 516.1534 894.3031 516.3769 894.5266 516.7122 894.9737 516.9358 895.7561 516.6004 896.762 516.1534 897.0974 514.9239 897.2091 514.7003 897.2091 513.9179 900.227 513.6944 902.2388 512.912 903.4683 509.7824 904.6978 507.3234 905.2567 506.2057 905.1449 505.3116 904.586 503.2997 903.133 502.2937 902.7977 500.0583 903.3565 496.1463 905.7037 493.5756 905.8155 491.6755 905.4802 491.1166 903.6919 491.4519 898.5504 491.2284 896.315 490.7813 894.1913 490.6695 891.9559 491.5637 889.2734 488.5459 887.485 478.4865 886.5909Z" />
</svg>