<?xml version="1.0" encoding="utf-8"?>
<svg xmlns="http://www.w3.org/2000/svg" viewBox="0 0 1021 224" style="stroke-width:0.25px;stroke-linejoin:round;stroke:#444;fill:#ddd" fill-rule="evenodd">
  <path class="PN" d="M108.5239 218.0708L110.2004 217.2884 111.7652 217.2884 113.2183 217.9591 114.336 219.3003 112.6594 219.7474 111.0946 219.6356 109.6416 219.0768 108.5239 218.0708ZM1015.6587 142.4018L1013.7586 142.8488 1015.6587 142.29 1015.7705 142.29 1016.6647 142.4018 1016.8882 142.9606 1017 143.8548 1016.8882 143.1842 1016.6647 142.7371 1015.7705 142.4018 1015.6587 142.4018ZM412.9886 78.804L417.4594 80.7041 419.6948 86.5162 419.8066 92.6636 418.13 95.4579 414.5534 93.1107 410.9767 87.6339 409.5237 81.9336 412.9886 78.804ZM2.2295 4.2526L2.9001 4.2526 2.7883 4.9232 2.0059 5.8174 1.3353 6.1527 1 5.2585 1.3353 4.8114 1.7824 4.8114 2.2295 4.2526Z" />
</svg>