<?xml version="1.0" encoding="utf-8"?>
<svg xmlns="http://www.w3.org/2000/svg" viewBox="0 0 1021 247" style="stroke-width:0.25px;stroke-linejoin:round;stroke:#444;fill:#ddd" fill-rule="evenodd">
  <path class="PR" d="M31.8488 166.5878L36.2079 170.6116 36.3197 173.2941 34.196 176.0883 30.284 183.0182 28.7193 184.8065 27.4898 186.5948 26.9309 189.7244 25.3661 190.8421 21.7894 191.1774 18.2128 190.8421 16.648 189.7244 14.189 186.1477 3.459 180.1121 1 174.6353 3.459 168.935 7.818 166.5878 29.6134 166.0289 31.8488 166.5878ZM978.1036 166.5878L974.7505 163.3464 969.2737 164.5759 962.1204 167.5937 932.501 174.6353 926.6889 177.4296 918.8649 174.8589 907.1289 176.3119 896.1754 174.7471 890.3633 163.57 896.1754 163.3464 898.0755 163.57 905.5641 162.8993 913.0528 160.1051 919.8708 155.9695 925.2359 151.6105 928.8125 149.7103 958.9908 144.7924 963.7969 145.6866 976.8741 150.2692 996.6576 151.0516 1001.5756 152.9517 1005.264 157.6461 1002.5815 159.0991 992.4103 158.4285 989.9514 159.3227 982.6862 164.3524 980.7861 166.5878 978.1036 166.5878ZM1004.1463 101.2017L999.0048 92.9306 983.2451 78.1768 983.3569 76.8355 992.6339 76.7238 1003.3639 78.9592 1012.5292 83.43 1017 90.3598 1015.9941 90.5834 1011.8585 90.3598 1014.4293 93.0424 1010.4055 93.2659 1007.2759 92.3717 1005.1523 90.4716 1004.1463 87.4538 1001.5756 87.4538 1005.0405 94.1601 1005.7111 97.2897 1004.1463 101.2017ZM872.1446 101.2017L870.5798 106.1196 873.2623 108.9139 876.2801 110.2551 881.5333 107.6844 880.5274 111.3728 881.5333 114.2789 886.116 120.4263 882.204 123.2206 881.6451 126.5737 878.292 126.909 874.6035 121.0969 870.3562 121.0969 869.015 125.3442 872.7034 130.2622 869.1267 133.3917 864.5441 132.6094 858.2849 129.368 851.6904 131.6034 844.7606 134.9565 837.2719 136.7449 831.1245 139.5392 824.53 146.0219 811.2293 166.8113 810.1116 177.3178 804.8583 184.1359 802.9582 185.3653 794.24 187.2655 792.2282 189.7244 796.1402 201.3486 788.7633 208.1667 774.5683 216.8848 755.0084 223.7029 746.5138 223.5911 737.9074 221.691 730.1952 221.0204 725.6125 221.9145 714.5472 226.3854 711.8647 226.7207 700.3523 226.3854 692.5283 228.3972 670.5094 240.1332 665.815 240.5803 661.6794 240.3568 657.991 240.6921 654.9732 242.5922 653.4084 240.1332 652.8495 239.1273 652.626 237.2272 656.7615 235.9977 657.7674 234.0976 656.2026 231.6386 652.626 229.0679 645.3608 235.6624 641.0018 236.8919 635.6367 235.5506 625.242 234.5447 621.6653 233.5387 619.7652 231.3033 618.3122 228.6208 616.4121 226.3854 611.6059 223.8146 608.2528 223.0322 602.1054 223.4793 593.3872 225.4912 582.5454 232.9799 574.945 232.0857 567.5681 226.3854 561.4207 219.1202 555.0497 214.9847 548.0081 216.4377 542.6431 217.2201 538.7311 219.232 533.2543 220.238 520.8477 221.0204 516.824 223.0322 513.0238 225.603 508.5529 226.4971 502.5173 223.4793 499.9465 225.2677 497.1523 226.3854 494.5815 221.9145 488.0988 221.3557 472.6744 223.4793 469.8801 222.6969 458.5912 218.2261 443.055 218.2261 443.3903 212.8611 440.0372 211.1845 435.0075 212.3022 430.2013 215.32 430.2013 218.2261 435.3428 218.2261 430.9837 224.2617 423.6068 228.2855 414.8887 230.8562 407.0647 232.0857 395.3287 231.6386 389.5166 232.1975 385.3811 231.8622 383.3692 232.0857 381.8044 233.6505 381.2455 236.4448 381.022 240.1332 373.9804 239.3508 368.6154 235.4388 360.1208 226.3854 352.5204 225.9383 344.0257 224.4853 334.8605 224.7088 329.4955 222.9205 324.2422 227.3913 318.0948 230.7444 312.5063 232.0857 308.0354 231.4151 294.9582 230.0738 286.6871 225.4912 282.6634 228.7326 285.2341 237.786 281.2103 237.5625 275.7336 229.1796 273.7217 225.3794 273.9452 214.4259 282.8869 210.1785 285.5694 208.7255 289.0343 207.6078 291.9404 206.043 293.1699 203.137 291.7168 201.0133 288.0284 199.1132 283.1105 200.0074 278.1925 197.8837 278.5278 190.5068 281.0986 186.7066 284.6752 184.1359 283.2222 180.1121 281.6574 173.4058 285.6812 169.2703 285.4576 156.5284 289.2579 142.1099 292.1639 138.9803 295.2935 135.9625 297.5289 131.3799 294.9582 127.1326 290.152 122.7735 284.2282 103.7724 280.6515 96.3955 272.1569 94.7189 265.3388 93.0424 259.415 81.3064 255.7265 75.4943 252.5969 68.3409 253.3793 65.5466 264.1094 62.4171 272.7157 58.7286 279.8691 55.7108 285.2341 52.3576 294.6229 44.869 295.07 36.0391 291.158 29.1092 290.5991 18.9381 297.5289 9.8846 316.4183 4.4078 336.5371 4.9667 350.0614 11.1141 389.7402 19.2734 428.9718 14.1319 434.3369 14.8025 448.42 19.7205 454.1204 20.1675 468.8741 16.8144 490.2224 14.8025 500.2818 16.1438 510.3413 19.7205 516.4887 18.6028 540.743 18.8263 555.7204 23.2971 587.7987 16.8144 617.418 25.8679 634.6308 20.7264 654.6378 27.2091 658.8851 23.9678 663.8031 24.7502 666.4856 28.1033 667.9386 30.3387 671.0682 32.0153 674.7567 29.8916 677.6627 25.8679 681.4629 26.9856 680.2334 32.2388 687.4986 36.0391 688.7281 39.951 691.187 44.9807 696.8873 45.3161 709.2939 41.5158 709.2939 38.498 703.1465 37.7156 696.2167 34.2507 690.7399 28.7739 686.1573 23.9678 710.9705 31.7917 717.1179 33.133 721.477 34.586 727.5127 35.7037 732.8777 33.2448 736.2308 28.1033 744.8372 30.0034 762.0499 34.9213 767.9738 31.0094 772.4447 31.9035 777.1391 35.3684 789.3221 38.1627 795.9166 41.7394 802.7347 49.0045 806.8702 47.1044 809.6645 43.0806 811.8999 43.9748 812.347 45.8749 810.4469 48.1103 808.8821 51.2399 811.7881 50.5693 815.7001 49.0045 818.0473 47.4397 824.53 56.7167 830.901 60.1816 835.8189 56.7167 845.9901 64.6525 859.1791 66.5526 865.6618 61.7464 868.6796 58.8404 871.921 56.7167 874.9388 57.4991 875.0506 60.2934 871.3622 79.8534 870.5798 96.5073 872.1446 101.2017Z" />
</svg>