<?xml version="1.0" encoding="utf-8"?>
<svg xmlns="http://www.w3.org/2000/svg" viewBox="0 0 895 1024" style="stroke-width:0.25px;stroke-linejoin:round;stroke:#444;fill:#ddd" fill-rule="evenodd">
  <path class="PS" d="M183.3377 737.7778L208.598 756.6671 231.8464 770.7503 213.8513 785.7276 192.7265 805.2876 192.6147 805.2876 182.8906 811.9938 109.5688 882.5215 95.5974 909.123 95.3738 921.9767 100.7388 948.1311 98.9505 961.0966 76.1492 985.5745 42.8414 1010.3877 32.4466 1020 20.8224 983.7861 17.0222 971.3795 1.2625 942.0955 15.7927 932.7067 24.8462 920.7472 53.9067 894.7045 66.9839 871.1208 97.2739 848.4312 110.1276 825.1828 158.8598 774.774 181.7729 741.4662 183.3377 737.7778ZM816.5215 807.1877L772.4836 810.8761 735.0403 832.3362 664.4009 891.4631 626.5105 905.6581 545.6999 904.9875 506.9153 910.2407 490.3732 916.0528 472.6015 918.8471 455.3888 916.1646 441.0821 905.211 433.4816 879.7272 442.9822 854.3551 472.1545 805.2876 475.8429 780.5861 476.1782 759.2378 478.9725 738.6719 489.2554 718.6649 490.7085 715.9824 502.5562 701.8992 557.9947 666.4678 580.1254 647.0196 593.6497 635.3954 601.1384 623.6594 616.2275 620.418 619.6924 623.3241 627.7399 624.4418 635.8992 633.4953 652.6649 631.1481 661.8301 637.2955 664.9597 634.2777 667.4187 635.5072 669.6541 639.1956 673.9014 641.7663 676.8075 640.5369 678.037 634.0541 681.1666 630.9245 683.2902 619.8592 686.9787 616.5061 689.9965 611.8117 687.9846 605.4407 683.7373 601.1934 683.402 595.7166 686.9787 584.9866 689.9965 580.5157 688.0964 578.2803 687.4257 572.1329 685.5256 563.303 688.5435 558.2733 691.3377 552.5729 688.3199 550.6728 683.9608 550.2257 682.7314 548.7727 686.308 543.1842 684.0726 540.9487 681.6136 538.8251 678.2605 538.1545 670.8836 540.1663 667.0834 534.2425 665.8539 528.9892 666.5245 521.277 663.5067 512.2235 657.024 510.4352 652.6649 513.6766 652.3296 518.371 655.3474 524.2948 657.6946 531.8953 659.7065 542.7371 659.7065 554.473 659.4829 557.2673 657.8064 558.2733 647.0763 552.4612 642.7173 552.2376 638.5817 553.4671 637.6876 557.3791 640.0348 561.8499 640.2583 565.9855 632.3226 566.8796 608.4035 561.7382 598.3441 553.6906 592.532 554.3613 582.9197 548.7727 576.7723 535.919 569.0601 531.3364 561.3479 531.0011 555.9828 531.8953 549.1648 535.8073 537.4288 547.655 528.04 550.2257 520.6631 550.8964 506.9153 548.7727 505.0152 547.2079 505.7976 544.1901 512.9509 537.8191 518.6513 531.56 523.9045 529.8834 539.1054 529.101 541.8997 525.9714 544.9175 489.7575 538.9936 477.6862 530.2755 476.0097 523.1221 470.5329 522.1162 466.3974 524.6869 462.0383 520.4396 458.4616 511.0508 444.9373 518.2042 436.1074 518.8748 424.5949 517.5336 411.4059 524.3516 404.029 509.3743 351.3848 511.1626 325.1186 504.7916 305.2233 495.4029 287.2282 492.4968 277.2805 494.6205 265.6563 519.769 242.4079 524.5751 232.9074 526.8106 223.1833 525.6928 215.024 521.222 209.3237 513.0627 206.7529 515.0746 196.6935 517.4218 172.5509 520.1043 162.8268 522.5633 161.0385 531.1696 157.9089 533.6286 156.0088 538.323 140.2491 540.8937 127.1718 548.6059 87.3813 561.3479 65.0271 578.4488 52.7322 597.897 43.3435 617.9041 30.6015 634.2227 11.6004 643.2761 4.6706 654.9003 4 656.018 4.5589 664.6244 9.1415 683.1784 24.4541 694.9144 28.7014 735.7109 26.6895 755.0473 28.925 774.2719 40.9963 780.084 58.9914 779.7487 82.7987 783.3254 102.1351 800.2029 107.1648 815.6273 107.7237 830.8282 111.6356 883.2488 125.2717 885.149 131.1956 886.2667 138.1254 882.2429 138.1254 882.2429 132.8722 877.4367 132.8722 877.4367 138.1254 880.9017 145.6141 880.3428 168.6389 886.2667 180.0396 883.3606 188.9813 883.1371 203.6233 885.596 218.1536 890.7375 227.0953 887.4961 228.9954 885.0372 231.0073 883.2488 233.8015 882.2429 238.0488 890.7375 238.0488 882.3547 274.2627 879.4486 286.5575 882.2429 295.611 882.2429 301.3113 876.8779 303.9938 873.9718 307.4587 873.9718 311.5943 877.4367 316.5122 866.5949 335.178 866.1479 344.0079 872.9659 353.5085 862.0123 362.4502 858.5474 375.7509 859.6651 410.9589 866.7067 428.954 868.1597 437.0015 868.495 447.508 869.6128 453.879 873.413 462.2618 872.9659 468.4092 870.0598 471.8741 865.589 473.2154 861.5652 475.4508 859.6651 481.5982 875.5366 542.7371 868.495 552.2376 868.495 557.938 882.2429 599.0697 861.5652 622.0946 845.3584 659.985 830.8282 693.6282 820.5452 748.8431 816.9685 805.2876 817.1921 806.5171 817.1921 807.1877 816.9685 807.4112 816.5215 807.1877Z" />
</svg>