<?xml version="1.0" encoding="utf-8"?>
<svg xmlns="http://www.w3.org/2000/svg" viewBox="0 0 1021 619" style="stroke-width:0.25px;stroke-linejoin:round;stroke:#444;fill:#ddd" fill-rule="evenodd">
  <path class="PT" d="M913.947 14.4241L914.3941 14.0888 915.2882 13.6417 916.4059 13.3064 917.1883 12.7475 917.5237 12.1887 917.9707 11.071 918.3061 10.5121 918.9767 9.9532 919.6473 9.8415 921.1003 9.7297 921.8827 9.5062 923.3358 8.5002 924.0064 8.1649 930.2656 7.159 931.048 6.8237 932.0539 5.9295 932.3892 5.7059 932.7245 5.5942 933.3952 5.5942 934.1776 5.2589 935.407 4.3647 935.7424 4.9235 936.0777 5.7059 935.9659 8.0531 936.0777 8.9473 936.6365 9.3944 937.1954 9.1708 937.9778 8.8355 938.7602 8.7238 939.5426 9.0591 940.2132 9.7297 940.5485 10.5121 940.4367 11.518 939.9897 12.1887 939.319 12.7475 938.2013 13.4182 936.9718 14.6476 935.407 16.9948 935.0717 17.889 934.96 19.0067 935.407 19.9009 936.8601 20.4597 937.1954 20.9068 937.3072 21.6892 937.0836 22.9187 937.0836 23.0305 940.5485 23.254 942.3369 22.8069 942.4486 22.6952 943.6781 21.3539 944.1252 20.6833 944.5723 20.1244 945.2429 19.9009 945.8018 20.0127 946.5842 20.0127 947.0312 19.342 947.143 18.3361 947.3666 17.7772 948.149 17.4419 948.2607 18.8949 948.596 20.4597 949.8255 20.4597 950.1608 20.1244 950.2726 19.7891 950.4961 19.5656 950.8315 19.342 951.9492 19.4538 954.5199 18.7832 955.6376 18.2243 956.3083 18.4479 957.426 19.2303 958.0966 19.5656 960.2202 19.6773 959.6614 21.3539 959.6614 21.9128 960.332 22.2481 961.0026 22.3598 961.8968 22.1363 962.6792 21.9128 963.3498 21.4657 963.5734 21.0186 963.5734 20.6833 963.6851 20.348 964.0205 20.1244 964.244 20.1244 964.9146 20.5715 965.2499 20.5715 965.8088 20.795 966.3677 21.4657 966.8147 22.4716 966.9265 23.3658 967.4854 22.8069 968.4913 21.6892 969.0502 21.3539 969.609 21.2421 971.062 21.2421 971.8444 21.1304 974.6387 20.1244 975.98 19.342 976.4271 18.7832 976.8741 18.1125 976.9859 17.2184 976.6506 15.5418 976.7624 14.7594 977.0977 14.4241 977.6565 13.977 978.4389 13.5299 978.9978 13.4182 980.3391 14.2006 981.5685 15.3183 982.798 15.8771 984.251 15.3183 985.1452 14.5359 985.5923 14.7594 986.1512 15.0947 987.1571 15.8771 988.2748 16.1007 990.7338 15.8771 991.7397 15.2065 991.9633 13.6417 993.1927 13.8652 994.6458 16.1007 995.8752 16.5477 998.7813 16.436 1000.1226 15.9889 1000.6814 14.7594 1001.6873 15.2065 1002.2462 15.8771 1002.358 16.7713 1002.0227 19.1185 1002.358 19.5656 1003.1404 19.5656 1004.1463 20.0127 1003.6992 21.0186 1002.6933 25.4894 1002.5815 25.9365 1002.2462 26.3836 1002.0227 26.9425 1002.1344 27.3895 1002.358 27.8366 1002.5815 28.3955 1002.6933 29.4014 1002.9168 30.4074 1003.4757 31.3015 1004.5934 31.7486 1005.0405 31.6369 1005.5993 31.3015 1006.1582 30.9662 1006.4935 30.6309 1006.7171 30.2956 1007.2759 30.4074 1010.5173 31.078 1012.5292 31.7486 1014.3175 32.9781 1016.1058 34.7664 1016.6647 35.5488 1017 36.1077 1015.0999 38.902 1014.0939 40.0197 1013.7586 40.5785 1013.8704 41.0256 1013.9822 41.3609 1013.9822 41.808 1012.4174 44.267 1012.4174 44.7141 1011.0761 44.8259 1010.5173 45.0494 1010.0702 45.4965 1010.182 45.4965 1010.182 45.8318 1010.182 46.2789 1010.0702 46.5024 1009.8466 46.6142 1009.3996 46.5024 1009.176 46.5024 1007.9465 48.6261 1006.6053 49.9673 1005.264 50.9733 1002.9168 51.9792 1002.5815 52.3145 999.899 52.3145 999.2284 52.4263 998.7813 52.9851 997.3283 55.1088 996.993 56.003 996.7694 56.4501 995.3164 57.6795 994.7575 58.3502 994.6458 58.6855 994.7575 60.0267 994.4222 61.0327 992.8574 63.3799 992.2986 63.9387 991.1809 64.0505 988.6101 63.827 987.8277 64.274 987.6042 65.28 987.1571 65.9506 987.2689 66.6212 987.716 67.2919 988.9454 68.6331 989.5043 69.6391 990.3985 71.7627 990.7338 72.8804 991.0691 73.3275 991.6279 73.551 992.075 73.7746 992.2986 74.557 992.1868 75.2276 991.5162 75.4512 991.4044 76.7924 991.5162 77.1277 991.6279 77.6866 991.6279 78.0219 991.5162 78.2454 991.4044 78.8043 991.4044 79.8102 991.5162 80.5926 991.9633 82.381 992.2986 84.1693 992.4103 85.0635 992.4103 85.7341 992.075 86.6283 991.1809 88.4166 990.9573 89.199 991.0691 90.0932 991.4044 90.652 991.8515 91.2109 992.2986 91.8815 992.5221 92.7757 992.4103 93.4463 991.4044 94.7876 990.622 96.6877 990.9573 98.3642 991.8515 99.929 993.1927 101.2703 992.5221 102.4998 992.1868 102.8351 990.3985 104.1763 990.1749 104.5117 989.9514 104.847 989.9514 105.2941 989.9514 105.7411 989.8396 106.0765 989.0572 106.6353 988.2748 106.6353 987.4924 106.5235 987.2689 106.6353 986.71 106.7471 984.9217 107.8648 984.251 108.2001 983.9157 108.6472 983.4686 109.8767 983.1333 110.5473 983.4686 111.3297 983.804 113.118 984.251 113.7887 984.6981 114.0122 985.8158 114.124 986.2629 114.3475 986.71 114.6828 987.2689 115.577 988.163 116.6947 989.7278 119.6008 989.0572 120.8303 988.8337 121.3891 988.9454 121.948 988.8337 122.395 988.4983 123.7363 988.3866 123.9598 988.0513 124.1834 987.9395 124.5187 987.9395 124.7422 988.0513 125.3011 988.0513 125.5246 987.9395 126.0835 987.9395 126.8659 987.8277 127.4248 986.8218 128.9895 986.3747 129.2131 985.4805 129.5484 985.1452 129.8837 984.9217 130.5543 984.9217 131.1132 985.1452 131.5603 985.1452 132.0074 985.0334 132.5662 984.4746 133.4604 984.3628 133.9075 984.3628 134.3546 984.4746 134.8017 984.4746 135.137 984.0275 136.2547 983.4686 136.4782 977.433 137.2606 976.2035 137.2606 975.3094 136.7018 974.6387 136.9253 972.9622 136.8135 972.2915 137.0371 971.6209 137.2606 971.062 137.4842 962.3439 137.0371 962.3439 137.1488 962.6792 137.9312 964.0205 141.5079 964.6911 142.1785 965.9206 143.8551 966.5912 144.5257 967.9325 145.1964 968.2678 145.6435 968.7149 146.7612 969.2737 147.32 970.1679 147.7671 971.8444 148.2142 972.1798 148.6613 972.1798 149.8908 971.9562 151.0085 971.6209 151.7909 971.3974 152.5733 971.3974 153.691 971.6209 154.8087 971.9562 155.3675 972.7386 156.0382 974.7505 158.4971 974.1916 159.5031 974.0799 160.509 974.4152 161.6267 974.974 162.4091 975.98 162.968 977.0977 163.3033 978.1036 163.7504 978.5507 164.7563 978.4389 165.3152 977.9919 166.3211 978.1036 166.7682 978.5507 167.1035 979.1096 167.4388 979.6684 167.5506 980.2273 167.3271 981.2332 166.7682 982.2392 166.6564 983.3569 166.9917 984.251 167.5506 984.9217 168.2212 985.4805 169.1154 985.7041 170.2331 985.4805 171.1273 985.9276 171.4626 985.9276 171.9097 985.7041 172.4685 985.3688 172.9156 984.0275 175.5981 983.0216 176.8276 982.2392 177.61 982.798 178.616 982.5745 179.3983 982.5745 180.1807 982.2392 180.4043 981.7921 180.8514 981.2332 181.2985 980.6744 181.6338 978.7743 182.0809 978.3272 182.4162 978.1036 182.8633 977.5448 183.5339 976.8741 184.0927 976.3153 184.3163 975.7564 184.7634 973.9681 186.3282 973.8563 186.5517 973.521 187.2223 973.4092 187.5576 973.0739 189.346 972.9622 190.4637 973.0739 191.0226 973.0739 191.4696 973.2975 191.805 973.521 191.9167 973.7446 192.1403 973.9681 192.4756 973.7446 193.258 971.9562 195.7169 971.2856 198.2877 970.8385 198.9583 971.3974 199.6289 971.2856 200.1878 970.9503 200.7466 970.2796 201.4173 970.8385 201.6408 972.068 202.535 976.3153 208.0118 976.5388 208.3471 976.7624 209.0177 976.8741 209.353 977.2095 209.6883 977.8801 210.1354 978.1036 210.359 979.7802 214.6063 980.1155 214.9416 980.6744 215.5004 981.345 215.5004 982.3509 215.2769 983.3569 214.8298 983.804 214.1592 984.0275 214.1592 984.1393 214.271 985.1452 213.9356 986.3747 213.8239 986.9336 214.1592 987.0453 214.271 986.5982 215.724 986.2629 216.5064 985.7041 218.2947 984.9217 219.7477 984.5864 221.3125 984.251 221.9832 983.9157 223.2127 982.9098 223.3244 980.5626 222.4303 979.892 222.3185 979.5567 222.7656 979.1096 223.7715 978.6625 224.3304 978.4389 224.5539 977.8801 224.7774 977.3212 225.001 976.8741 224.8892 976.3153 224.7774 975.8682 224.7774 975.4211 225.001 974.0799 225.3363 973.8563 225.5598 973.8563 226.0069 973.9681 226.454 973.9681 227.0129 973.7446 227.907 972.8504 230.366 972.4033 232.0426 971.2856 234.0545 967.5971 237.184 966.9265 238.3018 966.3677 239.7548 966.0323 242.2138 965.8088 242.9961 965.4735 243.4432 964.4675 244.5609 964.0205 244.8963 964.1322 245.1198 964.1322 245.4551 964.0205 245.6787 964.0205 245.9022 963.5734 246.3493 963.4616 246.5728 963.4616 247.1317 963.4616 247.2435 963.6851 247.2435 963.9087 247.9141 963.9087 248.2494 964.0205 248.5847 964.3558 249.1436 964.6911 249.4789 965.3617 250.0377 965.5853 250.373 965.9206 251.2672 966.1441 252.4967 966.2559 253.6144 966.1441 254.1733 966.8147 255.8498 967.1501 259.8736 967.5971 261.5502 967.2618 262.3326 967.4854 263.4503 968.0442 265.6857 968.156 265.9092 968.2678 266.1328 968.3795 266.3563 968.7149 266.4681 968.7149 266.6916 968.3795 267.1387 967.7089 266.5799 966.8147 266.3563 965.9206 266.3563 965.0264 266.4681 964.1322 266.8034 962.4557 267.9211 961.785 268.1447 959.4378 269.7095 959.1025 270.1565 952.9551 274.2921 951.7256 275.5216 951.055 275.5216 950.4961 275.298 949.602 275.0745 947.143 275.0745 946.3606 274.7392 946.0253 275.298 945.5782 275.298 945.1311 274.9627 944.684 274.7392 945.1311 275.4098 945.2429 275.7451 945.3547 276.1922 944.3487 274.8509 942.8957 273.6215 939.9897 271.9449 938.4249 271.6096 937.0836 271.0507 935.7424 271.0507 932.501 271.4978 931.048 271.0507 929.5949 270.4919 928.3655 271.0507 926.5771 271.2743 924.7888 270.6036 924.7888 270.7154 922.5534 269.4859 920.8768 269.1506 918.9767 269.3741 918.4178 269.4859 917.859 269.933 916.5177 271.2743 914.0587 271.2743 913.6117 271.386 912.4939 272.0567 912.0469 272.2802 911.3762 272.392 910.4821 272.6155 909.5879 273.3979 908.8055 273.0626 908.0231 273.845 907.6878 274.0685 907.2407 274.2921 906.4583 274.9627 906.0112 275.0745 905.4524 274.8509 905.0053 274.4039 904.5582 274.1803 903.8876 274.4039 904.2229 272.9508 904.4464 272.2802 904.67 271.9449 906.2348 269.4859 906.7936 268.0329 907.3525 266.8034 907.0172 265.3504 907.6878 264.6798 908.6937 263.6738 909.2526 261.4384 908.9173 260.5442 908.582 259.7618 909.2526 258.4206 910.3703 257.1911 910.5938 255.9616 911.2645 254.1733 911.8233 251.9378 912.0469 250.5966 912.1586 248.2494 911.9351 247.0199 911.488 246.2375 910.9292 245.5669 910.9292 244.8963 911.3762 242.6608 911.5998 241.2078 911.9351 239.9783 912.4939 239.643 913.6117 239.4195 913.8352 238.19 913.8352 238.0782 913.4999 238.4135 912.6057 238.6371 911.5998 238.6371 911.2645 237.7429 911.5998 235.1722 912.0469 232.3779 912.0469 230.7013 911.7116 229.4718 911.1527 228.1306 909.8114 227.907 908.1349 226.9011 908.2466 226.454 908.582 226.2305 908.9173 226.1187 909.2526 225.7834 911.2645 221.2008 912.0469 217.5123 912.941 214.8298 912.8293 212.0355 912.4939 208.7942 912.1586 205.8881 911.1527 203.8762 910.035 202.7585 908.8055 201.1937 907.3525 200.076 906.123 199.6289 906.7936 198.9583 907.6878 199.2936 909.2526 200.6349 911.0409 201.3055 911.9351 201.7526 912.0469 202.4232 913.7234 202.4232 917.7472 203.4292 919.7591 202.8703 918.5296 202.7585 917.5237 202.535 914.5058 201.082 914.1705 200.6349 913.947 199.9642 913.8352 199.2936 913.947 198.623 914.1705 198.0641 914.5058 197.8406 914.5058 197.5053 913.947 197.2817 913.4999 196.6111 913.3881 195.9405 913.6117 195.3816 913.0528 195.2699 912.2704 196.8347 911.3762 197.17 911.3762 197.5053 912.3822 197.6171 912.7175 198.2877 912.7175 199.1818 912.3822 199.6289 911.488 199.5172 910.5938 199.2936 909.2526 198.5112 907.6878 197.9524 905.6759 198.3994 903.8876 200.5231 904.2229 200.7466 901.8757 201.6408 897.9637 202.1997 897.0695 202.535 896.5107 202.9821 895.7283 203.0938 894.7223 202.8703 894.4988 202.8703 894.387 202.535 894.387 202.1997 894.4988 201.8644 894.6106 201.7526 894.9459 201.3055 896.1754 200.076 896.3989 198.3994 896.3989 195.9405 895.393 193.5933 894.1635 191.5814 893.6046 190.0166 894.387 189.6813 896.2871 189.346 897.9637 189.2342 898.8579 189.7931 899.1932 190.3519 899.5285 190.3519 899.1932 189.346 899.8638 189.0107 901.0933 188.6754 901.7639 188.5636 901.7639 188.2283 902.3228 187.5576 902.9934 186.887 904.1111 185.9928 905.5641 184.7634 905.7877 184.6516 906.0112 184.4281 906.123 184.3163 906.123 183.981 905.7877 183.3103 905.3406 182.3044 905.0053 181.1867 905.3406 180.4043 904.4464 180.5161 903.9993 179.6219 903.7758 178.3924 903.3287 177.1629 905.1171 173.4745 906.123 171.7979 907.576 170.792 908.3584 170.5684 910.1468 170.4567 910.9292 170.1213 912.3822 169.0036 912.941 168.333 913.3881 167.5506 912.2704 168.333 910.4821 169.6743 907.0172 170.1213 906.4583 170.5684 905.6759 172.0215 903.664 174.8157 901.4286 179.2866 900.1991 180.7396 899.752 181.522 899.5285 182.3044 899.6403 183.3103 899.752 185.0987 899.8638 186.3282 899.305 187.5576 897.1813 188.1165 894.9459 188.5636 892.2634 188.34 891.5927 188.8989 890.8103 189.7931 889.2455 188.7871 887.4572 188.0047 886.4513 187.893 884.7747 188.1165 883.8805 187.893 883.9923 186.7752 884.2158 185.8811 883.657 183.6457 883.657 182.5279 883.8805 182.0809 884.4394 181.4102 885.4453 180.4043 886.6748 176.2688 886.563 173.0274 886.116 171.1273 886.563 169.8978 886.6748 168.5565 888.3514 165.6505 888.7985 164.1975 889.5809 162.2974 889.8044 160.3972 890.0279 158.7207 889.4691 156.1499 889.022 155.0322 887.569 153.5792 887.2337 153.0204 887.6807 152.9086 889.5809 153.3557 892.4869 151.4556 893.2693 150.7849 894.1635 150.6732 894.6106 151.232 895.0576 151.4556 895.5047 150.8967 895.1694 150.2261 894.4988 149.5554 895.1694 148.5495 896.0636 147.4318 896.3989 146.8729 897.1813 146.4259 898.299 145.6435 898.9696 144.6375 899.305 143.8551 900.1991 142.2903 900.3109 141.3961 900.1991 140.3902 900.6462 138.9372 900.9815 137.0371 904.1111 128.4307 909.1408 113.5651 909.8114 112.7827 910.2585 113.4534 910.9292 113.7887 912.6057 113.9004 912.6057 113.4534 911.9351 112.7827 911.2645 112.3356 910.5938 112.1121 908.6937 111.8886 908.0231 111.4415 907.576 110.6591 907.576 109.5414 908.0231 107.9766 909.2526 105.5176 912.0469 94.8993 912.6057 91.658 913.3881 89.199 913.8352 86.0694 913.947 85.9576 914.1705 85.7341 914.1705 86.8518 914.1705 87.1871 914.9529 85.8459 915.6235 85.3988 916.1824 85.7341 916.4059 85.7341 916.4059 85.3988 916.2942 85.287 916.1824 84.9517 916.0706 84.6164 916.1824 84.2811 916.5177 84.0575 916.7413 84.2811 916.9648 84.5046 917.1883 84.7282 917.5237 84.5046 917.859 84.1693 918.4178 83.2751 917.7472 82.8281 917.4119 82.1574 917.5237 81.5986 918.1943 81.375 919.2002 81.2633 919.8708 81.0397 920.5415 80.5926 921.2121 79.922 920.4297 80.0338 919.4238 80.4809 918.6414 80.7044 918.4178 80.8162 918.1943 80.8162 917.3001 80.3691 916.9648 79.922 916.6295 78.469 918.1943 76.3453 917.859 75.1158 917.7472 76.01 917.5237 76.7924 917.1883 77.016 916.9648 76.2336 916.4059 77.3513 915.9589 78.6925 915.7353 80.2573 915.6235 81.5986 915.4 82.381 914.9529 83.7222 914.3941 84.8399 913.947 85.3988 917.859 67.1801 917.859 65.1682 917.3001 61.5915 917.4119 59.6914 918.0825 59.0208 918.0825 58.6855 916.6295 58.2384 915.8471 56.7854 915.2882 54.8853 914.5058 53.4322 914.7294 52.6498 914.6176 52.091 914.3941 51.5321 914.1705 50.8615 914.1705 49.1849 914.0587 48.6261 913.7234 48.5143 913.6117 47.9554 913.3881 47.3966 912.8293 46.3906 912.6057 45.6083 912.6057 44.9376 912.4939 43.3728 912.941 41.5845 912.4939 40.355 912.3822 39.2373 912.2704 38.4549 912.1586 37.5607 911.5998 35.9959 911.3762 34.7664 911.1527 33.8723 911.1527 32.8663 910.8174 31.8604 910.7056 30.6309 910.8174 29.9603 911.7116 29.625 914.2823 29.1779 914.9529 28.9543 915.6235 28.3955 916.1824 27.8366 911.7116 29.1779 910.7056 29.4014 910.2585 29.2897 909.4761 28.8426 908.6937 27.0542 908.6937 25.4894 909.029 23.0305 908.8055 21.4657 908.9173 20.9068 909.2526 20.4597 912.0469 18.0008 913.4999 16.436 913.947 14.4241ZM600.5406 497.9462L599.0876 495.599 598.7523 495.1519 598.5287 494.7048 598.3052 494.2578 598.3052 493.5871 598.9758 494.2578 599.7582 495.3755 600.3171 496.7167 600.5406 497.9462ZM588.2458 488.5574L587.5751 490.0105 585.8986 490.5693 583.8867 490.6811 580.6453 490.4575 573.9391 487.6633 572.3743 486.6573 571.033 485.4278 569.9153 484.0866 569.58 483.1924 569.4682 482.41 569.6917 481.6276 570.3624 481.4041 570.5859 481.1805 571.5919 479.7275 571.9272 479.504 572.2625 479.504 572.486 479.504 572.9331 479.7275 573.3802 480.0628 574.3861 481.1805 574.8332 481.4041 575.0568 481.4041 575.9509 481.7394 576.9569 482.41 578.0746 482.5218 579.1923 482.1865 579.9747 481.7394 580.5336 481.4041 581.4277 481.2923 582.9925 481.0688 583.6631 481.2923 584.8926 482.1865 585.3397 482.41 587.4634 483.9748 587.9105 484.3101 588.3575 484.4219 589.9223 484.4219 590.7047 484.6454 591.3754 485.0925 591.7107 484.7572 592.1578 484.6454 592.6048 484.7572 592.9402 485.0925 592.2695 485.2043 590.8165 485.8749 590.3694 485.9867 589.8106 486.4338 588.5811 488.1103 588.2458 488.5574ZM606.4645 470.674L605.9056 471.3447 605.4585 471.7917 604.8997 471.9035 604.1173 471.4564 604.1173 471.1211 604.5644 471.1211 604.7879 470.8976 605.1232 470.5623 605.5703 468.9975 606.3527 468.3268 607.3586 468.1033 608.2528 468.5504 608.4763 468.1033 608.4763 469.5563 608.6999 470.1152 609.0352 470.4505 607.6939 470.227 607.0233 470.227 606.4645 470.674ZM946.1371 276.5275L948.2607 276.751 949.0431 276.4157 950.0491 275.4098 950.1608 275.6333 950.1608 275.7451 950.2726 276.1922 950.0491 276.304 950.0491 276.5275 949.2667 276.9746 948.2607 277.1981 947.143 277.1981 946.1371 276.8628 946.1371 276.5275ZM252.9322 274.4039L253.7146 274.9627 254.3853 275.8569 254.9441 276.9746 255.0559 278.0923 254.497 278.7629 253.1558 278.6512 250.8086 277.8688 249.4673 278.2041 248.6849 278.2041 248.4614 277.757 248.1261 277.0864 247.679 276.5275 247.4554 275.9686 247.9025 275.4098 248.6849 274.7392 250.138 274.2921 251.8145 274.2921 252.9322 274.4039ZM247.5672 231.3719L249.132 232.0426 250.138 233.4956 250.2497 235.3957 249.2438 236.9605 247.679 237.7429 242.314 238.4135 240.5256 238.8606 238.5138 239.0842 236.7254 238.9724 235.8312 239.0842 235.0488 239.4195 234.0429 238.7488 232.9252 238.3018 230.6898 237.7429 227.0013 237.5194 222.1952 233.9427 220.7421 231.9308 221.5245 229.2483 224.6541 228.913 225.6601 229.2483 227.0013 230.4778 227.3366 230.9249 227.3366 231.4837 227.4484 231.9308 227.6719 232.3779 228.0073 232.4897 233.1487 233.1603 233.7076 233.0485 234.8253 232.2661 235.3842 232.0426 235.7195 232.2661 236.6136 232.9367 237.0607 233.1603 237.7314 232.825 241.8669 231.4837 247.5672 231.3719ZM129.6486 201.4173L131.437 201.529 132.1076 202.0879 132.4429 203.3174 131.884 203.8762 130.6546 203.8762 127.4132 203.4292 126.519 203.4292 125.7366 203.7645 124.2836 204.9939 123.7248 204.6586 123.3894 204.0998 122.9424 203.5409 122.0482 203.2056 116.2361 203.0938 115.4537 203.5409 112.7712 200.9702 111.7652 199.4054 111.7652 197.17 112.9947 196.0523 114.336 195.6052 117.242 195.7169 118.9186 196.0523 122.9424 198.5112 124.3954 199.1818 124.3954 199.2936 124.8425 199.4054 125.7366 200.076 126.0719 200.2996 126.9661 200.4113 129.6486 201.4173ZM109.3063 193.5933L109.8651 195.9405 109.6416 195.9405 108.3003 196.4993 107.965 196.8347 108.1886 197.0582 108.3003 197.2817 108.4121 197.3935 108.7474 197.5053 108.3003 197.8406 107.7415 197.8406 106.8473 197.5053 106.2884 197.5053 105.059 197.8406 104.6119 197.8406 103.7177 197.3935 102.6 195.8287 101.8176 195.0463 99.9175 193.9286 99.9175 193.4815 101.2587 193.258 102.4882 193.1462 103.0471 193.0344 103.4942 192.8109 103.8295 192.4756 104.5001 191.4696 104.8354 191.1343 108.4121 192.6991 109.3063 193.5933ZM138.4785 193.258L141.4964 194.3757 142.9494 195.1581 143.7318 196.0523 143.0612 196.3876 142.2788 196.4993 140.714 196.3876 140.0433 196.164 138.7021 195.4934 137.4726 195.2699 136.802 194.9345 136.1314 194.5992 135.5725 194.1521 135.0136 193.8168 133.8959 194.0404 133.2253 193.5933 132.6664 193.9286 132.2194 193.7051 131.5487 192.8109 130.9899 192.4756 126.8543 191.1343 126.0719 190.5755 125.2895 189.1224 124.9542 189.0107 124.7307 189.0107 124.5072 189.1224 124.3954 189.1224 124.0601 189.0107 123.9483 188.7871 123.9483 188.5636 123.9483 188.34 123.613 188.2283 123.2777 188.1165 121.3776 186.4399 121.2658 186.1046 121.2658 185.434 121.9364 185.6575 123.2777 186.6635 123.9483 186.7752 124.6189 186.887 132.6664 190.0166 138.4785 193.258ZM173.6865 188.5636L173.4629 188.7871 172.5688 189.1224 172.3452 189.346 172.2334 189.6813 172.457 190.5755 172.3452 191.1343 172.1217 191.2461 170.8922 191.805 169.8862 191.4696 167.2037 191.3579 166.3096 190.6872 165.7507 191.2461 165.3036 191.3579 164.2977 190.6872 163.2917 190.4637 162.174 190.3519 161.2799 190.0166 160.2739 189.0107 159.3798 187.893 159.0444 186.7752 158.7091 185.2105 159.6033 183.981 161.1681 183.1986 162.5094 182.8633 168.6568 183.3103 169.8862 183.7574 171.5628 184.7634 172.7923 185.9928 173.0158 186.9988 172.9041 187.4459 173.2394 187.7812 173.6865 188.1165 173.6865 188.5636ZM134.6783 171.7979L133.8959 171.7979 133.0018 171.6861 132.2194 171.3508 131.5487 170.792 131.1017 169.8978 131.1017 169.1154 131.7723 167.5506 132.2194 167.2153 132.6664 167.2153 133.1135 167.2153 133.4488 167.5506 133.7842 167.2153 134.343 168.1095 135.6843 169.2272 136.3549 169.8978 136.6902 170.792 136.1314 171.3508 135.4607 171.6861 134.6783 171.7979ZM4.0178 145.9788L4.4649 146.3141 4.912 146.6494 5.4708 146.7612 6.0297 146.4259 6.8121 147.4318 7.1474 148.326 7.1474 150.5614 6.8121 151.6791 6.1415 153.1321 5.3591 154.0263 4.6884 153.5792 3.9061 153.9145 3.0119 154.0263 2.1177 153.9145 1.5589 153.5792 1.2235 152.9086 1 151.7909 1 150.8967 1.3353 150.3378 1.1118 149.4437 1.3353 148.773 1.6706 147.9906 1.8942 146.8729 2.1177 146.0905 2.7883 145.5317 3.5707 145.3081 4.3531 145.3081 4.0178 145.9788ZM7.7063 134.4663L9.1593 134.8017 9.2711 136.3664 8.4887 137.8195 7.1474 138.1548 7.1474 137.8195 6.4768 136.1429 6.2532 135.9194 6.4768 135.3605 6.8121 134.9134 7.2592 134.5781 7.7063 134.4663ZM619.0946 614.4118L619.3182 614.5235 619.3182 614.6353 619.0946 614.6353 619.0946 614.4118ZM625.6891 608.8232L626.1362 609.1585 626.1362 609.4938 625.9127 609.7174 625.8009 609.7174 625.4656 609.6056 625.3538 609.4938 625.3538 609.3821 625.3538 609.2703 625.6891 608.8232ZM902.211 179.5101L902.4345 179.3983 902.4345 179.7337 902.211 180.5161 901.6521 181.2985 900.8697 182.0809 900.6462 181.9691 900.9815 181.0749 901.3168 180.2925 901.7639 179.8454 902.0992 179.6219 902.211 179.5101Z" />
</svg>