<?xml version="1.0" encoding="utf-8"?>
<svg xmlns="http://www.w3.org/2000/svg" viewBox="0 0 948 1024" style="stroke-width:0.25px;stroke-linejoin:round;stroke:#444;fill:#ddd" fill-rule="evenodd">
  <path class="PY" d="M1.0492 357.644L3.6199 351.6084 6.7495 340.0959 9.7673 329.3659 14.5735 312.9355 18.709 299.2994 23.9623 281.7514 27.7625 269.0095 31.898 254.9263 35.81 241.5138 39.4985 228.9954 43.0751 216.7006 43.5222 208.7648 43.2987 191.2167 43.1869 179.7043 42.9634 169.1978 42.8516 158.2442 43.8575 155.1146 47.8813 148.8554 50.3403 145.2788 52.6875 141.8139 57.7172 134.5487 62.7469 127.2836 67.7766 120.0185 72.8063 112.7534 74.7064 109.8473 76.4947 107.053 78.3948 104.2587 80.2949 101.3527 81.748 98.2231 82.4186 96.6583 83.201 95.2053 84.5422 92.0757 85.9953 89.0579 89.2366 80.2279 92.3662 71.5098 95.4958 62.6799 98.6254 53.9617 100.7491 48.1496 101.6432 46.6966 103.4316 45.9142 113.491 44.4612 115.8382 44.0141 121.2032 43.2317 126.4564 42.4493 128.9154 42.0022 166.8058 33.7311 204.808 25.4601 242.8102 17.189 280.7007 9.0297 297.6899 5.3413 306.8551 5.2295 327.9799 4.8942 349.1046 4.6706 370.2294 4.3353 391.3541 4.1118 400.5194 4 402.7548 4.5589 406.1079 6.9061 409.3493 9.2532 414.9378 12.7182 425.4443 19.2009 435.9508 25.7954 446.3455 32.2781 456.852 38.7608 467.2468 45.2436 477.7532 51.8381 488.2597 58.3208 498.6545 64.8035 503.1253 67.5978 504.243 68.9391 504.6901 70.7274 504.3548 74.6394 504.5783 78.4396 506.4784 85.2576 506.8138 89.0579 506.4784 91.6286 506.702 96.6583 506.4784 99.229 504.8019 105.4882 504.9136 108.6178 505.0254 110.5179 505.696 110.965 506.5902 110.8532 507.3726 111.0768 508.155 111.8592 509.2727 113.3122 509.4963 114.5417 505.3607 115.9947 504.4666 118.0066 505.249 120.1303 507.3726 121.695 508.0432 121.4715 508.6021 120.8009 509.2727 120.1303 510.3904 120.0185 511.1728 120.4656 512.067 121.4715 512.6259 122.5892 511.5081 125.8306 511.7317 128.9602 512.5141 131.8662 513.4083 133.8781 515.1966 136.0018 517.6556 137.9019 520.1145 139.2431 522.2382 139.6902 523.9147 140.6961 523.5794 142.8198 521.9029 146.2847 521.5675 148.7437 521.7911 151.7615 522.2382 154.6675 523.4677 157.5736 523.5794 158.9149 523.4677 161.4856 523.803 163.1622 525.256 165.5094 525.7031 166.8506 525.7031 168.0801 524.8089 170.4273 524.9207 171.7685 525.5913 173.1098 526.709 174.004 527.6032 173.8922 528.6091 169.6449 530.1739 168.7507 531.9623 169.086 533.5271 170.2037 533.9741 170.8744 534.533 172.6627 534.9801 173.4451 535.7625 174.1157 537.4391 175.3452 538.445 176.3512 538.6685 177.4689 537.8861 178.363 536.5449 178.9219 534.0859 179.4807 533.1917 180.1514 531.9623 181.6044 530.2857 182.8339 529.3915 183.9516 530.1739 184.6222 533.08 184.9575 535.3154 185.4046 537.2155 186.6341 538.445 188.4224 538.7803 190.6579 537.6626 191.8873 532.9682 194.4581 531.9623 196.0229 532.2976 197.3641 533.08 197.923 533.8624 198.1465 534.1977 198.4818 534.7565 198.4818 537.3273 200.6055 539.898 203.3998 540.6804 203.3998 541.1275 201.2761 543.2512 203.0645 543.3629 205.747 542.357 208.5413 539.3392 213.2356 539.3392 214.9122 541.1275 218.6007 541.7981 223.9657 541.351 229.5542 539.7862 234.6957 537.2155 238.4959 534.0859 240.8431 533.5271 241.7373 533.4153 243.3021 533.9741 244.1963 534.6448 244.8669 534.9801 245.5375 535.986 246.767 537.7744 247.3259 538.8921 248.4436 538.1097 251.5732 530.621 263.1974 528.8327 267.3329 528.4974 269.9036 528.6091 272.5861 529.5033 274.7098 531.5152 275.604 532.6329 276.6099 531.7387 278.9571 530.3975 281.7514 529.6151 283.7633 530.0622 285.8869 531.1799 288.0106 532.6329 289.7989 533.8624 290.4695 534.4212 291.5872 529.6151 299.6348 529.6151 301.982 530.0622 304.2174 529.9504 306.5646 528.4974 309.1353 527.715 311.259 528.7209 313.0473 530.2857 314.9474 531.0681 317.7417 530.621 319.3065 527.9385 324.2244 526.9326 325.2304 526.709 326.4598 524.2501 333.5014 524.0265 335.178 524.1383 337.0781 524.2501 338.3076 525.7031 339.09 525.8149 339.09 527.0443 340.2077 528.0503 342.1078 529.5033 343.5608 533.3035 344.9021 534.4212 344.9021 536.4331 344.0079 537.2155 343.8961 538.1097 344.455 539.6745 346.2433 540.2333 346.6904 541.5746 346.3551 543.3629 344.7903 544.5924 344.7903 545.7101 345.1256 546.6043 344.9021 547.9455 344.2315 547.722 344.1197 547.722 343.4491 547.9455 342.6667 548.1691 342.3314 548.5044 342.2196 549.6221 342.6667 550.0692 342.6667 552.3046 341.7725 553.7576 341.996 555.3224 342.4431 557.5579 342.4431 558.7873 342.1078 559.6815 341.6607 560.4639 341.4372 561.4699 341.8843 563.2582 346.8022 564.5994 349.2612 566.0525 350.7142 567.9526 351.1613 570.6351 350.826 571.641 350.3789 572.0881 350.0436 572.647 349.9318 574.1 350.0436 574.9942 350.3789 577.5649 352.1672 581.924 351.0495 582.9299 351.0495 585.1653 352.0554 586.3948 352.0554 588.0714 352.7261 591.7598 355.0733 592.4305 355.0733 592.8776 354.4026 593.7717 354.6262 595.5601 355.5204 596.7895 355.5204 597.3484 354.8497 597.5719 354.1791 597.6837 353.732 599.4721 353.9556 604.5018 355.185 606.6254 354.738 609.4197 352.3908 610.9845 352.0554 611.4316 352.5025 611.7669 354.4026 612.5493 355.0733 613.667 355.0733 614.3376 354.8497 615.0083 354.4026 615.7906 354.1791 617.579 354.4026 621.0439 355.7439 622.0498 356.3028 622.0498 356.5263 622.1616 357.0851 622.7205 357.5322 624.7323 357.8675 625.403 358.0911 626.0736 358.2029 626.856 357.7558 628.1972 357.4205 631.7739 357.7558 633.674 357.5322 636.4683 358.5382 637.6978 358.5382 638.9273 357.7558 638.8155 359.6559 639.3744 360.103 640.2685 359.9912 641.3862 359.9912 643.3981 360.9971 644.5158 361.1089 645.7453 357.9793 647.0866 359.7677 648.2043 362.7855 648.4278 364.3503 651.1103 364.7974 652.5634 364.2385 655.1341 361.4442 655.9165 360.3265 656.0283 359.5441 656.4754 359.3206 657.9284 359.8794 658.8226 359.7677 662.511 358.6499 663.2934 358.7617 663.5169 359.3206 663.7405 359.5441 664.8582 358.8735 665.4171 357.9793 666.3112 355.8557 666.8701 355.2968 668.7702 356.3028 672.5704 360.7736 674.3587 361.2207 674.8058 360.2147 673.6881 357.9793 674.3587 357.3087 675.5882 356.8616 676.4824 356.5263 680.2826 353.6202 681.5121 352.279 683.4122 348.9259 683.6358 348.5905 684.5299 348.1435 684.8652 347.6964 685.5359 345.7963 685.8712 345.0139 687.5477 342.4431 688.5537 341.3254 689.7832 340.3195 691.6833 339.7606 699.8426 338.3076 701.4074 338.4194 702.5251 339.6488 705.5429 347.1375 708.1136 351.0495 711.5785 354.4026 717.8377 358.2029 721.1909 361.4442 723.091 362.5619 724.9911 363.1208 744.3275 364.015 745.7805 363.6796 747.2336 362.7855 748.7983 363.5679 750.3631 364.9091 752.1515 365.8033 759.0813 366.4739 761.205 367.7034 761.4285 366.8092 762.658 364.3503 768.3583 372.0625 772.9409 375.5274 774.0586 376.7569 774.9528 379.6629 775.3999 389.9459 776.1823 394.4167 778.0824 398.3287 780.9884 401.4583 784.6769 403.582 787.0241 404.3644 788.4771 405.2585 789.3713 406.7116 789.7066 409.2823 789.5948 410.1765 788.9242 412.1883 788.8124 413.1943 789.1477 414.312 789.8184 416.2121 789.9301 417.3298 788.8124 421.3536 786.8006 424.8185 785.3475 428.5069 785.6828 433.0895 788.1418 442.4783 788.1418 444.602 787.4712 448.7375 787.6947 450.7494 790.7125 454.2143 791.942 456.1144 792.5009 458.4616 791.942 462.9325 792.0538 464.9443 793.2833 466.5091 796.4129 468.521 796.7482 469.527 799.2072 478.6922 799.2072 480.7041 796.6364 486.2926 796.1893 488.3045 796.9717 490.987 800.4366 494.6755 801.6661 497.0227 801.4426 500.7111 798.4248 507.5292 798.7601 511.7765 799.4307 515.4649 799.5425 515.912 799.4307 520.2711 799.766 524.4066 801.8897 527.5362 806.9194 532.9012 809.3783 540.6134 811.0549 564.3089 812.0608 567.4385 814.6316 570.2328 818.0965 571.7976 825.1381 572.2447 828.7147 573.0271 828.7147 573.1388 832.7385 574.5919 836.7623 575.3743 840.786 575.0389 844.5862 573.1388 844.5862 573.0271 847.4923 571.574 854.5339 571.6858 857.9988 570.6799 859.8989 569.6739 863.6991 569.5622 865.5992 569.2268 867.4993 568.1091 869.9583 564.756 871.4113 563.303 878.6765 559.1674 893.3185 554.026 895.2186 553.02 898.0129 549.8904 899.8012 548.9963 902.7073 549.8904 921.7084 560.7322 924.0556 562.4088 930.203 571.127 940.8212 577.4979 943.9508 579.1745 943.9508 579.2862 941.6036 581.0746 937.6916 584.0924 935.0091 587.5573 933.8914 591.3575 934.2267 593.2576 935.6798 597.1696 936.2386 601.864 937.1328 603.3171 939.8153 606.8937 940.7095 609.688 942.1625 613.4882 942.0507 617.0649 941.0448 620.8651 939.5917 623.6594 935.2327 630.1421 934.0032 634.1659 933.8914 637.9661 935.4562 646.349 935.4562 650.3727 931.3207 663.1146 929.8677 667.4737 926.6263 672.1681 925.7321 674.18 920.5906 696.646 919.5847 700.8933 919.3612 703.2405 919.4729 705.3641 920.3671 707.7113 923.2732 712.5175 923.6085 714.8647 922.6025 716.9883 918.8023 720.565 917.4611 722.6887 915.0021 730.848 912.2078 735.3188 910.0842 738.0013 906.9546 741.0191 904.3838 745.6018 903.0426 749.9608 902.819 751.4139 902.819 754.0964 903.2661 756.7789 904.3838 759.0143 905.1662 761.3615 904.8309 764.3793 904.1603 767.3971 904.1603 767.6207 903.9367 769.8561 905.7251 773.8799 906.0604 776.3388 904.3838 777.4565 900.3601 777.233 899.3541 778.4625 899.3541 781.7039 901.366 788.1866 901.7013 790.6455 902.2602 792.3221 904.8309 795.5635 905.5015 797.0165 905.3898 799.8108 904.2721 801.9344 903.0426 803.9463 902.4837 805.9582 903.3779 811.6585 903.4897 813.8939 902.4837 815.7941 901.4778 816.1294 898.7953 816.3529 897.9011 816.8 897.2305 818.1413 897.2305 819.3707 897.6776 820.712 898.2364 824.4004 899.3541 828.4242 899.3541 831.2185 897.0069 839.266 897.454 841.1661 899.4659 843.6251 899.913 845.1899 899.1306 846.6429 897.9011 848.4312 897.0069 850.1078 896.8952 850.4431 896.7834 851.002 897.0069 853.4609 897.0069 859.1613 895.3304 863.0733 895.1068 863.7439 894.7715 864.4145 893.7656 872.1267 893.2067 874.1386 892.2008 875.8152 888.7359 879.8389 885.6063 882.4097 883.9297 884.4216 882.9238 886.7688 883.0355 888.4453 883.5944 890.2337 883.9297 892.5809 883.8179 895.4869 883.3708 898.5047 882.4767 901.299 880.9119 903.4227 879.7942 903.9815 879.1235 903.6462 878.6765 902.9756 877.7823 902.5285 872.8644 902.5285 870.1818 903.1991 868.2817 904.9875 867.0523 907.4464 865.5992 913.2585 864.8168 915.4939 863.6991 917.2823 862.0226 919.2942 860.2342 920.1883 854.7574 920.6354 852.4102 921.4178 845.1451 928.7947 844.3627 930.9184 845.9275 935.9481 845.5922 938.6306 843.8039 940.1954 841.1213 940.6425 836.7623 940.3072 834.9739 939.8601 832.962 938.7424 830.5031 937.7364 827.8206 937.7364 822.3438 940.7542 817.0905 941.4249 814.8551 942.0955 812.8432 943.4367 810.9431 945.5604 809.6019 947.9076 808.9312 950.4783 808.7077 956.2904 807.4782 958.3023 804.6839 958.5259 801.6661 958.1905 799.4307 958.5259 798.0894 960.5377 797.6424 963.1085 796.9717 965.3439 795.1834 966.3498 792.1656 967.1322 792.0538 969.0323 794.8481 974.1738 795.2952 975.6268 795.5187 976.9681 795.2952 978.3094 793.7304 980.8801 793.8421 981.6625 794.1774 982.7802 794.0657 984.4568 792.948 987.3628 791.1596 989.4865 788.8124 990.9395 786.0182 991.3866 782.7768 993.8455 778.753 998.6517 774.6175 1001.8931 767.7994 998.2046 764.7816 997.3105 763.4404 996.5281 762.5462 995.2986 760.7579 990.6042 759.0813 988.1452 756.8459 987.251 754.2751 987.3628 751.4809 987.8099 750.922 987.8099 748.7983 987.9217 746.3394 987.3628 738.8507 984.4568 738.7389 984.345 736.0564 983.8979 733.1504 983.6744 730.2443 985.2392 728.1207 986.9157 724.0969 991.6101 721.5262 992.8396 718.2848 993.622 715.7141 995.075 715.1552 997.8693 715.4905 1001.3342 715.1552 1004.1285 713.814 1006.6992 711.5785 1009.1582 709.4549 1012.2878 707.8901 1016.1998 705.8782 1019.2176 702.3015 1020 702.1898 1020 698.7249 1018.547 695.3717 1015.8645 692.4657 1012.5113 690.342 1009.0464 685.7594 1003.3461 678.3825 1002.2284 675.5882 1003.1226 670.4468 1004.5756 664.7464 1009.1582 660.6109 1009.9406 656.4754 1007.3699 649.5455 1000.44 645.6336 998.7635 641.498 999.2106 637.4743 1000.8871 626.4089 1007.0345 622.7205 1007.9287 618.2496 1007.7052 617.3554 1007.4816 614.6729 1007.4816 613.4435 1007.0345 612.4375 1006.3639 609.4197 1003.7932 608.302 1003.2343 603.1605 1001.8931 602.1546 1001.5578 600.9251 1000.8871 600.1427 1000.1047 598.3543 998.3164 597.3484 997.6458 594.8894 996.9751 594.4424 996.8634 591.5363 996.8634 580.2474 998.5399 577.3414 998.2046 576.559 997.9811 574.8824 997.3105 556.6637 988.0334 556.5519 988.0334 555.3224 987.5864 543.9218 985.1274 543.81 985.1274 539.0039 983.4508 533.9741 982.4449 532.4094 982.1096 529.0562 980.5448 528.9444 980.5448 522.3499 979.2035 520.2263 978.7564 516.7614 978.6447 509.9433 979.8741 508.2668 979.9859 495.9719 978.4211 465.4584 981.1036 455.399 985.4627 454.9519 985.798 455.399 979.5388 455.2872 976.9681 453.8342 974.5091 451.0399 972.4972 449.5869 970.9325 448.9163 969.2559 449.4751 965.6792 451.0399 963.1085 453.6107 961.5437 459.311 960.5377 459.8699 959.3083 459.6463 957.2964 459.6463 955.0609 459.9816 953.9432 460.3169 952.9373 460.8758 952.0431 461.5464 951.149 462.5524 950.5901 462.5524 950.4783 463.223 951.0372 463.5583 951.9314 463.5583 952.4902 463.5583 952.8255 464.4525 953.2726 464.4525 953.3844 465.3466 953.4961 465.7937 952.9373 465.9055 950.8136 466.129 949.9195 466.4644 948.9135 467.4703 947.237 469.4822 944.6662 470.3763 942.9897 468.6998 941.4249 468.4762 939.7483 469.3704 938.1835 471.1587 936.954 476.0767 935.6128 478.5356 934.6068 479.5416 933.042 480.6593 931.8125 485.8008 931.3655 487.3656 930.136 486.5832 927.9006 484.5713 926.4475 483.23 924.6592 484.5713 921.8649 486.4714 921.3061 488.4833 921.9767 490.3834 922.2002 491.9482 920.6354 491.5011 919.6295 490.6069 918.1765 490.3834 916.8352 492.2835 916.2763 493.6248 916.3881 494.5189 916.1646 494.966 915.6057 495.1895 905.7699 495.7484 903.4227 496.3073 901.9696 496.6426 901.7461 497.2014 902.1932 500.7781 902.8638 502.1194 902.8638 502.6782 902.0814 502.3429 900.9637 501.784 899.9578 501.2252 898.7283 501.1134 897.2752 501.5605 896.9399 503.4606 895.4869 504.243 894.7045 503.5724 894.0339 502.6782 892.2455 501.8958 891.3514 499.4369 889.4513 498.7662 888.7806 498.3191 886.657 498.6545 884.7569 499.3251 882.745 499.6604 880.6213 499.9957 879.6154 501.5605 878.3859 501.8958 877.1564 499.2133 874.5857 498.878 872.9091 499.6604 871.009 503.3488 864.3028 503.9077 862.5144 504.243 860.3908 503.6842 856.367 503.6842 854.3551 504.5783 853.4609 506.3667 853.1256 508.9374 852.0079 510.8375 850.5549 510.7257 848.8783 509.1609 847.6488 507.3726 846.7547 506.0314 845.5252 505.8078 843.2898 506.9255 843.7369 507.8197 844.1839 508.3785 844.9663 508.8256 845.8605 509.8316 844.5193 510.8375 841.8367 511.8435 837.7012 513.0729 836.4717 520.3381 833.7892 524.0265 831.6656 536.992 821.9415 538.445 819.9296 538.445 818.253 533.3035 816.6882 534.1977 814.7881 538.1097 811.5468 538.7803 810.6526 539.4509 809.1996 539.3392 807.8583 536.7684 806.9641 536.4331 806.07 536.7684 805.1758 539.1156 804.2816 541.4628 802.9404 542.9158 801.8227 543.6982 801.2638 544.9277 799.5872 543.2512 795.3399 542.9158 792.9927 544.5924 791.875 546.6043 791.2044 548.7279 789.5278 550.6281 787.516 551.8575 785.9512 550.6281 785.6158 549.6221 785.1688 548.7279 784.4981 548.0573 783.3804 550.4045 779.8037 551.7458 778.4625 554.2047 777.4565 555.4342 777.3448 556.5519 777.4565 557.6696 777.3448 558.7873 776.5624 559.1227 775.6682 559.7933 772.8739 560.0168 772.3151 563.2582 772.7622 565.0465 772.6504 565.8289 771.868 566.276 768.9619 567.5055 768.1795 569.0703 767.7325 570.4116 766.3912 570.9704 764.1558 572.4234 753.314 572.3117 751.3021 571.5293 749.7373 569.9645 747.949 563.0347 742.4722 563.0347 741.0191 559.5697 732.301 559.5697 732.1892 556.1048 729.842 553.9812 726.8242 550.2927 718.7767 548.9515 717.1001 545.4866 715.4235 543.81 714.0823 538.8921 708.2702 537.2155 706.9289 534.9801 706.0348 526.1502 706.0348 524.5854 705.4759 523.9147 704.2464 523.4677 702.7934 522.6853 701.7875 521.6793 701.5639 519.1086 701.8992 517.9909 701.7875 510.2787 697.8755 508.8256 697.8755 507.7079 696.0871 497.6485 689.0455 495.5249 689.1573 493.6248 690.4986 490.4952 693.8517 489.1539 694.7459 487.7009 695.5283 486.4714 695.7518 485.0184 695.3047 484.4595 694.6341 484.1242 693.6282 483.4536 692.3987 476.1884 684.3512 473.5059 680.5509 472.1647 679.2097 469.5939 677.8684 444.8925 673.0623 444.3337 672.5034 443.9983 671.4975 443.3277 670.9386 442.4336 670.6033 441.6512 669.9327 439.9746 669.4856 434.2743 669.262 431.9271 668.7032 410.467 652.3846 406.8903 651.4904 405.7726 650.5963 403.5372 648.3608 402.4195 647.6902 401.7488 647.5784 399.6252 647.5784 397.3898 646.6843 393.2542 644.0018 390.5717 642.9958 387.4421 640.7604 382.7477 639.0838 381.63 638.3014 381.0712 637.4073 380.177 636.7366 378.5004 636.5131 377.4945 636.1778 376.0415 634.3894 372.353 633.0482 370.4529 630.701 368.2175 626.3419 367.0998 625.1124 362.7407 621.3122 360.0582 620.0827 359.6111 619.0768 359.3876 617.9591 358.9405 617.0649 358.2699 616.5061 355.8109 615.3883 353.2402 613.9353 352.1224 613.0411 350.893 611.5881 349.9988 611.0293 347.8751 610.5822 345.975 609.3527 343.1807 609.0174 342.063 608.6821 341.2806 607.8997 339.2688 605.2172 335.0215 600.7463 294.5603 573.9212 292.5484 573.3624 290.2012 573.5859 284.948 575.486 282.2655 576.1567 273.8826 576.3802 265.1645 575.0389 261.5878 575.2625 260.4701 575.0389 259.3524 574.3683 257.1169 572.3564 255.8875 571.574 254.8815 571.4623 250.8578 571.574 243.9279 570.2328 240.2395 567.5503 238.2276 566.5443 234.2039 566.4326 233.5332 566.209 231.7449 562.297 231.6331 561.5146 230.6272 561.2911 228.7271 560.2851 227.4976 559.8381 226.1563 559.7263 221.0149 559.9498 219.8971 559.7263 217.6617 557.7144 216.544 557.3791 209.9495 557.4909 206.7081 557.6026 204.3609 557.2673 201.2314 555.3672 197.4311 552.2376 193.2956 550.2257 189.0483 551.4552 185.4716 549.108 184.4657 548.1021 182.7891 545.4196 182.1185 544.6372 181.8949 543.0724 180.5537 540.5017 178.7653 538.1545 175.8593 536.4779 173.8474 533.2365 172.8415 532.1188 173.8474 530.1069 174.2945 527.3127 173.8474 524.8537 172.5062 523.736 170.4943 523.0653 168.8177 521.6123 167.3647 519.9358 165.9117 518.7063 165.1293 518.5945 162.8938 518.818 162.1114 518.7063 161.1055 518.0356 158.9818 515.8002 157.8641 515.3531 155.6287 514.6825 154.3992 513.0059 153.7286 510.9941 152.8344 509.4293 145.5693 506.1879 142.9986 506.0761 141.4338 505.629 140.3161 504.8466 138.9748 503.6172 137.2982 502.3877 135.5099 501.6053 133.3862 501.27 131.0391 501.1582 129.9213 500.4876 128.9154 497.5815 127.1271 496.4638 127.2388 495.2343 127.7977 493.7813 128.2448 492.7754 126.2329 492.7754 125.0034 492.5518 123.9975 491.993 118.2971 485.9573 116.6206 485.1749 111.3673 485.1749 109.9143 484.7278 108.9084 484.169 107.12 482.1571 105.5552 481.1512 103.9904 480.3688 102.6492 479.3628 102.2021 477.2392 102.0903 474.892 101.755 473.5507 101.0844 472.3212 99.8549 470.8682 98.6254 469.8623 96.1664 468.4092 94.8252 467.1798 92.2545 463.4913 91.3603 462.5971 78.8419 454.8849 74.9299 450.4141 73.3651 448.0669 73.3651 447.6198 73.0298 446.9492 73.5887 444.1549 73.3651 443.0372 72.0239 441.1371 70.012 436.6662 68.3354 434.2073 65.9882 431.6365 64.9823 430.2953 64.5352 428.8422 63.9763 428.7305 62.8586 428.0598 61.8527 427.1657 61.7409 426.7186 60.9585 426.2715 60.5114 425.3773 60.2879 424.2596 59.8408 423.3655 56.823 420.0123 56.0406 418.6711 55.5935 417.3298 54.8111 416.3239 53.3581 415.8768 52.911 415.2062 54.2523 412.3001 52.1286 410.9589 52.1286 409.3941 52.911 406.7116 52.3521 405.4821 51.9051 405.2585 51.2344 405.3703 49.8932 404.9232 47.0989 403.6937 45.6459 402.4642 45.6459 400.8994 47.2107 398.7758 47.8813 396.6521 46.9871 394.5285 44.4164 391.6224 43.8575 391.3989 43.0751 391.5107 42.4045 391.2871 42.181 390.5047 42.181 389.1635 42.0692 388.4928 41.7339 387.934 40.9515 387.3751 39.722 387.0398 35.6982 386.481 34.9158 386.3692 32.6804 385.5868 24.8564 380.11 22.9563 378.2099 22.1739 376.3098 21.168 375.5274 16.6971 374.0744 15.2441 373.5155 12.5616 369.9388 10.6615 368.2623 7.979 367.5916 6.7495 367.4799 5.1847 367.0328 3.8435 366.2504 3.0611 365.1327 3.2846 364.1267 3.9552 363.009 4.4023 361.7795 3.7317 360.103 4.5141 360.103 3.9552 359.2088 3.1728 358.4264 2.1669 357.8675 1.0492 357.644Z" />
</svg>