<?xml version="1.0" encoding="utf-8"?>
<svg xmlns="http://www.w3.org/2000/svg" viewBox="0 0 770 1024" style="stroke-width:0.25px;stroke-linejoin:round;stroke:#444;fill:#ddd" fill-rule="evenodd">
  <path class="RS" d="M259.3222 21.5481L270.9464 35.9666 273.1818 39.9903 276.9821 52.1734 279.8881 56.5325 283.0177 58.8796 290.2828 62.121 293.7477 64.4682 303.4718 73.5217 306.825 75.0865 313.8666 75.8689 317.3315 77.3219 320.1257 80.1162 326.2732 91.1815 327.6144 92.411 330.8558 94.5347 332.0853 96.2112 332.7559 98.4466 333.0912 103.8117 333.3147 104.7058 333.7618 106.3824 335.5502 109.4002 339.7975 114.877 341.5858 118.4537 343.8212 120.4656 346.2802 121.0244 348.7392 120.3538 351.0864 118.3419 352.2041 115.3241 353.7689 113.0887 355.8925 112.1945 358.1279 113.424 359.6927 115.9947 359.581 118.3419 358.9103 120.9127 358.4633 123.5952 358.575 137.343 358.1279 141.1432 357.3455 143.3787 355.3337 148.1848 353.8806 154.8911 354.5513 159.1384 359.9163 168.5272 362.3752 174.6746 361.8164 178.363 359.1339 181.1573 354.9983 184.5105 356.2278 188.1989 358.9103 189.9872 362.1517 190.9932 365.2813 192.558 367.852 195.2405 373.8877 204.1822 385.8472 215.024 393.0006 224.4128 395.7948 226.76 402.2776 229.666 411.1075 233.6898 413.0076 235.2546 414.5724 237.0429 416.1372 238.4959 418.3726 239.0548 420.1609 238.1606 423.1788 234.8075 424.9671 234.3604 427.9849 236.5958 434.3559 245.9846 437.3737 249.5613 443.5211 253.9204 446.7625 255.2616 454.5865 255.4851 474.2582 261.7443 479.3997 264.5386 484.2058 268.4506 488.7884 274.0392 490.465 276.051 491.2474 279.516 490.5768 282.7573 488.2296 284.7692 485.8824 284.881 483.9823 285.8869 482.4175 287.5635 481.0762 289.6871 481.2998 290.0224 481.4116 291.699 481.4116 293.5991 481.2998 294.9404 480.7409 296.0581 479.1761 297.8464 478.6173 298.9641 477.9466 302.6526 477.8349 304.5527 477.276 305.7822 474.9288 307.6823 472.9169 308.3529 468.2226 308.6882 466.4342 309.6942 465.093 311.7061 464.1988 314.3886 464.5341 316.624 467.1048 317.2946 470.2344 317.4064 470.7933 318.7476 470.3462 320.536 470.458 321.989 474.7053 324.895 483.647 326.4598 488.2296 328.6953 494.7123 331.266 497.3948 333.6132 498.8479 337.8605 498.4008 342.8902 495.7183 345.1256 488.2296 347.2493 483.0881 348.0317 472.3581 347.4728 467.3284 349.2612 464.9812 351.3848 463.3046 354.2909 462.634 357.8675 465.7636 359.2088 465.8754 359.3206 469.2285 361.7795 472.4699 368.7094 475.3759 370.1624 491.1356 371.8389 502.4245 370.9448 506.113 371.9507 509.3543 375.0803 510.9191 379.2158 512.0369 383.9102 513.8252 388.6046 520.5315 395.4227 529.5849 398.1052 539.0855 398.1052 547.4683 396.3168 554.1746 393.4108 557.3042 392.6284 560.4338 393.1872 577.0877 402.0172 583.0116 402.9113 584.9117 404.8114 590.0531 417.3298 590.3884 419.1182 590.7238 420.9065 591.3944 424.1479 592.4003 426.1597 594.4122 427.9481 596.4241 429.2893 598.2124 430.9659 600.1125 438.4546 603.3539 441.5842 607.4894 443.3725 611.5132 443.8196 615.8723 442.7019 618.3312 440.1311 639.3442 402.1289 640.4619 398.1052 643.1444 395.9815 650.8567 394.305 654.4333 392.0695 660.9161 384.9162 662.8162 383.4631 667.287 383.5749 670.7519 384.3573 673.4344 385.9221 686.2881 400.2288 692.6591 405.3703 698.9183 408.3881 713.4485 410.1765 716.131 412.1883 725.5198 422.5831 724.4021 427.2774 721.1607 430.6306 717.0252 432.6425 713.4485 433.2013 709.4248 432.3072 702.7185 427.7245 698.9183 426.1597 695.0063 426.048 691.3178 427.1657 688.6353 429.7364 687.5176 434.0955 686.9587 438.5663 685.3939 441.0253 683.0468 442.143 676.564 442.4783 674.7757 443.0372 673.5462 444.1549 672.7638 446.6139 672.3167 450.0788 672.205 453.4319 672.7638 455.5556 676.6758 459.1322 677.4582 460.9206 677.6817 462.8207 677.2347 466.9562 677.4582 468.9681 680.6996 476.4568 685.6175 483.163 691.7649 488.5281 698.9183 491.7694 706.5187 492.7754 709.9836 494.4519 711.5484 497.9168 710.766 510.3234 711.7719 514.2354 711.8837 514.3472 703.948 518.0356 702.3832 519.7122 699.5889 524.4066 696.5711 527.8715 696.124 528.2068 695.9004 529.7716 696.0122 531.1129 696.4593 531.8953 696.6828 532.007 694.7827 539.6075 694.4474 542.5135 694.5592 544.9725 695.7887 550.4493 695.7887 552.6847 693.665 556.7085 690.4237 557.3791 686.6234 557.0438 682.8232 558.385 680.6996 561.6264 679.2465 565.3149 677.1229 567.9974 673.0991 568.1091 670.1931 568.5562 664.381 569.5622 660.1337 571.3505 657.8982 574.8154 657.4512 578.0568 657.4512 585.4337 657.0041 589.4574 656.557 590.5751 654.6569 594.04 654.098 595.2695 653.7627 602.9817 651.9744 610.9175 649.6272 616.8414 648.6212 622.4299 651.0802 629.3597 655.8864 635.0601 656.1099 637.0719 655.3275 641.3193 655.4393 643.4429 656.2217 646.796 657.4512 650.1492 658.9042 653.2788 660.5807 655.9613 662.9279 658.0849 668.293 661.1028 670.1931 663.0029 671.4226 666.356 671.6461 672.1681 673.0991 675.4095 673.0991 675.5212 673.0991 675.633 673.0991 675.8565 672.4285 676.8625 672.205 677.7567 672.4285 678.6508 673.0991 679.545 673.3227 680.2156 673.3227 680.7745 673.3227 681.4451 673.0991 682.1157 672.5403 683.3452 672.3167 684.6865 672.5403 685.916 674.7757 690.6103 678.2406 702.6816 679.9172 707.5996 682.4879 709.9468 688.6353 712.9646 689.8648 714.1941 692.5473 717.7707 694.2239 719.112 696.2358 719.5591 700.2595 719.3355 701.9361 719.7826 703.3891 721.3474 705.401 725.7065 705.8481 726.1536 706.9658 727.2713 708.6424 727.9419 712.219 727.8301 714.0074 728.0537 717.0252 729.3949 717.9194 730.0656 719.5959 731.1833 732.7849 744.5958 735.1321 747.949 735.8028 749.9608 736.3616 754.6552 736.9205 756.6671 738.0382 758.3437 742.509 762.8145 747.427 769.5208 749.9977 772.0915 753.2391 774.2152 762.4043 776.1153 765.4221 777.5683 765.7574 780.4744 765.981 783.7157 764.0809 792.2103 760.7277 800.4814 756.9275 806.2935 755.3627 807.4112 752.2331 808.8642 750.6683 810.3173 749.7741 811.9938 748.4329 816.6882 747.5387 818.5883 739.7147 825.9652 737.2558 829.5419 734.7968 830.5479 729.7671 831.6656 727.5317 833.0068 726.3022 835.1305 725.0727 838.3718 721.8314 850.6667 720.7136 853.4609 720.6019 853.7963 718.4782 856.4788 712.7779 858.826 707.1893 860.279 693.3297 856.4788 688.1882 857.1494 685.7293 858.826 684.7233 860.279 684.7233 860.3908 683.3821 861.1732 680.1407 860.6143 677.57 860.7261 675.8934 862.1791 673.0991 866.5382 671.0872 868.2147 666.3928 870.7855 664.8281 872.2385 663.5986 874.0268 663.0397 874.921 662.8162 875.927 663.375 876.8211 667.8459 887.5512 670.3048 891.3514 673.0991 893.475 673.2109 894.2574 673.3227 895.0398 673.2109 895.8222 673.0991 896.6046 670.6402 898.9518 665.7222 908.1171 667.0635 911.582 666.2811 917.8411 665.6105 920.4119 663.375 930.4713 662.7044 935.501 663.4868 935.8363 673.0991 944.778 678.6877 948.9135 681.0349 951.8196 682.4879 955.3963 683.2703 959.1965 682.5997 964.338 680.0289 973.5032 678.1288 977.527 676.0052 978.98 673.7697 979.5388 670.8637 980.8801 668.0694 984.5685 665.0516 993.8455 662.4809 997.3105 659.016 998.4282 651.4155 998.5399 647.8388 1000.44 644.1504 1000.2165 640.909 998.987 638.003 996.7516 635.2087 993.5102 634.7616 991.7219 634.5381 987.4746 633.7557 986.2451 632.0791 986.5804 627.1612 991.6101 601.6773 1002.3402 595.3064 1003.5696 592.5121 1003.2343 589.159 1002.7872 583.1233 1000.6636 573.2875 995.5221 570.9403 995.075 568.9284 995.9692 562.6692 1001.446 561.4397 1001.7813 554.0628 1001.6695 550.2626 1002.5637 532.2674 1013.5173 529.8085 1015.0821 527.126 1018.3234 524.3317 1020 521.2021 1019.8882 514.7194 1018.0999 505.5541 1018.3234 503.5422 1017.2057 501.6421 1010.2759 494.377 999.3223 494.6006 993.2867 498.5125 989.1512 509.4661 985.798 513.3781 982.1096 514.1605 978.1976 513.2663 970.2618 513.6017 966.4616 515.2782 963.6673 522.6551 956.1787 531.9321 940.866 533.7205 935.1657 533.6087 934.1597 532.2674 932.0361 532.0439 930.9184 532.3792 930.2477 533.6087 929.5771 533.944 929.13 534.1675 928.4594 535.1735 923.3179 535.0617 922.5355 536.8501 921.1943 539.0855 920.1883 540.9856 918.9589 542.1033 916.7234 540.5385 911.1349 536.8501 908.6759 535.7323 908.0053 530.2556 906.7758 526.3436 906.8876 518.296 910.4642 515.6135 910.576 512.4839 908.4524 506.5601 900.9637 503.7658 898.5047 499.5185 897.0517 480.8527 894.481 476.4936 894.5927 474.2582 894.7045 471.1286 893.6986 469.2285 892.4691 469.3403 891.6867 470.2344 890.9043 470.7933 889.6748 471.4639 885.7628 473.9229 877.38 474.7053 873.1327 474.7053 867.8794 474.7053 866.5382 473.0287 864.6381 469.2285 864.4145 463.3046 863.0733 461.4045 861.8438 457.8278 858.826 455.816 857.5965 453.8041 857.0376 449.445 857.1494 447.4331 856.5905 442.1799 850.4431 441.1739 842.3956 440.8386 834.5716 438.0443 828.9831 434.9147 828.4242 432.4558 830.3243 429.7733 831.6656 426.5319 829.7655 424.9671 826.4123 422.1728 813.2233 419.2668 807.2994 416.3607 804.9523 404.0659 804.2816 400.1539 802.8286 398.0303 801.5991 383.0529 792.7692 369.4168 784.7217 368.1873 782.7098 368.9697 782.4862 369.5286 779.2449 369.7521 775.5564 369.6404 774.2152 371.764 772.2033 373.6641 772.8739 374.223 772.8739 372.4347 769.2972 371.2052 767.6207 369.4168 765.6088 365.8402 762.7028 364.0518 762.1439 361.2575 761.2497 356.6749 761.8086 352.2041 763.8205 337.6738 774.8858 333.6501 776.4506 327.6144 776.6741 326.0496 777.7919 324.8201 781.145 325.379 783.9393 327.6144 788.7454 329.1792 794.2222 330.1851 796.5694 331.3029 798.246 332.8677 798.6931 334.8795 798.4695 336.7796 798.5813 338.1209 800.1461 337.3385 806.2935 333.4265 814.6763 328.5086 822.2768 324.7084 826.077 322.4729 826.1888 320.3493 825.5182 318.3374 825.5182 316.6608 827.1947 314.9843 831.1067 313.9783 832.7833 312.5253 834.2363 308.9486 835.4658 305.5955 835.4658 302.4659 836.36 299.3363 840.4955 297.7715 847.6488 300.6776 850.7784 304.8131 853.3492 305.819 856.367 306.6014 858.7142 302.4659 864.4145 293.5242 868.103 278.2116 871.4561 280.1117 861.732 279.7763 855.4728 276.7585 851.4491 265.3579 845.637 255.6338 838.5954 250.3805 836.2482 240.4329 835.2422 238.3092 834.5716 236.0738 833.7892 224.8967 822.6121 224.4496 822.2768 218.0787 815.9058 207.0133 808.0818 205.1132 806.1817 203.7719 803.7228 202.766 801.152 201.313 799.1402 199.0776 798.246 197.2892 799.2519 192.9301 803.7228 190.8065 805.064 184.5473 805.5111 178.3999 805.1758 174.1526 803.4992 170.3524 800.3696 166.8875 795.8988 161.5224 785.9512 159.9576 785.8394 158.5046 787.4042 156.1574 788.2983 152.1337 787.8513 143.9744 785.2805 140.1741 783.2686 136.9328 780.3626 131.2325 772.8739 130.8971 772.5386 124.3026 766.9501 122.4025 764.1558 119.2729 757.0024 117.0375 753.6493 106.0839 742.1369 98.3717 730.5127 95.3539 728.2772 69.9818 716.7648 65.1757 712.6293 62.1579 705.923 62.0461 698.5461 65.7345 692.6222 69.7583 692.6222 71.9937 688.3749 73.7821 682.6746 76.3528 678.4273 78.3647 677.8684 83.0591 678.6508 85.1827 678.5391 87.4182 677.3096 91.6655 673.8447 93.6773 673.2858 96.8069 675.1859 99.9365 679.2097 102.5073 684.1276 104.0721 688.3749 105.5251 690.6103 107.0899 688.4867 109.4371 682.8981 111.6725 682.6746 118.6023 685.5806 120.0553 684.5747 120.5024 683.5688 119.9436 682.3393 118.6023 681.1098 117.7081 678.4273 117.4846 674.8506 117.8199 671.1622 118.6023 668.1443 123.4085 663.4499 123.0732 656.7437 118.6023 642.5487 114.9139 634.0541 96.0245 613.6 86.1887 597.6167 80.4883 590.2398 74.1174 585.3219 71.9937 583.9806 74.1174 581.857 74.4527 580.0686 73.6703 576.8273 73.5585 575.0389 74.5645 572.58 76.241 571.127 80.0413 569.8975 82.7238 569.7857 85.1827 570.6799 89.8771 574.033 94.5715 578.5039 97.0305 579.9569 99.713 579.8451 102.3955 578.9509 112.2314 578.2803 122.7378 579.398 127.3205 578.9509 131.6795 577.3861 139.28 571.6858 142.4096 568.1091 143.9744 563.9736 142.6331 559.0557 140.2859 557.0438 138.6094 557.6026 137.4916 559.1674 136.821 559.8381 135.1444 558.4968 132.1266 554.8084 126.091 551.2317 124.9733 549.6669 121.7319 544.749 118.8259 542.0664 117.7081 540.3899 117.2611 535.8073 115.6963 533.7954 114.5785 533.7954 112.4549 535.919 111.449 536.2543 110.1077 535.4719 108.0958 533.5718 100.0483 527.5362 96.5834 523.8477 95.4657 520.6064 95.0186 515.3531 92.7832 509.7646 89.5418 505.182 86.4122 502.4994 84.2886 502.0524 78.3647 503.5054 75.6822 503.3936 74.1174 502.8348 70.3172 500.9347 62.3814 499.1463 58.5812 497.4697 55.3398 493.446 51.2043 484.5043 49.7513 479.3628 49.416 474.4449 50.9807 469.0799 53.5515 465.8385 55.7869 462.0383 56.1222 454.8849 53.1044 443.4843 53.6633 439.3487 60.146 437.2251 61.599 435.9956 62.8285 434.2073 63.8344 432.0836 64.2815 430.2953 64.058 426.1597 64.3933 424.3714 65.2875 423.2537 67.2993 422.0242 68.1935 421.13 76.9117 406.2645 79.4824 398.5523 80.9354 396.0933 82.8355 393.9696 86.6358 390.84 88.4241 388.1575 90.3242 383.3514 96.8069 351.9437 97.5893 350.7142 98.5953 350.4906 99.2659 349.7083 99.0424 347.1375 98.4835 344.9021 97.7011 343.4491 96.6952 342.4431 95.5774 341.2136 94.9068 340.3195 94.795 340.543 94.348 340.8783 92.4479 341.1019 90.6595 340.4312 86.9711 336.8546 85.2945 336.8546 83.7297 337.637 82.0531 337.8605 73.8938 336.1839 71.9937 336.5193 68.7524 337.8605 66.964 337.8605 65.9581 336.631 65.2875 334.5074 64.1697 332.9426 61.8226 333.5014 45.2804 345.5727 42.2626 346.6904 38.4624 347.2493 32.5385 349.0376 28.5147 341.4372 28.0677 336.1839 32.9856 333.3897 35.5563 334.1721 39.2448 338.3076 41.9273 338.6429 44.1627 337.3017 45.8393 335.0662 48.7453 330.1483 50.5337 329.0306 52.6573 328.1364 53.9986 326.2363 53.2162 322.2125 51.5396 320.3124 47.7394 321.7655 45.7275 319.9771 45.3922 317.2946 45.951 314.165 46.8452 310.9237 47.2923 308.4647 47.0688 305.7822 45.504 298.07 44.8333 291.8108 44.2745 289.24 42.8215 285.9987 41.4802 284.2103 39.5801 282.422 38.1271 280.4101 37.9035 278.0629 40.6978 275.4922 51.0925 276.6099 55.0045 275.7157 55.7869 271.5802 53.4397 266.5505 52.0985 262.7503 56.234 261.7443 58.3576 262.9738 61.9343 268.0035 63.8344 270.0154 67.4111 271.3567 71.3231 271.5802 79.1471 270.5743 80.0413 269.9036 80.6001 268.6741 81.2707 267.5564 82.612 266.9976 83.5062 267.4447 84.9592 269.7919 85.8534 270.3507 101.8366 269.6801 102.3955 269.0095 104.5191 266.8858 104.9662 260.7384 103.0661 255.4851 99.4894 253.8086 83.1708 252.132 77.6941 250.3437 66.0699 244.5316 58.9165 241.6255 48.8571 235.7017 47.8512 230.1131 47.4041 227.6541 44.9451 225.0834 42.0391 223.9657 39.3565 223.4068 35.221 223.5186 32.2032 221.2832 30.9737 219.7184 28.9618 219.0477 28.8501 218.936 25.4969 216.5888 25.0498 211.4473 29.0736 209.1001 33.768 208.4295 35.4446 204.741 32.6503 200.2702 30.0795 197.5877 29.0736 194.4581 28.9618 189.6519 31.4208 183.0574 32.8738 183.281 43.9392 184.9575 49.3042 179.5925 47.1805 175.7923 44.8333 174.451 42.1508 173.8922 39.0212 172.4392 37.2329 170.8744 36.3387 169.6449 35.7799 168.3036 34.6622 166.18 32.9856 164.9505 31.309 165.3976 29.7442 166.5153 26.5029 168.3036 24.6028 170.5391 22.2556 172.4392 18.7906 172.4392 17.0023 170.6508 13.3139 164.727 11.7491 163.3857 12.4197 161.1503 12.6432 156.2323 13.4256 151.2026 15.6611 148.9672 17.6729 147.5142 22.8144 140.4726 23.8204 138.1254 22.7026 134.3252 20.0201 131.978 16.8905 130.1897 14.3198 128.1778 12.755 124.7129 11.9726 116.6653 11.1902 112.7534 5.8252 106.0471 4.4839 103.8117 1.6897 100.9056 1.019 99.229 1.2426 98.1113 1.9132 96.9936 2.3603 95.4288 2.9191 88.1637 8.7312 87.6048 11.0784 87.1578 12.4197 85.3694 11.8608 83.3575 9.9607 81.1221 6.1605 78.1043 7.8371 76.2042 9.2901 74.7512 12.4197 72.7393 11.4138 68.6037 22.7026 69.3861 26.2793 71.0627 27.2853 70.5039 27.5088 69.7215 27.0617 68.6037 25.7205 66.2565 25.4969 65.3624 25.7205 64.3564 26.2793 63.3505 30.6384 60.2209 35.3328 60.8915 38.5741 59.9974 38.7977 52.0616 41.7037 47.0319 45.951 45.2436 50.0866 46.8084 52.8809 52.0616 57.0164 54.5206 73.2232 56.1971 78.2529 55.1912 80.3766 52.5087 81.2707 49.2673 82.612 46.026 84.7356 44.3494 86.3004 43.2317 89.7653 42.4493 96.5834 42.3375 99.6012 41.3316 101.5013 39.2079 102.9543 36.5254 104.4074 34.29 106.7546 33.1723 108.7664 32.837 110.3312 32.1663 113.4608 29.5956 114.8021 27.8073 115.6963 25.7954 117.0375 24.007 121.8437 21.3245 121.3966 19.2009 120.0553 16.7419 119.72 14.5065 122.4025 11.4887 126.6498 8.5826 131.2325 6.5707 134.6974 5.9001 138.6094 6.0119 149.3394 4 153.3631 4.1118 157.1634 5.453 161.1871 8.0238 172.476 15.2889 175.7174 15.8477 191.03 9.4768 193.9361 8.3591 201.313 6.6825 213.1607 7.8002 220.8729 12.1593 226.1262 11.6004 230.8206 9.2532 232.6089 9.0297 235.6267 9.7003 236.6327 10.4827 238.5328 13.1652 239.9858 13.9476 241.3271 13.7241 245.9097 11.4887 249.2628 12.8299 259.3222 21.5481Z" />
</svg>