<?xml version="1.0" encoding="utf-8"?>
<svg xmlns="http://www.w3.org/2000/svg" viewBox="0 0 1021 894" style="stroke-width:0.25px;stroke-linejoin:round;stroke:#444;fill:#ddd" fill-rule="evenodd">
  <path class="RW" d="M80.0222 836.4667L72.4218 827.9721 62.1388 822.8306 47.2733 821.2658 40.567 818.5833 21.9012 806.4002 17.9892 802.3765 21.3424 764.1507 17.9892 752.5265 12.8477 747.2733 7.2592 744.5908 2.7883 741.5729 1 735.0902 2.7883 728.4957 11.3947 720.7835 9.7182 714.6361 4.5767 705.5826 2.7883 695.635 1.7824 685.0167 5.4708 671.8277 12.5124 665.7921 25.925 661.0977 36.4315 658.0799 45.0378 652.9384 52.1912 645.6733 58.0033 636.6198 61.8035 629.1311 63.4801 623.7661 64.0389 619.407 69.1804 614.6009 73.4277 613.1479 87.8462 613.5949 110.0887 607.6711 127.3014 594.035 139.8198 574.5868 147.7556 550.8913 150.6616 529.9901 149.5439 511.8832 136.2431 433.308 135.2372 414.9776 137.6961 397.0942 147.0849 375.0752 165.7507 345.1206 178.6044 324.6664 189.1109 304.6594 195.1465 295.8295 219.4009 275.8224 224.4306 269.2279 238.1784 240.9498 243.8788 233.4612 251.8145 230.2198 290.0403 228.655 291.2697 228.3197 292.3875 227.6491 293.3934 226.5314 295.07 223.8488 304.7941 208.648 322.0068 190.7646 341.9021 176.3461 361.5738 169.3045 381.6926 170.4222 392.1991 169.6398 401.4761 167.1809 411.8708 161.3688 419.5831 155.7802 427.9659 151.4211 440.0372 149.1857 446.0728 150.527 456.6911 157.0097 460.156 158.2392 464.2915 155.892 467.3094 145.9443 471.7802 140.5793 476.4746 137.6733 480.8337 136.4438 485.1927 137.1144 485.3045 137.1144 490.7813 139.9087 504.8645 160.251 507.0999 170.7575 508.2176 191.4352 513.1355 201.9417 521.7419 209.9892 531.466 212.7835 541.9725 211.6658 553.0378 207.5303 587.0163 188.7527 592.1578 187.635 596.7404 176.7932 603.2231 169.9751 605.7938 168.6339 620.5476 160.6981 641.0018 152.7624 646.4785 147.7327 649.0493 140.0205 652.0671 120.684 655.6438 113.866 659.5558 111.5188 663.5795 110.8482 667.4915 110.5129 671.2917 109.3952 679.004 104.8125 701.2464 83.6878 707.7292 75.305 713.2059 66.2515 714.1001 62.8983 715.2178 55.745 716.6708 52.7272 718.3474 51.3859 720.1358 49.8211 728.5186 46.1327 731.6482 43.5619 734.2189 35.9615 737.4603 15.2838 741.7076 8.1305 749.308 5.3362 757.5791 6.5657 766.0737 9.1364 774.5683 10.1424 782.3923 8.2422 788.9868 5.2244 795.8048 4.3303 803.4053 6.6774 808.8821 8.4658 804.8583 12.6013 801.0581 18.0781 799.4933 23.6667 801.1699 29.0317 808.435 34.0614 810.1116 40.8794 808.9938 43.8972 807.0937 46.6915 805.7525 49.7094 806.6466 52.7272 811.0057 55.6332 815.0295 55.0744 818.2708 53.286 820.2827 52.7272 826.4301 57.198 828.5538 60.2158 830.5657 73.1813 833.5835 80.4464 842.7487 95.5355 845.6548 105.8185 850.3492 111.8541 851.3551 115.8779 850.7963 117.4427 849.6785 119.6781 848.4491 122.5842 848.002 126.2726 850.6845 134.3201 857.1672 139.2381 871.921 145.2737 877.1743 149.0739 884.6629 156.1155 889.2455 158.9098 922.3298 171.2046 932.1657 172.6576 941.8898 178.4697 944.684 191.547 943.7899 204.6242 942.2251 210.5481 939.5426 213.4541 942.5604 219.9369 950.8315 231.0022 956.9789 237.5967 959.2143 241.5087 964.1322 259.5039 968.9384 270.7927 976.7624 276.9402 988.6101 272.3575 992.2986 282.9758 991.8515 295.8295 985.3688 335.2847 985.257 340.7615 986.3747 343.3322 990.8455 350.1503 992.075 354.7329 986.3747 368.4807 988.0513 373.734 992.075 393.8528 989.2807 402.3474 984.251 409.8361 981.4568 417.5483 985.257 426.49 977.0977 432.8609 974.0799 436.1023 971.6209 440.1261 986.5982 442.585 988.0513 455.774 981.4568 484.9463 990.8455 482.9344 999.899 487.4053 1007.4994 495.1175 1012.8645 502.2708 1017 516.8011 999.7872 572.5749 995.5399 594.5938 997.5518 628.9076 995.5399 639.0788 990.2867 648.4675 983.804 653.1619 975.4211 656.9622 967.7089 661.3212 960.6673 663.1096 957.0906 665.1215 952.508 666.3509 948.3725 665.345 922.3298 652.4913 916.9648 650.8147 910.4821 651.7089 904.67 656.1798 897.6284 669.5923 891.9281 674.3985 881.5333 674.9573 870.6915 671.8277 859.9615 670.4865 850.3492 676.1868 833.9188 675.5162 817.2649 667.6922 789.9927 645.4497 787.1985 641.426 784.6277 634.4961 782.1688 631.7019 780.4922 632.3725 764.6207 628.5723 762.2735 627.3428 754.226 629.69 749.308 634.2726 747.1844 636.9551 744.949 639.9729 738.4662 645.8968 731.3129 649.5853 721.9241 652.7149 712.3118 654.615 704.2642 654.9503 698.0051 653.609 682.4689 646.0086 676.6568 645.4497 674.8684 648.8029 674.5331 653.4972 673.5272 656.9622 650.9494 685.352 642.4548 691.2759 631.2777 691.6112 619.7652 687.1404 609.2587 680.2106 601.0994 673.0572 585.5633 654.7267 579.4158 649.9206 573.7155 647.9087 568.9094 647.7969 564.7738 648.244 560.8618 647.6851 552.0319 640.0847 551.1377 639.3023 547.7846 636.3963 543.7608 634.0491 538.6194 634.2726 537.1663 637.0669 537.1663 641.6495 533.925 667.3569 537.5017 705.8062 526.6598 743.6966 524.648 794.9996 524.4244 800.5881 521.7419 811.6535 516.9358 822.607 510.7883 832.89 504.1938 841.9435 493.9109 852.3382 484.5221 857.9267 474.3509 859.8268 461.9443 859.4915 450.7672 856.1384 445.0669 856.1384 441.3784 860.8328 439.7019 871.3393 437.4664 876.0337 432.6603 878.9397 421.4832 880.3927 411.9826 878.9397 391.1932 872.0099 385.8282 870.2216 382.2515 869.998 367.3859 875.4748 363.6975 877.7102 359.6737 879.275 354.5322 879.0515 343.5787 880.5045 334.1899 886.4284 324.6893 889.6697 313.0651 883.0752 294.9582 879.7221 285.2341 877.9338 276.2924 878.9397 254.7206 888.3285 242.314 889.4462 237.9549 879.9457 237.396 873.6865 232.7017 863.2917 231.5839 857.4796 233.2605 852.2264 240.1903 843.7318 241.308 838.0315 238.1784 831.884 227.3366 821.6011 227.2249 821.154 225.5483 814.336 226.2189 808.5239 225.7718 806.1767 219.7362 801.5941 210.571 796.3408 199.9527 793.8818 178.8279 791.1993 167.6508 787.7344 137.2491 774.5454 129.2015 773.316 100.0293 775.2161 88.7404 786.3932 80.0222 836.4667Z" />
</svg>