<?xml version="1.0" encoding="utf-8"?>
<svg xmlns="http://www.w3.org/2000/svg" viewBox="0 0 1021 846" style="stroke-width:0.25px;stroke-linejoin:round;stroke:#444;fill:#ddd" fill-rule="evenodd">
  <path class="SA" d="M784.0689 409.5316L787.6455 415.3437 789.881 417.9144 792.3399 419.0321 795.246 419.3674 797.9285 419.3674 800.4992 418.585 803.7406 415.9025 803.8524 416.3496 806.3113 416.0143 806.7584 416.2378 807.2055 416.7967 807.5408 417.132 808.0997 416.6849 808.2114 417.132 808.0997 417.5791 807.9879 418.0262 807.6526 418.138 807.3173 418.4733 807.429 419.0321 807.6526 419.4792 807.7644 419.591 807.6526 421.3793 807.9879 421.7146 808.7703 421.3793 809.4409 420.9322 810.7822 418.585 811.4528 417.9144 812.0117 417.4673 812.4587 416.7967 812.4587 415.5672 813.1294 416.0143 814.0235 416.0143 814.8059 416.2378 815.0295 416.9085 815.3648 417.5791 815.9237 417.6909 816.7061 417.6909 817.3767 418.138 817.3767 418.585 816.5943 418.9204 815.5883 419.2557 814.8059 419.7028 814.3589 420.4851 814.2471 420.4851 813.1294 421.7146 812.9058 422.1617 812.6823 422.8323 812.4587 423.1677 809.5527 425.2913 809.1056 425.9619 808.9938 426.1855 808.3232 427.0796 808.0997 427.5267 807.9879 428.0856 807.8761 429.3151 807.7644 429.7622 807.7644 430.0975 807.7644 430.4328 807.7644 430.7681 807.6526 430.8799 807.0937 430.7681 806.8702 430.8799 806.7584 430.9916 806.7584 432.2211 806.7584 432.78 806.982 433.0035 809.9998 433.3388 811.1175 433.0035 811.6763 432.6682 812.1234 432.3329 812.5705 431.9976 813.2411 431.8858 816.4825 432.5564 817.2649 433.2271 818.7179 434.9036 820.8416 435.4625 821.0651 437.5861 821.0651 438.9274 820.9534 442.2805 821.2887 443.6218 821.9593 444.8513 824.7536 448.4279 827.2125 451.7811 829.7833 455.0224 832.2422 458.2638 834.813 461.6169 837.2719 464.8583 839.8427 468.0997 842.3017 471.341 844.8724 474.5824 847.3314 477.9355 849.9021 481.1769 852.3611 484.4183 854.9318 487.6596 857.3908 490.901 859.9615 494.1424 862.4205 497.3837 864.9912 500.6251 867.5619 503.9782 868.5679 504.8724 869.6856 505.2077 877.5096 506.3254 884.2158 507.2196 890.9221 508.1138 897.6284 509.0079 904.3347 509.9021 911.0409 510.7963 917.7472 511.6904 924.4535 512.5846 931.1597 513.4788 937.866 514.3729 944.5723 515.2671 951.2785 516.1613 957.9848 517.0554 964.6911 517.9496 971.3974 518.8438 978.1036 519.738 984.8099 520.6321 991.4044 521.5263 992.075 521.3028 995.3164 517.1672 998.3342 522.3087 1002.2462 528.7914 1006.1582 535.2741 1010.0702 541.8686 1013.9822 548.3514 1016.5529 552.5987 1017 553.7164 1017 554.9459 1015.2117 560.8697 1014.9881 561.5404 1014.6528 562.6581 1013.7586 565.5641 1012.4174 570.035 1010.629 575.8471 1008.5054 582.7769 1006.0464 590.4891 1003.5875 598.6484 1002.9168 600.6603 1000.905 607.143 998.2224 615.6376 995.7635 623.7969 993.3045 631.5091 991.1809 638.3272 989.3925 644.1393 988.0513 648.6101 987.1571 651.4044 986.8218 652.5221 985.257 657.44 977.9919 660.0108 969.7208 662.9168 961.4497 665.8229 953.2904 668.7289 945.0194 671.7468 936.7483 674.6528 928.4772 677.5589 920.2062 680.4649 911.9351 683.371 903.664 686.277 895.393 689.1831 887.2337 692.0891 878.9626 695.1069 870.6915 698.013 862.4205 700.919 854.1494 703.8251 845.8783 706.7311 840.5133 708.6312 832.9129 709.6372 825.2007 710.7549 817.4884 711.8726 809.7762 712.9903 802.064 714.108 794.3518 715.2257 786.5278 716.2317 778.8156 717.3494 771.1034 718.4671 763.3912 719.5848 755.679 720.7025 747.9668 721.7085 740.2546 722.8262 732.5424 723.9439 724.7184 725.0616 717.0062 726.1793 709.2939 727.297 703.0348 728.0794 698.5639 729.756 696.4403 730.8737 689.5105 734.4504 681.2394 738.6977 671.9624 743.5039 663.6913 747.7512 657.5439 750.8807 656.4262 751.6631 652.7377 756.3575 648.3787 761.9461 640.6664 771.4466 633.5131 780.5001 628.8187 786.424 628.0363 787.9888 625.6891 794.248 622.4477 803.1897 621.1065 805.0898 620.9947 805.2015 615.5179 808.4429 609.5941 811.9078 608.141 812.4667 606.5762 812.6902 600.2053 812.3549 599.5347 812.3549 598.9758 812.0196 594.8403 806.3193 591.3754 801.2895 588.2458 796.9305 586.4574 795.9245 575.7274 797.3776 567.6799 798.4953 556.0557 797.2658 546.8904 796.3716 534.9309 795.1421 524.648 794.0244 522.5243 793.3538 514.5886 788.7712 511.9061 788.2123 503.7468 788.1006 502.629 788.1006 496.5934 788.1006 486.8693 787.9888 485.8634 788.2123 482.8455 789.4418 481.3925 789.4418 478.1512 788.7712 475.1333 788.6594 470.5507 789.1065 466.8623 790.0007 465.8563 790.1124 463.8444 789.4418 462.8385 789.33 462.1679 789.8889 461.4972 791.1184 460.7149 792.0125 459.8207 792.4596 458.5912 792.2361 456.6911 791.3419 455.9087 791.2301 454.791 791.789 454.1204 792.6832 453.4497 793.6891 452.7791 794.3597 451.5496 794.5833 450.9908 794.4715 450.7672 794.248 450.5437 794.0244 450.4319 793.6891 450.5437 792.6832 450.5437 792.1243 450.2084 791.9008 449.0906 792.3479 448.1965 792.3479 446.2964 792.1243 444.508 792.3479 443.6139 792.3479 442.7197 792.0125 440.7078 790.4477 437.3547 786.6475 435.3428 785.418 431.7661 783.8532 430.9837 783.6297 429.3072 783.6297 428.413 783.4062 427.407 783.5179 426.2893 783.965 422.042 786.6475 417.9065 790.2242 415.5593 793.1303 415.4475 793.3538 418.13 794.248 419.136 795.0304 419.5831 796.0363 419.4713 797.0422 418.3536 797.6011 417.2359 797.9364 416.0064 798.3835 415.0004 799.2777 414.6651 800.1718 414.7769 801.4013 414.4416 802.4073 413.4356 804.4191 413.2121 805.4251 413.3239 806.3193 413.771 807.1017 413.9945 808.2194 413.9945 809.3371 413.771 810.343 412.9886 812.2431 412.6532 813.4726 412.8768 814.3668 413.8827 816.2669 414.4416 818.167 415.0004 818.6141 416.7888 819.0612 417.3476 819.5083 417.6829 820.0671 417.6829 820.7377 417.5712 821.1848 417.1241 821.5201 416.677 821.7437 416.2299 821.9672 415.5593 823.0849 415.6711 823.7556 416.1182 824.538 416.4535 825.6557 416.4535 825.7674 416.1182 826.6616 415.3358 826.8851 413.3239 826.3263 412.2062 826.1028 411.5355 826.3263 411.312 826.9969 411.2002 828.1146 411.0884 829.0088 409.859 832.3619 409.1883 833.1443 408.1824 833.9267 406.0587 835.1562 405.3881 835.4915 403.488 835.8268 402.9292 836.0504 402.8174 836.721 402.9292 837.5034 402.9292 838.2858 402.5938 839.0682 401.2526 839.9624 399.576 840.633 397.3406 841.5272 397.2288 841.3036 397.2288 839.5153 396.8935 838.9564 397.5641 837.3916 397.2288 836.3857 394.8816 833.815 394.3228 832.5855 394.211 831.6913 394.211 829.4559 394.7699 827.3322 394.7699 826.4381 393.8757 826.2145 394.211 825.7674 393.6521 825.2086 393.2051 824.4262 393.0933 823.7556 393.5404 823.4202 393.3168 822.8614 391.9756 821.6319 391.6403 821.2966 390.9696 820.4024 389.8519 819.1729 389.5166 818.8376 388.0636 818.0552 387.5047 817.9435 386.9459 818.2788 385.3811 815.9316 386.0517 813.6961 385.7164 812.9138 385.7164 810.4548 385.4928 809.5606 385.0458 809.3371 384.4869 809.0018 384.3751 808.4429 383.9281 807.9958 383.0339 807.884 382.0279 807.884 381.3573 807.884 380.7985 807.3252 380.3514 806.5428 379.6807 805.0898 379.4572 804.4191 379.2337 802.6308 379.0101 801.9602 378.563 801.5131 376.4394 800.6189 376.5512 801.5131 376.8865 802.2955 377.7806 803.7485 376.7747 804.3074 377.2218 807.6605 376.7747 808.5547 376.4394 807.5487 376.4394 804.0838 376.2158 802.9661 375.5452 801.066 374.7628 794.248 374.4275 793.0185 374.204 792.1243 374.5393 789.5536 374.4275 788.5476 374.0922 787.3182 373.7569 786.8711 373.3098 786.7593 372.7509 786.6475 372.4156 786.5358 372.1921 786.3122 372.0803 785.8651 371.745 785.3063 366.6035 780.8354 366.1564 780.7237 366.0447 780.9472 365.7094 780.5001 365.1505 779.4942 364.2563 778.1529 363.921 777.2587 363.6975 776.8117 363.3622 776.6999 362.2444 776.9234 361.7974 776.8117 361.5738 776.141 361.3503 775.6939 359.2266 773.5703 359.1149 773.6821 358.8913 773.7938 358.4442 773.9056 358.2207 773.9056 357.7736 773.4585 356.3206 771.3349 355.7617 770.9996 352.9674 768.3171 351.8497 768.7641 350.0614 767.5347 348.9437 767.6464 348.4966 766.3052 347.7142 765.5228 346.5965 764.7404 345.7023 763.8462 343.6904 761.2755 343.3551 760.3813 343.4669 759.7107 343.5787 759.1518 343.4669 758.8165 342.908 758.593 342.4609 758.4812 342.4609 758.0341 342.4609 757.587 342.3492 757.2517 340.3373 755.4634 339.5549 754.3457 340.002 753.4515 339.2196 752.3338 338.8843 751.7749 338.7725 751.1043 338.549 750.8807 338.1019 750.6572 337.7666 750.4337 337.9901 749.6513 337.0959 749.5395 336.09 749.2042 336.3135 748.9806 336.3135 748.8689 336.4253 748.7571 336.7606 748.5336 336.4253 747.9747 335.9782 747.6394 335.4194 747.6394 334.7487 747.8629 335.084 747.4158 335.3076 746.857 335.4194 746.4099 335.084 746.0746 335.4194 745.404 335.084 745.0686 334.5252 744.9569 333.7428 745.0686 333.8546 744.398 333.7428 743.3921 333.4075 742.3861 332.9604 741.7155 332.7369 741.1567 332.4015 739.2565 332.2898 738.8095 332.178 738.3624 332.0662 735.6799 331.9545 735.3446 331.8427 735.121 331.6191 735.0092 331.2838 735.0092 331.0603 734.7857 330.9485 734.3386 330.9485 733.8915 330.8367 733.5562 329.0484 732.3267 328.8249 731.9914 328.7131 731.4326 328.4895 730.8737 328.1542 730.3149 327.3718 729.9795 327.1483 729.756 326.9248 729.5325 326.813 729.4207 326.4777 729.5325 326.0306 729.9795 325.807 730.0913 325.2482 729.8678 324.8011 729.5325 324.2422 729.1971 323.9069 728.6383 322.5657 725.844 322.0068 725.0616 321.448 724.391 321.1127 723.7204 321.1127 723.0497 321.2244 722.0438 322.3421 718.6906 322.5657 717.6847 322.6774 717.3494 322.901 717.1259 323.0128 716.7905 322.5657 716.1199 322.3421 716.0081 321.2244 715.4493 319.2125 714.8904 318.7655 713.3256 318.7655 712.9903 317.7595 711.7608 317.536 711.6491 317.536 711.0902 317.6477 710.5314 317.8713 709.5254 318.0948 708.9666 318.3184 708.5195 318.5419 708.1842 318.6537 707.29 318.8772 706.1723 319.5479 704.9428 319.1008 704.1604 318.2066 703.6015 317.2007 703.1545 315.1888 702.5956 314.2946 701.925 313.8475 700.5837 313.0651 699.466 312.9534 699.0189 312.9534 698.4601 313.2887 697.2306 313.2887 696.7835 312.9534 695.7776 312.9534 695.3305 312.7298 694.8834 311.8356 694.3245 311.6121 693.8774 311.3886 692.8715 310.9415 692.3127 310.1591 691.8656 308.8178 690.8596 308.9296 690.6361 309.0414 690.0772 308.9296 689.5184 308.3707 688.736 308.259 688.2889 308.259 687.73 307.9237 686.9476 308.0354 686.3888 308.3707 685.8299 308.8178 685.4946 309.0414 685.0475 308.7061 684.7122 308.8178 684.1534 308.7061 683.5945 308.3707 683.1474 308.259 682.4768 304.2352 681.0238 303.0057 680.4649 300.5468 677.8942 299.429 677.2235 299.429 676.8882 299.9879 677 301.1056 677.6706 301.3292 675.547 301.2174 672.9762 300.8821 671.8585 298.6466 668.6172 297.7525 668.0583 295.2935 667.723 294.2876 667.723 293.8405 668.2818 294.3993 669.5113 293.7287 668.9525 293.0581 667.8348 292.7228 666.8288 292.611 666.3817 291.9404 665.9347 289.9285 663.0286 288.4755 662.1344 288.1402 661.7991 288.2519 661.4638 288.8108 660.1226 288.4755 659.1166 287.9166 658.5578 286.4636 657.9989 284.6752 656.8812 284.2282 656.6576 283.7811 655.987 283.334 655.8752 282.8869 655.5399 281.7692 653.8634 281.3221 653.7516 280.2044 653.4163 279.7573 653.3045 278.8631 653.081 277.8572 652.5221 275.6218 650.7338 273.9452 648.8337 274.2805 648.0513 273.4981 647.4924 272.1569 647.1571 270.7039 646.9336 270.3685 646.5982 269.9215 646.0394 269.2508 645.257 268.8037 644.8099 268.8037 644.5864 268.3567 644.251 266.7919 642.798 266.0095 642.4627 264.8917 642.4627 263.774 642.6862 262.7681 643.0216 262.321 643.4686 261.2033 643.0216 259.1914 641.7921 258.0737 641.345 258.0737 642.0156 258.409 642.3509 258.8561 642.5745 259.1914 643.0216 259.415 643.1333 259.862 643.3569 260.1974 643.6922 259.862 643.9157 259.0796 643.6922 254.2735 640.7861 253.6029 640.1155 253.044 639.892 252.0381 639.5567 251.1439 639.1096 250.4733 637.6565 249.5791 636.7624 247.0084 634.7505 245.6671 633.4092 242.8728 628.8266 241.8669 628.0442 241.8669 627.5971 242.314 627.5971 242.7611 627.5971 242.9846 627.3736 243.2081 626.9265 242.4257 626.8147 241.8669 626.3677 240.7492 625.3617 240.4139 624.8029 240.0785 623.2381 239.855 622.6792 238.2902 620.8909 238.1784 619.9967 238.9608 618.7672 237.2843 618.2084 236.6136 618.0966 236.7254 618.5437 236.949 618.7672 237.1725 618.9908 237.5078 619.2143 236.6136 618.879 235.4959 618.2084 234.9371 617.426 235.2724 616.6436 234.8253 616.42 234.6018 616.0847 234.6018 615.7494 234.9371 615.3023 235.1606 615.6376 235.4959 615.9729 235.943 616.1965 236.6136 616.3083 236.3901 615.7494 236.2783 615.4141 236.2783 615.0788 236.1666 614.6317 235.943 614.6317 235.6077 614.7435 235.2724 614.5199 234.6018 613.6257 234.3782 613.6257 234.2664 614.5199 233.2605 613.8493 231.8075 612.8433 230.9133 611.5021 230.9133 610.2726 231.1369 610.6079 231.4722 610.9432 231.8075 611.055 231.9193 610.7197 231.8075 610.0491 231.4722 609.8255 231.1369 609.7138 230.8015 609.4902 230.3545 609.2667 229.7956 609.2667 229.3485 609.4902 228.7897 609.602 228.7897 609.3784 227.4484 607.3666 227.1131 606.5842 227.0013 605.69 227.0013 604.4605 226.8895 604.0134 226.2189 603.5663 225.9954 603.0075 225.9954 602.4486 225.7718 602.2251 225.4365 602.1133 223.4246 600.6603 222.8658 600.1014 222.6422 598.6484 222.1952 597.6425 222.0834 597.0836 222.1952 596.7483 222.6422 596.0777 222.754 595.7424 222.4187 595.0717 220.5186 592.2774 219.9597 591.8304 218.3949 589.3714 222.1952 586.0183 222.754 584.7888 222.8658 583.1122 222.4187 581.6592 221.7481 580.8768 221.7481 580.5415 222.1952 580.0944 222.1952 579.4238 221.4128 577.7472 220.7421 578.7531 220.295 578.9767 219.848 578.3061 219.4009 577.3001 219.7362 576.9648 218.9538 575.8471 218.7303 574.2823 218.842 572.7175 218.7303 571.2645 218.2832 569.9232 218.2832 569.1408 219.2891 568.8055 219.5127 568.4702 219.7362 567.7996 219.7362 566.9054 219.4009 566.3465 219.0656 567.3525 218.7303 567.9113 218.3949 568.1349 217.7243 568.1349 217.6125 567.9113 217.6125 567.4642 217.389 567.0172 217.0537 566.7936 216.9419 566.5701 216.7184 566.3465 216.4948 566.0112 216.2713 565.4524 216.2713 564.67 216.0477 564.2229 215.4889 563.8876 215.3771 563.664 215.1536 563.2169 215.1536 563.1052 213.477 560.9815 212.024 557.9637 211.2416 553.4928 211.2416 552.4869 212.5828 552.0398 213.8123 553.7164 214.8183 553.7164 215.0418 552.5987 215.0418 551.5927 215.1536 551.0339 215.2653 550.8103 215.936 550.3633 216.0477 550.1397 216.1595 549.1338 216.6066 547.0101 216.7184 546.0042 216.4948 546.0042 215.7124 547.7925 215.4889 547.0101 215.6007 546.4513 215.936 545.8924 216.0477 545.11 216.0477 542.9864 216.4948 541.5333 218.0596 539.745 218.5067 537.5096 218.842 536.9507 219.2891 536.6154 219.7362 536.0565 220.4068 534.6035 221.1892 533.7094 221.4128 533.4858 221.4128 532.8152 221.0774 532.2563 220.6304 531.921 220.0715 532.0328 219.7362 532.5916 219.4009 534.0447 219.0656 534.6035 217.9479 534.8271 217.8361 533.2623 218.5067 531.1386 218.0596 528.2326 218.3949 525.3265 218.0596 523.8735 217.7243 523.2029 216.3831 521.4145 215.1536 518.5085 214.1476 516.9437 213.8123 516.0495 213.9241 515.4906 215.2653 514.2612 215.1536 513.8141 212.8064 511.2433 211.9122 510.4609 211.4651 510.6845 211.5769 511.0198 212.4711 511.914 212.8064 512.3611 212.9182 512.9199 213.0299 513.4788 213.1417 514.0376 213.477 514.4847 213.1417 514.9318 212.4711 513.367 211.1298 511.3551 209.7886 509.9021 207.3296 505.3195 207.3296 504.6488 208.7826 505.4312 210.3474 508.8961 211.1298 509.1197 211.6887 509.455 212.1358 509.3432 212.4711 509.0079 212.8064 508.4491 212.2475 507.7784 211.4651 506.2136 211.018 505.8783 210.6827 505.7666 210.2356 505.4312 209.9003 504.8724 209.7886 504.3135 209.3415 503.4194 208.4473 503.084 207.3296 502.7487 206.5472 502.3017 205.5413 502.5252 204.8706 501.7428 203.8647 499.5074 204.4235 498.9485 204.7589 498.2779 205.0942 497.4955 205.2059 496.7131 205.0942 495.2601 204.8706 494.4777 204.7589 493.807 204.2 493.5835 203.7529 494.3659 203.1941 493.1364 202.2999 492.0187 201.4057 490.3421 200.6233 489.2244 200.1762 488.1067 199.6174 487.3243 199.5056 486.6537 199.0585 485.6477 199.0585 484.9771 198.7232 483.4123 198.0526 482.1828 197.4937 480.618 197.1584 478.4944 197.0466 477.0414 196.7113 475.9237 196.5996 474.9177 195.8172 474.1353 195.4818 473.5765 195.2583 472.6823 195.2583 471.7881 194.1406 472.4587 193.6935 472.1234 193.2464 472.1234 193.3582 473.0176 193.8053 473.4647 195.0348 473.9118 195.0348 474.2471 193.3582 474.1353 192.3523 473.1294 192.2405 470.5586 190.1168 467.7644 188.9991 464.1877 188.6638 462.9582 188.4403 461.6169 188.105 460.3875 187.3226 459.4933 186.8755 459.2697 186.3166 459.158 185.5342 458.8227 185.0871 458.2638 184.8636 457.5932 184.5283 456.5872 183.8576 455.9166 183.0752 455.5813 182.2928 455.3578 181.6222 455.0224 181.1751 454.6871 180.7281 453.793 179.9457 452.8988 179.4986 452.5635 178.7162 452.0046 177.822 451.6693 176.9278 451.5575 175.8101 450.7751 175.2513 450.3281 174.2453 449.4339 173.3512 448.2044 172.3452 447.5338 171.5628 446.7514 170.1098 445.2983 169.6627 445.0748 169.3274 445.0748 168.8803 445.1866 168.4332 445.5219 167.4273 444.7395 166.6449 444.0689 164.633 442.8394 163.18 441.7217 163.4035 441.051 164.2977 440.4922 165.4154 440.2686 164.9683 439.8216 164.2977 440.0451 163.4035 440.4922 162.9564 439.8216 163.5153 438.9274 163.7388 438.145 163.2917 437.9215 162.9564 438.2568 162.2858 438.3685 162.0623 438.9274 162.2858 439.1509 162.5094 439.7098 162.5094 440.3804 162.6211 440.8275 162.2858 441.1628 161.2799 440.7157 159.8268 441.1628 157.5914 439.4862 156.9208 438.8156 155.0207 437.3626 154.5736 436.2449 154.0147 435.7978 153.1206 435.4625 152.3382 434.9036 151.5558 434.233 150.6616 433.6741 149.5439 433.6741 148.985 433.5624 148.2026 434.1212 148.0909 434.9036 148.3144 435.9096 146.3025 436.0213 145.7437 435.2389 144.4024 434.5683 143.2847 434.9036 142.167 433.7859 141.4964 432.5564 140.4904 431.1034 138.7021 429.6504 138.1432 427.862 138.7021 426.7443 139.0374 426.8561 139.9316 427.5267 140.3787 426.6326 140.0433 425.7384 133.4488 416.0143 130.431 411.8788 129.0898 409.9787 128.978 408.5256 129.2015 408.0785 129.2015 407.6315 129.0898 407.0726 128.978 406.7373 128.6427 406.5138 127.9721 407.1844 127.525 407.1844 126.6308 406.7373 126.0719 405.8431 125.1778 403.943 126.4073 403.943 127.525 404.1666 128.6427 404.1666 129.7604 403.7195 130.431 402.8253 130.431 400.1428 131.5487 397.9074 131.437 396.7897 130.431 394.5542 130.2075 393.213 130.431 390.0834 130.431 388.8539 130.0957 387.7362 129.7604 386.7303 129.2015 385.7243 128.1956 384.6066 127.6367 384.0477 127.1897 383.7124 126.7426 383.2653 126.2955 382.2594 125.8484 381.9241 124.8425 381.1417 123.9483 380.024 123.1659 378.9063 122.4953 377.6768 122.3835 377.1179 122.2717 375.8884 122.16 375.4414 121.9364 374.9943 121.154 374.2119 120.9305 373.653 121.7129 373.0942 121.0422 371.8647 118.9186 369.6293 118.5833 368.9586 117.8009 366.7232 117.4656 366.2761 116.9067 365.829 116.5714 365.6055 116.5714 365.2702 116.5714 364.5996 116.4596 364.2642 116.0125 363.7054 115.3419 362.1406 115.0066 361.5817 114.336 361.1347 112.8829 360.464 112.3241 360.1287 110.424 357.1109 109.1945 355.5461 108.1886 355.4343 108.0768 356.105 108.4121 356.6638 108.5239 357.2227 107.965 357.558 107.4062 357.3344 105.9531 356.3285 105.1707 356.105 104.7237 355.7696 103.7177 354.4284 103.3824 353.8695 103.2706 353.5342 103.3824 352.4165 103.2706 352.0812 102.7118 351.9694 102.3765 351.6341 101.8176 350.2928 101.7058 349.0634 102.1529 347.8339 103.1589 346.7162 103.8295 345.5985 104.053 344.1454 103.8295 342.5806 103.3824 341.3512 102.2647 340.1217 100.6999 339.3393 99.0233 338.8922 97.4585 338.7804 95.6702 338.1098 94.5525 336.6568 91.4229 329.2799 90.3052 327.4915 88.2933 324.5855 84.7166 315.7556 80.9164 308.9375 78.5692 305.9197 75.7749 303.4607 74.5454 302.0077 73.763 299.6605 72.31 297.0898 71.3041 293.7366 70.5217 293.9602 69.851 293.4013 68.6216 291.5012 65.492 288.7069 61.6917 283.6772 60.3505 280.9947 60.127 280.5476 60.127 279.9888 60.2387 279.5417 60.6858 278.7593 60.7976 278.3122 60.574 277.6416 59.3446 275.965 55.3208 271.0471 53.0854 269.4823 52.4147 268.9234 51.297 267.5822 49.9558 265.4585 48.5028 264.0055 46.7144 260.5406 46.1556 259.1993 46.0438 258.0816 45.932 256.0697 45.7085 255.0638 45.2614 254.3932 43.6966 252.6048 42.8024 251.1518 41.5729 247.9105 40.567 246.4574 40.1199 246.1221 39.114 245.7868 38.7787 245.5633 38.5551 245.1162 38.3316 244.4455 37.7727 243.3278 37.5492 241.8748 37.1021 241.0924 34.6431 238.1864 33.8607 236.8451 33.4136 236.398 32.6312 235.9509 30.284 234.1626 30.284 234.4979 29.9487 234.4979 29.5017 233.8273 30.0605 233.2684 31.1782 232.7096 31.9606 232.2625 32.5195 232.486 32.4077 232.1507 31.9606 231.3683 31.7371 231.2565 30.3958 230.9212 29.9487 230.6977 29.6134 230.6977 29.6134 231.1448 29.3899 231.1448 29.1663 230.8095 28.831 230.3624 28.4957 230.1388 28.1604 230.0271 27.2662 230.0271 26.9309 230.0271 26.2603 229.3564 24.0249 227.7916 23.5778 228.127 23.0189 228.127 22.4601 228.127 22.6836 228.3505 22.7954 228.6858 23.0189 228.9094 22.5718 228.574 22.013 228.2387 21.4541 228.0152 20.8953 228.3505 20.4482 228.6858 18.8834 229.1329 18.5481 229.3564 18.2128 229.58 18.101 230.0271 17.7657 230.0271 17.7657 229.58 17.4304 229.58 16.7597 229.8035 15.7538 229.58 14.8596 229.58 14.189 230.3624 13.9655 230.1388 13.7419 230.0271 13.7419 229.58 14.189 229.58 14.189 229.2447 13.9655 228.7976 14.189 228.574 14.6361 228.2387 15.0832 228.127 14.6361 227.9034 14.189 227.9034 13.6301 227.9034 13.1831 228.127 13.1831 228.4623 13.5184 228.4623 13.5184 228.9094 12.9595 229.0211 12.6242 229.4682 12.1771 230.3624 11.9536 230.1388 11.8418 230.1388 11.73 230.0271 11.5065 230.0271 11.73 229.6917 11.9536 229.3564 12.4007 229.1329 12.8477 228.9094 12.8477 228.6858 12.8477 228.4623 12.8477 228.127 12.1771 228.127 11.6183 228.2387 11.2829 228.574 11.1712 229.2447 10.9476 229.0211 10.8359 229.0211 10.7241 229.1329 10.5006 229.2447 10.5006 229.0211 10.5006 228.6858 10.5006 228.4623 10.277 228.4623 10.277 228.9094 9.8299 228.9094 9.6064 228.4623 9.3828 228.127 9.1593 228.2387 8.824 228.4623 8.3769 228.127 8.2651 228.0152 8.0416 227.5681 7.818 227.3446 7.4827 226.6739 7.371 226.7857 7.2592 226.8975 7.0356 227.121 6.8121 227.3446 6.2532 226.8975 6.0297 227.121 6.0297 227.6799 5.8062 228.127 5.4708 228.3505 4.8002 228.6858 4.5767 228.9094 4.5767 229.2447 5.5826 230.0271 5.5826 230.3624 5.2473 230.4741 5.1355 230.4741 5.0238 230.5859 4.912 230.6977 4.5767 230.3624 4.3531 231.3683 4.2414 232.0389 3.9061 232.486 2.9001 232.5978 3.0119 232.3743 3.1237 232.3743 3.2354 232.2625 2.9001 231.8154 2.6766 231.033 2.5648 230.3624 2.5648 229.0211 2.2295 228.6858 1 229.1329 1.2235 228.4623 1 228.127 1.6706 227.121 2.1177 226.6739 2.5648 226.4504 2.5648 226.2268 2.9001 226.1151 3.2354 225.668 3.5707 225.5562 3.2354 225.1091 3.3472 224.8856 3.5707 224.662 3.7943 224.4385 4.2414 224.4385 4.2414 224.662 4.1296 224.662 4.0178 224.662 3.9061 224.7738 4.3531 224.9974 4.8002 225.1091 5.0238 224.9974 5.2473 224.4385 4.912 224.4385 4.912 223.9914 4.5767 223.6561 4.6884 223.3208 5.0238 222.9855 5.5826 222.8737 5.5826 222.5384 5.3591 221.9795 5.8062 219.5206 6.0297 219.6323 6.365 219.7441 6.5886 219.8559 6.4768 219.7441 6.5886 219.1853 6.2532 219.297 6.1415 219.4088 5.8062 219.1853 6.8121 218.1793 7.818 216.391 8.6004 214.3791 9.0475 211.8084 10.0535 210.3553 10.3888 208.7905 10.7241 207.7846 12.0653 205.4374 11.73 202.9784 11.6183 200.4077 10.8359 197.837 11.73 194.4838 12.4007 192.6955 13.1831 191.2425 13.1831 190.9072 12.8477 190.9072 13.6301 189.5659 13.7419 188.8953 13.5184 188.2246 13.5184 187.8893 14.0772 186.2128 13.9655 185.5421 13.1831 185.2068 13.1831 184.8715 13.8537 183.642 14.6361 181.4066 14.9714 179.0594 14.4125 177.7182 14.4125 176.9358 14.9714 175.9298 15.4185 174.7003 16.4244 169.7824 16.648 169 17.2068 167.7705 17.095 167.4352 17.2068 166.6528 17.6539 166.2057 18.7716 165.5351 18.4363 164.6409 18.3245 163.4114 18.4363 162.629 19.1069 162.9644 19.1069 162.7408 19.1069 162.629 19.2187 162.5173 19.4422 162.5173 18.9952 161.7349 18.8834 160.8407 19.1069 159.9465 24.4719 160.9525 30.1723 161.9584 37.6609 163.1879 44.3672 164.4174 51.5206 165.6469 57.2209 166.6528 60.0152 167.0999 65.6037 168.1058 70.6334 168.8882 71.8629 168.8882 73.0924 168.3294 78.3457 164.0821 83.4871 159.8348 89.0757 155.1404 92.7641 152.0108 95.8937 146.7575 98.9116 141.7278 101.147 137.9276 103.8295 133.345 104.9472 132.1155 106.2884 131.4449 110.424 130.5507 114.7831 129.6565 121.7129 128.2035 128.5309 126.8623 135.0136 125.521 140.714 124.2915 141.7199 123.3974 143.8436 118.1441 145.5201 114.2321 147.1967 109.9848 148.6497 106.5199 149.3204 105.514 150.4381 104.6198 155.5795 101.602 161.5034 98.3606 164.9683 96.3487 165.3036 96.1252 165.4154 96.1252 165.3036 96.1252 162.9564 93.3309 157.7032 87.0717 152.3382 80.8125 147.0849 74.5534 141.8317 68.2942 141.6081 68.1824 141.4964 67.9589 141.3846 67.7353 141.1611 67.6235 134.9019 60.8055 128.7545 54.0992 128.6427 53.9875 122.3835 47.1694 116.1243 40.3514 117.9127 39.7925 128.0838 36.6629 139.9316 33.0862 151.8911 29.5096 154.7971 28.7272 163.8506 25.9329 165.6389 25.4858 174.6924 22.8033 185.5342 19.6737 196.376 16.5441 207.2178 13.3028 212.6946 11.738 214.3712 11.0673 220.1833 5.5905 221.0774 4.8081 221.5245 4.6964 221.7481 4.6964 221.8598 4.5846 221.9716 4.5846 222.0834 4.4728 231.6957 6.1494 241.1963 7.826 250.6968 9.3908 260.3091 11.0673 264.1094 11.738 280.6515 14.9793 283.2222 15.9853 285.9047 17.5501 290.8227 20.4561 295.07 23.0268 299.3173 25.5976 303.5646 28.0565 307.8119 30.6273 312.0592 33.198 316.1947 35.657 320.442 38.2277 324.6893 40.7985 328.9366 43.2574 333.1839 45.8282 337.4312 48.2871 341.6785 50.8579 345.8141 53.4286 350.0614 55.8876 354.3087 58.4583 358.556 60.9173 362.8033 63.488 366.0447 66.2823 370.1802 69.859 374.204 73.3239 378.2277 76.9006 382.3633 80.4772 386.9459 84.3892 391.5285 88.413 396.1111 92.4367 397.0053 93.2191 400.582 96.3487 400.6937 96.3487 405.7234 100.596 409.9707 104.0609 414.218 107.5259 418.4653 110.9908 422.7127 114.4557 428.3012 118.9265 433.778 123.3974 439.3666 127.98 444.8433 132.4508 447.1905 134.3509 450.4319 136.9217 455.9087 141.3925 461.3855 145.8634 466.974 150.3342 471.5567 154.1344 476.1393 157.8229 480.7219 161.5113 485.3045 165.3116 489.1047 168.2176 489.3283 168.3294 489.6636 168.5529 489.9989 168.6647 490.3342 168.7765 494.6933 169.1118 498.6053 169.4471 502.4055 169.8942 506.2057 170.2295 510.1177 170.5648 515.0356 171.0119 519.9536 171.459 524.8715 171.9061 529.9012 172.3531 534.8191 172.8002 539.7371 173.2473 544.655 173.6944 549.5729 174.1415 553.2614 174.4768 556.9498 174.8121 560.6383 175.1474 564.3267 175.4827 569.3564 175.9298 571.4801 175.4827 572.8213 175.2592 573.6037 175.0356 575.7274 174.5886 577.851 174.1415 583.2161 174.8121 588.5811 175.4827 594.0579 176.1534 599.4229 176.824 604.229 177.3828 609.0352 178.0535 613.8414 178.7241 618.6475 179.3947 621.33 179.73 621.8889 180.736 624.2361 184.648 626.9186 192.0249 627.1421 193.4779 627.3657 196.3839 627.8128 198.0605 628.4834 199.7371 629.154 200.9666 630.2717 201.8607 631.2777 202.6431 632.2836 203.6491 632.6189 205.1021 635.1897 205.1021 643.796 204.9903 652.4024 204.8785 660.897 204.7668 669.5034 204.655 670.6211 205.8845 671.2917 206.3316 672.5212 206.8904 672.633 207.3375 673.0801 209.6847 673.0801 211.5848 672.7448 212.8143 671.6271 212.3672 671.4035 212.7025 671.2917 212.9261 671.2917 213.1496 672.1859 213.1496 672.9683 212.9261 673.6389 212.479 673.8625 211.5848 674.4213 212.0319 674.4213 212.479 673.8625 213.4849 673.6389 214.938 673.5272 215.6086 673.8625 216.8381 674.4213 217.9558 678.4451 222.4266 678.6686 223.0972 677.998 224.1032 677.6627 225.1091 677.6627 226.2268 677.8862 227.3446 678.3333 228.2387 679.8981 230.3624 680.2334 230.9212 680.1217 231.5919 680.1217 231.8154 680.9041 232.2625 682.4689 232.9331 683.0277 233.0449 684.7043 232.9331 685.1514 233.1567 686.0455 233.6037 686.6044 233.7155 686.8279 233.9391 686.8279 234.2744 686.7162 234.6097 686.4926 234.8332 686.1573 235.0568 685.822 235.0568 685.4867 234.8332 684.7043 235.2803 684.4807 235.6156 684.4807 236.398 684.9278 237.1804 685.9338 238.1864 687.0515 238.9688 687.9457 239.4158 687.9457 239.6394 689.0634 241.316 690.9635 243.2161 691.187 243.7749 690.7399 244.8926 690.7399 245.5633 690.7399 246.2339 690.9635 246.4574 690.8517 246.9045 690.4046 247.6869 689.734 248.5811 689.0634 249.1399 689.5105 248.4693 689.5105 248.0222 689.3987 246.681 689.5105 245.8986 689.8458 245.4515 689.9575 245.0044 689.734 244.222 689.0634 245.0044 688.281 247.0163 687.4986 247.5751 688.3927 245.2279 688.5045 244.5573 688.1692 243.5514 687.8339 243.6631 687.3868 244.4455 686.4926 248.2458 686.4926 249.1399 686.3809 249.2517 686.1573 249.587 686.2691 249.9223 686.8279 249.8106 687.0515 249.587 687.3868 248.6928 687.7221 248.3575 687.7221 250.8165 687.9457 251.3754 688.3927 251.2636 688.8398 250.8165 689.0634 250.2576 689.5105 250.8165 689.5105 251.5989 689.3987 252.4931 690.0693 252.7166 690.5164 252.3813 690.8517 251.9342 691.0752 251.3754 691.0752 252.2695 690.9635 252.6048 690.7399 252.8284 690.9635 253.3872 690.9635 253.7226 690.6282 253.8343 690.0693 253.9461 690.6282 255.0638 690.7399 255.3991 689.6222 254.8403 689.0634 254.8403 688.7281 255.3991 689.734 255.8462 690.6282 255.8462 691.2988 255.2873 691.7459 254.2814 692.0812 254.2814 692.4165 255.0638 691.8576 255.7344 691.6341 256.7404 691.8576 257.6345 692.7518 257.6345 693.0871 257.2992 692.8636 256.8521 692.5283 256.5168 692.4165 256.1815 692.7518 255.6227 693.3107 255.3991 694.4284 255.0638 695.3226 254.952 695.9932 255.2873 697.6697 256.9639 699.4581 257.8581 699.9052 258.5287 699.011 259.1993 699.6816 259.4229 700.3523 259.4229 700.5758 258.9758 700.3523 258.4169 701.1347 258.7523 702.0288 258.9758 703.8172 259.1993 704.2642 258.9758 705.0466 258.5287 705.4937 258.4169 705.9408 258.4169 706.9468 258.7523 707.5056 258.7523 708.3998 259.0876 709.1822 259.7582 710.2999 261.323 710.6352 261.6583 710.9705 261.8818 711.3058 262.1054 711.6411 262.5525 711.7529 262.8878 711.8647 263.8937 711.9765 264.3408 711.3058 264.3408 710.9705 264.1173 710.8587 263.5584 710.9705 262.8878 710.6352 262.8878 709.6293 264.1173 706.9468 263.782 706.0526 264.7879 705.6055 264.7879 705.2702 263.782 704.4878 263.782 702.6994 264.7879 703.0348 265.0114 704.1525 265.235 704.7113 265.5703 705.0466 265.7938 705.382 266.1292 705.7173 266.3527 706.2761 266.688 706.6114 267.0233 706.835 267.2469 707.1703 267.1351 707.9527 266.3527 707.9527 266.2409 708.1762 266.0174 708.288 265.6821 708.5116 265.4585 708.7351 265.6821 709.1822 266.0174 709.6293 266.2409 709.2939 267.0233 708.8469 267.3586 708.288 267.5822 707.9527 268.141 707.8409 268.6999 707.7292 270.0411 707.6174 270.7118 708.1762 270.6 708.7351 270.2647 709.2939 269.8176 709.741 269.3705 710.2999 269.2587 710.9705 269.3705 711.9765 269.9294 711.5294 271.0471 711.7529 272.053 712.0882 273.1707 712.3118 274.2884 712.2 276.5239 712.4235 277.5298 713.2059 277.418 713.2059 278.424 713.5413 278.7593 714.1001 278.6475 714.5472 278.2004 714.3237 277.3063 714.7707 276.8592 715.5531 276.7474 716.2238 277.418 716.5591 276.971 716.7826 277.6416 716.6708 278.2004 716.3355 278.7593 716.2238 279.4299 716.0002 279.877 715.6649 280.1006 715.1061 280.1006 714.5472 279.9888 714.9943 280.6594 716.112 280.8829 716.5591 281.4418 717.0062 281.2183 717.3415 280.7712 717.9003 279.6535 717.9003 279.877 718.0121 279.877 718.2356 279.9888 717.6768 280.9947 718.1239 281.1065 719.3534 280.7712 720.1358 280.8829 721.3652 281.4418 722.1476 281.4418 720.9182 280.1006 720.4711 279.2064 721.1417 278.5358 721.8123 278.424 722.2594 278.7593 722.7065 279.0946 723.1536 279.3182 723.4889 279.0946 724.4948 278.2004 724.2713 278.9828 723.8242 280.3241 723.8242 281.1065 724.1595 282.336 724.3831 283.0066 724.6066 283.3419 725.5008 283.789 726.3949 284.7949 729.1892 289.154 730.6422 290.9424 731.0893 291.2777 732.4306 291.8365 732.8777 292.2836 733.5483 292.9542 734.1072 293.4013 737.0132 294.7426 738.9133 296.0838 740.031 296.1956 741.1487 296.1956 742.2664 296.3074 743.8312 297.2015 745.1725 298.5428 747.6315 301.8959 748.4139 303.349 751.9905 305.9197 752.7729 306.8139 752.8847 308.1551 750.7611 306.255 749.5316 305.4726 746.9608 305.1373 746.2902 304.9138 745.8431 304.3549 745.396 302.343 744.949 302.6783 744.5019 303.5725 744.2783 304.4667 744.2783 305.1373 744.2783 305.8079 744.5019 306.3668 744.8372 306.9256 745.2843 307.3727 745.396 307.708 745.1725 310.9494 745.2843 311.8436 746.6255 315.9791 747.1844 316.8733 747.9668 317.6557 748.7492 318.2145 752.8847 319.6675 754.3377 320.897 755.2319 322.6854 755.5672 325.1443 755.5672 331.0682 755.3437 332.2977 754.8966 333.4154 753.8906 333.9743 753.8906 333.1919 753.5553 332.8565 752.9965 333.0801 752.5494 333.6389 752.8847 334.9802 752.7729 337.1039 752.3259 339.2275 751.8788 340.6805 751.2081 340.1217 750.9846 339.3393 750.9846 338.4451 750.8728 337.6627 750.5375 336.9921 750.0904 336.6568 749.6433 336.3215 749.308 335.8744 749.0845 335.6508 748.8609 335.6508 748.6374 335.5391 748.5256 333.9743 748.4139 333.6389 748.3021 333.3036 747.855 332.7448 747.2961 332.1859 746.6255 331.7388 746.1784 331.9624 744.8372 334.4213 744.5019 334.7567 743.943 335.092 744.1666 335.7626 744.7254 336.545 744.949 336.7685 745.0607 337.2156 745.5078 337.8862 745.6196 338.4451 745.5078 338.5569 745.1725 338.6686 744.8372 338.8922 744.6136 339.3393 744.7254 340.1217 744.949 340.9041 744.949 341.6865 744.6136 342.4689 745.396 342.8042 746.1784 342.3571 746.5138 341.5747 746.2902 340.6805 746.7373 340.7923 747.0726 341.0158 747.6315 341.7982 747.855 341.91 748.0785 341.7982 748.1903 341.91 748.3021 342.2453 748.3021 342.5806 748.3021 342.8042 748.5256 342.8042 748.7492 342.8042 749.9787 343.1395 750.5375 343.9219 750.7611 344.8161 751.3199 345.822 751.3199 346.1573 750.314 347.1633 750.8728 349.6222 751.9905 352.4165 752.8847 354.2048 755.7908 357.7815 757.0202 359.7934 757.5791 362.2524 757.2438 362.2524 756.3496 359.7934 756.0143 359.3463 755.4554 359.2345 754.7848 358.8992 754.1142 358.4521 753.5553 357.558 752.7729 356.9991 752.1023 356.8873 751.8788 357.8933 752.3259 358.6757 753.5553 359.5699 753.8906 360.1287 754.1142 359.5699 754.226 359.3463 754.5613 359.3463 756.3496 363.1465 761.9382 370.2999 763.1677 371.4176 763.0559 370.747 762.7206 369.8528 762.6088 369.1822 762.9441 368.9586 763.503 368.6233 763.7265 368.7351 763.9501 369.9646 764.1736 370.2999 764.3971 370.4117 764.5089 370.5234 764.8442 371.3058 765.7384 371.7529 767.415 372.2 767.862 372.7589 768.7562 375.1061 768.4209 375.4414 768.9798 376.3355 769.6504 377.6768 770.2092 379.2416 770.4328 380.4711 770.4328 381.1417 770.0975 382.2594 770.0975 382.93 770.2092 383.7124 770.4328 384.1595 770.6563 384.4948 770.8799 385.389 771.5505 386.7303 771.774 387.5127 771.4387 389.7481 771.774 391.8717 772.2211 393.1012 772.78 393.7718 773.1153 392.7659 774.3448 393.7718 775.686 395.4484 776.2449 396.3426 777.0273 397.125 778.0332 400.5899 779.1509 401.3723 780.1569 402.2664 780.604 404.3901 780.7157 407.6315 780.8275 408.1903 781.2746 409.1963 781.8334 410.0904 782.2805 410.5375 783.0629 410.5375 784.0689 409.5316ZM368.1683 824.6497L368.1683 825.3204 368.0565 826.2145 367.7212 827.3322 367.833 828.2264 368.2801 829.6794 367.833 830.6854 367.833 830.7971 366.7153 830.6854 365.374 829.1206 364.2563 828.6735 363.2504 828.6735 362.6915 828.1146 364.1446 827.5558 364.927 826.9969 364.5916 825.8792 363.3622 825.2086 362.1327 825.4321 360.6796 825.5439 359.6737 825.7674 358.7795 826.3263 357.9971 826.7734 357.103 826.4381 355.9853 825.4321 355.2029 824.6497 354.0851 824.4262 352.8557 823.532 351.6262 822.5261 351.0673 821.5201 350.732 819.9553 349.9496 819.3965 349.0554 819.3965 348.4966 819.2847 348.6084 818.9494 348.6084 817.8317 347.826 816.9375 347.3789 815.9316 347.4906 815.0374 348.1613 815.2609 348.4966 815.5963 349.0554 816.0433 350.9556 816.9375 351.9615 818.167 352.5204 818.8376 352.6321 820.0671 352.6321 820.626 353.5263 821.6319 354.3087 822.3025 354.644 822.5261 356.4323 822.3025 356.9912 823.3085 357.8854 823.3085 358.8913 822.9732 359.7855 822.9732 360.3443 823.532 360.3443 824.0909 360.9032 824.0909 362.3562 823.532 361.015 823.1967 360.2326 822.079 360.9032 821.1848 361.2385 819.7318 361.5738 819.2847 362.2444 819.1729 362.468 819.2847 362.9151 819.5083 364.2563 820.2906 364.2563 821.073 364.927 822.1908 364.8152 822.7496 366.0447 822.8614 366.38 823.8673 368.1683 824.6497ZM355.3146 820.2906L354.644 819.7318 353.8616 818.8376 352.6321 817.2728 351.6262 815.8198 351.2909 815.2609 351.8497 814.8139 352.9674 814.7021 353.8616 814.4785 354.4205 813.9197 354.8675 813.0255 355.4264 813.0255 355.5382 813.1373 355.7617 812.1314 355.4264 810.9019 354.7558 810.5666 354.0851 810.2312 353.5263 810.2312 352.4086 810.0077 351.8497 809.8959 351.6262 809.6724 352.0733 809.3371 352.5204 809.1135 352.6321 809.5606 354.1969 809.6724 355.4264 810.2312 356.2088 811.1254 356.3206 811.349 356.5441 812.6902 356.5441 813.6961 356.3206 814.8139 356.5441 815.708 358.1089 816.0433 358.556 817.1611 356.5441 817.2728 355.9853 817.9435 356.2088 818.8376 357.4383 819.2847 358.1089 819.62 359.0031 820.0671 359.3384 821.2966 359.3384 821.8554 357.8854 820.9613 356.097 820.5142 355.3146 820.2906ZM724.1595 269.5941L725.0537 270.0411 727.6244 270.7118 730.0834 271.4942 729.1892 271.8295 728.5186 271.6059 727.7362 271.2706 726.9538 271.0471 726.1714 271.1589 725.389 271.4942 724.7184 271.9413 724.1595 272.5001 723.7124 272.1648 723.4889 272.1648 723.1536 271.9413 722.8183 271.8295 722.8183 271.4942 723.4889 271.1589 723.6007 270.9353 723.3771 270.6 723.1536 270.3765 723.0418 270.1529 722.4829 269.9294 721.9241 270.0411 721.477 270.1529 721.0299 270.2647 720.3593 270.6 719.8004 271.1589 719.2416 272.053 718.9063 272.9472 718.7945 271.4942 719.6887 270.1529 721.0299 269.147 722.4829 268.8117 723.0418 268.9234 723.4889 269.147 724.1595 269.5941ZM119.3657 373.653L119.8128 374.1001 120.0363 374.3237 119.9245 374.3237 119.701 374.2119 119.3657 374.2119 119.3657 374.4354 119.5892 374.7707 119.1421 374.659 118.248 374.1001 117.9127 373.5413 118.0244 373.0942 117.5773 373.0942 117.0185 373.3177 116.6832 372.8706 116.4596 372.0882 116.0125 372.0882 115.4537 372.4235 115.3419 372.0882 115.6772 371.0823 116.1243 370.5234 116.7949 370.5234 117.4656 370.6352 118.0244 370.9705 118.4715 372.0882 118.8068 371.9765 118.9186 371.6411 119.0304 371.8647 119.3657 373.653ZM115.2301 373.7648L116.0125 373.653 116.1243 373.8766 115.3419 374.4354 114.8948 374.659 114.4477 375.3296 113.8889 376.2238 113.2183 376.7826 112.2123 376.112 111.3182 375.1061 110.424 374.4354 108.4121 372.3118 108.3003 372.2 108.1886 371.8647 108.1886 371.6411 108.3003 371.5294 108.3003 371.3058 107.7415 370.747 107.1826 369.9646 107.2944 369.5175 107.7415 369.6293 108.1886 370.0763 109.0827 371.1941 109.5298 371.5294 110.424 371.9765 112.1006 372.7589 112.8829 372.9824 113.5536 372.9824 114.0007 373.3177 114.2242 373.653 113.2183 373.653 112.9947 374.4354 113.4418 374.9943 114.0007 374.8825 114.5595 374.2119 115.2301 373.7648ZM110.7593 367.6174L110.3122 367.3938 109.6416 366.835 109.7534 366.0526 110.424 365.6055 111.0946 365.7173 111.5417 366.2761 111.5417 366.9468 111.0946 367.3938 110.7593 367.6174ZM107.965 369.5175L107.4062 369.0704 107.1826 369.0704 106.9591 368.9586 106.7355 368.6233 106.7355 368.0645 106.2884 367.9527 105.6178 367.8409 105.5061 367.6174 105.7296 367.7292 105.6178 367.3938 105.1707 366.835 104.5001 366.3879 103.6059 366.3879 103.2706 366.7232 103.0471 366.835 102.6 366.9468 102.7118 366.4997 103.1589 365.7173 103.9413 365.6055 104.8354 365.829 107.1826 367.5056 107.4062 367.8409 107.7415 368.5116 108.4121 368.9586 109.1945 369.1822 110.3122 369.8528 111.9888 371.3058 112.4359 371.7529 112.3241 371.9765 112.1006 372.2 112.2123 372.4235 111.9888 372.2 111.2064 371.6411 110.5358 371.3058 110.0887 371.0823 109.8651 370.747 109.6416 370.1881 109.1945 369.9646 108.8592 370.0763 108.4121 369.9646 107.965 369.5175ZM113.2183 366.7232L113.2183 365.1584 113.1065 364.8231 113.1065 364.2642 113.4418 363.8172 113.8889 363.7054 114.336 363.8172 114.5595 364.376 114.5595 364.8231 114.4477 365.2702 114.2242 365.2702 113.8889 365.0466 113.8889 365.1584 114.0007 365.4937 114.0007 365.7173 113.8889 365.7173 114.2242 366.3879 114.5595 367.8409 114.336 368.288 113.7771 367.5056 113.4418 367.2821 113.2183 366.7232ZM102.7118 365.4937L102.7118 365.829 102.3765 366.3879 102.0411 366.7232 101.7058 366.4997 101.0352 366.0526 97.235 364.0407 96.1173 363.8172 95.782 364.5996 95.3349 364.376 94.4407 363.4818 93.7701 362.6994 93.5465 361.5817 93.8818 360.6876 95.1113 359.4581 95.6702 358.7875 96.0055 358.5639 96.1173 358.8992 95.782 359.4581 94.9996 360.6876 95.1113 361.1347 95.4466 361.5817 95.782 361.9171 96.0055 361.9171 96.229 362.0288 96.5644 362.3641 96.8997 362.5877 97.3468 362.6994 98.5762 364.0407 99.1351 364.4878 99.8057 364.4878 100.2528 364.376 100.3646 364.5996 100.3646 364.9349 100.5881 365.382 101.0352 365.6055 101.4823 365.4937 101.3705 365.382 101.3705 365.1584 101.5941 364.9349 102.0411 365.0466 102.7118 365.4937ZM96.0055 356.9991L96.0055 356.552 95.8937 355.4343 96.0055 353.1989 96.7879 351.4106 97.9056 350.1811 98.2409 350.0693 97.6821 350.7399 97.1232 351.5223 96.6761 352.4165 96.5644 353.5342 97.0114 354.4284 97.9056 355.3226 98.2409 355.4343 98.688 355.5461 98.5762 355.8814 98.2409 356.552 98.0174 357.3344 98.1292 357.558 98.1292 357.8933 98.5762 358.2286 99.1351 358.0051 99.2469 358.1168 99.0233 358.5639 98.5762 358.8992 97.9056 358.7875 96.8997 358.0051 96.4526 357.558 96.0055 356.9991Z" />
</svg>