<?xml version="1.0" encoding="utf-8"?>
<svg xmlns="http://www.w3.org/2000/svg" viewBox="0 0 1021 861" style="stroke-width:0.25px;stroke-linejoin:round;stroke:#444;fill:#ddd" fill-rule="evenodd">
  <path class="SD" d="M64.5978 719.4285L66.945 710.7103 67.2803 710.1515 68.2862 709.0338 68.398 708.3631 68.5098 707.1337 68.7333 705.9042 69.0686 704.7865 70.0746 702.6628 70.2981 701.5451 70.1864 699.7568 70.1864 698.9744 68.6216 694.3917 67.8392 690.0327 66.945 689.2503 65.492 689.2503 59.7916 689.8091 59.2328 689.5856 59.121 687.6855 59.0092 687.1266 57.4444 685.6736 52.5265 683.997 50.5146 682.9911 48.2792 680.8674 46.4909 678.2967 45.2614 675.3906 44.9261 672.3728 48.391 653.3717 49.3969 650.2421 49.6205 649.1244 49.5087 648.2303 49.1734 647.8949 48.7263 648.7891 47.9439 648.2303 45.4849 648.6773 41.5729 649.9068 40.9023 650.4657 40.567 650.6892 40.2317 650.801 41.7965 643.9829 41.7965 643.2006 41.7965 642.5299 41.5729 641.7475 37.2139 627.9997 35.202 624.7583 35.0902 623.9759 36.4315 621.964 39.4493 614.8107 38.6669 614.0283 32.4077 611.6811 24.919 606.6514 23.1307 609.2221 21.2306 611.1222 18.8834 612.4635 15.9773 613.2459 13.6301 613.5812 11.0594 613.5812 8.6004 613.1341 6.4768 612.0164 5.2473 610.7869 2.9001 606.3161 1.2235 604.1924 1 603.5218 1.1118 603.1865 2.1177 601.1746 3.5707 596.592 8.6004 587.0914 10.277 584.6325 12.4007 582.6206 13.4066 582.0617 20.0011 579.3792 20.8953 578.7086 26.4838 572.7847 28.7193 569.8787 29.1663 567.3079 28.4957 565.9667 26.2603 563.2842 25.4779 561.8311 25.2543 560.6017 25.2543 557.025 24.3602 554.6778 20.4482 550.9893 19.4422 548.6421 19.4422 547.1891 19.554 546.2949 19.3305 545.289 18.3245 544.0595 16.9833 542.7183 16.9833 542.1594 18.4363 539.7004 23.466 533.4413 24.0249 532.6589 25.4779 531.2058 27.2662 529.9763 36.7668 525.3937 37.9963 524.6113 40.2317 522.4877 41.5729 521.7053 43.2495 521.37 44.5908 520.8111 45.4849 519.8052 45.5967 517.9051 45.1496 516.005 44.7025 514.7755 43.5848 514.1048 40.1199 513.4342 39.114 512.8754 38.4433 511.9812 37.8845 510.6399 37.6609 509.8575 37.7727 509.4105 38.3316 508.2927 38.5551 508.0692 39.3375 507.7339 39.6728 507.3986 39.7846 506.9515 39.5611 506.5044 39.2257 506.2809 39.0022 505.8338 38.2198 499.1275 37.7727 498.2333 35.8726 496.8921 34.4196 494.5449 35.6491 492.3095 38.108 490.5211 40.6788 489.1799 52.7501 485.9385 53.4207 485.4914 53.756 484.5972 53.6442 484.0384 52.6383 482.0265 52.303 480.9088 51.8559 477.5557 51.8559 475.8791 52.303 474.9849 54.5384 473.4201 55.7679 472.3024 56.1032 471.2965 56.1032 470.067 56.4385 468.614 57.2209 467.2727 62.5859 461.5724 63.8154 460.5664 65.1567 459.784 67.2803 459.0017 67.7274 458.331 70.4099 453.4131 70.857 451.9601 71.6394 444.6949 71.5276 442.5713 70.9688 440.6712 69.6275 438.8828 68.398 437.4298 67.3921 435.865 66.945 433.9649 67.3921 432.0648 68.5098 430.6118 73.2042 427.7057 77.1162 422.8996 78.681 421.7818 80.2458 421.6701 83.04 421.223 92.4288 423.2349 96.8997 422.7878 104.8354 419.8817 108.8592 418.9876 115.789 418.9876 123.1659 420.1053 130.2075 422.5642 131.7723 422.676 132.5547 420.7759 132.5547 420.6641 132.5547 417.0875 132.5547 402.4454 132.5547 387.8034 132.5547 373.1614 132.4429 358.5194 132.4429 343.8773 132.4429 329.1235 132.4429 314.3697 132.4429 299.7277 132.4429 284.9739 132.4429 270.1084 132.4429 255.3546 132.4429 240.6008 132.4429 225.7352 132.3311 210.8696 132.3311 196.0041 132.3311 181.1385 132.3311 173.091 132.3311 165.0435 132.3311 156.9959 132.3311 148.9484 142.0552 148.9484 147.3085 148.9484 154.1265 148.9484 162.174 148.9484 169.7745 149.0602 177.1514 149.0602 185.9813 149.0602 192.0169 149.0602 192.1287 148.9484 192.3523 148.9484 192.464 148.9484 192.5758 148.9484 192.6876 148.8366 192.6876 148.7249 192.7993 148.6131 192.7993 148.166 192.7993 141.0127 192.7993 134.8652 192.7993 128.7178 192.7993 122.5704 192.7993 116.423 192.7993 108.3755 192.7993 100.3279 192.7993 92.2804 192.7993 84.2329 192.7993 76.0736 192.7993 68.0261 192.7993 59.9785 192.7993 51.8193 192.7993 43.7717 192.7993 35.6124 192.7993 27.4531 192.7993 19.4056 198.7232 19.4056 204.6471 19.4056 210.571 19.4056 216.3831 19.4056 222.3069 19.4056 228.2308 19.4056 234.0429 19.4056 239.9668 19.4056 245.8906 19.4056 251.7028 19.4056 257.6266 19.4056 263.5505 19.4056 269.3626 19.4056 275.2865 19.4056 281.2103 19.4056 287.0224 19.4056 292.9463 19.4056 298.8702 19.4056 304.6823 19.4056 310.6062 19.4056 316.53 19.4056 322.3421 19.4056 328.266 19.4056 334.1899 19.4056 340.002 19.4056 345.9259 19.4056 351.8497 19.4056 357.7736 19.4056 363.5857 19.4056 369.5096 19.4056 375.4334 19.4056 381.2455 19.4056 387.1694 19.4056 393.0933 19.4056 398.9054 19.4056 404.8293 19.4056 410.7531 19.4056 416.5652 19.4056 422.4891 19.4056 428.413 19.4056 434.2251 19.4056 440.149 19.4056 446.0728 19.4056 451.9967 19.4056 457.8088 19.4056 463.7327 19.4056 469.6565 19.4056 475.4686 19.4056 481.3925 19.4056 487.3164 19.4056 493.1285 19.4056 499.0524 19.4056 504.9762 19.4056 510.7883 19.4056 516.7122 19.4056 522.6361 19.4056 528.4482 19.4056 534.3721 19.4056 540.2959 19.4056 546.108 19.4056 552.0319 19.4056 557.9558 19.4056 563.8796 19.4056 569.6917 19.4056 572.0389 19.4056 572.8213 18.9585 575.8392 12.8111 576.0627 12.364 578.7452 6.7755 580.31 5.0989 581.4277 4.4283 582.6572 4.2047 583.7749 4.4283 584.8926 4.9871 586.2339 6.3284 586.7927 7.7814 586.681 9.3462 585.2279 13.5935 583.3278 19.4056 586.9045 19.4056 588.5811 19.4056 594.7285 19.4056 600.9877 19.4056 607.1351 19.4056 613.3943 19.4056 619.5417 19.4056 625.6891 19.4056 631.9483 19.4056 638.0957 19.4056 644.3549 19.4056 649.2728 19.4056 650.5023 19.4056 656.6497 19.4056 662.9089 19.4056 669.0563 19.4056 675.3155 19.4056 681.4629 19.4056 687.6103 19.4056 687.7221 19.4056 688.9516 19.4056 696.3285 25.4413 704.5996 32.0358 711.7529 37.9596 711.9765 38.0714 730.4187 35.3889 738.4662 34.2712 743.6077 19.4056 743.943 19.4056 758.0262 19.4056 772.1094 19.4056 786.1925 19.4056 800.2757 19.4056 814.3589 19.4056 828.442 19.4056 842.5252 19.4056 856.6084 19.4056 870.6915 19.4056 884.7747 19.4056 898.8579 19.4056 912.941 19.4056 912.8293 20.2998 912.6057 20.6351 912.3822 20.7469 911.3762 20.8586 910.3703 21.3057 911.8233 22.4234 912.3822 23.2058 912.3822 31.1416 913.7234 40.0833 913.2763 41.8716 914.0587 42.4305 914.2823 43.2129 914.2823 43.9953 914.7294 44.7777 915.4 45.4483 915.8471 46.0072 919.0884 53.8311 926.9124 66.0142 932.0539 71.0439 938.5366 79.315 938.9837 80.3209 938.8719 81.6622 938.4249 82.7799 937.6425 83.227 936.5248 82.7799 935.2953 83.674 934.1776 82.7799 932.501 79.8738 932.0539 79.315 931.6068 78.5326 931.495 77.7502 931.9421 77.5266 932.7245 77.7502 933.0598 78.1972 933.3952 78.8679 933.7305 79.4267 935.1835 80.5444 935.9659 80.8798 936.5248 80.5444 936.3012 80.0974 934.8482 78.309 933.954 75.8501 933.2834 74.9559 932.2774 75.1794 930.6009 73.9499 930.1538 74.6206 929.5949 74.5088 929.2596 73.8382 929.0361 73.0558 929.1479 72.2734 929.5949 71.491 929.7067 70.7086 929.0361 69.9262 927.3595 69.5909 926.3536 70.5968 926.0183 72.3851 926.13 73.9499 926.4653 74.2853 927.136 74.397 927.3595 74.7323 927.136 75.5147 926.9124 76.0736 927.136 77.7502 927.136 78.5326 926.9124 79.2032 926.2418 79.8738 925.6829 80.0974 925.2359 80.4327 925.2359 81.4386 925.5712 81.9975 927.3595 84.1211 928.9243 87.9213 929.7067 91.9451 930.2656 100.5515 931.1597 104.5752 933.8422 112.2875 933.954 116.423 933.8422 117.4289 933.5069 118.5466 932.8363 119.1055 931.048 118.882 930.8244 119.6644 931.048 121.5645 930.6009 126.1471 931.048 128.8296 931.048 129.7238 932.501 133.524 932.9481 135.7594 933.2834 137.8831 933.6187 141.0127 932.7245 143.4716 932.7245 143.9187 932.501 144.5893 931.7186 145.4835 931.495 146.1541 931.3833 147.8307 931.8304 150.0661 935.7424 160.2373 936.0777 162.3609 936.0777 166.6083 935.9659 167.726 935.6306 168.3966 934.6246 169.8496 934.4011 170.8556 934.8482 174.7675 934.7364 175.997 934.8482 176.4441 935.0717 177.1147 936.0777 178.7913 937.3072 182.368 939.6543 196.0041 940.2132 202.7103 940.4367 203.381 940.8838 203.8281 941.4427 204.1634 941.8898 204.6105 941.8898 205.0575 941.5545 205.9517 941.5545 206.3988 943.0075 208.4107 943.6781 211.652 944.9076 215.7876 945.8018 218.3583 946.2488 221.7114 947.143 222.8292 948.3725 225.2881 949.8255 227.7471 951.8374 229.6472 952.1727 230.3178 952.6198 230.9884 953.4022 231.4355 954.0728 231.212 954.7435 230.7649 955.1905 230.8767 958.879 230.3178 960.8909 229.4237 961.1144 230.6531 962.4557 231.3238 963.5734 231.5473 964.8029 231.4355 965.2499 232.2179 965.3617 233.2239 966.3677 234.118 965.9206 236.577 966.8147 236.1299 967.4854 235.9064 968.156 236.4652 969.1619 237.4712 975.98 239.3713 978.5507 241.8303 980.2273 244.7363 982.798 247.307 984.4746 248.4248 987.1571 249.4307 987.9395 250.3249 987.1571 251.4426 985.4805 252.3367 985.1452 254.4604 986.8218 258.1488 989.7278 260.8314 992.9692 261.6138 995.3164 261.1667 995.7635 258.8195 996.8812 258.4842 999.0048 257.1429 999.4519 257.8135 998.8931 258.3724 997.9989 258.8195 997.44 259.2666 997.3283 259.8254 997.44 260.496 997.2165 261.2784 996.5459 261.9491 995.6517 262.2844 994.7575 262.1726 994.0869 262.2844 993.6398 262.8432 994.4222 262.8432 996.5459 262.3961 997.3283 262.6197 997.8871 262.955 998.446 263.2903 999.0048 263.7374 999.7872 263.8492 1001.5756 264.0727 1002.358 264.408 1003.2521 264.5198 1003.9228 264.2963 1004.0345 263.7374 1003.2521 263.2903 1004.1463 262.3961 1005.3758 263.6256 1007.2759 266.7552 1006.7171 267.6494 1007.723 268.2083 1009.2878 268.32 1010.2937 267.6494 1010.8526 268.6553 1011.0761 271.2261 1011.5232 272.0085 1012.7527 272.232 1013.3116 271.2261 1013.1998 269.773 1012.3056 268.5436 1013.3116 269.1024 1015.8823 271.7849 1016.3294 272.7909 1016.2176 273.7968 1016.4411 274.3557 1017 275.8087 1016.8882 276.3675 1008.2818 283.6327 1006.6053 286.0916 1003.0286 295.8157 1001.352 298.4982 1000.1226 299.5042 997.1047 300.9572 995.987 301.9631 995.7635 303.1926 995.7635 304.5339 995.6517 305.7634 994.6458 306.7693 993.1927 306.9928 992.1868 306.3222 991.1809 305.4281 990.2867 304.7574 988.0513 305.5398 987.716 305.5398 987.4924 306.0987 987.4924 306.5458 987.716 306.9928 987.716 307.6635 987.0453 308.7812 986.0394 309.6754 985.1452 309.6754 984.8099 308.3341 984.9217 307.1046 984.8099 305.9869 984.251 305.4281 982.9098 305.4281 981.4568 305.8751 981.345 305.9869 977.3212 308.6694 975.4211 311.1284 974.1916 312.1343 972.7386 312.4696 971.3974 312.0226 969.609 310.2342 968.3795 309.8989 966.2559 311.0166 963.5734 315.8228 961.1144 317.0523 958.6554 317.4993 950.7197 319.9583 950.0491 320.4054 949.8255 321.076 950.4961 323.9821 950.6079 325.0998 950.2726 327.7823 949.9373 329.0118 948.596 331.4707 948.3725 332.812 947.8136 334.1532 944.4605 338.177 938.7602 336.6122 936.9718 336.724 934.1776 338.5123 932.2774 338.6241 931.3833 338.5123 928.1419 339.0712 927.4713 338.9594 925.2359 337.5064 924.5652 337.2828 923.0004 337.0593 921.8827 336.6122 920.9886 335.9416 920.0944 335.4945 918.8649 335.718 918.4178 336.1651 918.3061 336.724 918.4178 337.2828 919.6473 338.9594 919.8708 340.1889 919.5355 341.4184 918.0825 343.542 918.3061 344.2127 918.9767 344.7715 919.4238 345.5539 919.6473 346.3363 919.5355 348.907 919.5355 349.1306 919.8708 349.6894 919.9826 350.1365 919.8708 350.3601 919.4238 350.9189 919.312 351.1425 919.0884 354.9427 917.6354 358.7429 916.9648 359.6371 914.9529 361.0901 914.0587 361.8725 913.4999 363.102 913.3881 364.2197 913.4999 366.2316 913.2763 367.4611 912.6057 370.0318 912.4939 370.8142 912.941 372.2672 913.7234 373.3849 914.7294 374.3909 915.5118 375.6204 915.6235 375.7321 915.9589 376.8498 915.9589 377.9675 915.7353 379.0853 915.6235 380.4265 915.9589 381.7678 917.0766 384.3385 917.3001 385.6798 916.6295 387.2446 914.0587 389.9271 913.1646 391.6036 911.1527 397.304 908.3584 405.1279 905.4524 413.399 903.8876 416.0815 900.8697 419.2111 900.0873 420.6641 896.846 432.6237 896.6224 435.3062 897.5166 438.1004 895.5047 439.4417 894.387 441.3418 891.2574 450.507 890.1397 452.1836 885.6689 456.5427 885.2218 457.6604 885.11 459.0017 885.8924 464.9255 887.1219 475.432 887.4572 478.8969 888.2396 484.9326 889.1338 492.8683 890.0279 500.5805 891.3692 512.093 885.8924 529.0822 885.6689 530.4234 885.6689 531.9882 886.0042 533.4413 887.0101 536.5708 887.2337 539.7004 886.116 542.4947 883.657 548.6421 883.4334 549.9834 883.2099 553.4483 882.651 555.2366 873.5976 568.2021 867.7855 588.6562 867.8972 589.8857 868.3443 590.8916 868.5679 591.4505 868.5679 591.8976 868.009 592.9035 867.1149 593.7977 866.4442 594.8036 866.4442 596.2567 867.8972 598.7156 868.1208 599.6098 868.2326 601.0628 867.0031 607.9926 866.4442 609.2221 865.5501 609.5574 863.8735 609.1103 863.3146 608.8868 862.9793 608.5515 862.5322 608.3279 861.8616 608.2162 861.3028 608.3279 843.084 610.8987 841.5193 611.4575 841.4075 611.4575 840.6251 611.9046 840.4015 612.0164 840.4015 612.3517 839.9545 614.0283 839.9545 614.5871 839.7309 615.2578 839.0603 615.9284 838.6132 616.1519 837.3837 616.2637 836.8249 616.4872 836.3778 617.0461 824.9771 636.159 824.3065 637.9473 824.1947 639.6239 823.9712 640.4063 823.4123 641.1887 822.7417 641.7475 821.5122 642.4182 820.8416 642.977 820.3945 643.6476 819.3886 646.3301 818.7179 649.795 818.1591 651.2481 817.0414 652.5893 814.8059 653.9306 814.2471 654.4894 814.0235 655.0483 814.0235 655.2718 814.0235 656.3895 813.9118 657.0602 812.0117 659.0721 807.9879 660.6369 806.6466 661.1957 804.2994 662.6487 803.4053 663.8782 802.6229 665.3312 801.9523 666.7843 801.5052 668.3491 801.5052 669.5785 801.9523 671.9257 801.8405 674.3847 802.2876 675.726 803.5171 678.1849 803.6288 679.3026 803.4053 680.5321 795.8048 697.5213 795.5813 698.8626 796.2519 700.5392 797.2579 701.6569 798.0403 702.9981 797.8167 704.8982 793.793 716.6342 793.793 717.3048 794.3518 718.0872 796.1402 719.4285 796.4755 720.4344 796.0284 722.4463 795.0224 724.0111 791.7811 726.4701 790.6634 727.476 790.3281 728.2584 790.3281 729.0408 789.9927 730.0468 789.2103 731.1645 788.5397 731.1645 787.8691 730.9409 786.8631 731.0527 786.0807 731.7233 785.2983 733.6234 784.7395 734.1823 784.1806 733.847 784.0689 732.9528 784.2924 731.1645 783.9571 730.1585 783.1747 729.4879 781.3864 728.3702 774.0095 721.8875 773.2271 721.5521 772.2211 721.9992 764.956 727.0289 763.9501 727.9231 762.9441 729.2644 760.5969 733.847 755.4554 741.2239 754.8966 743.3475 755.2319 745.9183 758.138 759.4426 758.2497 762.2369 757.6909 764.8076 757.4673 765.1429 756.9085 765.8135 756.7967 766.1488 756.7967 766.8195 756.9085 768.2725 756.9085 768.9431 755.4554 771.0668 751.8788 774.4199 744.5019 795.6564 742.6018 804.7099 742.8253 809.4043 732.5424 809.4043 732.3188 809.2925 732.0953 809.1807 731.9835 808.8454 731.76 808.5101 731.3129 806.7218 731.0893 804.0393 731.5364 799.3449 732.7659 793.7563 736.6779 785.9323 736.7897 785.2617 736.9014 784.9264 736.9014 784.4793 736.5661 783.0263 736.119 781.9086 735.8955 780.0085 736.5661 775.9847 736.5661 774.6435 736.4543 773.0787 736.2308 772.0727 733.4365 765.2547 732.5424 764.137 719.4651 753.2952 706.3879 742.5651 701.5817 736.6413 701.0229 736.3059 700.464 735.9706 687.1633 731.0527 686.4926 730.4938 686.6044 729.8232 686.9397 728.8173 688.6163 726.023 688.8398 725.2406 689.0634 724.1229 686.0455 701.2098 683.0277 678.4085 683.0277 677.5143 683.363 676.8437 683.5866 676.5084 684.369 675.5024 685.0396 674.4965 685.822 672.7081 686.0455 672.0375 686.8279 663.8782 686.8279 656.7249 690.2928 644.7653 690.6282 639.6239 661.7912 639.2886 661.5677 639.6239 661.5677 639.8474 661.6794 640.2945 661.6794 640.6298 661.6794 641.4122 661.4559 642.977 661.3441 643.7594 661.4559 644.5418 661.903 647.3361 662.5736 649.5715 662.6854 650.2421 662.7971 651.0245 662.6854 652.4776 642.5666 652.5893 622.4477 652.7011 638.431 670.6963 638.5428 671.0316 638.8781 672.0375 638.9899 672.7081 639.3252 679.0791 638.431 689.0267 638.6546 695.5095 639.5487 699.645 643.796 707.8043 643.5725 709.3691 642.5666 711.2692 628.2598 723.4523 614.0649 735.6353 613.2825 736.753 609.2587 746.9242 605.5703 752.8481 603.8937 754.5246 597.1875 762.7957 584.222 775.7612 571.2565 788.7266 566.8975 790.515 554.0438 791.1856 553.932 791.1856 547.114 791.4091 546.3316 791.5209 545.2139 791.968 544.4315 792.6386 543.6491 793.1975 542.7549 792.8622 541.8607 792.1915 525.7657 777.6613 511.5707 768.496 497.264 759.3308 494.5815 761.0074 478.3747 768.9431 475.0216 770.955 473.2332 772.408 473.1215 781.238 470.3272 785.7088 465.1857 790.6267 451.2143 793.7563 443.9492 796.3271 436.5723 800.3508 435.3428 801.3568 430.7602 804.9334 426.8482 808.7337 425.6187 811.0809 425.5069 813.7634 425.8422 815.887 426.5129 817.4518 402.3703 817.2283 378.2277 817.0047 375.3217 813.7634 369.1743 800.7979 368.5036 801.0215 367.4977 801.245 361.5738 801.5803 353.7498 800.4626 353.4145 800.4626 352.185 800.7979 351.8497 800.7979 346.9318 800.2391 338.3254 800.2391 335.5311 799.792 319.8832 800.1273 296.523 808.063 295.8524 808.1748 292.3875 807.8395 290.8227 807.1689 288.1402 805.3805 276.7395 791.968 265.3388 778.4437 260.6444 776.7671 260.6444 776.6553 259.862 775.7612 259.0796 774.867 255.503 768.9431 255.1677 768.3843 254.9441 768.2725 254.497 767.9372 254.3853 767.8254 252.7087 767.3783 251.8145 766.9312 249.5791 765.7018 249.132 765.2547 248.7967 764.8076 248.5732 764.584 248.4614 764.2487 248.1261 754.7482 248.0143 754.4129 247.9025 754.0776 247.5672 753.6305 244.9965 750.2773 244.7729 750.1656 244.1023 750.1656 241.4198 750.948 240.1903 751.5068 239.6315 751.6186 239.0726 751.7304 236.7254 751.6186 236.3901 751.7304 235.3842 751.9539 234.0429 752.1774 232.031 752.1774 231.6957 752.2892 229.125 752.8481 224.6541 754.5246 224.4306 754.5246 223.6482 754.7482 222.9776 754.86 220.5186 754.7482 219.848 754.86 219.1773 754.9717 218.2832 755.307 217.7243 755.5306 217.0537 755.7541 216.3831 755.7541 215.936 755.7541 215.2653 755.8659 214.93 755.9777 213.8123 756.5365 213.477 756.5365 213.1417 756.5365 212.4711 756.4248 212.1358 756.5365 211.5769 756.7601 211.2416 756.7601 210.7945 756.7601 210.4592 756.7601 210.1239 756.6483 209.565 756.313 209.2297 756.2012 208.4473 756.0894 208.112 756.2012 207.6649 756.313 207.1061 756.5365 206.659 756.5365 205.9883 756.4248 205.653 756.4248 204.2 756.9836 203.5294 757.0954 201.9646 756.9836 201.2939 757.2072 200.3998 757.5425 199.3938 757.766 199.0585 757.9895 198.6114 758.3249 198.0526 759.1073 195.0348 765.7018 194.8112 766.2606 194.8112 766.8195 194.923 767.4901 195.0348 767.8254 195.4818 768.9431 195.7054 769.6138 195.7054 769.9491 195.7054 770.2844 195.7054 770.7315 195.0348 772.5198 193.47 775.7612 193.0229 776.8789 192.5758 777.9966 192.0169 778.6672 191.2345 779.5614 189.558 781.7968 188.7756 782.691 186.6519 783.9205 184.64 785.7088 184.0812 786.0441 183.5223 786.2677 182.8517 786.3794 182.2928 786.3794 182.0693 786.4912 181.8458 786.7147 181.6222 787.0501 181.3987 788.3913 181.5105 804.7099 181.3987 805.3805 180.9516 806.8336 177.2631 810.9691 175.4748 812.6457 175.0277 813.3163 174.5806 814.434 173.4629 826.17 173.3512 826.5053 173.1276 827.0641 167.6508 836.4529 167.3155 837.3471 167.3155 837.6824 167.3155 844.2769 166.9802 844.6122 166.3096 844.9475 163.4035 845.9535 157.815 846.6241 156.4737 846.8476 149.8792 851.0949 148.0909 851.8773 144.5142 854.5598 144.1789 855.1187 144.0671 855.9011 143.8436 856.3482 140.3787 856.7953 134.1195 855.7893 132.3311 856.0129 131.2134 855.9011 128.7545 854.8952 125.4013 855.2305 121.6011 854.3363 119.4774 854.3363 117.5773 855.2305 116.5714 855.5658 114.6713 855.0069 112.7712 855.1187 111.9888 854.7834 111.0946 854.1128 110.0887 853.6657 109.0827 853.5539 107.965 853.7774 107.0708 854.3363 105.7296 855.3422 104.8354 855.5658 103.4942 855.0069 102.6 853.6657 102.1529 852.1009 102.1529 850.5361 102.9353 848.9713 105.5061 846.177 106.512 844.5004 107.1826 841.0355 107.2944 838.9119 106.8473 837.5706 105.8414 837.4589 103.6059 839.6943 101.9294 839.8061 100.2528 838.9119 99.4704 837.6824 99.3586 836.1176 100.6999 828.4054 101.0352 827.8465 101.7058 826.8406 102.6 826.5053 104.5001 826.6171 105.5061 826.3935 106.1767 825.9464 107.5179 824.6052 109.8651 821.6991 110.6475 821.0285 111.2064 820.3579 111.0946 819.4637 110.5358 817.5636 110.6475 816.4459 112.1006 811.6397 112.1006 811.3044 111.7652 810.7455 111.4299 810.6338 110.9828 810.6338 110.5358 809.8514 110.3122 809.2925 110.424 807.3924 110.3122 806.61 109.6416 805.0452 109.6416 804.3746 110.424 802.5862 112.6594 799.1213 113.4418 797.333 113.7771 794.9858 111.9888 784.3675 110.7593 781.685 100.6999 765.2547 90.6405 748.9361 79.5751 738.2061 73.316 733.7352 64.7096 721.1051 64.5978 719.4285ZM936.0777 93.5099L936.6365 93.957 936.8601 94.0688 937.1954 94.9629 936.413 99.2102 935.9659 100.3279 935.407 100.3279 934.7364 98.8749 934.7364 96.7513 935.1835 94.8512 936.0777 93.5099Z" />
</svg>