<?xml version="1.0" encoding="utf-8"?>
<svg xmlns="http://www.w3.org/2000/svg" viewBox="0 0 1021 679" style="stroke-width:0.25px;stroke-linejoin:round;stroke:#444;fill:#ddd" fill-rule="evenodd">
  <path class="SI" d="M1017 174.5257L1009.2878 168.2666 1006.0464 166.3664 1002.6933 165.8076 995.6517 166.7018 992.8574 166.3664 990.1749 164.4663 984.6981 158.6542 981.9039 156.7541 978.2154 156.5306 974.0799 156.8659 970.0561 156.307 966.2559 153.2892 964.244 156.7541 964.1322 156.6424 961.8968 153.2892 960.5556 154.7422 957.3142 158.6542 951.055 160.7779 946.1371 163.9075 935.9659 167.8195 934.96 168.9372 926.5771 178.4377 926.3536 182.3497 926.2418 185.2558 927.4713 191.6267 931.2715 204.5922 931.495 208.3924 930.9362 215.8811 931.7186 219.7931 933.7305 222.1403 939.2073 225.8287 940.7721 228.0641 941.1074 232.0879 941.2191 233.2056 939.7661 234.6586 932.3892 234.5469 920.8768 237.4529 918.0825 237.5647 912.7175 236.2234 908.1349 233.5409 900.3109 226.164 897.1813 224.5992 893.2693 225.3816 890.5868 228.2877 888.1278 231.8644 884.9982 234.4351 881.3098 235.1057 879.4097 234.7704 869.5738 232.6468 869.3503 241.0296 870.1327 247.7359 870.0209 253.7715 867.6737 260.1425 866.8913 261.0366 863.4264 264.9486 857.0554 269.4195 850.3492 272.7726 848.7844 273.2197 844.9842 274.3374 834.2541 276.2375 824.6418 281.6025 813.3529 287.8617 812.4587 287.8617 811.8999 287.8617 797.3696 288.3088 792.2282 289.6501 787.3102 291.9972 786.1925 292.8914 782.8394 295.4622 776.2449 306.5275 770.0975 310.4395 746.9608 308.7629 741.5958 308.4276 734.666 311.8925 730.4187 317.7046 729.1892 319.3812 723.1536 330.8936 718.571 344.0826 718.571 355.8186 723.0418 366.2133 729.4128 373.0314 731.9835 375.7139 735.8955 378.0611 744.949 381.8613 748.8609 384.7673 751.767 389.2382 753.4436 391.6971 751.9905 396.6151 748.1903 402.3154 745.7314 411.7042 746.0667 421.3165 746.6255 435.5114 746.1784 443.3354 744.5019 449.0358 742.2664 454.5125 740.9252 460.1011 742.3782 466.025 746.1784 475.302 746.2902 482.0083 743.1606 486.5909 736.4543 490.0558 730.1952 491.9559 717.6768 492.403 705.6055 490.2793 697.1109 488.8263 693.9813 490.3911 688.0574 495.4208 684.8161 496.5385 681.1276 495.8679 677.4392 494.6384 673.8625 494.3031 670.2858 495.9796 668.721 500.227 670.0623 505.1449 670.5094 509.504 666.9327 512.5218 666.7091 512.6336 635.0779 523.2518 626.248 526.1579 613.2825 533.423 610.4882 536.6644 608.9234 541.1352 608.5881 542.0294 609.147 543.9295 611.6059 545.159 614.6238 548.1768 617.8651 554.436 619.5417 556.6714 622.4477 558.795 626.5833 560.3598 627.9245 559.4657 628.3716 557.5656 629.8246 556.3361 633.7366 555.2184 634.9661 554.6595 635.9721 555.5537 641.2253 561.4776 641.7842 562.26 647.0374 570.9781 648.8257 575.1136 642.1195 575.0019 637.6486 576.5667 633.6249 578.8021 624.2361 581.8199 622.336 585.173 621.1065 588.8615 618.8711 590.7616 614.8473 592.8853 615.1826 596.6855 617.5298 601.6034 619.3182 606.7449 619.4299 607.192 621.33 619.1515 624.0125 629.0991 628.5952 636.9231 644.802 647.9884 641.6724 650.671 635.9721 658.7185 633.1778 661.401 629.6011 662.4069 619.0946 662.2952 601.0994 668.8897 587.6869 673.9194 573.1567 671.9075 549.5729 651.6769 546.3316 648.8826 530.6836 648.5473 527.4422 645.5295 523.8656 643.8529 520.9595 643.5176 516.2651 642.847 510.6766 637.5937 503.2997 632.7876 497.4876 633.0111 496.2581 642.847 490.1107 653.577 476.251 658.6067 462.8385 655.7007 457.8088 642.847 457.697 642.847 457.697 642.7352 427.7424 629.5462 421.3714 624.0694 421.2596 621.7222 422.3773 613.5629 421.7067 609.9862 419.9184 607.4155 419.8066 607.4155 417.6829 606.186 415.4475 605.1801 404.3822 596.3502 400.2466 591.9911 397.2288 586.179 397.0053 579.9198 397.3406 571.4252 396.67 564.3836 393.0933 562.3717 389.2931 563.9365 387.6165 564.7189 385.0458 567.5132 381.022 576.7902 377.6689 581.8199 369.5096 590.9851 366.4917 595.3442 364.4799 601.2681 364.2563 603.28 362.9151 613.6747 361.2385 620.1574 356.9912 627.8696 344.3611 637.2584 338.3254 642.847 325.9188 649.8886 311.165 651.2298 296.1877 648.4355 283.334 642.7352 276.2924 640.9469 268.0213 643.4058 252.5969 650.671 244.3259 652.124 243.5435 652.124 243.3199 652.124 235.7195 651.6769 227.2249 648.7708 219.0656 642.847 214.8183 638.4879 210.2356 636.0289 201.6293 634.2406 196.5996 633.1229 194.3641 634.6877 193.2464 637.929 193.2464 642.847 200.0645 651.0063 195.9289 656.7066 180.8398 663.1893 176.1454 667.7719 173.3512 672.2428 169.8862 674.8135 152.6735 672.2428 147.532 670.678 143.2847 666.3189 128.0838 656.5948 96.0055 658.0479 90.5287 658.3832 84.4931 656.8184 73.316 644.8589 73.9866 642.847 73.2042 638.935 75.3278 634.2406 75.3278 631.3345 72.1982 630.7757 69.7393 628.8756 67.8392 625.8578 66.4979 621.6105 73.316 623.1752 100.9234 619.0397 125.9602 615.3513 125.9602 612.4452 122.607 607.5273 117.8009 602.274 112.7712 596.7972 128.6427 595.3442 141.3846 602.274 156.5855 600.7092 163.0682 592.6617 169.2156 584.9495 171.6746 578.9139 171.3393 578.0197 171.2275 577.6844 168.3215 577.4608 163.5153 574.6666 160.0504 570.8663 134.343 527.3873 111.9888 517.3279 108.8592 514.869 96.1173 504.9213 90.7523 503.2448 79.5751 501.9035 70.6334 496.9856 68.2862 492.403 65.7155 487.2615 66.7215 471.39 76.4455 449.2593 79.3516 442.6648 81.587 433.6113 84.046 424.1108 78.5692 415.2809 76.8926 415.7279 67.5039 417.9634 57.1091 422.8813 47.4968 423.6637 38.6669 413.6043 38.5551 413.0454 38.3316 412.5983 38.108 412.1513 37.7727 411.7042 36.3197 410.4747 32.0724 405.5568 36.9903 401.0859 38.6669 399.9682 41.2376 396.7268 42.1318 393.4855 41.2376 390.4677 38.6669 387.6734 46.0438 377.8375 51.7441 373.5902 81.9223 350.4536 91.1993 333.3526 89.9699 328.8817 88.7404 324.6344 85.499 324.0756 81.1399 323.1814 71.6394 324.1873 63.4801 322.9579 53.756 313.2338 47.7204 308.9865 38.6669 307.1981 34.196 304.6274 24.4719 303.9568 19.554 302.1684 24.2484 310.4395 15.4185 311.7807 12.736 307.757 11.5065 301.2743 7.2592 295.4622 7.2592 295.3504 5.2473 283.6144 3.459 278.0259 1 273.4432 9.3828 268.0782 10.7241 265.731 15.3067 257.7953 19.6658 247.9594 23.1307 243.7121 27.378 243.265 31.4018 241.2531 39.114 235.6646 54.0913 227.6171 61.9153 219.346 68.8451 209.6219 76.7809 202.1332 87.6227 200.792 95.6702 201.0155 101.7058 197.7741 104.3883 192.1856 105.1707 190.3972 105.6178 178.4377 107.5179 175.9788 108.6356 173.0727 109.3063 169.7196 109.1945 166.0311 114.1124 166.4782 135.4607 171.6197 139.8198 171.6197 160.721 168.1548 170.4451 169.8314 199.9527 183.8028 205.3177 184.4734 210.4592 183.4674 216.1595 182.4615 221.8598 182.5733 227.1131 184.2498 231.8075 186.597 249.9144 202.245 253.3793 203.2509 254.0499 203.3627 283.8928 204.2569 322.5657 205.3746 333.4075 202.9156 336.7606 203.698 338.3254 205.9334 339.3314 208.616 341.2315 210.7396 346.7083 213.3103 351.1791 215.3222 356.5441 216.2164 367.7212 213.5339 372.0803 219.6813 375.7688 227.6171 380.0161 232.0879 385.6046 229.6289 387.0576 226.0523 388.6224 221.9167 391.305 212.8633 396.1111 206.0452 399.2407 204.704 406.1705 204.1451 409.4119 203.1392 412.765 201.0155 419.2477 194.1975 420.7008 193.8622 422.6009 194.1975 425.0598 194.5328 427.2953 188.8325 431.0955 184.2498 432.6603 181.0085 434.6722 178.773 440.0372 176.4259 442.8315 178.4377 451.1025 177.0965 458.2559 173.7433 460.0442 172.1785 462.7267 166.2547 466.0799 158.4307 468.4271 151.2773 470.886 143.6769 474.5745 135.7411 480.0513 127.9172 484.075 126.1288 488.6576 126.6877 494.1344 126.0171 495.2521 125.7935 502.2937 121.3227 506.8763 118.5284 511.459 119.3108 517.7182 128.2525 529.6777 111.1515 548.2317 105.1158 555.9439 106.01 562.3149 106.6806 583.8867 109.0278 594.3932 110.1455 635.6367 107.9101 653.4084 107.016 662.9089 110.5926 668.721 115.6223 670.174 116.9636 677.5509 121.5462 687.1633 119.8696 693.1989 115.0635 694.0931 113.1634 695.2108 110.4809 696.105 106.01 696.2167 105.1158 699.4581 98.4096 704.376 94.6094 711.3058 92.821 718.1239 92.7092 723.0418 94.1623 727.1773 92.9328 728.8539 91.7033 730.5305 90.362 732.4306 86.3383 732.4306 80.3026 733.4365 73.1493 738.578 76.2789 763.2794 79.9673 771.8858 79.5202 781.3864 75.72 793.6812 70.6903 802.7347 69.9079 811.6763 71.6963 833.4717 82.7616 846.6607 85.1088 850.1256 87.5678 856.1613 95.1682 856.273 95.1682 855.4906 84.3264 851.914 77.0613 844.9842 72.7022 841.2957 61.1898 841.0722 52.9187 841.5193 46.1007 841.5193 44.6476 843.7547 30.0056 843.5311 26.6525 842.0781 25.6465 841.7428 24.6406 844.8724 21.2875 846.7725 20.1697 859.9615 16.9284 861.191 16.5931 867.8972 12.6811 881.198 4.7453 892.8222 7.6514 894.4988 7.9867 908.6937 6.7572 938.5366 4.1865 941.8898 6.0866 946.8077 12.1222 948.2607 14.0223 951.055 15.4754 955.7494 15.6989 957.2024 18.1579 956.42 22.2934 954.6317 28.1055 952.3963 33.3587 951.1668 35.4824 948.2607 40.5121 947.4783 43.977 947.0312 45.7653 947.7019 47.4419 952.1727 61.078 955.8612 65.7724 958.6554 71.1374 961.5615 74.7141 966.0323 73.9317 966.1441 81.8674 968.7149 82.9851 968.9384 83.0969 970.615 83.7675 976.6506 84.2146 981.4568 87.456 983.2451 96.2859 980.6744 98.7449 978.7743 100.645 972.6268 103.551 969.7208 108.2454 970.9503 111.375 972.2915 114.7282 978.1036 119.5343 989.6161 126.3524 1001.4638 145.0182 1012.4174 154.2952 1017 174.5257Z" />
</svg>