<?xml version="1.0" encoding="utf-8"?>
<svg xmlns="http://www.w3.org/2000/svg" viewBox="0 0 1021 509" style="stroke-width:0.25px;stroke-linejoin:round;stroke:#444;fill:#ddd" fill-rule="evenodd">
  <path class="SK" d="M1017 149.2674L1015.6587 153.7383 1014.4293 159.9975 1013.5351 166.2567 1013.6469 170.8393 1010.8526 173.1865 1004.0345 174.1924 1000.905 176.6514 996.993 188.052 994.7575 192.97 994.534 194.3112 994.6458 197.7761 994.1987 199.4527 992.5221 201.7999 988.2748 205.4883 986.9336 207.3884 986.5982 207.9473 985.3688 211.1887 985.257 213.3123 985.5923 215.5477 986.0394 224.713 985.5923 226.6131 984.3628 229.6309 982.798 231.8663 981.1215 233.2076 979.7802 234.9959 979.2213 238.6844 979.4449 244.4965 978.3272 250.1968 976.0917 255.2265 973.2975 259.0267 971.062 260.4798 966.3677 261.9328 964.1322 263.4976 962.791 265.3977 961.0026 269.645 959.8849 271.6569 948.149 281.0457 945.5782 285.5165 945.1311 290.9933 947.2548 301.8351 946.5842 306.0824 944.684 310.4415 944.4605 329.8897 941.1074 334.137 937.9778 336.7077 934.6246 337.6019 924.0064 336.5959 920.765 336.8195 917.5237 337.9372 908.1349 338.3843 905.5641 339.3902 900.0873 342.5198 892.4869 343.7493 883.2099 348.4437 877.7331 348.8908 872.1446 346.9906 867.4502 343.5257 863.2029 338.6078 853.2552 323.1834 851.8022 320.2773 849.455 309.212 847.8902 306.0824 844.8724 305.4118 838.2779 305.5235 835.4836 304.1823 834.2541 302.2822 832.6893 297.1407 831.4598 294.7935 829.895 293.3405 826.6537 292.111 820.7298 288.5343 818.1591 287.7519 808.8821 290.658 802.7347 290.7697 799.8286 291.4404 796.2519 293.4523 794.7989 296.023 793.793 298.8173 791.6693 301.8351 789.0986 303.3999 787.0867 302.5057 784.8513 300.6056 781.6099 299.1526 775.686 300.4938 761.8264 307.2001 757.3556 306.0824 753.7789 302.5057 748.7492 300.2703 743.4959 299.3761 739.0251 299.7114 732.6541 299.1526 722.93 293.1169 717.3415 292.5581 714.7707 291.8875 709.5175 287.0813 706.7232 285.6283 703.8172 285.6283 666.0385 294.3464 654.9732 295.1288 649.8317 297.2525 649.7199 299.2644 649.6081 301.4998 649.9435 306.1942 650.0552 307.0883 650.0552 308.0943 650.0552 308.9884 649.8317 309.9944 647.4845 313.5711 647.0374 314.0182 641.6724 319.7185 638.9899 323.2952 636.8662 327.4307 629.9364 348.779 626.248 356.4912 621.7771 363.3092 616.6356 368.5625 612.5001 370.6861 610.3765 369.792 608.3646 367.5565 604.7879 365.7682 602.776 366.6624 597.411 371.6921 594.3932 373.0333 591.2636 372.698 589.4752 372.0274 587.9105 372.2509 585.675 374.9334 585.0044 376.8336 583.9985 381.6397 582.769 383.9869 581.2042 385.2164 577.851 386.5576 570.8095 390.9167 570.1388 391.252 563.4326 393.3757 559.297 395.9464 551.2495 403.4351 547.0022 404.9999 543.3138 403.5469 536.4957 397.3994 532.1366 396.0582 525.6539 398.5172 523.9773 398.2936 522.3008 395.7229 522.7479 393.4875 523.7538 391.1403 523.642 388.5695 520.5124 384.6575 516.2651 383.9869 508.1058 385.5517 506.3175 384.6575 502.4055 379.8514 500.3936 378.1748 498.6053 377.616 496.7052 377.5042 480.2748 381.975 477.257 383.7634 475.2451 387.5636 473.5685 397.9583 471.4449 402.2056 471.4449 402.3174 471.3331 402.4292 471.4449 402.6527 471.4449 402.7645 471.7802 404.2175 471.892 405.6705 471.7802 407.1235 471.4449 408.4648 461.9443 415.2828 437.8018 414.8358 427.1835 421.6538 425.2834 421.9891 403.1527 419.3066 392.4227 420.8714 388.9578 420.7596 384.934 420.5361 382.2515 421.7656 373.6451 423.6657 356.6559 427.5777 353.6381 430.0366 348.8319 439.9843 347.1553 441.5491 343.6904 442.1079 342.0139 443.0021 339.6667 445.9081 339.8902 446.9141 341.2315 447.92 341.7903 451.0496 340.002 462.0032 339.5549 467.7035 340.6726 472.6215 345.9259 477.7629 352.7439 482.7926 352.5204 482.9044 348.1613 484.4692 344.0257 485.4751 341.0079 487.8223 335.084 494.6404 330.725 497.3229 325.4717 497.8817 320.2185 496.764 313.7358 493.9697 305.6882 493.2991 269.1391 497.5464 255.8383 503.0232 249.2438 503.6938 227.2249 501.3466 186.3166 504.0292 176.0337 504.6998 161.0563 500.676 157.0326 498.4406 149.4321 494.3051 147.532 492.1814 146.1908 489.4989 142.8376 486.3693 139.1492 483.6868 136.4667 482.3455 134.4548 482.6809 132.6664 483.4633 130.8781 483.575 128.6427 481.3396 122.607 472.2861 121.0422 471.1684 116.4596 470.1625 114.6713 469.4919 112.8829 467.8153 94.5525 443.2256 88.9639 438.5312 77.3397 436.7429 75.5514 436.2958 68.0627 434.1722 61.6917 432.8309 55.209 436.7429 50.9617 433.0545 45.2614 430.9308 41.1259 428.6954 42.1318 424.3363 39.8964 422.548 39.2257 422.1009 40.2317 417.0712 41.2376 414.3887 43.026 412.1532 40.6788 409.6943 39.7846 408.1295 37.2139 403.2116 35.3138 401.9821 32.4077 401.535 29.9487 400.082 25.4779 395.164 24.2484 390.9167 24.1366 385.2164 23.3542 380.2985 20.56 370.6861 20.4482 369.4567 20.6717 366.3271 20.56 365.2094 19.8893 364.3152 18.7716 363.8681 16.7597 362.0798 15.1949 361.2974 13.8537 360.4032 13.1831 358.8384 12.9595 357.6089 12.4007 356.1559 11.8418 354.8146 11.3947 354.144 10.6123 353.6969 10.9476 352.2439 11.6183 350.6791 12.0653 349.5614 11.1712 347.4377 9.3828 345.3141 7.4827 343.8611 6.4768 343.1904 2.9001 342.8551 1.4471 341.9609 1 340.3961 1.1118 337.3783 1.3353 336.2606 1.7824 335.3664 2.2295 333.6899 3.9061 319.3832 4.5767 315.4712 6.365 311.8945 11.0594 305.1882 12.0653 301.6116 13.2948 299.0408 16.3127 296.6936 19.2187 293.564 19.554 292.111 20.56 288.7579 18.8834 276.1277 19.3305 270.9862 22.1248 267.6331 24.2484 263.8329 33.1901 237.7902 37.6609 230.3015 43.6966 224.9365 46.2673 221.6952 47.385 216.5537 48.9498 213.9829 58.5622 207.0531 66.6097 205.2648 75.1043 207.5002 95.4466 217.8949 98.5762 217.3361 102.0411 214.9889 105.2825 212.8652 109.5298 211.6358 112.2123 212.8652 117.6891 218.6773 124.1718 219.6833 158.4856 206.159 161.6152 203.5882 167.7626 192.97 170.6686 190.511 175.0277 189.7286 178.8279 190.3992 182.1811 190.1757 185.4224 187.0461 186.9872 183.2459 188.3285 174.863 189.4462 170.8393 191.7934 166.0331 195.4818 163.6859 199.8409 163.0153 209.4532 163.6859 215.3771 161.0034 220.6304 156.0855 224.3188 149.8263 225.4365 143.7906 225.213 131.6076 225.213 130.0428 225.8836 122.6659 228.119 113.7242 231.4722 105.4531 235.7195 98.4116 240.9727 93.3818 265.0035 83.9931 271.598 78.8516 275.8453 75.4985 276.2924 62.533 281.4339 63.6507 285.4576 61.08 293.0581 51.6912 298.982 48.5616 300.435 47.1086 301.3292 44.6496 301.7762 39.5081 302.6704 37.2727 306.3589 34.9255 314.2946 36.155 319.3243 33.4725 320.5538 33.1372 321.7833 33.4725 327.5954 36.3785 332.8486 37.9433 337.7666 37.7198 345.1435 30.9018 348.4966 29.6723 355.7617 29.4487 373.4216 31.1253 378.563 34.2549 376.9982 38.8375 377.2218 42.7495 378.116 46.5497 378.563 50.5735 377.7806 59.627 378.7866 62.6448 382.2515 63.3154 386.8341 62.9801 393.6521 58.9563 397.5641 58.0622 399.2407 58.621 402.8174 61.1917 404.4939 62.0859 406.2823 62.1977 410.7531 61.3035 416.3417 59.0681 417.5712 56.9444 418.0183 53.4795 419.3595 48.1145 419.8066 48.0028 422.042 48.0028 422.8244 47.3321 423.2715 45.5438 422.9362 44.2025 422.2656 43.4201 422.042 43.0848 424.8363 34.1431 427.2953 30.3429 429.866 27.7722 432.7721 26.3191 436.237 25.6485 441.7138 25.6485 443.6139 25.425 446.0728 24.419 447.4141 23.1895 462.9503 6.0886 463.6209 4.7473 464.6268 4.3002 465.6328 4.6355 467.0858 5.3062 470.1036 10.6712 471.4449 12.0124 475.6922 14.8067 477.8158 20.3953 481.0572 34.2549 483.9633 42.973 484.8574 44.9849 487.8752 47.3321 491.6755 48.3381 498.8288 48.3381 497.9347 50.1264 497.7111 51.5794 497.8229 55.9385 497.3758 59.1799 507.6587 62.7565 511.5707 63.0919 515.1474 62.7565 521.1831 60.4094 522.7479 61.5271 522.7479 61.6388 524.4244 66.7803 525.3186 71.3629 526.4363 84.5519 526.101 85.6696 524.7597 87.7933 524.648 88.911 525.3186 89.8052 527.6658 91.5935 527.6658 91.7053 528.0011 92.2641 528.0011 92.3759 529.4541 93.8289 529.7894 95.0584 529.3424 96.6232 528.3364 97.1821 527.2187 97.5174 526.4363 98.188 519.6183 109.2534 518.9476 112.83 521.2948 116.0714 525.7657 117.6362 533.925 118.3068 537.9487 116.8538 540.4077 114.1713 543.8726 110.5946 547.114 108.2474 552.8143 107.5768 557.844 110.1475 567.0092 118.8657 572.9331 121.7717 576.398 119.0892 578.2981 112.2712 579.3041 102.6589 581.5395 99.9763 582.769 96.9585 583.7749 93.7172 587.1281 86.005 588.134 84.6637 588.5811 85.1108 592.6048 85.5579 594.2814 83.8813 598.1934 79.2987 600.8759 77.7339 614.6238 76.5044 615.5179 75.2749 616.8592 71.4747 617.7534 67.5627 618.0887 65.1037 618.7593 63.4272 620.6594 61.9741 622.7831 61.9741 630.0482 64.7684 639.2134 64.4331 639.2134 59.627 642.0077 59.0681 657.0968 66.7803 661.0088 67.6745 665.2561 66.2215 667.268 64.3213 670.0623 60.7447 671.9624 59.7387 673.5272 59.627 677.4392 60.1858 684.1454 59.0681 686.9397 59.627 702.8112 78.5163 705.6055 80.6399 709.6293 81.1988 712.6471 81.087 715.4414 81.5341 718.7945 83.9931 721.7006 87.0109 724.6066 89.1345 727.848 89.8052 732.0953 88.2404 735.8955 84.8872 741.8194 76.2809 745.396 72.7042 748.1903 72.1453 751.9905 72.1453 755.3437 71.4747 756.7967 68.904 754.5613 64.7684 750.4257 62.3095 748.3021 59.8505 751.8788 55.715 754.673 54.4855 761.8264 53.0325 764.6207 53.256 767.862 55.4914 770.4328 58.2857 773.1153 60.1858 777.0273 59.5152 780.0451 56.7209 785.6337 48.4498 788.875 46.1026 791.334 46.7733 801.2816 52.1383 818.7179 57.0562 821.624 57.0562 828.2185 55.4914 830.901 56.2738 834.1424 55.0443 836.8249 53.9266 849.5668 52.4736 852.9199 53.3678 854.7083 54.4855 858.0614 57.7268 859.8497 59.0681 861.191 59.1799 863.9853 58.621 865.7736 59.1799 868.7914 62.1977 874.7153 71.4747 877.5096 73.7101 879.4097 72.4806 881.8686 69.4628 884.9982 66.6685 888.5749 65.9979 891.8163 67.7862 898.4108 73.8219 908.0231 78.6281 914.3941 84.7755 919.5355 93.0465 921.771 102.7706 923.0004 111.377 928.0301 115.1772 940.6603 117.5244 946.4724 121.3246 948.596 122.2188 950.3844 122.3306 954.6317 121.7717 956.0847 122.107 958.0966 124.2307 958.0966 126.2426 957.5377 127.9191 957.9848 129.7075 959.3261 130.8252 967.7089 133.3959 977.5448 132.9488 981.345 134.5136 990.3985 143.5671 996.8812 145.579 1010.8526 146.2496 1017 149.2674Z" />
</svg>