<?xml version="1.0" encoding="utf-8"?>
<svg xmlns="http://www.w3.org/2000/svg" viewBox="0 0 1021 756" style="stroke-width:0.25px;stroke-linejoin:round;stroke:#444;fill:#ddd" fill-rule="evenodd">
  <path class="SN" d="M870.8033 332.7327L872.0328 337.6506 875.3859 340.6684 876.3919 343.0156 877.6213 344.9157 880.0803 346.0334 882.7628 346.5923 884.6629 346.7041 883.7688 348.716 882.9864 349.9454 882.651 351.1749 883.0981 352.9633 884.2158 353.9692 885.8924 354.4163 887.1219 355.4222 887.0101 358.2165 886.116 359.7813 882.8746 362.9109 881.6451 364.6992 881.3098 366.3758 881.198 368.4994 880.6392 370.3996 879.5215 371.4055 876.3919 373.3056 875.3859 376.3234 875.7212 379.7883 877.7331 387.277 878.0684 390.7419 877.8449 398.1188 879.9685 398.5659 895.2812 404.2662 896.3989 406.5017 895.7283 408.6253 893.2693 409.5195 894.6106 411.8667 896.2871 413.9903 898.299 415.6669 904.7817 418.1259 907.1289 419.6906 908.6937 422.1496 914.7294 436.4563 915.1765 440.2565 913.947 447.0746 910.2585 460.1518 910.2585 467.1934 911.8233 471.6642 914.5058 474.3468 917.6354 476.6939 920.5415 480.1589 921.5474 483.4002 921.4356 486.8651 920.5415 493.6832 917.859 501.2836 912.3822 506.9839 898.299 514.9197 900.5344 516.9316 902.7699 520.2847 906.123 526.8792 908.2466 533.0266 911.9351 538.727 914.9529 542.1919 924.4535 549.1217 925.4594 550.3512 926.9124 552.8101 927.9184 553.9278 929.5949 554.822 931.1597 555.0455 932.501 555.6044 933.6187 557.5045 933.2834 560.5223 930.9362 569.6876 931.2715 571.4759 932.7245 571.923 937.0836 574.0466 938.4249 575.0526 938.9837 576.2821 939.9897 579.5234 940.7721 580.7529 942.7839 582.3177 943.6781 582.4295 944.5723 581.5353 951.5021 576.1703 951.9492 572.9289 952.8433 569.464 954.5199 566.6697 957.0906 565.3285 959.4378 565.6638 960.6673 567.0051 961.5615 568.6816 963.2381 569.9111 964.8029 570.1347 968.0442 569.464 972.1798 569.3523 972.9622 570.0229 972.7386 572.4818 973.1857 574.1584 974.974 574.382 976.9859 573.8231 978.2154 573.2642 978.2154 576.9527 979.4449 580.1941 983.4686 585.8944 987.2689 589.2475 987.9395 590.9241 987.716 592.7124 985.5923 595.842 984.9217 597.6304 985.4805 600.6482 987.0453 602.7718 988.9454 604.5602 990.5102 606.7956 990.622 612.7195 991.4044 615.5138 994.3105 616.1844 996.6576 617.5256 998.5578 618.9787 1000.6814 620.3199 1003.3639 620.9905 1005.0405 621.6612 1004.9287 622.8906 1004.0345 624.1201 1003.6992 625.1261 1005.9347 628.4792 1006.8288 630.4911 1007.4994 631.6088 1008.1701 632.1677 1009.6231 632.8383 1009.2878 633.5089 1008.3936 634.2913 1007.8348 634.9619 1007.8348 636.415 1007.4994 639.6563 1007.0524 641.3329 1009.6231 641.8917 1011.5232 641.1094 1012.6409 639.0975 1013.088 636.1914 1014.4293 637.6444 1015.2117 639.4328 1015.547 641.3329 1015.9941 645.692 1015.4352 646.6979 1014.3175 647.3685 1012.8645 648.598 1012.1938 648.598 1011.1879 648.0392 1009.9584 647.5921 1008.8407 648.1509 1008.7289 649.2686 1009.6231 650.1628 1010.5173 651.057 1010.8526 651.9512 1010.182 653.6277 1009.2878 655.4161 1008.6172 657.0926 1009.176 659.8869 1008.9525 660.5575 1008.3936 661.3399 1008.0583 662.2341 1008.0583 663.24 1008.7289 663.6871 1009.5113 663.7989 1009.9584 663.9107 1010.182 664.1342 1010.7408 664.9166 1011.4114 666.0343 1011.9703 667.4873 1012.3056 669.2757 1012.5292 671.2876 1012.0821 673.0759 1010.9644 674.3054 1010.9644 675.0878 1012.7527 678.2174 1012.9762 679.7822 1011.635 682.0176 1009.3996 682.3529 1007.1641 683.1353 1005.4876 687.6062 1004.1463 688.5003 1003.1404 689.7298 1003.3639 692.1888 1003.9228 692.6359 1005.1523 693.0829 1006.4935 693.9771 1007.2759 695.7655 1007.3877 697.5538 1006.4935 702.807 1006.6053 704.5954 1007.0524 705.8249 1007.1641 707.0543 1006.8288 708.9545 1003.3639 710.5193 1002.2462 711.637 1004.0345 712.3076 1005.264 713.09 1007.1641 716.4431 1008.5054 717.5608 1008.3936 716.3314 1009.2878 714.543 1010.629 713.9842 1011.635 716.7784 1011.9703 718.1197 1012.9762 720.914 1013.3116 722.4788 1014.6528 720.3551 1014.9881 719.4609 1017 722.367 1016.6647 726.279 1015.547 730.7498 1015.3234 735.2207 1010.7408 734.9971 999.899 731.0851 994.3105 730.5263 980.1155 731.644 973.2975 732.8735 960.5556 737.6796 954.2964 738.6856 940.8838 738.1267 937.4189 737.3443 927.4713 733.2088 927.2477 732.8735 926.9124 732.7617 925.7947 732.7617 925.1241 732.9853 923.224 734.3265 916.9648 737.7914 914.7294 738.2385 911.2645 737.7914 901.3168 734.5501 897.1813 734.6618 894.2752 736.1149 888.7985 741.1446 882.651 744.4977 854.82 751.8746 852.1375 750.4216 847.4431 743.2682 844.5371 741.1446 837.3837 738.462 833.9188 737.6796 831.0128 737.5679 828.2185 738.1267 825.0889 739.3562 820.2827 742.0387 818.9415 742.374 818.8297 742.4858 816.4825 742.374 815.8119 741.7034 815.7001 740.5857 814.8059 738.9091 810.2233 733.7677 807.429 731.5322 804.2994 730.191 800.8345 729.8557 790.2163 730.4145 786.7514 729.9674 785.8572 728.6262 785.0748 726.9496 782.5041 725.6084 777.5861 725.273 776.0213 724.7142 774.233 723.0376 773.8977 721.5846 774.233 720.4669 774.233 719.7963 770.2092 716.2196 763.7265 712.8664 757.6909 712.8664 755.0084 719.6845 754.4495 722.9259 752.5494 724.6024 749.8669 724.7142 746.8491 723.5965 743.7195 723.9318 740.8134 723.7083 738.3545 722.367 736.4543 719.5727 735.7837 716.3314 736.3426 713.5371 738.8015 707.8367 739.4722 704.9307 739.5839 701.4658 738.9133 698.3362 736.7897 695.989 734.2189 695.6537 731.4246 696.1008 728.4068 696.2125 725.389 694.6477 723.8242 696.5479 722.5947 695.6537 721.477 695.5419 720.2475 695.6537 718.7945 695.6537 716.7826 696.3243 716.112 696.4361 715.3296 696.1008 713.7648 694.3124 712.8706 693.8653 711.6411 693.9771 708.8469 694.7595 707.3938 694.9831 705.9408 694.7595 703.9289 693.4183 702.4759 693.0829 701.0229 693.1947 696.105 694.2007 695.3226 694.536 694.9872 694.9831 694.4284 695.4301 693.5342 695.4301 692.7518 695.2066 691.2988 694.0889 690.5164 693.8653 690.0693 693.6418 682.5806 691.6299 629.2658 689.7298 570.6977 689.3945 527.7776 689.2827 512.2414 689.171 453.785 688.9474 440.4843 688.8356 395.2169 688.7239 387.1694 688.6121 382.475 689.3945 378.2277 691.2946 368.6154 698.2244 358.556 702.9188 349.8378 709.2898 349.279 709.7369 307.7001 729.2968 301.9998 730.4145 273.4981 728.738 271.9333 728.6262 258.8561 729.6321 255.6147 728.9615 245.3318 725.4966 239.4079 725.0495 227.0013 727.1732 225.8836 727.732 225.213 728.2909 224.4306 728.5144 222.9776 728.2909 219.5127 726.9496 217.7243 726.6143 215.936 726.9496 204.5353 733.097 191.3463 740.3622 186.3166 742.374 178.0455 742.374 169.4392 744.6095 166.4213 744.7212 144.0671 743.1564 137.9197 744.7212 134.2312 747.292 133.1135 745.1683 132.3311 742.9329 131.6605 739.468 130.5428 738.3503 128.0838 736.5619 124.2836 732.8735 122.607 730.6381 121.9364 728.5144 121.9364 721.4728 122.2717 719.908 123.8365 718.455 124.2836 716.8902 125.5131 715.1019 133.6724 710.1839 137.2491 710.0722 142.3905 710.5193 147.8673 707.0543 149.6557 705.6013 150.6616 704.1483 151.3322 702.807 152.4499 701.1305 158.7091 696.5479 161.727 700.1245 164.0741 706.4955 166.4213 707.9485 166.5331 705.266 168.2097 703.2541 171.1157 702.4717 174.3571 703.1424 179.8339 706.2719 184.8636 707.725 190.3404 710.2957 193.1347 710.5193 196.376 708.9545 200.3998 704.0365 203.3058 702.4717 207.1061 702.5835 210.4592 703.813 213.7006 704.1483 217.5008 701.8011 219.4009 701.0187 220.6304 702.4717 221.6363 704.5954 222.5305 705.8249 235.3842 701.0187 238.402 700.3481 242.314 700.1245 244.8847 699.3421 247.0084 697.7773 249.4673 696.5479 253.044 696.6596 255.9501 698.2244 260.3091 701.6893 262.9916 703.813 264.3329 705.3778 266.233 705.7131 276.8513 705.8249 277.8572 706.6073 279.9809 708.8427 280.7633 709.2898 282.2163 709.178 286.4636 708.0603 288.3637 706.9426 290.152 704.7072 292.4992 703.3659 295.9641 704.8189 296.8583 704.0365 297.976 703.5894 298.982 703.4777 301.2174 705.1542 302.2233 705.0425 303.1175 704.5954 304.0117 704.8189 305.2411 706.3837 306.3589 709.178 307.253 710.5193 308.3707 711.5252 309.4884 712.1958 311.0532 712.6429 312.9534 712.6429 314.8535 712.3076 322.4539 709.178 325.4717 706.0484 330.5014 699.4539 332.4015 698.1127 334.0781 697.2185 335.3076 695.989 335.7547 693.7536 334.7487 692.6359 332.9604 691.8535 331.9545 690.9593 333.4075 689.618 331.7309 685.8178 330.2779 680.6763 329.719 675.3113 331.1721 671.1758 333.0722 669.9463 335.4194 669.9463 337.8783 670.0581 340.1138 669.8345 342.4609 668.8286 344.0257 667.5991 345.0317 666.1461 345.8141 664.1342 349.1672 667.3756 352.2968 668.2697 354.4205 666.4814 354.7558 661.787 352.185 664.4695 349.8378 664.3578 347.2671 663.3518 344.6964 662.9047 342.1256 664.0224 338.1019 667.0403 335.084 667.7109 333.4075 667.7109 330.9485 668.0462 328.7131 669.1639 327.7072 671.7347 327.7072 681.5705 329.6073 687.8297 329.9426 689.618 330.0543 692.4123 329.8308 693.7536 329.3837 694.8713 325.36 698.3362 324.1305 700.0128 315.8594 707.6132 313.624 708.9545 311.6121 709.0662 309.9355 708.2838 308.4825 707.0543 309.4884 702.0246 304.4587 699.6774 292.7228 697.7773 284.787 702.9188 281.881 703.5894 281.3221 703.0306 280.5397 701.8011 279.422 700.6834 277.4101 700.1245 275.3982 700.4598 272.604 702.0246 270.5921 702.4717 268.692 701.9129 266.233 700.5716 262.0975 697.7773 261.8739 696.9949 262.0975 695.7655 262.2092 694.6477 261.5386 694.2007 259.415 693.9771 258.2972 693.6418 257.5149 693.1947 256.5089 691.7417 254.1617 687.2708 253.6029 686.712 252.8205 686.3767 252.2616 685.8178 251.591 682.2411 250.6968 680.2293 249.6909 680.2293 249.6909 681.5705 249.4673 682.2411 247.679 685.7061 246.8966 686.8238 246.3377 692.5241 241.7551 695.5419 234.9371 696.6596 233.2605 697.442 229.7956 699.6774 228.7897 700.1245 227.1131 699.901 223.0893 698.895 216.8301 698.895 214.93 699.3421 211.8004 700.6834 210.1239 701.1305 208.112 701.1305 202.747 700.1245 200.9586 700.4598 198.6114 702.0246 197.1584 702.4717 196.5996 703.2541 195.8172 705.0425 194.6994 706.9426 193.1347 708.0603 186.4284 705.8249 180.9516 702.6953 178.3809 700.5716 177.2631 698.3362 176.7043 697.8891 175.1395 697.442 173.5747 696.6596 172.7923 695.5419 173.1276 693.8653 174.1336 692.3006 175.5866 691.2946 177.2631 690.8475 177.2631 689.618 174.8042 689.5063 173.1276 688.2768 172.2334 686.2649 171.6746 683.8059 170.5569 697.7773 169.3274 697.7773 167.092 694.8713 161.0563 689.618 160.2739 686.2649 158.3738 687.8297 157.1443 689.7298 155.5795 691.2946 153.0088 691.9652 150.9969 691.5182 149.6557 690.4004 148.985 688.6121 149.0968 686.2649 151.444 681.7941 154.7971 678.5527 156.9208 674.6407 155.9149 668.7168 155.1325 673.2994 154.7971 674.6407 153.903 676.0937 153.1206 676.7644 152.3382 677.3232 149.0968 680.341 147.6438 682.1294 146.9732 684.253 146.7496 687.8297 147.9791 693.8653 147.6438 696.6596 142.6141 698.7833 135.4607 704.8189 129.8722 706.8308 126.8543 704.9307 125.5131 700.5716 125.2895 694.8713 126.1837 688.8356 128.7545 682.9118 133.0018 679.5586 138.8139 681.5705 139.0374 678.9998 136.6902 677.2114 133.3371 676.5408 130.431 677.5468 126.9661 681.6823 125.066 683.0235 123.0541 682.5765 123.9483 681.2352 124.2836 679.7822 123.9483 678.3292 123.0541 676.8761 126.6308 671.8464 127.3014 669.3875 126.519 666.3696 125.2895 666.3696 124.5072 668.2697 123.3894 669.0521 122.3835 668.4933 121.9364 665.9226 122.2717 663.9107 123.2777 661.6752 129.2015 652.8453 129.7604 650.7217 129.6486 648.598 128.8662 644.5743 128.6427 642.6741 128.978 639.0975 130.6546 632.0559 130.9899 627.585 130.7663 624.7908 130.0957 623.4495 130.3193 619.5375 130.8781 617.6374 131.884 616.1844 134.5666 613.6136 135.0136 612.0488 137.4726 607.9133 143.2847 606.5721 150.4381 606.6838 177.5985 606.9074 202.747 607.1309 239.1844 607.4662 260.7562 607.6898 271.2627 607.6898 275.7336 607.8015 281.881 607.8015 282.9987 607.0191 283.334 594.9479 283.334 592.2653 283.6693 580.3058 284.3399 577.8469 286.24 576.8409 297.7525 575.7232 305.1294 573.376 307.253 573.2642 318.3184 574.382 321.0009 574.1584 326.0306 572.4818 329.8308 570.3582 333.631 568.9052 338.7725 569.1287 356.7677 572.9289 362.9151 572.9289 368.2801 571.923 373.6451 569.9111 378.4513 566.7815 381.8044 562.3107 382.8103 557.6163 383.481 547.1098 385.7164 543.4213 389.5166 539.5094 392.8697 535.9327 396.67 534.3679 401.2526 537.3857 408.6295 544.3155 416.7888 550.3512 416.9006 550.3512 427.7424 555.9397 433.2191 557.3927 439.5901 557.9516 442.0491 558.6222 447.6376 562.0871 450.6554 562.9813 454.0086 563.6519 455.7969 564.7696 459.0383 569.464 463.7327 573.5996 469.2095 575.9468 475.2451 576.6174 481.3925 575.9468 486.6458 574.6055 488.5459 575.2761 493.2403 579.6352 494.8051 581.0882 497.0405 582.3177 499.3877 582.9883 504.6409 583.2119 506.7646 583.8825 508.6647 585.7826 509.8942 587.4592 511.459 588.9122 513.2473 590.1417 519.1712 593.2713 523.5303 594.5008 528.0011 594.8361 537.3899 593.9419 546.3316 595.7303 551.1377 595.5067 554.7144 593.7184 562.6502 587.6827 565.1091 586.565 568.0152 586.6768 575.0568 584.1061 581.6513 583.9943 588.3575 582.2059 600.7641 581.0882 608.9234 577.5116 613.6178 570.3582 614.2884 561.64 610.3765 553.5925 608.6999 552.2513 604.8997 550.0158 603.782 549.0099 603.4466 548.6746 602.5525 547.3333 601.5465 544.092 600.6524 542.6389 597.8581 540.2917 593.9461 538.2799 589.6988 536.8268 586.2339 536.268 584.1102 536.6033 580.7571 538.6152 578.7452 539.3976 577.0686 539.7329 574.1626 539.5094 572.3743 539.5094 569.0211 540.4035 561.4207 544.3155 551.9201 546.4392 548.7905 547.7804 539.6253 553.5925 529.9012 557.0574 527.1069 557.7281 524.0891 557.281 520.0653 555.4926 508.1058 546.7745 506.7646 545.8803 505.088 543.9802 504.0821 541.7448 501.8466 534.3679 500.2818 531.1265 498.0464 528.3322 494.9168 525.7615 487.7635 522.4084 480.9454 521.8495 474.3509 523.7496 464.1798 529.4499 462.1679 530.0088 459.8207 529.2264 453.0026 525.0909 451.8849 523.7496 448.6436 512.796 447.1905 509.6664 445.1787 506.7604 442.3844 504.525 439.3666 502.066 433.3309 499.9424 416.677 499.2717 406.8411 495.4715 403.2645 495.3597 391.1932 499.7188 378.7866 507.7663 375.3217 508.5487 373.8686 507.5428 370.7391 503.2955 369.1743 501.8425 362.0209 500.613 354.4205 503.519 347.3789 508.6605 342.2374 514.2491 340.4491 517.1551 338.6607 520.7318 337.4312 524.4202 337.2077 525.6497 336.7606 527.8851 336.5371 534.7032 333.8546 535.5974 325.807 535.4856 315.5241 535.4856 305.3529 535.4856 295.07 535.3738 284.787 535.3738 274.6158 535.3738 264.3329 535.262 254.0499 535.262 243.8788 535.1503 240.3021 535.1503 233.5958 535.1503 223.3129 535.1503 213.1417 535.1503 202.8587 535.0385 192.5758 535.0385 182.2928 534.9267 172.1217 534.9267 161.727 534.9267 161.727 534.815 160.1622 532.356 159.268 530.5677 159.3798 525.8733 162.174 523.1908 166.3096 521.0671 170.5569 517.714 169.6627 517.2669 167.9861 515.9256 167.092 515.4785 169.1039 513.4667 170.6686 510.8959 170.4451 508.884 167.092 508.437 167.5391 511.2312 166.6449 514.4726 164.9683 516.8198 162.5094 516.5963 161.3916 520.1729 158.8209 522.5201 155.5795 523.5261 152.4499 522.5201 149.5439 519.3905 148.7615 516.2609 150.2145 509.6664 150.4381 505.4191 150.8851 503.7426 152.4499 501.5072 158.262 494.4656 159.268 492.1184 160.2739 492.789 162.8447 494.0185 163.7388 494.5773 163.4035 493.7949 162.5094 491.0007 168.3215 489.8829 168.545 493.2361 169.7745 496.4774 171.6746 498.3776 174.0218 497.9305 172.7923 494.0185 172.457 489.7712 171.7864 486.3063 169.3274 485.1886 170.2216 482.8414 173.7982 467.0816 174.0218 464.2873 170.4451 469.5406 168.8803 472.8937 167.6508 479.9353 165.9743 484.1826 163.7388 486.9769 161.5034 486.3063 160.2739 486.3063 158.7091 488.5417 155.6913 489.4359 152.3382 489.8829 149.0968 491.0007 147.3085 492.4537 146.7496 493.9067 146.5261 495.3597 145.6319 496.8128 144.7377 497.7069 142.8376 498.8246 141.8317 499.7188 140.1551 502.8484 138.9256 503.9661 137.2491 503.1837 136.6902 501.5072 136.6902 499.3835 136.3549 497.5952 134.9019 496.8128 132.7782 495.3597 131.884 492.0066 132.1076 488.4299 133.2253 486.3063 132.2194 483.9591 131.5487 481.3883 130.9899 475.9116 131.2134 473.0055 131.7723 471.3289 132.7782 470.2112 136.5784 467.1934 138.4785 466.411 140.6022 466.2992 145.4084 466.8581 147.7556 467.6405 149.3204 468.9817 149.0968 471.2172 151.444 469.0935 153.2323 466.6345 155.5795 465.2933 159.268 466.6345 159.268 462.8343 160.4975 461.1578 162.6211 460.1518 164.8565 458.3635 162.8447 459.0341 160.6092 459.593 158.4856 459.1459 156.9208 457.2458 164.4095 452.6631 167.092 450.2042 171.3393 444.9509 173.6865 442.9391 178.9397 441.3743 181.5105 438.1329 183.5223 437.3505 184.9754 438.0211 186.2048 439.2506 187.6579 440.033 189.2227 439.1388 190.2286 438.3564 192.9111 437.127 194.2524 436.121 183.8576 435.7857 179.3868 434.1091 179.6103 430.4207 177.0396 431.7619 176.0337 434.2209 176.5925 436.7916 178.3809 438.4682 176.369 439.6977 174.6924 439.4741 173.0158 438.9153 171.1157 438.4682 169.7745 439.0271 169.1039 440.3683 168.7685 441.9331 168.3215 443.2744 164.0741 450.763 162.5094 452.5514 160.8328 453.3338 157.2561 454.2279 155.356 455.4574 153.903 457.3575 151.7793 461.2695 150.2145 463.0579 146.4143 464.2873 142.9494 463.505 139.3727 462.2755 135.4607 461.9402 139.2609 454.8986 139.3727 453.6691 142.167 452.8867 146.7496 447.7452 144.5142 448.4158 142.3905 451.769 140.6022 452.5514 136.9138 452.6631 135.4607 452.9985 134.343 453.6691 136.2431 456.0163 136.0196 457.4693 133.2253 460.8224 132.7782 462.0519 132.3311 464.5109 131.5487 465.9639 128.1956 469.7641 127.525 471.2172 126.7426 476.0233 127.525 492.1184 126.519 492.1184 125.5131 459.4812 124.7307 454.5633 121.9364 446.404 118.9186 440.3683 117.4656 438.4682 115.3419 437.4623 111.0946 436.5681 109.418 435.0033 108.5239 432.5443 107.1826 423.3791 106.0649 420.473 104.7237 418.3494 101.5941 415.108 100.141 414.3256 99.1351 414.1021 98.3527 413.4315 98.1292 411.196 98.3527 409.4077 99.1351 406.0546 99.3586 404.1545 98.5762 401.3602 96.5644 398.3424 91.4229 393.0891 79.5751 387.5006 77.7868 385.4887 76.7809 383.2532 70.9688 374.4233 66.6097 362.6873 60.0152 353.5221 55.209 349.0513 52.4147 347.1512 49.1734 345.5864 45.5967 345.0275 42.9142 344.2451 35.8726 340.5567 34.8667 339.3272 29.3899 339.3272 24.6955 338.7683 20.56 339.1036 16.8715 341.7861 18.2128 343.3509 20.2246 344.0216 18.9952 346.4805 16.8715 347.4865 17.4304 348.0453 18.4363 349.2748 18.9952 349.8337 17.9892 352.1809 17.4304 352.4044 16.8715 353.4103 14.6361 351.9573 3.5707 338.0977 1 335.7505 28.1604 328.3736 36.2079 321.7791 60.9094 311.2726 66.4979 306.5782 92.7641 275.1705 98.0174 267.3465 109.5298 254.4928 132.4429 213.4728 143.8436 198.1602 165.4154 161.7228 166.1978 160.0462 165.9743 158.2579 164.8565 155.9107 168.6568 149.4279 170.2216 139.9274 170.6686 121.2616 171.6746 119.3615 173.91 111.7611 176.8161 104.8312 177.4867 93.207 178.7162 89.7421 181.0634 87.6185 187.2108 86.1655 189.7815 84.4889 190.7875 82.7006 191.5699 80.6887 198.2761 51.6282 199.1703 44.6983 200.3998 41.457 202.6352 38.3274 205.653 35.3096 209.2297 33.1859 213.0299 32.4035 218.3949 33.4095 220.295 33.5212 222.1952 33.1859 223.8717 32.4035 228.6779 28.9386 230.578 28.0444 232.5899 27.7091 234.6018 28.1562 236.1666 29.0504 237.396 30.2799 239.4079 33.2977 242.2022 36.3155 245.5553 37.8803 249.2438 38.3274 253.1558 37.7685 254.3853 36.9861 255.503 36.3155 256.7325 36.092 258.1855 36.4273 260.3091 37.3215 261.3151 37.4332 262.5446 37.2097 269.0273 34.1919 271.3745 33.9683 277.1866 35.3096 278.5278 35.3096 282.6634 34.6389 285.2341 34.7507 292.7228 37.2097 298.0878 37.545 299.429 37.9921 303.341 39.7804 305.9118 40.451 308.4825 40.3393 310.9415 39.5569 313.1769 37.9921 316.8653 34.6389 318.7655 33.4095 321.3362 33.0741 328.3778 34.5272 330.8367 34.3036 332.8486 33.2977 334.4134 31.8447 338.4372 26.0326 340.4491 24.2442 342.7963 23.1265 345.367 23.3501 346.9318 24.5795 347.826 26.3679 348.9437 27.9327 350.9556 28.8268 353.4145 28.8268 355.7617 28.268 362.6915 25.2502 365.2623 24.6913 370.5155 24.5795 378.3395 25.809 381.022 25.6972 398.7936 22.903 402.2585 21.5617 403.2645 20.8911 404.0469 19.8851 404.0469 18.6557 403.488 17.538 400.8055 14.8554 399.9113 12.62 400.2466 10.3846 401.5879 8.708 404.0469 8.0374 406.3941 8.708 407.8471 10.3846 409.1883 12.3965 410.8649 14.073 412.0944 14.4084 413.3239 14.2966 414.4416 13.8495 415.4475 13.0671 416.3417 11.9494 416.677 10.8317 417.2359 8.4845 418.2418 6.8079 419.9184 5.6902 423.6068 4.1254 425.5069 5.1314 427.6306 7.4785 427.8541 7.8139 429.0836 10.2728 430.7602 12.3965 433.778 12.9553 438.8077 11.7259 467.0858 13.7377 468.9859 13.5142 474.4627 12.0612 476.1393 12.0612 477.5923 12.3965 482.2867 14.6319 484.075 14.9672 485.8634 14.8554 492.7932 12.9553 494.5815 12.8436 501.2878 14.2966 503.0761 14.2966 504.7527 14.073 506.541 13.626 508.1058 12.8436 512.4649 10.2728 514.0297 9.6022 517.2711 9.4904 527.7776 13.626 529.007 14.5201 529.6777 15.7496 529.6777 17.6497 528.7835 20.8911 529.007 22.2323 530.5718 22.903 536.9428 22.3441 538.5076 23.1265 539.0664 24.4678 539.29 27.5974 540.1842 28.9386 541.8607 29.721 545.8845 29.9446 547.6728 30.2799 549.0141 31.0623 551.8084 34.8625 553.0378 35.8684 556.9498 38.6627 562.5384 45.2572 572.3743 54.1989 577.851 57.4403 578.9688 58.4462 581.763 61.9111 583.3278 62.9171 586.5692 64.1465 588.0222 65.0407 589.0282 66.1584 589.1399 67.3879 588.134 69.9586 587.7987 71.4117 588.134 72.6411 589.8106 74.7648 590.4812 76.2178 590.593 77.6708 589.6988 80.8004 590.3694 83.5947 593.1637 85.0477 599.6464 86.9479 600.9877 87.842 603.5584 89.7421 604.6761 90.9716 605.4585 92.3129 606.9116 97.0073 607.6939 98.6838 608.6999 100.1369 610.0411 101.3663 611.4942 102.3723 612.8354 102.7076 614.1767 102.5958 615.5179 102.1487 618.2004 100.5839 620.8829 98.4603 622.0007 97.2308 624.9067 92.9835 626.1362 91.754 627.5892 90.9716 629.0422 90.5245 630.607 90.4128 632.1718 90.6363 631.8365 92.8717 630.8306 95.666 630.16 98.0132 630.607 99.8015 631.3894 100.2486 633.1778 100.9193 633.8484 101.4781 634.0719 101.8134 634.2955 102.3723 634.519 102.5958 634.9661 102.9311 635.9721 103.2664 636.4191 103.49 637.5369 104.4959 637.8722 104.7195 638.9899 104.943 640.1076 104.6077 644.5784 102.1487 645.5844 101.9252 648.714 101.9252 649.2728 101.9252 650.5023 101.4781 655.532 99.3545 664.1384 97.4543 666.3738 96.5602 667.3798 96.2249 668.2739 96.2249 669.3916 96.4484 669.727 98.7956 666.9327 104.0488 666.5974 106.7314 668.2739 107.8491 674.3096 105.5019 676.7685 105.6136 677.5509 106.5078 678.8922 108.855 679.7864 109.7492 684.2572 112.8788 685.2631 114.1083 685.7102 115.4495 685.822 118.4673 686.0455 119.8086 688.3927 125.5089 689.3987 127.2972 690.6282 128.9738 692.0812 130.4268 696.3285 133.6682 697.2227 135.0095 697.6697 136.4625 697.558 137.9155 696.8873 140.8216 696.8873 142.1628 697.2227 143.3923 697.8933 144.3982 700.9111 147.8631 702.3641 150.5457 703.1465 153.4517 703.2583 156.8048 702.923 158.2579 702.3641 159.7109 701.9171 161.1639 702.1406 162.6169 703.0348 163.7347 704.1525 164.6288 706.7232 166.1936 708.0645 167.1996 709.1822 168.429 710.9705 171.1116 711.7529 172.5646 711.8647 173.7941 711.6411 175.1353 709.1822 179.0473 708.5116 180.3886 708.3998 181.9534 708.6233 183.4064 710.1881 187.6537 712.6471 187.5419 717.565 186.6477 720.024 186.8713 721.1417 187.3184 724.2713 189.5538 725.389 190.0009 729.1892 191.0068 731.3129 192.2363 733.1012 193.9129 734.2189 195.9248 734.666 198.2719 733.6601 204.7547 733.7718 206.2077 733.9954 207.6607 734.5542 209.3373 735.5602 210.0079 740.5899 211.3492 742.9371 211.0139 745.5078 209.4491 747.6315 207.6607 750.0904 206.3195 752.6612 205.9842 755.2319 207.2136 756.3496 208.4431 756.7967 210.0079 757.4673 214.7023 758.0262 215.82 759.7028 218.0554 760.4851 219.3967 760.7087 220.6262 760.8205 226.4383 761.3793 229.2326 762.7206 231.8033 764.7325 234.0387 774.5683 240.745 776.692 242.9804 777.8097 245.7747 776.9155 248.1219 774.1212 248.569 768.5327 248.0101 766.8561 249.2396 767.862 251.3633 771.5505 255.1635 773.0035 256.393 774.4565 256.84 776.0213 256.9518 779.598 256.1694 781.3864 256.1694 782.9512 256.6165 784.516 257.7342 785.4101 258.8519 785.7454 260.1932 785.8572 261.5344 784.963 265.8935 785.0748 267.2348 785.5219 268.7996 785.7454 269.2466 789.881 270.5879 791.2222 271.9292 796.0284 276.6235 800.4992 278.5237 800.611 278.5237 802.2876 278.3001 807.5408 276.6235 810.1116 276.2882 811.5646 276.8471 812.9058 278.0766 815.0295 280.8708 824.0829 286.2359 826.989 288.4713 828.7773 289.4772 832.5776 290.3714 834.3659 291.3773 835.8189 292.9421 836.6013 294.6187 840.4015 308.2548 840.5133 310.0431 842.7487 311.4961 848.3373 318.0906 851.2433 320.5496 861.6381 325.4675 870.8033 332.7327Z" />
</svg>