<?xml version="1.0" encoding="utf-8"?>
<svg xmlns="http://www.w3.org/2000/svg" viewBox="0 0 776 1024" style="stroke-width:0.25px;stroke-linejoin:round;stroke:#444;fill:#ddd" fill-rule="evenodd">
  <path class="SO" d="M68.8463 601.3052L69.8523 599.8521 70.8582 598.958 71.1935 598.0638 71.1935 595.8284 71.6406 594.3754 72.9818 593.2576 78.2351 590.0163 82.3706 586.6631 84.9414 585.4337 87.2886 584.763 93.6595 584.763 99.2481 584.6513 107.9662 583.1982 119.2551 581.2981 130.3205 579.398 135.5737 578.5039 138.7033 577.2744 141.3858 575.3743 141.4976 575.2625 143.733 572.9153 144.8507 570.4563 146.0802 565.3149 147.0861 562.8559 147.5332 562.0735 148.2039 561.2911 153.6806 556.7085 159.9398 551.6788 168.2109 547.655 176.7055 543.6312 184.9766 539.7193 190.118 537.2603 198.3891 535.3602 203.9777 534.1307 211.2428 532.4541 213.4782 531.8953 219.8492 529.6598 222.5317 528.9892 227.0025 529.2128 230.8028 529.4363 234.603 529.6598 238.515 529.8834 242.3152 530.1069 246.1154 530.3305 249.9156 530.554 253.8276 530.7776 257.6278 531.0011 261.4281 531.2246 265.2283 531.4482 268.9167 531.6717 269.0285 531.6717 272.9405 531.8953 276.7407 532.1188 280.5409 532.3424 284.3411 532.5659 288.1414 532.7894 292.1651 533.013 294.2888 532.1188 300.1009 525.8596 300.2127 525.8596 304.3482 521.1652 312.2839 512.5589 320.2197 503.8407 328.1554 495.1226 335.9794 486.5162 336.8736 485.5102 343.9152 477.798 351.8509 469.0799 359.7867 460.3617 367.7224 451.7553 372.1933 447.0609 376.6641 442.4783 381.135 437.7839 385.7176 433.2013 390.1884 428.5069 394.6593 423.9243 399.1301 419.2299 403.7128 414.6473 406.8424 411.5177 408.4072 410.0647 409.8602 408.4999 413.2133 405.3703 416.5664 402.1289 418.0195 400.6759 421.5961 397.211 425.1728 393.7461 428.7495 390.2812 432.3262 386.8163 435.9029 383.2396 439.4795 379.7747 443.0562 376.3098 446.6329 372.8449 450.3213 369.38 453.898 365.8033 457.4747 362.3384 461.0514 358.8735 464.6281 355.4086 468.2047 351.9437 471.7814 348.4788 475.3581 344.9021 478.9348 341.4372 482.5114 337.9723 485.4175 335.178 486.0881 334.5074 489.6648 331.0425 493.2415 327.4658 496.9299 324.0009 500.5066 320.536 504.0833 317.0711 507.66 313.4944 511.2366 310.0295 514.8133 306.5646 518.39 303.0997 522.8608 296.2816 527.2199 289.4636 531.6908 282.7573 536.0498 275.9393 540.5207 269.233 544.9915 262.415 549.3506 255.5969 553.8215 248.8906 558.1805 242.0726 562.6514 235.2546 567.1222 228.4365 571.4813 221.7303 575.9521 214.9122 580.423 208.0942 584.7821 201.2761 589.2529 194.4581 589.2529 186.187 589.2529 186.0752 589.2529 177.6924 589.2529 169.3096 589.2529 160.9267 589.2529 152.4321 589.2529 144.0493 589.2529 135.6664 589.2529 127.1718 589.2529 118.789 589.2529 110.2944 589.2529 101.9116 589.2529 93.4169 589.2529 85.0341 589.2529 76.5395 589.2529 68.1567 589.2529 59.662 591.9354 59.5503 601.6595 57.6502 611.3836 55.8618 614.1779 54.6323 615.2956 52.9558 616.078 52.3969 616.9722 52.844 617.7546 53.1793 618.4252 53.2911 623.2314 52.844 624.5726 52.5087 625.8021 52.0616 629.7141 49.7144 631.1671 49.4909 632.173 48.8202 633.8496 45.5789 634.8556 44.3494 636.3086 43.7905 637.9851 43.6788 641.2265 43.7905 641.6736 43.6788 642.7913 43.0081 643.4619 42.7846 644.3561 42.7846 646.5915 43.2317 653.0743 43.9023 656.5392 43.4552 658.6628 41.6669 659.2217 41.7787 660.5629 40.8845 661.4571 40.6609 661.6806 40.5492 662.6866 39.8785 663.2454 39.655 663.6925 39.655 664.2514 39.8785 664.5867 40.1021 664.6985 40.1021 671.4047 39.9903 672.8578 40.1021 677.2168 37.7549 678.6699 36.4136 679.4523 36.0783 682.023 36.0783 682.6936 35.743 683.2525 35.2959 684.1466 34.9606 687.2762 34.0664 688.7293 33.0605 694.9884 28.0308 698.3416 27.3602 699.6828 26.466 702.1418 23.6717 704.3772 21.6598 705.2714 20.4304 705.6067 18.7538 705.7185 17.0772 706.0538 15.4007 706.5009 13.7241 707.1715 12.2711 708.8481 10.0356 709.9658 9.1415 710.9717 8.6944 711.8659 8.5826 713.766 7.6884 714.1013 7.1296 714.4366 6.7943 714.7719 6.5707 715.219 6.5707 715.8897 7.0178 716.225 7.1296 717.9015 6.6825 720.9194 5.3413 723.6019 4.7824 724.3843 4.2235 726.2844 4 731.4259 7.4649 739.0263 8.2473 743.3854 11.824 744.8384 12.2711 750.6505 12.2711 752.1035 12.6064 754.5625 14.0594 756.0155 14.3947 757.6921 14.3947 759.4804 14.6183 760.9334 15.2889 762.8336 15.736 761.7158 18.1949 760.9334 21.3245 759.5922 23.56 760.151 27.1366 759.4804 29.3721 758.1392 30.6015 756.9097 32.7252 754.5625 34.8488 752.2153 38.0902 750.427 39.8785 750.2034 40.4374 750.2034 41.2198 750.5387 42.4493 750.6505 43.0081 750.427 44.6847 749.9799 46.3613 747.6327 51.5028 747.1856 52.7322 747.0738 57.6502 746.6267 60.7798 747.6327 64.2447 750.874 66.3683 754.1154 66.4801 755.2331 68.0449 753.333 69.6097 751.7682 73.2981 750.874 74.4158 750.3152 75.5336 749.9799 77.0983 749.7563 78.8867 750.427 89.2814 751.4329 102.6939 753.1095 108.6178 752.6624 109.4002 750.874 109.6238 749.1975 110.1826 748.7504 111.5239 749.1975 114.877 748.7504 116.33 748.0798 117.336 746.962 117.7831 745.3972 117.8948 743.8325 118.3419 742.603 119.5714 741.9323 120.9127 742.603 122.0304 744.056 122.2539 755.2331 120.0185 756.0155 120.1303 756.9097 120.3538 757.4685 120.3538 757.8039 119.6832 757.4685 118.9008 756.7979 118.4537 756.0155 118.1184 755.792 117.6713 755.6802 115.8829 755.4567 114.3182 755.0096 112.8651 754.2272 111.1886 755.3449 112.3063 756.5744 113.0887 757.4685 114.0946 758.8098 114.877 759.4804 115.3241 760.2628 115.6594 761.9394 116.8889 762.8336 117.4477 764.1748 117.7831 765.2925 118.0066 765.9631 117.8948 766.7455 117.4477 767.6397 117.2242 769.0927 117.336 770.434 117.5595 770.9928 119.2361 771.9988 119.9067 771.5517 121.248 770.5458 123.8187 769.6516 124.0422 769.3163 124.3776 768.7574 124.8246 768.981 125.8306 768.3103 125.8306 766.9691 125.3835 766.0749 125.3835 764.8454 125.0482 763.3924 125.4953 761.3805 125.16 760.8217 123.7069 760.5981 122.8128 760.151 121.9186 759.0333 121.5833 747.8562 122.9245 742.4912 124.8246 735.8967 128.8484 734.5554 131.3074 733.9966 135.89 734.779 140.1373 732.6553 145.8376 732.9906 149.3025 733.8848 151.6497 733.9966 152.5439 733.8848 153.3263 733.2142 154.444 732.2083 159.6972 732.4318 160.4796 731.6494 162.0444 731.0905 163.4975 730.4199 167.1859 729.5257 169.9802 728.9669 170.7626 729.3022 172.8862 729.1904 173.5569 728.8551 175.0099 728.2963 179.5925 726.955 181.6044 726.8432 183.8398 727.4021 187.7518 729.1904 192.558 729.414 194.1228 729.1904 195.5758 728.7433 196.9171 724.1607 204.4057 722.7077 205.5234 719.5781 206.8647 718.3486 207.6471 717.3427 208.8766 715.219 212.4532 714.7719 213.571 715.3308 218.3771 715.3308 219.9419 714.2131 222.7362 712.0894 225.4187 703.9301 231.7897 701.6947 234.1369 699.9064 236.5958 698.5651 238.943 697.5592 241.9608 696.2179 248.1083 695.1002 250.679 691.5235 255.0381 691.0765 256.6029 691.3 261.0737 691.0765 262.415 689.847 265.2092 688.841 266.5505 687.7233 267.1094 686.3821 267.5564 685.5997 268.7859 685.1526 270.3507 684.482 271.692 679.6758 277.9512 679.0052 278.9571 677.8875 281.3043 675.7638 287.8988 674.199 290.8048 671.74 293.152 662.2395 298.9641 655.8685 305.5586 654.5273 307.7941 653.6331 310.4766 652.9625 315.7298 653.2978 316.624 654.4155 317.2946 654.7508 318.9712 654.5273 320.8713 654.192 322.2125 652.0683 325.2304 649.8329 327.5776 649.1623 328.807 648.9387 332.1602 648.6034 333.3897 641.003 346.8022 636.9792 353.8438 632.0613 359.4323 620.7724 375.3039 615.2956 386.0339 611.9425 391.2871 608.254 401.4583 599.2006 420.6829 598.977 422.2477 599.2006 423.9243 599.8712 427.0539 599.9829 428.6187 598.977 435.2132 596.4063 440.8018 590.1471 451.5318 582.6584 464.4972 571.2578 482.0453 567.6811 489.9811 565.6692 492.6636 560.416 497.8051 552.9273 510.0999 544.2091 519.7122 534.8204 532.3424 524.0903 554.2495 516.1546 565.7619 508.2188 574.3683 488.7706 595.1578 482.2879 604.323 470.8872 615.9472 461.3867 625.8948 449.0919 638.8603 447.08 640.8722 433.891 656.2966 424.0551 665.1265 418.5783 671.721 408.4072 680.2156 402.9304 685.8042 398.3477 689.1573 398.236 689.7162 397.7889 690.4986 397.4536 691.0574 397.1183 691.3927 395.777 691.8398 395.1064 692.9575 394.5475 694.5223 393.7651 695.9754 392.7592 696.646 389.8531 697.9872 382.9233 705.3641 382.0292 706.4818 380.7997 708.7173 380.129 709.6114 376.9994 711.6233 375.8817 713.747 374.4287 714.9765 359.5631 724.477 351.1803 729.2832 343.3563 733.8658 318.2078 748.2843 315.7488 749.7373 314.184 750.0726 313.4017 750.2961 298.7596 757.226 286.2413 765.8323 285.6824 766.503 284.7882 766.8383 274.7288 774.1034 265.4518 779.9155 249.3568 792.3221 241.1975 800.8167 239.5209 801.4873 236.5031 803.3875 235.6089 804.1699 235.3854 804.8405 235.1618 805.5111 235.0501 806.9641 234.7147 807.2994 233.3735 807.7465 233.0382 807.9701 232.4793 808.7525 227.3378 813.8939 225.773 814.8999 224.2083 815.347 223.3141 816.0176 219.8492 820.3767 211.5781 824.8475 208.7838 826.8594 205.2072 831.7773 203.9777 832.5597 202.9717 832.895 199.7304 835.4658 185.5354 849.1019 172.1229 864.3028 164.746 871.5679 157.7044 878.3859 143.0624 894.7045 134.1207 904.4286 129.8734 907.8935 125.0672 911.8055 120.1493 916.8352 118.3609 919.4059 118.1374 920.1883 118.1374 920.859 117.9139 921.3061 116.1255 921.6414 115.6784 922.0884 112.6606 926.0004 112.3253 927.2299 113.2195 928.0123 112.4371 929.2418 112.2135 929.5771 112.2135 929.13 112.2135 928.6829 111.99 928.3476 111.6547 928.0123 107.7427 931.1419 107.1838 931.8125 106.625 933.042 105.5073 934.3833 103.1601 936.6187 95.7832 945.4486 95.5596 946.1193 95.5596 946.6781 95.4479 947.1252 94.7772 947.237 94.4419 947.4605 91.5359 952.1549 89.6358 954.1668 88.518 954.9492 87.2886 955.508 85.9473 955.8433 83.7119 955.8433 82.5942 956.0669 81.9235 956.8493 83.3766 957.0728 83.2648 958.5259 82.5942 960.0906 82.1471 960.873 81.1411 961.4319 80.0234 962.7732 79.241 964.338 78.9057 965.6792 78.5704 966.3498 76.1114 968.2499 75.2173 968.697 74.9937 968.1382 74.6584 965.0086 74.7702 962.1025 74.3231 960.873 73.876 960.873 73.9878 961.9908 73.7642 962.8849 73.4289 963.5556 73.3172 964.4497 73.3172 965.3439 73.7642 966.4616 73.876 967.244 73.9878 968.1382 74.5466 968.5853 75.1055 968.9206 75.329 969.4794 75.2173 970.3736 74.4349 971.9384 74.3231 972.8326 73.876 973.7267 72.1994 975.2915 71.7524 975.8504 71.6406 976.7446 71.3053 977.6387 70.7464 978.3094 68.0639 981.6625 67.7286 982.4449 67.9521 983.1155 68.511 983.0037 69.1816 982.6684 69.7405 982.2213 68.8463 984.1215 67.1697 984.345 65.7167 983.2273 65.1579 981.1036 64.7108 981.1036 64.8226 982.6684 65.7167 985.2392 65.7167 986.6922 65.2696 988.0334 57.5574 1000.44 55.8809 1002.5637 54.4278 1004.7991 51.6336 1010.3877 50.2923 1011.5054 48.6157 1012.3996 45.9332 1016.8704 44.4802 1018.0999 44.9273 1018.0999 43.0272 1020 43.1389 1018.547 43.2507 1013.9644 43.0272 1012.5113 42.133 1010.9465 39.3387 1007.2581 35.5385 1002.4519 31.8501 997.6458 28.0498 992.7278 24.4732 988.0334 21.0083 983.6744 16.9845 978.4211 13.1843 973.615 9.6076 968.8088 7.7075 966.4616 5.8074 964.0026 3.9073 961.5437 2.0072 959.0847 2.0072 953.4961 1.8954 948.3547 1.8954 943.1014 1.7836 935.1657 1.6718 927.1182 1.5601 919.0706 1.4483 911.1349 1.3365 906.1052 1.3365 901.1872 1.2248 895.1516 1.2248 885.8746 1.2248 876.7094 1.2248 867.4323 1.2248 858.2671 1.2248 848.9901 1.2248 839.8249 1.2248 830.5479 1.2248 821.3826 1.2248 812.1056 1.2248 804.1699 1.2248 802.9404 1.2248 793.6634 1.2248 784.4981 1.2248 775.2211 1.2248 765.9441 1.2248 756.7789 1.2248 747.5019 1.2248 739.6779 1.2248 731.8539 1.2248 723.9182 1.2248 716.0942 1.2248 710.6174 1.113 700.6697 1.0012 691.1692 1.0012 687.2572 2.0072 685.1336 4.5779 682.6746 10.6135 676.6389 16.7609 670.6033 22.7966 664.6794 28.8322 658.6438 32.6325 653.167 36.4327 647.6902 40.2329 642.2134 44.1449 636.7366 50.2923 627.9067 56.4397 618.965 62.6989 610.1351 68.8463 601.3052Z" />
</svg>