<?xml version="1.0" encoding="utf-8"?>
<svg xmlns="http://www.w3.org/2000/svg" viewBox="0 0 1021 768" style="stroke-width:0.25px;stroke-linejoin:round;stroke:#444;fill:#ddd" fill-rule="evenodd">
  <path class="SS" d="M1017 666.1663L1011.5232 666.1663 1005.0405 666.1663 1004.8169 661.0249 1001.4638 660.8013 999.0048 662.4779 998.5578 666.1663 998.1107 668.7371 990.5102 666.1663 990.2867 666.0546 986.1512 658.5659 982.6862 652.1949 986.9336 641.5767 980.4508 639.6766 971.8444 639.6766 975.0858 632.9703 973.1857 630.6231 966.4794 634.4233 960.4438 637.6647 958.879 634.8704 952.9551 637.1058 945.9135 639.7883 937.9778 642.8062 930.9362 645.3769 924.3417 647.8359 917.4119 650.5184 909.029 653.5362 903.1052 656.554 897.1813 659.4601 891.2574 662.5897 884.4394 666.0546 875.7212 674.7727 867.1149 683.3791 858.3967 691.9855 849.6785 700.7036 842.637 707.7452 835.5954 714.7868 825.9831 724.5109 817.712 732.782 811.341 739.1529 811.0057 739.3765 807.7644 741.2766 804.0759 741.7237 790.2163 741.053 782.3923 740.6059 779.7098 740.1589 777.9215 739.1529 766.9679 730.2112 765.2913 729.5406 763.7265 730.0994 758.585 734.0114 751.767 737.3646 744.5019 739.6 730.9776 740.7177 715.2178 741.9472 711.4176 742.8414 695.5461 752.5655 694.5402 753.6832 694.4284 754.8009 694.8755 757.9305 694.8755 759.2717 694.5402 760.5012 694.4284 760.9483 693.8695 761.7307 692.8636 761.8425 687.3868 760.7248 685.9338 759.9424 684.5925 758.6011 684.0337 757.7069 683.0277 755.9186 682.0218 755.3597 681.3512 755.3597 674.5331 754.9127 673.4154 754.3538 672.7448 752.9008 672.5212 748.877 672.1859 747.2004 670.9564 745.1886 664.809 738.2587 662.7971 736.5822 662.2383 736.3586 660.5617 735.5762 660.2264 735.4645 660.1146 736.0233 653.1848 743.7355 652.4024 744.4062 650.8376 745.0768 641.8959 746.418 640.4429 747.2004 639.437 748.4299 639.3252 748.5417 638.431 749.3241 636.8662 748.9888 625.8009 743.0649 618.6475 739.1529 615.2944 738.0352 611.8295 737.5881 607.6939 737.5881 605.4585 738.147 602.3289 740.7177 599.9817 742.5061 599.1993 742.8414 597.5228 743.1767 596.7404 743.512 594.0579 745.5239 592.9402 746.0827 592.046 746.1945 590.3694 746.1945 589.4752 746.5298 588.4693 747.3122 588.0222 748.3182 587.7987 749.3241 587.4634 750.33 581.763 758.6011 579.8629 762.2895 579.5276 763.6308 578.4099 761.8425 579.3041 757.3716 578.0746 755.9186 575.3921 754.8009 574.2744 753.9067 573.7155 752.6772 573.3802 749.6594 573.0449 748.877 571.4801 747.7593 570.1388 748.6535 568.6858 750.4418 566.8975 751.4477 564.4385 751.4477 563.4326 751.5595 561.9795 752.1184 559.297 753.5714 558.1793 753.9067 556.5028 754.1303 555.6086 754.0185 554.8262 753.7949 553.932 753.0125 553.932 752.6772 554.4909 752.1184 554.938 751.0007 555.6086 747.6475 555.6086 745.971 553.5967 733.3408 552.3672 731.1054 551.5848 730.7701 550.6906 730.8818 549.7965 731.1054 549.0141 731.2172 547.2257 731.2172 546.5551 731.1054 543.202 729.9877 536.2722 725.8521 530.4601 724.0638 524.8715 723.952 523.5303 723.3932 522.8596 722.6108 522.7479 721.7166 522.7479 720.8224 522.5243 719.9283 521.9655 718.9223 519.8418 716.4634 519.0594 714.4515 518.6123 712.5514 517.7182 710.763 515.818 709.7571 512.1296 708.9747 510.9001 708.1923 509.5589 706.2922 507.547 702.492 506.2057 700.8154 504.1938 699.5859 503.1879 699.4741 502.182 699.4741 501.2878 699.2506 500.6172 698.4682 500.6172 697.3505 501.0642 696.4563 501.7349 695.6739 502.0702 694.7798 501.176 692.9914 499.2759 691.2031 497.0405 689.9736 495.1404 689.6383 491.2284 689.7501 488.8812 687.8499 487.8752 684.6086 487.987 680.8084 488.7694 678.2376 488.8812 677.3435 488.6576 676.5611 488.0988 675.2198 487.987 674.4374 488.5459 673.5432 488.993 673.0961 489.3283 672.5373 489.6636 671.6431 488.6576 670.9725 487.7635 670.6372 485.7516 669.4077 485.1927 669.1842 483.2926 669.743 482.622 669.6312 481.3925 668.8488 478.9336 666.6134 477.9276 665.9428 474.3509 664.2662 473.345 664.0427 470.7743 664.0427 468.0917 662.925 467.0858 662.5897 466.6387 662.7014 465.2975 663.3721 464.8504 663.0367 463.9562 662.1426 463.6209 661.919 461.7208 661.5837 460.4913 661.8073 459.7089 662.925 459.4854 665.9428 459.2618 667.3958 459.3736 668.29 459.1501 669.2959 457.5853 670.749 457.0264 671.6431 456.4675 673.655 455.6851 675.4433 454.6792 677.0081 450.2084 680.8084 449.426 682.1496 448.5318 684.1615 447.1905 686.1734 445.8493 686.5087 444.0609 686.1734 441.9373 686.1734 441.0431 687.1793 440.7078 688.8559 440.149 690.1971 437.9135 690.5325 436.0134 689.6383 430.5366 684.0497 429.5307 683.3791 426.1776 681.8143 425.8422 681.9261 425.6187 680.6966 424.7245 680.3613 420.589 677.567 419.9184 676.7846 414.6651 678.1259 412.765 678.3494 408.6295 678.0141 406.0587 678.3494 405.1646 678.3494 402.9292 677.4552 402.5938 675.7787 402.4821 673.8785 401.1408 672.202 400.0231 671.8667 399.2407 672.202 398.4583 672.9844 397.3406 673.5432 395.5523 673.5432 394.7699 673.655 391.1932 680.5848 389.9637 682.3732 388.6224 683.1556 385.0458 684.0497 384.0398 684.7204 383.7045 685.6145 383.5927 686.6205 382.9221 687.4029 382.1397 687.6264 381.3573 687.5146 380.4631 687.4029 379.6807 687.2911 377.7806 687.7382 376.4394 688.6323 373.198 692.9914 371.6332 694.5562 369.7331 695.6739 367.833 695.8975 365.7094 695.2268 365.0387 694.4444 364.7034 693.215 363.921 691.4266 361.015 689.1912 357.4383 689.4147 353.6381 690.0854 350.2849 689.6383 348.6084 688.5206 347.0436 686.9558 344.5846 683.8262 344.2493 682.1496 343.6904 681.479 342.3492 681.3672 341.5668 681.8143 340.1138 683.3791 339.2196 683.4909 336.5371 679.6906 336.2018 678.9083 335.8664 678.2376 335.7547 677.4552 335.7547 676.5611 335.9782 674.5492 336.4253 673.0961 336.2018 672.202 331.7309 671.5314 330.725 671.6431 330.1661 671.5314 329.2719 670.6372 328.8249 670.4136 328.0425 670.8607 327.7072 671.0843 327.8189 671.196 327.8189 671.4196 327.7072 671.8667 327.5954 672.202 327.0365 672.3138 325.5835 671.6431 325.1364 671.5314 322.6774 671.9784 322.0068 671.8667 321.0009 671.3078 319.4361 669.6312 318.5419 668.8488 317.8713 668.6253 315.7476 668.1782 315.3006 668.1782 314.7417 666.837 314.2946 664.7133 314.1828 661.1366 314.8535 656.1069 314.5182 654.3186 314.1828 653.4244 313.624 652.5303 312.9534 651.6361 312.0592 651.189 311.3886 651.189 309.712 651.6361 309.0414 651.6361 307.9237 650.7419 307.3648 649.2889 306.6942 645.7122 305.5765 643.7003 304.0117 642.6944 296.4112 641.912 294.7347 641.2414 293.1699 640.0119 292.7228 639.1177 292.2757 637.2176 292.0521 636.4352 291.2697 635.6528 288.5872 633.5292 287.9166 633.3056 287.3578 632.9703 286.9107 632.635 286.3518 632.1879 287.0224 628.2759 286.7989 627.1582 285.9047 626.0405 283.4458 624.2521 282.1045 620.7872 279.7573 618.8871 274.7276 615.534 273.051 613.2986 271.598 610.7278 269.2508 605.3628 268.9155 604.0216 268.4684 599.7743 267.7978 597.5388 267.5743 596.4211 267.7978 595.1916 271.2627 585.6911 271.1509 584.7969 271.2627 583.3439 270.9274 582.5615 270.145 582.0026 269.4744 582.1144 269.0273 582.338 268.692 582.4497 268.3567 582.5615 268.0213 582.785 267.5743 582.6733 267.0154 581.7791 267.0154 581.2202 267.3507 579.9908 267.4625 578.5377 267.686 577.8671 267.686 577.42 266.1212 576.4141 265.7859 576.0788 265.5624 575.5199 265.5624 574.7375 265.2271 573.3963 264.5564 572.055 263.5505 570.9373 262.321 570.3784 260.5327 569.8196 260.1974 569.149 260.0856 568.2548 259.5267 566.8018 258.7443 566.2429 255.0559 564.7899 254.2735 564.9017 252.7087 565.3487 251.9263 565.3487 251.3674 564.9017 250.6968 563.6722 249.132 562.4427 248.1261 559.9837 247.2319 558.9778 243.4317 559.8719 241.6433 559.7602 240.5256 558.3072 239.7432 556.2953 238.6255 556.0717 237.2843 556.6306 235.2724 556.7424 233.2605 555.8482 232.5899 554.3952 232.031 550.4832 231.1369 549.3655 229.5721 548.3595 223.4246 545.9006 217.389 546.2359 214.5947 545.7888 209.565 544.1122 208.2238 542.9945 207.3296 541.4297 206.659 539.6414 205.653 538.0766 204.0882 537.6295 200.6233 540.0884 199.2821 540.5355 198.9468 538.6354 199.7292 536.9589 201.0704 535.5058 202.747 534.2763 204.3118 533.3822 205.7648 532.2645 206.5472 530.5879 206.5472 528.9113 205.4295 527.5701 203.9765 527.2348 202.747 527.3465 201.9646 526.7877 201.9646 524.664 201.6293 522.4286 200.288 521.5344 196.7113 520.752 195.0348 519.6343 193.0229 516.9518 191.5699 515.4988 189.8933 514.6046 188.552 514.0458 187.6579 513.2634 187.099 511.475 187.2108 509.9102 187.7696 508.2337 187.6579 507.0042 185.9813 506.4453 186.5402 505.4394 187.4343 504.7688 188.2167 504.3217 188.9991 503.7628 190.6757 500.1861 193.3582 496.4977 194.8112 493.927 195.3701 493.0328 195.3701 492.0268 195.2583 490.1267 191.1228 487.7795 185.9813 485.8794 183.0752 484.3146 181.6222 482.8616 178.1573 480.4026 175.4748 477.0495 174.0218 476.3789 172.457 476.0436 170.5569 474.8141 169.6627 473.8081 169.3274 472.8022 169.2156 471.7963 168.8803 470.6785 168.8803 470.2315 168.9921 469.6726 169.1039 469.2255 168.6568 468.8902 168.2097 468.8902 167.6508 469.002 167.092 469.002 166.6449 468.7784 165.7507 466.8783 165.5272 462.2957 164.9683 460.3956 161.0563 460.0603 160.0504 459.725 159.8268 459.2779 159.8268 458.6073 159.268 457.9366 158.4856 457.6013 156.6972 457.3778 155.8031 457.1542 153.1206 455.5894 152.7853 454.807 152.5617 453.1305 152.1146 452.4598 150.7734 451.7892 146.8614 451.4539 145.5201 451.0068 144.7377 449.5538 144.7377 448.4361 144.2906 447.6537 142.167 447.6537 141.1611 447.3184 139.8198 445.9771 139.0374 445.6418 137.3608 445.6418 136.5784 445.4183 134.5666 443.7417 132.89 443.1828 127.6367 441.7298 126.2955 441.0592 122.3835 437.4825 121.154 436.7001 119.701 436.3648 118.0244 437.0354 115.789 435.9177 112.4359 433.347 107.6297 430.9998 106.512 430.1056 105.5061 428.8761 105.059 427.6466 104.5001 425.0759 103.8295 423.8464 103.2706 423.3993 101.8176 422.9523 101.147 422.6169 100.5881 422.0581 99.8057 420.6051 99.2469 420.0462 98.1292 419.2638 92.9877 416.5813 91.1993 412.2222 90.7523 410.881 90.864 409.7633 92.6524 407.9749 98.3527 406.0748 100.2528 404.3982 100.6999 402.8334 100.3646 401.4922 99.9175 400.3745 99.5822 399.0332 99.9175 395.3448 99.8057 394.0035 99.3586 392.5505 98.1292 390.2033 97.235 387.5208 96.3408 386.1795 95.2231 385.0618 93.0994 384.2794 92.5406 383.8323 92.0935 383.2735 91.5347 382.9382 89.411 382.6029 88.1815 382.6029 85.499 383.1617 84.2695 383.2735 81.6988 382.2675 79.1281 380.2557 74.9925 375.673 74.2101 375.226 73.5395 374.7789 72.9806 374.1083 72.5336 373.5494 72.31 371.9846 70.5217 370.0845 70.4099 367.0667 69.5157 365.6136 62.1388 358.7956 59.3446 357.5661 54.4266 357.0073 51.6323 355.4425 49.9558 355.2189 48.2792 355.2189 43.473 354.3248 37.4374 355.3307 34.6431 355.2189 31.9606 353.5424 31.0664 353.3188 30.5076 352.9835 29.9487 352.3129 29.6134 351.6422 27.6015 349.6304 24.5837 349.9657 19.1069 351.8658 18.6598 351.6422 17.2068 350.5245 16.5362 350.0774 15.9773 350.0774 14.6361 350.0774 13.1831 349.8539 12.6242 349.8539 9.6064 349.0715 8.2651 348.6244 6.0297 347.2832 3.6825 345.6066 1.7824 343.3712 1 340.8004 1.2235 338.0062 2.3413 334.9883 7.1474 326.9408 7.9298 325.9349 11.5065 323.5877 12.0653 322.8053 11.6183 321.6876 9.2711 319.8992 8.7122 318.6697 9.0475 317.4403 10.6123 315.0931 10.8359 313.8636 9.2711 313.0812 6.0297 313.0812 5.1355 313.193 5.5826 312.6341 5.6944 311.4046 6.2532 310.734 11.1712 306.9338 13.8537 305.7043 23.2425 299.7804 25.1426 299.3333 32.9666 298.5509 37.2139 297.0979 38.108 296.6508 38.5551 295.9802 38.5551 286.7032 38.6669 286.1443 39.114 284.8031 46.938 271.6141 47.2733 270.7199 47.385 270.2728 49.0616 253.6189 49.6205 252.0541 50.2911 251.0482 52.8618 248.701 58.1151 242.7771 58.7857 240.7652 58.8975 239.7593 58.7857 216.5109 59.0092 214.7226 59.3446 214.1637 59.6799 213.7166 60.0152 213.7166 60.7976 213.6048 61.8035 213.4931 62.4741 213.1578 63.2565 212.7107 66.1626 210.2517 69.1804 208.3516 70.2981 207.1221 72.6453 203.8807 73.8748 202.6513 74.5454 201.6453 75.3278 200.0805 75.7749 198.5157 78.0103 193.8213 79.0163 191.2506 79.1281 190.8035 79.1281 190.2447 79.0163 189.7976 78.7927 188.9034 78.1221 187.2268 78.0103 186.7798 77.7868 185.7738 77.7868 185.1032 78.0103 184.0972 82.3694 174.8202 83.2636 173.7025 83.8224 173.1437 84.3813 172.9201 85.7226 172.5848 86.952 172.026 87.8462 171.9142 90.0816 172.026 91.0876 171.9142 93.2112 171.02 93.6583 171.02 94.6642 171.1318 95.2231 171.1318 96.0055 170.7965 96.6761 170.6847 97.235 170.5729 98.2409 170.7965 98.688 170.9083 99.5822 171.2436 100.141 171.4671 100.5881 171.5789 101.147 171.5789 101.5941 171.4671 102.3765 171.1318 102.9353 171.1318 103.8295 171.2436 104.2766 171.2436 104.8354 171.1318 106.4002 170.3494 106.8473 170.2376 107.8532 170.1259 108.4121 170.1259 109.418 170.0141 110.3122 169.6788 111.0946 169.3435 112.4359 168.8964 113.4418 168.6728 114.4477 168.6728 117.9127 168.7846 118.9186 168.5611 119.9245 168.3375 120.2598 168.2257 126.519 165.9903 130.3193 165.0961 130.7663 164.9844 133.5606 164.9844 135.4607 164.6491 136.9138 164.3138 137.3608 164.202 140.8257 164.3138 141.4964 164.202 142.2788 163.9784 144.0671 163.196 147.9791 162.0783 148.8733 162.0783 149.2086 162.3019 152.897 166.9963 153.3441 167.6669 153.5677 168.114 153.6794 168.5611 154.1265 182.0854 154.3501 182.6442 154.5736 182.9795 155.1325 183.6502 155.8031 184.209 158.9327 185.9974 160.1622 186.5562 162.5094 187.2268 162.7329 187.3386 163.2917 187.7857 163.6271 188.121 164.1859 188.7916 169.3274 197.2862 170.3333 198.6275 171.5628 199.857 178.1573 202.4277 194.3641 221.5406 210.6827 240.7652 214.4829 243.2242 216.6066 244.2301 221.6363 244.5655 222.5305 244.5655 255.7265 233.1648 278.0807 232.7177 281.9927 233.3883 294.2876 233.2766 301.3292 234.1707 301.7762 234.1707 303.5646 233.7237 304.1234 233.6119 315.077 235.2884 323.5716 234.8414 325.0246 234.5061 325.9188 234.1707 334.637 252.613 338.7725 257.1956 373.198 257.5309 407.5118 257.8662 407.6235 257.8662 406.5058 255.6308 406.1705 252.613 406.2823 248.8128 408.0706 245.4596 413.6592 239.9828 420.1419 234.9531 421.9303 233.5001 432.4367 227.9116 442.8315 224.1113 462.615 219.6405 469.8801 212.7107 473.9039 206.3397 474.0156 193.7096 476.6981 191.6977 481.3925 188.7916 504.4174 177.5028 508.3294 175.1556 528.56 188.2328 548.9023 201.31 571.7036 221.8759 573.0449 222.8818 574.2744 223.3289 575.5039 222.6583 576.5098 221.6524 578.1864 220.9817 579.3041 220.7582 589.0282 220.4229 607.4704 219.4169 613.5061 216.958 632.0601 198.5157 650.5023 180.0735 660.0029 168.3375 662.3501 165.8785 667.7151 157.4957 673.4154 143.0772 674.5331 141.4007 694.7637 124.0761 715.1061 106.7516 716.4473 104.0691 716.8944 101.8337 710.747 90.2095 709.4057 84.2856 709.1822 75.1204 710.4117 60.9254 709.9646 51.8719 709.8528 50.866 709.4057 49.5248 709.1822 48.9659 686.4926 23.3703 715.1061 23.2585 743.7195 23.1468 743.8312 21.0231 743.8312 19.9054 743.6077 18.8994 742.49 15.7699 741.9311 11.7461 741.8194 10.6284 741.9311 9.5107 742.2664 7.387 742.2664 6.1575 742.2664 5.7105 742.1547 5.1516 742.1547 4.7045 742.3782 4.3692 783.51 4.8163 782.9512 12.0814 778.0332 29.0706 778.145 39.3536 776.9155 50.9778 776.5802 51.8719 775.4625 54.4427 774.5683 55.8957 773.4506 57.237 773.1153 57.7958 772.6682 58.5782 772.6682 59.9195 776.9155 92.4449 781.1628 124.9703 780.8275 126.6469 780.604 127.7646 778.2568 131.7883 777.6979 133.1296 777.5861 134.1355 778.4803 134.8062 797.4814 141.8477 798.3756 142.2948 799.0462 142.8537 805.8642 151.2365 824.53 166.6609 843.1958 182.0854 844.5371 183.5384 848.3373 193.2625 848.7844 194.7155 848.8961 197.0627 848.7844 198.851 847.8902 204.5514 848.2255 207.2339 848.7844 208.9105 849.3432 210.9223 849.3432 211.4812 849.2315 212.04 849.0079 212.9342 843.4194 224.1113 841.631 232.0471 841.0722 238.7534 841.4075 242.5536 842.0781 245.1243 842.3017 245.6832 842.5252 246.0185 842.8605 246.3538 843.084 246.4656 857.7261 246.4656 858.8438 268.2609 860.0733 293.5212 861.3028 318.6697 860.8557 320.9052 860.5204 322.8053 859.4026 324.8172 857.6143 326.829 849.1197 334.4295 847.3314 335.5472 845.7666 335.9943 840.8486 335.9943 837.9426 336.3296 836.4895 336.7767 835.1483 337.3355 834.2541 337.8944 830.6774 341.024 830.2304 341.1358 829.3362 341.2475 825.4242 340.8004 823.3006 338.3415 821.624 335.4354 818.9415 333.0882 817.1531 332.8647 815.9237 333.3118 814.6942 334.0942 813.0176 334.3177 811.7881 333.7589 810.4469 332.7529 808.9938 331.8587 807.3173 331.9705 807.7644 332.6411 807.7644 332.9765 806.8702 333.4235 801.0581 334.0942 799.9404 333.8706 799.2697 333.8706 798.5991 334.2059 797.4814 335.2119 796.5872 335.4354 787.3102 333.3118 785.7454 333.5353 783.2865 335.7707 783.3982 336.1061 783.6218 336.6649 782.9512 337.2238 781.7217 337.4473 780.4922 338.0062 780.1569 338.6768 779.9333 339.3474 779.9333 340.8004 779.9333 341.1358 779.4862 341.8064 779.3745 342.2535 779.598 342.477 780.3804 343.0359 780.4922 343.3712 780.2686 344.4889 779.598 346.0537 779.3745 346.7243 779.7098 347.7303 780.2686 348.6244 780.9393 349.295 781.4981 350.1892 782.2805 350.6363 783.51 351.1952 783.2865 352.3129 782.7276 352.76 781.9452 352.9835 781.1628 353.5424 780.4922 354.5483 780.1569 355.3307 780.0451 356.2249 779.9333 357.4543 780.2686 357.9014 781.3864 358.7956 781.7217 359.2427 781.4981 360.9193 780.8275 362.1487 779.7098 363.0429 778.2568 363.7135 775.686 364.1606 775.2389 364.6077 775.1272 365.3901 774.6801 366.1725 774.233 367.0667 769.3151 372.0964 768.1974 373.5494 767.7503 374.4436 767.415 376.2319 766.9679 376.7908 766.5208 377.2378 766.1855 378.132 766.0737 378.2438 764.956 379.4733 764.6207 380.3674 766.8561 386.1795 767.5267 387.5208 768.9798 388.415 769.3151 389.1974 769.6504 389.9798 769.9857 390.5386 770.5446 390.7622 772.8917 391.0975 774.7919 391.8799 775.9096 392.1034 776.4684 391.321 776.9155 391.0975 779.7098 390.5386 780.3804 390.6504 782.8394 391.6563 785.6337 392.1034 786.4161 392.327 787.7573 393.4447 789.0986 395.0095 790.6634 396.4625 795.4695 397.692 796.4755 397.5802 798.5991 396.2389 799.3815 395.9036 803.07 395.1212 805.3054 395.0095 806.8702 395.5683 807.5408 396.1272 809.2174 396.5743 809.9998 397.0213 810.8939 397.8037 812.0117 399.3685 812.9058 400.0392 814.8059 400.598 820.3945 400.0392 821.2887 400.2627 823.6359 401.8275 826.3184 402.6099 827.2125 403.057 828.3303 404.2865 831.0128 408.1985 835.3718 411.3281 836.266 411.5516 838.0543 411.7751 838.9485 411.9987 841.5193 413.5635 852.2493 424.5171 853.7023 426.8642 854.2612 429.7703 854.3729 437.9296 854.4847 438.3767 855.0436 438.6002 859.0673 441.7298 861.4145 444.6359 863.0911 445.8653 864.6559 445.53 866.1089 444.8594 867.2266 445.53 868.1208 447.0948 868.4561 448.8832 868.4561 451.5657 868.4561 452.5716 868.6796 454.4717 869.3503 455.3659 870.0209 455.5894 870.5798 456.0365 871.4739 457.1542 874.9388 459.8367 875.3859 460.2838 875.833 461.8486 876.3919 462.1839 876.9507 462.5193 877.286 462.8546 889.4691 465.7606 895.0576 469.6726 895.7283 470.7903 896.2871 472.1316 896.7342 473.5846 896.846 475.2612 896.6224 475.5965 895.84 476.1553 895.6165 476.1553 895.7283 476.7142 896.1754 477.6084 896.2871 477.9437 896.846 481.5204 897.8519 482.4145 899.305 482.7498 902.9934 482.7498 904.8935 482.9734 906.3465 483.5322 912.2704 487.4442 912.7175 488.3384 913.1646 489.9032 914.1705 491.1327 914.8411 491.468 915.6235 495.0447 916.5177 498.5096 918.4178 503.5393 919.2002 508.4572 919.8708 510.2455 923.3358 516.1694 923.8946 518.4048 924.0064 523.4345 924.3417 525.2229 927.4713 530.4761 929.0361 534.7234 930.4891 536.4 932.0539 537.853 933.6187 539.7531 934.2893 541.4297 934.96 546.0123 935.1835 547.0183 934.2893 548.9184 933.954 549.8125 933.954 550.8185 934.2893 551.8244 935.7424 553.3892 936.0777 554.2834 935.8541 555.5129 935.5188 556.5188 935.407 557.5248 935.5188 558.6425 936.413 560.5426 943.3428 570.4902 944.5723 572.7256 945.3547 577.7553 946.2488 579.4319 950.0491 582.2262 956.9789 586.3617 960.332 589.0442 960.8909 590.7208 961.338 591.7267 960.7791 592.7327 960.1085 593.6268 959.4378 594.6328 959.3261 595.6387 959.6614 596.4211 962.4557 600.892 963.7969 602.345 965.3617 603.1274 967.4854 602.7921 969.3855 601.4508 972.8504 597.6506 974.7505 596.3094 976.3153 595.974 978.2154 595.974 980.0037 596.3094 981.4568 596.6447 983.4686 597.7624 987.1571 600.7802 989.2807 601.3391 991.2926 601.0037 992.8574 600.2213 994.4222 599.886 996.6576 600.4449 1002.2462 603.9098 1007.0524 605.8099 1007.3877 606.5923 1005.1523 609.9454 1004.4816 611.9573 1004.8169 613.6339 1006.4935 616.8752 1007.2759 618.9989 1007.2759 620.7872 1006.6053 622.4638 1003.2521 626.7111 1002.8051 627.8288 1002.4697 645.824 1003.2521 650.0713 1005.264 653.648 1017 666.1663Z" />
</svg>