<?xml version="1.0" encoding="utf-8"?>
<svg xmlns="http://www.w3.org/2000/svg" viewBox="0 0 612 1024" style="stroke-width:0.25px;stroke-linejoin:round;stroke:#444;fill:#ddd" fill-rule="evenodd">
  <path class="ST" d="M134.2725 787.8513L147.9086 797.1283 161.88 812.2174 173.5042 829.6537 179.7634 846.1958 182.4459 862.4026 182.2223 872.015 179.7634 883.0803 174.9572 894.8163 169.8157 902.1932 154.9502 916.1646 147.4615 925.3298 130.137 953.8315 126.4485 955.2845 120.7482 956.514 117.1715 959.0847 121.307 969.5912 116.8362 972.0502 110.0182 973.3914 105.3238 974.9562 95.935 985.4627 94.7055 987.3628 74.4749 987.8099 71.7924 987.3628 65.3097 1009.1582 59.0505 1017.541 51.1147 1008.0405 46.6439 1018.6587 40.3847 1020 34.2373 1014.2997 30.4371 1003.4579 31.3312 1002.6755 34.3491 992.2807 34.5726 987.3628 32.5607 981.1036 30.1018 978.5329 27.7546 977.1916 25.8545 974.9562 4.3944 905.8816 1.0413 899.9578 3.8355 894.5927 4.9532 889.2277 5.1768 877.0447 6.6298 872.2385 18.3658 858.2671 20.8248 852.7903 21.4954 848.8783 22.9484 845.0781 44.2967 823.618 48.9911 821.3826 71.6806 813.6704 90.6817 798.0224 110.2417 785.6158 134.2725 787.8513ZM607.9587 19.2009L604.7174 21.9952 597.8993 24.7894 591.0813 28.7014 587.3928 35.4077 596.3345 36.8607 604.2703 41.2198 607.3999 45.8024 601.8113 47.9261 593.0932 49.938 590.746 55.1912 591.5284 68.9391 588.3988 81.0103 585.381 87.046 581.0219 89.6167 573.4215 90.8462 571.186 94.3111 571.4096 99.5644 570.7389 106.1589 569.1741 103.9234 567.274 99.4526 566.3799 97.5525 562.2443 99.3408 558.4441 102.0233 553.0791 92.2992 544.6963 89.3932 535.8663 88.8343 529.0483 85.4812 527.1482 66.7036 527.5953 55.5265 533.1838 56.5325 543.2432 52.2851 548.1612 46.6966 549.6142 39.0961 549.6142 29.2603 552.8556 17.6361 561.0149 8.4708 571.7449 4 582.8102 6.459 599.4641 7.912 606.1704 10.9298 607.9587 19.2009Z" />
</svg>