<?xml version="1.0" encoding="utf-8"?>
<svg xmlns="http://www.w3.org/2000/svg" viewBox="0 0 1021 564" style="stroke-width:0.25px;stroke-linejoin:round;stroke:#444;fill:#ddd" fill-rule="evenodd">
  <path class="SV" d="M7.818 312.8488L1.1118 284.7943 1 278.088 2.0059 271.0464 4.2414 264.2284 7.5945 257.9692 12.6242 252.8277 24.1366 246.6803 29.2781 242.433 33.0783 236.3974 35.8726 230.1382 39.4493 223.9908 45.7085 218.514 86.0579 190.2359 94.8878 181.2942 99.3586 178.2763 118.0244 171.2348 124.1718 170.7877 131.7723 172.7996 142.7259 181.2942 148.8733 183.8649 155.0207 180.5118 155.1325 178.0528 154.7971 177.3822 152.1146 171.123 151.7793 167.7699 152.897 164.1932 170.8922 132.4502 179.275 123.2849 189.7815 115.1256 200.8469 109.9842 245.8906 99.1424 248.6849 96.4598 248.5732 89.7536 247.2319 87.9652 241.8669 85.2827 240.0785 83.4944 239.2961 80.7001 238.5138 74.1056 237.9549 72.0937 235.4959 67.3993 234.3782 65.7228 231.9193 63.4873 229.0132 62.1461 220.1833 61.0284 217.6125 54.881 220.0715 51.1925 224.3188 48.1747 227.0013 43.9274 225.7718 38.8977 222.754 34.6504 220.8539 29.7325 223.6482 22.9144 229.5721 18.4436 235.7195 19.0024 240.3021 23.585 241.5316 31.6326 247.2319 27.497 257.6266 14.9787 260.5327 13.7492 265.1153 11.7373 271.7098 12.6315 276.516 15.2022 281.2103 16.8788 287.8048 15.5375 297.4172 5.7017 301.6645 4.0251 302.2233 12.4079 304.347 9.0548 304.7941 8.0488 316.8653 16.8788 316.9771 16.9905 323.4598 17.9965 339.6667 20.5672 352.6321 26.8264 374.0922 31.409 384.7105 38.8977 404.0469 44.7098 408.0706 41.1331 414.1063 29.3971 417.4594 25.9322 421.1479 24.9263 423.6068 25.3734 425.7305 27.2735 428.0777 30.6266 430.2013 34.5386 431.0955 38.8977 430.7602 43.2568 429.0836 47.5041 433.8898 51.6396 448.1965 53.3162 454.9028 56.6693 457.5853 62.0343 459.2618 75.3351 461.1619 79.2471 471.7802 87.2946 475.5804 91.989 479.3806 98.36 480.9454 103.8367 481.169 105.8486 481.6161 109.4253 482.9573 114.0079 486.6458 116.6904 490.7813 115.7963 495.6992 112.8902 501.6231 110.3195 508.1058 110.4312 518.5006 117.1375 527.3305 128.2029 533.5897 141.1683 536.3839 153.3514 543.7608 152.2337 562.0913 153.6867 567.121 151.6748 571.4801 148.9923 575.1685 148.657 578.1864 153.5749 577.7393 160.84 575.2803 167.9934 575.0568 174.1408 581.6513 178.3881 590.593 179.6176 592.6048 180.2882 595.6227 182.9707 597.6345 185.8768 598.6405 189.4535 598.4169 191.6889 598.4169 192.4713 600.9877 191.4653 611.6059 189.7888 622.336 190.5712 654.079 200.7424 672.633 202.0836 676.6568 203.8719 680.457 207.5604 680.1217 208.9017 680.0099 209.9076 679.7864 210.1311 679.3393 210.4664 679.2275 210.4664 677.5509 210.2429 677.998 211.2488 680.1217 215.9432 679.8981 220.9729 678.4451 226.2262 677.5509 232.5971 678.6686 236.7327 683.2513 248.1333 683.5866 254.9514 679.8981 261.0988 691.0752 260.5399 698.8992 255.7338 706.4997 252.4924 723.4889 248.804 727.4009 249.0275 734.1072 251.5982 737.2367 251.9336 737.6838 250.7041 737.6838 248.1333 738.0191 245.4508 739.3604 243.886 742.0429 243.7743 745.396 244.3331 748.7492 245.3391 751.4317 246.4568 754.3377 241.0917 758.9204 239.4152 763.9501 238.9681 768.5327 237.4033 771.8858 234.2737 773.2271 231.703 774.9036 228.7969 777.6979 225.6673 782.7276 223.5437 786.4161 224.1025 789.0986 223.5437 791.1105 217.6198 790.4398 216.5021 786.6396 213.0372 785.7454 211.4724 785.4101 202.866 785.5219 201.413 789.6574 199.8482 796.0284 200.5188 797.0343 200.7424 807.0937 202.9778 813.8 203.2013 835.7072 200.5188 846.7725 201.1894 851.5787 205.2132 857.7261 221.1965 863.7617 228.5734 871.5857 235.615 878.4037 243.886 881.8686 254.5043 900.9815 245.0037 907.2407 243.3272 908.2466 243.4389 910.5938 243.9978 916.7413 248.0216 919.6473 248.804 921.5474 247.9098 926.9124 243.6625 930.2656 242.5448 934.4011 242.7683 942.6722 244.5567 946.6959 244.2213 950.7197 241.3153 954.1846 236.9562 958.4319 233.3795 964.6911 233.156 968.7149 236.2856 972.7386 247.6862 976.2035 252.8277 978.3272 254.0572 984.251 256.4044 986.8218 257.7457 993.4163 263.5578 1005.264 273.7289 1012.6409 276.7468 1008.9525 283.0059 1000.4579 302.6777 998.3342 309.7193 1001.0167 316.8726 999.0048 321.4552 994.7575 325.479 991.0691 330.7322 989.6161 338.4444 989.9514 354.4277 988.9454 362.2517 978.886 386.7296 976.4271 398.5773 980.8979 408.4132 985.1452 409.978 994.0869 407.0719 1000.1226 409.4191 1003.3639 413.2194 1005.5993 418.3608 1006.27 424.1729 1005.264 429.6497 998.1107 437.9208 965.0264 453.1217 964.6911 453.0099 961.4497 450.998 959.3261 447.5331 956.1965 438.2561 944.3487 458.822 941.3309 470.8933 949.0431 476.2583 953.9611 478.1584 967.8207 491.571 975.7564 496.936 976.4271 499.3949 976.4271 504.6482 973.0739 513.8134 964.6911 520.4079 933.5069 536.1677 925.0123 542.9857 923.5593 549.8037 933.2834 556.51 918.4178 559.9749 860.6321 555.9512 846.996 553.3804 844.2018 553.3804 837.1602 556.1747 800.9463 559.1925 762.0499 553.2686 751.9905 556.51 746.6255 554.7217 740.4781 553.3804 740.4781 550.6979 749.9787 550.0273 750.6493 543.4328 745.6196 535.1617 737.9074 529.7967 739.5839 533.1498 744.6136 540.1914 746.5138 544.5505 731.3129 543.9916 723.936 544.774 717.565 547.4565 721.7006 549.2449 724.9419 548.686 728.8539 547.5683 734.7778 547.4565 734.7778 550.6979 725.0537 554.7217 714.2119 554.3864 705.829 549.2449 703.2583 538.6266 707.3938 540.5267 708.9586 541.5327 714.7707 535.7206 714.7707 533.0381 707.5056 529.7967 699.6816 518.6196 694.4284 515.3782 695.7696 521.5256 698.2286 526.6671 699.4581 531.2497 697.558 535.7206 691.4106 532.1439 673.6389 527.673 666.0385 523.6493 659.1087 511.2427 655.8673 509.2308 650.9494 508.7837 637.0898 505.9894 630.9424 505.9894 613.9531 509.2308 590.2576 509.7897 585.0044 512.1369 587.9105 514.3723 590.9283 516.0488 594.0579 516.6077 596.7404 515.3782 608.5881 518.0607 642.343 514.484 646.0315 515.0429 651.5083 518.0607 654.4143 520.7432 659.6675 527.1142 663.1325 529.7967 663.1325 533.0381 655.3085 531.6968 649.6081 530.5791 637.0898 526.8906 637.0898 529.7967 671.5153 536.8383 689.5105 542.7622 697.558 550.6979 694.5402 555.8394 687.0515 554.6099 678.6686 550.1391 673.1919 546.0035 667.0444 542.8739 558.6264 522.6433 545.6609 516.6077 441.4902 467.9872 391.752 437.3619 363.2504 424.7318 332.4015 417.3549 318.0948 417.3549 307.1413 414.7842 247.5672 415.343 222.0834 408.8603 210.1239 406.5131 183.5223 397.7949 169.4392 400.701 129.6486 401.1481 123.2777 396.789 119.0304 380.9175 117.4656 370.9699 112.2123 366.6108 103.4942 361.2458 69.5157 341.9094 40.2317 328.4968 7.818 312.8488ZM1003.1404 542.8739L1002.8051 537.3971 1005.8229 535.1617 1011.635 537.0618 1015.2117 544.9976 1015.4352 551.5921 1017 555.9512 1013.5351 557.963 1008.0583 555.9512 1004.4816 557.6277 1004.4816 552.9333 1002.2462 548.3507 1003.1404 542.8739ZM986.5982 521.4139L989.8396 523.4257 992.6339 529.6849 990.1749 533.2616 987.3806 535.9441 981.9039 531.0262 980.5626 524.2081 983.0216 521.7492 986.5982 521.4139Z" />
</svg>