<?xml version="1.0" encoding="utf-8"?>
<svg xmlns="http://www.w3.org/2000/svg" viewBox="0 0 773 1024" style="stroke-width:0.25px;stroke-linejoin:round;stroke:#444;fill:#ddd" fill-rule="evenodd">
  <path class="SZ" d="M672.1402 145.9494L687.1175 160.2561 703.6596 169.086 741.8854 179.0337 734.3967 199.1525 737.4145 222.1773 744.2326 245.8728 748.1446 268.0035 746.1327 285.1045 727.0198 335.8486 724.2255 354.5144 731.3789 420.6829 735.738 438.6781 762.8983 493.6695 768.8222 546.3138 766.8103 712.2939 757.5333 708.1584 743.4502 693.8517 734.1732 692.0634 695.6121 691.8398 696.8416 711.1762 687.1175 768.1795 678.1758 821.2708 668.0046 880.6213 669.2341 920.4119 669.5694 932.8185 671.0224 980.7683 674.2638 990.1571 678.1758 997.1987 681.0818 1004.1285 682.7584 1011.5054 683.0937 1020 631.4554 1019.3294 576.2405 1018.547 492.4121 1017.4293 428.9261 1016.5351 390.365 1008.7111 331.2381 988.257 287.2002 972.9443 266.8579 965.9028 216.3373 948.4664 207.7309 942.5426 198.7892 933.6009 171.2935 891.9102 112.2783 838.1483 99.4246 815.7941 96.9657 799.699 102.8895 774.327 103.5602 758.2319 100.207 745.49 94.0596 735.9894 77.6293 718.4414 70.0288 706.7054 60.0812 677.3096 57.1751 668.5914 50.5806 676.8625 41.7507 684.3512 31.9149 689.8279 22.4143 691.7281 12.3549 692.2869 8.4429 677.1978 2.7426 633.0482 1.8484 544.1901 1.1778 475.6744 13.5844 427.6128 67.011 359.6559 108.7017 306.6763 147.8216 236.8194 178.7822 162.268 187.5003 128.5131 194.989 115.2123 245.9567 69.4979 303.9659 17.6361 320.1727 9.4768 340.068 4.2235 356.9454 4 371.5875 8.8062 432.6145 48.3732 493.5298 87.9402 546.2858 122.3657 555.7864 128.4013 606.1952 161.262 622.7373 166.2917 639.1677 162.3798 672.1402 145.9494Z" />
</svg>