<?xml version="1.0" encoding="utf-8"?>
<svg xmlns="http://www.w3.org/2000/svg" viewBox="0 0 1021 549" style="stroke-width:0.25px;stroke-linejoin:round;stroke:#444;fill:#ddd" fill-rule="evenodd">
  <path class="TC" d="M16.4244 209.5609L36.8785 206.4314 37.1021 230.0151 22.9072 258.405 1 270.2527 1 265.223 9.2711 256.8402 14.4125 242.3099 16.648 225.2089 16.4244 209.5609ZM732.207 209.5609L716.5591 199.8369 683.2513 185.4184 670.174 170.441 673.6389 167.9821 676.7685 166.7526 679.2275 164.6289 680.9041 159.8228 705.829 176.2531 719.018 181.7299 737.3485 186.9832 752.5494 193.3541 766.9679 205.2019 774.3448 221.8558 768.6444 242.6452 759.8145 244.5453 749.1963 233.8153 732.207 209.5609ZM510.6766 142.8336L492.0108 144.5101 486.1987 139.9275 479.4924 126.7385 476.8099 117.3497 474.798 87.5068 481.0572 87.9539 487.4282 89.4069 493.4638 91.9777 505.7586 100.6958 512.912 100.6958 519.73 98.7957 526.5481 98.1251 572.7096 104.049 594.1696 99.6899 603.8937 99.131 613.7296 104.049 621.6653 114.2201 639.884 153.7871 627.0304 149.5398 618.7593 138.2509 611.9413 125.1737 603.5584 115.1143 609.5941 133.2212 623.6772 161.3876 629.154 176.3649 619.0946 178.3768 611.6059 173.1235 598.4169 153.7871 593.9461 162.0582 592.8284 165.4113 588.134 165.4113 576.398 143.2806 557.0616 137.1332 510.6766 142.8336ZM109.1945 132.2153L106.9591 121.7088 114.7831 96.225 114.336 82.4771 131.2134 90.7482 178.4926 134.6743 188.4403 138.3627 203.1941 138.3627 217.8361 135.792 227.6719 132.2153 238.402 121.8206 244.5494 113.2142 252.5969 111.0905 269.1391 120.7029 269.1391 126.7385 249.132 146.0749 243.0964 153.7871 239.1844 142.0512 238.402 137.245 217.389 148.3103 220.1833 149.2045 222.754 149.7634 225.213 150.9928 227.6719 153.7871 216.4948 159.8228 197.4937 157.0285 186.5402 159.8228 186.5402 148.3103 156.809 172.3411 143.2847 174.353 134.9019 153.7871 139.4845 153.7871 144.1789 160.7169 151.2205 164.1818 156.4737 162.5053 155.8031 153.7871 151.2205 149.5398 125.066 137.245 127.525 148.3103 125.6249 156.5814 119.3657 162.2817 109.1945 165.4113 107.5179 160.0463 107.0708 156.3579 107.7415 152.893 109.1945 148.3103 110.424 151.7752 110.7593 152.3341 111.5417 152.3341 114.336 153.7871 117.242 143.1689 126.7426 125.7326 129.7604 115.1143 113.5536 127.7444 109.1945 132.2153ZM346.0376 48.3869L342.908 40.7865 344.1375 32.8507 343.8022 25.6974 335.3076 20.6677 338.6607 14.4085 343.4669 9.4905 349.5025 5.9139 356.3206 4.1255 400.1349 4.1255 404.6057 5.0197 414.7769 9.1552 420.7008 10.1612 429.4189 12.8437 431.0955 19.3264 428.6365 31.733 435.1193 79.2358 446.2964 95.6661 469.6565 98.1251 454.791 110.0846 441.7138 106.955 430.4249 98.1251 420.7008 93.0954 414.3298 91.0835 405.3881 85.942 396.8935 78.9004 392.1991 70.9647 393.2051 60.3464 404.7175 41.4571 407.6235 31.733 401.9232 17.6498 389.6284 25.0267 371.6332 45.8162 368.6154 52.1871 361.3503 53.8637 352.7439 52.1871 346.0376 48.3869ZM1010.182 364.4758L1015.9941 377.1059 1017 397.8954 1013.5351 418.6848 1005.0405 430.7561 999.899 415.4435 1000.4579 397.4483 1004.5934 379.5649 1010.182 364.4758ZM597.0757 537.0505L602.776 533.362 607.4704 531.6855 604.0055 537.8329 591.04 544.8745 588.6928 543.4215 597.0757 537.0505ZM637.3133 521.7378L641.4488 517.267 641.8959 528.6677 637.0898 541.2978 632.3954 534.4798 637.3133 521.7378ZM956.1965 503.5191L963.5734 503.8545 969.2737 508.6606 962.6792 518.2729 953.2904 528.3323 949.1549 525.3145 952.9551 510.449 956.1965 503.5191ZM739.4722 319.432L741.037 324.3499 740.3663 351.0633 741.037 369.5055 735.0013 380.3473 722.4829 384.1475 709.9646 375.9882 708.3998 362.1286 717.3415 355.8694 726.3949 357.2107 731.5364 353.0751 731.6482 333.8505 737.0132 319.7673 739.4722 319.432ZM268.692 88.8481L272.8275 86.1656 275.1747 89.5187 269.1391 95.1073 262.6563 94.4366 268.692 88.8481ZM291.3815 66.2703L295.2935 63.8113 297.1936 67.4998 297.1936 74.0943 292.7228 78.6769 287.6931 80.8006 286.24 74.9884 291.3815 66.2703Z" />
</svg>