<?xml version="1.0" encoding="utf-8"?>
<svg xmlns="http://www.w3.org/2000/svg" viewBox="0 0 831 1024" style="stroke-width:0.25px;stroke-linejoin:round;stroke:#444;fill:#ddd" fill-rule="evenodd">
  <path class="AQ" d="M54.8233 130.4132L54.2645 130.0779 54.488 129.9661 55.0469 130.0779 54.8233 130.4132ZM657.4935 1013.9644L657.1582 1013.8526 656.9347 1013.7408 656.7111 1013.4055 656.3758 1013.182 656.0405 1013.0702 655.3699 1012.9584 655.1463 1012.7349 655.1463 1012.5113 656.0405 1012.176 657.0464 1012.3996 658.1641 1013.629 658.8348 1014.1879 659.0583 1014.635 658.9465 1015.0821 658.6112 1014.9703 657.4935 1013.9644ZM632.0097 1007.1463L631.8979 1007.5934 631.5626 1007.8169 631.2273 1007.8169 630.7802 1007.5934 629.6625 1007.5934 629.2154 1007.4816 628.6565 1007.1463 629.1036 1006.4757 629.3272 1006.2521 629.7743 1006.1404 630.1096 1006.2521 630.892 1006.5875 631.2273 1006.6992 632.0097 1006.4757 632.1215 1006.5875 632.0097 1007.1463ZM649.6695 1002.2284L649.3342 1002.4519 648.9989 1002.4519 648.6636 1002.3402 648.44 1002.0048 650.7872 1000.6636 651.5696 1000.6636 651.5696 1000.8871 651.1226 1001.2224 650.7872 1002.0048 650.4519 1002.5637 649.6695 1002.2284ZM640.8396 995.075L640.9514 994.6279 641.1749 994.4044 641.5102 994.2926 641.622 993.9573 642.4044 992.8396 642.8515 992.2807 643.5221 991.8337 644.1927 991.6101 644.7516 991.6101 644.5281 992.2807 643.8574 992.9514 643.5221 993.3985 645.4222 993.0631 645.7575 993.0631 645.6458 993.622 645.3105 994.0691 644.9751 994.5162 644.7516 994.8515 643.9692 995.4103 643.7457 995.8574 643.7457 996.3045 643.9692 996.9751 643.7457 997.3105 643.1868 997.534 643.5221 997.8693 641.5102 998.6517 641.1749 998.4282 641.1749 996.6398 641.0631 996.1927 640.8396 995.2986 640.8396 995.075ZM641.622 990.716L641.7338 991.3866 641.9573 991.3866 642.0691 991.4983 641.9573 991.8337 641.8455 991.9454 641.622 992.0572 641.3985 992.2807 641.1749 992.7278 640.9514 993.7338 640.5043 994.4044 640.2807 994.7397 639.9454 994.9633 639.7219 994.8515 639.6101 994.5162 639.7219 994.4044 639.9454 993.2867 639.9454 993.1749 640.169 992.3925 640.6161 991.4983 641.0631 990.8277 641.622 990.716ZM646.8752 991.6101L646.5399 991.2748 646.0928 990.9395 645.7575 990.3806 645.534 989.71 646.3164 989.71 647.3223 990.6042 648.1047 990.716 647.993 991.163 647.6576 991.3866 647.3223 991.4983 646.8752 991.6101ZM670.9061 1001.6695L671.3531 1002.899 671.1296 1004.5756 670.3472 1005.9168 669.0059 1007.5934 667.4411 1007.3699 666.7705 1006.9228 666.2117 1007.3699 666.0999 1008.0405 665.6528 1008.3758 667.4411 1009.1582 669.1177 1010.3877 667.1058 1010.0524 665.0939 1010.3877 664.1998 1007.7052 661.8526 1007.0345 660.9584 1007.2581 660.176 1007.5934 659.1701 1007.7052 658.0524 1007.4816 656.4876 1007.0345 654.811 1007.3699 655.9287 1007.9287 657.0464 1008.7111 656.8229 1008.9347 656.5993 1009.0464 657.0464 1009.6053 657.4935 1010.1641 657.0464 1010.3877 656.4876 1010.4994 655.8169 1009.8288 655.2581 1008.9347 654.6992 1008.8229 654.2521 1009.1582 654.2521 1009.8288 654.6992 1010.8348 653.358 1009.8288 651.905 1009.1582 652.4638 1010.0524 653.1344 1010.4994 653.5815 1010.9465 653.6933 1011.5054 654.0286 1011.7289 654.3639 1012.0642 654.4757 1012.8466 654.5875 1013.629 656.3758 1014.5232 658.2759 1014.8585 660.0642 1015.7527 661.7408 1016.5351 660.176 1014.9703 659.8407 1013.182 660.8466 1012.8466 661.8526 1012.6231 662.7468 1012.9584 663.6409 1013.4055 665.3175 1013.5173 665.9881 1014.9703 664.4233 1016.4233 662.4114 1016.5351 663.8645 1016.8704 664.8704 1017.7646 664.1998 1018.7705 662.9703 1018.7705 662.1879 1019.1058 661.5173 1019.7765 660.2878 1019.7765 659.0583 1019.2176 657.1582 1019.3294 655.5934 1018.547 654.811 1017.3175 654.0286 1015.9762 653.9168 1014.5232 653.8051 1013.182 652.9109 1012.3996 651.905 1012.5113 652.2403 1012.9584 652.2403 1013.629 651.4579 1012.8466 650.6755 1012.6231 651.4579 1013.9644 652.4638 1015.3056 652.352 1017.2057 651.3461 1018.0999 650.4519 1017.8763 649.6695 1017.4293 648.3283 1017.3175 646.987 1016.9822 645.8693 1015.9762 644.8634 1014.7468 643.8574 1014.635 642.8515 1014.635 642.2926 1013.182 641.622 1012.0642 641.0631 1012.2878 641.2867 1013.0702 641.1749 1013.182 640.9514 1013.182 641.3985 1014.0761 641.7338 1014.9703 640.6161 1014.4114 639.7219 1012.9584 640.0572 1013.8526 640.2807 1014.8585 640.5043 1015.3056 639.9454 1015.8645 639.9454 1016.7586 639.163 1015.9762 638.9395 1014.5232 638.4924 1013.8526 638.1571 1015.3056 638.9395 1017.4293 638.0453 1018.9941 637.1512 1019.6647 636.1452 1020 635.9217 1019.8882 635.8099 1019.7765 635.3628 1019.7765 635.0275 1019.8882 633.9098 1019.8882 632.9039 1019.8882 632.0097 1019.6647 631.3391 1018.4352 631.3391 1017.6528 631.6744 1016.9822 631.6744 1015.6409 632.1215 1014.635 632.6803 1013.629 633.1274 1012.7349 632.6803 1011.9525 633.5745 1011.1701 634.3569 1010.1641 633.798 1008.9347 633.6862 1007.9287 633.2392 1007.8169 632.345 1007.9287 633.4627 1006.5875 634.9157 1006.4757 634.804 1005.8051 634.9157 1005.2462 634.2451 1005.5815 632.9039 1005.8051 632.4568 1005.0227 632.9039 1004.9109 633.2392 1004.7991 632.0097 1003.905 631.5626 1002.4519 631.3391 1001.8931 631.4508 1001.446 631.8979 1001.8931 632.345 1002.4519 633.4627 1001.3342 635.0275 1000.44 633.3509 1000.5518 632.2332 999.8812 632.6803 999.4341 633.2392 999.2106 632.345 999.2106 631.5626 999.2106 631.6744 998.7635 631.6744 998.3164 631.0037 998.0928 631.1155 997.0869 632.0097 996.8634 632.7921 997.3105 632.4568 996.081 632.4568 994.2926 633.4627 994.2926 634.4686 994.6279 633.9098 993.622 633.2392 992.7278 632.6803 991.7219 632.1215 990.9395 632.0097 990.2689 632.4568 990.0453 633.3509 989.4865 634.3569 989.4865 634.3569 988.8158 634.4686 988.1452 635.0275 987.5864 635.1393 986.5804 634.804 986.1333 635.251 985.3509 635.5864 984.4568 636.9276 983.8979 638.2689 984.0097 637.9336 984.4568 638.3806 985.1274 638.2689 985.798 639.163 986.2451 636.257 988.7041 634.5804 991.9454 634.9157 991.6101 635.251 991.2748 635.6981 991.0513 636.257 991.3866 636.0334 990.1571 636.7041 989.8218 637.0394 990.716 638.2689 988.4805 639.9454 987.251 640.5043 987.251 640.7278 987.8099 639.9454 988.4805 639.0513 989.0394 639.6101 989.8218 640.2807 989.0394 640.169 990.2689 639.4983 991.4983 638.3806 992.2807 637.8218 993.7338 638.3806 993.1749 639.0513 992.7278 638.4924 994.6279 637.0394 995.8574 636.7041 997.0869 636.5923 998.5399 637.3747 998.8752 638.0453 999.2106 637.8218 996.8634 638.9395 995.2986 639.7219 995.7457 640.3925 996.9751 640.3925 998.2046 640.5043 999.2106 641.3985 999.5459 642.0691 999.2106 644.4163 998.2046 646.3164 995.9692 646.5399 996.5281 646.7635 997.0869 646.5399 997.8693 646.3164 998.2046 646.6517 998.5399 646.987 998.2046 648.1047 995.2986 649.6695 993.8455 649.6695 994.8515 649.8931 995.7457 650.2284 995.9692 649.446 996.4163 649.2224 997.0869 650.3402 997.0869 651.1226 997.6458 650.4519 998.0928 649.446 998.5399 650.899 998.8752 650.899 999.6576 649.5578 999.993 648.3283 1000.2165 647.8812 999.8812 647.3223 999.6576 645.4222 999.3223 644.081 1000.5518 643.5221 1001.1107 642.8515 1001.7813 643.1868 1002.1166 643.7457 1001.7813 644.4163 1001.2224 645.8693 1000.1047 647.0988 1000.6636 646.0928 1001.2224 645.0869 1001.6695 646.4282 1002.1166 646.3164 1002.7872 647.0988 1002.899 647.5459 1003.5696 648.44 1003.5696 648.44 1003.7932 648.44 1003.905 647.0988 1004.1285 645.7575 1004.7991 647.5459 1004.6873 649.446 1004.4638 651.1226 1004.1285 652.6873 1003.905 651.3461 1005.1344 649.446 1005.6933 651.0108 1005.9168 652.352 1005.9168 653.2462 1005.0227 654.0286 1004.1285 654.1404 1004.6873 654.3639 1005.2462 654.9228 1004.2403 655.7052 1003.6814 655.5934 1003.0108 655.4816 1002.5637 656.0405 1002.4519 656.4876 1002.4519 656.4876 1001.8931 656.9347 1001.5578 657.4935 1001.446 657.7171 1000.8871 658.6112 1000.44 659.5054 1000.1047 660.7349 999.5459 662.0761 1000.2165 661.9644 1000.5518 661.9644 1000.8871 663.0821 1000.7754 663.9762 999.993 664.7586 998.0928 666.2117 997.3105 667.7765 997.4222 669.3413 997.9811 670.3472 998.7635 670.459 1000.44 670.9061 1001.6695ZM629.3272 982.892L629.5507 983.2273 629.2154 983.5626 628.6565 983.6744 628.2095 983.5626 627.9859 983.3391 628.3212 983.0037 628.8801 982.892 629.3272 982.892ZM632.345 982.1096L631.8979 982.5567 631.6744 982.2213 631.7861 981.5507 632.0097 980.9919 632.5685 980.8801 632.7921 981.3272 632.7921 981.7743 632.345 982.1096ZM256.1232 909.123L256.3468 909.3465 256.5703 909.5701 256.9056 910.1289 255.8997 911.4702 255.1173 911.3584 254.782 911.2466 254.4466 911.4702 253.776 911.3584 253.3289 911.0231 252.8818 910.576 252.5465 910.0172 252.2112 909.123 252.4348 908.6759 253.9996 907.5582 254.4466 907.5582 254.8937 908.0053 255.1173 908.7877 255.229 909.0112 255.5644 909.0112 256.1232 909.123ZM219.3505 899.0636L219.6858 898.84 221.4741 898.393 221.6977 898.84 222.033 899.5107 222.1448 900.0695 221.9212 900.7402 221.6977 901.0755 221.2506 901.0755 220.4682 900.7402 219.9094 900.6284 219.574 900.2931 219.4623 899.846 219.3505 899.0636ZM825.0385 652.9435L825.9327 652.9435 826.6033 653.5023 826.8268 654.3965 826.3798 654.9553 825.8209 655.1789 825.0385 654.62 824.7032 653.7259 825.0385 652.9435ZM825.7091 677.9802L825.9327 678.4273 826.0444 678.6508 825.9327 678.7626 825.8209 678.7626 825.3738 678.7626 825.262 678.5391 825.1503 678.092 825.262 677.8684 825.3738 677.7567 825.5974 677.8684 825.7091 677.9802ZM2.2909 254.0321L2.2909 253.8086 2.4026 253.8086 2.4026 254.3674 2.0673 254.9263 1.6202 254.9263 1.3967 254.8145 1.1732 254.591 1.1732 254.1439 1.2849 253.9204 1.6202 253.8086 1.8438 253.8086 1.9556 253.8086 1.9556 254.1439 1.9556 254.2557 1.8438 254.3674 1.732 254.4792 1.8438 254.591 2.1791 254.591 2.2909 254.3674 2.2909 254.0321ZM315.5855 102.9175L315.6972 102.9175 315.6972 103.0293 315.5855 102.9175ZM155.4174 4.3353L155.6409 4 155.7527 4.3353 155.4174 4.3353Z" />
</svg>