<?xml version="1.0" encoding="utf-8"?>
<svg xmlns="http://www.w3.org/2000/svg" viewBox="0 0 394 1024" style="stroke-width:0.25px;stroke-linejoin:round;stroke:#444;fill:#ddd" fill-rule="evenodd">
  <path class="TG" d="M1.1299 4L11.3011 6.0119 21.6958 8.1355 46.1737 13.1652 91.6646 22.554 109.1009 26.1307 131.3433 30.7133 131.7904 31.0486 132.014 31.4957 132.1257 32.1663 131.9022 33.0605 131.7904 33.8429 131.4551 34.7371 130.7845 35.5195 134.0259 36.3019 131.5669 44.9083 156.4919 36.1901 169.0102 33.7311 188.2349 33.3958 214.1658 32.837 209.0243 45.3553 208.4655 49.3791 208.9125 51.6145 210.5891 55.7501 210.8127 57.8737 207.7948 63.9094 207.3477 66.033 207.0124 70.7274 206.4536 72.851 203.8828 76.5395 193.041 86.9342 190.135 93.7523 191.6998 111.971 191.588 119.9067 188.682 131.3074 185.8877 152.0968 185.9994 156.7912 187.676 159.9208 202.7651 169.9802 221.6545 182.7221 233.1669 190.4343 250.1561 201.7232 278.7695 220.8361 299.7825 235.031 302.3532 241.8491 302.3532 243.4139 302.5768 258.3912 303.0239 280.5219 303.2474 296.1699 304.8122 305.6704 304.4769 308.1294 304.0298 310.1413 304.1416 314.165 303.8063 316.2887 302.5768 318.8594 299.1119 324.3362 298.2177 326.9069 298.8883 331.0425 300.9002 335.9604 303.8063 338.9782 307.2712 337.3017 309.5066 343.1138 310.9596 363.5679 313.7539 371.6154 317.5541 377.4275 318.5601 378.9923 334.5433 395.8697 346.9499 408.947 351.0855 416.1003 352.6503 421.0183 353.6562 426.495 353.9915 451.7553 354.3268 473.886 354.5504 492.5518 354.8857 519.6004 354.9975 525.6361 355.221 527.9833 356.227 530.2187 361.4802 536.8132 362.2626 538.7133 361.4802 542.29 354.9975 553.2436 354.6622 554.9201 354.6622 558.385 353.6562 563.303 354.2151 564.1971 355.4446 564.5325 356.4505 566.4326 358.5741 583.7571 358.2388 606.782 357.68 638.9721 357.7917 670.8268 358.0153 710.7292 358.0153 714.1941 358.1271 731.5186 358.2388 751.3021 358.3506 781.3685 358.4624 810.5408 358.5741 840.0484 354.9975 841.1661 339.9084 841.0543 343.7086 855.3611 346.0558 858.7142 346.2793 858.9377 349.2971 861.1732 351.0855 863.2968 351.5326 866.0911 349.9678 874.4739 350.0795 877.9388 350.9737 881.4037 352.5385 885.5393 353.6562 890.3454 352.8738 893.475 351.309 895.5987 348.2912 899.6224 346.7264 904.0933 347.9559 906.3287 350.5266 908.4524 352.762 912.4761 352.762 914.0409 352.4267 915.7175 352.315 917.6176 352.9856 919.6295 354.1033 921.3061 355.6681 922.8708 357.3447 924.2121 358.9095 925.1063 360.8096 925.3298 362.8215 925.218 364.1627 925.6651 364.498 928.0123 364.9451 929.3536 368.2982 932.1479 369.5277 933.8244 369.863 935.8363 369.3042 940.1954 369.7513 941.8719 371.0925 942.9897 375.3398 945.2251 377.1282 946.4546 382.1579 954.7256 386.0699 969.8147 389.8701 984.5685 385.7345 984.7921 360.0272 990.9395 355.8916 993.0631 357.3447 997.3105 319.4542 1003.6814 287.823 1013.4055 273.6281 1019.6647 271.9515 1019.7765 270.722 1020 271.2809 1012.9584 268.9337 1009.8288 252.3915 1007.9287 249.709 1006.4757 247.4736 1004.0167 244.9029 999.993 243.3381 998.2046 241.885 997.4222 240.432 996.7516 238.7554 995.6339 235.7376 991.163 230.4844 975.068 215.2835 975.068 211.148 973.9503 208.5772 971.9384 202.0945 964.1144 197.0648 960.9848 187.2289 956.0669 183.0934 951.7078 179.852 946.9017 177.5048 942.0955 176.2754 937.1776 176.4989 933.042 176.6107 931.8125 177.8402 929.2418 179.2932 927.4535 179.405 925.5534 176.8342 922.9826 175.0459 922.6473 169.4573 922.8708 167.5572 922.6473 165.8806 919.4059 163.0864 917.3941 160.4039 914.9351 159.2861 910.7996 161.0745 900.6284 160.8509 897.387 159.1744 894.1457 156.2683 891.3514 152.6916 889.4513 149.3385 888.6689 147.9972 886.9923 142.1851 876.1505 139.838 874.2504 137.8261 873.1327 137.2672 871.2326 138.6085 866.9853 142.744 859.9437 143.3029 856.5905 140.9557 852.3432 135.2553 847.8724 132.9081 844.8546 135.8142 843.9604 138.832 843.7369 147.2149 841.5014 149.7856 840.0484 153.5858 833.1186 153.6976 824.4004 152.8034 815.347 153.474 807.523 158.2802 795.4517 160.1803 786.0629 162.8628 778.686 163.0864 774.327 159.845 761.138 158.6155 759.4614 151.2386 762.1439 147.3266 762.8145 143.6382 762.3674 137.379 756.7789 134.1376 747.949 133.1317 738.0013 133.9141 726.3771 134.6965 723.8064 135.926 721.6827 137.9378 719.7826 140.5086 718.5531 143.7499 717.659 146.4325 716.3177 147.5502 713.6352 147.4384 708.1584 148.109 701.8992 150.6798 697.7637 156.3801 698.7696 155.933 694.8576 156.2683 684.2394 154.48 672.8387 154.7035 660.7674 154.48 659.7615 152.5799 646.4607 152.6916 638.9721 152.5799 635.0601 150.7915 627.5714 150.0091 618.0708 149.0032 613.1529 150.0091 611.6999 151.5739 610.4704 152.6916 607.8997 152.2446 605.1054 150.9033 603.3171 149.3385 601.864 148.5561 599.7404 148.7796 597.1696 149.7856 596.3872 151.3504 596.1637 153.027 595.3813 159.6215 589.3457 162.9746 587.1102 171.8045 583.1982 174.9341 581.2981 176.4989 578.1685 175.7165 573.2506 174.9341 572.58 172.5869 572.1329 171.8045 571.4623 171.6927 570.4563 171.8045 568.4444 171.3574 565.5384 171.3574 563.1912 170.9103 561.1793 163.3099 554.8084 160.7392 547.0961 157.2743 539.7193 144.197 533.5718 138.9438 529.7716 134.1376 525.3008 130.7845 521.3888 122.737 515.912 114.8012 504.7349 108.9891 492.1047 107.7596 484.7278 107.3125 482.1571 108.6538 480.1452 111.1128 479.6981 113.46 480.5923 115.6954 485.1749 117.7073 482.8277 119.0485 479.4746 118.0426 478.6922 120.0545 478.0216 121.9546 478.2451 123.9664 478.804 126.5372 479.251 128.7726 478.2451 129.4432 475.5626 129.7785 472.433 130.7845 469.8623 135.1436 463.4913 132.6846 453.6554 123.0723 437.2251 122.9605 437.2251 120.278 430.9659 122.4017 424.8185 125.7548 418.4475 126.7607 411.9648 126.7607 408.8352 128.102 406.9351 132.5728 402.7996 134.92 398.664 134.92 395.5344 132.4611 388.2693 132.5728 384.2455 134.2494 382.3454 136.4848 381.0042 138.4967 378.8805 139.3909 376.4216 139.7262 370.4977 141.5145 360.2147 140.285 355.5204 136.7084 352.279 130.7845 350.2671 130.5609 350.0436 130.5609 349.82 130.5609 349.7083 131.9022 347.3611 132.3493 345.3492 132.014 343.3373 130.7845 341.549 120.1662 337.637 116.366 337.0781 108.4303 337.5252 103.8476 338.3076 100.8298 339.6488 99.9356 341.2136 99.265 345.3492 98.4826 347.0257 97.0296 348.367 87.8644 351.4966 84.1759 352.279 80.4875 351.8319 79.5933 349.1494 81.1581 346.8022 79.8168 343.5608 79.8168 340.7666 88.0879 339.09 91.2175 337.8605 93.7882 336.0722 94.5706 333.9485 92.7823 331.8249 89.988 331.6013 84.8465 332.6073 82.8347 331.7131 80.8228 330.2601 79.3697 329.0306 78.8109 328.4717 78.8109 327.1305 79.7051 321.4301 80.2639 320.2007 90.2116 321.3184 95.0177 320.9831 98.5944 318.6359 101.3887 320.4242 105.0771 321.0948 108.3185 320.2007 109.6597 317.4064 107.9832 313.1591 103.9594 312.3767 95.9119 314.5003 89.6527 313.8297 86.5231 309.5824 86.2996 303.6585 89.2056 297.9582 94.5706 303.5468 97.9238 305.4469 101.5004 304.9998 103.5123 302.429 104.0712 298.9641 103.6241 295.2757 102.7299 292.2579 101.3887 290.246 99.9356 288.6812 98.9297 286.4458 98.5944 282.7573 102.8417 266.9976 102.9535 264.6504 102.0593 256.6029 102.5064 253.8086 104.0712 250.679 106.6419 247.8847 107.9832 246.6552 108.0949 244.9787 106.7537 240.9549 104.4065 236.1487 104.0712 234.8075 104.4065 233.0191 105.1889 231.6779 105.3007 230.4484 104.0712 228.4365 107.5361 227.7659 110.6657 228.3248 112.9011 227.6541 113.0129 227.0953 113.6835 223.7421 113.1246 219.6066 111.5598 218.2653 109.3244 217.7065 106.7537 216.1417 104.8536 210.8884 105.8595 196.47 105.5242 189.6519 106.9772 186.9694 107.5361 183.6163 108.542 180.4867 113.46 176.91 109.3244 173.4451 107.4243 172.5509 98.7062 174.004 95.9119 174.1157 97.7002 169.9802 95.5766 166.7388 92.1117 163.6092 89.8762 159.9208 90.2116 158.2442 90.8822 156.1206 90.7704 153.8851 88.7585 151.8733 86.7466 151.4262 84.9583 151.985 83.0582 152.8792 80.8228 153.4381 78.9227 153.2145 73.5576 151.0909 73.1106 151.6497 72.5517 152.991 71.6575 154.2205 70.2045 154.3322 69.6457 153.6616 59.4745 134.6605 56.2331 131.1956 45.7266 124.6011 44.0501 122.5892 41.7029 118.0066 40.1381 116.1065 38.3497 115.1006 32.0905 112.9769 30.3022 111.7474 29.0727 110.5179 27.6197 109.512 23.0371 108.9531 20.6899 108.3943 18.4545 107.2766 16.6661 105.8235 14.6542 101.5762 14.766 97.4407 15.9955 92.2992 16.6661 89.3932 17.7838 80.8986 19.2369 77.3219 22.1429 73.7452 26.1667 70.9509 27.8432 69.3861 28.2903 67.1507 27.2844 63.2387 27.0608 61.2268 31.4199 40.7727 32.4259 38.8726 33.9906 37.196 35.779 36.0783 37.1202 34.7371 37.5673 32.1663 38.1262 25.013 37.5673 18.642 34.5495 13.9476 27.8432 11.3769 24.1548 11.3769 17.3367 13.1652 13.6483 13.6123 9.9598 12.6064 5.9361 10.371 2.6947 7.3531 1.1299 4Z" />
</svg>