<?xml version="1.0" encoding="utf-8"?>
<svg xmlns="http://www.w3.org/2000/svg" viewBox="0 0 1021 736" style="stroke-width:0.25px;stroke-linejoin:round;stroke:#444;fill:#ddd" fill-rule="evenodd">
  <path class="TJ" d="M419.6948 7.7056L423.2715 9.2704 426.2893 11.9529 428.0777 14.9707 429.7542 19.1063 429.9778 22.0123 427.407 21.4535 425.1716 19.3298 421.3714 14.1883 419.2477 11.9529 419.136 11.8411 417.5712 8.2645 419.6948 7.7056ZM470.7743 141.2722L473.4568 145.4077 471.2213 149.5432 466.8623 152.7846 462.9503 154.1259 455.9087 152.5611 454.2321 153.1199 453.338 153.9023 450.9908 155.2436 450.879 154.9083 450.4319 154.5729 449.7613 154.2376 449.0906 154.3494 448.6436 154.6847 447.8612 155.8024 442.7197 160.1615 440.9314 161.2792 432.6603 164.0735 429.1954 167.3149 428.6365 171.6739 428.7483 176.9272 427.6306 182.7393 425.954 185.8689 423.7186 188.2161 421.0361 189.7809 418.2418 190.7868 412.765 191.0103 411.2002 191.7927 410.4178 193.2458 409.3001 197.046 408.1824 198.499 405.3881 197.4931 404.3822 195.2576 404.7175 192.3516 405.947 189.1102 407.6235 186.763 409.6354 185.31 411.7591 184.1923 413.8827 182.7393 415.7828 179.0508 414.4416 176.033 411.4238 173.9094 408.1824 172.9034 397.7877 171.3386 392.8697 169.1032 388.2871 168.5443 385.9399 167.3149 383.9281 165.0794 382.2515 162.7322 380.3514 160.6086 377.5571 159.1556 374.5393 158.932 368.0565 159.3791 365.2623 158.4849 346.7083 146.3019 342.2374 145.743 291.0462 164.1853 288.8108 164.4088 286.7989 164.1853 286.0165 163.4029 284.5635 160.8321 283.5575 160.4968 282.9987 161.2792 282.4398 164.1853 281.9927 165.303 279.3102 169.215 277.2983 173.0152 276.4042 177.3743 277.5219 182.7393 277.969 183.7452 278.3043 184.8629 278.4161 185.9806 278.3043 187.0983 281.3221 192.5751 281.4339 194.8106 268.9155 199.2814 262.6563 188.5514 258.8561 184.3041 257.0678 183.9688 256.6207 184.3041 256.5089 185.31 255.9501 186.9866 253.4911 192.5751 247.5672 210.6821 246.1142 217.1648 245.6671 223.8711 246.5613 227.0007 248.5732 229.2361 250.8086 231.1362 252.5969 233.4834 253.6029 236.2777 254.0499 239.4073 253.3793 259.5261 255.2794 263.5498 260.4209 261.4262 261.2033 260.1967 261.5386 258.9672 261.9857 257.8495 263.2152 257.2906 263.9976 257.7377 267.1272 261.0909 269.8097 261.985 275.3982 261.0909 278.3043 261.0909 280.6515 260.7556 283.1105 259.8614 285.3459 258.5201 289.5932 254.7199 291.9404 253.8257 303.2293 253.0433 308.4825 253.714 313.624 255.5023 319.1008 258.5201 324.1305 260.0849 334.1899 258.073 339.4431 258.6319 343.3551 260.4202 344.4728 259.5261 346.4847 256.62 348.7201 254.6081 351.4026 253.8257 354.3087 253.8257 356.8794 254.4964 361.2385 256.9553 363.3622 257.7377 365.4858 257.0671 366.6035 255.3905 370.1802 247.5666 372.1921 246.1135 373.5333 247.6783 374.0922 250.8079 374.0922 253.714 372.7509 259.7496 372.9745 262.0968 375.2099 262.991 377.4453 262.4321 389.0695 253.9375 390.7461 253.2669 392.0873 253.3787 394.7699 254.2728 396.1111 254.2728 396.8935 253.714 397.5641 252.8198 398.3465 251.9256 399.576 251.4785 401.6997 251.0315 405.947 249.4667 408.1824 249.1314 409.9707 249.9138 412.8768 252.4845 414.5534 253.4904 416.7888 253.714 421.5949 252.8198 423.8304 253.0433 426.96 255.5023 428.7483 259.079 431.319 267.1265 431.4308 267.2383 432.7721 268.356 435.7899 269.6972 437.0194 270.9267 437.8018 273.1622 437.4664 275.5094 436.9076 277.7448 436.9076 279.8684 438.8077 283.3333 442.2726 285.3452 446.1846 286.0158 449.7613 285.457 453.785 283.2216 455.3498 282.7745 457.2499 282.7745 458.4794 282.8862 459.4854 282.5509 461.0502 280.6508 463.5091 279.5331 466.3034 280.8744 469.5448 282.8862 473.1215 283.8922 477.257 281.7685 479.716 277.0741 481.6161 271.5974 484.2986 266.903 488.5459 264.1087 493.9109 262.6557 499.4994 262.3204 506.8763 263.7734 508.4411 263.7734 509.8942 262.7674 514.0297 257.9613 515.818 256.62 520.2889 254.1611 521.2948 253.3787 523.0832 251.4785 523.9773 250.8079 525.2068 250.3608 528.8953 249.6902 533.3661 247.5666 535.8251 247.343 540.1842 250.0255 542.3078 251.9256 542.4196 252.0374 544.3197 254.6081 545.1021 257.2906 544.4315 259.7496 541.0783 264.6675 539.9606 267.2383 542.7549 273.1622 548.1199 275.6211 554.3791 275.9564 567.5681 273.0504 570.1388 273.0504 572.2625 274.9505 573.3802 278.7507 573.7155 283.1098 573.2684 286.4629 571.8154 289.0337 570.0271 290.7102 568.6858 292.8339 568.4623 296.2988 569.3564 299.6519 571.2565 302.3344 573.7155 304.1228 576.1745 304.9052 580.8689 304.3463 585.675 302.3344 598.5287 293.281 600.6524 292.1633 605.5703 291.1573 610.0411 288.5866 612.5001 288.2513 614.7355 290.0396 616.1886 293.7281 616.971 297.9754 617.0827 301.4403 618.3122 304.011 620.9947 305.1287 626.5833 306.1347 627.701 306.8053 629.7129 308.3701 632.3954 309.7113 632.8425 310.829 632.8425 312.0585 633.1778 313.7351 634.4073 316.4176 635.7485 318.3177 635.7485 318.4295 637.2015 318.3177 642.5666 306.5817 645.4726 297.5283 647.0374 294.9575 649.3846 294.1751 652.1789 293.7281 657.0968 291.2691 659.3322 291.1573 663.5795 292.275 665.815 292.3868 667.9386 292.0515 671.9624 287.6924 673.4154 287.1336 675.4273 287.6924 678.6686 289.8161 680.7923 289.8161 682.2453 288.9219 684.7043 285.7923 686.0455 284.6746 688.281 284.004 690.5164 284.1157 714.5472 290.3749 716.4473 290.2631 722.0359 289.1454 724.8301 289.2572 732.8777 291.0455 735.1131 291.8279 737.125 291.7162 743.4959 288.2513 745.1725 287.916 746.7373 288.4748 748.9727 289.5925 753.5553 290.822 757.6909 290.4867 770.8799 285.9041 778.2568 284.5628 779.2627 282.8862 779.4862 280.4273 780.4922 277.8565 783.6218 275.6211 797.8167 272.1562 802.3993 271.7091 814.3589 273.0504 818.0473 274.9505 818.0473 278.1919 819.3886 287.8042 819.5003 291.1573 819.165 293.9516 815.1413 305.5758 814.1353 310.6055 814.9177 315.4117 817.9355 320.7767 823.4123 326.2535 824.6418 328.4889 825.7595 334.301 826.6537 336.9835 828.1067 339.1072 835.7072 345.031 840.0662 349.8372 841.9663 351.1784 843.1958 353.9727 843.6429 356.767 842.9723 359.3377 841.0722 361.3496 838.2779 362.2438 832.0187 362.2438 829.1127 363.6968 827.2125 365.5969 825.4242 368.2794 824.3065 371.2972 824.7536 374.3151 826.3184 376.774 830.1186 381.0213 831.4598 383.3685 831.9069 386.6099 831.1245 393.9868 831.5716 396.5575 836.266 404.3815 837.1602 406.7287 838.3897 413.6585 839.5074 416.341 841.9663 419.0235 844.2018 420.4766 848.8961 422.2649 851.1316 423.6062 855.0436 427.1828 857.0554 428.4123 869.5738 428.8594 871.6975 428.3006 873.4858 425.618 872.3681 422.9355 870.8033 420.253 870.6915 417.0117 871.6975 416.2293 876.7272 414.4409 877.7331 413.3232 877.8449 411.982 877.8449 410.5289 878.1802 409.1877 879.9685 406.3934 881.8686 405.1639 884.1041 405.2757 892.0398 408.07 894.6106 408.5171 897.5166 408.4053 906.5701 405.2757 909.2526 405.611 927.6948 414.7762 949.7138 423.2708 952.1727 425.2827 954.0728 427.6299 956.3083 429.4183 959.2143 429.7536 962.2321 429.53 964.5793 430.0889 966.703 431.6537 968.7149 434.3362 968.7149 434.448 969.9443 436.2363 970.8385 437.1305 973.1857 438.36 973.9681 439.3659 974.4152 440.8189 974.527 442.3837 975.5329 447.0781 975.5329 450.3195 974.7505 453.3373 973.1857 456.0198 967.7089 462.279 966.4794 464.9615 966.0323 467.9793 966.0323 483.7391 968.4913 502.6284 971.062 507.3228 980.2273 512.4642 981.7921 517.0469 981.2332 527.4416 981.5685 531.9124 981.5685 532.9184 981.9039 533.8125 983.4686 534.7067 984.4746 535.7127 984.251 536.8304 982.0156 540.407 981.1215 540.9659 980.5626 541.7483 980.8979 543.9837 981.5685 545.2132 982.5745 546.1074 989.169 549.7958 990.7338 551.3606 991.1809 554.3784 990.7338 555.9432 989.8396 557.6198 987.716 560.4141 986.9336 561.8671 986.4865 563.4319 986.2629 564.8849 985.8158 566.2262 984.1393 568.6851 982.3509 570.8088 980.8979 573.0442 980.4508 576.1738 981.6803 581.9859 984.6981 586.6803 988.6101 590.257 1000.3461 597.1868 1002.6933 599.1987 1009.2878 607.9168 1012.9762 611.6053 1017 614.5113 1010.7408 616.635 1007.6112 618.088 1006.0464 620.9941 1005.7111 627.0297 1004.5934 628.9298 992.5221 633.5124 989.3925 633.9595 987.0453 635.4125 985.8158 638.2068 984.3628 640.8893 981.7921 642.2306 977.8801 639.9952 971.9562 629.824 968.2678 625.8002 951.6139 615.629 947.8136 617.7527 934.6246 618.5351 933.5069 618.6469 932.3892 618.3116 927.6948 616.8585 924.9006 615.629 922.4416 615.8526 920.2062 616.4114 916.4059 615.629 914.9529 615.629 913.6117 615.182 911.7116 612.0524 910.4821 611.1582 909.029 611.27 907.4642 612.2759 906.7936 610.1523 905.3406 614.6231 902.0992 614.9584 898.299 613.9525 894.9459 614.0642 892.8222 616.2997 892.5987 621.8882 890.1397 624.6825 887.0101 626.0238 872.5916 628.9298 862.7558 632.5065 860.0733 633.0653 852.6964 636.5303 847.1078 637.2009 844.5371 637.9833 839.6191 642.5659 837.719 643.013 835.7072 642.5659 832.8011 642.2306 831.5716 642.7894 829.448 644.3542 827.9949 644.466 827.1008 643.7954 825.3124 641.2246 824.3065 640.3305 821.624 640.1069 816.1472 641.8953 814.0235 640.554 813.4647 637.2009 815.1413 633.9595 817.8238 631.6123 820.618 630.6064 825.6477 630.0475 827.4361 629.1534 829.7833 627.2532 831.9069 624.6825 832.8011 622.3353 832.8011 615.4055 832.9129 614.0642 833.807 609.9287 829.1127 609.3699 823.5241 609.4816 814.4706 607.1344 798.9344 601.3223 793.1223 601.5459 785.0748 606.0167 782.9512 605.3461 780.7157 604.0048 777.5861 603.6695 774.4565 604.0048 771.774 604.899 769.7622 606.4638 763.3912 613.2818 761.9382 613.9525 759.1439 612.8348 758.0262 613.2818 753.1083 617.1938 750.9846 619.6528 748.7492 624.459 747.2961 626.6944 744.7254 628.4827 735.3366 629.3769 726.0596 635.0772 723.1536 638.5421 720.024 639.6598 713.8766 640.7776 708.7351 643.9072 704.8231 649.2722 698.7875 661.9023 693.4224 670.5087 692.64 673.6383 691.4106 675.2031 672.0741 677.9974 667.7151 680.2328 658.7734 678.5562 652.8495 679.7857 639.7723 685.1507 634.6308 688.7274 633.2895 690.1804 631.5012 692.9747 630.2717 694.2042 625.8009 696.7749 622.4477 700.5751 584.7809 728.6297 579.7512 730.7534 573.2684 731.9828 567.0092 731.9828 560.8618 730.6416 555.4968 727.7355 551.1377 723.1529 549.3494 720.3586 547.8964 717.229 546.8904 713.9877 545.9963 706.499 544.7668 703.2576 537.3899 691.1864 536.2722 688.2803 535.8251 684.7036 535.8251 678.1091 535.378 676.209 533.1426 672.6323 532.3602 670.9558 532.1366 668.9439 532.3602 659.108 533.3661 652.4018 534.1485 649.9428 535.0427 648.4898 534.5956 644.5778 539.4018 636.3067 539.5135 631.7241 540.1842 629.7122 540.6312 626.2473 540.2959 619.4293 539.4018 613.1701 539.7371 610.8229 541.1901 607.1344 542.5314 600.5399 540.6312 587.3509 541.1901 580.1976 541.749 579.1916 543.3138 577.068 543.8726 575.7267 544.2079 574.0502 544.8785 568.9087 546.3316 563.879 546.5551 562.2024 546.2198 560.4141 545.1021 556.9492 544.8785 555.3844 545.9963 552.4783 550.6906 549.3487 552.8143 546.4427 553.2614 543.4249 553.3732 539.5129 553.1496 535.9362 552.8143 533.9243 553.7085 532.8066 549.7965 527.8887 545.8845 525.2062 541.1901 524.9826 525.3186 530.4594 522.9714 532.2477 520.4007 533.7008 517.6064 532.4713 512.6884 528.4475 511.3472 528.224 510.3413 528.5593 509.6706 528.224 509.1118 526.1003 509.3353 524.312 510.6766 520.6235 511.459 516.3762 515.371 509.1111 517.1593 502.4048 519.5065 497.7105 520.4007 492.7925 522.7479 485.7509 523.4185 481.9507 522.6361 474.5738 519.5065 469.7677 515.0356 466.7498 504.3056 462.279 496.3699 453.8961 491.3402 450.2077 487.6517 448.3076 486.0869 447.9723 484.5221 447.9723 483.5162 448.4194 482.5102 448.5311 481.169 447.4134 480.3866 446.0722 479.2689 443.0543 478.4865 441.7131 477.1452 440.2601 475.804 439.0306 474.3509 438.2482 472.6744 437.6893 469.6565 437.8011 468.7624 439.0306 469.2095 442.8308 467.7564 444.5074 464.6268 443.725 459.3736 441.1542 457.8088 441.3778 457.0264 442.0484 456.5793 442.8308 455.6851 443.2779 454.5674 443.2779 452.4438 442.4955 451.2143 442.2719 447.1905 442.2719 445.0669 442.719 444.1727 443.9485 442.4961 446.7428 434.8957 447.5252 432.5485 449.09 432.5485 450.2077 435.1193 452.2196 434.1133 454.1197 429.5307 457.5846 428.3012 458.2552 425.2834 458.0317 424.1657 458.7023 423.6068 460.1553 423.495 461.9437 423.7186 463.6202 423.7186 464.9615 421.9303 470.6618 420.589 471.3325 418.8007 471.7795 417.2359 472.6737 416.0064 476.8092 412.2062 484.2979 408.853 493.4631 407.2882 496.2574 405.947 497.5987 401.4761 499.4988 400.1349 500.5047 394.4345 506.4286 388.5107 514.2526 387.5047 515.035 384.934 516.3762 384.3751 516.7116 383.7045 517.6057 383.0339 519.0587 381.5809 519.7294 380.0161 519.9529 379.1219 520.5118 378.6748 521.9648 378.6748 523.4178 379.1219 524.7591 380.1278 526.1003 377.11 527.218 374.0922 527.7769 371.1861 527.1063 368.5036 524.9826 367.0506 529.1182 367.6095 534.2596 369.3978 539.0658 371.6332 542.4189 373.0862 543.2013 377.4453 544.4308 378.2277 545.8838 378.6748 548.231 379.4572 550.3547 380.6867 552.143 381.9162 553.2607 381.2455 555.1608 381.4691 557.3963 382.8103 562.2024 382.9221 564.6614 382.5868 566.1144 382.1397 567.4557 381.9162 569.4675 380.2396 571.8147 379.6807 572.3736 379.1219 572.9325 379.1219 574.1619 379.3454 575.7267 379.1219 576.8444 378.4513 578.0739 378.116 578.4092 377.4453 579.0799 376.9982 578.8563 374.5393 578.9681 374.3157 579.0799 372.4156 583.7743 372.0803 585.2273 371.1861 585.7861 366.7153 591.4865 362.9151 592.9395 359.0031 592.2689 355.2029 590.8158 351.6262 590.257 352.4086 591.4865 348.3848 590.7041 347.1553 590.257 346.7083 589.8099 345.9259 589.1393 345.4788 588.0216 344.8081 587.2392 343.1316 586.9039 340.3373 585.8979 338.996 583.5507 337.7666 580.98 335.6429 579.0799 332.5133 578.8563 327.1483 581.6506 324.4658 582.433 323.1245 582.9919 321.7833 584.2213 320.442 584.892 319.1008 584.1096 318.2066 583.4389 315.3006 582.5448 314.2946 582.433 311.0532 582.7683 305.5765 585.2273 302.6704 585.7861 284.8988 584.1096 282.3281 585.3391 280.0926 592.1571 277.2983 594.9514 271.4862 599.1987 271.0392 599.9811 270.2568 601.8812 269.6979 602.7754 268.692 603.6695 266.9036 605.0108 266.233 605.905 265.4506 608.4757 265.1153 611.4935 265.2271 617.7527 265.4506 618.3116 266.6801 618.6469 267.1272 619.4293 267.0154 620.3234 266.6801 620.547 266.3448 620.6587 266.233 621.1058 266.233 622.6706 266.4565 624.1237 266.7919 625.5767 267.5743 626.6944 268.5802 629.1534 269.4744 634.7419 270.5921 636.1949 269.4744 639.7716 271.7098 640.7776 274.057 641.3364 273.7217 643.4601 269.2508 650.9487 267.1272 653.0724 261.8739 656.4255 259.7503 658.8845 258.2972 660.114 256.8442 660.6728 256.3971 660.7846 253.3793 661.4552 250.8086 662.6847 248.1261 662.9083 235.8312 654.6372 235.1606 654.3019 232.3663 652.29 231.1369 650.9487 228.7897 645.1366 226.4425 643.1248 223.4246 641.2246 220.8539 638.8774 218.9538 632.9536 216.9419 630.0475 214.3712 627.5886 211.8004 626.1355 202.8587 625.0178 202.4117 624.9061 201.741 624.6825 201.2939 625.2414 201.9646 627.2532 202.8587 628.2592 204.9824 629.824 205.5413 630.4946 205.9883 632.9536 205.3177 634.4066 203.8647 634.7419 201.9646 633.8477 200.288 631.6123 199.0585 628.9298 197.6055 626.9179 194.923 626.1355 192.0169 627.1415 191.5699 628.9298 193.1347 633.8477 193.47 637.4244 192.9111 638.9892 191.3463 638.8774 186.5402 635.7479 184.9754 634.9655 183.2988 634.8537 180.6163 635.0772 175.5866 634.4066 173.2394 634.5184 171.7864 636.1949 172.457 636.8656 172.7923 637.5362 173.5747 639.5481 170.5569 639.9952 168.9921 642.3424 168.3215 645.0249 167.7626 646.2543 165.4154 646.5897 160.6092 648.1545 157.9267 648.4898 157.3679 649.1604 155.5795 652.29 154.3501 653.0724 153.0088 653.1842 146.8614 654.5254 138.8139 655.196 140.6022 658.9963 139.8198 661.3435 137.2491 662.6847 133.8959 663.02 131.3252 662.4612 128.7545 661.4552 126.2955 661.2317 123.8365 663.02 122.8306 665.7025 122.9424 669.0557 123.8365 675.8737 122.3835 678.2209 119.2539 678.2209 114.0007 676.4326 110.5358 676.8796 108.1886 678.8915 106.0649 681.0152 103.7177 682.0211 102.0411 683.0271 93.4348 690.5157 92.2053 691.2981 90.6405 691.9688 89.5228 691.9688 88.9639 691.9688 87.7344 691.0746 87.1756 689.8451 86.6167 688.3921 85.8343 687.0508 81.3635 681.4623 80.2458 680.4563 77.1162 678.7798 75.7749 677.5503 73.6513 674.1971 72.31 671.4029 70.5217 669.391 64.5978 667.938 61.3564 666.2614 58.4504 664.1377 56.8856 661.9023 56.662 659.4433 57.7798 649.0486 58.4504 646.7014 60.9094 641.7835 62.3624 636.3067 63.033 630.3828 62.5859 623.5648 60.0152 610.5993 60.4623 603.7813 64.1507 593.6101 69.7393 583.9978 76.3338 575.5032 83.3754 568.7969 92.8759 555.4961 96.6761 548.0075 102.2647 531.2418 104.5001 528.7828 108.5239 527.4416 114.6713 526.6592 116.5714 525.9886 117.242 525.5415 118.695 524.5355 119.5892 522.4119 120.2598 519.9529 121.154 517.1586 121.154 517.0469 121.2658 517.0469 122.8306 513.9173 127.8603 506.2051 131.1017 497.0398 133.2253 487.3157 132.6664 480.9448 129.4251 475.9151 119.1421 466.7498 112.4359 462.9496 110.2004 460.6024 105.3943 451.7725 100.3646 446.9663 99.0233 444.6191 98.688 442.1602 98.3527 436.9069 97.6821 434.3362 94.4407 429.53 93.5465 427.2946 93.2112 423.7179 93.5465 414.1056 93.323 410.7525 91.5347 404.6051 91.1993 401.4755 92.2053 399.0165 95.5584 396.6693 96.229 395.6634 96.3408 393.7633 95.6702 392.1985 94.9996 390.7454 94.5525 389.0689 94.9996 385.4922 96.4526 384.598 98.7998 384.598 101.8176 384.0392 104.053 382.6979 105.9531 380.9096 107.6297 378.6741 108.7474 375.8799 108.8592 372.1914 107.6297 368.8383 106.2884 366.9382 103.8295 363.2497 99.4704 353.5256 97.4585 351.1784 97.4585 351.0667 97.3468 351.0667 96.3408 350.8431 95.3349 350.7314 94.2172 350.8431 93.2112 351.0667 91.0876 352.7432 88.9639 353.5256 86.7285 353.0785 84.8284 351.1784 83.7107 350.5078 81.587 349.7254 79.6869 349.7254 77.8986 350.2843 76.1102 351.0667 66.2744 354.4198 62.6977 354.5316 46.1556 351.8491 43.9201 349.6136 43.8084 349.5019 43.8084 349.3901 43.1377 345.3663 44.5908 332.4009 44.3672 330.0537 43.1377 328.0418 42.3553 327.8183 40.1199 328.2653 39.2257 328.0418 38.5551 327.2594 37.5492 325.4711 36.9903 324.8004 31.8488 322.6768 21.2306 322.3415 5.5826 316.6411 1.8942 313.288 1 306.5817 1.2235 304.2345 1.4471 303.0051 2.0059 302.3344 3.2354 301.2167 4.6884 300.7696 5.8062 301.105 6.7003 300.7696 7.7063 295.1811 9.2711 289.5925 9.4946 283.3333 10.277 276.6271 11.9536 270.1443 13.1831 268.5795 15.0832 268.356 18.4363 268.8031 19.1069 268.6913 19.6658 268.356 20.2246 267.9089 20.6717 267.2383 19.7776 259.7496 22.3483 257.2906 32.743 255.6141 44.8143 247.0077 49.6205 245.4429 55.7679 245.5547 100.141 257.0671 119.5892 257.7377 130.2075 261.538 136.5784 261.985 143.0612 261.3144 150.9969 259.1908 153.5677 258.073 153.5677 257.9613 152.6735 255.8376 152.1146 254.8317 153.903 252.2609 159.4915 248.796 162.6211 245.4429 164.2977 242.0898 165.0801 238.066 166.3096 210.7938 167.6508 207.2172 169.2156 207.3289 170.8922 207.9996 175.363 204.0876 177.4867 205.6524 180.9516 211.3527 182.7399 212.2469 183.5223 211.1292 183.8576 209.4526 183.8576 208.6702 183.8576 208.4466 184.7518 205.8759 185.1989 205.5406 186.5402 205.3171 187.099 204.9817 188.6638 201.7404 188.6638 199.3932 185.7578 193.134 184.5283 189.5573 184.0812 186.316 184.9754 184.9747 187.6579 186.8748 190.3404 192.6869 192.2405 200.0638 195.2583 204.6464 200.7351 202.2992 200.288 198.6108 188.8873 182.7393 188.2167 181.0627 188.105 179.3861 188.3285 175.9212 187.8814 174.6917 185.5342 172.7916 185.3107 171.3386 186.9872 168.209 188.9991 169.7738 192.0169 175.1388 193.6935 174.58 198.2761 170.5562 200.8469 169.662 210.3474 171.2268 213.2535 170.668 214.3712 168.6561 214.5947 166.1971 214.1476 163.5146 213.2535 161.1674 207.2178 156.8084 176.8161 162.7322 175.5866 162.9558 171.004 161.1674 165.1919 157.5908 161.8387 153.7905 164.5212 151.8904 169.8862 150.5492 177.0396 148.6491 179.9457 148.3138 187.4343 149.655 190.5639 149.2079 195.0348 146.6372 197.6055 145.6312 218.7303 142.2781 221.7481 142.837 225.7718 144.8488 230.2427 147.0843 241.9787 150.6609 248.4614 150.8845 253.2675 148.6491 253.2675 144.6253 243.8788 136.0189 243.3199 130.9892 246.7848 130.5421 251.7028 132.554 255.9501 131.7716 256.8442 123.3888 256.0618 119.7003 254.6088 116.459 251.2557 110.3116 250.0262 107.2937 247.2319 97.6814 241.9787 88.7397 241.9787 85.2748 246.673 82.0334 254.6088 81.3628 256.3971 80.2451 256.956 77.8979 256.0618 68.8444 256.1736 62.4735 257.0678 57.332 259.0796 52.8612 262.4328 48.6139 264.2211 47.0491 266.3448 45.9314 270.4803 44.4783 272.8275 44.8136 274.6158 46.1549 276.1806 47.9432 278.3043 49.1727 282.4398 49.6198 285.3459 52.3023 290.3756 60.2381 291.9404 61.6911 295.1817 63.8147 296.6348 65.4913 298.982 69.6268 300.3232 71.4152 301.9998 72.8682 306.0235 74.3212 309.4884 73.3153 312.618 70.521 318.0948 63.5912 320.6656 61.4675 323.4598 60.0145 347.3789 52.4141 359.6737 42.9135 373.198 37.5485 382.5868 31.8482 389.8519 23.4653 393.4286 5.2466 398.2348 4.0172 404.0469 6.3644 405.6117 8.1527 408.1824 10.947 408.5177 11.5058 408.853 11.9529 412.9886 15.5296 436.684 42.4664 437.8018 43.9195 437.4664 47.1608 435.0075 46.1549 430.4249 42.2429 427.8541 42.4664 426.6246 44.7019 426.96 47.6079 428.9718 50.2904 440.8196 53.0847 445.8493 55.9908 444.7316 61.6911 444.3963 63.1441 444.3963 63.2559 442.3844 64.4854 441.9373 65.156 441.7138 66.0502 441.2667 66.7208 439.143 67.1679 438.0253 67.7267 436.237 69.1798 434.2251 70.9681 426.2893 77.4508 421.8185 83.1512 420.1419 84.6042 418.13 85.4983 416.2299 86.0572 414.4416 86.8396 412.6532 88.6279 409.5237 93.993 408.2942 95.6695 406.9529 96.2284 398.0112 98.2403 394.211 100.811 392.0873 104.0524 392.3109 107.7408 392.5344 108.5232 392.758 108.9703 394.4345 111.4293 394.6581 111.6528 395.7758 112.9941 396.2229 113.7765 394.4345 119.7003 400.9173 122.6064 403.5998 123.3888 406.5058 123.0535 408.853 122.3828 411.4238 122.0475 414.218 123.277 417.6829 128.9773 419.4713 136.8013 421.7067 144.0664 426.96 147.8667 432.4367 148.202 438.0253 147.7549 456.5793 142.0546 468.0917 140.9369 470.7743 141.2722ZM410.9767 201.7404L426.7364 206.9936 431.2073 207.2172 435.3428 205.3171 437.0194 205.6524 437.9135 208.782 437.69 211.7998 436.3487 213.0293 432.1014 213.9234 428.413 215.8235 421.7067 221.1886 421.0361 220.6297 417.2359 214.2587 416.0064 212.6939 411.5355 209.5644 409.859 207.1054 408.853 204.3111 408.9648 201.6286 410.9767 201.7404Z" />
</svg>