<?xml version="1.0" encoding="utf-8"?>
<svg xmlns="http://www.w3.org/2000/svg" viewBox="0 0 1021 436" style="stroke-width:0.25px;stroke-linejoin:round;stroke:#444;fill:#ddd" fill-rule="evenodd">
  <path class="TL" d="M131.1017 331.2801L131.437 337.651 126.7426 354.9756 125.2895 365.9292 124.0601 368.6117 123.1659 369.9529 121.9364 370.9589 116.0125 378.7828 106.7355 386.7186 103.8295 388.2834 102.4882 388.2834 101.3705 388.954 99.3586 392.1954 98.5762 401.4724 97.4585 403.9314 94.4407 408.1787 93.323 410.5259 93.4348 412.6495 94.776 418.1263 94.5525 421.0323 91.7582 425.3914 87.6227 428.0739 82.3694 429.4152 76.4455 429.974 72.6453 430.8682 71.3041 431.9859 71.0805 431.3153 70.0746 427.2915 70.0746 425.5032 71.1923 419.9146 71.3041 417.5674 70.2981 412.3142 68.0627 406.9492 65.0449 401.8077 61.58 397.5604 56.8856 393.5366 52.7501 391.7483 48.5028 391.9718 43.3613 394.0955 39.2257 397.6722 33.0783 406.2785 29.1663 408.6257 19.554 406.9492 11.0594 399.5723 1 382.0242 6.5886 380.4594 31.6253 370.4 37.1021 369.7294 41.0141 367.7175 47.7204 357.9934 50.7382 354.752 60.127 350.393 80.6928 344.022 110.9828 338.2099 114.4477 336.3098 117.1303 332.8449 123.2777 331.7272 130.9899 331.2801 131.1017 331.2801ZM276.1806 262.8761L286.7989 256.8405 293.2816 250.3578 308.3707 227.4447 309.712 222.6385 312.5063 219.8442 326.4777 214.7028 330.9485 210.7908 332.178 205.314 334.0781 177.2594 336.7606 170.1061 340.7844 163.7351 345.8141 159.376 351.9615 157.2524 366.1564 155.1287 372.0803 151.8873 374.5393 151.2167 385.9399 152.8933 389.4048 151.9991 398.5701 146.5223 419.0242 140.5985 425.2834 139.9278 445.6257 141.2691 451.9967 139.9278 468.7624 132.3274 476.251 131.4332 484.2986 133.7804 487.8752 133.5569 496.3699 124.9505 502.0702 127.4095 511.2354 127.7448 528.0011 124.9505 564.4385 113.1028 578.9688 112.3204 611.2706 118.0207 623.6772 124.0563 632.0601 124.9505 638.7663 123.6092 651.9553 119.4737 654.5261 119.1384 658.5498 118.5795 672.5212 118.356 684.9278 116.5677 691.4106 113.3263 705.0466 103.714 714.8825 100.8079 725.1655 94.9958 728.6304 94.437 734.7778 94.3252 738.0191 92.8722 743.6077 97.0077 750.2022 99.6902 757.3556 101.1432 764.5089 101.5903 769.0915 103.2669 780.4922 114.1087 793.2341 109.7496 817.0414 98.4607 825.0889 96.2253 831.0128 92.0898 833.4717 90.9721 836.9366 90.9721 842.1899 92.5369 844.4253 92.8722 857.9496 90.0779 871.2504 84.154 902.9934 61.4645 909.9232 58.4466 915.1765 59.6761 919.8708 63.2528 941.6662 73.6475 947.5901 75.2123 955.3023 75.9947 962.791 75.2123 968.2678 72.6416 977.7683 65.8235 979.892 64.9294 983.9157 65.8235 985.3688 67.8354 986.2629 70.6297 988.2748 73.6475 994.8693 77.5595 1008.8407 81.4715 1014.7646 85.3835 1017 91.6427 1013.9822 97.0077 991.2926 113.9969 977.2095 128.3036 948.8196 150.4343 928.8125 169.9943 926.6889 173.2356 923.0004 173.571 901.3168 178.3771 881.4216 192.9074 872.4799 197.2664 825.4242 200.7314 818.7179 202.2961 815.0295 204.0845 805.976 210.7908 803.7406 211.7967 801.0581 212.3556 794.3518 212.8026 791.1105 213.9204 779.0392 227.8917 767.7503 247.1164 756.7967 256.8405 743.7195 260.5289 661.903 271.1472 653.2966 274.7239 648.3787 276.8475 625.3538 292.719 594.2814 314.1791 588.4693 316.0792 570.2506 313.1732 564.1032 313.732 560.7501 315.5204 553.932 321.2207 550.3553 322.4502 537.5017 322.4502 531.0189 324.1267 511.1237 335.3039 505.4233 335.4156 489.7754 333.1802 484.6339 334.1861 478.3747 339.2158 472.0037 342.9043 452.1085 350.2812 418.3536 362.9113 407.1765 369.7294 391.305 383.0301 382.6986 386.8304 379.0101 391.3012 373.198 399.9076 369.8449 403.7078 366.4917 406.3903 362.0209 407.9551 347.4906 409.0728 341.5668 410.7494 336.3135 414.1025 330.9485 419.3558 320.2185 427.068 316.8653 407.9551 315.4123 403.2607 308.4825 392.3072 308.1472 390.0717 308.8178 385.1538 308.3707 383.1419 306.6942 381.0183 300.0997 376.8827 292.7228 370.2882 290.5991 366.7116 288.8108 361.3465 286.9107 350.5047 288.1402 341.2277 293.2816 334.9685 303.341 333.0684 309.712 333.1802 311.8356 333.7391 313.9593 335.3039 317.6477 339.5512 319.6596 340.7806 324.0187 341.0042 326.7012 339.2158 329.4955 336.4216 334.1899 333.8508 337.6548 333.5155 345.2552 334.0744 347.7142 332.8449 348.7201 329.8271 348.3848 328.374 347.9377 326.4739 346.5965 323.2326 346.0376 320.3265 351.2909 300.543 351.4026 293.8367 348.8319 287.5776 344.2493 282.5479 338.6607 278.5241 332.8486 275.171 330.6132 273.1591 329.4955 271.259 328.0425 270.4766 324.8011 271.9296 323.6834 273.7179 322.3421 279.7536 321.3362 282.1008 317.2007 285.7892 302.5586 292.1602 294.6229 297.3017 290.5991 298.9782 285.0106 299.4253 280.4279 298.084 276.7395 295.2898 274.1688 291.266 272.604 286.5716 273.051 281.0948 277.1866 270.4766 276.1806 262.8761ZM477.3688 23.2387L480.7219 17.7619 488.4341 9.7144 496.9287 4.0141 502.5173 6.473 499.8348 16.4207 487.8752 45.9283 485.7516 55.4288 484.4103 57.8878 481.6161 60.1232 478.5982 61.0174 477.3688 59.6761 475.3569 58.5584 465.2975 55.5406 461.2737 53.1934 458.0323 49.505 457.0264 46.4871 457.8088 43.4693 460.2678 39.3338 464.068 35.5336 475.0216 27.2625 477.3688 23.2387Z" />
</svg>