<?xml version="1.0" encoding="utf-8"?>
<svg xmlns="http://www.w3.org/2000/svg" viewBox="0 0 1021 713" style="stroke-width:0.25px;stroke-linejoin:round;stroke:#444;fill:#ddd" fill-rule="evenodd">
  <path class="TM" d="M632.6189 667.0562L630.8306 664.3737 629.8246 662.3618 629.7129 660.0146 629.9364 659.4558 630.9424 658.5616 631.1659 657.891 631.0541 656.3262 631.1659 655.8791 631.613 653.7554 631.613 652.8613 631.1659 652.1906 631.613 650.2905 631.613 648.8375 631.2777 647.4963 630.9424 644.3667 630.4953 642.8019 629.9364 641.3488 629.154 640.1194 628.0363 638.6663 626.8068 637.5486 625.3538 636.7662 623.5655 636.4309 622.5595 635.9838 623.4537 634.9779 624.9067 633.7484 625.6891 632.8542 625.8009 631.9601 625.5773 630.2835 625.6891 629.1658 626.1362 628.7187 626.8068 628.4952 627.4774 628.0481 627.701 627.0421 627.8128 626.2597 627.9245 625.3656 628.1481 624.5832 628.4834 624.0243 629.2658 623.0184 629.3776 622.4595 629.2658 622.0124 629.0422 619.3299 628.0363 613.8531 626.9186 612.0648 626.695 611.2824 626.695 609.1587 626.5833 608.2646 626.248 607.3704 625.9127 606.8116 625.5773 606.2527 624.9067 605.8056 624.2361 605.4703 624.4596 604.9114 624.5714 604.6879 624.7949 604.3526 623.789 601.7818 624.2361 597.4228 625.6891 590.2694 625.3538 588.9282 625.1303 587.8105 625.4656 586.9163 625.9127 586.2457 626.3597 585.3515 626.5833 584.3455 626.695 583.2278 626.5833 582.1101 626.3597 581.3277 625.6891 579.9865 625.1303 576.9686 622.2242 576.5216 618.6475 575.9627 611.3824 576.0745 602.8878 576.1862 587.5751 576.5216 577.6275 576.6333 566.2268 576.8569 563.8796 575.5156 562.4266 572.9449 560.303 567.4681 558.8499 565.0091 551.2495 555.7321 547.8964 550.7024 545.2139 545.0021 543.202 542.096 540.4077 540.9783 534.5956 539.8606 531.9131 538.4076 527.2187 534.3838 516.9358 531.0307 516.2651 531.0307 515.5945 531.366 514.7003 532.7073 514.2532 533.1543 513.4708 533.3779 512.5767 532.5955 512.0178 531.1425 511.6825 529.3541 511.2354 528.0129 510.0059 526.6716 509 526.5598 506.6528 527.454 506.0939 527.3422 505.5351 527.1187 504.8645 526.6716 504.4174 526.1128 503.2997 525.7774 503.0761 525.2186 503.2997 524.4362 503.4114 523.8773 503.5232 523.542 503.7468 523.3185 503.8585 522.8714 503.4114 522.2008 502.0702 520.7477 497.5993 517.0593 496.7052 515.8298 495.3639 509.5706 495.1404 507.6705 495.3639 506.6646 495.811 505.7704 496.1463 504.988 495.9228 504.2056 495.4757 503.3114 495.6992 501.2996 495.3639 500.0701 494.0227 498.17 492.5696 496.8287 490.8931 496.3816 486.9811 498.17 485.4163 498.0582 475.804 491.1284 473.5685 488.7812 472.6744 488.3341 470.6625 487.9988 469.6565 487.6635 468.6506 486.8811 465.8563 485.6516 460.2678 484.3103 456.0205 481.9631 455.6851 482.522 455.4616 483.975 454.4557 485.0927 453.785 485.3163 453.0026 485.4281 451.5496 485.0927 450.6554 485.0927 450.2084 485.5398 449.7613 486.0987 449.0906 486.434 447.5259 486.6575 445.8493 486.434 442.8315 485.0927 439.143 481.9631 438.0253 481.2925 436.684 481.4043 435.5663 482.1867 434.6722 483.5279 434.0015 484.981 432.9956 486.5458 431.7661 487.1046 425.2834 487.7752 424.2774 487.4399 422.4891 486.0987 421.5949 485.7634 416.0064 484.8692 414.7769 484.4221 413.5474 483.4162 413.2121 482.4102 413.2121 481.069 412.9886 479.5042 412.765 478.8336 411.6473 476.7099 411.5355 475.9275 411.7591 475.3686 411.6473 474.698 411.2002 474.1392 409.9707 473.4685 408.7413 473.245 406.3941 473.0215 401.6997 471.9037 390.4108 466.5387 387.9518 465.8681 386.8341 465.9799 385.6046 466.2034 384.4869 466.3152 383.3692 465.8681 382.9221 465.3092 382.2515 463.968 381.8044 463.4091 381.2455 463.2974 380.0161 463.5209 379.7925 463.5209 379.4572 463.5209 378.563 462.8503 377.6689 462.0679 376.6629 461.509 375.5452 461.509 374.5393 461.7326 370.9626 461.8443 367.3859 460.8384 366.1564 460.6149 364.927 460.8384 363.8092 461.1737 362.6915 461.3972 352.4086 457.2617 350.6202 454.8028 352.0733 449.9966 352.185 448.5436 351.8497 446.9788 350.2849 444.7433 349.5025 442.0608 347.1553 439.4901 346.2612 438.2606 345.0317 435.0193 343.3551 432.225 343.0198 431.4426 343.0198 430.7719 342.7963 430.2131 342.0139 429.6542 340.5608 429.2072 339.7784 429.0954 338.996 429.2072 337.7666 429.766 337.0959 430.4366 336.8724 430.6602 335.4194 433.2309 334.5252 434.1251 332.2898 435.6899 331.2838 436.584 329.9426 437.2547 328.4895 437.0311 325.6953 435.9134 314.9652 433.9015 313.8475 433.4545 311.3886 432.1132 308.5943 429.766 307.9237 429.6542 304.4587 430.2131 298.7584 432.7838 297.5289 433.0074 296.6348 432.5603 295.7406 431.7779 294.7347 431.219 293.5052 430.8837 286.9107 431.1073 284.3399 432.1132 281.881 433.7898 277.4101 438.0371 276.963 439.2666 278.8631 441.502 279.1985 443.0668 278.9749 444.7433 278.3043 446.1964 277.1866 446.9788 271.0392 448.0965 269.8097 447.8729 267.686 446.9788 267.2389 446.867 264.4447 446.4199 254.1617 448.32 253.044 448.2083 252.0381 447.9847 250.138 446.867 248.9085 446.5317 245.3318 446.5317 244.2141 446.0846 241.4198 444.5198 237.0607 443.5139 234.8253 443.5139 220.7421 446.5317 216.1595 446.6435 214.4829 447.4259 209.1179 451.5614 207.6649 452.232 206.2119 453.4615 205.3177 453.5733 202.0763 454.691 200.5116 455.5851 199.9527 457.0382 199.0585 457.3735 194.923 458.1559 193.47 458.603 192.9111 459.2736 192.1287 460.9502 191.5699 461.6208 190.7875 461.9561 189.7815 462.0679 188.9991 462.6267 188.552 463.8562 187.9932 464.7504 184.64 468.5506 173.91 475.9275 171.7864 478.2747 170.8922 479.7277 170.4451 481.1807 170.1098 482.9691 168.9921 485.7634 169.1039 487.6635 169.3274 488.2223 170.1098 489.0047 170.4451 489.5636 170.5569 490.2342 170.4451 492.3579 170.2216 493.6991 169.3274 495.9345 169.1039 497.2758 168.7685 497.9464 166.8684 499.5112 163.5153 501.7466 162.6211 502.529 161.1681 503.0879 159.4915 504.988 158.3738 505.5469 156.809 505.5469 152.4499 504.6527 150.7734 504.8762 138.7021 511.9178 136.1314 512.7002 134.5666 512.7002 132.89 512.4767 131.437 512.5884 130.0957 513.4826 128.7545 514.7121 127.4132 515.271 126.0719 515.3827 106.512 513.7062 105.5061 502.4173 104.8354 498.8406 103.4942 495.2639 103.0471 493.4756 102.7118 489.4518 100.141 477.3805 98.9116 451.4496 99.1351 449.8848 100.141 446.867 100.8117 442.5079 102.6 435.5781 102.2647 433.0074 103.1589 430.2131 103.2706 426.3011 102.9353 419.5948 102.8235 418.8124 102.1529 417.5829 101.8176 416.8006 101.5941 415.9064 101.4823 414.0063 100.3646 408.4177 100.2528 406.4058 100.9234 399.0289 101.8176 395.3405 102.9353 392.3227 106.1767 386.9576 107.4062 383.7163 106.7355 380.922 107.8532 380.1396 108.4121 378.463 108.7474 376.5629 109.418 375.1099 110.2004 373.7686 111.0946 371.9803 111.4299 370.6391 110.7593 370.8626 110.6475 368.9625 109.6416 368.0683 107.1826 367.0624 107.1826 366.9506 106.8473 366.1682 106.7355 365.9447 106.4002 365.7211 105.5061 365.3858 105.2825 365.274 104.9472 364.7152 104.6119 363.9328 104.3883 363.0386 104.2766 362.0327 103.4942 360.2443 102.6 359.6855 99.9175 359.5737 98.1292 359.1266 97.4585 359.0149 96.6761 359.3502 96.3408 359.909 96.0055 360.0208 95.2231 359.2384 94.6642 357.8971 93.2112 353.5381 92.7641 352.6439 92.0935 353.3145 92.3171 354.7675 92.9877 356.2206 93.5465 357.1147 93.5465 357.6736 92.3171 357.1147 91.3111 355.6617 90.864 353.9851 91.6464 351.5262 90.9758 349.7378 91.0876 348.8437 91.5347 348.2848 93.5465 346.9436 91.4229 346.8318 91.4229 344.8199 92.9877 340.6844 91.5347 341.4668 89.5228 343.0316 88.4051 344.4846 89.411 345.1552 90.0816 355.2146 89.1875 353.8734 87.5109 351.5262 86.6167 350.1849 86.2814 348.5084 86.2814 346.6083 85.7226 345.267 84.1578 345.1552 84.6048 343.9257 84.8284 342.4727 84.7166 341.1315 83.9342 340.6844 83.5989 341.2432 82.3694 344.1493 81.8106 345.1552 81.4752 342.9198 81.8106 340.2373 83.2636 334.984 81.2517 336.8842 82.4812 333.7546 82.7047 332.4133 82.2576 332.6369 80.8046 333.0839 81.587 331.0721 81.3635 330.2897 80.4693 330.7367 79.3516 332.4133 78.7927 331.7427 78.0103 332.1898 74.8807 332.4133 73.5395 333.531 72.8689 333.531 72.9806 331.7427 72.4218 331.7427 71.8629 332.6369 71.0805 333.531 70.1864 334.2017 69.0686 334.3134 69.404 333.6428 69.9628 331.7427 69.5157 331.7427 68.5098 331.8545 67.9509 331.7427 67.9509 331.8545 67.2803 332.3015 67.0568 332.4133 66.8332 332.1898 66.2744 331.2956 66.0508 331.1838 65.0449 331.5191 63.2565 332.4133 62.1388 332.4133 62.1388 331.7427 62.5859 331.0721 62.3624 330.7367 61.8035 330.5132 60.9094 330.5132 60.127 330.4014 59.0092 329.5073 58.2268 329.2837 56.7738 329.3955 53.3089 330.4014 51.8559 331.1838 54.4266 332.8604 55.3208 333.0839 53.9795 335.0958 53.5325 336.3253 53.3089 337.7783 53.4207 339.3431 54.3149 343.2551 54.0913 345.4905 53.4207 346.6083 52.7501 346.3847 50.9617 333.3075 50.5146 332.1898 47.4968 327.4954 47.2733 325.9306 47.9439 324.1422 48.6145 323.2481 50.6264 321.348 50.9617 320.4538 51.1853 319.2243 51.5206 318.2184 52.9736 316.9889 53.8678 315.3123 56.5503 308.0472 58.4504 304.1352 60.9094 301.4527 63.5919 302.0116 62.1388 302.7939 61.0211 303.7999 58.8975 306.7059 58.6739 307.4883 58.0033 310.1708 57.7798 310.5062 56.3267 312.071 56.662 314.4182 59.3446 314.7535 67.1685 313.1887 71.6394 313.4122 73.0924 313.8593 73.9866 315.0888 74.5454 316.5418 75.3278 317.7713 76.3338 318.5537 77.5633 318.889 80.5811 319.1125 81.8106 319.7832 82.4812 319.6714 82.7047 318.7772 82.7047 317.8831 82.4812 317.2124 82.0341 316.7653 81.2517 316.5418 82.1459 314.1946 83.04 314.5299 84.046 315.9829 85.1637 317.2124 86.505 317.2124 88.6286 315.0888 90.0816 314.6417 90.7523 314.977 92.3171 315.8712 92.9877 315.9829 93.7701 315.0888 93.5465 314.1946 92.8759 313.3004 92.0935 312.7416 90.4169 312.071 87.3991 311.2886 86.1696 310.1708 87.2873 309.8355 87.958 309.1649 88.0697 308.159 87.3991 306.7059 86.3932 305.8118 85.499 305.5882 82.0341 305.9235 81.8106 305.3647 81.8106 303.5763 81.587 302.5704 80.9164 301.4527 80.134 300.5585 79.3516 299.9997 79.7987 303.1293 79.7987 304.4705 79.3516 304.4705 76.6691 300.335 74.8807 298.5466 72.9806 298.0996 73.2042 298.6584 73.8748 300.6703 73.4277 300.335 72.31 299.7761 71.8629 299.4408 71.9747 301.2292 73.316 302.9057 73.4277 304.4705 70.9688 302.7939 70.7452 299.5526 71.8629 292.3992 71.0805 292.8463 70.1864 292.9581 69.2922 292.8463 68.5098 292.3992 68.5098 291.7286 70.857 290.4991 74.5454 285.2459 76.8926 282.7869 76.4455 282.3398 76.1102 281.3339 75.8867 280.8868 76.4455 280.5515 77.1162 280.3279 78.5692 280.2162 79.5751 279.8809 79.5751 279.2102 79.1281 278.5396 78.7927 278.4278 79.5751 277.1983 80.6928 276.1924 81.6988 274.9629 82.2576 273.1746 81.8106 273.3981 81.6988 273.5099 81.4752 273.6217 81.2517 273.8452 80.0222 272.6157 79.0163 272.3922 76.3338 272.6157 75.1043 272.1686 73.5395 270.6039 72.4218 269.9332 71.1923 269.5979 69.9628 269.5979 68.7333 269.9332 67.5039 270.7156 64.486 274.0688 63.3683 274.5158 63.033 274.7394 61.9153 275.6336 61.3564 275.8571 60.7976 275.6336 59.5681 274.7394 58.8975 274.5158 58.1151 274.1805 53.5325 270.4921 52.303 270.9392 51.1853 271.9451 50.1793 272.6157 45.0378 273.1746 45.3732 272.3922 45.8202 271.7216 46.3791 271.1627 47.0497 270.7156 42.02 272.2804 39.3375 272.6157 37.1021 271.9451 35.9844 269.1508 34.9784 268.2567 33.749 269.3744 33.749 270.3803 34.196 271.6098 35.4255 273.5099 35.6491 274.6276 36.2079 279.8809 36.5432 280.6633 38.6669 283.4575 39.3375 284.0164 42.02 289.1579 44.2554 291.2815 45.0378 291.7286 45.0378 292.3992 41.5729 290.4991 42.5789 291.1697 44.479 293.7405 44.0319 294.2993 41.7965 291.9521 40.7905 290.7227 38.7787 285.8047 37.7727 284.5752 35.202 283.4575 34.4196 281.8927 33.8607 279.9926 33.5254 276.416 32.8548 275.41 26.0367 269.8215 23.466 267.2507 22.4601 265.2388 23.0189 261.2151 23.5778 258.8679 24.1366 257.5266 24.5837 255.8501 23.9131 254.0617 21.9012 251.491 22.7954 250.5968 22.4601 249.7026 21.007 248.2496 19.6658 244.5612 19.8893 240.9845 22.3483 224.7777 23.3542 221.7598 24.919 218.6303 29.1663 212.5946 31.4018 208.4591 31.7371 205.1059 31.0664 204.5471 29.2781 204.1 28.831 203.4294 28.9428 202.5352 29.5017 200.8586 29.5017 200.5233 29.1663 200.188 30.0605 199.6292 31.29 199.1821 31.7371 199.2938 31.8488 198.3997 31.7371 197.3937 31.5135 196.4996 31.29 196.0525 32.9666 188.8991 35.6491 181.7458 36.2079 178.5044 35.202 171.9099 35.202 168.1097 35.9844 168.6685 37.6609 169.6745 38.4433 170.3451 38.6669 171.4628 38.5551 172.5805 38.2198 173.6982 38.2198 174.5924 38.8904 176.4925 42.02 180.4045 42.5789 182.0811 43.473 185.6578 44.0319 186.999 46.2673 188.5638 46.4909 188.8991 48.2792 188.8991 49.1734 188.7873 49.844 188.2285 48.7263 189.5697 47.0497 190.2404 45.8202 190.911 46.2673 192.4758 46.7144 193.0347 47.8321 193.9288 48.5028 194.7112 48.6145 195.6054 48.6145 196.6113 48.8381 197.6173 49.6205 197.9526 52.8618 198.1761 54.2031 198.0644 55.7679 197.3937 59.0092 193.9288 60.127 193.4817 59.0092 196.0525 58.6739 197.5055 59.4563 198.0644 64.8213 197.3937 65.492 196.9466 65.6037 195.8289 65.6037 194.7112 65.8273 193.8171 66.8332 192.2523 67.6156 191.8052 68.5098 192.1405 68.5098 192.6993 68.0627 194.3759 67.9509 195.2701 68.6216 197.1702 69.6275 198.6232 71.0805 199.6292 72.6453 199.9645 73.0924 200.188 74.0983 201.0822 74.8807 201.1939 75.6631 201.0822 76.3338 200.6351 77.3397 199.9645 79.9105 198.735 80.9164 197.6173 81.2517 195.7172 81.1399 191.5816 81.3635 190.1286 83.1518 186.4402 83.5989 186.2166 84.4931 186.2166 85.1637 186.4402 85.8343 186.8872 86.3932 187.4461 86.6167 187.8932 86.8403 188.3403 87.8462 188.6756 88.1815 188.8991 88.1815 189.5697 87.958 190.1286 87.7344 190.5757 87.6227 190.7992 88.0697 192.8111 88.4051 193.5935 89.0757 194.0406 88.5168 195.3818 88.1815 196.0525 87.6227 196.6113 88.4051 198.2879 89.5228 202.0881 90.6405 203.7647 91.3111 204.2118 91.9817 204.4353 92.6524 204.6589 92.9877 205.6648 92.7641 206.3354 91.7582 208.4591 91.5347 209.2415 92.7641 211.5887 95.4466 211.5887 98.688 210.918 102.8235 211.4769 104.053 210.3592 105.1707 209.0179 108.1886 207.2296 108.971 207.0061 109.6416 207.1178 111.6535 208.2355 113.4418 208.4591 114.8948 208.012 116.2361 207.3414 118.4715 206.7825 119.0304 206.2237 119.3657 205.4413 119.4774 204.7706 119.1421 204.6589 117.242 203.7647 116.5714 203.0941 120.7069 203.3176 122.8306 202.9823 124.9542 201.7528 129.3133 201.8646 129.5369 202.0881 129.2015 202.7587 128.4191 204.9942 128.1956 205.4413 128.5309 205.7766 130.7663 206.7825 141.4964 207.0061 140.1551 206.1119 138.5903 205.6648 139.4845 204.4353 142.3905 203.7647 143.5083 202.5352 136.3549 202.647 135.4607 202.5352 134.9019 201.641 134.6783 199.6292 134.4548 197.9526 133.1135 195.3818 132.5547 192.8111 131.884 191.3581 131.7723 190.5757 131.884 189.9051 132.1076 189.458 132.3311 189.0109 132.2194 188.2285 131.7723 188.1167 131.1017 188.2285 130.431 188.005 130.3193 186.999 130.5428 186.5519 131.1017 186.4402 131.6605 186.4402 132.2194 186.2166 134.0077 184.093 135.0136 183.4223 136.3549 183.087 138.4785 183.9812 142.8376 187.5579 143.9553 187.5579 145.9672 188.8991 146.1908 190.2404 145.2966 191.6934 143.9553 193.4817 146.6378 194.1524 154.9089 192.5876 157.3679 191.6934 158.4856 191.4699 159.7151 189.2344 162.7329 187.6696 163.4035 187.1108 166.086 182.5282 166.7567 181.0751 166.9802 179.5103 166.7567 177.9455 166.086 176.6043 164.2977 174.2571 162.0623 170.5686 161.1681 170.0098 161.1681 169.4509 162.7329 169.6745 164.5212 170.5686 167.5391 172.6923 167.092 171.9099 165.6389 170.6804 165.0801 170.0098 164.4095 169.1156 164.1859 168.5568 164.0741 168.1097 164.1859 167.4391 164.5212 166.8802 164.8565 166.5449 165.0801 166.8802 163.8506 165.2036 161.9505 164.6448 159.8268 164.4212 158.1503 163.5271 158.0385 160.7328 155.5795 157.9385 141.2728 146.8732 135.0136 144.0789 133.7842 143.1847 131.1017 140.5022 127.7485 138.6021 126.2955 137.4844 125.9602 136.9255 125.1778 135.3607 123.613 133.0135 123.0541 132.4547 120.4834 131.8958 119.0304 131.0017 118.0244 129.7722 117.0185 128.3191 115.6772 125.3013 114.8948 121.9482 114.5595 118.2597 114.5595 109.9887 114.1124 106.5238 113.33 103.2824 112.1006 100.1528 108.7474 94.3407 108.1886 92.5524 107.8532 91.77 107.0708 91.5464 106.2884 91.3229 105.7296 90.9876 105.3943 89.7581 105.6178 88.8639 106.0649 88.0815 106.2884 86.9638 106.1767 86.405 105.8414 84.5048 105.7296 83.3871 106.6238 81.1517 106.7355 80.034 106.7355 78.4692 106.512 76.4573 106.0649 74.669 105.2825 73.1042 103.0471 70.8688 99.6939 68.7451 96.1173 67.5156 92.9877 68.5216 89.9699 66.845 67.9509 70.5334 63.8154 72.7689 62.3624 73.1042 56.8856 72.8806 52.8618 70.6452 49.844 71.9865 47.1615 74.4454 45.4849 76.4573 38.3316 82.1576 36.655 84.9519 28.3839 103.2824 27.1545 105.1825 26.1485 105.9649 25.5897 107.0826 25.0308 109.318 24.6955 111.777 24.919 113.23 25.8132 113.0065 27.9369 110.1004 29.0546 109.318 32.6312 109.6534 34.3078 110.4358 35.202 112.0006 35.0902 113.23 33.9725 115.2419 33.749 116.2479 33.8607 117.2538 34.196 119.0421 34.196 120.1598 33.9725 122.2835 29.1663 134.5783 28.831 136.4784 27.9369 139.2727 27.8251 140.1669 27.9369 141.0611 28.831 143.4083 29.5017 147.432 30.0605 153.3559 30.5076 154.9207 34.3078 162.8564 34.7549 164.533 34.3078 166.5449 32.8548 169.3392 32.743 171.351 32.2959 171.351 31.8488 170.4569 30.7311 169.4509 30.284 168.7803 30.1723 167.7744 30.7311 164.8683 30.7311 162.6329 30.5076 160.7328 30.0605 158.8327 29.2781 157.0443 28.9428 156.5972 28.0486 155.4795 27.8251 155.1442 27.6015 154.0265 27.8251 152.2382 27.8251 151.2322 26.2603 145.6437 26.1485 144.7495 25.2543 143.9671 24.0249 140.2787 22.9072 139.4963 22.013 139.2727 21.3424 138.7139 21.1188 137.8197 21.007 136.4784 20.8953 135.5843 20.4482 135.0254 19.2187 133.9077 18.4363 133.3488 16.5362 133.0135 15.8656 132.5664 13.4066 129.3251 12.1771 128.3191 10.8359 127.7603 9.8299 126.7543 9.7182 124.4072 9.9417 124.1836 11.3947 121.5011 11.73 120.7187 11.73 119.601 11.6183 117.4773 11.73 116.8067 12.1771 115.8008 12.2889 115.2419 12.0653 114.6831 11.73 114.3477 11.3947 114.1242 11.1712 113.9007 10.6123 112.0006 10.1652 111.2182 9.7182 110.6593 9.1593 110.4358 8.0416 110.6593 7.4827 110.324 6.8121 109.318 6.4768 108.871 5.3591 108.3121 4.2414 106.9708 3.5707 106.6355 1.8942 106.1884 1 104.8472 3.9061 101.8294 14.8596 90.8758 24.3602 81.2635 39.6728 68.5216 50.8499 64.4978 54.8737 62.0388 70.6334 55.7796 75.3278 54.7737 87.958 52.4265 98.9116 50.5264 116.0125 47.3968 121.4893 48.0674 126.6308 49.9675 137.6961 57.4562 149.7674 65.5037 157.0326 70.3099 165.5272 76.0102 177.5985 87.1873 179.275 89.4228 179.9457 91.3229 179.9457 92.8877 179.6103 94.5642 179.4986 96.6879 179.9457 98.588 180.6163 100.3763 188.105 110.4358 191.3463 114.7948 196.0407 123.1777 200.5116 131.2252 202.747 133.9077 205.2059 136.1431 209.6768 139.1609 210.7945 140.5022 211.6887 142.067 213.7006 146.8732 214.93 148.5497 216.3831 149.6674 218.3949 150.8969 220.6304 151.5675 229.6838 151.1205 233.8194 149.4439 240.5256 148.438 246.8966 145.3084 249.2438 145.1966 254.1617 145.6437 265.7859 146.2025 279.0867 146.9849 293.8405 147.7673 296.523 147.8791 312.5063 148.7733 319.2125 150.2263 327.9307 152.0146 329.3837 151.2322 331.5074 147.2085 332.9604 145.5319 336.3135 143.9671 337.7666 142.8494 338.6607 141.8435 338.7725 141.1728 338.2136 140.8375 334.637 139.9433 333.5193 139.3845 332.5133 138.6021 330.9485 136.8138 329.6073 134.4666 328.6013 131.8958 328.266 129.2133 328.3778 125.8602 328.0425 123.0659 327.2601 120.6069 325.6953 117.9244 324.354 114.5713 324.4658 111.5535 325.0246 108.4239 325.2482 104.8472 323.6834 97.2468 323.6834 93.5583 325.6953 90.764 332.5133 87.5227 335.5311 85.2872 338.2136 81.2635 342.1256 73.8866 347.826 68.1862 354.5322 64.9449 361.462 64.6096 371.5215 66.3979 374.8746 65.7273 378.7866 63.8272 380.2396 63.4919 385.0458 63.7154 386.4988 63.3801 388.0636 62.2624 387.84 61.3682 386.9459 60.2505 386.387 58.7975 386.9459 57.4562 389.7402 56.562 390.7461 55.4443 393.6521 48.7381 394.3228 46.5026 394.0992 44.9378 392.6462 41.6965 392.1991 39.1257 393.4286 38.1198 395.3287 37.2256 397.2288 35.102 397.7877 33.9843 398.5701 32.9783 399.9113 32.4195 401.4761 32.0842 403.0409 32.1959 404.4939 32.643 405.4999 33.649 407.1765 36.1079 408.2942 36.7785 409.4119 36.6668 411.9826 35.5491 413.3239 35.3255 414.8887 35.6608 422.042 39.014 424.3892 40.8023 426.2893 43.2613 426.96 46.7262 426.7364 48.5145 426.4011 50.0793 426.2893 51.6441 427.1835 52.8736 428.3012 53.2089 432.9956 52.5383 433.778 51.9794 434.1133 51.197 433.778 50.3029 432.9956 49.6322 430.0895 46.1673 424.7245 37.5609 422.8244 32.9783 420.589 29.6252 418.13 27.6133 409.1883 23.366 407.8471 22.1365 407.4 20.3482 408.0706 18.8952 409.4119 17.8892 412.0944 16.7715 415.8946 14.4243 417.2359 13.9772 418.9124 13.9772 426.6246 17.1068 430.3131 18.001 434.0015 18.2245 437.0194 17.3304 438.4724 14.5361 439.4783 6.265 440.8196 4.0296 442.4961 5.0355 457.9206 23.2542 462.7267 27.7251 467.7564 29.9605 470.886 30.6311 473.0097 30.5194 475.1333 29.8487 477.1452 28.8428 478.9336 28.731 480.7219 29.737 485.3045 34.5431 486.3105 36.2197 486.9811 38.008 487.7635 45.3849 488.7694 47.1733 490.7813 48.291 494.4697 48.6263 496.1463 49.2969 498.9406 52.3147 500.7289 52.9854 504.4174 53.0971 519.6183 50.7499 525.7657 51.3088 529.007 50.9735 532.2484 51.3088 534.4838 53.7678 536.4957 56.8974 538.9547 59.2446 542.0843 60.474 543.7608 61.48 544.655 62.7095 544.4315 64.386 543.202 65.1684 541.749 65.8391 540.6312 66.6215 539.9606 71.0923 541.3019 75.8985 541.5254 79.6987 537.2781 81.3752 537.2781 81.2635 536.0486 81.7106 535.1545 82.6047 535.0427 83.946 535.8251 85.2872 536.9428 85.7343 540.6312 85.6226 548.1199 88.4168 550.2436 90.2052 551.9201 92.7759 552.7025 94.0054 553.7085 95.1231 557.1734 97.135 558.1793 98.0292 558.9617 99.1469 559.7441 100.4881 559.8559 101.8294 558.9617 103.0589 557.844 103.1706 556.5028 102.6118 554.0438 101.047 551.3613 100.1528 549.1259 100.3763 547.114 101.7176 545.3256 104.4001 545.9963 107.7532 548.1199 112.0006 552.9261 118.7068 553.5967 120.4952 552.5908 121.7246 549.5729 123.1777 548.3435 124.2954 547.4493 125.6366 546.8904 127.2014 545.9963 134.9136 546.5551 137.1491 548.567 139.1609 556.391 143.1847 563.209 146.7614 567.5681 149.891 571.3683 153.803 573.492 155.3678 575.9509 156.0384 580.31 155.9266 588.9164 153.0206 603.3349 152.1264 608.2528 153.3559 611.7177 156.9326 612.1648 156.4855 612.6119 156.0384 613.6178 154.3618 614.0649 153.6912 614.2884 153.9147 614.512 154.6971 614.9591 155.5913 619.0946 154.8089 620.4359 154.9207 627.8128 160.1739 630.7188 161.2916 633.4013 161.2916 635.8603 159.9504 637.8722 157.8267 639.2134 154.8089 641.0018 153.803 641.6724 150.4498 642.6783 148.438 644.2431 147.6556 646.9256 147.9909 653.8554 149.7792 660.1146 152.4617 676.0979 164.3095 677.4392 165.8743 682.6924 174.7042 683.363 176.269 683.5866 178.1691 683.8101 184.8754 684.1454 186.3284 683.5866 186.999 684.369 188.8991 686.6044 196.8349 687.3868 201.0822 688.0574 203.0941 688.8398 204.3235 691.187 207.0061 691.9694 208.2355 693.4224 214.0476 694.4284 216.0595 697.1109 219.6362 697.4462 220.5304 698.0051 222.654 698.2286 222.8776 698.5639 223.4364 700.0169 224.6659 703.4818 225.6718 709.4057 229.025 710.0763 229.9191 710.2999 233.8311 710.747 235.6195 712.5353 239.3079 713.2059 240.9845 713.4295 242.8846 713.4295 245.3436 713.7648 247.2437 716.0002 252.0498 716.2238 254.0617 715.8884 255.7383 715.2178 257.4149 714.9943 259.4267 715.1061 261.6622 716.4473 266.9154 717.2297 269.3744 722.3712 275.8571 723.0418 276.3042 727.1773 280.4397 735.5602 286.4754 745.396 293.5169 756.9085 301.788 780.4922 318.6655 790.4398 325.707 795.0224 330.0661 802.7347 340.7961 807.0937 345.267 814.9177 350.9673 824.9771 358.2325 836.4895 366.3917 838.6132 367.5095 840.7369 367.9565 842.5252 367.5095 848.1138 364.827 850.2374 364.4916 851.914 365.6094 854.1494 368.4036 858.1732 373.6569 873.2623 386.3988 882.4275 391.7638 892.934 395.4523 897.7402 398.4701 907.2407 407.1882 914.0587 413.3356 923.6711 419.9301 930.8244 424.7363 942.5604 432.6721 947.3666 434.3486 952.2845 433.9015 954.1846 432.8956 957.5377 430.1013 959.6614 429.2072 962.0086 429.4307 969.2737 433.0074 973.9681 433.7898 975.98 434.7957 980.4508 438.3724 985.0334 439.7136 987.3806 440.8314 989.5043 442.7315 992.8574 446.9788 1000.1226 450.4437 1002.2462 451.1143 1007.723 451.1143 1010.5173 451.8967 1013.088 453.1262 1015.547 454.8028 1016.4411 457.3735 1017 459.1618 1014.4293 464.3033 1010.5173 469.5565 1007.9465 474.0274 1007.723 477.4923 1008.2818 484.6457 1007.9465 488.2223 1006.3817 494.258 1006.1582 497.4993 1007.1641 500.0701 1008.5054 501.2996 1009.6231 502.529 1009.9584 503.9821 1008.8407 505.7704 1007.4994 507.2234 1006.3817 508.6765 1006.27 510.353 1008.0583 511.8061 1006.8288 512.4767 1005.5993 513.5944 1004.4816 514.8239 1003.9228 515.3827 1003.1404 515.4945 1002.2462 515.0474 1001.1285 513.3708 1000.4579 513.0355 998.7813 513.2591 993.7516 514.9356 991.9633 514.7121 990.5102 513.5944 989.2807 512.3649 988.8337 512.1414 988.163 511.8061 987.4924 511.6943 986.4865 510.8001 985.7041 510.5766 983.3569 510.6883 982.5745 510.5766 981.1215 509.9059 979.892 508.6765 977.8801 505.9939 976.5388 504.8762 960.5556 498.8406 959.1025 497.8347 958.6554 497.164 958.0966 496.3816 956.8671 493.5873 956.3083 493.252 954.8552 492.9167 953.8493 492.4696 953.6257 493.6991 953.1787 496.1581 952.2845 496.9405 949.2667 496.8287 948.0372 497.164 947.143 497.7229 946.4724 498.6171 945.69 500.0701 944.7958 501.8584 944.1252 503.7585 943.7899 505.7704 944.3487 509.6824 944.3487 511.6943 944.0134 513.4826 943.1193 514.7121 941.1074 516.8358 937.7542 521.4184 935.1835 522.7596 934.2893 522.7596 903.8876 523.542 898.5226 525.3304 885.6689 532.2602 883.5452 533.825 882.204 536.1722 881.8686 539.6371 883.2099 546.4551 883.5452 549.92 882.5393 552.9378 879.9685 557.8558 872.2563 571.9389 871.1386 574.7332 870.1327 578.3099 869.9091 580.0982 869.9091 581.8866 870.2444 583.7867 871.2504 587.1398 871.4739 589.0399 871.1386 592.5048 870.3562 595.858 869.1267 598.8758 863.4264 607.5939 861.9734 609.3823 859.6262 611.2824 857.1672 612.1766 851.914 613.4061 850.6845 613.9649 849.5668 614.6355 848.6726 615.7532 847.5549 619.3299 846.8843 619.8888 845.9901 619.6652 844.7606 619.2182 841.8546 618.7711 839.1721 619.2182 836.7131 620.4476 831.9069 624.1361 831.0128 625.2538 830.4539 626.7068 830.4539 628.2716 831.1245 632.4072 831.0128 633.5249 824.3065 630.8424 822.2946 630.3953 821.1769 630.6188 819.9474 630.8424 817.8238 631.4012 811.1175 635.425 808.2114 636.2074 799.3815 636.6545 797.9285 636.9898 796.5872 637.7722 795.5813 638.7781 793.9047 641.1253 792.8988 642.1312 787.0867 644.8138 780.8275 646.155 765.2913 645.7079 763.7265 646.0432 762.6088 647.2727 762.3853 648.7257 762.8323 649.8435 763.6147 651.0729 763.8383 652.526 764.2854 653.7554 767.9738 656.9968 768.9798 658.3381 769.4268 658.7851 771.327 659.4558 771.6623 659.9029 771.5505 660.5735 771.2152 661.3559 769.2033 662.8089 763.7265 664.5972 761.8264 666.4974 761.7146 667.8386 761.8264 672.3095 762.0499 673.4272 763.2794 674.3213 763.503 675.3273 762.8323 678.0098 762.497 681.3629 762.0499 683.0395 761.044 684.0454 759.7028 684.3807 756.6849 684.6043 755.2319 684.9396 750.4257 687.2868 743.943 692.4283 743.7195 692.6518 739.1369 694.7755 737.3485 696.6756 736.4543 697.9051 735.4484 698.911 734.4425 699.5816 729.1892 701.8171 728.0715 702.0406 727.4009 701.9288 725.2772 701.0347 724.4948 701.1464 723.8242 701.37 723.1536 701.37 722.3712 700.9229 717.6768 696.5638 715.6649 696.6756 713.3177 698.911 706.3879 708.4116 705.2702 708.9704 704.4878 708.0762 703.1465 704.9466 702.6994 703.6054 702.923 700.0287 702.8112 698.4639 702.2524 696.8991 701.47 695.5579 700.464 694.4402 696.552 692.7636 694.5402 691.4223 687.275 684.1572 685.3749 682.816 683.2513 681.81 679.004 681.6982 670.3976 684.7161 666.1503 685.0514 656.538 683.5983 651.8436 681.6982 648.4904 678.0098 643.9078 673.6507 643.2372 673.4272 642.7901 673.2036 642.0077 673.0919 641.4488 672.7565 641.0018 672.1977 640.4429 671.5271 640.4429 671.1917 640.7782 670.2976 640.6664 669.8505 639.5487 668.8446 639.437 668.8446 639.3252 668.8446 638.431 668.0622 638.9899 667.0562 639.1017 666.8327 638.431 666.2738 637.8722 665.9385 637.3133 665.9385 633.5131 666.7209 632.6189 667.0562ZM43.3613 357.2265L44.0319 355.4382 45.2614 354.2087 47.0497 353.8734 47.385 354.544 47.4968 354.7675 47.4968 355.2146 45.3732 356.7794 45.0378 360.4679 45.932 367.8448 46.8262 375.4452 48.5028 382.9339 48.1674 384.1634 48.1674 384.6105 48.5028 385.3928 47.9439 385.3928 47.7204 383.2692 45.7085 375.3334 44.479 372.8745 44.0319 371.5332 43.9201 370.5273 44.0319 368.0683 43.9201 365.6094 43.2495 361.362 43.026 359.2384 43.3613 357.2265ZM74.6572 308.8296L75.4396 308.0472 76.3338 307.6001 76.7809 308.2707 77.2279 308.7178 77.5633 308.8296 77.8986 308.2707 78.1221 310.2826 78.3457 310.8415 79.7987 313.0769 79.3516 314.1946 78.4574 315.2006 77.3397 315.9829 76.3338 315.9829 75.9985 315.2006 75.1043 312.2945 74.6572 311.1768 74.3219 309.9473 74.6572 308.8296Z" />
</svg>