<?xml version="1.0" encoding="utf-8"?>
<svg xmlns="http://www.w3.org/2000/svg" viewBox="0 0 490 1024" style="stroke-width:0.25px;stroke-linejoin:round;stroke:#444;fill:#ddd" fill-rule="evenodd">
  <path class="TN" d="M478.5548 608.6821L478.6666 615.053 475.3134 628.4656 474.9781 630.701 474.8663 638.525 472.7427 648.1373 473.6369 662.7793 471.9603 677.6449 471.9603 685.3571 474.4193 690.8339 482.355 698.6579 485.1493 703.6876 485.5964 709.6114 483.4727 713.9705 481.0138 716.3177 479.5607 717.659 471.2897 723.2475 440.329 738.1131 403.6681 755.7729 400.4267 759.2378 395.6206 770.3032 391.7086 774.2152 387.4613 776.8977 383.4375 780.1391 381.2021 780.8097 378.9667 780.0273 376.843 778.7978 374.6076 778.4625 371.9251 781.3685 371.0309 792.5457 369.4661 797.1283 364.4364 801.8227 362.4245 806.6288 360.9715 808.7525 359.2949 810.5408 357.3948 812.1056 350.9121 814.6763 337.4996 814.4528 331.4639 819.3707 323.4164 833.5657 315.9277 842.0603 314.0276 845.3017 312.7981 854.3551 313.0217 856.8141 321.8516 880.5096 325.4283 895.1516 329.2285 903.0873 329.3403 905.6581 328.6696 910.9113 329.2285 915.8293 332.1345 925.5534 332.1345 930.136 330.2344 935.7245 322.9693 950.9254 312.1275 963.332 299.6091 983.5626 284.8553 1002.6755 281.8375 1004.4638 273.2311 1005.0227 269.7662 1006.0286 243.2765 1020 239.9233 1004.9109 236.5702 989.8218 233.1053 974.7327 229.7521 959.5318 226.399 944.3309 223.0459 929.13 219.6927 913.9292 216.3396 898.7283 212.9865 883.5274 209.6333 868.2147 206.2802 852.9021 202.9271 837.7012 199.5739 822.2768 196.2208 806.9641 192.8677 791.6515 189.4028 776.2271 189.1792 774.774 186.9438 764.8264 185.6025 762.1439 184.0377 760.132 164.0307 745.7135 139.2175 727.7184 120.3282 713.9705 105.7979 704.5817 102.5565 701.1168 102.333 700.8933 100.9917 696.1989 99.874 681.6686 98.1975 661.8851 96.6327 657.4143 84.5614 638.525 73.3843 620.9769 70.7018 619.3003 68.2428 619.8592 65.7838 619.7474 63.3249 618.965 61.0894 617.7355 47.9004 608.235 43.6531 606.782 37.9528 606.2231 33.5937 604.8818 30.4641 601.5287 28.6758 594.9342 28.564 576.1567 28.564 575.486 26.7757 570.0092 17.6105 554.026 10.1218 540.837 9.1158 537.2603 7.8864 529.7716 4.5332 523.1771 3.6391 520.7182 2.0743 512.8942 1.4036 507.3056 3.8626 492.9989 4.3097 482.4924 5.8745 478.5804 8.4452 475.8979 13.2514 470.8682 16.1574 467.068 19.3988 463.7149 23.9814 461.3677 31.5818 460.1382 33.8173 458.9087 35.2703 457.1204 36.388 454.7732 40.8589 437.7839 43.0943 432.7542 47.7887 429.4011 58.0716 424.8185 62.9895 421.3536 74.2784 416.1003 75.2844 415.2062 80.0905 410.8471 82.8848 409.1705 83.8908 408.1646 84.3378 407.1586 85.232 404.6997 86.0144 403.4702 90.2617 400.7877 91.1559 399.2229 88.0263 394.4167 88.3616 392.1813 89.8146 389.9459 93.6149 385.9221 93.7266 385.6986 94.7326 384.4691 95.0679 382.4572 92.8325 367.927 92.6089 362.5619 93.8384 356.9734 96.6327 349.1494 98.7563 338.5311 100.3211 333.3897 105.9097 327.2422 113.063 316.1769 114.1807 313.2708 110.157 310.1413 105.2391 308.5765 100.7682 306.341 97.9739 301.1996 97.1915 295.2757 97.5268 289.9107 98.7563 284.881 103.0036 274.598 103.0036 270.2389 101.8859 258.0559 101.4388 253.585 99.427 248.7789 93.6149 239.2783 92.2736 234.1369 91.7147 227.9894 92.3854 216.3652 94.9561 207.2 95.4032 205.4117 95.7385 197.3641 98.3092 186.5223 99.6505 184.1751 100.6564 181.3809 100.4329 178.6983 99.5387 176.0158 98.9799 173.1098 99.5387 166.9624 105.1273 151.2026 105.2391 150.4202 105.5744 148.4084 105.6861 142.3727 105.4626 139.4667 104.4567 136.7842 102.6683 135.6664 100.4329 135.1076 98.1975 133.8781 87.8028 132.5369 82.9966 130.525 82.9966 130.4132 83.2201 125.4953 86.0144 122.0304 89.4793 119.9067 97.0798 117.0007 111.4982 108.1707 114.069 105.2647 116.8633 100.1232 117.8692 94.87 115.4102 91.8521 111.2747 89.7285 112.0571 87.2695 115.7455 85.4812 120.3282 84.9223 124.799 85.2576 128.8228 84.3635 137.0938 81.1221 139.2175 79.5573 139.2175 77.769 135.1937 71.5098 134.7466 69.945 134.8584 68.1567 134.5231 64.2447 136.7585 63.3505 145.1414 59.8856 148.0474 59.3267 158.2186 59.3267 160.7893 58.3208 165.7073 54.1853 169.2839 52.5087 170.1781 52.0616 172.8606 49.4909 176.5491 45.02 180.1257 37.9784 181.8023 36.8607 182.92 36.3019 186.2732 32.7252 187.5026 31.9428 191.0793 30.4898 200.4681 26.6895 201.9211 25.7954 204.3801 21.6598 206.6155 20.5421 222.2635 20.3186 226.7343 18.5303 229.6404 15.4007 231.3169 14.2829 232.8817 14.9536 234.1112 15.6242 235.4525 15.4007 236.682 14.8418 240.1469 13.9476 242.9411 12.7182 245.5119 10.9298 247.1884 9.2532 249.5356 10.7063 251.7711 10.2592 256.1301 7.2414 258.5891 5.9001 260.601 5.453 265.8542 5.3413 268.425 4.2235 269.878 4 271.1075 4.7824 272.1134 5.6766 273.3429 6.1237 283.4023 6.3472 283.4023 6.7943 283.7376 8.2473 283.7376 14.9536 280.0492 17.9714 275.5783 19.8715 273.1194 23.56 273.4547 24.6777 275.3548 28.8132 275.9136 29.7074 276.5843 30.1545 277.3667 32.2781 278.3726 32.7252 283.5141 33.5076 285.973 32.9487 288.5438 30.8251 289.9968 28.8132 291.3381 26.0189 291.2263 23.6717 283.7376 20.5421 282.6199 20.6539 280.1609 21.4363 278.8197 21.4363 278.8197 20.5421 281.614 18.5303 282.8435 18.1949 283.5141 17.5243 284.0729 16.7419 284.4083 16.4066 286.1966 16.0713 297.8208 18.7538 299.9444 18.5303 306.2036 15.6242 307.2096 15.9595 309.1097 18.8656 317.4925 20.095 321.2927 23.6717 330.1227 26.8013 332.3581 28.8132 328.5579 29.8191 326.8813 30.4898 325.2047 31.7193 324.5341 29.2603 321.2927 28.8132 317.4925 29.8191 315.3689 31.7193 316.263 34.1782 319.2809 35.2959 322.8575 35.5195 325.2047 34.8488 325.9871 36.1901 327.1048 37.8667 327.4402 39.2079 326.7695 40.9963 325.9871 38.8726 320.8457 44.0141 321.7398 51.2792 326.2107 58.7679 331.6875 64.3564 336.0465 66.4801 337.3878 67.3743 340.0703 71.2862 341.2998 73.0746 340.7409 74.7512 337.9466 77.5454 336.8289 80.5633 335.5994 81.681 333.9229 82.0163 332.3581 80.675 333.2523 78.3278 332.1345 77.769 330.1227 78.1043 326.3224 79.3338 325.093 80.2279 323.0811 83.134 322.5222 85.2576 324.1988 86.04 327.8872 86.1518 329.452 86.9342 330.2344 86.1518 330.5697 85.8165 332.3581 82.5751 334.9288 88.2755 338.0584 92.5228 342.3057 95.0935 347.8943 95.7641 349.5708 95.3171 351.918 95.4288 357.9537 92.411 361.6421 91.5168 363.9893 89.0579 364.8835 84.9223 365.6659 81.5692 367.3425 75.5336 369.4661 73.6334 372.0369 73.1864 377.5136 73.5217 382.5433 72.6275 387.126 70.7274 392.9381 66.4801 396.6265 62.6799 397.7442 62.121 398.1913 60.7798 398.5266 59.9974 405.3447 54.4088 406.3506 53.1793 406.6859 51.5028 406.2388 50.4968 406.0153 49.6026 407.133 48.0378 409.592 46.8084 415.6276 46.2495 420.2102 42.6728 422.6692 42.3375 424.6811 43.3435 425.7988 46.026 425.687 47.2554 424.4575 49.0438 424.1222 50.6086 424.4575 52.2851 425.5752 54.4088 425.7988 55.7501 426.2459 56.756 428.3695 59.8856 429.0402 61.3386 429.3755 62.7916 429.599 65.9212 429.9343 67.3743 430.3814 68.6037 431.2756 69.945 432.058 70.9509 432.7286 71.398 433.3992 72.2922 434.8523 74.5276 434.1816 76.9866 432.5051 79.222 427.8107 81.2339 421.3279 86.7107 417.7513 93.1934 412.7216 100.6821 404.4505 116.2183 397.9678 132.2015 394.9499 136.3371 385.1141 138.9078 373.7134 145.3905 369.5779 144.2728 365.4424 147.2906 361.6421 153.2145 359.9656 158.8031 358.4008 164.8387 356.9477 170.8744 356.7242 178.4748 356.3889 186.2988 356.9477 191.105 358.5125 196.1347 359.4067 198.7054 359.9656 199.7113 360.5244 201.1644 361.195 204.2939 361.6421 205.6352 364.2129 209.659 366.113 211.7826 367.7895 212.7886 369.1308 214.2416 372.2604 223.8539 373.937 225.754 382.0963 233.578 382.4316 233.8015 384.667 235.031 388.2437 236.484 395.397 233.9133 396.6265 234.2486 397.7442 234.9193 399.8679 236.9311 398.5266 238.8312 397.856 241.7373 398.5266 244.7551 399.8679 246.767 404.674 249.1142 415.2923 253.3615 420.0985 252.8026 423.5634 255.7087 425.2399 259.0618 420.6573 260.8502 420.0985 264.2033 420.322 266.6623 420.4338 267.78 421.5515 270.9096 423.3398 273.0332 428.8166 274.8216 425.5752 277.7276 424.6811 281.6396 424.1222 285.2163 424.5693 291.5872 423.1163 294.6051 423.6751 299.8583 426.4694 304.3292 430.7167 309.6942 433.1757 311.5943 436.0817 312.9355 437.7583 313.8297 437.5348 316.624 434.2934 316.7358 431.9462 318.5241 429.599 323.1067 426.1341 326.1245 424.4575 329.3659 422.781 332.8308 420.5455 334.8427 421.3279 338.9782 420.8809 343.3373 416.8571 348.4788 412.2745 350.7142 408.9213 354.5144 409.8155 357.8675 408.8096 360.8854 408.8096 366.5857 403.8916 370.1624 402.8857 371.2801 402.1033 371.9507 401.6562 372.7331 402.9975 375.6392 403.4446 377.651 399.0855 379.6629 396.2912 381.7866 392.491 385.9221 390.7026 389.7223 388.3554 391.846 387.2377 394.4167 385.2259 396.7639 383.214 397.9934 375.39 400.5641 374.2723 401.2348 373.8252 402.2407 373.6017 403.8055 373.0428 405.5938 372.1486 407.0469 371.9251 409.8411 371.1427 411.5177 370.9191 414.0884 369.1308 415.765 366.4483 417.1063 355.3829 418.7828 351.3592 421.0183 345.1 431.5248 339.2879 432.9778 338.1702 432.9778 337.0525 432.4189 335.7112 432.3072 334.2582 432.866 333.5876 433.5366 333.1405 434.4308 330.5697 437.8957 329.452 438.7899 327.8872 439.237 322.2987 441.6959 319.9515 443.596 315.1453 445.4961 312.2393 448.6257 310.7862 453.0966 306.5389 461.703 304.08 465.7267 302.4034 466.2856 301.3975 467.4033 300.7268 467.7386 301.8446 470.1976 302.2916 473.1036 302.2916 479.0275 302.7387 481.71 304.4153 487.1868 304.8624 489.8693 305.9801 494.5637 308.6626 499.8169 319.5044 515.5767 320.6221 516.6944 322.2987 517.5886 339.2879 534.5778 343.7587 537.2603 353.0358 541.284 354.7123 541.7311 358.1772 542.5135 366.3365 541.284 375.2782 538.7133 382.8787 534.5778 385.1141 534.0189 387.9084 539.0486 387.4613 548.7727 383.9964 551.7905 382.0963 552.5729 380.6432 554.5848 380.0844 556.932 380.755 559.1674 383.5493 563.9736 385.1141 565.7619 387.6848 566.5443 392.7145 565.4266 401.6562 559.9498 405.9035 558.7204 407.9154 557.8262 409.8155 555.5908 410.7097 552.9083 409.9273 550.4493 407.9154 548.1021 407.5801 546.8726 411.1568 544.0783 412.498 544.9725 414.0628 545.3078 415.2923 544.6372 416.0747 543.0724 416.8571 543.0724 418.7572 544.3019 423.7869 546.6491 425.7988 547.9903 427.3636 550.0022 431.4991 556.3732 431.9462 557.7144 432.5051 564.8678 429.3755 569.8975 431.8344 578.6156 430.8285 582.7512 434.1816 581.6334 436.5288 584.2042 438.876 587.3338 441.6703 588.8986 444.4646 589.5692 450.612 592.6988 453.518 593.7047 452.7356 594.3754 452.4003 594.5989 451.8415 594.7107 440.2173 590.9105 434.5169 590.2398 433.1757 594.7107 434.2934 596.3872 436.1935 597.952 438.0936 599.9639 438.876 602.9817 439.9937 604.4348 442.5645 604.4348 447.8177 603.4288 452.8474 604.5465 462.795 608.3468 468.0483 608.3468 470.0602 606.8937 469.3895 604.9936 467.3777 603.3171 465.254 602.5347 463.9128 601.6405 462.2362 599.6286 460.3361 597.6167 471.0661 605.3289 477.6606 608.4585 478.443 608.6821 478.5548 608.6821ZM417.6395 514.7943L419.9867 516.2473 422.3339 517.365 424.4575 518.5945 425.7988 520.6064 417.9748 527.8715 415.9629 528.8774 415.2923 529.4363 414.7334 530.6658 413.504 535.2484 412.8333 535.2484 413.1686 531.56 413.504 530.3305 411.7156 531.0011 410.1508 535.4719 408.0272 538.7133 406.1271 540.9487 405.3447 543.5195 403.4446 541.5076 403.3328 538.9369 404.1152 536.7014 401.9915 533.3483 399.9796 532.4541 398.0795 530.7776 396.0677 530.1069 393.8322 532.3424 392.8263 534.466 390.5909 534.9131 387.9084 532.7894 387.126 530.554 386.4553 526.642 386.4553 522.9536 388.8025 518.9298 387.3495 513.0059 387.3495 508.6469 391.8204 506.9703 401.4327 509.0939 406.5741 509.4293 410.3744 506.9703 413.951 511.3294 417.6395 514.7943ZM414.3981 397.8816L415.6276 396.9875 417.1924 395.758 430.7167 395.8697 431.8344 397.5463 430.0461 399.3347 425.2399 403.0231 423.0045 402.576 420.6573 401.3465 416.7453 399.4464 414.3981 397.8816ZM450.1649 381.116L451.2826 381.563 451.9532 382.569 454.8593 385.5868 453.8534 387.4869 442.3409 392.4048 436.3053 396.0933 434.1816 396.9875 433.1757 394.5285 434.8523 392.5166 436.7524 390.7283 438.876 387.5987 439.2113 385.5868 439.0996 384.5809 439.2113 383.3514 440.1055 382.7925 440.4408 384.1338 442.2292 385.3633 445.0234 384.8044 445.247 381.563 444.4646 379.8865 445.3587 377.9864 446.8118 376.6451 447.7059 375.0803 448.8237 373.5155 450.7238 374.6332 454.1887 375.1921 454.7475 376.5333 451.6179 377.5393 451.1708 378.4334 450.5002 379.3276 450.1649 381.116Z" />
</svg>