<?xml version="1.0" encoding="utf-8"?>
<svg xmlns="http://www.w3.org/2000/svg" viewBox="0 0 332 1024" style="stroke-width:0.25px;stroke-linejoin:round;stroke:#444;fill:#ddd" fill-rule="evenodd">
  <path class="TO" d="M321.762 449.7435L323.8857 450.5259 324.8916 451.5318 325.7858 452.6495 327.5741 453.879 327.7977 455.5556 327.6859 458.5734 326.5682 460.1382 323.7739 457.0086 322.3209 457.6792 321.4267 458.5734 321.6503 459.6911 322.8798 461.0323 321.6503 462.4854 320.8679 464.0502 318.9678 463.6031 317.6265 465.1679 316.9559 467.7386 316.9559 470.3094 315.1675 469.3034 314.1616 467.6268 313.1557 464.0502 315.5029 463.156 315.6146 461.4794 314.7205 459.6911 314.0498 459.0205 312.485 460.3617 312.038 462.5971 311.3673 464.0502 309.2437 463.0442 309.1319 463.9384 308.6848 464.0502 308.0142 464.0502 307.2318 464.0502 305.3317 459.6911 308.0142 457.4557 312.038 455.332 314.0498 451.3083 315.0558 450.3023 317.2912 449.7435 319.8619 449.5199 321.762 449.7435ZM186.0718 860.3908L186.966 865.9793 186.8542 868.3265 186.0718 873.9151 186.1836 883.4156 185.2894 884.9804 183.054 883.6392 182.1598 881.4037 180.3715 879.5036 176.236 876.374 176.236 875.3681 176.7948 875.1446 178.2479 874.3622 177.3537 872.6856 177.2419 870.5619 177.9125 868.7736 180.8186 867.5441 181.7128 866.4264 183.054 863.9674 183.3893 862.9615 184.3953 860.7261 185.513 859.1613 186.0718 860.3908ZM164.7235 834.7952L166.1766 835.9129 166.7354 837.1424 166.6237 839.4895 165.3942 840.8308 157.3466 846.7547 156.7878 848.0959 157.0113 849.7725 157.5702 851.4491 157.7937 853.0139 157.3466 854.8022 156.0054 855.9199 154.4406 856.367 152.8758 856.7023 149.858 855.9199 148.405 854.6904 146.1695 850.3314 144.2694 848.543 137.5631 845.1899 136.4454 846.3076 132.9805 844.1839 130.9686 843.4015 129.1803 843.0662 127.8391 842.2838 124.2624 837.3659 122.2505 833.2304 123.5917 829.5419 126.9449 826.7476 130.6333 825.5182 128.845 827.6418 126.6096 829.5419 125.7154 831.5538 127.7273 833.7892 129.2921 834.3481 130.5216 834.4598 138.5691 832.895 139.9103 833.2304 140.9163 834.1245 142.034 834.7952 142.9282 835.6893 143.2635 837.3659 141.1398 838.7072 140.2457 840.0484 140.8045 841.6132 142.2575 842.1721 143.7106 841.5014 145.1636 840.4955 146.6166 839.9366 148.405 840.2719 150.8639 841.725 151.9816 842.0603 154.1053 841.5014 154.9994 839.9366 155.7818 837.813 157.7937 835.8011 159.2468 835.1305 161.1469 834.5716 163.047 834.4598 164.7235 834.7952ZM264.4234 634.8365L266.4353 634.1659 267.8883 632.7129 268.8943 630.8128 269.4531 628.5773 270.2355 628.6891 271.6886 629.248 272.2474 629.695 271.1297 632.2658 271.0179 635.2836 270.2355 637.519 267.553 637.8543 266.4353 637.2955 265.5411 636.6249 264.8705 635.8425 264.4234 634.8365ZM164.1647 621.3122L166.4001 623.1006 167.4061 627.2361 167.1825 631.8187 165.5059 634.8365 165.5059 633.7188 164.7235 634.8365 163.9411 633.9424 163.2705 633.3835 161.5939 632.7129 161.7057 632.7129 161.5939 632.2658 161.5939 631.7069 159.9174 627.0125 159.6938 625.5595 160.2527 622.6535 161.1469 621.424 162.3763 621.3122 164.1647 621.3122ZM272.2474 624.5536L274.8182 623.1006 276.1594 621.2004 277.3889 619.0768 279.1772 617.2884 279.8479 619.4121 279.5125 621.424 278.6184 623.2123 278.1713 625.0007 277.1653 626.9008 274.9299 627.1243 272.8063 626.2301 272.2474 624.5536ZM278.6184 609.1292L280.5185 609.9116 281.0773 611.4763 280.2949 612.5941 278.1713 612.147 276.6065 609.9116 274.7064 606.2231 274.1475 603.4288 276.2712 603.8759 276.9418 605.1054 277.7242 608.4585 278.6184 609.1292ZM84.4718 4L87.1543 6.0119 86.4837 10.1474 83.4659 13.5006 79.2186 13.0535 76.7596 10.2592 77.2067 7.2414 79.8892 4.8942 84.4718 4ZM2.0965 1017.7646L3.326 1018.2117 4.2201 1018.9941 3.6613 1019.6647 2.9906 1020 2.5436 1020 1.7612 1019.4411 1.2023 1018.6587 1.4259 1017.8763 2.0965 1017.7646ZM222.9563 487.075L221.5033 484.7278 221.9504 482.4924 223.627 481.4865 225.8624 482.2689 226.8683 484.169 226.3095 485.8455 224.8564 486.9633 222.9563 487.075Z" />
</svg>