<?xml version="1.0" encoding="utf-8"?>
<svg xmlns="http://www.w3.org/2000/svg" viewBox="0 0 1021 438" style="stroke-width:0.25px;stroke-linejoin:round;stroke:#444;fill:#ddd" fill-rule="evenodd">
  <path class="TR" d="M944.5723 74.8711L944.3487 76.5476 944.684 78.7831 945.5782 80.7949 946.5842 81.6891 948.8196 82.0244 951.1668 83.2539 953.2904 84.9305 954.8552 87.0541 955.5259 88.3954 955.7494 89.7366 955.8612 91.1897 956.1965 92.7545 956.6436 94.2075 958.879 97.6724 959.4378 99.0136 959.5496 100.1314 959.8849 105.0493 959.6614 105.6081 958.5437 107.62 958.3201 107.9553 958.6554 109.6319 956.42 112.2026 955.7494 113.6557 955.7494 115.3322 955.4141 115.1087 955.1905 114.9969 954.967 114.9969 954.6317 114.8851 954.8552 115.1087 954.967 115.3322 955.0788 115.8911 953.8493 116.0029 952.6198 116.7853 950.8315 118.9089 951.055 119.9149 952.1727 121.1443 954.2964 122.9327 954.2964 123.4915 954.2964 123.6033 953.514 126.2858 953.0669 127.0682 952.7316 128.1859 953.1787 129.3036 954.6317 130.6449 956.9789 133.7745 957.7613 135.451 957.873 135.6746 956.8671 136.3452 957.426 137.5747 959.1025 139.6983 959.4378 140.4807 958.879 141.3749 956.5318 141.822 955.7494 142.4926 956.42 144.5045 958.879 145.8458 963.7969 147.2988 969.609 150.5402 975.98 151.5461 976.7624 151.3226 978.6625 149.9813 979.7802 149.646 980.3391 149.8695 981.0097 150.5402 981.4568 150.6519 982.0156 150.5402 983.0216 150.2048 984.5864 150.0931 987.716 149.1989 989.5043 149.1989 991.5162 149.7578 994.4222 151.5461 998.8931 154.1168 1001.9109 156.7993 1003.2521 158.3641 1003.9228 159.3701 1004.1463 160.376 1004.3699 160.9349 1004.8169 161.382 1005.5993 162.0526 1005.7111 162.7232 1005.8229 163.5056 1005.9347 163.8409 1006.7171 163.3938 1008.6172 165.6293 1009.6231 166.2999 1009.8466 166.2999 1010.4055 166.1881 1010.7408 166.2999 1010.9644 166.5234 1011.2997 167.0823 1014.541 171.3296 1015.3234 172.7826 1015.8823 173.565 1016.4411 176.2475 1017 177.0299 1012.7527 173.9003 1011.7468 173.0062 1008.5054 171.5531 1007.8348 170.7707 1006.3817 168.5353 1005.5993 167.9765 1004.2581 168.4235 998.5578 173.0062 998.3342 173.7886 998.6695 176.024 998.5578 176.9182 998.5578 177.1417 998.2224 178.0359 996.4341 181.6125 996.2106 182.5067 996.0988 183.6244 996.2106 184.6304 996.3223 185.5245 996.3223 186.3069 995.7635 187.0893 995.5399 188.6541 995.7635 189.9954 995.6517 191.2249 994.7575 192.5661 993.7516 193.3485 991.0691 194.578 989.8396 194.9133 988.4983 194.8015 984.8099 192.9014 983.5804 192.7897 980.6744 193.5721 979.4449 193.6838 978.3272 193.5721 977.433 193.5721 976.6506 193.7956 975.6447 194.578 974.974 195.3604 975.3094 196.1428 976.7624 197.8194 976.9859 198.49 977.3212 199.943 977.8801 201.2843 977.8801 201.8431 977.7683 202.2902 977.7683 202.9608 977.9919 203.5197 978.5507 204.8609 978.6625 205.4198 978.3272 206.6493 978.3272 207.3199 979.6684 208.3259 982.1274 209.5553 984.1393 211.0084 984.5864 212.6849 983.4686 214.8086 983.2451 215.9263 983.6922 218.6088 983.2451 219.3912 982.3509 220.0618 981.5685 221.4031 981.9039 221.8502 982.0156 222.2972 982.2392 223.415 982.5745 223.862 983.1333 224.1974 983.4686 224.6444 983.5804 225.3151 983.4686 225.8739 983.6922 226.4328 983.9157 226.8799 984.3628 228.4447 985.1452 229.4506 986.0394 230.3448 988.8337 231.686 989.0572 233.6979 987.6042 238.6158 987.3806 239.9571 987.4924 240.7395 987.8277 241.6337 988.0513 242.8631 987.8277 243.3102 987.3806 243.7573 987.1571 244.2044 987.8277 244.5397 988.8337 244.875 989.169 245.0986 989.6161 245.5457 989.9514 246.6634 989.9514 248.1164 989.7278 250.7989 990.1749 254.2638 990.1749 255.3815 989.5043 258.1758 989.5043 258.9582 989.6161 260.6348 989.6161 261.3054 989.3925 262.4231 989.6161 262.982 990.0631 263.3173 990.8455 263.6526 993.5281 264.2114 995.2046 263.2055 995.8752 262.982 996.7694 263.3173 997.5518 263.9879 998.1107 264.8821 998.5578 265.9998 998.5578 267.0057 997.44 268.7941 995.4282 270.2471 993.9751 271.9237 994.1987 275.165 993.9751 276.5063 993.7516 277.8475 993.3045 278.8535 992.9692 279.4123 991.9633 279.7476 991.6279 280.1947 991.5162 280.7536 991.9633 281.9831 991.6279 282.4301 990.622 282.8772 989.9514 283.4361 989.3925 284.3303 988.9454 285.7833 988.4983 286.7892 987.2689 288.2422 986.71 289.2482 986.2629 290.0306 985.9276 290.9248 985.9276 291.7072 986.1512 292.7131 986.1512 293.6073 985.7041 294.2779 985.1452 294.9485 985.1452 295.1721 984.9217 295.7309 985.9276 297.1839 987.716 297.5193 991.1809 297.0722 991.8515 297.2957 993.7516 298.1899 994.3105 298.637 994.6458 299.1958 994.7575 299.9782 995.0928 300.8724 995.6517 301.543 996.0988 301.7666 996.4341 301.6548 996.7694 301.543 997.2165 301.8783 997.2165 302.2136 996.993 303.2196 996.993 303.6667 997.3283 304.4491 998.1107 304.4491 999.0048 304.2255 999.6755 303.7784 1001.1285 303.6667 1002.5815 304.3373 1003.9228 305.455 1005.8229 307.914 1005.9347 308.4728 1005.4876 309.367 1003.5875 310.82 1003.1404 311.4906 1002.9168 313.5025 1004.0345 314.732 1005.1523 315.6262 1005.3758 316.7439 1004.9287 318.0851 1004.5934 319.7617 1004.4816 321.4383 1004.7052 322.7795 1004.9287 323.8972 1004.2581 325.9091 1004.5934 327.0268 1005.264 327.3622 1007.2759 327.5857 1008.0583 328.2563 1008.8407 330.1564 1009.2878 330.7153 1011.2997 330.38 1011.7468 330.9388 1012.0821 331.9448 1012.5292 332.8389 1015.547 334.8508 1016.7765 336.1921 1016.5529 338.4275 1015.9941 339.2099 1015.2117 339.657 1014.541 340.2158 1014.2057 341.3336 1014.4293 342.6748 1014.8763 343.7925 1015.2117 345.022 1014.8763 346.2515 1014.2057 345.1338 1013.1998 344.5749 1007.6112 343.7925 1006.6053 343.7925 1004.9287 344.5749 1002.8051 346.1397 1000.905 347.9281 999.6755 349.6046 998.3342 350.6106 996.993 351.393 992.4103 352.846 991.9633 353.6284 991.8515 354.6343 990.9573 356.0873 990.5102 357.2051 989.9514 357.6521 989.2807 357.7639 987.1571 357.2051 986.5982 356.758 986.2629 356.0873 984.1393 351.2812 983.804 349.8282 983.804 348.4869 984.251 347.1457 985.1452 345.9162 985.8158 345.5809 986.4865 345.4691 986.9336 345.2455 987.3806 344.4631 987.4924 343.7925 987.3806 342.8983 987.1571 341.4453 986.71 339.9923 986.0394 338.7628 985.1452 337.8686 984.0275 337.0862 978.886 334.9626 977.8801 334.8508 976.0917 334.5155 973.7446 334.8508 971.7327 336.5274 970.1679 338.8746 968.6031 340.7747 965.697 341.2218 964.8029 342.2277 964.1322 342.4513 963.6851 342.116 962.5674 340.9982 962.0086 340.6629 960.7791 340.3276 959.4378 340.2158 953.9611 340.5512 952.7316 340.4394 951.3903 339.8805 950.3844 339.0981 949.9373 338.8746 949.2667 338.7628 948.596 338.8746 947.2548 339.4334 946.5842 339.5452 945.69 339.0981 943.231 337.0862 941.1074 335.9685 940.4367 335.4097 938.9837 334.4037 938.3131 334.292 937.4189 334.4037 936.8601 334.6273 936.413 335.0744 935.9659 335.1861 935.5188 335.1861 935.0717 334.9626 928.1419 331.2741 927.2477 330.9388 925.5712 331.1624 923.4475 331.7212 921.4356 332.6154 920.0944 333.6213 917.7472 334.4037 915.6235 334.0684 911.2645 332.6154 910.8174 332.2801 910.5938 331.1624 910.1468 330.7153 909.4761 330.7153 909.029 330.7153 906.3465 331.833 906.0112 332.0565 905.6759 332.6154 905.5641 333.0625 905.5641 333.5096 905.3406 334.0684 898.6343 343.7925 898.0755 345.5809 897.8519 345.9162 896.9578 346.3633 892.4869 347.1457 889.3573 348.1516 887.0101 348.3751 887.0101 346.475 886.8983 345.5809 886.4513 345.1338 885.8924 344.3514 886.7866 340.5512 886.4513 339.7688 886.116 339.5452 884.3276 338.0922 884.1041 337.7569 883.7688 337.0862 883.5452 336.7509 883.2099 336.6392 882.8746 336.8627 882.5393 337.3098 882.204 337.4216 880.6392 336.6392 879.8568 336.5274 879.8568 336.1921 879.9685 335.5215 879.8568 334.7391 879.2979 334.0684 878.292 334.8508 877.5096 335.2979 874.8271 338.8746 870.9151 342.563 868.5679 344.0161 862.5322 345.4691 840.4015 350.7223 825.6477 351.393 824.53 351.0576 822.1828 350.0517 809.4409 347.5927 799.4933 349.0458 796.9226 350.0517 789.7692 353.9637 787.422 354.7461 786.1925 354.7461 784.963 354.9696 783.8453 355.4167 782.8394 356.0873 775.7978 360.7817 771.9976 363.3525 769.9857 364.3584 767.9738 364.6937 766.0737 365.3644 760.8205 368.4939 749.4198 372.853 732.3188 376.0944 721.5888 378.218 718.6827 378.3298 710.5234 375.5355 707.7292 375.7591 706.6114 376.0944 698.0051 376.4297 694.2048 375.9826 690.9635 374.3061 689.5105 372.6295 683.8101 366.7056 681.2394 365.2526 671.18 362.2348 667.6033 361.7877 665.815 362.0112 662.2383 363.3525 657.0968 366.7056 656.2026 367.2645 654.6378 367.7116 646.1432 371.6235 637.4251 373.5237 634.1837 374.8649 626.3597 380.0064 624.1243 379.8946 615.5179 378.3298 614.2884 378.4416 610.9353 379.3358 609.9294 379.224 609.147 378.8887 608.2528 378.8887 607.2469 379.3358 606.3527 380.1182 606.0174 380.7888 605.4585 380.9006 604.4526 380.3417 603.4466 379.4475 603.2231 378.6651 603.6702 376.5415 603.6702 375.2002 603.2231 374.3061 601.6583 372.853 600.7641 372.0706 599.7582 371.4 598.7523 371.0647 597.7463 370.8411 594.3932 370.6176 584.5573 367.1527 583.9985 367.0409 583.5514 367.1527 583.7749 368.7175 583.1043 370.0587 582.3219 371.1765 581.6513 372.5177 581.4277 373.9707 581.316 375.2002 581.2042 376.5415 580.5336 378.1063 579.8629 380.9006 579.8629 383.8066 579.6394 386.7127 578.0746 389.1716 577.7393 390.1776 577.9628 391.2953 578.9688 394.8719 579.1923 395.4308 579.6394 395.7661 580.4218 396.1014 580.6453 396.325 580.9806 396.7721 581.0924 397.2191 581.2042 397.6662 581.0924 398.2251 580.7571 399.231 580.5336 399.7899 580.31 399.9017 580.7571 400.3487 582.5454 400.5723 583.4396 400.9076 583.9985 401.5782 583.9985 401.69 584.5573 402.5842 584.8926 403.7019 585.1162 404.7078 585.1162 406.1608 584.8926 406.7197 581.0924 407.3903 580.0865 407.3903 576.0627 406.7197 575.0568 406.9432 574.4979 407.1668 574.2744 407.5021 574.2744 408.0609 573.9391 408.3963 573.492 408.6198 573.2684 408.6198 572.9331 408.508 571.4801 408.2845 570.6977 408.0609 570.0271 407.6139 569.3564 406.8315 568.7976 407.3903 569.58 408.2845 569.4682 408.8433 569.0211 409.2904 568.6858 409.8493 568.6858 410.7435 568.4623 420.244 568.574 422.1441 567.4563 422.4794 565.3327 421.697 564.3267 422.1441 563.8796 424.4913 562.9855 424.6031 561.756 424.2678 560.0794 424.9384 558.8499 426.8385 558.5146 431.4211 557.9558 433.3212 557.844 433.433 556.9498 433.5448 553.8202 431.3094 552.2554 430.527 550.5789 430.527 549.7965 430.3034 549.2376 429.7446 549.1259 428.9622 549.2376 428.1798 549.2376 427.2856 548.567 426.5032 547.5611 426.7267 546.4433 427.062 545.4374 427.2856 544.8785 427.1738 544.8785 427.062 545.5492 426.1679 547.7846 422.1441 548.3435 421.697 548.3435 420.4675 546.8904 415.9967 543.0902 409.7375 542.4196 408.8433 541.749 407.7256 541.1901 405.7138 540.4077 404.8196 539.5135 404.0372 538.9547 403.2548 538.284 401.69 538.3958 400.684 539.8488 398.5604 540.2959 398.0015 540.8548 397.6662 541.4136 397.4427 541.9725 397.4427 542.3078 397.2191 542.8667 395.5426 543.3138 395.0955 544.2079 394.6484 544.7668 394.2013 544.9903 393.6425 545.3256 392.1894 545.8845 391.8541 546.2198 391.5188 546.5551 391.1835 548.6788 390.4011 549.1259 390.1776 551.5848 387.048 552.0319 386.3773 552.5908 386.2656 558.2911 382.6889 559.0735 382.4653 559.6323 381.9065 560.303 380.7888 560.8618 379.4475 561.0854 378.4416 561.0854 377.5474 560.8618 376.8768 560.5265 376.3179 560.303 375.6473 560.303 375.2002 560.303 371.0647 560.1912 369.947 559.6323 368.8293 556.5028 364.3584 554.7144 362.5701 552.7025 361.1171 550.6906 360.5582 548.7905 361.3406 547.0022 362.9054 543.9844 366.7056 543.202 367.2645 542.3078 367.488 541.8607 367.9351 540.0724 369.947 539.29 370.6176 537.2781 371.0647 532.8073 371.2882 530.9072 372.0706 530.2365 372.6295 529.6777 373.859 529.1188 374.3061 529.3424 373.859 529.3424 373.5237 529.1188 373.1883 528.6717 372.9648 528.2246 373.9707 527.4422 374.7531 526.8834 375.5355 527.3305 376.5415 528.1129 375.5355 529.2306 375.8708 529.4541 374.7531 529.6777 374.8649 529.9012 375.0884 530.013 375.312 530.1248 375.6473 530.4601 375.2002 530.4601 374.7531 530.4601 374.3061 530.1248 373.859 530.9072 373.4119 531.2425 373.7472 531.466 374.4178 531.8013 374.7531 532.3602 374.6414 532.919 374.1943 533.4779 373.9707 534.1485 374.3061 531.0189 375.7591 529.5659 376.8768 528.6717 378.4416 528.7835 379.1122 529.5659 378.6651 531.9131 375.8708 532.5837 375.4238 533.4779 375.2002 531.466 377.2121 531.1307 377.771 530.6836 379.0004 530.3483 379.5593 530.1248 380.1182 530.1248 381.0123 530.013 381.7947 529.5659 382.0183 529.1188 382.13 528.3364 382.8007 527.7776 382.9124 526.101 383.0242 525.4304 382.9124 523.7538 381.3476 523.3067 381.1241 522.5243 381.3476 522.0772 381.6829 521.9655 382.3536 522.4125 382.4653 522.8596 382.5771 524.7597 383.3595 522.4125 382.6889 520.1771 382.4653 519.73 382.5771 518.5006 383.2477 518.1652 383.5831 517.9417 384.0301 517.4946 384.3655 516.3769 384.7008 515.0356 385.9303 514.9239 386.1538 514.365 385.8185 513.4708 384.589 512.912 384.2537 512.1296 384.0301 498.7171 375.8708 497.264 375.4238 495.5875 374.1943 494.4697 373.859 493.6873 373.7472 493.0167 373.7472 492.7932 373.7472 491.899 373.9707 491.2284 374.3061 491.3402 373.9707 491.6755 372.9648 490.8931 372.5177 488.6576 370.1705 484.2986 367.9351 484.075 368.3822 482.5102 367.488 480.2748 368.0469 476.6981 369.7234 475.1333 369.947 474.4627 370.1705 472.8979 371.1765 472.5626 371.4 472.0037 372.6295 471.7802 372.9648 470.1036 373.859 465.521 378.1063 459.7089 381.6829 458.1441 383.0242 453.5615 388.9481 453.1144 389.954 452.8909 390.6246 452.332 390.96 451.2143 391.5188 449.426 393.4189 447.5259 394.5366 447.4141 396.2132 447.6376 398.3369 447.5259 400.1252 446.5199 401.0194 444.8433 401.3547 443.3903 401.8018 442.8315 403.2548 443.1668 403.143 443.3903 402.9195 443.2785 403.3666 442.2726 404.7078 441.8255 405.4902 441.602 406.4961 441.602 407.2785 441.2667 407.7256 440.3725 407.7256 440.3725 407.2785 440.8196 406.1608 440.596 404.2607 439.8136 402.5842 438.6959 401.9135 437.9135 401.69 437.2429 401.2429 436.5723 401.0194 435.7899 401.69 434.7839 403.2548 434.3369 403.9254 433.4427 404.149 433.778 404.2607 434.0015 404.3725 434.1133 404.596 433.5545 405.1549 432.7721 406.6079 432.1014 406.8315 431.6543 406.9432 429.7542 407.7256 429.4189 408.0609 427.7424 409.8493 427.5188 410.5199 427.1835 412.3083 426.8482 412.7553 426.7364 412.3083 425.3952 410.2964 425.1716 409.2904 424.7245 409.0669 424.0539 409.1787 423.2715 409.514 422.042 410.6317 420.8125 412.1965 419.6948 413.3142 418.5771 413.0906 419.2477 412.7553 419.2477 412.1965 418.0183 412.0847 415.7828 411.5259 414.6651 411.3023 413.5474 411.5259 411.6473 412.5318 410.8649 412.7553 408.853 411.9729 407.7353 411.8612 406.7294 413.0906 405.6117 413.2024 403.1527 413.0906 401.5879 413.5377 401.029 413.6495 400.3584 413.426 399.2407 412.8671 398.6818 412.7553 397.4524 413.0906 396.7817 413.873 396.3347 414.9908 395.5523 415.8849 394.9934 416.332 394.7699 416.332 394.6581 416.1085 394.0992 415.8849 393.4286 415.7732 391.752 415.8849 388.2871 414.9908 387.2812 414.9908 383.8163 416.7791 383.2574 417.0026 382.8103 417.785 379.9043 419.9087 377.6689 419.7969 372.8627 418.6792 370.8508 417.6733 367.6095 415.5496 367.3859 415.4378 365.4858 415.2143 364.5916 414.9908 360.4561 412.6436 359.8972 412.0847 359.5619 411.3023 358.6678 410.8552 357.5501 410.5199 356.6559 410.0728 354.1969 406.7197 353.7498 406.6079 353.5263 406.2726 352.5204 405.602 352.2968 405.2667 352.0733 403.3666 351.9615 402.8077 350.732 401.0194 347.4906 398.1133 346.82 396.325 346.7083 395.7661 346.4847 395.319 345.9259 394.4249 345.367 393.4189 345.1435 393.1954 344.4728 392.8601 344.2493 392.8601 343.3551 390.8482 342.6845 389.7305 341.9021 389.2834 338.6607 385.9303 338.3254 385.7067 337.7666 385.7067 337.2077 385.7067 336.6488 385.4832 336.2018 385.2596 335.8664 384.9243 335.6429 384.7008 333.5193 384.8125 332.4015 384.7008 331.9545 384.0301 331.3956 383.4713 329.9426 382.9124 328.4895 382.6889 327.5954 382.9124 327.0365 382.4653 325.0246 381.5712 324.0187 380.1182 323.3481 379.4475 322.6774 379.5593 321.5597 379.3358 317.536 377.5474 316.6418 376.765 315.8594 375.8708 305.8 371.4 304.347 371.1765 304.2352 369.4999 302.3351 368.3822 280.9868 365.1408 272.2686 365.6997 270.8156 365.2526 269.6979 364.582 267.5743 362.9054 264.4447 365.029 263.1034 366.4821 262.321 368.4939 261.6504 369.7234 261.4268 370.1705 261.4268 372.2942 261.0915 374.4178 261.2033 375.5355 261.7622 376.5415 261.7622 376.9886 261.3151 377.5474 260.9798 378.1063 260.7562 378.7769 260.6444 379.6711 260.7562 380.9006 261.0915 381.5712 261.4268 382.13 261.7622 382.9124 262.0975 382.4653 261.9857 383.8066 261.2033 386.1538 261.4268 386.9362 259.5267 388.501 258.7443 389.5069 258.1855 391.8541 256.956 393.6425 257.0678 394.2013 256.2854 395.319 256.3971 396.4367 256.956 397.3309 257.7384 397.778 257.4031 398.7839 258.7443 399.231 257.9619 400.237 256.5089 401.4664 255.9501 402.8077 256.2854 402.8077 256.5089 402.4724 256.5089 402.5842 256.6207 402.6959 257.0678 402.8077 256.5089 403.3666 255.7265 403.9254 255.0559 404.4843 254.497 406.0491 253.8264 406.8315 252.2616 408.1727 252.3734 405.3784 252.1498 404.2607 251.4792 403.7019 250.2497 404.0372 244.6612 401.4664 243.5435 401.4664 239.5197 402.1371 239.0726 402.6959 238.8491 403.7019 238.8491 405.0431 238.5138 405.0431 238.402 404.596 238.0667 403.7019 237.7314 404.9314 237.7314 405.4902 236.949 405.0431 237.0607 405.4902 236.949 405.9373 235.0488 405.4902 234.6018 405.2667 234.1547 404.9314 233.7076 404.7078 233.037 405.0431 234.1547 405.0431 234.1547 405.4902 230.4662 407.3903 229.6838 407.2785 229.125 407.7256 228.4543 407.6139 227.8955 407.3903 227.2249 407.2785 226.666 407.3903 226.4425 407.5021 225.7718 408.1727 224.8777 408.7316 222.8658 409.1787 222.0834 409.514 222.3069 409.6257 222.4187 409.6257 222.5305 409.7375 222.5305 410.0728 221.9716 410.0728 220.6304 410.4081 220.6304 410.8552 221.7481 410.8552 221.0774 411.6376 220.295 412.1965 219.4009 412.5318 218.5067 412.7553 218.5067 412.1965 218.7303 411.9729 218.9538 411.8612 219.0656 411.6376 219.1773 411.3023 218.5067 411.4141 218.3949 411.5259 218.1714 411.8612 217.5008 411.1905 216.8301 410.967 216.2713 411.0788 215.6007 411.3023 215.3771 411.6376 215.3771 411.8612 215.1536 412.0847 214.5947 412.1965 214.5947 412.42 213.7006 413.6495 213.477 412.3083 211.6887 411.4141 211.1298 410.0728 211.9122 410.4081 212.2475 410.0728 212.1358 409.4022 211.6887 409.1787 209.0062 409.514 209.0062 409.1787 209.4532 408.8433 210.0121 408.7316 210.571 408.6198 211.1298 408.6198 210.0121 408.1727 205.7648 408.1727 204.3118 407.8374 200.9586 405.9373 200.3998 406.6079 200.0645 405.9373 199.9527 404.149 199.6174 404.596 199.3938 404.4843 199.1703 404.2607 198.835 404.149 198.2761 404.3725 198.0526 404.4843 197.9408 404.7078 197.7173 405.0431 197.382 405.3784 197.2702 405.8255 197.0466 406.2726 196.5996 406.4961 196.1525 406.1608 195.8172 405.4902 195.4818 405.0431 195.1465 405.4902 191.9052 402.4724 191.6816 402.2488 191.2345 401.2429 190.5639 400.4605 187.3226 399.3428 186.4284 398.2251 185.7578 398.7839 185.5342 397.8898 185.5342 397.6662 185.7578 397.4427 185.7578 396.8838 184.3047 396.8838 184.64 396.5485 184.0812 396.1014 183.7459 395.9897 183.187 395.9897 183.4106 395.4308 183.8576 394.9837 184.4165 394.7602 184.9754 394.6484 184.9754 394.4249 184.8636 394.3131 184.64 394.2013 184.9754 392.9718 184.64 391.8541 183.9694 391.0717 183.187 390.6246 183.187 390.1776 183.8576 389.6187 184.193 389.3952 184.64 389.2834 184.64 388.7245 184.4165 386.4891 184.193 385.3714 183.5223 385.7067 183.187 385.7067 182.5164 384.8125 179.9457 385.8185 178.8279 385.7067 179.8339 385.3714 180.0574 384.8125 179.7221 383.9184 179.1633 382.9124 179.3868 382.4653 179.9457 381.2359 180.281 380.5652 181.0634 381.2359 181.6222 380.677 182.4046 379.6711 183.187 379.3358 183.187 379.6711 182.8517 380.4535 183.2988 380.677 183.9694 380.4535 184.3047 380.0064 184.0812 379.3358 183.8576 378.7769 183.5223 378.218 183.187 377.8827 179.8339 375.5355 175.6983 373.7472 175.2513 373.1883 174.8042 372.1824 173.91 372.853 173.0158 374.0825 172.2334 374.7531 172.2334 375.2002 172.6805 375.2002 172.6805 375.6473 171.6746 375.7591 171.2275 375.8708 170.7804 376.0944 170.6686 376.6532 170.7804 377.2121 170.7804 377.771 170.1098 377.8827 170.3333 378.4416 170.5569 378.6651 170.7804 378.8887 170.4451 379.3358 171.004 379.8946 171.2275 380.2299 171.5628 380.2299 171.7864 379.5593 172.1217 379.0004 172.2334 378.4416 171.8981 377.4356 172.7923 378.3298 172.457 379.4475 171.5628 380.4535 170.7804 381.1241 171.1157 381.7947 170.5569 382.13 169.6627 382.2418 168.9921 382.0183 168.4332 381.4594 168.4332 380.7888 168.8803 380.3417 169.6627 380.2299 169.6627 379.6711 168.7685 379.224 168.2097 378.7769 167.6508 378.5534 166.7567 378.8887 166.5331 377.1003 164.633 375.7591 162.174 375.312 160.6092 376.0944 160.2739 376.0944 160.0504 374.8649 159.3798 374.4178 158.7091 374.6414 158.0385 375.6473 157.7032 375.2002 157.0326 373.4119 157.4796 372.5177 157.7032 371.1765 157.5914 369.947 157.0326 369.2763 157.0326 369.0528 157.0326 368.941 157.2561 368.941 157.3679 368.8293 157.2561 368.6057 157.1443 368.4939 157.1443 368.2704 157.3679 367.9351 157.0326 367.9351 156.809 368.4939 156.6972 368.8293 156.6972 369.2763 156.3619 369.0528 156.3619 368.941 156.2502 368.4939 155.5795 367.7116 154.0147 367.3762 152.7853 368.0469 153.0088 369.7234 152.4499 369.2763 151.8911 369.1646 151.444 369.0528 150.7734 368.8293 151.5558 368.3822 151.5558 367.9351 150.3263 367.9351 149.5439 367.7116 149.2086 367.0409 148.985 365.6997 149.3204 365.6997 149.6557 365.6997 149.7674 365.4761 149.6557 365.029 149.5439 364.9173 149.4321 364.6937 149.3204 364.582 149.2086 363.7996 148.985 363.4642 148.7615 363.4642 148.6497 364.1349 148.0909 364.6937 147.0849 365.029 145.5201 365.1408 144.9613 365.3644 144.9613 365.8114 145.2966 366.2585 145.7437 366.5938 146.079 366.5938 146.5261 366.4821 146.9732 366.4821 147.532 367.0409 146.9732 368.0469 146.5261 368.941 145.9672 369.7234 144.9613 369.7234 142.2788 368.2704 141.7199 367.9351 141.3846 367.9351 141.6081 368.941 141.7199 369.2763 140.2669 369.3881 139.708 369.1646 139.4845 368.6057 139.708 368.0469 140.2669 367.7116 141.7199 367.488 141.7199 367.0409 141.0493 366.5938 140.2669 365.9232 139.4845 365.4761 138.5903 365.9232 137.9197 367.0409 137.5844 368.0469 137.6961 369.0528 138.4785 369.7234 138.1432 371.1765 140.2669 372.7413 140.6022 374.3061 140.0433 373.859 139.1492 373.5237 138.3668 373.7472 138.0315 374.7531 137.6961 374.5296 137.3608 374.3061 137.3608 374.6414 137.2491 374.8649 137.1373 374.9767 136.9138 375.2002 137.2491 375.312 137.3608 375.6473 134.6783 376.6532 133.5606 377.4356 132.6664 378.8887 131.884 380.3417 130.8781 381.9065 129.6486 382.9124 128.3074 382.4653 128.0838 382.9124 127.8603 383.136 127.6367 383.2477 127.1897 383.3595 127.3014 383.5831 127.4132 384.0301 127.525 384.2537 126.8543 384.589 126.4073 384.589 125.9602 384.3655 125.7366 383.8066 125.1778 384.7008 124.5072 384.9243 123.8365 384.4772 123.1659 383.8066 123.2777 383.5831 123.3894 383.136 123.5012 382.9124 123.2777 382.6889 123.0541 382.4653 122.8306 382.0183 126.8543 382.0183 127.8603 381.5712 128.4191 380.9006 128.978 380.1182 129.7604 379.3358 128.978 378.4416 127.9721 379.3358 127.525 379.6711 127.525 379.3358 128.0838 378.7769 128.1956 377.8827 128.0838 377.1003 127.525 376.5415 126.9661 376.2062 126.8543 376.4297 126.8543 377.2121 126.519 377.5474 125.9602 377.5474 125.4013 377.2121 124.9542 376.9886 124.5072 377.2121 123.9483 377.2121 123.3894 376.9886 123.1659 376.3179 123.5012 376.0944 125.4013 375.6473 124.9542 375.2002 126.0719 375.312 126.4073 375.2002 126.7426 374.9767 126.9661 374.6414 127.1897 374.4178 127.1897 374.3061 129.2015 374.1943 129.7604 373.859 129.5369 374.8649 130.3193 374.9767 131.1017 374.3061 131.2134 373.4119 130.6546 372.9648 129.6486 372.853 129.3133 372.5177 129.4251 372.0706 129.8722 371.6235 130.431 371.1765 130.7663 370.6176 130.9899 371.0647 131.2134 371.4 131.884 372.0706 131.6605 370.8411 131.5487 369.4999 131.2134 368.941 130.6546 368.8293 129.9839 368.8293 129.5369 369.1646 128.6427 370.6176 127.525 371.4 127.0779 371.2882 126.8543 370.6176 126.0719 371.4 123.9483 372.0706 123.1659 372.5177 122.8306 372.5177 122.4953 371.6235 122.0482 371.8471 121.3776 372.5177 120.5952 372.9648 120.3716 372.0706 119.9245 372.0706 119.5892 372.6295 119.1421 372.9648 118.8068 372.7413 118.4715 372.1824 118.1362 372.0706 117.6891 372.9648 117.3538 372.9648 116.6832 372.4059 115.789 371.8471 114.6713 371.6235 113.6653 372.0706 113.6653 371.6235 113.1065 371.8471 112.4359 371.8471 111.7652 371.6235 110.9828 371.6235 110.0887 371.8471 108.971 373.3001 108.1886 373.859 108.1886 374.3061 108.4121 374.8649 107.6297 376.9886 107.5179 378.4416 105.7296 377.5474 104.8354 377.2121 103.9413 376.9886 102.9353 377.1003 102.1529 377.3239 101.5941 377.3239 101.3705 376.5415 97.6821 377.8827 97.4585 378.3298 97.235 378.6651 97.0114 378.8887 96.7879 378.6651 96.1173 378.1063 95.6702 377.8827 94.4407 377.6592 93.9936 377.6592 93.323 377.8827 93.2112 377.1003 92.7641 376.6532 92.2053 376.6532 91.5347 376.9886 91.5347 376.765 91.5347 376.6532 91.3111 376.6532 91.1993 376.5415 91.4229 376.2062 91.4229 375.7591 91.1993 375.4238 90.7523 375.2002 90.7523 374.7531 91.4229 375.0884 92.3171 375.312 93.2112 375.312 93.8818 374.9767 94.3289 374.3061 94.5525 373.1883 95.2231 372.5177 95.782 372.0706 96.229 371.9589 97.5703 372.0706 101.4823 371.4 103.3824 371.6235 104.3883 371.2882 104.6119 370.5058 104.7237 369.6117 104.9472 368.8293 106.1767 368.4939 108.6356 370.0587 109.3063 369.7234 110.2004 370.1705 110.8711 370.1705 111.6535 370.0587 112.2123 370.1705 113.5536 368.941 114.336 368.4939 118.9186 368.3822 119.4774 368.1586 119.8128 368.6057 120.7069 368.941 121.8246 369.2763 122.8306 369.2763 124.6189 369.0528 125.5131 369.3881 126.4073 370.1705 126.6308 369.4999 126.9661 369.1646 127.9721 368.3822 127.6367 367.5998 127.0779 367.2645 126.2955 367.0409 125.4013 367.0409 125.7366 366.5938 126.1837 366.8174 126.2955 366.3703 125.9602 365.6997 125.4013 365.1408 125.6249 365.1408 125.7366 365.029 125.8484 364.9173 126.0719 364.8055 126.519 365.029 126.8543 364.8055 127.4132 364.4702 127.9721 364.2466 127.9721 363.9113 126.8543 362.7936 126.4073 362.123 126.0719 361.5641 126.8543 362.0112 127.1897 361.5641 126.8543 361.3406 126.7426 361.1171 126.6308 360.8935 126.4073 360.67 126.8543 360.67 127.7485 360.5582 128.3074 360.67 128.3074 360.2229 127.1897 360.2229 127.1897 359.7758 128.4191 359.7758 128.978 359.8876 129.3133 360.2229 129.6486 359.8876 129.9839 359.7758 130.2075 359.8876 130.431 360.2229 130.7663 360.2229 131.3252 359.8876 132.5547 360.4464 133.0018 360.2229 133.3371 360.2229 133.4488 360.67 133.7842 361.5641 133.8959 361.2288 133.8959 361.1171 133.8959 361.0053 133.7842 360.67 133.8959 360.3347 133.8959 360.1111 133.6724 359.8876 133.3371 359.7758 133.3371 359.3287 133.7842 359.2169 134.2312 359.3287 134.5666 359.4405 134.7901 359.7758 135.9078 357.9875 136.2431 357.5404 136.2431 356.9815 135.5725 356.9815 135.9078 356.3109 136.2431 355.6403 137.1373 356.3109 137.9197 356.5344 138.3668 356.0873 138.0315 355.1932 140.9375 354.0755 142.5023 353.6284 142.5023 353.2931 142.0552 352.7342 141.7199 352.5107 141.1611 352.2871 134.2312 353.4048 131.6605 353.2931 130.6546 353.5166 130.7663 354.299 130.7663 354.7461 129.8722 354.299 124.2836 353.4048 123.7248 353.5166 123.0541 354.1872 122.3835 354.299 121.8246 354.1872 120.2598 353.8519 118.9186 353.9637 114.5595 355.4167 114.0007 355.1932 113.6653 355.1932 113.6653 355.4167 113.33 356.0873 112.8829 355.9756 112.4359 355.8638 111.7652 355.8638 111.2064 356.0873 110.0887 355.305 108.4121 355.305 106.7355 355.9756 105.7296 356.9815 104.7237 356.4227 103.2706 355.8638 102.0411 355.9756 101.7058 357.5404 100.4763 356.5344 99.9175 356.3109 99.1351 356.0873 97.5703 356.3109 97.0114 356.0873 96.4526 355.6403 95.5584 354.1872 95.2231 353.8519 94.3289 353.8519 93.5465 354.6343 93.2112 354.0755 93.323 353.8519 92.9877 353.8519 92.8759 354.5226 92.2053 356.0873 92.0935 355.752 91.9817 355.6403 92.0935 355.5285 92.2053 355.1932 92.2053 355.0814 92.0935 355.0814 91.9817 354.9696 91.87 354.7461 92.0935 354.5226 92.2053 354.4108 92.0935 354.299 91.87 353.8519 91.4229 354.1872 89.9699 354.5226 89.2992 354.7461 89.2992 355.1932 89.5228 355.8638 89.1875 356.6462 88.6286 357.2051 87.8462 357.5404 88.0697 358.0992 88.2933 358.4345 87.7344 358.211 87.5109 358.211 87.1756 358.4345 86.8403 357.8757 85.8343 358.0992 85.2755 357.0933 85.0519 355.6403 84.9402 354.5226 84.7166 353.4048 84.2695 352.5107 84.046 351.6165 84.6048 350.1635 85.0519 350.1635 85.9461 349.8282 86.8403 349.1575 87.5109 348.3751 87.1756 348.0398 86.7285 347.9281 86.2814 348.0398 85.7226 348.3751 85.499 348.1516 85.3872 347.9281 85.2755 347.481 85.7226 347.8163 86.2814 347.1457 87.958 347.7045 88.9639 347.481 88.9639 347.0339 89.0757 346.475 89.1875 345.9162 88.9639 345.1338 89.5228 345.3573 89.9699 345.6926 90.0816 346.2515 90.0816 347.0339 90.4169 347.0339 90.7523 346.3633 91.0876 345.8044 91.5347 345.6926 91.87 346.1397 92.0935 345.9162 92.0935 345.8044 92.2053 345.5809 92.2053 346.6986 92.4288 347.0339 92.7641 347.0339 93.323 347.0339 93.7701 347.3692 94.1054 347.5927 94.4407 347.7045 95.2231 347.481 94.9996 347.5927 94.9996 347.7045 94.8878 347.7045 94.776 347.8163 95.5584 349.2693 96.3408 349.7164 97.1232 349.6046 98.4645 348.5987 99.5822 348.0398 100.0293 347.7045 100.5881 347.3692 101.9294 347.3692 102.4882 347.0339 102.4882 346.5868 101.7058 346.6986 101.5941 346.8103 101.3705 347.0339 100.9234 344.9102 100.5881 343.7925 99.9175 343.3454 99.9175 342.8983 102.3765 342.3395 103.0471 342.4513 102.4882 343.7925 103.0471 343.6807 103.4942 343.3454 104.2766 342.4513 103.4942 342.116 103.1589 341.6689 103.1589 340.3276 103.2706 340.1041 103.9413 339.5452 104.2766 339.2099 104.3883 338.7628 104.5001 337.8686 104.6119 337.4216 103.9413 336.9745 103.9413 336.8627 103.4942 336.7509 103.2706 336.9745 103.2706 337.3098 103.1589 337.4216 101.9294 337.3098 101.2587 337.5333 101.0352 338.0922 100.6999 339.0981 100.0293 339.9923 99.2469 340.4394 98.4645 340.1041 99.3586 339.3217 99.4704 338.4275 98.9116 337.8686 97.6821 337.8686 97.5703 338.0922 97.0114 338.651 96.5644 338.8746 96.229 338.5393 96.3408 337.8686 96.7879 337.3098 97.6821 336.0803 97.6821 335.5215 97.9056 334.8508 98.0174 333.8449 97.3468 332.8389 97.0114 332.8389 96.7879 334.6273 95.5584 335.2979 94.1054 335.0744 92.9877 334.1802 92.5406 332.7272 92.9877 331.3859 93.9936 330.2682 95.2231 329.7094 94.5525 328.7034 93.5465 328.1446 93.323 328.2563 92.4288 328.2563 91.5347 328.7034 91.0876 329.5976 90.864 330.4917 90.3052 331.0506 88.9639 330.9388 88.9639 331.4977 89.7463 332.0565 89.411 332.2801 86.2814 332.5036 85.6108 332.7272 84.9402 333.286 84.6048 332.8389 84.1578 332.5036 83.8224 332.5036 83.4871 332.8389 83.3754 332.2801 83.3754 332.0565 83.1518 331.9448 82.7047 332.1683 82.593 332.2801 82.4812 332.0565 82.0341 331.9448 82.593 331.2741 82.9283 330.6035 83.04 329.9329 82.8165 329.1505 83.5989 328.8152 83.9342 328.7034 83.9342 328.2563 83.4871 326.9151 83.7107 323.8972 82.8165 324.2326 82.4812 323.7855 82.1459 323.7855 81.6988 324.1208 81.3635 324.5679 81.587 323.4502 81.9223 322.4442 82.0341 321.5501 81.6988 320.4323 81.9223 320.097 81.6988 319.7617 81.4752 319.4264 81.6988 318.644 82.4812 319.2029 83.04 318.0851 83.1518 316.6321 82.9283 315.8497 82.1459 315.6262 79.1281 313.6143 74.5454 312.273 72.5336 311.2671 72.9806 309.9259 73.9866 309.5905 77.4515 309.9259 78.681 309.7023 83.2636 308.0257 83.9342 307.5787 85.1637 306.0139 85.499 305.0079 85.7226 303.4431 85.8343 301.9901 85.7226 301.2077 85.2755 300.5371 84.8284 299.9782 84.4931 299.1958 84.6048 297.9663 84.8284 297.631 85.499 297.0722 85.7226 296.6251 85.8343 295.9545 85.9461 295.3956 85.9461 294.8367 85.7226 294.2779 86.505 293.6073 86.0579 292.0425 84.6048 289.5835 83.2636 290.0306 81.3635 290.0306 79.3516 289.6953 78.1221 289.2482 77.7868 288.8011 77.5633 288.354 77.3397 287.9069 76.7809 287.7952 76.3338 287.7952 75.8867 287.6834 75.6631 287.4598 75.5514 287.1245 75.3278 286.0068 74.8807 285.6715 73.316 285.448 70.6334 284.442 69.1804 284.2185 67.5039 284.5538 66.6097 285.0009 66.2744 285.0009 65.9391 285.2244 65.8273 285.6715 65.6037 286.2304 65.1567 286.4539 64.7096 286.1186 63.4801 283.6596 63.8154 282.7655 63.7036 281.8713 63.4801 280.8653 63.1448 279.9712 62.5859 279.077 61.4682 277.8475 60.9094 277.1769 60.0152 277.624 59.7916 276.8416 59.9034 274.8297 59.121 274.1591 58.3386 274.2708 57.4444 274.6062 56.4385 274.8297 53.0854 274.8297 52.5265 275.0532 51.8559 279.4123 51.6323 279.3006 51.6323 279.1888 51.5206 279.077 51.1853 279.077 51.297 279.9712 51.297 280.8653 51.0735 281.536 50.4029 281.7595 50.0675 281.536 49.3969 279.8594 48.9498 279.077 48.9498 280.4183 48.391 280.53 47.6086 279.9712 46.6026 278.8535 46.2673 278.2946 46.1556 277.624 46.3791 276.7298 44.9261 277.0651 43.5848 275.9474 42.2436 274.4944 41.0141 273.9355 41.2376 274.9415 41.3494 275.2768 41.0141 275.2768 40.6788 274.8297 39.5611 273.712 39.6728 273.0414 39.7846 272.3707 39.7846 271.8119 39.5611 271.1413 39.114 271.1413 38.7787 272.9296 37.6609 273.3767 36.3197 272.9296 34.5314 271.4766 34.0843 271.1413 31.29 270.3589 31.1782 269.9118 31.5135 268.7941 32.8548 269.4647 33.5254 268.5705 33.9725 267.341 35.202 267.0057 35.202 266.4469 34.196 265.7762 33.9725 264.5468 34.4196 263.8761 35.202 264.6585 35.202 263.9879 35.4255 263.7644 35.5373 263.5408 35.8726 263.3173 36.0961 264.0997 36.0961 264.8821 35.9844 265.4409 35.5373 266.1116 35.7608 266.2233 36.0961 266.4469 36.3197 266.4469 36.7668 266.4469 37.2139 266.5586 37.3256 266.8939 37.4374 267.2293 37.7727 267.4528 38.4433 267.4528 39.2257 267.341 39.6728 266.8939 39.114 266.1116 39.114 265.5527 40.0081 266.1116 40.3435 266.1116 41.0141 266.1116 41.5729 265.7762 42.9142 264.8821 43.3613 264.6585 44.0319 263.9879 44.1437 262.6466 43.6966 261.3054 42.8024 260.523 42.8024 259.9641 44.1437 260.6348 44.8143 261.3054 45.2614 261.3054 46.0438 259.5171 45.2614 259.07 44.0319 257.8405 42.9142 257.5052 42.2436 256.8345 41.6847 256.7228 41.2376 257.0581 40.7905 257.9523 40.4552 258.1758 39.4493 258.064 39.4493 257.8405 39.8964 257.1699 40.2317 255.8286 40.0081 255.0462 38.4433 252.5872 38.7787 253.0343 38.6669 252.2519 37.9963 250.24 37.8845 249.793 37.8845 249.3459 37.3256 246.7751 37.3256 245.7692 37.4374 244.7633 37.7727 243.9809 38.2198 243.7573 39.0022 243.5338 40.2317 242.9749 40.7905 242.8631 42.2436 242.9749 43.5848 243.3102 44.7025 243.8691 45.7085 244.6515 47.4968 246.6634 48.2792 247.8928 48.6145 248.8988 49.844 250.9107 51.1853 252.5872 51.6323 253.0343 51.9677 253.3696 52.303 253.705 52.5265 254.4873 52.6383 255.158 52.6383 255.8286 52.6383 256.4992 52.9736 257.1699 52.6383 257.5052 52.4147 257.6169 52.1912 257.6169 51.8559 257.2816 51.297 257.1699 50.6264 257.2816 50.0675 257.6169 50.9617 258.1758 50.9617 258.7347 50.5146 259.5171 50.0675 260.523 51.297 260.6348 51.8559 261.4172 52.1912 262.4231 52.7501 263.5408 53.6442 266.5586 54.5384 268.0117 55.6561 267.6763 55.9914 266.7822 55.6561 266.2233 54.7619 265.5527 54.4266 262.7584 54.6502 261.6407 55.3208 260.4112 56.1032 259.7406 56.9974 259.9641 56.9974 259.5171 57.3327 259.5171 57.8915 260.1877 58.5622 261.4172 59.5681 264.2114 59.7916 264.0997 60.3505 263.8761 60.574 263.7644 61.0211 264.5468 61.8035 264.435 62.6977 263.9879 63.7036 263.7644 67.9509 263.3173 70.5217 262.0878 71.3041 261.8642 71.6394 261.7525 72.31 261.0818 72.6453 260.9701 73.2042 260.9701 73.6513 261.1936 74.2101 261.3054 74.769 260.9701 74.8807 261.1936 75.1043 260.9701 76.5573 261.6407 77.7868 260.8583 79.1281 259.5171 80.5811 258.6229 80.5811 258.1758 80.134 257.7287 79.9105 257.8405 79.4634 258.1758 79.1281 257.6169 78.1221 258.1758 76.3338 257.9523 75.8867 258.1758 74.5454 257.5052 73.0924 257.5052 69.7393 258.9582 68.6216 259.5171 68.5098 259.4053 68.9569 258.6229 68.0627 257.9523 66.4979 255.3815 65.7155 254.9344 64.3743 254.4873 63.9272 254.152 62.6977 253.2579 62.0271 252.1402 62.8095 252.9226 63.8154 253.5932 65.2684 254.4873 66.0508 254.4873 66.0508 254.0403 65.3802 253.2579 64.7096 252.5872 64.0389 252.1402 63.1448 251.6931 63.3683 250.9107 63.7036 249.2341 63.9272 248.3399 63.1448 247.6693 62.5859 247.8928 62.0271 248.3399 60.9094 248.3399 61.1329 247.6693 61.3564 247.4458 60.2387 246.9987 59.5681 246.8869 58.7857 246.9987 58.8975 246.6634 59.0092 245.881 59.121 245.6574 58.4504 245.5457 57.8915 245.3221 56.9974 244.6515 57.3327 244.2044 57.7798 243.8691 58.2268 243.7573 58.7857 243.7573 57.7798 242.0807 57.3327 241.1866 56.9974 239.9571 58.0033 239.2865 60.6858 238.7276 62.2506 237.6099 62.5859 237.7217 62.6977 238.057 62.8095 238.1688 62.9212 238.1688 63.4801 238.2805 64.0389 238.2805 65.2684 238.8394 65.9391 239.0629 66.8332 239.0629 66.4979 238.1688 66.945 237.7217 67.3921 237.3864 67.8392 237.1628 68.2862 237.7217 68.398 237.1628 68.398 236.604 68.398 236.0451 68.2862 235.3745 67.9509 235.8216 66.8332 233.9215 66.4979 233.4744 68.6216 232.5802 68.9569 234.0332 69.851 234.145 70.4099 233.3626 69.7393 231.5743 70.6334 231.3507 71.4158 230.9036 72.0865 230.3448 72.6453 229.7859 73.6513 230.4565 74.769 229.7859 75.2161 228.6682 74.0983 228.3329 74.9925 226.5446 74.9925 225.7622 74.0983 225.0915 73.2042 225.8739 72.5336 226.321 71.9747 226.4328 70.9688 226.4328 70.7452 226.2092 70.1864 225.3151 69.851 225.0915 69.2922 225.3151 68.8451 225.6504 68.398 225.6504 67.9509 225.0915 67.2803 225.6504 65.492 226.6563 64.8213 226.8799 64.2625 226.6563 63.3683 225.3151 62.5859 225.0915 61.58 224.4209 61.1329 222.8561 61.2447 221.0678 62.0271 219.9501 62.0271 219.503 61.8035 219.503 60.9094 219.503 61.58 218.6088 62.8095 217.7146 64.1507 216.9322 65.1567 216.7087 65.7155 216.0381 65.2684 214.8086 64.0389 212.6849 62.5859 210.7848 61.8035 210.226 60.127 209.3318 59.7916 209.1083 58.6739 208.3259 58.0033 207.4317 58.0033 206.7611 57.668 205.4198 57.3327 204.0785 56.9974 202.9608 56.1032 202.5138 53.5325 202.7373 52.1912 202.6255 51.1853 202.1784 51.7441 201.6196 51.9677 200.1666 52.4147 199.4959 53.0854 199.2724 53.5325 199.4959 53.5325 199.943 52.5265 200.2783 52.5265 200.6136 53.1971 200.6136 53.6442 200.8372 54.0913 201.1725 54.4266 201.6196 54.0913 200.6136 54.4266 200.0548 54.9855 199.7195 55.5443 199.2724 56.4385 197.9311 62.0271 193.5721 61.58 193.2367 61.3564 193.125 61.3564 192.6779 61.4682 192.2308 61.4682 191.8955 61.3564 191.2249 63.2565 191.1131 63.9272 190.8895 64.5978 190.3307 64.0389 189.3248 64.9331 188.6541 67.9509 187.6482 68.1745 187.5364 68.1745 187.3129 68.2862 186.5305 68.9569 183.9597 68.9569 182.5067 68.6216 181.6125 67.7274 181.0537 66.2744 180.9419 65.0449 181.389 64.0389 182.3949 63.033 182.842 61.6917 181.8361 54.2031 183.1773 43.026 185.301 41.9083 185.7481 41.3494 186.3069 40.7905 186.3069 38.4433 187.6482 37.9963 187.9835 37.4374 187.9835 34.6431 187.4246 34.0843 187.5364 33.3019 187.8717 32.743 187.9835 32.2959 188.5424 32.1842 188.7659 32.0724 189.1012 31.7371 188.8777 31.1782 188.4306 26.9309 189.5483 24.8073 189.5483 22.7954 188.4306 22.5718 186.9776 23.9131 183.4009 24.6955 179.936 26.7074 178.0359 27.1545 176.4711 27.4898 172.6708 27.2662 171.8884 26.2603 169.9883 26.0367 169.0942 26.1485 168.4235 26.3721 168.2 26.5956 168.0882 26.8191 167.6411 26.8191 166.0763 27.0427 164.1762 26.8191 163.6174 26.0367 163.3938 26.3721 162.6114 27.1545 159.1465 27.1545 158.8112 26.8191 157.3582 26.8191 156.7993 26.9309 156.1287 27.378 155.2345 27.4898 154.6757 27.7133 154.0051 28.831 152.105 29.2781 151.5461 32.1842 152.552 32.9666 151.9932 34.7549 151.2108 35.3138 150.8755 37.5492 148.5283 37.9963 147.7459 38.2198 147.187 38.2198 146.2928 38.4433 145.8458 38.4433 145.6222 38.4433 145.2869 38.4433 145.0634 38.5551 144.9516 39.2257 144.9516 39.4493 144.8398 39.6728 144.7281 40.0081 143.8339 40.2317 142.4926 40.2317 141.2631 39.8964 140.1454 40.2317 139.1395 40.4552 138.6924 40.7905 138.6924 41.5729 138.6924 42.2436 138.5806 43.5848 137.91 45.3732 137.3512 46.3791 136.5688 48.7263 133.4392 49.1734 133.1039 49.7322 132.9921 50.4029 132.545 51.0735 131.9861 56.7738 125.0563 57.8915 124.1622 60.0152 124.0504 64.5978 124.3857 66.4979 123.9386 67.0568 124.1622 68.398 124.9446 71.4158 125.1681 72.6453 124.9446 74.0983 123.7151 75.4396 122.0385 77.0044 120.6972 79.4634 120.5855 81.2517 121.0326 83.3754 121.0326 84.4931 120.809 86.2814 119.6913 87.1756 119.5795 87.958 120.3619 88.5168 121.3679 89.2992 123.4915 88.6286 123.9386 88.2933 123.9386 87.958 123.6033 87.958 123.7151 87.5109 123.9386 89.8581 126.5094 92.7641 128.4095 95.8937 129.8625 99.6939 130.7567 101.147 130.7567 101.7058 130.6449 103.6059 129.4154 104.3883 129.1919 105.9531 129.5272 107.1826 130.086 108.4121 130.4213 109.7534 129.6389 110.7593 130.1978 112.4359 130.3096 113.7771 129.9743 115.1184 128.0741 117.9127 126.5094 118.8068 125.3916 117.8009 125.2799 115.1184 124.3857 114.336 124.8328 113.8889 124.8328 113.6653 124.1622 113.5536 123.4915 113.33 123.268 112.9947 123.268 112.6594 122.9327 112.3241 122.3738 112.1006 122.1503 111.877 121.7032 111.877 120.809 111.7652 120.3619 111.3182 120.2502 110.8711 120.2502 110.424 120.1384 108.7474 118.3501 108.1886 117.6794 108.1886 117.2323 108.8592 117.0088 109.418 116.5617 110.2004 115.5558 110.7593 115.3322 111.3182 115.5558 111.7652 115.6675 112.2123 114.7734 113.2183 116.1146 113.33 116.3382 113.7771 116.4499 114.0007 116.2264 114.1124 116.0029 114.5595 115.7793 123.3894 117.2323 125.7366 118.0147 126.8543 119.2442 125.8484 120.809 121.2658 123.1562 119.9245 124.3857 120.1481 126.174 122.0482 126.7329 126.4073 126.2858 130.8781 124.6092 143.3965 124.1622 146.1908 124.6092 150.7734 124.3857 150.2145 124.4975 149.7674 124.8328 149.4321 125.1681 149.3204 125.8387 151.444 125.0563 153.903 124.9446 156.4737 125.6152 158.8209 126.8447 159.1562 126.3976 159.3798 126.5094 159.4915 126.7329 159.9386 126.8447 160.3857 126.6211 160.9446 126.0623 161.3916 125.8387 164.4095 125.2799 165.1919 124.6092 165.9743 124.1622 166.9802 124.3857 168.7685 124.9446 170.4451 125.0563 171.8981 125.3916 172.6805 125.727 173.91 126.5094 174.8042 126.8447 175.6983 126.9564 179.8339 126.8447 180.8398 126.6211 181.5105 126.0623 181.9575 125.1681 182.4046 123.268 182.8517 122.4856 183.5223 122.8209 184.4165 122.7091 185.3107 122.4856 186.0931 122.0385 185.1989 120.809 183.9694 119.8031 182.7399 119.0207 181.5105 118.6854 178.6044 118.6854 178.1573 118.9089 177.0396 119.9149 176.4807 120.1384 173.6865 119.4678 168.9921 116.4499 166.086 115.7793 167.092 113.6557 168.8803 112.4262 172.6805 110.9732 174.2453 109.9672 176.4807 107.62 177.3749 107.2847 193.0229 105.8317 195.2583 105.0493 197.382 103.8198 198.4997 102.9256 198.835 102.9256 199.2821 103.2609 199.6174 103.9316 200.1762 104.3787 200.8469 104.0433 201.2939 103.708 201.9646 103.4845 202.5234 103.1492 202.747 102.5903 202.9705 102.1432 203.5294 101.6961 204.0882 101.4726 204.6471 101.3608 205.2059 101.4726 206.1001 101.9197 206.8825 102.7021 207.2178 104.0433 207.7767 104.0433 218.0596 101.6961 224.0953 101.3608 225.9954 102.255 227.1131 102.255 227.8955 101.0255 227.3366 99.349 225.3248 99.0136 220.9657 99.5725 220.6304 99.6843 220.295 99.796 219.848 100.0196 219.1773 100.0196 218.6185 99.6843 217.5008 98.7901 217.1655 98.5666 216.3831 98.343 214.4829 97.6724 213.3652 97.5606 200.8469 98.1195 199.8409 98.4548 198.9468 99.1254 198.0526 99.4607 197.0466 99.0136 196.5996 98.4548 196.376 97.7842 196.0407 97.3371 195.4818 97.1135 195.7054 97.0018 195.8172 96.7782 196.0407 96.6664 196.2642 96.5547 196.0407 95.884 195.7054 95.437 195.3701 94.9899 194.8112 94.7663 194.5877 95.1017 194.0288 94.7663 193.5817 95.1017 193.0229 95.3252 191.5699 95.6605 191.5699 95.2134 192.1287 95.2134 192.464 94.8781 192.5758 94.431 192.5758 93.7604 193.1347 94.0957 193.3582 94.2075 193.3582 93.9839 193.3582 93.7604 193.47 93.7604 193.6935 93.7604 193.1347 92.7545 192.0169 91.525 191.5699 91.0779 190.8992 90.6308 189.7815 90.8543 188.7756 89.8484 185.7578 88.3954 184.64 87.5012 183.5223 86.16 182.5164 85.2658 179.4986 83.5892 179.7221 83.4774 179.8339 83.4774 179.8339 83.3657 179.9457 83.1421 179.275 82.8068 179.0515 82.1362 178.8279 81.1303 178.4926 80.2361 179.3868 79.6772 180.5045 78.4477 181.3987 76.9947 182.0693 74.3122 182.7399 73.3063 182.8517 72.4121 181.734 71.6297 182.9635 69.7296 184.9754 67.4942 187.099 65.9294 188.6638 66.2647 188.9991 66.2647 189.558 65.4823 190.3404 65.3705 200.288 67.2706 210.9063 69.7296 224.9894 71.8532 238.402 72.3003 239.855 72.0768 240.6374 71.7415 241.9787 70.8473 242.6493 70.6238 243.0964 70.1767 243.5435 69.3943 243.8788 68.8354 244.3259 69.1707 244.8847 68.6119 245.5553 67.4942 246.1142 67.1589 246.7848 67.7177 249.0202 68.2766 250.8086 69.6178 268.2449 73.8651 270.0332 75.4299 270.8156 75.877 275.3982 76.7712 289.0343 76.4359 290.3756 75.6535 290.8227 75.4299 291.4933 75.5417 292.611 75.877 293.1699 75.877 295.4053 75.4299 295.7406 75.5417 296.1877 75.877 296.523 75.877 296.8583 75.7652 296.9701 75.5417 297.0818 75.2064 297.4172 74.9828 299.6526 74.0887 301.3292 72.971 304.347 70.0649 305.0176 69.059 305.4647 68.1648 305.6882 67.0471 305.8 65.4823 305.9118 64.9234 306.3589 63.4704 306.4706 62.5762 306.2471 62.2409 305.2411 61.5703 305.0176 61.0114 305.5765 60.1173 306.8059 59.6702 309.2649 59.4466 309.4884 59.2231 310.3826 57.8818 310.6062 57.5465 311.165 57.4348 319.2125 54.3052 330.5014 46.7047 336.9842 43.5751 338.8843 42.0103 339.3314 41.675 344.3611 39.9985 345.9259 39.1043 346.7083 37.316 350.1732 33.404 350.5085 33.0686 351.2909 31.5039 353.0792 30.945 355.9853 30.8332 356.097 30.3861 356.5441 30.1626 357.103 29.8273 357.103 29.3802 357.3265 29.0449 357.5501 28.9331 357.8854 29.0449 358.3325 29.7155 358.556 29.8273 359.4502 29.3802 360.5679 28.0389 361.3503 27.3683 365.0387 25.4682 365.7094 25.0211 366.38 24.6858 367.1624 24.574 367.9448 24.9094 368.6154 23.9034 369.8449 23.0092 371.1861 22.6739 372.5274 23.2328 373.3098 23.2328 376.5512 22.0033 377.3336 21.5562 378.116 21.668 379.6807 21.5562 381.2455 21.1091 382.1397 20.5503 382.6986 20.8856 386.4988 19.9914 388.3989 19.0972 390.7461 17.4207 399.1289 14.6264 407.6235 10.1556 409.5237 10.0438 413.4356 10.7144 419.0242 10.7144 420.2537 10.938 422.9362 11.9439 434.2251 13.0616 435.231 12.7263 436.684 13.2851 443.6139 12.7263 461.0502 15.1853 467.0858 13.3969 469.0977 13.2851 469.8801 13.5087 471.4449 14.2911 473.2332 14.9617 480.2748 15.4088 483.0691 15.0735 485.8634 14.1793 486.7575 13.7322 488.6576 12.1674 490.6695 10.938 492.2343 8.9261 493.4638 6.5789 493.7991 4.4552 494.4697 4.6788 496.0345 5.0141 496.7052 5.4612 496.8169 5.0141 497.0405 4.9023 497.3758 4.9023 497.8229 4.9023 498.1582 5.7965 498.7171 6.3553 499.1641 6.8024 498.8288 7.3613 498.8288 7.8084 500.8407 9.3732 502.0702 9.932 503.635 9.8202 504.1938 9.4849 505.088 8.5908 505.6469 8.3672 506.4293 8.479 506.8763 8.8143 507.9941 9.8202 507.9941 10.2673 505.1998 9.932 503.8585 10.1556 502.7408 11.0497 502.182 12.0557 501.7349 13.6205 501.5113 15.297 501.3996 16.6383 501.7349 17.756 503.1879 20.4385 504.7527 22.5622 507.6587 24.9094 507.6587 25.4682 506.8763 25.4682 507.2117 26.3624 507.7705 27.4801 508.4411 28.486 510.0059 29.2684 511.5707 31.1685 512.3531 31.8392 515.4827 33.0686 517.8299 33.5157 518.7241 34.0746 520.4007 35.6394 522.3008 36.7571 524.648 37.5395 527.1069 37.8748 529.4541 37.6513 530.5718 37.2042 532.5837 35.9747 535.8251 35.4158 541.4136 32.9569 542.7549 32.7333 543.9844 32.398 546.108 30.6097 547.3375 30.2744 547.3375 30.8332 547.114 31.2803 546.7787 31.6156 546.3316 32.0627 545.7727 32.2862 545.8845 33.2922 544.8785 35.5276 545.1021 36.7571 545.5492 36.7571 545.6609 34.9688 546.108 33.404 546.7787 32.1745 547.5611 31.2803 548.1199 30.8332 548.4552 30.7215 551.5848 33.7393 551.5848 32.7333 552.0319 32.7333 555.9439 37.9866 556.7263 40.1102 556.7263 42.9045 556.5028 43.6869 556.0557 44.8046 556.0557 45.1399 555.9439 47.4871 556.1674 48.6048 556.7263 49.8343 559.0735 52.7404 560.4147 53.7463 562.2031 57.0994 562.9855 57.7701 565.668 59.2231 567.2328 59.5584 567.4563 59.8937 567.6799 60.4526 567.6799 61.235 567.7916 62.0174 568.2387 62.3527 568.9094 62.5762 569.4682 62.9116 569.8035 63.2469 570.2506 64.0293 570.5859 64.3646 571.1448 64.4763 572.0389 64.6999 572.5978 65.0352 573.492 65.4823 574.8332 65.147 577.0686 63.9175 579.8629 61.3468 580.31 60.6761 580.5336 60.0055 581.316 58.776 581.4277 58.3289 581.5395 58.1054 581.8748 56.6524 581.763 56.5406 582.5454 55.9817 583.2161 55.9817 584.1102 56.3171 585.2279 56.5406 589.8106 56.5406 594.0579 57.6583 601.8818 61.5703 603.4466 63.0233 604.3408 65.2587 604.4526 68.3883 604.7879 69.6178 605.6821 70.0649 606.7998 70.4002 608.8117 71.6297 609.8176 72.0768 616.6356 71.965 618.5358 72.5239 619.7652 73.6416 620.3241 73.9769 621.4418 74.3122 622.7831 74.424 623.6772 74.7593 624.9067 76.2123 625.8009 76.8829 628.0363 77.6653 628.2598 78.0007 629.4893 79.3419 630.4953 79.789 632.6189 79.5655 633.5131 79.789 633.8484 79.4537 634.519 79.1184 634.9661 78.7831 635.3014 78.2242 635.9721 76.4359 636.6427 75.2064 637.4251 74.0887 638.3193 73.1945 639.3252 72.5239 639.7723 73.6416 640.6664 74.3122 641.6724 74.3122 642.5666 73.5298 642.9019 73.9769 644.2431 73.7534 644.3549 78.1124 645.2491 79.3419 648.0433 80.6832 648.714 81.242 649.2728 82.0244 650.167 83.5892 652.2906 82.695 654.7496 83.0304 661.2323 85.2658 664.3619 85.7129 666.4856 86.4953 667.6033 86.4953 669.9505 85.8246 670.9564 86.0482 673.3036 88.1718 674.4213 88.1718 676.4332 87.5012 678.4451 88.0601 679.7864 88.2836 680.3452 87.7248 684.369 87.5012 685.1514 86.9424 687.1633 85.0422 687.8339 84.5952 689.5105 84.0363 690.1811 84.1481 690.5164 84.3716 691.4106 85.6011 691.7459 86.0482 692.3047 85.7129 693.3107 85.7129 693.8695 85.6011 694.2048 85.2658 694.6519 84.8187 695.2108 84.3716 695.8814 84.1481 696.8873 82.8068 697.1109 82.4715 697.3344 82.248 698.5639 81.8009 702.2524 81.0185 703.1465 80.4596 703.9289 79.6772 704.9349 79.3419 711.0823 79.3419 715.3296 78.336 715.7767 78.0007 717.1179 76.8829 717.7886 76.7712 719.4651 76.8829 720.4711 77.2183 722.1476 78.6713 723.3771 78.7831 724.2713 78.5595 725.6125 77.5536 726.7303 77.4418 727.4009 77.2183 730.1952 75.4299 730.5305 75.2064 730.754 74.8711 730.9776 74.6475 731.6482 74.424 735.0013 75.3182 735.7837 75.9888 737.125 77.8889 740.2546 80.5714 742.2664 81.8009 744.3901 82.248 745.396 81.8009 746.5138 81.3538 747.6315 81.1303 748.9727 82.248 749.6433 82.248 750.7611 82.248 751.2081 82.3597 754.4495 84.9305 755.3437 85.3776 756.3496 85.6011 757.2438 84.9305 760.5969 83.8128 761.8264 83.5892 764.956 86.4953 766.409 87.5012 768.6444 87.9483 769.5386 87.8365 771.1034 87.1659 772.3329 86.8306 774.233 86.16 775.4625 85.2658 777.9215 84.5952 786.5278 78.7831 788.4279 79.6772 789.9927 79.789 791.4458 79.3419 793.1223 78.336 795.1342 76.5476 795.8048 76.4359 797.4814 76.2123 798.2638 75.877 798.9344 75.4299 802.064 71.1826 805.8642 68.3883 806.4231 68.1648 807.2055 68.3883 809.5527 69.1707 810.8939 68.9472 812.9058 67.4942 813.6882 67.1589 814.8059 67.0471 816.0354 66.6 817.2649 66.0411 818.2708 65.2587 820.2827 63.0233 821.4004 62.2409 822.7417 61.9056 824.1947 61.9056 825.0889 61.5703 830.1186 57.4348 831.4598 56.9877 832.5776 56.3171 833.1364 56.0935 835.0365 55.87 835.7072 55.6464 836.7131 54.864 837.4955 53.6345 838.0543 52.0697 838.2779 50.505 838.8367 50.1696 841.8546 47.3754 842.637 46.0341 848.2255 48.4931 849.0079 48.6048 850.5727 48.4931 851.914 47.8224 852.2493 47.8224 852.3611 48.1578 852.2493 48.7166 852.2493 49.2755 852.4728 49.7226 853.1435 49.9461 854.7083 50.1696 855.3789 50.3932 857.5025 52.2933 858.1732 52.6286 858.6202 52.2933 860.7439 50.505 862.4205 48.1578 863.2029 47.5989 865.3265 46.7047 869.1267 48.1578 871.0268 47.5989 871.6975 47.1518 872.4799 47.04 873.2623 47.1518 874.0447 47.5989 875.6095 47.04 876.5036 47.04 877.1743 47.5989 878.0684 48.3813 879.4097 48.4931 881.9804 48.3813 891.2574 51.958 892.0398 51.958 892.5987 51.958 893.7164 51.1756 895.2812 48.7166 896.5107 47.5989 897.0695 46.3694 897.5166 43.4634 898.0755 42.3457 899.0814 41.4515 899.1932 41.4515 899.4167 41.4515 900.4227 41.0044 903.1052 40.7809 910.5938 41.4515 911.5998 41.8986 911.1527 42.5692 911.0409 43.3516 910.9292 44.0222 910.7056 44.6928 910.2585 45.1399 909.1408 46.0341 908.6937 46.8165 910.1468 47.5989 911.1527 48.7166 912.1586 49.0519 913.3881 47.4871 914.1705 47.04 914.5058 47.4871 914.8411 48.3813 915.2882 49.1637 915.6235 49.499 917.1883 49.9461 917.5237 50.2814 917.7472 50.6167 917.9707 50.8403 918.5296 51.0638 918.8649 51.5109 920.4297 54.5287 921.2121 55.4229 925.1241 58.1054 927.6948 60.3408 929.3714 61.1232 930.9362 61.3468 930.9362 61.6821 930.2656 62.688 929.4832 63.3586 926.5771 64.8117 928.0301 65.2587 929.2596 65.147 930.2656 65.2587 931.3833 66.4882 932.6128 69.6178 933.3952 70.1767 938.3131 68.8354 939.7661 68.7237 941.4427 69.1707 942.8957 70.0649 944.3487 71.4062 945.1311 73.0827 944.5723 74.8711ZM125.8484 13.5087L126.6308 16.8618 126.6308 17.6442 126.8543 17.8678 127.1897 18.3149 127.4132 18.8737 127.4132 19.3208 126.8543 19.6561 126.2955 19.5443 125.4013 19.0972 124.5072 19.209 123.8365 19.5443 123.3894 20.5503 123.1659 22.3386 123.5012 24.2387 124.2836 25.4682 125.2895 26.5859 126.0719 27.9272 127.0779 31.0568 127.7485 32.0627 128.6427 32.9569 129.0898 33.404 129.4251 34.1864 129.5369 34.2981 129.6486 34.5217 129.7604 34.9688 129.6486 35.1923 129.3133 35.1923 129.0898 35.1923 128.978 35.6394 129.4251 36.7571 130.0957 38.0983 130.9899 39.2161 132.5547 40.1102 133.3371 41.1162 134.4548 42.9045 137.3608 45.6988 145.4084 50.8403 156.9208 55.7582 173.2394 63.5822 178.4926 64.8117 178.7162 64.9234 178.8279 65.0352 179.0515 65.2587 179.3868 65.2587 179.7221 65.147 180.0574 64.4763 180.5045 64.3646 181.734 64.4763 183.0752 65.0352 183.8576 65.8176 183.4106 67.6059 182.6282 68.8354 181.734 70.0649 180.8398 70.6238 180.1692 70.8473 180.3927 71.2944 180.8398 71.8532 181.0634 72.4121 181.3987 72.8592 181.5105 72.971 181.8458 73.1945 181.734 73.6416 181.5105 73.9769 181.3987 73.9769 181.1751 75.3182 180.8398 76.6594 180.281 77.6653 179.7221 78.5595 179.275 78.8948 178.3809 79.2301 177.9338 79.5655 177.4867 80.2361 177.3749 80.5714 177.4867 80.9067 177.4867 81.1303 177.7102 81.4656 177.5985 81.8009 177.3749 82.248 177.1514 82.248 175.9219 82.1362 175.4748 81.8009 175.2513 81.6891 174.916 81.9127 174.4689 82.5833 174.2453 82.695 173.6865 82.8068 172.6805 83.4774 170.5569 83.9245 170.1098 84.1481 169.7745 84.3716 169.5509 84.7069 169.2156 84.9305 168.6568 85.0422 167.3155 85.0422 166.6449 84.8187 166.4213 84.3716 165.8625 83.8128 164.5212 83.8128 158.1503 84.5952 156.5855 83.9245 157.0326 81.6891 156.3619 81.0185 156.0266 80.7949 155.5795 80.6832 155.9149 79.1184 155.356 77.6653 154.2383 76.7712 153.0088 76.4359 153.2323 77.4418 154.4618 78.5595 154.7971 79.789 154.7971 80.4596 154.6854 81.4656 154.3501 82.4715 153.6794 83.1421 152.2264 82.9186 149.4321 80.1243 148.0909 79.3419 146.3025 79.0066 142.6141 77.6653 140.8257 77.4418 139.0374 77.4418 138.5903 77.2183 138.0315 76.5476 137.5844 76.4359 135.5725 76.8829 134.5666 76.8829 134.2312 76.6594 133.7842 76.4359 131.2134 77.33 130.7663 77.6653 130.3193 77.6653 127.4132 78.7831 126.6308 79.0066 125.6249 79.5655 124.8425 80.1243 124.2836 80.6832 123.0541 82.695 122.7188 83.5892 122.8306 84.1481 121.8246 84.3716 117.5773 83.9245 116.7949 83.3657 116.0125 82.695 115.1184 82.248 113.1065 81.5773 111.0946 81.4656 99.6939 83.1421 98.1292 84.1481 96.8997 86.4953 95.5584 92.0838 94.4407 94.2075 89.411 99.1254 87.1756 103.1492 82.3694 106.7259 82.1459 107.0612 81.587 107.8436 81.3635 108.1789 80.8046 108.2906 79.4634 108.5142 78.0103 109.5201 75.5514 109.4084 74.4337 109.5201 73.5395 110.3025 71.9747 112.538 71.3041 112.985 69.9628 113.0968 69.2922 113.2086 67.1685 113.8792 64.1507 115.7793 63.3683 116.5617 62.3624 117.2323 59.121 117.6794 58.1151 118.2383 56.4385 119.8031 55.6561 120.1384 55.0972 120.4737 54.6502 122.5974 54.0913 123.4915 52.303 124.3857 51.9677 124.9446 51.8559 126.0623 51.5206 127.18 50.7382 128.1859 47.8321 130.8684 47.4968 131.092 45.932 131.4273 45.2614 132.0979 44.1437 133.2156 44.0319 133.4392 43.8084 133.7745 42.4671 135.451 41.4612 136.2334 40.2317 136.9041 39.0022 137.5747 37.8845 137.6865 37.2139 138.3571 37.3256 139.5866 37.9963 140.9278 38.7787 141.4867 36.2079 143.9457 35.4255 144.5045 33.3019 145.734 31.7371 147.2988 31.0664 147.6341 28.2722 148.64 27.7133 148.7518 27.1545 148.3047 27.2662 147.5223 27.7133 146.7399 28.0486 146.2928 28.9428 145.6222 29.5017 144.1692 29.9487 142.7162 30.1723 142.0455 32.6312 138.6924 33.3019 136.2334 32.9666 134.3333 31.9606 132.7685 30.3958 131.5391 30.9547 131.092 31.1782 130.6449 30.8429 130.3096 30.1723 130.1978 29.9487 129.8625 30.3958 129.1919 31.1782 128.5212 31.5135 128.4095 32.0724 127.8506 34.8667 126.8447 35.8726 126.8447 36.655 125.3916 39.3375 123.7151 41.7965 121.5914 44.9261 120.4737 47.2733 118.4618 48.8381 117.4559 50.4029 116.6735 51.8559 116.3382 54.4266 116.6735 55.0972 116.3382 55.8796 115.5558 56.9974 113.7674 57.668 112.985 59.0092 113.5439 60.6858 112.985 62.1388 111.7556 62.8095 110.3025 61.2447 106.8376 60.7976 106.167 60.2387 106.2788 56.7738 106.8376 55.4326 107.3965 54.7619 107.62 51.1853 107.62 49.7322 108.0671 45.7085 110.5261 44.1437 109.5201 43.2495 109.1848 42.4671 109.073 41.6847 109.4084 40.9023 109.8554 40.0081 110.1908 38.6669 109.4084 37.7727 109.5201 34.8667 110.3025 25.0308 110.3025 23.6895 110.079 22.9072 109.6319 22.4601 108.5142 22.1248 107.2847 21.6777 106.167 22.013 105.1611 21.9012 103.5963 21.3424 102.0315 20.56 101.0255 21.007 100.9138 21.1188 100.6902 23.1307 100.9138 24.8073 100.1314 25.925 98.6783 26.3721 96.89 27.2662 95.5487 30.0605 93.0898 29.7252 92.3074 29.7252 91.8603 29.9487 91.6367 30.3958 91.4132 30.284 91.3014 30.0605 91.3014 30.0605 91.1897 30.0605 90.8543 30.5076 90.7426 30.7311 90.519 30.8429 90.1837 30.8429 89.5131 31.0664 90.0719 31.1782 90.4073 31.5135 90.4073 31.8488 89.9602 32.1842 89.4013 32.6312 87.9483 32.9666 87.9483 33.1901 88.3954 33.4136 88.7307 33.749 88.9542 34.196 88.9542 34.9784 88.7307 34.8667 88.2836 34.6431 87.8365 34.4196 87.5012 35.0902 86.8306 36.655 86.16 37.3256 85.6011 37.8845 84.8187 37.7727 84.5952 37.2139 84.3716 36.655 83.701 36.5432 83.0304 36.655 82.5833 37.1021 82.3597 37.8845 82.248 38.3316 81.8009 38.7787 81.0185 38.6669 80.2361 37.3256 79.4537 36.7668 78.7831 36.0961 77.2183 35.9844 76.1006 36.8785 74.3122 36.4315 73.9769 35.6491 73.7534 35.6491 73.1945 36.655 71.6297 35.9844 70.4002 35.8726 69.1707 36.0961 67.8295 36.655 66.2647 35.8726 65.0352 36.4315 64.4763 39.7846 64.141 40.6788 63.6939 42.1318 62.3527 43.5848 61.4585 43.9201 61.1232 44.0319 60.7879 44.2554 60.5644 44.8143 60.4526 47.4968 57.5465 48.0557 58.3289 49.0616 58.8878 50.1793 59.1113 51.1853 59.1113 51.8559 58.3289 52.303 57.2112 52.6383 55.6464 52.6383 54.1934 52.4147 52.7404 51.5206 49.2755 51.297 46.7047 50.9617 45.4752 50.4029 44.4693 50.7382 43.6869 50.5146 41.8986 50.7382 41.0044 50.6264 40.6691 50.5146 40.1102 50.4029 39.6631 50.4029 39.1043 49.3969 40.6691 48.8381 40.1102 46.4909 38.769 43.473 36.5336 43.9201 35.6394 44.1437 34.6334 43.2495 34.4099 42.3553 33.9628 40.2317 33.5157 38.8904 32.1745 37.8845 31.8392 36.5432 31.9509 35.9844 31.1685 35.6491 29.8273 35.7608 28.2625 36.5432 26.4741 38.7787 24.574 44.2554 24.7976 46.7144 24.0152 47.4968 23.121 47.9439 21.7798 48.1674 20.4385 48.1674 19.9914 48.1674 19.5443 48.2792 19.0972 48.5028 18.5384 48.5028 18.0913 48.391 17.8678 47.7204 17.4207 47.6086 17.1971 47.8321 16.7501 48.1674 16.4147 48.6145 16.0794 50.0675 14.4029 50.9617 13.844 51.9677 13.7322 56.8856 14.5146 57.8915 14.4029 58.4504 14.0675 59.5681 12.8381 60.2387 12.7263 60.7976 12.9498 61.6917 13.844 62.3624 13.9558 62.8095 13.7322 63.2565 13.2851 63.9272 12.7263 64.486 12.391 65.0449 12.391 65.6037 12.5028 66.0508 12.5028 66.6097 11.9439 67.1685 11.7204 68.1745 11.9439 68.6216 11.8321 69.2922 11.0497 69.6275 10.1556 70.1864 9.4849 70.857 9.1496 71.9747 8.479 73.0924 6.2436 74.3219 5.5729 74.4337 5.5729 75.3278 5.5729 76.3338 5.9083 77.2279 6.4671 78.0103 7.1377 78.681 7.026 79.7987 7.1377 81.1399 7.473 81.3635 7.3613 81.3635 7.1377 81.587 6.8024 82.7047 5.2376 83.3754 4.6788 84.4931 4.567 86.3932 4.9023 88.0697 6.02 89.5228 7.3613 91.7582 10.938 92.9877 12.2792 94.2172 13.3969 98.1292 15.6323 98.9116 16.303 100.2528 18.0913 100.9234 18.5384 101.8176 18.2031 101.0352 17.8678 101.147 17.756 101.4823 17.5325 101.7058 17.4207 101.4823 17.3089 101.3705 17.1971 101.2587 17.0854 101.147 16.9736 102.2647 16.5265 102.8235 16.1912 103.2706 15.6323 103.6059 15.8559 103.9413 15.8559 104.1648 15.5206 104.2766 14.8499 108.4121 13.7322 110.3122 13.844 113.1065 15.4088 113.7771 15.6323 114.5595 15.5206 115.2301 15.297 115.3419 14.8499 114.5595 14.4029 114.6713 13.6205 114.6713 12.7263 114.7831 11.9439 115.0066 11.9439 115.2301 11.8321 115.4537 11.9439 115.6772 11.9439 116.6832 11.8321 117.1303 11.8321 118.4715 12.1674 119.8128 12.8381 120.5952 13.0616 123.1659 12.8381 123.9483 13.0616 125.8484 13.5087ZM22.013 163.3938L22.9072 162.9468 23.2425 163.6174 23.1307 166.0763 22.7954 167.0823 22.013 166.9705 20.2246 165.741 18.6598 165.0704 17.9892 164.5116 17.6539 163.6174 18.101 163.0585 18.9952 162.9468 20.8953 162.9468 21.2306 162.9468 21.5659 162.9468 21.7894 163.0585 22.013 163.3938ZM19.4422 140.5925L19.4422 142.0455 18.3245 142.7162 17.095 143.1633 13.5184 143.7221 11.1712 144.7281 6.365 145.3987 5.3591 145.3987 4.0178 144.9516 3.3472 144.6163 3.1237 144.1692 1 143.3868 1 143.0515 2.1177 141.0396 3.9061 139.2513 6.0297 137.7982 9.6064 137.1276 14.189 135.451 14.8596 135.3393 15.5303 135.451 15.8656 135.7864 16.2009 136.2334 16.5362 136.6805 17.3186 136.7923 17.3186 137.3512 17.2068 137.91 17.095 138.8042 17.095 139.6983 17.3186 140.1454 16.8715 141.2631 17.4304 141.5985 18.3245 141.2631 19.1069 140.5925 19.4422 140.5925ZM106.8473 106.7259L107.6297 106.5023 109.1945 106.7259 110.5358 107.3965 110.7593 108.626 109.7534 109.4084 107.8532 109.7437 106.8473 110.079 105.059 111.6438 104.053 112.0909 102.8235 111.532 102.2647 111.532 101.147 111.0849 100.3646 110.3025 100.4763 108.8495 100.141 108.2906 99.8057 107.7318 100.0293 106.9494 100.4763 106.5023 100.9234 106.167 101.147 106.3905 101.3705 107.1729 102.6 106.5023 104.053 106.0552 105.3943 105.9435 106.8473 106.7259ZM106.1767 120.2502L106.512 120.1384 106.7355 120.3619 106.7355 120.9208 106.1767 121.0326 105.3943 120.5855 104.5001 120.4737 103.6059 120.3619 102.8235 119.8031 102.7118 119.0207 103.2706 118.5736 103.7177 117.6794 104.1648 117.0088 105.8414 117.7912 105.9531 118.3501 105.7296 118.9089 105.6178 119.6913 106.1767 120.2502Z" />
</svg>