<?xml version="1.0" encoding="utf-8"?>
<svg xmlns="http://www.w3.org/2000/svg" viewBox="0 0 1021 971" style="stroke-width:0.25px;stroke-linejoin:round;stroke:#444;fill:#ddd" fill-rule="evenodd">
  <path class="TT" d="M670.174 484.047L656.7615 481.588 648.1551 495.6712 644.3549 517.5783 645.1373 538.7031 659.1087 583.4116 662.0147 605.2069 641.1135 623.2021 641.5606 643.8798 644.0196 657.1805 651.5083 697.7535 655.1967 707.8129 660.0029 717.0899 672.9683 736.3145 699.7934 755.3156 678.8922 777.8934 669.8387 815.8956 669.3916 858.8157 674.7567 896.1473 659.2205 892.6824 641.7842 898.0474 625.3538 908.2186 612.6119 919.1722 599.7582 927.6668 583.4396 933.926 550.9142 941.7499 543.5373 942.4206 533.3661 943.4265 489.1047 936.1614 473.1215 937.6144 427.1835 946.6679 370.292 941.7499 308.3707 946.6679 307.5883 946.5561 278.7514 941.7499 272.0451 943.3147 251.4792 951.6976 243.3199 952.48 229.125 955.9449 221.8598 956.7273 211.6887 955.1625 204.4235 951.3623 197.9408 946.4443 189.558 941.7499 176.1454 937.7262 161.2799 935.9378 98.688 935.8261 81.587 937.838 68.5098 944.2089 57.8915 952.48 43.8084 960.8628 29.0546 966.5631 16.4244 966.6749 1 956.1684 8.0416 946.2208 31.29 933.926 34.7549 931.1317 42.6906 928.7845 66.0508 924.3136 70.857 919.731 78.3457 908.6657 89.6345 900.0593 101.7058 894.1354 157.4796 877.4815 160.8328 875.805 188.552 862.5042 210.0121 843.3913 210.3474 843.056 209.7886 820.9253 218.9538 816.1191 229.9074 815.8956 267.2389 822.3783 295.6288 821.3724 297.7525 821.2606 305.9118 820.9253 314.0711 817.7957 323.6834 809.9717 332.4015 799.9123 337.9901 790.4118 340.6726 775.7697 339.7784 770.293 338.6607 763.4749 334.9723 751.5154 333.0722 737.7675 331.7309 733.8556 325.36 728.4905 323.1245 725.2492 322.901 721.2254 324.8011 720.2195 327.2601 719.6606 328.4895 717.537 327.8189 711.8366 323.6834 697.4182 320.8891 692.3884 319.3243 681.882 323.4598 667.3517 333.0722 644.5504 337.8783 616.6076 337.9901 587.7706 330.6132 560.8338 313.2887 538.7031 318.6537 534.2322 289.8167 514.4487 275.1747 507.7425 254.6088 498.3537 239.0726 495.0006 202.2999 492.5416 197.7173 491.0886 194.1406 487.0648 189.558 478.5702 227.1131 452.5275 236.8372 448.392 266.4565 450.9627 299.6526 443.1387 317.7595 443.3623 320.8891 443.3623 329.9426 439.2267 335.5311 431.8498 339.2196 428.832 342.908 437.8855 348.273 437.8855 348.4966 435.4265 348.273 427.8261 352.7439 427.8261 353.191 431.6263 354.4205 433.5264 356.097 435.0912 358.1089 437.8855 352.7439 443.3623 358.7795 442.021 362.9151 438.5561 365.8211 435.0912 367.4977 433.3029 381.4691 432.8558 382.8103 433.3029 388.7342 427.9378 402.4821 411.8428 407.0647 407.819 417.1241 407.0366 419.5831 406.8131 457.9206 411.3957 541.749 411.8428 547.8964 407.1484 559.9677 397.8714 602.1054 392.7299 615.0708 387.2531 708.7351 376.7466 738.8015 382.6705 708.0645 436.8795 670.174 484.047ZM1010.9644 4.3251L1016.3294 9.8019 1017 28.1323 1014.541 50.7101 1009.176 66.6934 1001.1285 64.7933 996.6576 64.7933 992.1868 75.8586 985.8158 77.0881 978.6625 74.6292 971.5091 74.7409 970.0561 77.9823 959.3261 92.5125 956.7553 93.0714 939.9897 103.4661 934.7364 107.7134 926.6889 112.6314 917.6354 112.5196 908.8055 110.7312 901.9875 110.3959 858.3967 132.5266 845.543 135.5444 826.0948 152.5337 813.9118 157.4516 808.7703 145.6039 797.9285 151.1924 787.8691 149.4041 781.9452 142.1389 783.6218 130.9618 789.7692 127.944 799.8286 126.2674 809.1056 122.579 813.2411 112.9667 820.3945 103.3543 881.5333 63.1167 894.6106 50.1513 901.9875 44.5627 911.1527 39.8683 934.8482 31.0384 955.3023 26.7911 963.7969 21.8732 972.6268 20.1966 984.0275 27.0146 989.3925 26.344 1003.1404 10.0254 1010.9644 4.3251Z" />
</svg>