<?xml version="1.0" encoding="utf-8"?>
<svg xmlns="http://www.w3.org/2000/svg" viewBox="0 0 1021 1023" style="stroke-width:0.25px;stroke-linejoin:round;stroke:#444;fill:#ddd" fill-rule="evenodd">
  <path class="TV" d="M824.7779 779.8486L827.065 776.4725 828.154 773.5319 827.7184 771.0271 826.6293 767.7598 826.4115 763.4035 826.9561 757.7403 828.8075 761.3343 829.0253 767.9777 831.2035 771.4627 831.748 773.9676 829.6787 776.5814 824.7779 779.8486ZM606.9625 651.6642L605.0021 651.3375 605.5467 647.8524 607.6159 643.2783 609.6852 639.9022 606.9625 651.6642ZM277.081 415.1167L276.9721 414.4632 276.4276 413.2652 276.3187 412.6118 277.1899 414.4632 277.1899 415.5523 277.081 415.879 277.081 415.1167ZM51.8599 173.0148L53.1668 169.4209 54.147 169.312 54.0381 171.0545 51.8599 173.0148ZM328.4855 124.0064L327.3964 122.2639 326.8519 121.2837 326.634 120.5213 329.7924 121.1748 331.8616 122.2639 331.7527 123.3529 328.4855 124.0064ZM3.7227 8.3464L1 4.6435 2.3069 4.2079 5.1385 6.8217 7.3166 12.0493 3.7227 8.3464ZM1017 1013.02L1016.7822 1018.2476 1016.5644 1018.7921 1016.2376 1013.3467 1014.8218 1009.5349 1015.4753 1009.8617 1017 1013.02ZM1006.5449 997.664L1007.9607 998.6442 1009.3765 1002.4559 1008.9408 1003.1094 1007.525 999.6243 1006.436 997.9907 1006.5449 997.664ZM688.0987 494.7282L684.178 487.2136 683.4157 484.5998 689.6234 490.1541 690.3858 490.3719 690.9303 492.7679 691.1481 495.3817 690.4947 496.6886 688.0987 494.7282Z" />
</svg>