<?xml version="1.0" encoding="utf-8"?>
<svg xmlns="http://www.w3.org/2000/svg" viewBox="0 0 1021 1015" style="stroke-width:0.25px;stroke-linejoin:round;stroke:#444;fill:#ddd" fill-rule="evenodd">
  <path class="TW" d="M989.8396 105.6267L970.5032 129.3222 967.4854 134.2402 965.0264 141.2817 963.4616 149.2175 962.9028 157.1532 963.1263 164.8655 966.5912 180.9605 966.3677 184.9843 964.9146 189.1198 965.1382 197.5026 968.7149 203.9854 975.4211 208.1209 983.3569 209.6857 983.3569 211.474 980.0037 211.1387 976.7624 211.474 974.0799 212.3682 972.1798 213.7095 974.8623 218.9627 976.3153 225.669 975.4211 231.4811 969.2737 235.0578 968.8266 237.6285 969.609 240.6463 971.2856 243.5524 971.9562 246.4584 969.3855 248.9174 962.9028 252.6058 955.6376 260.9887 955.3023 264.23 955.7494 271.4952 954.6317 274.2894 953.2904 276.6366 952.3963 279.9898 951.8374 286.5843 951.2785 288.2608 950.2726 289.6021 949.7138 291.0551 950.8315 292.7317 951.055 292.9552 951.7256 293.7376 952.6198 295.3024 953.4022 296.8672 953.6257 297.9849 952.1727 300.4439 946.1371 306.3678 939.6543 315.3095 934.8482 319.1097 933.2834 321.2333 934.0658 323.357 933.1716 324.9218 926.2418 330.175 923.6711 332.634 920.765 338.8932 917.7472 351.6351 910.035 362.8122 908.4702 367.3948 908.6937 372.3128 910.5938 377.7895 912.1586 380.025 913.4999 381.1427 914.3941 382.5957 914.3941 385.9488 913.2763 389.6373 909.4761 395.5612 908.6937 399.2496 908.3584 405.8441 905.0053 422.7216 898.4108 440.4932 890.0279 481.9603 885.11 492.1315 873.5976 558.6353 868.9032 586.0193 866.556 591.049 859.2909 600.773 856.4966 605.9145 854.3729 612.2855 852.8081 624.1332 853.0317 634.6397 852.0257 644.5873 846.8843 654.9821 844.7606 657.2175 839.8427 660.7942 837.6073 663.0296 836.4895 665.3768 834.813 671.4124 829.7833 680.2424 826.7655 693.7667 824.53 699.8023 813.9118 715.2267 812.5705 718.021 798.152 730.2041 794.7989 734.2278 794.24 736.9103 794.9107 743.3931 794.7989 746.2991 793.4576 749.6523 791.2222 753.3407 786.3043 759.5999 781.3864 764.1825 764.7325 775.3596 753.5553 787.6545 750.7611 789.1075 748.6374 791.9018 743.1606 805.8732 740.4781 811.1264 732.0953 821.5211 728.7421 827.6685 726.842 840.4105 721.8123 857.8468 711.9765 875.1713 710.5234 881.0952 708.7351 897.7491 709.0704 912.9499 709.9646 966.4883 708.288 974.0888 705.7173 980.348 702.1406 982.9187 698.0051 986.7189 698.2286 995.4371 699.6816 1004.8259 699.3463 1010.9733 694.6519 1003.9317 687.6103 998.5667 679.451 994.8782 671.18 992.8663 670.8447 999.7961 668.4975 1002.2551 664.9208 1001.3609 661.1206 998.1196 660.897 995.6606 662.2383 988.3955 656.538 978.8949 656.0909 976.3242 656.0909 974.2006 656.538 970.8474 656.538 959.6703 657.0968 956.4289 659.6675 952.7405 660.2264 949.6109 639.5487 896.0725 637.8722 893.1664 632.1718 886.0131 627.5892 875.8419 625.4656 872.8241 617.0827 866.2296 613.7296 864.2177 612.6119 863.8824 611.3824 863.1 610.4882 859.188 609.8176 857.8468 605.235 854.8289 594.8403 849.911 590.1459 846.6696 585.1162 842.3106 582.8807 840.8575 579.8629 839.5163 578.1864 839.6281 576.2862 840.2987 574.0508 840.4105 560.5265 829.7922 547.8964 812.0206 561.1971 828.0039 559.6323 820.4034 557.3969 816.1561 555.6086 812.9147 550.1318 806.6556 540.743 797.9374 537.1663 793.5783 535.4898 788.6604 537.7252 783.8542 538.9547 779.6069 537.2781 773.5713 534.5956 767.7592 529.4541 759.8234 524.648 749.2052 523.642 744.5108 523.7538 741.493 525.3186 737.6927 525.6539 735.2338 525.095 733.8925 523.7538 732.8866 522.3008 731.5453 521.7419 729.1981 518.8359 724.0567 518.0535 722.0448 515.818 707.9616 514.8121 701.4789 512.912 697.6787 508.8882 693.6549 513.8062 690.0782 516.6004 683.819 515.4827 678.3422 508.8882 677.4481 507.6587 679.3482 506.541 682.8131 504.7527 685.6074 501.2878 685.4956 499.9465 683.1484 500.3936 675.8833 499.6112 673.4243 495.3639 671.5242 493.0167 673.6479 491.0048 676.6657 488.2106 677.4481 485.1927 674.7656 484.4103 671.1889 485.081 667.724 486.3105 665.265 489.44 663.7002 493.2403 663.1414 496.4816 662.1354 497.4876 659.0058 496.0345 657.441 486.3105 654.9821 486.3105 652.9702 494.4697 652.8584 493.6873 650.1759 489.2165 646.3757 486.3105 643.0226 487.0928 638.887 489.6636 637.3222 492.4579 636.4281 493.7991 633.7455 493.0167 629.7218 491.5637 626.3686 492.5696 623.3508 494.0227 619.4388 496.3699 616.7563 495.811 614.4091 496.3699 612.0619 499.8348 602.7849 501.5113 600.9966 504.1938 600.326 500.2818 597.6435 501.9584 593.5079 505.8704 593.1726 509.3353 591.7196 510.7883 592.1667 509.8942 588.9253 507.547 590.6019 505.6469 590.043 503.0761 589.9312 503.0761 586.5781 505.6469 580.6542 509.4471 580.4307 515.0356 580.4307 511.2354 569.5889 506.8763 561.3178 508.8882 557.5176 508.8882 555.5057 505.7586 553.9409 506.2057 552.1526 507.9941 550.0289 508.8882 547.3464 513.1355 541.8696 504.1938 542.4285 504.0821 533.375 508.7765 528.01 508.5529 511.0208 509.3353 498.2789 512.2414 488.1077 516.7122 480.1719 518.0535 469.7772 520.4007 460.612 521.7419 457.5942 528.1129 449.0996 529.2306 446.3053 530.013 444.7405 535.8251 440.2696 537.3899 437.14 539.1782 429.7631 540.4077 426.6336 547.6728 419.592 549.7965 416.6859 552.5908 408.6384 556.9498 400.5909 562.8737 383.8252 565.668 379.019 568.7976 375.8894 571.3683 374.1011 573.7155 373.0952 575.2803 371.5304 575.9509 368.5125 577.1804 365.6065 582.4337 361.471 583.6631 358.2296 584.3338 347.8349 585.2279 344.9288 588.0222 342.2463 599.7582 328.4985 600.4288 327.7161 601.2112 324.3629 604.6761 321.4569 606.9116 314.8624 609.8176 302.0087 619.4299 285.243 622.336 274.9601 625.8009 269.2597 639.5487 253.9471 647.1492 245.676 649.0493 241.4287 649.9435 234.6107 652.2906 228.7986 658.3263 217.9568 660.0029 211.474 661.6794 208.7915 668.6092 206.6679 670.6211 204.4325 671.8506 201.7499 673.1919 199.1792 677.5509 194.5966 682.3571 191.1317 688.1692 189.5669 695.5461 191.0199 694.6519 185.3196 697.4462 181.5194 701.2464 177.6074 703.1465 171.5717 704.0407 169.6716 707.7292 167.8833 709.2939 162.2947 715.1061 150.447 717.3415 147.3174 718.1239 145.7526 718.0121 143.9642 717.3415 142.0641 716.2238 139.7169 717.7886 136.6991 719.5769 134.799 719.6887 134.6872 721.2535 132.34 721.8123 128.3163 722.7065 125.2985 724.8301 122.3924 727.6244 120.157 730.1952 119.2628 729.9716 117.9216 730.6422 114.9037 732.9894 108.6446 735.1131 105.1796 744.3901 90.4259 751.5435 81.8195 759.0321 75.5603 778.145 69.3011 782.6158 66.5068 786.4161 63.0419 791.1105 60.5829 800.3875 57.2298 821.2887 53.4296 832.9129 51.3059 837.8308 49.4058 844.2018 44.0408 846.2136 43.1466 848.5608 42.6996 851.6904 42.5878 855.2671 43.8173 857.279 46.6116 858.5085 49.4058 860.185 51.0824 863.7617 49.6294 859.9615 43.7055 853.9259 37.5581 850.7963 35.658 851.6904 32.8637 853.5905 31.1871 855.6024 30.293 856.3848 29.3988 858.5085 24.0338 861.8616 17.8864 868.6796 11.7389 878.6273 6.7092 890.0279 4.0267 901.3168 5.368 905.8994 8.9447 916.2942 23.5867 920.0944 31.2989 921.2121 30.8518 924.0064 30.0694 927.2477 29.6223 929.4832 30.293 929.3714 31.1871 928.2537 32.5284 927.2477 34.4285 927.3595 36.6639 928.4772 38.0052 932.2774 40.6877 933.0598 41.6936 934.8482 43.482 938.8719 44.935 986.3747 56.4474 989.7278 58.5711 988.0513 62.3713 987.6042 65.3891 988.2748 70.7541 990.8455 79.8076 993.5281 84.0549 995.7635 85.0608 1003.0286 83.9431 1006.7171 84.2784 1011.0761 85.5079 1014.9881 87.408 1017 90.0905 995.6517 100.7088 989.8396 105.6267ZM896.5107 969.8415L901.3168 973.5299 903.4405 975.9889 903.1052 978.8949 897.5166 980.6833 889.8044 977.5537 882.8746 972.6358 878.7391 968.8355 879.9685 966.0413 879.9685 963.3587 878.8508 961.0116 877.0625 958.7761 897.4048 958.7761 897.4048 960.5645 896.846 961.6822 895.9518 964.2529 895.6165 967.159 896.5107 969.8415ZM32.1842 234.0518L40.0081 232.487 47.2733 239.1933 52.1912 252.2705 51.0735 261.324 47.0497 266.1301 40.0081 261.6593 34.7549 259.9827 26.3721 260.8769 18.9952 265.4595 14.9714 271.8305 11.5065 273.6188 7.371 271.7187 4.5767 271.4952 2.1177 270.3774 1 268.2538 1.3353 267.4714 3.6825 264.5653 4.3531 263.3359 4.5767 261.2122 4.4649 258.6415 3.6825 254.0589 1.8942 249.8116 1.6706 247.5761 3.2354 246.682 11.0594 242.77 21.4541 249.588 28.7193 248.8056 29.837 239.6404 32.1842 234.0518ZM374.0922 508.5618L379.0101 517.5035 380.3514 521.7508 379.6807 524.8804 377.7806 522.7568 375.0981 521.0802 372.1921 520.4096 368.0565 522.7568 365.1505 523.0921 363.6975 523.8745 362.9151 525.4393 361.7974 529.6866 361.1267 530.9161 356.2088 533.7103 351.1791 534.381 346.2612 532.4809 341.2315 527.4512 342.4609 524.8804 345.2552 528.1218 349.3908 529.016 353.8616 527.7865 357.5501 524.8804 354.9793 523.8745 353.0792 522.645 351.4026 520.9684 349.9496 518.733 349.3908 519.7389 349.3908 519.9625 349.1672 520.186 348.0495 520.7449 347.826 516.6094 348.0495 512.4738 349.9496 512.4738 352.0733 513.0327 359.7855 508.2265 364.5916 506.5499 363.3622 511.1326 362.8033 512.4738 366.9388 511.1326 370.1802 511.5796 372.5274 511.3561 374.0922 508.5618ZM327.4836 508.5618L330.9485 497.8318 334.1899 494.5904 338.549 498.3906 335.8664 499.9554 334.0781 503.7557 331.2838 512.4738 331.1721 514.821 331.8427 516.8329 331.5074 518.1741 328.3778 518.733 326.1424 518.8448 324.5776 519.0683 323.2363 519.7389 321.895 520.7449 318.0948 520.7449 318.7655 518.6212 319.9949 517.28 321.895 516.7211 324.5776 516.4976 326.813 515.6034 327.4836 513.4798 327.4836 508.5618ZM353.6381 501.4085L352.7439 497.8318 350.6202 494.814 346.1494 490.2314 351.8497 485.984 355.3146 487.8842 358.6678 490.6784 360.009 493.6963 357.4383 496.1552 358.556 499.8437 356.9912 502.1909 354.7558 502.8615 353.6381 501.4085ZM868.4561 788.6604L867.1149 784.3013 867.6737 783.6307 878.0684 782.8483 879.1861 783.5189 879.9685 785.5308 879.1861 789.6663 878.1802 791.3429 877.8449 793.0195 878.1802 794.696 878.1802 795.8138 877.3978 795.5902 875.6095 795.5902 874.6035 795.3667 874.1564 794.8078 871.4739 793.8019 868.4561 788.6604ZM476.1393 553.7174L490.5578 539.0754 501.6231 525.104 504.1938 524.3216 494.8051 539.5224 490.2224 544.2168 487.0928 547.9053 483.1809 551.8173 480.163 553.9409 475.4686 557.6294 472.2273 559.4177 476.1393 553.7174Z" />
</svg>