<?xml version="1.0" encoding="utf-8"?>
<svg xmlns="http://www.w3.org/2000/svg" viewBox="0 0 1021 1022" style="stroke-width:0.25px;stroke-linejoin:round;stroke:#444;fill:#ddd" fill-rule="evenodd">
  <path class="TZ" d="M312.3945 796.5754L310.9415 795.5694 304.0117 792.9987 299.6526 790.0926 298.982 789.8691 297.3054 790.0926 296.6348 789.8691 296.0759 789.0867 295.8524 787.7454 295.4053 786.963 294.1758 785.6218 292.9463 784.9512 286.24 784.3923 278.1925 782.604 274.7276 782.3804 273.3864 781.4862 272.0451 779.3626 270.2568 775.1153 269.2508 773.774 265.8977 771.4268 262.0975 770.5327 249.9144 770.7562 247.9025 770.5327 246.0024 769.862 244.1023 768.5208 240.7492 764.9441 239.855 764.497 238.7373 763.9382 237.9549 763.9382 236.1666 764.2735 235.2724 764.3853 234.2664 764.1617 231.5839 762.5969 229.2367 762.1498 227.6719 762.8205 226.3307 763.8264 224.4306 764.6088 220.4068 763.7146 218.5067 760.0262 218.5067 755.3318 220.295 751.4198 206.3237 747.6196 204.2 747.8431 200.9586 749.5197 199.0585 750.1903 197.1584 750.1903 195.5936 749.6315 186.5402 742.7017 184.4165 739.7956 183.7459 735.6601 183.7459 732.1952 183.0752 729.7362 181.1751 728.1714 177.5985 727.1655 176.1454 726.2713 174.1336 723.9241 172.6805 723.1417 171.2275 723.0299 169.998 723.1417 168.7685 723.0299 167.5391 722.2475 167.2037 721.5769 166.8684 719.7886 166.5331 719.2297 165.6389 718.7826 165.4154 718.8944 165.1919 719.2297 164.5212 719.565 163.4035 719.7886 158.5974 721.4651 157.815 721.9122 157.0326 722.2475 155.8031 722.024 154.7971 721.2416 153.1206 718.8944 152.0029 718.112 149.7674 718.112 148.2026 718.8944 148.0909 718.6708 148.4262 715.9883 148.2026 714.8706 147.1967 714.4235 145.2966 712.8587 145.1848 709.3938 146.1908 703.47 144.5142 700.4521 138.9256 696.9872 137.2491 694.4165 136.9138 694.5283 136.802 694.5283 136.802 694.64 136.5784 695.0871 135.5725 693.8576 134.4548 691.0634 133.3371 689.8339 132.1076 689.1633 130.8781 688.7162 129.8722 688.0455 129.5369 686.369 129.6486 685.4748 129.6486 685.1395 129.7604 684.8042 129.5369 684.0218 129.3133 683.6865 128.8662 683.2394 128.5309 682.5688 128.0838 680.7804 127.525 679.8862 127.3014 678.8803 127.6367 677.5391 128.3074 677.5391 128.4191 677.8744 128.8662 678.8803 129.3133 677.2037 129.0898 675.4154 128.4191 673.7388 127.6367 672.3976 126.0719 673.2917 125.7366 673.6271 124.7307 672.0623 124.1718 670.1622 123.8365 666.2502 123.5012 665.0207 121.6011 662.0029 120.5952 660.6616 118.5833 658.985 117.6891 657.9791 117.0185 654.7377 116.1243 653.3965 113.8889 651.3846 108.7474 636.7426 107.6297 636.1837 106.9591 634.8425 106.4002 633.3894 105.8414 632.16 104.9472 631.4893 102.3765 630.2598 101.3705 629.5892 100.6999 628.248 100.141 626.4596 99.3586 625.0066 97.7938 624.4477 97.3468 623.2183 93.6583 616.7355 95.1113 613.4942 95.6702 611.7058 94.5525 610.9234 94.6642 610.0293 95.8937 605.5584 96.229 603.7701 95.5584 600.0816 91.6464 591.4752 90.6405 588.1221 90.0816 587.5633 88.8521 587.2279 88.6286 586.222 88.9639 585.2161 89.1875 584.6572 88.8521 582.9806 87.8462 581.3041 86.6167 579.9628 85.2755 579.1804 85.9461 578.0627 86.3932 578.1745 86.952 578.7333 87.5109 579.1804 90.0816 579.1804 91.4229 578.398 91.5347 576.6097 91.1993 574.3743 91.0876 572.6977 91.5347 572.0271 92.7641 570.9094 92.9877 570.4623 92.9877 566.5503 91.87 564.6502 87.1756 561.6323 86.505 560.4029 84.3813 558.9498 78.2339 552.02 76.5573 548.3316 75.8867 545.9844 75.9985 544.9784 72.5336 540.3958 70.4099 535.4779 69.6275 534.6955 68.0627 534.1366 66.3861 533.0189 56.7738 523.8537 55.8796 522.0653 55.3208 520.1652 53.8678 518.7122 51.9677 517.7063 50.0675 517.1474 45.8202 517.2592 41.7965 518.3769 34.6431 522.4007 34.5314 520.1652 33.4136 518.824 30.1723 517.1474 25.5897 513.3472 17.3186 502.9525 16.3127 500.9406 15.642 500.1582 13.4066 499.4876 12.5124 498.8169 12.0653 497.811 12.5124 496.9168 13.6301 495.1285 13.9655 493.0048 13.2948 486.7457 13.5184 480.71 14.189 478.8099 15.7538 476.4627 17.6539 474.3391 19.2187 473.3331 20.2246 473.3331 21.7894 474.3391 22.7954 474.6744 23.466 474.2273 29.6134 468.527 31.7371 467.2975 33.9725 466.8504 33.9725 465.062 34.5314 461.5971 34.6431 459.697 33.749 455.4497 23.6895 433.2073 21.7894 430.7483 17.5421 426.7245 15.642 424.1538 14.8596 421.136 15.0832 419.0123 15.9773 416.7769 17.095 414.6532 18.3245 413.0884 18.8834 411.5237 18.9952 409.0647 18.8834 406.8293 18.5481 405.5998 19.2187 405.3762 19.554 405.1527 19.8893 405.2645 20.56 405.5998 20.8953 404.3703 20.3364 402.4702 20.8953 401.4642 21.5659 400.5701 21.5659 400.0112 21.3424 399.2288 21.2306 398.2229 20.8953 397.8876 20.3364 397.8876 19.8893 397.7758 19.8893 397.2169 20.2246 396.7699 20.6717 396.7699 21.007 396.7699 21.2306 396.5463 21.5659 396.0992 21.9012 395.6521 22.2365 395.0933 22.4601 394.0873 22.4601 391.8519 21.7894 389.7283 20.8953 387.7164 18.5481 384.8103 17.9892 383.022 18.4363 382.3514 18.6598 381.6807 18.5481 381.1219 18.101 380.6748 17.6539 380.6748 17.095 380.6748 16.7597 380.4513 15.1949 378.4394 14.3008 377.657 12.5124 377.0981 9.9417 376.0922 9.2711 375.7569 8.6004 374.8627 8.1534 374.0803 7.5945 373.4097 6.4768 372.7391 5.4708 372.4037 2.6766 372.1802 1 371.6213 1 370.9507 3.5707 368.6035 3.5707 368.0447 3.1237 367.2623 2.3413 366.4799 1.8942 365.6975 1.7824 364.8033 1.7824 358.097 6.2532 334.5133 6.7003 328.9248 9.8299 329.7072 13.6301 330.0425 14.0772 330.1542 15.0832 329.3718 15.4185 328.2541 15.4185 327.0246 15.7538 325.6834 16.4244 325.2363 17.9892 324.4539 18.4363 323.6715 18.6598 322.1067 18.7716 321.7714 20.3364 320.8772 21.3424 320.989 22.3483 321.4361 23.9131 321.7714 24.6955 321.4361 29.7252 319.0889 33.0783 315.9593 36.3197 314.171 37.2139 313.3886 39.3375 312.1591 40.4552 310.7061 42.9142 305.0057 43.8084 303.5527 50.1793 298.2994 53.0854 294.8345 55.209 291.0343 55.4326 290.4755 56.9974 286.8988 58.5622 280.1925 59.6799 278.2924 64.5978 273.1509 68.1745 267.0035 70.5217 265.4387 74.769 266.78 75.1043 265.2152 74.769 263.7622 74.2101 262.3091 73.8748 260.7443 73.9866 258.956 73.9866 258.8442 74.6572 257.1677 78.4574 251.132 79.1281 249.3437 79.2398 247.6671 79.0163 245.767 79.4634 244.6493 82.1459 242.7492 82.3694 242.4139 82.7047 241.2961 82.9283 240.9608 84.4931 240.7373 84.6048 240.8491 84.7166 240.9608 86.505 240.8491 86.6167 240.6255 86.7285 239.8431 86.952 239.6196 89.411 238.949 90.0816 238.7254 90.7523 238.1666 91.9817 236.7135 96.3408 234.5899 98.7998 232.2427 99.0233 229.7837 96.1173 228.2189 95.4466 227.8836 97.235 225.76 99.0233 224.0834 101.0352 222.8539 103.6059 221.848 104.7237 221.7362 105.6178 221.1773 106.2884 220.3949 106.512 219.2772 109.0827 220.5067 111.6535 220.1714 113.8889 218.6066 115.3419 216.1476 115.2301 215.5888 114.7831 213.9122 114.7831 213.2416 116.1243 211.3415 116.9067 209.1061 117.1303 207.9883 117.0185 206.7589 116.5714 206.0882 115.3419 205.1941 115.0066 204.5234 115.1184 203.9646 115.5655 202.7351 115.5655 202.1762 114.6713 200.9468 112.3241 198.7113 111.877 197.3701 112.4359 195.9171 115.3419 192.5639 115.6772 192.0051 116.2361 190.8873 114.1124 190.8873 109.7534 192.1168 107.5179 192.3404 106.2884 191.8933 104.1648 190.552 103.0471 190.105 101.8176 190.2167 100.9234 190.552 99.9175 190.7756 98.688 190.552 98.4645 190.105 98.2409 188.5402 97.9056 187.9813 97.5703 187.7578 96.3408 187.1989 90.1934 183.6222 89.411 183.3987 88.1815 183.9575 87.0638 184.8517 85.1637 187.4224 84.7166 187.646 84.7166 187.5342 84.3813 186.4165 83.4871 185.6341 83.04 184.8517 83.3754 183.8458 81.6988 183.3987 80.2458 182.0574 77.8986 179.0396 77.7868 177.363 78.7927 175.3512 80.8046 172.5569 80.9164 170.2097 81.1399 168.7567 81.9223 167.5272 87.2873 161.8268 87.958 160.0385 85.8343 160.8209 82.4812 162.3857 80.4693 163.0563 78.681 163.0563 77.5633 162.0504 78.0103 159.7032 78.681 158.5855 80.9164 156.4618 81.8106 155.2323 82.2576 154.2264 83.04 151.3204 86.6167 142.6022 87.8462 140.7021 90.9758 136.7901 92.7641 135.6724 94.776 135.8959 96.7879 136.5666 98.688 136.4548 99.8057 135.5606 101.147 132.9899 102.1529 132.2075 103.3824 131.9839 104.3883 132.3193 109.3063 134.7782 110.0887 134.89 110.8711 134.6664 111.5417 134.3311 112.8829 133.9958 114.336 133.1017 115.9008 132.431 117.1303 131.5369 118.1362 129.8603 118.4715 127.9602 118.1362 121.4774 118.9186 117.3419 122.16 106.9472 121.3776 104.2647 120.3716 102.9234 118.9186 101.4704 117.242 100.5762 115.4537 101.0233 116.6832 95.5465 116.4596 93.0876 113.6653 92.6405 114.1124 91.8581 114.6713 91.2992 116.1243 90.0697 115.4537 88.3932 116.0125 86.9402 116.9067 85.4871 117.4656 83.9223 116.6832 80.2339 116.3479 79.2279 117.4656 76.6572 117.242 75.763 116.3479 74.5336 116.1243 73.9747 116.2361 72.9688 117.4656 65.5919 117.4656 63.2447 116.7949 61.2328 114.5595 62.127 113.1065 60.8975 112.2123 58.7738 111.3182 55.4207 110.8711 54.7501 109.7534 53.5206 108.1886 51.3969 107.6297 50.1674 108.0768 49.6086 108.4121 48.6026 108.6356 46.1437 108.0768 43.6847 106.2884 42.567 104.3883 42.3435 98.2409 39.9963 97.3468 39.4374 96.0055 38.2079 94.9996 37.4255 92.2053 36.3078 90.9758 35.4136 90.5287 33.9606 90.6405 33.1782 90.864 32.6194 91.0876 32.284 91.0876 31.9487 90.9758 31.1663 90.0816 30.0486 89.5228 28.1485 87.8462 25.3542 87.2873 24.013 86.8403 21.554 86.505 20.9952 85.2755 20.101 84.9402 20.2128 84.3813 20.5481 83.5989 20.6598 82.8165 20.101 82.593 19.5421 82.8165 18.9833 83.2636 18.5362 83.3754 17.9773 83.1518 16.6361 81.6988 15.7419 81.4752 14.736 81.6988 13.6183 82.4812 12.6123 83.1518 11.8299 83.2636 11.7182 84.046 11.1593 85.1637 11.2711 85.9461 11.7182 86.3932 12.277 86.952 12.5006 88.0697 12.3888 89.7463 11.9417 94.5525 11.4946 96.5644 11.7182 98.7998 12.5006 100.0293 11.4946 103.3824 7.9179 104.7237 7.2473 108.1886 6.1296 111.7652 4.2295 115.1184 5.1237 116.5714 5.7943 122.607 5.7943 139.708 5.7943 156.9208 5.7943 158.8209 5.7943 174.0218 5.7943 191.1228 5.7943 205.8766 5.7943 204.4235 8.365 204.5353 10.0416 205.7648 10.7122 207.7767 9.818 208.7826 9.371 209.4532 7.5826 209.7886 5.7943 211.018 5.7943 211.1298 6.0178 211.018 7.0238 211.2416 7.9179 211.8004 7.9179 212.4711 7.5826 213.2535 7.3591 214.3712 7.9179 213.8123 9.1474 212.5828 10.4887 211.6887 11.1593 212.2475 12.6123 212.3593 13.73 212.2475 14.8477 212.2475 16.189 212.8064 17.4185 213.477 18.5362 214.0359 19.6539 213.9241 20.4363 213.0299 22.6717 212.2475 31.6134 211.4651 34.2959 209.4532 38.0961 208.8944 42.1199 208.0002 44.1318 207.7767 45.473 207.7767 48.2673 207.6649 49.7204 207.2178 50.9498 203.3058 49.1615 202.747 51.844 203.0823 55.9795 202.0763 58.5503 203.8647 61.4563 203.1941 63.58 201.5175 65.8154 200.0645 68.8332 199.2821 76.3219 197.9408 79.0044 197.6055 80.4574 196.7113 86.8284 195.7054 89.3991 191.6816 94.3171 190.4521 96.776 190.0051 99.5703 189.7815 102.9234 190.7875 103.0352 191.2345 102.5881 191.5699 101.9175 192.1287 101.5822 193.0229 101.6939 193.5817 101.8057 194.0288 101.8057 194.923 101.5822 195.7054 101.0233 196.2642 100.3527 197.1584 99.7938 198.835 99.6821 197.7173 102.3646 197.4937 103.5941 197.0466 104.3765 196.8231 104.8235 197.0466 105.1589 197.9408 105.9413 198.1644 106.3883 197.9408 107.5061 196.7113 109.0708 196.2642 109.965 196.376 110.8592 197.382 111.8651 197.6055 112.5358 195.8172 116.336 195.2583 117.0066 195.5936 117.9008 193.6935 123.4893 193.6935 126.1718 193.3582 126.9542 192.464 128.1837 192.0169 128.8543 191.7934 129.525 191.7934 131.4251 191.9052 132.5428 192.6876 133.1017 194.3641 133.1017 196.7113 131.9839 198.4997 130.3074 200.5116 129.1897 203.3058 129.8603 202.9705 130.7545 202.6352 131.2015 204.0882 131.8722 204.8706 132.6546 204.7589 133.3252 203.3058 133.1017 203.4176 134.89 203.7529 136.0077 205.2059 138.2431 206.5472 138.5784 207.1061 139.0255 206.5472 140.4785 206.659 141.1492 207.1061 141.9316 207.2178 142.6022 206.659 143.8317 205.8766 144.9494 204.7589 145.8436 203.3058 146.5142 201.8528 146.626 200.6233 146.5142 199.8409 146.7377 199.5056 148.079 199.9527 149.7556 201.0704 150.2026 202.1881 150.4262 202.6352 151.4321 202.6352 156.4618 203.3058 157.356 204.6471 157.1325 207.4414 156.2383 210.2356 156.1265 211.8004 155.903 212.9182 155.5677 212.6946 157.0207 211.9122 157.2442 210.7945 156.7971 209.7886 156.7971 209.3415 157.1325 209.1179 157.356 209.1179 157.6913 209.1179 158.3619 209.0062 159.1443 208.7826 159.2561 208.3355 159.1443 207.3296 159.5914 206.1001 159.4796 205.5413 159.7032 204.9824 160.4856 204.9824 161.0444 205.2059 161.4915 205.2059 161.9386 204.0882 164.174 203.8647 165.8506 203.7529 166.2977 203.9765 166.4095 205.7648 166.4095 206.2119 166.5212 206.5472 167.1919 206.5472 168.6449 205.8766 173.3393 205.8766 175.5747 207.2178 177.363 208.4473 176.6924 209.9003 175.4629 211.1298 174.1217 211.6887 172.8922 211.4651 171.6627 210.2356 168.4213 210.0121 167.7507 210.3474 167.4154 210.2356 166.7448 209.7886 165.5153 210.0121 164.5094 210.4592 163.9505 211.2416 163.6152 212.024 162.9446 212.9182 162.721 213.9241 163.6152 214.4829 165.0682 214.2594 166.4095 215.7124 165.9624 217.5008 165.8506 217.0537 164.7329 216.8301 161.8268 216.8301 160.7091 216.7184 159.9267 216.3831 159.5914 216.2713 159.2561 216.8301 158.6972 217.2772 158.6972 217.5008 159.2561 217.5008 160.7091 219.848 159.9267 220.5186 161.268 220.295 162.9446 220.295 163.8387 222.4187 164.3976 222.9776 165.7388 222.9776 167.6389 223.3129 169.6508 224.4306 170.9921 226.1072 171.2156 227.6719 170.4332 228.3426 168.6449 228.0073 167.8625 226.3307 166.4095 225.7718 165.8506 225.6601 165.0682 225.7718 163.2799 225.7718 162.6092 225.3248 162.1622 224.6541 161.7151 224.0953 161.0444 223.5364 158.9208 222.9776 157.9149 222.3069 157.1325 221.6363 156.7971 220.8539 156.6854 220.1833 156.1265 219.848 155.5677 220.0715 154.897 220.7421 154.4499 221.4128 154.3382 222.1952 154.3382 223.3129 154.2264 223.76 154.2264 224.0953 154.5617 224.6541 154.5617 225.4365 153.8911 225.6601 153.5558 225.7718 152.9969 225.7718 152.5498 225.4365 152.3263 225.1012 151.7674 225.5483 149.532 225.4365 148.7496 224.8777 146.8495 225.6601 145.1729 226.8895 144.8376 227.6719 146.5142 228.3426 146.5142 228.3426 145.62 228.4543 144.8376 228.6779 144.0552 229.0132 143.2728 229.5721 144.5023 231.6957 146.9613 232.8134 148.4143 233.037 147.7437 233.2605 147.5201 233.1487 147.2966 232.8134 146.5142 233.484 146.2906 234.3782 146.4024 235.1606 146.626 235.943 147.1848 235.7195 148.079 236.3901 148.9732 237.396 149.4202 238.6255 149.0849 239.1844 150.985 239.1844 151.6557 240.8609 150.8733 241.308 149.4202 241.4198 147.9672 242.4257 147.1848 241.8669 145.7318 240.9727 144.9494 239.855 144.3905 238.402 143.2728 236.949 142.714 236.2783 142.2669 235.943 141.8198 235.8312 140.5903 235.3842 140.0315 234.49 139.6961 233.484 139.4726 232.5899 139.0255 232.1428 137.9078 232.2546 136.5666 232.4781 135.3371 232.8134 134.3311 233.484 133.6605 233.9311 133.884 237.396 133.9958 237.7314 135.0018 238.6255 135.6724 239.855 135.8959 241.1963 135.5606 242.8728 133.884 245.22 129.3014 247.0084 129.3014 247.2319 126.2836 247.1201 124.7188 246.5613 124.16 246.226 123.8246 246.226 123.2658 246.673 122.7069 247.5672 122.8187 247.7908 123.2658 248.4614 124.8306 248.9085 125.3894 250.4733 125.8365 251.4792 125.5012 252.4851 124.9424 253.6029 124.7188 254.8323 124.607 255.1677 124.7188 256.956 128.7426 257.8502 129.525 259.415 129.8603 259.9738 130.0838 259.6385 130.4191 258.409 131.2015 258.5208 130.8662 257.9619 130.5309 257.0678 130.4191 256.5089 130.5309 256.1736 132.431 257.8502 134.6664 259.9738 137.0136 259.7503 138.2431 260.9798 139.6961 263.2152 140.1432 267.4625 140.0315 267.3507 140.4785 267.0154 141.5963 266.7919 142.0433 267.9096 141.9316 268.8037 141.9316 269.8097 142.1551 270.7039 142.6022 271.4862 141.9316 272.2686 141.9316 273.051 142.4904 273.9452 143.2728 274.7276 142.2669 276.6277 141.0374 277.0748 140.0315 277.7454 140.0315 278.0807 141.3727 277.969 142.9375 277.5219 144.3905 276.7395 145.62 275.1747 146.9613 274.5041 147.7437 273.1628 150.4262 275.2865 150.985 277.6337 149.6438 284.6752 142.9375 285.2341 141.708 285.4576 139.6961 285.6812 138.802 286.3518 137.2372 287.1342 135.6724 287.9166 134.89 288.4755 136.7901 288.5872 138.3549 288.9226 139.9197 290.2638 141.708 291.2697 143.6081 290.8227 145.0612 289.8167 146.5142 289.2579 147.7437 290.4873 147.073 294.3993 144.6141 294.9582 145.2847 294.7347 145.9553 294.9582 147.8554 294.9582 149.0849 296.0759 148.1908 297.5289 146.0671 298.8702 145.2847 299.9879 145.62 301.5527 144.7259 302.4469 144.9494 303.0057 145.8436 303.341 146.5142 303.7881 146.9613 304.5705 147.1848 304.5705 147.7437 304.0117 148.8614 303.0057 149.7556 302.2233 150.7615 302.1116 152.3263 303.1175 151.991 303.7881 152.3263 304.2352 153.1087 304.5705 154.2264 302.5586 154.4499 302.5586 155.7912 303.1175 157.5795 302.6704 159.3679 302.2233 159.1443 300.7703 158.6972 301.3292 160.3738 301.6645 161.1562 302.1116 161.9386 302.7822 161.4915 303.4528 161.6033 305.2411 162.6092 303.6763 164.0623 303.2293 165.2917 304.2352 166.1859 306.9177 166.4095 307.9237 167.5272 307.253 169.8744 305.2411 173.5628 305.2411 174.6805 305.5765 175.6865 305.5765 176.4689 301.6645 177.2513 300.435 177.363 299.429 177.5866 296.2994 179.2631 294.1758 180.0455 293.6169 180.7162 294.3993 181.9457 295.9641 181.3868 297.8642 182.281 300.7703 184.5164 300.7703 185.0752 298.3113 185.2988 297.5289 186.193 297.6407 187.4224 297.3054 188.5402 296.2994 189.9932 295.9641 191.558 296.1877 192.8992 296.9701 194.0169 297.6407 194.0169 298.3113 192.8992 301.4409 190.105 301.9998 189.2108 303.4528 185.6341 303.1175 184.5164 303.4528 182.5045 304.1234 180.3809 304.9058 179.0396 306.8059 177.8101 308.3707 177.1395 309.6002 176.2453 310.3826 174.1217 311.0532 174.1217 311.165 176.4689 312.0592 177.9219 313.624 179.0396 318.989 181.4986 320.8891 182.0574 322.0068 181.9457 322.4539 181.275 322.5657 180.6044 322.4539 179.9338 322.0068 179.2631 320.7773 178.4807 319.8832 178.4807 319.1008 178.8161 318.2066 178.7043 316.8653 178.0337 316.8653 177.6983 316.9771 176.4689 316.8653 176.1336 316.0829 175.91 312.9534 176.1336 313.8475 174.3452 314.9652 173.5628 315.6359 172.8922 314.9652 171.5509 314.4064 171.3274 312.8416 170.6568 312.3945 170.3215 312.0592 169.7626 311.5003 168.4213 311.0532 167.7507 310.4944 167.0801 308.9296 165.6271 308.4825 165.18 308.7061 163.9505 309.3767 163.6152 310.0473 163.727 310.3826 163.8387 311.0532 163.0563 311.3886 162.8328 311.165 162.4975 310.3826 161.268 310.0473 160.9327 308.259 159.7032 307.5883 158.6972 307.1413 157.0207 307.253 155.5677 308.259 154.897 308.259 154.2264 310.4944 151.0968 311.0532 150.7615 310.6062 149.0849 308.3707 146.7377 307.9237 145.62 308.1472 143.9435 308.7061 142.9375 309.712 142.8257 311.0532 143.2728 310.7179 140.255 312.9534 137.5725 316.3065 135.5606 319.7714 134.89 327.3718 135.6724 330.9485 136.6783 330.9485 138.2431 331.7309 139.3608 332.7369 141.5963 333.631 142.6022 333.9663 142.6022 335.7547 143.1611 335.7547 143.2728 336.09 143.6081 335.9782 144.9494 336.4253 145.2847 337.2077 145.62 339.2196 147.2966 340.5608 147.7437 341.6785 147.7437 346.5965 147.073 348.9437 146.5142 349.3908 146.8495 350.0614 147.4084 350.732 147.6319 351.0673 146.2906 351.5144 145.8436 352.0733 145.62 352.7439 145.9553 352.8557 146.5142 352.6321 147.2966 352.2968 148.1908 352.0733 148.4143 353.3028 148.9732 354.7558 149.0849 355.9853 148.9732 356.5441 148.7496 356.7677 150.2026 357.2147 150.985 358.2207 151.2086 359.7855 150.985 359.3384 150.3144 359.2266 149.7556 359.3384 149.0849 359.7855 148.4143 361.015 148.9732 362.0209 148.6378 362.8033 147.5201 363.0268 146.1789 362.5798 145.5083 359.2266 143.9435 357.9971 143.0493 357.9971 142.9375 358.8913 142.9375 361.2385 141.5963 363.3622 140.8139 364.3681 140.0315 366.0447 141.2609 368.0565 141.2609 369.3978 140.4785 369.1743 139.1373 368.5036 138.6902 368.0565 138.4667 367.7212 138.0196 367.4977 137.2372 367.9448 136.4548 368.7272 135.4488 369.6213 134.6664 370.4037 134.3311 371.9685 134.1076 375.7688 132.6546 377.11 131.7604 379.1219 129.0779 380.5749 128.0719 382.3633 128.519 385.4928 126.0601 386.8341 125.3894 390.9696 124.4953 391.8638 123.6011 392.8697 123.4893 398.3465 119.9127 398.123 118.9067 397.6759 118.3479 397.2288 118.0125 397.0053 117.6772 397.1171 116.7831 397.5641 115.33 397.6759 114.4359 396.2229 110.7474 393.4286 108.0649 389.9637 107.2825 386.4988 109.0708 382.2515 112.0887 381.3573 112.5358 379.9043 112.9828 378.6748 113.9888 376.5512 116.336 372.8627 114.5476 367.4977 113.5417 361.9091 113.4299 357.3265 113.7652 354.644 114.7712 353.3028 114.8829 352.7439 114.1006 352.2968 112.8711 351.2909 111.9769 348.9437 110.6356 346.2612 109.6297 344.1375 109.6297 342.2374 110.6356 340.5608 112.5358 339.7784 111.418 339.4431 110.7474 339.2196 109.965 339.3314 108.9591 340.2255 107.7296 340.5608 106.7237 340.5608 106.053 340.3373 105.0471 340.1138 104.2647 339.8902 104.2647 340.3373 103.2587 340.4491 103.147 340.6726 103.3705 341.2315 103.4823 343.8022 103.5941 343.8022 103.4823 346.1494 104.1529 346.5965 104.4882 347.2671 103.4823 347.1553 102.141 346.4847 101.0233 345.0317 100.3527 346.1494 99.235 347.6024 100.2409 348.8319 102.141 349.5025 103.4823 350.1732 103.4823 350.1732 100.7998 351.6262 101.0233 355.3146 104.2647 355.6499 103.4823 355.9853 103.2587 357.3265 102.9234 354.644 99.0114 357.2147 96.6642 360.2326 97.4466 366.2682 101.5822 370.6273 101.5822 371.2979 101.9175 371.9685 100.5762 373.0862 99.3468 373.4216 98.0055 372.0803 96.4407 371.2979 96.8878 371.0744 96.8878 370.7391 96.776 370.0684 96.4407 370.4037 96.2172 370.5155 96.2172 370.6273 96.2172 370.7391 95.7701 367.0506 94.8759 363.0268 94.5406 365.4858 92.864 365.7094 92.4169 364.927 91.2992 362.9151 89.958 362.468 89.2873 363.0268 88.1696 361.7974 87.9461 360.7914 88.0579 360.1208 88.505 359.7855 89.3991 356.5441 89.6227 352.8557 92.1934 349.279 93.9817 346.2612 91.9699 348.6084 90.5168 348.9437 90.4051 348.8319 89.0638 348.9437 88.2814 349.8378 86.7166 350.8438 84.0341 351.4026 82.9164 353.9734 80.9045 356.2088 80.3457 361.6856 80.4574 361.015 82.9164 362.0209 84.0341 363.921 84.2576 365.9329 84.2576 367.1624 83.8106 368.0565 82.9164 368.7272 82.134 369.1743 81.6869 370.4037 81.6869 371.2979 81.3516 371.9685 80.7927 372.6392 79.7868 373.0862 78.6691 372.8627 77.8867 372.9745 77.2161 373.9804 76.6572 374.204 76.8807 377.11 77.5514 377.6689 78.222 378.7866 78.4455 379.7925 78.222 380.3514 76.8807 379.7925 76.4337 377.3336 74.7571 376.5512 73.9747 375.8805 74.7571 374.9864 73.3041 374.5393 72.6334 373.9804 72.0746 371.9685 70.7333 371.2979 70.1745 370.6273 68.8332 371.1861 68.4979 374.651 68.8332 384.1516 68.8332 384.934 68.6097 385.4928 68.2744 386.1635 67.3802 386.387 66.2625 386.1635 65.2565 385.4928 64.3624 384.7105 64.8095 383.8163 64.9212 383.1457 64.8095 382.3633 64.3624 383.3692 63.58 383.9281 63.4682 384.1516 63.2447 384.2634 62.127 384.1516 61.5681 382.9221 59.8915 381.8044 60.3386 381.022 60.3386 380.4631 59.668 380.3514 58.5503 379.4572 58.9974 378.563 59.2209 377.7806 59.1091 377.11 58.5503 378.4513 57.6561 379.9043 57.5443 381.3573 57.5443 382.6986 56.9855 383.5927 55.6442 384.0398 54.1912 383.7045 53.1853 382.3633 53.5206 381.8044 52.5146 380.9102 51.6205 380.4631 50.7263 381.022 49.6086 382.2515 49.0497 383.5927 49.2733 385.4928 50.2792 385.8282 50.5028 386.2752 50.9498 386.8341 51.3969 387.7283 51.6205 388.6224 51.3969 389.8519 50.5028 390.5226 50.2792 392.0873 50.391 393.2051 50.7263 394.0992 50.7263 394.4345 49.6086 395.664 50.7263 396.2229 52.2911 397.0053 53.5206 398.5701 54.0794 401.2526 54.0794 402.1468 54.0794 403.0409 54.4147 404.4939 55.1971 405.2763 55.4207 405.7234 55.1971 406.2823 54.7501 406.6176 54.303 406.6176 54.0794 407.1765 54.1912 407.8471 54.6383 408.2942 54.7501 408.9648 54.6383 409.3001 54.1912 408.9648 53.7441 408.2942 53.5206 408.0706 53.0735 407.8471 52.2911 407.4 51.5087 406.6176 50.9498 405.8352 50.9498 404.941 51.2851 403.488 52.1793 403.488 51.0616 403.1527 50.5028 402.1468 49.6086 401.8114 49.4968 401.3644 49.6086 401.029 49.7204 400.2466 47.7085 399.576 46.9261 399.3525 46.479 399.1289 46.1437 398.3465 45.8084 397.5641 45.5848 395.8876 45.8084 395.1052 45.8084 393.8757 45.026 392.9815 43.9083 392.9815 42.7905 394.4345 41.8964 400.2466 43.7965 399.6878 42.7905 398.7936 41.8964 397.6759 41.4493 396.3347 41.8964 396.5582 41.3375 396.5582 41.114 396.67 40.8904 397.0053 40.6669 394.6581 38.2079 393.9875 36.8667 395.1052 35.5254 396.67 36.196 402.4821 35.5254 404.4939 35.6372 405.4999 35.9725 407.1765 36.8667 409.0766 37.0902 409.859 37.4255 411.0884 38.655 410.8649 38.8785 410.5296 39.5492 410.4178 40.2198 410.5296 40.6669 411.5355 40.7787 412.0944 40.2198 412.3179 39.3256 412.4297 38.4315 411.7591 36.7549 410.3061 35.1901 408.4059 34.0724 406.6176 33.5135 406.6176 32.9547 406.8411 32.6194 407.0647 32.0605 407.1765 31.6134 406.6176 31.6134 404.8293 32.3958 402.7056 31.6134 401.5879 29.6015 402.7056 26.4719 404.1586 25.1307 405.4999 24.2365 408.5177 22.7835 409.9707 21.7776 412.765 18.5362 412.5415 17.642 411.5355 16.4125 411.0884 15.4066 412.765 14.9595 414.8887 15.0713 415.5593 14.9595 416.0064 14.5124 416.2299 13.9536 416.5652 13.2829 417.2359 13.0594 420.1419 11.1593 420.3655 10.4887 425.3952 13.2829 445.4022 24.5718 465.521 35.749 480.7219 44.2436 485.6398 46.9261 505.7586 58.215 525.7657 69.3921 530.013 71.7393 545.8845 80.5692 566.0033 91.8581 586.1221 103.0352 606.1292 114.3241 626.248 125.5012 646.3668 136.7901 666.4856 147.9672 686.4926 159.2561 706.6114 170.4332 726.7303 181.6103 733.8836 185.6341 746.8491 192.8992 754.5613 197.2583 756.0143 199.4937 757.6909 209.6649 757.8026 210.8944 759.7028 222.4068 758.0262 222.5186 757.132 223.301 756.7967 224.6422 756.9085 226.3188 755.1201 226.4306 752.8847 227.6601 750.7611 229.3366 749.4198 230.7897 748.9727 231.5721 748.5256 232.6898 748.3021 233.8075 748.4139 234.7017 749.0845 235.484 750.6493 235.5958 751.0964 236.3782 750.7611 237.943 749.9787 239.7314 750.314 241.0726 754.7848 240.7373 756.7967 240.9608 758.6968 241.5197 760.4851 242.3021 761.8264 243.5316 762.497 244.9846 764.1736 250.7967 765.0678 252.6968 766.409 254.3734 771.4387 258.0618 779.4862 263.7622 787.422 269.5743 795.4695 275.3864 803.4053 281.0867 811.341 286.8988 819.3886 292.5991 826.7655 297.9641 827.3243 298.4112 835.3718 304.1116 843.3076 309.9237 851.3551 315.7358 859.2909 321.4361 867.3384 327.2482 875.2741 332.9485 883.3217 338.7606 891.2574 344.5727 899.1932 350.273 899.8638 350.8319 901.5404 351.279 902.0992 353.9615 901.6521 356.9793 899.8638 358.6559 897.2931 359.8854 899.4167 360.7795 900.758 360.8913 901.6521 361.3384 901.8757 363.462 901.7639 365.4739 901.4286 367.0387 900.758 368.6035 897.7402 373.6332 896.6224 374.8627 896.0636 373.4097 896.3989 371.6213 896.9578 369.7212 897.2931 367.9329 896.7342 366.3681 895.0576 371.1743 893.6046 372.8508 891.5927 372.7391 893.1575 375.3098 893.3811 376.204 893.7164 381.569 893.4928 382.4631 892.8222 382.9102 891.3692 382.4631 890.5868 382.7985 890.2515 383.2455 889.2455 385.0339 889.1338 386.3751 890.475 386.2634 893.4928 385.0339 893.6046 386.4869 894.6106 388.7223 894.7223 389.6165 894.387 390.2871 890.8103 393.4167 890.2515 394.1991 888.3514 398.1111 885.4453 402.3584 885.2218 403.029 885.8924 403.6997 886.8983 403.029 888.3514 401.1289 888.9102 402.2466 884.8865 414.0944 883.8805 416.1063 882.5393 417.8946 881.5333 418.5652 880.5274 419.1241 879.6332 419.7947 879.4097 421.136 879.745 421.9184 880.5274 422.2537 881.198 422.8125 881.3098 424.2656 879.9685 428.0658 877.286 433.5426 874.0447 438.4605 871.0268 440.4724 872.2563 441.0312 871.6975 443.0431 871.5857 447.4022 870.6915 449.0788 869.462 450.6436 867.7855 454.1085 865.7736 457.2381 865.103 459.2499 864.6559 461.4854 864.6559 467.521 864.3206 468.4152 863.6499 469.0858 863.0911 469.98 862.7558 470.7624 862.7558 471.0977 862.1969 473.5567 861.3028 475.4568 860.6321 477.4686 860.7439 479.8158 861.0792 480.3747 862.1969 481.716 862.644 482.3866 863.5382 485.9633 863.8735 486.8574 864.4323 487.4163 866.556 488.7575 868.009 489.987 868.1208 490.5459 868.5679 494.1226 868.3443 496.358 867.6737 498.4816 866.556 499.8229 867.2266 502.1701 867.5619 507.4233 868.6796 509.7705 869.7974 510.5529 870.9151 511.1118 871.921 511.7824 872.2563 512.6766 872.3681 513.6825 872.8152 514.8002 873.4858 515.6944 874.1564 516.4768 874.7153 516.9239 875.1624 517.1474 876.3919 517.1474 877.0625 517.4827 877.3978 518.0416 877.6213 518.7122 878.0684 519.1593 879.2979 519.3828 881.8686 519.4946 882.8746 520.0535 883.8805 520.5006 884.8865 520.0535 884.7747 519.3828 883.9923 518.9358 882.4275 518.3769 880.6392 517.1474 883.3217 518.0416 885.2218 518.824 890.3633 523.7419 893.4928 527.5421 895.9518 529.3305 896.7342 530.1129 898.0755 532.5718 898.9696 533.3542 900.5344 534.3602 901.3168 535.0308 901.8757 536.1485 902.3228 537.378 902.4345 538.4957 902.9934 540.8429 904.4464 543.4136 906.123 544.7549 907.576 543.0783 908.0231 545.7608 907.576 549.4493 907.576 552.8024 909.4761 554.5908 909.4761 552.9142 909.2526 552.1318 908.9173 551.3494 910.5938 551.4612 911.9351 552.02 914.6176 553.5848 916.0706 554.0319 918.8649 554.2554 920.0944 554.9261 921.4356 555.3732 924.9006 555.3732 925.5712 555.932 925.9065 557.2733 927.6948 559.5087 928.4772 562.303 932.9481 568.2268 933.1716 568.8975 933.0598 569.7916 932.6128 570.3505 932.1657 570.9094 931.9421 571.4682 932.7245 577.5039 932.6128 579.9628 931.2715 579.851 930.2656 581.0805 929.5949 583.5395 929.0361 584.6572 928.0301 585.5514 927.136 585.4396 926.4653 584.6572 926.13 583.0924 922.218 585.7749 922.1063 585.9985 921.3239 586.8926 920.765 588.681 920.5415 590.134 920.2062 591.4752 919.0884 592.8165 917.859 593.8224 917.3001 594.046 916.5177 594.1578 915.7353 594.3813 915.8471 595.1637 916.2942 595.9461 916.5177 596.7285 915.9589 597.7344 914.7294 597.958 913.2763 597.958 912.0469 597.958 912.941 599.5228 913.947 600.5287 914.5058 601.7582 914.5058 603.7701 914.1705 605.1113 913.2763 607.1232 912.2704 608.7998 909.8114 611.147 908.8055 614.7237 907.1289 625.1184 907.2407 627.0185 907.576 629.0304 908.8055 632.0482 909.1408 633.7248 908.582 635.1778 908.2466 636.519 909.6997 639.9839 909.2526 641.6605 905.0053 646.4667 907.9113 645.9078 909.9232 643.5606 911.2645 640.431 912.0469 637.3014 913.4999 638.5309 914.6176 639.8722 914.7294 641.2134 913.2763 642.5547 916.853 642.2194 918.4178 642.4429 920.0944 643.5606 922.5534 646.0196 922.8887 647.3608 922.3298 649.708 920.8768 652.8376 920.765 653.9553 921.771 657.1967 921.8827 660.9969 922.3298 662.6735 923.7828 661.7793 924.2299 661.3322 923.8946 664.2383 922.7769 666.9208 919.7591 671.727 916.6295 680.2216 915.2882 682.7923 914.6176 682.457 914.2823 682.457 914.0587 682.6805 913.2763 682.7923 913.947 684.1336 913.7234 687.5985 913.947 689.275 912.6057 688.6044 912.6057 689.3868 912.0469 691.1751 910.5938 689.4986 909.8114 688.9397 908.9173 688.6044 909.5879 690.0574 909.6997 691.0634 909.029 691.9575 907.576 692.4046 908.8055 694.8636 909.5879 697.3226 909.9232 700.0051 910.1468 702.9111 909.4761 708.3879 909.8114 711.0704 912.8293 714.2 914.0587 716.4354 914.8411 718.8944 915.2882 721.018 915.0647 728.9538 914.5058 730.7421 917.859 731.6363 918.4178 732.3069 918.6414 733.0893 919.0884 733.6482 920.0944 733.9835 921.8827 734.0953 922.4416 734.6541 922.5534 735.8836 922.8887 737.8955 923.7828 739.4603 924.7888 740.1309 925.9065 740.578 927.136 741.4722 927.9184 742.8134 929.0361 746.0548 930.042 747.6196 932.6128 749.6315 933.1716 750.5256 931.9421 750.8609 930.8244 750.7492 930.1538 750.5256 928.7008 749.5197 928.589 749.2961 926.8007 747.6196 924.9006 745.2724 923.4475 744.49 921.6592 744.7135 920.6532 745.1606 920.0944 745.2724 919.6473 745.4959 917.7472 748.2902 919.2002 748.8491 924.7888 748.2902 923.5593 749.855 923.3358 750.7492 924.0064 751.308 925.7947 751.5316 927.4713 751.9787 927.4713 753.3199 926.9124 755.22 926.8007 757.3437 927.0242 757.679 927.8066 758.3496 928.0301 758.6849 928.0301 760.4733 928.0301 760.585 927.5831 761.591 927.4713 761.9263 927.6948 762.1498 928.1419 762.2616 928.589 762.5969 928.7008 763.1558 928.4772 764.0499 927.9184 764.7206 927.5831 765.3912 927.8066 766.3971 928.4772 767.9619 928.4772 768.6326 928.0301 769.6385 929.3714 769.3032 931.048 768.5208 932.501 767.6266 933.5069 766.7325 934.6246 766.6207 936.0777 767.9619 940.1014 772.9916 941.6662 775.7859 942.1133 778.692 940.6603 781.7098 940.5485 782.3804 941.1074 783.1628 941.778 783.9452 942.2251 784.6158 942.2251 785.7336 941.6662 787.6337 941.5545 788.5278 941.8898 791.6574 941.5545 792.7751 940.325 794.4517 939.0955 795.4576 938.2013 795.6812 937.3072 795.5694 935.8541 795.6812 934.6246 796.24 934.1776 797.1342 934.1776 798.4755 934.5129 800.2638 935.2953 799.8167 936.413 799.705 938.3131 799.5932 938.5366 798.5872 938.9837 798.1402 939.9897 798.5872 940.5485 799.2579 940.8838 799.4814 941.2191 799.5932 942.3369 800.0403 942.4486 801.0462 942.2251 802.0521 942.2251 802.8345 942.8957 803.7287 945.1311 805.7406 945.9135 807.6407 947.0312 812.7822 947.9254 814.2352 949.2667 815.1294 949.0431 815.8 948.2607 816.3589 948.0372 817.1413 948.4843 818.1472 948.9314 818.8178 950.1608 820.0473 950.7197 821.0532 950.3844 823.0651 951.2785 824.8535 950.4961 825.5241 948.596 826.1947 947.0312 827.7595 946.5842 828.5419 947.3666 828.8772 951.055 828.7655 951.8374 828.8772 952.0609 829.5479 952.8433 832.1186 953.4022 833.1245 954.967 834.2422 955.7494 834.9129 956.3083 836.0306 956.9789 838.7131 956.3083 840.6132 954.5199 841.6191 951.8374 841.2838 952.6198 842.5133 955.3023 844.637 955.3023 845.4194 954.2964 846.09 951.1668 847.4312 948.2607 848.2136 948.149 849.3314 949.3784 851.6785 949.1549 853.4669 948.4843 854.8081 947.3666 855.9259 946.0253 856.82 948.4843 856.4847 952.8433 851.1197 954.7435 851.3432 955.9729 852.0139 958.7672 851.7903 960.7791 853.8022 962.0086 854.0257 963.3498 853.914 964.6911 854.1375 966.9265 855.9259 972.6268 865.4264 972.8504 870.9032 973.6328 873.8092 974.527 872.5798 975.0858 871.015 975.0858 869.4502 974.527 867.9971 973.7446 865.9853 973.9681 865.2029 975.0858 865.0911 976.8741 865.4264 978.2154 865.7617 981.1215 867.103 982.9098 867.4383 986.71 868.8913 987.1571 868.7795 987.3806 868.8913 987.716 869.8972 987.4924 871.1267 986.9336 872.468 986.5982 873.8092 987.3806 875.374 987.716 876.2682 986.9336 876.8271 986.0394 877.1624 985.8158 877.7212 986.2629 878.5036 986.8218 878.6154 987.2689 878.3919 987.716 878.2801 989.2807 879.286 989.9514 879.3978 990.2867 878.6154 990.3985 877.7212 990.7338 877.1624 991.2926 877.0506 992.1868 877.3859 993.4163 878.1683 995.5399 880.1802 996.7694 880.9626 996.6576 880.0684 996.8812 879.5096 997.1047 878.9507 997.3283 878.2801 998.1107 878.8389 998.6695 878.9507 999.2284 878.7272 1000.0108 878.2801 998.3342 877.833 993.5281 875.8211 996.7694 871.7974 997.9989 872.2444 998.446 873.2504 998.7813 874.5916 999.2284 875.8211 1000.1226 876.4917 1002.2462 877.4977 1003.1404 878.2801 1003.6992 879.1743 1006.7171 885.8805 1007.6112 886.7747 1007.8348 886.6629 1011.0761 887.2218 1011.5232 887.4453 1014.541 886.5512 1014.9881 884.651 1013.7586 883.198 1012.1938 883.5333 1011.7468 882.4156 1012.0821 881.6332 1012.8645 881.0744 1014.0939 880.9626 1014.9881 881.2979 1015.3234 882.0803 1015.6587 882.9745 1016.2176 883.8686 1017 885.5452 1016.2176 887.11 1014.6528 888.563 1013.4233 890.0161 1014.0939 890.0161 1015.3234 890.1278 1015.8823 890.0161 1014.8763 893.2574 1014.7646 894.3751 1014.9881 895.0458 1015.547 895.7164 1015.9941 896.6106 1015.8823 897.9518 1014.4293 900.6343 1011.4114 903.6521 1008.0583 906.1111 1002.0227 908.2348 998.446 910.9173 992.9692 916.3941 991.1809 918.7413 990.0631 919.7472 987.4924 920.7531 975.7564 929.9184 973.9681 930.9243 964.3558 935.0598 954.967 941.5426 952.6198 942.5485 936.8601 946.0134 929.7067 946.4605 928.0301 947.0194 926.5771 947.9135 908.2466 962.6673 906.0112 963.8968 903.664 964.5674 901.2051 964.5674 899.1932 963.785 895.393 961.6614 893.1575 961.2143 890.3633 962.5556 887.1219 963.2262 874.8271 963.2262 871.6975 963.8968 869.1267 966.1322 867.5619 967.2499 865.5501 967.8088 864.3206 968.5912 860.6321 972.1679 858.9556 973.062 857.8378 972.9503 855.826 972.5032 854.7083 972.3914 853.7023 972.615 851.8022 973.5091 849.0079 974.2915 847.5549 975.521 845.4312 978.2035 836.1542 984.4627 833.9188 987.3688 833.807 987.3688 831.1245 985.804 823.6359 983.9039 820.2827 982.1155 815.1413 976.7505 811.7881 974.4033 807.5408 973.7327 806.5349 973.9562 804.523 974.8504 803.4053 974.9622 802.2876 974.7386 800.4992 973.3974 799.6051 973.062 799.2697 972.8385 798.7109 971.9443 798.5991 971.7208 798.0403 971.7208 797.5932 971.9443 797.2579 972.2796 797.2579 972.3914 796.5872 972.3914 794.4636 972.3914 789.0986 973.2856 788.2044 974.1798 787.3102 974.4033 783.51 974.6268 782.057 975.0739 776.1331 978.4271 775.4625 979.2095 775.2389 980.6625 773.7859 984.9098 772.8917 986.1393 773.0035 987.8158 770.7681 991.8396 770.321 993.9633 770.6563 995.1927 771.2152 996.4222 771.4387 997.5399 770.6563 998.8812 769.5386 999.8871 767.5267 1001.2284 760.7087 1004.2462 756.5732 1007.5993 754.7848 1008.6053 752.7729 1009.0524 749.8669 1009.0524 747.855 1009.3877 744.3901 1011.176 742.49 1011.6231 741.3723 1012.182 740.5899 1013.2997 740.1428 1014.6409 739.5839 1015.6469 738.8015 1016.3175 738.1309 1016.6528 736.3426 1016.8763 734.2189 1016.8763 729.6363 1015.6469 728.8539 1015.1998 727.1773 1013.4114 726.0596 1012.9644 725.1655 1012.9644 724.4948 1013.4114 723.7124 1013.8585 722.8183 1014.1938 719.4651 1014.6409 715.4414 1014.1938 707.5056 1012.2937 704.1525 1010.7289 700.9111 1008.0464 698.3404 1004.8051 697.2227 1001.899 695.7696 1002.6814 694.8755 1003.352 694.0931 1003.6873 685.3749 1004.4697 684.0337 1004.2462 681.6865 1002.7932 679.7864 1002.5696 679.004 1002.1226 677.3274 1002.6814 673.0801 1007.7111 670.5094 1011.5113 669.727 1012.2937 668.6092 1012.9644 665.1443 1014.1938 664.2502 1014.9762 663.6913 1015.6469 663.0207 1016.0939 660.5617 1016.3175 659.2205 1016.7646 653.2966 1017.7705 651.7318 1017.547 649.3846 1016.4293 648.8257 1016.2057 648.2669 1015.6469 647.708 1013.4114 646.9256 1012.9644 635.9721 1012.9644 635.525 1013.1879 635.0779 1013.635 634.4073 1014.0821 631.5012 1014.5292 628.0363 1015.4233 626.695 1015.6469 625.6891 1015.3116 624.2361 1014.4174 623.1184 1014.1938 619.3182 1014.8645 618.2004 1014.1938 617.418 1012.4055 617.0827 1010.5054 617.7534 1009.0524 617.0827 1007.1523 616.8592 1004.9168 616.3003 1003.1285 614.8473 1002.4579 613.9531 1002.2343 613.2825 1001.7872 612.7237 1001.1166 611.9413 1000.446 611.0471 1000.1107 608.9234 999.5518 608.0293 999.2165 604.6761 997.0928 602.6642 996.1987 601.323 996.3105 599.5347 996.8693 597.7463 995.8634 596.9639 994.075 597.8581 991.9514 596.1815 989.9395 594.952 989.3806 591.4871 989.3806 590.8165 989.2689 588.134 988.1512 584.3338 987.3688 583.1043 988.2629 580.1982 991.9514 578.5217 993.2926 573.8273 994.075 572.1507 995.1927 572.8213 997.2046 571.7036 997.987 570.6977 999.2165 569.9153 1000.5578 569.2447 1002.5696 568.3505 1003.1285 563.209 1004.4697 563.0972 1004.4697 560.9736 1005.6992 559.4088 1005.2521 557.844 1004.6933 556.8381 1004.8051 556.7263 1006.3699 555.7204 1006.0345 555.2733 1005.5875 555.0497 1004.9168 554.4909 1004.1344 553.7085 1003.4638 553.2614 1003.4638 552.9261 1003.6873 552.2554 1003.9109 551.026 1004.4697 550.5789 1004.4697 548.3435 1004.358 547.4493 1004.1344 546.7787 1003.4638 546.6669 1003.0167 542.7549 1003.1285 503.7468 1002.6814 503.5232 1001.899 503.5232 996.8693 503.2997 995.5281 502.8526 994.4103 502.4055 993.5162 502.182 992.9573 501.8466 992.2867 500.9525 991.5043 500.0583 990.4983 499.2759 987.9276 497.4876 986.4746 497.1523 985.6922 496.3699 983.7921 494.6933 982.1155 492.3461 980.9978 488.3223 979.6565 487.5399 979.5448 486.8693 979.7683 485.6398 980.7743 485.081 980.886 484.4103 980.1036 482.3985 976.3034 482.9573 975.9681 483.7397 975.2975 484.2986 974.9622 484.2986 974.4033 482.8455 973.6209 481.6161 972.1679 480.8337 970.2678 480.4983 968.1441 480.2748 967.2499 479.716 966.5793 478.9336 966.0205 477.257 965.5734 476.8099 965.0145 476.4746 964.1204 476.0275 963.2262 471.5567 959.3142 470.886 957.6376 470.5507 955.2904 469.3212 951.3784 468.8741 949.4783 469.3212 947.1311 472.1155 943.5545 473.7921 939.6425 474.0156 938.6365 474.0156 934.501 475.2451 928.4653 474.9098 926.0064 475.4686 925.224 476.5864 924.3298 476.3628 923.1003 475.804 922.4297 475.1333 921.9826 474.798 921.4238 474.5745 920.9767 474.0156 920.1943 475.2451 918.1824 475.1333 916.0587 474.3509 914.1586 472.3391 911.6997 472.0037 911.1408 472.1155 909.3525 471.892 908.2348 471.2213 908.0112 470.4389 908.123 469.6565 907.7877 468.8741 906.67 468.2035 905.4405 467.7564 904.0992 467.6447 902.8697 467.8682 901.6403 468.7624 899.5166 468.8741 898.5107 468.5388 896.8341 466.7505 893.8163 466.3034 891.6926 468.2035 881.2979 468.2035 880.292 467.98 879.1743 467.1976 877.0506 466.3034 872.0209 463.2856 864.9793 462.5032 861.738 462.7267 860.8438 463.5091 858.9437 463.7327 857.826 463.6209 856.82 462.5032 853.5787 459.7089 849.5549 458.703 847.6548 449.3142 836.0306 449.2024 835.5835 447.5259 834.0187 447.0788 833.6834 444.9551 831.5597 444.508 830.7773 443.9492 828.989 443.7256 827.3124 443.1668 826.0829 440.3725 825.077 431.319 815.3529 431.2073 815.3529 428.5248 814.1234 426.96 812.3351 426.2893 811.9998 423.048 808.0878 421.8185 807.4172 420.9243 806.2994 420.8125 806.1877 417.9065 804.2876 414.5534 803.1699 413.1003 804.5111 411.9826 805.7406 409.7472 807.6407 408.2942 809.9879 410.0825 814.2352 409.859 815.9118 409.3001 818.8178 409.1883 820.4944 408.853 821.7239 408.0706 822.7298 406.7294 823.624 406.7294 824.2946 405.1646 825.9712 404.0469 825.1888 403.0409 823.2887 400.8055 821.3886 398.123 819.8238 395.9993 818.8178 393.5404 817.253 391.0814 814.7941 388.6224 813.2293 385.6046 814.1234 383.1457 815.4647 380.6867 815.8 378.2277 815.3529 375.3217 814.4587 372.1921 814.1234 369.9567 815.0176 367.7212 816.3589 364.8152 817.0295 360.9032 816.8059 359.1149 816.2471 357.6618 815.2411 356.5441 813.4528 354.8675 809.8761 353.191 808.3113 347.9377 804.5111 346.2612 803.9523 345.367 804.064 343.914 805.07 343.1316 805.2935 342.0139 805.1817 340.1138 804.6229 338.7725 804.6229 338.1019 804.9582 336.8724 805.9641 335.9782 806.2994 335.6429 806.0759 332.9604 805.07 330.3897 804.5111 329.4955 804.064 323.7952 799.5932 319.1008 795.0106 317.4242 794.0046 315.6359 794.1164 313.8475 795.0106 312.3945 796.5754ZM965.2499 629.0304L966.703 630.5952 966.4794 633.613 965.0264 639.9839 962.3439 646.1314 961.1144 647.8079 960.8909 648.4785 960.8909 649.1492 960.7791 649.708 960.2202 651.7199 959.8849 652.167 959.1025 653.2847 958.879 653.9553 958.4319 655.073 957.3142 655.073 954.7435 654.2906 952.0609 655.1848 950.8315 657.1967 950.2726 659.4321 949.3784 660.6616 945.69 662.1146 943.7899 662.5617 942.2251 662.6735 940.325 661.8911 937.866 659.2086 936.3012 658.0909 937.1954 657.8673 938.7602 657.7556 939.6543 657.4202 939.6543 657.1967 939.8779 656.5261 940.2132 655.9672 940.325 655.8554 940.5485 655.1848 940.9956 654.9613 941.6662 655.073 942.2251 654.8495 946.2488 650.9375 947.5901 648.8139 946.6959 647.6961 947.2548 646.1314 948.3725 645.4607 949.8255 645.2372 951.5021 645.2372 953.0669 644.9019 955.9729 643.5606 957.6495 643.2253 957.0906 642.4429 956.1965 642.3311 953.7375 642.5547 953.7375 641.9958 954.967 641.7723 955.8612 641.2134 957.6495 639.9839 959.6614 639.2015 960.4438 638.4191 961.1144 635.9602 961.8968 634.6189 962.791 633.3894 963.6851 632.8306 964.1322 632.3835 965.0264 629.9245 965.2499 629.0304ZM932.2774 504.8526L932.6128 505.7468 935.0717 510.1058 934.7364 514.2414 932.3892 517.0356 929.0361 518.1534 925.5712 517.1474 924.2299 515.9179 922.8887 514.2414 921.9945 512.453 920.2062 504.4055 920.4297 502.9525 918.3061 503.6231 918.3061 504.629 919.2002 505.8585 919.7591 507.1998 919.6473 509.3234 919.2002 509.7705 916.5177 508.7646 916.9648 506.9762 916.4059 505.5232 913.947 502.9525 911.0409 498.3699 910.2585 497.6992 909.4761 497.1404 908.2466 497.811 908.2466 498.4816 908.8055 498.5934 908.8055 498.9287 908.8055 499.264 908.9173 499.8229 907.576 498.9287 907.2407 500.3817 907.576 502.5054 908.582 503.6231 908.3584 503.7349 908.1349 503.9584 907.7996 503.9584 907.0172 503.6231 906.123 503.0642 905.7877 502.7289 905.5641 502.2818 900.8697 496.9168 899.9756 495.352 898.7461 491.1047 897.9637 489.4282 901.3168 485.4044 900.5344 479.9276 898.8579 474.1155 899.1932 468.7505 899.0814 467.6328 899.1932 466.5151 899.5285 465.6209 899.8638 464.8385 900.1991 465.3974 900.8697 466.2915 901.2051 466.8504 902.6581 464.2796 906.0112 461.4854 907.576 459.697 908.3584 456.791 909.029 449.8612 910.7056 448.0728 911.8233 450.9789 914.7294 456.1204 915.2882 459.4735 914.6176 463.3855 914.5058 464.8385 914.8411 466.2915 915.6235 468.974 915.8471 470.4271 916.2942 471.8801 918.0825 474.7861 919.0884 479.1452 919.6473 479.4805 921.6592 479.8158 921.8827 481.0453 921.6592 482.163 921.2121 483.3925 920.9886 484.622 921.1003 486.075 921.2121 487.3045 921.6592 488.3105 922.3298 489.4282 921.2121 490.8812 920.6532 491.6636 920.4297 492.6695 921.771 492.1107 922.5534 492.6695 923.224 493.7872 924.2299 494.5696 924.2299 493.1166 924.9006 492.2224 925.6829 492.2224 926.13 493.3402 926.5771 493.2284 926.6889 493.2284 926.6889 493.0048 926.8007 492.6695 928.2537 493.1166 928.2537 491.1047 927.8066 488.3105 928.0301 486.2986 929.7067 488.4222 930.4891 491.1047 932.2774 504.8526ZM941.5545 419.4594L941.6662 416.218 942.0015 414.6532 942.8957 413.4238 942.3369 412.4178 943.4546 412.1943 946.6959 412.7531 946.0253 411.4119 944.0134 409.0647 943.4546 407.6117 945.0194 407.947 946.8077 408.0587 948.4843 407.8352 949.3784 406.941 948.2607 406.7175 947.3666 406.3822 946.5842 405.8233 946.0253 405.0409 947.4783 405.0409 949.7138 404.4821 951.2785 404.3703 952.9551 405.2645 953.8493 404.9292 954.5199 403.029 952.6198 403.8114 950.2726 403.1408 946.0253 400.4583 945.1311 401.0172 944.0134 400.6818 942.8957 399.6759 942.2251 398.5582 943.231 398.8935 943.9017 399.4524 944.5723 399.5641 945.3547 399.1171 946.3606 399.4524 949.4902 399.8994 951.2785 399.8994 950.4961 399.1171 951.2785 397.3287 950.9432 395.7639 949.9373 395.3168 948.596 396.5463 949.1549 394.6462 949.3784 394.0873 948.8196 393.4167 948.149 392.9696 947.143 392.8579 946.0253 393.5285 946.2488 392.4108 946.3606 392.0755 946.6959 391.4048 946.3606 390.2871 946.4724 389.0576 947.0312 388.0517 947.7019 387.9399 948.8196 388.4988 949.2667 388.1635 949.2667 387.3811 948.596 386.3751 947.8136 385.9281 944.7958 384.6986 945.0194 383.8044 946.3606 382.7985 946.6959 381.7925 945.3547 382.4631 944.684 380.7866 945.1311 379.3336 946.3606 378.8865 948.0372 379.8924 948.3725 378.4394 947.3666 377.5452 945.8018 376.651 944.7958 375.4216 944.684 374.3039 945.3547 371.7331 945.4664 370.2801 945.69 370.7272 945.8018 371.1743 946.1371 371.3978 946.3606 371.5096 947.143 371.9567 947.5901 372.8508 947.9254 373.745 948.0372 374.0803 949.0431 373.9685 949.3784 373.2979 949.602 372.5155 950.1608 372.1802 950.7197 372.5155 952.1727 373.9685 952.508 374.4156 956.8671 376.8746 957.6495 377.657 957.6495 378.6629 957.873 379.6689 958.3201 380.0042 958.879 379.2218 958.879 378.5512 958.4319 377.5452 958.5437 376.5393 959.5496 375.4216 959.6614 376.0922 959.9967 376.7628 960.2202 377.3217 960.8909 375.7569 961.4497 373.9685 961.6733 372.1802 961.5615 370.9507 962.791 371.7331 962.791 373.6332 962.5674 375.8686 963.5734 379.4453 962.5674 381.1219 960.8909 382.4631 959.5496 383.022 960.1085 384.6986 959.7732 386.5987 959.2143 388.387 958.879 390.1754 959.7732 392.9696 959.8849 393.5285 960.7791 393.0814 960.7791 392.1872 960.6673 391.2931 960.7791 390.846 962.0086 391.2931 962.1204 392.9696 961.5615 396.5463 961.4497 402.1349 960.7791 403.6997 961.5615 404.3703 960.4438 405.7116 957.6495 413.9826 956.8671 414.9886 956.5318 415.4356 956.42 415.9945 956.3083 417.5593 955.8612 418.7888 955.0788 419.0123 954.5199 418.2299 954.967 416.5534 954.5199 416.5534 953.8493 418.1182 953.514 418.677 953.0669 419.1241 953.4022 420.13 952.9551 421.2477 951.8374 422.1419 950.4961 423.0361 949.602 423.2596 949.3784 422.9243 949.7138 422.3655 950.4961 421.8066 950.4961 421.136 949.1549 421.4713 948.149 422.0301 947.3666 422.2537 946.6959 421.136 943.4546 421.2477 942.1133 420.8007 941.5545 419.4594ZM950.8315 662.6735L953.8493 662.3382 955.9729 662.4499 956.42 663.7912 955.4141 665.0207 951.5021 669.3798 948.7078 671.9505 947.143 671.8387 946.5842 670.2739 947.143 667.815 948.2607 665.8031 950.8315 662.6735ZM902.5463 452.879L902.5463 454.2202 902.9934 455.8968 903.664 457.0145 903.1052 458.0205 903.664 459.1382 903.664 461.0383 902.5463 461.2618 901.4286 461.2618 901.3168 459.9206 901.4286 458.244 901.7639 455.5615 901.4286 453.6614 902.5463 452.879ZM935.2953 417.6711L936.0777 418.1182 937.4189 419.0123 938.4249 420.3536 939.5426 422.0301 940.9956 422.589 942.4486 422.9243 943.3428 424.1538 943.1193 425.2715 940.6603 425.495 938.9837 424.1538 937.5307 422.4772 936.7483 421.2477 935.6306 420.13 934.6246 418.7888 935.2953 417.6711ZM232.8134 126.6189L230.9133 131.2015 229.6838 132.0957 228.119 132.7663 226.5542 133.1017 225.213 133.1017 225.3248 133.2134 224.9894 133.3252 224.5424 133.5487 224.0953 133.6605 223.76 133.437 223.8717 133.1017 223.8717 132.7663 223.8717 132.431 223.5364 131.9839 223.4246 131.4251 223.0893 131.2015 221.9716 131.7604 222.5305 130.5309 223.8717 129.4132 224.8777 128.1837 224.4306 126.6189 223.6482 126.3954 221.6363 126.6189 221.301 126.0601 221.6363 125.1659 222.5305 124.607 223.8717 124.16 225.5483 123.154 227.1131 122.0363 228.6779 121.1421 230.3545 120.9186 230.3545 121.9245 230.578 122.3716 230.9133 122.8187 231.5839 122.1481 231.1369 122.9305 230.8015 123.7129 230.4662 124.4953 230.3545 125.3894 230.9133 125.3894 231.8075 124.0482 232.5899 124.2717 232.9252 125.2777 232.8134 126.6189ZM218.7303 138.2431L218.0596 138.9138 214.5947 141.708 213.1417 142.3787 212.024 141.8198 211.3534 140.5903 211.018 139.1373 211.3534 137.6843 212.2475 135.6724 212.2475 134.3311 211.6887 133.3252 209.7886 131.7604 209.1179 130.5309 210.3474 129.4132 209.565 128.8543 207.7767 128.8543 205.8766 129.3014 205.2059 126.0601 206.5472 126.2836 207.6649 125.613 208.2238 124.2717 208.4473 122.8187 206.4354 123.6011 206.659 121.1421 208.4473 116.336 209.1179 116.336 209.1179 118.2361 210.1239 118.9067 211.2416 119.4656 211.6887 120.248 212.8064 122.8187 213.1417 125.8365 213.9241 128.2955 216.4948 129.3014 217.6125 129.4132 217.5008 129.8603 217.0537 130.7545 216.8301 132.431 217.2772 133.884 218.1714 135.1135 218.842 136.5666 218.7303 138.2431ZM275.9571 129.8603L274.8394 131.4251 274.1688 132.8781 274.5041 134.3311 274.7276 134.1076 274.7276 133.9958 274.8394 133.884 275.1747 133.6605 274.8394 135.1135 273.6099 136.343 272.2686 137.1254 271.2627 136.9019 270.4803 137.796 269.4744 138.4667 268.5802 138.5784 267.4625 138.2431 266.9036 136.6783 266.6801 134.7782 266.1212 133.1017 264.5564 132.431 264.3329 131.3133 266.7919 124.16 267.2389 125.1659 268.0213 125.8365 268.8037 125.7248 269.4744 124.7188 270.0332 124.7188 269.6979 128.6308 270.7039 129.6367 273.1628 129.3014 272.9393 128.519 272.604 126.0601 273.1628 126.0601 274.2805 126.1718 275.2865 125.7248 276.0689 125.8365 276.516 127.9602 275.9571 129.8603ZM337.3195 111.6416L337.2077 112.0887 336.7606 113.2064 336.3135 112.9828 335.5311 113.0946 335.084 113.6535 336.09 115.1065 333.0722 114.8829 331.0603 113.5417 329.3837 111.7534 327.1483 110.6356 326.813 111.6416 326.0306 112.3122 325.0246 112.424 323.9069 111.8651 319.4361 108.512 317.8713 107.9531 313.1769 107.8414 310.8297 107.2825 308.8178 105.7177 307.8119 105.4942 306.9177 105.8295 306.1353 105.9413 305.2411 104.8235 305.3529 103.9294 305.8 103.147 309.2649 99.4585 310.1591 98.229 310.3826 97.1113 309.712 96.8878 307.0295 96.5525 306.5824 96.4407 305.9118 96.4407 305.4647 95.4348 304.0117 93.87 303.4528 92.6405 304.347 92.6405 305.0176 92.7523 305.4647 93.0876 305.9118 93.87 307.4766 93.0876 308.5943 92.4169 310.3826 90.7404 311.165 89.8462 311.5003 89.5109 312.3945 89.3991 312.7298 89.5109 314.5182 90.2933 314.9652 90.7404 314.6299 92.3052 313.8475 93.3111 313.4004 94.3171 314.2946 95.7701 319.1008 98.4526 321.5597 97.5584 322.0068 97.4466 322.3421 96.776 323.1245 96.776 323.9069 96.9996 324.2422 97.1113 328.9366 95.9936 329.719 96.1054 330.0543 97.4466 330.8367 98.8997 331.0603 100.2409 329.2719 103.2587 330.0543 104.0411 333.631 104.8235 333.631 105.4942 332.4015 106.1648 333.2957 107.5061 336.09 109.965 336.5371 110.1886 336.9842 110.0768 337.2077 110.1886 337.3195 110.8592 337.3195 111.6416ZM320.3303 81.0163L321.3362 80.5692 324.5776 80.4574 326.5894 80.1221 327.5954 80.1221 328.3778 80.4574 328.9366 81.2398 328.9366 81.7987 328.6013 82.0222 327.8189 81.6869 327.1483 81.6869 327.4836 82.4693 328.266 83.587 328.3778 83.9223 328.266 85.04 328.0425 85.4871 327.7072 85.7107 326.3659 87.0519 323.3481 89.3991 323.0128 89.0638 322.6774 88.952 322.3421 88.8403 322.0068 88.7285 320.2185 87.0519 319.5479 86.046 319.7714 85.5989 320.1067 85.04 319.9949 84.0341 319.6596 82.9164 319.4361 82.3575 320.6656 82.3575 320.3303 81.0163ZM205.0942 112.3122L204.6471 111.8651 204.0882 110.5239 204.2 109.2944 204.5353 107.9531 205.2059 106.7237 205.8766 107.3943 205.7648 108.7355 206.1001 109.965 206.8825 110.8592 208.112 111.1945 209.7886 111.418 209.4532 111.9769 207.7767 112.8711 207.3296 113.4299 206.2119 113.0946 205.0942 112.3122ZM216.8301 65.033L216.6066 67.6037 215.8242 70.2862 212.9182 75.316 213.5888 71.0686 213.5888 69.5039 213.7006 69.8392 213.7006 70.0627 213.8123 70.2862 214.2594 70.1745 214.2594 66.7096 213.8123 65.1448 212.9182 63.8035 215.7124 62.6858 216.1595 62.7976 216.4948 63.1329 218.7303 64.3624 219.9597 65.9272 220.4068 66.5978 220.6304 67.6037 216.8301 65.033ZM209.0062 80.5692L210.0121 79.4515 210.9063 78.1102 211.018 75.9866 211.4651 75.9866 211.8004 76.0983 212.2475 76.6572 212.1358 78.6691 211.3534 80.0103 208.4473 82.3575 209.0062 80.5692Z" />
</svg>