<?xml version="1.0" encoding="utf-8"?>
<svg xmlns="http://www.w3.org/2000/svg" viewBox="0 0 1021 622" style="stroke-width:0.25px;stroke-linejoin:round;stroke:#444;fill:#ddd" fill-rule="evenodd">
  <path class="UA" d="M543.8726 28.8895L547.3375 28.5542 549.1259 28.8895 550.4671 30.119 550.8024 31.6838 550.8024 33.3604 551.026 34.7017 552.0319 35.3723 553.0378 35.2605 556.0557 33.6957 558.0675 33.4722 561.4207 34.3663 562.5384 34.3663 570.2506 30.6779 572.8213 28.666 574.3861 25.0893 575.0568 19.6125 575.6156 17.936 576.1745 17.3771 576.8451 16.93 577.5157 16.3712 577.851 15.3652 577.6275 14.5828 576.5098 12.6827 576.2862 11.6768 577.0686 8.5472 579.3041 7.9883 584.222 9.8884 586.9045 8.9943 597.9699 14.9182 599.7582 14.9182 602.9996 14.024 604.6761 13.9122 605.6821 14.4711 607.3586 15.8123 608.3646 15.9241 609.3705 15.3652 615.1826 10.112 616.1886 9.6649 616.7474 9.6649 617.418 10.112 617.9769 10.0002 618.424 9.5531 619.0946 8.2119 619.6535 7.8766 620.6594 7.4295 621.4418 6.7589 622.8948 4.9705 623.789 4.2999 624.5714 4.1881 630.0482 5.1941 633.7366 5.1941 634.7426 5.4176 636.0838 6.4235 636.1956 6.5353 637.0898 6.9824 638.0957 6.8706 638.9899 6.3118 639.7723 5.6411 640.5547 5.1941 641.6724 6.7589 641.3371 10.2238 642.2312 11.6768 643.4607 11.565 647.3727 7.653 652.2906 5.3058 654.8614 4.8587 657.4321 4.9705 658.7734 5.4176 659.444 6.3118 659.8911 7.5413 660.7853 9.2178 661.903 10.3355 664.2502 11.7886 665.3679 13.2416 666.7091 16.3712 667.4915 17.3771 671.0682 19.9479 672.0741 20.9538 672.9683 22.4068 673.5272 23.5245 673.8625 24.4187 673.9743 25.2011 673.9743 26.3188 673.0801 28.3307 673.0801 28.8895 673.1919 30.4543 673.4154 33.4722 673.7507 35.2605 674.4213 36.8253 675.5391 38.7254 675.7626 40.2902 675.3155 41.6315 675.3155 42.4139 678.1098 42.5256 679.2275 43.308 681.3512 46.1023 681.6865 46.4376 682.3571 46.8847 682.6924 47.22 682.916 47.6671 683.1395 49.0084 683.0277 49.2319 683.6983 49.4554 684.8161 48.8966 685.4867 48.8966 686.4926 49.5672 688.281 51.6909 689.3987 52.4733 690.7399 53.9263 691.6341 54.7087 693.0871 58.3971 693.1989 62.0856 691.0752 64.6563 689.9575 64.8799 686.7162 64.8799 677.1039 67.2271 674.8684 68.4565 674.3096 70.5802 674.9802 71.4744 676.9921 72.0332 677.7745 72.5921 677.998 73.2627 678.2216 75.1628 678.4451 75.9452 678.8922 76.7276 681.2394 79.4101 682.0218 80.6396 682.4689 82.2044 682.5806 84.2163 682.4689 85.2222 682.0218 86.787 681.7982 87.6812 681.91 88.5754 682.1336 89.3578 682.2453 90.1402 682.1336 91.0343 681.5747 91.5932 680.3452 91.8167 680.1217 92.3756 680.3452 93.158 680.9041 93.9404 682.0218 94.9463 682.8042 95.5052 683.8101 95.9523 684.8161 96.1758 685.7102 96.1758 686.8279 95.5052 687.275 98.523 685.822 101.5408 683.5866 103.9998 680.3452 106.2352 684.369 108.0235 685.7102 108.2471 686.7162 107.8 688.8398 106.0117 690.8517 105.5646 692.8636 105.8999 696.8873 107.3529 698.7875 108.0235 702.4759 107.3529 704.1525 107.5765 704.9349 108.4706 705.2702 109.7001 705.4937 111.0414 706.0526 112.3826 706.9468 113.165 707.9527 113.6121 711.9765 113.8356 715.8884 112.9415 720.5828 110.9296 723.1536 109.3648 724.0477 109.253 725.1655 109.8119 726.1714 110.4825 727.2891 110.259 728.4068 109.7001 729.5245 109.5883 730.6422 109.9237 731.4246 110.8178 731.8717 112.1591 733.213 120.4301 734.3307 123.3362 736.0073 125.0128 737.9074 125.1245 741.7076 124.2304 743.6077 124.3421 744.7254 124.7892 745.7314 125.3481 746.2902 126.354 745.7314 127.9188 744.949 128.5894 741.9311 129.2601 742.1547 130.266 742.1547 132.0543 742.1547 132.725 742.2664 133.6191 742.8253 134.178 744.0548 134.5133 744.7254 134.9604 745.5078 136.0781 745.5078 137.1958 745.396 138.3135 745.5078 139.6548 745.8431 140.7725 747.0726 142.3373 747.5197 143.455 747.6315 144.6845 747.5197 145.8022 747.6315 146.6964 748.4139 147.4788 749.7551 148.3729 750.4257 148.9318 750.9846 149.826 751.4317 152.2849 751.2081 154.5204 751.3199 156.5322 752.6612 158.2088 748.3021 160.1089 747.4079 161.2266 747.5197 162.3443 750.2022 173.0744 751.4317 175.3098 753.3318 176.0922 754.5613 176.3157 755.679 176.7628 756.6849 177.5452 757.4673 179.11 757.9144 181.1219 758.0262 182.6867 758.3615 184.0279 759.591 185.481 760.7087 186.2634 761.8264 186.8222 762.9441 187.1575 764.1736 187.2693 765.2913 186.934 765.5149 186.8222 766.2972 185.9281 766.8561 184.8103 767.862 183.5809 768.3091 183.4691 769.3151 183.3573 769.8739 183.1338 770.5446 182.4631 771.6623 180.8983 772.4447 180.3395 773.4506 179.8924 778.7039 179.3336 788.5397 180.116 790.1045 181.0101 790.5516 182.5749 792.1164 183.4691 797.705 192.5226 799.0462 193.0814 800.3875 193.0814 801.7287 192.5226 802.9582 191.5166 804.0759 190.5107 804.4112 190.2871 805.1936 190.2871 805.7525 190.3989 806.8702 191.0695 808.0997 191.4048 809.6645 192.5226 811.4528 192.9696 812.0117 193.0814 812.7941 193.752 813.0176 193.8638 812.7941 194.3109 812.6823 196.211 812.5705 197.1052 812.6823 197.8876 813.5765 198.5582 814.8059 199.0053 816.1472 199.2288 817.3767 199.1171 818.3826 198.4464 818.9415 197.664 819.8356 195.7639 820.3945 194.9815 821.0651 194.3109 830.4539 188.7223 834.1424 187.3811 837.8308 187.1575 841.8546 187.7164 850.0139 185.3692 851.6904 184.0279 855.0436 180.6748 856.7201 180.0042 862.3087 179.2218 863.5382 179.7806 864.3206 182.1278 865.103 184.9221 865.9971 187.2693 871.0268 189.7283 872.7034 191.6284 872.8152 195.3168 872.2563 197.4405 872.1446 198.3347 872.2563 199.3406 872.5916 199.8994 874.6035 201.9113 879.9685 210.2942 881.9804 211.7472 886.4513 213.7591 888.6867 215.2121 890.5868 216.8887 892.2634 219.1241 894.1635 222.3655 894.1635 222.4772 895.0576 224.1538 895.0576 225.495 895.393 226.0539 896.6224 225.1597 899.0814 223.5949 899.752 223.3714 900.4227 223.4832 901.4286 224.1538 901.9875 224.2656 904.67 222.4772 905.0053 218.5652 904.5582 214.5415 905.1171 211.9707 906.0112 211.7472 909.5879 212.0825 911.1527 211.7472 912.2704 211.859 913.0528 212.8649 914.7294 217.8946 915.4 218.9006 916.5177 219.4594 918.9767 219.6829 919.9826 220.13 921.3239 221.0242 923.3358 221.8066 927.4713 221.0242 930.2656 221.5831 930.8244 221.3595 931.2715 221.0242 932.6128 220.4653 932.8363 220.2418 932.7245 220.4653 933.2834 222.2537 933.3952 223.5949 933.7305 224.3773 934.0658 224.8244 937.5307 227.2834 943.3428 228.96 945.2429 230.7483 946.6959 232.9837 948.149 234.4367 953.514 234.1014 954.4081 233.7661 955.5259 232.8719 957.3142 230.1894 958.3201 229.0717 960.4438 228.2893 961.8968 229.5188 962.0086 229.6306 965.1382 237.7899 966.3677 239.5782 968.0442 240.6959 970.1679 241.143 972.4033 240.6959 974.527 239.5782 976.6506 239.1311 978.7743 240.4724 979.7802 241.0312 983.1333 241.3666 983.804 242.2607 984.4746 244.2726 985.3688 247.9611 986.8218 250.9789 988.4983 252.2084 990.5102 252.7672 992.7457 253.7732 995.7635 256.6792 996.8812 257.1263 998.446 257.2381 1000.1226 256.9028 1001.7991 256.2321 1003.2521 255.338 1006.6053 251.9848 1007.9465 251.426 1009.0642 251.426 1014.541 252.9908 1014.7646 253.2143 1015.4352 253.8849 1015.2117 255.6733 1014.3175 256.9028 1012.0821 258.1322 1011.0761 259.1382 1010.0702 261.9325 1010.4055 264.7267 1011.5232 267.2975 1013.7586 270.7624 1016.4411 273.892 1017 275.2332 1016.8882 276.798 1016.1058 279.7041 1015.9941 282.8337 1015.6587 283.6161 1014.3175 284.3985 1013.1998 285.2926 1011.2997 288.3105 1010.182 289.5399 1006.9406 291.7754 1005.3758 293.3402 1004.1463 295.352 1003.9228 296.5815 1003.6992 299.0405 1003.4757 299.9347 1002.8051 300.3817 1001.9109 300.3817 1000.2343 300.1582 998.5578 300.1582 993.8634 301.723 991.0691 301.6112 990.0631 302.2818 989.7278 306.5292 990.3985 307.6469 991.6279 308.4293 992.6339 309.4352 993.4163 311 993.8634 312.1177 994.4222 313.0119 995.7635 313.5707 1000.2343 314.5767 1002.2462 314.3531 1002.9168 314.4649 1003.4757 314.912 1004.5934 316.365 1005.264 316.7003 1006.4935 316.0297 1007.4994 314.6884 1008.5054 313.6825 1009.9584 313.7943 1011.0761 315.2473 1011.0761 316.9239 1010.2937 318.6004 1009.176 320.0535 1006.7171 322.0653 1004.3699 322.2889 998.1107 319.8299 996.8812 319.9417 995.6517 320.5006 994.534 321.73 994.0869 322.736 993.6398 323.7419 993.1927 324.4125 991.7397 325.0832 991.2926 325.7538 987.8277 337.2662 987.2689 339.3899 989.5043 339.2781 990.622 338.831 997.3283 339.6134 998.7813 340.5076 999.899 341.9606 1000.3461 344.196 1000.3461 344.8667 1000.4579 345.3138 1000.6814 345.6491 1000.6814 345.8726 1000.4579 346.655 999.899 346.7668 999.4519 346.7668 999.1166 346.8785 999.3402 348.2198 999.899 348.8904 1000.4579 349.3375 1002.2462 353.2495 1002.8051 355.3732 1003.2521 356.6026 1003.811 357.2733 1002.4697 358.5028 1001.5756 359.844 997.6636 363.0854 1001.5756 365.5443 1002.6933 365.4326 1005.7111 364.3149 1006.8288 364.5384 1007.723 365.9914 1007.4994 367.668 1006.8288 369.2328 1005.8229 370.3505 1003.1404 372.3624 1002.0227 373.7036 999.2284 378.9569 998.5578 380.6334 998.446 382.6453 999.2284 385.2161 999.2284 385.9985 999.0048 386.1102 998.6695 385.9985 995.5399 386.6691 994.9811 387.0044 994.534 387.7868 994.6458 388.2339 995.0928 388.7927 995.6517 389.6869 996.4341 391.4752 996.5459 392.3694 996.4341 393.7107 996.2106 394.3813 995.6517 395.6108 995.5399 396.3932 995.5399 396.952 995.7635 398.0697 995.8752 398.6286 995.4282 401.0876 994.4222 403.0994 993.081 404.5525 991.1809 404.8878 985.5923 403.4348 983.804 403.323 980.4508 403.9936 978.7743 403.6583 977.433 403.323 974.974 403.9936 973.7446 403.9936 972.7386 403.5465 970.8385 402.2053 969.7208 402.0935 961.4497 402.7641 959.2143 403.4348 958.0966 403.5465 956.9789 403.2112 953.8493 401.0876 953.7375 401.0876 944.7958 400.7523 942.1133 401.87 940.2132 404.2172 938.7602 407.4585 937.7542 411.3705 937.3072 414.8354 936.7483 416.1767 935.5188 416.2884 933.5069 415.5061 932.6128 415.7296 931.6068 416.512 929.4832 418.8592 928.4772 419.7534 927.0242 420.424 915.1765 422.1006 913.2763 423.33 911.8233 425.789 910.8174 428.695 910.035 431.6011 910.1468 437.525 909.8114 439.8722 908.4702 442.4429 906.7936 444.7901 906.0112 446.2431 906.0112 447.5844 906.6818 448.4785 907.7996 448.5903 909.8114 448.255 910.8174 448.3668 911.8233 448.7021 912.2704 449.708 912.1586 451.2728 911.3762 452.5023 910.2585 453.3965 908.9173 453.9553 907.9113 454.7377 906.7936 456.6378 906.4583 459.0968 906.6818 461.6675 907.576 464.0147 906.3465 465.1325 903.3287 469.3798 901.4286 470.3857 902.6581 467.7032 902.6581 466.3619 901.2051 465.8031 899.305 464.2383 899.0814 464.4618 898.7461 464.6854 897.2931 465.5795 896.846 465.8031 894.6106 464.9089 893.1575 464.5736 892.4869 465.0207 887.4572 464.1265 881.4216 466.2502 878.9626 466.3619 871.6975 465.0207 869.7974 465.8031 866.2207 469.6033 860.2968 477.9861 858.732 480.8922 857.8378 482.2334 856.6084 482.7923 856.8319 480.6686 855.6024 479.1039 853.7023 478.0979 851.8022 477.7626 850.6845 477.9861 848.1138 479.998 841.631 482.5688 840.6251 482.7923 839.9545 483.1276 838.0543 484.6924 837.4955 485.0277 835.4836 485.8101 832.5776 488.7162 830.6774 488.9397 831.2363 490.9516 830.4539 492.7399 829.3362 494.64 828.7773 496.6519 828.3303 498.8873 827.3243 501.011 825.9831 502.3523 824.53 502.0169 824.53 501.3463 824.9771 501.3463 826.0948 501.9052 827.1008 499.558 827.7714 496.6519 827.7714 495.1989 827.3243 494.8636 825.3124 492.4046 824.4183 491.9575 822.6299 491.2869 821.8475 490.7281 820.8416 491.2869 819.8356 491.1751 818.2708 490.7281 817.3767 490.9516 816.7061 491.5105 816.259 492.1811 815.8119 492.4046 812.1234 492.4046 809.7762 493.8576 806.982 494.4165 805.1936 495.3107 803.5171 496.5402 799.7168 500.5639 798.5991 502.464 798.2638 504.8112 797.8167 504.8112 797.9285 503.6935 797.705 503.3582 797.1461 503.6935 796.5872 503.9171 796.4755 504.3641 796.4755 504.5877 796.1402 503.8053 796.3637 503.47 796.3637 502.9111 796.3637 502.5758 795.6931 502.1287 795.5813 502.0169 795.1342 501.011 794.7989 500.6757 794.4636 500.3404 793.2341 499.7815 792.2282 499.7815 790.2163 500.3404 786.0807 499.6697 778.3685 501.1228 777.0273 501.1228 772.8917 503.5817 769.6504 505.3701 768.0856 506.7113 763.503 512.0763 761.7146 513.7529 755.0084 517.1061 753.8906 517.8884 752.9965 518.8944 751.3199 521.3534 750.4257 522.2475 748.5256 523.5888 747.6315 524.3712 742.2664 533.3129 741.9311 533.6482 741.037 534.7659 738.0191 540.578 736.6779 542.5899 735.3366 544.0429 733.1012 544.8253 731.6482 545.943 729.7481 546.3901 728.4068 547.396 726.1714 548.402 725.1655 548.0667 725.389 547.2843 727.1773 545.2724 729.1892 544.0429 728.9657 543.7076 728.7421 542.9252 734.666 541.0251 737.5721 539.5721 739.0251 536.3307 740.3663 534.8777 741.037 533.5364 742.6018 530.5186 744.7254 528.3949 745.5078 527.0537 745.7314 525.0418 744.7254 526.0477 743.8312 526.9419 742.7135 527.0537 741.2605 525.8242 740.8134 524.0359 741.1487 521.8004 742.2664 518.7826 741.8194 518.5591 740.9252 518.4473 740.3663 518.2238 739.9193 518.0002 739.2486 517.3296 738.3545 516.7707 737.5721 515.653 737.0132 514.0882 736.7897 512.6352 735.6719 514.2 736.0073 515.8766 737.0132 517.3296 737.5721 518.5591 737.7956 519.565 738.1309 520.2356 738.2427 520.9063 738.0191 522.1358 737.5721 523.0299 735.6719 525.0418 732.3188 530.1833 732.0953 530.4068 730.4187 532.4187 727.9597 533.9835 722.5947 535.3248 722.0359 535.3248 721.3652 535.1012 721.0299 534.5424 721.0299 533.9835 720.8064 533.6482 720.2475 533.9835 719.8004 534.6541 719.8004 535.5483 719.5769 536.3307 717.1179 537.5602 716.8944 537.8955 716.0002 539.2367 715.6649 540.0191 715.5531 540.9133 715.6649 541.5839 716.0002 542.9252 716.3355 548.0667 716.5591 549.2961 717.1179 550.5256 719.1298 560.3615 719.6887 561.4792 720.3593 562.4851 720.9182 563.4911 723.8242 571.4268 726.2832 576.3448 724.8301 577.2389 723.4889 576.9036 721.5888 574.8917 718.9063 572.7681 715.5531 571.8739 714.3237 570.3091 714.1001 568.2972 714.1001 565.0559 714.1001 562.5969 712.8706 559.9144 711.3058 558.2378 708.6233 556.5613 706.0526 556.0024 703.7054 556.1142 701.9171 556.3377 699.6816 556.0024 699.2345 556.8966 698.2286 558.4614 695.9932 558.0143 694.3166 556.673 692.9754 555.3318 691.9694 553.6552 691.187 551.9787 690.2928 549.855 688.7281 548.7373 686.8279 548.7373 685.2631 547.6196 683.1395 546.5019 681.2394 546.2783 679.004 547.0607 675.7626 546.7254 673.6389 545.943 671.2917 544.9371 669.3916 543.8194 666.7091 541.9193 663.8031 540.0191 661.2323 538.4543 658.6616 537.8955 656.0909 538.6779 653.8554 538.4543 651.2847 536.666 650.8376 537.3366 651.2847 540.3545 650.7259 542.3663 648.9375 544.2664 648.0433 542.5899 647.1492 541.8075 645.6961 542.2546 644.4667 543.3723 643.4607 544.49 643.4607 545.7195 644.9138 546.7254 644.9138 547.2843 643.4607 547.396 642.0077 547.8431 641.4488 548.9608 642.5666 550.6374 642.0077 550.6374 640.89 550.0785 637.4251 550.0785 636.8662 549.7432 635.1897 547.2843 633.6249 545.943 632.1718 545.7195 631.0541 547.2843 630.7188 546.949 630.4953 546.8372 630.16 546.8372 629.8246 546.7254 630.8306 545.8312 631.3894 544.7135 631.2777 543.8194 630.0482 543.3723 625.5773 544.0429 626.0244 542.9252 626.248 541.9193 626.695 536.2189 625.4656 537.6719 624.4596 539.9074 623.3419 541.9193 621.5536 542.9252 621.1065 543.037 620.4359 543.3723 619.877 543.3723 619.3182 543.1487 618.0887 542.2546 614.8473 540.578 615.2944 542.9252 614.512 544.0429 608.5881 545.0488 607.8057 545.0488 607.3586 544.9371 606.9116 544.6018 606.4645 544.6018 605.235 544.6018 604.6761 544.6018 601.6583 543.484 600.3171 543.3723 599.4229 543.5958 597.411 544.7135 590.2576 545.943 589.6988 546.1666 589.1399 546.6136 588.134 547.6196 587.7987 547.8431 585.4515 548.1784 574.1626 544.9371 572.9331 544.0429 572.2625 544.1547 571.9272 544.0429 571.8154 543.7076 571.5919 542.5899 571.4801 542.2546 571.3683 541.6957 571.033 540.578 570.8095 540.0191 571.8154 539.125 572.1507 538.5661 572.2625 537.7837 570.5859 538.5661 569.1329 538.6779 567.6799 538.4543 565.1091 537.5602 564.3267 537.3366 563.6561 537.0013 561.5325 534.0953 559.9677 532.754 558.1793 533.4246 555.385 531.9716 550.6906 528.3949 550.5789 529.2891 550.8024 530.4068 550.9142 531.301 550.4671 531.7481 546.8904 531.6363 545.8845 531.1892 545.1021 530.6304 544.3197 529.7362 543.9844 528.5067 544.7668 527.389 545.8845 526.6066 546.7787 526.0477 548.0081 525.936 551.026 526.6066 555.385 525.8242 555.8321 525.4889 558.8499 522.6946 559.5206 522.5828 560.1912 522.5828 560.6383 522.3593 560.1912 521.3534 557.6205 517.8884 556.6145 517.4414 554.6026 517.6649 552.1437 517.2178 544.2079 513.9765 542.9784 513.6411 541.749 513.6411 540.8548 514.0882 539.9606 514.9824 539.6253 515.4295 539.4018 515.9883 539.4018 516.7707 539.4018 519.3415 538.1723 515.9883 537.7252 515.4295 536.9428 515.0942 530.3483 508.3879 529.4541 506.4878 531.2425 507.9408 532.6955 509.5056 533.5897 509.9527 543.4255 509.1703 545.3256 509.8409 548.567 511.741 548.7905 511.8528 549.3494 512.0763 554.1556 512.0763 558.9617 513.1941 562.3149 512.6352 563.4326 512.6352 569.58 514.0882 572.7096 515.9883 575.0568 516.5472 577.5157 516.3237 579.6394 515.4295 581.2042 513.7529 580.1982 512.1881 581.6513 510.1762 585.675 506.7113 586.681 506.0407 589.3635 505.7054 590.2576 505.1465 591.1518 504.1406 592.046 503.5817 592.8284 502.7993 593.499 501.3463 592.1578 502.0169 590.593 503.1347 589.1399 503.9171 587.7987 503.6935 580.1982 508.0526 576.0627 508.6114 572.2625 506.4878 571.4801 505.0348 571.1448 504.8112 570.4741 505.1465 569.58 506.2642 569.0211 506.4878 568.3505 506.5996 567.2328 506.9349 566.6739 507.0466 565.3327 508.7232 564.5503 507.9408 563.7679 504.923 562.8737 504.2524 559.4088 503.5817 558.4029 503.0229 557.6205 502.2405 556.7263 500.7875 555.9439 499.1109 555.7204 497.7696 555.4968 496.2048 554.938 494.9754 554.2673 493.8576 553.7085 492.4046 553.4849 488.9397 554.6026 486.4807 556.0557 484.0218 557.2851 481.1157 557.5087 479.5509 557.5087 478.3215 556.9498 477.4273 554.0438 476.9802 553.4849 476.3096 553.7085 475.1919 555.385 472.6211 555.8321 471.727 555.4968 471.1681 553.932 470.9446 551.473 471.3916 550.4671 471.2799 549.5729 470.3857 551.1377 466.9208 551.3613 464.9089 550.4671 462.6735 549.6847 462.0029 549.0141 461.7793 548.4552 461.444 548.0081 460.2145 547.7846 458.6497 547.7846 457.7556 547.5611 457.0849 546.7787 456.1908 543.4255 454.626 542.9784 453.62 543.202 451.9435 543.202 451.3846 542.5314 451.0493 542.3078 451.3846 541.5254 452.8376 541.4136 453.2847 541.749 454.2906 542.6431 455.1848 543.6491 455.9672 546.2198 456.5261 546.7787 457.532 546.7787 462.3382 547.0022 462.7853 548.3435 463.2323 548.7905 463.5677 549.0141 463.903 549.3494 464.1265 550.02 464.7971 549.5729 466.1384 548.7905 467.4796 548.3435 468.0385 548.0081 471.8387 549.7965 472.6211 552.2554 472.2858 554.1556 472.6211 552.479 474.5212 551.6966 475.7507 551.473 477.2037 551.9201 478.545 552.9261 478.8803 554.1556 478.4332 555.385 477.7626 555.6086 479.5509 555.0497 482.0099 554.0438 484.1336 552.8143 485.0277 551.3613 485.4748 550.2436 486.7043 549.4612 488.4926 549.5729 490.7281 551.6966 493.5223 551.9201 494.0812 551.473 497.7696 551.5848 499.1109 551.9201 499.7815 551.9201 500.3404 551.473 501.3463 551.026 501.9052 549.7965 502.7993 549.1259 503.0229 546.6669 503.5817 544.2079 503.2464 538.7311 501.1228 535.378 501.3463 534.3721 501.9052 533.925 503.0229 533.3661 504.0288 532.1366 504.2524 531.6895 504.0288 530.9072 503.2464 530.3483 503.0229 529.2306 503.1347 528.56 503.1347 528.1129 502.7993 527.8893 501.6816 528.4482 500.2286 531.5778 494.9754 532.3602 493.187 532.3602 492.4046 533.0308 491.8458 535.6015 487.9338 534.9309 486.8161 534.4838 487.3749 534.0367 488.4926 533.7014 489.4986 533.2543 489.9457 532.1366 490.3927 531.6895 490.7281 531.3542 491.0634 530.3483 492.8517 530.2365 493.0752 530.013 493.2988 529.4541 493.5223 528.6717 493.0752 527.8893 492.4046 527.1069 490.3927 526.4363 489.3868 525.6539 488.9397 526.2128 491.0634 526.3245 491.6222 526.4363 492.7399 526.7716 493.2988 527.3305 493.5223 529.007 494.9754 529.2306 495.5342 528.8953 496.6519 527.7776 498.3285 527.6658 498.552 526.8834 499.3344 524.8715 502.3523 524.2009 503.0229 523.0832 503.3582 520.6242 504.6994 519.8418 505.3701 519.0594 504.923 517.3828 504.6994 516.7122 504.2524 516.2651 504.8112 515.2592 504.1406 511.3472 503.0229 509.7824 503.1347 506.8763 504.0288 503.8585 504.3641 501.5113 505.1465 500.2818 505.3701 499.723 505.7054 498.4935 506.8231 497.9347 506.7113 497.3758 506.4878 496.5934 506.7113 493.2403 509.0585 492.5696 509.2821 490.2224 508.7232 489.6636 508.7232 488.993 509.2821 487.3164 511.6293 486.9811 512.4117 487.0928 513.4176 488.0988 515.4295 488.4341 517.1061 488.6576 517.1061 489.1047 517.5531 489.44 518.0002 489.1047 518.2238 488.993 518.4473 488.7694 518.8944 488.5459 519.3415 488.0988 521.8004 487.987 522.1358 485.6398 525.2653 484.6339 526.0477 481.6161 525.8242 481.169 526.3831 481.3925 526.8301 482.7338 527.7243 483.0691 528.3949 483.0691 529.2891 482.8455 530.0715 481.2807 533.3129 477.257 538.9014 476.0275 541.2486 475.2451 542.3663 474.3509 542.9252 473.9039 543.5958 472.7861 546.7254 472.2273 547.8431 465.2975 554.5494 459.1501 562.9322 455.9087 566.0618 452.2202 568.9679 452.332 567.9619 451.9967 563.3793 451.5496 563.2675 451.1025 563.8264 450.6554 564.497 450.3201 565.503 450.2084 567.6266 450.0966 568.1855 449.873 568.7443 449.873 569.0796 449.7613 569.415 449.3142 569.5267 449.0906 569.3032 448.8671 569.0796 448.5318 568.9679 448.3083 569.3032 447.8612 569.5267 445.1787 567.4031 443.8374 566.8442 442.6079 567.5149 442.1608 569.0796 442.0491 571.0915 441.7138 572.8799 441.1549 571.9857 440.596 571.2033 440.596 570.6444 440.9314 569.7503 440.7078 569.3032 440.2607 569.5267 439.8136 570.6444 439.7019 571.9857 440.0372 573.1034 440.4843 573.8858 440.9314 574.5564 440.596 576.7919 440.2607 576.0095 439.8136 575.4506 438.6959 574.5564 438.4724 574.2211 438.5842 573.8858 438.5842 573.5505 438.0253 573.4387 437.69 573.5505 437.5782 573.9976 437.4664 574.3329 437.2429 574.5564 436.0134 574.5564 434.4486 574.8917 433.2191 575.6741 432.8838 577.2389 433.3309 578.3567 434.0015 578.9155 435.5663 579.4744 436.3487 580.3685 436.7958 580.9274 436.4605 581.1509 435.5663 581.598 434.6722 582.3804 433.6662 582.8275 432.5485 582.2686 432.325 582.8275 432.2132 583.051 432.2132 583.2746 432.5485 583.9452 431.6543 584.3923 430.0895 584.9512 429.4189 585.6218 429.4189 583.4981 428.8601 581.3745 427.7424 579.5861 426.5129 578.9155 426.6246 578.3567 426.2893 574.5564 426.7364 573.2152 427.0717 572.6563 427.1835 572.0975 426.7364 571.2033 426.4011 570.7562 426.1776 570.6444 426.0658 570.5327 424.8363 569.5267 424.501 569.0796 424.2774 568.409 424.0539 568.5208 423.7186 568.8561 423.6068 569.5267 423.8304 570.0856 424.6128 571.0915 424.7245 571.5386 424.501 572.0975 423.495 573.5505 423.1597 574.5564 423.1597 575.7859 423.2715 576.4565 423.6068 576.9036 423.9421 577.9096 422.042 579.3626 421.7067 582.4922 421.8185 586.4042 421.2596 590.0926 422.7127 590.7633 423.495 591.0986 424.6128 591.0986 425.6187 590.875 426.4011 590.3162 427.8541 588.8631 427.1835 589.7573 425.2834 592.7751 424.6128 593.334 423.9421 593.6693 423.6068 594.4517 423.3833 595.2341 423.048 595.5694 422.1538 595.9047 422.1538 596.5754 423.048 598.4755 423.495 599.0343 424.1657 599.4814 424.7245 599.3696 424.9481 598.699 424.8363 597.6931 425.0598 596.9107 425.954 596.6871 425.954 598.4755 426.0658 598.8108 426.4011 598.8108 426.7364 598.5872 426.7364 598.2519 427.1835 598.3637 427.6306 598.2519 427.9659 598.5872 428.1894 599.9285 428.6365 598.699 428.8601 597.3578 429.3072 596.7989 430.2013 597.6931 430.5366 599.0343 430.6484 600.5991 430.2013 601.7168 429.0836 601.6051 429.866 602.4992 430.3131 603.9523 430.5366 605.7406 430.6484 609.2055 430.5366 609.8761 430.4249 610.5468 429.866 611.6645 429.7542 612.3351 429.1954 614.2352 429.0836 615.0176 429.0836 615.6882 429.1954 615.8 429.0836 615.9118 427.9659 617.0295 427.0717 617.4766 426.0658 617.8119 425.1716 617.5883 425.5069 617.0295 425.6187 616.4706 425.5069 615.8 425.1716 615.3529 425.954 613.0057 425.6187 609.8761 424.7245 607.1936 423.3833 605.9641 422.8244 605.6288 420.1419 603.2816 412.3179 600.3756 407.9589 599.9285 407.4 599.8167 406.8411 599.4814 406.1705 599.3696 405.6117 599.705 405.3881 600.152 404.941 600.4873 404.3822 600.8227 403.9351 601.0462 402.7056 601.0462 401.8114 600.9344 400.9173 600.9344 399.6878 601.6051 398.7936 602.3875 398.3465 602.9463 398.123 603.5052 397.8994 603.7287 396.4464 603.8405 395.9993 604.064 395.2169 604.8464 394.211 605.2935 391.9756 605.9641 389.0695 608.4231 388.2871 608.7584 387.0576 608.8702 386.4988 608.982 386.1635 609.3173 385.8282 609.9879 385.6046 611.5527 385.3811 611.9998 384.0398 612.5586 382.9221 611.888 382.0279 610.8821 381.3573 610.3232 380.0161 610.0997 378.563 609.0937 377.6689 608.7584 376.2158 609.0937 376.1041 610.3232 376.2158 611.4409 374.5393 612.3351 374.4275 612.8939 374.651 613.6763 374.8746 614.2352 375.3217 614.5705 376.8865 615.3529 376.2158 616.0235 375.5452 616.3589 373.7569 616.4706 371.6332 616.6942 364.1446 615.0176 359.5619 612.5586 354.5322 611.2174 352.5204 610.0997 351.6262 609.8761 350.2849 608.982 349.1672 606.9701 347.4906 602.7228 347.826 601.0462 346.7083 599.5932 345.0317 598.699 343.8022 598.8108 343.6904 598.8108 342.908 597.9166 343.0198 597.3578 343.4669 596.3518 343.914 595.3459 346.9318 593.1105 350.9556 593.334 355.2029 594.4517 358.7795 594.6752 360.009 594.1164 360.2326 593.1105 359.8972 590.4279 359.7855 590.3162 359.7855 590.0926 360.009 589.5338 360.1208 589.422 360.4561 589.0867 361.9091 588.4161 361.1267 587.2983 360.9032 586.1806 360.7914 585.0629 360.4561 583.9452 359.7855 583.1628 358.8913 582.7157 358.3325 582.0451 358.7795 581.1509 360.1208 579.2508 360.6796 578.5802 361.6856 577.9096 363.3622 577.3507 363.6975 576.6801 363.4739 575.7859 363.2504 575.2271 364.1446 573.6623 367.9448 573.327 369.3978 572.4328 369.6213 571.6504 369.5096 570.868 369.3978 570.0856 369.3978 569.6385 369.8449 569.3032 371.5215 568.8561 372.5274 568.2972 373.3098 567.6266 373.6451 566.5089 373.7569 564.9441 373.5333 563.6029 372.7509 560.6968 372.7509 559.3556 373.4216 558.2378 374.3157 557.5672 384.1516 554.9965 385.6046 554.3259 385.7164 552.7611 384.7105 549.1844 384.5987 547.1725 385.0458 545.8312 386.9459 543.7076 388.1754 541.4722 388.846 539.5721 388.6224 537.7837 387.1694 536.4425 385.2693 534.6541 384.2634 533.3129 384.2634 532.1952 384.5987 531.0774 384.934 529.6244 384.934 528.2832 383.9281 524.4829 383.481 521.4651 383.8163 519.1179 384.934 517.3296 389.1813 514.5353 391.1932 513.7529 392.1991 513.3058 397.2288 510.5116 398.3465 510.5116 398.4583 510.5116 399.3525 511.741 399.6878 513.4176 399.6878 520.3474 399.576 521.3534 399.2407 522.1358 398.7936 522.9182 398.3465 523.7006 398.3465 524.4829 399.3525 525.3771 400.582 524.5947 402.5938 522.2475 403.3762 522.024 403.7116 522.1358 404.0469 522.024 404.3822 521.018 404.3822 520.2356 404.1586 518.5591 404.2704 517.6649 405.2763 515.9883 406.0587 516.2119 407.4 519.0062 408.4059 520.571 409.1883 520.571 411.6473 516.7707 412.6532 515.5413 413.771 514.9824 413.771 514.8706 415.1122 515.0942 415.4475 515.653 415.5593 516.2119 415.4475 516.7707 415.1122 517.3296 414.7769 518.0002 414.6651 518.5591 414.7769 519.2297 415.1122 519.7886 416.0064 520.1239 417.7947 520.4592 418.5771 520.7945 419.3595 521.4651 420.1419 523.2535 420.9243 524.3712 421.8185 524.8183 422.7127 524.93 423.6068 524.5947 424.3892 523.8123 424.8363 522.4711 424.501 520.4592 424.9481 520.0121 426.5129 520.0121 427.6306 519.565 428.3012 518.3355 428.3012 515.9883 428.9718 517.3296 431.9897 520.1239 433.1074 522.024 433.4427 522.6946 433.5545 523.3652 433.4427 524.93 433.5545 525.4889 434.6722 526.8301 435.7899 526.6066 437.9135 524.8183 438.9195 524.1476 439.8136 524.0359 446.5199 524.3712 448.9789 523.9241 450.4319 522.4711 451.7732 520.0121 451.1025 519.4532 450.0966 519.3415 449.3142 519.4532 448.7553 520.0121 447.7494 518.7826 445.1787 516.7707 445.6257 516.1001 444.9551 514.6471 444.508 514.0882 444.0609 513.7529 443.8374 513.7529 443.055 514.2 442.7197 514.3118 442.4961 514.2 442.2726 513.4176 442.1608 513.1941 439.7019 512.0763 438.9195 511.1822 438.6959 509.2821 439.7019 509.1703 440.9314 508.9468 441.602 507.1584 441.3784 506.376 440.7078 504.6994 440.4843 503.9171 440.596 502.7993 440.7078 502.0169 441.0431 501.3463 441.2667 500.3404 441.7138 495.1989 441.602 493.7459 441.3784 493.0752 440.8196 491.8458 440.596 491.2869 440.4843 490.5045 440.4843 488.7162 440.3725 488.2691 439.7019 487.822 439.143 488.1573 438.6959 488.4926 438.1371 488.3809 437.9135 487.9338 437.4664 486.4807 437.2429 485.9219 435.5663 484.5806 434.0015 484.3571 432.325 484.4689 430.5366 484.2453 429.5307 483.4629 428.1894 481.3393 427.2953 480.4451 426.4011 480.1098 424.6128 479.8862 423.6068 479.5509 423.1597 479.2156 422.2656 478.0979 421.7067 477.8744 420.3655 477.9861 420.0301 477.8744 419.4713 476.9802 419.5831 475.9743 419.5831 475.7507 419.9184 474.633 420.2537 471.5034 420.9243 470.6092 421.5949 469.8268 422.042 468.7091 421.9303 467.4796 421.5949 466.3619 420.9243 465.4678 420.1419 464.9089 419.136 465.0207 418.4653 466.0266 417.9065 467.0326 417.3476 467.5914 416.9006 467.0326 415.1122 463.7912 415.0004 463.5677 415.0004 463.3441 415.0004 463.0088 415.1122 462.7853 416.677 462.6735 417.9065 462.3382 418.6889 461.3322 419.0242 459.3204 418.4653 454.9613 418.6889 453.1729 420.0301 452.3905 420.7008 450.9375 420.7008 449.0374 420.1419 447.1373 419.3595 445.6843 418.4653 444.7901 417.3476 444.4548 416.2299 444.343 415.1122 444.4548 414.5534 445.796 414.3298 447.0255 413.8827 448.255 412.8768 449.1492 411.9826 449.4845 411.0884 449.3727 410.3061 448.9256 409.5237 448.255 408.9648 447.2491 408.7413 447.0255 408.5177 445.796 408.5177 444.5666 408.2942 443.2253 407.5118 442.2194 406.6176 441.7723 405.7234 441.6605 404.941 441.1017 404.4939 440.3193 404.2704 439.3133 403.9351 438.4191 402.1468 437.1897 401.1408 435.5131 400.3584 435.066 399.3525 435.5131 398.9054 436.4073 398.2348 436.8543 397.2288 436.0719 396.7817 435.1778 395.8876 432.607 395.7758 432.3835 395.4405 431.6011 395.3287 431.6011 394.6581 428.248 395.3287 426.0125 396.7817 424.1124 398.2348 421.5417 398.9054 418.4121 398.7936 415.3943 399.1289 412.8235 400.8055 410.6999 401.4761 409.5822 401.2526 408.688 400.582 408.0174 398.5701 407.3468 398.0112 406.7879 398.0112 405.8937 398.5701 404.3289 399.2407 403.4348 400.2466 402.3171 401.1408 401.0876 401.3644 399.9699 400.8055 399.5228 398.5701 398.8521 397.7877 398.2933 397.3406 397.0638 396.7817 394.1578 396.3347 392.8165 395.664 391.8106 394.9934 391.1399 394.211 390.8046 393.2051 390.8046 391.4167 391.587 388.9578 394.9402 386.9459 395.2755 385.2693 394.6048 384.3751 393.9342 383.2574 393.04 381.3573 391.0282 380.2396 389.0163 379.9043 388.4574 379.0101 387.5633 378.563 387.0044 378.4513 386.4455 378.3395 384.3219 377.4453 382.0865 377.2218 381.5276 377.2218 380.9688 377.11 380.2981 376.6629 379.6275 375.0981 378.6216 373.0862 378.2862 369.1743 378.1745 364.0328 376.0508 362.1327 375.9391 360.9032 376.4979 359.8972 379.6275 359.7855 379.851 359.5619 381.3041 359.4502 382.7571 359.2266 383.5395 358.6678 383.6513 357.5501 382.7571 356.8794 382.0865 355.3146 378.7333 356.2088 377.7274 356.3206 376.4979 355.7617 375.2684 354.8675 374.7096 353.5263 374.8213 352.8557 375.8273 352.185 377.1685 351.4026 378.1745 350.1732 378.398 349.5025 377.7274 349.5025 376.4979 349.8378 375.2684 350.732 374.2625 351.5144 373.7036 352.185 372.9212 352.5204 371.2447 352.4086 369.5681 351.8497 368.8975 350.8438 368.7857 348.273 369.121 347.2671 369.7916 346.3729 370.574 345.2552 371.2447 343.914 371.4682 342.908 371.2447 342.3492 370.2387 342.1256 368.6739 341.6785 367.2209 340.7844 367.3327 338.996 368.8975 338.2136 369.121 336.8724 369.0092 336.09 368.4504 337.2077 365.0972 336.8724 363.5325 335.9782 362.5265 334.8605 361.9677 331.8427 361.5206 329.8308 361.297 327.4836 360.4029 326.2541 358.391 325.807 358.0557 325.2482 357.0497 324.0187 355.3732 323.2363 354.479 319.5479 351.6847 317.6477 350.9023 310.6062 350.9023 309.4884 350.3435 309.3767 348.108 308.1472 347.9963 306.6942 348.8904 306.0235 349.114 303.6763 349.114 302.4469 350.9023 298.982 353.8084 298.0878 354.2554 297.3054 354.0319 295.6288 352.4671 294.6229 352.2436 292.4992 353.2495 289.4814 357.0497 289.1461 357.4968 287.0224 358.6145 285.2341 358.5028 279.1985 356.1556 277.969 355.4849 277.4101 355.2614 276.7395 355.4849 276.7395 356.1556 276.8513 356.8262 276.8513 357.385 276.8513 357.7204 277.0748 358.1674 277.1866 358.6145 276.8513 358.8381 276.1806 358.7263 275.51 358.7263 275.1747 358.5028 274.7276 358.5028 274.2805 359.0616 272.0451 359.3969 270.145 358.1674 268.3567 356.6026 266.4565 355.8202 265.7859 356.0438 265.6741 356.4909 265.4506 357.1615 265.0035 357.6086 264.5564 357.6086 263.6623 357.2733 263.327 357.2733 262.7681 358.1674 262.7681 358.9498 263.1034 359.9558 263.4387 361.5206 263.4387 363.1971 263.2152 364.2031 262.5446 364.8737 261.4268 364.8737 260.4209 364.4266 259.7503 363.5325 259.0796 362.5265 258.2972 361.6323 257.2913 361.1853 256.956 361.8559 256.6207 362.9736 254.8323 364.2031 254.1617 365.209 253.8264 366.5503 253.7146 367.2209 252.0381 368.0033 244.8847 369.6799 243.9905 369.9034 241.308 370.0152 240.4139 370.2387 238.5138 371.1329 237.5078 371.4682 236.5019 371.3564 236.0548 371.2447 235.6077 374.0389 235.7195 375.9391 235.0488 378.6216 234.1547 381.1923 233.3723 382.9806 232.5899 383.763 231.1369 384.9925 230.4662 385.8867 229.2367 388.7927 228.6779 389.6869 225.9954 390.9164 224.6541 390.9164 220.6304 390.9164 216.9419 392.0341 214.2594 391.8106 213.3652 391.9223 211.6887 392.7047 208.6708 393.04 204.9824 394.6048 177.2631 397.6227 174.916 399.2992 169.4392 408.3527 167.092 410.6999 163.5153 412.2647 159.268 412.9353 158.5974 413.1589 156.6972 413.4942 155.6913 412.7118 154.3501 410.6999 152.4499 407.235 151.7793 406.229 150.8851 405.5584 146.4143 403.7701 144.5142 402.5406 143.5083 401.4229 143.1729 400.3052 143.1729 399.2992 142.8376 397.958 141.9435 396.8403 140.4904 395.6108 138.3668 394.3813 137.8079 394.046 136.802 393.8224 133.5606 393.8224 130.3193 393.04 129.3133 393.1518 127.9721 393.8224 125.7366 395.7226 122.9424 395.8343 119.2539 397.7344 118.0244 397.7344 114.6713 396.3932 114.5595 396.505 113.5536 396.2814 111.5417 394.2695 110.424 393.8224 107.6297 393.04 106.7355 392.3694 104.9472 392.2576 99.2469 394.6048 98.0174 394.6048 97.6821 393.3754 94.776 390.5811 93.7701 390.134 89.8581 390.3575 88.5168 390.134 86.2814 389.3516 82.593 388.9045 81.587 388.5692 79.4634 389.0163 78.7927 389.1281 78.2339 389.6869 78.0103 390.2458 77.675 390.6928 77.3397 391.1399 77.2279 391.2517 77.0044 391.4752 75.7749 391.4752 72.1982 389.6869 72.0865 389.6869 71.9747 389.5751 71.8629 389.6869 71.4158 389.7987 70.9688 389.9105 70.5217 389.7987 70.0746 389.6869 68.8451 388.1221 66.1626 385.8867 63.8154 383.0924 62.9212 382.4218 58.8975 380.9688 57.668 380.857 56.5503 381.4158 55.4326 383.0924 54.0913 387.0044 53.4207 388.4574 50.9617 390.3575 50.0675 390.4693 49.1734 390.2458 48.2792 389.6869 47.385 389.1281 46.3791 388.5692 45.5967 388.681 45.0378 389.6869 45.5967 391.3635 45.0378 392.4812 44.0319 393.2636 42.9142 393.5989 40.9023 391.9223 40.3435 390.9164 41.3494 389.6869 41.4612 388.3457 41.7965 387.5633 42.02 386.6691 41.6847 385.1043 41.0141 383.9866 40.3435 382.9806 38.6669 381.4158 36.655 380.2981 36.4315 379.851 35.5373 379.2922 34.5314 379.5157 33.5254 380.1864 32.5195 380.5217 28.4957 380.5217 27.7133 380.9688 27.6015 380.857 27.2662 380.5217 26.3721 378.5098 25.4779 375.9391 24.8073 374.1507 20.56 368.5622 20.3364 368.4504 20.1129 368.4504 19.8893 368.4504 18.7716 369.0092 17.9892 369.121 17.095 368.8975 15.9773 368.4504 15.7538 368.4504 15.4185 368.4504 15.1949 368.5622 14.7479 368.8975 14.4125 369.0092 13.9655 368.8975 13.6301 368.5622 10.8359 364.3149 10.277 362.5265 10.1652 361.4088 10.277 360.4029 10.277 359.6205 9.8299 358.8381 9.4946 358.8381 7.9298 358.8381 7.9298 357.4968 8.824 354.9261 6.8121 353.9201 4.8002 353.6966 3.0119 354.479 2.453 355.0378 2.3413 355.0378 2.2295 355.0378 1 354.8143 1 348.7787 1.6706 347.3256 1.7824 345.9844 1.1118 342.5195 1.3353 340.8429 2.1177 339.5017 5.8062 336.4838 6.1415 335.8132 6.7003 334.4719 7.1474 333.9131 7.818 333.3542 9.3828 332.9072 10.0535 332.4601 10.9476 331.2306 11.6183 329.6658 11.9536 327.8774 11.9536 326.0891 12.0653 324.8596 12.5124 324.3008 13.0713 323.9655 13.5184 323.1831 13.9655 322.1771 14.0772 321.6183 13.9655 318.7122 13.8537 318.0416 13.8537 317.371 14.3008 316.365 14.4125 316.1415 14.7479 315.5826 16.0891 314.4649 16.648 313.6825 16.7597 313.1237 16.7597 312.0059 16.8715 311.5589 17.5421 310.1058 18.7716 306.4174 19.7776 305.7468 21.9012 305.4114 22.7954 304.629 22.7954 303.176 23.0189 301.1641 23.466 299.264 23.9131 297.811 25.0308 296.6933 26.1485 297.0286 28.2722 299.3758 29.7252 300.27 30.9547 300.4935 32.0724 300.3817 34.196 300.4935 35.4255 300.1582 35.9844 300.1582 36.655 300.7171 37.6609 302.1701 38.2198 302.3936 39.3375 302.9525 40.567 304.0702 41.6847 304.5173 42.3553 303.176 42.2436 302.8407 42.1318 302.7289 41.2376 301.1641 41.0141 300.27 41.0141 299.1523 41.5729 297.4757 41.5729 296.6933 40.9023 295.9109 38.3316 294.4579 37.3256 293.6755 35.6491 291.44 33.8607 290.2106 34.0843 290.0988 33.1901 289.5399 32.5195 290.4341 32.1842 290.6576 31.8488 290.0988 32.1842 289.0928 33.0783 287.1927 33.8607 284.1749 34.8667 281.4924 35.0902 280.2629 34.3078 272.3272 34.0843 270.9859 33.749 270.3153 32.5195 269.0858 31.7371 267.8563 31.6253 267.4092 31.4018 266.4033 31.0664 262.7149 30.6194 261.4854 29.6134 258.3558 30.9547 255.0026 35.3138 249.1905 36.2079 246.3963 36.655 245.7256 37.3256 245.1668 38.4433 244.9432 39.114 244.6079 40.0081 243.7138 43.473 237.3428 44.0319 236.6722 44.5908 236.3369 45.5967 236.0015 46.0438 235.5545 46.2673 234.8838 46.8262 233.0955 47.0497 232.4249 49.3969 229.9659 55.5443 221.0242 57.7798 218.4535 59.9034 216.8887 61.58 214.2062 74.4337 200.2348 77.0044 198.2229 80.0222 195.8757 81.6988 194.5344 86.1696 189.7283 86.952 188.6106 86.952 188.4988 87.6227 186.1516 88.2933 184.8103 89.0757 184.0279 89.9699 183.5809 91.9817 182.9102 102.1529 182.7985 105.1707 181.569 106.4002 178.6629 106.6238 177.657 106.7355 176.5393 106.6238 174.8627 106.8473 173.745 110.424 171.8449 111.5417 170.7272 112.2123 169.7212 112.2123 169.4977 111.9888 169.2741 111.5417 168.1564 110.9828 163.9091 112.3241 161.6737 112.3241 161.5619 110.8711 158.097 110.424 156.3087 110.7593 154.185 109.1945 153.8497 107.7415 152.8438 106.9591 151.5025 107.6297 149.9377 107.6297 149.3789 106.0649 149.2671 104.7237 148.5965 103.9413 147.4788 103.8295 145.8022 104.5001 144.2374 105.8414 143.2315 107.2944 143.0079 108.8592 143.9021 109.9769 143.3432 111.877 143.3432 113.5536 143.0079 114.2242 141.4431 113.5536 140.3254 108.8592 137.7547 105.059 134.178 104.1648 132.8367 103.8295 131.6073 103.8295 130.8249 103.6059 130.0425 103.0471 129.1483 102.3765 128.7012 101.5941 128.3659 101.2587 128.0306 101.4823 127.2482 101.4823 126.6893 100.8117 123.0009 100.2528 121.7714 98.7998 119.536 98.0174 117.7476 98.2409 116.8535 99.1351 116.4064 98.4645 115.2887 95.782 112.6062 92.9877 110.7061 91.6464 109.1413 88.5168 102.3232 87.6227 101.6526 86.505 101.6526 85.6108 101.2055 85.2755 99.3054 85.6108 98.0759 86.3932 96.7347 87.3991 95.7287 88.4051 95.2816 88.0697 94.0521 88.0697 93.158 88.5168 92.4873 89.1875 92.2638 88.7404 91.1461 86.3932 87.793 86.2814 87.2341 87.1756 85.334 86.3932 84.7751 85.3872 84.4398 84.4931 83.881 84.1578 82.5397 84.046 81.9809 84.4931 82.4279 85.0519 82.0926 85.2755 80.7514 85.1637 79.8572 83.5989 75.4981 83.2636 74.8275 83.3754 74.0451 84.046 72.8156 84.6048 72.2568 85.2755 71.9215 90.7523 70.4684 92.0935 70.4684 96.1173 71.6979 97.4585 71.8097 99.6939 72.7039 101.2587 74.604 102.9353 76.1688 105.1707 75.8334 113.5536 68.1212 119.9245 63.7622 121.6011 61.5267 122.8306 55.6029 123.7248 53.8145 125.8484 50.7967 127.0779 49.4554 128.1956 49.0084 142.2788 47.8906 145.7437 48.7848 146.8614 48.7848 162.7329 46.2141 167.7626 43.5316 170.3333 42.7492 172.9041 42.6374 182.4046 45.2081 193.47 45.4317 201.0704 45.5435 205.8766 44.5375 217.8361 46.8847 221.7481 46.7729 223.4246 47.1083 227.1131 50.4614 228.7897 51.132 241.8669 51.6909 242.5375 52.0262 242.6493 52.6968 242.4257 53.4792 242.5375 54.3734 243.2081 55.3793 243.9905 55.8264 256.3971 56.1617 267.1272 60.9679 270.8156 61.5267 276.516 59.5149 281.5457 59.7384 283.7811 60.2972 285.3459 61.1914 285.6812 62.5327 285.5694 64.5446 285.4576 66.8917 285.9047 68.6801 286.7989 69.4625 287.9166 69.686 289.2579 69.4625 290.9344 69.9096 290.7109 71.4744 289.9285 73.3745 289.5932 74.9393 290.3756 75.6099 291.6051 75.4981 293.8405 74.8275 297.1936 75.3864 298.3113 75.2746 299.5408 74.604 301.1056 72.9274 302.2233 72.3685 304.1234 72.3685 310.2708 74.9393 313.4004 74.9393 314.2946 75.4981 315.077 77.3982 314.6299 79.6337 312.7298 84.2163 312.8416 84.4398 313.0651 84.9987 313.8475 85.7811 314.7417 86.5635 315.5241 86.8988 316.4183 86.6752 317.0889 86.1164 319.6596 82.5397 319.9949 81.9809 320.2185 80.7514 320.2185 79.8572 319.9949 78.8513 319.9949 77.7336 320.3303 75.8334 321.1127 74.3804 322.1186 73.3745 323.4598 73.1509 324.6893 73.8216 328.0425 77.51 329.1602 78.0689 330.1661 78.2924 335.6429 78.4042 336.7606 77.9571 338.1019 76.7276 339.8902 73.1509 341.0079 71.4744 342.2374 70.3567 343.4669 69.7978 344.6964 69.9096 345.4788 70.8037 345.7023 71.6979 345.7023 72.4803 345.7023 73.3745 346.1494 74.3804 346.82 75.051 348.4966 76.057 349.1672 76.8394 349.5025 77.7336 350.1732 80.3043 350.5085 80.9749 351.1791 81.3102 351.9615 80.8631 353.4145 79.5219 356.2088 77.6218 357.6618 77.0629 359.2266 77.0629 364.2563 78.1806 365.7094 78.7395 366.1564 79.969 366.38 81.7573 367.2741 86.8988 367.6095 88.1283 368.1683 89.1342 369.0625 89.5813 369.8449 89.1342 370.6273 88.6871 371.2979 88.7989 371.745 89.9166 372.1921 91.5932 372.7509 92.4873 373.7569 91.3696 373.9804 90.0284 373.8686 86.5635 374.0922 84.9987 375.2099 82.5397 376.7747 80.6396 378.563 79.1866 380.3514 78.2924 382.0279 77.8453 385.4928 77.8453 386.9459 77.2865 388.0636 76.057 389.4048 73.2627 390.5226 72.145 391.6403 71.6979 392.758 71.6979 394.9934 72.2568 396.3347 73.0392 397.1171 74.1569 398.2348 77.51 400.1349 80.4161 400.8055 81.8691 401.029 84.2163 400.4702 86.5635 400.9173 87.5694 401.8114 88.24 402.9292 89.6931 403.5998 91.3696 404.0469 93.3815 404.7175 94.9463 406.0587 95.7287 407.1765 95.2816 407.9589 94.7228 409.4119 93.3815 410.7531 92.9344 413.2121 93.9404 414.3298 93.9404 415.1122 92.4873 416.0064 90.2519 416.5652 89.246 417.2359 88.7989 418.8007 88.6871 420.0301 88.1283 420.9243 87.1223 421.7067 85.8928 422.8244 84.8869 423.9421 84.4398 425.2834 84.2163 426.5129 84.3281 427.5188 84.9987 428.413 86.6752 428.8601 88.0165 429.6425 89.0224 434.7839 89.9166 435.7899 89.6931 436.3487 89.0224 437.2429 87.2341 438.0253 86.787 438.5842 86.787 439.4783 87.4576 440.149 87.3459 443.6139 85.5575 444.8433 85.2222 452.7791 84.9987 454.3439 85.4458 456.0205 86.5635 458.0323 89.4695 458.9265 90.3637 461.7208 91.705 462.3914 92.4873 462.7267 93.0462 462.9503 93.6051 462.9503 94.3875 462.9503 95.2816 462.9503 96.064 462.3914 97.8524 462.2796 97.9641 462.7267 98.9701 464.4033 101.2055 465.1857 101.8761 466.0799 102.2114 467.7564 102.2114 468.5388 102.435 469.3212 103.2174 470.5507 105.1175 471.4449 105.341 472.2273 105.2293 473.0097 105.4528 473.7921 105.8999 474.3509 106.6823 474.798 107.4647 475.4686 107.3529 475.6922 106.7941 475.804 104.5586 475.9157 104.4469 476.9217 102.6585 477.0334 101.3173 478.8218 100.0878 480.3866 98.4112 480.0513 95.8405 480.8337 95.5052 480.7219 95.0581 480.2748 94.4992 480.0513 94.0521 479.4924 91.4814 479.2689 90.9226 478.5982 90.3637 477.9276 90.3637 477.4805 90.1402 477.257 89.0224 477.4805 87.9047 477.8158 87.3459 478.4865 87.1223 479.2689 87.2341 479.2689 86.5635 478.5982 86.3399 478.0394 85.8928 477.5923 85.2222 477.257 84.1045 477.5923 83.4339 477.3688 82.7633 476.8099 82.0926 476.1393 81.6455 476.5864 81.1985 476.9217 80.7514 477.257 79.7454 476.3628 79.2983 474.4627 78.7395 473.9039 77.8453 473.9039 77.2865 474.1274 77.0629 474.3509 76.9512 474.5745 76.7276 475.0216 76.6158 475.0216 76.057 474.5745 75.8334 473.4568 74.8275 473.4568 74.1569 475.0216 72.7039 475.804 72.3685 475.5804 71.4744 475.3569 71.1391 475.6922 70.9155 476.1393 70.2449 476.5864 69.7978 476.251 68.5683 476.8099 66.6682 476.5864 65.4387 477.257 65.2152 479.0453 65.2152 479.6042 64.8799 479.9395 63.9857 480.0513 62.868 480.163 61.862 480.8337 61.1914 480.8337 60.409 480.3866 60.409 479.2689 59.8502 479.9395 59.0678 481.169 58.1736 482.1749 57.1677 482.1749 55.7146 481.7278 54.9322 481.7278 54.5969 481.9514 54.2616 482.2867 53.591 483.5162 52.0262 483.7397 51.6909 483.9633 51.4673 484.2986 50.7967 484.6339 50.2378 485.7516 49.5672 485.9751 48.7848 485.9751 48.0024 486.1987 47.4436 486.6458 47.22 488.3223 47.4436 488.7694 47.1083 489.3283 46.5494 490.1107 45.5435 490.1107 44.8728 489.7754 44.5375 489.6636 43.9787 489.6636 43.6433 491.2284 42.9727 492.0108 42.5256 492.7932 41.9668 493.352 41.2961 493.9109 40.5138 494.0227 40.1784 493.9109 39.7314 494.0227 39.1725 494.4697 38.6136 494.9168 38.1666 495.2521 38.0548 495.5875 38.1666 496.0345 38.7254 497.4876 38.6136 497.9347 37.3842 497.3758 36.2664 495.811 35.9311 495.9228 35.484 496.0345 35.037 496.2581 34.5899 496.4816 34.1428 496.1463 32.578 497.0405 31.6838 498.4935 31.2367 506.2057 30.7897 508.3294 31.0132 509.7824 31.7956 512.3531 34.031 513.6944 34.5899 515.0356 34.031 515.9298 32.4662 516.824 30.5661 517.9417 29.1131 522.3008 27.3248 527.554 27.213 537.3899 29.2249 543.8726 28.8895ZM439.8136 579.4744L448.6436 571.2033 451.5496 569.6385 439.2548 581.3745 433.5545 585.6218 429.1954 587.4101 432.1014 585.8453 433.2191 584.9512 433.6662 584.1688 434.0015 583.4981 434.6722 583.1628 435.5663 583.051 436.3487 582.8275 437.2429 582.0451 438.8077 580.2568 439.8136 579.4744ZM612.8354 550.9727L613.5061 551.5316 616.0768 551.308 616.7474 552.314 615.7415 553.4317 592.046 549.5197 592.4931 549.0726 592.7166 549.0726 593.1637 549.5197 601.323 550.6374 605.1232 549.855 606.7998 549.9668 608.5881 551.308 610.9353 550.1903 612.2766 550.0785 612.8354 550.9727ZM553.7085 537.7837L561.0854 539.5721 565.7798 541.6957 566.4504 542.2546 565.2209 542.031 562.8737 540.9133 542.3078 536.4425 533.4779 533.0893 531.6895 531.4128 530.2365 528.9538 529.6777 527.6125 529.2306 525.4889 529.2306 524.0359 530.2365 524.3712 531.1307 527.9479 532.0249 530.295 533.3661 531.9716 535.6015 533.3129 553.7085 537.7837Z" />
</svg>