<?xml version="1.0" encoding="utf-8" standalone="no"?>
<svg xmlns:svg="http://www.w3.org/2000/svg" xmlns="http://www.w3.org/2000/svg" viewBox="0 0 1021 563" style="stroke-width:0.25px;stroke-linejoin:round;stroke:#444;fill:#ddd" fill-rule="evenodd">
  <path class="AK" d="M95.3864 549.5208 94.8784 549.724 95.2849 549.8257 95.3865 549.5209ZM99.1457 550.1305 99.1457 550.1305 99.1457 550.2321 99.1457 550.1305ZM97.3169 548.4033 97.3169 548.7081 97.5201 548.6064 97.3169 548.4032ZM96.4025 547.8952 96.4025 547.7936 96.4025 547.7936 96.4025 547.8952ZM98.3329 548.9112 98.3329 548.708 98.2313 548.8097 98.3329 548.9113ZM98.1297 548.7081 98.1297 548.6064 97.9265 548.6064 98.1297 548.7081ZM18.8817 481.9569 18.7801 482.6681 18.9833 484.7001 18.8817 481.9569ZM18.3737 479.2137 18.4753 480.1281 18.5769 479.8233 18.3737 479.2137ZM98.1297 547.4889 98.2313 546.8793 97.8249 547.0825 98.1297 547.4889ZM109.7121 552.4673 109.6105 552.3657 109.8137 552.7721 109.712 552.4672ZM102.1936 548.9112 101.076 547.8952 101.076 550.3336 102.1936 548.9112ZM104.7336 551.1464 104.632 550.4353 102.9048 550.3336 104.7336 551.1464ZM110.8296 552.5688 110.728 552.772 110.9312 552.772 110.8295 552.5688ZM111.2359 552.6705 111.0327 552.6705 111.4391 552.7721 111.2359 552.6705ZM112.4551 553.0769 112.3535 553.0769 112.2519 553.0769 112.455 553.0769ZM22.7422 484.1921 23.1486 484.2937 23.4534 484.1921 22.7422 484.1921ZM110.2199 551.6545 109.407 551.5528 109.7119 551.8576 110.2199 551.6544ZM17.2558 476.2672 15.8334 475.6576 15.7318 475.9624 17.2558 476.2672ZM112.7599 551.8576 112.5567 551.756 112.5567 551.8576 112.7599 551.8576ZM118.9575 553.0768 114.9951 553.3816 114.0807 553.788 118.9575 553.0768ZM10.0422 460.316 8.9246 460.316 9.1278 460.6208 10.0422 460.316ZM131.2511 557.7504 131.2511 557.344 131.0479 557.344 131.2511 557.7504ZM136.5343 557.8521 136.7375 557.6489 136.5343 557.4457 136.5343 557.8521ZM140.4967 558.9697 140.6999 558.868 140.5982 558.868 140.4966 558.9697ZM137.2454 557.1409 137.1437 556.7345 136.9405 556.7345 137.2453 557.1409ZM144.0525 558.6649 143.9509 558.7665 144.0525 558.7665 144.0525 558.6649ZM10.6517 455.1345 9.1277 455.3377 11.0581 457.0649 10.6517 455.1345ZM138.6677 557.1409 138.8709 556.5313 138.7693 556.5313 138.6677 557.1409ZM155.8381 555.6169 155.9397 555.4137 155.7365 555.312 155.8381 555.6168ZM153.2981 554.7024 149.7421 557.852 152.2821 557.6488 155.2285 555.312 153.2981 554.7024ZM159.6989 555.82 158.9877 555.6168 159.4957 556.0232 159.6989 555.82ZM161.1213 555.9217 160.0037 555.6169 159.8005 555.7185 161.1213 555.9217ZM157.2605 554.4993 156.1429 554.4993 158.0733 555.0073 157.2605 554.4993ZM161.9341 555.5153 161.8325 555.3121 161.4261 555.4137 161.9341 555.5154ZM158.8861 554.2962 158.4797 554.093 158.4797 555.2106 158.8861 554.2962ZM171.8909 556.8362 171.7893 556.7345 171.5861 556.7345 171.8909 556.8362ZM172.0941 556.7345 172.0941 556.6329 171.8909 556.5313 172.0941 556.7345ZM170.3669 556.1249 170.5701 556.5313 170.5701 556.4296 170.3669 556.1248ZM171.2813 556.1248 170.3669 555.82 171.4845 556.6328 171.2813 556.1248ZM172.6021 555.1088 172.6021 555.1088 172.6021 555.2105 172.6021 555.1088ZM184.6925 556.6328 184.4893 556.2264 184.3876 556.2264 184.6924 556.6328ZM294.014 549.8256 293.8108 549.6224 293.9125 549.8256 294.0141 549.8256ZM170.8749 552.9752 170.8749 552.8736 170.7733 552.9752 170.8749 552.9752ZM296.9605 547.9968 297.2653 548.4032 297.4685 548.4032 296.9605 547.9968ZM185.9117 555.6168 185.8101 555.7185 185.8101 556.0233 185.9117 555.6169ZM173.3133 553.7881 173.5165 552.9753 173.4149 552.9753 173.3132 553.7881ZM302.8532 545.6601 301.9388 546.1681 302.7516 546.5745 302.8533 545.6601ZM175.1421 553.2801 175.0404 553.0769 175.1421 553.2801 175.1421 553.2801ZM167.5221 551.0449 164.9821 551.5529 162.7469 554.4993 167.5221 551.0449ZM185.7085 554.9057 185.0989 555.4137 185.7085 555.312 185.7085 554.9056ZM302.8533 545.152 302.6501 544.7456 302.5484 544.9488 302.8532 545.152ZM175.9548 552.264 175.2436 552.1624 175.9548 552.8736 175.9548 552.264ZM296.1477 546.4728 295.9444 546.676 296.1477 547.3872 296.1477 546.4728ZM177.5804 552.1624 177.2756 552.264 177.682 552.5688 177.5804 552.1624ZM185.0988 554.296 184.794 554.296 184.5908 554.0928 185.0988 554.296ZM176.7676 552.1624 176.2596 551.8576 176.4628 552.1624 176.7676 552.1624ZM183.5748 553.28 182.6604 553.5848 182.0508 555.2104 183.5748 553.28ZM293.9124 546.168 293.9124 546.8792 294.3188 546.3712 293.9124 546.168ZM171.586 550.0288 172.3988 549.8256 172.2972 549.8256 171.586 550.0288ZM170.57 549.4192 170.3668 549.216 170.3668 549.3177 170.57 549.4193ZM293.9124 545.4569 293.7092 545.3553 293.6075 545.6601 293.9123 545.4569ZM182.4571 551.5529 182.2539 551.4512 182.0507 551.756 182.4571 551.5528ZM292.8963 545.66 292.998 545.152 292.7948 545.0504 292.8964 545.66ZM292.0836 545.152 291.7788 545.5584 292.2868 545.66 292.0836 545.152ZM186.7244 550.1304 186.5212 549.9272 186.4196 549.9272 186.7244 550.1304ZM291.7788 543.3232 292.5916 543.628 292.8964 543.2216 291.7788 543.3233ZM292.998 542.6121 292.6932 542.8153 293.2012 543.1201 292.998 542.6121ZM290.6612 543.2217 290.458 542.8153 290.2548 543.0185 290.6612 543.2217ZM300.8212 539.4625 299.5004 543.2217 300.8212 542.4089 300.8212 539.4625ZM180.4252 547.2857 180.3235 547.2857 180.3235 547.2857 180.4252 547.2857ZM291.8804 540.8849 290.966 541.7993 291.1692 542.8153 291.8804 540.8849ZM197.2908 549.0129 197.2908 548.6065 197.1891 548.8097 197.2908 549.0129ZM290.7628 539.8689 293.7092 544.3393 300.3132 548.5049 298.7892 544.9489 292.49 539.5641 290.7628 539.8689ZM193.2268 547.3873 193.1251 547.0825 192.9219 547.1841 193.2267 547.3873ZM294.2171 538.1417 293.8107 539.6657 294.5219 539.1577 294.2171 538.1417ZM296.3507 538.1417 296.2491 539.1577 297.1635 539.4625 296.3507 538.1417ZM196.4779 546.0665 195.9699 545.9648 195.4619 546.1681 196.4779 546.0664ZM206.9427 546.8792 206.5363 547.5904 206.7395 546.9808 206.9427 546.8792ZM208.4667 546.9808 207.5523 547.0825 208.0603 547.6921 208.4667 546.9809ZM146.8971 533.9761 147.9131 534.4841 147.7099 534.2809 146.8971 533.9761ZM187.2323 544.0345 187.3339 543.9328 187.2323 544.0345 187.2323 544.0345ZM187.5371 543.9328 187.6387 543.9328 187.6387 543.8312 187.5371 543.9328ZM292.5915 536.1096 293.0995 538.04 294.1155 537.4304 292.5915 536.1096ZM190.2803 542.8152 190.3819 542.7136 190.3819 542.7136 190.2803 542.8152ZM288.2227 536.9224 288.7307 541.596 289.7467 540.58 288.2227 536.9224ZM288.7307 535.3984 291.0675 538.6496 290.7627 536.516 288.7307 535.3984ZM281.5171 536.2112 280.9075 538.1416 281.7203 536.8208 281.5171 536.2112ZM200.2371 541.1896 200.1355 541.088 200.2371 541.1896 200.2371 541.1896ZM209.8891 541.3928 209.6859 541.088 209.8891 541.4944 209.8891 541.3928ZM281.7203 534.6872 285.7843 541.3928 285.1747 536.8208 281.7203 534.6872ZM215.5787 538.2432 215.2739 538.548 215.7819 538.7512 215.5787 538.2432ZM214.2579 538.4464 214.3595 538.1416 213.9531 538.1416 214.2579 538.4464ZM213.2419 538.4464 210.6003 540.1736 207.3491 544.4408 208.9747 546.168 216.4931 540.58 213.2419 538.4464ZM277.3515 531.8424 276.6403 531.436 276.6403 532.0456 277.3515 531.8424ZM212.6323 537.2272 212.734 537.6336 213.4452 538.04 212.6324 537.2272ZM279.282 529.912 277.25 530.928 279.1804 531.5376 279.282 529.912ZM277.9612 529.912 277.758 529.7088 277.6564 529.912 277.9612 529.912ZM284.1588 528.2864 283.346 527.9816 283.1428 528.5912 284.1588 528.2864ZM279.79 528.9976 279.0788 528.8959 279.0788 529.0991 279.79 528.9975ZM282.0252 528.1847 286.1908 534.2807 285.0732 528.6927 282.0252 528.1847ZM214.9692 534.7887 212.5308 536.6175 213.6484 537.8367 216.8996 535.3983 214.9692 534.7887ZM187.334 530.9279 187.2323 530.8263 187.2323 530.9279 187.334 530.9279ZM186.2164 530.4199 186.1147 529.9119 186.1147 530.1151 186.2164 530.4199ZM217.4076 531.7407 217.2044 531.8423 217.2044 531.944 217.4076 531.7408ZM216.3916 531.5376 216.2899 531.5376 216.0867 531.8424 216.3915 531.5376ZM218.8299 530.7248 218.5251 530.5216 218.5251 530.6232 218.8299 530.7248ZM219.6427 530.6232 219.3379 530.42 219.3379 530.5216 219.6427 530.6233ZM218.3219 530.3185 217.9155 530.3185 217.9155 530.4201 218.3219 530.3185ZM238.5403 528.2865 238.642 527.9817 238.4388 528.1849 238.5404 528.2865ZM244.738 525.0353 245.9572 523.5113 245.5508 523.8161 244.738 525.0353ZM232.3428 524.8321 232.7492 524.5273 232.8509 524.1209 232.3429 524.8321ZM232.3429 523.7145 231.9365 524.0193 232.6477 523.8161 232.3429 523.7145ZM215.6804 523.7145 215.5788 523.3081 215.4772 523.3081 215.6804 523.7145ZM231.9364 523.6128 231.53 524.0192 231.3268 524.4256 231.9364 523.6128ZM243.1124 522.3936 243.214 522.3936 243.3157 522.3936 243.1125 522.3936ZM243.6205 522.3936 243.4173 522.292 243.4173 522.3936 243.6205 522.3936ZM242.4013 522.292 242.5029 522.3936 242.5029 522.292 242.4013 522.292ZM234.0701 522.9016 234.4765 522.4952 233.9685 522.9016 234.0701 522.9016ZM240.2677 521.6824 240.2677 521.6824 240.2677 521.6824 240.2677 521.6824ZM235.2893 521.9872 232.8509 525.9496 236.0005 522.292 235.2893 521.9872ZM232.1397 522.4952 231.8349 522.0888 231.7333 522.292 232.1397 522.4952ZM239.8613 521.5808 239.6581 521.4792 239.7597 521.5808 239.8613 521.5808ZM242.5029 521.784 242.5029 521.0728 242.2997 521.3776 242.5029 521.784ZM167.9285 513.9608 163.0517 513.7576 166.4045 517.3136 167.9285 513.9608ZM237.3213 521.1744 237.5245 521.8856 238.0325 521.0728 237.3213 521.1744ZM233.2573 521.0728 232.9525 523.308 233.4605 521.8856 233.2573 521.0728ZM145.0685 504.2072 145.1702 503.8008 145.1702 503.8008 145.0685 504.2072ZM232.2413 519.6504 232.343 519.9552 232.5462 519.8536 232.2414 519.6504ZM231.7334 520.0567 231.5302 519.4471 231.2254 519.6504 231.7334 520.0567ZM236.5086 518.8376 236.5086 518.4311 236.2038 518.6344 236.5086 518.8376ZM231.9366 518.228 231.9366 519.244 232.2414 518.5328 231.9366 518.228ZM224.215 517.0088 224.215 516.704 224.215 516.704 224.215 517.0088ZM171.1798 504.4103 171.383 503.8007 171.2813 503.9024 171.1797 504.4104ZM171.4845 503.3944 171.3828 503.2927 171.2812 503.3944 171.4844 503.3944ZM175.9548 500.956 175.9548 500.8543 175.9548 500.8543 175.9548 500.956ZM175.9548 500.5496 175.8532 500.3464 175.8532 500.3464 175.9548 500.5496ZM177.7836 497.908 177.7836 497.908 177.682 497.908 177.7836 497.908ZM178.3932 498.1112 177.9868 497.908 177.9868 498.0096 178.3932 498.1113ZM177.7836 497.7049 177.7836 497.5017 177.5804 497.7049 177.7836 497.7049ZM161.5276 492.9297 161.3244 492.4216 161.2228 492.1169 161.5276 492.9297ZM163.0516 491.1008 163.1532 491.1008 163.2548 491.2025 163.0517 491.1008ZM160.3084 490.5929 159.4957 489.5769 160.1053 490.3897 160.3084 490.5929ZM158.6828 488.9673 158.4797 488.9673 158.7845 489.0689 158.6828 488.9673ZM158.886 487.8496 158.886 487.8496 158.886 487.8496 158.886 487.8496ZM158.6828 487.748 158.6828 487.748 158.886 487.8496 158.6828 487.748ZM185.6068 495.7744 184.4892 495.8761 185.0988 496.1809 185.6068 495.7745ZM157.5652 485.9192 156.7524 488.9673 159.2924 489.3737 162.6452 492.8281 164.6772 491.9137 157.5652 485.9192ZM175.3452 487.1385 175.3452 486.9353 175.3452 487.0369 175.3452 487.1385ZM170.2652 476.3689 170.062 476.2673 170.1637 476.3689 170.2653 476.3689ZM173.2117 477.3849 173.5165 477.2833 173.4149 477.2833 173.2117 477.3849ZM175.2436 476.7753 175.5484 476.7753 176.4629 476.3689 175.2436 476.7753ZM178.9013 475.6577 179.1044 475.4545 178.7996 475.6577 178.9013 475.6577ZM179.4093 475.5561 180.0189 475.2513 179.5109 475.3529 179.4092 475.5561ZM180.9332 474.9465 180.4252 475.0482 180.4252 475.1498 180.9332 474.9466ZM181.5428 474.845 181.5428 474.845 181.5428 474.845 181.5428 474.845ZM246.1604 456.557 245.754 456.2522 245.0428 455.9474 246.1604 456.557ZM192.922 454.3218 193.8364 453.1026 193.3284 453.509 192.922 454.3218ZM194.1412 452.8994 194.5476 452.2898 194.3444 452.493 194.1412 452.8994ZM194.7508 452.0866 195.462 451.477 195.0556 451.6802 194.7508 452.0866ZM226.7548 452.2898 227.2628 452.7978 227.5676 452.7978 226.7548 452.2898ZM210.3972 445.5842 206.2316 449.0386 203.6916 448.3274 197.7988 451.6802 196.6812 450.969 189.9756 458.4874 183.1684 460.0114 183.778 463.669 186.826 467.8346 192.5156 473.321 191.6012 475.4546 195.8684 477.2834 193.6332 477.6898 190.89 475.5562 192.3124 478.7058 190.4836 479.8234 184.6924 474.5402 180.1204 475.353 172.2972 478.2994 175.8532 482.2618 175.3452 484.7002 177.682 487.545 185.4036 490.593 190.9916 487.7482 191.906 489.8818 190.382 496.2826 185.7084 496.2826 180.222 498.721 179.9172 496.9938 177.0724 498.1114 175.7516 501.0578 171.078 504.6138 171.078 509.7954 172.9068 510.6082 171.4844 514.977 177.5804 520.2602 181.4412 518.6346 180.6284 525.137 181.746 526.5594 186.4196 527.5754 188.1468 529.5058 192.2108 529.8106 194.1412 531.8426 198.3068 530.6234 196.3764 533.265 194.8524 538.6498 182.4572 546.6762 180.8316 548.3018 178.4948 547.3874 174.7356 548.3018 169.3508 551.8578 177.7836 549.4194 179.0028 551.2482 189.874 547.6922 190.1788 549.1146 194.446 544.8474 203.3868 538.6498 204.098 539.0562 211.9212 532.8586 209.8892 530.4202 212.5308 526.0514 219.4396 517.8218 224.7228 516.8058 226.3484 517.9234 219.9476 519.7522 218.2204 526.5594 218.4236 530.217 220.6588 530.0138 231.4284 523.5114 232.2412 521.073 231.3268 517.3138 234.578 518.1266 236.9148 516.6026 243.6204 520.6666 243.1124 521.7842 258.3524 523.7146 261.9084 522.597 262.9245 524.121 276.1324 530.4202 278.3676 529.0994 278.5709 521.4794 280.298 524.9338 288.8324 531.1314 289.5436 533.6714 296.9604 537.837 298.8908 543.2218 300.7197 539.0562 304.4788 546.3714 307.0189 542.2058 304.9869 537.0242 297.1637 536.2114 285.1748 524.7306 278.6724 519.9554 273.6941 524.8322 270.7477 524.8322 263.9405 520.3618 257.2348 520.057 247.6844 459.8082 246.0588 456.9634 242.198 454.6266 236.4068 455.7442 231.9364 454.8298 226.2468 452.5946 220.2524 453.001 218.7284 450.1562 213.9532 449.445 213.1404 447.7178 211.0068 450.1562 210.3972 445.5842Z" />
  <path class="AL" d="M741.2577 342.1552 741.6641 342.968 743.0865 343.8824 743.6961 385.5384 743.8993 408.3984 749.0809 439.6912 749.4873 439.5896 754.0593 440.504 755.2785 431.4616 757.3105 436.5416 760.7649 439.6912 767.3689 435.8304 766.6577 435.2208 766.8609 435.3224 762.2889 424.8576 806.1801 417.7456 809.1265 417.2376 809.1265 417.136 806.3833 411.9544 806.1801 404.5376 803.9449 400.4736 805.0625 392.5488 806.8913 390.5168 799.3729 377.1056 785.7585 335.6528 785.6569 335.4496 782.6089 335.9576 766.3529 338.5992 758.2249 339.6152 741.1561 341.952 741.2577 342.1552Z" />
  <path class="AR" d="M712.0985 324.5784 701.1257 326.204 705.5961 319.092 703.6657 315.1296 664.9561 318.8888 632.2409 321.5304 627.4657 321.8352 628.0753 324.68 632.0377 345.2032 632.1393 349.7752 633.2569 377.4104 633.3586 381.9824 633.6634 382.084 635.1874 383.7096 641.2834 383.5064 641.893 392.4472 642.0962 394.9872 645.2458 394.6824 654.8978 393.9712 693.201 390.4152 693.4042 390.4152 693.3025 388.18 694.3185 387.4688 692.4897 384.0145 696.3505 367.7584 694.8265 365.9296 700.6177 359.5288 700.2113 354.0424 704.4785 346.9304 704.4785 346.8288 704.2753 346.6256 707.9329 343.2728 706.9169 339.2088 709.7617 334.7384 709.1521 330.5728 712.2001 324.68 712.2001 324.5784 712.0985 324.5784Z" />
  <path class="AZ" d="M378.9521 305.5792 344.7129 301.312 326.3233 298.6704 300.1105 294.5048 297.4689 294.0984 297.4689 294.3016 292.9985 314.012 290.6617 313.9104 287.1057 310.7608 282.6353 314.52 282.5336 330.6744 280.908 334.1288 280.908 334.4336 280.908 334.5352 280.7048 337.0752 284.2608 346.6256 287.4104 350.8928 281.7208 354.2456 279.4856 358.4112 275.828 367.352 273.9992 367.7584 273.8976 375.1752 277.0472 377.512 275.4216 381.9824 271.764 382.1856 271.764 382.1856 269.6304 386.148 276.9456 390.72 290.7632 398.4416 333.4352 421.0984 369.6048 425.5688 370.0112 425.5688 372.856 395.5968 373.5672 388.18 381.1872 309.5416 381.5936 305.884 378.952 305.5792Z" />
  <path class="CA" d="M205.0129 361.9672 205.4193 364.2024 205.4193 364.6088 205.0129 361.9672ZM190.0777 353.2296 190.7889 354.7536 191.1953 354.652 190.0777 353.2296ZM207.8577 352.9248 208.1625 355.5664 209.9913 356.8872 207.8577 352.9248ZM195.5641 338.4976 194.4465 338.1928 195.3609 338.5992 195.5641 338.4975ZM184.2865 335.4495 181.5433 337.0751 182.2545 337.7863 184.2865 335.4495ZM179.0033 333.5191 178.8001 334.3319 179.7145 334.5351 179.0033 333.5191ZM187.9441 335.5511 192.4145 338.0911 193.2273 337.3799 187.9441 335.5511ZM153.2985 246.0415 153.1968 246.1432 153.2985 246.0415 153.2985 246.0415ZM164.1697 246.5495 164.068 246.2447 164.068 246.6511 164.1697 246.5495ZM222.7929 169.4351 218.8305 168.4191 175.3457 156.4303 159.1913 151.5535 159.1913 151.9599 158.2769 162.0183 154.0097 173.9055 146.8977 182.7447 146.6945 187.2151 150.1489 193.4127 151.8761 201.5407 149.4377 208.1447 149.844 214.7487 148.6249 217.4919 152.7904 226.5343 155.432 229.9887 155.2289 239.8439 161.5281 245.8383 165.1856 239.7423 169.1481 242.8919 170.6721 241.4695 165.1856 242.4855 165.084 247.6671 166.2016 254.1695 163.1536 251.2231 161.4264 247.2607 160.9184 252.7471 162.3408 263.6183 168.0304 270.6287 164.2712 275.5055 164.8808 281.7031 168.9448 288.0023 176.0568 307.5095 178.292 308.7287 177.5808 322.2415 178.6984 323.8671 193.9384 329.3535 198.612 334.3319 200.2376 337.5831 204.708 340.1231 209.5848 341.0375 211.6168 346.6255 215.6808 348.5559 221.7768 355.7695 227.4664 365.2183 227.06 373.9559 230.2096 378.1215 271.764 382.1855 271.764 382.1855 275.4216 381.9823 277.0472 377.5119 273.8976 375.1751 273.9993 367.7583 275.8281 367.3519 279.4856 358.4111 281.7208 354.2455 287.4105 350.8927 284.2609 346.6255 280.7049 337.0751 280.9081 334.5351 280.9081 334.4335 278.2665 330.8775 270.1385 320.0063 254.3904 297.8575 232.4448 266.3615 220.0496 249.1911 208.0608 231.9191 221.8784 173.2959 222.7928 169.4351Z" />
  <path class="CO" d="M501.8881 248.6832 502.2945 228.7696 497.4177 228.5664 472.6273 227.652 470.1889 227.5504 468.1569 227.4487 437.9817 225.5183 417.8649 223.8927 392.7697 221.4543 390.3313 221.1495 390.0265 223.7911 384.5401 276.7247 382.6097 295.2159 381.7969 303.2423 381.5937 305.8839 384.7433 306.1887 435.9497 310.6591 458.5049 312.0815 480.9585 313.0975 484.2097 313.1992 486.2417 313.3008 490.5089 313.4024 492.5409 313.5041 498.9417 313.7073 500.5673 313.7073 500.5673 311.6753 501.6849 257.9289 501.7865 251.9345 501.7865 250.0041 501.8882 248.6833Z" />
  <path class="CT" d="M970.1625 131.2336 955.5321 136.8216 955.3289 136.3136 947.0993 138.752 945.2705 139.26 945.4737 140.276 949.3345 155.2112 950.5537 156.7352 947.9121 159.9864 949.7409 161.7136 949.7409 161.7136 955.6337 156.024 958.7833 151.6552 959.3929 152.8744 974.2265 146.2704 974.5313 145.9656 974.4297 143.5272 973.8201 141.3936 970.6705 132.5544 970.2641 131.4368 970.1624 131.2336Z" />
  <path class="DC" d="M908.5929 221.048 909.1009 221.4544 909.3041 221.556 909.5073 221.4544 909.7105 221.556 910.4217 221.9624 910.6249 222.2672 910.6249 222.9784 910.8281 223.3848 912.1489 220.9464 910.7265 220.1336 908.9993 220.2353 908.5929 221.0481Z" />
  <path class="DE" d="M924.9505 198.5944 925.3569 200.1184 933.7897 224.1976 943.4417 221.3528 943.3401 221.1496 943.5433 221.1496 943.8481 221.2512 943.8481 221.2512 944.0513 221.1496 943.8481 220.7432 941.4097 214.2408 929.5225 202.9632 930.0305 195.14 930.0305 195.14 927.5921 195.14 925.7633 196.5624 924.9505 198.5944 924.9505 198.5944Z" />
  <path class="FL" d="M884.0057 541.4944 883.8025 541.4944 883.9041 541.5961 884.0058 541.4944ZM883.0914 541.3928 883.0914 541.4944 883.193 541.4944 883.0914 541.3928ZM883.2946 541.2911 883.2946 541.1895 883.2946 541.2911 883.2946 541.2911ZM869.477 542.8151 869.477 542.8151 869.477 542.9168 869.477 542.8151ZM869.2738 542.9168 869.2738 542.8151 869.2738 542.9168 869.2738 542.9168ZM869.3754 542.8151 869.3754 542.8151 869.3754 542.8151 869.3754 542.8151ZM868.3594 542.9168 868.2578 542.9168 868.2578 543.0184 868.3594 542.9168ZM897.2138 536.516 897.1122 536.516 897.2138 536.7192 897.2138 536.516ZM899.957 535.8048 899.957 535.6016 899.7538 535.9064 899.957 535.8047ZM898.941 535.6015 898.5346 535.1951 898.433 535.2968 898.941 535.6016ZM898.6362 536.4144 897.417 534.8904 898.1282 536.2112 898.6362 536.4144ZM908.2882 530.42 908.2882 530.8264 908.4914 530.6232 908.2882 530.42ZM909.7106 529.404 910.0154 528.896 909.609 529.3024 909.7106 529.404ZM910.0154 528.388 909.9138 528.388 909.9138 528.4897 910.0154 528.388ZM908.1866 528.0832 908.085 527.9816 908.1866 528.0832 908.1866 528.0832ZM909.101 526.5592 908.9994 526.4576 908.9994 526.6608 909.101 526.5591ZM906.3578 526.4575 906.2562 526.3559 906.3578 526.4575 906.3578 526.4575ZM909.8122 524.1207 909.609 524.2223 909.9138 524.324 909.8122 524.1208ZM910.2186 524.1208 910.0154 523.9176 910.117 524.2224 910.2187 524.1207ZM909.5075 523.9175 909.4058 523.8159 909.4058 524.0191 909.5075 523.9175ZM913.2667 523.2063 913.2667 523.1046 913.0635 523.511 913.2667 523.2062ZM908.9995 523.6126 908.7963 523.6126 908.9995 523.7143 908.9995 523.6126ZM911.1331 522.3934 910.8283 522.3934 910.7266 522.495 911.133 522.3934ZM911.9458 521.8854 911.9458 521.8854 911.8442 521.8854 911.9458 521.8854ZM903.4114 522.2918 903.4114 522.0886 903.3098 522.2918 903.4114 522.2918ZM904.3258 521.987 904.021 521.987 904.3258 522.5966 904.3258 521.987ZM901.8874 522.0887 901.8874 521.479 901.3794 521.5807 901.8874 522.0887ZM900.465 521.0727 900.973 521.5807 900.973 521.3775 900.465 521.0727ZM915.4002 521.6823 913.5714 522.4951 914.181 522.5967 915.4002 521.6823ZM901.1762 520.7679 900.5666 520.7679 900.5666 520.9711 901.1762 520.7679ZM917.229 515.6879 917.3307 515.1799 917.4323 513.8591 917.2291 515.6879ZM917.3307 509.9983 916.9243 508.9823 916.7211 509.3887 917.3307 509.9983ZM893.8611 512.5383 893.6579 512.8431 894.1659 512.9448 893.8611 512.5384ZM891.9307 511.624 891.0163 511.9288 891.7275 512.0304 891.9307 511.624ZM889.8987 511.8272 889.8987 511.5224 889.7971 511.624 889.8987 511.8272ZM887.7651 511.7256 887.1555 512.132 887.9683 512.5384 887.7651 511.7256ZM890.6099 511.8272 890.5083 511.5224 890.0003 511.4208 890.6099 511.8272ZM877.3003 501.8704 876.6907 502.1752 877.9099 502.5816 877.3003 501.8704ZM874.8619 498.6192 874.0491 497.4 874.3539 498.3144 874.8619 498.6192ZM878.0115 500.6512 876.5891 497.4 875.5731 497.0952 878.0115 500.6512ZM873.9475 496.5872 873.6427 495.7744 873.4395 495.2664 873.9475 496.5872ZM865.5147 485.3096 863.6859 483.9888 864.3971 484.7 865.5147 485.3096ZM911.2347 478.5024 903.8179 466.1072 903.4115 466.1072 911.2347 478.5024ZM859.9267 458.6904 859.6219 458.5888 859.9267 458.792 859.9267 458.6903ZM859.3171 457.9791 859.2155 458.0808 859.3171 458.1824 859.3171 457.9792ZM858.6059 456.9632 858.6059 456.8616 858.5043 456.9632 858.6059 456.9632ZM859.0123 456.5568 859.3171 456.76 859.3171 456.5568 859.0123 456.5568ZM859.6219 456.1504 859.2155 456.252 859.3171 456.252 859.6219 456.1504ZM858.9107 456.0488 858.6059 455.744 858.7076 455.8456 858.9108 456.0488ZM858.1996 454.9312 857.9964 454.9312 858.3012 455.0328 858.1995 454.9312ZM858.9107 453.712 858.5043 453.712 858.4027 453.8136 858.9107 453.712ZM859.3171 453.9152 858.8091 453.4072 859.0123 453.5088 859.3171 453.9152ZM855.4563 449.5464 855.2531 449.4448 855.2531 449.5464 855.4563 449.5464ZM851.0875 449.5464 850.7827 449.14 850.8843 449.648 851.0875 449.5464ZM814.1051 446.1936 817.1531 443.8568 813.8003 446.092 814.1051 446.1936ZM820.2011 441.3168 820.5059 441.012 819.2867 441.52 820.2011 441.3168ZM781.5931 434.5096 770.5187 438.0656 776.6147 436.3384 781.5931 434.5096ZM809.1267 417.2376 806.1803 417.7456 762.2891 424.8576 766.8611 435.3224 767.1659 435.4241 766.0483 439.5897 769.2995 438.1673 772.8555 435.0177 778.9515 434.8145 785.9619 432.2745 790.7371 432.9857 789.6195 434.7129 798.3571 437.6593 805.8755 441.3169 807.6027 445.3809 813.1907 444.1617 826.3987 433.3921 831.2755 433.5953 851.1891 448.6321 855.2531 447.8193 859.5203 453.5089 860.3331 462.5513 859.0123 468.2409 859.6219 471.0857 863.1779 478.1977 861.5523 472.6097 866.1243 472.508 866.5307 476.5721 864.0923 482.8713 872.5251 494.4537 875.6747 494.5553 873.0331 490.9993 876.2843 491.4057 878.2147 490.1865 877.4019 496.6889 881.7707 500.1433 884.7171 508.0681 888.6795 510.5065 893.7595 511.8273 900.7699 520.7681 904.4275 522.6985 899.5507 523.0033 901.7859 525.5433 909.8123 522.9017 913.7747 520.6665 917.4323 507.8649 915.6035 487.9513 915.1971 485.9193 905.4435 469.6633 897.1123 457.8777 892.4387 448.2257 896.4011 451.5785 897.2139 450.9689 898.9411 459.4017 903.4115 465.8025 899.0427 457.2681 899.2459 453.2041 886.1395 437.2529 882.9899 432.2745 878.8243 423.8417 875.9795 416.7297 873.7443 414.1897 873.2363 410.9385 873.1347 410.8368 866.1243 410.4305 863.3811 412.564 861.8571 420.3872 860.4347 416.7296 812.4795 422.724 809.0251 417.3392 809.1267 417.2376Z" />
  <path class="GA" d="M874.7601 395.8 874.6585 392.752 873.9473 395.3936 874.7601 395.8ZM875.8777 391.1264 875.4713 388.7896 875.1665 390.212 875.8777 391.1264ZM828.3289 327.1184 827.0081 327.4232 823.1473 328.236 808.9233 331.1824 807.6025 331.4872 806.1801 331.6904 798.2553 333.2144 796.1217 333.6208 787.4857 335.2464 785.6569 335.4496 785.7585 335.6528 799.3729 377.1056 806.8913 390.5168 805.0625 392.5488 803.9449 400.4736 806.1801 404.5376 806.3833 411.9544 809.1265 417.136 809.1265 417.2377 809.0249 417.3393 812.4793 422.7241 860.4345 416.7297 861.8569 420.3873 863.3809 412.5641 866.1241 410.4305 873.1345 410.8369 873.1345 410.8369 872.5249 399.8641 873.8457 397.5273 873.1345 393.1585 874.5569 388.9929 876.6905 386.6561 875.1665 385.2337 878.7225 380.8649 878.6208 380.8649 872.5248 375.1753 864.1936 363.2881 859.6216 361.1545 840.0128 344.6953 835.2376 338.5993 825.992 334.7385 825.484 332.7065 828.3288 327.1185 828.3288 327.1185Z" />
  <path class="HI" d="M425.1801 520.26 422.0305 517.9232 419.2873 518.6344 419.8969 524.324 416.1377 528.9976 419.3889 536.4144 420.3033 544.0344 424.0625 546.4728 426.3993 542.7136 430.5649 539.6656 435.6449 538.3448 441.2329 533.5696 435.7465 528.896 435.6448 526.0512 425.18 520.26ZM406.6888 512.0304 405.1648 510.7096 403.7424 512.64 406.6888 512.0304ZM399.0688 507.6616 399.4752 503.9024 397.5448 503.5976 399.0688 507.6616ZM405.4696 501.464 403.7424 502.2768 404.9616 506.1376 407.6032 506.3408 408.416 509.6936 411.2608 510.9128 417.56 507.9664 411.6672 503.0896 405.4696 501.464ZM392.4648 497.2984 391.5504 500.0416 395.9192 499.94 399.9832 500.956 397.8496 497.6032 392.4648 497.2984ZM379.6632 489.272 377.3264 487.0368 372.856 490.4912 375.7008 495.7744 377.7328 493.6408 383.524 494.86 383.016 492.4216 379.6632 489.272ZM334.1464 484.8016 334.756 483.3792 336.4832 482.4648 334.1464 484.8016ZM350.3008 475.556 343.1888 478.1976 342.4776 480.128 345.3224 482.16 349.2848 483.176 352.1296 477.588 350.3008 475.556ZM301.0248 456.8616 301.0248 456.7599 300.8216 456.7599 301.0248 456.8616ZM247.1768 443.552 247.1768 443.7552 247.2785 443.7552 247.1768 443.552ZM218.932 438.8784 219.0337 438.98 219.0337 438.98 218.932 438.8784ZM217.8144 436.8464 217.8144 436.8464 217.8144 436.8464 217.8144 436.8464ZM216.9 435.8304 216.6968 435.8304 216.6968 435.932 216.9 435.8304ZM217.6112 435.8304 217.5096 435.8304 217.6112 435.8304 217.6112 435.8304ZM217.5096 435.7287 217.5096 435.7287 217.5096 435.8304 217.5096 435.7287ZM185.6072 409.5159 185.5055 409.2111 185.5055 409.3128 185.6072 409.516ZM116.0112 387.2656 115.7064 387.5704 115.9096 387.672 116.0112 387.2656ZM42.3512 335.9576 42.3512 335.9576 42.3512 335.9576 42.3512 335.9576ZM44.8912 336.0592 44.7896 336.0592 44.7896 336.0592 44.8912 336.0592ZM44.3832 335.9576 44.3832 335.9576 44.3832 335.9576 44.3832 335.9576ZM1 316.9584 1.3048 316.8568 1.3048 316.6536 1 316.9584Z" />
  <path class="IA" d="M681.8217 188.1296 676.2337 185.1832 673.1857 181.0176 672.1697 175.0232 672.9825 172.28 670.0361 168.724 670.0361 168.724 665.0577 169.232 615.0705 173.3976 595.0553 174.5152 589.9753 174.82 587.8417 174.9216 589.5689 186.1992 588.1465 191.584 590.3817 194.9368 590.3817 195.648 591.0929 195.7497 594.3441 205.3001 597.4937 210.2785 597.6969 215.9681 601.1513 220.7433 600.5417 222.7753 603.6913 235.5769 603.6913 235.8817 603.6913 235.8817 624.5193 235.2721 646.7697 233.3417 668.6137 230.5985 673.5921 234.9673 673.7953 235.1705 674.7097 234.7641 673.9985 230.8017 677.7577 228.4649 679.2817 218.1017 677.7577 217.3905 678.6721 212.1073 683.2441 211.1929 688.3241 207.5353 690.5593 201.1345 690.6609 197.8833 686.5969 194.0225 685.3777 191.5841 681.5169 189.1457 681.7201 188.6377 681.8218 188.1297Z" />
  <path class="ID" d="M312.9121 36.5424 303.8697 34.7136 300.9233 34.0024 299.6025 33.6976 287.8169 86.7328 288.3249 91.1016 287.9185 95.6736 288.1217 96.6896 288.1217 96.7912 288.2233 98.7216 291.6777 102.4808 286.6993 114.9776 276.1329 128.7952 275.8281 131.3352 278.5713 137.8376 268.9193 177.868 268.5129 180.0016 271.3577 180.6112 300.1105 186.3008 311.5913 188.4344 314.5377 188.9424 317.3825 189.4504 332.0129 191.7872 358.2257 195.7496 361.1721 196.156 361.5785 192.8032 362.4929 186.1992 365.9473 159.7832 367.7761 146.6768 368.1825 143.324 367.5729 143.0192 364.4233 137.3296 361.7817 140.784 351.1137 139.6664 342.6809 139.7681 341.6649 140.5809 337.7025 132.4529 336.6865 131.6401 330.9969 117.7209 330.1841 113.0473 320.1257 112.3361 322.0561 106.7481 323.4785 106.3417 327.0345 89.6793 323.9865 89.8825 323.2753 87.7489 315.7569 75.1505 313.1153 72.9153 311.1849 67.6321 312.0993 66.8193 310.5753 61.0281 308.6449 57.2689 313.0137 36.5425 312.9121 36.5425Z" />
  <path class="IL" d="M681.7201 188.6376 681.5169 189.1456 685.3777 191.584 686.5969 194.0224 690.6609 197.8832 690.5593 201.1344 688.3241 207.5352 683.244 211.1928 678.672 212.1072 677.7576 217.3904 679.2816 218.1016 677.7576 228.4648 673.9985 230.8016 674.7096 234.764 673.7952 235.1704 673.7952 235.1704 672.9825 239.6408 676.2337 248.6832 687.816 258.4368 688.832 263.1104 691.0672 265.4472 698.3825 265.0408 697.0617 271.848 696.5537 279.1632 700.9225 282.7192 707.8313 285.7672 711.4889 288.612 713.5209 294.4032 712.4033 296.5368 719.6169 302.4296 719.9217 302.5312 719.3121 301.9216 721.3441 297.1465 729.1673 299.28 731.0977 297.0448 729.5737 292.5745 735.9745 288.8152 734.2473 286.3769 735.7713 282.9224 735.7713 282.6176 735.3649 282.516 735.4665 273.4736 737.7017 271.848 741.5625 262.8056 740.7497 258.8432 738.2097 254.068 739.6321 248.6832 732.5201 198.5944 731.5041 197.4768 728.8625 191.4824 726.7289 189.2472 725.8145 183.3544 725.8145 183.1512 712.0985 185.0816 703.8689 186.0976 681.7201 188.6376 681.7201 188.6376Z" />
  <path class="IN" d="M774.7857 190.7712 759.2409 193.5144 755.6849 194.2256 743.0865 196.2576 740.4449 198.3912 736.4825 200.22 734.9585 200.1184 733.1297 199.204 732.5201 198.5944 739.6321 248.6832 738.2097 254.068 740.7497 258.8432 741.5625 262.8056 737.7017 271.848 735.4665 273.4736 735.3649 282.516 735.7713 282.6176 736.1777 282.516 737.7017 279.6712 741.4609 279.6712 746.0329 278.1472 751.7225 280.2808 752.3321 277.944 755.5833 275.5056 760.4601 276.2168 763.1017 271.0352 770.3153 271.6448 770.2136 268.6984 776.6144 260.2656 775.5984 256.4048 780.0688 256.3031 785.5552 251.9343 784.2344 246.9559 784.4376 246.7527 784.2344 245.0255 778.1384 209.0591 775.3952 193.7175 775.0904 192.0919 774.7856 190.7711Z" />
  <path class="KS" d="M626.7545 308.5256 624.2145 265.5488 619.6425 262.9072 619.2361 260.8752 615.5785 257.624 619.1345 253.2552 617.7121 250.7152 615.0705 250.8168 612.6321 249.0896 611.6161 248.2768 608.1617 248.48 570.6713 249.9024 553.5009 250.3088 519.3633 250.3088 505.6473 250.1056 501.7865 250.004 501.7865 251.9344 501.6848 257.9288 500.5672 311.6752 500.5672 313.7072 504.936 313.8088 528.5072 314.1136 583.676 313.3008 622.9952 311.472 626.856 311.1672 626.7544 308.5256Z" />
  <path class="KY" d="M714.9433 313.1992 714.6385 312.3864 714.0289 312.1832 713.6225 313.504 713.7241 313.6056 714.8417 313.504 714.9434 313.1992ZM784.4378 246.7528 784.2346 246.956 785.5554 251.9344 780.069 256.3032 775.5986 256.4048 776.6146 260.2656 770.2138 268.6984 770.3154 271.6448 763.1018 271.0352 760.4602 276.2168 755.5834 275.5056 752.3322 277.944 751.7226 280.2808 746.033 278.1472 741.461 279.6712 737.7018 279.6712 736.1778 282.516 735.7714 282.6177 735.7714 282.9225 734.2474 286.3769 735.9746 288.8153 729.5738 292.5745 731.0978 297.0449 729.1674 299.2801 721.3442 297.1465 719.3122 301.9217 719.9218 302.5313 720.125 302.9377 719.2106 311.2689 718.8042 311.4721 716.1626 313.0977 716.061 313.4025 719.0074 312.9961 739.5306 310.2529 738.5146 306.1889 741.969 306.0872 783.3202 300.6008 812.3778 295.724 812.7842 295.4192 813.4954 294.6064 821.1154 290.5425 827.0082 282.8209 827.821 280.1793 831.6818 277.1312 836.5586 270.9336 837.2698 269.9176 836.965 269.816 834.425 269.816 831.1738 267.9872 825.3826 260.9768 823.3506 253.8648 823.3506 253.6616 823.1474 253.4584 818.8802 251.02 816.9498 247.7688 813.089 251.528 810.6506 252.1376 807.6026 250.9184 804.961 252.9504 799.4746 250.512 798.0522 251.1216 792.8706 246.6512 790.229 245.3304 785.2506 245.94 784.4378 246.7528Z" />
  <path class="LA" d="M710.5745 472.4064 709.2537 472.7112 708.6441 473.3208 710.5745 472.4064ZM714.8417 472.4064 714.1305 472.1016 713.9273 472.4064 714.8417 472.4064ZM717.2801 471.5936 716.5689 471.5936 716.1625 472.1016 717.2801 471.5936ZM716.0609 470.8824 715.8577 470.5776 715.7561 470.8824 716.0609 470.8824ZM724.1889 465.4976 723.8841 465.7008 724.3921 465.7008 724.1889 465.4976ZM738.4129 459.5032 739.0225 458.6904 738.3113 459.6048 738.4129 459.5032ZM740.4449 456.8616 740.2417 456.9632 740.2417 457.0649 740.4449 456.8617ZM688.2225 465.8025 689.7465 463.8721 685.5809 462.7545 683.7521 464.2785 688.2225 465.8025ZM730.3865 456.9633 729.9801 456.5569 729.8784 456.7601 730.3865 456.9633ZM731.504 455.1345 730.4881 454.8297 730.7929 455.8457 731.504 455.1345ZM739.8353 453.4073 739.8353 453.1025 739.8353 453.2041 739.8353 453.4073ZM741.8673 452.0865 741.7656 451.9849 741.8673 452.1881 741.8673 452.0864ZM741.0545 451.8832 740.8513 451.7816 740.7496 452.0864 741.0544 451.8832ZM733.9424 451.5784 734.8568 451.2736 734.8568 450.9688 733.9424 451.5784ZM734.4504 451.0704 734.9584 450.5624 734.8568 450.4608 734.4504 451.0703ZM730.8944 447.3111 730.6912 447.5144 730.7928 447.5144 730.8944 447.3111ZM693.404 390.4151 693.2008 390.4151 654.8976 393.9711 645.2456 394.6823 642.096 394.9871 642.1977 397.4255 644.2297 417.0343 647.5825 421.7079 647.6841 424.4511 650.9353 430.1407 653.5769 438.4719 652.6625 443.1455 651.9513 454.7279 650.4273 458.4871 650.6305 458.4871 650.9353 461.1287 649.2081 463.5671 661.8065 462.1447 671.6617 464.8879 678.6721 465.8024 682.2281 463.2623 680.2977 460.7223 686.8001 458.6903 686.5969 460.9255 689.9497 460.1127 692.6929 464.3799 695.0297 463.5671 701.1257 467.7328 697.3665 469.0536 706.0025 471.5935 709.2537 471.5935 711.1841 469.2567 715.3497 467.0215 718.2961 471.2888 720.3281 467.428 719.7185 461.3319 725.2049 463.4656 725.8145 465.2943 732.3169 466.1072 735.5681 468.7487 735.1617 470.8823 739.7337 466.6151 738.0065 464.3799 730.3865 462.4495 727.5417 460.8239 727.4401 457.7759 730.5897 458.1823 733.0281 453.2039 729.8785 448.8351 728.1513 453.0007 724.1889 452.2895 726.9321 447.8191 725.1033 447.3111 720.6329 450.4608 714.2321 450.8671 712.4033 449.4447 715.3497 444.2632 718.8041 444.1615 724.6969 446.0919 728.9641 446.4983 728.9641 446.4983 726.6273 443.5519 722.1569 434.8143 723.3761 429.9375 688.3241 433.7983 689.6449 432.4775 688.2225 428.8199 690.3561 425.6703 691.5753 417.7455 699.2969 404.5375 695.5377 399.9655 695.7409 396.6127 693.4041 391.1263 693.4041 390.4151Z" />
  <path class="MA" d="M990.3809 141.3936 990.0761 141.1904 990.0761 141.4952 990.3809 141.3936ZM987.3329 138.6504 988.0441 138.3456 988.0441 137.9392 987.3329 138.6504ZM999.9313 130.7256 999.8297 129.3032 999.6265 128.4904 999.9313 130.7256ZM955.5321 120.2608 954.8209 120.5656 949.0297 122.2928 946.9977 123.004 944.6609 123.7152 943.8481 124.02 943.8481 124.3248 944.1529 129.608 944.4577 134.4848 944.7625 138.9552 945.2705 139.26 947.0993 138.752 955.3289 136.3136 955.5321 136.8216 970.1625 131.2336 970.2641 131.4368 971.5849 130.9288 976.2585 129.1 980.7289 134.4848 980.7289 134.4848 981.3385 133.9768 981.6433 132.4528 981.5417 134.8912 981.5417 134.8912 982.5577 134.8912 982.8625 136.1104 983.7769 137.8376 983.7769 137.8376 988.5521 132.0464 992.5145 133.3672 993.4289 131.3352 999.9313 127.8808 997.1881 122.496 997.8993 125.9504 994.5465 128.4904 990.7873 128.7952 983.2689 120.7688 979.9161 115.6888 983.2689 112.1328 979.8145 111.9296 978.3921 108.5768 978.2904 108.3736 972.4993 114.6728 959.6976 118.94 955.532 120.2608 955.532 120.2608Z" />
  <path class="MD" d="M943.5433 230.5984 944.2545 225.112 943.6449 229.176 943.2385 230.9032 943.1369 231.1064 943.4417 231.0048 943.5433 230.5984ZM944.0513 221.1496 943.8481 221.2512 944.0513 221.8608 944.0513 223.08 944.0513 221.1496 944.0513 221.1496ZM867.2417 214.8504 869.5785 225.5184 874.2521 218.9144 876.5889 218.4064 881.0593 215.2568 884.1073 214.5456 884.1073 212.5136 887.6633 209.7704 893.7593 210.4816 896.7057 215.5616 896.7057 215.5616 897.0105 215.6632 901.6841 216.8824 905.0369 219.3208 908.2881 220.7432 908.5929 221.048 908.9993 220.2352 910.7265 220.1336 912.1489 220.9464 910.8281 223.3848 910.8281 223.4864 908.8977 229.3792 915.1969 233.4432 921.4961 233.748 925.6617 235.6784 923.9345 230.8016 918.5497 228.9728 917.2289 224.8072 920.5817 229.2776 923.3249 229.684 920.8865 227.2456 918.9561 220.032 919.4641 215.8664 917.3305 211.2944 919.5657 209.4656 921.1913 203.5728 920.5817 212.3104 922.3089 215.2568 923.9345 211.8024 924.8489 217.492 923.1217 221.6576 928.1001 223.4864 923.8329 224.9088 926.0681 229.0744 929.7257 230.2936 931.7577 226.7376 931.5545 231.716 935.0089 231.6144 937.2441 234.1544 937.3457 234.1544 938.0569 233.24 940.0889 232.3256 941.4097 231.8176 941.3081 231.6144 943.9497 223.7912 943.9497 223.4864 943.4417 221.4544 943.4417 221.3527 933.7897 224.1975 925.3569 200.1183 924.9505 198.5943 923.2233 199.1023 916.0097 201.3375 876.2841 212.4119 869.0705 214.3423 867.2417 214.8503Z" />
  <path class="ME" d="M980.4241 105.1224 980.3225 105.1224 980.5257 105.224 980.424 105.1224ZM987.9424 83.4816 987.1296 82.2624 987.1296 82.872 987.9424 83.4816ZM986.52 82.364 986.52 81.348 986.4184 80.7384 986.52 82.364ZM990.1776 78.0968 989.9744 77.9952 990.0761 78.3 990.1777 78.0968ZM1000.3377 73.0168 1000.1345 71.4928 999.7281 72.204 1000.3377 73.0168ZM997.7977 73.6264 997.8993 72.5088 996.6801 72.712 997.7977 73.6264ZM1001.5569 70.2736 1001.1505 70.2736 1001.1505 70.4768 1001.5569 70.2736ZM996.4769 71.7976 995.5625 71.5944 995.4609 72.5088 996.4769 71.7976ZM1001.6585 68.648 1002.5729 69.3592 1002.2681 68.5464 1001.6585 68.648ZM998.9153 68.7496 998.0009 70.4768 999.2201 69.8672 998.9153 68.7496ZM994.5465 68.8512 994.1401 69.4608 994.4449 70.3752 994.5465 68.8512ZM1000.5409 65.4984 1000.4393 64.6856 1000.1345 65.1936 1000.5409 65.4984ZM1000.0329 65.9048 999.1185 65.092 999.1185 65.8032 1000.0329 65.9048ZM994.3433 68.2416 994.1401 67.124 993.7337 68.0384 994.3433 68.2416ZM1003.9953 64.6856 1002.4713 66.9208 1002.3697 65.2952 1003.9953 64.6856ZM1011.4121 57.8784 1010.7009 56.8624 1010.2945 57.0656 1011.4121 57.8784ZM1014.1553 53.3064 1013.5457 53.0016 1013.444 53.3064 1014.1552 53.3064ZM1015.476 45.3816 1014.5616 45.3816 1015.5776 45.6864 1015.476 45.3816ZM1017 46.3976 1016.6952 44.5688 1015.8824 44.4672 1017 46.3976ZM1015.3744 44.772 1015.1712 42.8416 1014.46 44.1624 1015.3744 44.772ZM956.4464 60.7232 971.1784 95.2672 971.3816 95.9784 977.7824 103.8016 977.7824 103.6999 978.7984 103.3951 979.0016 97.6039 980.6272 95.5719 981.6432 90.1871 980.7288 89.2727 982.456 83.9895 988.3488 81.2463 992.2096 76.5727 993.632 68.4447 999.8296 68.0383 999.0168 63.8727 1006.7384 60.9263 1007.2464 56.3543 1009.0752 56.7607 1014.1552 52.5951 1016.3904 47.2103 1011.2088 42.0287 1005.7224 40.9111 1003.6904 36.7455 1003.6904 34.3071 1000.3376 35.3231 996.5784 34.0023 996.5784 29.8367 986.4184 7.8911 979.0016 4.0303 970.772 10.9391 968.5368 10.5327 966.6064 6.9767 963.9648 7.9927 960.2056 26.6871 961.5264 32.7831 962.644 45.1783 959.6976 54.7287 961.7296 56.2527 959.2912 60.9263 956.6496 60.5199 956.4464 60.7231Z" />
  <path class="MI" d="M742.9849 125.8488 742.4769 125.036 742.3753 126.052 742.9849 125.8488ZM744.6105 124.02 743.3913 122.3944 743.1881 123.1056 744.6105 124.02ZM745.6265 116.7048 744.6105 115.7904 744.6105 115.9936 745.6265 116.7048ZM743.0865 196.2576 755.6849 194.2256 759.2409 193.5144 774.7857 190.7712 775.0905 192.092 776.1065 191.7872 782.8121 190.3648 789.2129 188.8408 795.7153 187.2152 795.6136 186.9104 798.9664 180.3064 798.6616 174.82 802.4208 165.3712 805.3672 167.0984 806.4848 164.9648 806.18 156.8368 803.4368 151.7568 799.3728 140.9872 795.8168 137.0248 793.988 136.5168 787.384 141.0888 788.0952 142.0032 784.6408 148.5056 781.288 147.896 780.272 141.0888 781.6944 140.5808 784.6408 133.7736 784.9456 121.7848 780.3736 111.6248 770.2136 109.8976 769.1976 108.3736 759.7488 105.6304 755.4816 110.9136 755.888 115.4856 752.6368 119.5496 753.348 125.8488 750.1984 128.084 750.1984 120.1592 747.3536 126.1536 744.0008 131.4368 741.7656 133.164 742.8832 138.752 741.4608 144.5432 742.2736 151.7568 741.2576 155.3128 748.5728 169.3336 749.4872 174.7184 748.5728 184.6752 743.696 195.8512 743.0864 196.2576ZM764.8288 104.716 762.1872 104.9192 763.8128 106.1384 764.8288 104.716ZM749.3856 107.3576 748.5728 107.3576 749.4872 107.764 749.3856 107.3576ZM767.1656 94.4544 766.1496 92.8288 765.7432 92.9304 767.1656 94.4544ZM675.116 101.8712 678.3672 103.7 695.0296 108.78 702.7512 110.812 710.2696 111.32 715.756 115.7904 715.756 122.6992 720.6328 127.576 720.6328 127.4744 724.5952 115.9936 729.3704 112.6408 733.028 108.5768 733.6376 112.2344 737.3968 106.4432 746.4392 102.9888 747.1504 101.5664 756.2944 102.684 759.8504 104.5128 761.5776 100.0424 763.2032 101.0584 770.3152 99.9408 768.588 97.096 765.4384 95.2672 766.048 88.6632 759.8504 92.1176 754.1608 91.4064 752.332 87.0376 752.9416 85.6152 745.22 89.2728 740.2416 89.5776 731.3008 95.064 730.2848 97.096 724.7984 95.7752 721.344 97.2992 714.4352 91.3048 699.0936 86.6312 698.7888 84.8024 688.9336 94.2512 683.3456 95.6736 675.4208 101.668 675.116 101.8712ZM711.0824 78.808 699.1952 84.7008 703.1576 88.5616 704.6816 84.7008 708.7456 79.7224 711.0824 78.808ZM697.7729 64.8888L689.6449 70.4768 689.2385 73.22 695.6393 68.5464 697.7729 64.8888Z" />
  <path class="MN" d="M574.0241 58.488 576.0561 65.7016 580.3233 91.7112 582.3553 102.0744 582.9649 111.2184 585.3017 116.7048 585.8097 121.3784 586.2161 122.9024 586.1144 123.2072 582.0504 129.9128 584.692 134.3832 589.772 170.1464 589.9752 174.82 595.0552 174.5152 615.0704 173.3976 665.0576 169.232 670.0361 168.724 670.0361 168.216 668.6136 160.3928 662.416 157.2432 657.5392 152.1632 649.8177 147.4896 647.3792 147.2864 643.6201 144.4416 644.6361 130.4208 641.08 127.1696 642.2993 121.48 648.8017 115.5872 647.684 103.3952 650.0208 100.7536 650.0208 100.7536 657.9457 92.4224 666.988 80.84 670.4424 78.4016 676.5385 75.4552 682.9392 70.68 678.672 71.4928 676.132 69.5624 666.3784 70.8832 664.8545 69.0544 656.1168 72.6104 649.1064 69.664 647.1761 67.3272 641.588 67.7336 637.8288 65.8032 639.0481 64.3808 634.2728 62.8568 630.0056 62.8568 623.1984 65.8032 621.8776 63.7712 611.108 62.2472 607.4504 53.1032 607.044 50.36 602.3704 49.0392 602.7768 56.8624 590.3816 57.7768 575.04 58.3864 574.024 58.488Z" />
  <path class="MO" d="M673.5921 234.9672 668.6137 230.5984 646.7697 233.3416 624.5193 235.272 603.6913 235.8816 603.6913 235.8816 603.5896 236.4912 606.1296 241.368 608.4664 242.9936 611.2096 247.8704 611.616 248.2768 612.632 249.0896 615.0704 250.8168 617.712 250.7152 619.1344 253.2552 615.5784 257.624 619.236 260.8752 619.6424 262.9072 624.2144 265.5488 626.7544 308.5256 626.8561 311.1672 627.0593 313.8088 627.1609 316.4504 627.3641 319.1936 627.4658 321.8352 632.241 321.5304 664.9562 318.8888 703.6658 315.1296 705.5962 319.092 701.1258 326.204 712.0986 324.5784 712.2002 324.5784 712.2002 323.7656 712.4034 319.092 714.4354 316.552 713.8258 313.7072 713.7242 313.6055 713.6225 313.5039 714.0289 312.1831 714.6385 312.3863 714.9433 313.1991 714.8417 313.5039 714.8417 313.6055 714.8417 314.4183 715.2481 314.52 716.0609 313.504 716.0609 313.4023 716.1625 313.0975 718.8041 311.4719 719.2106 311.2687 720.125 302.9375 719.9217 302.5311 719.6169 302.4295 712.4033 296.5367 713.5209 294.4031 711.4889 288.6119 707.8313 285.7671 700.9226 282.7191 696.5537 279.1631 697.0617 271.8479 698.3825 265.0407 691.0673 265.4471 688.8321 263.1103 687.8161 258.4367 676.2337 248.6831 672.9825 239.6407 673.7953 235.1703 673.7953 235.1703 673.5921 234.9671Z" />
  <path class="MS" d="M739.6321 444.6696 739.1241 444.7713 739.1241 444.8729 739.6321 444.6697ZM749.0809 443.4505 747.6585 443.4505 748.9793 443.5521 749.0809 443.4505ZM737.2953 444.4665 736.8889 444.8729 736.9906 444.9745 737.2954 444.4665ZM746.8458 443.6537 742.985 443.6537 746.6426 443.7554 746.8458 443.6537ZM704.4786 346.8289 704.4786 346.9306 700.2114 354.0426 700.6178 359.529 694.8266 365.9298 696.3506 367.7586 692.4898 384.0146 694.3186 387.469 693.3026 388.1802 693.4042 390.4154 693.4042 391.1266 695.741 396.613 695.5378 399.9658 699.297 404.5378 691.5754 417.7458 690.3562 425.6706 688.2226 428.8202 689.645 432.4778 688.3242 433.7986 723.3762 429.9378 722.157 434.8146 726.6274 443.5522 728.9642 446.4986 728.9642 446.3969 732.7234 442.1297 740.6482 440.4025 747.9634 441.2153 749.081 439.7929 749.081 439.6913 743.8994 408.3985 743.6962 385.5385 743.0866 343.8825 741.6642 342.9681 741.2578 342.1553 741.0546 342.1553 735.9746 342.8665 727.0338 344.0857 706.7138 346.6257 704.4786 346.8289Z" />
  <path class="MT" d="M476.7929 57.5736 443.1633 55.3384 418.6777 53.0016 394.2937 50.1568 379.1553 48.1248 354.9745 44.3656 342.8841 42.3336 315.8585 37.152 313.0137 36.5424 308.6449 57.2688 310.5753 61.028 312.0993 66.8192 311.1849 67.632 313.1153 72.9152 315.7569 75.1504 323.2753 87.7488 323.9865 89.8824 327.0345 89.6792 323.4785 106.3416 322.0561 106.748 320.1257 112.336 330.1841 113.0472 330.9969 117.7208 336.6865 131.64 337.7025 132.4528 341.6649 140.5808 342.6809 139.768 351.1137 139.6664 361.7817 140.784 364.4233 137.3296 367.5729 143.0192 368.1825 143.324 368.2841 142.7144 369.7065 132.7576 404.4537 137.0248 432.1905 139.6664 446.8209 140.8856 472.9321 142.4096 474.2529 142.5112 474.5577 142.5112 474.6594 141.0888 474.9642 134.0784 475.3706 124.8328 475.4722 122.496 475.6754 118.432 477.301 86.5296 478.6218 61.7392 478.7234 57.6752 476.793 57.5736Z" />
  <path class="NC" d="M921.1913 328.9472 920.0737 330.0648 920.2769 330.268 921.1913 328.9472ZM922.0041 323.0544 921.4961 323.8672 921.6993 324.68 922.0041 323.0544ZM928.1001 313.6056 926.5761 314.6216 925.7633 315.8408 928.1001 313.6056ZM941.2065 307.2048 940.5969 306.7984 939.2761 306.6968 941.2065 307.2048ZM938.4633 306.5952 937.5489 306.5952 936.0249 307.408 938.4633 306.5952ZM941.6129 307.7128 944.5593 300.3976 942.5273 303.4456 941.6129 307.7128ZM945.9817 298.0608 947.3025 296.1304 946.5913 296.1304 945.9817 298.0608ZM954.5161 290.136 952.2809 278.8584 954.2113 284.7512 954.5161 290.136ZM942.1209 264.4312 941.9177 264.5328 941.6129 264.6344 941.6129 264.6344 941.7146 264.6344 947.3026 274.0832 951.6714 278.452 942.121 264.4312 942.121 264.4312ZM940.2922 265.0408 939.4794 265.244 939.4794 265.244 939.6826 265.3457 941.4098 265.3457 941.2065 264.7361 941.2065 264.7361 940.9018 264.8377 940.597 264.8377 940.597 264.8377 940.597 265.0409 940.3938 265.1425 940.2921 265.0409 940.2921 265.0409ZM846.3121 288.2057 845.8041 289.7297 845.9057 294.0985 844.7881 293.9969 842.1465 299.3817 839.2001 299.6865 833.7137 305.0713 831.2753 304.1569 828.1257 308.8305 819.7945 316.3489 815.7305 317.3649 811.4633 321.3273 811.2601 323.9689 807.5009 326.0009 807.6026 330.4713 807.6026 331.4873 808.9234 331.1825 823.1474 328.2361 827.0082 327.4233 828.329 327.1185 828.6338 327.1185 862.365 316.4505 868.0546 319.3969 879.5354 319.8033 887.9682 318.1777 910.625 332.5033 911.0314 332.1985 921.4962 327.9313 921.5978 322.3433 925.357 315.5361 929.421 311.6753 937.8538 306.0873 938.9714 304.0553 941.2066 305.0713 942.2226 298.3657 941.0034 300.7025 936.7362 302.1249 932.6722 302.2265 937.6506 298.5689 936.1266 296.9433 937.8538 293.2857 928.3034 291.7617 927.897 291.2537 936.025 289.7297 938.6666 291.0505 942.0194 290.7457 944.7626 288.7137 946.7946 284.7513 948.6234 284.2433 948.3186 278.6553 945.9818 276.4201 943.645 278.5537 944.153 283.9385 942.4258 277.3345 941.105 277.0297 931.0466 281.1953 935.517 276.8265 935.7202 275.0993 940.3938 273.9817 941.7146 270.5273 944.8642 272.3561 941.5114 267.3777 939.1746 265.3457 939.1746 265.3457 898.5346 276.9281 872.6266 283.5321 846.4138 288.4089 846.3122 288.2057Z" />
  <path class="ND" d="M571.8905 58.488 541.2073 59.0976 519.7697 58.996 501.3801 58.5896 479.8409 57.7768 478.7233 57.6752 478.6216 61.7392 477.3008 86.5296 475.6752 118.432 475.472 122.496 479.4344 122.6992 524.24 123.9184 565.5912 123.6136 582.7616 123.1056 586.216 122.9024 585.8096 121.3784 585.3016 116.7048 582.9648 111.2184 582.3552 102.0744 580.3232 91.7112 576.056 65.7016 574.024 58.488 571.8904 58.488Z" />
  <path class="NE" d="M588.4513 195.4448 585.3017 192.2952 574.2273 189.044 570.6713 188.9424 565.2865 190.4664 558.8857 186.4024 538.8705 186.6056 509.7113 186.3008 475.2689 185.1832 472.2209 185.0815 472.1192 187.7231 471.7128 195.6479 470.7984 214.2407 470.2904 224.9087 470.1888 227.5503 472.6272 227.652 497.4176 228.5664 502.2944 228.7696 501.888 248.6832 501.7864 250.004 505.6472 250.1056 519.3632 250.3088 553.5008 250.3088 570.6712 249.9024 608.1616 248.48 611.616 248.2768 611.2096 247.8704 608.4664 242.9936 606.1296 241.368 603.5896 236.4912 603.6912 235.8816 603.6912 235.5768 600.5416 222.7752 601.1512 220.7432 597.6968 215.968 597.4936 210.2784 594.344 205.3 591.0928 195.7496 590.3816 195.648 588.4512 195.4448Z" />
  <path class="NH" d="M956.4465 60.7232 955.1257 62.3488 953.6017 62.044 952.7889 68.7496 952.7889 68.8512 955.2273 77.9952 955.0241 79.824 950.6553 85.6152 951.7729 90.8984 951.7729 97.5024 950.9601 103.5984 955.5321 120.2608 955.5321 120.2608 955.5321 120.2608 959.6977 118.94 972.4993 114.6728 978.2905 108.3736 978.2905 108.3736 978.2905 106.748 978.5953 104.1064 977.8841 104.4112 977.7825 103.8016 971.3817 95.9784 971.1785 95.2672 956.4465 60.7232 956.4465 60.7232Z" />
  <path class="NJ" d="M949.0297 198.188 948.5217 196.9688 948.5217 198.188 949.0297 198.188ZM950.0457 194.4288 950.3505 191.3808 949.7409 194.0224 950.0457 194.4288ZM945.8801 163.2376 935.2121 160.596 933.3833 160.088 931.6561 159.6816 931.6561 159.6816 927.3889 169.1304 929.2177 171.3656 929.1161 178.1728 931.0465 178.4776 935.0089 188.8408 934.8057 189.1456 929.8273 196.4608 930.3353 202.0488 942.3241 206.1128 942.4257 210.7864 945.1689 206.9256 945.5753 201.3376 948.4201 199.4072 947.3025 195.2416 949.4361 190.2632 949.4361 179.392 948.7249 175.836 943.9497 175.9376 945.1689 171.0608 945.8801 163.2376 945.8801 163.2376Z" />
  <path class="NM" d="M483.9049 321.124 484.0065 318.4824 484.1082 315.8408 484.2098 313.1992 480.9586 313.0976 458.505 312.0816 435.9498 310.6592 384.7434 306.1888 381.5938 305.884 381.1874 309.5416 373.5674 388.18 372.8562 395.5968 370.0114 425.5688 370.4178 425.6704 384.4386 426.9912 385.7594 419.8792 388.2994 417.8472 416.7474 420.3872 416.9506 420.3872 414.4106 415.4088 427.3138 416.3232 459.521 418.152 479.6378 419.0664 483.0922 323.7656 483.8034 323.8673 483.905 321.124Z" />
  <path class="NV" d="M297.9769 290.8472 308.5433 225.112 313.9281 192.1936 314.5377 188.9424 311.5913 188.4344 300.1105 186.3008 271.3577 180.6112 268.5129 180.0016 265.6681 179.392 251.3425 176.2424 225.6377 170.1464 222.7929 169.4352 221.8785 173.296 208.0609 231.9192 220.0497 249.1912 232.4449 266.3616 254.3905 297.8576 270.1385 320.0064 278.2665 330.8776 280.9081 334.4336 280.9081 334.1288 282.5337 330.6744 282.6353 314.52 287.1057 310.7608 290.6617 313.9104 292.9985 314.012 297.4689 294.3016 297.4689 294.0984 297.9769 290.8472Z" />
  <path class="NY" d="M945.5753 171.4672 944.0513 173.6008 943.6449 174.2104 945.5753 171.4672ZM959.5961 166.4888 964.6761 162.0184 964.6761 161.8152 959.5961 166.4888ZM946.2865 169.6384 946.2865 166.184 945.9817 168.0128 946.2865 169.6384ZM969.8577 153.3824 968.6385 153.0776 968.4353 153.992 969.8577 153.3824ZM972.6009 151.5536 972.4993 152.5696 972.7025 151.96 972.6008 151.5536ZM969.756 151.6552 962.9488 157.9544 952.484 162.4248 949.7408 164.7616 949.5376 166.9968 946.6928 169.3336 947.0992 172.3816 951.468 170.6544 957.8688 165.4728 964.9808 161.7136 975.7504 151.5536 968.1304 157.3448 965.692 158.3608 969.756 151.6552ZM972.9056 147.388 973.312 146.7784 972.0928 148.2008 972.9056 147.388ZM858.7072 143.6288 857.0816 143.4256 858.3008 145.0512 858.7072 143.6288ZM892.4384 112.5392 892.6416 111.4216 891.8288 112.4376 892.4384 112.5393ZM892.9464 105.2241 892.54 105.4273 892.032 106.5449 892.9464 105.2241ZM849.9696 162.9329 850.6808 165.9809 856.0656 167.3017 886.952 158.8689 918.0416 149.5217 923.7312 153.8905 924.8488 156.4305 931.4528 159.2753 931.656 159.6817 933.3832 160.0881 935.212 160.5961 945.88 163.2377 945.6768 162.7297 946.5912 166.8953 948.6232 166.3873 949.7408 161.8153 949.7408 161.7136 947.912 159.9864 950.5536 156.7352 949.3344 155.2112 945.4736 140.276 945.2704 139.26 944.7624 138.9552 944.4576 134.4848 944.1528 129.608 943.848 124.3248 943.848 124.02 943.6448 124.1217 938.5648 107.4593 933.18 99.0265 931.656 88.9681 927.084 78.3001 926.4744 78.6049 905.24 85.7169 900.9728 90.2889 896.1976 99.4329 896.4008 101.4649 890.1016 111.0153 893.9624 112.3361 895.08 119.5497 890.6096 125.4425 877.1984 133.5705 874.6584 132.5545 864.7016 133.9769 855.456 139.5649 855.964 142.5113 859.2152 145.3561 857.3864 154.2969 850.0712 162.8313 849.9696 162.9329Z" />
  <path class="OH" d="M845.8041 197.4768 843.2641 186.504 842.7561 184.2688 839.9113 171.772 836.2537 174.1088 828.4305 180.1032 823.3505 186.3008 819.3881 186.9104 812.0729 191.076 808.0089 188.6376 795.7153 187.2152 795.7153 187.2152 789.2129 188.8408 782.8121 190.3648 776.1065 191.7872 775.0905 192.092 775.3953 193.7176 778.1385 209.0592 784.2345 245.0256 784.4377 246.7528 785.2505 245.94 790.2289 245.3304 792.8705 246.6512 798.0521 251.1216 799.4745 250.512 804.9609 252.9504 807.6025 250.9184 810.6505 252.1376 813.0889 251.528 816.9497 247.7688 818.8801 251.02 823.1473 253.4584 823.3505 253.6616 823.3505 253.6616 827.7193 251.528 829.2433 248.1752 828.0241 244.7208 831.4785 239.4376 834.0185 239.0312 833.7137 234.5608 837.8793 228.8712 838.5905 229.684 842.3497 226.8392 845.6009 221.9624 846.1089 199.712 846.3121 199.6104 845.8041 197.4768Z" />
  <path class="OK" d="M627.3641 319.1936 627.1609 316.4504 627.0592 313.8088 626.856 311.1672 622.9952 311.472 583.676 313.3008 528.5072 314.1136 504.936 313.8088 500.5672 313.7072 498.9416 313.7072 492.5408 313.504 490.5088 313.4023 486.2416 313.3007 484.2096 313.1991 484.108 315.8407 484.0064 318.4822 483.9047 321.1238 483.8031 323.8671 484.4127 323.8671 508.9999 324.4767 535.0095 324.7815 535.3143 359.5287 537.1431 365.6247 541.2071 369.4855 545.5759 369.6887 546.4903 367.8599 552.4847 373.3463 560.3079 374.1591 561.7303 375.7847 564.5751 374.4639 571.6871 377.8167 571.6871 379.7471 574.3287 379.6454 577.0719 377.3086 582.1519 380.5598 586.9271 382.287 590.1783 377.8166 600.5415 382.6934 604.4023 379.5438 607.5519 378.3246 610.0919 378.9342 619.6423 376.191 624.7223 378.3246 629.2943 381.271 633.2567 381.9822 633.3583 381.9822 633.2567 377.4102 632.1391 349.775 632.0374 345.203 628.075 324.6798 627.4654 321.835 627.3638 319.1934Z" />
  <path class="OR" d="M159.1913 151.5536 175.3457 156.4304 218.8305 168.4192 222.7929 169.4352 225.6377 170.1464 251.3425 176.2424 265.6681 179.392 268.5129 180.0016 268.9193 177.868 278.5713 137.8376 275.8281 131.3352 276.1329 128.7952 286.6993 114.9776 291.6777 102.4808 288.2233 98.7216 288.1216 96.7912 288.1216 96.6896 286.1912 96.2832 257.6416 89.7808 256.1176 90.492 250.5296 89.5776 239.252 90.7968 232.3432 89.8824 225.028 89.7807 224.4184 87.9519 208.9752 86.5295 203.4888 83.5831 202.7776 81.6527 203.3872 74.0327 199.7296 70.0703 199.4248 70.1719 198.7136 70.6799 193.6336 68.0383 190.5856 68.9527 188.5536 67.9367 186.42 76.6743 184.9976 79.1127 178.6984 94.4543 176.8696 102.8871 175.752 102.9888 169.8592 117.0096 165.8968 123.004 164.4744 124.02 160.8168 131.132 160.1056 138.6504 157.8704 145.356 159.1912 151.452 159.1912 151.5536ZM196.3768 68.14 196.072 67.2256 195.9704 67.9368 196.3768 68.14Z" />
  <path class="PA" d="M931.4529 159.2752 924.8489 156.4304 923.7313 153.8904 918.0417 149.5216 886.9521 158.8688 856.0657 167.3016 850.6809 165.9808 849.9697 162.9328 848.2425 164.2536 845.4993 166.184 840.5209 171.264 839.9113 171.772 842.7561 184.2688 843.2641 186.504 845.8041 197.4768 846.3121 199.6104 846.3121 199.6104 850.7825 218.9144 865.2097 215.3584 867.2417 214.8504 869.0705 214.3424 876.2841 212.412 916.0097 201.3376 923.2233 199.1024 924.9505 198.5944 924.9505 198.5944 925.7633 196.5624 927.5921 195.14 930.0305 195.14 930.3353 194.2256 934.2977 189.7552 934.7041 189.044 935.0089 188.8408 931.0465 178.4776 929.1161 178.1728 929.2177 171.3656 927.3889 169.1304 931.6561 159.6816 931.6561 159.6816 931.4529 159.2752Z" />
  <path class="RI" d="M980.1193 140.3776 980.0177 138.244 979.7129 139.0568 980.1193 140.3776ZM982.1513 138.752 980.8305 136.212 980.7288 138.8536 982.1512 138.752ZM981.5416 135.6024 982.2528 137.4312 983.1672 139.0568 983.7768 137.8376 982.8624 136.1104 982.5576 134.8912 981.5416 134.8912 981.5416 135.6024ZM970.264 131.4368 970.6704 132.5544 973.82 141.3936 974.4296 143.5272 974.5313 145.9656 974.7345 145.6608 979.6113 141.8 978.6969 134.8912 980.7289 134.4848 980.7289 134.4848 976.2585 129.1 971.5849 130.9288 970.2641 131.4368Z" />
  <path class="SC" d="M828.3289 327.1184 828.3289 327.1184 825.4841 332.7064 825.9921 334.7384 835.2377 338.5992 840.0129 344.6952 859.6217 361.1544 864.1937 363.288 872.5249 375.1752 878.6209 380.8648 878.6209 380.8648 879.6369 376.1912 878.0113 371.7208 882.3801 374.972 884.8185 373.0416 880.6529 369.5872 885.7329 369.2824 893.6577 362.5768 892.7433 360.8496 897.6201 357.0904 897.1121 355.2616 900.6681 353.0264 900.8713 347.8448 906.4593 337.4816 910.2185 332.7064 910.6249 332.5032 887.9681 318.1776 879.5353 319.8032 868.0545 319.3968 862.3649 316.4504 828.6337 327.1184 828.3289 327.1184Z" />
  <path class="SD" d="M582.7617 123.1056 565.5913 123.6136 524.2401 123.9184 479.4345 122.6992 475.4721 122.496 475.3704 124.8328 474.964 134.0784 474.6592 141.0888 474.5576 142.5112 474.2528 142.5112 474.1512 145.1528 473.1352 166.4888 472.3224 182.3384 472.2207 185.0816 475.2687 185.1832 509.7111 186.3008 538.8703 186.6056 558.8855 186.4024 565.2863 190.4664 570.6711 188.9424 574.2271 189.0441 585.3015 192.2953 588.4511 195.4449 590.3815 195.6481 590.3815 194.9369 588.1463 191.5841 589.5687 186.1993 587.8415 174.9217 589.9751 174.82 589.7719 170.1464 584.6919 134.3832 582.0503 129.9128 586.1143 123.2072 586.216 122.9024 582.7616 123.1056Z" />
  <path class="TN" d="M812.3777 295.724 783.3201 300.6008 741.9689 306.0872 738.5145 306.1888 739.5305 310.2528 719.0073 312.996 716.0609 313.4024 716.0609 313.5041 715.2481 314.5201 714.8417 314.4184 714.8417 313.6056 714.8417 313.504 713.7241 313.6056 713.8257 313.7073 714.4353 316.5521 712.4033 319.0921 712.2001 323.7657 712.2001 324.5785 712.2001 324.6801 709.1521 330.5729 709.7617 334.7385 706.9169 339.2089 707.9329 343.2729 704.2753 346.6257 704.4785 346.8289 706.7137 346.6257 727.0337 344.0857 735.9745 342.8665 741.0545 342.1553 741.2577 342.1553 741.1561 341.9521 758.2249 339.6153 766.3529 338.5993 782.6089 335.9577 785.6569 335.4497 787.4857 335.2465 796.1217 333.6209 798.2553 333.2145 806.1801 331.6905 807.6025 331.4873 807.6025 330.4713 807.5009 326.0009 811.2601 323.9689 811.4633 321.3273 815.7305 317.3649 819.7945 316.3489 828.1257 308.8305 831.2753 304.1569 833.7137 305.0713 839.2001 299.6865 842.1465 299.3817 844.7881 293.9969 845.9057 294.0985 845.804 289.7298 846.312 288.2058 844.6864 288.5106 838.8952 290.1362 831.9864 291.5586 814.6128 295.1146 812.784 295.4193 812.3776 295.7241Z" />
  <path class="TX" d="M590.1785 543.2216 585.3017 524.832 585.3017 528.2864 590.1785 543.2216ZM589.0609 510.9128 585.6065 517.4152 585.2001 519.5488 589.0609 510.9128ZM591.8041 506.1376 595.0553 501.8704 592.7185 503.2928 591.8041 506.1376ZM603.2849 495.7744 595.6649 499.7368 597.7985 499.3304 603.2849 495.7744ZM604.3009 494.352 606.4345 492.6248 605.6217 492.828 604.3009 494.352ZM483.8033 323.8672 483.0921 323.7656 479.6377 419.0664 459.5209 418.152 427.3137 416.3232 414.4105 415.4088 416.9505 420.3872 417.0521 420.4888 428.0249 431.4616 434.3241 438.8784 442.6553 445.076 448.5481 455.8456 450.7833 467.1232 455.5585 470.2728 459.3177 474.4384 464.7025 476.3688 472.5257 481.3472 476.0817 482.668 480.9585 477.7912 482.4825 472.6096 485.0225 467.6312 492.9473 464.4816 495.9953 466.0056 504.8345 466.7168 512.8609 471.6952 518.3473 472.7112 516.8233 475.556 519.9729 477.588 522.9193 481.144 523.5289 484.9032 525.4593 487.4432 529.9297 498.2128 534.4001 501.972 537.8545 507.6616 542.2233 512.132 544.1537 512.7416 545.7793 524.324 550.5545 526.9656 550.7577 530.6232 551.9769 530.3184 560.3081 540.4784 564.4737 541.3928 569.7569 544.5424 577.8849 544.5424 583.7777 547.7936 590.7881 546.2696 587.6385 543.3232 584.7937 534.7888 583.6761 527.372 582.0505 524.9336 582.7617 519.9552 580.6281 519.752 577.7833 515.0784 581.0345 518.5328 584.7937 517.212 586.8257 511.8272 582.7617 506.3408 588.8577 507.052 591.7025 502.6832 591.2961 501.1592 593.8361 497.8064 593.2265 500.7528 596.0713 498.5176 594.9537 494.5552 598.6113 496.4856 603.2849 493.844 598.7129 489.0688 601.5577 490.1864 606.8409 490.4912 613.7497 488.9672 621.4713 483.7856 626.1449 479.9248 626.8561 477.08 629.7009 474.1336 628.1769 469.2568 628.4817 466.2088 633.5617 463.9736 633.1553 469.3584 636.2033 469.3584 632.8505 472.2032 646.3633 465.0912 648.5985 464.9896 650.0209 458.4872 650.4273 458.4872 651.9513 454.728 652.6625 443.1456 653.5769 438.472 650.9353 430.1408 647.6841 424.4512 647.5825 421.708 644.2297 417.0344 642.1977 397.4256 642.096 394.9872 641.8928 392.4472 641.2832 383.5064 635.1873 383.7096 633.6632 382.084 633.3584 381.9823 633.2568 381.9823 629.2944 381.2711 624.7224 378.3247 619.6424 376.1911 610.092 378.9343 607.552 378.3247 604.4024 379.5439 600.5416 382.6935 590.1784 377.8167 586.9272 382.2871 582.152 380.5599 577.072 377.3087 574.3288 379.6455 571.6872 379.7472 571.6872 377.8168 564.5752 374.464 561.7304 375.7848 560.308 374.1592 552.4848 373.3464 546.4904 367.86 545.576 369.6888 541.2072 369.4856 537.1432 365.6248 535.3144 359.5288 535.0096 324.7816 509 324.4768 484.4128 323.8672 483.8032 323.8672Z" />
  <path class="UT" d="M358.2257 195.7496 332.0129 191.7872 317.3825 189.4504 314.5377 188.9424 313.9281 192.1936 308.5433 225.112 297.9769 290.8472 297.4689 294.0984 300.1105 294.5048 326.3233 298.6704 344.7129 301.312 378.9521 305.5792 381.5937 305.884 381.7969 303.2424 382.6097 295.216 384.5401 276.7248 390.0265 223.7912 390.3313 221.1496 388.2993 220.9464 362.3913 217.7968 358.4289 217.2888 360.9689 197.4768 361.1721 196.156 358.2257 195.7496Z" />
  <path class="VA" d="M940.5969 264.8376 940.9017 264.8376 941.2065 264.736 941.2065 264.736 941.0033 264.228 940.5969 264.8376 940.5969 264.8376ZM937.1425 253.4584 937.1425 253.9664 937.6505 253.6616 937.1425 253.4584ZM938.9713 249.9024 938.8697 249.0896 938.8697 249.0896 938.9713 249.9024ZM938.3617 251.1216 938.1585 252.4424 937.8537 252.9504 938.3617 251.1216ZM939.2761 248.48 939.3778 247.8704 939.1746 248.48 939.2762 248.48ZM939.8858 245.7368 940.1906 245.0256 939.6826 246.8544 939.8858 245.7368ZM939.9874 244.2128 940.3938 241.9776 939.8858 242.4856 939.9875 244.2128ZM941.8162 234.1544 942.0194 233.24 941.9178 233.4432 941.8162 234.1544ZM941.4098 231.8176 940.089 232.3256 938.057 233.24 937.3458 234.1544 937.6506 234.256 935.2122 249.3944 936.1266 251.8328 937.549 245.5336 940.1906 237.304 941.4098 231.9192 941.4098 231.8176ZM943.4418 231.0048 943.137 231.1064 943.0353 231.5128 942.5273 234.6624 942.9337 233.5448 943.4417 231.0048ZM837.2697 269.9176 836.5585 270.9336 831.6817 277.1312 827.8209 280.1792 827.0081 282.8208 821.1153 290.5424 813.4953 294.6064 812.7841 295.4192 814.6129 295.1144 831.9865 291.5584 838.8953 290.136 844.6865 288.5104 846.3121 288.2056 846.4138 288.4088 872.6266 283.532 898.5346 276.928 939.1746 265.3456 939.1746 265.3456 938.8698 264.8376 938.7681 264.5328 939.4793 265.244 939.4793 265.244 939.4793 265.244 940.2921 265.0408 940.1905 264.9392 939.4793 261.4848 939.9873 261.5864 941.6129 264.6344 941.6129 264.6344 941.6129 264.6344 941.9177 264.5328 942.1209 264.4311 941.7145 263.6183 937.5489 257.2175 932.3673 258.1319 930.0305 260.0623 927.7953 258.0303 920.1753 255.4903 914.8921 255.2871 925.1537 254.3727 930.8433 258.2335 932.4689 255.6935 927.8969 249.9023 931.1481 250.1055 929.4209 245.4319 925.3569 245.6351 915.7049 237.8119 914.4857 237.8119 928.1001 244.5175 927.1857 239.8439 928.1001 238.3199 921.1913 235.6783 915.1969 235.2719 912.2505 232.6303 909.8121 234.1543 908.8977 227.1439 909.9137 227.3471 909.7105 221.6575 909.5073 221.4543 909.3041 221.556 909.1009 221.4543 908.5929 221.0479 908.2881 220.7431 905.0369 219.3207 901.6841 216.8823 897.0105 215.6631 896.7057 215.5615 896.7057 215.6631 896.0961 219.9303 886.6473 215.8663 886.8505 221.7591 881.6689 231.6143 878.5193 235.0687 876.4873 241.0631 870.2897 238.9295 867.2417 252.7471 864.8033 257.4207 864.3969 263.5167 862.5681 266.4631 855.7609 268.4951 850.1729 272.8639 847.5313 273.2703 844.9913 275.5055 838.5905 273.1687 837.4729 270.0191 837.2697 269.9175Z" />
  <path class="VT" d="M955.5321 120.2608 950.9601 103.5984 951.7729 97.5024 951.7729 90.8984 950.6553 85.6152 955.0241 79.824 955.2273 77.9952 952.7889 68.8512 951.4681 69.3592 945.8801 71.3912 940.3937 73.5248 927.7953 78.0968 927.0841 78.3 931.6561 88.968 933.1801 99.0264 938.5649 107.4592 943.6449 124.1216 943.8481 124.02 944.6609 123.7152 946.9977 123.004 949.0297 122.2928 954.8209 120.5656 955.5321 120.2608 955.5321 120.2608Z" />
  <path class="WA" d="M190.4841 61.8408 190.5857 60.1136 190.3825 60.2152 190.4841 61.8408ZM212.1249 52.5952 212.7345 51.5792 212.0233 51.4776 212.125 52.5952ZM210.1946 50.7664 210.8042 48.7344 210.1946 48.5312 210.1946 50.7664ZM217.6114 47.82 217.5097 45.788 215.7825 48.4296 217.6113 47.82ZM217.8145 43.5528 218.1193 41.5208 217.9161 41.0128 217.8145 43.5528ZM218.1193 33.596 218.0177 32.4784 217.6112 32.3768 218.1192 33.596ZM221.3704 26.8904 220.456 26.7888 218.6273 29.6336 221.3704 26.8904ZM218.8304 24.1472 219.3385 23.7408 219.4401 23.436 218.8305 24.1472ZM218.3225 24.452 218.0177 22.42 217.1033 24.1472 218.3225 24.452ZM217.8145 21.6072 216.9001 21.2008 217.6113 22.2168 217.8145 21.6072ZM220.8625 23.3344 220.8625 22.0136 220.5577 22.5216 220.8625 23.3344ZM221.7769 22.0136 221.3705 21.7088 221.2689 21.7088 221.7768 22.0136ZM215.9856 19.7784 215.4776 19.372 215.2744 19.2704 215.9856 19.7784ZM219.7448 19.372 217.0017 20.0832 217.7129 20.2864 219.7448 19.372ZM217.5096 19.1688 217.0017 18.5592 216.9 18.6608 217.5096 19.1688ZM219.6432 17.9496 219.2368 17.9496 219.7448 18.1528 219.6432 17.9496ZM199.7296 70.0704 203.3872 74.0328 202.7776 81.6528 203.4888 83.5832 208.9752 86.5296 224.4184 87.952 225.028 89.7808 232.3432 89.8824 239.252 90.7968 250.5296 89.5776 256.1176 90.492 257.6416 89.7808 286.1912 96.2832 288.1216 96.6896 287.9184 95.6736 288.3248 91.1016 287.8168 86.7328 299.6024 33.6976 297.9768 33.3928 274.2024 27.8048 253.476 22.5216 230.0064 16.0192 222.996 14.292 224.6216 23.1312 223.0976 25.976 220.3544 24.5536 222.996 36.8472 220.1512 40.9112 218.8304 44.6704 218.8304 48.5312 212.836 52.6968 210.296 51.0712 207.8576 52.2904 212.328 46.4992 211.2104 50.4616 213.7504 47.7184 215.7824 48.1248 215.1728 43.0448 216.4936 43.248 219.2368 37.152 218.3224 36.2376 214.7664 40.8096 212.4296 40.9112 214.9696 38.0664 217.8144 37.3552 216.7984 32.1736 213.9536 31.4624 212.5312 29.024 210.804 29.9384 201.4568 25.8744 193.2272 19.4736 190.992 25.6712 190.7888 28.3128 192.516 32.9864 191.3984 48.1248 190.5856 50.4616 195.1576 50.868 190.5856 54.1192 193.024 55.3384 191.0936 61.8408 190.1792 56.7608 188.452 62.6536 190.7888 65.4984 193.3288 65.2952 196.3768 67.124 197.9008 70.0704 199.7296 70.0704 199.7296 70.0704Z" />
  <path class="WI" d="M728.1513 122.2928 725.6113 125.4424 724.0873 130.0144 724.7985 132.5544 728.1513 122.2928ZM669.8329 98.4168 671.3569 96.2832 670.2393 97.2992 669.8329 98.4168ZM672.1697 95.064 671.6617 94.4544 670.5441 95.1656 672.1697 95.064ZM650.0209 100.7536 647.6841 103.3952 648.8017 115.5872 642.2993 121.48 641.0801 127.1696 644.6361 130.4208 643.6201 144.4416 647.3793 147.2864 649.8177 147.4896 657.5393 152.1632 662.4161 157.2432 668.6137 160.3928 670.0361 168.216 670.0361 168.724 670.0361 168.724 672.9825 172.28 672.1697 175.0232 673.1857 181.0176 676.2337 185.1832 681.8217 188.1296 681.7201 188.6376 681.7201 188.6376 703.8689 186.0976 712.0985 185.0816 725.8145 183.1512 725.4081 181.6272 725.4081 176.852 722.6649 171.772 721.9537 165.3712 723.2745 158.2592 722.5633 152.7728 725.0017 145.9656 724.0873 144.848 724.2905 138.5488 725.6112 133.7736 724.0873 132.148 721.1409 133.164 719.5153 137.4312 715.6545 139.6664 716.8737 134.2816 720.3281 129.7096 720.5313 127.6776 720.6329 127.5759 715.7561 122.6991 715.7561 115.7903 710.2697 111.3199 702.7513 110.8119 695.0297 108.7799 678.3673 103.6999 675.1161 101.8711 674.8113 102.1759 669.6297 101.4647 667.9025 102.4807 668.6137 95.0639 660.2825 99.3311 650.1225 100.9567 650.0209 100.7535ZM669.9345 95.3687 669.7313 94.6575 669.0201 94.9623 669.9345 95.3687ZM666.2769 94.6575 666.5817 94.0479 666.3785 93.8447 666.2768 94.6575ZM673.6936 92.9303 673.3888 91.5079 673.084 93.2351 673.6936 92.9303Z" />
  <path class="WV" d="M865.2097 215.3584 850.7825 218.9144 846.3121 199.6104 846.3121 199.6104 846.1089 199.712 845.6009 221.9624 842.3497 226.8392 838.5905 229.684 837.8793 228.8712 833.7137 234.5608 834.0185 239.0312 831.4785 239.4376 828.0241 244.7208 829.2433 248.1752 827.7193 251.528 823.3505 253.6616 823.3505 253.6616 823.3505 253.8648 825.3825 260.9768 831.1737 267.9872 834.4249 269.816 836.9649 269.816 837.2697 269.9177 837.4729 270.0193 838.5905 273.1689 844.9913 275.5057 847.5313 273.2705 850.1729 272.8641 855.7609 268.4953 862.5681 266.4633 864.3969 263.5169 864.8033 257.4209 867.2417 252.7473 870.2897 238.9297 876.4873 241.0633 878.5193 235.0689 881.6689 231.6145 886.8505 221.7593 886.6473 215.8665 896.0961 219.9305 896.7057 215.6633 896.7057 215.5617 896.7057 215.5617 893.7593 210.4817 887.6633 209.7705 884.1073 212.5137 884.1073 214.5457 881.0593 215.2569 876.5889 218.4065 874.2521 218.9145 869.5785 225.5185 867.2417 214.8505 865.2097 215.3585Z" />
  <path class="WY" d="M472.3225 182.3384 473.1353 166.4888 474.1513 145.1528 474.2529 142.5112 472.9321 142.4096 446.8209 140.8856 432.1905 139.6664 404.4537 137.0248 369.7065 132.7576 368.2841 142.7144 368.1825 143.324 367.7761 146.6768 365.9473 159.7832 362.4929 186.1992 361.5785 192.8032 361.1721 196.156 360.9689 197.4768 358.4289 217.2888 362.3913 217.7968 388.2993 220.9464 390.3313 221.1496 392.7697 221.4544 417.8649 223.8928 437.9817 225.5184 468.1569 227.4488 470.1889 227.5504 470.2905 224.9088 470.7985 214.2408 471.7129 195.648 472.1193 187.7232 472.221 185.0816 472.3226 182.3384Z" />
</svg>