<?xml version="1.0" encoding="utf-8"?>
<svg xmlns="http://www.w3.org/2000/svg" viewBox="0 0 941 1024" style="stroke-width:0.25px;stroke-linejoin:round;stroke:#444;fill:#ddd" fill-rule="evenodd">
  <path class="UY" d="M148.105 23.0011L150.8992 25.6836 154.3641 36.3019 159.8409 39.9903 164.2 40.4374 171.9122 39.0961 176.1595 38.9844 178.5067 40.2139 181.0774 44.3494 183.8717 45.02 185.5483 44.1259 189.5721 40.5492 191.8075 39.5432 195.2724 39.655 197.5078 41.108 199.2961 42.7846 201.8669 43.9023 203.3199 43.3435 205.4436 40.6609 206.4495 40.2139 207.9025 40.8845 210.0262 43.2317 210.9204 43.9023 216.6207 42.6728 221.6504 38.6491 225.2271 32.837 226.1212 26.466 227.4625 21.3245 231.1509 14.73 235.9571 8.9179 240.4279 5.7883 242.1045 6.0119 245.4576 7.5767 247.246 7.5767 250.7109 5.7883 251.9404 5.3413 258.4231 4.1118 261.888 4 270.3826 6.3472 276.8653 5.2295 283.5716 5.0059 289.9426 9.4768 293.1839 14.9536 294.8605 17.0772 305.8141 24.5659 311.1791 27.1366 314.1969 29.2603 316.8794 31.831 318.4442 34.5135 319.0031 38.6491 318.4442 40.7727 318.6678 42.114 321.462 43.9023 323.2504 44.3494 324.927 44.2376 326.7153 44.4612 328.5036 45.6906 329.5096 46.8084 331.0744 49.3791 337.5571 56.8678 339.7925 58.6561 342.6986 61.3386 352.0873 67.3743 354.9934 70.3921 359.2407 77.5454 361.6997 81.0103 364.0469 83.0222 372.2062 87.6048 382.4891 96.323 388.1894 99.229 391.7661 102.5822 397.2429 109.2884 398.2488 111.5239 398.8077 113.6475 399.4783 115.6594 401.4902 117.336 404.8433 119.5714 406.4081 121.0244 407.5259 122.701 413.338 134.1017 416.0205 137.4548 427.5329 146.7318 430.3272 152.4321 431.4449 158.4678 431.4449 158.5795 430.5507 164.6152 427.5329 170.2037 426.7505 174.6746 426.6387 188.0871 425.6328 197.3641 425.6328 201.835 426.527 203.288 427.5329 204.8528 427.7564 204.8528 432.1155 204.1822 443.6279 204.9646 449.1047 203.8469 453.352 203.8469 455.0286 203.3998 456.4816 202.2821 457.264 201.1644 457.9347 199.9349 458.9406 198.7054 461.7349 196.8053 468.4411 192.2227 471.0119 189.7637 472.4649 186.6341 474.2532 179.5925 476.6004 176.91 479.9536 176.4629 484.2009 177.3571 488.2246 177.6924 490.4601 175.5688 490.7954 171.6568 490.1248 163.2739 491.0189 159.5855 493.8132 156.903 497.5017 156.0088 501.1901 157.0147 506.108 162.8268 512.479 166.5153 515.2733 168.8625 519.1853 173.6686 527.3446 181.0455 540.4218 195.6876 542.9925 199.5996 543.8867 202.9527 544.5573 210.3296 545.7868 213.7945 547.6869 215.6946 553.499 219.6066 555.5109 222.7362 557.8581 231.2308 559.4229 234.9193 562.2172 238.2724 565.1232 240.0607 572.053 242.7432 575.2944 244.7551 583.6772 252.3556 587.1421 254.591 589.7129 255.1498 592.0601 253.8086 594.4073 250.5672 597.6486 243.9727 599.884 243.1903 603.0136 247.1023 605.9197 252.0202 610.3905 258.0559 615.532 263.0856 622.5736 266.4387 624.809 268.7859 626.8209 271.4684 629.0563 273.8156 631.4035 275.3804 636.7685 277.3923 665.829 281.6396 671.8647 281.6396 674.5472 282.422 676.7826 284.7692 679.9122 291.2519 681.9241 294.0462 691.2011 301.5349 693.7718 304.2174 695.7837 308.0176 696.5661 311.7061 696.7897 320.0889 698.578 324.5597 699.2486 326.1245 704.0548 330.8189 709.7551 334.9545 715.1201 339.9842 720.4851 346.2433 732.5564 357.4205 742.2805 364.3503 750.8869 372.3978 755.0224 375.3039 756.9226 375.1921 758.5991 372.9567 761.8405 369.9388 765.0818 368.8211 768.5468 369.1564 771.8999 370.6095 774.9177 372.9567 775.9237 374.2979 777.4884 377.3157 779.165 378.7688 780.8416 379.4394 786.6537 379.9982 789.6715 380.8924 792.1305 382.1219 797.1602 385.5868 799.2838 387.8222 799.9545 389.9459 800.4015 392.0695 801.5193 394.1932 803.3076 396.3168 805.543 398.3287 810.4609 401.5701 820.7439 403.6937 823.3146 405.3703 824.3206 408.2763 824.5441 415.5415 829.5738 427.6128 838.5155 440.9135 840.6392 446.7256 841.7569 453.7672 842.3157 464.2737 843.2099 467.7386 844.7747 470.4211 849.2455 474.4449 851.0339 477.0156 854.0517 482.3806 857.6284 487.2986 861.8757 491.5459 872.941 499.4816 883.224 511.1058 893.1716 514.459 900.7721 519.1534 903.6781 520.1593 909.3784 520.1593 915.1905 523.736 920.8909 526.4185 923.5734 528.3186 935.1976 541.0605 936.7624 544.1901 936.2035 547.8785 933.9681 550.8964 927.5971 555.9261 924.1322 560.2851 920.4438 564.9795 908.7078 573.6977 903.7899 578.9509 902.3369 582.7512 901.8898 590.5751 900.6603 594.3754 898.7602 596.6108 877.4119 610.9175 871.3762 616.2825 866.4583 622.9888 866.3465 622.9888 864.7817 628.3538 861.9875 637.9661 862.0992 653.3905 866.0112 685.0218 861.9875 719.7826 861.4286 738.5602 866.4583 747.2783 870.035 747.2783 873.1646 746.6077 876.0706 746.6077 878.8649 748.7314 880.5415 752.0845 881.8827 755.8847 884.0064 758.2319 889.7067 757.8966 886.6889 760.0202 883.4475 762.9263 877.0766 770.7503 873.1646 777.6801 870.9292 785.057 867.4642 802.6051 864.1111 813.2233 863.2169 822.9474 861.5404 825.9652 855.393 830.2125 852.3751 832.895 843.8805 843.9604 834.4917 851.2255 831.3622 854.914 825.103 867.3206 823.5382 869.4442 823.0911 871.7914 819.2909 883.9745 822.1969 891.7985 821.9734 895.5987 814.7083 897.8341 798.5014 906.9993 785.536 916.1646 758.8227 942.4308 756.5872 945.3369 755.9166 949.0253 756.0284 952.2667 755.0224 954.6139 739.0392 958.3023 735.0154 958.5259 735.7978 956.7375 736.8037 955.3963 739.8216 952.602 738.5921 951.596 737.4744 950.2548 736.692 948.5782 736.2449 946.7899 736.5802 944.1074 738.3685 938.9659 738.8156 938.0717 736.1331 935.3892 731.4387 933.3773 726.409 932.1479 722.9441 932.0361 724.956 933.4891 731.4387 936.3952 730.0975 939.0777 727.1914 942.0955 723.9501 944.3309 721.2675 945.3369 720.1498 946.7899 720.1498 949.6959 721.3793 951.9314 724.2854 951.4843 724.0618 949.8077 726.6326 950.3666 729.8739 953.0491 731.4387 957.7435 730.0975 960.5377 726.8561 963.2202 687.5127 984.4568 685.5008 985.4627 674.5472 988.5923 668.9586 993.3985 665.2702 995.075 657.8933 997.3105 627.3798 1012.0642 623.6913 1012.7349 620.2264 1013.9644 615.7556 1019.3294 612.4024 1020 613.1848 1017.8763 613.5201 1016.5351 613.5201 1015.6409 611.7318 1012.8466 609.3846 1010.3877 606.255 1008.8229 599.3252 1007.9287 598.8781 1007.0345 598.9899 1005.6933 597.8722 1003.7932 596.0838 1002.4519 594.519 1001.6695 590.607 1000.8871 582.336 1001.3342 566.1292 1005.1344 559.4229 1003.7932 554.8403 999.2106 545.675 986.9157 538.857 983.2273 534.4979 982.892 522.8737 981.9978 515.6086 982.7802 506.5551 980.3212 499.4018 977.0799 491.5778 978.8682 483.3067 975.4033 472.2414 979.2035 465.9822 977.4152 454.358 981.4389 448.993 983.6744 437.4805 991.3866 428.7624 997.7575 417.2499 1004.5756 410.9908 1004.0167 405.7375 1007.0345 403.1668 1008.7111 402.1608 1013.182 398.3606 1007.8169 395.3428 1007.2581 392.1014 1006.0286 393.5545 1004.0167 393.778 1001.6695 391.8779 999.993 389.0836 999.5459 387.9659 1002.7872 384.501 1005.6933 382.8244 1005.6933 378.9124 1005.0227 374.8887 1005.6933 369.3001 1000.8871 358.7936 994.6279 355.9993 992.169 355.664 988.9276 358.6818 986.3569 361.5879 983.3391 366.0587 982.2213 363.488 979.2035 360.0231 977.7505 350.7461 974.062 344.3751 973.0561 338.116 973.2796 334.4275 975.8504 331.5215 975.5151 328.8389 974.1738 322.2444 970.0383 319.1149 968.5853 315.9853 966.3498 304.2493 963.1085 289.8308 961.2084 276.0829 955.1727 273.1769 953.0491 270.7179 947.7958 268.0354 945.2251 262.2233 940.9778 258.0878 936.1716 254.3993 932.5949 251.158 930.0242 246.4636 927.0064 243.8928 924.6592 244.1164 921.7531 242.9987 920.3001 240.4279 918.5118 239.3102 917.5058 236.0689 913.8174 232.8275 911.0231 227.2389 908.4524 218.2972 906.5523 202.6493 906.2169 193.037 906.8876 189.7956 904.0933 181.7481 904.3168 177.2772 907.1111 175.0418 904.3168 170.571 903.8697 165.653 906.2169 159.5056 909.0112 153.9171 903.3109 149.4462 903.0873 144.3047 904.0933 137.2631 907.3347 127.5391 911.1349 124.2977 910.6878 119.8268 913.4821 114.6854 913.035 109.5439 913.5938 103.7318 912.6997 105.5201 911.0231 103.9553 907.7817 99.0374 906.3287 95.9078 901.1872 96.3549 892.5809 91.884 887.7747 88.4191 881.9626 75.4537 866.4264 69.6416 863.6321 67.6297 860.3908 64.8354 853.4609 61.8176 850.4431 57.4585 848.543 52.7641 847.7606 48.7404 847.4253 43.9342 846.5311 41.6988 843.9604 39.6869 836.0246 37.675 831.5538 22.8095 809.8702 19.5681 807.0759 12.9736 803.0521 10.0675 800.4814 7.7204 796.3459 6.3791 791.9868 2.02 767.1736 1.2376 748.9549 3.5848 730.9597 3.026 726.4889 2.02 722.3534 1.4612 717.9943 2.3553 712.9646 4.7025 708.829 10.7382 700.8933 11.8559 696.3107 10.8499 692.1751 5.932 688.1514 4.8143 684.0158 5.932 680.1039 8.6145 676.7507 14.9855 670.4915 16.7738 666.2442 17.1091 661.4381 14.0913 643.2194 13.9795 634.3894 16.662 627.6832 23.9272 625.0007 40.2458 625.8948 47.7344 625.336 54.2172 622.0946 60.8117 615.9472 63.7177 612.147 64.8354 608.5703 65.1707 603.7641 65.9531 599.9639 68.5239 592.0282 69.8651 583.6453 68.3003 577.3861 64.8354 572.4682 57.235 564.4207 55.4466 560.844 54.4407 557.0438 54.2172 552.6847 54.5525 543.2959 54.2172 538.4898 52.8759 534.9131 54.2172 533.3483 52.6524 527.9833 50.7523 513.453 48.7404 510.4352 47.2873 507.1938 43.7107 491.5459 43.2636 486.8515 43.2636 486.2926 45.0519 484.0572 49.411 474.7802 60.5881 458.5734 61.4823 452.2024 59.5822 446.1668 47.6227 430.0717 45.6108 425.7127 46.6167 421.4653 50.5287 414.9826 52.3171 407.0469 52.8759 397.6581 52.2053 388.8282 50.5287 382.3454 44.9402 376.0862 42.8165 371.8389 43.9342 367.5916 48.7404 362.1149 51.5347 360.103 55.4466 358.4264 63.7177 356.7498 67.965 354.9615 69.7534 352.0554 80.3716 320.2007 81.9364 311.1472 80.7069 301.8702 76.0125 296.0581 71.5417 292.4814 69.418 290.9166 65.1707 285.6634 67.4062 279.2924 70.7593 276.4981 77.3538 272.4744 80.1481 270.0154 81.8246 266.2152 82.7188 256.8264 84.2836 252.5791 85.5131 251.2378 88.4191 249.0024 89.6486 247.6612 93.3371 239.8372 95.0136 237.49 95.0136 232.125 93.8959 223.0715 96.1314 214.018 100.4904 207.2 103.8436 200.1584 102.3905 190.5461 95.0136 179.5925 93.8959 177.2453 95.2372 173.6686 98.4785 171.4332 105.9672 169.5331 109.991 169.9802 112.2264 169.1978 113.1206 166.0682 114.1265 161.1503 114.3501 159.0266 114.2383 150.4202 113.5677 145.3905 113.1206 141.7021 112.0029 136.3371 110.3263 129.1837 108.8733 124.6011 104.9613 116.1065 102.3905 112.1945 98.4785 104.2587 97.6961 96.323 99.9316 88.9461 104.7377 82.9105 139.3868 51.1674 143.187 44.5729 144.4165 36.749 141.9575 27.919 141.1751 23.4482 148.105 23.0011Z" />
</svg>