<?xml version="1.0" encoding="utf-8"?>
<svg xmlns="http://www.w3.org/2000/svg" viewBox="0 0 1021 670" style="stroke-width:0.25px;stroke-linejoin:round;stroke:#444;fill:#ddd" fill-rule="evenodd">
  <path class="UZ" d="M936.413 453.5892L936.6365 454.3716 935.2953 459.2895 934.7364 460.1837 933.8422 460.4073 932.2774 459.9602 931.1597 459.4013 929.9303 458.5072 929.2596 457.3894 930.2656 456.2717 931.7186 456.16 932.7245 455.6011 934.96 454.0363 936.413 453.5892ZM887.4572 434.2528L886.2277 434.141 880.9745 434.6999 872.5916 437.2706 870.0209 437.4942 867.5619 437.2706 865.2147 435.5941 864.097 432.3527 863.3146 428.6642 861.7498 426.0935 860.4086 425.5347 859.2909 425.7582 858.1732 426.0935 856.9437 426.2053 855.7142 425.7582 852.6964 424.5287 853.4788 421.7344 853.367 421.5109 852.8081 420.8403 852.6964 420.7285 852.8081 420.7285 852.0257 419.6108 851.914 419.3872 851.8022 419.0519 851.6904 417.3754 852.5846 415.9223 854.3729 414.8046 858.3967 413.7987 859.0673 413.5751 859.6262 412.7927 861.0792 410.3338 861.8616 409.5514 862.644 409.2161 863.5382 408.8807 864.4323 408.5454 865.2147 407.8748 867.2266 405.3041 870.9151 402.2862 871.6975 401.5039 872.5916 400.8332 873.0387 400.6097 874.0447 400.3861 874.2682 400.0508 874.38 399.7155 874.6035 399.3802 875.4977 398.8213 875.4977 398.7096 875.6095 398.1507 876.1683 395.4682 873.8211 394.127 868.4561 392.8975 867.5619 391.668 867.3384 390.3267 867.8972 389.3208 869.1267 389.209 871.1386 390.9974 872.3681 391.4444 872.4799 389.9914 872.0328 389.3208 861.191 377.1377 859.2909 375.4612 859.1791 375.2376 858.9556 374.9023 857.8378 373.6728 857.1672 372.8904 854.4847 371.7727 852.2493 372.4433 850.5727 380.7144 847.3314 384.5146 843.084 387.0854 836.9366 389.5443 831.3481 393.9034 820.3945 397.2565 819.165 397.9272 817.9355 398.9331 815.4766 402.0627 814.0235 403.404 812.4587 403.851 810.6704 403.1804 809.888 402.5098 809.3292 401.7274 808.2114 399.8273 807.5408 399.0449 806.0878 398.0389 805.3054 397.4801 803.07 393.7916 801.7287 392.5622 799.8286 392.3386 798.9344 391.7798 798.152 390.9974 797.3696 390.4385 796.2519 390.215 794.3518 390.8856 793.4576 391.4444 792.5635 392.1151 791.1105 394.127 790.2163 396.1388 789.7692 398.486 789.7692 401.2803 790.1045 405.5276 789.881 406.5336 788.9868 407.0924 785.4101 407.316 783.2865 408.769 783.2865 410.4455 785.6337 414.4693 786.9749 418.8284 787.5338 420.2814 789.0986 422.9639 789.6574 424.5287 790.1045 426.2053 789.6574 430.0055 787.7573 430.3408 785.4101 429.4466 783.9571 429.6702 784.1806 431.9056 788.4279 435.8176 788.4279 437.7177 786.1925 438.7237 783.2865 438.6119 777.9215 437.0471 775.9096 435.9294 774.0095 435.0352 772.6682 434.8117 763.0559 436.2647 761.9382 436.8235 759.8145 437.9413 758.4733 438.1648 755.0084 437.6059 753.7789 437.7177 750.4257 438.5001 748.0785 439.1707 746.8491 440.0649 748.3021 441.7415 750.9846 443.418 753.1083 444.2004 753.6671 444.0887 767.5267 441.4062 770.2092 443.418 770.6563 444.5358 770.7681 445.6535 770.7681 446.7712 770.2092 447.7771 768.868 448.0007 764.6207 447.33 763.3912 447.6653 761.2675 449.4537 760.4851 449.789 759.1439 447.33 758.2497 446.5476 757.4673 448.0007 757.5791 448.6713 758.6968 449.5655 758.8086 450.1243 758.6968 451.6891 758.8086 452.4715 759.1439 453.2539 764.2854 460.4073 764.5089 462.1956 762.0499 463.2015 760.7087 461.0779 759.7028 457.7248 758.585 455.154 757.3556 454.2598 756.9085 454.8187 757.132 456.2717 757.6909 457.9483 759.0321 460.7426 759.0321 461.8603 758.2497 463.3133 758.0262 463.5369 757.4673 463.6486 757.2438 463.7604 756.7967 464.8781 756.7967 464.9899 756.7967 465.437 756.6849 466.2194 756.2378 466.6664 755.4554 466.2194 753.8906 463.6486 752.9965 462.978 750.9846 464.7663 750.0904 464.431 749.4198 464.3193 748.8609 465.9958 748.3021 478.4024 747.9668 480.3025 747.1844 481.7556 745.7314 483.3204 743.1606 484.8851 742.3782 486.0029 742.6018 486.5617 743.0488 487.4559 743.0488 487.5677 741.8194 488.0147 738.2427 489.0207 735.3366 489.356 732.4306 489.1325 727.5127 487.3441 718.6827 487.1206 698.4521 481.8673 695.6579 481.7556 693.5342 482.4262 687.9457 486.4499 683.2513 487.1206 682.1336 488.3501 682.4689 491.7032 682.3571 492.0385 682.0218 492.262 681.7982 492.3738 681.4629 492.3738 680.0099 492.262 679.1157 492.3738 678.5569 493.0444 677.7745 495.9505 677.4392 499.0801 677.3274 501.8744 676.545 504.4451 676.0979 507.0158 675.7626 507.1276 675.2037 507.0158 674.5331 507.1276 673.9743 507.6865 673.7507 508.0218 673.6389 508.5806 673.5272 509.5866 673.9743 512.6044 673.9743 512.7162 675.6508 514.281 682.8042 516.7399 687.6103 516.9635 689.9575 517.8576 690.1811 518.193 690.6282 519.0871 690.9635 519.4224 691.4106 519.5342 692.4165 519.3107 692.7518 519.4224 693.3107 520.3166 693.4224 521.3226 692.7518 527.2464 692.9754 529.1465 693.0871 529.2583 694.0931 530.2642 701.6935 531.4937 703.2583 531.382 707.7292 529.9289 708.5116 529.4818 709.4057 529.2583 710.1881 529.2583 711.1941 529.5936 711.7529 529.9289 712.6471 530.8231 713.5413 530.9349 714.5472 530.5996 715.5531 529.9289 716.0002 529.8172 716.4473 529.7054 717.0062 529.8172 717.4532 529.9289 718.3474 531.0466 720.3593 535.4057 721.477 537.0823 722.1476 537.9765 722.7065 539.5413 722.5947 541.2178 722.1476 542.4473 721.3652 543.4532 720.4711 544.3474 719.4651 544.9063 718.0121 545.1298 717.0062 545.1298 716.3355 545.5769 716.112 547.2535 716.3355 547.9241 716.6708 548.5947 716.8944 549.3771 716.8944 550.1595 716.5591 550.6066 715.1061 551.7243 714.659 552.842 714.7707 554.295 715.5531 557.0893 715.6649 558.6541 715.5531 563.0132 715.6649 564.578 716.112 565.5839 717.565 567.8194 717.9003 568.9371 718.0121 571.396 718.2356 572.5138 718.7945 573.5197 721.1417 575.7551 723.2653 579.7789 724.2713 580.7848 727.4009 582.5732 732.0953 586.8205 733.4365 589.0559 733.7718 591.9619 732.7659 596.321 731.3129 600.5683 728.9657 604.0332 728.295 605.4862 727.848 606.8275 727.6244 607.9452 727.1773 608.8394 726.5067 609.3982 726.1714 609.51 725.2772 609.8453 722.4829 610.1806 720.6946 610.8513 719.6887 611.969 717.1179 619.5694 715.3296 623.0343 711.0823 629.07 707.8409 632.0878 704.8231 635.9998 702.2524 640.3589 700.6876 644.9415 700.464 648.0711 701.5817 653.9949 701.8053 657.1245 701.47 659.807 700.7993 662.266 699.6816 664.5014 699.4581 665.6191 699.1228 664.2779 698.4521 663.2719 697.4462 662.6013 696.2167 662.266 694.0931 662.3778 693.3107 662.266 692.64 661.9307 691.4106 661.0365 690.7399 660.813 690.0693 660.813 688.9516 661.1483 688.281 661.2601 687.9457 661.5954 687.6103 662.3778 687.0515 663.0484 686.4926 663.2719 685.4867 662.4895 684.369 659.36 683.0277 658.6893 681.7982 659.0246 680.6805 659.9188 678.7804 661.8189 677.5509 662.7131 676.4332 663.3837 675.092 663.719 673.6389 663.8308 672.1859 664.1661 669.8387 665.6191 668.6092 665.8427 667.268 665.3956 666.5974 664.1661 666.1503 662.8249 665.5914 661.5954 664.3619 660.4777 661.6794 659.4717 660.5617 658.6893 660.0029 657.5716 658.9969 654.3303 658.3263 653.6596 656.985 653.3243 654.6378 651.536 653.6319 651.0889 650.7259 650.9771 645.2491 652.3184 637.5369 652.6537 636.978 652.8772 635.7485 653.8832 635.1897 654.1067 633.5131 654.1067 632.8425 653.8832 628.9305 652.2066 627.4774 652.0948 625.9127 652.2066 624.7949 652.5419 623.3419 651.4242 623.4537 650.0829 624.3479 648.8535 625.4656 647.624 626.3597 646.171 626.1362 644.9415 625.242 643.9355 624.1243 642.9296 623.2301 640.8059 623.4537 638.1234 624.7949 633.0937 625.0185 630.1877 624.5714 624.2638 624.7949 621.3578 626.8068 617.6693 630.16 613.3102 632.2836 609.0629 631.7248 607.4981 631.0541 605.4862 630.9424 605.4862 629.0422 604.0332 626.8068 603.0273 624.5714 602.3567 620.1006 602.3567 618.2004 601.7978 612.2766 599.0035 609.4823 595.5386 607.6939 593.862 605.7938 592.9679 601.9936 591.8502 598.3052 588.9441 596.6286 588.0499 592.7166 587.3793 586.7927 584.4733 584.7809 584.3615 583.1043 585.0321 580.1982 587.3793 578.7452 588.1617 574.6097 588.497 570.6977 587.1558 560.8618 580.5613 555.0497 576.6493 547.0022 571.1725 541.4136 566.031 533.5897 558.8777 529.5659 556.4187 520.8477 553.2891 513.2473 548.93 500.8407 538.3118 497.4876 533.9527 495.6992 531.6055 494.2462 530.8231 492.4579 530.9349 487.8752 533.2821 486.4222 533.6174 484.6339 533.2821 482.8455 532.3879 473.345 525.5699 465.0739 519.646 458.4794 514.8398 454.9028 511.1514 448.5318 502.2097 444.8433 498.633 436.5723 492.8209 417.1241 478.8495 407.5118 472.0315 399.4642 466.2194 392.5344 461.1897 389.0695 457.7248 388.3989 457.3894 384.1516 452.0244 383.5927 450.0125 382.475 445.6535 382.3633 443.8651 382.5868 442.1886 383.0339 440.7355 383.3692 439.3943 383.1457 437.7177 381.3573 433.8057 381.1338 432.2409 381.022 430.1173 380.9102 428.5525 380.3514 427.2112 378.8983 424.0816 378.4513 422.6286 378.3395 419.3872 377.7806 418.7166 372.8627 415.9223 370.0684 415.0282 368.7272 414.0222 368.5036 413.5751 368.3919 413.3516 367.833 411.5633 367.4977 410.8926 365.374 407.8748 364.4799 406.31 363.3622 401.5039 362.6915 400.3861 360.6796 398.2625 360.009 397.2565 359.5619 395.58 358.8913 392.0033 356.9912 385.4088 356.3206 383.844 356.7677 383.2851 356.5441 382.1674 356.3206 376.5789 356.2088 375.0141 355.6499 373.6728 351.2909 366.4077 350.1732 365.1782 336.9842 355.3424 331.8427 353.1069 326.0306 351.5421 323.9069 351.3186 322.5657 351.9892 321.7833 353.6658 321.1127 356.4601 319.6596 357.2425 318.5419 359.7014 316.8653 361.6015 314.8535 362.6075 312.618 362.7193 310.1591 361.7133 304.1234 357.3542 303.1175 357.3542 299.5408 357.9131 299.2055 357.2425 299.0937 356.4601 298.8702 356.3483 298.5349 356.9072 297.7525 358.2484 297.3054 358.6955 296.9701 359.0308 294.064 356.1248 289.9285 355.1188 278.0807 355.7894 270.9274 358.1366 267.3507 358.2484 265.3388 357.6895 263.5505 356.4601 260.4209 353.2187 256.8442 350.5362 251.1439 347.6301 244.6612 344.277 242.9846 342.6004 242.5375 340.8121 243.3199 334.4411 243.767 333.0999 244.5494 331.9822 245.5553 331.088 248.0143 329.8585 248.7967 328.8526 248.2378 327.3996 244.3259 321.811 242.5375 318.2343 241.9787 315.5518 243.5435 313.3164 245.1083 312.1987 247.0084 312.0869 249.2438 312.7575 251.2557 314.0988 252.3734 314.5459 253.2675 314.4341 254.0499 313.4282 253.9382 312.3105 253.2675 311.1927 252.5969 310.2986 251.8145 309.5162 249.0202 307.8396 248.1261 306.9454 247.4554 305.9395 246.0024 303.8158 244.3259 302.3628 238.0667 300.0156 235.0488 300.1274 234.1547 299.6803 233.484 298.5626 233.5958 297.5567 234.2664 296.7743 235.2724 296.4389 235.3842 296.4389 238.8491 295.0977 238.7373 291.9681 237.5078 288.0561 238.0667 284.3677 239.0726 283.5853 240.3021 283.1382 241.1963 282.3558 241.4198 281.0145 240.7492 280.0086 239.4079 279.2262 236.7254 278.2202 234.7135 276.3201 233.037 273.7494 231.1369 271.6257 228.4543 271.4022 225.7718 271.6257 220.6304 271.1787 208.2238 273.1905 205.0942 273.0788 203.6411 272.5199 201.2939 269.9492 199.8409 269.3903 196.8231 269.1668 195.1465 268.1608 194.3641 266.7078 193.6935 260.6722 193.1347 259.1074 192.2405 257.7661 188.552 253.8541 187.099 252.96 185.646 253.0717 183.8576 253.9659 182.1811 254.413 180.3927 254.5248 177.822 253.9659 173.6865 252.1776 169.6627 248.4891 156.9208 233.4 155.4678 232.5058 154.4618 234.4059 153.5677 241.224 152.3382 243.5712 149.8792 244.2418 146.8614 244.13 143.8436 243.3476 137.4726 240.7769 136.0196 240.7769 134.9019 241.1122 131.7723 243.0123 129.5369 244.0183 128.4191 244.8007 127.8603 246.0301 128.1956 247.4832 129.3133 248.4891 136.802 252.0658 138.8139 253.6306 140.714 256.4249 142.2788 260.2251 146.6378 267.3784 148.985 270.1727 149.6557 270.8433 149.991 271.514 149.7674 272.1846 148.985 272.6317 145.1848 273.1905 144.2906 272.967 143.5083 271.8493 143.62 270.6198 143.8436 269.2785 144.0671 267.8255 143.5083 264.9195 141.9435 262.9076 139.9316 261.4546 134.1195 258.6603 132.7782 258.4367 131.6605 258.5485 129.5369 259.5545 128.6427 259.5545 127.6367 259.1074 126.2955 256.9837 125.4013 256.2013 124.2836 255.7542 122.9424 255.7542 121.7129 255.9778 120.5952 256.5366 119.9245 257.319 119.4774 258.2132 117.9127 260.0015 116.3479 260.6722 115.3419 261.5663 115.6772 263.69 116.9067 266.3725 117.0185 267.602 116.4596 269.5021 114.1124 275.0906 113.2183 275.9848 110.9828 276.7672 110.5358 277.7732 110.8711 279.0026 111.6535 279.8968 111.877 280.6792 110.5358 281.5734 109.418 281.9087 105.3943 281.6851 104.2766 281.9087 100.9234 283.5853 98.2409 284.1441 89.8581 282.6911 84.1578 282.9146 78.5692 285.5971 73.8748 290.2915 70.6334 296.4389 68.398 299.7921 65.9391 301.5804 60.2387 304.2629 58.5622 306.6101 58.5622 309.6279 59.9034 315.8871 59.7916 318.905 59.2328 321.4757 59.2328 323.9347 60.2387 326.7289 61.58 328.9644 62.2506 330.9762 62.4741 333.3234 62.4741 336.1177 62.6977 338.2414 63.4801 340.4768 64.5978 342.3769 65.9391 343.8299 66.7215 344.5006 67.7274 344.9476 70.6334 345.6183 71.0805 345.9536 70.9688 346.5124 70.2981 347.2948 69.0686 348.189 66.2744 349.642 65.1567 350.9833 63.2565 354.3364 62.1388 355.007 54.8737 353.4422 49.2851 352.3245 36.0961 351.5421 33.9725 351.4304 21.6777 350.7597 10.7241 350.2009 1.1118 349.642 1.1118 331.5351 1.1118 313.3164 1.1118 295.0977 1.1118 276.7672 1 258.4367 1 239.9945 1 221.5523 1 202.8865 1 184.2207 1 165.5549 1 146.7773 1 127.888 1 108.9987 1 89.9976 1 70.8847 1 51.6601 1 51.5483 1 51.4365 1.1118 51.4365 6.5886 49.6482 12.1771 47.8598 17.7657 46.0715 23.2425 44.2832 28.831 42.4948 34.4196 40.7065 39.8964 38.9182 44.2554 37.5769 45.4849 37.1298 51.0735 35.3415 56.5503 33.6649 62.1388 31.8766 67.6156 29.9765 73.2042 28.1881 78.7927 26.3998 84.2695 24.6114 89.8581 22.8231 97.235 20.5877 104.6119 18.3523 111.9888 16.0051 119.4774 13.7696 122.8306 12.7637 126.2955 11.7578 129.6486 10.7518 133.1135 9.6341 136.6902 8.6282 140.2669 7.6222 143.8436 6.6163 147.4202 5.4986 152.1146 4.1573 153.5677 4.2691 155.1325 5.0515 155.5795 5.275 155.0207 5.8339 154.6854 6.3927 154.5736 7.0634 154.4618 8.5164 154.1265 10.0812 153.6794 10.7518 153.4559 11.646 153.4559 12.0931 153.4559 13.4343 153.2323 14.7756 153.2323 15.4462 153.1206 15.6697 153.2323 16.8992 153.0088 17.3463 152.2264 17.9052 151.6675 18.464 150.2145 20.5877 149.6557 20.8112 149.5439 21.0348 148.4262 21.9289 147.6438 23.4937 145.4084 26.7351 145.1848 27.4057 144.9613 27.9646 144.8495 29.9765 144.9613 31.5413 144.626 32.4354 143.62 34.112 143.0612 36.4592 142.7259 40.2594 141.8317 42.4948 140.0433 44.7303 139.1492 45.9597 139.1492 46.1833 138.8139 46.9657 138.4785 48.754 138.4785 49.8717 137.5844 52.1072 137.3608 54.119 136.2431 55.6838 134.6783 58.8134 134.6783 59.3723 134.2312 60.49 133.8959 62.0548 133.7842 63.9549 134.2312 68.0904 134.7901 70.6612 135.9078 73.5672 137.3608 77.0321 139.3727 81.9501 139.708 84.2972 139.2609 86.9798 138.5903 87.7622 137.8079 87.5386 137.0255 87.4268 136.2431 87.9857 135.2372 89.5505 134.6783 90.78 134.5666 92.233 134.5666 96.0332 135.2372 97.598 136.1314 98.4922 137.1373 98.8275 138.7021 99.1628 141.0493 99.1628 142.2788 99.051 145.4084 97.4862 149.3204 92.4565 151.7793 87.0915 153.0088 79.7146 155.0207 71.5553 154.0147 70.1023 155.9149 70.1023 156.9208 68.6493 157.7032 66.3021 157.5914 63.2843 156.809 61.3842 155.0207 59.8194 154.2383 58.2546 154.3501 57.0251 155.4678 55.3485 155.8031 53.3366 155.4678 51.9954 154.3501 50.7659 153.1206 50.5424 158.8209 45.0656 160.3857 42.4948 161.0563 40.2594 161.1681 38.6946 159.9386 34.0002 158.5974 30.7589 157.9267 28.9705 157.9267 25.8409 158.4856 21.4818 159.8268 14.2167 160.4975 12.5402 162.7329 10.3047 162.8447 10.193 164.633 11.4224 170.4451 15.3344 177.9338 20.4759 183.187 23.9408 186.9872 26.5116 197.1584 33.4414 208.2238 40.93 219.848 48.754 231.8075 56.6898 243.5435 64.6255 255.0559 72.3377 265.8977 79.6029 275.8453 86.1974 284.4517 91.8977 291.4933 96.5921 296.6348 100.057 300.3232 102.516 301.888 104.1925 303.0057 106.4279 303.341 108.4398 303.7881 112.6871 304.347 114.699 307.8119 120.2876 314.6299 127.6645 317.8713 131.1294 321.1127 134.5943 325.2482 139.4004 328.6013 143.4242 332.0662 147.3362 335.4194 151.2482 338.7725 155.1602 342.1256 158.9604 345.4788 162.8724 348.8319 166.6726 352.0733 170.4728 356.5441 175.6143 357.7736 176.1732 358.8913 176.6202 359.1149 176.6202 363.921 175.7261 366.0447 175.279 368.1683 174.9437 370.1802 174.6084 372.3039 174.1613 375.657 173.6024 379.0101 172.9318 382.3633 172.2612 385.6046 171.7023 391.0814 170.8081 396.4464 169.914 401.8114 169.0198 407.2882 168.1256 412.6532 167.3432 418.0183 166.4491 423.495 165.5549 428.8601 164.6607 437.9135 165.4431 446.8552 166.3373 455.9087 167.1197 464.9622 167.9021 473.1215 168.6845 481.2807 169.4669 489.5518 170.1375 497.7111 170.9199 500.9525 171.2552 502.0702 170.9199 503.0761 170.5846 509 167.3432 514.7003 164.1019 520.5124 160.8605 526.3245 157.6191 527.4422 157.2838 528.4482 156.8367 529.4541 156.9485 530.3483 157.1721 531.3542 158.0662 532.3602 158.9604 538.7311 167.2315 545.1021 175.6143 548.0081 178.7439 550.9142 181.8735 557.0616 185.6737 563.0972 189.4739 564.3267 190.4799 565.4444 191.5976 570.4741 201.9923 573.7155 208.5868 578.1864 217.752 581.9866 225.576 582.4337 225.6878 582.9925 225.6878 591.4871 221.1052 600.0935 216.4108 598.7523 236.5296 597.5228 256.4249 597.411 258.5485 597.1875 260.6722 596.9639 261.3428 596.6286 262.1252 595.958 262.3487 595.2873 262.684 595.0638 263.1311 594.8403 263.69 594.8403 266.149 594.6167 279.338 594.505 294.8741 594.505 295.3212 594.6167 295.7683 594.8403 295.8801 595.0638 296.1036 602.2172 296.1036 608.6999 296.2154 615.1826 296.2154 622.336 296.2154 622.5595 296.2154 622.7831 296.2154 623.0066 296.2154 623.2301 296.2154 623.4537 296.2154 623.5655 296.3272 623.789 296.3272 623.9008 296.4389 624.9067 306.4983 625.9127 316.5578 627.8128 326.2818 629.7129 336.1177 632.2836 347.7419 634.7426 359.2543 636.0838 360.9309 637.4251 362.4957 638.8781 362.9428 639.884 363.1663 642.343 363.837 649.1611 363.3899 654.9732 363.0546 663.5795 362.4957 669.9505 362.1604 677.4392 361.7133 682.2453 361.378 689.9575 360.9309 697.558 360.4838 698.2286 360.7074 698.8992 360.8191 700.1287 361.4898 701.3582 362.1604 702.0288 362.3839 702.5877 362.6075 703.2583 362.4957 703.8172 362.4957 705.4937 361.2662 707.1703 360.1485 707.9527 359.7014 708.7351 359.2543 709.0704 360.3721 709.4057 361.4898 709.5175 361.4898 709.5175 361.6015 709.741 361.9369 709.9646 362.3839 711.3058 364.1723 712.5353 365.8488 712.8706 366.5195 713.2059 367.3019 713.4295 368.7549 713.653 370.3197 714.1001 370.9903 714.4354 371.5492 714.7707 371.3256 715.1061 370.9903 715.5531 370.7668 715.8884 370.655 716.2238 370.655 716.6708 370.7668 717.0062 371.2139 717.2297 371.5492 717.6768 370.655 718.1239 369.8726 718.6827 369.7608 719.3534 369.6491 719.4651 370.5432 719.5769 371.3256 719.5769 371.4374 719.5769 371.5492 719.4651 371.8845 719.4651 372.2198 719.6887 372.3316 720.024 372.4433 720.1358 372.5551 720.1358 372.6669 719.4651 373.114 718.7945 373.6728 718.571 373.7846 718.3474 373.8964 718.571 374.0081 718.7945 374.1199 718.9063 374.3435 719.1298 374.4552 719.3534 375.0141 719.5769 375.4612 719.5769 376.5789 719.5769 377.6966 719.2416 378.9261 719.018 380.2673 718.571 381.6086 718.1239 382.8381 717.6768 383.844 717.2297 384.8499 716.8944 385.4088 716.5591 385.9677 716.112 386.4147 715.6649 386.8618 715.2178 387.3089 714.659 387.6442 713.653 388.2031 712.5353 388.6502 712.3118 388.8737 712.0882 389.0972 711.9765 389.4326 711.8647 389.7679 712.0882 389.8796 712.3118 389.9914 713.4295 390.215 714.5472 390.5503 715.5531 390.9974 716.4473 391.5562 719.1298 394.2387 721.8123 396.9212 723.8242 398.486 725.8361 400.0508 728.1833 401.2803 732.7659 403.7393 739.6957 407.4277 739.8075 407.2042 739.9193 406.9806 740.2546 406.6453 740.7017 406.31 741.1487 406.31 741.5958 406.31 741.8194 406.0865 742.0429 405.7512 742.1547 405.4158 742.2664 405.0805 742.6018 404.857 742.8253 404.7452 743.1606 404.7452 743.6077 404.857 744.7254 405.4158 745.9549 405.9747 746.7373 406.0865 747.5197 406.1982 748.0785 405.8629 748.7492 405.5276 748.9727 404.9688 749.0845 404.5217 748.5256 404.1864 747.9668 403.851 748.7492 402.7333 749.4198 401.5039 749.4198 401.2803 749.5316 400.945 749.308 400.4979 748.9727 400.0508 748.8609 399.6037 748.6374 399.1567 748.5256 398.5978 748.4139 398.1507 748.4139 397.7036 748.4139 397.1448 747.7432 397.033 746.9608 396.8095 746.7373 396.6977 746.402 396.4741 746.1784 396.1388 745.9549 395.9153 745.7314 395.1329 745.5078 394.3505 745.1725 391.1091 744.949 387.8678 745.0607 387.1971 745.1725 386.6383 745.2843 386.4147 745.5078 386.303 745.6196 386.0794 745.8431 385.9677 746.0667 385.5206 746.2902 385.0735 746.2902 384.7382 746.2902 384.2911 746.2902 383.3969 746.1784 382.6145 746.1784 382.1674 746.1784 381.7204 746.2902 381.8321 746.402 381.8321 746.7373 381.9439 746.9608 382.0557 747.1844 382.1674 747.2961 382.2792 747.6315 381.385 747.9668 380.3791 748.7492 379.8202 749.5316 379.2614 750.8728 378.7025 751.4317 378.479 753.22 377.6966 753.7789 376.9142 754.3377 376.2436 755.4554 373.114 756.5732 369.9844 757.3556 368.9784 758.138 368.0843 760.2616 367.1901 762.2735 366.2959 762.9441 365.0664 763.7265 363.7252 764.0618 363.2781 764.5089 362.7193 765.0678 362.4957 765.7384 362.2722 766.9679 362.1604 768.1974 362.0486 769.3151 361.4898 770.4328 360.9309 771.4387 360.2603 772.4447 359.5897 772.8917 359.0308 773.4506 358.5837 773.6741 358.1366 773.8977 357.6895 774.3448 353.8893 774.7919 350.2009 774.7919 349.5303 774.7919 348.8596 774.6801 348.4125 774.5683 347.9655 774.5683 347.7419 774.4565 347.6301 774.3448 347.5184 774.1212 347.4066 773.8977 347.0713 773.5624 346.736 773.5624 346.4007 773.4506 346.0653 773.5624 345.8418 773.6741 345.5065 774.0095 345.2829 774.233 345.1712 775.5743 344.5006 776.9155 343.8299 777.4744 343.6064 778.0332 343.3828 778.5921 343.6064 779.1509 343.8299 779.4862 343.0475 779.7098 342.2651 780.4922 341.4827 781.1628 340.8121 782.8394 339.8062 784.4042 338.6884 784.963 338.6884 785.4101 338.5767 786.3043 338.912 787.0867 339.1355 787.5338 339.1355 787.9809 339.0238 789.0986 338.3531 790.3281 337.5707 790.7751 337.459 791.2222 337.3472 792.8988 337.6825 794.6871 338.0178 795.0224 337.7943 795.3578 337.5707 795.3578 337.1237 795.3578 336.7883 794.7989 335.8942 794.3518 334.8882 794.24 334.5529 794.1283 334.1058 794.4636 333.0999 794.9107 331.9822 795.6931 331.4233 796.4755 330.8645 798.152 330.3056 799.8286 329.8585 802.8464 327.3996 805.8642 325.0524 806.6466 324.0464 807.5408 323.0405 807.9879 322.7052 808.5468 322.2581 812.5705 321.1404 816.4825 320.0227 819.8356 319.9109 823.077 319.7991 824.3065 319.2403 825.536 318.7932 826.4301 317.6755 827.3243 316.5578 827.7714 315.9989 828.2185 315.44 828.6656 314.993 829.1127 314.6576 830.7892 313.987 832.354 313.4282 834.813 311.6398 837.2719 309.7397 838.0543 308.8455 838.8367 308.0631 840.8486 304.4865 842.8605 301.0216 843.3076 300.5745 843.6429 300.1274 844.2018 299.9039 844.6488 299.5685 845.2077 299.345 845.7666 299.2332 846.2136 298.8979 846.7725 298.6744 847.1078 298.2273 847.4431 297.7802 847.6667 297.1096 847.8902 296.4389 848.6726 294.7624 849.3432 293.1976 850.6845 292.0799 851.914 290.9622 854.82 289.7327 857.7261 288.5032 858.1732 288.5032 858.6202 288.615 859.0673 289.062 859.6262 289.3974 860.0733 289.9562 860.6321 290.5151 860.8557 290.9622 861.0792 291.521 861.191 292.3034 861.4145 292.974 861.8616 293.5329 862.3087 293.98 862.9793 294.2035 863.6499 294.4271 864.3206 294.5388 864.9912 294.6506 865.8854 294.2035 866.8913 293.7564 867.4502 292.527 868.1208 291.4092 868.6796 289.9562 869.2385 288.5032 869.9091 287.1619 870.5798 285.9325 871.3622 284.9265 872.2563 283.9206 872.5916 283.3617 872.8152 282.8029 873.1505 282.1322 873.374 281.3498 873.8211 280.791 874.1564 280.2321 874.9388 280.1204 875.6095 280.1204 876.9507 280.5674 878.4037 280.9028 879.5215 280.791 880.6392 280.5674 881.7569 280.0086 882.7628 279.4497 884.7747 277.7732 886.7866 276.0966 888.1278 274.8671 890.6986 272.967 892.5987 272.7435 894.4988 273.5259 902.7699 279.4497 904.67 280.1204 904.8935 280.2321 903.9993 283.1382 901.7639 284.703 896.9578 286.156 888.5749 292.4152 886.116 292.974 883.2099 292.8623 880.7509 293.5329 879.745 296.4389 879.5215 301.0216 878.9626 302.3628 876.8389 303.1452 870.9151 303.8158 869.1267 304.9336 863.3146 309.9633 860.7439 312.9811 858.9556 316.6695 857.6143 318.7932 855.826 320.0227 853.9259 320.9168 850.3492 323.7111 840.7369 329.4114 839.5074 331.4233 840.6251 333.9941 842.7487 335.1118 851.1316 336.1177 853.367 337.459 854.3729 338.3531 855.2671 339.4708 856.7201 342.2651 857.6143 343.0475 858.6202 343.0475 858.9556 343.1593 860.9674 342.3769 868.2326 338.1296 870.2444 337.7943 871.3622 338.5767 872.3681 339.9179 875.7212 345.6183 876.2801 347.2948 876.3919 348.9714 875.4977 353.7776 875.6095 355.1188 876.2801 356.2365 877.286 356.013 878.4037 355.4541 879.745 355.3424 880.8627 355.9012 881.9804 356.5718 882.9864 357.5778 883.7688 358.8073 884.8865 359.8132 886.0042 359.925 888.5749 359.4779 891.3692 360.0367 892.7105 360.5956 893.9399 361.6015 894.9459 362.2722 897.1813 362.4957 898.1872 363.2781 899.6403 365.8488 900.5344 366.4077 901.2051 364.9547 900.9815 363.2781 900.758 361.8251 900.8697 360.8191 902.0992 360.1485 903.5523 360.2603 904.2229 361.1545 904.8935 364.1723 905.4524 365.29 906.2348 366.0724 907.0172 365.9606 907.6878 364.5076 909.1408 362.6075 913.1646 366.0724 914.5058 364.9547 914.8411 362.1604 914.2823 348.6361 914.7294 347.6301 915.5118 347.8537 918.3061 350.5362 920.8768 351.6539 922.8887 351.2068 924.5652 349.5303 926.5771 345.2829 927.3595 342.6004 927.5831 341.0356 927.3595 339.5826 925.7947 337.459 925.1241 336.1177 926.3536 333.0999 927.0242 332.2057 928.3655 331.6469 929.5949 331.8704 930.3773 332.8763 930.7127 334.4411 930.7127 336.1177 929.5949 340.4768 929.7067 341.4827 930.2656 341.7063 930.6009 341.0356 930.8244 340.1415 931.1597 339.6944 931.7186 340.0297 932.0539 341.2592 932.6128 341.4827 933.0598 341.1474 933.1716 339.4708 933.5069 339.1355 934.0658 339.3591 934.5129 339.6944 939.9897 348.0772 940.9956 350.4244 941.3309 352.9952 941.2191 356.3483 941.4427 359.7014 943.0075 360.3721 947.7019 359.5897 949.1549 360.8191 950.0491 362.0486 951.055 362.6075 952.8433 361.6015 954.1846 360.3721 955.5259 359.4779 956.9789 359.2543 958.4319 360.1485 959.1025 361.7133 959.4378 363.837 959.5496 366.0724 960.1085 370.2079 960.1085 371.7727 959.6614 373.114 958.879 375.0141 960.6673 374.4552 964.0205 373.4493 966.2559 373.114 966.703 372.7787 967.3736 370.655 967.7089 370.0961 968.7149 369.202 969.4972 369.7608 971.2856 372.4433 972.5151 373.2257 974.1916 373.6728 977.3212 374.0081 977.6565 374.2317 977.7683 374.567 977.7683 375.0141 977.6565 375.4612 977.6565 377.2495 978.7743 377.8084 980.2273 377.9201 981.345 378.3672 983.9157 382.2792 985.7041 384.2911 988.0513 385.297 990.622 385.6323 998.2224 384.9617 1000.4579 385.6323 1000.7932 387.8678 1000.5696 389.209 1001.352 389.0972 1004.0345 387.0854 1008.5054 385.0735 1009.3996 385.7441 1010.182 386.8618 1011.4114 387.756 1014.8763 387.5325 1016.2176 387.8678 1016.7765 387.9795 1017 389.5443 1015.2117 391.8915 1012.4174 393.5681 1006.8288 395.58 1001.7991 398.8213 997.5518 399.8273 995.4282 400.7215 994.0869 402.9569 993.4163 408.0983 991.6279 408.9925 989.5043 407.9866 988.3866 407.9866 987.9395 409.2161 987.8277 410.3338 987.6042 411.4515 987.0453 412.4574 986.0394 413.1281 983.6922 413.3516 979.5567 410.4455 977.3212 410.1102 975.6447 409.3278 973.6328 406.9806 971.6209 405.3041 969.9443 406.0865 969.7208 407.316 970.9503 409.4396 970.9503 409.5514 970.9503 410.8926 970.615 412.1221 970.615 413.0163 971.062 413.6869 973.6328 415.587 973.9681 416.2576 974.3034 417.1518 974.1916 418.9402 973.6328 420.952 972.4033 422.6286 971.062 422.8521 969.3855 422.2933 965.9206 420.1696 965.0264 419.9461 962.3439 420.0579 961.5615 419.7226 961.8968 419.0519 962.5674 418.8284 963.5734 418.7166 964.4675 418.4931 964.6911 417.7107 964.1322 417.2636 963.0145 417.1518 962.5674 417.1518 959.8849 417.2636 958.879 417.4871 954.967 419.7226 954.4081 420.505 954.0728 421.958 953.1787 424.1934 951.6139 425.6464 946.4724 428.3289 946.1371 429.4466 946.5842 430.5644 947.7019 431.3468 949.4902 432.2409 949.8255 432.4645 950.2726 432.688 950.6079 433.3586 950.1608 434.141 949.3784 434.3646 948.4843 434.2528 947.7019 433.9175 947.2548 433.8057 946.9195 433.9175 946.2488 434.141 943.9017 433.9175 941.5545 433.3586 939.4308 433.4704 937.5307 435.3705 936.5248 437.8295 935.8541 438.8354 934.8482 439.7296 931.7186 441.6297 930.9362 441.8532 929.7067 441.2944 929.3714 440.1767 929.3714 436.9353 928.9243 435.3705 928.1419 433.5822 927.136 432.688 926.0183 433.6939 925.6829 435.147 925.5712 436.4882 925.0123 437.3824 923.5593 437.4942 920.765 437.0471 919.4238 436.4882 918.1943 435.7058 917.0766 434.5881 916.6295 433.4704 916.0706 432.5762 913.3881 431.6821 911.488 430.0055 910.3703 429.8937 908.4702 430.1173 907.4642 430.0055 906.6818 429.6702 906.0112 428.8878 905.5641 428.1054 904.8935 427.6583 904.1111 427.8818 903.2169 429.3349 902.6581 431.0114 901.7639 432.3527 899.9756 432.5762 893.0458 431.5703 889.5809 432.1292 887.4572 434.2528ZM864.2088 373.4493L863.3146 373.7846 863.9853 375.3494 863.9853 375.4612 864.9912 376.4671 866.7795 378.8143 867.7855 379.7085 868.9032 380.0438 868.7914 378.7025 868.009 376.8024 867.2266 375.4612 865.8854 374.2317 864.2088 373.4493ZM900.4227 449.4537L900.6462 449.4537 901.3168 448.8948 901.6521 448.6713 903.1052 448.336 903.8876 448.4477 904.3347 449.1184 903.9993 450.3479 901.2051 452.248 900.1991 453.2539 900.4227 455.2658 902.9934 458.0601 902.8816 460.4073 902.211 461.3014 901.4286 461.6367 899.4167 461.6367 896.6224 462.4191 895.7283 462.3074 895.0576 461.7485 894.9459 460.8543 894.6106 460.1837 893.4928 460.1837 892.8222 460.6308 892.0398 461.4132 891.2574 461.9721 890.475 461.525 890.3633 459.6249 892.934 455.6011 892.5987 453.3657 891.9281 452.8068 890.3633 452.4715 889.5809 452.0244 888.9102 451.1303 887.4572 447.8889 887.1219 446.6594 887.2337 445.3182 887.569 443.9769 888.5749 441.5179 890.475 440.512 891.8163 441.4062 892.7105 443.3063 893.6046 445.4299 894.6106 446.6594 896.1754 447.7771 899.5285 449.1184 899.752 449.3419 899.9756 449.4537 900.4227 449.4537Z" />
</svg>