<?xml version="1.0" encoding="utf-8"?>
<svg xmlns="http://www.w3.org/2000/svg" viewBox="0 0 910 1024" style="stroke-width:0.25px;stroke-linejoin:round;stroke:#444;fill:#ddd" fill-rule="evenodd">
  <path class="VE" d="M891.9783 491.0988L896.0021 497.1344 902.9319 504.9584 905.6144 509.3175 905.6144 510.6587 904.7202 512.2235 903.4908 513.3413 902.0377 513.7883 900.6965 513.9001 897.3433 514.6825 896.2256 515.2414 895.555 516.0238 893.7667 517.365 893.3196 518.371 893.3196 519.3769 893.5431 520.1593 893.4314 520.9417 892.649 521.9476 892.0901 524.6301 891.4195 525.7479 890.3018 526.4185 888.8487 526.5303 886.1662 526.3067 884.7132 526.7538 883.3719 527.7597 882.366 528.8774 881.1365 529.8834 878.0069 531.1129 877.2245 532.007 876.4421 533.013 875.548 533.9072 875.2127 534.2425 871.9713 536.3661 870.5183 537.7074 870.0712 539.2722 868.3946 540.5017 865.4886 540.837 859.7882 540.7252 858.3352 541.1723 857.441 542.0664 856.0998 544.6372 854.6468 546.4255 854.3114 546.9844 854.1997 547.655 854.4232 548.8845 854.4232 549.5551 853.4173 551.4552 853.529 552.4612 853.3055 553.2436 852.6349 553.8024 851.7407 553.5789 851.2936 553.9142 850.623 554.8084 849.7288 556.5967 848.6111 557.8262 845.5933 558.8321 844.6991 560.6205 844.8109 561.6264 845.1462 562.5206 846.711 565.4266 847.4934 565.7619 848.4993 565.9855 849.3935 566.5443 849.6171 567.1032 849.7288 567.4385 849.6171 567.8856 849.6171 568.4444 849.8406 569.1151 850.3994 569.4504 850.9583 569.6739 851.5172 570.0092 851.9642 570.9034 852.7466 572.8035 853.3055 573.6977 853.4173 574.2565 853.4173 574.8154 853.1937 575.2625 852.9702 575.7096 851.2936 577.1626 850.5112 579.0627 850.5112 581.0746 851.5172 582.9747 852.1878 583.7571 856.8822 587.4455 857.7763 587.4455 859.2294 584.763 860.2353 583.7571 861.6883 583.1982 863.4767 583.1982 864.2591 583.5336 864.9297 583.9806 865.7121 584.316 866.6063 584.4277 867.724 584.2042 868.6182 584.316 869.4006 584.763 870.1829 585.6572 872.5301 586.9985 873.4243 587.7809 873.8714 588.7868 873.9832 589.9045 873.6479 591.134 873.089 592.2517 872.5301 593.1459 871.5242 593.9283 870.4065 594.7107 869.4006 595.4931 868.8417 596.6108 868.2828 599.9639 867.0534 599.2933 865.3768 599.7404 856.7704 604.9936 851.9642 606.2231 850.7348 606.782 849.7288 607.6761 847.8287 610.3586 846.711 611.4763 845.258 611.9234 844.252 611.5881 841.9048 610.0233 840.4518 609.688 839.7812 609.7998 838.2164 610.1351 837.5458 610.1351 836.7634 609.9116 836.2045 609.4645 835.6457 609.0174 835.1986 608.6821 833.7455 608.3468 832.9631 608.235 832.5161 608.5703 832.6278 609.2409 833.2985 610.2469 833.522 610.8057 833.4102 611.3646 833.2985 611.6999 831.5101 613.6 831.1748 613.8235 829.8336 614.0471 826.704 613.7118 825.4745 614.6059 824.1332 614.1589 822.6802 613.9353 822.0096 615.1648 820.7801 614.8295 819.3271 614.7177 818.0976 614.9413 817.427 615.7237 815.4151 618.0708 814.0738 620.5298 813.0679 622.9888 812.6208 625.2242 812.7326 626.6772 813.4032 627.3479 814.4091 627.7949 815.4151 628.8009 815.8622 629.8068 816.5328 631.8187 817.2034 632.8246 817.427 633.3835 817.5387 633.8306 817.5387 634.3894 817.3152 634.9483 816.7563 635.8425 816.421 636.7366 816.0857 639.978 816.0857 640.6486 816.6446 642.5487 816.9799 643.2194 818.2094 643.89 818.4329 644.3371 818.6564 644.8959 818.88 645.0077 819.1035 645.2312 819.2153 645.9019 818.88 648.3608 818.88 649.3668 818.6564 650.3727 817.874 650.5963 816.9799 650.4845 815.9739 650.5963 815.1915 651.3787 814.4091 653.167 813.8503 653.9494 812.9561 654.5083 811.9502 654.8436 809.7147 655.2906 808.8206 655.7377 808.1499 656.6319 807.3675 658.7556 804.238 663.7853 803.232 664.5677 800.9966 665.7971 800.326 666.5795 801.4437 669.262 803.5673 671.6092 808.7088 677.1978 813.7385 682.7864 818.7682 688.3749 823.7979 693.9635 828.8276 699.552 833.8573 705.1406 838.9988 710.7292 844.0285 716.3177 846.0404 716.5413 847.7169 717.2119 849.17 718.4414 853.529 730.0656 853.9761 733.1952 852.5231 736.4365 848.0523 742.0251 845.4815 744.2605 842.4637 746.1606 836.0927 749.0667 835.5339 749.1784 834.1926 749.1784 833.7455 749.2902 833.1867 749.8491 831.3983 754.0964 830.7277 757.0024 830.2806 758.3437 828.2688 760.9144 825.9216 762.0321 820.4448 762.7028 816.6446 763.8205 815.5268 763.9322 814.4091 763.5969 812.0619 762.4792 810.9442 762.1439 806.9205 761.6968 805.691 761.8086 805.2439 762.7028 807.0322 765.2735 807.2558 766.7265 806.2498 767.7325 804.5733 768.2913 802.7849 768.6266 801.3319 768.7384 797.5317 768.5149 796.1904 768.6266 793.2844 769.7443 792.3902 771.6444 791.9431 776.7859 791.7196 777.5683 791.1607 778.3507 790.6019 779.0213 789.9312 779.5802 788.9253 780.0273 788.3664 779.9155 787.8076 779.692 786.8017 779.692 786.131 779.8037 784.9015 780.3626 784.1191 780.4744 783.5603 780.3626 781.4366 779.8037 778.8659 779.5802 777.6364 779.8037 776.4069 780.1391 774.8421 781.145 771.3772 784.8334 770.3713 785.5041 769.03 786.1747 767.577 786.6218 766.2358 786.8453 764.671 786.8453 763.4415 786.51 762.212 785.9512 760.759 785.5041 757.8529 785.9512 752.7114 789.6396 749.9172 790.6455 747.3464 790.3102 734.6045 785.057 731.5867 784.3864 729.3513 784.9452 729.016 785.3923 728.7924 786.51 728.4571 787.0689 727.8982 787.2924 725.8864 787.7395 724.3216 788.2983 723.7627 789.0807 723.6509 790.0867 723.5392 791.4279 722.7568 794.1105 720.9684 794.5575 715.4916 793.7751 711.6914 794.1105 710.5737 794.334 709.1207 795.2282 708.7854 796.2341 709.0089 797.4636 709.1207 799.0284 708.6736 800.5932 708.003 801.9344 707.5559 803.3875 707.8912 805.1758 708.2265 805.8464 708.5618 806.2935 708.7854 806.8524 709.0089 808.5289 710.2384 811.0997 710.7972 813.8939 710.909 816.6882 710.2384 819.259 708.7854 821.8297 707.7794 823.0592 707.1088 823.5063 706.3264 823.618 705.3205 823.3945 704.7616 823.7298 703.4204 824.8475 702.0791 825.6299 700.8496 825.9652 699.7319 825.9652 698.1671 825.7417 696.8259 825.2946 695.1493 824.5122 693.6963 823.3945 692.8021 822.3886 691.9079 820.8238 684.8663 812.5527 680.619 809.5349 676.8188 804.1699 674.4716 801.9344 670.1125 799.3637 667.43 798.5813 665.1946 798.8048 663.6298 800.705 663.1827 803.2757 662.2886 805.5111 659.4943 806.4053 656.5882 804.9523 652.0056 800.9285 648.7642 800.2579 647.5348 800.3696 643.8463 801.2638 642.1697 801.3756 640.8285 801.152 638.146 800.0343 635.2399 800.0343 632.4457 801.3756 629.7631 803.1639 627.1924 804.6169 624.3981 804.5052 622.7216 802.4933 621.6039 799.8108 620.4861 795.0046 619.7037 792.7692 618.586 790.7573 617.133 789.3043 615.4564 788.4101 610.8738 787.1806 602.6028 786.51 587.6254 788.7454 586.3959 788.1866 585.5018 786.8453 584.4958 783.8275 583.7134 782.7098 582.931 781.4803 580.2485 779.0213 577.2307 777.4565 574.2129 777.6801 573.3187 778.4625 572.7598 779.8037 572.5363 781.2568 572.7598 782.598 573.5422 784.051 574.66 784.8334 576.113 785.3923 577.4542 786.1747 578.4602 787.2924 579.019 788.4101 579.8014 791.0926 582.7075 796.793 582.8193 796.793 584.0487 798.4695 587.1783 800.9285 588.6314 802.3815 591.5374 806.4053 598.0201 811.435 600.5909 812.888 603.8322 814.1175 605.2853 815.0117 609.1972 819.8178 612.1033 822.2768 613.4446 823.7298 613.8916 825.2946 613.8916 827.8653 613.7799 828.9831 613.221 830.2125 611.4327 832.5597 610.762 833.7892 610.5385 835.4658 612.2151 843.8486 612.5504 846.6429 611.8798 852.3432 612.1033 855.1375 613.221 857.3729 615.3447 859.9437 617.8036 864.191 619.8155 866.8735 624.957 876.8211 626.0747 880.3978 626.8571 881.7391 627.0806 882.4097 627.0806 882.9685 626.6336 884.7569 626.41 888.5571 626.0747 889.7866 623.504 894.3692 623.0569 896.0458 623.1686 897.4988 623.7275 898.6165 624.7334 899.1754 626.1865 898.84 630.0985 899.2871 638.146 901.5226 642.3933 901.4108 646.6406 900.8519 655.3587 901.0755 659.4943 901.7461 667.8771 901.9696 669.2184 902.5285 669.4419 903.4227 668.7713 905.6581 668.6595 906.7758 668.8831 911.3584 668.6595 912.2526 667.7653 914.3762 666.8712 916.3881 666.6476 917.5058 666.7594 918.7353 666.0888 920.0766 663.9651 920.859 659.4943 921.7531 658.8237 921.7531 656.9235 921.5296 656.1411 921.6414 652.3409 923.3179 642.7286 931.0301 641.3873 931.7008 640.0461 931.9243 632.2221 931.8125 629.6514 932.0361 627.1924 932.8185 624.5099 934.9421 623.3922 937.1776 622.9451 942.8779 621.8274 947.0134 622.0509 951.0372 621.9392 952.3784 621.4921 953.6079 620.7097 955.1727 619.592 956.8493 618.2507 958.1905 615.1211 959.9789 611.4327 963.5556 606.8501 966.9087 605.5088 968.3617 604.1675 971.0442 603.3851 972.2737 602.2674 972.8326 600.9262 972.0502 600.5909 970.5971 600.8144 968.8088 601.2615 967.5793 602.7145 964.8968 602.6028 963.5556 601.1497 962.6614 599.6967 962.8849 598.0201 963.7791 595.2259 965.791 591.7609 967.6911 590.1961 968.697 588.9667 970.3736 587.5136 973.3914 586.6195 974.6209 578.2366 980.2095 576.8954 980.433 575.5541 980.2095 572.201 978.6447 570.9715 978.6447 569.9656 979.4271 568.4008 980.9919 567.1713 981.9978 565.9418 982.3331 564.8241 982.4449 563.2593 982.892 562.5887 983.3391 560.3532 985.2392 560.1297 985.3509 559.4591 985.6862 559.1238 985.798 559.012 986.1333 558.9002 987.1393 558.7884 987.3628 556.3295 987.9217 553.647 987.5864 551.188 988.257 549.6232 991.3866 549.0644 996.9751 548.3937 999.6576 546.8289 1001.7813 545.4877 1002.3402 544.1464 1002.4519 541.3521 1002.0048 539.6756 1002.1166 538.5579 1002.6755 534.4223 1007.5934 533.6399 1008.9347 532.9693 1010.4994 532.9693 1011.0583 533.0811 1012.9584 532.7458 1013.8526 531.5163 1015.3056 530.2868 1017.3175 528.8338 1018.547 527.1572 1019.4411 525.7042 1020 524.1394 1020 523.0217 1019.5529 522.0157 1018.6587 521.3451 1017.2057 521.2333 1014.0761 522.7981 1011.5054 524.81 1008.9347 525.816 1005.8051 525.816 1004.2403 525.3689 1002.7872 524.5865 1001.446 523.0217 999.4341 522.2393 998.7635 521.4569 998.2046 520.5627 997.7575 519.7803 997.6458 518.4391 997.8693 513.6329 997.7575 512.2916 997.8693 510.6151 998.4282 507.9326 1000.1047 502.2322 1002.7872 500.891 1003.6814 499.438 1005.0227 496.8672 1008.1523 495.4142 1009.4935 494.0729 1010.3877 492.7317 1010.723 489.8256 1010.8348 488.3726 1011.5054 486.249 1013.8526 484.7959 1014.635 483.2311 1014.5232 482.1134 1013.8526 481.1075 1012.9584 479.7662 1012.5113 478.5367 1012.5113 474.7365 1013.629 470.601 1012.7349 466.5772 1009.8288 463.7829 1007.3699 462.5535 1006.2521 459.3121 1003.3461 454.8413 999.3223 449.588 994.6279 444.3348 989.9336 439.8639 985.798 436.6226 983.0037 435.3931 981.886 434.0518 978.98 433.7165 977.4152 434.946 974.9562 434.8342 973.3914 434.2754 971.7149 433.6047 970.3736 432.9341 969.703 432.1517 969.0323 431.5928 968.3617 431.2575 967.4675 431.8164 964.785 431.4811 963.2202 430.8105 961.879 429.4692 959.5318 428.7986 958.0788 428.575 956.7375 428.575 953.7197 428.3515 952.2667 422.6512 937.0658 421.4217 934.8304 421.3099 934.1597 420.9746 933.6009 419.7451 932.7067 419.1862 931.9243 418.7392 931.3655 418.2921 930.6948 418.0685 929.8007 419.1862 928.4594 419.4098 928.0123 419.6333 926.7828 419.4098 923.2062 419.0745 922.0884 418.0685 921.5296 416.8391 921.1943 415.8331 920.6354 415.2743 919.7413 414.1565 916.947 413.7095 914.8233 412.5917 912.3644 412.5917 911.1349 413.3741 910.2407 414.6036 909.0112 415.4978 907.67 415.0507 906.3287 414.7154 905.6581 414.7154 904.4286 414.4919 903.758 413.933 903.1991 411.6976 901.8579 409.3504 901.1872 408.6798 900.7402 407.4503 899.5107 406.6679 898.9518 405.9972 898.7283 405.4384 898.393 404.9913 897.6106 404.656 896.7164 404.4325 896.0458 403.7618 895.4869 402.3088 894.7045 401.6382 894.2574 401.1911 893.475 400.8558 892.8044 400.4087 892.1338 399.6263 891.9102 399.291 891.6867 398.285 890.3454 398.0615 889.7866 397.7262 889.3395 396.2732 888.6689 395.7143 888.2218 395.4908 887.7747 395.0437 886.4334 394.7084 885.8746 393.7024 884.9804 392.4729 884.6451 389.5669 884.6451 388.7845 883.9745 388.3374 882.5215 388.0021 879.5036 387.4432 878.2741 386.5491 876.8211 385.3196 875.8152 384.0901 876.1505 382.7488 876.5976 381.0723 876.2623 378.3898 874.921 377.6074 874.1386 377.0485 873.9151 375.819 874.5857 375.0366 874.5857 373.5836 874.5857 372.2424 874.921 371.5717 875.7034 371.0129 876.5976 370.1187 877.38 370.1187 872.7974 371.2364 871.009 372.913 869.4442 375.7073 866.7617 378.6133 864.191 381.4076 861.5085 384.3136 858.826 387.1079 856.2552 390.014 853.5727 392.8083 850.8902 395.7143 848.3195 396.9438 847.09 397.7262 846.7547 399.1792 846.4194 399.8498 846.1958 400.744 845.637 404.7678 840.6073 406.4443 837.813 406.7796 835.0187 404.5442 832.6715 402.0853 831.6656 401.0793 830.9949 400.1851 829.7655 395.7143 818.0295 393.8142 815.4587 391.2435 814.341 389.9022 814.341 388.6727 814.5646 387.4432 814.5646 386.2138 814.0057 384.9843 812.5527 384.5372 810.9879 384.2019 807.6348 383.5312 806.07 380.8487 801.3756 380.5134 800.0343 380.2899 795.787 379.731 794.2222 379.2839 793.9987 379.5075 792.881 379.0604 791.6515 378.3898 790.8691 377.7191 788.7454 376.4897 787.4042 375.2602 786.3982 374.7013 785.057 374.366 783.0451 373.8072 780.9215 373.4718 778.686 373.8072 776.2271 375.0366 773.9916 375.1484 773.2092 374.9249 772.3151 374.0307 770.862 373.8072 769.9679 373.9189 769.409 374.2542 768.5149 374.2542 767.956 374.0307 767.6207 373.1365 767.2854 372.913 767.0618 372.3541 764.7146 371.907 763.8205 370.5658 762.9263 370.5658 763.3734 370.0069 762.9263 369.4481 762.4792 369.001 761.8086 368.7774 761.0262 368.8892 760.132 369.3363 759.6849 369.7834 759.3496 370.1187 758.7908 370.2305 758.1201 370.1187 755.9965 370.5658 754.3199 370.7893 750.5197 371.1246 749.0667 371.7953 748.0607 372.2424 746.943 372.4659 744.037 372.913 742.8075 372.5777 742.1369 372.6894 741.8015 372.913 741.3545 372.913 740.4603 372.6894 740.0132 372.1306 738.8955 372.0188 738.4484 372.0188 736.8836 372.4659 734.3129 373.3601 731.6304 373.4718 730.4009 373.3601 727.3831 373.4718 727.0477 373.8072 726.7124 374.1425 726.2653 374.2542 725.5947 374.0307 725.1476 372.8012 723.6946 372.3541 723.1358 372.1306 722.4651 372.0188 721.7945 371.907 721.1239 372.0188 720.3415 372.1306 719.4473 372.8012 717.8825 372.913 717.3237 372.8012 715.7589 372.5777 714.5294 372.1306 713.6352 371.5717 712.5175 370.9011 709.9468 371.46 707.1525 373.1365 704.47 375.5955 702.4581 375.9308 702.3463 376.7132 702.4581 376.9367 702.4581 377.3838 702.1228 377.9427 701.3404 378.3898 701.0051 380.2899 700.3344 380.8487 699.8873 382.0782 698.5461 382.8606 698.099 383.643 697.8755 383.9783 697.5402 384.7607 695.0812 385.096 694.5223 385.5431 694.187 385.9902 693.6282 386.2138 692.734 385.9902 692.5105 384.9843 691.5045 384.7607 691.1692 384.649 689.8279 383.8666 685.916 383.8666 682.8981 384.4254 679.9921 385.4314 677.3096 386.9961 674.9624 391.0199 671.1622 391.5788 670.0444 394.7084 666.6913 395.7143 666.0207 398.1733 665.0147 398.9557 664.3441 399.1792 663.2264 399.0674 661.6616 398.5086 660.3204 396.832 659.0909 394.373 655.1789 394.373 652.6081 394.5966 651.714 395.379 650.9316 396.7202 649.9256 397.0556 649.5903 394.373 649.3668 392.5847 648.0255 390.7964 646.2372 388.8963 645.0077 378.3898 642.6605 373.6954 642.2134 372.5777 641.8781 372.0188 641.8781 371.2364 642.3252 369.8952 643.5547 369.2245 644.1135 368.5539 644.2253 367.6597 644.2253 366.8773 644.4488 366.542 645.343 366.4303 646.0136 366.0949 646.6843 365.5361 647.1314 364.8655 647.3549 364.1948 647.4667 361.9594 648.2491 359.1651 648.6961 350.6705 647.9138 347.7645 648.2491 340.164 651.0433 337.7051 651.0433 333.346 649.8139 332.0047 649.7021 330.5517 649.8139 325.6338 651.2669 321.4982 651.4904 320.8276 651.8257 319.0393 653.3905 318.1451 653.8376 316.5803 653.6141 313.786 652.2728 312.4448 652.0493 310.88 651.8257 306.6327 650.5963 305.2914 650.3727 300.9323 650.5963 299.5911 650.2609 297.9145 649.7021 296.4615 649.3668 295.232 649.7021 292.773 648.5844 291.4318 648.2491 289.7552 648.2491 288.5257 648.9197 286.6256 650.708 285.1726 651.4904 281.2606 655.4024 277.4604 657.5261 276.0074 656.4084 273.1013 653.0552 271.7601 652.3846 269.9717 652.7199 266.8421 654.2847 265.1656 654.7318 265.0538 654.7318 264.2714 654.7318 262.3713 652.2728 257.3416 645.9019 252.3119 639.4191 247.1704 633.0482 242.1407 626.6772 237.111 620.3063 232.0813 613.8235 227.0516 607.4526 221.9101 601.0816 220.7924 599.6286 218.6688 597.7285 216.7686 597.2814 214.1979 597.3932 211.8507 597.952 208.0505 600.0757 206.0386 599.9639 199.1088 596.7226 198.1029 596.2755 197.8793 596.1637 197.4322 595.4931 197.2087 595.3813 196.5381 595.2695 194.9733 595.4931 194.3026 595.4931 193.1849 595.1578 192.5143 594.8224 189.1612 590.5751 188.7141 590.1281 187.5964 590.2398 185.6963 590.9105 184.6903 590.9105 182.4549 590.3516 181.7843 590.1281 180.7783 589.3457 180.443 589.1221 178.4311 589.2339 174.4074 590.1281 171.5013 590.3516 168.9306 591.2458 167.5893 591.2458 167.0305 591.5811 166.8069 592.2517 166.0245 593.2576 163.2303 595.2695 159.8771 596.499 156.3004 596.9461 151.6061 596.3872 150.9354 596.8343 150.3766 597.3932 149.5942 597.952 148.3647 598.3991 147.6941 598.1756 147.247 597.7285 146.4646 597.3932 143.2232 597.2814 142.329 596.9461 141.882 596.1637 141.882 595.3813 141.7702 594.5989 141.0996 594.1518 140.0936 594.04 137.4111 594.5989 136.2934 594.4871 134.058 593.9283 133.052 593.8165 132.0461 594.04 130.2578 594.8224 129.4754 595.046 128.1341 593.9283 126.6811 593.4812 125.4516 593.8165 125.3398 593.9283 125.4516 594.04 124.1103 593.9283 123.9986 593.9283 123.8868 593.7047 123.775 593.3694 123.4397 593.0341 122.8809 593.2576 121.9867 593.7047 121.4278 593.9283 120.9807 593.8165 120.1983 593.2576 119.863 592.6988 119.3042 592.3635 117.0688 592.2517 116.1746 592.3635 115.7275 592.9223 116.0628 594.04 114.1627 593.4812 112.5979 593.593 111.0331 593.9283 109.0212 593.9283 109.2448 595.1578 108.7977 595.3813 108.1271 595.1578 107.3447 595.2695 106.5623 595.8284 105.8916 596.2755 105.221 596.7226 104.1033 596.9461 101.9796 596.7226 96.3911 595.4931 94.3792 595.046 94.3792 594.9342 93.7086 594.5989 92.1438 593.2576 91.2496 592.6988 89.3495 591.9164 88.6789 591.3575 87.4494 590.0163 83.7609 582.9747 83.0903 581.0746 82.6432 579.0627 82.4197 577.0508 82.4197 576.492 83.0903 573.8095 82.9785 573.4741 82.5315 573.2506 80.296 570.2328 78.0606 569.5622 72.5838 569.6739 69.3425 569.0033 67.6659 568.4444 66.4364 568.1091 63.9774 566.3208 62.0773 563.303 61.9656 561.7382 62.3009 560.3969 62.8597 559.0557 63.195 557.4909 62.9715 556.2614 61.9656 553.5789 61.8538 552.2376 62.4127 545.196 63.7539 541.0605 63.9774 539.9428 63.7539 537.0367 63.4186 535.8073 62.9715 535.1366 61.6303 533.4601 61.2949 532.9012 61.5185 532.1188 62.0773 531.6717 62.8597 531.3364 63.6421 531.0011 64.5363 530.2187 65.3187 529.3245 65.8776 528.2068 66.2129 526.9773 66.8835 525.7479 68.113 525.5243 69.566 525.7479 70.6837 525.7479 71.8014 524.2948 71.6897 521.7241 70.2366 517.0297 68.0012 512.8942 67.6659 511.4411 67.6659 510.3234 68.3365 508.088 68.4483 506.9703 68.2248 505.8526 67.7777 504.7349 67.107 503.7289 66.3246 502.9465 65.7658 502.6112 65.0952 502.3877 64.4245 502.1641 63.6421 501.4935 62.0773 499.8169 60.7361 498.3639 59.3948 496.9109 58.1653 495.4579 56.8241 494.1166 55.4828 492.6636 54.2534 491.2106 52.9121 489.8693 51.5708 488.4163 50.3414 487.075 49.0001 484.8396 48.3295 482.0453 47.5471 479.1393 46.7647 476.2332 45.9823 473.2154 45.1999 470.3094 44.5293 467.4033 43.7469 464.3855 42.9645 461.4794 42.1821 458.5734 41.8468 457.2321 40.729 456.0026 41.735 454.4378 41.2879 453.6554 40.1702 452.9848 38.9407 451.7553 38.4936 452.3142 37.9348 452.3142 37.3759 452.0906 36.5935 452.0906 35.8111 452.3142 35.2523 452.5377 33.0168 454.1025 31.6756 454.6614 30.3343 454.3261 29.2166 452.6495 28.8813 451.1965 28.9931 448.4022 28.7695 446.7256 28.546 446.3903 27.8754 445.7197 27.6518 445.3844 27.7636 445.1608 27.9871 444.602 27.9871 444.3784 27.2047 441.9195 26.7576 441.3606 25.1928 441.4724 22.2868 444.1549 20.8338 445.0491 19.1572 445.4961 17.9277 446.2785 15.6923 448.4022 13.2333 449.6317 10.5508 449.967 3.1739 450.1905 2.2798 450.1905 1.3856 449.6317 1.3856 448.1787 2.168 446.8374 4.627 445.1608 5.7447 444.0431 6.6388 442.7019 8.8743 436.8898 14.2393 428.954 15.4688 426.048 16.4747 425.1538 19.1572 423.4772 20.2749 422.2477 20.9455 421.0183 22.6221 416.4356 26.3106 410.7353 28.3224 406.488 28.8813 404.6997 28.6578 403.4702 27.9871 402.2407 27.6518 400.4524 27.6518 399.1111 28.2107 396.4286 28.2107 393.8579 31.6756 381.8983 33.0168 367.0328 33.0168 365.8033 33.0168 364.7974 33.1286 364.462 33.5757 363.1208 34.5816 361.7795 35.6993 360.6618 36.5935 359.4323 37.823 355.8557 41.9585 351.0495 43.7469 348.0317 46.9882 338.8664 48.553 335.8486 50.2296 333.8367 53.1356 331.8249 54.3651 330.5954 55.5946 328.9188 57.9418 323.2185 58.5007 322.4361 59.7301 321.0948 60.1772 320.4242 60.4008 319.7536 60.5125 318.4123 60.7361 317.8535 61.9656 317.0711 63.4186 316.8475 66.2129 316.7358 69.9013 315.2827 71.2426 315.0592 72.5838 315.171 75.0428 315.8416 76.2723 315.5063 76.9429 314.6121 78.9548 310.9237 80.8549 307.2352 82.8668 303.435 84.8787 299.7465 86.8905 296.0581 88.9024 292.2579 90.8025 288.5694 92.8144 284.881 93.485 283.5397 94.6028 281.9749 95.944 281.0807 97.6206 280.6337 101.5326 279.6277 105.4446 278.51 109.3565 277.5041 113.2685 276.4981 117.1805 275.4922 121.0925 274.4862 125.0045 273.4803 128.9165 272.4744 130.7048 272.0273 133.3873 270.7978 135.6228 268.8977 136.8523 268.2271 138.8641 268.2271 137.97 269.9036 137.7464 271.1331 138.1935 272.3626 136.4052 272.5861 135.8463 272.8097 135.6228 273.3685 135.6228 273.9274 135.3992 274.4862 134.8404 274.7098 133.2756 274.9333 129.4754 276.9452 126.9046 277.8394 115.7275 279.516 103.2091 283.3162 100.6384 283.7633 98.9618 284.4339 97.5088 285.1045 96.6146 285.8869 95.944 288.3459 96.0558 291.2519 98.0677 300.1936 103.5444 311.259 107.5682 317.0711 109.3565 318.8594 117.1805 323.2185 118.1865 324.0009 118.8571 325.0068 118.9689 326.0128 118.5218 326.1245 115.3922 326.7952 115.6157 325.7892 115.1686 324.895 114.1627 324.3362 112.3744 323.8891 111.7037 323.6656 111.0331 323.5538 110.8096 323.7773 110.586 324.1127 110.2507 324.448 109.4683 325.0068 110.0272 325.7892 112.3744 328.0246 112.9332 328.9188 112.9332 329.7012 112.7097 330.5954 112.5979 331.4895 113.2685 334.2838 114.3862 337.0781 115.7275 339.4253 117.2923 341.549 119.416 343.4491 122.2102 344.9021 121.5396 346.4669 120.9807 349.1494 119.9748 350.6024 120.3101 351.1613 120.4219 351.8319 120.3101 352.6143 119.9748 353.2849 120.3101 354.4026 119.7513 355.7439 118.9689 357.3087 118.6336 358.6499 118.7453 362.4502 118.7453 362.7855 118.7453 363.009 118.1865 363.5679 117.7394 363.7914 115.8393 364.462 114.3862 366.0268 114.2745 366.3622 113.1568 366.5857 112.0391 367.2563 110.3625 368.7094 108.6859 370.6095 104.8857 377.8746 101.1972 382.7925 100.8619 384.3573 99.856 385.0279 97.1735 385.8103 96.0558 386.5927 95.1616 387.8222 94.6028 389.1635 93.9321 392.0695 92.4791 394.752 91.1378 398.5523 86.7788 403.4702 85.7728 405.4821 85.8846 406.488 87.2259 409.1705 88.0083 410.4 92.5909 414.9826 94.0439 417.1063 97.5088 424.8185 96.3911 424.1479 95.8322 422.8066 95.3851 421.3536 94.8263 420.1241 94.3792 420.5712 94.6028 420.7947 94.7145 421.0183 94.8263 421.4653 94.2674 421.6889 93.9321 421.8007 93.8204 422.0242 93.485 422.4713 94.491 422.9184 95.4969 423.8125 96.2793 425.042 96.6146 426.3833 96.1675 427.7245 95.0498 427.7245 93.9321 427.0539 93.038 426.1597 92.7026 427.3892 93.2615 428.7305 94.3792 430.2953 95.3851 429.6246 96.8382 428.1716 98.2912 427.501 98.9618 428.954 99.4089 428.954 99.4089 427.501 100.0795 428.0598 101.8679 430.0717 102.5385 430.5188 103.2091 430.7424 103.8798 430.9659 104.4386 431.6365 102.315 431.3012 100.6384 431.9718 99.7442 433.4249 100.3031 435.325 100.9737 433.0895 101.1972 432.5307 105.1092 432.5307 106.7858 433.6484 108.3506 435.5485 109.9154 436.6662 111.7037 435.325 111.4802 436.4427 111.2567 436.778 111.9273 437.3369 112.1508 437.7839 111.7037 438.1193 110.8096 438.1193 110.8096 438.5663 111.592 439.3487 111.7037 440.5782 111.3684 441.8077 110.8096 442.8136 110.1389 442.143 108.7977 443.149 106.227 445.6079 106.8976 446.055 107.5682 445.4961 108.3506 445.0491 109.0212 446.055 109.4683 445.8315 109.9154 445.4961 110.1389 445.1608 110.3625 444.602 111.0331 445.2726 110.8096 445.9432 110.6978 446.7256 111.7037 447.3963 110.4743 447.508 110.586 448.4022 111.7037 450.1905 110.1389 451.9789 109.9154 452.5377 110.0272 453.2084 110.586 453.5437 111.0331 453.6554 111.2567 454.1025 111.7037 454.1025 112.4861 454.5496 113.1568 454.9967 112.9332 455.2202 112.8215 455.5556 113.3803 456.1144 114.9451 457.1204 117.6276 458.0145 120.5337 458.4616 123.4397 458.4616 126.3458 458.0145 135.8463 454.9967 142.4408 452.2024 144.5645 450.8612 145.9057 449.1846 146.9117 445.6079 148.1411 444.7138 149.8177 442.4783 150.4883 441.8077 151.0472 441.6959 152.8355 441.4724 153.2826 441.1371 153.7297 440.9135 154.2886 440.5782 154.8474 440.4664 155.7416 440.1311 156.524 439.237 156.8593 438.1193 156.8593 436.778 155.7416 433.0895 155.4063 427.3892 155.071 426.1597 154.7356 425.2656 154.6239 424.5949 154.6239 423.8125 154.9592 423.2537 156.1887 421.4653 156.1887 420.6829 157.4182 415.8768 157.4182 412.7472 157.8652 412.3001 158.0888 411.853 158.3123 411.2942 158.3123 411.0706 157.8652 409.9529 156.9711 408.8352 155.8534 407.8293 154.8474 406.488 154.6239 404.8114 155.2945 404.6997 155.7416 404.4761 155.9651 403.9173 155.8534 403.3584 154.6239 402.0172 153.3944 400.2288 149.8177 395.758 148.3647 394.752 146.7999 395.0873 145.4586 389.0517 144.2292 386.0339 142.7761 383.4631 140.2054 380.8924 138.7524 379.7747 136.4052 378.8805 135.7345 377.7628 135.0639 375.1921 134.3933 374.1861 133.052 372.5096 132.4932 370.4977 131.8226 369.4917 130.4813 367.7034 129.6989 367.0328 129.3636 366.5857 129.0283 365.9151 129.0283 365.2444 129.3636 364.1267 129.8107 360.6618 129.5871 359.7677 128.5812 358.8735 125.5634 356.8616 124.5574 355.5204 124.5574 353.8438 124.781 353.2849 127.1282 351.273 127.3517 351.273 127.0164 351.0495 125.1163 347.9199 125.0045 347.2493 125.1163 346.3551 125.4516 344.5668 125.4516 343.5608 125.2281 342.7784 124.781 342.2196 123.6633 341.2136 122.8809 340.0959 122.4338 339.6488 121.7631 339.4253 121.7631 338.9782 126.6811 338.7547 128.8047 338.9782 130.9284 339.8724 131.599 338.3076 131.3755 336.9663 130.7048 335.7369 130.4813 334.7309 130.9284 333.725 132.4932 332.6073 133.1638 331.4895 131.4872 331.4895 130.8166 331.3778 130.0342 331.0425 129.3636 330.4836 128.1341 329.1424 127.2399 328.6953 130.146 327.6893 132.7167 327.354 138.1935 327.354 141.0996 326.9069 141.882 326.5716 148.9235 323.6656 151.9414 321.989 152.5002 321.4301 156.524 319.8653 169.2659 312.712 179.7724 309.9177 181.5607 309.1353 183.0138 309.8059 185.2492 309.8059 192.9614 308.8 194.1909 308.1294 195.3086 306.4528 194.638 306.6763 194.0791 307.0117 193.632 307.5705 193.4085 308.2411 193.1849 306.5646 194.8615 306.0057 198.3264 306.4528 200.5618 305.8939 205.5915 303.435 208.0505 301.7584 209.3917 301.8702 211.8507 302.2055 215.2039 300.4172 216.6569 298.7406 217.551 296.9523 217.6628 295.611 217.551 295.1639 216.9922 294.7168 216.3216 294.6051 216.9922 294.158 217.8864 294.158 218.7805 294.6051 219.3394 295.4992 220.01 296.2816 220.5689 296.8405 221.3513 296.5052 221.6866 295.8345 222.0219 294.9404 222.5807 294.9404 223.3631 295.3875 224.0338 295.611 224.4809 296.0581 224.8162 296.0581 224.9279 295.3875 224.9279 294.8286 224.8162 294.3815 224.5926 294.0462 224.0338 293.8227 224.0338 293.4873 224.1455 293.3756 224.4809 292.8167 223.4749 292.4814 223.6985 291.5872 220.7924 290.6931 219.2276 290.5813 219.0041 290.3578 219.3394 289.9107 219.7865 290.0224 220.7924 289.9107 220.2336 289.4636 219.4512 289.1283 218.6688 288.9047 217.7746 288.3459 216.4333 287.4517 219.1158 288.0106 220.9042 289.1283 222.6925 290.0224 223.922 290.5813 224.4809 290.8048 225.5986 291.1402 226.7163 291.0284 227.834 291.3637 228.8399 291.9226 230.0694 291.3637 230.8518 290.6931 232.1931 291.1402 232.5284 292.2579 233.0872 292.4814 233.9814 292.3696 234.4285 293.4873 235.4344 294.158 236.7757 294.8286 237.5581 296.3934 239.6817 297.1758 240.9112 296.3934 241.2465 295.3875 243.2584 294.2697 244.0408 293.3756 244.2644 291.8108 242.9231 289.4636 243.1466 288.2341 242.5878 287.4517 241.5818 284.2103 241.1348 282.1985 239.4582 278.8453 239.1229 278.8453 238.8993 280.1866 238.3405 279.963 237.7816 279.2924 237.2228 278.8453 236.4404 279.0689 235.8815 279.6277 235.4344 280.0748 235.2109 280.2983 232.0813 281.3043 230.5165 281.4161 230.8518 280.2983 228.1693 281.5278 227.4987 281.6396 225.4868 281.7514 224.4809 281.9749 223.8102 282.422 222.3572 283.0926 217.9981 283.5397 214.8685 285.1045 213.0802 284.6574 211.9625 283.4279 211.7389 281.6396 211.9625 281.1925 212.7449 280.2983 213.0802 279.8513 213.0802 279.2924 212.9684 279.0689 212.7449 278.7336 212.6331 278.3982 212.6331 276.6099 212.5213 276.4981 211.8507 275.604 211.7389 275.1569 212.0743 275.3804 213.192 275.8275 213.5273 276.1628 213.5273 274.2627 213.4155 273.3685 213.0802 272.8097 212.2978 272.4744 211.9625 272.9215 211.7389 273.7039 211.1801 274.2627 210.8448 273.0332 209.3917 270.5743 209.1682 270.1272 208.8329 269.9036 208.6094 269.5683 208.4976 268.2271 208.274 267.78 207.827 267.5564 207.1563 267.6682 207.4916 266.774 207.9387 264.3151 208.0505 263.3091 208.3858 262.1914 209.6153 259.956 209.8388 258.6147 210.2859 257.6088 212.2978 255.1498 213.0802 254.1439 213.3037 253.0262 213.192 251.0143 213.5273 250.4554 216.4333 250.3437 217.6628 250.0084 218.7805 249.226 222.9161 245.6493 224.4809 244.8669 226.0457 244.5316 227.0516 244.8669 227.834 245.4257 230.9636 246.2081 232.1931 247.2141 238.2287 257.0499 239.1229 259.7325 239.4582 262.6385 239.4582 268.5624 240.0171 271.4684 244.0408 283.0926 247.1704 289.3518 249.5176 292.2579 252.3119 294.2697 254.6591 294.6051 256.3356 293.4873 258.0122 292.1461 260.5829 291.4755 266.1715 292.3696 268.7422 292.4814 271.5365 291.4755 273.3249 290.246 274.4426 289.7989 275.8956 289.5754 276.5662 289.7989 277.9075 290.8048 278.5781 291.0284 280.8135 290.9166 281.4842 291.0284 285.8432 292.705 286.6256 292.705 286.9609 293.3756 287.8551 294.158 288.8611 294.8286 289.7552 295.2757 292.5495 295.7228 302.9442 295.2757 304.1737 295.611 305.2914 296.3934 307.4151 298.8524 308.7563 299.7465 310.2094 300.6407 312.4448 301.4231 313.5625 301.7584 314.4567 301.7584 314.9037 301.4231 315.2391 301.6466 316.8039 302.429 317.1392 302.8761 317.8098 304.1056 319.4864 305.4469 324.5161 308.0176 325.9691 309.1353 327.1986 310.253 327.6457 311.259 328.2045 311.9296 332.6754 313.8297 333.0107 313.1591 333.1224 312.9355 333.1224 312.3767 333.5695 312.3767 333.7931 312.8238 334.4637 313.8297 334.4637 314.2768 333.9048 315.618 334.5755 317.2946 337.1462 321.0948 341.2817 329.1424 341.9524 331.0425 341.2817 331.9366 340.8347 331.6013 340.164 331.0425 339.2699 330.3718 338.1521 330.1483 337.258 330.2601 336.4756 330.7072 335.805 331.1542 335.3579 331.4895 337.5933 332.1602 342.9583 332.6073 344.5231 333.8367 343.8525 335.178 342.7348 335.6251 339.7169 335.7369 338.711 336.2957 338.3757 337.637 338.3757 339.09 339.2699 343.3373 341.3935 349.2612 342.2877 350.826 343.7407 353.5085 344.2996 354.6262 346.535 357.4205 349.1057 359.6559 351.7882 360.7736 360.0593 360.6618 361.177 360.9971 362.7418 361.6678 364.4184 362.2266 365.5361 362.0031 366.4303 361.4442 367.6597 361.2207 368.4421 361.3325 368.8892 361.556 369.1128 362.0031 369.2245 362.5619 369.2245 362.8972 369.4481 363.1208 369.8952 362.6737 370.454 362.0031 370.5658 361.6678 372.5777 360.7736 375.2602 360.2147 384.0901 359.5441 389.7904 357.9793 395.2672 357.644 400.9675 356.9734 405.3266 356.5263 410.9152 356.7498 415.7213 356.0792 419.5216 354.1791 422.0923 353.6202 424.7748 352.6143 426.2278 352.3908 434.7224 352.5025 441.9876 351.8319 457.6355 350.9377 465.236 351.0495 465.9066 351.273 466.689 351.7201 470.3774 352.3908 471.4952 352.3908 472.2776 351.7201 473.06 350.826 474.0659 349.9318 475.2954 349.5965 476.9719 349.82 480.9957 351.9437 485.3548 353.0614 486.696 354.1791 489.8256 354.6262 490.608 354.738 490.1609 355.7439 488.5961 356.6381 486.9196 357.1969 485.5783 356.9734 485.6901 357.7558 485.5783 359.4323 485.8019 360.103 487.8138 362.2266 492.9552 366.1386 493.4023 366.8092 495.6377 368.1505 496.8672 369.9388 501.5616 372.8449 500.5557 372.8449 499.6615 372.7331 498.8791 372.3978 498.3202 371.9507 497.8732 372.286 497.4261 372.8449 498.7673 374.6332 500.5557 374.2979 502.2322 375.3039 505.1383 377.8746 506.9266 378.5452 508.715 378.7688 512.5152 378.8805 510.5033 377.5393 503.9088 374.745 502.4558 372.8449 521.6804 381.2277 529.7279 383.6867 531.9634 384.022 539.6756 385.475 549.0644 387.1516 551.7469 388.6046 554.2058 389.2752 554.9882 389.4988 554.9882 390.0576 549.9585 388.3811 548.6173 388.1575 549.1761 389.0517 550.4056 389.8341 551.7469 390.2812 554.7647 390.5047 555.4353 390.5047 555.9942 390.2812 557.1119 389.6106 559.2355 389.2752 561.5827 387.7105 562.7004 387.1516 564.0417 387.0398 567.7301 387.7105 572.6481 388.0458 575.2188 387.7105 577.1189 386.5927 577.7895 385.5868 578.3484 384.5809 579.1308 382.1219 579.1308 381.0042 578.7955 379.3276 579.1308 378.3217 579.6897 378.9923 580.3603 379.3276 581.0309 379.4394 581.9251 379.3276 581.3662 379.9982 581.1427 380.11 580.4721 380.2218 581.2545 381.2277 582.4839 381.116 583.1546 380.4453 582.3722 379.7747 583.1546 379.2158 584.8311 376.9804 585.8371 376.8686 587.7372 376.198 588.7431 376.0862 588.6314 376.5333 588.5196 376.7569 588.296 376.9804 588.6314 376.8686 589.302 376.7569 589.6373 376.5333 590.0844 377.4275 590.5315 377.3157 590.9785 376.8686 591.2021 376.7569 591.5374 376.5333 592.208 376.7569 593.6611 377.4275 594.2199 377.5393 595.6729 376.9804 597.573 375.0803 599.6967 374.5215 600.9262 373.8508 601.2615 373.7391 601.8204 373.4037 601.8204 372.7331 601.485 372.286 599.5849 373.1802 598.1319 373.0684 596.5671 372.5096 595.5612 371.9507 596.0083 371.2801 596.7906 371.3919 597.573 371.7272 598.3554 371.9507 599.1378 371.6154 600.5909 370.833 601.5968 370.4977 601.3733 369.6035 601.3733 369.2682 601.5968 368.7094 600.1438 368.7094 600.1438 368.1505 601.485 367.5916 602.1557 367.927 602.3792 368.7094 602.3792 369.8271 602.6028 370.833 603.1616 370.833 603.7205 370.1624 604.2793 369.1564 604.2793 367.3681 606.9618 366.2504 610.4267 365.3562 612.8857 364.015 613.4446 362.8972 613.7799 362.0031 614.3387 361.4442 615.9035 361.2207 617.3565 361.2207 618.3625 361.4442 619.2567 361.7795 622.2745 363.1208 623.504 363.4561 625.0688 363.5679 626.6336 363.4561 630.6573 362.5619 631.9986 362.6737 634.6811 363.4561 636.0223 363.5679 638.9284 363.4561 647.9818 361.3325 649.882 360.3265 648.3172 360.103 646.6406 360.2147 644.964 360.103 643.2875 359.097 642.1697 358.2029 638.7048 356.5263 637.14 356.0792 633.5634 356.0792 631.9986 355.8557 630.4338 354.9615 629.0925 354.4026 627.3042 354.4026 623.8393 355.185 624.1746 354.8497 624.8452 353.8438 623.8393 353.8438 623.1686 354.2909 622.6098 354.8497 622.0509 355.185 621.1568 355.4086 616.5741 354.9615 615.68 355.185 613.6681 356.4145 613.1092 356.6381 612.5504 356.9734 611.9915 358.5382 611.3209 358.8735 610.315 358.5382 609.8679 357.644 609.7561 356.6381 609.7561 355.8557 609.1972 354.5144 607.9678 353.1732 607.0736 351.8319 607.4089 350.6024 608.1913 350.1553 608.6384 349.7083 608.8619 349.0376 608.8619 348.2552 609.309 348.2552 609.9796 349.3729 610.8738 350.0436 613.8916 350.6024 614.674 350.9377 616.4624 351.8319 617.2448 351.9437 618.1389 351.8319 622.0509 349.9318 622.7216 349.7083 623.6157 349.5965 624.0628 349.7083 624.2864 350.0436 624.5099 350.3789 624.8452 350.6024 631.1044 350.4906 632.5574 351.0495 633.5634 350.6024 636.1341 350.0436 637.14 349.5965 637.8107 348.9259 638.3695 347.9199 638.7048 346.8022 638.9284 345.4609 639.3755 345.4609 640.2696 347.0257 641.4991 348.0317 643.0639 348.7023 649.9937 350.3789 656.7 351.1613 658.153 351.0495 660.8355 349.2612 662.5121 348.5905 663.6298 349.1494 664.0769 349.1494 664.3004 348.367 664.8593 348.2552 665.7535 348.4788 666.5359 348.7023 666.8712 348.367 667.3183 347.0257 667.7653 346.4669 668.1007 346.914 668.5477 347.1375 669.1066 347.1375 669.5537 346.8022 670.0008 347.2493 669.5537 347.6964 670.8949 348.2552 671.4538 347.3611 672.348 347.4728 673.4657 347.9199 674.5834 348.2552 674.5834 347.9199 674.9187 347.4728 675.4776 347.1375 676.1482 347.4728 676.8188 347.6964 677.4894 347.3611 682.0721 344.2315 682.7427 344.0079 682.9662 344.3432 683.1898 345.0139 683.5251 345.6845 684.4193 345.908 685.0899 345.908 685.7605 345.7963 686.3194 345.5727 686.8782 344.9021 687.9959 345.3492 692.5785 344.9021 694.0316 345.1256 696.7141 346.1316 698.2789 346.4669 699.9554 346.2433 702.638 345.2374 704.9851 344.7903 712.2503 342.3314 713.1444 342.2196 714.5975 343.002 715.3799 343.1138 716.274 343.2255 717.6153 343.4491 724.098 343.5608 733.7103 345.3492 738.9636 346.0198 741.8696 346.4669 746.6758 346.5787 748.7994 347.2493 749.9172 347.2493 750.6996 346.914 752.4879 345.6845 753.2703 345.4609 757.7411 345.4609 759.6413 345.0139 761.3178 344.0079 762.1002 344.7903 763.8886 344.2315 764.4474 344.9021 765.5651 344.2315 767.3535 343.6726 769.1418 343.3373 770.3713 343.5608 769.3653 344.1197 768.3594 344.7903 767.8006 345.908 768.1359 347.2493 767.6888 347.6964 766.9064 347.0257 766.3475 347.4728 765.5651 348.2552 764.2239 348.7023 764.0003 348.8141 763.2179 349.3729 762.6591 349.5965 761.8767 349.5965 761.2061 349.4847 760.6472 349.5965 759.8648 350.1553 755.7293 350.6024 754.1645 351.0495 748.4641 350.2671 744.2168 350.6024 743.3227 350.9377 742.5403 351.8319 739.2989 356.6381 737.8459 357.8675 736.3928 357.7558 734.9398 356.8616 733.5986 356.9734 732.2573 357.3087 730.6925 357.5322 729.9101 357.4205 728.6806 356.7498 727.8982 356.6381 727.3394 356.6381 726.2217 356.9734 725.4393 356.9734 724.098 356.8616 719.7389 355.6321 716.0505 355.4086 700.5143 357.4205 698.6142 357.8675 697.8318 358.6499 697.1612 359.7677 695.5964 360.9971 693.9198 362.1149 692.8021 362.5619 692.8021 363.1208 694.814 362.2266 698.5024 359.097 700.6261 357.9793 703.085 357.7558 704.091 359.097 704.3145 361.1089 704.3145 362.8972 704.6498 364.9091 704.7616 366.2504 704.4263 366.8092 703.8674 366.921 702.8615 367.2563 702.4144 367.2563 701.8556 367.0328 700.8496 366.1386 700.2908 365.9151 695.9317 365.6915 693.808 366.1386 693.2492 367.7034 693.6963 367.3681 695.1493 366.8092 695.4846 368.4858 695.8199 369.1564 696.4905 369.6035 695.7081 370.0506 694.5904 371.3919 693.6963 371.9507 694.9257 372.7331 694.814 373.4037 694.0316 374.1861 693.2492 375.1921 697.1612 374.9685 698.0553 374.4097 698.3906 373.292 697.0494 370.6095 697.3847 369.1564 696.6023 368.5976 696.3788 367.8152 696.6023 366.921 697.3847 366.3622 698.5024 366.3622 699.6201 366.921 701.5202 368.7094 702.1909 368.1505 702.8615 368.0387 703.5321 367.927 704.3145 367.7034 706.3264 366.5857 706.7735 366.3622 707.8912 366.5857 709.2325 367.0328 710.3502 367.5916 711.1326 368.1505 711.3561 368.7094 711.3561 369.8271 711.5796 370.4977 712.0267 371.0565 713.5915 372.0625 714.4857 373.0684 715.1563 373.9626 715.6034 375.0803 715.6034 376.5333 715.1563 378.5452 715.1563 379.3276 715.9387 380.8924 716.0505 381.4513 716.274 381.6748 716.8329 381.8983 717.28 382.2337 717.6153 383.3514 718.2859 384.5809 718.3977 384.9162 718.1741 386.0339 717.3917 387.2634 716.3858 388.2693 715.3799 388.6046 714.7092 388.7164 713.368 389.0517 712.6974 389.0517 711.8032 388.9399 711.3561 388.7164 711.0208 388.3811 710.6855 388.1575 709.5678 387.934 708.3383 387.934 707.3323 388.3811 706.997 389.2752 706.8853 389.9459 706.4382 390.393 705.8793 390.84 705.3205 390.9518 704.9851 390.6165 704.6498 389.387 704.4263 388.8282 703.4204 388.3811 701.632 389.2752 700.6261 389.0517 700.4025 388.6046 700.5143 387.934 700.5143 387.2634 700.0672 386.8163 699.3966 386.8163 698.8377 387.1516 698.2789 387.5987 697.8318 388.1575 697.6083 387.3751 697.2729 386.9281 696.7141 386.5927 696.0435 386.2574 694.9257 387.1516 694.2551 387.2634 692.355 386.8163 692.6903 387.1516 692.9139 387.4869 693.808 388.4928 694.7022 389.0517 695.1493 388.8282 695.3728 388.1575 696.0435 387.8222 696.7141 387.8222 696.9376 388.3811 697.2729 391.7342 697.8318 393.1872 698.8377 393.1872 698.0553 392.2931 698.1671 391.3989 698.3906 390.6165 698.0553 389.7223 698.0553 389.387 698.2789 388.7164 698.726 388.1575 699.173 388.1575 699.5084 388.6046 699.173 389.6106 699.3966 390.2812 700.5143 390.84 701.4085 390.6165 702.3026 390.0576 703.3086 390.0576 704.2028 390.5047 704.7616 391.1754 705.6558 391.7342 706.997 391.846 706.2146 393.5226 706.7735 394.0814 707.7794 393.6343 708.3383 392.5166 707.6677 390.2812 707.8912 389.0517 709.2325 388.6046 709.6795 388.9399 710.909 390.0576 711.5796 390.5047 712.362 390.5047 715.9387 389.6106 717.5035 388.7164 718.9565 387.5987 719.7389 386.2574 719.7389 384.8044 718.733 381.8983 718.3977 380.4453 718.8448 378.5452 720.0743 378.0981 721.5273 378.5452 722.9803 379.3276 725.6628 381.3395 727.1158 383.4631 728.9042 389.0517 729.463 390.2812 730.1337 391.2871 730.6925 392.4048 730.6925 393.7461 731.5867 395.0873 731.6985 395.9815 731.4749 396.8757 730.6925 398.3287 731.922 398.3287 732.9279 398.8876 733.7103 399.7817 734.9398 401.5701 738.5165 408.2763 738.9636 409.3941 738.8518 410.6235 738.5165 411.6295 738.4047 412.6354 738.5165 412.7472 738.9636 413.6414 740.7519 411.853 742.0932 409.5058 743.9933 404.3644 744.1051 402.2407 742.9873 397.9934 742.9873 395.5344 744.2168 396.4286 745.3345 397.9934 747.7935 402.6878 748.2406 404.1408 748.4641 413.7531 747.6817 416.5474 745.7816 418.224 748.0171 417.5534 749.3583 415.2062 749.9172 412.3001 749.4701 403.9173 749.023 402.3525 747.6817 399.7817 747.1229 398.3287 751.0349 398.7758 752.1526 399.1111 752.5997 399.7817 752.935 400.7877 753.4938 401.6818 754.2762 401.9054 756.3999 402.4642 757.6294 402.576 758.1882 402.4642 758.3 402.2407 757.6294 401.6818 757.0705 401.3465 755.0586 400.7877 754.1645 400.6759 754.1645 400.3406 752.1526 398.3287 751.1466 397.7699 750.2525 397.5463 746.2287 397.4345 745.4463 396.9875 744.3286 395.9815 745.2228 394.6403 745.6699 393.5226 746.3405 392.8519 747.0111 392.4048 752.7114 393.9696 756.0646 395.3109 758.4118 396.6521 765.118 401.9054 766.3475 403.0231 768.3594 405.7056 770.2595 407.0469 771.3772 407.8293 771.3772 408.7234 771.6008 409.2823 772.4949 410.1765 772.7185 410.8471 772.7185 411.5177 771.9361 413.5296 770.7066 415.9886 770.3713 417.3298 770.8184 417.3298 772.7185 413.6414 773.6127 409.9529 774.8421 410.0647 775.7363 411.4059 776.6305 413.0825 777.1893 414.0884 776.854 415.4297 777.1893 421.0183 777.86 419.677 778.0835 418.224 778.1953 415.2062 778.0835 414.4238 777.86 413.8649 777.4129 413.4178 777.0776 412.9707 776.6305 412.1883 776.2952 410.6235 775.9598 409.9529 775.5128 409.7294 774.1715 409.3941 773.6127 409.0587 773.6127 408.6117 772.4949 407.1586 772.0479 406.3762 771.8243 405.9292 771.6008 405.4821 772.1596 405.2585 774.1715 405.2585 776.6305 405.7056 781.8837 407.3822 782.5543 407.4939 787.2487 408.4999 788.4782 407.7175 788.2547 406.7116 787.3605 405.8174 786.6899 404.8114 786.131 404.5879 785.6839 404.3644 784.5662 403.582 784.4545 403.0231 784.3427 402.576 783.3367 402.3525 782.4426 401.5701 782.1073 400.7877 782.4426 400.5641 784.3427 400.5641 785.0133 400.8994 786.0193 401.3465 787.9194 402.4642 790.6019 404.1408 792.8373 405.5938 795.0727 407.1586 796.0787 408.3881 798.6494 411.6295 798.3141 409.7294 796.6375 407.7175 796.1904 406.488 794.2903 405.7056 793.2844 404.5879 793.5079 404.4761 794.4021 405.2585 795.408 405.4821 796.6375 405.5938 797.5317 406.0409 798.2023 406.8233 799.9906 408.8352 801.1084 409.9529 802.1143 410.8471 803.1202 411.9648 804.238 413.1943 805.1321 413.9767 806.3616 414.9826 809.4912 417.5534 810.9442 418.6711 811.7266 420.7947 813.0679 422.3595 813.962 421.9124 812.8443 420.5712 814.5209 420.5712 818.0976 422.6948 819.3271 421.9124 819.7741 422.136 822.2331 421.9124 823.2391 422.0242 825.698 423.3655 828.2688 424.2596 829.3865 424.9303 829.7218 426.1597 829.2747 426.048 829.0512 425.8244 828.8276 425.1538 828.7158 427.3892 828.8276 427.9481 829.3865 428.3952 829.8336 428.3952 830.2806 428.1716 830.9513 427.9481 832.069 428.1716 833.4102 428.8422 834.8633 429.6246 835.981 430.5188 836.5398 431.1894 837.5458 432.6425 838.5517 433.6484 838.7752 433.8719 838.887 434.2073 838.887 434.6543 839.1106 434.8779 839.893 435.1014 840.2283 435.325 840.7871 436.778 841.1224 438.4546 841.0107 440.1311 840.2283 441.4724 840.1165 440.9135 839.893 440.5782 839.3341 440.0194 838.9988 440.9135 838.887 442.0312 838.6635 442.9254 837.7693 443.2607 836.6516 443.4843 835.1986 444.4902 834.5279 444.602 833.7455 444.7138 832.9631 444.9373 832.1807 445.2726 831.6219 445.6079 831.1748 446.2785 830.8395 446.7256 830.5042 446.9492 830.3924 446.9492 828.8276 447.3963 825.1392 450.9729 823.5744 451.5318 822.3449 452.426 821.1154 454.4378 819.3271 458.4616 820.2212 458.1263 821.1154 457.3439 821.786 456.338 822.0096 455.4438 822.3449 454.8849 827.8217 449.967 829.4982 448.9611 829.7218 450.1905 829.3865 450.8612 828.3805 451.8671 827.9334 452.5377 827.7099 453.0966 827.4864 454.5496 827.2628 454.9967 826.8157 455.5556 826.5922 456.1144 826.5922 457.3439 826.3686 458.0145 825.5862 458.3498 824.8039 458.6851 824.245 458.9087 822.0096 461.4794 821.5625 461.4794 821.2272 462.0383 820.1095 463.9384 819.6624 465.0561 818.88 467.8504 818.7682 468.8563 819.2153 470.3094 819.3271 470.98 818.3211 473.7743 814.7444 479.1393 813.8503 482.0453 813.515 485.2867 812.8443 487.6339 811.1678 488.9751 808.2617 488.9751 804.3497 487.7457 803.5673 487.6339 791.9431 488.5281 789.0371 487.8574 786.4663 486.1809 785.1251 486.2926 783.7838 486.5162 782.8897 487.1868 782.7779 488.5281 783.3367 489.1987 786.9134 491.3223 789.3724 491.7694 790.043 491.993 790.3783 492.44 790.7136 492.8871 790.9372 493.1107 791.7196 493.2224 792.8373 492.7754 793.5079 492.6636 793.6197 492.8871 794.2903 493.7813 795.408 494.7872 795.8551 494.899 796.6375 495.0108 796.9728 495.2343 797.5317 496.1285 797.867 496.4638 799.0965 496.5756 801.6672 495.905 802.7849 495.905 803.4556 496.352 803.9026 497.358 804.238 498.3639 804.685 499.1463 805.3557 499.8169 807.0322 500.9347 807.8146 501.9406 809.9383 500.4876 810.7207 499.5934 811.056 498.4757 811.5031 497.6933 812.6208 496.7991 813.7385 495.905 814.7444 495.4579 816.1975 495.1226 820.4448 495.4579 823.4626 494.899 825.0274 494.899 825.1392 495.905 824.1332 496.7991 821.5625 497.2462 821.1154 498.4757 821.0036 499.9287 821.0036 500.7111 821.3389 501.27 822.0096 501.4935 822.1213 500.9347 822.0096 499.1463 822.3449 497.9168 822.6802 497.6933 823.3508 497.2462 824.0215 497.1344 824.8039 497.2462 825.3627 497.1344 825.698 496.5756 825.8098 496.0167 826.1451 495.3461 826.4804 494.7872 827.2628 494.2284 827.3746 493.3342 827.4864 491.7694 827.5981 491.0988 827.5981 490.6517 827.8217 490.2046 828.3805 489.8693 829.61 490.3164 830.9513 490.0928 832.2925 489.6458 838.887 488.9751 847.2699 487.9692 848.4993 488.7516 848.8347 489.4222 849.8406 490.2046 850.8465 490.8752 851.6289 491.3223 852.9702 491.5459 857.1057 491.7694 861.4648 492.7754 862.5825 492.6636 862.8061 492.44 863.5884 490.8752 864.9297 489.4222 866.4945 486.7397 868.6182 485.8455 880.2424 486.6279 882.9249 487.4103 885.3838 488.5281 887.8428 490.0928 889.0723 490.6517 891.9783 491.0988ZM825.698 487.6339L826.0333 487.7457 826.2569 487.8574 826.4804 487.9692 827.0393 488.081 827.2628 489.8693 826.3686 491.4341 824.9156 492.1047 823.3508 491.3223 823.2391 492.2165 823.7979 493.1107 824.0215 493.7813 818.3211 494.5637 811.2795 493.8931 808.7088 494.0048 809.4912 492.5518 810.3854 491.0988 811.6149 490.2046 813.2914 489.8693 814.7444 490.3164 816.8681 492.1047 818.3211 492.6636 817.5387 491.5459 817.427 491.5459 817.5387 490.987 817.874 490.6517 818.2094 490.3164 818.3211 490.0928 820.2212 488.081 821.0036 487.8574 825.2509 487.5221 825.698 487.6339ZM832.069 459.3558L833.522 459.0205 835.0868 459.4675 836.4281 460.2499 837.5458 461.2559 836.0927 461.703 835.6457 461.703 836.6516 463.2678 835.7574 465.2796 833.9691 467.068 831.1748 469.1916 822.2331 472.8801 820.6683 473.3272 824.3568 470.5329 825.5862 469.4152 827.9334 466.062 828.7158 463.8266 829.3865 463.156 830.1689 462.5971 830.9513 461.9265 831.1748 461.2559 831.063 460.697 831.1748 460.0264 832.069 459.3558ZM821.1154 468.6328L820.333 467.9622 820.5565 466.7327 821.2272 465.1679 821.5625 463.8266 822.1213 462.7089 823.5744 462.1501 825.2509 461.8147 826.5922 461.2559 827.8217 460.0264 830.2806 456.8968 831.3983 456.2262 832.9631 456.1144 836.6516 454.7732 836.6516 455.4438 836.5398 456.0026 836.4281 456.5615 836.2045 457.1204 836.2045 456.6733 835.6457 457.791 835.0868 458.3498 834.0809 458.5734 832.7396 458.4616 831.6219 458.7969 830.5042 459.5793 824.9156 464.7208 824.5803 465.3914 824.245 466.7327 823.7979 467.2915 821.5625 468.521 821.1154 468.6328ZM835.1986 453.4319L834.0809 454.6614 830.7277 455.7791 829.3865 456.6733 830.5042 454.3261 830.616 452.0906 830.9513 450.1905 832.9631 448.8493 835.3103 448.1787 836.5398 448.1787 837.0987 448.9611 836.8751 450.3023 836.5398 451.6436 835.8692 452.873 835.1986 453.879 835.1986 453.4319ZM838.887 447.3963L839.893 446.6139 841.346 445.8315 842.9108 445.7197 843.9167 446.9492 844.1403 447.1727 844.4756 447.9551 844.8109 448.2904 844.1403 448.6257 843.2461 448.6257 842.1284 448.514 840.2283 449.7435 839.7812 450.7494 839.2223 451.9789 838.4399 453.0966 837.0987 453.4319 837.6575 451.7553 838.1046 448.6257 838.887 447.3963ZM628.5337 338.9782L629.7631 339.6488 631.6633 340.2077 633.3398 341.1019 633.8987 342.6667 633.0045 344.0079 631.2162 344.1197 629.7631 343.3373 629.8749 342.2196 628.0866 341.996 627.1924 341.7725 626.6336 341.2136 626.5218 340.4312 626.9689 339.6488 627.7513 339.09 628.5337 338.9782ZM545.1524 329.1424L545.7112 329.1424 546.2701 329.1424 546.3818 329.4777 545.823 330.1483 546.8289 331.6013 546.6054 332.4955 545.5994 333.1661 544.0347 333.8367 544.2582 333.1661 544.4817 332.9426 543.0287 333.3897 541.7992 333.5014 539.2285 333.3897 537.8872 333.0543 536.6578 332.4955 535.54 332.0484 534.4223 332.4955 532.8575 331.1542 533.5282 329.4777 535.2047 328.36 536.6578 328.2482 538.3343 327.5776 539.8991 327.5776 543.364 329.0306 544.0347 329.1424 545.1524 329.1424ZM637.14 316.8475L637.3636 318.1888 638.2578 320.7595 638.4813 321.989 640.7167 325.901 641.052 327.8011 638.9284 327.354 638.9284 327.8011 638.9284 328.6953 638.9284 329.1424 637.9224 328.4717 637.3636 328.2482 637.14 328.4717 636.9165 328.9188 635.4635 330.2601 633.6751 333.8367 629.8749 333.1661 628.5337 333.3897 624.0628 334.9545 622.9451 335.7369 623.1686 333.725 621.9392 333.3897 620.4861 333.3897 619.1449 330.8189 617.6919 329.813 616.2388 329.0306 615.2329 328.2482 613.4446 329.813 611.9915 330.1483 607.0736 329.5894 606.7383 329.4777 606.5147 329.2541 606.0677 329.1424 604.3911 329.2541 603.8322 329.1424 601.038 328.36 599.6967 328.2482 601.3733 324.6715 601.5968 323.7773 601.7086 322.4361 602.2674 321.7655 603.1616 321.6537 604.7264 321.6537 605.397 321.5419 605.9559 321.3184 606.7383 320.536 607.5207 320.3124 608.8619 320.7595 610.6503 320.0889 612.2151 319.8653 613.6681 320.0889 614.3387 320.9831 614.3387 321.8772 614.3387 322.8832 614.7858 323.6656 617.133 324.448 619.592 326.0128 620.9332 326.3481 623.6157 326.6834 624.7334 326.3481 625.7394 325.0068 625.8512 324.3362 625.7394 322.2125 626.1865 321.5419 627.0806 320.8713 627.5277 320.3124 627.7513 319.6418 627.7513 319.0829 627.863 318.6359 628.5337 317.9652 629.0925 317.8535 630.5455 317.7417 631.2162 317.5182 632.2221 316.7358 633.7869 314.6121 634.7928 313.8297 635.1282 315.0592 635.9106 315.7298 636.693 316.1769 637.14 316.8475ZM453.1647 272.8097L454.1706 272.8097 454.5059 272.8097 453.2765 273.9274 450.9293 274.2627 448.4703 273.9274 446.7937 272.8097 448.8056 273.2568 450.3704 273.0332 451.5999 271.9155 452.7176 270.0154 453.2765 270.4625 453.6118 271.2449 453.6118 272.0273 453.1647 272.8097ZM484.9077 270.0154L486.4725 269.9036 486.8078 270.3507 486.9196 271.692 486.1372 273.0332 484.1253 272.9215 482.1134 271.9155 480.7722 270.4625 481.7781 270.1272 482.8958 270.0154 484.9077 270.0154ZM586.5077 264.8739L587.2901 265.321 589.4138 266.9976 589.8608 267.78 590.0844 268.8977 590.0844 270.0154 589.4138 270.5743 586.6195 270.4625 584.9429 270.1272 583.7134 269.5683 583.937 269.0095 583.937 268.8977 583.937 268.6741 583.7134 268.2271 584.6076 267.4447 585.7253 265.5446 586.5077 264.8739ZM443.7759 273.145L444.6701 272.8097 445.1172 272.8097 445.2289 272.9215 442.0993 274.1509 441.764 274.4862 439.8639 274.9333 439.3051 275.1569 438.5227 275.2686 436.9579 275.2686 436.7343 274.9333 438.1873 275.1569 439.1933 275.0451 439.5286 274.9333 439.7521 274.8216 443.7759 273.145ZM444.8936 266.8858L446.0113 266.8858 446.2349 266.9976 444.5583 267.2211 444.3348 267.2211 443.4406 267.4447 442.3229 267.2211 441.6523 267.2211 441.3169 266.9976 439.1933 266.774 439.4168 266.6623 444.8936 266.8858ZM383.1959 259.0618L383.8666 259.1736 384.649 259.3971 383.9783 259.5089 382.7488 259.2854 382.19 259.0618 382.0782 258.7265 382.3018 258.503 382.6371 258.6147 382.9724 258.9501 383.1959 259.0618ZM381.7429 256.3793L381.6311 256.2675 381.8547 256.1558 381.7429 256.3793ZM381.9664 256.1558L381.9664 256.044 382.0782 256.1558 381.9664 256.2675 381.9664 256.1558ZM381.9664 254.591L382.19 254.7028 382.0782 255.0381 381.9664 254.9263 381.9664 254.591ZM381.7429 253.6968L381.7429 253.8086 381.5194 253.6968 381.7429 253.6968ZM381.2958 253.585L381.184 253.3615 381.2958 253.4733 381.2958 253.585ZM650.8879 4.4471L650.6644 4.1118 650.8879 4 651.2232 4.1118 651.335 4.4471 651.2232 4.5589 650.8879 4.4471ZM800.773 489.534L802.1143 490.2046 803.7909 490.0928 805.8028 490.2046 806.4734 491.4341 806.4734 492.5518 806.5851 494.0048 807.3675 494.899 808.3735 495.2343 809.3794 495.905 809.4912 496.9109 809.1559 497.9168 808.3735 498.3639 807.2558 497.9168 805.5792 496.6873 805.0204 495.3461 804.238 494.3402 802.4496 494.3402 800.1024 494.4519 797.867 494.0048 796.5257 492.8871 795.5198 492.2165 794.0668 491.5459 792.8373 491.4341 790.8254 490.6517 791.049 489.9811 792.3902 490.0928 795.0727 490.5399 797.5317 490.4282 799.0965 489.4222 800.773 489.534ZM843.6932 480.257L844.9227 480.0334 845.8168 479.251 846.9345 478.5804 847.8287 477.6862 848.3876 477.3509 848.6111 477.5745 848.2758 478.2451 847.6052 479.4746 847.6052 480.8158 848.164 482.0453 848.9464 482.4924 851.0701 482.3806 852.6349 482.6042 853.082 483.4983 852.8584 484.6161 852.1878 485.8455 851.2936 486.0691 850.0641 485.9573 848.4993 485.3985 847.1581 485.3985 845.8168 485.7338 844.3638 485.7338 842.9108 485.7338 842.0166 486.1809 840.6754 486.1809 839.5576 486.0691 839.4459 485.3985 840.2283 484.5043 841.0107 483.2748 841.9048 481.71 842.6872 480.3688 843.6932 480.257ZM829.9453 472.8801L833.0749 472.5448 834.5279 472.0977 835.3103 470.8682 835.981 470.0858 837.9928 470.0858 841.5695 470.0858 843.0226 469.1916 844.5873 468.6328 844.8109 469.527 844.252 470.3094 844.5873 470.8682 845.5933 471.2035 845.8168 472.433 846.0404 473.2154 846.8228 473.9978 847.7169 475.5626 846.8228 476.2332 845.1462 477.3509 843.5814 477.4627 842.1284 478.6922 841.1224 480.4805 840.1165 481.9336 839.6694 483.3866 838.2164 484.8396 836.9869 485.7338 834.4162 485.9573 832.069 485.622 830.2806 485.9573 828.8276 486.2926 826.4804 485.622 823.1273 485.622 820.4448 485.9573 819.3271 486.7397 818.0976 487.6339 817.3152 488.081 816.5328 488.5281 815.4151 488.6398 814.968 487.9692 815.1915 486.6279 815.3033 485.7338 815.4151 483.9454 815.6386 481.5982 816.421 480.0334 818.3211 477.6862 820.4448 476.2332 822.792 474.892 824.6921 474.2213 826.9275 473.3272 828.4923 473.1036 829.9453 472.8801ZM738.0694 399.1111L738.6283 399.8935 739.0754 401.4583 738.8518 403.1349 738.4047 404.3644 737.6223 404.2526 736.8399 402.4642 736.7282 400.6759 736.9517 399.5582 737.287 398.8876 737.8459 398.8876 738.0694 399.1111ZM733.2633 393.299L733.7103 393.5226 734.0457 394.1932 733.7103 395.3109 732.9279 395.6462 732.1455 394.9756 731.6985 393.7461 731.1396 391.5107 731.1396 390.6165 731.6985 390.393 732.4809 391.3989 733.2633 393.299ZM744.1051 390.2812L744.4404 390.7283 744.7757 391.846 744.4404 392.8519 743.7697 393.5226 742.9873 394.1932 741.8696 394.4167 740.9755 394.5285 740.3048 394.8638 740.3048 393.9696 741.0872 392.0695 742.3167 390.7283 743.5462 390.2812 744.1051 390.2812ZM715.827 368.9329L716.274 369.38 716.8329 370.3859 716.7211 371.7272 716.1623 372.8449 715.827 372.8449 715.827 372.0625 715.4916 371.3919 714.4857 370.3859 714.0386 369.8271 712.8091 368.5976 710.7972 367.0328 708.8971 365.9151 707.6677 364.6856 707.3323 363.4561 707.4441 362.2266 707.5559 361.7795 707.7794 360.8854 708.1147 360.4383 708.3383 360.4383 710.3502 362.6737 712.0267 364.7974 715.827 368.9329ZM615.68 337.7487L616.2388 337.8605 616.5741 338.7547 615.2329 339.6488 613.4446 339.7606 612.2151 339.2018 612.3268 338.1958 613.3328 337.7487 614.227 337.637 615.4564 337.7487 615.68 337.7487Z" />
</svg>