<?xml version="1.0" encoding="utf-8"?>
<svg xmlns="http://www.w3.org/2000/svg" viewBox="0 0 1021 885" style="stroke-width:0.25px;stroke-linejoin:round;stroke:#444;fill:#ddd" fill-rule="evenodd">
  <path class="VG" d="M281.3221 730.0872L264.1094 754.6769 231.6957 777.8135 199.8409 775.5781 171.3393 774.4604 121.8246 771.1073 149.3204 745.847 185.5342 742.7174 202.0763 715.3334 219.7362 689.8496 227.4484 655.7594 268.0213 632.8463 297.1936 641.5645 344.9199 631.9521 366.9388 638.4349 432.6603 626.5871 499.2759 637.2054 520.1771 658.1066 513.4708 669.1719 490.3342 665.8188 456.0205 656.0947 430.6484 670.4014 420.1419 687.0553 404.7175 701.0267 385.9399 707.0624 370.0684 703.9328 358.3325 697.4501 345.4788 692.7557 325.2482 693.7616 326.2541 700.2443 310.3826 717.1218 290.9344 731.4285 281.3221 730.0872ZM795.246 569.5838L778.2568 590.485 739.5839 621.1103 696.8873 646.2589 668.4975 650.0591 718.6827 581.4316 732.4306 547.3414 724.9419 503.4153 733.9954 503.4153 739.6957 506.5449 744.5019 511.4628 751.2081 516.6043 863.4264 514.2571 905.4524 503.4153 888.6867 535.1583 850.7963 556.1713 812.6823 567.3484 795.246 569.5838ZM884.2158 51.0773L795.3578 47.1653 758.8086 34.4234 738.8015 7.5983 916.9648 4.2452 988.163 30.1761 1017 101.3744 999.3402 100.1449 884.2158 51.0773ZM413.9945 831.1284L416.4535 846.2175 417.1241 874.9427 410.9767 880.7548 403.3762 862.9832 381.9162 851.0237 350.732 844.6527 346.1494 836.1581 364.2563 831.4637 378.6748 831.1284 386.9459 827.9988 395.9993 825.6516 413.9945 831.1284ZM90.1934 628.0402L94.776 635.5288 101.3705 650.8415 89.0757 661.1244 30.3958 652.7416 1 651.7356 12.1771 636.0877 63.7036 624.687 90.1934 628.0402ZM488.0988 541.4175L494.5815 544.6589 495.811 567.5719 495.2521 579.1961 490.3342 599.0914 480.3866 608.9273 476.9217 603.1152 478.8218 588.9202 474.4627 565.4483 478.0394 548.7944 488.0988 541.4175Z" />
</svg>