<?xml version="1.0" encoding="utf-8"?>
<svg xmlns="http://www.w3.org/2000/svg" viewBox="0 0 463 1024" style="stroke-width:0.25px;stroke-linejoin:round;stroke:#444;fill:#ddd" fill-rule="evenodd">
  <path class="VU" d="M450.6363 1003.905L453.4306 1006.0286 455.4425 1007.2581 457.2308 1008.5993 458.5721 1011.2818 457.119 1014.8585 456.2249 1016.6469 454.8836 1018.0999 453.4306 1018.7705 450.301 1019.4411 449.295 1020 447.9538 1018.7705 446.2772 1017.9881 442.8123 1017.0939 438.6768 1015.0821 436.7767 1013.629 436.5531 1010.3877 437.5591 1006.6992 439.1239 1004.2403 440.9122 1003.7932 444.3771 1003.1226 448.0656 1003.0108 450.6363 1003.905ZM395.5331 910.6878L399.8922 913.035 402.0158 914.5998 404.8101 915.6057 404.0277 917.3941 399.2216 923.5415 398.3274 929.8007 397.2097 932.9303 395.9802 934.2715 393.2977 934.048 387.5974 932.3714 385.3619 931.2537 379.7734 924.5474 378.3204 923.5415 375.6378 923.3179 374.6319 922.9826 374.1848 922.0884 373.7377 920.4119 372.7318 919.2942 371.8376 918.5118 371.3905 918.0647 371.0552 916.947 366.4726 910.2407 365.9138 908.7877 365.802 906.664 365.9138 902.9756 366.6961 899.5107 368.2609 897.9459 369.2669 897.1635 369.2669 895.2634 368.708 891.9102 369.2669 890.2337 369.8257 889.0042 370.8317 887.9982 372.2847 887.1041 375.079 886.3217 380.2205 886.2099 382.4559 885.0922 384.6913 886.9923 384.8031 889.0042 384.0207 891.3514 383.4618 894.481 385.3619 905.211 386.4796 907.3347 389.3857 908.5641 392.7388 909.4583 395.5331 910.6878ZM382.4559 830.6596L381.3382 834.3481 378.5439 836.1364 375.7496 837.4777 374.1848 839.9366 371.3905 837.813 359.431 831.3303 357.8662 830.8832 356.1897 831.6656 355.0719 831.5538 350.8246 830.3243 349.5952 829.7655 348.2539 828.4242 345.0125 825.9652 342.6653 824.8475 335.1767 822.3886 334.9531 819.9296 337.1886 813.5586 337.1886 811.6585 336.7415 809.982 335.9591 808.5289 334.7296 807.0759 334.5061 806.07 335.4002 795.787 336.2944 792.7692 338.0827 789.9749 342.1065 786.9571 347.4715 785.3923 352.9483 785.6158 357.5309 788.0748 358.8722 790.3102 359.431 793.1045 359.431 798.3578 360.2134 800.9285 362.2253 802.158 367.7021 802.7168 367.5903 802.4933 368.2609 802.158 369.2669 801.9344 369.9375 801.8227 370.4964 802.0462 370.3846 803.2757 371.6141 804.0581 372.2847 804.9523 372.9553 806.07 373.2906 807.0759 371.6141 807.1877 363.1195 809.5349 366.3608 813.5586 366.8079 815.0117 367.7021 815.2352 371.8376 817.3589 373.2906 818.4766 377.3144 820.6002 380.2205 823.171 381.897 826.4123 382.4559 830.6596ZM275.938 653.3905L277.391 653.7259 278.7322 653.5023 279.8499 652.9435 280.6323 652.3846 280.8559 654.8436 276.8321 663.1146 275.7144 666.6913 274.7085 668.3679 272.9201 669.1503 269.4552 669.9327 269.1199 670.1562 268.7846 670.8268 268.114 671.4975 267.108 671.8328 266.4374 671.4975 265.5432 670.8268 264.8726 670.1562 264.7608 669.9327 255.2603 672.1681 254.1426 672.2799 251.7954 670.8268 251.2365 669.8209 251.013 668.3679 250.3424 668.0326 248.8893 669.9327 248.7776 668.7032 248.2187 667.2502 248.1069 666.1325 247.5481 666.356 247.4363 666.356 247.4363 666.5795 247.2128 667.0266 246.095 666.6913 244.9773 666.6913 244.1949 667.1384 243.5243 668.0326 244.3067 663.1146 243.5243 663.1146 242.0713 664.903 239.9476 665.7971 235.1415 667.0266 235.1415 666.1325 237.4887 664.3441 240.3947 663.3382 242.8537 662.1087 243.5243 659.0909 242.4066 659.8733 241.4007 659.8733 240.8418 659.2026 240.3947 656.1848 239.8359 655.7377 238.9417 655.626 237.824 655.2906 235.7003 654.0612 233.912 653.8376 232.2354 654.2847 230.4471 655.2906 229.5529 656.2966 227.6528 659.3144 226.7586 660.2086 225.3056 660.5439 224.4114 659.985 223.9644 658.532 222.0642 657.3025 222.5113 655.5142 225.8645 648.4726 227.4293 646.6843 230.8942 644.2253 232.3472 642.6605 237.7122 634.613 241.1771 631.5952 245.3127 630.9245 245.9833 631.8187 246.5421 633.2717 247.2128 634.1659 249.56 632.7129 258.837 631.1481 261.0724 631.4834 262.9725 632.8246 263.3078 633.7188 263.7549 636.2895 264.3138 636.8484 265.4315 637.0719 266.2139 637.6308 267.5551 639.7545 268.6728 642.3252 269.4552 645.1195 270.6847 647.4667 273.2554 648.4726 274.0378 649.8139 275.1556 652.4964 275.938 653.3905ZM229.4411 637.8543L229.7765 633.3835 233.912 629.3597 238.9417 627.5714 241.6242 630.0304 239.8359 630.5892 236.818 632.3776 235.0297 632.8246 231.9001 634.9483 230.4471 636.1778 229.4411 637.8543ZM245.3127 618.8532L245.8715 614.8295 247.4363 614.1589 249.2246 615.6119 250.9012 618.2944 252.0189 623.3241 249.7835 623.9947 246.8774 621.9828 245.3127 618.8532ZM254.5897 564.9795L253.8073 565.7619 253.2484 566.7679 252.5778 567.5503 248.1069 568.668 246.6539 568.7798 245.3127 568.1091 245.9833 566.4326 247.5481 564.756 248.8893 563.8618 254.1426 561.2911 256.0427 561.1793 259.1723 562.0735 258.0546 562.9677 254.5897 564.9795ZM277.2792 547.4315L275.0438 547.3197 273.7025 546.6491 273.2554 545.4196 274.0378 543.5195 273.9261 540.5017 276.385 538.378 279.8499 538.0427 282.4207 540.6134 278.844 546.6491 277.2792 547.4315ZM227.6528 529.101L225.8645 528.095 221.9525 524.0713 221.1701 522.8418 221.3936 518.9298 221.1701 517.4768 219.0464 515.5767 217.9287 514.3472 217.9287 513.1177 218.4876 511.4411 218.8229 506.1879 219.3817 503.9525 220.2759 502.9465 221.0583 502.2759 221.8407 501.27 222.0642 499.4816 221.9525 498.1404 221.8407 497.2462 221.1701 495.1226 222.5113 495.905 223.2937 495.905 224.0761 495.3461 225.3056 495.1226 226.6469 495.4579 227.3175 496.1285 227.6528 496.7991 228.0999 497.1344 229.1058 498.3639 231.453 503.6172 232.7943 504.8466 233.0178 505.8526 233.3531 508.088 233.912 510.3234 235.1415 511.6647 236.1474 511.5529 238.3828 510.0999 239.7241 509.7646 240.8418 509.9881 241.9595 510.4352 242.8537 511.1058 243.5243 511.6647 244.8656 513.7883 245.7597 516.0238 246.9892 517.7003 249.4482 518.371 249.8953 519.1534 250.4541 520.8299 251.6836 522.5065 254.1426 523.1771 261.2959 522.9536 264.4255 524.0713 266.6609 527.2009 264.8726 527.9833 265.2079 529.8834 265.9903 532.1188 265.7668 533.9072 264.3138 533.3483 262.9725 533.9072 255.8191 529.8834 253.5837 527.5362 251.3483 526.4185 248.7776 525.6361 246.7657 525.3008 241.0653 526.5303 237.0416 528.8774 233.1296 530.4422 227.6528 529.101ZM246.2068 490.4282L244.4185 489.8693 243.3008 488.3045 241.6242 484.5043 245.5362 483.7219 247.2128 483.6101 248.8893 484.5043 250.4541 486.7397 250.5659 488.9751 249.0011 490.3164 246.2068 490.4282ZM230.4471 481.71L231.7883 476.345 233.3531 475.2273 236.9298 474.892 235.7003 477.0156 235.5886 481.9336 234.5826 484.0572 232.2354 485.5102 230 485.3985 229.1058 484.169 230.4471 481.71ZM226.3116 463.2678L224.4114 463.8266 222.5113 464.7208 220.6112 465.2796 218.8229 464.609 217.2581 463.2678 215.4697 462.1501 213.6814 461.703 212.0048 462.2618 208.4282 459.6911 206.5281 459.3558 204.6279 460.3617 203.2867 458.6851 198.8158 455.8909 196.6922 454.1025 194.6803 452.9848 192.3331 451.9789 190.8801 450.7494 191.6625 448.7375 189.8741 447.1727 191.5507 445.2726 194.9039 443.7078 198.8158 442.8136 200.8277 441.3606 202.169 441.0253 208.2046 441.0253 210.9989 439.5723 216.1404 434.4308 217.9287 433.3131 218.5993 432.5307 220.723 426.9421 221.9525 426.3833 224.8585 425.6009 227.541 428.5069 229.6647 433.2013 232.3472 442.0312 232.7943 446.3903 235.365 448.9611 245.0891 454.1025 246.095 455.332 246.2068 457.4557 245.2009 459.1322 240.6183 462.8207 226.3116 463.2678ZM176.2381 473.4389L177.6911 473.3272 178.697 475.1155 179.5912 477.3509 180.4854 478.804 177.3558 482.1571 176.2381 482.6042 174.4497 482.9395 173.6673 483.9454 172.9967 485.2867 171.5437 486.8515 170.7613 488.1927 170.873 489.4222 170.7613 490.5399 169.1965 491.3223 167.0728 491.3223 166.0669 490.2046 165.508 488.5281 164.6139 487.2986 163.3844 486.9633 159.8077 486.2926 159.0253 486.0691 158.2429 484.7278 156.3428 484.7278 154.2191 485.0631 152.9897 485.0631 150.4189 483.9454 147.5129 485.0631 144.7186 486.9633 143.1538 488.4163 144.048 489.3105 144.495 489.8693 144.9421 490.0928 146.1716 490.4282 144.8304 492.1047 143.2656 492.7754 139.6889 493.2224 136.7828 496.1285 136.0004 496.0167 135.1063 495.3461 134.3239 495.2343 134.1003 497.1344 133.2062 497.1344 132.0884 495.6814 128.4 494.3402 126.7234 491.0988 124.9351 489.6458 123.2585 487.6339 122.9232 484.5043 123.9292 484.5043 124.3762 485.3985 125.2704 486.2926 126.2763 486.8515 127.6176 487.2986 127.1705 485.0631 126.3881 482.2689 125.2704 479.5864 121.9173 475.0037 121.3584 473.4389 121.1349 471.4271 121.2466 468.8563 121.1349 468.0739 120.4642 467.1798 119.5701 466.6209 118.7877 466.3974 118.3406 466.1738 117.8935 463.156 118.1171 454.5496 118.7877 452.7613 117.3347 445.9432 117.2229 445.0491 117.3347 442.5901 116.9993 441.4724 116.4405 441.1371 115.7699 441.0253 115.4345 440.5782 114.7639 438.1193 109.9578 430.5188 107.7223 431.8601 107.0517 432.4189 106.2693 431.413 104.0339 433.9837 97.8865 438.231 94.6451 435.2132 92.8568 434.5426 91.4037 435.325 90.5096 433.8719 90.1743 432.5307 89.9507 431.0777 89.5036 429.5129 88.4977 428.0598 87.2682 427.1657 86.2623 425.9362 85.8152 424.1479 86.374 420.7947 90.3978 412.9707 89.8389 403.6937 89.9507 401.9054 90.7331 400.7877 90.9567 399.67 91.4037 398.8876 92.745 398.5523 96.8805 395.6462 111.7461 401.4583 111.6343 406.488 119.6818 416.8827 117.3347 421.8007 119.123 422.4713 120.4642 423.3655 121.0231 424.8185 120.1289 426.6068 121.3584 427.6128 122.4761 428.8422 123.7056 430.0717 126.3881 430.9659 128.5118 432.866 129.853 433.3131 130.4119 432.7542 130.1883 431.5248 129.4059 428.954 129.9648 428.7305 131.3061 430.2953 133.2062 433.3131 133.0944 434.5426 131.9767 436.1074 132.2002 437.2251 135.218 438.6781 136.0004 439.1252 136.7828 439.1252 137.2299 438.3428 137.677 438.0075 138.1241 437.6722 138.6829 437.2251 139.0183 438.7899 139.5771 440.4664 140.3595 441.9195 141.4772 443.0372 142.9303 444.0431 146.1716 445.0491 147.8482 445.9432 150.9778 448.8493 152.6543 451.3083 154.6662 452.3142 158.2429 450.7494 159.4724 451.42 160.0312 451.6436 160.0312 452.7613 159.1371 454.7732 161.4843 457.4557 167.4081 462.2618 170.873 461.703 172.6614 464.8326 173.8909 471.7624 171.3201 476.4568 170.9848 479.0275 173.1085 480.5923 173.2202 477.9098 173.7791 476.1215 174.785 474.7802 176.2381 473.4389ZM94.0862 379.3276L91.4037 379.2158 89.6154 378.3217 85.8152 375.5274 83.8033 374.6332 80.0031 373.6273 78.3265 372.6213 76.0911 368.7094 76.5382 365.0209 79.1089 362.2266 83.468 361.1089 93.0803 362.2266 97.8865 363.9032 98.3336 366.3622 96.7688 370.7212 97.6629 374.745 97.8865 377.8746 94.0862 379.3276ZM87.6035 349.4847L90.1743 348.4788 92.0744 348.4788 92.4097 348.9259 90.3978 349.4847 90.3978 350.4906 91.8508 350.826 92.4097 351.6084 92.1861 352.5025 91.4037 353.3967 94.5333 355.0733 94.6451 357.5322 92.6332 359.097 89.5036 358.2029 89.0565 358.7617 88.6095 358.9853 87.6035 359.2088 85.5916 358.8735 84.2504 358.3146 81.1208 356.3028 87.6035 349.4847ZM226.7586 346.4669L227.6528 347.8081 228.547 348.1435 229.2176 348.8141 229.4411 350.9377 228.4352 359.5441 228.6587 361.8913 230.4471 366.3622 230.4471 370.7212 230.8942 372.6213 234.0238 381.6748 235.1415 388.9399 235.7003 390.9518 237.3769 394.1932 237.824 396.6521 238.1593 402.2407 237.824 407.1586 236.1474 410.8471 232.3472 412.9707 229.2176 413.1943 227.6528 412.3001 226.9822 410.2882 226.5351 404.5879 224.0761 396.0933 222.6231 385.2515 219.3817 377.4275 218.1523 372.3978 217.8169 366.921 218.4876 360.9971 221.7289 350.0436 222.5113 338.8664 225.5292 338.6429 226.3116 345.1256 226.7586 346.4669ZM193.4508 328.807L193.0037 331.3778 191.886 333.2779 182.9443 340.7666 179.8147 341.8843 165.6198 341.7725 162.8255 340.8783 158.1311 338.5311 157.3487 336.9663 158.69 334.5074 175.1204 318.7476 178.1382 317.7417 180.3736 317.4064 186.9681 314.8356 198.4805 312.8238 201.9454 313.3826 202.0572 314.7239 198.9276 317.7417 197.1393 319.8653 195.3509 322.7714 194.0097 325.901 193.4508 328.807ZM83.0209 268.7859L80.0031 265.4328 79.3325 263.868 81.7914 264.6504 85.2563 267.3329 87.6035 267.78 86.374 269.0095 85.1446 269.6801 84.0268 269.5683 83.0209 268.7859ZM214.6873 271.1331L214.9109 270.0154 215.2462 269.3448 215.2462 268.5624 214.2403 267.3329 213.905 265.9916 214.352 264.3151 215.358 262.7503 216.5875 262.0796 218.264 263.0856 219.7171 265.5446 220.723 268.3388 221.1701 270.1272 221.3936 273.3685 222.9584 281.1925 223.0702 282.6455 222.8466 285.5516 222.9584 287.0046 224.635 291.5872 224.8585 293.2638 224.8585 298.07 225.3056 299.2994 227.2057 301.5349 227.6528 302.7644 227.2057 312.3767 227.8763 314.3886 227.6528 317.0711 226.7586 320.9831 226.6469 325.1186 225.8645 329.2541 224.0761 328.5835 222.6231 328.5835 219.3817 329.2541 220.1641 326.0128 219.9406 322.5479 218.3758 315.8416 219.27 311.0354 219.27 295.9463 217.9287 292.8167 214.6873 271.1331ZM85.3681 349.0376L80.2266 355.2968 78.9971 356.0792 77.8794 356.7498 76.6499 357.0851 75.0851 357.1969 73.5204 356.8616 71.1732 355.7439 69.9437 355.2968 64.8022 354.6262 58.9901 354.738 53.8486 356.0792 50.4955 359.2088 51.8367 360.5501 50.719 360.6618 47.813 360.103 46.2482 361.2207 45.5776 362.4502 45.0187 363.6796 44.1245 364.9091 41.3303 366.2504 38.3124 365.9151 35.4064 364.3503 32.9474 361.8913 34.7358 359.3206 34.7358 355.7439 33.2827 352.7261 28.5883 350.6024 26.6882 348.5905 23.6704 343.7844 22.2174 339.5371 21.3232 338.4194 17.7465 334.8427 17.1877 333.6132 16.7406 331.8249 14.8405 329.2541 14.3934 327.9129 14.6169 326.5716 15.9582 323.7773 16.6288 319.6418 18.4172 313.9415 18.976 311.0354 18.8642 304.4409 18.0818 301.1996 14.8405 296.5052 14.0581 293.7109 13.4992 287.8988 12.158 282.5338 12.2697 280.6337 13.4992 278.3982 11.152 277.6158 9.699 275.4922 9.0284 272.8097 8.8048 270.1272 8.246 267.78 5.3399 263.4209 4.2222 261.0737 1.6515 250.3437 1.875 248.1083 2.881 245.7611 3.3281 242.4079 3.2163 239.0548 2.3221 237.0429 6.0106 229.4425 5.787 225.9776 6.2341 224.301 10.4814 222.9597 11.3756 221.842 11.9344 221.3949 13.4992 222.7362 14.0581 223.8539 15.3993 227.5424 15.7347 228.3248 16.9641 228.9954 17.6348 230.4484 17.9701 232.2367 18.0818 233.6898 18.6407 234.0251 21.7703 238.0488 22.9998 241.5138 23.8939 243.0785 26.5765 244.4198 32.0532 248.6671 30.712 250.0084 31.3826 253.2497 33.8416 260.0678 35.1828 266.5505 35.7417 273.5921 35.6299 275.2686 36.3006 276.1628 37.1947 276.8334 37.6418 277.8394 39.4301 295.1639 40.9949 296.3934 44.4598 296.3934 50.4955 295.7228 53.9604 295.8345 55.4134 295.7228 56.3076 294.6051 57.9842 291.8108 59.1019 290.6931 60.3314 289.6871 61.3373 288.4576 61.6726 286.5575 62.455 271.0213 62.2315 269.233 61.4491 267.1094 63.0139 265.0975 65.4728 263.6444 67.3729 262.9738 77.5441 263.868 77.5441 264.9857 75.0851 265.321 73.8557 266.5505 73.6321 268.3388 73.9674 274.1509 73.4086 275.604 71.8438 277.3923 74.0792 277.6158 75.0851 279.2924 75.5322 284.0986 77.8794 291.0284 78.3265 293.7109 81.6796 291.2519 83.3562 290.9166 85.8152 291.8108 85.1446 294.3815 87.6035 305.6704 86.9329 307.9058 85.8152 308.3529 85.3681 308.9118 86.7094 311.0354 87.38 311.3707 89.5036 312.1531 90.3978 312.8238 90.9567 313.6062 92.2979 316.7358 91.9626 319.4183 91.292 321.6537 90.5096 322.4361 89.5036 320.536 88.6095 320.536 89.5036 325.2304 91.9626 332.3837 95.0922 338.8664 98.3336 341.7725 99.4513 342.3314 99.7866 343.7844 99.4513 345.3492 98.8924 346.4669 97.8865 347.3611 97.1041 347.2493 96.0981 346.8022 94.6451 346.4669 89.5036 346.4669 87.6035 347.2493 85.3681 349.0376ZM136.0004 153.6616L137.3417 154.1087 145.6128 158.1325 146.8422 159.1384 147.8482 160.4796 147.0658 167.8565 146.6187 169.086 145.8363 169.8684 142.3714 175.7923 140.4713 177.8042 139.0183 178.5866 137.4535 178.6983 128.4 178.0277 126.6117 178.6983 124.5998 178.5866 122.9232 177.8042 121.582 177.0218 120.576 176.6865 120.0172 175.9041 120.576 174.2275 121.9173 171.4332 121.1349 163.8328 121.4702 161.262 122.3644 160.0326 123.7056 159.2502 126.947 156.5677 127.8411 156.4559 129.0706 156.6794 131.3061 156.5677 132.5355 156.0088 134.6592 154.1087 136.0004 153.6616ZM127.6176 122.8128L127.5058 119.9067 126.947 118.1184 125.6057 116.5536 122.9232 114.5417 119.7936 109.7355 119.0112 106.8295 119.2348 103.141 120.2407 100.1232 122.1408 97.776 124.5998 95.9877 130.4119 93.4169 132.4238 93.4169 134.4356 94.6464 136.7828 97.3289 140.6948 104.7058 142.3714 105.9353 140.6948 108.1707 139.6889 108.8414 140.5831 110.7415 141.7008 111.5239 142.9303 111.8592 144.1597 112.6416 144.9421 112.9769 145.6128 112.8651 145.9481 112.9769 146.1716 114.0946 145.7245 114.6535 144.9421 114.6535 143.9362 114.4299 143.1538 114.5417 140.9184 116.2183 138.5712 117.4477 135.6651 118.1184 132.2002 118.4537 132.6473 118.789 133.0944 119.0125 133.0944 119.4596 132.2002 120.3538 133.765 123.5952 131.8649 126.0541 129.0706 126.2777 127.6176 122.8128ZM161.3725 81.1221L162.602 82.0163 163.2726 83.9164 163.2726 86.2636 162.8255 87.8284 161.596 88.499 159.3606 89.2814 156.6781 89.8403 154.3309 89.7285 153.4367 91.2933 152.2073 91.4051 151.9837 90.0638 156.9017 83.4693 158.8018 81.7927 161.3725 81.1221ZM110.8519 65.9212L111.8579 67.7096 113.1991 68.3802 114.8757 68.0449 116.4405 66.8154 116.2169 70.5039 114.5404 71.8451 112.0814 71.9569 109.0636 71.6216 107.6106 69.6097 106.4928 67.2625 106.4928 65.0271 108.0576 63.127 111.6343 62.121 113.8697 63.4623 113.8697 65.2506 110.8519 65.9212ZM8.8048 27.8073L10.9285 25.9072 13.7228 24.9012 16.4053 25.013 18.0818 26.9131 17.9701 29.3721 16.2935 31.2722 13.9463 32.1663 11.5991 31.6075 10.5932 30.8251 9.8108 30.0427 9.2519 29.0367 8.8048 27.8073ZM8.8048 16.4066L8.0224 16.7419 7.9107 17.3008 7.9107 18.1949 7.9107 19.2009 7.5754 19.7597 7.24 20.3186 6.793 20.7657 6.0106 21.101 3.8869 19.9833 2.6574 18.5303 2.2103 16.5184 2.3221 13.5006 3.1045 9.7003 3.2163 8.2473 2.9927 7.1296 2.2103 6.459 1.5397 5.5648 1.4279 4 6.0106 5.2295 6.9047 5.9001 7.6871 7.3531 8.246 10.4827 8.8048 11.6004 8.8048 12.4946 8.1342 13.277 7.9107 14.1712 8.0224 15.0653 8.8048 16.4066ZM21.9938 58.209L20.0937 52.7322 22.2174 51.6145 24.2293 53.8499 21.9938 58.209Z" />
</svg>