<?xml version="1.0" encoding="utf-8"?>
<svg xmlns="http://www.w3.org/2000/svg" viewBox="0 0 1021 572" style="stroke-width:0.25px;stroke-linejoin:round;stroke:#444;fill:#ddd" fill-rule="evenodd">
  <path class="WF" d="M22.3483 529.3259L39.2257 547.321 40.6788 550.5624 46.938 552.4625 69.5157 564.5338 69.5157 567.9987 43.2495 566.2103 38.8904 567.9987 32.6312 565.0926 20.1129 563.1925 15.3067 560.6218 6.1415 546.4268 1 531.673 4.6884 523.7373 22.3483 529.3259ZM1002.358 4.0013L1008.5054 15.0667 1014.6528 23.673 1017 31.9441 1012.0821 42.4506 1013.8704 44.3507 1014.6528 45.692 1015.7705 49.2686 1007.723 50.6099 1006.1582 55.5278 1009.0642 68.3815 1006.3817 74.4172 1000.3461 75.6466 993.5281 73.7465 988.8337 70.0581 988.2748 62.2341 982.9098 53.6277 980.5626 45.4684 988.8337 38.9857 985.1452 28.3674 988.2748 18.7551 994.9811 10.3723 1002.358 4.0013Z" />
</svg>