<?xml version="1.0" encoding="utf-8"?>
<svg xmlns="http://www.w3.org/2000/svg" viewBox="0 0 1021 467" style="stroke-width:0.25px;stroke-linejoin:round;stroke:#444;fill:#ddd" fill-rule="evenodd">
  <path class="WS" d="M440.3725 104.8514L442.9432 113.1224 444.3963 121.3935 444.9551 139.3887 448.42 154.2542 455.1263 163.3077 459.4854 173.0318 455.7969 190.2446 448.1965 202.4276 439.4783 211.8164 432.4367 223.1053 429.5307 241.1004 431.7661 258.8721 431.319 266.9196 426.7364 270.3845 408.7413 270.1609 400.9173 268.4844 392.8697 264.6842 381.022 254.4012 374.8746 246.8008 367.3859 242.6652 351.6262 243.7829 313.7358 257.6426 196.9349 270.3845 189.558 265.1312 181.8458 254.7365 175.8101 248.7009 163.5153 241.8828 157.7032 237.3002 155.1325 230.3704 153.5677 223.2171 146.5261 207.6809 144.8495 198.2921 141.0493 188.9033 132.1076 182.9794 121.8246 178.8439 113.8889 174.373 97.6821 148.8892 87.958 137.0415 68.398 129.441 60.6858 123.6289 49.1734 112.7871 46.8262 108.9869 45.932 100.8276 44.0319 96.6921 39.6728 94.2331 29.7252 95.1273 25.8132 93.786 17.095 83.5031 5.5826 65.6197 1 48.7422 13.0713 41.1418 38.8904 41.1418 67.0568 51.7601 92.6524 52.5425 109.418 50.0835 127.3014 40.2476 135.9078 38.0122 152.5617 36.4474 162.174 33.9884 182.5164 23.5937 191.3463 20.4641 250.8086 20.4641 266.233 18.1169 298.0878 7.2751 315.5241 4.0338 331.9545 4.1455 348.6084 7.2751 364.927 14.652 380.2396 27.9528 423.9421 78.2498 424.6128 81.603 423.2715 90.4329 423.9421 93.786 427.8541 97.2509 437.1311 101.0512 440.3725 104.8514ZM921.4356 382.491L955.3023 378.8025 993.081 398.0272 1017 426.6406 1009.0642 451.1185 1011.2997 454.1363 1014.7646 462.2956 995.5399 462.9662 942.1133 457.3777 910.1468 460.3955 895.2812 459.0542 879.745 451.1185 867.3384 457.8248 854.82 457.0424 830.901 451.1185 818.7179 452.2362 786.4161 462.2956 778.5921 461.9603 771.9976 459.8366 767.415 455.4776 765.7384 448.9948 762.6088 442.2886 755.1201 439.159 739.9193 435.6941 726.5067 428.4289 714.659 424.2934 702.4759 423.2875 672.633 427.3112 659.3322 426.8641 647.5963 422.7286 636.7545 414.3458 620.9947 389.1972 613.059 380.032 605.7938 382.491 600.6524 382.491 587.4634 363.4899 578.6334 357.9013 561.5325 355.8894 546.108 348.8479 544.0961 332.3057 550.2436 314.4223 558.9617 302.2393 618.5358 280.6674 682.6924 270.3845 717.2297 271.9493 749.0845 278.9909 856.4966 321.6875 889.2455 325.4877 905.6759 331.5233 918.8649 341.471 926.5771 355.8894 925.3476 363.8252 920.3179 368.4078 917.0766 373.7728 921.4356 382.491Z" />
</svg>