<?xml version="1.0" encoding="utf-8"?>
<svg xmlns="http://www.w3.org/2000/svg" viewBox="0 0 927 1024" style="stroke-width:0.25px;stroke-linejoin:round;stroke:#444;fill:#ddd" fill-rule="evenodd">
  <path class="XK" d="M22.1804 519.7122L28.5514 510.3234 29.222 501.0464 27.769 490.987 27.8807 479.3628 29.7809 473.5507 35.7047 462.0383 42.7463 443.596 41.7404 441.0253 37.6048 433.5366 7.5384 404.5879 6.9795 404.1408 1.0557 393.0755 1.9498 378.8805 6.3089 372.9567 17.2625 364.015 22.2922 359.9912 28.2161 357.1969 47.1054 362.1149 66.7771 374.0744 84.6605 379.4394 97.8495 364.462 98.7437 357.5322 97.8495 350.9377 98.2966 344.0079 102.7674 336.0722 107.2383 333.1661 127.4689 325.6774 170.1655 318.3006 213.7562 308.8 239.24 298.1817 251.0878 282.0867 248.7406 275.1569 245.8345 266.6623 234.0986 259.2854 225.8275 250.2319 230.2983 230.1131 239.24 218.3771 248.1817 215.5828 257.5705 215.5828 267.7417 212.0062 271.989 207.9824 274.7833 203.288 279.813 192.2227 284.6191 187.193 290.0959 187.3047 296.1316 189.0931 302.5025 188.9813 313.5679 178.1395 327.5393 156.3441 338.7164 132.4251 340.9518 114.877 337.0398 110.4062 331.6748 110.0708 325.9745 110.8532 321.2801 109.4002 318.1505 104.7058 315.2444 97.776 310.7736 82.2398 304.5144 68.492 303.1732 60.4444 306.5263 51.0557 310.8854 47.9261 328.0981 47.2554 339.7223 42.5611 381.0777 11.3769 393.8196 5.5648 407.0086 4 415.0561 6.459 420.1976 8.0238 430.1452 16.4066 435.5102 21.9952 438.9751 26.8013 444.0048 37.0843 442.44 36.9725 437.075 35.2959 431.0394 40.8845 431.3747 44.5729 430.4805 55.0794 428.9157 64.4682 426.7921 65.1388 430.257 70.9509 469.2651 93.864 511.9617 118.9008 518.1091 122.4774 529.0627 126.7248 564.2706 128.6249 572.6535 135.2194 580.8128 151.985 588.8603 189.8755 593.4429 199.376 602.6081 204.8528 609.985 200.829 617.2502 195.5758 626.0801 197.0288 634.2394 213.1239 635.0218 235.4781 638.0396 258.2794 652.7934 275.8275 658.6055 277.5041 671.0121 277.3923 676.936 278.7336 682.6363 282.1985 692.8075 291.0284 698.2843 294.2697 715.1617 298.2935 725.78 298.8524 730.8097 304.3292 730.8097 308.0176 730.8097 323.1067 728.5743 335.178 721.4209 359.3206 719.6326 370.3859 717.956 374.0744 715.3853 376.198 715.1617 378.2099 720.415 381.8983 729.2449 384.5809 735.7276 384.3573 748.4695 384.022 801.5608 391.3989 813.5204 395.4227 821.5679 402.576 838.5571 423.9243 847.387 429.8482 855.0992 429.7364 877.9006 419.3417 889.3012 419.1182 904.9492 422.6948 907.967 424.7067 918.5853 431.7483 922.9443 447.508 919.9265 453.879 914.4497 457.4557 908.0788 460.3617 902.9373 464.2737 903.3844 466.3974 900.4783 480.9276 899.8077 482.8277 898.8018 484.169 895.2251 485.9573 894.2191 488.081 895.0015 491.2106 898.69 497.358 899.2488 500.1523 893.8838 516.5826 867.6176 560.2851 846.6046 581.5217 841.9102 589.4574 840.7925 600.411 843.3633 623.1006 841.0161 634.2777 830.0625 644.5606 798.7666 654.1729 787.5894 666.1325 786.9188 683.3452 807.4847 714.6411 812.8497 734.3129 811.732 733.754 789.6013 739.5661 778.7595 739.7897 769.3707 733.3069 764.341 739.4543 761.9938 742.2486 756.5171 740.9074 751.5991 735.8777 745.5635 733.8658 736.8453 738.7837 737.7395 744.9311 741.5397 751.1903 742.0986 755.9965 736.3982 756.5553 718.0678 749.5138 708.9025 750.2961 705.5494 752.9787 701.9727 755.8847 671.0121 803.611 670.3415 809.8702 671.4592 813.6704 673.024 817.5824 673.8064 823.618 674.2535 838.0365 674.0299 839.6013 673.2475 844.5193 667.7707 845.7487 644.9694 841.1661 640.8339 840.3837 636.363 835.6893 634.2394 833.6774 629.4332 823.3945 620.8268 809.1996 602.1611 790.7573 582.0422 775.2211 575.0007 771.3091 571.424 770.3032 567.2884 770.1914 554.6583 778.3507 536.9985 795.787 530.851 801.9344 517.4385 808.6407 502.2376 813.7822 464.9061 826.6359 415.5032 843.5133 401.9789 851.2255 391.6959 863.7439 386.3309 879.0565 379.8482 914.1527 379.1776 930.2477 384.319 951.8196 385.8838 958.5259 384.0955 973.1679 383.7602 975.6268 378.2834 988.8158 369.4535 1004.0167 364.7591 1009.27 358.7234 1016.088 347.4345 1020 342.2931 1016.3116 332.3454 1002.1166 327.3157 999.0988 323.9626 1001.3342 318.2623 1012.176 314.3503 1015.4174 305.7439 1015.8645 299.2612 1012.5113 287.0781 999.4341 287.4134 994.1809 284.7309 985.4627 284.6191 980.3212 287.1899 971.7149 290.3195 967.9146 294.2315 965.0086 298.4788 959.42 304.0673 946.4546 304.0673 937.4011 301.3848 928.1241 299.0376 914.0409 282.3837 870.3384 279.1424 857.0376 279.1424 834.3481 277.6893 821.7179 272.1008 802.8286 252.0937 759.3496 242.0343 745.49 237.787 740.9074 228.9571 731.295 163.7945 683.3452 155.6352 681.8922 119.6449 682.7864 113.3857 681.8922 109.0266 676.9743 104.444 665.3501 103.7734 660.2086 104.6675 650.5963 103.4381 645.1195 100.3085 640.7604 92.1492 633.607 89.6902 629.1362 90.3608 624.6653 95.7259 616.2825 95.9494 610.3586 93.2669 604.8818 86.2253 597.952 83.3193 593.9283 68.4537 557.938 68.4537 557.8262 68.4537 557.7144 68.3419 557.7144 59.512 546.3138 33.134 531.7835 22.1804 519.7122Z" />
</svg>