<?xml version="1.0" encoding="utf-8"?>
<svg xmlns="http://www.w3.org/2000/svg" viewBox="0 0 719 1024" style="stroke-width:0.25px;stroke-linejoin:round;stroke:#444;fill:#ddd" fill-rule="evenodd">
  <path class="ZA" d="M117.692 98.8937L117.9155 99.4526 118.1391 99.7879 118.6979 100.235 119.3685 101.2409 121.0451 102.5822 121.9393 103.5881 122.2746 103.8117 122.6099 103.9234 123.2805 103.9234 123.6158 104.0352 126.1866 105.6 130.4339 109.1767 130.7692 109.6238 131.8869 111.8592 132.7811 113.3122 133.1164 114.0946 133.1164 114.6535 132.7811 115.3241 133.1164 115.7712 133.6752 116.1065 134.3459 116.4418 134.4576 117.336 134.4576 117.5595 134.6812 117.7831 135.24 118.1184 135.4636 118.3419 135.5754 118.6772 135.4636 118.9008 135.24 119.1243 135.3518 119.3479 135.4636 119.6832 135.7989 120.1303 135.9107 120.4656 136.1342 121.5833 136.3578 121.9186 136.9166 122.3657 137.9226 122.8128 138.0343 123.1481 138.1461 123.8187 138.705 123.8187 138.5932 124.0422 138.4814 124.4893 138.4814 124.9364 138.8167 125.0482 139.152 124.9364 139.3756 124.7129 139.7109 124.7129 140.158 125.16 139.152 125.7188 138.9285 126.2777 138.9285 127.3954 140.3815 128.6249 140.6051 129.6308 140.3815 129.9661 139.7109 130.4132 139.4873 130.7485 139.5991 131.0838 139.9344 131.1956 140.3815 131.3074 140.6051 131.5309 140.6051 131.978 140.3815 132.7604 140.3815 133.0957 140.6051 133.5428 141.4992 133.8781 141.8345 134.2134 142.1699 134.884 142.8405 137.343 142.5052 138.0136 142.5052 138.349 142.9523 138.2372 143.2876 138.0136 143.3993 138.0136 143.8464 138.4607 143.8464 138.5725 144.7406 140.8079 144.9641 144.0493 144.9641 146.62 145.0759 147.2906 146.3054 149.5261 146.1936 150.0849 144.7406 152.2086 144.07 153.5498 143.3993 154.8911 141.3875 157.3501 140.4933 159.2502 140.0462 159.809 139.0403 160.4796 138.8167 160.9267 138.4814 162.9386 138.3696 164.0563 138.4814 164.9505 138.5932 165.3976 139.152 166.18 139.3756 166.7388 139.2638 167.633 138.5932 170.092 138.5932 171.2097 138.705 172.5509 139.0403 173.8922 139.5991 175.0099 139.7109 175.2334 139.9344 175.457 140.4933 175.7923 140.7168 176.2394 141.1639 177.3571 141.2757 177.8042 141.3875 177.6924 142.0581 177.1336 144.1817 176.1276 145.7465 175.0099 146.6407 174.5628 148.429 174.3393 149.8821 174.8981 151.2233 175.7923 155.5824 176.7982 156.5883 176.6865 159.4944 175.9041 159.9415 175.9041 160.9474 176.0158 161.3945 176.0158 164.1888 175.2334 165.6418 175.2334 166.4242 175.3452 168.1008 176.0158 170.895 176.1276 172.9069 176.6865 173.5776 176.6865 174.36 176.3512 176.2601 175.1217 176.8189 174.5628 177.1542 173.8922 177.3778 173.2216 177.266 172.4392 177.0425 170.7626 177.0425 170.2037 177.3778 169.8684 178.2719 169.5331 179.3897 169.3096 182.631 169.3096 184.6429 168.7507 186.6548 167.5212 188.3314 165.8447 189.5608 163.9446 190.6785 160.9267 191.2374 159.6972 192.5787 158.2442 192.914 157.5736 193.2493 157.3501 194.8141 157.0147 195.2612 156.903 196.0436 156.4559 197.8319 154.7793 198.9496 153.1028 199.6202 152.4321 200.738 152.3204 202.191 152.6557 202.7498 152.3204 203.4205 151.4262 203.9793 150.0849 204.3146 149.6378 204.9853 149.1908 205.3206 148.8554 205.4323 148.7437 206.7736 146.62 206.7736 146.1729 206.6618 145.8376 206.6618 145.5023 206.9971 145.167 208.0031 144.8317 208.2266 144.6081 208.5619 144.1611 208.7855 143.4904 208.7855 142.5963 208.7855 141.8139 208.6737 141.3668 208.2266 140.6961 208.5619 140.0255 209.2326 139.4667 209.7914 138.9078 210.1267 138.349 210.015 138.1254 209.9032 137.5666 209.5679 137.2312 209.4561 137.1195 209.3443 137.0077 209.2326 136.4488 209.4561 135.6664 209.9032 134.884 211.3562 133.2075 211.5798 132.8722 211.6915 132.4251 211.6915 131.8662 211.6915 131.5309 211.5798 131.1956 211.5798 130.8603 212.0268 130.525 212.3622 130.1897 212.2504 129.8543 211.9151 129.4073 211.6915 129.0719 211.6915 128.7366 211.8033 128.4013 212.0268 127.8425 212.6975 125.607 212.921 125.2717 213.8152 124.9364 214.1505 124.4893 214.7094 123.0363 214.9329 122.5892 215.2682 122.2539 215.6035 122.0304 216.0506 121.8068 216.3859 121.5833 216.6095 121.3597 216.6095 121.0244 216.833 120.6891 218.0625 119.3479 218.8449 118.9008 219.7391 119.0125 219.9626 119.3479 220.0744 119.6832 220.2979 119.9067 220.6332 119.6832 220.9685 119.4596 223.4275 118.2301 225.1041 117.7831 226.6689 117.6713 228.4572 118.0066 230.022 118.5655 230.5809 118.6772 231.1397 118.6772 232.2574 118.2301 232.5927 118.1184 233.1516 118.3419 233.3751 118.5655 233.934 119.3479 234.3811 119.7949 234.7164 120.1303 235.6106 120.5773 236.5047 121.0244 239.9696 123.8187 240.1932 124.154 240.6403 124.6011 242.5404 125.16 242.8757 125.4953 243.211 126.2777 243.4345 126.613 243.6581 126.7248 244.3287 126.9483 244.664 127.1718 245.8935 128.8484 247.4583 129.9661 247.9054 130.6367 248.576 131.0838 250.2526 130.6367 250.6997 130.7485 251.035 130.8603 251.3703 131.1956 251.3703 131.5309 251.1468 131.8662 251.2585 131.978 251.9292 131.8662 255.3941 130.9721 257.1824 130.9721 258.6354 131.7545 260.8708 134.5487 262.3239 135.5547 264.0004 135.89 264.8946 135.5547 265.5652 135.3311 266.2359 135.2194 267.6889 135.7782 270.1479 136.6724 271.9362 137.9019 273.1657 138.2372 275.5129 137.9019 276.6306 138.1254 277.5248 138.4607 278.5307 138.349 280.5426 137.7901 281.2132 137.4548 283.1133 136.0018 284.6781 135.2194 285.9076 134.9958 287.2488 135.2194 288.7019 135.7782 290.1549 136.0018 297.0847 135.2194 299.4319 134.1017 303.6792 130.7485 304.4616 128.5131 305.9146 124.9364 306.2499 124.0422 307.2559 119.3479 310.1619 112.7534 310.9443 110.2944 311.9503 108.5061 311.9503 107.1648 312.9562 104.9294 313.2915 103.8117 313.2915 102.3586 312.9562 99.6761 313.068 98.782 313.1798 98.5584 313.5151 98.5584 314.521 98.1113 316.3094 98.2231 316.7564 97.9996 317.8741 97.1054 322.9039 95.5406 326.7041 94.4229 328.1571 94.1993 328.8277 94.1993 329.4983 94.3111 330.0572 94.4229 330.8396 94.5347 332.9633 92.2992 333.1868 91.8521 334.1927 89.2814 334.9751 88.1637 335.8693 87.4931 338.1047 86.04 340.1166 83.9164 340.3402 83.3575 341.1226 83.0222 344.0286 82.0163 344.6992 81.681 345.2581 81.1221 345.5934 80.5633 346.264 77.3219 346.264 75.7571 348.6112 66.033 348.723 65.1388 348.4994 64.3564 349.5054 62.5681 349.3936 62.3446 349.2818 62.0092 349.5054 61.3386 350.176 60.1091 350.7349 58.6561 351.0702 58.4326 351.4055 58.5443 351.5173 58.9914 351.8526 59.3267 352.4114 59.4385 352.8585 58.9914 352.8585 58.5443 352.635 57.8737 352.635 57.2031 352.8585 57.3149 353.0821 57.4266 353.1938 57.0913 353.4174 56.8678 353.9762 56.4207 353.7527 56.4207 353.9762 55.9736 354.3116 55.7501 354.6469 55.6383 355.0939 55.9736 355.2057 55.5265 355.0939 55.303 354.7586 54.9677 354.6469 54.5206 354.7586 54.297 355.0939 54.1853 355.541 54.4088 355.7646 54.7441 355.8763 54.4088 356.2117 54.1853 356.2117 53.9617 356.547 54.1853 356.7705 54.4088 357.1058 54.4088 357.4411 54.1853 356.8823 53.5146 357.3294 53.0675 358.5589 52.7322 359.7883 52.0616 360.3472 51.6145 360.9061 51.0557 361.6884 49.8262 362.1355 49.4909 362.5826 50.6086 362.9179 50.385 363.2532 49.938 363.2532 49.7144 363.7003 49.6026 364.1474 49.3791 364.4827 49.4909 364.2592 49.938 364.7063 50.2733 365.0416 50.0497 365.2651 49.6026 365.6004 49.2673 366.0475 49.0438 367.3888 49.0438 368.1712 48.8202 368.73 48.3732 369.2889 47.7025 369.5124 46.9201 369.4007 46.6966 369.2889 46.3613 369.2889 46.1377 369.4007 46.026 369.5124 45.9142 369.6242 45.8024 369.6242 45.5789 369.736 45.3553 369.8477 44.7965 370.4066 44.1259 370.7419 43.1199 371.0772 43.1199 371.6361 43.3435 372.0832 43.567 372.4185 43.3435 373.7597 42.3375 374.6539 43.3435 375.101 43.567 375.5481 43.3435 375.7716 43.0081 376.2187 41.5551 376.3305 41.5551 376.554 41.3316 376.7776 41.2198 376.6658 41.108 376.554 40.8845 376.4422 40.8845 376.4422 40.6609 376.2187 40.4374 376.2187 40.1021 376.2187 39.8785 376.6658 39.8785 377.3364 39.9903 377.8953 39.7668 377.6717 39.0961 378.9012 38.7608 380.2425 38.202 381.4719 37.4196 381.919 36.4136 381.6955 34.8488 381.6955 34.0664 382.0308 33.6194 382.7014 33.6194 383.3721 33.284 384.0427 32.9487 384.4898 32.7252 384.9369 32.1663 385.3839 31.3839 385.4957 30.6015 385.2722 29.8191 385.2722 29.4838 385.9428 29.1485 386.7252 28.925 387.1723 28.7014 387.284 28.4779 387.5076 27.919 387.6194 27.6955 387.9547 27.5837 388.29 27.5837 388.6253 27.3602 388.8488 27.1366 389.1842 26.6895 389.1842 26.3542 389.0724 26.1307 388.9606 25.6836 389.0724 25.2365 389.1842 24.7894 390.3019 23.56 390.5254 23.3364 390.9725 23.2246 391.7549 23.1129 392.0902 22.8893 393.2079 21.5481 393.7668 21.101 394.9963 20.4304 396.2257 19.9833 399.02 19.8715 401.0319 20.4304 401.5908 20.2068 402.3732 19.648 402.932 19.5362 403.6026 19.648 404.4968 19.648 405.6145 19.2009 407.9617 17.8596 409.4147 17.4125 410.1971 17.3008 410.8678 17.0772 411.3149 16.7419 411.5384 16.0713 411.8737 15.5124 412.5443 15.5124 413.9974 15.736 414.5562 15.1771 415.3386 13.8359 415.6739 13.5006 415.8975 13.0535 415.5622 10.4827 416.3446 9.4768 417.0152 8.8062 417.4623 8.5826 417.4623 8.3591 418.2447 7.4649 418.4682 7.3531 422.492 7.1296 423.1626 6.9061 423.6097 6.3472 424.2803 5.9001 425.1745 5.7883 426.9628 6.2354 427.9688 6.3472 428.5276 6.1237 428.7512 6.2354 428.9747 6.3472 429.4218 6.3472 430.2042 5.9001 431.4337 5.2295 432.1043 5.1177 433.7809 5.5648 434.5633 5.5648 434.8986 5.2295 435.2339 4.6706 435.7927 4.5589 436.9105 4.6706 438.1399 4 438.8106 4 439.4812 4.3353 439.8165 4.2235 442.0519 4.1118 442.7226 4.3353 444.7344 5.5648 445.8521 5.7883 446.6345 6.2354 447.864 6.3472 448.3111 6.5707 449.2053 7.1296 449.5406 7.2414 450.2112 7.3531 450.6583 7.5767 451.2172 8.2473 451.3289 8.3591 451.3289 8.4708 452.3349 8.5826 452.782 8.8062 453.7879 9.5886 454.5703 9.9239 455.1292 10.0356 456.5822 9.8121 457.4763 9.8121 458.0352 10.0356 458.5941 10.371 459.0411 10.7063 460.0471 11.4887 461.1648 11.824 462.3943 11.7122 463.7355 11.4887 464.4062 11.2651 465.6356 10.7063 466.3063 10.4827 466.9769 10.4827 469.1006 10.818 469.9947 10.7063 470.33 10.818 470.8889 11.1534 471.1124 11.2651 471.5595 11.1534 472.4537 10.4827 473.1243 10.2592 476.8128 9.9239 477.9305 9.5886 478.8246 9.8121 480.8365 10.0356 484.4132 10.818 485.6427 11.3769 486.2015 11.4887 486.5369 11.3769 486.7604 11.3769 487.8781 10.818 488.3252 10.7063 488.6605 10.9298 489.3311 11.824 489.5547 11.9358 489.7782 12.0475 490.3371 12.3828 490.5606 12.4946 490.8959 12.4946 491.4548 12.2711 491.7901 12.2711 492.1254 12.4946 492.796 13.6123 492.5725 14.2829 494.0255 18.8656 495.7021 24.2306 497.3787 29.5956 498.8317 33.8429 501.0671 40.9963 501.2906 42.114 500.5083 50.2733 500.7318 51.8381 501.4024 53.0675 504.532 56.5325 505.2026 57.8737 506.5439 62.4563 507.8851 65.5859 508.3322 66.3683 508.8911 66.9272 511.1265 68.492 511.4618 68.9391 511.6854 69.6097 511.6854 70.1685 511.9089 75.8689 512.1325 77.4337 514.0326 81.5692 515.1503 84.1399 516.0444 86.9342 516.1562 89.7285 515.9327 92.1875 515.9327 97.3289 515.9327 103.4763 515.9327 107.8354 516.0444 113.6475 516.0444 121.5833 515.4856 123.3716 515.3738 124.3776 515.3738 125.607 515.4856 126.7248 515.8209 127.5072 515.9327 128.1778 516.268 130.525 516.268 131.3074 516.1562 131.8662 515.9327 132.0898 515.5974 132.2015 515.1503 132.6486 514.9267 133.0957 513.4737 136.7842 513.3619 137.7901 513.4737 138.9078 514.7032 143.1551 512.8031 144.1611 511.9089 144.3846 510.903 144.0493 507.9969 142.1492 507.5498 141.8139 504.4202 139.802 500.9553 137.5666 497.3787 135.2194 496.5963 134.9958 495.5903 134.9958 494.4726 135.3311 493.5784 135.7782 490.2253 138.796 487.2075 141.3668 486.7604 142.1492 486.3133 144.1611 484.525 148.4084 482.2895 152.4321 479.8306 155.4499 476.8128 159.3619 476.0304 162.1562 476.1421 166.18 476.1421 171.2097 476.4774 173.7804 476.701 174.6746 477.2598 174.6746 477.8187 174.5628 478.3776 174.2275 478.9364 173.7804 479.2717 173.3333 479.4953 173.7804 480.0541 175.457 480.5012 176.1276 481.3954 177.2453 481.7307 177.6924 481.9542 178.4748 481.9542 179.369 481.6189 180.822 481.7307 181.8279 482.5131 183.0574 485.8662 186.187 487.431 188.5342 487.9899 189.0931 488.437 189.4284 491.343 190.4343 492.5725 190.8814 495.1432 191.7756 498.4964 192.8933 500.7318 193.3404 504.4202 193.4521 509.2264 193.4521 512.356 193.5639 515.3738 193.5639 515.3738 193.1168 515.262 192.6697 515.1503 192.2227 514.9267 191.8873 514.7032 191.3285 514.5914 188.5342 514.5914 187.8636 514.4796 185.5164 515.1503 182.1633 515.5974 179.0337 516.1562 175.7923 516.1562 174.6746 518.2799 174.6746 518.8387 174.7864 519.7329 175.5688 520.18 175.7923 521.1859 176.0158 522.8625 175.7923 523.8684 175.9041 526.2156 176.2394 528.1157 176.5747 532.0277 176.4629 536.275 176.3512 540.9694 176.2394 546.1109 176.0158 545.6638 177.5806 545.105 182.3868 544.5461 184.8458 544.4343 185.6282 544.3226 186.4106 543.0931 188.0871 542.9813 188.4224 542.8695 189.4284 542.7578 189.7637 542.5342 190.3226 542.3107 191.3285 538.8458 201.1644 536.6103 212.2297 536.4986 213.0121 536.4986 213.4592 536.1633 214.3534 536.0515 214.6887 536.0515 215.1358 536.275 215.9182 536.275 216.2535 534.7102 225.6422 534.4867 226.3129 531.6924 230.6719 531.4689 231.3426 531.3571 232.2367 531.0218 233.0191 530.4629 233.578 529.6805 233.8015 529.7923 234.1369 529.9041 234.2486 530.1276 234.1369 530.3512 234.0251 530.6865 235.3663 530.2394 236.7076 529.6805 238.1606 529.457 239.3901 529.0099 239.949 526.2156 242.9668 525.7685 243.3021 524.6508 243.8609 524.2037 244.0845 523.8684 244.5316 523.3096 245.6493 522.8625 246.2081 519.174 249.3377 518.2799 248.5553 517.0504 248.7789 516.268 249.5613 516.9386 250.5672 517.2739 250.3437 517.721 249.8966 518.1681 249.673 518.727 249.5613 518.1681 250.7908 516.8268 251.9085 512.6913 254.0321 511.5736 254.3674 510.2323 254.2557 508.7793 254.0321 508.7793 254.2557 508.8911 254.4792 509.0029 254.7028 509.2264 254.8145 509.2264 255.0381 508.2205 255.5969 501.7377 263.0856 500.1729 264.5386 499.6141 264.7622 499.5023 264.8739 499.3905 265.0975 499.2788 265.7681 499.167 265.8799 498.7199 266.2152 497.3787 268.0035 496.9316 268.4506 495.8139 269.1212 495.3668 269.5683 495.255 269.9036 495.0315 270.686 494.5844 271.0213 494.3608 271.2449 494.1373 271.5802 493.802 272.2508 489.4429 278.2865 485.0838 287.0046 484.7485 288.5694 485.0838 290.0224 483.7426 290.0224 483.519 290.3578 483.2955 291.3637 483.8543 291.0284 484.9721 290.6931 485.4191 290.246 485.4191 290.4695 485.3074 290.8048 485.1956 291.0284 484.8603 291.5872 484.0779 292.5932 480.613 295.7228 479.607 296.9523 478.0422 299.7465 476.1421 304.1056 471.336 312.712 470.6653 314.2768 470.5536 314.8356 470.33 315.3945 468.7652 317.0711 463.0649 327.5776 462.1707 329.0306 461.6119 329.5894 461.1648 329.813 460.7177 330.1483 459.7118 332.3837 456.5822 336.5193 454.235 339.7606 453.229 340.4312 452.2231 342.7784 450.4348 344.9021 445.6286 349.4847 444.958 349.82 442.9461 350.3789 442.1637 350.7142 441.4931 351.273 441.2695 351.9437 439.2576 354.5144 438.4752 354.8497 438.1399 355.0733 437.9164 355.7439 437.6928 356.0792 437.4693 356.3028 437.2458 356.4145 436.5751 356.5263 436.0163 357.0851 434.8986 358.2029 434.3397 358.5382 433.1102 358.9853 432.2161 359.6559 431.8807 359.7677 431.6572 359.7677 431.2101 359.8794 431.0983 359.8794 430.763 359.7677 430.5395 359.8794 430.316 360.103 430.4277 360.3265 430.5395 360.4383 430.5395 360.6618 429.8689 362.1149 428.9747 362.6737 428.7512 362.8972 428.6394 363.9032 428.3041 364.3503 427.1864 365.1327 426.0686 366.3622 425.6216 367.1446 425.398 367.7034 425.2862 368.1505 424.7274 369.1564 424.2803 369.38 424.2803 369.4917 424.1685 369.6035 424.0568 370.1624 424.0568 370.2741 421.8213 371.2801 421.486 371.7272 421.3743 372.3978 421.0389 373.0684 420.1448 374.5215 416.0092 378.9923 412.6561 383.6867 410.8678 384.8044 410.5325 385.1397 406.0616 389.387 405.391 390.5047 405.0557 390.7283 404.4968 390.9518 404.2733 391.1754 403.0438 392.5166 402.3732 393.299 402.1496 394.0814 401.9261 394.5285 398.2376 397.4345 397.4552 397.8816 396.3375 398.7758 395.7787 399.1111 395.6669 399.67 394.8845 400.3406 393.3197 401.2348 391.7549 402.3525 390.749 402.9113 388.9606 403.4702 388.0664 404.2526 387.3958 405.3703 387.1723 406.488 386.837 407.3822 386.1663 408.1646 382.7014 411.0706 381.6955 411.4059 381.4719 411.7413 381.0249 412.3001 380.5778 412.6354 380.466 412.7472 380.466 412.9707 380.466 413.1943 380.3542 413.4178 378.7894 414.0884 378.1188 414.8708 377.7835 414.9826 377.1129 415.0944 375.4363 415.765 374.8774 416.1003 371.8596 419.2299 370.8537 420.1241 368.5065 421.13 368.0594 421.3536 367.9476 421.4653 367.1652 422.5831 366.9417 422.8066 366.6064 422.8066 366.3828 422.8066 366.0475 422.5831 365.824 423.589 365.0416 424.4832 363.1415 425.9362 362.3591 426.3833 362.2473 426.3833 362.1355 426.3833 362.0238 426.2715 361.912 426.1597 361.8002 426.2715 361.6884 426.7186 358.1118 429.1776 357.7765 429.6246 355.3175 430.8541 354.7586 431.1894 354.5351 431.5248 354.4233 431.7483 354.4233 432.0836 354.1998 432.4189 353.9762 432.6425 353.6409 432.7542 352.9703 432.866 350.0642 434.4308 349.3936 434.5426 348.6112 434.6543 347.9406 434.8779 346.0405 436.5545 345.3699 436.6662 343.8051 436.8898 342.6873 437.5604 339.446 438.9017 339.1107 439.0134 338.7754 439.1252 338.5518 439.9076 338.44 440.0194 337.6576 440.1311 334.5281 441.8077 333.1868 442.143 331.8455 442.2548 329.0513 441.8077 328.1571 441.8077 327.4865 442.143 326.9276 442.2548 326.1452 441.9195 324.9157 441.1371 320.4449 440.2429 315.8623 440.0194 312.9562 440.4664 310.2737 441.3606 307.8147 442.5901 306.8088 443.3725 305.9146 444.4902 305.244 445.8315 304.6851 448.0669 304.5734 448.9611 304.7969 449.4081 305.4675 449.7435 305.5793 450.0788 305.6911 450.3023 306.697 450.9729 307.2559 452.0906 307.5912 452.426 307.5912 452.7613 307.4794 452.873 307.3677 452.9848 306.3617 452.6495 305.5793 452.873 304.9087 453.3201 304.0145 453.5437 303.0086 453.4319 301.2202 452.873 300.3261 452.6495 298.6495 452.873 297.8671 452.873 296.9729 452.3142 295.7435 452.0906 294.6257 451.3083 293.3963 450.8612 290.602 450.0788 287.5842 449.967 284.5663 450.4141 282.6662 450.9729 281.8838 451.42 281.325 451.9789 281.7721 453.6554 281.4367 454.4378 280.8779 455.1085 280.5426 455.4438 278.9778 456.8968 278.7542 457.4557 278.866 458.0145 279.2013 458.2381 279.5366 458.4616 279.6484 458.6851 279.5366 459.0205 278.9778 459.4675 278.7542 459.8029 278.5307 459.8029 278.0836 459.244 277.413 459.0205 275.0658 458.9087 273.2774 458.4616 272.495 458.3498 270.3714 458.6851 269.8125 458.6851 266.9065 457.9028 265.4535 457.1204 264.3358 456.1144 263.6651 455.7791 259.6414 455.332 259.0825 454.9967 258.6354 454.6614 256.5118 453.7672 250.4761 453.2084 249.8055 453.0966 248.3525 452.5377 244.8876 452.0906 238.9637 450.7494 237.3989 450.8612 232.0339 452.0906 231.3633 452.426 230.6926 452.7613 230.1338 453.3201 229.9102 454.2143 230.1338 454.9967 230.6926 455.5556 231.475 455.6673 231.475 456.0026 219.9626 454.8849 219.7391 454.6614 219.6273 453.4319 219.5155 453.2084 218.5096 453.0966 218.0625 452.9848 217.8389 452.6495 217.9507 453.3201 218.1743 453.5437 218.5096 453.6554 218.8449 453.879 219.1802 454.4378 219.1802 454.7732 218.9567 454.9967 218.7331 454.7732 218.286 454.6614 217.3919 454.5496 216.9448 454.6614 216.6095 454.7732 216.2741 454.8849 215.7153 454.8849 213.1446 453.9908 212.0268 453.3201 211.5798 453.2084 211.2444 452.9848 211.0209 452.426 210.9091 451.9789 210.9091 451.7553 211.1327 451.6436 211.6915 451.6436 211.1327 451.1965 210.3503 450.8612 208.8972 450.7494 209.2326 451.3083 209.6796 451.9789 210.2385 452.426 210.7974 452.6495 210.1267 452.873 209.3443 452.7613 205.6559 451.42 204.9853 451.3083 204.0911 451.3083 203.4205 451.42 202.8616 451.7553 201.185 453.0966 199.8438 453.879 198.279 454.2143 195.2612 453.879 193.8081 453.879 191.0139 454.5496 190.3432 454.8849 189.7844 455.332 188.7784 456.338 188.4431 457.2321 188.5549 457.9028 189.002 458.3498 189.5608 458.6851 189.1138 459.1322 188.4431 459.3558 184.1958 460.0264 182.9663 460.5853 182.0722 461.4794 181.9604 462.1501 182.1839 463.3795 181.8486 463.8266 181.178 465.0561 181.0662 465.1679 179.0543 466.3974 177.7131 466.8444 176.2601 467.1798 174.807 467.1798 171.3421 466.5091 170.1127 465.7267 169.3303 465.5032 168.6596 465.7267 167.3184 466.2856 166.0889 466.5091 165.8653 466.7327 165.7536 466.9562 165.53 467.1798 165.3065 467.4033 163.0711 468.4092 161.7298 468.6328 160.2768 468.521 154.8 466.3974 153.4587 466.1738 150.2174 465.8385 148.6526 466.062 147.3113 466.7327 147.5349 466.7327 145.6348 467.1798 145.0759 467.5151 145.9701 467.6268 146.7525 468.2975 147.1996 469.0799 146.8642 469.974 146.3054 470.1976 140.3815 469.1916 135.7989 469.7505 134.3459 470.4211 133.2282 471.3153 131.4398 473.886 130.7692 474.4449 130.2103 474.6684 129.6515 474.7802 129.4279 475.1155 129.3162 475.4508 128.9809 475.7861 128.6455 475.8979 127.5278 476.345 127.0807 476.7921 126.4101 477.3509 125.963 478.0216 125.7395 478.6922 125.4042 478.5804 124.6218 478.804 123.2805 479.3628 120.8216 481.1512 119.8156 482.4924 120.2627 483.4983 120.2627 483.8337 119.7039 483.9454 118.9215 484.5043 118.3626 484.6161 117.8037 484.5043 117.2449 484.3925 116.7978 484.0572 114.6741 482.4924 114.2271 482.0453 113.6682 481.71 108.3032 481.8218 107.8561 481.9336 107.2972 482.4924 106.8502 482.716 106.5149 482.6042 106.2913 482.3806 106.1795 482.0453 105.956 481.8218 104.2794 480.8158 101.8205 478.2451 100.0321 477.2392 99.585 476.9039 99.0262 476.2332 98.4673 475.7861 97.5732 475.6744 96.7908 475.8979 96.2319 476.345 95.8966 476.1215 95.5613 476.1215 95.3377 476.1215 95.0024 476.345 95.1142 475.8979 97.1261 473.2154 97.3496 472.7683 97.1261 471.6506 96.5672 470.3094 95.8966 469.1916 95.3377 468.2975 94.7789 467.9622 94.4436 467.8504 92.0964 468.4092 90.0845 468.1857 89.6374 468.0739 89.1903 467.6268 88.5197 466.5091 88.0726 466.1738 88.0726 465.8385 88.855 465.7267 89.3021 465.1679 89.5256 464.2737 89.8609 463.3795 89.3021 463.7149 88.5197 465.0561 88.0726 465.2796 85.6136 465.1679 85.1666 465.1679 84.1606 465.5032 80.9193 466.062 80.2486 466.5091 80.1369 466.8444 79.8015 466.9562 79.4662 466.8444 79.1309 466.7327 78.7956 466.1738 78.9074 465.8385 79.1309 465.2796 78.9074 463.9384 78.9074 463.7149 79.0191 463.2678 79.1309 463.0442 79.3545 462.9325 79.578 462.5971 79.9133 461.703 79.8015 461.1441 79.3545 459.8029 79.3545 459.0205 79.578 458.5734 80.0251 458.2381 80.4722 457.5674 79.1309 455.4438 78.5721 455.1085 76.5602 454.6614 73.5424 454.3261 70.4128 454.5496 69.9657 454.7732 69.6304 454.8849 68.5127 455.4438 67.842 455.8909 67.6185 456.1144 67.2832 456.5615 66.8361 457.0086 66.6125 457.3439 66.6125 457.9028 66.7243 458.3498 66.8361 458.5734 67.0596 458.6851 67.2832 458.9087 67.7303 460.5853 67.842 461.0323 67.842 461.3677 67.5067 464.0502 67.6185 464.8326 68.1773 465.2796 67.6185 465.5032 66.8361 465.0561 65.9419 464.3855 65.4948 463.7149 64.7124 462.0383 64.6007 461.5912 64.6007 461.3677 64.8242 460.8088 64.8242 460.4735 64.7124 460.3617 64.6007 460.2499 64.4889 460.1382 64.3771 460.0264 64.0418 459.0205 63.8183 458.5734 62.8123 458.2381 62.477 457.9028 62.477 457.3439 62.477 456.785 62.8123 456.4497 63.0359 456.338 63.3712 456.1144 63.4829 455.5556 63.4829 454.9967 63.4829 454.5496 63.7065 454.2143 63.93 453.7672 63.3712 453.879 63.2594 453.879 62.9241 454.1025 62.477 453.3201 62.477 452.7613 62.7006 452.2024 63.2594 451.6436 63.7065 450.8612 64.0418 449.4081 64.3771 448.514 65.3831 447.7316 66.7243 447.7316 67.7303 447.508 68.1773 446.055 68.0656 445.2726 67.3949 444.2667 67.2832 443.8196 67.1714 443.0372 66.389 439.4605 65.4948 437.6722 65.2713 436.8898 64.936 436.778 63.4829 434.8779 62.9241 434.5426 62.5888 434.319 62.477 433.9837 62.477 432.3072 62.477 431.5248 62.2535 430.7424 61.3593 429.4011 60.4651 428.3952 56.8884 425.9362 57.2238 425.2656 57.0002 424.4832 56.2178 422.9184 55.7707 421.8007 54.8766 420.6829 54.8766 420.3476 54.5413 419.7888 52.9765 418.3358 52.4176 418.0004 51.747 417.7769 51.2999 417.1063 50.9646 416.3239 50.5175 415.8768 51.4117 415.4297 51.8587 415.3179 52.1941 415.4297 52.4176 415.8768 52.6411 416.3239 52.8647 416.6592 53.3118 416.8827 53.0882 417.3298 53.3118 417.6651 54.2059 418.4475 54.8766 419.2299 55.3237 419.7888 55.7707 419.9006 56.2178 419.5652 56.1061 419.1182 55.4354 418.4475 55.2119 418.1122 55.1001 417.4416 55.1001 417.1063 54.8766 417.1063 54.5413 416.9945 54.4295 416.8827 53.6471 416.2121 53.4235 415.765 53.3118 415.4297 53.3118 413.7531 53.3118 413.0825 52.7529 412.3001 51.9705 411.9648 51.0763 411.853 50.0704 412.0766 50.2939 412.6354 50.5175 412.859 50.0704 412.9707 49.7351 413.1943 49.1762 413.6414 48.7292 413.1943 48.6174 412.859 48.5056 412.4119 48.5056 412.1883 48.2821 411.853 48.0585 411.5177 47.9468 411.0706 48.1703 410.4 48.0585 410.1765 47.6114 408.947 47.4997 408.1646 47.3879 407.8293 47.4997 407.4939 47.835 407.0469 48.0585 406.5998 47.835 406.0409 47.1644 405.035 46.9408 404.9232 46.829 404.8114 46.829 404.4761 46.9408 404.3644 47.1644 404.4761 47.3879 404.4761 47.4997 404.3644 47.6114 404.2526 48.1703 403.8055 48.3938 403.6937 48.6174 403.582 48.6174 403.4702 48.7292 403.2466 48.8409 403.0231 48.8409 402.6878 48.8409 401.4583 48.8409 401.0112 49.3998 400.5641 50.1822 400.2288 50.9646 400.1171 51.4117 400.1171 51.1881 400.4524 51.5234 401.0112 53.3118 402.576 54.653 403.1349 55.9943 402.7996 57.112 401.9054 61.024 397.8816 61.8064 396.3168 62.3652 394.9756 63.1476 391.7342 63.2594 390.1694 63.0359 387.3751 62.9241 386.8163 62.477 385.9221 62.7006 385.2515 63.4829 384.2455 63.5947 382.6807 62.3652 377.5393 61.9182 373.292 61.3593 371.6154 61.1358 370.833 61.2475 369.0447 61.2475 368.2623 60.8004 367.4799 60.4651 366.921 60.018 366.2504 59.7945 365.6915 59.7945 365.3562 59.7945 365.0209 59.7945 364.6856 59.1239 361.8913 58.565 360.6618 57.7826 359.3206 56.2178 357.3087 55.9943 356.7498 55.8825 356.5263 54.4295 354.2909 52.7529 352.6143 52.5294 351.9437 52.3058 351.273 51.8587 350.7142 50.741 349.7083 49.3998 347.6964 48.5056 346.914 48.1703 345.908 47.7232 344.1197 47.3879 343.6726 46.0466 342.5549 45.7113 342.1078 45.4878 341.6607 43.6994 338.6429 43.5877 338.5311 43.2524 337.637 43.1406 337.3017 42.6935 336.631 42.0229 334.9545 41.5758 334.2838 39.3404 331.0425 37.4403 327.2422 37.3285 326.6834 36.9932 325.3421 36.6579 324.0009 34.646 321.3184 33.7518 319.6418 33.8636 318.1888 33.0812 317.1828 31.1811 313.7179 30.9575 312.8238 30.2869 312.1531 28.1633 308.3529 28.0515 308.0176 27.9397 307.0117 27.7162 305.7822 27.4926 305.4469 27.4926 304.4409 25.7043 301.4231 25.2572 300.0818 25.1454 298.6288 24.363 295.4992 22.2394 290.6931 22.0158 289.3518 22.0158 289.1283 21.7923 288.9047 21.6805 288.6812 21.5688 288.2341 21.5688 287.8988 20.6746 284.7692 20.8981 284.7692 20.7864 284.2103 20.7864 283.2044 20.6746 282.6455 19.8922 280.5219 19.8922 280.0748 19.4451 279.7395 19.2216 278.8453 19.1098 277.3923 18.1039 274.7098 17.8803 274.2627 16.6508 270.4625 16.5391 270.2389 15.8684 269.5683 15.7567 269.233 15.6449 269.0095 14.9743 268.3388 14.3036 265.9916 14.1919 265.6563 13.7448 265.321 13.633 264.9857 13.633 264.0915 13.5212 263.7562 13.2977 263.1974 12.9624 262.3032 12.8506 261.409 12.9624 260.7384 12.5153 259.8442 10.3916 258.0559 10.0563 257.497 9.6092 256.044 9.2739 255.5969 7.8209 253.4733 5.5855 251.5732 5.2502 250.679 4.9149 249.3377 4.6913 247.9965 4.8031 247.2141 4.6913 246.9905 4.356 246.3199 4.356 246.0964 4.2442 245.8728 3.9089 245.7611 3.5736 245.7611 3.4618 245.6493 2.6794 244.0845 2.1206 243.6374 1.3382 242.7432 1.2264 242.5197 1.5617 242.2961 1.7853 241.7373 1.897 241.1784 1.7853 240.7314 2.4559 240.5078 3.3501 239.8372 4.2442 239.3901 5.4737 239.0548 8.0444 236.484 8.3798 236.3723 8.6033 236.5958 8.8268 236.9311 8.8268 237.49 9.0504 237.8253 9.6092 237.8253 10.2799 237.2664 10.8387 236.484 11.174 235.8134 11.2858 235.2546 11.2858 234.3604 11.5094 233.578 11.9564 233.2427 12.2917 232.9074 12.0682 232.2367 11.3976 231.2308 11.174 230.5602 11.0623 229.8895 11.174 229.1072 11.7329 228.8836 12.0682 228.9954 12.4035 229.2189 12.7388 229.3307 13.0741 229.1072 13.0741 228.6601 12.8506 228.213 12.6271 227.8777 12.5153 227.5424 12.7388 227.207 12.8506 227.0953 13.5212 227.0953 14.0801 226.9835 14.0801 226.6482 13.5212 225.9776 13.4095 225.754 13.4095 225.5305 13.633 225.3069 13.7448 225.4187 13.9683 225.5305 14.5272 225.5305 14.6389 225.6422 14.7507 225.6422 15.086 225.3069 15.3096 222.2891 15.4213 222.1773 15.9802 221.5067 16.2037 221.3949 16.4273 221.3949 16.7626 221.842 17.0979 221.9538 17.545 221.7303 17.9921 221.2832 18.3274 221.1714 19.2216 221.3949 20.3393 220.5008 20.6746 220.389 21.3452 220.1655 21.6805 220.1655 22.1276 220.389 22.5747 220.9479 22.91 221.7303 23.3571 222.4009 24.0277 222.6244 24.8101 222.9597 25.1454 223.5186 25.1454 224.4128 25.0337 225.3069 25.2572 226.9835 25.9278 227.8777 26.9338 228.1012 29.0574 227.6541 29.9516 227.5424 30.2869 227.7659 30.3987 228.213 30.5105 228.6601 30.6222 228.9954 30.9575 229.4425 31.0693 229.8895 31.0693 230.2249 31.1811 230.6719 31.4046 231.119 31.9635 231.7897 32.0752 232.2367 32.187 233.0191 32.0752 234.0251 31.8517 234.9193 31.2928 235.3663 30.734 235.4781 30.1751 235.8134 29.7281 236.3723 29.6163 236.9311 29.8398 237.6018 30.734 238.7195 30.9575 239.6136 31.1811 240.2843 32.4106 240.7314 32.7459 241.5138 32.6341 242.9668 32.187 244.6433 32.187 245.7611 33.4165 245.8728 34.9813 245.5375 36.3226 245.4257 36.9932 245.2022 37.6638 244.9787 38.2227 244.8669 38.6697 245.2022 38.8933 245.9846 38.7815 246.8788 39.0051 247.6612 39.6757 247.9965 40.7934 248.3318 41.2405 248.22 41.464 248.1083 42.1347 247.6612 42.5817 247.5494 43.5877 247.4376 49.1762 248.6671 50.2939 249.1142 51.4117 249.8966 53.5353 251.5732 54.7648 252.2438 57.5591 253.2497 58.1179 253.2497 59.3474 252.8026 62.2535 252.3556 63.0359 252.4673 64.3771 252.9144 65.1595 253.138 65.8301 252.8026 66.0537 252.6909 66.5008 252.5791 67.1714 252.4673 67.2832 252.3556 67.6185 252.132 67.7303 252.132 67.9538 252.2438 68.2891 252.5791 68.5127 252.6909 69.1833 252.4673 70.4128 251.7967 76.7837 250.9025 83.7135 251.9085 84.2724 252.3556 85.0548 253.6968 85.3901 254.1439 85.6136 254.2557 86.8431 254.3674 87.1784 254.4792 87.2902 254.7028 87.8491 255.3734 89.1903 255.2616 90.5316 254.8145 92.4317 253.8086 92.6552 253.585 93.1023 253.0262 93.3259 252.8026 94.3318 252.6909 94.7789 252.4673 94.7789 252.0202 93.5494 249.8966 93.3259 249.1142 93.4376 248.22 93.9965 247.2141 94.4436 246.6552 94.7789 246.3199 95.3377 246.3199 96.1201 246.8788 96.4554 246.9905 96.9025 246.767 99.585 246.0964 100.2557 245.7611 100.8145 245.314 101.2616 244.7551 102.1558 241.7373 102.3793 241.402 102.7146 241.2902 102.9382 241.1784 103.1617 240.396 103.3853 240.1725 103.6088 239.7254 103.8323 239.5019 104.0559 239.1666 104.3912 238.943 104.7265 238.8312 108.0796 238.6077 108.6385 238.2724 109.1974 237.8253 109.9798 237.49 111.6563 237.3782 112.5505 237.1547 114.1153 235.8134 114.8977 235.2546 115.3448 235.2546 116.3507 235.3663 116.686 235.3663 117.8037 235.031 117.8037 233.9133 117.8037 232.4603 117.8037 230.3366 117.8037 228.213 117.8037 226.0893 117.8037 224.0774 117.8037 221.9538 117.8037 219.8301 117.8037 217.7065 117.8037 215.5828 117.8037 213.4592 117.8037 211.4473 117.8037 209.3237 117.8037 207.2 117.8037 205.0763 117.8037 202.9527 117.8037 200.9408 117.8037 198.8172 117.8037 196.6935 117.8037 194.5699 117.8037 192.558 117.8037 190.4343 117.8037 188.3107 117.8037 186.187 117.8037 184.1751 117.8037 182.0515 117.8037 179.9278 117.8037 177.916 117.8037 175.7923 117.8037 173.6686 117.8037 171.6568 117.8037 169.5331 117.8037 167.5212 117.8037 165.3976 117.8037 163.2739 117.8037 161.262 117.8037 159.1384 117.8037 157.1265 117.8037 155.0029 117.8037 152.991 117.8037 150.8673 117.8037 148.7437 117.8037 146.7318 117.8037 144.6081 117.8037 142.5963 117.8037 140.4726 117.8037 138.4607 117.8037 136.3371 117.8037 134.3252 117.8037 132.3133 117.8037 130.6367 117.8037 130.1897 117.8037 128.1778 117.8037 126.0541 117.8037 124.0422 117.8037 121.9186 117.8037 119.9067 117.8037 117.8948 117.8037 115.7712 117.8037 113.7593 117.8037 111.6356 117.8037 109.6238 117.8037 107.6119 117.8037 105.4882 117.8037 103.4763 117.8037 101.4645 117.8037 99.3408 117.692 98.8937ZM416.2328 253.4733L414.4444 251.5732 413.1032 249.226 412.6561 248.7789 412.209 248.3318 411.7619 247.9965 411.2031 247.7729 410.1971 247.6612 409.8618 247.4376 408.9677 245.5375 408.4088 245.2022 406.9558 245.0904 406.6205 244.6433 406.3969 243.0785 406.1734 242.2961 405.8381 241.6255 405.391 241.1784 404.8321 240.7314 404.2733 240.7314 402.3732 242.0726 401.7025 242.1844 397.1199 242.5197 396.4493 242.7432 395.7787 243.4139 394.8845 244.9787 394.2139 245.5375 393.655 245.8728 392.8726 245.8728 392.0902 245.8728 391.4196 245.5375 390.9725 245.5375 389.1842 245.7611 388.8488 245.6493 388.5135 246.0964 388.0664 246.6552 387.1723 247.9965 387.0605 248.22 385.6075 249.7848 384.378 251.4614 384.2662 251.7967 384.2662 252.132 384.1545 252.3556 383.9309 252.3556 383.0367 252.3556 382.5897 252.2438 382.3661 251.7967 381.919 251.4614 381.2484 251.3496 380.8013 251.6849 380.5778 252.132 380.3542 252.8026 380.0189 253.3615 379.1248 253.6968 375.3245 253.4733 375.6598 254.1439 375.2128 254.3674 374.7657 254.591 374.4304 254.9263 374.4304 255.3734 374.4304 255.7087 374.3186 255.9322 374.3186 256.044 374.2068 256.1558 374.2068 256.3793 374.2068 256.6029 374.095 256.6029 373.8715 256.4911 373.7597 256.6029 373.0891 257.497 372.7538 257.9441 372.3067 258.1677 371.7479 258.2794 371.9714 258.6147 372.3067 259.0618 372.642 259.3971 372.4185 259.5089 372.0832 259.6207 371.9714 259.7325 371.7479 259.3971 371.5243 259.7325 371.6361 260.4031 371.6361 260.6266 370.8537 261.9679 368.9536 264.3151 368.73 264.4268 368.3947 264.6504 368.0594 264.7622 367.8359 265.0975 367.8359 265.5446 368.0594 266.4387 368.1712 266.8858 367.8359 267.1094 367.5006 267.2211 366.1593 267.6682 365.6004 268.0035 365.4887 268.3388 365.4887 269.233 365.3769 269.5683 365.0416 270.0154 364.7063 270.1272 364.4827 270.2389 364.1474 270.4625 364.0356 270.7978 364.1474 271.0213 364.371 271.2449 364.4827 271.4684 364.4827 272.0273 364.2592 272.2508 364.0356 272.3626 362.6944 273.9274 362.3591 274.4862 362.2473 275.1569 362.0238 275.3804 361.2414 275.2686 361.0178 275.4922 361.0178 275.9393 360.7943 276.2746 360.5707 276.6099 360.5707 276.7217 360.3472 276.8334 359.3413 277.5041 358.5589 277.8394 357.6647 277.9512 357.1058 278.2865 356.7705 278.3982 355.7646 278.51 354.8704 278.9571 354.6469 279.0689 353.5292 280.1866 353.4174 280.2983 353.1938 280.1866 353.0821 279.963 352.9703 279.7395 352.635 279.7395 352.4114 279.963 352.1879 280.5219 351.9644 280.8572 351.629 280.4101 351.2937 280.4101 351.0702 280.7454 351.0702 281.3043 350.6231 282.3102 350.9584 282.422 351.4055 282.7573 351.8526 283.0926 352.2997 283.4279 353.1938 284.881 353.5292 285.4398 356.2117 292.0343 357.2176 294.2697 357.7765 294.9404 359.3413 296.2816 359.9001 297.064 360.3472 298.9641 360.5707 299.4112 360.9061 300.0818 361.2414 300.1936 361.6884 300.0818 362.3591 300.0818 362.9179 300.3054 363.2532 300.5289 363.1415 300.8642 362.6944 301.4231 362.0238 303.2114 362.0238 304.3292 362.8062 306.341 362.6944 307.0117 363.0297 307.0117 363.1415 307.0117 363.8121 307.2352 364.1474 307.2352 364.371 307.2352 365.0416 306.8999 365.6004 306.8999 365.824 307.2352 366.0475 308.1294 366.3828 308.6882 366.9417 309.1353 368.1712 309.6942 368.2829 310.1413 368.3947 310.4766 369.2889 311.3707 370.0713 312.4884 370.1831 312.8238 370.1831 313.1591 370.1831 313.4944 370.4066 313.8297 372.4185 315.3945 374.2068 317.5182 375.2128 318.077 376.4422 318.5241 377.7835 318.6359 378.1188 318.6359 378.7894 318.3006 379.013 318.1888 379.4601 318.4123 379.6836 318.6359 380.0189 318.8594 380.2425 319.0829 380.9131 319.4183 381.6955 319.6418 385.6075 319.9771 386.3899 320.3124 386.3899 319.6418 386.2781 318.9712 386.2781 318.4123 386.5017 317.6299 386.6134 317.1828 386.9487 317.0711 387.1723 316.8475 387.5076 316.624 387.7311 316.2887 387.8429 316.0651 388.4018 314.2768 388.5135 313.9415 388.4018 313.6062 387.9547 312.9355 387.9547 312.6002 388.1782 312.1531 390.9725 309.9177 391.4196 309.3589 391.6431 308.5765 391.5314 307.6823 391.196 307.347 390.6372 307.1234 390.3019 306.5646 390.4136 305.8939 390.8607 305.3351 391.6431 304.888 392.202 304.6645 393.2079 304.4409 393.5432 304.3292 393.7668 304.1056 394.1021 303.5468 394.4374 303.3232 394.9963 302.7644 395.5551 301.6466 395.7787 301.1996 396.4493 300.5289 397.2317 300.4172 398.9083 300.6407 399.6906 300.4172 401.1437 299.523 401.7025 299.4112 402.2614 299.4112 403.8262 300.0818 404.9439 300.0818 407.9617 298.9641 410.0854 298.5171 412.3208 297.6229 416.121 295.0521 417.4623 294.2697 420.033 292.5932 420.4801 292.3696 421.3743 292.1461 421.7096 291.9226 421.9331 291.5872 421.8213 291.2519 421.486 290.5813 421.3743 290.0224 421.3743 289.6871 421.3743 289.3518 420.9272 289.0165 420.4801 288.3459 420.4801 287.4517 420.5919 286.4458 420.7036 285.5516 420.7036 285.4398 421.2625 284.3221 421.7096 283.3162 422.2684 282.3102 423.2744 281.5278 425.7333 280.7454 426.1804 280.2983 426.1804 279.6277 426.1804 279.0689 426.7393 278.6218 426.2922 278.0629 426.0686 277.1688 426.0686 277.057 426.0686 276.1628 426.2922 275.3804 426.9628 274.7098 427.9688 274.2627 428.9747 273.9274 429.7571 273.5921 430.2042 273.2568 430.4277 272.9215 430.6513 272.4744 430.5395 271.9155 430.6513 271.3567 431.2101 270.4625 431.4337 269.9036 431.3219 269.6801 430.8748 269.233 430.6513 269.0095 430.6513 268.7859 430.6513 268.2271 430.6513 268.0035 430.316 267.1094 429.4218 265.8799 428.9747 264.5386 428.7512 263.868 428.3041 263.4209 427.857 262.9738 427.4099 262.5267 427.2981 260.2913 426.2922 259.956 424.9509 259.8442 423.8332 259.5089 421.1507 256.6029 419.9212 256.1558 419.2506 255.9322 418.8035 255.5969 418.58 255.1498 418.58 254.3674 418.2447 254.0321 417.574 253.6968 416.7916 253.4733 416.2328 253.4733ZM704.2671 1013.4055L705.3848 1013.0702 706.5025 1013.182 709.5204 1014.1879 711.0851 1015.9762 711.9793 1016.3116 711.644 1017.6528 710.9734 1018.8823 710.0792 1019.6647 709.0733 1020 708.738 1020 708.1791 1019.7765 704.4906 1019.5529 704.0436 1019.6647 702.8141 1019.5529 702.2552 1019.2176 701.8081 1018.7705 701.5846 1018.3234 701.4728 1017.6528 701.3611 1016.9822 702.0317 1016.4233 702.7023 1015.3056 703.0376 1015.0821 703.2612 1014.8585 703.9318 1013.7408 704.2671 1013.4055ZM710.8616 1004.1285L710.9734 1003.0108 712.2029 1002.3402 713.6559 1002.2284 714.7736 1003.1226 714.6618 1004.4638 713.4323 1004.9109 711.8675 1004.6873 710.8616 1004.1285Z" />
</svg>