<?xml version="1.0" encoding="utf-8"?>
<svg xmlns="http://www.w3.org/2000/svg" viewBox="0 0 1021 888" style="stroke-width:0.25px;stroke-linejoin:round;stroke:#444;fill:#ddd" fill-rule="evenodd">
  <path class="ZM" d="M951.6139 108.3512L951.8374 113.4926 952.1727 114.6103 953.0669 115.3927 953.6257 115.1692 954.1846 114.7221 955.1905 114.7221 955.7494 115.0574 956.9789 116.1751 957.7613 116.6222 957.7613 118.9694 956.3083 125.3404 957.3142 127.7993 958.4319 128.1347 959.4378 127.6876 960.4438 127.0169 961.5615 126.7934 962.5674 127.2405 962.9028 128.1347 963.1263 129.1406 963.5734 130.0348 965.4735 130.7054 966.2559 129.1406 966.4794 126.4581 967.0383 124.2227 969.0502 125.2286 973.7446 125.4521 975.4211 126.6816 976.6506 128.9171 977.0977 130.0348 977.2095 131.376 976.9859 132.382 976.5388 133.0526 976.2035 133.835 976.4271 135.1762 977.3212 136.4057 979.4449 137.747 980.4508 138.8647 981.6803 141.2119 982.4627 142.3296 983.4686 143.2238 984.5864 143.7826 987.716 145.0121 988.2748 145.6827 989.7278 149.1476 990.2867 151.6066 989.6161 153.3949 987.0453 157.4187 985.3688 161.666 984.9217 163.9014 984.9217 166.1369 986.0394 167.7017 993.1927 170.943 994.9811 172.5078 996.4341 174.0726 997.9989 175.3021 1000.2343 176.0845 1001.7991 178.3199 1003.5875 179.4376 1004.8169 180.8906 1005.0405 183.6849 1004.4816 188.6029 1004.8169 190.7265 1007.0524 196.2033 1007.8348 197.2092 1010.182 199.4447 1010.8526 200.1153 1012.5292 204.1391 1013.8704 205.7039 1016.3294 206.0392 1016.3294 208.2746 1016.8882 209.9512 1017 210.8453 1017 211.0689 1017 211.516 1015.6587 213.6396 1014.3175 214.8691 1010.8526 217.3281 1009.7349 217.7751 1008.6172 218.5575 1004.3699 223.3637 1002.9168 226.9404 1002.0227 228.5052 1000.2343 229.5111 998.8931 229.8464 997.3283 231.4112 996.2106 231.8583 994.8693 231.8583 991.9633 231.2994 990.7338 231.523 989.6161 231.9701 987.3806 232.4172 986.1512 232.7525 985.1452 233.7584 983.4686 236.2174 982.2392 236.9998 981.1215 236.9998 980.2273 236.6645 979.4449 236.9998 978.6625 238.5646 978.5507 239.7941 979.3331 240.3529 980.3391 240.3529 981.5685 240.1294 982.798 241.2471 983.4686 244.0414 983.804 246.7239 984.0275 249.2946 984.8099 251.9771 986.1512 254.4361 987.716 256.6715 989.6161 258.5716 992.4103 263.4895 991.6279 266.1721 990.5102 268.631 984.3628 278.0198 984.251 278.5787 984.5864 279.5846 984.4746 280.1435 983.9157 280.5905 982.5745 281.1494 982.2392 281.5965 982.1274 282.826 982.2392 284.0554 982.2392 285.1732 981.4568 286.4026 979.3331 284.5025 978.4389 285.732 978.886 293.3325 978.7743 294.4502 978.2154 296.1267 976.9859 298.8092 977.2095 299.4799 978.6625 300.0387 980.1155 300.0387 981.6803 299.927 983.1333 300.1505 984.251 301.4917 984.8099 302.9448 985.7041 317.3633 985.4805 320.6046 984.3628 323.9578 984.3628 325.299 985.257 327.3109 985.5923 328.5404 985.3688 329.9934 984.8099 331.3347 984.0275 335.9173 980.5626 343.9648 980.3391 346.9826 980.4508 350.0004 981.1215 351.3417 983.5804 353.6889 984.5864 354.9184 985.5923 357.8244 987.1571 364.0836 988.8337 366.6543 991.8515 367.7721 998.3342 365.8719 1001.6873 366.9897 1003.1404 366.9897 1004.1463 367.325 1004.2581 369.1133 1003.4757 370.5663 1003.1404 370.7899 1000.905 372.2429 1000.2343 373.6959 998.8931 373.9195 998.5578 374.5901 998.446 376.7138 997.6636 377.8315 994.9811 378.8374 994.0869 379.8433 992.6339 381.8552 990.8455 383.6436 988.9454 384.873 987.0453 385.3201 986.2629 385.0966 985.5923 384.6495 984.6981 384.2024 983.6922 384.2024 981.345 384.5377 980.6744 384.873 979.6684 385.9908 978.2154 389.0086 976.9859 389.9028 976.0917 390.1263 975.5329 390.4616 975.1976 390.7969 974.7505 391.1322 974.1916 391.6911 973.9681 392.2499 973.521 392.697 972.6268 392.697 972.2915 392.2499 971.2856 390.3498 970.615 389.6792 969.8326 389.4557 969.1619 389.5674 967.8207 389.9028 967.0383 390.3498 966.2559 391.0205 965.5853 391.3558 964.9146 390.7969 964.5793 390.0145 964.1322 389.5674 963.4616 389.4557 962.791 389.791 961.5615 390.7969 960.6673 392.0264 957.9848 397.3914 954.8552 402.0858 953.6257 404.433 953.4022 405.9978 953.8493 412.5923 954.4081 413.5982 956.7553 415.0513 958.879 416.9514 959.6614 419.1868 959.2143 421.6458 956.8671 427.1226 955.5259 436.9584 955.6376 438.5232 955.9729 439.9762 956.6436 441.541 958.0966 443.5529 958.3201 444.5589 957.873 445.9001 955.1905 446.5707 953.0669 449.365 951.5021 452.8299 950.2726 457.8596 949.0431 462.6658 947.5901 466.1307 945.0194 467.4719 943.4546 467.6955 942.7839 468.7014 942.5604 470.0427 942.5604 471.7193 942.2251 473.7311 941.1074 474.5135 937.866 474.9606 936.7483 475.743 934.4011 477.7549 933.2834 477.8667 931.7186 477.3078 930.3773 477.196 929.5949 477.9784 929.2596 479.7668 930.2656 482.6728 932.9481 483.2317 936.1894 483.2317 938.4249 484.3494 941.778 488.932 942.2251 490.0497 941.5545 491.0557 938.3131 492.5087 937.4189 493.5146 937.866 495.9736 940.4367 497.0913 943.5663 497.7619 946.2488 498.7679 947.5901 499.8856 951.8374 505.2506 952.1727 506.5919 952.3963 507.9331 952.9551 509.2744 953.6257 509.945 955.1905 509.8332 955.8612 510.1685 956.42 510.9509 956.42 511.398 956.3083 511.9569 955.9729 516.4277 956.42 517.769 958.4319 520.4515 959.9967 520.0044 962.791 515.6453 963.9087 514.3041 965.1382 513.6334 968.156 512.7393 968.9384 511.9569 969.8326 509.7215 970.615 509.1626 971.8444 510.2803 974.6387 515.31 976.0917 517.0983 969.7208 519.3338 962.2321 521.9045 951.2785 525.7047 936.3012 530.8462 921.6592 535.8759 908.582 540.3468 899.4167 543.4763 891.3692 546.2706 884.3276 547.6119 881.0862 548.6178 874.4917 551.6356 865.7736 554.5417 854.3729 558.3419 841.8546 562.4774 835.9307 565.607 827.8832 569.9661 820.3945 572.7604 811.341 574.884 800.1639 577.6783 791.1105 579.9138 789.6574 580.0255 777.3626 582.8198 768.6444 584.8317 756.5732 589.3025 749.1963 591.985 740.031 595.4499 731.8717 599.4737 725.5008 602.7151 717.9003 603.6092 716.4473 603.9446 716.4473 604.0563 716.3355 604.6152 717.0062 607.2977 717.0062 611.3215 717.4532 615.2334 720.6946 626.5223 722.8183 630.7696 725.6125 632.6697 726.9538 633.1168 727.9597 634.2345 728.8539 635.9111 729.5245 637.5877 729.8598 639.376 730.0834 645.2999 730.4187 646.3058 731.6482 648.0942 731.9835 648.9883 731.76 649.8825 730.0834 653.0121 729.5245 654.9122 729.7481 656.2535 732.207 658.8242 732.6541 659.6066 733.6601 662.1773 733.4365 662.4009 732.207 662.9597 728.7421 664.301 726.2832 664.4128 723.4889 663.1833 722.1476 662.6244 719.9122 662.2891 719.2416 662.6244 717.9003 663.7421 717.2297 664.1892 715.7767 664.5245 714.7707 664.1892 712.5353 662.6244 709.0704 661.842 705.6055 662.4009 702.1406 663.295 698.6757 663.8539 694.9872 663.4068 687.4986 661.3949 683.6983 661.0596 681.6865 661.5067 678.1098 663.1833 674.3096 663.7421 669.3916 665.4187 667.268 665.754 665.4796 665.4187 663.8031 664.9716 661.903 664.7481 659.8911 665.3069 656.6497 668.1012 655.0849 669.1072 647.5963 669.7778 646.255 670.0013 627.1421 678.943 624.0125 682.1844 623.2301 682.6315 621.4418 683.0785 619.7652 684.1963 618.424 685.4257 617.5298 686.3199 615.7415 689.8966 614.6238 691.0143 612.5001 691.3496 608.5881 691.4614 606.688 691.7967 606.3527 691.9085 605.0114 692.5791 602.1054 695.3734 600.2053 697.8323 599.9817 698.3912 598.7523 700.2913 598.5287 701.2972 598.6405 702.0796 599.0876 702.7503 599.5347 703.3091 599.7582 703.7562 599.1993 706.774 598.0816 710.5743 597.6345 714.1509 599.0876 716.7217 597.0757 721.5278 596.7404 723.5397 597.0757 725.1045 598.5287 728.9047 598.5287 730.9166 596.4051 734.3815 596.0697 735.1639 595.5109 738.4053 594.2814 739.8583 590.8165 742.429 590.1459 743.9938 588.4693 745.6704 587.6869 746.341 586.4574 746.5646 583.9985 746.5646 579.9747 747.347 548.3435 759.7536 542.5314 763.6656 533.925 770.8189 525.9892 774.1721 512.5767 780.0959 508.1058 782.7784 504.6409 786.5787 492.905 804.462 491.4519 807.7034 489.6636 814.8568 487.3164 819.4394 482.7338 824.2455 473.7921 832.4048 450.7672 856.5474 449.873 857.7769 449.7613 858.7828 449.873 861.0183 450.0966 863.1419 447.1905 866.8304 443.9492 869.96 441.3784 872.4189 439.0312 873.7602 437.69 874.0955 433.5545 874.319 432.6603 874.7661 429.5307 876.778 427.407 876.1074 419.2477 879.9076 417.1241 880.2429 415.7828 880.5782 414.5534 881.2488 412.0944 883.596 411.0884 883.9314 409.859 883.7078 404.941 882.0312 403.488 881.3606 402.2585 880.2429 400.9173 878.7899 399.7996 877.7839 398.3465 877.2251 395.9993 876.778 392.4227 875.6603 385.7164 871.9718 381.8044 871.1894 378.563 871.7483 377.8924 871.5248 377.3336 870.9659 376.6629 870.5188 375.7688 870.0717 371.8568 869.6246 371.0744 869.4011 370.6273 868.7305 370.0684 867.9481 369.5096 867.1657 368.6154 866.8304 367.9448 867.2774 364.8152 869.6246 364.0328 870.0717 362.0209 870.5188 360.5679 871.3012 359.0031 871.6365 358.556 871.8601 358.4442 872.1954 358.556 873.4249 358.556 873.7602 357.3265 874.0955 355.6499 874.2073 354.3087 874.4308 353.7498 875.5485 353.191 874.9897 348.3848 877.4486 347.3789 877.5604 343.6904 877.4486 338.4372 874.9897 337.543 873.8719 336.8724 872.4189 336.9842 871.0777 338.4372 870.6306 337.2077 869.0658 333.2957 867.3892 332.4015 865.9362 331.6191 864.9303 329.9426 863.8125 328.0425 862.9184 324.6893 862.0242 323.6834 861.0183 322.5657 860.3476 320.442 860.5712 315.8594 862.5831 310.0473 863.7008 309.4884 863.9243 308.7061 864.8185 308.259 864.9303 307.7001 864.9303 306.9177 864.3714 306.4706 864.2596 299.8761 864.2596 298.982 864.1479 296.0759 863.0301 293.3934 863.1419 292.4992 863.0301 290.8227 862.2477 288.1402 860.1241 286.5754 859.3417 285.9047 858.7828 285.3459 857.5534 284.4517 856.5474 283.2222 855.8768 282.1045 855.5415 280.5397 855.5415 279.9809 855.2062 278.8631 853.7531 278.3043 853.4178 277.4101 852.859 276.963 852.4119 276.8513 851.9648 276.963 850.7353 276.7395 850.2882 275.3982 848.947 274.7276 848.947 274.057 849.9529 273.8334 849.3941 273.3864 848.7234 272.7157 848.2763 271.9333 848.0528 271.8216 847.6057 271.0392 844.9232 270.8156 844.8114 269.1391 843.3584 268.9155 843.0231 267.9096 843.0231 267.3507 842.9113 266.7919 842.576 266.3448 841.7936 266.3448 841.2348 266.9036 839.67 266.5683 839.3347 265.6741 839.4464 264.1094 840.0053 263.2152 840.0053 261.8739 838.8876 260.868 837.4345 260.7562 837.4345 259.7503 836.6521 257.9619 837.4345 256.8442 835.8697 254.497 834.752 248.5732 833.5226 245.7789 833.6343 244.8847 833.5226 244.2141 833.0755 243.767 832.6284 243.3199 832.4048 235.943 831.2871 232.031 831.2871 231.1369 831.5107 230.578 832.1813 230.1309 832.7402 229.125 833.299 227.8955 834.5285 226.8895 834.9756 226.1072 834.9756 225.3248 834.8638 223.9835 834.305 223.2011 833.7461 222.6422 833.1872 221.9716 832.6284 219.7362 832.2931 218.1714 831.3989 215.4889 830.9518 211.8004 829.6106 210.2356 829.2752 208.7826 829.4988 205.0942 830.6165 204.4235 830.9518 203.4176 830.393 198.835 830.1694 197.2702 829.9459 195.5936 830.0576 193.0229 830.6165 189.3344 831.3989 185.646 832.1813 181.9575 832.9637 178.1573 833.6343 174.4689 834.4167 170.7804 835.1991 167.092 835.9815 163.2917 836.7639 159.6033 837.5463 155.9149 838.3287 152.1146 839.1111 148.4262 839.7817 144.7377 840.5641 141.0493 841.3465 137.2491 842.1289 133.5606 842.9113 130.9899 843.4702 129.3133 843.4702 126.2955 844.1408 122.7188 844.8114 122.2717 843.582 122.16 842.4642 122.8306 841.123 120.8187 839.4464 119.1421 837.4345 117.3538 836.2051 116.1243 835.5344 114.8948 835.1991 111.9888 834.9756 110.5358 835.0873 109.0827 835.5344 107.5179 835.6462 106.0649 835.3109 105.059 834.0814 104.9472 832.8519 105.1707 831.3989 104.9472 829.9459 103.9413 828.9399 100.141 827.4869 98.0174 825.8103 95.8937 823.2396 94.3289 820.5571 93.6583 818.0981 93.0994 817.0922 89.411 813.1802 88.1815 812.3978 84.046 811.2801 78.7927 809.0447 76.4455 807.4799 72.9806 804.3503 70.2981 802.8972 69.1804 801.8913 68.398 800.5501 67.3921 796.3028 66.1626 793.8438 64.3743 791.4966 60.574 787.2493 59.3446 786.3551 54.0913 784.2315 53.0854 784.2315 52.5265 783.7844 52.1912 783.002 52.1912 781.4372 51.9677 780.7666 50.8499 779.5371 48.1674 778.6429 46.938 777.9723 46.1556 776.7428 45.1496 774.1721 38.8904 764.1127 38.2198 763.3303 37.4374 762.8832 35.9844 762.6596 35.5373 762.3243 35.0902 761.8772 34.5314 760.7595 33.0783 758.8594 32.5195 757.6299 31.7371 756.8475 29.3899 756.4004 29.0546 756.1769 28.3839 755.5063 27.9369 755.2827 27.7133 755.3945 27.378 755.7298 26.4838 755.9534 25.2543 756.4004 24.5837 756.5122 23.3542 756.0651 15.8656 749.9177 15.3067 748.6882 15.0832 747.1234 14.7479 745.8939 13.7419 745.3351 12.0653 745.1116 11.73 744.4409 11.9536 743.435 12.0653 742.2055 11.5065 740.8642 10.0535 738.4053 9.6064 737.2876 9.7182 735.7228 10.1652 734.0462 10.8359 732.4814 11.73 731.2519 11.8418 730.1342 10.3888 729.4636 7.5945 728.793 7.371 728.2341 7.371 726.2222 7.2592 725.4398 6.9239 724.9927 5.9179 724.0986 5.4708 723.5397 5.1355 722.1985 4.912 721.0807 4.6884 719.963 3.6825 718.6218 4.4649 718.7336 6.5886 718.6218 3.5707 713.7039 1.3353 710.7978 1.1118 708.8977 1.1118 707.4447 1.1118 701.9679 1.1118 696.1558 1 695.9322 1 691.9085 1 682.6315 1.1118 673.4662 1.1118 664.1892 1.1118 655.024 1.1118 651.0002 1.1118 648.3177 1.1118 646.4176 1.1118 642.8409 1.1118 629.2048 1.1118 615.6805 1.1118 602.1562 1.1118 588.5201 1 574.9958 1 561.4715 1 547.9472 1 534.4229 1 521.0103 1 507.486 1 493.9617 1 488.5967 1 480.5492 1 467.0249 1 453.6123 1 440.088 1 426.6755 11.73 426.6755 22.5718 426.6755 33.3019 426.6755 44.1437 426.6755 54.9855 426.6755 65.7155 426.6755 76.5573 426.6755 87.2873 426.6755 98.1292 426.6755 108.971 426.6755 119.701 426.6755 130.5428 426.6755 141.3846 426.6755 152.1146 426.6755 162.9564 426.6755 173.6865 426.6755 176.4807 426.6755 175.4748 423.4341 174.0218 420.6398 172.1217 418.0691 167.3155 413.1512 165.6389 410.6922 164.8565 407.7861 165.4154 404.3212 167.092 400.2975 168.7685 393.703 170.3333 387.4438 171.3393 384.873 175.2513 379.1727 178.1573 374.8136 178.9397 373.2488 179.1633 371.7958 178.2691 367.7721 177.9338 362.2953 177.0396 360.0598 174.8042 357.8244 173.0158 355.0301 172.457 351.0064 173.1276 338.5998 173.5747 327.1991 175.4748 322.84 175.5866 321.9459 175.2513 319.7105 174.8042 313.116 174.1336 310.9923 173.2394 309.3157 172.5688 307.5274 172.5688 305.292 173.0158 303.6154 174.5806 300.0387 176.9278 296.3503 177.3749 295.2326 177.3749 293.7795 177.1514 291.6559 177.1514 290.5382 177.3749 289.5322 178.2691 288.3028 180.9516 286.1791 181.8458 284.9496 181.734 283.8319 177.9338 275.3373 177.4867 273.1019 177.822 260.4717 176.1454 260.1364 175.5866 258.9069 176.0337 255.5538 175.9219 250.6359 176.2572 249.0711 176.8161 247.2827 176.4807 246.0532 174.8042 243.3707 174.2453 241.9177 173.6865 237.5586 176.5925 237.6704 180.7281 238.4528 184.4165 239.7941 186.4284 241.6942 186.4284 242.4766 185.8695 244.0414 185.8695 244.9355 186.0931 245.8297 186.6519 247.618 186.8755 248.624 186.6519 251.6418 187.3226 252.7595 188.9991 252.4242 190.7875 251.8653 192.2405 251.9771 195.4818 252.8713 197.1584 253.0948 200.3998 253.0948 201.9646 253.3184 203.9765 254.2125 206.4354 255.7773 208.6708 257.7892 209.6768 259.5776 209.3415 260.5835 208.6708 261.3659 208.0002 262.2601 207.8884 263.4895 208.4473 264.4955 209.9003 265.8367 210.4592 266.6191 210.9063 268.1839 211.018 269.9723 210.9063 271.8724 210.571 273.549 209.9003 275.002 207.1061 279.4728 205.9883 280.5905 202.4117 281.7083 201.2939 282.6024 201.9646 284.279 203.4176 284.9496 206.9943 284.9496 208.6708 285.1732 210.571 286.4026 213.477 289.0851 215.2653 289.9793 217.2772 290.0911 219.1773 289.7558 222.754 288.4145 223.6482 288.3028 224.6541 288.4145 225.5483 288.3028 226.1072 287.5204 226.4425 286.5144 226.7778 285.732 227.2249 284.9496 228.0073 284.279 228.7897 283.9437 230.8015 283.4966 231.6957 283.0495 232.4781 282.1553 234.1547 280.0317 235.0488 279.1375 238.402 277.7963 244.8847 277.6845 248.3496 277.0139 254.7206 273.7725 258.409 272.6548 261.7622 272.9901 274.1688 271.8724 279.3102 270.7547 287.5813 266.6191 290.3756 266.1721 291.3815 267.0662 291.6051 269.0781 291.4933 271.3135 291.6051 273.1019 291.6051 273.996 290.9344 274.5549 289.1461 275.3373 288.1402 276.1197 288.5872 276.9021 289.5932 277.5727 290.0403 278.3551 289.2579 280.0317 288.2519 280.8141 287.4695 281.82 287.5813 283.9437 288.2519 285.732 290.2638 289.1969 290.9344 290.7617 290.7109 291.6559 289.5932 292.9971 289.2579 293.8913 289.2579 294.6737 289.4814 296.2385 291.8286 303.5036 292.611 305.0684 293.2816 305.7391 293.9523 306.1861 294.7347 306.1861 295.7406 306.1861 296.9701 306.5215 297.5289 307.0803 297.8642 307.7509 298.6466 308.5333 303.6763 310.8805 305.1294 312.2218 305.3529 312.7806 305.3529 313.2277 305.3529 313.6748 304.5705 315.9102 305.1294 317.1397 306.4706 317.6986 308.1472 317.6986 308.9296 317.2515 309.4884 316.5809 310.0473 316.1338 311.165 315.9102 312.0592 315.6867 312.3945 314.7925 312.7298 313.8983 313.4004 313.3395 317.3124 313.4513 320.3303 315.3514 323.1245 317.9221 326.3659 319.8222 328.0425 320.1575 332.9604 320.1575 333.9663 320.0458 335.6429 319.2634 336.3135 319.0398 337.3195 319.2634 337.7666 319.5987 338.1019 319.934 342.7963 323.846 344.6964 324.5166 345.9259 325.5226 347.0436 328.2051 348.6084 328.9875 349.7261 329.0992 364.7034 328.8757 366.7153 329.6581 368.3919 330.7758 370.1802 331.5582 373.3098 331.4464 375.0981 332.2288 376.1041 332.3406 377.11 331.8935 378.7866 330.7758 379.6807 330.3287 382.9221 329.7699 386.2752 329.7699 388.2871 330.3287 389.8519 331.5582 391.1932 332.7877 392.758 334.0172 395.8876 335.1349 402.9292 335.582 406.1705 336.2526 407.8471 337.2585 409.3001 338.3762 410.8649 339.0469 412.5415 338.7116 413.8827 337.3703 414.8887 335.9173 416.2299 334.7996 418.4653 334.6878 422.4891 335.1349 426.1776 334.3525 429.5307 332.4524 432.5485 329.4345 434.3369 326.0814 434.6722 318.8163 435.4546 315.2396 436.7958 313.3395 438.1371 312.11 439.0312 310.7688 439.143 308.3098 438.1371 304.6213 438.0253 302.9448 439.2548 301.6035 439.9254 301.4917 441.8255 301.8271 442.7197 301.8271 446.0728 300.7094 449.7613 300.374 452.2202 299.4799 452.7791 299.3681 454.2321 301.4917 455.1263 305.5155 455.5734 309.8746 455.3498 312.8924 457.4735 320.6046 473.6803 330.664 477.8158 337.7056 478.1512 341.2823 482.3985 353.4653 483.7397 355.3655 488.4341 359.1657 488.8812 359.501 492.5696 363.6365 495.0286 364.4189 498.9406 364.7542 502.8526 364.6425 505.6469 363.8601 507.3234 362.5188 508.2176 361.4011 509.3353 360.6187 511.5707 360.8422 513.3591 361.5129 518.277 364.5307 519.5065 366.0955 519.8418 368.3309 520.4007 370.231 522.4125 370.7899 523.9773 370.5663 525.2068 370.4546 531.6895 371.1252 532.4719 371.5723 532.8073 372.3547 532.919 373.2488 533.3661 374.0312 535.4898 375.7078 536.7193 375.149 537.9487 373.9195 540.1842 373.3606 541.8607 374.0312 543.202 375.3725 544.655 376.3784 547.0022 376.3784 548.6788 376.1549 550.4671 376.2667 552.0319 376.7138 553.5967 377.6079 560.7501 383.8671 561.9795 385.7672 563.6561 390.2381 564.662 392.2499 567.6799 395.2678 568.574 396.9443 568.4623 399.2915 567.4563 400.7446 566.1151 401.7505 565.2209 403.0917 565.7798 405.3272 567.5681 407.6744 569.58 409.5745 570.9212 411.6981 571.1448 416.3925 572.1507 417.1749 573.3802 417.2867 574.7215 416.6161 575.6156 415.6101 576.8451 413.0394 577.9628 412.257 582.0983 413.1512 585.5633 416.7278 591.3754 424.44 592.9402 425.7813 593.6108 426.7872 594.3932 430.0286 594.7285 430.3639 595.8462 430.811 596.1815 431.1463 596.1815 431.5934 595.7344 432.5993 595.7344 433.0464 595.8462 433.3817 595.7344 434.3877 595.7344 434.8348 596.0697 435.1701 596.6286 435.3936 597.0757 435.5054 597.411 435.7289 598.1934 438.7468 599.0876 439.3056 600.7641 439.3056 601.5465 439.6409 602.5525 440.9822 605.235 454.1712 606.5762 457.8596 609.2587 460.4304 610.3765 461.8834 611.8295 462.2187 613.3943 461.8834 614.9591 461.2128 616.6356 461.2128 617.3063 461.2128 619.4299 460.8774 621.5536 460.8774 623.4537 461.7716 624.2361 462.8893 624.7949 464.2306 625.5773 465.2365 626.9186 465.5718 627.8128 465.013 629.4893 463.0011 630.7188 462.3305 632.6189 461.5481 637.6486 458.0832 649.9435 453.3888 651.7318 452.2711 656.7615 447.4649 658.7734 446.5707 660.7853 446.6825 662.4618 447.5767 663.9149 448.8062 665.5914 449.9239 666.5974 450.0356 667.3798 449.7003 668.0504 449.8121 668.8328 450.7063 669.0563 451.6004 668.9446 452.6064 668.6092 453.5006 668.1622 454.1712 667.4915 454.6183 665.9267 454.9536 665.3679 455.6242 665.2561 456.4066 665.3679 458.1949 665.2561 459.0891 664.6972 459.3127 663.9149 459.5362 663.2442 459.9833 663.2442 461.2128 663.5795 462.2187 664.0266 463.2246 664.5855 464.1188 665.3679 464.9012 666.7091 465.6836 668.4975 466.466 671.9624 467.3602 677.5509 467.4719 678.8922 467.2484 680.2334 464.4541 680.2334 454.5065 680.2334 441.2057 680.2334 428.5756 680.3452 415.2748 680.3452 399.6268 680.3452 386.3261 680.3452 371.5723 680.3452 361.1776 680.3452 351.677 680.3452 351.3417 680.3452 351.2299 676.6568 351.5652 674.7567 352.2359 671.8506 354.3595 667.268 356.4832 665.815 356.7067 664.9208 356.2596 663.356 354.6948 662.2383 354.2477 661.0088 354.2477 660.2264 354.5831 658.9969 355.8125 657.3204 356.8185 653.4084 358.1597 652.1789 359.1657 651.62 360.2834 650.5023 363.7483 650.167 365.7602 649.8317 366.5426 649.7199 367.325 650.0552 367.9956 652.626 371.3487 653.9672 371.9076 655.3085 372.0194 656.4262 372.4664 656.7615 374.0312 656.538 375.7078 655.6438 377.0491 654.3025 377.8315 652.626 377.9432 652.0671 377.8315 651.62 377.3844 651.3965 377.0491 650.8376 376.8255 650.2788 376.7138 649.0493 376.8255 648.4904 376.8255 646.1432 375.9314 642.5666 373.9195 641.8959 373.8077 638.431 373.6959 637.4251 373.5842 636.6427 373.2488 635.525 372.2429 633.9602 370.5663 633.066 370.1193 626.0244 370.231 623.9008 370.7899 622.0007 371.5723 620.5476 372.5782 619.6535 370.7899 618.2004 371.0134 616.7474 371.7958 615.5179 371.684 614.6238 371.237 613.9531 371.237 613.5061 371.0134 613.3943 369.7839 613.1707 368.8898 606.1292 355.8125 603.8937 353.0183 598.7523 350.1122 597.9699 349.1063 597.5228 347.4297 596.6286 345.7531 595.3991 344.3001 594.2814 343.2942 591.2636 341.6176 590.0341 340.7234 589.587 339.3822 589.2517 336.8114 588.4693 336.1408 585.4515 336.5879 583.6631 336.1408 579.4158 333.7936 578.1864 332.8994 576.7333 329.5463 575.5039 328.7639 573.492 329.8816 573.2684 329.0992 572.1507 327.3109 571.8154 326.8638 571.033 326.1932 570.2506 325.7461 569.3564 325.6343 568.127 326.305 567.2328 324.8519 566.5622 320.6046 565.4444 319.5987 564.1032 319.1516 563.3208 318.0339 562.5384 311.9982 562.2031 311.1041 560.9736 309.8746 560.4147 309.0922 560.7501 308.6451 560.7501 307.7509 559.297 302.4977 558.7382 301.7153 557.5087 300.374 556.8381 299.4799 555.8321 296.9091 555.385 296.1267 554.938 294.7855 554.8262 290.0911 555.0497 288.5263 559.5206 281.82 559.8559 281.4847 561.756 280.0317 562.2031 279.6964 561.5325 276.455 561.9795 274.4431 562.7619 273.2136 563.5443 272.2077 565.2209 268.8546 565.1091 265.8367 565.2209 264.9426 565.4444 264.3837 566.1151 263.266 566.3386 262.4836 566.3386 261.3659 565.4444 256.6715 565.4444 255.7773 566.6739 254.1008 567.7916 251.9771 568.127 250.9712 568.2387 250.077 568.0152 248.1769 568.127 247.2827 568.6858 246.5003 570.2506 244.9355 570.4741 243.9296 570.6977 243.0354 571.5919 241.2471 571.8154 240.2411 571.8154 236.3292 572.1507 234.3173 573.0449 232.1936 574.1626 230.4053 575.6156 228.8405 576.2862 227.9463 576.8451 226.0462 578.1864 223.8108 578.5217 223.3637 579.0805 223.1402 580.1982 223.2519 580.6453 223.0284 581.8748 222.1342 583.2161 220.793 584.3338 219.1164 584.7809 217.3281 584.3338 216.7692 582.3219 215.2044 581.8748 214.3102 581.9866 213.3043 582.4337 211.4042 582.4337 210.3982 580.31 207.9393 579.1923 206.3745 579.1923 205.145 579.5276 204.3626 578.857 203.0213 579.1923 202.1272 579.6394 201.3448 580.0865 200.3388 580.1982 199.2211 580.0865 198.2152 579.4158 196.4268 578.6334 195.0856 577.9628 193.5208 577.7393 191.2854 577.9628 189.3853 578.4099 188.044 578.7452 186.591 578.1864 184.9144 578.0746 184.9144 577.2922 184.3556 577.0686 184.2438 576.8451 183.7967 576.7333 182.7908 576.5098 182.4554 573.492 179.8847 574.3861 178.2081 576.5098 175.7492 577.851 173.0667 578.6334 169.6018 578.857 162.5602 578.1864 156.1892 578.6334 154.2891 581.316 148.5888 582.0983 144.7886 582.9925 143.2238 584.5573 142.5531 584.6691 142.2178 582.4337 139.8706 582.2101 138.5294 581.6513 137.9705 580.9806 137.747 580.0865 137.1881 578.857 135.3998 578.2981 133.7232 578.1864 129.5877 578.0746 128.5817 577.2922 126.7934 577.0686 125.8992 576.7333 124.7815 575.0568 122.8814 574.7215 122.099 575.1685 121.5402 577.1804 120.9813 577.7393 120.1989 574.945 120.3107 573.9391 119.8636 573.492 118.7459 573.492 117.1811 573.2684 116.0634 572.9331 115.0574 572.2625 114.1633 570.2506 112.5985 569.1329 111.5925 568.7976 110.2513 568.9094 109.0218 569.0211 107.3452 568.9094 105.6686 567.121 103.545 563.9914 101.8684 559.7441 100.9743 556.0557 99.5212 554.6026 96.3916 556.391 93.1503 560.0794 90.6913 568.0152 86.8911 576.0627 80.8554 590.4812 66.6605 601.6583 51.7949 604.8997 44.3063 605.3468 36.4823 601.5465 28.6583 601.323 26.9817 603.5584 26.0876 613.9531 24.5228 629.0422 22.1756 642.6783 20.0519 660.897 17.2576 662.3501 17.0341 685.4867 13.4574 708.5116 9.9925 726.0596 7.31 747.2961 4.0686 747.2961 6.8629 746.9608 8.0924 746.6255 9.0983 746.5138 10.1043 747.2961 11.1102 745.0607 11.7809 742.49 12.8986 740.1428 14.4634 738.3545 16.587 737.0132 19.3813 736.2308 22.6227 736.5661 25.5287 738.9133 27.3171 738.6898 29.2172 740.1428 29.8878 742.2664 29.6642 745.6196 28.2112 747.0726 28.6583 747.6315 29.8878 746.6255 31.5644 746.9608 31.8997 747.2961 32.7938 746.2902 33.2409 744.8372 34.3586 743.8312 35.2528 744.0548 35.6999 745.396 35.5881 746.6255 35.3646 748.5256 34.5822 750.2022 33.5762 752.1023 32.235 753.6671 30.5584 755.0084 28.5465 754.226 28.8818 753.7789 28.8818 752.6612 28.5465 753.22 27.4288 753.22 27.3171 753.8906 26.9817 754.673 26.87 756.5732 26.7582 757.2438 27.0935 757.2438 27.7641 756.9085 29.4407 757.132 30.6702 757.9144 30.782 758.9204 30.6702 759.9263 30.8937 760.2616 31.5644 760.5969 32.1232 760.8205 32.7938 761.6029 33.4645 763.2794 33.688 765.2913 33.5762 766.8561 33.688 767.5267 34.9175 768.1974 35.9234 772.3329 38.8295 786.8631 54.701 788.4279 54.9245 790.4398 53.9186 792.2282 52.6891 793.6812 52.0185 793.5694 51.2361 793.6812 50.4537 794.0165 49.8948 795.246 49.336 795.5813 48.7771 795.8048 48.2183 796.1402 47.8829 797.1461 46.877 797.705 46.7652 798.152 48.33 799.4933 49.336 799.7168 50.2301 800.8345 49.5595 801.6169 48.1065 801.9523 46.5417 802.064 45.0887 801.8405 44.418 801.0581 42.965 800.9463 42.4062 801.0581 41.8473 801.8405 40.5061 802.064 39.7237 801.6169 38.2706 799.4933 37.1529 799.158 36.2587 800.611 35.5881 802.6229 35.5881 803.6288 36.2587 805.3054 38.4942 806.1996 39.1648 807.3173 39.3883 808.0997 39.053 808.7703 38.6059 813.2411 37.0411 814.2471 36.8176 814.9177 36.5941 815.1413 36.2587 815.3648 36.147 816.1472 36.5941 816.4825 37.1529 816.8178 38.7177 817.0414 39.3883 818.2708 40.059 819.3886 40.1707 820.5063 40.059 821.8475 40.1707 823.1888 40.8414 825.0889 43.0768 826.4301 43.971 829.7833 44.8651 831.5716 46.3182 832.1305 48.5536 832.1305 51.9067 832.8011 55.5952 834.813 58.2777 843.1958 64.7604 844.6488 65.3193 846.3254 65.3193 848.1138 64.7604 851.1316 63.0838 853.1435 62.9721 866.1089 66.437 864.4323 70.0136 864.4323 74.3727 866.2207 77.8376 869.9091 78.7318 871.6975 77.9494 872.927 77.0552 874.38 76.4964 876.5036 76.8317 879.0744 78.2847 879.9685 78.5083 880.7509 78.3965 882.4275 78.0612 883.2099 78.0612 884.2158 78.62 884.9982 79.0671 888.2396 82.3085 889.9162 83.538 891.7045 84.2086 893.4928 84.4321 904.8935 84.2086 908.3584 85.1028 911.488 87.2264 912.4939 88.4559 914.1705 92.3679 915.4 94.3798 916.6295 95.1622 919.8708 95.3857 927.3595 97.0623 933.5069 97.6211 934.6246 98.18 935.8541 99.4095 936.1894 100.1919 936.413 101.4213 936.9718 102.092 937.5307 102.3155 939.0955 102.2037 939.7661 102.3155 943.7899 104.998 950.2726 107.457 951.6139 108.3512Z" />
</svg>