<?xml version="1.0" encoding="utf-8"?>
<svg xmlns="http://www.w3.org/2000/svg" viewBox="0 0 1021 897" style="stroke-width:0.25px;stroke-linejoin:round;stroke:#444;fill:#ddd" fill-rule="evenodd">
  <path class="Anseba" d="M384.2634 389.4289L386.9459 396.4705 390.6343 403.6239 404.4939 424.9722 413.3239 434.808 420.7008 441.2908 433.778 448.3323 440.149 452.4679 438.4724 454.4798 437.2429 455.2622 435.3428 455.9328 433.778 455.5975 358.4442 455.7092 358.1089 392.4468 359.8972 391.1055 361.1267 390.882 363.2504 391.2173 364.3681 391.8879 366.1564 393.3409 367.2741 393.4527 369.0625 393.1174 374.7628 391.1055 384.2634 389.4289Z" />
  <path class="Debub" d="M629.4893 487.7876L629.2658 488.9053 629.6011 493.8232 632.6189 508.9123 632.9542 515.395 632.2836 521.2072 629.9364 527.0193 616.4121 546.4674 608.8117 563.3449 601.2112 576.0868 600.9877 575.975 592.8284 570.61 583.3278 566.0274 576.2862 562.0036 568.7976 560.2153 563.7679 558.9858 556.0557 560.2153 553.932 559.6564 550.9142 560.7741 549.0141 562.786 546.7787 565.245 545.7727 566.3627 542.5314 565.6921 539.4018 565.1332 536.6075 565.9156 532.0249 569.8276 529.007 570.7218 528.8953 570.7218 527.3305 569.3805 526.5481 568.7099 525.8774 567.5922 525.8774 567.4804 524.2009 566.2509 523.1949 564.6861 522.3008 564.4626 521.5184 564.0155 520.736 563.1213 519.2829 562.6743 518.3888 561.8919 516.824 561.1095 516.0416 561.7801 515.4827 561.8919 513.6944 560.7741 513.6944 560.6624 513.1355 559.7682 512.2414 558.7623 512.0178 558.7623 511.7943 558.7623 511.0119 558.6505 510.7883 557.6446 509.8942 556.9739 509.1118 555.7444 508.5529 555.1856 508.2176 554.4032 507.3234 553.509 507.0999 552.2795 505.7586 551.8325 504.5292 551.6089 503.2997 551.4971 502.182 551.2736 501.2878 551.3854 500.2818 551.0501 499.2759 550.603 498.3817 550.603 497.7111 549.9323 496.8169 548.9264 496.4816 547.8087 495.3639 546.5792 494.5815 545.5733 493.9109 544.7909 493.5756 544.7909 493.4638 544.7909 492.905 544.7909 492.4579 544.5673 492.0108 543.8967 448.0847 467.6688 444.9551 460.2919 440.149 452.4679 433.778 448.3323 420.7008 441.2908 413.3239 434.808 404.4939 424.9722 390.6343 403.6239 386.9459 396.4705 384.2634 389.4289 379.1219 370.2043 365.8211 347.6265 363.4739 344.7205 361.5738 343.2674 341.0079 340.6967 333.8546 338.4613 326.813 335.5552 319.3243 330.4138 316.0829 326.1664 314.4064 320.9132 314.0711 308.0595 314.5182 304.1475 315.5241 301.3532 316.8653 298.7825 317.6477 296.5471 318.0948 293.5293 317.9831 289.8408 316.9771 285.1464 315.077 279.7814 310.7179 271.8457 306.9177 267.263 303.341 264.1334 299.8761 260.2215 298.4231 256.1977 296.0759 247.7031 294.2876 244.2382 291.2697 239.7673 289.9285 236.6377 288.9226 233.3964 288.0284 231.0492 286.3518 229.7079 251.7028 223.4487 247.9025 221.5486 244.5494 217.8602 243.5435 214.1717 244.1023 209.4773 246.226 199.1944 246.1142 194.0529 245.3318 190.8116 243.3199 188.0173 240.9727 185.4465 237.6196 181.0875 236.5019 177.8461 236.8372 174.0459 237.9549 170.6927 239.6315 162.8688 242.2022 97.7062 241.0845 79.8228 240.8609 78.258 240.9727 78.1462 244.5494 76.805 248.0143 76.9167 249.132 78.0344 249.2438 79.1521 249.3556 80.7169 249.4673 82.7288 249.4673 84.0701 249.4673 84.4054 249.4673 87.3114 250.2497 87.4232 251.3674 87.535 252.0381 87.6468 252.5969 87.6468 253.4911 87.7585 254.3853 87.9821 255.2794 88.4292 254.7206 86.3055 254.6088 85.9702 255.0559 85.5231 256.6207 82.5053 256.7325 80.8287 256.2854 79.711 256.1736 78.7051 256.8442 77.252 257.7384 77.1403 263.1034 75.3519 265.5624 76.9167 267.7978 79.2639 270.4803 80.9405 274.1688 80.3816 276.7395 77.8109 276.963 75.5755 277.2983 75.4637 277.8572 75.2402 278.1925 75.0166 278.9749 74.5695 279.1985 72.2223 279.9809 71.7752 280.6515 69.6516 280.7633 69.3163 280.9868 67.3044 281.3221 65.2925 287.8048 62.0512 288.699 61.3805 291.158 60.7099 292.8345 57.1332 292.611 56.9097 295.07 52.8859 296.2994 49.5328 297.1936 48.4151 297.7525 46.7385 297.7525 45.8443 304.2352 28.408 308.4825 22.2606 330.0543 4.0419 330.3897 5.7185 331.8427 7.395 332.9604 12.313 339.4431 21.59 339.8902 23.1548 340.1138 26.3961 340.4491 28.0727 343.1316 31.9847 343.6904 32.8789 344.3611 35.6732 358.6678 57.5803 369.286 82.3935 379.7925 100.9475 383.481 114.4718 385.2693 117.6014 383.3692 123.7488 386.1635 128.555 390.4108 132.9141 392.5344 137.832 393.3168 143.9794 394.5463 149.2327 399.1289 158.6215 399.7996 161.751 400.2466 168.122 401.029 171.3634 403.3762 175.946 404.2704 182.4287 405.0528 185.1112 410.0825 196.6237 413.3239 209.0303 411.2002 207.9125 414.3298 214.9541 415.1122 218.419 415.4475 223.1134 412.6532 226.0195 415.0004 233.2846 414.3298 237.3084 413.3239 236.3024 413.5474 238.7614 415.0004 239.432 416.677 239.432 417.4594 239.9909 417.2359 245.4677 417.4594 246.9207 418.0183 248.3737 418.6889 249.6032 419.2477 251.0562 419.5831 252.9563 419.3595 259.2155 419.5831 261.2274 420.0301 262.6804 421.4832 265.2512 421.7067 267.1513 421.4832 269.1631 420.589 273.0751 420.589 275.3106 425.2834 295.8765 425.8422 302.918 426.4011 305.2652 429.9778 313.201 435.231 333.7669 438.2488 339.2437 447.3023 344.8322 448.6436 347.2912 449.873 348.2971 455.4616 350.8679 457.0264 352.2091 457.0264 354.221 456.3558 356.0094 455.3498 357.5741 454.9028 359.2507 455.3498 361.0391 457.5853 363.3862 458.0323 364.6157 458.2559 368.863 459.0383 371.322 463.1738 376.0164 460.6031 376.2399 458.8147 377.8047 458.1441 380.0402 459.0383 382.6109 459.7089 381.1579 461.0502 379.5931 462.7267 378.9224 464.2915 380.2637 463.9562 383.2815 460.9384 384.7345 457.5853 385.1816 455.9087 385.1816 456.244 386.6347 459.0383 391.1055 459.7089 396.3587 460.0442 397.5882 462.2796 398.3706 465.7446 398.7059 469.0977 398.2589 470.5507 397.0294 471.6684 395.1293 474.4627 394.7939 477.4805 395.3528 479.8277 396.4705 483.4044 401.3884 491.4519 427.2076 492.0108 427.7664 494.9168 428.8842 495.4757 429.443 495.9228 432.2373 496.8169 434.808 498.0464 437.0435 499.723 438.6083 497.4876 447.2146 496.7052 460.7389 497.0405 461.2978 498.3817 462.4155 498.7171 462.9744 499.2759 465.3216 500.7289 466.551 502.7408 466.6628 504.8645 465.5451 506.4293 468.5629 508.1058 469.01 510.5648 468.2276 513.8062 467.7805 514.9239 466.8864 515.7063 465.098 516.0416 463.0861 515.9298 461.8567 515.1474 460.4036 515.7063 459.2859 517.4946 458.0564 520.4007 452.8032 520.736 449.7854 517.7182 444.4204 516.0416 438.1612 514.8121 435.9257 512.8002 435.814 511.5707 438.2729 510.5648 439.6142 509.2235 436.3728 508.8882 433.355 509.2235 425.1957 509 423.4074 508.2176 420.3895 508.1058 418.713 508.4411 416.7011 509.2235 416.1422 510.3413 415.8069 511.1237 414.801 512.2414 409.436 513.2473 407.8712 515.371 409.436 516.3769 409.436 516.4887 408.2065 517.4946 405.1887 518.5006 405.1887 518.5006 405.6358 518.5006 407.2006 520.1771 405.8593 522.189 402.5062 523.5303 400.7178 525.7657 404.8534 528.7835 408.0947 543.3138 420.166 545.5492 421.2837 549.0141 422.0661 550.2436 422.5132 551.6966 423.5191 553.4849 424.9722 554.6026 426.537 555.1615 428.2135 554.8262 429.8901 553.7085 431.7902 551.026 433.9139 549.6847 435.3669 548.7905 436.9317 546.5551 442.8556 548.2317 442.632 549.5729 443.0791 550.3553 443.9733 550.6906 445.6498 550.3553 446.0969 548.7905 446.6558 548.567 447.2146 548.7905 447.8853 549.5729 448.5559 549.6847 448.8912 550.4671 450.2325 554.0438 452.915 554.8262 454.2562 555.2733 456.2681 557.2851 460.2919 557.9558 462.4155 557.844 464.0921 557.5087 466.2157 557.2851 468.2276 557.9558 470.016 559.8559 469.2336 561.9795 469.6806 563.6561 470.9101 564.3267 472.4749 564.5503 473.8162 565.2209 474.1515 565.8915 474.2633 566.3386 475.2692 566.2268 476.7222 565.4444 479.0694 565.2209 480.1871 566.6739 482.9814 570.2506 484.7697 581.4277 488.7935 583.8867 489.9112 585.0044 490.9172 586.1221 493.7114 588.3575 493.2644 591.8224 490.2465 595.2873 488.9053 597.6345 485.7757 599.5347 482.199 601.7701 479.6283 601.5465 482.0872 602.1054 484.3227 603.4466 485.4404 605.9056 484.9933 606.7998 483.652 606.4645 481.8637 606.688 480.2989 609.4823 479.6283 611.0471 479.5165 611.4942 479.4047 613.1707 480.6342 612.8354 481.1931 612.5001 482.3108 612.8354 483.3167 614.7355 483.8756 615.8532 484.3227 616.3003 485.2168 616.8592 485.9992 618.3122 486.111 619.3182 485.5521 620.2123 484.7697 620.9947 483.7638 621.5536 482.8696 620.7712 481.6402 620.4359 480.2989 620.4359 477.3928 621.2183 478.1752 622.0007 479.8518 622.5595 480.6342 626.695 481.6402 627.0304 482.9814 626.9186 484.4344 626.9186 485.7757 627.701 487.1169 628.9305 487.8993 629.4893 487.7876ZM601.2112 379.146L603.4466 379.2578 604.229 379.5931 605.4585 385.964 604.4526 388.7583 602.3289 389.9878 599.1993 388.423 598.0816 388.1994 596.6286 387.8641 589.3635 389.6525 586.1221 389.876 582.8807 388.7583 577.6275 386.1876 574.1626 385.7405 566.5622 387.3053 565.1091 387.0817 564.3267 386.8582 563.6561 386.2993 562.7619 385.1816 562.2031 384.2875 561.756 384.0639 561.1971 383.5051 561.1971 383.3933 559.7441 386.0758 558.0675 387.4171 555.4968 387.6406 551.6966 386.8582 545.5492 384.3992 544.7668 384.2875 542.7549 383.8404 539.29 384.6228 537.9487 382.8344 537.0546 381.4932 533.0308 369.5337 534.7074 369.5337 535.8251 369.869 535.9369 370.5396 535.9369 370.6514 535.0427 371.6573 536.2722 372.4397 537.1663 373.3339 537.5017 374.0045 537.837 374.5634 538.1723 376.0164 539.29 376.0164 540.743 375.4575 542.7549 376.2399 544.8785 377.4694 546.5551 378.14 548.4552 378.0283 554.8262 376.0164 552.0319 370.9867 548.3435 366.8512 543.8726 364.0569 538.7311 363.0509 533.7014 364.1686 531.9131 363.6098 530.9072 360.8155 531.1307 357.6859 532.4719 355.8976 534.3721 355.674 538.0605 358.0212 538.9547 358.6919 540.9666 358.8036 541.5254 357.5741 539.7371 354.8916 538.9547 352.2091 538.7311 351.6503 541.749 350.1972 545.7727 349.8619 547.3375 349.9737 547.5611 349.9737 548.2317 347.9618 547.2257 345.5029 545.4374 343.3792 543.8726 342.3733 538.6194 342.7086 536.9428 341.9262 535.0427 339.2437 540.6312 339.6908 546.4433 341.032 552.0319 343.2674 555.385 345.5029 556.391 346.1735 557.844 348.4089 558.5146 349.5266 557.7322 351.8738 556.1674 353.5504 555.9439 355.3387 557.0616 356.5682 558.5146 356.5682 559.8559 356.0094 561.1971 355.3387 560.8618 354.7799 560.1912 353.6622 560.0794 352.6562 561.6442 352.2091 563.209 353.1033 563.5443 355.1152 563.6561 355.3387 562.7619 368.0806 563.0972 370.5396 563.9914 372.3279 564.1032 372.775 566.7857 377.3576 567.3446 378.6989 568.9094 378.8107 577.7393 381.3814 580.0865 377.0223 580.9806 376.0164 582.2101 375.6811 580.1982 374.8987 577.0686 374.0045 575.8392 372.2162 576.9569 370.4278 579.6394 369.5337 583.1043 369.3101 586.1221 369.5337 587.9105 369.869 589.2517 370.3161 589.8106 370.6514 590.3694 370.8749 591.3754 371.6573 591.9342 372.8868 592.1578 374.3398 592.6048 375.4575 593.9461 376.0164 596.0697 376.4635 599.1993 378.6989 601.2112 379.146ZM556.9498 314.9893L554.7144 317.113 554.2673 319.4602 555.1615 320.3543 556.5028 321.1367 557.6205 322.1427 559.1853 323.2604 559.8559 324.7134 557.1734 325.4958 552.7025 324.0428 549.0141 321.9191 542.5314 321.2485 540.9666 319.6837 540.9666 317.113 542.196 314.654 544.8785 313.6481 548.3435 313.3128 549.6847 312.4186 549.1259 311.1891 548.7905 309.6243 548.7905 307.9477 549.0141 306.1594 550.1318 305.4888 554.0438 308.6184 555.1615 309.1772 556.6145 309.6243 559.4088 310.8538 560.5265 312.6421 559.5206 314.0952 556.9498 314.9893Z" />
  <path class="Debubawi Keyih Bahri" d="M601.2112 576.0868L608.8117 563.3449 616.4121 546.4674 629.9364 527.0193 632.2836 521.2072 632.9542 515.395 632.6189 508.9123 629.6011 493.8232 629.2658 488.9053 629.4893 487.7876 629.7129 487.7876 630.4953 487.3405 631.8365 487.1169 634.6308 487.564 636.0838 488.2347 636.7545 489.6877 637.3133 495.8351 637.8722 497.1763 642.2312 498.9647 641.5606 496.2822 642.7901 495.4998 646.9256 495.7233 648.0433 496.5057 648.4904 497.847 647.708 498.7411 645.3608 497.847 644.4667 498.9647 651.7318 506.5651 651.7318 506.2298 652.2906 505.8945 652.9613 506.2298 653.7437 507.5711 653.9672 508.6888 653.7437 513.0479 652.5142 516.6245 652.5142 518.3011 653.7437 520.4248 657.6557 523.219 658.8851 525.0074 658.8851 528.0252 660.5617 527.0193 662.0147 526.3486 663.5795 526.2369 665.2561 526.7957 665.2561 523.7779 668.721 525.3427 676.8803 525.0074 681.3512 527.4663 686.0455 530.8195 690.2928 532.049 700.5758 532.3843 718.1239 536.408 719.8004 537.1904 721.7006 539.5376 724.1595 545.3497 726.1714 548.0322 732.8777 552.7266 737.3485 555.968 741.037 560.4388 743.3842 565.8039 744.2783 571.616 745.396 574.0749 747.9668 575.6397 750.4257 576.7574 751.6552 578.0987 752.3259 579.2164 755.1201 582.7931 757.132 589.0523 760.2616 592.8525 767.3032 598.9999 771.2152 603.5825 772.5564 605.8179 773.5624 608.6122 774.7919 613.7537 775.4625 615.6538 776.692 617.3304 778.8156 618.8952 783.8453 622.0248 786.4161 624.2602 788.7633 627.0545 794.24 637.5609 795.9166 644.0437 797.1461 646.3909 806.8702 649.2969 808.8821 649.4087 813.8 647.6204 815.7001 647.285 816.8178 648.0674 819.8356 653.2089 822.2946 655.7796 823.4123 656.4503 825.536 656.8974 827.2125 656.8974 830.5657 656.0032 831.7952 655.8914 834.3659 656.8974 839.7309 660.474 841.7428 661.2564 843.4194 662.4859 844.2018 665.2802 844.6488 668.5216 845.3195 670.8688 851.5787 675.7867 852.5846 677.9103 853.2552 677.9103 856.7201 682.7165 857.8378 684.8402 858.1732 685.0637 859.5144 685.6226 859.8497 685.8461 860.5204 687.6344 861.4145 691.0993 862.5322 692.7759 864.097 693.223 865.9971 692.5524 867.5619 691.6582 868.1208 691.77 868.6796 692.7759 871.3622 694.5642 872.3681 695.4584 872.927 696.9114 873.8211 700.4881 874.38 701.8294 877.9567 704.5119 878.5155 704.7354 879.1861 706.8591 880.3039 706.8591 881.3098 705.8531 881.198 705.2943 880.4156 704.7354 878.1802 701.8294 877.7331 700.9352 877.3978 700.5999 876.9507 700.3763 876.5036 699.8175 876.5036 698.6998 876.9507 698.588 879.0744 698.6998 879.6332 698.6998 879.745 694.5642 877.6213 692.7759 875.0506 691.4347 871.8092 691.2111 870.5798 690.764 871.0268 689.8699 872.3681 689.0875 874.38 689.0875 879.6332 693.3348 885.2218 700.8234 887.3454 701.8294 890.1397 703.6177 891.1457 707.4179 891.0339 713.7889 892.8222 718.9304 894.1635 721.3893 895.7283 722.3953 897.2931 724.0718 898.4108 728.0956 900.758 746.0908 902.8816 749.7792 903.664 757.3796 903.5523 758.162 903.9993 758.6091 908.582 761.4034 911.8233 762.2976 918.7531 762.9682 921.6592 762.4094 923.4475 760.9563 924.4535 758.9444 925.4594 756.5972 927.4713 757.0443 928.0301 757.9385 928.0301 759.2798 928.589 760.8446 929.4832 761.627 930.6009 762.1858 931.3833 762.9682 931.7186 764.533 932.9481 766.6567 940.5485 773.1394 945.9135 781.9693 947.8136 783.3106 950.8315 783.7576 953.4022 784.8754 955.4141 786.4402 957.2024 788.1167 958.4319 790.4639 959.8849 799.2938 962.3439 804.8824 962.9028 807.9002 963.3498 812.2593 963.9087 814.7183 965.0264 816.3948 967.1501 816.9537 969.1619 816.2831 971.1738 815.1653 973.2975 814.3829 975.3094 818.5185 978.3272 821.0892 982.4627 822.4305 987.9395 822.7658 987.1571 823.5482 985.8158 825.8954 987.2689 826.0072 988.4983 825.6718 989.9514 824.8894 989.8396 824.6659 992.6339 822.8776 993.081 822.7658 994.8693 820.7539 996.3223 818.5185 996.6576 817.0655 996.6576 816.0595 996.8812 815.1653 998.3342 814.3829 997.44 812.8182 997.2165 811.2534 997.5518 809.9121 998.3342 808.7944 1002.6933 812.1475 1004.8169 814.2712 1005.5993 815.836 1006.27 817.5125 1007.9465 818.742 1009.8466 819.9715 1011.4114 821.201 1012.4174 823.2129 1012.6409 827.9073 1012.9762 830.2545 1017 837.6314 1016.1058 838.7491 983.1333 853.0558 981.5685 853.1675 979.6684 851.7145 978.3272 851.491 975.7564 853.7264 972.1798 862.221 965.5853 868.4802 966.1441 873.0628 967.5971 877.9807 966.703 882.2281 964.8029 883.234 960.2202 884.0164 958.9908 885.4694 956.8671 888.4872 952.0609 889.8285 951.3903 890.052 949.3784 892.9581 925.5712 871.7216 918.5296 868.592 914.5058 867.4743 911.8233 868.0331 905.6759 874.5158 899.6403 868.3684 894.4988 865.7977 884.3276 851.8263 874.38 834.8371 867.2266 828.5779 859.8497 824.4424 858.9556 823.5482 857.0554 821.3128 854.9318 818.8538 853.9259 817.7361 852.8081 815.836 851.4669 813.1535 849.455 808.9062 847.8902 805.6648 845.9901 803.4294 844.2018 799.6292 842.1899 795.9407 835.7072 788.6756 834.4777 787.2226 828.7773 780.2927 827.8832 779.2868 813.9118 765.986 806.4231 757.2679 800.0521 751.1205 793.3459 744.6377 787.3102 739.0492 782.2805 733.1253 775.1272 725.7484 764.1736 715.0184 761.1558 712.2241 758.0262 709.4298 751.8788 704.2883 747.6315 700.041 742.0429 694.8996 738.578 689.8699 735.3366 685.7343 732.4306 682.0459 727.1773 676.5691 723.4889 673.3277 720.024 669.9746 709.5175 659.3563 706.1644 656.115 696.7756 647.6204 689.9575 641.6965 680.1217 633.0901 669.0563 620.46 659.7793 613.8655 654.7496 611.8536 644.4667 603.6943 644.0196 603.9178 644.4667 603.6943 641.3371 601.1235 637.8722 598.6646 625.3538 589.8347 610.0411 580.1106 604.229 577.5398 601.2112 576.0868Z" />
  <path class="Gash Barka" d="M81.2517 256.1977L82.9283 258.7684 84.1578 262.1216 85.1637 266.3689 86.1696 275.087 87.1756 278.999 88.1815 281.458 89.1875 283.1345 90.4169 284.2523 91.7582 285.2582 92.9877 286.5994 94.2172 288.3878 96.3408 293.3057 97.3468 294.8705 99.4704 296.1 102.9353 297.4413 117.242 300.7944 124.9542 303.4769 134.343 309.289 140.1551 315.1011 144.8495 322.2545 147.6438 328.9607 150.2145 332.6492 153.1206 334.8846 158.3738 336.4494 163.0682 338.4613 165.8625 340.3614 166.9802 341.9262 167.2037 343.3792 167.092 344.8322 168.2097 345.9499 170.4451 346.8441 181.5105 346.7323 192.2405 345.2793 196.4878 345.3911 200.7351 346.397 206.1001 349.1913 210.4592 352.2091 213.5888 353.8857 217.0537 354.5563 222.3069 354.7799 226.3307 355.3387 231.3604 356.7917 240.0785 360.7037 254.9441 370.7631 257.6266 371.7691 261.5386 371.4338 264.78 370.2043 273.1628 366.0688 276.8513 364.8393 280.9868 364.951 286.0165 366.4041 293.1699 371.0985 298.3113 376.1282 302.3351 381.7167 306.4706 389.876 309.712 392.2232 314.7417 393.5645 342.5727 394.3469 358.1089 392.4468 358.4442 455.7092 348.273 454.4798 343.4669 455.2622 337.2077 457.9447 324.1305 461.0743 310.4944 462.192 308.3707 462.6391 306.0235 463.5332 303.341 465.3216 297.5289 471.8043 294.1758 477.5046 291.9404 480.4107 289.8167 482.3108 284.1164 484.5462 280.7633 486.5581 278.0807 489.0171 276.6277 491.1407 274.3923 497.3999 271.598 503.1002 271.0392 505.8945 271.2627 509.5829 272.3804 514.0538 277.0748 524.6721 277.8572 530.3724 277.2983 531.7136 276.8513 531.1548 275.6218 530.7077 274.7276 529.9253 273.3864 529.4782 272.3804 529.9253 272.1569 529.9253 271.1509 529.4782 270.7039 529.4782 270.5921 529.3664 270.0332 529.4782 268.8037 529.3664 268.2449 529.2547 267.1272 529.0311 267.1272 529.1429 266.9036 529.3664 258.9679 530.8195 258.7443 530.7077 258.0737 530.1488 257.9619 530.1488 256.956 529.8135 256.1736 529.1429 255.2794 528.8076 254.8323 528.0252 254.7206 527.6899 254.0499 527.2428 253.7146 527.2428 253.1558 527.0193 252.5969 526.2369 252.3734 526.2369 252.1498 526.1251 251.8145 526.0133 250.4733 526.1251 249.4673 525.7898 248.4614 525.5662 247.5672 525.5662 246.7848 525.5662 245.7789 525.2309 244.7729 524.6721 244.4376 524.3367 243.9905 523.7779 243.2081 522.8837 242.4257 522.2131 241.9787 521.8778 241.4198 521.5425 241.4198 521.3189 241.308 520.6483 241.7551 519.5306 241.9787 518.6364 241.8669 518.4129 241.7551 517.7422 241.0845 517.0716 240.1903 516.9598 239.5197 516.8481 239.4079 516.8481 239.1844 516.0657 238.6255 515.395 237.8431 515.7304 237.5078 514.8362 237.6196 513.6067 237.5078 512.8243 237.1725 511.5948 236.8372 510.3653 235.8312 510.8124 235.3842 511.036 234.8253 511.3713 234.8253 510.1418 234.8253 510.03 234.8253 508.8006 234.6018 507.6828 234.2664 506.7887 232.4781 506.4534 231.6957 506.4534 231.6957 506.3416 231.6957 506.118 231.5839 505.671 231.2486 505.4474 231.0251 505.671 230.8015 505.8945 230.3545 506.0063 230.1309 505.1121 230.0191 504.8886 229.5721 504.4415 227.8955 506.4534 226.666 504.1062 224.8777 501.4237 222.1952 499.0765 217.5008 510.4771 215.8242 509.5829 213.2535 510.8124 209.0062 516.5128 205.5413 521.766 204.3118 527.5781 204.5353 530.7077 205.653 534.5079 204.3118 538.1964 201.1822 536.2963 199.3938 536.2963 196.7113 539.3141 195.4818 542.5554 194.5877 544.7909 193.2464 546.3557 192.7993 548.8146 191.3463 551.4971 189.8933 554.4032 189.2227 554.962 188.8873 555.2974 188.6638 557.9799 186.6519 559.5447 186.3166 559.5447 184.5283 560.1035 184.3047 560.1035 183.8576 560.2153 179.1633 561.6683 178.4926 561.8919 177.2631 562.2272 174.3571 563.6802 173.7982 565.6921 173.2394 565.8039 171.6746 566.1392 171.2275 566.4745 170.3333 567.0333 170.1098 567.1451 166.5331 564.9097 166.086 564.9097 163.8506 564.7979 161.0563 562.8978 160.6092 563.0096 160.0504 563.1213 159.8268 563.2331 158.3738 563.5684 156.1384 563.3449 155.9149 563.3449 154.6854 563.3449 154.1265 563.3449 154.0147 563.2331 153.903 562.8978 153.6794 562.2272 152.0029 561.7801 151.6675 561.8919 149.6557 562.6743 149.4321 562.786 148.0909 563.2331 147.9791 563.3449 147.3085 564.7979 144.0671 569.9394 143.62 570.1629 143.2847 570.61 142.9494 571.3924 142.6141 571.2806 142.167 571.3924 141.6081 572.1748 141.1611 571.8395 140.714 571.8395 140.1551 572.2866 140.0433 572.3983 139.8198 572.2866 139.4845 572.063 139.4845 571.8395 139.2609 571.9513 139.1492 572.063 138.0315 570.2747 135.1254 568.5981 131.437 565.3568 129.3133 565.6921 125.9602 566.8098 114.7831 566.5862 109.5298 567.8157 105.1707 571.0571 102.8235 574.522 101.5941 577.5398 101.147 580.7812 101.0352 584.5814 100.5881 587.8228 99.4704 590.3935 97.7938 592.4054 95.8937 593.6349 94.776 593.9702 91.9817 593.6349 90.7523 593.6349 88.5168 595.535 87.6227 595.8703 86.0579 595.6468 84.7166 595.1997 84.2695 594.9761 84.046 594.4173 83.9342 594.082 82.9283 593.1878 82.1459 592.0701 81.1399 591.623 80.8046 591.623 79.5751 589.9464 78.681 589.2758 73.6513 588.6052 63.8154 585.6991 58.8975 585.0285 48.5028 585.0285 47.0497 585.3638 44.5908 586.9286 43.2495 587.2639 36.4315 587.2639 33.4136 587.8228 31.0664 588.8287 30.8429 588.8287 30.3958 588.8287 29.3899 589.0523 29.2781 589.0523 29.1663 589.7229 28.7193 589.9464 26.5956 590.5053 23.3542 590.6171 20.7835 591.1759 18.8834 592.7407 18.3245 594.1937 18.101 594.6408 17.6539 594.082 14.6361 585.252 14.5243 584.6932 14.4125 584.1343 14.0772 583.1284 14.0772 582.5695 14.0772 581.0047 11.6183 554.8503 10.9476 548.0322 9.3828 530.0371 6.365 499.4118 4.5767 480.8578 4.5767 480.6342 3.7943 475.4927 3.6825 473.4809 1.4471 459.0624 1 456.1563 11.8418 445.4263 12.0653 445.2028 15.9773 444.1968 16.0891 444.085 17.9892 439.2789 18.2128 438.6083 18.4363 438.6083 25.5897 419.8307 27.4898 414.9128 29.2781 410.6655 29.9487 409.1007 29.9487 408.9889 30.9547 407.6476 31.9606 405.0769 31.8488 403.6239 31.8488 403.5121 31.7371 401.9473 31.6253 401.3884 30.8429 400.0472 32.1842 396.1352 32.1842 395.9117 32.9666 393.5645 35.7608 385.2934 38.7787 375.1222 39.114 374.1163 42.1318 363.9451 42.8024 361.9332 43.9201 360.1449 45.7085 357.1271 48.2792 353.3268 48.5028 352.8798 49.6205 351.0914 49.7322 350.8679 51.0735 348.856 51.5206 348.4089 54.3149 339.9143 59.3446 325.7194 60.4623 321.5838 61.58 317.3365 63.8154 311.0773 64.486 309.4008 64.486 309.1772 65.0449 307.2771 65.6037 305.7123 68.398 296.2118 69.404 293.3057 71.8629 289.1702 78.2339 282.4639 79.7987 278.4402 79.7987 277.9931 80.134 277.6578 81.0282 277.0989 81.2517 276.9871 81.0282 275.9812 80.9164 275.8694 80.8046 275.8694 80.2458 275.7576 79.4634 275.7576 79.4634 275.087 79.1281 274.3046 79.1281 274.1928 79.2398 273.7458 78.7927 272.2927 78.0103 271.6221 78.0103 269.6102 77.675 269.3867 77.5633 269.0514 76.8926 267.9337 76.7809 267.5983 76.7809 266.0336 79.3516 264.6923 79.4634 264.0217 79.5751 263.9099 79.5751 263.2393 79.7987 261.7862 80.9164 257.4272 81.0282 256.7565 81.2517 256.1977Z" />
  <path class="Maekel" d="M440.149 452.4679L444.9551 460.2919 448.0847 467.6688 492.0108 543.8967 492.4579 544.5673 491.899 544.232 491.3402 544.3438 490.446 544.5673 489.3283 544.1202 488.3223 543.6732 487.4282 543.2261 486.8693 542.5554 486.0869 541.6613 485.6398 539.8729 485.4163 538.5317 485.1927 537.3022 484.5221 536.9669 483.4044 536.1845 482.622 535.6256 481.8396 534.8432 481.0572 533.9491 480.3866 533.2784 479.4924 532.8314 478.71 532.3843 477.9276 532.049 477.1452 532.049 476.1393 532.049 475.0216 532.1607 474.0156 532.049 473.2332 531.9372 472.2273 532.049 471.1096 531.8254 469.9919 531.3783 469.0977 530.9312 468.9859 530.9312 468.7624 531.043 468.4271 531.3783 468.3153 531.4901 468.0917 531.7136 466.974 530.9312 466.6387 531.9372 466.527 532.9431 466.0799 534.5079 465.7446 534.955 465.4092 535.2903 465.4092 535.4021 465.0739 535.6256 464.7386 535.8492 464.5151 536.6316 464.6268 537.8611 465.0739 539.0905 464.4033 540.2083 463.8444 541.4377 463.1738 542.4437 463.1738 543.3378 463.7327 543.8967 464.4033 544.6791 465.2975 545.7968 465.521 547.0263 465.7446 548.5911 466.0799 549.8206 466.3034 550.7147 466.6387 551.8325 466.4152 552.8384 464.9622 554.8503 461.8326 556.3033 461.8326 556.1915 460.7149 556.6386 460.3795 557.0857 459.8207 557.421 459.2618 556.9739 459.2618 555.6327 459.4854 554.515 458.3677 554.8503 458.2559 554.8503 457.1382 555.4091 457.0264 555.5209 456.6911 555.6327 456.3558 555.2974 455.7969 554.962 455.7969 554.8503 455.6851 554.4032 455.6851 553.8443 455.2381 553.8443 454.3439 553.8443 453.2262 553.8443 452.2202 553.1737 451.9967 553.0619 451.1025 552.7266 450.2084 552.8384 449.9848 552.8384 449.2024 553.0619 448.9789 553.0619 448.8671 553.0619 448.1965 552.9502 447.5259 552.9502 446.6317 552.7266 445.9611 553.3972 446.4081 554.515 446.6317 555.7444 445.9611 556.8622 445.9611 557.7563 446.7435 558.7623 446.967 559.5447 445.9611 559.3211 444.9551 558.6505 444.2845 557.8681 443.2785 557.421 442.2726 556.8622 441.602 557.5328 440.7078 558.2034 439.8136 558.9858 439.8136 559.6564 439.7019 559.7682 439.7019 559.88 440.149 560.7741 440.3725 560.9977 435.1193 560.2153 431.4308 560.7741 429.3072 562.6743 426.0658 568.0393 424.8363 568.0393 424.6128 567.5922 424.501 566.698 424.1657 565.9156 424.1657 564.7979 423.9421 563.5684 423.8304 563.2331 423.8304 562.1154 423.1597 561.333 422.7127 560.6624 422.2656 559.7682 422.8244 559.5447 423.495 559.3211 423.6068 559.0976 423.9421 558.6505 424.501 557.8681 425.1716 556.8622 425.7305 555.6327 425.8422 553.8443 425.8422 552.3913 426.0658 552.1678 426.5129 551.6089 426.8482 551.1618 426.96 550.3794 427.0717 549.9323 426.7364 549.1499 426.8482 548.3675 426.0658 548.0322 425.6187 548.0322 424.9481 548.0322 424.2774 547.3616 424.1657 546.2439 423.8304 545.3497 423.3833 544.3438 422.8244 543.3378 422.1538 542.4437 421.5949 541.773 421.0361 541.2142 420.1419 540.8789 419.0242 540.4318 417.5712 540.0965 416.3417 539.8729 414.5534 539.7612 410.8649 540.5436 410.6414 540.6553 409.5237 540.8789 407.8471 540.2083 407.7353 539.9847 407.2882 539.4259 406.3941 538.3081 405.3881 537.7493 404.4939 537.8611 403.8233 537.7493 402.8174 537.3022 402.7056 537.414 402.035 537.0787 397.6759 536.0727 392.3109 535.5139 392.0873 534.955 390.0755 536.8551 389.8519 539.5376 390.0755 542.4437 389.6284 545.3497 387.5047 548.144 384.3751 550.1559 378.116 553.0619 373.0862 557.7563 370.4037 559.5447 369.9567 559.6564 368.8389 559.5447 367.6095 559.3211 366.6035 559.9917 363.4739 560.3271 354.4205 564.1273 353.8616 564.2391 352.6321 564.1273 351.6262 564.6861 350.6202 564.9097 349.1672 565.0215 348.4966 564.9097 347.3789 564.7979 346.4847 564.3508 345.4788 564.1273 344.8081 564.3508 343.2433 563.9037 340.2255 563.792 331.2838 568.3746 331.0603 568.2628 330.0543 568.2628 328.9366 568.3746 327.8189 568.7099 326.5894 569.0452 325.5835 569.157 325.2482 569.4923 325.0246 569.7158 324.9129 569.8276 324.8011 569.8276 324.6893 569.9394 323.9069 570.2747 322.901 570.3865 322.7892 570.4982 313.624 571.5042 306.1353 571.5042 305.9118 571.5042 305.9118 570.9453 305.3529 570.1629 304.9058 570.0512 304.4587 570.0512 304.347 569.9394 303.8999 568.9334 303.6763 567.9275 303.2293 566.4745 302.7822 565.4685 302.5586 564.3508 301.5527 564.3508 300.6585 564.3508 299.6526 564.2391 299.3173 563.3449 299.2055 562.3389 298.6466 561.5565 297.6407 561.8919 296.523 561.6683 295.4053 561.7801 294.7347 561.1095 293.7287 560.7741 293.5052 560.1035 293.3934 559.88 292.8345 558.7623 292.7228 557.6446 291.7168 557.1975 290.8227 557.5328 290.2638 556.5268 290.4873 555.1856 289.8167 554.1796 288.8108 553.7326 288.0284 552.7266 287.3578 551.7207 286.5754 550.7147 286.3518 549.3735 286.24 548.0322 286.5754 547.1381 285.793 546.3557 285.4576 545.3497 284.6752 544.9026 283.8928 544.3438 283.2222 543.7849 282.9987 542.6672 282.1045 541.773 280.9868 541.4377 279.8691 541.326 278.8631 540.7671 278.9749 539.6494 279.0867 538.6435 279.5338 537.6375 278.8631 536.8551 278.8631 535.9609 278.7514 534.7315 278.4161 533.502 278.3043 532.496 277.6337 532.049 277.2983 531.7136 277.8572 530.3724 277.0748 524.6721 272.3804 514.0538 271.2627 509.5829 271.0392 505.8945 271.598 503.1002 274.3923 497.3999 276.6277 491.1407 278.0807 489.0171 280.7633 486.5581 284.1164 484.5462 289.8167 482.3108 291.9404 480.4107 294.1758 477.5046 297.5289 471.8043 303.341 465.3216 306.0235 463.5332 308.3707 462.6391 310.4944 462.192 324.1305 461.0743 337.2077 457.9447 343.4669 455.2622 348.273 454.4798 358.4442 455.7092 433.778 455.5975 435.3428 455.9328 437.2429 455.2622 438.4724 454.4798 440.149 452.4679Z" />
  <path class="Semenawi Keyih Bahri" d="M240.8609 78.258L241.0845 79.8228 242.2022 97.7062 239.6315 162.8688 237.9549 170.6927 236.8372 174.0459 236.5019 177.8461 237.6196 181.0875 240.9727 185.4465 243.3199 188.0173 245.3318 190.8116 246.1142 194.0529 246.226 199.1944 244.1023 209.4773 243.5435 214.1717 244.5494 217.8602 247.9025 221.5486 251.7028 223.4487 286.3518 229.7079 288.0284 231.0492 288.9226 233.3964 289.9285 236.6377 291.2697 239.7673 294.2876 244.2382 296.0759 247.7031 298.4231 256.1977 299.8761 260.2215 303.341 264.1334 306.9177 267.263 310.7179 271.8457 315.077 279.7814 316.9771 285.1464 317.9831 289.8408 318.0948 293.5293 317.6477 296.5471 316.8653 298.7825 315.5241 301.3532 314.5182 304.1475 314.0711 308.0595 314.4064 320.9132 316.0829 326.1664 319.3243 330.4138 326.813 335.5552 333.8546 338.4613 341.0079 340.6967 361.5738 343.2674 363.4739 344.7205 365.8211 347.6265 379.1219 370.2043 384.2634 389.4289 374.7628 391.1055 369.0625 393.1174 367.2741 393.4527 366.1564 393.3409 364.3681 391.8879 363.2504 391.2173 361.1267 390.882 359.8972 391.1055 358.1089 392.4468 342.5727 394.3469 314.7417 393.5645 309.712 392.2232 306.4706 389.876 302.3351 381.7167 298.3113 376.1282 293.1699 371.0985 286.0165 366.4041 280.9868 364.951 276.8513 364.8393 273.1628 366.0688 264.78 370.2043 261.5386 371.4338 257.6266 371.7691 254.9441 370.7631 240.0785 360.7037 231.3604 356.7917 226.3307 355.3387 222.3069 354.7799 217.0537 354.5563 213.5888 353.8857 210.4592 352.2091 206.1001 349.1913 200.7351 346.397 196.4878 345.3911 192.2405 345.2793 181.5105 346.7323 170.4451 346.8441 168.2097 345.9499 167.092 344.8322 167.2037 343.3792 166.9802 341.9262 165.8625 340.3614 163.0682 338.4613 158.3738 336.4494 153.1206 334.8846 150.2145 332.6492 147.6438 328.9607 144.8495 322.2545 140.1551 315.1011 134.343 309.289 124.9542 303.4769 117.242 300.7944 102.9353 297.4413 99.4704 296.1 97.3468 294.8705 96.3408 293.3057 94.2172 288.3878 92.9877 286.5994 91.7582 285.2582 90.4169 284.2523 89.1875 283.1345 88.1815 281.458 87.1756 278.999 86.1696 275.087 85.1637 266.3689 84.1578 262.1216 82.9283 258.7684 81.2517 256.1977 81.6988 253.7387 81.0282 253.2916 79.9105 252.8446 78.5692 252.3975 77.5633 251.6151 76.7809 250.9444 75.8867 249.715 75.1043 248.0384 74.6572 246.8089 73.4277 246.3618 72.5336 246.1383 72.1982 245.1323 71.6394 243.4558 70.857 240.885 70.0746 238.2025 69.7393 235.1847 69.851 233.7317 69.9628 233.5081 71.0805 229.7079 71.1923 229.0373 71.4158 228.5902 72.0865 225.2371 72.4218 224.0076 72.5336 221.9957 72.5336 221.7722 71.3041 219.7603 71.7512 218.6426 74.0983 216.6307 76.1102 215.0659 77.3397 215.0659 80.4693 214.06 81.0282 213.1658 81.1399 212.9422 82.2576 211.0421 84.9402 208.3596 85.1637 207.8008 85.7226 206.6831 85.7226 205.6771 85.1637 204.7829 85.0519 204.6712 84.3813 203.5535 85.2755 201.4298 86.8403 199.7532 89.1875 199.0826 89.1875 197.5178 89.411 197.2943 89.7463 197.1825 90.0816 196.959 90.5287 196.8472 90.864 196.5119 91.5347 196.1766 91.3111 196.0648 91.5347 195.953 91.0876 195.2824 90.0816 194.7235 89.5228 194.1647 88.7404 193.2705 88.1815 192.4881 87.958 192.2646 87.3991 190.2527 87.958 188.2408 88.2933 187.4584 88.8521 185.8936 88.8521 185.6701 88.8521 185.4465 88.8521 184.9994 88.8521 183.5464 86.505 176.2813 87.1756 175.2754 87.6227 174.94 87.6227 174.493 87.7344 174.3812 87.7344 174.2694 87.7344 174.0459 87.6227 173.2635 86.952 172.8164 86.7285 172.4811 84.9402 169.7986 84.3813 168.9044 85.6108 167.2278 86.2814 164.0982 86.2814 163.9865 87.3991 162.9805 89.0757 161.8628 89.5228 159.7392 89.5228 159.2921 89.5228 158.845 89.5228 157.0567 89.1875 156.4978 89.1875 156.386 88.9639 155.3801 88.8521 155.1565 88.0697 153.8153 87.6227 153.0329 87.5109 152.8094 89.2992 153.5917 91.5347 155.1565 94.2172 156.2743 98.1292 156.9449 99.6939 157.6155 105.6178 161.1922 107.0708 161.4157 115.3419 160.0745 117.5773 160.4098 122.2717 160.1862 129.4251 155.6036 133.7842 155.2683 148.0909 159.2921 156.5855 149.0091 157.815 145.8795 158.5974 142.3029 161.9505 136.2672 162.8447 133.1376 163.5153 133.0259 163.9624 132.6905 164.5212 131.5728 164.0741 130.9022 163.5153 130.1198 163.18 129.7845 163.6271 126.4314 163.4035 123.5253 163.4035 123.19 164.0741 123.0782 164.7448 122.7429 165.1919 121.4017 164.2977 120.1722 163.7388 119.3898 163.18 117.825 163.0682 116.7073 162.8447 116.2602 162.6211 114.9189 162.6211 114.4718 162.8447 114.0248 163.18 113.913 163.4035 113.5777 163.7388 113.4659 183.8576 107.0949 190.0051 106.3125 195.0348 103.63 199.9527 103.2947 200.6233 102.5123 201.2939 103.0712 201.8528 103.0712 202.1881 103.4065 202.8587 102.8476 203.0823 102.4006 203.1941 101.9535 203.1941 99.718 203.4176 99.1592 204.0882 98.1532 204.0882 97.3708 203.9765 95.5825 204.4235 95.2472 205.9883 93.6824 205.7648 93.1235 205.653 91.8941 205.5413 91.2234 205.4295 90.3293 205.3177 89.6586 208.112 88.2056 211.2416 88.988 215.8242 93.4589 219.2891 94.4648 222.8658 93.6824 225.8836 91.3352 225.9954 91.2234 227.0013 90.7763 228.119 89.8822 230.2427 88.7645 231.2486 88.5409 231.8075 88.3174 232.4781 88.0938 233.5958 86.9761 235.2724 86.1937 235.2724 85.4113 234.7135 84.7407 234.49 83.623 235.0488 82.17 240.8609 78.258Z" />
</svg>