<?xml version="1.0" encoding="utf-8"?>
<svg xmlns="http://www.w3.org/2000/svg" viewBox="0 0 835 1024" style="stroke-width:0.25px;stroke-linejoin:round;stroke:#444;fill:#ddd" fill-rule="evenodd">
  <path class="Barbuda" d="M621.9943 175.7923L606.3463 184.5105 599.64 166.0682 597.0693 113.8711 591.5925 90.3991 584.4392 70.7274 579.4095 50.7204 580.4154 25.7954 584.8862 29.9309 586.7864 34.1782 588.7982 44.0141 596.1751 59.5503 615.5116 82.9105 621.9943 96.4348 621.659 114.3182 616.8528 129.519 616.8528 141.4785 631.1595 149.6378 637.1952 125.7188 638.9835 93.1934 631.3831 64.3564 609.4759 52.0616 600.646 37.9784 606.4581 13.3888 623.3355 4 647.7017 35.2959 639.5424 40.2139 631.1595 44.0141 647.2546 49.8262 672.7384 40.8845 688.6099 44.0141 708.2816 58.9914 725.1591 79.3338 738.5716 101.5762 747.6251 122.701 756.3432 160.9267 757.4609 182.0515 755.2255 202.0585 746.9545 226.0893 738.5716 230.4484 726.0532 229.3307 705.2638 236.9311 697.5516 214.018 675.868 197.8112 621.9943 175.7923Z" />
  <path class="Redonda" d="M4.3468 1010.9465L5.5762 1009.27 7.4763 1008.7111 7.6999 1011.9525 7.4763 1016.088 5.7998 1019.3294 2.5584 1020 1.1054 1017.8763 2.3349 1013.182 4.3468 1010.9465Z" />
  <path class="Saint George" d="M722.5883 787.7395L715.7703 795.4517 722.0295 805.8464 723.259 818.8119 709.6229 824.0651 700.9047 842.2838 692.1866 838.3718 674.7503 826.6359 677.2092 812.3292 673.5208 785.057 663.5732 775.8917 662.3437 749.8491 679.78 748.6196 677.5446 723.024 692.969 745.7135 702.3578 771.9798 722.5883 787.7395Z" />
  <path class="Saint John" d="M700.9047 856.5905L688.4981 854.0198 661.1142 861.8438 651.1666 872.2385 644.9074 857.9318 626.2416 878.7212 631.2713 846.1958 637.4187 831.8891 636.1892 827.9771 615.0645 822.7239 603.8873 812.3292 588.7982 822.6121 580.0801 819.1472 554.708 805.1758 568.1206 792.4339 589.8042 783.1569 617.8587 774.6623 607.9111 757.7848 610.0348 742.6957 621.1001 729.5067 638.6482 718.1061 677.5446 723.024 679.78 748.6196 662.3437 749.8491 663.5732 775.8917 673.5208 785.057 677.2092 812.3292 674.7503 826.6359 692.1866 838.3718 700.9047 842.2838 700.9047 856.5905Z" />
  <path class="Saint Mary" d="M651.1666 872.2385L659.8847 889.116 656.0845 903.4227 664.4673 923.9886 647.7017 927.0064 622.3296 927.2299 606.4581 923.6532 567.4499 899.846 559.2906 888.2218 567.5617 870.8972 572.9267 856.2552 568.5677 843.8486 569.0147 832.895 588.7982 822.6121 603.8873 812.3292 615.0645 822.7239 636.1892 827.9771 637.4187 831.8891 631.2713 846.1958 626.2416 878.7212 644.9074 857.9318 651.1666 872.2385Z" />
  <path class="Saint Paul" d="M759.3611 884.3098L749.8605 888.8924 749.4134 900.5166 755.2255 931.8125 746.0603 947.0134 726.0532 937.4011 706.2697 919.4059 697.6634 909.6818 689.5041 911.8055 664.4673 923.9886 656.0845 903.4227 659.8847 889.116 651.1666 872.2385 661.1142 861.8438 688.4981 854.0198 700.9047 856.5905 731.9771 856.5905 750.6429 851.3373 759.3611 884.3098Z" />
  <path class="Saint Peter" d="M750.6429 851.3373L731.9771 856.5905 700.9047 856.5905 700.9047 842.2838 709.6229 824.0651 723.259 818.8119 722.0295 805.8464 715.7703 795.4517 722.5883 787.7395 723.8178 776.4506 727.0592 768.9619 738.5716 752.8669 745.5014 763.8205 755.002 770.1914 766.8497 772.2033 780.8211 770.3032 774.8972 777.1212 771.5441 781.8156 766.2909 785.2805 755.2255 787.7395 760.8141 806.07 773.2207 814.6763 756.9021 826.6359 750.6429 851.3373Z" />
  <path class="Saint Philip" d="M759.3611 884.3098L750.6429 851.3373 756.9021 826.6359 773.2207 814.6763 789.3157 814.2293 805.8579 805.1758 814.9113 805.1758 821.1705 811.435 825.3061 817.8059 830.8946 832.1127 822.6235 831.442 805.8579 832.6715 797.475 832.1127 808.8757 846.3076 819.2704 853.1256 825.3061 859.9437 822.5118 874.8092 808.7639 896.9399 795.0161 897.8341 779.2563 889.7866 759.3611 884.3098Z" />
</svg>