<?xml version="1.0" encoding="utf-8"?>
<svg xmlns="http://www.w3.org/2000/svg" viewBox="0 0 1021 718" style="stroke-width:0.25px;stroke-linejoin:round;stroke:#444;fill:#ddd" fill-rule="evenodd">
  <path class="City of Hamilton" d="M390.8579 504.4702L393.8757 470.0447 433.8898 465.1267 433.8898 499.3287 390.8579 504.4702Z" />
  <path class="City of Saint George" d="M891.9281 99.7468L874.7153 68.1155 912.8293 43.1905 928.1419 77.169 891.9281 99.7468Z" />
  <path class="Devonshire" d="M588.4693 368.4447L632.1718 440.9842 620.7712 449.5905 559.8559 486.475 534.5956 521.4594 508.3294 470.0447 456.9146 496.6462 452.2202 434.6132 530.2365 396.611 575.5039 383.0867 588.4693 368.4447Z" />
  <path class="Hamilton" d="M770.8799 269.8625L737.7956 236.6664 688.8398 256.1146 653.5201 281.5985 645.6961 312.0002 625.4656 307.0823 616.1886 284.9516 638.6546 230.7426 699.9052 186.8165 759.2557 191.6227 772.5564 234.6546 815.4766 250.3025 770.8799 269.8625ZM734.5542 303.1703L770.8799 269.8625 800.611 318.8183 762.7206 344.8609 734.5542 303.1703ZM611.9413 342.0667L622.2242 330.4425 640.3311 336.3663 660.6735 335.2486 624.6832 366.2092 611.9413 342.0667Z" />
  <path class="Paget" d="M456.9146 496.6462L508.3294 470.0447 534.5956 521.4594 521.4066 539.6781 438.8077 615.9061 417.3476 626.8596 379.9043 557.2262 448.8671 514.6414 456.9146 496.6462ZM334.7487 520.1182L367.7212 535.7661 356.2088 547.5021 319.7714 541.5782 334.7487 520.1182Z" />
  <path class="Pembroke" d="M452.2202 434.6132L456.9146 496.6462 433.8898 499.3287 433.8898 465.1267 393.8757 470.0447 390.8579 504.4702 344.5846 484.9102 308.0354 431.7072 321.3362 413.6002 452.2202 434.6132Z" />
  <path class="Saint George's" d="M770.8799 269.8625L815.4766 250.3025 888.1278 277.6865 800.611 318.8183 770.8799 269.8625ZM759.2557 191.6227L699.9052 186.8165 737.7956 127.1307 805.5289 80.8574 895.7283 4.4059 1017 107.5707 984.0275 152.5028 982.3509 197.5465 962.5674 181.8986 932.8363 154.5146 875.7212 140.3197 856.8319 162.3386 830.3421 129.0308 759.2557 191.6227ZM891.9281 99.7468L928.1419 77.169 912.8293 43.1905 874.7153 68.1155 891.9281 99.7468Z" />
  <path class="Sandys" d="M98.4645 608.0821L25.8132 623.5065 14.189 594.3342 1 539.6781 40.9023 558.1204 35.0902 522.0183 49.7322 473.5096 27.378 424.3303 58.7857 436.0662 73.6513 406.7822 93.4348 436.0662 119.9245 463.4502 81.9223 496.6462 69.9628 553.7613 60.4623 570.974 81.9223 588.5221 159.6033 598.2462 159.6033 613.8942 98.4645 608.0821Z" />
  <path class="Smith's" d="M734.5542 303.1703L762.7206 344.8609 721.2535 373.4744 632.1718 440.9842 588.4693 368.4447 611.9413 342.0667 624.6832 366.2092 660.6735 335.2486 714.659 332.4543 734.5542 303.1703Z" />
  <path class="Southampton" d="M227.3366 654.9142L279.3102 643.8488 302.8939 682.2981 222.3069 713.5941 157.9267 711.5822 108.3003 709.6821 42.2436 664.7501 25.8132 623.5065 98.4645 608.0821 93.4348 641.2781 121.6011 680.2862 167.8744 680.2862 227.3366 654.9142Z" />
  <path class="Warwick" d="M379.9043 557.2262L417.3476 626.8596 328.0425 672.574 302.8939 682.2981 279.3102 643.8488 227.3366 654.9142 243.767 619.818 283.4458 615.9061 354.5322 572.8741 379.9043 557.2262ZM334.7487 520.1182L319.7714 541.5782 280.2044 547.5021 240.5256 543.5901 228.9014 516.2062 242.2022 506.4821 278.5278 516.2062 301.6645 508.3822 316.53 502.5701 334.7487 520.1182Z" />
</svg>