<?xml version="1.0" encoding="utf-8"?>
<svg xmlns="http://www.w3.org/2000/svg" viewBox="0 0 1021 270" style="stroke-width:0.25px;stroke-linejoin:round;stroke:#444;fill:#ddd" fill-rule="evenodd">
  <path class="Banjul" d="M80.0222 155.007L71.9747 161.6015 57.1091 172.5551 43.2495 171.4374 32.6312 160.4838 23.466 148.0772 43.2495 123.7111 51.8559 116.446 52.5265 120.0227 54.4266 122.5934 57.3327 124.4935 60.7976 126.1701 66.8332 123.0405 72.7571 122.7052 78.0103 124.8288 81.587 128.5173 83.3754 134.7765 79.6869 135.8942 74.0983 136.2295 70.2981 140.365 75.5514 145.0594 80.0222 155.007Z" />
  <path class="Central River" d="M799.9404 109.4044L799.8286 109.4044 794.6871 112.7575 793.3459 114.2106 791.7811 116.3342 791.1105 118.905 789.4339 123.4876 788.0926 125.723 786.7514 127.2878 780.8275 131.3116 788.9868 148.9714 790.9987 150.3127 786.0807 153.1069 784.7395 152.3245 783.2865 151.7657 780.8275 153.2187 778.4803 155.3424 770.9916 172.108 769.5386 176.5789 759.9263 167.5254 756.0143 166.0724 745.0607 168.8667 732.6541 170.3197 720.2475 168.8667 708.9586 164.0605 699.5699 155.5659 692.7518 146.0653 689.1751 143.8299 682.2453 142.4887 676.0979 140.4768 664.809 133.547 659.6675 131.9822 646.8139 130.9762 635.4132 127.9584 613.2825 116.6695 613.2825 116.5578 613.1707 116.5578 596.4051 104.2629 581.2042 89.9562 571.9272 83.9206 564.215 87.0502 557.1734 94.4271 557.0616 94.3153 556.391 93.7564 554.3791 93.4211 551.8084 93.98 547.6728 96.9978 539.29 100.9098 517.9417 113.5399 517.1593 116.446 516.4887 116.446 496.5934 101.9157 492.6814 92.1916 493.2403 76.2084 494.2462 71.2904 490.446 69.1668 478.71 68.4961 476.1393 68.7197 470.2154 68.4961 455.0145 66.2607 450.3201 66.0372 450.7672 63.69 453.4497 55.9778 456.9146 48.7127 460.6031 42.7888 471.1096 31.3881 485.4163 20.8816 501.0642 14.9578 515.7063 17.305 518.8359 20.3228 525.3186 29.0409 528.2246 31.1646 535.378 29.488 560.8618 13.1694 585.4515 4.0042 592.6048 4.3395 612.7237 12.0517 646.8139 13.6165 659.1087 17.752 665.5914 22.8935 671.0682 27.3644 675.3155 33.2882 678.3333 39.771 684.9278 62.237 687.275 64.9195 701.1347 73.4141 705.829 75.0906 709.9646 73.7494 730.754 62.1252 744.3901 58.4367 758.2497 59.4427 772.78 66.2607 779.2627 71.514 783.8453 77.3261 787.0867 83.9206 791.5575 99.0097 793.793 103.7041 797.1461 107.3925 799.9404 109.4044Z" />
  <path class="Lower River" d="M557.1734 94.4271L549.5729 102.3628 544.8785 110.075 543.5373 131.5351 541.5254 141.1474 534.5956 150.2009 524.8715 156.6836 513.8062 160.8191 502.8526 162.831 490.446 162.831 453.5615 155.007 443.055 154.4482 435.231 157.466 427.407 161.7133 417.2359 165.1782 411.7591 165.7371 388.9578 163.5017 384.7105 163.6134 369.5096 168.4196 346.0376 170.7668 342.1256 172.8904 340.7844 177.8084 340.2255 202.398 340.002 202.398 290.8227 191.668 288.1402 191.5562 278.9749 193.7916 272.1569 194.574 269.6979 195.2447 267.2389 195.58 265.2271 195.3564 261.9857 194.2387 259.5267 193.9034 256.0618 195.4682 253.7146 199.3802 252.5969 200.6097 250.585 200.7215 248.0143 199.6037 244.6612 196.4741 243.4317 193.9034 242.9846 191.668 242.4257 189.9914 241.0845 188.4266 234.6018 187.756 229.9074 190.1032 226.2189 190.5503 222.754 191.668 219.6244 193.6799 216.9419 196.3624 213.7006 198.7096 212.2475 196.6977 210.6827 187.1971 210.571 183.2851 209.7886 179.932 207.6649 178.479 205.9883 177.6966 204.9824 175.5729 204.3118 172.8904 204.0882 169.9844 205.2059 163.6134 208.0002 159.2543 221.5245 147.9655 223.9835 145.2829 225.1012 141.5945 226.5542 139.9179 229.7956 140.4768 235.3842 142.7122 282.6634 145.2829 300.7703 141.0356 307.1413 140.365 310.8297 140.5886 312.8416 140.9239 314.5182 141.0356 317.6477 140.365 320.2185 139.2473 322.0068 137.7943 323.3481 136.3413 324.354 135.6706 331.7309 135.2235 353.5263 137.7943 360.4561 137.0119 380.1278 130.8645 383.2574 129.0761 389.6284 124.4935 392.758 123.5993 395.9993 124.7171 400.8055 129.7468 404.1586 130.8645 408.853 130.8645 412.4297 130.3056 415.6711 128.8526 419.4713 126.1701 422.3773 122.7052 427.7424 114.3223 430.9837 111.9751 435.0075 111.7516 439.2548 113.0928 443.055 115.2165 446.0728 117.6755 449.5377 119.2403 453.1144 118.6814 456.6911 117.2284 459.8207 116.446 466.1916 118.3461 470.3272 122.5934 473.4568 127.3996 477.0334 130.8645 488.6576 134.7765 503.5232 135.6706 515.5945 130.6409 518.9476 116.446 517.1593 116.446 517.9417 113.5399 539.29 100.9098 547.6728 96.9978 551.8084 93.98 554.3791 93.4211 556.391 93.7564 557.0616 94.3153 557.1734 94.4271Z" />
  <path class="North Bank" d="M450.3201 66.0372L455.0145 66.2607 470.2154 68.4961 476.1393 68.7197 478.71 68.4961 490.446 69.1668 494.2462 71.2904 493.2403 76.2084 492.6814 92.1916 496.5934 101.9157 516.4887 116.446 515.818 121.6992 513.3591 126.2818 509.7824 129.635 506.0939 130.8645 499.723 130.1938 488.2106 126.9525 482.9573 126.1701 478.1512 124.4935 472.5626 120.4697 464.4033 113.0928 461.3855 111.6398 458.3677 112.1987 455.4616 113.4282 452.7791 114.0988 449.7613 113.4282 447.0788 111.7516 445.0669 110.075 443.6139 109.4044 438.9195 108.2867 435.1193 106.2748 430.7602 105.3806 424.0539 107.169 420.7008 109.9633 415.6711 116.6695 412.3179 118.905 406.6176 119.1285 397.4524 114.7694 391.6403 114.0988 385.4928 115.5518 370.6273 123.5993 358.556 127.2878 250.4733 135.7824 239.855 131.9822 233.1487 130.8645 226.7778 132.3175 220.7421 135.6706 211.2416 142.7122 197.1584 157.1307 193.9171 159.5897 191.3463 160.7074 188.7756 162.831 186.2048 163.837 183.4106 161.7133 183.187 159.1426 184.193 155.5659 184.7518 151.4304 183.4106 147.5184 177.7102 152.7716 176.9278 155.5659 178.9397 159.5897 175.5866 161.2662 174.1336 161.7133 174.1336 164.0605 175.8101 164.5076 177.3749 165.6253 178.9397 166.1842 172.3452 169.6491 160.8328 171.3256 149.2086 171.7727 141.9435 171.2139 115.789 164.7311 104.8354 164.0605 106.8473 161.0427 110.9828 152.4363 111.7652 148.7479 110.9828 143.9417 107.6297 137.1237 106.9591 134.4411 105.5061 132.0939 99.3586 127.3996 97.235 123.4876 93.8818 121.4757 93.0994 120.1344 93.0994 113.0928 96.0055 98.4508 95.6702 92.974 93.7701 88.3914 91.5347 84.9265 112.6594 85.0383 133.5606 85.1501 154.5736 85.2618 175.4748 85.2618 196.4878 85.3736 217.389 85.4854 238.402 85.5971 252.1498 85.5971 259.3032 85.5971 280.3162 85.7089 301.2174 85.8207 322.2304 85.8207 343.1316 85.9325 364.1446 86.0442 385.0458 86.0442 406.0587 86.156 427.0717 86.2678 443.5021 86.2678 448.8671 84.4794 449.5377 70.7316 450.3201 66.0372Z" />
  <path class="Upper River" d="M799.9404 109.4044L824.4183 126.9525 832.4658 130.8645 838.725 131.6469 844.5371 130.3056 864.3206 123.1523 883.0981 111.4163 889.4691 108.622 908.9173 104.1512 924.5652 96.1036 931.3833 94.4271 934.96 94.3153 940.8838 94.7624 944.3487 94.2035 948.3725 92.527 955.1905 88.3914 959.7732 87.7208 966.8147 88.9503 975.4211 91.9681 983.4686 96.1036 989.169 100.6862 990.9573 103.7041 993.081 110.2986 994.8693 113.2046 995.5399 113.8752 997.8871 115.8871 1005.5993 120.4697 1008.9525 123.264 1017 139.6944 1015.7705 157.466 1006.1582 172.108 989.3925 179.4849 963.9087 181.7204 950.3844 185.297 936.7483 185.5206 922.3298 190.7738 916.4059 190.7738 911.3762 193.0092 895.1694 205.3041 887.7925 208.9925 878.0684 209.3278 859.738 205.8629 840.5133 207.5395 831.4598 206.8689 822.6299 204.2981 810.2233 197.9272 806.6466 195.4682 803.5171 192.5622 800.9463 189.0972 797.1461 185.1853 792.6752 183.844 782.057 183.3969 777.1391 182.0557 772.6682 179.4849 769.5386 176.5789 770.9916 172.108 778.4803 155.3424 780.8275 153.2187 783.2865 151.7657 784.7395 152.3245 786.0807 153.1069 790.9987 150.3127 788.9868 148.9714 780.8275 131.3116 786.7514 127.2878 788.0926 125.723 789.4339 123.4876 791.1105 118.905 791.7811 116.3342 793.3459 114.2106 794.6871 112.7575 799.8286 109.4044 799.9404 109.4044Z" />
  <path class="West Coast" d="M340.2255 202.398L340.1138 207.763 339.4431 232.4645 337.2077 234.141 324.5776 234.0293 315.5241 233.9175 293.8405 233.8057 249.9144 233.3586 175.2513 232.688 123.9483 232.2409 68.2862 231.6821 53.6442 231.5703 41.9083 234.2528 36.8785 242.6356 35.8726 245.9888 30.5076 251.242 28.3839 254.1481 27.1545 257.9483 26.5956 265.9958 21.4541 261.525 16.3127 259.7366 15.4185 257.2777 16.8715 254.4834 19.2187 249.4537 18.6598 244.2004 12.0653 227.0994 11.8418 222.9639 12.6242 206.7571 11.8418 202.2862 9.9417 197.5919 4.2414 190.9974 2.6766 186.4147 5.3591 180.8262 4.1296 179.0378 1 171.2139 4.0178 167.5254 7.5945 156.7954 11.1712 154.56 15.1949 153.6658 19.6658 151.2068 23.466 148.0772 32.6312 160.4838 43.2495 171.4374 57.1091 172.5551 71.9747 161.6015 80.0222 155.007 82.3694 165.4018 81.587 171.2139 93.9936 185.9677 96.7879 187.9795 113.8889 188.7619 118.695 190.1032 123.0541 192.8975 125.7366 195.3564 129.2015 197.033 136.0196 197.5919 139.3727 199.9391 141.2728 205.3041 141.3846 211.5633 139.3727 216.3694 146.079 210.7809 149.0968 210.5573 153.4559 214.0222 151.444 210.4455 145.2966 204.1864 144.0671 203.2922 143.1729 198.8213 140.8257 195.9153 137.1373 194.6858 132.4429 195.0211 132.4429 192.6739 142.3905 192.8975 147.0849 192.2268 151.1087 190.1032 154.4618 197.033 158.3738 195.58 162.9564 190.662 168.4332 187.9795 174.6924 186.0794 187.099 177.8084 193.9171 175.9083 203.3058 178.8143 204.7589 185.7441 203.3058 193.6799 204.0882 199.8273 210.1239 201.5039 218.3949 199.0449 229.9074 192.6739 229.9074 190.1032 234.6018 187.756 241.0845 188.4266 242.4257 189.9914 242.9846 191.668 243.4317 193.9034 244.6612 196.4741 248.0143 199.6037 250.585 200.7215 252.5969 200.6097 253.7146 199.3802 256.0618 195.4682 259.5267 193.9034 261.9857 194.2387 265.2271 195.3564 267.2389 195.58 269.6979 195.2447 272.1569 194.574 278.9749 193.7916 288.1402 191.5562 290.8227 191.668 340.002 202.398 340.2255 202.398Z" />
</svg>