<?xml version="1.0" encoding="utf-8"?>
<svg xmlns="http://www.w3.org/2000/svg" viewBox="0 0 859 1024" style="stroke-width:0.25px;stroke-linejoin:round;stroke:#444;fill:#ddd" fill-rule="evenodd">
  <path class="Drenthe" d="M657.578 176.91L662.1606 178.4748 663.949 177.3571 667.5256 170.8744 668.4198 167.1859 669.314 164.8387 672.1083 158.9149 672.7789 157.0147 673.0024 156.1206 674.4554 152.5439 677.8086 148.2966 680.7146 145.2788 684.7384 142.708 692.7859 135.3311 700.1628 138.9078 704.1866 140.5844 706.6455 140.2491 710.4458 145.5023 714.0224 151.8733 714.6931 152.4321 715.9226 152.8792 718.2697 154.7793 725.7584 164.9505 728.2174 170.6508 728.5527 171.2097 728.9998 171.9921 730.2293 171.545 743.8653 166.9624 749.7892 167.5212 751.9129 168.7507 753.1424 169.6449 760.9663 178.0277 770.6904 188.7578 775.9437 193.8992 780.0792 197.923 787.7914 206.0823 796.3978 215.1358 806.7925 229.2189 817.6343 242.855 819.1991 243.1903 819.4227 244.8669 819.3109 246.3199 814.6165 258.6147 819.0873 260.1795 821.3228 261.9679 825.3465 266.9976 826.576 269.1212 826.6878 269.233 824.4524 275.604 822.5523 287.8988 820.4286 327.4658 818.8638 340.3195 814.84 348.1435 806.9043 345.6845 803.5512 344.2315 792.5976 345.7963 780.8616 342.3314 759.8486 342.6667 752.36 344.9021 748.448 347.8081 748.2244 347.6964 745.8772 346.3551 745.4301 343.2255 745.4301 340.543 744.6477 339.5371 743.4183 338.5311 727.3232 331.1542 724.5289 331.0425 718.0462 332.2719 707.2044 337.8605 704.4101 340.8783 703.963 342.5549 704.6337 353.3967 695.4684 348.9259 694.1272 348.7023 692.4506 348.7023 691.4447 349.82 689.6563 350.9377 688.4268 351.0495 687.1974 350.4906 686.415 349.5965 685.2972 347.9199 684.6266 347.4728 684.0678 347.3611 682.9501 348.367 681.3853 349.2612 676.132 350.826 674.679 350.826 673.7848 350.4906 673.5613 349.9318 671.7729 345.0139 669.9846 342.3314 666.1844 338.4194 662.7195 335.6251 661.0429 332.8308 660.2605 332.719 649.5305 332.8308 647.6304 332.1602 640.8123 327.4658 637.3474 326.1245 635.7826 326.4598 634.4414 327.6893 632.653 328.807 631.4235 328.9188 629.6352 328.36 628.741 327.5776 628.0704 327.0187 626.6174 324.3362 625.4997 323.442 617.8992 303.3232 620.0229 299.523 625.835 296.7287 633.8825 288.793 634.8884 285.6634 632.8766 282.422 630.5294 279.8513 628.8528 278.2865 617.6757 264.8739 636.4532 250.3437 643.8301 241.7373 645.3949 240.1725 647.8539 238.2724 653.7778 238.2724 658.6957 239.5019 666.1844 244.6433 676.6909 237.49 678.1439 235.9252 684.1795 225.8658 684.7384 223.8539 685.1855 222.1773 682.503 216.5888 670.4317 200.382 669.6493 196.2464 668.4198 192.558 668.6433 190.5461 668.0845 188.5342 667.6374 187.4165 661.3782 184.734 657.9133 182.7221 657.2427 181.9397 657.578 176.91Z" />
  <path class="Flevoland" d="M541.336 283.0926L557.5428 291.9226 567.8257 300.4172 570.5083 303.7703 571.9613 306.4528 575.2026 315.7298 576.8792 325.1186 575.6497 327.1305 574.7556 329.2541 573.079 330.8189 572.7437 331.3778 573.3025 332.0484 575.2026 332.9426 584.1443 335.5133 588.5034 337.9723 593.3096 343.8961 586.268 347.8081 575.538 351.4966 573.5261 351.6084 569.8376 351.0495 568.6081 350.2671 565.7021 350.4906 554.4132 355.6321 554.1897 355.8557 551.8425 358.6499 551.8425 363.009 554.9721 365.6915 559.4429 386.1457 559.2194 392.0695 556.8722 401.123 553.0719 407.8293 548.0422 415.6532 543.6832 420.6829 538.2064 425.3773 529.8235 429.4011 520.0994 434.0955 512.3872 437.2251 506.4634 440.69 500.4277 445.8315 495.6216 450.5259 492.0449 459.4675 489.6977 467.2915 485.3386 475.1155 477.5146 477.9098 461.7549 479.8099 457.9547 478.4686 457.3958 478.2451 448.4541 472.8801 448.7894 472.7683 430.0119 460.0264 422.4114 457.6792 417.7171 457.6792 409.5578 458.2381 402.7397 456.5615 390.5567 443.596 390.1096 431.8601 402.7397 420.1241 410.2284 420.1241 404.5281 404.1408 393.6862 388.2693 388.3212 364.1267 425.3175 339.8724 428.8942 326.2363 435.7122 321.5419 446.7776 325.1186 449.3483 288.3459 449.3483 288.0106 449.6836 288.3459 490.9272 287.1164 500.316 280.0748 507.4693 274.1509 512.8343 271.692 518.1993 270.5743 523.229 270.5743 526.3586 271.0213 526.9175 270.9096 531.3883 270.2389 533.6238 271.5802 539.1006 277.5041 541.336 283.0926Z" />
  <path class="Friesland" d="M630.1941 58.7679L627.8469 63.574 626.7292 68.0449 628.8528 76.0924 632.0942 77.5454 636.2297 78.6631 637.0121 79.222 637.9063 80.0044 639.2475 81.9045 640.1417 82.9105 640.9241 83.3575 641.4829 83.5811 642.1536 83.4693 642.936 83.134 644.2772 82.3516 644.8361 82.1281 645.6185 82.0163 649.6422 83.3575 650.4246 84.587 650.8717 86.7107 650.3129 91.2933 650.2011 94.9817 650.5364 95.4288 651.207 95.7641 652.6601 96.323 652.6601 96.6583 651.9894 97.4407 648.301 100.9056 645.2832 104.3705 644.5008 106.0471 643.3831 110.8532 640.0299 116.5536 637.3474 122.0304 637.7945 123.8187 637.9063 125.2717 638.3534 126.2777 638.8004 127.3954 639.024 128.4013 639.1358 129.4073 638.4651 130.9721 630.3058 141.9256 627.9586 146.5083 626.5056 154.444 627.5116 162.3798 629.5234 165.0623 632.5413 167.7448 634.4414 168.3036 643.8301 169.1978 647.7421 170.6508 655.6779 175.9041 657.578 176.91 657.2427 181.9397 657.9133 182.7221 661.3782 184.734 667.6374 187.4165 668.0845 188.5342 668.6433 190.5461 668.4198 192.558 669.6493 196.2464 670.4317 200.382 682.503 216.5888 685.1855 222.1773 684.7384 223.8539 684.1795 225.8658 678.1439 235.9252 676.6909 237.49 666.1844 244.6433 658.6957 239.5019 653.7778 238.2724 647.8539 238.2724 645.3949 240.1725 643.8301 241.7373 636.4532 250.3437 617.6757 264.8739 608.3987 268.5624 604.1514 269.0095 600.4629 270.0154 600.0158 270.4625 599.6805 270.9096 599.5688 272.4744 599.3452 273.0332 596.1039 276.7217 587.4975 276.051 586.3798 275.4922 584.3679 273.7039 581.6854 269.7919 580.5677 269.233 579.897 269.1212 579.4499 269.9036 578.5558 270.4625 574.0849 271.4684 572.9672 272.1391 572.1848 273.0332 571.626 274.2627 570.8436 275.7157 569.8376 277.2805 568.8317 278.2865 562.2372 282.1985 560.5606 282.5338 559.3311 282.6455 553.0719 281.6396 552.1778 281.1925 549.607 278.9571 541.336 283.0926 539.1006 277.5041 533.6238 271.5802 531.3883 270.2389 526.9175 270.9096 526.3586 271.0213 523.229 270.5743 518.1993 270.5743 512.8343 271.692 507.4693 274.1509 500.316 280.0748 490.9272 287.1164 449.6836 288.3459 449.3483 288.0106 424.9822 260.4031 408.7754 214.1298 408.7754 214.018 408.5518 212.6768 407.6576 209.1001 407.2106 207.9824 407.0988 207.6471 429.2295 187.7518 432.4708 183.8398 436.6064 180.3749 446.7776 177.916 451.3602 175.0099 455.9428 165.8447 461.9784 140.5844 466.4493 129.2955 474.2733 120.1303 479.0794 115.8829 487.2387 112.418 490.9272 108.1707 494.3921 103.141 498.4158 99.0055 502.8867 97.3289 513.505 95.5406 521.2172 88.8343 556.7604 74.4158 564.8079 68.7155 569.8376 68.2684 584.7032 60.5562 606.1633 59.5503 630.1941 58.7679ZM340.3714 129.2955L349.7602 117.1124 364.2904 103.6999 379.3795 94.87 390.4449 96.4348 390.4449 99.0055 384.6328 99.0055 381.8385 100.5703 375.3558 103.0293 357.8077 120.1303 353.0015 127.3954 347.3012 132.4251 340.3714 129.2955ZM461.196 51.5028L464.1021 49.2673 497.0746 42.8964 491.8213 50.0497 485.5622 52.2851 472.7085 52.844 473.1556 54.0735 473.6026 56.8678 474.0497 58.0972 471.1437 59.662 461.9784 60.4444 452.0308 64.8035 444.2068 66.8154 413.4697 80.4515 407.0988 80.2279 404.4163 74.6394 406.8752 68.2684 418.8348 64.0211 422.7468 60.4444 427.7765 60.5562 457.5076 54.4088 461.196 51.5028ZM516.7463 37.5314L569.8376 35.4077 578.8911 40.1021 556.9839 45.2436 534.1826 45.2436 528.4823 46.6966 517.7523 51.6145 512.1637 50.2733 508.2517 44.6847 509.593 39.3197 513.3932 36.0783 516.7463 37.5314ZM635.8944 22.3305L657.9133 20.3186 664.0607 22.3305 664.0607 24.9012 661.0429 24.9012 622.9289 37.196 618.5699 42.8964 617.2286 40.5492 617.1168 39.3197 618.5699 37.5314 616.2227 32.5017 621.8112 27.5837 630.0823 23.7835 635.8944 22.3305Z" />
  <path class="Gelderland" d="M559.4429 386.1457L562.5725 386.3692 564.9197 386.7045 567.714 390.84 572.2966 399.8935 573.7496 401.123 575.538 401.5701 582.2442 399.5582 589.3976 393.5226 595.7685 390.0576 598.451 391.1754 600.0158 392.1813 601.4689 394.5285 603.1454 397.8816 607.0574 402.1289 608.734 403.582 610.0752 405.7056 612.0871 411.5177 613.7637 415.9886 618.4581 422.6948 618.9052 423.7008 619.1287 424.8185 618.9052 428.8422 615.552 437.5604 608.1751 440.1311 607.5045 440.5782 607.0574 441.1371 608.1751 443.596 608.2869 445.1608 606.275 448.2904 604.3749 456.2262 604.0396 458.7969 604.5985 460.1382 606.9457 463.3795 608.0634 464.7208 612.646 466.8444 616.558 477.2392 616.4462 480.3688 616.1109 481.3747 616.4462 482.6042 617.3404 483.2748 619.7993 484.3925 620.9171 485.2867 621.3641 487.075 620.47 489.4222 620.47 489.7575 620.47 490.2046 620.8053 491.0988 621.3641 491.993 623.1525 493.6695 623.9349 493.8931 624.4937 493.7813 626.0585 491.3223 628.0704 489.6458 628.8528 489.3105 630.9765 489.4222 646.5127 492.5518 660.484 492.3283 662.7195 491.6576 665.9608 489.0869 673.5613 486.0691 680.1558 486.8515 681.497 489.0869 681.7206 489.534 692.2271 504.9584 698.8216 511.2176 704.0748 510.6587 712.5694 511.6647 718.8286 510.3234 720.1699 510.4352 721.3993 510.8823 722.1817 512.5589 722.4053 514.1237 722.4053 515.2414 723.2994 515.6884 724.1936 515.8002 732.1294 513.9001 733.9177 514.3472 736.0414 515.3531 736.8238 515.8002 737.3826 516.8062 737.7179 518.2592 738.0532 521.9476 737.9415 523.8477 735.7061 529.2128 757.3897 533.9072 759.9604 535.8073 760.0722 535.919 758.8427 536.0308 755.266 538.0427 751.4658 541.9547 750.3481 544.0783 748.5597 548.6609 746.7714 550.8964 744.0889 552.2376 741.7417 552.4612 739.7298 553.3553 738.165 557.1556 738.6121 562.6323 742.1888 565.0913 746.9949 566.5443 761.5252 574.7036 767.2255 580.7393 768.3432 582.5276 768.9021 584.9866 768.7903 589.3457 767.5608 590.4634 765.8843 590.6869 764.0959 592.6988 759.0662 601.9758 753.9248 608.1232 747.8891 611.3646 728.2174 612.0352 706.1985 619.6356 695.2449 628.0185 691.6682 629.695 687.0856 629.695 672.8906 625.4477 674.679 633.4953 673.7848 637.0719 665.5138 639.4191 664.8431 633.8306 661.1547 631.7069 652.6601 630.4774 651.6541 629.248 649.1952 624.7771 647.6304 623.3241 645.842 623.1006 638.9122 624.5536 631.4235 621.5358 624.2702 615.7237 617.1168 612.2587 609.6282 616.3943 612.3107 618.5179 620.5817 627.2361 623.5996 631.9305 620.0229 631.0363 614.7696 629.695 607.6163 627.7949 598.5628 630.2539 595.4332 631.9305 590.8506 635.2836 586.4915 637.1837 577.4381 638.7485 573.7496 641.431 573.079 644.5606 578.1087 648.4726 581.0147 655.4024 580.6794 662.6675 576.991 666.2442 576.6557 666.356 575.985 666.5795 570.2847 662.7793 569.5023 661.9969 565.5903 656.5201 564.5844 655.1789 563.9138 654.9553 562.796 654.9553 560.6724 655.4024 558.6605 656.7437 558.5487 661.5498 535.7474 660.4321 520.323 649.5903 515.9639 648.4726 513.8403 646.9078 511.1578 640.0898 509.8165 638.525 499.9806 636.2895 485.7857 638.4132 482.5443 637.4073 478.297 634.5012 474.0497 636.1778 469.6906 639.4191 465.108 641.0957 456.1663 640.5369 451.8073 642.884 449.9072 649.8139 448.7894 655.8495 445.8834 660.4321 441.9714 663.6735 437.7241 665.9089 397.1512 670.3798 395.251 669.7091 397.71 663.7853 397.71 658.0849 389.5507 652.4964 387.0917 653.2788 381.615 653.0552 373.4557 646.6843 369.879 642.884 369.4319 639.978 369.3201 637.9661 368.9848 634.5012 369.6554 631.5952 369.6554 630.9245 368.2024 628.6891 374.6851 628.3538 391.6744 621.0887 394.0216 619.6356 394.2451 618.8532 394.2451 617.8473 393.798 616.1707 393.3509 614.1589 401.1749 600.1875 402.1809 598.5109 407.7694 587.1102 411.0108 587.5573 416.3758 586.5514 420.3996 583.4218 423.6409 582.7512 436.1593 589.681 440.7419 588.4515 447.2246 583.4218 452.1426 582.3041 457.9547 584.4277 460.4136 584.5395 462.5373 583.5336 466.8964 580.404 469.6906 579.6216 479.1912 581.6334 496.2922 591.9164 503.7809 593.8165 504.5633 592.1399 504.675 586.4396 504.3397 584.5395 503.8926 583.0865 502.9985 581.5217 501.5454 578.2803 496.9628 573.3624 494.1685 568.3327 492.1567 557.3791 492.492 548.7727 492.0449 546.6491 491.8213 544.6372 489.9212 537.3721 486.3446 538.2662 487.2387 540.837 487.127 542.29 486.7916 543.743 485.8975 545.5314 485.0033 546.5373 484.1091 547.0961 483.215 547.2079 482.4326 547.4315 480.1971 549.2198 478.1853 550.0022 471.9261 546.8726 471.479 546.3138 471.1437 545.5314 472.8202 544.0783 473.938 542.7371 474.6086 541.6194 475.8381 537.7074 477.6264 534.0189 479.9736 534.2425 480.0854 533.7954 480.0854 533.1248 479.8618 531.8953 479.8618 529.4363 480.9795 527.3127 480.9795 525.9714 480.4207 525.189 478.6323 523.2889 476.844 522.0594 475.9498 521.277 474.0497 518.371 472.4849 517.1415 467.9023 516.0238 462.6491 514.3472 461.3078 511.8882 461.4196 511.1058 461.8667 510.6587 463.3197 509.4293 464.1021 507.9762 464.5492 504.3996 456.5017 497.9168 455.2722 495.7932 455.831 491.8812 456.6134 485.622 457.8429 478.6922 457.9547 478.4686 461.7549 479.8099 477.5146 477.9098 485.3386 475.1155 489.6977 467.2915 492.0449 459.4675 495.6216 450.5259 500.4277 445.8315 506.4634 440.69 512.3872 437.2251 520.0994 434.0955 529.8235 429.4011 538.2064 425.3773 543.6832 420.6829 548.0422 415.6532 553.0719 407.8293 556.8722 401.123 559.2194 392.0695 559.4429 386.1457Z" />
  <path class="Groningen" d="M826.6878 269.233L826.576 269.1212 825.3465 266.9976 821.3228 261.9679 819.0873 260.1795 814.6165 258.6147 819.3109 246.3199 819.4227 244.8669 819.1991 243.1903 817.6343 242.855 806.7925 229.2189 796.3978 215.1358 787.7914 206.0823 780.0792 197.923 775.9437 193.8992 770.6904 188.7578 760.9663 178.0277 753.1424 169.6449 751.9129 168.7507 749.7892 167.5212 743.8653 166.9624 730.2293 171.545 728.9998 171.9921 728.5527 171.2097 728.2174 170.6508 725.7584 164.9505 718.2697 154.7793 715.9226 152.8792 714.6931 152.4321 714.0224 151.8733 710.4458 145.5023 706.6455 140.2491 704.1866 140.5844 700.1628 138.9078 692.7859 135.3311 684.7384 142.708 680.7146 145.2788 677.8086 148.2966 674.4554 152.5439 673.0024 156.1206 672.7789 157.0147 672.1083 158.9149 669.314 164.8387 668.4198 167.1859 667.5256 170.8744 663.949 177.3571 662.1606 178.4748 657.578 176.91 655.6779 175.9041 647.7421 170.6508 643.8301 169.1978 634.4414 168.3036 632.5413 167.7448 629.5234 165.0623 627.5116 162.3798 626.5056 154.444 627.9586 146.5083 630.3058 141.9256 638.4651 130.9721 639.1358 129.4073 639.024 128.4013 638.8004 127.3954 638.3534 126.2777 637.9063 125.2717 637.7945 123.8187 637.3474 122.0304 640.0299 116.5536 643.3831 110.8532 644.5008 106.0471 645.2832 104.3705 648.301 100.9056 651.9894 97.4407 652.6601 96.6583 652.6601 96.323 651.207 95.7641 650.5364 95.4288 650.2011 94.9817 650.3129 91.2933 650.8717 86.7107 650.4246 84.587 649.6422 83.3575 645.6185 82.0163 644.8361 82.1281 644.2772 82.3516 642.936 83.134 642.1536 83.4693 641.4829 83.5811 640.9241 83.3575 640.1417 82.9105 639.2475 81.9045 637.9063 80.0044 637.0121 79.222 636.2297 78.6631 632.0942 77.5454 628.8528 76.0924 626.7292 68.0449 627.8469 63.574 630.1941 58.7679 649.754 58.0972 651.9894 58.8796 655.9014 62.4563 658.0251 63.2387 659.9252 62.5681 665.6255 58.0972 698.598 48.4849 750.9069 40.3256 772.8141 44.0141 777.3967 46.1377 781.1969 50.0497 788.6856 80.7868 789.8033 81.2339 795.1683 85.1459 795.6154 86.04 796.6213 86.8224 797.7391 88.6108 799.3039 90.2873 806.3454 92.6345 815.1754 97.6642 819.0873 96.4348 820.9875 98.5584 823.67 99.229 826.2407 98.5584 828.1408 96.4348 829.7056 96.4348 829.7056 99.0055 827.9173 100.4585 827.0231 101.5762 827.0231 103.2528 828.1408 106.2706 828.5879 112.3063 835.2942 116.2183 851.3892 120.3538 853.8482 120.3538 854.5188 130.8603 854.7424 136.7842 854.0717 142.5963 852.5069 148.9672 849.3773 157.1265 848.8185 160.1443 849.042 164.5034 849.8244 166.8506 850.9421 168.7507 851.7245 171.9921 853.8482 198.4818 853.5129 211.6708 851.3892 223.4068 846.5831 235.7017 828.3644 264.4268 826.6878 269.233ZM686.7503 4.4471L689.8799 4 702.0629 9.365 701.057 9.2532 700.2746 9.7003 699.604 10.7063 699.0451 12.1593 691.1094 9.4768 687.1974 7.0178 686.7503 4.4471Z" />
  <path class="Limburg" d="M576.991 666.2442L575.7615 667.5855 575.538 671.3857 577.7734 672.2799 584.1443 672.1681 586.7151 673.3976 591.633 677.1978 593.8684 679.4332 590.8506 689.6044 595.9921 696.0871 610.9694 702.6816 608.3987 710.7292 607.1692 715.7589 608.1751 720.1179 622.9289 740.5721 631.8706 750.855 633.4354 762.591 634.5531 769.0737 633.659 776.1153 631.9824 783.604 631.7589 790.1985 635.112 794.2222 633.7707 797.3518 633.1001 805.064 631.8706 809.5349 629.747 812.6645 624.0466 816.5765 621.6994 818.8119 610.4106 839.9366 605.7162 845.637 603.4807 849.549 601.5806 856.5905 600.91 864.5263 602.4748 871.009 607.7281 873.9151 618.6816 866.3146 623.8231 868.103 622.0348 869.1089 617.0051 873.2444 621.5877 877.6035 618.3463 881.9626 605.7162 888.8924 585.1503 904.9875 582.2442 908.4524 577.9969 917.3941 575.2026 920.4119 571.1789 920.859 568.1611 918.1765 565.5903 914.7116 562.4607 913.035 556.3133 916.2763 557.5428 924.5474 560.8959 934.7186 561.2312 943.5485 564.2491 942.8779 569.9494 940.0836 572.9672 939.1894 575.985 939.6365 581.7971 941.5366 589.8447 940.6425 590.2917 942.4308 588.9505 945.4486 588.0563 948.3547 588.3916 953.3844 588.9505 956.1787 590.6271 958.0788 595.8803 961.3201 603.1454 963.8909 602.6983 965.3439 601.4689 967.244 601.1336 969.5912 602.9219 976.7446 602.9219 979.5388 601.5806 983.2273 599.1217 986.1333 594.092 985.6862 591.0741 987.4746 589.0623 990.9395 589.2858 993.9573 589.7329 997.1987 588.6152 1001.446 585.3738 1004.352 582.0207 1003.5696 583.0266 1008.0405 584.7032 1010.9465 586.9386 1012.5113 588.2799 1014.635 587.8328 1019.2176 583.3619 1020 567.2669 1019.5529 564.9197 1018.7705 562.349 1017.9881 543.1243 1018.4352 540.8889 1016.8704 536.3063 1011.8407 534.0708 1010.9465 532.1707 1012.5113 529.7118 1016.088 528.5941 1017.7646 526.3586 1018.2117 523.8997 1017.7646 519.8759 1015.4174 522.2231 1007.3699 522.5584 1003.2343 519.0935 1002.2284 514.2873 999.8812 513.0579 998.987 509.3694 996.4163 505.681 991.0513 505.2339 983.2273 521.2172 965.2321 523.7879 964.2262 526.3586 963.332 527.4763 962.4378 530.2706 958.0788 534.0708 949.9195 536.6416 945.6722 534.5179 944.3309 532.3943 944.3309 527.4763 945.6722 536.1945 931.589 539.6594 923.0944 536.6416 918.9589 537.2004 914.2645 538.3182 910.9113 540.1065 909.6818 542.6772 911.9173 544.3538 909.6818 545.5833 907.1111 547.2598 902.305 546.5892 900.8519 546.2539 899.846 545.695 897.2752 548.154 897.4988 550.5012 897.1635 552.7366 896.2693 554.8603 894.9281 549.8306 889.4513 550.5012 885.4275 553.6308 882.2979 553.0719 880.6213 551.0601 876.1505 547.2598 875.8152 540.5536 877.6035 537.5358 875.0328 532.9531 868.6618 529.2647 866.4264 526.4704 866.2029 517.1934 868.103 513.3932 868.103 510.9342 866.4264 508.8106 863.9674 505.7927 861.8438 493.2744 858.0436 489.4741 854.8022 489.5859 854.8022 493.2744 853.3492 498.6394 851.6726 500.5395 851.8961 502.1043 851.1138 503.6691 849.4372 504.8986 846.8664 506.9105 835.0187 510.8224 827.9771 512.3872 825.6299 517.0816 819.4825 538.6535 812.888 554.4132 807.8583 561.2312 806.07 566.3727 801.8227 574.4202 795.2282 569.0552 783.604 561.4548 773.0975 556.4251 752.7551 552.9602 730.2891 561.0077 731.0715 569.3905 733.9776 572.073 734.0893 577.9969 733.0834 588.9505 729.2832 591.0741 729.842 596.4392 733.6422 599.9041 730.5127 599.9041 727.6066 598.6746 724.7006 595.8803 714.0823 594.9861 712.5175 594.7626 711.1762 590.4035 703.7993 588.3916 701.7875 586.1562 700.4462 585.0385 698.6579 586.4915 695.193 583.0266 691.281 580.1206 678.4273 576.6557 675.633 567.714 674.7388 564.1373 672.5034 562.349 668.0326 563.0196 663.7853 558.5487 661.5498 558.6605 656.7437 560.6724 655.4024 562.796 654.9553 563.9138 654.9553 564.5844 655.1789 565.5903 656.5201 569.5023 661.9969 570.2847 662.7793 575.985 666.5795 576.6557 666.356 576.991 666.2442Z" />
  <path class="Noord-Brabant" d="M369.3201 637.9661L369.4319 639.978 369.879 642.884 373.4557 646.6843 381.615 653.0552 387.0917 653.2788 389.5507 652.4964 397.71 658.0849 397.71 663.7853 395.251 669.7091 397.1512 670.3798 437.7241 665.9089 441.9714 663.6735 445.8834 660.4321 448.7894 655.8495 449.9072 649.8139 451.8073 642.884 456.1663 640.5369 465.108 641.0957 469.6906 639.4191 474.0497 636.1778 478.297 634.5012 482.5443 637.4073 485.7857 638.4132 499.9806 636.2895 509.8165 638.525 511.1578 640.0898 513.8403 646.9078 515.9639 648.4726 520.323 649.5903 535.7474 660.4321 558.5487 661.5498 563.0196 663.7853 562.349 668.0326 564.1373 672.5034 567.714 674.7388 576.6557 675.633 580.1206 678.4273 583.0266 691.281 586.4915 695.193 585.0385 698.6579 586.1562 700.4462 588.3916 701.7875 590.4035 703.7993 594.7626 711.1762 594.9861 712.5175 595.8803 714.0823 598.6746 724.7006 599.9041 727.6066 599.9041 730.5127 596.4392 733.6422 591.0741 729.842 588.9505 729.2832 577.9969 733.0834 572.073 734.0893 569.3905 733.9776 561.0077 731.0715 552.9602 730.2891 556.4251 752.7551 561.4548 773.0975 569.0552 783.604 574.4202 795.2282 566.3727 801.8227 561.2312 806.07 554.4132 807.8583 538.6535 812.888 517.0816 819.4825 512.3872 825.6299 510.8224 827.9771 506.9105 835.0187 504.8986 846.8664 503.6691 849.4372 502.1043 851.1138 500.5395 851.8961 498.6394 851.6726 493.2744 853.3492 489.5859 854.8022 489.4741 854.8022 488.2447 853.6845 487.4623 845.637 485.8975 838.7072 481.8737 833.3421 476.6205 830.1008 471.8143 829.5419 467.4552 831.6656 458.1782 838.2601 453.4838 839.9366 427.3294 838.8189 420.3996 840.6073 418.9465 840.9426 415.0345 839.9366 414.9228 827.3065 411.0108 822.3886 406.8752 821.9415 398.3806 822.7239 394.4686 820.6002 393.4627 818.253 391.1155 810.429 389.9978 807.2994 382.3974 798.8048 380.9443 795.4517 381.7267 787.7395 384.1857 782.0392 384.9681 776.1153 380.609 767.7325 374.0145 763.3734 373.3439 762.4792 369.9908 763.3734 368.6495 765.497 367.8671 768.8502 366.3023 773.2092 362.8374 778.9096 357.8077 785.9512 352.1074 791.3162 347.413 792.6574 338.8066 788.7454 334.6711 787.6277 319.2466 787.0689 314.5523 785.057 315.7817 780.8097 318.2407 780.3626 327.9648 784.9452 326.2882 778.7978 327.2942 773.321 328.7472 768.2913 328.1883 762.9263 325.9529 759.9085 322.2645 757.4495 318.1289 755.8847 314.9993 755.5494 307.6224 759.3496 290.5215 780.4744 288.1743 782.1509 285.2682 783.3804 281.8033 783.604 274.7617 781.8156 268.3908 782.9333 265.3729 782.7098 261.1256 779.5802 261.5727 776.1153 263.4728 771.7562 263.8081 765.7206 262.0198 762.8145 259.2255 762.2557 252.631 763.3734 240.7833 767.7325 229.1591 774.5505 231.8416 777.4565 231.3945 780.0273 229.9415 782.8216 229.7179 786.3982 231.5063 789.6396 236.4242 795.5635 237.7655 799.0284 236.7595 805.1758 232.5122 807.4112 222.1175 806.7406 217.8702 805.2876 209.8227 800.9285 207.8108 800.8167 207.8108 800.705 207.5872 798.0224 206.8048 795.787 204.6812 793.9987 203.787 787.1806 203.6752 783.0451 204.1223 782.0392 204.3459 780.8097 205.1283 779.3567 204.1223 774.2152 204.0106 773.9916 208.3696 772.8739 211.2757 764.7146 209.4873 757.0024 204.9047 751.3021 198.6455 747.6136 196.6337 747.2783 199.3162 740.2367 199.6515 738.7837 199.6515 734.5364 198.0867 729.9538 197.4161 728.9479 191.4922 722.2416 191.3804 721.9063 191.4922 722.018 190.4862 715.3118 187.692 712.6293 186.7978 712.5175 189.2568 705.2524 189.3685 705.0288 198.5338 702.1228 207.699 701.3404 219.5468 698.2108 228.1531 692.2869 234.8594 679.8803 257.8843 684.5747 266.3789 684.2394 274.0911 681.8922 283.1446 677.5331 288.286 675.9683 295.3276 675.8565 306.393 662.444 309.6343 656.1848 314.4405 650.9316 320.8114 646.0136 332.9945 645.9019 338.4713 644.1135 347.0777 636.2895 352.778 636.1778 364.0669 638.525 369.3201 637.9661Z" />
  <path class="Noord-Holland" d="M315.7817 495.2343L308.7402 499.9287 306.393 498.811 305.6106 497.1344 304.7164 491.7694 304.1575 491.2106 303.0398 490.4282 293.9864 493.3342 289.292 495.6814 279.7914 498.1404 274.3146 498.3639 272.8616 498.0286 271.7439 497.4697 269.6202 495.3461 267.0495 495.5696 266.7142 492.8871 269.5085 488.1927 270.6262 483.2748 270.8497 479.9217 271.0733 478.3569 271.4086 477.4627 280.6856 461.8147 275.7677 460.697 271.185 463.0442 267.1613 462.2618 265.9318 461.703 256.2077 457.3439 258.2196 453.5437 271.6321 413.9767 273.5322 403.6937 273.5322 401.0112 277.8913 391.6224 287.2801 320.7595 291.1921 302.6526 291.8627 297.1758 293.9864 285.6634 303.3751 261.2972 305.4988 249.226 305.7223 242.4079 306.6165 233.578 308.2931 226.0893 310.8638 222.848 324.4999 224.9716 326.6235 222.848 328.3001 225.5305 324.947 236.8194 330.2002 243.5256 339.2537 246.2081 347.9718 245.6493 353.0015 242.7432 362.3903 234.5839 367.0847 232.9074 375.9146 231.6779 384.6328 227.8777 407.0988 207.6471 407.2106 207.9824 407.6576 209.1001 408.5518 212.6768 408.7754 214.018 408.7754 214.1298 424.9822 260.4031 449.3483 288.0106 449.3483 288.3459 446.7776 325.1186 435.7122 321.5419 428.8942 326.2363 425.3175 339.8724 388.3212 364.1267 393.6862 388.2693 404.5281 404.1408 410.2284 420.1241 402.7397 420.1241 390.1096 431.8601 390.5567 443.596 402.7397 456.5615 409.5578 458.2381 417.7171 457.6792 422.4114 457.6792 430.0119 460.0264 448.7894 472.7683 448.4541 472.8801 440.9655 474.2213 428.4471 474.2213 426.7705 474.892 425.7646 475.4508 421.7408 482.2689 417.1582 493.446 416.4876 497.6933 415.2581 500.4876 413.6933 504.176 412.0167 507.5292 407.6576 510.547 395.3628 509.8763 386.98 511.4411 383.068 513.2295 377.2559 514.459 376.1382 506.8585 374.7969 501.3817 376.4735 494.0048 380.1619 489.4222 379.0442 487.1868 378.4854 486.4044 378.0383 485.7338 377.5912 485.0631 376.8088 484.3925 376.1382 484.0572 375.6911 483.4983 375.3558 482.716 375.1322 481.3747 374.7969 480.257 374.0145 478.6922 375.0205 476.9039 381.8385 474.2213 372.8968 473.4389 369.3201 475.0037 368.2024 473.4389 367.1965 472.5448 365.8552 471.9859 364.1787 471.9859 358.7019 475.0037 354.4546 475.7861 352.4427 475.6744 351.4367 476.2332 350.6543 476.9039 347.5248 482.8277 338.8066 484.0572 333.8887 486.4044 330.5355 489.9811 326.0647 492.2165 315.7817 495.2343ZM343.3892 169.9802L343.3892 172.2156 347.9718 172.2156 346.407 177.1336 343.501 182.8339 337.3536 192.4462 326.9589 201.0526 321.9292 210.7767 314.4405 213.0121 306.7283 209.7707 302.481 200.382 303.8222 190.7696 308.1813 179.8161 313.6581 170.8744 324.1646 161.8209 329.4178 150.7556 335.0064 141.5903 341.9362 141.9256 342.8304 144.1611 343.2774 146.0612 343.1657 147.8495 341.9362 149.5261 345.0658 154.6675 347.3012 161.262 347.3012 167.0741 343.3892 169.9802Z" />
  <path class="Overijssel" d="M748.448 347.8081L744.536 350.6024 746.4361 354.4026 745.989 357.7558 744.9831 360.7736 745.0948 363.7914 746.6596 366.1386 753.9248 372.286 741.6299 378.5452 737.9415 378.8805 740.624 384.5809 741.4064 391.0636 741.7417 397.5463 743.0829 402.9113 747.442 408.0528 753.3659 410.9589 770.914 413.4178 782.3146 417.7769 788.5738 418.8946 794.3859 418.4475 799.9745 416.771 801.9864 414.8708 803.4394 412.4119 804.7806 411.7413 818.305 433.7602 821.4345 443.149 819.5344 456.338 815.0636 466.7327 813.4988 472.2095 813.387 478.804 815.2871 486.6279 816.6284 488.9751 817.1872 489.9811 816.5166 491.8812 806.6807 497.9168 804.3336 500.7111 799.0803 509.2057 794.7212 513.1177 785.2207 517.2532 780.8616 521.8359 775.9437 531.8953 773.1494 534.466 760.0722 535.919 759.9604 535.8073 757.3897 533.9072 735.7061 529.2128 737.9415 523.8477 738.0532 521.9476 737.7179 518.2592 737.3826 516.8062 736.8238 515.8002 736.0414 515.3531 733.9177 514.3472 732.1294 513.9001 724.1936 515.8002 723.2994 515.6884 722.4053 515.2414 722.4053 514.1237 722.1817 512.5589 721.3993 510.8823 720.1699 510.4352 718.8286 510.3234 712.5694 511.6647 704.0748 510.6587 698.8216 511.2176 692.2271 504.9584 681.7206 489.534 681.497 489.0869 680.1558 486.8515 673.5613 486.0691 665.9608 489.0869 662.7195 491.6576 660.484 492.3283 646.5127 492.5518 630.9765 489.4222 628.8528 489.3105 628.0704 489.6458 626.0585 491.3223 624.4937 493.7813 623.9349 493.8931 623.1525 493.6695 621.3641 491.993 620.8053 491.0988 620.47 490.2046 620.47 489.7575 620.47 489.4222 621.3641 487.075 620.9171 485.2867 619.7993 484.3925 617.3404 483.2748 616.4462 482.6042 616.1109 481.3747 616.4462 480.3688 616.558 477.2392 612.646 466.8444 608.0634 464.7208 606.9457 463.3795 604.5985 460.1382 604.0396 458.7969 604.3749 456.2262 606.275 448.2904 608.2869 445.1608 608.1751 443.596 607.0574 441.1371 607.5045 440.5782 608.1751 440.1311 615.552 437.5604 618.9052 428.8422 619.1287 424.8185 618.9052 423.7008 618.4581 422.6948 613.7637 415.9886 612.0871 411.5177 610.0752 405.7056 608.734 403.582 607.0574 402.1289 603.1454 397.8816 601.4689 394.5285 600.0158 392.1813 598.451 391.1754 595.7685 390.0576 589.3976 393.5226 582.2442 399.5582 575.538 401.5701 573.7496 401.123 572.2966 399.8935 567.714 390.84 564.9197 386.7045 562.5725 386.3692 559.4429 386.1457 554.9721 365.6915 551.8425 363.009 551.8425 358.6499 554.1897 355.8557 554.4132 355.6321 565.7021 350.4906 568.6081 350.2671 569.8376 351.0495 573.5261 351.6084 575.538 351.4966 586.268 347.8081 593.3096 343.8961 588.5034 337.9723 584.1443 335.5133 575.2026 332.9426 573.3025 332.0484 572.7437 331.3778 573.079 330.8189 574.7556 329.2541 575.6497 327.1305 576.8792 325.1186 575.2026 315.7298 571.9613 306.4528 570.5083 303.7703 567.8257 300.4172 557.5428 291.9226 541.336 283.0926 549.607 278.9571 552.1778 281.1925 553.0719 281.6396 559.3311 282.6455 560.5606 282.5338 562.2372 282.1985 568.8317 278.2865 569.8376 277.2805 570.8436 275.7157 571.626 274.2627 572.1848 273.0332 572.9672 272.1391 574.0849 271.4684 578.5558 270.4625 579.4499 269.9036 579.897 269.1212 580.5677 269.233 581.6854 269.7919 584.3679 273.7039 586.3798 275.4922 587.4975 276.051 596.1039 276.7217 599.3452 273.0332 599.5688 272.4744 599.6805 270.9096 600.0158 270.4625 600.4629 270.0154 604.1514 269.0095 608.3987 268.5624 617.6757 264.8739 628.8528 278.2865 630.5294 279.8513 632.8766 282.422 634.8884 285.6634 633.8825 288.793 625.835 296.7287 620.0229 299.523 617.8992 303.3232 625.4997 323.442 626.6174 324.3362 628.0704 327.0187 628.741 327.5776 629.6352 328.36 631.4235 328.9188 632.653 328.807 634.4414 327.6893 635.7826 326.4598 637.3474 326.1245 640.8123 327.4658 647.6304 332.1602 649.5305 332.8308 660.2605 332.719 661.0429 332.8308 662.7195 335.6251 666.1844 338.4194 669.9846 342.3314 671.7729 345.0139 673.5613 349.9318 673.7848 350.4906 674.679 350.826 676.132 350.826 681.3853 349.2612 682.9501 348.367 684.0678 347.3611 684.6266 347.4728 685.2972 347.9199 686.415 349.5965 687.1974 350.4906 688.4268 351.0495 689.6563 350.9377 691.4447 349.82 692.4506 348.7023 694.1272 348.7023 695.4684 348.9259 704.6337 353.3967 703.963 342.5549 704.4101 340.8783 707.2044 337.8605 718.0462 332.2719 724.5289 331.0425 727.3232 331.1542 743.4183 338.5311 744.6477 339.5371 745.4301 340.543 745.4301 343.2255 745.8772 346.3551 748.2244 347.6964 748.448 347.8081Z" />
  <path class="Utrecht" d="M457.9547 478.4686L457.8429 478.6922 456.6134 485.622 455.831 491.8812 455.2722 495.7932 456.5017 497.9168 464.5492 504.3996 464.1021 507.9762 463.3197 509.4293 461.8667 510.6587 461.4196 511.1058 461.3078 511.8882 462.6491 514.3472 467.9023 516.0238 472.4849 517.1415 474.0497 518.371 475.9498 521.277 476.844 522.0594 478.6323 523.2889 480.4207 525.189 480.9795 525.9714 480.9795 527.3127 479.8618 529.4363 479.8618 531.8953 480.0854 533.1248 480.0854 533.7954 479.9736 534.2425 477.6264 534.0189 475.8381 537.7074 474.6086 541.6194 473.938 542.7371 472.8202 544.0783 471.1437 545.5314 471.479 546.3138 471.9261 546.8726 478.1853 550.0022 480.1971 549.2198 482.4326 547.4315 483.215 547.2079 484.1091 547.0961 485.0033 546.5373 485.8975 545.5314 486.7916 543.743 487.127 542.29 487.2387 540.837 486.3446 538.2662 489.9212 537.3721 491.8213 544.6372 492.0449 546.6491 492.492 548.7727 492.1567 557.3791 494.1685 568.3327 496.9628 573.3624 501.5454 578.2803 502.9985 581.5217 503.8926 583.0865 504.3397 584.5395 504.675 586.4396 504.5633 592.1399 503.7809 593.8165 496.2922 591.9164 479.1912 581.6334 469.6906 579.6216 466.8964 580.404 462.5373 583.5336 460.4136 584.5395 457.9547 584.4277 452.1426 582.3041 447.2246 583.4218 440.7419 588.4515 436.1593 589.681 423.6409 582.7512 420.3996 583.4218 416.3758 586.5514 411.0108 587.5573 407.7694 587.1102 405.6458 586.7749 401.3985 584.5395 399.3866 581.9688 396.257 576.6037 393.5745 574.4801 390.5567 573.8095 388.433 574.8154 386.5329 576.3802 381.3914 577.7215 379.4913 579.2862 376.2499 583.4218 374.0145 584.4277 364.8493 582.3041 364.4022 582.8629 357.2488 586.9985 350.9897 593.3694 348.7542 594.3754 343.7245 594.04 342.2715 596.2755 337.3536 588.7868 330.312 579.7333 328.3001 576.2684 329.0825 575.2625 330.4238 574.7036 332.1003 574.033 334.8946 572.2447 333.8887 567.8856 323.7175 569.2268 322.8233 566.9914 329.8649 556.2614 338.5831 551.9023 340.1479 549.4433 330.0884 549.3316 327.2942 535.919 323.941 534.6895 320.9232 532.007 322.2645 530.4422 327.5177 524.8537 328.6354 524.5184 329.7531 524.1831 330.5355 524.7419 331.3179 525.0772 332.3239 525.4125 336.0123 527.0891 336.9065 526.8656 337.4653 526.3067 337.4653 525.4125 337.13 524.1831 335.677 520.1593 334.7828 516.1355 336.7947 514.5707 325.9529 505.182 321.1468 503.2818 319.8055 501.9406 318.6878 500.3758 315.7817 495.2343 326.0647 492.2165 330.5355 489.9811 333.8887 486.4044 338.8066 484.0572 347.5248 482.8277 350.6543 476.9039 351.4367 476.2332 352.4427 475.6744 354.4546 475.7861 358.7019 475.0037 364.1787 471.9859 365.8552 471.9859 367.1965 472.5448 368.2024 473.4389 369.3201 475.0037 372.8968 473.4389 381.8385 474.2213 375.0205 476.9039 374.0145 478.6922 374.7969 480.257 375.1322 481.3747 375.3558 482.716 375.6911 483.4983 376.1382 484.0572 376.8088 484.3925 377.5912 485.0631 378.0383 485.7338 378.4854 486.4044 379.0442 487.1868 380.1619 489.4222 376.4735 494.0048 374.7969 501.3817 376.1382 506.8585 377.2559 514.459 383.068 513.2295 386.98 511.4411 395.3628 509.8763 407.6576 510.547 412.0167 507.5292 413.6933 504.176 415.2581 500.4876 416.4876 497.6933 417.1582 493.446 421.7408 482.2689 425.7646 475.4508 426.7705 474.892 428.4471 474.2213 440.9655 474.2213 448.4541 472.8801 457.3958 478.2451 457.9547 478.4686Z" />
  <path class="Zeeland" d="M1.2576 798.5813L37.1362 786.9571 40.3776 784.2746 43.8425 783.8275 57.9256 792.9927 79.4975 799.1402 86.6508 805.5111 91.3452 807.523 100.2869 807.523 108.6697 809.982 114.0348 809.1996 135.7184 799.8108 138.7362 796.3459 139.8539 789.1925 141.9776 786.0629 146.7837 786.2865 151.9252 788.2983 155.1666 790.3102 156.6196 792.5457 159.0785 798.1342 161.0904 800.2579 163.5494 801.152 168.9144 801.8227 171.1498 803.611 172.6029 804.2816 180.2033 804.8405 184.0035 799.1402 185.4565 797.7989 189.8156 798.3578 194.6218 801.152 194.51 802.6051 192.8334 810.8761 191.604 814.4528 182.8858 826.4123 171.9322 835.1305 144.4365 848.9901 134.3771 856.9259 129.3474 858.4906 103.0812 858.826 100.3987 857.5965 97.0455 853.6845 96.7102 849.996 97.0455 846.084 95.9278 841.3897 91.6805 838.7072 64.6319 829.6537 58.9316 828.6477 53.4548 828.9831 44.6249 830.9949 41.0482 831.2185 37.8068 832.0009 35.4596 834.5716 35.0125 838.5954 35.5714 843.0662 34.9008 846.4194 24.3943 848.0959 17.3527 847.3135 12.2112 844.8546 10.6464 844.1839 5.2814 838.2601 2.1518 829.3184 2.2636 821.0473 3.1578 812.3292 1.2576 798.5813ZM207.8108 800.8167L203.4517 800.705 202.5575 799.5872 200.7692 795.4517 200.0986 791.0926 200.2103 787.4042 199.875 784.6099 197.5278 783.0451 194.9571 786.3982 190.1509 787.8513 170.1439 787.2924 165.5613 785.8394 161.0904 783.0451 148.9074 772.4268 145.2189 770.9738 136.0537 769.9679 132.9241 771.868 126.3296 784.3864 123.8706 788.0748 120.4057 789.8631 112.47 790.7573 109.5639 792.5457 107.2167 792.9927 104.8695 791.875 98.7221 785.5041 85.4213 778.7978 76.7032 770.5267 73.2383 770.0796 64.073 773.5446 59.0433 773.7681 46.525 770.9738 42.5012 768.7384 39.1481 763.7087 36.242 758.0084 33.5595 753.8728 26.1826 747.5019 23.8354 743.5899 22.9413 737.8895 25.2884 734.6482 48.0898 720.4532 107.552 713.9705 112.47 714.7529 115.8231 716.653 119.3998 720.0062 122.5294 724.3652 124.653 729.5067 122.3058 730.5127 118.5056 733.0834 117.0526 734.4246 117.0526 736.6601 138.2891 738.8955 149.0191 743.2546 158.1844 751.1903 161.0904 756.7789 165.4495 769.0737 168.8026 773.5446 174.0559 775.1094 185.6801 773.5446 189.9274 775.78 194.3982 774.327 201.5516 774.6623 204.0106 773.9916 204.1223 774.2152 205.1283 779.3567 204.3459 780.8097 204.1223 782.0392 203.6752 783.0451 203.787 787.1806 204.6812 793.9987 206.8048 795.787 207.5872 798.0224 207.8108 800.705 207.8108 800.8167ZM196.6337 747.2783L188.6979 745.8253 179.5327 741.6898 176.0678 741.4662 169.138 742.2486 165.7848 741.6898 160.4198 738.5602 142.8717 722.018 154.7195 716.4295 160.5316 714.7529 180.4268 715.7589 186.2389 717.5472 191.3804 721.9063 191.4922 722.2416 197.4161 728.9479 198.0867 729.9538 199.6515 734.5364 199.6515 738.7837 199.3162 740.2367 196.6337 747.2783ZM186.7978 712.5175L178.0796 712.1822 175.7325 711.288 173.497 709.7232 171.7087 707.5996 170.591 704.47 170.1439 701.7875 170.8145 701.0051 174.503 697.7637 179.4209 699.6638 184.2271 703.1287 189.2568 705.1406 189.3685 705.0288 189.2568 705.2524 186.7978 712.5175ZM153.6018 687.9278L162.8788 690.4986 167.1261 693.5164 167.5732 699.2167 165.226 702.7934 161.6493 705.3641 157.7373 706.9289 140.6363 710.2821 136.7243 710.0585 128.4532 706.9289 123.6471 703.5758 121.5234 698.7696 120.1822 694.187 116.7173 691.3927 107.9991 687.9278 106.4343 686.4748 105.0931 684.5747 103.193 683.0099 100.2869 682.7864 94.8101 689.3809 93.4689 690.6103 83.5212 691.1692 79.0504 689.7162 76.0326 685.4689 76.7032 673.8447 84.7507 668.5914 103.4165 665.9089 104.3107 665.5736 107.9991 665.9089 110.9052 667.4737 132.1417 668.1443 137.0596 669.1503 140.6363 671.9446 148.9074 682.2275 150.0251 684.1276 151.4781 686.0277 153.6018 687.9278Z" />
  <path class="Zuid-Holland" d="M407.7694 587.1102L402.1809 598.5109 401.1749 600.1875 393.3509 614.1589 393.798 616.1707 394.2451 617.8473 394.2451 618.8532 394.0216 619.6356 391.6744 621.0887 374.6851 628.3538 368.2024 628.6891 369.6554 630.9245 369.6554 631.5952 368.9848 634.5012 369.3201 637.9661 364.0669 638.525 352.778 636.1778 347.0777 636.2895 338.4713 644.1135 332.9945 645.9019 320.8114 646.0136 314.4405 650.9316 309.6343 656.1848 306.393 662.444 295.3276 675.8565 288.286 675.9683 283.1446 677.5331 274.0911 681.8922 266.3789 684.2394 257.8843 684.5747 234.8594 679.8803 228.1531 692.2869 219.5468 698.2108 207.699 701.3404 198.5338 702.1228 189.3685 705.0288 189.2568 705.1406 184.2271 703.1287 179.4209 699.6638 174.503 697.7637 170.8145 701.0051 170.1439 701.7875 169.9204 700.4462 169.8086 696.3107 170.4792 693.2928 173.3853 690.1633 177.1855 688.4867 184.7859 687.9278 182.4387 685.4689 176.8502 681.4451 161.4257 676.6389 158.1844 671.9446 156.8431 660.0968 153.0429 652.7199 147.6779 647.802 141.4187 643.4429 137.2832 646.5725 131.5828 648.3608 125.8825 648.3608 121.5234 649.5903 120.741 651.0433 119.1762 651.2669 117.0526 651.2669 115.0407 641.2075 121.4117 636.8484 135.3831 632.6011 137.2832 630.0304 141.5305 629.695 149.0191 631.3716 155.1666 634.7248 156.0607 634.9483 157.7373 634.7248 160.0845 633.7188 162.767 631.3716 161.0904 628.1303 155.3901 620.3063 153.9371 619.0768 152.5958 617.6238 152.1487 615.3883 152.5958 612.5941 153.6018 610.5822 154.7195 609.1292 155.1666 608.0114 154.4959 602.4229 150.2486 588.3397 147.7897 582.3041 149.0191 579.6216 150.4722 577.1626 160.8669 579.5098 169.3615 578.0568 176.9619 573.1388 208.705 534.466 235.7536 494.4519 258.2196 453.5437 256.2077 457.3439 265.9318 461.703 267.1613 462.2618 271.185 463.0442 275.7677 460.697 280.6856 461.8147 271.4086 477.4627 271.0733 478.3569 270.8497 479.9217 270.6262 483.2748 269.5085 488.1927 266.7142 492.8871 267.0495 495.5696 269.6202 495.3461 271.7439 497.4697 272.8616 498.0286 274.3146 498.3639 279.7914 498.1404 289.292 495.6814 293.9864 493.3342 303.0398 490.4282 304.1575 491.2106 304.7164 491.7694 305.6106 497.1344 306.393 498.811 308.7402 499.9287 315.7817 495.2343 318.6878 500.3758 319.8055 501.9406 321.1468 503.2818 325.9529 505.182 336.7947 514.5707 334.7828 516.1355 335.677 520.1593 337.13 524.1831 337.4653 525.4125 337.4653 526.3067 336.9065 526.8656 336.0123 527.0891 332.3239 525.4125 331.3179 525.0772 330.5355 524.7419 329.7531 524.1831 328.6354 524.5184 327.5177 524.8537 322.2645 530.4422 320.9232 532.007 323.941 534.6895 327.2942 535.919 330.0884 549.3316 340.1479 549.4433 338.5831 551.9023 329.8649 556.2614 322.8233 566.9914 323.7175 569.2268 333.8887 567.8856 334.8946 572.2447 332.1003 574.033 330.4238 574.7036 329.0825 575.2625 328.3001 576.2684 330.312 579.7333 337.3536 588.7868 342.2715 596.2755 343.7245 594.04 348.7542 594.3754 350.9897 593.3694 357.2488 586.9985 364.4022 582.8629 364.8493 582.3041 374.0145 584.4277 376.2499 583.4218 379.4913 579.2862 381.3914 577.7215 386.5329 576.3802 388.433 574.8154 390.5567 573.8095 393.5745 574.4801 396.257 576.6037 399.3866 581.9688 401.3985 584.5395 405.6458 586.7749 407.7694 587.1102Z" />
</svg>