<?xml version="1.0" encoding="utf-8"?>
<svg xmlns="http://www.w3.org/2000/svg" viewBox="0 0 1020 1024" style="stroke-width:0.25px;stroke-linejoin:round;stroke:#444;fill:#ddd" fill-rule="evenodd">
  <path class="Aragatsotn" d="M235.1077 237.3782L239.2432 236.484 240.808 236.3723 242.9317 236.8194 244.9436 237.8253 247.4025 240.2843 250.5321 244.308 252.0969 246.0964 254.6677 247.2141 258.0208 247.6612 263.6094 246.5435 267.0743 244.6433 269.5332 242.2961 271.8804 238.7195 272.8864 237.7135 274.0041 237.1547 275.5689 236.9311 279.9279 237.1547 284.9576 238.3842 301.8351 245.314 309.8826 250.3437 312.118 252.6909 314.3535 255.7087 315.9183 262.3032 318.2655 276.7217 318.2655 280.6337 316.8124 286.4458 317.036 288.1223 319.2714 291.1402 339.8373 306.4528 342.6316 307.6823 354.8146 309.6942 356.9383 310.5883 359.1737 311.8178 358.9502 318.4123 356.4912 329.1424 341.0668 374.1861 341.6256 377.8746 344.1964 383.5749 344.4199 386.3692 343.5257 389.387 340.6197 392.0695 335.8135 395.0873 323.9658 416.3239 321.1715 419.2299 318.3772 420.9065 316.03 421.4653 313.9064 422.3595 312.7887 424.4832 312.9004 426.9421 315.4712 431.1894 317.5948 433.3131 321.1715 435.9956 321.9539 437.5604 321.8421 439.3487 320.3891 441.5842 318.6008 442.9254 314.577 445.6079 313.7946 447.2845 313.7946 450.1905 314.3535 454.8849 318.3772 464.7208 315.9183 469.527 297.1407 465.3914 290.2109 462.0383 284.3988 457.5674 282.834 456.785 281.1574 456.1144 275.9042 453.0966 274.0041 450.7494 272.3275 448.9611 269.8685 447.9551 266.4036 448.0669 259.9209 449.7435 256.2325 451.7553 253.5499 453.6554 251.6498 454.6614 249.5262 454.5496 247.2908 453.0966 244.4965 449.6317 243.267 448.4022 241.7022 447.7316 239.9139 447.2845 237.902 447.0609 236.0019 447.3963 233.99 448.9611 233.7664 451.5318 234.2135 454.3261 236.0019 460.5853 236.2254 464.609 232.537 468.4092 225.6072 471.2035 187.605 470.98 185.146 470.0858 182.687 468.521 177.7691 464.3855 172.8512 458.5734 169.8333 456.785 157.5385 452.426 153.0677 449.7435 144.9084 442.9254 143.5671 442.143 141.2199 441.3606 132.9488 439.684 130.0428 438.5663 128.2545 437.3369 124.3425 430.9659 122.8894 429.5129 121.1011 429.4011 118.9774 430.407 115.7361 434.2073 113.836 437.0015 111.8241 439.1252 109.5887 439.4605 106.2355 437.5604 103.7766 435.7721 101.0941 435.2132 98.5233 436.3309 91.1464 443.149 83.0989 448.0669 82.7636 448.0669 78.181 437.3369 63.8743 418.6711 55.2679 410.5118 51.9147 403.9173 54.1502 397.0992 56.8327 392.4048 61.6388 376.3098 67.2274 377.0922 68.5686 376.5333 69.9099 375.3039 72.3689 371.9507 74.6043 369.8271 81.087 366.0268 83.4342 363.9032 85.1108 360.7736 85.8932 358.4264 86.452 356.0792 87.6815 353.6202 89.8052 351.6084 94.1642 349.4847 103.1059 347.1375 105.9002 345.908 115.6243 339.7606 118.0833 339.09 120.3187 339.2018 125.3484 342.3314 127.025 342.7784 130.937 343.002 132.9488 343.5608 134.7372 344.3432 141.4435 349.3729 143.12 350.3789 144.7966 350.9377 150.0498 351.3848 163.3506 351.0495 165.1389 350.2671 166.2567 349.1494 166.7037 346.8022 167.2626 345.3492 168.1568 344.2315 170.1686 343.7844 183.4694 344.455 184.14 345.0139 184.6989 345.6845 186.7108 348.4788 191.8523 357.1969 193.0817 358.8735 194.423 359.9912 195.7642 360.6618 197.329 360.8854 199.1174 360.6618 201.241 359.7677 209.9592 354.1791 218.5656 350.7142 223.4835 346.5787 224.713 346.0198 226.2778 345.4609 231.6428 344.7903 233.4311 344.1197 234.7724 343.2255 236.3372 341.6607 239.2432 340.0959 240.3609 339.2018 241.9257 337.0781 243.1552 335.9604 245.6142 334.5074 245.8377 334.0603 244.8318 333.2779 241.4787 331.3778 240.4727 330.4836 239.5785 329.3659 239.1315 327.2422 239.1315 324.2244 240.1374 318.5241 243.3788 307.7941 243.7141 305.4469 243.3788 303.7703 241.7022 302.6526 239.8021 302.5408 229.5191 304.3292 224.9365 304.4409 223.5953 304.2174 222.5893 303.3232 222.0305 301.7584 221.1363 296.9523 220.3539 294.8286 219.5715 292.9285 217.5596 289.3518 215.3242 286.334 212.5299 283.5397 207.612 279.6277 207.3884 278.1747 208.2826 276.1628 219.1244 265.6563 224.3777 258.3912 235.1077 237.3782Z" />
  <path class="Ararat" d="M511.8531 480.3688L510.1766 492.44 506.5999 506.2997 506.3763 511.5529 507.047 515.5767 520.5713 548.7727 521.8008 552.5729 522.4714 554.026 523.2538 555.0319 524.148 555.7025 527.6129 557.2673 528.9541 558.7204 529.2894 561.4029 528.9541 570.7916 529.6248 574.5919 530.7425 578.1685 532.7543 582.9747 533.5367 586.6631 534.2074 595.7166 534.6545 598.5109 537.337 604.8818 529.7365 621.9828 527.5011 628.6891 527.2776 630.2539 527.2776 644.1135 526.2716 653.167 523.9244 650.1492 512.9708 644.6724 501.0113 648.8079 489.1636 657.8614 487.2635 658.9791 478.8806 663.6735 468.0388 666.2442 453.9557 666.0207 439.0901 668.815 430.0366 672.8387 425.1187 664.3441 405.447 638.4132 403.6586 635.1718 402.0938 633.8306 400.529 633.4953 396.9524 634.0541 395.3876 633.8306 389.4637 630.1421 377.8395 616.7296 373.5922 619.3003 372.3627 616.9531 372.2509 612.2587 371.245 608.1232 366.4388 604.6583 363.7563 601.864 362.5268 598.1756 361.0738 591.8046 357.3854 585.769 349.2261 576.6037 330.6721 560.3969 303.9587 544.6372 303.9587 544.3019 303.7352 537.3721 302.9528 533.1248 300.1585 525.189 294.4582 514.0119 294.7935 512.2235 296.3583 509.541 300.6056 505.629 305.4118 497.6933 307.6472 495.2343 310.665 493.3342 319.4949 489.7575 322.2892 488.081 323.0716 484.6161 326.8718 483.6101 328.3249 484.2807 330.5603 486.2926 331.2309 487.7457 331.5662 489.6458 331.4545 491.5459 330.5603 496.5756 330.3367 499.0345 330.5603 500.4876 330.8956 502.2759 331.678 504.0642 332.6839 505.7408 333.9134 507.0821 334.6958 507.8645 335.4782 508.3116 346.6553 510.9941 349.8967 512.4471 352.0204 514.3472 354.9264 521.1652 355.597 522.1712 356.603 523.1771 359.8443 525.8596 360.962 526.1949 362.7504 526.0832 366.6624 525.0772 375.3805 519.2651 389.3519 500.3758 392.3697 501.9406 395.4993 509.3175 397.7348 511.5529 401.6468 513.6766 403.7704 513.9001 419.7537 511.1058 432.8309 506.8585 456.8617 493.2224 466.027 489.4222 477.6512 485.9573 490.0578 480.8158 499.7818 479.6981 511.8531 480.3688Z" />
  <path class="Armavir" d="M323.0716 484.6161L322.2892 488.081 319.4949 489.7575 310.665 493.3342 307.6472 495.2343 305.4118 497.6933 300.6056 505.629 296.3583 509.541 294.7935 512.2235 294.4582 514.0119 300.1585 525.189 302.9528 533.1248 303.7352 537.3721 303.9587 544.3019 303.9587 544.6372 286.2989 534.2425 274.5629 530.6658 263.7211 530.6658 244.3847 535.919 235.2195 537.0367 228.625 538.9369 225.3836 539.4957 222.5893 538.4898 218.5656 534.5778 215.436 533.6836 208.6179 535.5837 197.4408 543.4077 192.2993 545.196 153.7383 538.6015 118.7539 519.1534 89.4699 510.7705 74.7161 502.723 70.5805 490.5399 75.0514 486.4044 89.5816 483.2748 92.7112 477.9098 90.5876 473.1036 80.6399 460.8088 77.175 453.4319 83.0989 448.8493 82.7636 448.0669 83.0989 448.0669 91.1464 443.149 98.5233 436.3309 101.0941 435.2132 103.7766 435.7721 106.2355 437.5604 109.5887 439.4605 111.8241 439.1252 113.836 437.0015 115.7361 434.2073 118.9774 430.407 121.1011 429.4011 122.8894 429.5129 124.3425 430.9659 128.2545 437.3369 130.0428 438.5663 132.9488 439.684 141.2199 441.3606 143.5671 442.143 144.9084 442.9254 153.0677 449.7435 157.5385 452.426 169.8333 456.785 172.8512 458.5734 177.7691 464.3855 182.687 468.521 185.146 470.0858 187.605 470.98 225.6072 471.2035 232.537 468.4092 236.2254 464.609 236.0019 460.5853 234.2135 454.3261 233.7664 451.5318 233.99 448.9611 236.0019 447.3963 237.902 447.0609 239.9139 447.2845 241.7022 447.7316 243.267 448.4022 244.4965 449.6317 247.2908 453.0966 249.5262 454.5496 251.6498 454.6614 253.5499 453.6554 256.2325 451.7553 259.9209 449.7435 266.4036 448.0669 269.8685 447.9551 272.3275 448.9611 274.0041 450.7494 275.9042 453.0966 281.1574 456.1144 282.834 456.785 284.3988 457.5674 290.2109 462.0383 297.1407 465.3914 315.9183 469.527 318.9361 473.6625 319.4949 479.251 319.942 481.0394 323.0716 484.6161Z" />
  <path class="Erevan" d="M389.3519 500.3758L375.3805 519.2651 366.6624 525.0772 362.7504 526.0832 360.962 526.1949 359.8443 525.8596 356.603 523.1771 355.597 522.1712 354.9264 521.1652 352.0204 514.3472 349.8967 512.4471 346.6553 510.9941 335.4782 508.3116 334.6958 507.8645 333.9134 507.0821 332.6839 505.7408 331.678 504.0642 330.8956 502.2759 330.5603 500.4876 330.3367 499.0345 330.5603 496.5756 331.4545 491.5459 331.5662 489.6458 331.2309 487.7457 330.5603 486.2926 328.3249 484.2807 326.8718 483.6101 323.0716 484.6161 319.942 481.0394 319.4949 479.251 318.9361 473.6625 315.9183 469.527 318.3772 464.7208 319.2714 462.8207 319.4949 462.3736 319.942 461.703 320.6127 461.1441 321.395 460.8088 322.5128 460.697 325.7541 461.2559 327.5425 461.3677 329.219 461.1441 330.225 460.8088 332.2369 459.4675 333.131 459.0205 334.137 459.0205 338.049 460.0264 350.5673 458.7969 352.4674 458.3498 361.5209 453.7672 365.0976 452.7613 367.6683 453.6554 370.6861 455.4438 375.2688 461.5912 378.063 464.1619 379.5161 466.062 379.9631 467.068 379.069 468.8563 377.7277 470.6447 372.5862 476.2332 371.5803 477.798 370.4626 479.9217 369.4567 482.6042 368.5625 485.5102 368.0036 488.3045 368.8978 490.7635 371.0215 492.3283 376.4982 492.6636 382.7574 491.8812 384.7693 492.5518 386.893 494.1166 389.3519 500.3758Z" />
  <path class="Gegharkunik" d="M437.0782 275.604L475.1922 267.5564 479.8866 269.0095 484.581 271.5802 486.8164 273.2568 490.8402 277.1688 492.7403 278.51 496.4287 280.0748 498.8877 280.6337 501.2349 280.8572 514.6474 278.1747 519.4536 276.3864 521.3537 275.2686 522.9185 273.9274 524.2597 272.2508 525.4892 270.3507 529.2894 260.4031 530.4072 258.1677 531.9719 256.4911 533.7603 255.1498 546.0551 249.8966 548.7376 248.3318 558.1264 240.9549 560.3618 240.2843 562.2619 240.5078 568.6329 242.4079 579.81 243.5256 582.7161 244.5316 584.6162 246.2081 591.9931 255.3734 593.6696 256.7146 595.458 257.3853 601.1583 258.9501 603.1702 259.956 605.1821 261.409 608.8705 264.8739 611.7766 268.7859 615.8003 272.8097 621.836 275.0451 621.9477 275.1569 621.9477 282.9809 626.5304 292.705 632.6778 298.8524 639.1605 303.9938 644.7491 310.9237 645.9785 315.171 646.6492 324.448 648.214 328.9188 651.12 332.2719 657.7145 336.7428 660.5088 341.549 670.7917 363.7914 689.7928 381.563 764.456 423.9243 764.6795 424.2596 778.3156 439.3487 784.6866 439.684 786.922 439.0134 791.3928 437.6722 798.4344 437.2251 803.1288 439.684 807.7114 444.2667 815.9825 455.1085 816.5414 457.5674 816.7649 460.0264 816.5414 462.4854 810.7293 489.4222 806.8173 499.7052 800.6699 507.9762 793.6283 514.2354 792.3988 517.365 788.5986 536.5897 786.4749 541.0605 782.1158 544.749 759.7616 546.8726 707.1174 538.1545 686.8868 551.3435 687.3339 555.479 687.2221 555.479 686.1044 555.3672 683.1983 553.4671 681.5218 551.2317 680.8512 550.3375 679.8452 549.5551 678.6157 549.2198 677.1627 549.3316 675.1508 551.1199 674.1449 552.4612 670.7917 557.7144 666.2091 561.7382 654.9202 567.662 649.5552 569.4504 627.7598 573.1388 619.7123 573.1388 609.8765 574.9272 586.2927 573.6977 583.3867 574.2565 573.2155 578.1685 569.3035 580.404 565.2798 583.1982 552.5378 595.046 537.337 604.8818 534.6545 598.5109 534.2074 595.7166 533.5367 586.6631 532.7543 582.9747 530.7425 578.1685 529.6248 574.5919 528.9541 570.7916 529.2894 561.4029 528.9541 558.7204 527.6129 557.2673 524.148 555.7025 523.2538 555.0319 522.4714 554.026 521.8008 552.5729 520.5713 548.7727 507.047 515.5767 506.3763 511.5529 506.5999 506.2997 510.1766 492.44 511.8531 480.3688 507.047 473.1036 485.1398 447.3963 484.0221 444.7138 483.7986 442.0312 484.581 437.3369 486.3693 434.5426 489.2754 431.0777 488.6047 426.1597 473.7392 370.4977 472.6215 367.5916 469.9389 364.7974 460.5502 358.3146 459.4325 356.6381 458.8736 354.738 459.4325 351.7201 460.7737 346.4669 461.3326 343.5608 460.8855 339.9842 459.5442 336.0722 456.0793 330.3718 453.8439 327.5776 451.9438 325.901 450.1554 325.5657 442.8903 325.901 440.8784 325.5657 439.2019 323.5538 437.8606 320.4242 434.3957 297.8464 434.3957 293.9344 434.9546 290.4695 437.0782 286.1105 438.0842 283.7633 437.0782 275.604ZM666.768 295.9463L655.8144 292.5932 653.9143 288.5694 653.2437 284.2103 653.9143 279.7395 655.8144 275.604 659.8382 272.6979 664.1972 271.3567 668.8916 271.2449 673.586 271.9155 681.8571 276.6099 677.498 287.6752 666.768 295.9463Z" />
  <path class="Kotayk" d="M429.366 269.233L437.0782 275.604 438.0842 283.7633 437.0782 286.1105 434.9546 290.4695 434.3957 293.9344 434.3957 297.8464 437.8606 320.4242 439.2019 323.5538 440.8784 325.5657 442.8903 325.901 450.1554 325.5657 451.9438 325.901 453.8439 327.5776 456.0793 330.3718 459.5442 336.0722 460.8855 339.9842 461.3326 343.5608 460.7737 346.4669 459.4325 351.7201 458.8736 354.738 459.4325 356.6381 460.5502 358.3146 469.9389 364.7974 472.6215 367.5916 473.7392 370.4977 488.6047 426.1597 489.2754 431.0777 486.3693 434.5426 484.581 437.3369 483.7986 442.0312 484.0221 444.7138 485.1398 447.3963 507.047 473.1036 511.8531 480.3688 499.7818 479.6981 490.0578 480.8158 477.6512 485.9573 466.027 489.4222 456.8617 493.2224 432.8309 506.8585 419.7537 511.1058 403.7704 513.9001 401.6468 513.6766 397.7348 511.5529 395.4993 509.3175 392.3697 501.9406 389.3519 500.3758 386.893 494.1166 384.7693 492.5518 382.7574 491.8812 376.4982 492.6636 371.0215 492.3283 368.8978 490.7635 368.0036 488.3045 368.5625 485.5102 369.4567 482.6042 370.4626 479.9217 371.5803 477.798 372.5862 476.2332 377.7277 470.6447 379.069 468.8563 379.9631 467.068 379.5161 466.062 378.063 464.1619 375.2688 461.5912 370.6861 455.4438 367.6683 453.6554 365.0976 452.7613 361.5209 453.7672 352.4674 458.3498 350.5673 458.7969 338.049 460.0264 334.137 459.0205 333.131 459.0205 332.2369 459.4675 330.225 460.8088 329.219 461.1441 327.5425 461.3677 325.7541 461.2559 322.5128 460.697 321.395 460.8088 320.6127 461.1441 319.942 461.703 319.4949 462.3736 319.2714 462.8207 318.3772 464.7208 314.3535 454.8849 313.7946 450.1905 313.7946 447.2845 314.577 445.6079 318.6008 442.9254 320.3891 441.5842 321.8421 439.3487 321.9539 437.5604 321.1715 435.9956 317.5948 433.3131 315.4712 431.1894 312.9004 426.9421 312.7887 424.4832 313.9064 422.3595 316.03 421.4653 318.3772 420.9065 321.1715 419.2299 323.9658 416.3239 335.8135 395.0873 340.6197 392.0695 343.5257 389.387 344.4199 386.3692 344.1964 383.5749 341.6256 377.8746 341.0668 374.1861 356.4912 329.1424 358.9502 318.4123 359.1737 311.8178 356.9383 310.5883 354.8146 309.6942 342.6316 307.6823 339.8373 306.4528 319.2714 291.1402 317.036 288.1223 316.8124 286.4458 318.2655 280.6337 318.2655 276.7217 315.9183 262.3032 342.7433 255.2616 350.6791 254.7028 355.9323 258.2794 358.9502 259.6207 361.5209 259.1736 367.7801 256.3793 370.1273 256.2675 372.2509 256.8264 388.2342 265.2092 401.3114 269.3448 416.6241 270.7978 419.9772 270.686 429.366 269.233Z" />
  <path class="Lori" d="M174.863 57.5384L174.9748 57.5384 182.3517 55.7501 195.2054 49.938 201.5763 49.2673 215.1007 53.0675 221.9187 51.8381 228.1779 48.3732 233.2076 43.3435 234.8842 39.2079 235.1077 35.6312 235.8901 32.3899 239.6903 29.7074 243.1552 29.7074 251.7616 33.284 267.2978 44.1259 273.2217 46.3613 280.7103 45.1318 283.7282 43.1199 286.0754 40.4374 288.6461 38.0902 292.4463 36.8607 296.3583 37.3078 313.4593 47.7025 320.5009 50.2733 327.6542 50.8321 335.4782 48.4849 341.9609 41.3316 343.9728 39.655 347.4377 39.5432 349.1143 42.7846 350.232 47.1437 352.0204 50.385 358.6149 52.2851 363.3092 48.0378 367.2212 41.3316 371.3568 35.743 378.2866 32.6134 384.7693 33.5076 398.1818 38.8726 445.1257 39.8785 453.5086 38.6491 456.6382 34.29 455.4087 32.5017 455.5205 32.5017 463.1209 33.284 474.0745 40.5492 477.3158 44.1259 477.9865 46.6966 477.7629 48.8202 476.9805 50.8321 475.5275 52.3969 471.0567 55.7501 466.474 58.3208 465.1328 59.5503 464.2386 62.5681 463.7915 68.3802 465.021 77.3219 466.5858 81.4574 468.933 83.8046 471.6155 84.587 475.0804 86.2636 478.3218 88.9461 482.0102 94.6464 482.6809 97.9996 481.7867 100.7938 461.109 116.8889 457.6441 118.3419 454.8498 118.5655 452.2791 117.6713 448.1436 114.7652 446.0199 113.7593 443.7845 113.5358 441.7726 114.0946 439.7607 115.5476 429.366 127.7307 428.8072 130.1897 429.0307 132.5369 430.2602 134.5487 433.278 138.0136 441.3255 145.167 445.3493 147.5142 447.4729 148.1848 452.1673 148.6319 456.6382 148.6319 457.7559 148.8554 458.8736 149.4143 459.7678 150.0849 463.568 151.8733 464.6857 152.8792 466.027 155.897 467.2564 157.2383 470.9449 160.4796 472.7332 163.9446 471.9508 166.0682 470.2743 167.8565 468.3741 169.4213 465.6916 172.5509 464.6857 173.4451 463.2327 174.2275 461.6679 175.5688 460.2149 177.8042 458.8736 180.7102 452.1673 202.6174 450.379 205.9705 448.5906 208.3177 446.6905 209.9943 444.3433 211.112 433.3898 214.1298 427.3541 217.0359 425.0069 218.936 422.8833 221.7303 422.7715 223.8539 423.3304 225.9776 424.2245 228.4365 425.9011 234.0251 427.1306 236.484 429.7013 244.6433 429.366 269.233 419.9772 270.686 416.6241 270.7978 401.3114 269.3448 388.2342 265.2092 372.2509 256.8264 370.1273 256.2675 367.7801 256.3793 361.5209 259.1736 358.9502 259.6207 355.9323 258.2794 350.6791 254.7028 342.7433 255.2616 315.9183 262.3032 314.3535 255.7087 312.118 252.6909 309.8826 250.3437 301.8351 245.314 284.9576 238.3842 279.9279 237.1547 275.5689 236.9311 274.0041 237.1547 272.8864 237.7135 271.8804 238.7195 269.5332 242.2961 267.0743 244.6433 263.6094 246.5435 258.0208 247.6612 254.6677 247.2141 252.0969 246.0964 250.5321 244.308 247.4025 240.2843 244.9436 237.8253 242.9317 236.8194 240.808 236.3723 239.2432 236.484 235.1077 237.3782 221.6952 237.9371 219.4597 237.2664 216.889 236.037 215.8831 234.2486 213.7594 228.8836 211.524 225.8658 209.2886 224.4128 197.8879 222.7362 195.5407 221.1714 193.8641 218.8242 193.0817 216.0299 191.8523 212.7886 190.3992 209.659 187.8285 205.1881 186.8226 202.3938 186.8226 199.7113 189.1697 195.3523 189.6168 194.1228 192.2993 182.7221 193.0817 180.3749 193.9759 178.363 194.3112 178.0277 194.8701 177.5806 195.6525 177.2453 196.6584 177.1336 197.8879 177.5806 203.0294 180.3749 205.2648 180.822 207.7238 180.5985 210.2945 179.8161 212.1946 178.4748 213.4241 176.4629 213.8712 171.8803 214.3183 169.086 215.5477 166.6271 219.2362 163.1622 220.4657 161.0385 222.8129 147.4024 222.254 145.8376 221.3598 145.167 214.0947 145.5023 206.8296 144.6081 204.7059 143.8257 202.6941 142.5963 200.9057 140.5844 200.4586 138.9078 200.7939 137.2312 201.6881 136.1135 204.4824 134.1017 205.7119 132.8722 206.7178 130.9721 207.0531 127.8425 206.7178 125.9424 206.0472 124.6011 205.153 123.9305 199.3409 120.1303 196.882 117.6713 194.1994 114.4299 188.2756 104.8176 186.2637 102.2469 184.6989 101.0174 177.2102 97.9996 174.9748 96.7701 172.1805 94.1993 171.2864 92.411 171.0628 89.952 174.7513 58.209 174.863 57.5384Z" />
  <path class="Shirak" d="M174.863 57.5384L174.7513 58.209 171.0628 89.952 171.2864 92.411 172.1805 94.1993 174.9748 96.7701 177.2102 97.9996 184.6989 101.0174 186.2637 102.2469 188.2756 104.8176 194.1994 114.4299 196.882 117.6713 199.3409 120.1303 205.153 123.9305 206.0472 124.6011 206.7178 125.9424 207.0531 127.8425 206.7178 130.9721 205.7119 132.8722 204.4824 134.1017 201.6881 136.1135 200.7939 137.2312 200.4586 138.9078 200.9057 140.5844 202.6941 142.5963 204.7059 143.8257 206.8296 144.6081 214.0947 145.5023 221.3598 145.167 222.254 145.8376 222.8129 147.4024 220.4657 161.0385 219.2362 163.1622 215.5477 166.6271 214.3183 169.086 213.8712 171.8803 213.4241 176.4629 212.1946 178.4748 210.2945 179.8161 207.7238 180.5985 205.2648 180.822 203.0294 180.3749 197.8879 177.5806 196.6584 177.1336 195.6525 177.2453 194.8701 177.5806 194.3112 178.0277 193.9759 178.363 193.0817 180.3749 192.2993 182.7221 189.6168 194.1228 189.1697 195.3523 186.8226 199.7113 186.8226 202.3938 187.8285 205.1881 190.3992 209.659 191.8523 212.7886 193.0817 216.0299 193.8641 218.8242 195.5407 221.1714 197.8879 222.7362 209.2886 224.4128 211.524 225.8658 213.7594 228.8836 215.8831 234.2486 216.889 236.037 219.4597 237.2664 221.6952 237.9371 235.1077 237.3782 224.3777 258.3912 219.1244 265.6563 208.2826 276.1628 207.3884 278.1747 207.612 279.6277 212.5299 283.5397 215.3242 286.334 217.5596 289.3518 219.5715 292.9285 220.3539 294.8286 221.1363 296.9523 222.0305 301.7584 222.5893 303.3232 223.5953 304.2174 224.9365 304.4409 229.5191 304.3292 239.8021 302.5408 241.7022 302.6526 243.3788 303.7703 243.7141 305.4469 243.3788 307.7941 240.1374 318.5241 239.1315 324.2244 239.1315 327.2422 239.5785 329.3659 240.4727 330.4836 241.4787 331.3778 244.8318 333.2779 245.8377 334.0603 245.6142 334.5074 243.1552 335.9604 241.9257 337.0781 240.3609 339.2018 239.2432 340.0959 236.3372 341.6607 234.7724 343.2255 233.4311 344.1197 231.6428 344.7903 226.2778 345.4609 224.713 346.0198 223.4835 346.5787 218.5656 350.7142 209.9592 354.1791 201.241 359.7677 199.1174 360.6618 197.329 360.8854 195.7642 360.6618 194.423 359.9912 193.0817 358.8735 191.8523 357.1969 186.7108 348.4788 184.6989 345.6845 184.14 345.0139 183.4694 344.455 170.1686 343.7844 168.1568 344.2315 167.2626 345.3492 166.7037 346.8022 166.2567 349.1494 165.1389 350.2671 163.3506 351.0495 150.0498 351.3848 144.7966 350.9377 143.12 350.3789 141.4435 349.3729 134.7372 344.3432 132.9488 343.5608 130.937 343.002 127.025 342.7784 125.3484 342.3314 120.3187 339.2018 118.0833 339.09 115.6243 339.7606 105.9002 345.908 103.1059 347.1375 94.1642 349.4847 89.8052 351.6084 87.6815 353.6202 86.452 356.0792 85.8932 358.4264 85.1108 360.7736 83.4342 363.9032 81.087 366.0268 74.6043 369.8271 72.3689 371.9507 69.9099 375.3039 68.5686 376.5333 67.2274 377.0922 61.6388 376.3098 61.9741 375.4156 61.9741 372.5096 49.0087 361.4442 42.1906 353.732 40.8494 348.2552 51.803 335.178 58.7328 330.3718 66.3332 329.3659 65.4391 326.3481 64.8802 325.1186 63.8743 323.442 65.8861 324.1127 67.2274 324.448 68.6804 325.0068 70.5805 326.5716 70.2452 316.4004 74.6043 307.6823 88.1286 291.699 85.6696 282.1985 87.6815 279.516 94.276 267.6682 95.282 264.2033 93.6054 234.9193 92.4877 227.9894 89.4699 220.0537 76.1691 198.7054 72.9277 190.2108 71.1394 180.5985 70.4688 172.1039 69.0157 164.0563 65.4391 155.6735 55.3796 143.0433 42.7495 132.5369 29.0017 125.607 15.2538 123.5952 9.1064 117.7831 3.9649 105.7118 1.3942 92.1875 2.7354 82.2398 5.865 83.0222 9.1064 83.134 12.236 82.3516 29.5605 75.31 43.0848 74.7512 95.3937 82.1281 103.2177 81.5692 109.4769 78.8867 124.3425 65.6977 138.0903 59.8856 167.8215 59.3267 174.863 57.5384Z" />
  <path class="Syunik" d="M761.4382 610.9175L763.8971 615.9472 778.3156 630.3657 785.1337 633.9424 795.7519 639.3074 815.9825 645.4548 824.7007 653.9494 837.1073 679.0979 847.1667 687.2572 859.238 690.7221 864.8265 693.8517 869.4091 699.552 876.8978 713.8587 881.5922 718.3296 888.7455 720.565 899.8109 718.2178 921.718 707.0407 932.6716 707.8231 937.2542 711.5116 944.7429 721.7945 949.5491 725.2594 955.92 726.3771 976.1506 724.3652 981.2921 725.5947 986.6571 729.0596 990.5691 734.4246 991.4633 741.2427 988.669 746.4959 983.9746 749.402 980.1744 752.8669 980.0626 759.6849 982.298 764.1558 982.1862 767.956 980.0626 770.9738 976.1506 772.8739 976.0388 772.9857 952.5669 777.3448 942.3957 783.604 938.1484 794.334 942.6193 807.2994 953.1257 815.4587 976.1506 825.8535 981.2921 830.1008 983.6393 836.0246 985.3158 842.6191 988.4454 848.7666 996.1576 856.9259 1009.7937 866.5382 1011.9174 868.5501 1014.1528 871.009 1014.4881 872.1267 1015.6058 874.921 1012.8116 876.374 1006.1053 876.5976 991.2397 887.2158 987.3277 887.7747 967.8795 877.9388 956.5906 876.4858 949.2138 883.4156 949.5491 896.0458 957.7084 904.2051 968.4384 910.3525 976.1506 916.6117 980.1744 930.136 981.9627 941.8719 981.0685 953.3844 976.8212 966.4616 976.5977 967.8029 976.1506 968.9206 975.0329 973.9503 974.474 979.0917 974.8094 984.1215 976.1506 988.9276 987.216 1012.3996 981.5156 1010.8348 948.096 995.8574 943.737 994.9633 940.3838 995.4103 932.5598 997.8693 920.1532 998.4282 915.9059 999.4341 909.7585 1002.4519 893.1046 1014.5232 887.4043 1017.2057 866.1678 1020 847.502 984.345 830.7363 937.6246 824.2536 924.5474 815.9825 912.5879 809.1645 901.4108 806.2584 890.569 808.2703 880.0625 815.9825 869.7795 818.1062 866.9853 818.7768 864.0792 817.9944 860.9496 815.9825 857.7083 809.388 851.4491 791.1693 842.3956 786.4749 840.1602 778.7627 834.2363 772.7271 827.53 766.1326 822.165 747.9139 817.4706 747.1315 815.4587 745.2314 811.2114 747.355 802.9404 758.085 785.1688 759.5381 778.5743 756.632 759.6849 756.632 759.5732 757.638 749.0667 757.638 742.0251 754.7319 736.7718 747.4668 731.5186 738.6369 728.1655 731.1482 728.2772 729.3598 728.7243 729.3598 728.6125 729.1363 727.9419 727.5715 723.8064 727.2362 722.1298 726.9009 719.8944 735.5073 686.2513 736.7367 677.4213 736.625 671.0504 730.4776 659.7615 731.26 655.1789 734.0542 648.9197 751.0435 619.971 755.8496 614.1589 761.4382 610.9175Z" />
  <path class="Tavush" d="M621.9477 275.1569L621.836 275.0451 615.8003 272.8097 611.7766 268.7859 608.8705 264.8739 605.1821 261.409 603.1702 259.956 601.1583 258.9501 595.458 257.3853 593.6696 256.7146 591.9931 255.3734 584.6162 246.2081 582.7161 244.5316 579.81 243.5256 568.6329 242.4079 562.2619 240.5078 560.3618 240.2843 558.1264 240.9549 548.7376 248.3318 546.0551 249.8966 533.7603 255.1498 531.9719 256.4911 530.4072 258.1677 529.2894 260.4031 525.4892 270.3507 524.2597 272.2508 522.9185 273.9274 521.3537 275.2686 519.4536 276.3864 514.6474 278.1747 501.2349 280.8572 498.8877 280.6337 496.4287 280.0748 492.7403 278.51 490.8402 277.1688 486.8164 273.2568 484.581 271.5802 479.8866 269.0095 475.1922 267.5564 437.0782 275.604 429.366 269.233 429.7013 244.6433 427.1306 236.484 425.9011 234.0251 424.2245 228.4365 423.3304 225.9776 422.7715 223.8539 422.8833 221.7303 425.0069 218.936 427.3541 217.0359 433.3898 214.1298 444.3433 211.112 446.6905 209.9943 448.5906 208.3177 450.379 205.9705 452.1673 202.6174 458.8736 180.7102 460.2149 177.8042 461.6679 175.5688 463.2327 174.2275 464.6857 173.4451 465.6916 172.5509 468.3741 169.4213 470.2743 167.8565 471.9508 166.0682 472.7332 163.9446 470.9449 160.4796 467.2564 157.2383 466.027 155.897 464.6857 152.8792 463.568 151.8733 459.7678 150.0849 458.8736 149.4143 457.7559 148.8554 456.6382 148.6319 452.1673 148.6319 447.4729 148.1848 445.3493 147.5142 441.3255 145.167 433.278 138.0136 430.2602 134.5487 429.0307 132.5369 428.8072 130.1897 429.366 127.7307 439.7607 115.5476 441.7726 114.0946 443.7845 113.5358 446.0199 113.7593 448.1436 114.7652 452.2791 117.6713 454.8498 118.5655 457.6441 118.3419 461.109 116.8889 481.7867 100.7938 482.6809 97.9996 482.0102 94.6464 478.3218 88.9461 475.0804 86.2636 471.6155 84.587 468.933 83.8046 466.5858 81.4574 465.021 77.3219 463.7915 68.3802 464.2386 62.5681 465.1328 59.5503 466.474 58.3208 471.0567 55.7501 475.5275 52.3969 476.9805 50.8321 477.7629 48.8202 477.9865 46.6966 477.3158 44.1259 474.0745 40.5492 463.1209 33.284 455.5205 32.5017 455.4087 32.5017 453.285 29.3721 441.2138 23.56 438.643 17.5243 444.7904 11.2651 475.751 16.1831 487.9341 15.736 491.8461 13.0535 499.1112 6.459 503.0232 4 514.871 29.2603 511.6296 38.202 513.4179 43.4552 518.8947 45.8024 539.9077 45.9142 545.3845 47.5908 562.1502 60.8915 566.2857 66.9272 566.621 73.6334 555.6674 81.681 524.0362 80.3397 520.5713 94.0876 524.7068 101.1292 531.6366 105.8235 537.784 106.4942 539.7959 101.4645 540.6901 93.6405 546.0551 96.5465 556.4498 107.5001 563.0443 111.5239 567.9623 116.8889 573.2155 121.3597 588.3046 123.1481 602.3878 128.9602 609.6529 130.0779 624.6303 122.5892 627.6481 121.1362 636.478 120.1303 638.4899 130.1897 635.6956 143.9375 639.6076 148.1848 644.0784 149.4143 647.3198 150.1967 655.8144 157.2383 669.4505 174.8981 674.592 180.1514 681.0747 182.275 688.6751 182.7221 694.1519 185.7399 694.8226 195.1287 688.7869 212.565 680.2923 222.1773 655.4791 234.1369 642.5136 240.396 629.9953 250.7908 621.9477 264.9857 621.9477 275.1569ZM495.6463 92.6345L490.7284 96.2112 489.7224 102.0233 491.7343 108.5061 495.6463 113.6475 507.2705 117.6713 511.8531 107.8354 508.2765 95.6524 495.6463 92.6345ZM569.5271 141.0315L572.8802 136.3371 563.715 128.4013 562.3737 128.1778 561.1442 128.4013 560.0265 129.0719 559.0206 130.0779 562.1502 139.9138 569.5271 141.0315Z" />
  <path class="Vayots Dzor" d="M537.337 604.8818L552.5378 595.046 565.2798 583.1982 569.3035 580.404 573.2155 578.1685 583.3867 574.2565 586.2927 573.6977 609.8765 574.9272 619.7123 573.1388 627.7598 573.1388 649.5552 569.4504 654.9202 567.662 666.2091 561.7382 670.7917 557.7144 674.1449 552.4612 675.1508 551.1199 677.1627 549.3316 678.6157 549.2198 679.8452 549.5551 680.8512 550.3375 681.5218 551.2317 683.1983 553.4671 686.1044 555.3672 687.2221 555.479 687.3339 555.479 687.8927 561.2911 698.0639 565.8737 731.4835 569.3386 740.2017 573.5859 747.1315 581.2981 761.4382 610.9175 755.8496 614.1589 751.0435 619.971 734.0542 648.9197 731.26 655.1789 730.4776 659.7615 736.625 671.0504 736.7367 677.4213 735.5073 686.2513 726.9009 719.8944 727.2362 722.1298 727.5715 723.8064 729.1363 727.9419 729.3598 728.6125 729.3598 728.7243 690.1282 738.2249 681.5218 741.8015 655.8144 758.2319 652.3495 759.6849 648.7728 761.585 645.1961 762.2557 641.5077 761.6968 638.1546 759.6849 638.0428 759.6849 627.9834 749.2902 622.3948 746.3842 607.1939 744.9311 602.4996 743.031 599.2582 738.3366 595.458 729.7303 587.5222 718.4414 585.5103 715.6471 577.0157 718.5531 567.8505 727.0477 556.0028 729.842 549.7436 725.8183 548.5141 719.7826 551.6437 704.8053 552.2025 695.0812 550.8613 687.369 547.5081 680.4392 526.2716 653.167 527.2776 644.1135 527.2776 630.2539 527.5011 628.6891 529.7365 621.9828 537.337 604.8818Z" />
</svg>