<?xml version="1.0" encoding="utf-8"?>
<svg xmlns="http://www.w3.org/2000/svg" viewBox="0 0 1021 807" style="stroke-width:0.25px;stroke-linejoin:round;stroke:#444;fill:#ddd" fill-rule="evenodd">
  <path class="Agadez" d="M419.8066 555.9559L416.0064 517.8419 417.4594 507.0001 417.3476 505.8824 417.1241 504.9882 416.0064 504.4294 406.0587 501.7469 405.6117 501.6351 404.7175 501.0762 400.3584 497.7231 400.0231 497.276 399.576 496.8289 398.5701 494.8171 398.3465 494.1464 384.2634 460.168 384.0398 459.7209 378.3395 453.2382 363.921 442.2846 329.6073 420.601 328.266 419.4833 326.813 418.142 318.3184 406.5178 307.1413 397.129 306.2471 396.2349 305.8 395.2289 304.4587 388.4109 304.0117 387.5167 303.1175 387.1814 296.2994 386.6226 295.1817 386.399 294.1758 385.9519 293.6169 384.7224 293.2816 383.94 293.0581 383.2694 292.9463 382.9341 292.9463 382.0399 293.3934 381.2575 295.2935 378.2397 295.4053 377.3455 294.7347 369.298 294.8464 368.9627 295.2935 367.5097 295.4053 367.1744 295.4053 366.7273 295.4053 366.392 295.1817 365.6096 294.8464 364.6036 294.6229 363.0388 294.5111 362.2564 294.5111 361.8094 294.6229 361.3623 295.1817 359.6857 303.5646 342.0259 297.5289 340.2375 263.774 339.7904 263.6623 339.7904 262.8799 339.7904 262.8799 339.6787 262.8799 331.2958 262.7681 322.913 262.7681 314.5301 262.7681 306.4826 262.7681 306.0355 274.8394 303.5766 287.0224 301.1176 299.0937 298.6586 311.2768 296.1997 317.6477 294.9702 331.7309 292.0641 345.8141 289.2699 352.185 287.9286 360.4561 286.252 363.3622 285.1343 366.1564 283.2342 371.1861 278.5398 375.2099 274.8514 379.3454 271.1629 383.3692 267.4745 387.393 263.786 391.4167 260.0976 395.4405 256.4091 399.576 252.7207 403.5998 248.9205 407.6235 245.232 411.6473 241.5436 415.7828 237.8551 419.8066 234.1667 423.8304 230.3664 427.8541 226.678 431.9897 222.9895 436.0134 219.3011 439.7019 215.8362 442.1608 213.7125 447.0788 209.3535 451.6614 205.3297 456.244 201.3059 460.8266 197.3939 465.4092 193.3702 471.7802 187.7816 480.2748 182.5284 484.6339 179.7341 488.6576 177.1634 488.993 176.9398 493.352 174.2573 497.7111 171.463 502.0702 168.6688 506.4293 165.8745 510.7883 163.192 515.1474 160.3977 519.6183 157.6034 523.9773 154.8091 528.3364 152.1266 532.6955 149.3323 534.0367 148.4382 551.2495 137.2611 646.7021 76.3458 650.0552 74.2221 683.1395 53.5444 685.7102 51.9796 690.0693 49.1854 694.4284 46.3911 698.7875 43.5968 703.1465 40.6908 707.5056 37.8965 711.8647 35.1022 716.3355 32.3079 720.6946 29.5136 725.0537 26.7194 729.4128 23.9251 733.7718 21.1308 738.1309 18.3365 742.49 15.5422 746.8491 12.748 751.2081 9.8419 755.679 7.0476 760.0381 4.2534 761.7146 4.7004 765.6266 5.7064 771.327 7.0476 777.0273 8.3889 782.7276 9.8419 788.3162 11.1832 794.0165 12.5244 799.7168 13.8657 805.3054 15.3187 811.0057 16.66 816.7061 18.0012 822.2946 19.4542 827.9949 20.7955 833.6953 22.1367 839.3956 23.5898 844.9842 24.931 850.6845 26.2723 857.1672 27.9488 864.7677 32.0844 868.3443 35.3257 876.3919 42.5909 884.4394 49.7442 892.4869 56.8976 900.5344 64.0509 903.4405 66.7334 904.3347 67.1805 905.3406 67.0688 909.4761 64.8333 920.4297 58.7977 931.3833 52.8738 942.3369 46.8382 953.4022 40.8025 954.1846 45.1616 954.967 49.5207 955.7494 53.8798 956.5318 58.2388 957.3142 62.5979 958.0966 66.957 958.879 71.3161 959.5496 75.6751 960.332 80.0342 961.1144 84.3933 961.8968 88.7524 962.6792 93.1114 963.4616 97.3587 964.244 101.7178 964.8029 104.7356 965.2499 107.6417 965.8088 110.436 965.8088 111.7772 965.8088 115.4657 965.9206 120.4954 966.0323 126.3075 966.1441 132.2314 966.2559 137.2611 966.2559 140.8377 966.2559 142.2908 966.2559 144.0791 966.5912 145.1968 967.5971 146.2028 970.615 147.7675 971.8444 148.6617 974.0799 151.3442 975.5329 153.8032 976.6506 155.4798 977.7683 157.1563 978.7743 158.8329 979.892 160.5095 981.0097 162.186 982.0156 163.8626 983.1333 165.5392 984.1393 167.2157 985.257 169.0041 986.3747 170.6806 987.3806 172.3572 988.4983 174.0338 989.6161 175.7103 990.622 177.3869 991.7397 179.0635 992.7457 180.74 993.8634 182.4166 991.2926 183.8696 989.7278 186.5521 989.169 189.7935 989.7278 192.8113 990.3985 194.5997 991.4044 196.0527 992.5221 197.3939 997.7754 201.5295 999.5637 203.5414 1003.2521 207.7887 1007.0524 211.9242 1009.5113 214.7185 1010.7408 216.0597 1012.1938 217.7363 1014.4293 220.307 1015.9941 221.9836 1016.8882 223.4366 1017 224.5543 1016.5529 225.7838 1015.2117 228.131 1012.6409 232.9372 1010.0702 237.6316 1007.4994 242.326 1004.9287 247.0204 1004.0345 248.8087 1003.1404 251.1559 1002.0227 254.1737 1001.7991 257.0798 1001.4638 260.2094 1001.2403 263.2272 1001.0167 266.3568 1000.7932 268.9275 1000.6814 269.4864 1000.6814 270.4923 1000.4579 272.616 1000.2343 275.7455 999.899 278.8751 999.6755 282.0047 999.4519 285.0226 999.2284 288.1521 998.8931 291.2817 998.6695 294.4113 998.446 297.5409 998.1107 300.5587 997.8871 303.6883 997.6636 306.8179 997.3283 309.9475 997.1047 312.9653 996.8812 316.0949 996.5459 319.2245 996.3223 322.2424 996.0988 325.3719 995.7635 328.5015 995.5399 331.6311 995.3164 334.649 994.9811 337.7785 994.7575 340.9081 994.534 343.926 994.1987 347.0556 993.9751 350.1851 993.7516 353.203 993.4163 356.3326 993.1927 359.4622 992.9692 362.48 992.7457 365.6096 992.4103 368.6274 992.1868 371.757 991.9633 374.8866 991.6279 377.9044 991.4044 381.034 991.1809 383.493 990.622 383.493 826.2066 383.493 777.2508 406.6296 764.1736 415.5713 763.1677 416.4655 761.8264 417.2479 740.031 425.1836 713.7648 443.2905 694.8755 449.1026 589.9223 517.8419 567.2328 526.4483 540.9666 541.2021 529.1188 545.4494 525.3186 545.7847 513.6944 545.5612 512.4649 545.5612 511.1237 545.8965 506.0939 548.579 495.1404 548.6908 469.3212 544.667 466.8623 547.4613 461.609 562.2151 448.7553 555.2853 445.4022 555.0617 419.8066 555.9559Z" />
  <path class="Diffa" d="M675.092 692.5403L674.9802 692.205 672.8565 684.6045 673.0801 683.5986 673.5272 682.0338 684.7043 670.4096 685.1514 669.6272 685.3749 669.1801 685.4867 668.6212 685.5985 667.8388 685.5985 666.0505 685.4867 664.7092 685.5985 664.1504 685.9338 663.7033 711.9765 639.449 713.3177 638.5548 714.1001 638.443 714.9943 638.7783 717.565 640.2314 718.3474 640.5667 718.9063 640.5667 719.6887 640.4549 731.4246 636.7664 747.5197 626.26 748.4139 625.8129 748.9727 625.7011 754.3377 626.0364 755.2319 625.8129 756.0143 625.4776 760.3734 622.348 760.8205 621.7891 760.4851 621.2303 757.9144 620.3361 757.132 619.889 756.6849 619.3301 756.3496 618.6595 756.0143 617.6536 755.7908 616.6476 756.0143 615.0828 756.2378 614.3004 756.5732 613.518 757.132 612.8474 758.9204 611.7297 760.7087 610.8355 761.9382 610.7238 762.0499 610.5002 761.8264 417.2479 763.1677 416.4655 764.1736 415.5713 777.2508 406.6296 826.2066 383.493 990.622 383.493 990.5102 386.399 990.3985 388.5227 990.2867 388.858 990.2867 389.3051 990.2867 391.3169 990.2867 391.4287 990.1749 393.2171 990.1749 393.8877 990.2867 394.1112 990.0631 394.8936 990.0631 395.2289 989.9514 396.9055 989.9514 397.129 989.8396 399.2527 989.8396 399.4762 989.6161 402.6058 989.2807 405.6237 989.0572 408.7532 988.8337 411.7711 988.4983 414.9007 988.2748 417.9185 988.0513 421.0481 987.716 424.0659 987.4924 427.1955 987.2689 430.2133 986.9336 433.3429 986.71 436.3607 986.4865 439.3785 986.2629 442.5081 985.9276 445.526 985.7041 448.6556 985.4805 451.6734 985.1452 454.803 985.0334 456.4795 984.8099 457.2619 984.5864 457.9326 983.804 459.162 981.5685 461.5092 977.9919 465.4212 974.4152 469.3332 970.8385 473.2452 967.1501 477.1572 963.5734 481.0692 959.9967 484.9812 956.42 488.8932 952.7316 492.8052 949.1549 496.7172 945.5782 500.6292 942.0015 504.5411 938.3131 508.4531 934.7364 512.3651 931.1597 516.2771 927.5831 520.1891 923.8946 523.9893 921.4356 526.6718 917.6354 530.8074 914.1705 534.6076 912.3822 537.1783 910.4821 539.8608 908.4702 542.6551 906.5701 545.3376 904.67 548.0201 902.7699 550.8144 900.8697 553.4969 898.9696 556.1794 896.9578 558.8619 895.0576 561.6562 893.1575 564.3387 891.2574 567.0212 889.3573 569.7037 887.4572 572.498 885.5571 575.1805 883.5452 577.863 881.6451 580.5455 879.8568 583.2281 878.1802 586.8047 876.0565 591.3873 875.0506 593.3992 874.7153 594.6287 874.7153 596.0817 874.9388 597.423 875.833 600.329 875.9448 601.6703 875.3859 603.2351 874.38 603.6822 873.1505 603.7939 871.8092 604.1293 871.2504 604.5763 869.1267 606.9235 867.8972 607.8177 867.6737 608.153 867.7855 608.4883 868.4561 609.159 868.6796 609.4943 869.015 612.065 869.015 613.2945 868.4561 614.524 866.3325 616.3123 865.3265 616.5359 863.7617 616.8712 861.191 616.9829 858.8438 617.9889 857.1672 618.7713 855.1553 621.7891 855.0436 625.7011 856.273 630.2837 857.1672 633.6369 857.8378 636.7664 858.2849 638.7783 858.8438 640.902 859.2909 643.0256 859.738 645.1493 860.185 647.2729 860.6321 649.3966 861.0792 651.5202 861.5263 653.6439 862.0851 655.6558 862.5322 657.7794 862.9793 659.9031 863.4264 662.0267 863.8735 664.1504 864.3206 666.274 864.7677 668.3977 865.2147 670.4096 849.3432 669.7389 847.4431 670.0743 846.8843 670.5213 846.8843 671.7508 845.8783 672.4215 843.3076 674.7686 842.8605 675.4393 842.5252 676.1099 842.5252 676.3334 842.8605 676.7805 842.9723 677.2276 842.7487 677.6747 842.3017 677.7865 841.8546 677.7865 841.631 677.8982 841.0722 678.7924 841.1839 679.1277 842.0781 679.2395 840.8486 680.8043 839.2838 681.3631 837.6073 681.6985 835.9307 682.4809 836.1542 681.922 836.266 681.2514 836.1542 680.6925 835.4836 680.5807 835.1483 680.9161 834.7012 681.922 834.1424 682.4809 834.1424 681.6985 834.1424 681.4749 833.1364 681.8102 831.9069 681.922 831.2363 681.6985 831.5716 681.0278 831.5716 680.5807 829.7833 680.8043 828.1067 681.3631 822.2946 684.2692 820.618 684.6045 818.8297 684.1574 818.4944 685.2751 817.9355 685.3869 817.1531 684.9398 816.1472 684.7163 816.1472 685.1634 816.5943 685.2751 817.0414 685.6105 817.4884 685.9458 817.9355 686.5046 817.0414 687.1752 815.253 689.1871 815.253 689.4107 815.3648 689.9695 815.253 690.0813 815.0295 690.1931 814.4706 690.0813 814.3589 690.0813 814.0235 690.3048 813.2411 690.5284 813.0176 690.8637 813.2411 691.5343 813.6882 692.0932 813.6882 692.3167 812.7941 692.4285 812.6823 692.205 812.347 691.7579 811.8999 691.4226 811.7881 691.6461 811.6763 691.7579 811.2293 692.7638 809.5527 694.8875 808.5468 695.6699 807.0937 696.0052 806.3113 696.3405 805.8642 697.9053 805.3054 698.2406 804.2994 698.0171 803.7406 697.57 803.1817 697.0111 802.5111 696.4523 802.3993 697.57 802.2876 697.9053 801.8405 698.3524 801.3934 698.6877 800.9463 698.7994 800.7228 698.4641 800.3875 698.6877 798.0403 700.9231 797.8167 702.0408 797.0343 703.1585 796.5872 704.1645 797.5932 704.6116 797.1461 706.0646 796.8108 706.7352 796.3637 707.2941 795.8048 707.5176 794.3518 707.7411 794.1283 707.9647 793.5694 711.5414 793.2341 712.3238 792.3399 712.6591 791.334 712.5473 790.1045 712.1002 788.6515 711.8767 786.8631 711.7649 784.6277 711.6531 783.51 711.3178 782.9512 711.7649 782.5041 711.4296 781.9452 710.8707 781.3864 710.4237 780.7157 710.5354 780.3804 710.8707 780.0451 711.2061 779.8216 711.3178 779.2627 711.3178 779.1509 710.9825 779.1509 710.6472 778.9274 710.2001 778.145 709.8648 774.9036 708.6353 773.8977 708.8589 772.5564 709.8648 771.6623 709.9766 769.4268 710.2001 765.7384 709.1942 764.3971 708.6353 761.4911 706.2881 752.5494 700.8113 745.396 697.7935 726.0596 692.8756 694.7637 693.0991 683.0277 691.6461 676.8803 692.205 675.092 692.5403Z" />
  <path class="Dosso" d="M173.7982 756.4734L172.457 755.9145 170.1098 754.5733 168.7685 754.238 167.3155 753.5673 166.6449 752.1143 166.4213 750.2142 166.3096 748.6494 166.1978 747.6435 165.7507 747.0846 165.1919 746.8611 164.5212 746.9728 164.2977 747.3081 163.9624 747.7552 163.8506 748.2023 163.7388 748.6494 163.5153 749.0965 163.18 749.2083 162.8447 748.9847 162.7329 748.8729 160.1622 748.8729 159.9386 748.2023 159.9386 746.414 159.7151 745.6316 159.4915 744.4021 159.1562 739.9312 159.1562 738.1429 159.4915 736.6899 159.7151 735.3486 159.7151 734.5662 159.6033 733.7838 158.4856 729.5365 158.3738 728.7541 158.262 727.9717 158.3738 727.0776 158.4856 726.7422 158.7091 726.2952 159.1562 725.8481 160.0504 724.9539 161.0563 724.2833 162.5094 723.5009 162.8447 723.3891 165.0801 721.489 166.086 720.8184 166.3096 720.4831 166.4213 719.9242 166.086 718.8065 165.4154 718.3594 164.4095 718.0241 154.5736 717.0182 154.2383 717.0182 154.1265 716.9064 150.2145 707.9647 150.1028 707.5176 150.1028 707.1823 150.2145 706.7352 150.4381 706.2881 150.8851 705.6175 151.6675 704.7233 152.3382 704.1645 153.1206 703.7174 153.6794 703.6056 154.1265 703.4938 154.4618 703.6056 156.0266 703.9409 156.6972 704.0527 157.5914 704.0527 157.9267 703.9409 158.5974 703.7174 159.268 703.4938 159.6033 703.2703 165.1919 698.9112 167.3155 698.3524 168.2097 698.3524 169.5509 698.5759 169.7745 698.5759 169.998 698.6877 170.7804 699.2465 171.451 699.4701 171.8981 699.5818 172.2334 699.5818 172.6805 699.2465 173.1276 698.9112 174.3571 697.0111 175.2513 694.3286 175.9219 691.3108 175.9219 690.8637 175.8101 690.5284 175.2513 689.2989 175.1395 688.9636 175.1395 688.6283 175.2513 687.8459 175.6983 686.3928 176.0337 684.9398 176.1454 683.5986 176.369 683.2633 176.5925 682.9279 177.9338 682.4809 179.7221 682.1455 180.7281 681.8102 181.2869 681.0278 182.6282 677.8982 183.0752 677.1158 183.7459 676.7805 184.0812 676.6688 188.552 676.6688 189.6697 676.557 190.5639 676.3334 191.011 675.3275 191.3463 674.3216 192.464 668.733 193.2464 666.9447 194.3641 664.9328 195.0348 664.2622 195.9289 664.2622 196.9349 664.5975 203.5294 667.3917 204.5353 667.7271 205.2059 667.6153 215.936 662.9209 218.0596 661.6914 229.9074 650.6261 231.1369 649.0613 231.5839 647.72 233.9311 637.6606 234.2664 636.6547 234.49 635.984 236.3901 633.3015 245.22 625.7011 246.1142 625.254 247.1201 624.8069 247.7908 624.6952 248.6849 624.5834 250.3615 624.6952 250.9204 624.5834 255.8383 622.2362 256.8442 621.5656 257.7384 620.7832 258.409 618.6595 258.9679 618.1007 259.5267 617.8771 261.3151 617.3183 263.2152 615.1946 264.3329 607.2589 268.692 610.0531 270.145 611.7297 275.0629 621.7891 275.6218 624.3598 278.1925 646.7141 278.5278 647.6083 284.5635 657.6677 288.2519 669.1801 280.6515 671.0802 277.1866 672.4215 274.1688 674.6569 263.9976 684.381 262.2092 685.2751 260.3091 685.6105 256.1736 685.7222 256.0618 701.482 255.8383 703.0468 253.8264 717.2417 243.5435 733.3367 239.4079 737.3605 225.3248 747.9788 225.1012 748.6494 225.6601 765.0798 223.9835 773.6861 223.9835 776.5922 225.5483 781.3983 225.7718 783.6338 224.7659 785.7574 223.6482 786.8751 222.9776 787.8811 222.6422 788.9988 222.9776 792.6872 223.2011 793.3579 223.5364 794.0285 223.76 794.252 224.0953 794.3638 225.5483 796.0404 226.3307 797.2699 226.666 798.4993 226.2189 799.9524 225.4365 800.7348 222.1952 802.7466 221.7481 802.2996 221.0774 801.2936 220.5186 800.9583 220.295 800.5112 220.1833 799.9524 219.9597 799.3935 219.6244 798.3876 219.4009 797.8287 219.1773 797.6052 218.7303 797.3816 218.2832 797.0463 216.1595 793.9167 215.7124 793.3579 214.93 792.9108 212.5828 792.0166 209.6768 790.2283 209.0062 790.0047 208.3355 789.6694 207.5531 789.4459 206.659 790.0047 205.7648 790.4518 204.8706 790.2283 204.0882 789.6694 203.5294 789.1106 202.6352 788.1046 201.1822 785.6457 200.7351 784.4162 200.3998 782.9631 200.288 781.5101 200.0645 781.1748 199.1703 780.5042 198.9468 780.1689 187.8814 769.9977 185.3107 766.1975 184.64 764.968 184.4165 764.6327 183.8576 764.4091 181.734 764.1856 181.0634 763.8503 180.281 763.515 179.8339 762.9561 179.3868 761.5031 178.8279 760.7207 178.2691 759.9383 176.9278 759.2677 173.7982 756.4734Z" />
  <path class="Maradi" d="M394.7699 672.8685L394.7699 671.7508 394.7699 668.0624 394.8816 666.9447 395.1052 665.827 395.9993 664.821 398.0112 662.6974 398.7936 661.5796 398.7936 660.4619 398.0112 656.997 398.0112 655.9911 398.5701 655.2087 399.4642 654.3145 403.5998 651.4085 404.2704 650.8496 404.941 650.0672 405.2763 649.8437 405.6117 649.7319 405.947 649.6201 408.0706 649.173 408.6295 648.9495 409.5237 648.3906 409.7472 648.1671 410.0825 646.9376 410.6414 639.896 410.5296 636.6547 410.3061 635.984 409.859 634.1957 409.6354 632.6309 409.4119 631.9603 407.4 627.1541 407.0647 625.4776 406.8411 623.3539 410.6414 592.1697 410.6414 590.9403 410.7531 589.599 419.8066 555.9559 445.4022 555.0617 448.7553 555.2853 461.609 562.2151 465.7446 564.674 466.6387 566.9095 466.974 576.1865 467.3094 577.5277 469.8801 581.9986 470.5507 584.1222 472.6744 595.0758 473.0097 595.97 473.5685 596.7524 474.798 598.0936 475.3569 598.9878 476.8099 603.2351 477.7041 604.241 478.71 605.0234 484.2986 608.0413 485.1927 608.7119 485.7516 609.3825 485.9751 610.2767 486.3105 618.5477 486.4222 619.4419 486.7575 620.3361 487.5399 621.0067 490.7813 622.4597 491.7872 622.795 492.6814 622.6833 493.6873 622.0127 499.6112 616.7594 500.6172 616.2006 501.6231 615.977 505.1998 616.0888 505.7586 616.2006 506.0939 616.4241 508.2176 619.7772 509.2235 621.0067 509.7824 621.342 512.2414 622.5715 513.0238 622.795 514.2532 623.3539 516.3769 625.0305 516.7122 625.1422 517.0475 625.254 518.3888 625.3658 519.0594 625.7011 520.0653 626.26 523.3067 629.3895 523.642 629.6131 526.2128 630.8426 526.9952 631.2897 527.7776 631.9603 528.0011 632.2956 528.2246 632.8545 528.4482 633.5251 528.8953 635.8723 529.007 636.3194 529.4541 636.99 537.3899 642.5785 538.3958 643.5845 538.7311 644.5904 538.8429 645.7081 538.8429 647.8318 538.9547 648.726 539.0664 649.5084 539.5135 650.7378 539.8488 653.1968 539.8488 655.4322 539.7371 656.5499 539.4018 657.4441 538.6194 658.003 520.2889 667.3917 519.9536 667.7271 519.73 667.9506 519.5065 668.1741 519.2829 668.6212 518.9476 669.5154 518.8359 669.8507 518.7241 670.6331 518.8359 671.5273 519.0594 672.1979 519.6183 673.2039 520.5124 673.9862 521.6301 674.5451 523.8656 675.551 524.7597 676.1099 525.4304 676.7805 525.4304 677.6747 523.9773 682.8162 523.9773 683.8221 525.5421 693.0991 525.5421 694.2168 525.095 695.3345 521.1831 702.5997 520.8477 703.0468 520.8477 702.935 518.9476 702.4879 517.9417 702.0408 515.818 700.2525 514.0297 699.2465 512.5767 697.7935 511.7943 697.1229 510.0059 696.4523 493.6873 694.2168 491.5637 694.3286 489.3283 695.3345 465.9681 709.5295 463.9562 710.2001 461.7208 710.2001 455.0145 708.9706 453.5615 709.1942 449.6495 713.7768 446.6317 716.5711 445.1787 717.2417 444.8433 717.2417 443.7256 717.4652 438.9195 717.4652 436.7958 717.2417 434.7839 716.4593 432.7721 714.8945 430.4249 712.7708 426.6246 708.3 424.9481 705.3939 419.8066 695.7816 409.3001 684.1574 400.2466 675.551 395.9993 673.0921 394.7699 672.8685Z" />
  <path class="Niamey" d="M127.3014 676.2217L130.7663 676.1099 133.6724 675.8864 134.2312 676.1099 134.1195 678.1218 134.7901 678.9042 136.3549 678.4571 137.3608 679.1277 137.4726 680.8043 137.3608 682.8162 136.802 685.4987 136.0196 688.4047 134.7901 690.9755 133.6724 691.7579 132.3311 692.7638 131.884 691.7579 131.5487 690.5284 131.1017 689.6342 129.0898 689.8578 127.0779 689.6342 124.7307 689.2989 122.4953 688.5165 120.5952 686.6164 119.1421 684.4927 117.9127 682.0338 117.8009 679.6866 118.1362 678.1218 119.4774 676.4452 121.7129 675.551 124.2836 675.551 127.3014 676.2217Z" />
  <path class="Tahoua" d="M394.7699 672.8685L391.305 672.0861 390.0755 672.3097 386.387 674.4333 385.7164 674.6569 385.2693 674.4333 384.934 674.098 384.2634 673.7627 366.1564 666.4976 347.9377 659.2325 345.8141 658.7854 336.3135 660.4619 334.5252 661.3561 333.8546 662.362 332.7369 664.821 331.8427 665.827 329.9426 667.28 329.1602 667.6153 326.9248 667.9506 317.7595 667.6153 311.2768 668.733 307.4766 668.5095 306.0235 667.8388 304.5705 666.4976 303.1175 665.827 301.1056 666.0505 288.2519 669.1801 284.5635 657.6677 278.5278 647.6083 278.1925 646.7141 275.6218 624.3598 275.0629 621.7891 270.145 611.7297 268.692 610.0531 264.3329 607.2589 255.2794 592.058 254.7206 590.7167 254.6088 587.8107 254.8323 578.5337 240.5256 537.4019 240.4139 537.2901 239.9668 536.5077 240.7492 534.4958 241.308 531.9251 241.8669 525.4424 242.314 524.2129 243.3199 522.6481 247.0084 518.9596 247.1201 518.7361 247.1201 518.5125 247.1201 518.1772 247.1201 518.0655 247.1201 517.9537 247.0084 517.8419 247.0084 517.7301 246.226 515.83 246.0024 513.9299 246.226 512.1416 251.9263 497.9466 252.9322 496.3818 254.1617 495.0406 255.7265 493.9229 258.5208 492.4699 259.415 491.5757 259.862 490.0109 259.862 482.634 259.862 476.8219 259.7503 467.8802 259.7503 463.6329 259.9738 463.074 260.7562 461.7328 261.0915 460.9504 260.7562 454.3559 260.7562 453.2382 261.2033 452.0087 261.6504 451.7851 261.8739 451.7851 262.321 451.7851 263.2152 451.1145 263.2152 451.0028 263.2152 444.0729 263.2152 439.8256 263.2152 431.5546 263.1034 423.1717 263.1034 414.9007 263.1034 406.5178 263.1034 398.2468 262.9916 389.8639 262.9916 385.1695 262.9916 383.2694 263.4387 383.2694 263.6623 383.1576 263.6623 380.6987 263.6623 378.4633 263.6623 373.4336 263.6623 368.5156 263.6623 363.7095 263.6623 358.6798 263.6623 353.9854 263.5505 348.8439 263.6623 344.0377 263.6623 339.7904 263.774 339.7904 297.5289 340.2375 303.5646 342.0259 295.1817 359.6857 294.6229 361.3623 294.5111 361.8094 294.5111 362.2564 294.6229 363.0388 294.8464 364.6036 295.1817 365.6096 295.4053 366.392 295.4053 366.7273 295.4053 367.1744 295.2935 367.5097 294.8464 368.9627 294.7347 369.298 295.4053 377.3455 295.2935 378.2397 293.3934 381.2575 292.9463 382.0399 292.9463 382.9341 293.0581 383.2694 293.2816 383.94 293.6169 384.7224 294.1758 385.9519 295.1817 386.399 296.2994 386.6226 303.1175 387.1814 304.0117 387.5167 304.4587 388.4109 305.8 395.2289 306.2471 396.2349 307.1413 397.129 318.3184 406.5178 326.813 418.142 328.266 419.4833 329.6073 420.601 363.921 442.2846 378.3395 453.2382 384.0398 459.7209 384.2634 460.168 398.3465 494.1464 398.5701 494.8171 399.576 496.8289 400.0231 497.276 400.3584 497.7231 404.7175 501.0762 405.6117 501.6351 406.0587 501.7469 416.0064 504.4294 417.1241 504.9882 417.3476 505.8824 417.4594 507.0001 416.0064 517.8419 419.8066 555.9559 410.7531 589.599 410.6414 590.9403 410.6414 592.1697 406.8411 623.3539 407.0647 625.4776 407.4 627.1541 409.4119 631.9603 409.6354 632.6309 409.859 634.1957 410.3061 635.984 410.5296 636.6547 410.6414 639.896 410.0825 646.9376 409.7472 648.1671 409.5237 648.3906 408.6295 648.9495 408.0706 649.173 405.947 649.6201 405.6117 649.7319 405.2763 649.8437 404.941 650.0672 404.2704 650.8496 403.5998 651.4085 399.4642 654.3145 398.5701 655.2087 398.0112 655.9911 398.0112 656.997 398.7936 660.4619 398.7936 661.5796 398.0112 662.6974 395.9993 664.821 395.1052 665.827 394.8816 666.9447 394.7699 668.0624 394.7699 671.7508 394.7699 672.8685Z" />
  <path class="Tillabéri" d="M173.7982 756.4734L173.1276 757.4793 171.5628 757.5911 170.8922 757.7029 169.5509 757.5911 168.9921 757.8146 168.2097 758.2617 167.2037 759.4912 166.6449 759.9383 165.9743 760.1618 165.3036 759.7147 164.633 759.9383 164.2977 760.2736 164.0741 760.8325 163.9624 761.2795 163.7388 761.8384 162.8447 763.2914 162.2858 763.6267 159.9386 762.9561 159.4915 763.0679 158.8209 763.6267 158.3738 763.8503 158.0385 763.8503 157.4796 763.515 157.2561 763.4032 155.0207 764.0738 154.6854 764.1856 154.1265 764.8562 153.6794 764.968 153.2323 765.0798 153.0088 764.7444 152.897 764.4091 152.7853 764.2974 152.0029 764.1856 151.444 764.1856 150.9969 764.2974 150.6616 765.0798 150.3263 765.8622 149.991 765.7504 149.6557 765.3033 149.0968 765.1915 148.7615 765.4151 148.3144 766.1975 148.0909 766.421 147.3085 766.421 145.8554 766.421 144.9613 766.5328 143.3965 767.2034 142.8376 768.3211 142.8376 769.8859 143.5083 773.4626 145.6319 779.7218 145.9672 780.2806 146.5261 780.8395 147.0849 781.3983 147.8673 781.7337 148.4262 781.8454 148.8733 782.1807 148.985 782.9631 148.985 784.0809 148.4262 784.1926 147.7556 783.9691 147.1967 784.0809 146.7496 784.5279 146.1908 785.4221 145.7437 785.981 145.1848 786.0927 144.626 785.981 144.0671 786.2045 143.7318 786.9869 143.8436 787.7693 144.5142 788.887 144.626 789.5576 141.2728 786.6516 136.2431 779.4982 131.6605 773.2391 126.9661 766.421 124.1718 762.6208 122.9424 760.2736 123.0541 758.3735 124.0601 757.5911 127.7485 756.8087 128.0838 756.5851 128.5309 755.9145 128.8662 755.691 129.0898 755.691 129.7604 756.0263 130.0957 756.1381 133.8959 755.8028 134.9019 755.5792 135.349 754.9086 135.2372 753.4556 135.2372 753.1202 135.4607 752.4496 135.4607 752.1143 135.1254 751.6672 134.343 750.773 134.0077 750.2142 133.4488 749.2083 133.1135 748.3141 132.6664 744.4021 132.4429 743.5079 131.9958 742.7255 131.437 741.9431 130.3193 741.1607 129.5369 740.7136 128.8662 739.9312 128.6427 739.5959 128.3074 738.3664 126.6308 736.3546 124.0601 735.6839 117.8009 735.1251 117.242 735.4604 116.1243 736.6899 115.3419 737.137 114.8948 737.0252 114.4477 736.8017 113.8889 736.9134 113.6653 737.2487 113.2183 738.1429 112.1006 739.7077 111.4299 741.049 110.6475 742.1667 109.5298 742.8373 108.4121 743.0608 100.2528 742.2784 93.7701 741.7196 91.5347 741.1607 89.7463 740.1548 85.3872 736.4663 81.8106 733.4485 76.5573 728.9777 74.9925 727.6364 70.1864 723.5009 66.3861 720.2595 62.6977 717.2417 60.7976 716.2358 56.1032 715.7887 54.3149 714.7827 53.756 713.7768 53.5325 712.5473 53.5325 711.3178 53.5325 707.0705 53.5325 700.9231 53.4207 695.3345 54.3149 692.652 55.6561 692.8756 60.7976 694.8875 64.2625 695.7816 65.7155 696.4523 66.1626 696.2287 66.7215 693.9933 67.0568 693.3227 67.3921 692.8756 68.6216 693.2109 69.6275 694.2168 70.857 694.7757 72.6453 694.1051 71.4158 692.7638 70.4099 691.9814 69.2922 691.7579 66.6097 691.4226 65.492 691.0872 58.4504 687.7341 56.3267 686.1693 55.0972 684.1574 54.7619 681.2514 52.1912 678.4571 48.7263 676.3334 45.8202 675.4393 43.3613 675.6628 42.2436 675.6628 40.9023 674.9922 40.2317 674.3216 40.1199 673.8745 40.3435 673.5392 40.3435 673.3156 40.3435 672.8685 40.3435 672.4215 40.1199 671.8626 39.5611 671.7508 30.9547 672.0861 29.2781 671.4155 28.3839 669.8507 28.7193 668.8448 29.2781 667.3917 29.7252 666.1623 29.2781 665.6034 28.0486 665.1563 27.2662 664.3739 26.5956 663.4798 24.4719 662.0267 23.466 661.1326 23.2425 660.6855 22.6836 660.0149 22.2365 658.7854 21.6777 658.2265 20.3364 657.3323 19.8893 656.8853 19.8893 656.2146 20.4482 654.9851 20.4482 654.4263 19.7776 653.6439 18.6598 653.085 17.5421 652.3026 17.095 651.1849 16.9833 649.9554 16.3127 649.3966 15.4185 648.9495 14.8596 648.2789 14.8596 647.72 15.4185 646.6023 15.4185 646.267 15.1949 645.7081 14.8596 645.2611 14.4125 645.0375 13.9655 644.5904 13.1831 643.3609 12.9595 642.5785 13.1831 641.7961 14.7479 639.3372 15.0832 638.5548 15.4185 636.5429 15.642 635.984 16.2009 635.0899 16.3127 634.531 16.0891 634.1957 13.4066 630.5073 4.1296 622.0127 3.2354 621.2303 1.3353 617.9889 1 614.6358 5.2473 602.3409 4.8002 600.329 2.9001 596.5288 3.0119 594.6287 3.7943 593.6228 4.6884 592.8404 5.3591 591.9462 5.1355 590.4932 4.8002 587.14 4.8002 585.4635 5.1355 585.1282 5.5826 585.0164 5.6944 584.9046 6.5886 585.1282 7.1474 585.3517 7.818 585.4635 8.7122 585.5752 11.1712 586.1341 12.4007 586.3576 13.5184 586.5812 14.6361 586.8047 15.5303 586.9165 15.8656 587.0283 16.648 587.2518 17.4304 587.0283 18.101 586.8047 18.6598 586.5812 22.4601 585.4635 22.9072 585.3517 24.2484 585.0164 34.196 588.4813 35.0902 588.4813 35.3138 588.4813 35.8726 588.4813 36.2079 588.4813 36.655 588.2578 37.4374 587.8107 37.7727 587.6989 38.8904 587.3636 39.3375 587.3636 40.0081 587.2518 40.7905 587.2518 42.3553 587.14 44.5908 587.0283 45.7085 586.9165 47.4968 586.8047 48.1674 586.8047 49.2851 586.693 51.0735 586.4694 51.6323 586.3576 52.8618 586.1341 53.0854 586.1341 53.1971 586.1341 53.5325 585.9106 54.0913 585.5752 54.5384 585.2399 54.9855 585.1282 55.3208 584.7928 55.8796 584.234 57.7798 582.4457 58.1151 582.2221 59.3446 581.1044 59.6799 580.7691 61.4682 579.0925 63.3683 577.3042 65.2684 575.6276 67.3921 573.6157 69.0686 571.9392 70.9688 570.2626 72.8689 568.586 74.769 566.7977 74.9925 566.5741 75.2161 566.3506 75.3278 566.3506 75.4396 566.2388 75.6631 565.9035 76.6691 565.68 81.3635 565.4564 87.6227 565.2329 93.7701 565.0094 100.0293 564.7858 106.1767 564.674 106.4002 564.674 112.4359 564.4505 118.5833 564.227 124.8425 564.0034 130.9899 563.7799 137.2491 563.5563 143.3965 563.3328 149.6557 563.1092 155.8031 562.8857 162.0623 562.6622 168.2097 562.4386 174.4689 562.3268 177.822 562.2151 180.7281 562.1033 183.8576 561.9915 184.193 561.0974 184.193 558.6384 184.3047 557.4089 184.5283 556.7383 184.9754 556.403 185.9813 556.1794 188.552 556.0677 196.1525 557.4089 208.2238 559.4208 214.93 560.6503 215.2653 560.762 215.8242 560.8738 216.4948 560.4267 217.0537 553.2734 217.6125 551.485 223.3129 548.0201 225.213 546.0083 228.3426 542.4316 230.6898 541.2021 233.3723 540.6432 235.7195 540.1961 238.1784 538.8549 239.855 536.9548 239.9668 536.5077 240.4139 537.2901 240.5256 537.4019 254.8323 578.5337 254.6088 587.8107 254.7206 590.7167 255.2794 592.058 264.3329 607.2589 263.2152 615.1946 261.3151 617.3183 259.5267 617.8771 258.9679 618.1007 258.409 618.6595 257.7384 620.7832 256.8442 621.5656 255.8383 622.2362 250.9204 624.5834 250.3615 624.6952 248.6849 624.5834 247.7908 624.6952 247.1201 624.8069 246.1142 625.254 245.22 625.7011 236.3901 633.3015 234.49 635.984 234.2664 636.6547 233.9311 637.6606 231.5839 647.72 231.1369 649.0613 229.9074 650.6261 218.0596 661.6914 215.936 662.9209 205.2059 667.6153 204.5353 667.7271 203.5294 667.3917 196.9349 664.5975 195.9289 664.2622 195.0348 664.2622 194.3641 664.9328 193.2464 666.9447 192.464 668.733 191.3463 674.3216 191.011 675.3275 190.5639 676.3334 189.6697 676.557 188.552 676.6688 184.0812 676.6688 183.7459 676.7805 183.0752 677.1158 182.6282 677.8982 181.2869 681.0278 180.7281 681.8102 179.7221 682.1455 177.9338 682.4809 176.5925 682.9279 176.369 683.2633 176.1454 683.5986 176.0337 684.9398 175.6983 686.3928 175.2513 687.8459 175.1395 688.6283 175.1395 688.9636 175.2513 689.2989 175.8101 690.5284 175.9219 690.8637 175.9219 691.3108 175.2513 694.3286 174.3571 697.0111 173.1276 698.9112 172.6805 699.2465 172.2334 699.5818 171.8981 699.5818 171.451 699.4701 170.7804 699.2465 169.998 698.6877 169.7745 698.5759 169.5509 698.5759 168.2097 698.3524 167.3155 698.3524 165.1919 698.9112 159.6033 703.2703 159.268 703.4938 158.5974 703.7174 157.9267 703.9409 157.5914 704.0527 156.6972 704.0527 156.0266 703.9409 154.4618 703.6056 154.1265 703.4938 153.6794 703.6056 153.1206 703.7174 152.3382 704.1645 151.6675 704.7233 150.8851 705.6175 150.4381 706.2881 150.2145 706.7352 150.1028 707.1823 150.1028 707.5176 150.2145 707.9647 154.1265 716.9064 154.2383 717.0182 154.5736 717.0182 164.4095 718.0241 165.4154 718.3594 166.086 718.8065 166.4213 719.9242 166.3096 720.4831 166.086 720.8184 165.0801 721.489 162.8447 723.3891 162.5094 723.5009 161.0563 724.2833 160.0504 724.9539 159.1562 725.8481 158.7091 726.2952 158.4856 726.7422 158.3738 727.0776 158.262 727.9717 158.3738 728.7541 158.4856 729.5365 159.6033 733.7838 159.7151 734.5662 159.7151 735.3486 159.4915 736.6899 159.1562 738.1429 159.1562 739.9312 159.4915 744.4021 159.7151 745.6316 159.9386 746.414 159.9386 748.2023 160.1622 748.8729 162.7329 748.8729 162.8447 748.9847 163.18 749.2083 163.5153 749.0965 163.7388 748.6494 163.8506 748.2023 163.9624 747.7552 164.2977 747.3081 164.5212 746.9728 165.1919 746.8611 165.7507 747.0846 166.1978 747.6435 166.3096 748.6494 166.4213 750.2142 166.6449 752.1143 167.3155 753.5673 168.7685 754.238 170.1098 754.5733 172.457 755.9145 173.7982 756.4734ZM127.3014 676.2217L124.2836 675.551 121.7129 675.551 119.4774 676.4452 118.1362 678.1218 117.8009 679.6866 117.9127 682.0338 119.1421 684.4927 120.5952 686.6164 122.4953 688.5165 124.7307 689.2989 127.0779 689.6342 129.0898 689.8578 131.1017 689.6342 131.5487 690.5284 131.884 691.7579 132.3311 692.7638 133.6724 691.7579 134.7901 690.9755 136.0196 688.4047 136.802 685.4987 137.3608 682.8162 137.4726 680.8043 137.3608 679.1277 136.3549 678.4571 134.7901 678.9042 134.1195 678.1218 134.2312 676.1099 133.6724 675.8864 130.7663 676.1099 127.3014 676.2217Z" />
  <path class="Zinder" d="M761.8264 417.2479L762.0499 610.5002 761.9382 610.7238 760.7087 610.8355 758.9204 611.7297 757.132 612.8474 756.5732 613.518 756.2378 614.3004 756.0143 615.0828 755.7908 616.6476 756.0143 617.6536 756.3496 618.6595 756.6849 619.3301 757.132 619.889 757.9144 620.3361 760.4851 621.2303 760.8205 621.7891 760.3734 622.348 756.0143 625.4776 755.2319 625.8129 754.3377 626.0364 748.9727 625.7011 748.4139 625.8129 747.5197 626.26 731.4246 636.7664 719.6887 640.4549 718.9063 640.5667 718.3474 640.5667 717.565 640.2314 714.9943 638.7783 714.1001 638.443 713.3177 638.5548 711.9765 639.449 685.9338 663.7033 685.5985 664.1504 685.4867 664.7092 685.5985 666.0505 685.5985 667.8388 685.4867 668.6212 685.3749 669.1801 685.1514 669.6272 684.7043 670.4096 673.5272 682.0338 673.0801 683.5986 672.8565 684.6045 674.9802 692.205 675.092 692.5403 643.9078 699.3583 641.2253 700.476 629.0422 707.2941 627.9245 708.4118 627.5892 709.0824 627.3657 710.759 627.0304 711.4296 626.5833 711.8767 626.3597 711.9884 626.0244 711.8767 625.3538 712.212 624.0125 712.9944 621.8889 715.0063 610.9353 728.0835 610.4882 728.6424 609.7058 729.313 609.0352 729.7601 608.5881 729.9836 607.2469 729.9836 593.6108 728.4188 592.3813 728.5306 588.9164 729.4248 586.5692 729.4248 567.9034 727.3011 565.5562 726.9658 548.6788 721.9361 546.3316 720.5948 545.2139 719.2536 543.4255 716.2358 542.0843 714.7827 539.29 712.6591 537.7252 711.9884 536.0486 711.5414 535.2662 711.5414 533.7014 711.7649 532.919 711.9884 532.2484 712.3238 531.9131 712.5473 531.6895 712.5473 531.0189 712.3238 530.5718 711.9884 524.2009 706.0646 522.6361 704.1645 521.7419 703.3821 520.8477 703.0468 521.1831 702.5997 525.095 695.3345 525.5421 694.2168 525.5421 693.0991 523.9773 683.8221 523.9773 682.8162 525.4304 677.6747 525.4304 676.7805 524.7597 676.1099 523.8656 675.551 521.6301 674.5451 520.5124 673.9862 519.6183 673.2039 519.0594 672.1979 518.8359 671.5273 518.7241 670.6331 518.8359 669.8507 518.9476 669.5154 519.2829 668.6212 519.5065 668.1741 519.73 667.9506 519.9536 667.7271 520.2889 667.3917 538.6194 658.003 539.4018 657.4441 539.7371 656.5499 539.8488 655.4322 539.8488 653.1968 539.5135 650.7378 539.0664 649.5084 538.9547 648.726 538.8429 647.8318 538.8429 645.7081 538.7311 644.5904 538.3958 643.5845 537.3899 642.5785 529.4541 636.99 529.007 636.3194 528.8953 635.8723 528.4482 633.5251 528.2246 632.8545 528.0011 632.2956 527.7776 631.9603 526.9952 631.2897 526.2128 630.8426 523.642 629.6131 523.3067 629.3895 520.0653 626.26 519.0594 625.7011 518.3888 625.3658 517.0475 625.254 516.7122 625.1422 516.3769 625.0305 514.2532 623.3539 513.0238 622.795 512.2414 622.5715 509.7824 621.342 509.2235 621.0067 508.2176 619.7772 506.0939 616.4241 505.7586 616.2006 505.1998 616.0888 501.6231 615.977 500.6172 616.2006 499.6112 616.7594 493.6873 622.0127 492.6814 622.6833 491.7872 622.795 490.7813 622.4597 487.5399 621.0067 486.7575 620.3361 486.4222 619.4419 486.3105 618.5477 485.9751 610.2767 485.7516 609.3825 485.1927 608.7119 484.2986 608.0413 478.71 605.0234 477.7041 604.241 476.8099 603.2351 475.3569 598.9878 474.798 598.0936 473.5685 596.7524 473.0097 595.97 472.6744 595.0758 470.5507 584.1222 469.8801 581.9986 467.3094 577.5277 466.974 576.1865 466.6387 566.9095 465.7446 564.674 461.609 562.2151 466.8623 547.4613 469.3212 544.667 495.1404 548.6908 506.0939 548.579 511.1237 545.8965 512.4649 545.5612 513.6944 545.5612 525.3186 545.7847 529.1188 545.4494 540.9666 541.2021 567.2328 526.4483 589.9223 517.8419 694.8755 449.1026 713.7648 443.2905 740.031 425.1836 761.8264 417.2479Z" />
</svg>