<?xml version="1.0" encoding="utf-8"?>
<svg xmlns="http://www.w3.org/2000/svg" viewBox="0 0 684 1024" style="stroke-width:0.25px;stroke-linejoin:round;stroke:#444;fill:#ddd" fill-rule="evenodd">
  <path class="Adamaoua" d="M595.003 524.2948L592.9911 525.9714 591.3145 530.1069 590.085 532.2306 589.638 533.1248 589.5262 534.0189 589.9733 539.1604 589.7497 540.0546 588.9673 540.9487 586.9554 541.9547 586.173 542.4018 585.2789 543.8548 584.6083 545.5314 583.1552 551.0081 580.3609 558.7204 578.4608 562.4088 577.0078 566.4326 576.3372 567.7738 575.2195 568.668 569.9662 571.2387 568.5132 572.2447 567.2837 573.5859 566.3895 575.7096 556.3301 598.6227 554.0947 601.6405 553.8712 602.6464 554.2065 604.7701 554.3183 605.776 554.0947 606.6702 553.2006 608.3468 549.8474 612.5941 548.5062 613.7118 535.9878 619.7474 532.2993 619.7474 531.5169 621.0887 530.1757 622.7652 527.605 625.336 526.3755 625.6713 524.2518 627.6832 523.1341 628.6891 523.2459 629.0244 523.2459 629.5833 523.2459 629.4715 523.0223 629.4715 521.234 628.5773 519.6692 626.5655 518.8868 626.3419 518.1044 626.4537 517.4338 627.1243 517.0985 627.5714 516.6514 628.3538 516.0925 629.0244 514.9748 629.4715 510.3922 629.695 502.1211 631.8187 497.4267 632.3776 490.2734 633.4953 488.7086 633.16 484.3495 631.5952 482.7847 631.4834 481.5552 631.7069 472.39 635.2836 464.2307 636.2895 429.5816 636.5131 386.885 636.5131 364.3073 636.5131 355.142 636.2895 353.0184 635.5072 352.7948 634.8365 352.1242 634.0541 350.5594 632.3776 350.2241 631.8187 350.0006 631.1481 349.777 630.2539 349.3299 629.248 348.7711 628.3538 347.8769 627.4596 336.588 619.1886 335.135 618.6297 333.3466 618.2944 330.1053 618.2944 328.2052 618.6297 326.7521 619.3003 324.7403 620.5298 323.7343 621.0887 322.7284 621.3122 321.7224 621.5358 319.7106 621.6475 317.4751 621.424 316.0221 621.0887 314.7926 620.6416 312.7807 619.5239 310.7689 618.0708 307.8628 614.9413 307.4157 614.3824 306.8569 613.6 304.5097 613.8235 303.6155 614.1589 303.5037 614.4942 303.7273 615.7237 303.6155 616.059 302.9449 616.1707 302.4978 615.9472 302.2743 615.6119 301.4919 615.3883 300.8212 615.7237 299.5917 617.4002 298.474 617.7355 297.3563 617.9591 296.6857 618.2944 296.3504 618.7415 295.7915 619.0768 294.115 619.3003 292.3266 619.1886 290.5383 619.4121 288.8617 620.5298 287.1851 621.9828 283.7202 624.2183 279.4729 628.1303 277.4611 629.1362 276.7904 629.695 275.3374 630.3657 255.3304 634.8365 252.3125 636.4013 250.5242 636.8484 249.0712 636.2895 248.177 636.4013 246.724 637.1837 247.1711 635.3954 248.6241 631.8187 248.6241 630.2539 248.0652 628.242 246.6122 624.5536 246.1651 622.5417 246.0534 620.9769 246.1651 618.965 246.3887 617.9591 247.2828 615.9472 247.3946 614.9413 247.1711 614.0471 245.8298 613.1529 244.6003 612.4823 237.5587 610.8057 238.4529 608.6821 239.3471 604.8818 239.4589 602.4229 238.9 597.8403 241.4707 597.6167 241.9178 597.7285 242.9238 598.3991 243.5944 598.5109 244.1532 598.1756 245.0474 597.3932 245.3827 597.1696 246.3887 597.2814 248.2888 597.7285 249.1829 597.8403 251.4184 597.2814 253.6538 596.1637 255.3304 594.5989 255.8892 592.587 256.4481 588.8986 257.7893 585.8807 260.1365 583.9806 263.6014 583.6453 265.9486 582.3041 268.0723 579.398 270.643 573.4741 271.2019 571.0152 271.4254 568.668 270.9783 567.1032 269.0782 564.8678 268.4076 563.5265 268.9664 561.1793 270.5312 558.9439 276.008 553.9142 281.0377 550.6728 281.373 550.2257 281.7084 549.108 282.0437 548.6609 282.4908 548.5492 283.3849 548.6609 284.3909 548.4374 285.7321 548.3256 286.291 548.1021 286.8498 547.4315 286.9616 546.6491 287.2969 545.7549 288.5264 544.9725 292.3266 541.5076 293.3326 540.9487 294.562 540.6134 295.4562 540.6134 296.2386 541.0605 297.021 541.284 297.9152 540.837 298.6976 538.8251 297.5799 536.7014 294.115 532.9012 289.7559 526.5303 288.5264 525.5243 286.4028 525.0772 285.9557 524.5184 286.6263 523.736 288.1911 522.6183 289.9794 520.9417 295.4562 512.7824 300.5977 507.6409 306.1862 502.2759 308.5334 498.6992 309.8747 497.8051 310.9924 496.7991 311.3277 495.0108 310.0982 489.7575 309.8747 487.8574 310.21 485.9573 310.7689 484.0572 314.0102 478.3569 322.7284 466.1738 326.0815 462.5971 326.5286 461.3677 326.3051 459.9146 325.7462 457.6792 325.1873 454.2143 325.1873 450.8612 325.7462 448.6257 329.3229 443.4843 329.6582 442.3666 330.7759 443.3725 334.4644 448.514 351.23 463.8266 353.3537 464.8326 355.2538 465.5032 357.4892 465.8385 360.8424 465.9503 361.9601 466.062 363.4131 466.5091 364.1955 467.4033 365.9838 470.3094 366.3191 471.3153 366.2074 472.2095 365.6485 473.1036 365.0897 473.7743 364.8661 474.7802 365.0897 476.7921 365.2014 479.4746 365.8721 480.9276 366.6545 481.8218 367.7722 482.4924 369.8958 483.2748 371.0135 483.6101 371.9077 483.7219 374.1431 484.7278 375.5961 486.1809 382.7495 488.1927 396.8327 490.3164 398.0622 490.6517 405.6626 494.6755 407.0039 495.0108 408.2333 495.1226 410.1334 494.6755 412.2571 494.1166 414.7161 493.7813 419.2987 494.0048 419.9693 492.9989 420.1928 489.4222 420.4164 488.3045 420.6399 487.5221 421.5341 486.6279 422.2047 485.622 423.0989 485.0631 429.3581 486.4044 431.7053 488.1927 432.5994 489.3105 434.0525 490.6517 435.6173 491.4341 437.5174 492.3283 442.2118 495.3461 443.3295 495.5696 444.2237 495.2343 445.3414 494.0048 446.2355 493.3342 449.3651 492.2165 450.3711 491.7694 452.4947 490.4282 453.7242 489.9811 455.289 489.6458 456.5185 489.6458 458.7539 490.4282 459.7598 490.5399 460.7658 490.4282 470.8252 488.1927 472.8371 487.9692 473.9548 488.1927 474.9607 489.3105 475.0725 493.2224 475.7431 494.0048 476.7491 494.7872 478.9845 495.3461 494.2971 497.0227 495.1913 497.358 495.8619 498.1404 496.5326 501.27 496.8679 502.2759 497.4267 503.0583 497.8738 503.6172 501.5623 506.4114 502.4564 507.3056 503.0153 508.088 503.2388 509.541 504.9154 512.4471 509.6098 517.4768 511.1746 518.7063 512.1805 519.2651 513.5218 520.3828 514.863 523.1771 515.1983 528.095 514.9748 529.2128 514.7513 530.3305 514.863 531.7835 515.5337 532.5659 516.5396 533.1248 517.6573 533.3483 519.781 533.3483 526.1519 532.7894 527.3814 532.9012 528.4991 533.3483 529.9521 534.2425 530.9581 535.3602 531.7405 536.7014 532.2993 537.9309 534.423 541.0605 539.8998 542.1782 541.241 544.1901 541.9117 544.6372 543.0294 545.4196 544.1471 545.7549 545.153 545.7549 546.159 545.6431 547.1649 545.4196 548.2826 544.9725 549.2886 544.4136 555.8831 540.3899 574.2135 532.3424 575.5548 531.8953 577.0078 531.6717 578.3491 531.6717 580.3609 531.4482 581.7022 531.0011 582.9317 530.2187 588.4085 525.4125 590.4204 524.2948 591.7616 523.736 592.9911 523.6242 593.997 523.8477 594.6677 524.0713 594.8912 524.2948 595.003 524.2948Z" />
  <path class="Centre" d="M359.2776 852.2315L357.8245 850.7784 356.0362 848.543 353.9125 844.2957 353.3537 843.5133 352.9066 843.178 352.236 842.8427 351.23 842.8427 350.2241 843.4015 345.3062 848.543 335.9174 856.1435 332.8996 859.273 331.7818 861.1732 328.764 872.462 326.9757 873.468 322.7284 874.8092 321.2754 874.921 320.2694 874.5857 320.0459 873.5798 320.3812 873.0209 320.493 872.7974 320.94 871.6796 320.8283 871.009 319.487 870.1149 309.5394 865.3087 307.6393 863.9674 306.5216 863.4086 303.392 862.738 301.8272 861.5085 300.2624 860.7261 297.4681 866.2029 296.7975 867.097 292.7737 869.2207 290.9854 870.4502 289.9794 871.009 287.9675 871.6796 287.0734 872.462 284.2791 877.6035 283.4967 879.9507 282.2672 883.3039 281.2613 883.9745 274.6668 887.1041 270.4195 888.4453 268.4076 888.6689 254.6597 888.5571 251.0831 889.3395 249.63 889.4513 245.9416 888.7806 243.4826 889.116 240.2413 889.6748 236.5528 885.7628 235.4351 884.9804 234.988 884.0862 234.5409 881.5155 234.0938 880.6213 233.3114 880.0625 232.4173 879.8389 231.4113 879.0565 230.5172 877.7153 229.0641 871.1208 228.0582 868.8854 225.4875 865.644 224.3697 864.8616 223.3638 864.8616 220.6813 865.3087 219.5636 865.3087 218.7812 864.8616 217.5517 864.3028 215.5398 863.9674 211.4043 864.6381 207.7158 864.7498 207.2688 864.3028 206.9334 862.2909 206.3746 860.5025 205.9275 859.8319 205.2569 859.273 203.6921 859.0495 201.6802 859.0495 195.9799 860.279 193.7444 860.9496 166.0252 869.1089 159.0954 870.2266 158.4248 869.8913 154.0657 855.4728 154.8481 852.5668 155.4069 853.1256 155.7422 853.2374 156.1893 853.4609 156.6364 853.4609 156.86 853.4609 157.1953 853.4609 157.5306 853.3492 158.0894 853.1256 158.5365 852.9021 160.7719 850.8902 161.5543 850.4431 161.8897 850.2196 162.1132 849.8843 162.4485 849.549 162.7838 845.3017 163.2309 843.8486 165.131 839.0425 165.6899 834.9069 166.0252 833.7892 167.0311 831.6656 169.043 829.6537 173.9609 827.3065 175.0787 828.4242 175.7493 829.0948 176.5317 829.7655 177.0905 830.2125 177.9847 830.4361 180.8908 831.2185 182.1202 832.0009 183.1262 833.0068 184.5792 835.0187 185.3616 835.8011 186.3675 836.1364 187.2617 835.9129 188.2677 835.1305 188.9383 834.2363 189.6089 833.1186 190.5031 830.4361 190.2795 828.0889 191.1737 824.7358 191.1737 823.9534 191.0619 822.7239 190.6149 820.3767 190.6149 819.3707 191.0619 817.6942 191.9561 815.9058 194.0798 812.5527 194.8622 810.7644 195.8681 809.1996 196.5387 807.9701 197.3211 807.8583 198.4388 806.9641 198.9977 806.7406 200.0036 806.6288 200.5625 806.2935 201.0096 805.9582 201.6802 805.6229 202.5744 805.5111 204.698 805.6229 206.3746 805.1758 209.616 803.4992 213.6397 802.7168 217.1046 801.0403 218.5576 801.3756 219.6754 800.2579 220.7931 799.5872 225.4875 798.3578 226.1581 798.1342 226.9405 797.6871 229.623 795.8988 231.7466 793.9987 230.9642 792.7692 230.5172 792.2103 221.4637 784.051 217.1046 776.6741 214.1986 769.1855 214.7574 761.0262 214.4221 758.4554 213.6397 758.0084 212.8573 758.0084 211.8514 758.1201 210.2866 758.9025 209.5042 759.0143 208.61 758.9025 207.6041 758.5672 206.4864 758.3437 205.3686 758.4554 204.4745 758.9025 203.5803 759.7967 203.1332 761.138 202.2391 765.6088 201.2331 767.8442 198.5506 770.5267 197.0976 769.8561 196.5387 769.1855 196.3152 768.0678 195.9799 767.3971 195.3092 767.1736 194.4151 767.956 193.8562 768.6266 193.5209 769.0737 192.4032 770.0796 190.9502 770.7503 187.3735 774.1034 186.144 774.6623 185.0263 774.9976 181.4496 774.4387 180.4437 773.7681 179.6613 773.0975 178.7671 772.4268 177.8729 771.9798 177.2023 771.868 176.3081 771.868 175.6375 771.7562 174.7433 771.3091 173.0668 769.8561 172.1726 769.6326 171.1667 769.8561 170.1607 770.0796 169.1548 770.0796 168.3724 769.7443 168.0371 769.2972 167.8135 768.9619 167.7018 768.4031 167.7018 767.5089 168.0371 766.1677 168.5959 764.6029 172.0608 759.0143 175.9728 754.9905 176.5317 754.0964 176.867 753.2022 177.2023 751.6374 177.3141 750.6315 177.2023 749.402 176.867 748.1725 175.8611 746.943 173.8492 747.2783 170.9431 748.6196 166.584 751.3021 165.8017 751.0785 165.131 750.5197 165.6899 745.8253 166.4723 744.1487 167.2547 743.4781 170.8314 741.578 173.8492 739.119 175.6375 736.9954 177.4259 733.0834 183.9086 734.2011 185.1381 734.2011 186.5911 733.8658 198.6624 728.0537 199.5565 727.4948 200.4507 726.7124 200.8978 725.93 201.2331 725.2594 201.2331 725.0359 201.4567 724.8123 201.6802 724.477 202.3508 723.8064 203.245 723.5828 204.4745 724.0299 205.5922 724.7006 209.2806 728.2772 210.5101 728.6125 212.2985 728.8361 214.4221 728.8361 215.4281 728.389 216.3222 727.7184 217.3282 725.3712 217.5517 724.5888 219.34 719.7826 220.2342 716.7648 220.5695 714.6411 220.7931 713.5234 221.3519 712.2939 222.6932 710.6174 224.1462 709.4997 226.4934 708.382 228.2817 707.8231 227.9464 706.7054 227.6111 706.0348 227.6111 704.9171 227.7229 704.2464 228.2817 701.6757 228.2817 701.1168 228.0582 699.2167 228.0582 698.099 228.2817 697.4284 228.6171 696.7578 229.7348 695.7518 230.4054 695.4165 231.076 695.193 231.6349 695.0812 232.082 694.9694 232.4173 694.8576 232.8644 694.2988 235.0998 690.6103 235.3233 690.4986 236.6646 690.0515 236.9999 689.8279 237.2234 689.3809 237.5587 688.3749 237.7823 687.8161 237.8941 687.2572 237.8941 686.8101 236.6646 685.2453 237.7823 683.6805 238.0058 683.3452 238.4529 682.7864 238.7882 682.004 239.5706 679.545 239.6824 678.092 239.5706 674.8506 239.3471 673.8447 239.2353 673.5094 238.3411 671.9446 238.2294 671.6092 238.1176 670.9386 237.8941 669.9327 238.5647 668.5914 239.6824 667.1384 240.353 665.6854 239.6824 664.5677 241.5825 663.4499 242.3649 662.6675 243.0355 661.1028 243.7062 660.7674 244.4886 660.6557 245.1592 660.2086 245.6063 659.538 247.2828 656.1848 248.5123 655.626 248.7359 655.0671 248.4006 653.8376 247.6182 653.7259 246.6122 653.9494 245.718 653.6141 245.1592 652.4964 245.271 651.6022 245.6063 650.8198 245.718 649.7021 245.6063 648.4726 245.271 647.802 244.8239 647.4667 244.4886 646.9078 244.3768 645.9019 244.265 644.2253 243.9297 643.3311 245.1592 642.437 245.718 640.9839 245.6063 639.6427 244.4886 639.0838 245.3827 638.1897 246.724 637.1837 248.177 636.4013 249.0712 636.2895 250.5242 636.8484 252.3125 636.4013 255.3304 634.8365 275.3374 630.3657 276.7904 629.695 277.4611 629.1362 279.4729 628.1303 283.7202 624.2183 287.1851 621.9828 288.8617 620.5298 290.5383 619.4121 292.3266 619.1886 294.115 619.3003 295.7915 619.0768 296.3504 618.7415 296.6857 618.2944 297.3563 617.9591 298.474 617.7355 299.5917 617.4002 300.8212 615.7237 301.4919 615.3883 302.2743 615.6119 302.4978 615.9472 302.9449 616.1707 303.6155 616.059 303.7273 615.7237 303.5037 614.4942 303.6155 614.1589 304.5097 613.8235 306.8569 613.6 307.4157 614.3824 307.8628 614.9413 310.7689 618.0708 312.7807 619.5239 314.7926 620.6416 316.0221 621.0887 317.4751 621.424 319.7106 621.6475 321.7224 621.5358 322.7284 621.3122 323.7343 621.0887 324.7403 620.5298 326.7521 619.3003 328.2052 618.6297 330.1053 618.2944 333.3466 618.2944 335.135 618.6297 336.588 619.1886 347.8769 627.4596 348.7711 628.3538 349.3299 629.248 349.777 630.2539 350.0006 631.1481 350.2241 631.8187 350.5594 632.3776 352.1242 634.0541 352.7948 634.8365 353.0184 635.5072 355.142 636.2895 364.3073 636.5131 386.885 636.5131 386.6615 637.6308 386.438 639.0838 386.7733 640.9839 386.885 641.8781 386.2144 644.7842 386.3262 645.2312 386.5497 646.0136 387.1086 647.0196 389.4558 649.7021 391.5794 652.9435 392.2501 654.2847 393.4795 658.3085 393.9266 659.2026 394.5972 660.2086 396.8327 662.7793 397.168 663.3382 397.5033 664.0088 397.7268 665.3501 399.0681 668.5914 400.8564 671.6092 401.6388 673.6211 403.0919 675.7448 403.3154 677.086 402.8683 679.4332 399.0681 688.822 394.9326 695.9754 394.2619 696.7578 393.1442 697.3166 391.6912 697.5402 386.2144 697.4284 381.7436 698.5461 382.6377 700.1109 388.5616 704.6935 398.5092 715.0882 399.627 716.7648 401.3035 719.7826 401.8624 721.571 401.9741 722.9122 401.5271 724.9241 401.3035 725.3712 401.1917 726.1536 401.4153 727.0477 402.533 727.7184 407.0039 729.3949 408.1216 729.6185 409.1275 729.842 411.1394 729.842 412.2571 730.4009 413.5983 731.8539 416.8397 738.2249 418.0692 741.578 415.722 761.3615 414.8278 762.7028 414.1572 763.1498 413.1513 763.2616 411.2512 762.591 410.1334 762.4792 409.2393 762.591 407.2274 763.2616 406.1097 763.5969 405.1037 763.4851 402.9801 762.9263 401.9741 762.8145 399.627 763.0381 398.3975 763.0381 397.3915 762.9263 396.7209 762.8145 395.9385 762.4792 395.2679 762.2557 394.5972 762.2557 393.7031 762.3674 392.6971 762.8145 388.5616 765.2735 387.4439 766.503 386.3262 768.2913 384.9849 771.868 383.5319 777.7919 382.4142 780.0273 379.5081 782.3745 380.5141 785.3923 380.6259 786.2865 380.6259 787.4042 379.9552 790.9809 376.8256 801.152 376.8256 802.6051 377.8316 804.2816 378.8375 805.7347 379.1728 806.5171 379.1728 807.4112 378.8375 808.4172 378.1669 809.1996 376.4903 810.0937 375.4844 810.3173 374.2549 810.8761 373.5843 811.2114 373.0254 811.6585 371.2371 813.3351 370.5664 814.341 370.4547 814.6763 370.3429 814.7881 368.4428 816.3529 368.1075 816.5765 367.8839 817.0235 367.7722 817.1353 367.6604 817.2471 367.4369 817.3589 366.9898 817.4706 364.9779 817.4706 359.7246 819.5943 359.054 819.7061 358.4952 820.0414 358.0481 820.4884 357.601 821.3826 356.8186 822.5003 355.2538 823.2827 354.6949 823.2827 354.4714 823.5063 353.9125 823.9534 353.4655 824.8475 353.4655 825.8535 353.5772 827.0829 354.8067 829.4301 356.595 831.2185 361.8483 833.4539 362.6307 834.1245 362.966 835.2422 362.7425 836.807 362.966 841.9485 362.7425 844.1839 361.8483 846.8664 359.2776 852.2315Z" />
  <path class="Est" d="M455.5125 975.7386L455.4008 975.5151 452.6065 915.1586 451.8241 909.7936 450.8182 910.1289 449.7004 910.4642 448.6945 911.0231 445.3414 913.8174 444.0001 914.2645 443.8883 914.8233 444.7825 916.2763 443.6648 915.941 442.4353 915.3822 441.5411 915.2704 441.2058 916.4999 441.7647 918.9589 441.5411 919.9648 440.3117 920.4119 435.1702 920.4119 434.1642 920.0766 430.9229 918.0647 430.6993 917.6176 430.0287 916.947 429.4699 916.7234 429.1345 917.7294 428.911 918.0647 428.2404 918.0647 427.0109 918.0647 426.2285 917.6176 424.5519 915.6057 423.7695 915.2704 422.8754 914.5998 421.9812 914.488 421.1988 915.6057 421.3106 916.2763 422.4283 918.9589 422.9871 919.853 421.8694 919.853 420.8635 919.7413 420.3046 919.1824 419.7458 917.0587 419.1869 916.3881 417.0633 915.6057 417.175 914.2645 416.2809 913.1468 415.0514 912.8114 414.0454 913.8174 413.263 913.4821 412.816 913.3703 412.3689 913.4821 411.5865 913.8174 410.5805 913.035 409.1275 912.8114 407.898 913.1468 407.3392 914.1527 407.1156 914.8233 406.445 915.0469 405.8861 914.8233 405.3273 913.2585 404.7684 913.2585 404.2096 913.8174 403.7625 914.488 402.533 913.9292 398.621 912.8114 397.5033 912.9232 396.9444 912.8114 395.3796 911.2466 394.709 910.7996 394.5972 911.0231 392.9207 912.5879 391.6912 911.8055 390.4617 911.4702 387.5557 911.3584 386.3262 911.0231 384.7614 910.3525 382.6377 910.0172 382.3024 909.7936 382.0789 909.4583 381.4083 909.0112 379.7317 908.3406 379.2846 908.0053 376.7139 904.3168 376.3785 903.1991 376.155 893.2515 375.2608 888.8924 373.9196 884.9804 370.6782 879.2801 368.331 876.4858 362.1836 870.6737 359.3893 866.9853 358.3834 865.3087 357.9363 864.3028 357.8245 863.6321 357.7128 862.8497 359.2776 852.2315 361.8483 846.8664 362.7425 844.1839 362.966 841.9485 362.7425 836.807 362.966 835.2422 362.6307 834.1245 361.8483 833.4539 356.595 831.2185 354.8067 829.4301 353.5772 827.0829 353.4655 825.8535 353.4655 824.8475 353.9125 823.9534 354.4714 823.5063 354.6949 823.2827 355.2538 823.2827 356.8186 822.5003 357.601 821.3826 358.0481 820.4884 358.4952 820.0414 359.054 819.7061 359.7246 819.5943 364.9779 817.4706 366.9898 817.4706 367.4369 817.3589 367.6604 817.2471 367.7722 817.1353 367.8839 817.0235 368.1075 816.5765 368.4428 816.3529 370.3429 814.7881 370.4547 814.6763 370.5664 814.341 371.2371 813.3351 373.0254 811.6585 373.5843 811.2114 374.2549 810.8761 375.4844 810.3173 376.4903 810.0937 378.1669 809.1996 378.8375 808.4172 379.1728 807.4112 379.1728 806.5171 378.8375 805.7347 377.8316 804.2816 376.8256 802.6051 376.8256 801.152 379.9552 790.9809 380.6259 787.4042 380.6259 786.2865 380.5141 785.3923 379.5081 782.3745 382.4142 780.0273 383.5319 777.7919 384.9849 771.868 386.3262 768.2913 387.4439 766.503 388.5616 765.2735 392.6971 762.8145 393.7031 762.3674 394.5972 762.2557 395.2679 762.2557 395.9385 762.4792 396.7209 762.8145 397.3915 762.9263 398.3975 763.0381 399.627 763.0381 401.9741 762.8145 402.9801 762.9263 405.1037 763.4851 406.1097 763.5969 407.2274 763.2616 409.2393 762.591 410.1334 762.4792 411.2512 762.591 413.1513 763.2616 414.1572 763.1498 414.8278 762.7028 415.722 761.3615 418.0692 741.578 416.8397 738.2249 413.5983 731.8539 412.2571 730.4009 411.1394 729.842 409.1275 729.842 408.1216 729.6185 407.0039 729.3949 402.533 727.7184 401.4153 727.0477 401.1917 726.1536 401.3035 725.3712 401.5271 724.9241 401.9741 722.9122 401.8624 721.571 401.3035 719.7826 399.627 716.7648 398.5092 715.0882 388.5616 704.6935 382.6377 700.1109 381.7436 698.5461 386.2144 697.4284 391.6912 697.5402 393.1442 697.3166 394.2619 696.7578 394.9326 695.9754 399.0681 688.822 402.8683 679.4332 403.3154 677.086 403.0919 675.7448 401.6388 673.6211 400.8564 671.6092 399.0681 668.5914 397.7268 665.3501 397.5033 664.0088 397.168 663.3382 396.8327 662.7793 394.5972 660.2086 393.9266 659.2026 393.4795 658.3085 392.2501 654.2847 391.5794 652.9435 389.4558 649.7021 387.1086 647.0196 386.5497 646.0136 386.3262 645.2312 386.2144 644.7842 386.885 641.8781 386.7733 640.9839 386.438 639.0838 386.6615 637.6308 386.885 636.5131 429.5816 636.5131 464.2307 636.2895 472.39 635.2836 481.5552 631.7069 482.7847 631.4834 484.3495 631.5952 488.7086 633.16 490.2734 633.4953 497.4267 632.3776 502.1211 631.8187 510.3922 629.695 514.9748 629.4715 516.0925 629.0244 516.6514 628.3538 517.0985 627.5714 517.4338 627.1243 518.1044 626.4537 518.8868 626.3419 519.6692 626.5655 521.234 628.5773 523.0223 629.4715 523.2459 629.4715 523.2459 629.5833 523.3576 630.0304 523.0223 630.8128 522.687 631.2598 522.3517 632.0422 522.0164 632.3776 521.5693 632.3776 520.6751 631.7069 520.2281 631.7069 519.5574 632.4893 519.3339 633.0482 519.4457 633.8306 520.2281 634.8365 520.8987 635.5072 522.0164 636.7366 523.2459 637.8543 524.5871 639.1956 525.146 640.6486 525.5931 642.2134 526.1519 643.5547 527.605 644.5606 529.1697 644.5606 531.964 644.8959 533.1935 644.6724 535.6525 643.2194 536.6584 643.3311 537.8879 645.1195 538.335 646.9078 539.5645 648.4726 540.1233 657.9732 540.7939 659.7615 540.1233 660.991 539.0056 665.7971 537.4408 669.8209 537.1055 671.1622 537.329 672.727 537.7761 673.9564 539.0056 676.0801 539.5645 677.4213 539.6762 678.5391 539.5645 681.2216 539.2292 682.1157 537.9997 684.5747 537.6644 686.0277 537.7761 688.5985 537.4408 689.6044 536.2113 690.0515 536.2113 690.7221 535.4289 692.1751 534.5348 693.5164 534.1994 693.9635 533.9759 695.0812 533.5288 696.646 532.7464 698.099 531.7405 699.105 530.9581 699.3285 531.2934 700.2227 532.7464 701.7875 534.5348 703.0169 538.335 704.2464 540.1233 705.1406 541.5763 706.5936 542.5823 708.382 543.2529 710.3938 543.5882 712.4057 543.5882 716.8766 543.9235 720.3415 543.3647 723.5828 543.3647 723.9182 543.2529 725.2594 543.5882 726.2653 544.1471 727.0477 544.5942 727.8301 544.3706 730.1773 544.7059 731.0715 545.2648 731.9657 545.7119 733.0834 546.9414 741.3545 546.8296 742.2486 546.4943 744.484 546.159 745.3782 546.0472 746.0488 546.6061 747.5019 547.1649 754.2081 548.3944 758.3437 550.6298 762.1439 553.8712 765.1617 567.8426 774.774 571.6428 776.2271 572.7605 776.7859 573.3194 777.6801 573.8782 779.9155 574.4371 781.145 577.5667 784.9452 578.9079 787.4042 579.6903 789.8631 580.5845 795.1164 580.6963 800.1461 581.2551 802.4933 582.2611 803.3875 583.6023 803.1639 584.9436 803.7228 585.5024 804.9523 585.8377 806.1817 586.2848 806.7406 587.5143 806.7406 588.8556 806.9641 589.9733 807.7465 590.1968 808.6407 588.4085 809.4231 586.5084 809.8702 583.0435 811.5468 581.3669 811.8821 579.9139 811.6585 577.0078 810.9879 575.5548 810.9879 580.6963 823.3945 588.2967 834.5716 595.4501 842.1721 596.3442 843.0662 602.2681 849.4372 609.645 857.2612 618.8102 866.9853 627.5284 876.2623 635.7994 884.9804 642.3939 892.022 643.0646 892.3573 643.7352 892.5809 644.8529 892.8044 645.1882 892.6926 646.1942 892.1338 646.6413 891.9102 647.2001 892.022 648.2061 892.6926 648.5414 892.8044 652.2298 892.3573 653.6828 892.9162 655.4712 894.2574 656.9242 896.1575 657.5948 897.8341 658.8243 902.305 659.0479 902.752 659.2714 903.1991 659.7185 903.5344 660.8362 903.0873 661.8421 902.8638 662.6245 902.9756 663.6305 903.3109 664.3011 904.0933 666.2012 906.7758 667.4307 909.6818 668.5484 911.582 669.4426 913.5938 669.6661 915.941 668.8837 917.9529 666.5365 920.3001 666.2012 922.6473 666.5365 925.6651 666.5365 926.8946 666.7601 927.677 667.6542 927.677 668.8837 927.4535 670.0014 927.5652 671.0074 927.7888 670.225 929.0183 669.5543 930.3595 669.219 931.2537 669.4426 933.1538 670.7838 936.1716 671.1191 937.96 670.6721 939.6365 669.3308 942.6543 669.219 944.6662 669.5543 945.7839 670.6721 947.7958 671.1191 949.4724 671.1191 952.7138 671.2309 953.4961 671.9015 955.2845 673.0193 957.5199 674.6958 959.42 675.2547 960.3142 675.59 961.0966 675.8135 961.879 675.9253 963.6673 676.1488 964.1144 677.3783 964.8968 677.7136 965.1204 677.7136 965.9028 677.2666 967.0205 677.1548 967.9146 678.2725 968.4735 678.6078 968.8088 679.0549 969.1441 679.6138 969.9265 678.8314 970.9325 675.2547 973.615 673.6899 972.0502 671.9015 971.7149 670.4485 972.609 669.8897 974.5091 668.8837 976.521 668.6602 977.527 668.7719 978.6447 669.219 979.4271 669.4426 980.2095 669.219 981.4389 668.9955 981.5507 668.6602 981.5507 668.3249 981.6625 667.9895 981.9978 667.8778 982.5567 667.8778 983.0037 667.9895 983.2273 668.1013 984.0097 668.4366 984.6803 668.4366 985.4627 667.0954 987.3628 666.8718 988.257 666.9836 991.4983 667.3189 991.9454 667.8778 992.169 668.6602 992.8396 670.225 995.5221 673.131 1003.2343 675.2547 1012.9584 675.0311 1014.4114 674.0252 1014.7468 672.1251 1014.1879 671.3427 1014.4114 667.4307 1020 663.9658 1015.5292 663.1834 1014.0761 663.1834 1013.182 663.5187 1012.2878 663.6305 1011.3936 663.1834 1010.3877 662.5128 1009.7171 661.5068 1009.3817 660.5009 1009.3817 659.6067 1009.8288 658.0419 1009.27 656.3653 1008.8229 655.0241 1008.264 654.8006 1006.811 653.7946 1007.3699 652.6769 1007.8169 651.5592 1007.8169 651.1121 1007.1463 650.8886 1005.8051 650.3297 1005.1344 649.4355 1004.6873 647.4237 1003.3461 645.0765 1002.5637 643.9587 1002.0048 640.6056 997.6458 639.935 997.3105 637.8113 996.9751 636.8054 996.5281 635.7994 995.9692 635.4641 995.6339 627.0813 994.6279 619.5926 992.5043 615.7924 991.7219 611.8804 992.2807 607.4096 994.9633 605.6212 995.5221 603.9447 996.4163 602.9387 996.5281 602.9387 996.3045 600.9268 995.4103 600.4798 995.2986 599.8091 994.6279 599.6974 994.1809 599.8091 993.7338 599.9209 992.6161 599.6974 991.9454 599.2503 991.2748 598.5796 990.716 595.5618 989.5982 595.1147 989.3747 594.7794 988.7041 594.2206 987.3628 593.7735 986.9157 591.9851 986.1333 590.5321 986.5804 589.4144 987.0275 586.6201 986.0216 585.3906 988.5923 584.1612 988.1452 583.6023 988.1452 582.7081 989.5982 581.2551 990.9395 579.8021 991.3866 578.7961 989.8218 577.1196 990.3806 575.7783 990.0453 571.531 986.6922 570.6369 986.5804 569.9662 988.7041 569.1838 989.1512 567.2837 989.3747 563.8188 989.0394 564.1541 986.9157 565.0483 984.4568 563.3717 983.2273 563.0364 982.4449 561.9187 980.6565 560.6892 979.4271 560.0186 979.9859 560.0186 980.9919 559.9068 982.1096 559.2362 982.892 557.8949 983.2273 552.5299 983.8979 552.3064 983.4508 552.3064 981.4389 552.1946 980.8801 551.7475 980.8801 550.9651 981.1036 550.071 981.1036 549.1768 980.8801 549.7356 980.6565 551.0769 979.6506 548.6179 978.4211 548.0591 978.6447 548.6179 980.8801 547.2767 980.3212 545.6001 978.5329 544.3706 977.7505 542.1352 977.8623 541.241 977.4152 542.0234 976.0739 539.8998 975.068 536.9937 971.8266 534.6465 971.2678 534.1994 971.8266 533.4171 972.609 533.4171 973.3914 533.6406 974.1738 533.4171 974.9562 532.5229 975.1798 525.5931 976.7446 523.8047 977.8623 523.3576 977.974 522.0164 977.7505 520.3398 976.1857 518.9986 975.2915 513.41 974.6209 509.498 976.0739 508.7156 976.1857 499.4386 976.0739 485.4672 975.9622 469.7075 975.8504 455.5125 975.7386Z" />
  <path class="Extrême-Nord" d="M502.4564 282.7573L502.4564 282.6455 502.3447 282.422 503.1271 277.057 502.2329 275.604 494.0736 273.145 492.7323 273.145 490.0498 272.5861 488.2615 270.1272 485.4672 268.1153 485.1319 267.78 482.8965 264.5386 481.667 263.7562 478.8727 262.7503 474.0666 261.8561 472.2782 261.7443 468.7015 262.0796 465.2366 261.7443 459.6481 260.6266 458.4186 260.7384 457.0773 261.0737 455.6243 262.3032 454.8419 263.4209 454.3948 264.4268 454.3948 265.4328 454.7301 266.4387 456.0714 268.3388 456.5185 269.3448 456.0714 270.2389 454.9537 270.9096 449.3651 272.6979 447.3532 273.7039 446.012 274.1509 444.2237 273.9274 440.9823 273.8156 436.735 275.1569 435.6173 275.1569 434.6113 274.7098 433.8289 273.9274 432.0406 271.0213 431.7053 270.3507 432.5994 269.9036 434.3878 268.4506 435.5055 267.1094 436.8468 264.0915 437.0703 262.862 436.8468 261.8561 436.2879 260.0678 436.2879 258.8383 438.2998 253.3615 441.3176 236.484 444.559 225.1952 447.0179 220.0537 462.6659 197.5877 463.2248 196.47 463.7836 195.0169 463.2248 191.6638 463.6718 189.7637 464.566 188.3107 466.019 187.0812 469.3722 185.0693 470.3781 183.7281 471.9429 180.1514 474.0666 176.3512 476.9726 172.6627 480.214 169.3096 483.6789 166.5153 486.3614 166.5153 489.8263 167.5212 495.9737 170.2037 497.762 170.4273 499.7739 169.8684 501.674 168.9743 503.2388 167.7448 505.586 165.2858 506.7037 164.8387 509.0509 164.5034 509.8333 164.1681 517.6573 156.903 519.2221 156.0088 524.4754 154.3322 526.3755 153.2145 529.6168 150.3085 531.4052 149.1908 535.9878 147.5142 537.4408 146.7318 538.5585 145.0552 539.4527 142.9316 540.1233 140.6961 540.4586 138.796 540.4586 136.5606 539.8998 134.7723 538.8938 133.2075 537.4408 131.7545 536.9937 131.1956 536.6584 130.525 536.3231 129.9661 535.6525 129.519 534.1994 129.519 533.8641 129.4073 533.0817 128.4013 532.8582 127.5072 533.3053 126.7248 536.5466 122.4774 537.2173 121.0244 539.1174 111.8592 540.1233 108.9531 540.4586 105.9353 540.3469 105.2647 540.2351 104.3705 538.5585 100.4585 538.4468 98.6702 540.0116 97.6642 539.788 96.7701 541.3528 90.2873 541.7999 89.2814 542.247 88.7226 542.4705 88.1637 544.1471 86.3754 544.0353 85.4812 543.5882 84.587 542.5823 84.0282 541.7999 84.2517 540.5704 84.9223 539.4527 85.3694 539.0056 84.9223 538.335 83.0222 536.9937 81.9045 535.2054 80.8986 533.5288 79.6691 534.3112 79.222 534.6465 79.1102 534.6465 78.4396 533.7524 77.9925 531.0699 75.9806 530.511 75.4218 530.2875 74.5276 530.7345 73.1864 530.511 72.2922 528.052 71.0627 522.4635 69.6097 504.3565 69.0508 503.0153 68.8273 501.7858 68.0449 501.0034 66.7036 501.0034 65.6977 501.4505 62.9034 501.5623 61.2268 501.1152 59.662 500.8916 59.215 500.7799 52.2851 495.8619 28.2543 490.944 4.2235 492.7323 4.2235 522.0164 4 522.9106 4.5589 523.5812 4.8942 527.605 11.2651 527.605 11.3769 528.9462 12.7182 529.6168 14.0594 529.9521 15.6242 529.7286 17.4125 528.3873 21.5481 528.3873 22.6658 529.2815 24.007 531.964 26.0189 533.5288 27.6955 533.5288 31.1604 533.7524 31.9428 534.0877 32.3899 534.5348 32.3899 535.3172 32.0546 535.3172 32.9487 535.4289 33.8429 535.876 34.29 536.6584 34.1782 536.7702 34.0664 538.335 32.837 539.0056 32.7252 539.1174 32.837 539.6762 33.0605 539.788 33.5076 539.8998 34.0664 540.1233 34.6253 540.4586 34.7371 541.0175 34.7371 541.241 34.8488 542.6941 35.9666 542.8058 36.0783 542.8058 36.1901 543.5882 36.5254 544.2589 36.6372 544.3706 36.6372 545.0413 36.5254 546.2707 36.1901 546.4943 36.3019 547.7238 36.749 548.2826 38.202 547.5002 40.1021 547.3884 40.3256 547.3884 40.4374 547.3884 40.9963 547.8355 41.7787 547.9473 41.7787 547.9473 41.8904 548.0591 42.0022 548.3944 42.114 549.4003 40.4374 549.8474 40.1021 549.9592 40.2139 550.6298 40.4374 551.4122 41.2198 551.9711 42.114 552.1946 42.8964 552.3064 43.0081 552.8652 44.3494 554.43 44.5729 557.3361 43.9023 557.5596 44.4612 558.342 45.8024 560.3539 53.2911 561.2481 56.8678 560.9128 57.3149 560.6892 57.6502 560.2421 58.6561 560.0186 59.3267 560.0186 60.3327 560.1304 60.4444 560.4657 60.5562 561.0245 61.0033 561.1363 60.8915 561.0245 60.7798 561.3598 60.668 561.4716 60.668 562.0305 60.8915 562.4776 61.2268 562.5893 61.5622 562.3658 62.5681 562.4776 63.0152 563.707 65.1388 565.1601 72.0686 564.9365 72.851 564.9365 75.8689 564.8248 79.1102 564.713 80.2279 564.2659 81.681 564.2659 82.7987 564.4894 83.3575 564.4894 83.4693 564.9365 83.8046 565.3836 84.3635 565.3836 84.587 565.4954 85.2576 565.0483 85.8165 564.3777 86.04 563.9306 86.3754 564.2659 87.7166 564.3777 87.8284 564.713 88.2755 565.4954 88.8343 566.9484 89.8403 568.8485 92.1875 569.7427 92.8581 570.3015 93.0816 571.1957 92.9699 572.6487 91.8521 572.7605 91.8521 574.3253 91.6286 575.8901 92.411 576.6725 92.9699 577.5667 93.864 577.1196 94.4229 576.7843 95.4288 576.7843 96.4348 577.2314 97.3289 577.902 97.9996 578.0138 98.5584 577.7902 99.0055 577.7902 99.229 577.6784 100.1232 577.5667 100.3468 578.4608 101.688 580.0256 103.0293 580.2492 103.8117 580.1374 103.9234 580.0256 104.0352 579.4668 104.147 578.7961 103.8117 578.2373 103.9234 577.902 104.147 577.902 104.3705 577.7902 104.4823 577.902 104.8176 578.0138 105.0411 578.7961 106.6059 578.9079 107.3883 578.9079 107.9472 578.6844 108.5061 578.4608 108.6178 578.4608 108.7296 578.2373 108.8414 578.1255 108.9531 577.7902 109.0649 577.5667 109.1767 577.4549 109.2884 577.2314 109.512 577.1196 109.6238 577.0078 110.0708 577.0078 110.1826 577.0078 110.4062 576.896 110.5179 577.0078 110.7415 577.1196 111.3003 577.3431 111.8592 577.5667 112.3063 577.5667 112.6416 577.6784 112.8651 577.6784 112.9769 577.7902 113.9828 577.7902 114.2064 578.0138 114.7652 578.1255 114.877 578.3491 115.1006 578.5726 115.3241 578.6844 115.5476 579.1315 115.7712 579.2432 115.7712 579.355 115.6594 579.6903 115.6594 579.9139 115.4359 579.9139 115.2123 579.9139 115.1006 579.9139 114.9888 580.0256 114.7652 580.2492 114.877 580.808 115.7712 583.0435 121.0244 582.7081 121.4715 582.7081 121.5833 582.4846 121.695 582.3728 121.695 582.1493 121.695 581.4787 121.8068 581.1433 121.9186 581.0316 122.0304 580.5845 122.3657 580.4727 122.4774 580.3609 122.701 580.3609 122.9245 580.3609 123.0363 580.4727 123.2598 580.5845 123.3716 580.9198 123.5952 580.5845 124.154 580.6963 124.4893 581.7022 125.3835 581.814 125.9424 581.7022 125.9424 581.4787 125.9424 581.3669 125.9424 581.2551 125.8306 580.5845 125.607 580.3609 125.4953 580.1374 125.4953 579.9139 125.607 579.6903 125.7188 579.355 126.0541 579.0197 126.8365 579.0197 126.9483 579.0197 127.0601 579.0197 127.5072 579.1315 127.7307 579.1315 127.9542 579.2432 127.9542 579.2432 128.1778 579.2432 128.2895 579.1315 128.2895 579.1315 128.4013 579.2432 128.6249 579.1315 130.1897 579.355 131.978 580.6963 136.0018 581.7022 137.5666 582.0375 138.1254 581.814 138.4607 582.1493 139.0196 582.2611 139.1314 582.3728 139.2431 583.267 139.5784 584.1612 140.6961 585.1671 143.6022 584.0494 146.1729 583.9376 146.1729 583.3788 146.5083 582.8199 146.7318 582.7081 146.8436 582.5964 147.0671 582.5964 147.4024 582.4846 147.7377 582.3728 147.7377 582.2611 147.8495 582.0375 147.9613 581.814 148.073 581.814 148.1848 581.814 148.5201 579.9139 150.6438 579.1315 152.2086 578.5726 153.9969 578.5726 154.3322 578.4608 154.5558 578.3491 155.4499 578.3491 155.5617 578.3491 155.6735 578.3491 155.7853 578.0138 158.5795 577.5667 160.0326 577.5667 161.0385 577.6784 161.262 577.6784 161.3738 577.6784 161.5974 577.4549 162.0444 577.7902 162.8268 577.7902 163.1622 577.5667 163.4975 577.4549 163.4975 576.6725 163.721 576.3372 163.9446 576.2254 163.9446 576.2254 164.0563 576.1136 164.2799 576.449 165.0623 576.449 165.2858 576.449 165.5094 575.8901 165.6211 575.7783 165.7329 575.5548 165.9564 575.5548 166.2917 576.0019 166.8506 576.1136 167.0741 576.0019 167.8565 575.7783 168.9743 575.7783 169.086 575.7783 169.4213 575.1077 174.8981 575.7783 184.0634 576.3372 191.7756 578.7961 197.4759 579.6903 198.8172 580.2492 200.382 579.9139 202.6174 578.7961 206.5294 579.0197 209.8825 585.726 222.9597 586.3966 225.0834 586.2848 226.5364 585.3906 228.1012 584.9436 230.2249 584.8318 232.4603 585.3906 234.1369 585.9495 234.6957 586.7319 235.031 587.7378 235.2546 588.7438 235.3663 589.638 235.5899 590.3086 236.037 590.6439 236.3723 592.4322 237.2664 593.2146 238.8312 594.4441 242.0726 595.7854 243.5256 596.9031 244.5316 597.7972 245.5375 598.1326 247.3259 598.1326 247.8847 598.1326 248.22 598.2443 249.5613 598.8032 251.4614 599.8091 252.9144 611.8804 264.3151 615.2336 269.0095 615.7924 269.3448 616.463 269.6801 616.3513 270.1272 616.6866 270.3507 618.0278 271.4684 619.1455 272.5861 620.4868 273.5921 626.2989 277.1688 628.9814 278.0629 629.4285 278.1747 633.2287 281.6396 631.6639 282.0867 613.2217 286.6693 611.8804 286.8928 606.9625 287.1164 592.9911 282.5338 592.2087 282.3102 587.8496 282.0867 586.9554 282.0867 582.9317 282.5338 582.1493 282.7573 581.1433 283.3162 580.4727 283.9868 579.5785 284.7692 578.6844 285.3281 576.1136 285.9987 573.4311 285.7751 568.2897 284.5457 564.2659 284.3221 563.0364 284.7692 555.3242 287.2282 553.2006 287.787 550.1827 287.6752 549.7356 287.6752 524.0283 281.3043 502.7917 282.6455 502.4564 282.7573Z" />
  <path class="Littoral" d="M74.1493 820.1531L74.2611 820.1531 77.0553 817.4706 78.7319 816.5765 79.5143 816.3529 79.8496 816.1294 79.9614 815.6823 80.1849 814.7881 81.0791 812.6645 84.6558 806.8524 84.8793 806.5171 85.2146 806.9641 85.997 807.2994 86.7794 807.4112 87.6736 807.9701 87.7854 808.4172 88.6795 810.5408 89.6855 811.5468 91.1385 812.7762 91.9209 814.2293 90.6914 815.9058 89.3502 815.347 88.7913 815.2352 88.1207 815.0117 87.003 814.1175 85.8853 812.2174 85.3264 811.8821 84.9911 811.6585 84.7675 811.3232 84.6558 810.429 83.5381 810.6526 82.7557 810.9879 82.3086 811.5468 82.1968 812.5527 84.544 814.0057 85.2146 814.6763 85.4382 815.6823 85.2146 816.4647 84.8793 817.3589 84.6558 818.5883 84.8793 819.259 86.3323 820.0414 87.003 820.712 85.8853 821.2708 84.4322 821.6062 81.3026 821.9415 79.6261 821.7179 76.6083 820.9355 75.267 820.712 74.1493 820.1531ZM154.8481 852.5668L154.1774 850.8902 152.7244 849.7725 151.0479 848.7666 149.8184 848.2077 149.5948 848.3195 149.4831 848.4312 148.9242 849.1019 148.7007 849.2136 148.4771 849.3254 148.03 849.4372 146.0182 849.7725 145.5711 849.8843 144.9004 850.1078 144.5651 850.3314 144.3416 850.4431 143.7827 851.002 143.3356 851.6726 143.0003 852.2315 142.665 852.7903 141.4355 854.6904 140.7649 855.3611 139.3119 856.7023 138.9766 856.9259 138.753 857.2612 138.4177 858.7142 138.4177 860.5025 138.4177 861.6202 138.8648 862.8497 138.8648 863.185 138.8648 863.4086 138.6413 863.7439 138.4177 864.0792 137.6353 864.9734 137.4118 865.1969 137.4118 865.644 137.5235 866.5382 137.5235 866.9853 137.4118 867.2088 137.3 867.4323 135.2881 871.2326 134.9528 871.6796 134.3939 872.1267 132.0468 873.468 131.1526 874.2504 130.2584 875.1446 129.476 876.2623 128.9172 876.7094 128.3583 877.1564 126.9053 877.8271 126.7935 877.8271 126.7935 877.6035 125.4523 877.7153 124.5581 877.4917 123.7757 876.9329 123.2168 876.374 122.658 875.5916 120.3108 871.2326 113.7163 862.9615 110.0278 859.8319 101.5332 853.908 103.4333 853.5727 105.6688 852.455 112.8221 846.9782 114.834 846.1958 117.1812 846.084 114.3869 845.3017 111.9279 846.3076 109.5807 847.7606 107.2336 848.543 101.1979 849.1019 100.192 848.543 99.7449 847.4253 100.0802 846.3076 101.5332 845.5252 98.9625 839.3778 94.7152 833.5657 93.5975 831.3303 93.0386 829.2066 95.274 831.3303 95.7211 831.6656 96.1682 832.0009 96.9506 833.901 97.2859 834.6834 98.4036 835.1305 99.9684 835.354 103.3216 835.2422 102.4274 834.7952 99.6331 834.0128 98.8507 833.5657 98.4036 833.1186 98.1801 832.6715 97.6212 831.8891 96.8388 830.1008 97.1741 827.8653 98.1801 825.7417 99.6331 824.2887 102.9862 827.3065 104.8864 827.7536 105.7805 825.6299 108.6866 827.0829 109.8043 827.9771 110.5867 829.2066 111.0338 828.3124 111.0338 827.3065 110.6985 826.4123 110.0278 825.6299 110.2514 825.5182 111.2573 825.6299 107.1218 824.0651 105.1099 822.9474 104.551 821.2708 105.6688 820.1531 107.9042 819.3707 110.4749 818.9237 112.2633 818.9237 112.2633 818.4766 112.1515 818.253 111.7044 817.6942 111.9279 817.5824 112.1515 817.5824 112.2633 817.4706 112.2633 817.0235 103.5451 818.5883 100.8626 818.253 99.5213 816.8 99.9684 814.5646 101.3097 812.5527 102.9862 811.6585 104.4393 810.3173 108.3513 804.5052 110.922 803.1639 111.2573 802.7168 111.5926 801.8227 111.4809 801.2638 110.0278 801.9344 108.3513 803.1639 107.5689 803.9463 106.8982 804.9523 106.3394 804.9523 106.3394 803.1639 104.7746 804.3934 101.8685 808.7525 100.3037 810.429 98.4036 811.435 96.0564 812.1056 94.2681 811.7703 94.2681 809.8702 93.0386 810.9879 91.362 810.0937 89.7972 808.5289 88.9031 806.5171 89.3502 804.3934 89.2384 804.2816 89.909 804.0581 90.4679 803.7228 91.2503 803.0521 92.2562 801.2638 92.8151 800.4814 93.9328 799.3637 94.4916 798.6931 94.3799 797.7989 93.7092 795.787 93.0386 794.7811 91.6974 793.9987 85.5499 792.881 83.6498 791.7633 83.8734 789.5278 84.4322 787.0689 90.4679 777.3448 90.915 775.4447 90.1326 772.9857 90.0208 771.7562 90.3561 766.6147 91.0267 764.1558 93.821 759.2378 95.1623 757.226 95.8329 756.6671 97.9565 756.5553 99.0743 756.8906 99.7449 756.8906 100.6391 756.5553 101.1979 755.7729 101.8685 752.7551 104.3275 749.1784 106.6747 747.3901 107.5689 745.2664 107.5689 742.9193 107.6806 742.0251 108.1277 740.5721 109.0219 739.2308 111.8162 736.5483 113.4927 734.4246 114.3869 733.6422 114.9458 732.7481 115.0575 731.7421 113.1574 729.6185 112.4868 728.5008 112.8221 727.1595 113.4927 725.0359 114.6105 722.3534 116.1752 720.4532 119.1931 719.8944 120.0872 718.7767 119.8637 717.2119 118.1871 713.4117 116.9576 711.288 113.6045 707.2642 112.1515 703.6876 111.4809 700.3344 111.3691 699.4403 111.8162 698.7696 112.4868 698.5461 113.4927 698.5461 114.4987 698.4343 115.5046 697.7637 118.6342 694.0752 121.652 693.4046 120.9814 699.8873 122.4344 701.7875 123.3286 701.8992 124.2228 701.5639 125.1169 701.0051 126.0111 700.3344 126.9053 700.2227 128.1348 700.7815 131.0408 702.7934 131.5997 703.5758 131.935 704.2464 132.1585 705.5877 133.388 707.9349 133.4998 711.6233 132.6056 713.6352 132.7174 714.0823 132.8292 714.4176 133.4998 715.5353 134.0586 717.2119 134.5057 717.9943 134.841 718.5531 138.1942 720.4532 138.5295 720.9003 138.753 721.571 139.0883 723.9182 139.4237 724.9241 139.5354 725.0359 139.8707 725.5947 140.6531 726.2653 141.1002 726.4889 142.3297 727.7184 142.8886 730.5127 143.5592 731.4068 144.0063 731.5186 144.3416 731.5186 144.5651 731.5186 145.124 731.5186 145.4593 731.4068 146.3535 731.295 148.5889 726.6007 149.2595 725.7065 149.7066 725.0359 152.948 722.8004 154.0657 721.7945 154.7363 720.565 155.0716 719.3355 155.9658 717.9943 156.86 717.7707 157.8659 717.8825 158.7601 718.2178 159.766 718.4414 160.6602 718.3296 162.5603 717.659 163.5662 717.4354 166.0252 717.1001 167.1429 718.5531 167.9253 721.6827 168.8195 723.1358 169.6019 724.7006 171.1667 728.9479 172.1726 729.9538 174.1845 730.7362 174.9669 731.7421 175.7493 732.4128 177.4259 733.0834 175.6375 736.9954 173.8492 739.119 170.8314 741.578 167.2547 743.4781 166.4723 744.1487 165.6899 745.8253 165.131 750.5197 165.8017 751.0785 166.584 751.3021 170.9431 748.6196 173.8492 747.2783 175.8611 746.943 176.867 748.1725 177.2023 749.402 177.3141 750.6315 177.2023 751.6374 176.867 753.2022 176.5317 754.0964 175.9728 754.9905 172.0608 759.0143 168.5959 764.6029 168.0371 766.1677 167.7018 767.5089 167.7018 768.4031 167.8135 768.9619 168.0371 769.2972 168.3724 769.7443 169.1548 770.0796 170.1607 770.0796 171.1667 769.8561 172.1726 769.6326 173.0668 769.8561 174.7433 771.3091 175.6375 771.7562 176.3081 771.868 177.2023 771.868 177.8729 771.9798 178.7671 772.4268 179.6613 773.0975 180.4437 773.7681 181.4496 774.4387 185.0263 774.9976 186.144 774.6623 187.3735 774.1034 190.9502 770.7503 192.4032 770.0796 193.5209 769.0737 193.8562 768.6266 194.4151 767.956 195.3092 767.1736 195.9799 767.3971 196.3152 768.0678 196.5387 769.1855 197.0976 769.8561 198.5506 770.5267 201.2331 767.8442 202.2391 765.6088 203.1332 761.138 203.5803 759.7967 204.4745 758.9025 205.3686 758.4554 206.4864 758.3437 207.6041 758.5672 208.61 758.9025 209.5042 759.0143 210.2866 758.9025 211.8514 758.1201 212.8573 758.0084 213.6397 758.0084 214.4221 758.4554 214.7574 761.0262 214.1986 769.1855 217.1046 776.6741 221.4637 784.051 230.5172 792.2103 230.9642 792.7692 231.7466 793.9987 229.623 795.8988 226.9405 797.6871 226.1581 798.1342 225.4875 798.3578 220.7931 799.5872 219.6754 800.2579 218.5576 801.3756 217.1046 801.0403 213.6397 802.7168 209.616 803.4992 206.3746 805.1758 204.698 805.6229 202.5744 805.5111 201.6802 805.6229 201.0096 805.9582 200.5625 806.2935 200.0036 806.6288 198.9977 806.7406 198.4388 806.9641 197.3211 807.8583 196.5387 807.9701 195.8681 809.1996 194.8622 810.7644 194.0798 812.5527 191.9561 815.9058 191.0619 817.6942 190.6149 819.3707 190.6149 820.3767 191.0619 822.7239 191.1737 823.9534 191.1737 824.7358 190.2795 828.0889 190.5031 830.4361 189.6089 833.1186 188.9383 834.2363 188.2677 835.1305 187.2617 835.9129 186.3675 836.1364 185.3616 835.8011 184.5792 835.0187 183.1262 833.0068 182.1202 832.0009 180.8908 831.2185 177.9847 830.4361 177.0905 830.2125 176.5317 829.7655 175.7493 829.0948 175.0787 828.4242 173.9609 827.3065 169.043 829.6537 167.0311 831.6656 166.0252 833.7892 165.6899 834.9069 165.131 839.0425 163.2309 843.8486 162.7838 845.3017 162.4485 849.549 162.1132 849.8843 161.8897 850.2196 161.5543 850.4431 160.7719 850.8902 158.5365 852.9021 158.0894 853.1256 157.5306 853.3492 157.1953 853.4609 156.86 853.4609 156.6364 853.4609 156.1893 853.4609 155.7422 853.2374 155.4069 853.1256 154.8481 852.5668Z" />
  <path class="Nord" d="M595.003 524.2948L594.8912 524.2948 594.6677 524.0713 593.997 523.8477 592.9911 523.6242 591.7616 523.736 590.4204 524.2948 588.4085 525.4125 582.9317 530.2187 581.7022 531.0011 580.3609 531.4482 578.3491 531.6717 577.0078 531.6717 575.5548 531.8953 574.2135 532.3424 555.8831 540.3899 549.2886 544.4136 548.2826 544.9725 547.1649 545.4196 546.159 545.6431 545.153 545.7549 544.1471 545.7549 543.0294 545.4196 541.9117 544.6372 541.241 544.1901 539.8998 542.1782 534.423 541.0605 532.2993 537.9309 531.7405 536.7014 530.9581 535.3602 529.9521 534.2425 528.4991 533.3483 527.3814 532.9012 526.1519 532.7894 519.781 533.3483 517.6573 533.3483 516.5396 533.1248 515.5337 532.5659 514.863 531.7835 514.7513 530.3305 514.9748 529.2128 515.1983 528.095 514.863 523.1771 513.5218 520.3828 512.1805 519.2651 511.1746 518.7063 509.6098 517.4768 504.9154 512.4471 503.2388 509.541 503.0153 508.088 502.4564 507.3056 501.5623 506.4114 497.8738 503.6172 497.4267 503.0583 496.8679 502.2759 496.5326 501.27 495.8619 498.1404 495.1913 497.358 494.2971 497.0227 478.9845 495.3461 476.7491 494.7872 475.7431 494.0048 475.0725 493.2224 474.9607 489.3105 473.9548 488.1927 472.8371 487.9692 470.8252 488.1927 460.7658 490.4282 459.7598 490.5399 458.7539 490.4282 456.5185 489.6458 455.289 489.6458 453.7242 489.9811 452.4947 490.4282 450.3711 491.7694 449.3651 492.2165 446.2355 493.3342 445.3414 494.0048 444.2237 495.2343 443.3295 495.5696 442.2118 495.3461 437.5174 492.3283 435.6173 491.4341 434.0525 490.6517 432.5994 489.3105 431.7053 488.1927 429.3581 486.4044 423.0989 485.0631 422.2047 485.622 421.5341 486.6279 420.6399 487.5221 420.4164 488.3045 420.1928 489.4222 419.9693 492.9989 419.2987 494.0048 414.7161 493.7813 412.2571 494.1166 410.1334 494.6755 408.2333 495.1226 407.0039 495.0108 405.6626 494.6755 398.0622 490.6517 396.8327 490.3164 382.7495 488.1927 375.5961 486.1809 374.1431 484.7278 371.9077 483.7219 371.0135 483.6101 369.8958 483.2748 367.7722 482.4924 366.6545 481.8218 365.8721 480.9276 365.2014 479.4746 365.0897 476.7921 364.8661 474.7802 365.0897 473.7743 365.6485 473.1036 366.2074 472.2095 366.3191 471.3153 365.9838 470.3094 364.1955 467.4033 363.4131 466.5091 361.9601 466.062 360.8424 465.9503 357.4892 465.8385 355.2538 465.5032 353.3537 464.8326 351.23 463.8266 334.4644 448.514 330.7759 443.3725 329.6582 442.3666 329.9935 441.5842 329.9935 439.7958 328.6523 432.6425 328.4287 428.6187 329.0993 424.8185 331.1112 421.9124 333.0113 421.0183 336.4762 421.6889 338.2646 421.3536 339.3823 420.6829 340.0529 419.5652 340.6118 418.5593 341.2824 417.6651 343.9649 415.765 344.6355 414.9826 344.6355 412.5237 344.412 411.1824 342.2883 406.1527 341.6177 404.9232 343.9649 405.7056 345.3062 405.9292 346.5356 405.7056 347.8769 405.1468 348.8828 404.4761 350.0006 403.8055 351.5653 403.6937 352.7948 404.029 355.5891 405.2585 356.9304 405.5938 358.2716 405.2585 367.2133 400.4524 368.7781 398.7758 370.1194 395.8697 370.9018 393.299 371.5724 392.2931 372.5783 391.846 373.8078 391.846 374.9255 392.0695 376.0432 392.0695 377.1609 391.6224 379.0611 388.9399 380.067 385.1397 382.0789 368.374 381.4083 365.1327 381.52 361.4442 383.3084 357.1969 387.3321 349.9318 387.891 348.367 388.2263 346.6904 388.3381 343.2255 387.5557 340.543 386.7733 338.6429 384.2025 338.3076 383.8672 337.9723 384.4261 336.4075 384.9849 335.9604 390.2382 333.5014 390.9088 332.9426 391.9147 332.0484 394.4855 328.6953 395.6032 327.8011 401.7506 325.1186 408.6804 324.0009 414.3807 321.7655 416.8397 315.3945 417.2868 309.5824 418.4045 303.5468 419.2987 301.4231 420.0811 299.9701 420.3046 298.5171 419.2987 296.5052 416.8397 293.9344 415.9455 292.4814 415.722 290.4695 416.3926 288.5694 418.5163 285.3281 418.8516 283.2044 418.5163 281.5278 417.5103 278.6218 417.3986 276.8334 418.9634 273.7039 421.9812 272.5861 428.7992 271.8037 430.4758 271.1331 431.7053 270.3507 432.0406 271.0213 433.8289 273.9274 434.6113 274.7098 435.6173 275.1569 436.735 275.1569 440.9823 273.8156 444.2237 273.9274 446.012 274.1509 447.3532 273.7039 449.3651 272.6979 454.9537 270.9096 456.0714 270.2389 456.5185 269.3448 456.0714 268.3388 454.7301 266.4387 454.3948 265.4328 454.3948 264.4268 454.8419 263.4209 455.6243 262.3032 457.0773 261.0737 458.4186 260.7384 459.6481 260.6266 465.2366 261.7443 468.7015 262.0796 472.2782 261.7443 474.0666 261.8561 478.8727 262.7503 481.667 263.7562 482.8965 264.5386 485.1319 267.78 485.4672 268.1153 488.2615 270.1272 490.0498 272.5861 492.7323 273.145 494.0736 273.145 502.2329 275.604 503.1271 277.057 502.3447 282.422 502.4564 282.6455 502.4564 282.7573 501.227 282.7573 500.4446 283.0926 500.221 283.7633 500.221 284.6574 499.9975 285.5516 495.7502 294.0462 492.9559 297.8464 485.8025 304.1056 480.4375 311.9296 480.5493 313.1591 488.3733 319.4183 513.5218 348.4788 514.3042 352.279 515.9807 355.0733 528.9462 365.5798 531.2934 367.4799 535.5407 370.9448 540.9057 375.1921 555.1007 386.7045 555.8831 386.9281 556.5537 387.1516 556.6655 387.1516 557.3361 386.9281 558.1185 386.7045 558.9009 386.8163 559.6833 386.9281 560.3539 387.2634 560.9128 387.5987 564.3777 390.1694 565.1601 391.0636 565.4954 391.7342 565.4954 391.9578 565.6072 392.1813 566.166 392.6284 566.8366 392.8519 567.5073 393.4108 567.9543 394.1932 568.7367 396.4286 568.9603 397.5463 568.9603 398.3287 569.2956 398.9993 570.5251 399.3347 573.7664 399.7817 576.0019 400.5641 577.7902 401.7936 579.2432 403.582 583.0435 409.7294 588.0732 414.7591 589.4144 416.5474 591.7616 421.5771 603.6094 447.0609 609.0861 466.062 611.9922 473.4389 616.2395 476.4568 617.6925 476.5685 618.1396 476.5685 620.8221 477.1274 622.834 477.5745 622.834 478.5804 622.7222 486.6279 621.6045 491.8812 619.1455 496.7991 615.5689 501.4935 614.8982 502.723 610.2039 509.2057 609.8685 510.547 611.5451 512.2235 611.3216 513.3413 610.9862 513.453 609.3097 513.5648 608.7508 513.6766 608.192 514.1237 607.5213 515.5767 607.186 516.1355 603.0505 519.3769 596.2325 523.1771 595.003 524.2948Z" />
  <path class="Nord-Ouest" d="M238.9 597.8403L239.4589 602.4229 239.3471 604.8818 238.4529 608.6821 237.5587 610.8057 234.2056 614.0471 233.0879 614.7177 231.4113 615.5001 230.1818 615.6119 229.0641 615.6119 222.1343 614.9413 221.4637 616.9531 222.0226 621.0887 220.7931 626.789 220.1224 628.1303 219.2283 629.1362 218.2223 629.9186 214.1986 632.154 210.1748 633.607 208.2747 633.8306 206.8217 635.8425 202.9097 634.9483 196.7623 633.7188 195.5328 633.9424 194.0798 634.3894 193.5209 635.0601 193.1856 635.9542 189.7207 644.3371 186.144 650.2609 185.3616 650.708 183.3497 651.3787 178.6553 651.0433 177.0905 651.0433 161.5543 653.9494 160.1013 659.3144 159.4307 660.2086 158.4248 660.991 157.5306 660.7674 156.86 660.0968 156.4129 659.2026 155.854 658.1967 155.0716 657.5261 154.0657 657.079 149.8184 655.9613 148.4771 655.8495 147.5829 656.073 146.9123 656.4084 141.4355 660.5439 138.753 659.6497 134.2822 658.6438 130.929 657.5261 126.0111 660.0968 120.5343 657.5261 115.2811 655.9613 112.7103 654.62 111.5926 653.5023 110.8102 652.4964 110.1396 650.9316 109.5807 650.3727 108.6866 650.0374 106.4512 650.4845 104.4393 649.9256 102.2039 646.9078 101.1979 645.9019 100.3037 645.343 99.4096 645.0077 98.6272 644.2253 98.2919 642.9958 99.2978 638.525 98.4036 637.2955 97.733 636.7366 97.6212 636.6249 97.5095 636.5131 97.5095 636.4013 97.3977 636.2895 97.0624 635.6189 97.5095 634.5012 98.6272 633.0482 107.2336 627.6832 109.3572 625.1124 111.1455 624.5536 112.0397 624.8889 113.0457 625.1124 113.9398 624.7771 114.4987 623.7712 115.0575 622.2064 114.9458 619.4121 115.5046 617.512 115.9517 613.0411 111.7044 599.1815 110.8102 597.505 109.5807 593.8165 107.4571 590.3516 106.1158 589.2339 112.8221 567.9974 114.3869 566.0972 116.5106 566.3208 118.1871 567.1032 119.9755 567.662 121.9873 566.7679 143.5592 548.4374 145.6828 547.2079 146.9123 547.5432 147.5829 548.9963 148.8124 555.479 149.7066 557.1556 151.6067 558.6086 154.0657 559.391 176.7552 559.0557 176.7552 557.0438 177.0905 555.7025 177.8729 554.473 178.8789 553.02 179.4377 552.5729 179.9966 552.4612 180.3319 552.1259 180.8908 545.4196 181.6732 542.0664 182.6791 538.8251 184.0204 536.3661 185.5851 538.378 186.144 542.7371 187.7088 544.0783 190.056 544.8607 196.2034 548.1021 203.3568 550.7846 206.2628 552.7965 207.7158 556.3732 208.4982 560.3969 210.2866 564.1971 213.0809 567.1032 221.3519 568.5562 224.3697 570.9034 226.0463 574.4801 226.2699 578.7274 226.1581 582.1923 226.3816 585.6572 227.9464 592.587 229.623 596.7226 231.076 598.0638 233.4232 598.3991 238.9 597.8403Z" />
  <path class="Ouest" d="M237.5587 610.8057L244.6003 612.4823 245.8298 613.1529 247.1711 614.0471 247.3946 614.9413 247.2828 615.9472 246.3887 617.9591 246.1651 618.965 246.0534 620.9769 246.1651 622.5417 246.6122 624.5536 248.0652 628.242 248.6241 630.2539 248.6241 631.8187 247.1711 635.3954 246.724 637.1837 245.3827 638.1897 244.4886 639.0838 245.6063 639.6427 245.718 640.9839 245.1592 642.437 243.9297 643.3311 244.265 644.2253 244.3768 645.9019 244.4886 646.9078 244.8239 647.4667 245.271 647.802 245.6063 648.4726 245.718 649.7021 245.6063 650.8198 245.271 651.6022 245.1592 652.4964 245.718 653.6141 246.6122 653.9494 247.6182 653.7259 248.4006 653.8376 248.7359 655.0671 248.5123 655.626 247.2828 656.1848 245.6063 659.538 245.1592 660.2086 244.4886 660.6557 243.7062 660.7674 243.0355 661.1028 242.3649 662.6675 241.5825 663.4499 239.6824 664.5677 240.353 665.6854 239.6824 667.1384 238.5647 668.5914 237.8941 669.9327 238.1176 670.9386 238.2294 671.6092 238.3411 671.9446 239.2353 673.5094 239.3471 673.8447 239.5706 674.8506 239.6824 678.092 239.5706 679.545 238.7882 682.004 238.4529 682.7864 238.0058 683.3452 237.7823 683.6805 236.6646 685.2453 237.8941 686.8101 237.8941 687.2572 237.7823 687.8161 237.5587 688.3749 237.2234 689.3809 236.9999 689.8279 236.6646 690.0515 235.3233 690.4986 235.0998 690.6103 232.8644 694.2988 232.4173 694.8576 232.082 694.9694 231.6349 695.0812 231.076 695.193 230.4054 695.4165 229.7348 695.7518 228.6171 696.7578 228.2817 697.4284 228.0582 698.099 228.0582 699.2167 228.2817 701.1168 228.2817 701.6757 227.7229 704.2464 227.6111 704.9171 227.6111 706.0348 227.9464 706.7054 228.2817 707.8231 226.4934 708.382 224.1462 709.4997 222.6932 710.6174 221.3519 712.2939 220.7931 713.5234 220.5695 714.6411 220.2342 716.7648 219.34 719.7826 217.5517 724.5888 217.3282 725.3712 216.3222 727.7184 215.4281 728.389 214.4221 728.8361 212.2985 728.8361 210.5101 728.6125 209.2806 728.2772 205.5922 724.7006 204.4745 724.0299 203.245 723.5828 202.3508 723.8064 201.6802 724.477 201.4567 724.8123 201.2331 725.0359 201.2331 725.2594 200.8978 725.93 200.4507 726.7124 199.5565 727.4948 198.6624 728.0537 186.5911 733.8658 185.1381 734.2011 183.9086 734.2011 177.4259 733.0834 175.7493 732.4128 174.9669 731.7421 174.1845 730.7362 172.1726 729.9538 171.1667 728.9479 169.6019 724.7006 168.8195 723.1358 167.9253 721.6827 167.1429 718.5531 166.0252 717.1001 163.5662 717.4354 162.5603 717.659 160.6602 718.3296 159.766 718.4414 158.7601 718.2178 157.8659 717.8825 156.86 717.7707 155.9658 717.9943 155.0716 719.3355 154.7363 720.565 154.0657 721.7945 152.948 722.8004 149.7066 725.0359 149.2595 725.7065 148.5889 726.6007 146.3535 731.295 145.4593 731.4068 145.124 731.5186 144.5651 731.5186 144.3416 731.5186 144.0063 731.5186 143.5592 731.4068 142.8886 730.5127 142.3297 727.7184 141.1002 726.4889 140.6531 726.2653 139.8707 725.5947 139.5354 725.0359 139.4237 724.9241 139.0883 723.9182 138.753 721.571 138.5295 720.9003 138.1942 720.4532 134.841 718.5531 134.5057 717.9943 134.0586 717.2119 133.4998 715.5353 132.8292 714.4176 132.7174 714.0823 132.6056 713.6352 133.4998 711.6233 133.388 707.9349 132.1585 705.5877 131.935 704.2464 131.5997 703.5758 131.0408 702.7934 128.1348 700.7815 126.9053 700.2227 126.0111 700.3344 125.1169 701.0051 124.2228 701.5639 123.3286 701.8992 122.4344 701.7875 120.9814 699.8873 121.652 693.4046 125.0052 690.8339 128.6936 681.6686 129.1407 680.2156 129.476 676.3036 130.2584 674.8506 131.7114 673.174 138.6413 667.1384 142.5532 665.6854 142.8886 664.6794 143.0003 664.0088 141.4355 660.5439 146.9123 656.4084 147.5829 656.073 148.4771 655.8495 149.8184 655.9613 154.0657 657.079 155.0716 657.5261 155.854 658.1967 156.4129 659.2026 156.86 660.0968 157.5306 660.7674 158.4248 660.991 159.4307 660.2086 160.1013 659.3144 161.5543 653.9494 177.0905 651.0433 178.6553 651.0433 183.3497 651.3787 185.3616 650.708 186.144 650.2609 189.7207 644.3371 193.1856 635.9542 193.5209 635.0601 194.0798 634.3894 195.5328 633.9424 196.7623 633.7188 202.9097 634.9483 206.8217 635.8425 208.2747 633.8306 210.1748 633.607 214.1986 632.154 218.2223 629.9186 219.2283 629.1362 220.1224 628.1303 220.7931 626.789 222.0226 621.0887 221.4637 616.9531 222.1343 614.9413 229.0641 615.6119 230.1818 615.6119 231.4113 615.5001 233.0879 614.7177 234.2056 614.0471 237.5587 610.8057Z" />
  <path class="Sud" d="M126.7935 877.8271L126.9053 877.8271 128.3583 877.1564 128.9172 876.7094 129.476 876.2623 130.2584 875.1446 131.1526 874.2504 132.0468 873.468 134.3939 872.1267 134.9528 871.6796 135.2881 871.2326 137.3 867.4323 137.4118 867.2088 137.5235 866.9853 137.5235 866.5382 137.4118 865.644 137.4118 865.1969 137.6353 864.9734 138.4177 864.0792 138.6413 863.7439 138.8648 863.4086 138.8648 863.185 138.8648 862.8497 138.4177 861.6202 138.4177 860.5025 138.4177 858.7142 138.753 857.2612 138.9766 856.9259 139.3119 856.7023 140.7649 855.3611 141.4355 854.6904 142.665 852.7903 143.0003 852.2315 143.3356 851.6726 143.7827 851.002 144.3416 850.4431 144.5651 850.3314 144.9004 850.1078 145.5711 849.8843 146.0182 849.7725 148.03 849.4372 148.4771 849.3254 148.7007 849.2136 148.9242 849.1019 149.4831 848.4312 149.5948 848.3195 149.8184 848.2077 151.0479 848.7666 152.7244 849.7725 154.1774 850.8902 154.8481 852.5668 154.0657 855.4728 158.4248 869.8913 159.0954 870.2266 166.0252 869.1089 193.7444 860.9496 195.9799 860.279 201.6802 859.0495 203.6921 859.0495 205.2569 859.273 205.9275 859.8319 206.3746 860.5025 206.9334 862.2909 207.2688 864.3028 207.7158 864.7498 211.4043 864.6381 215.5398 863.9674 217.5517 864.3028 218.7812 864.8616 219.5636 865.3087 220.6813 865.3087 223.3638 864.8616 224.3697 864.8616 225.4875 865.644 228.0582 868.8854 229.0641 871.1208 230.5172 877.7153 231.4113 879.0565 232.4173 879.8389 233.3114 880.0625 234.0938 880.6213 234.5409 881.5155 234.988 884.0862 235.4351 884.9804 236.5528 885.7628 240.2413 889.6748 243.4826 889.116 245.9416 888.7806 249.63 889.4513 251.0831 889.3395 254.6597 888.5571 268.4076 888.6689 270.4195 888.4453 274.6668 887.1041 281.2613 883.9745 282.2672 883.3039 283.4967 879.9507 284.2791 877.6035 287.0734 872.462 287.9675 871.6796 289.9794 871.009 290.9854 870.4502 292.7737 869.2207 296.7975 867.097 297.4681 866.2029 300.2624 860.7261 301.8272 861.5085 303.392 862.738 306.5216 863.4086 307.6393 863.9674 309.5394 865.3087 319.487 870.1149 320.8283 871.009 320.94 871.6796 320.493 872.7974 320.3812 873.0209 320.0459 873.5798 320.2694 874.5857 321.2754 874.921 322.7284 874.8092 326.9757 873.468 328.764 872.462 331.7818 861.1732 332.8996 859.273 335.9174 856.1435 345.3062 848.543 350.2241 843.4015 351.23 842.8427 352.236 842.8427 352.9066 843.178 353.3537 843.5133 353.9125 844.2957 356.0362 848.543 357.8245 850.7784 359.2776 852.2315 357.7128 862.8497 357.8245 863.6321 357.9363 864.3028 358.3834 865.3087 359.3893 866.9853 362.1836 870.6737 368.331 876.4858 370.6782 879.2801 373.9196 884.9804 375.2608 888.8924 376.155 893.2515 376.3785 903.1991 376.7139 904.3168 379.2846 908.0053 379.7317 908.3406 381.4083 909.0112 382.0789 909.4583 382.3024 909.7936 382.6377 910.0172 384.7614 910.3525 386.3262 911.0231 387.5557 911.3584 390.4617 911.4702 391.6912 911.8055 392.9207 912.5879 394.5972 911.0231 394.709 910.7996 395.3796 911.2466 396.9444 912.8114 397.5033 912.9232 398.621 912.8114 402.533 913.9292 403.7625 914.488 404.2096 913.8174 404.7684 913.2585 405.3273 913.2585 405.8861 914.8233 406.445 915.0469 407.1156 914.8233 407.3392 914.1527 407.898 913.1468 409.1275 912.8114 410.5805 913.035 411.5865 913.8174 412.3689 913.4821 412.816 913.3703 413.263 913.4821 414.0454 913.8174 415.0514 912.8114 416.2809 913.1468 417.175 914.2645 417.0633 915.6057 419.1869 916.3881 419.7458 917.0587 420.3046 919.1824 420.8635 919.7413 421.8694 919.853 422.9871 919.853 422.4283 918.9589 421.3106 916.2763 421.1988 915.6057 421.9812 914.488 422.8754 914.5998 423.7695 915.2704 424.5519 915.6057 426.2285 917.6176 427.0109 918.0647 428.2404 918.0647 428.911 918.0647 429.1345 917.7294 429.4699 916.7234 430.0287 916.947 430.6993 917.6176 430.9229 918.0647 434.1642 920.0766 435.1702 920.4119 440.3117 920.4119 441.5411 919.9648 441.7647 918.9589 441.2058 916.4999 441.5411 915.2704 442.4353 915.3822 443.6648 915.941 444.7825 916.2763 443.8883 914.8233 444.0001 914.2645 445.3414 913.8174 448.6945 911.0231 449.7004 910.4642 450.8182 910.1289 451.8241 909.7936 452.6065 915.1586 455.4008 975.5151 455.5125 975.7386 451.8241 975.7386 438.188 975.5151 423.0989 975.4033 423.0989 973.2796 423.4342 970.5971 423.0989 969.3677 422.2047 968.2499 420.8635 967.1322 419.5222 966.1263 418.5163 965.6792 417.9574 965.791 416.7279 966.3498 415.8338 966.3498 415.2749 966.1263 414.0454 965.1204 411.5865 964.6733 408.904 964.5615 408.1216 964.8968 407.1156 965.5674 405.3273 967.244 404.5449 967.6911 400.7447 968.1382 398.2857 967.0205 396.9444 966.6851 395.715 967.244 394.709 967.5793 393.1442 967.3558 390.5735 966.3498 389.6793 967.244 388.6734 967.5793 387.5557 967.4675 386.3262 967.0205 385.5438 968.0264 383.7554 967.6911 381.7436 966.7969 380.2905 966.3498 379.1728 966.7969 378.1669 967.6911 376.9374 968.4735 375.1491 968.8088 363.1895 967.0205 361.1777 966.2381 359.7246 965.1204 357.7128 965.6792 356.148 965.1204 351.23 963.5556 347.8769 963.332 342.959 964.4497 341.3942 964.1144 338.4881 962.3261 337.4822 961.9908 336.588 962.1025 334.7997 962.9967 333.7937 963.332 332.1172 963.5556 328.764 964.6733 326.9757 965.0086 323.1755 964.785 319.5988 964.2262 318.034 964.2262 312.7807 964.5615 306.1862 964.2262 299.3682 964.785 291.656 964.5615 288.7499 964.8968 287.4087 964.785 282.8261 963.332 281.0377 961.879 280.1436 961.3201 278.9141 961.2084 277.7964 961.4319 275.5609 962.3261 252.089 963.1085 251.8655 963.8909 252.3125 965.1204 252.4243 966.2381 251.8655 967.4675 251.1948 968.4735 250.636 969.4794 250.5242 970.8207 250.5242 971.9384 250.3007 973.0561 249.9653 974.062 249.4065 975.068 223.1403 975.068 196.7623 975.068 170.3843 975.068 169.1548 975.068 149.8184 975.068 144.118 975.068 132.2703 975.068 130.482 974.7327 124.8934 971.9384 123.3286 971.6031 121.7638 971.0442 119.5284 969.4794 117.5165 967.6911 116.3988 966.2381 116.1752 964.4497 116.5106 962.6614 116.3988 960.9848 115.3928 959.5318 116.5106 958.5259 116.5106 957.967 117.1812 956.4022 117.4047 939.9718 120.0872 928.2359 121.652 924.5474 121.9873 923.0944 122.3227 911.9173 123.2168 907.8935 124.5581 904.3168 126.2347 901.7461 128.023 899.5107 129.1407 897.0517 129.3642 894.2574 126.0111 881.4037 124.4463 879.2801 124.4463 878.7212 125.2287 878.7212 125.7876 878.6095 126.7935 878.1624 126.7935 877.8271Z" />
  <path class="Sud-Ouest" d="M106.1158 589.2339L107.4571 590.3516 109.5807 593.8165 110.8102 597.505 111.7044 599.1815 115.9517 613.0411 115.5046 617.512 114.9458 619.4121 115.0575 622.2064 114.4987 623.7712 113.9398 624.7771 113.0457 625.1124 112.0397 624.8889 111.1455 624.5536 109.3572 625.1124 107.2336 627.6832 98.6272 633.0482 97.5095 634.5012 97.0624 635.6189 97.3977 636.2895 97.5095 636.4013 97.5095 636.5131 97.6212 636.6249 97.733 636.7366 98.4036 637.2955 99.2978 638.525 98.2919 642.9958 98.6272 644.2253 99.4096 645.0077 100.3037 645.343 101.1979 645.9019 102.2039 646.9078 104.4393 649.9256 106.4512 650.4845 108.6866 650.0374 109.5807 650.3727 110.1396 650.9316 110.8102 652.4964 111.5926 653.5023 112.7103 654.62 115.2811 655.9613 120.5343 657.5261 126.0111 660.0968 130.929 657.5261 134.2822 658.6438 138.753 659.6497 141.4355 660.5439 143.0003 664.0088 142.8886 664.6794 142.5532 665.6854 138.6413 667.1384 131.7114 673.174 130.2584 674.8506 129.476 676.3036 129.1407 680.2156 128.6936 681.6686 125.0052 690.8339 121.652 693.4046 118.6342 694.0752 115.5046 697.7637 114.4987 698.4343 113.4927 698.5461 112.4868 698.5461 111.8162 698.7696 111.3691 699.4403 111.4809 700.3344 112.1515 703.6876 113.6045 707.2642 116.9576 711.288 118.1871 713.4117 119.8637 717.2119 120.0872 718.7767 119.1931 719.8944 116.1752 720.4532 114.6105 722.3534 113.4927 725.0359 112.8221 727.1595 112.4868 728.5008 113.1574 729.6185 115.0575 731.7421 114.9458 732.7481 114.3869 733.6422 113.4927 734.4246 111.8162 736.5483 109.0219 739.2308 108.1277 740.5721 107.6806 742.0251 107.5689 742.9193 107.5689 745.2664 106.6747 747.3901 104.3275 749.1784 101.8685 752.7551 101.1979 755.7729 100.6391 756.5553 99.7449 756.8906 99.0743 756.8906 97.9565 756.5553 95.8329 756.6671 95.1623 757.226 93.821 759.2378 91.0267 764.1558 90.3561 766.6147 90.0208 771.7562 90.1326 772.9857 90.915 775.4447 90.4679 777.3448 84.4322 787.0689 83.8734 789.5278 83.6498 791.7633 85.5499 792.881 91.6974 793.9987 93.0386 794.7811 93.7092 795.787 94.3799 797.7989 94.4916 798.6931 93.9328 799.3637 92.8151 800.4814 92.2562 801.2638 91.2503 803.0521 90.4679 803.7228 89.909 804.0581 89.2384 804.2816 88.1207 803.0521 87.1147 803.4992 84.6558 806.1817 84.8793 806.5171 84.6558 806.8524 81.0791 812.6645 80.1849 814.7881 79.9614 815.6823 79.8496 816.1294 79.5143 816.3529 78.7319 816.5765 77.0553 817.4706 74.2611 820.1531 74.1493 820.1531 72.5845 819.3707 71.6903 816.3529 72.1374 813.1116 73.7022 810.9879 73.7022 810.429 71.5785 810.9879 70.5726 812.4409 70.0138 814.0057 66.9959 816.8 64.4252 816.2411 63.531 816.4647 63.6428 814.7881 63.7546 813.5586 63.531 812.5527 62.3015 811.6585 61.2956 811.435 59.619 811.435 58.0542 811.6585 57.2718 811.8821 55.8188 811.7703 51.2362 808.7525 43.524 805.1758 42.518 804.3934 42.2945 801.9344 43.9711 796.5694 44.1946 794.1105 41.5121 791.5397 39.3884 788.6337 37.8237 785.1688 35.7 772.6504 36.2589 770.415 38.4943 766.503 39.3884 764.4911 37.3766 766.6147 36.2589 767.2854 35.7 765.9441 35.9235 764.9382 36.3706 763.8205 36.5942 762.7028 36.3706 761.4733 35.7 760.8026 33.6881 760.132 33.0175 758.679 32.3469 757.673 31.5645 756.7789 30.8938 756.5553 30.5585 757.673 33.241 761.8086 33.9117 763.8205 33.3528 765.1617 32.5704 765.497 31.8998 764.9382 31.5645 763.5969 27.3172 760.2438 27.2054 761.3615 27.3172 762.2557 27.7642 762.9263 28.5466 763.2616 27.3172 765.3853 26.9818 765.7206 26.423 765.497 24.6347 764.4911 24.2993 764.1558 23.6287 763.3734 22.1757 762.8145 20.7227 762.0321 20.052 760.4673 19.1579 757.226 15.1341 751.6374 14.687 748.0607 13.234 750.2961 13.7928 752.8669 15.1341 755.5494 17.3695 763.7087 18.1519 764.4911 19.1579 764.9382 20.052 765.7206 20.6109 767.956 18.7108 769.0737 7.7572 769.8561 6.7513 769.409 7.1983 768.2913 8.3161 767.0618 9.2102 766.2794 8.2043 765.7206 7.1983 765.7206 6.5277 766.1677 5.9689 768.0678 5.2982 768.5149 4.2923 768.4031 3.2864 768.0678 1.9451 766.7265 1.3862 764.6029 1.8333 763.0381 3.2864 763.2616 3.7334 762.1439 5.5218 759.0143 4.4041 759.9085 3.2864 759.9085 2.3922 759.1261 1.9451 757.7848 2.1686 756.5553 2.8393 755.3259 4.4041 753.5375 6.9748 751.8609 7.4219 751.0785 7.4219 750.0726 7.0866 748.9549 6.9748 747.949 7.4219 746.8312 8.0925 747.5019 7.7572 744.037 7.869 742.2486 8.8749 741.4662 9.322 741.3545 10.8868 739.7897 10.5515 738.5602 10.2162 737.3307 9.9926 735.4306 10.775 734.0893 13.1222 732.301 13.6811 730.7362 17.146 725.2594 18.4872 723.3593 19.2696 721.6827 20.6109 717.7707 21.1697 716.653 22.8463 713.9705 23.7405 713.0763 24.7464 712.6293 25.7524 712.4057 26.6465 711.9586 27.3172 710.8409 29.6644 698.8814 29.5526 697.8755 28.882 695.7518 28.7702 694.6341 29.329 692.5105 31.2292 688.7102 31.788 686.8101 31.788 684.91 31.4527 683.2334 31.3409 681.4451 31.8998 679.545 33.1293 677.8684 34.8058 676.1919 36.1471 674.5153 36.5942 672.3916 35.7 670.0444 34.0234 668.2561 32.0116 666.6913 30.2232 665.0147 29.1055 662.7793 29.7761 661.5498 31.3409 660.3204 32.9057 658.4202 33.241 656.1848 32.4586 654.7318 31.5645 653.2788 31.3409 651.4904 32.3469 650.0374 35.4765 647.9138 36.5942 646.4607 38.159 645.0077 40.0591 645.2312 41.9592 645.9019 43.524 645.7901 43.7475 644.5606 43.9711 642.1017 44.4182 641.431 45.8712 640.7604 46.9889 639.5309 48.889 636.8484 57.0483 628.3538 69.1196 618.6297 71.355 615.3883 73.814 610.1351 75.0435 608.6821 76.2729 608.0114 77.2789 608.0114 78.3966 608.0114 79.7378 608.0114 82.1968 606.4466 84.8793 601.3052 87.4501 599.7404 88.0089 599.5168 91.5856 598.1756 93.3739 597.2814 94.7152 595.9402 96.8388 592.0282 98.0683 590.9105 100.7508 590.3516 101.7568 590.3516 104.8864 590.3516 106.0041 589.4574 106.1158 589.2339Z" />
</svg>