<?xml version="1.0" encoding="utf-8"?>
<svg xmlns="http://www.w3.org/2000/svg" viewBox="0 0 1021 756" style="stroke-width:0.25px;stroke-linejoin:round;stroke:#444;fill:#ddd" fill-rule="evenodd">
  <path class="Dakar" d="M59.3446 311.8315L59.5681 312.1668 63.033 319.7672 63.9272 322.8968 64.0389 323.791 64.1507 327.8147 64.7096 329.3795 67.2803 333.7386 67.8392 335.3034 68.0627 336.8682 64.9331 360.2284 64.9331 360.3402 60.0152 353.5221 55.209 349.0513 52.4147 347.1512 49.1734 345.5864 45.5967 345.0275 42.9142 344.2451 35.8726 340.5567 34.8667 339.3272 29.3899 339.3272 24.6955 338.7683 20.56 339.1036 16.8715 341.7861 18.2128 343.3509 20.2246 344.0216 18.9952 346.4805 16.8715 347.4865 17.4304 348.0453 18.4363 349.2748 18.9952 349.8337 17.9892 352.1809 17.4304 352.4044 16.8715 353.4103 14.6361 351.9573 3.5707 338.0977 1 335.7505 28.1604 328.3736 36.2079 321.7791 59.3446 311.8315Z" />
  <path class="Diourbel" d="M356.7677 345.8099L353.191 361.3461 348.273 366.9347 345.9259 361.0108 342.1256 357.8812 320.2185 349.163 314.8535 346.7041 311.0532 342.7921 308.0354 342.345 303.4528 344.0216 299.9879 344.3569 291.7168 338.433 291.0462 338.8801 288.9226 339.886 288.1402 340.4449 287.4695 341.2273 287.1342 342.0097 286.7989 342.9039 286.0165 357.4341 285.5694 359.3342 285.2341 360.2284 284.787 360.899 275.8453 369.8407 275.1747 370.2878 271.0392 372.1879 265.4506 373.6409 251.591 375.0939 249.3556 375.0939 231.3604 371.8526 228.9014 371.182 227.3366 370.5113 225.5483 368.6112 223.4246 367.1582 221.8598 366.3758 216.3831 364.5875 210.9063 363.9168 209.1179 364.0286 200.5116 365.9287 199.3938 365.9287 198.1644 365.7052 196.8231 364.811 195.9289 364.1404 194.5877 362.9109 193.8053 362.352 192.2405 362.0167 178.1573 361.3461 170.8922 362.0167 168.7685 362.6873 166.7567 365.8169 163.2917 364.811 154.9089 361.0108 153.0088 359.7813 152.4499 359.2224 152.0029 358.44 151.8911 357.4341 151.8911 356.4282 152.5617 355.3105 153.6794 353.7457 156.1384 351.0631 157.0326 349.3866 157.4796 347.9336 157.2561 346.9276 157.0326 345.9217 156.5855 345.1393 156.0266 344.5804 155.356 344.0216 153.7912 343.3509 153.1206 342.7921 152.6735 342.2332 152.3382 341.4508 152.4499 339.9978 152.6735 338.5448 153.2323 336.7564 153.3441 335.974 153.2323 335.1916 152.7853 334.521 152.2264 333.9622 151.5558 333.4033 150.8851 332.9562 149.3204 332.2856 148.6497 331.7267 148.3144 330.8326 148.0909 329.9384 147.7556 327.9265 147.8673 326.9206 148.3144 325.1322 148.3144 320.8849 148.2026 319.7672 147.8673 318.873 147.4202 318.2024 146.7496 317.7553 145.9672 317.42 144.4024 316.9729 143.7318 316.6376 142.8376 315.7435 142.5023 315.1846 142.3905 314.4022 143.0612 310.602 144.0671 307.9195 145.6319 305.4605 148.7615 303.7839 188.4403 292.2715 189.1109 292.6068 189.558 292.9421 190.0051 293.3892 191.9052 294.5069 193.3582 295.0658 194.5877 295.2893 196.0407 295.2893 198.3879 294.954 199.7292 294.7305 200.3998 294.3952 200.6233 294.2834 200.7351 294.1716 201.0704 294.0598 201.6293 294.0598 202.5234 294.2834 208.0002 298.866 208.7826 299.3131 211.4651 300.319 212.5828 300.9897 213.1417 301.7721 213.477 302.6662 213.477 303.6722 213.7006 304.5663 214.0359 305.4605 214.4829 306.1311 215.1536 306.5782 216.0477 307.0253 217.0537 307.3606 218.5067 307.5842 220.7421 307.3606 222.6422 306.9135 230.4662 302.6662 231.9193 301.7721 232.5899 299.5366 237.8431 294.954 241.6433 293.9481 282.1045 293.7245 284.6752 294.1716 284.5635 295.7364 284.6752 297.9718 284.8988 298.9778 285.2341 299.8719 285.6812 300.6543 286.3518 301.1014 287.0224 301.5485 288.1402 301.9956 288.8108 302.3309 289.2579 303.0015 290.2638 305.5723 290.7109 306.2429 291.2697 306.8018 291.9404 307.3606 296.1877 309.149 298.982 311.0491 299.429 311.7197 299.8761 312.5021 300.0997 313.3963 300.2114 315.6317 300.9938 317.8671 303.8999 320.2143 308.1472 318.9848 316.8653 318.6495 321.448 319.0966 322.2304 319.4319 323.7952 320.5496 325.1364 321.332 327.5954 322.2262 329.0484 322.4497 340.002 321.4438 342.1256 321.5556 343.5787 322.0026 344.1375 322.6733 344.6964 323.4557 345.4788 333.7386 346.4847 337.4271 350.8438 342.1215 356.7677 345.8099Z" />
  <path class="Fatick" d="M240.3021 535.1503L233.5958 535.1503 223.3129 535.1503 213.1417 535.1503 202.8587 535.0385 192.5758 535.0385 182.2928 534.9267 172.1217 534.9267 161.727 534.9267 161.727 534.815 160.1622 532.356 159.268 530.5677 159.3798 525.8733 162.174 523.1908 166.3096 521.0671 170.5569 517.714 169.6627 517.2669 167.9861 515.9256 167.092 515.4785 169.1039 513.4667 170.6686 510.8959 170.4451 508.884 167.092 508.437 167.5391 511.2312 166.6449 514.4726 164.9683 516.8198 162.5094 516.5963 161.3916 520.1729 158.8209 522.5201 155.5795 523.5261 152.4499 522.5201 149.5439 519.3905 148.7615 516.2609 150.2145 509.6664 150.4381 505.4191 150.8851 503.7426 152.4499 501.5072 158.262 494.4656 159.268 492.1184 160.2739 492.789 162.8447 494.0185 163.7388 494.5773 163.4035 493.7949 162.5094 491.0007 168.3215 489.8829 168.545 493.2361 169.7745 496.4774 171.6746 498.3776 174.0218 497.9305 172.7923 494.0185 172.457 489.7712 171.7864 486.3063 169.3274 485.1886 170.2216 482.8414 173.7982 467.0816 174.0218 464.2873 170.4451 469.5406 168.8803 472.8937 167.6508 479.9353 165.9743 484.1826 163.7388 486.9769 161.5034 486.3063 160.2739 486.3063 158.7091 488.5417 155.6913 489.4359 152.3382 489.8829 149.0968 491.0007 147.3085 492.4537 146.7496 493.9067 146.5261 495.3597 145.6319 496.8128 144.7377 497.7069 142.8376 498.8246 141.8317 499.7188 140.1551 502.8484 138.9256 503.9661 137.2491 503.1837 136.6902 501.5072 136.6902 499.3835 136.3549 497.5952 134.9019 496.8128 132.7782 495.3597 131.884 492.0066 132.1076 488.4299 133.2253 486.3063 132.2194 483.9591 131.5487 481.3883 130.9899 475.9116 131.2134 473.0055 131.7723 471.3289 132.7782 470.2112 136.5784 467.1934 138.4785 466.411 140.6022 466.2992 145.4084 466.8581 147.7556 467.6405 149.3204 468.9817 149.0968 471.2172 151.444 469.0935 153.2323 466.6345 155.5795 465.2933 159.268 466.6345 159.268 462.8343 160.4975 461.1578 162.6211 460.1518 164.8565 458.3635 162.8447 459.0341 160.6092 459.593 158.4856 459.1459 156.9208 457.2458 164.4095 452.6631 167.092 450.2042 171.3393 444.9509 173.6865 442.9391 178.9397 441.3743 181.5105 438.1329 183.5223 437.3505 184.9754 438.0211 186.2048 439.2506 187.6579 440.033 189.2227 439.1388 190.2286 438.3564 192.9111 437.127 192.9111 437.0152 193.0229 437.0152 203.6411 437.3505 204.5353 437.4623 205.4295 438.0211 206.3237 438.8035 211.018 441.8213 213.3652 443.7215 214.4829 445.1745 215.6007 446.9628 216.2713 450.6513 216.3831 452.7749 216.1595 454.675 215.6007 456.0163 213.9241 458.4752 213.3652 459.8165 213.477 461.1578 216.8301 465.5168 218.842 467.4169 219.9597 469.0935 221.8598 480.7177 221.8598 482.059 221.6363 483.4002 221.1892 484.7415 220.295 485.971 218.5067 488.4299 216.0477 490.5536 215.1536 491.5595 214.7065 492.6772 214.5947 493.9067 214.4829 496.3657 214.7065 497.8187 215.2653 499.3835 216.8301 501.0601 222.0834 505.4191 224.7659 506.9839 225.8836 507.8781 227.0013 509.2194 227.6719 511.4548 228.4543 517.0433 229.0132 519.5023 229.9074 521.0671 231.2486 522.8554 236.6136 527.6616 238.8491 530.6794 239.7432 534.0326 240.3021 535.1503ZM348.273 366.9347L342.1256 368.4994 333.2957 370.0642 325.2482 371.2937 321.448 372.0761 317.9831 374.8704 310.2708 381.1296 306.4706 383.1415 302.2233 383.5886 295.7406 391.0772 291.9404 395.7716 287.5813 399.2365 282.3281 402.5897 270.0332 402.1426 261.9857 401.8073 258.6326 403.3721 255.503 406.5017 252.0381 407.7311 238.0667 405.2722 237.1725 404.4898 237.1725 403.7074 235.7195 403.4838 227.2249 404.2662 217.2772 406.5017 212.024 406.9487 210.3474 407.7311 208.4473 409.2959 203.9765 414.7727 195.7054 427.1793 194.0288 432.8796 191.6816 436.0092 191.6816 436.121 183.8576 435.7857 179.3868 434.1091 179.6103 430.4207 177.0396 431.7619 176.0337 434.2209 176.5925 436.7916 178.3809 438.4682 176.369 439.6977 174.6924 439.4741 173.0158 438.9153 171.1157 438.4682 169.7745 439.0271 169.1039 440.3683 168.7685 441.9331 168.3215 443.2744 164.0741 450.763 162.5094 452.5514 160.8328 453.3338 157.2561 454.2279 155.356 455.4574 153.903 457.3575 151.7793 461.2695 150.2145 463.0579 146.4143 464.2873 142.9494 463.505 139.3727 462.2755 135.4607 461.9402 139.2609 454.8986 139.3727 453.6691 142.167 452.8867 146.7496 447.7452 144.5142 448.4158 142.3905 451.769 140.6022 452.5514 136.9138 452.6631 135.4607 452.9985 134.343 453.6691 136.2431 456.0163 136.0196 457.4693 133.2253 460.8224 132.7782 462.0519 132.3311 464.5109 131.5487 465.9639 128.1956 469.7641 127.525 471.2172 126.7426 476.0233 127.525 492.1184 126.519 492.1184 125.5131 459.4812 124.7307 454.5633 121.9364 446.404 120.4834 443.4979 120.5952 443.4979 121.8246 442.0449 126.519 440.5919 127.3014 439.6977 127.4132 438.8035 127.0779 438.1329 126.519 437.3505 125.9602 436.5681 125.9602 435.1151 126.4073 434.3327 130.6546 430.756 131.437 429.4147 131.437 428.4088 130.8781 427.7382 130.2075 427.1793 129.6486 426.6205 129.0898 425.9498 131.437 416.114 139.708 392.0832 140.2669 391.7479 141.1611 391.5243 146.5261 391.189 147.532 390.9655 148.3144 390.5184 148.985 390.0713 149.5439 389.4007 151.2205 387.3888 152.4499 386.3828 153.2323 386.0475 155.0207 385.4887 156.4737 384.5945 159.1562 381.6884 163.5153 375.9881 164.2977 374.5351 165.5272 370.9584 166.7567 365.8169 168.7685 362.6873 170.8922 362.0167 178.1573 361.3461 192.2405 362.0167 193.8053 362.352 194.5877 362.9109 195.9289 364.1404 196.8231 364.811 198.1644 365.7052 199.3938 365.9287 200.5116 365.9287 209.1179 364.0286 210.9063 363.9168 216.3831 364.5875 221.8598 366.3758 223.4246 367.1582 225.5483 368.6112 227.3366 370.5113 228.9014 371.182 231.3604 371.8526 249.3556 375.0939 251.591 375.0939 265.4506 373.6409 271.0392 372.1879 275.1747 370.2878 275.8453 369.8407 284.787 360.899 285.2341 360.2284 285.5694 359.3342 286.0165 357.4341 286.7989 342.9039 287.1342 342.0097 287.4695 341.2273 288.1402 340.4449 288.9226 339.886 291.0462 338.8801 291.7168 338.433 299.9879 344.3569 303.4528 344.0216 308.0354 342.345 311.0532 342.7921 314.8535 346.7041 320.2185 349.163 342.1256 357.8812 345.9259 361.0108 348.273 366.9347Z" />
  <path class="Kaffrine" d="M479.9395 377.7765L479.8277 409.8548 483.6279 420.9201 485.6398 424.0497 486.534 427.0675 487.3164 439.9212 488.7694 447.5217 489.1047 450.8748 489.1047 453.6691 487.6517 460.7107 486.9811 462.0519 486.3105 462.9461 484.7457 463.7285 483.1809 464.2873 482.5102 464.6227 482.2867 464.958 481.6161 467.9758 481.8396 470.9936 481.5043 473.0055 481.169 474.235 480.6101 475.0174 470.9978 484.4062 467.0858 487.5358 466.3034 487.9828 458.703 489.8829 457.0264 490.6653 456.1322 490.7771 454.0086 490.8889 451.9967 491.2242 450.3201 491.8948 448.0847 494.3538 446.0728 497.1481 443.055 502.2895 442.3844 504.525 439.3666 502.066 433.3309 499.9424 416.677 499.2717 406.8411 495.4715 403.2645 495.3597 391.1932 499.7188 378.7866 507.7663 375.3217 508.5487 373.8686 507.5428 370.7391 503.2955 369.1743 501.8425 362.0209 500.613 354.4205 503.519 346.0376 499.607 341.2315 499.607 334.637 499.0482 323.2363 494.0185 319.6596 499.607 316.6418 504.525 313.624 505.7545 309.4884 503.9661 304.6823 499.0482 302.3351 494.0185 302.3351 489.7712 304.1234 485.4121 303.4528 481.1648 296.2994 476.8057 290.2638 470.6583 288.4755 466.9699 287.9166 462.6108 285.5694 459.4812 278.3043 458.2517 278.3043 449.6453 278.3043 438.58 280.0926 432.3208 284.3399 423.1556 287.3578 415.6669 287.5813 399.2365 291.9404 395.7716 295.7406 391.0772 302.2233 383.5886 306.4706 383.1415 310.2708 381.1296 317.9831 374.8704 321.448 372.0761 325.2482 371.2937 333.2957 370.0642 342.1256 368.4994 348.273 366.9347 353.191 361.3461 356.7677 345.8099 369.9567 353.7457 378.2277 356.987 403.3762 362.0167 409.0766 362.5756 412.8768 361.6814 416.1182 360.3402 430.6484 351.3985 433.4427 350.0572 436.237 349.3866 438.2488 350.9514 442.0491 356.0928 445.0669 358.7754 449.5377 360.899 476.3628 368.8348 478.9336 369.9525 480.0513 371.0702 480.2748 373.1938 480.2748 375.0939 479.9395 377.7765Z" />
  <path class="Kaolack" d="M354.4205 503.519L347.3789 508.6605 342.2374 514.2491 340.4491 517.1551 338.6607 520.7318 337.4312 524.4202 337.2077 525.6497 336.7606 527.8851 336.5371 534.7032 333.8546 535.5974 325.807 535.4856 315.5241 535.4856 305.3529 535.4856 295.07 535.3738 284.787 535.3738 274.6158 535.3738 264.3329 535.262 254.0499 535.262 243.8788 535.1503 240.3021 535.1503 239.7432 534.0326 238.8491 530.6794 236.6136 527.6616 231.2486 522.8554 229.9074 521.0671 229.0132 519.5023 228.4543 517.0433 227.6719 511.4548 227.0013 509.2194 225.8836 507.8781 224.7659 506.9839 222.0834 505.4191 216.8301 501.0601 215.2653 499.3835 214.7065 497.8187 214.4829 496.3657 214.5947 493.9067 214.7065 492.6772 215.1536 491.5595 216.0477 490.5536 218.5067 488.4299 220.295 485.971 221.1892 484.7415 221.6363 483.4002 221.8598 482.059 221.8598 480.7177 219.9597 469.0935 218.842 467.4169 216.8301 465.5168 213.477 461.1578 213.3652 459.8165 213.9241 458.4752 215.6007 456.0163 216.1595 454.675 216.3831 452.7749 216.2713 450.6513 215.6007 446.9628 214.4829 445.1745 213.3652 443.7215 211.018 441.8213 206.3237 438.8035 205.4295 438.0211 204.5353 437.4623 203.6411 437.3505 193.0229 437.0152 192.9111 437.0152 194.2524 436.121 191.6816 436.121 191.6816 436.0092 194.0288 432.8796 195.7054 427.1793 203.9765 414.7727 208.4473 409.2959 210.3474 407.7311 212.024 406.9487 217.2772 406.5017 227.2249 404.2662 235.7195 403.4838 237.1725 403.7074 237.1725 404.4898 238.0667 405.2722 252.0381 407.7311 255.503 406.5017 258.6326 403.3721 261.9857 401.8073 270.0332 402.1426 282.3281 402.5897 287.5813 399.2365 287.3578 415.6669 284.3399 423.1556 280.0926 432.3208 278.3043 438.58 278.3043 449.6453 278.3043 458.2517 285.5694 459.4812 287.9166 462.6108 288.4755 466.9699 290.2638 470.6583 296.2994 476.8057 303.4528 481.1648 304.1234 485.4121 302.3351 489.7712 302.3351 494.0185 304.6823 499.0482 309.4884 503.9661 313.624 505.7545 316.6418 504.525 319.6596 499.607 323.2363 494.0185 334.637 499.0482 341.2315 499.607 346.0376 499.607 354.4205 503.519Z" />
  <path class="Kédougou" d="M930.9362 569.6876L931.2715 571.4759 932.7245 571.923 937.0836 574.0466 938.4249 575.0526 938.9837 576.2821 939.9897 579.5234 940.7721 580.7529 942.2251 581.8706 942.1133 582.0942 942.5604 582.653 943.1193 582.8766 944.5723 582.653 945.9135 582.4295 946.8077 582.3177 947.4783 582.3177 947.9254 582.0942 948.149 581.4235 948.3725 580.3058 948.9314 579.2999 949.3784 578.5175 950.1608 578.0704 951.055 577.9586 951.2785 577.9586 952.1727 577.8469 953.0669 576.8409 953.2904 576.0585 953.6257 574.6055 953.6257 574.0466 954.2964 572.9289 954.7435 572.1465 955.6376 571.1406 956.3083 570.1347 956.9789 569.3523 956.8671 568.4581 956.7553 567.8992 956.5318 567.2286 956.6436 565.9991 956.9789 565.552 957.0906 565.4403 957.3142 565.3285 959.4378 565.6638 960.6673 567.0051 961.5615 568.6816 963.2381 569.9111 964.8029 570.1347 968.0442 569.464 972.1798 569.3523 972.9622 570.0229 972.7386 572.4818 973.1857 574.1584 974.974 574.382 976.9859 573.8231 977.0977 573.8231 977.2095 573.8231 978.2154 573.7113 978.2154 576.9527 979.4449 580.1941 983.4686 585.8944 987.2689 589.2475 987.9395 590.9241 987.716 592.7124 985.5923 595.842 984.9217 597.6304 985.4805 600.6482 987.0453 602.7718 988.9454 604.5602 990.5102 606.7956 990.622 612.7195 991.4044 615.5138 994.3105 616.1844 996.6576 617.5256 998.5578 618.9787 1000.6814 620.3199 1003.3639 620.9905 1005.0405 621.6612 1004.9287 622.8906 1004.0345 624.1201 1003.6992 625.1261 1005.9347 628.4792 1006.8288 630.4911 1007.4994 631.6088 1008.1701 632.1677 1009.6231 632.8383 1009.2878 633.5089 1008.3936 634.2913 1007.8348 634.9619 1007.8348 636.415 1007.4994 639.6563 1007.0524 641.3329 1009.6231 641.8917 1011.5232 641.1094 1012.6409 639.0975 1012.9762 639.2092 1013.6469 639.4328 1013.9822 639.8799 1014.3175 640.2152 1014.7646 640.6623 1015.0999 640.774 1015.2117 640.774 1015.4352 640.5505 1015.547 641.3329 1015.9941 645.692 1015.4352 646.6979 1014.3175 647.3685 1014.2057 647.145 1013.9822 646.9215 1013.6469 647.145 1013.3116 647.5921 1013.088 648.3745 1012.8645 648.598 1012.1938 648.598 1011.1879 648.0392 1009.9584 647.5921 1008.8407 648.1509 1008.7289 649.2686 1009.6231 650.1628 1010.5173 651.057 1010.8526 651.9512 1010.182 653.6277 1009.2878 655.4161 1008.6172 657.0926 1009.176 659.8869 1008.9525 660.5575 1008.3936 661.3399 1008.0583 662.2341 1008.0583 663.24 1008.7289 663.6871 1009.5113 663.7989 1009.9584 663.9107 1010.182 664.1342 1010.7408 664.9166 1011.4114 666.0343 1011.9703 667.4873 1012.3056 669.2757 1012.5292 671.2876 1012.0821 673.0759 1010.9644 674.3054 1010.9644 675.0878 1012.7527 678.2174 1012.9762 679.7822 1012.1938 681.2352 1011.0761 681.347 1010.629 681.347 1009.8466 681.4587 1009.3996 681.9058 1009.3996 682.4647 1007.1641 683.1353 1005.4876 687.6062 1004.1463 688.5003 1003.1404 689.7298 1003.3639 692.1888 1003.9228 692.6359 1005.1523 693.0829 1006.4935 693.9771 1007.2759 695.7655 1007.3877 697.5538 1006.4935 702.807 1006.6053 704.5954 1007.0524 705.8249 1007.1641 707.0543 1006.8288 708.6191 1006.7171 708.6191 1006.4935 709.0662 1003.3639 710.5193 1002.2462 711.637 1004.0345 712.3076 1005.264 713.09 1007.1641 716.4431 1008.5054 717.5608 1008.3936 716.3314 1008.9525 715.2136 1009.5113 715.3254 1010.5173 715.6607 1010.629 715.549 1010.9644 715.4372 1010.9644 714.9901 1011.635 716.7784 1011.9703 718.1197 1012.9762 720.914 1013.3116 722.4788 1014.6528 720.3551 1014.9881 719.4609 1017 722.367 1016.6647 726.279 1015.547 730.7498 1015.3234 735.2207 1010.7408 734.9971 999.899 731.0851 994.3105 730.5263 980.1155 731.644 973.2975 732.8735 960.5556 737.6796 954.2964 738.6856 940.8838 738.1267 937.4189 737.3443 927.4713 733.2088 927.2477 732.8735 926.9124 732.7617 925.7947 732.7617 925.1241 732.9853 923.224 734.3265 916.9648 737.7914 914.7294 738.2385 911.2645 737.7914 901.3168 734.5501 897.1813 734.6618 894.2752 736.1149 888.7985 741.1446 882.651 744.4977 854.82 751.8746 852.1375 750.4216 847.4431 743.2682 844.5371 741.1446 837.3837 738.462 833.9188 737.6796 831.0128 737.5679 828.2185 738.1267 825.0889 739.3562 820.2827 742.0387 818.9415 742.374 818.8297 742.4858 816.4825 742.374 815.8119 741.7034 815.7001 740.5857 814.8059 738.9091 810.2233 733.7677 807.429 731.5322 804.2994 730.191 800.8345 729.8557 790.2163 730.4145 786.7514 729.9674 785.8572 728.6262 785.0748 726.9496 782.5041 725.6084 777.5861 725.273 776.0213 724.7142 774.233 723.0376 773.8977 721.5846 774.233 720.4669 774.233 719.7963 770.2092 716.2196 763.7265 712.8664 757.6909 712.8664 755.0084 719.6845 754.4495 722.9259 752.5494 724.6024 749.8669 724.7142 746.8491 723.5965 743.7195 723.9318 740.8134 723.7083 738.3545 722.367 736.4543 719.5727 735.7837 716.3314 736.3426 713.5371 738.8015 707.8367 739.4722 704.9307 739.5839 701.4658 738.9133 698.3362 736.7897 695.989 734.2189 695.6537 731.4246 696.1008 728.4068 696.2125 725.389 694.6477 723.8242 696.5479 722.5947 695.6537 721.477 695.5419 720.2475 695.6537 718.7945 695.6537 716.7826 696.3243 716.112 696.4361 715.3296 696.1008 713.7648 694.3124 712.8706 693.8653 711.6411 693.9771 708.8469 694.7595 707.3938 694.9831 705.9408 694.7595 703.9289 693.4183 702.4759 693.0829 701.0229 693.1947 696.105 694.2007 695.3226 694.536 694.9872 694.9831 694.4284 695.4301 693.5342 695.4301 692.7518 695.2066 691.2988 694.0889 690.5164 693.8653 690.0693 693.6418 690.5164 691.0711 689.1751 687.7179 687.0515 686.712 686.0455 686.9355 685.2631 687.2708 684.0337 687.8297 682.2453 688.165 678.4451 688.165 676.3215 687.8297 674.5331 687.1591 672.4095 686.0414 671.18 685.1472 670.0623 683.6942 669.727 682.6882 669.9505 681.7941 670.7329 680.341 671.0682 679.4469 671.4035 673.1877 671.18 672.1817 670.7329 671.1758 670.2858 669.611 669.1681 668.3815 668.8328 667.2638 668.721 666.2579 668.9446 665.3637 669.2799 664.5813 670.2858 663.1283 670.6211 662.3459 670.7329 661.4517 670.174 660.6693 669.3916 660.1105 669.2799 659.5516 669.9505 659.4398 670.7329 659.4398 671.7388 659.4398 672.4095 659.1045 672.633 657.9868 671.9624 656.7573 671.2917 652.7336 670.6211 652.0629 668.3857 650.4981 666.8209 648.8216 666.262 647.3685 665.7032 644.686 664.9208 643.5683 664.5855 642.6741 664.809 641.8917 665.3679 641.2211 665.7032 640.327 664.9208 635.0737 664.6972 634.4031 663.9149 634.0678 662.9089 633.8442 661.7912 633.2854 661.4559 632.6147 661.6794 631.9441 662.1265 631.1617 662.4618 630.1558 662.0147 629.4851 660.897 628.2557 659.6675 626.6909 657.8792 624.7908 655.3085 623.226 654.9732 622.3318 654.9732 621.3259 655.0849 620.3199 654.9732 619.2022 654.4143 618.5316 653.5201 618.0845 652.626 617.3021 650.3905 614.8431 649.2728 612.2724 648.9375 610.8194 648.8257 608.0251 648.0433 606.6838 648.0433 605.5661 648.0433 604.6719 648.3787 603.666 648.2669 600.9835 648.4904 599.754 648.2669 596.0656 647.9316 594.9479 647.3727 594.1655 646.5903 593.7184 646.5903 592.1536 650.3905 590.3652 650.5023 581.3118 653.2966 579.2999 652.7377 582.2059 653.7437 583.4354 655.6438 583.9943 657.3204 583.659 658.2145 581.6471 659.1087 580.6411 661.5677 579.4117 664.809 578.5175 666.9327 579.1881 665.815 582.8766 667.9386 581.9824 669.2799 577.9586 670.8447 577.0645 677.5509 577.0645 683.9219 578.2939 686.0455 577.3998 687.7221 576.3938 689.1751 576.6174 690.7399 579.2999 689.0634 582.0942 687.8339 583.5472 687.0515 585.0002 687.1633 587.571 687.8339 588.9122 688.281 590.1417 688.3927 591.5947 688.9516 592.2653 690.1811 592.1536 691.187 592.1536 691.7459 592.7124 692.193 593.7184 693.3107 594.5008 694.4284 595.0596 695.2108 595.6185 695.3226 596.5127 694.6519 598.0774 695.6579 599.754 696.3285 601.9894 695.6579 604.3366 695.3226 606.5721 697.4462 608.3604 690.7399 610.8194 690.7399 611.8253 694.0931 613.3901 694.7637 617.5256 694.4284 622.6671 695.2108 627.0262 698.3404 630.7146 701.5817 631.497 708.8469 629.3734 713.5413 627.585 716.0002 627.585 720.8064 628.1439 725.1655 629.5969 728.0715 632.0559 730.9776 632.0559 732.4306 629.5969 733.8836 628.1439 737.2367 628.1439 741.1487 626.132 744.0548 624.679 753.22 624.679 756.6849 626.132 759.591 629.1498 761.9382 629.1498 765.8502 633.0618 770.2092 636.0796 773.5624 637.0856 775.0154 634.6266 775.0154 632.6147 776.4684 631.1617 779.3745 631.1617 781.8334 630.1558 782.2805 627.138 783.7336 625.6849 787.0867 626.132 789.5457 627.138 792.0046 626.6909 792.0046 623.673 793.4576 620.6552 797.2579 618.1963 799.7168 615.1784 798.7109 611.2664 798.7109 607.2427 801.1699 605.2308 804.523 604.7837 807.9879 604.7837 810.8939 603.2189 812.7941 601.7659 815.253 603.2189 817.6002 604.7837 821.5122 605.2308 826.8772 603.7778 829.7833 601.7659 831.6834 598.301 832.1305 594.8361 834.1424 592.3771 837.4955 591.8183 838.5014 589.3593 840.8486 587.3474 845.2077 586.3415 849.1197 587.3474 851.5787 590.3652 853.4788 591.8183 855.3789 591.3712 856.3848 588.3534 857.8378 586.3415 858.8438 582.4295 860.7439 581.4235 866.1089 582.4295 870.468 582.4295 872.8152 579.4117 871.921 575.3879 867.0031 569.464 866.1089 566.4462 868.4561 563.9872 868.4561 559.9635 872.3681 558.5105 877.1743 561.4165 881.5333 564.9932 886.4513 567.4521 891.2574 570.47 897.0695 571.923 901.4286 573.376 902.4345 576.9527 903.3287 580.8647 906.7936 580.8647 911.1527 577.8469 915.5118 572.9289 921.3239 571.4759 930.9362 569.6876Z" />
  <path class="Kolda" d="M646.5903 593.7184L647.3727 594.1655 647.9316 594.9479 648.2669 596.0656 648.4904 599.754 648.2669 600.9835 648.3787 603.666 648.0433 604.6719 648.0433 605.5661 648.0433 606.6838 648.8257 608.0251 648.9375 610.8194 649.2728 612.2724 650.3905 614.8431 652.626 617.3021 653.5201 618.0845 654.4143 618.5316 654.9732 619.2022 655.0849 620.3199 654.9732 621.3259 654.9732 622.3318 655.3085 623.226 657.8792 624.7908 659.6675 626.6909 660.897 628.2557 662.0147 629.4851 662.4618 630.1558 662.1265 631.1617 661.6794 631.9441 661.4559 632.6147 661.7912 633.2854 662.9089 633.8442 663.9149 634.0678 664.6972 634.4031 664.9208 635.0737 665.7032 640.327 665.3679 641.2211 664.809 641.8917 664.5855 642.6741 664.9208 643.5683 665.7032 644.686 666.262 647.3685 666.8209 648.8216 668.3857 650.4981 670.6211 652.0629 671.2917 652.7336 671.9624 656.7573 672.633 657.9868 672.4095 659.1045 671.7388 659.4398 670.7329 659.4398 669.9505 659.4398 669.2799 659.5516 669.3916 660.1105 670.174 660.6693 670.7329 661.4517 670.6211 662.3459 670.2858 663.1283 669.2799 664.5813 668.9446 665.3637 668.721 666.2579 668.8328 667.2638 669.1681 668.3815 670.2858 669.611 670.7329 671.1758 671.18 672.1817 671.4035 673.1877 671.0682 679.4469 670.7329 680.341 669.9505 681.7941 669.727 682.6882 670.0623 683.6942 671.18 685.1472 672.4095 686.0414 674.5331 687.1591 676.3215 687.8297 678.4451 688.165 682.2453 688.165 684.0337 687.8297 685.2631 687.2708 686.0455 686.9355 687.0515 686.712 689.1751 687.7179 690.5164 691.0711 690.0693 693.6418 682.5806 691.6299 629.2658 689.7298 570.6977 689.3945 527.7776 689.2827 512.2414 689.171 453.785 688.9474 440.4843 688.8356 395.2169 688.7239 393.8757 678.3292 395.3287 673.2994 397.7877 667.8227 397.7877 659.8869 397.7877 653.963 394.8816 649.0451 391.5285 645.0213 391.0814 639.0975 391.5285 634.6266 385.7164 630.6029 380.3514 627.138 379.9043 623.1142 379.4572 617.6374 375.9923 608.6957 373.6451 604.7837 365.8211 603.2189 360.009 599.3069 359.1149 593.2713 361.015 586.9003 362.468 580.4176 362.9151 572.9289 368.2801 571.923 373.6451 569.9111 378.4513 566.7815 381.8044 562.3107 382.8103 557.6163 383.481 547.1098 385.7164 543.4213 389.5166 539.5094 392.8697 535.9327 396.67 534.3679 401.2526 537.3857 408.6295 544.3155 416.7888 550.3512 416.9006 550.3512 427.7424 555.9397 433.2191 557.3927 439.5901 557.9516 442.0491 558.6222 447.6376 562.0871 450.6554 562.9813 454.0086 563.6519 455.7969 564.7696 459.0383 569.464 463.7327 573.5996 469.2095 575.9468 475.2451 576.6174 481.3925 575.9468 486.6458 574.6055 488.5459 575.2761 493.2403 579.6352 494.8051 581.0882 497.0405 582.3177 499.3877 582.9883 504.6409 583.2119 506.7646 583.8825 508.6647 585.7826 509.8942 587.4592 511.459 588.9122 513.2473 590.1417 519.1712 593.2713 523.5303 594.5008 528.0011 594.8361 537.3899 593.9419 546.3316 595.7303 551.1377 595.5067 554.7144 593.7184 562.6502 587.6827 565.1091 586.565 568.0152 586.6768 575.0568 584.1061 581.6513 583.9943 588.3575 582.2059 600.7641 581.0882 608.9234 577.5116 613.6178 570.3582 614.2884 561.64 610.3765 553.5925 608.6999 552.2513 604.8997 550.0158 603.782 549.0099 605.9056 548.004 607.4704 547.4451 609.2587 547.2216 610.1529 546.998 610.8235 546.4392 611.1589 545.6568 611.3824 544.7626 611.8295 544.092 612.5001 543.6449 613.2825 543.4213 615.0708 543.6449 616.8592 543.6449 617.6416 543.8684 618.0887 544.5391 617.9769 545.545 617.3063 547.2216 617.3063 548.8981 617.3063 549.457 617.1945 549.6805 616.5239 550.5747 616.0768 551.2453 615.7415 552.0277 615.7415 553.0337 616.1886 554.0396 617.3063 554.9338 618.3122 555.0455 619.0946 554.822 620.5476 553.9278 621.4418 553.5925 622.336 553.369 623.3419 553.4807 624.2361 553.5925 626.695 554.5985 628.4834 555.0455 628.9305 555.3809 629.154 555.8279 628.8187 556.7221 628.2598 557.3927 625.242 560.2988 624.9067 561.0812 624.4596 561.8636 624.3479 562.7578 624.2361 563.6519 624.3479 564.6579 624.2361 565.7756 624.0125 566.6697 623.5655 567.4521 623.1184 568.1228 622.6713 568.6816 622.2242 569.3523 622.0007 570.1347 622.336 570.9171 623.3419 571.4759 624.3479 571.8112 625.4656 571.923 626.4715 572.0348 627.5892 571.923 631.613 571.1406 633.7366 571.0288 634.6308 571.3641 635.1897 571.923 635.1897 573.0407 634.7426 573.8231 633.2895 575.9468 633.1778 576.6174 633.5131 577.3998 634.4073 578.0704 635.3014 578.5175 635.8603 579.4117 635.9721 580.6411 635.7485 581.7589 635.3014 583.5472 635.525 584.5531 636.0838 585.5591 637.7604 586.6768 640.1076 587.571 640.89 588.018 641.3371 588.9122 641.5606 590.3652 641.8959 591.5947 642.343 592.6007 643.5725 593.4948 644.5784 593.7184 646.5903 593.7184Z" />
  <path class="Louga" d="M165.1919 156.3578L165.3036 156.3578 192.1287 155.7989 195.2583 155.24 198.2761 154.2341 201.8528 151.5516 204.2 150.6574 206.9943 150.2103 209.565 150.0986 211.9122 149.7633 213.1417 148.422 213.9241 147.1925 215.936 141.4922 217.0537 139.4803 218.7303 138.0273 225.7718 134.3388 226.666 133.6682 227.1131 132.774 227.5602 131.0975 227.8955 130.3151 228.3426 129.5327 229.4603 128.3032 235.2724 123.497 236.0548 123.0499 236.1666 123.0499 267.2389 105.2783 268.3567 104.4959 269.4744 103.1547 271.1509 100.2486 271.8216 98.4603 272.3804 97.9014 273.051 97.3426 276.1806 95.7778 278.9749 93.7659 279.5338 93.0953 280.6515 91.8658 282.6634 93.207 286.1283 96.3366 320.1067 135.4565 321.895 136.5743 347.826 134.7859 348.9437 123.2735 443.3903 123.497 446.1846 124.503 459.4854 131.6563 468.0917 130.9857 486.6458 144.0629 495.0286 156.5813 481.8396 168.9879 475.2451 173.347 466.8623 176.4766 462.1679 178.3767 460.9384 209.4491 454.9028 218.7261 482.5102 233.0328 496.2581 231.1327 490.8931 254.7164 487.8752 273.3822 494.9168 276.8471 481.8396 280.7591 463.2856 283.218 451.9967 287.5771 456.6911 304.3428 463.9562 320.4378 457.9206 332.8444 450.7672 337.7624 448.3083 351.3985 442.0491 356.0928 438.2488 350.9514 436.237 349.3866 433.4427 350.0572 430.6484 351.3985 416.1182 360.3402 412.8768 361.6814 409.0766 362.5756 403.3762 362.0167 378.2277 356.987 369.9567 353.7457 356.7677 345.8099 350.8438 342.1215 346.4847 337.4271 345.4788 333.7386 344.6964 323.4557 344.1375 322.6733 343.5787 322.0026 342.1256 321.5556 340.002 321.4438 329.0484 322.4497 327.5954 322.2262 325.1364 321.332 323.7952 320.5496 322.2304 319.4319 321.448 319.0966 316.8653 318.6495 308.1472 318.9848 303.8999 320.2143 300.9938 317.8671 300.2114 315.6317 300.0997 313.3963 299.8761 312.5021 299.429 311.7197 298.982 311.0491 296.1877 309.149 291.9404 307.3606 291.2697 306.8018 290.7109 306.2429 290.2638 305.5723 289.2579 303.0015 288.8108 302.3309 288.1402 301.9956 287.0224 301.5485 286.3518 301.1014 285.6812 300.6543 285.2341 299.8719 284.8988 298.9778 284.6752 297.9718 284.5635 295.7364 284.6752 294.1716 282.1045 293.7245 241.6433 293.9481 237.8431 294.954 232.5899 299.5366 228.9014 297.6365 225.213 296.2953 224.4306 295.8482 223.5364 295.1776 222.6422 294.2834 221.5245 292.495 221.0774 291.2656 220.6304 290.0361 220.0715 287.0183 219.848 286.1241 219.4009 285.2299 218.5067 283.7769 213.7006 277.9648 212.8064 276.5118 211.2416 272.2645 210.9063 270.5879 210.6827 269.1349 210.7945 267.6818 210.9063 267.0112 211.3534 262.6521 210.9063 260.305 210.1239 258.5166 209.565 257.3989 209.1179 256.7283 207.6649 253.4869 207.1061 252.8163 206.4354 252.481 205.5413 252.8163 204.0882 253.934 203.4176 254.2693 202.6352 254.3811 201.9646 254.0458 201.2939 253.0398 200.8469 250.8044 199.8409 242.6451 199.6174 241.7509 199.2821 241.0803 198.6114 240.4097 197.7173 239.9626 196.1525 239.8508 195.1465 239.8508 192.6876 240.5215 190.6757 240.745 182.9635 238.7331 181.734 238.7331 180.6163 238.9567 179.9457 239.5155 179.275 240.0744 178.7162 240.6332 177.3749 242.7569 175.8101 244.657 173.91 247.4513 172.7923 248.6807 170.2216 252.0339 169.3274 254.6046 168.7685 256.5047 168.2097 258.1813 167.3155 259.5226 159.8268 267.4583 159.0444 268.9113 156.809 271.3703 156.2502 271.9292 155.5795 272.3762 154.6854 272.488 153.903 272.3762 153.0088 271.9292 152.3382 271.035 151.5558 269.4702 151.3322 266.7877 151.5558 266.0053 151.7793 265.4464 152.2264 264.7758 152.4499 264.1052 152.5617 263.3228 152.3382 262.4286 151.8911 261.5344 150.7734 260.1932 149.7674 259.5226 147.1967 258.2931 145.7437 257.3989 145.073 256.84 144.5142 256.2812 142.5023 253.4869 141.4964 251.3633 140.9375 250.5809 140.3787 249.9102 139.3727 249.2396 137.4726 248.3454 136.1314 248.0101 135.1254 246.11 134.6783 242.8686 135.5725 235.7153 136.6902 231.6915 139.708 225.7677 140.4904 222.4145 140.4904 221.2968 140.3787 220.4026 139.5963 218.3908 138.8139 217.1613 133.8959 213.1375 133.1135 212.6904 143.8436 198.1602 165.4154 161.7228 166.1978 160.0462 165.9743 158.2579 165.1919 156.3578Z" />
  <path class="Matam" d="M800.611 278.5237L800.9463 279.7531 818.2708 302.8898 819.5003 305.684 820.2827 309.596 820.171 310.9373 819.9474 312.3903 807.3173 344.4686 793.793 365.1463 791.7811 367.3817 789.7692 368.3877 764.956 371.629 757.8026 371.7408 713.3177 363.4697 711.5294 364.0286 710.1881 364.6992 666.8209 395.9952 665.0326 396.8893 619.877 397.56 611.7177 396.3305 539.9606 368.9465 537.1663 367.3817 534.1485 365.0345 532.6955 361.905 525.5421 355.0869 518.7241 357.3223 516.2651 358.5518 513.2473 361.2343 508.3294 367.0464 500.3936 372.7468 479.9395 377.7765 480.2748 375.0939 480.2748 373.1938 480.0513 371.0702 478.9336 369.9525 476.3628 368.8348 449.5377 360.899 445.0669 358.7754 442.0491 356.0928 448.3083 351.3985 450.7672 337.7624 457.9206 332.8444 463.9562 320.4378 456.6911 304.3428 451.9967 287.5771 463.2856 283.218 481.8396 280.7591 494.9168 276.8471 487.8752 273.3822 490.8931 254.7164 496.2581 231.1327 482.5102 233.0328 454.9028 218.7261 460.9384 209.4491 462.1679 178.3767 466.8623 176.4766 475.2451 173.347 481.8396 168.9879 495.0286 156.5813 502.182 166.5289 516.0416 174.0176 528.56 180.165 535.1545 185.1947 559.7441 165.8583 586.0103 144.0629 604.5644 127.2972 607.0233 121.0381 623.789 114.22 630.607 99.8015 631.3894 100.2486 633.1778 100.9193 633.8484 101.4781 634.0719 101.8134 634.2955 102.3723 634.519 102.5958 634.9661 102.9311 635.9721 103.2664 636.4191 103.49 637.5369 104.4959 637.8722 104.7195 638.9899 104.943 640.1076 104.6077 644.5784 102.1487 645.5844 101.9252 648.714 101.9252 649.2728 101.9252 650.5023 101.4781 655.532 99.3545 664.1384 97.4543 666.3738 96.5602 667.3798 96.2249 668.2739 96.2249 669.3916 96.4484 669.727 98.7956 666.9327 104.0488 666.5974 106.7314 668.2739 107.8491 674.3096 105.5019 676.7685 105.6136 677.5509 106.5078 678.8922 108.855 679.7864 109.7492 684.2572 112.8788 685.2631 114.1083 685.7102 115.4495 685.822 118.4673 686.0455 119.8086 688.3927 125.5089 689.3987 127.2972 690.6282 128.9738 692.0812 130.4268 696.3285 133.6682 697.2227 135.0095 697.6697 136.4625 697.558 137.9155 696.8873 140.8216 696.8873 142.1628 697.2227 143.3923 697.8933 144.3982 700.9111 147.8631 702.3641 150.5457 703.1465 153.4517 703.2583 156.8048 702.923 158.2579 702.3641 159.7109 701.9171 161.1639 702.1406 162.6169 703.0348 163.7347 704.1525 164.6288 706.7232 166.1936 708.0645 167.1996 709.1822 168.429 710.9705 171.1116 711.7529 172.5646 711.8647 173.7941 711.6411 175.1353 709.1822 179.0473 708.5116 180.3886 708.3998 181.9534 708.6233 183.4064 710.1881 187.6537 712.6471 187.5419 717.565 186.6477 720.024 186.8713 721.1417 187.3184 724.2713 189.5538 725.389 190.0009 729.1892 191.0068 731.3129 192.2363 733.1012 193.9129 734.2189 195.9248 734.666 198.2719 733.6601 204.7547 733.7718 206.2077 733.9954 207.6607 734.5542 209.3373 735.5602 210.0079 740.5899 211.3492 742.9371 211.0139 745.5078 209.4491 747.6315 207.6607 750.0904 206.3195 752.6612 205.9842 755.2319 207.2136 756.3496 208.4431 756.7967 210.0079 757.4673 214.7023 758.0262 215.82 759.7028 218.0554 760.4851 219.3967 760.7087 220.6262 760.8205 226.4383 761.3793 229.2326 762.7206 231.8033 764.7325 234.0387 774.5683 240.745 776.692 242.9804 777.8097 245.7747 776.9155 248.1219 774.1212 248.569 768.5327 248.0101 766.8561 249.2396 767.862 251.3633 771.5505 255.1635 773.0035 256.393 774.4565 256.84 776.0213 256.9518 779.598 256.1694 781.3864 256.1694 782.9512 256.6165 784.516 257.7342 785.4101 258.8519 785.7454 260.1932 785.8572 261.5344 784.963 265.8935 785.0748 267.2348 785.5219 268.7996 785.7454 269.2466 789.881 270.5879 791.2222 271.9292 796.0284 276.6235 800.4992 278.5237 800.611 278.5237Z" />
  <path class="Saint-Louis" d="M630.607 99.8015L623.789 114.22 607.0233 121.0381 604.5644 127.2972 586.0103 144.0629 559.7441 165.8583 535.1545 185.1947 528.56 180.165 516.0416 174.0176 502.182 166.5289 495.0286 156.5813 486.6458 144.0629 468.0917 130.9857 459.4854 131.6563 446.1846 124.503 443.3903 123.497 348.9437 123.2735 347.826 134.7859 321.895 136.5743 320.1067 135.4565 286.1283 96.3366 282.6634 93.207 280.6515 91.8658 279.5338 93.0953 278.9749 93.7659 276.1806 95.7778 273.051 97.3426 272.3804 97.9014 271.8216 98.4603 271.1509 100.2486 269.4744 103.1547 268.3567 104.4959 267.2389 105.2783 236.1666 123.0499 236.0548 123.0499 235.2724 123.497 229.4603 128.3032 228.3426 129.5327 227.8955 130.3151 227.5602 131.0975 227.1131 132.774 226.666 133.6682 225.7718 134.3388 218.7303 138.0273 217.0537 139.4803 215.936 141.4922 213.9241 147.1925 213.1417 148.422 211.9122 149.7633 209.565 150.0986 206.9943 150.2103 204.2 150.6574 201.8528 151.5516 198.2761 154.2341 195.2583 155.24 192.1287 155.7989 165.3036 156.3578 165.1919 156.3578 164.8565 155.9107 168.6568 149.4279 170.2216 139.9274 170.6686 121.2616 171.6746 119.3615 173.91 111.7611 176.8161 104.8312 177.4867 93.207 178.7162 89.7421 181.0634 87.6185 187.2108 86.1655 189.7815 84.4889 190.7875 82.7006 191.5699 80.6887 198.2761 51.6282 199.1703 44.6983 200.3998 41.457 202.6352 38.3274 205.653 35.3096 209.2297 33.1859 213.0299 32.4035 218.3949 33.4095 220.295 33.5212 222.1952 33.1859 223.8717 32.4035 228.6779 28.9386 230.578 28.0444 232.5899 27.7091 234.6018 28.1562 236.1666 29.0504 237.396 30.2799 239.4079 33.2977 242.2022 36.3155 245.5553 37.8803 249.2438 38.3274 253.1558 37.7685 254.3853 36.9861 255.503 36.3155 256.7325 36.092 258.1855 36.4273 260.3091 37.3215 261.3151 37.4332 262.5446 37.2097 269.0273 34.1919 271.3745 33.9683 277.1866 35.3096 278.5278 35.3096 282.6634 34.6389 285.2341 34.7507 292.7228 37.2097 298.0878 37.545 299.429 37.9921 303.341 39.7804 305.9118 40.451 308.4825 40.3393 310.9415 39.5569 313.1769 37.9921 316.8653 34.6389 318.7655 33.4095 321.3362 33.0741 328.3778 34.5272 330.8367 34.3036 332.8486 33.2977 334.4134 31.8447 338.4372 26.0326 340.4491 24.2442 342.7963 23.1265 345.367 23.3501 346.9318 24.5795 347.826 26.3679 348.9437 27.9327 350.9556 28.8268 353.4145 28.8268 355.7617 28.268 362.6915 25.2502 365.2623 24.6913 370.5155 24.5795 378.3395 25.809 381.022 25.6972 398.7936 22.903 402.2585 21.5617 403.2645 20.8911 404.0469 19.8851 404.0469 18.6557 403.488 17.538 400.8055 14.8554 399.9113 12.62 400.2466 10.3846 401.5879 8.708 404.0469 8.0374 406.3941 8.708 407.8471 10.3846 409.1883 12.3965 410.8649 14.073 412.0944 14.4084 413.3239 14.2966 414.4416 13.8495 415.4475 13.0671 416.3417 11.9494 416.677 10.8317 417.2359 8.4845 418.2418 6.8079 419.9184 5.6902 423.6068 4.1254 425.5069 5.1314 427.6306 7.4785 427.8541 7.8139 429.0836 10.2728 430.7602 12.3965 433.778 12.9553 438.8077 11.7259 467.0858 13.7377 468.9859 13.5142 474.4627 12.0612 476.1393 12.0612 477.5923 12.3965 482.2867 14.6319 484.075 14.9672 485.8634 14.8554 492.7932 12.9553 494.5815 12.8436 501.2878 14.2966 503.0761 14.2966 504.7527 14.073 506.541 13.626 508.1058 12.8436 512.4649 10.2728 514.0297 9.6022 517.2711 9.4904 527.7776 13.626 529.007 14.5201 529.6777 15.7496 529.6777 17.6497 528.7835 20.8911 529.007 22.2323 530.5718 22.903 536.9428 22.3441 538.5076 23.1265 539.0664 24.4678 539.29 27.5974 540.1842 28.9386 541.8607 29.721 545.8845 29.9446 547.6728 30.2799 549.0141 31.0623 551.8084 34.8625 553.0378 35.8684 556.9498 38.6627 562.5384 45.2572 572.3743 54.1989 577.851 57.4403 578.9688 58.4462 581.763 61.9111 583.3278 62.9171 586.5692 64.1465 588.0222 65.0407 589.0282 66.1584 589.1399 67.3879 588.134 69.9586 587.7987 71.4117 588.134 72.6411 589.8106 74.7648 590.4812 76.2178 590.593 77.6708 589.6988 80.8004 590.3694 83.5947 593.1637 85.0477 599.6464 86.9479 600.9877 87.842 603.5584 89.7421 604.6761 90.9716 605.4585 92.3129 606.9116 97.0073 607.6939 98.6838 608.6999 100.1369 610.0411 101.3663 611.4942 102.3723 612.8354 102.7076 614.1767 102.5958 615.5179 102.1487 618.2004 100.5839 620.8829 98.4603 622.0007 97.2308 624.9067 92.9835 626.1362 91.754 627.5892 90.9716 629.0422 90.5245 630.607 90.4128 632.1718 90.6363 631.8365 92.8717 630.8306 95.666 630.16 98.0132 630.607 99.8015Z" />
  <path class="Sédhiou" d="M362.9151 572.9289L362.468 580.4176 361.015 586.9003 359.1149 593.2713 360.009 599.3069 365.8211 603.2189 373.6451 604.7837 375.9923 608.6957 379.4572 617.6374 379.9043 623.1142 380.3514 627.138 385.7164 630.6029 391.5285 634.6266 391.0814 639.0975 391.5285 645.0213 394.8816 649.0451 397.7877 653.963 397.7877 659.8869 397.7877 667.8227 395.3287 673.2994 393.8757 678.3292 395.2169 688.7239 387.1694 688.6121 382.475 689.3945 378.2277 691.2946 368.6154 698.2244 358.556 702.9188 349.8378 709.2898 349.279 709.7369 307.7001 729.2968 301.9998 730.4145 273.4981 728.738 272.8275 727.732 267.686 720.1316 266.0095 716.5549 263.1034 712.1958 260.6444 707.1661 260.1974 702.6953 260.3091 701.6893 262.9916 703.813 264.3329 705.3778 266.233 705.7131 276.8513 705.8249 277.8572 706.6073 279.9809 708.8427 280.7633 709.2898 282.2163 709.178 286.4636 708.0603 288.3637 706.9426 290.152 704.7072 292.4992 703.3659 295.9641 704.8189 296.8583 704.0365 297.976 703.5894 298.982 703.4777 301.2174 705.1542 302.2233 705.0425 303.1175 704.5954 304.0117 704.8189 305.2411 706.3837 306.3589 709.178 307.253 710.5193 308.3707 711.5252 309.4884 712.1958 311.0532 712.6429 312.9534 712.6429 314.8535 712.3076 322.4539 709.178 325.4717 706.0484 330.5014 699.4539 332.4015 698.1127 334.0781 697.2185 335.3076 695.989 335.7547 693.7536 334.7487 692.6359 332.9604 691.8535 331.9545 690.9593 333.4075 689.618 331.7309 685.8178 330.2779 680.6763 329.719 675.3113 331.1721 671.1758 333.0722 669.9463 335.4194 669.9463 337.8783 670.0581 340.1138 669.8345 342.4609 668.8286 344.0257 667.5991 345.0317 666.1461 345.8141 664.1342 349.1672 667.3756 352.2968 668.2697 354.4205 666.4814 354.7558 661.787 352.185 664.4695 349.8378 664.3578 347.2671 663.3518 344.6964 662.9047 342.1256 664.0224 338.1019 667.0403 335.084 667.7109 333.4075 667.7109 330.9485 668.0462 328.7131 669.1639 327.7072 671.7347 327.7072 681.5705 329.6073 687.8297 329.9426 689.618 330.0543 692.4123 329.8308 693.7536 329.3837 694.8713 325.36 698.3362 324.1305 700.0128 315.8594 707.6132 313.624 708.9545 311.6121 709.0662 309.9355 708.2838 308.4825 707.0543 309.4884 702.0246 304.4587 699.6774 292.7228 697.7773 284.787 702.9188 281.881 703.5894 281.3221 703.0306 280.5397 701.8011 279.422 700.6834 277.4101 700.1245 275.3982 700.4598 272.604 702.0246 270.5921 702.4717 268.692 701.9129 266.233 700.5716 262.0975 697.7773 261.8739 696.9949 262.0975 695.7655 262.2092 694.6477 261.5386 694.2007 259.415 693.9771 258.2972 693.6418 257.5149 693.1947 256.5089 691.7417 254.1617 687.2708 253.6029 686.712 252.8205 686.3767 252.2616 685.8178 251.591 682.2411 250.6968 680.2293 250.4733 678.7762 250.8086 676.429 251.4792 674.976 252.9322 664.4695 253.2675 663.4636 254.1617 662.3459 255.8383 660.6693 256.2854 659.7751 256.6207 658.6574 256.8442 655.0807 257.4031 653.4042 256.6207 650.4981 256.3971 648.7098 256.6207 646.8097 263.9976 634.8502 270.5921 620.9905 270.7039 619.7611 269.6979 618.5316 268.5802 618.0845 267.3507 617.6374 266.3448 617.0785 266.1212 615.6255 266.9036 613.6136 269.8097 610.3723 271.2627 607.6898 275.7336 607.8015 281.881 607.8015 282.9987 607.0191 283.334 594.9479 283.334 592.2653 283.6693 580.3058 284.3399 577.8469 286.24 576.8409 297.7525 575.7232 305.1294 573.376 307.253 573.2642 318.3184 574.382 321.0009 574.1584 326.0306 572.4818 329.8308 570.3582 333.631 568.9052 338.7725 569.1287 356.7677 572.9289 362.9151 572.9289Z" />
  <path class="Tambacounda" d="M930.9362 569.6876L921.3239 571.4759 915.5118 572.9289 911.1527 577.8469 906.7936 580.8647 903.3287 580.8647 902.4345 576.9527 901.4286 573.376 897.0695 571.923 891.2574 570.47 886.4513 567.4521 881.5333 564.9932 877.1743 561.4165 872.3681 558.5105 868.4561 559.9635 868.4561 563.9872 866.1089 566.4462 867.0031 569.464 871.921 575.3879 872.8152 579.4117 870.468 582.4295 866.1089 582.4295 860.7439 581.4235 858.8438 582.4295 857.8378 586.3415 856.3848 588.3534 855.3789 591.3712 853.4788 591.8183 851.5787 590.3652 849.1197 587.3474 845.2077 586.3415 840.8486 587.3474 838.5014 589.3593 837.4955 591.8183 834.1424 592.3771 832.1305 594.8361 831.6834 598.301 829.7833 601.7659 826.8772 603.7778 821.5122 605.2308 817.6002 604.7837 815.253 603.2189 812.7941 601.7659 810.8939 603.2189 807.9879 604.7837 804.523 604.7837 801.1699 605.2308 798.7109 607.2427 798.7109 611.2664 799.7168 615.1784 797.2579 618.1963 793.4576 620.6552 792.0046 623.673 792.0046 626.6909 789.5457 627.138 787.0867 626.132 783.7336 625.6849 782.2805 627.138 781.8334 630.1558 779.3745 631.1617 776.4684 631.1617 775.0154 632.6147 775.0154 634.6266 773.5624 637.0856 770.2092 636.0796 765.8502 633.0618 761.9382 629.1498 759.591 629.1498 756.6849 626.132 753.22 624.679 744.0548 624.679 741.1487 626.132 737.2367 628.1439 733.8836 628.1439 732.4306 629.5969 730.9776 632.0559 728.0715 632.0559 725.1655 629.5969 720.8064 628.1439 716.0002 627.585 713.5413 627.585 708.8469 629.3734 701.5817 631.497 698.3404 630.7146 695.2108 627.0262 694.4284 622.6671 694.7637 617.5256 694.0931 613.3901 690.7399 611.8253 690.7399 610.8194 697.4462 608.3604 695.3226 606.5721 695.6579 604.3366 696.3285 601.9894 695.6579 599.754 694.6519 598.0774 695.3226 596.5127 695.2108 595.6185 694.4284 595.0596 693.3107 594.5008 692.193 593.7184 691.7459 592.7124 691.187 592.1536 690.1811 592.1536 688.9516 592.2653 688.3927 591.5947 688.281 590.1417 687.8339 588.9122 687.1633 587.571 687.0515 585.0002 687.8339 583.5472 689.0634 582.0942 690.7399 579.2999 689.1751 576.6174 687.7221 576.3938 686.0455 577.3998 683.9219 578.2939 677.5509 577.0645 670.8447 577.0645 669.2799 577.9586 667.9386 581.9824 665.815 582.8766 666.9327 579.1881 664.809 578.5175 661.5677 579.4117 659.1087 580.6411 658.2145 581.6471 657.3204 583.659 655.6438 583.9943 653.7437 583.4354 652.7377 582.2059 653.2966 579.2999 650.5023 581.3118 650.3905 590.3652 646.5903 592.1536 646.5903 593.7184 644.5784 593.7184 643.5725 593.4948 642.343 592.6007 641.8959 591.5947 641.5606 590.3652 641.3371 588.9122 640.89 588.018 640.1076 587.571 637.7604 586.6768 636.0838 585.5591 635.525 584.5531 635.3014 583.5472 635.7485 581.7589 635.9721 580.6411 635.8603 579.4117 635.3014 578.5175 634.4073 578.0704 633.5131 577.3998 633.1778 576.6174 633.2895 575.9468 634.7426 573.8231 635.1897 573.0407 635.1897 571.923 634.6308 571.3641 633.7366 571.0288 631.613 571.1406 627.5892 571.923 626.4715 572.0348 625.4656 571.923 624.3479 571.8112 623.3419 571.4759 622.336 570.9171 622.0007 570.1347 622.2242 569.3523 622.6713 568.6816 623.1184 568.1228 623.5655 567.4521 624.0125 566.6697 624.2361 565.7756 624.3479 564.6579 624.2361 563.6519 624.3479 562.7578 624.4596 561.8636 624.9067 561.0812 625.242 560.2988 628.2598 557.3927 628.8187 556.7221 629.154 555.8279 628.9305 555.3809 628.4834 555.0455 626.695 554.5985 624.2361 553.5925 623.3419 553.4807 622.336 553.369 621.4418 553.5925 620.5476 553.9278 619.0946 554.822 618.3122 555.0455 617.3063 554.9338 616.1886 554.0396 615.7415 553.0337 615.7415 552.0277 616.0768 551.2453 616.5239 550.5747 617.1945 549.6805 617.3063 549.457 617.3063 548.8981 617.3063 547.2216 617.9769 545.545 618.0887 544.5391 617.6416 543.8684 616.8592 543.6449 615.0708 543.6449 613.2825 543.4213 612.5001 543.6449 611.8295 544.092 611.3824 544.7626 611.1589 545.6568 610.8235 546.4392 610.1529 546.998 609.2587 547.2216 607.4704 547.4451 605.9056 548.004 603.782 549.0099 603.4466 548.6746 602.5525 547.3333 601.5465 544.092 600.6524 542.6389 597.8581 540.2917 593.9461 538.2799 589.6988 536.8268 586.2339 536.268 584.1102 536.6033 580.7571 538.6152 578.7452 539.3976 577.0686 539.7329 574.1626 539.5094 572.3743 539.5094 569.0211 540.4035 561.4207 544.3155 551.9201 546.4392 548.7905 547.7804 539.6253 553.5925 529.9012 557.0574 527.1069 557.7281 524.0891 557.281 520.0653 555.4926 508.1058 546.7745 506.7646 545.8803 505.088 543.9802 504.0821 541.7448 501.8466 534.3679 500.2818 531.1265 498.0464 528.3322 494.9168 525.7615 487.7635 522.4084 480.9454 521.8495 474.3509 523.7496 464.1798 529.4499 462.1679 530.0088 459.8207 529.2264 453.0026 525.0909 451.8849 523.7496 448.6436 512.796 447.1905 509.6664 445.1787 506.7604 442.3844 504.525 443.055 502.2895 446.0728 497.1481 448.0847 494.3538 450.3201 491.8948 451.9967 491.2242 454.0086 490.8889 456.1322 490.7771 457.0264 490.6653 458.703 489.8829 466.3034 487.9828 467.0858 487.5358 470.9978 484.4062 480.6101 475.0174 481.169 474.235 481.5043 473.0055 481.8396 470.9936 481.6161 467.9758 482.2867 464.958 482.5102 464.6227 483.1809 464.2873 484.7457 463.7285 486.3105 462.9461 486.9811 462.0519 487.6517 460.7107 489.1047 453.6691 489.1047 450.8748 488.7694 447.5217 487.3164 439.9212 486.534 427.0675 485.6398 424.0497 483.6279 420.9201 479.8277 409.8548 479.9395 377.7765 500.3936 372.7468 508.3294 367.0464 513.2473 361.2343 516.2651 358.5518 518.7241 357.3223 525.5421 355.0869 532.6955 361.905 534.1485 365.0345 537.1663 367.3817 539.9606 368.9465 611.7177 396.3305 619.877 397.56 665.0326 396.8893 666.8209 395.9952 710.1881 364.6992 711.5294 364.0286 713.3177 363.4697 757.8026 371.7408 764.956 371.629 789.7692 368.3877 791.7811 367.3817 793.793 365.1463 807.3173 344.4686 819.9474 312.3903 820.171 310.9373 820.2827 309.596 819.5003 305.684 818.2708 302.8898 800.9463 279.7531 800.611 278.5237 802.2876 278.3001 807.5408 276.6235 810.1116 276.2882 811.5646 276.8471 812.9058 278.0766 815.0295 280.8708 824.0829 286.2359 826.989 288.4713 828.7773 289.4772 832.5776 290.3714 834.3659 291.3773 835.8189 292.9421 836.6013 294.6187 840.4015 308.2548 840.5133 310.0431 842.7487 311.4961 848.3373 318.0906 851.2433 320.5496 861.6381 325.4675 870.8033 332.7327 872.0328 337.6506 875.3859 340.6684 876.3919 343.0156 877.6213 344.9157 879.9685 346.0334 880.1921 346.257 880.9745 346.5923 881.4216 346.7041 882.3157 346.8158 884.2158 346.8158 884.5512 346.9276 883.7688 348.716 882.9864 349.9454 882.651 351.1749 883.0981 352.9633 884.2158 353.9692 885.8924 354.4163 887.1219 355.4222 887.0101 358.2165 886.116 359.7813 882.8746 362.9109 881.6451 364.6992 881.3098 366.3758 881.198 368.4994 880.6392 370.3996 880.4156 370.6231 879.8568 370.7349 879.4097 370.8466 879.1861 371.2937 879.0744 371.4055 878.9626 371.7408 876.3919 373.3056 875.3859 376.3234 875.7212 379.7883 877.7331 387.277 878.0684 390.7419 877.8449 398.1188 879.9685 398.5659 895.2812 404.2662 896.3989 406.5017 895.7283 408.6253 893.2693 409.5195 894.6106 411.8667 896.2871 413.9903 898.299 415.6669 904.7817 418.1259 907.1289 419.6906 908.6937 422.1496 914.7294 436.4563 915.1765 440.2565 913.947 447.0746 910.2585 460.1518 910.2585 467.1934 911.8233 471.6642 914.5058 474.3468 917.6354 476.6939 920.5415 480.1589 921.5474 483.4002 921.4356 486.8651 920.5415 493.6832 917.859 501.2836 912.3822 506.9839 898.299 514.9197 900.5344 516.9316 902.7699 520.2847 906.123 526.8792 908.2466 533.0266 911.9351 538.727 914.9529 542.1919 924.4535 549.1217 925.4594 550.3512 926.9124 552.8101 927.9184 553.9278 929.5949 554.822 931.1597 555.0455 932.501 555.6044 933.6187 557.5045 933.2834 560.5223 930.9362 569.6876Z" />
  <path class="Thiès" d="M166.7567 365.8169L165.5272 370.9584 164.2977 374.5351 163.5153 375.9881 159.1562 381.6884 156.4737 384.5945 155.0207 385.4887 153.2323 386.0475 152.4499 386.3828 151.2205 387.3888 149.5439 389.4007 148.985 390.0713 148.3144 390.5184 147.532 390.9655 146.5261 391.189 141.1611 391.5243 140.2669 391.7479 139.708 392.0832 131.437 416.114 129.0898 425.9498 129.6486 426.6205 130.2075 427.1793 130.8781 427.7382 131.437 428.4088 131.437 429.4147 130.6546 430.756 126.4073 434.3327 125.9602 435.1151 125.9602 436.5681 126.519 437.3505 127.0779 438.1329 127.4132 438.8035 127.3014 439.6977 126.519 440.5919 121.8246 442.0449 120.5952 443.4979 120.4834 443.4979 118.9186 440.3683 117.4656 438.4682 115.3419 437.4623 111.0946 436.5681 109.418 435.0033 108.5239 432.5443 107.1826 423.3791 106.0649 420.473 104.7237 418.3494 101.5941 415.108 100.141 414.3256 99.1351 414.1021 98.3527 413.4315 98.1292 411.196 98.3527 409.4077 99.1351 406.0546 99.3586 404.1545 98.5762 401.3602 96.5644 398.3424 91.4229 393.0891 79.5751 387.5006 77.7868 385.4887 76.7809 383.2532 70.9688 374.4233 66.6097 362.6873 64.9331 360.3402 64.9331 360.2284 68.0627 336.8682 67.8392 335.3034 67.2803 333.7386 64.7096 329.3795 64.1507 327.8147 64.0389 323.791 63.9272 322.8968 63.033 319.7672 59.5681 312.1668 59.3446 311.8315 60.9094 311.2726 66.4979 306.5782 92.7641 275.1705 98.0174 267.3465 109.5298 254.4928 132.4429 213.4728 133.1135 212.6904 133.8959 213.1375 138.8139 217.1613 139.5963 218.3908 140.3787 220.4026 140.4904 221.2968 140.4904 222.4145 139.708 225.7677 136.6902 231.6915 135.5725 235.7153 134.6783 242.8686 135.1254 246.11 136.1314 248.0101 137.4726 248.3454 139.3727 249.2396 140.3787 249.9102 140.9375 250.5809 141.4964 251.3633 142.5023 253.4869 144.5142 256.2812 145.073 256.84 145.7437 257.3989 147.1967 258.2931 149.7674 259.5226 150.7734 260.1932 151.8911 261.5344 152.3382 262.4286 152.5617 263.3228 152.4499 264.1052 152.2264 264.7758 151.7793 265.4464 151.5558 266.0053 151.3322 266.7877 151.5558 269.4702 152.3382 271.035 153.0088 271.9292 153.903 272.3762 154.6854 272.488 155.5795 272.3762 156.2502 271.9292 156.809 271.3703 159.0444 268.9113 159.8268 267.4583 167.3155 259.5226 168.2097 258.1813 168.7685 256.5047 169.3274 254.6046 170.2216 252.0339 172.7923 248.6807 173.91 247.4513 175.8101 244.657 177.3749 242.7569 178.7162 240.6332 179.275 240.0744 179.9457 239.5155 180.6163 238.9567 181.734 238.7331 182.9635 238.7331 190.6757 240.745 192.6876 240.5215 195.1465 239.8508 196.1525 239.8508 197.7173 239.9626 198.6114 240.4097 199.2821 241.0803 199.6174 241.7509 199.8409 242.6451 200.8469 250.8044 201.2939 253.0398 201.9646 254.0458 202.6352 254.3811 203.4176 254.2693 204.0882 253.934 205.5413 252.8163 206.4354 252.481 207.1061 252.8163 207.6649 253.4869 209.1179 256.7283 209.565 257.3989 210.1239 258.5166 210.9063 260.305 211.3534 262.6521 210.9063 267.0112 210.7945 267.6818 210.6827 269.1349 210.9063 270.5879 211.2416 272.2645 212.8064 276.5118 213.7006 277.9648 218.5067 283.7769 219.4009 285.2299 219.848 286.1241 220.0715 287.0183 220.6304 290.0361 221.0774 291.2656 221.5245 292.495 222.6422 294.2834 223.5364 295.1776 224.4306 295.8482 225.213 296.2953 228.9014 297.6365 232.5899 299.5366 231.9193 301.7721 230.4662 302.6662 222.6422 306.9135 220.7421 307.3606 218.5067 307.5842 217.0537 307.3606 216.0477 307.0253 215.1536 306.5782 214.4829 306.1311 214.0359 305.4605 213.7006 304.5663 213.477 303.6722 213.477 302.6662 213.1417 301.7721 212.5828 300.9897 211.4651 300.319 208.7826 299.3131 208.0002 298.866 202.5234 294.2834 201.6293 294.0598 201.0704 294.0598 200.7351 294.1716 200.6233 294.2834 200.3998 294.3952 199.7292 294.7305 198.3879 294.954 196.0407 295.2893 194.5877 295.2893 193.3582 295.0658 191.9052 294.5069 190.0051 293.3892 189.558 292.9421 189.1109 292.6068 188.4403 292.2715 148.7615 303.7839 145.6319 305.4605 144.0671 307.9195 143.0612 310.602 142.3905 314.4022 142.5023 315.1846 142.8376 315.7435 143.7318 316.6376 144.4024 316.9729 145.9672 317.42 146.7496 317.7553 147.4202 318.2024 147.8673 318.873 148.2026 319.7672 148.3144 320.8849 148.3144 325.1322 147.8673 326.9206 147.7556 327.9265 148.0909 329.9384 148.3144 330.8326 148.6497 331.7267 149.3204 332.2856 150.8851 332.9562 151.5558 333.4033 152.2264 333.9622 152.7853 334.521 153.2323 335.1916 153.3441 335.974 153.2323 336.7564 152.6735 338.5448 152.4499 339.9978 152.3382 341.4508 152.6735 342.2332 153.1206 342.7921 153.7912 343.3509 155.356 344.0216 156.0266 344.5804 156.5855 345.1393 157.0326 345.9217 157.2561 346.9276 157.4796 347.9336 157.0326 349.3866 156.1384 351.0631 153.6794 353.7457 152.5617 355.3105 151.8911 356.4282 151.8911 357.4341 152.0029 358.44 152.4499 359.2224 153.0088 359.7813 154.9089 361.0108 163.2917 364.811 166.7567 365.8169Z" />
  <path class="Ziguinchor" d="M260.3091 701.6893L260.1974 702.6953 260.6444 707.1661 263.1034 712.1958 266.0095 716.5549 267.686 720.1316 272.8275 727.732 273.4981 728.738 271.9333 728.6262 258.8561 729.6321 255.6147 728.9615 245.3318 725.4966 239.4079 725.0495 227.0013 727.1732 225.8836 727.732 225.213 728.2909 224.4306 728.5144 222.9776 728.2909 219.5127 726.9496 217.7243 726.6143 215.936 726.9496 204.5353 733.097 191.3463 740.3622 186.3166 742.374 178.0455 742.374 169.4392 744.6095 166.4213 744.7212 144.0671 743.1564 137.9197 744.7212 134.2312 747.292 133.1135 745.1683 132.3311 742.9329 131.6605 739.468 130.5428 738.3503 128.0838 736.5619 124.2836 732.8735 122.607 730.6381 121.9364 728.5144 121.9364 721.4728 122.2717 719.908 123.8365 718.455 124.2836 716.8902 125.5131 715.1019 133.6724 710.1839 137.2491 710.0722 142.3905 710.5193 147.8673 707.0543 149.6557 705.6013 150.6616 704.1483 151.3322 702.807 152.4499 701.1305 158.7091 696.5479 161.727 700.1245 164.0741 706.4955 166.4213 707.9485 166.5331 705.266 168.2097 703.2541 171.1157 702.4717 174.3571 703.1424 179.8339 706.2719 184.8636 707.725 190.3404 710.2957 193.1347 710.5193 196.376 708.9545 200.3998 704.0365 203.3058 702.4717 207.1061 702.5835 210.4592 703.813 213.7006 704.1483 217.5008 701.8011 219.4009 701.0187 220.6304 702.4717 221.6363 704.5954 222.5305 705.8249 235.3842 701.0187 238.402 700.3481 242.314 700.1245 244.8847 699.3421 247.0084 697.7773 249.4673 696.5479 253.044 696.6596 255.9501 698.2244 260.3091 701.6893ZM271.2627 607.6898L269.8097 610.3723 266.9036 613.6136 266.1212 615.6255 266.3448 617.0785 267.3507 617.6374 268.5802 618.0845 269.6979 618.5316 270.7039 619.7611 270.5921 620.9905 263.9976 634.8502 256.6207 646.8097 256.3971 648.7098 256.6207 650.4981 257.4031 653.4042 256.8442 655.0807 256.6207 658.6574 256.2854 659.7751 255.8383 660.6693 254.1617 662.3459 253.2675 663.4636 252.9322 664.4695 251.4792 674.976 250.8086 676.429 250.4733 678.7762 250.6968 680.2293 249.6909 680.2293 249.6909 681.5705 249.4673 682.2411 247.679 685.7061 246.8966 686.8238 246.3377 692.5241 241.7551 695.5419 234.9371 696.6596 233.2605 697.442 229.7956 699.6774 228.7897 700.1245 227.1131 699.901 223.0893 698.895 216.8301 698.895 214.93 699.3421 211.8004 700.6834 210.1239 701.1305 208.112 701.1305 202.747 700.1245 200.9586 700.4598 198.6114 702.0246 197.1584 702.4717 196.5996 703.2541 195.8172 705.0425 194.6994 706.9426 193.1347 708.0603 186.4284 705.8249 180.9516 702.6953 178.3809 700.5716 177.2631 698.3362 176.7043 697.8891 175.1395 697.442 173.5747 696.6596 172.7923 695.5419 173.1276 693.8653 174.1336 692.3006 175.5866 691.2946 177.2631 690.8475 177.2631 689.618 174.8042 689.5063 173.1276 688.2768 172.2334 686.2649 171.6746 683.8059 170.5569 697.7773 169.3274 697.7773 167.092 694.8713 161.0563 689.618 160.2739 686.2649 158.3738 687.8297 157.1443 689.7298 155.5795 691.2946 153.0088 691.9652 150.9969 691.5182 149.6557 690.4004 148.985 688.6121 149.0968 686.2649 151.444 681.7941 154.7971 678.5527 156.9208 674.6407 155.9149 668.7168 155.1325 673.2994 154.7971 674.6407 153.903 676.0937 153.1206 676.7644 152.3382 677.3232 149.0968 680.341 147.6438 682.1294 146.9732 684.253 146.7496 687.8297 147.9791 693.8653 147.6438 696.6596 142.6141 698.7833 135.4607 704.8189 129.8722 706.8308 126.8543 704.9307 125.5131 700.5716 125.2895 694.8713 126.1837 688.8356 128.7545 682.9118 133.0018 679.5586 138.8139 681.5705 139.0374 678.9998 136.6902 677.2114 133.3371 676.5408 130.431 677.5468 126.9661 681.6823 125.066 683.0235 123.0541 682.5765 123.9483 681.2352 124.2836 679.7822 123.9483 678.3292 123.0541 676.8761 126.6308 671.8464 127.3014 669.3875 126.519 666.3696 125.2895 666.3696 124.5072 668.2697 123.3894 669.0521 122.3835 668.4933 121.9364 665.9226 122.2717 663.9107 123.2777 661.6752 129.2015 652.8453 129.7604 650.7217 129.6486 648.598 128.8662 644.5743 128.6427 642.6741 128.978 639.0975 130.6546 632.0559 130.9899 627.585 130.7663 624.7908 130.0957 623.4495 130.3193 619.5375 130.8781 617.6374 131.884 616.1844 134.5666 613.6136 135.0136 612.0488 137.4726 607.9133 143.2847 606.5721 150.4381 606.6838 177.5985 606.9074 202.747 607.1309 239.1844 607.4662 260.7562 607.6898 271.2627 607.6898Z" />
</svg>