<?xml version="1.0" encoding="utf-8"?>
<svg xmlns="http://www.w3.org/2000/svg" viewBox="0 0 772 1024" style="stroke-width:0.25px;stroke-linejoin:round;stroke:#444;fill:#ddd" fill-rule="evenodd">
  <path class="Christ Church" d="M183.2001 905.9934L287.7062 850.4431 289.1592 850.2196 288.7121 845.5252 283.6824 822.6121 477.0465 749.1784 508.566 759.0143 513.5957 763.9322 519.296 773.321 524.7728 810.9879 525.7788 813.6704 545.5623 847.7606 549.8096 857.3729 549.6978 858.826 552.9392 861.2849 558.6395 863.0733 577.8641 870.5619 586.4705 874.921 602.9009 897.8341 563.3339 925.218 491.3532 998.7635 464.8635 1002.0048 443.4034 1001.7813 422.5022 1005.358 399.4773 1020 366.2813 962.8849 303.913 927.1182 228.2439 909.2348 183.2001 905.9934Z" />
  <path class="Saint Andrew" d="M366.7284 352.9496L358.7926 354.8497 316.2078 375.0803 306.0366 377.7628 301.9011 375.7509 300.8952 374.8568 299.7774 373.0684 298.8833 372.3978 297.9891 371.8389 296.7596 371.7272 295.4184 371.8389 293.5183 372.3978 282.9 389.387 248.1392 470.6447 232.7147 450.3023 220.7552 445.8315 180.6294 448.0669 163.6402 358.9853 165.652 242.0726 170.1229 233.1309 173.3642 218.0418 175.3761 217.3712 176.4938 216.5888 177.388 216.2535 178.2822 216.5888 179.3999 217.0359 180.4058 218.0418 182.5295 219.1595 184.8767 220.0537 187.671 220.9479 189.2358 220.9479 191.0241 220.389 192.4771 220.0537 194.0419 219.8301 196.6127 220.2772 197.6186 220.2772 198.7363 220.0537 199.5187 219.8301 200.7482 220.2772 202.7601 221.6185 207.7898 221.1714 215.7255 217.93 230.144 203.9586 237.8562 199.4878 242.6624 198.0348 244.3389 198.9289 246.1273 199.4878 247.3568 199.5996 248.4745 200.4937 250.0393 200.7173 252.0512 200.4937 257.6397 195.464 258.3103 195.464 258.6457 195.9111 263.34 196.9171 282.9 196.2464 288.7121 194.1228 353.3158 334.3956 366.7284 352.9496Z" />
  <path class="Saint George" d="M338.2267 573.8095L383.3823 565.5384 385.6177 565.3149 456.3689 630.8128 463.0751 638.4132 491.9121 692.6222 477.0465 749.1784 283.6824 822.6121 227.5733 638.7485 307.0426 607.229 313.8606 603.0935 338.2267 573.8095Z" />
  <path class="Saint James" d="M163.6402 358.9853L180.6294 448.0669 162.4107 472.6565 157.381 477.4627 156.8221 477.1274 156.1515 476.9039 155.8162 477.1274 155.1455 477.798 154.2514 478.5804 153.6925 478.6922 152.6866 478.5804 152.1277 478.5804 151.3453 478.3569 150.1158 478.3569 149.3334 478.5804 148.551 479.0275 146.2039 480.4805 145.7568 480.8158 144.6391 481.3747 144.0802 481.5982 143.5213 481.5982 139.8329 484.8396 138.7152 485.5102 137.9328 485.8455 137.2622 485.8455 136.7033 486.2926 135.4738 486.2926 134.6914 486.2926 134.1326 486.4044 132.5678 487.5221 126.3086 489.8693 124.2967 495.905 115.355 534.9131 110.6606 546.4255 107.1957 553.1318 103.7308 554.2495 102.5013 555.1437 101.6072 556.3732 100.3777 559.6145 99.707 561.4029 98.8129 562.0735 100.3777 563.8618 104.7367 566.4326 127.091 591.8046 146.6509 676.9743 110.8842 704.9171 107.8663 708.1584 101.8307 712.8528 85.1768 720.1179 78.247 724.2535 78.1352 724.9241 73.8879 722.4651 56.6751 706.1465 47.1746 706.9289 28.7323 641.9899 12.7491 370.1624 33.9856 375.7509 90.5418 349.1494 163.6402 358.9853Z" />
  <path class="Saint John" d="M385.6177 565.3149L388.8591 511.1058 389.6415 506.2997 391.2063 499.8169 394.2241 499.8169 395.5653 499.7052 397.1301 499.2581 452.4569 447.6198 460.3926 444.0431 548.9154 511.8882 599.8831 541.5076 630.2848 551.3435 625.1433 559.6145 588.1471 604.7701 583.788 609.0174 561.0985 623.3241 536.9559 633.0482 491.9121 692.6222 463.0751 638.4132 456.3689 630.8128 385.6177 565.3149Z" />
  <path class="Saint Joseph" d="M366.7284 352.9496L397.8008 395.9815 460.3926 444.0431 452.4569 447.6198 397.1301 499.2581 395.5653 499.7052 394.2241 499.8169 391.2063 499.8169 389.6415 506.2997 388.8591 511.1058 385.6177 565.3149 383.3823 565.5384 338.2267 573.8095 309.5015 515.8002 300.4481 504.8466 295.7537 500.5993 248.1392 470.6447 282.9 389.387 293.5183 372.3978 295.4184 371.8389 296.7596 371.7272 297.9891 371.8389 298.8833 372.3978 299.7774 373.0684 300.8952 374.8568 301.9011 375.7509 306.0366 377.7628 316.2078 375.0803 358.7926 354.8497 366.7284 352.9496Z" />
  <path class="Saint Lucy" d="M265.2402 143.1551L262.2223 145.0552 81.2648 204.0704 18.8965 245.9846 5.5957 248.8906 1.2366 175.2334 8.0547 121.5833 31.8619 76.0924 79.8118 26.8013 140.7271 4 202.6483 37.7549 249.0333 108.059 265.2402 143.1551Z" />
  <path class="Saint Michael" d="M47.1746 706.9289L56.6751 706.1465 73.8879 722.4651 78.1352 724.9241 78.247 724.2535 85.1768 720.1179 101.8307 712.8528 107.8663 708.1584 110.8842 704.9171 146.6509 676.9743 200.7482 665.9089 205.4426 663.7853 227.5733 638.7485 283.6824 822.6121 288.7121 845.5252 289.1592 850.2196 287.7062 850.4431 183.2001 905.9934 156.5986 904.0933 111.3312 871.9032 72.3231 795.8988 47.1746 706.9289Z" />
  <path class="Saint Peter" d="M288.7121 194.1228L282.9 196.2464 263.34 196.9171 258.6457 195.9111 258.3103 195.464 257.6397 195.464 252.0512 200.4937 250.0393 200.7173 248.4745 200.4937 247.3568 199.5996 246.1273 199.4878 244.3389 198.9289 242.6624 198.0348 237.8562 199.4878 230.144 203.9586 215.7255 217.93 207.7898 221.1714 202.7601 221.6185 200.7482 220.2772 199.5187 219.8301 198.7363 220.0537 197.6186 220.2772 196.6127 220.2772 194.0419 219.8301 192.4771 220.0537 191.0241 220.389 189.2358 220.9479 187.671 220.9479 184.8767 220.0537 182.5295 219.1595 180.4058 218.0418 179.3999 217.0359 178.2822 216.5888 177.388 216.2535 176.4938 216.5888 175.3761 217.3712 173.3642 218.0418 170.1229 233.1309 165.652 242.0726 163.6402 358.9853 90.5418 349.1494 33.9856 375.7509 12.7491 370.1624 5.5957 248.8906 18.8965 245.9846 81.2648 204.0704 262.2223 145.0552 265.2402 143.1551 288.7121 194.1228Z" />
  <path class="Saint Philip" d="M602.9009 897.8341L586.4705 874.921 577.8641 870.5619 558.6395 863.0733 552.9392 861.2849 549.6978 858.826 549.8096 857.3729 545.5623 847.7606 525.7788 813.6704 524.7728 810.9879 519.296 773.321 513.5957 763.9322 508.566 759.0143 477.0465 749.1784 491.9121 692.6222 536.9559 633.0482 561.0985 623.3241 583.788 609.0174 588.1471 604.7701 625.1433 559.6145 630.2848 551.3435 665.9398 563.0794 728.1964 591.8046 767.7634 641.9899 757.1451 761.2497 670.5224 850.8902 602.9009 897.8341Z" />
  <path class="Saint Thomas" d="M248.1392 470.6447L295.7537 500.5993 300.4481 504.8466 309.5015 515.8002 338.2267 573.8095 313.8606 603.0935 307.0426 607.229 227.5733 638.7485 205.4426 663.7853 200.7482 665.9089 146.6509 676.9743 127.091 591.8046 104.7367 566.4326 100.3777 563.8618 98.8129 562.0735 99.707 561.4029 100.3777 559.6145 101.6072 556.3732 102.5013 555.1437 103.7308 554.2495 107.1957 553.1318 110.6606 546.4255 115.355 534.9131 124.2967 495.905 126.3086 489.8693 132.5678 487.5221 134.1326 486.4044 134.6914 486.2926 135.4738 486.2926 136.7033 486.2926 137.2622 485.8455 137.9328 485.8455 138.7152 485.5102 139.8329 484.8396 143.5213 481.5982 144.0802 481.5982 144.6391 481.3747 145.7568 480.8158 146.2039 480.4805 148.551 479.0275 149.3334 478.5804 150.1158 478.3569 151.3453 478.3569 152.1277 478.5804 152.6866 478.5804 153.6925 478.6922 154.2514 478.5804 155.1455 477.798 155.8162 477.1274 156.1515 476.9039 156.8221 477.1274 157.381 477.4627 162.4107 472.6565 180.6294 448.0669 220.7552 445.8315 232.7147 450.3023 248.1392 470.6447Z" />
</svg>