<?xml version="1.0" encoding="utf-8"?>
<svg xmlns="http://www.w3.org/2000/svg" viewBox="0 0 845 1024" style="stroke-width:0.25px;stroke-linejoin:round;stroke:#444;fill:#ddd" fill-rule="evenodd">
  <path class="Archipel des Crozet" d="M270.2207 909.123L270.4442 909.3465 270.556 909.5701 270.8913 910.1289 269.8854 911.4702 269.2147 911.3584 268.7677 911.2466 268.5441 911.4702 267.8735 911.3584 267.3146 911.0231 266.8675 910.576 266.5322 910.0172 266.1969 909.123 266.4205 908.6759 267.9853 907.5582 268.5441 907.5582 268.8794 908.0053 269.103 908.7877 269.2147 909.0112 269.6618 909.0112 270.2207 909.123ZM233.448 899.0636L233.6715 898.84 235.4598 898.393 235.7952 898.84 236.0187 899.5107 236.1305 900.0695 236.0187 900.7402 235.6834 901.0755 235.3481 901.0755 234.4539 900.7402 234.0068 900.6284 233.6715 900.2931 233.448 899.846 233.448 899.0636Z" />
  <path class="Archipel des Kerguelen" d="M671.591 1013.9644L671.1439 1013.8526 670.9204 1013.7408 670.6968 1013.4055 670.3615 1013.182 670.0262 1013.0702 669.3556 1012.9584 669.132 1012.7349 669.132 1012.5113 670.138 1012.176 671.0321 1012.3996 672.1498 1013.629 672.9322 1014.1879 673.1558 1014.635 672.9322 1015.0821 672.5969 1014.9703 671.591 1013.9644ZM646.1072 1007.1463L645.8836 1007.5934 645.5483 1007.8169 645.213 1007.8169 644.8777 1007.5934 643.76 1007.5934 643.2011 1007.4816 642.754 1007.1463 643.2011 1006.4757 643.4246 1006.2521 643.76 1006.1404 644.207 1006.2521 644.8777 1006.5875 645.3248 1006.6992 645.9954 1006.4757 646.1072 1006.5875 646.1072 1007.1463ZM663.6552 1002.2284L663.3199 1002.4519 662.9846 1002.4519 662.7611 1002.3402 662.4257 1002.0048 664.8847 1000.6636 665.6671 1000.6636 665.6671 1000.8871 665.1083 1001.2224 664.8847 1002.0048 664.4376 1002.5637 663.6552 1002.2284ZM654.8253 995.075L655.0488 994.6279 655.2724 994.4044 655.4959 994.2926 655.7195 993.9573 656.5019 992.8396 656.949 992.2807 657.5078 991.8337 658.1784 991.6101 658.8491 991.6101 658.6255 992.2807 657.8431 992.9514 657.6196 993.3985 659.4079 993.0631 659.7432 993.0631 659.6315 993.622 659.4079 994.0691 659.0726 994.5162 658.8491 994.8515 658.0667 995.4103 657.7314 995.8574 657.8431 996.3045 658.0667 996.9751 657.7314 997.3105 657.2843 997.534 657.5078 997.8693 655.4959 998.6517 655.1606 998.4282 655.1606 996.6398 655.1606 996.1927 654.9371 995.2986 654.8253 995.075ZM655.6077 990.716L655.7195 991.3866 655.943 991.3866 656.0548 991.4983 656.0548 991.8337 655.8312 991.9454 655.7195 992.0572 655.4959 992.2807 655.2724 992.7278 654.9371 993.7338 654.6018 994.4044 654.2664 994.7397 654.0429 994.9633 653.8194 994.8515 653.7076 994.5162 653.7076 994.4044 653.9311 993.2867 653.9311 993.1749 654.2664 992.3925 654.6018 991.4983 655.1606 990.8277 655.6077 990.716ZM660.9727 991.6101L660.5256 991.2748 660.0785 990.9395 659.7432 990.3806 659.6315 989.71 660.3021 989.71 661.4198 990.6042 662.0904 990.716 661.9787 991.163 661.6433 991.3866 661.308 991.4983 660.9727 991.6101ZM684.8917 1001.6695L685.3388 1002.899 685.1153 1004.5756 684.4447 1005.9168 683.1034 1007.5934 681.4268 1007.3699 680.7562 1006.9228 680.1974 1007.3699 680.0856 1008.0405 679.6385 1008.3758 681.5386 1009.1582 683.1034 1010.3877 681.0915 1010.0524 679.1914 1010.3877 678.1855 1007.7052 675.8383 1007.0345 675.0559 1007.2581 674.1617 1007.5934 673.1558 1007.7052 672.1498 1007.4816 670.4733 1007.0345 668.7967 1007.3699 670.0262 1007.9287 671.1439 1008.7111 670.8086 1008.9347 670.585 1009.0464 671.0321 1009.6053 671.591 1010.1641 671.0321 1010.3877 670.585 1010.4994 669.9144 1009.8288 669.2438 1008.9347 668.6849 1008.8229 668.2378 1009.1582 668.2378 1009.8288 668.6849 1010.8348 667.3437 1009.8288 666.0024 1009.1582 666.4495 1010.0524 667.1201 1010.4994 667.5672 1010.9465 667.7908 1011.5054 668.1261 1011.7289 668.3496 1012.0642 668.4614 1012.8466 668.6849 1013.629 670.3615 1014.5232 672.2616 1014.8585 674.0499 1015.7527 675.8383 1016.5351 674.2735 1014.9703 673.8264 1013.182 674.8323 1012.8466 675.8383 1012.6231 676.7325 1012.9584 677.6266 1013.4055 679.3032 1013.5173 679.9738 1014.9703 678.5208 1016.4233 676.3971 1016.5351 677.8502 1016.8704 678.8561 1017.7646 678.1855 1018.7705 677.0678 1018.7705 676.1736 1019.1058 675.503 1019.7765 674.2735 1019.7765 673.044 1019.2176 671.2557 1019.3294 669.5791 1018.547 668.7967 1017.3175 668.1261 1015.9762 668.0143 1014.5232 667.9025 1013.182 667.0084 1012.3996 666.0024 1012.5113 666.3377 1012.9584 666.226 1013.629 665.5553 1012.8466 664.7729 1012.6231 665.5553 1013.9644 666.4495 1015.3056 666.4495 1017.2057 665.3318 1018.0999 664.5494 1017.8763 663.767 1017.4293 662.4257 1017.3175 661.0845 1016.9822 659.855 1015.9762 658.8491 1014.7468 657.8431 1014.635 656.8372 1014.635 656.3901 1013.182 655.6077 1012.0642 655.1606 1012.2878 655.2724 1013.0702 655.1606 1013.182 655.0488 1013.182 655.4959 1014.0761 655.7195 1014.9703 654.7135 1014.4114 653.8194 1012.9584 654.0429 1013.8526 654.3782 1014.8585 654.6018 1015.3056 654.0429 1015.8645 653.9311 1016.7586 653.1487 1015.9762 652.9252 1014.5232 652.4781 1013.8526 652.2546 1015.3056 652.9252 1017.4293 652.1428 1018.9941 651.1369 1019.6647 650.2427 1020 650.0191 1019.8882 649.7956 1019.7765 649.4603 1019.7765 649.0132 1019.8882 647.8955 1019.8882 646.8895 1019.8882 645.9954 1019.6647 645.4365 1018.4352 645.4365 1017.6528 645.6601 1016.9822 645.6601 1015.6409 646.1072 1014.635 646.666 1013.629 647.1131 1012.7349 646.666 1011.9525 647.6719 1011.1701 648.4543 1010.1641 647.8955 1008.9347 647.6719 1007.9287 647.2249 1007.8169 646.3307 1007.9287 647.4484 1006.5875 648.9014 1006.4757 648.9014 1005.8051 648.9014 1005.2462 648.2308 1005.5815 647.0013 1005.8051 646.5542 1005.0227 646.8895 1004.9109 647.3366 1004.7991 645.9954 1003.905 645.6601 1002.4519 645.4365 1001.8931 645.5483 1001.446 645.8836 1001.8931 646.3307 1002.4519 647.4484 1001.3342 649.125 1000.44 647.3366 1000.5518 646.2189 999.8812 646.666 999.4341 647.3366 999.2106 646.4425 999.2106 645.5483 999.2106 645.6601 998.7635 645.7718 998.3164 645.1012 998.0928 645.213 997.0869 646.1072 996.8634 646.7778 997.3105 646.4425 996.081 646.4425 994.2926 647.5602 994.2926 648.4543 994.6279 647.8955 993.622 647.3366 992.7278 646.666 991.7219 646.1072 990.9395 645.9954 990.2689 646.5542 990.0453 647.4484 989.4865 648.3426 989.4865 648.3426 988.8158 648.4543 988.1452 649.125 987.5864 649.125 986.5804 648.9014 986.1333 649.2367 985.3509 649.6838 984.4568 650.9133 983.8979 652.2546 984.0097 651.9193 984.4568 652.4781 985.1274 652.2546 985.798 653.1487 986.2451 650.2427 988.7041 648.5661 991.9454 648.9014 991.6101 649.2367 991.2748 649.7956 991.0513 650.3545 991.3866 650.0191 990.1571 650.8015 989.8218 651.0251 990.716 652.2546 988.4805 653.9311 987.251 654.49 987.251 654.8253 987.8099 654.0429 988.4805 653.037 989.0394 653.5958 989.8218 654.2664 989.0394 654.2664 990.2689 653.484 991.4983 652.3663 992.2807 651.8075 993.7338 652.4781 993.1749 653.037 992.7278 652.4781 994.6279 651.1369 995.8574 650.8015 997.0869 650.578 998.5399 651.3604 998.8752 652.1428 999.2106 651.9193 996.8634 652.9252 995.2986 653.8194 995.7457 654.3782 996.9751 654.49 998.2046 654.6018 999.2106 655.3842 999.5459 656.0548 999.2106 658.402 998.2046 660.3021 995.9692 660.6374 996.5281 660.7492 997.0869 660.5256 997.8693 660.3021 998.2046 660.6374 998.5399 661.0845 998.2046 662.2022 995.2986 663.6552 993.8455 663.6552 994.8515 663.8788 995.7457 664.3259 995.9692 663.5435 996.4163 663.2081 997.0869 664.3259 997.0869 665.22 997.6458 664.5494 998.0928 663.5435 998.5399 664.8847 998.8752 664.8847 999.6576 663.6552 999.993 662.4257 1000.2165 661.8669 999.8812 661.4198 999.6576 659.5197 999.3223 658.1784 1000.5518 657.5078 1001.1107 656.8372 1001.7813 657.1725 1002.1166 657.8431 1001.7813 658.402 1001.2224 659.9668 1000.1047 661.0845 1000.6636 660.0785 1001.2224 659.0726 1001.6695 660.5256 1002.1166 660.3021 1002.7872 661.0845 1002.899 661.6433 1003.5696 662.4257 1003.5696 662.4257 1003.7932 662.4257 1003.905 661.0845 1004.1285 659.7432 1004.7991 661.6433 1004.6873 663.5435 1004.4638 665.22 1004.1285 666.673 1003.905 665.3318 1005.1344 663.5435 1005.6933 664.9965 1005.9168 666.4495 1005.9168 667.2319 1005.0227 668.1261 1004.1285 668.1261 1004.6873 668.3496 1005.2462 669.0202 1004.2403 669.6909 1003.6814 669.5791 1003.0108 669.5791 1002.5637 670.0262 1002.4519 670.4733 1002.4519 670.4733 1001.8931 670.9204 1001.5578 671.4792 1001.446 671.8145 1000.8871 672.5969 1000.44 673.4911 1000.1047 674.8323 999.5459 676.1736 1000.2165 676.0618 1000.5518 675.9501 1000.8871 677.0678 1000.7754 677.9619 999.993 678.8561 998.0928 680.1974 997.3105 681.8739 997.4222 683.327 997.9811 684.3329 998.7635 684.4447 1000.44 684.8917 1001.6695ZM643.3129 982.892L643.5364 983.2273 643.3129 983.5626 642.754 983.6744 642.3069 983.5626 641.9716 983.3391 642.3069 983.0037 642.8658 982.892 643.3129 982.892ZM646.3307 982.1096L645.9954 982.5567 645.7718 982.2213 645.7718 981.5507 646.1072 980.9919 646.5542 980.8801 646.8895 981.3272 646.7778 981.7743 646.3307 982.1096Z" />
  <path class="Iles Eparses de l'ocean Indien" d="M68.9208 130.4132L68.2502 130.0779 68.5855 129.9661 69.0326 130.0779 68.9208 130.4132ZM16.2766 254.0321L16.2766 253.8086 16.3883 253.8086 16.3883 254.3674 16.053 254.9263 15.6059 254.9263 15.3824 254.8145 15.2706 254.591 15.1589 254.1439 15.3824 253.9204 15.6059 253.8086 15.8295 253.8086 15.9413 253.8086 16.053 254.1439 15.9413 254.2557 15.8295 254.3674 15.7177 254.4792 15.9413 254.591 16.1648 254.591 16.3883 254.3674 16.2766 254.0321ZM1.0757 234.2486L1.0757 234.1369 1.1875 234.2486 1.0757 234.2486ZM1.8581 233.0191L1.8581 232.9074 1.9699 233.0191 1.8581 233.0191ZM329.5712 102.9175L329.6829 102.9175 329.6829 103.0293 329.5712 102.9175ZM169.4031 4.3353L169.6266 4 169.8502 4.3353 169.4031 4.3353Z" />
  <path class="Iles Saint-Paul et Nouvelle-Amsterdam" d="M839.136 652.9435L840.0301 652.9435 840.7008 653.5023 840.9243 654.3965 840.4772 654.9553 839.8066 655.1789 839.136 654.62 838.6889 653.7259 839.136 652.9435ZM839.6948 677.9802L840.0301 678.4273 840.1419 678.6508 840.0301 678.7626 839.8066 678.7626 839.3595 678.7626 839.2477 678.5391 839.136 678.092 839.2477 677.8684 839.4713 677.7567 839.5831 677.8684 839.6948 677.9802Z" />
</svg>