<?xml version="1.0" encoding="utf-8"?>
<svg xmlns="http://www.w3.org/2000/svg" viewBox="0 0 1021 896" style="stroke-width:0.25px;stroke-linejoin:round;stroke:#444;fill:#ddd" fill-rule="evenodd">
  <path class="Eastern" d="M550.2436 640.6935L551.473 639.2405 552.1437 637.8992 552.7025 636.6697 553.932 626.9457 555.7204 617.5569 555.8321 616.6627 556.1674 615.8803 562.0913 598.444 564.8856 573.8543 564.1032 557.2004 569.4682 546.8057 576.8451 538.5347 580.1982 532.499 580.31 526.6869 580.31 517.6334 580.8689 512.7155 583.2161 510.8154 588.0222 508.6917 591.1518 507.0152 593.7226 504.2209 597.2992 503.215 599.0876 505.4504 601.4348 508.4682 605.7938 508.9153 608.8117 508.58 610.2647 508.1329 611.9413 507.6858 614.9591 507.127 618.2004 506.4563 621.1065 505.4504 625.5773 504.5562 629.6011 504.2209 631.0541 504.1091 632.8425 503.7738 634.0719 501.9855 636.978 499.4147 640.5547 496.844 643.4607 495.2792 648.714 492.932 654.8614 490.8084 661.0088 492.5967 666.262 499.5265 669.727 504.7798 673.5272 509.4741 676.7685 514.0568 680.1217 509.2506 684.1454 500.0854 687.3868 482.0902 688.9516 463.9833 689.2869 458.1712 691.9694 455.0416 699.2345 452.0238 706.0526 448.6706 708.3998 444.4233 708.5116 434.5875 707.5056 426.4282 704.5996 423.4103 701.47 419.6101 701.8053 412.6803 699.9052 405.4152 696.4403 400.609 695.7696 397.9265 697.7815 396.4735 701.3582 392.6733 705.7173 389.7672 708.5116 388.0906 708.3998 380.3784 704.4878 364.954 699.3463 347.7413 697.558 337.2348 699.4581 331.6462 701.1347 325.9459 698.1168 319.2396 690.9635 311.4156 681.2394 299.3443 672.1859 287.4966 665.5914 280.6785 660.6735 271.7369 656.8733 261.4539 654.7496 250.2768 657.3204 241.8939 661.3441 238.3173 661.5677 235.9701 658.7734 234.5171 653.9672 234.5171 647.9316 236.6407 643.4607 237.982 643.0136 233.3993 641.7842 225.6871 639.6605 220.881 635.3014 211.4922 630.9424 203.3329 625.3538 194.8383 618.9828 184.3318 615.7415 181.6493 612.9472 177.8491 611.3824 172.8194 608.5881 170.5839 607.1351 170.1369 605.0114 169.1309 607.3586 167.7897 615.965 163.207 619.877 161.1952 640.3311 153.1476 645.6961 148.1179 648.3787 140.5175 651.3965 121.0693 654.9732 114.1395 656.985 113.0218 658.8851 111.9041 662.9089 111.2334 665.9267 110.8981 666.8209 110.8981 670.6211 109.7804 678.3333 105.1978 700.6876 83.9613 707.1703 75.5784 712.5353 66.525 713.5413 63.1718 714.659 56.0185 715.8884 53.336 716.112 53.0007 717.7886 51.5476 719.5769 50.0946 728.0715 46.2944 731.0893 43.7237 733.6601 36.1232 736.9014 15.4455 741.1487 8.2922 748.7492 5.4979 750.8728 5.8332 752.2141 6.0568 757.132 6.7274 759.591 7.5098 765.6266 9.1864 768.0856 9.5217 768.3091 9.6334 774.1212 10.3041 781.9452 8.404 784.516 7.1745 787.3102 5.945 788.5397 5.3861 795.3578 4.492 802.9582 6.8392 808.435 8.5157 804.523 12.763 800.611 18.2398 799.0462 23.8284 800.7228 29.1934 807.9879 34.2231 809.6645 41.1529 808.6585 44.059 806.7584 46.965 805.4172 49.8711 806.1996 52.8889 810.5586 55.9067 814.5824 55.2361 817.8238 53.4477 819.9474 52.8889 822.5182 54.789 821.624 56.3538 822.6299 56.242 824.4183 57.1362 825.7595 58.4774 826.989 59.4834 827.4361 60.6011 827.3243 62.1659 827.9949 63.7307 828.8891 65.2955 829.1127 66.1897 830.2304 73.4548 833.2482 80.7199 842.4134 95.9208 845.3195 106.092 850.0139 112.1276 851.0198 116.2631 850.4609 117.8279 849.3432 119.9516 848.2255 122.9694 847.6667 126.6579 850.3492 134.7054 855.9377 138.9527 855.9377 139.0645 856.0495 141.5234 856.273 142.8647 857.3908 143.5353 858.732 143.5353 860.5204 142.9765 861.4145 143.5353 862.0851 144.8766 862.0851 144.9883 862.9793 145.9943 863.9853 146.6649 864.7677 146.8884 865.7736 146.7767 866.7795 146.8884 868.009 147.7826 868.5679 148.565 869.015 148.6768 869.7974 148.9003 871.6975 149.0121 873.8211 148.0062 874.8271 148.0062 876.8389 149.4592 878.0684 150.5769 877.9567 151.024 878.8508 152.3652 880.1921 153.5947 881.7569 154.8242 882.7628 156.1655 883.2099 157.2832 883.4334 158.0656 883.5452 159.295 881.7569 160.301 881.3098 161.1952 881.8686 162.5364 882.9864 163.6541 884.3276 163.6541 885.2218 163.6541 885.4453 164.6601 885.4453 165.1072 886.2277 165.4425 887.569 166.0013 888.7985 166.4484 889.2455 166.1131 891.1457 165.3307 893.8282 165.2189 895.6165 165.2189 895.7283 165.2189 897.1813 165.8895 899.305 166.1131 902.211 166.4484 903.4405 166.8955 904.67 168.3485 905.7877 168.7956 907.576 168.4603 907.7996 168.4603 908.6937 168.2367 908.9173 169.0191 908.9173 170.4722 909.2526 171.5899 910.1468 171.9252 910.1468 172.484 910.1468 173.3782 911.3762 173.3782 912.1586 173.7135 912.3822 173.8253 912.7175 174.1606 913.6117 174.3842 914.6176 174.7195 915.6235 174.6077 915.9589 173.7135 917.7472 173.1547 920.5415 173.1547 921.1003 173.1547 921.9945 173.1547 922.1063 174.943 922.6651 176.6196 923.7828 177.402 925.0123 177.9608 926.6889 178.1844 928.9243 177.2902 930.1538 174.8312 930.3773 174.3842 930.6009 173.7135 931.1597 173.2664 933.0598 173.7135 933.3952 173.9371 934.4011 174.8312 934.5129 175.0548 935.7424 176.2843 936.413 176.9549 937.6425 176.6196 937.7542 176.5078 941.6662 178.9668 943.1193 185.673 942.4486 186.4554 941.4427 189.138 941.3309 193.7206 941.5545 196.5149 942.5604 199.1974 943.5663 201.6563 943.7899 202.327 943.6781 204.3388 943.3428 205.233 943.3428 206.2389 943.3428 207.692 942.5604 209.2568 942.3369 211.3804 942.6722 213.057 942.0015 214.1747 941.8898 214.2865 940.7721 215.0689 940.6603 215.2924 940.4367 216.2983 940.325 216.6337 940.2132 218.0867 939.4308 218.3102 937.866 218.8691 937.7542 218.8691 937.1954 219.4279 936.5248 219.9868 935.9659 221.3281 935.407 223.1164 935.5188 224.5694 937.0836 226.246 937.9778 228.705 938.9837 230.6051 941.6662 231.0521 943.1193 231.3875 943.3428 231.4992 944.1252 231.9463 945.5782 232.7287 946.6959 233.3993 948.8196 233.064 951.055 234.1817 951.9492 234.6288 952.508 235.0759 953.4022 236.976 955.5259 238.3173 957.0906 238.9879 957.0906 239.0997 956.9789 240.2174 957.7613 240.9998 958.6554 241.2233 959.1025 242.0057 959.3261 242.8999 959.4378 244.0176 959.3261 244.0176 957.426 245.2471 958.2084 246.1413 959.8849 248.4884 960.5556 249.8297 959.8849 250.6121 959.8849 252.0651 961.0026 254.3006 962.5674 256.2007 963.0145 256.6477 964.0205 260.1127 964.6911 261.6774 962.9028 261.7892 962.3439 262.4598 962.0086 262.9069 961.1144 264.0246 959.8849 265.4777 960.6673 267.4895 962.791 269.6132 964.9146 271.6251 967.2618 272.4075 969.0502 273.5252 969.609 274.1958 970.8385 273.9723 970.9503 273.9723 972.068 274.084 973.2975 275.2018 973.521 275.09 975.8682 276.8783 975.98 277.1019 976.3153 277.3254 976.7624 277.549 976.8741 277.549 977.9919 278.1078 978.886 278.1078 979.892 279.5608 980.7861 281.5727 982.1274 283.1375 983.6922 283.1375 985.257 283.2493 986.4865 283.4728 987.0453 283.0257 987.4924 282.5787 988.4983 281.4609 990.0631 281.2374 991.4044 281.2374 992.1868 283.5846 991.8515 296.5501 991.2926 299.9032 991.0691 300.462 991.1809 300.6856 990.0631 307.2801 989.9514 307.2801 989.6161 306.2741 989.169 306.2741 989.2807 308.286 988.2748 309.9626 986.8218 310.4097 986.71 310.5215 986.4865 310.9685 986.2629 311.6392 985.5923 312.7569 986.0394 313.8746 985.4805 314.8805 984.5864 315.1041 984.0275 316.3336 984.4746 317.3395 984.8099 318.6807 985.0334 320.6926 985.3688 322.481 985.1452 323.4869 985.1452 325.1635 985.1452 327.2871 985.257 328.5166 984.3628 329.7461 983.2451 331.3109 983.2451 331.6462 983.2451 331.8697 983.3569 332.2051 984.4746 332.6521 985.7041 333.5463 985.3688 336.1171 984.9217 336.3406 984.0275 337.0112 983.6922 336.8994 982.2392 336.4524 981.0097 336.4524 979.892 337.4583 978.886 339.3584 978.3272 340.5879 978.9978 341.5938 979.6684 341.9292 980.8979 342.3762 983.6922 345.0587 984.5864 346.7353 985.5923 348.6354 986.1512 349.7531 987.2689 351.9886 987.3806 352.4356 987.6042 356.0123 987.6042 356.1241 986.8218 358.4713 986.71 358.6948 986.5982 361.1538 986.4865 361.3773 984.8099 363.3892 984.6981 364.7305 984.4746 366.7424 985.4805 368.6425 985.8158 373.1133 986.1512 373.7839 986.71 374.5663 986.3747 377.3606 987.4924 379.8196 987.9395 382.2785 987.9395 382.7256 987.716 383.9551 986.9336 385.4081 987.2689 387.1965 988.3866 388.0906 987.0453 389.6554 986.4865 391.332 985.0334 391.7791 983.6922 392.8968 983.2451 393.6792 983.4686 394.2381 983.6922 394.9087 985.0334 395.6911 986.1512 395.5793 987.1571 395.1322 987.0453 395.9146 986.8218 396.697 987.6042 396.697 988.7219 396.3617 989.6161 396.8088 989.0572 397.5912 988.7219 398.8207 989.9514 399.7149 990.1749 400.2737 989.2807 403.1798 984.9217 409.5507 984.251 410.4449 982.3509 411.7861 981.2332 412.2332 981.4568 414.4686 981.4568 414.6922 981.6803 415.251 981.1215 416.257 980.7861 416.8158 980.6744 417.2629 980.7861 417.8218 980.8979 418.2689 981.1215 419.4983 981.1215 419.6101 980.1155 421.0631 978.886 421.8455 977.5448 422.2926 977.2095 423.4103 977.6565 424.4163 976.5388 424.7516 974.1916 430.5637 972.4033 430.899 971.5091 430.6755 970.2796 431.4579 969.609 432.5756 968.156 435.7052 966.4794 437.1582 963.9087 438.1641 962.791 439.5054 962.6792 441.5173 962.5674 442.1879 962.3439 443.3056 960.7791 444.4233 960.6673 444.4233 960.6673 444.8704 960.6673 445.3175 962.2321 445.2057 962.4557 445.0939 963.5734 444.5351 963.5734 444.6469 964.1322 445.3175 965.1382 445.541 965.5853 445.6528 965.4735 445.4293 965.2499 444.8704 965.0264 443.8645 965.697 443.1938 966.0323 441.5173 967.3736 440.9584 968.9384 441.0702 970.5032 440.8466 971.6209 440.5113 971.9562 440.5113 972.6268 440.2878 973.6328 440.8466 973.9681 441.0702 974.974 441.629 975.3094 441.8526 975.6447 442.7468 976.7624 442.7468 977.2095 443.0821 977.8801 443.4174 978.886 444.8704 978.9978 446.0999 978.9978 446.2117 978.5507 447.7765 977.8801 449.0059 979.1096 450.3472 980.6744 451.5767 981.1215 452.8062 980.3391 453.8121 980.7861 455.1534 981.6803 455.3769 982.1274 457.3888 983.1333 458.5065 983.6922 459.2889 983.1333 460.4066 982.798 461.4125 981.7921 462.4185 980.5626 462.9773 980.4508 463.9833 978.886 464.8774 977.433 465.4363 976.5388 466.8893 975.0858 467.56 975.0858 467.8953 975.0858 468.7894 975.8682 469.7954 975.7564 470.8013 975.3094 472.5897 976.3153 473.7074 976.6506 475.2722 976.8741 476.9487 976.3153 478.7371 976.9859 480.3019 977.2095 481.6431 976.9859 483.0961 976.8741 483.655 976.5388 484.4374 976.5388 486.4493 976.9859 488.1259 978.6625 488.4612 980.0037 488.4612 980.7861 487.4552 982.4627 486.6728 982.798 485.6669 990.8455 483.9903 998.8931 488.0141 999.3402 488.9083 999.899 489.8024 1000.4579 490.9201 1000.5696 490.9201 1001.5756 491.479 1002.2462 491.8143 1002.2462 491.9261 1003.2521 492.8202 1004.8169 493.6026 1005.0405 493.7144 1007.4994 496.1734 1009.6231 499.0794 1009.176 500.756 1009.9584 501.5384 1011.1879 501.7619 1011.8585 502.0972 1012.8645 503.4385 1017 517.9688 1015.3234 523.5573 1014.2057 523.6691 1013.8704 525.1221 1014.3175 527.0222 1013.5351 529.4812 1012.6409 530.5989 1008.0583 537.6405 1007.9465 538.3111 1008.3936 538.9817 1009.176 540.4348 1009.6231 542.1113 1009.6231 542.2231 1008.1701 546.6939 1007.2759 547.5881 1006.7171 549.1529 1006.8288 550.3824 1006.27 552.5061 1006.1582 553.0649 1004.4816 558.7652 1004.1463 559.2123 1004.2581 559.4359 1002.0227 566.4774 1000.7932 567.4834 1000.0108 569.16 999.0048 572.066 999.0048 573.4073 997.2165 575.1956 995.987 577.2075 995.7635 578.5487 995.987 579.7782 996.0988 580.6724 995.3164 581.343 995.6517 582.6843 996.2106 584.0255 996.2106 585.4785 995.6517 586.9316 994.7575 587.6022 994.7575 589.2788 994.3105 592.073 993.9751 594.3085 994.7575 596.4321 995.5399 598.5558 995.6517 598.5558 995.987 605.0385 994.6458 605.1503 990.1749 605.1503 985.7041 605.5974 985.9276 607.9446 985.7041 612.9743 985.9276 617.3333 985.7041 625.3809 984.6981 632.3107 985.4805 637.8992 986.4865 641.923 986.3747 643.2642 985.9276 644.6055 986.9336 644.7173 987.1571 645.3879 986.4865 646.0585 984.5864 647.0645 983.6922 648.1822 984.0275 649.0763 983.3569 651.3118 981.4568 653.2119 979.2213 655.7826 978.7743 656.7886 976.8741 657.571 976.3153 657.6827 973.521 657.7945 970.7267 658.5769 969.7208 660.8123 969.2737 661.8183 967.5971 662.7124 960.5556 664.5008 956.9789 666.5127 953.8493 667.4068 953.514 666.9597 951.2785 667.0715 950.7197 667.0715 950.1608 666.6244 948.0372 666.0656 947.5901 665.6185 947.4783 665.7303 946.0253 665.2832 944.0134 664.0537 942.4486 663.1595 942.1133 663.0477 941.1074 661.93 940.2132 660.7006 939.9897 660.477 939.9897 660.3652 939.5426 659.5828 938.9837 658.4651 937.9778 657.3474 936.413 657.0121 934.96 656.4532 933.5069 655.6708 932.0539 653.9943 930.7127 653.7707 929.8185 654.1061 928.589 654.4414 927.4713 654.7767 926.5771 655.7826 926.2418 655.8944 922.1063 653.8825 916.7413 652.2059 910.2585 653.1001 904.5582 657.571 897.4048 671.0953 891.7045 675.7897 889.9162 675.9014 889.8044 675.7897 887.6807 675.4543 886.116 674.4484 884.7747 673.666 882.651 673.7778 881.6451 674.2249 881.4216 674.4484 881.4216 674.3366 880.3039 675.0073 879.2979 674.8955 877.8449 674.1131 876.5036 673.3307 874.7153 673.666 873.8211 674.2249 870.3562 673.2189 859.738 671.8777 850.0139 677.578 833.4717 676.9074 827.9949 674.3366 816.8178 669.0834 789.6574 646.7292 786.7514 642.8172 785.4101 639.2405 784.1806 635.7756 781.7217 632.9813 780.0451 633.6519 779.1509 633.4284 775.3507 632.5342 764.1736 629.8517 761.7146 628.6222 753.6671 630.9694 748.7492 635.552 746.7373 638.3463 744.3901 641.3641 738.0191 647.288 730.754 650.9765 721.3652 653.9943 711.7529 656.0062 703.7054 656.3415 697.4462 655.0002 681.7982 647.3998 675.9861 646.7292 674.1978 650.1941 673.9743 654.8884 672.8565 658.3534 650.2788 686.855 641.6724 692.7789 630.4953 693.1142 629.6011 692.7789 618.9828 688.6433 608.4763 681.7135 600.3171 674.4484 584.7809 656.0062 578.6334 651.3118 573.2684 649.4117 573.0449 649.4117 572.1507 649.2999 568.127 649.1881 563.8796 649.5234 559.9677 648.9646 551.1377 641.3641 550.6906 641.0288 550.2436 640.6935Z" />
  <path class="Kigali City" d="M695.7696 397.9265L696.4403 400.609 699.9052 405.4152 701.8053 412.6803 701.47 419.6101 704.5996 423.4103 707.5056 426.4282 708.5116 434.5875 708.3998 444.4233 706.0526 448.6706 699.2345 452.0238 691.9694 455.0416 689.2869 458.1712 688.9516 463.9833 687.3868 482.0902 684.1454 500.0854 680.1217 509.2506 676.7685 514.0568 673.5272 509.4741 669.727 504.7798 666.262 499.5265 661.0088 492.5967 654.8614 490.8084 648.714 492.932 643.4607 495.2792 640.5547 496.844 636.978 499.4147 634.0719 501.9855 632.8425 503.7738 631.0541 504.1091 629.6011 504.2209 625.5773 504.5562 621.1065 505.4504 618.2004 506.4563 614.9591 507.127 611.9413 507.6858 610.2647 508.1329 608.8117 508.58 605.7938 508.9153 601.4348 508.4682 599.0876 505.4504 597.2992 503.215 593.7226 504.2209 591.1518 507.0152 588.0222 508.6917 583.2161 510.8154 580.8689 512.7155 579.7512 511.8213 576.5098 510.8154 573.7155 509.9212 571.4801 509.5859 567.2328 506.9034 564.1032 500.8678 565.1091 496.0616 568.7976 492.2614 572.8213 490.6966 574.6097 488.6847 576.8451 484.8845 573.6037 477.1723 568.9094 469.6836 570.5859 467.1129 571.5919 463.9833 571.9272 460.7419 572.0389 458.8418 572.1507 457.9476 573.0449 455.7122 571.5919 452.0238 570.0271 448.3353 568.574 445.2057 567.121 443.1938 566.1151 441.5173 564.7738 437.7171 563.209 433.4697 562.2031 431.7932 562.4266 431.1226 563.7679 430.5637 565.668 429.1107 563.6561 423.1868 560.9736 415.4746 563.209 410.4449 567.2328 403.6268 571.1448 397.4794 575.9509 395.9146 582.5454 400.2737 588.8046 404.4092 595.3991 400.4972 600.7641 394.2381 603.5584 390.5496 613.7296 385.967 626.0244 383.8433 630.8306 384.514 633.5131 381.0491 636.978 372.4427 639.5487 365.96 643.4607 367.6365 651.7318 372.5545 668.2739 383.508 683.9219 394.6851 692.193 397.3677 695.7696 397.9265Z" />
  <path class="Northern" d="M605.0114 169.1309L607.1351 170.1369 608.5881 170.5839 611.3824 172.8194 612.9472 177.8491 615.7415 181.6493 618.9828 184.3318 625.3538 194.8383 630.9424 203.3329 635.3014 211.4922 639.6605 220.881 641.7842 225.6871 643.0136 233.3993 643.4607 237.982 647.9316 236.6407 653.9672 234.5171 658.7734 234.5171 661.5677 235.9701 661.3441 238.3173 657.3204 241.8939 654.7496 250.2768 656.8733 261.4539 660.6735 271.7369 665.5914 280.6785 672.1859 287.4966 681.2394 299.3443 690.9635 311.4156 698.1168 319.2396 701.1347 325.9459 699.4581 331.6462 697.558 337.2348 699.3463 347.7413 704.4878 364.954 708.3998 380.3784 708.5116 388.0906 705.7173 389.7672 701.3582 392.6733 697.7815 396.4735 695.7696 397.9265 692.193 397.3677 683.9219 394.6851 668.2739 383.508 651.7318 372.5545 643.4607 367.6365 639.5487 365.96 636.978 372.4427 633.5131 381.0491 630.8306 384.514 626.0244 383.8433 613.7296 385.967 603.5584 390.5496 600.7641 394.2381 595.3991 400.4972 588.8046 404.4092 582.5454 400.2737 575.9509 395.9146 571.1448 397.4794 567.2328 403.6268 563.209 410.4449 560.9736 415.4746 563.6561 423.1868 565.668 429.1107 563.7679 430.5637 562.4266 431.1226 561.1971 430.2284 557.1734 429.446 552.2554 426.2046 547.4493 420.9514 543.4255 416.8158 540.1842 413.9098 536.4957 411.3391 532.4719 409.3272 529.1188 406.7564 522.9714 404.9681 514.2532 404.7446 504.3056 406.6447 494.6933 406.7564 480.9454 402.062 471.4449 396.0264 468.8741 388.7613 461.9443 382.1668 456.0205 373.0015 449.3142 363.0539 444.1727 355.0064 442.3844 350.4238 438.4724 349.7531 432.2132 350.8708 422.8244 347.5177 414.6651 342.0409 408.9648 340.9232 403.2645 341.8174 400.3584 342.7116 394.8816 338.576 388.6224 331.0873 389.2931 320.1338 389.5166 305.6035 388.846 285.0376 386.7223 269.8367 376.8865 269.1661 366.7153 269.725 357.4383 265.1424 349.279 261.3421 346.7083 260.448 344.6964 259.2185 341.3432 260.5597 337.2077 260.6715 327.8189 257.6537 316.9771 253.9652 304.9058 239.7703 301.5527 235.1877 304.4587 232.6169 314.1828 214.0629 327.1483 199.5327 332.8486 189.4733 336.4253 186.1201 344.4728 186.1201 347.7142 186.4554 353.8616 179.8609 358.8913 174.4959 366.0447 173.1547 369.286 173.1547 371.8568 171.1428 371.8568 170.6957 371.8568 170.4722 380.4631 170.9193 390.9696 170.1369 400.3584 167.5661 400.582 167.4543 410.6414 161.754 415.7828 158.0656 418.4653 156.1655 426.8482 151.8064 439.0312 149.6827 444.9551 151.024 455.5734 157.5067 459.0383 158.7362 459.4854 158.5127 463.2856 156.2772 466.1916 146.3296 470.7743 140.9646 475.3569 138.0585 479.716 136.829 480.6101 136.9408 484.1868 137.4997 484.2986 137.4997 489.7754 140.2939 503.8585 160.7481 506.0939 171.2546 507.3234 191.9322 512.1296 202.5505 520.736 210.598 525.2068 211.8275 530.5718 213.3923 536.3839 212.7217 541.0783 212.1628 552.1437 208.1391 557.5087 205.1212 561.3089 202.9976 565.4444 200.7622 568.574 198.9738 586.1221 189.2497 590.593 188.3556 591.3754 188.132 595.8462 177.1784 602.4407 170.4722 605.0114 169.1309Z" />
  <path class="Southern" d="M580.8689 512.7155L580.31 517.6334 580.31 526.6869 580.1982 532.499 576.8451 538.5347 569.4682 546.8057 564.1032 557.2004 564.8856 573.8543 562.0913 598.444 556.1674 615.8803 555.8321 616.6627 555.7204 617.5569 553.932 626.9457 552.7025 636.6697 552.1437 637.8992 551.473 639.2405 550.2436 640.6935 546.8904 637.6757 542.8667 635.4403 537.7252 635.552 536.2722 638.3463 536.2722 643.0407 533.0308 668.7481 536.6075 707.3091 525.7657 745.1996 523.642 796.7261 523.4185 802.3146 520.736 813.2682 515.9298 824.2218 509.8942 834.6165 503.1879 843.67 492.905 854.1765 483.5162 859.6532 477.8158 860.771 473.345 861.6651 460.9384 861.218 456.9146 860.1003 449.7613 857.8649 443.9492 857.9767 440.2607 862.5593 438.5842 873.1776 436.3487 877.7602 431.5426 880.778 420.7008 882.1193 420.2537 882.1193 418.3536 881.8957 418.13 881.7839 410.8649 880.6662 402.035 877.7602 389.9637 873.8482 389.6284 873.7364 384.5987 872.0598 381.022 871.8363 366.1564 877.2013 362.3562 879.5485 358.4442 881.1133 353.191 880.8898 342.2374 882.3428 332.8486 888.2667 328.1542 889.8315 323.3481 891.508 311.7239 884.9135 293.5052 881.5604 286.3518 880.2191 286.24 880.2191 283.8928 879.7721 274.8394 880.778 253.2675 890.1668 251.9263 890.2785 240.8609 891.2845 236.5019 881.7839 235.8312 875.413 231.2486 865.0183 230.0191 859.2062 231.8075 853.9529 238.7373 845.4583 239.855 839.758 236.7254 833.4988 225.8836 823.3276 225.7718 822.8805 235.2724 817.8508 237.1725 817.292 237.7314 817.0684 242.314 814.7212 249.3556 802.0911 251.0321 783.9842 245.22 775.3778 242.6493 771.5776 241.9787 768.1127 242.6493 763.4183 243.5435 758.5003 241.5316 755.3707 238.9608 750.4528 235.2724 745.4231 232.2546 739.1639 231.1369 731.5635 227.0013 725.9749 220.295 722.9571 210.9063 719.9393 204.8706 716.6979 204.4235 713.3448 206.659 706.7503 211.018 700.3793 221.6363 694.679 231.9193 689.0904 233.9311 684.5078 232.4781 678.8075 230.9133 674.1131 235.1606 667.295 240.1903 659.3593 240.6374 654.7767 237.1725 647.7351 233.8194 639.5758 235.2724 632.7578 240.3021 626.6103 247.9025 622.8101 255.2794 621.5806 260.9798 623.369 267.3507 620.4629 276.6277 613.4213 286.7989 611.7448 295.5171 611.5212 301.4409 611.2977 304.4587 611.7448 311.8356 604.1443 324.2422 594.4202 330.9485 590.62 336.4253 585.8139 342.7963 581.9019 345.7023 578.7723 347.7142 575.8662 350.5085 576.7604 353.6381 577.9899 357.3265 576.5369 361.3503 575.4191 364.8152 573.4073 370.1802 570.1659 374.3157 568.0422 374.0922 561.1124 372.3039 554.1826 370.7391 551.053 371.2979 546.0233 375.8805 537.5287 378.7866 530.5989 378.7866 526.9105 380.5749 523.7809 381.9162 521.3219 384.3751 517.7452 387.84 512.3802 388.6224 507.7976 388.9578 503.4385 389.6284 499.1912 388.0636 495.8381 386.387 490.2495 386.8341 479.6312 385.0458 468.5659 382.8103 463.5362 387.9518 463.5362 395.4405 463.8715 401.2526 461.9714 405.8352 457.8359 406.9529 452.5826 404.7175 448.5589 402.8174 442.9703 402.7056 437.3817 404.6057 433.4697 407.2882 426.987 405.8352 413.6862 403.488 401.3914 403.5998 395.3558 405.2763 389.5437 406.6176 375.5723 404.941 358.6948 403.0409 349.5296 401.5879 344.4999 400.3584 342.7116 403.2645 341.8174 408.9648 340.9232 414.6651 342.0409 422.8244 347.5177 432.2132 350.8708 438.4724 349.7531 442.3844 350.4238 444.1727 355.0064 449.3142 363.0539 456.0205 373.0015 461.9443 382.1668 468.8741 388.7613 471.4449 396.0264 480.9454 402.062 494.6933 406.7564 504.3056 406.6447 514.2532 404.7446 522.9714 404.9681 529.1188 406.7564 532.4719 409.3272 536.4957 411.3391 540.1842 413.9098 543.4255 416.8158 547.4493 420.9514 552.2554 426.2046 557.1734 429.446 561.1971 430.2284 562.4266 431.1226 562.2031 431.7932 563.209 433.4697 564.7738 437.7171 566.1151 441.5173 567.121 443.1938 568.574 445.2057 570.0271 448.3353 571.5919 452.0238 573.0449 455.7122 572.1507 457.9476 572.0389 458.8418 571.9272 460.7419 571.5919 463.9833 570.5859 467.1129 568.9094 469.6836 573.6037 477.1723 576.8451 484.8845 574.6097 488.6847 572.8213 490.6966 568.7976 492.2614 565.1091 496.0616 564.1032 500.8678 567.2328 506.9034 571.4801 509.5859 573.7155 509.9212 576.5098 510.8154 579.7512 511.8213 580.8689 512.7155Z" />
  <path class="Western" d="M400.3584 342.7116L401.5879 344.4999 403.0409 349.5296 404.941 358.6948 406.6176 375.5723 405.2763 389.5437 403.5998 395.3558 403.488 401.3914 405.8352 413.6862 407.2882 426.987 404.6057 433.4697 402.7056 437.3817 402.8174 442.9703 404.7175 448.5589 406.9529 452.5826 405.8352 457.8359 401.2526 461.9714 395.4405 463.8715 387.9518 463.5362 382.8103 463.5362 385.0458 468.5659 386.8341 479.6312 386.387 490.2495 388.0636 495.8381 389.6284 499.1912 388.9578 503.4385 388.6224 507.7976 387.84 512.3802 384.3751 517.7452 381.9162 521.3219 380.5749 523.7809 378.7866 526.9105 378.7866 530.5989 375.8805 537.5287 371.2979 546.0233 370.7391 551.053 372.3039 554.1826 374.0922 561.1124 374.3157 568.0422 370.1802 570.1659 364.8152 573.4073 361.3503 575.4191 357.3265 576.5369 353.6381 577.9899 350.5085 576.7604 347.7142 575.8662 345.7023 578.7723 342.7963 581.9019 336.4253 585.8139 330.9485 590.62 324.2422 594.4202 311.8356 604.1443 304.4587 611.7448 301.4409 611.2977 295.5171 611.5212 286.7989 611.7448 276.6277 613.4213 267.3507 620.4629 260.9798 623.369 255.2794 621.5806 247.9025 622.8101 240.3021 626.6103 235.2724 632.7578 233.8194 639.5758 237.1725 647.7351 240.6374 654.7767 240.1903 659.3593 235.1606 667.295 230.9133 674.1131 232.4781 678.8075 233.9311 684.5078 231.9193 689.0904 221.6363 694.679 211.018 700.3793 206.659 706.7503 204.4235 713.3448 204.8706 716.6979 210.9063 719.9393 220.295 722.9571 227.0013 725.9749 231.1369 731.5635 232.2546 739.1639 235.2724 745.4231 238.9608 750.4528 241.5316 755.3707 243.5435 758.5003 242.6493 763.4183 241.9787 768.1127 242.6493 771.5776 245.22 775.3778 251.0321 783.9842 249.3556 802.0911 242.314 814.7212 237.7314 817.0684 237.1725 817.292 235.2724 817.8508 225.7718 822.8805 223.9835 816.0625 224.6541 810.1386 224.3188 807.7914 218.1714 803.2088 209.0062 798.0673 198.3879 795.4966 182.0693 793.4847 181.734 793.3729 181.1751 793.3729 180.9516 793.2612 177.2631 792.8141 166.086 789.3492 140.6022 778.2838 135.5725 776.1602 127.4132 774.9307 125.4013 775.0425 124.0601 775.1542 120.4834 775.3778 119.4774 775.4895 118.8068 775.4895 109.6416 776.1602 98.2409 776.8308 86.952 788.0079 78.5692 836.5166 78.2339 836.1813 77.8986 835.846 77.8986 835.5107 77.5633 835.3989 77.1162 835.0636 76.6691 834.7283 76.4455 834.6165 76.1102 834.2812 75.8867 833.9459 75.6631 833.4988 75.4396 833.1635 75.3278 832.9399 75.1043 832.6046 74.4337 831.934 74.2101 831.7105 73.9866 831.4869 73.5395 831.2634 73.316 831.1516 73.0924 830.7045 72.5336 830.2574 72.1982 830.2574 71.7512 830.3692 71.3041 830.3692 70.6334 829.6986 69.1804 828.9162 68.9569 828.4691 68.7333 828.022 68.2862 827.5749 67.9509 827.4631 67.5039 827.3514 67.2803 827.3514 66.8332 827.2396 66.4979 827.2396 66.3861 827.0161 66.2744 827.1278 66.1626 827.3514 66.1626 827.4631 63.2565 826.0101 63.033 825.6748 62.6977 825.3395 62.2506 825.2277 61.9153 824.8924 61.6917 824.8924 61.2447 825.0042 60.3505 824.5571 45.3732 822.9923 40.6788 821.0922 40.7905 820.9804 40.7905 820.5333 40.6788 820.0862 40.567 819.8627 40.3435 819.7509 40.0081 819.5274 39.5611 819.1921 39.2257 818.9685 38.8904 818.9685 38.5551 818.745 38.3316 818.5215 38.108 818.4097 37.8845 818.4097 37.5492 818.5215 37.2139 818.6332 37.1021 818.9685 36.8785 819.0803 36.7668 818.8568 36.3197 818.745 36.2079 818.6332 36.0961 818.6332 25.4779 811.7034 25.4779 811.4799 25.4779 811.2563 25.5897 811.0328 25.5897 810.5857 25.3661 810.3622 25.0308 810.2504 24.8073 810.1386 24.4719 809.9151 24.3602 809.9151 24.0249 809.9151 23.8013 809.9151 23.5778 810.2504 23.466 810.3622 22.3483 809.6915 22.2365 809.468 22.013 809.1327 21.9012 808.9091 21.5659 808.9091 21.3424 808.9091 20.0011 808.1267 18.4363 806.4502 18.3245 806.0031 18.3245 805.7795 18.101 805.556 17.9892 805.4442 17.8774 805.1089 17.9892 804.7736 18.101 804.6618 18.101 804.103 18.4363 803.8794 18.7716 803.7677 19.2187 803.6559 20.0011 803.4323 20.6717 803.097 21.1188 802.9853 21.5659 803.097 21.9012 802.8735 22.1248 802.6499 22.4601 802.5382 22.9072 801.9793 23.1307 801.7558 23.1307 801.4205 23.1307 800.9734 23.2425 800.8616 23.2425 800.4145 23.1307 799.8557 23.1307 798.9615 23.1307 798.5144 23.1307 798.1791 23.0189 798.0673 22.9072 797.8438 22.7954 797.732 22.7954 797.3967 22.7954 797.1732 22.5718 796.9496 22.4601 796.7261 22.2365 796.5025 22.1248 796.3908 22.1248 796.279 22.013 796.0554 21.9012 795.9437 21.9012 795.7201 21.7894 795.6084 21.7894 795.4966 21.9012 795.273 21.9012 795.0495 21.7894 794.826 21.9012 794.6024 22.013 794.7142 22.1248 795.1613 22.2365 795.1613 22.4601 795.1613 22.4601 795.0495 22.3483 794.7142 22.5718 794.4906 22.7954 794.1553 22.6836 793.82 22.4601 793.7083 22.3483 793.4847 22.2365 793.1494 22.1248 793.0376 22.1248 792.7023 22.1248 792.367 22.3483 792.0317 22.5718 791.6964 22.4601 791.0257 22.2365 790.6904 22.1248 790.5787 22.013 790.5787 21.9012 790.3551 21.7894 790.1316 21.5659 789.908 21.6777 790.2433 21.9012 790.6904 21.9012 791.2493 21.7894 791.6964 21.5659 791.8081 21.4541 791.8081 21.2306 791.8081 21.007 791.6964 20.8953 791.5846 20.7835 791.4728 20.8953 791.2493 20.8953 790.914 20.6717 790.8022 20.4482 790.6904 20.3364 790.3551 20.2246 790.0198 20.1129 789.908 20.0011 789.7963 20.0011 789.5727 20.1129 789.1256 20.0011 788.9021 19.7776 788.6785 19.6658 788.3432 19.7776 788.1197 20.0011 787.8961 20.0011 787.5608 20.0011 787.3373 19.7776 787.2255 19.8893 787.002 20.0011 786.8902 20.2246 786.8902 20.3364 786.6667 20.3364 786.4431 20.3364 786.3314 20.4482 786.2196 20.56 786.1078 20.56 785.7725 20.6717 785.6607 20.6717 785.3254 20.6717 784.8783 20.7835 784.543 20.8953 784.3195 21.2306 784.0959 21.1188 783.7606 21.1188 783.2018 21.1188 783.09 21.1188 782.8664 21.1188 782.6429 21.2306 782.3076 21.2306 782.1958 21.4541 782.084 21.4541 781.8605 21.4541 781.7487 21.4541 781.637 21.4541 781.3017 21.3424 781.0781 21.1188 780.8546 21.007 780.631 20.8953 780.2957 20.6717 780.0722 20.4482 779.9604 20.4482 779.8486 20.4482 779.5133 20.56 779.2898 20.56 778.9545 20.4482 778.7309 20.3364 778.7309 20.1129 778.6191 19.7776 778.6191 19.6658 778.2838 19.6658 778.0603 19.6658 777.9485 19.4422 777.725 19.2187 777.725 19.1069 777.5014 19.1069 777.2779 19.1069 777.0543 19.3305 776.8308 19.1069 776.6073 19.1069 776.4955 19.1069 776.1602 19.1069 775.9366 19.2187 775.7131 19.2187 775.4895 19.2187 775.266 19.2187 775.1542 19.2187 774.9307 19.4422 774.1483 19.4422 773.813 19.554 773.3659 19.7776 773.3659 20.1129 773.2541 20.1129 773.1424 20.1129 772.807 20.0011 772.1364 20.0011 771.9129 20.1129 771.6893 20.3364 771.354 20.3364 771.0187 20.3364 770.7952 20.2246 770.5716 20.2246 770.3481 20.4482 770.0128 20.1129 769.6774 20.0011 769.6774 19.6658 769.5657 19.6658 769.3421 19.6658 768.6715 19.6658 768.3362 19.554 768.1127 19.3305 767.8891 19.4422 765.7655 16.0891 754.0295 10.9476 748.888 5.3591 746.0937 1.3353 743.4112 1.3353 743.2994 1.3353 743.1877 1.3353 743.0759 1.3353 742.9641 1.3353 742.8524 1.3353 742.7406 1.2235 742.6288 1.2235 742.5171 1.2235 742.4053 1.2235 742.2935 1.1118 742.2935 1.1118 742.1817 1 742.1817 1 742.07 1 741.9582 1 741.8464 1 741.7347 1 741.6229 1 741.5111 1.1118 741.5111 1.1118 741.3993 1.2235 741.2876 1.2235 741.064 1.1118 740.9523 1.1118 740.8405 1.1118 740.7287 1.1118 740.6169 1.1118 740.5052 1.1118 740.3934 1.1118 740.2816 1.1118 740.1699 1.1118 740.0581 1.2235 739.9463 1.2235 739.8345 1.1118 739.7228 1.1118 739.611 1.1118 739.4992 1.2235 739.4992 1.2235 739.3875 1.2235 739.2757 1.2235 739.0521 1.2235 738.9404 1.2235 738.8286 1.3353 738.7168 1.4471 738.7168 1.4471 738.6051 1.4471 738.4933 1.5589 738.3815 1.5589 738.2697 1.6706 738.2697 1.6706 738.158 1.6706 738.0462 1.7824 738.0462 1.7824 737.9344 1.8942 737.9344 2.0059 737.8227 2.0059 737.7109 2.1177 737.7109 2.1177 737.5991 2.1177 737.4873 2.2295 737.4873 2.2295 737.3756 2.3413 737.3756 2.3413 737.2638 2.3413 737.152 2.453 737.0403 2.453 736.9285 2.5648 736.9285 2.6766 736.9285 2.7883 736.8167 2.7883 736.705 2.9001 736.705 2.7883 736.5932 2.7883 736.4814 2.7883 736.3696 2.9001 736.3696 2.9001 736.2579 3.0119 736.2579 3.0119 736.1461 3.1237 736.1461 3.1237 736.0343 3.2354 735.9226 3.2354 735.8108 3.2354 735.699 3.3472 735.699 3.3472 735.5872 3.3472 735.4755 3.459 735.4755 3.459 735.3637 3.5707 735.3637 3.6825 735.3637 3.6825 735.2519 3.7943 735.2519 3.9061 735.2519 4.0178 735.2519 4.1296 735.2519 4.2414 735.1402 4.3531 735.1402 4.4649 735.1402 4.4649 735.0284 4.5767 734.9166 4.5767 734.8048 4.6884 734.8048 4.8002 734.6931 4.8002 734.5813 4.912 734.5813 5.0238 734.4695 5.1355 734.4695 5.2473 734.3578 5.3591 734.3578 5.3591 734.246 5.4708 734.246 5.5826 734.1342 5.6944 734.0224 5.8062 734.0224 5.8062 733.9107 5.9179 733.9107 6.0297 733.7989 6.1415 733.6871 6.2532 733.5754 6.2532 733.4636 6.365 733.3518 6.4768 733.24 6.7003 733.0165 6.8121 732.9047 6.8121 732.793 6.9239 732.6812 7.0356 732.6812 7.1474 732.5694 7.2592 732.4576 7.2592 732.3459 7.2592 732.2341 7.371 732.2341 7.4827 732.1223 7.5945 732.0106 7.7063 732.0106 7.818 732.0106 7.9298 732.0106 7.9298 731.8988 8.0416 731.8988 8.1534 731.8988 8.1534 731.787 8.2651 731.787 8.2651 731.6752 8.3769 731.6752 8.3769 731.5635 8.4887 731.5635 8.6004 731.5635 8.7122 731.5635 8.7122 731.4517 8.824 731.4517 8.9358 731.4517 9.0475 731.4517 9.1593 731.4517 9.2711 731.4517 9.3828 731.3399 9.4946 731.3399 9.6064 731.3399 9.6064 731.4517 9.6064 731.5635 9.6064 731.6752 9.7182 731.6752 9.8299 731.6752 9.9417 731.6752 9.9417 731.5635 10.0535 731.5635 10.0535 731.4517 10.1652 731.4517 10.277 731.4517 10.277 731.3399 10.3888 731.3399 10.277 731.3399 10.3888 731.2282 10.5006 731.2282 10.5006 731.1164 10.6123 731.0046 10.6123 730.8928 10.7241 730.8928 10.8359 730.8928 10.9476 730.7811 11.0594 730.8928 11.0594 730.7811 11.1712 730.6693 11.2829 730.6693 11.3947 730.6693 11.5065 730.6693 11.6183 730.6693 11.73 730.5575 11.8418 730.5575 11.9536 730.5575 12.0653 730.5575 12.1771 730.5575 12.1771 730.6693 12.2889 730.6693 12.2889 730.5575 12.4007 730.5575 12.5124 730.5575 12.6242 730.5575 12.736 730.5575 12.8477 730.5575 12.9595 730.5575 13.0713 730.5575 13.1831 730.5575 13.1831 730.4458 13.4066 730.4458 13.4066 730.334 13.5184 730.2222 13.6301 730.2222 13.6301 730.1105 13.7419 730.1105 13.8537 730.1105 13.8537 729.9987 13.9655 729.9987 14.0772 729.9987 14.189 729.9987 14.189 729.8869 14.3008 729.8869 14.3008 729.7751 14.4125 729.7751 14.6361 729.7751 14.6361 729.6634 14.7479 729.5516 14.7479 729.3281 14.7479 729.2163 14.7479 729.1045 14.7479 728.9927 14.7479 728.881 14.8596 728.7692 14.8596 728.6574 14.8596 728.5457 14.9714 728.4339 14.8596 728.4339 14.8596 728.3221 14.8596 728.2103 14.8596 728.0986 14.9714 728.0986 14.9714 727.9868 14.9714 727.875 14.9714 727.7633 15.0832 727.7633 15.0832 727.6515 15.0832 727.5397 15.1949 727.4279 15.1949 727.3162 15.1949 727.2044 15.1949 727.0926 15.3067 727.0926 15.3067 726.9809 15.3067 726.8691 15.4185 726.8691 15.5303 726.8691 15.5303 726.7573 15.5303 726.6455 15.5303 726.5338 15.5303 726.422 15.5303 726.3102 15.642 726.1985 15.5303 726.0867 15.5303 725.9749 15.5303 725.8631 15.5303 725.7514 15.642 725.7514 15.642 725.6396 15.642 725.5278 15.7538 725.4161 15.7538 725.3043 15.7538 725.1925 15.8656 725.0807 15.8656 724.969 15.9773 724.8572 15.9773 724.7454 16.0891 724.6337 16.0891 724.5219 16.2009 724.4101 16.2009 724.2983 16.3127 724.1866 16.3127 724.0748 16.4244 724.0748 16.4244 723.963 16.4244 723.8513 16.5362 723.7395 16.5362 723.6277 16.5362 723.516 16.5362 723.4042 16.5362 723.2924 16.648 723.2924 16.648 723.1806 16.7597 723.0689 16.8715 722.9571 16.8715 722.8453 16.8715 722.7336 16.8715 722.6218 16.8715 722.3982 16.7597 721.5041 16.4244 719.9393 15.642 716.8097 13.8537 713.5683 7.4827 707.3091 6.0297 700.1558 6.4768 690.6552 11.2829 675.2308 16.7597 668.4128 23.8013 663.4948 26.9309 662.6007 31.1782 663.3831 35.7608 663.2713 38.2198 663.2713 39.4493 663.9419 39.8964 664.8361 39.5611 665.842 38.4433 666.848 36.4315 667.1833 35.3138 668.0774 34.5314 669.754 34.0843 671.6541 33.8607 672.8836 34.196 674.2249 34.9784 675.0073 35.4255 675.3426 36.7668 675.0073 37.8845 674.5602 40.7905 671.6541 44.479 668.301 50.6264 664.7243 57.1091 658.2416 65.8273 649.1881 73.6513 635.105 76.1102 628.9575 76.5573 625.7162 79.1281 622.5866 84.2695 621.1336 92.8759 621.8042 101.147 625.8279 110.8711 624.2631 120.4834 619.0099 125.1778 612.0801 130.9899 601.4618 139.5963 584.3608 145.073 575.1956 151.2205 557.7593 153.4559 546.6939 157.4796 530.2636 157.3679 521.2101 157.3679 494.8321 155.8031 483.2079 155.4678 464.7657 155.2442 455.3769 154.2383 448.4471 153.5677 440.5113 153.7912 428.2165 154.2383 419.3866 156.6972 409.3272 159.7151 397.3677 163.8506 382.5021 168.3215 373.5604 177.822 355.2299 192.2405 327.6224 192.1287 326.1694 192.0169 325.7223 192.6876 321.6986 195.1465 316.2218 197.1584 307.1683 198.9468 305.4917 201.8528 297.556 212.3593 294.5382 216.6066 291.185 227.8955 271.4015 234.0429 265.9248 238.9608 254.4123 245.6671 248.9355 260.0856 239.7703 273.051 240.4409 292.9463 240.7762 299.5408 237.0878 301.5527 235.1877 304.9058 239.7703 316.9771 253.9652 327.8189 257.6537 337.2077 260.6715 341.3432 260.5597 344.6964 259.2185 346.7083 260.448 349.279 261.3421 357.4383 265.1424 366.7153 269.725 376.8865 269.1661 386.7223 269.8367 388.846 285.0376 389.5166 305.6035 389.2931 320.1338 388.6224 331.0873 394.8816 338.576 400.3584 342.7116Z" />
</svg>