<?xml version="1.0" encoding="utf-8"?>
<svg xmlns="http://www.w3.org/2000/svg" viewBox="0 0 941 1024" style="stroke-width:0.25px;stroke-linejoin:round;stroke:#444;fill:#ddd" fill-rule="evenodd">
  <path class="Artigas" d="M113.5677 145.3905L113.1206 141.7021 112.0029 136.3371 110.3263 129.1837 108.8733 124.6011 104.9613 116.1065 102.3905 112.1945 98.4785 104.2587 97.6961 96.323 99.9316 88.9461 104.7377 82.9105 139.3868 51.1674 143.187 44.5729 144.4165 36.749 141.9575 27.919 141.1751 23.4482 148.105 23.0011 150.8992 25.6836 154.3641 36.3019 159.8409 39.9903 164.2 40.4374 171.9122 39.0961 176.1595 38.9844 178.5067 40.2139 181.0774 44.3494 183.8717 45.02 185.5483 44.1259 189.5721 40.5492 191.8075 39.5432 195.2724 39.655 197.5078 41.108 199.2961 42.7846 201.8669 43.9023 203.3199 43.3435 205.4436 40.6609 206.4495 40.2139 207.9025 40.8845 210.0262 43.2317 210.9204 43.9023 216.6207 42.6728 221.6504 38.6491 225.2271 32.837 226.1212 26.466 227.4625 21.3245 231.1509 14.73 235.9571 8.9179 240.4279 5.7883 242.1045 6.0119 245.4576 7.5767 247.246 7.5767 250.7109 5.7883 251.9404 5.3413 258.4231 4.1118 261.888 4 270.3826 6.3472 276.8653 5.2295 283.5716 5.0059 289.9426 9.4768 293.1839 14.9536 294.8605 17.0772 305.8141 24.5659 311.1791 27.1366 314.1969 29.2603 316.8794 31.831 318.4442 34.5135 319.0031 38.6491 318.4442 40.7727 318.6678 42.114 321.462 43.9023 323.2504 44.3494 324.927 44.2376 326.7153 44.4612 328.5036 45.6906 329.5096 46.8084 331.0744 49.3791 337.5571 56.8678 339.7925 58.6561 342.6986 61.3386 352.0873 67.3743 354.9934 70.3921 359.2407 77.5454 361.6997 81.0103 364.0469 83.0222 372.2062 87.6048 382.4891 96.323 388.1894 99.229 391.7661 102.5822 397.2429 109.2884 398.2488 111.5239 398.8077 113.6475 399.4783 115.6594 401.4902 117.336 404.8433 119.5714 406.4081 121.0244 407.5259 122.701 413.338 134.1017 416.0205 137.4548 427.5329 146.7318 430.3272 152.4321 431.4449 158.4678 431.4449 158.5795 430.5507 164.6152 427.5329 170.2037 426.7505 174.6746 426.6387 188.0871 425.6328 197.3641 425.6328 201.835 426.527 203.288 426.3034 203.1762 419.8207 198.0348 418.4794 196.5817 416.6911 194.2345 415.3498 192.6697 410.879 188.8695 408.8671 186.4106 406.1846 182.1633 404.9551 180.5985 401.3784 177.4689 398.4724 175.6805 397.3547 175.2334 369.5237 169.086 359.6878 165.5094 358.3465 165.174 356.5582 164.9505 353.4286 165.2858 351.6403 165.7329 350.4108 166.2917 349.7402 167.0741 349.0695 167.8565 348.0636 169.7567 346.8341 172.7745 345.8282 174.6746 345.1575 175.457 343.5927 176.7982 342.8103 177.2453 338.8983 178.8101 337.11 179.9278 336.4394 180.5985 333.8686 183.7281 333.0862 184.2869 332.3039 184.8458 330.1802 185.5164 324.3681 186.2988 322.3562 186.9694 320.6796 187.9754 310.3967 196.6935 308.8319 197.4759 306.82 198.2583 304.6964 198.8172 296.2018 199.5996 292.0662 200.829 289.6073 200.7173 269.712 197.0288 265.4647 196.8053 253.8405 198.2583 252.7228 198.7054 251.0462 199.5996 246.3518 203.288 245.3459 203.7351 244.3399 204.0704 243.2222 204.1822 241.4339 204.0704 230.8156 200.829 226.5683 198.5936 223.327 196.2464 215.1677 188.1989 215.1677 188.0871 212.4851 185.8517 211.1439 185.0693 202.7611 182.3868 179.5127 169.9802 173.7006 165.8447 172.6946 164.727 169.7886 162.6033 168.3355 161.9327 166.5472 161.4856 162.8587 160.9267 156.7113 160.9267 155.1465 160.7032 153.47 160.1443 151.3463 158.6913 150.2286 157.7971 149.3344 156.7912 146.4284 152.7674 145.1989 151.3144 142.1811 148.5201 130.7804 140.0255 128.4332 138.5725 126.5331 137.9019 121.727 137.343 119.9386 137.4548 118.7091 138.349 117.815 139.1314 113.5677 145.3905Z" />
  <path class="Canelones" d="M521.9795 944.8898L524.662 950.9254 526.4504 953.2726 529.0211 955.2845 531.2565 957.2964 532.1507 958.8612 532.486 960.3142 531.5919 965.5674 531.4801 967.0205 531.5919 968.8088 532.1507 969.9265 532.7096 970.9325 534.0508 972.2737 537.5157 977.4152 538.9688 980.3212 539.3041 981.886 539.4158 983.5626 538.857 983.2273 534.4979 982.892 522.8737 981.9978 515.6086 982.7802 506.5551 980.3212 499.4018 977.0799 491.5778 978.8682 483.3067 975.4033 472.2414 979.2035 465.9822 977.4152 454.358 981.4389 448.993 983.6744 437.4805 991.3866 428.7624 997.7575 422.7267 1001.3342 421.4972 999.3223 420.8266 997.1987 420.2678 993.1749 420.2678 989.1512 420.3795 987.6981 420.6031 986.5804 422.5032 982.2213 423.1738 979.8741 423.1738 978.5329 422.7267 977.527 421.609 976.9681 419.2618 977.0799 417.8088 977.4152 416.3558 977.527 415.0145 977.3034 413.5615 976.0739 412.8909 975.068 412.332 974.1738 411.9967 973.7267 411.2143 973.1679 410.2084 972.8326 409.2024 972.2737 408.42 971.6031 407.4141 969.5912 407.0788 968.5853 406.2964 967.1322 405.2904 966.9087 403.7256 966.7969 400.149 968.0264 398.4724 968.9206 397.3547 970.0383 396.1252 971.8266 395.4546 972.7208 394.6722 973.3914 393.8898 974.062 392.9956 974.6209 391.0955 975.2915 390.2013 975.1798 388.7483 974.7327 386.1776 973.3914 385.0598 972.609 384.2774 971.8266 382.2656 968.2499 381.7067 967.4675 380.2537 965.9028 379.2477 965.2321 378.0183 964.785 376.1182 964.4497 374.5534 964.4497 371.4238 965.3439 365.6117 968.8088 364.2704 966.6851 361.5879 963.5556 355.3287 957.967 349.6284 954.6139 348.846 953.9432 348.2871 952.8255 347.84 951.3725 347.6165 945.4486 346.6106 939.5248 346.8341 938.0717 347.393 936.6187 348.7342 935.0539 349.8519 934.1597 351.9756 933.1538 352.758 932.5949 353.5404 931.9243 354.211 931.0301 355.3287 929.2418 356.67 927.5652 359.6878 924.6592 360.0231 923.3179 360.0231 921.6414 359.2407 918.7353 358.5701 917.2823 357.8994 916.2763 357.7877 915.2704 357.7877 913.8174 359.0172 908.6759 359.0172 904.6521 362.1468 893.8103 363.9351 890.569 365.7234 889.4513 367.9589 888.5571 370.8649 887.7747 376.1182 887.4394 378.6889 887.5512 380.4772 887.7747 382.4891 888.4453 390.2013 892.8044 392.2132 893.0279 395.231 892.9162 403.9492 890.9043 405.7375 890.1219 407.0788 888.4453 408.6436 885.4275 410.879 878.6095 411.3261 877.4917 412.4438 876.2623 414.1204 874.921 429.7683 864.5263 431.4449 864.4145 433.7921 864.5263 437.3688 865.644 446.6458 870.2266 448.0988 870.4502 450.2224 870.5619 454.1344 870.0031 456.1463 869.4442 457.5993 868.8854 469.5589 861.5085 474.365 859.8319 496.3839 856.7023 501.1901 876.0387 503.5373 882.9685 510.8024 896.6046 511.473 898.6165 511.6966 900.4048 511.5848 901.7461 509.4612 912.3644 509.3494 914.2645 509.5729 918.8471 509.9083 919.7413 510.9142 921.4178 518.1793 930.3595 520.9736 935.8363 521.9795 938.9659 521.9795 944.8898Z" />
  <path class="Cerro Largo" d="M698.578 324.5597L699.2486 326.1245 704.0548 330.8189 709.7551 334.9545 715.1201 339.9842 720.4851 346.2433 732.5564 357.4205 742.2805 364.3503 750.8869 372.3978 755.0224 375.3039 756.9226 375.1921 758.5991 372.9567 761.8405 369.9388 765.0818 368.8211 768.5468 369.1564 771.8999 370.6095 774.9177 372.9567 775.9237 374.2979 777.4884 377.3157 779.165 378.7688 780.8416 379.4394 786.6537 379.9982 789.6715 380.8924 792.1305 382.1219 797.1602 385.5868 799.2838 387.8222 799.9545 389.9459 800.4015 392.0695 801.5193 394.1932 803.3076 396.3168 805.543 398.3287 810.4609 401.5701 820.7439 403.6937 823.3146 405.3703 824.3206 408.2763 824.5441 415.5415 829.5738 427.6128 838.5155 440.9135 840.6392 446.7256 841.7569 453.7672 842.3157 464.2737 843.2099 467.7386 844.7747 470.4211 849.2455 474.4449 851.0339 477.0156 854.0517 482.3806 857.6284 487.2986 861.8757 491.5459 872.941 499.4816 883.224 511.1058 893.1716 514.459 900.7721 519.1534 903.6781 520.1593 909.3784 520.1593 915.1905 523.736 920.8909 526.4185 923.5734 528.3186 935.1976 541.0605 936.7624 544.1901 936.2035 547.8785 933.9681 550.8964 927.5971 555.9261 924.1322 560.2851 924.0205 560.2851 902.8957 555.8143 898.5366 555.3672 897.0836 555.479 895.2953 555.8143 892.3892 557.6026 891.048 558.0497 889.4832 558.1615 887.2477 557.8262 885.7947 557.3791 884.677 556.8202 882.3298 554.8084 880.9886 554.3613 879.0884 554.2495 875.7353 554.473 874.0587 554.1377 872.8293 553.5789 871.5998 551.9023 870.9292 551.2317 870.1468 550.5611 869.3644 550.114 868.4702 549.8904 849.5809 552.2376 845.3336 552.0141 839.0744 550.8964 809.7903 553.2436 808.002 553.02 806.6607 552.6847 805.6548 552.2376 803.8664 551.1199 792.6893 542.0664 790.901 540.9487 789.7833 540.5017 788.2185 540.6134 786.2066 541.0605 781.2887 543.9666 780.3945 544.6372 779.2768 545.9784 775.4766 549.4433 774.8059 550.2257 774.3589 551.1199 774.2471 552.1259 774.4706 553.2436 774.8059 554.1377 775.8119 555.9261 776.259 556.932 776.5943 558.0497 776.1472 559.1674 775.1413 559.9498 772.6823 560.0616 771.2293 559.7263 770.1116 559.1674 769.3292 558.4968 759.8286 552.0141 758.8227 551.567 757.8167 551.2317 756.5872 551.2317 752.8988 551.4552 751.5575 551.4552 750.3281 551.2317 749.2103 550.8964 748.2044 550.3375 746.5278 549.108 745.5219 548.6609 740.604 548.1021 737.0273 546.8726 730.4328 545.9784 729.2033 545.6431 728.3091 545.196 727.415 544.5254 725.9619 543.1842 725.1795 542.5135 723.3912 542.7371 720.8205 543.743 712.1023 548.6609 708.4139 549.8904 698.578 550.5611 696.119 550.114 694.8895 550.2257 693.7718 550.8964 692.6541 552.5729 691.8717 555.2554 691.3129 556.2614 690.4187 557.1556 689.0774 557.8262 686.6185 558.2733 685.0537 558.0497 683.7124 557.8262 682.5947 557.8262 681.7006 558.2733 680.8064 559.5028 679.5769 561.6264 678.3474 563.303 677.3415 564.0854 675.8884 564.756 673.2059 565.2031 671.5294 565.2031 670.0763 564.9795 666.835 563.6383 664.4878 563.0794 662.1406 563.0794 660.5758 563.303 652.4165 566.6561 649.6222 567.3267 643.9219 567.215 639.004 567.7738 636.7685 568.3327 626.3738 573.5859 623.4678 576.2684 620.6735 579.2862 619.2205 580.6275 618.3263 581.0746 612.2906 583.5336 610.167 585.0983 608.8257 586.4396 607.708 587.3338 603.796 589.5692 602.9019 590.3516 601.7842 591.6928 600.89 593.1459 600.3311 594.3754 600.2194 595.9402 600.5547 597.7285 603.1254 602.1993 603.349 603.5406 603.349 607.3408 594.2955 606.1113 581.6653 606.5584 578.8711 606.3349 577.0827 605.8878 576.4121 605.1054 574.4002 602.1993 574.4002 602.0876 573.8414 601.6405 557.1875 590.7987 554.8403 588.7868 551.5989 584.9866 549.587 581.6334 548.8046 579.2862 548.3575 577.0508 548.3575 575.8213 549.3635 570.7916 549.6988 566.8796 549.587 565.6502 549.2517 564.6442 548.5811 563.1912 545.675 558.7204 544.8926 557.0438 544.5573 555.479 544.7809 554.3613 545.3397 553.4671 546.1221 552.7965 547.0163 552.3494 549.3635 551.9023 550.2576 551.4552 550.9283 550.6728 551.2636 549.5551 551.2636 548.3256 551.04 547.0961 546.4574 536.4779 546.2339 535.2484 546.2339 532.7894 546.7927 530.4422 549.2517 523.9595 551.7107 513.0059 551.9342 510.3234 551.8224 507.8645 551.04 503.2818 547.4634 496.4638 562.9996 489.1987 569.0352 488.8634 580.5476 493.446 586.4715 494.6755 592.6189 493.7813 598.0957 491.2106 602.6783 487.6339 606.3668 483.3866 609.9435 477.3509 612.626 474.6684 618.8851 472.7683 620.3382 470.8682 621.5677 468.521 623.1325 466.3974 624.9208 465.1679 628.6092 463.3795 630.3976 462.1501 633.1919 458.3498 636.9921 449.8552 639.451 445.6079 640.1217 443.3725 639.451 441.0253 638.2216 438.7899 637.6627 436.4427 637.8862 434.5426 638.5569 432.4189 640.0099 429.4011 644.1454 424.8185 645.4867 422.0242 646.0455 417.218 647.9457 415.0944 652.3047 416.5474 659.3463 420.7947 661.9171 420.4594 665.7173 419.4535 669.4057 418.4475 673.0942 418.0004 677.1179 416.6592 679.6887 413.6414 680.2475 409.9529 678.571 406.5998 680.2475 404.1408 684.7184 400.6759 685.8361 397.9934 685.1655 394.5285 683.0418 393.6343 680.1358 393.1872 677.3415 390.9518 683.2653 382.3454 685.5008 376.3098 687.9597 371.8389 692.0953 361.4442 692.9894 357.7558 692.207 352.7261 689.0774 343.5608 689.301 338.6429 690.1952 336.631 691.76 334.2838 693.5483 332.3837 694.7778 331.6013 695.3366 330.7072 697.6838 325.7892 698.578 324.6715 698.578 324.5597Z" />
  <path class="Colonia" d="M240.3162 804.8405L242.6634 810.0937 244.1164 816.3529 244.8988 818.253 245.793 819.4825 246.5754 820.0414 249.5932 821.6062 250.8227 822.6121 256.523 829.4301 263.1175 839.7131 264.0117 841.9485 264.1234 843.4015 264.1234 843.9604 263.8999 844.631 263.5646 845.0781 262.3351 846.6429 254.5111 853.0139 253.7287 853.4609 252.4992 854.1316 245.0106 856.367 242.2163 857.82 237.969 860.8378 237.1866 861.9556 236.516 863.5204 235.7336 866.3146 235.7336 868.103 235.8453 869.4442 236.4042 870.4502 236.8513 871.3443 240.4279 875.4799 241.0986 876.7094 240.9868 878.1624 239.6455 882.5215 238.8631 884.198 237.7454 885.5393 236.7395 887.7747 236.6277 890.1219 236.7395 894.2574 236.516 896.2693 236.0689 897.7223 235.2865 898.5047 224.5564 907.8935 218.2972 906.5523 202.6493 906.2169 193.037 906.8876 189.7956 904.0933 181.7481 904.3168 177.2772 907.1111 175.0418 904.3168 170.571 903.8697 165.653 906.2169 159.5056 909.0112 153.9171 903.3109 149.4462 903.0873 144.3047 904.0933 137.2631 907.3347 127.5391 911.1349 124.2977 910.6878 119.8268 913.4821 114.6854 913.035 109.5439 913.5938 103.7318 912.6997 105.5201 911.0231 103.9553 907.7817 99.0374 906.3287 95.9078 901.1872 96.3549 892.5809 91.884 887.7747 88.4191 881.9626 75.4537 866.4264 69.6416 863.6321 67.6297 860.3908 64.8354 853.4609 61.8176 850.4431 57.4585 848.543 52.7641 847.7606 48.7404 847.4253 43.9342 846.5311 41.6988 843.9604 39.6869 836.0246 37.675 831.5538 22.8095 809.8702 19.5681 807.0759 12.9736 803.0521 10.0675 800.4814 7.7204 796.3459 6.3791 791.9868 5.3732 786.3982 5.4849 786.3982 11.0735 785.3923 13.5325 784.6099 29.404 778.0154 45.8343 766.6147 48.6286 765.7206 51.6464 766.1677 71.4299 771.1974 72.3241 772.2033 73.4418 773.6563 74.0007 774.5505 74.7831 776.5624 75.4537 778.686 75.9008 779.692 76.9067 781.4803 77.4656 782.1509 78.1362 782.7098 78.5833 783.1569 79.3657 783.4922 80.8187 783.9393 82.607 784.1628 85.7366 784.051 90.9899 783.0451 104.626 783.4922 106.4143 783.9393 108.8733 785.1688 110.1028 786.1747 110.9969 787.0689 111.444 787.7395 111.6675 788.0748 111.444 787.8513 112.5617 789.3043 113.4559 790.0867 115.1325 791.3162 139.0515 799.5872 144.0812 800.0343 154.6994 799.0284 184.8777 790.7573 188.119 791.6515 191.9193 793.4398 195.2724 795.3399 198.2902 798.246 201.5316 800.8167 202.5375 801.3756 207.4554 802.0462 221.9857 802.0462 240.3162 804.8405Z" />
  <path class="Durazno" d="M603.349 607.3408L601.6724 610.6939 601.1135 611.4763 599.884 612.9294 598.3193 614.2706 588.4834 620.6416 587.0304 622.5417 585.5773 626.9008 576.6356 631.8187 573.7296 633.8306 564.0055 643.1076 561.6583 644.8959 559.7582 645.7901 558.5287 645.6783 557.411 645.343 554.505 643.7782 553.2755 643.4429 551.7107 643.3311 547.7987 645.2312 543.8867 647.802 534.2744 652.8317 532.8213 654.3965 529.3564 658.8673 495.8251 677.8684 491.8013 679.545 490.5718 679.545 484.0891 678.4273 482.4125 678.3155 480.2889 678.6508 479.0594 679.2097 478.1652 679.9921 477.6064 680.8862 476.4887 682.2275 474.8121 683.6805 470.2295 686.6983 459.3877 691.6163 453.4638 693.5164 452.2343 693.6282 449.6636 693.5164 448.4341 693.2928 447.4282 692.8458 444.5221 691.281 443.4044 690.9457 442.0631 690.8339 440.8337 690.8339 431.6684 692.6222 425.7446 693.1811 424.068 693.8517 423.1738 694.6341 422.7267 695.7518 422.2796 698.2108 421.7208 699.4403 420.7149 700.6697 417.0264 703.3523 415.3498 704.9171 414.0086 705.4759 412.6673 705.5877 404.1727 703.0169 399.2548 702.4581 389.3072 703.2405 388.0777 703.0169 386.96 702.5699 385.954 702.011 385.1716 701.4521 384.6128 700.558 384.1657 699.6638 382.8244 695.4165 382.3773 694.4106 381.8185 693.5164 381.1479 692.734 380.3655 692.1751 379.136 691.8398 377.7947 691.8398 369.6354 692.8458 368.2942 692.6222 367.1765 692.3987 365.0528 691.3927 362.4821 689.6044 361.5879 688.9338 360.1349 687.369 359.0172 686.8101 357.3406 686.363 356.3347 686.9219 355.8876 687.9278 355.7758 689.1573 355.8876 690.4986 356.4464 695.4165 356.5582 700.6697 356.1111 702.1228 355.1052 703.5758 352.8697 705.3641 351.1932 706.1465 349.8519 706.4818 335.9923 706.1465 332.6392 702.2345 331.4097 699.7756 331.2979 698.5461 330.9626 693.5164 330.7391 692.2869 330.1802 690.3868 329.6213 689.1573 328.7272 687.7043 327.4977 686.363 326.7153 685.2453 315.8735 673.2858 312.4086 666.8031 311.8497 666.0207 309.9496 664.903 300.2255 661.1028 294.4134 659.6497 287.4836 659.3144 286.0306 658.7556 284.354 657.9732 282.2304 655.9613 281.3362 654.5083 280.7773 653.167 280.2185 649.5903 279.5479 647.4667 278.5419 645.6783 277.3124 644.0018 276.4183 643.4429 274.4064 642.5487 264.347 640.2015 258.5349 639.4191 249.0343 640.7604 247.0224 640.3133 239.8691 636.1778 231.598 627.9067 231.598 626.6772 230.7039 620.418 231.0392 617.9591 227.2389 616.3943 225.5624 617.1767 223.774 617.0649 222.5446 615.8354 222.5446 613.4882 223.4387 612.5941 226.5683 612.147 227.9096 611.2528 230.2568 608.7938 233.1628 606.3349 236.2924 604.323 239.3102 603.5406 242.5516 604.2112 249.8167 607.229 253.1699 607.8997 257.1936 607.8997 259.3173 607.4526 259.429 605.9996 256.8583 602.87 256.523 600.8581 259.5408 600.0757 263.341 599.8521 265.8 599.2933 265.6882 598.3991 265.0176 596.7226 265.0176 594.9342 267.0295 593.4812 268.8178 593.593 270.3826 594.5989 271.5003 595.8284 272.5063 596.3872 275.4123 598.958 277.0889 599.5168 277.8713 597.1696 276.9771 593.2576 276.8653 591.134 277.8713 589.2339 280.8891 588.3397 284.1305 589.0103 286.3659 588.2279 286.3659 584.8748 286.2541 583.5336 288.266 578.9509 289.8308 577.2744 292.178 575.0389 295.3076 573.6977 300.4491 573.4741 303.914 571.9094 305.9259 569.3386 309.0554 568.3327 312.4086 569.3386 317.6618 572.4682 320.9032 571.6858 324.2563 569.1151 327.1624 567.7738 331.4097 566.9914 334.8746 566.8796 338.0042 566.9914 342.3633 566.4326 346.8341 566.7679 350.5226 568.8915 354.3228 572.8035 358.123 573.1388 359.9113 569.3386 361.2526 567.3267 366.0587 563.4147 371.7591 563.8618 377.6829 565.2031 384.3892 565.4266 390.0895 565.0913 391.0955 559.0557 394.2251 553.5789 397.4664 549.108 399.8136 544.8607 407.5259 543.743 414.791 540.9487 420.9384 540.6134 427.0858 539.4957 431.892 533.9072 436.8099 528.9892 439.2689 525.0772 442.2867 521.6123 446.534 519.3769 450.2224 519.1534 454.5815 524.0713 459.2759 525.6361 463.0761 522.9536 465.8704 520.2711 466.7646 516.8062 467.6587 514.3472 469.3353 512.4471 469.2235 509.541 467.8823 505.629 468.2176 503.1701 470.2295 502.0524 473.6944 502.3877 477.3828 505.629 480.2889 507.7527 483.5303 507.4174 486.4363 506.0761 488.6717 500.0405 490.9072 497.1344 493.7014 496.7991 497.5017 498.4757 501.5254 499.4816 505.9963 500.0405 509.9083 499.5934 513.5967 498.4757 515.9439 495.6814 516.6145 492.2165 517.5087 489.1987 517.9558 486.2926 519.6323 484.0572 522.3149 482.716 525.3327 483.4983 526.8975 484.9514 527.2328 488.3045 527.5681 489.4222 528.2387 490.5399 529.58 491.7694 530.5859 491.8812 531.7036 491.7694 532.9331 491.993 539.0805 495.5696 539.8629 496.4638 540.5336 497.2462 541.9866 497.4697 547.4634 496.4638 551.04 503.2818 551.8224 507.8645 551.9342 510.3234 551.7107 513.0059 549.2517 523.9595 546.7927 530.4422 546.2339 532.7894 546.2339 535.2484 546.4574 536.4779 551.04 547.0961 551.2636 548.3256 551.2636 549.5551 550.9283 550.6728 550.2576 551.4552 549.3635 551.9023 547.0163 552.3494 546.1221 552.7965 545.3397 553.4671 544.7809 554.3613 544.5573 555.479 544.8926 557.0438 545.675 558.7204 548.5811 563.1912 549.2517 564.6442 549.587 565.6502 549.6988 566.8796 549.3635 570.7916 548.3575 575.8213 548.3575 577.0508 548.8046 579.2862 549.587 581.6334 551.5989 584.9866 554.8403 588.7868 557.1875 590.7987 573.8414 601.6405 574.4002 602.0876 574.4002 602.1993 576.4121 605.1054 577.0827 605.8878 578.8711 606.3349 581.6653 606.5584 594.2955 606.1113 603.349 607.3408Z" />
  <path class="Flores" d="M348.2871 792.0986L329.0625 782.2627 323.6975 780.9215 316.5441 786.8453 312.9674 788.969 308.9437 790.5338 296.8724 793.5516 296.09 793.9987 295.6429 794.334 292.7369 796.793 285.4717 805.7347 284.0187 806.7406 281.895 807.7465 277.6477 809.4231 275.1888 810.0937 273.1769 810.2055 247.8048 805.2876 240.3162 804.8405 238.8631 802.4933 235.8453 798.246 235.2865 797.3518 234.9512 796.3459 234.2805 794.2222 233.4981 788.8572 233.051 787.4042 232.604 786.1747 231.9333 783.7157 231.3745 780.5861 231.1509 779.4684 229.0273 774.4387 221.6504 761.8086 221.4268 761.0262 221.2033 760.3556 221.3151 757.673 223.8858 736.9954 224.2211 735.7659 224.6682 734.6482 225.1153 733.754 225.4506 732.7481 225.7859 731.6304 225.7859 730.2891 225.2271 728.9479 224.3329 728.1655 223.327 727.4948 218.5208 726.2653 217.4031 725.8183 215.7265 724.5888 214.1617 723.2475 210.585 718.2178 209.8026 717.5472 209.132 716.7648 208.5732 715.8706 208.2378 714.5294 208.0143 712.9646 207.9025 710.5056 207.4554 707.7113 207.3437 707.1525 207.2319 707.1525 207.2319 707.0407 204.3259 703.3523 203.8788 702.4581 203.5435 701.3404 201.5316 692.3987 201.1963 691.3927 200.6374 690.4986 199.9668 689.7162 199.1844 689.0455 194.6018 686.0277 193.9311 685.2453 193.484 684.3512 193.037 683.2334 192.8134 681.8922 192.9252 679.9921 194.8253 676.6389 213.2675 654.5083 215.503 652.4964 228.1331 636.5131 229.2508 634.5012 231.598 627.9067 239.8691 636.1778 247.0224 640.3133 249.0343 640.7604 258.5349 639.4191 264.347 640.2015 274.4064 642.5487 276.4183 643.4429 277.3124 644.0018 278.5419 645.6783 279.5479 647.4667 280.2185 649.5903 280.7773 653.167 281.3362 654.5083 282.2304 655.9613 284.354 657.9732 286.0306 658.7556 287.4836 659.3144 294.4134 659.6497 300.2255 661.1028 309.9496 664.903 311.8497 666.0207 312.4086 666.8031 315.8735 673.2858 326.7153 685.2453 327.4977 686.363 328.7272 687.7043 329.6213 689.1573 330.1802 690.3868 330.7391 692.2869 330.9626 693.5164 331.2979 698.5461 331.4097 699.7756 332.6392 702.2345 335.9923 706.1465 338.6748 711.7351 348.6224 748.5078 351.305 752.5316 354.3228 758.4554 355.1052 760.6909 355.4405 762.591 354.4345 782.2627 354.3228 783.604 353.9875 784.8334 353.5404 785.9512 353.0933 786.9571 352.5344 787.8513 351.8638 788.7454 350.4108 790.3102 348.2871 792.0986Z" />
  <path class="Florida" d="M585.5773 626.9008L587.1421 638.3014 587.3657 645.5666 589.0422 655.0671 588.8187 657.079 588.1481 659.7615 586.248 664.7912 584.9067 667.0266 583.789 668.3679 581.1065 670.1562 580.4359 670.9386 579.877 671.8328 579.3182 672.9505 578.9828 674.2917 579.3182 676.4154 579.6535 677.8684 583.2301 682.2275 584.3479 683.9041 585.242 685.6924 585.5773 686.6983 585.8009 687.9278 586.0244 691.7281 585.8009 694.5223 585.242 696.1989 584.3479 697.9872 582.336 700.558 581.2183 701.6757 580.2123 702.4581 574.1767 704.5817 572.3883 705.5877 570.9353 706.5936 570.4882 707.1525 570.3765 707.2642 570.2647 707.376 569.8176 707.8231 568.9234 709.2761 567.8057 711.8469 564.6761 720.565 563.782 721.9063 562.1054 723.6946 560.8759 724.7006 559.7582 725.4829 557.8581 726.2653 552.2695 727.7184 550.2576 728.5008 549.4752 729.1714 548.5811 730.2891 547.9105 731.9657 547.3516 735.3188 547.2398 737.2189 547.4634 738.6719 547.7987 739.6779 548.3575 740.6838 552.7166 747.7254 553.1637 748.6196 553.6108 749.7373 553.8343 750.855 553.8343 752.0845 553.8343 753.4257 553.3872 758.9025 552.7166 761.585 546.7927 775.2211 546.1221 777.3448 545.675 784.2746 545.1162 785.8394 544.1102 787.4042 541.8748 789.4161 538.4099 791.6515 536.8451 793.1045 536.1745 793.8869 534.7215 796.4576 532.486 802.158 530.5859 804.8405 528.574 806.9641 527.3446 808.6407 526.5622 809.982 525.8915 812.6645 525.8915 812.7762 525.8915 814.341 525.8915 815.4587 525.668 816.8 525.3327 817.9177 524.5503 819.1472 523.4326 820.4884 514.938 827.9771 512.9261 830.2125 512.0319 831.5538 511.026 833.4539 509.5729 837.0306 508.4552 840.8308 507.6728 842.5074 506.4433 844.1839 501.5254 849.4372 496.3839 856.7023 474.365 859.8319 469.5589 861.5085 457.5993 868.8854 456.1463 869.4442 454.1344 870.0031 450.2224 870.5619 448.0988 870.4502 446.6458 870.2266 437.3688 865.644 433.7921 864.5263 431.4449 864.4145 429.7683 864.5263 414.1204 874.921 412.4438 876.2623 411.3261 877.4917 410.879 878.6095 408.6436 885.4275 407.0788 888.4453 405.7375 890.1219 403.9492 890.9043 395.231 892.9162 392.2132 893.0279 390.2013 892.8044 382.4891 888.4453 380.4772 887.7747 378.6889 887.5512 376.1182 887.4394 370.8649 887.7747 367.9589 888.5571 365.7234 889.4513 363.9351 890.569 362.1468 893.8103 359.0172 904.6521 357.7877 901.8579 356.8935 900.6284 347.1694 890.1219 346.8341 889.116 346.8341 887.7747 347.5047 885.9864 348.3989 884.8686 349.2931 884.198 352.6462 882.4097 353.4286 881.7391 354.0992 880.8449 354.6581 879.8389 354.9934 877.8271 355.7758 863.7439 355.5523 861.732 354.6581 858.6024 351.5285 850.4431 351.1932 849.3254 351.1932 847.9842 351.6403 846.4194 352.0873 845.1899 355.8876 838.3718 356.3347 837.3659 356.67 835.5776 356.7817 833.2304 355.9993 824.4004 350.6343 798.9166 348.2871 792.0986 350.4108 790.3102 351.8638 788.7454 352.5344 787.8513 353.0933 786.9571 353.5404 785.9512 353.9875 784.8334 354.3228 783.604 354.4345 782.2627 355.4405 762.591 355.1052 760.6909 354.3228 758.4554 351.305 752.5316 348.6224 748.5078 338.6748 711.7351 335.9923 706.1465 349.8519 706.4818 351.1932 706.1465 352.8697 705.3641 355.1052 703.5758 356.1111 702.1228 356.5582 700.6697 356.4464 695.4165 355.8876 690.4986 355.7758 689.1573 355.8876 687.9278 356.3347 686.9219 357.3406 686.363 359.0172 686.8101 360.1349 687.369 361.5879 688.9338 362.4821 689.6044 365.0528 691.3927 367.1765 692.3987 368.2942 692.6222 369.6354 692.8458 377.7947 691.8398 379.136 691.8398 380.3655 692.1751 381.1479 692.734 381.8185 693.5164 382.3773 694.4106 382.8244 695.4165 384.1657 699.6638 384.6128 700.558 385.1716 701.4521 385.954 702.011 386.96 702.5699 388.0777 703.0169 389.3072 703.2405 399.2548 702.4581 404.1727 703.0169 412.6673 705.5877 414.0086 705.4759 415.3498 704.9171 417.0264 703.3523 420.7149 700.6697 421.7208 699.4403 422.2796 698.2108 422.7267 695.7518 423.1738 694.6341 424.068 693.8517 425.7446 693.1811 431.6684 692.6222 440.8337 690.8339 442.0631 690.8339 443.4044 690.9457 444.5221 691.281 447.4282 692.8458 448.4341 693.2928 449.6636 693.5164 452.2343 693.6282 453.4638 693.5164 459.3877 691.6163 470.2295 686.6983 474.8121 683.6805 476.4887 682.2275 477.6064 680.8862 478.1652 679.9921 479.0594 679.2097 480.2889 678.6508 482.4125 678.3155 484.0891 678.4273 490.5718 679.545 491.8013 679.545 495.8251 677.8684 529.3564 658.8673 532.8213 654.3965 534.2744 652.8317 543.8867 647.802 547.7987 645.2312 551.7107 643.3311 553.2755 643.4429 554.505 643.7782 557.411 645.343 558.5287 645.6783 559.7582 645.7901 561.6583 644.8959 564.0055 643.1076 573.7296 633.8306 576.6356 631.8187 585.5773 626.9008Z" />
  <path class="Lavalleja" d="M758.5991 699.8873L757.705 700.7815 756.699 701.5639 755.4695 702.2345 751.334 702.9052 747.1985 703.0169 744.0689 704.47 740.2686 717.4354 733.6741 723.4711 719.591 731.7421 715.7908 735.8777 714.226 739.119 713.4436 743.4781 715.1201 755.5494 714.7848 757.3377 714.0024 759.6849 710.0904 766.0559 708.9727 767.5089 708.3021 768.7384 707.7432 770.5267 707.0726 773.8799 706.7373 780.2508 706.2902 782.7098 705.6196 784.051 700.2546 790.1985 696.0073 797.0165 688.6304 802.6051 686.7303 805.5111 686.3949 806.7406 686.1714 808.0818 684.7184 812.888 682.4829 817.6942 681.1417 819.8178 679.8004 821.1591 675.7767 822.7239 667.1703 823.8416 665.382 824.5122 663.2583 825.5182 659.5699 827.9771 657.8933 829.5419 656.8873 830.8832 656.4403 832.0009 655.6579 833.6774 650.6282 841.3897 648.0574 847.3135 644.2572 853.7963 643.6983 855.4728 643.8101 856.1435 644.2572 857.7083 644.369 858.3789 644.4807 859.273 644.4807 860.3908 644.369 861.6202 644.0337 862.738 643.4748 867.097 642.8042 869.2207 642.0218 870.5619 640.7923 871.5679 639.2275 872.7974 638.2216 873.9151 637.6627 875.1446 634.6449 885.7628 634.086 888.3336 633.7507 892.9162 633.1919 895.0398 632.4095 896.1575 631.4035 896.8282 628.2739 898.393 625.5914 900.6284 624.0266 901.7461 622.4618 902.305 619.3322 902.752 613.8554 905.6581 611.7318 906.3287 607.9316 906.7758 605.5844 908.1171 602.343 910.576 592.6189 919.7413 590.4953 921.4178 589.3776 921.7531 587.0304 922.0884 581.5536 921.6414 578.9828 921.7531 577.7534 921.9767 575.6297 922.6473 555.7344 939.6365 554.3932 940.4189 550.2576 942.4308 545.675 943.5485 521.9795 944.8898 521.9795 938.9659 520.9736 935.8363 518.1793 930.3595 510.9142 921.4178 509.9083 919.7413 509.5729 918.8471 509.3494 914.2645 509.4612 912.3644 511.5848 901.7461 511.6966 900.4048 511.473 898.6165 510.8024 896.6046 503.5373 882.9685 501.1901 876.0387 496.3839 856.7023 501.5254 849.4372 506.4433 844.1839 507.6728 842.5074 508.4552 840.8308 509.5729 837.0306 511.026 833.4539 512.0319 831.5538 512.9261 830.2125 514.938 827.9771 523.4326 820.4884 524.5503 819.1472 525.3327 817.9177 525.668 816.8 525.8915 815.4587 525.8915 814.341 525.8915 812.7762 525.8915 812.6645 526.5622 809.982 527.3446 808.6407 528.574 806.9641 530.5859 804.8405 532.486 802.158 534.7215 796.4576 536.1745 793.8869 536.8451 793.1045 538.4099 791.6515 541.8748 789.4161 544.1102 787.4042 545.1162 785.8394 545.675 784.2746 546.1221 777.3448 546.7927 775.2211 552.7166 761.585 553.3872 758.9025 553.8343 753.4257 553.8343 752.0845 553.8343 750.855 553.6108 749.7373 553.1637 748.6196 552.7166 747.7254 548.3575 740.6838 547.7987 739.6779 547.4634 738.6719 547.2398 737.2189 547.3516 735.3188 547.9105 731.9657 548.5811 730.2891 549.4752 729.1714 550.2576 728.5008 552.2695 727.7184 557.8581 726.2653 559.7582 725.4829 560.8759 724.7006 562.1054 723.6946 563.782 721.9063 564.6761 720.565 567.8057 711.8469 568.9234 709.2761 569.8176 707.8231 570.2647 707.376 570.3765 707.2642 570.4882 707.1525 570.9353 706.5936 572.3883 705.5877 574.1767 704.5817 580.2123 702.4581 581.2183 701.6757 582.336 700.558 584.3479 697.9872 585.242 696.1989 585.8009 694.5223 586.0244 691.7281 585.8009 687.9278 585.5773 686.6983 585.242 685.6924 584.3479 683.9041 583.2301 682.2275 591.8365 677.1978 595.1897 675.633 604.3549 674.0682 605.2491 673.9564 605.8079 674.18 607.4845 675.0741 610.9494 676.0801 611.9553 676.6389 612.626 677.3096 613.8554 678.092 615.4202 678.7626 618.4381 679.2097 620.2264 679.0979 621.5677 678.7626 629.3916 674.7388 633.9743 672.9505 635.6508 672.8387 636.9921 673.0623 639.6746 674.0682 641.91 674.6271 643.2513 675.1859 644.369 675.9683 649.1751 681.1098 655.2108 685.2453 660.464 686.6983 674.7707 689.0455 675.8884 689.3809 676.8944 689.8279 679.2416 691.8398 680.1358 692.3987 692.0953 696.1989 694.2189 696.4224 695.7837 696.3107 702.7135 693.4046 703.6077 692.8458 704.3901 692.1751 705.0607 691.3927 705.6196 690.6103 706.5138 688.4867 707.0726 686.1395 707.4079 685.0218 708.0785 684.1276 708.8609 683.457 709.7551 682.8981 711.767 682.1157 712.6612 681.5569 718.3615 677.086 719.8145 676.5272 724.8442 675.1859 726.8561 675.1859 728.5327 675.2977 729.5386 675.7448 730.321 676.4154 730.8799 677.3096 732.6682 681.2216 735.2389 685.6924 738.0332 688.7102 739.4862 689.9397 743.2865 692.1751 749.6574 694.7459 754.24 697.7637 758.5991 699.8873Z" />
  <path class="Maldonado" d="M696.0073 797.0165L699.6957 832.895 699.5839 833.901 699.1369 836.1364 698.8015 837.3659 696.7897 841.3897 696.3426 842.5074 696.0073 843.7369 694.2189 855.3611 694.666 868.4383 695.3366 872.015 695.7837 876.9329 695.1131 889.6748 694.2189 895.7105 693.7718 896.3811 693.3248 896.7164 692.5424 896.9399 691.5364 896.7164 690.5305 896.3811 689.4128 896.3811 688.1833 896.9399 686.842 899.6224 686.3949 902.1932 686.1714 906.3287 686.3949 908.4524 686.7303 909.9054 687.9597 911.6937 688.5186 913.035 688.8539 914.9351 689.301 920.5237 689.5245 922.0884 690.0834 922.9826 691.6482 924.8827 692.3188 926.224 693.1012 928.7947 693.213 930.5831 692.9894 932.0361 692.7659 933.2656 691.8717 935.501 689.1892 940.1954 688.6304 941.6484 687.0656 947.3487 686.6185 952.0431 687.0656 960.5377 687.4009 962.9967 689.7481 970.9325 689.8598 972.0502 689.7481 973.0561 689.301 973.9503 687.9597 975.7386 687.1773 976.9681 686.5067 979.0917 686.3949 980.7683 686.6185 981.9978 687.4009 984.2332 687.5127 984.4568 685.5008 985.4627 674.5472 988.5923 668.9586 993.3985 665.2702 995.075 657.8933 997.3105 627.3798 1012.0642 623.6913 1012.7349 620.2264 1013.9644 615.7556 1019.3294 612.4024 1020 613.1848 1017.8763 613.5201 1016.5351 613.5201 1015.6409 611.7318 1012.8466 609.3846 1010.3877 606.255 1008.8229 599.3252 1007.9287 598.8781 1007.0345 598.9899 1005.6933 597.8722 1003.7932 596.0838 1002.4519 594.519 1001.6695 590.607 1000.8871 582.336 1001.3342 566.1292 1005.1344 559.4229 1003.7932 554.8403 999.2106 545.675 986.9157 539.4158 983.5626 539.3041 981.886 538.9688 980.3212 537.5157 977.4152 534.0508 972.2737 532.7096 970.9325 532.1507 969.9265 531.5919 968.8088 531.4801 967.0205 531.5919 965.5674 532.486 960.3142 532.1507 958.8612 531.2565 957.2964 529.0211 955.2845 526.4504 953.2726 524.662 950.9254 521.9795 944.8898 545.675 943.5485 550.2576 942.4308 554.3932 940.4189 555.7344 939.6365 575.6297 922.6473 577.7534 921.9767 578.9828 921.7531 581.5536 921.6414 587.0304 922.0884 589.3776 921.7531 590.4953 921.4178 592.6189 919.7413 602.343 910.576 605.5844 908.1171 607.9316 906.7758 611.7318 906.3287 613.8554 905.6581 619.3322 902.752 622.4618 902.305 624.0266 901.7461 625.5914 900.6284 628.2739 898.393 631.4035 896.8282 632.4095 896.1575 633.1919 895.0398 633.7507 892.9162 634.086 888.3336 634.6449 885.7628 637.6627 875.1446 638.2216 873.9151 639.2275 872.7974 640.7923 871.5679 642.0218 870.5619 642.8042 869.2207 643.4748 867.097 644.0337 862.738 644.369 861.6202 644.4807 860.3908 644.4807 859.273 644.369 858.3789 644.2572 857.7083 643.8101 856.1435 643.6983 855.4728 644.2572 853.7963 648.0574 847.3135 650.6282 841.3897 655.6579 833.6774 656.4403 832.0009 656.8873 830.8832 657.8933 829.5419 659.5699 827.9771 663.2583 825.5182 665.382 824.5122 667.1703 823.8416 675.7767 822.7239 679.8004 821.1591 681.1417 819.8178 682.4829 817.6942 684.7184 812.888 686.1714 808.0818 686.3949 806.7406 686.7303 805.5111 688.6304 802.6051 696.0073 797.0165Z" />
  <path class="Montevideo" d="M365.6117 968.8088L371.4238 965.3439 374.5534 964.4497 376.1182 964.4497 378.0183 964.785 379.2477 965.2321 380.2537 965.9028 381.7067 967.4675 382.2656 968.2499 384.2774 971.8266 385.0598 972.609 386.1776 973.3914 388.7483 974.7327 390.2013 975.1798 391.0955 975.2915 392.9956 974.6209 393.8898 974.062 394.6722 973.3914 395.4546 972.7208 396.1252 971.8266 397.3547 970.0383 398.4724 968.9206 400.149 968.0264 403.7256 966.7969 405.2904 966.9087 406.2964 967.1322 407.0788 968.5853 407.4141 969.5912 408.42 971.6031 409.2024 972.2737 410.2084 972.8326 411.2143 973.1679 411.9967 973.7267 412.332 974.1738 412.8909 975.068 413.5615 976.0739 415.0145 977.3034 416.3558 977.527 417.8088 977.4152 419.2618 977.0799 421.609 976.9681 422.7267 977.527 423.1738 978.5329 423.1738 979.8741 422.5032 982.2213 420.6031 986.5804 420.3795 987.6981 420.2678 989.1512 420.2678 993.1749 420.8266 997.1987 421.4972 999.3223 422.7267 1001.3342 417.2499 1004.5756 410.9908 1004.0167 405.7375 1007.0345 403.1668 1008.7111 402.1608 1013.182 398.3606 1007.8169 395.3428 1007.2581 392.1014 1006.0286 393.5545 1004.0167 393.778 1001.6695 391.8779 999.993 389.0836 999.5459 387.9659 1002.7872 384.501 1005.6933 382.8244 1005.6933 378.9124 1005.0227 374.8887 1005.6933 369.3001 1000.8871 358.7936 994.6279 355.9993 992.169 355.664 988.9276 358.6818 986.3569 361.5879 983.3391 366.0587 982.2213 365.4999 981.5507 366.5058 980.5448 366.9529 979.7624 367.2882 977.974 367.2882 976.4092 365.6117 968.8088Z" />
  <path class="Paysandú" d="M71.5417 292.4814L72.1006 292.2579 75.0066 290.8048 77.5773 290.0224 80.3716 290.3578 83.3894 291.1402 85.4013 291.1402 86.2955 290.9166 86.519 290.8048 86.519 290.6931 86.7426 288.6812 86.8543 287.6752 87.4132 286.8928 88.3074 286.334 94.7901 284.6574 96.1314 284.6574 97.9197 284.9927 102.6141 286.7811 114.2383 293.3756 115.6913 294.7168 116.3619 295.4992 116.809 296.3934 119.0444 303.5468 119.4915 304.5527 119.9386 305.4469 120.6092 306.2293 121.3916 306.8999 122.2858 307.347 123.6271 307.9058 149.4462 313.4944 161.9646 319.9771 167.8884 324.2244 169.7886 325.3421 173.9241 326.9069 178.1714 327.5776 183.2011 327.6893 186.3307 328.4717 188.2308 329.2541 189.0132 330.0365 192.9252 336.0722 194.1547 337.5252 196.5019 339.4253 200.5256 341.4372 214.497 345.4609 216.3971 346.4669 222.8799 351.4966 224.8917 352.0554 239.7573 353.8438 241.9927 354.5144 243.5575 354.5144 245.2341 354.2909 247.6931 353.3967 249.0343 352.6143 250.0403 351.8319 250.8227 351.273 251.9404 350.826 253.2816 350.826 260.9938 353.732 264.5705 354.6262 266.5824 354.6262 281.7833 351.273 283.9069 351.273 286.9248 351.7201 288.6013 352.1672 289.8308 352.8378 293.2957 355.185 294.3017 355.5204 295.5311 355.7439 302.908 355.8557 304.8081 356.0792 306.2612 356.5263 315.0911 362.2266 317.3265 362.8972 318.556 363.1208 327.6095 363.4561 340.1278 367.2563 341.2455 367.3681 343.1457 367.3681 346.0517 366.8092 348.2871 366.0268 349.2931 365.2444 350.1872 364.3503 350.9696 362.5619 351.4167 361.6678 351.8638 359.3206 352.9815 357.7558 358.3465 352.0554 359.9113 349.9318 360.8055 348.1435 361.1408 347.0257 363.8233 345.0139 373.1003 342.5549 378.8007 349.4847 379.6948 351.273 380.3655 353.3967 380.4772 354.738 380.1419 359.2088 380.3655 364.015 380.8125 365.6915 381.2596 366.921 385.5069 372.1743 386.1776 373.4037 386.5129 374.745 386.4011 376.198 385.954 377.3157 385.3952 377.8746 384.6128 378.0981 383.048 378.4334 381.2596 379.1041 380.3655 379.5512 379.5831 380.2218 379.0242 381.6748 378.5771 383.7985 378.6889 392.6284 378.5771 393.9696 378.5771 394.0814 377.7947 402.7996 376.5652 407.1586 375.6711 409.2823 373.6592 412.859 372.8768 415.3179 367.8471 438.4546 366.5058 442.0312 361.2526 448.2904 355.3287 453.7672 348.846 458.5734 343.5927 463.3795 340.6867 467.9622 331.2979 496.2403 325.7094 493.2224 323.3622 491.6576 313.6381 483.4983 311.8497 482.3806 302.2374 479.3628 299.1078 478.9157 297.8783 479.0275 295.7547 479.5864 294.0781 479.6981 291.7309 479.4746 284.9129 478.2451 283.0128 478.0216 278.6537 479.1393 274.8535 479.3628 270.9415 479.1393 266.6942 478.0216 261.1056 474.6684 251.4933 470.1976 248.9226 469.527 247.0224 469.4152 246.1283 469.7505 244.3399 470.6447 240.9868 473.2154 239.1985 474.2213 238.3043 474.5567 235.9571 475.0037 224.8917 475.1155 223.2152 475.5626 221.3151 476.4568 209.8026 484.8396 208.5732 485.3985 206.7848 485.8455 203.6552 486.4044 201.8669 486.1809 200.3021 485.7338 196.5019 483.9454 194.9371 483.8337 193.7076 484.0572 191.0251 485.622 188.0073 486.7397 183.4246 487.5221 181.7481 487.4103 175.4889 486.2926 173.1417 486.1809 171.3534 486.4044 170.4592 486.8515 168.8944 488.081 167.5531 489.534 166.9943 490.3164 165.3177 491.8812 164.5353 492.3283 160.3998 493.6695 159.3938 494.1166 158.6114 494.6755 157.9408 495.4579 157.0466 497.1344 156.9349 497.5815 156.8231 497.6933 155.7054 500.7111 155.1465 501.7171 153.9171 503.3936 153.2464 504.0642 151.4581 505.2937 120.9446 509.8763 120.1622 510.547 119.6033 511.4411 119.1562 512.4471 118.9327 513.6766 118.262 517.9239 117.4796 519.0416 116.1384 520.1593 113.5677 521.3888 112.0029 521.6123 110.6616 521.277 109.7674 520.7182 94.343 519.1534 92.2194 518.7063 90.431 517.4768 86.8543 516.4708 82.607 516.0238 80.4834 515.4649 79.1421 514.9061 78.695 514.2354 78.4715 513.7883 77.3538 510.2117 76.4596 508.4233 75.789 507.5292 75.1184 506.8585 71.2064 504.7349 70.424 504.176 69.6416 503.5054 64.8354 497.8051 64.2766 497.1344 63.4942 496.4638 62.3765 495.6814 60.3646 494.899 58.9116 494.5637 49.9699 495.1226 44.8284 496.1285 44.7166 496.1285 43.7107 491.5459 43.2636 486.8515 43.2636 486.7397 43.2636 486.2926 45.0519 484.0572 49.411 474.7802 60.5881 458.5734 61.4823 452.2024 59.5822 446.1668 47.6227 430.0717 45.6108 425.7127 46.6167 421.4653 50.5287 414.9826 52.3171 407.0469 52.8759 397.6581 52.2053 388.8282 50.5287 382.3454 44.9402 376.0862 42.8165 371.8389 43.9342 367.5916 48.7404 362.1149 51.5347 360.103 55.4466 358.4264 63.7177 356.7498 67.965 354.9615 69.7534 352.0554 80.3716 320.2007 81.9364 311.1472 80.7069 301.8702 76.0125 296.0581 71.5417 292.4814Z" />
  <path class="Río Negro" d="M44.7166 496.1285L44.8284 496.1285 49.9699 495.1226 58.9116 494.5637 60.3646 494.899 62.3765 495.6814 63.4942 496.4638 64.2766 497.1344 64.8354 497.8051 69.6416 503.5054 70.424 504.176 71.2064 504.7349 75.1184 506.8585 75.789 507.5292 76.4596 508.4233 77.3538 510.2117 78.4715 513.7883 78.695 514.2354 79.1421 514.9061 80.4834 515.4649 82.607 516.0238 86.8543 516.4708 90.431 517.4768 92.2194 518.7063 94.343 519.1534 109.7674 520.7182 110.6616 521.277 112.0029 521.6123 113.5677 521.3888 116.1384 520.1593 117.4796 519.0416 118.262 517.9239 118.9327 513.6766 119.1562 512.4471 119.6033 511.4411 120.1622 510.547 120.9446 509.8763 151.4581 505.2937 153.2464 504.0642 153.9171 503.3936 155.1465 501.7171 155.7054 500.7111 156.8231 497.6933 156.9349 497.5815 157.0466 497.1344 157.9408 495.4579 158.6114 494.6755 159.3938 494.1166 160.3998 493.6695 164.5353 492.3283 165.3177 491.8812 166.9943 490.3164 167.5531 489.534 168.8944 488.081 170.4592 486.8515 171.3534 486.4044 173.1417 486.1809 175.4889 486.2926 181.7481 487.4103 183.4246 487.5221 188.0073 486.7397 191.0251 485.622 193.7076 484.0572 194.9371 483.8337 196.5019 483.9454 200.3021 485.7338 201.8669 486.1809 203.6552 486.4044 206.7848 485.8455 208.5732 485.3985 209.8026 484.8396 221.3151 476.4568 223.2152 475.5626 224.8917 475.1155 235.9571 475.0037 238.3043 474.5567 239.1985 474.2213 240.9868 473.2154 244.3399 470.6447 246.1283 469.7505 247.0224 469.4152 248.9226 469.527 251.4933 470.1976 261.1056 474.6684 266.6942 478.0216 270.9415 479.1393 274.8535 479.3628 278.6537 479.1393 283.0128 478.0216 284.9129 478.2451 291.7309 479.4746 294.0781 479.6981 295.7547 479.5864 297.8783 479.0275 299.1078 478.9157 302.2374 479.3628 311.8497 482.3806 313.6381 483.4983 323.3622 491.6576 325.7094 493.2224 331.2979 496.2403 330.5155 505.7408 324.927 528.9892 324.2563 532.007 320.7914 536.1426 319.0031 539.2722 318.3325 543.1842 318.3325 545.7549 318.7795 549.8904 316.9912 556.932 313.9734 563.1912 312.4086 569.3386 309.0554 568.3327 305.9259 569.3386 303.914 571.9094 300.4491 573.4741 295.3076 573.6977 292.178 575.0389 289.8308 577.2744 288.266 578.9509 286.2541 583.5336 286.3659 584.8748 286.3659 588.2279 284.1305 589.0103 280.8891 588.3397 277.8713 589.2339 276.8653 591.134 276.9771 593.2576 277.8713 597.1696 277.0889 599.5168 275.4123 598.958 272.5063 596.3872 271.5003 595.8284 270.3826 594.5989 268.8178 593.593 267.0295 593.4812 265.0176 594.9342 265.0176 596.7226 265.6882 598.3991 265.8 599.2933 263.341 599.8521 259.5408 600.0757 256.523 600.8581 256.8583 602.87 259.429 605.9996 259.3173 607.4526 257.1936 607.8997 253.1699 607.8997 249.8167 607.229 242.5516 604.2112 239.3102 603.5406 236.2924 604.323 233.1628 606.3349 230.2568 608.7938 227.9096 611.2528 226.5683 612.147 223.4387 612.5941 222.5446 613.4882 222.5446 615.8354 223.774 617.0649 225.5624 617.1767 227.2389 616.3943 231.0392 617.9591 230.7039 620.418 231.598 626.6772 231.598 627.9067 230.0332 628.5773 225.6741 631.2598 217.8502 634.7248 215.8383 635.0601 213.8264 634.1659 212.8205 631.9305 211.8145 626.3419 210.0262 629.1362 207.1201 632.154 204.4376 632.9364 202.5375 624.6653 200.4139 622.2064 197.2843 620.5298 190.1309 618.0708 188.3426 617.7355 186.4425 617.9591 184.3188 618.8532 180.7421 621.5358 178.6185 622.0946 176.7184 621.2004 175.8242 619.1886 175.6007 616.6178 175.6007 614.2706 174.93 612.5941 173.3652 611.3646 165.653 607.229 161.741 606.6702 157.9408 607.4526 154.5877 609.9116 153.2464 610.4704 147.4343 612.0352 146.2048 613.0411 144.4165 617.6238 143.187 619.1886 139.7221 619.971 133.0158 617.1767 127.7626 615.9472 125.1919 613.9353 123.2917 613.4882 121.1681 613.8235 117.4796 614.8295 115.356 614.9413 112.6735 613.9353 107.7556 611.0293 104.626 610.4704 101.4964 611.4763 99.3727 613.2647 97.5844 615.6119 95.1254 617.9591 92.4429 619.0768 87.1897 620.418 85.5131 622.0946 84.8425 625.336 85.2895 627.7949 84.5072 629.5833 80.5952 630.5892 77.5773 630.1421 75.0066 629.248 72.5476 628.5773 69.6416 629.3597 67.8532 630.9245 67.7415 632.3776 69.6416 636.5131 69.7534 637.9661 69.6416 639.8662 69.6416 641.431 70.6475 642.6605 72.8829 644.7842 73.4418 645.1195 73.6653 648.5844 72.8829 652.0493 71.5417 653.8376 69.6416 652.2728 68.7474 652.1611 65.7296 649.255 63.7177 648.0255 57.7938 651.1551 55.8937 653.0552 55.3349 655.1789 55.3349 663.1146 54.5525 666.6913 52.5406 667.5855 47.5109 666.8031 39.1281 666.8031 35.8867 668.815 26.3861 681.2216 9.6205 691.1692 9.6205 691.281 5.932 688.1514 4.8143 684.0158 5.932 680.1039 8.6145 676.7507 14.9855 670.4915 16.7738 666.2442 17.1091 661.4381 14.0913 643.2194 13.9795 634.3894 16.662 627.6832 23.9272 625.0007 40.2458 625.8948 47.7344 625.336 54.2172 622.0946 60.8117 615.9472 63.7177 612.147 64.8354 608.5703 65.1707 603.7641 65.9531 599.9639 68.5239 592.0282 69.8651 583.6453 68.3003 577.3861 64.8354 572.4682 57.235 564.4207 55.4466 560.844 54.4407 557.0438 54.2172 552.6847 54.5525 543.2959 54.2172 538.4898 52.8759 534.9131 54.2172 533.3483 52.6524 527.9833 50.7523 513.453 48.7404 510.4352 47.2873 507.1938 44.7166 496.1285Z" />
  <path class="Rivera" d="M427.7564 204.8528L432.1155 204.1822 443.6279 204.9646 449.1047 203.8469 453.352 203.8469 455.0286 203.3998 456.4816 202.2821 457.264 201.1644 457.9347 199.9349 458.9406 198.7054 461.7349 196.8053 468.4411 192.2227 471.0119 189.7637 472.4649 186.6341 474.2532 179.5925 476.6004 176.91 479.9536 176.4629 484.2009 177.3571 488.2246 177.6924 490.4601 175.5688 490.7954 171.6568 490.1248 163.2739 491.0189 159.5855 493.8132 156.903 497.5017 156.0088 501.1901 157.0147 506.108 162.8268 512.479 166.5153 515.2733 168.8625 519.1853 173.6686 527.3446 181.0455 540.4218 195.6876 542.9925 199.5996 543.8867 202.9527 544.5573 210.3296 545.7868 213.7945 547.6869 215.6946 553.499 219.6066 555.5109 222.7362 557.8581 231.2308 559.4229 234.9193 562.2172 238.2724 565.1232 240.0607 572.053 242.7432 575.2944 244.7551 583.6772 252.3556 587.1421 254.591 589.7129 255.1498 592.0601 253.8086 594.4073 250.5672 597.6486 243.9727 599.884 243.1903 603.0136 247.1023 605.9197 252.0202 610.3905 258.0559 615.532 263.0856 622.5736 266.4387 624.809 268.7859 626.8209 271.4684 629.0563 273.8156 631.4035 275.3804 636.7685 277.3923 665.829 281.6396 671.8647 281.6396 674.5472 282.422 676.7826 284.7692 679.9122 291.2519 681.9241 294.0462 691.2011 301.5349 693.7718 304.2174 695.7837 308.0176 696.5661 311.7061 696.7897 320.0889 698.578 324.5597 698.578 324.6715 697.6838 325.7892 695.3366 330.7072 694.7778 331.6013 693.5483 332.3837 691.76 334.2838 690.1952 336.631 689.301 338.6429 689.0774 343.5608 692.207 352.7261 692.9894 357.7558 692.0953 361.4442 687.9597 371.8389 685.5008 376.3098 683.2653 382.3454 677.3415 390.9518 680.1358 393.1872 683.0418 393.6343 685.1655 394.5285 685.8361 397.9934 684.7184 400.6759 680.2475 404.1408 678.571 406.5998 680.2475 409.9529 679.6887 413.6414 677.1179 416.6592 673.0942 418.0004 669.4057 418.4475 665.7173 419.4535 663.1465 416.5474 661.9171 414.6473 659.7934 409.8411 657.558 406.488 651.0752 400.0053 648.281 395.8697 640.9041 387.4869 637.8862 382.0101 635.3155 379.1041 630.5094 375.1921 629.8387 374.5215 626.262 369.4917 625.5914 368.8211 624.9208 368.1505 620.897 366.1386 613.2966 363.2326 611.1729 362.7855 597.6486 361.556 594.1837 360.4383 587.4774 357.3087 584.6832 356.7498 579.3182 356.5263 572.053 357.4205 561.2112 356.5263 543.9985 352.1672 538.9688 351.6084 536.398 351.8319 532.0389 352.8378 516.6145 353.9556 511.8084 353.3967 506.8904 352.279 505.6609 352.1672 504.5432 352.3908 501.6372 353.6202 500.5195 353.8438 499.29 353.8438 498.0605 353.732 496.7193 352.9496 495.378 351.7201 493.4779 348.9259 491.8013 345.908 491.1307 343.8961 491.0189 342.6667 491.3542 338.9782 491.2425 337.8605 490.7954 336.9663 489.7894 335.178 489.3424 334.2838 489.1188 333.1661 489.007 331.8249 489.2306 329.1424 489.7894 326.6834 491.2425 322.3243 491.466 321.0948 491.5778 319.8653 491.2425 318.7476 490.5718 316.7358 489.007 310.0295 488.2246 308.0176 487.2187 306.2293 486.101 305.3351 484.5362 304.2174 481.1831 302.7644 475.371 300.8642 474.1415 300.3054 472.8002 299.4112 466.9881 293.8227 466.2057 292.9285 465.7586 292.1461 465.088 290.8048 465.088 290.6931 464.6409 290.0224 462.0702 281.9749 461.9584 280.8572 462.182 276.9452 462.0702 274.3745 461.7349 273.2568 461.0642 271.2449 459.1641 267.5564 458.4935 266.6623 457.5993 265.6563 454.6933 263.4209 441.9514 258.0559 433.5685 253.2497 419.1501 241.7373 418.2559 241.2902 415.6851 240.6196 412.332 240.6196 411.1025 240.8431 408.1965 242.0726 405.9611 244.0845 401.8255 250.5672 400.2607 248.4436 397.4664 245.5375 396.9076 244.4198 396.4605 243.1903 396.5723 241.9608 396.684 240.7314 397.4664 239.3901 398.6959 237.7135 401.1549 236.037 403.5021 234.9193 415.6851 231.3426 417.9206 230.0013 419.7089 228.213 421.9443 223.9657 423.062 220.9479 427.7564 204.8528Z" />
  <path class="Rocha" d="M864.7817 628.3538L861.9875 637.9661 862.0992 653.3905 866.0112 685.0218 861.9875 719.7826 861.4286 738.5602 866.4583 747.2783 870.035 747.2783 873.1646 746.6077 876.0706 746.6077 878.8649 748.7314 880.5415 752.0845 881.8827 755.8847 884.0064 758.2319 889.7067 757.8966 886.6889 760.0202 883.4475 762.9263 877.0766 770.7503 873.1646 777.6801 870.9292 785.057 867.4642 802.6051 864.1111 813.2233 863.2169 822.9474 861.5404 825.9652 855.393 830.2125 852.3751 832.895 843.8805 843.9604 834.4917 851.2255 831.3622 854.914 825.103 867.3206 823.5382 869.4442 823.0911 871.7914 819.2909 883.9745 822.1969 891.7985 821.9734 895.5987 814.7083 897.8341 798.5014 906.9993 785.536 916.1646 758.8227 942.4308 756.5872 945.3369 755.9166 949.0253 756.0284 952.2667 755.0224 954.6139 739.0392 958.3023 735.0154 958.5259 735.7978 956.7375 736.8037 955.3963 739.8216 952.602 738.5921 951.596 737.4744 950.2548 736.692 948.5782 736.2449 946.7899 736.5802 944.1074 738.3685 938.9659 738.8156 938.0717 736.1331 935.3892 731.4387 933.3773 726.409 932.1479 722.9441 932.0361 724.956 933.4891 731.4387 936.3952 730.0975 939.0777 727.1914 942.0955 723.9501 944.3309 721.2675 945.3369 720.1498 946.7899 720.1498 949.6959 721.3793 951.9314 724.2854 951.4843 724.0618 949.8077 726.6326 950.3666 729.8739 953.0491 731.4387 957.7435 730.0975 960.5377 726.8561 963.2202 687.5127 984.4568 687.4009 984.2332 686.6185 981.9978 686.3949 980.7683 686.5067 979.0917 687.1773 976.9681 687.9597 975.7386 689.301 973.9503 689.7481 973.0561 689.8598 972.0502 689.7481 970.9325 687.4009 962.9967 687.0656 960.5377 686.6185 952.0431 687.0656 947.3487 688.6304 941.6484 689.1892 940.1954 691.8717 935.501 692.7659 933.2656 692.9894 932.0361 693.213 930.5831 693.1012 928.7947 692.3188 926.224 691.6482 924.8827 690.0834 922.9826 689.5245 922.0884 689.301 920.5237 688.8539 914.9351 688.5186 913.035 687.9597 911.6937 686.7303 909.9054 686.3949 908.4524 686.1714 906.3287 686.3949 902.1932 686.842 899.6224 688.1833 896.9399 689.4128 896.3811 690.5305 896.3811 691.5364 896.7164 692.5424 896.9399 693.3248 896.7164 693.7718 896.3811 694.2189 895.7105 695.1131 889.6748 695.7837 876.9329 695.3366 872.015 694.666 868.4383 694.2189 855.3611 696.0073 843.7369 696.3426 842.5074 696.7897 841.3897 698.8015 837.3659 699.1369 836.1364 699.5839 833.901 699.6957 832.895 696.0073 797.0165 700.2546 790.1985 705.6196 784.051 706.2902 782.7098 706.7373 780.2508 707.0726 773.8799 707.7432 770.5267 708.3021 768.7384 708.9727 767.5089 710.0904 766.0559 714.0024 759.6849 714.7848 757.3377 715.1201 755.5494 713.4436 743.4781 714.226 739.119 715.7908 735.8777 719.591 731.7421 733.6741 723.4711 740.2686 717.4354 744.0689 704.47 747.1985 703.0169 751.334 702.9052 755.4695 702.2345 756.699 701.5639 757.705 700.7815 758.5991 699.8873 759.3815 698.5461 761.3934 696.646 770.6704 694.2988 774.9177 691.6163 779.0532 688.2631 782.6299 684.1276 787.1008 674.7388 788.8891 672.9505 794.9248 671.1622 799.0603 668.4796 804.5371 660.6557 807.6667 657.1908 810.1256 655.8495 814.2612 653.9494 816.1613 652.0493 817.0554 649.8139 817.6143 647.3549 818.5085 645.0077 820.2968 642.6605 821.3028 641.8781 835.2741 637.7426 848.0161 632.2658 864.67 628.3538 864.7817 628.3538Z" />
  <path class="Salto" d="M71.5417 292.4814L69.418 290.9166 65.1707 285.6634 67.4062 279.2924 70.7593 276.4981 77.3538 272.4744 80.1481 270.0154 81.8246 266.2152 82.7188 256.8264 84.2836 252.5791 85.5131 251.2378 88.4191 249.0024 89.6486 247.6612 93.3371 239.8372 95.0136 237.49 95.0136 232.125 93.8959 223.0715 96.1314 214.018 100.4904 207.2 103.8436 200.1584 102.3905 190.5461 95.0136 179.5925 93.8959 177.2453 95.2372 173.6686 98.4785 171.4332 105.9672 169.5331 109.991 169.9802 112.2264 169.1978 113.1206 166.0682 114.1265 161.1503 114.3501 159.0266 114.2383 150.4202 113.5677 145.3905 117.815 139.1314 118.7091 138.349 119.9386 137.4548 121.727 137.343 126.5331 137.9019 128.4332 138.5725 130.7804 140.0255 142.1811 148.5201 145.1989 151.3144 146.4284 152.7674 149.3344 156.7912 150.2286 157.7971 151.3463 158.6913 153.47 160.1443 155.1465 160.7032 156.7113 160.9267 162.8587 160.9267 166.5472 161.4856 168.3355 161.9327 169.7886 162.6033 172.6946 164.727 173.7006 165.8447 179.5127 169.9802 202.7611 182.3868 211.1439 185.0693 212.4851 185.8517 215.1677 188.0871 215.1677 188.1989 223.327 196.2464 226.5683 198.5936 230.8156 200.829 241.4339 204.0704 243.2222 204.1822 244.3399 204.0704 245.3459 203.7351 246.3518 203.288 251.0462 199.5996 252.7228 198.7054 253.8405 198.2583 265.4647 196.8053 269.712 197.0288 289.6073 200.7173 292.0662 200.829 296.2018 199.5996 304.6964 198.8172 306.82 198.2583 308.8319 197.4759 310.3967 196.6935 320.6796 187.9754 322.3562 186.9694 324.3681 186.2988 330.1802 185.5164 332.3039 184.8458 333.0862 184.2869 333.8686 183.7281 336.4394 180.5985 337.11 179.9278 338.8983 178.8101 342.8103 177.2453 343.5927 176.7982 345.1575 175.457 345.8282 174.6746 346.8341 172.7745 348.0636 169.7567 349.0695 167.8565 349.7402 167.0741 350.4108 166.2917 351.6403 165.7329 353.4286 165.2858 356.5582 164.9505 358.3465 165.174 359.6878 165.5094 369.5237 169.086 397.3547 175.2334 398.4724 175.6805 401.3784 177.4689 404.9551 180.5985 406.1846 182.1633 408.8671 186.4106 410.879 188.8695 415.3498 192.6697 416.6911 194.2345 418.4794 196.5817 419.8207 198.0348 426.3034 203.1762 426.527 203.288 427.5329 204.8528 427.7564 204.8528 423.062 220.9479 421.9443 223.9657 419.7089 228.213 417.9206 230.0013 415.6851 231.3426 403.5021 234.9193 401.1549 236.037 398.6959 237.7135 397.4664 239.3901 396.684 240.7314 396.5723 241.9608 396.4605 243.1903 396.9076 244.4198 397.4664 245.5375 400.2607 248.4436 401.8255 250.5672 400.7078 254.3674 399.143 257.9441 397.8018 265.7681 397.3547 267.78 396.684 269.233 395.9017 269.7919 393.6662 272.0273 391.9897 274.3745 390.8719 275.604 389.7542 276.4981 388.8601 276.9452 385.6187 278.1747 384.2774 278.9571 383.3833 280.2983 380.4772 286.5575 379.5831 287.787 373.8827 293.2638 373.1003 294.7168 367.8471 309.1353 367.4 311.259 367.7353 312.2649 368.1824 313.1591 369.4119 314.7239 370.4178 316.5122 371.0884 318.5241 371.4238 320.8713 371.9826 329.7012 372.4297 331.9366 372.9886 334.0603 373.3239 336.8546 373.1003 342.5549 363.8233 345.0139 361.1408 347.0257 360.8055 348.1435 359.9113 349.9318 358.3465 352.0554 352.9815 357.7558 351.8638 359.3206 351.4167 361.6678 350.9696 362.5619 350.1872 364.3503 349.2931 365.2444 348.2871 366.0268 346.0517 366.8092 343.1457 367.3681 341.2455 367.3681 340.1278 367.2563 327.6095 363.4561 318.556 363.1208 317.3265 362.8972 315.0911 362.2266 306.2612 356.5263 304.8081 356.0792 302.908 355.8557 295.5311 355.7439 294.3017 355.5204 293.2957 355.185 289.8308 352.8378 288.6013 352.1672 286.9248 351.7201 283.9069 351.273 281.7833 351.273 266.5824 354.6262 264.5705 354.6262 260.9938 353.732 253.2816 350.826 251.9404 350.826 250.8227 351.273 250.0403 351.8319 249.0343 352.6143 247.6931 353.3967 245.2341 354.2909 243.5575 354.5144 241.9927 354.5144 239.7573 353.8438 224.8917 352.0554 222.8799 351.4966 216.3971 346.4669 214.497 345.4609 200.5256 341.4372 196.5019 339.4253 194.1547 337.5252 192.9252 336.0722 189.0132 330.0365 188.2308 329.2541 186.3307 328.4717 183.2011 327.6893 178.1714 327.5776 173.9241 326.9069 169.7886 325.3421 167.8884 324.2244 161.9646 319.9771 149.4462 313.4944 123.6271 307.9058 122.2858 307.347 121.3916 306.8999 120.6092 306.2293 119.9386 305.4469 119.4915 304.5527 119.0444 303.5468 116.809 296.3934 116.3619 295.4992 115.6913 294.7168 114.2383 293.3756 102.6141 286.7811 97.9197 284.9927 96.1314 284.6574 94.7901 284.6574 88.3074 286.334 87.4132 286.8928 86.8543 287.6752 86.7426 288.6812 86.519 290.6931 86.519 290.8048 86.2955 290.9166 85.4013 291.1402 83.3894 291.1402 80.3716 290.3578 77.5773 290.0224 75.0066 290.8048 72.1006 292.2579 71.5417 292.4814Z" />
  <path class="San José" d="M359.0172 904.6521L359.0172 908.6759 357.7877 913.8174 357.7877 915.2704 357.8994 916.2763 358.5701 917.2823 359.2407 918.7353 360.0231 921.6414 360.0231 923.3179 359.6878 924.6592 356.67 927.5652 355.3287 929.2418 354.211 931.0301 353.5404 931.9243 352.758 932.5949 351.9756 933.1538 349.8519 934.1597 348.7342 935.0539 347.393 936.6187 346.8341 938.0717 346.6106 939.5248 347.6165 945.4486 347.84 951.3725 348.2871 952.8255 348.846 953.9432 349.6284 954.6139 355.3287 957.967 361.5879 963.5556 364.2704 966.6851 365.6117 968.8088 367.2882 976.4092 367.2882 977.974 366.9529 979.7624 366.5058 980.5448 365.4999 981.5507 363.488 979.2035 360.0231 977.7505 350.7461 974.062 344.3751 973.0561 338.116 973.2796 334.4275 975.8504 331.5215 975.5151 328.8389 974.1738 322.2444 970.0383 319.1149 968.5853 315.9853 966.3498 304.2493 963.1085 289.8308 961.2084 276.0829 955.1727 273.1769 953.0491 270.7179 947.7958 268.0354 945.2251 262.2233 940.9778 258.0878 936.1716 254.3993 932.5949 251.158 930.0242 246.4636 927.0064 243.8928 924.6592 244.1164 921.7531 242.9987 920.3001 240.4279 918.5118 239.3102 917.5058 236.0689 913.8174 232.8275 911.0231 227.2389 908.4524 224.5564 907.8935 235.2865 898.5047 236.0689 897.7223 236.516 896.2693 236.7395 894.2574 236.6277 890.1219 236.7395 887.7747 237.7454 885.5393 238.8631 884.198 239.6455 882.5215 240.9868 878.1624 241.0986 876.7094 240.4279 875.4799 236.8513 871.3443 236.4042 870.4502 235.8453 869.4442 235.7336 868.103 235.7336 866.3146 236.516 863.5204 237.1866 861.9556 237.969 860.8378 242.2163 857.82 245.0106 856.367 252.4992 854.1316 253.7287 853.4609 254.5111 853.0139 262.3351 846.6429 263.5646 845.0781 263.8999 844.631 264.1234 843.9604 264.1234 843.4015 264.0117 841.9485 263.1175 839.7131 256.523 829.4301 250.8227 822.6121 249.5932 821.6062 246.5754 820.0414 245.793 819.4825 244.8988 818.253 244.1164 816.3529 242.6634 810.0937 240.3162 804.8405 247.8048 805.2876 273.1769 810.2055 275.1888 810.0937 277.6477 809.4231 281.895 807.7465 284.0187 806.7406 285.4717 805.7347 292.7369 796.793 295.6429 794.334 296.09 793.9987 296.8724 793.5516 308.9437 790.5338 312.9674 788.969 316.5441 786.8453 323.6975 780.9215 329.0625 782.2627 348.2871 792.0986 350.6343 798.9166 355.9993 824.4004 356.7817 833.2304 356.67 835.5776 356.3347 837.3659 355.8876 838.3718 352.0873 845.1899 351.6403 846.4194 351.1932 847.9842 351.1932 849.3254 351.5285 850.4431 354.6581 858.6024 355.5523 861.732 355.7758 863.7439 354.9934 877.8271 354.6581 879.8389 354.0992 880.8449 353.4286 881.7391 352.6462 882.4097 349.2931 884.198 348.3989 884.8686 347.5047 885.9864 346.8341 887.7747 346.8341 889.116 347.1694 890.1219 356.8935 900.6284 357.7877 901.8579 359.0172 904.6521Z" />
  <path class="Soriano" d="M240.3162 804.8405L221.9857 802.0462 207.4554 802.0462 202.5375 801.3756 201.5316 800.8167 198.2902 798.246 195.2724 795.3399 191.9193 793.4398 188.119 791.6515 184.8777 790.7573 154.6994 799.0284 144.0812 800.0343 139.0515 799.5872 115.1325 791.3162 113.4559 790.0867 112.5617 789.3043 111.444 787.8513 111.6675 788.0748 111.444 787.7395 110.9969 787.0689 110.1028 786.1747 108.8733 785.1688 106.4143 783.9393 104.626 783.4922 90.9899 783.0451 85.7366 784.051 82.607 784.1628 80.8187 783.9393 79.3657 783.4922 78.5833 783.1569 78.1362 782.7098 77.4656 782.1509 76.9067 781.4803 75.9008 779.692 75.4537 778.686 74.7831 776.5624 74.0007 774.5505 73.4418 773.6563 72.3241 772.2033 71.4299 771.1974 51.6464 766.1677 48.6286 765.7206 45.8343 766.6147 29.404 778.0154 13.5325 784.6099 11.0735 785.3923 5.4849 786.3982 5.3732 786.3982 2.02 767.1736 1.2376 748.9549 3.5848 730.9597 3.026 726.4889 2.02 722.3534 1.4612 717.9943 2.3553 712.9646 4.7025 708.829 10.7382 700.8933 11.8559 696.3107 10.8499 692.1751 9.6205 691.281 9.6205 691.1692 26.3861 681.2216 35.8867 668.815 39.1281 666.8031 47.5109 666.8031 52.5406 667.5855 54.5525 666.6913 55.3349 663.1146 55.3349 655.1789 55.8937 653.0552 57.7938 651.1551 63.7177 648.0255 65.7296 649.255 68.7474 652.1611 69.6416 652.2728 71.5417 653.8376 72.8829 652.0493 73.6653 648.5844 73.4418 645.1195 72.8829 644.7842 70.6475 642.6605 69.6416 641.431 69.6416 639.8662 69.7534 637.9661 69.6416 636.5131 67.7415 632.3776 67.8532 630.9245 69.6416 629.3597 72.5476 628.5773 75.0066 629.248 77.5773 630.1421 80.5952 630.5892 84.5072 629.5833 85.2895 627.7949 84.8425 625.336 85.5131 622.0946 87.1897 620.418 92.4429 619.0768 95.1254 617.9591 97.5844 615.6119 99.3727 613.2647 101.4964 611.4763 104.626 610.4704 107.7556 611.0293 112.6735 613.9353 115.356 614.9413 117.4796 614.8295 121.1681 613.8235 123.2917 613.4882 125.1919 613.9353 127.7626 615.9472 133.0158 617.1767 139.7221 619.971 143.187 619.1886 144.4165 617.6238 146.2048 613.0411 147.4343 612.0352 153.2464 610.4704 154.5877 609.9116 157.9408 607.4526 161.741 606.6702 165.653 607.229 173.3652 611.3646 174.93 612.5941 175.6007 614.2706 175.6007 616.6178 175.8242 619.1886 176.7184 621.2004 178.6185 622.0946 180.7421 621.5358 184.3188 618.8532 186.4425 617.9591 188.3426 617.7355 190.1309 618.0708 197.2843 620.5298 200.4139 622.2064 202.5375 624.6653 204.4376 632.9364 207.1201 632.154 210.0262 629.1362 211.8145 626.3419 212.8205 631.9305 213.8264 634.1659 215.8383 635.0601 217.8502 634.7248 225.6741 631.2598 230.0332 628.5773 231.598 627.9067 229.2508 634.5012 228.1331 636.5131 215.503 652.4964 213.2675 654.5083 194.8253 676.6389 192.9252 679.9921 192.8134 681.8922 193.037 683.2334 193.484 684.3512 193.9311 685.2453 194.6018 686.0277 199.1844 689.0455 199.9668 689.7162 200.6374 690.4986 201.1963 691.3927 201.5316 692.3987 203.5435 701.3404 203.8788 702.4581 204.3259 703.3523 207.2319 707.0407 207.2319 707.1525 207.3437 707.1525 207.4554 707.7113 207.9025 710.5056 208.0143 712.9646 208.2378 714.5294 208.5732 715.8706 209.132 716.7648 209.8026 717.5472 210.585 718.2178 214.1617 723.2475 215.7265 724.5888 217.4031 725.8183 218.5208 726.2653 223.327 727.4948 224.3329 728.1655 225.2271 728.9479 225.7859 730.2891 225.7859 731.6304 225.4506 732.7481 225.1153 733.754 224.6682 734.6482 224.2211 735.7659 223.8858 736.9954 221.3151 757.673 221.2033 760.3556 221.4268 761.0262 221.6504 761.8086 229.0273 774.4387 231.1509 779.4684 231.3745 780.5861 231.9333 783.7157 232.604 786.1747 233.051 787.4042 233.4981 788.8572 234.2805 794.2222 234.9512 796.3459 235.2865 797.3518 235.8453 798.246 238.8631 802.4933 240.3162 804.8405Z" />
  <path class="Tacuarembó" d="M331.2979 496.2403L340.6867 467.9622 343.5927 463.3795 348.846 458.5734 355.3287 453.7672 361.2526 448.2904 366.5058 442.0312 367.8471 438.4546 372.8768 415.3179 373.6592 412.859 375.6711 409.2823 376.5652 407.1586 377.7947 402.7996 378.5771 394.0814 378.5771 393.9696 378.6889 392.6284 378.5771 383.7985 379.0242 381.6748 379.5831 380.2218 380.3655 379.5512 381.2596 379.1041 383.048 378.4334 384.6128 378.0981 385.3952 377.8746 385.954 377.3157 386.4011 376.198 386.5129 374.745 386.1776 373.4037 385.5069 372.1743 381.2596 366.921 380.8125 365.6915 380.3655 364.015 380.1419 359.2088 380.4772 354.738 380.3655 353.3967 379.6948 351.273 378.8007 349.4847 373.1003 342.5549 373.3239 336.8546 372.9886 334.0603 372.4297 331.9366 371.9826 329.7012 371.4238 320.8713 371.0884 318.5241 370.4178 316.5122 369.4119 314.7239 368.1824 313.1591 367.7353 312.2649 367.4 311.259 367.8471 309.1353 373.1003 294.7168 373.8827 293.2638 379.5831 287.787 380.4772 286.5575 383.3833 280.2983 384.2774 278.9571 385.6187 278.1747 388.8601 276.9452 389.7542 276.4981 390.8719 275.604 391.9897 274.3745 393.6662 272.0273 395.9017 269.7919 396.684 269.233 397.3547 267.78 397.8018 265.7681 399.143 257.9441 400.7078 254.3674 401.8255 250.5672 405.9611 244.0845 408.1965 242.0726 411.1025 240.8431 412.332 240.6196 415.6851 240.6196 418.2559 241.2902 419.1501 241.7373 433.5685 253.2497 441.9514 258.0559 454.6933 263.4209 457.5993 265.6563 458.4935 266.6623 459.1641 267.5564 461.0642 271.2449 461.7349 273.2568 462.0702 274.3745 462.182 276.9452 461.9584 280.8572 462.0702 281.9749 464.6409 290.0224 465.088 290.6931 465.088 290.8048 465.7586 292.1461 466.2057 292.9285 466.9881 293.8227 472.8002 299.4112 474.1415 300.3054 475.371 300.8642 481.1831 302.7644 484.5362 304.2174 486.101 305.3351 487.2187 306.2293 488.2246 308.0176 489.007 310.0295 490.5718 316.7358 491.2425 318.7476 491.5778 319.8653 491.466 321.0948 491.2425 322.3243 489.7894 326.6834 489.2306 329.1424 489.007 331.8249 489.1188 333.1661 489.3424 334.2838 489.7894 335.178 490.7954 336.9663 491.2425 337.8605 491.3542 338.9782 491.0189 342.6667 491.1307 343.8961 491.8013 345.908 493.4779 348.9259 495.378 351.7201 496.7193 352.9496 498.0605 353.732 499.29 353.8438 500.5195 353.8438 501.6372 353.6202 504.5432 352.3908 505.6609 352.1672 506.8904 352.279 511.8084 353.3967 516.6145 353.9556 532.0389 352.8378 536.398 351.8319 538.9688 351.6084 543.9985 352.1672 561.2112 356.5263 572.053 357.4205 579.3182 356.5263 584.6832 356.7498 587.4774 357.3087 594.1837 360.4383 597.6486 361.556 611.1729 362.7855 613.2966 363.2326 620.897 366.1386 624.9208 368.1505 625.5914 368.8211 626.262 369.4917 629.8387 374.5215 630.5094 375.1921 635.3155 379.1041 637.8862 382.0101 640.9041 387.4869 648.281 395.8697 651.0752 400.0053 657.558 406.488 659.7934 409.8411 661.9171 414.6473 663.1465 416.5474 665.7173 419.4535 661.9171 420.4594 659.3463 420.7947 652.3047 416.5474 647.9457 415.0944 646.0455 417.218 645.4867 422.0242 644.1454 424.8185 640.0099 429.4011 638.5569 432.4189 637.8862 434.5426 637.6627 436.4427 638.2216 438.7899 639.451 441.0253 640.1217 443.3725 639.451 445.6079 636.9921 449.8552 633.1919 458.3498 630.3976 462.1501 628.6092 463.3795 624.9208 465.1679 623.1325 466.3974 621.5677 468.521 620.3382 470.8682 618.8851 472.7683 612.626 474.6684 609.9435 477.3509 606.3668 483.3866 602.6783 487.6339 598.0957 491.2106 592.6189 493.7813 586.4715 494.6755 580.5476 493.446 569.0352 488.8634 562.9996 489.1987 547.4634 496.4638 541.9866 497.4697 540.5336 497.2462 539.8629 496.4638 539.0805 495.5696 532.9331 491.993 531.7036 491.7694 530.5859 491.8812 529.58 491.7694 528.2387 490.5399 527.5681 489.4222 527.2328 488.3045 526.8975 484.9514 525.3327 483.4983 522.3149 482.716 519.6323 484.0572 517.9558 486.2926 517.5087 489.1987 516.6145 492.2165 515.9439 495.6814 513.5967 498.4757 509.9083 499.5934 505.9963 500.0405 501.5254 499.4816 497.5017 498.4757 493.7014 496.7991 490.9072 497.1344 488.6717 500.0405 486.4363 506.0761 483.5303 507.4174 480.2889 507.7527 477.3828 505.629 473.6944 502.3877 470.2295 502.0524 468.2176 503.1701 467.8823 505.629 469.2235 509.541 469.3353 512.4471 467.6587 514.3472 466.7646 516.8062 465.8704 520.2711 463.0761 522.9536 459.2759 525.6361 454.5815 524.0713 450.2224 519.1534 446.534 519.3769 442.2867 521.6123 439.2689 525.0772 436.8099 528.9892 431.892 533.9072 427.0858 539.4957 420.9384 540.6134 414.791 540.9487 407.5259 543.743 399.8136 544.8607 397.4664 549.108 394.2251 553.5789 391.0955 559.0557 390.0895 565.0913 384.3892 565.4266 377.6829 565.2031 371.7591 563.8618 366.0587 563.4147 361.2526 567.3267 359.9113 569.3386 358.123 573.1388 354.3228 572.8035 350.5226 568.8915 346.8341 566.7679 342.3633 566.4326 338.0042 566.9914 334.8746 566.8796 331.4097 566.9914 327.1624 567.7738 324.2563 569.1151 320.9032 571.6858 317.6618 572.4682 312.4086 569.3386 313.9734 563.1912 316.9912 556.932 318.7795 549.8904 318.3325 545.7549 318.3325 543.1842 319.0031 539.2722 320.7914 536.1426 324.2563 532.007 324.927 528.9892 330.5155 505.7408 331.2979 496.2403Z" />
  <path class="Treinta y Tres" d="M924.1322 560.2851L920.4438 564.9795 908.7078 573.6977 903.7899 578.9509 902.3369 582.7512 901.8898 590.5751 900.6603 594.3754 898.7602 596.6108 877.4119 610.9175 871.3762 616.2825 866.4583 622.9888 866.3465 622.9888 864.7817 628.3538 864.67 628.3538 848.0161 632.2658 835.2741 637.7426 821.3028 641.8781 820.2968 642.6605 818.5085 645.0077 817.6143 647.3549 817.0554 649.8139 816.1613 652.0493 814.2612 653.9494 810.1256 655.8495 807.6667 657.1908 804.5371 660.6557 799.0603 668.4796 794.9248 671.1622 788.8891 672.9505 787.1008 674.7388 782.6299 684.1276 779.0532 688.2631 774.9177 691.6163 770.6704 694.2988 761.3934 696.646 759.3815 698.5461 758.5991 699.8873 754.24 697.7637 749.6574 694.7459 743.2865 692.1751 739.4862 689.9397 738.0332 688.7102 735.2389 685.6924 732.6682 681.2216 730.8799 677.3096 730.321 676.4154 729.5386 675.7448 728.5327 675.2977 726.8561 675.1859 724.8442 675.1859 719.8145 676.5272 718.3615 677.086 712.6612 681.5569 711.767 682.1157 709.7551 682.8981 708.8609 683.457 708.0785 684.1276 707.4079 685.0218 707.0726 686.1395 706.5138 688.4867 705.6196 690.6103 705.0607 691.3927 704.3901 692.1751 703.6077 692.8458 702.7135 693.4046 695.7837 696.3107 694.2189 696.4224 692.0953 696.1989 680.1358 692.3987 679.2416 691.8398 676.8944 689.8279 675.8884 689.3809 674.7707 689.0455 660.464 686.6983 655.2108 685.2453 649.1751 681.1098 644.369 675.9683 643.2513 675.1859 641.91 674.6271 639.6746 674.0682 636.9921 673.0623 635.6508 672.8387 633.9743 672.9505 629.3916 674.7388 621.5677 678.7626 620.2264 679.0979 618.4381 679.2097 615.4202 678.7626 613.8554 678.092 612.626 677.3096 611.9553 676.6389 610.9494 676.0801 607.4845 675.0741 605.8079 674.18 605.2491 673.9564 604.3549 674.0682 595.1897 675.633 591.8365 677.1978 583.2301 682.2275 579.6535 677.8684 579.3182 676.4154 578.9828 674.2917 579.3182 672.9505 579.877 671.8328 580.4359 670.9386 581.1065 670.1562 583.789 668.3679 584.9067 667.0266 586.248 664.7912 588.1481 659.7615 588.8187 657.079 589.0422 655.0671 587.3657 645.5666 587.1421 638.3014 585.5773 626.9008 587.0304 622.5417 588.4834 620.6416 598.3193 614.2706 599.884 612.9294 601.1135 611.4763 601.6724 610.6939 603.349 607.3408 603.349 603.5406 603.1254 602.1993 600.5547 597.7285 600.2194 595.9402 600.3311 594.3754 600.89 593.1459 601.7842 591.6928 602.9019 590.3516 603.796 589.5692 607.708 587.3338 608.8257 586.4396 610.167 585.0983 612.2906 583.5336 618.3263 581.0746 619.2205 580.6275 620.6735 579.2862 623.4678 576.2684 626.3738 573.5859 636.7685 568.3327 639.004 567.7738 643.9219 567.215 649.6222 567.3267 652.4165 566.6561 660.5758 563.303 662.1406 563.0794 664.4878 563.0794 666.835 563.6383 670.0763 564.9795 671.5294 565.2031 673.2059 565.2031 675.8884 564.756 677.3415 564.0854 678.3474 563.303 679.5769 561.6264 680.8064 559.5028 681.7006 558.2733 682.5947 557.8262 683.7124 557.8262 685.0537 558.0497 686.6185 558.2733 689.0774 557.8262 690.4187 557.1556 691.3129 556.2614 691.8717 555.2554 692.6541 552.5729 693.7718 550.8964 694.8895 550.2257 696.119 550.114 698.578 550.5611 708.4139 549.8904 712.1023 548.6609 720.8205 543.743 723.3912 542.7371 725.1795 542.5135 725.9619 543.1842 727.415 544.5254 728.3091 545.196 729.2033 545.6431 730.4328 545.9784 737.0273 546.8726 740.604 548.1021 745.5219 548.6609 746.5278 549.108 748.2044 550.3375 749.2103 550.8964 750.3281 551.2317 751.5575 551.4552 752.8988 551.4552 756.5872 551.2317 757.8167 551.2317 758.8227 551.567 759.8286 552.0141 769.3292 558.4968 770.1116 559.1674 771.2293 559.7263 772.6823 560.0616 775.1413 559.9498 776.1472 559.1674 776.5943 558.0497 776.259 556.932 775.8119 555.9261 774.8059 554.1377 774.4706 553.2436 774.2471 552.1259 774.3589 551.1199 774.8059 550.2257 775.4766 549.4433 779.2768 545.9784 780.3945 544.6372 781.2887 543.9666 786.2066 541.0605 788.2185 540.6134 789.7833 540.5017 790.901 540.9487 792.6893 542.0664 803.8664 551.1199 805.6548 552.2376 806.6607 552.6847 808.002 553.02 809.7903 553.2436 839.0744 550.8964 845.3336 552.0141 849.5809 552.2376 868.4702 549.8904 869.3644 550.114 870.1468 550.5611 870.9292 551.2317 871.5998 551.9023 872.8293 553.5789 874.0587 554.1377 875.7353 554.473 879.0884 554.2495 880.9886 554.3613 882.3298 554.8084 884.677 556.8202 885.7947 557.3791 887.2477 557.8262 889.4832 558.1615 891.048 558.0497 892.3892 557.6026 895.2953 555.8143 897.0836 555.479 898.5366 555.3672 902.8957 555.8143 924.0205 560.2851 924.1322 560.2851Z" />
</svg>