<?xml version="1.0" encoding="utf-8"?>
<svg xmlns="http://www.w3.org/2000/svg" viewBox="0 0 419 1024" style="stroke-width:0.25px;stroke-linejoin:round;stroke:#444;fill:#ddd" fill-rule="evenodd">
  <path class="Balaka" d="M298.0876 704.5817L299.3171 704.5817 334.3014 704.5817 334.7485 704.8053 337.7663 708.0466 339.2194 713.747 339.4429 720.0062 338.2134 730.6244 337.3193 733.5305 335.978 734.6482 334.0779 735.9894 330.2777 742.1369 329.3835 743.7017 329.0482 744.8194 328.9364 746.943 328.6011 748.1725 326.3657 752.8669 325.5833 756.3318 323.7949 761.2497 323.3479 764.044 322.3419 766.1677 321.336 767.1736 315.5239 772.6504 312.9531 776.7859 311.3883 778.3507 306.2469 779.692 279.31 778.2389 288.8106 735.7659 288.8106 734.6482 288.6988 733.754 288.2517 732.5245 288.4752 731.9657 288.8106 731.0715 295.2933 722.018 295.8521 720.9003 297.9758 713.2999 298.1993 711.6233 298.1993 710.2821 297.6405 708.1584 297.4169 706.1465 298.0876 704.5817Z" />
  <path class="Blantyre" d="M285.4574 872.5738L284.675 873.2444 284.3397 873.0209 283.8926 872.2385 283.4455 870.2266 283.4455 869.1089 283.5573 868.3265 284.4515 866.9853 284.5633 866.3146 284.1162 865.644 282.7749 865.3087 281.4337 865.4205 280.2042 865.4205 279.6453 864.8616 279.6453 863.2968 281.6572 859.6084 281.769 858.4906 281.5454 855.9199 281.9925 854.5787 283.4455 851.8961 283.8926 850.7784 283.8926 849.8843 283.6691 849.2136 283.3338 848.543 282.6631 846.7547 282.4396 846.1958 281.8807 845.7487 280.316 845.4134 267.3505 844.1839 266.5681 834.3481 265.6739 831.3303 265.6739 829.6537 267.6858 828.536 268.4682 827.6418 269.1388 826.6359 269.3624 825.7417 269.0271 817.4706 269.3624 815.2352 270.8154 813.7822 277.0746 809.7584 279.31 808.8642 281.2101 805.8464 285.9045 792.0986 287.9164 788.969 289.1459 788.4101 292.7226 785.3923 293.952 784.9452 297.9758 784.4981 300.323 783.3804 300.6583 783.1569 303.3408 788.0748 306.2469 790.5338 310.4942 796.9047 311.7237 798.246 312.9531 799.2519 313.9591 799.4755 316.1945 799.4755 317.0887 799.699 317.2004 800.1461 316.8651 800.9285 314.2944 804.0581 313.8473 804.8405 313.6238 805.7347 313.7355 806.7406 314.2944 807.4112 315.0768 807.7465 315.7474 807.8583 317.424 807.7465 312.6178 816.6882 312.5061 818.1413 312.7296 820.0414 313.512 821.0473 314.0708 823.5063 314.4062 827.3065 314.0708 840.1602 314.2944 842.8427 315.0768 845.1899 317.9828 850.6667 304.235 858.9377 302.4466 859.3848 299.9877 859.4966 299.2053 859.7201 298.5347 860.0554 297.6405 860.9496 296.7463 862.0673 294.3991 866.5382 293.1696 868.103 289.9283 871.009 288.9223 871.6796 285.4574 872.5738Z" />
  <path class="Chikwawa" d="M284.7868 962.2143L283.6691 961.3201 281.4337 960.3142 279.5336 959.1965 278.1923 957.1846 277.2981 954.2785 276.2922 952.4902 270.3683 947.3487 269.0271 945.5604 266.7916 941.2013 265.1151 939.3012 257.0675 935.0539 256.0616 934.6068 255.2792 934.048 253.7144 930.136 253.0438 928.9065 252.2614 927.9006 248.1259 924.771 246.4493 923.2062 245.108 921.1943 241.5314 911.9173 238.7371 909.0112 233.0367 908.1171 228.6777 908.0053 226.2187 905.4345 220.9655 893.8103 221.4125 889.3395 223.9833 880.7331 223.4244 877.0447 221.189 874.0268 210.5707 862.738 208.7824 861.6202 204.5351 859.4966 202.9703 858.1553 201.5173 854.4669 201.2937 849.7725 201.9644 845.0781 203.3056 841.8367 206.9941 837.813 209.2295 836.1364 211.3531 835.0187 214.0356 834.2363 215.3769 833.4539 215.4887 833.3421 217.277 834.1245 235.2722 841.8367 240.3019 843.5133 267.3505 844.1839 280.316 845.4134 281.8807 845.7487 282.4396 846.1958 282.6631 846.7547 283.3338 848.543 283.6691 849.2136 283.8926 849.8843 283.8926 850.7784 283.4455 851.8961 281.9925 854.5787 281.5454 855.9199 281.769 858.4906 281.6572 859.6084 279.6453 863.2968 279.6453 864.8616 280.2042 865.4205 281.4337 865.4205 282.7749 865.3087 284.1162 865.644 284.5633 866.3146 284.4515 866.9853 283.5573 868.3265 283.4455 869.1089 283.4455 870.2266 283.8926 872.2385 284.3397 873.0209 284.675 873.2444 285.4574 872.5738 292.7226 884.4216 309.8235 904.0933 309.9353 905.0992 310.0471 906.4405 309.8235 907.4464 311.5001 913.035 307.3646 932.5949 307.0293 933.4891 306.5822 934.048 305.688 934.6068 303.229 936.954 296.2992 944.6662 295.5168 946.1193 294.8462 948.3547 294.958 949.8077 295.2933 950.8136 295.1815 951.596 294.5109 952.3784 292.9461 953.0491 290.5989 954.5021 288.4752 956.514 285.7927 960.7613 285.681 960.7613 284.7868 962.2143Z" />
  <path class="Chiradzulu" d="M317.424 807.7465L319.2123 807.4112 320.1065 807.7465 320.8889 807.2994 321.7831 806.7406 323.2361 805.9582 323.9067 806.1817 324.1303 806.9641 323.9067 808.8642 324.0185 810.2055 324.9127 811.5468 326.2539 812.4409 328.2658 813.3351 329.3835 814.2293 330.2777 815.4587 331.2836 818.3648 332.1778 820.1531 333.9661 822.8356 335.5309 824.1769 336.9839 825.0711 342.6843 827.0829 340.2253 834.5716 340.1135 839.4895 341.9019 861.5085 341.7901 863.4086 341.1195 864.8616 340.5606 865.5322 338.884 869.7795 336.3133 868.3265 334.7485 866.7617 333.7426 865.4205 333.1837 864.191 332.5131 861.3967 331.8425 859.4966 331.0601 858.2671 326.4774 854.0198 325.5833 852.9021 324.6891 851.6726 323.9067 851.002 322.6772 850.6667 317.9828 850.6667 315.0768 845.1899 314.2944 842.8427 314.0708 840.1602 314.4062 827.3065 314.0708 823.5063 313.512 821.0473 312.7296 820.0414 312.5061 818.1413 312.6178 816.6882 317.424 807.7465Z" />
  <path class="Chitipa" d="M127.1894 33.5076L129.6484 38.0902 130.2073 38.6491 130.7661 39.7668 130.6543 41.2198 130.319 43.4552 130.319 44.3494 130.7661 45.5789 131.6603 47.0319 132.1074 48.2614 132.3309 50.6086 132.5545 51.9498 133.4486 54.1853 133.3369 55.5265 132.8898 56.3089 130.6543 56.756 129.7602 57.0913 128.9778 57.5384 128.1954 58.209 126.5188 59.8856 125.1776 61.0033 124.7305 61.5622 123.6128 64.1329 122.7186 65.4741 121.9362 66.4801 120.1479 68.0449 119.1419 68.3802 117.5771 68.7155 117.13 69.1626 116.3476 70.2803 115.677 70.8392 109.5296 74.7512 106.2882 75.7571 105.7294 76.0924 105.5058 76.6513 105.3941 78.2161 105.7294 79.3338 106.2882 80.2279 107.853 81.3457 108.7472 81.7927 109.5296 82.4634 110.2002 83.2458 111.2062 84.6988 112.2121 85.7047 113.5534 86.4871 114.8946 86.7107 116.6829 86.9342 117.13 87.046 118.136 87.6048 122.495 91.2933 124.1716 92.1875 125.4011 92.6345 128.3072 92.6345 132.8898 92.1875 133.7839 92.5228 134.6781 93.7523 136.1311 96.7701 165.3034 142.3727 133.8957 156.5677 130.2073 158.0207 130.2073 157.5736 130.0955 156.2323 129.2013 153.8851 129.2013 150.532 125.7364 150.0849 123.7245 147.7377 121.2656 141.9256 120.2596 140.8079 116.6829 137.6783 115.677 136.1135 112.3239 128.1778 111.8768 125.0482 112.6592 117.7831 112.3239 113.7593 110.5355 111.6356 107.9648 109.8473 105.6176 106.7177 102.2645 105.6 100.029 103.5881 97.9054 101.3527 95.2229 99.1173 84.8282 94.4229 83.1516 92.0757 83.1516 88.7226 83.8222 85.4812 86.2812 79.3338 90.0814 73.4099 90.9756 70.7274 90.1932 67.1507 88.1813 62.0092 87.2871 61.0033 82.5927 59.215 81.0279 58.4326 79.4631 57.0913 78.4572 55.5265 76.5571 51.9498 75.2158 50.4968 71.9745 48.4849 70.745 46.6966 70.4097 44.7965 70.8568 43.567 71.5274 42.4493 71.8627 41.108 71.6392 39.0961 71.0803 37.4196 69.292 34.1782 66.7212 32.3899 59.9032 31.9428 56.8854 30.6015 56.2147 33.9547 55.7677 37.7549 54.6499 40.1021 51.8557 39.0961 51.0733 37.8667 50.8497 36.3019 50.2909 34.9606 48.9496 34.29 47.1613 34.7371 45.82 35.6312 44.367 36.3019 42.6904 35.743 41.1256 32.2781 43.3611 22.8893 43.3611 19.4244 42.2433 18.8656 40.3432 17.0772 39.5608 16.6301 37.996 16.6301 37.2136 17.3008 36.4312 17.5243 35.2018 16.5184 34.5311 14.73 34.3076 7.2414 35.2018 6.3472 35.4253 6.3472 35.9842 6.3472 37.1019 6.1237 38.3314 5.9001 38.6667 5.9001 38.8902 5.7883 39.2255 5.6766 39.4491 5.3413 39.8961 5.1177 40.6785 4.5589 41.1256 4.2235 41.4609 4 43.3611 5.1177 49.732 11.4887 57.556 17.5243 58.7855 18.0832 62.2504 18.7538 65.9388 20.3186 66.3859 20.5421 67.6154 20.2068 69.0684 18.9773 68.9567 19.0891 69.0684 19.2009 69.1802 19.3127 69.292 19.3127 69.4037 19.4244 69.5155 19.4244 69.6273 19.5362 69.7391 19.5362 69.9626 19.648 70.1861 19.648 70.2979 19.648 70.4097 19.648 70.4097 19.5362 70.5215 19.648 70.6332 19.648 70.745 19.648 70.8568 19.648 70.9685 19.7597 71.0803 19.7597 71.0803 19.8715 71.1921 19.9833 71.3039 20.095 71.4156 20.095 71.5274 20.095 71.5274 19.9833 71.5274 19.8715 71.5274 19.7597 71.5274 19.648 71.6392 19.5362 71.7509 19.4244 71.7509 19.3127 71.8627 19.3127 71.8627 19.2009 71.8627 19.0891 71.9745 19.2009 71.9745 19.0891 72.0862 19.0891 72.0862 18.9773 72.198 19.0891 72.198 19.2009 72.3098 19.2009 72.4216 19.0891 72.4216 18.9773 72.5333 18.9773 72.6451 18.9773 72.7569 18.8656 72.7569 18.642 72.8686 18.5303 74.5452 19.0891 76.11 19.2009 77.2277 18.8656 77.8983 18.4185 77.8983 18.5303 78.0101 18.642 78.0101 18.7538 78.1219 18.7538 78.2337 18.642 78.2337 18.5303 78.3454 18.5303 78.3454 18.4185 78.569 18.4185 78.6807 18.4185 78.6807 18.5303 78.6807 18.642 78.7925 18.7538 78.9043 18.8656 78.9043 18.9773 79.0161 18.9773 79.1278 18.9773 79.2396 18.9773 79.2396 18.8656 79.3514 18.7538 79.4631 18.8656 79.5749 18.8656 79.6867 18.9773 79.7985 18.8656 79.9102 18.8656 80.022 18.8656 80.1338 18.7538 80.2455 18.642 80.1338 18.4185 80.2455 18.3067 80.3573 18.3067 80.4691 18.0832 80.5809 18.0832 80.6926 18.0832 80.8044 18.0832 80.9162 18.0832 81.0279 18.0832 81.1397 18.0832 81.1397 17.9714 81.0279 17.9714 80.9162 17.9714 80.9162 17.8596 80.9162 17.7479 80.8044 17.6361 80.9162 17.6361 81.0279 17.5243 81.475 17.7479 81.5868 17.7479 82.5927 18.0832 89.8579 23.2246 92.2051 25.4601 94.3287 30.2662 95.8935 32.7252 97.9054 34.0664 100.3644 34.8488 105.6176 35.1842 108.1883 34.6253 108.3001 34.7371 108.5237 34.7371 108.7472 34.7371 108.7472 34.8488 108.859 34.9606 108.9707 35.0724 109.0825 35.1842 109.1943 35.0724 109.3061 35.1842 109.5296 35.0724 109.6414 34.9606 109.7531 34.9606 109.9767 34.9606 110.0884 34.8488 110.2002 34.7371 110.2002 34.6253 110.312 34.6253 110.4238 34.5135 110.5355 34.5135 110.6473 34.6253 110.7591 34.6253 110.8708 34.6253 110.9826 34.5135 110.9826 34.4018 110.9826 34.29 111.2062 34.1782 111.4297 34.1782 111.5415 33.9547 111.6532 33.9547 111.765 33.9547 111.8768 33.8429 112.1003 33.8429 112.1003 33.7311 112.2121 33.5076 112.3239 33.3958 112.5474 33.5076 112.771 33.5076 112.771 33.3958 112.8827 33.284 112.8827 33.1723 112.9945 33.1723 113.3298 33.0605 113.4416 32.9487 113.4416 32.6134 113.5534 32.5017 113.6651 32.3899 113.6651 32.1663 113.6651 32.0546 115.677 31.1604 120.0361 31.6075 123.8363 32.837 127.1894 33.5076Z" />
  <path class="Dedza" d="M220.2948 659.538L219.2889 657.9732 215.7122 656.073 214.5945 656.2966 213.5886 656.8554 212.6944 657.6378 211.6884 658.3085 210.6825 658.532 208.6706 658.3085 207.6647 658.4202 195.0345 662.8911 185.7575 663.2264 181.7338 664.903 180.7278 666.2442 179.2748 669.5974 178.2689 670.268 164.8563 668.4796 161.1679 668.4796 157.703 669.3738 150.2143 673.8447 146.6376 675.1859 143.0609 674.8506 136.2429 669.4856 133.4486 670.3798 131.5485 673.3976 130.4308 677.1978 130.4308 681.7804 130.0955 684.1276 128.7542 685.0218 126.5188 684.2394 125.0658 682.8981 123.9481 681.2216 123.1657 678.9861 125.4011 677.8684 126.5188 676.0801 127.8601 675.2977 128.9778 674.2917 131.7721 669.8209 132.2191 668.3679 132.5545 662.6675 133.0015 660.6557 133.5604 658.7556 134.5663 657.1908 135.684 655.8495 137.3606 654.8436 146.1905 650.5963 147.6436 649.4785 149.0966 647.9138 151.7791 646.0136 153.3439 645.4548 155.6911 645.6783 156.9206 645.343 159.9384 644.1135 161.1679 643.89 162.2856 643.89 163.4033 643.3311 164.4092 642.2134 165.0799 640.0898 165.6387 633.9424 166.1976 632.154 167.2035 630.8128 168.9919 629.8068 173.9098 629.248 175.251 628.5773 176.8158 627.2361 178.3806 625.5595 179.8337 623.4359 181.7338 621.9828 183.7457 619.971 184.9751 616.2825 185.7575 614.7177 186.8752 613.0411 188.7754 610.9175 190.3402 608.5703 192.2403 606.782 193.358 605.1054 196.8229 598.5109 197.3817 596.9461 197.9406 595.6048 198.6112 594.7107 200.176 593.9283 203.4174 591.5811 205.7646 589.3457 208 585.5454 213.5886 593.4812 221.4125 601.1934 223.2009 603.3171 227.4482 611.0293 231.4719 617.0649 233.5956 619.1886 235.0486 620.1945 235.6075 619.971 236.2781 619.4121 238.9606 616.5061 239.8548 615.8354 240.5254 615.3883 241.0843 615.053 241.7549 614.7177 242.0902 615.5001 246.5611 620.8651 247.3435 622.2064 247.6788 623.9947 248.4612 626.1184 249.4671 628.1303 250.473 629.4715 252.7085 631.1481 254.4968 631.7069 256.5087 631.8187 258.7441 632.7129 260.8678 634.613 260.756 636.2895 260.0854 637.9661 260.4207 639.978 262.209 641.2075 264.2209 640.7604 266.3446 639.6427 267.2387 639.3074 267.2387 639.5309 267.2387 645.0077 256.844 651.3787 247.3435 658.532 240.0783 661.5498 238.0664 661.9969 236.7252 661.8851 235.2722 660.5439 233.1485 659.6497 232.2543 658.9791 231.4719 658.4202 230.5778 658.0849 229.4601 657.7496 227.56 657.5261 224.5421 656.9672 223.8715 656.9672 223.2009 657.1908 221.8596 658.1967 220.2948 659.538Z" />
  <path class="Dowa" d="M98.2407 536.925L100.5879 532.4541 101.4821 529.4363 103.0469 526.8656 103.4939 526.0832 104.4999 523.0653 104.6117 522.3947 104.6117 521.6123 104.3881 520.9417 104.0528 520.3828 103.3822 519.2651 103.0469 518.7063 102.8233 518.1474 102.8233 517.365 103.2704 516.8062 103.8293 516.3591 104.947 516.3591 105.7294 516.5826 106.2882 517.0297 106.7353 517.4768 107.6295 518.2592 108.0766 518.5945 108.5237 518.7063 109.0825 518.9298 109.8649 519.0416 110.6473 519.0416 111.4297 518.818 112.2121 518.2592 113.218 516.9179 114.224 516.1355 115.5652 513.453 116.1241 513.0059 118.0242 512 119.1419 511.2176 119.7008 510.547 120.1479 509.541 121.2656 506.7468 123.2774 504.7349 124.2834 509.3175 124.8422 509.8763 125.8482 510.6587 127.3012 511.4411 129.0895 512.7824 132.5545 516.2473 134.3428 518.818 135.7958 521.5006 138.5901 528.7657 138.9254 530.554 139.2607 536.3661 139.7078 538.7133 140.3784 539.7193 141.0491 540.1663 141.9432 540.2781 148.5377 540.3899 155.5793 538.0427 156.9206 537.7074 158.9325 537.7074 160.9443 538.1545 164.1857 539.3839 165.974 539.7193 169.5507 539.4957 171.5626 539.4957 178.8277 542.1782 180.0572 542.4018 181.1749 542.4018 181.9573 542.29 185.534 540.7252 186.6517 540.1663 188.6636 549.7787 188.6636 551.3435 188.3283 553.3553 187.6576 554.473 187.2106 555.3672 187.3223 555.8143 188.8871 556.7085 189.6695 557.3791 195.4816 563.0794 196.4876 563.9736 197.6053 564.6442 198.4994 564.8678 199.6172 564.8678 200.8466 564.6442 205.4293 562.1853 206.2117 561.8499 206.9941 561.9617 207.8882 562.6323 208.2235 563.8618 208.2235 565.3149 208.1118 566.5443 208.1118 567.3267 208.4471 568.4444 209.2295 569.2268 210.3472 569.7857 210.9061 570.4563 211.0178 570.9034 210.9061 571.7976 210.6825 572.4682 210.3472 573.0271 209.6766 573.4741 209.1177 573.8095 207.2176 574.4801 205.9881 574.7036 205.2057 575.0389 204.6469 575.3743 204.4233 575.5978 204.3116 575.7096 203.7527 576.2684 200.176 578.2803 198.9465 578.2803 194.3639 577.7215 192.6873 578.0568 191.2343 578.7274 189.6695 579.6216 187.3223 580.6275 184.7516 581.1864 178.1571 581.9688 176.257 580.9628 175.1393 579.8451 174.4686 578.8392 174.0216 578.3921 173.0156 577.4979 171.4508 576.492 170.6684 576.1567 168.0977 575.486 164.2975 573.9212 161.2796 573.1388 159.2678 573.0271 157.4794 573.1388 151.4438 574.033 146.8612 574.1448 144.6257 573.3624 143.0609 572.1329 142.5021 570.4563 142.055 567.3267 141.2726 564.4207 140.9373 563.1912 140.8255 561.9617 140.602 560.844 139.9314 560.5087 138.7019 560.6205 118.5831 566.209 111.0944 566.0972 105.1705 563.0794 103.941 561.1793 103.3822 559.2792 103.1586 557.4909 101.035 547.7668 101.035 545.7549 101.8174 541.1723 101.8174 540.1663 101.2585 539.1604 100.5879 538.6015 98.2407 536.925Z" />
  <path class="Karonga" d="M195.4816 159.5855L195.3699 159.5855 193.6933 159.3619 190.899 158.356 189.6695 158.356 188.44 158.6913 186.8752 159.2502 186.0928 159.2502 183.2986 157.5736 165.3034 142.3727 136.1311 96.7701 134.6781 93.7523 133.7839 92.5228 132.8898 92.1875 128.3072 92.6345 125.4011 92.6345 124.1716 92.1875 122.495 91.2933 118.136 87.6048 117.13 87.046 116.6829 86.9342 114.8946 86.7107 113.5534 86.4871 112.2121 85.7047 111.2062 84.6988 110.2002 83.2458 109.5296 82.4634 108.7472 81.7927 107.853 81.3457 106.2882 80.2279 105.7294 79.3338 105.3941 78.2161 105.5058 76.6513 105.7294 76.0924 106.2882 75.7571 109.5296 74.7512 115.677 70.8392 116.3476 70.2803 117.13 69.1626 117.5771 68.7155 119.1419 68.3802 120.1479 68.0449 121.9362 66.4801 122.7186 65.4741 123.6128 64.1329 124.7305 61.5622 125.1776 61.0033 126.5188 59.8856 128.1954 58.209 128.9778 57.5384 129.7602 57.0913 130.6543 56.756 132.8898 56.3089 133.3369 55.5265 133.4486 54.1853 132.5545 51.9498 132.3309 50.6086 132.1074 48.2614 131.6603 47.0319 130.7661 45.5789 130.319 44.3494 130.319 43.4552 130.6543 41.2198 130.7661 39.7668 130.2073 38.6491 129.6484 38.0902 127.1894 33.5076 127.3012 33.5076 128.866 33.284 128.866 33.3958 128.9778 33.3958 129.2013 33.3958 129.5366 33.3958 129.7602 33.284 129.7602 33.1723 130.5426 33.0605 133.1133 31.6075 133.2251 31.7193 133.2251 31.831 133.2251 31.9428 133.2251 32.0546 133.1133 32.2781 133.1133 32.3899 133.1133 32.5017 133.1133 32.6134 133.1133 32.837 133.0015 32.9487 133.0015 33.0605 132.8898 33.1723 132.8898 33.3958 133.2251 33.7311 133.3369 33.8429 133.5604 33.9547 133.6722 33.8429 133.8957 33.7311 133.8957 33.6194 134.0075 33.3958 134.1193 33.284 134.231 33.1723 134.3428 33.1723 134.4546 33.1723 134.5663 33.284 134.6781 33.3958 134.7899 33.284 134.7899 33.0605 135.0134 32.7252 135.0134 32.5017 135.0134 32.2781 135.1252 32.0546 135.237 32.0546 135.3487 31.9428 135.5723 31.9428 135.684 31.831 135.684 31.7193 135.684 31.6075 135.684 31.4957 135.3487 31.3839 135.3487 31.2722 135.3487 31.1604 135.4605 31.1604 135.5723 31.1604 135.684 31.1604 135.7958 31.1604 136.0194 31.0486 136.2429 30.9369 136.3547 30.9369 136.3547 30.8251 136.3547 30.7133 136.4664 30.7133 136.3547 30.4898 136.8018 30.378 136.9135 30.378 137.0253 30.4898 137.1371 30.378 137.1371 30.2662 137.2488 30.2662 137.6959 30.0427 137.6959 30.1545 137.8077 30.2662 137.9195 30.2662 138.0312 30.2662 138.143 30.2662 138.2548 30.2662 138.3666 30.2662 138.3666 30.378 138.5901 30.378 141.4961 32.1663 144.7375 35.5195 148.0906 37.6431 150.9967 38.8726 154.6851 41.108 156.5853 42.6728 156.5853 42.7846 156.697 42.8964 156.8088 42.8964 157.703 43.6788 159.156 46.2495 160.609 47.2554 159.6031 48.2614 159.0442 52.5087 160.0502 61.4504 163.068 68.492 163.9622 69.0508 164.9681 69.1626 165.7505 69.4979 166.0858 70.7274 166.0858 75.1982 167.5388 84.0282 171.2273 92.7463 181.7338 107.9472 188.8871 115.1006 192.7991 118.1184 194.9228 119.9067 195.8169 121.8068 196.3758 123.7069 197.7171 125.7188 202.2997 130.9721 203.3056 132.7604 204.6469 137.2312 206.0999 140.4726 206.3234 140.9197 205.541 142.2609 204.7586 142.3727 203.8645 142.2609 202.8585 142.5963 200.7349 144.4964 199.9525 145.6141 200.176 149.7496 200.5113 150.8673 200.9584 151.8733 201.0702 152.7674 200.176 153.7734 197.1582 155.5617 196.264 156.4559 195.1463 158.6913 195.4816 159.5855Z" />
  <path class="Kasungu" d="M109.8649 392.2931L111.765 392.7402 117.4653 393.9696 118.3595 394.6403 119.0301 395.5344 118.9184 396.4286 118.6948 397.0992 118.3595 397.7699 118.0242 398.3287 116.7947 399.7817 116.3476 400.2288 116.0123 400.8994 115.7888 401.5701 115.4535 403.1349 115.5652 410.1765 115.7888 411.6295 116.1241 412.5237 117.6889 414.5355 118.5831 416.2121 118.9184 417.218 118.9184 418.224 118.6948 418.7828 118.2477 419.2299 117.8007 419.677 117.2418 420.6829 116.9065 422.2477 116.7947 426.048 117.2418 427.501 117.8007 428.0598 119.3655 427.9481 120.1479 427.9481 121.042 428.0598 121.7127 428.3952 122.2715 428.7305 123.0539 429.6246 125.2893 432.9778 126.7424 434.5426 127.413 435.2132 128.0836 435.5485 128.6425 435.8838 130.0955 436.3309 131.7721 436.5545 133.5604 436.6662 134.3428 436.6662 135.0134 436.5545 136.3547 436.1074 136.9135 435.7721 137.9195 434.9897 138.3666 434.6543 138.9254 434.319 139.4843 434.0955 140.9373 433.9837 141.6079 433.8719 142.5021 434.0955 143.6198 434.7661 146.4141 437.2251 147.1965 437.6722 147.7553 437.6722 148.2024 437.4486 148.6495 437.0015 149.7672 436.4427 150.7732 436.1074 149.0966 446.3903 148.9848 450.5259 149.3201 451.7553 149.879 453.2084 150.5496 453.879 151.4438 454.3261 152.4497 454.3261 159.7149 453.4319 160.7208 453.4319 161.8385 453.6554 163.068 453.9908 164.6328 454.9967 165.7505 456.4497 167.0917 458.6851 171.3391 463.6031 171.8979 465.2796 172.1215 466.062 171.8979 466.3974 170.5567 467.068 165.527 471.2035 165.1916 471.6506 164.6328 472.5448 163.7386 475.0037 163.4033 475.4508 161.7267 477.0156 152.4497 481.5982 151.4438 482.4924 150.2143 483.7219 149.9908 484.7278 149.3201 486.1809 148.5377 486.8515 147.3083 487.6339 145.4081 488.4163 143.7316 489.7575 142.9492 490.6517 141.3844 493.6695 138.8136 496.5756 137.3606 497.8051 136.1311 498.4757 135.237 498.9228 134.7899 499.5934 134.4546 500.4876 134.0075 501.0464 133.4486 501.3817 131.2132 501.7171 129.0895 502.4994 127.1894 503.6172 125.1776 504.5113 123.2774 504.7349 121.2656 506.7468 120.1479 509.541 119.7008 510.547 119.1419 511.2176 118.0242 512 116.1241 513.0059 115.5652 513.453 114.224 516.1355 113.218 516.9179 112.2121 518.2592 111.4297 518.818 110.6473 519.0416 109.8649 519.0416 109.0825 518.9298 108.5237 518.7063 108.0766 518.5945 107.6295 518.2592 106.7353 517.4768 106.2882 517.0297 105.7294 516.5826 104.947 516.3591 103.8293 516.3591 103.2704 516.8062 102.8233 517.365 102.8233 518.1474 103.0469 518.7063 103.3822 519.2651 104.0528 520.3828 104.3881 520.9417 104.6117 521.6123 104.6117 522.3947 104.4999 523.0653 103.4939 526.0832 103.0469 526.8656 101.4821 529.4363 100.5879 532.4541 98.2407 536.925 97.123 538.378 96.4524 538.7133 95.2229 539.0486 94.4405 539.6075 93.3228 542.29 93.0992 543.2959 93.3228 543.9666 93.6581 544.5254 93.9934 545.4196 93.9934 546.6491 93.7699 548.7727 93.3228 549.8904 92.8757 550.6728 89.1872 553.8024 86.84 556.3732 81.6986 550.5611 78.2337 548.4374 76.8924 547.2079 75.1041 545.0843 70.6332 540.837 69.0684 538.8251 67.9507 536.7014 66.4977 533.013 64.4858 528.5421 63.8152 526.9773 63.7034 525.3008 64.2623 522.6183 64.2623 521.277 63.5916 519.3769 62.921 518.4827 62.1386 518.1474 34.084 519.824 32.2957 520.0475 34.084 512.6706 36.4312 507.5292 39.5608 503.5054 43.4728 502.3877 44.1435 500.5993 43.6964 499.0345 41.6845 496.0167 40.6785 493.7813 40.1197 491.6576 40.0079 489.3105 42.0198 474.892 45.4847 466.8444 46.0436 463.2678 45.0376 460.0264 41.908 457.1204 38.4431 454.9967 37.6607 453.5437 36.8783 443.9314 37.3254 441.6959 39.002 438.1193 43.5846 431.3012 47.4966 423.4772 48.8378 421.6889 50.6262 420.0123 51.7439 419.5652 52.6381 419.7888 53.3087 420.5712 53.8675 421.5771 54.7617 422.3595 55.8794 421.9124 56.9971 420.9065 58.0031 420.3476 60.015 419.7888 61.0209 419.677 62.2504 420.0123 63.1446 420.9065 64.5976 423.8125 65.1564 424.4832 66.4977 424.3714 67.0565 423.7008 67.5036 422.8066 68.286 422.136 68.8449 421.6889 69.4037 421.13 70.1861 420.6829 71.5274 420.2359 73.3157 419.0064 75.4394 414.5355 76.8924 412.859 77.8983 412.4119 81.2515 411.853 82.9281 411.9648 84.1575 412.6354 85.1635 413.3061 86.1694 413.6414 89.0755 412.9707 91.9815 411.1824 94.5523 408.4999 96.5641 405.4821 98.0172 404.1408 101.8174 402.576 103.0469 401.0112 103.0469 397.7699 103.7175 396.8757 105.6176 396.5404 106.5118 394.305 109.8649 392.2931Z" />
  <path class="Likoma" d="M262.4326 352.1672L263.4385 348.5905 264.7798 347.4728 268.3564 349.2612 266.2328 350.3789 266.2328 351.8319 266.6799 353.3967 266.121 355.0733 264.7798 355.7439 263.3267 355.2968 262.0972 354.4026 261.3149 353.6202 262.4326 352.1672Z" />
  <path class="Lilongwe" d="M86.84 556.3732L89.1872 553.8024 92.8757 550.6728 93.3228 549.8904 93.7699 548.7727 93.9934 546.6491 93.9934 545.4196 93.6581 544.5254 93.3228 543.9666 93.0992 543.2959 93.3228 542.29 94.4405 539.6075 95.2229 539.0486 96.4524 538.7133 97.123 538.378 98.2407 536.925 100.5879 538.6015 101.2585 539.1604 101.8174 540.1663 101.8174 541.1723 101.035 545.7549 101.035 547.7668 103.1586 557.4909 103.3822 559.2792 103.941 561.1793 105.1705 563.0794 111.0944 566.0972 118.5831 566.209 138.7019 560.6205 139.9314 560.5087 140.602 560.844 140.8255 561.9617 140.9373 563.1912 141.2726 564.4207 142.055 567.3267 142.5021 570.4563 143.0609 572.1329 144.6257 573.3624 146.8612 574.1448 151.4438 574.033 157.4794 573.1388 159.2678 573.0271 161.2796 573.1388 164.2975 573.9212 168.0977 575.486 170.6684 576.1567 171.4508 576.492 173.0156 577.4979 174.0216 578.3921 174.4686 578.8392 175.1393 579.8451 176.257 580.9628 178.1571 581.9688 184.7516 581.1864 187.3223 580.6275 189.6695 579.6216 191.2343 578.7274 192.6873 578.0568 194.3639 577.7215 198.9465 578.2803 200.176 578.2803 203.7527 576.2684 203.5292 579.9569 202.0761 581.4099 198.4994 582.8629 196.8229 583.9806 196.0405 584.9866 195.4816 585.9925 195.3699 586.7749 195.5934 587.6691 196.264 588.2279 197.3817 588.3397 198.6112 587.8926 203.0821 585.6572 204.088 585.3219 205.0939 585.0983 206.6587 585.0983 208 585.5454 205.7646 589.3457 203.4174 591.5811 200.176 593.9283 198.6112 594.7107 197.9406 595.6048 197.3817 596.9461 196.8229 598.5109 193.358 605.1054 192.2403 606.782 190.3402 608.5703 188.7754 610.9175 186.8752 613.0411 185.7575 614.7177 184.9751 616.2825 183.7457 619.971 181.7338 621.9828 179.8337 623.4359 178.3806 625.5595 176.8158 627.2361 175.251 628.5773 173.9098 629.248 168.9919 629.8068 167.2035 630.8128 166.1976 632.154 165.6387 633.9424 165.0799 640.0898 164.4092 642.2134 163.4033 643.3311 162.2856 643.89 161.1679 643.89 159.9384 644.1135 156.9206 645.343 155.6911 645.6783 153.3439 645.4548 151.7791 646.0136 149.0966 647.9138 147.6436 649.4785 146.1905 650.5963 137.3606 654.8436 135.684 655.8495 134.5663 657.1908 133.5604 658.7556 133.0015 660.6557 132.5545 662.6675 132.2191 668.3679 131.7721 669.8209 128.9778 674.2917 127.8601 675.2977 126.5188 676.0801 125.4011 677.8684 123.1657 678.9861 121.3773 674.0682 120.2596 672.3916 118.8066 671.2739 115.4535 669.5974 114.0004 668.4796 112.8827 666.8031 112.2121 665.1265 111.4297 663.5617 109.6414 662.1087 104.2763 659.6497 102.7116 658.3085 100.3644 655.1789 93.8816 641.9899 91.6462 638.8603 89.8579 635.3954 90.1932 633.0482 88.7402 626.4537 86.7283 621.0887 86.5047 619.3003 86.7283 617.7355 87.7342 614.7177 87.9578 612.7058 87.0636 608.6821 87.0636 607.4526 87.1754 606.5584 87.6224 605.5525 87.846 603.7641 87.6224 602.1993 87.0636 600.8581 84.4928 596.9461 82.5927 592.0282 82.0339 591.134 81.2515 590.1281 80.2455 589.3457 79.1278 588.2279 78.0101 586.7749 76.7806 584.2042 76.5571 583.0865 76.7806 582.1923 77.6748 581.1864 78.0101 580.404 78.2337 579.2862 78.4572 575.9331 78.6807 575.0389 78.9043 574.3683 79.6867 573.3624 80.1338 572.58 80.5809 571.6858 80.8044 570.2328 80.6926 569.2268 80.3573 568.2209 80.3573 567.4385 80.5809 566.8796 80.9162 566.3208 82.7045 564.3089 82.9281 563.7501 83.3751 562.1853 83.934 560.9558 84.7164 559.8381 85.1635 559.391 86.0576 558.2733 86.84 556.3732Z" />
  <path class="Machinga" d="M394.9932 676.5272L399.5758 682.451 405.835 688.822 407.288 690.7221 407.9586 692.9575 409.2999 720.565 410.1941 721.6827 411.7589 721.9063 414.5531 721.9063 409.747 733.1952 406.2821 741.578 400.1347 756.22 399.2405 759.4614 399.2405 762.591 399.7993 764.7146 366.9386 764.1558 366.6033 764.3793 366.0444 764.7146 365.8209 765.0499 364.5914 766.0559 363.2502 766.9501 361.5736 767.6207 358.8911 768.5149 357.2145 768.7384 355.7615 768.7384 353.4143 767.956 346.9316 765.2735 344.3608 764.7146 342.9078 764.8264 341.4548 765.2735 340.6724 765.8323 338.2134 768.4031 336.9839 769.1855 335.7545 769.1855 334.1897 768.9619 332.066 768.1795 329.9424 767.7325 328.7129 767.956 327.7069 768.7384 326.5892 769.8561 325.0244 770.862 323.7949 770.862 322.9008 770.1914 322.3419 769.409 321.336 767.1736 322.3419 766.1677 323.3479 764.044 323.7949 761.2497 325.5833 756.3318 326.3657 752.8669 328.6011 748.1725 328.9364 746.943 329.0482 744.8194 329.3835 743.7017 330.2777 742.1369 334.0779 735.9894 335.978 734.6482 337.3193 733.5305 338.2134 730.6244 339.4429 720.0062 339.2194 713.747 337.7663 708.0466 334.7485 704.8053 334.3014 704.5817 334.525 703.5758 334.4132 703.2405 333.8543 701.5639 333.7426 700.8933 333.7426 700.2227 333.7426 699.4403 334.1897 698.2108 334.8603 697.2048 335.0838 696.646 335.3074 695.3047 335.6427 694.7459 335.978 694.5223 336.8722 694.6341 337.431 694.8576 338.1017 695.193 338.884 695.7518 341.0077 697.6519 342.4607 699.2167 343.802 701.4521 344.5844 702.1228 345.4785 702.5699 346.9316 702.7934 353.4143 705.0288 355.3144 705.4759 357.3263 705.0288 359.1146 704.1347 362.4678 700.558 364.3679 699.552 365.7091 698.9932 367.0504 698.3226 368.3916 696.5342 368.9505 694.7459 369.0623 692.9575 368.5034 688.4867 368.5034 687.5925 368.8387 686.9219 370.7388 684.7982 372.5272 683.6805 375.3215 682.5628 381.5806 681.1098 384.7102 680.6627 388.5105 680.5509 391.4165 679.4332 394.8814 676.6389 394.9932 676.5272Z" />
  <path class="Mangochi" d="M281.9925 541.6194L285.7927 544.0783 298.87 556.0378 310.0471 566.3208 321.1124 579.6216 334.8603 596.0519 346.4845 610.0233 357.3263 623.1006 365.9327 639.6427 376.998 653.7259 390.2988 670.7151 394.9932 676.5272 394.8814 676.6389 391.4165 679.4332 388.5105 680.5509 384.7102 680.6627 381.5806 681.1098 375.3215 682.5628 372.5272 683.6805 370.7388 684.7982 368.8387 686.9219 368.5034 687.5925 368.5034 688.4867 369.0623 692.9575 368.9505 694.7459 368.3916 696.5342 367.0504 698.3226 365.7091 698.9932 364.3679 699.552 362.4678 700.558 359.1146 704.1347 357.3263 705.0288 355.3144 705.4759 353.4143 705.0288 346.9316 702.7934 345.4785 702.5699 344.5844 702.1228 343.802 701.4521 342.4607 699.2167 341.0077 697.6519 338.884 695.7518 338.1017 695.193 337.431 694.8576 336.8722 694.6341 335.978 694.5223 335.6427 694.7459 335.3074 695.3047 335.0838 696.646 334.8603 697.2048 334.1897 698.2108 333.7426 699.4403 333.7426 700.2227 333.7426 700.8933 333.8543 701.5639 334.4132 703.2405 334.525 703.5758 334.3014 704.5817 299.3171 704.5817 298.0876 704.5817 293.7285 701.3404 289.9283 699.552 288.2517 697.9872 273.3861 678.092 269.9212 667.5855 268.0211 658.3085 267.2387 645.0077 267.2387 639.5309 267.2387 639.3074 268.3564 638.9721 270.2565 638.6367 272.492 637.7426 274.5039 636.4013 275.398 634.9483 275.5098 633.8306 276.0686 633.16 277.5217 632.2658 277.7452 631.1481 276.9628 629.8068 275.9569 628.4656 275.398 627.2361 276.6275 623.7712 279.5336 620.5298 281.769 617.4002 280.9866 614.2706 278.9747 610.5822 279.4218 607.1173 281.8807 605.4407 285.681 606.5584 287.3575 607.8997 290.1518 610.9175 291.9402 611.9234 290.8224 616.5061 291.8284 621.8711 294.7344 625.5595 298.87 624.5536 299.4288 625.2242 300.9936 626.5655 301.5525 627.2361 304.4585 626.789 307.5881 629.5833 310.0471 633.8306 311.053 637.6308 311.8354 638.8603 314.965 642.6605 315.4121 643.4429 317.6475 644.2253 319.1006 646.0136 321.5595 649.8139 327.7069 655.1789 327.9305 655.7377 328.2658 656.5201 328.7129 657.4143 329.3835 657.8614 330.5012 657.7496 332.4013 656.4084 333.4073 656.073 334.3014 655.1789 335.3074 652.9435 335.978 650.708 335.978 649.3668 333.9661 646.2372 328.7129 635.5072 327.3716 631.4834 326.9245 626.789 322.9008 620.5298 321.7831 618.2944 321.8948 616.1707 322.3419 613.9353 322.4537 611.9234 321.0007 608.4585 316.418 601.3052 315.4121 597.6167 315.1886 593.0341 314.7415 590.5751 313.8473 587.5573 313.7355 585.3219 313.2884 584.5395 311.7237 582.6394 310.2706 580.5157 308.7058 575.9331 308.0352 572.2447 306.2469 569.7857 301.4407 568.7798 288.2517 569.2268 286.3516 569.0033 284.0044 567.8856 281.0983 564.8678 280.4277 561.4029 281.3219 553.02 280.763 546.9844 281.9925 541.6194Z" />
  <path class="Mchinji" d="M32.2957 520.0475L34.084 519.824 62.1386 518.1474 62.921 518.4827 63.5916 519.3769 64.2623 521.277 64.2623 522.6183 63.7034 525.3008 63.8152 526.9773 64.4858 528.5421 66.4977 533.013 67.9507 536.7014 69.0684 538.8251 70.6332 540.837 75.1041 545.0843 76.8924 547.2079 78.2337 548.4374 81.6986 550.5611 86.84 556.3732 86.0576 558.2733 85.1635 559.391 84.7164 559.8381 83.934 560.9558 83.3751 562.1853 82.9281 563.7501 82.7045 564.3089 80.9162 566.3208 80.5809 566.8796 80.3573 567.4385 80.3573 568.2209 80.6926 569.2268 80.8044 570.2328 80.5809 571.6858 80.1338 572.58 79.6867 573.3624 78.9043 574.3683 78.6807 575.0389 78.4572 575.9331 78.2337 579.2862 78.0101 580.404 77.6748 581.1864 76.7806 582.1923 76.5571 583.0865 76.7806 584.2042 78.0101 586.7749 79.1278 588.2279 80.2455 589.3457 81.2515 590.1281 82.0339 591.134 82.5927 592.0282 84.4928 596.9461 87.0636 600.8581 87.6224 602.1993 87.846 603.7641 87.6224 605.5525 87.1754 606.5584 87.0636 607.4526 87.0636 608.6821 87.9578 612.7058 87.7342 614.7177 86.7283 617.7355 86.5047 619.3003 86.7283 621.0887 88.7402 626.4537 90.1932 633.0482 89.8579 635.3954 89.5226 634.7248 88.6284 633.9424 87.5107 633.4953 85.6106 632.2658 84.6046 631.0363 81.3633 625.7831 80.8044 623.4359 81.475 616.8414 80.1338 613.1529 77.2277 610.9175 70.1861 607.0055 68.0625 604.323 64.0387 596.8343 62.2504 595.2695 61.0209 596.0519 59.7914 599.4051 58.5619 600.5228 54.2029 601.7523 52.4145 602.7582 50.6262 604.6583 46.7142 611.2528 44.367 611.8117 41.3492 607.8997 40.6785 605.8878 41.1256 599.2933 41.3492 598.5109 41.3492 597.8403 40.5668 596.7226 39.5608 596.1637 37.3254 596.3872 36.2077 595.4931 35.4253 593.3694 35.2018 591.4693 34.6429 589.4574 28.2719 581.6334 26.4836 579.9569 22.5716 578.5039 17.8772 577.4979 14.1888 575.9331 13.4064 572.3564 14.8594 570.9034 19.442 568.668 20.5597 567.215 19.8891 565.6502 15.0829 558.8321 11.618 557.2673 7.0354 557.2673 2.8999 556.3732 1.4469 552.1259 2.0057 549.4433 3.2352 548.4374 5.0235 548.5492 7.4825 549.4433 9.0473 549.108 12.5122 546.202 14.1888 545.0843 18.8832 544.4136 20.5597 543.1842 21.1186 540.2781 21.0068 537.9309 21.3421 535.8073 22.3481 534.3542 24.6953 534.0189 28.3837 532.1188 30.6191 527.0891 32.2957 520.0475Z" />
  <path class="Mulanje" d="M342.6843 827.0829L346.2609 826.8594 347.2669 826.4123 349.0552 825.6299 350.62 825.2946 355.985 825.0711 357.5498 824.8475 358.5558 824.5122 362.356 820.0414 363.3619 819.259 366.3798 817.0235 367.3857 818.1413 367.4975 818.3648 367.4975 818.5883 367.2739 819.259 366.8268 820.6002 366.7151 820.8238 366.7151 820.9355 366.4915 821.2708 366.3798 821.3826 366.268 821.4944 366.1562 821.6062 365.9327 821.6062 365.8209 821.7179 365.1503 822.9474 365.0385 823.2827 364.815 823.5063 364.815 823.618 364.7032 823.7298 364.3679 824.1769 362.9149 826.6359 362.6913 827.4183 362.5795 828.0889 362.6913 828.3124 362.8031 828.3124 362.9149 828.3124 363.0266 828.3124 363.4737 828.3124 363.5855 828.3124 363.6972 828.4242 364.0326 828.536 364.1443 828.536 364.3679 828.6477 364.5914 828.7595 364.7032 828.8713 364.815 828.9831 364.815 829.0948 365.7091 841.2779 366.1562 843.8486 366.8268 845.8605 367.0504 846.3076 367.2739 846.5311 367.4975 846.6429 367.721 846.8664 367.8328 846.9782 367.9446 846.9782 368.0563 847.09 368.2799 847.2018 368.2799 847.3135 368.3916 847.3135 368.5034 847.2018 368.6152 847.2018 368.727 847.3135 368.9505 847.6488 369.174 847.7606 369.174 847.9842 369.2858 848.0959 369.5094 848.3195 369.6211 848.543 369.7329 848.6548 369.8447 848.7666 369.9564 848.7666 370.0682 848.8783 370.18 848.8783 370.2917 848.8783 370.5153 848.7666 370.7388 848.6548 370.8506 848.6548 370.9624 848.6548 371.0741 848.7666 371.2977 848.8783 371.5212 849.4372 375.2097 859.7201 375.8803 860.5025 380.91 856.0317 384.0396 854.914 384.5985 855.0257 386.1633 856.1435 388.0634 858.0436 390.2988 859.8319 391.193 860.279 392.1989 861.1732 392.4224 861.3967 392.8695 861.5085 393.4284 861.732 393.6519 861.732 393.7637 861.6202 393.9872 861.6202 394.099 861.5085 394.3226 861.2849 394.4343 861.1732 394.5461 861.0614 394.7696 860.9496 395.105 860.8378 395.2167 860.7261 395.3285 860.7261 395.552 860.7261 395.6638 860.6143 396.2227 860.279 396.4462 860.1672 396.558 860.0554 396.6697 859.9437 397.0051 859.8319 397.4521 859.6084 397.6757 859.6084 397.7875 859.6084 398.1228 859.6084 398.2345 859.6084 398.4581 859.4966 398.6816 859.4966 398.9052 859.4966 399.464 859.9437 399.6876 860.0554 399.7993 860.0554 400.1347 860.0554 400.2464 860.0554 400.47 860.1672 400.5817 860.279 400.6935 860.279 400.8053 860.279 400.8053 860.1672 399.9111 863.6321 400.0229 865.644 400.6935 869.7795 400.5817 871.7914 399.3523 874.6975 397.4521 876.8211 388.1751 883.3039 386.8339 883.9745 385.7162 884.0862 383.2572 883.6392 381.916 883.7509 369.8447 887.4394 366.7151 887.7747 366.0444 888.5571 365.7091 890.569 364.9267 891.7985 363.2502 891.6867 361.5736 890.9043 360.4559 889.8983 359.5617 887.6629 357.4381 886.2099 354.8673 885.5393 352.2966 885.3157 349.3905 886.0981 347.0433 887.7747 338.1017 895.8222 337.431 896.7164 335.978 895.2634 335.5309 894.5927 335.4191 893.3633 335.6427 892.022 336.5369 889.6748 337.3193 888.3336 338.1017 887.4394 338.7723 886.8805 339.89 885.651 340.4488 881.8508 338.884 869.7795 340.5606 865.5322 341.1195 864.8616 341.7901 863.4086 341.9019 861.5085 340.1135 839.4895 340.2253 834.5716 342.6843 827.0829Z" />
  <path class="Mwanza" d="M215.4887 833.3421L223.3127 822.2768 224.8774 818.0295 225.2128 812.7762 240.3019 814.4528 255.391 816.0176 269.0271 817.4706 269.3624 825.7417 269.1388 826.6359 268.4682 827.6418 267.6858 828.536 265.6739 829.6537 265.6739 831.3303 266.5681 834.3481 267.3505 844.1839 240.3019 843.5133 235.2722 841.8367 217.277 834.1245 215.4887 833.3421Z" />
  <path class="Mzimba" d="M81.475 210.2178L83.934 211.2238 89.7461 213.571 94.4405 214.3534 98.7996 214.5769 99.8055 215.024 100.4761 215.8064 101.035 218.0418 101.3703 220.2772 101.3703 221.6185 101.1468 222.848 100.6997 223.8539 100.2526 224.8598 100.1408 225.9776 100.5879 227.207 101.5938 227.5424 102.7116 227.207 105.2823 225.3069 107.5177 223.4068 109.4178 221.3949 110.2002 220.5008 111.765 217.7065 112.4356 216.8123 113.4416 216.1417 115.1182 215.8064 116.4594 216.1417 117.6889 217.1476 119.0301 218.3771 120.3714 219.3831 122.048 220.389 123.6128 220.6125 124.954 220.6125 129.8719 219.9419 130.9897 220.0537 131.7721 220.7243 132.778 222.848 133.4486 223.7421 134.5663 224.5245 135.7958 224.5245 136.8018 224.4128 137.8077 224.0774 138.7019 223.4068 139.4843 222.5127 139.8196 221.6185 139.9314 220.8361 139.8196 220.2772 139.4843 219.7184 139.0372 218.936 138.8136 218.1536 139.0372 217.3712 139.7078 216.9241 144.2904 215.6946 148.2024 215.2475 160.2737 216.9241 162.062 216.7006 163.1798 215.9182 164.0739 210.3296 164.2975 209.4354 164.7446 208.7648 165.6387 208.9883 173.9098 215.5828 175.6981 217.7065 177.2629 220.0537 179.0513 223.4068 177.71 232.6838 174.5804 243.0785 174.3569 245.4257 174.6922 246.9905 176.5923 247.9965 177.4865 248.6671 178.1571 249.673 181.1749 261.409 181.622 262.1914 183.4103 264.2033 184.9751 269.0095 184.8634 271.2449 184.3045 272.3626 183.1868 272.9215 180.8396 273.4803 179.0513 274.3745 178.6042 274.598 178.0453 274.3745 176.7041 273.7039 175.9217 273.5921 175.251 273.4803 173.3509 273.5921 172.0097 274.4862 170.7802 276.051 169.3272 279.6277 168.3212 281.4161 167.3153 282.7573 166.1976 283.4279 164.9681 283.7633 163.9622 283.875 163.068 283.7633 158.0383 282.3102 157.3677 282.1985 156.3617 282.1985 155.3558 282.5338 154.3498 283.0926 151.6673 285.7751 150.8849 286.2222 150.1025 286.5575 148.873 287.3399 147.42 288.4576 145.6317 290.6931 144.6257 292.0343 144.0669 293.4873 142.6139 300.6407 142.2785 303.3232 142.2785 304.888 142.3903 306.2293 142.6139 307.5705 143.1727 308.9118 143.9551 309.9177 145.4081 311.259 145.8552 311.5943 146.1905 312.2649 146.3023 313.0473 146.6376 313.9415 147.1965 314.7239 148.9848 316.2887 149.4319 317.4064 149.4319 319.53 148.6495 321.8772 148.0906 324.5597 146.9729 326.3481 146.6376 327.4658 146.5259 328.6953 147.3083 331.7131 147.5318 333.725 147.5318 336.2957 147.6436 338.084 148.2024 339.7606 148.6495 340.9901 148.9848 342.5549 148.5377 343.7844 145.967 347.2493 144.9611 348.2552 143.7316 348.9259 142.2785 349.2612 140.9373 349.3729 139.596 349.82 138.3666 350.7142 137.1371 352.1672 135.9076 354.2909 135.5723 355.5204 135.684 356.6381 136.4664 357.3087 137.4724 357.8675 139.596 358.6499 140.3784 359.097 140.9373 359.7677 141.6079 360.7736 142.2785 361.4442 143.0609 362.0031 144.1787 362.2266 151.7791 362.2266 143.508 369.1564 141.2726 372.7331 141.2726 373.8508 141.8315 377.5393 142.2785 378.9923 143.3963 380.11 144.8493 380.6689 148.873 381.0042 150.6614 382.1219 152.338 383.7985 154.2381 387.8222 155.5793 389.7223 157.9265 392.4048 158.3736 394.4167 158.5971 397.3228 159.2678 399.2229 160.0502 400.7877 161.0561 402.1289 162.1738 403.3584 163.4033 404.029 166.7564 403.9173 168.433 404.1408 173.1274 406.488 174.5804 407.0469 176.1452 407.3822 177.71 407.6057 179.2748 407.4939 182.2926 406.7116 183.4103 406.7116 184.7516 407.3822 185.0869 407.941 185.1987 408.3881 185.0869 408.7234 184.8634 409.0587 182.8515 410.8471 181.8455 412.1883 180.8396 415.0944 180.5043 416.1003 179.8337 416.771 179.163 417.1063 176.7041 417.4416 174.0216 418.1122 172.9039 418.5593 171.8979 419.1182 169.7743 420.7947 168.433 421.6889 164.2975 423.1419 160.4972 423.7008 159.4913 424.1479 158.5971 424.8185 157.8147 425.4891 157.1441 426.2715 153.6792 432.1954 150.7732 436.1074 149.7672 436.4427 148.6495 437.0015 148.2024 437.4486 147.7553 437.6722 147.1965 437.6722 146.4141 437.2251 143.6198 434.7661 142.5021 434.0955 141.6079 433.8719 140.9373 433.9837 139.4843 434.0955 138.9254 434.319 138.3666 434.6543 137.9195 434.9897 136.9135 435.7721 136.3547 436.1074 135.0134 436.5545 134.3428 436.6662 133.5604 436.6662 131.7721 436.5545 130.0955 436.3309 128.6425 435.8838 128.0836 435.5485 127.413 435.2132 126.7424 434.5426 125.2893 432.9778 123.0539 429.6246 122.2715 428.7305 121.7127 428.3952 121.042 428.0598 120.1479 427.9481 119.3655 427.9481 117.8007 428.0598 117.2418 427.501 116.7947 426.048 116.9065 422.2477 117.2418 420.6829 117.8007 419.677 118.2477 419.2299 118.6948 418.7828 118.9184 418.224 118.9184 417.218 118.5831 416.2121 117.6889 414.5355 116.1241 412.5237 115.7888 411.6295 115.5652 410.1765 115.4535 403.1349 115.7888 401.5701 116.0123 400.8994 116.3476 400.2288 116.7947 399.7817 118.0242 398.3287 118.3595 397.7699 118.6948 397.0992 118.9184 396.4286 119.0301 395.5344 118.3595 394.6403 117.4653 393.9696 111.765 392.7402 109.8649 392.2931 110.4238 391.9578 111.5415 389.8341 111.3179 387.2634 109.8649 386.7045 107.7413 386.7045 102.8233 385.0279 93.4345 387.8222 88.9637 386.2574 86.393 382.3454 84.1575 373.292 82.5927 369.0447 81.1397 367.2563 77.563 363.7914 76.5571 361.6678 76.4453 357.3087 76.8924 352.9496 81.9221 341.1019 83.0398 334.3956 83.8222 332.3837 84.2693 330.2601 83.7105 328.4717 82.2574 325.5657 82.2574 323.5538 83.934 318.6359 84.3811 313.8297 83.2634 297.1758 82.9281 292.705 82.1457 290.5813 80.4691 288.5694 78.3454 288.2341 76.11 288.5694 73.9864 288.5694 71.8627 287.6752 71.4156 286.6693 73.3157 282.6455 74.2099 280.1866 74.3217 278.6218 73.7628 267.5564 74.8805 265.7681 78.1219 268.4506 79.2396 266.6623 79.2396 264.9857 79.0161 263.3091 79.2396 261.409 79.7985 260.7384 81.8103 259.956 82.481 259.2854 82.5927 258.503 82.1457 257.0499 82.3692 256.1558 91.3109 242.4079 93.0992 238.7195 94.2169 234.8075 90.0814 227.6541 87.2871 224.7481 84.9399 221.5067 83.0398 217.93 81.8103 214.018 81.475 210.2178Z" />
  <path class="Neno" d="M225.2128 812.7762L224.095 804.8405 224.095 800.3696 225.6598 798.1342 228.007 797.0165 230.466 792.881 233.0367 791.3162 233.9309 789.6396 234.4898 786.3982 235.1604 784.7217 236.6134 782.7098 238.1782 781.7039 239.8548 780.8097 241.5314 779.4684 243.8785 776.0035 244.3256 772.6504 243.0961 763.2616 244.8845 763.3734 250.8084 764.6029 258.4088 766.9501 258.9677 766.9501 261.0913 766.6147 262.0972 766.7265 263.1032 766.9501 264.8915 767.6207 269.9212 768.5149 271.8213 769.1855 273.3861 769.8561 274.3921 770.7503 275.5098 771.868 276.0686 773.6563 276.404 775.1094 276.5157 776.4506 276.404 777.233 276.0686 778.5743 276.1804 779.2449 276.404 779.692 277.2981 779.9155 277.857 779.9155 279.31 778.2389 306.2469 779.692 300.6583 783.1569 300.323 783.3804 297.9758 784.4981 293.952 784.9452 292.7226 785.3923 289.1459 788.4101 287.9164 788.969 285.9045 792.0986 281.2101 805.8464 279.31 808.8642 277.0746 809.7584 270.8154 813.7822 269.3624 815.2352 269.0271 817.4706 255.391 816.0176 240.3019 814.4528 225.2128 812.7762Z" />
  <path class="Nkhata Bay" d="M285.7927 264.8739L286.3516 265.8799 288.6988 267.8917 286.2398 265.8799 285.7927 264.8739ZM179.0513 223.4068L196.5993 213.0121 201.4055 209.3237 201.0702 221.2832 201.8526 225.5305 203.6409 227.9894 200.176 234.2486 199.2818 237.6018 200.6231 240.9549 201.4055 242.1844 201.4055 243.5256 201.0702 246.767 201.4055 248.7789 202.2997 249.8966 203.5292 250.679 204.6469 252.0202 207.2176 259.3971 208 275.604 210.5707 284.881 210.459 288.6812 211.1296 290.0224 211.912 291.2519 212.5826 293.152 213.2532 296.6169 213.1415 300.8642 212.0238 303.435 206.8823 308.4647 205.4293 309.2471 204.6469 310.0295 204.088 310.8119 203.6409 312.4884 203.1938 313.1591 201.8526 314.2768 198.8348 315.9534 197.6053 317.1828 196.1523 320.0889 195.1463 324.0009 195.1463 327.8011 196.7111 330.4836 182.1809 341.6607 180.6161 343.7844 179.8337 346.0198 179.163 351.0495 177.5982 357.5322 177.1512 361.6678 175.6981 368.0387 175.6981 370.1624 175.4746 370.1624 166.0858 367.927 160.9443 365.6915 159.2678 364.5738 156.4735 362.1149 155.244 361.6678 154.1263 361.6678 151.7791 362.2266 144.1787 362.2266 143.0609 362.0031 142.2785 361.4442 141.6079 360.7736 140.9373 359.7677 140.3784 359.097 139.596 358.6499 137.4724 357.8675 136.4664 357.3087 135.684 356.6381 135.5723 355.5204 135.9076 354.2909 137.1371 352.1672 138.3666 350.7142 139.596 349.82 140.9373 349.3729 142.2785 349.2612 143.7316 348.9259 144.9611 348.2552 145.967 347.2493 148.5377 343.7844 148.9848 342.5549 148.6495 340.9901 148.2024 339.7606 147.6436 338.084 147.5318 336.2957 147.5318 333.725 147.3083 331.7131 146.5259 328.6953 146.6376 327.4658 146.9729 326.3481 148.0906 324.5597 148.6495 321.8772 149.4319 319.53 149.4319 317.4064 148.9848 316.2887 147.1965 314.7239 146.6376 313.9415 146.3023 313.0473 146.1905 312.2649 145.8552 311.5943 145.4081 311.259 143.9551 309.9177 143.1727 308.9118 142.6139 307.5705 142.3903 306.2293 142.2785 304.888 142.2785 303.3232 142.6139 300.6407 144.0669 293.4873 144.6257 292.0343 145.6317 290.6931 147.42 288.4576 148.873 287.3399 150.1025 286.5575 150.8849 286.2222 151.6673 285.7751 154.3498 283.0926 155.3558 282.5338 156.3617 282.1985 157.3677 282.1985 158.0383 282.3102 163.068 283.7633 163.9622 283.875 164.9681 283.7633 166.1976 283.4279 167.3153 282.7573 168.3212 281.4161 169.3272 279.6277 170.7802 276.051 172.0097 274.4862 173.3509 273.5921 175.251 273.4803 175.9217 273.5921 176.7041 273.7039 178.0453 274.3745 178.6042 274.598 179.0513 274.3745 180.8396 273.4803 183.1868 272.9215 184.3045 272.3626 184.8634 271.2449 184.9751 269.0095 183.4103 264.2033 181.622 262.1914 181.1749 261.409 178.1571 249.673 177.4865 248.6671 176.5923 247.9965 174.6922 246.9905 174.3569 245.4257 174.5804 243.0785 177.71 232.6838 179.0513 223.4068Z" />
  <path class="Nkhotakota" d="M151.7791 362.2266L154.1263 361.6678 155.244 361.6678 156.4735 362.1149 159.2678 364.5738 160.9443 365.6915 166.0858 367.927 175.4746 370.1624 175.6981 370.1624 175.6981 370.2741 176.8158 378.7688 179.163 385.0279 179.3866 386.2574 179.3866 387.7105 179.8337 388.9399 182.0691 389.8341 182.7397 390.84 182.9633 392.0695 182.7397 393.0755 185.6458 393.7461 188.1047 393.4108 190.6755 393.4108 193.5815 395.3109 197.6053 406.9351 198.0524 409.8411 197.9406 411.0706 197.1582 412.3001 195.9287 413.6414 195.3699 414.8708 195.0345 418.1122 195.0345 421.2418 195.5934 424.5949 197.6053 430.6306 200.2878 435.4367 202.1879 437.6722 206.9941 439.7958 207.1058 442.5901 205.4293 448.9611 206.2117 451.7553 210.1237 455.2202 211.4649 457.4557 211.5767 459.1322 210.7943 462.2618 211.1296 463.8266 212.0238 464.7208 213.0297 463.9384 213.7003 462.3736 214.0356 461.1441 214.371 462.9325 213.4768 466.8444 213.2532 469.0799 214.7063 475.6744 214.9298 496.9109 216.1593 505.9644 215.6004 509.6528 212.8062 513.5648 211.2414 517.2532 211.6884 521.6123 213.2532 525.8596 213.9239 526.9773 213.5886 526.9773 202.635 533.2365 197.3817 535.5837 194.2521 536.1426 192.6873 536.3661 188.8871 538.1545 187.7694 520.8299 185.0869 510.7705 185.3105 508.7586 185.7575 507.0821 186.3164 505.8526 186.4282 504.8466 185.3105 497.9168 184.9751 496.5756 184.3045 495.5696 182.8515 495.3461 181.622 495.3461 180.6161 495.1226 179.8337 494.5637 179.3866 493.3342 179.2748 491.993 179.4983 490.8752 179.8337 489.7575 180.0572 488.7516 179.7219 488.081 179.163 487.9692 173.798 489.6458 173.2392 489.9811 173.0156 490.5399 172.1215 493.7813 171.6744 494.899 171.1155 495.5696 170.2213 496.352 169.2154 496.5756 168.2095 496.2403 167.0917 495.4579 166.1976 494.5637 165.527 493.7813 165.6387 491.5459 165.527 490.3164 164.0739 487.7457 163.4033 486.7397 162.7327 486.0691 161.8385 483.4983 161.7267 477.0156 163.4033 475.4508 163.7386 475.0037 164.6328 472.5448 165.1916 471.6506 165.527 471.2035 170.5567 467.068 171.8979 466.3974 172.1215 466.062 171.8979 465.2796 171.3391 463.6031 167.0917 458.6851 165.7505 456.4497 164.6328 454.9967 163.068 453.9908 161.8385 453.6554 160.7208 453.4319 159.7149 453.4319 152.4497 454.3261 151.4438 454.3261 150.5496 453.879 149.879 453.2084 149.3201 451.7553 148.9848 450.5259 149.0966 446.3903 150.7732 436.1074 153.6792 432.1954 157.1441 426.2715 157.8147 425.4891 158.5971 424.8185 159.4913 424.1479 160.4972 423.7008 164.2975 423.1419 168.433 421.6889 169.7743 420.7947 171.8979 419.1182 172.9039 418.5593 174.0216 418.1122 176.7041 417.4416 179.163 417.1063 179.8337 416.771 180.5043 416.1003 180.8396 415.0944 181.8455 412.1883 182.8515 410.8471 184.8634 409.0587 185.0869 408.7234 185.1987 408.3881 185.0869 407.941 184.7516 407.3822 183.4103 406.7116 182.2926 406.7116 179.2748 407.4939 177.71 407.6057 176.1452 407.3822 174.5804 407.0469 173.1274 406.488 168.433 404.1408 166.7564 403.9173 163.4033 404.029 162.1738 403.3584 161.0561 402.1289 160.0502 400.7877 159.2678 399.2229 158.5971 397.3228 158.3736 394.4167 157.9265 392.4048 155.5793 389.7223 154.2381 387.8222 152.338 383.7985 150.6614 382.1219 148.873 381.0042 144.8493 380.6689 143.3963 380.11 142.2785 378.9923 141.8315 377.5393 141.2726 373.8508 141.2726 372.7331 143.508 369.1564 151.7791 362.2266Z" />
  <path class="Nsanje" d="M284.7868 962.2143L285.681 960.7613 285.7927 960.7613 288.4752 956.514 290.5989 954.5021 292.9461 953.0491 294.5109 952.3784 295.1815 951.596 295.2933 950.8136 294.958 949.8077 294.8462 948.3547 295.5168 946.1193 296.2992 944.6662 303.229 936.954 305.688 934.6068 306.5822 934.048 307.0293 933.4891 307.3646 932.5949 311.5001 913.035 318.6535 920.859 319.6594 921.3061 320.8889 921.5296 321.336 920.6354 323.5714 920.1883 329.4953 921.9767 329.4953 922.0884 329.0482 923.8768 329.0482 929.13 328.3776 931.4772 326.5892 933.3773 317.7593 939.3012 316.0827 940.4189 318.2064 946.3428 320.2183 949.6959 320.7771 951.0372 321.5595 952.1549 322.9008 952.602 324.1303 952.8255 326.9245 953.9432 327.7069 954.3903 328.2658 954.9492 328.9364 956.4022 329.4953 957.0728 329.8306 957.2964 330.9483 957.8552 331.2836 958.0788 334.3014 961.4319 334.7485 962.1025 335.0838 970.9325 335.6427 973.615 338.2134 978.7564 338.7723 982.1096 335.6427 984.7921 335.3074 987.5864 335.6427 992.7278 335.1956 993.2867 334.4132 993.8455 333.8543 994.6279 333.8543 995.4103 334.4132 996.081 338.5487 998.5399 339.3311 999.6576 338.6605 1001.3342 337.3193 1003.7932 337.2075 1005.9168 338.3252 1010.9465 338.437 1013.629 338.1017 1015.8645 337.431 1017.7646 336.5369 1019.2176 336.4251 1019.2176 329.16 1020 316.3063 1019.6647 309.6 1018.547 307.6999 1016.6469 308.147 1013.182 303.8997 1006.811 304.9056 1002.6755 307.6999 1000.3283 310.9413 998.7635 313.7355 996.7516 315.1886 993.0631 315.6356 988.8158 315.5239 983.8979 314.4062 979.7624 311.5001 977.6387 307.2528 977.527 303.4526 977.8623 299.8759 977.3034 296.0757 974.2856 293.7285 971.156 292.7226 969.9265 290.9342 968.697 290.04 968.3617 288.1399 968.0264 287.2458 967.4675 286.6869 966.4616 286.2398 963.8909 285.681 962.7732 284.7868 962.2143Z" />
  <path class="Ntcheu" d="M243.0961 763.2616L241.7549 753.0904 241.9784 750.855 243.2079 749.402 242.8726 747.949 242.0902 746.2724 241.7549 744.3723 242.5373 742.5839 245.108 738.8955 246.0022 736.9954 246.3375 734.76 245.3316 732.7481 243.9903 730.7362 242.8726 728.6125 242.0902 726.0418 241.7549 723.8064 241.7549 714.0823 240.9725 709.9468 239.6312 706.0348 237.5076 701.7875 236.2781 697.3166 238.0664 689.4926 237.8429 685.0218 235.831 680.8862 229.1248 674.2917 226.2187 670.6033 221.9714 661.9969 220.2948 659.538 221.8596 658.1967 223.2009 657.1908 223.8715 656.9672 224.5421 656.9672 227.56 657.5261 229.4601 657.7496 230.5778 658.0849 231.4719 658.4202 232.2543 658.9791 233.1485 659.6497 235.2722 660.5439 236.7252 661.8851 238.0664 661.9969 240.0783 661.5498 247.3435 658.532 256.844 651.3787 267.2387 645.0077 268.0211 658.3085 269.9212 667.5855 273.3861 678.092 288.2517 697.9872 289.9283 699.552 293.7285 701.3404 298.0876 704.5817 297.4169 706.1465 297.6405 708.1584 298.1993 710.2821 298.1993 711.6233 297.9758 713.2999 295.8521 720.9003 295.2933 722.018 288.8106 731.0715 288.4752 731.9657 288.2517 732.5245 288.6988 733.754 288.8106 734.6482 288.8106 735.7659 279.31 778.2389 277.857 779.9155 277.2981 779.9155 276.404 779.692 276.1804 779.2449 276.0686 778.5743 276.404 777.233 276.5157 776.4506 276.404 775.1094 276.0686 773.6563 275.5098 771.868 274.3921 770.7503 273.3861 769.8561 271.8213 769.1855 269.9212 768.5149 264.8915 767.6207 263.1032 766.9501 262.0972 766.7265 261.0913 766.6147 258.9677 766.9501 258.4088 766.9501 250.8084 764.6029 244.8845 763.3734 243.0961 763.2616Z" />
  <path class="Ntchisi" d="M123.2774 504.7349L125.1776 504.5113 127.1894 503.6172 129.0895 502.4994 131.2132 501.7171 133.4486 501.3817 134.0075 501.0464 134.4546 500.4876 134.7899 499.5934 135.237 498.9228 136.1311 498.4757 137.3606 497.8051 138.8136 496.5756 141.3844 493.6695 142.9492 490.6517 143.7316 489.7575 145.4081 488.4163 147.3083 487.6339 148.5377 486.8515 149.3201 486.1809 149.9908 484.7278 150.2143 483.7219 151.4438 482.4924 152.4497 481.5982 161.7267 477.0156 161.8385 483.4983 162.7327 486.0691 163.4033 486.7397 164.0739 487.7457 165.527 490.3164 165.6387 491.5459 165.527 493.7813 166.1976 494.5637 167.0917 495.4579 168.2095 496.2403 169.2154 496.5756 170.2213 496.352 171.1155 495.5696 171.6744 494.899 172.1215 493.7813 173.0156 490.5399 173.2392 489.9811 173.798 489.6458 179.163 487.9692 179.7219 488.081 180.0572 488.7516 179.8337 489.7575 179.4983 490.8752 179.2748 491.993 179.3866 493.3342 179.8337 494.5637 180.6161 495.1226 181.622 495.3461 182.8515 495.3461 184.3045 495.5696 184.9751 496.5756 185.3105 497.9168 186.4282 504.8466 186.3164 505.8526 185.7575 507.0821 185.3105 508.7586 185.0869 510.7705 187.7694 520.8299 188.8871 538.1545 186.6517 540.1663 185.534 540.7252 181.9573 542.29 181.1749 542.4018 180.0572 542.4018 178.8277 542.1782 171.5626 539.4957 169.5507 539.4957 165.974 539.7193 164.1857 539.3839 160.9443 538.1545 158.9325 537.7074 156.9206 537.7074 155.5793 538.0427 148.5377 540.3899 141.9432 540.2781 141.0491 540.1663 140.3784 539.7193 139.7078 538.7133 139.2607 536.3661 138.9254 530.554 138.5901 528.7657 135.7958 521.5006 134.3428 518.818 132.5545 516.2473 129.0895 512.7824 127.3012 511.4411 125.8482 510.6587 124.8422 509.8763 124.2834 509.3175 123.2774 504.7349Z" />
  <path class="Phalombe" d="M366.3798 817.0235L368.0563 812.888 369.0623 811.8821 370.5153 810.8761 371.9683 810.2055 378.6746 805.7347 381.6924 802.9404 383.4807 800.9285 386.6103 799.4755 391.4165 798.0224 405.9468 797.4636 406.0585 797.4636 405.2761 807.9701 404.1584 824.5122 403.376 836.2482 402.1465 855.2493 400.8053 860.1672 400.8053 860.279 400.6935 860.279 400.5817 860.279 400.47 860.1672 400.2464 860.0554 400.1347 860.0554 399.7993 860.0554 399.6876 860.0554 399.464 859.9437 398.9052 859.4966 398.6816 859.4966 398.4581 859.4966 398.2345 859.6084 398.1228 859.6084 397.7875 859.6084 397.6757 859.6084 397.4521 859.6084 397.0051 859.8319 396.6697 859.9437 396.558 860.0554 396.4462 860.1672 396.2227 860.279 395.6638 860.6143 395.552 860.7261 395.3285 860.7261 395.2167 860.7261 395.105 860.8378 394.7696 860.9496 394.5461 861.0614 394.4343 861.1732 394.3226 861.2849 394.099 861.5085 393.9872 861.6202 393.7637 861.6202 393.6519 861.732 393.4284 861.732 392.8695 861.5085 392.4224 861.3967 392.1989 861.1732 391.193 860.279 390.2988 859.8319 388.0634 858.0436 386.1633 856.1435 384.5985 855.0257 384.0396 854.914 380.91 856.0317 375.8803 860.5025 375.2097 859.7201 371.5212 849.4372 371.2977 848.8783 371.0741 848.7666 370.9624 848.6548 370.8506 848.6548 370.7388 848.6548 370.5153 848.7666 370.2917 848.8783 370.18 848.8783 370.0682 848.8783 369.9564 848.7666 369.8447 848.7666 369.7329 848.6548 369.6211 848.543 369.5094 848.3195 369.2858 848.0959 369.174 847.9842 369.174 847.7606 368.9505 847.6488 368.727 847.3135 368.6152 847.2018 368.5034 847.2018 368.3916 847.3135 368.2799 847.3135 368.2799 847.2018 368.0563 847.09 367.9446 846.9782 367.8328 846.9782 367.721 846.8664 367.4975 846.6429 367.2739 846.5311 367.0504 846.3076 366.8268 845.8605 366.1562 843.8486 365.7091 841.2779 364.815 829.0948 364.815 828.9831 364.7032 828.8713 364.5914 828.7595 364.3679 828.6477 364.1443 828.536 364.0326 828.536 363.6972 828.4242 363.5855 828.3124 363.4737 828.3124 363.0266 828.3124 362.9149 828.3124 362.8031 828.3124 362.6913 828.3124 362.5795 828.0889 362.6913 827.4183 362.9149 826.6359 364.3679 824.1769 364.7032 823.7298 364.815 823.618 364.815 823.5063 365.0385 823.2827 365.1503 822.9474 365.8209 821.7179 365.9327 821.6062 366.1562 821.6062 366.268 821.4944 366.3798 821.3826 366.4915 821.2708 366.7151 820.9355 366.7151 820.8238 366.8268 820.6002 367.2739 819.259 367.4975 818.5883 367.4975 818.3648 367.3857 818.1413 366.3798 817.0235Z" />
  <path class="Rumphi" d="M165.3034 142.3727L183.2986 157.5736 186.0928 159.2502 186.8752 159.2502 188.44 158.6913 189.6695 158.356 190.899 158.356 193.6933 159.3619 195.3699 159.5855 195.4816 159.5855 195.9287 160.7032 197.3817 162.7151 198.4994 164.8387 198.3877 166.4035 197.6053 170.8744 197.6053 172.8862 199.3936 179.9278 201.5173 204.8528 201.4055 209.3237 196.5993 213.0121 179.0513 223.4068 177.2629 220.0537 175.6981 217.7065 173.9098 215.5828 165.6387 208.9883 164.7446 208.7648 164.2975 209.4354 164.0739 210.3296 163.1798 215.9182 162.062 216.7006 160.2737 216.9241 148.2024 215.2475 144.2904 215.6946 139.7078 216.9241 139.0372 217.3712 138.8136 218.1536 139.0372 218.936 139.4843 219.7184 139.8196 220.2772 139.9314 220.8361 139.8196 221.6185 139.4843 222.5127 138.7019 223.4068 137.8077 224.0774 136.8018 224.4128 135.7958 224.5245 134.5663 224.5245 133.4486 223.7421 132.778 222.848 131.7721 220.7243 130.9897 220.0537 129.8719 219.9419 124.954 220.6125 123.6128 220.6125 122.048 220.389 120.3714 219.3831 119.0301 218.3771 117.6889 217.1476 116.4594 216.1417 115.1182 215.8064 113.4416 216.1417 112.4356 216.8123 111.765 217.7065 110.2002 220.5008 109.4178 221.3949 107.5177 223.4068 105.2823 225.3069 102.7116 227.207 101.5938 227.5424 100.5879 227.207 100.1408 225.9776 100.2526 224.8598 100.6997 223.8539 101.1468 222.848 101.3703 221.6185 101.3703 220.2772 101.035 218.0418 100.4761 215.8064 99.8055 215.024 98.7996 214.5769 94.4405 214.3534 89.7461 213.571 83.934 211.2238 81.475 210.2178 81.0279 206.3058 80.1338 202.1703 78.2337 200.6055 76.4453 200.829 74.8805 200.829 73.8746 200.1584 73.9864 198.2583 75.1041 196.0229 76.3336 195.5758 77.6748 195.9111 79.2396 196.0229 81.1397 194.7934 83.4869 191.2167 85.0517 189.8755 86.7283 189.2048 89.9696 188.646 91.758 187.8636 93.5463 187.64 97.6818 188.4224 99.6937 188.5342 101.3703 187.7518 103.7175 185.4046 105.6176 185.0693 108.1883 183.5045 109.6414 181.2691 111.6532 176.0158 117.9124 168.9743 119.589 167.8565 121.2656 167.1859 126.1835 163.4975 128.1954 161.7091 130.319 158.5795 130.2073 158.0207 133.8957 156.5677 165.3034 142.3727Z" />
  <path class="Salima" d="M281.9925 541.6194L280.763 546.9844 280.5395 544.4136 280.763 542.4018 281.0983 541.284 281.8807 541.6194 281.9925 541.6194ZM188.8871 538.1545L192.6873 536.3661 194.2521 536.1426 197.3817 535.5837 202.635 533.2365 213.5886 526.9773 213.9239 526.9773 220.1831 537.3721 222.8656 543.4077 225.3245 546.3138 226.4422 547.9903 227.6717 549.2198 229.4601 549.7787 231.8073 549.3316 235.7193 547.8785 237.7311 548.1021 239.4077 549.2198 240.4136 550.7846 242.0902 554.473 243.7668 556.3732 247.567 559.7263 248.3494 561.6264 249.2436 562.9677 251.2554 564.4207 252.7085 566.209 252.1496 568.3327 250.6966 570.6799 250.6966 572.58 251.1437 574.3683 250.9201 576.8273 250.2495 577.8332 248.1259 579.5098 247.3435 580.5157 247.2317 581.7452 248.1259 583.9806 248.3494 584.9866 246.114 591.134 245.2198 592.587 241.9784 596.1637 239.8548 598.958 239.2959 602.3111 241.4196 613.7118 241.7549 614.7177 241.0843 615.053 240.5254 615.3883 239.8548 615.8354 238.9606 616.5061 236.2781 619.4121 235.6075 619.971 235.0486 620.1945 233.5956 619.1886 231.4719 617.0649 227.4482 611.0293 223.2009 603.3171 221.4125 601.1934 213.5886 593.4812 208 585.5454 206.6587 585.0983 205.0939 585.0983 204.088 585.3219 203.0821 585.6572 198.6112 587.8926 197.3817 588.3397 196.264 588.2279 195.5934 587.6691 195.3699 586.7749 195.4816 585.9925 196.0405 584.9866 196.8229 583.9806 198.4994 582.8629 202.0761 581.4099 203.5292 579.9569 203.7527 576.2684 204.3116 575.7096 204.4233 575.5978 204.6469 575.3743 205.2057 575.0389 205.9881 574.7036 207.2176 574.4801 209.1177 573.8095 209.6766 573.4741 210.3472 573.0271 210.6825 572.4682 210.9061 571.7976 211.0178 570.9034 210.9061 570.4563 210.3472 569.7857 209.2295 569.2268 208.4471 568.4444 208.1118 567.3267 208.1118 566.5443 208.2235 565.3149 208.2235 563.8618 207.8882 562.6323 206.9941 561.9617 206.2117 561.8499 205.4293 562.1853 200.8466 564.6442 199.6172 564.8678 198.4994 564.8678 197.6053 564.6442 196.4876 563.9736 195.4816 563.0794 189.6695 557.3791 188.8871 556.7085 187.3223 555.8143 187.2106 555.3672 187.6576 554.473 188.3283 553.3553 188.6636 551.3435 188.6636 549.7787 186.6517 540.1663 188.8871 538.1545Z" />
  <path class="Thyolo" d="M329.4953 922.0884L329.4953 921.9767 323.5714 920.1883 321.336 920.6354 320.8889 921.5296 319.6594 921.3061 318.6535 920.859 311.5001 913.035 309.8235 907.4464 310.0471 906.4405 309.9353 905.0992 309.8235 904.0933 292.7226 884.4216 285.4574 872.5738 288.9223 871.6796 289.9283 871.009 293.1696 868.103 294.3991 866.5382 296.7463 862.0673 297.6405 860.9496 298.5347 860.0554 299.2053 859.7201 299.9877 859.4966 302.4466 859.3848 304.235 858.9377 317.9828 850.6667 322.6772 850.6667 323.9067 851.002 324.6891 851.6726 325.5833 852.9021 326.4774 854.0198 331.0601 858.2671 331.8425 859.4966 332.5131 861.3967 333.1837 864.191 333.7426 865.4205 334.7485 866.7617 336.3133 868.3265 338.884 869.7795 340.4488 881.8508 339.89 885.651 338.7723 886.8805 338.1017 887.4394 337.3193 888.3336 336.5369 889.6748 335.6427 892.022 335.4191 893.3633 335.5309 894.5927 335.978 895.2634 337.431 896.7164 334.6367 900.0695 332.2895 905.0992 331.3954 911.2466 331.7307 912.6997 333.1837 916.3881 332.7366 917.7294 329.7188 921.4178 329.4953 922.0884Z" />
  <path class="Zomba" d="M399.7993 764.7146L402.8172 777.0095 406.3938 791.875 406.0585 797.3518 406.0585 797.4636 405.9468 797.4636 391.4165 798.0224 386.6103 799.4755 383.4807 800.9285 381.6924 802.9404 378.6746 805.7347 371.9683 810.2055 370.5153 810.8761 369.0623 811.8821 368.0563 812.888 366.3798 817.0235 363.3619 819.259 362.356 820.0414 358.5558 824.5122 357.5498 824.8475 355.985 825.0711 350.62 825.2946 349.0552 825.6299 347.2669 826.4123 346.2609 826.8594 342.6843 827.0829 336.9839 825.0711 335.5309 824.1769 333.9661 822.8356 332.1778 820.1531 331.2836 818.3648 330.2777 815.4587 329.3835 814.2293 328.2658 813.3351 326.2539 812.4409 324.9127 811.5468 324.0185 810.2055 323.9067 808.8642 324.1303 806.9641 323.9067 806.1817 323.2361 805.9582 321.7831 806.7406 320.8889 807.2994 320.1065 807.7465 319.2123 807.4112 317.424 807.7465 315.7474 807.8583 315.0768 807.7465 314.2944 807.4112 313.7355 806.7406 313.6238 805.7347 313.8473 804.8405 314.2944 804.0581 316.8651 800.9285 317.2004 800.1461 317.0887 799.699 316.1945 799.4755 313.9591 799.4755 312.9531 799.2519 311.7237 798.246 310.4942 796.9047 306.2469 790.5338 303.3408 788.0748 300.6583 783.1569 306.2469 779.692 311.3883 778.3507 312.9531 776.7859 315.5239 772.6504 321.336 767.1736 322.3419 769.409 322.9008 770.1914 323.7949 770.862 325.0244 770.862 326.5892 769.8561 327.7069 768.7384 328.7129 767.956 329.9424 767.7325 332.066 768.1795 334.1897 768.9619 335.7545 769.1855 336.9839 769.1855 338.2134 768.4031 340.6724 765.8323 341.4548 765.2735 342.9078 764.8264 344.3608 764.7146 346.9316 765.2735 353.4143 767.956 355.7615 768.7384 357.2145 768.7384 358.8911 768.5149 361.5736 767.6207 363.2502 766.9501 364.5914 766.0559 365.8209 765.0499 366.0444 764.7146 366.6033 764.3793 366.9386 764.1558 399.7993 764.7146Z" />
</svg>