<?xml version="1.0" encoding="utf-8"?>
<svg xmlns="http://www.w3.org/2000/svg" viewBox="0 0 678 1024" style="stroke-width:0.25px;stroke-linejoin:round;stroke:#444;fill:#ddd" fill-rule="evenodd">
  <path class="Railik Chain" d="M282.1733 917.3941L282.8439 917.6176 283.6263 917.8411 284.1851 917.6176 284.6322 916.7234 284.8558 915.941 284.744 915.0469 284.5205 914.2645 285.3029 915.4939 284.8558 917.1705 283.7381 918.1765 282.1733 917.3941ZM340.4061 1020L345.324 1018.3234 346.3299 1017.541 348.6771 1014.5232 347.6712 1016.9822 345.9946 1018.8823 343.5356 1020 340.4061 1020ZM430.6054 897.1635L432.6173 896.1575 433.3997 895.4869 433.9585 894.5927 434.5174 893.2515 435.4116 890.2337 436.0822 885.5393 437.0881 882.9685 439.2118 881.1802 441.559 879.6154 443.4591 877.9388 445.0239 875.927 443.6826 879.6154 438.0941 883.4156 436.8646 887.3276 436.4175 890.3454 435.0762 894.3692 433.1761 897.387 430.6054 897.1635ZM347.6712 745.9371L354.8245 745.9371 353.3715 747.5019 351.0243 747.5019 346.4417 746.3842 341.412 745.49 339.4001 744.7076 339.8472 743.2546 341.3002 744.5958 343.5356 745.2664 345.6593 745.8253 347.6712 745.9371ZM329.5642 736.3248L328.3348 735.4306 327.4406 733.6422 327.3288 731.7421 328.223 730.2891 328.5583 731.6304 329.2289 734.9835 329.5642 736.3248ZM162.9134 355.5204L161.9075 357.3087 160.0074 358.4264 157.7719 358.3146 156.0954 356.9734 159.6721 356.6381 162.9134 355.5204ZM383.2144 913.4821L383.438 912.3644 383.7733 912.5879 383.2144 913.4821ZM368.3488 719.2238L368.5724 718.5531 368.5724 718.2178 368.0135 717.4354 366.8958 717.1001 365.6663 716.9883 366.2252 716.7648 367.0076 716.7648 367.79 716.7648 368.3488 717.1001 368.6842 717.9943 368.7959 718.2178 368.6842 718.7767 368.6842 719.5591 368.3488 719.2238ZM212.4281 644.3371L213.0987 645.4548 212.2045 645.1195 212.4281 644.3371ZM245.4006 603.3171L245.2888 602.7582 245.177 602.3111 245.5123 601.864 246.1829 601.4169 246.2947 602.0876 246.1829 602.5347 245.4006 603.3171ZM26.8879 308.6882L27.1114 308.8 27.5585 309.0235 27.8938 309.3589 28.2292 310.1413 26.8879 308.6882ZM1.1805 302.429L1.1805 301.0878 1.6276 300.8642 1.8512 301.3113 1.1805 302.429Z" />
  <path class="Ratak Chain" d="M643.4177 867.097L643.753 867.4323 644.2001 867.9912 645.2061 868.8854 645.4296 869.3325 644.759 869.3325 643.753 869.3325 643.1942 868.8854 643.0824 868.103 643.4177 867.097ZM661.86 767.0618L662.6424 766.3912 663.0894 765.7206 662.9777 765.0499 662.4188 764.3793 663.7601 765.0499 663.313 766.3912 661.7482 767.6207 660.0716 767.8442 660.5187 767.5089 660.9658 767.2854 661.86 767.0618ZM673.8195 871.7914L671.6958 871.6796 669.2369 872.1267 667.1132 872.015 665.6602 870.4502 665.8837 870.5619 666.5543 870.7855 667.5603 871.009 670.4663 871.1208 673.8195 871.7914ZM646.5473 779.692L643.9766 779.3567 639.841 776.2271 637.0468 775.6682 632.3524 776.3388 630.2287 775.4447 628.6639 772.2033 629.6699 773.5446 630.7876 774.4387 632.1288 774.8858 638.6116 774.6623 639.9528 774.8858 644.3119 778.4625 646.5473 779.692ZM610.4452 765.8323L607.7627 767.3971 600.3858 768.5149 597.368 770.0796 594.5737 770.0796 591.3323 769.6326 577.2492 763.3734 574.6784 761.3615 576.1315 759.7967 576.2432 760.8026 576.355 761.3615 576.9139 762.4792 593.7913 769.2972 594.7972 769.2972 597.368 768.8502 599.6034 768.0678 610.4452 765.8323ZM650.124 771.4209L650.3475 771.0856 650.4593 770.862 650.6828 770.7503 651.0182 770.6385 650.3475 771.9798 649.5651 773.0975 648.5592 774.1034 647.3297 774.9976 648.0003 773.9916 650.124 771.4209ZM556.348 585.8807L555.6773 586.9985 555.1185 586.8867 555.0067 586.7749 554.8949 586.7749 555.342 585.769 555.6773 585.5454 556.2362 585.5454 556.348 585.8807ZM495.4327 530.1069L495.3209 528.4304 495.768 528.4304 496.1033 529.3245 495.4327 530.1069ZM558.6952 446.7256L558.6952 445.4961 559.0305 445.3844 559.0305 446.6139 558.6952 446.7256ZM372.8197 4L373.155 4 372.4844 4.7824 371.4784 5.7883 370.4725 6.3472 371.5902 5.1177 372.8197 4Z" />
</svg>