<?xml version="1.0" encoding="utf-8"?>
<svg xmlns="http://www.w3.org/2000/svg" viewBox="0 0 1004 1024" style="stroke-width:0.25px;stroke-linejoin:round;stroke:#444;fill:#ddd" fill-rule="evenodd">
  <path class="Christ Church Nichola Town" d="M329.7136 277.3923L253.821 262.7503 249.7972 241.8491 227.8901 216.8123 265.7805 160.2561 261.8685 137.2312 283.5521 96.9936 403.2591 169.1978 381.5755 181.1573 369.616 202.1703 355.6446 235.5899 357.6564 277.3923 329.7136 277.3923Z" />
  <path class="Saint Anne Sandy Point" d="M15.1895 118.1184L52.1858 128.9602 64.1453 112.1945 82.1405 120.5773 78.1167 143.6022 165.9689 162.3798 144.0617 206.3058 130.0903 206.3058 114.107 243.9727 92.1999 280.2983 1.4417 176.6865 15.1895 118.1184Z" />
  <path class="Saint George Basseterre" d="M423.9367 404.2526L399.5706 358.9853 407.5064 348.4788 391.6349 317.1828 411.5301 310.9237 425.5015 333.8367 467.4157 342.2196 499.3823 358.9853 527.3251 382.0101 555.1561 379.4394 564.4331 402.4642 599.1939 462.8207 649.6028 488.3045 691.6287 512.1118 728.5132 564.8678 728.7367 618.1826 660.1092 644.3371 621.1011 617.512 588.0168 496.1285 527.1015 458.1263 486.8639 412.5237 458.5858 402.2407 423.9367 404.2526Z" />
  <path class="Saint George Gingerland" d="M910.3649 1020L870.6861 875.2563 920.6479 860.6143 962.562 875.2563 998.9994 898.1694 999.5583 926.1122 994.4168 954.1668 978.6571 993.1749 966.2505 1006.811 910.3649 1020Z" />
  <path class="Saint James Windward" d="M998.9994 898.1694L962.562 875.2563 920.6479 860.6143 870.6861 875.2563 818.8243 772.8739 766.2919 734.76 807.3119 690.1633 871.245 691.5045 926.907 710.2821 969.6036 751.9727 994.4168 822.2768 997.9935 851.4491 998.9994 898.1694Z" />
  <path class="Saint John Capesterre" d="M165.9689 162.3798L163.957 143.6022 144.0617 137.2312 134.0023 118.4537 132.1022 80.7868 132.1022 49.3791 120.7015 22.4422 129.1961 4 283.5521 96.9936 261.8685 137.2312 265.7805 160.2561 227.8901 216.8123 165.9689 162.3798Z" />
  <path class="Saint John Figtree" d="M738.5726 930.5831L778.922 927.4535 828.7719 917.0587 870.6861 875.2563 910.3649 1020 767.5213 1008.3758 738.5726 930.5831Z" />
  <path class="Saint Mary Cayon" d="M379.5636 279.516L357.6564 277.3923 355.6446 235.5899 369.616 202.1703 381.5755 181.1573 403.2591 169.1978 435.7845 188.7578 486.1933 243.3021 461.4919 256.4911 429.5253 256.4911 399.5706 252.3556 379.5636 279.516Z" />
  <path class="Saint Paul Capesterre" d="M15.1895 118.1184L25.9196 72.0686 37.8791 61.0033 46.1502 55.0794 55.3154 51.6145 69.8457 48.0378 107.4008 31.9428 120.7015 22.4422 132.1022 49.3791 132.1022 80.7868 134.0023 118.4537 144.0617 137.2312 163.957 143.6022 165.9689 162.3798 78.1167 143.6022 82.1405 120.5773 64.1453 112.1945 52.1858 128.9602 15.1895 118.1184Z" />
  <path class="Saint Paul Charlestown" d="M738.5726 930.5831L723.8188 890.6807 814.8006 898.2812 870.6861 875.2563 828.7719 917.0587 778.922 927.4535 738.5726 930.5831Z" />
  <path class="Saint Peter Basseterre" d="M391.6349 317.1828L379.5636 279.516 399.5706 252.3556 429.5253 256.4911 461.4919 256.4911 486.1933 243.3021 511.1183 270.3507 555.1561 379.4394 527.3251 382.0101 499.3823 358.9853 467.4157 342.2196 425.5015 333.8367 411.5301 310.9237 391.6349 317.1828Z" />
  <path class="Saint Thomas Lowland" d="M870.6861 875.2563L814.8006 898.2812 723.8188 890.6807 747.5143 755.1023 766.2919 734.76 818.8243 772.8739 870.6861 875.2563Z" />
  <path class="Saint Thomas Middle Island" d="M92.1999 280.2983L114.107 243.9727 130.0903 206.3058 144.0617 206.3058 165.9689 162.3798 227.8901 216.8123 249.7972 241.8491 253.821 262.7503 329.7136 277.3923 317.7541 321.3184 293.7233 333.8367 283.7757 361.1089 276.7341 383.7985 224.0899 362.3384 92.1999 280.2983Z" />
  <path class="Trinity Palmetto Point" d="M276.7341 383.7985L283.7757 361.1089 293.7233 333.8367 317.7541 321.3184 329.7136 277.3923 357.6564 277.3923 379.5636 279.516 391.6349 317.1828 407.5064 348.4788 399.5706 358.9853 423.9367 404.2526 361.6802 407.7175 321.8897 402.2407 276.7341 383.7985Z" />
</svg>