<?xml version="1.0" encoding="utf-8"?>
<svg xmlns="http://www.w3.org/2000/svg" viewBox="0 0 1021 449" style="stroke-width:0.25px;stroke-linejoin:round;stroke:#444;fill:#ddd" fill-rule="evenodd">
  <path class="Capital Territory (Honiara)" d="M339.1078 222.5999L340.6726 222.7117 343.6904 222.5999 344.4728 222.4881 345.1435 222.2646 345.8141 221.8175 346.9318 222.4881 346.4847 223.9411 346.4847 224.8353 345.367 225.2824 344.6964 224.5 342.3492 224.8353 340.1138 223.9411 339.1078 222.5999Z" />
  <path class="Central" d="M330.6132 202.4811L329.4955 202.034 328.9366 200.8045 328.7131 199.2397 329.2719 197.7867 329.719 197.6749 330.1661 197.6749 330.5014 197.5631 330.9485 197.1161 331.5074 198.6809 331.8427 200.3574 331.6191 201.9222 330.6132 202.4811ZM363.0268 201.4751L363.921 201.1398 364.8152 200.581 365.4858 199.9103 365.9329 199.3515 366.9388 195.5513 367.7212 193.8747 369.0625 194.0982 371.0744 197.6749 371.8568 198.2338 373.0862 198.3455 373.9804 198.4573 374.651 198.7926 375.3217 199.3515 374.3157 200.2457 373.198 202.3693 372.1921 203.0399 371.6332 203.487 369.9567 203.0399 368.3919 202.034 366.9388 201.4751 365.374 201.9222 365.7094 202.9282 364.5916 203.5988 362.8033 203.9341 361.2385 204.0459 361.5738 203.487 361.5738 202.9282 361.1267 202.5928 360.1208 202.4811 360.5679 201.6987 361.2385 201.4751 363.0268 201.4751ZM282.2163 193.5394L282.9987 193.4276 284.5635 191.5275 285.3459 190.9686 285.3459 191.304 285.2341 191.5275 285.0106 191.6393 284.8988 191.9746 284.8988 192.757 284.6752 192.8688 284.8988 193.5394 284.1164 194.3218 283.8928 194.9924 284.3399 195.3277 285.3459 195.1042 285.1223 197.0043 284.1164 198.2338 280.6515 199.7986 280.7633 197.7867 280.9868 196.3337 282.2163 193.5394ZM351.0673 193.5394L350.5085 193.4276 350.0614 193.2041 349.8378 192.757 349.7261 192.1981 350.2849 191.9746 351.738 191.8628 353.0792 191.4157 353.9734 190.4098 354.4205 190.9686 354.7558 190.298 354.9793 189.8509 354.8675 189.4039 354.4205 188.7332 354.7558 188.3979 354.9793 188.3979 355.4264 188.7332 356.8794 189.2921 358.2207 189.1803 359.5619 189.4039 360.6796 190.9686 361.2385 190.9686 362.0209 189.6274 363.3622 189.8509 364.927 190.9686 366.1564 192.1981 366.7153 193.8747 366.1564 196.1101 365.0387 198.122 363.8092 199.3515 363.5857 198.6809 363.3622 198.4573 362.9151 198.5691 362.2444 198.7926 362.2444 197.7867 361.7974 197.1161 361.1267 196.7807 360.1208 196.669 360.3443 197.1161 360.6796 198.2338 360.1208 198.2338 358.8913 196.2219 357.9971 195.4395 356.7677 195.8866 355.6499 196.4454 354.1969 196.4454 352.8557 196.1101 351.738 195.663 351.6262 195.216 351.6262 194.4336 351.5144 193.7629 351.0673 193.5394ZM280.0926 190.5216L280.7633 190.4098 282.2163 190.9686 279.7573 196.1101 278.6396 197.1161 274.9512 198.2338 274.2805 197.7867 273.8334 197.0043 273.1628 196.5572 272.2686 197.1161 270.3685 194.4336 270.4803 193.5394 272.9393 193.5394 272.3804 192.5334 272.7157 191.751 273.3864 191.5275 274.3923 191.9746 274.3923 190.9686 274.7276 191.0804 275.9571 191.4157 275.8453 190.6333 275.51 189.8509 275.0629 189.2921 274.3923 188.7332 275.51 188.7332 276.2924 189.0685 276.8513 189.1803 277.2983 188.845 277.5219 188.2861 278.0807 189.2921 278.1925 190.0745 278.4161 190.7451 279.1985 191.4157 279.5338 191.4157 280.0926 190.5216ZM349.7261 190.9686L348.7201 190.1862 348.8319 189.4039 349.3908 188.5097 349.7261 187.392 349.3908 185.3801 349.6143 184.7095 350.732 184.5977 351.9615 186.1625 352.4086 187.1684 352.2968 188.7332 351.2909 188.2861 350.6202 188.845 349.7261 190.9686Z" />
  <path class="Choiseul" d="M161.3916 66.1202L162.0623 66.6791 161.5034 67.3497 161.3916 68.1321 161.5034 69.0263 162.0623 69.8087 159.9386 68.2439 159.8268 69.4734 159.0444 69.9205 156.6972 69.8087 156.6972 69.3616 157.1443 69.1381 157.815 68.5792 158.262 68.2439 155.2442 67.3497 154.4618 66.9026 153.7912 66.9026 151.8911 66.9026 151.1087 66.6791 152.3382 65.7849 153.6794 65.1143 155.5795 65.4496 157.815 65.2261 159.7151 65.3378 160.9446 66.6791 161.3916 66.1202ZM174.0218 66.4556L174.1336 67.5733 175.0277 70.3675 175.5866 71.4853 173.5747 71.597 172.457 71.4853 171.2275 70.9264 170.6686 71.0382 170.1098 71.2617 169.5509 71.4853 168.9921 71.2617 168.545 70.5911 167.9861 70.3675 166.5331 69.4734 167.3155 67.5733 169.8862 64.5554 173.4629 65.8967 174.0218 66.4556ZM155.2442 60.6435L155.2442 62.5436 154.9089 63.5495 153.903 63.9966 151.7793 64.1084 150.8851 64.6672 148.985 68.2439 148.7615 67.3497 148.538 66.9026 147.9791 66.9026 147.4202 67.238 146.4143 66.3438 144.5142 66.0085 141.0493 65.6732 139.5963 65.2261 138.5903 64.2201 138.255 62.7671 138.9256 60.9788 138.3668 61.2023 137.8079 61.5376 136.9138 62.5436 136.3549 62.2083 136.0196 62.4318 135.9078 63.5495 134.4548 62.7671 131.7723 61.7612 130.0957 60.9788 126.0719 60.6435 125.4013 60.6435 124.8425 61.4259 123.8365 61.4259 122.7188 60.6435 121.9364 58.2963 121.0422 57.1785 120.0363 56.1726 119.1421 55.7255 118.4715 56.0608 116.9067 56.6197 115.9008 56.7315 116.5714 55.7255 115.789 54.3843 114.6713 53.3783 113.2183 52.7077 111.5417 52.4842 110.5358 52.1488 109.3063 51.1429 102.1529 42.7601 101.8176 41.9777 101.5941 41.0835 101.2587 40.1893 100.5881 39.854 99.5822 39.5187 99.0233 38.9598 98.2409 37.1715 95.2231 33.036 94.3289 32.4771 93.5465 31.6947 90.864 27.1121 89.6345 26.2179 86.0579 24.3178 84.9402 23.9825 83.9342 23.5354 75.4396 16.1585 75.3278 15.8232 73.6513 14.5937 73.2042 13.476 72.5336 9.3405 72.5336 7.7757 73.2042 6.658 75.6631 4.5343 77.0044 4.3108 78.7927 4.5343 80.2458 5.0932 81.2517 6.0991 81.6988 6.3227 82.2576 6.7697 82.4812 7.4404 82.8165 8.111 83.5989 8.111 84.3813 7.8875 84.6048 7.6639 87.5109 8.5581 89.5228 10.1229 93.5465 14.5937 94.5525 15.4879 98.0174 17.8351 101.2587 18.7293 106.0649 21.9706 109.1945 23.4237 111.9888 23.9825 113.33 24.6531 114.2242 24.9884 115.1184 25.4355 115.4537 26.4415 115.6772 27.0003 116.4596 27.0003 117.242 27.0003 118.0244 27.1121 118.8068 27.7827 120.4834 30.0182 123.3894 32.4771 123.9483 33.5948 124.1718 34.9361 124.2836 38.1774 125.1778 41.6424 126.4073 44.6602 127.1897 45.5543 127.9721 46.4485 128.6427 47.3427 129.0898 48.7957 130.2075 48.1251 130.6546 47.678 131.2134 49.0193 132.2194 50.0252 133.5606 50.6958 135.1254 50.9194 136.1314 51.3664 136.802 52.4842 137.2491 53.8254 137.4726 54.8314 137.9197 55.502 138.9256 56.0608 141.0493 56.7315 141.9435 57.2903 142.9494 57.9609 143.7318 58.8551 144.2906 59.8611 144.7377 59.8611 144.9613 58.6316 145.5201 58.5198 146.3025 59.0787 147.0849 59.414 148.7615 59.414 149.5439 59.1904 152.3382 58.1845 153.7912 58.1845 154.7971 58.8551 155.2442 60.6435Z" />
  <path class="Guadalcanal" d="M339.1078 222.5999L340.1138 223.9411 342.3492 224.8353 344.6964 224.5 345.367 225.2824 346.4847 224.8353 346.4847 223.9411 346.9318 222.4881 345.8141 221.8175 346.3729 221.3704 347.0436 221.1469 347.9377 221.3704 349.7261 222.1528 351.2909 222.4881 352.0733 222.7117 352.8557 222.5999 353.6381 222.3763 354.9793 221.2586 355.7617 221.0351 357.3265 221.2586 359.7855 221.9293 361.2385 222.1528 361.7974 221.9293 362.3562 221.2586 362.8033 221.0351 363.2504 221.1469 363.921 221.4822 364.3681 221.5939 370.0684 221.5939 370.4037 221.4822 371.1861 221.1469 371.6332 221.0351 371.745 221.2586 372.0803 221.5939 372.5274 221.9293 374.0922 222.5999 375.657 224.8353 378.6748 225.8413 379.9043 227.2943 382.1397 230.6474 384.934 230.2003 388.3989 231.7651 391.6403 234.2241 393.6521 236.3477 394.0992 237.689 394.4345 239.2538 394.6581 242.4952 394.9934 243.1658 395.8876 243.1658 397.1171 242.7187 398.0112 242.9422 398.7936 243.2776 400.4702 244.3953 402.9292 245.0659 403.5998 245.4012 403.8233 246.1836 403.7116 247.3013 403.9351 248.1955 404.8293 248.6426 405.1646 248.9779 405.1646 249.8721 405.1646 251.5486 405.3881 252.2193 405.7234 252.7781 406.2823 253.2252 406.7294 253.8958 406.6176 256.243 404.6057 257.5843 398.9054 258.702 395.8876 259.7079 394.211 260.4903 392.8697 261.608 387.393 260.2668 382.475 257.9196 380.7985 257.5843 377.6689 258.1431 376.6629 257.9196 375.9923 257.249 375.4334 256.3548 374.7628 255.5724 374.4275 255.4606 373.5333 255.5724 373.198 255.5724 373.0862 255.2371 372.5274 254.2311 372.1921 253.8958 369.9567 253.0017 369.286 252.5546 368.0565 252.2193 359.5619 251.7722 353.0792 252.7781 349.7261 252.8899 347.6024 252.5546 346.7083 252.6663 346.0376 252.8899 345.5905 252.5546 343.914 252.331 342.2374 251.8839 340.5608 251.7722 338.8843 251.4369 336.3135 250.0956 335.084 249.6485 333.631 249.8721 332.4015 250.4309 331.1721 250.5427 329.6073 249.425 326.0306 245.7365 324.6893 244.8424 322.5657 243.8364 322.4539 243.5011 322.5657 242.6069 322.5657 242.2716 322.2304 241.9363 321.6715 241.7128 321.2244 241.4892 321.0009 240.8186 320.8891 240.0362 320.6656 239.3656 320.2185 239.0303 318.8772 238.9185 318.6537 238.3596 318.8772 237.689 318.8772 236.9066 318.2066 235.1183 317.3124 233.5535 316.1947 232.2122 314.9652 230.871 313.8475 230.0886 313.2887 229.5297 313.0651 228.7473 314.0711 228.3002 314.8535 227.6296 315.1888 226.8472 315.077 226.0648 313.9593 224.5 313.624 223.7176 313.624 222.8234 314.1828 220.8116 314.0711 220.0292 313.7358 218.9114 313.624 218.129 312.8416 217.3466 312.5063 217.1231 312.8416 216.5642 313.624 215.7818 313.8475 213.0993 314.4064 211.9816 315.5241 211.5345 316.6418 211.1992 321.448 208.2932 324.1305 209.1873 326.813 210.9757 330.9485 214.6641 333.9663 216.8996 334.5252 217.5702 334.8605 218.6879 335.6429 220.0292 336.6488 221.2586 337.6548 222.1528 339.1078 222.5999Z" />
  <path class="Isabel" d="M319.8832 151.1781L320.7773 151.9605 320.7773 152.5194 319.8832 153.3018 319.2125 153.6371 318.5419 153.7488 317.7595 153.6371 316.7536 153.3018 315.9712 152.8547 315.3006 152.2958 314.1828 151.1781 313.2887 149.7251 312.618 149.3898 311.6121 150.1722 310.4944 148.9427 309.3767 148.2721 308.4825 147.3779 308.3707 145.366 308.9296 143.3541 309.9355 142.0129 311.5003 141.3422 313.624 141.1187 315.8594 141.6776 316.53 142.907 316.3065 146.4837 316.7536 148.1603 317.6477 149.1662 319.8832 151.1781ZM228.119 81.9917L229.2367 82.4388 230.4662 83.5565 231.2486 84.786 231.0251 85.6802 229.7956 85.792 228.6779 85.1213 227.7837 84.1154 227.3366 82.9977 226.5542 84.1154 225.1012 83.7801 222.0834 81.9917 222.3069 82.7741 223.2011 84.5625 222.4187 84.5625 220.5186 84.1154 218.7303 84.1154 218.842 83.6683 218.5067 82.5506 217.6125 81.4329 216.0477 80.9858 215.8242 80.6505 215.3771 80.2034 215.2653 79.6446 215.6007 79.421 216.2713 79.421 217.5008 79.7563 217.9479 79.8681 218.0596 79.9799 218.7303 80.0916 219.1773 79.9799 218.7303 79.0857 218.7303 78.6386 219.2891 78.3033 219.9597 78.3033 220.5186 78.8622 221.4128 79.3092 223.3129 79.6446 224.207 80.874 225.4365 81.4329 227.0013 81.88 228.119 81.9917ZM332.9604 151.4017L335.1958 153.19 336.09 154.4195 335.084 155.4254 334.4134 155.2019 331.9545 153.7488 331.6191 153.7488 330.725 153.8606 330.2779 153.7488 329.9426 153.4135 329.719 152.8547 329.4955 152.4076 328.266 151.8487 327.2601 150.5075 325.6953 149.9486 325.2482 149.3898 324.1305 148.0485 321.7833 146.1484 321.0009 145.366 320.8891 144.5836 321.0009 143.913 320.7773 143.4659 319.6596 143.2424 318.7655 142.7953 315.1888 139.5539 308.9296 138.2127 306.1353 136.5361 304.2352 135.7537 302.5586 134.3007 301.3292 133.63 299.9879 133.4065 298.982 133.7418 296.4112 132.177 295.07 131.7299 293.7287 132.177 292.9463 130.3887 292.2757 129.3827 291.3815 129.0474 290.3756 128.9356 289.3696 128.6003 288.5872 127.9297 288.4755 126.9238 286.9107 127.4826 285.2341 127.1473 283.6693 126.2531 276.516 121.1117 276.0689 120.9999 274.8394 121.1117 274.3923 121.1117 274.057 120.5528 274.057 119.8822 274.057 119.2116 273.9452 118.8762 273.2746 118.7645 273.051 119.0998 272.7157 119.4351 272.2686 119.4351 270.2568 118.4292 269.6979 118.3174 268.692 118.5409 268.1331 118.4292 268.1331 118.2056 267.7978 117.1997 267.5743 116.8644 266.7919 116.4173 266.1212 116.3055 265.6741 115.8584 265.5624 114.7407 265.0035 115.076 263.4387 115.7466 263.327 114.2936 262.5446 113.0641 261.5386 112.2817 260.0856 112.0582 255.6147 109.9345 255.1677 107.0285 254.6088 105.6872 253.2675 106.0226 250.9204 105.4637 249.8026 104.7931 250.3615 103.6754 249.5791 102.6694 248.7967 102.1106 248.2378 102.1106 247.4554 103.1165 246.673 102.1106 245.6671 99.4281 244.7729 98.4221 243.6552 97.4162 242.314 96.9691 240.9727 97.3044 240.1903 95.9631 236.949 94.1748 235.7195 93.0571 235.3842 92.0512 235.3842 91.2688 235.6077 90.4864 235.7195 89.704 235.7195 86.4626 229.7956 81.4329 225.7718 79.421 225.1012 78.1915 224.9894 76.8503 225.5483 75.9561 226.8895 76.1796 228.4543 77.0738 235.943 79.6446 236.5019 80.0916 237.2843 80.0916 237.9549 79.1975 238.7373 78.4151 239.855 78.8622 240.1903 78.5268 240.4139 78.4151 240.6374 78.3033 240.9727 78.1915 241.5316 79.7563 242.6493 80.7623 245.6671 81.9917 245.8906 81.5447 246.4495 80.9858 247.0084 80.5387 247.4554 80.427 248.4614 80.6505 248.7967 81.4329 249.132 82.4388 249.5791 83.333 251.0321 84.6743 251.9263 85.3449 252.7087 85.6802 253.2675 86.2391 254.3853 88.4745 255.8383 89.2569 256.956 90.8217 257.6266 91.4923 258.6326 92.0512 261.3151 93.0571 262.6563 93.9513 265.0035 95.8514 266.5683 96.7455 265.7859 98.3103 266.3448 99.6516 267.5743 100.3222 268.692 99.9869 271.7098 101.2164 272.604 101.7752 273.1628 102.7812 273.3864 103.8989 273.9452 104.5695 274.9512 104.2342 277.0748 105.799 278.7514 105.0166 280.2044 104.6813 281.5457 104.7931 283.2222 105.2402 282.3281 105.6872 282.5516 106.3579 283.334 107.0285 284.1164 107.3638 285.3459 107.4756 286.1283 107.8109 286.4636 108.4815 286.9107 109.4875 288.2519 108.4815 288.9226 109.1521 289.5932 110.3816 290.3756 111.0523 292.8345 111.2758 293.8405 110.9405 294.2876 109.9345 295.7406 110.6052 296.2994 110.9405 296.8583 111.4993 298.0878 110.6052 298.8702 111.4993 299.5408 113.0641 300.3232 114.4054 301.5527 115.4113 303.6763 116.6408 304.6823 117.4232 304.9058 117.535 305.8 117.8703 306.0235 118.0938 306.1353 118.7645 306.2471 118.8762 309.8238 121.7823 316.8653 126.0296 331.6191 137.0949 331.9545 137.8773 330.2779 139.5539 328.7131 141.7893 328.1542 142.2364 327.4836 141.7893 326.5894 141.5658 325.807 141.6776 325.1364 142.2364 325.1364 142.6835 326.3659 143.4659 327.0365 144.8072 327.7072 144.8072 328.4895 144.4718 329.0484 143.8012 329.8308 144.3601 332.0662 147.6014 332.7369 148.7191 332.8486 149.8369 332.9604 151.4017ZM218.9538 77.1856L218.2832 76.515 217.7243 75.7326 216.8301 74.9502 214.5947 74.3913 212.9182 73.2736 211.9122 73.0501 211.3534 72.603 211.2416 71.7088 211.5769 70.9264 212.1358 70.9264 212.9182 71.3735 213.7006 71.7088 214.3712 72.1559 214.8183 73.0501 215.8242 72.7147 216.7184 73.0501 218.5067 74.6149 219.4009 73.8325 221.0774 73.9442 222.8658 74.6149 224.207 75.6208 223.5364 76.0679 222.9776 76.515 222.8658 77.2974 223.2011 78.1915 219.848 77.5209 218.9538 77.1856ZM212.6946 66.6791L212.3593 67.4615 212.1358 68.1321 212.1358 69.0263 212.1358 69.8087 211.018 69.1381 210.6827 68.8028 210.1239 71.4853 209.0062 70.7029 208.3355 69.6969 207.5531 68.8028 205.8766 68.8028 205.8766 68.2439 206.9943 67.238 207.4414 67.238 208.2238 67.3497 210.1239 65.4496 211.5769 65.1143 211.5769 67.238 211.9122 67.0144 212.4711 66.9026 212.6946 66.6791Z" />
  <path class="Makira" d="M476.4746 287.6507L476.9217 286.8683 476.5864 286.6448 476.0275 286.4212 475.6922 286.3095 474.6862 284.4094 474.6862 283.4034 475.6922 282.5092 477.3688 283.8505 478.5982 286.0859 478.71 288.0978 477.0334 288.992 476.4746 288.8802 476.251 288.5449 476.1393 288.2096 476.4746 287.6507ZM524.8715 330.4591L525.6539 330.012 526.2128 330.6826 526.101 331.5768 525.095 332.0239 524.0891 331.9121 523.1949 331.5768 522.3008 331.5768 521.1831 332.0239 520.6242 331.6886 519.8418 331.5768 518.6123 331.465 517.4946 331.3532 512.0178 329.2296 510.3413 329.4531 508.6647 331.0179 507.7705 330.5708 506.7646 330.3473 504.7527 330.4591 503.9703 330.2355 503.4114 329.7884 502.9644 329.3414 502.4055 328.8943 499.0524 327.553 497.8229 326.5471 497.1523 326.2118 496.1463 326.3235 493.9109 327.1059 493.2403 326.9942 492.4579 326.5471 489.3283 325.6529 489.44 325.7647 488.993 325.9882 487.987 326.2118 487.5399 325.9882 486.7575 325.3176 486.4222 325.0941 485.7516 324.8705 485.1927 324.3117 484.6339 322.9704 484.1868 324.0881 484.075 324.647 482.3985 323.4175 481.5043 323.1939 480.3866 323.5293 480.163 323.0822 479.6042 322.4116 479.3806 321.9645 478.71 322.2998 478.0394 321.7409 477.7041 320.9585 477.8158 320.3997 477.1452 319.5055 476.1393 319.3937 475.1333 319.5055 474.1274 319.282 473.5685 318.4996 473.345 317.6054 473.0097 316.9348 471.7802 316.5994 471.4449 316.1524 470.4389 315.1464 469.3212 314.4758 468.8741 314.8111 468.5388 315.4817 467.7564 314.9229 466.3034 313.4699 466.3034 312.7992 465.9681 312.3521 465.4092 312.0168 464.7386 311.7933 464.8504 311.2344 464.7386 310.6756 464.2915 310.2285 463.7327 309.6696 463.062 310.452 462.1679 310.6756 461.0502 310.5638 460.0442 310.2285 461.609 305.4223 460.7149 304.8635 460.6031 304.1928 460.7149 303.2987 460.2678 302.5163 459.8207 302.4045 458.2559 302.7398 457.3617 302.7398 458.1441 301.8457 458.703 300.6162 458.5912 299.4985 457.3617 299.0514 458.1441 297.1513 458.703 296.2571 459.2618 295.81 459.5971 295.6982 459.4854 295.3629 458.9265 294.8041 458.5912 294.6923 457.3617 294.8041 456.9146 294.8041 456.3558 294.357 456.0205 293.7981 455.5734 293.351 454.4557 293.2393 452.4438 293.2393 451.5496 293.0157 451.2143 292.4569 450.6554 292.1216 449.6495 292.0098 447.9729 292.1216 447.5259 292.3451 447.1905 292.7922 446.8552 293.0157 446.1846 293.2393 445.6257 293.1275 445.1787 292.7922 443.1668 292.4569 442.3844 292.2333 441.7138 291.5627 441.3784 290.445 442.0491 288.7684 441.7138 287.8743 442.0491 287.5389 442.2726 287.3154 442.3844 287.0919 442.8315 286.8683 442.2726 285.6388 442.2726 283.9623 442.8315 282.5092 444.2845 282.0622 444.7316 282.2857 445.1787 282.3975 445.6257 282.7328 445.9611 283.0681 450.2084 282.2857 458.2559 285.9741 466.527 291.1156 470.9978 294.8041 472.4508 294.2452 473.345 294.8041 474.9098 297.263 476.0275 297.9337 477.257 298.0454 478.3747 297.9337 479.3806 298.0454 480.2748 298.3807 482.622 299.8338 482.9573 300.3926 483.7397 301.175 485.4163 301.2868 487.2046 300.8397 488.3223 300.1691 491.1166 301.0633 492.4579 301.175 493.4638 300.6162 494.1344 301.2868 495.2521 302.7398 496.0345 303.2987 496.9287 303.634 499.4994 303.2987 500.7289 303.634 501.176 303.4105 501.5113 301.7339 501.9584 301.3986 502.7408 301.175 503.4114 301.175 504.9762 301.9574 506.9881 304.7517 507.8823 305.4223 508.6647 305.9812 509.3353 307.0989 510.9001 311.3462 511.2354 311.7933 511.7943 312.3521 512.3531 312.4639 512.6884 312.7992 513.1355 315.37 513.6944 316.4877 514.7003 317.3818 517.3828 319.1702 518.1652 320.1761 518.5006 321.4056 518.5006 325.8765 518.277 326.2118 517.8299 326.3235 517.2711 326.7706 516.824 327.3295 516.4887 327.7766 517.0475 329.6767 519.3947 330.1238 522.4125 330.012 524.8715 330.4591Z" />
  <path class="Malaita" d="M494.5815 255.0135L493.4638 254.1194 492.4579 252.331 491.6755 250.2074 490.7813 244.8424 490.8931 243.8364 491.6755 242.7187 492.5696 242.4952 493.5756 242.6069 494.5815 242.2716 494.5815 242.8305 494.4697 243.2776 494.0227 243.8364 493.9109 244.3953 493.7991 244.6188 493.4638 244.8424 493.9109 245.9601 494.9168 252.331 494.9168 253.6723 494.5815 255.0135ZM450.0966 221.0351L449.7613 221.2586 448.8671 221.4822 448.5318 221.5939 448.5318 219.9174 448.0847 218.4644 446.4081 215.7818 446.967 215.3348 447.4141 215.3348 447.9729 216.3407 448.9789 217.3466 451.6614 219.0232 452.2202 219.6938 452.4438 220.9233 454.791 224.2765 456.6911 228.1884 457.697 229.3062 458.0323 229.865 458.5912 231.6534 459.2618 232.4358 459.9325 233.2182 460.6031 234.1123 461.609 235.9007 462.0561 237.3537 462.2796 238.6949 462.1679 241.4892 462.3914 242.7187 463.5091 245.2894 463.7327 247.0778 463.2856 248.7543 462.615 250.2074 461.8326 250.4309 461.609 248.8661 458.4794 245.4012 457.697 243.5011 457.2499 242.7187 456.3558 242.2716 455.5734 242.4952 455.0145 244.6188 454.2321 245.9601 453.0026 244.6188 451.6614 242.8305 450.5437 240.9304 450.0966 239.3656 450.0966 234.5594 450.0966 230.0886 449.873 228.412 449.9848 227.4061 451.2143 225.1706 450.9908 223.9411 450.3201 222.7117 450.0966 221.0351ZM552.5908 141.9011L552.0319 141.1187 552.3672 140.7834 553.1496 140.8952 554.0438 141.2305 553.8202 141.454 553.4849 141.6776 553.0378 141.7893 552.5908 141.9011ZM447.5259 236.9066L443.5021 234.1123 442.8315 234.0006 442.6079 232.7711 442.0491 231.5416 439.0312 227.6296 438.5842 226.8472 438.4724 226.0648 438.3606 224.6118 438.0253 223.7176 437.2429 222.3763 433.6662 218.6879 428.413 216.0054 426.6246 213.8817 423.048 213.3229 423.3833 211.9816 421.2596 209.6344 420.2537 208.852 419.6948 208.7403 418.4653 208.852 417.9065 208.6285 417.6829 208.0696 417.7947 206.7284 417.6829 206.1695 415.8946 204.6047 411.5355 202.7046 409.859 200.9163 404.3822 190.6333 403.0409 186.8331 402.035 185.0448 402.3703 184.4859 402.4821 184.0388 402.3703 183.5917 402.035 182.9211 401.9232 181.8034 400.8055 178.0032 399.6878 176.3266 396.5582 169.9557 396.2229 168.838 396.2229 164.7024 396.1111 164.0318 393.6521 158.555 394.9934 157.6608 397.2288 155.7607 398.5701 155.4254 398.5701 154.643 396.7817 150.6193 393.7639 146.5955 393.3168 145.9249 392.4227 145.366 389.7402 142.7953 388.9578 141.6776 387.9518 138.2127 389.5166 137.0949 392.4227 137.4303 395.2169 138.4362 396.67 139.8892 397.3406 140.1128 398.123 139.8892 398.9054 139.5539 399.3525 138.8833 399.1289 138.2127 396.7817 136.6479 397.0053 136.089 397.5641 135.6419 398.2348 135.3066 398.9054 135.3066 398.9054 135.8655 400.582 135.8655 401.5879 136.4243 403.0409 138.4362 403.9351 139.2186 404.7175 139.6657 405.4999 140.3363 406.1705 141.6776 406.5058 142.5717 406.6176 143.2424 406.7294 144.0248 406.9529 144.4718 407.9589 145.1425 408.2942 145.366 410.8649 149.278 414.8887 153.6371 417.9065 156.2078 419.6948 158.555 420.4772 160.008 420.8125 161.4611 420.1419 163.1376 418.6889 164.0318 417.0123 164.5906 415.5593 165.373 416.1182 166.379 416.4535 167.3849 416.3417 168.3909 415.1122 170.5145 415.1122 171.5205 415.4475 172.5264 415.5593 173.6441 415.8946 174.7618 417.3476 176.1031 417.6829 176.8855 418.13 177.5561 419.2477 177.4443 421.0361 176.5502 421.7067 176.8855 423.8304 178.4503 424.501 179.2327 424.501 179.6798 424.1657 180.1268 424.0539 180.6857 424.501 181.3563 425.0598 181.6916 425.6187 181.6916 425.954 181.4681 426.0658 181.3563 427.8541 182.1387 429.7542 183.5917 431.5426 185.2683 432.8838 187.1684 431.8779 186.8331 431.0955 187.392 430.8719 188.2861 431.5426 188.7332 432.4367 189.0685 433.3309 190.0745 433.778 191.304 433.3309 192.4217 434.0015 192.8688 434.3369 193.3158 434.4486 193.9865 434.4486 194.7689 434.5604 195.5513 434.8957 195.7748 435.4546 195.7748 436.0134 196.1101 436.4605 196.4454 437.0194 196.669 437.4664 197.1161 437.5782 198.0102 437.3547 198.3455 435.4546 199.7986 436.7958 200.4692 437.2429 200.9163 437.5782 201.4751 438.5842 201.0281 439.4783 201.2516 439.9254 201.9222 439.7019 203.0399 440.2607 203.0399 441.7138 203.487 441.7138 204.0459 439.5901 204.6047 438.9195 204.6047 438.5842 205.0518 438.6959 205.946 439.0312 206.8402 439.3666 207.2872 439.9254 207.8461 440.3725 210.6404 441.2667 211.5345 440.2607 212.0934 439.7019 211.5345 439.3666 210.8639 438.5842 210.4168 437.9135 210.8639 438.1371 211.7581 438.6959 212.6523 441.7138 215.7818 442.6079 217.0113 444.9551 223.047 445.7375 223.7176 446.5199 224.3882 447.5259 225.8413 449.0906 228.5238 449.9848 234.5594 449.873 236.236 449.426 237.2419 448.6436 237.4655 447.5259 236.9066ZM392.1991 103.5636L393.0933 106.3579 392.5344 106.4696 391.8638 106.3579 390.4108 104.346 390.0755 103.4518 390.4108 102.5576 391.1932 102.3341 391.752 102.7812 392.1991 103.5636Z" />
  <path class="Rennell and Bellona" d="M382.1397 401.4338L386.7223 404.2281 388.0636 406.0164 386.2752 407.2459 385.3811 407.2459 384.7105 407.0223 384.0398 406.9106 383.1457 407.2459 382.8103 407.8047 382.1397 409.3695 381.5809 409.9284 380.5749 409.9284 379.569 408.8107 378.7866 407.5812 378.0042 406.687 376.7747 407.2459 376.3276 407.2459 375.8805 407.0223 373.0862 405.1222 372.6392 404.5634 371.8568 401.322 371.1861 399.869 369.6213 398.6395 368.8389 398.416 367.1624 398.3042 366.38 398.1924 365.4858 397.5218 365.2623 397.0747 365.374 396.6276 365.374 396.0688 365.374 395.2864 365.374 394.6157 365.1505 394.0569 364.3681 393.3862 363.6975 393.0509 362.9151 392.8274 362.0209 392.7156 361.2385 392.8274 360.9032 393.1627 360.1208 394.504 359.6737 394.951 359.0031 395.0628 358.1089 395.0628 356.5441 394.951 355.2029 394.504 352.2968 392.8274 350.732 392.2685 351.1791 391.4861 351.4026 391.1508 349.9496 390.1449 348.7201 390.2567 347.7142 390.8155 346.82 391.1508 345.4788 390.8155 344.4728 389.9213 342.3492 387.2388 342.0139 386.1211 341.5668 385.5623 341.0079 385.0034 340.8961 384.5563 341.3432 383.2151 341.9021 382.3209 343.3551 380.8679 343.914 379.9737 344.1375 380.309 344.4728 380.4208 344.6964 380.4208 345.0317 380.5326 346.1494 381.762 346.82 382.2091 347.7142 382.6562 348.4966 382.6562 350.2849 382.5444 351.0673 382.9915 352.6321 384.3328 354.1969 385.3387 358.4442 387.3506 360.6796 389.1389 363.3622 390.4802 365.5976 392.1568 367.1624 392.8274 370.6273 393.9451 373.7569 395.2864 382.1397 401.4338ZM328.8249 366.6729L330.1661 366.8965 331.3956 367.2318 332.2898 368.0142 332.5133 369.3554 330.725 368.6848 329.2719 368.2377 327.9307 367.6789 326.7012 366.1141 327.2601 366.1141 327.8189 366.2259 328.266 366.3376 328.8249 366.6729Z" />
  <path class="Temotu" d="M890.9221 257.696L890.3633 256.3548 890.6986 255.5724 891.5927 255.6842 892.3751 256.6901 892.7105 257.696 892.4869 258.2549 891.9281 258.3667 890.9221 257.696ZM884.7747 251.3251L885.6689 251.2133 886.0042 251.3251 885.6689 251.5486 884.7747 251.3251ZM871.921 393.9451L872.0328 395.0628 871.921 396.6276 876.0565 396.2923 876.5036 399.3101 870.8033 399.7572 869.2385 399.9807 867.8972 399.869 865.7736 399.6454 864.6559 398.0806 863.7617 397.1865 862.644 396.8512 862.3087 396.1805 860.9674 394.6157 859.9615 393.3862 859.9615 392.1568 860.6321 391.3744 861.3028 390.9273 862.8675 390.1449 864.3206 390.1449 866.1089 390.2567 867.7855 389.9213 869.5738 390.2567 872.8152 391.4861 871.921 393.9451ZM843.9782 366.1141L842.1899 368.0142 841.631 368.126 840.8486 368.3495 840.2898 368.126 839.6191 367.7906 839.6191 367.2318 839.6191 366.5612 840.0662 366.0023 840.4015 365.4435 840.2898 364.4375 839.1721 364.9964 838.3897 365.7788 837.9426 365.1081 838.0543 363.3198 839.1721 361.9785 840.5133 360.7491 841.5193 360.4138 842.637 360.7491 843.8664 361.755 844.4253 362.8727 844.5371 364.3257 843.9782 366.1141ZM812.6823 320.2879L811.8999 321.1821 811.5646 322.7469 808.7703 323.8646 807.8761 324.647 806.4231 325.3176 805.6407 325.9882 804.0759 325.8765 803.6288 325.9882 801.6169 325.2058 800.7228 325.9882 799.9404 326.5471 799.158 326.2118 796.4755 326.6589 793.2341 330.4591 790.8869 333.924 789.9927 332.918 790.2163 330.7944 789.3221 329.6767 788.3162 329.5649 786.1925 331.465 783.9571 331.3532 782.8394 329.5649 782.6158 326.4353 782.6158 324.8705 784.0689 323.7528 784.7395 322.7469 785.6337 321.5174 786.3043 321.5174 785.969 324.1999 787.0867 325.4294 787.8691 325.6529 788.2044 324.647 788.3162 323.4175 788.5397 321.4056 789.881 319.6173 792.1164 317.4936 795.5813 317.1583 801.0581 317.8289 803.5171 316.7112 806.0878 317.2701 807.429 317.9407 807.6526 318.276 807.8761 318.6113 810.2233 318.276 812.347 318.3878 812.6823 320.2879ZM1015.9941 442.7891L1016.7765 442.7891 1017 443.9068 1016.5529 444.2421 1015.2117 444.6892 1014.8763 444.0186 1015.547 443.348 1015.9941 442.7891ZM782.057 299.1631L781.2746 299.3867 780.7157 299.2749 780.2686 298.4925 780.3804 297.5983 780.604 297.1513 781.051 296.7042 782.057 297.0395 782.7276 298.0454 782.6158 298.8278 782.057 299.1631ZM876.6154 391.9332L876.6154 392.6039 876.1683 393.8333 874.9388 394.7275 873.5976 394.951 873.0387 394.0569 873.4858 392.7156 874.4917 391.8215 875.9448 391.5979 876.6154 391.9332ZM820.7298 287.0919L821.8475 286.9801 822.8535 287.6507 822.0711 289.1037 820.618 290.445 819.5003 290.6685 819.5003 289.5508 819.6121 288.4331 819.0532 288.4331 818.9415 287.8743 819.3886 286.3095 819.7239 284.6329 819.6121 283.1799 819.9474 283.627 819.9474 287.3154 820.3945 287.2036 820.7298 287.0919Z" />
  <path class="Western" d="M161.727 168.6144L163.2917 169.3968 164.4095 171.0734 164.2977 172.6382 162.2858 173.4206 161.6152 173.197 158.8209 171.744 155.2442 170.7381 151.1087 169.0615 149.3204 167.7202 149.5439 166.4908 152.3382 166.9378 153.5677 166.9378 154.6854 166.4908 155.2442 167.0496 155.8031 166.0437 156.2502 165.5966 156.6972 165.373 157.3679 165.4848 157.815 165.9319 158.1503 166.2672 158.5974 166.4908 159.8268 166.8261 160.6092 167.6085 161.1681 168.2791 161.727 168.6144ZM208.5591 171.744L210.6827 172.6382 210.571 173.3088 210.3474 173.8677 209.9003 174.3147 208.2238 174.7618 206.5472 176.1031 205.3177 176.5502 203.8647 174.3147 203.5294 173.8677 202.8587 173.4206 202.8587 172.5264 203.3058 170.5145 203.6411 169.7321 205.8766 168.0556 206.3237 167.3849 206.659 166.4908 206.8825 165.4848 206.9943 164.3671 207.4414 164.3671 207.4414 166.0437 208.112 167.1614 208.6708 168.9497 208.7826 170.7381 208.5591 171.744ZM195.3701 152.7429L197.0466 152.4076 198.9468 152.4076 200.5116 152.8547 201.1822 154.0842 201.4057 155.7607 201.2939 156.3196 200.6233 156.9902 199.9527 157.2138 199.0585 157.102 198.3879 157.102 198.0526 157.7726 197.7173 157.9961 196.2642 158.6668 196.0407 159.1139 196.4878 159.5609 197.9408 159.7845 198.6114 160.1198 199.0585 159.8963 199.3938 159.7845 200.1762 159.6727 199.1703 160.9022 198.7232 161.3493 198.0526 161.7964 199.8409 163.4729 199.1703 165.2613 196.0407 168.0556 195.0348 169.5086 194.6994 169.9557 194.0288 170.4028 192.6876 170.7381 192.1287 171.0734 191.011 171.1851 189.3344 170.8498 187.7696 170.291 187.099 169.9557 186.8755 169.3968 186.4284 169.0615 185.5342 168.6144 185.1989 168.2791 184.7518 167.4967 184.4165 167.0496 182.2928 165.0377 181.8458 164.5906 181.8458 160.6787 182.4046 157.9961 182.7399 157.5491 183.187 157.102 183.5223 156.4314 183.4106 155.4254 185.5342 156.6549 186.3166 156.6549 186.6519 155.4254 187.099 155.4254 187.4343 155.649 187.6579 156.4314 188.2167 155.4254 188.105 154.7548 187.6579 153.9724 187.6579 152.7429 188.105 152.184 190.7875 151.1781 191.3463 151.0663 191.5699 150.9546 191.7934 150.6193 192.3523 151.1781 192.3523 151.737 191.7934 152.184 191.4581 152.7429 191.5699 153.4135 192.1287 154.0842 193.1347 154.5312 193.9171 154.0842 194.6994 153.3018 195.3701 152.7429ZM142.167 156.4314L141.8317 156.4314 141.4964 156.2078 141.0493 156.096 140.6022 156.4314 140.4904 156.8784 140.6022 158.555 140.0433 160.7904 139.9316 162.0199 140.2669 163.1376 143.0612 166.0437 144.626 167.1614 146.3025 167.6085 146.3025 168.0556 145.1848 168.3909 143.7318 168.2791 142.3905 167.9438 141.3846 167.3849 140.4904 166.4908 139.9316 166.1554 139.2609 166.0437 138.5903 165.7084 138.4785 164.926 138.5903 164.0318 138.4785 163.3612 138.0315 162.467 136.0196 159.6727 135.1254 159.1139 133.8959 158.6668 132.2194 157.7726 130.7663 156.6549 130.0957 155.649 130.3193 154.5312 130.7663 153.6371 131.437 152.8547 132.2194 152.184 134.2312 151.1781 135.349 150.2839 136.802 147.3779 139.0374 145.2542 141.2728 143.8012 142.7259 143.8012 144.0671 144.8072 145.2966 146.2602 146.079 148.1603 146.3025 150.3957 146.079 150.8428 144.9613 152.184 144.1789 154.7548 143.9553 155.0901 143.7318 155.4254 143.62 155.8725 143.5083 156.2078 142.9494 156.5431 142.6141 156.5431 142.3905 156.4314 142.167 156.4314ZM124.2836 133.1829L124.7307 135.7537 125.2895 136.8714 126.4073 137.4303 126.4073 137.9891 124.1718 136.7596 123.0541 133.8536 121.7129 131.1711 118.5833 130.6122 118.9186 130.3887 119.3657 129.8298 119.701 129.4945 118.3597 128.9356 117.0185 127.9297 116.4596 126.812 117.5773 126.3649 118.5833 127.1473 120.5952 127.2591 122.4953 127.7062 123.3894 129.271 123.5012 130.2769 124.2836 133.1829ZM130.6546 134.3007L130.0957 134.3007 129.9839 133.1829 129.4251 132.9594 128.6427 133.0712 127.9721 132.7359 127.6367 132.177 126.9661 130.0534 126.2955 128.6003 125.4013 127.4826 124.2836 126.5884 122.7188 125.8061 123.3894 125.359 122.607 125.2472 122.16 125.0237 122.16 124.6883 122.2717 124.2413 124.1718 124.9119 125.8484 124.8001 127.525 124.9119 129.0898 126.3649 129.7604 127.9297 130.3193 129.9416 130.6546 132.177 130.6546 134.3007ZM100.3646 116.3055L100.5881 117.535 101.3705 117.4232 102.7118 120.6646 100.6999 120.6646 98.4645 118.6527 98.7998 116.3055 100.3646 116.3055ZM175.5866 155.4254L176.7043 155.9843 177.3749 156.9902 177.5985 158.2197 177.1514 159.6727 176.7043 159.6727 176.4807 158.3315 175.9219 157.5491 175.363 157.102 175.0277 156.7667 174.8042 155.649 174.1336 154.5312 172.457 152.7429 170.4451 151.6252 166.3096 151.2899 164.2977 150.3957 160.9446 148.0485 159.1562 145.9249 158.8209 145.5895 158.7091 144.4718 158.1503 142.7953 157.815 141.6776 157.815 136.9832 158.3738 137.8773 158.7091 138.7715 158.8209 140.8952 159.268 141.7893 161.0563 142.3482 161.5034 143.0188 161.727 143.8012 162.2858 143.6894 162.7329 142.907 163.0682 141.9011 162.6211 141.1187 160.8328 139.4421 160.0504 136.9832 159.268 135.0831 158.0385 133.2947 156.6972 132.177 155.8031 131.9535 155.1325 132.177 154.3501 132.5123 153.1206 132.7359 152.6735 132.4006 152.1146 131.8417 151.5558 131.7299 151.1087 132.7359 150.2145 132.177 149.6557 132.177 148.4262 132.7359 148.3144 132.8476 147.7556 133.0712 147.4202 133.1829 144.8495 133.2947 141.9435 132.9594 141.0493 133.1829 140.3787 134.3007 139.9316 135.7537 139.1492 137.0949 137.4726 137.9891 136.1314 137.6538 133.5606 136.2008 132.6664 136.4243 132.2194 136.4243 131.7723 129.271 131.9958 128.8239 133.0018 127.2591 133.5606 126.9238 134.5666 126.9238 135.4607 126.812 136.2431 126.4767 136.9138 125.8061 137.2491 126.812 137.8079 127.1473 138.4785 126.9238 138.9256 126.3649 139.1492 125.5825 139.1492 123.9059 139.4845 123.1235 139.2609 122.2294 139.708 121.2234 141.3846 119.2116 142.167 117.9821 143.2847 115.4113 143.9553 114.4054 147.1967 111.2758 148.4262 110.4934 149.6557 109.9345 152.0029 109.3757 153.1206 108.9286 153.1206 109.2639 153.2323 109.3757 153.3441 109.3757 153.6794 109.4875 158.9327 112.3935 160.9446 112.6171 160.4975 113.9583 160.721 114.9642 161.1681 115.8584 161.5034 117.0879 161.3916 119.9939 161.5034 121.447 162.0623 122.6765 161.2799 124.0177 161.6152 125.0237 163.2917 126.5884 163.9624 127.8179 163.7388 128.8239 163.4035 129.718 163.6271 130.6122 164.0741 130.0534 164.5212 130.1651 165.0801 130.5004 165.6389 130.6122 166.1978 130.3887 167.092 129.8298 167.7626 129.4945 169.2156 129.271 170.4451 129.271 171.6746 129.6063 173.91 131.1711 174.1336 131.5064 174.5806 132.177 174.6924 132.6241 175.0277 134.3007 176.0337 135.5301 177.9338 136.8714 178.7162 137.9891 178.6044 139.8892 178.7162 140.6716 179.1633 141.3422 180.3927 142.2364 180.8398 142.6835 181.5105 144.0248 181.9575 146.7073 182.4046 148.0485 182.7399 148.2721 183.187 148.3838 183.7459 148.4956 183.9694 149.0545 183.9694 149.8369 183.7459 150.5075 182.1811 153.0782 181.9575 153.5253 181.8458 154.3077 181.8458 155.0901 181.9575 155.7607 182.0693 156.3196 182.4046 156.9902 177.7102 155.0901 175.5866 154.8666 175.5866 155.4254ZM85.1637 117.6468L85.499 119.6586 85.499 120.6646 85.1637 121.6705 85.7226 123.2353 85.499 125.1354 84.6048 126.7002 83.2636 127.3708 82.593 126.4767 80.6928 120.7763 79.5751 119.0998 79.3516 117.3114 79.9105 113.623 79.1281 109.711 79.1281 108.0344 80.4693 107.3638 81.587 108.3697 82.4812 109.4875 82.8165 110.2699 83.3754 112.0582 84.3813 113.8465 84.7166 115.1878 85.0519 116.529 85.1637 117.6468ZM122.7188 121.6705L118.9186 122.0058 115.0066 118.6527 111.877 114.0701 110.7593 110.4934 110.8711 109.4875 111.0946 108.5933 111.877 106.805 113.6653 104.0107 113.8889 103.34 114.8948 102.4459 117.242 101.4399 119.9245 100.7693 121.7129 100.5458 125.2895 102.3341 127.7485 105.0166 129.4251 108.3697 130.0957 112.0582 130.2075 115.7466 129.9839 117.0879 128.8662 120.2175 127.525 122.4529 125.9602 123.4589 124.2836 121.6705 123.7248 121.8941 123.3894 121.8941 122.7188 121.6705ZM100.0293 90.4864L100.6999 91.6041 99.4704 94.063 96.6761 97.8633 95.2231 99.0927 93.4348 100.9928 92.2053 103.1165 92.7641 105.0166 93.4348 105.9108 93.4348 106.805 92.8759 107.3638 91.9817 107.8109 91.7582 107.5873 91.0876 107.0285 90.1934 106.805 89.2992 107.3638 88.8521 107.3638 88.6286 105.799 88.9639 104.2342 88.7404 103.1165 85.1637 102.1106 84.9402 100.7693 85.7226 97.6397 85.3872 96.9691 84.7166 96.522 83.9342 96.0749 83.5989 95.7396 82.593 93.616 82.0341 93.0571 80.8046 92.61 80.6928 92.61 80.134 92.4982 80.0222 92.2747 80.134 91.9394 79.2398 90.151 78.7927 89.9275 77.7868 90.4864 76.4455 87.0215 77.0044 83.5565 79.0163 80.6505 82.0341 78.8622 83.04 79.0857 83.7107 79.421 84.3813 79.5328 85.1637 78.8622 85.3872 79.5328 85.7226 80.0916 86.7285 80.9858 86.8403 81.3211 86.8403 81.6564 86.8403 81.88 88.0697 82.1035 88.2933 82.3271 88.2933 82.6624 88.2933 83.333 88.6286 83.6683 89.411 83.8919 90.0816 84.4507 90.7523 86.2391 91.5347 86.7979 92.9877 87.245 92.4288 87.8039 93.5465 88.9216 95.2231 88.2509 96.8997 88.9216 98.5762 89.9275 100.0293 90.4864ZM5.6944 59.8611L6.9239 60.5317 7.818 61.3141 8.4887 62.2083 9.3828 62.9906 7.818 64.5554 6.1415 64.8908 2.2295 64.5554 1 63.9966 1.4471 62.5436 3.5707 59.8611 4.1296 60.0846 4.5767 60.0846 5.6944 59.8611ZM24.4719 36.6127L26.8191 37.1715 27.378 37.5068 28.3839 38.7363 28.3839 39.854 27.9369 40.86 27.7133 42.2012 27.1545 42.6483 25.8132 43.0954 24.4719 43.2072 23.466 42.9836 22.2365 44.1013 20.8953 44.1013 19.6658 43.8778 18.2128 44.6602 17.5421 44.2131 16.648 43.4307 16.0891 42.9836 13.9655 42.313 13.5184 41.9777 13.6301 40.86 15.642 36.6127 16.3127 37.0597 16.5362 35.8303 16.9833 34.489 18.2128 34.0419 17.9892 33.3713 17.9892 32.9242 18.2128 32.4771 19.2187 32.8124 21.9012 35.1596 24.4719 36.6127ZM47.4968 28.7887L48.1674 29.124 49.6205 29.4593 50.1793 29.7946 49.3969 30.2417 48.6145 30.3535 47.7204 30.1299 47.0497 29.7946 46.8262 31.0241 46.4909 32.1418 45.8202 33.1477 44.9261 34.0419 44.8143 33.3713 44.7025 33.1477 44.479 32.8124 44.3672 32.4771 43.8084 33.036 43.2495 33.4831 42.5789 33.5948 41.7965 33.5948 42.9142 32.7007 44.1437 31.6947 44.3672 31.0241 44.0319 30.4652 43.473 30.0182 43.3613 29.3475 43.5848 28.2298 43.9201 27.8945 44.5908 27.671 45.1496 27.4474 44.7025 27.0003 44.0319 26.665 43.8084 26.665 42.8024 25.212 42.02 23.6472 42.2436 22.0824 44.3672 20.8529 45.932 20.8529 45.932 21.4118 44.9261 21.6353 44.1437 22.1942 43.5848 23.0883 43.3613 24.3178 44.0319 24.8767 45.3732 25.212 46.2673 25.6591 45.932 26.665 47.0497 28.3416 47.4968 28.7887ZM80.134 95.9631L80.3575 96.1867 81.1399 96.7455 80.9164 97.975 79.2398 98.7574 77.8986 97.975 78.0103 97.3044 78.5692 96.522 79.4634 95.9631 80.134 95.9631Z" />
</svg>