<?xml version="1.0" encoding="utf-8"?>
<svg xmlns="http://www.w3.org/2000/svg" viewBox="0 0 1021 525" style="stroke-width:0.25px;stroke-linejoin:round;stroke:#444;fill:#ddd" fill-rule="evenodd">
  <path class="Central Singapore" d="M579.0805 499.1755L559.6323 494.034 526.9952 481.4039 501.7349 466.8736 474.4627 437.9249 467.3094 410.7645 469.0977 387.1807 465.4092 350.9669 488.993 332.86 514.365 307.4879 514.365 278.4274 501.7349 258.5321 516.1534 236.7367 545.2139 220.4182 566.8975 202.3112 563.3208 180.6276 552.3672 158.8322 534.2603 138.937 541.5254 115.3532 563.3208 93.5579 588.6928 91.7695 623.1184 93.5579 655.6438 89.9812 675.6508 66.1739 754.0024 105.2938 740.8134 122.6184 729.9716 149.7788 724.4948 178.7275 701.0229 187.781 682.8042 196.9462 662.9089 216.8415 652.0671 244.0019 652.0671 271.1623 657.4321 300.2228 673.7507 327.3832 693.7578 358.1202 713.653 390.7574 722.2594 405.9583 693.1989 417.0237 595.1756 484.1981 579.0805 499.1755Z" />
  <path class="North East" d="M724.4948 178.7275L729.9716 149.7788 740.8134 122.6184 754.0024 105.2938 818.3826 137.4839 897.7402 165.5385 911.7116 168.7799 902.0992 187.781 880.3039 205.9997 854.9318 216.8415 854.9318 238.5251 845.8783 269.3739 825.9831 269.3739 811.4528 256.7438 775.2389 240.4252 744.5019 229.4716 720.9182 211.3647 724.4948 178.7275Z" />
  <path class="North West" d="M465.4092 350.9669L441.9373 325.5948 420.1419 307.4879 398.4583 300.2228 392.9815 287.4809 403.8233 276.6391 414.7769 263.8971 412.8768 245.7902 385.7164 224.1066 365.8211 207.788 345.9259 187.781 331.3956 167.8857 331.3956 135.2485 333.1839 111.6648 338.6607 80.9277 341.9021 53.8791 419.8066 16.6593 461.4972 4.4762 535.9369 8.8353 607.6939 32.3073 675.6508 66.1739 655.6438 89.9812 623.1184 93.5579 588.6928 91.7695 563.3208 93.5579 541.5254 115.3532 534.2603 138.937 552.3672 158.8322 563.3208 180.6276 566.8975 202.3112 545.2139 220.4182 516.1534 236.7367 501.7349 258.5321 514.365 278.4274 514.365 307.4879 488.993 332.86 465.4092 350.9669Z" />
  <path class="South East" d="M722.2594 405.9583L713.653 390.7574 693.7578 358.1202 673.7507 327.3832 657.4321 300.2228 652.0671 271.1623 652.0671 244.0019 662.9089 216.8415 682.8042 196.9462 701.0229 187.781 724.4948 178.7275 720.9182 211.3647 744.5019 229.4716 775.2389 240.4252 811.4528 256.7438 825.9831 269.3739 845.8783 269.3739 854.9318 238.5251 854.9318 216.8415 880.3039 205.9997 902.0992 187.781 911.7116 168.7799 967.3736 181.41 1006.1582 195.7167 1017 212.9295 984.6981 266.8032 937.0836 324.1418 879.745 369.968 816.8178 388.522 747.855 396.1224 722.2594 405.9583Z" />
  <path class="South West" d="M579.0805 499.1755L571.033 508.7878 556.5028 515.047 520.5124 520.5238 452.2202 519.1825 418.4653 510.4644 404.1586 493.6987 380.2396 455.3612 322.1186 428.6479 252.1498 412.441 192.2405 405.9583 70.6334 409.0879 21.2306 397.0166 1 358.3438 13.0713 314.0824 96.5644 195.7167 108.6356 142.7372 122.607 112.8943 154.0147 80.9277 191.1228 58.3499 218.0596 53.8791 279.0867 61.9266 341.9021 53.8791 338.6607 80.9277 333.1839 111.6648 331.3956 135.2485 331.3956 167.8857 345.9259 187.781 365.8211 207.788 385.7164 224.1066 412.8768 245.7902 414.7769 263.8971 403.8233 276.6391 392.9815 287.4809 398.4583 300.2228 420.1419 307.4879 441.9373 325.5948 465.4092 350.9669 469.0977 387.1807 467.3094 410.7645 474.4627 437.9249 501.7349 466.8736 526.9952 481.4039 559.6323 494.034 579.0805 499.1755Z" />
</svg>