<?xml version="1.0" encoding="utf-8"?>
<svg xmlns="http://www.w3.org/2000/svg" viewBox="0 0 1021 916" style="stroke-width:0.25px;stroke-linejoin:round;stroke:#444;fill:#ddd" fill-rule="evenodd">
  <path class="Atlántico Norte" d="M852.3611 426.2011L848.5608 426.76 838.2779 426.0893 830.0068 426.4246 826.2066 425.1952 806.0878 413.4592 790.6634 402.1703 789.7692 401.2761 789.2103 400.382 788.9868 399.2642 789.0986 398.0348 789.5457 396.8053 790.3281 395.6876 794.1283 390.8814 794.9107 389.6519 795.3578 388.4224 795.4695 387.193 794.6871 386.2988 793.1223 385.4046 789.6574 384.5105 787.5338 383.6163 785.8572 382.6103 783.8453 381.7162 779.8216 381.1573 763.2794 380.4867 760.1498 380.1514 759.3674 379.5925 757.132 379.2572 758.3615 381.7162 758.585 383.8398 757.8026 384.734 755.9025 383.5045 754.4495 383.5045 752.6612 384.6222 751.6552 384.5105 750.314 383.5045 748.6374 387.9754 746.1784 388.5342 743.0488 387.3047 739.1369 386.5223 740.1428 387.64 741.2605 389.7637 741.9311 390.7696 738.6898 390.099 733.7718 391.552 731.9835 390.7696 730.6422 390.4343 729.5245 389.0931 728.7421 387.64 724.7184 375.1217 724.1595 374.1157 722.5947 373.6686 719.8004 374.1157 707.5056 377.5806 705.4937 377.5806 703.0348 376.91 701.6935 376.0158 700.3523 375.3452 699.2345 375.1217 697.7815 374.8981 696.4403 375.0099 694.8755 375.457 692.7518 376.91 690.1811 379.7043 687.6103 380.5985 683.5866 381.1573 654.9732 381.2691 602.1054 387.7518 598.3052 382.0515 577.851 356.0088 576.6216 353.8851 575.9509 353.1028 575.0568 352.8792 556.5028 370.2037 554.7144 370.9861 551.473 371.3215 537.9487 370.9861 531.1307 371.6568 525.8774 374.7864 523.1949 378.4748 521.5184 382.275 519.1712 389.6519 516.6004 394.9052 514.8121 397.0288 512.8002 398.4818 506.9881 401.2761 501.6231 402.6174 499.3877 402.2821 493.1285 399.5996 491.6755 397.5877 489.2165 397.2524 488.8812 396.8053 488.5459 394.9052 488.2106 394.2345 487.4282 393.7875 484.6339 392.3344 483.0691 391.2167 482.1749 390.9932 481.5043 390.9932 480.3866 391.3285 479.1571 391.4403 478.4865 391.4403 477.9276 391.3285 477.3688 391.105 476.9217 390.8814 471.1096 385.4046 469.9919 384.5105 468.9859 383.9516 466.1916 382.8339 462.1679 378.8101 451.7732 364.727 447.4141 355.1146 447.5259 347.626 448.6436 344.9435 455.0145 339.2431 466.0799 331.978 468.4271 330.0779 469.0977 328.5131 469.3212 326.5012 469.2095 325.4953 469.3212 321.695 471.4449 315.1006 471.2213 313.0887 470.2154 310.2944 468.7624 307.9472 467.1976 304.3705 466.974 302.4704 467.3094 301.1292 469.433 299.7879 470.886 298.1113 472.5626 295.5406 474.3509 290.5109 475.3569 288.6108 476.3628 287.3813 492.7932 285.1459 493.2403 285.0341 518.277 269.3861 519.0594 269.1626 538.6194 278.2161 539.5135 277.769 540.5195 276.763 566.5622 234.9606 578.9688 213.9476 580.8689 209.8121 581.316 207.3531 579.4158 199.6409 580.0865 189.8051 584.5573 165.6625 584.8926 160.521 584.3338 157.615 566.0033 156.3855 564.5503 156.0502 563.5443 155.3795 560.5265 151.8029 557.1734 148.5615 553.2614 143.5318 552.7025 141.967 552.5908 140.6257 553.0378 139.1727 554.6026 136.2667 554.8262 135.2607 554.6026 130.6781 554.938 129.3369 557.1734 125.3131 557.6205 123.3012 557.2851 121.6246 556.5028 120.2834 555.6086 119.501 552.5908 117.8244 549.7965 115.589 549.4612 115.1419 549.3494 114.4713 549.4612 112.4594 549.3494 110.6711 549.4612 109.4416 549.9083 107.2062 549.9083 106.312 549.9083 105.0825 550.2436 103.7413 551.3613 100.7234 551.2495 99.3822 550.9142 98.0409 550.4671 97.1468 550.02 96.3644 549.3494 95.8055 548.7905 95.4702 547.3375 95.1349 546.3316 95.0231 546.5551 94.3525 541.3019 94.3525 542.5314 92.6759 547.0022 88.4286 541.1901 84.2931 540.0724 82.2812 543.3138 81.387 544.4315 80.8282 545.1021 79.5987 546.108 71.7747 547.8964 68.4216 550.6906 65.7391 551.1377 65.5155 554.3791 63.3919 558.0675 60.7094 567.4563 51.5441 570.8095 49.644 582.9925 47.4086 588.4693 47.185 593.7226 48.7498 598.1934 52.103 601.2112 57.1327 600.6524 57.6915 598.9758 59.8152 598.864 60.2623 602.9996 60.7094 603.5584 63.2801 603.3349 66.0744 607.4704 68.9804 609.7058 72.5571 612.7237 79.8222 616.5239 77.475 620.4359 77.9221 628.3716 81.387 632.9542 82.393 647.9316 82.84 647.1492 84.2931 646.5903 88.4286 649.7199 87.4227 651.8436 88.6521 653.9672 90.5523 657.0968 91.4464 659.444 90.7758 664.6972 87.8697 672.2977 85.0755 676.0979 80.4928 679.004 75.1278 681.6865 71.1041 683.6983 73.116 685.1514 78.5927 686.7162 79.8222 689.8458 80.0458 694.7637 81.1635 696.9991 81.387 701.2464 79.1516 702.2524 74.4572 701.2464 64.5096 702.3641 62.0506 704.9349 61.8271 707.7292 62.833 709.6293 63.8389 711.1941 65.1802 716.0002 70.4334 718.571 71.4394 721.5888 71.2158 726.5067 69.7628 727.7362 69.0922 728.6304 68.0862 729.6363 67.1921 731.5364 66.745 733.213 67.0803 734.2189 67.5274 735.0013 67.6392 736.4543 66.745 736.4543 65.1802 734.666 63.3919 733.213 61.4917 730.8658 56.462 733.1012 54.6737 734.5542 54.5619 739.2486 57.468 739.8075 58.4739 740.5899 59.2563 742.7135 59.4799 746.1784 59.3681 747.2961 60.0387 747.6315 61.6035 751.2081 62.0506 771.4387 60.9329 770.321 59.2563 770.4328 57.2444 771.4387 52.4383 773.8977 53.7795 777.2508 57.3562 779.8216 58.0268 779.598 57.1327 778.5921 55.2326 780.0451 55.7914 780.8275 56.015 781.6099 56.5738 782.7276 58.0268 785.1866 55.7914 788.875 53.7795 792.8988 52.4383 796.699 52.4383 795.1342 51.3206 794.1283 50.3146 792.6752 47.8557 804.0759 47.0733 808.3232 45.5085 807.8761 42.1553 810.5586 42.0436 812.5705 42.2671 814.1353 43.273 814.9177 45.0614 816.4825 45.0614 814.4706 39.0257 815.253 36.5668 819.0532 34.7784 823.1888 34.2196 827.6596 34.4431 831.4598 35.5608 833.2482 37.7963 834.7012 37.7963 835.5954 35.2255 836.0425 32.4312 837.0484 30.084 842.0781 28.1839 847.2196 24.0484 850.1256 23.266 849.7903 22.4836 849.2315 20.9188 848.7844 20.36 851.8022 21.2541 852.9199 21.813 852.2493 18.9069 852.5846 16.448 853.7023 15.5538 855.7142 17.4539 855.826 14.2125 856.1613 12.8713 857.279 11.53 855.826 9.4064 856.6084 8.4004 858.6202 8.1769 861.3028 8.624 862.4205 9.6299 864.8794 13.5419 866.7795 14.5479 871.5857 13.989 875.7212 11.53 878.9626 7.9534 880.8627 4.2649 883.4334 6.2768 886.116 7.3945 888.2396 8.7358 889.2455 11.53 892.3751 9.4064 895.9518 9.1828 904.8935 10.1888 902.5463 11.4183 902.3228 12.536 903.8876 13.5419 906.3465 14.5479 907.1289 14.4361 916.2942 14.5479 921.6592 12.0889 924.5652 11.53 931.3833 11.8653 934.1776 11.4183 932.6128 13.6537 928.9243 15.442 927.0242 17.3421 924.0064 13.7655 921.5474 16.3362 919.5355 20.807 918.0825 23.1542 915.4 24.4955 912.941 27.5133 911.1527 31.09 910.3703 33.996 909.8114 35.002 907.2407 37.5727 906.123 39.1375 905.6759 41.1494 905.2288 45.732 904.7817 47.7439 903.1052 50.4264 900.6462 52.3265 893.6046 55.1208 894.0517 53.8913 894.6106 52.8854 896.3989 50.7617 896.3989 52.4383 897.0695 51.2088 897.5166 50.2029 897.6284 49.1969 897.6284 47.7439 896.0636 48.7498 895.393 48.9734 893.6046 47.7439 893.6046 46.5144 896.0636 45.2849 898.4108 45.0614 900.4227 45.732 901.9875 47.7439 901.8757 43.8319 899.6403 38.3551 899.0814 33.996 897.7402 29.7487 894.8341 29.0781 891.5927 30.3076 889.1338 31.8724 885.11 35.6726 876.0565 47.4086 873.8211 52.4383 875.833 50.3146 876.5036 49.3087 879.4097 51.6559 881.6451 60.2623 882.9864 62.2741 885.6689 63.8389 888.5749 66.745 891.7045 67.7509 894.8341 63.8389 893.3811 62.4977 889.5809 60.1505 887.9043 59.4799 890.1397 58.1386 892.5987 58.921 894.7223 60.9329 896.3989 63.8389 896.2871 59.0328 897.7402 57.468 899.5285 59.3681 907.576 96.4761 908.0231 97.5938 909.9232 101.6176 911.5998 111.677 921.5474 140.6257 922.6651 149.0086 921.6592 156.1619 916.0706 169.5745 899.0814 197.0702 891.7045 206.0119 890.6986 209.5886 889.2455 212.1593 879.5215 218.9773 875.3859 224.7894 872.4799 231.6075 867.5619 251.1674 859.738 277.769 854.82 301.7998 855.1553 312.1945 854.2612 317.2242 854.2612 321.248 850.0139 331.6427 846.3254 345.6141 844.09 372.6627 844.4253 377.8042 845.8783 380.7102 844.4253 382.0515 845.543 384.6222 852.3611 426.2011ZM1008.5054 134.9254L1011.8585 133.2488 1014.541 133.2488 1016.3294 135.0372 1017 138.5021 1015.6587 144.3142 1011.8585 146.1025 1001.0167 145.0966 1000.1226 144.9848 1000.905 144.9848 1001.0167 144.9848 1001.4638 144.873 1001.6873 144.426 1001.6873 143.5318 1004.9287 141.7435 1006.27 139.2845 1007.0524 136.9373 1008.5054 134.9254Z" />
  <path class="Atlántico Sur" d="M813.6882 863.6735L810.2233 860.8792 804.8583 855.1789 801.9523 850.2609 798.152 845.343 797.4814 844.6724 797.0343 844.3371 795.4695 843.89 787.422 842.3252 785.0748 842.1017 783.6218 842.1017 783.1747 842.437 782.7276 842.6605 782.2805 842.884 781.6099 842.884 780.9393 842.437 780.0451 841.431 779.7098 840.5369 779.598 839.7545 779.4862 838.4132 779.4862 837.7426 779.2627 837.2955 778.9274 836.8484 778.2568 836.1778 777.5861 835.2836 777.3626 834.7248 777.1391 833.607 777.1391 832.9364 777.4744 829.1362 777.3626 828.4656 777.0273 828.1303 776.4684 827.9067 773.5624 829.3597 772.5564 829.5833 770.6563 829.8068 768.9798 830.4774 768.5327 830.8128 768.0856 831.0363 767.5267 831.1481 767.0796 831.4834 766.2972 831.4834 765.4031 831.3716 763.3912 830.5892 762.1617 830.3657 760.7087 830.701 759.9263 830.9245 758.9204 831.4834 758.4733 831.8187 757.5791 832.3776 757.132 832.4893 755.7908 832.8246 754.0024 833.7188 753.22 833.607 752.1023 833.0482 750.0904 831.3716 747.855 829.0244 747.6315 828.5773 747.5197 828.1303 747.5197 827.4596 747.7432 826.3419 747.0726 825.8948 745.7314 825.7831 739.2486 826.6772 736.6779 825.7831 733.3248 824.4418 731.9835 824.1065 731.4246 824.1065 730.0834 824.1065 728.0715 824.33 727.5127 824.33 726.9538 824.2183 725.389 823.6594 724.2713 823.3241 723.7124 823.1006 722.3712 822.3182 721.5888 821.9828 720.9182 821.8711 720.2475 821.8711 719.4651 821.3122 718.3474 820.0827 714.2119 813.1529 712.4235 810.8057 706.6114 804.9936 698.5639 799.1815 688.9516 794.1518 687.0515 792.8106 685.1514 790.9105 683.5866 787.6691 683.2513 784.9866 683.0277 782.4158 681.7982 779.6216 678.6686 776.3802 662.3501 766.209 656.4262 762.5206 642.7901 757.4909 642.0077 749.4433 640.5547 741.3958 640.5547 738.6015 641.2253 734.5778 644.1314 724.5184 646.1432 719.7122 646.4785 717.4768 646.5903 715.6884 644.4667 709.2057 642.343 703.8407 642.0077 698.4757 642.2312 695.905 641.7842 694.5637 640.4429 693.2224 638.7663 691.7694 635.7485 686.1809 631.613 671.7624 630.4953 668.1857 629.0422 665.5032 628.8187 664.8326 628.7069 663.9384 630.2717 662.4854 638.3193 659.1322 612.1648 646.5021 610.7118 644.3784 597.7463 611.5177 594.952 598.9993 594.7285 592.0695 595.958 587.3751 595.3991 584.2455 588.134 571.2801 586.9045 569.9388 585.4515 568.7094 583.9985 567.1446 582.5454 564.6856 581.4277 561.2207 580.5336 554.4026 580.8689 550.9377 581.4277 548.2552 582.5454 545.4609 582.8807 544.2315 582.4337 542.7784 581.0924 540.6548 578.4099 537.9723 574.1626 531.4895 569.6917 521.4301 568.4623 519.4183 562.5384 513.9415 557.6205 506.7881 556.5028 505.6704 554.1556 504.4409 553.932 503.7703 553.8202 502.7644 554.4909 499.523 554.1556 495.7228 553.2614 493.0403 551.473 489.6871 550.2436 488.2341 549.0141 487.1164 547.2257 486.1105 545.5492 483.5397 544.5432 483.0926 538.6194 478.51 534.8191 476.4981 530.9072 476.6099 526.9952 480.0748 525.9892 482.6455 525.2068 488.4576 524.3127 491.5872 523.7538 491.4755 522.0772 492.5932 520.6242 493.8227 520.6242 494.4933 519.9536 494.8286 517.2711 497.5111 519.2829 500.8642 519.5065 503.9938 517.9417 505.5586 514.4768 504.5527 509.1118 493.0403 507.547 485.9987 506.6528 483.6515 504.6409 479.6277 504.4174 477.6158 504.8645 475.604 505.6469 473.9274 506.9881 472.5861 508.7765 471.5802 511.7943 471.3567 514.0297 471.692 516.4887 471.8037 518.5006 471.1331 520.8477 469.0095 521.5184 466.9976 521.5184 463.6444 522.189 462.6385 524.3127 462.3032 525.9892 462.7503 529.6777 463.7562 531.9131 464.0915 534.3721 463.9798 537.2781 463.4209 542.8667 461.7443 544.8785 461.5208 557.0616 463.6444 559.7441 464.4268 560.5265 463.5327 562.9855 461.8561 564.3267 460.7384 566.3386 457.497 567.7916 454.0321 571.9272 454.8145 576.6216 451.6849 580.8689 447.5494 583.8867 445.4257 586.3457 445.2022 590.2576 444.0845 593.0519 443.9727 595.6227 444.6433 596.8521 445.5375 597.9699 445.6493 600.0935 443.9727 601.323 443.5256 602.1054 443.7492 602.776 443.5256 603.1113 440.396 604.0055 438.2724 604.229 437.6018 604.4526 434.5839 605.7938 427.5424 606.5762 425.754 610.9353 420.9479 611.0471 420.8361 612.3883 419.8301 613.1707 419.2713 613.2825 419.1595 612.7237 419.0477 612.2766 419.1595 611.6059 419.2713 611.1589 419.4948 608.9234 420.8361 608.2528 420.9479 607.6939 421.0596 607.0233 421.0596 606.3527 420.9479 605.7938 420.7243 605.3468 420.5008 604.8997 420.1655 604.229 419.3831 603.6702 418.6007 600.7641 412.4532 599.4229 408.3177 599.1993 407.8706 597.6345 405.747 596.7404 405.0763 596.2933 404.8528 595.8462 404.6293 595.2873 404.5175 594.7285 404.2939 594.2814 403.9586 592.8284 402.6174 592.3813 402.3938 591.9342 402.1703 592.6048 400.7173 593.2755 399.5996 602.1054 387.7518 654.9732 381.2691 683.5866 381.1573 687.6103 380.5985 690.1811 379.7043 692.7518 376.91 694.8755 375.457 696.4403 375.0099 697.7815 374.8981 699.2345 375.1217 700.3523 375.3452 701.6935 376.0158 703.0348 376.91 705.4937 377.5806 707.5056 377.5806 719.8004 374.1157 722.5947 373.6686 724.1595 374.1157 724.7184 375.1217 728.7421 387.64 729.5245 389.0931 730.6422 390.4343 731.9835 390.7696 733.7718 391.552 738.6898 390.099 741.9311 390.7696 741.2605 389.7637 740.1428 387.64 739.1369 386.5223 743.0488 387.3047 746.1784 388.5342 748.6374 387.9754 750.314 383.5045 751.6552 384.5105 752.6612 384.6222 754.4495 383.5045 755.9025 383.5045 757.8026 384.734 758.585 383.8398 758.3615 381.7162 757.132 379.2572 759.3674 379.5925 760.1498 380.1514 763.2794 380.4867 779.8216 381.1573 783.8453 381.7162 785.8572 382.6103 787.5338 383.6163 789.6574 384.5105 793.1223 385.4046 794.6871 386.2988 795.4695 387.193 795.3578 388.4224 794.9107 389.6519 794.1283 390.8814 790.3281 395.6876 789.5457 396.8053 789.0986 398.0348 788.9868 399.2642 789.2103 400.382 789.7692 401.2761 790.6634 402.1703 806.0878 413.4592 826.2066 425.1952 830.0068 426.4246 838.2779 426.0893 848.5608 426.76 852.3611 426.2011 856.8319 453.585 850.0139 508.9118 850.0139 521.2066 850.6845 523.2185 853.5905 529.2541 855.6024 535.9604 861.3028 544.0079 862.644 549.1494 862.1969 555.6321 859.9615 558.9853 855.826 560.4383 849.2315 560.6618 844.2018 561.6678 839.1721 563.5679 834.3659 564.3503 830.2304 562.1149 831.7952 560.5501 836.0425 557.5322 837.2719 556.191 837.3837 553.732 836.6013 550.4906 835.3718 547.5846 830.901 543.5608 831.2363 529.813 830.2304 524.5597 831.0128 524.2244 831.2363 524.1127 831.3481 524.0009 831.7952 523.2185 833.0246 523.2185 840.2898 525.5657 845.3195 519.0829 847.1078 509.5824 844.4253 503.2114 844.4253 501.6466 846.1019 499.6348 846.8843 496.8405 847.2196 485.1045 847.5549 484.6574 848.3373 483.9868 849.3432 482.8691 850.0139 481.4161 849.2315 475.8275 845.3195 472.4744 839.8427 471.1331 834.5894 471.5802 830.3421 474.0392 828.5538 477.9512 828.6656 482.1985 830.2304 485.8869 834.813 488.3459 835.2601 488.6812 835.1483 489.4636 835.5954 493.0403 835.8189 494.4933 836.7131 495.9463 837.719 496.5052 838.5014 497.2876 838.725 499.523 838.725 502.9879 838.2779 504.4409 837.2719 506.1175 838.0543 507.1234 840.178 510.3648 833.807 514.165 822.8535 523.3303 816.259 526.1245 807.429 527.1305 803.7406 528.36 802.1758 531.0425 802.1758 541.996 802.3993 542.2196 803.1817 541.7725 804.9701 541.8843 807.429 542.4431 809.1056 542.3314 810.4469 542.7784 812.1234 544.7903 813.4647 554.1791 812.6823 558.6499 811.2293 562.8972 810.5586 566.8092 812.1234 570.7212 815.9237 572.5096 822.2946 571.1683 823.4123 574.4097 823.1888 576.5333 822.0711 580.5571 821.8475 583.0161 822.2946 584.2455 823.3006 582.3454 826.5419 571.6154 827.7714 568.9329 829.5597 567.8152 833.5835 568.374 834.4777 570.0506 824.8653 589.2752 820.3945 614.0884 821.8475 640.9135 823.4123 645.4961 821.9593 646.2785 820.5063 646.8374 821.2887 642.5901 819.8356 639.0134 814.6942 632.6425 812.5705 627.2774 814.3589 625.042 817.3767 623.0301 818.9415 618.1122 817.9355 614.6473 815.253 610.5118 811.5646 606.9351 807.7644 605.1468 801.5052 605.8174 801.8405 608.947 805.0818 610.8471 807.7644 608.0528 809.3292 608.0528 812.7941 611.6295 814.1353 613.8649 814.6942 616.6592 814.0235 620.1241 810.8939 624.7067 810.5586 628.0598 809.4409 632.0836 805.7525 632.1954 797.2579 629.6246 796.1402 630.2953 798.7109 631.8601 803.7406 633.8719 804.8583 635.5485 805.7525 637.7839 806.1996 640.3547 806.3113 643.149 805.976 645.0491 804.0759 648.8493 803.7406 650.4141 804.0759 651.5318 804.7465 652.7613 805.1936 654.1025 804.9701 655.4438 803.8524 656.785 802.7347 657.3439 801.6169 657.791 800.9463 658.3498 797.1461 663.2678 795.9166 664.0502 794.1283 664.7208 792.1164 666.1738 790.4398 668.0739 789.5457 669.8623 792.2282 671.7624 795.5813 674.6684 798.3756 677.9098 800.0521 681.9336 801.6169 683.0513 803.6288 683.8337 805.6407 684.0572 808.6585 683.7219 808.8821 682.716 808.0997 681.3747 807.7644 679.8099 809.1056 675.6744 810.2233 673.5507 812.1234 672.7683 815.4766 672.6565 817.4884 674.3331 826.989 712.5589 827.4361 719.9358 827.3243 722.6183 827.1008 724.1831 826.3184 725.5243 824.6418 727.0891 824.3065 726.4185 821.4004 727.0891 818.4944 727.9833 818.2708 728.4304 816.7061 729.2128 814.6942 732.2306 812.7941 732.9012 810.3351 732.9012 808.3232 733.2365 806.6466 734.0189 804.9701 735.5837 802.8464 742.0664 800.8345 751.9023 798.152 759.2792 793.793 758.6086 792.4517 758.6086 785.969 766.8796 784.0689 770.121 783.0629 773.6977 783.0629 794.8224 789.3221 822.2064 793.793 833.16 799.9404 842.6605 801.9523 847.802 806.7584 855.7377 808.5468 857.3025 812.2352 859.6497 813.6882 863.6735ZM812.1234 668.2975L810.5586 662.7089 810.1116 655.1085 811.5646 648.514 815.7001 645.6079 816.0354 645.6079 816.259 645.8315 816.3707 646.1668 816.259 646.8374 814.9177 649.0728 813.4647 652.426 812.4587 656.2262 812.1234 659.6911 813.2411 667.2915 813.3529 670.0858 812.1234 668.2975ZM949.8255 612.7472L949.3784 608.1646 951.3903 604.4761 954.1846 602.9113 956.5318 604.8114 955.7494 606.2645 949.8255 612.7472Z" />
  <path class="Boaco" d="M514.4768 504.5527L517.9417 505.5586 519.5065 503.9938 519.2829 500.8642 517.2711 497.5111 519.9536 494.8286 520.6242 494.4933 520.6242 493.8227 522.0772 492.5932 523.7538 491.4755 524.3127 491.5872 525.2068 488.4576 525.9892 482.6455 526.9952 480.0748 530.9072 476.6099 534.8191 476.4981 538.6194 478.51 544.5432 483.0926 545.5492 483.5397 547.2257 486.1105 549.0141 487.1164 550.2436 488.2341 551.473 489.6871 553.2614 493.0403 554.1556 495.7228 554.4909 499.523 553.8202 502.7644 553.932 503.7703 554.1556 504.4409 556.5028 505.6704 557.6205 506.7881 555.0497 512.0414 547.2257 523.5538 546.4433 525.1186 545.8845 526.9069 545.5492 529.2541 545.4374 536.9663 544.8785 539.3135 543.8726 541.6607 540.4077 546.0198 538.1723 548.2552 535.1545 550.4906 529.1188 553.5085 526.2128 553.9556 524.9833 554.0673 522.8596 553.732 520.736 554.2909 517.6064 555.5204 505.6469 563.7914 503.1879 565.1327 494.8051 568.0387 483.7397 569.2682 468.9859 571.9507 460.2678 571.5036 454.2321 571.3919 449.2024 570.6095 446.967 570.4977 444.0609 571.3919 436.3487 575.1921 430.9837 579.1041 430.0895 579.9982 428.413 582.3454 427.9659 583.3514 427.7424 584.6926 427.8541 589.7223 428.3012 593.5226 428.3012 594.9756 427.8541 596.4286 423.7186 605.9292 423.495 606.2645 423.2715 606.5998 422.9362 607.0469 421.0361 610.1765 420.0301 612.1883 416.677 633.2013 401.2526 634.319 390.299 618.8946 384.7105 613.9767 381.4691 612.7472 379.6807 611.4059 378.6748 610.0647 378.3395 608.4999 378.0042 605.3703 376.6629 601.3465 377.7806 595.5344 381.1338 590.393 381.4691 589.1635 381.1338 588.3811 363.1386 571.3919 362.468 570.3859 362.1327 568.8211 362.2444 565.3562 362.5798 561.2207 362.3562 559.8794 361.6856 558.7617 356.5441 553.0614 353.8616 549.5965 352.5204 547.2493 351.5144 544.2315 350.732 537.1899 351.9615 533.5014 357.9971 527.9129 359.1149 527.0187 368.9507 521.5419 372.5274 514.0532 375.8805 512.2649 411.4238 504.888 414.1063 505.5586 417.4594 506.2293 418.5771 506.8999 419.2477 506.8999 420.0301 506.4528 422.4891 504.4409 424.9481 503.8821 429.0836 503.0997 430.9837 502.2055 431.8779 501.982 435.9017 501.982 437.1311 501.7584 437.9135 501.4231 438.4724 500.6407 441.1549 495.2757 441.4902 494.8286 441.8255 494.4933 442.3844 494.2697 443.055 494.158 456.244 494.8286 458.2559 494.6051 459.3736 494.2697 459.5971 493.7109 460.0442 493.3756 460.4913 493.152 462.1679 492.5932 463.062 492.1461 463.9562 491.5872 464.2915 491.2519 464.9622 490.4695 465.4092 489.4636 465.7446 488.6812 466.0799 488.2341 467.6447 487.0046 468.8741 487.3399 470.6625 487.8988 472.6744 489.5754 474.4627 491.699 475.1333 493.7109 476.5864 494.3815 483.2926 496.7287 487.2046 498.8524 490.446 499.0759 491.899 500.1936 491.6755 500.7525 490.5578 506.1175 491.899 506.1175 495.4757 503.7703 497.7111 504.1056 504.0821 511.3707 505.4233 511.7061 506.0939 509.6942 506.8763 508.9118 508.7765 509.5824 510.6766 510.9237 511.6825 511.8178 513.0238 511.8178 513.8062 510.4766 514.365 508.8 514.5886 506.7881 514.4768 504.5527Z" />
  <path class="Carazo" d="M325.4717 724.4066L318.3184 729.2128 317.6477 729.9952 316.3065 732.5659 310.3826 743.4077 310.3826 743.5195 310.1591 742.8488 303.8999 740.0546 296.1877 732.5659 277.4101 724.2948 274.1688 721.9476 271.4862 718.7063 269.1391 712.1118 244.6612 693.3342 243.4317 691.7694 248.5732 686.7397 250.585 685.5102 252.2616 685.3985 253.4911 685.2867 255.8383 684.6161 256.956 684.2807 257.7384 683.8337 260.3091 681.3747 262.4328 678.2451 267.9096 674.1096 269.4744 672.6565 273.3864 666.1738 286.24 655.6673 288.699 651.9789 290.9344 654.6614 309.6002 662.1501 315.6359 665.0561 318.3184 668.7446 318.7655 669.3034 329.719 672.5448 331.3956 673.1036 330.5014 675.2273 326.2541 682.9395 325.1364 688.1927 325.807 693.3342 326.7012 696.9109 326.7012 699.2581 326.2541 701.1582 323.7952 704.5113 321.895 708.4233 321.0009 714.9061 321.3362 717.9239 321.7833 719.824 325.4717 724.4066Z" />
  <path class="Chinandega" d="M196.1525 376.5747L196.376 377.0218 200.288 377.8042 201.5175 378.6983 202.0763 380.4867 202.2999 382.0515 202.1881 383.281 201.9646 384.5105 201.741 384.9575 199.8409 390.9932 197.7173 392.8933 197.4937 393.1168 196.9349 395.0169 196.2642 401.6114 198.6114 414.1298 200.6233 421.2832 204.9824 431.3426 207.7767 435.8134 210.3474 441.7373 212.2475 467.1094 211.5769 473.7039 209.0062 479.6277 205.4295 481.8631 203.7529 482.5338 200.8469 483.2044 186.0931 485.2163 183.8576 486.4458 182.4046 487.8988 179.4986 493.3756 175.5866 498.1817 171.5628 499.9701 166.5331 505.4469 161.3916 511.1472 157.3679 514.9474 156.5855 516.2887 155.0207 520.4242 150.8851 527.1305 140.2669 538.1958 138.255 539.4253 134.7901 541.4372 131.3252 543.002 121.2658 544.1197 116.6832 546.8022 116.3479 546.4669 113.6653 544.3432 110.8711 543.4491 109.0827 542.1078 104.5001 533.2779 103.1589 533.2779 105.2825 541.1019 101.9294 538.1958 96.5644 531.3778 92.6524 527.5776 90.0816 526.4598 77.3397 516.5122 75.6631 514.7239 74.6572 512.6002 73.5395 508.9118 72.9806 510.1413 71.4158 512.0414 70.7452 513.1591 48.2792 486.8928 45.5967 481.4161 46.4909 482.422 47.385 482.9809 49.844 484.3221 49.844 482.9809 48.8381 482.6455 47.0497 481.4161 47.0497 480.1866 46.4909 478.0629 43.026 475.1569 38.4433 472.5861 34.3078 471.5802 34.3078 472.8097 39.7846 476.3864 42.5789 479.0689 42.6906 481.4161 40.567 481.1925 37.5492 478.8453 33.0783 474.3745 9.0475 459.956 4.0178 455.4851 1 450.2319 1 444.0845 4.8002 436.8194 10.6123 431.7897 16.5362 427.9894 20.7835 423.4068 21.7894 415.2475 23.1307 415.2475 22.5718 419.8301 21.7894 421.0596 24.1366 421.0596 26.9309 421.3949 29.2781 422.1773 30.284 423.1833 31.1782 423.7421 36.4315 428.213 37.6609 428.9954 41.4612 433.9133 42.3553 434.6957 44.9261 436.2605 45.5967 436.8194 45.8202 438.1606 45.3732 441.402 45.5967 442.7432 52.303 449.4495 61.0211 451.3496 82.1459 450.0084 82.1459 448.4436 71.4158 448.6671 66.0508 448.1083 63.8154 446.2081 65.8273 442.855 75.7749 437.9371 77.1162 436.9311 124.0601 433.9133 127.0779 434.2486 131.884 437.1547 134.2312 437.3782 135.349 433.9133 139.5963 431.7897 144.8495 428.5483 147.1967 425.9776 152.0029 418.4889 153.1206 417.4829 156.1384 416.0299 157.2561 414.9122 157.815 412.9003 156.9208 412.1179 155.8031 411.5591 155.356 410.3296 157.0326 399.2642 156.6972 398.7054 155.1325 395.3523 154.7971 394.1228 155.1325 393.5639 156.5855 387.64 158.0385 384.734 159.7151 382.7221 169.5509 374.2275 172.2334 372.3274 175.5866 371.4332 179.0515 371.6568 190.8992 377.5806 192.7993 378.1395 194.6994 377.5806 196.1525 376.5747Z" />
  <path class="Chontales" d="M631.613 671.7624L623.6772 671.4271 621.4418 670.98 620.4359 670.5329 619.6535 670.4211 618.9828 670.3094 615.8532 670.6447 615.0708 670.5329 613.2825 670.0858 612.3883 670.0858 608.2528 670.7564 593.1637 670.6447 592.046 670.7564 591.1518 671.0917 590.4812 672.0977 576.9569 684.6161 571.8154 687.9692 562.9855 689.8693 559.9677 694.6755 559.4088 696.0167 559.4088 696.2403 559.1853 697.1344 558.7382 697.6933 557.9558 698.6992 557.6205 699.1463 557.3969 699.5934 557.1734 699.9287 555.7204 701.4935 554.7144 702.723 554.0438 703.9525 553.3732 704.3996 552.1437 705.182 548.3435 706.635 547.3375 706.7468 546.8904 706.5232 545.8845 706.1879 544.5432 706.7468 542.7549 707.7527 538.6194 710.6587 535.4898 712.2235 534.5956 713.0059 534.0367 713.6766 530.3483 720.0475 444.0609 709.7646 416.677 633.2013 420.0301 612.1883 421.0361 610.1765 422.9362 607.0469 423.2715 606.5998 423.495 606.2645 423.7186 605.9292 427.8541 596.4286 428.3012 594.9756 428.3012 593.5226 427.8541 589.7223 427.7424 584.6926 427.9659 583.3514 428.413 582.3454 430.0895 579.9982 430.9837 579.1041 436.3487 575.1921 444.0609 571.3919 446.967 570.4977 449.2024 570.6095 454.2321 571.3919 460.2678 571.5036 468.9859 571.9507 483.7397 569.2682 494.8051 568.0387 503.1879 565.1327 505.6469 563.7914 517.6064 555.5204 520.736 554.2909 522.8596 553.732 524.9833 554.0673 526.2128 553.9556 529.1188 553.5085 535.1545 550.4906 538.1723 548.2552 540.4077 546.0198 543.8726 541.6607 544.8785 539.3135 545.4374 536.9663 545.5492 529.2541 545.8845 526.9069 546.4433 525.1186 547.2257 523.5538 555.0497 512.0414 557.6205 506.7881 562.5384 513.9415 568.4623 519.4183 569.6917 521.4301 574.1626 531.4895 578.4099 537.9723 581.0924 540.6548 582.4337 542.7784 582.8807 544.2315 582.5454 545.4609 581.4277 548.2552 580.8689 550.9377 580.5336 554.4026 581.4277 561.2207 582.5454 564.6856 583.9985 567.1446 585.4515 568.7094 586.9045 569.9388 588.134 571.2801 595.3991 584.2455 595.958 587.3751 594.7285 592.0695 594.952 598.9993 597.7463 611.5177 610.7118 644.3784 612.1648 646.5021 638.3193 659.1322 630.2717 662.4854 628.7069 663.9384 628.8187 664.8326 629.0422 665.5032 630.4953 668.1857 631.613 671.7624Z" />
  <path class="Estelí" d="M302.6704 350.9791L300.8821 354.1087 299.7644 357.3501 299.2055 360.9267 299.0937 365.3976 300.9938 374.451 297.976 383.1692 298.5349 385.8517 297.8642 389.3166 295.5171 393.3404 296.8583 396.2464 298.3113 398.4818 313.7358 414.018 322.6774 419.2713 325.9188 423.1833 318.2066 433.8015 316.8653 439.1666 316.3065 440.396 315.4123 441.5138 313.7358 442.6315 311.165 443.6374 305.9118 444.7551 303.4528 445.5375 298.982 448.22 297.3054 449.673 296.6348 450.5672 293.3934 457.3853 292.2757 464.9857 267.1272 457.6088 260.3091 454.1439 258.1855 450.4554 258.1855 448.6671 258.409 446.3199 262.9916 438.2724 263.4387 431.6779 261.9857 426.4246 260.868 424.6363 258.8561 421.7303 253.3793 412.7886 249.6909 408.9883 248.1261 408.2059 245.6671 407.5353 234.2664 409.9943 220.7421 414.5769 216.4948 415.4711 214.1476 415.6946 210.1239 413.6827 206.8825 412.565 204.2 412.565 202.1881 412.6768 198.6114 414.1298 196.2642 401.6114 196.9349 395.0169 197.4937 393.1168 197.7173 392.8933 199.8409 390.9932 217.0537 373.5569 220.8539 368.0801 222.6422 364.3916 231.0251 349.6378 239.1844 342.4845 244.6612 341.7021 246.7848 342.3727 249.8026 343.8257 258.5208 347.9613 267.2389 346.5083 282.8869 341.4785 294.2876 340.9197 298.1996 342.1492 298.982 343.4904 300.9938 348.1848 302.6704 350.9791Z" />
  <path class="Granada" d="M444.0609 709.7646L367.9448 709.4293 361.2385 711.4411 352.185 713.7883 351.1791 713.453 349.1672 711.3294 348.3848 710.547 347.4906 709.9881 346.4847 709.7646 346.1494 709.6528 345.5905 709.7646 345.0317 710.0999 344.4728 710.6587 341.2315 717.5886 338.996 721.277 338.2136 721.8359 332.5133 724.7419 331.8427 725.4125 330.2779 725.6361 325.4717 724.4066 321.7833 719.824 321.3362 717.9239 321.0009 714.9061 321.895 708.4233 323.7952 704.5113 326.2541 701.1582 326.7012 699.2581 326.7012 696.9109 325.807 693.3342 325.1364 688.1927 326.2541 682.9395 330.5014 675.2273 331.3956 673.1036 335.4194 664.3855 337.3195 660.0264 337.9901 658.4616 345.367 642.0312 353.6381 623.8125 352.9674 620.5712 346.1494 612.859 363.3622 605.035 369.8449 600.3406 371.5215 599.7817 373.0862 599.7817 376.6629 601.3465 378.0042 605.3703 378.3395 608.4999 378.6748 610.0647 379.6807 611.4059 381.4691 612.7472 384.7105 613.9767 390.299 618.8946 401.2526 634.319 416.677 633.2013 444.0609 709.7646Z" />
  <path class="Jinotega" d="M546.3316 95.0231L547.3375 95.1349 548.7905 95.4702 549.3494 95.8055 550.02 96.3644 550.4671 97.1468 550.9142 98.0409 551.2495 99.3822 551.3613 100.7234 550.2436 103.7413 549.9083 105.0825 549.9083 106.312 549.9083 107.2062 549.4612 109.4416 549.3494 110.6711 549.4612 112.4594 549.3494 114.4713 549.4612 115.1419 549.7965 115.589 552.5908 117.8244 555.6086 119.501 556.5028 120.2834 557.2851 121.6246 557.6205 123.3012 557.1734 125.3131 554.938 129.3369 554.6026 130.6781 554.8262 135.2607 554.6026 136.2667 553.0378 139.1727 552.5908 140.6257 552.7025 141.967 553.2614 143.5318 557.1734 148.5615 560.5265 151.8029 563.5443 155.3795 564.5503 156.0502 566.0033 156.3855 584.3338 157.615 584.8926 160.521 584.5573 165.6625 580.0865 189.8051 579.4158 199.6409 581.316 207.3531 580.8689 209.8121 578.9688 213.9476 566.5622 234.9606 540.5195 276.763 539.5135 277.769 538.6194 278.2161 519.0594 269.1626 518.277 269.3861 493.2403 285.0341 492.7932 285.1459 476.3628 287.3813 475.3569 288.6108 474.3509 290.5109 472.5626 295.5406 470.886 298.1113 469.433 299.7879 467.3094 301.1292 466.974 302.4704 467.1976 304.3705 468.7624 307.9472 470.2154 310.2944 471.2213 313.0887 471.4449 315.1006 469.3212 321.695 469.2095 325.4953 469.3212 326.5012 469.0977 328.5131 468.4271 330.0779 466.0799 331.978 455.0145 339.2431 448.6436 344.9435 447.5259 347.626 447.4141 355.1146 436.0134 362.6033 431.9897 364.1681 427.1835 364.1681 422.9362 367.0741 420.0301 370.4273 417.0123 375.2334 413.4356 381.3809 398.5701 399.0407 390.8579 405.747 388.6224 406.9765 379.1219 415.2475 367.4977 426.2011 363.0268 429.4425 361.015 430.1131 358.3325 430.4484 350.9556 430.2249 348.4966 430.5602 347.4906 431.119 344.8081 434.3604 337.7666 428.9954 334.5252 425.754 331.6191 423.9657 329.719 423.1833 326.9248 423.295 325.9188 423.1833 322.6774 419.2713 313.7358 414.018 298.3113 398.4818 296.8583 396.2464 295.5171 393.3404 297.8642 389.3166 298.5349 385.8517 297.976 383.1692 300.9938 374.451 299.0937 365.3976 299.2055 360.9267 299.7644 357.3501 300.8821 354.1087 302.6704 350.9791 310.1591 342.9316 313.5122 339.9138 316.7536 339.3549 319.6596 339.2431 322.2304 340.3608 324.1305 338.0136 332.0662 331.6427 334.0781 329.2955 336.09 326.8365 338.3254 325.9424 340.4491 328.6249 342.4609 327.7307 353.191 326.8365 356.7677 327.0601 359.0031 328.4013 360.7914 329.9661 362.6915 330.9721 365.374 330.6367 366.8271 329.6308 370.292 324.7129 374.8746 321.248 378.563 319.3479 380.9102 316.6653 380.4631 304.147 381.1338 298.8937 383.0339 293.9758 388.9578 283.8046 389.8519 281.2339 390.4108 278.4396 390.7461 268.492 391.9756 265.0271 393.9875 262.5681 398.9054 259.5503 399.0172 259.662 399.4642 259.215 400.9173 257.8737 402.5938 254.5206 403.0409 251.2792 401.9232 248.8202 398.7936 247.8143 398.0112 246.026 398.9054 241.8904 400.9173 235.6312 401.1408 230.9369 402.1468 229.8191 404.2704 230.2662 407.9589 230.6015 410.5296 229.3721 414.6651 225.6836 416.4535 226.2425 417.6829 226.2425 417.5712 225.2365 417.9065 225.013 418.4653 225.013 419.136 224.7894 418.4653 222.554 425.6187 220.3186 427.6306 218.3067 429.5307 215.4007 434.0015 213.8359 435.7899 213.5006 439.143 212.9417 442.9432 211.7122 444.9551 208.8062 445.4022 205.453 446.5199 202.6587 453.8968 200.5351 457.3617 198.5232 462.7267 194.3877 465.0739 191.3699 467.3094 187.3461 468.9859 183.3223 470.5507 177.9573 472.4508 174.6042 474.798 171.4746 476.8099 169.5745 477.7041 169.4627 479.9395 169.798 480.7219 169.5745 481.2807 168.9039 481.9514 167.3391 483.4044 165.5507 484.1868 164.2095 485.3045 162.98 487.2046 162.5329 492.1226 160.0739 494.2462 159.6268 501.9584 159.6268 507.0999 158.7327 512.2414 157.0561 516.3769 154.4854 518.7241 150.9087 518.6123 146.1025 515.9298 141.967 512.2414 138.6139 509 136.3784 514.5886 132.0194 514.8121 130.6781 514.365 127.4367 514.5886 126.0955 519.2829 121.0658 520.0653 119.7245 520.5124 108.9945 521.2948 103.1824 522.9714 100.1646 526.6598 101.0587 530.013 104.7472 533.4779 107.3179 537.837 105.3061 545.1021 97.9292 546.3316 95.0231Z" />
  <path class="León" d="M116.6832 546.8022L121.2658 544.1197 131.3252 543.002 134.7901 541.4372 138.255 539.4253 140.2669 538.1958 150.8851 527.1305 155.0207 520.4242 156.5855 516.2887 157.3679 514.9474 161.3916 511.1472 166.5331 505.4469 171.5628 499.9701 175.5866 498.1817 179.4986 493.3756 182.4046 487.8988 183.8576 486.4458 186.0931 485.2163 200.8469 483.2044 203.7529 482.5338 205.4295 481.8631 209.0062 479.6277 211.5769 473.7039 212.2475 467.1094 210.3474 441.7373 207.7767 435.8134 204.9824 431.3426 200.6233 421.2832 198.6114 414.1298 202.1881 412.6768 204.2 412.565 206.8825 412.565 210.1239 413.6827 214.1476 415.6946 216.4948 415.4711 220.7421 414.5769 234.2664 409.9943 245.6671 407.5353 248.1261 408.2059 249.6909 408.9883 253.3793 412.7886 258.8561 421.7303 260.868 424.6363 261.9857 426.4246 263.4387 431.6779 262.9916 438.2724 258.409 446.3199 258.1855 448.6671 258.1855 450.4554 260.3091 454.1439 267.1272 457.6088 292.2757 464.9857 291.6051 470.1272 289.2579 491.0284 287.1342 509.4706 279.0867 514.5003 276.0689 517.2946 274.3923 519.6418 273.8334 520.8713 273.6099 521.8772 273.6099 522.6596 273.2746 524.7833 273.2746 525.5657 273.3864 526.1245 273.3864 527.1305 273.051 528.4717 271.8216 532.1602 271.598 533.1661 271.7098 533.725 272.1569 534.7309 272.3804 535.2898 274.2805 538.084 274.3923 538.1958 275.51 539.2018 275.8453 539.6488 275.9571 540.2077 275.9571 541.4372 276.0689 542.2196 276.4042 543.002 276.0689 543.5608 275.2865 544.5668 255.2794 564.3503 241.6433 578.2099 238.7373 582.2337 238.402 585.475 238.402 600.3406 238.7373 601.7936 239.2961 603.0231 240.0785 603.6937 241.0845 604.3644 242.4257 605.9292 242.7611 609.6176 240.0785 615.4297 236.1666 620.1241 228.4543 626.048 227.2249 626.6068 226.666 626.6068 223.76 626.048 220.8539 624.9303 220.4068 624.8185 219.9597 624.8185 219.4009 624.9303 218.842 625.042 215.7124 626.1597 214.2594 626.495 213.5888 626.8304 213.0299 627.1657 212.6946 627.6128 212.4711 628.0598 212.4711 628.7305 212.5828 629.2893 212.9182 630.407 214.2594 633.3131 215.2653 634.5426 215.4889 634.9897 215.7124 635.6603 215.7124 636.2191 215.6007 636.778 214.7065 638.3428 214.0359 639.1252 208.8944 642.8136 204.9824 637.8957 197.2702 624.4832 190.0051 604.6997 187.9932 601.5701 182.9635 597.0992 140.9375 571.3919 138.3668 568.1505 126.8543 561.4442 120.5952 554.738 106.4002 548.2552 105.8414 543.4491 108.1886 546.5787 112.2123 549.2612 116.9067 551.1613 121.3776 552.0554 116.6832 546.8022Z" />
  <path class="Madriz" d="M334.0781 329.2955L332.0662 331.6427 324.1305 338.0136 322.2304 340.3608 319.6596 339.2431 316.7536 339.3549 313.5122 339.9138 310.1591 342.9316 302.6704 350.9791 300.9938 348.1848 298.982 343.4904 298.1996 342.1492 294.2876 340.9197 282.8869 341.4785 267.2389 346.5083 258.5208 347.9613 249.8026 343.8257 246.7848 342.3727 244.6612 341.7021 239.1844 342.4845 231.0251 349.6378 222.6422 364.3916 220.8539 368.0801 217.0537 373.5569 199.8409 390.9932 201.741 384.9575 201.9646 384.5105 202.1881 383.281 202.2999 382.0515 202.0763 380.4867 201.5175 378.6983 200.288 377.8042 196.376 377.0218 196.1525 376.5747 197.7173 375.5688 200.5116 372.998 202.0763 370.2037 202.5234 366.9624 201.2939 360.9267 200.8469 359.6972 199.3938 357.0147 198.0526 355.7853 196.7113 355.4499 195.4818 354.8911 194.6994 352.7674 195.0348 349.7496 197.6055 343.9375 197.9408 340.5844 191.3463 315.3241 191.2345 311.7474 192.464 305.0411 192.3523 301.688 191.5699 300.3468 189.7815 298.8937 191.4581 297.6642 193.0229 295.5406 193.6935 294.87 194.5877 294.0876 199.1703 294.1993 213.477 296.8818 217.5008 302.9175 218.3949 304.7058 220.295 306.7177 222.5305 308.2825 225.9954 309.6238 228.3426 310.965 230.8015 313.2004 234.0429 311.6356 236.1666 309.6238 240.7492 308.3943 242.7611 308.1707 257.5149 308.3943 268.9155 312.1945 275.51 312.0827 284.0046 310.965 286.4636 311.3003 289.5932 312.1945 293.6169 314.6535 299.7644 317.4477 301.6645 315.2123 302.8939 309.1767 303.5646 307.8354 304.1234 306.8295 308.5943 305.0411 312.618 303.6999 319.6596 309.512 321.3362 311.1886 323.3481 313.7593 327.9307 321.8068 334.0781 329.2955Z" />
  <path class="Managua" d="M208.8944 642.8136L214.0359 639.1252 214.7065 638.3428 215.6007 636.778 215.7124 636.2191 215.7124 635.6603 215.4889 634.9897 215.2653 634.5426 214.2594 633.3131 212.9182 630.407 212.5828 629.2893 212.4711 628.7305 212.4711 628.0598 212.6946 627.6128 213.0299 627.1657 213.5888 626.8304 214.2594 626.495 215.7124 626.1597 218.842 625.042 219.4009 624.9303 219.9597 624.8185 220.4068 624.8185 220.8539 624.9303 223.76 626.048 226.666 626.6068 227.2249 626.6068 228.4543 626.048 236.1666 620.1241 240.0785 615.4297 242.7611 609.6176 242.4257 605.9292 241.0845 604.3644 240.0785 603.6937 239.2961 603.0231 238.7373 601.7936 238.402 600.3406 238.402 585.475 238.7373 582.2337 241.6433 578.2099 255.2794 564.3503 275.2865 544.5668 276.0689 543.5608 276.4042 543.002 276.0689 542.2196 275.9571 541.4372 275.9571 540.2077 275.8453 539.6488 275.51 539.2018 274.3923 538.1958 274.2805 538.084 272.3804 535.2898 272.1569 534.7309 271.7098 533.725 271.598 533.1661 271.8216 532.1602 273.051 528.4717 273.3864 527.1305 273.3864 526.1245 273.2746 525.5657 273.2746 524.7833 273.6099 522.6596 273.6099 521.8772 273.8334 520.8713 274.3923 519.6418 276.0689 517.2946 279.0867 514.5003 287.1342 509.4706 321.895 517.1828 325.5835 518.4123 328.6013 521.2066 331.7309 524.7833 333.9663 526.5716 335.9782 527.9129 348.6084 532.8308 351.9615 533.5014 350.732 537.1899 351.5144 544.2315 352.5204 547.2493 353.8616 549.5965 356.5441 553.0614 361.6856 558.7617 362.3562 559.8794 362.5798 561.2207 362.2444 565.3562 362.1327 568.8211 362.468 570.3859 363.1386 571.3919 381.1338 588.3811 381.4691 589.1635 381.1338 590.393 377.7806 595.5344 376.6629 601.3465 373.0862 599.7817 371.5215 599.7817 369.8449 600.3406 363.3622 605.035 346.1494 612.859 342.5727 611.853 341.455 611.2942 341.0079 611.0706 340.4491 611.0706 336.8724 611.5177 329.9426 614.4238 323.9069 615.4297 320.2185 618.224 307.8119 630.5188 308.4825 633.2013 311.3886 636.3309 312.5063 637.8957 313.0651 639.1252 312.8416 643.8196 310.4944 647.508 309.3767 648.8493 308.1472 650.0788 306.4706 650.9729 304.5705 651.42 303.0057 651.6436 300.5468 650.9729 299.0937 650.3023 293.5052 645.9432 288.699 651.9789 286.24 655.6673 273.3864 666.1738 269.4744 672.6565 267.9096 674.1096 262.4328 678.2451 260.3091 681.3747 257.7384 683.8337 256.956 684.2807 255.8383 684.6161 253.4911 685.2867 252.2616 685.3985 250.585 685.5102 248.5732 686.7397 243.4317 691.7694 240.6374 688.3045 235.1606 675.8979 232.9252 674.1096 230.9133 672.9919 225.5483 667.5151 222.3069 662.9325 218.842 656.338 218.1714 653.2084 217.1655 650.3023 214.8183 647.8433 209.7886 643.9314 208.8944 642.8136Z" />
  <path class="Masaya" d="M288.699 651.9789L293.5052 645.9432 299.0937 650.3023 300.5468 650.9729 303.0057 651.6436 304.5705 651.42 306.4706 650.9729 308.1472 650.0788 309.3767 648.8493 310.4944 647.508 312.8416 643.8196 313.0651 639.1252 312.5063 637.8957 311.3886 636.3309 308.4825 633.2013 307.8119 630.5188 320.2185 618.224 323.9069 615.4297 329.9426 614.4238 336.8724 611.5177 340.4491 611.0706 341.0079 611.0706 341.455 611.2942 342.5727 611.853 346.1494 612.859 352.9674 620.5712 353.6381 623.8125 345.367 642.0312 337.9901 658.4616 337.3195 660.0264 335.4194 664.3855 331.3956 673.1036 329.719 672.5448 318.7655 669.3034 318.3184 668.7446 315.6359 665.0561 309.6002 662.1501 290.9344 654.6614 288.699 651.9789Z" />
  <path class="Matagalpa" d="M447.4141 355.1146L451.7732 364.727 462.1679 378.8101 466.1916 382.8339 468.9859 383.9516 469.9919 384.5105 471.1096 385.4046 476.9217 390.8814 477.3688 391.105 477.9276 391.3285 478.4865 391.4403 479.1571 391.4403 480.3866 391.3285 481.5043 390.9932 482.1749 390.9932 483.0691 391.2167 484.6339 392.3344 487.4282 393.7875 488.2106 394.2345 488.5459 394.9052 488.8812 396.8053 489.2165 397.2524 491.6755 397.5877 493.1285 399.5996 499.3877 402.2821 501.6231 402.6174 506.9881 401.2761 512.8002 398.4818 514.8121 397.0288 516.6004 394.9052 519.1712 389.6519 521.5184 382.275 523.1949 378.4748 525.8774 374.7864 531.1307 371.6568 537.9487 370.9861 551.473 371.3215 554.7144 370.9861 556.5028 370.2037 575.0568 352.8792 575.9509 353.1028 576.6216 353.8851 577.851 356.0088 598.3052 382.0515 602.1054 387.7518 593.2755 399.5996 592.6048 400.7173 591.9342 402.1703 592.3813 402.3938 592.8284 402.6174 594.2814 403.9586 594.7285 404.2939 595.2873 404.5175 595.8462 404.6293 596.2933 404.8528 596.7404 405.0763 597.6345 405.747 599.1993 407.8706 599.4229 408.3177 600.7641 412.4532 603.6702 418.6007 604.229 419.3831 604.8997 420.1655 605.3468 420.5008 605.7938 420.7243 606.3527 420.9479 607.0233 421.0596 607.6939 421.0596 608.2528 420.9479 608.9234 420.8361 611.1589 419.4948 611.6059 419.2713 612.2766 419.1595 612.7237 419.0477 613.2825 419.1595 613.1707 419.2713 612.3883 419.8301 611.0471 420.8361 610.9353 420.9479 606.5762 425.754 605.7938 427.5424 604.4526 434.5839 604.229 437.6018 604.0055 438.2724 603.1113 440.396 602.776 443.5256 602.1054 443.7492 601.323 443.5256 600.0935 443.9727 597.9699 445.6493 596.8521 445.5375 595.6227 444.6433 593.0519 443.9727 590.2576 444.0845 586.3457 445.2022 583.8867 445.4257 580.8689 447.5494 576.6216 451.6849 571.9272 454.8145 567.7916 454.0321 566.3386 457.497 564.3267 460.7384 562.9855 461.8561 560.5265 463.5327 559.7441 464.4268 557.0616 463.6444 544.8785 461.5208 542.8667 461.7443 537.2781 463.4209 534.3721 463.9798 531.9131 464.0915 529.6777 463.7562 525.9892 462.7503 524.3127 462.3032 522.189 462.6385 521.5184 463.6444 521.5184 466.9976 520.8477 469.0095 518.5006 471.1331 516.4887 471.8037 514.0297 471.692 511.7943 471.3567 508.7765 471.5802 506.9881 472.5861 505.6469 473.9274 504.8645 475.604 504.4174 477.6158 504.6409 479.6277 506.6528 483.6515 507.547 485.9987 509.1118 493.0403 514.4768 504.5527 514.5886 506.7881 514.365 508.8 513.8062 510.4766 513.0238 511.8178 511.6825 511.8178 510.6766 510.9237 508.7765 509.5824 506.8763 508.9118 506.0939 509.6942 505.4233 511.7061 504.0821 511.3707 497.7111 504.1056 495.4757 503.7703 491.899 506.1175 490.5578 506.1175 491.6755 500.7525 491.899 500.1936 490.446 499.0759 487.2046 498.8524 483.2926 496.7287 476.5864 494.3815 475.1333 493.7109 474.4627 491.699 472.6744 489.5754 470.6625 487.8988 468.8741 487.3399 467.6447 487.0046 466.0799 488.2341 465.7446 488.6812 465.4092 489.4636 464.9622 490.4695 464.2915 491.2519 463.9562 491.5872 463.062 492.1461 462.1679 492.5932 460.4913 493.152 460.0442 493.3756 459.5971 493.7109 459.3736 494.2697 458.2559 494.6051 456.244 494.8286 443.055 494.158 442.3844 494.2697 441.8255 494.4933 441.4902 494.8286 441.1549 495.2757 438.4724 500.6407 437.9135 501.4231 437.1311 501.7584 435.9017 501.982 431.8779 501.982 430.9837 502.2055 429.0836 503.0997 424.9481 503.8821 422.4891 504.4409 420.0301 506.4528 419.2477 506.8999 418.5771 506.8999 417.4594 506.2293 414.1063 505.5586 411.4238 504.888 375.8805 512.2649 372.5274 514.0532 368.9507 521.5419 359.1149 527.0187 357.9971 527.9129 351.9615 533.5014 348.6084 532.8308 335.9782 527.9129 333.9663 526.5716 331.7309 524.7833 328.6013 521.2066 325.5835 518.4123 321.895 517.1828 287.1342 509.4706 289.2579 491.0284 291.6051 470.1272 292.2757 464.9857 293.3934 457.3853 296.6348 450.5672 297.3054 449.673 298.982 448.22 303.4528 445.5375 305.9118 444.7551 311.165 443.6374 313.7358 442.6315 315.4123 441.5138 316.3065 440.396 316.8653 439.1666 318.2066 433.8015 325.9188 423.1833 326.9248 423.295 329.719 423.1833 331.6191 423.9657 334.5252 425.754 337.7666 428.9954 344.8081 434.3604 347.4906 431.119 348.4966 430.5602 350.9556 430.2249 358.3325 430.4484 361.015 430.1131 363.0268 429.4425 367.4977 426.2011 379.1219 415.2475 388.6224 406.9765 390.8579 405.747 398.5701 399.0407 413.4356 381.3809 417.0123 375.2334 420.0301 370.4273 422.9362 367.0741 427.1835 364.1681 431.9897 364.1681 436.0134 362.6033 447.4141 355.1146Z" />
  <path class="Nueva Segovia" d="M398.9054 259.5503L393.9875 262.5681 391.9756 265.0271 390.7461 268.492 390.4108 278.4396 389.8519 281.2339 388.9578 283.8046 383.0339 293.9758 381.1338 298.8937 380.4631 304.147 380.9102 316.6653 378.563 319.3479 374.8746 321.248 370.292 324.7129 366.8271 329.6308 365.374 330.6367 362.6915 330.9721 360.7914 329.9661 359.0031 328.4013 356.7677 327.0601 353.191 326.8365 342.4609 327.7307 340.4491 328.6249 338.3254 325.9424 336.09 326.8365 334.0781 329.2955 327.9307 321.8068 323.3481 313.7593 321.3362 311.1886 319.6596 309.512 312.618 303.6999 308.5943 305.0411 304.1234 306.8295 303.5646 307.8354 302.8939 309.1767 301.6645 315.2123 299.7644 317.4477 293.6169 314.6535 289.5932 312.1945 286.4636 311.3003 284.0046 310.965 275.51 312.0827 268.9155 312.1945 257.5149 308.3943 242.7611 308.1707 240.7492 308.3943 236.1666 309.6238 234.0429 311.6356 230.8015 313.2004 228.3426 310.965 225.9954 309.6238 222.5305 308.2825 220.295 306.7177 218.3949 304.7058 217.5008 302.9175 213.477 296.8818 199.1703 294.1993 194.5877 294.0876 193.6935 294.87 193.0229 295.5406 191.4581 297.6642 189.7815 298.8937 188.8873 298.3349 188.105 297.2172 187.7696 295.3171 188.3285 284.0282 188.552 280.4515 188.9991 277.4337 189.3344 276.2042 190.3404 275.31 192.6876 273.6334 197.2702 271.2862 201.6293 270.9509 210.571 272.0686 227.2249 268.8273 235.3842 268.3802 242.0904 272.1804 245.7789 273.1864 248.6849 272.1804 251.4792 270.7274 254.497 270.3921 257.7384 273.6334 258.9679 274.5276 260.868 275.1982 262.321 275.4218 272.8275 274.7512 276.6277 273.7452 279.6455 272.2922 282.1045 269.6097 283.2222 266.3683 284.8988 260.1091 288.1402 254.9677 301.5527 240.5492 308.5943 229.3721 310.7179 228.0308 313.1769 227.0249 315.6359 225.7954 317.9831 223.2246 319.5479 220.5421 320.3303 218.5303 321.3362 216.6301 323.6834 214.6183 326.4777 213.1652 342.1256 210.818 342.1256 213.1652 339.8902 217.6361 340.4491 223.2246 354.9793 233.8429 359.3384 239.655 360.7914 240.9963 363.5857 242.0022 365.4858 241.5551 367.3859 240.7727 370.1802 240.6609 374.651 242.5611 376.9982 246.2495 379.0101 250.6086 382.3633 254.5206 386.8341 256.1971 391.6403 255.9736 395.7758 256.3089 398.5701 259.4385 398.9054 259.5503Z" />
  <path class="Rio San Juan" d="M574.7215 862.8911L563.0972 856.1848 545.5492 850.1492 518.0535 839.978 507.9941 835.7307 489.6636 828.9127 481.2807 821.3122 530.3483 720.0475 534.0367 713.6766 534.5956 713.0059 535.4898 712.2235 538.6194 710.6587 542.7549 707.7527 544.5432 706.7468 545.8845 706.1879 546.8904 706.5232 547.3375 706.7468 548.3435 706.635 552.1437 705.182 553.3732 704.3996 554.0438 703.9525 554.7144 702.723 555.7204 701.4935 557.1734 699.9287 557.3969 699.5934 557.6205 699.1463 557.9558 698.6992 558.7382 697.6933 559.1853 697.1344 559.4088 696.2403 559.4088 696.0167 559.9677 694.6755 562.9855 689.8693 571.8154 687.9692 576.9569 684.6161 590.4812 672.0977 591.1518 671.0917 592.046 670.7564 593.1637 670.6447 608.2528 670.7564 612.3883 670.0858 613.2825 670.0858 615.0708 670.5329 615.8532 670.6447 618.9828 670.3094 619.6535 670.4211 620.4359 670.5329 621.4418 670.98 623.6772 671.4271 631.613 671.7624 635.7485 686.1809 638.7663 691.7694 640.4429 693.2224 641.7842 694.5637 642.2312 695.905 642.0077 698.4757 642.343 703.8407 644.4667 709.2057 646.5903 715.6884 646.4785 717.4768 646.1432 719.7122 644.1314 724.5184 641.2253 734.5778 640.5547 738.6015 640.5547 741.3958 642.0077 749.4433 642.7901 757.4909 656.4262 762.5206 662.3501 766.209 678.6686 776.3802 681.7982 779.6216 683.0277 782.4158 683.2513 784.9866 683.5866 787.6691 685.1514 790.9105 687.0515 792.8106 688.9516 794.1518 698.5639 799.1815 706.6114 804.9936 712.4235 810.8057 714.2119 813.1529 718.3474 820.0827 719.4651 821.3122 720.2475 821.8711 720.9182 821.8711 721.5888 821.9828 722.3712 822.3182 723.7124 823.1006 724.2713 823.3241 725.389 823.6594 726.9538 824.2183 727.5127 824.33 728.0715 824.33 730.0834 824.1065 731.4246 824.1065 731.9835 824.1065 733.3248 824.4418 736.6779 825.7831 739.2486 826.6772 745.7314 825.7831 747.0726 825.8948 747.7432 826.3419 747.5197 827.4596 747.5197 828.1303 747.6315 828.5773 747.855 829.0244 750.0904 831.3716 752.1023 833.0482 753.22 833.607 754.0024 833.7188 755.7908 832.8246 757.132 832.4893 757.5791 832.3776 758.4733 831.8187 758.9204 831.4834 759.9263 830.9245 760.7087 830.701 762.1617 830.3657 763.3912 830.5892 765.4031 831.3716 766.2972 831.4834 767.0796 831.4834 767.5267 831.1481 768.0856 831.0363 768.5327 830.8128 768.9798 830.4774 770.6563 829.8068 772.5564 829.5833 773.5624 829.3597 776.4684 827.9067 777.0273 828.1303 777.3626 828.4656 777.4744 829.1362 777.1391 832.9364 777.1391 833.607 777.3626 834.7248 777.5861 835.2836 778.2568 836.1778 778.9274 836.8484 779.2627 837.2955 779.4862 837.7426 779.4862 838.4132 779.598 839.7545 779.7098 840.5369 780.0451 841.431 780.9393 842.437 781.6099 842.884 782.2805 842.884 782.7276 842.6605 783.1747 842.437 783.6218 842.1017 785.0748 842.1017 787.422 842.3252 795.4695 843.89 797.0343 844.3371 797.4814 844.6724 798.152 845.343 801.9523 850.2609 804.8583 855.1789 810.2233 860.8792 813.6882 863.6735 815.3648 868.1443 818.9415 867.4737 818.1591 865.2383 819.7239 865.6854 821.4004 869.262 821.8475 869.4856 822.1828 870.7151 821.624 873.5094 823.6359 874.6271 823.7476 879.2097 825.6477 886.5866 825.0889 892.2869 817.8238 895.9754 804.4112 899.2167 803.2935 899.4403 789.7692 904.5817 785.5219 909.6114 784.7395 910.0585 779.1509 908.9408 777.8097 909.3879 774.9036 911.3998 773.0035 911.7351 770.9916 911.5116 769.6504 910.8409 757.3556 901.0051 756.3496 897.4284 754.1142 895.8636 751.3199 896.4224 748.9727 898.7696 745.396 897.9872 740.3663 901.2286 737.9074 898.7696 736.4543 898.7696 734.1072 900.558 731.76 899.6638 727.9597 895.9754 725.5008 896.4224 723.7124 896.0871 722.2594 895.8636 719.018 895.8636 716.7826 897.5402 715.6649 896.0871 711.1941 892.5105 710.747 891.7281 709.8528 890.8339 709.5175 889.7162 710.4117 888.0396 711.1941 887.4807 714.1001 886.0277 713.3177 880.998 709.741 877.9802 705.829 875.9683 704.0407 873.9564 701.9171 872.5034 692.3047 868.815 690.1811 866.8031 689.6222 865.3501 686.9397 861.8851 685.9338 860.3204 685.5985 857.7496 685.5985 855.626 685.1514 854.0612 683.1395 853.0552 681.4629 854.1729 670.3976 861.3263 668.4975 862.2205 666.262 861.9969 664.0266 861.1028 662.2383 860.0968 660.4499 858.532 655.7556 852.7199 654.9732 852.1611 653.9672 851.6022 652.8495 851.1551 651.7318 850.8198 641.5606 846.349 636.8662 844.7842 632.3954 845.0077 628.8187 844.5606 621.1065 838.8603 617.418 837.2955 611.0471 838.8603 595.8462 848.9197 574.7215 862.8911Z" />
  <path class="Rivas" d="M574.7215 862.8911L569.9153 864.6794 565.2209 864.1206 532.1366 851.8257 502.7408 840.8722 495.3639 838.1897 467.6447 827.9067 446.967 820.1945 440.3725 816.3943 434.5604 811.2528 428.6365 808.1232 421.8185 811.0293 416.1182 818.8532 412.3179 827.0125 407.4 835.0601 407.2882 835.0601 397.0053 830.8128 393.0933 830.1421 390.1872 828.5773 388.5107 824.8889 386.6106 817.2884 382.9221 811.6999 361.015 787.1102 359.2266 785.769 358.3325 785.3219 355.0911 783.0865 354.4205 782.1923 347.3789 780.1804 344.1375 777.2744 337.3195 768.8915 331.8427 765.9855 324.8011 758.6086 315.9712 753.4671 312.9534 750.7846 312.171 749.108 310.3826 743.5195 310.3826 743.4077 316.3065 732.5659 317.6477 729.9952 318.3184 729.2128 325.4717 724.4066 330.2779 725.6361 331.8427 725.4125 332.5133 724.7419 338.2136 721.8359 338.996 721.277 341.2315 717.5886 344.4728 710.6587 345.0317 710.0999 345.5905 709.7646 346.1494 709.6528 346.4847 709.7646 347.4906 709.9881 348.3848 710.547 349.1672 711.3294 351.1791 713.453 352.185 713.7883 361.2385 711.4411 367.9448 709.4293 444.0609 709.7646 530.3483 720.0475 481.2807 821.3122 489.6636 828.9127 507.9941 835.7307 518.0535 839.978 545.5492 850.1492 563.0972 856.1848 574.7215 862.8911Z" />
</svg>