<?xml version="1.0" encoding="utf-8"?>
<svg xmlns="http://www.w3.org/2000/svg" viewBox="0 0 1021 968" style="stroke-width:0.25px;stroke-linejoin:round;stroke:#444;fill:#ddd" fill-rule="evenodd">
  <path class="Al Ahmadi" d="M489.5518 693.7386L504.5292 684.6851 530.6836 666.4664 650.2788 649.3655 662.6854 645.1182 664.6972 636.9589 670.174 554.5835 701.0229 516.246 711.5294 526.7525 719.3534 540.0532 720.024 566.0959 804.0759 551.5657 837.719 549.2185 842.4134 548.5479 846.996 561.0662 854.3729 572.914 857.1672 585.3206 870.3562 668.7019 879.745 689.156 906.4583 729.1701 914.5058 736.8823 935.0717 743.8121 936.6365 752.9773 934.4011 765.0486 933.7305 777.2317 938.0895 789.303 952.7316 809.9806 955.8612 817.3575 961.4497 825.8521 973.9681 831.2172 996.0988 835.9116 990.8455 845.3003 988.6101 856.1421 989.169 867.2075 992.4103 877.6022 984.3628 871.9019 981.4568 869.3311 980.7861 874.1373 981.345 877.1551 983.6922 879.5023 988.7219 882.073 984.8099 887.3263 982.2392 888.7793 980.1155 887.8851 977.8801 885.8733 974.1916 885.8733 973.7446 898.6152 978.6625 901.633 986.0394 897.9446 992.4103 890.4559 993.8634 896.7151 996.0988 925.9991 997.9989 933.4878 1002.358 941.6471 1010.7408 952.8242 1016.8882 959.4187 1017 959.5305 922.1063 960.5364 826.989 961.5424 731.9835 962.5483 636.8662 963.5542 608.141 963.7778 603.782 947.6827 593.7226 937.1762 581.4277 928.5699 570.0271 917.9516 561.9795 904.2037 554.7144 886.2086 549.5729 867.6546 547.4493 834.7938 544.9903 819.3694 515.371 737.8882 489.5518 693.7386Z" />
  <path class="Al Asimah" d="M713.4295 489.5327L710.5234 483.3853 709.9646 481.3734 719.8004 478.0202 731.76 473.9965 735.0013 459.2427 742.9371 455.7778 753.22 459.1309 763.9501 451.1952 769.5386 442.1417 778.0332 438.1179 781.9452 441.6946 790.1045 453.207 774.7919 464.1606 781.2746 477.0143 737.0132 482.8264 713.4295 489.5327ZM966.4794 395.7567L974.8623 398.998 978.9978 402.5747 985.257 407.8279 989.3925 413.4165 993.6398 419.0051 999.2284 435.659 998.1107 441.9182 990.1749 439.1239 985.1452 438.0062 980.0037 434.653 965.2499 421.5758 955.0788 417.6638 940.8838 415.4284 929.5949 415.9872 930.042 400.004 930.042 399.8922 935.9659 390.6152 945.2429 389.3857 966.4794 395.7567Z" />
  <path class="Al Farwaniyah" d="M701.0229 516.246L703.2583 490.9857 713.4295 489.5327 737.0132 482.8264 781.2746 477.0143 790.3281 498.4744 798.3756 517.4755 804.0759 551.5657 720.024 566.0959 719.3534 540.0532 711.5294 526.7525 701.0229 516.246Z" />
  <path class="Al Jahrah" d="M489.5518 693.7386L483.0691 682.5615 482.9573 682.5615 482.7338 682.4497 482.622 682.4497 452.7791 678.5377 399.576 671.4961 346.3729 664.4546 293.0581 657.413 239.855 650.3714 180.0574 642.8827 120.3716 635.5058 60.6858 628.1289 1 620.752 16.4244 603.3157 96.8997 513.1164 130.3193 456.6719 164.633 418.8933 172.5688 406.9338 188.4403 365.1314 228.4543 298.851 238.8491 275.7144 240.1903 269.567 242.2022 250.9012 244.9965 242.0713 264.5564 205.4103 310.0473 89.0565 328.266 62.9021 356.3206 43.7892 442.4961 8.0224 473.2332 4.2222 611.3824 4.2222 642.0077 10.2579 757.8026 68.6024 761.6029 78.9971 767.1914 88.3859 772.4447 100.3454 774.7919 113.4227 774.6801 136.3358 776.3567 150.866 783.2865 171.2084 797.2579 200.716 813.6882 223.4055 827.7714 222.8466 837.0484 250.3424 849.3432 277.8381 871.921 310.3635 882.4275 334.6178 880.1921 347.1362 868.2326 348.8128 846.3254 339.3122 835.1483 332.3824 831.5716 326.7938 821.1769 325.229 808.0997 322.4348 798.3756 320.7582 767.1914 326.0114 751.4317 339.6475 737.9074 353.2836 705.0466 371.6141 682.4689 392.7388 670.6211 411.5164 659.3322 426.2702 635.0779 437.7826 632.8425 447.5067 627.8128 456.5602 639.6605 457.5661 659.5558 454.1012 674.3096 451.1952 686.1573 446.5008 698.6757 441.9182 706.0526 446.389 690.8517 456.6719 690.8517 464.0488 687.4986 472.5435 700.5758 481.4851 709.6293 481.4851 709.9646 481.3734 710.5234 483.3853 713.4295 489.5327 703.2583 490.9857 701.0229 516.246 670.174 554.5835 664.6972 636.9589 662.6854 645.1182 650.2788 649.3655 530.6836 666.4664 504.5292 684.6851 489.5518 693.7386ZM974.1916 243.8596L964.1322 262.6372 947.7019 283.5384 928.0301 301.5336 908.1349 311.4812 904.5582 311.0341 884.9982 308.9105 872.0328 293.1507 853.367 248.4422 831.1245 208.0928 827.9949 204.4044 825.0889 200.8277 814.3589 194.4568 810.3351 187.974 820.5063 180.7089 826.7655 177.4675 838.2779 169.3083 844.2018 167.7435 846.2136 164.1668 849.3432 142.9303 840.8486 139.4653 836.3778 138.7947 831.2363 139.0183 831.1245 139.0183 836.4895 129.853 844.09 130.5237 857.0554 139.0183 863.0911 140.0242 870.468 139.4653 874.7153 135.3298 871.5857 125.7175 881.3098 121.3584 889.2455 116.4405 891.2574 110.9637 882.651 105.0398 882.651 104.9281 876.5036 104.1457 869.462 107.387 864.3206 104.9281 861.9734 100.9043 860.7439 94.4216 860.185 87.8271 860.7439 83.5798 860.7439 83.468 851.2433 83.6915 850.0139 82.5738 848.002 80.8972 850.2374 76.4264 857.0554 71.2849 864.7677 68.0436 872.3681 67.5965 879.6332 69.9437 886.563 75.0851 969.8326 194.1215 977.8801 216.3639 974.1916 243.8596ZM827.7714 62.455L824.4183 65.6964 819.165 72.6262 816.8178 75.0851 802.2876 82.7974 798.2638 83.468 794.3518 81.1208 791.4458 76.9853 790.6634 73.0733 798.0403 67.9318 808.9938 53.178 814.9177 49.8249 835.8189 46.807 844.09 47.5894 842.4134 54.0722 827.7714 62.455Z" />
  <path class="Hawalli" d="M835.8189 489.1974L812.347 498.4744 790.3281 498.4744 781.2746 477.0143 774.7919 464.1606 790.1045 453.207 791.2222 454.7718 799.158 461.9252 804.6348 463.8253 819.5003 468.9668 839.2838 464.943 835.8189 489.1974Z" />
  <path class="Mubarak Al-Kabeer" d="M842.4134 548.5479L837.719 549.2185 804.0759 551.5657 798.3756 517.4755 790.3281 498.4744 812.347 498.4744 835.8189 489.1974 835.3718 492.1034 834.9248 503.3923 836.6013 521.4992 842.4134 548.5479Z" />
</svg>