<?xml version="1.0" encoding="utf-8"?>
<svg xmlns="http://www.w3.org/2000/svg" viewBox="0 0 424 1024" style="stroke-width:0.25px;stroke-linejoin:round;stroke:#444;fill:#ddd" fill-rule="evenodd">
  <path class="Charlotte" d="M333.7836 213.7945L324.6184 205.8587 326.2949 184.8458 331.2129 172.3274 340.1546 154.6675 356.4732 158.0207 359.7145 141.255 361.3911 117.0007 359.7145 95.9877 358.9321 78.4396 362.9559 54.9677 373.5741 53.2911 372.7917 36.5254 360.4969 31.4957 360.6087 5.0059 385.5337 9.0297 394.4754 12.4946 399.5051 21.101 407.2173 39.7668 419.5121 96.6583 418.9532 175.0099 405.0936 237.8253 389.8927 231.7897 371.1152 228.4365 356.4732 230.8955 340.1546 219.2713 333.7836 213.7945Z" />
  <path class="Grenadines" d="M332.3306 443.596L314.4472 460.9206 291.9812 499.3699 272.0859 513.3413 281.3629 513.3413 272.0859 522.8418 265.715 513.453 255.7673 507.6409 243.1372 505.0702 228.7187 505.4055 228.7187 495.905 247.2727 501.7171 275.5508 496.0167 275.5508 485.7338 267.3915 476.345 263.5913 469.7505 273.8743 459.6911 308.5233 437.2251 322.9418 425.2656 324.7301 430.1835 325.289 434.8779 327.0773 439.237 332.3306 443.596ZM24.401 991.0513L39.3783 1000.44 42.8432 1011.5054 35.2428 1016.6469 22.1656 1020 6.4058 1018.8823 1.4879 1012.0642 6.6294 1005.4697 7.9706 1000.1047 5.2881 995.4103 6.8529 992.0572 15.7946 988.4805 24.401 991.0513ZM176.298 830.4361L180.0982 835.2422 182.5572 846.8664 175.8509 855.8081 168.6976 863.0733 165.1209 874.2504 158.1911 881.7391 145.5609 882.4097 134.2721 878.0506 137.4017 874.1386 151.4848 871.009 158.0793 862.6262 155.7321 851.3373 156.4028 838.8189 167.5799 831.3303 176.298 830.4361ZM335.1249 658.8673L345.7431 639.4191 356.0261 641.5428 345.296 666.8031 340.2663 673.9564 336.2426 674.6271 335.1249 658.8673Z" />
  <path class="Saint Andrew" d="M277.6745 281.9749L236.0956 252.3556 252.0789 235.1428 277.3392 216.7006 300.1405 191.552 309.9763 187.4165 326.2949 184.8458 324.6184 205.8587 333.7836 213.7945 326.2949 229.3307 298.5757 260.2913 277.6745 281.9749Z" />
  <path class="Saint David" d="M360.6087 5.0059L360.4969 31.4957 372.7917 36.5254 373.5741 53.2911 362.9559 54.9677 358.9321 78.4396 359.7145 95.9877 361.3911 117.0007 359.7145 141.255 356.4732 158.0207 340.1546 154.6675 323.836 137.9019 306.735 152.991 290.0811 164.3916 262.5854 158.0207 239.784 150.8673 246.4903 137.343 243.249 132.5369 237.2133 119.9067 270.8564 114.4299 285.1631 85.593 293.7695 48.7085 309.8646 19.2009 325.9596 8.6944 340.8252 4.3353 354.2377 4 360.6087 5.0059Z" />
  <path class="Saint George" d="M277.6745 281.9749L298.5757 260.2913 326.2949 229.3307 333.7836 213.7945 340.1546 219.2713 356.4732 230.8955 371.1152 228.4365 389.8927 231.7897 405.0936 237.8253 401.964 251.7967 365.5266 303.9938 343.2842 321.3184 312.1 306.4528 277.6745 281.9749Z" />
  <path class="Saint Patrick" d="M326.2949 184.8458L309.9763 187.4165 300.1405 191.552 277.3392 216.7006 252.0789 235.1428 236.0956 252.3556 226.0362 214.8004 229.3893 171.3215 239.784 150.8673 262.5854 158.0207 290.0811 164.3916 306.735 152.991 323.836 137.9019 340.1546 154.6675 331.2129 172.3274 326.2949 184.8458Z" />
</svg>