<?xml version="1.0" encoding="utf-8"?>
<svg xmlns="http://www.w3.org/2000/svg" viewBox="0 0 1021 603" style="stroke-width:0.25px;stroke-linejoin:round;stroke:#444;fill:#ddd" fill-rule="evenodd">
  <path class="`Uvea" d="M1002.358 4.4122L1008.5054 15.4776 1014.6528 23.9722 1017 32.355 1012.0821 42.8615 1013.8704 44.7616 1014.6528 46.1029 1015.7705 49.6795 1007.723 51.0208 1006.1582 55.827 1009.0642 68.6806 1006.3817 74.7163 1000.3461 76.0575 993.5281 74.0457 988.8337 70.469 988.2748 62.645 982.9098 53.9268 980.5626 45.7675 988.8337 39.3966 985.1452 28.7783 988.2748 19.0542 994.9811 10.7832 1002.358 4.4122Z" />
  <path class="Alo" d="M30.1723 565.1682L28.4957 559.3561 24.919 552.8734 26.0367 545.1612 28.0486 535.7724 39.2257 547.7319 40.6788 550.9733 46.938 552.8734 69.5157 564.8329 69.5157 568.2978 43.2495 566.6212 38.8904 568.2978 32.6312 565.5035 30.1723 565.1682ZM101.5941 580.8162L104.053 582.8281 100.3646 585.8459 90.864 589.9814 83.8224 595.0111 80.5811 598.476 76.3338 598.5878 63.4801 592.8875 59.121 589.3108 60.0152 585.1752 63.3683 581.8221 79.9105 573.9981 85.1637 575.2276 90.864 578.1337 95.4466 578.9161 97.4585 578.8043 101.5941 580.8162Z" />
  <path class="Sigave" d="M30.1723 565.1682L20.1129 563.6034 15.3067 561.0327 6.1415 546.726 1 532.0839 4.6884 524.1482 22.3483 529.7367 28.0486 535.7724 26.0367 545.1612 24.919 552.8734 28.4957 559.3561 30.1723 565.1682Z" />
</svg>