<?xml version="1.0" encoding="utf-8"?>
<svg xmlns="http://www.w3.org/2000/svg" viewBox="0 0 947 1024" style="stroke-width:0.25px;stroke-linejoin:round;stroke:#444;fill:#ddd" fill-rule="evenodd">
  <path class="Estuaire" d="M280.2007 218.2653L279.3065 241.2902 276.8475 249.4495 274.9474 252.6909 272.6002 258.9501 272.0414 262.0796 272.1531 264.4268 274.7239 267.78 275.618 269.3448 276.2887 270.7978 277.6299 275.604 278.4123 277.057 279.7536 277.3923 282.1008 276.9452 366.7116 247.6612 368.1646 247.6612 368.8352 248.1083 370.4 254.591 370.8471 258.0559 370.5118 269.233 370.1765 271.3567 368.6117 275.8275 367.8293 279.6277 367.3822 280.7454 367.0469 281.4161 364.5879 283.3162 363.8055 284.2103 363.582 284.6574 363.3584 285.1045 361.5701 291.699 361.0112 293.0403 359.7817 294.9404 359.1111 295.7228 358.5523 296.7287 358.2169 297.5111 357.6581 299.4112 357.4345 299.9701 355.5344 303.3232 354.8638 304.888 351.5107 316.8475 350.9518 321.0948 350.7283 322.4361 350.393 323.1067 349.9459 323.8891 349.387 324.448 348.4928 325.1186 348.1575 326.0128 347.8222 327.5776 348.9399 333.0543 349.0517 334.8427 349.0517 335.7369 348.8282 336.631 347.934 338.5311 346.8163 339.9842 346.1457 340.543 345.8103 340.8783 344.8044 342.3314 343.7985 343.2255 340.7806 342.6667 340.11 342.6667 339.4394 342.7784 334.5215 345.1256 332.0625 345.5727 331.0565 345.5727 324.5738 346.4669 322.3384 346.3551 321.3325 346.8022 320.9971 347.2493 320.7736 348.8141 320.7736 351.1613 320.4383 352.279 319.8794 353.2849 319.3206 354.0673 316.4145 356.6381 316.0792 357.0851 315.5204 358.0911 315.4086 358.5382 315.2968 358.9853 315.4086 360.3265 315.4086 360.9971 315.8557 362.1149 317.3087 365.1327 317.3087 366.4739 316.6381 368.0387 312.1672 370.2741 310.826 371.2801 309.0376 373.4037 305.6845 376.7569 303.002 378.3217 301.1019 380.5571 301.1019 381.0042 301.7725 382.6807 302.3314 385.9221 302.5549 387.4869 302.4431 388.1575 301.7725 388.8282 301.1019 389.1635 299.7606 389.4988 298.6429 390.0576 298.1958 390.9518 298.084 391.7342 298.1958 392.6284 297.4134 393.4108 277.8535 408.7234 275.8416 409.9529 272.8238 411.1824 261.1996 418.1122 259.4112 419.7888 253.9344 426.495 250.3578 429.5129 230.686 441.8077 215.9322 447.9551 213.138 448.1787 212.2438 447.1727 211.9085 445.7197 211.5732 442.5901 211.0143 441.0253 209.8966 436.2191 209.226 434.6543 207.9965 433.3131 206.5435 432.4189 204.9787 431.8601 201.9608 431.6365 200.396 431.0777 198.7195 430.2953 197.1547 429.8482 195.4781 430.1835 193.9133 431.8601 192.5721 433.4249 190.5602 435.5485 187.7659 437.4486 182.7362 440.2429 180.0537 440.5782 178.1536 440.0194 174.9122 437.2251 173.3474 436.8898 170.5531 438.6781 166.5294 440.69 164.9646 440.9135 160.1584 441.1371 158.4818 441.5842 151.8873 444.0431 145.6282 447.2845 143.9516 447.7316 142.7221 448.4022 141.8279 449.8552 144.0634 470.6447 143.1692 474.6684 135.6805 465.5032 130.4273 461.9265 125.0623 459.3558 123.4975 459.0205 120.4796 458.7969 118.356 457.4557 116.0088 455.1085 107.626 443.8196 106.1729 440.69 102.4845 427.0539 100.3608 424.9303 100.2491 424.9303 100.2491 413.7531 101.4785 410.4 105.0552 403.1349 105.8376 399.8935 106.0612 398.1052 106.7318 394.6403 106.8436 392.6284 106.5083 391.1754 104.6081 387.0398 104.8317 384.9162 105.3905 383.0161 106.2847 381.3395 107.5142 379.7747 108.2966 378.2099 107.9613 376.8686 107.2906 375.5274 106.8436 374.2979 106.62 370.833 100.9197 340.0959 99.1314 334.8427 99.5784 333.3897 100.4726 329.1424 100.8079 328.2482 101.4785 327.6893 106.62 323.1067 108.4084 322.6596 109.9732 323.7773 111.4262 327.0187 112.0968 330.9307 111.7615 334.2838 110.1967 340.3195 110.532 342.2196 111.2026 343.8961 111.3144 345.2374 109.6378 345.7963 108.7437 346.4669 108.4084 348.1435 108.6319 350.0436 109.079 351.4966 110.532 350.1553 111.3144 348.7023 112.3204 347.4728 114.1087 347.0257 119.4737 347.0257 120.2561 347.5846 121.1503 349.7083 125.3976 353.8438 126.8506 356.9734 127.4095 363.1208 128.5272 364.015 129.7567 364.9091 130.8744 364.9091 131.4332 363.1208 130.5391 356.191 130.7626 353.2849 132.4392 350.3789 140.4867 352.6143 142.4986 353.732 143.3927 355.4086 144.734 361.1089 145.8517 362.6737 146.5223 361.556 151.105 356.9734 152.558 355.8557 155.0169 355.9674 156.47 356.9734 158.1465 360.3265 166.1941 358.9853 172.1179 365.0209 177.1476 372.8449 182.4009 376.9804 176.477 366.1386 174.1298 363.1208 173.6827 360.4383 176.8123 358.9853 181.0596 359.2088 183.6304 361.556 185.6422 360.3265 188.5483 356.4145 190.3366 354.6262 196.037 351.0495 198.0488 350.3789 200.7314 350.3789 205.4257 352.1672 208.1083 352.7261 210.4554 352.5025 217.0499 350.3789 217.0499 349.1494 208.8906 349.3729 205.6493 348.367 202.5197 345.7963 200.0607 347.4728 197.0429 348.9259 193.8015 349.9318 181.2832 350.7142 179.1595 351.4966 171.8944 348.9259 169.7707 347.5846 167.4235 345.3492 166.0823 344.6785 160.9408 344.7903 159.1525 344.0079 151.4403 338.1958 145.7399 334.8427 143.3927 332.4955 142.4986 329.2541 141.3809 329.2541 140.4867 331.1542 139.5925 331.7131 137.5806 331.3778 136.2394 331.8249 132.5509 333.3897 131.4332 333.6132 130.092 331.8249 129.1978 326.0128 127.4095 324.7833 125.174 322.4361 117.3501 304.5527 115.3382 301.5349 110.7556 296.5052 107.7377 294.9404 104.9435 295.1639 102.3727 295.0521 100.2491 292.5932 100.1373 290.1342 100.6961 281.1925 101.9256 279.2924 105.3905 278.8453 109.079 278.1747 110.8673 277.3923 114.2205 275.4922 115.897 274.8216 118.0207 274.598 119.4737 274.9333 120.815 275.4922 123.0504 275.8275 124.3916 275.4922 126.6271 273.9274 129.5331 272.8097 132.1039 271.2449 135.0099 269.9036 138.1395 270.2389 140.7102 272.9215 141.9397 276.6099 141.3809 279.963 138.5866 281.5278 131.545 279.963 128.1919 280.4101 125.9564 283.6515 129.6449 282.5338 134.451 282.8691 138.2513 284.881 139.1454 289.24 141.1573 288.5694 142.4986 287.4517 143.3927 285.7751 143.6163 283.6515 145.6282 286.334 145.8517 291.0284 145.0693 295.611 143.6163 298.07 145.1811 302.6526 146.5223 304.1056 149.2048 304.7762 148.5342 302.2055 148.5342 298.8524 149.3166 295.9463 150.7696 294.7168 151.8873 293.2638 153.4521 286.2222 154.7934 283.6515 152.558 280.4101 151.9991 277.1688 152.558 269.1212 150.8814 249.8966 145.1811 234.6957 144.734 230.7837 143.9516 228.213 142.6103 226.5364 141.7162 224.6363 142.4986 221.3949 144.5105 217.93 146.6341 216.2535 149.0931 215.8064 151.9991 215.8064 154.9052 215.024 156.47 213.0121 157.4759 210.7767 159.1525 209.2119 162.0585 208.653 171.5591 208.8766 174.1298 209.7707 176.2535 213.2356 177.7065 220.1655 179.1595 223.6304 180.5008 220.9479 181.1714 218.8242 185.9776 219.3831 188.4365 220.389 191.119 222.2891 195.3663 227.0953 198.0488 229.1072 200.9549 230.3366 203.7492 230.7837 206.3199 230.2249 208.3318 228.3248 208.8906 226.2011 208.8906 221.3949 209.7848 219.0477 212.9144 218.6007 217.6088 218.0418 235.3804 218.1536 280.2007 218.2653Z" />
  <path class="Haut-Ogooué" d="M657.5402 687.5925L657.8755 686.4748 660.1109 680.5509 661.2286 676.0801 663.5758 671.0504 663.464 669.5974 662.9052 666.4678 663.2405 664.7912 675.3118 639.978 678.1061 636.4013 679.0002 634.9483 679.5591 633.3835 680.9003 631.7069 681.9063 629.8068 682.5769 627.9067 683.024 623.2123 683.4711 621.6475 684.9241 619.4121 686.3771 617.8473 687.9419 616.7296 689.2832 615.5001 690.5127 613.7118 691.295 610.9175 693.0834 609.4645 697.7778 606.8937 699.119 606.782 699.9014 606.782 701.2427 607.0055 702.5839 606.8937 704.1487 606.4466 705.8253 605.4407 707.3901 604.0994 708.7314 602.5347 711.0785 599.4051 712.4198 598.0638 713.8728 597.1696 716.7789 596.0519 717.7848 594.9342 720.4673 590.1281 722.1439 588.675 723.8205 587.6691 725.3853 587.1102 726.7265 585.0983 727.2854 581.9688 727.3971 575.2625 726.8383 569.1151 725.2735 562.9677 725.1617 561.9617 726.6147 560.7322 738.4625 566.5443 741.2568 568.8915 742.4862 568.4444 743.4922 567.5503 769.7584 535.5837 789.989 505.7408 790.2125 503.0583 789.2066 499.1463 748.7454 419.677 747.1806 418.3358 745.6158 417.6651 743.9393 417.3298 742.4862 416.6592 741.145 415.5415 740.3626 413.5296 739.9155 411.7413 739.692 408.2763 738.1272 401.6818 737.3448 400.3406 736.3388 399.2229 735.6682 398.1052 736.7859 396.2051 740.6979 390.6165 744.8334 382.569 745.1688 374.2979 775.6823 375.5274 781.9415 375.0803 784.4004 375.3039 816.8141 382.3454 820.0554 383.6867 823.6321 385.8103 831.5679 391.6224 843.5274 395.758 843.6392 395.758 836.2623 405.5938 834.5857 409.6176 834.4739 414.2002 841.9626 423.1419 842.8568 423.8125 843.9745 423.589 846.0981 422.8066 846.7688 422.136 847.2158 420.9065 847.7747 419.9006 849.116 419.4535 854.9281 420.1241 856.4928 420.6829 857.7223 421.8007 858.9518 423.3655 864.8757 421.8007 871.3584 422.8066 877.2823 425.7127 881.5296 429.8482 884.2121 435.4367 886.224 441.9195 887.4535 448.6257 887.677 454.6614 890.4713 453.2084 893.1538 452.3142 895.9481 452.3142 898.8541 453.5437 901.5366 454.1025 903.9956 453.3201 906.5663 452.0906 909.2488 451.6436 913.8315 452.9848 919.9789 455.6673 925.4557 459.1322 929.0323 463.9384 935.5151 468.4092 937.527 470.5329 941.3272 478.3569 942.7802 483.163 941.6625 488.4163 935.068 502.723 934.1738 506.7468 934.1738 510.6587 935.2915 514.7943 935.9622 519.7122 934.1738 523.1771 931.2678 526.4185 928.8088 530.3305 927.9146 534.1307 927.1322 541.0605 925.4557 544.5254 925.3439 546.8726 930.0383 559.6145 931.7149 563.0794 932.2737 564.9795 932.1619 566.4326 931.2678 569.2268 931.2678 570.5681 932.3855 572.58 933.0561 573.2506 935.8504 575.9331 937.0799 578.0568 937.4152 579.5098 937.1916 584.5395 936.521 588.2279 935.9622 589.7927 935.068 591.4693 933.8385 592.8106 932.4972 593.8165 931.3795 595.046 930.9325 596.8343 931.9384 599.9639 934.2856 602.4229 939.9859 606.1113 940.8801 609.4645 939.7624 611.3646 937.7505 612.7058 935.8504 614.4942 935.2915 616.059 934.9562 619.971 932.9443 624.6653 935.068 626.789 936.8563 629.695 936.9681 632.154 931.6031 633.16 930.5971 634.5012 929.9265 636.4013 928.8088 638.0779 927.3558 639.1956 925.791 639.978 922.4378 641.0957 920.9848 642.437 922.1025 643.6664 925.2321 645.343 927.1322 651.9375 929.9265 652.8317 933.3914 653.3905 934.6209 654.5083 930.8207 656.7437 928.8088 658.9791 927.8029 662.444 927.244 675.4095 926.3498 679.545 926.2381 680.998 927.4675 688.0396 926.2381 690.275 921.9908 692.6222 921.6554 692.734 902.7661 700.1109 901.5366 701.3404 900.7542 702.4581 900.3072 703.9111 900.4189 705.8112 899.6365 707.376 899.6365 708.382 900.5307 709.1644 901.8719 710.1703 902.6543 711.5116 902.4308 713.1881 901.4249 716.3177 900.5307 724.9241 899.7483 727.2713 898.6306 728.2772 895.8363 729.2832 894.9421 730.0656 894.8304 731.6304 895.8363 734.5364 895.7245 735.7659 893.6009 738.1131 888.0123 740.125 885.7769 741.9133 886.3358 747.3901 898.6306 757.8966 899.8601 763.0381 899.1894 762.591 891.3655 764.3793 889.8007 765.1617 888.3476 766.0559 885.218 768.7384 883.8768 770.0796 883.0944 771.7562 883.2062 776.0035 882.0884 777.4565 880.5237 778.686 879.1824 780.1391 878.1765 783.0451 877.3941 785.1688 876.3881 786.2865 874.9351 786.51 873.3703 785.8394 870.7996 784.4981 869.2348 784.2746 868.2288 784.4981 860.7402 786.8453 859.5107 786.8453 858.393 785.8394 857.9459 782.9333 856.4928 781.8156 854.9281 781.8156 853.3633 782.4862 850.569 784.1628 847.1041 784.9452 843.1921 784.7217 839.3919 783.4922 836.8211 781.145 836.9329 780.3626 837.0447 774.1034 838.2741 772.6504 841.6273 770.9738 843.9745 766.0559 845.8746 764.8264 846.5452 763.8205 844.4216 760.8026 842.745 759.5732 840.9567 758.7908 839.7272 757.5613 839.1683 753.0904 838.0506 751.4139 835.1446 748.396 833.1327 745.49 829.4442 737.8895 827.9912 731.1833 826.5382 727.8301 824.6381 724.7006 822.4026 722.5769 820.6143 721.3474 820.1672 721.1239 819.7201 722.018 816.367 727.0477 814.6904 730.2891 814.2433 732.0774 814.0198 735.3188 813.3492 736.9954 812.1197 738.7837 799.7131 750.7432 798.7072 752.4198 798.1483 755.8847 797.4777 757.3377 795.8011 758.4554 792.0009 759.6849 789.989 760.6909 788.4242 762.1439 786.077 765.0499 784.7358 766.3912 779.3707 770.0796 777.8059 771.6444 776.9118 773.2092 776.4647 774.6623 775.6823 776.0035 774.0057 777.0095 773.2233 776.6741 771.7703 774.774 770.7644 774.4387 768.5289 775.1094 767.6348 775.1094 764.1699 774.5505 761.0403 775.3329 758.1342 774.9976 729.8561 764.4911 728.2913 764.1558 726.3912 764.3793 723.2616 766.1677 721.4733 766.6147 718.1201 765.7206 707.6136 761.0262 703.5899 760.2438 701.578 760.9144 698.5602 763.8205 696.7718 765.7206 694.5364 765.8323 694.0893 764.8264 694.8717 763.3734 696.7718 761.8086 697.4425 760.6909 698.1131 759.3496 698.5602 757.8966 698.6719 756.5553 699.0073 754.8788 699.9014 753.5375 701.3545 752.0845 700.9074 750.2961 700.125 750.0726 699.119 750.1844 698.0013 748.8431 697.5542 747.6136 696.7718 743.2546 695.207 741.3545 692.1892 736.3248 690.7362 734.9835 686.8242 736.9954 684.477 737.1072 683.8064 734.2011 683.6946 732.5245 683.024 731.4068 680.9003 729.2832 680.565 728.2772 680.7886 727.2713 681.571 726.0418 681.7945 725.2594 682.4651 724.1417 682.5769 723.2475 679.5591 722.4651 679.112 721.571 679.3355 720.565 679.3355 719.8944 679.5591 719.7826 679.0002 716.0942 678.2178 715.0882 675.7589 712.6293 674.7529 711.3998 673.2999 707.9349 669.7232 696.1989 667.8231 692.2869 665.1406 690.3868 658.3226 688.1514 657.5402 687.5925Z" />
  <path class="Moyen-Ogooué" d="M343.7985 343.2255L469.6528 343.5608 468.8704 348.7023 469.2057 351.0495 468.5351 353.1732 467.6409 354.9615 464.5113 357.5322 462.6112 358.7617 460.264 360.7736 458.4757 361.4442 455.6814 362.0031 432.8801 373.8508 430.5329 376.0862 426.3974 378.9923 425.0561 380.6689 423.7149 385.6986 420.9206 390.84 420.5853 392.4048 420.5853 393.8579 421.1441 395.1991 421.703 395.9815 422.5971 396.8757 423.9384 397.211 425.5032 397.4345 426.9562 397.8816 427.9622 398.9993 428.521 400.1171 429.8623 405.5938 430.5329 412.9707 429.974 417.5534 429.974 421.4653 430.3094 423.0301 430.7564 424.5949 431.6506 426.1597 440.0334 438.7899 440.9276 440.4664 441.3747 442.5901 441.4865 445.1608 441.3747 449.2964 441.71 451.7553 444.2807 460.1382 445.1749 461.9265 446.5162 463.4913 452.5518 468.521 454.0048 469.974 455.905 472.8801 458.3639 478.1333 460.9347 491.2106 461.4935 492.8871 466.4114 503.0583 452.2165 502.4994 446.9633 501.7171 437.4627 498.3639 428.0739 493.8931 403.149 474.6684 400.9135 474.2213 399.0134 474.2213 392.4189 475.6744 363.3584 477.3509 360.1171 478.2451 358.4405 479.0275 356.9875 480.0334 354.752 482.716 353.4108 483.4983 351.9578 483.0513 348.4928 480.7041 346.8163 480.7041 345.3633 481.5982 343.3514 484.3925 341.8983 485.5102 339.7747 486.0691 337.9864 485.7338 336.5333 484.6161 335.6392 483.0513 334.2979 481.4865 332.5096 480.8158 330.1624 480.4805 328.4858 480.7041 326.8092 481.3747 325.5798 482.3806 323.7914 483.163 319.9912 482.3806 319.097 483.0513 319.2088 484.3925 321.2207 487.4103 321.6678 488.9751 321.2207 490.3164 320.103 491.3223 318.6499 492.44 317.4205 493.8931 312.7261 500.8229 311.1613 502.4994 309.2612 504.176 301.1019 509.0939 299.5371 510.4352 298.5311 511.8882 297.0781 517.0297 296.5193 520.2711 296.4075 521.7241 296.8546 524.9655 296.4075 526.5303 289.9248 537.7074 289.1424 538.6015 287.8011 539.3839 281.8772 542.1782 281.0948 542.8488 280.8713 543.4077 280.7595 544.1901 281.4301 545.3078 282.3243 546.5373 282.6596 548.1021 282.4361 549.6669 281.5419 551.3435 279.4183 554.3613 277.9652 555.7025 277.0711 557.1556 276.7358 558.7204 276.7358 560.2851 276.2887 561.6264 275.3945 562.9677 273.7179 563.6383 272.9355 564.9795 272.6002 566.4326 272.0414 567.8856 270.8119 569.2268 269.0235 567.5503 267.1234 566.5443 257.6229 566.3208 253.7109 565.5384 251.1402 565.2031 247.1164 565.5384 244.6574 566.209 242.422 567.1032 237.6158 570.2328 223.6444 584.5395 220.9619 583.31 213.4733 582.0805 212.5791 581.7452 211.2378 581.1864 209.7848 580.2922 199.7254 571.127 198.2724 569.3386 198.1606 567.8856 198.4959 566.3208 202.7432 558.385 203.8609 555.1437 204.0845 553.3553 204.1963 551.6788 203.8609 550.0022 201.1784 543.743 201.0667 542.8488 201.0667 541.7311 202.2961 538.8251 202.4079 537.2603 201.7373 535.3602 200.396 533.2365 194.8075 528.6539 192.7956 527.5362 191.2308 527.2009 187.9894 527.4244 181.842 527.0891 180.5008 526.7538 179.6066 526.7538 175.2475 527.0891 173.571 526.9773 172.0062 526.4185 170.6649 525.3008 169.7707 523.5124 168.0942 521.8359 167.4235 521.5006 165.9705 520.2711 163.8469 519.0416 160.382 517.365 153.7875 508.5351 143.1692 474.6684 144.0634 470.6447 141.8279 449.8552 142.7221 448.4022 143.9516 447.7316 145.6282 447.2845 151.8873 444.0431 158.4818 441.5842 160.1584 441.1371 164.9646 440.9135 166.5294 440.69 170.5531 438.6781 173.3474 436.8898 174.9122 437.2251 178.1536 440.0194 180.0537 440.5782 182.7362 440.2429 187.7659 437.4486 190.5602 435.5485 192.5721 433.4249 193.9133 431.8601 195.4781 430.1835 197.1547 429.8482 198.7195 430.2953 200.396 431.0777 201.9608 431.6365 204.9787 431.8601 206.5435 432.4189 207.9965 433.3131 209.226 434.6543 209.8966 436.2191 211.0143 441.0253 211.5732 442.5901 211.9085 445.7197 212.2438 447.1727 213.138 448.1787 215.9322 447.9551 230.686 441.8077 250.3578 429.5129 253.9344 426.495 259.4112 419.7888 261.1996 418.1122 272.8238 411.1824 275.8416 409.9529 277.8535 408.7234 297.4134 393.4108 298.1958 392.6284 298.084 391.7342 298.1958 390.9518 298.6429 390.0576 299.7606 389.4988 301.1019 389.1635 301.7725 388.8282 302.4431 388.1575 302.5549 387.4869 302.3314 385.9221 301.7725 382.6807 301.1019 381.0042 301.1019 380.5571 303.002 378.3217 305.6845 376.7569 309.0376 373.4037 310.826 371.2801 312.1672 370.2741 316.6381 368.0387 317.3087 366.4739 317.3087 365.1327 315.8557 362.1149 315.4086 360.9971 315.4086 360.3265 315.2968 358.9853 315.4086 358.5382 315.5204 358.0911 316.0792 357.0851 316.4145 356.6381 319.3206 354.0673 319.8794 353.2849 320.4383 352.279 320.7736 351.1613 320.7736 348.8141 320.9971 347.2493 321.3325 346.8022 322.3384 346.3551 324.5738 346.4669 331.0565 345.5727 332.0625 345.5727 334.5215 345.1256 339.4394 342.7784 340.11 342.6667 340.7806 342.6667 343.7985 343.2255Z" />
  <path class="Ngounié" d="M610.3727 689.0455L608.3608 687.0337 606.5725 686.5866 606.0136 688.7102 607.3549 706.2583 608.6961 712.8528 612.0493 717.9943 618.4202 720.9003 617.7496 723.6946 614.7318 728.2772 613.6141 730.7362 613.2788 733.1952 614.5083 739.9014 613.3905 744.484 611.1551 750.0726 610.0374 755.3259 611.8257 758.9025 547.4455 772.7622 542.4158 772.2033 537.4979 768.8502 531.9094 761.9204 529.0033 759.7967 527.3267 758.7908 522.297 761.3615 515.3672 763.4851 509.5551 764.7146 505.9784 766.1677 500.5017 771.1974 497.7074 772.7622 495.0249 772.5386 492.1188 770.9738 486.642 766.7265 485.4125 765.2735 484.7419 763.9322 483.736 762.591 481.5006 761.4733 473.3413 759.0143 467.3056 758.7908 466.9703 758.9025 465.629 762.1439 469.2057 771.5327 469.7646 775.1094 468.5351 784.1628 468.6469 786.9571 469.8763 790.422 474.0119 797.0165 475.5767 800.5932 476.3591 804.7287 476.3591 808.0818 475.5767 811.5468 474.1237 815.5705 462.2759 834.9069 461.9406 836.1364 461.9406 836.0246 450.5399 821.3826 437.5745 807.9701 424.8326 797.6871 415.4438 787.0689 412.3142 784.2746 411.5318 782.8216 408.514 771.5327 407.7316 769.9679 406.3903 768.4031 392.9778 760.2438 391.6365 758.9025 390.7424 757.4495 390.2953 755.8847 389.96 754.2081 389.5129 752.6433 388.6187 750.9668 387.3892 749.5138 385.7127 748.1725 383.9243 747.2783 381.5771 746.6077 311.3848 755.6612 304.7903 745.2664 302.4431 742.5839 301.6607 742.1369 300.9901 741.578 300.4312 740.9074 296.0722 734.4246 295.0662 732.0774 292.0484 720.9003 291.7131 720.1179 291.1542 719.4473 288.1364 717.3237 286.7952 715.7589 285.901 713.9705 285.3421 711.7351 285.3421 709.835 285.5657 708.1584 287.5776 702.7934 287.9129 701.2286 287.354 699.552 285.6774 698.4343 282.4361 697.3166 279.0829 694.5223 272.2649 690.8339 270.7001 690.7221 269.1353 691.6163 267.6823 692.8458 266.1175 693.6282 264.4409 693.9635 262.6526 693.8517 251.2519 691.0574 248.0106 691.0574 246.334 690.275 244.5457 688.5985 242.8691 687.7043 239.1806 685.1336 234.0392 683.7923 228.7859 680.998 220.7384 678.3155 217.3853 677.8684 212.0202 677.7567 210.5672 677.5331 209.1142 676.8625 207.5494 675.7448 206.0964 674.2917 200.7314 667.6972 199.8372 666.1325 197.8253 661.1028 196.9311 659.4262 194.6957 656.4084 192.3485 653.9494 192.125 652.4964 193.6898 650.9316 195.031 649.8139 196.037 648.3608 196.037 646.796 196.484 645.0077 198.0488 643.1076 199.6136 642.1017 201.2902 641.6546 202.855 641.6546 204.308 641.3193 205.7611 640.6486 207.1023 638.525 208.5553 635.1718 209.5613 630.1421 209.7848 627.2361 209.5613 625.0007 207.7729 616.6178 207.5494 613.3765 207.5494 610.2469 208.1083 608.4585 209.1142 606.6702 220.5149 595.7166 222.7503 591.0222 223.6444 584.5395 237.6158 570.2328 242.422 567.1032 244.6574 566.209 247.1164 565.5384 251.1402 565.2031 253.7109 565.5384 257.6229 566.3208 267.1234 566.5443 269.0235 567.5503 270.8119 569.2268 272.0414 567.8856 272.6002 566.4326 272.9355 564.9795 273.7179 563.6383 275.3945 562.9677 276.2887 561.6264 276.7358 560.2851 276.7358 558.7204 277.0711 557.1556 277.9652 555.7025 279.4183 554.3613 281.5419 551.3435 282.4361 549.6669 282.6596 548.1021 282.3243 546.5373 281.4301 545.3078 280.7595 544.1901 280.8713 543.4077 281.0948 542.8488 281.8772 542.1782 287.8011 539.3839 289.1424 538.6015 289.9248 537.7074 296.4075 526.5303 296.8546 524.9655 296.4075 521.7241 296.5193 520.2711 297.0781 517.0297 298.5311 511.8882 299.5371 510.4352 301.1019 509.0939 309.2612 504.176 311.1613 502.4994 312.7261 500.8229 317.4205 493.8931 318.6499 492.44 320.103 491.3223 321.2207 490.3164 321.6678 488.9751 321.2207 487.4103 319.2088 484.3925 319.097 483.0513 319.9912 482.3806 323.7914 483.163 325.5798 482.3806 326.8092 481.3747 328.4858 480.7041 330.1624 480.4805 332.5096 480.8158 334.2979 481.4865 335.6392 483.0513 336.5333 484.6161 337.9864 485.7338 339.7747 486.0691 341.8983 485.5102 343.3514 484.3925 345.3633 481.5982 346.8163 480.7041 348.4928 480.7041 351.9578 483.0513 353.4108 483.4983 354.752 482.716 356.9875 480.0334 358.4405 479.0275 360.1171 478.2451 363.3584 477.3509 392.4189 475.6744 399.0134 474.2213 400.9135 474.2213 403.149 474.6684 428.0739 493.8931 437.4627 498.3639 446.9633 501.7171 452.2165 502.4994 466.4114 503.0583 463.2818 507.8645 458.9228 512.8942 457.6933 515.0178 456.9109 517.0297 455.905 526.3067 456.0167 527.8715 456.5756 530.6658 457.0227 534.5778 457.358 536.3661 458.0286 537.9309 458.9228 539.4957 462.0524 542.8488 462.3877 543.2959 462.9465 544.1901 463.9525 547.4315 464.3996 549.5551 464.6231 552.7965 464.3996 555.479 463.8407 558.4968 464.176 561.4029 465.4055 562.8559 466.9703 563.5265 470.0999 564.3089 471.7765 564.4207 473.453 563.8618 476.6944 562.5206 481.5006 561.4029 492.6777 554.3613 494.3542 553.6906 495.919 553.2436 497.4838 553.4671 497.9309 554.026 498.0427 554.8084 497.7074 556.1496 497.5956 558.8321 498.0427 562.297 499.4957 567.215 500.3899 569.0033 506.202 576.9391 508.7727 579.7333 516.7085 585.3219 522.5206 591.0222 523.8618 591.8046 530.121 594.5989 531.4623 595.4931 534.8154 598.7344 540.6275 605.8878 541.6334 607.5644 541.7452 608.5703 541.7452 611.6999 542.0805 613.4882 544.4277 621.2004 544.8748 627.2361 544.5395 631.0363 544.2042 632.4893 543.9806 632.8246 543.1982 634.1659 542.3041 635.3954 541.0746 636.5131 540.6275 637.1837 540.1804 637.8543 539.8451 638.7485 539.9569 640.3133 540.404 642.2134 541.9688 645.7901 543.5336 647.2431 545.2101 648.1373 546.8867 648.8079 548.3397 649.9256 559.0697 664.5677 561.1934 666.9149 571.2528 675.2977 572.9294 676.1919 592.8246 683.1217 594.5012 683.2334 605.9019 682.1157 607.4667 682.2275 609.0315 682.6746 610.1492 683.1217 610.9316 685.5806 610.3727 689.0455Z" />
  <path class="Nyanga" d="M461.9406 836.1364L460.3758 842.2838 461.1582 846.084 463.9525 845.637 470.547 841.0543 475.1296 839.6013 478.371 840.719 481.0535 843.6251 486.642 851.7844 499.0486 864.9734 501.3958 868.6618 501.3958 872.2385 497.3721 874.6975 493.6836 875.0328 491.4482 874.8092 489.6598 875.927 487.5362 879.9507 486.7538 882.745 486.642 894.0339 486.3067 894.9281 486.642 895.5987 487.9833 896.9399 489.3245 897.9459 498.4898 901.7461 501.9547 903.758 508.4374 909.2348 514.3613 912.029 522.0735 914.1527 528.3327 917.0587 530.0092 922.312 527.8856 925.7769 520.844 931.0301 518.6086 934.9421 509.4433 956.8493 508.9963 960.6495 510.5611 964.0026 513.9142 966.0145 517.7144 967.244 520.844 968.9206 521.9617 972.3855 520.7322 976.0739 517.8262 979.4271 514.3613 982.1096 511.4552 983.1155 511.1199 983.3391 508.1021 983.2273 498.7133 980.5448 495.4719 980.2095 486.642 981.3272 483.1771 980.0977 480.3828 977.1916 467.5292 956.2904 461.4935 951.7078 453.446 950.5901 448.8634 953.6079 445.8455 958.6376 442.2689 963.2202 436.1215 965.3439 429.4152 966.6851 424.1619 969.9265 419.3558 973.8385 413.7672 977.527 409.6317 981.1036 406.9492 986.2451 396.1074 1015.3056 393.6484 1020 390.407 1017.9881 386.495 1015.5292 378.5593 1007.1463 375.9886 996.6398 374.5355 993.8455 373.4178 990.8277 372.859 987.6981 372.6354 983.8979 369.1705 980.2095 363.8055 976.1857 343.9102 959.3083 317.7558 941.2013 316.4145 933.9362 316.6381 931.3655 317.5322 928.5712 318.0911 924.8827 317.5322 921.7531 315.9674 918.7353 313.6202 916.8352 310.0436 914.7116 305.3492 911.1349 302.5549 909.7936 301.996 906.664 295.8486 899.846 293.725 897.2752 290.7072 894.1457 286.2363 889.4513 269.1353 875.0328 248.4576 858.9377 240.1866 852.1197 219.1736 836.807 209.3377 828.536 206.6552 826.4123 212.6909 824.7358 212.9144 824.7358 260.976 810.7644 264.2174 810.7644 265.6704 810.0937 267.2352 807.6348 267.9058 805.7347 269.2471 798.9166 269.8059 797.1283 271.0354 795.4517 272.6002 793.6634 275.618 791.875 277.6299 791.0926 279.3065 790.6455 280.4242 789.8631 280.536 788.7454 280.2007 787.516 277.9652 783.9393 277.5182 782.3745 277.8535 780.5861 278.8594 778.686 280.9831 776.0035 282.6596 771.9798 288.1364 767.1736 311.3848 755.6612 381.5771 746.6077 383.9243 747.2783 385.7127 748.1725 387.3892 749.5138 388.6187 750.9668 389.5129 752.6433 389.96 754.2081 390.2953 755.8847 390.7424 757.4495 391.6365 758.9025 392.9778 760.2438 406.3903 768.4031 407.7316 769.9679 408.514 771.5327 411.5318 782.8216 412.3142 784.2746 415.4438 787.0689 424.8326 797.6871 437.5745 807.9701 450.5399 821.3826 461.9406 836.0246 461.9406 836.1364Z" />
  <path class="Ogooué-Ivindo" d="M469.6528 343.5608L453.2224 326.1245 452.3283 324.6715 452.5518 323.6656 453.8931 322.4361 570.5822 243.1903 571.6999 241.9608 572.3705 240.5078 573.2647 236.037 573.1529 235.4781 573.0411 235.1428 572.7058 234.5839 572.5941 233.9133 572.7058 233.1309 573.1529 231.3426 573.1529 230.4484 572.7058 224.5245 572.8176 221.1714 573.3765 218.6007 573.4882 218.4889 573.6 218.1536 578.2944 212.2297 579.5239 210.1061 581.3122 206.1941 581.6475 205.4117 581.9828 204.6293 582.4299 203.7351 585.0007 200.829 585.4477 200.2702 588.4656 194.2345 590.4774 192.1109 591.0363 191.3285 591.2598 190.7696 591.4834 188.646 591.5952 188.0871 591.8187 187.5283 592.2658 186.8576 594.0541 184.6222 594.3894 184.0634 594.613 183.5045 594.8365 181.9397 594.9483 180.4867 729.5208 182.4986 731.3091 182.7221 734.5505 182.1633 740.1391 182.6103 743.4922 181.9397 746.51 180.5985 749.5278 176.91 752.4339 176.5747 755.2282 175.7923 756.2341 172.8862 757.5754 171.6568 760.705 170.8744 764.2816 170.4273 766.7406 170.6508 772.4409 172.6627 777.3589 173.6686 782.2768 173.5569 787.7536 172.5509 789.8772 171.0979 793.5657 166.0682 799.3778 163.8328 801.5014 162.1562 803.7369 160.5914 806.9782 160.3679 808.543 160.3679 809.996 160.2561 813.0139 159.6972 814.0198 159.2502 816.0317 157.6854 817.0376 157.2383 817.9318 157.4618 819.8319 158.356 820.279 158.4678 822.0673 157.9089 822.6262 157.4618 824.5263 153.6616 826.0911 149.4143 826.2029 148.6319 828.5501 148.073 859.1754 150.9791 861.9696 151.538 864.8757 153.3263 867.3347 155.6735 869.7936 157.5736 873.2585 157.6854 879.0706 155.4499 881.9767 154.7793 885.218 155.0029 891.589 156.7912 893.042 157.7971 894.048 158.8031 895.2774 159.6972 897.2893 160.1443 897.5129 161.0385 897.7364 161.9327 899.1894 162.8268 900.9778 163.6092 902.7661 164.9505 903.6603 166.7388 906.1193 176.91 906.5663 181.1573 906.3428 193.3404 907.684 197.4759 910.2548 200.829 917.967 204.5175 920.2024 207.7589 922.7732 216.0299 924.5615 219.8301 926.7969 223.4068 929.5912 226.6482 932.609 229.4425 936.521 231.3426 937.7505 232.6838 937.4152 234.9193 935.9622 236.3723 934.062 237.49 932.8326 238.8312 933.3914 240.8431 934.3974 248.4436 928.9206 255.1498 921.4319 261.5208 916.7375 268.2271 916.1787 276.6099 915.1727 280.0748 903.1014 290.4695 902.5426 291.3637 901.6484 292.0343 899.413 292.8167 891.2537 293.2638 882.2002 292.2579 874.1527 293.3756 869.2348 300.1936 871.0231 303.5468 872.029 306.8999 871.3584 310.253 868.3406 313.7179 856.3811 320.3124 852.9162 324.0009 847.2158 336.8546 841.6273 345.1256 840.9567 348.9259 841.7391 353.0614 843.3039 358.0911 844.0862 362.0031 844.7569 373.7391 845.7628 374.8568 847.6629 374.9685 849.6748 375.3039 850.9043 377.3157 850.6807 378.9923 848.3336 381.8983 847.6629 383.5749 847.9982 385.9221 848.8924 387.7105 849.0042 389.387 847.3276 391.5107 845.651 393.0755 843.6392 395.758 843.5274 395.758 831.5679 391.6224 823.6321 385.8103 820.0554 383.6867 816.8141 382.3454 784.4004 375.3039 781.9415 375.0803 775.6823 375.5274 745.1688 374.2979 741.9274 374.2979 740.5861 373.9626 738.9096 373.1802 737.3448 372.286 735.5564 371.6154 731.1974 371.7272 729.2972 371.3919 727.3971 370.6095 725.8323 369.6035 719.6849 366.5857 718.5672 365.3562 717.7848 363.9032 714.767 354.0673 714.4317 350.826 713.7611 349.4847 711.0785 347.5846 708.8431 345.3492 707.5019 344.7903 702.6957 345.4609 701.2427 345.4609 699.9014 345.2374 699.0073 344.9021 697.5542 344.2315 694.5364 342.4431 691.8539 340.4312 690.6244 339.9842 685.93 344.2315 684.0299 345.3492 681.6827 345.6845 679.8944 345.4609 674.8647 344.0079 670.8409 343.3373 667.9349 343.5608 666.0348 343.002 664.5817 341.8843 663.6876 340.4312 662.4581 338.8664 661.1168 337.8605 659.7756 336.4075 658.099 335.5133 655.9754 335.178 645.3571 340.3195 643.7923 340.6548 642.2275 340.4312 640.6627 339.4253 639.2097 338.1958 638.092 336.8546 636.9743 335.9604 636.0801 336.5193 611.6022 446.1668 586.1184 459.0205 466.4114 503.0583 461.4935 492.8871 460.9347 491.2106 458.3639 478.1333 455.905 472.8801 454.0048 469.974 452.5518 468.521 446.5162 463.4913 445.1749 461.9265 444.2807 460.1382 441.71 451.7553 441.3747 449.2964 441.4865 445.1608 441.3747 442.5901 440.9276 440.4664 440.0334 438.7899 431.6506 426.1597 430.7564 424.5949 430.3094 423.0301 429.974 421.4653 429.974 417.5534 430.5329 412.9707 429.8623 405.5938 428.521 400.1171 427.9622 398.9993 426.9562 397.8816 425.5032 397.4345 423.9384 397.211 422.5971 396.8757 421.703 395.9815 421.1441 395.1991 420.5853 393.8579 420.5853 392.4048 420.9206 390.84 423.7149 385.6986 425.0561 380.6689 426.3974 378.9923 430.5329 376.0862 432.8801 373.8508 455.6814 362.0031 458.4757 361.4442 460.264 360.7736 462.6112 358.7617 464.5113 357.5322 467.6409 354.9615 468.5351 353.1732 469.2057 351.0495 468.8704 348.7023 469.6528 343.5608Z" />
  <path class="Ogooué-Lolo" d="M657.5402 687.5925L646.8101 679.8803 639.8803 676.9743 631.9446 677.1978 630.1562 677.8684 622.2205 683.2334 621.2145 684.1276 620.4321 685.1336 619.4262 687.2572 619.2026 688.5985 619.0909 690.3868 618.4202 692.0634 616.2966 693.1811 613.3905 692.2869 610.3727 689.0455 610.9316 685.5806 610.1492 683.1217 609.0315 682.6746 607.4667 682.2275 605.9019 682.1157 594.5012 683.2334 592.8246 683.1217 572.9294 676.1919 571.2528 675.2977 561.1934 666.9149 559.0697 664.5677 548.3397 649.9256 546.8867 648.8079 545.2101 648.1373 543.5336 647.2431 541.9688 645.7901 540.404 642.2134 539.9569 640.3133 539.8451 638.7485 540.1804 637.8543 540.6275 637.1837 541.0746 636.5131 542.3041 635.3954 543.1982 634.1659 543.9806 632.8246 544.2042 632.4893 544.5395 631.0363 544.8748 627.2361 544.4277 621.2004 542.0805 613.4882 541.7452 611.6999 541.7452 608.5703 541.6334 607.5644 540.6275 605.8878 534.8154 598.7344 531.4623 595.4931 530.121 594.5989 523.8618 591.8046 522.5206 591.0222 516.7085 585.3219 508.7727 579.7333 506.202 576.9391 500.3899 569.0033 499.4957 567.215 498.0427 562.297 497.5956 558.8321 497.7074 556.1496 498.0427 554.8084 497.9309 554.026 497.4838 553.4671 495.919 553.2436 494.3542 553.6906 492.6777 554.3613 481.5006 561.4029 476.6944 562.5206 473.453 563.8618 471.7765 564.4207 470.0999 564.3089 466.9703 563.5265 465.4055 562.8559 464.176 561.4029 463.8407 558.4968 464.3996 555.479 464.6231 552.7965 464.3996 549.5551 463.9525 547.4315 462.9465 544.1901 462.3877 543.2959 462.0524 542.8488 458.9228 539.4957 458.0286 537.9309 457.358 536.3661 457.0227 534.5778 456.5756 530.6658 456.0167 527.8715 455.905 526.3067 456.9109 517.0297 457.6933 515.0178 458.9228 512.8942 463.2818 507.8645 466.4114 503.0583 586.1184 459.0205 611.6022 446.1668 636.0801 336.5193 636.9743 335.9604 638.092 336.8546 639.2097 338.1958 640.6627 339.4253 642.2275 340.4312 643.7923 340.6548 645.3571 340.3195 655.9754 335.178 658.099 335.5133 659.7756 336.4075 661.1168 337.8605 662.4581 338.8664 663.6876 340.4312 664.5817 341.8843 666.0348 343.002 667.9349 343.5608 670.8409 343.3373 674.8647 344.0079 679.8944 345.4609 681.6827 345.6845 684.0299 345.3492 685.93 344.2315 690.6244 339.9842 691.8539 340.4312 694.5364 342.4431 697.5542 344.2315 699.0073 344.9021 699.9014 345.2374 701.2427 345.4609 702.6957 345.4609 707.5019 344.7903 708.8431 345.3492 711.0785 347.5846 713.7611 349.4847 714.4317 350.826 714.767 354.0673 717.7848 363.9032 718.5672 365.3562 719.6849 366.5857 725.8323 369.6035 727.3971 370.6095 729.2972 371.3919 731.1974 371.7272 735.5564 371.6154 737.3448 372.286 738.9096 373.1802 740.5861 373.9626 741.9274 374.2979 745.1688 374.2979 744.8334 382.569 740.6979 390.6165 736.7859 396.2051 735.6682 398.1052 736.3388 399.2229 737.3448 400.3406 738.1272 401.6818 739.692 408.2763 739.9155 411.7413 740.3626 413.5296 741.145 415.5415 742.4862 416.6592 743.9393 417.3298 745.6158 417.6651 747.1806 418.3358 748.7454 419.677 789.2066 499.1463 790.2125 503.0583 789.989 505.7408 769.7584 535.5837 743.4922 567.5503 742.4862 568.4444 741.2568 568.8915 738.4625 566.5443 726.6147 560.7322 725.1617 561.9617 725.2735 562.9677 726.8383 569.1151 727.3971 575.2625 727.2854 581.9688 726.7265 585.0983 725.3853 587.1102 723.8205 587.6691 722.1439 588.675 720.4673 590.1281 717.7848 594.9342 716.7789 596.0519 713.8728 597.1696 712.4198 598.0638 711.0785 599.4051 708.7314 602.5347 707.3901 604.0994 705.8253 605.4407 704.1487 606.4466 702.5839 606.8937 701.2427 607.0055 699.9014 606.782 699.119 606.782 697.7778 606.8937 693.0834 609.4645 691.295 610.9175 690.5127 613.7118 689.2832 615.5001 687.9419 616.7296 686.3771 617.8473 684.9241 619.4121 683.4711 621.6475 683.024 623.2123 682.5769 627.9067 681.9063 629.8068 680.9003 631.7069 679.5591 633.3835 679.0002 634.9483 678.1061 636.4013 675.3118 639.978 663.2405 664.7912 662.9052 666.4678 663.464 669.5974 663.5758 671.0504 661.2286 676.0801 660.1109 680.5509 657.8755 686.4748 657.5402 687.5925Z" />
  <path class="Ogooué-Maritime" d="M223.6444 584.5395L222.7503 591.0222 220.5149 595.7166 209.1142 606.6702 208.1083 608.4585 207.5494 610.2469 207.5494 613.3765 207.7729 616.6178 209.5613 625.0007 209.7848 627.2361 209.5613 630.1421 208.5553 635.1718 207.1023 638.525 205.7611 640.6486 204.308 641.3193 202.855 641.6546 201.2902 641.6546 199.6136 642.1017 198.0488 643.1076 196.484 645.0077 196.037 646.796 196.037 648.3608 195.031 649.8139 193.6898 650.9316 192.125 652.4964 192.3485 653.9494 194.6957 656.4084 196.9311 659.4262 197.8253 661.1028 199.8372 666.1325 200.7314 667.6972 206.0964 674.2917 207.5494 675.7448 209.1142 676.8625 210.5672 677.5331 212.0202 677.7567 217.3853 677.8684 220.7384 678.3155 228.7859 680.998 234.0392 683.7923 239.1806 685.1336 242.8691 687.7043 244.5457 688.5985 246.334 690.275 248.0106 691.0574 251.2519 691.0574 262.6526 693.8517 264.4409 693.9635 266.1175 693.6282 267.6823 692.8458 269.1353 691.6163 270.7001 690.7221 272.2649 690.8339 279.0829 694.5223 282.4361 697.3166 285.6774 698.4343 287.354 699.552 287.9129 701.2286 287.5776 702.7934 285.5657 708.1584 285.3421 709.835 285.3421 711.7351 285.901 713.9705 286.7952 715.7589 288.1364 717.3237 291.1542 719.4473 291.7131 720.1179 292.0484 720.9003 295.0662 732.0774 296.0722 734.4246 300.4312 740.9074 300.9901 741.578 301.6607 742.1369 302.4431 742.5839 304.7903 745.2664 311.3848 755.6612 288.1364 767.1736 282.6596 771.9798 280.9831 776.0035 278.8594 778.686 277.8535 780.5861 277.5182 782.3745 277.9652 783.9393 280.2007 787.516 280.536 788.7454 280.4242 789.8631 279.3065 790.6455 277.6299 791.0926 275.618 791.875 272.6002 793.6634 271.0354 795.4517 269.8059 797.1283 269.2471 798.9166 267.9058 805.7347 267.2352 807.6348 265.6704 810.0937 264.2174 810.7644 260.976 810.7644 212.9144 824.7358 212.6909 824.7358 206.6552 826.4123 197.0429 819.1472 168.3177 783.4922 164.741 777.3448 167.7589 779.5802 172.3415 784.4981 175.8064 786.2865 179.6066 786.7336 181.842 785.2805 183.8539 782.7098 186.8717 779.5802 186.5364 781.8156 185.754 783.604 185.3069 785.3923 185.8658 787.4042 186.6482 787.0689 187.3188 786.6218 187.7659 785.9512 188.1012 785.1688 188.1012 788.1866 188.5483 791.2044 189.8895 792.881 192.4603 791.875 198.2724 793.8869 199.1666 794.6693 199.5019 794.6693 201.9608 798.3578 202.5197 801.9344 203.6374 801.9344 203.9727 800.3696 204.5316 799.5872 205.4257 799.699 206.9905 800.705 207.2141 800.1461 207.2141 799.8108 207.3259 799.699 208.1083 799.5872 208.5553 805.5111 209.226 807.4112 210.3437 806.1817 211.5732 805.5111 213.0262 805.1758 214.7028 805.2876 214.1439 807.523 214.8145 808.0818 216.2675 807.4112 218.0559 806.2935 219.2854 804.9523 220.5149 801.9344 221.409 800.705 223.7562 799.8108 227.3329 799.3637 230.686 799.2519 232.5861 799.5872 236.8334 799.1402 238.2865 798.3578 239.1806 796.3459 236.051 794.5575 234.8216 794.1105 235.1569 790.9809 232.0273 789.4161 228.0035 787.8513 225.8799 785.1688 224.7622 785.1688 225.8799 788.0748 228.1153 796.3459 225.7681 796.0106 224.5386 794.7811 223.7562 793.5516 223.0856 792.9927 221.7443 792.2103 219.956 789.1925 218.6147 788.5219 217.3853 788.2983 215.3734 787.6277 214.2557 787.4042 213.585 787.8513 213.6968 788.7454 213.9204 789.8631 213.6968 790.6455 212.5791 791.875 211.5732 793.4398 210.7908 795.0046 210.3437 796.3459 207.9965 795.3399 205.9846 794.1105 206.5435 792.4339 205.6493 789.0807 205.9846 787.4042 207.4376 786.6218 209.3377 786.7336 210.9025 786.51 211.4614 785.1688 209.5613 783.604 205.4257 782.2627 200.9549 781.4803 198.0488 781.7039 194.4722 774.2152 194.1369 772.9857 192.4603 771.868 191.6779 771.868 191.3426 773.5446 190.7837 773.6563 188.4365 774.8858 188.1012 775.1094 183.9657 774.2152 180.1655 777.1212 176.477 780.6979 172.6768 781.7039 171.112 780.9215 169.5472 779.3567 168.5413 777.5683 168.0942 775.6682 168.4295 775.1094 170.3296 773.321 170.8884 772.9857 171.7826 772.5386 170.5531 771.5327 168.7648 770.6385 168.0942 770.6385 167.8706 769.2972 168.0942 768.0678 168.0942 766.9501 167.0882 766.2794 165.747 766.0559 164.6293 766.1677 163.9586 766.7265 163.6233 767.8442 165.6352 771.6444 166.1941 774.1034 164.741 776.1153 162.1703 774.9976 155.3523 766.8383 152.558 765.0499 154.1228 767.3971 157.6994 771.7562 159.1525 773.9916 155.464 771.5327 151.2167 767.3971 147.5283 762.591 145.8517 758.3437 145.8517 757.4495 144.6222 753.7611 143.6163 739.0073 142.3868 736.6601 126.2917 720.7886 121.9327 718.3296 117.0147 712.5175 114.7793 710.6174 115.2264 709.9468 115.897 708.382 112.3204 707.4878 110.3085 704.5817 108.073 698.4343 101.255 691.7281 100.2491 690.0515 99.4667 689.8279 97.9019 688.3749 96.5606 686.9219 96.3371 686.1395 94.6605 685.3571 94.9958 683.7923 96.2253 682.7864 96.8959 683.3452 98.1254 686.363 101.1432 688.5985 104.7199 689.8279 108.073 689.4926 107.7377 690.0515 107.5142 690.275 107.2906 690.275 106.8436 690.7221 108.9672 691.5045 110.1967 690.7221 111.4262 687.2572 112.4321 687.2572 113.6616 690.7221 112.6557 690.9457 111.985 691.5045 111.538 692.1751 111.4262 693.2928 111.985 694.2988 113.1028 693.6282 113.8851 692.3987 113.6616 691.7281 121.9327 691.7281 126.4035 692.8458 128.7507 695.5283 128.3036 698.7696 124.727 701.7875 126.6271 703.9111 127.633 704.6935 128.6389 705.0288 132.1039 705.3641 132.998 705.5877 133.4451 706.5936 133.4451 709.3879 133.6686 710.6174 137.0218 712.8528 137.1336 713.6352 137.916 715.5353 138.8101 716.8766 139.1454 715.6471 139.7043 714.8647 141.9397 713.9705 142.4986 713.4117 142.0515 710.5056 141.0455 707.2642 139.5925 705.0288 138.1395 705.0288 136.3512 703.0169 132.3274 700.2227 131.4332 698.4343 133.3333 695.5283 134.8981 694.5223 134.6746 693.4046 129.3096 684.3512 126.2917 681.2216 124.727 682.7864 122.1562 681.3333 121.3738 680.5509 120.815 682.1157 120.815 683.6805 121.3738 687.2572 118.356 684.7982 114.2205 677.1978 111.4262 676.0801 110.1967 677.086 109.4143 678.9861 108.9672 680.8862 108.5201 681.6686 107.0671 682.2275 106.1729 683.5688 105.8376 685.2453 105.8376 687.2572 104.7199 686.0277 103.4904 685.2453 102.0374 684.91 100.2491 684.91 102.0374 681.6686 101.7021 679.8803 98.0136 677.1978 94.437 679.4332 92.0898 678.6508 90.6367 675.4095 90.3014 670.6033 90.4132 668.7032 91.0838 665.9089 91.1956 664.5677 91.1956 657.8614 90.9721 656.073 89.519 652.3846 89.0719 650.5963 89.1837 645.5666 89.0719 643.89 86.2777 637.1837 82.5892 632.0422 73.6475 622.7652 53.3052 594.3754 51.7404 591.5811 50.1756 587.5573 48.7226 583.9806 47.9402 580.5157 50.1756 584.8748 51.7404 589.681 53.7523 592.587 56.8818 596.0519 59.4526 595.8284 61.9116 596.9461 63.9234 598.8462 65.6 603.9877 69.4002 607.8997 70.2944 611.141 71.3003 612.7058 76.4418 619.0768 78.6772 620.418 79.5714 621.5358 87.3954 627.7949 88.7366 628.5773 93.5428 629.9186 95.1076 650.1492 96.1135 652.6081 98.0136 651.714 98.4607 650.1492 97.0077 647.9138 97.4548 646.6843 98.9078 646.0136 100.1373 646.6843 101.0315 648.0255 101.3668 649.4785 103.714 646.6843 107.5142 644.4488 111.8733 643.1076 115.897 642.7723 114.8911 645.343 114.6675 648.0255 115.6735 650.3727 118.0207 651.714 119.1384 646.2372 119.1384 643.5547 118.0207 641.6546 123.1622 640.9839 136.5747 642.7723 141.3809 641.6546 134.6746 639.0838 132.1039 637.1837 130.2037 633.9424 128.7507 627.9067 128.5272 624.33 129.1978 621.6475 127.8565 621.2004 124.727 619.4121 123.9446 619.3003 121.9327 619.4121 120.815 619.8592 120.7032 620.8651 121.3738 623.3241 121.1503 625.0007 120.5914 625.7831 119.9208 626.3419 115.897 631.8187 112.0968 634.3894 107.7377 635.7307 102.4845 636.1778 101.3668 636.4013 100.3608 636.7366 99.2431 636.7366 98.0136 636.1778 97.1195 634.9483 96.8959 632.3776 95.7782 629.9186 95.6664 628.4656 95.7782 625.5595 95.1076 624.6653 93.6546 624.33 92.0898 624.1065 91.1956 623.8829 90.9721 621.3122 92.2015 619.6356 94.6605 618.6297 97.4548 618.2944 98.796 617.4002 99.1314 615.1648 98.4607 612.8176 96.8959 611.5881 96.8959 610.5822 98.349 610.1351 102.2609 609.7998 103.4904 609.3527 104.8317 607.7879 105.6141 604.6583 108.1848 599.9639 107.626 597.1696 104.6081 591.5811 105.5023 590.5751 105.7259 589.7927 105.0552 589.1221 103.4904 588.2279 103.4904 591.4693 104.6081 599.9639 104.1611 601.6405 103.0433 603.3171 101.3668 604.4348 99.6902 604.8818 98.2372 604.4348 96.8959 602.1993 95.7782 601.6405 93.0957 602.5347 91.5309 604.7701 90.1897 607.229 88.5131 608.235 80.8009 609.688 78.1184 609.3527 76.2183 607.229 75.7712 603.7641 75.9947 600.6345 76.4418 599.2933 76.1065 599.0697 74.9888 598.0638 74.4299 597.0579 73.6475 597.2814 72.6416 597.952 71.0768 598.6227 70.7415 599.1815 70.0708 599.6286 68.059 599.2933 65.6 597.952 59.8997 593.7047 57.4407 592.6988 55.5406 591.5811 54.0876 588.8986 53.6405 585.6572 54.7582 582.6394 54.3111 582.0805 53.9758 581.6334 53.6405 580.5157 56.7701 578.2803 55.9877 574.4801 53.1934 570.6799 50.1756 568.2209 52.1875 573.1388 51.2933 577.4979 50.7344 579.0627 49.7285 578.8392 49.1696 577.1626 47.9402 567.215 45.2576 560.0616 29.1626 539.3839 33.2981 543.2959 35.6453 544.5254 38.1043 543.6312 35.7571 542.7371 36.763 540.5017 38.1043 538.6015 39.3338 537.4838 40.2279 537.1485 38.3278 536.3661 33.5217 539.4957 30.7274 538.8251 29.7215 536.2543 28.6037 532.2306 27.3743 529.4363 25.8095 530.554 24.58 530.554 23.2387 524.7419 22.3446 522.73 19.8856 518.5945 15.6383 508.8704 12.1734 502.9465 10.0497 494.4519 5.02 487.9692 1.2198 476.0097 3.4552 472.6565 4.6847 473.7743 3.2317 476.9039 5.02 478.3569 10.1615 479.3628 9.4909 480.8158 9.3791 481.8218 9.6026 482.6042 10.1615 483.7219 13.7382 483.6101 16.0854 487.5221 17.5384 493.1107 18.209 499.9287 19.1032 502.2759 20.668 504.176 23.0152 504.9584 24.2447 506.0761 24.58 508.4233 25.3624 510.6587 28.0449 511.4411 26.5919 508.6469 26.7036 505.9644 27.486 503.0583 28.0449 499.9287 28.9391 497.5815 31.0627 497.358 33.9688 498.0286 36.763 498.1404 36.763 497.0227 35.1982 496.352 33.5217 495.0108 32.404 493.3342 32.404 491.4341 33.6334 490.3164 35.1982 490.5399 39.1102 492.3283 40.675 494.6755 41.9045 497.358 42.4634 499.9287 43.6928 503.0583 49.505 508.5351 51.4051 511.4411 51.4051 514.7943 50.2873 520.4946 51.4051 522.73 52.5228 522.73 53.1934 519.7122 53.6405 509.8763 54.5347 506.7468 58.3349 502.6112 59.229 499.9287 59.1173 497.6933 58.782 496.6873 59.1173 496.1285 60.235 494.899 61.2409 494.2284 63.9234 493.3342 64.8176 492.7754 65.1529 491.0988 64.9294 489.3105 65.0411 487.8574 66.9413 487.075 69.1767 491.4341 68.8414 487.6339 66.9413 485.0631 65.6 482.3806 66.9413 478.1333 76.5536 469.527 79.4596 463.7149 93.9899 447.7316 98.0136 441.4724 100.3608 434.7661 100.2491 424.9303 100.3608 424.9303 102.4845 427.0539 106.1729 440.69 107.626 443.8196 116.0088 455.1085 118.356 457.4557 120.4796 458.7969 123.4975 459.0205 125.0623 459.3558 130.4273 461.9265 135.6805 465.5032 143.1692 474.6684 153.7875 508.5351 160.382 517.365 163.8469 519.0416 165.9705 520.2711 167.4235 521.5006 168.0942 521.8359 169.7707 523.5124 170.6649 525.3008 172.0062 526.4185 173.571 526.9773 175.2475 527.0891 179.6066 526.7538 180.5008 526.7538 181.842 527.0891 187.9894 527.4244 191.2308 527.2009 192.7956 527.5362 194.8075 528.6539 200.396 533.2365 201.7373 535.3602 202.4079 537.2603 202.2961 538.8251 201.0667 541.7311 201.0667 542.8488 201.1784 543.743 203.8609 550.0022 204.1963 551.6788 204.0845 553.3553 203.8609 555.1437 202.7432 558.385 198.4959 566.3208 198.1606 567.8856 198.2724 569.3386 199.7254 571.127 209.7848 580.2922 211.2378 581.1864 212.5791 581.7452 213.4733 582.0805 220.9619 583.31 223.6444 584.5395ZM50.1756 482.716L56.0994 483.9454 57.3289 489.534 56.7701 496.352 56.8818 501.4935 54.0876 503.3936 51.7404 504.5113 49.505 504.2878 46.9342 502.6112 45.4812 500.4876 45.4812 498.4757 45.9283 496.2403 45.9283 493.7813 45.2576 492.3283 43.0222 489.9811 42.4634 488.1927 42.4634 486.4044 42.7987 485.1749 44.6988 482.716 46.4871 480.9276 49.952 478.804 51.4051 477.0156 52.2992 478.6922 52.2992 479.9217 51.6286 480.9276 50.1756 481.4865 50.1756 482.716Z" />
  <path class="Wouleu-Ntem" d="M729.5208 182.4986L594.9483 180.4867 594.8365 181.9397 594.613 183.5045 594.3894 184.0634 594.0541 184.6222 592.2658 186.8576 591.8187 187.5283 591.5952 188.0871 591.4834 188.646 591.2598 190.7696 591.0363 191.3285 590.4774 192.1109 588.4656 194.2345 585.4477 200.2702 585.0007 200.829 582.4299 203.7351 581.9828 204.6293 581.6475 205.4117 581.3122 206.1941 579.5239 210.1061 578.2944 212.2297 573.6 218.1536 573.4882 218.4889 573.3765 218.6007 572.8176 221.1714 572.7058 224.5245 573.1529 230.4484 573.1529 231.3426 572.7058 233.1309 572.5941 233.9133 572.7058 234.5839 573.0411 235.1428 573.1529 235.4781 573.2647 236.037 572.3705 240.5078 571.6999 241.9608 570.5822 243.1903 453.8931 322.4361 452.5518 323.6656 452.3283 324.6715 453.2224 326.1245 469.6528 343.5608 343.7985 343.2255 344.8044 342.3314 345.8103 340.8783 346.1457 340.543 346.8163 339.9842 347.934 338.5311 348.8282 336.631 349.0517 335.7369 349.0517 334.8427 348.9399 333.0543 347.8222 327.5776 348.1575 326.0128 348.4928 325.1186 349.387 324.448 349.9459 323.8891 350.393 323.1067 350.7283 322.4361 350.9518 321.0948 351.5107 316.8475 354.8638 304.888 355.5344 303.3232 357.4345 299.9701 357.6581 299.4112 358.2169 297.5111 358.5523 296.7287 359.1111 295.7228 359.7817 294.9404 361.0112 293.0403 361.5701 291.699 363.3584 285.1045 363.582 284.6574 363.8055 284.2103 364.5879 283.3162 367.0469 281.4161 367.3822 280.7454 367.8293 279.6277 368.6117 275.8275 370.1765 271.3567 370.5118 269.233 370.8471 258.0559 370.4 254.591 368.8352 248.1083 368.1646 247.6612 366.7116 247.6612 282.1008 276.9452 279.7536 277.3923 278.4123 277.057 277.6299 275.604 276.2887 270.7978 275.618 269.3448 274.7239 267.78 272.1531 264.4268 272.0414 262.0796 272.6002 258.9501 274.9474 252.6909 276.8475 249.4495 279.3065 241.2902 280.2007 218.2653 283.8891 218.2653 332.5096 218.3771 369.2823 218.4889 381.0183 218.6007 429.6387 218.7124 429.4152 176.2394 429.1916 133.6546 428.9681 99.6761 428.8563 91.1815 428.6328 48.7085 428.6328 35.6312 427.4033 29.3721 428.4092 27.6955 429.0799 25.7954 429.3034 23.7835 429.3034 21.7716 429.6387 19.0891 430.6447 17.3008 431.8741 15.5124 432.8801 13.277 432.5448 11.1534 431.8741 9.0297 432.0977 7.4649 475.4649 5.9001 479.7122 4.4471 481.7241 4 483.9595 4.2235 485.6361 5.1177 488.8774 7.8002 497.2603 10.5945 499.7193 10.818 505.196 10.0356 519.5028 10.4827 531.7976 9.4768 544.0924 10.1474 553.7047 9.4768 556.6108 9.5886 563.2053 10.5945 570.2469 10.9298 573.4882 10.2592 579.6356 8.2473 582.877 7.8002 584.5536 7.3531 588.0185 5.453 589.4715 5.3413 591.4834 6.0119 596.8484 9.2532 599.7545 9.9239 608.6961 7.8002 614.9553 8.2473 624.0088 11.2651 626.8031 12.1593 630.6033 11.2651 633.174 13.1652 637.086 14.6183 658.9932 17.8596 662.2345 17.189 664.5817 15.8477 666.3701 14.2829 668.4937 13.3888 671.1762 14.1712 674.9765 15.8477 678.1061 16.5184 679.5591 14.5065 681.7945 15.5124 683.9182 15.6242 685.7065 14.9536 687.3831 13.3888 692.301 15.1771 695.0953 15.6242 696.8836 15.1771 699.119 14.0594 701.6898 14.73 706.1606 16.6301 713.0904 15.8477 714.6552 15.1771 717.8966 12.0475 719.7967 10.7063 721.2497 10.1474 726.1677 10.371 730.6385 11.2651 732.9857 12.9417 733.9916 13.3888 735.5564 13.5006 737.9036 12.4946 739.0213 12.2711 740.8097 12.9417 743.2686 14.8418 745.7276 16.9655 747.2924 18.8656 747.963 21.2128 747.2924 26.1307 747.4042 30.1545 747.4042 39.8785 746.8453 45.1318 745.1688 49.0438 739.3567 52.1734 738.4625 52.9558 735.4447 56.1971 734.6623 56.756 733.0975 57.3149 733.0975 58.7679 733.9916 61.7857 733.6563 63.3505 732.8739 64.58 731.7562 65.5859 730.6385 66.8154 729.5208 68.7155 728.5149 71.2862 726.503 71.8451 725.8323 72.5157 727.956 75.4218 729.2972 78.3278 730.0796 79.5573 730.7503 81.4574 730.5267 84.1399 728.8502 90.0638 727.6207 92.5228 725.9441 94.6464 723.9322 95.8759 725.1617 98.6702 724.7146 101.4645 723.5969 104.4823 722.9263 107.9472 723.9322 115.3241 723.3734 119.2361 720.5791 122.4774 723.2616 127.1718 726.2794 131.3074 727.3971 130.0779 729.1855 131.5309 730.3032 133.431 730.5267 135.6664 729.5208 138.0136 732.8739 139.6902 735.78 147.5142 738.4625 149.1908 738.2389 150.532 738.4625 158.1325 738.3507 159.4737 738.4625 160.7032 739.0213 161.8209 740.3626 163.8328 740.0273 164.6152 739.0213 165.2858 737.4565 168.5272 735.1094 170.092 732.4268 170.9861 730.0796 171.3215 728.8502 172.3274 728.1795 174.6746 727.0618 176.6865 723.9322 176.91 725.6088 178.363 727.5089 179.1454 729.0737 180.2631 729.5208 182.4986Z" />
</svg>