<?xml version="1.0" encoding="utf-8"?>
<svg xmlns="http://www.w3.org/2000/svg" viewBox="0 0 1021 619" style="stroke-width:0.25px;stroke-linejoin:round;stroke:#444;fill:#ddd" fill-rule="evenodd">
  <path class="Aveiro" d="M930.1538 100.3761L929.8185 100.8232 929.8185 101.2703 929.3714 101.8292 928.4772 101.8292 928.1419 101.9409 927.8066 102.2762 927.5831 102.7233 926.6889 103.9528 926.4653 104.3999 926.13 104.7352 925.7947 104.9587 923.4475 104.7352 923.224 104.3999 923.1122 104.0646 923.1122 103.6175 923.224 103.0586 923.5593 102.2762 923.7828 101.9409 924.0064 101.7174 924.1182 101.6056 924.3417 101.3821 924.4535 101.2703 924.5652 100.4879 924.677 100.1526 924.5652 99.8173 924.1182 98.9231 923.8946 97.8054 923.4475 97.9172 922.7769 98.1407 922.1063 98.5878 921.771 98.8113 921.4356 98.6996 921.2121 98.2525 920.9886 97.3583 920.9886 96.7994 921.2121 95.57 919.6473 94.4523 918.8649 95.7935 918.6414 96.6877 918.3061 97.2465 916.9648 97.023 912.4939 92.4404 912.4939 92.3286 912.6057 91.658 913.3881 89.199 913.8352 86.0694 913.947 85.9576 914.1705 85.7341 914.1705 86.8518 914.1705 87.1871 914.9529 85.8459 915.6235 85.3988 916.1824 85.7341 916.4059 85.7341 916.4059 85.3988 916.2942 85.287 916.1824 84.9517 916.0706 84.6164 916.1824 84.2811 916.5177 84.0575 916.7413 84.2811 916.9648 84.5046 917.1883 84.7282 917.5237 84.5046 917.859 84.1693 918.4178 83.2751 917.7472 82.8281 917.4119 82.1574 917.5237 81.5986 918.1943 81.375 919.2002 81.2633 919.8708 81.0397 920.5415 80.5926 921.2121 79.922 920.4297 80.0338 919.4238 80.4809 918.6414 80.7044 918.4178 80.8162 918.1943 80.8162 917.3001 80.3691 916.9648 79.922 916.6295 78.469 918.1943 76.3453 917.859 75.1158 917.7472 76.01 917.5237 76.7924 917.1883 77.016 916.9648 76.2336 916.4059 77.3513 915.9589 78.6925 915.7353 80.2573 915.6235 81.5986 915.4 82.381 914.9529 83.7222 914.3941 84.8399 913.947 85.3988 917.859 67.1801 917.859 65.9506 918.1943 65.8388 919.9826 65.6153 920.6532 66.0624 921.8827 65.6153 922.5534 65.1682 923.0004 65.1682 923.4475 65.28 923.7828 65.6153 924.3417 65.9506 924.7888 65.9506 925.0123 65.7271 925.3476 64.9447 925.4594 64.7211 926.2418 63.827 927.0242 64.7211 927.2477 65.0564 927.4713 65.6153 928.2537 66.1741 928.589 66.1741 928.7008 65.9506 928.7008 65.6153 928.4772 65.28 928.4772 64.9447 928.4772 64.7211 929.4832 64.1623 930.3773 64.4976 932.2774 63.1563 932.3892 62.9328 932.6128 62.3739 935.0717 63.9387 935.1835 64.274 935.2953 64.8329 935.2953 65.1682 935.2953 66.3977 938.3131 67.8507 938.7602 67.8507 939.319 67.7389 939.6543 67.0683 939.7661 66.8448 939.8779 66.733 940.4367 66.2859 940.6603 66.2859 940.7721 66.5095 940.8838 66.733 940.8838 66.8448 940.7721 66.9565 940.7721 67.1801 939.4308 69.0802 939.319 69.6391 939.0955 70.3097 939.2073 70.645 939.319 71.3156 939.5426 72.7686 939.8779 73.6628 939.8779 74.3334 939.6543 74.6688 939.319 74.7805 938.9837 74.7805 938.6484 74.6688 938.3131 74.3334 937.9778 74.2217 937.5307 74.2217 936.7483 74.6688 936.3012 74.6688 935.8541 74.6688 935.5188 74.4452 934.2893 74.557 934.7364 76.2336 934.6246 76.5689 934.2893 77.1277 933.5069 78.9161 932.501 80.0338 931.6068 80.8162 931.1597 81.4868 931.1597 81.7103 931.1597 81.9339 931.2715 82.2692 931.3833 82.6045 931.9421 83.2751 932.2774 83.7222 932.3892 84.0575 932.3892 85.5106 932.7245 86.293 932.8363 86.4047 933.6187 86.74 934.2893 87.2989 932.6128 87.8578 932.3892 88.1931 932.1657 88.5284 932.1657 88.9755 932.6128 90.0932 932.8363 91.0991 933.0598 91.4344 933.3952 91.658 933.6187 91.9933 934.0658 92.7757 931.8304 93.6699 930.9362 94.4523 930.8244 94.6758 930.9362 95.1229 931.3833 95.7935 931.3833 96.4641 931.1597 96.9112 930.042 98.8113 930.1538 100.3761Z" />
  <path class="Azores" d="M252.9322 274.4039L253.7146 274.9627 254.3853 275.8569 254.9441 276.9746 255.0559 278.0923 254.497 278.7629 253.1558 278.6512 250.8086 277.8688 249.4673 278.2041 248.6849 278.2041 248.4614 277.757 248.1261 277.0864 247.679 276.5275 247.4554 275.9686 247.9025 275.4098 248.6849 274.7392 250.138 274.2921 251.8145 274.2921 252.9322 274.4039ZM247.5672 231.3719L249.132 232.0426 250.138 233.4956 250.2497 235.3957 249.2438 236.9605 247.679 237.7429 242.314 238.4135 240.5256 238.8606 238.5138 239.0842 236.7254 238.9724 235.8312 239.0842 235.0488 239.4195 234.0429 238.7488 232.9252 238.3018 230.6898 237.7429 227.0013 237.5194 222.1952 233.9427 220.7421 231.9308 221.5245 229.2483 224.6541 228.913 225.6601 229.2483 227.0013 230.4778 227.3366 230.9249 227.3366 231.4837 227.4484 231.9308 227.6719 232.3779 228.0073 232.4897 233.1487 233.1603 233.7076 233.0485 234.8253 232.2661 235.3842 232.0426 235.7195 232.2661 236.6136 232.9367 237.0607 233.1603 237.7314 232.825 241.8669 231.4837 247.5672 231.3719ZM129.6486 201.4173L131.437 201.529 132.1076 202.0879 132.4429 203.3174 131.884 203.8762 130.6546 203.8762 127.4132 203.4292 126.519 203.4292 125.7366 203.7645 124.2836 204.9939 123.7248 204.6586 123.3894 204.0998 122.9424 203.5409 122.0482 203.2056 116.2361 203.0938 115.4537 203.5409 112.7712 200.9702 111.7652 199.4054 111.7652 197.17 112.9947 196.0523 114.336 195.6052 117.242 195.7169 118.9186 196.0523 122.9424 198.5112 124.3954 199.1818 124.3954 199.2936 124.8425 199.4054 125.7366 200.076 126.0719 200.2996 126.9661 200.4113 129.6486 201.4173ZM109.3063 193.5933L109.8651 195.9405 109.6416 195.9405 108.3003 196.4993 107.965 196.8347 108.1886 197.0582 108.3003 197.2817 108.4121 197.3935 108.7474 197.5053 108.3003 197.8406 107.7415 197.8406 106.8473 197.5053 106.2884 197.5053 105.059 197.8406 104.6119 197.8406 103.7177 197.3935 102.6 195.8287 101.8176 195.0463 99.9175 193.9286 99.9175 193.4815 101.2587 193.258 102.4882 193.1462 103.0471 193.0344 103.4942 192.8109 103.8295 192.4756 104.5001 191.4696 104.8354 191.1343 108.4121 192.6991 109.3063 193.5933ZM138.4785 193.258L141.4964 194.3757 142.9494 195.1581 143.7318 196.0523 143.0612 196.3876 142.2788 196.4993 140.714 196.3876 140.0433 196.164 138.7021 195.4934 137.4726 195.2699 136.802 194.9345 136.1314 194.5992 135.5725 194.1521 135.0136 193.8168 133.8959 194.0404 133.2253 193.5933 132.6664 193.9286 132.2194 193.7051 131.5487 192.8109 130.9899 192.4756 126.8543 191.1343 126.0719 190.5755 125.2895 189.1224 124.9542 189.0107 124.7307 189.0107 124.5072 189.1224 124.3954 189.1224 124.0601 189.0107 123.9483 188.7871 123.9483 188.5636 123.9483 188.34 123.613 188.2283 123.2777 188.1165 121.3776 186.4399 121.2658 186.1046 121.2658 185.434 121.9364 185.6575 123.2777 186.6635 123.9483 186.7752 124.6189 186.887 132.6664 190.0166 138.4785 193.258ZM173.6865 188.5636L173.4629 188.7871 172.5688 189.1224 172.3452 189.346 172.2334 189.6813 172.457 190.5755 172.3452 191.1343 172.1217 191.2461 170.8922 191.805 169.8862 191.4696 167.2037 191.3579 166.3096 190.6872 165.7507 191.2461 165.3036 191.3579 164.2977 190.6872 163.2917 190.4637 162.174 190.3519 161.2799 190.0166 160.2739 189.0107 159.3798 187.893 159.0444 186.7752 158.7091 185.2105 159.6033 183.981 161.1681 183.1986 162.5094 182.8633 168.6568 183.3103 169.8862 183.7574 171.5628 184.7634 172.7923 185.9928 173.0158 186.9988 172.9041 187.4459 173.2394 187.7812 173.6865 188.1165 173.6865 188.5636ZM134.6783 171.7979L133.8959 171.7979 133.0018 171.6861 132.2194 171.3508 131.5487 170.792 131.1017 169.8978 131.1017 169.1154 131.7723 167.5506 132.2194 167.2153 132.6664 167.2153 133.1135 167.2153 133.4488 167.5506 133.7842 167.2153 134.343 168.1095 135.6843 169.2272 136.3549 169.8978 136.6902 170.792 136.1314 171.3508 135.4607 171.6861 134.6783 171.7979ZM4.0178 145.9788L4.4649 146.3141 4.912 146.6494 5.4708 146.7612 6.0297 146.4259 6.8121 147.4318 7.1474 148.326 7.1474 150.5614 6.8121 151.6791 6.1415 153.1321 5.3591 154.0263 4.6884 153.5792 3.9061 153.9145 3.0119 154.0263 2.1177 153.9145 1.5589 153.5792 1.2235 152.9086 1 151.7909 1 150.8967 1.3353 150.3378 1.1118 149.4437 1.3353 148.773 1.6706 147.9906 1.8942 146.8729 2.1177 146.0905 2.7883 145.5317 3.5707 145.3081 4.3531 145.3081 4.0178 145.9788ZM7.7063 134.4663L9.1593 134.8017 9.2711 136.3664 8.4887 137.8195 7.1474 138.1548 7.1474 137.8195 6.4768 136.1429 6.2532 135.9194 6.4768 135.3605 6.8121 134.9134 7.2592 134.5781 7.7063 134.4663Z" />
  <path class="Beja" d="M937.7542 208.0118L937.9778 207.5647 940.9956 207.6765 941.8898 207.5647 942.4486 207.6765 942.6722 207.6765 943.1193 208.2353 943.5663 208.5706 943.9017 208.6824 944.237 208.6824 945.1311 208.2353 945.5782 208.2353 945.9135 208.3471 947.143 208.7942 948.0372 209.9119 951.5021 211.4767 953.514 211.7002 954.6317 212.1473 957.2024 213.6003 957.7613 213.7121 960.4438 213.8239 961.2262 213.9356 962.1204 214.271 963.9087 214.271 964.3558 214.1592 964.4675 213.8239 965.0264 213.0415 965.697 212.2591 966.8147 211.7002 966.9265 211.4767 967.4854 211.1414 967.7089 210.9178 968.0442 210.5825 968.3795 210.1354 968.6031 209.6883 968.6031 209.353 968.6031 209.0177 969.9443 208.5706 971.2856 207.9 971.6209 207.7882 971.8444 207.7882 972.8504 207.3411 973.1857 207.3411 973.521 207.3411 973.6328 207.5647 973.6328 207.6765 973.7446 208.0118 973.7446 208.1235 973.9681 208.3471 974.1916 208.6824 974.3034 209.0177 974.4152 209.4648 974.527 209.8001 974.6387 210.1354 975.5329 211.0296 976.5388 211.4767 976.7624 211.7002 976.8741 212.0355 976.9859 212.4826 977.433 213.4886 977.5448 213.8239 977.8801 214.6063 978.2154 214.9416 978.6625 215.2769 979.3331 215.3887 979.6684 215.2769 980.0037 215.0534 980.1155 214.9416 980.6744 215.5004 981.345 215.5004 982.3509 215.2769 983.3569 214.8298 983.804 214.1592 984.0275 214.1592 984.1393 214.271 985.1452 213.9356 986.3747 213.8239 986.9336 214.1592 987.0453 214.271 986.5982 215.724 986.2629 216.5064 985.7041 218.2947 984.9217 219.7477 984.5864 221.3125 984.251 221.9832 983.9157 223.2127 982.9098 223.3244 980.5626 222.4303 979.892 222.3185 979.5567 222.7656 979.1096 223.7715 978.6625 224.3304 978.4389 224.5539 977.8801 224.7774 977.3212 225.001 976.8741 224.8892 976.3153 224.7774 975.8682 224.7774 975.4211 225.001 974.0799 225.3363 973.8563 225.5598 973.8563 226.0069 973.9681 226.454 973.9681 227.0129 973.7446 227.907 972.8504 230.366 972.4033 232.0426 971.2856 234.0545 967.5971 237.184 966.9265 238.3018 966.3677 239.7548 966.0323 242.2138 965.8088 242.9961 965.4735 243.4432 964.4675 244.5609 964.0205 244.8963 964.1322 245.1198 964.1322 245.4551 964.0205 245.6787 964.0205 245.9022 963.5734 246.3493 963.4616 246.5728 963.4616 247.1317 963.4616 247.2435 963.6851 247.2435 963.9087 247.9141 963.9087 248.2494 964.0205 248.5847 963.0145 248.8083 961.8968 248.8083 961.0026 249.2553 960.2202 250.0377 959.7732 250.2613 959.4378 250.373 959.2143 250.2613 958.5437 250.1495 958.3201 250.0377 956.1965 250.0377 953.0669 251.379 952.2845 251.8261 952.0609 252.0496 951.8374 252.1614 951.6139 252.1614 950.8315 252.6085 950.4961 252.7202 950.2726 252.832 950.1608 253.1673 949.602 253.2791 948.9314 253.7262 948.8196 254.0615 948.596 254.3968 948.0372 254.6204 946.9195 254.8439 946.3606 254.8439 945.1311 255.0674 944.5723 255.4028 944.3487 255.7381 944.3487 256.0734 944.4605 256.2969 944.684 256.744 944.684 256.9675 944.4605 257.0793 943.0075 257.8617 942.1133 258.6441 941.5545 258.8677 941.1074 258.8677 939.5426 258.7559 938.7602 258.7559 937.4189 258.3088 934.6246 256.1851 933.954 255.8498 933.5069 255.291 933.3952 255.0674 933.2834 254.285 932.9481 253.7262 931.9421 253.3909 931.2715 253.5026 930.9362 253.7262 930.4891 253.6144 930.042 253.7262 929.1479 253.838 927.5831 254.3968 927.4713 254.6204 927.136 254.9557 927.136 255.291 926.9124 255.7381 926.2418 256.0734 925.4594 256.4087 923.7828 256.0734 923.1122 255.8498 921.5474 254.9557 921.1003 254.8439 919.5355 255.0674 919.2002 255.291 918.9767 255.5145 918.7531 255.7381 918.5296 255.9616 918.1943 255.8498 917.9707 255.7381 916.853 255.1792 915.1765 255.0674 914.9529 254.9557 914.5058 254.6204 914.1705 254.1733 913.4999 253.6144 912.941 253.5026 912.1586 252.9438 911.5998 252.6085 911.8233 251.9378 912.0469 250.5966 912.1586 248.2494 911.9351 247.0199 911.488 246.2375 910.9292 245.5669 910.9292 244.8963 911.3762 242.6608 911.5998 241.2078 911.9351 239.9783 912.4939 239.643 913.6117 239.4195 913.8352 238.19 913.8352 238.0782 913.4999 238.4135 912.6057 238.6371 911.5998 238.6371 911.2645 237.7429 911.5998 235.1722 911.9351 233.2721 912.2704 233.7191 912.4939 234.0545 912.7175 234.1662 913.0528 234.1662 913.2763 234.0545 913.6117 233.8309 913.947 233.7191 914.6176 233.9427 914.9529 234.3898 915.0647 234.6133 916.0706 235.9546 916.5177 236.6252 916.6295 236.8487 916.853 236.8487 917.0766 236.6252 917.1883 236.2899 917.4119 236.1781 917.7472 236.2899 918.0825 236.4017 918.4178 236.737 919.0884 236.9605 919.5355 237.0723 920.2062 236.737 920.4297 236.4017 920.5415 236.0663 920.5415 235.6193 920.9886 234.5015 921.1003 234.1662 921.8827 233.3838 921.9945 233.0485 922.1063 232.6014 922.5534 232.2661 923.224 231.9308 926.8007 231.2602 928.589 231.5955 929.7067 231.5955 929.8185 231.5955 931.048 232.2661 931.6068 230.8131 931.8304 230.4778 932.2774 229.1365 932.501 226.7893 932.501 225.3363 932.0539 224.2186 931.8304 223.7715 931.2715 223.3244 930.7127 223.3244 930.2656 223.2127 929.8185 222.8773 929.1479 222.2067 928.3655 221.5361 928.2537 221.089 928.1419 220.7537 928.1419 220.5301 928.2537 220.1948 928.2537 219.8595 928.3655 219.5242 928.4772 219.1889 928.7008 218.7418 929.0361 218.7418 929.2596 218.8536 929.4832 218.8536 929.7067 218.8536 929.8185 218.63 929.9303 218.5183 930.042 217.9594 930.1538 217.7359 930.1538 217.5123 930.1538 217.2888 930.2656 217.0652 930.6009 216.9535 930.8244 216.7299 931.048 216.6182 931.495 216.8417 931.8304 217.0652 932.0539 217.177 932.3892 216.9535 932.6128 216.0593 932.7245 215.6122 932.8363 215.3887 933.1716 215.1651 934.6246 215.1651 934.8482 214.718 934.96 214.1592 935.2953 214.0474 936.7483 213.7121 937.4189 213.3768 938.8719 212.9297 939.0955 212.3708 939.0955 212.0355 939.0955 211.4767 938.7602 210.2472 937.7542 208.0118Z" />
  <path class="Braga" d="M911.1527 33.537L911.3762 33.537 912.1586 33.6487 912.4939 33.6487 915.5118 32.531 917.5237 32.4193 917.9707 32.4193 918.1943 32.0839 918.4178 31.8604 918.5296 31.7486 918.8649 31.9722 920.0944 32.4193 920.8768 32.531 921.3239 32.7546 921.771 32.8663 921.9945 32.9781 922.6651 31.6369 922.5534 31.078 922.6651 30.7427 922.7769 30.4074 923.224 29.9603 923.3358 29.625 923.3358 29.2897 923.4475 28.3955 923.5593 27.9484 923.6711 27.6131 924.0064 27.2778 924.2299 27.0542 924.5652 27.0542 924.9006 27.0542 925.1241 27.166 925.9065 26.8307 926.5771 26.2718 926.9124 26.0483 927.4713 25.8248 928.0301 25.6012 931.6068 25.4894 932.6128 25.1541 936.413 23.0305 936.9718 23.0305 937.0836 22.9187 937.0836 23.0305 940.5485 23.254 942.3369 22.8069 942.4486 22.9187 942.4486 23.1422 942.3369 23.4776 942.1133 23.8129 942.0015 24.1482 941.6662 25.713 941.3309 26.3836 940.8838 27.6131 940.6603 28.0602 940.5485 28.3955 939.5426 29.5132 940.1014 29.5132 940.6603 29.4014 940.8838 29.2897 941.2191 29.2897 941.5545 29.2897 941.8898 29.2897 942.2251 29.2897 942.8957 28.9543 943.231 28.9543 943.4546 29.0661 944.5723 29.7367 944.684 29.9603 944.7958 30.2956 944.684 30.9662 944.5723 31.4133 944.4605 33.8723 945.2429 34.2076 945.69 34.3194 946.1371 34.5429 946.4724 34.6547 948.0372 34.99 948.596 35.1018 949.8255 34.6547 950.6079 33.7605 951.055 33.984 951.2785 34.2076 951.9492 35.4371 951.8374 36.1077 950.1608 38.5667 949.7138 39.0138 948.9314 39.4608 948.8196 39.5726 948.596 40.2432 948.149 40.5785 947.8136 40.5785 947.7019 40.5785 947.4783 40.6903 947.0312 41.2492 946.6959 42.4787 946.9195 42.9257 946.8077 43.1493 946.6959 43.5964 946.1371 44.4905 946.0253 44.9376 945.8018 45.0494 945.69 45.1612 945.5782 45.2729 945.69 45.72 945.69 45.9436 945.3547 46.9495 945.2429 47.5084 945.1311 47.7319 945.0194 47.9554 944.7958 48.179 944.5723 48.2908 944.3487 48.5143 944.1252 48.7378 943.9017 48.9614 943.5663 49.1849 943.3428 49.2967 942.8957 49.4085 942.4486 48.9614 941.5545 48.5143 941.1074 48.6261 939.8779 48.0672 938.4249 46.9495 938.4249 46.3906 938.3131 46.1671 937.5307 45.2729 935.5188 44.4905 934.8482 45.4965 934.0658 46.0553 932.8363 46.6142 932.501 46.726 931.6068 47.0613 931.2715 47.0613 930.7127 46.726 930.3773 46.6142 928.8125 46.8377 927.4713 47.173 926.4653 46.9495 926.2418 46.726 925.9065 46.6142 925.4594 46.6142 924.677 46.8377 924.0064 47.2848 923.6711 47.5084 923.3358 47.7319 923.0004 47.8437 922.6651 47.9554 920.4297 47.9554 919.9826 48.0672 919.8708 48.0672 919.5355 47.8437 919.312 47.5084 919.2002 46.726 919.0884 46.3906 919.4238 45.9436 919.8708 45.8318 920.0944 45.72 920.2062 45.3847 920.0944 45.0494 919.6473 44.7141 919.2002 44.6023 918.6414 44.267 917.9707 43.4846 917.6354 43.2611 917.3001 42.9257 916.9648 42.814 915.9589 42.7022 914.8411 42.2551 913.947 41.6963 912.941 41.6963 912.941 41.5845 912.4939 40.355 912.3822 39.2373 912.2704 38.4549 912.1586 37.5607 911.5998 35.9959 911.3762 34.7664 911.1527 33.8723 911.1527 33.537Z" />
  <path class="Bragança" d="M987.8277 64.274L987.1571 64.0505 985.3688 64.0505 981.7921 62.1504 981.345 61.5915 981.1215 60.9209 980.8979 60.1385 980.8979 59.6914 981.1215 59.2443 981.1215 58.7972 980.7861 58.6855 980.4508 58.5737 980.2273 58.4619 979.892 58.2384 979.7802 58.0149 980.0037 57.6795 980.3391 56.5618 979.892 56.6736 978.3272 57.7913 977.9919 58.3502 977.2095 58.3502 975.8682 58.0149 972.7386 58.2384 971.6209 58.3502 970.2796 57.9031 969.8326 57.456 968.6031 55.6677 967.9325 55.2206 967.3736 55.2206 967.5971 54.5499 967.7089 54.2146 967.8207 53.9911 968.2678 53.7675 968.8266 53.6558 968.9384 53.544 968.9384 53.3205 968.8266 52.9851 968.9384 52.5381 969.0502 51.7557 969.3855 51.3086 969.8326 50.8615 969.9443 50.638 969.8326 50.3026 969.9443 49.7438 970.615 48.9614 972.068 48.5143 971.062 47.9554 970.7267 47.5084 970.3914 46.8377 970.1679 45.72 970.1679 43.0375 971.5091 42.0316 971.8444 41.9198 972.2915 41.6963 972.6268 41.2492 972.8504 40.355 973.4092 39.4608 973.7446 39.0138 974.1916 38.7902 974.527 38.7902 974.8623 38.6784 975.1976 38.5667 975.3094 38.2314 975.1976 37.896 975.0858 37.5607 974.8623 37.2254 974.6387 36.8901 974.527 36.443 974.527 35.6606 974.6387 34.2076 975.98 29.7367 976.9859 27.6131 977.3212 27.2778 977.5448 27.166 977.7683 26.8307 977.8801 26.4954 977.8801 25.713 977.8801 25.2659 977.0977 24.26 976.7624 23.254 976.6506 22.8069 976.5388 21.801 976.6506 20.6833 976.7624 20.1244 976.4271 19.1185 976.4271 18.7832 976.8741 18.1125 976.9859 17.2184 976.6506 15.5418 976.7624 14.7594 977.0977 14.4241 977.6565 13.977 978.4389 13.5299 978.9978 13.4182 980.3391 14.2006 981.5685 15.3183 982.798 15.8771 984.251 15.3183 985.1452 14.5359 985.5923 14.7594 986.1512 15.0947 987.1571 15.8771 988.2748 16.1007 990.7338 15.8771 991.7397 15.2065 991.9633 13.6417 993.1927 13.8652 994.6458 16.1007 995.8752 16.5477 998.7813 16.436 1000.1226 15.9889 1000.6814 14.7594 1001.6873 15.2065 1002.2462 15.8771 1002.358 16.7713 1002.0227 19.1185 1002.358 19.5656 1003.1404 19.5656 1004.1463 20.0127 1003.6992 21.0186 1002.6933 25.4894 1002.5815 25.9365 1002.2462 26.3836 1002.0227 26.9425 1002.1344 27.3895 1002.358 27.8366 1002.5815 28.3955 1002.6933 29.4014 1002.9168 30.4074 1003.4757 31.3015 1004.5934 31.7486 1005.0405 31.6369 1005.5993 31.3015 1006.1582 30.9662 1006.4935 30.6309 1006.7171 30.2956 1007.2759 30.4074 1010.5173 31.078 1012.5292 31.7486 1014.3175 32.9781 1016.1058 34.7664 1016.6647 35.5488 1017 36.1077 1015.0999 38.902 1014.0939 40.0197 1013.7586 40.5785 1013.8704 41.0256 1013.9822 41.3609 1013.9822 41.808 1012.4174 44.267 1012.4174 44.7141 1011.0761 44.8259 1010.5173 45.0494 1010.0702 45.4965 1010.182 45.4965 1010.182 45.8318 1010.182 46.2789 1010.0702 46.5024 1009.8466 46.6142 1009.3996 46.5024 1009.176 46.5024 1007.9465 48.6261 1006.6053 49.9673 1005.8229 50.5262 1005.264 50.9733 1002.9168 51.9792 1002.5815 52.3145 999.899 52.3145 999.2284 52.4263 998.7813 52.9851 997.3283 55.1088 996.993 56.003 996.7694 56.4501 995.3164 57.6795 994.7575 58.3502 994.6458 58.6855 994.7575 60.0267 994.4222 61.0327 992.8574 63.3799 992.2986 63.9387 991.1809 64.0505 988.6101 63.827 987.8277 64.274Z" />
  <path class="Castelo Branco" d="M962.3439 137.1488L961.8968 137.0371 961.1144 137.2606 960.4438 137.8195 959.8849 138.2666 958.9908 139.049 958.3201 138.9372 957.6495 138.4901 956.7553 138.4901 956.0847 138.9372 955.5259 139.8314 955.1905 140.6138 954.8552 140.9491 954.0728 141.2844 953.4022 142.0668 952.8433 142.8492 952.2845 143.5198 951.9492 142.9609 951.6139 142.0668 951.3903 141.6197 950.6079 140.2784 949.7138 139.3843 949.0431 138.8254 948.3725 138.3783 947.5901 138.043 947.143 138.043 946.6959 137.9312 946.3606 137.7077 946.2488 137.2606 946.3606 136.4782 946.2488 135.6958 946.2488 135.3605 946.2488 134.9134 946.1371 134.5781 946.0253 134.2428 945.8018 134.0193 944.7958 133.9075 943.4546 133.4604 942.6722 133.6839 942.4486 134.0193 942.0015 136.7018 941.6662 137.2606 941.4427 137.9312 941.5545 138.4901 941.778 139.3843 941.8898 139.7196 941.8898 139.9431 940.9956 140.2784 939.5426 140.3902 938.7602 140.3902 937.6425 139.7196 935.407 138.8254 935.0717 138.1548 934.96 136.2547 934.96 135.2487 935.1835 134.6899 935.0717 133.7957 935.1835 133.5722 935.1835 133.2369 935.0717 133.0133 934.96 132.678 934.7364 132.4545 934.2893 132.2309 933.7305 132.0074 933.2834 131.7838 933.0598 131.0014 932.8363 130.3308 932.8363 130.1073 933.1716 129.6602 933.3952 129.4366 933.3952 129.1013 933.3952 128.8778 933.6187 128.5425 933.8422 128.3189 935.6306 127.7601 936.0777 127.8718 936.3012 127.6483 936.6365 127.2012 936.9718 126.7541 937.3072 126.5306 937.6425 126.5306 938.0895 126.1953 938.4249 125.86 939.2073 124.2952 939.8779 123.6245 939.9897 123.2892 940.325 123.0657 940.4367 123.0657 940.9956 122.9539 941.4427 122.395 942.3369 122.1715 943.0075 122.1715 943.231 121.948 943.231 121.7244 943.3428 121.3891 943.5663 121.3891 944.1252 121.2773 944.3487 121.0538 944.5723 120.942 944.9076 120.8303 945.1311 120.942 945.4664 121.0538 945.5782 121.0538 945.8018 120.942 946.3606 120.1596 946.5842 119.9361 946.9195 119.9361 947.7019 119.9361 948.149 119.6008 948.149 119.3772 948.0372 118.5948 948.149 118.1477 948.596 117.7007 949.602 117.1418 950.1608 117.03 950.6079 117.03 951.055 117.1418 951.3903 117.3653 952.1727 117.9242 952.2845 116.9183 952.1727 116.0241 952.3963 115.6888 952.6198 115.577 952.8433 115.6888 952.8433 115.8006 953.0669 116.0241 953.2904 116.1359 953.7375 116.0241 954.5199 115.4652 954.8552 115.1299 955.0788 114.7946 955.0788 114.5711 955.0788 114.2358 954.967 113.9004 954.8552 113.3416 953.7375 112.5592 953.0669 111.665 952.6198 111.3297 952.3963 110.9944 952.1727 110.3238 952.2845 109.8767 953.1787 107.8648 953.9611 107.5295 954.6317 107.4177 955.1905 107.1942 956.6436 106.0765 957.7613 105.6294 958.7672 104.9587 959.6614 103.9528 960.4438 102.8351 961.4497 103.1704 962.9028 102.9469 963.2381 102.6116 963.5734 102.2762 963.7969 101.4938 963.9087 101.1585 964.4675 100.1526 966.4794 98.2525 968.0442 99.482 969.0502 99.8173 969.4972 99.8173 970.8385 99.3702 971.6209 98.3642 971.9562 98.3642 972.4033 98.2525 973.0739 98.1407 973.4092 98.1407 973.8563 98.3642 973.521 101.4938 973.0739 102.9469 972.7386 103.3939 972.4033 103.7293 971.9562 104.2881 971.8444 104.7352 971.9562 104.9587 972.068 105.1823 972.2915 105.2941 972.6268 105.4058 972.9622 105.5176 973.8563 105.7411 974.8623 105.9647 976.7624 105.2941 978.6625 105.2941 979.2213 105.0705 979.4449 104.847 979.5567 104.3999 979.7802 103.9528 980.0037 103.6175 980.4508 103.1704 980.6744 103.2822 980.8979 103.5057 981.1215 103.9528 981.4568 104.6234 981.7921 104.9587 982.798 105.1823 983.6922 105.0705 984.3628 104.9587 984.6981 104.9587 985.0334 104.9587 986.0394 105.5176 986.5982 105.9647 987.0453 106.4118 987.1571 106.6353 987.2689 106.6353 986.71 106.7471 984.9217 107.8648 984.251 108.2001 983.9157 108.6472 983.4686 109.8767 983.1333 110.5473 983.4686 111.3297 983.804 113.118 984.251 113.7887 984.6981 114.0122 985.8158 114.124 986.2629 114.3475 986.71 114.6828 987.2689 115.577 988.163 116.6947 989.7278 119.6008 989.0572 120.8303 988.8337 121.3891 988.9454 121.948 988.8337 122.395 988.4983 123.7363 988.3866 123.9598 988.0513 124.1834 987.9395 124.5187 987.9395 124.7422 988.0513 125.3011 988.0513 125.5246 987.9395 126.0835 987.9395 126.8659 987.8277 127.4248 986.8218 128.9895 986.3747 129.2131 985.4805 129.5484 985.1452 129.8837 984.9217 130.5543 984.9217 131.1132 985.1452 131.5603 985.1452 132.0074 985.0334 132.5662 984.4746 133.4604 984.3628 133.9075 984.3628 134.3546 984.4746 134.8017 984.4746 135.137 984.0275 136.2547 983.4686 136.4782 977.433 137.2606 976.2035 137.2606 975.3094 136.7018 974.6387 136.9253 972.9622 136.8135 972.2915 137.0371 971.6209 137.2606 971.062 137.4842 962.3439 137.0371 962.3439 137.1488Z" />
  <path class="Coimbra" d="M953.1787 107.8648L952.2845 109.8767 952.1727 110.3238 952.3963 110.9944 952.6198 111.3297 953.0669 111.665 953.7375 112.5592 954.8552 113.3416 954.967 113.9004 955.0788 114.2358 955.0788 114.5711 955.0788 114.7946 954.8552 115.1299 954.5199 115.4652 953.7375 116.0241 953.2904 116.1359 953.0669 116.0241 952.8433 115.8006 952.8433 115.6888 952.6198 115.577 952.3963 115.6888 952.1727 116.0241 952.2845 116.9183 952.1727 117.9242 951.3903 117.3653 951.055 117.1418 950.6079 117.03 950.1608 117.03 949.602 117.1418 948.596 117.7007 948.149 118.1477 948.0372 118.5948 948.149 119.3772 948.149 119.6008 947.7019 119.9361 946.9195 119.9361 946.5842 119.9361 946.3606 120.1596 945.8018 120.942 945.5782 121.0538 945.4664 121.0538 945.1311 120.942 944.9076 120.8303 944.5723 120.942 944.3487 121.0538 944.1252 121.2773 943.5663 121.3891 943.3428 121.3891 943.231 121.7244 943.231 121.948 943.0075 122.1715 942.3369 122.1715 941.4427 122.395 940.9956 122.9539 940.4367 123.0657 940.325 123.0657 939.9897 123.2892 939.8779 123.6245 939.2073 124.2952 939.4308 123.6245 939.319 123.6245 939.319 123.401 939.2073 123.0657 939.319 122.5068 939.5426 122.2833 939.9897 121.948 938.3131 119.2655 938.2013 118.3713 938.4249 116.8065 938.3131 116.4712 938.0895 116.1359 937.866 115.9123 937.3072 115.577 936.0777 117.2536 934.8482 116.6947 933.0598 118.2595 932.501 119.2655 932.501 119.6008 932.6128 120.0479 932.7245 120.1596 933.1716 120.6067 933.3952 120.942 933.2834 121.3891 933.0598 121.6127 932.7245 121.7244 932.0539 121.3891 931.6068 121.5009 930.2656 123.0657 928.589 123.7363 928.2537 123.7363 927.9184 123.6245 928.1419 123.401 928.4772 123.1774 928.7008 122.8421 928.7008 122.395 928.589 121.7244 928.1419 120.7185 927.6948 119.6008 927.3595 119.3772 927.0242 119.2655 926.9124 119.6008 926.13 119.489 924.7888 120.6067 923.6711 121.2773 923.0004 122.1715 922.6651 122.5068 922.4416 122.2833 922.3298 121.948 922.218 121.6127 922.218 120.7185 922.218 120.2714 921.8827 119.0419 921.6592 118.8184 921.3239 118.5948 921.1003 118.5948 920.8768 118.7066 920.5415 118.8184 920.2062 119.0419 919.6473 120.0479 919.5355 120.1596 919.312 120.2714 918.8649 120.2714 918.6414 120.2714 918.5296 120.1596 918.0825 119.6008 917.4119 118.9301 916.9648 118.5948 916.0706 118.3713 915.2882 118.3713 913.1646 118.1477 912.1586 118.5948 911.7116 118.9301 911.3762 119.0419 910.035 118.7066 909.4761 118.4831 909.029 118.2595 908.0231 117.7007 907.7996 117.5889 909.1408 113.5651 909.8114 112.7827 910.2585 113.4534 910.9292 113.7887 912.6057 113.9004 912.6057 113.4534 911.9351 112.7827 911.2645 112.3356 910.5938 112.1121 908.6937 111.8886 908.0231 111.4415 907.576 110.6591 907.576 109.5414 908.0231 107.9766 909.2526 105.5176 912.0469 94.8993 912.4939 92.3286 912.4939 92.4404 916.9648 97.023 918.3061 97.2465 918.6414 96.6877 918.8649 95.7935 919.6473 94.4523 921.2121 95.57 920.9886 96.7994 920.9886 97.3583 921.2121 98.2525 921.4356 98.6996 921.771 98.8113 922.1063 98.5878 922.7769 98.1407 923.4475 97.9172 923.8946 97.8054 924.1182 98.9231 924.5652 99.8173 924.677 100.1526 924.5652 100.4879 924.4535 101.2703 924.3417 101.3821 924.1182 101.6056 924.0064 101.7174 923.7828 101.9409 923.5593 102.2762 923.224 103.0586 923.1122 103.6175 923.1122 104.0646 923.224 104.3999 923.4475 104.7352 925.7947 104.9587 926.13 104.7352 926.4653 104.3999 926.6889 103.9528 927.5831 102.7233 927.8066 102.2762 928.1419 101.9409 928.4772 101.8292 929.3714 101.8292 929.8185 101.2703 929.8185 100.8232 930.1538 100.3761 930.6009 100.5997 931.048 100.935 932.2774 101.2703 933.1716 101.9409 933.8422 102.4998 934.5129 102.8351 934.8482 103.1704 935.0717 103.1704 935.1835 102.9469 935.2953 102.7233 935.2953 102.4998 935.407 102.2762 935.6306 102.1645 937.3072 101.8292 939.6543 102.1645 942.6722 99.929 944.9076 98.9231 946.6959 97.6936 947.3666 97.3583 948.3725 95.7935 949.7138 94.7876 950.1608 94.2287 950.6079 93.8934 951.5021 93.6699 951.8374 94.8993 952.1727 95.1229 952.3963 95.4582 952.3963 95.9053 952.2845 96.3524 952.0609 96.6877 951.7256 96.9112 951.3903 97.023 951.055 97.2465 950.9432 97.6936 951.2785 98.1407 951.6139 98.3642 952.2845 98.5878 952.508 98.8113 952.508 99.2584 952.8433 101.1585 953.0669 101.6056 953.6257 102.1645 953.7375 102.388 953.7375 102.8351 952.7316 103.3939 952.3963 103.841 952.1727 104.3999 951.9492 105.1823 951.5021 106.3 952.6198 106.8589 953.1787 107.8648Z" />
  <path class="Évora" d="M975.7564 184.7634L973.9681 186.3282 973.8563 186.5517 973.521 187.2223 973.4092 187.5576 973.0739 189.346 972.9622 190.4637 973.0739 191.0226 973.0739 191.4696 973.2975 191.805 973.521 191.9167 973.7446 192.1403 973.9681 192.4756 973.7446 193.258 971.9562 195.7169 971.2856 198.2877 970.8385 198.9583 971.3974 199.6289 971.2856 200.1878 970.9503 200.7466 970.2796 201.4173 970.8385 201.6408 972.068 202.535 976.3153 208.0118 976.5388 208.3471 976.7624 209.0177 976.8741 209.353 977.2095 209.6883 977.8801 210.1354 978.1036 210.359 979.7802 214.6063 980.1155 214.9416 980.0037 215.0534 979.6684 215.2769 979.3331 215.3887 978.6625 215.2769 978.2154 214.9416 977.8801 214.6063 977.5448 213.8239 977.433 213.4886 976.9859 212.4826 976.8741 212.0355 976.7624 211.7002 976.5388 211.4767 975.5329 211.0296 974.6387 210.1354 974.527 209.8001 974.4152 209.4648 974.3034 209.0177 974.1916 208.6824 973.9681 208.3471 973.7446 208.1235 973.7446 208.0118 973.6328 207.6765 973.6328 207.5647 973.521 207.3411 973.1857 207.3411 972.8504 207.3411 971.8444 207.7882 971.6209 207.7882 971.2856 207.9 969.9443 208.5706 968.6031 209.0177 968.6031 209.353 968.6031 209.6883 968.3795 210.1354 968.0442 210.5825 967.7089 210.9178 967.4854 211.1414 966.9265 211.4767 966.8147 211.7002 965.697 212.2591 965.0264 213.0415 964.4675 213.8239 964.3558 214.1592 963.9087 214.271 962.1204 214.271 961.2262 213.9356 960.4438 213.8239 957.7613 213.7121 957.2024 213.6003 954.6317 212.1473 953.514 211.7002 951.5021 211.4767 948.0372 209.9119 947.143 208.7942 945.9135 208.3471 945.5782 208.2353 945.1311 208.2353 944.237 208.6824 943.9017 208.6824 943.5663 208.5706 943.1193 208.2353 942.6722 207.6765 942.4486 207.6765 941.8898 207.5647 940.9956 207.6765 937.9778 207.5647 937.7542 208.0118 936.3012 206.8941 935.5188 206.5587 935.1835 206.5587 934.7364 206.5587 934.4011 206.447 933.5069 205.8881 932.9481 205.441 932.1657 205.1057 931.8304 204.9939 931.8304 204.5469 932.501 203.4292 932.7245 202.535 932.501 202.0879 932.1657 201.8644 931.6068 201.6408 931.3833 201.3055 931.3833 201.082 931.6068 200.8584 931.6068 200.5231 931.048 199.1818 931.048 198.8465 930.9362 198.623 930.7127 198.2877 930.2656 197.7288 929.4832 196.7229 929.0361 196.6111 928.3655 196.7229 927.3595 197.3935 926.8007 197.6171 925.6829 197.6171 925.1241 197.3935 924.7888 197.17 924.5652 196.9464 924.4535 196.6111 924.1182 196.4993 923.7828 196.3876 923.5593 196.6111 923.6711 196.8347 923.7828 197.17 923.6711 197.5053 923.4475 197.6171 922.4416 197.2817 921.3239 197.17 919.7591 196.164 918.5296 196.0523 918.3061 194.711 918.1943 194.3757 917.9707 194.0404 917.9707 193.4815 917.9707 193.1462 919.4238 191.2461 922.7769 188.8989 923.4475 188.1165 923.7828 187.5576 923.8946 186.887 923.7828 186.5517 924.2299 185.7693 924.1182 185.2105 923.8946 185.0987 922.218 184.7634 924.1182 183.0868 925.9065 182.7515 926.3536 182.4162 927.2477 181.6338 927.5831 181.522 928.1419 181.522 928.3655 181.4102 928.589 181.2985 928.8125 181.1867 929.0361 180.8514 929.0361 180.5161 929.1479 180.2925 929.4832 180.2925 930.1538 180.5161 930.7127 180.6278 931.1597 180.4043 931.495 180.4043 931.7186 180.5161 931.9421 180.2925 932.0539 180.069 932.2774 179.8454 932.501 179.8454 932.8363 180.069 933.8422 181.1867 934.1776 181.522 935.5188 181.7455 935.9659 181.8573 936.1894 182.1926 936.3012 182.5279 936.413 182.7515 936.5248 182.975 936.7483 183.0868 936.9718 182.975 937.1954 183.0868 937.4189 183.7574 937.5307 183.981 938.2013 184.4281 938.8719 183.7574 939.0955 182.975 939.0955 182.5279 938.8719 182.1926 938.4249 182.0809 938.2013 182.0809 937.5307 181.2985 937.1954 180.8514 937.3072 180.5161 937.5307 179.6219 937.3072 179.1748 937.0836 179.063 936.6365 178.9513 934.5129 178.0571 934.1776 177.8336 933.954 177.4982 933.8422 177.1629 933.954 176.8276 934.1776 176.4923 934.4011 176.157 934.6246 175.7099 934.7364 175.151 934.7364 174.3686 934.8482 173.8098 935.0717 173.4745 935.1835 173.4745 935.7424 173.4745 936.0777 173.2509 936.413 172.5803 937.1954 171.9097 937.866 171.5744 938.2013 171.3508 938.4249 171.3508 939.5426 171.2391 940.2132 171.4626 940.2132 171.7979 940.1014 172.1332 939.9897 172.8039 940.1014 173.4745 940.4367 173.8098 940.6603 173.698 940.7721 173.3627 940.7721 173.0274 940.7721 172.8039 940.8838 172.6921 940.8838 172.5803 941.3309 172.4685 942.0015 172.3568 942.3369 172.4685 942.5604 172.5803 943.4546 173.5862 943.5663 174.0333 943.6781 174.8157 943.5663 175.3746 943.7899 175.4864 944.7958 175.5981 945.1311 175.4864 945.4664 175.3746 945.69 175.151 945.9135 174.8157 946.5842 174.3686 947.4783 174.1451 947.9254 174.5922 949.7138 177.0512 950.9432 177.8336 951.2785 177.9453 951.8374 177.9453 952.1727 177.8336 952.9551 177.9453 954.2964 177.3865 954.6317 177.0512 955.3023 176.157 955.6376 176.2688 956.3083 176.6041 956.6436 176.7158 956.9789 176.4923 957.426 176.4923 957.7613 176.6041 958.6554 176.9394 958.9908 176.8276 959.2143 176.7158 959.4378 176.6041 959.6614 176.157 959.8849 175.8217 960.4438 175.2628 961.0026 175.151 961.8968 174.9275 962.4557 174.704 962.9028 174.3686 963.0145 174.0333 963.0145 173.698 962.9028 173.4745 962.6792 173.0274 963.1263 172.5803 963.3498 172.6921 963.4616 172.5803 963.5734 172.5803 963.6851 173.1392 965.3617 173.8098 966.0323 174.4804 966.2559 174.9275 966.3677 175.8217 966.4794 176.157 966.4794 176.7158 967.3736 177.4982 967.7089 178.5042 967.8207 179.2866 968.3795 180.069 968.156 180.8514 968.3795 181.2985 968.9384 182.3044 969.2737 182.6397 969.9443 182.975 970.615 182.975 970.8385 183.0868 971.3974 182.8633 972.2915 181.9691 973.0739 181.1867 974.3034 180.8514 975.0858 180.8514 975.5329 181.0749 975.98 181.2985 976.2035 181.7455 976.2035 182.4162 976.0917 182.7515 975.5329 183.6457 975.4211 183.981 975.4211 184.4281 975.7564 184.7634Z" />
  <path class="Faro" d="M964.0205 248.5847L964.3558 249.1436 964.6911 249.4789 965.3617 250.0377 965.5853 250.373 965.9206 251.2672 966.1441 252.4967 966.2559 253.6144 966.1441 254.1733 966.8147 255.8498 967.1501 259.8736 967.5971 261.5502 967.2618 262.3326 967.4854 263.4503 968.0442 265.6857 968.156 265.9092 968.2678 266.1328 968.3795 266.3563 968.7149 266.4681 968.7149 266.6916 968.3795 267.1387 967.7089 266.5799 966.8147 266.3563 965.9206 266.3563 965.0264 266.4681 964.1322 266.8034 962.4557 267.9211 961.785 268.1447 959.4378 269.7095 959.1025 270.1565 952.9551 274.2921 951.7256 275.5216 951.055 275.5216 950.4961 275.298 949.602 275.0745 947.143 275.0745 946.3606 274.7392 946.0253 275.298 945.5782 275.298 945.1311 274.9627 944.684 274.7392 945.1311 275.4098 945.2429 275.7451 945.3547 276.1922 944.3487 274.8509 942.8957 273.6215 939.9897 271.9449 938.4249 271.6096 937.0836 271.0507 935.7424 271.0507 932.501 271.4978 931.048 271.0507 929.5949 270.4919 928.3655 271.0507 926.5771 271.2743 924.7888 270.6036 924.7888 270.7154 922.5534 269.4859 920.8768 269.1506 918.9767 269.3741 918.4178 269.4859 917.859 269.933 916.5177 271.2743 914.0587 271.2743 913.6117 271.386 912.4939 272.0567 912.0469 272.2802 911.3762 272.392 910.4821 272.6155 909.5879 273.3979 908.8055 273.0626 908.0231 273.845 907.6878 274.0685 907.2407 274.2921 906.4583 274.9627 906.0112 275.0745 905.4524 274.8509 905.0053 274.4039 904.5582 274.1803 903.8876 274.4039 904.2229 272.9508 904.4464 272.2802 904.67 271.9449 906.2348 269.4859 906.7936 268.0329 907.3525 266.8034 907.0172 265.3504 907.6878 264.6798 908.6937 263.6738 909.2526 261.4384 908.9173 260.5442 908.582 259.7618 909.2526 258.4206 910.3703 257.1911 910.5938 255.9616 911.2645 254.1733 911.5998 252.6085 912.1586 252.9438 912.941 253.5026 913.4999 253.6144 914.1705 254.1733 914.5058 254.6204 914.9529 254.9557 915.1765 255.0674 916.853 255.1792 917.9707 255.7381 918.1943 255.8498 918.5296 255.9616 918.7531 255.7381 918.9767 255.5145 919.2002 255.291 919.5355 255.0674 921.1003 254.8439 921.5474 254.9557 923.1122 255.8498 923.7828 256.0734 925.4594 256.4087 926.2418 256.0734 926.9124 255.7381 927.136 255.291 927.136 254.9557 927.4713 254.6204 927.5831 254.3968 929.1479 253.838 930.042 253.7262 930.4891 253.6144 930.9362 253.7262 931.2715 253.5026 931.9421 253.3909 932.9481 253.7262 933.2834 254.285 933.3952 255.0674 933.5069 255.291 933.954 255.8498 934.6246 256.1851 937.4189 258.3088 938.7602 258.7559 939.5426 258.7559 941.1074 258.8677 941.5545 258.8677 942.1133 258.6441 943.0075 257.8617 944.4605 257.0793 944.684 256.9675 944.684 256.744 944.4605 256.2969 944.3487 256.0734 944.3487 255.7381 944.5723 255.4028 945.1311 255.0674 946.3606 254.8439 946.9195 254.8439 948.0372 254.6204 948.596 254.3968 948.8196 254.0615 948.9314 253.7262 949.602 253.2791 950.1608 253.1673 950.2726 252.832 950.4961 252.7202 950.8315 252.6085 951.6139 252.1614 951.8374 252.1614 952.0609 252.0496 952.2845 251.8261 953.0669 251.379 956.1965 250.0377 958.3201 250.0377 958.5437 250.1495 959.2143 250.2613 959.4378 250.373 959.7732 250.2613 960.2202 250.0377 961.0026 249.2553 961.8968 248.8083 963.0145 248.8083 964.0205 248.5847ZM946.1371 276.5275L948.2607 276.751 949.0431 276.4157 950.0491 275.4098 950.1608 275.6333 950.1608 275.7451 950.2726 276.1922 950.0491 276.304 950.0491 276.5275 949.2667 276.9746 948.2607 277.1981 947.143 277.1981 946.1371 276.8628 946.1371 276.5275Z" />
  <path class="Guarda" d="M987.2689 106.6353L987.1571 106.6353 987.0453 106.4118 986.5982 105.9647 986.0394 105.5176 985.0334 104.9587 984.6981 104.9587 984.3628 104.9587 983.6922 105.0705 982.798 105.1823 981.7921 104.9587 981.4568 104.6234 981.1215 103.9528 980.8979 103.5057 980.6744 103.2822 980.4508 103.1704 980.0037 103.6175 979.7802 103.9528 979.5567 104.3999 979.4449 104.847 979.2213 105.0705 978.6625 105.2941 976.7624 105.2941 974.8623 105.9647 973.8563 105.7411 972.9622 105.5176 972.6268 105.4058 972.2915 105.2941 972.068 105.1823 971.9562 104.9587 971.8444 104.7352 971.9562 104.2881 972.4033 103.7293 972.7386 103.3939 973.0739 102.9469 973.521 101.4938 973.8563 98.3642 973.4092 98.1407 973.0739 98.1407 972.4033 98.2525 971.9562 98.3642 971.6209 98.3642 970.8385 99.3702 969.4972 99.8173 969.0502 99.8173 968.0442 99.482 966.4794 98.2525 964.4675 100.1526 963.9087 101.1585 963.7969 101.4938 963.5734 102.2762 963.2381 102.6116 962.9028 102.9469 961.4497 103.1704 960.4438 102.8351 959.6614 103.9528 958.7672 104.9587 957.7613 105.6294 956.6436 106.0765 955.1905 107.1942 954.6317 107.4177 953.9611 107.5295 953.1787 107.8648 952.6198 106.8589 951.5021 106.3 951.9492 105.1823 952.1727 104.3999 952.3963 103.841 952.7316 103.3939 953.7375 102.8351 953.7375 102.388 953.6257 102.1645 953.0669 101.6056 952.8433 101.1585 952.508 99.2584 952.508 98.8113 952.2845 98.5878 951.6139 98.3642 951.2785 98.1407 950.9432 97.6936 951.055 97.2465 951.3903 97.023 951.7256 96.9112 952.0609 96.6877 952.2845 96.3524 952.3963 95.9053 952.3963 95.4582 952.1727 95.1229 951.8374 94.8993 951.5021 93.6699 951.8374 93.3345 953.0669 93.111 953.514 92.9992 954.6317 92.2168 955.7494 91.7697 957.0906 90.8756 958.7672 90.205 961.4497 89.7579 961.338 88.6402 962.2321 85.7341 962.791 85.0635 963.0145 83.7222 962.3439 82.7163 961.4497 82.1574 961.0026 81.375 961.4497 80.8162 961.5615 80.4809 961.5615 80.1455 961.4497 79.8102 961.2262 79.4749 960.2202 78.5807 959.8849 78.2454 959.7732 77.7983 959.9967 77.463 960.4438 76.7924 960.8909 76.01 961.338 74.557 961.4497 74.3334 961.785 73.9981 962.2321 73.7746 963.2381 73.7746 963.6851 73.9981 964.244 74.4452 965.697 75.8982 965.9206 76.1218 966.1441 76.4571 966.8147 76.5689 967.2618 75.8982 968.156 73.7746 968.156 73.2157 968.0442 72.6569 967.9325 72.3216 967.7089 71.3156 968.2678 70.9803 969.7208 71.4274 971.062 70.1979 971.3974 69.3037 971.3974 68.6331 971.3974 68.2978 971.1738 67.9625 970.8385 67.8507 970.3914 67.5154 970.0561 67.2919 969.8326 66.6212 969.7208 66.2859 969.8326 66.0624 970.8385 66.1741 971.3974 65.8388 971.1738 64.3858 971.2856 63.3799 971.6209 61.8151 972.7386 58.2384 975.8682 58.0149 977.2095 58.3502 977.9919 58.3502 978.3272 57.7913 979.892 56.6736 980.3391 56.5618 980.0037 57.6795 979.7802 58.0149 979.892 58.2384 980.2273 58.4619 980.4508 58.5737 980.7861 58.6855 981.1215 58.7972 981.1215 59.2443 980.8979 59.6914 980.8979 60.1385 981.1215 60.9209 981.345 61.5915 981.7921 62.1504 985.3688 64.0505 987.1571 64.0505 987.8277 64.274 987.6042 65.28 987.1571 65.9506 987.2689 66.6212 987.716 67.2919 988.9454 68.6331 989.5043 69.6391 990.3985 71.7627 990.7338 72.8804 991.0691 73.3275 991.6279 73.551 992.075 73.7746 992.2986 74.557 992.1868 75.2276 991.5162 75.4512 991.4044 76.7924 991.5162 77.1277 991.6279 77.6866 991.6279 78.0219 991.5162 78.2454 991.4044 78.8043 991.4044 79.8102 991.5162 80.5926 991.9633 82.381 992.2986 84.1693 992.4103 85.0635 992.4103 85.7341 992.075 86.6283 991.1809 88.4166 990.9573 89.199 991.0691 90.0932 991.4044 90.652 991.8515 91.2109 992.2986 91.8815 992.5221 92.7757 992.4103 93.4463 991.4044 94.7876 990.622 96.6877 990.9573 98.3642 991.8515 99.929 993.1927 101.2703 992.5221 102.4998 992.1868 102.8351 990.3985 104.1763 990.1749 104.5117 989.9514 104.847 989.9514 105.2941 989.9514 105.7411 989.8396 106.0765 989.0572 106.6353 988.2748 106.6353 987.4924 106.5235 987.2689 106.6353Z" />
  <path class="Leiria" d="M939.2073 124.2952L938.4249 125.86 938.0895 126.1953 937.6425 126.5306 937.3072 126.5306 936.9718 126.7541 936.6365 127.2012 936.3012 127.6483 936.0777 127.8718 935.6306 127.7601 933.8422 128.3189 933.6187 128.5425 933.3952 128.8778 933.3952 129.1013 933.3952 129.4366 933.1716 129.6602 932.8363 130.1073 932.8363 130.3308 933.0598 131.0014 931.3833 130.7779 931.048 130.6661 931.048 130.8897 931.048 131.3367 931.2715 132.3427 931.048 132.4545 930.2656 132.3427 929.3714 132.7898 928.8125 132.9015 927.136 133.4604 926.4653 133.6839 926.3536 133.4604 926.2418 133.2369 926.2418 132.7898 925.9065 131.5603 925.7947 130.8897 925.2359 128.766 924.677 128.8778 924.1182 129.3249 923.7828 129.3249 923.224 129.5484 921.2121 131.0014 920.4297 131.3367 919.9826 131.4485 919.2002 131.225 917.4119 132.1191 917.1883 132.4545 916.9648 132.9015 916.9648 133.3486 917.0766 134.2428 917.0766 134.9134 917.1883 135.2487 917.4119 135.584 917.7472 135.8076 918.0825 136.2547 918.3061 137.0371 918.0825 137.5959 917.7472 137.8195 917.5237 138.1548 917.0766 138.3783 916.1824 139.049 916.6295 140.7255 916.6295 141.6197 917.0766 143.0727 916.853 143.5198 915.8471 144.8611 915.5118 144.9728 915.0647 144.9728 914.7294 144.7493 914.5058 144.7493 914.2823 144.9728 914.2823 145.4199 914.2823 145.7552 914.6176 146.3141 914.6176 146.4259 914.6176 146.5376 914.6176 146.7612 914.5058 147.0965 913.947 147.5436 911.9351 147.32 909.3644 147.5436 908.1349 147.9906 907.576 148.5495 906.2348 151.3438 905.8994 151.7909 905.5641 152.0144 904.7817 152.238 903.8876 153.8028 903.7758 154.3616 903.9993 155.3675 904.1111 157.0441 902.9934 156.7088 902.211 156.3735 901.6521 156.2617 901.0933 156.3735 900.8697 156.4853 900.4227 156.7088 899.6403 157.8265 898.6343 159.3913 897.8519 160.3972 896.9578 161.0679 896.2871 160.509 895.393 157.2677 895.0576 156.7088 894.7223 156.2617 894.4988 156.1499 894.2752 156.1499 893.7164 156.0382 893.3811 156.2617 891.7045 157.3794 890.1397 157.3794 889.8044 157.3794 889.4691 156.1499 889.022 155.0322 887.569 153.5792 887.2337 153.0204 887.6807 152.9086 889.5809 153.3557 892.4869 151.4556 893.2693 150.7849 894.1635 150.6732 894.6106 151.232 895.0576 151.4556 895.5047 150.8967 895.1694 150.2261 894.4988 149.5554 895.1694 148.5495 896.0636 147.4318 896.3989 146.8729 897.1813 146.4259 898.299 145.6435 898.9696 144.6375 899.305 143.8551 900.1991 142.2903 900.3109 141.3961 900.1991 140.3902 900.6462 138.9372 900.9815 137.0371 904.1111 128.4307 907.7996 117.5889 908.0231 117.7007 909.029 118.2595 909.4761 118.4831 910.035 118.7066 911.3762 119.0419 911.7116 118.9301 912.1586 118.5948 913.1646 118.1477 915.2882 118.3713 916.0706 118.3713 916.9648 118.5948 917.4119 118.9301 918.0825 119.6008 918.5296 120.1596 918.6414 120.2714 918.8649 120.2714 919.312 120.2714 919.5355 120.1596 919.6473 120.0479 920.2062 119.0419 920.5415 118.8184 920.8768 118.7066 921.1003 118.5948 921.3239 118.5948 921.6592 118.8184 921.8827 119.0419 922.218 120.2714 922.218 120.7185 922.218 121.6127 922.3298 121.948 922.4416 122.2833 922.6651 122.5068 923.0004 122.1715 923.6711 121.2773 924.7888 120.6067 926.13 119.489 926.9124 119.6008 927.0242 119.2655 927.3595 119.3772 927.6948 119.6008 928.1419 120.7185 928.589 121.7244 928.7008 122.395 928.7008 122.8421 928.4772 123.1774 928.1419 123.401 927.9184 123.6245 928.2537 123.7363 928.589 123.7363 930.2656 123.0657 931.6068 121.5009 932.0539 121.3891 932.7245 121.7244 933.0598 121.6127 933.2834 121.3891 933.3952 120.942 933.1716 120.6067 932.7245 120.1596 932.6128 120.0479 932.501 119.6008 932.501 119.2655 933.0598 118.2595 934.8482 116.6947 936.0777 117.2536 937.3072 115.577 937.866 115.9123 938.0895 116.1359 938.3131 116.4712 938.4249 116.8065 938.2013 118.3713 938.3131 119.2655 939.9897 121.948 939.5426 122.2833 939.319 122.5068 939.2073 123.0657 939.319 123.401 939.319 123.6245 939.4308 123.6245 939.2073 124.2952Z" />
  <path class="Lisboa" d="M907.0172 184.2045L906.5701 184.2045 906.123 184.3163 906.123 183.981 905.7877 183.3103 905.3406 182.3044 905.0053 181.1867 905.3406 180.4043 904.4464 180.5161 903.9993 179.6219 903.7758 178.3924 903.3287 177.1629 905.1171 173.4745 906.123 171.7979 907.576 170.792 908.3584 170.5684 910.1468 170.4567 910.9292 170.1213 912.3822 169.0036 912.3822 169.2272 912.2704 169.4507 912.0469 169.5625 911.2645 170.5684 909.6997 171.0155 909.9232 171.4626 910.2585 171.7979 909.4761 173.0274 909.3644 173.4745 908.9173 174.0333 908.4702 174.9275 907.1289 178.7277 906.5701 179.8454 906.2348 180.2925 905.6759 180.9631 905.6759 181.522 906.3465 182.4162 906.4583 182.6397 906.6818 182.975 907.0172 184.2045ZM912.2704 168.333L910.4821 169.6743 907.0172 170.1213 906.4583 170.5684 905.6759 172.0215 903.664 174.8157 901.4286 179.2866 900.1991 180.7396 899.752 181.522 899.5285 182.3044 899.6403 183.3103 899.752 185.0987 899.8638 186.3282 899.305 187.5576 897.1813 188.1165 894.9459 188.5636 892.2634 188.34 891.5927 188.8989 890.8103 189.7931 889.2455 188.7871 887.4572 188.0047 886.4513 187.893 884.7747 188.1165 883.8805 187.893 883.9923 186.7752 884.2158 185.8811 883.657 183.6457 883.657 182.5279 883.8805 182.0809 884.4394 181.4102 885.4453 180.4043 886.6748 176.2688 886.563 173.0274 886.116 171.1273 886.563 169.8978 886.6748 168.5565 888.3514 165.6505 888.7985 164.1975 889.5809 162.2974 889.8044 160.3972 890.0279 158.7207 889.8044 157.3794 890.1397 157.3794 891.7045 157.3794 893.3811 156.2617 893.7164 156.0382 894.2752 156.1499 894.4988 156.1499 894.7223 156.2617 895.0576 156.7088 895.393 157.2677 896.2871 160.509 896.9578 161.0679 897.8519 160.3972 898.6343 159.3913 899.6403 157.8265 900.4227 156.7088 900.8697 156.4853 901.0933 156.3735 901.6521 156.2617 902.211 156.3735 902.9934 156.7088 904.1111 157.0441 904.5582 158.2736 904.4464 159.056 907.2407 159.8384 908.9173 159.3913 909.2526 160.1737 911.2645 162.1856 910.7056 162.6327 910.035 162.8562 908.9173 162.7444 908.3584 162.968 907.7996 163.4151 907.7996 163.6386 908.0231 163.9739 908.3584 164.0857 908.582 164.3092 908.9173 164.9799 909.029 165.3152 910.2585 166.4329 910.4821 166.6564 911.3762 166.9917 911.5998 167.2153 911.8233 167.3271 911.9351 167.6624 912.2704 168.333ZM902.211 179.5101L902.4345 179.3983 902.4345 179.7337 902.211 180.5161 901.6521 181.2985 900.8697 182.0809 900.6462 181.9691 900.9815 181.0749 901.3168 180.2925 901.7639 179.8454 902.0992 179.6219 902.211 179.5101Z" />
  <path class="Madeira" d="M600.5406 497.9462L599.0876 495.599 598.7523 495.1519 598.5287 494.7048 598.3052 494.2578 598.3052 493.5871 598.9758 494.2578 599.7582 495.3755 600.3171 496.7167 600.5406 497.9462ZM588.2458 488.5574L587.5751 490.0105 585.8986 490.5693 583.8867 490.6811 580.6453 490.4575 573.9391 487.6633 572.3743 486.6573 571.033 485.4278 569.9153 484.0866 569.58 483.1924 569.4682 482.41 569.6917 481.6276 570.3624 481.4041 570.5859 481.1805 571.5919 479.7275 571.9272 479.504 572.2625 479.504 572.486 479.504 572.9331 479.7275 573.3802 480.0628 574.3861 481.1805 574.8332 481.4041 575.0568 481.4041 575.9509 481.7394 576.9569 482.41 578.0746 482.5218 579.1923 482.1865 579.9747 481.7394 580.5336 481.4041 581.4277 481.2923 582.9925 481.0688 583.6631 481.2923 584.8926 482.1865 585.3397 482.41 587.4634 483.9748 587.9105 484.3101 588.3575 484.4219 589.9223 484.4219 590.7047 484.6454 591.3754 485.0925 591.7107 484.7572 592.1578 484.6454 592.6048 484.7572 592.9402 485.0925 592.2695 485.2043 590.8165 485.8749 590.3694 485.9867 589.8106 486.4338 588.5811 488.1103 588.2458 488.5574ZM606.4645 470.674L605.9056 471.3447 605.4585 471.7917 604.8997 471.9035 604.1173 471.4564 604.1173 471.1211 604.5644 471.1211 604.7879 470.8976 605.1232 470.5623 605.5703 468.9975 606.3527 468.3268 607.3586 468.1033 608.2528 468.5504 608.4763 468.1033 608.4763 469.5563 608.6999 470.1152 609.0352 470.4505 607.6939 470.227 607.0233 470.227 606.4645 470.674ZM619.0946 614.4118L619.3182 614.5235 619.3182 614.6353 619.0946 614.6353 619.0946 614.4118ZM625.6891 608.8232L626.1362 609.1585 626.1362 609.4938 625.9127 609.7174 625.8009 609.7174 625.4656 609.6056 625.3538 609.4938 625.3538 609.3821 625.3538 609.2703 625.6891 608.8232Z" />
  <path class="Portalegre" d="M975.7564 184.7634L975.4211 184.4281 975.4211 183.981 975.5329 183.6457 976.0917 182.7515 976.2035 182.4162 976.2035 181.7455 975.98 181.2985 975.5329 181.0749 975.0858 180.8514 974.3034 180.8514 973.0739 181.1867 972.2915 181.9691 971.3974 182.8633 970.8385 183.0868 970.615 182.975 969.9443 182.975 969.2737 182.6397 968.9384 182.3044 968.3795 181.2985 968.156 180.8514 968.3795 180.069 967.8207 179.2866 967.7089 178.5042 967.3736 177.4982 966.4794 176.7158 966.4794 176.157 966.3677 175.8217 966.2559 174.9275 966.0323 174.4804 965.3617 173.8098 963.6851 173.1392 963.5734 172.5803 963.4616 172.5803 963.3498 172.6921 963.1263 172.5803 962.6792 173.0274 962.9028 173.4745 963.0145 173.698 963.0145 174.0333 962.9028 174.3686 962.4557 174.704 961.8968 174.9275 961.0026 175.151 960.4438 175.2628 959.8849 175.8217 959.6614 176.157 959.4378 176.6041 959.2143 176.7158 958.9908 176.8276 958.6554 176.9394 957.7613 176.6041 957.426 176.4923 956.9789 176.4923 956.6436 176.7158 956.3083 176.6041 955.6376 176.2688 955.3023 176.157 954.6317 177.0512 954.2964 177.3865 952.9551 177.9453 952.1727 177.8336 951.8374 177.9453 951.2785 177.9453 950.9432 177.8336 949.7138 177.0512 947.9254 174.5922 947.4783 174.1451 946.5842 174.3686 945.9135 174.8157 945.69 175.151 945.4664 175.3746 945.1311 175.4864 944.7958 175.5981 943.7899 175.4864 943.5663 175.3746 943.6781 174.8157 943.5663 174.0333 943.4546 173.5862 942.5604 172.5803 942.3369 172.4685 942.0015 172.3568 941.3309 172.4685 940.8838 172.5803 940.8838 172.6921 940.7721 172.8039 940.7721 173.0274 940.7721 173.3627 940.6603 173.698 940.4367 173.8098 940.1014 173.4745 939.9897 172.8039 940.1014 172.1332 940.2132 171.7979 940.2132 171.4626 939.5426 171.2391 938.4249 171.3508 938.2013 171.3508 937.866 171.5744 937.1954 171.9097 936.413 172.5803 934.6246 172.0215 934.0658 171.5744 933.954 171.1273 933.8422 170.792 933.5069 170.2331 933.0598 169.786 932.8363 169.4507 932.7245 169.0036 932.6128 168.4448 932.1657 168.1095 931.8304 167.7741 930.8244 167.4388 930.8244 166.5447 932.0539 164.6446 932.6128 164.0857 934.8482 162.5209 937.1954 160.2855 938.2013 159.5031 938.6484 158.3854 939.0955 157.8265 939.5426 157.7147 940.325 157.9383 940.8838 157.7147 941.2191 157.4912 941.3309 157.2677 941.5545 156.9323 942.4486 155.8146 943.1193 154.9205 943.231 154.5851 943.3428 153.8028 943.6781 153.5792 945.5782 152.238 946.4724 150.8967 946.3606 150.6732 946.1371 150.2261 945.5782 149.779 943.9017 148.1024 944.7958 145.867 945.69 144.5257 946.3606 143.8551 946.9195 143.6316 947.7019 143.8551 949.3784 144.7493 949.9373 145.3081 949.9373 145.4199 950.1608 145.3081 950.3844 145.1964 951.1668 144.1904 951.3903 143.9669 952.2845 143.5198 952.8433 142.8492 953.4022 142.0668 954.0728 141.2844 954.8552 140.9491 955.1905 140.6138 955.5259 139.8314 956.0847 138.9372 956.7553 138.4901 957.6495 138.4901 958.3201 138.9372 958.9908 139.049 959.8849 138.2666 960.4438 137.8195 961.1144 137.2606 961.8968 137.0371 962.3439 137.1488 962.6792 137.9312 964.0205 141.5079 964.6911 142.1785 965.9206 143.8551 966.5912 144.5257 967.9325 145.1964 968.2678 145.6435 968.7149 146.7612 969.2737 147.32 970.1679 147.7671 971.8444 148.2142 972.1798 148.6613 972.1798 149.8908 971.9562 151.0085 971.6209 151.7909 971.3974 152.5733 971.3974 153.691 971.6209 154.8087 971.9562 155.3675 972.7386 156.0382 974.7505 158.4971 974.1916 159.5031 974.0799 160.509 974.4152 161.6267 974.974 162.4091 975.98 162.968 977.0977 163.3033 978.1036 163.7504 978.5507 164.7563 978.4389 165.3152 977.9919 166.3211 978.1036 166.7682 978.5507 167.1035 979.1096 167.4388 979.6684 167.5506 980.2273 167.3271 981.2332 166.7682 982.2392 166.6564 983.3569 166.9917 984.251 167.5506 984.9217 168.2212 985.4805 169.1154 985.7041 170.2331 985.4805 171.1273 985.9276 171.4626 985.9276 171.9097 985.7041 172.4685 985.3688 172.9156 984.0275 175.5981 983.0216 176.8276 982.2392 177.61 982.798 178.616 982.5745 179.3983 982.5745 180.1807 982.2392 180.4043 981.7921 180.8514 981.2332 181.2985 980.6744 181.6338 978.7743 182.0809 978.3272 182.4162 978.1036 182.8633 977.5448 183.5339 976.8741 184.0927 976.3153 184.3163 975.7564 184.7634Z" />
  <path class="Porto" d="M945.3547 46.9495L946.0253 47.7319 946.0253 48.2908 946.0253 48.7378 946.3606 49.1849 946.9195 49.5202 948.0372 50.3026 947.8136 51.085 948.0372 51.8674 948.7078 53.0969 949.2667 53.4322 949.3784 53.544 948.8196 55.7794 948.8196 57.0089 948.596 58.3502 946.8077 59.4679 941.8898 61.1444 940.6603 61.2562 936.6365 61.0327 935.2953 61.2562 932.6128 62.3739 932.3892 62.9328 932.2774 63.1563 930.3773 64.4976 929.4832 64.1623 928.4772 64.7211 928.4772 64.9447 928.4772 65.28 928.7008 65.6153 928.7008 65.9506 928.589 66.1741 928.2537 66.1741 927.4713 65.6153 927.2477 65.0564 927.0242 64.7211 926.2418 63.827 925.4594 64.7211 925.3476 64.9447 925.0123 65.7271 924.7888 65.9506 924.3417 65.9506 923.7828 65.6153 923.4475 65.28 923.0004 65.1682 922.5534 65.1682 921.8827 65.6153 920.6532 66.0624 919.9826 65.6153 918.1943 65.8388 917.859 65.9506 917.859 65.1682 917.3001 61.5915 917.4119 59.6914 918.0825 59.0208 918.0825 58.6855 916.6295 58.2384 915.8471 56.7854 915.2882 54.8853 914.5058 53.4322 914.7294 52.6498 914.6176 52.091 914.3941 51.5321 914.1705 50.8615 914.1705 49.1849 914.0587 48.6261 913.7234 48.5143 913.6117 47.9554 913.3881 47.3966 912.8293 46.3906 912.6057 45.6083 912.6057 44.9376 912.4939 43.3728 912.941 41.6963 913.947 41.6963 914.8411 42.2551 915.9589 42.7022 916.9648 42.814 917.3001 42.9257 917.6354 43.2611 917.9707 43.4846 918.6414 44.267 919.2002 44.6023 919.6473 44.7141 920.0944 45.0494 920.2062 45.3847 920.0944 45.72 919.8708 45.8318 919.4238 45.9436 919.0884 46.3906 919.2002 46.726 919.312 47.5084 919.5355 47.8437 919.8708 48.0672 919.9826 48.0672 920.4297 47.9554 922.6651 47.9554 923.0004 47.8437 923.3358 47.7319 923.6711 47.5084 924.0064 47.2848 924.677 46.8377 925.4594 46.6142 925.9065 46.6142 926.2418 46.726 926.4653 46.9495 927.4713 47.173 928.8125 46.8377 930.3773 46.6142 930.7127 46.726 931.2715 47.0613 931.6068 47.0613 932.501 46.726 932.8363 46.6142 934.0658 46.0553 934.8482 45.4965 935.5188 44.4905 937.5307 45.2729 938.3131 46.1671 938.4249 46.3906 938.4249 46.9495 939.8779 48.0672 941.1074 48.6261 941.5545 48.5143 942.4486 48.9614 942.8957 49.4085 943.3428 49.2967 943.5663 49.1849 943.9017 48.9614 944.1252 48.7378 944.3487 48.5143 944.5723 48.2908 944.7958 48.179 945.0194 47.9554 945.1311 47.7319 945.2429 47.5084 945.3547 46.9495Z" />
  <path class="Santarém" d="M936.413 172.5803L936.0777 173.2509 935.7424 173.4745 935.1835 173.4745 935.0717 173.4745 934.8482 173.8098 934.7364 174.3686 934.7364 175.151 934.6246 175.7099 934.4011 176.157 934.1776 176.4923 933.954 176.8276 933.8422 177.1629 933.954 177.4982 934.1776 177.8336 934.5129 178.0571 936.6365 178.9513 937.0836 179.063 937.3072 179.1748 937.5307 179.6219 937.3072 180.5161 937.1954 180.8514 937.5307 181.2985 938.2013 182.0809 938.4249 182.0809 938.8719 182.1926 939.0955 182.5279 939.0955 182.975 938.8719 183.7574 938.2013 184.4281 937.5307 183.981 937.4189 183.7574 937.1954 183.0868 936.9718 182.975 936.7483 183.0868 936.5248 182.975 936.413 182.7515 936.3012 182.5279 936.1894 182.1926 935.9659 181.8573 935.5188 181.7455 934.1776 181.522 933.8422 181.1867 932.8363 180.069 932.501 179.8454 932.2774 179.8454 932.0539 180.069 931.9421 180.2925 931.7186 180.5161 931.495 180.4043 931.1597 180.4043 930.7127 180.6278 930.1538 180.5161 929.4832 180.2925 929.1479 180.2925 929.0361 180.5161 929.0361 180.8514 928.8125 181.1867 928.589 181.2985 928.3655 181.4102 928.1419 181.522 927.5831 181.522 927.2477 181.6338 926.3536 182.4162 925.9065 182.7515 924.1182 183.0868 922.218 184.7634 921.2121 184.5398 920.765 184.6516 920.3179 184.5398 919.8708 183.8692 919.7591 183.4221 919.8708 182.975 919.8708 182.6397 919.8708 182.1926 919.9826 181.8573 919.9826 181.6338 919.7591 181.522 919.0884 181.7455 918.3061 182.3044 917.1883 181.8573 916.6295 181.522 916.4059 181.2985 916.1824 181.1867 915.8471 181.2985 914.7294 183.6457 914.1705 185.0987 914.0587 185.434 913.4999 186.2164 912.8293 186.4399 912.4939 186.4399 911.3762 186.1046 911.0409 185.5458 910.7056 185.434 910.2585 185.3222 909.5879 185.5458 909.1408 185.7693 908.3584 186.1046 907.7996 186.1046 907.4642 185.9928 907.1289 185.6575 906.9054 184.8751 907.0172 184.2045 906.6818 182.975 906.4583 182.6397 906.3465 182.4162 905.6759 181.522 905.6759 180.9631 906.2348 180.2925 906.5701 179.8454 907.1289 178.7277 908.4702 174.9275 908.9173 174.0333 909.3644 173.4745 909.4761 173.0274 910.2585 171.7979 909.9232 171.4626 909.6997 171.0155 911.2645 170.5684 912.0469 169.5625 912.2704 169.4507 912.3822 169.2272 912.3822 169.0036 912.941 168.333 913.3881 167.5506 912.2704 168.333 911.9351 167.6624 911.8233 167.3271 911.5998 167.2153 911.3762 166.9917 910.4821 166.6564 910.2585 166.4329 909.029 165.3152 908.9173 164.9799 908.582 164.3092 908.3584 164.0857 908.0231 163.9739 907.7996 163.6386 907.7996 163.4151 908.3584 162.968 908.9173 162.7444 910.035 162.8562 910.7056 162.6327 911.2645 162.1856 909.2526 160.1737 908.9173 159.3913 907.2407 159.8384 904.4464 159.056 904.5582 158.2736 904.1111 157.0441 903.9993 155.3675 903.7758 154.3616 903.8876 153.8028 904.7817 152.238 905.5641 152.0144 905.8994 151.7909 906.2348 151.3438 907.576 148.5495 908.1349 147.9906 909.3644 147.5436 911.9351 147.32 913.947 147.5436 914.5058 147.0965 914.6176 146.7612 914.6176 146.5376 914.6176 146.4259 914.6176 146.3141 914.2823 145.7552 914.2823 145.4199 914.2823 144.9728 914.5058 144.7493 914.7294 144.7493 915.0647 144.9728 915.5118 144.9728 915.8471 144.8611 916.853 143.5198 917.0766 143.0727 916.6295 141.6197 916.6295 140.7255 916.1824 139.049 917.0766 138.3783 917.5237 138.1548 917.7472 137.8195 918.0825 137.5959 918.3061 137.0371 918.0825 136.2547 917.7472 135.8076 917.4119 135.584 917.1883 135.2487 917.0766 134.9134 917.0766 134.2428 916.9648 133.3486 916.9648 132.9015 917.1883 132.4545 917.4119 132.1191 919.2002 131.225 919.9826 131.4485 920.4297 131.3367 921.2121 131.0014 923.224 129.5484 923.7828 129.3249 924.1182 129.3249 924.677 128.8778 925.2359 128.766 925.7947 130.8897 925.9065 131.5603 926.2418 132.7898 926.2418 133.2369 926.3536 133.4604 926.4653 133.6839 927.136 133.4604 928.8125 132.9015 929.3714 132.7898 930.2656 132.3427 931.048 132.4545 931.2715 132.3427 931.048 131.3367 931.048 130.8897 931.048 130.6661 931.3833 130.7779 933.0598 131.0014 933.2834 131.7838 933.7305 132.0074 934.2893 132.2309 934.7364 132.4545 934.96 132.678 935.0717 133.0133 935.1835 133.2369 935.1835 133.5722 935.0717 133.7957 935.1835 134.6899 934.96 135.2487 934.96 136.2547 935.0717 138.1548 935.407 138.8254 937.6425 139.7196 938.7602 140.3902 939.5426 140.3902 940.9956 140.2784 941.8898 139.9431 941.8898 139.7196 941.778 139.3843 941.5545 138.4901 941.4427 137.9312 941.6662 137.2606 942.0015 136.7018 942.4486 134.0193 942.6722 133.6839 943.4546 133.4604 944.7958 133.9075 945.8018 134.0193 946.0253 134.2428 946.1371 134.5781 946.2488 134.9134 946.2488 135.3605 946.2488 135.6958 946.3606 136.4782 946.2488 137.2606 946.3606 137.7077 946.6959 137.9312 947.143 138.043 947.5901 138.043 948.3725 138.3783 949.0431 138.8254 949.7138 139.3843 950.6079 140.2784 951.3903 141.6197 951.6139 142.0668 951.9492 142.9609 952.2845 143.5198 951.3903 143.9669 951.1668 144.1904 950.3844 145.1964 950.1608 145.3081 949.9373 145.4199 949.9373 145.3081 949.3784 144.7493 947.7019 143.8551 946.9195 143.6316 946.3606 143.8551 945.69 144.5257 944.7958 145.867 943.9017 148.1024 945.5782 149.779 946.1371 150.2261 946.3606 150.6732 946.4724 150.8967 945.5782 152.238 943.6781 153.5792 943.3428 153.8028 943.231 154.5851 943.1193 154.9205 942.4486 155.8146 941.5545 156.9323 941.3309 157.2677 941.2191 157.4912 940.8838 157.7147 940.325 157.9383 939.5426 157.7147 939.0955 157.8265 938.6484 158.3854 938.2013 159.5031 937.1954 160.2855 934.8482 162.5209 932.6128 164.0857 932.0539 164.6446 930.8244 166.5447 930.8244 167.4388 931.8304 167.7741 932.1657 168.1095 932.6128 168.4448 932.7245 169.0036 932.8363 169.4507 933.0598 169.786 933.5069 170.2331 933.8422 170.792 933.954 171.1273 934.0658 171.5744 934.6246 172.0215 936.413 172.5803Z" />
  <path class="Setúbal" d="M922.218 184.7634L923.8946 185.0987 924.1182 185.2105 924.2299 185.7693 923.7828 186.5517 923.8946 186.887 923.7828 187.5576 923.4475 188.1165 922.7769 188.8989 919.4238 191.2461 917.9707 193.1462 917.9707 193.4815 917.9707 194.0404 918.1943 194.3757 918.3061 194.711 918.5296 196.0523 919.7591 196.164 921.3239 197.17 922.4416 197.2817 923.4475 197.6171 923.6711 197.5053 923.7828 197.17 923.6711 196.8347 923.5593 196.6111 923.7828 196.3876 924.1182 196.4993 924.4535 196.6111 924.5652 196.9464 924.7888 197.17 925.1241 197.3935 925.6829 197.6171 926.8007 197.6171 927.3595 197.3935 928.3655 196.7229 929.0361 196.6111 929.4832 196.7229 930.2656 197.7288 930.7127 198.2877 930.9362 198.623 931.048 198.8465 931.048 199.1818 931.6068 200.5231 931.6068 200.8584 931.3833 201.082 931.3833 201.3055 931.6068 201.6408 932.1657 201.8644 932.501 202.0879 932.7245 202.535 932.501 203.4292 931.8304 204.5469 931.8304 204.9939 932.1657 205.1057 932.9481 205.441 933.5069 205.8881 934.4011 206.447 934.7364 206.5587 935.1835 206.5587 935.5188 206.5587 936.3012 206.8941 937.7542 208.0118 938.7602 210.2472 939.0955 211.4767 939.0955 212.0355 939.0955 212.3708 938.8719 212.9297 937.4189 213.3768 936.7483 213.7121 935.2953 214.0474 934.96 214.1592 934.8482 214.718 934.6246 215.1651 933.1716 215.1651 932.8363 215.3887 932.7245 215.6122 932.6128 216.0593 932.3892 216.9535 932.0539 217.177 931.8304 217.0652 931.495 216.8417 931.048 216.6182 930.8244 216.7299 930.6009 216.9535 930.2656 217.0652 930.1538 217.2888 930.1538 217.5123 930.1538 217.7359 930.042 217.9594 929.9303 218.5183 929.8185 218.63 929.7067 218.8536 929.4832 218.8536 929.2596 218.8536 929.0361 218.7418 928.7008 218.7418 928.4772 219.1889 928.3655 219.5242 928.2537 219.8595 928.2537 220.1948 928.1419 220.5301 928.1419 220.7537 928.2537 221.089 928.3655 221.5361 929.1479 222.2067 929.8185 222.8773 930.2656 223.2127 930.7127 223.3244 931.2715 223.3244 931.8304 223.7715 932.0539 224.2186 932.501 225.3363 932.501 226.7893 932.2774 229.1365 931.8304 230.4778 931.6068 230.8131 931.048 232.2661 929.8185 231.5955 929.7067 231.5955 928.589 231.5955 926.8007 231.2602 923.224 231.9308 922.5534 232.2661 922.1063 232.6014 921.9945 233.0485 921.8827 233.3838 921.1003 234.1662 920.9886 234.5015 920.5415 235.6193 920.5415 236.0663 920.4297 236.4017 920.2062 236.737 919.5355 237.0723 919.0884 236.9605 918.4178 236.737 918.0825 236.4017 917.7472 236.2899 917.4119 236.1781 917.1883 236.2899 917.0766 236.6252 916.853 236.8487 916.6295 236.8487 916.5177 236.6252 916.0706 235.9546 915.0647 234.6133 914.9529 234.3898 914.6176 233.9427 913.947 233.7191 913.6117 233.8309 913.2763 234.0545 913.0528 234.1662 912.7175 234.1662 912.4939 234.0545 912.2704 233.7191 911.9351 233.2721 912.0469 232.3779 912.0469 230.7013 911.7116 229.4718 911.1527 228.1306 909.8114 227.907 908.1349 226.9011 908.2466 226.454 908.582 226.2305 908.9173 226.1187 909.2526 225.7834 911.2645 221.2008 912.0469 217.5123 912.941 214.8298 912.8293 212.0355 912.4939 208.7942 912.1586 205.8881 911.1527 203.8762 910.035 202.7585 908.8055 201.1937 907.3525 200.076 906.123 199.6289 906.7936 198.9583 907.6878 199.2936 909.2526 200.6349 911.0409 201.3055 911.9351 201.7526 912.0469 202.4232 913.7234 202.4232 917.7472 203.4292 919.7591 202.8703 918.5296 202.7585 917.5237 202.535 914.5058 201.082 914.1705 200.6349 913.947 199.9642 913.8352 199.2936 913.947 198.623 914.1705 198.0641 914.5058 197.8406 914.5058 197.5053 913.947 197.2817 913.4999 196.6111 913.3881 195.9405 913.6117 195.3816 913.0528 195.2699 912.2704 196.8347 911.3762 197.17 911.3762 197.5053 912.3822 197.6171 912.7175 198.2877 912.7175 199.1818 912.3822 199.6289 911.488 199.5172 910.5938 199.2936 909.2526 198.5112 907.6878 197.9524 905.6759 198.3994 903.8876 200.5231 904.2229 200.7466 901.8757 201.6408 897.9637 202.1997 897.0695 202.535 896.5107 202.9821 895.7283 203.0938 894.7223 202.8703 894.4988 202.8703 894.387 202.535 894.387 202.1997 894.4988 201.8644 894.6106 201.7526 894.9459 201.3055 896.1754 200.076 896.3989 198.3994 896.3989 195.9405 895.393 193.5933 894.1635 191.5814 893.6046 190.0166 894.387 189.6813 896.2871 189.346 897.9637 189.2342 898.8579 189.7931 899.1932 190.3519 899.5285 190.3519 899.1932 189.346 899.8638 189.0107 901.0933 188.6754 901.7639 188.5636 901.7639 188.2283 902.3228 187.5576 902.9934 186.887 904.1111 185.9928 905.5641 184.7634 905.7877 184.6516 906.0112 184.4281 906.123 184.3163 906.5701 184.2045 907.0172 184.2045 906.9054 184.8751 907.1289 185.6575 907.4642 185.9928 907.7996 186.1046 908.3584 186.1046 909.1408 185.7693 909.5879 185.5458 910.2585 185.3222 910.7056 185.434 911.0409 185.5458 911.3762 186.1046 912.4939 186.4399 912.8293 186.4399 913.4999 186.2164 914.0587 185.434 914.1705 185.0987 914.7294 183.6457 915.8471 181.2985 916.1824 181.1867 916.4059 181.2985 916.6295 181.522 917.1883 181.8573 918.3061 182.3044 919.0884 181.7455 919.7591 181.522 919.9826 181.6338 919.9826 181.8573 919.8708 182.1926 919.8708 182.6397 919.8708 182.975 919.7591 183.4221 919.8708 183.8692 920.3179 184.5398 920.765 184.6516 921.2121 184.5398 922.218 184.7634Z" />
  <path class="Viana do Castelo" d="M937.0836 22.9187L936.9718 23.0305 936.413 23.0305 932.6128 25.1541 931.6068 25.4894 928.0301 25.6012 927.4713 25.8248 926.9124 26.0483 926.5771 26.2718 925.9065 26.8307 925.1241 27.166 924.9006 27.0542 924.5652 27.0542 924.2299 27.0542 924.0064 27.2778 923.6711 27.6131 923.5593 27.9484 923.4475 28.3955 923.3358 29.2897 923.3358 29.625 923.224 29.9603 922.7769 30.4074 922.6651 30.7427 922.5534 31.078 922.6651 31.6369 921.9945 32.9781 921.771 32.8663 921.3239 32.7546 920.8768 32.531 920.0944 32.4193 918.8649 31.9722 918.5296 31.7486 918.4178 31.8604 918.1943 32.0839 917.9707 32.4193 917.5237 32.4193 915.5118 32.531 912.4939 33.6487 912.1586 33.6487 911.3762 33.537 911.1527 33.537 911.1527 32.8663 910.8174 31.8604 910.7056 30.6309 910.8174 29.9603 911.7116 29.625 914.2823 29.1779 914.9529 28.9543 915.6235 28.3955 916.1824 27.8366 911.7116 29.1779 910.7056 29.4014 910.2585 29.2897 909.4761 28.8426 908.6937 27.0542 908.6937 25.4894 909.029 23.0305 908.8055 21.4657 908.9173 20.9068 909.2526 20.4597 912.0469 18.0008 913.4999 16.436 913.947 14.4241 914.3941 14.0888 915.2882 13.6417 916.4059 13.3064 917.1883 12.7475 917.5237 12.1887 917.9707 11.071 918.3061 10.5121 918.9767 9.9532 919.6473 9.8415 921.1003 9.7297 921.8827 9.5062 923.3358 8.5002 924.0064 8.1649 930.2656 7.159 931.048 6.8237 932.0539 5.9295 932.3892 5.7059 932.7245 5.5942 933.3952 5.5942 934.1776 5.2589 935.407 4.3647 935.7424 4.9235 936.0777 5.7059 935.9659 8.0531 936.0777 8.9473 936.6365 9.3944 937.1954 9.1708 937.9778 8.8355 938.7602 8.7238 939.5426 9.0591 940.2132 9.7297 940.5485 10.5121 940.4367 11.518 939.9897 12.1887 939.319 12.7475 938.2013 13.4182 936.9718 14.6476 935.407 16.9948 935.0717 17.889 934.96 19.0067 935.407 19.9009 936.8601 20.4597 937.1954 20.9068 937.3072 21.6892 937.0836 22.9187Z" />
  <path class="Vila Real" d="M976.4271 18.7832L976.4271 19.1185 976.7624 20.1244 976.6506 20.6833 976.5388 21.801 976.6506 22.8069 976.7624 23.254 977.0977 24.26 977.8801 25.2659 977.8801 25.713 977.8801 26.4954 977.7683 26.8307 977.5448 27.166 977.3212 27.2778 976.9859 27.6131 975.98 29.7367 974.6387 34.2076 974.527 35.6606 974.527 36.443 974.6387 36.8901 974.8623 37.2254 975.0858 37.5607 975.1976 37.896 975.3094 38.2314 975.1976 38.5667 974.8623 38.6784 974.527 38.7902 974.1916 38.7902 973.7446 39.0138 973.4092 39.4608 972.8504 40.355 972.6268 41.2492 972.2915 41.6963 971.8444 41.9198 971.5091 42.0316 970.1679 43.0375 970.1679 45.72 970.3914 46.8377 970.7267 47.5084 971.062 47.9554 972.068 48.5143 970.615 48.9614 969.9443 49.7438 969.8326 50.3026 969.9443 50.638 969.8326 50.8615 969.3855 51.3086 969.0502 51.7557 968.9384 52.5381 968.8266 52.9851 968.9384 53.3205 968.9384 53.544 968.8266 53.6558 968.2678 53.7675 967.8207 53.9911 967.7089 54.2146 967.5971 54.5499 967.3736 55.2206 962.5674 57.0089 960.6673 57.2325 958.9908 57.1207 958.879 57.1207 958.2084 57.1207 957.6495 57.456 956.42 58.2384 955.7494 58.5737 954.967 58.6855 954.1846 58.5737 953.514 58.4619 953.0669 58.0149 952.0609 57.1207 951.5021 56.7854 950.7197 56.8971 948.596 58.3502 948.8196 57.0089 948.8196 55.7794 949.3784 53.544 949.2667 53.4322 948.7078 53.0969 948.0372 51.8674 947.8136 51.085 948.0372 50.3026 946.9195 49.5202 946.3606 49.1849 946.0253 48.7378 946.0253 48.2908 946.0253 47.7319 945.3547 46.9495 945.69 45.9436 945.69 45.72 945.5782 45.2729 945.69 45.1612 945.8018 45.0494 946.0253 44.9376 946.1371 44.4905 946.6959 43.5964 946.8077 43.1493 946.9195 42.9257 946.6959 42.4787 947.0312 41.2492 947.4783 40.6903 947.7019 40.5785 947.8136 40.5785 948.149 40.5785 948.596 40.2432 948.8196 39.5726 948.9314 39.4608 949.7138 39.0138 950.1608 38.5667 951.8374 36.1077 951.9492 35.4371 951.2785 34.2076 951.055 33.984 950.6079 33.7605 949.8255 34.6547 948.596 35.1018 948.0372 34.99 946.4724 34.6547 946.1371 34.5429 945.69 34.3194 945.2429 34.2076 944.4605 33.8723 944.5723 31.4133 944.684 30.9662 944.7958 30.2956 944.684 29.9603 944.5723 29.7367 943.4546 29.0661 943.231 28.9543 942.8957 28.9543 942.2251 29.2897 941.8898 29.2897 941.5545 29.2897 941.2191 29.2897 940.8838 29.2897 940.6603 29.4014 940.1014 29.5132 939.5426 29.5132 940.5485 28.3955 940.6603 28.0602 940.8838 27.6131 941.3309 26.3836 941.6662 25.713 942.0015 24.1482 942.1133 23.8129 942.3369 23.4776 942.4486 23.1422 942.4486 22.9187 942.3369 22.8069 942.4486 22.6952 943.6781 21.3539 944.1252 20.6833 944.5723 20.1244 945.2429 19.9009 945.8018 20.0127 946.5842 20.0127 947.0312 19.342 947.143 18.3361 947.3666 17.7772 948.149 17.4419 948.2607 18.8949 948.596 20.4597 949.8255 20.4597 950.1608 20.1244 950.2726 19.7891 950.4961 19.5656 950.8315 19.342 951.9492 19.4538 954.5199 18.7832 955.6376 18.2243 956.3083 18.4479 957.426 19.2303 958.0966 19.5656 960.2202 19.6773 959.6614 21.3539 959.6614 21.9128 960.332 22.2481 961.0026 22.3598 961.8968 22.1363 962.6792 21.9128 963.3498 21.4657 963.5734 21.0186 963.5734 20.6833 963.6851 20.348 964.0205 20.1244 964.244 20.1244 964.9146 20.5715 965.2499 20.5715 965.8088 20.795 966.3677 21.4657 966.8147 22.4716 966.9265 23.3658 967.4854 22.8069 968.4913 21.6892 969.0502 21.3539 969.609 21.2421 971.062 21.2421 971.8444 21.1304 974.6387 20.1244 975.98 19.342 976.4271 18.7832Z" />
  <path class="Viseu" d="M972.7386 58.2384L971.6209 61.8151 971.2856 63.3799 971.1738 64.3858 971.3974 65.8388 970.8385 66.1741 969.8326 66.0624 969.7208 66.2859 969.8326 66.6212 970.0561 67.2919 970.3914 67.5154 970.8385 67.8507 971.1738 67.9625 971.3974 68.2978 971.3974 68.6331 971.3974 69.3037 971.062 70.1979 969.7208 71.4274 968.2678 70.9803 967.7089 71.3156 967.9325 72.3216 968.0442 72.6569 968.156 73.2157 968.156 73.7746 967.2618 75.8982 966.8147 76.5689 966.1441 76.4571 965.9206 76.1218 965.697 75.8982 964.244 74.4452 963.6851 73.9981 963.2381 73.7746 962.2321 73.7746 961.785 73.9981 961.4497 74.3334 961.338 74.557 960.8909 76.01 960.4438 76.7924 959.9967 77.463 959.7732 77.7983 959.8849 78.2454 960.2202 78.5807 961.2262 79.4749 961.4497 79.8102 961.5615 80.1455 961.5615 80.4809 961.4497 80.8162 961.0026 81.375 961.4497 82.1574 962.3439 82.7163 963.0145 83.7222 962.791 85.0635 962.2321 85.7341 961.338 88.6402 961.4497 89.7579 958.7672 90.205 957.0906 90.8756 955.7494 91.7697 954.6317 92.2168 953.514 92.9992 953.0669 93.111 951.8374 93.3345 951.5021 93.6699 950.6079 93.8934 950.1608 94.2287 949.7138 94.7876 948.3725 95.7935 947.3666 97.3583 946.6959 97.6936 944.9076 98.9231 942.6722 99.929 939.6543 102.1645 937.3072 101.8292 935.6306 102.1645 935.407 102.2762 935.2953 102.4998 935.2953 102.7233 935.1835 102.9469 935.0717 103.1704 934.8482 103.1704 934.5129 102.8351 933.8422 102.4998 933.1716 101.9409 932.2774 101.2703 931.048 100.935 930.6009 100.5997 930.1538 100.3761 930.042 98.8113 931.1597 96.9112 931.3833 96.4641 931.3833 95.7935 930.9362 95.1229 930.8244 94.6758 930.9362 94.4523 931.8304 93.6699 934.0658 92.7757 933.6187 91.9933 933.3952 91.658 933.0598 91.4344 932.8363 91.0991 932.6128 90.0932 932.1657 88.9755 932.1657 88.5284 932.3892 88.1931 932.6128 87.8578 934.2893 87.2989 933.6187 86.74 932.8363 86.4047 932.7245 86.293 932.3892 85.5106 932.3892 84.0575 932.2774 83.7222 931.9421 83.2751 931.3833 82.6045 931.2715 82.2692 931.1597 81.9339 931.1597 81.7103 931.1597 81.4868 931.6068 80.8162 932.501 80.0338 933.5069 78.9161 934.2893 77.1277 934.6246 76.5689 934.7364 76.2336 934.2893 74.557 935.5188 74.4452 935.8541 74.6688 936.3012 74.6688 936.7483 74.6688 937.5307 74.2217 937.9778 74.2217 938.3131 74.3334 938.6484 74.6688 938.9837 74.7805 939.319 74.7805 939.6543 74.6688 939.8779 74.3334 939.8779 73.6628 939.5426 72.7686 939.319 71.3156 939.2073 70.645 939.0955 70.3097 939.319 69.6391 939.4308 69.0802 940.7721 67.1801 940.7721 66.9565 940.8838 66.8448 940.8838 66.733 940.7721 66.5095 940.6603 66.2859 940.4367 66.2859 939.8779 66.733 939.7661 66.8448 939.6543 67.0683 939.319 67.7389 938.7602 67.8507 938.3131 67.8507 935.2953 66.3977 935.2953 65.1682 935.2953 64.8329 935.1835 64.274 935.0717 63.9387 932.6128 62.3739 935.2953 61.2562 936.6365 61.0327 940.6603 61.2562 941.8898 61.1444 946.8077 59.4679 948.596 58.3502 950.7197 56.8971 951.5021 56.7854 952.0609 57.1207 953.0669 58.0149 953.514 58.4619 954.1846 58.5737 954.967 58.6855 955.7494 58.5737 956.42 58.2384 957.6495 57.456 958.2084 57.1207 958.879 57.1207 958.9908 57.1207 960.6673 57.2325 962.5674 57.0089 967.3736 55.2206 967.9325 55.2206 968.6031 55.6677 969.8326 57.456 970.2796 57.9031 971.6209 58.3502 972.7386 58.2384Z" />
</svg>