<?xml version="1.0" encoding="utf-8"?>
<svg xmlns="http://www.w3.org/2000/svg" viewBox="0 0 881 1024" style="stroke-width:0.25px;stroke-linejoin:round;stroke:#444;fill:#ddd" fill-rule="evenodd">
  <path class="Bouenza" d="M320.6343 847.3135L324.7699 849.6607 325.8876 849.8843 329.1289 850.1078 330.582 850.5549 332.3703 851.4491 333.5998 851.7844 334.6057 852.0079 339.5237 851.5608 340.6414 851.2255 341.5355 850.7784 348.0183 842.8427 349.0242 842.1721 351.3714 840.6073 351.9303 839.9366 352.8244 838.2601 353.6068 837.7012 354.3892 837.9248 355.7305 839.266 356.5129 839.8249 360.9837 841.6132 363.4427 842.0603 365.1193 842.8427 365.9017 843.8486 366.7958 844.5193 367.3547 845.4134 368.3606 847.3135 369.2548 848.543 369.8136 849.4372 369.9254 850.3314 369.9254 852.0079 370.4843 854.6904 370.9314 855.6964 371.8255 856.8141 372.3844 857.5965 372.6079 858.2671 372.1608 858.3789 369.143 859.9437 368.3606 860.1672 367.4664 860.6143 365.7899 862.5144 364.6722 863.4086 362.9956 863.6321 361.8779 863.185 361.319 863.2968 361.6543 865.0851 364.6722 870.6737 367.2429 873.5798 371.0431 879.8389 371.0431 881.9626 371.3784 883.8627 372.4961 885.3157 374.7316 885.7628 376.8552 886.9923 378.1965 889.6748 379.3142 892.9162 380.7672 895.3751 379.3142 895.934 378.42 896.6046 376.7435 898.6165 374.8433 901.299 374.2845 901.8579 369.4783 901.8579 365.6781 899.6224 364.6722 899.3989 364.1133 900.0695 363.5545 902.4167 363.2191 903.4227 362.4367 904.2051 356.5129 908.3406 354.9481 909.9054 353.6068 912.1408 355.6187 916.8352 355.5069 918.7353 353.6068 920.0766 354.501 920.9707 352.6009 921.7531 348.6889 922.7591 347.1241 923.3179 346.0064 924.3239 342.5415 928.1241 339.859 930.136 335.6117 932.2596 333.9351 932.4832 333.2645 933.1538 332.7056 933.7127 332.4821 934.1597 331.4761 937.6246 330.8055 945.4486 330.582 946.6781 329.1289 949.3606 328.7936 950.2548 328.3465 951.9314 328.0112 952.8255 326.7817 954.8374 325.8876 958.1905 325.8876 958.3023 325.7758 958.1905 322.4227 958.4141 321.4167 958.1905 320.8579 957.7435 320.4108 957.0728 319.6284 956.0669 318.846 954.6139 318.846 954.5021 318.7342 954.1668 318.6224 954.1668 318.5107 953.9432 317.393 952.602 314.8222 950.8136 312.475 950.5901 305.0981 953.1608 303.7569 953.9432 303.3098 955.2845 304.5393 966.5734 304.0922 968.8088 302.3039 973.5032 301.8568 976.0739 302.5274 978.1976 302.3039 978.8682 302.8627 979.2035 303.4216 981.1036 302.6392 982.1096 301.745 981.9978 300.8508 981.6625 299.8449 982.2213 299.3978 983.4508 299.6213 985.2392 299.5096 985.9098 299.0625 986.4686 298.0565 986.5804 295.374 985.798 294.2563 985.6862 291.9091 987.3628 289.3384 992.0572 287.9971 992.3925 287.8854 991.9454 287.3265 988.5923 287.103 987.6981 286.6559 986.804 285.9853 985.9098 284.7558 984.9039 282.8557 983.6744 278.273 981.4389 269.7784 975.6268 268.8843 975.4033 267.0959 974.9562 266.2018 974.5091 265.5311 973.615 265.1958 972.3855 264.9723 970.2618 264.637 969.4794 264.0781 968.4735 262.8486 967.244 261.5074 965.6792 260.3897 963.5556 259.2719 962.1025 258.6013 960.426 257.5954 958.3023 252.6774 951.3725 250.2185 949.1371 248.4301 948.1311 246.53 948.0194 244.7417 947.3487 243.8475 947.237 242.9534 947.237 242.0592 946.9017 240.3826 946.1193 239.4884 946.1193 237.8119 946.3428 236.9177 946.1193 236.0235 945.7839 235.2411 945.3369 234.4587 945.1133 233.5646 945.1133 232.6704 945.3369 231.7762 945.4486 229.8761 945.1133 228.0878 945.1133 226.9701 944.6662 225.7406 943.7721 223.9523 941.5366 222.7228 940.7542 221.7168 940.1954 220.9344 940.1954 220.4873 939.9718 219.2579 938.407 210.9868 922.0884 206.963 916.1646 204.7276 911.9173 203.2746 909.9054 200.8156 907.3347 195.5624 903.4227 194.78 902.6403 188.5208 895.4869 184.3853 888.2218 181.7028 884.7569 180.8086 883.9745 179.0202 882.6332 175.5553 880.5096 174.8847 879.7272 174.5494 878.833 175.3318 877.2682 176.0024 876.1505 176.673 875.1446 177.4554 874.5857 178.2378 874.2504 178.9085 873.8033 179.2438 873.0209 177.9025 869.7795 177.679 868.8854 177.5672 866.9853 178.4614 865.0851 178.6849 864.0792 177.3437 860.9496 176.1142 855.0257 176.0024 853.0139 176.1142 851.6726 176.3377 850.7784 176.673 849.996 177.679 848.6548 180.6968 846.084 181.0321 846.6429 182.4851 846.4194 184.7206 845.3017 185.8383 845.0781 188.409 845.637 187.7384 848.6548 190.1974 849.7725 194.8917 849.549 196.7919 850.1078 198.2449 852.2315 196.5683 853.0139 198.3567 853.6845 198.692 854.6904 198.692 856.1435 199.0273 857.9318 199.4744 858.1553 200.9274 858.3789 201.4862 858.6024 201.7098 859.273 201.9333 860.5025 202.1569 861.0614 203.1628 862.1791 203.6099 862.9615 205.3982 868.3265 206.2924 869.4442 207.7454 869.7795 206.963 872.015 206.516 872.5738 205.9571 873.468 206.516 874.0268 207.7454 874.6975 207.7454 879.0565 208.8631 881.5155 212.5516 884.3098 213.8928 884.7569 214.2282 885.0922 215.2341 885.651 218.0284 886.5452 218.8108 887.3276 219.2579 888.11 219.5932 888.8924 220.152 889.3395 220.7109 889.563 221.2697 889.6748 221.8286 890.0101 222.2757 890.6807 222.7228 891.4631 223.2816 892.1338 224.064 892.6926 225.1817 892.8044 226.523 892.6926 228.6466 892.3573 234.6823 891.7985 235.5765 891.7985 236.5824 891.9102 239.3767 892.9162 240.7179 892.6926 245.8594 890.9043 247.6477 890.6807 248.989 890.7925 251.5597 892.5809 252.4539 892.9162 253.5716 892.9162 256.3659 892.4691 258.6013 892.9162 259.4955 893.0279 260.1661 892.4691 260.9485 892.6926 261.3956 893.2515 261.9545 894.1457 262.2898 895.0398 262.0662 895.8222 261.7309 896.7164 261.6191 897.6106 261.7309 898.5047 263.631 904.0933 264.1899 904.9875 264.8605 905.6581 265.6429 906.1052 266.5371 906.3287 268.3254 906.4405 272.1256 907.2229 273.3551 907.1111 275.367 906.664 277.0436 906.2169 278.4966 905.5463 279.0554 905.211 279.6143 904.4286 280.1732 903.5344 281.1791 899.1754 281.1791 898.2812 281.0673 896.4928 281.1791 895.5987 281.738 894.5927 282.6321 893.3633 285.7617 890.2337 286.5441 888.7806 286.6559 887.7747 286.6559 886.7688 286.7677 885.9864 287.103 885.0922 288.2207 884.0862 289.2266 883.0803 290.1208 881.5155 290.3443 880.7331 290.3443 880.3978 289.4502 879.9507 289.0031 879.6154 288.8913 879.1683 289.3384 877.7153 289.2266 877.6035 289.1149 877.4917 288.6678 877.38 288.1089 877.38 287.5501 877.2682 286.9912 877.0447 286.7677 876.4858 286.6559 874.5857 286.6559 874.3622 286.6559 874.0268 287.103 873.8033 287.6618 873.5798 289.2266 873.2444 290.009 873.2444 290.7914 873.3562 291.3503 873.6915 291.9091 873.8033 292.6915 873.8033 293.4739 873.468 295.374 872.2385 295.9329 871.7914 295.9329 870.5619 296.1564 870.1149 297.1624 869.7795 298.0565 869.6678 298.8389 869.7795 300.6273 870.3384 301.1861 870.3384 302.3039 870.2266 302.9745 870.3384 303.5333 870.3384 303.9804 870.0031 304.0922 868.9971 304.0922 867.4323 304.204 866.7617 304.8746 865.7558 305.657 864.9734 307.2218 863.8557 308.2277 863.2968 309.569 862.8497 310.0161 862.4026 310.3514 861.732 310.9102 860.279 311.022 859.3848 310.9102 858.6024 310.7985 858.0436 310.7985 857.4847 311.022 856.9259 311.2455 856.367 311.6926 855.8081 312.2515 855.3611 313.3692 854.914 314.1516 854.8022 316.1635 853.2374 320.6343 847.3135Z" />
  <path class="Brazzaville" d="M461.8013 961.5437L458.2246 957.0728 455.4304 951.4843 452.189 947.684 448.0535 943.5485 451.1831 938.407 456.2128 931.9243 458.56 926.3358 461.3542 919.4059 465.0427 913.3703 466.831 904.5404 466.3839 898.5047 464.1485 891.0161 464.1485 884.9804 467.3899 878.9448 473.8726 875.2563 478.2317 870.6737 480.4671 863.6321 481.473 856.2552 481.9201 848.3195 482.8143 840.9426 485.1615 836.807 488.4029 837.2541 492.0913 840.0484 498.574 841.8367 503.7155 843.7369 506.5098 846.9782 509.7512 850.2196 513.8867 855.3611 517.5751 859.0495 520.7047 859.7201 523.3872 857.0376 526.1815 851.002 528.5287 846.7547 531.7701 843.5133 535.9056 842.6191 540.1529 844.4075 546.6356 846.7547 549.6535 850.6667 553.3419 856.7023 556.1362 862.2909 557.9245 867.3206 558.4834 871.5679 560.2717 874.3622 562.1718 876.5976 564.519 879.5036 562.8425 882.5215 562.0601 883.4156 561.3894 884.6451 559.2658 891.4631 556.4715 894.1457 555.8009 894.7045 551.33 897.0517 546.1886 898.6165 540.9353 899.3989 535.9056 900.1813 519.1399 905.5463 517.0163 906.4405 515.2279 907.8935 513.7749 910.0172 510.1982 921.5296 509.5276 922.5355 506.9569 925.218 506.5098 926.0004 505.5039 926.4475 502.5978 927.9006 498.127 929.5771 485.1615 936.1716 482.9261 937.6246 479.6847 938.9659 478.567 939.6365 478.4552 939.6365 478.3435 939.6365 478.3435 939.7483 478.2317 939.7483 478.1199 939.7483 478.1199 939.8601 478.0081 939.8601 477.8964 939.8601 477.7846 939.8601 477.5611 939.7483 477.5611 939.6365 477.5611 939.5248 477.5611 939.413 477.4493 939.3012 477.3375 939.1894 477.2257 939.0777 477.0022 939.0777 476.8904 939.1894 476.7787 939.1894 476.7787 939.0777 476.5551 939.0777 476.4433 939.0777 476.2198 939.0777 476.108 939.1894 475.9963 939.413 475.8845 939.5248 475.7727 939.6365 475.6609 939.7483 475.4374 939.8601 475.4374 939.9718 475.4374 940.0836 475.3256 940.1954 475.3256 940.3072 475.3256 940.4189 475.3256 940.5307 475.2139 940.7542 475.1021 940.866 474.9903 940.9778 474.8785 941.0895 474.8785 941.3131 474.8785 941.4249 474.8785 941.5366 474.8785 941.6484 474.9903 941.6484 474.8785 941.7602 474.8785 941.9837 474.7668 942.0955 474.7668 942.319 474.655 942.5426 474.655 942.6543 474.5432 942.8779 474.5432 942.9897 474.5432 943.1014 474.655 943.325 474.655 943.4367 474.5432 943.6603 474.5432 943.7721 474.5432 943.8838 474.4315 943.9956 474.2079 943.9956 473.9844 943.9956 473.8726 943.9956 473.7608 944.3309 473.7608 944.5545 473.7608 944.778 473.7608 945.2251 473.8726 945.5604 473.8726 945.6722 473.8726 945.8957 473.8726 946.0075 473.8726 946.1193 472.8667 947.4605 472.8667 947.5723 472.7549 947.5723 472.7549 947.684 472.5314 947.7958 472.4196 947.9076 472.4196 948.0194 472.196 948.0194 472.196 948.2429 471.9725 948.3547 471.8607 948.4664 471.8607 948.69 471.9725 948.8018 471.9725 948.9135 471.8607 948.9135 471.8607 948.8018 471.749 948.8018 471.6372 948.9135 471.5254 948.9135 471.4136 948.9135 471.4136 949.0253 471.4136 949.1371 471.4136 949.2488 471.4136 949.3606 471.3019 949.2488 471.1901 949.2488 471.0783 949.3606 470.9666 949.4724 470.8548 949.5842 470.6312 949.5842 470.6312 949.6959 470.4077 949.6959 470.2959 949.6959 470.1842 949.9195 470.0724 950.143 469.9606 950.2548 469.9606 950.3666 469.9606 950.4783 469.9606 950.5901 469.9606 950.7019 469.8488 950.8136 469.6253 950.8136 469.5135 950.9254 469.4018 951.0372 469.29 951.2607 469.29 951.3725 469.29 951.7078 469.29 951.8196 469.1782 951.8196 469.0664 951.9314 468.9547 951.9314 468.7311 952.0431 468.7311 952.1549 468.8429 952.3784 468.8429 952.4902 468.7311 952.4902 468.5076 952.4902 468.3958 952.4902 468.284 952.602 468.1723 952.8255 468.284 952.9373 468.3958 952.9373 468.5076 952.9373 468.3958 953.0491 468.284 953.0491 468.1723 952.9373 468.1723 953.0491 468.0605 953.1608 468.0605 953.2726 467.9487 953.4961 467.9487 953.6079 467.9487 953.7197 467.837 953.8315 467.7252 954.055 467.7252 954.1668 467.7252 954.2785 467.7252 954.3903 467.837 954.5021 467.837 954.6139 467.7252 954.6139 467.6134 954.6139 467.6134 954.7256 467.5017 954.8374 467.5017 954.9492 467.5017 955.0609 467.6134 955.0609 467.5017 955.1727 467.3899 955.1727 467.3899 955.2845 467.2781 955.2845 467.1663 955.3963 467.1663 955.508 467.0546 955.6198 466.9428 955.7316 466.7193 955.7316 466.7193 955.8433 466.6075 956.0669 466.6075 956.2904 466.4957 956.2904 466.3839 956.4022 466.4957 956.514 466.4957 956.6257 466.2722 956.9611 466.0486 957.0728 465.9369 957.1846 465.7133 957.1846 465.7133 957.4081 465.7133 957.5199 465.7133 957.6317 465.4898 957.8552 465.378 957.8552 465.378 957.967 465.378 958.0788 465.378 958.1905 465.378 958.3023 464.9309 958.8612 464.8191 958.9729 464.5956 959.0847 464.3721 959.3083 464.2603 959.5318 464.0367 959.7553 463.925 959.9789 462.919 960.873 462.8073 960.9848 461.9131 961.4319 461.8013 961.5437Z" />
  <path class="Cuvette" d="M691.4911 389.7223L696.409 391.9578 698.1974 393.7461 706.3567 405.5938 709.3745 411.0706 709.4862 411.5177 709.3745 412.4119 709.0392 413.6414 708.145 414.2002 707.2508 413.9767 706.4684 413.9767 705.7978 415.3179 705.9096 416.4356 707.1391 419.0064 707.6979 421.8007 708.0332 422.9184 708.0332 423.9243 707.0273 425.1538 705.7978 425.9362 704.4565 426.495 703.3388 427.3892 702.6682 428.8422 702.8917 430.9659 704.6801 436.4427 705.0154 438.7899 705.3507 446.6139 705.7978 448.7375 707.2508 453.0966 707.5861 455.6673 706.2449 456.785 704.3448 457.3439 703.5624 459.0205 703.4506 468.0739 703.7859 468.6328 705.5743 469.0799 705.5743 470.0858 701.4387 475.0037 702.3329 475.8979 704.6801 476.4568 706.692 478.2451 702.78 483.6101 701.9976 486.7397 703.4506 489.4222 704.6801 487.075 706.9155 487.2986 709.2627 488.8634 711.051 490.5399 711.9452 492.7754 711.4981 495.3461 709.1509 500.5993 709.1509 501.3817 710.604 506.2997 710.8275 507.7527 709.4862 509.9881 709.3745 511.3294 709.9333 515.5767 710.4922 515.912 711.2746 515.912 712.1688 516.4708 712.9512 517.1415 713.3982 517.4768 713.7336 518.0356 713.8453 520.2711 715.0748 521.5006 716.3043 521.9476 718.4279 522.2829 747.6002 522.8418 748.7179 523.1771 749.165 523.5124 749.2768 523.5124 733.6288 542.29 730.8345 544.8607 730.4992 545.0843 730.3875 545.196 729.3815 546.3138 729.2697 546.4255 728.3756 547.5432 727.0343 548.8845 724.24 550.2257 723.9047 550.8964 722.3399 552.6847 721.1105 553.1318 720.5516 553.3553 720.1045 553.4671 719.0986 554.1377 717.8691 555.0319 714.2924 556.0378 708.3685 556.8202 706.1331 557.4909 705.2389 557.8262 704.7919 557.8262 700.8799 559.2792 698.6444 560.3969 698.3091 560.6205 692.8323 562.1853 689.1439 562.8559 688.3615 563.0794 687.132 563.9736 686.4614 564.1971 686.1261 564.9795 683.3318 568.1091 678.8609 572.1329 677.855 573.2506 677.6315 573.4741 677.4079 573.5859 673.8312 576.7155 672.49 578.1685 672.0429 578.7274 671.7076 578.9509 669.8075 580.7393 669.1369 581.4099 667.9074 582.5276 666.3426 584.316 666.2308 584.5395 665.4484 585.5454 665.1131 585.9925 665.0013 585.9925 664.7778 586.3278 664.3307 586.8867 661.9835 590.3516 660.5305 593.1459 659.7481 594.7107 659.4128 595.3813 657.9597 598.2873 656.0596 601.5287 655.8361 601.9758 655.6125 602.1993 655.0537 603.6524 654.0477 606.2231 653.936 606.4466 653.6007 607.0055 652.5947 609.3527 652.4829 609.4645 650.024 612.7058 647.3415 618.0708 645.7767 620.5298 645.6649 620.5298 641.9765 620.5298 639.2939 620.7534 638.9586 619.7474 639.5175 617.9591 639.6293 616.3943 639.0704 615.053 638.9586 614.9413 638.5116 615.053 635.0466 613.7118 632.6994 613.1529 630.3523 613.3765 628.2286 614.7177 626.3285 615.2766 623.3107 615.2766 620.7399 614.9413 620.5164 614.0471 620.0693 613.3765 618.0574 612.8176 616.4926 611.6999 617.1633 609.7998 612.2453 609.5762 609.3393 606.8937 605.6508 596.6108 603.1919 593.3694 601.4035 589.4574 600.8447 588.675 599.9505 587.7809 599.1681 587.3338 594.6972 586.7749 593.9149 586.3278 593.2442 585.5454 580.2788 577.4979 576.7021 575.7096 573.0136 574.2565 565.525 573.5859 563.4013 572.4682 563.2895 569.7857 562.9542 568.7798 561.7248 569.4504 560.8306 569.4504 559.8246 568.2209 558.1481 565.7619 557.2539 565.3149 551.8889 563.7501 551.33 563.1912 550.8829 562.4088 550.1006 561.6264 547.6416 560.5087 542.2766 559.2792 540.1529 558.385 538.2528 556.2614 537.8057 553.5789 537.8057 550.7846 537.2469 548.4374 535.6821 547.0961 533.6702 546.5373 529.0876 546.0902 522.8284 544.5254 520.593 544.6372 518.8046 545.3078 515.3397 546.9844 513.5514 547.655 512.8807 547.5432 511.6513 546.8726 511.2042 546.8726 510.31 547.0961 508.857 547.9903 504.7215 549.2198 502.8213 550.7846 499.58 555.8143 497.9034 557.7144 495.8915 559.391 495.3327 559.5028 494.215 559.1674 493.6561 559.2792 492.7619 560.1734 491.4207 562.4088 490.5265 563.4147 487.9558 565.0913 482.1437 567.5503 479.7965 569.6739 472.0843 579.6216 469.7371 584.6513 463.7014 603.5406 455.7657 613.8235 451.2948 617.9591 449.5065 619.0768 446.3769 620.418 444.9239 620.7534 440.3413 620.418 439.4471 620.5298 438.4411 620.7534 432.7408 623.2123 431.176 624.2183 425.5875 628.9127 424.0227 630.5892 423.1285 632.0422 422.6814 634.8365 422.3461 635.6189 420.8931 638.1897 419.9989 639.3074 416.7575 642.437 415.7516 643.7782 414.4103 645.9019 412.0631 648.5844 411.5043 649.3668 410.2748 652.8317 409.8277 653.7259 405.2451 660.0968 402.5626 662.5558 400.886 663.7853 398.8741 664.6794 397.6447 664.903 396.7505 665.5736 396.0799 666.356 395.1857 668.2561 394.8504 668.5914 394.4033 669.1503 393.6209 669.8209 392.7267 670.1562 388.3677 671.0504 387.4735 671.1622 386.4675 671.1622 384.6792 670.9386 382.8909 670.4915 381.9967 669.9327 381.1025 668.3679 380.4319 666.1325 379.9848 659.8733 379.7613 659.0909 379.9848 658.9791 383.1144 657.3025 383.8968 655.7377 383.0026 650.5963 383.1144 649.7021 383.785 646.6843 384.1204 637.4073 384.9028 634.8365 386.3558 633.2717 389.0383 631.7069 388.1441 630.9245 385.6851 630.4774 383.785 629.9186 382.332 625.1124 380.0966 623.8829 379.3142 622.9888 380.3201 622.0946 382.6673 621.3122 383.785 620.7534 384.9028 619.8592 385.6851 618.7415 386.1322 617.4002 386.9146 616.3943 390.7149 615.6119 390.7149 613.9353 389.3736 611.8117 387.8088 610.2469 389.3736 606.8937 389.4854 604.0994 389.9325 602.9817 391.2737 601.7523 392.7267 600.7463 393.6209 599.4051 392.9503 597.0579 388.8147 594.3754 387.1382 592.587 386.4675 590.3516 386.8029 589.0103 387.5853 588.2279 388.5912 587.4455 389.3736 586.5514 390.0442 585.3219 390.4913 584.2042 390.9384 581.5217 391.0502 577.945 390.8266 576.8273 389.9325 575.3743 387.9206 573.4741 403.0097 570.7916 411.2807 568.5562 414.075 565.7619 416.9811 564.5325 421.6755 565.6502 443.5826 564.756 452.3008 562.7441 458.6717 557.2673 470.0724 544.3019 472.196 539.2722 474.7668 535.2484 472.5314 531.4482 454.3127 515.5767 459.2306 509.0939 465.8251 502.4994 468.1723 498.6992 469.8488 494.5637 470.6312 490.5399 465.2662 469.8623 463.4779 465.8385 459.5659 464.609 451.0713 463.4913 447.3828 461.703 446.0416 458.0145 444.9239 453.5437 441.7943 446.9492 441.0119 444.2667 441.2354 442.3666 441.1237 440.4664 440.2295 435.9956 441.2354 431.6365 445.0356 431.1894 449.1712 431.6365 453.642 430.8541 455.8774 431.1894 458.0011 431.3012 466.9428 429.6246 475.5492 426.8304 481.3613 420.5712 479.5729 412.6354 472.0843 407.1586 468.7311 400.4524 472.7549 398.1052 477.2257 396.0933 480.6906 394.1932 483.5967 391.6224 486.391 387.7105 486.5028 387.8222 486.7263 388.2693 486.6145 388.6046 486.391 389.6106 486.391 390.2812 486.7263 390.7283 487.1734 390.84 488.1793 390.393 488.6264 390.2812 492.2031 391.2871 494.4385 391.5107 495.1091 391.5107 495.8915 391.5107 496.8975 391.0636 497.5681 390.6165 498.3505 390.2812 499.1329 390.1694 500.5859 390.5047 502.2625 391.0636 503.0449 391.2871 504.3861 391.3989 505.8392 391.846 506.398 392.0695 506.9569 392.2931 507.404 392.5166 507.851 392.8519 508.4099 392.8519 509.0805 392.8519 510.1982 392.7402 511.4277 392.9637 512.2101 393.299 513.2161 394.0814 513.7749 394.305 514.4455 394.4167 515.2279 394.305 515.8986 393.8579 517.4634 391.9578 517.9105 391.6224 519.3635 390.6165 519.6988 390.2812 520.0341 389.7223 520.2576 389.1635 520.8165 387.2634 521.2636 386.2574 521.4871 386.0339 521.7107 385.8103 521.9342 385.6986 522.2695 385.5868 522.8284 385.475 524.1696 385.2515 524.8403 385.0279 525.0638 384.8044 525.7344 384.2455 526.2933 384.022 526.9639 383.7985 527.9699 383.5749 528.6405 383.4631 529.3111 383.1278 530.2053 382.569 530.6524 382.4572 534.229 382.2337 534.4526 382.1219 535.235 381.6748 535.6821 381.4513 536.3527 381.3395 537.5822 381.3395 538.4763 381.4513 539.3705 381.8983 539.7058 382.3454 540.0411 383.0161 540.2647 383.4631 540.8235 383.7985 541.6059 383.7985 542.7237 383.4631 543.5061 383.1278 544.4002 382.569 544.8473 382.4572 545.4062 382.569 548.3122 383.2396 551.1065 383.2396 555.0185 383.9102 555.6891 384.3573 556.1362 384.6926 556.5833 385.0279 557.1421 385.3633 557.5892 385.5868 558.3716 386.481 558.8187 386.8163 559.7129 387.3751 560.2717 387.7105 562.6189 388.6046 563.7366 389.0517 564.0719 389.4988 564.519 389.9459 564.6308 390.5047 564.7426 392.6284 564.8543 393.299 565.0779 393.8579 565.4132 394.305 565.8603 394.6403 566.3074 394.9756 567.0898 395.1991 569.9958 395.758 574.802 397.3228 575.3608 397.5463 575.8079 397.8816 577.4845 399.4464 578.8257 400.4524 579.4964 401.3465 581.62 405.5938 581.7318 406.1527 581.5083 412.5237 581.62 412.9707 581.7318 413.4178 581.9553 413.9767 582.2906 414.312 582.7377 414.6473 583.5201 415.0944 583.8554 415.4297 584.1908 415.765 584.4143 416.3239 584.6378 417.4416 584.6378 418.4475 584.4143 421.13 584.5261 421.4653 584.9732 421.6889 585.9791 421.9124 586.6497 422.136 588.8851 423.1419 589.5558 423.3655 590.3382 423.3655 591.3441 423.1419 593.4678 422.0242 594.2502 421.8007 594.809 421.6889 595.9267 421.9124 596.5974 422.2477 597.4915 423.0301 597.9386 423.3655 598.3857 423.7008 600.0623 424.3714 600.5094 424.7067 600.9564 425.1538 601.8506 426.6068 602.1859 427.0539 602.633 427.3892 603.3036 427.501 606.8803 427.2774 607.4392 427.2774 607.5509 427.3892 607.6627 427.7245 607.8862 428.1716 607.998 428.7305 608.2216 429.2893 608.4451 429.8482 608.7804 430.2953 609.2275 430.6306 691.4911 389.7223Z" />
  <path class="Cuvette-Ouest" d="M486.391 387.7105L483.5967 391.6224 480.6906 394.1932 477.2257 396.0933 472.7549 398.1052 468.7311 400.4524 472.0843 407.1586 479.5729 412.6354 481.3613 420.5712 475.5492 426.8304 466.9428 429.6246 458.0011 431.3012 455.8774 431.1894 453.642 430.8541 449.1712 431.6365 445.0356 431.1894 441.2354 431.6365 440.2295 435.9956 441.1237 440.4664 441.2354 442.3666 441.0119 444.2667 441.7943 446.9492 444.9239 453.5437 446.0416 458.0145 447.3828 461.703 451.0713 463.4913 459.5659 464.609 463.4779 465.8385 465.2662 469.8623 470.6312 490.5399 469.8488 494.5637 468.1723 498.6992 465.8251 502.4994 459.2306 509.0939 454.3127 515.5767 472.5314 531.4482 474.7668 535.2484 472.196 539.2722 470.0724 544.3019 458.6717 557.2673 452.3008 562.7441 443.5826 564.756 421.6755 565.6502 416.9811 564.5325 414.075 565.7619 411.2807 568.5562 403.0097 570.7916 387.9206 573.4741 387.4735 572.9153 386.6911 571.574 386.6911 570.5681 387.2499 568.5562 387.3617 567.5503 387.0264 566.209 385.7969 563.6383 382.4438 554.5848 382.4438 552.9083 383.6733 550.4493 384.2321 545.4196 384.9028 542.7371 386.6911 539.831 388.703 537.5956 390.0442 535.1366 389.4854 531.56 388.703 528.6539 388.703 525.7479 389.3736 522.8418 394.068 512.6706 394.8504 508.8704 393.8444 505.4055 391.1619 499.8169 389.7089 498.2521 385.0145 495.1226 382.4438 491.6576 378.5318 489.1987 374.1727 487.1868 370.9314 486.2926 368.9195 486.6279 367.1311 487.4103 365.3428 488.081 363.4427 487.6339 361.319 486.7397 359.3072 486.7397 357.407 487.4103 355.3952 488.4163 355.2834 484.0572 354.3892 479.251 352.9362 474.6684 351.0361 470.6447 347.9065 467.7386 343.6592 465.615 339.0766 464.9443 334.8293 466.062 333.9351 464.9443 333.0409 464.1619 331.9232 463.7149 327.7877 463.156 326.8935 463.4913 326.4464 464.2737 326.1111 465.0561 325.5523 465.615 324.0992 466.1738 323.3168 466.2856 322.6462 465.8385 317.2812 459.3558 317.393 456.1144 318.6224 453.2084 323.8757 446.2785 325.3287 444.2667 326.4464 443.149 327.6759 441.6959 327.5641 440.4664 327.0053 439.1252 326.7817 437.4486 327.2288 436.3309 328.9054 434.2073 329.0172 432.9778 328.123 431.5248 326.7817 431.3012 325.4405 431.1894 324.6581 430.407 324.0992 422.0242 323.5404 419.2299 322.4227 415.6532 321.8638 412.6354 322.4227 409.9529 326.3347 404.029 330.4702 394.752 332.9292 392.1813 341.5355 387.3751 343.771 384.9162 344.218 382.4572 343.4356 380.11 342.2062 377.651 345.6711 372.7331 351.4832 371.9507 357.9659 372.7331 363.778 372.3978 365.3428 371.8389 366.0134 371.3919 366.4605 370.7212 375.0669 363.2326 375.8493 360.7736 376.1846 354.8497 379.5377 349.9318 384.9028 345.3492 388.9265 340.543 388.1441 335.178 387.8088 333.725 388.5912 332.8308 390.0442 331.9366 391.0502 330.9307 391.2737 329.2541 390.3795 328.36 387.5853 327.0187 385.4616 325.0068 383.4497 322.6596 381.8849 320.0889 380.5437 317.4064 378.7553 311.4825 377.1905 309.1353 371.602 306.5646 369.8136 304.1056 368.8077 301.0878 368.9195 292.3696 368.5842 289.24 366.9076 282.0867 366.237 280.7454 364.8957 279.7395 363.6662 279.1806 362.6603 278.51 362.4367 277.9512 364.3369 276.9452 366.237 276.3864 368.3606 276.051 372.8315 275.0451 373.5021 274.9333 374.2845 274.9333 379.426 275.3804 380.879 275.2686 383.0026 274.8216 384.0086 274.4862 384.5674 274.2627 385.3498 274.2627 387.3617 274.598 388.703 274.8216 394.2915 273.7039 394.9622 273.9274 395.521 274.2627 396.1916 275.3804 396.4152 276.3864 396.527 278.2865 396.7505 279.1806 397.3094 281.0807 398.3153 288.4576 398.6506 289.24 399.0977 290.0224 402.5626 292.4814 405.1333 293.5991 417.6517 297.3993 424.0227 298.2935 424.9168 298.07 425.811 297.9582 426.8169 298.07 427.9347 298.4053 429.2759 298.9641 431.9584 300.7525 432.7408 301.8702 434.0821 304.2174 435.088 305.2233 436.4293 306.0057 442.912 309.2471 447.2711 312.1531 450.4007 313.2708 453.4185 313.8297 456.4363 313.9415 460.1248 313.7179 461.0189 313.8297 461.8013 314.165 463.1426 315.8416 463.5897 316.2887 464.3721 316.7358 467.6134 318.077 468.6194 318.6359 469.1782 319.0829 469.4018 319.1947 470.8548 322.4361 471.0783 323.5538 471.0783 323.8891 470.9666 324.448 470.8548 324.895 470.5195 325.4539 470.0724 325.7892 469.5135 326.0128 468.0605 326.1245 466.831 326.4598 466.3839 326.7952 465.9369 327.1305 465.6015 327.5776 465.1545 328.4717 464.9309 328.6953 464.4838 328.9188 464.0367 329.1424 463.7014 329.3659 463.4779 329.5894 462.8073 330.5954 462.4719 330.9307 461.6895 331.4895 461.466 331.8249 461.3542 332.1602 461.3542 332.8308 461.6895 334.7309 462.0249 335.9604 462.2484 336.5193 463.8132 338.9782 464.1485 339.9842 464.1485 340.9901 463.0308 347.1375 463.1426 355.6321 463.4779 357.644 465.0427 362.3384 465.1545 363.009 465.0427 363.6796 464.9309 364.3503 463.3661 366.6975 463.2543 367.0328 463.1426 367.3681 463.0308 367.5916 463.0308 368.8211 463.0308 370.2741 463.4779 373.0684 463.5897 373.6273 463.8132 374.1861 464.2603 374.745 465.0427 375.1921 471.0783 377.3157 471.6372 377.651 472.0843 377.9864 472.8667 378.5452 473.0902 379.1041 473.0902 379.6629 473.4255 380.11 474.0961 380.5571 475.8845 381.116 477.0022 381.8983 476.8904 382.569 476.8904 383.1278 477.2257 383.5749 477.7846 383.9102 478.7905 383.7985 482.479 384.8044 483.1496 385.1397 483.5967 385.5868 483.8202 386.0339 484.0438 386.7045 484.0438 387.4869 484.1556 388.0458 484.4909 388.3811 485.0497 388.0458 485.385 387.5987 485.6086 387.3751 486.0557 387.3751 486.391 387.7105Z" />
  <path class="Kouilou" d="M85.8031 867.3206L88.0385 870.8972 88.9327 871.5679 89.9386 872.1267 92.5094 872.462 95.8625 874.1386 111.5105 885.5393 115.5342 887.2158 116.6519 887.5512 120.4521 887.8865 123.9171 889.0042 125.9289 890.3454 127.829 891.2396 128.3879 891.7985 128.6114 892.2455 128.6114 893.6986 128.7232 894.3692 128.9468 894.9281 129.6174 895.2634 132.0763 895.7105 135.653 896.9399 138.6708 897.387 141.4651 898.393 143.7006 898.6165 145.1536 898.9518 147.7243 899.846 148.9538 900.5166 149.6244 900.9637 149.7362 901.299 149.7362 901.7461 149.5127 902.4167 149.6244 903.1991 149.9597 903.8697 150.6304 904.4286 154.5424 905.3228 155.8836 905.9934 156.8895 906.8876 166.5019 918.0647 167.7314 919.9648 168.5138 921.0825 168.7373 921.8649 168.7373 922.6473 167.7314 928.2359 167.7314 929.13 167.7314 930.0242 167.9549 931.0301 168.8491 932.8185 172.9846 938.407 173.9905 939.1894 174.9965 939.6365 175.8906 939.8601 176.7848 939.8601 184.1617 939.5248 185.2794 939.6365 186.3971 939.9718 188.1855 940.7542 189.415 941.5366 191.6504 943.325 194.8917 946.4546 195.3388 947.7958 194.4447 947.3487 192.8799 946.6781 190.0856 948.3547 188.7443 951.0372 187.8502 953.8315 186.2854 955.6198 184.1617 956.8493 182.2616 958.4141 180.585 960.3142 178.1261 965.0086 176.7848 966.3498 174.9965 967.0205 162.1428 969.3677 154.207 971.9384 152.4187 972.1619 149.2891 971.7149 148.1714 973.3914 148.2832 978.3094 147.7243 980.7683 142.9182 990.3806 141.6887 991.8337 140.0121 992.5043 136.1001 992.9514 134.3118 993.2867 132.6352 993.9573 131.6293 994.8515 130.1762 992.169 129.0585 990.8277 128.0526 990.1571 126.5996 990.1571 126.0407 990.716 122.5758 1002.6755 119.4462 1007.5934 106.369 1018.7705 105.363 1020 103.5747 1018.4352 102.0099 1016.5351 99.3274 1012.176 94.9683 1006.811 92.174 1004.0167 91.0563 1000.8871 92.3976 1000.8871 92.3976 987.5864 85.8031 987.5864 83.7912 984.9039 78.8733 980.433 78.3144 978.98 78.4262 977.8623 81.1087 977.8623 83.3441 975.4033 83.903 972.8326 81.7793 968.3617 68.5903 955.1727 56.519 944.778 45.9008 935.3892 40.424 931.9243 34.6119 926.8946 32.4882 923.3179 31.9294 922.6473 30.3646 920.0766 30.0293 918.9589 30.2528 916.3881 30.0293 915.0469 29.5822 914.1527 19.411 905.9934 8.0103 898.5047 4.0983 895.5987 1.1923 893.6986 3.0924 890.3454 10.8046 869.4442 12.7047 865.8675 15.7226 863.185 19.6345 860.6143 23.0994 857.82 26.8997 855.4728 31.7058 854.4669 36.0649 853.0139 38.7474 849.6607 40.8711 846.084 44.1124 843.9604 49.9245 844.7428 54.2836 848.0959 63.4488 863.0733 65.4607 865.0851 67.9197 865.9793 74.2906 865.1969 76.6378 865.4205 83.3441 867.3206 85.4678 867.4323 85.8031 867.3206Z" />
  <path class="Lékoumou" d="M348.5771 723.8064L349.6948 725.5947 350.9243 728.7243 354.2774 731.8539 354.6128 732.7481 354.7245 733.3069 354.501 733.754 354.0539 734.0893 353.495 734.3129 351.9303 734.6482 351.2596 735.4306 351.5949 736.213 352.1538 736.8836 353.9421 738.1131 354.7245 738.5602 355.3952 738.5602 355.954 738.1131 356.6246 737.666 357.5188 737.5542 358.6365 738.4484 358.8601 739.2308 358.5248 740.125 357.7424 740.7956 356.0658 741.8015 354.6128 743.2546 353.048 744.484 352.6009 745.1547 352.8244 746.0488 353.2715 746.7195 354.0539 747.3901 354.8363 747.6136 356.7364 747.6136 357.7424 747.7254 358.6365 748.1725 359.866 748.8431 360.8719 749.1784 361.8779 749.0667 363.8898 747.949 364.7839 747.7254 365.7899 747.8372 366.9076 748.5078 367.8018 748.9549 368.9195 748.9549 370.0372 748.8431 371.4902 749.1784 371.9373 749.8491 371.9373 750.7432 371.602 751.7492 370.0372 754.4317 369.7019 755.5494 369.5901 756.6671 370.0372 757.1142 370.596 756.7789 371.602 755.6612 372.1608 755.7729 372.3844 756.3318 372.6079 758.2319 376.2964 768.5149 376.7435 770.1914 376.5199 771.1974 375.8493 772.0915 375.0669 772.6504 373.3903 773.5446 372.6079 774.1034 372.0491 774.774 371.7138 775.4447 371.4902 776.7859 371.2667 777.3448 370.9314 777.9036 370.4843 778.2389 369.143 779.2449 368.3606 780.0273 368.0253 780.8097 367.8018 781.2568 367.2429 782.3745 358.7483 787.4042 356.5129 789.1925 356.0658 789.9749 355.7305 790.8691 353.8304 797.7989 352.042 801.7109 351.7067 802.9404 351.5949 804.5052 351.7067 805.3993 351.5949 805.7347 351.2596 806.1817 350.1419 806.8524 349.6948 807.4112 348.6889 809.8702 348.13 810.6526 347.5712 811.2114 346.9006 811.6585 346.677 811.9938 346.677 812.4409 346.9006 812.9998 346.7888 813.6704 346.3417 814.1175 344.8887 814.7881 343.771 815.4587 343.3239 815.9058 342.8768 816.4647 342.0944 818.4766 341.8708 818.8119 339.9707 819.9296 339.4119 820.4884 338.9648 821.2708 338.1824 822.7239 337.7353 823.5063 333.3762 828.3124 333.1527 828.536 332.3703 828.8713 330.582 830.1008 328.123 832.448 327.6759 833.0068 327.5641 833.3421 327.5641 833.5657 327.5641 833.7892 327.6759 834.3481 327.4524 835.1305 326.67 836.807 326.1111 838.1483 324.7699 840.6073 323.9875 841.6132 322.6462 842.7309 322.5344 842.9545 322.5344 843.2898 322.6462 844.631 322.5344 845.637 322.3109 846.084 321.9756 846.5311 320.6343 847.3135 316.1635 853.2374 314.1516 854.8022 313.3692 854.914 312.2515 855.3611 311.6926 855.8081 311.2455 856.367 311.022 856.9259 310.7985 857.4847 310.7985 858.0436 310.9102 858.6024 311.022 859.3848 310.9102 860.279 310.3514 861.732 310.0161 862.4026 309.569 862.8497 308.2277 863.2968 307.2218 863.8557 305.657 864.9734 304.8746 865.7558 304.204 866.7617 304.0922 867.4323 304.0922 868.9971 303.9804 870.0031 303.5333 870.3384 302.9745 870.3384 302.3039 870.2266 301.1861 870.3384 300.6273 870.3384 298.8389 869.7795 298.0565 869.6678 297.1624 869.7795 296.1564 870.1149 295.9329 870.5619 295.9329 871.7914 295.374 872.2385 293.4739 873.468 292.6915 873.8033 291.9091 873.8033 291.3503 873.6915 290.7914 873.3562 290.009 873.2444 289.2266 873.2444 287.6618 873.5798 287.103 873.8033 286.6559 874.0268 286.6559 874.3622 286.6559 874.5857 286.7677 876.4858 286.9912 877.0447 287.5501 877.2682 288.1089 877.38 288.6678 877.38 289.1149 877.4917 289.2266 877.6035 289.3384 877.7153 288.8913 879.1683 289.0031 879.6154 289.4502 879.9507 290.3443 880.3978 290.3443 880.7331 290.1208 881.5155 289.2266 883.0803 288.2207 884.0862 287.103 885.0922 286.7677 885.9864 286.6559 886.7688 286.6559 887.7747 286.5441 888.7806 285.7617 890.2337 282.6321 893.3633 281.738 894.5927 281.1791 895.5987 281.0673 896.4928 281.1791 898.2812 281.1791 899.1754 280.1732 903.5344 279.6143 904.4286 279.0554 905.211 278.4966 905.5463 277.0436 906.2169 275.367 906.664 273.3551 907.1111 272.1256 907.2229 268.3254 906.4405 266.5371 906.3287 265.6429 906.1052 264.8605 905.6581 264.1899 904.9875 263.631 904.0933 261.7309 898.5047 261.6191 897.6106 261.7309 896.7164 262.0662 895.8222 262.2898 895.0398 261.9545 894.1457 261.3956 893.2515 260.9485 892.6926 260.1661 892.4691 259.4955 893.0279 258.6013 892.9162 256.3659 892.4691 253.5716 892.9162 252.4539 892.9162 251.5597 892.5809 248.989 890.7925 247.6477 890.6807 245.8594 890.9043 240.7179 892.6926 239.3767 892.9162 236.5824 891.9102 235.5765 891.7985 234.6823 891.7985 228.6466 892.3573 226.523 892.6926 225.1817 892.8044 224.064 892.6926 223.2816 892.1338 222.7228 891.4631 222.2757 890.6807 221.8286 890.0101 221.2697 889.6748 220.7109 889.563 220.152 889.3395 219.5932 888.8924 219.2579 888.11 218.8108 887.3276 218.0284 886.5452 215.2341 885.651 214.2282 885.0922 213.8928 884.7569 212.5516 884.3098 208.8631 881.5155 207.7454 879.0565 207.7454 874.6975 206.516 874.0268 205.9571 873.468 206.516 872.5738 206.963 872.015 207.7454 869.7795 206.2924 869.4442 205.3982 868.3265 203.6099 862.9615 203.1628 862.1791 202.1569 861.0614 201.9333 860.5025 201.7098 859.273 201.4862 858.6024 200.9274 858.3789 199.4744 858.1553 199.0273 857.9318 198.692 856.1435 198.692 854.6904 198.3567 853.6845 196.5683 853.0139 198.2449 852.2315 196.7919 850.1078 194.8917 849.549 190.1974 849.7725 187.7384 848.6548 188.409 845.637 185.8383 845.0781 184.7206 845.3017 182.4851 846.4194 181.0321 846.6429 180.6968 846.084 180.6968 842.2838 180.138 841.8367 179.0202 841.8367 178.0143 841.725 177.4554 840.719 177.3437 839.3778 177.0084 838.4836 176.226 838.0365 174.9965 837.9248 174.9965 837.1424 175.7789 835.6893 174.3259 834.2363 174.5494 833.0068 174.8847 832.6715 175.3318 832.3362 176.0024 832.1127 176.3377 832.0009 178.6849 832.0009 179.2438 831.8891 179.6909 831.6656 180.0262 831.3303 180.2497 830.9949 181.0321 828.9831 182.1498 823.9534 182.3734 823.5063 182.7087 823.0592 183.1558 822.5003 183.4911 822.165 183.9382 821.9415 185.503 821.2708 187.1795 820.0414 187.8502 819.7061 188.5208 819.5943 189.3032 819.3707 190.7562 819.3707 194.2211 819.9296 195.0035 819.9296 195.6741 819.9296 196.233 819.7061 198.2449 818.7001 198.5802 818.5883 199.8097 818.4766 200.4803 818.4766 201.2627 818.4766 201.8216 818.7001 203.2746 819.5943 203.8334 819.8178 204.7276 819.7061 205.7336 819.259 207.2983 818.1413 208.1925 817.8059 208.8631 817.8059 209.6455 818.7001 210.2044 818.9237 211.0986 818.8119 211.4339 818.3648 211.5457 817.8059 211.5457 814.5646 211.6574 813.7822 212.1045 813.5586 212.7751 813.6704 214.3399 814.1175 215.2341 814.1175 216.1283 814.0057 218.8108 812.888 219.5932 812.6645 220.3756 812.6645 222.2757 811.6585 223.2816 810.3173 224.5111 809.4231 227.6407 807.8583 231.6645 803.7228 232.6704 802.158 233.1175 800.8167 232.7822 793.9987 234.0117 788.6337 235.4647 784.7217 235.5765 784.1628 235.6882 783.2686 235.2411 782.3745 234.6823 781.4803 233.8999 780.5861 228.5349 776.2271 227.7525 775.8917 225.9641 775.78 223.5052 775.1094 222.7228 774.6623 222.2757 773.9916 221.9404 773.2092 221.4933 771.4209 220.7109 769.9679 220.3756 769.2972 220.3756 768.2913 220.7109 767.8442 221.2697 767.3971 222.9463 766.7265 223.7287 766.2794 225.4053 764.8264 226.1877 764.3793 228.0878 764.1558 229.0937 763.8205 229.3173 763.0381 229.3173 762.2557 226.8583 756.7789 226.2994 754.8788 224.9582 738.4484 225.4053 718.4414 226.523 713.0763 226.523 712.0704 226.0759 711.288 225.4053 710.8409 224.6229 710.8409 223.7287 711.1762 222.9463 711.6233 222.0521 711.7351 221.4933 711.6233 220.7109 710.9527 219.8167 710.0585 221.9404 707.9349 223.5052 707.4878 226.4112 708.0466 233.8999 711.3998 236.2471 712.0704 237.5883 711.7351 239.8238 710.5056 241.165 710.2821 242.2827 710.5056 262.5133 718.1061 264.637 718.3296 266.8724 717.7707 269.3314 718.2178 270.002 718.2178 271.5668 717.659 272.3492 717.8825 273.3551 719.3355 273.914 719.4473 275.1435 718.7767 275.7023 717.8825 276.0376 716.7648 276.5965 715.6471 277.826 714.5294 281.6262 711.9586 282.5204 710.9527 284.3087 708.829 285.4264 707.8231 286.7677 707.0407 289.5619 706.2583 290.7914 705.3641 291.2385 704.3582 291.5738 701.8992 292.3562 700.6697 301.1861 692.1751 302.1921 690.8339 302.6392 689.6044 302.7509 687.369 303.0862 686.0277 304.3157 683.6805 306.7747 680.1039 306.9982 679.4332 307.3336 679.6568 308.563 680.4392 310.2396 682.004 311.5809 684.2394 312.5868 686.6983 313.7045 691.5045 316.2752 696.8695 317.7283 698.9932 319.8519 701.2286 320.6343 702.3463 321.0814 705.5877 321.9756 706.4818 323.2051 707.0407 324.3228 707.8231 325.9993 710.0585 325.4405 710.8409 324.0992 711.6233 322.4227 715.2 319.9637 716.4295 319.1813 717.4354 319.0695 721.9063 318.9578 722.4651 320.8579 724.1417 323.5404 725.0359 326.3347 725.1476 328.7936 724.7006 330.8055 723.4711 331.9232 722.9122 333.0409 722.9122 334.0469 723.6946 334.4939 725.8183 335.1646 726.4889 336.0587 726.6007 341.4238 724.9241 342.2062 724.7006 343.3239 724.8123 345.1122 725.93 346.2299 726.3771 347.3476 726.1536 348.0183 725.3712 348.5771 723.8064Z" />
  <path class="Likouala" d="M749.2768 523.5124L749.165 523.5124 748.7179 523.1771 747.6002 522.8418 718.4279 522.2829 716.3043 521.9476 715.0748 521.5006 713.8453 520.2711 713.7336 518.0356 713.3982 517.4768 712.9512 517.1415 712.1688 516.4708 711.2746 515.912 710.4922 515.912 709.9333 515.5767 709.3745 511.3294 709.4862 509.9881 710.8275 507.7527 710.604 506.2997 709.1509 501.3817 709.1509 500.5993 711.4981 495.3461 711.9452 492.7754 711.051 490.5399 709.2627 488.8634 706.9155 487.2986 704.6801 487.075 703.4506 489.4222 701.9976 486.7397 702.78 483.6101 706.692 478.2451 704.6801 476.4568 702.3329 475.8979 701.4387 475.0037 705.5743 470.0858 705.5743 469.0799 703.7859 468.6328 703.4506 468.0739 703.5624 459.0205 704.3448 457.3439 706.2449 456.785 707.5861 455.6673 707.2508 453.0966 705.7978 448.7375 705.3507 446.6139 705.0154 438.7899 704.6801 436.4427 702.8917 430.9659 702.6682 428.8422 703.3388 427.3892 704.4565 426.495 705.7978 425.9362 707.0273 425.1538 708.0332 423.9243 708.0332 422.9184 707.6979 421.8007 707.1391 419.0064 705.9096 416.4356 705.7978 415.3179 706.4684 413.9767 707.2508 413.9767 708.145 414.2002 709.0392 413.6414 709.3745 412.4119 709.4862 411.5177 709.3745 411.0706 706.3567 405.5938 698.1974 393.7461 696.409 391.9578 691.4911 389.7223 652.7065 339.4253 651.5888 337.5252 650.8064 335.6251 650.1358 332.3837 650.024 320.7595 650.4711 319.3065 651.0299 318.4123 652.3712 316.7358 653.2653 315.9534 654.1595 315.3945 656.9538 314.0532 658.6304 313.0473 659.4128 312.2649 659.9716 311.4825 660.3069 310.5883 660.5305 309.6942 660.5305 303.6585 660.9776 301.982 661.5364 300.6407 662.0953 299.7465 662.3188 298.07 661.9835 295.9463 659.5245 285.7751 658.5186 284.3221 657.7362 283.3162 656.842 282.422 656.2832 281.6396 655.389 279.8513 652.93 272.8097 652.5947 271.2449 652.7065 269.4565 653.0418 268.2271 653.0418 267.2211 652.8183 266.327 651.1417 264.8739 650.6946 263.9798 650.9182 262.862 651.3652 261.9679 651.8123 261.2972 653.8242 258.9501 654.2713 258.0559 654.4948 257.1617 654.4948 256.044 653.0418 246.3199 651.9241 243.4139 651.5888 242.1844 651.8123 240.8431 652.93 238.8312 657.4009 226.5364 657.6244 225.5305 657.5127 223.9657 656.6185 221.6185 655.1655 215.8064 655.0537 214.8004 655.0537 213.7945 655.389 211.4473 655.0537 206.6411 654.2713 203.9586 653.3771 196.8053 653.4889 194.9052 653.8242 193.0051 654.1595 191.9991 654.6066 191.2167 655.2772 190.6579 656.842 189.8755 657.5127 189.4284 657.848 188.646 657.9597 187.8636 657.5127 185.5164 656.3949 183.8398 655.1655 180.2631 654.8301 174.6746 655.8361 167.1859 655.5008 163.4975 655.6125 160.7032 655.389 159.3619 654.8301 157.6854 649.1298 147.626 648.4592 146.7318 647.6768 145.8376 645.5531 144.8317 641.5294 143.2669 640.5234 143.3787 639.6293 143.6022 636.835 144.6081 636.0526 144.8317 635.4937 144.7199 635.1584 144.7199 634.9349 144.3846 634.5996 143.714 634.4878 140.5844 634.2642 139.5784 633.7054 138.5725 629.4581 133.8781 628.4521 133.0957 627.6697 132.5369 627.2227 132.3133 626.552 131.6427 625.8814 130.6367 625.5461 128.6249 625.6579 127.3954 626.105 126.3894 626.3285 125.3835 626.105 124.2658 625.3226 122.5892 623.8695 120.4656 620.7399 119.1243 619.1751 118.3419 621.8576 112.6416 625.2108 105.4882 625.7696 102.6939 624.6519 100.6821 622.9754 98.782 621.6341 96.5465 621.2988 91.4051 625.7696 82.7987 626.552 78.5514 625.6579 75.9806 624.4284 73.6334 623.5342 71.0627 623.646 68.2684 624.9872 65.5859 628.8992 59.9974 629.5699 57.5384 629.6816 54.6323 632.5877 47.2554 633.5936 37.5314 635.4937 32.3899 639.0704 28.0308 643.8766 24.9012 649.2416 23.3364 651.9241 23.1129 654.2713 23.3364 663.8836 25.6836 666.3426 25.5718 668.578 24.3424 668.8015 23.4482 668.578 22.2187 668.6898 21.2128 670.3663 21.101 671.484 21.3245 673.6077 22.1069 674.7254 22.3305 677.855 21.8834 679.0845 21.9952 680.314 22.7776 681.2081 23.7835 682.1023 24.3424 683.6671 23.7835 684.5613 23.6717 686.1261 23.7835 686.7967 23.7835 687.8026 23.3364 689.1439 22.2187 689.9263 21.6598 691.8264 20.7657 692.9441 20.5421 696.0737 20.7657 697.6385 20.4304 700.7681 19.2009 702.3329 18.7538 707.0273 18.9773 708.7039 18.642 710.604 17.8596 711.7217 16.7419 712.6158 15.5124 714.2924 14.1712 715.969 13.5006 717.422 13.7241 720.4398 14.73 724.6871 14.3947 727.1461 12.0475 729.4933 9.1415 733.9641 6.7943 735.5289 6.0119 737.2055 4.7824 739.1056 4 741.7881 4.3353 742.347 4.8942 742.7941 6.459 743.3529 6.9061 744.9177 7.0178 745.4766 7.3531 749.8356 10.9298 753.9712 12.8299 758.6656 13.5006 768.2779 13.5006 768.8367 13.3888 770.178 12.8299 771.0722 12.8299 771.8546 13.1652 772.9723 14.5065 773.6429 14.8418 774.7606 14.8418 776.996 14.3947 778.002 14.5065 779.7903 15.5124 781.2433 17.3008 782.3611 19.4244 782.9199 21.6598 783.7023 23.56 785.3789 23.8953 787.6143 23.2246 791.9734 21.101 792.644 20.5421 793.3146 20.8774 797.4502 23.4482 798.5679 23.8953 799.9091 23.6717 803.5976 21.8834 807.5096 20.8774 811.6451 20.8774 815.5571 22.1069 817.6807 24.1188 819.1338 28.8132 820.6986 30.4898 823.1575 30.8251 825.6165 29.7074 827.6284 27.8073 828.9696 25.7954 829.4167 24.5659 830.3109 21.101 830.9815 19.5362 831.8757 19.2009 832.8816 19.5362 834.1111 19.5362 843.3881 18.7538 844.1705 18.8656 845.4 19.5362 846.2942 19.5362 846.7413 19.0891 847.1883 17.5243 847.6354 17.0772 848.9767 16.8537 850.9886 16.9655 851.9945 16.5184 854.1182 14.5065 855.4594 12.9417 856.9124 12.8299 859.9303 15.1771 861.7186 17.5243 866.5248 25.1248 868.4249 29.4838 869.7661 30.8251 874.9076 30.9369 875.9135 34.1782 876.1371 38.5373 876.4724 43.2317 876.8077 48.7085 876.4724 52.1734 876.1371 57.3149 875.4664 65.5859 874.3487 68.2684 874.237 69.2744 874.1252 69.6097 873.3428 71.5098 872.3369 72.404 871.5545 73.0746 867.4189 75.1982 865.0717 76.763 863.5069 78.8867 860.8244 86.8224 859.7067 90.3991 857.8066 93.3052 857.3595 94.4229 856.9124 96.9936 856.4653 98.2231 854.3417 101.2409 853.224 103.5881 851.5474 107.1648 851.1003 108.7296 850.765 111.8592 847.7472 119.7949 846.853 121.3597 846.2942 122.2539 838.9173 134.884 838.582 135.89 837.3525 136.2253 830.6462 142.4845 829.1932 144.3846 828.299 146.2847 826.9578 153.1028 826.1754 155.3382 825.1694 157.5736 823.9399 159.6972 822.2634 163.721 821.1457 165.5094 819.1338 166.0682 818.6867 167.2977 815.8924 170.6508 814.9982 171.9921 812.7628 177.916 810.5274 184.2869 810.5274 185.9635 811.198 189.5402 811.4216 193.1168 811.3098 195.0169 811.0862 201.4997 810.8627 204.1822 811.4216 208.3177 811.198 208.653 811.4216 210.2178 811.5333 210.8884 811.0862 212.1179 810.7509 214.2416 809.9685 216.8123 809.9685 217.4829 809.745 219.2713 809.745 219.6066 809.0744 220.5008 808.8508 223.7421 808.8508 225.4187 808.8508 225.6422 809.2979 227.3188 809.5215 227.9894 809.6332 229.4425 809.745 230.2249 809.745 230.4484 810.0803 231.4543 810.5274 250.2319 810.4156 250.5672 810.5274 251.7967 810.5274 252.8026 810.4156 253.9204 810.4156 254.2557 809.745 256.3793 806.0565 264.4268 805.3859 265.5446 804.8271 266.5505 804.6035 266.8858 804.2682 267.5564 803.5976 269.3448 803.374 270.3507 803.1505 271.4684 803.0387 271.4684 802.927 272.1391 802.3681 273.145 802.0328 273.4803 800.5798 277.3923 799.2385 279.8513 798.7914 282.1985 798.6796 283.3162 798.1208 283.9868 797.5619 284.7692 793.6499 290.0224 795.103 292.4814 795.4383 293.8227 795.5501 295.2757 795.6618 296.1699 795.6618 296.5052 795.6618 297.6229 795.4383 299.523 795.3265 300.1936 793.8735 302.8761 793.7617 303.5468 792.1969 305.8939 788.5085 309.4706 788.1732 310.0295 786.273 313.1591 785.9377 313.9415 785.826 315.7298 785.0436 316.5122 784.5965 317.8535 784.9318 319.53 784.82 321.7655 784.5965 323.8891 784.0376 326.6834 784.0376 328.5835 785.9377 334.1721 786.7201 335.2898 787.9496 337.0781 788.5085 338.084 788.8438 339.3135 788.9556 340.6548 788.9556 342.1078 789.8497 345.3492 788.732 349.5965 789.4026 353.2849 789.2909 353.6202 788.732 355.0733 788.5085 355.4086 788.1732 355.8557 788.0614 356.9734 787.3908 358.7617 787.279 362.3384 787.279 362.4502 787.279 364.3503 787.6143 366.4739 787.8378 366.921 788.8438 369.0447 790.5204 370.9448 790.9674 371.7272 792.5322 373.1802 792.7558 373.4037 794.7677 375.3039 795.2147 375.7509 795.5501 376.0862 796.2207 378.3217 796.4442 380.3336 795.7736 391.6224 795.103 393.5226 788.1732 403.1349 787.279 403.8055 785.1553 405.2585 784.0376 406.5998 783.8141 407.1586 782.1375 409.2823 781.2433 410.4 780.3492 412.7472 779.0079 414.9826 778.7844 415.3179 778.7844 415.4297 777.3314 418.8946 776.4372 421.3536 775.8783 422.9184 775.8783 423.0301 775.0959 426.2715 774.7606 429.5129 774.7606 429.6246 774.6488 430.7424 773.8664 433.4249 774.3135 433.9837 774.4253 434.0955 774.7606 434.6543 773.8664 436.6662 772.7487 441.5842 772.637 441.8077 771.7428 443.4843 770.0662 446.6139 768.8367 450.4141 768.6132 453.7672 768.9485 457.4557 769.0603 458.6851 768.8367 460.8088 768.9485 462.5971 769.3956 465.615 769.7309 467.5151 770.0662 468.4092 771.8546 475.6744 772.0781 479.8099 771.8546 481.8218 770.6251 486.1809 770.4015 486.9633 770.178 488.5281 769.8427 490.8752 769.3956 493.8931 769.3956 494.0048 769.2838 494.4519 768.3897 498.4757 767.4955 500.5993 767.1602 501.6053 765.4836 504.5113 765.2601 504.7349 764.0306 505.8526 762.1305 507.9762 761.9069 508.1998 760.0068 511.7765 759.7833 512 759.6715 512.1118 759.1127 512.7824 753.7476 515.4649 751.1769 520.3828 751.0651 521.3888 749.2768 523.5124Z" />
  <path class="Niari" d="M180.6968 846.084L177.679 848.6548 176.673 849.996 176.3377 850.7784 176.1142 851.6726 176.0024 853.0139 176.1142 855.0257 177.3437 860.9496 178.6849 864.0792 178.4614 865.0851 177.5672 866.9853 177.679 868.8854 177.9025 869.7795 179.2438 873.0209 178.9085 873.8033 178.2378 874.2504 177.4554 874.5857 176.673 875.1446 176.0024 876.1505 175.3318 877.2682 174.5494 878.833 174.8847 879.7272 175.5553 880.5096 179.0202 882.6332 180.8086 883.9745 181.7028 884.7569 184.3853 888.2218 188.5208 895.4869 194.78 902.6403 195.5624 903.4227 200.8156 907.3347 203.2746 909.9054 204.7276 911.9173 206.963 916.1646 210.9868 922.0884 219.2579 938.407 220.4873 939.9718 220.9344 940.1954 221.7168 940.1954 222.7228 940.7542 223.9523 941.5366 225.7406 943.7721 226.9701 944.6662 228.0878 945.1133 229.8761 945.1133 231.7762 945.4486 232.6704 945.3369 233.5646 945.1133 234.4587 945.1133 235.2411 945.3369 236.0235 945.7839 236.9177 946.1193 237.8119 946.3428 239.4884 946.1193 240.3826 946.1193 242.0592 946.9017 242.9534 947.237 243.8475 947.237 244.7417 947.3487 246.53 948.0194 248.4301 948.1311 250.2185 949.1371 252.6774 951.3725 257.5954 958.3023 258.6013 960.426 259.2719 962.1025 260.3897 963.5556 261.5074 965.6792 262.8486 967.244 264.0781 968.4735 264.637 969.4794 264.9723 970.2618 265.1958 972.3855 265.5311 973.615 266.2018 974.5091 267.0959 974.9562 268.8843 975.4033 269.7784 975.6268 278.273 981.4389 282.8557 983.6744 284.7558 984.9039 285.9853 985.9098 286.6559 986.804 287.103 987.6981 287.3265 988.5923 287.8854 991.9454 287.9971 992.3925 286.9912 992.7278 285.5382 992.169 283.191 989.71 281.738 989.0394 280.3967 989.2629 276.5965 991.4983 277.826 992.5043 278.273 993.5102 277.9377 994.4044 276.5965 995.075 270.6726 999.4341 267.8783 1002.899 267.4312 1002.5637 266.9842 1002.0048 266.4253 1001.446 265.7547 1000.7754 265.1958 999.993 264.9723 999.2106 264.9723 999.0988 264.9723 998.987 265.084 998.6517 264.7487 998.3164 264.637 998.2046 264.5252 997.4222 264.4134 997.1987 264.637 996.8634 264.7487 996.5281 264.9723 996.3045 264.637 995.075 264.1899 994.6279 263.9663 994.2926 262.8486 994.2926 262.4015 994.1809 262.2898 993.8455 261.1721 992.7278 259.4955 991.8337 252.4539 989.2629 252.0068 989.0394 251.895 988.5923 251.448 988.3688 251.2244 988.0334 251.0009 987.8099 250.7773 987.5864 250.5538 987.4746 250.2185 987.251 250.1067 986.9157 250.1067 986.804 250.1067 986.6922 250.2185 986.3569 250.442 986.2451 250.6656 986.1333 251.448 986.1333 251.3362 985.9098 250.7773 985.3509 250.3303 985.0156 249.2125 982.2213 249.1008 982.1096 248.8772 981.7743 247.8713 980.6565 247.6477 980.433 247.4242 980.3212 247.2007 980.0977 246.53 979.9859 246.1947 979.7624 244.9652 979.0917 244.7417 978.8682 244.5182 978.6447 244.0711 978.0858 243.8475 977.7505 243.2887 977.4152 242.9534 977.1916 242.8416 977.0799 242.5063 976.0739 242.0592 975.7386 241.8356 975.6268 240.9415 976.0739 240.2708 976.4092 239.4884 976.7446 239.3767 976.7446 239.1531 976.1857 237.1413 973.0561 236.1353 971.3795 233.6763 968.3617 230.7703 968.697 228.8702 971.2678 229.0937 975.1798 223.7287 972.4972 216.1283 963.332 211.5457 959.6436 209.1985 957.0728 207.0748 951.4843 205.3982 949.1371 203.6099 948.1311 202.2686 948.2429 200.8156 948.9135 199.0273 949.2488 197.4625 948.9135 195.3388 947.7958 194.8917 946.4546 191.6504 943.325 189.415 941.5366 188.1855 940.7542 186.3971 939.9718 185.2794 939.6365 184.1617 939.5248 176.7848 939.8601 175.8906 939.8601 174.9965 939.6365 173.9905 939.1894 172.9846 938.407 168.8491 932.8185 167.9549 931.0301 167.7314 930.0242 167.7314 929.13 167.7314 928.2359 168.7373 922.6473 168.7373 921.8649 168.5138 921.0825 167.7314 919.9648 166.5019 918.0647 156.8895 906.8876 155.8836 905.9934 154.5424 905.3228 150.6304 904.4286 149.9597 903.8697 149.6244 903.1991 149.5127 902.4167 149.7362 901.7461 149.7362 901.299 149.6244 900.9637 148.9538 900.5166 147.7243 899.846 145.1536 898.9518 143.7006 898.6165 141.4651 898.393 138.6708 897.387 135.653 896.9399 132.0763 895.7105 129.6174 895.2634 128.9468 894.9281 128.7232 894.3692 128.6114 893.6986 128.6114 892.2455 128.3879 891.7985 127.829 891.2396 125.9289 890.3454 123.9171 889.0042 120.4521 887.8865 116.6519 887.5512 115.5342 887.2158 111.5105 885.5393 95.8625 874.1386 92.5094 872.462 89.9386 872.1267 88.9327 871.5679 88.0385 870.8972 85.8031 867.3206 87.815 866.5382 90.2739 864.6381 92.3976 862.1791 93.2917 859.4966 92.5094 857.0376 90.2739 855.9199 87.4796 855.0257 85.0207 853.5727 83.903 851.1138 84.2383 848.4312 90.8328 832.6715 92.3976 829.8772 97.4273 826.1888 98.9921 823.618 97.7626 819.9296 93.2917 817.8059 87.815 816.2411 83.5677 814.2293 78.8733 810.429 76.4143 808.976 69.8198 806.1817 68.9256 805.5111 67.9197 804.5052 67.6961 804.0581 67.9197 803.3875 68.0315 795.3399 68.5903 793.3281 70.1551 790.422 71.3846 789.6396 72.9494 789.7514 75.6319 789.5278 78.538 787.7395 78.538 785.2805 76.7496 782.598 67.9197 773.0975 63.8959 767.2854 61.9958 765.1617 59.6486 764.3793 56.4073 765.3853 51.7129 768.7384 49.701 769.0737 49.1421 766.2794 50.2598 761.9204 50.4834 761.0262 58.978 747.1666 59.9839 744.2605 60.5428 741.8015 60.5428 739.4543 59.9839 736.4365 58.8662 733.8658 55.9602 729.0596 55.066 726.7124 54.9542 724.5888 55.8484 718.2178 55.4013 715.6471 52.9424 708.829 53.8365 706.5936 54.0601 706.4818 58.4191 706.5936 64.2312 708.382 65.796 709.1644 66.5784 710.1703 67.0255 711.0645 67.9197 712.0704 71.8317 715.2 73.9553 716.3177 75.8554 716.4295 77.8673 715.3118 81.7793 711.7351 84.3501 710.7292 88.5974 709.835 93.4035 708.2702 97.092 706.4818 98.3215 707.1525 100.4451 708.7173 104.3571 713.6352 107.9338 716.0942 111.5105 716.4295 157.6719 706.5936 156.3307 704.0229 157.2249 700.2227 158.7897 696.1989 159.5721 692.8458 158.7897 688.0396 158.9014 686.363 159.7956 684.5747 161.9193 681.3333 162.3663 679.3215 157.8955 677.1978 155.4365 673.5094 154.4306 668.815 153.4246 656.2966 153.8717 654.7318 155.213 654.9553 156.5542 656.4084 158.7897 658.7556 160.8015 659.4262 162.3663 658.6438 162.8134 657.4143 162.9252 656.1848 163.1487 655.1789 163.8194 653.7259 164.3782 652.9435 165.1606 652.2728 170.8609 648.4726 172.0904 648.0255 177.7908 647.802 182.7087 649.9256 190.4209 655.4024 190.9798 655.8495 195.8977 657.4143 197.7978 658.7556 199.1391 661.5498 201.7098 670.0444 202.8275 672.5034 203.4981 673.3976 205.2865 675.1859 205.8453 675.8565 206.2924 678.5391 206.0689 678.5391 206.0689 679.0979 205.9571 679.7685 206.1806 680.3274 208.4161 680.998 208.3043 681.6686 207.8572 682.3393 207.6337 682.8981 207.0748 683.7923 206.963 684.5747 207.1866 685.3571 208.7514 686.8101 209.1985 687.5925 209.3102 688.822 209.7573 690.9457 211.4339 690.8339 214.2282 689.3809 215.2341 690.3868 217.4695 693.9635 218.4755 695.3047 219.1461 698.4343 219.3696 699.3285 220.2638 700.2227 220.9344 700.2227 221.4933 700.3344 221.8286 701.6757 220.8227 702.6816 220.152 703.6876 219.9285 704.8053 219.8167 705.8112 219.4814 706.8172 219.0343 707.8231 218.4755 708.6055 217.246 709.7232 216.5754 710.8409 216.9107 711.5116 218.4755 711.3998 219.8167 710.0585 220.7109 710.9527 221.4933 711.6233 222.0521 711.7351 222.9463 711.6233 223.7287 711.1762 224.6229 710.8409 225.4053 710.8409 226.0759 711.288 226.523 712.0704 226.523 713.0763 225.4053 718.4414 224.9582 738.4484 226.2994 754.8788 226.8583 756.7789 229.3173 762.2557 229.3173 763.0381 229.0937 763.8205 228.0878 764.1558 226.1877 764.3793 225.4053 764.8264 223.7287 766.2794 222.9463 766.7265 221.2697 767.3971 220.7109 767.8442 220.3756 768.2913 220.3756 769.2972 220.7109 769.9679 221.4933 771.4209 221.9404 773.2092 222.2757 773.9916 222.7228 774.6623 223.5052 775.1094 225.9641 775.78 227.7525 775.8917 228.5349 776.2271 233.8999 780.5861 234.6823 781.4803 235.2411 782.3745 235.6882 783.2686 235.5765 784.1628 235.4647 784.7217 234.0117 788.6337 232.7822 793.9987 233.1175 800.8167 232.6704 802.158 231.6645 803.7228 227.6407 807.8583 224.5111 809.4231 223.2816 810.3173 222.2757 811.6585 220.3756 812.6645 219.5932 812.6645 218.8108 812.888 216.1283 814.0057 215.2341 814.1175 214.3399 814.1175 212.7751 813.6704 212.1045 813.5586 211.6574 813.7822 211.5457 814.5646 211.5457 817.8059 211.4339 818.3648 211.0986 818.8119 210.2044 818.9237 209.6455 818.7001 208.8631 817.8059 208.1925 817.8059 207.2983 818.1413 205.7336 819.259 204.7276 819.7061 203.8334 819.8178 203.2746 819.5943 201.8216 818.7001 201.2627 818.4766 200.4803 818.4766 199.8097 818.4766 198.5802 818.5883 198.2449 818.7001 196.233 819.7061 195.6741 819.9296 195.0035 819.9296 194.2211 819.9296 190.7562 819.3707 189.3032 819.3707 188.5208 819.5943 187.8502 819.7061 187.1795 820.0414 185.503 821.2708 183.9382 821.9415 183.4911 822.165 183.1558 822.5003 182.7087 823.0592 182.3734 823.5063 182.1498 823.9534 181.0321 828.9831 180.2497 830.9949 180.0262 831.3303 179.6909 831.6656 179.2438 831.8891 178.6849 832.0009 176.3377 832.0009 176.0024 832.1127 175.3318 832.3362 174.8847 832.6715 174.5494 833.0068 174.3259 834.2363 175.7789 835.6893 174.9965 837.1424 174.9965 837.9248 176.226 838.0365 177.0084 838.4836 177.3437 839.3778 177.4554 840.719 178.0143 841.725 179.0202 841.8367 180.138 841.8367 180.6968 842.2838 180.6968 846.084Z" />
  <path class="Plateaux" d="M379.7613 659.0909L379.9848 659.8733 380.4319 666.1325 381.1025 668.3679 381.9967 669.9327 382.8909 670.4915 384.6792 670.9386 386.4675 671.1622 387.4735 671.1622 388.3677 671.0504 392.7267 670.1562 393.6209 669.8209 394.4033 669.1503 394.8504 668.5914 395.1857 668.2561 396.0799 666.356 396.7505 665.5736 397.6447 664.903 398.8741 664.6794 400.886 663.7853 402.5626 662.5558 405.2451 660.0968 409.8277 653.7259 410.2748 652.8317 411.5043 649.3668 412.0631 648.5844 414.4103 645.9019 415.7516 643.7782 416.7575 642.437 419.9989 639.3074 420.8931 638.1897 422.3461 635.6189 422.6814 634.8365 423.1285 632.0422 424.0227 630.5892 425.5875 628.9127 431.176 624.2183 432.7408 623.2123 438.4411 620.7534 439.4471 620.5298 440.3413 620.418 444.9239 620.7534 446.3769 620.418 449.5065 619.0768 451.2948 617.9591 455.7657 613.8235 463.7014 603.5406 469.7371 584.6513 472.0843 579.6216 479.7965 569.6739 482.1437 567.5503 487.9558 565.0913 490.5265 563.4147 491.4207 562.4088 492.7619 560.1734 493.6561 559.2792 494.215 559.1674 495.3327 559.5028 495.8915 559.391 497.9034 557.7144 499.58 555.8143 502.8213 550.7846 504.7215 549.2198 508.857 547.9903 510.31 547.0961 511.2042 546.8726 511.6513 546.8726 512.8807 547.5432 513.5514 547.655 515.3397 546.9844 518.8046 545.3078 520.593 544.6372 522.8284 544.5254 529.0876 546.0902 533.6702 546.5373 535.6821 547.0961 537.2469 548.4374 537.8057 550.7846 537.8057 553.5789 538.2528 556.2614 540.1529 558.385 542.2766 559.2792 547.6416 560.5087 550.1006 561.6264 550.8829 562.4088 551.33 563.1912 551.8889 563.7501 557.2539 565.3149 558.1481 565.7619 559.8246 568.2209 560.8306 569.4504 561.7248 569.4504 562.9542 568.7798 563.2895 569.7857 563.4013 572.4682 565.525 573.5859 573.0136 574.2565 576.7021 575.7096 580.2788 577.4979 593.2442 585.5454 593.9149 586.3278 594.6972 586.7749 599.1681 587.3338 599.9505 587.7809 600.8447 588.675 601.4035 589.4574 603.1919 593.3694 605.6508 596.6108 609.3393 606.8937 612.2453 609.5762 617.1633 609.7998 616.4926 611.6999 618.0574 612.8176 620.0693 613.3765 620.5164 614.0471 620.7399 614.9413 623.3107 615.2766 626.3285 615.2766 628.2286 614.7177 630.3523 613.3765 632.6994 613.1529 635.0466 613.7118 638.5116 615.053 638.9586 614.9413 639.0704 615.053 639.6293 616.3943 639.5175 617.9591 638.9586 619.7474 639.2939 620.7534 641.9765 620.5298 645.6649 620.5298 645.7767 620.5298 643.4295 623.9947 642.6471 626.0066 641.9765 627.9067 641.8647 629.248 641.8647 630.8128 640.9705 632.6011 640.6352 633.2717 637.9527 638.525 637.6174 638.9721 633.9289 645.0077 633.7054 645.343 632.8112 646.9078 632.2524 647.802 632.0288 648.2491 628.1168 653.5023 626.2167 656.073 625.2108 657.1908 624.7637 657.6378 624.6519 657.7496 624.0931 657.9732 623.0871 658.9791 621.2988 661.2145 613.9219 668.4796 609.004 672.1681 602.5212 678.3155 599.2799 680.5509 596.3738 683.2334 593.4678 686.9219 592.1265 689.3809 591.2323 691.9516 591.3441 694.6341 591.5677 695.5283 591.5677 696.3107 590.0029 701.5639 589.7793 703.464 590.2264 705.2524 591.0088 706.3701 590.897 712.741 591.1206 714.5294 591.1206 714.7529 591.3441 716.7648 591.4559 717.5472 592.0147 720.2297 593.8031 728.389 593.8031 728.5008 595.7032 742.1369 595.3679 744.2605 595.2561 744.484 594.4737 747.2783 592.0147 751.8609 591.903 755.5494 593.2442 759.2378 593.356 759.4614 593.356 759.5732 593.2442 760.4673 592.6854 762.4792 592.1265 763.9322 591.0088 767.5089 590.4499 769.9679 590.4499 773.7681 590.2264 776.2271 590.4499 777.5683 586.2026 777.1212 583.6319 776.5624 580.6141 776.3388 579.6081 776.3388 578.3787 776.4506 576.1432 776.8977 575.1373 777.3448 574.3549 777.6801 574.0196 778.0154 573.5725 778.2389 573.349 778.3507 571.8959 778.2389 569.9958 777.9036 569.1017 777.4565 568.431 777.0095 568.0957 776.4506 567.7604 776.1153 567.2015 775.78 566.6427 775.5564 566.0838 775.3329 565.7485 774.8858 565.1897 773.0975 564.8543 772.5386 564.519 772.0915 564.0719 771.7562 563.4013 770.862 562.9542 770.5267 562.3954 770.3032 561.7248 770.0796 561.1659 769.8561 560.607 769.6326 559.2658 768.5149 557.9245 767.6207 554.7949 766.2794 553.3419 766.0559 551.8889 765.3853 549.9888 764.8264 549.4299 764.3793 548.8711 764.1558 548.2004 764.7146 547.3063 765.7206 546.8592 765.8323 545.7415 765.2735 544.9591 765.0499 537.4704 766.6147 536.3527 767.0618 534.6761 767.956 533.3349 768.9619 532.3289 769.5208 531.8818 770.0796 531.5465 770.5267 530.9877 771.5327 530.8759 772.2033 530.3171 772.6504 529.5347 772.9857 528.0816 773.2092 527.411 773.4328 526.9639 773.6563 526.2933 774.327 525.958 774.4387 525.0638 774.8858 522.4931 775.5564 521.2636 776.0035 519.6988 777.0095 518.9164 777.5683 517.6869 778.7978 517.2398 779.2449 516.7927 779.4684 515.8986 780.1391 514.222 781.7039 513.3278 782.3745 512.6572 782.7098 509.7512 784.6099 508.2981 785.2805 499.9153 788.1866 499.0211 788.1866 498.0152 788.0748 493.7679 786.8453 492.7619 786.7336 491.5325 786.8453 489.1853 787.0689 487.0616 787.6277 485.9439 787.6277 481.3613 786.8453 479.1259 786.0629 478.6788 785.7276 478.2317 785.5041 476.7787 785.1688 476.4433 784.8334 476.2198 784.6099 476.108 784.4981 475.9963 784.1628 475.7727 783.8275 475.3256 783.4922 474.655 783.2686 472.7549 782.9333 472.0843 782.7098 471.6372 782.3745 471.1901 782.0392 470.8548 781.4803 470.1842 779.692 469.7371 776.2271 469.5135 775.6682 469.1782 775.2211 467.9487 774.1034 467.2781 773.0975 466.9428 772.6504 466.4957 772.3151 465.4898 771.9798 458.0011 771.3091 457.2187 771.4209 454.648 772.4268 452.189 773.2092 450.1771 773.321 447.8299 773.0975 446.7122 772.7622 446.0416 772.2033 445.9298 771.6444 445.9298 770.9738 446.2651 769.8561 446.2651 769.5208 446.1534 769.0737 445.371 765.1617 445.371 762.1439 445.2592 761.4733 445.1474 760.8026 444.9239 760.2438 444.5886 759.7967 443.6944 759.0143 443.3591 758.679 443.1355 758.1201 443.3591 756.22 443.2473 755.5494 443.0238 754.9905 442.3531 754.0964 441.459 752.5316 441.2354 752.0845 440.7883 751.6374 439.7824 751.7492 438.5529 752.0845 434.9762 754.2081 433.9703 754.9905 431.176 756.5553 430.3936 757.226 429.9465 757.7848 429.8348 758.4554 429.8348 760.5791 429.8348 761.0262 429.3877 762.591 429.0524 763.2616 428.9406 763.4851 428.8288 763.5969 428.7171 763.7087 427.4876 764.6029 426.5934 765.497 422.4579 767.8442 421.0048 768.9619 420.8931 769.2972 420.2224 770.3032 416.7575 773.4328 413.6279 775.6682 413.1809 776.0035 412.9573 776.3388 412.8455 776.6741 412.2867 778.2389 412.0631 778.4625 411.7278 778.7978 409.8277 780.0273 408.9336 780.8097 406.1393 783.604 404.1274 784.8334 403.7921 785.057 403.4568 785.5041 401.6684 788.6337 400.9978 789.5278 399.2095 791.2044 397.8682 793.5516 397.4211 793.9987 396.3034 793.8869 394.5151 793.4398 391.3855 791.6515 389.9325 790.6455 389.0383 789.9749 388.703 789.5278 388.2559 789.1925 387.697 788.8572 387.0264 788.6337 383.1144 788.7454 381.7732 789.0807 380.9908 788.969 380.0966 788.7454 377.6376 787.2924 376.0728 786.9571 372.3844 787.1806 370.0372 786.2865 367.2429 782.3745 367.8018 781.2568 368.0253 780.8097 368.3606 780.0273 369.143 779.2449 370.4843 778.2389 370.9314 777.9036 371.2667 777.3448 371.4902 776.7859 371.7138 775.4447 372.0491 774.774 372.6079 774.1034 373.3903 773.5446 375.0669 772.6504 375.8493 772.0915 376.5199 771.1974 376.7435 770.1914 376.2964 768.5149 372.6079 758.2319 372.3844 756.3318 372.1608 755.7729 371.602 755.6612 370.596 756.7789 370.0372 757.1142 369.5901 756.6671 369.7019 755.5494 370.0372 754.4317 371.602 751.7492 371.9373 750.7432 371.9373 749.8491 371.4902 749.1784 370.0372 748.8431 368.9195 748.9549 367.8018 748.9549 366.9076 748.5078 365.7899 747.8372 364.7839 747.7254 363.8898 747.949 361.8779 749.0667 360.8719 749.1784 359.866 748.8431 358.6365 748.1725 357.7424 747.7254 356.7364 747.6136 354.8363 747.6136 354.0539 747.3901 353.2715 746.7195 352.8244 746.0488 352.6009 745.1547 353.048 744.484 354.6128 743.2546 356.0658 741.8015 357.7424 740.7956 358.5248 740.125 358.8601 739.2308 358.6365 738.4484 357.5188 737.5542 356.6246 737.666 355.954 738.1131 355.3952 738.5602 354.7245 738.5602 353.9421 738.1131 352.1538 736.8836 351.5949 736.213 351.2596 735.4306 351.9303 734.6482 353.495 734.3129 354.0539 734.0893 354.501 733.754 354.7245 733.3069 354.6128 732.7481 354.2774 731.8539 350.9243 728.7243 349.6948 725.5947 348.5771 723.8064 349.2477 721.6827 350.2537 720.6768 351.3714 719.7826 352.1538 718.7767 352.1538 715.7589 352.7127 714.5294 353.6068 713.6352 355.8422 711.7351 356.96 710.9527 358.0777 710.5056 363.6662 709.1644 364.1133 709.4997 363.2191 705.8112 354.501 698.3226 354.0539 694.2988 355.6187 693.0693 359.6425 691.6163 361.2073 689.9397 361.2073 689.0455 360.5366 687.0337 360.6484 685.916 361.2073 685.3571 363.2191 684.5747 364.0015 683.7923 364.5604 682.1157 365.231 676.0801 366.0134 673.7329 366.1252 672.6152 365.5663 671.6092 364.6722 670.9386 364.0015 670.268 363.8898 669.5974 364.5604 668.4796 364.4486 667.1384 364.7839 666.1325 365.3428 665.2383 366.237 664.3441 379.7613 659.0909Z" />
  <path class="Pointe Noire" d="M85.8031 987.5864L92.3976 987.5864 92.3976 1000.8871 91.0563 1000.8871 84.5736 994.0691 83.3441 992.6161 83.2323 991.9454 83.7912 991.163 84.4618 991.2748 86.0266 993.0631 86.5855 992.8396 87.1443 991.3866 86.809 988.9276 85.8031 987.5864Z" />
  <path class="Pool" d="M367.2429 782.3745L370.0372 786.2865 372.3844 787.1806 376.0728 786.9571 377.6376 787.2924 380.0966 788.7454 380.9908 788.969 381.7732 789.0807 383.1144 788.7454 387.0264 788.6337 387.697 788.8572 388.2559 789.1925 388.703 789.5278 389.0383 789.9749 389.9325 790.6455 391.3855 791.6515 394.5151 793.4398 396.3034 793.8869 397.4211 793.9987 397.8682 793.5516 399.2095 791.2044 400.9978 789.5278 401.6684 788.6337 403.4568 785.5041 403.7921 785.057 404.1274 784.8334 406.1393 783.604 408.9336 780.8097 409.8277 780.0273 411.7278 778.7978 412.0631 778.4625 412.2867 778.2389 412.8455 776.6741 412.9573 776.3388 413.1809 776.0035 413.6279 775.6682 416.7575 773.4328 420.2224 770.3032 420.8931 769.2972 421.0048 768.9619 422.4579 767.8442 426.5934 765.497 427.4876 764.6029 428.7171 763.7087 428.8288 763.5969 428.9406 763.4851 429.0524 763.2616 429.3877 762.591 429.8348 761.0262 429.8348 760.5791 429.8348 758.4554 429.9465 757.7848 430.3936 757.226 431.176 756.5553 433.9703 754.9905 434.9762 754.2081 438.5529 752.0845 439.7824 751.7492 440.7883 751.6374 441.2354 752.0845 441.459 752.5316 442.3531 754.0964 443.0238 754.9905 443.2473 755.5494 443.3591 756.22 443.1355 758.1201 443.3591 758.679 443.6944 759.0143 444.5886 759.7967 444.9239 760.2438 445.1474 760.8026 445.2592 761.4733 445.371 762.1439 445.371 765.1617 446.1534 769.0737 446.2651 769.5208 446.2651 769.8561 445.9298 770.9738 445.9298 771.6444 446.0416 772.2033 446.7122 772.7622 447.8299 773.0975 450.1771 773.321 452.189 773.2092 454.648 772.4268 457.2187 771.4209 458.0011 771.3091 465.4898 771.9798 466.4957 772.3151 466.9428 772.6504 467.2781 773.0975 467.9487 774.1034 469.1782 775.2211 469.5135 775.6682 469.7371 776.2271 470.1842 779.692 470.8548 781.4803 471.1901 782.0392 471.6372 782.3745 472.0843 782.7098 472.7549 782.9333 474.655 783.2686 475.3256 783.4922 475.7727 783.8275 475.9963 784.1628 476.108 784.4981 476.2198 784.6099 476.4433 784.8334 476.7787 785.1688 478.2317 785.5041 478.6788 785.7276 479.1259 786.0629 481.3613 786.8453 485.9439 787.6277 487.0616 787.6277 489.1853 787.0689 491.5325 786.8453 492.7619 786.7336 493.7679 786.8453 498.0152 788.0748 499.0211 788.1866 499.9153 788.1866 508.2981 785.2805 509.7512 784.6099 512.6572 782.7098 513.3278 782.3745 514.222 781.7039 515.8986 780.1391 516.7927 779.4684 517.2398 779.2449 517.6869 778.7978 518.9164 777.5683 519.6988 777.0095 521.2636 776.0035 522.4931 775.5564 525.0638 774.8858 525.958 774.4387 526.2933 774.327 526.9639 773.6563 527.411 773.4328 528.0816 773.2092 529.5347 772.9857 530.3171 772.6504 530.8759 772.2033 530.9877 771.5327 531.5465 770.5267 531.8818 770.0796 532.3289 769.5208 533.3349 768.9619 534.6761 767.956 536.3527 767.0618 537.4704 766.6147 544.9591 765.0499 545.7415 765.2735 546.8592 765.8323 547.3063 765.7206 548.2004 764.7146 548.8711 764.1558 549.4299 764.3793 549.9888 764.8264 551.8889 765.3853 553.3419 766.0559 554.7949 766.2794 557.9245 767.6207 559.2658 768.5149 560.607 769.6326 561.1659 769.8561 561.7248 770.0796 562.3954 770.3032 562.9542 770.5267 563.4013 770.862 564.0719 771.7562 564.519 772.0915 564.8543 772.5386 565.1897 773.0975 565.7485 774.8858 566.0838 775.3329 566.6427 775.5564 567.2015 775.78 567.7604 776.1153 568.0957 776.4506 568.431 777.0095 569.1017 777.4565 569.9958 777.9036 571.8959 778.2389 573.349 778.3507 573.5725 778.2389 574.0196 778.0154 574.3549 777.6801 575.1373 777.3448 576.1432 776.8977 578.3787 776.4506 579.6081 776.3388 580.6141 776.3388 583.6319 776.5624 586.2026 777.1212 590.4499 777.5683 590.5617 777.7919 590.6735 779.5802 591.2323 780.9215 591.3441 781.8156 590.897 787.6277 590.897 787.7395 590.1146 788.5219 589.5558 792.9927 589.5558 793.2163 590.1146 796.4576 590.4499 800.705 591.0088 802.7168 591.6794 805.3993 591.903 807.7465 591.1206 810.429 590.897 813.7822 591.4559 815.6823 592.4618 816.8 595.0326 818.3648 595.3679 819.0354 594.0266 824.1769 593.2442 826.3006 591.7912 829.4301 591.2323 830.6596 588.6616 834.7952 586.3144 837.5894 584.8614 840.1602 584.4143 841.9485 584.079 843.2898 582.626 847.09 582.2906 847.3135 579.4964 851.7844 577.0374 854.5787 576.255 855.4728 575.5844 856.8141 574.9138 858.2671 574.802 858.6024 570.89 866.4264 570.1076 868.9971 568.431 870.6737 566.978 874.8092 565.3014 878.1624 565.1897 878.4977 564.519 879.5036 562.1718 876.5976 560.2717 874.3622 558.4834 871.5679 557.9245 867.3206 556.1362 862.2909 553.3419 856.7023 549.6535 850.6667 546.6356 846.7547 540.1529 844.4075 535.9056 842.6191 531.7701 843.5133 528.5287 846.7547 526.1815 851.002 523.3872 857.0376 520.7047 859.7201 517.5751 859.0495 513.8867 855.3611 509.7512 850.2196 506.5098 846.9782 503.7155 843.7369 498.574 841.8367 492.0913 840.0484 488.4029 837.2541 485.1615 836.807 482.8143 840.9426 481.9201 848.3195 481.473 856.2552 480.4671 863.6321 478.2317 870.6737 473.8726 875.2563 467.3899 878.9448 464.1485 884.9804 464.1485 891.0161 466.3839 898.5047 466.831 904.5404 465.0427 913.3703 461.3542 919.4059 458.56 926.3358 456.2128 931.9243 451.1831 938.407 448.0535 943.5485 452.189 947.684 455.4304 951.4843 458.2246 957.0728 461.8013 961.5437 461.6895 961.6554 461.5778 961.879 461.466 961.9908 455.7657 964.8968 454.8715 966.1263 454.0891 967.6911 445.1474 976.521 435.6469 992.5043 434.7527 994.4044 433.5232 996.1927 431.7349 997.6458 426.2581 999.993 418.5459 1004.9109 415.081 1006.0286 410.6101 1006.4757 409.3806 1006.0286 405.6922 1003.7932 404.2392 1003.3461 403.7921 1003.0108 402.7861 1001.446 402.2273 1000.8871 401.3331 1000.8871 398.7624 1000.9989 398.3153 1000.5518 397.3094 999.2106 395.1857 999.2106 392.9503 999.7694 391.4972 1000.5518 389.1501 1003.0108 387.697 1003.7932 385.4616 1004.1285 384.0086 1004.352 383.8968 1004.1285 383.6733 1003.2343 383.6733 1002.3402 383.6733 1001.3342 384.0086 1000.1047 384.1204 999.2106 384.3439 998.0928 384.791 996.4163 385.3498 995.1868 385.5734 994.0691 386.0205 991.4983 386.244 990.1571 386.1322 989.2629 385.9087 988.3688 385.6851 987.5864 384.9028 986.0216 384.5674 984.6803 384.4557 984.0097 384.6792 982.892 384.2321 979.9859 382.8909 978.0858 381.2143 976.521 381.6614 975.7386 382.1085 974.6209 382.5556 973.3914 382.8909 971.8266 383.2262 970.1501 383.0026 968.0264 382.8909 966.9087 382.7791 965.6792 382.7791 965.0086 384.4557 964.2262 385.5734 963.8909 386.5793 963.332 386.9146 962.6614 386.9146 961.5437 387.1382 961.7672 387.2499 960.7613 387.4735 959.3083 387.2499 958.6376 387.8088 958.5259 388.3677 957.4081 388.5912 957.2964 388.9265 957.1846 389.0383 957.0728 390.3795 955.9551 390.4913 955.6198 390.7149 955.1727 390.8266 954.6139 391.0502 953.7197 391.4972 953.1608 391.4972 953.0491 391.9443 952.7138 392.7267 951.9314 391.9443 951.9314 391.609 951.8196 391.3855 951.7078 391.4972 951.149 390.7149 950.3666 386.6911 947.7958 384.4557 945.1133 383.338 943.5485 383.785 943.2132 384.5674 942.319 385.2381 941.2013 385.5734 940.0836 385.5734 939.1894 384.9028 937.7364 384.3439 936.954 383.5615 936.5069 382.7791 936.2834 382.7791 936.1716 382.8909 934.8304 382.5556 933.9362 381.8849 933.3773 379.7613 933.6009 374.7316 936.2834 369.4783 937.5129 367.0194 939.1894 362.6603 943.1014 358.3012 945.1133 353.8304 946.5663 343.6592 947.7958 339.3001 949.5842 335.8352 954.1668 335.7234 954.5021 335.3881 954.7256 333.5998 956.0669 331.5879 958.4141 330.3584 959.1965 329.2407 959.1965 325.8876 958.3023 325.8876 958.1905 326.7817 954.8374 328.0112 952.8255 328.3465 951.9314 328.7936 950.2548 329.1289 949.3606 330.582 946.6781 330.8055 945.4486 331.4761 937.6246 332.4821 934.1597 332.7056 933.7127 333.2645 933.1538 333.9351 932.4832 335.6117 932.2596 339.859 930.136 342.5415 928.1241 346.0064 924.3239 347.1241 923.3179 348.6889 922.7591 352.6009 921.7531 354.501 920.9707 353.6068 920.0766 355.5069 918.7353 355.6187 916.8352 353.6068 912.1408 354.9481 909.9054 356.5129 908.3406 362.4367 904.2051 363.2191 903.4227 363.5545 902.4167 364.1133 900.0695 364.6722 899.3989 365.6781 899.6224 369.4783 901.8579 374.2845 901.8579 374.8433 901.299 376.7435 898.6165 378.42 896.6046 379.3142 895.934 380.7672 895.3751 379.3142 892.9162 378.1965 889.6748 376.8552 886.9923 374.7316 885.7628 372.4961 885.3157 371.3784 883.8627 371.0431 881.9626 371.0431 879.8389 367.2429 873.5798 364.6722 870.6737 361.6543 865.0851 361.319 863.2968 361.8779 863.185 362.9956 863.6321 364.6722 863.4086 365.7899 862.5144 367.4664 860.6143 368.3606 860.1672 369.143 859.9437 372.1608 858.3789 372.6079 858.2671 372.3844 857.5965 371.8255 856.8141 370.9314 855.6964 370.4843 854.6904 369.9254 852.0079 369.9254 850.3314 369.8136 849.4372 369.2548 848.543 368.3606 847.3135 367.3547 845.4134 366.7958 844.5193 365.9017 843.8486 365.1193 842.8427 363.4427 842.0603 360.9837 841.6132 356.5129 839.8249 355.7305 839.266 354.3892 837.9248 353.6068 837.7012 352.8244 838.2601 351.9303 839.9366 351.3714 840.6073 349.0242 842.1721 348.0183 842.8427 341.5355 850.7784 340.6414 851.2255 339.5237 851.5608 334.6057 852.0079 333.5998 851.7844 332.3703 851.4491 330.582 850.5549 329.1289 850.1078 325.8876 849.8843 324.7699 849.6607 320.6343 847.3135 321.9756 846.5311 322.3109 846.084 322.5344 845.637 322.6462 844.631 322.5344 843.2898 322.5344 842.9545 322.6462 842.7309 323.9875 841.6132 324.7699 840.6073 326.1111 838.1483 326.67 836.807 327.4524 835.1305 327.6759 834.3481 327.5641 833.7892 327.5641 833.5657 327.5641 833.3421 327.6759 833.0068 328.123 832.448 330.582 830.1008 332.3703 828.8713 333.1527 828.536 333.3762 828.3124 337.7353 823.5063 338.1824 822.7239 338.9648 821.2708 339.4119 820.4884 339.9707 819.9296 341.8708 818.8119 342.0944 818.4766 342.8768 816.4647 343.3239 815.9058 343.771 815.4587 344.8887 814.7881 346.3417 814.1175 346.7888 813.6704 346.9006 812.9998 346.677 812.4409 346.677 811.9938 346.9006 811.6585 347.5712 811.2114 348.13 810.6526 348.6889 809.8702 349.6948 807.4112 350.1419 806.8524 351.2596 806.1817 351.5949 805.7347 351.7067 805.3993 351.5949 804.5052 351.7067 802.9404 352.042 801.7109 353.8304 797.7989 355.7305 790.8691 356.0658 789.9749 356.5129 789.1925 358.7483 787.4042 367.2429 782.3745Z" />
  <path class="Sangha" d="M619.1751 118.3419L620.7399 119.1243 623.8695 120.4656 625.3226 122.5892 626.105 124.2658 626.3285 125.3835 626.105 126.3894 625.6579 127.3954 625.5461 128.6249 625.8814 130.6367 626.552 131.6427 627.2227 132.3133 627.6697 132.5369 628.4521 133.0957 629.4581 133.8781 633.7054 138.5725 634.2642 139.5784 634.4878 140.5844 634.5996 143.714 634.9349 144.3846 635.1584 144.7199 635.4937 144.7199 636.0526 144.8317 636.835 144.6081 639.6293 143.6022 640.5234 143.3787 641.5294 143.2669 645.5531 144.8317 647.6768 145.8376 648.4592 146.7318 649.1298 147.626 654.8301 157.6854 655.389 159.3619 655.6125 160.7032 655.5008 163.4975 655.8361 167.1859 654.8301 174.6746 655.1655 180.2631 656.3949 183.8398 657.5127 185.5164 657.9597 187.8636 657.848 188.646 657.5127 189.4284 656.842 189.8755 655.2772 190.6579 654.6066 191.2167 654.1595 191.9991 653.8242 193.0051 653.4889 194.9052 653.3771 196.8053 654.2713 203.9586 655.0537 206.6411 655.389 211.4473 655.0537 213.7945 655.0537 214.8004 655.1655 215.8064 656.6185 221.6185 657.5127 223.9657 657.6244 225.5305 657.4009 226.5364 652.93 238.8312 651.8123 240.8431 651.5888 242.1844 651.9241 243.4139 653.0418 246.3199 654.4948 256.044 654.4948 257.1617 654.2713 258.0559 653.8242 258.9501 651.8123 261.2972 651.3652 261.9679 650.9182 262.862 650.6946 263.9798 651.1417 264.8739 652.8183 266.327 653.0418 267.2211 653.0418 268.2271 652.7065 269.4565 652.5947 271.2449 652.93 272.8097 655.389 279.8513 656.2832 281.6396 656.842 282.422 657.7362 283.3162 658.5186 284.3221 659.5245 285.7751 661.9835 295.9463 662.3188 298.07 662.0953 299.7465 661.5364 300.6407 660.9776 301.982 660.5305 303.6585 660.5305 309.6942 660.3069 310.5883 659.9716 311.4825 659.4128 312.2649 658.6304 313.0473 656.9538 314.0532 654.1595 315.3945 653.2653 315.9534 652.3712 316.7358 651.0299 318.4123 650.4711 319.3065 650.024 320.7595 650.1358 332.3837 650.8064 335.6251 651.5888 337.5252 652.7065 339.4253 691.4911 389.7223 609.2275 430.6306 608.7804 430.2953 608.4451 429.8482 608.2216 429.2893 607.998 428.7305 607.8862 428.1716 607.6627 427.7245 607.5509 427.3892 607.4392 427.2774 606.8803 427.2774 603.3036 427.501 602.633 427.3892 602.1859 427.0539 601.8506 426.6068 600.9564 425.1538 600.5094 424.7067 600.0623 424.3714 598.3857 423.7008 597.9386 423.3655 597.4915 423.0301 596.5974 422.2477 595.9267 421.9124 594.809 421.6889 594.2502 421.8007 593.4678 422.0242 591.3441 423.1419 590.3382 423.3655 589.5558 423.3655 588.8851 423.1419 586.6497 422.136 585.9791 421.9124 584.9732 421.6889 584.5261 421.4653 584.4143 421.13 584.6378 418.4475 584.6378 417.4416 584.4143 416.3239 584.1908 415.765 583.8554 415.4297 583.5201 415.0944 582.7377 414.6473 582.2906 414.312 581.9553 413.9767 581.7318 413.4178 581.62 412.9707 581.5083 412.5237 581.7318 406.1527 581.62 405.5938 579.4964 401.3465 578.8257 400.4524 577.4845 399.4464 575.8079 397.8816 575.3608 397.5463 574.802 397.3228 569.9958 395.758 567.0898 395.1991 566.3074 394.9756 565.8603 394.6403 565.4132 394.305 565.0779 393.8579 564.8543 393.299 564.7426 392.6284 564.6308 390.5047 564.519 389.9459 564.0719 389.4988 563.7366 389.0517 562.6189 388.6046 560.2717 387.7105 559.7129 387.3751 558.8187 386.8163 558.3716 386.481 557.5892 385.5868 557.1421 385.3633 556.5833 385.0279 556.1362 384.6926 555.6891 384.3573 555.0185 383.9102 551.1065 383.2396 548.3122 383.2396 545.4062 382.569 544.8473 382.4572 544.4002 382.569 543.5061 383.1278 542.7237 383.4631 541.6059 383.7985 540.8235 383.7985 540.2647 383.4631 540.0411 383.0161 539.7058 382.3454 539.3705 381.8983 538.4763 381.4513 537.5822 381.3395 536.3527 381.3395 535.6821 381.4513 535.235 381.6748 534.4526 382.1219 534.229 382.2337 530.6524 382.4572 530.2053 382.569 529.3111 383.1278 528.6405 383.4631 527.9699 383.5749 526.9639 383.7985 526.2933 384.022 525.7344 384.2455 525.0638 384.8044 524.8403 385.0279 524.1696 385.2515 522.8284 385.475 522.2695 385.5868 521.9342 385.6986 521.7107 385.8103 521.4871 386.0339 521.2636 386.2574 520.8165 387.2634 520.2576 389.1635 520.0341 389.7223 519.6988 390.2812 519.3635 390.6165 517.9105 391.6224 517.4634 391.9578 515.8986 393.8579 515.2279 394.305 514.4455 394.4167 513.7749 394.305 513.2161 394.0814 512.2101 393.299 511.4277 392.9637 510.1982 392.7402 509.0805 392.8519 508.4099 392.8519 507.851 392.8519 507.404 392.5166 506.9569 392.2931 506.398 392.0695 505.8392 391.846 504.3861 391.3989 503.0449 391.2871 502.2625 391.0636 500.5859 390.5047 499.1329 390.1694 498.3505 390.2812 497.5681 390.6165 496.8975 391.0636 495.8915 391.5107 495.1091 391.5107 494.4385 391.5107 492.2031 391.2871 488.6264 390.2812 488.1793 390.393 487.1734 390.84 486.7263 390.7283 486.391 390.2812 486.391 389.6106 486.6145 388.6046 486.7263 388.2693 486.5028 387.8222 486.391 387.7105 486.0557 387.3751 485.6086 387.3751 485.385 387.5987 485.0497 388.0458 484.4909 388.3811 484.1556 388.0458 484.0438 387.4869 484.0438 386.7045 483.8202 386.0339 483.5967 385.5868 483.1496 385.1397 482.479 384.8044 478.7905 383.7985 477.7846 383.9102 477.2257 383.5749 476.8904 383.1278 476.8904 382.569 477.0022 381.8983 475.8845 381.116 474.0961 380.5571 473.4255 380.11 473.0902 379.6629 473.0902 379.1041 472.8667 378.5452 472.0843 377.9864 471.6372 377.651 471.0783 377.3157 465.0427 375.1921 464.2603 374.745 463.8132 374.1861 463.5897 373.6273 463.4779 373.0684 463.0308 370.2741 463.0308 368.8211 463.0308 367.5916 463.1426 367.3681 463.2543 367.0328 463.3661 366.6975 464.9309 364.3503 465.0427 363.6796 465.1545 363.009 465.0427 362.3384 463.4779 357.644 463.1426 355.6321 463.0308 347.1375 464.1485 340.9901 464.1485 339.9842 463.8132 338.9782 462.2484 336.5193 462.0249 335.9604 461.6895 334.7309 461.3542 332.8308 461.3542 332.1602 461.466 331.8249 461.6895 331.4895 462.4719 330.9307 462.8073 330.5954 463.4779 329.5894 463.7014 329.3659 464.0367 329.1424 464.4838 328.9188 464.9309 328.6953 465.1545 328.4717 465.6015 327.5776 465.9369 327.1305 466.3839 326.7952 466.831 326.4598 468.0605 326.1245 469.5135 326.0128 470.0724 325.7892 470.5195 325.4539 470.8548 324.895 470.9666 324.448 471.0783 323.8891 471.0783 323.5538 470.8548 322.4361 469.4018 319.1947 469.1782 319.0829 468.6194 318.6359 467.6134 318.077 464.3721 316.7358 463.5897 316.2887 463.1426 315.8416 461.8013 314.165 461.0189 313.8297 460.1248 313.7179 456.4363 313.9415 453.4185 313.8297 450.4007 313.2708 447.2711 312.1531 442.912 309.2471 436.4293 306.0057 435.088 305.2233 434.0821 304.2174 432.7408 301.8702 431.9584 300.7525 429.2759 298.9641 427.9347 298.4053 426.8169 298.07 425.811 297.9582 424.9168 298.07 424.0227 298.2935 417.6517 297.3993 405.1333 293.5991 402.5626 292.4814 399.0977 290.0224 398.6506 289.24 398.3153 288.4576 397.3094 281.0807 396.7505 279.1806 396.527 278.2865 396.4152 276.3864 396.1916 275.3804 395.521 274.2627 394.9622 273.9274 394.2915 273.7039 388.703 274.8216 387.3617 274.598 385.3498 274.2627 384.5674 274.2627 384.0086 274.4862 383.0026 274.8216 380.879 275.2686 379.426 275.3804 374.2845 274.9333 373.5021 274.9333 372.8315 275.0451 368.3606 276.051 366.237 276.3864 364.3369 276.9452 362.4367 277.9512 362.2132 277.2805 360.8719 277.057 359.9778 276.3864 359.3072 275.604 358.3012 274.9333 353.7186 273.7039 351.3714 273.4803 349.2477 273.9274 345.1122 275.604 342.6532 275.3804 340.7531 274.1509 339.0766 272.4744 336.9529 271.1331 334.941 270.686 313.0339 268.6741 311.3573 269.1212 311.2455 269.6801 310.1278 272.5861 308.7866 275.3804 308.3395 275.7157 307.11 276.1628 306.7747 276.051 305.4334 275.3804 304.7628 275.2686 303.9804 275.604 302.6392 276.6099 301.8568 277.057 299.7331 277.3923 298.6154 277.5041 297.6095 277.3923 295.2623 277.6158 293.5857 278.7336 292.1327 279.963 287.8854 281.6396 285.3146 285.1045 283.7498 286.2222 279.8378 287.0046 276.3729 287.0046 272.7963 286.334 268.6607 284.881 266.9842 284.6574 264.4134 284.9927 262.178 285.5516 261.1721 286.4458 260.5014 288.5694 258.4895 289.0165 256.3659 289.3518 254.2422 292.0343 252.1186 292.9285 249.6596 293.3756 245.6359 293.152 243.2887 293.4873 242.0592 293.3756 241.7239 291.699 240.6062 290.9166 239.2649 290.3578 238.0354 289.3518 240.2708 289.1283 241.0532 287.6752 241.5003 286.1105 242.5063 285.3281 244.0711 285.1045 246.0829 284.4339 247.7595 283.3162 248.8772 280.969 249.5479 280.5219 249.7714 279.963 248.7655 278.51 248.4301 277.7276 248.4301 276.8334 248.4301 275.9393 248.3184 270.3507 248.4301 269.4565 246.53 268.2271 244.4064 262.6385 242.0592 261.409 242.7298 259.7325 242.618 258.1677 241.8356 256.8264 240.4944 255.8205 239.712 256.6029 237.5883 253.6968 235.6882 250.3437 237.5883 247.9965 238.0354 245.2022 237.3648 239.949 237.7001 237.49 238.5943 235.2546 238.9296 233.2427 238.0354 231.2308 239.4884 230.3366 240.7179 228.8836 241.6121 227.0953 242.7298 222.848 242.9534 220.9479 242.5063 219.6066 241.8356 218.7124 240.9415 216.5888 239.3767 214.5769 239.9355 214.018 241.2768 213.571 242.0592 211.7826 242.8416 210.4414 243.624 209.5472 244.4064 208.7648 244.9652 207.9824 245.3006 206.7529 244.6299 204.6293 244.6299 203.6233 245.6359 203.1762 246.3065 202.7292 248.4301 200.4937 249.1008 199.9349 253.2363 197.5877 254.4658 194.9052 254.9129 191.105 254.8011 184.1751 274.8081 184.2869 292.6915 184.5105 297.6095 184.5105 316.387 184.6222 337.1765 184.8458 355.7305 185.0693 367.9135 185.1811 369.0312 184.9575 374.0609 183.0574 381.4378 184.0634 383.338 185.0693 385.5734 187.0812 387.2499 187.5283 387.9206 187.3047 390.2678 185.8517 399.433 183.8398 400.4389 183.5045 400.886 182.4986 400.5507 181.3809 400.5507 180.3749 401.6684 179.369 402.2273 178.5866 405.2451 179.369 409.0453 183.7281 411.8396 184.9575 410.8337 186.7459 411.9514 187.3047 414.9692 187.193 416.6458 188.1989 418.8812 190.5461 420.6695 191.3285 419.8871 188.4224 420.6695 187.9754 423.7991 189.6519 422.1226 190.9932 421.4519 191.3285 422.5696 191.6638 423.7991 191.552 424.8051 191.3285 425.3639 191.3285 425.5875 192.1109 425.4757 194.6816 425.811 195.2405 432.9644 194.4581 434.6409 194.011 435.5351 193.0051 435.7586 191.552 435.7586 190.099 436.541 189.4284 438.2176 190.9932 439.7824 193.3404 440.1177 194.4581 442.3531 196.0229 441.1237 199.2642 440.6766 202.1703 445.2592 202.5056 447.8299 202.1703 448.8359 201.6114 449.8418 198.8172 450.9595 199.0407 456.4363 203.3998 458.2246 203.9586 460.4601 203.1762 461.9131 205.2999 463.8132 204.741 465.7133 202.7292 466.831 200.9408 467.6134 200.9408 469.29 201.4997 470.8548 198.1465 474.5432 199.4878 476.108 198.8172 477.8964 198.2583 480.3553 199.2642 480.9142 199.9349 481.5848 201.7232 482.0319 202.5056 482.7025 202.8409 486.6145 204.2939 487.5087 205.0763 488.1793 205.9705 488.4029 206.7529 488.2911 208.3177 488.0675 208.9883 488.2911 209.4354 489.1853 210.4414 489.7441 210.5531 492.4266 211.7826 492.4266 212.0062 493.7679 211.7826 496.0033 210.6649 498.3505 209.8825 504.2744 206.4176 509.3041 205.6352 514.4455 206.6411 524.2814 209.5472 535.3468 210.7767 535.9056 211.3355 537.1351 212.0062 538.5881 212.565 541.2706 213.0121 542.053 213.4592 546.5239 219.1595 547.9769 219.9419 551.1065 221.0596 553.9008 222.848 555.0185 223.4068 555.8009 224.1892 556.1362 225.9776 556.695 226.9835 558.0363 226.8717 559.6011 226.3129 560.8306 225.6422 561.1659 227.4306 562.9542 228.3248 565.1897 228.7718 567.2015 229.5542 568.431 228.8836 569.7723 228.9954 571.1135 229.4425 572.0077 230.3366 572.5666 231.6779 572.343 232.7956 572.0077 233.9133 572.0077 235.1428 573.0136 237.1547 577.5963 243.0785 582.8495 235.5899 583.8554 235.2546 586.3144 236.1487 587.5439 235.5899 587.991 233.6898 585.1967 220.8361 581.2847 210.6649 579.1611 207.2 578.1551 206.3058 577.4845 205.9705 577.0374 205.2999 576.9256 201.0526 577.1492 199.9349 578.9375 197.4759 578.9375 196.3582 578.6022 195.464 578.3787 194.4581 578.2669 194.3463 578.2669 194.1228 578.2669 193.5639 578.3787 192.8933 578.714 192.3344 579.2728 192.2227 579.7199 192.2227 579.9435 192.1109 580.167 190.4343 579.9435 189.3166 579.3846 188.3107 579.1611 186.8576 579.3846 185.5164 580.8376 182.9457 581.62 180.3749 583.5201 179.2572 585.8673 179.5925 587.991 181.7162 592.6854 178.1395 593.5795 176.91 593.0207 175.9041 592.3501 175.3452 598.2739 162.6033 603.6389 151.4262 607.3274 143.4904 612.5806 132.2015 617.6103 121.695 619.1751 118.3419Z" />
</svg>