<?xml version="1.0" encoding="utf-8"?>
<svg xmlns="http://www.w3.org/2000/svg" viewBox="0 0 693 1024" style="stroke-width:0.25px;stroke-linejoin:round;stroke:#444;fill:#ddd" fill-rule="evenodd">
  <path class="Capellen" d="M128.8345 658.0849L141.3529 658.0849 150.0711 663.897 153.7595 665.7971 156.3303 671.6092 171.1958 671.6092 181.1435 667.6972 188.5204 658.0849 194.7795 656.1848 203.4977 650.4845 214.6748 646.5725 217.1338 646.5725 228.3109 648.5844 232.8935 649.7021 235.7996 650.4845 238.2585 661.9969 240.7175 663.897 237.029 677.3096 244.4059 677.3096 253.1241 677.3096 267.9897 683.1217 279.1668 683.1217 286.6554 683.1217 292.9146 679.2097 292.9146 669.7091 301.521 677.3096 305.3212 681.2216 317.7278 681.2216 315.2689 700.3344 310.2392 713.747 322.6458 719.5591 328.905 731.0715 335.0524 742.5839 331.3639 750.1844 316.4983 750.1844 311.4686 750.1844 310.2392 744.484 301.521 736.7718 294.1441 746.3842 286.6554 746.3842 282.967 757.8966 280.3963 771.3091 275.4783 775.1094 274.2488 782.8216 266.7602 788.5219 266.7602 800.0343 254.3536 800.0343 246.9767 801.9344 245.6354 811.5468 241.947 819.259 234.4583 826.8594 243.1765 830.7714 243.1765 838.3718 243.1765 846.1958 240.7175 847.9842 231.9993 851.7844 229.5404 865.1969 225.8519 867.097 217.1338 872.7974 214.6748 872.7974 212.1041 863.2968 202.2682 863.2968 192.3206 863.2968 191.0911 872.7974 187.2909 872.7974 179.914 878.6095 172.4253 880.5096 167.5074 880.5096 157.5597 882.4097 145.1531 888.11 131.4053 888.11 126.4873 870.8972 124.0284 876.7094 116.5397 859.3848 107.2627 854.6904 111.6218 834.5716 117.7692 828.7595 106.5921 824.9593 97.9857 823.0592 107.8216 813.4469 122.7989 803.9463 122.7989 779.0213 130.1758 767.5089 143.9237 761.6968 148.8416 761.6968 148.8416 721.4592 114.0807 700.3344 112.8513 685.0218 124.0284 667.6972 128.8345 658.0849Z" />
  <path class="Clervaux" d="M364.2246 288.793L361.2068 290.4695 352.4887 288.4576 348.6884 286.5575 347.459 274.9333 343.7705 274.9333 331.3639 273.0332 325.1047 273.0332 322.6458 280.7454 330.1344 284.6574 328.905 284.6574 328.905 294.2697 325.1047 300.0818 322.6458 307.7941 322.6458 323.2185 318.9573 334.8427 313.5923 342.4431 304.0917 340.543 292.9146 340.543 292.9146 330.9307 294.1441 313.6062 286.6554 311.7061 284.1965 325.1186 271.4546 320.2007 269.2191 319.4183 276.7078 301.982 269.2191 305.8939 260.6128 292.3696 267.9897 274.9333 285.426 263.4209 289.1144 247.9965 276.7078 247.9965 273.0194 244.0845 261.8422 247.9965 249.4356 242.1844 237.029 230.5602 224.6224 220.9479 210.8746 217.0359 202.2682 207.3118 182.3729 215.1358 167.5074 215.1358 162.4777 232.4603 164.9366 249.8966 148.8416 257.6088 137.6645 267.2211 117.7692 249.8966 110.3923 267.2211 90.497 267.2211 84.2378 269.233 84.2378 261.409 74.2902 261.409 74.2902 240.1725 76.9727 232.9074 81.4436 230.8955 88.0381 223.8539 88.2616 222.848 100.4447 222.848 106.5921 193.7875 114.0807 182.275 111.6218 176.4629 106.5921 166.7388 106.5921 164.1681 107.8216 163.1622 113.2983 155.1146 113.5219 154.1087 122.7989 147.4024 133.976 145.5023 132.7465 120.3538 135.2055 110.6297 136.3232 99.7879 169.0722 83.6928 175.1078 77.3219 186.0614 73.857 197.2385 62.2328 199.6975 62.2328 204.7272 35.0724 203.0506 16.8537 220.1516 15.0653 234.123 4 239.8233 10.2592 242.8411 23.7835 248.3179 34.0664 256.3655 37.9784 260.2774 39.8785 270.4486 41.3316 290.9028 38.0902 298.8385 33.1723 304.5388 26.9131 309.4568 26.2425 311.5804 26.0189 323.2046 37.3078 327.1166 50.2733 326.1107 63.574 328.1226 74.6394 341.5351 80.675 335.2759 101.0174 330.9168 120.3538 325.2165 159.9208 326.8931 160.9267 332.2581 160.3679 334.27 160.7032 330.9168 165.2858 322.534 181.6044 332.3699 187.3047 338.182 198.8172 343.7705 228.213 341.3116 243.7492 345.2235 255.1498 360.7597 278.9571 364.2246 288.793Z" />
  <path class="Diekirch" d="M435.0876 404.8114L436.4288 408.0528 450.512 422.4713 481.1373 436.1074 494.3263 444.602 498.5736 452.3142 502.1503 462.0383 503.6033 465.8385 493.991 465.8385 486.5023 465.8385 476.6664 465.8385 480.3549 475.4508 470.4073 488.9751 469.1778 496.6873 470.4073 500.4876 482.8139 508.1998 477.8959 515.912 470.4073 515.912 470.4073 523.6242 464.2598 527.4244 462.9186 540.9487 458.0007 542.8488 452.8592 553.6906 450.512 546.6491 445.5941 542.8488 435.6464 540.9487 431.958 540.9487 413.2922 529.3245 407.1448 519.7122 405.8035 502.3877 397.1971 502.3877 383.4493 502.3877 372.3839 502.3877 362.4363 502.3877 352.4887 504.3996 341.3116 514.0119 330.1344 510.0999 325.1047 500.4876 318.9573 500.4876 310.2392 496.6873 306.5507 490.8752 295.3736 494.7872 277.9373 498.5875 270.5604 498.5875 266.7602 496.6873 264.0777 498.4757 258.1538 502.3877 246.9767 502.3877 238.2585 504.3996 225.8519 510.0999 219.5927 502.3877 219.5927 498.5875 218.3633 485.1749 212.1041 475.4508 213.4453 465.8385 223.2812 471.6506 219.3692 456.0026 225.8519 454.3261 233.2288 448.514 235.7996 429.2893 237.029 419.677 249.4356 415.765 250.6651 408.0528 253.1241 390.7283 258.1538 379.2158 255.5831 369.4917 263.0717 367.5916 274.2488 361.7795 280.3963 354.0673 280.3963 352.1672 274.2488 338.6429 267.9897 327.1305 271.4546 320.2007 284.1965 325.1186 286.6554 311.7061 294.1441 313.6062 292.9146 330.9307 292.9146 340.543 304.0917 340.543 313.5923 342.4431 313.9276 342.5549 320.1868 344.455 326.3342 359.8794 335.0524 363.7914 340.0821 365.6915 338.8526 386.9281 353.7182 390.7283 362.4363 398.4405 367.3542 402.3525 377.3019 415.765 387.2495 419.677 399.6561 429.2893 405.8035 433.0895 408.3743 415.765 414.5217 415.765 424.4693 408.0528 435.0876 404.8114Z" />
  <path class="Echternach" d="M503.6033 465.8385L507.6271 476.4568 508.5212 481.1512 515.7864 481.8218 525.734 475.6744 529.3107 473.5507 537.2464 473.7743 539.4818 475.2273 552.5591 483.4983 578.49 508.1998 593.6909 518.0356 609.4506 522.2829 652.7061 522.2829 680.5371 530.554 684.1138 530.7776 688.9199 536.0308 688.5846 535.6955 686.6845 537.7074 686.5727 549.4433 685.2315 550.4493 680.9842 580.7393 680.8724 590.6869 683.3314 596.8343 682.996 602.3111 674.1661 610.0233 673.4955 622.2064 664.1067 619.7474 650.4706 619.7474 641.7525 619.7474 636.8345 623.5476 626.8869 640.8722 624.4279 627.4596 618.1688 617.8473 605.7622 615.8354 603.3032 612.0352 597.044 604.323 590.8966 598.6227 585.8669 604.323 578.49 608.235 575.9193 608.235 575.9193 623.5476 572.2308 627.4596 563.5127 627.4596 558.5947 617.8473 553.565 617.8473 547.4176 631.2598 538.6994 633.16 523.8339 627.4596 511.4273 627.4596 503.9386 619.7474 490.3025 617.8473 481.5844 613.9353 478.0077 609.688 481.5844 600.5228 489.073 581.2981 477.8959 575.486 476.6664 567.8856 470.4073 563.9736 458.0007 563.9736 453.0827 554.3613 452.8592 553.6906 458.0007 542.8488 462.9186 540.9487 464.2598 527.4244 470.4073 523.6242 470.4073 515.912 477.8959 515.912 482.8139 508.1998 470.4073 500.4876 469.1778 496.6873 470.4073 488.9751 480.3549 475.4508 476.6664 465.8385 486.5023 465.8385 493.991 465.8385 503.6033 465.8385Z" />
  <path class="Esch-sur-Alzette" d="M107.2627 854.6904L116.5397 859.3848 124.0284 876.7094 126.4873 870.8972 131.4053 888.11 145.1531 888.11 157.5597 882.4097 167.5074 880.5096 172.4253 880.5096 179.914 878.6095 187.2909 872.7974 191.0911 872.7974 192.3206 863.2968 202.2682 863.2968 212.1041 863.2968 214.6748 872.7974 217.1338 872.7974 225.8519 867.097 229.5404 865.1969 231.9993 851.7844 240.7175 847.9842 243.1765 846.1958 251.8946 840.2719 279.1668 840.2719 286.6554 834.5716 299.062 832.6715 310.2392 844.0722 330.1344 865.1969 338.8526 868.9971 345 870.8972 348.6884 870.8972 354.9476 870.8972 368.5837 880.5096 382.2198 886.2099 390.938 888.11 390.938 901.5226 389.7085 907.3347 379.7608 911.1349 379.7608 914.9351 381.8845 926.224 394.6264 927.3417 394.6264 926.4475 404.574 924.5474 419.5514 928.3476 426.9283 916.8352 431.958 909.2348 434.4169 905.3228 440.5644 905.3228 448.2766 908.3406 450.512 918.7353 450.512 930.2477 414.5217 934.048 408.1507 934.8304 399.6561 935.9481 394.6264 935.9481 388.1437 935.9481 384.7905 935.9481 379.7608 941.7602 379.7608 942.5426 379.7608 952.1549 358.3008 954.5021 364.2246 967.244 338.7408 969.5912 332.3699 972.1619 327.5637 980.6565 327.6755 989.5982 325.7754 996.4163 325.6636 996.9751 323.987 997.6458 314.71 1001.2224 306.5507 1013.629 302.7505 1012.3996 301.521 1004.7991 290.3439 995.1868 267.9897 1020 253.1241 1016.1998 231.9993 1012.3996 218.3633 1014.2997 214.6748 985.6862 202.2682 951.2607 191.0911 953.1608 166.1661 943.6603 153.7595 945.5604 135.2055 949.3606 120.2282 949.3606 102.9036 935.9481 91.7265 924.5474 94.1855 911.1349 89.2675 901.5226 83.0084 886.2099 70.6018 903.4227 71.4959 881.7391 79.767 872.7974 88.0381 872.7974 105.3626 863.2968 107.2627 854.6904Z" />
  <path class="Grevenmacher" d="M673.4955 622.2064L673.4955 622.4299 675.6191 633.8306 679.8664 643.89 686.3492 652.4964 678.5252 649.4785 674.2779 651.4904 671.1483 658.3085 677.4075 665.4618 677.631 665.9089 665.3362 675.4095 656.0592 683.457 612.8037 711.5116 598.8323 731.1833 600.3971 735.8777 606.2092 739.7897 611.686 745.1547 612.5802 754.4317 610.1212 760.6909 603.3032 770.7503 594.2497 789.5278 578.6018 808.976 574.6898 801.9344 567.3129 801.9344 553.565 807.7465 548.6471 794.334 541.1584 792.4339 539.9289 792.4339 537.47 786.6218 532.552 786.6218 517.5747 786.6218 513.6627 778.2389 511.4273 773.2092 507.6271 761.6968 501.4796 755.9965 493.991 748.2843 493.991 731.0715 490.3025 723.3593 484.0433 711.8469 482.8139 711.8469 475.437 700.3344 469.1778 700.3344 462.9186 696.5342 456.7712 696.5342 431.958 696.5342 419.5514 692.734 410.8332 700.3344 402.1151 696.5342 392.8381 693.2928 393.3969 692.734 399.6561 677.3096 408.3743 669.7091 405.8035 656.1848 414.5217 640.8722 423.2398 638.9721 436.8759 629.3597 439.3349 608.235 448.053 610.1351 456.7712 612.0352 467.9483 615.8354 477.8959 610.1351 478.0077 609.688 481.5844 613.9353 490.3025 617.8473 503.9386 619.7474 511.4273 627.4596 523.8339 627.4596 538.6994 633.16 547.4176 631.2598 553.565 617.8473 558.5947 617.8473 563.5127 627.4596 572.2308 627.4596 575.9193 623.5476 575.9193 608.235 578.49 608.235 585.8669 604.323 590.8966 598.6227 597.044 604.323 603.3032 612.0352 605.7622 615.8354 618.1688 617.8473 624.4279 627.4596 626.8869 640.8722 636.8345 623.5476 641.7525 619.7474 650.4706 619.7474 664.1067 619.7474 673.4955 622.2064Z" />
  <path class="Luxembourg" d="M448.2766 908.3406L440.5644 905.3228 434.4169 905.3228 431.958 909.2348 426.9283 916.8352 419.5514 928.3476 404.574 924.5474 394.6264 926.4475 394.6264 927.3417 381.8845 926.224 379.7608 914.9351 379.7608 911.1349 389.7085 907.3347 390.938 901.5226 390.938 888.11 382.2198 886.2099 368.5837 880.5096 354.9476 870.8972 348.6884 870.8972 345 870.8972 338.8526 868.9971 330.1344 865.1969 310.2392 844.0722 299.062 832.6715 286.6554 834.5716 279.1668 840.2719 251.8946 840.2719 243.1765 846.1958 243.1765 838.3718 243.1765 830.7714 234.4583 826.8594 241.947 819.259 245.6354 811.5468 246.9767 801.9344 254.3536 800.0343 266.7602 800.0343 266.7602 788.5219 274.2488 782.8216 275.4783 775.1094 280.3963 771.3091 282.967 757.8966 286.6554 746.3842 294.1441 746.3842 301.521 736.7718 310.2392 744.484 311.4686 750.1844 316.4983 750.1844 331.3639 750.1844 335.0524 742.5839 328.905 731.0715 322.6458 719.5591 310.2392 713.747 315.2689 700.3344 325.1047 692.734 333.8229 688.822 343.7705 688.822 350.0297 690.7221 354.9476 690.7221 362.4363 698.4343 371.0427 698.4343 377.3019 698.4343 384.7905 702.2345 392.8381 693.2928 402.1151 696.5342 410.8332 700.3344 419.5514 692.734 431.958 696.5342 456.7712 696.5342 462.9186 696.5342 469.1778 700.3344 475.437 700.3344 482.8139 711.8469 484.0433 711.8469 490.3025 723.3593 493.991 731.0715 493.991 748.2843 501.4796 755.9965 507.6271 761.6968 511.4273 773.2092 513.6627 778.2389 486.5023 809.6466 502.7091 817.3589 510.1978 823.0592 511.4273 838.3718 496.4499 836.4717 491.532 836.4717 482.8139 838.3718 474.0957 853.6845 471.6367 865.1969 462.9186 863.2968 455.5417 863.2968 446.8235 861.3967 443.1351 867.097 448.053 876.7094 439.3349 876.7094 436.8759 888.11 445.5941 895.8222 448.053 907.3347 448.2766 908.3406Z" />
  <path class="Mersch" d="M232.8935 649.7021L237.029 640.8722 237.029 637.0719 237.029 621.6475 238.2585 613.9353 228.3109 613.9353 224.6224 613.9353 220.8222 610.1351 227.0814 600.5228 237.029 590.9105 235.7996 573.5859 235.7996 565.8737 239.488 554.3613 246.9767 548.6609 249.4356 544.749 259.3833 537.0367 270.5604 531.3364 264.3012 525.5243 259.3833 514.0119 264.0777 498.4757 266.7602 496.6873 270.5604 498.5875 277.9373 498.5875 295.3736 494.7872 306.5507 490.8752 310.2392 496.6873 318.9573 500.4876 325.1047 500.4876 330.1344 510.0999 341.3116 514.0119 352.4887 504.3996 362.4363 502.3877 372.3839 502.3877 383.4493 502.3877 397.1971 502.3877 405.8035 502.3877 407.1448 519.7122 413.2922 529.3245 431.958 540.9487 435.6464 540.9487 445.5941 542.8488 450.512 546.6491 452.8592 553.6906 453.0827 554.3613 458.0007 563.9736 470.4073 563.9736 476.6664 567.8856 477.8959 575.486 489.073 581.2981 481.5844 600.5228 478.0077 609.688 477.8959 610.1351 467.9483 615.8354 456.7712 612.0352 448.053 610.1351 439.3349 608.235 436.8759 629.3597 423.2398 638.9721 414.5217 640.8722 405.8035 656.1848 408.3743 669.7091 399.6561 677.3096 393.3969 692.734 392.8381 693.2928 384.7905 702.2345 377.3019 698.4343 371.0427 698.4343 362.4363 698.4343 354.9476 690.7221 350.0297 690.7221 343.7705 688.822 333.8229 688.822 325.1047 692.734 315.2689 700.3344 317.7278 681.2216 305.3212 681.2216 301.521 677.3096 292.9146 669.7091 292.9146 679.2097 286.6554 683.1217 279.1668 683.1217 267.9897 683.1217 253.1241 677.3096 244.4059 677.3096 237.029 677.3096 240.7175 663.897 238.2585 661.9969 235.7996 650.4845 232.8935 649.7021Z" />
  <path class="Redange" d="M40.9824 425.1538L43.3296 425.3773 51.936 425.3773 54.5067 433.0895 59.4246 438.9017 70.6018 437.0015 81.7789 437.0015 92.956 431.1894 85.4673 419.677 100.4447 415.765 111.6218 413.8649 112.8513 413.8649 112.8513 425.3773 120.2282 431.1894 132.7465 440.8018 133.976 429.2893 137.6645 425.3773 140.1234 419.677 146.3826 413.8649 152.53 423.4772 160.0187 437.0015 160.0187 446.6139 155.1008 452.426 162.4777 454.3261 172.4253 438.9017 176.1138 433.0895 188.5204 433.0895 197.2385 438.9017 207.1861 444.7138 212.1041 446.6139 218.3633 456.2262 219.3692 456.0026 223.2812 471.6506 213.4453 465.8385 212.1041 475.4508 218.3633 485.1749 219.5927 498.5875 219.5927 502.3877 225.8519 510.0999 238.2585 504.3996 246.9767 502.3877 258.1538 502.3877 264.0777 498.4757 259.3833 514.0119 264.3012 525.5243 270.5604 531.3364 259.3833 537.0367 249.4356 544.749 246.9767 548.6609 239.488 554.3613 235.7996 565.8737 235.7996 573.5859 237.029 590.9105 227.0814 600.5228 220.8222 610.1351 224.6224 613.9353 228.3109 613.9353 238.2585 613.9353 237.029 621.6475 237.029 637.0719 237.029 640.8722 232.8935 649.7021 228.3109 648.5844 217.1338 646.5725 214.6748 646.5725 203.4977 650.4845 194.7795 656.1848 188.5204 658.0849 181.1435 667.6972 171.1958 671.6092 156.3303 671.6092 153.7595 665.7971 150.0711 663.897 141.3529 658.0849 128.8345 658.0849 132.7465 650.4845 115.3102 635.0601 104.1331 635.0601 94.1855 637.0719 84.2378 637.0719 75.6315 635.0601 80.5494 608.235 75.6315 594.7107 65.6838 583.1982 51.936 556.2614 44.5591 546.6491 39.5294 542.8488 37.0704 542.8488 24.6638 539.0486 14.7162 539.0486 13.4867 517.8121 9.7982 504.3996 8.5688 490.8752 1.0801 483.163 9.7982 481.2629 9.7982 465.8385 11.0277 456.2262 11.0277 447.9551 17.3987 448.6257 12.4807 441.1371 19.7459 433.0895 43.3296 433.0895 40.9824 425.1538Z" />
  <path class="Remich" d="M578.6018 808.976L570.666 818.5883 557.1417 840.0484 552.0002 855.3611 552.0002 899.3989 550.2119 912.8114 544.288 957.6317 546.8587 994.8515 532.552 985.6862 508.8565 976.0739 499.0207 968.4735 487.8436 945.5604 466.7188 932.1479 450.512 930.2477 450.512 918.7353 448.2766 908.3406 448.053 907.3347 445.5941 895.8222 436.8759 888.11 439.3349 876.7094 448.053 876.7094 443.1351 867.097 446.8235 861.3967 455.5417 863.2968 462.9186 863.2968 471.6367 865.1969 474.0957 853.6845 482.8139 838.3718 491.532 836.4717 496.4499 836.4717 511.4273 838.3718 510.1978 823.0592 502.7091 817.3589 486.5023 809.6466 513.6627 778.2389 517.5747 786.6218 532.552 786.6218 537.47 786.6218 539.9289 792.4339 541.1584 792.4339 548.6471 794.334 553.565 807.7465 567.3129 801.9344 574.6898 801.9344 578.6018 808.976Z" />
  <path class="Vianden" d="M364.2246 288.793L374.5076 318.3006 381.6609 330.5954 391.385 311.3707 406.8095 336.4075 435.0876 404.8114 424.4693 408.0528 414.5217 415.765 408.3743 415.765 405.8035 433.0895 399.6561 429.2893 387.2495 419.677 377.3019 415.765 367.3542 402.3525 362.4363 398.4405 353.7182 390.7283 338.8526 386.9281 340.0821 365.6915 335.0524 363.7914 326.3342 359.8794 320.1868 344.455 313.9276 342.5549 313.5923 342.4431 318.9573 334.8427 322.6458 323.2185 322.6458 307.7941 325.1047 300.0818 328.905 294.2697 328.905 284.6574 330.1344 284.6574 322.6458 280.7454 325.1047 273.0332 331.3639 273.0332 343.7705 274.9333 347.459 274.9333 348.6884 286.5575 352.4887 288.4576 361.2068 290.4695 364.2246 288.793Z" />
  <path class="Wiltz" d="M84.2378 269.233L90.497 267.2211 110.3923 267.2211 117.7692 249.8966 137.6645 267.2211 148.8416 257.6088 164.9366 249.8966 162.4777 232.4603 167.5074 215.1358 182.3729 215.1358 202.2682 207.3118 210.8746 217.0359 224.6224 220.9479 237.029 230.5602 249.4356 242.1844 261.8422 247.9965 273.0194 244.0845 276.7078 247.9965 289.1144 247.9965 285.426 263.4209 267.9897 274.9333 260.6128 292.3696 269.2191 305.8939 276.7078 301.982 269.2191 319.4183 271.4546 320.2007 267.9897 327.1305 274.2488 338.6429 280.3963 352.1672 280.3963 354.0673 274.2488 361.7795 263.0717 367.5916 255.5831 369.4917 258.1538 379.2158 253.1241 390.7283 250.6651 408.0528 249.4356 415.765 237.029 419.677 235.7996 429.2893 233.2288 448.514 225.8519 454.3261 219.3692 456.0026 218.3633 456.2262 212.1041 446.6139 207.1861 444.7138 197.2385 438.9017 188.5204 433.0895 176.1138 433.0895 172.4253 438.9017 162.4777 454.3261 155.1008 452.426 160.0187 446.6139 160.0187 437.0015 152.53 423.4772 146.3826 413.8649 140.1234 419.677 137.6645 425.3773 133.976 429.2893 132.7465 440.8018 120.2282 431.1894 112.8513 425.3773 112.8513 413.8649 111.6218 413.8649 100.4447 415.765 85.4673 419.677 92.956 431.1894 81.7789 437.0015 70.6018 437.0015 59.4246 438.9017 54.5067 433.0895 51.936 425.3773 43.3296 425.3773 40.9824 425.1538 38.2999 415.765 19.7459 398.4405 3.5391 398.4405 2.3096 398.4405 3.5391 377.204 18.5164 377.204 17.1751 363.7914 27.1228 340.543 25.8933 323.2185 27.7934 317.5182 29.5817 315.0592 35.9527 310.8119 40.5353 309.6942 46.6827 308.2411 49.2535 307.6823 49.3652 307.5705 59.4246 305.8939 66.9133 303.8821 74.2902 290.4695 84.2378 280.7454 84.2378 276.9452 84.2378 269.233Z" />
</svg>