<?xml version="1.0" encoding="utf-8"?>
<svg xmlns="http://www.w3.org/2000/svg" viewBox="0 0 838 1024" style="stroke-width:0.25px;stroke-linejoin:round;stroke:#444;fill:#ddd" fill-rule="evenodd">
  <path class="Eastern" d="M113.2589 955.9551L110.7999 955.2845 107.2232 955.8433 106.9997 951.8196 105.0996 948.4664 111.5823 940.0836 122.0888 937.6246 133.9365 938.2953 142.2076 941.3131 146.3431 937.7364 148.9139 939.413 148.5785 943.1014 144.1077 945.1133 127.5656 946.0075 122.7594 947.3487 115.8296 952.4902 113.2589 955.9551Z" />
  <path class="Manu's" d="M462.8791 929.13L468.5794 931.2537 469.6971 935.6128 467.6853 938.6306 463.9968 937.0658 461.7614 939.5248 459.4142 940.5307 456.9552 940.4189 454.1609 939.0777 453.155 941.6484 451.4784 942.9897 449.1312 943.325 446.1134 943.1014 445.4428 939.5248 444.3251 936.6187 442.7603 934.3833 440.5249 933.042 444.7722 929.9124 450.8078 928.7947 462.8791 929.13ZM402.5227 914.9351L404.7581 913.1468 407.6641 913.1468 410.7937 914.0409 414.0351 915.4939 407.1053 919.0706 404.311 918.7353 402.5227 914.9351Z" />
  <path class="Rose Atoll" d="M833.5123 1020L830.271 1017.3175 832.9535 1016.1998 833.8476 1016.5351 833.5123 1020Z" />
  <path class="Swain's Island" d="M5.0644 4.3353L4.8408 7.0178 2.6054 8.2473 1.1524 6.5707 1.3759 4 5.0644 4.3353Z" />
  <path class="Western" d="M113.2589 955.9551L104.9878 967.3558 97.2756 973.615 95.3755 971.3795 83.7513 963.332 76.2626 959.5318 73.8036 957.2964 85.9867 950.0312 90.5693 949.1371 100.4052 949.2488 105.0996 948.4664 106.9997 951.8196 107.2232 955.8433 110.7999 955.2845 113.2589 955.9551Z" />
</svg>