<?xml version="1.0" encoding="utf-8"?>
<svg xmlns="http://www.w3.org/2000/svg" viewBox="0 0 1021 838" style="stroke-width:0.25px;stroke-linejoin:round;stroke:#444;fill:#ddd" fill-rule="evenodd">
  <path class="Brussels" d="M517.3828 298.7342L495.9228 310.2466 490.3342 311.5879 484.5221 310.582 477.257 305.664 470.2154 290.7985 465.4092 293.3692 455.5734 287.7806 458.703 281.4097 465.4092 280.292 467.0858 273.2504 464.4033 268.556 469.3212 258.6084 479.0453 253.8022 490.3342 255.7023 497.1523 248.8843 501.7349 252.4609 505.8704 259.5025 505.7586 263.5263 501.6231 267.8854 512.1296 274.5916 516.3769 287.8924 510.7883 288.563 508.5529 292.2515 517.3828 298.7342Z" />
  <path class="Flanders" d="M827.8832 293.7045L815.0295 306.67 792.2282 313.488 792.6752 320.3061 785.5219 326.5652 781.3864 327.5712 776.1331 321.8708 774.1212 329.2477 768.1974 329.8066 761.1558 327.1241 757.8026 318.853 754.3377 317.4 742.1547 321.4238 736.9014 326.1182 735.5602 330.9243 727.1773 326.2299 718.6827 331.4832 716.7826 326.7888 714.8825 330.7008 699.2345 328.6889 702.1406 335.5069 698.7875 339.6425 681.2394 334.501 674.1978 335.6187 670.2858 333.7186 665.9267 328.13 666.0385 320.6414 659.5558 316.8411 649.6081 309.0172 636.6427 319.3001 632.7307 319.859 629.3776 317.0647 630.2717 309.576 610.3765 311.5879 611.4942 307.1171 605.235 306.4464 599.5347 297.0576 588.4693 293.2574 581.4277 295.8282 579.1923 301.0814 578.0746 297.9518 573.492 300.6343 559.7441 297.0576 558.6264 307.6759 563.4326 314.1586 558.2911 320.1943 549.5729 320.6414 548.1199 311.5879 541.8607 318.4059 530.3483 321.0884 529.7894 326.2299 521.4066 321.4238 520.0653 319.3001 521.1831 314.4939 517.3828 313.9351 511.5707 315.8352 502.0702 323.3239 489.3283 325.224 487.8752 331.5949 482.8455 331.1479 477.8158 324.218 475.9157 326.4535 478.71 330.589 472.8979 330.7008 472.2273 337.0717 470.4389 339.1954 466.527 340.5366 459.2618 338.0777 454.1204 341.8779 445.514 334.7245 438.3606 334.9481 432.6603 326.9006 430.0895 325.8946 427.5188 326.9006 425.6187 331.4832 419.136 331.3714 417.1241 335.6187 409.9707 333.1597 406.2823 340.2013 404.3822 337.407 398.2348 340.6484 393.2051 338.9718 387.84 343.2191 371.8568 342.7721 366.2682 340.7602 362.468 335.8422 361.2385 331.2596 363.1386 324.3298 360.3443 317.1765 345.4788 320.4178 341.9021 316.9529 331.3956 318.1824 326.9248 305.1052 315.5241 309.9113 312.7298 304.3228 305.1294 308.5701 294.3993 329.4713 287.0224 324.3298 269.5861 323.9945 267.9096 310.8055 257.4031 314.0469 247.7908 310.0231 235.943 318.7413 223.9835 331.3714 222.9776 334.501 220.295 333.7186 218.842 333.6068 212.2475 328.8007 212.6946 323.1003 207.1061 315.0528 195.8172 316.7294 184.9754 310.4702 173.2394 316.6176 169.998 317.7353 165.6389 309.7996 161.1681 305.5523 154.3501 303.5404 133.3371 310.1349 133.1135 308.6818 130.8781 294.7105 126.7426 292.0279 111.4299 298.2871 111.2064 300.0755 116.5714 306.5582 106.6238 310.582 105.5061 314.4939 97.9056 315.947 94.2172 312.4821 92.4288 313.0409 85.499 317.4 90.7523 334.501 91.87 338.5248 70.857 328.8007 65.9391 324.6651 64.5978 322.0944 61.0211 313.7116 59.4563 310.9173 49.7322 301.5285 47.9439 298.3989 47.1615 295.6046 45.8202 293.1457 42.3553 291.3573 39.7846 291.022 34.9784 291.6926 32.743 291.6926 28.9428 290.7985 26.9309 290.0161 25.5897 287.5571 23.3542 282.3039 22.1248 280.9626 18.8834 279.286 18.101 277.833 18.3245 275.9329 20.4482 271.3503 20.6717 268.556 15.5303 250.2255 16.9833 246.4253 23.1307 240.3897 24.6955 237.8189 23.8013 229.5479 19.6658 223.1769 10.277 212.6704 7.5945 204.6229 4.912 186.0689 1 176.4565 6.2532 172.5446 16.3127 169.1914 52.0794 142.031 106.9591 109.6174 160.0504 74.5212 219.0656 55.4084 219.1773 55.2966 221.5245 71.6152 220.4068 82.0099 220.1833 91.8458 223.9835 102.464 230.3545 109.5056 232.2546 110.3998 238.402 113.1941 246.7848 114.2 259.3032 112.2999 259.9738 108.2761 259.3032 102.9111 259.862 98.105 262.7681 95.0871 266.5683 94.0812 270.8156 93.8576 281.3221 91.5105 287.8048 91.0634 294.5111 92.1811 326.813 102.9111 331.8427 106.2642 333.1839 111.741 332.7369 116.4354 333.1839 120.7945 337.0959 125.4889 340.3373 126.9419 371.5215 126.6066 377.4453 124.7065 389.5166 115.2059 422.1538 98.6638 435.231 88.3809 445.6257 74.1859 447.0788 69.9386 449.0906 60.1028 449.2024 58.4262 449.426 58.538 454.3439 63.2323 456.4675 67.3679 458.3677 75.0801 462.7267 80.4451 467.5329 84.5806 470.6625 88.7162 471.6684 91.3987 472.1155 93.9694 471.3331 96.9872 469.5448 99.8933 469.0977 100.7875 472.1155 99.2227 474.2392 96.8755 478.0394 88.7162 469.2095 84.916 467.0858 83.2394 466.0799 79.4392 466.3034 70.3857 465.4092 65.9149 463.5091 62.5617 459.7089 57.7556 464.9622 57.9791 467.3094 58.0909 476.8099 63.2323 481.9514 65.0207 494.2462 65.8031 499.2759 63.1206 500.6172 55.8554 498.9406 51.7199 493.0167 44.6783 491.0048 40.8781 491.2284 36.519 492.905 33.2777 493.4638 30.2598 490.2224 26.6832 504.0821 18.6356 518.1652 13.3824 525.9892 12.1529 529.3424 12.7118 531.466 16.2884 531.0189 23.33 528.7835 28.5833 528.3364 32.7188 533.3661 36.4073 536.831 36.7426 544.4315 35.2895 552.9261 37.4132 556.9498 37.1897 560.5265 35.8484 563.209 33.7248 583.6631 8.5762 592.3813 4.1054 596.1815 4.5525 600.9877 6.3408 605.3468 9.2469 608.141 12.8235 608.6999 19.1945 607.0233 25.3419 605.9056 31.7129 607.8057 39.0898 596.2933 33.7248 593.2755 34.1718 591.8224 39.2015 597.411 41.6605 615.8532 42.2194 620.6594 43.5606 630.9424 48.255 636.5309 46.6902 643.2372 40.2075 649.2728 31.9364 653.4084 25.1184 655.3085 19.8651 656.2026 15.9531 657.7674 13.3824 661.7912 12.3765 662.5736 13.3824 670.3976 18.6356 675.6508 28.5833 674.6449 35.6249 671.7388 42.3311 670.8447 51.4964 672.5212 55.6319 681.5747 65.6913 683.0277 69.3798 685.7102 78.6568 686.9397 81.451 691.5223 83.91 701.6935 83.0158 706.6114 83.5747 711.1941 89.4986 711.3058 104.4759 716.0002 105.7054 717.6768 105.2583 725.9479 103.1347 757.132 104.4759 762.6088 102.464 773.6741 94.64 778.9274 92.0693 784.6277 92.7399 790.7751 96.6519 795.6931 103.1347 797.5932 111.2939 798.3756 120.7945 799.9404 122.1358 804.4112 126.0477 819.3886 130.5186 822.9652 133.0893 825.536 135.9954 828.3303 138.0073 832.9129 138.0073 843.8664 135.6601 847.3314 136.1072 851.5787 138.6779 857.0554 146.2783 860.6321 149.1844 868.6796 147.1725 873.2623 147.5078 875.6095 152.8728 876.1683 154.8847 872.4799 158.5732 871.6975 163.3793 877.6213 169.862 875.2741 171.4268 872.5916 172.5446 869.6856 172.9916 866.7795 172.6563 867.4502 175.6741 867.8972 177.0154 868.6796 178.692 866.6678 184.3923 865.2147 187.4101 863.2029 190.2044 860.185 187.5219 857.9496 188.8631 856.7201 192.8869 856.0495 198.4755 859.6262 203.3934 855.4906 213.5646 845.0959 230.2185 850.908 228.6537 853.4788 228.6537 856.0495 230.2185 853.0317 235.36 848.4491 245.084 845.0959 250.2255 843.7547 251.2315 840.7369 252.3492 837.719 253.5787 818.7179 274.8152 819.2768 284.204 823.5241 290.5749 827.8832 293.7045ZM517.3828 298.7342L508.5529 292.2515 510.7883 288.563 516.3769 287.8924 512.1296 274.5916 501.6231 267.8854 505.7586 263.5263 505.8704 259.5025 501.7349 252.4609 497.1523 248.8843 490.3342 255.7023 479.0453 253.8022 469.3212 258.6084 464.4033 268.556 467.0858 273.2504 465.4092 280.292 458.703 281.4097 455.5734 287.7806 465.4092 293.3692 470.2154 290.7985 477.257 305.664 484.5221 310.582 490.3342 311.5879 495.9228 310.2466 517.3828 298.7342ZM889.5809 317.1765L894.6106 323.5474 888.4631 332.9362 886.116 333.9421 879.8568 330.7008 870.3562 332.042 859.1791 317.1765 852.3611 318.9648 848.4491 315.0528 847.7784 314.0469 850.6845 309.6878 853.0317 307.8994 855.6024 308.9054 861.0792 314.941 863.7617 316.8411 886.563 316.1705 889.5809 317.1765Z" />
  <path class="Wallonia" d="M133.3371 310.1349L119.4774 314.3822 113.4418 318.2942 108.6356 323.4356 100.6999 337.1835 97.235 339.9778 93.0994 339.0836 91.87 338.5248 90.7523 334.501 85.499 317.4 92.4288 313.0409 94.2172 312.4821 97.9056 315.947 105.5061 314.4939 106.6238 310.582 116.5714 306.5582 111.2064 300.0755 111.4299 298.2871 126.7426 292.0279 130.8781 294.7105 133.1135 308.6818 133.3371 310.1349ZM827.8832 293.7045L829.448 294.7105 835.1483 297.5047 839.2838 298.7342 838.8367 303.6521 836.0425 313.1527 840.8486 315.947 843.7547 316.5058 846.549 315.947 847.7784 314.0469 848.4491 315.0528 852.3611 318.9648 859.1791 317.1765 870.3562 332.042 879.8568 330.7008 886.116 333.9421 888.4631 332.9362 894.6106 323.5474 889.5809 317.1765 892.4869 318.0706 911.5998 318.7413 916.9648 317.7353 916.5177 318.5177 916.2942 319.3001 916.4059 319.9707 916.7413 320.7531 921.1003 323.1003 921.2121 327.1241 920.3179 331.4832 921.3239 334.9481 924.7888 335.3952 935.2953 332.4891 939.6543 332.9362 944.684 337.9659 960.7791 362.5556 957.2024 364.9028 960.332 370.8266 965.697 373.7327 983.9157 374.1798 984.5864 376.6387 982.6862 380.3272 979.6684 384.0156 979.6684 385.4686 973.8563 388.9336 965.4735 395.9751 960.6673 403.5756 965.0264 409.1641 963.0145 412.2937 963.3498 414.1938 965.4735 415.088 968.4913 415.3116 966.4794 418.8882 968.6031 420.9001 970.8385 425.5945 972.9622 427.2711 975.5329 427.3828 984.4746 424.7003 985.0334 424.1415 985.7041 423.9179 986.2629 424.1415 986.8218 424.7003 990.9573 426.6004 1002.358 429.2829 1007.1641 429.5065 1004.1463 432.4125 1003.4757 435.7657 1004.2581 439.4541 1005.7111 443.5897 1007.9465 447.3899 1009.8466 447.7252 1010.8526 449.1782 1010.7408 456.108 1008.8407 465.8321 1006.9406 471.3089 1007.3877 476.2268 1016.5529 492.2101 1016.7765 494.8926 1017 498.0222 1013.7586 501.4871 1006.7171 502.8284 1003.2521 502.1578 1000.2343 500.9283 997.2165 500.7047 993.6398 502.8284 991.0691 505.958 989.2807 509.9817 988.8337 514.1173 989.9514 517.8057 985.1452 522.2766 973.7446 525.4062 968.2678 527.9769 965.697 532.0007 959.7732 536.248 956.9789 539.8246 960.5556 543.7366 962.0086 548.431 961.785 553.1254 960.2202 556.9256 958.3201 558.2669 953.0669 558.714 950.7197 560.0552 950.2726 561.3965 949.3784 566.0909 948.8196 568.1028 951.5021 570.2264 952.3963 572.7971 951.9492 574.3619 951.6139 575.5914 949.2667 578.3857 945.3547 576.5974 944.684 573.356 945.0194 569.444 943.9017 565.6438 940.4367 562.4024 939.8779 562.5142 938.4249 562.626 936.7483 564.5261 934.5129 565.8673 928.4772 566.8733 925.4594 566.4262 924.3417 565.8673 921.9945 564.7496 920.4297 561.7318 919.5355 557.8198 917.859 555.9197 913.7234 559.1611 908.8055 559.7199 908.1349 559.8317 905.8994 563.6319 904.7817 569.2205 902.7699 575.1443 900.6462 577.3798 898.8579 579.2799 889.2455 583.9743 889.022 584.086 884.6629 588.1098 883.657 590.6805 883.2099 597.3868 882.5393 599.8458 882.5393 600.1811 880.8627 602.5283 880.5274 602.7518 877.0625 605.8814 875.4977 608.3404 875.7212 613.1465 875.7212 617.0585 875.1624 619.9646 875.1624 620.2999 873.2623 622.3118 871.921 622.8706 867.8972 624.659 866.2207 626.8944 865.8854 632.4829 867.7855 634.8301 868.9032 637.0656 865.9971 642.6541 863.7617 644.7778 862.9793 644.8895 861.191 645.3366 859.8497 645.6719 858.0614 646.9014 857.5025 647.5721 855.9377 649.6957 854.9318 651.8194 854.3729 653.8312 853.2552 656.5138 844.2018 672.3853 843.084 676.2972 846.2136 677.7503 852.0257 682.2211 853.0317 683.7859 854.4847 685.9096 852.5846 685.7978 847.5549 685.2389 847.5549 687.5861 847.2196 688.8156 846.6607 689.8216 846.2136 691.2746 848.7844 693.6218 845.6548 695.7454 844.5371 699.6574 844.8724 704.5754 846.4372 709.7168 849.2315 714.2994 851.914 715.6407 854.7083 716.0878 858.0614 718.2114 859.8497 720.7822 866.1089 733.077 866.4442 734.9771 867.0031 740.6774 866.8913 741.6834 868.6796 743.0246 872.2563 744.1424 873.9329 745.0365 875.3859 745.2601 877.0625 744.7012 878.7391 744.813 880.3039 747.2719 880.4156 748.1661 880.6392 750.4015 879.6332 752.0781 878.4037 753.5311 877.9567 755.7666 877.8449 758.4491 877.0625 759.7903 876.7272 761.2433 877.6213 764.1494 879.4097 765.6024 884.6629 766.1613 886.563 767.8378 888.0161 773.5382 886.563 777.1149 883.9923 779.5738 881.8686 782.0328 878.5155 791.4216 876.3919 795.4453 873.374 798.3514 877.8449 800.8103 875.3859 807.0695 872.7034 809.9756 870.2444 812.5463 869.3503 813.664 863.0911 816.5701 859.9615 815.8994 854.2612 812.3228 851.3551 811.8757 848.5608 813.3287 845.0959 817.9113 841.8546 819.3644 836.1542 818.3584 830.4539 815.5641 824.53 814.1111 817.9355 817.576 814.8059 821.8233 814.2471 824.7294 813.3529 826.4059 809.4409 826.853 807.2055 826.2942 798.9344 822.3822 794.0165 824.6176 787.422 829.8708 780.4922 833.8946 774.7919 832.3298 773.2271 828.7531 773.4506 825.1765 774.3448 821.3762 774.3448 817.1289 773.3388 813.3287 760.5969 790.3039 757.6909 787.7331 755.679 785.9448 747.5197 782.927 744.5019 781.0268 742.8253 780.8033 741.9311 781.921 740.8134 784.1564 739.3604 786.1683 737.4603 786.7272 733.1012 785.9448 731.8717 784.2682 731.2011 780.5798 731.9835 774.7677 734.1072 773.4264 735.3366 771.9734 733.5483 765.826 728.4068 759.5668 722.93 754.09 717.2297 754.2018 705.2702 757.5549 699.2345 755.7666 694.4284 752.1899 690.5164 748.3897 679.2275 732.0711 676.0979 729.0532 666.7091 726.3707 661.4559 723.3529 651.62 713.6288 646.9256 710.9463 646.1432 710.9463 641.3371 711.1699 629.9364 715.3054 624.0125 716.1996 617.0827 715.1936 614.7355 712.1758 614.7355 696.8631 614.1767 694.4042 611.4942 690.1569 610.9353 688.0332 611.4942 685.5743 613.8414 682.78 614.7355 680.6563 616.0768 675.6266 617.418 672.2735 618.0887 668.6968 617.6416 663.3318 613.5061 655.8431 601.0994 650.7017 597.5228 645.0013 598.7523 638.4068 608.8117 613.0348 609.0352 608.6757 608.6999 605.3226 608.9234 601.5223 613.9531 590.5688 615.5179 590.2334 618.424 593.363 618.9828 586.0979 620.4359 577.6033 620.7712 570.4499 618.3122 567.2086 610.0411 568.8851 607.1351 567.6557 605.9056 561.5083 598.7523 564.8614 570.6977 593.363 569.1329 596.6044 568.4623 600.6282 569.0211 603.1989 570.0271 605.2108 570.2506 608.0051 568.2387 621.1941 566.4504 627.6768 563.9914 632.3712 561.0854 634.2713 550.1318 635.9479 513.3591 654.2783 505.5351 655.6196 503.635 655.0607 464.068 644.2189 447.7494 646.5661 443.8374 647.125 440.2607 646.119 425.5069 638.0715 425.7305 638.1833 427.6306 638.295 427.2953 632.2594 425.8422 626.0002 424.6128 625.4414 425.7305 620.6352 427.0717 617.6174 428.9718 615.2702 433.778 610.6876 439.8136 606.3285 446.1846 603.1989 446.2964 600.5164 444.3963 597.1633 442.8315 593.363 438.4724 575.5914 435.7899 574.2502 432.9956 574.6972 427.7424 577.1562 423.9421 575.2561 424.6128 567.7674 429.6425 551.2253 431.0955 543.7366 432.325 540.3835 435.1193 536.3597 441.2667 531.4418 443.9492 528.5358 444.508 524.1767 442.9432 521.4942 439.7019 518.5881 436.1252 516.3527 433.778 515.5703 430.4249 516.9116 430.3131 519.5941 430.6484 522.3883 428.6365 524.4002 423.8304 522.053 416.5652 506.5168 411.2002 501.5989 405.4999 498.3575 396.7817 488.6334 391.6403 486.1745 386.0517 486.7333 369.286 493.8867 363.3622 493.8867 358.6678 491.6513 354.0851 488.5217 348.6084 485.7274 337.6548 484.3861 326.2541 485.2803 322.6774 486.6216 320.5538 488.9688 315.7476 497.1281 314.6299 500.4812 313.9593 501.8224 312.7298 502.6048 312.2827 502.2695 311.8356 502.4931 310.8297 505.0638 301.5527 496.4574 299.3173 479.4682 299.2055 460.2436 296.9701 444.2603 292.7228 436.4363 287.4695 431.4066 281.7692 428.5006 275.7336 427.2711 258.7443 427.1593 255.3912 424.7003 257.9619 420.1177 258.409 416.7646 256.7325 414.5292 252.9322 413.4114 249.132 413.7468 246.4495 415.4233 243.8788 418.1058 240.3021 420.9001 228.6779 425.1474 222.3069 425.818 217.7243 424.5886 206.2119 418.5529 202.747 415.7586 198.4997 410.5054 197.1584 405.6992 196.8231 392.5102 189.7815 369.1501 187.6579 357.0788 191.3463 350.149 188.3285 340.2013 186.2048 336.4011 182.7399 335.1716 179.0515 334.7245 176.9278 332.2656 173.6865 324.3298 169.998 317.7353 173.2394 316.6176 184.9754 310.4702 195.8172 316.7294 207.1061 315.0528 212.6946 323.1003 212.2475 328.8007 218.842 333.6068 220.295 333.7186 222.9776 334.501 223.9835 331.3714 235.943 318.7413 247.7908 310.0231 257.4031 314.0469 267.9096 310.8055 269.5861 323.9945 287.0224 324.3298 294.3993 329.4713 305.1294 308.5701 312.7298 304.3228 315.5241 309.9113 326.9248 305.1052 331.3956 318.1824 341.9021 316.9529 345.4788 320.4178 360.3443 317.1765 363.1386 324.3298 361.2385 331.2596 362.468 335.8422 366.2682 340.7602 371.8568 342.7721 387.84 343.2191 393.2051 338.9718 398.2348 340.6484 404.3822 337.407 406.2823 340.2013 409.9707 333.1597 417.1241 335.6187 419.136 331.3714 425.6187 331.4832 427.5188 326.9006 430.0895 325.8946 432.6603 326.9006 438.3606 334.9481 445.514 334.7245 454.1204 341.8779 459.2618 338.0777 466.527 340.5366 470.4389 339.1954 472.2273 337.0717 472.8979 330.7008 478.71 330.589 475.9157 326.4535 477.8158 324.218 482.8455 331.1479 487.8752 331.5949 489.3283 325.224 502.0702 323.3239 511.5707 315.8352 517.3828 313.9351 521.1831 314.4939 520.0653 319.3001 521.4066 321.4238 529.7894 326.2299 530.3483 321.0884 541.8607 318.4059 548.1199 311.5879 549.5729 320.6414 558.2911 320.1943 563.4326 314.1586 558.6264 307.6759 559.7441 297.0576 573.492 300.6343 578.0746 297.9518 579.1923 301.0814 581.4277 295.8282 588.4693 293.2574 599.5347 297.0576 605.235 306.4464 611.4942 307.1171 610.3765 311.5879 630.2717 309.576 629.3776 317.0647 632.7307 319.859 636.6427 319.3001 649.6081 309.0172 659.5558 316.8411 666.0385 320.6414 665.9267 328.13 670.2858 333.7186 674.1978 335.6187 681.2394 334.501 698.7875 339.6425 702.1406 335.5069 699.2345 328.6889 714.8825 330.7008 716.7826 326.7888 718.6827 331.4832 727.1773 326.2299 735.5602 330.9243 736.9014 326.1182 742.1547 321.4238 754.3377 317.4 757.8026 318.853 761.1558 327.1241 768.1974 329.8066 774.1212 329.2477 776.1331 321.8708 781.3864 327.5712 785.5219 326.5652 792.6752 320.3061 792.2282 313.488 815.0295 306.67 827.8832 293.7045Z" />
</svg>