<?xml version="1.0" encoding="utf-8"?>
<svg xmlns="http://www.w3.org/2000/svg" viewBox="0 0 1021 947" style="stroke-width:0.25px;stroke-linejoin:round;stroke:#444;fill:#ddd" fill-rule="evenodd">
  <path class="Boa Vista" d="M1011.1879 430.4122L1012.6409 431.0828 1015.4352 434.8831 1017 439.1304 1014.7646 441.1422 1013.6469 442.8188 1013.088 446.5073 1012.0821 450.1957 1005.8229 454.2195 985.1452 470.8734 971.3974 478.2503 964.3558 480.4857 942.6722 481.9387 938.8719 481.2681 935.1835 479.368 929.8185 474.7854 925.4594 473.5559 911.8233 467.2967 907.2407 462.9376 904.8935 454.5548 905.1171 447.0661 907.2407 440.0245 911.1527 434.8831 916.7413 432.8712 923.8946 425.7178 919.7591 391.4041 923.1122 379.221 924.677 382.0153 926.2418 384.1389 930.8244 387.4921 937.3072 390.6217 946.9195 393.863 955.6376 394.869 959.4378 391.4041 962.3439 385.2567 969.0502 384.1389 991.4044 389.8393 995.4282 391.5158 999.2284 394.1983 1000.6814 396.9926 1003.0286 404.4813 1004.5934 406.0461 1011.0761 408.8404 1012.5292 415.4349 1011.1879 430.4122Z" />
  <path class="Brava" d="M248.4614 905.1044L252.7087 909.1282 255.0559 914.7167 256.0618 921.3112 256.3971 927.9057 255.0559 934.0531 251.8145 936.9592 248.3496 938.9711 246.1142 942.9948 243.3199 942.9948 240.4139 938.9711 233.2605 934.1649 230.578 929.3587 227.7837 932.0413 229.4603 928.5763 230.0191 925.2232 229.4603 921.8701 227.7837 918.5169 232.9252 918.5169 231.3604 911.14 235.8312 908.5693 242.7611 907.6751 248.4614 905.1044Z" />
  <path class="Maio" d="M843.084 744.601L845.3195 749.5189 845.8783 755.6663 845.4312 766.2846 849.5668 788.5271 849.1197 799.2571 843.084 809.2047 841.1839 809.8754 835.2601 810.6578 832.8011 811.5519 831.3481 813.452 829.5597 818.1464 827.6596 819.5994 822.4064 820.1583 817.3767 818.7053 809.3292 814.2344 800.4992 807.8635 796.2519 803.1691 793.9047 798.2512 795.0224 793.445 798.0403 788.6388 799.4933 783.8327 796.4755 779.3618 801.8405 776.1205 804.1877 771.0908 802.7347 766.8435 796.4755 766.2846 798.5991 760.4725 806.7584 754.4369 812.1234 744.601 810.3351 743.9304 810.1116 743.595 810.2233 743.0362 809.3292 741.6949 814.5824 739.4595 819.7239 736.4417 819.8356 737.6712 819.7239 741.6949 822.9652 739.1242 823.7476 738.23 824.7536 736.4417 827.6596 739.236 824.7536 741.6949 830.2304 744.2657 838.6132 742.2538 843.084 744.601Z" />
  <path class="Mosteiros" d="M400.3584 884.0914L386.6106 884.762 372.9745 887.8916 360.5679 870.0083 351.9615 856.7075 361.9091 851.566 368.6154 849.4424 376.4394 848.66 384.5987 850.5601 389.9637 855.2545 393.3168 861.4019 398.2348 874.4791 400.3584 884.0914Z" />
  <path class="Paul" d="M109.418 36.7541L116.4596 31.2773 122.4953 27.03 127.1897 24.4593 129.0898 26.2476 138.0315 28.5948 140.0433 29.9361 141.1611 31.948 146.3025 36.4188 147.7556 39.2131 147.0849 43.4604 144.8495 47.2606 141.9435 50.502 136.6902 46.9253 126.1837 39.8837 109.418 36.7541Z" />
  <path class="Porto Novo" d="M44.3672 27.7007L64.8213 39.1013 77.2279 47.7077 94.4407 40.6661 109.418 36.7541 126.1837 39.8837 136.6902 46.9253 141.9435 50.502 131.2134 62.238 129.4251 62.238 127.8603 63.691 120.8187 66.3735 119.1421 67.7147 115.9008 71.8503 93.2112 82.5803 82.8165 93.4221 75.4396 103.1462 66.0508 109.9642 49.6205 111.9761 35.3138 111.9761 30.9547 112.8703 27.6015 114.2116 24.2484 114.2116 19.6658 110.7466 18.6598 105.8287 18.5481 79.6743 13.2948 70.509 12.0653 69.3913 5.4708 68.1618 3.0119 66.3735 1 59.779 2.7883 54.1904 12.0653 43.3486 17.4304 39.7719 22.9072 38.9895 27.8251 39.3249 31.4018 39.2131 35.202 36.5306 44.3672 27.7007Z" />
  <path class="Praia" d="M687.8339 902.5337L684.7043 895.3803 679.8981 889.1211 678.5569 881.7442 688.9516 879.6206 698.5639 873.1378 706.0526 871.7966 713.4295 876.7145 710.9705 878.5029 713.8766 881.1854 710.1881 887.3328 707.8409 893.4802 704.9349 898.1746 699.5699 900.0747 696.552 900.41 690.6282 902.0866 687.8339 902.5337Z" />
  <path class="Ribeira Brava" d="M372.4156 208.8817L377.7806 207.0934 380.4631 207.4287 385.6046 209.5524 390.0755 212.4584 399.0172 220.3942 403.5998 222.7414 407.6235 222.9649 428.5248 219.7235 432.2132 220.3942 445.9611 227.1004 449.0906 227.7711 480.163 230.3418 488.6576 233.6949 496.0345 239.6188 499.9465 241.966 501.7349 240.4012 501.7349 254.0373 497.4876 255.0432 470.7743 255.2668 441.7138 242.1895 426.0658 238.3893 411.4238 244.2014 406.0587 250.6842 395.1052 270.4677 391.6403 285.3332 391.0814 273.5972 393.3168 256.9433 395.4405 246.5486 393.3168 234.142 386.387 228.3299 375.7688 227.6593 372.0803 222.4061 375.7688 217.2646 372.4156 208.8817Z" />
  <path class="Ribeira Grande" d="M44.3672 27.7007L51.5206 24.4593 60.4623 18.9825 69.1804 16.7471 92.0935 5.4582 98.2409 4.0052 102.6 5.4582 106.9591 8.476 116.5714 8.1407 121.9364 9.5937 125.5131 12.388 126.9661 15.4058 127.1897 24.4593 122.4953 27.03 116.4596 31.2773 109.418 36.7541 94.4407 40.6661 77.2279 47.7077 64.8213 39.1013 44.3672 27.7007Z" />
  <path class="Ribeira Grande de Santiago" d="M621.5536 878.7264L627.9245 871.7966 635.0779 868.7788 638.431 863.6373 646.3668 862.7431 649.2728 861.0666 650.167 855.3662 653.8554 851.1189 660.4499 850.4483 660.5617 856.7075 666.3738 861.849 670.9564 868.3317 672.2977 878.7264 678.5569 881.7442 679.8981 889.1211 684.7043 895.3803 687.8339 902.5337 684.8161 902.1983 681.6865 900.5218 678.8922 900.0747 666.262 899.8512 655.8673 898.3981 646.255 895.1568 636.0838 891.5801 621.5536 878.7264Z" />
  <path class="Sal" d="M917.9707 241.7425L913.3881 211.8996 907.6878 200.0518 899.752 204.1873 898.1872 198.487 897.6284 190.7748 898.8579 183.6215 902.3228 179.7095 902.3228 177.027 897.8519 175.6857 895.393 171.8855 894.4988 166.6322 894.7223 154.2256 902.5463 148.0782 920.5415 136.6776 922.5534 139.4718 929.3714 145.9546 930.8244 148.8606 930.3773 150.5372 927.9184 155.2316 925.3476 159.1436 926.0183 160.1495 927.4713 161.0437 928.2537 162.3849 927.2477 185.7451 928.2537 193.122 930.042 195.8045 934.96 200.4989 936.0777 202.7343 935.6306 207.0934 934.0658 214.9174 933.7305 218.9411 932.9481 221.1766 929.4832 223.6355 928.2537 225.6474 928.4772 227.7711 929.2596 230.6771 930.1538 233.1361 930.8244 233.6949 928.3655 236.8245 925.6829 238.2776 922.3298 239.507 917.9707 241.7425Z" />
  <path class="Santa Catarina" d="M600.7641 794.5627L606.688 794.7862 617.9769 796.1275 632.6189 794.3392 632.1718 801.269 639.2134 808.1988 645.9197 813.005 646.8139 819.0406 649.7199 819.9348 654.9732 815.1286 657.2086 818.1464 658.1028 825.0762 649.1611 832.3414 646.9256 834.465 648.2669 841.8419 650.9494 847.2069 653.8554 851.1189 650.167 855.3662 649.2728 861.0666 646.3668 862.7431 638.431 863.6373 635.0779 868.7788 627.9245 871.7966 621.5536 878.7264 615.7415 871.9084 615.6297 859.1664 611.3824 856.1486 605.235 854.2485 600.0935 851.566 599.87 850.113 597.2992 841.1713 596.1815 839.6065 594.7285 838.1535 593.2755 836.0298 592.2695 832.9002 593.3872 829.7706 598.7523 820.2701 600.0935 816.6934 599.7582 811.5519 594.952 798.2512 598.5287 797.2452 600.7641 794.5627Z" />
  <path class="Santa Catarina do Fogo" d="M400.3584 884.0914L402.4821 893.592 402.2585 898.6217 400.3584 902.9807 401.5879 907.2281 393.0933 916.058 380.9102 917.3992 373.0862 911.14 369.5096 902.3101 371.2979 894.8215 372.9745 887.8916 386.6106 884.762 400.3584 884.0914Z" />
  <path class="Santa Cruz" d="M658.1028 825.0762L657.2086 818.1464 654.9732 815.1286 657.2086 813.005 668.1622 799.9277 670.9564 802.9455 677.3274 806.9693 682.916 806.2987 684.1454 808.087 684.8161 809.4283 685.7102 810.546 687.8339 811.5519 687.275 812.1108 689.734 814.458 692.4165 816.6934 692.9754 816.6934 693.9813 816.9169 697.3344 816.4699 698.3404 816.6934 698.5639 817.9229 698.1168 821.0525 698.3404 822.282 708.5116 841.3948 706.0526 846.3128 701.0229 848.4364 697.3344 845.8657 692.7518 843.2949 684.0337 835.5827 678.4451 837.2593 672.5212 834.5768 673.0801 832.0061 672.2977 828.0941 662.2383 825.9704 658.1028 825.0762Z" />
  <path class="São Domingos" d="M678.5569 881.7442L672.2977 878.7264 670.9564 868.3317 666.3738 861.849 673.9743 857.6017 679.3393 851.4542 686.4926 845.4186 692.7518 843.2949 697.3344 845.8657 701.0229 848.4364 706.0526 846.3128 708.5116 841.3948 713.8766 851.566 715.3296 853.019 716.4473 853.4661 717.565 854.3603 719.018 857.1546 719.8004 859.0547 720.8064 860.5077 722.1476 861.6254 724.1595 862.296 722.3712 868.1081 719.8004 871.9084 713.4295 876.7145 706.0526 871.7966 698.5639 873.1378 688.9516 879.6206 678.5569 881.7442Z" />
  <path class="São Filipe" d="M372.9745 887.8916L371.2979 894.8215 369.5096 902.3101 373.0862 911.14 380.9102 917.3992 393.0933 916.058 401.5879 907.2281 403.488 911.5871 403.5998 916.058 401.1408 919.8582 387.9518 932.0413 372.0803 938.3004 357.5501 936.4003 344.6964 929.5823 323.0128 911.3636 317.7595 903.8749 315.6359 895.8274 317.7595 887.7799 322.901 878.5029 329.719 870.12 338.8843 863.4138 351.9615 856.7075 360.5679 870.0083 372.9745 887.8916Z" />
  <path class="São Lourenço dos Órgãos" d="M666.3738 861.849L660.5617 856.7075 660.4499 850.4483 663.0207 850.2248 670.6211 844.5244 671.8506 837.7064 672.5212 834.5768 678.4451 837.2593 684.0337 835.5827 692.7518 843.2949 686.4926 845.4186 679.3393 851.4542 673.9743 857.6017 666.3738 861.849Z" />
  <path class="São Miguel" d="M632.6189 794.3392L638.431 785.7328 643.796 776.6793 650.3905 778.0206 653.5201 780.8149 659.2205 790.2036 668.1622 799.9277 657.2086 813.005 654.9732 815.1286 649.7199 819.9348 646.8139 819.0406 645.9197 813.005 639.2134 808.1988 632.1718 801.269 632.6189 794.3392Z" />
  <path class="São Salvador do Mundo" d="M653.8554 851.1189L650.9494 847.2069 648.2669 841.8419 646.9256 834.465 649.1611 832.3414 658.1028 825.0762 662.2383 825.9704 672.2977 828.0941 673.0801 832.0061 672.5212 834.5768 671.8506 837.7064 670.6211 844.5244 663.0207 850.2248 660.4499 850.4483 653.8554 851.1189Z" />
  <path class="São Vicente" d="M167.2037 122.9297L165.9743 124.6063 169.2156 128.4065 174.5806 132.0949 179.9457 133.7715 181.734 135.8952 183.5223 140.8131 184.5283 146.2899 183.9694 150.0901 177.9338 154.8963 168.7685 158.2494 158.4856 160.2613 148.8733 160.8201 146.5261 161.7143 142.8376 165.4028 141.3846 166.2969 138.7021 165.9616 115.0066 156.6846 111.2064 154.4492 108.1886 151.5431 106.2884 147.7429 101.3705 150.0901 103.0471 141.7073 107.4062 134.7774 112.8829 130.0831 118.0244 128.4065 129.7604 128.0712 134.6783 125.8358 132.3311 120.4707 142.9494 114.7704 145.1848 111.9761 147.7556 111.9761 149.991 117.5647 153.7912 116.7823 160.3857 111.9761 164.1859 113.988 167.5391 117.7882 169.1039 121.3649 167.2037 122.9297ZM290.5991 229.6712L299.3173 231.3477 297.0818 237.0481 291.6051 236.4892 287.246 235.3715 286.1283 230.7889 290.5991 229.6712ZM222.3069 159.5906L231.5839 162.9438 236.5019 168.6441 240.3021 177.2505 247.4554 178.9271 251.8145 176.021 256.1736 177.8094 255.6147 182.9508 249.0202 185.7451 241.4198 186.304 234.9371 186.304 231.5839 182.9508 229.4603 178.3682 222.3069 175.4622 216.8301 170.4325 216.8301 164.7321 222.3069 159.5906Z" />
  <path class="Tarrafal" d="M600.7641 794.5627L602.1054 790.7625 602.4407 786.1799 603.2231 781.9326 605.1232 779.2501 606.9116 777.3499 607.8057 775.2263 606.5762 768.6318 603.3349 761.0314 599.1993 754.7722 594.952 752.425 597.411 751.5308 605.235 747.2835 599.6464 745.0481 597.2992 744.601 607.8057 736.4417 610.6 736.4417 610.8235 739.3477 611.3824 741.0243 612.1648 742.3656 612.9472 744.601 619.9888 740.2419 626.0244 743.9304 628.0363 750.6366 623.2301 755.331 628.2598 762.4844 634.1837 766.8435 646.7021 773.7733 643.796 776.6793 638.431 785.7328 632.6189 794.3392 617.9769 796.1275 606.688 794.7862 600.7641 794.5627Z" />
  <path class="Tarrafal de São Nicolau" d="M372.4156 208.8817L375.7688 217.2646 372.0803 222.4061 375.7688 227.6593 386.387 228.3299 393.3168 234.142 395.4405 246.5486 393.3168 256.9433 391.0814 273.5972 391.6403 285.3332 388.2871 280.5271 383.0339 265.9968 380.7985 262.6437 378.2277 259.9612 376.2158 256.7198 375.3217 251.3548 375.0981 247.2193 374.204 244.3132 372.1921 242.4131 368.8389 241.7425 360.1208 239.1717 353.8616 232.4655 351.6262 223.6355 354.644 214.6938 372.4156 208.8817Z" />
</svg>