<?xml version="1.0" encoding="utf-8"?>
<svg xmlns="http://www.w3.org/2000/svg" viewBox="0 0 251 1024" style="stroke-width:0.25px;stroke-linejoin:round;stroke:#444;fill:#ddd" fill-rule="evenodd">
  <path class="Ascension" d="M3.0636 4.1118L3.3989 4.5589 4.4048 5.3413 4.8519 5.9001 4.5166 6.0119 3.846 6.3472 3.6224 6.5707 3.2871 6.6825 2.5047 6.6825 2.1694 6.7943 1.7223 6.6825 1.6106 6.3472 1.4988 6.0119 1.387 5.6766 1.7223 5.2295 2.1694 4.2235 2.5047 4 2.6165 4.1118 2.7283 4.2235 2.84 4.2235 3.0636 4.1118Z" />
  <path class="Saint Helena" d="M244.6011 233.6898L244.9364 233.6898 245.8306 233.6898 246.1659 233.4662 246.3894 234.0251 246.613 234.4722 246.613 234.9193 246.5012 235.2546 246.2777 235.8134 245.9424 236.037 245.607 236.1487 245.16 236.484 245.0482 236.3723 245.0482 236.2605 244.9364 236.1487 244.8246 236.037 244.3776 236.484 243.9305 236.7076 243.4834 236.8194 242.9245 236.5958 242.701 236.2605 242.8128 235.9252 242.9245 235.5899 243.0363 235.1428 243.2598 234.8075 243.7069 234.3604 244.154 233.9133 244.6011 233.6898Z" />
  <path class="Tristan da Cunha" d="M127.0178 1018.2117L127.5767 1018.7705 127.8002 1019.1058 127.912 1019.6647 127.0178 1020 125.9001 1019.4411 123.8882 1017.8763 123.8882 1017.6528 124.1118 1016.9822 124.3353 1016.7586 124.6706 1016.6469 126.0119 1016.5351 126.3472 1016.6469 126.5707 1016.8704 126.7943 1017.8763 127.0178 1018.2117ZM60.4022 900.7402L60.7375 900.2931 60.8493 900.1813 62.1905 900.2931 62.6376 900.6284 63.0847 901.0755 63.6436 901.4108 63.5318 901.7461 63.42 901.8579 63.3083 901.9696 63.0847 902.0814 62.1905 903.0873 61.6317 903.4227 61.2964 903.4227 60.514 902.6403 59.6198 901.8579 59.9551 901.5226 60.4022 900.7402Z" />
</svg>