<?xml version="1.0" encoding="utf-8"?>
<svg xmlns="http://www.w3.org/2000/svg" viewBox="0 0 1021 787" style="stroke-width:0.25px;stroke-linejoin:round;stroke:#444;fill:#ddd" fill-rule="evenodd">
  <path class="Centre" d="M895.9518 289.7763L908.582 297.3768 921.771 303.4124 928.4772 309.001 938.0895 310.3422 946.2488 311.907 952.8433 311.46 965.4735 312.5777 977.5448 311.0129 977.6565 311.0129 989.5043 323.0842 1012.5292 334.2613 1017 336.4967 1015.4352 358.9627 1013.6469 365.4454 1009.0642 372.1517 996.993 380.8699 991.6279 385.676 981.0097 400.7651 965.4735 417.8661 960.7791 420.7722 942.5604 425.8019 936.413 429.9374 937.4189 436.4201 943.7899 435.526 952.7316 432.3964 961.0026 432.7317 964.244 435.4142 969.3855 446.0325 972.6268 449.8327 980.7861 457.4331 983.3569 460.7862 985.3688 467.7161 985.7041 483.0287 988.6101 497.7825 988.0513 504.9359 986.3747 511.8657 983.9157 518.2366 979.6684 525.2782 974.6387 529.302 965.0264 535.3376 962.5674 536.7906 962.4557 536.6789 960.1085 533.7728 946.5842 525.7253 931.7186 521.8133 919.7591 517.4542 907.576 513.2069 878.8508 518.4602 850.6845 527.6254 823.4123 518.2366 801.9523 497.0001 791.334 489.6232 779.1509 486.4936 767.5267 479.1167 758.138 466.5983 774.9036 465.5924 791.7811 467.6043 800.1639 462.7981 801.5052 451.1739 806.4231 438.9909 805.4172 428.9315 803.1817 410.0421 808.0997 390.9293 805.7525 379.7521 804.9701 370.5869 808.3232 362.5394 798.7109 352.9271 800.7228 325.6549 817.0414 302.63 827.5479 306.3185 835.3718 314.1425 838.6132 319.0604 845.543 318.3898 870.2444 302.9653 895.9518 289.7763Z" />
  <path class="Grand'Anse" d="M247.9025 556.3506L256.3971 552.3268 268.0213 553.3328 276.963 558.3625 277.0748 566.6336 268.9155 571.6633 257.5149 571.5515 248.6849 566.5218 247.9025 556.3506ZM252.3734 633.0256L240.9727 636.267 229.5721 639.3966 221.301 639.3966 213.0299 639.6201 208.112 646.997 208.7826 655.9387 191.7934 654.5975 174.8042 649.6795 159.9386 644.6498 144.9613 640.9614 108.7474 643.8674 72.9806 651.2443 53.5325 655.3799 33.749 657.3917 23.9131 655.4916 15.3067 656.3858 13.9655 657.0564 13.2948 655.6034 12.5124 648.2265 10.1652 643.085 1 631.3491 13.2948 613.1304 12.2889 611.6773 10.7241 607.9889 17.2068 603.2945 21.4541 585.97 26.7074 582.058 27.7133 580.1579 27.0427 575.687 25.7014 570.9926 24.2484 568.0866 23.3542 564.0628 26.1485 560.5979 38.2198 553.5563 54.0913 547.0736 60.7976 545.8441 69.0686 547.9678 72.6453 547.7442 74.2101 544.7264 75.9985 542.1557 79.9105 540.9262 84.1578 540.7026 104.1648 541.8204 118.3597 544.9499 164.9683 565.7394 185.5342 566.6336 186.2048 567.1924 188.552 569.8749 188.9991 570.6573 189.8933 573.5634 191.7934 573.3398 194.3641 572.1103 196.5996 571.775 206.8825 577.2518 211.4651 578.9284 227.5602 579.4872 231.3604 580.2696 235.4959 582.058 243.2081 588.6525 245.4436 589.9937 249.132 590.329 250.9204 589.2113 252.0381 587.8701 253.9382 587.1994 257.5149 587.7583 261.9857 589.9937 265.1153 589.9937 267.3507 588.9878 268.2449 588.3172 265.3388 594.4646 259.0796 601.6179 260.868 606.8712 266.6801 609.5537 258.7443 618.6072 252.3734 633.0256Z" />
  <path class="L'Artibonite" d="M817.0414 302.63L800.7228 325.6549 798.7109 352.9271 808.3232 362.5394 804.9701 370.5869 805.7525 379.7521 808.0997 390.9293 803.1817 410.0421 805.4172 428.9315 806.4231 438.9909 801.5052 451.1739 800.1639 462.7981 791.7811 467.6043 774.9036 465.5924 758.138 466.5983 749.8669 457.992 740.2546 450.9504 730.8658 447.1502 721.9241 443.2382 718.3474 437.4261 714.5472 432.0611 705.7173 432.3964 697.3344 431.5022 670.3976 427.5902 647.5963 426.8078 641.6724 431.1669 636.6427 437.5378 635.7485 437.0908 598.3052 396.5178 596.6286 386.9055 611.7177 380.7581 625.3538 379.8639 632.9542 377.2932 636.3074 371.8164 634.1837 364.663 628.9305 360.9746 622.4477 358.5156 616.5239 355.0507 612.8354 350.2446 604.229 335.0437 601.9936 329.008 604.4526 327.2197 604.6761 326.5491 604.3408 325.8784 604.5644 323.8666 608.141 320.5134 612.053 311.907 614.4002 308.3304 618.3122 306.4303 623.9008 305.3125 629.7129 305.089 633.8484 305.7596 628.7069 295.5884 625.0185 293.5766 617.8651 292.9059 613.6178 289.6646 612.2766 282.2877 612.8354 274.4637 614.4002 269.6575 616.6356 272.0047 619.5417 274.1284 623.0066 275.1343 626.5833 274.5755 630.4953 271.7812 630.607 268.9869 629.3776 265.8573 628.8187 257.1392 627.9245 255.5744 628.7069 255.7979 633.8484 256.8039 635.6367 257.9216 638.0957 260.0452 641.5606 261.8336 646.0315 261.9453 639.1017 248.1975 635.525 246.1856 617.0827 244.9561 612.3883 241.603 609.2587 236.4615 604.5644 230.7612 597.8581 225.8432 575.1685 215.4485 556.2792 203.7125 549.4612 202.036 543.6491 199.3535 531.1307 188.5117 528.6717 187.9528 525.095 189.6294 503.0761 181.3583 499.3877 181.023 492.3461 179.2347 488.7694 178.8993 488.4341 177.8934 491.3402 157.2157 508.1058 139.4441 521.8537 138.1029 536.1604 141.6795 550.9142 142.7972 565.4444 145.5915 592.3813 140.7854 614.512 121.7843 622.0007 119.7724 627.9245 116.4193 636.6427 110.0483 647.4845 111.6131 651.7318 120.7783 659.1087 126.4787 660.1146 134.9733 667.8268 133.9673 675.2037 139.4441 671.8506 152.186 676.3215 158.7805 684.9278 162.469 689.8458 177.5581 695.7696 192.9825 705.6055 202.7066 716.4473 211.4248 729.1892 216.7898 739.8075 213.3249 739.9193 203.489 746.9608 203.7125 753.5553 197.4534 759.7028 196.8945 764.8442 199.577 771.774 203.0419 773.4506 227.0727 787.1985 239.9264 801.5052 246.968 807.5408 260.4923 805.6407 270.887 807.429 281.6171 813.3529 292.4589 817.0414 302.63Z" />
  <path class="Nippes" d="M511.9061 620.3955L513.9179 624.6428 514.1415 629.1136 508.5529 638.5024 509.4471 648.5618 518.277 649.0089 524.4244 655.1563 527.1069 664.3216 532.6955 671.3631 531.2425 682.5403 526.6598 693.1585 526.7716 701.4296 527.4422 709.5889 518.3888 697.1823 515.4827 680.8637 504.0821 670.2454 490.5578 659.1801 481.9514 656.8329 473.7921 659.2919 464.8504 658.2859 455.4616 657.0564 436.5723 657.5035 418.0183 654.9328 406.8411 659.4036 394.0992 662.7568 382.8103 662.4215 371.5215 663.5392 348.8319 667.1158 330.725 662.5332 334.3017 654.4857 337.543 648.003 329.6073 643.9792 324.4658 637.6083 318.2066 632.2432 308.4825 631.3491 296.9701 632.9139 288.9226 639.7319 282.8869 637.72 275.7336 634.1433 263.8858 634.7022 252.3734 633.0256 258.7443 618.6072 266.6801 609.5537 260.868 606.8712 259.0796 601.6179 265.3388 594.4646 268.2449 588.3172 271.9333 585.6347 273.3864 584.8523 273.8334 583.9581 278.3043 578.3695 280.7633 577.14 283.5575 577.0283 286.4636 577.2518 289.2579 577.14 305.4647 572.4457 310.0473 571.775 322.7892 575.0164 323.0128 581.4991 315.7476 586.3053 306.3589 584.8523 306.3589 587.1994 298.6466 584.6287 291.7168 583.7345 284.8988 584.5169 277.0748 587.1994 279.422 588.876 285.3459 592.0056 291.2697 593.4586 291.6051 595.5823 291.4933 598.4883 293.0581 601.3944 299.3173 604.3004 310.7179 602.6239 316.3065 605.4182 328.8249 597.8177 344.1375 595.9176 400.4702 600.2767 407.7353 601.9532 421.9303 609.1066 429.866 610.7832 458.3677 609.7772 472.3391 611.0067 484.8574 615.7011 491.5637 619.5013 496.9287 621.625 502.9644 621.9603 511.9061 620.3955Z" />
  <path class="Nord" d="M871.2504 147.4916L869.5738 151.0683 868.2326 153.8626 866.6678 168.5046 859.0673 179.6817 853.2552 180.9112 849.0079 183.8173 849.2315 188.9587 847.8902 193.7649 848.8961 202.7066 853.7023 211.6483 857.3908 222.8254 863.4264 232.6613 862.3087 242.7207 858.8438 248.1975 865.3265 250.0976 872.0328 251.9977 890.0279 270.3282 895.9518 289.7763 870.2444 302.9653 845.543 318.3898 838.6132 319.0604 835.3718 314.1425 827.5479 306.3185 817.0414 302.63 813.3529 292.4589 807.429 281.6171 805.6407 270.887 807.5408 260.4923 801.5052 246.968 787.1985 239.9264 773.4506 227.0727 771.774 203.0419 764.8442 199.577 759.7028 196.8945 753.5553 197.4534 746.9608 203.7125 739.9193 203.489 739.8075 213.3249 729.1892 216.7898 716.4473 211.4248 705.6055 202.7066 695.7696 192.9825 689.8458 177.5581 684.9278 162.469 676.3215 158.7805 671.8506 152.186 675.2037 139.4441 667.8268 133.9673 660.1146 134.9733 659.1087 126.4787 651.7318 120.7783 647.4845 111.6131 647.4845 109.2659 648.6022 104.795 653.6319 103.342 659.3322 104.9068 662.7971 107.1422 666.5974 107.5893 671.2917 103.4538 675.2037 99.7653 678.2216 97.4182 680.457 92.8355 684.0337 87.4705 686.9397 85.4586 694.3166 94.7356 703.8172 101.2184 713.7648 104.795 719.2416 101.2184 725.7243 104.6833 736.5661 108.9306 746.6255 111.5013 751.0964 110.1601 753.3318 116.1957 770.5446 132.2908 770.5446 134.638 768.868 133.8556 763.2794 132.2908 767.7503 143.3561 769.3151 145.0327 775.686 146.3739 777.0273 145.9268 775.686 142.5737 780.3804 137.2087 779.1509 137.2087 776.8037 137.3205 775.686 137.2087 775.7978 136.7616 776.4684 135.1968 777.3626 133.9673 777.9215 134.638 777.9215 132.2908 777.0273 131.0613 775.686 127.1493 777.9215 127.1493 783.1747 130.0553 790.4398 130.726 796.9226 128.6023 799.8286 123.0138 803.4053 119.3253 810.4469 119.1018 815.253 123.1255 812.2352 132.2908 818.2708 135.8674 824.0829 136.5381 838.1661 134.0791 839.3956 134.1909 841.4075 134.638 843.8664 136.3145 849.0079 141.5678 852.4728 142.5737 864.7677 142.5737 867.6737 143.4679 869.2385 145.2562 870.3562 146.9328 871.2504 147.4916Z" />
  <path class="Nord-Est" d="M977.6565 311.0129L977.5448 311.0129 965.4735 312.5777 952.8433 311.46 946.2488 311.907 938.0895 310.3422 928.4772 309.001 921.771 303.4124 908.582 297.3768 895.9518 289.7763 890.0279 270.3282 872.0328 251.9977 865.3265 250.0976 858.8438 248.1975 862.3087 242.7207 863.4264 232.6613 857.3908 222.8254 853.7023 211.6483 848.8961 202.7066 847.8902 193.7649 849.2315 188.9587 849.0079 183.8173 853.2552 180.9112 859.0673 179.6817 866.6678 168.5046 868.2326 153.8626 869.5738 151.0683 871.2504 147.4916 873.7094 148.6094 878.5155 152.186 881.7569 152.9684 884.5512 151.7389 886.3395 148.8329 888.5749 146.1504 892.7105 145.0327 899.5285 139.7794 909.5879 139.8912 927.0242 145.0327 936.6365 146.2622 939.2073 148.274 936.9718 152.9684 933.954 154.9803 929.7067 155.7627 919.7591 155.5392 923.4475 162.469 929.5949 163.2514 936.3012 161.3513 941.6662 160.4571 948.0372 165.9339 952.0609 168.3928 953.8493 167.1634 955.7494 162.0219 954.967 159.3394 947.0312 157.2157 944.5723 154.8685 943.231 151.6272 943.9017 147.827 946.5842 145.4798 950.7197 145.7033 959.8849 147.827 974.8623 148.1623 977.9919 158.557 979.3331 165.2633 978.886 171.2989 978.3272 181.2465 980.0037 189.8529 989.9514 213.5484 994.1987 243.056 993.9751 259.9334 989.8396 268.6516 987.9395 270.7752 983.3569 282.3994 980.0037 285.082 970.3914 290.5587 968.0442 292.9059 969.8326 300.3946 976.2035 309.4481 977.6565 311.0129Z" />
  <path class="Nord-Ouest" d="M585.1162 4.7598L595.3991 4.201 602.3289 5.2069 608.4763 7.8894 616.5239 12.6956 650.2788 26.1081 664.6972 35.1616 660.5617 44.1033 654.8614 41.5326 624.5714 37.397 610.6 31.8085 593.2755 27.8965 587.3516 25.214 583.3278 25.9964 579.0805 27.5612 575.1685 28.2318 567.6799 26.7788 558.9617 23.8727 551.026 19.849 545.9963 15.0428 547.5611 15.0428 548.567 14.5957 550.5789 12.6956 567.121 7.2188 585.1162 4.7598ZM488.7694 178.8993L488.3223 178.7876 486.534 179.6817 484.8574 181.5818 482.5102 183.3702 478.71 184.2644 473.4568 182.9231 465.521 179.57 457.8088 175.3227 453.0026 171.0754 445.8493 178.1169 430.5366 180.1288 396.5582 178.4523 389.8519 176.6639 385.8282 176.2168 383.3692 174.652 376.9982 167.4987 373.5333 165.9339 368.6154 162.5807 366.7153 154.9803 366.0447 147.0446 364.927 142.5737 377.6689 122.1196 379.569 117.8723 383.0339 117.7605 401.6997 109.0424 401.6997 106.1363 382.0279 106.1363 387.7283 101.7772 394.5463 101.1066 401.8114 101.6655 408.9648 101.2184 452.4438 81.2113 465.1857 71.9343 472.3391 61.9867 476.5864 67.1282 480.6101 68.5812 490.7813 67.3517 495.9228 68.1341 505.3116 71.599 510.3413 72.2696 514.5886 72.2696 516.9358 71.8226 524.0891 69.9224 529.3424 69.2518 534.8191 69.6989 539.7371 71.599 543.5373 75.1757 546.108 69.2518 552.8143 65.5634 560.9736 64.781 567.9034 67.3517 577.404 63.4397 588.8046 60.4219 600.6524 58.9689 611.7177 59.5277 648.0433 68.1341 657.0968 73.7227 664.4737 77.2993 685.5985 83.8938 686.9397 85.4586 684.0337 87.4705 680.457 92.8355 678.2216 97.4182 675.2037 99.7653 671.2917 103.4538 666.5974 107.5893 662.7971 107.1422 659.3322 104.9068 653.6319 103.342 648.6022 104.795 647.4845 109.2659 647.4845 111.6131 636.6427 110.0483 627.9245 116.4193 622.0007 119.7724 614.512 121.7843 592.3813 140.7854 565.4444 145.5915 550.9142 142.7972 536.1604 141.6795 521.8537 138.1029 508.1058 139.4441 491.3402 157.2157 488.4341 177.8934 488.7694 178.8993Z" />
  <path class="Ouest" d="M758.138 466.5983L767.5267 479.1167 779.1509 486.4936 791.334 489.6232 801.9523 497.0001 823.4123 518.2366 850.6845 527.6254 878.8508 518.4602 907.576 513.2069 919.7591 517.4542 931.7186 521.8133 946.5842 525.7253 960.1085 533.7728 962.4557 536.6789 962.5674 536.7906 961.6733 537.3495 956.8671 542.8263 949.4902 555.3447 944.9076 560.3744 931.048 565.1805 904.2229 560.1508 891.0339 562.9451 884.8865 567.6395 888.0161 573.7869 920.3179 606.9829 922.5534 610.4479 923.4475 616.1482 921.5474 618.1601 918.8649 619.7249 917.5237 623.8604 919.6473 630.7902 925.0123 633.808 938.9837 637.2729 942.0015 639.9554 947.3666 648.003 950.2726 651.3561 963.6851 660.2978 982.9098 667.5629 987.9395 670.9161 991.2926 673.8221 991.9633 674.9398 987.8277 682.205 987.4924 682.205 956.3083 687.6817 937.866 676.1693 913.8352 674.2692 883.8805 674.7163 853.0317 667.6747 822.0711 661.3037 791.6693 663.2039 762.1617 661.4155 757.2438 655.827 752.8847 649.9031 742.6018 650.6855 735.7837 647.2206 726.3949 642.638 713.5413 641.7438 701.8053 647.3323 692.9754 657.9506 689.3987 660.7449 685.0396 660.8567 676.3215 664.6569 668.0504 665.6628 663.356 666.2217 659.2205 669.6866 652.4024 670.5807 645.4726 670.8043 641.3371 674.381 637.4251 678.1812 631.2777 677.287 625.6891 674.1574 624.6832 679.5224 622.7831 684.2168 618.424 687.6817 615.6297 692.935 603.8937 689.9172 591.7107 685.8934 585.675 689.4701 581.6513 693.8292 574.0508 689.9172 570.0271 683.9933 564.662 683.7697 559.1853 683.3227 549.6847 685.4463 542.0843 686.4523 537.837 678.1812 532.6955 671.3631 527.1069 664.3216 524.4244 655.1563 518.277 649.0089 509.4471 648.5618 508.5529 638.5024 514.1415 629.1136 513.9179 624.6428 511.9061 620.3955 537.0546 615.9246 567.9034 623.4133 566.0033 629.5607 572.8213 628.2195 582.4337 624.8663 588.6928 624.7546 593.8343 626.99 619.2064 631.3491 632.9542 628.2195 642.6783 619.9484 649.7199 608.3242 655.7556 595.1352 664.3619 584.4052 675.6508 581.9462 735.2249 587.1994 737.3485 586.4171 738.2427 584.6287 738.8015 582.8404 740.031 582.058 742.2664 582.5051 743.2724 583.511 744.0548 584.4052 745.1725 584.8523 752.5494 593.2351 756.0143 595.1352 762.2735 593.4586 765.1795 587.1994 765.9619 578.3695 765.4031 555.4564 765.9619 551.3209 768.4209 546.1794 771.2152 543.1616 772.4447 540.3673 770.5446 535.7847 767.415 533.5493 751.0964 525.5018 746.7373 524.8311 738.0191 524.4958 733.8836 523.2663 726.6185 517.0072 720.2475 509.1832 713.3177 503.7064 704.5996 504.7123 692.4165 497.3354 689.3987 493.8705 686.3809 486.7172 668.1622 458.2155 663.1325 453.074 655.9791 447.2619 648.4904 442.4558 642.343 440.4439 636.6427 437.5378 641.6724 431.1669 647.5963 426.8078 670.3976 427.5902 697.3344 431.5022 705.7173 432.3964 714.5472 432.0611 718.3474 437.4261 721.9241 443.2382 730.8658 447.1502 740.2546 450.9504 749.8669 457.992 758.138 466.5983ZM439.7019 462.351L432.9956 457.5449 431.0955 455.8683 428.5248 452.627 426.1776 448.715 425.0598 444.5794 426.2893 440.4439 430.6484 435.526 436.9076 431.2787 444.1727 428.4844 451.8849 427.3667 460.2678 428.3726 509.7824 449.162 534.2603 457.2096 561.4207 470.9574 586.681 481.6875 597.0757 494.5411 599.7582 502.5887 601.0994 512.3128 600.0935 521.8133 595.8462 529.302 592.046 530.8668 589.587 528.5196 586.3457 521.8133 583.3278 519.1308 580.5336 518.3484 572.5978 517.9013 540.743 510.748 529.9012 509.9656 518.5006 507.0595 487.0928 486.7172 455.3498 478.1108 446.8552 472.5222 439.7019 462.351Z" />
  <path class="Sud" d="M307.7001 757.2034L313.624 757.5387 320.6656 758.9917 325.807 762.0096 325.807 767.3746 321.3362 770.1689 314.0711 770.9513 300.2114 770.1689 293.9523 768.8276 288.5872 765.4745 279.5338 757.2034 280.7633 753.4032 282.3281 751.8384 284.3399 752.3972 286.6871 754.7444 290.7109 751.9502 292.7228 752.9561 294.064 755.5268 296.523 757.2034 307.7001 757.2034ZM527.4422 709.5889L528.2246 716.1834 529.3424 722.7779 529.007 724.5662 499.4994 721.3249 490.1107 721.7719 487.0928 721.3249 476.6981 714.6186 473.5685 713.6127 426.2893 705.9004 404.941 708.1359 401.6997 707.2417 403.5998 702.3238 408.2942 700.4237 421.1479 700.5354 421.1479 698.1882 397.3406 695.6175 368.5036 695.841 360.1208 698.1882 348.6084 705.0063 344.2493 705.9004 341.455 704.4474 338.3254 697.5176 335.7547 695.3939 330.9485 698.3 328.3778 705.6769 325.807 711.1537 320.8891 708.4712 318.6537 708.4712 314.5182 711.1537 310.9415 709.2536 309.3767 704.3356 311.165 698.1882 306.1353 699.753 301.6645 709.5889 296.523 713.6127 296.8583 708.4712 297.976 704.0003 301.4409 695.3939 298.6466 697.7411 294.6229 702.9944 291.7168 705.9004 291.3815 705.0063 289.3696 704.2239 285.5694 703.3297 284.2282 704.0003 284.3399 705.4534 284.787 707.1299 284.4517 708.4712 268.8037 720.9895 243.3199 732.8373 236.8372 739.2083 230.6898 749.4912 245.6671 765.4745 247.9025 771.3983 249.6909 778.7752 248.9085 781.5695 244.1023 782.799 220.5186 782.6872 217.0537 782.1284 213.5888 780.4518 211.018 777.7693 209.6768 772.2925 186.8755 739.4318 185.7578 738.5376 182.9635 737.4199 181.734 736.6375 180.5045 735.1845 180.1692 734.0668 180.0574 732.9491 179.0515 731.2725 172.457 725.0133 137.9197 699.6413 131.6605 696.5117 120.8187 694.7233 116.2361 692.8232 112.3241 690.0289 110.7593 686.4523 109.9769 682.4285 107.965 681.199 104.9472 680.9755 101.147 680.0813 91.9817 676.3928 88.9639 674.7163 86.6167 677.5106 79.9105 675.0516 72.7571 678.0694 65.1567 682.7638 57.3327 685.111 50.8499 683.7697 42.6906 680.5284 35.7608 676.6164 32.8548 673.4868 29.7252 669.3513 16.4244 662.5332 13.9655 657.0564 15.3067 656.3858 23.9131 655.4916 33.749 657.3917 53.5325 655.3799 72.9806 651.2443 108.7474 643.8674 144.9613 640.9614 159.9386 644.6498 174.8042 649.6795 191.7934 654.5975 208.7826 655.9387 208.112 646.997 213.0299 639.6201 221.301 639.3966 229.5721 639.3966 240.9727 636.267 252.3734 633.0256 263.8858 634.7022 275.7336 634.1433 282.8869 637.72 288.9226 639.7319 296.9701 632.9139 308.4825 631.3491 318.2066 632.2432 324.4658 637.6083 329.6073 643.9792 337.543 648.003 334.3017 654.4857 330.725 662.5332 348.8319 667.1158 371.5215 663.5392 382.8103 662.4215 394.0992 662.7568 406.8411 659.4036 418.0183 654.9328 436.5723 657.5035 455.4616 657.0564 464.8504 658.2859 473.7921 659.2919 481.9514 656.8329 490.5578 659.1801 504.0821 670.2454 515.4827 680.8637 518.3888 697.1823 527.4422 709.5889Z" />
  <path class="Sud-Est" d="M987.8277 682.205L987.6042 682.5403 971.7327 709.8124 968.9384 716.9658 967.9325 724.3427 968.4913 727.8076 972.2915 738.6494 973.1857 742.7849 972.9622 749.0441 973.7446 759.8859 972.4033 766.3686 968.156 777.7693 962.3439 773.7455 937.4189 741.2201 926.5771 731.3843 914.0587 723.5603 886.0042 713.948 874.38 707.8006 862.7558 703.3297 848.8961 703.3297 820.5063 708.1359 783.3982 707.8006 731.4246 708.4712 703.4818 713.6127 696.2167 709.8124 691.9694 708.1359 690.0693 709.5889 692.4165 724.1191 689.0634 727.8076 684.9278 727.8076 675.2037 724.1191 669.727 723.1132 627.8128 726.9134 619.2064 726.3546 619.877 728.1429 620.9947 732.3902 621.6653 734.0668 616.4121 733.7315 614.2884 733.1726 611.7177 731.2725 601.8818 737.6435 582.2101 735.7433 572.5978 739.4318 563.209 733.955 550.5789 729.0371 537.0546 725.4604 529.007 724.5662 529.3424 722.7779 528.2246 716.1834 527.4422 709.5889 526.7716 701.4296 526.6598 693.1585 531.2425 682.5403 532.6955 671.3631 537.837 678.1812 542.0843 686.4523 549.6847 685.4463 559.1853 683.3227 564.662 683.7697 570.0271 683.9933 574.0508 689.9172 581.6513 693.8292 585.675 689.4701 591.7107 685.8934 603.8937 689.9172 615.6297 692.935 618.424 687.6817 622.7831 684.2168 624.6832 679.5224 625.6891 674.1574 631.2777 677.287 637.4251 678.1812 641.3371 674.381 645.4726 670.8043 652.4024 670.5807 659.2205 669.6866 663.356 666.2217 668.0504 665.6628 676.3215 664.6569 685.0396 660.8567 689.3987 660.7449 692.9754 657.9506 701.8053 647.3323 713.5413 641.7438 726.3949 642.638 735.7837 647.2206 742.6018 650.6855 752.8847 649.9031 757.2438 655.827 762.1617 661.4155 791.6693 663.2039 822.0711 661.3037 853.0317 667.6747 883.8805 674.7163 913.8352 674.2692 937.866 676.1693 956.3083 687.6817 987.4924 682.205 987.8277 682.205Z" />
</svg>