<?xml version="1.0" encoding="utf-8"?>
<svg xmlns="http://www.w3.org/2000/svg" viewBox="0 0 1021 587" style="stroke-width:0.25px;stroke-linejoin:round;stroke:#444;fill:#ddd" fill-rule="evenodd">
  <path class="Bagmati" d="M578.2981 372.4663L579.6394 373.3605 579.9747 373.6958 580.6453 374.4782 581.2042 375.2606 581.9866 376.1548 582.8807 376.7136 583.9985 377.049 585.2279 377.1607 586.3457 377.1607 587.3516 377.049 588.3575 376.7136 589.2517 375.8195 589.9223 374.3664 590.3694 371.5722 590.1459 369.5603 589.587 367.4366 587.1281 363.3011 586.681 361.9598 586.3457 361.0657 586.5692 359.5009 587.2398 358.1596 591.1518 354.3594 592.9402 352.124 599.3111 339.8292 600.3171 338.5997 601.5465 337.3702 603.782 335.9172 606.2409 334.9112 609.5941 334.2406 610.9353 333.4582 612.1648 332.1169 613.7296 328.9873 615.7415 321.0516 616.971 318.8162 618.7593 316.6925 623.6772 312.6688 625.0185 311.3275 627.4774 306.2978 629.2658 304.3977 631.613 303.1682 631.3894 304.9565 632.2836 307.0802 635.0779 308.7568 638.2075 308.7568 640.6664 307.5273 643.1254 306.9684 647.0374 310.6569 649.3846 311.6628 651.8436 312.2217 653.8554 312.3334 655.532 311.8864 658.9969 310.3216 660.4499 310.098 662.0147 310.8804 663.2442 312.1099 664.4737 313.1158 666.7091 313.3394 668.6092 312.4452 671.5153 309.2039 673.1919 308.0861 675.3155 308.0861 677.2156 308.7568 680.7923 310.5451 683.4748 310.098 686.3809 310.098 689.2869 310.4333 691.9694 311.104 694.5402 312.8923 696.2167 314.5689 697.7815 314.5689 700.7993 309.8745 701.1347 310.9922 702.3641 309.4274 702.6994 308.3097 704.8231 307.5273 705.7173 306.7449 705.829 305.5154 705.829 304.1741 706.1644 302.9447 707.9527 302.6094 708.5116 305.7389 708.7351 311.9981 710.747 315.6866 713.0942 318.7044 715.8884 321.3869 719.1298 323.5106 724.6066 325.9695 727.2891 327.6461 729.1892 329.7697 729.6363 331.3345 730.1952 334.4641 732.4306 337.3702 732.6541 338.7114 732.5424 340.0527 732.5424 341.7293 733.5483 344.9706 734.8895 346.9825 739.2486 350.8945 740.8134 353.4652 740.8134 356.1477 740.2546 359.0538 740.1428 361.9598 741.5958 365.4248 743.8312 366.3189 749.5316 365.6483 752.6612 365.9836 753.1083 365.9836 750.7611 372.2428 750.314 375.5959 750.6493 380.6256 750.5375 383.7552 750.0904 385.0965 749.308 385.8789 746.5138 386.4377 745.7314 386.6613 744.5019 387.8908 742.8253 390.4615 740.8134 394.8206 739.2486 397.3913 737.7956 399.4032 732.8777 404.7682 726.9538 412.1451 726.3949 414.157 724.9419 416.8395 724.1595 418.1807 722.7065 419.6338 722.1476 420.5279 722.1476 420.6397 722.8183 422.6516 723.0418 423.5458 723.6007 429.2461 720.6946 432.4875 713.3177 433.7169 711.8647 434.6111 711.3058 435.5053 711.1941 436.7348 710.8587 438.1878 709.741 440.0879 708.3998 440.7585 706.6114 440.8703 688.7281 439.7526 687.8339 439.4173 687.0515 438.9702 684.369 436.8465 681.2394 433.9405 678.1098 432.2639 674.4213 431.1462 670.3976 430.4756 664.9208 429.4696 657.0968 424.9988 655.4202 423.5458 654.1908 422.0927 653.6319 420.7515 653.6319 420.5279 653.1848 417.2866 652.9613 416.3924 652.4024 415.61 651.8436 414.8276 651.2847 413.9334 650.8376 413.0393 650.6141 411.4745 649.6081 402.6446 647.9316 397.3913 647.3727 396.2736 646.5903 395.4912 645.2491 395.0441 639.2134 393.7029 632.8425 390.7968 630.7188 390.1262 629.0422 389.9026 620.4359 390.3497 619.0946 390.5733 615.6297 391.691 613.059 391.9145 610.2647 392.6969 607.5822 394.3735 605.5703 395.0441 604.0055 395.1559 596.1815 394.3735 594.6167 389.9026 594.0579 389.0085 593.1637 388.1143 591.8224 387.4437 582.6572 387.1084 580.6453 386.6613 580.0865 386.1024 579.9747 385.4318 580.5336 384.3141 580.5336 383.5317 580.0865 382.414 578.5217 380.1785 577.6275 378.7255 577.0686 377.6078 576.9569 376.7136 577.0686 375.9312 577.2922 375.1488 577.9628 373.3605 578.2981 372.4663Z" />
  <path class="Bheri" d="M190.5639 190.0558L193.6935 193.9678 193.9171 197.5444 193.6935 198.8857 193.6935 199.8916 194.4759 200.5623 196.8231 201.3447 201.1822 202.1271 211.4651 205.7037 218.1714 206.9332 220.295 207.4921 222.1952 208.6098 224.9894 209.951 227.4484 210.7334 237.5078 211.6276 248.6849 206.4861 251.2557 207.2685 251.7028 207.7156 252.1498 207.9392 252.1498 208.0509 252.9322 209.6157 253.7146 210.5099 254.8323 211.1805 256.3971 211.0688 257.9619 210.3981 259.862 208.2745 260.5327 206.8215 261.3151 205.7037 262.321 204.8096 263.5505 203.9154 264.4447 202.9095 265.8977 200.4505 266.7919 199.5563 267.9096 198.6622 280.3162 193.0736 282.3281 192.6265 291.7168 192.8501 297.4172 195.5326 297.976 197.2091 298.0878 198.4386 298.0878 199.7799 297.7525 201.2329 297.5289 202.2388 297.1936 203.2448 296.8583 204.6978 296.8583 205.592 297.0818 206.3744 297.6407 207.1568 298.4231 207.7156 300.9938 208.8333 301.9998 209.0569 303.1175 209.0569 304.5705 208.6098 305.5765 208.0509 305.6882 207.9392 306.1353 207.6039 307.4766 206.7097 310.2708 206.9332 317.7595 210.1746 312.0592 215.4278 310.4944 219.1163 309.9355 221.1282 308.8178 223.6989 307.3648 225.599 293.7287 236.4408 286.4636 240.9117 285.1223 242.2529 280.5397 249.071 277.969 251.6417 276.4042 252.9829 274.1688 254.3242 273.3864 255.2184 272.604 256.3361 270.0332 261.4776 266.9036 263.2659 261.4268 263.3777 259.6385 263.1541 257.9619 262.8188 252.3734 260.4716 247.9025 265.9484 247.0084 268.0721 246.4495 270.1957 246.673 271.4252 248.5732 275.7843 249.132 277.9079 249.2438 280.9257 248.7967 282.8259 248.0143 284.3906 247.2319 285.173 246.5613 285.6201 243.5435 286.8496 242.314 287.5202 241.5316 288.638 241.308 289.6439 241.7551 290.8734 242.5375 291.7675 243.2081 292.997 243.6552 294.6736 243.6552 299.9268 244.4376 301.1563 252.0381 304.3977 254.6088 307.3037 255.9501 310.4333 258.7443 314.9042 252.1498 318.4809 250.3615 323.5106 248.6849 326.1931 248.4614 327.5343 249.0202 328.9873 250.0262 330.2168 253.8264 333.3464 254.9441 334.3524 257.0678 337.1466 257.8502 337.929 258.9679 338.1526 259.9738 338.2644 261.0915 338.4879 262.0975 339.1585 267.7978 344.3 268.8037 346.0883 269.3626 347.8767 269.4744 350.2239 269.2508 353.2417 269.1391 354.0241 268.8037 354.6947 268.3567 355.3653 267.5743 356.036 266.9036 356.5948 265.5624 357.1537 262.9916 357.6008 261.8739 357.7125 259.5267 357.3772 258.9679 357.3772 258.1855 357.7125 257.6266 358.0479 253.8264 361.8481 253.1558 363.4129 250.2497 362.5187 243.8788 361.8481 240.1903 363.5246 235.1606 369.4485 232.2546 371.4604 228.7897 371.1251 225.3248 369.1132 221.8598 366.4307 215.7124 362.854 210.6827 357.489 208.0002 355.2536 205.0942 354.2476 198.835 352.7946 196.376 350.8945 196.2642 350.7827 194.6994 348.212 192.1287 346.4237 181.1751 340.7233 179.275 339.1585 178.7162 337.8173 178.6044 336.3642 177.9338 334.3524 176.369 331.7816 174.1336 329.3227 171.451 327.4226 168.6568 326.3048 166.6449 326.6402 165.8625 327.8696 165.4154 329.658 164.1859 331.3345 162.3976 332.2287 160.3857 332.564 159.0444 332.0052 159.3798 329.9933 157.3679 329.4344 156.5855 328.3167 157.0326 327.199 158.9327 326.4166 157.2561 322.9517 149.991 314.5689 148.3144 310.6569 145.7437 302.274 143.1729 298.9209 140.2669 297.3561 127.8603 295.0089 127.9721 292.6617 129.4251 287.1849 130.7663 285.2848 135.0136 282.7141 136.4667 281.4846 153.903 262.3717 154.7971 261.1422 155.9149 259.9128 156.6972 256.6714 157.0326 253.8771 156.5855 251.1946 152.5617 242.0294 151.2205 237.5585 150.4381 232.7524 149.2086 230.6287 147.532 229.0639 145.7437 228.058 146.3025 229.8463 147.8673 233.0877 148.3144 234.876 143.2847 231.97 142.167 232.3053 140.4904 228.5051 138.9256 227.052 137.2491 227.3873 135.5725 228.3933 133.8959 228.8404 131.7723 227.6109 127.1897 223.8107 121.0422 217.3279 121.7129 215.5396 123.7248 213.6395 126.4073 212.0747 128.7545 211.4041 131.3252 211.8512 133.8959 212.7453 138.9256 215.3161 145.4084 220.4575 147.9791 221.1282 156.0266 220.0105 158.7091 220.234 160.0504 220.7928 162.9564 222.693 164.1859 223.14 175.1395 221.7988 177.2631 222.4694 179.275 225.0402 181.1751 229.0639 186.5402 235.3231 186.0931 239.7939 187.4343 240.6881 187.6579 241.4705 186.0931 242.7 186.0931 243.7059 187.3226 243.8177 188.3285 243.5942 190.4521 242.7 193.47 240.9117 193.1347 239.2351 191.4581 237.5585 190.4521 235.3231 189.6697 231.97 187.9932 229.0639 183.5223 224.146 177.0396 214.3101 175.363 213.3042 173.7982 210.7334 172.9041 207.6039 173.2394 204.586 179.1633 197.8798 180.5045 196.762 182.2928 196.2032 190.5639 190.0558Z" />
  <path class="Bhojpur" d="M862.9793 557.8947L863.4264 556.777 866.1089 554.318 867.1149 552.865 867.3384 551.6355 867.3384 550.0707 867.1149 548.5059 866.6678 547.5 866.3325 546.1587 867.0031 544.3704 868.7914 541.3526 871.5857 529.6166 873.5976 527.8283 876.3919 526.5988 885.11 517.3218 888.5749 515.1981 890.3633 513.7451 891.0339 512.0685 891.1457 511.1744 891.9281 508.2683 892.3751 507.2624 893.0458 504.4681 892.4869 501.8974 890.3633 501.115 886.0042 501.2267 871.1386 504.6916 867.0031 504.021 865.8854 482.6727 865.3265 480.9961 864.097 479.3196 861.6381 476.7488 860.9674 474.9605 860.6321 472.9486 861.6381 464.3422 861.7498 461.8833 861.0792 455.6241 861.4145 453.3887 862.0851 452.6063 863.0911 452.0474 864.2088 451.6003 865.103 451.0415 865.7736 450.1473 866.1089 449.2531 866.2207 447.353 865.7736 445.0058 860.8557 436.5112 859.4026 431.3697 859.8497 429.2461 860.2968 428.4637 862.5322 425.893 863.9853 424.2164 864.4323 422.7634 865.6618 417.063 866.2207 415.1629 868.5679 400.968 870.9151 392.6969 871.1386 391.3557 871.1386 389.3438 870.1327 383.5317 870.3562 380.2903 871.0268 377.496 871.0268 376.7136 870.8033 375.3724 869.9091 372.4663 868.5679 366.2072 868.9032 357.2655 868.9032 357.0419 869.5738 356.8184 870.3562 356.8184 871.8092 356.9301 874.9388 358.8303 878.8508 363.0776 885.6689 372.0193 890.5868 374.7018 893.8282 374.9253 900.1991 374.1429 907.3525 376.043 910.2585 374.3664 912.2704 372.5781 915.1765 374.59 915.4 374.59 916.2942 374.4782 917.7472 372.9134 917.7472 372.8017 918.6414 372.131 919.0884 371.9075 918.6414 373.2487 917.1883 375.7077 917.1883 377.8314 919.4238 377.7196 930.4891 374.59 935.2953 373.3605 937.4189 373.137 939.8779 373.8076 940.5485 374.59 940.9956 375.7077 941.6662 376.8254 942.6722 377.6078 944.7958 377.7196 948.596 375.5959 950.4961 375.0371 953.514 375.5959 955.8612 376.4901 952.8433 384.9847 950.1608 390.685 948.149 393.7029 946.6959 395.2677 945.4664 396.0501 944.5723 396.0501 943.5663 395.603 942.7839 394.9323 942.0015 394.4853 941.1074 394.2617 940.1014 394.597 939.5426 395.7147 938.4249 400.7444 937.0836 404.5447 935.6306 407.1154 933.2834 410.245 931.9421 412.5922 930.9362 414.8276 929.4832 420.5279 928.2537 428.9108 927.2477 432.3757 926.9124 434.9464 926.8007 437.0701 927.2477 438.6349 928.0301 439.9761 935.5188 448.1354 936.413 448.9178 937.7542 449.4767 943.3428 450.5944 955.5259 455.6241 960.7791 457.636 962.6792 459.089 963.2381 459.9832 963.4616 460.8773 963.4616 461.7715 963.2381 462.5539 962.4557 463.4481 960.5556 465.2364 959.9967 466.2424 959.6614 467.6954 959.3261 468.8131 958.7672 469.9308 957.7613 470.7132 956.6436 471.3838 951.055 473.2839 949.602 474.0663 946.3606 476.5253 939.4308 483.7904 933.5069 491.1673 931.048 493.5145 933.8422 497.4265 936.6365 505.5858 937.6425 507.2624 938.7602 508.3801 940.8838 509.6096 945.8018 511.6215 946.0253 511.7332 952.1727 520.2278 954.0728 523.9163 954.2964 524.9222 954.2964 527.1576 951.6139 538.8936 951.2785 569.2954 951.5021 571.419 952.0609 573.3191 949.0431 575.6663 944.3487 577.79 939.9897 576.5605 931.048 571.419 927.2477 570.7484 923.1122 570.9719 919.0884 572.0897 915.6235 574.2133 914.1705 576.2252 911.8233 581.2549 910.2585 582.5961 908.582 582.2608 903.3287 579.9136 901.7639 578.9077 900.6462 577.0076 899.752 574.8839 898.4108 573.5427 894.6106 574.7722 887.9043 575.5546 884.3276 573.9898 881.5333 570.1895 879.4097 565.6069 878.1802 561.4714 876.7272 554.5416 876.6154 552.1944 876.2801 549.6237 874.8271 549.6237 873.0387 551.1884 869.2385 555.1004 867.6737 556.3299 862.9793 557.8947Z" />
  <path class="Dhawalagiri" d="M390.1872 245.4943L393.7639 246.0531 397.0053 247.1708 399.0172 247.3944 401.9232 247.3944 405.947 247.9532 408.2942 247.9532 414.218 246.7238 416.9006 245.7178 419.6948 244.0413 430.8719 239.9057 432.5485 237.5585 436.7958 225.7108 439.0312 221.7988 445.9611 212.8571 447.0788 211.8512 447.8612 210.3981 448.42 208.2745 449.426 197.3209 449.9848 195.6443 451.3261 193.9678 452.5556 192.7383 453.785 191.1735 454.2321 190.0558 453.4497 185.1378 453.5615 185.0261 454.5674 183.0142 455.1263 180.5552 456.0205 178.208 456.3558 177.9845 457.1382 177.3139 457.5853 176.755 457.8088 176.6432 458.0323 176.1961 458.5912 175.7491 461.609 174.6314 464.7386 174.5196 467.8682 174.8549 470.7743 174.5196 476.3628 171.7253 479.2689 170.8311 480.163 170.384 481.2807 168.4839 481.9514 167.7015 485.8634 166.6956 488.2106 166.3603 489.7754 166.3603 491.3402 166.6956 492.4579 167.3662 493.2403 168.4839 493.5756 170.384 495.1404 169.4899 496.7052 169.0428 498.1582 169.3781 499.2759 170.9429 500.9525 172.6195 503.1879 172.2842 505.5351 171.2782 507.7705 171.39 508.8882 172.7312 509.6706 176.6432 510.5648 178.208 512.2414 178.5433 514.2532 178.3198 515.9298 178.5433 516.7122 180.5552 515.9298 182.9024 514.2532 185.1378 513.0238 187.485 513.8062 190.2793 516.6004 192.9618 517.2711 193.9678 517.7182 195.309 518.5006 199.8916 521.2948 201.5682 524.0891 202.4624 525.4304 204.3625 522.4125 216.5455 524.648 220.3458 523.642 220.7928 519.73 221.687 516.3769 223.9224 514.7003 224.4813 509.4471 225.1519 507.6587 225.9343 506.2057 226.9403 505.1998 227.9462 502.0702 230.5169 498.8288 232.7524 496.8169 233.423 494.8051 233.6465 492.3461 233.3112 489.8871 233.3112 488.3223 233.9818 487.2046 235.0996 485.6398 237.7821 484.4103 239.2351 476.4746 246.1649 473.345 247.7297 471.6684 248.8474 470.7743 249.7416 470.4389 250.4122 470.9978 251.8652 476.251 258.1244 476.6981 259.2421 477.1452 261.254 471.892 265.9484 471.3331 267.2897 470.6625 269.4133 471.1096 272.8782 470.7743 274.8901 469.8801 276.6784 467.98 278.9139 467.7564 279.1374 465.2975 282.4905 464.2915 284.5024 462.5032 290.4263 461.3855 291.8793 460.3795 292.7735 458.2559 294.1147 461.1619 298.9209 462.2796 303.7271 463.1738 305.1801 464.5151 306.9684 465.6328 309.5392 466.527 310.8804 468.6506 313.0041 469.0977 314.2336 469.2095 317.8102 467.3094 322.1693 465.8563 323.3988 464.2915 325.2989 462.7267 327.8696 460.156 331.111 459.5971 332.2287 458.703 335.4701 455.4616 343.6294 454.0086 345.9766 452.4438 347.4296 445.4022 349.5532 443.6139 345.8648 442.4961 345.4177 441.602 345.5295 440.7078 345.3059 440.149 343.8529 439.9254 342.1763 440.3725 341.3939 440.149 340.388 439.3666 339.4938 433.5545 334.4641 432.2132 333.6817 430.5366 333.0111 428.0777 332.564 424.501 332.3405 422.8244 331.7816 420.8125 330.3286 419.6948 328.9873 418.8007 327.5343 417.6829 326.4166 416.1182 325.4107 413.4356 323.9576 411.7591 323.3988 408.4059 323.287 406.6176 322.7282 404.1586 321.2751 397.3406 315.1277 394.7699 314.1218 392.6462 313.5629 382.8103 315.3513 382.2515 311.551 380.5749 309.2039 377.7806 306.5213 366.2682 297.5796 364.927 293.6677 364.0328 292.5499 362.3562 291.0969 361.3503 289.7557 359.8972 286.2908 358.6678 285.2848 357.8854 283.8318 360.9032 279.2492 359.3384 277.9079 359.3384 276.7902 360.009 275.3372 362.2444 273.2135 364.1446 272.4311 365.7094 272.3194 367.0506 272.3194 368.0565 271.8723 368.6154 270.4193 368.6154 269.3015 368.1683 268.2956 366.8271 266.5073 366.4917 265.5013 367.833 264.3836 370.8508 263.0424 377.4453 261.1422 384.1516 258.2362 388.1754 252.4241 389.6284 249.518 390.1872 245.4943Z" />
  <path class="Gandaki" d="M445.4022 349.5532L452.4438 347.4296 454.0086 345.9766 455.4616 343.6294 458.703 335.4701 459.5971 332.2287 460.156 331.111 462.7267 327.8696 464.2915 325.2989 465.8563 323.3988 467.3094 322.1693 469.2095 317.8102 469.0977 314.2336 468.6506 313.0041 466.527 310.8804 465.6328 309.5392 464.5151 306.9684 463.1738 305.1801 462.2796 303.7271 461.1619 298.9209 458.2559 294.1147 460.3795 292.7735 461.3855 291.8793 462.5032 290.4263 464.2915 284.5024 465.2975 282.4905 467.7564 279.1374 467.98 278.9139 469.8801 276.6784 470.7743 274.8901 471.1096 272.8782 470.6625 269.4133 471.3331 267.2897 471.892 265.9484 477.1452 261.254 476.6981 259.2421 476.251 258.1244 470.9978 251.8652 470.4389 250.4122 470.7743 249.7416 471.6684 248.8474 473.345 247.7297 476.4746 246.1649 484.4103 239.2351 485.6398 237.7821 487.2046 235.0996 488.3223 233.9818 489.8871 233.3112 492.3461 233.3112 494.8051 233.6465 496.8169 233.423 498.8288 232.7524 502.0702 230.5169 505.1998 227.9462 506.2057 226.9403 507.6587 225.9343 509.4471 225.1519 514.7003 224.4813 516.3769 223.9224 519.73 221.687 523.642 220.7928 524.648 220.3458 525.8774 222.3576 532.2484 226.0461 540.743 227.8344 542.3078 228.5051 543.5373 229.6228 545.6609 233.0877 548.2317 235.4349 549.3494 236.6644 551.2495 243.2589 552.8143 245.9414 555.9439 246.9473 558.8499 246.8355 560.9736 247.7297 562.9855 248.9592 565.4444 249.8534 572.3743 251.0828 573.492 251.7535 574.7215 254.2124 575.5039 255.2184 577.9628 256.1125 580.31 256.6714 581.8748 257.7891 581.2042 264.3836 582.769 265.6131 588.4693 265.8366 590.9283 267.0661 594.1696 270.8663 596.2933 272.6547 597.9699 273.3253 599.4229 273.4371 606.3527 272.99 607.8057 273.3253 609.9294 273.9959 611.2706 274.2195 612.5001 273.7724 613.5061 272.8782 615.0708 269.5251 615.7415 268.6309 619.5417 266.619 620.6594 266.2837 621.6653 265.8366 622.5595 264.7189 623.789 262.1482 624.5714 261.0305 625.4656 260.1363 628.2598 259.5774 630.7188 260.4716 635.4132 263.8248 641.4488 265.7249 642.343 267.4014 641.0018 274.5548 640.5547 275.6725 639.884 277.0138 638.8781 277.6844 636.7545 278.5785 636.0838 279.5845 635.8603 280.4787 635.8603 282.1552 635.8603 282.267 635.8603 283.1612 635.0779 285.0613 631.8365 286.9614 631.0541 288.4144 632.0601 296.1266 632.0601 298.9209 631.613 303.1682 629.2658 304.3977 627.4774 306.2978 625.0185 311.3275 623.6772 312.6688 618.7593 316.6925 616.971 318.8162 615.7415 321.0516 613.7296 328.9873 612.1648 332.1169 610.9353 333.4582 609.5941 334.2406 606.2409 334.9112 603.782 335.9172 601.5465 337.3702 600.3171 338.5997 599.3111 339.8292 592.9402 352.124 591.1518 354.3594 587.2398 358.1596 586.5692 359.5009 586.3457 361.0657 586.681 361.9598 587.1281 363.3011 589.587 367.4366 590.1459 369.5603 590.3694 371.5722 589.9223 374.3664 589.2517 375.8195 588.3575 376.7136 587.3516 377.049 586.3457 377.1607 585.2279 377.1607 583.9985 377.049 582.8807 376.7136 581.9866 376.1548 581.2042 375.2606 580.6453 374.4782 579.9747 373.6958 579.6394 373.3605 578.2981 372.4663 576.8451 370.1191 575.3921 368.4426 574.1626 367.5484 573.0449 366.9895 571.8154 366.6542 570.4741 366.4307 569.3564 366.6542 568.574 366.9895 566.0033 369.1132 559.297 373.8076 553.5967 376.1548 552.7025 377.2725 552.3672 379.5079 552.8143 380.8492 553.4849 381.8551 553.932 382.3022 554.4909 382.8611 554.7144 383.7552 554.1556 384.0905 549.9083 383.6435 548.1199 384.2023 546.6669 381.8551 545.4374 380.6256 543.202 380.8492 541.5254 382.1904 540.0724 383.7552 538.6194 384.5376 537.5017 384.4259 536.6075 384.0905 536.1604 383.4199 536.0486 382.0787 535.7133 380.9609 534.0367 379.8432 533.3661 378.7255 533.0308 376.3783 532.919 374.59 532.2484 373.137 530.013 371.9075 524.648 370.7898 513.4708 370.678 508.1058 369.4485 505.6469 367.9955 501.176 364.0835 498.7171 363.0776 495.5875 363.4129 489.9989 366.5425 487.0928 367.3249 485.3045 367.1013 481.9514 366.3189 480.2748 366.0954 478.9336 366.4307 476.0275 367.5484 474.798 367.5484 473.0097 366.5425 469.5448 362.9658 467.4211 361.7363 464.4033 361.401 454.3439 361.5128 452.1085 362.7422 451.2143 362.9658 446.7435 361.2892 445.2904 361.401 443.6139 360.5068 441.602 360.1715 438.0253 360.2833 434.4486 359.6127 432.9956 359.8362 431.5426 361.401 429.7542 359.8362 427.7424 358.7185 426.5129 357.489 427.2953 355.5889 429.1954 354.4712 431.319 354.5829 435.0075 355.5889 439.5901 354.8065 443.5021 352.6828 445.4022 349.5532Z" />
  <path class="Janakpur" d="M684.369 436.8465L687.0515 438.9702 687.8339 439.4173 688.7281 439.7526 706.6114 440.8703 708.3998 440.7585 709.741 440.0879 710.8587 438.1878 711.1941 436.7348 711.3058 435.5053 711.8647 434.6111 713.3177 433.7169 720.6946 432.4875 723.6007 429.2461 723.0418 423.5458 722.8183 422.6516 722.1476 420.6397 722.1476 420.5279 722.7065 419.6338 724.1595 418.1807 724.9419 416.8395 726.3949 414.157 726.9538 412.1451 732.8777 404.7682 737.7956 399.4032 739.2486 397.3913 740.8134 394.8206 742.8253 390.4615 744.5019 387.8908 745.7314 386.6613 746.5138 386.4377 749.308 385.8789 750.0904 385.0965 750.5375 383.7552 750.6493 380.6256 750.314 375.5959 750.7611 372.2428 753.1083 365.9836 754.0024 365.7601 755.679 364.9777 759.591 361.0657 760.3734 360.5068 760.2616 359.6127 761.8264 358.942 761.7146 358.7185 761.1558 357.9361 760.9322 357.8243 760.2616 357.0419 759.8145 356.5948 759.7028 355.1418 759.4792 354.3594 759.3674 353.6888 759.0321 352.7946 758.9204 351.9004 758.6968 351.118 757.9144 350.1121 757.0202 349.2179 756.7967 348.9944 756.3496 348.1002 756.3496 346.9825 756.5732 345.5295 756.6849 344.6353 756.7967 343.9647 756.9085 342.9587 757.132 341.6175 756.4614 339.4938 756.2378 338.2644 756.2378 337.8173 757.132 336.9231 759.1439 337.0349 760.3734 337.2584 760.4851 337.2584 760.0381 335.5818 763.9501 332.6758 764.1736 332.4523 765.0678 331.4463 765.7384 330.8875 766.1855 330.5521 767.7503 329.5462 767.9738 328.4285 768.1974 328.4285 768.3091 328.7638 768.3091 329.2109 768.4209 329.3227 768.5327 329.2109 769.4268 331.2228 769.6504 334.6877 768.868 337.5937 767.7503 339.9409 768.0856 341.2822 768.9798 342.2881 769.8739 343.9647 770.7681 347.9884 771.5505 349.7768 773.4506 350.7827 773.5624 350.8945 776.0213 351.5651 778.5921 351.9004 780.9393 352.4593 783.0629 354.0241 785.969 357.7125 787.1985 358.6067 788.4279 358.8303 789.4339 358.4949 790.4398 357.9361 791.5575 357.7125 792.6752 358.2714 796.9226 361.8481 799.3815 362.854 801.0581 362.7422 802.6229 361.8481 802.8464 362.0716 803.1817 361.5128 805.6407 360.2833 808.3232 358.8303 809.9998 356.8184 810.2233 355.9242 810.5586 355.3653 810.6704 355.1418 810.8939 354.2476 813.0176 356.4831 816.7061 362.2952 817.6002 365.9836 817.6002 369.7838 818.2708 376.9372 819.3886 380.9609 819.5003 383.867 819.8356 386.1024 819.3886 387.6672 818.8297 388.6732 817.9355 390.1262 816.9296 392.1381 815.7001 396.2736 814.3589 399.1796 813.0176 401.0798 811.4528 402.1975 808.435 403.2034 805.8642 403.6505 804.6348 404.0976 803.7406 404.5447 799.7168 408.6802 797.8167 410.0215 791.6693 417.063 780.4922 427.4578 778.5921 430.252 776.4684 435.0582 775.3507 438.1878 775.1272 439.4173 775.0154 440.6468 775.2389 441.6527 776.4684 444.6705 776.5802 445.9 776.2449 447.6883 775.686 449.9238 772.4447 455.5123 772.4447 456.4065 774.4565 456.9653 781.4981 456.8536 785.5219 457.7477 787.3102 458.3066 788.4279 459.089 789.2103 460.3185 790.1045 461.3244 790.6634 461.8833 794.5754 464.2305 795.1342 464.7893 795.4695 465.2364 794.7989 466.5777 790.9987 471.1603 787.5338 474.1781 787.5338 474.9605 787.8691 475.6311 788.5397 476.19 789.0986 476.7488 789.7692 477.5312 790.7751 480.9961 791.6693 485.1317 791.7811 489.2672 791.334 491.2791 790.5516 492.5086 785.2983 494.0734 782.057 496.3088 778.3685 501.562 775.4625 502.6798 774.233 502.568 772.5564 502.1209 769.3151 500.6679 768.1974 500.6679 767.0796 501.2267 765.4031 503.2386 764.8442 504.2446 764.5089 505.1387 764.5089 506.1447 764.6207 506.9271 765.6266 509.8331 765.9619 511.6215 765.9619 518.663 766.0737 520.1161 766.409 521.5691 766.9679 523.1339 767.7503 524.6987 769.9857 528.1636 770.6563 529.3931 771.1034 531.0696 770.9916 532.4109 770.5446 533.6404 764.7325 546.1587 764.5089 546.6058 764.2854 546.6058 761.4911 546.7176 760.7087 546.4941 760.0381 545.8234 751.4317 540.4584 747.6315 539.2289 743.2724 540.5702 740.2546 540.9055 738.1309 542.2468 729.5245 549.6237 726.842 551.1884 724.8301 551.5238 723.936 550.7414 723.7124 549.6237 723.7124 548.3942 723.4889 547.2765 722.4829 546.3823 721.2535 546.7176 720.024 547.1647 718.9063 546.9411 712.2 541.5761 710.4117 539.3407 709.0704 534.4228 709.9646 524.1398 709.0704 519.3337 707.2821 517.21 697.4462 511.7332 696.105 511.2861 686.2691 515.1981 680.7923 518.1042 676.3215 520.5631 673.9743 521.2338 671.7388 520.5631 669.6152 520.4514 667.4915 522.3515 665.815 524.4751 665.815 524.3634 665.5914 518.663 665.815 515.8688 666.9327 511.3979 668.8328 506.2564 672.9683 500.2208 673.6389 498.656 674.086 497.0912 674.3096 494.6322 674.086 492.8439 673.8625 491.5026 673.6389 490.7202 673.4154 489.4908 673.3036 488.373 673.5272 486.8083 674.086 485.1317 675.8744 481.8903 683.8101 470.825 684.7043 467.5836 685.0396 464.0069 685.2631 463.001 685.4867 462.2186 685.822 461.6597 686.0455 460.4303 685.9338 458.8655 685.2631 455.6241 684.5925 453.724 683.8101 452.3827 683.2513 451.7121 682.4689 451.0415 681.4629 450.2591 678.4451 448.6943 677.3274 447.8001 676.7685 446.9059 676.3215 445.6765 676.3215 444.447 676.545 443.441 678.5569 441.0938 684.369 436.8465Z" />
  <path class="Karnali" d="M453.4497 185.1378L454.2321 190.0558 453.785 191.1735 452.5556 192.7383 451.3261 193.9678 449.9848 195.6443 449.426 197.3209 448.42 208.2745 447.8612 210.3981 447.0788 211.8512 445.9611 212.8571 439.0312 221.7988 436.7958 225.7108 432.5485 237.5585 430.8719 239.9057 419.6948 244.0413 416.9006 245.7178 414.218 246.7238 408.2942 247.9532 405.947 247.9532 401.9232 247.3944 399.0172 247.3944 397.0053 247.1708 393.7639 246.0531 390.1872 245.4943 385.2693 244.3766 366.7153 234.9878 364.1446 233.9818 362.3562 233.6465 354.7558 234.2054 348.273 233.6465 346.7083 233.7583 345.367 234.3172 343.2433 234.6525 341.455 233.9818 335.5311 229.9581 334.7487 228.7286 334.637 227.2756 334.637 225.3755 334.637 223.2518 334.3017 221.3517 333.631 220.234 328.8249 215.2043 326.7012 213.3042 325.0246 212.41 317.7595 210.1746 310.2708 206.9332 307.4766 206.7097 306.1353 207.6039 305.6882 207.9392 305.5765 208.0509 304.5705 208.6098 303.1175 209.0569 301.9998 209.0569 300.9938 208.8333 298.4231 207.7156 297.6407 207.1568 297.0818 206.3744 296.8583 205.592 296.8583 204.6978 297.1936 203.2448 297.5289 202.2388 297.7525 201.2329 298.0878 199.7799 298.0878 198.4386 297.976 197.2091 297.4172 195.5326 291.7168 192.8501 282.3281 192.6265 280.3162 193.0736 267.9096 198.6622 266.7919 199.5563 265.8977 200.4505 264.4447 202.9095 263.5505 203.9154 262.321 204.8096 261.3151 205.7037 260.5327 206.8215 259.862 208.2745 257.9619 210.3981 256.3971 211.0688 254.8323 211.1805 253.7146 210.5099 252.9322 209.6157 252.1498 208.0509 252.1498 207.9392 251.7028 207.7156 251.2557 207.2685 248.6849 206.4861 237.5078 211.6276 227.4484 210.7334 224.9894 209.951 222.1952 208.6098 220.295 207.4921 218.1714 206.9332 211.4651 205.7037 201.1822 202.1271 196.8231 201.3447 194.4759 200.5623 193.6935 199.8916 193.6935 198.8857 193.9171 197.5444 193.6935 193.9678 190.5639 190.0558 188.8873 188.3792 187.2108 187.038 183.5223 184.6908 182.6282 183.9084 182.0693 182.12 181.734 179.7728 182.7399 171.0547 181.734 168.7075 181.2869 167.2545 181.1751 165.8014 181.734 164.4602 182.8517 162.8954 186.7637 158.9834 188.6638 157.5304 193.8053 155.8538 195.5936 155.6303 197.9408 155.5185 198.9468 155.742 199.8409 156.3009 202.9705 159.2069 204.3118 159.7658 205.8766 159.8776 208.0002 159.5422 212.3593 158.201 213.1417 155.6303 211.8004 153.2831 210.571 150.6006 210.0121 147.2474 210.1239 143.8943 210.4592 141.1 211.2416 138.7528 212.5828 136.8527 217.5008 133.4996 219.5127 131.4877 220.295 128.4699 220.4068 126.2344 220.295 123.2166 219.848 121.8754 219.1773 120.9812 216.7184 120.3106 216.0477 120.1988 214.0359 119.1928 212.4711 118.0751 211.018 116.7339 209.7886 115.0573 209.0062 112.4866 208.8944 110.81 209.0062 109.5805 212.4711 98.4034 213.0299 94.8267 213.2535 90.2441 213.5888 88.4558 214.0359 87.3381 214.7065 86.5557 216.3831 85.2144 217.389 84.3202 218.0596 83.4261 218.6185 82.3084 218.842 81.1906 218.7303 79.5141 218.1714 78.1728 216.9419 77.1669 215.2653 76.608 210.4592 75.6021 208.3355 74.7079 206.7707 73.4784 205.2059 72.9196 202.9705 72.4725 193.6935 72.696 192.2405 72.9196 190.7875 73.2549 188.2167 74.8197 185.0871 79.5141 184.3047 80.0729 183.6341 80.0729 182.7399 79.8494 181.5105 79.1788 178.9397 77.1669 178.3809 76.0492 178.2691 74.8197 178.6044 72.0254 178.7162 70.4606 178.4926 69.1194 177.9338 67.7781 177.4867 66.8839 176.8161 65.9898 175.5866 63.3073 174.8042 60.9601 174.4689 60.7365 173.6865 60.513 170.8922 60.513 166.8684 60.9601 165.6389 60.6248 164.7448 60.0659 163.18 58.7246 162.0623 58.054 159.3798 56.9363 157.0326 55.2597 157.3679 54.0303 157.9267 52.5772 158.262 50.4536 158.262 49.3359 158.1503 47.7711 157.7032 46.5416 156.809 45.6474 156.6972 45.5356 158.5974 45.4239 160.6092 45.5356 162.2858 45.3121 164.2977 43.8591 165.7507 41.959 166.6449 39.5 166.7567 38.1587 167.4273 37.7117 168.2097 37.1528 168.3215 37.1528 169.5509 36.5939 170.7804 35.3645 171.3393 34.3585 171.5628 33.7997 171.2275 31.1172 171.2275 29.4406 172.3452 27.5405 173.3512 26.311 174.0218 25.1933 174.0218 24.1873 173.4629 23.5167 172.7923 23.0696 172.3452 22.8461 172.1217 22.399 172.3452 22.0637 173.2394 21.6166 174.4689 20.6107 175.1395 20.0518 175.0277 19.493 174.4689 19.0459 173.0158 18.5988 172.3452 18.3752 171.6746 18.0399 171.5628 17.3693 172.2334 16.3634 172.457 16.0281 172.6805 15.581 172.6805 14.9103 172.1217 13.5691 172.0099 12.1161 172.2334 11.3337 172.457 10.8866 173.2394 10.7748 174.8042 10.8866 174.916 10.663 175.2513 10.7748 179.8339 15.2457 182.2928 16.6987 185.646 17.1458 186.9872 16.6987 188.4403 11.1101 188.9991 9.9924 191.1228 10.7748 191.3463 10.4395 191.5699 9.9924 191.5699 8.9865 192.3523 8.8747 194.0288 8.0923 194.6994 6.8628 195.0348 5.6333 195.8172 4.7392 198.4997 4.4039 198.6114 4.4039 198.7232 4.4039 201.4057 5.1862 216.6066 12.2278 219.2891 12.8985 222.0834 12.4514 224.7659 11.4454 227.4484 10.9983 232.8134 13.3455 237.0607 13.0102 239.1844 13.3455 239.7432 13.6809 240.6374 14.2397 242.0904 16.3634 242.9846 17.1458 244.2141 17.3693 245.1083 17.034 245.6671 17.4811 247.2319 17.5928 248.1261 17.034 248.7967 15.9163 250.9204 15.6927 251.1439 15.8045 251.2557 15.6927 253.044 15.581 254.2735 15.6927 254.3853 15.8045 254.3853 15.6927 255.9501 15.9163 257.9619 16.9222 258.5208 19.1576 257.0678 27.4287 257.5149 31.2289 258.8561 33.7997 261.0915 35.3645 264.4447 36.5939 266.3448 38.3823 265.6741 41.1766 262.7681 46.6534 262.8799 48.6652 263.774 51.6831 264.8917 54.5891 266.1212 56.1539 268.5802 56.601 270.8156 55.7068 273.1628 55.2597 278.7514 58.8364 281.3221 59.2835 283.8928 59.2835 286.6871 59.9541 287.6931 60.8483 289.1461 63.3073 290.2638 64.0897 292.2757 64.425 294.1758 64.0897 296.0759 64.0897 297.976 65.3191 299.6526 67.5546 301.6645 69.5664 303.8999 71.243 306.2471 72.4725 312.2827 74.3726 314.5182 75.6021 324.1305 87.6734 326.2541 89.2382 327.5954 89.1264 330.1661 88.344 331.3956 88.4558 332.8486 89.3499 332.9604 90.5794 332.2898 92.0325 331.9545 93.709 333.0722 96.168 340.6726 102.0919 343.0198 105.7803 344.3611 107.0098 345.9259 107.7922 347.3789 108.351 348.7201 109.2452 349.5025 110.9218 351.2909 113.6043 353.8616 112.5983 356.7677 110.4747 359.2266 109.4688 360.3443 110.0276 362.1327 112.1513 363.2504 112.9337 364.4799 113.0454 367.2741 112.7101 368.7272 112.9337 375.7688 119.1928 376.7747 120.6459 378.563 124.1108 379.7925 125.2285 381.6926 125.1167 382.3633 123.5519 382.6986 121.54 383.3692 119.9752 384.2634 119.6399 385.2693 119.3046 385.3811 119.5282 385.8282 119.1928 387.5047 118.7458 388.6224 118.634 389.8519 118.8575 389.9637 118.8575 390.6343 118.5222 393.5404 119.9752 394.8816 122.0989 395.1052 121.9871 395.2169 121.8754 395.5523 121.4283 395.9993 123.1048 396.3347 123.6637 397.3406 124.3343 399.4642 125.005 400.3584 125.5638 403.2645 128.5816 404.2704 130.4817 404.6057 132.6054 404.1586 133.8349 403.3762 134.6173 402.8174 135.5114 402.5938 137.2998 404.6057 140.3176 412.6532 138.641 416.0064 142.1059 416.3417 144.6767 416.0064 146.8003 416.2299 148.5887 420.0301 151.7183 420.3655 153.3948 420.1419 155.0714 420.8125 157.0833 422.2656 158.5363 423.8304 159.3187 425.1716 160.3246 426.2893 164.3484 427.6306 165.5779 431.0955 167.0309 433.3309 168.5957 434.5604 170.7194 435.6781 176.0844 435.9017 179.214 436.237 180.667 437.1311 181.7847 438.5842 182.4553 441.8255 182.9024 443.1668 184.0201 444.6198 184.9143 449.6495 185.8085 451.5496 185.9202 453.4497 185.1378Z" />
  <path class="Lumbini" d="M382.8103 315.3513L392.6462 313.5629 394.7699 314.1218 397.3406 315.1277 404.1586 321.2751 406.6176 322.7282 408.4059 323.287 411.7591 323.3988 413.4356 323.9576 416.1182 325.4107 417.6829 326.4166 418.8007 327.5343 419.6948 328.9873 420.8125 330.3286 422.8244 331.7816 424.501 332.3405 428.0777 332.564 430.5366 333.0111 432.2132 333.6817 433.5545 334.4641 439.3666 339.4938 440.149 340.388 440.3725 341.3939 439.9254 342.1763 440.149 343.8529 440.7078 345.3059 441.602 345.5295 442.4961 345.4177 443.6139 345.8648 445.4022 349.5532 443.5021 352.6828 439.5901 354.8065 435.0075 355.5889 431.319 354.5829 429.1954 354.4712 427.2953 355.5889 426.5129 357.489 427.7424 358.7185 429.7542 359.8362 431.5426 361.401 432.9956 359.8362 434.4486 359.6127 438.0253 360.2833 441.602 360.1715 443.6139 360.5068 445.2904 361.401 446.7435 361.2892 451.2143 362.9658 452.1085 362.7422 454.3439 361.5128 464.4033 361.401 467.4211 361.7363 469.5448 362.9658 473.0097 366.5425 474.798 367.5484 476.0275 367.5484 478.9336 366.4307 480.2748 366.0954 481.9514 366.3189 485.3045 367.1013 487.0928 367.3249 489.9989 366.5425 495.5875 363.4129 498.7171 363.0776 501.176 364.0835 505.6469 367.9955 508.1058 369.4485 513.4708 370.678 524.648 370.7898 530.013 371.9075 532.2484 373.137 532.919 374.59 533.0308 376.3783 533.3661 378.7255 534.0367 379.8432 535.7133 380.9609 536.0486 382.0787 536.1604 383.4199 536.6075 384.0905 537.5017 384.4259 538.6194 384.5376 540.0724 383.7552 541.5254 382.1904 543.202 380.8492 545.4374 380.6256 546.6669 381.8551 548.1199 384.2023 549.2376 386.773 549.6847 388.4496 549.2376 390.4615 548.0081 392.0263 544.5432 394.1499 541.0783 392.9205 537.9487 394.4853 534.7074 396.9442 531.3542 398.1737 529.3424 397.9502 527.7776 397.6149 526.4363 397.5031 524.8715 398.1737 522.5243 401.5268 520.9595 402.7563 518.9476 401.8622 516.0416 405.2153 511.0119 413.7099 509.4471 415.4982 505.1998 412.4804 502.629 414.157 499.8348 414.3805 491.4519 413.2628 489.9989 413.2628 488.8812 413.4864 487.987 414.4923 487.2046 415.7218 487.3164 416.8395 488.4341 417.2866 491.1166 417.2866 491.5637 417.9572 490.1107 419.7455 489.2165 421.3103 489.2165 422.8751 489.3283 424.5517 488.8812 426.0047 486.9811 427.6813 486.8693 427.6813 484.075 428.5755 478.2629 428.9108 475.804 429.9167 476.9217 432.1521 480.4983 436.1759 480.8337 437.5172 481.2807 438.9702 481.2807 440.0879 480.0513 440.535 479.2689 441.0938 478.3747 442.4351 478.2629 442.3233 477.5923 441.5409 471.7802 439.529 454.5674 430.1403 445.4022 426.7871 431.7661 424.887 420.0301 424.7752 416.7888 426.0047 416.1182 427.346 415.8946 429.0226 416.1182 430.6991 418.0183 433.2699 417.7947 434.9464 417.0123 436.7348 414.3298 440.7585 412.2062 442.8822 409.7472 444.2234 406.9529 444.447 404.1586 443.441 402.8174 441.988 402.035 439.9761 400.582 437.2936 399.1289 435.6171 392.8697 430.3638 388.2871 428.4637 372.9745 428.5755 365.1505 426.6754 359.3384 423.434 356.2088 422.4281 340.7844 421.3103 337.9901 418.069 336.6488 412.704 335.4194 402.1975 333.8546 396.8325 331.7309 393.2558 330.9485 392.9205 331.2838 391.691 332.178 388.5614 332.9604 386.8848 333.4075 386.1024 334.0781 385.32 334.9723 384.6494 336.3135 383.9788 338.6607 383.1964 340.5608 382.9728 346.82 383.5317 352.185 381.7433 349.3908 378.7255 343.5787 376.043 342.0139 374.9253 342.3492 374.0311 342.5727 373.4723 346.9318 368.7779 352.5204 363.86 355.5382 362.9658 358.4442 363.5246 360.009 363.6364 361.5738 363.4129 363.1386 362.854 366.8271 360.6186 370.8508 359.1656 371.6332 358.6067 372.0803 357.7125 371.745 356.1477 371.4097 355.3653 370.5155 354.4712 369.5096 353.6888 368.6154 352.3475 368.2801 350.1121 369.3978 345.6413 370.0684 341.841 371.6332 336.9231 374.9864 334.0171 375.8805 333.0111 376.5512 331.7816 376.3276 330.1051 375.7688 328.7638 373.4216 325.6342 372.9745 324.1812 373.0862 322.8399 373.9804 321.3869 375.657 319.9339 381.2455 317.2514 382.8103 315.3513Z" />
  <path class="Mahakali" d="M132.5547 60.6248L129.8722 62.5249 127.9721 64.425 124.2836 69.79 122.607 73.0314 122.0482 74.8197 122.16 75.8256 122.7188 76.2727 123.613 76.9433 124.6189 77.8375 125.4013 78.9552 125.9602 80.2965 126.2955 81.7495 126.7426 85.3262 128.8662 93.3737 128.978 98.1799 128.1956 100.5271 126.7426 102.0919 125.1778 102.6507 122.3835 102.8743 121.6011 103.0978 117.6891 105.3332 116.4596 105.6685 115.4537 105.7803 114.336 105.7803 113.1065 105.7803 108.4121 106.898 104.7237 108.4628 102.2647 110.4747 100.4763 111.1453 99.0233 111.3689 96.8997 111.0336 95.2231 111.4806 92.0935 114.0514 91.6464 114.8338 91.3111 116.0633 91.5347 116.9574 92.2053 118.2987 92.7641 119.9752 93.0994 122.2107 93.0994 125.452 92.6524 127.2404 91.7582 128.5816 90.5287 129.8111 89.5228 132.0465 89.7463 133.3878 91.0876 134.3937 94.6642 135.2879 97.3468 135.6232 98.1292 135.8468 98.5762 136.2938 98.9116 136.5174 101.5941 140.3176 107.7415 146.465 103.8295 151.6065 99.8057 153.8419 94.4407 155.6303 92.6524 157.4186 90.864 162.0012 89.1875 164.9073 88.2933 167.0309 87.8462 169.0428 87.6227 170.9429 86.7285 173.7372 85.3872 176.0844 82.9283 179.3257 81.3635 180.8905 79.5751 182.0083 73.5395 183.9084 71.3041 185.1378 67.9509 188.3792 66.7215 190.1675 66.0508 192.0677 65.8273 193.1854 64.9331 194.1913 64.486 195.0855 64.0389 198.8857 62.2506 200.8976 61.4682 202.9095 60.6858 205.9273 58.6739 209.951 59.9034 217.8868 59.121 228.5051 59.2328 230.2934 59.5681 231.8582 59.7916 232.7524 60.4623 233.9818 62.2506 236.8879 62.9212 238.4527 63.8154 241.247 64.0389 243.0353 63.9272 253.43 63.9272 253.6536 63.9272 253.7653 61.8035 253.6536 59.2328 254.9948 58.0033 257.0067 57.668 259.4657 58.7857 268.5191 58.1151 270.4193 55.6561 269.078 50.4029 262.5953 48.1674 261.254 45.5967 261.1422 43.2495 261.8129 40.7905 262.1482 38.3316 261.1422 36.8785 259.3539 33.5254 252.3123 32.5195 251.4182 30.284 250.8593 29.2781 250.4122 28.2722 249.2945 27.0427 247.0591 26.2603 246.1649 24.1366 244.8237 19.7776 244.0413 17.4304 243.2589 15.642 241.8058 11.3947 236.2173 7.371 233.7583 6.2532 233.5348 4.0178 233.0877 1.6706 231.2993 1 225.4872 1 222.5812 1.4471 220.0105 2.2295 217.6633 3.7943 215.3161 5.6944 213.7513 7.818 212.6336 9.6064 211.2923 10.6123 208.8333 10.277 204.1389 11.2829 197.768 13.7419 192.2912 17.5421 190.3911 19.6658 190.7264 22.3483 190.7264 24.6955 190.0558 26.2603 188.1557 25.925 185.9202 23.8013 179.9964 24.4719 177.8727 26.5956 177.5374 28.1604 178.8787 29.3899 179.1022 31.9606 169.7134 32.5195 166.3603 32.1842 163.6778 31.1782 162.8954 30.0605 163.0072 29.0546 162.7836 28.2722 161.3306 27.378 155.5185 24.8073 150.8241 23.8013 148.3651 24.3602 145.9062 25.7014 144.9002 29.2781 143.6707 30.0605 142.3295 30.3958 140.5411 31.29 139.5352 32.4077 138.7528 33.5254 137.2998 36.0961 135.2879 37.1021 134.1702 37.9963 132.9407 38.108 132.1583 37.7727 131.3759 37.5492 130.4817 37.9963 129.4758 38.6669 128.9169 40.2317 128.1345 41.0141 127.5757 43.8084 124.4461 45.2614 121.4283 45.4849 118.2987 44.2554 114.4985 42.5789 110.6982 41.4612 107.1216 41.3494 103.4331 43.2495 99.4094 46.4909 96.7268 53.9795 94.715 56.662 92.4795 63.033 84.432 65.8273 79.9612 67.3921 74.7079 68.5098 72.249 70.4099 71.243 74.8807 70.5724 77.2279 69.9018 78.7927 68.784 82.0341 65.7662 86.505 62.6366 87.7344 61.2954 91.5347 55.2597 93.2112 53.4714 100.8117 47.6593 103.2706 43.8591 101.5941 40.0589 103.3824 38.3823 105.5061 35.6998 107.5179 34.2468 108.7474 36.0351 109.9769 38.6058 112.1006 39.0529 120.4834 36.2586 121.4893 36.1469 122.8306 37.3763 124.3954 39.7235 125.8484 42.5178 127.4132 47.2122 130.3193 52.0184 131.3252 54.2538 132.5547 60.6248Z" />
  <path class="Mechi" d="M952.0609 573.3191L951.5021 571.419 951.2785 569.2954 951.6139 538.8936 954.2964 527.1576 954.2964 524.9222 954.0728 523.9163 952.1727 520.2278 946.0253 511.7332 945.8018 511.6215 940.8838 509.6096 938.7602 508.3801 937.6425 507.2624 936.6365 505.5858 933.8422 497.4265 931.048 493.5145 933.5069 491.1673 939.4308 483.7904 946.3606 476.5253 949.602 474.0663 951.055 473.2839 956.6436 471.3838 957.7613 470.7132 958.7672 469.9308 959.3261 468.8131 959.6614 467.6954 959.9967 466.2424 960.5556 465.2364 962.4557 463.4481 963.2381 462.5539 963.4616 461.7715 963.4616 460.8773 963.2381 459.9832 962.6792 459.089 960.7791 457.636 955.5259 455.6241 943.3428 450.5944 937.7542 449.4767 936.413 448.9178 935.5188 448.1354 928.0301 439.9761 927.2477 438.6349 926.8007 437.0701 926.9124 434.9464 927.2477 432.3757 928.2537 428.9108 929.4832 420.5279 930.9362 414.8276 931.9421 412.5922 933.2834 410.245 935.6306 407.1154 937.0836 404.5447 938.4249 400.7444 939.5426 395.7147 940.1014 394.597 941.1074 394.2617 942.0015 394.4853 942.7839 394.9323 943.5663 395.603 944.5723 396.0501 945.4664 396.0501 946.6959 395.2677 948.149 393.7029 950.1608 390.685 952.8433 384.9847 955.8612 376.4901 958.5437 377.6078 960.8909 377.3843 961.1144 377.3843 961.6733 377.3843 961.8968 377.2725 965.4735 375.4842 968.4913 372.8017 970.8385 369.4485 972.7386 365.5365 974.1916 363.3011 975.5329 363.0776 977.9919 364.4188 987.8277 364.8659 989.0572 365.313 991.7397 366.6542 993.3045 366.9895 994.8693 366.6542 998.2224 365.313 999.6755 365.2012 1002.5815 366.0954 1007.9465 369.1132 1010.7408 369.7838 1013.7586 370.4545 1015.4352 371.1251 1016.4411 371.9075 1016.7765 373.584 1015.2117 376.2666 1015.8823 381.9669 1014.541 385.5436 1012.7527 389.232 1009.7349 400.968 1002.0227 414.2688 998.8931 421.3103 998.6695 422.8751 998.8931 424.2164 999.4519 427.0107 999.7872 427.5695 1000.905 428.799 1001.1285 429.3579 1000.905 430.5873 1000.2343 431.3697 999.6755 432.0404 999.1166 433.0463 998.1107 436.1759 997.7754 437.7407 997.8871 439.7526 998.446 441.3174 1000.0108 443.9999 1000.3461 445.5647 999.5637 449.0296 996.5459 455.9594 994.6458 460.2067 994.0869 470.0426 992.2986 474.1781 992.075 475.2958 992.2986 476.4135 992.8574 477.5312 994.8693 479.4314 997.1047 484.4611 999.3402 485.9141 1001.2403 486.8083 1002.9168 488.373 1005.4876 492.0615 1008.0583 496.5323 1009.8466 501.4503 1010.9644 503.5739 1013.7586 507.933 1014.8763 510.0567 1015.3234 512.5156 1015.7705 518.5513 1016.8882 524.0281 1017 526.7106 1016.8882 529.3931 1016.3294 532.0756 1014.2057 538.223 1008.6172 549.2883 1006.8288 555.324 1005.9347 558.3418 1005.8229 559.6831 1006.1582 561.4714 1005.1523 567.1717 1001.4638 573.878 996.7694 578.9077 992.8574 579.3548 991.0691 577.6782 987.0453 575.2193 985.257 573.5427 984.4746 572.2014 983.6922 569.7425 983.1333 568.6248 982.798 568.7365 979.7802 566.2776 979.6684 565.7187 977.433 566.2776 973.6328 569.5189 971.5091 569.5189 969.2737 568.2894 967.1501 567.507 965.4735 568.1777 964.6911 571.0837 963.7969 573.2074 961.8968 574.2133 959.8849 573.878 958.2084 572.425 956.1965 571.3073 953.4022 572.3132 952.0609 573.3191Z" />
  <path class="Narayani" d="M548.1199 384.2023L549.9083 383.6435 554.1556 384.0905 554.7144 383.7552 554.4909 382.8611 553.932 382.3022 553.4849 381.8551 552.8143 380.8492 552.3672 379.5079 552.7025 377.2725 553.5967 376.1548 559.297 373.8076 566.0033 369.1132 568.574 366.9895 569.3564 366.6542 570.4741 366.4307 571.8154 366.6542 573.0449 366.9895 574.1626 367.5484 575.3921 368.4426 576.8451 370.1191 578.2981 372.4663 577.9628 373.3605 577.2922 375.1488 577.0686 375.9312 576.9569 376.7136 577.0686 377.6078 577.6275 378.7255 578.5217 380.1785 580.0865 382.414 580.5336 383.5317 580.5336 384.3141 579.9747 385.4318 580.0865 386.1024 580.6453 386.6613 582.6572 387.1084 591.8224 387.4437 593.1637 388.1143 594.0579 389.0085 594.6167 389.9026 596.1815 394.3735 604.0055 395.1559 605.5703 395.0441 607.5822 394.3735 610.2647 392.6969 613.059 391.9145 615.6297 391.691 619.0946 390.5733 620.4359 390.3497 629.0422 389.9026 630.7188 390.1262 632.8425 390.7968 639.2134 393.7029 645.2491 395.0441 646.5903 395.4912 647.3727 396.2736 647.9316 397.3913 649.6081 402.6446 650.6141 411.4745 650.8376 413.0393 651.2847 413.9334 651.8436 414.8276 652.4024 415.61 652.9613 416.3924 653.1848 417.2866 653.6319 420.5279 653.6319 420.7515 654.1908 422.0927 655.4202 423.5458 657.0968 424.9988 664.9208 429.4696 670.3976 430.4756 674.4213 431.1462 678.1098 432.2639 681.2394 433.9405 684.369 436.8465 678.5569 441.0938 676.545 443.441 676.3215 444.447 676.3215 445.6765 676.7685 446.9059 677.3274 447.8001 678.4451 448.6943 681.4629 450.2591 682.4689 451.0415 683.2513 451.7121 683.8101 452.3827 684.5925 453.724 685.2631 455.6241 685.9338 458.8655 686.0455 460.4303 685.822 461.6597 685.4867 462.2186 685.2631 463.001 685.0396 464.0069 684.7043 467.5836 683.8101 470.825 675.8744 481.8903 674.086 485.1317 673.5272 486.8083 673.3036 488.373 673.4154 489.4908 673.6389 490.7202 673.8625 491.5026 674.086 492.8439 674.3096 494.6322 674.086 497.0912 673.6389 498.656 672.9683 500.2208 668.8328 506.2564 666.9327 511.3979 665.815 515.8688 665.5914 518.663 665.815 524.3634 665.815 524.4751 665.4796 524.8105 663.4678 526.2635 659.1087 527.6047 657.3204 527.7165 645.6961 524.5869 642.1195 520.7867 642.1195 515.9805 641.6724 511.7332 636.7545 509.6096 633.9602 509.9449 626.9186 512.7392 623.6772 512.4039 623.4537 510.6155 623.6772 508.4919 621.5536 507.3741 619.877 507.1506 618.424 506.7035 615.5179 505.1387 614.4002 502.6798 613.7296 499.7737 611.9413 497.0912 609.147 495.4146 602.8878 493.4028 599.9817 491.6144 598.6405 489.379 596.6286 488.9319 594.6167 489.7143 592.9402 490.9438 591.4871 490.9438 576.5098 486.92 574.8332 485.6905 574.1626 482.7845 575.2803 479.5431 577.0686 476.3018 578.2981 473.2839 578.9688 467.6954 578.6334 462.3304 577.5157 457.0771 575.5039 451.9356 572.2625 447.2413 568.574 444.6705 532.6955 438.076 530.013 436.2877 527.6658 432.9345 526.4363 430.3638 524.7597 429.0226 520.9595 429.6932 519.73 429.2461 518.3888 425.893 517.2711 424.5517 514.2532 423.3222 512.912 422.5398 511.6825 421.3103 511.2354 418.7396 509 418.2925 506.541 419.2985 500.1701 427.1224 497.4876 429.0226 493.5756 429.1343 488.5459 428.2402 486.9811 427.6813 486.8693 427.6813 486.9811 427.6813 488.8812 426.0047 489.3283 424.5517 489.2165 422.8751 489.2165 421.3103 490.1107 419.7455 491.5637 417.9572 491.1166 417.2866 488.4341 417.2866 487.3164 416.8395 487.2046 415.7218 487.987 414.4923 488.8812 413.4864 489.9989 413.2628 491.4519 413.2628 499.8348 414.3805 502.629 414.157 505.1998 412.4804 509.4471 415.4982 511.0119 413.7099 516.0416 405.2153 518.9476 401.8622 520.9595 402.7563 522.5243 401.5268 524.8715 398.1737 526.4363 397.5031 527.7776 397.6149 529.3424 397.9502 531.3542 398.1737 534.7074 396.9442 537.9487 394.4853 541.0783 392.9205 544.5432 394.1499 548.0081 392.0263 549.2376 390.4615 549.6847 388.4496 549.2376 386.773 548.1199 384.2023Z" />
  <path class="Rapti" d="M317.7595 210.1746L325.0246 212.41 326.7012 213.3042 328.8249 215.2043 333.631 220.234 334.3017 221.3517 334.637 223.2518 334.637 225.3755 334.637 227.2756 334.7487 228.7286 335.5311 229.9581 341.455 233.9818 343.2433 234.6525 345.367 234.3172 346.7083 233.7583 348.273 233.6465 354.7558 234.2054 362.3562 233.6465 364.1446 233.9818 366.7153 234.9878 385.2693 244.3766 390.1872 245.4943 389.6284 249.518 388.1754 252.4241 384.1516 258.2362 377.4453 261.1422 370.8508 263.0424 367.833 264.3836 366.4917 265.5013 366.8271 266.5073 368.1683 268.2956 368.6154 269.3015 368.6154 270.4193 368.0565 271.8723 367.0506 272.3194 365.7094 272.3194 364.1446 272.4311 362.2444 273.2135 360.009 275.3372 359.3384 276.7902 359.3384 277.9079 360.9032 279.2492 357.8854 283.8318 358.6678 285.2848 359.8972 286.2908 361.3503 289.7557 362.3562 291.0969 364.0328 292.5499 364.927 293.6677 366.2682 297.5796 377.7806 306.5213 380.5749 309.2039 382.2515 311.551 382.8103 315.3513 381.2455 317.2514 375.657 319.9339 373.9804 321.3869 373.0862 322.8399 372.9745 324.1812 373.4216 325.6342 375.7688 328.7638 376.3276 330.1051 376.5512 331.7816 375.8805 333.0111 374.9864 334.0171 371.6332 336.9231 370.0684 341.841 369.3978 345.6413 368.2801 350.1121 368.6154 352.3475 369.5096 353.6888 370.5155 354.4712 371.4097 355.3653 371.745 356.1477 372.0803 357.7125 371.6332 358.6067 370.8508 359.1656 366.8271 360.6186 363.1386 362.854 361.5738 363.4129 360.009 363.6364 358.4442 363.5246 355.5382 362.9658 352.5204 363.86 346.9318 368.7779 342.5727 373.4723 342.3492 374.0311 342.0139 374.9253 343.5787 376.043 349.3908 378.7255 352.185 381.7433 346.82 383.5317 340.5608 382.9728 338.6607 383.1964 336.3135 383.9788 334.9723 384.6494 334.0781 385.32 333.4075 386.1024 332.9604 386.8848 332.178 388.5614 331.2838 391.691 330.9485 392.9205 328.266 391.9145 312.5063 395.9383 301.888 397.1678 297.0818 395.7147 290.2638 388.7849 280.6515 383.9788 265.6741 371.5722 260.3091 369.3367 258.1855 368.1073 255.8383 365.6483 253.2675 363.5246 253.1558 363.4129 253.8264 361.8481 257.6266 358.0479 258.1855 357.7125 258.9679 357.3772 259.5267 357.3772 261.8739 357.7125 262.9916 357.6008 265.5624 357.1537 266.9036 356.5948 267.5743 356.036 268.3567 355.3653 268.8037 354.6947 269.1391 354.0241 269.2508 353.2417 269.4744 350.2239 269.3626 347.8767 268.8037 346.0883 267.7978 344.3 262.0975 339.1585 261.0915 338.4879 259.9738 338.2644 258.9679 338.1526 257.8502 337.929 257.0678 337.1466 254.9441 334.3524 253.8264 333.3464 250.0262 330.2168 249.0202 328.9873 248.4614 327.5343 248.6849 326.1931 250.3615 323.5106 252.1498 318.4809 258.7443 314.9042 255.9501 310.4333 254.6088 307.3037 252.0381 304.3977 244.4376 301.1563 243.6552 299.9268 243.6552 294.6736 243.2081 292.997 242.5375 291.7675 241.7551 290.8734 241.308 289.6439 241.5316 288.638 242.314 287.5202 243.5435 286.8496 246.5613 285.6201 247.2319 285.173 248.0143 284.3906 248.7967 282.8259 249.2438 280.9257 249.132 277.9079 248.5732 275.7843 246.673 271.4252 246.4495 270.1957 247.0084 268.0721 247.9025 265.9484 252.3734 260.4716 257.9619 262.8188 259.6385 263.1541 261.4268 263.3777 266.9036 263.2659 270.0332 261.4776 272.604 256.3361 273.3864 255.2184 274.1688 254.3242 276.4042 252.9829 277.969 251.6417 280.5397 249.071 285.1223 242.2529 286.4636 240.9117 293.7287 236.4408 307.3648 225.599 308.8178 223.6989 309.9355 221.1282 310.4944 219.1163 312.0592 215.4278 317.7595 210.1746Z" />
  <path class="Sagarmatha" d="M764.5089 546.6058L764.7325 546.1587 770.5446 533.6404 770.9916 532.4109 771.1034 531.0696 770.6563 529.3931 769.9857 528.1636 767.7503 524.6987 766.9679 523.1339 766.409 521.5691 766.0737 520.1161 765.9619 518.663 765.9619 511.6215 765.6266 509.8331 764.6207 506.9271 764.5089 506.1447 764.5089 505.1387 764.8442 504.2446 765.4031 503.2386 767.0796 501.2267 768.1974 500.6679 769.3151 500.6679 772.5564 502.1209 774.233 502.568 775.4625 502.6798 778.3685 501.562 782.057 496.3088 785.2983 494.0734 790.5516 492.5086 791.334 491.2791 791.7811 489.2672 791.6693 485.1317 790.7751 480.9961 789.7692 477.5312 789.0986 476.7488 788.5397 476.19 787.8691 475.6311 787.5338 474.9605 787.5338 474.1781 790.9987 471.1603 794.7989 466.5777 795.4695 465.2364 795.1342 464.7893 794.5754 464.2305 790.6634 461.8833 790.1045 461.3244 789.2103 460.3185 788.4279 459.089 787.3102 458.3066 785.5219 457.7477 781.4981 456.8536 774.4565 456.9653 772.4447 456.4065 772.4447 455.5123 775.686 449.9238 776.2449 447.6883 776.5802 445.9 776.4684 444.6705 775.2389 441.6527 775.0154 440.6468 775.1272 439.4173 775.3507 438.1878 776.4684 435.0582 778.5921 430.252 780.4922 427.4578 791.6693 417.063 797.8167 410.0215 799.7168 408.6802 803.7406 404.5447 804.6348 404.0976 805.8642 403.6505 808.435 403.2034 811.4528 402.1975 813.0176 401.0798 814.3589 399.1796 815.7001 396.2736 816.9296 392.1381 817.9355 390.1262 818.8297 388.6732 819.3886 387.6672 819.8356 386.1024 819.5003 383.867 819.3886 380.9609 818.2708 376.9372 817.6002 369.7838 817.6002 365.9836 816.7061 362.2952 813.0176 356.4831 810.8939 354.2476 810.8939 354.0241 810.7822 353.2417 810.7822 353.1299 810.7822 350.8945 810.6704 349.4415 810.8939 349.1062 812.2352 347.0943 812.5705 346.2001 812.5705 345.3059 813.4647 343.4058 813.4647 343.1823 814.3589 343.1823 815.7001 342.847 816.1472 341.841 816.5943 339.9409 816.5943 338.5997 816.5943 337.8173 816.5943 336.0289 817.0414 335.1348 817.3767 335.023 819.0532 336.2525 820.7298 337.8173 822.7417 338.7114 824.4183 338.3761 825.9831 338.7114 828.1067 338.2644 828.3303 337.929 828.442 337.8173 828.5538 336.9231 828.7773 336.5878 829.6715 336.2525 832.0187 335.4701 833.5835 336.1407 835.8189 337.5937 837.6073 339.2703 838.1661 340.9469 837.6073 345.1942 838.6132 347.0943 842.4134 348.4355 851.1316 347.9884 854.5965 350.7827 854.5965 350.8945 855.7142 354.2476 857.7261 356.5948 860.4086 357.8243 863.6499 358.1596 867.3384 357.489 868.9032 357.0419 868.9032 357.2655 868.5679 366.2072 869.9091 372.4663 870.8033 375.3724 871.0268 376.7136 871.0268 377.496 870.3562 380.2903 870.1327 383.5317 871.1386 389.3438 871.1386 391.3557 870.9151 392.6969 868.5679 400.968 866.2207 415.1629 865.6618 417.063 864.4323 422.7634 863.9853 424.2164 862.5322 425.893 860.2968 428.4637 859.8497 429.2461 859.4026 431.3697 860.8557 436.5112 865.7736 445.0058 866.2207 447.353 866.1089 449.2531 865.7736 450.1473 865.103 451.0415 864.2088 451.6003 863.0911 452.0474 862.0851 452.6063 861.4145 453.3887 861.0792 455.6241 861.7498 461.8833 861.6381 464.3422 860.6321 472.9486 860.9674 474.9605 861.6381 476.7488 864.097 479.3196 865.3265 480.9961 865.8854 482.6727 867.0031 504.021 871.1386 504.6916 886.0042 501.2267 890.3633 501.115 892.4869 501.8974 893.0458 504.4681 892.3751 507.2624 891.9281 508.2683 891.1457 511.1744 891.0339 512.0685 890.3633 513.7451 888.5749 515.1981 885.11 517.3218 876.3919 526.5988 873.5976 527.8283 871.5857 529.6166 868.7914 541.3526 867.0031 544.3704 866.3325 546.1587 866.6678 547.5 867.1149 548.5059 867.3384 550.0707 867.3384 551.6355 867.1149 552.865 866.1089 554.318 863.4264 556.777 862.9793 557.8947 859.5144 559.1242 855.6024 561.4714 854.3729 564.601 851.914 567.3953 848.8961 569.4072 845.6548 570.3013 844.5371 570.0778 840.0662 568.4012 838.3897 568.6248 837.4955 569.966 836.6013 571.6426 835.3718 572.6485 833.0246 572.2014 824.3065 566.8364 815.9237 563.0362 813.4647 561.4714 813.3529 561.4714 811.6763 559.4595 809.9998 558.0065 807.9879 556.8888 805.6407 556.3299 801.8405 554.7651 794.1283 550.6296 790.4398 549.2883 789.3221 549.2883 786.6396 549.6237 785.7454 549.5119 784.8513 548.5059 784.7395 546.4941 783.8453 545.5999 781.7217 545.1528 779.0392 545.4881 774.3448 547.1647 771.5505 548.953 770.6563 549.1766 769.4268 548.953 768.6444 548.3942 768.0856 547.7235 767.1914 547.2765 765.2913 546.7176 764.5089 546.6058Z" />
  <path class="Seti" d="M157.0326 55.2597L159.3798 56.9363 162.0623 58.054 163.18 58.7246 164.7448 60.0659 165.6389 60.6248 166.8684 60.9601 170.8922 60.513 173.6865 60.513 174.4689 60.7365 174.8042 60.9601 175.5866 63.3073 176.8161 65.9898 177.4867 66.8839 177.9338 67.7781 178.4926 69.1194 178.7162 70.4606 178.6044 72.0254 178.2691 74.8197 178.3809 76.0492 178.9397 77.1669 181.5105 79.1788 182.7399 79.8494 183.6341 80.0729 184.3047 80.0729 185.0871 79.5141 188.2167 74.8197 190.7875 73.2549 192.2405 72.9196 193.6935 72.696 202.9705 72.4725 205.2059 72.9196 206.7707 73.4784 208.3355 74.7079 210.4592 75.6021 215.2653 76.608 216.9419 77.1669 218.1714 78.1728 218.7303 79.5141 218.842 81.1906 218.6185 82.3084 218.0596 83.4261 217.389 84.3202 216.3831 85.2144 214.7065 86.5557 214.0359 87.3381 213.5888 88.4558 213.2535 90.2441 213.0299 94.8267 212.4711 98.4034 209.0062 109.5805 208.8944 110.81 209.0062 112.4866 209.7886 115.0573 211.018 116.7339 212.4711 118.0751 214.0359 119.1928 216.0477 120.1988 216.7184 120.3106 219.1773 120.9812 219.848 121.8754 220.295 123.2166 220.4068 126.2344 220.295 128.4699 219.5127 131.4877 217.5008 133.4996 212.5828 136.8527 211.2416 138.7528 210.4592 141.1 210.1239 143.8943 210.0121 147.2474 210.571 150.6006 211.8004 153.2831 213.1417 155.6303 212.3593 158.201 208.0002 159.5422 205.8766 159.8776 204.3118 159.7658 202.9705 159.2069 199.8409 156.3009 198.9468 155.742 197.9408 155.5185 195.5936 155.6303 193.8053 155.8538 188.6638 157.5304 186.7637 158.9834 182.8517 162.8954 181.734 164.4602 181.1751 165.8014 181.2869 167.2545 181.734 168.7075 182.7399 171.0547 181.734 179.7728 182.0693 182.12 182.6282 183.9084 183.5223 184.6908 187.2108 187.038 188.8873 188.3792 190.5639 190.0558 182.2928 196.2032 180.5045 196.762 179.1633 197.8798 173.2394 204.586 172.9041 207.6039 173.7982 210.7334 175.363 213.3042 177.0396 214.3101 183.5223 224.146 187.9932 229.0639 189.6697 231.97 190.4521 235.3231 191.4581 237.5585 193.1347 239.2351 193.47 240.9117 190.4521 242.7 188.3285 243.5942 187.3226 243.8177 186.0931 243.7059 186.0931 242.7 187.6579 241.4705 187.4343 240.6881 186.0931 239.7939 186.5402 235.3231 181.1751 229.0639 179.275 225.0402 177.2631 222.4694 175.1395 221.7988 164.1859 223.14 162.9564 222.693 160.0504 220.7928 158.7091 220.234 156.0266 220.0105 147.9791 221.1282 145.4084 220.4575 138.9256 215.3161 133.8959 212.7453 131.3252 211.8512 128.7545 211.4041 126.4073 212.0747 123.7248 213.6395 121.7129 215.5396 121.0422 217.3279 127.1897 223.8107 131.7723 227.6109 133.8959 228.8404 135.5725 228.3933 137.2491 227.3873 138.9256 227.052 140.4904 228.5051 142.167 232.3053 143.2847 231.97 148.3144 234.876 147.8673 233.0877 146.3025 229.8463 145.7437 228.058 147.532 229.0639 149.2086 230.6287 150.4381 232.7524 151.2205 237.5585 152.5617 242.0294 156.5855 251.1946 157.0326 253.8771 156.6972 256.6714 155.9149 259.9128 154.7971 261.1422 153.903 262.3717 136.4667 281.4846 135.0136 282.7141 130.7663 285.2848 129.4251 287.1849 127.9721 292.6617 127.8603 295.0089 122.0482 293.8912 121.154 292.3264 120.9305 290.5381 120.4834 289.085 119.0304 288.1909 117.1303 288.8615 114.6713 288.7497 112.2123 288.3026 110.2004 287.632 107.8532 285.9554 107.2944 283.9436 107.0708 281.8199 106.0649 279.6963 104.2766 278.9139 99.1351 278.9139 96.8997 278.4668 94.776 277.1255 89.9699 272.0958 87.958 270.7546 84.046 269.6369 81.9223 268.6309 80.5811 266.9543 78.1221 262.26 76.5573 261.0305 71.8629 260.2481 69.7393 259.4657 67.5039 258.348 66.7215 257.2303 66.7215 255.889 66.945 254.6595 66.6097 253.7653 63.9272 253.7653 63.9272 253.6536 63.9272 253.43 64.0389 243.0353 63.8154 241.247 62.9212 238.4527 62.2506 236.8879 60.4623 233.9818 59.7916 232.7524 59.5681 231.8582 59.2328 230.2934 59.121 228.5051 59.9034 217.8868 58.6739 209.951 60.6858 205.9273 61.4682 202.9095 62.2506 200.8976 64.0389 198.8857 64.486 195.0855 64.9331 194.1913 65.8273 193.1854 66.0508 192.0677 66.7215 190.1675 67.9509 188.3792 71.3041 185.1378 73.5395 183.9084 79.5751 182.0083 81.3635 180.8905 82.9283 179.3257 85.3872 176.0844 86.7285 173.7372 87.6227 170.9429 87.8462 169.0428 88.2933 167.0309 89.1875 164.9073 90.864 162.0012 92.6524 157.4186 94.4407 155.6303 99.8057 153.8419 103.8295 151.6065 107.7415 146.465 101.5941 140.3176 98.9116 136.5174 98.5762 136.2938 98.1292 135.8468 97.3468 135.6232 94.6642 135.2879 91.0876 134.3937 89.7463 133.3878 89.5228 132.0465 90.5287 129.8111 91.7582 128.5816 92.6524 127.2404 93.0994 125.452 93.0994 122.2107 92.7641 119.9752 92.2053 118.2987 91.5347 116.9574 91.3111 116.0633 91.6464 114.8338 92.0935 114.0514 95.2231 111.4806 96.8997 111.0336 99.0233 111.3689 100.4763 111.1453 102.2647 110.4747 104.7237 108.4628 108.4121 106.898 113.1065 105.7803 114.336 105.7803 115.4537 105.7803 116.4596 105.6685 117.6891 105.3332 121.6011 103.0978 122.3835 102.8743 125.1778 102.6507 126.7426 102.0919 128.1956 100.5271 128.978 98.1799 128.8662 93.3737 126.7426 85.3262 126.2955 81.7495 125.9602 80.2965 125.4013 78.9552 124.6189 77.8375 123.613 76.9433 122.7188 76.2727 122.16 75.8256 122.0482 74.8197 122.607 73.0314 124.2836 69.79 127.9721 64.425 129.8722 62.5249 132.5547 60.6248 132.5547 60.8483 134.2312 62.1895 137.5844 61.2954 140.4904 61.2954 146.3025 63.9779 149.0968 63.419 150.4381 61.4072 150.3263 59.8424 156.0266 57.0481 156.3619 56.601 157.0326 55.3715 157.0326 55.2597Z" />
</svg>