<?xml version="1.0" encoding="utf-8"?>
<svg xmlns="http://www.w3.org/2000/svg" viewBox="0 0 1021 832" style="stroke-width:0.25px;stroke-linejoin:round;stroke:#444;fill:#ddd" fill-rule="evenodd">
  <path class="Hovedstaden" d="M1017 686.5421L1016.3294 687.7716 1016.1058 688.6658 1015.7705 689.3364 1015.0999 690.007 1016.1058 693.6955 1016.5529 696.0427 1016.1058 698.1663 1014.541 701.1842 1011.5232 706.3256 1010.629 708.7846 1011.1879 710.9083 1011.1879 712.473 1011.5232 715.4909 1009.2878 718.0616 1007.723 720.1853 1005.7111 722.0854 998.6695 720.1853 992.7457 719.7382 984.8099 716.6086 974.8623 710.4612 963.6851 707.2198 951.9492 697.6075 949.8255 694.5897 951.6139 689.2246 952.2845 678.6064 952.8433 663.182 953.4022 660.6112 954.6317 657.9287 957.426 652.899 958.5437 649.0988 959.5496 644.7397 960.7791 642.0572 962.791 643.3985 968.6031 651.8931 970.615 654.1285 973.8563 657.4816 979.2213 661.2818 984.6981 665.7527 988.7219 664.8585 991.4044 665.6409 993.7516 670.6706 995.3164 672.5707 997.1047 673.8002 1007.3877 681.1771 1014.2057 683.4125 1017 686.5421ZM651.9553 545.8222L660.3382 566.8352 660.4499 567.9529 655.4202 573.765 653.1848 574.4356 650.5023 576.1122 648.1551 578.1241 646.5903 580.0242 643.4607 580.9184 640.3311 576.1122 638.3193 569.0706 638.2075 563.3703 639.7723 560.1289 641.6724 558.0053 643.4607 556.3287 645.0255 554.5404 646.5903 551.299 649.0493 544.9281 650.9494 542.4691 651.5083 544.0339 651.7318 544.7045 651.9553 545.8222ZM559.4088 537.3276L552.479 533.0803 550.2436 532.4097 550.02 532.6332 549.7965 533.3039 548.0081 534.198 542.5314 534.5333 542.3078 534.5333 542.5314 534.4216 542.196 532.5215 540.8548 529.2801 540.5195 528.3859 540.9666 525.3681 542.0843 521.6796 544.4315 515.9793 546.6669 513.6321 551.6966 512.1791 554.2673 510.7261 556.6145 503.4609 553.7085 495.0781 550.2436 487.5894 551.3613 482.6715 553.932 482.895 558.9617 488.2601 561.6442 489.7131 563.0972 490.8308 562.9855 493.4015 562.4266 496.3076 562.2031 498.3195 562.7619 501.5608 563.3208 502.6785 563.9914 503.4609 565.1091 505.4728 567.7916 512.9615 570.3624 523.468 570.8095 533.4156 567.121 538.7806 561.8678 536.8805 559.4088 537.3276ZM615.0708 567.0587L608.9234 564.0409 603.782 563.4821 599.6464 564.1527 597.8581 562.8114 595.0638 564.488 592.2695 564.5998 587.7987 562.5879 587.6869 559.5701 587.0163 558.4524 586.681 557.1111 586.9045 555.3228 587.1281 554.3168 587.3516 553.5344 587.3516 552.9756 587.2398 552.305 587.1281 551.8579 586.0103 550.2931 591.04 546.2693 594.3932 544.9281 599.9817 540.7925 600.4288 539.6748 600.0935 539.0042 597.411 537.3276 596.8521 536.7688 596.5168 536.2099 596.1815 535.5393 595.958 534.0862 597.9699 532.1861 587.4634 530.3978 585.1162 528.0506 579.6394 522.5738 574.2744 522.5738 571.033 507.3729 571.033 498.3195 570.4741 494.631 567.121 480.8832 564.8856 477.3065 562.2031 475.9652 559.0735 476.1888 548.1199 480.6596 543.9844 481.442 541.5254 479.0948 543.9844 472.8356 551.473 466.4647 565.1091 457.8583 587.1281 439.0807 598.6405 432.598 610.6 433.0451 623.0066 440.3102 633.2895 440.3102 636.0838 441.7633 641.1135 446.3459 645.3608 448.246 652.8495 454.5052 650.9494 458.6407 645.0255 466.6882 642.9019 471.0473 638.9899 481.3303 637.0898 484.2363 637.0898 486.1364 641.1135 491.9485 643.1254 495.9723 644.0196 499.2136 644.6902 504.0198 646.255 509.7201 648.2669 514.7498 650.0552 517.8794 649.3846 520.3384 649.1611 523.8033 648.9375 529.1683 648.1551 533.6392 647.9316 535.3157 648.1551 536.5452 648.714 537.8865 650.0552 540.569 647.0374 544.481 641.2253 555.7699 635.7485 559.5701 634.8543 562.6997 633.5131 565.7175 630.2717 566.8352 627.9245 566.0528 626.248 564.5998 624.3479 563.4821 621.4418 563.3703 615.0708 567.0587Z" />
  <path class="Midtjylland" d="M228.6779 540.569L229.2367 537.7747 229.3485 535.4275 228.6779 533.3039 227.0013 531.7391 223.76 530.7331 219.0656 530.0625 217.5008 529.0565 217.2772 527.1564 217.5008 525.7034 218.1714 524.1386 218.6185 522.5738 217.8361 521.1208 215.1536 520.5619 210.0121 521.1208 207.7767 520.3384 205.7648 517.7677 202.0763 511.6202 198.835 507.7083 198.0526 505.3611 197.6055 503.4609 197.382 502.2315 196.2642 500.3314 188.9991 491.0543 185.3107 487.813 180.8398 485.0187 167.3155 480.4361 161.8387 481.6656 157.9267 489.7131 151.2205 498.2077 148.8733 500.2196 146.1908 501.002 144.9613 502.0079 143.62 503.4609 142.8376 504.8022 141.6081 508.0436 139.708 507.82 138.255 509.273 133.2253 509.8319 131.3252 508.2671 125.5131 500.7784 121.154 496.6429 114.1124 495.9723 108.8592 498.6548 106.6238 506.1435 105.1707 508.4906 105.9531 512.8497 105.9531 514.5263 103.6059 515.9793 98.9116 517.4323 96.4526 516.7617 86.3932 509.4966 81.6988 508.2671 80.134 508.4906 77.7868 509.4966 75.3278 510.0554 73.6513 509.7201 72.1982 509.1613 70.7452 508.1553 69.404 508.1553 68.1745 508.4906 67.1685 509.0495 66.3861 509.8319 66.4979 510.6143 67.1685 512.2909 67.5039 513.0733 67.3921 513.7439 67.0568 514.3028 59.7916 522.462 58.0033 524.4739 55.3208 525.0328 53.6442 524.5857 48.5028 521.3443 44.9261 519.6678 40.4552 516.5382 12.736 516.7617 6.9239 474.5122 6.2532 471.9415 5.8062 471.3826 5.6944 470.1531 5.8062 469.0354 6.2532 468.4766 7.1474 468.7001 7.4827 469.3707 7.7063 470.0414 8.1534 470.3767 9.0475 471.7179 12.6242 491.3897 15.3067 498.2077 15.642 501.1138 15.3067 503.5727 13.8537 507.0376 13.5184 509.9437 14.0772 513.4086 15.3067 514.191 21.7894 510.5025 28.6075 505.0257 31.8488 503.7963 37.5492 499.4372 43.2495 493.4015 44.0319 489.1542 43.1377 484.6834 41.1259 480.3243 38.7787 476.4123 33.4136 469.3707 33.4136 461.435 31.7371 452.158 28.0486 446.2341 23.1307 442.6574 11.9536 437.516 8.9358 437.1806 7.7063 439.3043 7.818 450.3696 7.5945 455.6229 6.7003 461.435 7.2592 465.6823 6.8121 467.3589 4.6884 466.6882 4.1296 465.347 3.459 462.6645 2.9001 459.5349 2.3413 440.8691 2.7883 435.057 6.2532 418.8502 6.7003 412.8145 5.0238 322.727 5.6944 318.3679 6.7003 313.897 13.1831 291.2075 16.0891 284.2777 18.2128 280.8128 19.1069 281.4834 19.6658 283.8306 21.007 285.1718 20.8953 286.9602 17.6539 295.4548 16.5362 297.802 16.5362 299.5903 17.4304 300.4845 18.4363 300.9316 21.007 301.2669 21.4541 302.3846 22.013 304.8436 22.7954 307.4143 24.0249 308.532 29.837 309.6497 31.5135 310.6557 29.3899 311.9969 29.9487 314.3441 29.5017 318.5914 30.3958 321.0504 31.6253 322.0563 32.743 321.3857 33.1901 319.5974 32.2959 317.4737 32.2959 315.6854 36.8785 314.1206 43.9201 314.0088 50.2911 315.2383 53.0854 318.3679 54.4266 318.815 61.4682 324.6271 63.4801 323.6211 65.3802 321.3857 66.945 318.4796 67.9509 315.6854 68.8451 315.6854 73.2042 327.9802 73.316 329.8803 72.7571 330.998 72.9806 333.457 73.9866 335.916 76.3338 337.8161 79.1281 341.5045 80.8046 342.6222 83.2636 342.5105 91.9817 340.6103 92.9877 340.1633 93.7701 338.822 94.2172 336.8101 94.4407 334.3512 94.4407 330.5509 94.6642 327.9802 95.5584 322.6152 96.1173 321.1622 96.8997 320.4915 97.235 319.7091 96.4526 317.4737 91.9817 313.897 90.5287 313.7853 89.5228 313.1146 88.8521 311.7734 88.6286 309.538 87.958 307.1908 85.499 305.8495 85.6108 303.167 87.5109 301.3787 94.1054 300.9316 103.3824 285.1718 105.5061 283.8306 111.4299 281.9305 119.3657 281.5952 119.701 281.0363 116.2361 279.695 109.9769 279.4715 108.5239 278.0185 109.8651 273.4359 111.877 269.3003 113.6653 267.0649 118.248 263.6 125.066 256.8937 127.6367 256.2231 129.3133 256.5584 131.884 257.8997 133.5606 258.235 135.2372 257.7879 136.1314 256.6702 136.802 255.4407 137.9197 254.4348 140.4904 254.323 143.8436 255.4407 146.6378 257.6761 147.8673 260.8057 148.7615 266.9531 150.7734 270.6416 153.1206 273.2123 154.7971 276.1184 156.6972 281.7069 152.7853 282.7129 148.538 289.5309 144.8495 290.5369 144.8495 292.437 145.4084 294.7842 143.8436 297.1314 139.9316 301.2669 138.5903 304.9553 138.4785 308.1967 139.0374 316.5795 140.1551 319.0385 142.5023 318.7032 144.8495 315.7971 146.7496 307.3025 148.8733 306.7437 151.444 307.1908 153.7912 306.7437 152.897 304.2847 151.6675 303.2788 150.3263 303.6141 148.8733 304.8436 149.991 301.9375 151.1087 299.9256 152.1146 297.6902 152.7853 294.1135 153.7912 294.1135 152.897 299.9256 156.6972 300.8198 161.8387 299.9256 165.0801 300.3727 166.9802 301.714 169.2156 301.2669 171.1157 301.4904 172.457 304.8436 172.0099 307.4143 168.7685 312.2205 167.4273 315.6854 168.9921 316.2442 169.3274 317.4737 169.4392 319.0385 170.3333 321.0504 171.7864 322.5034 175.363 324.6271 176.0337 325.633 176.369 327.086 176.9278 328.2037 178.3809 328.3155 180.3927 323.9564 181.2869 322.6152 183.2988 324.5153 185.0871 322.5034 185.0871 319.1503 181.8458 317.4737 177.3749 320.1562 177.0396 320.9386 176.4807 321.1622 174.916 321.0504 173.6865 320.268 173.5747 318.815 174.0218 317.5855 174.4689 317.4737 174.6924 307.7496 177.0396 299.3668 178.3809 291.9899 188.6638 297.1314 194.0288 300.0374 197.6055 294.1135 196.2642 290.4251 197.4937 287.8543 201.6293 288.1897 203.7529 290.5369 202.8587 296.796 206.8825 301.2669 223.2011 301.4904 225.9954 304.2847 222.3069 308.6438 221.301 314.3441 223.9835 315.2383 228.6779 312.6675 235.8312 320.8268 242.2022 319.1503 246.0024 321.2739 248.4614 321.8328 254.3853 320.8268 259.1914 315.1265 265.0035 311.7734 268.4684 310.7674 277.0748 309.7615 286.9107 303.5023 291.7168 296.6843 298.4231 290.9839 303.2293 285.6189 310.1591 286.9602 316.1947 286.6249 319.9949 284.2777 323.4598 282.9364 326.1424 288.7485 326.813 297.3549 324.354 304.8436 314.6299 312.3322 307.4766 320.3798 306.2471 321.0504 305.2411 329.545 304.6823 331.8922 305.8 334.7982 305.1294 338.5985 303.5646 342.0634 301.7762 344.187 306.2471 343.9635 307.8119 342.6222 307.7001 332.6746 308.1472 325.5212 309.6002 322.0563 315.6359 317.4737 320.442 310.991 322.901 309.3144 325.9188 311.2145 326.3659 312.8911 327.1483 318.4796 327.3718 320.1562 327.9307 320.9386 332.178 324.6271 343.0198 330.7745 354.7558 332.2275 388.9578 326.7507 393.7639 327.3096 398.4583 329.8803 400.582 332.451 405.2763 340.6103 414.218 349.6638 414.218 351.3404 410.8649 354.5817 409.0766 360.6174 408.2942 367.5472 408.1824 373.6946 406.6176 379.3949 393.3168 398.396 386.6106 403.0904 384.1516 406.5553 383.3692 410.0202 383.7045 418.0678 381.6926 426.0035 377.2218 426.8977 372.1921 423.2092 368.8389 417.1736 372.5274 416.6147 373.9804 415.1617 374.7628 411.9204 374.4275 408.4554 372.9745 407.3377 371.0744 407.0024 369.286 405.6612 365.8211 404.4317 362.2444 408.7908 359.0031 414.3793 354.4205 419.8561 355.4264 425.8917 357.3265 432.3745 357.9971 436.7336 356.5441 438.6337 354.3087 439.7514 351.8497 439.9749 350.0614 439.3043 348.6084 437.1806 347.1553 432.2627 346.1494 429.692 347.2671 428.4625 349.7261 426.6741 351.0673 426.2271 349.9496 423.321 348.7201 421.868 342.7963 420.0796 341.455 420.415 338.2136 422.5386 334.1899 423.321 331.7309 421.3091 329.4955 417.6207 326.4777 413.7087 329.6073 413.3734 334.4134 409.3496 337.2077 408.3437 339.2196 409.9085 341.6785 412.591 344.1375 413.5969 346.1494 410.0202 343.6904 405.8847 343.8022 402.6433 348.0495 394.037 346.1494 394.037 344.0257 393.2546 342.1256 391.6898 340.6726 389.6779 339.1078 388.6719 335.4194 390.3485 333.4075 388.7837 332.8486 392.2486 332.0662 394.3723 330.8367 395.49 328.8249 395.8253 327.7072 397.1666 323.9069 405.6612 320.3303 410.2438 312.618 416.7265 309.0414 421.6444 307.0295 427.6801 308.0354 431.4803 310.3826 434.9452 312.618 440.3102 313.624 446.793 313.0651 451.8227 311.2768 456.2935 308.5943 461.435 312.0592 459.7584 314.6299 459.4231 315.3006 461.2114 311.7239 469.3707 311.3886 472.6121 311.6121 479.0948 311.5003 483.6774 311.2768 485.5776 310.7179 487.813 307.253 492.2838 306.6942 494.1839 306.0235 494.1839 304.4587 495.1899 302.7822 496.7547 301.7762 498.3195 302.4469 498.9901 303.5646 501.4491 304.1234 504.1316 302.7822 506.0317 302.3351 507.2612 301.5527 508.6024 300.2114 509.1613 298.4231 508.6024 297.0818 507.3729 294.8464 503.7963 294.2876 502.2315 293.8405 500.3314 293.1699 498.4312 291.8286 496.7547 290.0403 496.084 276.0689 496.7547 274.1688 497.3135 273.051 498.8783 272.1569 500.6667 271.1509 501.8961 267.3507 503.4609 259.7503 503.0139 256.2854 503.7963 259.862 507.9318 280.5397 512.4026 281.9927 513.6321 281.4339 516.3146 279.0867 521.5679 277.8572 526.0387 278.1925 527.9388 280.2044 528.3859 284.0046 528.3859 284.0046 530.0625 278.0807 533.5274 276.4042 536.3217 277.969 540.569 277.4101 541.0161 276.0689 542.4691 272.7157 540.3454 256.956 545.0398 249.6909 548.9518 245.4436 549.2871 236.6136 545.8222 231.5839 541.2396 230.2427 540.569 228.6779 540.569ZM355.8735 500.2196L357.8854 496.9782 359.0031 492.9545 358.8913 488.5954 356.9912 484.2363 354.3087 482.3362 351.4026 481.1067 349.6143 478.3124 350.0614 471.9415 351.5144 468.5883 353.6381 466.3529 355.5382 466.9118 356.6559 477.6418 358.8913 482.1127 362.1327 485.0187 365.8211 486.1364 364.5916 488.7072 363.921 491.3897 364.1446 494.1839 364.8152 496.7547 367.2741 500.2196 369.0625 499.2136 370.292 496.4194 371.2979 494.9663 371.745 496.6429 369.7331 500.4431 365.8211 505.4728 365.1505 510.0554 365.2623 518.6618 363.8092 523.1327 359.2266 527.4917 354.1969 526.0387 350.2849 520.1149 349.0554 510.7261 349.8378 505.4728 351.2909 503.3492 353.4145 502.2315 355.8735 500.2196ZM493.1285 285.1718L492.6814 281.2598 494.358 279.9186 506.6528 278.5773 512.8002 276.1184 512.8002 278.1303 512.2414 278.1303 511.7943 278.4656 510.9001 279.695 508.3294 280.9245 506.3175 283.607 504.6409 286.6249 502.9644 288.8603 500.6172 289.8662 497.5993 289.5309 494.9168 287.9661 493.1285 285.1718Z" />
  <path class="Nordjylland" d="M303.2293 285.6189L298.4231 290.9839 291.7168 296.6843 286.9107 303.5023 277.0748 309.7615 268.4684 310.7674 265.0035 311.7734 259.1914 315.1265 254.3853 320.8268 248.4614 321.8328 246.0024 321.2739 242.2022 319.1503 235.8312 320.8268 228.6779 312.6675 223.9835 315.2383 221.301 314.3441 222.3069 308.6438 225.9954 304.2847 223.2011 301.4904 206.8825 301.2669 202.8587 296.796 203.7529 290.5369 201.6293 288.1897 197.4937 287.8543 196.2642 290.4251 197.6055 294.1135 194.0288 300.0374 188.6638 297.1314 178.3809 291.9899 178.2691 291.8781 175.363 285.1718 174.0218 283.4953 173.2394 282.9364 170.3333 283.2717 164.633 285.9542 163.18 288.0779 160.0504 290.0898 157.0326 290.3133 155.6913 286.8484 157.3679 283.7188 163.9624 279.695 165.5272 275.2242 166.3096 271.5358 165.9743 269.7474 162.3976 268.5179 160.9446 267.1767 159.7151 265.3883 158.7091 263.6 157.9267 261.9234 157.1443 259.2409 156.5855 256.1113 156.6972 252.87 157.4796 251.9758 160.8328 246.7226 161.1681 245.4931 161.8387 244.1518 161.727 241.0222 161.0563 238.0044 160.1622 236.6631 158.4856 236.3278 157.1443 235.4337 154.7971 232.8629 157.4796 226.2684 160.1622 221.127 163.18 216.7679 167.6508 212.1853 168.6568 211.6264 169.6627 211.1793 170.8922 211.0675 171.6746 210.2851 172.457 206.4849 173.0158 205.7025 194.3641 198.4374 199.0585 198.6609 215.8242 205.7025 215.8242 207.7144 214.0359 208.9439 213.9241 210.5087 215.0418 212.0735 216.9419 213.0794 218.9538 212.8559 220.295 211.5146 225.5483 203.1318 228.0073 198.3256 230.578 194.6372 236.2783 192.5135 240.9727 189.4957 247.9025 191.284 263.2152 189.4957 254.7206 181.4482 250.3615 179.8834 247.4554 177.3127 246.0024 176.7538 244.7729 177.4244 239.7432 184.3542 236.949 187.2603 233.9311 188.7133 231.2486 186.5897 228.5661 184.0189 225.8836 184.6895 220.8539 189.4957 215.0418 191.9547 202.5234 192.0664 169.5509 204.026 166.7567 204.3613 163.9624 203.1318 147.8673 189.4957 148.7615 192.9606 147.6438 194.749 142.8376 196.6491 139.3727 199.3316 137.5844 200.2257 135.1254 200.3375 136.0196 198.6609 133.4488 196.9844 130.8781 197.5432 128.4191 199.5551 126.0719 202.2376 123.7248 202.0141 120.8187 204.9201 118.248 208.0497 117.242 208.6086 116.0125 205.0319 113.1065 203.6906 109.8651 204.026 107.4062 205.7025 109.5298 207.938 104.2766 212.8559 97.1232 216.6561 91.9817 215.2031 88.6286 215.8737 85.2755 217.4385 83.7107 219.3386 82.9283 224.4801 81.0282 227.6097 78.681 229.9569 76.8926 232.8629 75.9985 240.3516 75.8867 241.0222 75.6631 243.2576 74.9925 244.5989 73.9866 245.7166 69.404 252.87 66.1626 253.0935 64.5978 253.8759 63.9272 255.3289 62.9212 256.4466 60.574 257.3408 58.1151 259.1292 57.1091 262.5941 58.3386 271.5358 58.2268 275.6713 55.9914 278.1303 55.9914 279.695 61.8035 279.1362 63.033 279.695 64.1507 282.9364 63.2565 285.1718 61.4682 286.5131 59.5681 286.8484 57.8915 286.4013 54.5384 283.9424 52.6383 283.2717 50.8499 283.8306 48.0557 286.1778 46.1556 286.8484 46.1556 288.8603 53.0854 286.8484 55.0972 287.519 58.1151 289.978 59.5681 290.5369 69.7393 286.066 71.8629 286.8484 72.1982 288.8603 71.8629 293.7782 71.8629 296.0136 73.9866 299.4785 74.9925 302.0493 72.8689 305.8495 71.3041 307.6378 69.404 308.532 67.3921 308.8673 66.1626 309.6497 66.1626 310.7674 67.9509 311.9969 65.0449 311.9969 61.0211 308.3085 57.5562 303.5023 55.9914 300.3727 54.6502 296.4607 51.4088 293.3311 47.385 291.2075 43.6966 290.5369 41.1259 289.0838 38.108 285.7307 35.3138 281.7069 33.4136 278.1303 31.8488 268.6297 30.8429 267.1767 28.9428 266.5061 24.919 263.8235 22.4601 263.6 24.5837 273.3241 25.2543 278.9127 24.919 282.4893 22.7954 282.8246 21.6777 277.3479 21.4541 265.2766 23.1307 254.4348 26.3721 246.2755 52.1912 203.9142 59.9034 195.7549 71.8629 176.7538 76.4455 172.3947 81.587 172.5065 93.5465 176.7538 100.2528 177.2009 113.33 174.1831 119.1421 171.1652 125.9602 163.453 128.5309 162.2235 164.633 167.5886 177.7102 166.0238 190.6757 161.1058 203.0823 152.723 213.9241 140.5399 244.8847 82.7542 250.3615 74.5949 260.3091 63.4178 265.2271 53.8055 267.1272 52.4642 270.5921 47.3228 277.6337 45.9815 290.8227 46.8757 303.7881 44.752 315.6359 39.387 325.807 31.8983 343.3551 13.5679 352.9674 6.3028 356.8794 4.738 361.2385 4.2909 365.374 5.2968 368.8389 8.2029 360.9032 11.1089 353.5263 18.374 341.6785 36.8163 337.3195 52.9113 341.3432 65.0944 348.6084 76.1597 354.0851 89.237 349.8378 100.9729 349.9496 114.8326 352.9674 142.2165 350.5085 146.1285 343.1316 151.6053 339.6667 155.9644 334.637 166.6944 332.2898 173.8477 330.6132 185.3602 327.0365 197.9903 325.36 202.2376 324.1305 204.1377 323.0128 205.1437 321.448 205.5908 314.6299 205.479 312.5063 206.0378 309.9355 206.8202 297.8642 198.6609 288.9226 188.9369 282.9987 186.4779 278.1925 181.56 274.6158 180.4422 271.7098 182.007 267.5743 188.7133 264.8917 189.4957 267.5743 189.831 270.5921 185.8073 273.051 184.0189 275.6218 182.7894 278.6396 184.0189 292.8345 199.108 297.5289 201.4552 303.1175 206.4849 306.2471 207.7144 317.8713 207.938 320.5538 209.5028 316.53 214.5325 315.6359 216.6561 314.9652 220.2328 314.1828 227.3861 313.624 229.2862 314.7417 233.6453 316.3065 247.0579 316.8653 257.6761 317.8713 263.2647 321.448 274.33 322.6774 276.1184 324.0187 277.6832 324.354 279.3597 322.4539 281.7069 321.2244 281.8187 317.8713 280.1421 316.0829 279.695 309.6002 279.695 307.3648 280.701 304.6823 283.2717 302.3351 280.701 299.5408 278.6891 296.4112 278.0185 292.8345 279.695 289.5932 282.3776 288.2519 282.8246 285.9047 283.2717 283.7811 284.3894 279.3102 288.0779 274.057 289.978 267.5743 294.8959 247.4554 297.802 247.4554 299.5903 253.9382 300.8198 275.6218 294.1135 280.4279 291.0957 282.5516 290.5369 282.9987 289.8662 283.1105 288.7485 283.334 287.519 284.4517 286.8484 285.5694 287.1837 287.4695 288.525 288.3637 288.8603 289.9285 288.4132 291.7168 287.4073 293.1699 285.9542 293.8405 284.2777 294.7347 280.701 297.0818 280.1421 301.7762 281.7069 301.4409 282.6011 300.6585 285.1718 303.2293 285.6189ZM106.2884 272.4299L104.3883 274.8889 98.4645 279.695 97.6821 284.2777 86.2814 287.4073 82.2576 289.6427 80.8046 288.8603 76.8926 280.2539 75.3278 278.1303 71.8629 274.33 68.398 272.5417 67.5039 272.4299 63.033 274.1065 61.4682 273.8829 62.0271 270.7534 62.6977 269.5239 63.8154 268.4062 65.0449 267.512 66.3861 267.1767 67.0568 266.059 66.8332 263.4882 66.2744 261.0293 65.9391 260.0233 69.9628 257.0055 80.134 255.5525 83.7107 250.8581 81.9223 251.0816 80.134 250.8581 78.4574 250.2992 76.8926 249.2933 77.675 246.7226 80.5811 242.8106 81.6988 240.1281 81.2517 240.2398 80.9164 238.1162 80.8046 233.7571 81.2517 232.8629 82.3694 232.7512 83.5989 232.9747 84.6048 232.8629 88.7404 231.2981 97.235 229.9569 101.3705 227.4979 104.6119 228.6156 107.4062 224.8154 112.3241 214.756 115.5655 216.8796 117.6891 213.9736 119.3657 210.5087 121.154 211.0675 120.3716 213.1912 118.5833 216.5443 118.248 218.4444 118.4715 219.6739 119.9245 223.2506 120.2598 225.486 119.9245 226.0449 118.248 234.6513 117.0185 238.0044 116.3479 239.1221 115.2301 240.1281 115.2301 236.9985 114.4477 234.9866 113.4418 233.6453 112.3241 232.8629 108.8592 235.6572 108.3003 236.6631 107.8532 239.4574 108.1886 241.134 108.8592 242.3635 109.418 243.7047 110.5358 252.4229 111.7652 255.2172 114.2242 256.2231 113.33 257.5644 112.4359 258.1232 111.4299 258.3468 110.3122 258.235 111.3182 259.0174 112.3241 260.0233 110.424 262.9294 108.1886 268.8532 106.2884 272.4299ZM439.8136 116.7327L443.8374 116.6209 445.514 117.1798 446.7435 118.521 447.7494 121.7624 447.6376 124.5567 446.5199 126.7921 443.3903 126.1215 439.9254 125.0037 428.9718 127.5745 431.2073 129.5864 432.8838 133.6101 432.4367 137.8574 428.9718 141.7694 427.0717 145.0108 425.8422 148.5875 423.495 151.3817 419.0242 152.4994 416.1182 150.1523 412.4297 142.9989 407.2882 141.993 403.3762 139.8693 400.8055 137.4103 398.4583 134.7278 398.4583 133.0513 403.2645 132.0453 407.9589 127.3509 411.6473 124.1096 417.4594 123.6625 420.8125 122.6565 423.3833 119.7505 434.0015 119.8623 439.8136 116.7327Z" />
  <path class="Sjaælland" d="M541.0783 787.1362L539.4018 788.9245 537.9487 789.5952 536.6075 790.3776 535.4898 793.0601 541.1901 795.6308 540.6312 800.9958 536.0486 806.2491 529.6777 808.3727 507.2117 803.4548 499.9465 805.1314 493.1285 808.3727 487.6517 813.4024 484.4103 812.8436 470.9978 804.9078 462.1679 797.1956 446.4081 787.0244 439.2548 785.4596 431.5426 781.7712 423.7186 779.9828 420.7008 777.1886 419.2477 773.3883 420.1419 769.141 423.8304 767.0174 428.1894 767.7998 432.2132 767.4645 434.8957 762.2112 432.5485 761.3171 430.6484 759.864 422.9362 750.2517 422.042 748.5751 422.042 744.2161 424.0539 740.3041 429.9778 733.0389 431.9897 734.0449 452.6673 729.7976 456.244 731.4741 463.062 736.9509 465.521 738.1804 468.0917 740.3041 472.4508 749.8046 475.9157 751.9283 479.3806 752.8224 504.9762 767.3527 503.635 762.9936 501.9584 760.3111 501.8466 758.0757 504.9762 755.3932 508.8882 755.3932 512.3531 753.7166 513.8062 753.4931 512.5767 750.8106 512.1296 747.681 512.3531 744.5514 512.8002 741.7571 523.8656 751.8165 524.7597 755.3932 528.1129 759.864 530.3483 761.5406 532.6955 762.2112 531.2425 763.6642 530.6836 763.8878 532.6955 768.3586 539.9606 774.3943 541.5254 776.8532 541.9725 780.877 542.5314 782.7771 542.5314 784.2301 541.0783 787.1362ZM623.3419 712.473L635.9721 715.0438 640.7782 719.4029 643.0136 728.0092 642.7901 730.8035 641.4488 732.2565 639.1017 732.9272 635.7485 733.0389 618.6475 729.2387 613.5061 730.0211 608.4763 732.3683 603.6702 736.3921 595.958 746.8986 593.2755 748.5751 589.0282 747.9045 579.8629 743.3219 579.8629 741.7571 581.8748 741.7571 581.316 739.1864 581.8748 737.1745 583.2161 735.7215 584.7809 734.8273 584.1102 734.1567 582.6572 732.1448 581.8748 731.4741 585.1162 727.7857 587.0163 726.8915 588.8046 728.0092 589.8106 726.2209 588.8046 722.756 591.1518 722.9795 594.6167 725.4385 596.7404 726.2209 598.1934 725.8856 602.8878 723.9855 604.6761 722.756 603.8937 720.297 603.782 718.2851 604.4526 716.7204 605.6821 715.8262 605.6821 714.1496 600.9877 710.7965 599.7582 709.0081 598.9758 706.5492 599.4229 704.7608 600.9877 703.8667 603.6702 703.8667 606.7998 709.4552 611.6059 711.6906 623.3419 712.473ZM615.0708 567.0587L611.0471 569.4059 608.2528 572.312 599.0876 581.9243 599.0876 582.0361 591.8224 596.9017 595.7344 610.3142 602.6642 616.5734 605.1232 617.3558 614.0649 618.0264 616.4121 619.1441 622.6713 624.3974 625.9127 628.3094 627.3657 632.1096 627.5892 636.4686 628.2598 640.0453 630.2717 646.8634 628.1481 649.5459 627.3657 650.3283 619.877 655.6933 589.587 662.8466 587.3516 665.3056 583.6631 667.6528 580.7571 671.9001 579.0805 677.0416 579.8629 681.4007 578.7452 683.5243 577.6275 684.4185 576.2862 684.3067 574.945 683.0772 576.0627 677.7122 574.3861 674.2473 571.4801 673.3531 568.574 675.365 567.3446 676.5945 566.2268 677.0416 565.4444 677.9358 565.1091 680.5065 565.8915 681.5124 570.0271 684.7538 582.0983 685.8715 587.5751 687.7716 588.8046 693.5837 588.0222 696.0427 587.1281 697.0486 586.0103 697.6075 584.7809 698.6134 581.763 700.1782 580.4218 701.5195 581.4277 702.1901 586.7927 714.1496 586.681 718.9558 584.7809 721.5265 581.763 722.5325 578.4099 722.756 576.1745 723.6502 571.3683 727.3386 568.0152 728.0092 563.0972 725.8856 555.2733 718.5087 550.3553 717.6145 550.2436 718.7322 550.5789 719.0675 550.9142 719.0675 551.3613 719.2911 550.5789 719.8499 550.1318 720.4088 549.5729 720.8559 548.567 721.1912 549.1259 725.9974 548.1199 728.7916 546.7787 731.2506 546.4433 734.8273 547.5611 737.6216 549.4612 739.2981 551.5848 739.6334 553.3732 738.1804 553.0378 737.2862 552.3672 734.8273 553.5967 734.7155 557.2851 733.0389 558.4029 734.3802 560.5265 739.0746 560.7501 739.9688 562.0913 740.9747 566.7857 745.5573 569.1329 746.8986 571.8154 746.5633 574.6097 745.6691 577.1804 745.5573 579.4158 747.681 583.4396 753.8284 587.7987 758.9699 587.7987 760.5347 575.0568 771.0411 573.0449 773.3883 567.3446 784.2301 566.5622 786.242 565.1091 787.248 561.3089 791.9424 559.7441 793.0601 557.6205 796.525 557.6205 804.4607 559.1853 818.5439 558.8499 827.4856 555.9439 827.7091 553.0378 823.9089 552.3672 820.444 550.2436 817.538 545.5492 808.2609 544.4315 805.1314 544.655 799.9899 546.4433 795.9661 550.3553 789.7069 547.4493 789.0363 545.4374 787.695 544.9903 785.1243 546.4433 780.9888 544.7668 779.9828 543.8726 778.7534 542.5314 775.8473 535.8251 768.9175 535.2662 767.688 534.7074 765.6761 534.3721 763.6642 534.4838 762.323 534.4838 760.9817 533.5897 758.9699 531.1307 756.0638 528.8953 754.2755 527.3305 751.8165 526.6598 746.8986 526.6598 742.316 526.2128 738.7393 524.7597 736.2803 521.7419 734.8273 521.7419 733.0389 527.3305 728.6799 528.6717 728.0092 530.6836 728.7916 533.4779 732.2565 535.1545 733.0389 536.6075 732.033 539.9606 728.5681 540.5195 728.9034 541.5254 730.2447 543.5373 729.127 546.4433 726.2209 546.4433 724.6561 544.9903 722.6442 542.196 714.932 540.5195 712.473 530.9072 707.7787 528.1129 707.3316 527.3305 706.7727 525.4304 704.4255 524.3127 703.8667 515.1474 703.3078 512.4649 701.8548 510.1177 699.6194 507.9941 696.8251 515.7063 698.5017 531.0189 705.655 538.5076 707.3316 535.2662 701.5195 526.4363 694.8132 522.6361 688.4422 535.1545 686.095 535.9369 685.0891 535.4898 683.0772 532.4719 680.5065 524.2009 681.0653 521.7419 677.824 523.8656 675.4768 525.095 672.5707 524.8715 669.6647 522.6361 667.6528 519.3947 667.6528 517.0475 669.8882 514.9239 672.6825 512.8002 674.4708 510.9001 674.3591 505.6469 671.9001 494.8051 669.2176 492.2343 667.6528 490.2224 668.6587 480.2748 664.1879 478.3747 664.635 474.4627 666.8704 472.4508 667.6528 462.5032 667.6528 462.5032 669.3294 465.521 671.0059 460.4913 670.8942 456.9146 669.5529 454.6792 665.9762 453.6733 659.0464 455.7969 660.4994 457.9206 660.6112 459.7089 659.0464 460.6031 655.5815 459.0383 656.6992 457.5853 657.2581 454.2321 657.3699 453.6733 656.0286 454.1204 649.8812 453.2262 648.5399 450.6554 646.8634 442.7197 639.5982 441.3784 637.251 442.7197 636.5804 444.7316 636.3569 446.4081 635.4627 446.7435 632.892 445.6257 631.6625 443.5021 631.1036 441.2667 630.9919 439.8136 631.2154 438.8077 632.5567 438.1371 634.6803 437.1311 636.3569 434.8957 636.3569 434.0015 635.2392 431.9897 629.6506 431.9897 627.7505 435.7899 628.0858 437.9135 627.974 439.3666 626.8563 440.596 625.1798 442.2726 623.8385 444.0609 622.9443 445.7375 622.609 448.7553 621.156 450.2084 618.1382 449.9848 615.1204 448.3083 613.7791 448.8671 611.2084 447.6376 605.508 444.7316 596.4546 442.9432 593.2132 441.1549 591.0895 438.9195 589.8601 435.9017 589.413 433.3309 591.3131 431.6543 591.7602 430.9837 590.4189 431.319 586.954 432.1014 585.1657 433.4427 584.3833 435.4546 584.2715 439.2548 582.8185 440.7078 579.13 440.3725 574.3239 438.3606 569.5177 431.9897 561.3584 424.9481 557.2229 409.3001 552.9756 409.3001 551.0755 431.9897 552.9756 429.5307 548.6165 420.589 544.7045 417.1241 542.4691 415.6711 540.0101 414.7769 538.11 413.6592 536.5452 411.2002 535.3157 403.7116 534.7569 401.4761 533.4156 401.4761 531.8508 424.0539 535.3157 428.7483 534.5333 437.8018 530.9567 442.8315 530.0625 442.8315 531.8508 441.1549 531.6273 439.7019 531.7391 438.1371 532.2979 436.9076 533.4156 439.143 537.8865 442.8315 541.3514 447.0788 542.6926 450.7672 540.569 444.7316 535.3157 446.7435 533.4156 448.0847 534.7569 450.4319 535.4275 455.6851 535.3157 458.0323 534.4216 462.8385 530.8449 467.8682 529.7272 470.1036 528.4977 471.7802 526.1505 472.4508 522.3503 472.5626 520.3384 473.345 516.7617 473.4568 515.1969 472.8979 513.0733 470.4389 509.3848 469.5448 507.3729 473.1215 509.8319 476.6981 510.3908 480.0513 508.9377 483.1809 505.4728 488.0988 506.4788 492.1226 499.549 492.7932 489.3778 488.0988 480.8832 483.9633 479.0948 474.6862 478.4242 463.1738 474.0651 459.9325 471.2708 458.5912 466.6882 477.0334 475.6299 480.8337 474.7358 502.9644 478.2007 505.6469 480.7714 511.5707 480.3243 521.7419 477.1947 526.9952 473.9534 530.013 473.3945 531.5778 475.6299 531.0189 478.2007 526.9952 483.1186 525.7657 486.1364 527.4422 488.8189 526.4363 490.6073 524.0891 490.9426 521.7419 489.7131 522.0772 488.7072 522.6361 486.1364 518.0535 486.4717 516.2651 487.4777 514.8121 489.7131 521.9655 502.2315 524.648 509.273 522.6361 514.4145 520.5124 514.7498 516.0416 513.5204 513.8062 514.4145 511.2354 518.2147 509.5589 519.556 506.8763 519.6678 506.8763 521.5679 509.2235 522.3503 516.3769 521.5679 518.277 520.6737 520.5124 518.8854 523.0832 517.5441 525.7657 517.8794 526.6598 519.8913 528.2246 524.1386 529.3424 528.2741 529.1188 530.0625 517.6064 532.1861 515.0356 533.3039 514.0297 534.8686 515.818 536.8805 517.8299 537.2158 524.3127 536.7688 525.7657 536.0981 526.7716 534.8686 529.2306 537.3276 532.6955 542.4691 533.7014 545.8222 533.5897 547.0517 532.8073 548.6165 531.5778 552.9756 534.1485 550.5166 536.0486 548.0576 542.0843 534.8686 542.3078 534.5333 542.5314 534.5333 548.0081 534.198 549.7965 533.3039 550.02 532.6332 550.2436 532.4097 552.479 533.0803 559.4088 537.3276 558.2911 541.4631 557.2851 544.481 552.2554 549.3989 550.3553 552.9756 553.2614 553.5344 557.3969 551.6343 560.7501 548.1694 561.1971 544.0339 563.5443 543.1397 565.8915 543.8103 567.9034 546.0458 569.1329 549.2871 564.662 547.7223 564.1032 548.393 564.9974 550.6284 567.121 552.4167 572.0389 554.5404 573.2684 549.1754 576.6216 541.0161 576.9569 535.3157 574.2744 522.5738 579.6394 522.5738 585.1162 528.0506 587.4634 530.3978 597.9699 532.1861 595.958 534.0862 596.1815 535.5393 596.5168 536.2099 596.8521 536.7688 597.411 537.3276 600.0935 539.0042 600.4288 539.6748 599.9817 540.7925 594.3932 544.9281 591.04 546.2693 586.0103 550.2931 587.1281 551.8579 587.2398 552.305 587.3516 552.9756 587.3516 553.5344 587.1281 554.3168 586.9045 555.3228 586.681 557.1111 587.0163 558.4524 587.6869 559.5701 587.7987 562.5879 592.2695 564.5998 595.0638 564.488 597.8581 562.8114 599.6464 564.1527 603.782 563.4821 608.9234 564.0409 615.0708 567.0587Z" />
  <path class="Syddanmark" d="M12.736 516.7617L40.4552 516.5382 44.9261 519.6678 48.5028 521.3443 53.6442 524.5857 55.3208 525.0328 58.0033 524.4739 59.7916 522.462 67.0568 514.3028 67.3921 513.7439 67.5039 513.0733 67.1685 512.2909 66.4979 510.6143 66.3861 509.8319 67.1685 509.0495 68.1745 508.4906 69.404 508.1553 70.7452 508.1553 72.1982 509.1613 73.6513 509.7201 75.3278 510.0554 77.7868 509.4966 80.134 508.4906 81.6988 508.2671 86.3932 509.4966 96.4526 516.7617 98.9116 517.4323 103.6059 515.9793 105.9531 514.5263 105.9531 512.8497 105.1707 508.4906 106.6238 506.1435 108.8592 498.6548 114.1124 495.9723 121.154 496.6429 125.5131 500.7784 131.3252 508.2671 133.2253 509.8319 138.255 509.273 139.708 507.82 141.6081 508.0436 142.8376 504.8022 143.62 503.4609 144.9613 502.0079 146.1908 501.002 148.8733 500.2196 151.2205 498.2077 157.9267 489.7131 161.8387 481.6656 167.3155 480.4361 180.8398 485.0187 185.3107 487.813 188.9991 491.0543 196.2642 500.3314 197.382 502.2315 197.6055 503.4609 198.0526 505.3611 198.835 507.7083 202.0763 511.6202 205.7648 517.7677 207.7767 520.3384 210.0121 521.1208 215.1536 520.5619 217.8361 521.1208 218.6185 522.5738 218.1714 524.1386 217.5008 525.7034 217.2772 527.1564 217.5008 529.0565 219.0656 530.0625 223.76 530.7331 227.0013 531.7391 228.6779 533.3039 229.3485 535.4275 229.2367 537.7747 228.6779 540.569 215.3771 540.4572 211.9122 538.7806 211.4651 539.7866 211.2416 540.4572 211.1298 541.2396 211.018 542.4691 213.9241 543.9221 224.3188 544.0339 226.2189 545.2634 233.7076 552.9756 235.1606 555.9934 236.2783 558.6759 237.7314 560.6878 240.5256 561.4702 254.2735 561.4702 251.9263 564.3762 244.4376 570.3001 240.5256 575.5534 238.5138 576.8946 235.1606 577.3417 233.9311 578.3476 233.7076 580.8066 233.7076 583.1538 233.1487 584.2715 224.0953 586.5069 220.8539 588.9659 218.842 589.413 217.0537 589.0777 213.8123 587.6246 211.9122 587.7364 212.3593 588.7424 212.9182 589.413 210.9063 592.4308 205.5413 594.2191 203.0823 596.4546 205.653 598.0194 208.3355 597.7958 215.3771 596.0075 216.7184 595.2251 218.1714 594.778 226.4425 599.3606 227.0013 602.1549 226.4425 605.6198 224.8777 608.7494 222.8658 610.0906 217.9479 611.0966 215.8242 612.2143 216.6066 615.0086 218.3949 618.8088 218.9538 620.8207 218.5067 623.7267 217.7243 625.8504 217.9479 627.7505 220.8539 629.6506 222.6422 631.3272 224.3188 633.6744 224.7659 636.1333 222.754 638.1452 222.754 640.0453 224.207 641.7219 229.5721 650.8871 231.3604 651.5578 233.037 653.2343 233.7076 657.3699 233.1487 660.3877 232.1428 662.176 231.1369 664.4114 230.6898 668.4352 229.9074 670.3353 228.119 671.5648 225.7718 672.3472 223.8717 672.5707 215.3771 671.0059 213.477 671.5648 212.2475 672.9061 211.2416 674.5826 210.0121 676.2592 206.5472 678.3828 204.4235 679.277 202.5234 679.6123 201.4057 680.73 201.4057 682.9655 202.6352 684.7538 205.0942 684.7538 205.0942 686.5421 200.8469 686.4304 198.835 686.8774 197.1584 688.4422 198.6114 689.56 200.3998 689.8953 204.5353 690.007 206.4354 690.9012 208.5591 693.1366 211.9122 698.6134 208.2238 703.5314 205.7648 705.8785 203.0823 707.3316 196.4878 708.6728 193.9171 710.5729 195.1465 714.1496 196.9349 714.2614 205.0942 710.9083 208.7826 711.1318 210.0121 710.9083 211.018 710.1259 212.024 708.8964 213.2535 707.7787 214.93 707.3316 218.0596 708.6728 223.76 715.0438 226.7778 717.6145 234.7135 719.7382 236.6136 721.1912 237.7314 724.8796 240.9727 743.8807 241.308 744.9985 241.0845 745.7809 239.6315 746.8986 237.5078 746.8986 235.4959 745.6691 233.8194 745.4455 232.7017 748.5751 234.49 749.134 236.1666 750.2517 237.6196 751.7047 238.6255 753.4931 239.1844 755.6167 239.4079 758.5228 238.7373 761.0935 236.7254 762.2112 235.0488 761.2053 232.9252 756.5109 231.6957 755.3932 225.6601 755.8403 223.8717 755.3932 221.0774 753.8284 221.301 752.8224 222.5305 751.8165 222.754 750.2517 220.1833 746.5633 219.2891 744.3278 220.295 743.3219 224.0953 741.7571 223.4246 738.851 219.9597 736.9509 215.8242 738.1804 215.0418 739.6334 213.1417 744.7749 211.5769 747.5692 210.6827 749.4693 210.0121 750.2517 208.8944 750.587 206.5472 750.2517 205.5413 751.1459 203.0823 754.0519 197.0466 759.1934 195.1465 762.2112 194.2524 767.4645 194.3641 767.4645 194.2524 767.5762 192.1287 768.2469 189.7815 768.0233 186.8755 765.229 184.193 765.8997 182.6282 767.2409 180.6163 767.7998 179.1633 769.2528 177.0396 769.6999 166.5331 769.6999 163.9624 768.5822 162.9564 765.6761 162.5094 762.2112 161.8387 759.6405 159.3798 757.5168 128.8662 750.2517 117.5773 745.6691 106.0649 743.6572 102.7118 744.1043 92.8759 747.7927 87.6227 747.5692 82.593 746.0044 83.7107 741.7571 82.593 739.9688 84.6048 733.0389 83.3754 726.668 81.0282 720.5206 79.6869 714.1496 80.2458 705.9903 81.9223 699.284 84.046 693.1366 85.6108 686.5421 70.2981 683.7479 68.6216 683.9714 68.0627 686.095 67.6156 695.8191 66.7215 697.0486 65.3802 697.3839 63.4801 699.3958 61.58 702.1901 59.3446 703.5314 57.1091 703.0843 55.0972 700.29 53.4207 694.0308 53.6442 687.9952 54.5384 681.8477 55.0972 675.365 57.7798 670.4471 63.8154 669.5529 69.851 671.3413 72.8689 674.4708 70.9688 675.0297 69.404 676.2592 66.945 679.6123 67.3921 682.5184 75.8867 683.7479 83.8224 685.648 86.7285 684.4185 86.3932 679.6123 83.7107 671.0059 81.8106 660.2759 80.8046 649.4341 81.0282 646.5281 82.3694 642.9514 82.593 640.8277 82.3694 637.5864 80.8046 631.2154 79.4634 619.8147 78.4574 614.338 76.3338 609.5318 72.7571 606.6257 67.6156 605.3963 58.0033 605.0609 51.0735 602.9373 45.1496 597.3487 32.0724 577.7888 32.1842 576.0004 35.3138 575.4416 35.3138 573.765 32.5195 572.6473 29.1663 572.4238 25.925 573.2062 23.466 575.4416 21.7894 579.0183 22.2365 581.3655 26.4838 585.9481 25.2543 586.2834 24.3602 586.954 22.4601 589.413 25.8132 590.0836 29.7252 592.6543 32.9666 596.4546 34.4196 600.8136 32.5195 601.4843 15.3067 587.1776 11.73 585.0539 3.3472 583.4891 1.1118 581.2537 1 577.4535 9.0475 555.7699 11.73 545.8222 13.5184 535.3157 13.8537 524.921 12.736 516.7617ZM340.2255 745.1102L342.5727 747.4574 345.2552 749.134 347.2671 751.4812 347.1553 755.3932 348.4966 756.3991 350.0614 757.0697 338.7725 759.7523 335.6429 763.1054 333.8546 763.8878 330.6132 762.4348 305.8 735.2744 303.4528 729.574 302.5586 725.662 304.6823 728.0092 316.9771 734.9391 320.5538 738.1804 323.9069 743.6572 325.6953 745.8926 327.8189 746.8986 329.9426 746.7868 331.7309 746.2279 332.4015 744.2161 331.3956 739.9688 333.4075 742.9866 335.1958 750.4752 336.7606 751.9283 339.6667 752.04 341.7903 751.4812 342.1256 749.4693 340.2255 745.1102ZM276.963 726.2209L279.0867 730.1329 284.787 747.3457 284.6752 749.8046 282.6634 750.3635 278.5278 750.2517 276.4042 751.3694 273.6099 753.6048 270.8156 755.2814 268.692 754.499 266.3448 752.3754 259.6385 750.2517 257.2913 748.5751 257.2913 746.8986 261.0915 744.8867 265.6741 746.8986 270.145 750.1399 274.1688 751.9283 274.1688 750.2517 267.2389 744.2161 260.7562 741.8689 259.1914 741.7571 257.8502 742.316 255.7265 744.3278 254.2735 745.1102 248.6849 744.8867 243.8788 740.8629 240.9727 734.2684 241.4198 726.2209 240.5256 726.2209 240.5256 724.6561 243.767 726.8915 247.1201 730.8035 250.4733 733.7096 253.3793 733.0389 252.8205 732.1448 251.8145 730.4682 251.2557 728.7916 251.8145 728.0092 252.5969 727.4504 251.591 726.2209 245.6671 721.9736 244.6612 719.9617 246.4495 717.6145 246.4495 715.8262 235.1606 716.9439 233.1487 716.7204 231.6957 715.6026 230.0191 715.3791 228.4543 714.7085 227.6719 712.473 228.2308 711.3553 230.9133 709.2317 231.6957 707.3316 229.0132 707.4433 226.666 708.3375 224.3188 708.7846 221.8598 707.3316 221.8598 705.4315 234.6018 699.3958 239.6315 698.6134 245.6671 699.7311 254.1617 709.9023 258.7443 712.473 265.1153 713.479 269.6979 716.2733 273.3864 720.6323 276.963 726.2209ZM398.4583 709.0081L399.4642 701.9666 404.2704 689.4482 409.859 679.8359 413.1003 681.4007 406.2823 712.473 403.488 720.6323 395.9993 735.7215 382.0279 781.9947 380.6867 785.1243 378.6748 786.1303 375.3217 786.242 373.5333 783.8948 369.8449 769.141 368.2801 766.4585 366.38 764.2231 361.9091 760.5347 365.374 760.3111 367.6095 759.3052 369.5096 757.1815 371.745 753.4931 373.0862 749.3575 373.8686 748.1281 375.3217 749.4693 375.9923 749.8046 379.6807 748.5751 379.3454 746.1162 378.6748 743.3219 377.4453 744.3278 376.2158 744.6631 374.9864 744.3278 373.6451 743.3219 375.7688 737.2862 378.7866 732.8154 386.8341 723.4266 390.299 720.8559 398.4583 709.0081ZM55.9914 632.892L52.4147 634.345 48.6145 630.433 45.3732 624.1738 40.7905 612.2143 39.8964 606.6257 41.3494 603.0491 46.1556 601.7078 46.7144 609.3083 49.0616 610.6495 52.0794 610.0906 54.0913 612.2143 54.0913 615.1204 52.1912 620.8207 52.6383 623.2796 53.756 626.0739 54.7619 630.8801 55.9914 632.892ZM371.2979 703.8667L364.8152 703.8667 362.468 704.3138 359.7855 705.5432 357.3265 707.5551 355.4264 709.9023 352.8557 712.5848 349.8378 712.1377 344.1375 709.0081 334.5252 708.2257 331.3956 707.3316 329.9426 706.3256 328.8249 705.2079 327.5954 704.3138 325.9188 703.8667 322.3421 704.202 320.442 704.0902 309.0414 696.8251 304.9058 696.4898 303.7881 698.3899 303.7881 703.8667 301.5527 702.1901 298.1996 698.2781 295.7406 696.8251 292.8345 696.8251 287.3578 698.1663 284.8988 696.8251 295.8524 688.4422 297.8642 684.7538 295.2935 681.1771 293.5052 677.1534 291.6051 673.8002 288.9226 672.5707 286.6871 673.2414 285.1223 674.1355 283.4458 674.8062 280.9868 674.4708 277.7454 671.1177 275.8453 670.3353 274.1688 672.5707 274.6158 676.5945 279.5338 684.1949 279.0867 688.4422 278.3043 688.7776 273.2746 687.8834 272.9393 687.2128 273.1628 686.2068 273.051 684.7538 273.4981 684.9773 273.9452 683.9714 273.7217 681.8477 271.7098 676.2592 271.3745 673.5767 271.7098 670.8942 272.604 668.4352 272.3804 666.4233 270.2568 665.0821 264.4447 663.629 262.6563 662.5113 260.9798 661.0583 260.3091 659.8288 259.9738 658.4876 258.6326 656.2521 258.2972 654.6873 258.6326 653.1226 259.9738 650.8871 260.3091 649.4341 259.9738 646.6398 258.6326 642.169 258.2972 640.8277 258.7443 632.1096 257.2913 630.9919 255.0559 630.7683 250.9204 631.2154 248.9085 630.433 246.8966 628.6447 243.4317 624.062 245.8906 623.1679 248.5732 622.8326 250.9204 621.9384 252.3734 619.1441 244.4376 615.6792 245.6671 615.9028 249.3556 615.6792 247.9025 612.6614 245.3318 611.0966 239.5197 610.3142 237.5078 609.42 232.7017 603.3844 232.7017 601.7078 236.5019 603.4961 240.6374 607.0728 244.5494 609.6436 248.3496 608.7494 234.1547 596.0075 228.7897 594.778 229.9074 592.2073 231.2486 591.0895 232.8134 590.5307 234.7135 589.413 240.0785 582.4832 247.9025 580.9184 250.4733 581.3655 251.0321 582.8185 251.0321 584.9421 252.3734 587.7364 259.3032 591.5366 266.7919 588.8541 280.9868 579.0183 299.6526 572.7591 306.0235 568.0647 309.4884 566.8352 313.4004 566.6117 314.5182 566.8352 314.6299 567.6176 315.5241 571.3061 315.6359 572.0884 317.6477 571.3061 318.0948 569.4059 317.6477 564.1527 319.6596 563.5938 324.1305 565.7175 334.0781 572.6473 336.3135 575.4416 338.1019 578.5712 339.3314 580.2477 340.6726 580.9184 343.3551 581.2537 345.7023 582.1479 350.0614 585.2774 347.7142 584.2715 345.4788 584.2715 343.8022 585.6128 343.1316 588.6306 343.6904 589.7483 345.8141 591.4249 346.1494 592.9897 345.367 595.1133 344.1375 595.6722 342.6845 595.7839 341.1197 596.4546 335.7547 604.1668 338.1019 608.4141 343.2433 608.1905 346.1494 602.602 347.7142 602.9373 356.9912 598.1311 362.468 596.4546 363.0268 595.5604 362.8033 593.8838 362.1327 592.0955 361.462 591.3131 360.1208 590.9778 358.7795 590.1954 357.5501 588.9659 356.9912 587.7364 357.4383 585.501 359.2266 586.2834 361.1267 588.2953 361.9091 589.413 363.6975 586.6187 363.2504 582.5949 361.9091 578.1241 360.9032 573.765 361.6856 574.9945 363.8092 577.3417 363.921 572.9826 362.9151 566.7234 363.0268 564.9351 365.7094 564.8233 369.9567 569.6295 376.7747 580.9184 376.9982 582.5949 377.2218 584.8304 377.4453 586.8422 378.2277 587.7364 378.563 588.2953 381.6926 591.3131 382.5868 594.8898 382.2515 596.9017 380.9102 598.3547 376.7747 601.0372 370.0684 603.9432 360.1208 603.0491 357.6618 603.6079 355.8735 605.0609 355.0911 608.3023 356.4323 609.9789 358.7795 609.9789 360.9032 608.7494 360.2326 607.4081 360.1208 606.6257 361.1267 603.9432 364.0328 604.7256 373.6451 606.9611 375.8805 608.8612 390.0755 629.6506 390.9696 631.886 394.6581 642.7278 395.4405 646.8634 394.4345 646.8634 392.758 644.1809 390.0755 642.5043 387.7283 643.1749 386.6106 647.7575 387.5047 650.7754 391.305 656.9228 392.4227 660.723 392.758 666.1998 392.4227 671.1177 391.4167 675.365 389.1813 680.5065 388.846 682.4066 388.6224 687.4363 388.1754 688.7776 384.5987 693.5837 383.2574 696.6015 382.2515 699.5076 381.022 701.9666 378.6748 703.8667 376.9982 704.3138 371.2979 703.8667Z" />
</svg>