<?xml version="1.0" encoding="utf-8"?>
<svg xmlns="http://www.w3.org/2000/svg" viewBox="0 0 948 1024" style="stroke-width:0.25px;stroke-linejoin:round;stroke:#444;fill:#ddd" fill-rule="evenodd">
  <path class="Alto Paraguay" d="M372.1295 339.3135L366.6527 335.9604 363.4113 334.8427 322.8384 333.2779 316.691 334.2838 306.2963 334.6191 305.2903 334.1721 304.955 332.9426 304.8432 329.2541 303.0549 318.077 303.0549 316.9593 303.2784 315.3945 304.8432 310.5883 315.0144 265.2092 315.4615 263.9798 316.1321 262.9738 317.8087 261.1855 319.4853 259.7325 330.8859 252.9144 331.4448 252.3556 331.7801 252.0202 332.1154 251.4614 332.2272 250.7908 332.4507 250.0084 332.5625 249.0024 332.4507 247.7729 327.8681 216.9241 326.8622 214.3534 326.1915 213.2356 320.1559 204.8528 317.8087 200.7173 317.5851 199.8231 317.4734 198.8172 317.9205 195.6876 317.9205 194.6816 317.9205 193.5639 317.1381 190.7696 316.5792 189.2048 315.238 186.8576 312.8908 183.7281 312.4437 183.0574 312.3319 182.275 312.3319 181.8279 314.5673 172.4392 311.6613 170.2037 303.8373 166.8506 94.3781 104.7058 83.9834 97.9996 82.4186 96.6583 83.201 95.2053 84.5422 92.0757 85.9953 89.0579 89.2366 80.2279 92.3662 71.5098 95.4958 62.6799 98.6254 53.9617 100.7491 48.1496 101.6432 46.6966 103.4316 45.9142 113.491 44.4612 115.8382 44.0141 121.2032 43.2317 126.4564 42.4493 128.9154 42.0022 166.8058 33.7311 204.808 25.4601 242.8102 17.189 280.7007 9.0297 297.6899 5.3413 306.8551 5.2295 327.9799 4.8942 349.1046 4.6706 370.2294 4.3353 391.3541 4.1118 400.5194 4 402.7548 4.5589 406.1079 6.9061 409.3493 9.2532 414.9378 12.7182 425.4443 19.2009 435.9508 25.7954 446.3455 32.2781 456.852 38.7608 467.2468 45.2436 477.7532 51.8381 488.2597 58.3208 498.6545 64.8035 503.1253 67.5978 504.243 68.9391 504.6901 70.7274 504.3548 74.6394 504.5783 78.4396 506.4784 85.2576 506.8138 89.0579 506.4784 91.6286 506.702 96.6583 506.4784 99.229 504.8019 105.4882 504.9136 108.6178 505.0254 110.5179 505.696 110.965 506.5902 110.8532 507.3726 111.0768 508.155 111.8592 509.2727 113.3122 509.4963 114.5417 505.3607 115.9947 504.4666 118.0066 505.249 120.1303 507.3726 121.695 508.0432 121.4715 508.6021 120.8009 509.2727 120.1303 510.3904 120.0185 511.1728 120.4656 512.067 121.4715 512.6259 122.5892 511.5081 125.8306 511.7317 128.9602 512.5141 131.8662 513.4083 133.8781 515.1966 136.0018 517.6556 137.9019 520.1145 139.2431 522.2382 139.6902 523.9147 140.6961 523.5794 142.8198 521.9029 146.2847 521.5675 148.7437 521.7911 151.7615 522.2382 154.6675 523.4677 157.5736 523.5794 158.9149 523.4677 161.4856 523.803 163.1622 525.256 165.5094 525.7031 166.8506 525.7031 168.0801 524.8089 170.4273 524.9207 171.7685 525.5913 173.1098 526.709 174.004 527.6032 173.8922 528.6091 169.6449 530.1739 168.7507 531.9623 169.086 533.5271 170.2037 533.9741 170.8744 534.533 172.6627 534.9801 173.4451 535.7625 174.1157 537.4391 175.3452 538.445 176.3512 538.6685 177.4689 537.8861 178.363 536.5449 178.9219 534.0859 179.4807 533.1917 180.1514 531.9623 181.6044 530.2857 182.8339 529.3915 183.9516 530.1739 184.6222 533.08 184.9575 535.3154 185.4046 537.2155 186.6341 538.445 188.4224 538.7803 190.6579 537.6626 191.8873 532.9682 194.4581 531.9623 196.0229 532.2976 197.3641 533.08 197.923 533.8624 198.1465 534.1977 198.4818 534.7565 198.4818 537.3273 200.6055 539.898 203.3998 540.6804 203.3998 541.1275 201.2761 543.2512 203.0645 543.3629 205.747 542.357 208.5413 539.3392 213.2356 539.3392 214.9122 541.1275 218.6007 541.7981 223.9657 541.351 229.5542 539.7862 234.6957 537.2155 238.4959 534.0859 240.8431 533.5271 241.7373 533.4153 243.3021 533.9741 244.1963 534.6448 244.8669 534.9801 245.5375 535.986 246.767 537.7744 247.3259 538.8921 248.4436 538.1097 251.5732 530.621 263.1974 528.8327 267.3329 528.4974 269.9036 528.6091 272.5861 529.5033 274.7098 531.5152 275.604 532.6329 276.6099 531.7387 278.9571 530.3975 281.7514 529.6151 283.7633 530.0622 285.8869 531.1799 288.0106 532.6329 289.7989 533.8624 290.4695 534.4212 291.5872 529.6151 299.6348 529.6151 301.982 530.0622 304.2174 529.9504 306.5646 528.4974 309.1353 527.715 311.259 528.7209 313.0473 530.2857 314.9474 531.0681 317.7417 530.621 319.3065 527.9385 324.2244 526.9326 325.2304 526.709 326.4598 524.2501 333.5014 524.0265 335.178 524.1383 337.0781 524.2501 338.3076 525.7031 339.09 524.8089 340.2077 525.5913 345.2374 526.4855 347.2493 525.256 354.738 525.7031 357.644 526.5972 360.3265 527.6032 361.8913 529.3915 362.4502 532.1858 362.5619 534.3095 363.1208 535.4272 364.3503 536.4331 368.374 541.6864 374.9685 542.1334 376.3098 540.1216 378.3217 539.3392 379.2158 539.6745 380.5571 501.0017 363.2326 499.3251 362.2266 498.4309 360.9971 497.6485 355.185 496.0837 354.0673 493.1777 353.2849 440.5334 349.5965 434.7213 350.2671 410.6905 348.2552 393.4778 348.9259 391.5777 348.7023 389.0069 348.0317 384.7596 346.3551 372.1295 339.3135Z" />
  <path class="Alto Paraná" d="M896.8952 850.4431L896.7834 850.4431 896.5598 850.4431 890.1889 849.8843 888.9594 849.6607 888.2888 848.8783 888.0652 848.0959 888.0652 847.2018 888.177 846.4194 888.177 845.7487 888.0652 845.1899 887.8417 844.8546 887.3946 844.4075 886.724 843.9604 884.6003 842.9545 883.0355 842.2838 880.8001 841.8367 879.1235 841.8367 878.2294 842.1721 877.2234 842.6191 875.7704 843.9604 875.0998 844.4075 874.4292 844.631 873.6468 844.631 872.7526 844.4075 871.7466 843.5133 871.4113 842.9545 871.5231 842.0603 871.9702 840.2719 872.082 839.6013 871.9702 839.0425 871.8584 838.7072 871.4113 838.4836 870.9642 838.4836 870.2936 838.8189 869.7348 839.266 869.0641 839.9366 868.2817 841.1661 866.6052 844.2957 866.1581 844.8546 865.3757 845.637 864.5933 846.084 863.9227 846.4194 862.3579 846.7547 858.6694 847.09 857.887 847.8724 857.4399 848.543 857.1046 849.4372 856.9928 849.6607 856.6575 849.8843 856.2105 850.2196 855.5398 850.1078 854.6457 849.6607 852.9691 848.4312 851.7396 847.6488 848.1629 846.7547 845.2569 845.5252 844.1392 845.1899 843.245 845.0781 841.0096 844.9663 832.7385 845.4134 830.3913 843.178 826.5911 830.9949 832.515 827.53 833.4091 826.6359 833.8562 825.5182 833.8562 824.4004 833.1856 823.5063 832.4032 823.0592 831.6208 822.8356 829.4971 822.7239 828.603 822.3886 827.8206 821.8297 827.2617 821.1591 826.8146 820.6002 826.3675 820.0414 825.6969 819.5943 825.0263 819.4825 821.4496 820.4884 819.5495 820.9355 816.3081 821.1591 813.6256 821.0473 812.6197 821.1591 811.1667 821.9415 810.3843 821.7179 809.4901 821.3826 807.9253 820.6002 803.3427 818.7001 802.7838 818.253 802.1132 817.3589 801.7779 815.9058 802.1132 812.5527 802.1132 811.3232 801.4426 808.8642 801.3308 807.6348 801.7779 806.2935 801.3308 805.064 800.8837 804.2816 800.2131 803.2757 800.2131 801.9344 800.9955 799.699 803.2309 794.7811 803.5662 794.2222 805.9134 792.3221 806.584 791.4279 807.0311 790.1985 808.8195 784.7217 809.2666 783.0451 809.3783 780.1391 810.049 778.4625 810.9431 777.233 813.7374 774.6623 814.408 773.6563 814.6316 772.7622 814.5198 771.868 813.9609 771.0856 812.5079 769.0737 812.0608 767.956 811.8373 766.8383 811.8373 765.9441 811.6138 765.1617 811.0549 764.6029 809.4901 764.1558 808.4842 764.044 804.4604 765.2735 830.5031 728.7243 833.8562 724.9241 835.0857 725.0359 837.2094 726.4889 840.1154 729.3949 841.2331 730.0656 843.9156 730.9597 845.3686 731.4068 846.5981 731.295 846.4864 730.0656 845.9275 727.6066 845.8157 726.2653 846.4864 727.0477 847.6041 728.8361 848.2747 729.6185 849.1689 730.2891 850.063 730.5127 851.9631 730.9597 853.5279 731.6304 854.4221 732.6363 854.8692 734.0893 855.0927 735.7659 856.5458 738.4484 859.4518 738.8955 862.4696 739.0073 864.9286 738.2249 864.9286 736.6601 864.8168 735.9894 864.5933 735.3188 864.3697 734.76 863.5873 733.754 863.3638 733.1952 863.0285 732.6363 862.9167 731.9657 862.9167 731.1833 863.252 728.9479 863.1403 728.389 862.805 727.8301 862.2461 727.4948 859.2283 726.2653 858.6694 725.93 858.2223 725.5947 857.887 725.1476 857.6635 724.5888 857.6635 723.9182 858.3341 721.571 858.4459 720.7886 858.3341 720.1179 857.9988 719.5591 857.6635 719.2238 848.1629 712.2939 839.1095 703.6876 838.5506 702.7934 838.1035 702.3463 837.6564 702.1228 836.9858 702.1228 836.3152 702.2345 835.7563 702.2345 835.1975 702.011 834.7504 701.5639 834.4151 701.1168 833.968 700.6697 833.4091 700.4462 832.7385 700.3344 830.7266 700.6697 829.9442 700.6697 829.1618 700.558 828.4912 700.4462 827.8206 700.1109 827.3735 699.7756 826.8146 699.4403 826.0322 698.5461 825.6969 698.099 825.3616 697.5402 824.9145 696.3107 824.4674 695.193 823.9086 694.0752 822.5673 692.0634 822.3438 691.281 822.232 690.1633 822.6791 688.5985 822.6791 687.5925 822.6791 686.8101 822.4556 686.2513 822.3438 685.4689 822.3438 684.6865 822.4556 682.7864 822.4556 682.004 822.3438 681.3333 822.1202 680.7745 821.8967 679.9921 821.7849 679.0979 821.8967 677.7567 822.6791 676.9743 823.7968 675.1859 824.0204 674.0682 823.9086 672.9505 822.9026 670.0444 822.4556 667.6972 822.6791 666.356 823.1262 665.5736 824.0204 665.0147 824.8028 664.3441 825.4734 662.7793 825.8087 661.3263 825.5851 656.2966 826.0322 655.0671 827.2617 652.9435 827.3735 651.9375 827.2617 650.708 826.5911 647.9138 826.4793 646.1254 826.5911 644.8959 826.9264 643.89 827.4853 642.9958 830.8384 638.9721 833.7444 634.8365 846.151 630.5892 848.61 631.1481 848.1629 635.7307 848.2747 637.0719 848.8336 638.6367 850.3983 640.2015 852.0749 640.8722 853.5279 641.0957 854.8692 640.8722 857.5517 639.7545 859.2283 639.4191 860.1224 639.4191 868.7288 642.2134 870.9642 643.4429 872.1937 644.7842 872.4173 645.9019 872.4173 646.6843 872.1937 647.3549 871.9702 648.0255 871.9702 648.6961 872.1937 649.3668 872.8644 650.1492 873.7585 650.4845 874.7645 650.5963 878.7882 650.8198 880.353 650.9316 881.2472 651.3787 881.6943 651.8257 881.6943 652.3846 881.5825 653.0552 881.5825 654.1729 882.2531 655.0671 882.812 655.4024 883.4826 655.2906 884.0415 655.0671 884.6003 654.62 885.271 654.0612 885.718 653.5023 886.3887 652.3846 886.9475 651.8257 887.8417 651.1551 889.1829 651.0433 890.0771 651.2669 891.4184 651.9375 892.2008 652.2728 893.2067 652.3846 893.8773 652.2728 895.5539 651.8257 896.4481 651.714 897.0069 651.8257 897.454 652.3846 898.6835 655.5142 899.3541 656.5201 900.1365 657.4143 901.1425 657.8614 909.7488 659.2026 912.9902 660.0968 916.1198 661.4381 918.8023 661.9969 921.5966 661.9969 924.1673 661.7734 927.0734 661.7734 928.6382 661.9969 931.2089 663.1146 931.3207 663.1146 929.8677 667.4737 926.6263 672.1681 925.7321 674.18 920.5906 696.646 919.5847 700.8933 919.3612 703.2405 919.4729 705.3641 920.3671 707.7113 923.2732 712.5175 923.6085 714.8647 922.6025 716.9883 918.8023 720.565 917.4611 722.6887 915.0021 730.848 912.2078 735.3188 910.0842 738.0013 906.9546 741.0191 904.3838 745.6018 903.0426 749.9608 902.819 751.4139 902.819 754.0964 903.2661 756.7789 904.3838 759.0143 905.1662 761.3615 904.8309 764.3793 904.1603 767.3971 904.1603 767.6207 903.9367 769.8561 905.7251 773.8799 906.0604 776.3388 904.3838 777.4565 900.3601 777.233 899.3541 778.4625 899.3541 781.7039 901.366 788.1866 901.7013 790.6455 902.2602 792.3221 904.8309 795.5635 905.5015 797.0165 905.3898 799.8108 904.2721 801.9344 903.0426 803.9463 902.4837 805.9582 903.3779 811.6585 903.4897 813.8939 902.4837 815.7941 901.4778 816.1294 898.7953 816.3529 897.9011 816.8 897.2305 818.1413 897.2305 819.3707 897.6776 820.712 898.2364 824.4004 899.3541 828.4242 899.3541 831.2185 897.0069 839.266 897.454 841.1661 899.4659 843.6251 899.913 845.1899 899.1306 846.6429 897.9011 848.4312 897.0069 850.1078 896.8952 850.4431Z" />
  <path class="Amambay" d="M652.5634 364.2385L655.1341 361.4442 655.9165 360.3265 656.0283 359.5441 656.4754 359.3206 657.9284 359.8794 658.8226 359.7677 662.511 358.6499 663.2934 358.7617 663.5169 359.3206 663.7405 359.5441 664.8582 358.8735 665.4171 357.9793 666.3112 355.8557 666.8701 355.2968 668.7702 356.3028 672.5704 360.7736 674.3587 361.2207 674.8058 360.2147 673.6881 357.9793 674.3587 357.3087 675.5882 356.8616 676.4824 356.5263 680.2826 353.6202 681.5121 352.279 683.4122 348.9259 683.6358 348.5905 684.5299 348.1435 684.8652 347.6964 685.5359 345.7963 685.8712 345.0139 687.5477 342.4431 688.5537 341.3254 689.7832 340.3195 691.6833 339.7606 699.8426 338.3076 701.4074 338.4194 702.5251 339.6488 705.5429 347.1375 708.1136 351.0495 711.5785 354.4026 717.8377 358.2029 721.1909 361.4442 723.091 362.5619 724.9911 363.1208 744.3275 364.015 745.7805 363.6796 747.2336 362.7855 748.7983 363.5679 750.3631 364.9091 752.1515 365.8033 759.0813 366.4739 761.205 367.7034 761.4285 366.8092 762.658 364.3503 768.3583 372.0625 772.9409 375.5274 774.0586 376.7569 774.9528 379.6629 775.3999 389.9459 776.1823 394.4167 778.0824 398.3287 780.9884 401.4583 784.6769 403.582 787.0241 404.3644 788.4771 405.2585 789.3713 406.7116 789.7066 409.2823 789.5948 410.1765 788.9242 412.1883 788.8124 413.1943 789.1477 414.312 789.8184 416.2121 789.9301 417.3298 788.8124 421.3536 786.8006 424.8185 785.3475 428.5069 785.6828 433.0895 788.1418 442.4783 788.1418 444.602 787.4712 448.7375 787.6947 450.7494 790.7125 454.2143 791.942 456.1144 792.5009 458.4616 791.942 462.9325 792.0538 464.9443 793.2833 466.5091 796.4129 468.521 796.7482 469.527 799.2072 478.6922 799.2072 480.7041 796.6364 486.2926 796.1893 488.3045 796.9717 490.987 800.4366 494.6755 801.6661 497.0227 801.4426 500.7111 798.4248 507.5292 798.7601 511.7765 799.4307 515.4649 799.3189 515.4649 798.313 516.3591 797.1953 518.1474 795.1834 523.6242 794.2892 528.3186 793.5068 529.5481 792.2773 530.7776 787.5829 533.4601 786.6888 533.9072 785.6828 534.1307 782.4415 534.2425 780.8767 534.9131 778.4177 536.3661 766.7935 544.9725 762.0991 547.655 760.8696 548.7727 759.3048 551.567 758.6342 552.3494 757.6283 553.02 754.7222 554.2495 751.9279 554.9201 747.9042 555.2554 747.01 555.5908 746.1158 556.1496 745.4452 556.3732 744.8864 556.4849 744.104 556.3732 743.4333 556.1496 741.8685 555.3672 740.5273 554.473 741.3097 554.2495 742.4274 553.8024 746.2276 551.0081 746.4512 550.7846 746.6747 550.3375 747.2336 548.2139 749.1337 544.6372 749.6925 543.4077 749.8043 542.7371 749.9161 541.9547 749.9161 538.8251 749.5807 535.8073 749.1337 533.9072 749.0219 533.3483 749.2454 532.7894 751.7044 529.4363 752.9339 528.095 753.6045 527.0891 754.3869 525.4125 754.4987 524.6301 754.6105 523.9595 754.1634 519.4887 754.2751 517.9239 754.6105 516.4708 754.6105 515.912 754.2751 515.4649 753.1574 515.2414 751.5926 515.3531 744.7746 516.6944 743.7686 517.1415 743.3216 517.4768 743.2098 518.1474 743.2098 519.9358 743.098 520.9417 742.7627 521.7241 742.4274 522.3947 741.7568 522.73 740.5273 523.4007 739.7449 523.9595 738.0683 525.3008 737.3977 525.6361 736.8388 525.7479 735.7211 524.8537 734.2681 523.2889 732.2562 519.7122 731.362 517.7003 730.8032 516.0238 730.5796 515.0178 730.5796 514.1237 730.915 513.5648 740.192 505.8526 741.1979 504.7349 741.8685 503.6172 742.2039 503.0583 742.3156 502.3877 742.3156 501.9406 742.0921 501.27 741.7568 500.3758 741.3097 499.5934 740.8626 499.1463 738.9625 497.4697 738.4036 496.6873 738.2919 496.1285 738.4036 495.4579 738.9625 494.2284 739.2978 493.446 739.2978 492.6636 739.0743 491.8812 738.5154 491.0988 737.6212 490.2046 736.7271 489.6458 735.0505 489.3105 730.3561 488.9751 728.9031 488.7516 727.1147 488.1927 726.5559 488.3045 725.5499 488.8634 724.2087 489.0869 721.8615 489.534 719.7378 490.0928 717.1671 491.4341 715.9376 492.44 715.0435 492.8871 714.4846 492.9989 713.3669 492.1047 713.9257 491.6576 714.0375 491.4341 714.2611 490.987 714.3728 490.6517 714.7081 489.4222 715.0435 486.4044 715.1552 485.7338 715.4905 485.1749 715.8259 484.7278 716.1612 484.2807 716.6083 483.8337 717.726 483.2748 718.0613 482.8277 718.6201 481.5982 718.8437 481.0394 719.2908 480.5923 719.7378 480.257 720.7438 479.5864 724.9911 477.2392 725.5499 476.7921 725.7735 476.1215 725.6617 475.2273 725.2146 473.4389 725.2146 472.433 725.3264 471.6506 725.4382 470.98 725.6617 470.3094 725.997 469.8623 726.5559 469.4152 727.1147 469.1916 727.5618 468.8563 727.6736 468.2975 727.4501 467.068 727.4501 466.2856 727.5618 465.615 727.7854 465.0561 728.2325 464.8326 728.7913 464.8326 729.909 465.3914 730.4679 465.5032 731.1385 465.5032 731.6974 465.2796 732.1444 464.8326 732.368 464.2737 732.4798 463.6031 732.5915 459.244 732.8151 457.9028 732.7033 457.1204 716.6083 414.9826 716.2729 414.312 715.7141 413.6414 714.0375 412.9707 713.3669 412.859 712.808 412.859 712.2492 412.9707 711.6903 413.1943 708.7843 415.4297 708.3372 415.765 707.7783 415.9886 706.4371 416.3239 705.8782 416.5474 705.3194 416.8827 704.8723 417.3298 704.537 417.8887 703.1957 420.1241 702.5251 421.13 702.078 421.5771 701.6309 421.9124 700.5132 422.4713 699.8426 422.6948 693.9187 423.7008 693.3598 423.9243 692.801 424.2596 691.9068 424.9303 691.2362 425.7127 691.0127 425.9362 690.9009 426.1597 690.5656 427.1657 690.342 427.9481 690.0067 430.2953 689.7832 430.9659 689.4479 431.5248 688.2184 433.0895 687.436 434.8779 686.9889 435.325 686.43 435.6603 685.2006 435.8838 682.9651 436.8898 682.4063 437.1133 681.7356 437.2251 680.9532 437.1133 680.2826 436.8898 679.612 436.4427 678.9414 435.8838 677.9354 434.7661 677.153 434.319 676.4824 434.2073 675.9235 434.4308 675.0294 435.325 674.5823 435.5485 674.0234 435.7721 671.8998 435.9956 670.335 435.9956 669.6644 435.9956 669.2173 435.8838 669.2173 435.4367 669.4408 433.9837 670.1114 433.0895 670.7821 432.1954 673.3528 430.5188 673.7999 429.7364 673.9117 428.5069 673.241 426.2715 672.3469 421.3536 671.4527 419.0064 670.5585 417.4416 669.7761 416.5474 669.2173 416.1003 668.5466 415.765 668.0996 415.2062 667.7642 414.312 668.0996 412.5237 668.2113 411.6295 667.9878 410.7353 666.8701 409.3941 666.423 408.4999 666.1994 407.3822 666.3112 406.0409 666.6465 405.035 666.8701 403.9173 666.9818 402.4642 666.6465 400.2288 666.7583 397.8816 666.6465 397.211 666.0877 394.752 666.0877 393.8579 666.3112 393.299 667.4289 392.5166 667.876 391.846 667.9878 390.84 667.4289 388.2693 667.5407 387.3751 667.876 386.7045 668.3231 386.0339 668.882 385.3633 672.4586 382.9043 673.3528 382.2337 678.159 375.3039 678.7178 374.8568 681.4003 373.5155 681.8474 373.0684 677.2648 371.2801 653.5693 365.3562 652.5634 364.2385Z" />
  <path class="Asunción" d="M567.8408 746.2724L563.0347 742.4722 563.0347 741.0191 559.5697 732.301 559.5697 732.1892 561.9169 729.1714 563.2582 728.0537 564.9348 727.0477 568.0644 726.0418 569.5174 725.3712 572.1999 728.0537 573.8765 731.1833 574.4353 735.7659 573.3176 740.7956 570.5233 743.8134 567.8408 746.2724Z" />
  <path class="Boquerón" d="M82.4186 96.6583L83.9834 97.9996 94.3781 104.7058 303.8373 166.8506 311.6613 170.2037 314.5673 172.4392 312.3319 181.8279 312.3319 182.275 312.4437 183.0574 312.8908 183.7281 315.238 186.8576 316.5792 189.2048 317.1381 190.7696 317.9205 193.5639 317.9205 194.6816 317.9205 195.6876 317.4734 198.8172 317.5851 199.8231 317.8087 200.7173 320.1559 204.8528 326.1915 213.2356 326.8622 214.3534 327.8681 216.9241 332.4507 247.7729 332.5625 249.0024 332.4507 250.0084 332.2272 250.7908 332.1154 251.4614 331.7801 252.0202 331.4448 252.3556 330.8859 252.9144 319.4853 259.7325 317.8087 261.1855 316.1321 262.9738 315.4615 263.9798 315.0144 265.2092 304.8432 310.5883 303.2784 315.3945 303.0549 316.9593 303.0549 318.077 304.8432 329.2541 304.955 332.9426 305.2903 334.1721 306.2963 334.6191 316.691 334.2838 322.8384 333.2779 363.4113 334.8427 366.6527 335.9604 372.1295 339.3135 376.1532 351.273 376.3768 352.9496 376.0415 353.6202 374.3649 355.185 367.4351 359.4323 364.7526 360.7736 364.082 360.7736 363.4113 360.5501 362.4054 359.9912 361.623 359.4323 360.5053 358.3146 359.6111 357.7558 358.4934 357.0851 356.9286 357.5322 355.3638 358.0911 343.8514 365.0209 342.3983 366.4739 341.3924 367.8152 340.8336 369.1564 340.61 369.9388 340.3865 371.1683 340.4982 372.0625 340.7218 372.9567 342.1748 375.8627 342.2866 376.6451 342.1748 377.5393 341.3924 379.2158 340.1629 379.8865 338.4864 380.3336 332.0036 380.3336 330.2153 380.6689 328.5387 381.4513 327.8681 382.4572 327.6446 383.9102 328.3152 389.4988 328.3152 390.0576 328.0916 391.846 327.421 393.4108 305.7374 425.8244 304.6197 428.1716 304.2844 430.1835 304.2844 433.3131 304.0608 434.8779 302.9431 438.7899 302.7196 440.1311 303.1667 446.2785 302.9431 451.8671 303.7255 457.6792 303.502 459.6911 302.9431 462.1501 299.8135 470.5329 299.8135 471.3153 300.1488 472.2095 301.043 474.3331 301.3783 475.6744 301.043 477.798 299.8135 481.3747 294.6721 491.6576 293.3308 496.0167 292.2131 500.8229 291.2072 511.7765 290.313 512.4471 279.1359 518.4827 276.4534 519.4887 272.5414 520.2711 236.2157 522.2829 234.6509 522.6183 233.1979 523.1771 229.6212 525.189 225.7092 526.8656 217.5499 528.2068 216.0969 528.6539 214.1968 529.6598 213.1909 530.6658 212.5202 531.7835 211.7378 536.1426 211.2908 537.5956 209.8377 540.1663 209.5024 540.9487 209.3906 541.7311 209.9495 557.4909 206.7081 557.6026 204.3609 557.2673 201.2314 555.3672 197.4311 552.2376 193.2956 550.2257 189.0483 551.4552 185.4716 549.108 184.4657 548.1021 182.7891 545.4196 182.1185 544.6372 181.8949 543.0724 180.5537 540.5017 178.7653 538.1545 175.8593 536.4779 173.8474 533.2365 172.8415 532.1188 173.8474 530.1069 174.2945 527.3127 173.8474 524.8537 172.5062 523.736 170.4943 523.0653 168.8177 521.6123 167.3647 519.9358 165.9117 518.7063 165.1293 518.5945 162.8938 518.818 162.1114 518.7063 161.1055 518.0356 158.9818 515.8002 157.8641 515.3531 155.6287 514.6825 154.3992 513.0059 153.7286 510.9941 152.8344 509.4293 145.5693 506.1879 142.9986 506.0761 141.4338 505.629 140.3161 504.8466 138.9748 503.6172 137.2982 502.3877 135.5099 501.6053 133.3862 501.27 131.0391 501.1582 129.9213 500.4876 128.9154 497.5815 127.1271 496.4638 127.2388 495.2343 127.7977 493.7813 128.2448 492.7754 126.2329 492.7754 125.0034 492.5518 123.9975 491.993 118.2971 485.9573 116.6206 485.1749 111.3673 485.1749 109.9143 484.7278 108.9084 484.169 107.12 482.1571 105.5552 481.1512 103.9904 480.3688 102.6492 479.3628 102.2021 477.2392 102.0903 474.892 101.755 473.5507 101.0844 472.3212 99.8549 470.8682 98.6254 469.8623 96.1664 468.4092 94.8252 467.1798 92.2545 463.4913 91.3603 462.5971 78.8419 454.8849 74.9299 450.4141 73.3651 448.0669 73.3651 447.6198 73.0298 446.9492 73.5887 444.1549 73.3651 443.0372 72.0239 441.1371 70.012 436.6662 68.3354 434.2073 65.9882 431.6365 64.9823 430.2953 64.5352 428.8422 63.9763 428.7305 62.8586 428.0598 61.8527 427.1657 61.7409 426.7186 60.9585 426.2715 60.5114 425.3773 60.2879 424.2596 59.8408 423.3655 56.823 420.0123 56.0406 418.6711 55.5935 417.3298 54.8111 416.3239 53.3581 415.8768 52.911 415.2062 54.2523 412.3001 52.1286 410.9589 52.1286 409.3941 52.911 406.7116 52.3521 405.4821 51.9051 405.2585 51.2344 405.3703 49.8932 404.9232 47.0989 403.6937 45.6459 402.4642 45.6459 400.8994 47.2107 398.7758 47.8813 396.6521 46.9871 394.5285 44.4164 391.6224 43.8575 391.3989 43.0751 391.5107 42.4045 391.2871 42.181 390.5047 42.181 389.1635 42.0692 388.4928 41.7339 387.934 40.9515 387.3751 39.722 387.0398 35.6982 386.481 34.9158 386.3692 32.6804 385.5868 24.8564 380.11 22.9563 378.2099 22.1739 376.3098 21.168 375.5274 16.6971 374.0744 15.2441 373.5155 12.5616 369.9388 10.6615 368.2623 7.979 367.5916 6.7495 367.4799 5.1847 367.0328 3.8435 366.2504 3.0611 365.1327 3.2846 364.1267 3.9552 363.009 4.4023 361.7795 3.7317 360.103 4.5141 360.103 3.9552 359.2088 3.1728 358.4264 2.1669 357.8675 1.0492 357.644 3.6199 351.6084 6.7495 340.0959 9.7673 329.3659 14.5735 312.9355 18.709 299.2994 23.9623 281.7514 27.7625 269.0095 31.898 254.9263 35.81 241.5138 39.4985 228.9954 43.0751 216.7006 43.5222 208.7648 43.2987 191.2167 43.1869 179.7043 42.9634 169.1978 42.8516 158.2442 43.8575 155.1146 47.8813 148.8554 50.3403 145.2788 52.6875 141.8139 57.7172 134.5487 62.7469 127.2836 67.7766 120.0185 72.8063 112.7534 74.7064 109.8473 76.4947 107.053 78.3948 104.2587 80.2949 101.3527 81.748 98.2231 82.4186 96.6583Z" />
  <path class="Caaguazú" d="M833.7444 634.8365L830.8384 638.9721 827.4853 642.9958 826.9264 643.89 826.5911 644.8959 826.4793 646.1254 826.5911 647.9138 827.2617 650.708 827.3735 651.9375 827.2617 652.9435 826.0322 655.0671 825.5851 656.2966 825.8087 661.3263 825.4734 662.7793 824.8028 664.3441 824.0204 665.0147 823.1262 665.5736 822.6791 666.356 822.4556 667.6972 822.9026 670.0444 823.9086 672.9505 824.0204 674.0682 823.7968 675.1859 822.6791 676.9743 821.8967 677.7567 821.7849 679.0979 821.8967 679.9921 822.1202 680.7745 822.3438 681.3333 822.4556 682.004 822.4556 682.7864 822.3438 684.6865 822.3438 685.4689 822.4556 686.2513 822.6791 686.8101 822.6791 687.5925 822.6791 688.5985 822.232 690.1633 822.3438 691.281 822.5673 692.0634 823.9086 694.0752 824.4674 695.193 824.9145 696.3107 825.3616 697.5402 825.6969 698.099 826.0322 698.5461 826.8146 699.4403 827.3735 699.7756 827.8206 700.1109 828.4912 700.4462 829.1618 700.558 829.9442 700.6697 830.7266 700.6697 832.7385 700.3344 833.4091 700.4462 833.968 700.6697 834.4151 701.1168 834.7504 701.5639 835.1975 702.011 835.7563 702.2345 836.3152 702.2345 836.9858 702.1228 837.6564 702.1228 838.1035 702.3463 838.5506 702.7934 839.1095 703.6876 848.1629 712.2939 857.6635 719.2238 857.9988 719.5591 858.3341 720.1179 858.4459 720.7886 858.3341 721.571 857.6635 723.9182 857.6635 724.5888 857.887 725.1476 858.2223 725.5947 858.6694 725.93 859.2283 726.2653 862.2461 727.4948 862.805 727.8301 863.1403 728.389 863.252 728.9479 862.9167 731.1833 862.9167 731.9657 863.0285 732.6363 863.3638 733.1952 863.5873 733.754 864.3697 734.76 864.5933 735.3188 864.8168 735.9894 864.9286 736.6601 864.9286 738.2249 862.4696 739.0073 859.4518 738.8955 856.5458 738.4484 855.0927 735.7659 854.8692 734.0893 854.4221 732.6363 853.5279 731.6304 851.9631 730.9597 850.063 730.5127 849.1689 730.2891 848.2747 729.6185 847.6041 728.8361 846.4864 727.0477 845.8157 726.2653 845.9275 727.6066 846.4864 730.0656 846.5981 731.295 845.3686 731.4068 843.9156 730.9597 841.2331 730.0656 840.1154 729.3949 837.2094 726.4889 835.0857 725.0359 833.8562 724.9241 830.5031 728.7243 804.4604 765.2735 802.5603 768.1795 802.3367 769.7443 802.3367 770.3032 802.1132 771.1974 801.5543 771.9798 800.5484 773.2092 799.8778 774.1034 798.8718 774.9976 797.5306 775.78 792.0538 777.9036 789.2595 777.0095 787.9183 775.4447 787.3594 775.2211 786.3535 775.1094 779.5354 777.9036 772.8292 780.0273 769.2525 780.5861 766.3464 780.3626 764.8934 779.4684 763.4404 778.2389 761.0932 775.3329 759.8637 773.9916 758.2989 772.9857 756.0635 771.9798 753.9398 771.6444 741.9803 771.9798 740.192 771.6444 738.8507 770.9738 737.9565 770.0796 736.6153 769.2972 727.5618 768.9619 724.3205 768.4031 722.6439 768.2913 719.5143 768.6266 706.7724 767.956 704.6487 768.1795 702.6369 768.8502 699.2837 770.9738 698.0542 771.5327 696.6012 771.9798 693.0245 772.5386 691.1244 773.321 689.6714 774.2152 684.3064 779.3567 683.1887 780.0273 676.9295 783.0451 674.5823 784.4981 670.8938 784.051 670.335 783.7157 669.329 783.1569 666.8701 780.0273 663.4052 777.4565 662.9581 776.4506 662.8463 776.1153 656.3636 762.7028 655.8047 761.138 655.693 759.9085 656.3636 759.1261 683.8593 739.5661 686.0947 731.8539 691.6833 698.9932 699.8426 690.4986 700.9603 689.7162 704.4252 687.8161 705.5429 686.6983 706.3253 685.2453 706.8842 684.0158 707.5548 682.7864 708.7843 681.6686 713.5904 678.7626 715.0435 677.3096 716.0494 675.633 716.6083 674.0682 717.3906 672.6152 718.2848 671.2739 719.4025 670.1562 720.632 669.4856 721.638 669.5974 723.091 670.9386 723.5381 672.3916 723.6498 673.7329 723.2028 675.633 723.091 676.5272 723.2028 677.5331 723.4263 678.4273 724.2087 679.3215 725.3264 680.1039 730.4679 682.004 731.2503 682.451 731.9209 683.1217 735.8329 687.4807 740.9744 692.2869 741.9803 692.734 742.9862 691.9516 743.8804 690.4986 748.7983 680.6627 750.4749 678.6508 752.8221 676.7507 761.7638 672.9505 775.0646 669.4856 777.9706 665.7971 781.212 660.8792 782.7768 659.0909 788.3653 654.7318 800.6602 641.431 802.1132 640.5369 804.3486 639.8662 833.7444 634.8365Z" />
  <path class="Caazapá" d="M804.4604 765.2735L808.4842 764.044 809.4901 764.1558 811.0549 764.6029 811.6138 765.1617 811.8373 765.9441 811.8373 766.8383 812.0608 767.956 812.5079 769.0737 813.9609 771.0856 814.5198 771.868 814.6316 772.7622 814.408 773.6563 813.7374 774.6623 810.9431 777.233 810.049 778.4625 809.3783 780.1391 809.2666 783.0451 808.8195 784.7217 807.0311 790.1985 806.584 791.4279 805.9134 792.3221 803.5662 794.2222 803.2309 794.7811 800.9955 799.699 800.2131 801.9344 800.2131 803.2757 800.8837 804.2816 801.3308 805.064 801.7779 806.2935 801.3308 807.6348 801.4426 808.8642 802.1132 811.3232 802.1132 812.5527 801.7779 815.9058 802.1132 817.3589 802.7838 818.253 803.3427 818.7001 807.9253 820.6002 809.4901 821.3826 810.3843 821.7179 811.1667 821.9415 812.6197 821.1591 813.6256 821.0473 816.3081 821.1591 819.5495 820.9355 821.4496 820.4884 825.0263 819.4825 825.6969 819.5943 826.3675 820.0414 826.8146 820.6002 827.2617 821.1591 827.8206 821.8297 828.603 822.3886 829.4971 822.7239 831.6208 822.8356 832.4032 823.0592 833.1856 823.5063 833.8562 824.4004 833.8562 825.5182 833.4091 826.6359 832.515 827.53 826.5911 830.9949 825.1381 830.7714 824.691 830.4361 824.2439 830.3243 823.9086 830.4361 823.685 830.7714 823.4615 831.7773 823.4615 832.6715 823.3497 833.3421 823.1262 834.2363 822.9026 835.2422 823.0144 841.2779 822.6791 842.2838 822.0085 843.4015 821.1143 844.5193 816.5317 849.1019 807.0311 856.4788 805.0193 857.7083 797.4188 860.6143 795.0716 861.0614 793.5068 861.1732 791.942 860.7261 789.9301 860.7261 787.5829 860.9496 782.8886 862.4026 776.2941 865.1969 775.0646 866.6499 774.1704 869.2207 773.388 870.1149 771.2644 871.9032 766.0111 877.4917 764.2228 878.7212 762.3227 879.6154 754.4987 881.0684 748.9101 882.8568 747.2336 884.198 744.7746 887.9982 744.2157 889.2277 743.2098 892.2455 742.0921 893.9221 740.7508 895.4869 739.186 896.8282 738.1801 897.8341 737.5095 899.0636 736.5035 902.9756 735.6094 903.8697 733.821 904.6521 730.3561 905.211 723.5381 907.4464 713.9257 912.5879 700.9603 917.7294 699.0602 917.8411 697.2718 917.3941 695.5953 916.2763 692.1304 913.3703 691.348 912.9232 682.9651 911.0231 682.7416 910.0172 682.7416 909.6818 682.8534 909.123 683.4122 907.7817 683.6358 906.664 683.4122 905.5463 682.4063 904.5404 680.5062 903.9815 676.9295 903.8697 675.3647 903.5344 673.6881 902.752 668.882 899.5107 667.0936 897.8341 664.97 894.481 664.0758 892.6926 663.1816 891.1278 662.511 890.3454 659.2696 888.2218 660.3873 885.4275 661.9521 884.0862 663.2934 883.1921 665.4171 881.292 666.423 879.8389 666.8701 878.2741 666.9818 876.8211 667.4289 875.4799 668.0996 874.3622 669.6644 872.9091 670.1114 871.5679 670.2232 870.3384 669.9997 869.2207 669.8879 867.9912 670.1114 867.2088 670.5585 866.6499 672.9057 864.9734 673.3528 863.9674 673.6881 862.8497 674.0234 858.3789 675.2529 853.6845 676.0353 852.1197 679.9473 847.6488 680.5062 846.5311 681.2886 842.6191 684.977 842.6191 687.7713 842.9545 689.3361 842.2838 690.2303 841.2779 691.0127 835.8011 691.795 833.6774 693.0245 831.5538 694.1422 830.6596 695.707 830.1008 701.1838 829.8772 703.0839 829.2066 703.9781 828.2007 704.4252 826.8594 704.6487 825.4064 704.984 823.9534 705.8782 822.3886 706.8842 821.9415 707.5548 821.9415 708.3372 822.3886 709.1196 822.6121 710.1255 822.5003 715.7141 820.0414 717.2789 819.5943 718.6201 819.5943 719.5143 820.0414 720.0732 820.3767 723.2028 822.9474 727.5618 825.8535 729.6855 826.077 736.0564 822.9474 738.7389 821.0473 738.9625 820.712 739.0743 820.4884 739.4096 819.4825 741.7568 809.8702 742.3156 808.6407 743.3216 807.4112 744.7746 806.7406 748.463 805.7347 749.9161 804.8405 751.9279 802.9404 753.2692 802.3815 757.293 801.4873 758.6342 800.9285 761.3167 798.8048 762.8815 797.7989 772.9409 793.6634 774.3939 792.881 774.9528 792.2103 776.0705 789.7514 776.9647 788.6337 778.6413 787.1806 779.759 786.8453 780.7649 786.9571 781.7708 787.2924 782.7768 787.2924 784.2298 786.9571 785.2358 785.8394 785.9064 784.6099 787.3594 780.6979 788.2536 778.9096 788.5889 778.3507 789.2595 777.0095 792.0538 777.9036 797.5306 775.78 798.8718 774.9976 799.8778 774.1034 800.5484 773.2092 801.5543 771.9798 802.1132 771.1974 802.3367 770.3032 802.3367 769.7443 802.5603 768.1795 804.4604 765.2735Z" />
  <path class="Canindeyú" d="M931.3207 663.1146L931.2089 663.1146 928.6382 661.9969 927.0734 661.7734 924.1673 661.7734 921.5966 661.9969 918.8023 661.9969 916.1198 661.4381 912.9902 660.0968 909.7488 659.2026 901.1425 657.8614 900.1365 657.4143 899.3541 656.5201 898.6835 655.5142 897.454 652.3846 897.0069 651.8257 896.4481 651.714 895.5539 651.8257 893.8773 652.2728 893.2067 652.3846 892.2008 652.2728 891.4184 651.9375 890.0771 651.2669 889.1829 651.0433 887.8417 651.1551 886.9475 651.8257 886.3887 652.3846 885.718 653.5023 885.271 654.0612 884.6003 654.62 884.0415 655.0671 883.4826 655.2906 882.812 655.4024 882.2531 655.0671 881.5825 654.1729 881.5825 653.0552 881.6943 652.3846 881.6943 651.8257 881.2472 651.3787 880.353 650.9316 878.7882 650.8198 874.7645 650.5963 873.7585 650.4845 872.8644 650.1492 872.1937 649.3668 871.9702 648.6961 871.9702 648.0255 872.1937 647.3549 872.4173 646.6843 872.4173 645.9019 872.1937 644.7842 870.9642 643.4429 868.7288 642.2134 860.1224 639.4191 859.2283 639.4191 857.5517 639.7545 854.8692 640.8722 853.5279 641.0957 852.0749 640.8722 850.3983 640.2015 848.8336 638.6367 848.2747 637.0719 848.1629 635.7307 848.61 631.1481 846.151 630.5892 833.7444 634.8365 804.3486 639.8662 802.1132 640.5369 800.6602 641.431 788.3653 654.7318 782.7768 659.0909 781.212 660.8792 777.9706 665.7971 775.0646 669.4856 769.0289 665.7971 767.9112 664.903 767.2406 663.5617 766.4582 661.7734 765.4523 658.9791 763.2168 656.6319 761.3167 655.0671 758.0754 652.9435 756.8459 651.1551 755.6164 648.4726 753.9398 643.3311 751.5926 638.4132 745.6688 630.0304 743.3216 624.6653 742.7627 623.8829 742.0921 623.3241 741.3097 622.877 739.186 622.0946 738.1801 621.6475 737.2859 620.9769 736.28 620.0827 735.4976 619.0768 734.827 617.8473 734.2681 616.3943 733.821 614.4942 733.3739 610.4704 733.0386 609.1292 732.5915 608.0114 731.9209 607.229 729.5737 605.2172 729.3502 603.6524 729.3502 601.3052 730.0208 595.4931 729.909 592.8106 730.3561 590.9105 730.8032 590.2398 732.9268 587.3338 733.3739 586.8867 733.9328 586.5514 734.4916 586.3278 737.1741 585.6572 737.733 585.4337 738.1801 585.0983 739.6331 583.0865 742.2039 580.6275 743.6569 578.7274 745.3334 577.0508 745.7805 576.7155 746.3394 576.492 746.7865 576.492 747.01 576.492 747.7924 576.7155 748.016 575.8213 747.3453 573.0271 740.5273 554.473 741.8685 555.3672 743.4333 556.1496 744.104 556.3732 744.8864 556.4849 745.4452 556.3732 746.1158 556.1496 747.01 555.5908 747.9042 555.2554 751.9279 554.9201 754.7222 554.2495 757.6283 553.02 758.6342 552.3494 759.3048 551.567 760.8696 548.7727 762.0991 547.655 766.7935 544.9725 778.4177 536.3661 780.8767 534.9131 782.4415 534.2425 785.6828 534.1307 786.6888 533.9072 787.5829 533.4601 792.2773 530.7776 793.5068 529.5481 794.2892 528.3186 795.1834 523.6242 797.1953 518.1474 798.313 516.3591 799.3189 515.4649 799.4307 515.4649 799.5425 515.912 799.4307 520.2711 799.766 524.4066 801.8897 527.5362 806.9194 532.9012 809.3783 540.6134 811.0549 564.3089 812.0608 567.4385 814.6316 570.2328 818.0965 571.7976 825.1381 572.2447 828.7147 573.0271 828.7147 573.1388 832.7385 574.5919 836.7623 575.3743 840.786 575.0389 844.5862 573.1388 844.5862 573.0271 847.4923 571.574 854.5339 571.6858 857.9988 570.6799 859.8989 569.6739 863.6991 569.5622 865.5992 569.2268 867.4993 568.1091 869.9583 564.756 871.4113 563.303 878.6765 559.1674 893.3185 554.026 895.2186 553.02 898.0129 549.8904 899.8012 548.9963 902.7073 549.8904 921.7084 560.7322 924.0556 562.4088 930.203 571.127 940.8212 577.4979 943.9508 579.1745 943.9508 579.2862 941.6036 581.0746 937.6916 584.0924 935.0091 587.5573 933.8914 591.3575 934.2267 593.2576 935.6798 597.1696 936.2386 601.864 937.1328 603.3171 939.8153 606.8937 940.7095 609.688 942.1625 613.4882 942.0507 617.0649 941.0448 620.8651 939.5917 623.6594 935.2327 630.1421 934.0032 634.1659 933.8914 637.9661 935.4562 646.349 935.4562 650.3727 931.3207 663.1146Z" />
  <path class="Central" d="M542.9158 801.8227L543.6982 801.2638 544.9277 799.5872 543.2512 795.3399 542.9158 792.9927 544.5924 791.875 546.6043 791.2044 548.7279 789.5278 550.6281 787.516 551.8575 785.9512 550.6281 785.6158 549.6221 785.1688 548.7279 784.4981 548.0573 783.3804 550.4045 779.8037 551.7458 778.4625 554.2047 777.4565 555.4342 777.3448 556.5519 777.4565 557.6696 777.3448 558.7873 776.5624 559.1227 775.6682 559.7933 772.8739 560.0168 772.3151 563.2582 772.7622 565.0465 772.6504 565.8289 771.868 566.276 768.9619 567.5055 768.1795 569.0703 767.7325 570.4116 766.3912 570.9704 764.1558 572.4234 753.314 572.3117 751.3021 571.5293 749.7373 569.9645 747.949 567.8408 746.2724 570.5233 743.8134 573.3176 740.7956 574.4353 735.7659 573.8765 731.1833 572.1999 728.0537 569.5174 725.3712 570.9704 723.8064 572.7587 721.2356 574.2118 718.1061 575.2177 714.6411 575.553 711.5116 576.1119 709.835 577.5649 709.6114 580.6945 710.2821 583.9359 710.2821 586.3948 714.0823 586.8419 714.4176 591.3128 717.3237 592.4305 718.3296 595.7836 724.2535 599.2485 728.0537 600.5898 730.1773 601.2604 731.7421 601.5957 733.6422 602.2663 735.9894 606.1783 743.1428 607.296 744.7076 607.9667 745.2664 608.7491 745.6018 609.5315 745.6018 610.2021 745.3782 610.6492 745.0429 611.4316 744.3723 611.9904 743.9252 612.5493 743.8134 613.2199 743.9252 614.4494 745.2664 616.7966 749.0667 612.214 751.8609 608.9726 754.8788 608.1902 755.7729 598.6897 771.0856 595.113 775.3329 591.0892 779.2449 589.748 781.145 588.5185 783.604 587.1772 787.963 586.7301 791.6515 586.8419 794.4458 589.5244 802.9404 589.748 805.1758 589.3009 807.8583 586.2831 813.6704 583.7123 816.9118 578.4591 821.9415 577.0061 818.4766 574.1 814.6763 573.5411 813.5586 573.2058 812.4409 572.9823 811.0997 572.647 810.3173 572.1999 809.7584 569.8527 808.7525 568.735 808.0818 565.7172 805.5111 563.1464 803.8345 560.5757 801.7109 559.1227 800.0343 557.5579 798.0224 556.6637 797.24 555.9931 796.9047 555.2107 796.9047 552.8635 797.4636 552.1928 797.4636 551.4105 797.3518 549.175 796.5694 548.6162 796.4576 548.0573 796.5694 547.6102 797.0165 547.3867 797.5754 547.2749 798.5813 547.3867 800.705 547.3867 801.4873 547.2749 802.0462 546.6043 802.4933 546.0454 802.7168 543.3629 802.0462 542.9158 801.8227Z" />
  <path class="Concepción" d="M584.83 508.6469L585.2771 507.4174 585.2771 506.5232 584.83 505.2937 584.1594 501.6053 584.0476 500.5993 583.7123 500.0405 582.1475 498.811 581.3651 497.358 579.465 495.5696 578.7944 494.3402 578.4591 492.6636 578.6826 491.7694 579.3532 490.987 580.2474 489.3105 580.8063 488.081 581.0298 487.4103 581.0298 484.7278 580.5827 484.0572 578.7944 482.1571 577.5649 481.2629 574.8824 477.5745 573.8765 476.6803 573.0941 476.1215 568.9585 474.1096 566.6113 472.6565 564.823 470.8682 564.1524 468.8563 564.1524 466.2856 564.0406 464.2737 563.1464 462.7089 561.0228 461.8147 556.5519 461.703 554.7636 461.0323 554.093 458.7969 553.087 457.3439 548.0573 454.8849 546.3807 453.3201 548.8397 448.4022 548.1691 445.9432 546.7161 443.9314 543.0276 440.4664 542.8041 439.237 543.9218 438.1193 545.3748 437.0015 546.3807 435.8838 546.4925 434.4308 546.0454 433.2013 544.9277 431.6365 544.1453 429.5129 543.81 428.954 543.0276 427.9481 541.9099 427.501 539.3392 427.6128 538.3332 427.0539 537.6626 425.7127 537.1037 422.9184 536.4331 421.6889 535.5389 421.13 532.9682 420.3476 531.8505 419.9006 529.3915 416.2121 530.7328 412.5237 534.4212 409.9529 539.5627 409.1705 544.3689 409.9529 546.9396 409.9529 547.9455 408.7234 547.4985 406.1527 546.269 404.1408 543.3629 400.7877 541.7981 397.0992 540.3451 383.3514 539.6745 380.5571 539.3392 379.2158 540.1216 378.3217 542.1334 376.3098 541.6864 374.9685 536.4331 368.374 535.4272 364.3503 534.3095 363.1208 532.1858 362.5619 529.3915 362.4502 527.6032 361.8913 526.5972 360.3265 525.7031 357.644 525.256 354.738 526.4855 347.2493 525.5913 345.2374 524.8089 340.2077 525.7031 339.09 525.8149 339.09 527.0443 340.2077 528.0503 342.1078 529.5033 343.5608 533.3035 344.9021 534.4212 344.9021 536.4331 344.0079 537.2155 343.8961 538.1097 344.455 539.6745 346.2433 540.2333 346.6904 541.5746 346.3551 543.3629 344.7903 544.5924 344.7903 545.7101 345.1256 546.6043 344.9021 547.9455 344.2315 547.722 344.1197 547.722 343.4491 547.9455 342.6667 548.1691 342.3314 548.5044 342.2196 549.6221 342.6667 550.0692 342.6667 552.3046 341.7725 553.7576 341.996 555.3224 342.4431 557.5579 342.4431 558.7873 342.1078 559.6815 341.6607 560.4639 341.4372 561.4699 341.8843 563.2582 346.8022 564.5994 349.2612 566.0525 350.7142 567.9526 351.1613 570.6351 350.826 571.641 350.3789 572.0881 350.0436 572.647 349.9318 574.1 350.0436 574.9942 350.3789 577.5649 352.1672 581.924 351.0495 582.9299 351.0495 585.1653 352.0554 586.3948 352.0554 588.0714 352.7261 591.7598 355.0733 592.4305 355.0733 592.8776 354.4026 593.7717 354.6262 595.5601 355.5204 596.7895 355.5204 597.3484 354.8497 597.5719 354.1791 597.6837 353.732 599.4721 353.9556 604.5018 355.185 606.6254 354.738 609.4197 352.3908 610.9845 352.0554 611.4316 352.5025 611.7669 354.4026 612.5493 355.0733 613.667 355.0733 614.3376 354.8497 615.0083 354.4026 615.7906 354.1791 617.579 354.4026 621.0439 355.7439 622.0498 356.3028 622.0498 356.5263 622.1616 357.0851 622.7205 357.5322 624.7323 357.8675 625.403 358.0911 626.0736 358.2029 626.856 357.7558 628.1972 357.4205 631.7739 357.7558 633.674 357.5322 636.4683 358.5382 637.6978 358.5382 638.9273 357.7558 638.8155 359.6559 639.3744 360.103 640.2685 359.9912 641.3862 359.9912 643.3981 360.9971 644.5158 361.1089 645.7453 357.9793 647.0866 359.7677 648.2043 362.7855 648.4278 364.3503 651.1103 364.7974 652.5634 364.2385 653.5693 365.3562 677.2648 371.2801 681.8474 373.0684 681.4003 373.5155 678.7178 374.8568 678.159 375.3039 673.3528 382.2337 672.4586 382.9043 668.882 385.3633 668.3231 386.0339 667.876 386.7045 667.5407 387.3751 667.4289 388.2693 667.9878 390.84 667.876 391.846 667.4289 392.5166 666.3112 393.299 666.0877 393.8579 666.0877 394.752 666.6465 397.211 666.7583 397.8816 666.6465 400.2288 666.9818 402.4642 666.8701 403.9173 666.6465 405.035 666.3112 406.0409 666.1994 407.3822 666.423 408.4999 666.8701 409.3941 667.9878 410.7353 668.2113 411.6295 668.0996 412.5237 667.7642 414.312 668.0996 415.2062 668.5466 415.765 669.2173 416.1003 669.7761 416.5474 670.5585 417.4416 671.4527 419.0064 672.3469 421.3536 673.241 426.2715 673.9117 428.5069 673.7999 429.7364 673.3528 430.5188 670.7821 432.1954 670.1114 433.0895 669.4408 433.9837 669.2173 435.4367 669.2173 435.8838 669.6644 435.9956 670.335 435.9956 671.8998 435.9956 674.0234 435.7721 674.5823 435.5485 675.0294 435.325 675.9235 434.4308 676.4824 434.2073 677.153 434.319 677.9354 434.7661 678.9414 435.8838 679.612 436.4427 680.2826 436.8898 680.9532 437.1133 681.7356 437.2251 682.4063 437.1133 682.9651 436.8898 685.2006 435.8838 686.43 435.6603 686.9889 435.325 687.436 434.8779 688.2184 433.0895 689.4479 431.5248 689.7832 430.9659 690.0067 430.2953 690.342 427.9481 690.5656 427.1657 690.9009 426.1597 691.0127 425.9362 691.2362 425.7127 691.9068 424.9303 692.801 424.2596 693.3598 423.9243 693.9187 423.7008 699.8426 422.6948 700.5132 422.4713 701.6309 421.9124 702.078 421.5771 702.5251 421.13 703.1957 420.1241 704.537 417.8887 704.8723 417.3298 705.3194 416.8827 705.8782 416.5474 706.4371 416.3239 707.7783 415.9886 708.3372 415.765 708.7843 415.4297 711.6903 413.1943 712.2492 412.9707 712.808 412.859 713.3669 412.859 714.0375 412.9707 715.7141 413.6414 716.2729 414.312 716.6083 414.9826 732.7033 457.1204 732.8151 457.9028 732.5915 459.244 732.4798 463.6031 732.368 464.2737 732.1444 464.8326 731.6974 465.2796 731.1385 465.5032 730.4679 465.5032 729.909 465.3914 728.7913 464.8326 728.2325 464.8326 727.7854 465.0561 727.5618 465.615 727.4501 466.2856 727.4501 467.068 727.6736 468.2975 727.5618 468.8563 727.1147 469.1916 726.5559 469.4152 725.997 469.8623 725.6617 470.3094 725.4382 470.98 725.3264 471.6506 725.2146 472.433 725.2146 473.4389 725.6617 475.2273 725.7735 476.1215 725.5499 476.7921 724.9911 477.2392 720.7438 479.5864 719.7378 480.257 719.2908 480.5923 718.8437 481.0394 718.6201 481.5982 718.0613 482.8277 717.726 483.2748 716.6083 483.8337 716.1612 484.2807 715.8259 484.7278 715.4905 485.1749 715.1552 485.7338 715.0435 486.4044 714.7081 489.4222 714.3728 490.6517 714.2611 490.987 714.0375 491.4341 713.9257 491.6576 713.3669 492.1047 709.6784 493.6695 708.3372 495.3461 707.3312 496.9109 705.8782 498.1404 704.3134 499.5934 701.6309 500.9347 700.8485 501.0464 700.1779 500.9347 699.3955 500.8229 698.5013 500.8229 693.9187 502.0524 689.0008 504.5113 688.2184 504.8466 687.1007 504.8466 685.5359 505.0702 681.9592 505.8526 680.2826 506.0761 679.1649 505.9644 678.4943 505.0702 677.4883 504.7349 676.1471 504.6231 673.241 504.9584 671.788 504.9584 670.6703 504.8466 667.9878 503.3936 666.8701 503.1701 665.1935 503.1701 658.7108 503.5054 653.0105 502.1641 650.3279 501.8288 649.322 501.9406 648.6514 502.1641 647.6454 503.1701 646.9748 503.6172 646.1924 503.8407 645.1865 503.9525 642.3922 503.7289 641.1627 503.9525 639.7097 504.2878 637.4743 505.2937 636.6919 505.5173 635.9095 505.5173 635.0153 505.182 634.2329 504.9584 633.0034 504.8466 632.221 504.9584 631.5504 505.182 630.9915 505.5173 630.5444 505.8526 629.762 506.4114 624.8441 507.9762 616.7966 509.2057 611.5433 509.2057 610.4256 509.3175 609.5315 509.6528 607.6314 510.6587 605.3959 511.5529 604.1664 511.7765 603.384 511.8882 603.0487 511.7765 595.5601 512.3353 594.8894 512.2235 593.66 512 593.1011 511.7765 590.195 510.0999 589.6362 509.8763 589.0773 509.541 587.7361 508.9822 584.83 508.6469Z" />
  <path class="Cordillera" d="M583.9359 710.2821L587.5125 710.2821 588.4067 709.7232 590.5304 707.376 591.4245 706.8172 592.5422 706.5936 593.8835 706.0348 595.2248 705.2524 596.3425 704.3582 601.8193 697.0931 602.937 694.187 605.5077 693.8517 608.6373 694.6341 610.9845 694.9694 612.9964 696.4224 620.3733 699.7756 624.1735 700.8933 626.2971 701.1168 628.309 701.0051 630.5444 700.1109 631.7739 699.3285 632.4446 698.5461 632.6681 697.9872 632.6681 697.4284 632.6681 696.8695 632.5563 696.0871 632.4446 695.64 632.5563 694.9694 632.6681 694.2988 632.8916 693.8517 633.227 693.4046 634.2329 692.734 635.1271 692.2869 636.5801 691.8398 654.3517 688.4867 660.4991 686.6983 668.0996 685.8042 669.7761 686.0277 680.2826 690.275 682.1827 691.6163 686.3183 696.3107 686.8771 696.646 687.436 697.0931 691.6833 698.9932 686.0947 731.8539 683.8593 739.5661 656.3636 759.1261 655.693 759.9085 655.8047 761.138 656.3636 762.7028 662.8463 776.1153 662.9581 776.4506 663.4052 777.4565 658.7108 775.5564 657.8166 775.4447 656.6989 775.3329 655.4694 776.0035 654.3517 776.6741 653.5693 777.3448 652.8987 777.7919 652.1163 778.2389 651.2221 778.4625 650.4397 778.5743 646.9748 778.3507 646.0806 778.0154 645.2982 777.5683 644.9629 776.6741 645.0747 776.2271 645.41 775.78 646.863 774.5505 648.2043 772.9857 648.5396 772.3151 648.6514 771.7562 648.6514 771.1974 648.5396 770.7503 647.869 769.2972 647.5337 768.2913 646.9748 765.1617 646.5277 764.1558 645.8571 763.2616 644.4041 762.9263 643.2864 762.8145 634.9035 763.3734 634.0094 763.2616 631.9975 762.8145 629.4267 761.9204 628.0855 761.6968 625.0677 761.585 623.2793 760.3556 622.2734 759.3496 616.7966 749.0667 614.4494 745.2664 613.2199 743.9252 612.5493 743.8134 611.9904 743.9252 611.4316 744.3723 610.6492 745.0429 610.2021 745.3782 609.5315 745.6018 608.7491 745.6018 607.9667 745.2664 607.296 744.7076 606.1783 743.1428 602.2663 735.9894 601.5957 733.6422 601.2604 731.7421 600.5898 730.1773 599.2485 728.0537 595.7836 724.2535 592.4305 718.3296 591.3128 717.3237 586.8419 714.4176 586.3948 714.0823 583.9359 710.2821Z" />
  <path class="Guairá" d="M674.5823 784.4981L676.9295 783.0451 683.1887 780.0273 684.3064 779.3567 689.6714 774.2152 691.1244 773.321 693.0245 772.5386 696.6012 771.9798 698.0542 771.5327 699.2837 770.9738 702.6369 768.8502 704.6487 768.1795 706.7724 767.956 719.5143 768.6266 722.6439 768.2913 724.3205 768.4031 727.5618 768.9619 736.6153 769.2972 737.9565 770.0796 738.8507 770.9738 740.192 771.6444 741.9803 771.9798 753.9398 771.6444 756.0635 771.9798 758.2989 772.9857 759.8637 773.9916 761.0932 775.3329 763.4404 778.2389 764.8934 779.4684 766.3464 780.3626 769.2525 780.5861 772.8292 780.0273 779.5354 777.9036 786.3535 775.1094 787.3594 775.2211 787.9183 775.4447 789.2595 777.0095 788.5889 778.3507 788.2536 778.9096 787.3594 780.6979 785.9064 784.6099 785.2358 785.8394 784.2298 786.9571 782.7768 787.2924 781.7708 787.2924 780.7649 786.9571 779.759 786.8453 778.6413 787.1806 776.9647 788.6337 776.0705 789.7514 774.9528 792.2103 774.3939 792.881 772.9409 793.6634 762.8815 797.7989 761.3167 798.8048 758.6342 800.9285 757.293 801.4873 753.2692 802.3815 751.9279 802.9404 749.9161 804.8405 748.463 805.7347 744.7746 806.7406 743.3216 807.4112 742.3156 808.6407 741.7568 809.8702 739.4096 819.4825 739.0743 820.4884 738.9625 820.712 738.7389 821.0473 736.0564 822.9474 729.6855 826.077 727.5618 825.8535 723.2028 822.9474 720.0732 820.3767 719.5143 820.0414 718.6201 819.5943 717.2789 819.5943 715.7141 820.0414 710.1255 822.5003 709.1196 822.6121 708.3372 822.3886 707.5548 821.9415 706.8842 821.9415 705.8782 822.3886 704.984 823.9534 704.6487 825.4064 704.4252 826.8594 703.9781 828.2007 703.0839 829.2066 701.1838 829.8772 695.707 830.1008 694.1422 830.6596 693.0245 831.5538 691.795 833.6774 691.0127 835.8011 690.2303 841.2779 689.3361 842.2838 687.7713 842.9545 684.977 842.6191 681.2886 842.6191 673.7999 828.6477 673.1293 827.0829 672.6822 825.2946 672.1233 820.4884 672.0116 820.2649 671.8998 819.5943 672.1233 818.8119 672.6822 817.9177 673.4646 817.4706 678.2707 816.3529 679.3884 815.6823 679.9473 814.4528 679.9473 812.5527 678.8296 809.0878 677.8237 807.1877 675.2529 803.7228 674.3587 802.3815 673.5763 800.4814 672.4586 796.5694 671.788 792.7692 671.6762 790.5338 671.8998 788.5219 672.6822 786.2865 674.5823 784.4981Z" />
  <path class="Itapúa" d="M826.5911 830.9949L830.3913 843.178 832.7385 845.4134 841.0096 844.9663 843.245 845.0781 844.1392 845.1899 845.2569 845.5252 848.1629 846.7547 851.7396 847.6488 852.9691 848.4312 854.6457 849.6607 855.5398 850.1078 856.2105 850.2196 856.6575 849.8843 856.9928 849.6607 857.1046 849.4372 857.4399 848.543 857.887 847.8724 858.6694 847.09 862.3579 846.7547 863.9227 846.4194 864.5933 846.084 865.3757 845.637 866.1581 844.8546 866.6052 844.2957 868.2817 841.1661 869.0641 839.9366 869.7348 839.266 870.2936 838.8189 870.9642 838.4836 871.4113 838.4836 871.8584 838.7072 871.9702 839.0425 872.082 839.6013 871.9702 840.2719 871.5231 842.0603 871.4113 842.9545 871.7466 843.5133 872.7526 844.4075 873.6468 844.631 874.4292 844.631 875.0998 844.4075 875.7704 843.9604 877.2234 842.6191 878.2294 842.1721 879.1235 841.8367 880.8001 841.8367 883.0355 842.2838 884.6003 842.9545 886.724 843.9604 887.3946 844.4075 887.8417 844.8546 888.0652 845.1899 888.177 845.7487 888.177 846.4194 888.0652 847.2018 888.0652 848.0959 888.2888 848.8783 888.9594 849.6607 890.1889 849.8843 896.5598 850.4431 896.7834 850.4431 896.8952 850.4431 896.7834 851.002 897.0069 853.4609 897.0069 859.1613 895.3304 863.0733 895.1068 863.7439 894.7715 864.4145 893.7656 872.1267 893.2067 874.1386 892.2008 875.8152 888.7359 879.8389 885.6063 882.4097 883.9297 884.4216 882.9238 886.7688 883.0355 888.4453 883.5944 890.2337 883.9297 892.5809 883.8179 895.4869 883.3708 898.5047 882.4767 901.299 880.9119 903.4227 879.7942 903.9815 879.1235 903.6462 878.6765 902.9756 877.7823 902.5285 872.8644 902.5285 870.1818 903.1991 868.2817 904.9875 867.0523 907.4464 865.5992 913.2585 864.8168 915.4939 863.6991 917.2823 862.0226 919.2942 860.2342 920.1883 854.7574 920.6354 852.4102 921.4178 845.1451 928.7947 844.3627 930.9184 845.9275 935.9481 845.5922 938.6306 843.8039 940.1954 841.1213 940.6425 836.7623 940.3072 834.9739 939.8601 832.962 938.7424 830.5031 937.7364 827.8206 937.7364 822.3438 940.7542 817.0905 941.4249 814.8551 942.0955 812.8432 943.4367 810.9431 945.5604 809.6019 947.9076 808.9312 950.4783 808.7077 956.2904 807.4782 958.3023 804.6839 958.5259 801.6661 958.1905 799.4307 958.5259 798.0894 960.5377 797.6424 963.1085 796.9717 965.3439 795.1834 966.3498 792.1656 967.1322 792.0538 969.0323 794.8481 974.1738 795.2952 975.6268 795.5187 976.9681 795.2952 978.3094 793.7304 980.8801 793.8421 981.6625 794.1774 982.7802 794.0657 984.4568 792.948 987.3628 791.1596 989.4865 788.8124 990.9395 786.0182 991.3866 782.7768 993.8455 778.753 998.6517 774.6175 1001.8931 767.7994 998.2046 764.7816 997.3105 763.4404 996.5281 762.5462 995.2986 760.7579 990.6042 759.0813 988.1452 756.8459 987.251 754.2751 987.3628 751.4809 987.8099 750.922 987.8099 748.7983 987.9217 746.3394 987.3628 738.8507 984.4568 738.7389 984.345 736.0564 983.8979 733.1504 983.6744 730.2443 985.2392 728.1207 986.9157 724.0969 991.6101 721.5262 992.8396 718.2848 993.622 715.7141 995.075 715.1552 997.8693 715.4905 1001.3342 715.1552 1004.1285 713.814 1006.6992 711.5785 1009.1582 709.4549 1012.2878 707.8901 1016.1998 705.8782 1019.2176 702.3015 1020 702.1898 1020 698.7249 1018.547 695.3717 1015.8645 692.4657 1012.5113 690.342 1009.0464 685.7594 1003.3461 678.3825 1002.2284 675.5882 1003.1226 675.4765 1003.1226 674.9176 994.1809 675.0294 993.5102 675.4765 992.5043 675.8118 991.9454 676.2589 991.163 676.2589 990.4924 675.8118 989.4865 675.2529 988.8158 671.3409 985.0156 670.5585 984.1215 669.8879 983.0037 669.6644 980.9919 669.9997 978.1976 671.5645 973.0561 672.5704 971.156 673.6881 969.8147 674.6941 969.1441 675.7 968.3617 678.6061 965.0086 679.612 964.338 680.5062 964.0026 686.2065 963.332 687.2124 961.2084 687.436 956.8493 682.9651 911.0231 691.348 912.9232 692.1304 913.3703 695.5953 916.2763 697.2718 917.3941 699.0602 917.8411 700.9603 917.7294 713.9257 912.5879 723.5381 907.4464 730.3561 905.211 733.821 904.6521 735.6094 903.8697 736.5035 902.9756 737.5095 899.0636 738.1801 897.8341 739.186 896.8282 740.7508 895.4869 742.0921 893.9221 743.2098 892.2455 744.2157 889.2277 744.7746 887.9982 747.2336 884.198 748.9101 882.8568 754.4987 881.0684 762.3227 879.6154 764.2228 878.7212 766.0111 877.4917 771.2644 871.9032 773.388 870.1149 774.1704 869.2207 775.0646 866.6499 776.2941 865.1969 782.8886 862.4026 787.5829 860.9496 789.9301 860.7261 791.942 860.7261 793.5068 861.1732 795.0716 861.0614 797.4188 860.6143 805.0193 857.7083 807.0311 856.4788 816.5317 849.1019 821.1143 844.5193 822.0085 843.4015 822.6791 842.2838 823.0144 841.2779 822.9026 835.2422 823.1262 834.2363 823.3497 833.3421 823.4615 832.6715 823.4615 831.7773 823.685 830.7714 823.9086 830.4361 824.2439 830.3243 824.691 830.4361 825.1381 830.7714 826.5911 830.9949Z" />
  <path class="Misiones" d="M682.9651 911.0231L687.436 956.8493 687.2124 961.2084 686.2065 963.332 680.5062 964.0026 679.612 964.338 678.6061 965.0086 675.7 968.3617 674.6941 969.1441 673.6881 969.8147 672.5704 971.156 671.5645 973.0561 669.9997 978.1976 669.6644 980.9919 669.8879 983.0037 670.5585 984.1215 671.3409 985.0156 675.2529 988.8158 675.8118 989.4865 676.2589 990.4924 676.2589 991.163 675.8118 991.9454 675.4765 992.5043 675.0294 993.5102 674.9176 994.1809 675.4765 1003.1226 675.5882 1003.1226 670.4468 1004.5756 664.7464 1009.1582 660.6109 1009.9406 656.4754 1007.3699 649.5455 1000.44 645.6336 998.7635 641.498 999.2106 637.4743 1000.8871 626.4089 1007.0345 622.7205 1007.9287 618.2496 1007.7052 617.3554 1007.4816 614.6729 1007.4816 613.4435 1007.0345 612.4375 1006.3639 609.4197 1003.7932 608.302 1003.2343 603.1605 1001.8931 602.1546 1001.5578 600.9251 1000.8871 600.1427 1000.1047 600.1427 999.993 602.2663 991.6101 612.214 962.8849 612.9964 957.967 612.1022 956.0669 608.8608 955.1727 588.4067 952.0431 587.6243 951.596 574.6589 936.3952 565.3818 923.0944 564.3759 920.6354 563.7053 918.4 555.7695 872.2385 559.5697 874.1386 561.4699 876.8211 562.2523 877.38 563.4817 878.0506 564.1524 878.9448 564.823 880.0625 565.6054 882.2979 565.9407 883.1921 566.7231 884.0862 569.5174 885.7628 570.2998 886.5452 570.9704 887.6629 571.8646 888.6689 573.3176 889.4513 581.4769 891.3514 583.0417 892.1338 583.8241 893.1397 584.9418 894.2574 586.5066 895.1516 589.5244 895.934 591.3128 897.2752 593.7717 898.2812 596.6778 898.6165 606.6254 896.3811 612.4375 894.3692 613.8905 893.3633 614.5612 892.1338 614.7847 890.6807 614.7847 888.7806 614.8965 887.1041 615.5671 885.9864 616.573 885.204 618.1378 884.5333 619.032 883.9745 619.3673 883.4156 619.5909 882.8568 619.9262 882.1861 620.5968 881.4037 621.7145 880.8449 622.2734 880.1743 622.7205 879.2801 623.0558 878.0506 623.7264 876.5976 624.7323 874.921 626.0736 873.5798 627.7502 872.1267 628.5326 871.7914 629.315 871.4561 630.5444 871.1208 631.6622 871.009 632.6681 871.009 633.674 871.2326 634.5682 871.4561 641.1627 875.0328 643.5099 876.5976 647.3101 879.7272 649.4338 881.0684 651.4457 881.292 652.7869 880.9567 654.2399 881.4037 655.2459 881.8508 659.2696 888.2218 662.511 890.3454 663.1816 891.1278 664.0758 892.6926 664.97 894.481 667.0936 897.8341 668.882 899.5107 673.6881 902.752 675.3647 903.5344 676.9295 903.8697 680.5062 903.9815 682.4063 904.5404 683.4122 905.5463 683.6358 906.664 683.4122 907.7817 682.8534 909.123 682.7416 909.6818 682.7416 910.0172 682.9651 911.0231Z" />
  <path class="Ñeembucú" d="M542.9158 801.8227L543.3629 802.0462 546.0454 802.7168 546.6043 802.4933 547.2749 802.0462 547.3867 801.4873 547.3867 800.705 547.2749 798.5813 547.3867 797.5754 547.6102 797.0165 548.0573 796.5694 548.6162 796.4576 549.175 796.5694 551.4105 797.3518 552.1928 797.4636 552.8635 797.4636 555.2107 796.9047 555.9931 796.9047 556.6637 797.24 557.5579 798.0224 559.1227 800.0343 560.5757 801.7109 563.1464 803.8345 565.7172 805.5111 568.735 808.0818 569.8527 808.7525 572.1999 809.7584 572.647 810.3173 572.9823 811.0997 573.2058 812.4409 573.5411 813.5586 574.1 814.6763 577.0061 818.4766 578.4591 821.9415 581.5887 840.1602 581.3651 841.5014 580.918 842.3956 566.0525 857.3729 561.6934 865.8675 560.3521 867.7677 558.005 869.6678 555.7695 872.2385 563.7053 918.4 564.3759 920.6354 565.3818 923.0944 574.6589 936.3952 587.6243 951.596 588.4067 952.0431 608.8608 955.1727 612.1022 956.0669 612.9964 957.967 612.214 962.8849 602.2663 991.6101 600.1427 999.993 600.1427 1000.1047 598.3543 998.3164 597.3484 997.6458 594.8894 996.9751 594.4424 996.8634 591.5363 996.8634 580.2474 998.5399 577.3414 998.2046 576.559 997.9811 574.8824 997.3105 556.6637 988.0334 556.5519 988.0334 555.3224 987.5864 543.9218 985.1274 543.81 985.1274 539.0039 983.4508 533.9741 982.4449 532.4094 982.1096 529.0562 980.5448 528.9444 980.5448 522.3499 979.2035 520.2263 978.7564 516.7614 978.6447 509.9433 979.8741 508.2668 979.9859 495.9719 978.4211 465.4584 981.1036 455.399 985.4627 454.9519 985.798 455.399 979.5388 455.2872 976.9681 453.8342 974.5091 451.0399 972.4972 449.5869 970.9325 448.9163 969.2559 449.4751 965.6792 451.0399 963.1085 453.6107 961.5437 459.311 960.5377 459.8699 959.3083 459.6463 957.2964 459.6463 955.0609 459.9816 953.9432 460.3169 952.9373 460.8758 952.0431 461.5464 951.149 462.5524 950.5901 462.5524 950.4783 463.223 951.0372 463.5583 951.9314 463.5583 952.4902 463.5583 952.8255 464.4525 953.2726 464.4525 953.3844 465.3466 953.4961 465.7937 952.9373 465.9055 950.8136 466.129 949.9195 466.4644 948.9135 467.4703 947.237 469.4822 944.6662 470.3763 942.9897 468.6998 941.4249 468.4762 939.7483 469.3704 938.1835 471.1587 936.954 476.0767 935.6128 478.5356 934.6068 479.5416 933.042 480.6593 931.8125 483.3418 931.589 485.8008 931.3655 487.3656 930.136 486.5832 927.9006 484.5713 926.4475 483.23 924.6592 484.5713 921.8649 486.4714 921.3061 488.4833 921.9767 490.3834 922.2002 491.9482 920.6354 491.5011 919.6295 490.6069 918.1765 490.3834 916.8352 492.2835 916.2763 493.6248 916.3881 494.5189 916.1646 494.966 915.6057 495.1895 905.7699 495.7484 903.4227 496.3073 901.9696 496.6426 901.7461 497.2014 902.1932 500.7781 902.8638 502.1194 902.8638 502.6782 902.0814 502.3429 900.9637 501.784 899.9578 501.2252 898.7283 501.1134 897.2752 501.5605 896.9399 503.4606 895.4869 504.243 894.7045 503.5724 894.0339 502.6782 892.2455 501.8958 891.3514 499.4369 889.4513 498.7662 888.7806 498.3191 886.657 498.6545 884.7569 499.3251 882.745 499.6604 880.6213 499.9957 879.6154 501.5605 878.3859 501.8958 877.1564 499.2133 874.5857 498.878 872.9091 499.6604 871.009 503.3488 864.3028 503.9077 862.5144 504.243 860.3908 503.6842 856.367 503.6842 854.3551 504.5783 853.4609 506.3667 853.1256 508.9374 852.0079 510.8375 850.5549 510.7257 848.8783 509.1609 847.6488 507.3726 846.7547 506.0314 845.5252 505.8078 843.2898 506.9255 843.7369 507.8197 844.1839 508.3785 844.9663 508.8256 845.8605 509.8316 844.5193 510.8375 841.8367 511.8435 837.7012 513.0729 836.4717 520.3381 833.7892 524.0265 831.6656 536.992 821.9415 538.445 819.9296 538.445 818.253 533.3035 816.6882 534.1977 814.7881 538.1097 811.5468 538.7803 810.6526 539.4509 809.1996 539.3392 807.8583 536.7684 806.9641 536.4331 806.07 536.7684 805.1758 539.1156 804.2816 541.4628 802.9404 542.9158 801.8227Z" />
  <path class="Paraguarí" d="M578.4591 821.9415L583.7123 816.9118 586.2831 813.6704 589.3009 807.8583 589.748 805.1758 589.5244 802.9404 586.8419 794.4458 586.7301 791.6515 587.1772 787.963 588.5185 783.604 589.748 781.145 591.0892 779.2449 595.113 775.3329 598.6897 771.0856 608.1902 755.7729 608.9726 754.8788 612.214 751.8609 616.7966 749.0667 622.2734 759.3496 623.2793 760.3556 625.0677 761.585 628.0855 761.6968 629.4267 761.9204 631.9975 762.8145 634.0094 763.2616 634.9035 763.3734 643.2864 762.8145 644.4041 762.9263 645.8571 763.2616 646.5277 764.1558 646.9748 765.1617 647.5337 768.2913 647.869 769.2972 648.5396 770.7503 648.6514 771.1974 648.6514 771.7562 648.5396 772.3151 648.2043 772.9857 646.863 774.5505 645.41 775.78 645.0747 776.2271 644.9629 776.6741 645.2982 777.5683 646.0806 778.0154 646.9748 778.3507 650.4397 778.5743 651.2221 778.4625 652.1163 778.2389 652.8987 777.7919 653.5693 777.3448 654.3517 776.6741 655.4694 776.0035 656.6989 775.3329 657.8166 775.4447 658.7108 775.5564 663.4052 777.4565 666.8701 780.0273 669.329 783.1569 670.335 783.7157 670.8938 784.051 674.5823 784.4981 672.6822 786.2865 671.8998 788.5219 671.6762 790.5338 671.788 792.7692 672.4586 796.5694 673.5763 800.4814 674.3587 802.3815 675.2529 803.7228 677.8237 807.1877 678.8296 809.0878 679.9473 812.5527 679.9473 814.4528 679.3884 815.6823 678.2707 816.3529 673.4646 817.4706 672.6822 817.9177 672.1233 818.8119 671.8998 819.5943 672.0116 820.2649 672.1233 820.4884 672.6822 825.2946 673.1293 827.0829 673.7999 828.6477 681.2886 842.6191 680.5062 846.5311 679.9473 847.6488 676.0353 852.1197 675.2529 853.6845 674.0234 858.3789 673.6881 862.8497 673.3528 863.9674 672.9057 864.9734 670.5585 866.6499 670.1114 867.2088 669.8879 867.9912 669.9997 869.2207 670.2232 870.3384 670.1114 871.5679 669.6644 872.9091 668.0996 874.3622 667.4289 875.4799 666.9818 876.8211 666.8701 878.2741 666.423 879.8389 665.4171 881.292 663.2934 883.1921 661.9521 884.0862 660.3873 885.4275 659.2696 888.2218 655.2459 881.8508 654.2399 881.4037 652.7869 880.9567 651.4457 881.292 649.4338 881.0684 647.3101 879.7272 643.5099 876.5976 641.1627 875.0328 634.5682 871.4561 633.674 871.2326 632.6681 871.009 631.6622 871.009 630.5444 871.1208 629.315 871.4561 628.5326 871.7914 627.7502 872.1267 626.0736 873.5798 624.7323 874.921 623.7264 876.5976 623.0558 878.0506 622.7205 879.2801 622.2734 880.1743 621.7145 880.8449 620.5968 881.4037 619.9262 882.1861 619.5909 882.8568 619.3673 883.4156 619.032 883.9745 618.1378 884.5333 616.573 885.204 615.5671 885.9864 614.8965 887.1041 614.7847 888.7806 614.7847 890.6807 614.5612 892.1338 613.8905 893.3633 612.4375 894.3692 606.6254 896.3811 596.6778 898.6165 593.7717 898.2812 591.3128 897.2752 589.5244 895.934 586.5066 895.1516 584.9418 894.2574 583.8241 893.1397 583.0417 892.1338 581.4769 891.3514 573.3176 889.4513 571.8646 888.6689 570.9704 887.6629 570.2998 886.5452 569.5174 885.7628 566.7231 884.0862 565.9407 883.1921 565.6054 882.2979 564.823 880.0625 564.1524 878.9448 563.4817 878.0506 562.2523 877.38 561.4699 876.8211 559.5697 874.1386 555.7695 872.2385 558.005 869.6678 560.3521 867.7677 561.6934 865.8675 566.0525 857.3729 580.918 842.3956 581.3651 841.5014 581.5887 840.1602 578.4591 821.9415Z" />
  <path class="Presidente Hayes" d="M209.9495 557.4909L209.3906 541.7311 209.5024 540.9487 209.8377 540.1663 211.2908 537.5956 211.7378 536.1426 212.5202 531.7835 213.1909 530.6658 214.1968 529.6598 216.0969 528.6539 217.5499 528.2068 225.7092 526.8656 229.6212 525.189 233.1979 523.1771 234.6509 522.6183 236.2157 522.2829 272.5414 520.2711 276.4534 519.4887 279.1359 518.4827 290.313 512.4471 291.2072 511.7765 292.2131 500.8229 293.3308 496.0167 294.6721 491.6576 299.8135 481.3747 301.043 477.798 301.3783 475.6744 301.043 474.3331 300.1488 472.2095 299.8135 471.3153 299.8135 470.5329 302.9431 462.1501 303.502 459.6911 303.7255 457.6792 302.9431 451.8671 303.1667 446.2785 302.7196 440.1311 302.9431 438.7899 304.0608 434.8779 304.2844 433.3131 304.2844 430.1835 304.6197 428.1716 305.7374 425.8244 327.421 393.4108 328.0916 391.846 328.3152 390.0576 328.3152 389.4988 327.6446 383.9102 327.8681 382.4572 328.5387 381.4513 330.2153 380.6689 332.0036 380.3336 338.4864 380.3336 340.1629 379.8865 341.3924 379.2158 342.1748 377.5393 342.2866 376.6451 342.1748 375.8627 340.7218 372.9567 340.4982 372.0625 340.3865 371.1683 340.61 369.9388 340.8336 369.1564 341.3924 367.8152 342.3983 366.4739 343.8514 365.0209 355.3638 358.0911 356.9286 357.5322 358.4934 357.0851 359.6111 357.7558 360.5053 358.3146 361.623 359.4323 362.4054 359.9912 363.4113 360.5501 364.082 360.7736 364.7526 360.7736 367.4351 359.4323 374.3649 355.185 376.0415 353.6202 376.3768 352.9496 376.1532 351.273 372.1295 339.3135 384.7596 346.3551 389.0069 348.0317 391.5777 348.7023 393.4778 348.9259 410.6905 348.2552 434.7213 350.2671 440.5334 349.5965 493.1777 353.2849 496.0837 354.0673 497.6485 355.185 498.4309 360.9971 499.3251 362.2266 501.0017 363.2326 539.6745 380.5571 540.3451 383.3514 541.7981 397.0992 543.3629 400.7877 546.269 404.1408 547.4985 406.1527 547.9455 408.7234 546.9396 409.9529 544.3689 409.9529 539.5627 409.1705 534.4212 409.9529 530.7328 412.5237 529.3915 416.2121 531.8505 419.9006 532.9682 420.3476 535.5389 421.13 536.4331 421.6889 537.1037 422.9184 537.6626 425.7127 538.3332 427.0539 539.3392 427.6128 541.9099 427.501 543.0276 427.9481 543.81 428.954 544.1453 429.5129 544.9277 431.6365 546.0454 433.2013 546.4925 434.4308 546.3807 435.8838 545.3748 437.0015 543.9218 438.1193 542.8041 439.237 543.0276 440.4664 546.7161 443.9314 548.1691 445.9432 548.8397 448.4022 546.3807 453.3201 548.0573 454.8849 553.087 457.3439 554.093 458.7969 554.7636 461.0323 556.5519 461.703 561.0228 461.8147 563.1464 462.7089 564.0406 464.2737 564.1524 466.2856 564.1524 468.8563 564.823 470.8682 566.6113 472.6565 568.9585 474.1096 573.0941 476.1215 573.8765 476.6803 574.8824 477.5745 577.5649 481.2629 578.7944 482.1571 580.5827 484.0572 581.0298 484.7278 581.0298 487.4103 580.8063 488.081 580.2474 489.3105 579.3532 490.987 578.6826 491.7694 578.4591 492.6636 578.7944 494.3402 579.465 495.5696 581.3651 497.358 582.1475 498.811 583.7123 500.0405 584.0476 500.5993 584.1594 501.6053 584.83 505.2937 585.2771 506.5232 585.2771 507.4174 584.83 508.6469 584.6065 509.9881 583.6006 512.3353 583.377 513.6766 583.377 515.1296 583.9359 517.7003 584.0476 519.0416 584.3829 520.8299 587.1772 526.1949 590.3068 529.5481 598.3543 534.1307 601.8193 537.1485 603.4958 539.0486 603.9429 540.0546 604.0547 541.3958 603.384 542.5135 601.3722 543.2959 600.9251 544.1901 601.3722 545.4196 602.1546 546.3138 603.0487 546.9844 603.384 547.655 603.384 548.5492 602.6017 552.2376 602.2663 556.0378 601.8193 557.2673 599.2485 559.0557 598.8014 559.391 598.4661 560.0616 597.5719 560.9558 596.7895 562.1853 596.3425 563.6383 596.9013 564.5325 598.3543 564.756 599.8074 564.6442 600.9251 564.8678 603.0487 567.4385 603.4958 570.4563 603.7194 573.6977 604.8371 576.7155 607.0725 575.9331 608.9726 577.1626 609.755 579.2862 609.0844 581.2981 608.4138 582.3041 608.1902 583.6453 608.7491 584.6513 609.8668 585.0983 613.8905 584.8748 614.8965 585.0983 616.6848 587.4455 615.5671 589.9045 613.667 592.2517 612.7728 594.3754 610.6492 596.7226 610.3139 597.3932 610.2021 597.8403 610.0903 598.6227 610.3139 600.1875 610.6492 601.1934 611.0963 602.0876 613.2199 604.4348 614.1141 605.776 615.3436 608.0114 615.7906 609.688 616.3495 617.2884 617.2437 620.9769 618.4732 629.695 619.032 631.4834 620.2615 634.613 620.1497 635.7307 619.032 639.7545 618.5849 644.7842 618.6967 647.2431 619.1438 648.9197 619.9262 650.4845 620.7086 652.0493 622.2734 652.9435 623.9499 654.5083 624.7323 656.4084 622.3851 661.4381 621.8263 663.6735 621.1557 665.6854 619.4791 666.9149 618.1378 667.0266 617.2437 666.5795 616.2377 666.356 614.8965 666.9149 614.5612 667.809 612.7728 674.8506 607.0725 682.8981 607.0725 683.5688 607.9667 684.6865 608.9726 684.7982 609.9785 684.1276 610.6492 684.1276 610.9845 686.0277 610.7609 687.4807 610.3139 688.5985 610.4256 689.7162 611.3198 691.0574 612.6611 692.6222 613.1081 693.6282 612.5493 694.4106 610.9845 694.9694 608.6373 694.6341 605.5077 693.8517 602.937 694.187 601.8193 697.0931 596.3425 704.3582 595.2248 705.2524 593.8835 706.0348 592.5422 706.5936 591.4245 706.8172 590.5304 707.376 588.4067 709.7232 587.5125 710.2821 583.9359 710.2821 580.6945 710.2821 577.5649 709.6114 576.1119 709.835 575.553 711.5116 575.2177 714.6411 574.2118 718.1061 572.7587 721.2356 570.9704 723.8064 569.5174 725.3712 568.0644 726.0418 564.9348 727.0477 563.2582 728.0537 561.9169 729.1714 559.5697 732.1892 556.1048 729.842 553.9812 726.8242 550.2927 718.7767 548.9515 717.1001 545.4866 715.4235 543.81 714.0823 538.8921 708.2702 537.2155 706.9289 534.9801 706.0348 526.1502 706.0348 524.5854 705.4759 523.9147 704.2464 523.4677 702.7934 522.6853 701.7875 521.6793 701.5639 519.1086 701.8992 517.9909 701.7875 510.2787 697.8755 508.8256 697.8755 507.7079 696.0871 497.6485 689.0455 495.5249 689.1573 493.6248 690.4986 490.4952 693.8517 489.1539 694.7459 487.7009 695.5283 486.4714 695.7518 485.0184 695.3047 484.4595 694.6341 484.1242 693.6282 483.4536 692.3987 476.1884 684.3512 473.5059 680.5509 472.1647 679.2097 469.5939 677.8684 444.8925 673.0623 444.3337 672.5034 443.9983 671.4975 443.3277 670.9386 442.4336 670.6033 441.6512 669.9327 439.9746 669.4856 434.2743 669.262 431.9271 668.7032 410.467 652.3846 406.8903 651.4904 405.7726 650.5963 403.5372 648.3608 402.4195 647.6902 401.7488 647.5784 399.6252 647.5784 397.3898 646.6843 393.2542 644.0018 390.5717 642.9958 387.4421 640.7604 382.7477 639.0838 381.63 638.3014 381.0712 637.4073 380.177 636.7366 378.5004 636.5131 377.4945 636.1778 376.0415 634.3894 372.353 633.0482 370.4529 630.701 368.2175 626.3419 367.0998 625.1124 362.7407 621.3122 360.0582 620.0827 359.6111 619.0768 359.3876 617.9591 358.9405 617.0649 358.2699 616.5061 355.8109 615.3883 353.2402 613.9353 352.1224 613.0411 350.893 611.5881 349.9988 611.0293 347.8751 610.5822 345.975 609.3527 343.1807 609.0174 342.063 608.6821 341.2806 607.8997 339.2688 605.2172 335.0215 600.7463 294.5603 573.9212 292.5484 573.3624 290.2012 573.5859 284.948 575.486 282.2655 576.1567 273.8826 576.3802 265.1645 575.0389 261.5878 575.2625 260.4701 575.0389 259.3524 574.3683 257.1169 572.3564 255.8875 571.574 254.8815 571.4623 250.8578 571.574 243.9279 570.2328 240.2395 567.5503 238.2276 566.5443 234.2039 566.4326 233.5332 566.209 231.7449 562.297 231.6331 561.5146 230.6272 561.2911 228.7271 560.2851 227.4976 559.8381 226.1563 559.7263 221.0149 559.9498 219.8971 559.7263 217.6617 557.7144 216.544 557.3791 209.9495 557.4909Z" />
  <path class="San Pedro" d="M610.9845 694.9694L612.5493 694.4106 613.1081 693.6282 612.6611 692.6222 611.3198 691.0574 610.4256 689.7162 610.3139 688.5985 610.7609 687.4807 610.9845 686.0277 610.6492 684.1276 609.9785 684.1276 608.9726 684.7982 607.9667 684.6865 607.0725 683.5688 607.0725 682.8981 612.7728 674.8506 614.5612 667.809 614.8965 666.9149 616.2377 666.356 617.2437 666.5795 618.1378 667.0266 619.4791 666.9149 621.1557 665.6854 621.8263 663.6735 622.3851 661.4381 624.7323 656.4084 623.9499 654.5083 622.2734 652.9435 620.7086 652.0493 619.9262 650.4845 619.1438 648.9197 618.6967 647.2431 618.5849 644.7842 619.032 639.7545 620.1497 635.7307 620.2615 634.613 619.032 631.4834 618.4732 629.695 617.2437 620.9769 616.3495 617.2884 615.7906 609.688 615.3436 608.0114 614.1141 605.776 613.2199 604.4348 611.0963 602.0876 610.6492 601.1934 610.3139 600.1875 610.0903 598.6227 610.2021 597.8403 610.3139 597.3932 610.6492 596.7226 612.7728 594.3754 613.667 592.2517 615.5671 589.9045 616.6848 587.4455 614.8965 585.0983 613.8905 584.8748 609.8668 585.0983 608.7491 584.6513 608.1902 583.6453 608.4138 582.3041 609.0844 581.2981 609.755 579.2862 608.9726 577.1626 607.0725 575.9331 604.8371 576.7155 603.7194 573.6977 603.4958 570.4563 603.0487 567.4385 600.9251 564.8678 599.8074 564.6442 598.3543 564.756 596.9013 564.5325 596.3425 563.6383 596.7895 562.1853 597.5719 560.9558 598.4661 560.0616 598.8014 559.391 599.2485 559.0557 601.8193 557.2673 602.2663 556.0378 602.6017 552.2376 603.384 548.5492 603.384 547.655 603.0487 546.9844 602.1546 546.3138 601.3722 545.4196 600.9251 544.1901 601.3722 543.2959 603.384 542.5135 604.0547 541.3958 603.9429 540.0546 603.4958 539.0486 601.8193 537.1485 598.3543 534.1307 590.3068 529.5481 587.1772 526.1949 584.3829 520.8299 584.0476 519.0416 583.9359 517.7003 583.377 515.1296 583.377 513.6766 583.6006 512.3353 584.6065 509.9881 584.83 508.6469 587.7361 508.9822 589.0773 509.541 589.6362 509.8763 590.195 510.0999 593.1011 511.7765 593.66 512 594.8894 512.2235 595.5601 512.3353 603.0487 511.7765 603.384 511.8882 604.1664 511.7765 605.3959 511.5529 607.6314 510.6587 609.5315 509.6528 610.4256 509.3175 611.5433 509.2057 616.7966 509.2057 624.8441 507.9762 629.762 506.4114 630.5444 505.8526 630.9915 505.5173 631.5504 505.182 632.221 504.9584 633.0034 504.8466 634.2329 504.9584 635.0153 505.182 635.9095 505.5173 636.6919 505.5173 637.4743 505.2937 639.7097 504.2878 641.1627 503.9525 642.3922 503.7289 645.1865 503.9525 646.1924 503.8407 646.9748 503.6172 647.6454 503.1701 648.6514 502.1641 649.322 501.9406 650.3279 501.8288 653.0105 502.1641 658.7108 503.5054 665.1935 503.1701 666.8701 503.1701 667.9878 503.3936 670.6703 504.8466 671.788 504.9584 673.241 504.9584 676.1471 504.6231 677.4883 504.7349 678.4943 505.0702 679.1649 505.9644 680.2826 506.0761 681.9592 505.8526 685.5359 505.0702 687.1007 504.8466 688.2184 504.8466 689.0008 504.5113 693.9187 502.0524 698.5013 500.8229 699.3955 500.8229 700.1779 500.9347 700.8485 501.0464 701.6309 500.9347 704.3134 499.5934 705.8782 498.1404 707.3312 496.9109 708.3372 495.3461 709.6784 493.6695 713.3669 492.1047 714.4846 492.9989 715.0435 492.8871 715.9376 492.44 717.1671 491.4341 719.7378 490.0928 721.8615 489.534 724.2087 489.0869 725.5499 488.8634 726.5559 488.3045 727.1147 488.1927 728.9031 488.7516 730.3561 488.9751 735.0505 489.3105 736.7271 489.6458 737.6212 490.2046 738.5154 491.0988 739.0743 491.8812 739.2978 492.6636 739.2978 493.446 738.9625 494.2284 738.4036 495.4579 738.2919 496.1285 738.4036 496.6873 738.9625 497.4697 740.8626 499.1463 741.3097 499.5934 741.7568 500.3758 742.0921 501.27 742.3156 501.9406 742.3156 502.3877 742.2039 503.0583 741.8685 503.6172 741.1979 504.7349 740.192 505.8526 730.915 513.5648 730.5796 514.1237 730.5796 515.0178 730.8032 516.0238 731.362 517.7003 732.2562 519.7122 734.2681 523.2889 735.7211 524.8537 736.8388 525.7479 737.3977 525.6361 738.0683 525.3008 739.7449 523.9595 740.5273 523.4007 741.7568 522.73 742.4274 522.3947 742.7627 521.7241 743.098 520.9417 743.2098 519.9358 743.2098 518.1474 743.3216 517.4768 743.7686 517.1415 744.7746 516.6944 751.5926 515.3531 753.1574 515.2414 754.2751 515.4649 754.6105 515.912 754.6105 516.4708 754.2751 517.9239 754.1634 519.4887 754.6105 523.9595 754.4987 524.6301 754.3869 525.4125 753.6045 527.0891 752.9339 528.095 751.7044 529.4363 749.2454 532.7894 749.0219 533.3483 749.1337 533.9072 749.5807 535.8073 749.9161 538.8251 749.9161 541.9547 749.8043 542.7371 749.6925 543.4077 749.1337 544.6372 747.2336 548.2139 746.6747 550.3375 746.4512 550.7846 746.2276 551.0081 742.4274 553.8024 741.3097 554.2495 740.5273 554.473 747.3453 573.0271 748.016 575.8213 747.7924 576.7155 747.01 576.492 746.7865 576.492 746.3394 576.492 745.7805 576.7155 745.3334 577.0508 743.6569 578.7274 742.2039 580.6275 739.6331 583.0865 738.1801 585.0983 737.733 585.4337 737.1741 585.6572 734.4916 586.3278 733.9328 586.5514 733.3739 586.8867 732.9268 587.3338 730.8032 590.2398 730.3561 590.9105 729.909 592.8106 730.0208 595.4931 729.3502 601.3052 729.3502 603.6524 729.5737 605.2172 731.9209 607.229 732.5915 608.0114 733.0386 609.1292 733.3739 610.4704 733.821 614.4942 734.2681 616.3943 734.827 617.8473 735.4976 619.0768 736.28 620.0827 737.2859 620.9769 738.1801 621.6475 739.186 622.0946 741.3097 622.877 742.0921 623.3241 742.7627 623.8829 743.3216 624.6653 745.6688 630.0304 751.5926 638.4132 753.9398 643.3311 755.6164 648.4726 756.8459 651.1551 758.0754 652.9435 761.3167 655.0671 763.2168 656.6319 765.4523 658.9791 766.4582 661.7734 767.2406 663.5617 767.9112 664.903 769.0289 665.7971 775.0646 669.4856 761.7638 672.9505 752.8221 676.7507 750.4749 678.6508 748.7983 680.6627 743.8804 690.4986 742.9862 691.9516 741.9803 692.734 740.9744 692.2869 735.8329 687.4807 731.9209 683.1217 731.2503 682.451 730.4679 682.004 725.3264 680.1039 724.2087 679.3215 723.4263 678.4273 723.2028 677.5331 723.091 676.5272 723.2028 675.633 723.6498 673.7329 723.5381 672.3916 723.091 670.9386 721.638 669.5974 720.632 669.4856 719.4025 670.1562 718.2848 671.2739 717.3906 672.6152 716.6083 674.0682 716.0494 675.633 715.0435 677.3096 713.5904 678.7626 708.7843 681.6686 707.5548 682.7864 706.8842 684.0158 706.3253 685.2453 705.5429 686.6983 704.4252 687.8161 700.9603 689.7162 699.8426 690.4986 691.6833 698.9932 687.436 697.0931 686.8771 696.646 686.3183 696.3107 682.1827 691.6163 680.2826 690.275 669.7761 686.0277 668.0996 685.8042 660.4991 686.6983 654.3517 688.4867 636.5801 691.8398 635.1271 692.2869 634.2329 692.734 633.227 693.4046 632.8916 693.8517 632.6681 694.2988 632.5563 694.9694 632.4446 695.64 632.5563 696.0871 632.6681 696.8695 632.6681 697.4284 632.6681 697.9872 632.4446 698.5461 631.7739 699.3285 630.5444 700.1109 628.309 701.0051 626.2971 701.1168 624.1735 700.8933 620.3733 699.7756 612.9964 696.4224 610.9845 694.9694Z" />
</svg>