<?xml version="1.0" encoding="utf-8"?>
<svg xmlns="http://www.w3.org/2000/svg" viewBox="0 0 1021 803" style="stroke-width:0.25px;stroke-linejoin:round;stroke:#444;fill:#ddd" fill-rule="evenodd">
  <path class="Abşeron" d="M780.3804 323.6514L793.2341 323.2043 804.4112 318.1746 805.1936 313.9273 805.976 309.5682 807.9879 306.6622 810.2233 303.8679 815.0295 299.6206 818.6062 293.6967 825.3124 298.1675 831.2363 305.0974 834.0306 310.2388 837.0484 314.9332 845.7666 315.8274 854.5965 312.8096 857.9496 316.498 861.9734 317.2804 865.103 315.8274 868.2326 314.8215 875.6095 317.0569 882.8746 319.5158 889.022 321.9748 885.6689 325.6633 877.8449 327.7869 869.9091 329.5752 865.7736 331.5871 861.5263 332.8166 857.7261 331.5871 853.8141 330.4694 848.4491 330.693 843.3076 331.5871 829.1127 332.0342 824.6418 337.1757 820.3945 341.5348 813.0176 342.6525 807.5408 348.241 807.7644 359.7535 809.3292 372.2718 808.6585 385.0138 803.5171 394.9614 800.611 397.7557 799.2697 401.6677 799.4933 405.4679 798.2638 409.7152 795.246 414.0743 793.2341 419.104 794.0165 423.7983 794.5754 428.381 791.7811 432.74 788.875 436.9873 787.5338 443.1348 785.4101 449.3939 782.2805 444.8113 778.8156 440.6758 777.2508 436.8756 776.9155 432.4047 773.2271 426.0338 769.7622 419.2157 768.3091 411.6153 764.0618 405.915 756.1261 404.5737 747.855 404.7972 741.484 404.2384 735.4484 402.4501 730.4187 395.7438 725.5008 388.3669 720.5828 382.7783 715.1061 377.6369 710.4117 372.4954 708.7351 364.1125 714.7707 366.4597 720.3593 370.3717 723.7124 372.4954 726.7303 369.0305 730.5305 365.1185 734.3307 361.2065 739.2486 356.065 745.1725 354.1649 748.6374 350.5882 751.3199 345.5585 756.2378 342.5407 761.7146 341.5348 767.0796 339.1876 771.9976 335.2756 776.8037 330.3576 780.3804 323.6514ZM838.3897 345.335L843.8664 341.8701 851.0198 341.5348 854.82 347.2351 856.7201 350.4765 854.5965 352.7119 850.7963 354.612 846.6607 355.0591 842.7487 354.1649 841.4075 349.9176 838.8367 346.0056 838.3897 345.335Z" />
  <path class="Ağcabədi" d="M468.3153 497.9026L454.791 501.144 441.4902 504.8325 446.2964 495.2201 443.7256 486.502 441.4902 485.1607 435.1193 481.0252 432.2132 474.5425 430.6484 471.0776 431.9897 470.2952 433.3309 469.1774 437.0194 461.2417 433.1074 454.759 425.3952 455.8767 418.13 458.671 418.0183 458.671 403.8233 455.5414 400.0231 444.476 402.2585 443.023 404.3822 441.3464 404.8293 434.9755 405.0528 428.7163 409.859 427.2633 410.4178 427.0397 411.5355 426.7044 416.3417 422.3453 411.2002 417.8745 411.8708 412.733 420.0301 407.4798 427.1835 400.2146 426.8482 396.638 431.319 400.3264 436.4605 403.9031 442.2726 402.003 456.8029 392.2789 471.5567 381.1018 471.7802 381.8842 472.6744 382.443 473.6803 383.896 477.257 391.4965 481.3925 398.3145 481.8396 399.544 484.5221 398.6498 487.4282 396.0791 490.7813 394.0672 495.0286 394.6261 496.4816 395.8556 497.4876 398.5381 498.6053 399.544 500.6172 399.6558 502.182 398.6498 503.7468 398.091 505.7586 399.544 511.1237 392.726 513.1355 392.6142 514.0297 398.6498 515.2592 401.6677 518.0535 402.4501 518.8359 402.5618 511.3472 419.4393 507.4352 428.0457 505.7586 438.9992 503.7468 449.6175 501.176 457.665 496.0345 463.03 490.2224 464.7066 484.6339 467.0538 480.4983 467.3891 476.3628 467.0538 474.3509 468.5068 473.1215 470.854 467.8682 473.0894 464.8504 478.0074 466.0799 481.6958 467.0858 484.6019 464.8504 486.1667 462.5032 488.0668 464.9622 492.5376 468.3153 497.9026Z" />
  <path class="Ağdam" d="M334.9723 434.6402L338.6607 432.5165 340.002 431.7341 346.0376 431.287 346.82 423.016 349.279 416.9803 353.7498 412.2859 355.0911 404.5737 356.7677 403.7913 357.8854 403.2325 364.4799 400.2146 375.4334 394.8496 374.4275 391.2729 375.657 388.3669 375.7688 388.3669 377.8924 389.1493 379.6807 390.9376 384.0398 391.8318 388.0636 390.1552 391.305 394.179 392.9815 400.1029 397.5641 401.5559 399.3525 401.2206 399.576 401.2206 402.3703 400.8853 414.6651 399.8793 427.1835 400.2146 420.0301 407.4798 411.8708 412.733 411.2002 417.8745 416.3417 422.3453 411.5355 426.7044 410.4178 427.0397 409.859 427.2633 405.0528 428.7163 404.8293 434.9755 404.3822 441.3464 402.2585 443.023 400.0231 444.476 403.8233 455.5414 418.0183 458.671 418.13 458.671 425.3952 455.8767 433.1074 454.759 437.0194 461.2417 433.3309 469.1774 431.9897 470.2952 430.6484 471.0776 428.0777 470.4069 425.0598 469.6245 420.589 470.1834 419.5831 470.2952 418.9124 471.1893 417.7947 472.6424 416.9006 473.9836 414.5534 477.4485 404.7175 475.1013 395.2169 468.7304 388.0636 465.2655 380.5749 467.0538 378.6748 473.5365 375.2099 479.0133 368.3919 481.6958 361.7974 485.049 364.927 478.678 365.2623 478.0074 368.6154 472.1953 369.0625 471.3011 372.6392 466.6067 374.204 460.5711 367.0506 457.2179 364.2563 454.6472 360.9032 451.4058 359.8972 448.9469 356.6559 441.3464 348.273 437.0991 341.1197 439.111 334.9723 434.6402Z" />
  <path class="Ağdaş" d="M433.1074 258.8241L440.2607 260.3889 447.4141 262.1772 451.7732 264.0773 456.0205 264.0773 457.3617 263.1832 459.0383 262.4008 462.1679 263.4067 465.1857 264.8597 471.7802 266.4245 478.71 265.0833 479.2689 275.1427 479.716 285.2021 483.9633 289.7847 489.6636 293.0261 492.4579 296.491 494.8051 299.8441 494.1344 302.4149 492.0108 304.6503 489.8871 311.5801 489.2165 319.1805 482.5102 317.0569 475.9157 317.7275 470.886 321.1924 469.433 329.4635 468.2035 336.1697 470.7743 341.8701 475.5804 344.6644 478.2629 349.9176 475.9157 356.065 473.2332 361.8771 467.6447 368.0245 464.2915 370.9306 463.1738 369.0305 461.3855 367.0186 460.4913 367.3539 460.6031 364.8949 461.0502 362.7713 461.7208 360.7594 462.7267 358.8593 460.8266 355.9532 454.2321 357.071 450.879 355.7297 454.4557 350.5882 453.1144 348.1293 443.7256 344.6644 445.1787 342.9878 448.6436 340.3053 449.7613 338.4052 450.0966 334.8285 448.7553 334.3814 446.7435 335.1638 444.7316 335.4991 442.0491 335.4991 441.3784 334.9403 441.4902 332.7048 440.8196 332.2578 440.2607 331.4754 439.3666 329.9106 437.9135 328.234 436.0134 327.5634 434.6722 325.775 435.7899 321.6395 436.237 317.3922 433.1074 315.045 431.7661 315.7156 430.2013 317.3922 427.7424 320.6336 425.954 321.6395 425.3952 319.5158 425.6187 316.6098 427.0717 314.0391 425.0598 311.9154 423.7186 310.7977 423.495 310.6859 426.2893 307.3328 427.9659 300.2912 425.8422 293.3614 425.954 285.0903 428.1894 277.3781 430.6484 268.2129 433.1074 258.8241Z" />
  <path class="Ağstafa" d="M173.91 156.8888L168.6568 159.7948 161.727 163.148 157.1443 167.2835 153.903 172.8721 143.9553 172.6485 138.5903 176.784 140.714 183.4903 142.8376 190.0848 140.9375 198.1323 135.6843 203.6091 130.431 205.2857 125.2895 206.7387 122.2717 210.7625 118.9186 215.3451 117.0185 222.1631 114.5595 221.6043 112.4359 219.2571 113.8889 211.7684 112.8829 206.4034 108.0768 206.8505 106.4002 207.7447 106.4002 207.6329 106.0649 205.8446 105.6178 198.0206 104.3883 190.0848 103.8295 186.9552 103.9413 183.7139 104.8354 182.1491 105.9531 180.4725 105.3943 178.6842 104.8354 176.784 109.3063 162.142 108.5239 156.5535 108.1886 153.7592 107.6297 153.5356 87.958 151.1884 83.9342 149.2883 76.8926 144.4822 69.2922 142.6938 65.9391 140.5702 57.8915 132.7462 57.2209 131.1814 57.1091 129.6166 83.4871 107.7095 89.0757 105.8094 94.6642 106.0329 97.9056 107.7095 106.2884 112.0685 108.971 112.6274 112.5476 112.2921 118.248 110.6155 120.8187 111.0626 123.2777 113.9686 128.978 119.3337 153.903 129.0578 165.3036 131.405 169.3274 132.9697 169.5509 134.4228 167.092 135.764 163.0682 137.2171 159.1562 142.0232 163.4035 148.6177 170.5569 154.7651 173.91 156.8888Z" />
  <path class="Ağsu" d="M643.349 363.4419L639.7723 368.5834 637.5369 375.5132 631.5012 370.4835 627.701 362.8831 622.7831 360.3123 617.6416 358.524 617.418 350.0294 616.971 340.9759 610.1529 337.6228 602.4407 338.1816 597.2992 342.5407 592.4931 346.5645 588.6928 342.876 585.7868 340.0817 579.6394 341.1994 574.945 336.7286 576.398 327.0045 579.8629 317.6157 583.2161 319.7394 586.3457 317.2804 587.0163 314.0391 587.6869 310.5741 590.7047 306.9975 594.1696 304.2032 598.6405 301.6325 602.6642 298.7264 603.5584 296.491 605.0114 294.4791 607.9175 293.0261 610.8235 291.6848 622.1124 286.208 632.5072 278.4958 637.8722 268.9953 641.1135 257.7064 642.6783 260.836 643.9078 263.9656 649.2728 269.4424 652.626 276.5957 650.7259 280.843 648.4904 285.0903 648.714 286.7669 648.714 289.1141 647.4845 291.0142 646.1432 292.9143 638.5428 300.0677 636.6427 309.68 641.5606 315.9392 648.1551 318.7334 654.1908 318.8452 660.2264 319.0688 664.0266 321.0806 667.6033 323.7631 671.4035 325.6633 674.3096 328.0105 671.6271 331.2518 668.0504 333.1519 659.2205 336.9521 651.62 343.0996 651.0612 348.5763 650.5023 354.1649 647.1492 358.8593 643.349 363.4419Z" />
  <path class="Astara" d="M654.079 781.9132L656.0909 776.3246 658.6616 771.742 659.8911 766.6006 663.0207 763.471 666.7091 761.4591 670.8447 760.2296 674.6449 760.7884 678.5569 759.2237 682.3571 756.9882 697.8933 756.2058 711.8647 752.4056 712.8706 789.7372 701.6935 787.39 696.105 787.39 692.193 789.5136 688.8398 792.9785 684.369 795.7728 679.6746 797.7847 675.5391 798.9024 667.4915 798.2318 666.5974 798.2318 661.1206 792.755 656.3144 784.8193 654.079 781.9132Z" />
  <path class="Babək" d="M86.2814 530.7634L90.6405 536.799 92.6524 541.4934 94.4407 544.0641 97.0114 545.0701 105.1707 545.8525 108.1886 547.4173 113.6653 553.0058 111.877 555.4648 106.2884 560.1592 102.1529 566.6419 104.7237 568.542 108.5239 570.1068 110.0887 574.8012 111.877 579.7191 119.701 583.5194 127.6367 587.5431 129.6486 589.8903 131.3252 592.2375 131.3252 594.92 130.9899 596.7084 132.5547 599.7262 135.5725 599.2791 137.4726 605.5383 132.3311 608.8914 121.4893 609.115 110.5358 609.8974 100.9234 609.4503 94.2172 614.5917 106.1767 623.4217 121.2658 621.7451 126.8543 623.757 131.6605 627.3337 131.2134 635.3812 127.9721 642.311 131.2134 649.6879 135.796 656.5059 134.6783 659.5238 132.3311 662.4298 132.7782 667.3477 133.1135 670.8127 132.3311 670.7009 128.7545 668.5772 125.9602 667.7948 123.9483 667.236 119.9245 665.3359 116.2361 662.8769 114.2242 660.4179 114.0007 658.0707 114.4477 656.1706 115.1184 654.2705 115.5655 652.0351 114.6713 650.4703 110.5358 648.5702 108.971 647.3407 108.0768 645.5524 106.7355 640.7462 105.9531 638.9579 104.3883 637.1695 102.7118 636.2754 101.2587 635.0459 100.0293 632.8105 101.5941 629.5691 100.5881 627.1101 98.2409 625.6571 95.782 625.21 94.1054 624.3158 94.2172 622.4157 94.6642 620.2921 94.1054 618.9508 92.5406 618.7273 90.864 619.3979 89.7463 620.1803 89.2992 620.6274 71.1923 614.5917 66.6097 616.0448 65.492 612.5799 63.7036 601.4028 62.4741 599.0556 61.0211 596.8201 59.9034 594.4729 60.0152 594.4729 63.9272 596.1495 67.7274 597.2672 72.31 595.926 76.7809 593.8023 80.3575 591.4551 81.0282 586.4254 79.7987 583.6311 78.681 581.0604 79.5751 578.4897 80.6928 576.2542 79.3516 569.995 76.7809 564.0712 75.7749 558.1473 77.0044 552.1117 78.7927 545.1818 80.9164 538.3638 84.9402 532.2164 86.2814 530.7634Z" />
  <path class="Bakı" d="M854.5965 312.8096L856.0495 310.1271 857.5025 307.5563 857.9496 305.3209 860.4086 306.5504 869.1267 307.6681 876.6154 310.0153 880.6392 310.3506 883.8805 309.68 893.4928 305.6562 897.6284 304.9856 917.4119 305.6562 918.8649 307.1092 919.6473 308.7858 920.2062 310.3506 920.9886 311.9154 924.1182 315.7156 927.3595 318.7334 930.9362 320.7453 946.5842 324.0985 949.602 325.8868 951.5021 329.2399 953.6257 334.4932 956.3083 339.4111 959.7732 341.5348 963.4616 342.9878 966.703 346.4527 969.2737 351.0353 970.9503 355.7297 972.7386 374.5073 973.9681 376.4074 975.4211 380.6547 976.3153 385.3491 975.7564 388.4787 972.4033 381.9959 968.8266 376.4074 964.4675 371.3777 955.8612 364.3361 952.2845 362.3242 948.3725 360.8712 940.5485 359.7535 934.0658 357.6298 930.6009 357.1827 928.589 357.4063 926.2418 358.4122 924.677 358.8593 917.9707 358.8593 914.9529 360.0888 909.029 365.0067 905.5641 365.0067 904.3347 364.0008 902.0992 360.3123 900.758 358.8593 898.8579 358.0769 894.387 357.2945 889.9162 354.8355 886.4513 356.7356 880.6392 361.9889 881.8686 367.3539 876.9507 372.3836 869.9091 376.0721 858.3967 378.6428 848.2255 384.5667 834.9248 389.4846 831.7952 391.8318 825.2007 399.2087 822.1828 401.3323 820.2827 403.7913 819.8356 408.7092 820.8416 414.8567 820.9534 417.3156 811.5646 420.8923 809.888 424.469 810.3351 429.0516 812.6823 433.6342 814.2471 435.3108 816.7061 437.2109 818.0473 438.9992 818.7179 441.3464 817.8238 442.6877 816.0354 443.8054 813.0176 446.7114 811.6763 447.3821 810.3351 448.2762 809.1056 450.6234 808.3232 453.3059 808.2114 455.4296 809.1056 459.9004 811.1175 464.8184 811.6763 467.3891 810.8939 470.0716 809.3292 471.7482 807.9879 472.8659 807.0937 474.0954 806.7584 476.219 806.982 477.5603 807.6526 478.678 808.0997 480.131 807.8761 481.6958 807.2055 482.7018 804.2994 484.7136 803.2935 487.955 803.4053 489.408 804.2994 490.9728 803.5171 493.8789 804.523 497.0085 808.5468 502.4853 808.3232 504.3854 805.8642 506.2855 801.3934 508.8562 797.0343 514.1095 795.246 507.2914 794.5754 499.691 794.24 489.9669 796.699 481.2487 796.4755 475.4366 795.8048 469.7363 793.3459 466.1596 790.7751 462.6947 788.5397 455.5414 785.4101 449.3939 787.5338 443.1348 788.875 436.9873 791.7811 432.74 794.5754 428.381 794.0165 423.7983 793.2341 419.104 795.246 414.0743 798.2638 409.7152 799.4933 405.4679 799.2697 401.6677 800.611 397.7557 803.5171 394.9614 808.6585 385.0138 809.3292 372.2718 807.7644 359.7535 807.5408 348.241 813.0176 342.6525 820.3945 341.5348 824.6418 337.1757 829.1127 332.0342 843.3076 331.5871 848.4491 330.693 853.8141 330.4694 857.7261 331.5871 861.5263 332.8166 865.7736 331.5871 869.9091 329.5752 877.8449 327.7869 885.6689 325.6633 889.022 321.9748 882.8746 319.5158 875.6095 317.0569 868.2326 314.8215 865.103 315.8274 861.9734 317.2804 857.9496 316.498 854.5965 312.8096ZM838.3897 345.335L838.8367 346.0056 841.4075 349.9176 842.7487 354.1649 846.6607 355.0591 850.7963 354.612 854.5965 352.7119 856.7201 350.4765 854.82 347.2351 851.0198 341.5348 843.8664 341.8701 838.3897 345.335ZM1015.8823 370.5953L1012.6409 369.7011 1010.4055 370.4835 1007.8348 368.2481 1006.1582 364.8949 1006.6053 361.9889 1008.8407 363.7772 1010.5173 363.2184 1011.9703 361.9889 1013.7586 361.9889 1016.3294 364.6714 1017 368.2481 1015.8823 370.5953ZM975.8682 347.3469L973.2975 348.0175 969.8326 347.7939 970.615 342.2054 965.0264 334.4932 965.0264 329.1282 967.1501 330.2459 969.8326 329.3517 970.9503 330.8047 971.3974 335.6109 973.0739 338.0699 975.1976 340.0817 976.9859 343.0996 977.2095 345.8938 975.8682 347.3469Z" />
  <path class="Balakən" d="M262.321 78.3136L262.0975 76.6371 258.2972 69.2602 257.8502 67.9189 255.3912 68.0307 254.2735 69.819 253.3793 71.9427 251.9263 73.1722 247.2319 69.2602 244.9965 58.8655 244.8847 47.0177 246.5613 39.082 249.9144 35.5053 253.7146 35.0582 261.8739 36.9583 265.4506 36.623 268.2449 35.2817 270.8156 32.9345 278.1925 23.7693 281.9927 17.7337 288.5872 4.0976 292.2757 4.9917 296.9701 4.88 305.0176 5.9977 308.1472 7.786 309.1531 12.2569 308.259 21.6457 309.2649 25.6694 312.2827 28.2402 315.6359 28.2402 318.6537 26.2283 324.2422 21.3103 327.8189 19.9691 334.8605 18.5161 336.9842 16.9513 338.2136 22.2045 335.7547 30.3638 329.8308 36.623 323.1245 41.4292 317.7595 44.8941 312.618 48.9178 309.8238 55.4006 307.7001 62.5539 303.6763 67.8072 298.5349 71.3838 292.4992 73.3957 286.5754 74.737 281.881 78.0901 277.0748 81.6668 271.8216 82.2256 266.5683 79.2078 262.321 78.3136Z" />
  <path class="Beyləqan" d="M524.3127 516.1213L516.824 523.8336 495.9228 535.5695 495.9228 535.4578 495.9228 526.4043 484.9692 517.1273 481.169 510.9799 476.9217 506.1737 471.1096 504.6089 468.3153 497.9026 464.9622 492.5376 462.5032 488.0668 464.8504 486.1667 467.0858 484.6019 466.0799 481.6958 464.8504 478.0074 467.8682 473.0894 473.1215 470.854 474.3509 468.5068 476.3628 467.0538 480.4983 467.3891 484.6339 467.0538 490.2224 464.7066 496.0345 463.03 501.176 457.665 503.7468 449.6175 505.7586 438.9992 507.4352 428.0457 511.3472 419.4393 518.8359 402.5618 521.1831 402.7854 523.4185 403.9031 523.642 406.5856 524.5362 412.3977 524.7597 412.8448 517.3828 419.6628 523.642 426.2573 529.3424 432.8518 529.007 441.7935 522.189 446.7114 518.7241 448.7233 516.2651 452.0765 518.277 455.5414 521.5184 457.7768 518.5006 465.9361 517.4946 472.5306 523.9773 475.8837 529.6777 481.0252 535.8251 486.2784 541.9725 490.7493 540.743 497.6791 533.3661 502.0382 525.8774 508.6327 524.3127 516.0096 524.3127 516.1213Z" />
  <path class="Bərdə" d="M427.1835 400.2146L414.6651 399.8793 402.3703 400.8853 401.5879 396.5262 400.582 392.3906 400.1349 384.5667 400.582 376.7427 400.9173 370.1482 395.8876 368.3598 391.752 364.5596 388.7342 358.9711 386.2752 357.1827 384.3751 354.8355 383.1457 349.5823 382.1397 344.2173 390.5226 331.4754 401.2526 329.7988 411.4238 328.234 417.4594 314.9332 422.2656 312.0272 423.495 310.6859 423.7186 310.7977 425.0598 311.9154 427.0717 314.0391 425.6187 316.6098 425.3952 319.5158 425.954 321.6395 427.7424 320.6336 430.2013 317.3922 431.7661 315.7156 433.1074 315.045 436.237 317.3922 435.7899 321.6395 434.6722 325.775 436.0134 327.5634 437.9135 328.234 439.3666 329.9106 440.2607 331.4754 440.8196 332.2578 441.4902 332.7048 441.3784 334.9403 442.0491 335.4991 444.7316 335.4991 446.7435 335.1638 448.7553 334.3814 450.0966 334.8285 449.7613 338.4052 448.6436 340.3053 445.1787 342.9878 443.7256 344.6644 453.1144 348.1293 454.4557 350.5882 450.879 355.7297 454.2321 357.071 460.8266 355.9532 462.7267 358.8593 461.7208 360.7594 461.0502 362.7713 460.6031 364.8949 460.4913 367.3539 461.3855 367.0186 463.1738 369.0305 464.2915 370.9306 464.7386 371.6012 464.6268 372.8307 478.3747 374.5073 477.0334 376.4074 473.7921 377.8604 472.3391 379.2017 471.4449 380.99 471.5567 381.1018 456.8029 392.2789 442.2726 402.003 436.4605 403.9031 431.319 400.3264 426.8482 396.638 427.1835 400.2146Z" />
  <path class="Biləsuvar" d="M618.0887 579.4956L619.877 578.9367 616.0768 570.7774 611.1589 564.0712 599.3111 553.0058 570.1388 517.7979 559.4088 507.8503 556.0557 505.5031 553.7085 504.9442 553.932 502.9323 564.4385 503.8265 576.7333 512.88 588.0222 524.1689 608.3646 536.6872 626.9186 524.2806 636.5309 515.1154 646.255 521.151 654.9732 525.8454 662.1265 517.4626 669.727 518.8039 677.2156 522.0452 685.7102 525.063 694.3166 527.8573 690.5164 539.4815 689.6222 551.1057 693.0871 555.4648 696.2167 560.1592 695.3226 566.0831 693.7578 572.1187 689.2869 572.2305 685.0396 571.2245 682.3571 569.6597 679.451 569.7715 677.4392 572.3422 675.9861 575.5836 673.3036 578.0426 672.7448 581.1722 672.4095 591.008 667.0444 596.0377 661.3441 592.5728 659.444 584.5253 655.532 578.1543 649.3846 578.1543 644.1314 584.4135 638.0957 589.555 634.519 590.0021 631.2777 591.6787 629.154 594.2494 626.695 596.4848 620.4359 592.9081 619.877 582.2899 618.0887 579.4956Z" />
  <path class="Cəbrayıl" d="M356.6559 612.8034L350.9556 608.6679 345.0317 605.0912 342.3492 598.7202 341.6785 591.3433 338.4372 586.3136 335.8664 581.3957 336.9842 574.4659 341.1197 570.4421 346.3729 572.5658 346.9318 572.7893 348.0495 573.2364 354.4205 573.7953 355.6499 569.995 356.4323 567.2008 356.6559 566.4184 355.3146 562.6182 354.0851 559.265 357.7736 556.6943 358.1089 556.9178 362.1327 559.7121 364.8152 560.718 367.6095 561.724 368.7272 564.2947 368.5036 567.3125 373.5333 571.7834 379.4572 575.0248 381.5809 579.1603 385.9399 578.3779 388.9578 575.5836 392.4227 575.1365 395.1052 575.0248 395.2169 572.1187 394.4345 569.8833 392.9815 565.0771 393.9875 563.5123 396.67 559.265 402.9292 562.3946 408.9648 565.9713 412.3179 572.2305 415.7828 577.4837 420.4772 576.8131 425.5069 575.6954 430.8719 579.0485 432.7721 581.6193 432.7721 581.731 430.7602 582.8487 413.4356 589.6668 405.1646 594.6965 403.488 596.5966 402.9292 598.832 396.5582 609.0032 393.6521 617.4978 392.758 619.1744 390.9696 621.298 389.7402 621.9686 379.3454 627.8925 377.2218 628.2278 374.651 627.5572 369.8449 625.3218 367.0506 625.4336 364.2563 626.7748 364.1446 626.663 362.5798 620.5156 356.6559 612.8034Z" />
  <path class="Cəlilabad" d="M613.3943 659.7473L614.2884 656.7295 614.4002 653.5999 613.3943 650.8056 608.141 639.5167 605.5703 636.946 595.6227 632.9222 585.7868 623.1981 581.5395 617.2743 579.1923 611.2386 579.5276 603.5264 582.6572 597.1554 587.6869 592.3493 593.6108 589.3315 604.4526 587.096 613.6178 580.9486 618.0887 579.4956 619.877 582.2899 620.4359 592.9081 626.695 596.4848 629.154 594.2494 631.2777 591.6787 634.519 590.0021 638.0957 589.555 644.1314 584.4135 649.3846 578.1543 655.532 578.1543 659.444 584.5253 661.3441 592.5728 667.0444 596.0377 672.4095 591.008 672.7448 581.1722 673.3036 578.0426 675.9861 575.5836 677.4392 572.3422 679.451 569.7715 682.3571 569.6597 685.0396 571.2245 689.2869 572.2305 693.7578 572.1187 689.2869 577.9308 685.3749 584.3018 684.0337 592.7964 685.3749 601.4028 691.6341 615.5977 689.6222 630.9103 686.1573 629.3455 682.5806 629.4573 682.3571 633.034 680.6805 634.7106 677.4392 633.5928 674.086 634.487 673.9743 639.6285 676.7685 644.77 672.633 647.676 667.7151 649.5761 662.7971 652.9293 658.9969 657.959 652.7377 664.6652 644.0196 667.0124 639.2134 660.9768 633.2895 657.0648 629.154 657.959 625.0185 659.3002 613.3943 659.7473Z" />
  <path class="Culfa" d="M172.7923 583.2958L173.2394 584.4135 183.187 586.9843 186.7637 589.8903 190.0051 593.467 194.1406 596.7084 196.7113 597.9378 192.6876 603.1911 189.2227 607.3266 185.5342 611.2386 184.4165 614.7035 183.6341 618.6155 182.5164 622.9746 180.8398 627.2219 177.822 633.8164 174.8042 640.5227 171.1157 645.2171 167.4273 649.7997 166.4213 653.4881 165.7507 657.5119 164.9683 659.6355 165.3036 661.9827 171.5628 666.4536 176.7043 671.7068 173.5747 677.2954 173.4629 677.4072 164.633 673.9422 149.0968 673.7187 139.2609 671.2597 134.4548 671.148 133.1135 670.8127 132.7782 667.3477 132.3311 662.4298 134.6783 659.5238 135.796 656.5059 131.2134 649.6879 127.9721 642.311 131.2134 635.3812 131.6605 627.3337 126.8543 623.757 121.2658 621.7451 128.6427 617.0507 132.3311 608.8914 137.4726 605.5383 135.5725 599.2791 142.9494 594.92 150.5498 592.014 155.5795 589.2197 159.4915 593.3552 163.8506 594.2494 167.4273 589.6668 172.5688 583.5194 172.7923 583.4076 172.7923 583.2958Z" />
  <path class="Daşkəsən" d="M182.4046 371.2659L183.8576 367.1304 183.9694 363.7772 185.646 361.2065 186.8755 356.5121 186.9872 350.9235 188.8873 346.4527 187.3226 341.8701 185.0871 338.0699 182.9635 334.1579 186.0931 319.5158 198.3879 311.9154 205.4295 302.5266 212.3593 292.579 219.1773 286.8787 227.4484 291.3495 233.9311 295.485 240.0785 300.1794 244.8847 303.0855 248.9085 306.4386 243.2081 315.2685 236.949 324.6573 241.4198 331.6989 247.2319 336.7286 253.044 341.0877 253.044 347.9057 244.9965 356.7356 240.8609 368.8069 228.6779 370.0364 216.6066 369.1422 205.7648 367.1304 195.9289 370.9306 194.3641 379.0899 194.3641 379.2017 193.2464 379.537 189.7815 379.4252 182.4046 371.2659Z" />
  <path class="Dəvəçi" d="M690.2928 129.9519L695.9932 129.2813 701.47 126.8223 706.9468 128.8342 712.9824 129.1695 720.8064 126.1517 728.9657 126.9341 738.0191 128.4989 747.4079 128.1636 748.4139 127.8283 753.6671 138.8936 756.1261 142.5821 758.3615 146.9411 759.3674 151.9708 761.4911 171.9779 762.6088 176.2252 764.5089 178.0135 762.1617 178.4606 755.2319 172.8721 748.6374 167.3953 743.1606 169.1836 737.6838 171.419 725.1655 171.5308 719.4651 179.4666 722.5947 187.2905 722.7065 196.0087 720.9182 199.9207 718.4592 203.162 714.8825 203.7209 711.6411 204.3915 706.6114 207.9682 704.0407 214.0039 705.4937 224.5103 707.7292 235.0168 702.0288 238.7053 696.8873 243.6232 688.0574 238.8171 679.1157 234.458 679.7864 224.2868 678.8922 215.5686 676.3215 209.9801 679.5628 204.9504 684.0337 201.4855 686.3809 195.6734 680.0099 187.2905 672.7448 179.9136 677.3274 168.7365 686.3809 160.8008 688.6163 158.0065 690.8517 155.1004 690.7399 151.7473 688.3927 148.8413 688.281 139.4525 690.2928 129.9519Z" />
  <path class="Füzuli" d="M495.9228 535.5695L492.7932 537.3579 483.6279 546.7466 481.3925 548.1997 477.4805 548.6468 465.2975 552.8941 458.0323 556.9178 452.4438 561.6122 443.7256 572.7893 438.0253 578.7132 432.7721 581.731 432.7721 581.6193 430.8719 579.0485 425.5069 575.6954 420.4772 576.8131 415.7828 577.4837 412.3179 572.2305 408.9648 565.9713 402.9292 562.3946 396.67 559.265 397.5641 557.3649 398.0112 556.359 398.0112 553.9 399.3525 553.6765 401.2526 553.3411 404.3822 552.3352 403.5998 548.0879 403.3762 547.1937 402.4821 543.5053 403.9351 540.9345 405.7234 538.4756 404.3822 533.5576 399.2407 535.6813 395.664 538.6991 391.8638 539.1462 390.7461 535.346 393.0933 532.5517 393.5404 531.9928 400.6937 530.3163 402.8174 527.6338 404.6057 525.3983 399.0172 526.069 392.5344 524.8395 395.5523 519.698 396.67 519.5862 403.488 519.0274 407.5118 517.4626 411.4238 515.2272 414.3298 511.874 417.6829 510.0857 422.8244 509.1915 428.1894 507.7385 431.7661 507.0679 431.8779 507.0679 434.8957 506.509 441.4902 504.8325 454.791 501.144 468.3153 497.9026 471.1096 504.6089 476.9217 506.1737 481.169 510.9799 484.9692 517.1273 495.9228 526.4043 495.9228 535.4578 495.9228 535.5695Z" />
  <path class="Gədəbəy" d="M123.1659 268.2129L124.2836 270.6718 125.1778 278.1605 130.3193 281.5136 136.802 281.7372 142.167 283.9726 145.7437 288.8905 145.2966 295.1497 149.3204 297.8322 153.4559 301.1854 157.815 303.309 161.9505 298.7264 163.2917 291.7966 164.1859 281.0666 164.0741 271.1189 163.4035 260.9477 165.6389 251.0001 168.7685 255.2474 172.0099 259.0476 174.1336 262.8479 175.2513 267.5422 180.7281 276.7075 188.105 282.7431 194.5877 289.1141 198.6114 296.1557 197.9408 301.1854 198.3879 306.6622 197.2702 309.3447 198.3879 311.9154 186.0931 319.5158 182.9635 334.1579 185.0871 338.0699 187.3226 341.8701 188.8873 346.4527 186.9872 350.9235 186.8755 356.5121 185.646 361.2065 183.9694 363.7772 183.8576 367.1304 182.4046 371.2659 182.1811 371.0424 141.7199 348.0175 131.437 338.4052 125.8484 326.4457 124.3954 323.7631 120.8187 321.416 119.1421 319.5158 118.3597 317.0569 118.0244 312.0272 117.3538 309.7917 114.336 305.9915 110.7593 303.1972 107.4062 299.9559 104.9472 294.5909 104.9472 290.3436 104.9472 284.8668 109.3063 277.1546 116.1243 271.566 123.1659 268.2129ZM129.3133 301.6325L135.1254 297.1616 137.4726 291.2377 133.0018 288.667 130.431 288.3317 127.8603 288.3317 125.5131 289.0023 123.2777 290.5671 122.2717 292.9143 121.9364 295.2615 122.2717 297.6087 123.2777 299.8441 129.3133 301.6325Z" />
  <path class="Gəncə" d="M272.9393 273.5779L281.7692 273.8014 285.2341 282.5196 280.3162 290.7906 273.8334 296.9381 267.1272 296.0439 265.5624 289.0023 266.9036 285.3139 268.1331 281.7372 270.145 279.0547 271.8216 276.2604 272.9393 273.5779Z" />
  <path class="Goranboy" d="M306.5824 367.5774L288.3637 378.9781 275.7336 377.078 275.6218 377.078 268.9155 375.9603 269.1391 360.2006 274.2805 347.2351 278.3043 342.3172 281.6574 336.8404 287.3578 330.0223 293.6169 324.0985 297.6407 319.7394 301.4409 315.045 302.4469 311.0212 299.8761 308.0034 300.2114 294.3673 295.5171 283.4138 298.5349 272.7955 305.4647 266.3128 308.5943 263.0714 307.7001 258.377 309.2649 255.1356 312.7298 253.1238 321.6715 244.6292 330.3897 235.911 337.8783 226.9693 345.7023 218.1394 344.1375 227.3046 344.6964 236.3581 345.2552 246.0822 343.8022 255.3592 340.7844 264.3009 344.8081 270.8954 351.738 272.0131 357.5501 276.0369 353.191 283.0784 347.826 290.4553 350.9556 295.485 357.9971 291.126 363.921 291.6848 368.3919 296.7145 368.0565 306.4386 369.0625 316.3862 374.0922 317.951 379.3454 317.2804 380.7985 319.2923 380.1278 322.869 378.2277 327.6751 374.204 329.5752 370.0684 333.4872 366.1564 337.2875 362.6915 339.5229 359.3384 341.9818 355.8735 344.7761 354.1969 345.7821 352.0733 346.8998 345.5905 347.1233 345.367 347.1233 344.3611 347.1233 339.1078 346.8998 330.5014 350.7 322.1186 355.9532 315.6359 358.524 313.624 359.3064 312.5063 359.7535 310.1591 362.8831 307.7001 366.1244 306.5824 367.5774ZM356.4323 325.9986L357.9971 325.8868 359.5619 324.6573 359.7855 323.5396 359.6737 322.5337 358.7795 321.5277 357.4383 320.41 356.3206 321.3042 355.4264 322.5337 354.644 323.4278 355.3146 324.8809 356.4323 325.9986Z" />
  <path class="Göyçay" d="M489.6636 293.0261L496.0345 289.4494 502.7408 287.8846 508.8882 287.6611 514.5886 284.9785 520.6242 286.6551 526.5481 288.667 530.9072 290.12 535.2662 289.7847 543.9844 290.7906 552.8143 293.6967 562.0913 296.1557 569.3564 302.3031 565.1091 312.8096 565.7798 321.9748 567.121 334.1579 559.7441 338.2934 555.2733 336.3933 550.8024 336.9521 543.9844 336.058 537.6134 333.0402 531.6895 330.0223 525.8774 327.0045 522.3008 326.6692 519.3947 329.1282 515.9298 330.9165 511.7943 329.1282 507.547 325.6633 502.9644 323.0925 499.2759 324.322 495.811 325.5515 492.1226 322.6454 489.2165 319.1805 489.8871 311.5801 492.0108 304.6503 494.1344 302.4149 494.8051 299.8441 492.4579 296.491 489.6636 293.0261Z" />
  <path class="Hajigabul" d="M785.4101 449.3939L788.5397 455.5414 790.7751 462.6947 793.3459 466.1596 795.8048 469.7363 796.4755 475.4366 796.699 481.2487 791.4458 477.1132 786.4161 472.8659 783.8453 469.1774 780.7157 466.7185 776.4684 467.7244 771.8858 468.9539 769.0915 468.2833 766.0737 467.7244 757.2438 466.942 748.4139 465.489 741.484 461.8006 734.8895 457.2179 728.6304 457.5532 722.8183 458.2239 725.5008 455.4296 727.7362 452.6353 727.848 448.388 728.0715 445.929 727.2891 444.0289 725.6125 443.023 723.6007 443.3583 719.018 443.1348 715.2178 442.1288 712.7589 442.9112 706.835 438.1051 703.3701 436.9873 693.4224 435.3108 691.4106 434.3048 690.0693 431.1752 686.8279 430.0575 682.916 429.3869 678.4451 426.9279 677.6627 427.1515 677.2156 426.9279 677.1039 425.0278 677.1039 422.6806 676.9921 421.5629 676.545 421.1158 675.8744 416.9803 676.2097 414.0743 672.4095 411.9506 656.7615 407.7033 640.5547 407.4798 642.0077 397.9792 641.5606 389.0375 640.6664 381.2135 637.5369 375.5132 639.7723 368.5834 643.349 363.4419 650.2788 365.1185 657.2086 367.1304 664.3619 371.3777 671.7388 374.9543 677.7745 377.8604 683.4748 374.9543 688.5045 369.254 690.7399 360.4241 699.2345 365.0067 708.7351 364.1125 710.4117 372.4954 715.1061 377.6369 720.5828 382.7783 725.5008 388.3669 730.4187 395.7438 735.4484 402.4501 741.484 404.2384 747.855 404.7972 756.1261 404.5737 764.0618 405.915 768.3091 411.6153 769.7622 419.2157 773.2271 426.0338 776.9155 432.4047 777.2508 436.8756 778.8156 440.6758 782.2805 444.8113 785.4101 449.3939Z" />
  <path class="İmişli" d="M553.7085 504.9442L553.5967 504.9442 551.5848 507.962 549.7965 509.6386 547.6728 510.1975 534.4838 509.8622 530.3483 510.9799 526.9952 513.3271 524.3127 516.1213 524.3127 516.0096 525.8774 508.6327 533.3661 502.0382 540.743 497.6791 541.9725 490.7493 535.8251 486.2784 529.6777 481.0252 523.9773 475.8837 517.4946 472.5306 518.5006 465.9361 521.5184 457.7768 518.277 455.5414 516.2651 452.0765 518.7241 448.7233 522.189 446.7114 529.007 441.7935 529.3424 432.8518 523.642 426.2573 517.3828 419.6628 524.7597 412.8448 526.5481 416.7568 530.1248 415.7508 531.8013 414.7449 533.5897 415.192 535.2662 415.8626 535.4898 415.9744 537.2781 416.4215 538.6194 417.2039 541.4136 420.3334 542.5314 421.1158 543.6491 420.6688 545.2139 418.6569 546.2198 418.098 547.2257 418.2098 549.0141 419.3275 549.7965 419.551 552.7025 421.0041 554.7144 421.4512 555.7204 420.3334 555.4968 415.4155 555.6086 412.8448 556.2792 410.9447 558.0675 409.9387 560.1912 410.9447 562.2031 412.6212 563.9914 413.2919 567.5681 411.0564 571.033 408.0386 573.7155 407.8151 574.7215 414.186 576.0627 416.8685 585.4515 422.6806 587.0163 423.3513 588.4693 423.463 589.2517 424.3572 589.0282 427.375 594.6167 424.5807 597.8581 423.9101 600.8759 424.3572 602.2172 425.0278 603.782 426.3691 605.0114 428.0457 606.2409 431.7341 607.5822 431.1752 609.7058 428.8281 610.3765 428.6045 611.2706 427.9339 612.3883 427.4868 613.9531 427.375 615.2944 428.381 616.1886 429.7222 617.418 431.7341 617.0827 434.5284 614.9591 436.0932 611.6059 436.9873 607.9175 439.8934 604.4526 443.3583 602.1054 447.0468 600.3171 450.9587 601.9936 453.6413 604.1173 456.1002 604.8997 461.2417 602.6642 466.1596 599.7582 471.5246 598.3052 477.5603 599.9817 482.8135 602.8878 487.2844 613.3943 490.8611 621.6653 498.3497 621.2183 501.3675 620.3241 504.0501 620.1006 509.0798 620.2123 514.1095 622.8948 519.4745 626.9186 524.2806 608.3646 536.6872 588.0222 524.1689 576.7333 512.88 564.4385 503.8265 553.932 502.9323 553.7085 504.9442Z" />
  <path class="İsmayıllı" d="M514.5886 284.9785L519.2829 279.1664 523.642 273.019 527.2187 266.3128 532.3602 261.9537 540.2959 258.377 547.0022 253.012 547.114 247.7587 547.6728 242.729 549.9083 241.8349 552.5908 241.3878 557.6205 237.0287 558.1793 229.9871 553.932 222.722 552.1437 215.1216 553.1496 212.3273 554.6026 209.9801 557.0616 210.2036 559.5206 210.7625 560.8618 207.1858 561.756 202.9385 563.7679 199.0265 566.4504 195.7851 571.5919 197.0146 576.8451 197.4617 581.763 199.4736 586.5692 202.2679 595.8462 207.7447 605.3468 212.1037 618.424 213.1097 628.7069 222.1631 636.3074 231.1048 645.4726 237.5876 646.5903 247.7587 641.1135 257.7064 637.8722 268.9953 632.5072 278.4958 622.1124 286.208 610.8235 291.6848 607.9175 293.0261 605.0114 294.4791 603.5584 296.491 602.6642 298.7264 598.6405 301.6325 594.1696 304.2032 590.7047 306.9975 587.6869 310.5741 587.0163 314.0391 586.3457 317.2804 583.2161 319.7394 579.8629 317.6157 572.9331 320.2982 565.7798 321.9748 565.1091 312.8096 569.3564 302.3031 562.0913 296.1557 552.8143 293.6967 543.9844 290.7906 535.2662 289.7847 530.9072 290.12 526.5481 288.667 520.6242 286.6551 514.5886 284.9785Z" />
  <path class="Kangarli" d="M69.2922 536.9108L75.6631 535.346 80.5811 530.7634 85.2755 529.1986 86.2814 530.7634 84.9402 532.2164 80.9164 538.3638 78.7927 545.1818 77.0044 552.1117 75.7749 558.1473 76.7809 564.0712 79.3516 569.995 80.6928 576.2542 79.5751 578.4897 78.681 581.0604 79.7987 583.6311 81.0282 586.4254 80.3575 591.4551 76.7809 593.8023 72.31 595.926 67.7274 597.2672 63.9272 596.1495 60.0152 594.4729 59.9034 594.4729 56.7738 587.4314 55.3208 585.1959 53.756 584.3018 51.9677 582.1781 50.6264 579.8309 50.0675 578.2661 49.0616 577.1484 48.9498 577.0366 56.662 571.4481 62.3624 562.2828 65.492 548.9821 69.2922 536.9108Z" />
  <path class="Kəlbəcər" d="M194.3641 379.2017L194.3641 379.0899 195.9289 370.9306 205.7648 367.1304 216.6066 369.1422 228.6779 370.0364 240.8609 368.8069 254.3853 373.8366 268.9155 375.9603 275.6218 377.078 275.7336 377.078 288.3637 378.9781 306.5824 367.5774 305.9118 371.6012 304.6823 375.4014 303.0057 376.7427 301.3292 378.3075 300.435 386.5785 302.3351 394.7378 303.8999 402.2265 306.1353 408.4857 310.1591 407.1444 313.9593 404.1266 324.354 405.1326 333.0722 413.4036 337.543 416.9803 339.6667 421.5629 341.0079 424.469 341.9021 426.5926 346.0376 431.287 340.002 431.7341 338.6607 432.5165 334.9723 434.6402 327.8189 435.8696 321.448 439.2228 317.6477 444.9231 312.2827 448.0527 307.5883 444.6996 302.2233 442.0171 297.4172 445.0349 293.3934 447.4938 292.0521 448.1645 284.787 451.4058 277.4101 454.0883 269.6979 455.3178 262.2092 458.5592 250.0262 462.8065 237.396 464.5948 231.3604 466.4949 225.4365 467.1656 221.0774 462.3594 216.6066 458.671 213.1417 464.1477 209.9003 471.6364 203.5294 477.4485 196.8231 482.2547 193.47 484.8254 189.7815 482.9253 181.9575 475.1013 180.6163 472.4188 172.7923 456.4355 169.1039 452.1882 164.2977 449.841 146.1908 447.9409 140.714 445.482 140.3787 442.3524 140.1551 440.1169 151.2205 432.9636 179.7221 437.658 191.7934 436.5403 194.1406 434.5284 195.3701 432.1812 197.382 421.6747 198.0526 419.9981 201.8528 416.645 205.2059 412.1741 207.3296 406.5856 210.4592 391.9436 210.571 390.6023 210.4592 389.2611 210.1239 387.9198 205.653 381.9959 203.1941 379.6487 200.6233 378.3075 196.8231 378.531 194.3641 379.2017Z" />
  <path class="Kürdəmir" d="M616.1886 429.7222L615.2944 428.381 613.9531 427.375 612.3883 427.4868 611.2706 427.9339 610.3765 428.6045 609.7058 428.8281 607.5822 431.1752 606.2409 431.7341 605.0114 428.0457 603.782 426.3691 602.2172 425.0278 600.8759 424.3572 597.8581 423.9101 594.6167 424.5807 589.0282 427.375 589.2517 424.3572 588.4693 423.463 587.0163 423.3513 585.4515 422.6806 576.0627 416.8685 574.7215 414.186 573.7155 407.8151 571.033 408.0386 567.5681 411.0564 563.9914 413.2919 562.2031 412.6212 560.1912 410.9447 558.0675 409.9387 556.2792 410.9447 555.6086 412.8448 555.4968 415.4155 555.7204 420.3334 554.7144 421.4512 552.7025 421.0041 549.7965 419.551 549.0141 419.3275 547.2257 418.2098 546.2198 418.098 545.2139 418.6569 543.6491 420.6688 542.5314 421.1158 541.4136 420.3334 538.6194 417.2039 537.2781 416.4215 535.4898 415.9744 535.2662 415.8626 539.5135 412.733 544.655 410.274 548.567 405.915 551.3613 400.7735 549.4612 384.4549 549.6847 367.5774 554.0438 362.8831 557.3969 356.7356 558.8499 347.6822 559.7441 338.2934 567.121 334.1579 565.7798 321.9748 572.9331 320.2982 579.8629 317.6157 576.398 327.0045 574.945 336.7286 579.6394 341.1994 585.7868 340.0817 588.6928 342.876 592.4931 346.5645 597.2992 342.5407 602.4407 338.1816 610.1529 337.6228 616.971 340.9759 617.418 350.0294 617.6416 358.524 622.7831 360.3123 627.701 362.8831 631.5012 370.4835 637.5369 375.5132 640.6664 381.2135 641.5606 389.0375 642.0077 397.9792 640.5547 407.4798 634.8543 410.6094 630.2717 415.192 624.6832 418.5451 620.2123 422.9042 618.7593 425.922 616.1886 429.7222Z" />
  <path class="Lachin" d="M193.47 484.8254L196.8231 482.2547 203.5294 477.4485 209.9003 471.6364 213.1417 464.1477 216.6066 458.671 221.0774 462.3594 225.4365 467.1656 231.3604 466.4949 237.396 464.5948 250.0262 462.8065 262.2092 458.5592 269.6979 455.3178 277.4101 454.0883 284.787 451.4058 292.0521 448.1645 289.705 454.9825 291.0462 460.7946 295.07 463.4771 298.6466 466.8303 304.5705 479.3486 307.5883 493.5436 309.3767 500.5851 310.0473 505.056 310.3826 507.6267 309.4884 509.5268 307.5883 513.4388 305.2411 519.5862 305.9118 525.6219 309.712 527.0749 313.0651 528.7515 316.0829 531.434 323.3481 530.5398 324.5776 528.4162 328.6013 521.5981 328.7131 521.4864 333.4075 519.9216 338.2136 520.3686 340.6726 525.2866 341.2315 529.5339 341.455 531.6575 333.7428 532.9988 330.8367 536.2402 329.0484 538.252 332.0662 541.4934 332.5133 543.9524 332.9604 546.6349 333.0722 547.3055 329.8308 552.1117 325.0246 555.353 318.2066 560.1592 311.3886 565.4124 303.5646 564.5183 296.9701 560.271 299.0937 559.265 300.3232 557.5884 300.3232 555.4648 299.0937 553.1176 299.2055 549.3174 301.2174 547.529 303.7881 545.9642 305.3529 543.0582 304.7941 539.3697 302.6704 536.4637 299.7644 534.5636 296.9701 533.893 286.0165 535.0107 282.5516 534.4518 279.9809 532.5517 275.9571 526.9631 273.4981 524.9513 267.4625 524.5042 255.6147 530.6516 249.5791 531.8811 245.7789 530.6516 243.2081 528.1926 239.0726 520.4804 236.6136 517.3508 233.5958 515.6743 227.0013 513.7741 221.6363 509.4151 214.93 495.779 210.1239 491.0846 199.1703 487.8432 193.47 484.8254Z" />
  <path class="Lankaran" d="M709.4057 634.3752L715.4414 626.3277 722.2594 618.9508 730.1952 610.1209 738.8015 603.3029 743.943 607.7737 747.2961 615.0388 752.7729 618.6155 758.8086 620.4039 765.5149 623.8688 772.6682 625.6571 775.4625 628.7867 774.5683 632.8105 772.2211 639.9638 771.327 643.5405 770.8799 651.3645 769.9857 656.1706 768.4209 660.0826 755.3437 669.2479 748.5256 671.9304 743.7195 668.0184 744.2783 665.4476 744.1666 663.6593 744.3901 662.0945 746.0667 660.4179 753.8906 658.8531 756.5732 657.5119 758.8086 654.047 760.2616 649.5761 760.3734 645.1053 758.3615 640.9697 754.8966 639.0696 746.6255 638.8461 746.6255 636.8342 745.6196 627.669 744.949 625.0982 741.9311 622.5275 738.578 621.6333 731.2011 621.9686 729.0774 622.6393 728.0715 624.4276 727.4009 626.7748 725.9479 629.9044 725.8361 631.1339 725.8361 633.4811 725.5008 635.2694 724.7184 635.7165 723.8242 635.7165 723.3771 635.94 723.0418 646.4465 723.7124 651.9233 726.5067 656.7295 725.8361 662.2063 721.1417 678.1895 720.5828 679.6426 719.4651 674.8364 716.7826 667.6831 716.2238 661.6474 716.2238 656.5059 712.3118 652.5939 708.1762 648.9055 708.0645 641.6404 709.4057 634.3752ZM682.3571 756.9882L685.822 751.735 687.9457 746.2582 684.9278 742.6815 681.3512 740.2226 681.0158 736.4223 681.5747 732.2868 679.2275 727.4806 676.6568 722.7862 669.0563 717.6448 661.3441 712.6151 659.3322 702.891 664.1384 693.3904 669.727 698.4201 675.8744 702.1086 682.5806 700.7673 688.7281 696.6318 694.3166 693.9493 699.4581 690.8197 701.6935 688.249 704.376 686.5724 711.1941 686.6842 716.6708 688.1372 711.7529 694.1728 705.4937 692.4963 705.6055 700.432 706.0526 704.1205 706.835 707.5854 708.1762 711.0503 704.5996 713.2857 704.5996 716.6388 704.5996 720.2155 705.0466 723.2333 705.9408 724.6864 708.1762 723.6804 710.9705 719.992 711.8647 752.4056 697.8933 756.2058 682.3571 756.9882Z" />
  <path class="Lankaran City" d="M710.9705 719.992L708.1762 723.6804 705.9408 724.6864 705.0466 723.2333 704.5996 720.2155 704.5996 716.6388 704.5996 713.2857 708.1762 711.0503 710.9705 718.0919 710.9705 719.992Z" />
  <path class="Lerik" d="M654.079 781.9132L649.8317 776.5482 647.1492 772.8597 644.2431 769.6184 641.4488 765.1475 638.6546 762.5768 636.4191 759.559 635.1897 753.7469 633.1778 748.9407 629.154 748.9407 620.3241 752.9645 614.9591 752.8527 611.8295 749.9466 609.0352 745.8111 600.6524 739.1048 600.3171 735.3046 601.0994 730.9455 600.2053 727.7042 604.229 725.6923 606.5762 722.1156 608.9234 719.2096 609.8176 714.4034 611.3824 710.0443 614.4002 706.0206 617.6416 702.6674 621.5536 700.3202 625.0185 697.3024 641.0018 687.9136 656.2026 677.1836 661.903 684.2252 664.1384 693.3904 659.3322 702.891 661.3441 712.6151 669.0563 717.6448 676.6568 722.7862 679.2275 727.4806 681.5747 732.2868 681.0158 736.4223 681.3512 740.2226 684.9278 742.6815 687.9457 746.2582 685.822 751.735 682.3571 756.9882 678.5569 759.2237 674.6449 760.7884 670.8447 760.2296 666.7091 761.4591 663.0207 763.471 659.8911 766.6006 658.6616 771.742 656.0909 776.3246 654.079 781.9132Z" />
  <path class="Masallı" d="M644.0196 667.0124L652.7377 664.6652 658.9969 657.959 662.7971 652.9293 667.7151 649.5761 672.633 647.676 676.7685 644.77 673.9743 639.6285 674.086 634.487 677.4392 633.5928 680.6805 634.7106 682.3571 633.034 682.5806 629.4573 686.1573 629.3455 689.6222 630.9103 698.8992 635.0459 709.4057 634.3752 708.0645 641.6404 708.1762 648.9055 712.3118 652.5939 716.2238 656.5059 716.2238 661.6474 716.7826 667.6831 719.4651 674.8364 720.5828 679.6426 717.1179 687.6901 716.6708 688.1372 711.1941 686.6842 704.376 686.5724 701.6935 688.249 699.4581 690.8197 694.3166 693.9493 688.7281 696.6318 682.5806 700.7673 675.8744 702.1086 669.727 698.4201 664.1384 693.3904 661.903 684.2252 656.2026 677.1836 647.2609 675.8424 644.0196 667.0124Z" />
  <path class="Mingəçevir" d="M385.6046 263.1832L389.0695 261.9537 392.4227 262.0655 394.211 264.5244 395.8876 267.654 381.8044 273.4661 373.6451 263.6303 379.0101 260.7242 385.6046 263.1832Z" />
  <path class="Naftalan" d="M356.4323 325.9986L355.3146 324.8809 354.644 323.4278 355.4264 322.5337 356.3206 321.3042 357.4383 320.41 358.7795 321.5277 359.6737 322.5337 359.7855 323.5396 359.5619 324.6573 357.9971 325.8868 356.4323 325.9986Z" />
  <path class="Naxçıvan" d="M121.2658 621.7451L106.1767 623.4217 94.2172 614.5917 100.9234 609.4503 110.5358 609.8974 121.4893 609.115 132.3311 608.8914 128.6427 617.0507 121.2658 621.7451Z" />
  <path class="Neftçala" d="M689.6222 630.9103L691.6341 615.5977 685.3749 601.4028 684.0337 592.7964 685.3749 584.3018 689.2869 577.9308 693.7578 572.1187 701.6935 578.1543 709.4057 584.3018 715.8884 585.643 722.0359 580.8369 725.389 580.0545 727.1773 577.2602 726.1714 572.1187 725.6125 566.5301 729.8598 558.9297 730.5305 558.3708 732.3188 557.0296 732.8777 555.6883 737.7956 550.9939 738.9133 547.4173 739.5839 544.9583 743.943 540.8228 749.6433 546.9702 755.679 554.2353 759.591 556.1354 763.6147 556.9178 766.8561 556.2472 769.8739 554.1235 776.5802 551.9999 783.2865 549.988 784.2924 549.7645 784.4042 552.7823 786.0807 556.9178 802.2876 571.6716 804.2994 574.2424 805.7525 577.1484 805.6407 578.1543 804.8583 578.9367 803.7406 586.4254 803.9641 588.7726 805.4172 591.3433 803.2935 590.2256 801.7287 588.7726 800.4992 587.096 799.4933 585.1959 798.4873 585.1959 799.0462 588.4373 800.611 592.1257 802.7347 595.3671 805.4172 597.2672 805.4172 598.9438 801.5052 598.0496 799.0462 595.2553 796.8108 592.1257 787.9809 586.2019 782.1688 588.4373 777.6979 594.2494 775.9096 601.291 776.0213 625.8806 775.4625 628.7867 772.6682 625.6571 765.5149 623.8688 758.8086 620.4039 752.7729 618.6155 747.2961 615.0388 743.943 607.7737 738.8015 603.3029 730.1952 610.1209 722.2594 618.9508 715.4414 626.3277 709.4057 634.3752 698.8992 635.0459 689.6222 630.9103Z" />
  <path class="Oğuz" d="M451.2143 149.959L452.6673 150.5178 470.6625 152.3062 474.4627 153.5356 479.2689 160.4655 482.5102 162.9244 485.9751 163.0362 492.1226 158.9007 495.4757 157.5594 499.0524 158.0065 508.1058 162.5891 507.7705 165.3834 507.6587 171.3073 508.4411 174.1015 509 176.784 507.547 182.1491 506.2057 188.0729 501.2878 198.9147 495.811 208.7506 496.5934 214.2274 495.9228 219.816 493.0167 224.8457 490.1107 229.9871 486.6458 243.2879 486.4222 257.2593 469.6565 248.4294 454.2321 236.4699 451.2143 233.1167 448.9789 228.9812 448.0847 224.175 446.967 220.0395 444.508 219.816 442.0491 220.7101 440.3725 218.5865 441.1549 215.3451 437.2429 211.0978 434.3369 205.621 436.4605 196.344 440.2607 187.7376 443.9492 179.8019 447.6376 171.7543 449.6495 159.3477 451.2143 149.959Z" />
  <path class="Ordubad" d="M196.7113 597.9378L206.659 602.744 210.1239 606.2089 211.2416 607.9972 211.6887 609.6738 211.3534 611.2386 210.1239 612.8034 205.9883 618.2802 204.8706 623.9805 206.4354 629.9044 210.1239 635.94 214.7065 642.4228 218.1714 649.5761 227.2249 674.8364 237.396 694.1728 235.6077 694.3964 225.5483 691.9374 214.0359 686.6842 177.4867 678.9719 173.4629 677.4072 173.5747 677.2954 176.7043 671.7068 171.5628 666.4536 165.3036 661.9827 164.9683 659.6355 165.7507 657.5119 166.4213 653.4881 167.4273 649.7997 171.1157 645.2171 174.8042 640.5227 177.822 633.8164 180.8398 627.2219 182.5164 622.9746 183.6341 618.6155 184.4165 614.7035 185.5342 611.2386 189.2227 607.3266 192.6876 603.1911 196.7113 597.9378Z" />
  <path class="Qax" d="M320.6656 185.2787L321.6715 183.9374 323.1245 176.5605 324.0187 168.6248 325.6953 162.3656 326.7012 161.0243 329.0484 158.7889 330.0543 157.3359 330.3897 155.8828 330.6132 151.7473 330.9485 150.0707 332.4015 148.1706 333.8546 148.3942 334.4134 148.1706 333.2957 144.8175 327.8189 136.4347 324.4658 132.6344 323.3481 130.6226 323.1245 130.5108 324.4658 124.0281 332.0662 114.1922 337.7666 101.6738 343.4669 92.3968 352.4086 89.379 363.921 90.0496 375.0981 93.6263 385.3811 91.3909 392.3109 81.6668 399.4642 80.6608 402.7056 79.3196 406.0587 78.649 409.1883 79.4314 411.9826 82.6727 413.2121 86.6965 413.8827 90.6085 415.1122 94.0734 418.13 96.4206 418.5771 96.7559 418.13 97.8736 416.2299 107.1506 412.2062 114.5275 397.8994 124.3634 382.3633 131.2932 375.3217 134.4228 368.6154 138.6701 365.7094 142.2468 364.0328 146.4941 361.7974 149.7354 358.6678 152.3062 354.9793 160.9125 353.8616 171.9779 354.8675 181.0314 362.6915 185.1669 374.7628 204.6151 375.2099 230.7695 360.5679 222.722 345.7023 218.1394 344.9199 212.1037 342.3492 206.8505 341.3432 200.1442 340.5608 193.6615 333.631 189.526 325.6953 189.1906 320.6656 185.2787Z" />
  <path class="Qazax" d="M36.5432 191.4261L43.3613 193.1026 45.2614 199.6971 42.8024 204.9504 36.5432 202.8267 34.3078 200.0325 33.3019 196.5675 33.8607 193.3262 36.5432 191.4261ZM106.4002 207.7447L98.3527 211.7684 94.3289 211.0978 86.7285 207.9682 78.5692 207.074 75.7749 204.6151 73.0924 201.709 69.5157 199.4736 63.8154 193.5497 60.9094 191.9849 60.4623 196.2322 59.3446 198.9147 55.9914 198.5794 52.303 196.0087 50.0675 192.2085 51.8559 184.8316 69.0686 185.5022 74.9925 181.1431 74.769 177.4547 72.5336 174.2133 63.4801 167.06 60.4623 166.054 49.1734 166.054 46.1556 164.8245 45.1496 161.9185 46.938 157.1123 40.567 143.3645 57.1091 129.6166 57.2209 131.1814 57.8915 132.7462 65.9391 140.5702 69.2922 142.6938 76.8926 144.4822 83.9342 149.2883 87.958 151.1884 107.6297 153.5356 108.1886 153.7592 108.5239 156.5535 109.3063 162.142 104.8354 176.784 105.3943 178.6842 105.9531 180.4725 104.8354 182.1491 103.9413 183.7139 103.8295 186.9552 104.3883 190.0848 105.6178 198.0206 106.0649 205.8446 106.4002 207.6329 106.4002 207.7447ZM76.5573 217.6923L72.5336 217.0217 70.857 211.7684 71.4158 211.2096 71.9747 210.8743 72.6453 210.7625 73.4277 210.8743 78.3457 215.1216 76.5573 217.6923Z" />
  <path class="Qəbələ" d="M528.6717 164.8245L530.013 167.7306 535.4898 171.5308 541.8607 172.8721 548.3435 173.9898 552.7025 187.7376 566.4504 195.7851 563.7679 199.0265 561.756 202.9385 560.8618 207.1858 559.5206 210.7625 557.0616 210.2036 554.6026 209.9801 553.1496 212.3273 552.1437 215.1216 553.932 222.722 558.1793 229.9871 557.6205 237.0287 552.5908 241.3878 549.9083 241.8349 547.6728 242.729 547.114 247.7587 547.0022 253.012 540.2959 258.377 532.3602 261.9537 527.2187 266.3128 523.642 273.019 519.2829 279.1664 514.5886 284.9785 508.8882 287.6611 502.7408 287.8846 496.0345 289.4494 489.6636 293.0261 483.9633 289.7847 479.716 285.2021 479.2689 275.1427 478.71 265.0833 484.7457 263.2949 486.4222 257.2593 486.6458 243.2879 490.1107 229.9871 493.0167 224.8457 495.9228 219.816 496.5934 214.2274 495.811 208.7506 501.2878 198.9147 506.2057 188.0729 507.547 182.1491 509 176.784 508.4411 174.1015 507.6587 171.3073 507.7705 165.3834 508.1058 162.5891 513.2473 165.2716 516.6004 165.9422 528.6717 164.8245Z" />
  <path class="Qobustan" d="M701.3582 265.0833L711.4176 268.1011 720.6946 275.1427 724.8301 278.9429 728.6304 283.8608 735.3366 291.2377 742.9371 296.9381 752.3259 300.1794 759.8145 307.8916 769.0915 317.6157 780.3804 323.6514 776.8037 330.3576 771.9976 335.2756 767.0796 339.1876 761.7146 341.5348 756.2378 342.5407 751.3199 345.5585 748.6374 350.5882 745.1725 354.1649 739.2486 356.065 734.3307 361.2065 730.5305 365.1185 726.7303 369.0305 723.7124 372.4954 720.3593 370.3717 714.7707 366.4597 708.7351 364.1125 699.2345 365.0067 690.7399 360.4241 683.8101 361.2065 677.1039 361.43 675.9861 357.9651 680.9041 355.1708 683.9219 352.6001 684.9278 347.9057 686.9397 343.882 688.9516 339.8582 690.0693 336.058 687.9457 332.8166 687.1633 329.5752 687.3868 325.5515 686.8279 320.6336 685.4867 315.9392 685.4867 311.5801 684.7043 307.7799 682.1336 305.6562 680.457 302.7502 683.0277 298.3911 686.1573 294.032 685.4867 283.9726 687.7221 274.3603 694.2048 269.3306 701.3582 265.0833Z" />
  <path class="Quba" d="M661.0088 98.656L664.5855 105.5858 669.0563 112.5156 672.1859 118.9983 675.4273 125.2575 678.3333 129.5048 682.6924 128.3871 686.8279 126.9341 690.2928 129.9519 688.281 139.4525 688.3927 148.8413 690.7399 151.7473 690.8517 155.1004 688.6163 158.0065 686.3809 160.8008 677.3274 168.7365 672.7448 179.9136 680.0099 187.2905 686.3809 195.6734 684.0337 201.4855 679.5628 204.9504 676.3215 209.9801 678.8922 215.5686 679.7864 224.2868 679.1157 234.458 667.4915 231.1048 656.3144 226.2987 642.6783 222.3867 628.7069 222.1631 618.424 213.1097 605.3468 212.1037 595.8462 207.7447 586.5692 202.2679 581.763 199.4736 576.8451 197.4617 571.5919 197.0146 566.4504 195.7851 552.7025 187.7376 548.3435 173.9898 581.9866 148.2824 616.3003 124.1398 628.1481 114.1922 641.0018 107.5977 651.2847 104.3563 661.0088 98.656Z" />
  <path class="Qubadli" d="M317.7595 614.0329L317.536 613.3623 316.4183 612.021 315.3006 611.0151 307.8119 605.7618 303.6763 601.4028 301.9998 598.0496 300.9938 594.4729 299.7644 591.2316 296.9701 588.8844 284.4517 583.2958 278.8631 578.9367 276.4042 571.8952 278.7514 566.0831 284.2282 562.6182 296.9701 560.271 303.5646 564.5183 311.3886 565.4124 318.2066 560.1592 325.0246 555.353 329.2719 556.2472 333.5193 556.9178 337.0959 556.0237 340.7844 555.0177 343.8022 557.2531 345.0317 559.1532 345.9259 560.6063 345.367 562.3946 344.2493 565.9713 341.1197 570.4421 336.9842 574.4659 335.8664 581.3957 338.4372 586.3136 341.6785 591.3433 342.3492 598.7202 345.0317 605.0912 350.9556 608.6679 356.6559 612.8034 349.6143 616.7154 342.7963 621.0745 337.0959 627.7807 332.0662 635.0459 325.0246 630.7986 323.1245 614.5917 317.7595 614.0329Z" />
  <path class="Qusar" d="M641.3371 43.5528L645.8079 43.1057 650.3905 48.2472 646.4785 60.4303 649.6081 71.7191 654.3025 72.1662 658.5498 73.3957 658.4381 77.9783 655.6438 82.1139 658.8851 89.0437 661.0088 98.656 651.2847 104.3563 641.0018 107.5977 628.1481 114.1922 616.3003 124.1398 581.9866 148.2824 548.3435 173.9898 541.8607 172.8721 535.4898 171.5308 530.013 167.7306 528.6717 164.8245 531.3542 164.601 538.7311 162.3656 542.7549 159.7948 543.5373 157.5594 542.6431 154.5416 541.8607 149.8472 542.3078 145.041 543.9844 142.8056 546.2198 141.129 548.7905 137.9994 550.2436 133.8639 551.1377 130.1755 552.9261 128.2754 557.5087 129.0578 561.3089 126.8223 567.121 110.2802 570.3624 103.7975 576.0627 100.2208 596.0697 96.4206 601.2112 93.6263 610.3765 85.6905 625.3538 76.3018 629.3776 71.9427 632.8425 65.2364 640.1076 45.0058 641.3371 43.5528Z" />
  <path class="Saatlı" d="M626.9186 524.2806L622.8948 519.4745 620.2123 514.1095 620.1006 509.0798 620.3241 504.0501 621.2183 501.3675 621.6653 498.3497 613.3943 490.8611 602.8878 487.2844 599.9817 482.8135 598.3052 477.5603 599.7582 471.5246 602.6642 466.1596 604.8997 461.2417 604.1173 456.1002 601.9936 453.6413 600.3171 450.9587 602.1054 447.0468 604.4526 443.3583 607.3586 448.0527 611.0471 447.4938 615.6297 445.1466 620.2123 442.4641 626.0244 439.6699 632.1718 438.7757 636.3074 440.6758 639.9958 443.8054 638.7663 446.935 637.5369 450.5117 639.2134 453.753 641.8959 455.7649 644.1314 455.9884 645.9197 454.0883 649.6081 451.8529 653.9672 452.0765 661.4559 456.212 668.6092 461.0182 675.9861 464.3713 681.5747 471.6364 681.4629 475.9955 680.3452 480.131 681.0158 485.9431 683.2513 490.9728 683.2513 498.7968 679.004 505.3913 670.9564 509.3033 662.5736 510.9799 657.4321 515.3389 662.1265 517.4626 654.9732 525.8454 646.255 521.151 636.5309 515.1154 626.9186 524.2806Z" />
  <path class="Sabirabad" d="M604.4526 443.3583L607.9175 439.8934 611.6059 436.9873 614.9591 436.0932 617.0827 434.5284 617.418 431.7341 616.1886 429.7222 618.7593 425.922 620.2123 422.9042 624.6832 418.5451 630.2717 415.192 634.8543 410.6094 640.5547 407.4798 656.7615 407.7033 672.4095 411.9506 676.2097 414.0743 675.8744 416.9803 676.545 421.1158 676.9921 421.5629 677.1039 422.6806 677.1039 425.0278 677.2156 426.9279 677.6627 427.1515 678.4451 426.9279 682.916 429.3869 686.8279 430.0575 690.0693 431.1752 691.4106 434.3048 693.4224 435.3108 703.3701 436.9873 706.835 438.1051 712.7589 442.9112 712.2 449.6175 712.2 452.7471 713.4295 455.7649 714.659 457.3297 716.7826 458.4474 717.9003 458.8945 719.018 460.124 719.018 460.9064 721.8123 466.0479 723.8242 468.8421 724.6066 470.854 724.7184 472.307 724.4948 476.6661 724.6066 478.4545 725.1655 480.2428 726.6185 482.7018 726.9538 484.7136 726.3949 486.2784 725.389 487.955 724.6066 489.8551 725.2772 491.7552 730.6422 496.8967 733.3248 500.0263 733.5483 502.4853 731.6482 505.7266 729.301 511.9858 726.9538 514.2212 723.7124 515.4507 720.1358 519.2509 714.8825 522.0452 715.5531 527.0749 714.7707 530.8751 710.8587 529.0868 706.6114 526.6278 700.3523 527.4102 694.3166 527.8573 685.7102 525.063 677.2156 522.0452 669.727 518.8039 662.1265 517.4626 657.4321 515.3389 662.5736 510.9799 670.9564 509.3033 679.004 505.3913 683.2513 498.7968 683.2513 490.9728 681.0158 485.9431 680.3452 480.131 681.4629 475.9955 681.5747 471.6364 675.9861 464.3713 668.6092 461.0182 661.4559 456.212 653.9672 452.0765 649.6081 451.8529 645.9197 454.0883 644.1314 455.9884 641.8959 455.7649 639.2134 453.753 637.5369 450.5117 638.7663 446.935 639.9958 443.8054 636.3074 440.6758 632.1718 438.7757 626.0244 439.6699 620.2123 442.4641 615.6297 445.1466 611.0471 447.4938 607.3586 448.0527 604.4526 443.3583Z" />
  <path class="Şahbuz" d="M113.6653 553.0058L113.7771 553.1176 115.5655 554.1235 117.5773 554.4589 119.5892 554.1235 121.4893 553.1176 123.2777 552.3352 137.2491 543.3935 141.9435 541.4934 163.18 536.2402 164.1859 536.0166 168.2097 535.9048 173.0158 537.805 176.9278 540.5992 178.4926 543.5053 178.6044 547.3055 177.9338 553.0058 179.6103 563.2888 178.8279 566.8655 172.9041 576.4778 171.7864 581.0604 172.7923 583.2958 172.7923 583.4076 172.5688 583.5194 167.4273 589.6668 163.8506 594.2494 159.4915 593.3552 155.5795 589.2197 150.5498 592.014 142.9494 594.92 135.5725 599.2791 132.5547 599.7262 130.9899 596.7084 131.3252 594.92 131.3252 592.2375 129.6486 589.8903 127.6367 587.5431 119.701 583.5194 111.877 579.7191 110.0887 574.8012 108.5239 570.1068 104.7237 568.542 102.1529 566.6419 106.2884 560.1592 111.877 555.4648 113.6653 553.0058Z" />
  <path class="Salyan" d="M693.7578 572.1187L695.3226 566.0831 696.2167 560.1592 693.0871 555.4648 689.6222 551.1057 690.5164 539.4815 694.3166 527.8573 700.3523 527.4102 706.6114 526.6278 710.8587 529.0868 714.7707 530.8751 715.5531 527.0749 714.8825 522.0452 720.1358 519.2509 723.7124 515.4507 726.9538 514.2212 729.301 511.9858 731.6482 505.7266 733.5483 502.4853 733.3248 500.0263 730.6422 496.8967 725.2772 491.7552 724.6066 489.8551 725.389 487.955 726.3949 486.2784 726.9538 484.7136 726.6185 482.7018 725.1655 480.2428 724.6066 478.4545 724.4948 476.6661 724.7184 472.307 724.6066 470.854 723.8242 468.8421 721.8123 466.0479 719.018 460.9064 719.018 460.124 720.3593 460.5711 722.8183 458.2239 728.6304 457.5532 734.8895 457.2179 741.484 461.8006 748.4139 465.489 757.2438 466.942 766.0737 467.7244 769.0915 468.2833 771.8858 468.9539 776.4684 467.7244 780.7157 466.7185 783.8453 469.1774 786.4161 472.8659 791.4458 477.1132 796.699 481.2487 794.24 489.9669 794.5754 499.691 795.246 507.2914 797.0343 514.1095 793.3459 518.6921 789.9927 524.2806 790.1045 528.1926 788.0926 531.8811 786.3043 536.9108 784.963 542.164 784.1806 546.6349 784.2924 549.7645 783.2865 549.988 776.5802 551.9999 769.8739 554.1235 766.8561 556.2472 763.6147 556.9178 759.591 556.1354 755.679 554.2353 749.6433 546.9702 743.943 540.8228 739.5839 544.9583 738.9133 547.4173 737.7956 550.9939 732.8777 555.6883 732.3188 557.0296 730.5305 558.3708 729.8598 558.9297 725.6125 566.5301 726.1714 572.1187 727.1773 577.2602 725.389 580.0545 722.0359 580.8369 715.8884 585.643 709.4057 584.3018 701.6935 578.1543 693.7578 572.1187Z" />
  <path class="Şamaxı" d="M679.1157 234.458L688.0574 238.8171 696.8873 243.6232 694.6519 255.2474 701.3582 265.0833 694.2048 269.3306 687.7221 274.3603 685.4867 283.9726 686.1573 294.032 683.0277 298.3911 680.457 302.7502 682.1336 305.6562 684.7043 307.7799 685.4867 311.5801 685.4867 315.9392 686.8279 320.6336 687.3868 325.5515 687.1633 329.5752 687.9457 332.8166 690.0693 336.058 688.9516 339.8582 686.9397 343.882 684.9278 347.9057 683.9219 352.6001 680.9041 355.1708 675.9861 357.9651 677.1039 361.43 683.8101 361.2065 690.7399 360.4241 688.5045 369.254 683.4748 374.9543 677.7745 377.8604 671.7388 374.9543 664.3619 371.3777 657.2086 367.1304 650.2788 365.1185 643.349 363.4419 647.1492 358.8593 650.5023 354.1649 651.0612 348.5763 651.62 343.0996 659.2205 336.9521 668.0504 333.1519 671.6271 331.2518 674.3096 328.0105 671.4035 325.6633 667.6033 323.7631 664.0266 321.0806 660.2264 319.0688 654.1908 318.8452 648.1551 318.7334 641.5606 315.9392 636.6427 309.68 638.5428 300.0677 646.1432 292.9143 647.4845 291.0142 648.714 289.1141 648.714 286.7669 648.4904 285.0903 650.7259 280.843 652.626 276.5957 649.2728 269.4424 643.9078 263.9656 642.6783 260.836 641.1135 257.7064 646.5903 247.7587 645.4726 237.5876 636.3074 231.1048 628.7069 222.1631 642.6783 222.3867 656.3144 226.2987 667.4915 231.1048 679.1157 234.458Z" />
  <path class="Samux" d="M229.0132 168.0659L233.3723 165.1598 237.2843 164.2657 250.3615 164.2657 253.4911 165.2716 256.1736 167.9541 261.2033 174.3251 271.4862 183.6021 275.0629 185.8375 285.4576 189.1906 288.2519 191.7614 293.1699 198.2441 296.1877 200.1442 299.9879 200.0325 301.5527 197.5735 302.5586 193.9968 304.4587 190.3084 308.1472 187.9612 311.5003 188.2965 314.8535 189.1906 318.2066 188.7436 320.6656 185.2787 325.6953 189.1906 333.631 189.526 340.5608 193.6615 341.3432 200.1442 342.3492 206.8505 344.9199 212.1037 345.7023 218.1394 337.8783 226.9693 330.3897 235.911 321.6715 244.6292 312.7298 253.1238 309.2649 255.1356 307.7001 258.377 308.5943 263.0714 305.4647 266.3128 298.5349 272.7955 295.5171 283.4138 285.2341 282.5196 281.7692 273.8014 272.9393 273.5779 267.1272 260.1653 261.8739 248.7647 258.8561 240.7172 260.6444 232.5579 261.9857 228.5341 262.8799 224.3986 264.1094 219.0336 266.7919 214.5627 267.686 206.4034 263.6623 198.5794 256.6207 188.7436 249.2438 178.9077 239.5197 174.1015 229.9074 168.6248 229.0132 168.0659Z" />
  <path class="Sədərək" d="M31.9606 498.4615L31.9606 499.8028 28.1604 504.3854 21.4541 506.509 14.3008 513.4388 9.4946 522.2688 7.0356 520.8157 6.5886 520.1451 4.5767 517.3508 2.6766 508.7444 1 505.9502 5.9179 503.8265 13.9655 502.2617 21.5659 502.4853 27.4898 501.0322 31.9606 498.4615Z" />
  <path class="Şəki" d="M451.2143 149.959L449.6495 159.3477 447.6376 171.7543 443.9492 179.8019 440.2607 187.7376 436.4605 196.344 434.3369 205.621 437.2429 211.0978 441.1549 215.3451 440.3725 218.5865 442.0491 220.7101 444.508 219.816 446.967 220.0395 448.0847 224.175 448.9789 228.9812 451.2143 233.1167 454.2321 236.4699 469.6565 248.4294 486.4222 257.2593 484.7457 263.2949 478.71 265.0833 471.7802 266.4245 465.1857 264.8597 462.1679 263.4067 459.0383 262.4008 457.3617 263.1832 456.0205 264.0773 451.7732 264.0773 447.4141 262.1772 440.2607 260.3889 433.1074 258.8241 419.8066 253.1238 406.6176 247.647 391.0814 238.8171 375.2099 230.7695 374.7628 204.6151 362.6915 185.1669 354.8675 181.0314 353.8616 171.9779 354.9793 160.9125 358.6678 152.3062 361.7974 149.7354 364.0328 146.4941 365.7094 142.2468 368.6154 138.6701 375.3217 134.4228 382.3633 131.2932 397.8994 124.3634 412.2062 114.5275 416.2299 107.1506 418.13 97.8736 418.5771 96.7559 419.9184 98.2089 420.7008 100.2208 421.2596 102.4562 422.2656 104.8034 427.6306 111.6215 428.9718 114.4157 429.5307 120.0043 429.1954 132.1873 430.9837 137.4406 434.0015 140.4584 447.1905 148.5059 451.2143 149.959ZM420.2537 174.5486L422.7127 173.2074 425.5069 167.06 425.0598 162.4773 421.4832 156.2182 419.3595 154.6534 417.4594 156.2182 416.2299 159.9066 415.1122 164.2657 413.5474 169.0718 413.1003 172.5367 420.2537 174.5486ZM420.2537 174.5486L413.1003 172.5367 413.5474 169.0718 415.1122 164.2657 416.2299 159.9066 417.4594 156.2182 419.3595 154.6534 421.4832 156.2182 425.0598 162.4773 425.5069 167.06 422.7127 173.2074 420.2537 174.5486Z" />
  <path class="Şəmkir" d="M165.6389 251.0001L165.4154 243.8468 168.545 238.37 173.7982 234.9051 178.6044 230.6578 184.3047 226.634 190.0051 222.3867 193.2464 215.4569 195.8172 208.9741 204.2 207.4094 212.8064 208.5271 221.6363 209.533 230.1309 207.6329 231.3604 204.3915 232.9252 200.8149 234.8253 198.2441 236.7254 195.6734 243.8788 188.0729 249.2438 178.9077 256.6207 188.7436 263.6623 198.5794 267.686 206.4034 266.7919 214.5627 264.1094 219.0336 262.8799 224.3986 261.9857 228.5341 260.6444 232.5579 258.8561 240.7172 261.8739 248.7647 259.0796 253.4591 256.6207 258.2652 255.9501 262.6243 255.503 267.0952 254.0499 270.4483 252.7087 273.6897 252.1498 277.8252 251.2557 281.7372 246.5613 285.2021 240.8609 285.0903 233.8194 286.7669 227.4484 291.3495 219.1773 286.8787 212.3593 292.579 205.4295 302.5266 198.3879 311.9154 197.2702 309.3447 198.3879 306.6622 197.9408 301.1854 198.6114 296.1557 194.5877 289.1141 188.105 282.7431 180.7281 276.7075 175.2513 267.5422 174.1336 262.8479 172.0099 259.0476 168.7685 255.2474 165.6389 251.0001Z" />
  <path class="Şərur" d="M69.2922 536.9108L65.492 548.9821 62.3624 562.2828 56.662 571.4481 48.9498 577.0366 42.8024 572.7893 42.2436 572.0069 41.7965 571.001 41.2376 570.1068 39.8964 569.7715 37.9963 569.7715 37.1021 569.6597 32.6312 566.4184 31.9606 564.7418 33.4136 562.0593 29.837 558.8179 27.7133 554.3471 22.4601 532.6635 20.3364 527.7455 16.7597 525.1748 17.4304 524.5042 17.8774 523.4982 13.9655 523.3865 10.1652 522.6041 9.4946 522.2688 14.3008 513.4388 21.4541 506.509 28.1604 504.3854 31.9606 499.8028 31.9606 498.4615 32.9666 497.9026 39.4493 492.9847 45.932 490.6375 51.8559 493.6553 53.0854 495.3319 64.5978 510.0857 66.3861 513.8859 67.1685 518.0215 66.8332 523.2747 65.1567 531.434 65.8273 534.6754 69.2922 536.9108Z" />
  <path class="Shirvan" d="M722.8183 458.2239L720.3593 460.5711 719.018 460.124 717.9003 458.8945 716.7826 458.4474 714.659 457.3297 713.4295 455.7649 712.2 452.7471 712.2 449.6175 712.7589 442.9112 715.2178 442.1288 719.018 443.1348 723.6007 443.3583 725.6125 443.023 727.2891 444.0289 728.0715 445.929 727.848 448.388 727.7362 452.6353 725.5008 455.4296 722.8183 458.2239Z" />
  <path class="Siyəzən" d="M707.7292 235.0168L705.4937 224.5103 704.0407 214.0039 706.6114 207.9682 711.6411 204.3915 714.8825 203.7209 718.4592 203.162 720.9182 199.9207 722.7065 196.0087 722.5947 187.2905 719.4651 179.4666 725.1655 171.5308 737.6838 171.419 743.1606 169.1836 748.6374 167.3953 755.2319 172.8721 762.1617 178.4606 764.5089 178.0135 765.7384 180.696 768.6444 197.1264 776.9155 210.986 797.8167 234.6815 799.2697 236.8052 798.4873 237.1405 791.5575 237.0287 784.8513 238.1464 776.692 240.3818 768.1974 239.5994 760.8205 237.0287 753.8906 232.5579 748.9727 230.6578 744.7254 227.6399 743.4959 219.1453 739.5839 215.7922 735.8955 217.1334 733.1012 220.1513 732.3188 223.9515 731.2011 227.3046 725.5008 230.6578 719.2416 232.5579 713.5413 234.6815 707.7292 235.0168Z" />
  <path class="Stepanakert" d="M345.7023 483.9312L342.908 482.0311 342.4609 476.7779 345.367 472.6424 347.9377 470.4069 349.1672 469.6245 350.2849 470.0716 352.185 471.0776 353.5263 473.7601 352.8557 475.5484 351.4026 475.6602 350.6202 477.8956 348.9437 482.0311 345.7023 483.9312Z" />
  <path class="Sumqayıt" d="M818.6062 293.6967L820.0592 289.1141 825.9831 288.3317 827.1008 287.7728 828.3303 289.7847 831.3481 292.6908 834.813 295.2615 837.1602 296.3792 844.6488 296.8263 848.002 297.7205 850.7963 299.2853 857.0554 304.8738 857.9496 305.3209 857.5025 307.5563 856.0495 310.1271 854.5965 312.8096 845.7666 315.8274 837.0484 314.9332 834.0306 310.2388 831.2363 305.0974 825.3124 298.1675 818.6062 293.6967Z" />
  <path class="Şuşa" d="M341.455 531.6575L341.2315 529.5339 340.6726 525.2866 338.2136 520.3686 333.4075 519.9216 328.7131 521.4864 328.6013 521.5981 324.5776 528.4162 323.3481 530.5398 316.0829 531.434 313.0651 528.7515 309.712 527.0749 305.9118 525.6219 305.2411 519.5862 307.5883 513.4388 309.4884 509.5268 310.3826 507.6267 310.0473 505.056 309.3767 500.5851 307.5883 493.5436 311.5003 492.9847 312.3945 492.8729 315.5241 492.4259 319.1008 490.6375 322.6774 488.8492 330.0543 487.955 337.8783 489.1845 342.4609 490.414 345.4788 491.0846 348.7201 493.7671 350.5085 501.5911 350.8438 507.962 350.9556 512.4329 350.8438 516.6802 346.2612 524.1689 343.0198 529.1986 342.3492 530.3163 341.455 531.6575Z" />
  <path class="Tərtər" d="M346.0376 431.287L341.9021 426.5926 341.0079 424.469 339.6667 421.5629 337.543 416.9803 333.0722 413.4036 324.354 405.1326 313.9593 404.1266 310.1591 407.1444 306.1353 408.4857 303.8999 402.2265 302.3351 394.7378 300.435 386.5785 301.3292 378.3075 303.0057 376.7427 304.6823 375.4014 305.9118 371.6012 306.5824 367.5774 307.7001 366.1244 310.1591 362.8831 312.5063 359.7535 313.624 359.3064 315.6359 358.524 322.1186 355.9532 330.5014 350.7 339.1078 346.8998 344.3611 347.1233 345.367 347.1233 345.5905 347.1233 352.0733 346.8998 354.1969 345.7821 355.8735 344.7761 359.3384 341.9818 362.6915 339.5229 366.1564 337.2875 370.0684 333.4872 374.204 329.5752 375.5452 333.0402 376.4394 336.8404 379.0101 340.7524 382.1397 344.2173 383.1457 349.5823 384.3751 354.8355 386.2752 357.1827 388.7342 358.9711 391.752 364.5596 395.8876 368.3598 400.9173 370.1482 400.582 376.7427 400.1349 384.5667 400.582 392.3906 401.5879 396.5262 402.3703 400.8853 399.576 401.2206 399.3525 401.2206 397.5641 401.5559 392.9815 400.1029 391.305 394.179 388.0636 390.1552 384.0398 391.8318 379.6807 390.9376 377.8924 389.1493 375.7688 388.3669 375.657 388.3669 374.4275 391.2729 375.4334 394.8496 364.4799 400.2146 357.8854 403.2325 356.7677 403.7913 355.0911 404.5737 353.7498 412.2859 349.279 416.9803 346.82 423.016 346.0376 431.287Z" />
  <path class="Tovuz" d="M173.91 156.8888L182.6282 162.2538 208.4473 171.5308 216.8301 172.6485 220.9657 172.2014 224.4306 170.9719 229.0132 168.0659 229.9074 168.6248 239.5197 174.1015 249.2438 178.9077 243.8788 188.0729 236.7254 195.6734 234.8253 198.2441 232.9252 200.8149 231.3604 204.3915 230.1309 207.6329 221.6363 209.533 212.8064 208.5271 204.2 207.4094 195.8172 208.9741 193.2464 215.4569 190.0051 222.3867 184.3047 226.634 178.6044 230.6578 173.7982 234.9051 168.545 238.37 165.4154 243.8468 165.6389 251.0001 163.4035 260.9477 164.0741 271.1189 164.1859 281.0666 163.2917 291.7966 161.9505 298.7264 157.815 303.309 153.4559 301.1854 149.3204 297.8322 145.2966 295.1497 145.7437 288.8905 142.167 283.9726 136.802 281.7372 130.3193 281.5136 125.1778 278.1605 124.2836 270.6718 123.1659 268.2129 136.5784 261.6184 141.1611 256.4769 144.5142 246.9763 144.1789 241.9466 141.1611 240.2701 137.0255 240.0465 133.4488 238.8171 130.7663 236.0228 123.2777 226.4105 118.695 222.722 117.0185 222.1631 118.9186 215.3451 122.2717 210.7625 125.2895 206.7387 130.431 205.2857 135.6843 203.6091 140.9375 198.1323 142.8376 190.0848 140.714 183.4903 138.5903 176.784 143.9553 172.6485 153.903 172.8721 157.1443 167.2835 161.727 163.148 168.6568 159.7948 173.91 156.8888Z" />
  <path class="Ucar" d="M559.7441 338.2934L558.8499 347.6822 557.3969 356.7356 554.0438 362.8831 549.6847 367.5774 539.8488 368.2481 530.1248 369.8129 521.0713 368.5834 512.3531 368.9187 508.1058 371.713 503.7468 372.3836 500.9525 368.5834 498.1582 364.2243 488.3223 356.7356 478.2629 349.9176 475.5804 344.6644 470.7743 341.8701 468.2035 336.1697 469.433 329.4635 470.886 321.1924 475.9157 317.7275 482.5102 317.0569 489.2165 319.1805 492.1226 322.6454 495.811 325.5515 499.2759 324.322 502.9644 323.0925 507.547 325.6633 511.7943 329.1282 515.9298 330.9165 519.3947 329.1282 522.3008 326.6692 525.8774 327.0045 531.6895 330.0223 537.6134 333.0402 543.9844 336.058 550.8024 336.9521 555.2733 336.3933 559.7441 338.2934Z" />
  <path class="Xaçmaz" d="M641.3371 43.5528L653.1848 28.1284 661.5677 14.6041 663.4678 16.1689 668.721 19.4102 674.8684 24.9988 690.1811 46.3471 696.105 52.3827 698.5639 55.9594 699.5699 61.6597 711.4176 75.0723 718.1239 89.379 721.5888 90.7202 724.4948 93.7381 726.7303 97.4265 728.1833 100.3326 732.207 106.3682 732.8777 107.7095 733.7718 108.7154 738.0191 109.9449 739.4722 110.8391 742.1547 114.751 748.4139 127.8283 747.4079 128.1636 738.0191 128.4989 728.9657 126.9341 720.8064 126.1517 712.9824 129.1695 706.9468 128.8342 701.47 126.8223 695.9932 129.2813 690.2928 129.9519 686.8279 126.9341 682.6924 128.3871 678.3333 129.5048 675.4273 125.2575 672.1859 118.9983 669.0563 112.5156 664.5855 105.5858 661.0088 98.656 658.8851 89.0437 655.6438 82.1139 658.4381 77.9783 658.5498 73.3957 654.3025 72.1662 649.6081 71.7191 646.4785 60.4303 650.3905 48.2472 645.8079 43.1057 641.3371 43.5528Z" />
  <path class="Xanlar" d="M240.8609 368.8069L244.9965 356.7356 253.044 347.9057 253.044 341.0877 247.2319 336.7286 241.4198 331.6989 236.949 324.6573 243.2081 315.2685 248.9085 306.4386 244.8847 303.0855 240.0785 300.1794 233.9311 295.485 227.4484 291.3495 233.8194 286.7669 240.8609 285.0903 246.5613 285.2021 251.2557 281.7372 252.1498 277.8252 252.7087 273.6897 254.0499 270.4483 255.503 267.0952 255.9501 262.6243 256.6207 258.2652 259.0796 253.4591 261.8739 248.7647 267.1272 260.1653 272.9393 273.5779 271.8216 276.2604 270.145 279.0547 268.1331 281.7372 266.9036 285.3139 265.5624 289.0023 267.1272 296.0439 273.8334 296.9381 280.3162 290.7906 285.2341 282.5196 295.5171 283.4138 300.2114 294.3673 299.8761 308.0034 302.4469 311.0212 301.4409 315.045 297.6407 319.7394 293.6169 324.0985 287.3578 330.0223 281.6574 336.8404 278.3043 342.3172 274.2805 347.2351 269.1391 360.2006 268.9155 375.9603 254.3853 373.8366 240.8609 368.8069Z" />
  <path class="Xizı" d="M696.8873 243.6232L702.0288 238.7053 707.7292 235.0168 713.5413 234.6815 719.2416 232.5579 725.5008 230.6578 731.2011 227.3046 732.3188 223.9515 733.1012 220.1513 735.8955 217.1334 739.5839 215.7922 743.4959 219.1453 744.7254 227.6399 748.9727 230.6578 753.8906 232.5579 760.8205 237.0287 768.1974 239.5994 776.692 240.3818 784.8513 238.1464 791.5575 237.0287 798.4873 237.1405 799.2697 236.8052 799.4933 237.2523 801.0581 241.0525 804.7465 244.1821 812.6823 249.1 816.4825 248.0941 819.8356 251.0001 822.9652 254.9121 826.4301 256.8122 828.3303 259.0476 827.5479 264.0773 824.53 272.5719 823.4123 277.0428 823.1888 279.39 823.4123 281.9607 824.1947 283.4138 826.4301 286.3198 826.989 287.5493 827.1008 287.7728 825.9831 288.3317 820.0592 289.1141 818.6062 293.6967 815.0295 299.6206 810.2233 303.8679 807.9879 306.6622 805.976 309.5682 805.1936 313.9273 804.4112 318.1746 793.2341 323.2043 780.3804 323.6514 769.0915 317.6157 759.8145 307.8916 752.3259 300.1794 742.9371 296.9381 735.3366 291.2377 728.6304 283.8608 724.8301 278.9429 720.6946 275.1427 711.4176 268.1011 701.3582 265.0833 694.6519 255.2474 696.8873 243.6232Z" />
  <path class="Xocalı" d="M292.0521 448.1645L293.3934 447.4938 297.4172 445.0349 302.2233 442.0171 307.5883 444.6996 312.2827 448.0527 317.6477 444.9231 321.448 439.2228 327.8189 435.8696 334.9723 434.6402 341.1197 439.111 348.273 437.0991 356.6559 441.3464 359.8972 448.9469 360.9032 451.4058 364.2563 454.6472 367.0506 457.2179 374.204 460.5711 372.6392 466.6067 369.0625 471.3011 368.6154 472.1953 365.2623 478.0074 364.927 478.678 361.7974 485.049 359.6737 488.1785 358.2207 491.1964 360.2326 495.4437 363.3622 498.7968 369.0625 504.9442 371.0744 513.6624 365.7094 518.9156 359.7855 523.0512 355.2029 520.5922 350.8438 516.6802 350.9556 512.4329 350.8438 507.962 350.5085 501.5911 348.7201 493.7671 345.4788 491.0846 342.4609 490.414 337.8783 489.1845 330.0543 487.955 322.6774 488.8492 319.1008 490.6375 315.5241 492.4259 312.3945 492.8729 311.5003 492.9847 307.5883 493.5436 304.5705 479.3486 298.6466 466.8303 295.07 463.4771 291.0462 460.7946 289.705 454.9825 292.0521 448.1645ZM345.7023 483.9312L348.9437 482.0311 350.6202 477.8956 351.4026 475.6602 352.8557 475.5484 353.5263 473.7601 352.185 471.0776 350.2849 470.0716 349.1672 469.6245 347.9377 470.4069 345.367 472.6424 342.4609 476.7779 342.908 482.0311 345.7023 483.9312Z" />
  <path class="Xocavənd" d="M325.0246 555.353L329.8308 552.1117 333.0722 547.3055 332.9604 546.6349 332.5133 543.9524 332.0662 541.4934 329.0484 538.252 330.8367 536.2402 333.7428 532.9988 341.455 531.6575 342.3492 530.3163 343.0198 529.1986 346.2612 524.1689 350.8438 516.6802 355.2029 520.5922 359.7855 523.0512 365.7094 518.9156 371.0744 513.6624 369.0625 504.9442 363.3622 498.7968 360.2326 495.4437 358.2207 491.1964 359.6737 488.1785 361.7974 485.049 368.3919 481.6958 375.2099 479.0133 378.6748 473.5365 380.5749 467.0538 388.0636 465.2655 395.2169 468.7304 404.7175 475.1013 414.5534 477.4485 416.9006 473.9836 417.7947 472.6424 418.9124 471.1893 419.5831 470.2952 420.589 470.1834 425.0598 469.6245 428.0777 470.4069 430.6484 471.0776 432.2132 474.5425 435.1193 481.0252 441.4902 485.1607 443.7256 486.502 446.2964 495.2201 441.4902 504.8325 434.8957 506.509 431.8779 507.0679 431.7661 507.0679 428.1894 507.7385 422.8244 509.1915 417.6829 510.0857 414.3298 511.874 411.4238 515.2272 407.5118 517.4626 403.488 519.0274 396.67 519.5862 395.5523 519.698 392.5344 524.8395 399.0172 526.069 404.6057 525.3983 402.8174 527.6338 400.6937 530.3163 393.5404 531.9928 393.0933 532.5517 390.7461 535.346 391.8638 539.1462 395.664 538.6991 399.2407 535.6813 404.3822 533.5576 405.7234 538.4756 403.9351 540.9345 402.4821 543.5053 403.3762 547.1937 403.5998 548.0879 404.3822 552.3352 401.2526 553.3411 399.3525 553.6765 398.0112 553.9 398.0112 556.359 397.5641 557.3649 396.67 559.265 393.9875 563.5123 392.9815 565.0771 394.4345 569.8833 395.2169 572.1187 395.1052 575.0248 392.4227 575.1365 388.9578 575.5836 385.9399 578.3779 381.5809 579.1603 379.4572 575.0248 373.5333 571.7834 368.5036 567.3125 368.7272 564.2947 367.6095 561.724 364.8152 560.718 362.1327 559.7121 358.1089 556.9178 357.7736 556.6943 354.0851 559.265 355.3146 562.6182 356.6559 566.4184 356.4323 567.2008 355.6499 569.995 354.4205 573.7953 348.0495 573.2364 346.9318 572.7893 346.3729 572.5658 341.1197 570.4421 344.2493 565.9713 345.367 562.3946 345.9259 560.6063 345.0317 559.1532 343.8022 557.2531 340.7844 555.0177 337.0959 556.0237 333.5193 556.9178 329.2719 556.2472 325.0246 555.353Z" />
  <path class="Yardımlı" d="M600.2053 727.7042L599.7582 725.9158 597.6345 724.0157 574.6097 712.6151 563.3208 703.5616 559.8559 697.3024 559.4088 688.0254 561.0854 685.5664 570.1388 679.8661 570.6977 678.4131 570.6977 676.7365 571.2565 675.2835 603.3349 669.5832 610.4882 665.2241 610.4882 665.1123 612.053 662.7651 613.3943 659.8591 613.3943 659.7473 625.0185 659.3002 629.154 657.959 633.2895 657.0648 639.2134 660.9768 644.0196 667.0124 647.2609 675.8424 656.2026 677.1836 641.0018 687.9136 625.0185 697.3024 621.5536 700.3202 617.6416 702.6674 614.4002 706.0206 611.3824 710.0443 609.8176 714.4034 608.9234 719.2096 606.5762 722.1156 604.229 725.6923 600.2053 727.7042Z" />
  <path class="Yevlakh" d="M417.5712 309.0094L411.5355 308.674 406.0587 305.4327 403.5998 297.944 406.6176 293.1378 414.5534 293.0261 418.3536 292.9143 420.3655 293.1378 421.1479 293.8085 420.8125 296.8263 419.9184 299.0617 419.136 300.7383 418.6889 302.4149 418.8007 305.2091 419.2477 306.6622 417.5712 309.0094Z" />
  <path class="Yevlakh Rayon" d="M375.2099 230.7695L391.0814 238.8171 406.6176 247.647 419.8066 253.1238 433.1074 258.8241 430.6484 268.2129 428.1894 277.3781 425.954 285.0903 425.8422 293.3614 427.9659 300.2912 426.2893 307.3328 423.495 310.6859 422.2656 312.0272 417.4594 314.9332 411.4238 328.234 401.2526 329.7988 390.5226 331.4754 382.1397 344.2173 379.0101 340.7524 376.4394 336.8404 375.5452 333.0402 374.204 329.5752 378.2277 327.6751 380.1278 322.869 380.7985 319.2923 379.3454 317.2804 374.0922 317.951 369.0625 316.3862 368.0565 306.4386 368.3919 296.7145 363.921 291.6848 357.9971 291.126 350.9556 295.485 347.826 290.4553 353.191 283.0784 357.5501 276.0369 351.738 272.0131 344.8081 270.8954 340.7844 264.3009 343.8022 255.3592 345.2552 246.0822 344.6964 236.3581 344.1375 227.3046 345.7023 218.1394 360.5679 222.722 375.2099 230.7695ZM385.6046 263.1832L379.0101 260.7242 373.6451 263.6303 381.8044 273.4661 395.8876 267.654 394.211 264.5244 392.4227 262.0655 389.0695 261.9537 385.6046 263.1832ZM417.5712 309.0094L419.2477 306.6622 418.8007 305.2091 418.6889 302.4149 419.136 300.7383 419.9184 299.0617 420.8125 296.8263 421.1479 293.8085 420.3655 293.1378 418.3536 292.9143 414.5534 293.0261 406.6176 293.1378 403.5998 297.944 406.0587 305.4327 411.5355 308.674 417.5712 309.0094Z" />
  <path class="Zaqatala" d="M323.1245 130.5108L321.895 129.7284 319.2125 130.7343 316.53 124.2516 307.9237 119.2219 291.0462 112.0685 282.8869 104.4681 279.422 103.5739 277.4101 102.568 268.2449 96.3088 265.3388 92.3968 263.774 87.3671 262.321 78.3136 266.5683 79.2078 271.8216 82.2256 277.0748 81.6668 281.881 78.0901 286.5754 74.737 292.4992 73.3957 298.5349 71.3838 303.6763 67.8072 307.7001 62.5539 309.8238 55.4006 312.618 48.9178 317.7595 44.8941 323.1245 41.4292 329.8308 36.623 335.7547 30.3638 338.2136 22.2045 336.9842 16.9513 337.9901 16.1689 340.8961 13.151 342.3492 13.151 343.1316 15.8336 344.6964 24.887 345.5905 28.1284 347.2671 30.8109 358.7795 41.4292 361.6856 43.2175 363.921 43.8881 368.3919 44.447 370.4037 45.4529 371.2979 46.7942 372.1921 51.0415 372.8627 52.8298 375.2099 56.0712 383.8163 63.4481 388.0636 70.3779 389.6284 77.3077 392.0873 81.6668 392.3109 81.6668 385.3811 91.3909 375.0981 93.6263 363.921 90.0496 352.4086 89.379 343.4669 92.3968 337.7666 101.6738 332.0662 114.1922 324.4658 124.0281 323.1245 130.5108Z" />
  <path class="Zəngilan" d="M317.7595 614.0329L323.1245 614.5917 325.0246 630.7986 332.0662 635.0459 337.0959 627.7807 342.7963 621.0745 349.6143 616.7154 356.6559 612.8034 362.5798 620.5156 364.1446 626.663 364.2563 626.7748 364.1446 626.7748 361.5738 629.0102 359.2266 631.6927 354.7558 639.5167 353.7498 640.858 352.2968 641.9757 349.5025 643.5405 348.1613 644.6582 346.0376 648.0113 343.1316 654.8294 340.2255 657.5119 330.1661 662.6534 327.0365 665.3359 324.6893 668.3537 319.7714 678.5249 317.7595 681.7662 315.4123 684.4487 312.7298 686.5724 309.9355 688.3607 306.1353 689.9255 303.0057 690.1491 296.9701 677.2954 296.2994 674.7246 296.0759 672.0421 296.4112 669.2479 296.9701 666.5653 297.1936 665.8947 297.4172 665.2241 299.6526 658.0707 300.0997 651.8116 299.2055 645.4406 296.9701 638.1755 292.8345 634.7106 287.0224 631.4692 282.5516 626.9983 282.4398 620.0685 286.3518 616.3801 292.4992 617.1625 303.0057 622.5275 305.1294 622.1922 313.1769 616.4919 316.8653 616.2683 318.4301 615.5977 317.7595 614.0329Z" />
  <path class="Zərdab" d="M535.2662 415.8626L533.5897 415.192 531.8013 414.7449 530.1248 415.7508 526.5481 416.7568 524.7597 412.8448 524.5362 412.3977 523.642 406.5856 523.4185 403.9031 521.1831 402.7854 518.8359 402.5618 518.0535 402.4501 515.2592 401.6677 514.0297 398.6498 513.1355 392.6142 511.1237 392.726 505.7586 399.544 503.7468 398.091 502.182 398.6498 500.6172 399.6558 498.6053 399.544 497.4876 398.5381 496.4816 395.8556 495.0286 394.6261 490.7813 394.0672 487.4282 396.0791 484.5221 398.6498 481.8396 399.544 481.3925 398.3145 477.257 391.4965 473.6803 383.896 472.6744 382.443 471.7802 381.8842 471.5567 381.1018 471.4449 380.99 472.3391 379.2017 473.7921 377.8604 477.0334 376.4074 478.3747 374.5073 464.6268 372.8307 464.7386 371.6012 464.2915 370.9306 467.6447 368.0245 473.2332 361.8771 475.9157 356.065 478.2629 349.9176 488.3223 356.7356 498.1582 364.2243 500.9525 368.5834 503.7468 372.3836 508.1058 371.713 512.3531 368.9187 521.0713 368.5834 530.1248 369.8129 539.8488 368.2481 549.6847 367.5774 549.4612 384.4549 551.3613 400.7735 548.567 405.915 544.655 410.274 539.5135 412.733 535.2662 415.8626Z" />
</svg>