<?xml version="1.0" encoding="utf-8"?>
<svg xmlns="http://www.w3.org/2000/svg" viewBox="0 0 852 1024" style="stroke-width:0.25px;stroke-linejoin:round;stroke:#444;fill:#ddd" fill-rule="evenodd">
  <path class="Andrijevica" d="M579.7502 582.0805L579.4149 576.0449 575.6146 560.844 568.7966 547.8785 558.7372 542.6253 548.566 547.4315 540.6303 554.6966 540.5185 554.473 539.1772 551.2317 527.4413 536.4779 533.5887 530.1069 543.4245 514.2354 543.6481 498.6992 542.4186 478.9157 541.0773 465.8385 534.3711 459.9146 528.0001 453.6554 534.3711 442.2548 548.4542 440.3547 553.4839 439.684 573.3792 450.4141 592.4921 464.4972 622.2232 473.5507 637.3123 477.5745 629.2648 485.7338 629.2648 495.905 638.2065 506.1879 651.1719 521.7241 651.2837 521.9476 649.1601 522.3947 629.3766 537.7074 613.2815 559.0557 587.0153 578.5039 579.7502 582.0805Z" />
  <path class="Bar" d="M375.656 815.1234L371.8558 819.1472 370.6263 825.4064 374.9854 834.9069 375.0971 835.0187 381.9152 842.7309 407.1755 861.5085 413.77 869.4442 408.405 871.5679 381.5799 880.0625 373.0853 878.1624 357.3255 872.2385 345.2542 872.3503 348.6074 885.3157 361.014 911.0231 357.3255 925.8887 315.7466 920.5237 313.0641 920.859 313.0641 920.9707 312.17 907.5582 287.1332 884.5333 283.7801 875.927 287.8039 867.3206 284.4507 863.8557 278.9739 861.3967 272.2677 849.4372 255.502 849.8843 251.8135 843.5133 250.8076 837.1424 248.5722 835.5776 245.5543 835.4658 242.7601 833.5657 238.2892 823.9534 238.2892 823.8416 251.2547 808.8642 249.0193 801.0403 239.0716 789.1925 227.0003 775.1094 219.3999 760.9144 216.7174 753.2022 216.9409 753.0904 233.4831 756.8906 251.4782 764.2675 261.6494 764.044 263.5495 751.3021 271.4853 741.3545 293.0571 750.855 299.0927 754.3199 303.4518 763.1498 310.7169 773.9916 320.5528 779.692 333.9653 784.4981 347.0426 786.6218 356.3196 793.6634 370.5145 811.5468 375.656 815.1234Z" />
  <path class="Berane" d="M724.4938 419.1182L723.935 421.6889 715.9992 432.7542 712.199 461.5912 715.3286 475.4508 711.9755 475.4508 704.8221 481.2629 693.3097 495.0108 702.1396 501.0464 702.1396 501.4935 707.1693 510.7705 707.5046 511.1058 690.8507 513.453 651.2837 521.9476 651.1719 521.7241 638.2065 506.1879 629.2648 495.905 629.2648 485.7338 637.3123 477.5745 622.2232 473.5507 592.4921 464.4972 573.3792 450.4141 553.4839 439.684 548.4542 440.3547 548.2307 439.0134 546.4424 413.6414 549.7955 406.488 557.1724 391.5107 558.5136 390.9518 578.2971 383.6867 592.2685 379.4394 603.3339 370.0506 617.3053 366.1386 634.1827 371.3919 636.977 371.3919 649.9425 381.3395 657.0958 384.6926 666.4846 391.1754 672.8556 395.3109 681.909 400.2288 689.3977 404.6997 698.7865 410.4 709.1812 413.4178 714.4344 415.2062 724.4938 419.1182Z" />
  <path class="Bijelo Polje" d="M636.977 371.3919L634.1827 371.3919 617.3053 366.1386 603.3339 370.0506 592.2685 379.4394 578.2971 383.6867 558.5136 390.9518 548.3425 378.2099 540.6303 371.2801 543.4245 363.2326 542.8657 348.1435 536.3829 335.9604 524.5352 327.1305 504.5282 322.3243 490.7803 318.4123 487.5389 315.5063 477.3678 310.253 460.6021 305.8939 453.2252 305.4469 453.4487 293.2638 458.9255 276.8334 470.885 269.3448 478.709 259.8442 483.5152 249.4495 486.1977 235.7017 487.4272 220.1655 492.1216 203.3998 493.0157 204.1822 506.6518 222.0656 514.2523 229.1072 523.3057 233.9133 542.8657 239.7254 552.3662 240.8431 557.9548 238.7195 561.5315 235.1428 565.1081 235.4781 577.9618 259.0618 586.0094 269.7919 595.0628 277.1688 605.3458 281.0807 619.9878 282.0867 634.9651 280.8572 639.9948 277.7276 650.2778 267.1094 654.5251 264.7622 660.0019 266.6623 663.2432 271.4684 665.814 277.7276 669.1671 283.5397 673.5262 288.0106 700.016 306.7881 715.2168 321.989 715.9992 322.7714 703.0338 344.1197 691.7449 349.5965 678.1088 355.0733 674.085 358.0911 661.1196 363.2326 644.6892 371.3919 636.977 371.3919Z" />
  <path class="Budva" d="M157.814 768.7384L157.4787 765.8323 156.5845 749.1784 156.1374 730.6244 159.9376 722.1298 161.5024 718.6649 175.8091 723.5828 186.0921 728.1655 199.9517 730.9597 213.0289 742.4722 216.7174 753.2022 219.3999 760.9144 227.0003 775.1094 239.0716 789.1925 249.0193 801.0403 251.2547 808.8642 238.2892 823.8416 238.2892 823.9534 236.7244 820.712 230.3535 814.0057 212.6936 800.705 207.5521 791.6515 204.4226 771.9798 200.6223 763.8205 194.2514 760.132 186.5392 760.132 179.8329 762.9263 176.5915 767.8442 174.4679 765.0499 171.7854 762.3674 170.5559 759.6849 163.4025 763.8205 160.0494 766.1677 157.814 768.7384Z" />
  <path class="Cetinje" d="M96.0045 557.8262L105.2815 556.8202 111.5407 550.3375 114.5585 540.3899 114.335 530.6658 117.0175 524.5184 122.9414 521.8359 127.1887 515.2414 130.7653 504.7349 148.537 509.9881 161.5024 518.371 173.3502 517.9239 189.1099 521.0535 193.6925 527.0891 202.1871 534.0189 213.1407 540.9487 221.0765 551.0081 223.2001 563.303 223.3119 564.0854 223.4237 574.033 233.036 579.9569 242.6483 587.222 247.5662 594.4871 253.3783 600.0757 251.4782 605.6642 244.7719 618.7415 244.3249 631.3716 237.8421 629.3597 231.4712 632.4893 233.036 638.6367 249.5781 652.0493 266.1202 663.5617 275.3972 673.6211 285.4567 684.6865 300.6575 698.4343 313.623 712.2939 310.3816 733.3069 299.0927 754.3199 293.0571 750.855 271.4853 741.3545 263.5495 751.3021 261.6494 764.044 251.4782 764.2675 233.4831 756.8906 216.9409 753.0904 216.7174 753.2022 213.0289 742.4722 199.9517 730.9597 186.0921 728.1655 175.8091 723.5828 161.5024 718.6649 159.9376 722.1298 153.5667 707.2642 147.531 688.5985 145.9662 679.7685 149.5429 671.4975 150.3253 663.7853 150.4371 649.1432 145.4074 630.701 128.6417 618.8532 117.7999 611.0293 116.4586 601.6405 111.6525 589.4574 103.8285 579.2862 96.6751 561.0675 96.0045 557.8262Z" />
  <path class="Danilovgrad" d="M223.2001 563.303L242.7601 562.0735 248.6839 554.473 249.5781 537.0367 257.1785 523.1771 272.8265 513.2295 282.6624 510.3234 290.3746 513.2295 306.1343 516.2473 329.1592 518.5945 344.6954 510.6587 342.7953 498.6992 342.907 489.3105 343.6894 479.9217 358.6668 484.7278 365.1495 501.3817 365.5966 508.3116 366.0437 517.2532 383.3682 529.4363 376.7737 537.0367 365.2613 550.114 366.0437 562.0735 361.5728 576.9391 353.4135 585.8807 347.9367 592.8106 344.6954 605.6642 342.6835 624.7771 339.8892 639.8662 338.4362 642.6605 316.529 642.5487 283.333 642.884 269.0263 641.2075 253.4901 634.2777 244.3249 631.3716 244.7719 618.7415 251.4782 605.6642 253.3783 600.0757 247.5662 594.4871 242.6483 587.222 233.036 579.9569 223.4237 574.033 223.3119 564.0854 223.2001 563.303Z" />
  <path class="Gusinje" d="M651.3955 631.3716L650.5013 631.3716 639.5477 639.0838 639.436 639.0838 635.4122 643.1076 618.7583 652.9435 615.964 653.8376 611.7167 655.1789 603.781 654.1729 596.2923 650.3727 581.8738 639.0838 574.2734 620.6416 572.7086 615.053 572.485 611.0293 573.2674 601.9758 574.0498 597.8403 577.2912 590.6869 579.4149 587.4455 580.0855 588.0044 579.8619 583.31 583.4386 583.31 587.3506 582.0805 591.2626 580.851 592.4921 580.0686 593.1627 579.6216 595.5099 579.6216 597.6336 578.8392 600.6514 578.8392 604.2281 578.0568 605.4575 577.6097 606.687 577.6097 609.3695 578.0568 610.2637 578.3921 610.599 578.8392 615.4052 581.7452 616.97 581.2981 617.8641 580.851 621.4408 581.2981 624.4586 580.0686 624.7939 579.2862 623.2292 575.9331 623.0056 574.7036 622.6703 574.3683 622.335 573.4741 621.1055 571.4623 620.882 570.6799 619.9878 569.0033 619.0936 567.3267 618.423 566.5443 617.8641 564.8678 617.5288 563.303 617.1935 559.9498 617.1935 559.6145 618.0877 560.3969 618.7583 561.1793 619.3172 561.6264 620.5466 562.8559 621.1055 563.303 622.6703 566.0972 625.6881 569.7857 628.7059 571.0152 632.9532 571.9094 634.7416 572.2447 636.1946 573.1388 638.6536 573.1388 640.1066 573.4741 642.0067 574.7036 642.5656 575.5978 645.9187 578.0568 647.3717 579.6216 648.9365 580.5157 651.2837 581.2981 652.8485 582.5276 653.4074 582.5276 654.9722 582.0805 655.1957 582.5276 654.9722 584.9866 654.6369 586.6631 653.4074 588.2279 652.1779 588.2279 648.6012 589.4574 647.0364 590.3516 645.2481 589.4574 643.4597 588.2279 643.4597 591.5811 644.0186 594.04 645.0245 594.8224 646.4776 596.8343 647.3717 598.8462 648.2659 601.7523 648.2659 606.2231 647.707 607.8997 646.4776 610.3586 646.8129 611.5881 648.0424 614.8295 647.3717 617.7355 646.8129 620.1945 648.0424 621.7593 648.2659 623.8829 648.9365 625.8948 649.4954 628.3538 651.3955 631.3716Z" />
  <path class="Herceg Novi" d="M33.6362 576.2684L40.9013 585.6572 55.7669 606.3349 67.2793 613.2647 79.5741 622.0946 89.0747 637.6308 98.5752 664.0088 78.4564 667.809 31.7361 661.6616 31.7361 666.1325 40.0072 672.2799 36.3187 689.4926 43.8074 694.6341 35.201 691.7281 29.0536 685.1336 29.7242 676.3036 27.4888 669.5974 19.8883 665.1265 16.4234 663.0029 10.8349 656.2966 6.1405 648.3608 3.0109 639.0838 2.6756 628.8009 5.1345 609.4645 3.0109 599.8521 7.5935 595.6048 12.6232 593.4812 17.6529 593.9283 22.6826 597.1696 27.1535 596.499 28.83 592.8106 27.8241 587.4455 24.8063 581.5217 33.6362 576.2684ZM100.4754 702.9052L98.1282 714.9765 95.1103 714.9765 91.6454 712.6293 82.0331 713.9705 80.133 712.8528 77.7858 708.9408 72.4208 704.5817 66.2734 700.8933 61.8025 699.105 62.8085 696.9813 62.8085 696.3107 63.2556 695.8636 65.0439 694.6341 53.9785 686.6983 50.5136 680.7745 52.7491 673.9564 58.3376 671.8328 94.4397 683.9041 98.0164 694.187 101.146 702.7934 100.4754 702.9052Z" />
  <path class="Kolašin" d="M549.7955 406.488L546.4424 413.6414 548.2307 439.0134 548.4542 440.3547 534.3711 442.2548 528.0001 453.6554 534.3711 459.9146 541.0773 465.8385 542.4186 478.9157 543.6481 498.6992 543.4245 514.2354 533.5887 530.1069 527.4413 536.4779 518.4996 525.189 508.1048 519.3769 504.9752 506.635 502.9634 493.8931 486.4212 492.1047 470.438 498.9228 468.9849 510.6587 458.702 522.9536 447.6366 530.4422 430.4239 535.3602 411.7581 538.378 387.392 532.2306 383.3682 529.4363 366.0437 517.2532 365.5966 508.3116 365.1495 501.3817 358.6668 484.7278 343.6894 479.9217 343.6894 478.9157 341.454 460.3617 345.7013 445.8315 347.1543 431.7483 342.6835 420.2359 339.8892 412.7472 338.8833 402.9113 343.6894 394.1932 351.1781 389.1635 379.6798 394.1932 401.9222 394.9756 408.852 384.9162 414.7759 374.745 415.6701 375.5274 434.0006 385.6986 448.6426 395.9815 475.9147 395.3109 505.5341 394.6403 521.7409 398.5523 533.3651 401.4583 549.7955 406.488Z" />
  <path class="Kotor" d="M33.6362 576.2684L38.2188 573.5859 47.6076 564.4207 49.5077 559.6145 50.2901 559.8381 75.2151 560.844 91.7572 558.2733 96.0045 557.8262 96.6751 561.0675 103.8285 579.2862 111.6525 589.4574 116.4586 601.6405 117.7999 611.0293 128.6417 618.8532 145.4074 630.701 150.4371 649.1432 150.3253 663.7853 149.5429 671.4975 145.9662 679.7685 147.531 688.5985 153.5667 707.2642 159.9376 722.1298 156.1374 730.6244 156.5845 749.1784 157.4787 765.8323 157.814 768.7384 156.808 769.8561 153.3431 771.4209 150.4371 768.1795 146.1898 759.6849 131.6595 747.6136 125.065 739.4543 124.9532 731.295 122.3825 729.1714 118.5823 724.8123 115.8998 722.8004 115.8998 720.1179 116.0116 720.1179 125.1768 708.6055 134.0067 678.092 122.8296 657.3025 112.4349 649.1432 112.4349 649.0315 113.1055 645.4548 98.5752 664.0088 89.0747 637.6308 79.5741 622.0946 67.2793 613.2647 55.7669 606.3349 40.9013 585.6572 33.6362 576.2684Z" />
  <path class="Mojkovac" d="M558.5136 390.9518L557.1724 391.5107 549.7955 406.488 533.3651 401.4583 521.7409 398.5523 505.5341 394.6403 475.9147 395.3109 448.6426 395.9815 434.0006 385.6986 415.6701 375.5274 414.7759 374.745 401.3634 363.2326 396.669 342.7784 396.8925 341.3254 398.4573 328.4717 404.7165 322.3243 418.5761 318.7476 428.6355 310.0295 431.8769 308.1294 438.2479 304.4409 453.2252 305.4469 460.6021 305.8939 477.3678 310.253 487.5389 315.5063 490.7803 318.4123 504.5282 322.3243 524.5352 327.1305 536.3829 335.9604 542.8657 348.1435 543.4245 363.2326 540.6303 371.2801 548.3425 378.2099 558.5136 390.9518Z" />
  <path class="Nikšic" d="M49.5077 559.6145L52.5255 552.1259 52.6373 534.6895 48.1664 518.2592 40.566 508.4233 31.6243 499.1463 16.3117 474.1096 10.3878 459.6911 6.2523 445.2726 5.8052 434.8779 10.1642 428.1716 15.641 423.8125 18.8824 418.0004 16.4234 406.488 5.9169 385.3633 1.5579 373.292 1.3343 362.8972 9.8289 339.3135 23.1297 326.5716 47.8311 320.9831 73.9856 320.6477 91.869 323.1067 83.9332 277.1688 83.7097 261.5208 83.9332 260.2913 91.869 262.1914 120.3706 269.3448 135.2362 277.9512 145.6309 294.6051 155.9139 323.2185 169.8853 347.6964 184.8626 362.3384 207.7757 368.9329 232.8124 371.6154 241.1953 375.4156 256.2844 382.2337 276.2914 395.6462 290.3746 406.0409 314.9642 416.5474 342.6835 420.2359 347.1543 431.7483 345.7013 445.8315 341.454 460.3617 343.6894 478.9157 343.6894 479.9217 342.907 489.3105 342.7953 498.6992 344.6954 510.6587 329.1592 518.5945 306.1343 516.2473 290.3746 513.2295 282.6624 510.3234 272.8265 513.2295 257.1785 523.1771 249.5781 537.0367 248.6839 554.473 242.7601 562.0735 223.2001 563.303 221.0765 551.0081 213.1407 540.9487 202.1871 534.0189 193.6925 527.0891 189.1099 521.0535 173.3502 517.9239 161.5024 518.371 148.537 509.9881 130.7653 504.7349 127.1887 515.2414 122.9414 521.8359 117.0175 524.5184 114.335 530.6658 114.5585 540.3899 111.5407 550.3375 105.2815 556.8202 96.0045 557.8262 91.7572 558.2733 75.2151 560.844 50.2901 559.8381 49.5077 559.6145Z" />
  <path class="Petnjica" d="M748.1893 351.273L739.0241 381.0042 731.9825 393.7461 727.9587 405.4821 724.4938 419.1182 714.4344 415.2062 709.1812 413.4178 698.7865 410.4 689.3977 404.6997 681.909 400.2288 672.8556 395.3109 666.4846 391.1754 657.0958 384.6926 649.9425 381.3395 636.977 371.3919 644.6892 371.3919 661.1196 363.2326 674.085 358.0911 678.1088 355.0733 691.7449 349.5965 703.0338 344.1197 715.9992 322.7714 742.7125 349.3729 748.1893 351.273Z" />
  <path class="Plav" d="M651.3955 631.3716L649.4954 628.3538 648.9365 625.8948 648.2659 623.8829 648.0424 621.7593 646.8129 620.1945 647.3717 617.7355 648.0424 614.8295 646.8129 611.5881 646.4776 610.3586 647.707 607.8997 648.2659 606.2231 648.2659 601.7523 647.3717 598.8462 646.4776 596.8343 645.0245 594.8224 644.0186 594.04 643.4597 591.5811 643.4597 588.2279 645.2481 589.4574 647.0364 590.3516 648.6012 589.4574 652.1779 588.2279 653.4074 588.2279 654.6369 586.6631 654.9722 584.9866 655.1957 582.5276 654.9722 582.0805 653.4074 582.5276 652.8485 582.5276 651.2837 581.2981 648.9365 580.5157 647.3717 579.6216 645.9187 578.0568 642.5656 575.5978 642.0067 574.7036 640.1066 573.4741 638.6536 573.1388 636.1946 573.1388 634.7416 572.2447 632.9532 571.9094 628.7059 571.0152 625.6881 569.7857 622.6703 566.0972 621.1055 563.303 620.5466 562.8559 619.3172 561.6264 618.7583 561.1793 618.0877 560.3969 617.1935 559.6145 617.1935 559.9498 617.5288 563.303 617.8641 564.8678 618.423 566.5443 619.0936 567.3267 619.9878 569.0033 620.882 570.6799 621.1055 571.4623 622.335 573.4741 622.6703 574.3683 623.0056 574.7036 623.2292 575.9331 624.7939 579.2862 624.4586 580.0686 621.4408 581.2981 617.8641 580.851 616.97 581.2981 615.4052 581.7452 610.599 578.8392 610.2637 578.3921 609.3695 578.0568 606.687 577.6097 605.4575 577.6097 604.2281 578.0568 600.6514 578.8392 597.6336 578.8392 595.5099 579.6216 593.1627 579.6216 592.4921 580.0686 591.2626 580.851 587.3506 582.0805 583.4386 583.31 579.8619 583.31 579.7502 582.0805 587.0153 578.5039 613.2815 559.0557 629.3766 537.7074 649.1601 522.3947 651.2837 521.9476 690.8507 513.453 707.5046 511.1058 710.746 514.2354 728.0705 530.8893 732.6531 535.3602 736.118 541.5076 737.0122 543.6312 731.0883 558.9439 731.0883 559.0557 730.6413 559.9498 726.0586 568.668 724.6056 573.5859 724.3821 583.1982 725.6116 591.5811 725.1645 599.4051 719.7994 607.229 708.5106 600.6345 699.01 607.5644 683.1385 628.8009 671.9614 632.0422 651.3955 631.3716Z" />
  <path class="Pljevlja" d="M260.7552 156.3441L261.7612 155.0029 266.7909 152.2086 278.4151 151.6497 281.5447 148.8554 268.2439 123.5952 255.1667 87.046 239.9658 66.8154 236.8362 64.58 227.2239 67.0389 227.2239 63.9094 229.124 58.9914 229.3475 54.9677 223.5354 45.8024 220.2941 43.7905 213.476 41.8904 209.3405 38.7608 209.0052 33.6194 211.6877 28.5897 215.8232 25.5718 223.9825 21.5481 234.3772 9.8121 240.9717 5.0059 250.9194 4 257.0668 10.0356 261.8729 19.0891 267.685 26.3542 275.0619 28.925 284.4507 28.5897 293.1689 25.2365 304.9048 11.1534 315.8584 9.8121 336.8714 13.1652 328.0415 27.1366 328.265 44.6847 335.5301 60.668 347.0426 70.5039 407.399 97.8878 414.7759 103.2528 433.2182 130.9721 459.1491 158.356 464.5141 166.2917 472.0028 183.281 476.4736 190.099 492.1216 203.3998 487.4272 220.1655 486.1977 235.7017 483.5152 249.4495 478.709 259.8442 470.885 269.3448 458.9255 276.8334 453.4487 293.2638 453.2252 305.4469 438.2479 304.4409 431.8769 308.1294 421.3704 291.9226 408.2932 276.8334 392.3099 262.7503 370.5145 247.1023 349.5015 233.4662 333.4065 221.5067 313.623 213.4592 297.7515 215.8064 282.5506 216.1417 271.9323 205.2999 268.0204 189.4284 262.4318 161.5974 260.7552 156.3441Z" />
  <path class="Plužine" d="M83.9332 260.2913L87.5099 241.9608 94.6633 226.6482 113.6644 199.9349 103.0461 194.6816 109.7524 184.8458 165.8615 143.3787 177.4857 139.6902 176.1444 137.2312 173.5737 131.6427 172.1207 129.1837 180.1682 125.2717 206.4344 122.8128 217.1645 125.9424 228.9004 134.2134 232.03 138.5725 232.3653 142.708 231.9183 147.0671 233.036 152.2086 236.948 158.9149 246.0014 170.6508 246.225 171.2097 246.225 171.3215 246.5603 183.6163 247.5662 218.8242 248.2369 236.9311 252.4842 252.0202 261.8729 268.3388 261.7612 278.51 257.1785 276.3864 240.86 278.6218 229.124 292.4814 220.4058 317.1828 222.9766 333.9485 243.766 347.6964 245.6661 372.1743 241.1953 375.4156 232.8124 371.6154 207.7757 368.9329 184.8626 362.3384 169.8853 347.6964 155.9139 323.2185 145.6309 294.6051 135.2362 277.9512 120.3706 269.3448 91.869 262.1914 83.9332 260.2913Z" />
  <path class="Podgorica" d="M388.5097 799.3637L384.933 804.9523 375.656 815.1234 370.5145 811.5468 356.3196 793.6634 347.0426 786.6218 333.9653 784.4981 320.5528 779.692 310.7169 773.9916 303.4518 763.1498 299.0927 754.3199 310.3816 733.3069 313.623 712.2939 300.6575 698.4343 285.4567 684.6865 275.3972 673.6211 266.1202 663.5617 249.5781 652.0493 233.036 638.6367 231.4712 632.4893 237.8421 629.3597 244.3249 631.3716 253.4901 634.2777 269.0263 641.2075 283.333 642.884 316.529 642.5487 338.4362 642.6605 339.8892 639.8662 342.6835 624.7771 344.6954 605.6642 347.9367 592.8106 353.4135 585.8807 361.5728 576.9391 366.0437 562.0735 365.2613 550.114 376.7737 537.0367 383.3682 529.4363 387.392 532.2306 411.7581 538.378 430.4239 535.3602 447.6366 530.4422 458.702 522.9536 468.9849 510.6587 470.438 498.9228 486.4212 492.1047 502.9634 493.8931 504.9752 506.635 508.1048 519.3769 518.4996 525.189 527.4413 536.4779 539.1772 551.2317 540.5185 554.473 540.6303 554.6966 536.1594 558.7204 524.647 572.4682 517.2701 584.5395 514.6993 592.6988 512.2404 608.4585 509.8932 615.2766 509.2226 614.9413 499.1631 609.688 497.4866 611.5881 493.351 618.6297 491.2274 620.9769 488.7684 625.6713 486.7565 631.8187 485.7506 636.5131 481.9504 642.5487 477.8149 646.349 471.2204 651.0433 467.4201 653.2788 460.8256 656.1848 454.2311 656.6319 443.9482 657.5261 437.689 655.1789 432.8828 653.2788 433.5535 650.0374 433.5535 648.1373 427.6296 651.0433 426.2883 654.7318 422.8234 656.6319 421.4822 660.8792 417.3466 661.3263 414.5524 663.1146 417.682 667.3619 419.6938 670.7151 422.8234 672.5034 423.8294 675.2977 423.8294 677.6449 422.8234 680.998 419.0232 681.8922 410.4168 681.4451 404.8283 679.0979 400.6927 678.2037 394.8806 676.7507 388.9568 678.2037 387.9508 678.6508 385.4919 680.998 387.9508 684.2394 386.1625 686.1395 383.48 686.5866 377.8914 691.7281 376.8855 694.5223 374.0912 702.011 373.4206 707.5996 373.4206 713.747 373.4206 716.5413 373.0853 721.2356 373.4206 724.477 372.7499 727.2713 372.7499 731.9657 374.4265 733.3069 375.4325 736.1012 376.2149 739.4543 376.5502 744.5958 376.2149 749.7373 375.0971 754.3199 379.2327 757.226 382.3623 759.0143 382.6976 762.8145 382.6976 765.6088 384.1506 769.2972 385.4919 773.0975 388.6215 794.5575 388.6215 795.4517 388.5097 799.3637Z" />
  <path class="Rožaje" d="M715.3286 475.4508L712.199 461.5912 715.9992 432.7542 723.935 421.6889 724.4938 419.1182 727.9587 405.4821 731.9825 393.7461 739.0241 381.0042 748.1893 351.273 753.219 352.9496 776.9145 355.2968 789.5447 360.7736 812.5695 377.5393 839.6182 391.2871 846.995 400.8994 847.6657 415.8768 843.5301 438.0075 843.3066 439.1252 839.3946 439.7958 836.1532 440.3547 831.7942 441.0253 813.1284 444.2667 807.6516 445.1608 790.7741 451.5318 787.0857 453.879 783.3972 460.5853 782.9502 466.2856 783.0619 466.7327 783.7326 471.7624 782.9502 477.5745 775.7968 485.7338 773.8967 485.1749 766.6316 483.2748 763.7255 479.3628 752.2131 479.3628 746.6245 479.3628 740.5889 475.6744 739.2476 475.3391 732.2061 473.4389 724.8292 471.5388 719.9112 473.886 718.0111 475.4508 715.3286 475.4508Z" />
  <path class="Šavnik" d="M261.7612 278.51L272.8265 283.9868 279.9799 291.9226 289.3686 291.9226 304.1224 290.0224 314.6289 299.9701 320.5528 310.7001 330.1651 306.5646 343.913 306.5646 356.3196 318.5241 362.0199 326.4598 369.9557 330.4836 396.8925 341.3254 396.669 342.7784 401.3634 363.2326 414.7759 374.745 408.852 384.9162 401.9222 394.9756 379.6798 394.1932 351.1781 389.1635 343.6894 394.1932 338.8833 402.9113 339.8892 412.7472 342.6835 420.2359 314.9642 416.5474 290.3746 406.0409 276.2914 395.6462 256.2844 382.2337 241.1953 375.4156 245.6661 372.1743 243.766 347.6964 222.9766 333.9485 220.4058 317.1828 229.124 292.4814 240.86 278.6218 257.1785 276.3864 261.7612 278.51Z" />
  <path class="Tivat" d="M100.4754 702.9052L101.146 702.7934 98.0164 694.187 94.4397 683.9041 99.5812 685.5806 112.3231 692.5105 118.9176 699.105 122.2707 689.8279 121.6001 682.3393 111.6525 659.7615 111.3172 654.2847 112.4349 649.0315 112.4349 649.1432 122.8296 657.3025 134.0067 678.092 125.1768 708.6055 116.0116 720.1179 115.8998 720.1179 115.8998 719.112 116.9057 710.5056 109.1935 703.2405 100.4754 702.9052Z" />
  <path class="Tuzi" d="M509.8932 615.2766L509.7814 615.6119 504.3046 621.8711 498.0454 625.4477 492.7922 630.0304 490.3332 639.0838 484.9682 650.2609 478.8208 660.2086 471.6674 668.5914 462.9493 674.2917 457.1372 684.1276 434.5594 710.2821 432.324 713.747 428.1884 723.4711 427.2943 727.8301 427.5178 735.9894 427.1825 739.0073 388.5097 799.3637 388.6215 795.4517 388.6215 794.5575 385.4919 773.0975 384.1506 769.2972 382.6976 765.6088 382.6976 762.8145 382.3623 759.0143 379.2327 757.226 375.0971 754.3199 376.2149 749.7373 376.5502 744.5958 376.2149 739.4543 375.4325 736.1012 374.4265 733.3069 372.7499 731.9657 372.7499 727.2713 373.4206 724.477 373.0853 721.2356 373.4206 716.5413 373.4206 713.747 373.4206 707.5996 374.0912 702.011 376.8855 694.5223 377.8914 691.7281 383.48 686.5866 386.1625 686.1395 387.9508 684.2394 385.4919 680.998 387.9508 678.6508 388.9568 678.2037 394.8806 676.7507 400.6927 678.2037 404.8283 679.0979 410.4168 681.4451 419.0232 681.8922 422.8234 680.998 423.8294 677.6449 423.8294 675.2977 422.8234 672.5034 419.6938 670.7151 417.682 667.3619 414.5524 663.1146 417.3466 661.3263 421.4822 660.8792 422.8234 656.6319 426.2883 654.7318 427.6296 651.0433 433.5535 648.1373 433.5535 650.0374 432.8828 653.2788 437.689 655.1789 443.9482 657.5261 454.2311 656.6319 460.8256 656.1848 467.4201 653.2788 471.2204 651.0433 477.8149 646.349 481.9504 642.5487 485.7506 636.5131 486.7565 631.8187 488.7684 625.6713 491.2274 620.9769 493.351 618.6297 497.4866 611.5881 499.1631 609.688 509.2226 614.9413 509.8932 615.2766Z" />
  <path class="Ulcinj" d="M413.77 869.4442L414.8877 870.7855 415.8936 876.4858 407.8461 894.2574 405.7224 904.4286 405.2754 916.1646 406.8402 927.4535 410.8639 936.3952 410.9757 936.5069 414.2171 940.6425 411.8699 950.5901 409.2991 952.8255 405.7224 953.2726 403.3752 955.3963 406.2813 969.1441 405.1636 973.2796 403.487 976.4092 402.9282 979.3153 403.1517 983.3391 402.9282 985.798 403.9341 988.1452 408.0696 992.0572 411.5345 998.4282 411.1992 1013.8526 411.6463 1020 403.5988 1013.182 387.5037 995.075 380.0151 991.3866 347.825 980.7683 340.2245 975.8504 329.3827 971.8266 325.8061 969.3677 322.3411 963.4438 322.1176 960.2024 322.6765 956.9611 321.447 951.0372 319.3233 950.0312 314.8525 945.8957 311.6111 941.4249 313.7348 939.3012 314.0701 936.7305 313.0641 920.9707 313.0641 920.859 315.7466 920.5237 357.3255 925.8887 361.014 911.0231 348.6074 885.3157 345.2542 872.3503 357.3255 872.2385 373.0853 878.1624 381.5799 880.0625 408.405 871.5679 413.77 869.4442Z" />
  <path class="Žabljak" d="M246.225 171.2097L247.5662 174.1157 252.1488 169.9802 255.6138 164.9505 258.408 159.5855 260.7552 156.3441 262.4318 161.5974 268.0204 189.4284 271.9323 205.2999 282.5506 216.1417 297.7515 215.8064 313.623 213.4592 333.4065 221.5067 349.5015 233.4662 370.5145 247.1023 392.3099 262.7503 408.2932 276.8334 421.3704 291.9226 431.8769 308.1294 428.6355 310.0295 418.5761 318.7476 404.7165 322.3243 398.4573 328.4717 396.8925 341.3254 369.9557 330.4836 362.0199 326.4598 356.3196 318.5241 343.913 306.5646 330.1651 306.5646 320.5528 310.7001 314.6289 299.9701 304.1224 290.0224 289.3686 291.9226 279.9799 291.9226 272.8265 283.9868 261.7612 278.51 261.8729 268.3388 252.4842 252.0202 248.2369 236.9311 247.5662 218.8242 246.5603 183.6163 246.225 171.3215 246.225 171.2097Z" />
</svg>