<?xml version="1.0" encoding="utf-8"?>
<svg xmlns="http://www.w3.org/2000/svg" viewBox="0 0 1021 601" style="stroke-width:0.25px;stroke-linejoin:round;stroke:#444;fill:#ddd" fill-rule="evenodd">
  <path class="Bafatá" d="M615.7415 4.5299L642.4548 4.6417 759.8145 5.2006 790.9987 5.3123 785.6337 16.4894 784.1806 21.1838 782.7276 23.531 781.1628 25.0958 779.4862 25.6547 777.5861 25.8782 776.1331 25.4311 775.0154 24.3134 773.1153 21.5191 770.6563 19.3955 769.4268 18.6131 768.1974 19.2837 767.5267 21.6309 769.0915 40.9673 770.2092 45.4382 771.1034 46.8912 772.3329 47.8971 775.686 49.2384 777.8097 51.362 779.1509 51.9209 780.3804 52.0327 781.051 53.4857 780.604 55.9447 778.8156 60.5273 777.5861 62.7627 776.3567 64.3275 775.686 64.7746 775.1272 64.9981 774.233 65.1099 772.5564 64.8864 771.9976 64.551 770.9916 63.7686 768.7562 61.645 767.415 60.6391 765.8502 59.9684 763.9501 59.9684 762.3853 60.6391 761.1558 61.645 757.2438 65.557 756.2378 66.3394 754.8966 66.7865 753.5553 66.6747 752.5494 66.0041 751.9905 65.2217 750.8728 62.3156 749.6433 61.3097 748.0785 60.8626 744.3901 61.4215 742.6018 61.4215 741.037 60.7508 740.1428 59.6331 739.2486 58.9625 738.4662 58.7389 735.7837 59.7449 734.2189 59.9684 732.8777 59.4096 732.5424 57.9565 732.8777 55.7211 732.7659 54.0446 731.3129 52.7033 729.6363 52.7033 728.1833 53.4857 727.4009 55.7211 727.1773 58.7389 728.295 64.7746 729.301 67.9042 730.5305 70.0278 731.9835 70.6985 733.8836 70.8102 735.5602 70.2514 737.125 69.6925 741.7076 67.01 743.1606 66.4512 744.7254 66.5629 746.1784 67.2336 747.4079 68.2395 751.767 73.381 752.5494 74.834 753.22 76.6223 753.22 78.6342 752.6612 80.6461 750.6493 82.4344 748.8609 83.1051 747.1844 83.8875 746.0667 84.8934 745.0607 86.1229 743.943 86.9053 742.6018 86.9053 741.484 85.8993 739.9193 83.1051 739.1369 82.3227 738.2427 81.9873 737.0132 82.3227 736.2308 83.6639 736.2308 86.0111 737.7956 91.8232 738.578 93.4998 738.8015 94.7293 738.6898 95.847 737.4603 97.4118 735.8955 98.4177 734.1072 99.0883 732.0953 99.4237 730.1952 99.5354 728.4068 99.3119 725.8361 98.0824 724.6066 98.3059 723.2653 98.9766 722.1476 100.0943 721.0299 101.3238 720.024 102.665 719.6887 104.0063 720.1358 105.124 721.7006 105.6828 722.5947 106.577 722.0359 108.03 721.2535 109.1477 720.5828 109.8184 720.3593 110.2655 720.3593 111.0479 720.9182 111.8303 726.3949 112.8362 727.848 113.6186 729.0774 114.8481 730.9776 117.6424 732.0953 118.8718 733.4365 119.8778 735.0013 120.5484 740.5899 122.225 742.0429 122.7838 744.8372 124.4604 747.2961 126.8076 748.3021 128.1488 748.7492 130.1607 748.7492 132.3961 747.7432 136.4199 746.7373 138.5436 744.8372 141.8967 744.5019 144.0204 744.5019 146.7029 749.7551 164.3627 750.314 165.4804 750.9846 166.3746 751.9905 167.4923 753.3318 168.3865 754.8966 169.2806 758.2497 170.3983 759.7028 171.2925 760.7087 172.522 761.044 175.3163 760.3734 179.2283 757.5791 186.6052 755.4554 189.1759 753.3318 190.2936 751.6552 190.0701 750.0904 190.4054 748.6374 191.1878 745.0607 194.2056 743.6077 194.988 742.0429 195.3233 740.4781 195.3233 736.3426 194.5409 734.4425 194.5409 732.7659 194.988 731.2011 196.2175 730.1952 198.2294 729.5245 202.0296 729.5245 205.0474 730.6422 208.2888 731.9835 210.0771 733.4365 211.3066 736.119 212.8714 741.037 215.1068 742.3782 215.8892 743.2724 218.5717 743.1606 223.0426 741.5958 232.4314 740.3663 236.5669 739.2486 239.0259 738.578 239.6965 737.9074 241.1495 737.9074 243.2732 738.8015 246.5145 739.8075 248.1911 741.037 249.5323 747.855 254.4503 748.9727 255.6798 749.5316 257.6916 749.308 260.2624 745.396 271.7748 744.8372 274.6809 744.6136 278.7046 745.2843 294.0173 747.1844 306.5356 747.0726 312.9066 747.6315 315.0303 748.5256 316.8186 750.9846 318.9422 752.1023 320.1717 752.4376 321.9601 751.8788 323.9719 749.4198 326.7662 747.5197 328.2193 742.1547 330.5664 740.8134 331.4606 739.6957 332.3548 738.4662 336.9374 736.6779 355.715 729.1892 355.2679 713.9883 356.8327 706.4997 358.5092 697.2227 362.6448 694.2048 362.9801 692.0812 362.0859 688.281 358.9563 687.1633 358.2857 681.6865 357.9504 678.3333 359.0681 669.5034 368.1216 661.5677 370.5805 652.4024 366.7803 644.1314 359.627 638.6546 352.0265 637.0898 346.438 637.0898 342.526 635.6367 339.5081 629.8246 336.4903 619.3182 337.608 618.8711 335.8197 627.2539 325.8721 628.3716 323.1895 627.1421 321.7365 618.6475 317.9363 617.3063 317.8245 615.8532 318.3834 613.9531 319.5011 613.059 318.2716 611.8295 315.3656 610.0411 312.3477 609.4823 309.777 608.3646 307.318 605.3468 305.9768 601.7701 306.2003 599.5347 307.9887 598.1934 312.4595 589.587 315.4773 583.5514 310.1123 578.9688 302.5119 574.4979 298.7117 564.662 297.4822 561.756 296.588 557.9558 294.2408 556.0557 291.8936 554.4909 289.2111 551.6966 285.9697 550.2436 281.6107 553.1496 277.5869 557.3969 273.6749 559.5206 269.6512 565.5562 253.109 565.7798 250.9854 567.2328 250.0912 572.1507 249.8677 575.5039 248.9735 575.5039 248.8617 575.6156 248.8617 576.5098 249.0853 580.31 249.3088 583.7749 248.5264 585.5633 247.8558 587.1281 247.1851 588.4693 246.291 589.4752 245.6204 590.0341 245.0615 590.2576 244.0556 590.1459 242.8261 589.3635 240.5906 587.0163 235.7845 586.5692 234.2197 586.4574 233.4373 586.5692 231.2019 587.1281 228.8547 588.3575 225.9486 588.9164 224.1603 587.9105 222.4837 574.4979 214.7715 572.7096 213.4303 570.0271 212.089 566.2268 211.1948 564.7738 210.4124 563.7679 209.0712 563.0972 207.3946 561.8678 199.0118 560.5265 195.7704 550.1318 177.7752 549.9083 175.6516 550.5789 173.1926 553.0378 169.2806 556.2792 165.4804 557.5087 164.3627 558.8499 163.3568 560.1912 162.7979 561.9795 162.9097 563.6561 163.3568 565.4444 163.5803 567.2328 163.3568 568.9094 162.7979 570.6977 162.3508 572.2625 162.3508 573.492 162.5744 574.6097 163.0215 583.3278 167.7158 585.1162 168.2747 587.0163 168.61 593.3872 168.9453 597.0757 169.616 598.4169 168.61 599.0876 165.8157 599.3111 150.1678 600.2053 143.5733 599.5347 138.9906 598.5287 136.3081 597.2992 134.8551 590.9283 129.4901 589.9223 128.2606 589.0282 126.8076 588.4693 125.0193 588.134 122.8956 586.9045 89.5878 587.4634 87.7994 589.1399 87.0171 605.1232 83.7757 610.3765 81.8756 611.8295 80.9814 615.7415 77.8518 617.3063 77.0694 618.9828 76.3988 620.5476 75.6164 621.8889 74.6105 622.8948 73.2692 623.2301 71.3691 622.1124 68.5748 621.1065 66.6747 620.3241 65.4452 619.5417 64.3275 615.0708 60.0802 606.7998 54.3799 605.6821 53.2622 605.0114 51.2503 605.0114 48.456 607.1351 43.2028 608.5881 40.4085 611.8295 35.6023 613.2825 32.2492 618.5358 23.4193 619.3182 21.6309 619.9888 19.2837 620.1006 15.3717 619.5417 11.348 615.7415 4.5299Z" />
  <path class="Biombo" d="M352.9674 223.825L363.5857 237.014 364.5916 239.0259 366.7153 246.0674 351.0673 274.6809 349.0554 286.0815 348.8319 291.8936 349.279 300.6118 348.3848 300.9471 326.9248 304.8591 323.6834 306.871 320.5538 309.777 304.6823 318.0481 298.4231 319.6129 305.1294 292.2289 311.2768 280.8283 319.3243 280.2694 321.2244 281.4989 323.6834 282.3931 326.813 282.7284 330.2779 282.5048 330.2779 280.1576 324.0187 279.8223 316.3065 273.1161 309.9355 273.2278 304.6823 277.2516 303.2293 283.0637 302.5586 289.4347 291.8286 310.5594 288.4755 312.4595 281.9927 310.8947 280.6515 306.5356 282.7751 294.0173 277.1866 296.6998 275.9571 302.1766 275.7336 308.8828 273.4981 315.0303 271.4862 316.148 264.2211 318.8305 261.0915 320.8424 257.7384 323.7484 255.8383 324.1955 254.497 322.7425 253.1558 319.6129 252.2616 312.9066 254.2735 306.0886 259.9738 294.0173 264.78 275.2397 266.7919 270.6571 268.1331 269.3158 270.145 267.9746 272.604 266.7451 274.7276 266.298 276.0689 265.0685 278.3043 256.7975 286.7989 243.832 289.5932 240.8142 294.2876 238.0199 301.2174 235.2256 308.5943 233.3255 314.4064 233.5491 316.1947 235.4492 317.4242 238.6905 319.2125 241.7084 322.4539 242.9378 329.0484 243.3849 331.9545 244.1673 334.7487 245.5086 335.8664 240.7024 338.2136 235.7845 339.5549 231.649 339.3314 231.4254 339.6667 231.0901 352.9674 223.825ZM187.4343 278.034L193.1347 276.0221 199.6174 276.2457 211.3534 278.034 215.7124 277.3634 220.6304 275.6868 230.578 270.6571 229.2367 269.3158 229.3485 269.0923 230.0191 268.5334 234.7135 268.4217 239.0726 268.1981 243.8788 268.6452 246.3377 271.5513 247.0084 272.5572 245.8906 281.3871 243.2081 285.5227 239.9668 289.3229 237.396 294.0173 234.49 307.2063 232.4781 312.5713 228.4543 317.3774 225.1012 314.9185 221.1892 315.4773 217.5008 316.9304 214.4829 317.3774 210.3474 314.6949 202.0763 302.2883 198.2761 300.2765 194.1406 300.2765 191.011 299.4941 189.6697 295.2468 189.558 285.858 188.8873 281.4989 187.4343 278.034Z" />
  <path class="Bissau" d="M366.7153 246.0674L370.6273 253.109 371.8568 254.3385 373.6451 255.7915 377.7806 257.1328 380.4631 258.3623 384.8222 263.7273 386.6106 265.2921 392.758 268.9805 391.5285 269.4276 389.5166 270.6571 379.6807 284.852 376.9982 287.0875 370.292 288.9876 355.6499 297.9293 349.279 300.6118 348.8319 291.8936 349.0554 286.0815 351.0673 274.6809 366.7153 246.0674Z" />
  <path class="Bolama" d="M431.8779 342.6377L432.8838 341.7436 444.0609 338.9493 448.7553 338.5022 450.5437 338.614 456.5793 339.7317 460.2678 341.1847 460.3795 341.8553 457.5853 342.7495 459.8207 347.3321 455.2381 347.3321 456.5793 356.2738 458.1441 360.074 462.0561 363.5389 459.8207 368.1216 454.791 364.5449 450.3201 359.7387 443.7256 349.6793 442.7197 355.6032 445.0669 361.3035 448.42 366.8921 450.5437 372.816 448.9789 372.0336 443.7256 370.4688 442.2726 375.0514 439.4783 375.0514 437.1311 371.5865 437.0194 365.8861 434.6722 365.8861 433.3309 368.904 432.4367 372.3689 431.9897 376.0573 432.2132 379.8575 429.3072 378.4045 428.1894 377.6221 428.1894 384.3284 424.7245 382.093 423.3833 379.0751 422.4891 375.4985 420.0301 371.5865 418.13 367.898 419.5831 365.2155 423.3833 362.4212 425.0598 357.3915 428.413 352.1383 431.5426 345.9909 431.8779 342.6377ZM259.9738 504.9295L266.4565 509.7356 271.4862 516.3301 274.8394 524.4894 277.0748 539.1315 279.422 542.3728 281.7692 544.72 282.7751 547.6261 281.0986 551.9851 277.0748 554.1088 272.604 554.4441 269.2508 553.5499 266.5683 555.1147 263.1034 555.003 254.3853 553.5499 253.6029 554.3323 251.591 555.6736 249.4673 556.2325 248.4614 554.6677 248.3496 551.8734 248.4614 550.085 249.5791 549.1909 252.0381 548.8556 255.503 547.9614 264.78 543.6023 266.7919 541.9257 265.2271 538.2373 261.5386 536.896 258.1855 538.7961 257.7384 544.2729 255.2794 542.0375 253.1558 539.4668 256.0618 534.4371 257.6266 530.5251 257.9619 526.3895 257.7384 521.2481 255.9501 513.6476 256.3971 509.2886 259.9738 504.9295ZM250.9204 518.7891L251.591 528.625 250.6968 533.3194 247.4554 538.3491 240.4139 546.8437 236.6136 549.3026 234.9371 545.2789 233.8194 540.0256 231.8075 535.8901 231.4722 531.531 234.9371 525.6072 227.3366 525.6072 223.6482 522.3658 223.3129 517.2243 225.9954 511.9711 230.8015 508.1708 248.4614 502.5823 249.8026 505.3766 250.585 509.9592 250.9204 518.7891ZM225.9954 532.537L221.301 532.537 221.301 535.1077 224.5424 541.5904 223.2011 547.7378 221.6363 552.7675 223.76 555.7854 217.0537 560.2562 211.1298 560.5915 205.3177 560.1444 198.4997 562.7152 197.382 559.8091 196.9349 557.0149 197.382 554.2206 198.4997 550.9792 196.376 550.9792 192.1287 558.1326 194.1406 562.7152 190.0051 561.4857 188.8873 560.4798 187.4343 558.1326 179.8339 559.1385 171.6746 553.7735 164.5212 545.2789 160.0504 537.1196 164.4095 532.7605 169.7745 528.7367 175.4748 526.7249 180.3927 527.9543 175.8101 529.8545 173.7982 530.3015 174.1336 531.7546 174.4689 532.7605 175.0277 533.7664 176.0337 535.1077 179.0515 532.0899 182.7399 530.4133 185.9813 527.8426 188.6638 516.4419 191.4581 514.3183 194.4759 513.2006 196.376 509.5121 198.1644 511.3004 203.1941 514.0947 204.0882 505.8237 209.1179 502.247 215.7124 502.9176 221.301 507.3884 223.4246 509.9592 222.5305 511.8593 220.4068 514.0947 219.2891 517.5596 219.848 522.5893 221.301 525.7189 225.9954 532.537ZM289.5932 470.2804L298.1996 470.1686 299.8761 473.6336 296.4112 486.2637 296.0759 500.2351 293.0581 504.5942 284.8988 504.9295 276.6277 498.7821 276.516 488.4991 281.7692 477.7691 289.5932 470.2804ZM355.3146 470.2804L354.3087 476.4278 355.9853 487.4932 355.3146 493.5288 353.7498 494.8701 351.6262 491.0699 348.6084 486.7108 343.8022 486.2637 343.8022 488.7227 346.3729 488.7227 346.3729 491.0699 343.8022 495.6525 342.0139 497.8879 339.5549 500.1233 337.6548 497.4408 336.7606 496.5466 332.7369 497.9997 334.5252 501.5763 334.8605 506.4943 334.0781 511.7475 332.7369 516.4419 332.0662 514.9889 330.9485 513.4241 330.2779 511.9711 328.266 512.1946 327.4836 512.4182 326.9248 512.4182 325.6953 511.9711 323.6834 511.9711 320.442 515.7713 317.3124 514.0947 315.077 509.5121 314.4064 504.9295 316.7536 502.6941 320.5538 500.1233 321.895 497.5526 316.7536 495.6525 316.7536 493.5288 323.6834 486.2637 324.0187 484.8107 323.3481 480.7869 323.6834 479.3339 325.2482 478.9986 327.4836 479.3339 329.4955 479.4457 330.2779 478.3279 333.7428 471.5099 341.7903 469.2745 350.1732 469.498 355.3146 470.2804ZM184.9754 497.9997L163.18 499.788 158.9327 499.0056 150.1028 494.7583 148.538 494.6465 148.985 490.6228 150.2145 487.2696 152.4499 485.0342 155.6913 484.14 155.2442 478.4397 159.8268 473.0747 166.3096 469.8333 171.3393 470.2804 173.7982 467.8215 176.8161 471.7334 180.5045 472.1805 184.8636 471.5099 189.6697 472.4041 191.1228 474.863 192.0169 479.2221 192.464 483.693 192.1287 486.2637 188.2167 487.8285 184.9754 489.9521 183.5223 493.0817 184.9754 497.9997ZM353.0792 405.4531L353.7498 406.2355 354.4205 407.2415 355.5382 407.8003 357.6618 407.5768 357.3265 409.1416 356.9912 410.2593 355.3146 412.3829 357.3265 415.0655 355.6499 417.8597 348.3848 423.7836 346.7083 420.654 346.3729 419.3128 343.8022 419.3128 340.002 423.0012 334.637 423.0012 329.9426 420.5422 328.266 417.0773 329.8308 413.9477 332.5133 413.6124 335.3076 414.3948 337.0959 414.5066 339.5549 412.0476 341.455 409.2534 342.7963 406.2355 343.8022 402.9942 346.3729 405.4531 348.0495 404.1119 353.0792 400.647 354.7558 401.9882 354.8675 402.9942 353.0792 405.4531ZM157.815 421.4364L150.8851 421.5482 146.8614 420.9893 142.167 419.3128 146.1908 416.6303 152.2264 413.5007 157.5914 409.4769 160.0504 404.2237 163.8506 400.8705 172.3452 398.4116 181.6222 397.4056 187.4343 398.4116 188.9991 401.7647 187.8814 405.0061 178.0455 415.4008 176.0337 417.0773 174.916 418.5304 174.1336 420.4305 173.1276 422.3306 171.3393 423.7836 168.545 423.8954 157.815 421.4364ZM150.9969 405.1178L148.8733 405.9002 145.5201 406.012 142.167 407.5768 140.6022 408.1356 139.5963 409.4769 138.255 410.2593 136.2431 408.8063 131.9958 403.8883 130.6546 402.9942 129.8722 403.2177 112.5476 402.9942 109.5298 405.6767 106.9591 407.2415 103.2706 407.5768 104.2766 405.3414 105.7296 402.9942 103.7177 398.7469 104.1648 397.8527 105.7296 396.0644 102.4882 394.1642 101.0352 393.7172 113.33 387.458 126.9661 387.2344 139.5963 385.5579 148.538 375.2749 150.1028 375.722 150.4381 375.9455 150.3263 376.3926 150.9969 377.6221 153.4559 377.6221 155.9149 377.2868 158.1503 376.5044 160.0504 375.2749 161.2799 376.2809 161.8387 377.2868 162.2858 379.8575 161.2799 386.005 158.7091 391.0347 153.2323 398.4116 151.8911 401.3176 151.6675 403.3295 150.9969 405.1178ZM234.9371 399.5293L235.943 393.9407 238.402 386.6756 241.7551 380.3046 245.22 377.6221 250.585 375.3867 258.0737 367.5627 262.2092 368.1216 262.6563 373.4866 265.1153 377.0633 267.9096 377.2868 269.2508 372.816 273.3864 377.0633 272.2686 386.1167 275.9571 389.1345 271.9333 395.9526 270.9274 404.2237 272.3804 412.4947 275.9571 419.3128 269.4744 421.66 260.868 426.5779 253.6029 428.3662 250.9204 421.4364 248.4614 421.4364 248.0143 423.0012 247.0084 424.6778 246.3377 426.2426 245.3318 425.0131 242.8728 422.6659 241.8669 421.4364 239.9668 425.1249 236.949 427.8074 233.7076 429.7075 230.578 430.7134 227.3366 426.2426 215.936 418.195 214.4829 414.5066 225.9954 407.5768 233.484 399.5293 234.9371 399.5293ZM416.5652 358.9563L416.4535 363.5389 412.8768 367.4509 411.8708 371.5865 413.771 375.3867 416.9006 378.8516 417.2359 381.3106 410.8649 382.2047 406.7294 381.6459 403.8233 379.4105 400.8055 379.8575 400.2466 380.8635 393.7639 386.7873 392.1991 387.2344 384.7105 386.7873 384.7105 389.1345 391.752 391.7053 390.5226 397.0703 385.8282 400.0881 382.6986 396.0644 379.0101 397.0703 374.4275 396.6232 370.7391 395.5055 369.0625 394.9466 367.4977 396.0644 364.7034 393.8289 363.8092 390.6993 367.9448 389.1345 372.3039 386.6756 375.3217 381.6459 379.4572 377.3986 387.1694 377.6221 387.84 372.4806 391.1932 368.6804 395.3287 365.4391 398.3465 361.4153 403.9351 362.8683 408.9648 361.4153 413.2121 359.2916 416.5652 358.9563Z" />
  <path class="Cacheu" d="M433.778 45.6617L434.5604 47.5618 440.7078 68.3513 441.8255 76.0635 441.602 80.6461 440.8196 85.4523 438.9195 93.0527 437.3547 95.0646 435.5663 96.4058 434.0015 97.1882 422.9362 105.0122 421.0361 105.6828 419.136 105.6828 417.7947 104.7887 416.7888 103.4474 415.1122 97.9706 413.771 97.0765 411.8708 96.7411 409.9707 96.8529 408.4059 97.3 407.2882 97.4118 405.8352 97.5235 404.2704 97.0765 401.5879 97.5235 398.3465 98.753 392.3109 103.1121 388.846 104.7887 382.475 107.1359 369.9567 115.1834 368.1683 117.307 366.38 120.4366 364.7034 122.0014 358.1089 125.2428 356.3206 125.6899 350.0614 125.2428 347.6024 125.6899 344.5846 126.9194 343.5787 128.4842 343.6904 130.1607 344.1375 131.8373 343.8022 133.9609 342.4609 135.0787 340.5608 135.6375 338.549 135.8611 336.8724 135.8611 335.6429 135.0787 335.084 131.7255 334.0781 130.1607 332.2898 131.2784 330.2779 133.5139 326.4777 138.6553 326.2541 140.8908 326.9248 142.4556 327.5954 143.685 327.2601 145.8087 324.6893 148.0441 324.1305 149.4971 324.1305 150.9502 324.8011 152.4032 325.6953 153.8562 330.2779 158.8859 337.8783 165.3686 341.1197 169.0571 342.4609 170.1748 343.8022 171.069 345.4788 171.8514 354.3087 174.7574 355.7617 175.7634 356.8794 176.9928 357.6618 178.4459 357.8854 181.1284 357.5501 184.7051 353.5263 198.5647 353.5263 200.5766 353.9734 202.4767 354.3087 204.8239 354.1969 207.6182 351.6262 217.454 351.6262 219.5777 351.9615 221.1425 352.9674 223.825 339.6667 231.0901 339.3314 231.4254 339.5549 231.649 337.0959 229.0782 335.1958 230.4195 332.0662 233.5491 327.3718 236.2316 321.2244 236.008 319.2125 234.6668 316.9771 230.7548 314.4064 229.0782 311.5003 228.2958 310.1591 228.4076 308.7061 228.8547 296.1877 229.7488 291.9404 228.5194 289.5932 224.4956 287.3578 224.4956 284.8988 230.0842 278.7514 233.5491 271.1509 235.4492 264.4447 236.008 265.3388 238.467 265.7859 239.4729 266.7919 240.8142 265.6741 241.1495 264.8917 241.1495 264.4447 241.4848 264.4447 242.9378 261.8739 241.4848 259.9738 240.0318 260.0856 241.5966 261.2033 246.1792 260.5327 250.3147 257.7384 254.7856 252.8205 259.1447 248.3496 261.1565 223.76 261.4919 220.6304 262.6096 213.9241 265.6274 211.3534 266.298 209.565 267.4157 207.4414 269.8747 204.7589 272.3337 200.9586 273.2278 197.7173 272.1101 194.8112 269.6512 189.6697 263.8391 181.5105 265.6274 170.8922 263.6155 161.727 259.7035 157.815 255.7915 150.9969 240.8142 147.8673 239.0259 138.9256 237.6846 135.1254 236.008 132.3311 232.8784 130.3193 228.7429 128.978 223.9367 127.8603 213.542 124.6189 204.9356 123.8365 200.2413 132.89 180.5695 136.3549 176.3222 140.1551 173.0809 144.2906 170.6219 148.538 168.7218 148.7615 172.7455 150.3263 175.7634 152.7853 176.434 155.6913 173.4162 156.0266 170.6219 153.1206 165.5922 153.2323 161.792 156.9208 156.5387 162.6211 152.962 168.7685 150.3913 193.0229 135.9728 198.4997 131.502 201.0704 128.3724 204.7589 122.5603 207.7767 119.9895 210.6827 118.6483 218.0596 116.86 221.301 115.5187 212.4711 115.1834 206.659 117.6424 202.0763 122.225 197.4937 128.1488 190.7875 132.8432 173.6865 136.4199 166.8684 138.6553 155.4678 146.0322 152.1146 148.9383 140.9375 161.792 134.6783 159.2212 135.2372 152.962 137.6961 145.3616 137.4726 138.6553 135.6843 143.685 131.437 150.3913 129.4251 162.7979 126.1837 167.7158 121.2658 169.2806 114.7831 166.4864 112.5476 168.7218 111.6535 167.2688 107.8532 164.1392 107.1826 168.61 104.5001 170.6219 100.4763 171.1807 95.4466 171.069 94.6642 172.2985 92.6524 174.7574 90.6405 176.2105 89.7463 174.6457 89.1875 173.3044 87.7344 172.1867 85.9461 171.4043 79.5751 170.1748 76.4455 167.8276 74.5454 164.4745 73.8748 160.6743 71.8629 158.8859 63.9272 149.8325 63.7036 147.7088 61.4682 146.4793 54.4266 140.5554 51.297 138.6553 49.7322 138.9906 44.7025 140.8908 42.2436 140.779 40.3435 139.2142 37.2139 133.8492 35.4255 131.502 23.1307 121.8897 19.4422 119.9895 14.5243 119.9895 10.7241 121.5543 7.2592 123.5662 3.3472 124.7957 1 121.7779 8.4887 116.5246 20.6717 113.6186 65.6037 116.6364 71.6394 116.4129 88.9639 112.0538 105.6178 111.942 115.6772 107.8065 142.167 93.388 165.0801 80.9814 168.545 80.199 172.1217 80.8696 179.275 83.7757 181.9575 84.2228 183.5223 83.5521 184.9754 82.4344 187.2108 81.4285 212.2475 77.0694 223.9835 78.1871 244.6612 85.1169 251.0321 86.3464 277.4101 84.4463 280.6515 84.5581 337.7666 88.023 349.1672 85.564 432.7721 46.3323 433.778 45.6617Z" />
  <path class="Gabú" d="M790.9987 5.3123L877.286 5.6476 994.6458 6.2065 991.9633 28.449 992.5221 36.0494 995.7635 45.2146 1012.4174 66.3394 1016.1058 73.2692 1017 78.9695 1015.7705 84.8934 1009.9584 98.753 1009.2878 101.6591 1008.9525 106.0182 1009.9584 115.7422 1009.6231 119.766 1007.0524 126.2487 1005.7111 135.1904 1005.5993 135.414 1000.1226 143.7968 990.5102 147.3735 968.0442 147.7088 972.2915 139.9966 966.703 138.4318 957.6495 140.5554 951.3903 144.3557 943.3428 150.9502 923.224 160.4507 916.0706 168.7218 915.1765 172.1867 915.1765 179.4518 913.7234 183.1403 916.2942 184.3697 925.0123 185.5992 931.7186 187.8347 937.9778 191.7466 944.4605 198.0058 947.8136 200.353 956.8671 203.5944 958.4319 205.4945 959.2143 208.177 961.1144 211.4184 968.3795 219.4659 972.2915 222.1484 977.6565 224.4956 989.2807 226.3957 992.5221 227.9605 996.0988 233.5491 996.5459 239.92 993.6398 253.6679 992.5221 267.751 997.6636 307.5416 997.5518 313.689 995.8752 328.2193 994.0869 332.6901 988.8337 336.6021 980.8979 339.8435 972.2915 341.4083 965.697 340.4023 963.6851 337.9433 964.4675 335.4844 964.244 333.249 959.4378 331.9077 956.6436 330.1194 955.6376 323.4131 952.7316 321.2894 947.7019 321.1777 946.6959 323.0778 948.2607 326.878 947.4783 334.5902 946.5842 337.8316 942.3369 344.3143 936.6365 347.6674 929.9303 347.7792 922.7769 344.2025 920.0944 346.2144 905.8994 355.0443 899.6403 357.2798 885.2218 354.9326 879.9685 355.0443 870.0209 356.8327 865.4383 356.9444 859.9615 355.715 856.8319 353.8149 853.9259 351.2441 851.0198 349.2322 847.6667 348.5616 840.0662 349.6793 812.347 347.7792 810.4469 346.7733 808.7703 346.5497 805.1936 348.4498 802.6229 351.3559 798.7109 359.5152 796.4755 362.8683 792.3399 366.2215 761.4911 383.0989 761.3793 382.9871 753.8906 372.3689 752.2141 366.445 752.2141 363.986 750.9846 359.0681 736.6779 355.715 738.4662 336.9374 739.6957 332.3548 740.8134 331.4606 742.1547 330.5664 747.5197 328.2193 749.4198 326.7662 751.8788 323.9719 752.4376 321.9601 752.1023 320.1717 750.9846 318.9422 748.5256 316.8186 747.6315 315.0303 747.0726 312.9066 747.1844 306.5356 745.2843 294.0173 744.6136 278.7046 744.8372 274.6809 745.396 271.7748 749.308 260.2624 749.5316 257.6916 748.9727 255.6798 747.855 254.4503 741.037 249.5323 739.8075 248.1911 738.8015 246.5145 737.9074 243.2732 737.9074 241.1495 738.578 239.6965 739.2486 239.0259 740.3663 236.5669 741.5958 232.4314 743.1606 223.0426 743.2724 218.5717 742.3782 215.8892 741.037 215.1068 736.119 212.8714 733.4365 211.3066 731.9835 210.0771 730.6422 208.2888 729.5245 205.0474 729.5245 202.0296 730.1952 198.2294 731.2011 196.2175 732.7659 194.988 734.4425 194.5409 736.3426 194.5409 740.4781 195.3233 742.0429 195.3233 743.6077 194.988 745.0607 194.2056 748.6374 191.1878 750.0904 190.4054 751.6552 190.0701 753.3318 190.2936 755.4554 189.1759 757.5791 186.6052 760.3734 179.2283 761.044 175.3163 760.7087 172.522 759.7028 171.2925 758.2497 170.3983 754.8966 169.2806 753.3318 168.3865 751.9905 167.4923 750.9846 166.3746 750.314 165.4804 749.7551 164.3627 744.5019 146.7029 744.5019 144.0204 744.8372 141.8967 746.7373 138.5436 747.7432 136.4199 748.7492 132.3961 748.7492 130.1607 748.3021 128.1488 747.2961 126.8076 744.8372 124.4604 742.0429 122.7838 740.5899 122.225 735.0013 120.5484 733.4365 119.8778 732.0953 118.8718 730.9776 117.6424 729.0774 114.8481 727.848 113.6186 726.3949 112.8362 720.9182 111.8303 720.3593 111.0479 720.3593 110.2655 720.5828 109.8184 721.2535 109.1477 722.0359 108.03 722.5947 106.577 721.7006 105.6828 720.1358 105.124 719.6887 104.0063 720.024 102.665 721.0299 101.3238 722.1476 100.0943 723.2653 98.9766 724.6066 98.3059 725.8361 98.0824 728.4068 99.3119 730.1952 99.5354 732.0953 99.4237 734.1072 99.0883 735.8955 98.4177 737.4603 97.4118 738.6898 95.847 738.8015 94.7293 738.578 93.4998 737.7956 91.8232 736.2308 86.0111 736.2308 83.6639 737.0132 82.3227 738.2427 81.9873 739.1369 82.3227 739.9193 83.1051 741.484 85.8993 742.6018 86.9053 743.943 86.9053 745.0607 86.1229 746.0667 84.8934 747.1844 83.8875 748.8609 83.1051 750.6493 82.4344 752.6612 80.6461 753.22 78.6342 753.22 76.6223 752.5494 74.834 751.767 73.381 747.4079 68.2395 746.1784 67.2336 744.7254 66.5629 743.1606 66.4512 741.7076 67.01 737.125 69.6925 735.5602 70.2514 733.8836 70.8102 731.9835 70.6985 730.5305 70.0278 729.301 67.9042 728.295 64.7746 727.1773 58.7389 727.4009 55.7211 728.1833 53.4857 729.6363 52.7033 731.3129 52.7033 732.7659 54.0446 732.8777 55.7211 732.5424 57.9565 732.8777 59.4096 734.2189 59.9684 735.7837 59.7449 738.4662 58.7389 739.2486 58.9625 740.1428 59.6331 741.037 60.7508 742.6018 61.4215 744.3901 61.4215 748.0785 60.8626 749.6433 61.3097 750.8728 62.3156 751.9905 65.2217 752.5494 66.0041 753.5553 66.6747 754.8966 66.7865 756.2378 66.3394 757.2438 65.557 761.1558 61.645 762.3853 60.6391 763.9501 59.9684 765.8502 59.9684 767.415 60.6391 768.7562 61.645 770.9916 63.7686 771.9976 64.551 772.5564 64.8864 774.233 65.1099 775.1272 64.9981 775.686 64.7746 776.3567 64.3275 777.5861 62.7627 778.8156 60.5273 780.604 55.9447 781.051 53.4857 780.3804 52.0327 779.1509 51.9209 777.8097 51.362 775.686 49.2384 772.3329 47.8971 771.1034 46.8912 770.2092 45.4382 769.0915 40.9673 767.5267 21.6309 768.1974 19.2837 769.4268 18.6131 770.6563 19.3955 773.1153 21.5191 775.0154 24.3134 776.1331 25.4311 777.5861 25.8782 779.4862 25.6547 781.1628 25.0958 782.7276 23.531 784.1806 21.1838 785.6337 16.4894 790.9987 5.3123Z" />
  <path class="Oio" d="M615.7415 4.5299L619.5417 11.348 620.1006 15.3717 619.9888 19.2837 619.3182 21.6309 618.5358 23.4193 613.2825 32.2492 611.8295 35.6023 608.5881 40.4085 607.1351 43.2028 605.0114 48.456 605.0114 51.2503 605.6821 53.2622 606.7998 54.3799 615.0708 60.0802 619.5417 64.3275 620.3241 65.4452 621.1065 66.6747 622.1124 68.5748 623.2301 71.3691 622.8948 73.2692 621.8889 74.6105 620.5476 75.6164 618.9828 76.3988 617.3063 77.0694 615.7415 77.8518 611.8295 80.9814 610.3765 81.8756 605.1232 83.7757 589.1399 87.0171 587.4634 87.7994 586.9045 89.5878 588.134 122.8956 588.4693 125.0193 589.0282 126.8076 589.9223 128.2606 590.9283 129.4901 597.2992 134.8551 598.5287 136.3081 599.5347 138.9906 600.2053 143.5733 599.3111 150.1678 599.0876 165.8157 598.4169 168.61 597.0757 169.616 593.3872 168.9453 587.0163 168.61 585.1162 168.2747 583.3278 167.7158 574.6097 163.0215 573.492 162.5744 572.2625 162.3508 570.6977 162.3508 568.9094 162.7979 567.2328 163.3568 565.4444 163.5803 563.6561 163.3568 561.9795 162.9097 560.1912 162.7979 558.8499 163.3568 557.5087 164.3627 556.2792 165.4804 553.0378 169.2806 550.5789 173.1926 549.9083 175.6516 550.1318 177.7752 560.5265 195.7704 561.8678 199.0118 563.0972 207.3946 563.7679 209.0712 564.7738 210.4124 566.2268 211.1948 570.0271 212.089 572.7096 213.4303 574.4979 214.7715 587.9105 222.4837 588.9164 224.1603 588.3575 225.9486 587.1281 228.8547 586.5692 231.2019 586.4574 233.4373 586.5692 234.2197 587.0163 235.7845 589.3635 240.5906 590.1459 242.8261 590.2576 244.0556 590.0341 245.0615 589.4752 245.6204 588.4693 246.291 587.1281 247.1851 585.5633 247.8558 583.7749 248.5264 580.31 249.3088 576.5098 249.0853 575.6156 248.8617 575.5039 248.8617 575.3921 246.7381 573.3802 244.3909 571.033 242.9378 571.033 241.8201 567.6799 240.7024 563.8796 240.4789 560.6383 241.9319 557.9558 242.4908 550.6906 239.4729 547.0022 238.5788 542.3078 240.0318 532.1366 246.1792 526.7716 247.6322 523.9773 249.8677 514.5886 260.3741 509.7824 263.8391 502.182 265.0685 495.9228 263.8391 482.622 259.3682 469.7683 257.2446 465.6328 255.2327 460.9384 251.0971 454.6792 246.9616 447.3023 245.285 439.4783 245.6204 432.2132 247.6322 429.7542 249.197 424.3892 253.7796 422.2656 254.7856 415.1122 254.3385 411.4238 254.562 408.7413 255.7915 398.3465 266.298 396.3347 267.5275 392.758 268.9805 386.6106 265.2921 384.8222 263.7273 380.4631 258.3623 377.7806 257.1328 373.6451 255.7915 371.8568 254.3385 370.6273 253.109 366.7153 246.0674 364.5916 239.0259 363.5857 237.014 352.9674 223.825 351.9615 221.1425 351.6262 219.5777 351.6262 217.454 354.1969 207.6182 354.3087 204.8239 353.9734 202.4767 353.5263 200.5766 353.5263 198.5647 357.5501 184.7051 357.8854 181.1284 357.6618 178.4459 356.8794 176.9928 355.7617 175.7634 354.3087 174.7574 345.4788 171.8514 343.8022 171.069 342.4609 170.1748 341.1197 169.0571 337.8783 165.3686 330.2779 158.8859 325.6953 153.8562 324.8011 152.4032 324.1305 150.9502 324.1305 149.4971 324.6893 148.0441 327.2601 145.8087 327.5954 143.685 326.9248 142.4556 326.2541 140.8908 326.4777 138.6553 330.2779 133.5139 332.2898 131.2784 334.0781 130.1607 335.084 131.7255 335.6429 135.0787 336.8724 135.8611 338.549 135.8611 340.5608 135.6375 342.4609 135.0787 343.8022 133.9609 344.1375 131.8373 343.6904 130.1607 343.5787 128.4842 344.5846 126.9194 347.6024 125.6899 350.0614 125.2428 356.3206 125.6899 358.1089 125.2428 364.7034 122.0014 366.38 120.4366 368.1683 117.307 369.9567 115.1834 382.475 107.1359 388.846 104.7887 392.3109 103.1121 398.3465 98.753 401.5879 97.5235 404.2704 97.0765 405.8352 97.5235 407.2882 97.4118 408.4059 97.3 409.9707 96.8529 411.8708 96.7411 413.771 97.0765 415.1122 97.9706 416.7888 103.4474 417.7947 104.7887 419.136 105.6828 421.0361 105.6828 422.9362 105.0122 434.0015 97.1882 435.5663 96.4058 437.3547 95.0646 438.9195 93.0527 440.8196 85.4523 441.602 80.6461 441.8255 76.0635 440.7078 68.3513 434.5604 47.5618 433.778 45.6617 451.3261 32.6963 471.4449 23.4193 490.7813 9.4479 499.2759 5.5359 508.7765 4.0828 524.9833 4.1946 615.7415 4.5299Z" />
  <path class="Quinara" d="M629.8246 336.4903L622.0007 351.0206 606.9116 373.263 602.4407 382.9871 602.1054 384.999 601.6583 389.1345 601.8818 395.3937 601.7701 397.5174 601.323 399.3057 600.7641 401.0941 599.9817 402.3235 598.9758 403.6648 597.6345 405.1178 595.6227 407.6886 591.7107 415.7361 588.134 421.2129 586.1221 422.5541 583.3278 423.8954 570.4741 426.9132 568.7976 427.4721 565.668 429.0369 563.7679 429.4839 555.9439 430.7134 543.8726 435.0725 541.6372 434.9607 538.9547 434.4019 535.2662 432.6135 533.2543 431.1605 531.6895 429.7075 526.5481 423.113 525.4304 422.107 524.2009 421.5482 521.5184 420.4305 516.0416 416.4067 510.1177 413.3889 508.4411 412.7183 502.4055 414.7301 486.0869 428.478 483.0691 430.6017 482.9573 430.7134 484.6339 426.2426 466.4152 441.1081 459.8207 444.6848 454.6792 441.667 453.6733 437.755 455.2381 427.4721 457.2499 424.1189 461.1619 419.9834 463.8444 416.2949 462.0561 414.5066 456.3558 416.0714 452.1085 420.3187 449.3142 426.019 448.3083 431.9429 446.1846 435.8549 441.3784 438.3139 436.0134 440.214 432.2132 442.4494 429.0836 447.7026 427.407 452.2853 424.6128 455.3031 417.7947 456.4208 413.4356 457.8738 409.7472 459.7739 406.9529 458.768 405.4999 451.6146 406.5058 448.038 411.4238 435.8549 413.1003 433.1724 414.1063 430.8252 423.3833 417.0773 417.5712 416.742 415.5593 414.5066 415.6711 410.4828 416.5652 405.4531 419.2477 407.1297 422.1538 407.3532 425.1716 406.012 428.1894 402.9942 428.413 405.1178 430.2013 410.1475 431.6543 405.6767 434.1133 401.8765 436.9076 400.9823 439.2548 405.4531 441.7138 405.4531 441.3784 402.2118 440.4843 399.0822 439.0312 396.2879 437.0194 393.7172 438.5842 393.4936 438.8077 393.1583 438.6959 392.5994 439.2548 391.4817 442.2726 392.7112 445.8493 393.4936 450.5437 393.7172 456.0205 395.1702 457.9206 394.0525 455.2381 389.1345 456.3558 386.5638 457.5853 382.2047 459.8207 382.2047 462.5032 385.8932 467.0858 385.3343 470.886 385.4461 471.1096 391.4817 477.4805 389.1345 477.257 384.5519 473.345 379.4105 468.6506 375.2749 467.1976 376.1691 466.0799 376.6162 462.0561 377.6221 462.0561 375.2749 469.3212 372.816 472.6744 370.9158 475.804 368.1216 478.2629 372.3689 482.3985 377.175 487.8752 379.8575 493.9109 377.6221 489.8871 376.9515 489.5518 374.7161 490.3342 371.4747 489.44 368.1216 486.7575 366.7803 483.9633 366.8921 481.6161 365.8861 480.3866 361.4153 484.075 362.6448 491.3402 364.2096 493.9109 365.8861 498.3817 363.5389 497.7111 365.7744 496.8169 370.5805 496.0345 372.816 504.1938 378.6281 506.6528 378.181 509.7824 372.816 508.1058 369.7981 503.8585 364.0978 502.9644 362.4212 503.8585 360.1858 506.2057 357.5033 509 355.3796 511.7943 354.2619 512.4649 355.0443 515.0356 356.6091 518.5006 358.1739 522.189 358.9563 524.3127 360.074 525.4304 362.9801 525.8774 366.7803 525.7657 370.4688 532.1366 368.1216 531.5778 367.0039 530.7954 364.6567 530.1248 363.5389 535.0427 363.8743 538.5076 365.6626 541.1901 368.7922 543.6491 372.816 530.5718 375.3867 525.7657 375.2749 527.3305 377.0633 528.1129 378.4045 529.3424 379.2987 532.1366 379.8575 530.7954 385.2226 532.5837 388.2404 535.4898 388.0168 538.6194 378.9634 542.5314 378.6281 546.4433 379.4105 548.2317 378.7398 558.7382 378.181 561.756 377.6221 565.5562 375.722 568.2387 373.4866 569.9153 370.357 571.033 365.8861 566.8975 367.2274 563.8796 368.904 560.5265 370.1334 549.4612 371.3629 547.0022 370.4688 545.8845 367.0039 546.5551 365.4391 548.3435 364.3213 550.5789 363.6507 552.9261 363.5389 551.5848 360.5211 551.5848 358.621 552.9261 354.2619 549.1259 353.3678 546.108 355.1561 544.2079 358.8446 543.6491 363.5389 539.1782 358.2857 536.2722 356.7209 532.1366 356.8327 532.1366 354.2619 534.4838 353.0325 539.4018 347.3321 539.4018 345.0967 536.9428 340.4023 534.5956 340.4023 530.1248 352.0265 526.101 352.9207 521.1831 350.1264 516.4887 349.6793 519.9536 344.5378 524.648 342.1906 528.6717 339.5081 530.1248 333.3607 527.3305 336.2668 524.2009 337.8316 521.1831 337.7198 518.6123 335.5961 516.4887 335.5961 516.2651 339.0611 515.2592 341.2965 513.1355 342.4142 509.7824 342.7495 510.7883 347.6674 508.3294 349.0087 504.8645 347.2204 502.9644 342.7495 497.9347 350.0146 495.1404 348.1145 496.8169 342.3024 504.9762 338.1669 502.0702 336.0432 500.8407 333.249 501.176 330.1194 502.9644 326.5427 504.9762 326.5427 506.4293 327.5486 507.7705 327.8839 511.7943 328.6663 510.3413 323.9719 507.4352 320.9541 500.7289 317.3774 498.3817 317.3774 497.4876 322.8542 495.2521 327.2133 493.4638 331.9077 493.9109 338.1669 490.446 339.5081 487.5399 343.8672 484.6339 345.0967 482.622 343.8672 483.5162 340.7376 486.9811 335.5961 483.0691 333.9196 482.3985 329.784 484.6339 319.6129 481.3925 321.6248 479.3806 324.419 478.2629 328.1075 477.8158 332.243 476.5864 332.5783 469.6565 332.4666 466.6387 333.3607 471.1096 335.5961 471.1096 338.1669 474.9098 340.8494 478.71 343.1966 480.3866 346.2144 479.0453 350.6853 476.1393 351.803 473.0097 350.4617 471.1096 347.3321 469.5448 350.0146 468.2035 352.9207 467.3094 355.8267 466.6387 358.9563 464.068 345.8791 462.0561 341.2965 460.3795 341.8553 460.2678 341.1847 456.5793 339.7317 450.5437 338.614 448.7553 338.5022 444.0609 338.9493 432.8838 341.7436 431.8779 342.6377 432.2132 338.1669 421.4832 348.5616 415.7828 351.4677 409.859 347.3321 411.4238 344.4261 411.4238 337.2727 411.8708 333.3607 407.5118 333.1372 404.8293 334.4784 402.9292 336.4903 400.8055 338.1669 400.6937 339.2846 398.123 342.1906 395.2169 344.0908 393.7639 341.6318 392.6462 335.9315 390.8579 330.4547 390.8579 324.7543 397.0053 315.5891 399.576 308.1004 401.9232 304.6355 414.3298 291.8936 418.0183 289.4347 420.0301 288.6523 420.9243 287.4228 421.1479 283.6226 421.9303 280.2694 423.9421 277.3634 428.1894 273.2278 430.2013 273.2278 431.0955 275.4633 432.1014 276.3574 433.3309 277.0281 434.6722 278.034 436.0134 274.9044 437.5782 273.6749 439.5901 274.0102 441.7138 273.2278 449.3142 273.4514 462.615 277.1398 469.8801 278.034 510.7883 278.034 512.4649 276.9163 518.0535 271.8866 519.8418 270.6571 528.56 268.6452 534.0367 263.7273 538.3958 258.474 543.6491 254.7856 551.2495 254.7856 552.5908 259.8153 550.3553 266.7451 547.0022 271.9983 544.5432 278.3693 544.8785 286.7521 547.0022 295.135 550.4671 300.9471 556.8381 303.8531 565.2209 305.3062 572.5978 307.7651 575.7274 313.8008 579.3041 317.7128 587.0163 319.5011 594.7285 318.0481 598.1934 312.4595 599.5347 307.9887 601.7701 306.2003 605.3468 305.9768 608.3646 307.318 609.4823 309.777 610.0411 312.3477 611.8295 315.3656 613.059 318.2716 613.9531 319.5011 615.8532 318.3834 617.3063 317.8245 618.6475 317.9363 627.1421 321.7365 628.3716 323.1895 627.2539 325.8721 618.8711 335.8197 619.3182 337.608 629.8246 336.4903Z" />
  <path class="Tombali" d="M736.6779 355.715L750.9846 359.0681 752.2141 363.986 752.2141 366.445 753.8906 372.3689 761.3793 382.9871 761.4911 383.0989 732.0953 399.3057 718.4592 401.7647 690.8517 398.5233 677.2156 399.9763 669.1681 404.4472 663.2442 411.0417 630.3835 459.4386 625.3538 472.1805 618.7593 498.6703 587.0163 560.368 575.9509 573.6688 575.9509 573.7805 566.4504 583.5046 553.5967 592.5581 545.2139 596.9172 541.4136 596.3583 542.3078 591.8875 544.655 589.5403 547.5611 588.0872 550.4671 585.9636 555.385 578.3631 557.3969 576.5748 557.3969 574.2276 554.938 574.2276 553.5967 577.3572 551.9201 580.1515 549.4612 582.2751 545.8845 583.5046 542.0843 583.6164 538.3958 582.834 535.7133 580.8221 534.5956 577.8043 540.5195 552.9911 542.5314 548.8556 545.9963 547.0672 548.1199 542.5964 549.6847 537.6784 551.6966 533.7664 553.5967 532.8723 557.7322 533.0958 559.5206 532.537 559.7441 531.3075 559.297 526.7249 559.5206 525.6072 573.2684 524.4894 572.5978 521.6952 570.9212 519.348 568.7976 517.6714 566.4504 516.4419 570.9212 511.7475 573.492 505.3766 573.1567 499.3409 568.574 495.6525 565.5562 504.4824 560.6383 510.8534 554.0438 514.7653 545.8845 516.4419 547.7846 521.8069 546.3316 525.1601 543.0902 525.8307 539.4018 523.3717 538.6194 525.0483 537.7252 526.3895 537.0546 527.9543 536.9428 530.3015 535.6015 529.4074 532.1366 527.9543 532.0249 534.4371 530.1248 537.4549 526.6598 539.5785 522.189 543.1552 518.3888 548.0732 513.4708 557.5737 504.8645 569.1979 501.2878 572.7746 497.264 574.2276 492.905 572.3275 487.8752 567.8567 484.075 562.827 483.6279 559.2503 487.3164 556.5678 497.1523 551.6498 500.7289 548.8556 502.4055 544.9436 504.9762 530.3015 501.3996 501.7999 504.9762 493.5288 497.5993 494.7583 495.5875 499.6762 496.7052 506.2707 498.3817 511.9711 498.9406 517.1125 498.4935 525.2718 496.1463 531.0839 487.5399 527.7308 475.804 527.9543 472.3391 526.9484 469.7683 525.4954 467.98 524.0424 466.6387 523.3717 458.8147 524.4894 454.791 523.8188 453.0026 520.0186 452.1085 516.3301 449.7613 513.8712 446.4081 512.4182 442.7197 511.9711 437.8018 508.5062 436.5723 500.3469 437.0194 484.14 437.8018 480.5634 437.5782 478.2162 435.7899 477.2102 433.778 477.2102 432.6603 476.7631 432.325 475.7572 432.2132 473.6336 432.6603 470.0569 434.3369 465.586 434.6722 462.0094 436.3487 458.8798 444.7316 447.5909 448.3083 444.6848 450.4319 445.2437 457.1382 448.3733 460.9384 449.1557 464.2915 448.038 468.8741 443.4553 472.2273 442.4494 475.5804 440.5493 479.4924 435.9667 482.9573 430.7134 483.0691 430.6017 486.0869 428.478 502.4055 414.7301 508.4411 412.7183 510.1177 413.3889 516.0416 416.4067 521.5184 420.4305 524.2009 421.5482 525.4304 422.107 526.5481 423.113 531.6895 429.7075 533.2543 431.1605 535.2662 432.6135 538.9547 434.4019 541.6372 434.9607 543.8726 435.0725 555.9439 430.7134 563.7679 429.4839 565.668 429.0369 568.7976 427.4721 570.4741 426.9132 583.3278 423.8954 586.1221 422.5541 588.134 421.2129 591.7107 415.7361 595.6227 407.6886 597.6345 405.1178 598.9758 403.6648 599.9817 402.3235 600.7641 401.0941 601.323 399.3057 601.7701 397.5174 601.8818 395.3937 601.6583 389.1345 602.1054 384.999 602.4407 382.9871 606.9116 373.263 622.0007 351.0206 629.8246 336.4903 635.6367 339.5081 637.0898 342.526 637.0898 346.438 638.6546 352.0265 644.1314 359.627 652.4024 366.7803 661.5677 370.5805 669.5034 368.1216 678.3333 359.0681 681.6865 357.9504 687.1633 358.2857 688.281 358.9563 692.0812 362.0859 694.2048 362.9801 697.2227 362.6448 706.4997 358.5092 713.9883 356.8327 729.1892 355.2679 736.6779 355.715Z" />
</svg>