<?xml version="1.0" encoding="utf-8"?>
<svg xmlns="http://www.w3.org/2000/svg" viewBox="0 0 1021 564" style="stroke-width:0.25px;stroke-linejoin:round;stroke:#444;fill:#ddd" fill-rule="evenodd">
  <path class="Ahuachapán" d="M154.7971 177.3822L158.3738 178.8352 165.9743 183.6414 167.4273 184.9826 168.2097 185.8768 168.6568 186.771 169.5509 190.3476 169.998 191.3536 170.6686 192.3595 172.1217 193.8125 173.91 195.1538 175.363 196.7186 175.4748 196.8304 176.369 198.5069 176.7043 199.5129 175.4748 207.2251 167.092 236.1738 159.6033 239.3034 150.4381 241.8741 145.2966 242.6565 144.1789 243.4389 143.2847 244.6684 142.8376 247.4627 142.7259 249.251 143.7318 257.2986 144.4024 259.8693 145.1848 261.7694 146.1908 263.7813 146.5261 264.7872 146.3025 266.2403 137.8079 279.3175 137.0255 281.6647 136.802 283.453 140.2669 294.6301 140.714 297.0891 140.1551 298.7657 138.9256 300.7776 135.796 304.5778 134.5666 306.925 133.8959 308.7133 133.5606 312.7371 133.2253 313.8548 127.8603 323.4671 127.0779 325.5908 124.7307 335.2031 122.607 336.0972 119.1421 336.5443 106.512 335.7619 103.9413 335.2031 103.0471 334.6442 100.0293 331.7382 94.5525 325.3672 93.6583 324.6966 91.9817 323.4671 90.9758 323.02 89.8581 322.5729 88.2933 322.4612 86.6167 322.4612 84.2695 322.9083 82.8165 323.3553 81.587 323.9142 80.5811 324.5848 79.3516 325.5908 76.222 329.391 69.6275 339.8975 68.6216 341.4623 40.2317 328.4968 7.818 312.8488 1.1118 284.7943 1 278.088 2.0059 271.0464 4.2414 264.2284 7.5945 257.9692 12.6242 252.8277 24.1366 246.6803 29.2781 242.433 33.0783 236.3974 35.8726 230.1382 39.4493 223.9908 45.7085 218.514 86.0579 190.2359 94.8878 181.2942 99.3586 178.2763 118.0244 171.2348 124.1718 170.7877 131.7723 172.7996 142.7259 181.2942 148.8733 183.8649 155.0207 180.5118 155.1325 178.0528 154.7971 177.3822Z" />
  <path class="Cabañas" d="M498.1582 219.2964L510.5648 218.9611 521.5184 219.967 527.3305 218.514 533.5897 216.1668 559.4088 207.6722 564.4385 205.325 567.2328 203.0895 570.4741 198.8422 579.0805 194.5949 598.4169 191.6889 598.4169 192.4713 600.9877 191.4653 611.6059 189.7888 622.336 190.5712 654.079 200.7424 672.633 202.0836 676.6568 203.8719 680.457 207.5604 680.1217 208.9017 680.0099 209.9076 679.7864 210.1311 679.3393 210.4664 679.2275 210.4664 677.5509 210.2429 677.998 211.2488 680.1217 215.9432 679.8981 220.9729 678.4451 226.2262 677.5509 232.5971 678.6686 236.7327 683.2513 248.1333 683.5866 254.9514 679.8981 261.0988 679.1157 261.7694 677.2156 263.446 679.8981 268.811 679.2275 273.9525 676.3215 278.3116 671.7388 281.2176 672.633 287.1415 668.721 293.1771 664.9208 300.6658 664.9208 300.7776 658.1028 305.3602 654.1908 304.3542 643.5725 303.013 642.0077 302.4541 641.2253 301.7835 640.6664 300.8893 640.3311 299.7716 639.884 297.4244 639.2134 296.4185 638.0957 295.8596 635.1897 295.0772 634.1837 294.6301 631.2777 292.9536 626.9186 291.3888 625.9127 290.8299 618.2004 285.1296 617.1945 284.6825 612.6119 283.7883 606.7998 283.453 604.1173 283.0059 590.7047 283.1177 587.6869 282.8942 585.675 282.3353 579.6394 277.9762 578.2981 278.088 576.7333 278.8704 574.6097 281.6647 573.2684 283.1177 571.8154 284.0119 569.3564 283.7883 566.3386 283.1177 563.5443 283.7883 550.4671 289.6004 546.4433 290.9417 543.5373 291.3888 539.1782 289.9358 536.7193 289.3769 534.0367 289.2651 532.919 290.8299 532.1366 292.1712 531.5778 304.5778 517.0475 300.554 513.2473 298.4304 512.8002 297.3127 510.1177 293.1771 506.0939 288.818 504.4174 286.5826 503.4114 284.6825 502.8526 281.8882 502.2937 280.2117 500.1701 276.4114 499.723 274.6231 499.3877 272.723 497.8229 269.3699 495.811 267.0227 492.3461 264.6755 489.7754 261.993 481.6161 250.3688 479.6042 246.6803 478.5982 243.886 478.8218 242.5448 479.1571 241.4271 479.4924 240.4211 480.163 239.4152 480.8337 238.7446 481.7278 238.0739 487.3164 234.8326 488.8812 233.4913 490.3342 231.9265 491.5637 230.1382 492.0108 229.1322 498.1582 219.2964Z" />
  <path class="Chalatenango" d="M312.8416 179.2823L307.9237 180.6235 301.6645 180.6235 295.4053 179.3941 290.7109 175.1468 289.4814 165.758 297.5289 138.0387 305.4647 138.5976 306.4706 138.1505 307.4766 137.5916 308.259 136.8092 309.2649 135.468 314.1828 126.4145 314.9652 125.7439 315.8594 125.185 316.8653 124.738 317.9831 124.4026 319.1008 124.1791 323.3481 123.9556 324.6893 123.732 325.807 123.3967 326.9248 123.0614 327.8189 122.5025 328.7131 121.8319 330.1661 120.3789 338.3254 109.09 339.1078 107.0781 339.2196 105.4015 338.8843 100.5954 338.8843 91.989 354.5322 85.618 358.2207 81.4825 359.8972 72.7644 365.2623 57.1164 357.5501 52.1985 355.5382 49.516 354.644 48.7336 348.3848 45.4922 346.9318 44.2627 346.0376 43.3685 344.1375 40.1272 342.7963 36.8858 342.2374 36.1034 339.4431 32.9738 323.4598 17.9965 339.6667 20.5672 352.6321 26.8264 374.0922 31.409 384.7105 38.8977 404.0469 44.7098 408.0706 41.1331 414.1063 29.3971 417.4594 25.9322 421.1479 24.9263 423.6068 25.3734 425.7305 27.2735 428.0777 30.6266 430.2013 34.5386 431.0955 38.8977 430.7602 43.2568 429.0836 47.5041 433.8898 51.6396 448.1965 53.3162 454.9028 56.6693 457.5853 62.0343 459.2618 75.3351 461.1619 79.2471 471.7802 87.2946 475.5804 91.989 479.3806 98.36 480.9454 103.8367 481.169 105.8486 481.6161 109.4253 482.9573 114.0079 486.6458 116.6904 490.7813 115.7963 495.6992 112.8902 501.6231 110.3195 508.1058 110.4312 518.5006 117.1375 527.3305 128.2029 533.5897 141.1683 536.3839 153.3514 543.7608 152.2337 562.0913 153.6867 567.121 151.6748 571.4801 148.9923 575.1685 148.657 578.1864 153.5749 577.7393 160.84 575.2803 167.9934 575.0568 174.1408 581.6513 178.3881 590.593 179.6176 592.6048 180.2882 595.6227 182.9707 597.6345 185.8768 598.6405 189.4535 598.4169 191.6889 579.0805 194.5949 570.4741 198.8422 567.2328 203.0895 564.4385 205.325 559.4088 207.6722 533.5897 216.1668 527.3305 218.514 521.5184 219.967 510.5648 218.9611 498.1582 219.2964 491.2284 218.514 484.7457 216.055 477.1452 216.6139 468.2035 212.3666 466.6387 211.3606 464.7386 209.5723 462.5032 206.3309 461.3855 203.9837 460.7149 201.9718 460.3795 200.8541 460.2678 199.8482 460.2678 198.6187 460.6031 196.8304 460.6031 196.7186 460.3795 195.9362 459.5971 194.8185 450.4319 183.8649 448.5318 180.5118 447.8612 179.6176 440.8196 174.5879 437.8018 171.9054 435.6781 170.6759 424.8363 166.7639 419.5831 164.0814 418.13 163.9696 416.7888 163.9696 409.4119 167.7699 397.7877 173.1349 393.0933 172.0172 387.1694 167.3228 384.4869 172.6878 378.6748 172.576 369.9567 168.7758 366.7153 169.8935 361.2385 173.8055 359.5619 174.6997 356.5441 174.2526 352.5204 172.3525 351.1791 172.0172 344.3611 171.0112 336.7606 166.6521 332.4015 165.758 328.3778 168.8876 324.4658 171.0112 319.5479 172.0172 316.0829 173.3584 314.7417 176.2645 312.8416 179.2823Z" />
  <path class="Cuscatlán" d="M409.4119 167.7699L416.7888 163.9696 418.13 163.9696 419.5831 164.0814 424.8363 166.7639 435.6781 170.6759 437.8018 171.9054 440.8196 174.5879 447.8612 179.6176 448.5318 180.5118 450.4319 183.8649 459.5971 194.8185 460.3795 195.9362 460.6031 196.7186 460.6031 196.8304 460.2678 198.6187 460.2678 199.8482 460.3795 200.8541 460.7149 201.9718 461.3855 203.9837 462.5032 206.3309 464.7386 209.5723 466.6387 211.3606 468.2035 212.3666 477.1452 216.6139 484.7457 216.055 491.2284 218.514 498.1582 219.2964 492.0108 229.1322 491.5637 230.1382 490.3342 231.9265 488.8812 233.4913 487.3164 234.8326 481.7278 238.0739 480.8337 238.7446 480.163 239.4152 479.4924 240.4211 479.1571 241.4271 478.8218 242.5448 478.5982 243.886 479.6042 246.6803 481.6161 250.3688 489.7754 261.993 492.3461 264.6755 495.811 267.0227 497.8229 269.3699 499.3877 272.723 499.723 274.6231 500.1701 276.4114 502.2937 280.2117 502.8526 281.8882 503.4114 284.6825 504.4174 286.5826 506.0939 288.818 510.1177 293.1771 512.8002 297.3127 513.2473 298.4304 517.0475 300.554 531.5778 304.5778 523.8656 325.0319 522.4125 331.0675 521.4066 333.0794 520.5124 334.5325 512.3531 342.58 509.4471 344.3683 507.0999 345.1507 501.8466 345.8213 500.7289 346.1567 499.8348 346.6037 499.0524 347.4979 498.1582 349.5098 497.4876 350.2922 496.5934 350.7393 495.811 350.9628 493.9109 351.2981 492.4579 351.2981 484.5221 348.8392 477.257 344.9272 458.8147 338.1091 458.4794 325.1437 457.5853 322.9083 456.8029 320.6728 454.791 318.1021 447.4141 304.1307 446.8552 302.1188 447.5259 292.8418 447.1905 290.9417 446.4081 289.7122 445.2904 289.3769 443.7256 288.2592 441.9373 286.4708 436.684 278.6469 435.9017 277.9762 434.7839 277.5292 433.5545 277.3056 430.8719 277.1938 427.9659 274.8466 424.1657 270.3758 412.9886 252.8277 411.7591 249.4746 412.5415 248.804 415.5593 247.4627 416.677 246.6803 417.4594 245.7861 418.2418 244.1096 417.7947 243.2154 415.224 239.8623 406.5058 225.5556 402.5938 217.2845 401.6997 214.0431 401.2526 210.3547 401.4761 209.684 402.1468 209.1252 402.9292 208.4546 403.7116 207.7839 404.8293 205.9956 405.1646 204.9897 405.4999 203.7602 405.8352 201.1894 406.3941 198.8422 406.6176 197.0539 406.6176 196.6068 406.7294 195.8244 406.3941 191.6889 405.0528 184.5355 404.941 182.6354 405.2763 181.2942 407.2882 177.1586 409.1883 172.0172 409.4119 167.7699Z" />
  <path class="La Libertad" d="M277.0748 293.9595L279.0867 282 286.4636 261.8812 287.246 252.6042 286.7989 244.892 287.3578 233.2678 287.9166 230.9206 288.5872 230.0264 289.4814 229.4675 290.4873 229.1322 291.6051 229.244 292.611 229.5793 293.8405 229.4675 295.1817 228.5734 298.5349 223.0966 299.429 222.6495 300.5468 222.5377 301.9998 222.5377 303.5646 222.5377 305.6882 221.5318 306.5824 220.4141 307.0295 219.0728 307.7001 210.69 307.5883 209.3487 308.3707 203.2013 312.8416 179.2823 314.7417 176.2645 316.0829 173.3584 319.5479 172.0172 324.4658 171.0112 328.3778 168.8876 332.4015 165.758 336.7606 166.6521 344.3611 171.0112 351.1791 172.0172 352.5204 172.3525 356.5441 174.2526 356.097 188.7828 353.8616 198.0598 353.7498 200.407 353.9734 201.9718 356.5441 203.9837 357.5501 205.4367 358.7795 207.6722 360.9032 212.5901 362.1327 214.9373 363.2504 216.5021 365.0387 217.6198 367.0506 218.6257 370.4037 219.6317 371.6332 219.7435 375.5452 219.4081 376.8865 219.4081 378.116 219.6317 379.3454 219.8552 380.4631 220.3023 381.8044 221.0847 383.3692 222.3142 385.6046 223.5437 386.2752 224.4378 386.387 225.1085 385.2693 228.0145 384.7105 230.4735 384.5987 230.9206 384.2634 231.2559 381.1338 231.1441 380.0161 231.4794 379.2337 232.2618 378.7866 233.6031 376.6629 257.7457 376.1041 260.2046 375.657 261.2106 374.7628 261.7694 372.6392 262.5518 371.6332 263.1107 370.8508 263.7813 369.5096 265.3461 368.7272 267.4697 368.1683 269.4816 367.3859 277.0821 366.4917 280.4352 365.1505 283.5648 364.3681 287.5886 363.921 294.5184 363.5857 296.3067 363.2504 297.4244 360.3443 302.9012 358.4442 308.2662 358.6678 309.9428 359.3384 310.837 360.4561 311.1723 361.7974 311.284 363.921 314.0783 363.4739 318.3256 363.8092 322.4612 364.2563 323.5789 364.8152 324.473 365.4858 325.2554 367.1624 326.4849 367.9448 327.4909 368.3919 328.9439 369.1743 332.297 369.8449 334.1971 370.6273 335.4266 371.5215 336.0972 377.5571 339.3386 378.3395 339.8975 380.1278 341.4623 382.9221 345.2625 383.3692 346.8273 383.1457 348.1685 381.8044 350.7393 380.7985 353.1982 380.9102 354.5395 381.8044 355.4337 385.0458 356.9985 385.4928 358.0044 385.2693 359.0103 384.5987 359.7927 383.8163 360.4634 383.1457 362.9223 382.9221 367.0579 383.7045 384.8295 383.481 386.1707 380.7985 392.9888 379.9043 396.789 379.7925 398.8009 380.0161 400.3657 386.7223 411.3193 389.0695 416.4607 389.7402 417.2431 390.6343 417.6902 391.8638 417.9138 393.2051 417.802 395.5523 417.2431 399.9113 415.7901 402.3703 415.4548 403.9351 415.6783 405.0528 416.0136 408.1824 417.3549 409.6354 424.3965 410.8649 426.1848 411.8708 426.1848 413.6592 426.2966 415.8946 426.8554 420.0301 428.532 421.4832 429.985 421.8185 431.2145 420.7008 433.1146 418.6889 435.5736 418.13 436.4678 417.4594 437.2502 414.218 443.0623 413.1003 445.633 411.7591 449.6568 391.752 437.3619 363.2504 424.7318 332.4015 417.3549 318.0948 417.3549 307.1413 414.7842 247.5672 415.343 222.0834 408.8603 213.0299 407.1837 214.1476 404.3894 218.6185 394.2183 220.8539 390.6416 231.4722 381.2528 233.2605 379.1292 234.49 377.4526 235.0488 372.1993 235.8312 368.6227 236.7254 366.499 237.7314 365.1578 238.6255 364.2636 239.4079 363.7047 248.5732 354.5395 250.6968 351.6334 251.8145 349.6216 251.9263 348.1685 251.3674 338.668 252.0381 333.6383 253.2675 328.4968 254.1617 326.1496 255.0559 324.5848 255.9501 323.8024 257.6266 322.7965 258.6326 322.5729 261.5386 322.2376 263.2152 321.567 264.8917 320.2257 269.8097 314.0783 272.1569 311.9547 278.3043 308.378 280.9868 306.4779 284.0046 303.7954 285.1223 302.1188 285.6812 300.4422 285.4576 299.3245 285.1223 298.2068 284.5635 297.3127 283.7811 296.642 282.8869 295.9714 281.881 295.5243 277.0748 293.9595Z" />
  <path class="La Paz" d="M411.7591 449.6568L413.1003 445.633 414.218 443.0623 417.4594 437.2502 418.13 436.4678 418.6889 435.5736 420.7008 433.1146 421.8185 431.2145 421.4832 429.985 420.0301 428.532 415.8946 426.8554 413.6592 426.2966 411.8708 426.1848 410.8649 426.1848 409.6354 424.3965 408.1824 417.3549 409.0766 413.7782 410.3061 412.9958 413.3239 409.6427 415.4475 405.0601 419.0242 394.33 419.9184 389.6356 420.1419 386.6178 419.3595 384.4942 416.1182 378.7938 414.8887 375.3289 414.1063 371.6405 414.3298 369.6286 414.8887 368.2873 415.8946 367.7285 417.0123 367.505 418.3536 367.505 419.5831 367.7285 426.2893 369.8521 427.6306 370.0757 428.8601 370.1875 430.9837 368.5109 443.6139 352.4158 458.8147 338.1091 477.257 344.9272 484.5221 348.8392 492.4579 351.2981 493.9109 351.2981 495.811 350.9628 496.5934 350.7393 497.4876 350.2922 498.1582 349.5098 499.0524 347.4979 499.8348 346.6037 500.7289 346.1567 501.8466 345.8213 507.0999 345.1507 509.4471 344.3683 512.3531 342.58 515.4827 351.0746 515.5945 358.1162 515.1474 365.4931 515.5945 368.3991 516.3769 370.1875 517.7182 370.2992 519.0594 370.2992 520.4007 370.0757 530.3483 366.9461 532.1366 366.8343 534.0367 367.1696 537.2781 368.3991 538.3958 369.8521 548.7905 391.9828 549.1259 393.2123 549.2376 394.4418 549.1259 397.2361 548.6788 399.695 545.4374 408.525 545.2139 409.5309 544.8785 410.5369 544.5432 411.9899 544.5432 412.6605 544.5432 412.7723 542.7549 422.1611 542.7549 424.1729 543.3138 431.6616 543.8726 434.1206 544.5432 435.9089 547.2257 438.9267 549.7965 440.9386 553.4849 443.174 556.391 445.9683 559.0735 449.545 560.0794 451.7804 560.5265 453.5688 560.303 454.91 559.7441 457.369 559.4088 458.3749 558.8499 459.3809 556.2792 461.281 555.6086 462.0634 555.0497 462.9575 554.7144 464.0752 554.6026 465.4165 554.4909 466.7578 556.391 484.4176 556.2792 486.8766 555.7204 487.7707 555.0497 488.5531 554.2673 489.4473 553.3732 490.0062 549.4612 491.9063 546.4433 493.1358 544.5432 494.2535 542.8667 495.5947 542.196 496.3771 541.6372 497.2713 541.0783 498.389 540.743 499.3949 540.4077 500.6244 539.4018 513.5899 539.4018 513.7017 441.4902 467.9872 411.7591 449.6568Z" />
  <path class="La Unión" d="M884.7747 390.5298L897.7402 376.6702 900.758 371.9758 901.5404 363.8165 911.1527 338.8915 913.6117 327.2673 914.8411 317.3197 915.0647 309.0486 914.6176 306.3661 914.2823 305.3602 913.8352 304.3542 913.2763 303.3483 911.3762 300.8893 910.8174 299.9952 910.5938 298.8774 910.4821 297.4244 912.1586 271.1582 911.3762 258.9751 909.5879 251.9336 908.2466 243.4389 910.5938 243.9978 916.7413 248.0216 919.6473 248.804 921.5474 247.9098 926.9124 243.6625 930.2656 242.5448 934.4011 242.7683 942.6722 244.5567 946.6959 244.2213 950.7197 241.3153 954.1846 236.9562 958.4319 233.3795 964.6911 233.156 968.7149 236.2856 972.7386 247.6862 976.2035 252.8277 978.3272 254.0572 984.251 256.4044 986.8218 257.7457 993.4163 263.5578 1005.264 273.7289 1012.6409 276.7468 1008.9525 283.0059 1000.4579 302.6777 998.3342 309.7193 1001.0167 316.8726 999.0048 321.4552 994.7575 325.479 991.0691 330.7322 989.6161 338.4444 989.9514 354.4277 988.9454 362.2517 978.886 386.7296 976.4271 398.5773 980.8979 408.4132 985.1452 409.978 994.0869 407.0719 1000.1226 409.4191 1003.3639 413.2194 1005.5993 418.3608 1006.27 424.1729 1005.264 429.6497 998.1107 437.9208 965.0264 453.1217 964.6911 453.0099 961.4497 450.998 959.3261 447.5331 956.1965 438.2561 944.3487 458.822 941.3309 470.8933 949.0431 476.2583 953.9611 478.1584 967.8207 491.571 975.7564 496.936 976.4271 499.3949 976.4271 504.6482 973.0739 513.8134 964.6911 520.4079 933.5069 536.1677 925.0123 542.9857 923.5593 549.8037 933.2834 556.51 918.4178 559.9749 860.6321 555.9512 849.9021 553.9393 849.9021 553.8275 852.2493 520.0726 852.8081 516.8312 853.9259 512.5839 854.82 512.9193 858.2849 515.49 861.8616 517.6136 866.2207 519.1784 867.6737 519.5138 869.015 519.5138 871.0268 518.9549 871.921 517.949 877.3978 499.9538 877.7331 497.2713 877.0625 494.8123 876.9507 493.024 882.3157 461.9516 882.204 460.9457 881.7569 459.8279 881.3098 458.822 877.3978 452.5628 876.8389 451.5569 876.5036 450.4392 875.2741 442.8387 875.0506 431.7734 875.3859 428.9791 876.0565 427.3025 876.8389 426.6319 878.6273 425.626 879.745 424.7318 880.9745 423.7259 882.5393 421.8257 882.9864 420.3727 882.9864 419.0315 881.3098 412.7723 881.0862 399.695 881.9804 394.2183 884.7747 390.5298ZM1003.1404 542.8739L1002.8051 537.3971 1005.8229 535.1617 1011.635 537.0618 1015.2117 544.9976 1015.4352 551.5921 1017 555.9512 1013.5351 557.963 1008.0583 555.9512 1004.4816 557.6277 1004.4816 552.9333 1002.2462 548.3507 1003.1404 542.8739ZM986.5982 521.4139L989.8396 523.4257 992.6339 529.6849 990.1749 533.2616 987.3806 535.9441 981.9039 531.0262 980.5626 524.2081 983.0216 521.7492 986.5982 521.4139Z" />
  <path class="Morazán" d="M773.2271 231.703L774.9036 228.7969 777.6979 225.6673 782.7276 223.5437 786.4161 224.1025 789.0986 223.5437 791.1105 217.6198 790.4398 216.5021 786.6396 213.0372 785.7454 211.4724 785.4101 202.866 785.5219 201.413 789.6574 199.8482 796.0284 200.5188 797.0343 200.7424 807.0937 202.9778 813.8 203.2013 835.7072 200.5188 846.7725 201.1894 851.5787 205.2132 857.7261 221.1965 863.7617 228.5734 871.5857 235.615 878.4037 243.886 881.8686 254.5043 900.9815 245.0037 907.2407 243.3272 908.2466 243.4389 909.5879 251.9336 911.3762 258.9751 912.1586 271.1582 910.4821 297.4244 910.5938 298.8774 910.8174 299.9952 911.3762 300.8893 913.2763 303.3483 913.8352 304.3542 914.2823 305.3602 914.6176 306.3661 915.0647 309.0486 914.8411 317.3197 913.6117 327.2673 911.1527 338.8915 901.5404 363.8165 900.758 371.9758 897.7402 376.6702 884.7747 390.5298 875.7212 389.0768 871.3622 389.3003 854.9318 394.4418 851.8022 394.7771 849.7903 394.4418 849.1197 393.7712 848.4491 392.5417 848.1138 391.6475 847.1078 390.5298 845.6548 389.1886 839.5074 385.5001 838.6132 384.8295 837.9426 383.9353 837.4955 383.0411 836.266 375.3289 835.5954 372.9817 834.0306 370.0757 832.2422 367.7285 830.7892 366.8343 829.2244 366.2755 812.9058 367.6167 810.5586 368.0638 808.435 368.958 805.0818 370.9699 802.7347 371.6405 802.064 371.0816 801.9523 370.411 802.5111 369.4051 804.9701 366.0519 805.4172 365.046 805.5289 363.9283 804.8583 362.8106 803.8524 361.8046 800.8345 359.9045 799.9404 359.1221 799.2697 358.3397 798.9344 357.3338 798.5991 356.1043 798.3756 354.8748 797.4814 353.1982 795.9166 351.0746 792.0046 348.1685 790.4398 346.6037 789.6574 344.033 788.3162 341.9094 782.9512 337.1032 780.8275 334.5325 779.4862 332.5206 778.8156 321.6788 778.8156 320.5611 779.2627 319.6669 780.0451 318.8845 793.793 308.9369 795.6931 307.8191 798.9344 306.7014 799.9404 306.1426 800.7228 305.3602 801.3934 304.5778 801.7287 303.3483 801.7287 301.7835 800.9463 299.2128 799.8286 297.5362 798.9344 296.4185 783.0629 285.5767 780.7157 283.453 779.1509 281.7765 778.8156 280.6587 778.4803 279.541 778.3685 275.2937 778.7039 272.9465 778.9274 272.1641 779.1509 271.3817 779.7098 270.4876 780.9393 268.9228 781.7217 268.2521 782.6158 267.6933 783.2865 266.9109 783.9571 266.0167 784.4042 265.1226 784.8513 264.0048 785.0748 262.7754 785.0748 260.2046 783.7336 256.6279 782.057 253.3866 781.3864 251.4865 781.2746 250.0334 780.4922 246.5685 775.5743 234.9443 773.2271 231.703Z" />
  <path class="San Miguel" d="M664.9208 300.7776L664.9208 300.6658 668.721 293.1771 672.633 287.1415 671.7388 281.2176 676.3215 278.3116 679.2275 273.9525 679.8981 268.811 677.2156 263.446 679.1157 261.7694 679.8981 261.0988 691.0752 260.5399 698.8992 255.7338 706.4997 252.4924 723.4889 248.804 727.4009 249.0275 734.1072 251.5982 737.2367 251.9336 737.6838 250.7041 737.6838 248.1333 738.0191 245.4508 739.3604 243.886 742.0429 243.7743 745.396 244.3331 748.7492 245.3391 751.4317 246.4568 754.3377 241.0917 758.9204 239.4152 763.9501 238.9681 768.5327 237.4033 771.8858 234.2737 773.2271 231.703 775.5743 234.9443 780.4922 246.5685 781.2746 250.0334 781.3864 251.4865 782.057 253.3866 783.7336 256.6279 785.0748 260.2046 785.0748 262.7754 784.8513 264.0048 784.4042 265.1226 783.9571 266.0167 783.2865 266.9109 782.6158 267.6933 781.7217 268.2521 780.9393 268.9228 779.7098 270.4876 779.1509 271.3817 778.9274 272.1641 778.7039 272.9465 778.3685 275.2937 778.4803 279.541 778.8156 280.6587 779.1509 281.7765 780.7157 283.453 783.0629 285.5767 798.9344 296.4185 799.8286 297.5362 800.9463 299.2128 801.7287 301.7835 801.7287 303.3483 801.3934 304.5778 800.7228 305.3602 799.9404 306.1426 798.9344 306.7014 795.6931 307.8191 793.793 308.9369 780.0451 318.8845 779.2627 319.6669 778.8156 320.5611 778.8156 321.6788 779.4862 332.5206 780.8275 334.5325 782.9512 337.1032 788.3162 341.9094 789.6574 344.033 790.4398 346.6037 792.0046 348.1685 795.9166 351.0746 797.4814 353.1982 798.3756 354.8748 798.5991 356.1043 798.9344 357.3338 799.2697 358.3397 799.9404 359.1221 800.8345 359.9045 803.8524 361.8046 804.8583 362.8106 805.5289 363.9283 805.4172 365.046 804.9701 366.0519 802.5111 369.4051 801.9523 370.411 802.064 371.0816 802.7347 371.6405 805.0818 370.9699 808.435 368.958 810.5586 368.0638 812.9058 367.6167 829.2244 366.2755 830.7892 366.8343 832.2422 367.7285 834.0306 370.0757 835.5954 372.9817 836.266 375.3289 837.4955 383.0411 837.9426 383.9353 838.6132 384.8295 839.5074 385.5001 845.6548 389.1886 847.1078 390.5298 848.1138 391.6475 848.4491 392.5417 849.1197 393.7712 849.7903 394.4418 851.8022 394.7771 854.9318 394.4418 871.3622 389.3003 875.7212 389.0768 884.7747 390.5298 881.9804 394.2183 881.0862 399.695 881.3098 412.7723 882.9864 419.0315 882.9864 420.3727 882.5393 421.8257 880.9745 423.7259 879.745 424.7318 878.6273 425.626 876.8389 426.6319 876.0565 427.3025 875.3859 428.9791 875.0506 431.7734 875.2741 442.8387 876.5036 450.4392 876.8389 451.5569 877.3978 452.5628 881.3098 458.822 881.7569 459.8279 882.204 460.9457 882.3157 461.9516 876.9507 493.024 877.0625 494.8123 877.7331 497.2713 877.3978 499.9538 871.921 517.949 871.0268 518.9549 869.015 519.5138 867.6737 519.5138 866.2207 519.1784 861.8616 517.6136 858.2849 515.49 854.82 512.9193 853.9259 512.5839 852.8081 516.8312 852.2493 520.0726 849.9021 553.8275 849.9021 553.9393 846.996 553.3804 844.2018 553.3804 841.0722 554.6099 815.3648 524.6552 814.2471 524.2081 813.1294 523.9846 811.7881 523.8728 800.3875 525.6612 799.3815 525.4376 798.5991 524.5435 798.4873 522.4198 798.7109 521.0785 799.158 519.6255 802.2876 513.9252 802.064 512.6957 801.0581 511.3545 798.2638 509.9014 796.699 508.5602 795.6931 506.9954 795.6931 500.6244 795.4695 499.3949 795.1342 498.0537 794.3518 496.8242 793.0106 495.2594 791.2222 495.0359 789.881 495.1476 785.969 497.2713 783.8453 498.1655 782.6158 498.5008 781.4981 498.5008 780.2686 498.389 779.2627 497.9419 778.3685 497.3831 776.692 496.0418 775.7978 495.4829 774.7919 495.0359 773.5624 494.9241 772.5564 495.0359 771.327 494.1417 769.5386 492.5769 765.8502 488.1061 763.7265 486.3177 761.8264 485.2 753.5553 484.3058 751.3199 483.747 748.1903 482.2939 747.2961 481.7351 746.5138 481.1762 743.6077 477.376 739.3604 470.558 737.125 465.9754 734.8895 458.2631 734.2189 454.91 733.9954 452.3393 734.1072 449.545 733.8836 448.2037 733.213 447.086 731.5364 446.5272 729.5245 447.3096 728.8539 447.1978 728.1833 446.7507 727.7362 445.4095 726.3949 437.4737 726.2832 434.6794 725.6125 428.8673 725.5008 427.6378 725.6125 426.2966 725.9479 425.1789 726.6185 424.3965 727.4009 424.1729 728.0715 424.3965 728.5186 424.8436 729.0774 425.5142 729.7481 426.073 730.5305 426.073 731.0893 425.4024 731.5364 424.2847 731.76 421.6022 731.6482 419.0315 731.76 417.6902 732.0953 416.5725 732.6541 415.5666 733.3248 414.7842 735.5602 412.6605 735.6719 412.5487 736.2308 411.431 736.3426 410.5369 736.119 408.8603 734.4425 403.16 734.1072 400.9245 734.1072 399.1362 735.0013 395.7831 735.0013 394.7771 734.4425 393.1006 729.4128 382.3705 729.0774 381.2528 728.8539 380.0233 728.8539 377.4526 728.9657 376.1113 729.301 374.9936 729.8598 374.0994 730.5305 373.3171 731.4246 372.7582 733.7718 371.9758 734.666 371.5287 735.3366 370.7463 736.0073 369.8521 736.3426 368.7344 736.5661 367.6167 736.3426 366.0519 735.7837 364.2636 734.5542 361.2458 733.7718 357.6691 733.7718 356.3278 733.9954 355.0983 736.0073 349.5098 736.0073 348.2803 734.666 347.1626 732.0953 346.3802 721.8123 345.0389 718.571 343.9212 714.8825 341.3505 712.0882 338.668 708.5116 333.0794 705.9408 329.8381 701.0229 329.5028 683.8101 331.5146 679.004 323.9142 666.0385 310.9487 664.9208 300.7776Z" />
  <path class="San Salvador" d="M356.5441 174.2526L359.5619 174.6997 361.2385 173.8055 366.7153 169.8935 369.9567 168.7758 378.6748 172.576 384.4869 172.6878 387.1694 167.3228 393.0933 172.0172 397.7877 173.1349 409.4119 167.7699 409.1883 172.0172 407.2882 177.1586 405.2763 181.2942 404.941 182.6354 405.0528 184.5355 406.3941 191.6889 406.7294 195.8244 406.6176 196.6068 406.6176 197.0539 406.3941 198.8422 405.8352 201.1894 405.4999 203.7602 405.1646 204.9897 404.8293 205.9956 403.7116 207.7839 402.9292 208.4546 402.1468 209.1252 401.4761 209.684 401.2526 210.3547 401.6997 214.0431 402.5938 217.2845 406.5058 225.5556 415.224 239.8623 417.7947 243.2154 418.2418 244.1096 417.4594 245.7861 416.677 246.6803 415.5593 247.4627 412.5415 248.804 411.7591 249.4746 412.9886 252.8277 424.1657 270.3758 427.9659 274.8466 430.8719 277.1938 433.5545 277.3056 434.7839 277.5292 435.9017 277.9762 436.684 278.6469 441.9373 286.4708 443.7256 288.2592 445.2904 289.3769 446.4081 289.7122 447.1905 290.9417 447.5259 292.8418 446.8552 302.1188 447.4141 304.1307 454.791 318.1021 456.8029 320.6728 457.5853 322.9083 458.4794 325.1437 458.8147 338.1091 443.6139 352.4158 430.9837 368.5109 428.8601 370.1875 427.6306 370.0757 426.2893 369.8521 419.5831 367.7285 418.3536 367.505 417.0123 367.505 415.8946 367.7285 414.8887 368.2873 414.3298 369.6286 414.1063 371.6405 414.8887 375.3289 416.1182 378.7938 419.3595 384.4942 420.1419 386.6178 419.9184 389.6356 419.0242 394.33 415.4475 405.0601 413.3239 409.6427 410.3061 412.9958 409.0766 413.7782 408.1824 417.3549 405.0528 416.0136 403.9351 415.6783 402.3703 415.4548 399.9113 415.7901 395.5523 417.2431 393.2051 417.802 391.8638 417.9138 390.6343 417.6902 389.7402 417.2431 389.0695 416.4607 386.7223 411.3193 380.0161 400.3657 379.7925 398.8009 379.9043 396.789 380.7985 392.9888 383.481 386.1707 383.7045 384.8295 382.9221 367.0579 383.1457 362.9223 383.8163 360.4634 384.5987 359.7927 385.2693 359.0103 385.4928 358.0044 385.0458 356.9985 381.8044 355.4337 380.9102 354.5395 380.7985 353.1982 381.8044 350.7393 383.1457 348.1685 383.3692 346.8273 382.9221 345.2625 380.1278 341.4623 378.3395 339.8975 377.5571 339.3386 371.5215 336.0972 370.6273 335.4266 369.8449 334.1971 369.1743 332.297 368.3919 328.9439 367.9448 327.4909 367.1624 326.4849 365.4858 325.2554 364.8152 324.473 364.2563 323.5789 363.8092 322.4612 363.4739 318.3256 363.921 314.0783 361.7974 311.284 360.4561 311.1723 359.3384 310.837 358.6678 309.9428 358.4442 308.2662 360.3443 302.9012 363.2504 297.4244 363.5857 296.3067 363.921 294.5184 364.3681 287.5886 365.1505 283.5648 366.4917 280.4352 367.3859 277.0821 368.1683 269.4816 368.7272 267.4697 369.5096 265.3461 370.8508 263.7813 371.6332 263.1107 372.6392 262.5518 374.7628 261.7694 375.657 261.2106 376.1041 260.2046 376.6629 257.7457 378.7866 233.6031 379.2337 232.2618 380.0161 231.4794 381.1338 231.1441 384.2634 231.2559 384.5987 230.9206 384.7105 230.4735 385.2693 228.0145 386.387 225.1085 386.2752 224.4378 385.6046 223.5437 383.3692 222.3142 381.8044 221.0847 380.4631 220.3023 379.3454 219.8552 378.116 219.6317 376.8865 219.4081 375.5452 219.4081 371.6332 219.7435 370.4037 219.6317 367.0506 218.6257 365.0387 217.6198 363.2504 216.5021 362.1327 214.9373 360.9032 212.5901 358.7795 207.6722 357.5501 205.4367 356.5441 203.9837 353.9734 201.9718 353.7498 200.407 353.8616 198.0598 356.097 188.7828 356.5441 174.2526Z" />
  <path class="San Vicente" d="M531.5778 304.5778L532.1366 292.1712 532.919 290.8299 534.0367 289.2651 536.7193 289.3769 539.1782 289.9358 543.5373 291.3888 546.4433 290.9417 550.4671 289.6004 563.5443 283.7883 566.3386 283.1177 569.3564 283.7883 571.8154 284.0119 573.2684 283.1177 574.6097 281.6647 576.7333 278.8704 578.2981 278.088 579.6394 277.9762 585.675 282.3353 587.6869 282.8942 590.7047 283.1177 604.1173 283.0059 606.7998 283.453 612.6119 283.7883 617.1945 284.6825 618.2004 285.1296 625.9127 290.8299 626.9186 291.3888 631.2777 292.9536 634.1837 294.6301 635.1897 295.0772 638.0957 295.8596 639.2134 296.4185 639.884 297.4244 640.3311 299.7716 640.6664 300.8893 641.2253 301.7835 642.0077 302.4541 643.5725 303.013 654.1908 304.3542 658.1028 305.3602 664.9208 300.7776 666.0385 310.9487 679.004 323.9142 683.8101 331.5146 657.4321 350.7393 655.0849 358.3397 648.8257 366.9461 640.4429 372.3111 631.1659 370.1875 619.0946 385.1648 618.5358 387.8473 611.6059 389.0768 609.2587 392.4299 608.2528 405.5072 604.6761 418.3608 585.5633 454.7982 583.7749 459.3809 582.769 464.8576 582.2101 478.2702 581.2042 481.1762 573.8273 488.3296 569.9153 494.1417 567.4563 498.8361 563.4326 502.0774 555.2733 503.3069 550.2436 505.207 547.114 509.4543 545.4374 515.6018 545.4374 516.4959 545.6609 516.6077 539.4018 513.7017 539.4018 513.5899 540.4077 500.6244 540.743 499.3949 541.0783 498.389 541.6372 497.2713 542.196 496.3771 542.8667 495.5947 544.5432 494.2535 546.4433 493.1358 549.4612 491.9063 553.3732 490.0062 554.2673 489.4473 555.0497 488.5531 555.7204 487.7707 556.2792 486.8766 556.391 484.4176 554.4909 466.7578 554.6026 465.4165 554.7144 464.0752 555.0497 462.9575 555.6086 462.0634 556.2792 461.281 558.8499 459.3809 559.4088 458.3749 559.7441 457.369 560.303 454.91 560.5265 453.5688 560.0794 451.7804 559.0735 449.545 556.391 445.9683 553.4849 443.174 549.7965 440.9386 547.2257 438.9267 544.5432 435.9089 543.8726 434.1206 543.3138 431.6616 542.7549 424.1729 542.7549 422.1611 544.5432 412.7723 544.5432 412.6605 544.5432 411.9899 544.8785 410.5369 545.2139 409.5309 545.4374 408.525 548.6788 399.695 549.1259 397.2361 549.2376 394.4418 549.1259 393.2123 548.7905 391.9828 538.3958 369.8521 537.2781 368.3991 534.0367 367.1696 532.1366 366.8343 530.3483 366.9461 520.4007 370.0757 519.0594 370.2992 517.7182 370.2992 516.3769 370.1875 515.5945 368.3991 515.1474 365.4931 515.5945 358.1162 515.4827 351.0746 512.3531 342.58 520.5124 334.5325 521.4066 333.0794 522.4125 331.0675 523.8656 325.0319 531.5778 304.5778Z" />
  <path class="Santa Ana" d="M167.092 236.1738L175.4748 207.2251 176.7043 199.5129 176.369 198.5069 175.4748 196.8304 175.363 196.7186 173.91 195.1538 172.1217 193.8125 170.6686 192.3595 169.998 191.3536 169.5509 190.3476 168.6568 186.771 168.2097 185.8768 167.4273 184.9826 165.9743 183.6414 158.3738 178.8352 154.7971 177.3822 152.1146 171.123 151.7793 167.7699 152.897 164.1932 170.8922 132.4502 179.275 123.2849 189.7815 115.1256 200.8469 109.9842 245.8906 99.1424 248.6849 96.4598 248.5732 89.7536 247.2319 87.9652 241.8669 85.2827 240.0785 83.4944 239.2961 80.7001 238.5138 74.1056 237.9549 72.0937 235.4959 67.3993 234.3782 65.7228 231.9193 63.4873 229.0132 62.1461 220.1833 61.0284 217.6125 54.881 220.0715 51.1925 224.3188 48.1747 227.0013 43.9274 225.7718 38.8977 222.754 34.6504 220.8539 29.7325 223.6482 22.9144 229.5721 18.4436 235.7195 19.0024 240.3021 23.585 241.5316 31.6326 247.2319 27.497 257.6266 14.9787 260.5327 13.7492 265.1153 11.7373 271.7098 12.6315 276.516 15.2022 281.2103 16.8788 287.8048 15.5375 297.4172 5.7017 301.6645 4.0251 302.2233 12.4079 304.347 9.0548 304.7941 8.0488 316.8653 16.8788 316.9771 16.9905 323.4598 17.9965 339.4431 32.9738 342.2374 36.1034 342.7963 36.8858 344.1375 40.1272 346.0376 43.3685 346.9318 44.2627 348.3848 45.4922 354.644 48.7336 355.5382 49.516 357.5501 52.1985 365.2623 57.1164 359.8972 72.7644 358.2207 81.4825 354.5322 85.618 338.8843 91.989 338.8843 100.5954 339.2196 105.4015 339.1078 107.0781 338.3254 109.09 330.1661 120.3789 328.7131 121.8319 327.8189 122.5025 326.9248 123.0614 325.807 123.3967 324.6893 123.732 323.3481 123.9556 319.1008 124.1791 317.9831 124.4026 316.8653 124.738 315.8594 125.185 314.9652 125.7439 314.1828 126.4145 309.2649 135.468 308.259 136.8092 307.4766 137.5916 306.4706 138.1505 305.4647 138.5976 297.5289 138.0387 289.4814 165.758 290.7109 175.1468 295.4053 179.3941 301.6645 180.6235 307.9237 180.6235 312.8416 179.2823 308.3707 203.2013 307.5883 209.3487 307.7001 210.69 307.0295 219.0728 306.5824 220.4141 305.6882 221.5318 303.5646 222.5377 301.9998 222.5377 300.5468 222.5377 299.429 222.6495 298.5349 223.0966 295.1817 228.5734 293.8405 229.4675 292.611 229.5793 291.6051 229.244 290.4873 229.1322 289.4814 229.4675 288.5872 230.0264 287.9166 230.9206 287.3578 233.2678 286.7989 244.892 287.246 252.6042 286.4636 261.8812 279.0867 282 277.0748 293.9595 257.0678 290.1593 251.8145 288.371 251.1439 287.4768 250.4733 286.5826 248.0143 280.3234 242.4257 275.0702 233.484 268.4757 229.4603 266.0167 226.666 264.7872 225.5483 265.0108 224.6541 265.6814 223.9835 266.4638 222.8658 268.2521 221.5245 271.3817 220.9657 273.7289 220.9657 277.6409 220.6304 278.6469 219.7362 279.6528 218.1714 280.4352 215.1536 281.1058 213.2535 280.6587 211.9122 280.2117 210.9063 279.4293 210.2356 278.6469 209.6768 277.6409 209.2297 276.2997 208.2238 274.8466 206.3237 272.8348 203.6411 272.3877 202.2999 271.4935 201.741 270.5993 201.9646 269.4816 202.4117 268.5875 203.1941 267.6933 204.7589 266.352 205.4295 265.6814 205.9883 264.6755 206.3237 263.446 206.4354 262.3283 205.9883 260.0928 204.0882 256.9633 201.5175 254.6161 200.1762 253.163 199.2821 251.9336 197.9408 248.804 196.7113 247.1274 189.8933 240.4211 187.4343 238.6328 185.5342 237.7386 184.193 237.7386 182.9635 237.8504 180.6163 238.521 176.8161 238.6328 167.092 236.1738Z" />
  <path class="Sonsonate" d="M68.6216 341.4623L69.6275 339.8975 76.222 329.391 79.3516 325.5908 80.5811 324.5848 81.587 323.9142 82.8165 323.3553 84.2695 322.9083 86.6167 322.4612 88.2933 322.4612 89.8581 322.5729 90.9758 323.02 91.9817 323.4671 93.6583 324.6966 94.5525 325.3672 100.0293 331.7382 103.0471 334.6442 103.9413 335.2031 106.512 335.7619 119.1421 336.5443 122.607 336.0972 124.7307 335.2031 127.0779 325.5908 127.8603 323.4671 133.2253 313.8548 133.5606 312.7371 133.8959 308.7133 134.5666 306.925 135.796 304.5778 138.9256 300.7776 140.1551 298.7657 140.714 297.0891 140.2669 294.6301 136.802 283.453 137.0255 281.6647 137.8079 279.3175 146.3025 266.2403 146.5261 264.7872 146.1908 263.7813 145.1848 261.7694 144.4024 259.8693 143.7318 257.2986 142.7259 249.251 142.8376 247.4627 143.2847 244.6684 144.1789 243.4389 145.2966 242.6565 150.4381 241.8741 159.6033 239.3034 167.092 236.1738 176.8161 238.6328 180.6163 238.521 182.9635 237.8504 184.193 237.7386 185.5342 237.7386 187.4343 238.6328 189.8933 240.4211 196.7113 247.1274 197.9408 248.804 199.2821 251.9336 200.1762 253.163 201.5175 254.6161 204.0882 256.9633 205.9883 260.0928 206.4354 262.3283 206.3237 263.446 205.9883 264.6755 205.4295 265.6814 204.7589 266.352 203.1941 267.6933 202.4117 268.5875 201.9646 269.4816 201.741 270.5993 202.2999 271.4935 203.6411 272.3877 206.3237 272.8348 208.2238 274.8466 209.2297 276.2997 209.6768 277.6409 210.2356 278.6469 210.9063 279.4293 211.9122 280.2117 213.2535 280.6587 215.1536 281.1058 218.1714 280.4352 219.7362 279.6528 220.6304 278.6469 220.9657 277.6409 220.9657 273.7289 221.5245 271.3817 222.8658 268.2521 223.9835 266.4638 224.6541 265.6814 225.5483 265.0108 226.666 264.7872 229.4603 266.0167 233.484 268.4757 242.4257 275.0702 248.0143 280.3234 250.4733 286.5826 251.1439 287.4768 251.8145 288.371 257.0678 290.1593 277.0748 293.9595 281.881 295.5243 282.8869 295.9714 283.7811 296.642 284.5635 297.3127 285.1223 298.2068 285.4576 299.3245 285.6812 300.4422 285.1223 302.1188 284.0046 303.7954 280.9868 306.4779 278.3043 308.378 272.1569 311.9547 269.8097 314.0783 264.8917 320.2257 263.2152 321.567 261.5386 322.2376 258.6326 322.5729 257.6266 322.7965 255.9501 323.8024 255.0559 324.5848 254.1617 326.1496 253.2675 328.4968 252.0381 333.6383 251.3674 338.668 251.9263 348.1685 251.8145 349.6216 250.6968 351.6334 248.5732 354.5395 239.4079 363.7047 238.6255 364.2636 237.7314 365.1578 236.7254 366.499 235.8312 368.6227 235.0488 372.1993 234.49 377.4526 233.2605 379.1292 231.4722 381.2528 220.8539 390.6416 218.6185 394.2183 214.1476 404.3894 213.0299 407.1837 210.1239 406.5131 183.5223 397.7949 169.4392 400.701 129.6486 401.1481 123.2777 396.789 119.0304 380.9175 117.4656 370.9699 112.2123 366.6108 103.4942 361.2458 69.5157 341.9094 68.6216 341.4623Z" />
  <path class="Usulután" d="M683.8101 331.5146L701.0229 329.5028 705.9408 329.8381 708.5116 333.0794 712.0882 338.668 714.8825 341.3505 718.571 343.9212 721.8123 345.0389 732.0953 346.3802 734.666 347.1626 736.0073 348.2803 736.0073 349.5098 733.9954 355.0983 733.7718 356.3278 733.7718 357.6691 734.5542 361.2458 735.7837 364.2636 736.3426 366.0519 736.5661 367.6167 736.3426 368.7344 736.0073 369.8521 735.3366 370.7463 734.666 371.5287 733.7718 371.9758 731.4246 372.7582 730.5305 373.3171 729.8598 374.0994 729.301 374.9936 728.9657 376.1113 728.8539 377.4526 728.8539 380.0233 729.0774 381.2528 729.4128 382.3705 734.4425 393.1006 735.0013 394.7771 735.0013 395.7831 734.1072 399.1362 734.1072 400.9245 734.4425 403.16 736.119 408.8603 736.3426 410.5369 736.2308 411.431 735.6719 412.5487 735.5602 412.6605 733.3248 414.7842 732.6541 415.5666 732.0953 416.5725 731.76 417.6902 731.6482 419.0315 731.76 421.6022 731.5364 424.2847 731.0893 425.4024 730.5305 426.073 729.7481 426.073 729.0774 425.5142 728.5186 424.8436 728.0715 424.3965 727.4009 424.1729 726.6185 424.3965 725.9479 425.1789 725.6125 426.2966 725.5008 427.6378 725.6125 428.8673 726.2832 434.6794 726.3949 437.4737 727.7362 445.4095 728.1833 446.7507 728.8539 447.1978 729.5245 447.3096 731.5364 446.5272 733.213 447.086 733.8836 448.2037 734.1072 449.545 733.9954 452.3393 734.2189 454.91 734.8895 458.2631 737.125 465.9754 739.3604 470.558 743.6077 477.376 746.5138 481.1762 747.2961 481.7351 748.1903 482.2939 751.3199 483.747 753.5553 484.3058 761.8264 485.2 763.7265 486.3177 765.8502 488.1061 769.5386 492.5769 771.327 494.1417 772.5564 495.0359 773.5624 494.9241 774.7919 495.0359 775.7978 495.4829 776.692 496.0418 778.3685 497.3831 779.2627 497.9419 780.2686 498.389 781.4981 498.5008 782.6158 498.5008 783.8453 498.1655 785.969 497.2713 789.881 495.1476 791.2222 495.0359 793.0106 495.2594 794.3518 496.8242 795.1342 498.0537 795.4695 499.3949 795.6931 500.6244 795.6931 506.9954 796.699 508.5602 798.2638 509.9014 801.0581 511.3545 802.064 512.6957 802.2876 513.9252 799.158 519.6255 798.7109 521.0785 798.4873 522.4198 798.5991 524.5435 799.3815 525.4376 800.3875 525.6612 811.7881 523.8728 813.1294 523.9846 814.2471 524.2081 815.3648 524.6552 841.0722 554.6099 837.1602 556.1747 800.9463 559.1925 762.0499 553.2686 751.9905 556.51 746.6255 554.7217 740.4781 553.3804 740.4781 550.6979 749.9787 550.0273 750.6493 543.4328 745.6196 535.1617 737.9074 529.7967 739.5839 533.1498 744.6136 540.1914 746.5138 544.5505 731.3129 543.9916 723.936 544.774 717.565 547.4565 721.7006 549.2449 724.9419 548.686 728.8539 547.5683 734.7778 547.4565 734.7778 550.6979 725.0537 554.7217 714.2119 554.3864 705.829 549.2449 703.2583 538.6266 707.3938 540.5267 708.9586 541.5327 714.7707 535.7206 714.7707 533.0381 707.5056 529.7967 699.6816 518.6196 694.4284 515.3782 695.7696 521.5256 698.2286 526.6671 699.4581 531.2497 697.558 535.7206 691.4106 532.1439 673.6389 527.673 666.0385 523.6493 659.1087 511.2427 655.8673 509.2308 650.9494 508.7837 637.0898 505.9894 630.9424 505.9894 613.9531 509.2308 590.2576 509.7897 585.0044 512.1369 587.9105 514.3723 590.9283 516.0488 594.0579 516.6077 596.7404 515.3782 608.5881 518.0607 642.343 514.484 646.0315 515.0429 651.5083 518.0607 654.4143 520.7432 659.6675 527.1142 663.1325 529.7967 663.1325 533.0381 655.3085 531.6968 649.6081 530.5791 637.0898 526.8906 637.0898 529.7967 671.5153 536.8383 689.5105 542.7622 697.558 550.6979 694.5402 555.8394 687.0515 554.6099 678.6686 550.1391 673.1919 546.0035 667.0444 542.8739 558.6264 522.6433 545.6609 516.6077 545.4374 516.4959 545.4374 515.6018 547.114 509.4543 550.2436 505.207 555.2733 503.3069 563.4326 502.0774 567.4563 498.8361 569.9153 494.1417 573.8273 488.3296 581.2042 481.1762 582.2101 478.2702 582.769 464.8576 583.7749 459.3809 585.5633 454.7982 604.6761 418.3608 608.2528 405.5072 609.2587 392.4299 611.6059 389.0768 618.5358 387.8473 619.0946 385.1648 631.1659 370.1875 640.4429 372.3111 648.8257 366.9461 655.0849 358.3397 657.4321 350.7393 683.8101 331.5146Z" />
</svg>