<?xml version="1.0" encoding="utf-8"?>
<svg xmlns="http://www.w3.org/2000/svg" viewBox="0 0 795 1024" style="stroke-width:0.25px;stroke-linejoin:round;stroke:#444;fill:#ddd" fill-rule="evenodd">
  <path class="Changhua" d="M466.5276 489.9811L471.222 491.4341 474.4634 494.2284 476.587 499.3699 477.3694 505.5173 481.0579 509.8763 490.5584 512.6706 494.1351 515.5767 496.7058 519.6004 498.2706 522.8418 498.2706 525.9714 499.2766 528.7657 502.7415 529.3245 507.1006 532.2306 507.2123 533.3483 507.2123 536.2543 503.7474 537.4838 502.7415 539.831 503.1886 543.0724 501.6238 546.7608 500.2825 551.1199 500.1707 555.7025 499.2766 560.9558 498.4942 571.7976 500.1707 576.8273 503.0768 579.5098 506.2064 580.6275 510.789 582.9747 510.0066 585.769 506.877 586.9985 504.8651 588.8986 502.965 590.1281 502.1826 590.6869 492.4585 588.7868 487.7641 588.8986 478.04 583.9806 462.1685 582.1923 452.7798 578.6156 447.4147 577.1626 441.3791 576.8273 423.6075 578.9509 417.4601 575.3743 418.1307 574.2565 419.3602 568.5562 420.3661 566.209 426.0664 560.7322 427.743 558.385 429.8667 552.1259 433.2198 545.8667 437.9142 532.9012 440.0378 529.2128 442.4968 526.7538 444.5087 525.4125 446.1853 524.5184 447.5265 523.4007 447.9736 520.9417 448.9795 518.7063 453.1151 515.4649 454.0092 513.0059 454.4563 504.9584 455.2387 502.723 457.3624 500.5993 466.5276 489.9811Z" />
  <path class="Chiayi" d="M392.088 649.0315L392.8704 649.0315 392.9822 648.9197 401.4768 648.0255 408.1831 651.714 413.101 651.8257 416.2306 649.255 417.6836 645.343 419.2484 642.884 423.6075 642.2134 429.196 637.6308 432.7727 635.7307 435.7905 632.7129 448.9795 625.1124 454.7916 623.5476 464.9628 621.6475 470.4396 621.3122 474.6869 625.1124 478.7107 629.8068 488.8818 633.4953 491.8997 633.0482 498.6059 631.1481 502.4062 633.8306 504.3063 637.0719 509.4477 636.5131 518.8365 634.613 521.9661 633.607 521.9661 630.8128 522.3014 626.789 522.7485 626.789 527.6664 627.3479 533.0315 629.4715 536.3846 630.3657 540.5201 632.7129 540.1848 636.9602 537.8376 641.0957 538.8436 644.8959 540.9672 650.1492 541.3025 654.8436 542.1967 657.9732 548.3441 659.0909 568.91 659.2026 569.5806 659.4262 554.7151 667.0266 547.897 672.3916 545.1028 677.8684 541.6378 682.004 535.4904 685.4689 529.0077 690.3868 525.431 694.6341 515.4834 700.558 510.789 701.0051 505.3122 700.4462 502.4062 703.3523 502.2944 707.2642 503.4121 710.9527 504.1945 716.3177 497.4882 715.5353 494.4704 714.6411 490.4466 715.2 486.1993 717.1001 483.1815 717.1001 479.4931 714.3058 478.2636 710.6174 479.6048 699.105 478.8224 693.0693 470.8867 684.91 469.4337 680.8862 467.7571 677.4213 464.5157 675.5212 458.8154 673.6211 451.9974 673.9564 439.7025 676.3036 433.4433 679.0979 428.5254 682.7864 424.7252 686.5866 419.3602 690.7221 414.7776 693.6282 412.7657 697.6519 407.736 699.8873 401.8121 698.4343 394.7705 697.3166 390.5232 695.7518 393.6528 695.5283 396.2235 694.4106 397.3413 694.7459 396.6706 692.1751 394.8823 693.5164 393.4293 693.0693 391.4174 692.9575 391.4174 690.3868 393.4293 685.8042 396.3353 685.5806 400.6944 685.5806 397.7883 677.1978 394.3234 670.7151 395.8882 667.809 395.8882 666.2442 393.4293 665.0147 393.7646 663.6735 395.2176 661.9969 395.8882 659.8733 399.2414 655.626 392.3116 656.073 392.088 649.0315ZM462.1685 666.356L467.6453 664.1206 471.222 663.6735 473.681 661.8851 471.5573 656.4084 469.6572 653.167 466.3041 651.3787 461.8332 649.7021 455.4623 650.2609 447.9736 651.6022 444.9558 654.8436 445.6264 659.4262 450.5443 661.3263 456.2447 665.0147 462.1685 666.356ZM370.4044 664.903L381.6933 653.5023 390.1879 642.6605 392.1998 642.1017 384.9347 653.8376 381.358 657.4143 379.0108 660.3204 375.993 663.3382 373.534 665.0147 369.9573 667.9208 367.4983 669.262 370.4044 664.903Z" />
  <path class="Chiayi City" d="M462.1685 666.356L456.2447 665.0147 450.5443 661.3263 445.6264 659.4262 444.9558 654.8436 447.9736 651.6022 455.4623 650.2609 461.8332 649.7021 466.3041 651.3787 469.6572 653.167 471.5573 656.4084 473.681 661.8851 471.222 663.6735 467.6453 664.1206 462.1685 666.356Z" />
  <path class="Hsinchu" d="M571.7043 316.5122L574.275 317.4064 585.2286 316.624 588.9171 319.0829 592.1584 326.1245 596.1822 327.6893 599.6471 328.6953 603.0002 330.2601 608.477 332.0484 611.3831 335.4015 610.4889 340.0959 613.1714 343.1138 618.5364 344.7903 621.8895 347.2493 624.3485 349.7083 627.4781 350.2671 630.6077 350.0436 633.2902 352.8378 635.4139 356.5263 638.8788 358.3146 641.673 360.4383 641.8966 364.462 643.2378 370.2741 641.673 376.5333 637.9846 381.7866 638.4317 385.2515 642.5672 388.4928 647.5969 391.3989 652.0678 392.1813 655.3091 394.5285 661.1212 397.8816 665.0332 399.5582 663.1331 404.8114 662.0154 408.6117 662.4625 412.1883 659.4447 416.8827 648.1558 428.2834 644.6909 436.6662 642.4554 436.1074 633.8491 436.8898 633.2902 437.3369 632.7314 433.4249 629.0429 427.1657 626.4722 424.4832 625.3545 421.0183 621.3307 417.7769 611.1595 420.3476 607.3593 419.9006 601.8825 420.3476 595.7351 422.0242 592.382 421.2418 593.1644 417.1063 594.1703 413.4178 593.3879 410.1765 592.6055 407.8293 593.3879 405.2585 593.9468 402.576 594.2821 399.4464 593.6114 395.1991 590.5936 392.5166 580.7578 387.8222 575.9516 384.2455 572.822 380.6689 569.2453 371.7272 571.2572 369.2682 573.0455 364.6856 575.8398 361.2207 580.5342 359.3206 584.6697 358.6499 586.5699 357.5322 587.3523 354.5144 585.8992 351.6084 582.7696 348.4788 578.4106 346.2433 566.2275 342.3314 559.5212 339.4253 559.633 339.3135 560.8625 337.5252 561.3096 334.5074 561.9802 332.1602 563.6568 329.813 565.7804 328.0246 567.7923 327.354 567.6805 326.3481 568.2394 324.0009 570.0277 319.0829 571.7043 316.5122Z" />
  <path class="Hsinchu City" d="M559.5212 339.4253L566.2275 342.3314 578.4106 346.2433 582.7696 348.4788 585.8992 351.6084 587.3523 354.5144 586.5699 357.5322 584.6697 358.6499 580.5342 359.3206 575.8398 361.2207 573.0455 364.6856 571.2572 369.2682 569.2453 371.7272 569.0218 371.9507 565.3333 372.8449 561.8684 371.3919 559.633 368.374 556.2799 366.2504 550.6913 364.1267 551.5855 360.7736 556.0563 351.6084 557.8447 349.2612 558.4035 347.9199 558.4035 346.5787 557.8447 345.1256 556.9505 343.3373 558.18 340.8783 559.5212 339.4253Z" />
  <path class="Hualien" d="M650.3912 483.3866L652.6266 481.71 653.6326 480.1452 656.4268 478.6922 658.8858 475.6744 659.8917 471.5388 662.3507 467.5151 668.3864 463.7149 670.2865 458.6851 670.6218 455.332 674.422 451.42 676.4339 453.0966 681.6871 455.5556 693.7584 458.6851 700.4647 461.2559 705.7179 461.2559 709.6299 457.5674 711.53 452.7613 714.5479 452.0906 729.5252 460.9206 738.4669 462.3736 739.3611 462.3736 739.9199 462.9325 740.5905 464.1619 741.1494 465.3914 741.3729 466.1738 740.2552 468.0739 735.5608 472.6565 730.4194 479.6981 726.7309 482.716 725.6132 484.2807 726.1721 485.9573 725.5014 487.1868 720.0246 491.2106 718.0128 493.2224 715.7773 498.0286 713.5419 507.8645 707.5063 516.5826 706.2768 520.1593 706.5003 523.9595 707.9534 528.2068 709.1828 529.9952 710.1888 530.7776 710.8594 531.8953 710.9712 534.466 710.077 537.4838 707.0592 542.0664 706.5003 544.8607 706.165 550.0022 703.5943 563.0794 698.4528 576.9391 691.9701 609.1292 688.1699 617.0649 679.2282 668.7032 676.4339 667.809 667.7157 672.0563 664.5861 676.4154 666.0392 682.004 666.4862 687.4807 663.5802 693.0693 660.7859 697.2048 658.6623 702.5699 656.6504 709.3879 653.7443 715.5353 649.8323 726.2653 647.3734 731.0715 647.3734 736.5483 646.7028 741.4662 641.4495 744.484 634.855 743.5899 625.3545 735.7659 617.9776 722.9122 613.3949 721.6827 608.3652 720.9003 604.3415 717.1001 599.4235 714.7529 593.1644 712.5175 589.0288 705.923 588.1347 699.9991 587.9111 697.9872 585.6757 691.8398 580.5342 687.7043 576.0634 684.7982 575.281 681.5569 576.3987 678.9861 580.8695 676.9743 583.3285 673.0623 581.7637 668.3679 586.5699 665.5736 589.0288 663.2264 587.6876 658.3085 588.9171 656.1848 590.1465 652.8317 594.2821 649.8139 600.3177 648.4726 606.2416 648.2491 610.4889 644.4488 611.6066 637.519 614.7362 633.3835 620.8836 631.1481 624.5721 628.5773 625.8015 624.5536 628.3723 614.3824 629.3782 607.6761 628.5958 601.864 627.7017 597.505 625.1309 594.2636 623.4543 591.0222 628.037 583.4218 628.1487 580.404 630.1606 574.7036 633.2902 567.8856 635.7492 560.844 636.9787 552.7965 637.5375 546.7608 636.0845 543.1842 634.4079 540.5017 636.308 534.3542 640.4436 525.7479 646.9263 517.2532 647.0381 514.2354 645.9204 510.547 641.673 507.8645 639.4376 505.4055 639.2141 497.358 642.2319 495.0108 647.4851 493.2224 651.7325 491.3223 651.5089 488.4163 650.3912 483.3866Z" />
  <path class="Kaohsiung City" d="M504.1945 716.3177L503.4121 710.9527 502.2944 707.2642 502.4062 703.3523 505.3122 700.4462 510.789 701.0051 515.4834 700.558 525.431 694.6341 529.0077 690.3868 535.4904 685.4689 541.6378 682.004 545.1028 677.8684 547.897 672.3916 554.7151 667.0266 569.5806 659.4262 573.1573 660.2086 577.8517 661.9969 581.2048 666.6913 581.7637 668.3679 583.3285 673.0623 580.8695 676.9743 576.3987 678.9861 575.281 681.5569 576.0634 684.7982 580.5342 687.7043 585.6757 691.8398 587.9111 697.9872 588.1347 699.9991 575.6163 703.1287 570.363 706.3701 567.1217 709.4997 560.8625 713.6352 560.1919 718.2178 561.9802 723.024 559.8565 726.936 553.9327 730.1773 553.1503 735.7659 554.9386 743.7017 552.4796 754.3199 552.4796 763.3734 549.0147 768.0678 542.0849 773.9916 540.1848 781.8156 541.3025 788.4101 543.7615 792.0986 548.6794 797.24 549.6854 801.152 546.5558 801.5991 542.3085 800.8167 538.8436 801.0403 532.0255 806.4053 527.2194 801.9344 521.1837 794.7811 515.3716 796.2341 510.0066 801.0403 499.5001 795.6752 491.8997 799.2519 486.7582 804.9523 480.3872 807.2994 465.9688 806.4053 464.5157 810.3173 463.5098 816.1294 461.3861 822.5003 461.8332 828.0889 461.7215 835.8011 457.2506 852.9021 457.0271 858.6024 459.2625 864.6381 459.5978 871.2326 453.1151 887.7747 450.9914 886.8805 449.7619 886.8805 448.1971 887.4394 446.5206 887.5512 436.0141 879.2801 426.1782 865.4205 436.4612 877.8271 435.3435 872.015 433.5551 868.7736 432.2139 866.2029 427.9666 861.2849 420.7014 854.5787 417.9072 851.1138 416.5659 847.3135 418.3542 843.6251 419.2484 840.2719 418.0189 835.6893 415.8953 831.1067 411.8715 824.9593 408.1831 816.6882 407.4007 812.9998 407.4007 810.6526 408.6301 807.7465 408.9655 805.8464 408.5184 804.8405 407.4007 804.0581 406.3947 803.0521 405.9476 801.152 403.6004 797.24 403.0416 795.6752 401.2532 784.6099 406.2829 781.7039 406.3947 782.0392 409.5243 788.969 413.4363 790.9809 426.0664 792.7692 432.6609 792.0986 439.479 792.881 442.8321 791.6515 445.7382 789.6396 450.8796 787.516 456.0211 783.9393 457.9212 779.4684 460.2684 775.3329 464.5157 769.6326 469.5454 764.4911 474.6869 760.132 480.7226 754.2081 485.9758 747.5019 494.0233 733.8658 502.4062 721.6827 504.1945 716.3177Z" />
  <path class="Keelung City" d="M738.914 271.8037L738.6904 281.4161 738.8022 283.875 741.82 287.0046 741.4847 289.0165 739.4728 290.4695 736.2315 291.699 732.0959 291.1402 723.6013 287.6752 721.1424 285.8869 718.2363 283.0926 715.8891 280.2983 714.5479 277.5041 712.2007 274.4862 711.7536 272.1391 714.3243 270.4625 720.1364 267.8917 723.6013 265.5446 724.8308 266.327 725.3897 267.2211 726.7309 268.4506 729.8605 269.6801 738.914 271.8037Z" />
  <path class="Kinmen" d="M39.6735 426.495L39.6735 426.6068 38.444 426.1597 38.1087 425.7127 38.3322 425.2656 38.7793 424.3714 37.3263 423.3655 37.1028 423.0301 36.991 422.9184 34.1967 420.7947 32.1848 418.6711 29.167 419.7888 27.714 421.5771 27.9375 422.3595 27.8257 423.0301 27.4904 423.2537 27.1551 423.1419 26.708 425.8244 21.1195 432.4189 8.3776 427.8363 8.6011 428.954 8.3776 430.0717 8.0422 430.1835 9.2717 431.413 8.8246 440.5782 5.1362 443.4843 7.9305 446.5021 6.3657 445.8315 4.242 445.6079 2.3419 444.8255 1.336 443.149 1.6713 442.4783 3.4596 440.3547 4.0185 439.237 4.1303 437.6722 4.1303 435.6603 3.4596 432.1954 2.1184 428.8422 1.8948 427.0539 3.1243 426.3833 9.2717 423.3655 17.3193 428.6187 22.9078 427.9481 23.802 420.9065 25.7021 416.5474 31.626 415.3179 37.4381 420.5712 39.6735 426.495ZM39.897 438.231L40.2323 435.8838 40.5677 435.8838 40.3441 437.7839 39.897 438.231ZM40.903 432.6425L39.7853 429.2893 39.897 428.5069 40.2323 428.0598 41.1265 430.7424 40.903 432.6425Z" />
  <path class="Matsu Islands" d="M363.8099 6.3472L363.9217 7.0178 363.5864 7.0178 362.804 7.1296 362.2451 7.2414 362.1333 6.2354 362.4686 5.7883 362.5804 5.6766 362.4686 5.3413 362.3569 5.3413 362.2451 5.2295 362.6922 4.6706 362.9157 4.5589 363.3628 4.3353 363.5864 4 364.257 5.453 363.5864 6.2354 363.8099 6.3472ZM349.9503 31.4957L349.8385 31.1604 349.615 31.7193 349.8385 32.5017 350.1738 32.837 350.5091 32.9487 350.9562 33.0605 351.2915 33.0605 351.8504 33.1723 352.1857 33.3958 352.2975 33.9547 352.521 33.6194 353.1916 33.5076 353.6387 33.1723 353.974 32.9487 353.974 32.3899 354.0858 31.831 354.7564 31.0486 354.8682 31.0486 355.0917 30.9369 355.7624 31.0486 356.3212 31.0486 356.6565 31.1604 356.7683 31.1604 357.3272 31.1604 358.1096 31.2722 359.0037 30.7133 359.0037 31.0486 358.6684 31.3839 358.4449 31.831 358.1096 31.831 357.886 32.0546 357.6625 32.5017 357.6625 33.0605 357.5507 33.3958 357.5507 33.5076 357.2154 33.9547 356.8801 34.5135 356.7683 34.6253 356.433 34.8488 356.2095 34.4018 355.9859 34.4018 355.2035 34.5135 354.98 34.8488 354.5329 35.5195 353.4152 36.6372 353.1916 36.6372 352.7446 36.3019 351.9622 36.1901 351.2915 36.3019 351.068 37.6431 350.8444 37.7549 350.062 37.8667 349.9503 37.5314 349.5032 36.9725 349.2796 36.749 348.7208 36.8607 348.0502 36.9725 347.0442 36.6372 346.7089 35.5195 347.0442 34.8488 347.4913 34.5135 347.9384 34.0664 348.2737 33.284 347.4913 32.7252 347.9384 32.1663 348.3855 32.1663 348.609 32.1663 348.7208 31.6075 348.1619 30.7133 348.1619 29.8191 348.4972 29.3721 348.9443 29.3721 349.2796 29.8191 349.615 29.9309 349.7267 29.9309 349.8385 29.9309 350.3974 30.2662 350.062 31.2722 349.9503 31.4957ZM364.0334 19.3127L363.5864 19.3127 362.9157 19.3127 361.6862 18.9773 361.2392 19.7597 360.7921 19.8715 360.5685 20.095 360.2332 20.5421 360.2332 21.3245 360.4568 22.1069 360.4568 22.7776 360.2332 23.7835 360.345 24.2306 360.6803 24.3424 360.7921 24.6777 360.2332 24.9012 359.2273 24.6777 358.6684 24.9012 358.6684 23.7835 358.7802 22.1069 359.1155 20.5421 359.4508 19.9833 359.2273 19.5362 359.2273 18.8656 359.3391 18.642 360.5685 18.5303 361.1274 17.8596 361.6862 17.6361 362.3569 17.3008 363.4746 16.2948 363.8099 15.1771 364.3688 14.8418 365.0394 14.73 365.4865 14.3947 366.1571 14.5065 366.2689 15.0653 366.6042 15.5124 366.716 15.5124 367.0513 15.5124 367.0513 16.5184 367.0513 17.5243 367.8337 16.7419 368.0572 16.7419 368.7278 16.7419 368.8396 16.8537 368.8396 17.189 368.8396 18.1949 368.0572 18.4185 368.169 18.9773 368.5043 19.2009 368.5043 19.5362 368.5043 20.3186 367.9454 19.5362 367.7219 18.7538 367.163 17.9714 366.3806 17.9714 365.8218 17.9714 365.4865 18.1949 365.0394 18.5303 364.4805 18.642 364.0334 19.3127ZM366.3806 13.0535L365.9336 13.277 365.5982 13.277 364.8158 13.277 364.9276 12.4946 365.71 12.2711 365.8218 11.824 366.6042 11.7122 367.3866 11.4887 366.3806 13.0535Z" />
  <path class="Miaoli" d="M569.2453 371.7272L572.822 380.6689 575.9516 384.2455 580.7578 387.8222 590.5936 392.5166 593.6114 395.1991 594.2821 399.4464 593.9468 402.576 593.3879 405.2585 592.6055 407.8293 593.3879 410.1765 594.1703 413.4178 593.1644 417.1063 592.382 421.2418 595.7351 422.0242 601.8825 420.3476 607.3593 419.9006 611.1595 420.3476 621.3307 417.7769 625.3545 421.0183 626.4722 424.4832 629.0429 427.1657 632.7314 433.4249 633.2902 437.3369 630.2724 439.4605 628.8194 443.9314 624.9074 445.6079 620.5483 445.4961 617.1952 447.9551 613.5067 451.42 608.8123 454.1025 599.4235 461.4794 593.9468 463.7149 586.7934 467.6268 582.4343 465.8385 578.4106 461.3677 573.4926 459.4675 565.5569 458.7969 561.086 461.4794 560.4154 467.4033 556.2799 469.6387 546.444 470.1976 537.0552 464.8326 531.802 463.8266 525.8781 460.9206 513.695 451.9789 508.6653 447.6198 504.8651 443.596 497.4882 432.0836 503.3003 425.6009 504.7534 422.3595 505.5358 416.9945 507.2123 412.5237 512.0185 404.1408 513.3597 399.1111 514.5892 396.8757 519.9542 395.3109 521.519 393.6343 522.4132 391.5107 523.5309 389.4988 526.884 385.9221 530.6843 383.2396 535.1551 382.0101 540.9672 383.1278 540.1848 378.7688 542.3085 375.7509 545.3263 372.7331 546.7793 368.0387 547.4499 366.5857 550.356 365.1327 550.6913 364.1267 556.2799 366.2504 559.633 368.374 561.8684 371.3919 565.3333 372.8449 569.0218 371.9507 569.2453 371.7272Z" />
  <path class="Nantou" d="M507.2123 533.3483L510.5655 533.4601 525.0957 535.4719 528.4488 534.9131 532.4726 531.1129 538.5083 519.4887 541.5261 512.6706 546.6675 510.2117 554.8268 511.4411 559.633 511.2176 564.3274 505.0702 566.7864 503.5054 573.9397 508.8704 576.734 508.088 578.8576 503.7289 582.6579 500.5993 588.0229 500.7111 592.0466 499.1463 598.4176 492.9989 602.4414 490.6517 606.018 489.9811 613.1714 486.2926 618.0893 486.0691 623.119 485.2867 632.0607 481.71 635.8609 481.4865 639.6612 482.3806 650.3912 483.3866 651.5089 488.4163 651.7325 491.3223 647.4851 493.2224 642.2319 495.0108 639.2141 497.358 639.4376 505.4055 641.673 507.8645 645.9204 510.547 647.0381 514.2354 646.9263 517.2532 640.4436 525.7479 636.308 534.3542 634.4079 540.5017 636.0845 543.1842 637.5375 546.7608 636.9787 552.7965 635.7492 560.844 633.2902 567.8856 630.1606 574.7036 628.1487 580.404 628.037 583.4218 623.4543 591.0222 625.1309 594.2636 627.7017 597.505 628.5958 601.864 629.3782 607.6761 628.3723 614.3824 625.8015 624.5536 624.5721 628.5773 620.8836 631.1481 614.7362 633.3835 611.6066 637.519 610.4889 644.4488 606.2416 648.2491 600.3177 648.4726 594.2821 649.8139 590.1465 652.8317 588.9171 656.1848 587.6876 658.3085 589.0288 663.2264 586.5699 665.5736 581.7637 668.3679 581.2048 666.6913 577.8517 661.9969 573.1573 660.2086 569.5806 659.4262 568.91 659.2026 548.3441 659.0909 542.1967 657.9732 541.3025 654.8436 540.9672 650.1492 538.8436 644.8959 537.8376 641.0957 540.1848 636.9602 540.5201 632.7129 536.3846 630.3657 533.0315 629.4715 527.6664 627.3479 522.7485 626.789 520.6249 623.9947 513.9186 624.6653 508.4418 626.3419 503.7474 624.33 500.6178 620.5298 501.4002 615.8354 502.8532 611.6999 502.0708 605.5525 502.8532 599.7404 504.5298 595.9402 502.965 590.1281 504.8651 588.8986 506.877 586.9985 510.0066 585.769 510.789 582.9747 506.2064 580.6275 503.0768 579.5098 500.1707 576.8273 498.4942 571.7976 499.2766 560.9558 500.1707 555.7025 500.2825 551.1199 501.6238 546.7608 503.1886 543.0724 502.7415 539.831 503.7474 537.4838 507.2123 536.2543 507.2123 533.3483Z" />
  <path class="New Taipei City" d="M680.0106 379.6629L677.9987 375.1921 670.8453 368.4858 669.7276 363.9032 669.057 359.7677 671.6277 356.7498 672.7454 352.5025 666.0392 342.5549 661.9036 340.9901 655.9798 341.3254 651.8442 338.9782 652.9619 333.6132 652.0678 329.4777 647.8205 325.3421 646.9263 321.2066 647.8205 316.624 647.5969 311.5943 650.6147 308.3529 661.1212 305.2233 663.8037 302.429 664.5861 299.0759 664.2508 295.8345 660.1153 289.7989 656.6504 288.0106 653.409 287.2282 650.8383 284.881 647.0381 282.422 641.8966 279.963 638.5435 276.2746 647.5969 274.598 651.3971 273.145 656.4268 269.0095 657.8799 268.2271 659.6682 267.8917 662.1272 267.8917 665.0332 268.7859 666.4862 270.9096 667.4922 273.145 668.7217 274.3745 671.516 273.2568 668.6099 268.6741 663.9155 263.9798 661.4565 262.415 662.2389 260.2913 663.692 259.0618 665.145 258.2794 665.8156 257.6088 667.4922 253.3615 670.0629 248.6671 675.3162 243.8609 683.1402 239.949 691.9701 237.9371 700.6882 238.943 704.2649 241.7373 712.4242 253.0262 715.2185 259.0618 716.2244 258.7265 718.3481 258.0559 720.9188 257.8323 722.5954 258.2794 722.4836 259.0618 721.7012 260.0678 720.9188 261.5208 720.9188 263.1974 721.813 264.2033 723.6013 265.5446 720.1364 267.8917 714.3243 270.4625 711.7536 272.1391 712.2007 274.4862 714.5479 277.5041 715.8891 280.2983 718.2363 283.0926 721.1424 285.8869 723.6013 287.6752 732.0959 291.1402 736.2315 291.699 739.4728 290.4695 741.4847 289.0165 741.82 287.0046 738.8022 283.875 738.6904 281.4161 738.914 271.8037 766.745 278.6218 769.4275 280.2983 768.0862 283.2044 767.7509 285.5516 768.3098 289.7989 770.2099 296.7287 772.3336 300.0818 774.1219 300.8642 779.7105 299.9701 782.6165 300.3054 785.9696 301.1996 788.9875 302.6526 790.664 304.7762 783.6224 308.2411 782.9518 307.347 780.2693 305.7822 775.4631 306.7881 768.7569 310.3648 765.8508 312.3767 756.7974 314.165 755.6796 316.624 757.6915 319.4183 756.3503 322.5479 752.6618 324.895 749.8675 325.901 746.8497 327.4658 744.279 330.7072 741.7083 334.8427 737.6845 337.7487 732.6548 339.2018 721.813 345.7963 711.3065 350.0436 708.2887 351.8319 704.4884 355.0733 702.9237 359.097 703.0354 362.4502 703.8178 365.0209 704.1531 366.5857 701.0235 368.8211 695.6585 371.3919 691.6348 374.1861 688.6169 376.8686 684.705 378.3217 680.0106 379.6629ZM705.3826 312.0414L708.7358 310.7001 714.8832 302.8761 716.448 299.523 713.4301 296.9523 709.7417 294.8286 709.6299 290.8048 710.8594 285.4398 709.6299 281.8631 706.5003 279.0689 704.4884 271.0213 703.1472 268.1153 701.9177 265.4328 701.5824 262.7503 702.0295 259.8442 700.3529 258.0559 697.2233 257.0499 693.982 258.6147 691.6348 260.6266 682.9166 265.8799 680.0106 269.1212 678.334 272.8097 676.881 274.7098 675.5397 277.057 678.5575 280.5219 683.2519 284.9927 684.1461 290.0224 682.9166 295.9463 686.158 301.4231 690.7406 304.9998 693.8702 308.5765 696.7762 311.1472 700.6882 312.0414 705.3826 312.0414Z" />
  <path class="Penghu" d="M295.0706 636.7366L296.0766 639.978 295.6295 642.437 294.0647 640.8722 291.941 639.4191 289.7056 638.9721 286.576 640.7604 284.2288 641.0957 283.1111 641.6546 282.5523 642.884 281.6581 646.1254 281.0992 647.1314 277.299 649.3668 273.4988 649.9256 269.5868 648.3608 265.6748 644.4488 266.6807 642.437 268.8044 645.0077 272.0458 645.6783 275.5107 644.7842 278.4167 642.437 276.4048 641.6546 274.84 640.7604 273.6106 639.4191 272.4928 637.6308 272.0458 638.4132 272.0458 638.6367 271.8222 638.8603 271.0398 639.3074 270.8163 636.066 271.0398 632.8246 272.4928 632.8246 274.1694 633.2717 280.0933 629.4715 283.8935 628.242 282.8876 631.8187 282.4405 632.8246 285.6818 631.8187 288.1408 632.154 289.9292 631.9305 291.2704 629.8068 295.0706 636.7366ZM255.0565 629.8068L257.6273 621.424 260.198 618.965 263.5512 621.8711 261.5393 623.1006 260.198 626.0066 257.9626 632.8246 257.8508 634.613 258.4097 636.1778 258.1861 637.2955 255.7272 637.6308 253.9388 637.7426 252.7094 637.9661 251.7034 638.4132 250.6975 639.3074 247.6796 639.3074 248.2385 637.6308 249.2444 636.6249 250.6975 636.066 252.7094 635.9542 254.4977 635.2836 254.9448 633.607 255.0565 629.8068ZM275.2871 624.2183L274.6165 621.424 272.9399 619.0768 269.475 615.6119 273.9459 612.2587 276.6284 613.7118 279.1991 615.9472 280.3168 618.2944 278.305 620.1945 279.0873 622.9888 277.9696 624.8889 276.1813 625.4477 275.2871 624.2183Z" />
  <path class="Pingtung" d="M453.1151 887.7747L459.5978 871.2326 459.2625 864.6381 457.0271 858.6024 457.2506 852.9021 461.7215 835.8011 461.8332 828.0889 461.3861 822.5003 463.5098 816.1294 464.5157 810.3173 465.9688 806.4053 480.3872 807.2994 486.7582 804.9523 491.8997 799.2519 499.5001 795.6752 510.0066 801.0403 515.3716 796.2341 521.1837 794.7811 527.2194 801.9344 532.0255 806.4053 538.8436 801.0403 542.3085 800.8167 546.5558 801.5991 549.3501 806.8524 549.9089 810.7644 554.268 811.8821 558.7388 814.7881 556.5034 825.8535 556.3916 830.1008 554.7151 834.0128 546.8911 837.3659 542.9791 839.6013 536.8317 840.9426 532.4726 844.5193 530.5725 849.7725 527.6664 855.1375 525.2075 861.1732 524.5369 873.0209 525.5428 878.2741 527.1076 883.1921 528.0018 888.8924 528.0018 893.1397 530.1254 897.2752 533.8139 901.7461 531.802 904.7639 527.5547 907.3347 525.8781 910.4642 525.431 914.1527 527.6664 917.2823 530.349 918.6235 532.9197 922.2002 532.8079 926.7828 533.255 931.7008 535.8257 936.5069 539.5142 940.4189 547.7853 944.2191 551.3619 943.8838 552.0326 985.4627 550.8031 991.3866 548.7912 996.1927 546.1087 998.2046 542.8673 1001.2224 542.9791 1007.9287 544.0968 1015.3056 543.8733 1020 540.1848 1014.5232 534.708 1010.3877 528.3371 1007.5934 521.9661 1006.0286 521.7426 1011.2818 519.8425 1013.182 517.16 1012.5113 514.1421 1010.0524 514.0304 1008.1523 515.0363 1002.5637 510.5655 995.075 510.2301 993.0631 510.2301 991.4983 510.5655 988.8158 510.5655 980.2095 511.0125 977.6387 513.0244 974.8444 513.4715 972.3855 497.3765 930.8066 496.147 928.4594 491.6761 922.9826 488.0994 915.0469 486.5347 912.6997 479.9402 907.5582 477.3694 906.1052 476.4752 905.7699 475.5811 905.0992 474.7987 902.1932 474.2398 901.0755 470.7749 898.7283 462.6156 894.9281 459.0389 892.3573 455.127 889.0042 453.3386 887.8865 453.1151 887.7747Z" />
  <path class="Taichung City" d="M633.2902 437.3369L633.8491 436.8898 642.4554 436.1074 644.6909 436.6662 647.5969 437.5604 647.0381 442.0312 648.2675 444.9373 652.1795 445.8315 655.7562 447.9551 658.774 449.967 661.9036 449.5199 665.7039 447.6198 669.7276 447.6198 674.422 451.42 670.6218 455.332 670.2865 458.6851 668.3864 463.7149 662.3507 467.5151 659.8917 471.5388 658.8858 475.6744 656.4268 478.6922 653.6326 480.1452 652.6266 481.71 650.3912 483.3866 639.6612 482.3806 635.8609 481.4865 632.0607 481.71 623.119 485.2867 618.0893 486.0691 613.1714 486.2926 606.018 489.9811 602.4414 490.6517 598.4176 492.9989 592.0466 499.1463 588.0229 500.7111 582.6579 500.5993 578.8576 503.7289 576.734 508.088 573.9397 508.8704 566.7864 503.5054 564.3274 505.0702 559.633 511.2176 554.8268 511.4411 546.6675 510.2117 541.5261 512.6706 538.5083 519.4887 532.4726 531.1129 528.4488 534.9131 525.0957 535.4719 510.5655 533.4601 507.2123 533.3483 507.1006 532.2306 502.7415 529.3245 499.2766 528.7657 498.2706 525.9714 498.2706 522.8418 496.7058 519.6004 494.1351 515.5767 490.5584 512.6706 481.0579 509.8763 477.3694 505.5173 476.587 499.3699 474.4634 494.2284 471.222 491.4341 466.5276 489.9811 467.0865 489.3105 467.6453 486.6279 470.3278 484.5043 472.1162 479.251 474.2398 469.4152 481.7285 456.338 484.0757 448.4022 486.7582 443.9314 497.4882 432.0836 504.8651 443.596 508.6653 447.6198 513.695 451.9789 525.8781 460.9206 531.802 463.8266 537.0552 464.8326 546.444 470.1976 556.2799 469.6387 560.4154 467.4033 561.086 461.4794 565.5569 458.7969 573.4926 459.4675 578.4106 461.3677 582.4343 465.8385 586.7934 467.6268 593.9468 463.7149 599.4235 461.4794 608.8123 454.1025 613.5067 451.42 617.1952 447.9551 620.5483 445.4961 624.9074 445.6079 628.8194 443.9314 630.2724 439.4605 633.2902 437.3369Z" />
  <path class="Tainan City" d="M390.5232 695.7518L394.7705 697.3166 401.8121 698.4343 407.736 699.8873 412.7657 697.6519 414.7776 693.6282 419.3602 690.7221 424.7252 686.5866 428.5254 682.7864 433.4433 679.0979 439.7025 676.3036 451.9974 673.9564 458.8154 673.6211 464.5157 675.5212 467.7571 677.4213 469.4337 680.8862 470.8867 684.91 478.8224 693.0693 479.6048 699.105 478.2636 710.6174 479.4931 714.3058 483.1815 717.1001 486.1993 717.1001 490.4466 715.2 494.4704 714.6411 497.4882 715.5353 504.1945 716.3177 502.4062 721.6827 494.0233 733.8658 485.9758 747.5019 480.7226 754.2081 474.6869 760.132 469.5454 764.4911 464.5157 769.6326 460.2684 775.3329 457.9212 779.4684 456.0211 783.9393 450.8796 787.516 445.7382 789.6396 442.8321 791.6515 439.479 792.881 432.6609 792.0986 426.0664 792.7692 413.4363 790.9809 409.5243 788.969 406.3947 782.0392 406.2829 781.7039 401.2532 784.6099 400.4708 779.5802 399.0178 776.6741 395.8882 773.5446 399.8002 770.7503 401.9239 765.9441 401.0297 761.6968 395.8882 760.9144 394.9941 762.4792 394.0999 765.1617 392.6469 767.2854 389.9644 767.1736 388.9584 765.3853 389.2937 759.7967 388.7349 757.7848 385.3817 756.3318 383.5934 758.0084 382.0286 760.3556 379.905 760.9144 377.5578 758.9025 376.8871 756.1083 377.446 753.4257 378.4519 751.5256 380.7991 750.2961 383.8169 749.8491 386.2759 749.0667 387.0583 746.6077 385.9406 745.3782 378.4519 743.4781 378.4519 741.9133 384.7111 741.9133 384.1523 739.7897 380.6873 736.7718 378.4519 734.2011 379.0108 730.9597 381.0227 729.842 383.1463 729.0596 384.264 727.0477 383.5934 723.9182 382.4757 721.3474 383.2581 718.8884 384.3758 715.9824 386.1641 713.8587 385.8288 711.9586 386.1641 710.1703 388.8466 702.9052 390.1879 701.5639 392.1998 701.0051 389.182 698.9932 390.5232 695.7518Z" />
  <path class="Taipei City" d="M705.3826 312.0414L700.6882 312.0414 696.7762 311.1472 693.8702 308.5765 690.7406 304.9998 686.158 301.4231 682.9166 295.9463 684.1461 290.0224 683.2519 284.9927 678.5575 280.5219 675.5397 277.057 676.881 274.7098 678.334 272.8097 680.0106 269.1212 682.9166 265.8799 691.6348 260.6266 693.982 258.6147 697.2233 257.0499 700.3529 258.0559 702.0295 259.8442 701.5824 262.7503 701.9177 265.4328 703.1472 268.1153 704.4884 271.0213 706.5003 279.0689 709.6299 281.8631 710.8594 285.4398 709.6299 290.8048 709.7417 294.8286 713.4301 296.9523 716.448 299.523 714.8832 302.8761 708.7358 310.7001 705.3826 312.0414Z" />
  <path class="Taitung" d="M546.5558 801.5991L549.6854 801.152 548.6794 797.24 543.7615 792.0986 541.3025 788.4101 540.1848 781.8156 542.0849 773.9916 549.0147 768.0678 552.4796 763.3734 552.4796 754.3199 554.9386 743.7017 553.1503 735.7659 553.9327 730.1773 559.8565 726.936 561.9802 723.024 560.1919 718.2178 560.8625 713.6352 567.1217 709.4997 570.363 706.3701 575.6163 703.1287 588.1347 699.9991 589.0288 705.923 593.1644 712.5175 599.4235 714.7529 604.3415 717.1001 608.3652 720.9003 613.3949 721.6827 617.9776 722.9122 625.3545 735.7659 634.855 743.5899 641.4495 744.484 646.7028 741.4662 647.3734 736.5483 647.3734 731.0715 649.8323 726.2653 653.7443 715.5353 656.6504 709.3879 658.6623 702.5699 660.7859 697.2048 663.5802 693.0693 666.4862 687.4807 666.0392 682.004 664.5861 676.4154 667.7157 672.0563 676.4339 667.809 679.2282 668.7032 675.5397 689.9397 673.7514 693.8517 668.051 701.4521 665.9274 705.3641 664.2508 710.2821 663.1331 719.5591 663.2449 727.7184 662.3507 735.4306 658.4387 743.4781 656.7622 745.2664 652.9619 748.0607 651.2854 749.8491 650.3912 751.6374 649.0499 756.3318 645.138 763.1498 642.7908 773.6563 641.1142 778.3507 632.8431 790.3102 631.8372 792.5457 620.6601 801.9344 617.9776 805.064 617.5305 807.1877 618.0893 812.2174 617.9776 814.4528 616.9716 817.0235 615.1833 819.9296 611.3831 824.7358 607.5828 828.3124 594.6174 837.0306 585.8992 846.5311 583.7756 847.6488 582.099 849.8843 577.8517 860.7261 575.8398 864.7498 569.3571 872.9091 566.6746 877.7153 565.2216 887.5512 561.3096 901.0755 553.5974 914.5998 552.4796 919.1824 551.1384 932.1479 551.3619 943.8838 547.7853 944.2191 539.5142 940.4189 535.8257 936.5069 533.255 931.7008 532.8079 926.7828 532.9197 922.2002 530.349 918.6235 527.6664 917.2823 525.431 914.1527 525.8781 910.4642 527.5547 907.3347 531.802 904.7639 533.8139 901.7461 530.1254 897.2752 528.0018 893.1397 528.0018 888.8924 527.1076 883.1921 525.5428 878.2741 524.5369 873.0209 525.2075 861.1732 527.6664 855.1375 530.5725 849.7725 532.4726 844.5193 536.8317 840.9426 542.9791 839.6013 546.8911 837.3659 554.7151 834.0128 556.3916 830.1008 556.5034 825.8535 558.7388 814.7881 554.268 811.8821 549.9089 810.7644 549.3501 806.8524 546.5558 801.5991ZM696.9998 988.0334L700.6882 990.9395 702.3648 992.8396 702.1413 995.075 697.7822 996.5281 691.8583 994.0691 686.3815 990.2689 683.2519 987.251 684.1461 985.1274 684.1461 983.0037 683.3637 981.2154 681.9107 979.5388 697.6704 979.5388 697.6704 980.8801 697.2233 981.7743 696.5527 983.6744 696.3292 986.0216 696.9998 988.0334ZM675.2044 847.3135L674.0867 843.9604 674.5338 843.5133 682.6931 842.8427 683.5872 843.4015 684.1461 844.9663 683.4755 848.0959 682.8048 849.4372 682.4695 850.7784 682.8048 852.0079 682.6931 852.9021 682.1342 852.7903 680.6812 852.7903 680.0106 852.5668 679.6752 852.1197 677.5516 851.3373 675.2044 847.3135Z" />
  <path class="Taoyuan" d="M571.7043 316.5122L578.8576 304.9998 584.4462 298.4053 590.2583 293.4873 605.0121 288.5694 608.477 286.4458 611.4948 283.7633 615.1833 281.7514 622.3366 279.1806 638.5435 276.2746 641.8966 279.963 647.0381 282.422 650.8383 284.881 653.409 287.2282 656.6504 288.0106 660.1153 289.7989 664.2508 295.8345 664.5861 299.0759 663.8037 302.429 661.1212 305.2233 650.6147 308.3529 647.5969 311.5943 647.8205 316.624 646.9263 321.2066 647.8205 325.3421 652.0678 329.4777 652.9619 333.6132 651.8442 338.9782 655.9798 341.3254 661.9036 340.9901 666.0392 342.5549 672.7454 352.5025 671.6277 356.7498 669.057 359.7677 669.7276 363.9032 670.8453 368.4858 677.9987 375.1921 680.0106 379.6629 677.5516 380.3336 673.1925 383.4631 675.7633 393.5226 673.9749 396.5404 671.1806 397.6581 668.6099 397.0992 665.3685 398.3287 665.0332 399.5582 661.1212 397.8816 655.3091 394.5285 652.0678 392.1813 647.5969 391.3989 642.5672 388.4928 638.4317 385.2515 637.9846 381.7866 641.673 376.5333 643.2378 370.2741 641.8966 364.462 641.673 360.4383 638.8788 358.3146 635.4139 356.5263 633.2902 352.8378 630.6077 350.0436 627.4781 350.2671 624.3485 349.7083 621.8895 347.2493 618.5364 344.7903 613.1714 343.1138 610.4889 340.0959 611.3831 335.4015 608.477 332.0484 603.0002 330.2601 599.6471 328.6953 596.1822 327.6893 592.1584 326.1245 588.9171 319.0829 585.2286 316.624 574.275 317.4064 571.7043 316.5122Z" />
  <path class="Yilan" d="M665.0332 399.5582L665.3685 398.3287 668.6099 397.0992 671.1806 397.6581 673.9749 396.5404 675.7633 393.5226 673.1925 383.4631 677.5516 380.3336 680.0106 379.6629 684.705 378.3217 688.6169 376.8686 691.6348 374.1861 695.6585 371.3919 701.0235 368.8211 704.1531 366.5857 703.8178 365.0209 703.0354 362.4502 702.9237 359.097 704.4884 355.0733 708.2887 351.8319 711.3065 350.0436 721.813 345.7963 732.6548 339.2018 737.6845 337.7487 741.7083 334.8427 744.279 330.7072 746.8497 327.4658 749.8675 325.901 752.6618 324.895 756.3503 322.5479 757.6915 319.4183 755.6796 316.624 756.7974 314.165 765.8508 312.3767 768.7569 310.3648 775.4631 306.7881 780.2693 305.7822 782.9518 307.347 783.6224 308.2411 774.0101 313.0473 769.5393 316.8475 754.4502 335.178 752.103 339.09 750.2029 344.455 748.9734 350.7142 748.5263 356.8616 748.7498 362.7855 751.4323 375.3039 751.2088 378.5452 750.0911 381.6748 750.3146 388.1575 752.9971 393.1872 758.2504 396.4286 764.3978 397.6581 764.3978 398.9993 761.8271 398.7758 759.3681 398.9993 757.2444 399.67 755.7914 400.7877 757.9151 404.8114 758.921 410.0647 758.2504 414.6473 753.4442 417.3298 753.1089 419.3417 753.7795 421.6889 755.1208 423.9243 755.5679 426.1597 753.556 428.0598 748.5263 430.9659 742.9377 437.4486 742.7142 440.0194 743.0495 445.6079 742.1553 447.8433 741.0376 449.6317 740.367 452.2024 740.0317 457.3439 739.5846 458.6851 738.8022 459.6911 738.3551 460.8088 739.1375 462.1501 739.3611 462.3736 738.4669 462.3736 729.5252 460.9206 714.5479 452.0906 711.53 452.7613 709.6299 457.5674 705.7179 461.2559 700.4647 461.2559 693.7584 458.6851 681.6871 455.5556 676.4339 453.0966 674.422 451.42 669.7276 447.6198 665.7039 447.6198 661.9036 449.5199 658.774 449.967 655.7562 447.9551 652.1795 445.8315 648.2675 444.9373 647.0381 442.0312 647.5969 437.5604 644.6909 436.6662 648.1558 428.2834 659.4447 416.8827 662.4625 412.1883 662.0154 408.6117 663.1331 404.8114 665.0332 399.5582Z" />
  <path class="Yunlin" d="M417.4601 575.3743L423.6075 578.9509 441.3791 576.8273 447.4147 577.1626 452.7798 578.6156 462.1685 582.1923 478.04 583.9806 487.7641 588.8986 492.4585 588.7868 502.1826 590.6869 502.965 590.1281 504.5298 595.9402 502.8532 599.7404 502.0708 605.5525 502.8532 611.6999 501.4002 615.8354 500.6178 620.5298 503.7474 624.33 508.4418 626.3419 513.9186 624.6653 520.6249 623.9947 522.7485 626.789 522.3014 626.789 521.9661 630.8128 521.9661 633.607 518.8365 634.613 509.4477 636.5131 504.3063 637.0719 502.4062 633.8306 498.6059 631.1481 491.8997 633.0482 488.8818 633.4953 478.7107 629.8068 474.6869 625.1124 470.4396 621.3122 464.9628 621.6475 454.7916 623.5476 448.9795 625.1124 435.7905 632.7129 432.7727 635.7307 429.196 637.6308 423.6075 642.2134 419.2484 642.884 417.6836 645.343 416.2306 649.255 413.101 651.8257 408.1831 651.714 401.4768 648.0255 392.9822 648.9197 392.8704 649.0315 392.088 649.0315 395.8882 644.8959 395.6647 631.7069 396.2235 621.7593 398.459 613.9353 402.0356 607.6761 403.0416 599.6286 404.9417 592.587 405.9476 590.1281 410.8656 583.6453 411.648 581.4099 412.3186 580.1804 416.7894 576.7155 417.4601 575.3743Z" />
</svg>