<?xml version="1.0" encoding="utf-8"?>
<svg xmlns="http://www.w3.org/2000/svg" viewBox="0 0 1021 539" style="stroke-width:0.25px;stroke-linejoin:round;stroke:#444;fill:#ddd" fill-rule="evenodd">
  <path class="Bumthang" d="M613.6178 71.6091L612.1648 82.4509 612.1648 85.9158 612.5001 88.7101 613.5061 92.0633 613.8414 100.2226 613.1707 102.6815 612.2766 104.2463 609.3705 106.1464 607.9175 107.7112 607.1351 109.3878 606.7998 111.8468 605.3468 114.7528 605.5703 116.3176 606.7998 118.1059 610.2647 121.2355 612.3883 122.3532 614.2884 123.0239 617.6416 123.8063 619.2064 124.4769 620.8829 126.377 625.4656 137.107 626.1362 145.937 630.4953 147.9488 634.8543 152.4197 637.2015 155.8846 638.9899 157.7847 640.2194 158.5671 642.343 159.126 643.6843 159.6848 646.5903 161.5849 648.4904 162.3673 649.4964 164.6028 652.5142 177.9035 652.5142 185.8393 653.1848 186.957 655.1967 187.9629 659.8911 188.6336 661.3441 188.9689 662.6854 189.863 671.18 198.1341 672.1859 200.5931 673.0801 204.058 674.3096 211.7702 674.7567 219.7059 672.633 226.8593 669.9505 235.801 669.5034 238.0364 669.3916 239.2659 672.0741 245.4133 672.7448 253.4608 672.633 255.5845 671.8506 257.3728 671.5153 258.8259 672.1859 260.726 673.7507 262.8496 677.2156 265.3086 681.91 271.6795 677.2156 282.0743 675.7626 283.9744 674.4213 285.5392 673.9743 287.7746 673.8625 289.4512 678.5569 298.9517 672.4095 300.9636 671.4035 301.5224 666.9327 306.1051 666.0385 309.4582 665.2561 310.3524 663.2442 311.4701 661.0088 312.476 654.079 312.8113 650.167 315.8292 646.5903 316.388 637.2015 320.7471 627.5892 316.1645 624.0125 312.2525 623.3419 310.6877 622.6713 309.57 619.9888 307.4463 617.5298 304.652 616.1886 303.6461 614.512 303.199 612.9472 302.9755 611.2706 303.0872 609.3705 303.3108 607.3586 304.4285 605.6821 305.5462 604.229 312.9231 587.6869 294.7044 581.5395 290.2336 579.1923 289.1158 575.2803 287.7746 572.486 286.5451 570.9212 285.4274 569.58 283.4155 568.574 282.5213 567.3446 281.8507 564.3267 281.1801 556.8381 278.4976 554.3791 271.6795 556.0557 267.4322 554.7144 258.7141 547.6728 234.4597 545.2139 232.8949 544.0961 228.6476 542.8667 219.2589 542.196 218.2529 540.743 217.1352 540.4077 215.6822 540.2959 213.1114 540.8548 208.9759 540.9666 206.2934 541.1901 204.2815 543.4255 196.9046 544.2079 187.9629 544.2079 183.9392 543.8726 180.9213 543.202 179.3565 542.5314 178.0153 538.9547 172.762 538.1723 171.8679 536.7193 170.9737 535.0427 170.4149 533.3661 170.3031 532.0249 170.5266 531.0189 170.7502 530.013 170.7502 529.1188 170.0795 528.3364 169.0736 525.7657 167.1735 523.5303 153.5374 523.8656 152.0844 524.648 150.4078 525.6539 150.5196 527.2187 149.5136 529.1188 146.9429 532.4719 140.3484 534.0367 130.5125 533.7014 127.1594 533.3661 125.1475 532.6955 123.8063 531.9131 122.5768 531.1307 121.2355 530.5718 118.7766 530.1248 117.2118 529.2306 115.8705 528.4482 115.1999 527.4422 114.8646 523.7538 113.9704 523.0832 113.4116 522.3008 112.1821 521.4066 109.9466 520.6242 107.2641 519.8418 105.6993 518.8359 104.4699 518.6123 103.6875 518.7241 102.9051 519.0594 102.2344 519.8418 101.452 520.6242 100.1108 521.5184 98.4342 522.3008 95.3046 522.3008 92.9574 521.6301 90.4985 514.9239 81.8921 519.73 73.8446 528.8953 65.6853 534.1485 65.0146 539.4018 65.1264 559.1853 67.9207 563.209 67.0265 564.5503 67.1383 572.3743 66.5794 582.6572 68.0325 590.0341 63.0028 593.2755 61.5497 605.0114 69.3737 613.6178 71.6091Z" />
  <path class="Chhukha" d="M182.1811 391.1629L182.6282 384.9037 185.9813 378.8681 188.6638 375.0679 188.9991 372.7207 188.3285 370.9323 186.2048 368.8087 184.8636 366.9086 182.4046 359.9788 203.6411 360.5376 212.1358 362.1024 216.0477 363.779 221.1892 366.5733 223.6482 367.3557 232.9252 368.6969 235.8312 367.4674 236.1666 366.4615 236.2783 365.232 236.0548 364.2261 235.6077 363.1084 235.2724 361.8789 235.0488 359.4199 235.2724 356.4021 239.5197 343.4366 241.5316 338.9658 242.6493 335.6127 243.4317 327.2298 248.4614 331.03 250.3615 334.8303 251.591 338.5187 252.5969 343.2131 253.6029 344.5543 254.8323 345.0014 256.956 344.3308 266.4565 347.0133 268.0213 348.0193 268.692 350.8135 251.591 362.773 245.3318 371.0441 245.6671 373.8384 253.4911 378.1975 256.8442 380.7682 264.3329 384.5684 271.2627 383.6743 275.7336 390.2688 281.5457 407.258 288.699 409.7169 290.3756 413.1818 289.9285 415.082 289.2579 416.6468 288.4755 421.2294 307.4766 421.3411 313.5122 433.3007 314.9652 437.6597 318.8772 452.7488 313.7358 463.3671 313.5122 467.6144 314.0711 468.9557 317.536 473.9854 318.989 478.4562 319.2125 481.8094 318.8772 486.2802 318.0948 490.4157 317.536 492.8747 315.5241 496.8985 314.8535 497.9044 313.0651 499.4692 311.0532 504.3871 308.3707 506.1755 305.2411 514.4465 306.4706 521.4881 308.8178 524.953 310.6062 526.8531 311.165 528.0826 311.0532 531.6593 310.9415 532.8888 310.9415 533.0006 306.1353 532.2182 289.9285 524.953 283.2222 524.7295 272.7157 529.0886 267.1272 529.2003 263.327 526.1825 268.2449 516.9055 267.5743 510.9816 259.9738 504.8342 247.9025 500.2516 235.4959 498.2397 216.6066 500.4751 205.8766 494.8866 194.2524 486.8391 194.2524 486.7273 194.1406 479.4622 193.0229 474.0971 191.5699 473.7618 189.1109 473.6501 182.7399 475.1031 181.5105 474.7678 181.2869 473.9854 181.6222 472.7559 181.6222 471.1911 180.7281 469.291 179.275 464.0377 176.9278 462.2494 170.7804 458.8963 168.9921 458.3374 167.8744 458.5609 166.9802 459.008 165.5272 458.8963 164.633 458.2256 163.5153 455.2078 173.91 447.8309 185.646 431.7359 186.7637 424.359 186.0931 422.6824 184.8636 420.1117 183.2988 418.4351 181.734 417.0938 180.0574 416.3114 176.4807 415.6408 176.369 406.9227 175.363 400.3282 176.369 396.3044 177.822 393.7337 182.1811 391.1629Z" />
  <path class="Chirang" d="M479.716 373.7266L485.4163 381.1035 481.0572 384.0096 477.4805 385.9097 472.6744 389.2628 470.3272 391.2747 466.0799 395.8573 465.0739 397.981 464.5151 404.6872 463.8444 408.0404 460.9384 416.3114 456.244 421.1176 456.8029 432.7418 451.9967 440.454 446.8552 445.819 444.3963 450.5134 444.1727 453.8666 442.0491 457.6668 437.2429 460.7964 426.5129 477.115 426.2893 478.4562 426.2893 479.5739 426.6246 480.3563 426.8482 481.1387 426.96 482.0329 426.96 484.4919 425.8422 485.7213 423.9421 486.5037 418.4653 487.6215 415.3358 488.8509 411.5355 491.5334 410.0825 493.5453 408.4059 495.2219 406.0587 496.3396 399.1289 494.9983 395.1052 494.216 393.2051 492.8747 389.8519 487.9568 389.2931 484.0448 386.4988 480.6916 386.4988 479.7975 385.9399 476.7796 385.9399 475.4384 386.4988 472.3088 386.387 470.744 387.393 468.3968 392.758 465.379 395.5523 460.1257 400.2466 454.7607 403.1527 445.7073 403.2645 435.8714 403.2645 434.7537 404.6057 424.1354 404.941 416.535 402.5938 413.4054 404.2704 407.7051 402.8174 396.5279 402.3703 373.1678 408.6295 371.4912 424.1657 378.421 428.3012 379.0916 438.9195 378.1975 443.3903 376.7444 444.8433 376.7444 446.0728 377.3033 450.4319 381.1035 453.6733 382.8919 456.5793 385.6861 465.2975 380.88 472.0037 378.7563 479.716 373.7266Z" />
  <path class="Daga" d="M313.0651 499.4692L314.8535 497.9044 315.5241 496.8985 317.536 492.8747 318.0948 490.4157 318.8772 486.2802 319.2125 481.8094 318.989 478.4562 317.536 473.9854 314.0711 468.9557 313.5122 467.6144 313.7358 463.3671 318.8772 452.7488 314.9652 437.6597 313.5122 433.3007 307.4766 421.3411 288.4755 421.2294 289.2579 416.6468 289.9285 415.082 290.3756 413.1818 288.699 409.7169 281.5457 407.258 275.7336 390.2688 271.2627 383.6743 274.1688 374.509 275.2865 366.5733 276.8513 362.4377 278.3043 359.867 279.8691 358.7493 281.5457 357.8551 284.8988 356.5139 286.7989 355.3961 289.3696 352.8254 291.3815 349.4723 293.8405 342.2072 297.3054 342.8778 314.8535 339.1893 321.2244 342.766 330.2779 342.0954 332.7369 342.9895 337.2077 345.8956 340.8961 349.584 347.4906 354.9491 350.3967 358.414 352.6321 361.7671 353.4145 363.4437 354.9793 367.5792 358.7795 374.6208 365.9329 384.2331 378.4513 385.6861 390.1872 390.8276 394.8816 391.61 402.8174 396.5279 404.2704 407.7051 402.5938 413.4054 404.941 416.535 404.6057 424.1354 403.2645 434.7537 403.2645 435.8714 403.1527 445.7073 400.2466 454.7607 395.5523 460.1257 392.758 465.379 387.393 468.3968 386.387 470.744 386.4988 472.3088 385.9399 475.4384 385.9399 476.7796 386.4988 479.7975 386.4988 480.6916 375.3217 488.2921 374.204 489.6333 373.0862 491.3099 373.7569 491.8688 374.5393 492.3158 375.2099 492.4276 374.8746 493.6571 373.6451 493.8806 371.9685 493.5453 370.5155 492.5394 369.7331 491.0864 369.6213 488.8509 368.8389 486.2802 367.9448 483.933 365.374 481.9211 364.0328 481.8094 363.2504 482.48 363.3622 485.6096 363.0268 488.0685 362.2444 490.9746 361.015 493.6571 360.009 494.663 358.8913 494.8866 357.9971 494.3277 357.4383 493.5453 357.2147 492.5394 356.9912 491.757 356.5441 489.9686 354.8675 494.216 353.0792 495.2219 345.2552 498.2397 342.4609 498.2397 340.3373 497.3455 337.3195 493.9924 335.3076 492.3158 331.2838 490.5275 329.4955 490.6393 328.6013 491.3099 328.9366 494.1042 328.8249 495.5572 328.3778 496.7867 327.9307 497.6809 327.3718 499.6927 323.3481 497.9044 322.1186 497.6809 319.9949 497.6809 318.5419 497.9044 313.0651 499.4692Z" />
  <path class="Gasa" d="M266.6801 187.9629L255.2794 181.3684 254.1617 180.3625 252.9322 178.7977 252.3734 176.1152 250.2497 170.6384 249.4673 166.6146 242.8728 166.1675 240.7492 167.2853 240.0785 168.403 238.1784 170.9737 236.0548 174.3268 234.9371 174.6622 233.9311 174.5504 232.9252 174.1033 232.031 173.5444 231.2486 172.9856 230.4662 172.2032 229.7956 171.309 229.125 170.3031 228.5661 169.4089 227.8955 167.1735 230.3545 164.2674 232.031 157.0023 232.2546 154.3198 232.1428 151.9726 231.5839 150.0725 231.1369 147.39 231.8075 145.6017 233.2605 142.9191 243.6552 129.1713 245.1083 127.7183 246.7848 126.6006 248.3496 125.8182 250.4733 124.2534 250.6968 123.2474 249.8026 122.5768 242.4257 121.1238 238.402 119.559 236.5019 116.3176 234.7135 104.8052 231.0251 99.8872 222.754 95.1928 220.1833 94.1869 218.3949 93.9634 218.5067 93.7398 218.6185 93.2927 218.842 92.0633 218.9538 90.4985 219.6244 88.263 221.0774 87.4806 221.4128 87.3689 224.3188 86.1394 224.9894 85.2452 224.5424 82.7862 224.0953 82.3392 221.4128 79.5449 221.6363 78.4272 223.9835 76.08 225.9954 73.7328 231.1369 68.1442 231.3604 67.6971 232.4781 67.2501 238.402 62.4439 241.1963 58.8672 248.7967 52.7198 251.0321 49.3667 252.5969 48.249 254.8323 47.4666 255.8383 45.6782 258.6326 42.8839 260.7562 39.9779 263.4387 39.1955 299.7644 32.601 311.2768 27.3477 314.1828 21.9827 316.53 20.7532 319.4361 16.0589 318.6537 15.1647 317.7595 14.8294 318.8772 12.0351 319.8832 11.2527 320.7773 10.8056 320.7773 10.3585 323.4598 8.1231 326.3659 6.223 326.9248 6.6701 332.4015 4.3229 342.2374 4.8817 349.8378 9.0173 356.3206 15.2765 365.374 19.5238 377.5571 17.959 396.7817 28.3537 408.9648 32.1539 421.0361 32.8245 421.3714 32.1539 421.5949 31.4833 421.9303 29.9185 421.9303 27.6831 421.9303 24.4417 422.3773 23.9946 422.4891 23.9946 428.3012 23.9946 431.9897 24.3299 434.6722 24.8888 435.1193 22.0945 435.7899 17.5119 441.7138 16.6177 450.2084 25.0006 458.0323 31.7068 473.4568 31.4833 485.8634 35.3953 489.3283 36.513 500.3936 44.784 513.2473 52.608 526.4363 54.1728 530.5718 56.4083 528.8953 65.6853 515.2592 66.0206 513.2473 67.4736 508.6647 71.0503 507.8823 78.0919 505.9822 82.4509 502.7408 87.4806 499.9465 90.0514 490.446 95.7517 488.5459 98.9931 488.0988 101.8991 488.6576 103.7992 488.4341 106.4817 488.6576 108.0465 489.44 109.6113 489.9989 111.2879 490.3342 112.8527 490.3342 116.2058 490.7813 118.3295 490.8931 120.2296 490.1107 122.0179 488.4341 123.3592 485.1927 123.5827 483.2926 123.918 481.5043 124.0298 477.3688 122.8003 475.3569 122.9121 473.5685 123.5827 471.7802 125.2593 470.3272 126.2652 468.5388 126.377 465.9681 124.7004 461.8326 121.012 455.9087 111.1761 455.2381 109.1642 455.2381 108.2701 455.4616 107.3759 455.7969 106.4817 455.3498 104.8052 454.3439 102.9051 449.3142 98.546 444.3963 98.7695 434.4486 99.4402 432.9956 99.7755 431.6543 100.7814 430.3131 102.6815 428.1894 108.4936 415.3358 130.6243 414.218 133.195 412.2062 135.8776 409.5237 138.6718 403.488 142.025 400.1349 143.2545 393.8757 144.2604 392.4227 144.7075 391.0814 145.0428 389.6284 145.0428 388.3989 146.384 387.5047 147.5018 385.8282 158.5671 380.7985 157.3376 379.569 156.5552 376.1041 153.8727 362.0209 148.1724 354.644 142.025 352.9674 140.9073 351.2909 140.6837 349.1672 141.2426 345.5905 142.9191 343.4669 143.5898 341.455 144.0369 339.8902 144.2604 335.8664 145.0428 334.3017 145.6017 332.6251 147.2782 330.725 149.849 325.0246 159.7966 315.077 172.6503 306.4706 173.3209 301.5527 174.2151 295.7406 178.1271 297.3054 181.4802 285.3459 185.1686 279.7573 183.2685 277.2983 182.8215 275.2865 182.7097 271.9333 183.045 269.9215 183.6039 268.692 184.0509 266.6801 187.9629Z" />
  <path class="Geylegphug" d="M310.9415 533.0006L310.9415 532.8888 311.0532 531.6593 311.165 528.0826 310.6062 526.8531 308.8178 524.953 306.4706 521.4881 305.2411 514.4465 308.3707 506.1755 311.0532 504.3871 313.0651 499.4692 318.5419 497.9044 319.9949 497.6809 322.1186 497.6809 323.3481 497.9044 327.3718 499.6927 327.9307 497.6809 328.3778 496.7867 328.8249 495.5572 328.9366 494.1042 328.6013 491.3099 329.4955 490.6393 331.2838 490.5275 335.3076 492.3158 337.3195 493.9924 340.3373 497.3455 342.4609 498.2397 345.2552 498.2397 353.0792 495.2219 354.8675 494.216 356.5441 489.9686 356.9912 491.757 357.2147 492.5394 357.4383 493.5453 357.9971 494.3277 358.8913 494.8866 360.009 494.663 361.015 493.6571 362.2444 490.9746 363.0268 488.0685 363.3622 485.6096 363.2504 482.48 364.0328 481.8094 365.374 481.9211 367.9448 483.933 368.8389 486.2802 369.6213 488.8509 369.7331 491.0864 370.5155 492.5394 371.9685 493.5453 373.6451 493.8806 374.8746 493.6571 375.2099 492.4276 374.5393 492.3158 373.7569 491.8688 373.0862 491.3099 374.204 489.6333 375.3217 488.2921 386.4988 480.6916 389.2931 484.0448 389.8519 487.9568 393.2051 492.8747 395.1052 494.216 399.1289 494.9983 406.0587 496.3396 408.4059 495.2219 410.0825 493.5453 411.5355 491.5334 415.3358 488.8509 418.4653 487.6215 423.9421 486.5037 425.8422 485.7213 426.96 484.4919 426.96 482.0329 426.8482 481.1387 426.6246 480.3563 426.2893 479.5739 426.2893 478.4562 426.5129 477.115 437.2429 460.7964 442.0491 457.6668 444.1727 453.8666 444.3963 450.5134 446.8552 445.819 451.9967 440.454 456.8029 432.7418 456.244 421.1176 460.9384 416.3114 463.8444 408.0404 464.5151 404.6872 465.0739 397.981 466.0799 395.8573 470.3272 391.2747 472.6744 389.2628 477.4805 385.9097 481.0572 384.0096 485.4163 381.1035 479.716 373.7266 479.8277 368.3616 482.7338 364.7849 486.9811 360.4259 506.0939 371.2677 515.818 379.3152 519.6183 381.6624 521.9655 384.3449 523.7538 385.5744 525.2068 386.245 526.5481 386.5803 527.7776 386.6921 529.1188 386.5803 530.7954 386.5803 532.5837 386.8039 537.0546 388.3686 541.5254 388.9275 543.3138 394.2925 548.6788 399.7693 553.7085 403.6813 561.5325 408.0404 565.8915 409.8287 567.5681 410.2758 569.1329 410.2758 570.6977 409.7169 573.2684 408.3757 575.8392 407.258 582.8807 411.0582 585.675 414.2996 587.0163 416.4232 587.4634 419.9999 588.134 423.0177 589.9223 425.1414 590.593 426.9297 590.593 430.5064 590.9283 432.5183 591.7107 435.2008 592.046 436.7656 591.3754 439.4481 589.587 442.2424 590.9283 447.6074 593.8343 449.0604 602.8878 450.5134 604.3408 451.5194 606.4645 453.3077 608.9234 457.3315 610.8235 459.5669 612.1648 460.3493 613.9531 460.6846 615.1826 461.5788 616.7474 463.5906 619.6535 465.379 621.8889 469.4028 622.5595 471.5264 625.6891 477.6738 626.3597 479.3504 627.5892 486.5037 629.6011 490.9746 631.2777 492.7629 632.9542 493.6571 637.9839 492.4276 649.1611 493.5453 651.9553 494.216 653.5201 494.4395 664.6972 493.5453 665.7032 493.21 666.8209 492.5394 671.9624 490.1922 674.8684 503.6047 674.1978 504.2754 673.3036 504.8342 671.5153 505.3931 670.9564 506.5108 670.8447 506.6226 602.1054 510.6463 562.9855 506.1755 528.8953 488.4039 500.8407 468.285 490.6695 466.7202 484.5221 468.7321 480.163 472.197 476.1393 476.3326 471.2213 480.1328 465.6328 481.9211 454.4557 481.474 448.9789 482.0329 438.8077 488.6274 431.2073 508.9697 423.6068 515.8996 412.0944 519.1409 377.6689 522.4941 358.556 527.6355 351.9615 528.3062 348.9437 527.8591 342.7963 525.959 342.3492 525.8472 340.002 525.5119 338.8843 524.953 336.4253 522.7176 335.1958 522.6058 333.631 523.9471 332.9604 525.7354 332.8486 527.3002 332.7369 527.9708 332.7369 528.7532 332.2898 530.7651 331.2838 533.0006 329.8308 534.5653 328.7131 534.6771 325.807 533.4476 324.6893 533.1123 312.618 533.2241 310.9415 533.0006Z" />
  <path class="Ha" d="M45.1496 336.2833L47.7204 334.2714 50.0675 324.3238 56.9974 319.0705 66.8332 319.9647 71.9747 330.0241 83.4871 332.3713 102.8235 340.5306 103.9413 339.6364 103.6059 337.1774 103.9413 334.1596 105.3943 332.8184 109.418 330.3594 114.8948 327.2298 115.2301 326.8945 116.5714 324.5473 122.2717 318.847 129.9839 314.7114 130.3193 311.9172 130.7663 309.57 132.7782 307.4463 136.2431 304.3167 137.2491 303.3108 137.1373 301.8578 134.0077 299.287 131.9958 297.3869 131.437 294.8162 131.437 291.9101 130.7663 290.2336 127.9721 287.2157 124.1718 284.0861 123.613 283.6391 123.3894 281.9625 122.607 280.733 121.9364 280.3977 120.5952 280.6212 119.2539 281.0683 118.5833 281.1801 118.0244 280.733 116.1243 276.0386 114.4477 273.0208 110.7593 270.003 110.8711 264.4144 111.0946 263.0732 112.2123 261.173 113.33 259.4965 113.4418 258.0435 113.33 256.3669 112.9947 251.1136 113.4418 248.5429 114.8948 247.4252 117.0185 246.7546 119.4774 246.3075 122.16 245.078 125.2895 242.7308 128.4191 239.3777 130.6546 236.0245 131.2134 235.0186 133.5606 236.2481 135.0136 236.5834 136.6902 237.3658 140.3787 240.1601 141.2728 240.6072 142.3905 240.6072 143.5083 240.3836 144.8495 239.713 146.5261 239.9365 147.9791 242.1719 153.4559 259.0494 154.3501 263.1849 157.1443 268.8853 160.8328 271.9031 162.9564 274.2503 164.9683 275.5915 165.9743 280.9565 169.4392 285.8745 177.4867 300.0694 182.1811 306.4404 194.8112 324.7708 192.2405 328.5711 188.4403 331.8124 186.5402 332.8184 182.0693 334.4949 180.281 335.6127 178.4926 337.6245 177.2631 339.9717 176.7043 342.8778 179.275 348.6899 179.7221 352.2666 182.4046 359.9788 184.8636 366.9086 186.2048 368.8087 188.3285 370.9323 188.9991 372.7207 188.6638 375.0679 185.9813 378.8681 182.6282 384.9037 182.1811 391.1629 168.3215 388.4804 161.8387 391.3865 159.0444 397.4221 158.262 400.1046 154.3501 406.252 154.0147 406.5873 140.2669 388.704 130.0957 397.8692 125.6249 397.5339 124.7307 396.1926 123.9483 393.2866 123.3894 392.0571 122.8306 390.9394 122.2717 389.8217 121.4893 388.8157 120.9305 387.9216 120.5952 386.8039 120.1481 384.792 119.0304 382.4448 97.1232 380.3211 91.3111 377.6386 90.9758 376.5209 90.864 375.2914 90.5287 373.9502 89.8581 372.6089 88.5168 370.2617 87.8462 368.6969 87.3991 367.2439 87.1756 366.0144 87.1756 365.232 87.1756 364.5614 87.1756 363.779 86.952 362.8848 86.3932 361.5436 85.8343 360.0905 85.7226 358.5257 84.3813 355.2844 83.4871 354.7255 82.4812 354.8373 80.5811 356.0668 79.7987 356.8492 78.1221 358.1904 74.769 358.6375 67.5039 350.4782 63.7036 343.1013 62.2506 341.9836 59.9034 340.6424 49.1734 337.7363 45.1496 336.2833ZM120.4834 222.2767L123.1659 223.8415 127.525 228.2006 128.5309 231.4419 131.2134 233.1185 131.2134 234.795 128.3074 231.889 126.9661 227.8652 123.1659 224.7356 121.3776 223.7297 120.4834 222.3884 120.4834 222.2767Z" />
  <path class="Lhuntshi" d="M819.7239 94.1869L814.3589 99.999 809.888 104.1345 808.3232 104.9169 806.8702 105.1405 803.8524 104.2463 802.5111 104.1345 800.7228 105.1405 790.9987 116.7647 789.5457 117.8824 788.0926 118.3295 786.7514 118.553 785.4101 119.0001 784.516 120.6767 784.0689 122.5768 784.2924 126.6006 783.51 154.9904 782.1688 160.8025 782.1688 164.6028 781.4981 170.3031 780.1569 174.2151 778.8156 176.7858 778.2568 179.2448 778.4803 181.592 780.604 189.416 780.7157 191.9867 779.2627 200.3695 780.604 221.0472 777.5861 228.3123 781.2746 233.6773 778.2568 234.5715 777.0273 234.795 775.4625 235.6892 774.5683 237.254 774.9036 242.8426 774.5683 245.6369 767.1914 251.6725 764.1736 254.9139 761.7146 260.726 763.503 264.8615 765.7384 267.7675 766.1855 269.3323 765.7384 275.4798 761.7146 285.7627 737.3485 298.9517 730.4187 287.8864 728.295 286.6569 722.5947 285.5392 717.3415 285.2039 710.8587 287.4393 694.0931 302.1931 678.5569 298.9517 673.8625 289.4512 673.9743 287.7746 674.4213 285.5392 675.7626 283.9744 677.2156 282.0743 681.91 271.6795 677.2156 265.3086 673.7507 262.8496 672.1859 260.726 671.5153 258.8259 671.8506 257.3728 672.633 255.5845 672.7448 253.4608 672.0741 245.4133 669.3916 239.2659 669.5034 238.0364 669.9505 235.801 672.633 226.8593 674.7567 219.7059 674.3096 211.7702 673.0801 204.058 672.1859 200.5931 671.18 198.1341 662.6854 189.863 661.3441 188.9689 659.8911 188.6336 655.1967 187.9629 653.1848 186.957 652.5142 185.8393 652.5142 177.9035 649.4964 164.6028 648.4904 162.3673 646.5903 161.5849 643.6843 159.6848 642.343 159.126 640.2194 158.5671 638.9899 157.7847 637.2015 155.8846 634.8543 152.4197 630.4953 147.9488 626.1362 145.937 625.4656 137.107 620.8829 126.377 619.2064 124.4769 617.6416 123.8063 614.2884 123.0239 612.3883 122.3532 610.2647 121.2355 606.7998 118.1059 605.5703 116.3176 605.3468 114.7528 606.7998 111.8468 607.1351 109.3878 607.9175 107.7112 609.3705 106.1464 612.2766 104.2463 613.1707 102.6815 613.8414 100.2226 613.5061 92.0633 612.5001 88.7101 612.1648 85.9158 612.1648 82.4509 613.6178 71.6091 623.789 74.2916 633.4013 74.8505 638.2075 80.4391 646.3668 87.1453 661.2323 94.2987 677.8862 103.4639 694.8755 109.9466 732.7659 122.9121 732.5424 121.5708 730.9776 115.5352 733.3248 113.188 735.4484 110.8408 736.7897 108.6054 737.125 105.0287 736.6779 101.5638 736.5661 100.5579 740.031 99.6637 743.3842 97.4283 744.6136 95.5282 747.1844 94.1869 749.5316 93.6281 751.3199 93.181 752.6612 93.0692 754.1142 94.0751 756.6849 95.9752 758.8086 97.6518 764.956 98.3224 766.0737 97.4283 767.9738 94.9693 769.6504 93.0692 770.321 91.1691 770.5446 90.4985 770.6563 89.269 771.6623 86.5865 773.3388 84.2393 774.233 82.898 774.9036 81.6685 776.5802 80.4391 778.8156 80.5508 780.2686 78.8743 781.8334 76.6388 782.057 74.8505 781.051 73.2857 780.8275 71.3856 780.9393 70.2679 781.2746 71.162 790.9987 80.1037 814.3589 92.2868 819.7239 94.1869Z" />
  <path class="Mongar" d="M781.2746 233.6773L786.7514 243.625 807.8761 271.9031 811.6763 281.1801 812.0117 282.4096 811.341 285.4274 806.4231 294.9279 807.8761 299.0635 804.8583 302.1931 812.0117 306.8875 816.259 310.9112 824.4183 315.4938 825.8713 316.8351 826.5419 318.2881 826.6537 319.6294 828.5538 322.9825 829.1127 324.5473 829.448 325.7768 829.448 327.0063 830.2304 331.2536 818.0473 337.401 806.3113 348.9134 804.0759 354.7255 803.2935 372.1618 802.5111 376.2974 801.8405 379.6505 799.3815 387.8098 796.0284 395.6338 792.1164 401.7812 786.1925 406.5873 765.7384 415.8644 759.3674 420.8941 754.226 427.265 745.9549 442.0188 743.3842 451.184 738.0191 450.737 734.5542 452.9724 733.1012 452.8606 730.5305 451.6311 728.1833 449.5075 726.0596 446.2661 723.0418 444.0307 720.8064 442.913 718.2356 442.4659 715.6649 440.3422 713.9883 438.5539 711.1941 423.1295 707.5056 419.441 706.1644 418.4351 694.7637 414.9702 684.8161 393.063 684.2572 383.8978 686.2691 377.9739 688.281 372.9442 688.6163 370.8206 689.1751 365.3438 688.7281 359.867 685.7102 355.7315 685.5985 350.0311 685.2631 348.6899 684.4807 346.678 680.0099 342.5425 678.8922 341.8718 675.9861 334.4949 673.0801 323.3178 670.7329 317.841 666.9327 306.1051 671.4035 301.5224 672.4095 300.9636 678.5569 298.9517 694.0931 302.1931 710.8587 287.4393 717.3415 285.2039 722.5947 285.5392 728.295 286.6569 730.4187 287.8864 737.3485 298.9517 761.7146 285.7627 765.7384 275.4798 766.1855 269.3323 765.7384 267.7675 763.503 264.8615 761.7146 260.726 764.1736 254.9139 767.1914 251.6725 774.5683 245.6369 774.9036 242.8426 774.5683 237.254 775.4625 235.6892 777.0273 234.795 778.2568 234.5715 781.2746 233.6773Z" />
  <path class="Paro" d="M182.4046 359.9788L179.7221 352.2666 179.275 348.6899 176.7043 342.8778 177.2631 339.9717 178.4926 337.6245 180.281 335.6127 182.0693 334.4949 186.5402 332.8184 188.4403 331.8124 192.2405 328.5711 194.8112 324.7708 182.1811 306.4404 177.4867 300.0694 169.4392 285.8745 165.9743 280.9565 164.9683 275.5915 162.9564 274.2503 160.8328 271.9031 157.1443 268.8853 154.3501 263.1849 153.4559 259.0494 147.9791 242.1719 146.5261 239.9365 144.8495 239.713 143.5083 240.3836 142.3905 240.6072 141.2728 240.6072 140.3787 240.1601 136.6902 237.3658 135.0136 236.5834 133.5606 236.2481 131.2134 235.0186 131.3252 234.9068 131.2134 234.795 131.2134 233.1185 128.5309 231.4419 127.525 228.2006 123.1659 223.8415 120.4834 222.2767 120.3716 222.0531 121.154 218.0294 127.9721 207.6347 128.978 206.7405 132.5547 204.3933 135.349 203.052 136.3549 202.605 137.8079 201.0402 137.8079 198.9165 137.6961 198.5812 137.6961 197.7988 139.5963 194.781 139.9316 194.3339 141.0493 192.7691 142.2788 190.3101 142.3905 189.863 143.62 186.0628 144.626 185.1686 145.2966 184.6098 146.7496 184.498 148.538 184.3862 149.6557 183.7156 150.9969 180.6978 150.3263 179.0212 150.3263 178.6859 151.8911 179.4683 156.4737 180.6978 157.815 181.4802 159.7151 183.3803 160.721 184.0509 166.9802 186.2864 169.3274 186.6217 171.8981 186.0628 175.1395 183.9392 178.4926 182.2626 185.8695 181.8155 188.9991 181.2567 193.3582 178.5741 199.1703 176.674 198.4997 186.6217 198.6114 188.8571 199.1703 193.2162 199.6174 195.1163 204.0882 201.8226 195.8172 211.4349 200.5116 210.7642 202.6352 211.4349 205.3177 213.1114 210.6827 218.2529 217.5008 227.6417 221.8598 236.3598 225.1012 239.2659 228.4543 240.8307 226.1072 246.1957 225.4365 250.443 225.1012 258.3788 222.8658 273.6914 222.4187 286.4333 224.5424 290.1218 227.1131 291.3513 228.3426 291.6866 232.1428 293.1396 233.3723 294.4809 234.0429 297.1634 234.49 300.5165 232.2546 309.7935 239.9668 314.4879 241.8669 316.6116 242.9846 318.1763 243.3199 326.1121 243.4317 327.2298 242.6493 335.6127 241.5316 338.9658 239.5197 343.4366 235.2724 356.4021 235.0488 359.4199 235.2724 361.8789 235.6077 363.1084 236.0548 364.2261 236.2783 365.232 236.1666 366.4615 235.8312 367.4674 232.9252 368.6969 223.6482 367.3557 221.1892 366.5733 216.0477 363.779 212.1358 362.1024 203.6411 360.5376 182.4046 359.9788Z" />
  <path class="Pemagatsel" d="M836.1542 425.5884L824.6418 429.2769 823.8594 432.1829 818.6062 442.4659 818.0473 444.7013 817.712 448.278 818.8297 452.9724 818.8297 454.9843 817.9355 457.6668 813.5765 464.9319 809.5527 469.4028 806.1996 472.6441 803.8524 475.2149 801.2816 478.1209 798.152 484.4919 794.3518 485.9449 785.969 482.7035 788.5397 472.7559 789.5457 471.3029 789.881 469.6263 789.881 468.1733 786.3043 460.014 779.3745 459.4551 776.4684 457.4432 774.3448 455.6549 772.4447 452.4135 770.6563 451.5194 767.862 450.9605 756.0143 452.4135 747.5197 451.6311 743.3842 451.184 745.9549 442.0188 754.226 427.265 759.3674 420.8941 765.7384 415.8644 786.1925 406.5873 792.1164 401.7812 796.0284 395.6338 799.3815 387.8098 801.8405 379.6505 802.5111 376.2974 815.1413 377.8622 811.0057 385.0155 807.9879 388.8157 807.429 391.2747 807.429 392.8395 809.6645 395.9691 812.5705 401.2223 813.8 402.6754 814.8059 403.4578 821.2887 407.8168 822.5182 408.9345 826.6537 410.9464 837.4955 411.0582 837.9426 411.5053 836.1542 425.5884Z" />
  <path class="Punakha" d="M329.0484 253.9079L321.7833 252.902 320.8891 252.1196 319.2125 250.1077 318.7655 248.4311 313.7358 240.8307 311.6121 237.4776 299.2055 241.6131 291.0462 248.2076 287.3578 242.5073 283.2222 238.5953 281.6574 235.4657 279.3102 229.8771 277.4101 226.8593 274.9512 223.7297 273.3864 220.6001 272.604 217.8058 272.604 215.5704 273.6099 211.4349 273.3864 204.6168 271.9333 196.3458 271.2627 195.0045 266.6801 187.9629 268.692 184.0509 269.9215 183.6039 271.9333 183.045 275.2865 182.7097 277.2983 182.8215 279.7573 183.2685 285.3459 185.1686 297.3054 181.4802 295.7406 178.1271 301.5527 174.2151 306.4706 173.3209 315.077 172.6503 325.0246 159.7966 330.725 149.849 332.6251 147.2782 334.3017 145.6017 335.8664 145.0428 339.8902 144.2604 341.455 144.0369 343.4669 143.5898 345.5905 142.9191 349.1672 141.2426 351.2909 140.6837 352.9674 140.9073 354.644 142.025 362.0209 148.1724 376.1041 153.8727 379.569 156.5552 380.7985 157.3376 385.8282 158.5671 386.2752 168.8501 383.3692 174.6622 380.3514 177.3447 375.657 182.3744 374.4275 184.0509 373.7569 185.951 372.9745 188.5218 372.7509 192.322 373.0862 195.6751 375.4334 198.2459 377.5571 199.3636 379.6807 199.5871 383.7045 198.9165 385.7164 199.14 387.9518 200.0342 390.1872 202.0461 392.6462 205.0639 394.9934 207.5229 395.9993 209.0877 396.1111 211.6584 395.3287 213.7821 391.0814 218.2529 384.1516 220.4883 376.4394 230.8831 365.9329 239.8248 365.8211 239.8248 364.3681 245.078 357.3265 251.0019 342.3492 254.8021 341.9021 254.8021 329.3837 253.9079 329.0484 253.9079Z" />
  <path class="Samchi" d="M45.1496 336.2833L49.1734 337.7363 59.9034 340.6424 62.2506 341.9836 63.7036 343.1013 67.5039 350.4782 74.769 358.6375 78.1221 358.1904 79.7987 356.8492 80.5811 356.0668 82.4812 354.8373 83.4871 354.7255 84.3813 355.2844 85.7226 358.5257 85.8343 360.0905 86.3932 361.5436 86.952 362.8848 87.1756 363.779 87.1756 364.5614 87.1756 365.232 87.1756 366.0144 87.3991 367.2439 87.8462 368.6969 88.5168 370.2617 89.8581 372.6089 90.5287 373.9502 90.864 375.2914 90.9758 376.5209 91.3111 377.6386 97.1232 380.3211 119.0304 382.4448 120.1481 384.792 120.5952 386.8039 120.9305 387.9216 121.4893 388.8157 122.2717 389.8217 122.8306 390.9394 123.3894 392.0571 123.9483 393.2866 124.7307 396.1926 125.6249 397.5339 130.0957 397.8692 140.2669 388.704 154.0147 406.5873 154.3501 406.252 158.262 400.1046 159.0444 397.4221 161.8387 391.3865 168.3215 388.4804 182.1811 391.1629 177.822 393.7337 176.369 396.3044 175.363 400.3282 176.369 406.9227 176.4807 415.6408 180.0574 416.3114 181.734 417.0938 183.2988 418.4351 184.8636 420.1117 186.0931 422.6824 186.7637 424.359 185.646 431.7359 173.91 447.8309 163.5153 455.2078 164.633 458.2256 165.5272 458.8963 166.9802 459.008 167.8744 458.5609 168.9921 458.3374 170.7804 458.8963 176.9278 462.2494 179.275 464.0377 180.7281 469.291 181.6222 471.1911 181.6222 472.7559 181.2869 473.9854 181.5105 474.7678 182.7399 475.1031 189.1109 473.6501 191.5699 473.7618 193.0229 474.0971 194.1406 479.4622 194.2524 486.7273 194.2524 486.8391 185.9813 481.027 173.4629 484.3801 169.2156 484.1565 165.4154 484.6036 162.174 487.1744 159.0444 490.4157 155.4678 492.7629 146.9732 494.9983 138.4785 495.8925 121.3776 494.8866 111.7652 492.2041 107.5179 487.2861 105.059 480.3563 100.9234 471.8617 96.229 466.4967 89.1875 461.2435 81.587 457.7785 75.1043 458.2256 72.31 460.3493 68.8451 461.2435 65.2684 460.9081 62.1388 459.008 60.0152 455.5431 60.0152 452.3018 60.4623 448.7251 59.7916 444.5895 54.3149 437.995 48.2792 438.7774 42.3553 443.6954 37.7727 450.1781 35.8726 433.3007 35.8726 414.7466 34.4196 406.0285 30.5076 398.3163 23.6895 393.1748 4.6884 383.1154 1.8942 380.9917 1 380.3211 3.459 370.4853 8.2651 359.3081 14.7479 349.6958 22.4601 344.4426 40.6788 339.6364 45.1496 336.2833Z" />
  <path class="Samdrup Jongkhar" d="M991.9633 371.7147L991.0691 372.9442 988.9454 377.8622 987.3806 383.786 986.4865 390.0452 986.4865 396.3044 990.1749 407.258 1005.264 422.4589 1010.4055 433.3007 1015.547 452.8606 1014.541 458.2256 1012.1938 469.7381 1001.0167 480.8034 982.6862 483.5977 977.3212 481.027 967.7089 472.7559 962.4557 470.5205 957.873 471.8617 958.5437 476.3326 958.5437 481.3623 952.0609 484.3801 955.6376 488.9627 955.9729 494.5513 953.514 498.4633 948.7078 497.7926 945.5782 493.21 944.684 487.6215 943.0075 482.7035 937.3072 479.5739 928.2537 481.3623 909.029 493.9924 900.0873 498.2397 885.4453 500.1398 880.6392 499.8045 867.2266 495.7807 861.8616 496.0043 850.7963 499.8045 845.2077 500.2516 841.1839 496.6749 834.2541 481.5858 831.3481 477.2267 826.989 475.8855 814.8059 475.2149 810.5586 475.8855 805.1936 479.5739 802.064 484.9389 799.6051 491.0864 796.1402 497.3455 792.2282 501.2575 787.5338 504.3871 782.3923 506.6226 777.3626 508.0756 771.2152 508.1873 766.9679 506.5108 758.0262 501.034 747.6315 498.6868 726.0596 499.1339 715.4414 497.7926 706.3879 497.9044 691.5223 504.7224 691.5223 504.6107 687.8339 494.8866 687.7221 493.4336 688.0574 492.0923 688.9516 489.8569 689.3987 487.845 690.8517 485.386 692.9754 483.7095 694.8755 482.7035 708.0645 479.6857 711.8647 477.3385 712.5353 477.2267 713.7648 477.6738 714.659 477.7856 717.3415 471.6382 731.6482 470.9675 736.9014 468.7321 740.031 463.5906 743.3842 451.184 747.5197 451.6311 756.0143 452.4135 767.862 450.9605 770.6563 451.5194 772.4447 452.4135 774.3448 455.6549 776.4684 457.4432 779.3745 459.4551 786.3043 460.014 789.881 468.1733 789.881 469.6263 789.5457 471.3029 788.5397 472.7559 785.969 482.7035 794.3518 485.9449 798.152 484.4919 801.2816 478.1209 803.8524 475.2149 806.1996 472.6441 809.5527 469.4028 813.5765 464.9319 817.9355 457.6668 818.8297 454.9843 818.8297 452.9724 817.712 448.278 818.0473 444.7013 818.6062 442.4659 823.8594 432.1829 824.6418 429.2769 836.1542 425.5884 840.5133 428.271 840.6251 428.271 864.9912 414.2996 878.6273 417.3174 919.6473 402.7871 926.3536 390.6041 932.6128 385.0155 946.6959 380.4329 954.4081 379.0916 958.879 379.427 959.5496 378.7563 959.7732 377.5268 960.332 366.5733 959.7732 360.3141 960.4438 355.1726 962.0086 351.1488 963.4616 349.9194 964.9146 349.584 966.3677 350.59 967.3736 351.9312 968.0442 353.496 969.609 358.9728 970.3914 360.8729 972.068 364.3378 972.5151 365.7909 973.2975 367.2439 974.7505 368.5851 977.0977 369.9264 979.892 370.7088 982.5745 371.1559 991.1809 371.603 991.8515 371.7147 991.9633 371.7147Z" />
  <path class="Shemgang" d="M604.229 312.9231L605.6821 305.5462 607.3586 304.4285 609.3705 303.3108 611.2706 303.0872 612.9472 302.9755 614.512 303.199 616.1886 303.6461 617.5298 304.652 619.9888 307.4463 622.6713 309.57 623.3419 310.6877 624.0125 312.2525 627.5892 316.1645 637.2015 320.7471 646.5903 316.388 650.167 315.8292 654.079 312.8113 661.0088 312.476 663.2442 311.4701 665.2561 310.3524 666.0385 309.4582 666.9327 306.1051 670.7329 317.841 673.0801 323.3178 675.9861 334.4949 678.8922 341.8718 680.0099 342.5425 684.4807 346.678 685.2631 348.6899 685.5985 350.0311 685.7102 355.7315 688.7281 359.867 689.1751 365.3438 688.6163 370.8206 688.281 372.9442 686.2691 377.9739 684.2572 383.8978 684.8161 393.063 694.7637 414.9702 706.1644 418.4351 707.5056 419.441 711.1941 423.1295 713.9883 438.5539 715.6649 440.3422 718.2356 442.4659 720.8064 442.913 723.0418 444.0307 726.0596 446.2661 728.1833 449.5075 730.5305 451.6311 733.1012 452.8606 734.5542 452.9724 738.0191 450.737 743.3842 451.184 740.031 463.5906 736.9014 468.7321 731.6482 470.9675 717.3415 471.6382 714.659 477.7856 713.7648 477.6738 712.5353 477.2267 711.8647 477.3385 708.0645 479.6857 694.8755 482.7035 692.9754 483.7095 690.8517 485.386 689.3987 487.845 688.9516 489.8569 688.0574 492.0923 687.7221 493.4336 687.8339 494.8866 691.5223 504.6107 691.5223 504.7224 689.9575 505.5048 670.8447 506.6226 670.9564 506.5108 671.5153 505.3931 673.3036 504.8342 674.1978 504.2754 674.8684 503.6047 671.9624 490.1922 666.8209 492.5394 665.7032 493.21 664.6972 493.5453 653.5201 494.4395 651.9553 494.216 649.1611 493.5453 637.9839 492.4276 632.9542 493.6571 631.2777 492.7629 629.6011 490.9746 627.5892 486.5037 626.3597 479.3504 625.6891 477.6738 622.5595 471.5264 621.8889 469.4028 619.6535 465.379 616.7474 463.5906 615.1826 461.5788 613.9531 460.6846 612.1648 460.3493 610.8235 459.5669 608.9234 457.3315 606.4645 453.3077 604.3408 451.5194 602.8878 450.5134 593.8343 449.0604 590.9283 447.6074 589.587 442.2424 591.3754 439.4481 592.046 436.7656 591.7107 435.2008 590.9283 432.5183 590.593 430.5064 590.593 426.9297 589.9223 425.1414 588.134 423.0177 587.4634 419.9999 587.0163 416.4232 585.675 414.2996 582.8807 411.0582 575.8392 407.258 573.2684 408.3757 570.6977 409.7169 569.1329 410.2758 567.5681 410.2758 565.8915 409.8287 561.5325 408.0404 553.7085 403.6813 548.6788 399.7693 543.3138 394.2925 541.5254 388.9275 544.8785 385.3508 549.7965 383.3389 551.9201 381.7741 555.9439 377.9739 558.0675 376.7444 559.7441 376.4091 561.1971 377.4151 562.5384 378.6446 563.8796 379.5387 565.668 380.0976 576.8451 379.3152 578.6334 378.6446 579.1923 377.8622 578.7452 376.8562 570.1388 365.4556 568.0152 361.6553 590.2576 351.3724 598.864 345.1132 599.6464 343.5484 599.5347 342.3189 599.4229 341.4248 599.3111 340.5306 599.4229 339.6364 599.4229 338.5187 599.3111 337.2892 598.6405 335.0538 599.1993 331.2536 601.9936 323.9884 604.229 312.9231Z" />
  <path class="Tashi Yangtse" d="M907.576 275.1444L907.576 275.7033 906.7936 277.6034 905.1171 279.7271 902.7699 280.8448 894.4988 282.0743 883.9923 286.4333 866.2207 292.1337 862.8675 292.3572 855.9377 300.5165 854.5965 301.746 847.2196 304.652 846.2136 305.9933 818.1591 296.2692 806.4231 294.9279 811.341 285.4274 812.0117 282.4096 811.6763 281.1801 807.8761 271.9031 786.7514 243.625 781.2746 233.6773 777.5861 228.3123 780.604 221.0472 779.2627 200.3695 780.7157 191.9867 780.604 189.416 778.4803 181.592 778.2568 179.2448 778.8156 176.7858 780.1569 174.2151 781.4981 170.3031 782.1688 164.6028 782.1688 160.8025 783.51 154.9904 784.2924 126.6006 784.0689 122.5768 784.516 120.6767 785.4101 119.0001 786.7514 118.553 788.0926 118.3295 789.5457 117.8824 790.9987 116.7647 800.7228 105.1405 802.5111 104.1345 803.8524 104.2463 806.8702 105.1405 808.3232 104.9169 809.888 104.1345 814.3589 99.999 819.7239 94.1869 822.7417 95.1928 827.1008 95.8635 830.1186 95.8635 831.1245 97.3165 831.3481 97.6518 835.4836 99.1048 835.4836 99.6637 834.5894 102.2344 836.0425 104.2463 844.7606 114.641 855.0436 118.1059 861.7498 123.918 862.1969 123.6945 865.5501 123.3592 868.2326 124.0298 872.3681 126.377 873.374 127.9418 881.9804 129.5066 880.4156 132.5244 877.7331 141.019 858.3967 141.4661 858.9556 151.7491 870.8033 155.3257 879.9685 164.9381 879.745 177.2329 877.286 187.5158 863.0911 207.5229 861.0792 220.6001 867.6737 245.6369 870.5798 250.443 879.1861 257.4846 881.7569 263.1849 886.563 268.5499 893.4928 270.6736 900.8697 272.1266 907.576 275.1444Z" />
  <path class="Tashigang" d="M907.576 275.1444L923.4475 276.2622 934.6246 274.5856 946.8077 273.0208 960.1085 275.1444 979.1096 272.0149 982.6862 270.8971 997.3283 279.6153 1015.8823 328.124 1017 332.2595 1014.9881 338.0716 1005.4876 346.1191 1001.352 351.2606 1000.2343 354.2784 999.2284 360.7612 998.3342 363.6672 996.6576 366.4615 992.7457 370.597 991.9633 371.7147 991.8515 371.7147 991.1809 371.603 982.5745 371.1559 979.892 370.7088 977.0977 369.9264 974.7505 368.5851 973.2975 367.2439 972.5151 365.7909 972.068 364.3378 970.3914 360.8729 969.609 358.9728 968.0442 353.496 967.3736 351.9312 966.3677 350.59 964.9146 349.584 963.4616 349.9194 962.0086 351.1488 960.4438 355.1726 959.7732 360.3141 960.332 366.5733 959.7732 377.5268 959.5496 378.7563 958.879 379.427 954.4081 379.0916 946.6959 380.4329 932.6128 385.0155 926.3536 390.6041 919.6473 402.7871 878.6273 417.3174 864.9912 414.2996 840.6251 428.271 840.5133 428.271 836.1542 425.5884 837.9426 411.5053 837.4955 411.0582 826.6537 410.9464 822.5182 408.9345 821.2887 407.8168 814.8059 403.4578 813.8 402.6754 812.5705 401.2223 809.6645 395.9691 807.429 392.8395 807.429 391.2747 807.9879 388.8157 811.0057 385.0155 815.1413 377.8622 802.5111 376.2974 803.2935 372.1618 804.0759 354.7255 806.3113 348.9134 818.0473 337.401 830.2304 331.2536 829.448 327.0063 829.448 325.7768 829.1127 324.5473 828.5538 322.9825 826.6537 319.6294 826.5419 318.2881 825.8713 316.8351 824.4183 315.4938 816.259 310.9112 812.0117 306.8875 804.8583 302.1931 807.8761 299.0635 806.4231 294.9279 818.1591 296.2692 846.2136 305.9933 847.2196 304.652 854.5965 301.746 855.9377 300.5165 862.8675 292.3572 866.2207 292.1337 883.9923 286.4333 894.4988 282.0743 902.7699 280.8448 905.1171 279.7271 906.7936 277.6034 907.576 275.7033 907.576 275.1444Z" />
  <path class="Thimphu" d="M271.2627 383.6743L264.3329 384.5684 256.8442 380.7682 253.4911 378.1975 245.6671 373.8384 245.3318 371.0441 251.591 362.773 268.692 350.8135 268.0213 348.0193 266.4565 347.0133 256.956 344.3308 254.8323 345.0014 253.6029 344.5543 252.5969 343.2131 251.591 338.5187 250.3615 334.8303 248.4614 331.03 243.4317 327.2298 243.3199 326.1121 242.9846 318.1763 241.8669 316.6116 239.9668 314.4879 232.2546 309.7935 234.49 300.5165 234.0429 297.1634 233.3723 294.4809 232.1428 293.1396 228.3426 291.6866 227.1131 291.3513 224.5424 290.1218 222.4187 286.4333 222.8658 273.6914 225.1012 258.3788 225.4365 250.443 226.1072 246.1957 228.4543 240.8307 225.1012 239.2659 221.8598 236.3598 217.5008 227.6417 210.6827 218.2529 205.3177 213.1114 202.6352 211.4349 200.5116 210.7642 195.8172 211.4349 204.0882 201.8226 199.6174 195.1163 199.1703 193.2162 198.6114 188.8571 198.4997 186.6217 199.1703 176.674 193.3582 178.5741 188.9991 181.2567 185.8695 181.8155 178.4926 182.2626 175.1395 183.9392 171.8981 186.0628 169.3274 186.6217 166.9802 186.2864 160.721 184.0509 159.7151 183.3803 157.815 181.4802 156.4737 180.6978 151.8911 179.4683 150.3263 178.6859 150.2145 176.8976 149.4321 173.2091 149.3204 173.2091 149.6557 169.9678 150.4381 165.7205 151.8911 163.2615 152.5617 161.4732 154.2383 158.9024 156.0266 157.4494 158.9327 156.2199 159.1562 156.1081 161.5034 154.208 163.2917 151.302 164.633 149.0666 167.2037 146.8311 168.2097 146.1605 173.2394 143.8133 178.3809 139.9013 178.4926 139.9013 178.7162 139.9013 194.6994 128.6124 202.2999 121.2355 202.747 120.1178 203.6411 118.2177 204.7589 116.4294 208.5591 111.6232 210.571 109.3878 211.6887 107.823 213.1417 105.0287 214.4829 103.2404 215.936 99.999 216.8301 97.54 217.7243 95.6399 218.3949 93.9634 220.1833 94.1869 222.754 95.1928 231.0251 99.8872 234.7135 104.8052 236.5019 116.3176 238.402 119.559 242.4257 121.1238 249.8026 122.5768 250.6968 123.2474 250.4733 124.2534 248.3496 125.8182 246.7848 126.6006 245.1083 127.7183 243.6552 129.1713 233.2605 142.9191 231.8075 145.6017 231.1369 147.39 231.5839 150.0725 232.1428 151.9726 232.2546 154.3198 232.031 157.0023 230.3545 164.2674 227.8955 167.1735 228.5661 169.4089 229.125 170.3031 229.7956 171.309 230.4662 172.2032 231.2486 172.9856 232.031 173.5444 232.9252 174.1033 233.9311 174.5504 234.9371 174.6622 236.0548 174.3268 238.1784 170.9737 240.0785 168.403 240.7492 167.2853 242.8728 166.1675 249.4673 166.6146 250.2497 170.6384 252.3734 176.1152 252.9322 178.7977 254.1617 180.3625 255.2794 181.3684 266.6801 187.9629 271.2627 195.0045 271.9333 196.3458 273.3864 204.6168 273.6099 211.4349 272.604 215.5704 272.604 217.8058 273.3864 220.6001 274.9512 223.7297 277.4101 226.8593 279.3102 229.8771 281.6574 235.4657 283.2222 238.5953 287.3578 242.5073 291.0462 248.2076 299.2055 241.6131 311.6121 237.4776 313.7358 240.8307 318.7655 248.4311 319.2125 250.1077 320.8891 252.1196 321.7833 252.902 329.0484 253.9079 329.6073 256.9257 329.4955 258.7141 328.9366 262.179 327.8189 266.4263 323.0128 270.8971 307.253 275.2562 305.8 281.6272 305.3529 287.9981 307.7001 294.9279 291.6051 309.0111 293.9523 311.9172 296.4112 313.7055 297.3054 314.1526 297.8642 314.935 297.8642 318.5117 297.3054 322.2001 297.3054 342.8778 293.8405 342.2072 291.3815 349.4723 289.3696 352.8254 286.7989 355.3961 284.8988 356.5139 281.5457 357.8551 279.8691 358.7493 278.3043 359.867 276.8513 362.4377 275.2865 366.5733 274.1688 374.509 271.2627 383.6743Z" />
  <path class="Tongsa" d="M525.7657 167.1735L528.3364 169.0736 529.1188 170.0795 530.013 170.7502 531.0189 170.7502 532.0249 170.5266 533.3661 170.3031 535.0427 170.4149 536.7193 170.9737 538.1723 171.8679 538.9547 172.762 542.5314 178.0153 543.202 179.3565 543.8726 180.9213 544.2079 183.9392 544.2079 187.9629 543.4255 196.9046 541.1901 204.2815 540.9666 206.2934 540.8548 208.9759 540.2959 213.1114 540.4077 215.6822 540.743 217.1352 542.196 218.2529 542.8667 219.2589 544.0961 228.6476 545.2139 232.8949 547.6728 234.4597 554.7144 258.7141 556.0557 267.4322 554.3791 271.6795 556.8381 278.4976 564.3267 281.1801 567.3446 281.8507 568.574 282.5213 569.58 283.4155 570.9212 285.4274 572.486 286.5451 575.2803 287.7746 579.1923 289.1158 581.5395 290.2336 587.6869 294.7044 604.229 312.9231 601.9936 323.9884 599.1993 331.2536 598.6405 335.0538 599.3111 337.2892 599.4229 338.5187 599.4229 339.6364 599.3111 340.5306 599.4229 341.4248 599.5347 342.3189 599.6464 343.5484 598.864 345.1132 590.2576 351.3724 568.0152 361.6553 570.1388 365.4556 578.7452 376.8562 579.1923 377.8622 578.6334 378.6446 576.8451 379.3152 565.668 380.0976 563.8796 379.5387 562.5384 378.6446 561.1971 377.4151 559.7441 376.4091 558.0675 376.7444 555.9439 377.9739 551.9201 381.7741 549.7965 383.3389 544.8785 385.3508 541.5254 388.9275 537.0546 388.3686 532.5837 386.8039 530.7954 386.5803 529.1188 386.5803 527.7776 386.6921 526.5481 386.5803 525.2068 386.245 523.7538 385.5744 521.9655 384.3449 519.6183 381.6624 515.818 379.3152 506.0939 371.2677 486.9811 360.4259 492.6814 352.2666 494.2462 346.678 494.1344 342.2072 488.993 339.0776 487.7635 329.4652 486.4222 326.1121 484.2986 323.5414 475.1333 315.3821 473.9039 313.482 473.2332 311.9172 473.5685 310.7994 473.4568 309.3464 473.7921 308.1169 469.8801 303.3108 465.0739 294.7044 463.5091 284.3097 462.615 281.6272 457.1382 272.2384 468.0917 269.5559 469.9919 268.3264 475.2451 263.1849 477.9276 261.8437 481.9514 260.726 484.1868 260.5024 485.9751 260.8377 487.5399 261.7319 488.5459 261.5084 489.3283 260.9495 490.3342 259.72 491.6755 258.7141 494.9168 255.5845 486.0869 251.1136 482.8455 247.0899 477.4805 235.9128 476.9217 234.2362 475.6922 231.2184 475.5804 230.3242 475.1333 228.9829 474.5745 227.5299 473.2332 224.6239 472.6744 222.7238 472.7861 220.3766 476.8099 214.8998 477.7041 212.7761 478.3747 206.6287 478.9336 204.5051 479.716 203.052 480.8337 201.4872 481.9514 200.7048 483.0691 200.4813 484.075 200.8166 485.1927 201.3755 486.3105 201.7108 487.3164 201.8226 489.1047 201.7108 491.6755 201.1519 493.7991 200.2578 495.4757 199.9224 497.0405 199.8107 500.0583 202.0461 501.5113 202.605 503.0761 202.605 516.9358 196.6811 520.0653 194.2221 521.7419 191.5396 522.8596 187.8512 525.6539 171.9796 525.7657 167.1735Z" />
  <path class="Wangdi Phodrang" d="M528.8953 65.6853L519.73 73.8446 514.9239 81.8921 521.6301 90.4985 522.3008 92.9574 522.3008 95.3046 521.5184 98.4342 520.6242 100.1108 519.8418 101.452 519.0594 102.2344 518.7241 102.9051 518.6123 103.6875 518.8359 104.4699 519.8418 105.6993 520.6242 107.2641 521.4066 109.9466 522.3008 112.1821 523.0832 113.4116 523.7538 113.9704 527.4422 114.8646 528.4482 115.1999 529.2306 115.8705 530.1248 117.2118 530.5718 118.7766 531.1307 121.2355 531.9131 122.5768 532.6955 123.8063 533.3661 125.1475 533.7014 127.1594 534.0367 130.5125 532.4719 140.3484 529.1188 146.9429 527.2187 149.5136 525.6539 150.5196 524.648 150.4078 523.8656 152.0844 523.5303 153.5374 525.7657 167.1735 525.6539 171.9796 522.8596 187.8512 521.7419 191.5396 520.0653 194.2221 516.9358 196.6811 503.0761 202.605 501.5113 202.605 500.0583 202.0461 497.0405 199.8107 495.4757 199.9224 493.7991 200.2578 491.6755 201.1519 489.1047 201.7108 487.3164 201.8226 486.3105 201.7108 485.1927 201.3755 484.075 200.8166 483.0691 200.4813 481.9514 200.7048 480.8337 201.4872 479.716 203.052 478.9336 204.5051 478.3747 206.6287 477.7041 212.7761 476.8099 214.8998 472.7861 220.3766 472.6744 222.7238 473.2332 224.6239 474.5745 227.5299 475.1333 228.9829 475.5804 230.3242 475.6922 231.2184 476.9217 234.2362 477.4805 235.9128 482.8455 247.0899 486.0869 251.1136 494.9168 255.5845 491.6755 258.7141 490.3342 259.72 489.3283 260.9495 488.5459 261.5084 487.5399 261.7319 485.9751 260.8377 484.1868 260.5024 481.9514 260.726 477.9276 261.8437 475.2451 263.1849 469.9919 268.3264 468.0917 269.5559 457.1382 272.2384 462.615 281.6272 463.5091 284.3097 465.0739 294.7044 469.8801 303.3108 473.7921 308.1169 473.4568 309.3464 473.5685 310.7994 473.2332 311.9172 473.9039 313.482 475.1333 315.3821 484.2986 323.5414 486.4222 326.1121 487.7635 329.4652 488.993 339.0776 494.1344 342.2072 494.2462 346.678 492.6814 352.2666 486.9811 360.4259 482.7338 364.7849 479.8277 368.3616 479.716 373.7266 472.0037 378.7563 465.2975 380.88 456.5793 385.6861 453.6733 382.8919 450.4319 381.1035 446.0728 377.3033 444.8433 376.7444 443.3903 376.7444 438.9195 378.1975 428.3012 379.0916 424.1657 378.421 408.6295 371.4912 402.3703 373.1678 402.8174 396.5279 394.8816 391.61 390.1872 390.8276 378.4513 385.6861 365.9329 384.2331 358.7795 374.6208 354.9793 367.5792 353.4145 363.4437 352.6321 361.7671 350.3967 358.414 347.4906 354.9491 340.8961 349.584 337.2077 345.8956 332.7369 342.9895 330.2779 342.0954 321.2244 342.766 314.8535 339.1893 297.3054 342.8778 297.3054 322.2001 297.8642 318.5117 297.8642 314.935 297.3054 314.1526 296.4112 313.7055 293.9523 311.9172 291.6051 309.0111 307.7001 294.9279 305.3529 287.9981 305.8 281.6272 307.253 275.2562 323.0128 270.8971 327.8189 266.4263 328.9366 262.179 329.4955 258.7141 329.6073 256.9257 329.0484 253.9079 329.3837 253.9079 341.9021 254.8021 342.3492 254.8021 357.3265 251.0019 364.3681 245.078 365.8211 239.8248 365.9329 239.8248 376.4394 230.8831 384.1516 220.4883 391.0814 218.2529 395.3287 213.7821 396.1111 211.6584 395.9993 209.0877 394.9934 207.5229 392.6462 205.0639 390.1872 202.0461 387.9518 200.0342 385.7164 199.14 383.7045 198.9165 379.6807 199.5871 377.5571 199.3636 375.4334 198.2459 373.0862 195.6751 372.7509 192.322 372.9745 188.5218 373.7569 185.951 374.4275 184.0509 375.657 182.3744 380.3514 177.3447 383.3692 174.6622 386.2752 168.8501 385.8282 158.5671 387.5047 147.5018 388.3989 146.384 389.6284 145.0428 391.0814 145.0428 392.4227 144.7075 393.8757 144.2604 400.1349 143.2545 403.488 142.025 409.5237 138.6718 412.2062 135.8776 414.218 133.195 415.3358 130.6243 428.1894 108.4936 430.3131 102.6815 431.6543 100.7814 432.9956 99.7755 434.4486 99.4402 444.3963 98.7695 449.3142 98.546 454.3439 102.9051 455.3498 104.8052 455.7969 106.4817 455.4616 107.3759 455.2381 108.2701 455.2381 109.1642 455.9087 111.1761 461.8326 121.012 465.9681 124.7004 468.5388 126.377 470.3272 126.2652 471.7802 125.2593 473.5685 123.5827 475.3569 122.9121 477.3688 122.8003 481.5043 124.0298 483.2926 123.918 485.1927 123.5827 488.4341 123.3592 490.1107 122.0179 490.8931 120.2296 490.7813 118.3295 490.3342 116.2058 490.3342 112.8527 489.9989 111.2879 489.44 109.6113 488.6576 108.0465 488.4341 106.4817 488.6576 103.7992 488.0988 101.8991 488.5459 98.9931 490.446 95.7517 499.9465 90.0514 502.7408 87.4806 505.9822 82.4509 507.8823 78.0919 508.6647 71.0503 513.2473 67.4736 515.2592 66.0206 528.8953 65.6853Z" />
</svg>