<?xml version="1.0" encoding="utf-8"?>
<svg xmlns="http://www.w3.org/2000/svg" viewBox="0 0 1021 436" style="stroke-width:0.25px;stroke-linejoin:round;stroke:#444;fill:#ddd" fill-rule="evenodd">
  <path class="Aileu" d="M514.1415 210.4554L515.1474 202.9668 509.8942 202.0726 500.7289 203.5256 496.9287 206.0964 493.1285 208.6671 486.4222 210.2319 484.4103 215.9322 478.1512 223.6444 467.98 227.3329 453.4497 229.3448 452.1085 229.5683 449.6495 224.7622 448.1965 219.0618 439.9254 214.9263 435.3428 210.2319 440.3725 204.0845 442.7197 197.1547 437.8018 192.125 438.5842 188.3248 448.5318 184.8598 455.2381 181.0596 458.8147 171.4473 455.6851 165.1881 454.2321 165.0763 456.244 161.6114 459.5971 155.7993 462.3914 157.923 474.5745 156.1347 484.4103 152.7815 491.7872 151.3285 502.2937 145.5164 516.4887 138.5866 528.4482 139.369 536.831 144.2869 537.5017 144.1751 535.6015 154.9052 539.9606 164.8528 544.3197 171.4473 549.1259 182.5127 550.3553 197.49 542.196 196.8194 537.0546 198.4959 531.466 204.0845 520.1771 209.7848 514.1415 210.4554Z" />
  <path class="Ainaro" d="M428.1894 285.4539L428.7483 277.6299 428.9718 269.2471 438.1371 266.5646 438.3606 258.9641 441.2667 254.8286 444.9551 250.6931 447.0788 245.3281 452.6673 240.2983 453.6733 232.3626 452.1085 229.5683 453.4497 229.3448 467.98 227.3329 478.1512 223.6444 484.4103 215.9322 486.4222 210.2319 493.1285 208.6671 496.9287 206.0964 500.7289 203.5256 509.8942 202.0726 515.1474 202.9668 514.1415 210.4554 514.0297 211.0143 511.5707 223.1974 510.2295 230.9096 510.0059 236.7217 509.1118 245.5516 504.3056 248.5694 494.1344 248.4576 486.9811 252.2579 485.9751 258.1817 483.4044 264.1056 480.8337 268.5765 480.2748 274.5003 481.169 284.895 485.4163 292.1602 494.5815 296.1839 502.2937 299.8724 506.8763 304.2315 509.4471 311.273 507.6587 316.0792 505.4233 321.6678 507.6587 333.1802 508.5529 335.3039 505.4233 335.4156 489.7754 333.1802 484.6339 334.1861 478.3747 339.2158 472.0037 342.9043 452.1085 350.2812 454.3439 341.6748 459.3736 326.3622 454.3439 323.4561 447.5259 321.6678 443.5021 316.7498 442.3844 304.5668 439.143 296.7428 434.7839 294.7309 432.6603 290.0365 428.6365 285.3421 428.1894 285.4539Z" />
  <path class="Ambeno" d="M131.1017 331.2801L131.437 337.651 126.7426 354.9756 125.2895 365.9292 124.0601 368.6117 123.1659 369.9529 121.9364 370.9589 116.0125 378.7828 106.7355 386.7186 103.8295 388.2834 102.4882 388.2834 101.3705 388.954 99.3586 392.1954 98.5762 401.4724 97.4585 403.9314 94.4407 408.1787 93.323 410.5259 93.4348 412.6495 94.776 418.1263 94.5525 421.0323 91.7582 425.3914 87.6227 428.0739 82.3694 429.4152 76.4455 429.974 72.6453 430.8682 71.3041 431.9859 71.0805 431.3153 70.0746 427.2915 70.0746 425.5032 71.1923 419.9146 71.3041 417.5674 70.2981 412.3142 68.0627 406.9492 65.0449 401.8077 61.58 397.5604 56.8856 393.5366 52.7501 391.7483 48.5028 391.9718 43.3613 394.0955 39.2257 397.6722 33.0783 406.2785 29.1663 408.6257 19.554 406.9492 11.0594 399.5723 1 382.0242 6.5886 380.4594 31.6253 370.4 37.1021 369.7294 41.0141 367.7175 47.7204 357.9934 50.7382 354.752 60.127 350.393 80.6928 344.022 110.9828 338.2099 114.4477 336.3098 117.1303 332.8449 123.2777 331.7272 130.9899 331.2801 131.1017 331.2801Z" />
  <path class="Baucau" d="M653.9672 174.9122L660.4499 168.8766 664.0266 163.8469 666.0385 156.9171 665.4796 146.7459 664.5855 137.2453 663.6913 129.9802 660.4499 123.8328 654.5261 119.1384 658.5498 118.5795 672.5212 118.356 684.9278 116.5677 691.4106 113.3263 705.0466 103.714 714.8825 100.8079 725.1655 94.9958 728.6304 94.437 734.7778 94.3252 738.0191 92.8722 743.6077 97.0077 750.2022 99.6902 757.3556 101.1432 764.5089 101.5903 769.0915 103.2669 780.4922 114.1087 793.2341 109.7496 817.0414 98.4607 823.6359 96.6724 828.3303 103.6022 830.5657 111.4262 833.9188 115.0029 838.8367 118.0207 838.0543 123.2739 835.3718 127.5212 840.0662 132.1039 850.908 141.9397 859.5144 150.7696 861.8616 155.7993 857.9496 159.0407 849.5668 165.1881 843.1958 174.5769 839.2838 179.7184 834.9248 174.018 829.3362 169.7707 822.1828 167.7589 812.1234 164.741 804.7465 168.3177 801.1699 175.6946 797.1461 177.5947 792.0046 174.5769 783.8453 173.4592 771.2152 175.5828 762.8323 171.4473 757.5791 157.6994 751.5435 151.7756 749.4198 159.9349 748.5256 169.3237 749.6433 178.8242 744.3901 182.848 736.3426 179.6066 726.5067 176.1417 713.0942 173.1239 697.7815 174.018 683.1395 179.4948 666.5974 179.1595 653.9672 174.9122Z" />
  <path class="Bobonaro" d="M348.3848 328.374L347.9377 326.4739 346.5965 323.2326 346.0376 320.3265 351.2909 300.543 351.4026 293.8367 348.8319 287.5776 344.2493 282.5479 338.6607 278.5241 332.8486 275.171 330.6132 273.1591 329.4955 271.259 328.0425 270.4766 324.8011 271.9296 323.6834 273.7179 322.3421 279.7536 321.3362 282.1008 317.2007 285.7892 302.5586 292.1602 294.6229 297.3017 290.5991 298.9782 285.0106 299.4253 280.4279 298.084 276.7395 295.2898 274.1688 291.266 272.604 286.5716 273.051 281.0948 277.1866 270.4766 276.1806 262.8761 286.7989 256.8405 293.2816 250.3578 308.3707 227.4447 309.712 222.6385 312.5063 219.8442 326.4777 214.7028 330.9485 210.7908 332.178 205.314 332.9604 193.4662 333.0722 193.4662 339.1078 195.8134 345.1435 198.3842 354.4205 198.3842 356.6559 197.8253 358.7795 203.3021 370.292 205.6493 375.2099 208.1083 379.0101 214.3674 387.7283 231.3567 396.3347 249.1283 398.0112 255.2757 398.9054 264.6645 402.1468 272.1531 421.4832 271.3707 428.9718 269.2471 428.7483 277.6299 428.1894 285.4539 420.1419 287.354 412.765 293.6132 411.312 301.7725 410.1943 313.3967 406.9529 319.5441 396.8935 319.097 391.5285 320.3265 399.9113 330.9448 397.4524 340.4453 380.0161 342.9043 368.6154 341.8983 367.1624 337.7628 365.0387 334.5215 360.5679 332.0625 350.0614 328.8211 348.3848 328.374Z" />
  <path class="Cova Lima" d="M348.3848 328.374L350.0614 328.8211 360.5679 332.0625 365.0387 334.5215 367.1624 337.7628 368.6154 341.8983 380.0161 342.9043 397.4524 340.4453 399.9113 330.9448 391.5285 320.3265 396.8935 319.097 406.9529 319.5441 410.1943 313.3967 411.312 301.7725 412.765 293.6132 420.1419 287.354 428.1894 285.4539 428.6365 285.3421 432.6603 290.0365 434.7839 294.7309 439.143 296.7428 442.3844 304.5668 443.5021 316.7498 447.5259 321.6678 454.3439 323.4561 459.3736 326.3622 454.3439 341.6748 452.1085 350.2812 418.3536 362.9113 407.1765 369.7294 391.305 383.0301 382.6986 386.8304 379.0101 391.3012 373.198 399.9076 369.8449 403.7078 366.4917 406.3903 362.0209 407.9551 347.4906 409.0728 341.5668 410.7494 336.3135 414.1025 330.9485 419.3558 320.2185 427.068 316.8653 407.9551 315.4123 403.2607 308.4825 392.3072 308.1472 390.0717 308.8178 385.1538 308.3707 383.1419 306.6942 381.0183 300.0997 376.8827 292.7228 370.2882 290.5991 366.7116 288.8108 361.3465 286.9107 350.5047 288.1402 341.2277 293.2816 334.9685 303.341 333.0684 309.712 333.1802 311.8356 333.7391 313.9593 335.3039 317.6477 339.5512 319.6596 340.7806 324.0187 341.0042 326.7012 339.2158 329.4955 336.4216 334.1899 333.8508 337.6548 333.5155 345.2552 334.0744 347.7142 332.8449 348.7201 329.8271 348.3848 328.374Z" />
  <path class="Dili" d="M557.5087 115.3382L562.9855 122.4915 558.0675 128.9743 552.0319 133.5569 545.3256 141.9397 537.5017 144.1751 536.831 144.2869 528.4482 139.369 516.4887 138.5866 502.2937 145.5164 491.7872 151.3285 484.4103 152.7815 474.5745 156.1347 462.3914 157.923 459.5971 155.7993 455.1263 152.558 453.2262 142.3868 452.7791 139.5925 468.7624 132.3274 476.251 131.4332 484.2986 133.7804 487.8752 133.5569 496.3699 124.9505 502.0702 127.4095 511.2354 127.7448 528.0011 124.9505 557.5087 115.3382ZM477.3688 23.2387L480.7219 17.7619 488.4341 9.7144 496.9287 4.0141 502.5173 6.473 499.8348 16.4207 487.8752 45.9283 485.7516 55.4288 484.4103 57.8878 481.6161 60.1232 478.5982 61.0174 477.3688 59.6761 475.3569 58.5584 465.2975 55.5406 461.2737 53.1934 458.0323 49.505 457.0264 46.4871 457.8088 43.4693 460.2678 39.3338 464.068 35.5336 475.0216 27.2625 477.3688 23.2387Z" />
  <path class="Ermera" d="M428.9718 269.2471L421.4832 271.3707 402.1468 272.1531 398.9054 264.6645 398.0112 255.2757 396.3347 249.1283 387.7283 231.3567 379.0101 214.3674 375.2099 208.1083 370.292 205.6493 358.7795 203.3021 356.6559 197.8253 371.4097 194.6957 385.6046 188.9954 393.6521 184.6363 408.6295 181.7303 421.0361 179.3831 426.6246 175.024 434.8957 168.5413 446.0728 164.741 454.2321 165.0763 455.6851 165.1881 458.8147 171.4473 455.2381 181.0596 448.5318 184.8598 438.5842 188.3248 437.8018 192.125 442.7197 197.1547 440.3725 204.0845 435.3428 210.2319 439.9254 214.9263 448.1965 219.0618 449.6495 224.7622 452.1085 229.5683 453.6733 232.3626 452.6673 240.2983 447.0788 245.3281 444.9551 250.6931 441.2667 254.8286 438.3606 258.9641 438.1371 266.5646 428.9718 269.2471Z" />
  <path class="Lautém" d="M836.0425 199.949L836.0425 188.9954 838.2779 181.1714 839.2838 179.7184 843.1958 174.5769 849.5668 165.1881 857.9496 159.0407 861.8616 155.7993 859.5144 150.7696 850.908 141.9397 840.0662 132.1039 835.3718 127.5212 838.0543 123.2739 838.8367 118.0207 833.9188 115.0029 830.5657 111.4262 828.3303 103.6022 823.6359 96.6724 825.0889 96.2253 831.0128 92.0898 833.4717 90.9721 836.9366 90.9721 842.1899 92.5369 844.4253 92.8722 857.9496 90.0779 871.2504 84.154 902.9934 61.4645 909.9232 58.4466 915.1765 59.6761 919.8708 63.2528 941.6662 73.6475 947.5901 75.2123 955.3023 75.9947 962.791 75.2123 968.2678 72.6416 977.7683 65.8235 979.892 64.9294 983.9157 65.8235 985.3688 67.8354 986.2629 70.6297 988.2748 73.6475 994.8693 77.5595 1008.8407 81.4715 1014.7646 85.3835 1017 91.6427 1013.9822 97.0077 991.2926 113.9969 977.2095 128.3036 948.8196 150.4343 928.8125 169.9943 926.6889 173.2356 923.0004 173.571 901.3168 178.3771 881.4216 192.9074 872.4799 197.2664 836.0425 199.949Z" />
  <path class="Liquica" d="M356.6559 197.8253L354.4205 198.3842 345.1435 198.3842 339.1078 195.8134 333.0722 193.4662 332.9604 193.4662 334.0781 177.2594 336.7606 170.1061 340.7844 163.7351 345.8141 159.376 351.9615 157.2524 366.1564 155.1287 372.0803 151.8873 374.5393 151.2167 385.9399 152.8933 389.4048 151.9991 398.5701 146.5223 419.0242 140.5985 425.2834 139.9278 445.6257 141.2691 451.9967 139.9278 452.7791 139.5925 453.2262 142.3868 455.1263 152.558 459.5971 155.7993 456.244 161.6114 454.2321 165.0763 446.0728 164.741 434.8957 168.5413 426.6246 175.024 421.0361 179.3831 408.6295 181.7303 393.6521 184.6363 385.6046 188.9954 371.4097 194.6957 356.6559 197.8253Z" />
  <path class="Manatuto" d="M625.3538 292.719L624.6832 289.0306 620.5476 281.8772 607.2469 272.3767 593.6108 264.4409 588.8046 256.8405 581.5395 248.1223 570.9212 242.8691 561.4207 237.7276 551.9201 229.9036 548.3435 215.9322 550.4671 198.3842 550.3553 197.49 549.1259 182.5127 544.3197 171.4473 539.9606 164.8528 535.6015 154.9052 537.5017 144.1751 545.3256 141.9397 552.0319 133.5569 558.0675 128.9743 562.9855 122.4915 557.5087 115.3382 564.4385 113.1028 578.9688 112.3204 611.2706 118.0207 623.6772 124.0563 632.0601 124.9505 638.7663 123.6092 651.9553 119.4737 654.5261 119.1384 660.4499 123.8328 663.6913 129.9802 664.5855 137.2453 665.4796 146.7459 666.0385 156.9171 664.0266 163.8469 660.4499 168.8766 653.9672 174.9122 651.2847 173.9063 645.1373 173.0121 639.1017 177.0359 635.4132 186.9835 631.9483 195.031 626.1362 198.8312 622.1124 204.1963 620.9947 210.2319 628.3716 221.5208 634.8543 233.5921 635.0779 240.2983 636.4191 247.0046 639.7723 256.3934 645.1373 264.1056 653.1848 274.3886 653.2966 274.7239 648.3787 276.8475 625.3538 292.719Z" />
  <path class="Manufahi" d="M508.5529 335.3039L507.6587 333.1802 505.4233 321.6678 507.6587 316.0792 509.4471 311.273 506.8763 304.2315 502.2937 299.8724 494.5815 296.1839 485.4163 292.1602 481.169 284.895 480.2748 274.5003 480.8337 268.5765 483.4044 264.1056 485.9751 258.1817 486.9811 252.2579 494.1344 248.4576 504.3056 248.5694 509.1118 245.5516 510.0059 236.7217 510.2295 230.9096 511.5707 223.1974 514.0297 211.0143 514.1415 210.4554 520.1771 209.7848 531.466 204.0845 537.0546 198.4959 542.196 196.8194 550.3553 197.49 550.4671 198.3842 548.3435 215.9322 551.9201 229.9036 561.4207 237.7276 570.9212 242.8691 581.5395 248.1223 588.8046 256.8405 593.6108 264.4409 607.2469 272.3767 620.5476 281.8772 624.6832 289.0306 625.3538 292.719 594.2814 314.1791 588.4693 316.0792 570.2506 313.1732 564.1032 313.732 560.7501 315.5204 553.932 321.2207 550.3553 322.4502 537.5017 322.4502 531.0189 324.1267 511.1237 335.3039 508.5529 335.3039Z" />
  <path class="Viqueque" d="M653.2966 274.7239L653.1848 274.3886 645.1373 264.1056 639.7723 256.3934 636.4191 247.0046 635.0779 240.2983 634.8543 233.5921 628.3716 221.5208 620.9947 210.2319 622.1124 204.1963 626.1362 198.8312 631.9483 195.031 635.4132 186.9835 639.1017 177.0359 645.1373 173.0121 651.2847 173.9063 653.9672 174.9122 666.5974 179.1595 683.1395 179.4948 697.7815 174.018 713.0942 173.1239 726.5067 176.1417 736.3426 179.6066 744.3901 182.848 749.6433 178.8242 748.5256 169.3237 749.4198 159.9349 751.5435 151.7756 757.5791 157.6994 762.8323 171.4473 771.2152 175.5828 783.8453 173.4592 792.0046 174.5769 797.1461 177.5947 801.1699 175.6946 804.7465 168.3177 812.1234 164.741 822.1828 167.7589 829.3362 169.7707 834.9248 174.018 839.2838 179.7184 838.2779 181.1714 836.0425 188.9954 836.0425 199.949 825.4242 200.7314 818.7179 202.2961 815.0295 204.0845 805.976 210.7908 803.7406 211.7967 801.0581 212.3556 794.3518 212.8026 791.1105 213.9204 779.0392 227.8917 767.7503 247.1164 756.7967 256.8405 743.7195 260.5289 661.903 271.1472 653.2966 274.7239Z" />
</svg>