<?xml version="1.0" encoding="utf-8"?>
<svg xmlns="http://www.w3.org/2000/svg" viewBox="0 0 985 1024" style="stroke-width:0.25px;stroke-linejoin:round;stroke:#444;fill:#ddd" fill-rule="evenodd">
  <path class="Bomi" d="M96.8948 480.257L96.1124 477.3509 95.7771 474.2213 96.1124 472.433 96.7831 470.5329 98.6832 467.6268 100.0244 466.1738 101.2539 465.1679 102.2598 464.4972 104.607 463.4913 107.066 462.9325 108.0719 462.0383 108.519 460.4735 108.8543 457.4557 109.525 455.2202 111.2015 452.6495 112.3193 451.42 113.5487 450.5259 114.4429 449.967 115.3371 449.6317 116.1195 449.5199 117.2372 449.7435 119.2491 450.5259 120.1432 450.3023 120.7021 449.7435 121.0374 449.1846 121.5963 447.508 123.4964 440.0194 123.8317 435.2132 124.3905 431.413 123.7199 428.6187 122.9375 427.2774 120.4785 424.5949 120.1432 423.2537 120.3668 421.3536 123.4964 414.5355 129.7556 397.5463 129.9791 395.5344 129.6438 393.0755 129.7556 390.9518 130.7615 386.3692 129.8673 383.6867 131.6557 383.0161 133.2205 383.0161 146.5212 387.5987 149.3155 387.934 154.457 387.5987 158.9278 386.3692 160.1573 386.3692 161.1633 386.3692 176.1406 389.4988 177.4818 390.7283 177.8172 391.6224 177.7054 392.6284 178.0407 393.299 178.376 393.7461 178.9349 394.305 178.7113 394.752 177.9289 394.9756 174.2405 394.8638 173.3463 394.9756 172.7875 395.4227 172.7875 395.9815 172.8992 396.7639 173.3463 397.7699 173.6816 398.5523 173.7934 399.2229 173.7934 399.8935 173.3463 401.5701 173.011 402.4642 172.7875 403.2466 172.4521 404.029 172.2286 404.6997 172.3404 405.3703 172.8992 407.0469 173.3463 407.8293 173.6816 408.8352 173.5699 409.8411 173.011 410.7353 172.8992 411.5177 173.2345 413.1943 173.2345 413.8649 172.5639 415.3179 172.4521 415.9886 172.7875 417.3298 174.464 419.0064 175.0229 419.5652 175.3582 420.5712 175.8053 421.5771 176.6994 422.8066 178.376 424.7067 180.0526 426.3833 181.5056 426.495 183.5175 426.1597 187.8766 424.2596 190.3355 422.9184 192.2356 421.4653 194.6946 419.3417 196.5947 418.224 209.1131 413.3061 235.3793 413.1943 242.4209 411.6295 238.6207 418.3358 237.0559 420.1241 233.7028 421.4653 233.4792 421.5771 228.7848 423.4772 222.1903 424.2596 220.6255 425.1538 220.1784 427.3892 220.2902 430.6306 219.9549 433.6484 218.1666 434.9897 217.2724 436.2191 217.6077 439.1252 218.8372 444.1549 218.0548 446.2785 213.9193 451.0847 212.4662 453.2084 212.8015 453.3201 212.4662 458.0145 212.1309 459.4675 211.2367 461.703 210.7897 463.156 210.5661 465.7267 210.7897 473.7743 211.7956 475.5626 218.1666 482.0453 220.1784 484.9514 220.1784 486.6279 217.3842 489.4222 211.7956 493.7813 209.1131 494.3402 205.0893 492.44 204.3069 491.6576 203.5245 490.8752 193.8004 484.6161 191.6768 483.6101 190.4473 483.4983 189.1061 483.6101 187.3177 484.2807 185.1941 485.622 183.0704 487.4103 179.2702 490.8752 175.6935 493.5578 174.9111 493.8931 169.2108 495.0108 166.193 496.0167 163.6222 497.5815 162.3927 498.811 161.7221 500.0405 161.4986 501.6053 161.3868 503.9525 161.6103 505.8526 161.9457 507.7527 164.1811 514.3472 164.7399 516.3591 164.4046 519.2651 161.7221 525.8596 161.6103 525.9714 161.6103 526.0832 157.363 517.5886 149.4273 509.0939 140.262 502.723 102.4834 482.2689 96.8948 480.257Z" />
  <path class="Bong" d="M242.4209 411.6295L244.5446 404.029 245.2152 399.8935 245.4387 394.5285 245.774 393.6343 246.1094 392.8519 247.6741 391.6224 250.0213 390.1694 257.9571 386.5927 259.7454 386.0339 260.6396 386.0339 266.787 387.1516 268.5754 387.1516 270.3637 386.8163 272.2638 386.2574 274.0521 384.9162 281.6526 376.9804 285.341 371.9507 287.6882 367.5916 288.9177 365.9151 304.5657 353.1732 306.5776 350.6024 307.36 349.82 309.8189 348.8141 316.0781 349.0376 324.4609 351.0495 327.8141 352.3908 328.2612 352.8378 328.3729 353.5085 328.2612 354.0673 327.9259 355.5204 327.367 356.191 326.3611 357.1969 325.6904 358.0911 325.5787 358.9853 326.0257 359.7677 326.6964 360.5501 327.1435 361.4442 327.8141 364.015 328.2612 364.9091 328.82 367.2563 328.9318 367.8152 328.7083 368.374 328.1494 368.8211 327.8141 369.38 327.9259 369.9388 328.4847 370.3859 329.1553 370.7212 331.8378 371.9507 335.5263 371.2801 339.5501 368.2623 347.0387 360.7736 355.8686 354.738 361.0101 352.5025 366.5987 350.9377 368.0517 350.7142 369.6165 350.7142 371.0695 351.0495 372.299 351.6084 373.6403 351.9437 374.758 351.0495 375.8757 349.7083 377.3287 349.0376 378.5582 348.0317 383.1408 342.3314 387.0528 339.4253 395.9945 334.2838 399.3476 330.9307 406.3892 334.2838 409.8541 335.178 418.4605 336.2957 420.1371 336.2957 422.3725 335.7369 424.3844 334.8427 428.4081 332.0484 430.5318 330.9307 430.5318 332.4955 433.7732 330.7072 436.9028 327.354 438.4675 323.6656 437.2381 320.9831 438.5793 317.9652 440.3677 315.2827 442.8266 313.3826 449.4211 312.1531 454.0037 309.9177 459.3688 308.6882 463.169 307.0117 472.446 300.7525 478.1463 294.6051 477.811 293.7109 477.6992 292.8167 477.3639 292.0343 477.4757 292.1461 479.4876 291.1402 486.4174 284.3221 489.0999 280.4101 493.6825 288.5694 496.4768 290.9166 500.0535 285.5516 501.5065 285.2163 502.6242 284.3221 503.1831 281.7514 504.189 280.8572 506.3127 280.5219 510.3364 280.4101 513.8013 280.8572 515.4779 281.4161 517.4898 282.6455 519.1663 284.7692 520.8429 289.5754 522.2959 291.2519 525.9844 291.8108 534.1437 289.6871 537.8321 290.0224 541.297 294.9404 544.5384 310.1413 550.4623 315.618 551.9153 315.8416 557.2803 315.618 558.6216 316.624 558.7333 320.7595 560.6334 322.3243 565.3278 324.6715 566.1102 327.9129 563.8748 336.1839 566.6691 333.725 568.5692 333.0543 567.675 335.2898 559.851 361.556 555.6037 367.4799 555.0449 371.1683 554.9331 373.5155 553.9272 376.5333 553.5919 378.657 553.4801 382.0101 553.4801 382.1219 552.9212 382.7925 548.8975 386.9281 549.0092 387.934 550.4623 389.6106 551.8035 391.5107 552.8095 392.1813 554.9331 393.299 555.7155 394.305 556.3861 395.6462 556.945 397.5463 557.7274 398.664 558.6216 399.67 559.1804 400.6759 559.9628 403.3584 560.5217 404.2526 561.6394 404.6997 562.31 404.8114 563.4277 404.9232 563.8748 405.035 564.4337 405.4821 565.6631 407.6057 567.675 409.6176 567.675 411.5177 566.4455 418.3358 566.222 420.9065 566.4455 423.2537 567.4515 428.1716 567.3397 429.8482 566.5573 431.0777 564.769 432.5307 563.9866 433.4249 562.9806 434.2073 562.0865 435.2132 561.3041 436.4427 561.4158 437.5604 562.1982 438.4546 562.9806 440.0194 562.9806 441.3606 562.5336 442.3666 560.7452 443.9314 560.1864 445.0491 559.851 446.2785 559.1804 447.3963 557.6156 449.7435 557.6156 450.8612 558.0627 452.426 557.1685 455.8909 556.4979 457.4557 555.7155 458.6851 553.9272 460.8088 553.9272 462.1501 555.6037 465.0561 555.7155 466.6209 554.3743 470.5329 553.2565 471.6506 552.2506 472.2095 549.7916 472.0977 547.1091 472.433 543.1971 472.433 520.5076 478.1333 517.7133 477.798 517.378 476.5685 516.7074 475.4508 514.919 474.6684 513.9131 475.1155 513.2425 476.0097 511.6777 477.3509 508.101 479.9217 506.9833 481.1512 506.4244 482.4924 506.0891 483.8337 505.5303 485.1749 504.6361 486.4044 502.9595 487.8574 501.2829 488.1927 499.1593 488.1927 498.0416 488.5281 493.3472 493.1107 489.7705 495.5696 488.541 497.5815 486.9762 500.4876 485.8585 500.5993 484.629 500.264 482.5054 499.8169 481.1641 500.264 479.9347 501.0464 478.9287 502.1641 477.5875 502.2759 476.4697 502.0524 474.7932 501.9406 474.0108 502.4994 473.5637 503.5054 473.2284 504.7349 471.7754 507.0821 470.3223 508.6469 469.5399 509.2057 468.4222 509.541 466.075 509.3175 465.0691 509.3175 463.0572 509.541 461.8277 509.541 459.0334 508.5351 457.0216 508.3116 455.9039 508.8704 451.5448 512.7824 445.062 516.4708 442.156 517.4768 440.2559 517.4768 439.4735 516.5826 438.9146 515.6884 438.5793 514.7943 438.3558 513.9001 438.3558 513.0059 438.4675 512.1118 438.8029 511.1058 439.1382 510.0999 441.3736 506.2997 447.4092 498.6992 450.7624 495.3461 453.6684 491.8812 454.2273 490.987 454.5626 490.0928 454.6744 489.3105 454.6744 488.4163 454.5626 487.4103 454.2273 486.1809 453.3331 484.5043 452.2154 483.0513 446.5151 478.1333 440.2559 470.4211 439.1382 469.4152 437.7969 468.4092 435.4497 467.4033 433.9967 467.1798 432.879 467.1798 431.9848 467.4033 420.1371 468.7446 418.4605 468.6328 417.4546 468.0739 416.7839 467.6268 415.5545 465.9503 420.3606 455.2202 421.5901 451.6436 421.7019 450.1905 421.5901 448.514 421.143 446.1668 420.6959 444.602 420.1371 443.149 419.4664 442.143 418.684 441.0253 417.0075 439.3487 413.7661 436.778 409.8541 434.319 407.954 433.3131 405.9421 432.7542 403.7067 432.1954 402.7008 432.0836 401.8066 432.1954 400.9124 432.5307 399.9065 433.2013 398.2299 434.9897 397.0004 436.6662 396.5534 437.5604 396.218 438.5663 395.8827 439.684 395.6592 440.9135 395.6592 443.0372 396.3298 448.6257 396.218 449.5199 395.9945 450.5259 395.3239 451.42 391.859 454.7732 391.1883 455.6673 390.4059 457.4557 389.6235 459.3558 389.1765 461.1441 388.8411 464.7208 388.1705 467.6268 387.8352 468.4092 387.0528 469.4152 385.7116 470.4211 382.9173 471.6506 381.2407 471.9859 380.0112 471.8741 379.2288 471.3153 378.3347 470.7564 376.6581 468.8563 372.5226 463.156 371.6284 462.3736 369.9518 461.1441 369.0576 460.697 363.6926 458.9087 353.5215 456.4497 351.3978 456.2262 350.5036 456.4497 347.8211 457.4557 342.3443 460.4735 339.103 461.3677 337.0911 461.5912 335.191 461.3677 305.6834 451.6436 303.6715 450.5259 301.6596 449.0728 299.6477 447.3963 295.624 443.2607 294.3945 442.2548 292.7179 441.2488 289.4766 439.4605 287.5765 438.7899 286.0117 438.3428 282.3232 438.5663 277.1817 439.3487 269.246 439.4605 265.334 436.1074 262.875 435.325 261.7573 435.4367 259.7454 435.7721 257.51 435.8838 247.1153 435.325 244.2092 434.319 241.7503 432.4189 240.9679 430.407 233.4792 421.5771 233.7028 421.4653 237.0559 420.1241 238.6207 418.3358 242.4209 411.6295Z" />
  <path class="Gbarpolu" d="M129.8673 383.6867L128.1908 382.0101 128.079 381.8983 128.8614 380.7806 130.538 379.5512 132.1028 378.9923 135.1206 378.4334 136.7971 377.204 138.3619 375.3039 141.0444 371.0565 143.2799 368.374 144.6211 367.5916 145.4035 367.0328 146.8565 365.3562 147.7507 364.5738 148.8684 364.015 152.6686 362.8972 153.8981 362.3384 154.7923 361.4442 156.6924 359.097 157.8101 358.2029 162.1692 355.8557 163.2869 355.5204 165.7459 355.5204 166.7518 355.185 167.7578 354.6262 168.5402 353.732 170.3285 352.1672 172.3404 351.1613 173.011 350.4906 173.5699 349.9318 177.2583 343.5608 178.2642 342.3314 179.1584 341.3254 184.0763 337.8605 184.9705 337.0781 185.6411 336.1839 186.5353 335.4015 187.653 334.8427 188.9943 334.5074 194.6946 333.2779 212.0191 322.5479 215.484 319.4183 216.49 318.7476 217.6077 318.1888 222.6374 316.624 223.7551 315.9534 224.5375 315.171 225.3199 314.2768 226.9965 312.6002 230.2378 310.4766 231.132 308.9118 231.4673 307.1234 230.3496 301.6466 230.5732 299.6348 230.4614 294.9404 229.5672 289.9107 228.7848 287.6752 228.226 286.4458 214.2546 266.9976 212.1309 265.321 209.6719 264.2033 204.8658 263.6444 201.0656 263.6444 197.0418 263.9798 195.5888 263.3091 193.5769 260.1795 190.112 260.7384 188.7707 260.9619 171.558 257.7206 169.5461 256.2675 168.9872 255.9322 168.4284 255.9322 165.0752 256.6029 163.6222 256.7146 162.9516 256.4911 162.1692 256.044 161.4986 254.3674 160.3809 253.6968 159.5985 253.2497 151.1039 251.2378 147.8625 250.9025 179.829 211.7826 188.8825 204.0704 200.1714 197.923 201.9597 197.3641 207.4365 196.47 206.8777 138.1254 207.213 135.2194 219.5078 145.9494 243.4268 139.6902 256.8394 152.2086 300.3184 165.6211 306.5776 156.6794 328.82 188.0871 366.934 179.1454 427.4022 204.1822 430.0847 220.389 394.5415 302.7644 399.3476 330.9307 395.9945 334.2838 387.0528 339.4253 383.1408 342.3314 378.5582 348.0317 377.3287 349.0376 375.8757 349.7083 374.758 351.0495 373.6403 351.9437 372.299 351.6084 371.0695 351.0495 369.6165 350.7142 368.0517 350.7142 366.5987 350.9377 361.0101 352.5025 355.8686 354.738 347.0387 360.7736 339.5501 368.2623 335.5263 371.2801 331.8378 371.9507 329.1553 370.7212 328.4847 370.3859 327.9259 369.9388 327.8141 369.38 328.1494 368.8211 328.7083 368.374 328.9318 367.8152 328.82 367.2563 328.2612 364.9091 327.8141 364.015 327.1435 361.4442 326.6964 360.5501 326.0257 359.7677 325.5787 358.9853 325.6904 358.0911 326.3611 357.1969 327.367 356.191 327.9259 355.5204 328.2612 354.0673 328.3729 353.5085 328.2612 352.8378 327.8141 352.3908 324.4609 351.0495 316.0781 349.0376 309.8189 348.8141 307.36 349.82 306.5776 350.6024 304.5657 353.1732 288.9177 365.9151 287.6882 367.5916 285.341 371.9507 281.6526 376.9804 274.0521 384.9162 272.2638 386.2574 270.3637 386.8163 268.5754 387.1516 266.787 387.1516 260.6396 386.0339 259.7454 386.0339 257.9571 386.5927 250.0213 390.1694 247.6741 391.6224 246.1094 392.8519 245.774 393.6343 245.4387 394.5285 245.2152 399.8935 244.5446 404.029 242.4209 411.6295 235.3793 413.1943 209.1131 413.3061 196.5947 418.224 194.6946 419.3417 192.2356 421.4653 190.3355 422.9184 187.8766 424.2596 183.5175 426.1597 181.5056 426.495 180.0526 426.3833 178.376 424.7067 176.6994 422.8066 175.8053 421.5771 175.3582 420.5712 175.0229 419.5652 174.464 419.0064 172.7875 417.3298 172.4521 415.9886 172.5639 415.3179 173.2345 413.8649 173.2345 413.1943 172.8992 411.5177 173.011 410.7353 173.5699 409.8411 173.6816 408.8352 173.3463 407.8293 172.8992 407.0469 172.3404 405.3703 172.2286 404.6997 172.4521 404.029 172.7875 403.2466 173.011 402.4642 173.3463 401.5701 173.7934 399.8935 173.7934 399.2229 173.6816 398.5523 173.3463 397.7699 172.8992 396.7639 172.7875 395.9815 172.7875 395.4227 173.3463 394.9756 174.2405 394.8638 177.9289 394.9756 178.7113 394.752 178.9349 394.305 178.376 393.7461 178.0407 393.299 177.7054 392.6284 177.8172 391.6224 177.4818 390.7283 176.1406 389.4988 161.1633 386.3692 160.1573 386.3692 158.9278 386.3692 154.457 387.5987 149.3155 387.934 146.5212 387.5987 133.2205 383.0161 131.6557 383.0161 129.8673 383.6867Z" />
  <path class="Grand Bassa" d="M549.7916 472.0977L560.6334 475.6744 563.4277 476.1215 564.769 475.5626 565.3278 475.2273 567.4515 474.4449 569.2398 474.6684 570.2458 475.1155 571.6988 476.1215 572.1459 476.7921 572.2576 477.4627 571.587 479.1393 571.1399 481.1512 571.0282 481.5982 570.9164 482.0453 570.3575 483.3866 570.0222 483.7219 569.5751 484.0572 566.222 485.2867 565.6631 485.622 565.3278 485.9573 562.6453 489.1987 562.31 489.8693 561.4158 492.1047 560.2981 498.9228 559.9628 500.1523 557.9509 504.0642 557.8392 504.6231 557.9509 505.182 558.1745 505.2937 558.6216 505.5173 559.1804 505.5173 559.6275 505.4055 560.9688 504.9584 561.5276 505.0702 562.1982 505.4055 563.0924 506.0761 563.4277 506.9703 563.4277 507.8645 562.31 513.6766 560.5217 518.818 560.1864 520.2711 560.0746 521.7241 560.4099 525.6361 560.2981 526.642 559.7393 530.3305 559.5157 537.4838 508.9952 537.7074 505.642 539.9428 503.8537 540.6134 500.277 541.7311 498.4887 542.5135 497.371 542.9606 487.7586 544.9725 486.7527 545.4196 485.8585 546.0902 484.7408 547.0961 484.0702 547.8785 483.6231 548.7727 483.5113 549.5551 483.5113 550.4493 483.7349 551.2317 484.4055 552.9083 484.629 553.8024 484.8526 554.5848 484.8526 556.2614 484.5173 557.8262 482.8407 563.9736 482.7289 565.7619 482.8407 569.3386 485.1879 581.857 484.7408 583.0865 483.6231 584.6513 476.2462 591.3575 474.905 593.0341 469.6517 601.4169 468.3105 603.0935 467.3045 603.5406 466.4103 603.4288 465.6279 602.7582 464.9573 602.0876 463.8396 600.411 463.0572 599.8521 462.163 599.4051 460.4865 599.0697 457.1333 598.8462 454.3391 598.958 451.7683 599.4051 450.3153 600.0757 449.1976 600.9699 448.527 601.9758 448.0799 602.9817 447.7446 603.9877 447.6328 604.9936 447.8563 607.1173 447.7446 608.235 447.0739 609.7998 446.2915 610.6939 440.2559 613.0411 438.8029 614.0471 437.9087 615.1648 437.6851 616.059 437.6851 617.0649 437.9087 618.8532 438.1322 619.6356 438.244 620.5298 438.244 622.0946 438.1322 622.877 435.2262 632.0422 435.1144 633.0482 435.1144 633.8306 435.8968 636.2895 435.8968 637.2955 435.5615 638.1897 434.332 640.4251 433.9967 641.3193 433.9967 642.2134 434.4438 643.89 436.5674 648.1373 436.6792 649.0315 436.6792 649.9256 436.3439 650.708 428.5199 663.1146 427.8493 664.903 427.0669 667.9208 426.9551 668.815 426.9551 669.7091 427.4022 671.3857 429.5259 675.9683 429.9729 677.6449 430.0847 678.4273 430.0847 679.9921 430.0847 680.6627 429.8612 681.2216 428.4081 684.1276 427.9611 685.1336 427.8493 686.0277 427.8493 687.0337 427.9611 688.0396 428.1846 689.0455 428.6317 689.9397 430.3083 692.5105 431.0906 694.2988 432.6554 701.6757 432.7672 702.9052 432.6554 704.2464 431.9848 706.5936 431.2024 707.9349 425.7256 713.1881 424.6079 714.7529 423.9373 716.2059 423.4902 717.7707 422.7078 718.5531 421.5901 719.2238 420.0253 719.8944 419.1311 720.6768 418.684 721.4592 418.4605 722.4651 418.4605 723.5828 418.4605 723.6946 392.4178 698.5461 359.5571 671.4975 350.9507 661.8851 349.2741 660.4321 345.0268 657.9732 343.5738 656.1848 342.9032 653.7259 343.9091 650.708 343.5738 647.802 341.3384 644.1135 337.5382 640.9839 333.2909 638.7485 329.7142 637.9661 327.1435 636.5131 310.1542 623.1006 300.4301 612.3705 287.6882 604.4348 283.3292 602.4229 274.2757 600.7463 270.0284 598.2873 267.4576 595.046 268.1283 591.8046 270.3637 593.1459 272.152 593.3694 273.7168 592.3635 274.8345 590.1281 270.0284 589.1221 266.787 586.5514 266.8988 586.2161 269.3578 581.5217 269.5813 580.2922 270.3637 578.7274 272.152 576.2684 272.3756 574.9272 272.152 573.8095 271.2579 571.574 271.1461 570.121 272.0403 562.9677 272.4873 561.8499 273.0462 560.844 276.6229 556.3732 277.7406 553.8024 278.523 553.02 279.976 552.5729 281.2055 551.9023 281.9879 550.4493 281.9879 549.108 281.5408 547.8785 280.7584 546.9844 280.3113 546.0902 280.1996 545.196 280.1996 544.0783 280.0878 543.0724 280.0878 542.0664 280.982 541.3958 283.3292 540.5017 286.0117 539.0486 290.1472 535.2484 291.6002 532.9012 292.3826 530.8893 292.3826 529.5481 291.2649 525.8596 291.1531 524.5184 291.2649 523.2889 291.8238 522.1712 299.2007 514.1237 300.3184 511.5529 301.4361 509.4293 302.1067 506.8585 303.0009 504.7349 303.0009 503.6172 302.3303 502.8348 300.3184 501.7171 299.7595 500.5993 299.4242 498.3639 298.6418 497.8051 297.6359 497.4697 296.9652 496.7991 296.4064 495.0108 297.5241 494.3402 299.536 493.2224 308.1424 491.5459 311.9426 490.2046 314.5133 490.987 315.5193 491.4341 315.631 491.993 315.5193 492.5518 315.2957 493.2224 315.0722 494.2284 315.1839 495.2343 315.631 496.2403 316.3017 496.9109 317.9782 498.0286 318.6488 498.5875 318.9842 499.1463 319.3195 499.7052 319.7666 500.3758 320.4372 500.8229 324.1256 501.9406 325.0198 502.4994 325.6904 503.1701 327.1435 504.8466 327.9259 505.5173 329.3789 505.8526 331.279 505.9644 334.6321 505.4055 336.5322 504.8466 338.5441 503.3936 339.6618 502.2759 340.4442 501.0464 342.4561 499.1463 343.2385 498.811 347.1505 499.4816 350.0565 498.9228 353.5215 499.0345 360.116 501.0464 362.0161 501.3817 363.9162 501.3817 365.5927 500.5993 367.8282 499.1463 374.0873 493.446 376.3228 490.987 377.5523 489.9811 378.8935 489.4222 380.9054 489.1987 382.2466 489.3105 383.3644 489.6458 388.0587 492.1047 388.8411 492.44 389.7353 492.6636 390.6295 492.7754 391.5237 492.6636 392.5296 492.5518 397.6711 487.5221 415.5545 465.9503 416.7839 467.6268 417.4546 468.0739 418.4605 468.6328 420.1371 468.7446 431.9848 467.4033 432.879 467.1798 433.9967 467.1798 435.4497 467.4033 437.7969 468.4092 439.1382 469.4152 440.2559 470.4211 446.5151 478.1333 452.2154 483.0513 453.3331 484.5043 454.2273 486.1809 454.5626 487.4103 454.6744 488.4163 454.6744 489.3105 454.5626 490.0928 454.2273 490.987 453.6684 491.8812 450.7624 495.3461 447.4092 498.6992 441.3736 506.2997 439.1382 510.0999 438.8029 511.1058 438.4675 512.1118 438.3558 513.0059 438.3558 513.9001 438.5793 514.7943 438.9146 515.6884 439.4735 516.5826 440.2559 517.4768 442.156 517.4768 445.062 516.4708 451.5448 512.7824 455.9039 508.8704 457.0216 508.3116 459.0334 508.5351 461.8277 509.541 463.0572 509.541 465.0691 509.3175 466.075 509.3175 468.4222 509.541 469.5399 509.2057 470.3223 508.6469 471.7754 507.0821 473.2284 504.7349 473.5637 503.5054 474.0108 502.4994 474.7932 501.9406 476.4697 502.0524 477.5875 502.2759 478.9287 502.1641 479.9347 501.0464 481.1641 500.264 482.5054 499.8169 484.629 500.264 485.8585 500.5993 486.9762 500.4876 488.541 497.5815 489.7705 495.5696 493.3472 493.1107 498.0416 488.5281 499.1593 488.1927 501.2829 488.1927 502.9595 487.8574 504.6361 486.4044 505.5303 485.1749 506.0891 483.8337 506.4244 482.4924 506.9833 481.1512 508.101 479.9217 511.6777 477.3509 513.2425 476.0097 513.9131 475.1155 514.919 474.6684 516.7074 475.4508 517.378 476.5685 517.7133 477.798 520.5076 478.1333 543.1971 472.433 547.1091 472.433 549.7916 472.0977Z" />
  <path class="Grand Cape Mount" d="M147.8625 250.9025L151.1039 251.2378 159.5985 253.2497 160.3809 253.6968 161.4986 254.3674 162.1692 256.044 162.9516 256.4911 163.6222 256.7146 165.0752 256.6029 168.4284 255.9322 168.9872 255.9322 169.5461 256.2675 171.558 257.7206 188.7707 260.9619 190.112 260.7384 193.5769 260.1795 195.5888 263.3091 197.0418 263.9798 201.0656 263.6444 204.8658 263.6444 209.6719 264.2033 212.1309 265.321 214.2546 266.9976 228.226 286.4458 228.7848 287.6752 229.5672 289.9107 230.4614 294.9404 230.5732 299.6348 230.3496 301.6466 231.4673 307.1234 231.132 308.9118 230.2378 310.4766 226.9965 312.6002 225.3199 314.2768 224.5375 315.171 223.7551 315.9534 222.6374 316.624 217.6077 318.1888 216.49 318.7476 215.484 319.4183 212.0191 322.5479 194.6946 333.2779 188.9943 334.5074 187.653 334.8427 186.5353 335.4015 185.6411 336.1839 184.9705 337.0781 184.0763 337.8605 179.1584 341.3254 178.2642 342.3314 177.2583 343.5608 173.5699 349.9318 173.011 350.4906 172.3404 351.1613 170.3285 352.1672 168.5402 353.732 167.7578 354.6262 166.7518 355.185 165.7459 355.5204 163.2869 355.5204 162.1692 355.8557 157.8101 358.2029 156.6924 359.097 154.7923 361.4442 153.8981 362.3384 152.6686 362.8972 148.8684 364.015 147.7507 364.5738 146.8565 365.3562 145.4035 367.0328 144.6211 367.5916 143.2799 368.374 141.0444 371.0565 138.3619 375.3039 136.7971 377.204 135.1206 378.4334 132.1028 378.9923 130.538 379.5512 128.8614 380.7806 128.079 381.8983 128.1908 382.0101 129.8673 383.6867 130.7615 386.3692 129.7556 390.9518 129.6438 393.0755 129.9791 395.5344 129.7556 397.5463 123.4964 414.5355 120.3668 421.3536 120.1432 423.2537 120.4785 424.5949 122.9375 427.2774 123.7199 428.6187 124.3905 431.413 123.8317 435.2132 123.4964 440.0194 121.5963 447.508 121.0374 449.1846 120.7021 449.7435 120.1432 450.3023 119.2491 450.5259 117.2372 449.7435 116.1195 449.5199 115.3371 449.6317 114.4429 449.967 113.5487 450.5259 112.3193 451.42 111.2015 452.6495 109.525 455.2202 108.8543 457.4557 108.519 460.4735 108.0719 462.0383 107.066 462.9325 104.607 463.4913 102.2598 464.4972 101.2539 465.1679 100.0244 466.1738 98.6832 467.6268 96.7831 470.5329 96.1124 472.433 95.7771 474.2213 96.1124 477.3509 96.8948 480.257 59.5633 466.8444 30.8381 454.1025 25.5848 447.8433 25.3613 438.3428 26.8143 432.9778 27.1496 430.6306 27.1496 427.501 23.9083 421.3536 23.0141 420.2359 18.5432 418.8946 13.8488 415.9886 9.8251 412.6354 7.4779 410.1765 1.3305 401.4583 8.9309 397.9934 10.831 396.8757 10.2722 390.7283 11.2781 386.7045 17.8726 382.9043 20.108 378.9923 21.6728 374.4097 22.1199 370.833 21.3375 365.9151 22.1199 364.3503 27.2614 363.7914 29.0497 363.1208 30.391 361.7795 30.8381 359.6559 30.0557 356.6381 26.5908 351.0495 26.0319 348.5905 26.7025 347.6964 31.0616 343.6726 39.4444 330.5954 43.4682 329.7012 63.1399 320.7595 65.2636 318.8594 80.7998 298.7406 85.0471 293.2638 120.5903 265.0975 130.4262 259.5089 139.4796 257.497 142.721 256.044 145.2917 254.0321 147.8625 250.9025Z" />
  <path class="Grand Gedeh" d="M617.1897 652.9435L617.7485 648.4726 615.8484 644.7842 612.16 641.431 608.695 644.7842 607.3538 642.2134 608.8068 636.6249 613.1659 631.0363 613.1659 628.8009 610.2598 626.4537 608.3597 623.5476 611.3776 619.4121 615.5131 618.0708 625.2372 616.9531 628.9256 614.3824 631.0493 609.7998 632.167 603.5406 631.6081 597.6167 628.9256 593.7047 632.5023 590.6869 635.5201 582.8629 638.8733 581.0746 645.5795 578.5039 651.9505 573.3624 657.3155 566.9914 661.1157 561.1793 675.4224 532.3424 681.1228 513.1177 685.0348 504.2878 685.1465 504.2878 689.1703 504.5113 691.5175 505.0702 697.3296 504.8466 700.1239 505.629 702.6946 507.9762 709.848 517.5886 714.207 519.0416 717.2249 516.5826 719.125 512.1118 720.2427 507.6409 721.3604 505.629 722.9252 506.635 725.6077 510.2117 733.0964 514.2354 736.3377 517.9239 736.0024 519.2651 734.2141 520.8299 732.9846 524.7419 733.4317 527.0891 735.5553 531.4482 736.1142 533.3483 734.8847 535.4719 732.6493 536.7014 731.8669 538.1545 734.6612 541.0605 737.2319 538.6015 740.2497 537.4838 743.1558 537.4838 745.6147 538.6015 748.7443 536.0308 751.2033 537.0367 753.5505 539.6075 756.1212 541.9547 757.2389 541.8429 758.0213 540.7252 759.0273 539.9428 760.8156 540.9487 762.0451 542.8488 762.2686 544.8607 762.2686 546.5373 762.604 547.4315 764.8394 548.3256 783.3934 552.4612 786.1877 553.5789 788.7584 555.0319 790.435 556.2614 792.4469 556.932 796.3589 556.932 799.6002 556.1496 804.9652 553.1318 807.7595 552.0141 818.8249 550.4493 825.3076 550.2257 829.4431 551.2317 833.3551 553.9142 848.7795 557.6026 850.1208 557.7144 851.1267 557.2673 852.2444 557.0438 853.6975 557.4909 854.1446 558.2733 854.8152 561.0675 855.5976 562.297 866.2158 570.7916 869.9043 575.3743 870.5749 578.6156 867.3336 587.8926 866.2158 592.9223 865.657 598.3991 866.3276 603.3171 868.8983 606.6702 869.0101 605.5525 871.3573 604.323 874.2634 603.4288 876.4988 603.6524 878.7342 605.776 879.7402 608.0114 880.5226 613.4882 881.305 614.2706 882.5344 614.7177 883.7639 615.2766 884.3228 616.8414 883.8757 618.1826 881.6403 619.3003 881.0814 620.418 880.9696 627.3479 881.1932 629.0244 884.3228 632.9364 893.7116 637.9661 896.6176 640.7604 900.9767 646.796 904.218 645.1195 907.0123 640.3133 909.6948 637.0719 911.2596 638.4132 913.8304 641.431 917.407 644.2253 921.6543 644.8959 921.9897 645.7901 926.9076 648.4726 927.5782 648.5844 932.7197 650.9316 933.9492 652.4964 932.0491 654.9553 933.8374 656.5201 937.0788 660.5439 938.7553 661.4381 941.5496 660.0968 944.4557 657.6378 946.244 656.8554 945.4616 660.8792 949.1501 661.5498 950.8266 664.6794 951.9443 668.1443 954.1798 669.4856 956.0799 667.6972 957.3094 663.7853 957.98 656.6319 965.6922 659.985 966.8099 668.2561 965.2451 678.4273 965.0216 687.2572 969.3806 706.1465 972.5102 712.4057 977.6517 722.6887 980.6695 726.6007 975.6398 725.7065 973.9633 728.6125 975.081 733.1952 978.3223 737.4425 973.6279 737.666 972.0631 737.5542 974.5221 739.9014 974.4103 739.9014 811.6715 746.7195 796.2471 749.7373 764.8394 753.2022 738.5732 753.5375 730.1903 750.4079 730.1903 750.2961 730.6374 747.8372 730.6374 746.943 730.5256 745.9371 730.0785 745.1547 729.2961 744.2605 728.0667 743.3663 724.7135 742.2486 721.0251 741.4662 720.0191 740.7956 719.0132 739.9014 718.0073 737.8895 717.7837 736.6601 717.7837 735.4306 718.0073 734.5364 718.4543 733.5305 719.4603 731.7421 724.49 724.7006 724.8253 723.8064 725.0488 723.024 725.4959 720.4532 725.7195 719.5591 726.1666 718.6649 726.7254 717.8825 727.396 717.2119 728.2902 716.7648 729.1844 716.4295 730.9727 715.9824 732.0904 715.8706 739.8026 715.6471 741.8145 715.4235 745.8383 714.4176 746.7325 713.9705 747.5149 713.4117 748.1855 712.6293 748.6326 711.8469 748.8561 711.0645 749.0796 710.1703 749.1914 707.5996 748.9679 705.923 748.0737 702.4581 746.7325 698.6579 743.044 691.9516 738.4614 685.3571 735.1083 681.8922 732.314 679.7685 725.0488 675.2977 723.1487 674.6271 721.0251 674.18 713.3129 673.7329 711.0774 673.9564 709.4009 674.5153 708.6185 675.1859 693.3058 693.8517 679.558 687.9278 617.1897 652.9435Z" />
  <path class="Grand Kru" d="M759.2508 822.5003L769.8691 823.8416 773.334 824.8475 781.8286 830.5479 783.2816 830.9949 784.3993 831.1067 785.9641 830.2125 793.8999 830.7714 827.3195 836.2482 829.8902 842.5074 830.1138 844.1839 830.2255 847.3135 829.7784 848.8783 829.2196 850.3314 828.4372 851.6726 826.8724 853.7963 821.1721 863.2968 817.5954 869.6678 809.2125 890.569 809.2125 892.9162 809.5479 894.9281 809.8832 896.2693 810.2185 897.4988 810.7773 898.2812 812.0068 899.9578 813.7952 901.299 814.6893 901.8579 831.7903 907.67 847.3265 914.3762 850.7914 916.3881 852.5798 917.6176 854.5916 919.4059 856.38 921.1943 857.9448 923.2062 868.4513 940.9778 871.9162 945.6722 877.5047 955.3963 878.5107 957.7435 878.9578 959.6436 878.6224 961.6554 876.9459 968.0264 876.6106 972.609 876.7223 981.3272 876.387 983.0037 875.7164 984.7921 874.934 986.4686 871.3573 992.169 870.5749 994.0691 866.1041 992.6161 860.292 988.1452 857.6095 987.1393 853.6975 986.5804 851.3503 985.3509 849.4502 983.7861 847.103 982.2213 842.8557 980.5448 832.4609 977.7505 824.3017 976.521 809.2125 970.5971 780.152 967.0205 771.6574 964.2262 761.3745 952.8255 757.5743 950.9254 752.9916 950.0312 728.2902 941.0895 701.6887 922.2002 687.829 914.488 664.916 906.1052 671.1751 900.5166 673.2988 897.7223 674.4165 894.0339 674.9754 890.4572 676.6519 884.4216 677.5461 882.9685 678.4403 882.2979 684.4759 881.8508 685.7054 881.5155 687.7173 880.7331 688.7232 879.9507 689.3938 879.0565 692.747 871.7914 698.3355 862.1791 699.9003 860.0554 701.018 858.7142 708.1714 854.6904 724.0429 842.5074 724.9371 842.0603 725.8312 841.6132 727.7314 841.3897 738.0143 841.3897 739.3556 841.1661 741.2557 840.3837 742.3734 839.4895 743.2675 838.4836 745.2794 835.1305 752.8799 826.077 754.2211 824.7358 756.233 823.618 759.2508 822.5003Z" />
  <path class="Lofa" d="M399.3476 330.9307L394.5415 302.7644 430.0847 220.389 427.4022 204.1822 366.934 179.1454 328.82 188.0871 306.5776 156.6794 300.3184 165.6211 256.8394 152.2086 243.4268 139.6902 219.5078 145.9494 207.213 135.2194 208.1072 132.9839 210.3426 131.1956 216.3782 127.8425 218.949 125.3835 224.4257 114.9888 228.0024 110.6297 233.591 107.8354 238.3971 107.1648 257.7336 107.053 262.6515 106.3824 267.3459 104.8176 271.9285 102.1351 277.8524 96.4348 278.523 91.9639 276.6229 87.1578 274.8345 80.3397 275.3934 74.8629 279.5289 65.6977 286.9058 35.9666 287.1294 23.4482 289.7001 23.6717 292.1591 23.2246 297.1888 21.3245 298.9771 25.3483 303.0009 23.0011 311.1602 15.0653 315.1839 13.8359 319.2077 13.9476 332.8438 17.3008 336.4205 19.4244 338.097 23.0011 335.6381 34.29 336.644 37.5314 339.8854 38.6491 344.9151 37.7549 354.6392 32.0546 363.9162 24.6777 367.9399 22.554 371.8519 21.3245 375.8757 20.8774 380.4583 20.7657 381.6878 20.5421 385.0409 19.648 386.1586 20.2068 387.2763 21.3245 388.5058 22.8893 390.6295 22.2187 394.8768 19.9833 400.9124 18.3067 401.136 16.6301 400.3536 14.8418 400.3536 12.8299 402.0301 10.818 403.7067 9.0297 404.9362 6.9061 404.7127 4 408.8482 4.5589 411.3072 7.6884 412.7602 11.824 414.2132 23.2246 415.3309 27.4719 417.7899 31.7193 421.143 35.2959 422.0372 34.7371 422.149 31.2722 422.7078 26.2425 425.6139 22.8893 430.42 22.8893 435.1144 25.1248 438.244 28.2543 439.5853 33.5076 437.5734 36.4136 434.4438 38.5373 432.2084 41.6669 431.873 46.026 433.9967 46.6966 437.5734 45.9142 441.7089 45.8024 443.609 46.026 445.7327 45.6906 447.4092 44.9083 448.6387 43.2317 450.3153 41.3316 452.2154 42.7846 455.345 47.0319 467.3045 52.0616 471.5518 55.1912 473.2284 56.9795 474.4579 57.6502 471.5518 59.4385 470.5459 59.8856 468.9811 60.7798 467.4163 61.8975 464.8455 64.58 467.081 66.7036 468.3105 69.2744 469.2046 71.9569 470.5459 74.3041 471.6636 75.4218 472.1107 76.4277 471.6636 77.5454 470.5459 78.6631 468.1987 82.4634 466.6339 89.3932 467.081 95.8759 470.5459 98.4466 476.358 99.5644 478.7052 100.9056 479.4876 103.6999 479.4876 106.4942 483.9584 124.0422 483.3996 126.613 480.8288 130.9721 480.4935 133.7663 483.2878 130.1897 485.8585 128.1778 488.4293 128.4013 491.2235 131.7545 492.453 134.3252 492.9001 136.8959 492.3413 139.2431 490.6647 141.4785 490.3294 142.2609 487.1998 152.7674 486.6409 162.9386 488.9881 172.998 494.4649 183.0574 500.7241 191.105 502.736 195.1287 505.9773 199.2642 508.8834 203.0645 506.3127 209.2119 503.8537 217.8183 504.3008 225.9776 509.3305 231.9014 506.7597 233.8015 504.6361 236.9311 503.2948 240.6196 502.1771 247.1023 500.3888 249.7848 496.1415 254.8145 497.0356 258.1677 495.0238 263.3091 489.547 271.4684 484.629 275.1569 482.3936 277.5041 481.3877 280.5219 481.2759 283.7633 480.6053 286.6693 479.1523 289.1283 476.4697 291.3637 477.3639 292.0343 477.6992 292.8167 477.811 293.7109 478.1463 294.6051 472.446 300.7525 463.169 307.0117 459.3688 308.6882 454.0037 309.9177 449.4211 312.1531 442.8266 313.3826 440.3677 315.2827 438.5793 317.9652 437.2381 320.9831 438.4675 323.6656 436.9028 327.354 433.7732 330.7072 430.5318 332.4955 430.5318 330.9307 428.4081 332.0484 424.3844 334.8427 422.3725 335.7369 420.1371 336.2957 418.4605 336.2957 409.8541 335.178 406.3892 334.2838 399.3476 330.9307Z" />
  <path class="Margibi" d="M269.246 439.4605L277.1817 439.3487 282.3232 438.5663 286.0117 438.3428 287.5765 438.7899 289.4766 439.4605 292.7179 441.2488 294.3945 442.2548 295.624 443.2607 299.6477 447.3963 301.6596 449.0728 303.6715 450.5259 305.6834 451.6436 335.191 461.3677 337.0911 461.5912 339.103 461.3677 342.3443 460.4735 347.8211 457.4557 350.5036 456.4497 351.3978 456.2262 353.5215 456.4497 363.6926 458.9087 369.0576 460.697 369.9518 461.1441 371.6284 462.3736 372.5226 463.156 376.6581 468.8563 378.3347 470.7564 379.2288 471.3153 380.0112 471.8741 381.2407 471.9859 382.9173 471.6506 385.7116 470.4211 387.0528 469.4152 387.8352 468.4092 388.1705 467.6268 388.8411 464.7208 389.1765 461.1441 389.6235 459.3558 390.4059 457.4557 391.1883 455.6673 391.859 454.7732 395.3239 451.42 395.9945 450.5259 396.218 449.5199 396.3298 448.6257 395.6592 443.0372 395.6592 440.9135 395.8827 439.684 396.218 438.5663 396.5534 437.5604 397.0004 436.6662 398.2299 434.9897 399.9065 433.2013 400.9124 432.5307 401.8066 432.1954 402.7008 432.0836 403.7067 432.1954 405.9421 432.7542 407.954 433.3131 409.8541 434.319 413.7661 436.778 417.0075 439.3487 418.684 441.0253 419.4664 442.143 420.1371 443.149 420.6959 444.602 421.143 446.1668 421.5901 448.514 421.7019 450.1905 421.5901 451.6436 420.3606 455.2202 415.5545 465.9503 397.6711 487.5221 392.5296 492.5518 391.5237 492.6636 390.6295 492.7754 389.7353 492.6636 388.8411 492.44 388.0587 492.1047 383.3644 489.6458 382.2466 489.3105 380.9054 489.1987 378.8935 489.4222 377.5523 489.9811 376.3228 490.987 374.0873 493.446 367.8282 499.1463 365.5927 500.5993 363.9162 501.3817 362.0161 501.3817 360.116 501.0464 353.5215 499.0345 350.0565 498.9228 347.1505 499.4816 343.2385 498.811 342.4561 499.1463 340.4442 501.0464 339.6618 502.2759 338.5441 503.3936 336.5322 504.8466 334.6321 505.4055 331.279 505.9644 329.3789 505.8526 327.9259 505.5173 327.1435 504.8466 325.6904 503.1701 325.0198 502.4994 324.1256 501.9406 320.4372 500.8229 319.7666 500.3758 319.3195 499.7052 318.9842 499.1463 318.6488 498.5875 317.9782 498.0286 316.3017 496.9109 315.631 496.2403 315.1839 495.2343 315.0722 494.2284 315.2957 493.2224 315.5193 492.5518 315.631 491.993 315.5193 491.4341 314.5133 490.987 311.9426 490.2046 308.1424 491.5459 299.536 493.2224 297.5241 494.3402 296.4064 495.0108 296.9652 496.7991 297.6359 497.4697 298.6418 497.8051 299.4242 498.3639 299.7595 500.5993 300.3184 501.7171 302.3303 502.8348 303.0009 503.6172 303.0009 504.7349 302.1067 506.8585 301.4361 509.4293 300.3184 511.5529 299.2007 514.1237 291.8238 522.1712 291.2649 523.2889 291.1531 524.5184 291.2649 525.8596 292.3826 529.5481 292.3826 530.8893 291.6002 532.9012 290.1472 535.2484 286.0117 539.0486 283.3292 540.5017 280.982 541.3958 280.0878 542.0664 280.0878 543.0724 280.1996 544.0783 280.1996 545.196 280.3113 546.0902 280.7584 546.9844 281.5408 547.8785 281.9879 549.108 281.9879 550.4493 281.2055 551.9023 279.976 552.5729 278.523 553.02 277.7406 553.8024 276.6229 556.3732 273.0462 560.844 272.4873 561.8499 272.0403 562.9677 271.1461 570.121 271.2579 571.574 272.152 573.8095 272.3756 574.9272 272.152 576.2684 270.3637 578.7274 269.5813 580.2922 269.3578 581.5217 266.8988 586.2161 266.787 586.5514 266.5635 586.3278 263.5457 583.0865 259.969 580.2922 252.145 575.486 248.233 573.8095 243.6504 573.5859 243.6504 575.3743 255.9452 581.7452 261.422 586.3278 263.2103 591.8046 259.6337 587.3338 252.9274 583.31 245.327 580.1804 202.295 569.4504 207.213 553.2436 207.8836 552.1259 208.7778 551.0081 210.5661 549.4433 211.6838 548.6609 212.8015 548.2139 215.5958 547.2079 217.4959 546.4255 225.2081 540.5017 227.1083 539.4957 238.1736 535.2484 240.1855 534.1307 241.0796 533.4601 242.6444 531.7835 246.5564 524.1831 247.8977 522.1712 249.0154 520.9417 249.7978 520.4946 258.1806 517.7003 259.2983 517.1415 260.3043 516.5826 262.0926 515.0178 262.875 514.0119 263.4339 511.6647 263.881 507.9762 263.5457 493.8931 262.6515 488.4163 262.0926 486.4044 261.3102 484.5043 260.3043 482.6042 257.51 479.0275 257.0629 478.1333 256.3923 476.345 256.1688 474.6684 256.6158 473.1036 257.51 470.8682 269.5813 447.6198 270.0284 445.3844 269.246 439.4605Z" />
  <path class="Maryland" d="M827.3195 836.2482L866.1041 843.0662 867.8924 843.6251 868.7866 844.1839 869.9043 845.3017 870.4631 846.4194 870.7985 847.6488 870.6867 882.2979 870.7985 884.198 871.1338 885.204 871.2455 886.0981 871.1338 886.7688 870.7985 887.7747 870.7985 888.6689 870.7985 889.563 871.022 890.3454 871.5809 893.9221 872.2515 895.934 873.0339 896.7164 873.8163 896.8282 874.8222 896.7164 875.9399 896.6046 877.5047 896.7164 878.1754 896.7164 879.7402 896.2693 880.7461 896.2693 883.4286 897.0517 884.6581 897.1635 885.8876 896.8282 886.7817 896.4928 888.6818 895.3751 891.2526 893.0279 892.035 892.5809 892.9292 892.2455 893.7116 892.3573 894.7175 892.6926 895.4999 892.8044 896.3941 892.6926 897.0647 892.3573 897.7353 891.9102 899.0766 891.7985 900.9767 892.3573 908.3536 896.2693 911.5949 896.7164 913.6068 897.2752 914.7245 898.0576 915.3952 898.84 917.407 902.752 918.5248 903.758 919.9778 904.4286 924.8957 905.6581 926.684 906.5523 927.4664 907.1111 927.5782 907.2229 927.5782 907.4464 928.6959 910.2407 930.596 911.9173 932.3844 913.3703 933.8374 915.1586 934.508 917.2823 935.514 929.8007 934.508 981.1036 934.8433 983.3391 935.514 985.4627 935.9611 988.0334 935.514 994.0691 937.1905 998.987 937.5259 1001.2224 936.7435 1003.5696 934.2845 1008.0405 933.9492 1010.4994 935.2904 1013.2937 943.1144 1018.6587 943.1144 1018.7705 930.596 1020 927.0194 1019.5529 921.4308 1017.2057 918.3012 1016.6469 901.9826 1016.6469 899.9707 1015.8645 898.9648 1014.1879 898.1824 1012.5113 897.0647 1011.7289 893.1527 1011.3936 883.7639 1007.5934 880.8579 1005.9168 878.1754 1003.5696 876.7223 1000.8871 875.3811 997.6458 873.2574 994.8515 870.5749 994.0691 871.3573 992.169 874.934 986.4686 875.7164 984.7921 876.387 983.0037 876.7223 981.3272 876.6106 972.609 876.9459 968.0264 878.6224 961.6554 878.9578 959.6436 878.5107 957.7435 877.5047 955.3963 871.9162 945.6722 868.4513 940.9778 857.9448 923.2062 856.38 921.1943 854.5916 919.4059 852.5798 917.6176 850.7914 916.3881 847.3265 914.3762 831.7903 907.67 814.6893 901.8579 813.7952 901.299 812.0068 899.9578 810.7773 898.2812 810.2185 897.4988 809.8832 896.2693 809.5479 894.9281 809.2125 892.9162 809.2125 890.569 817.5954 869.6678 821.1721 863.2968 826.8724 853.7963 828.4372 851.6726 829.2196 850.3314 829.7784 848.8783 830.2255 847.3135 830.1138 844.1839 829.8902 842.5074 827.3195 836.2482Z" />
  <path class="Montserrado" d="M233.4792 421.5771L240.9679 430.407 241.7503 432.4189 244.2092 434.319 247.1153 435.325 257.51 435.8838 259.7454 435.7721 261.7573 435.4367 262.875 435.325 265.334 436.1074 269.246 439.4605 270.0284 445.3844 269.5813 447.6198 257.51 470.8682 256.6158 473.1036 256.1688 474.6684 256.3923 476.345 257.0629 478.1333 257.51 479.0275 260.3043 482.6042 261.3102 484.5043 262.0926 486.4044 262.6515 488.4163 263.5457 493.8931 263.881 507.9762 263.4339 511.6647 262.875 514.0119 262.0926 515.0178 260.3043 516.5826 259.2983 517.1415 258.1806 517.7003 249.7978 520.4946 249.0154 520.9417 247.8977 522.1712 246.5564 524.1831 242.6444 531.7835 241.0796 533.4601 240.1855 534.1307 238.1736 535.2484 227.1083 539.4957 225.2081 540.5017 217.4959 546.4255 215.5958 547.2079 212.8015 548.2139 211.6838 548.6609 210.5661 549.4433 208.7778 551.0081 207.8836 552.1259 207.213 553.2436 202.295 569.4504 196.8183 568.1091 165.9694 552.3494 161.275 548.1021 163.0634 543.9666 164.2928 545.9784 165.5223 547.3197 167.1989 548.3256 169.7696 548.8845 165.8576 542.29 165.0752 536.4779 167.4224 531.1129 172.8992 525.6361 169.5461 525.6361 166.9754 526.3067 165.0752 527.5362 163.0634 529.101 161.6103 526.0832 161.6103 525.9714 161.7221 525.8596 164.4046 519.2651 164.7399 516.3591 164.1811 514.3472 161.9457 507.7527 161.6103 505.8526 161.3868 503.9525 161.4986 501.6053 161.7221 500.0405 162.3927 498.811 163.6222 497.5815 166.193 496.0167 169.2108 495.0108 174.9111 493.8931 175.6935 493.5578 179.2702 490.8752 183.0704 487.4103 185.1941 485.622 187.3177 484.2807 189.1061 483.6101 190.4473 483.4983 191.6768 483.6101 193.8004 484.6161 203.5245 490.8752 204.3069 491.6576 205.0893 492.44 209.1131 494.3402 211.7956 493.7813 217.3842 489.4222 220.1784 486.6279 220.1784 484.9514 218.1666 482.0453 211.7956 475.5626 210.7897 473.7743 210.5661 465.7267 210.7897 463.156 211.2367 461.703 212.1309 459.4675 212.4662 458.0145 212.8015 453.3201 212.4662 453.2084 213.9193 451.0847 218.0548 446.2785 218.8372 444.1549 217.6077 439.1252 217.2724 436.2191 218.1666 434.9897 219.9549 433.6484 220.2902 430.6306 220.1784 427.3892 220.6255 425.1538 222.1903 424.2596 228.7848 423.4772 233.4792 421.5771Z" />
  <path class="Nimba" d="M685.1465 504.2878L685.0348 504.2878 681.1228 513.1177 675.4224 532.3424 661.1157 561.1793 657.3155 566.9914 651.9505 573.3624 645.5795 578.5039 638.8733 581.0746 635.5201 582.8629 632.5023 590.6869 628.9256 593.7047 631.6081 597.6167 632.167 603.5406 631.0493 609.7998 628.9256 614.3824 625.2372 616.9531 615.5131 618.0708 611.3776 619.4121 608.3597 623.5476 610.2598 626.4537 613.1659 628.8009 613.1659 631.0363 608.8068 636.6249 607.3538 642.2134 608.695 644.7842 612.16 641.431 615.8484 644.7842 617.7485 648.4726 617.1897 652.9435 613.613 658.3085 611.2658 660.5439 607.3538 662.444 579.6345 661.7734 573.2636 663.3382 574.2695 657.7496 574.6048 655.7377 574.7166 655.2906 576.7285 652.0493 576.8403 651.2669 576.6167 650.2609 575.499 648.3608 572.9283 645.0077 572.2576 643.3311 572.1459 642.2134 572.2576 641.0957 573.1518 639.0838 574.8284 637.6308 575.3872 637.519 575.7226 637.0719 575.6108 636.7366 574.9402 635.9542 574.3813 635.5072 573.9342 635.0601 573.04 633.9424 572.4812 632.9364 571.8106 632.2658 571.4752 631.9305 571.0282 631.7069 570.4693 631.5952 570.134 631.3716 569.6869 631.1481 569.5751 630.5892 569.6869 629.695 570.5811 626.6772 570.8046 626.0066 571.0282 625.7831 571.3635 625.6713 571.8106 625.6713 573.7107 625.8948 574.3813 625.8948 575.0519 625.6713 575.8343 625.2242 576.3932 624.7771 577.2873 623.8829 577.6227 623.4359 577.6227 623.1006 577.3991 622.6535 573.4871 619.6356 572.3694 618.4062 571.9223 617.7355 571.9223 617.512 572.0341 617.0649 572.593 616.1707 576.505 611.3646 576.7285 611.0293 577.0638 610.4704 576.8403 609.7998 576.505 608.6821 574.4931 605.3289 573.8224 604.6583 572.4812 603.9877 571.8106 603.3171 571.6988 603.2053 571.6988 602.7582 571.8106 602.0876 572.7047 599.1815 572.7047 598.6227 572.593 595.2695 572.3694 594.5989 571.9223 593.8165 570.6928 592.587 565.7749 589.3457 565.3278 588.8986 565.1043 588.3397 565.3278 587.8926 566.1102 587.222 567.3397 586.6631 567.5633 586.4396 567.675 586.2161 567.8986 584.9866 568.2339 584.763 568.681 584.5395 569.0163 583.9806 569.1281 582.9747 569.1281 581.0746 569.2398 579.9569 569.4634 579.5098 570.0222 579.398 570.3575 579.7333 570.8046 580.2922 571.1399 581.1864 571.4752 581.5217 571.6988 581.6334 572.0341 581.5217 572.3694 581.1864 573.3754 579.5098 573.9342 578.9509 574.1578 578.1685 574.4931 575.486 574.8284 574.7036 575.2755 574.2565 578.4051 573.1388 578.9639 572.8035 579.1875 572.58 579.2992 572.0211 579.2992 571.3505 578.9639 568.668 578.7404 567.4385 578.6286 566.7679 578.6286 566.209 578.5168 565.0913 577.7344 560.1734 577.7344 558.8321 578.0697 557.7144 579.2992 556.7085 578.8521 555.9261 577.3991 554.8084 572.9283 552.6847 567.2279 551.2317 566.4455 551.0081 564.0983 547.8785 559.5157 537.4838 559.7393 530.3305 560.2981 526.642 560.4099 525.6361 560.0746 521.7241 560.1864 520.2711 560.5217 518.818 562.31 513.6766 563.4277 507.8645 563.4277 506.9703 563.0924 506.0761 562.1982 505.4055 561.5276 505.0702 560.9688 504.9584 559.6275 505.4055 559.1804 505.5173 558.6216 505.5173 558.1745 505.2937 557.9509 505.182 557.8392 504.6231 557.9509 504.0642 559.9628 500.1523 560.2981 498.9228 561.4158 492.1047 562.31 489.8693 562.6453 489.1987 565.3278 485.9573 565.6631 485.622 566.222 485.2867 569.5751 484.0572 570.0222 483.7219 570.3575 483.3866 570.9164 482.0453 571.0282 481.5982 571.1399 481.1512 571.587 479.1393 572.2576 477.4627 572.1459 476.7921 571.6988 476.1215 570.2458 475.1155 569.2398 474.6684 567.4515 474.4449 565.3278 475.2273 564.769 475.5626 563.4277 476.1215 560.6334 475.6744 549.7916 472.0977 552.2506 472.2095 553.2565 471.6506 554.3743 470.5329 555.7155 466.6209 555.6037 465.0561 553.9272 462.1501 553.9272 460.8088 555.7155 458.6851 556.4979 457.4557 557.1685 455.8909 558.0627 452.426 557.6156 450.8612 557.6156 449.7435 559.1804 447.3963 559.851 446.2785 560.1864 445.0491 560.7452 443.9314 562.5336 442.3666 562.9806 441.3606 562.9806 440.0194 562.1982 438.4546 561.4158 437.5604 561.3041 436.4427 562.0865 435.2132 562.9806 434.2073 563.9866 433.4249 564.769 432.5307 566.5573 431.0777 567.3397 429.8482 567.4515 428.1716 566.4455 423.2537 566.222 420.9065 566.4455 418.3358 567.675 411.5177 567.675 409.6176 565.6631 407.6057 564.4337 405.4821 563.8748 405.035 563.4277 404.9232 562.31 404.8114 561.6394 404.6997 560.5217 404.2526 559.9628 403.3584 559.1804 400.6759 558.6216 399.67 557.7274 398.664 556.945 397.5463 556.3861 395.6462 555.7155 394.305 554.9331 393.299 552.8095 392.1813 551.8035 391.5107 550.4623 389.6106 549.0092 387.934 548.8975 386.9281 552.9212 382.7925 553.4801 382.1219 553.4801 382.0101 553.5919 378.657 553.9272 376.5333 554.9331 373.5155 555.0449 371.1683 555.6037 367.4799 559.851 361.556 567.675 335.2898 568.5692 333.0543 569.9105 332.6073 573.2636 332.0484 576.3932 331.0425 579.7463 328.6953 582.7641 325.901 586.1173 324.1127 590.141 324.448 592.1529 323.3303 597.4062 321.7655 598.5239 321.6537 599.3063 317.8535 600.424 317.5182 602.8829 318.6359 604.2242 312.9355 607.242 314.8356 611.8246 322.1008 614.9542 321.7655 625.349 317.7417 627.9197 316.1769 629.4845 311.3707 628.3668 306.7881 626.6902 302.429 626.1314 298.4053 627.2491 295.8345 629.4845 292.4814 633.8436 287.0046 636.079 285.6634 639.991 284.4339 642.0029 282.6455 642.897 280.5219 643.2323 275.604 644.1265 273.2568 645.5795 272.1391 652.174 268.1153 656.3096 263.7562 658.6568 259.2854 659.5509 254.591 659.3274 248.8906 658.6568 247.7729 657.5391 247.5494 656.6449 247.1023 656.3096 245.5375 656.7567 244.1963 658.2097 241.7373 658.545 240.2843 659.1039 232.0132 660.7804 226.9835 667.0396 219.2713 668.9397 214.4651 697.4414 216.0299 696.2119 225.0834 697.6649 231.6779 702.1358 237.1547 709.848 242.855 717.1131 247.4376 727.0607 252.4673 731.4198 260.9619 736.3377 278.0629 739.132 301.4231 740.4733 306.1175 742.0381 309.0235 746.1736 314.8356 747.6266 317.9652 749.5267 325.4539 750.6444 327.354 753.5505 330.9307 754.5564 332.8308 754.6682 334.3956 754.1094 337.5252 754.3329 339.09 755.2271 340.543 758.692 344.1197 760.145 346.5787 760.8156 348.8141 761.1509 354.738 765.2865 377.7628 764.6158 383.5749 762.8275 385.8103 758.0213 389.6106 756.6801 391.7342 756.3448 395.9815 756.6801 399.8935 756.4565 403.6937 753.4387 410.4 754.5564 412.1883 756.5683 413.4178 757.686 414.8708 757.9096 418.1122 757.4625 421.4653 755.4506 428.7305 752.4328 435.7721 749.0796 441.0253 727.5078 465.1679 722.8134 470.4211 705.6007 484.169 702.3593 488.081 701.8004 488.081 697.7767 490.3164 697.5531 490.3164 697.7767 490.7635 696.659 494.1166 696.2119 495.1226 695.0942 495.7932 692.1881 496.2403 691.0704 496.7991 685.1465 504.2878Z" />
  <path class="River Cess" d="M559.5157 537.4838L564.0983 547.8785 566.4455 551.0081 567.2279 551.2317 572.9283 552.6847 577.3991 554.8084 578.8521 555.9261 579.2992 556.7085 578.0697 557.7144 577.7344 558.8321 577.7344 560.1734 578.5168 565.0913 578.6286 566.209 578.6286 566.7679 578.7404 567.4385 578.9639 568.668 579.2992 571.3505 579.2992 572.0211 579.1875 572.58 578.9639 572.8035 578.4051 573.1388 575.2755 574.2565 574.8284 574.7036 574.4931 575.486 574.1578 578.1685 573.9342 578.9509 573.3754 579.5098 572.3694 581.1864 572.0341 581.5217 571.6988 581.6334 571.4752 581.5217 571.1399 581.1864 570.8046 580.2922 570.3575 579.7333 570.0222 579.398 569.4634 579.5098 569.2398 579.9569 569.1281 581.0746 569.1281 582.9747 569.0163 583.9806 568.681 584.5395 568.2339 584.763 567.8986 584.9866 567.675 586.2161 567.5633 586.4396 567.3397 586.6631 566.1102 587.222 565.3278 587.8926 565.1043 588.3397 565.3278 588.8986 565.7749 589.3457 570.6928 592.587 571.9223 593.8165 572.3694 594.5989 572.593 595.2695 572.7047 598.6227 572.7047 599.1815 571.8106 602.0876 571.6988 602.7582 571.6988 603.2053 571.8106 603.3171 572.4812 603.9877 573.8224 604.6583 574.4931 605.3289 576.505 608.6821 576.8403 609.7998 577.0638 610.4704 576.7285 611.0293 576.505 611.3646 572.593 616.1707 572.0341 617.0649 571.9223 617.512 571.9223 617.7355 572.3694 618.4062 573.4871 619.6356 577.3991 622.6535 577.6227 623.1006 577.6227 623.4359 577.2873 623.8829 576.3932 624.7771 575.8343 625.2242 575.0519 625.6713 574.3813 625.8948 573.7107 625.8948 571.8106 625.6713 571.3635 625.6713 571.0282 625.7831 570.8046 626.0066 570.5811 626.6772 569.6869 629.695 569.5751 630.5892 569.6869 631.1481 570.134 631.3716 570.4693 631.5952 571.0282 631.7069 571.4752 631.9305 571.8106 632.2658 572.4812 632.9364 573.04 633.9424 573.9342 635.0601 574.3813 635.5072 574.9402 635.9542 575.6108 636.7366 575.7226 637.0719 575.3872 637.519 574.8284 637.6308 573.1518 639.0838 572.2576 641.0957 572.1459 642.2134 572.2576 643.3311 572.9283 645.0077 575.499 648.3608 576.6167 650.2609 576.8403 651.2669 576.7285 652.0493 574.7166 655.2906 574.6048 655.7377 574.2695 657.7496 573.2636 663.3382 568.2339 666.9149 564.2101 671.9446 561.3041 677.7567 560.6334 680.8862 560.0746 687.4807 559.0686 690.1633 557.1685 691.9516 554.9331 692.8458 549.7916 693.6282 546.7738 694.8576 539.3969 700.558 537.2733 701.6757 530.567 704.47 526.7668 707.2642 519.9487 714.0823 513.3542 717.8825 508.4363 723.2475 509.2187 726.7124 510.6717 729.842 512.4601 732.7481 513.6895 736.4365 518.6075 758.3437 518.4957 759.6849 518.2722 761.6968 517.1545 765.7206 516.2603 767.8442 509.554 776.6741 508.5481 777.6801 508.2128 777.7919 507.7657 777.7919 507.095 777.6801 506.0891 777.7919 505.3067 777.9036 503.9655 778.3507 503.2948 779.1331 502.8477 780.2508 502.1771 782.598 501.6183 783.7157 500.9476 784.4981 499.6064 785.057 498.9358 785.3923 497.371 786.9571 496.9239 787.2924 496.4768 787.6277 495.6944 787.963 492.1177 789.0807 491.5589 789.5278 491.2235 789.9749 491.1118 790.422 491.1118 791.2044 491.2235 792.5457 491.4471 793.5516 491.5589 793.8869 491.8942 794.334 492.2295 794.6693 494.3531 796.2341 494.8002 796.9047 494.912 797.24 494.8002 797.5754 494.2414 798.1342 493.9061 798.1342 481.2759 786.2865 479.5993 782.7098 477.0286 773.9916 474.905 769.7443 472.3342 767.2854 468.4222 764.6029 464.2867 762.4792 460.71 761.585 460.0394 761.138 453.3331 759.7967 451.8801 759.9085 451.5448 757.5613 454.4508 753.9846 455.0097 751.7492 451.0977 745.9371 427.1787 731.9657 418.4605 723.6946 418.4605 723.5828 418.4605 722.4651 418.684 721.4592 419.1311 720.6768 420.0253 719.8944 421.5901 719.2238 422.7078 718.5531 423.4902 717.7707 423.9373 716.2059 424.6079 714.7529 425.7256 713.1881 431.2024 707.9349 431.9848 706.5936 432.6554 704.2464 432.7672 702.9052 432.6554 701.6757 431.0906 694.2988 430.3083 692.5105 428.6317 689.9397 428.1846 689.0455 427.9611 688.0396 427.8493 687.0337 427.8493 686.0277 427.9611 685.1336 428.4081 684.1276 429.8612 681.2216 430.0847 680.6627 430.0847 679.9921 430.0847 678.4273 429.9729 677.6449 429.5259 675.9683 427.4022 671.3857 426.9551 669.7091 426.9551 668.815 427.0669 667.9208 427.8493 664.903 428.5199 663.1146 436.3439 650.708 436.6792 649.9256 436.6792 649.0315 436.5674 648.1373 434.4438 643.89 433.9967 642.2134 433.9967 641.3193 434.332 640.4251 435.5615 638.1897 435.8968 637.2955 435.8968 636.2895 435.1144 633.8306 435.1144 633.0482 435.2262 632.0422 438.1322 622.877 438.244 622.0946 438.244 620.5298 438.1322 619.6356 437.9087 618.8532 437.6851 617.0649 437.6851 616.059 437.9087 615.1648 438.8029 614.0471 440.2559 613.0411 446.2915 610.6939 447.0739 609.7998 447.7446 608.235 447.8563 607.1173 447.6328 604.9936 447.7446 603.9877 448.0799 602.9817 448.527 601.9758 449.1976 600.9699 450.3153 600.0757 451.7683 599.4051 454.3391 598.958 457.1333 598.8462 460.4865 599.0697 462.163 599.4051 463.0572 599.8521 463.8396 600.411 464.9573 602.0876 465.6279 602.7582 466.4103 603.4288 467.3045 603.5406 468.3105 603.0935 469.6517 601.4169 474.905 593.0341 476.2462 591.3575 483.6231 584.6513 484.7408 583.0865 485.1879 581.857 482.8407 569.3386 482.7289 565.7619 482.8407 563.9736 484.5173 557.8262 484.8526 556.2614 484.8526 554.5848 484.629 553.8024 484.4055 552.9083 483.7349 551.2317 483.5113 550.4493 483.5113 549.5551 483.6231 548.7727 484.0702 547.8785 484.7408 547.0961 485.8585 546.0902 486.7527 545.4196 487.7586 544.9725 497.371 542.9606 498.4887 542.5135 500.277 541.7311 503.8537 540.6134 505.642 539.9428 508.9952 537.7074 559.5157 537.4838Z" />
  <path class="River Gee" d="M730.1903 750.4079L738.5732 753.5375 764.8394 753.2022 796.2471 749.7373 811.6715 746.7195 974.4103 739.9014 974.5221 739.9014 974.8574 740.3485 973.6279 742.3604 970.8337 744.5958 969.0453 748.0607 969.2689 757.1142 968.1512 759.6849 964.798 757.8966 964.9098 761.6968 965.804 766.0559 967.4805 770.0796 969.716 773.4328 973.2926 775.3329 975.7516 774.8858 977.5399 775.2211 978.8812 779.8037 979.5518 784.3864 979.3283 787.0689 977.8752 789.6396 974.9692 793.6634 974.4103 795.2282 973.5162 799.2519 972.2867 800.705 970.0513 801.8227 969.4924 800.8167 969.3806 799.0284 968.71 797.4636 968.3747 796.2341 969.6042 795.0046 970.0513 794.1105 967.257 793.5516 966.6981 794.2222 960.4389 797.5754 958.7624 799.8108 957.6447 802.0462 955.1857 809.982 957.0858 821.2708 956.974 825.2946 955.521 829.5419 949.1501 841.2779 945.6851 839.9366 941.6614 839.8249 937.7494 841.6132 934.7316 845.9723 934.1727 850.2196 936.0728 864.0792 935.7375 869.2207 937.4141 872.5738 939.6495 875.7034 940.9908 880.3978 940.9908 883.9745 940.0966 883.8627 938.0847 882.5215 934.9551 882.1861 927.69 887.9982 927.5782 890.2337 929.2548 897.6106 928.9195 900.4048 927.5782 905.3228 927.5782 907.2229 927.4664 907.1111 926.684 906.5523 924.8957 905.6581 919.9778 904.4286 918.5248 903.758 917.407 902.752 915.3952 898.84 914.7245 898.0576 913.6068 897.2752 911.5949 896.7164 908.3536 896.2693 900.9767 892.3573 899.0766 891.7985 897.7353 891.9102 897.0647 892.3573 896.3941 892.6926 895.4999 892.8044 894.7175 892.6926 893.7116 892.3573 892.9292 892.2455 892.035 892.5809 891.2526 893.0279 888.6818 895.3751 886.7817 896.4928 885.8876 896.8282 884.6581 897.1635 883.4286 897.0517 880.7461 896.2693 879.7402 896.2693 878.1754 896.7164 877.5047 896.7164 875.9399 896.6046 874.8222 896.7164 873.8163 896.8282 873.0339 896.7164 872.2515 895.934 871.5809 893.9221 871.022 890.3454 870.7985 889.563 870.7985 888.6689 870.7985 887.7747 871.1338 886.7688 871.2455 886.0981 871.1338 885.204 870.7985 884.198 870.6867 882.2979 870.7985 847.6488 870.4631 846.4194 869.9043 845.3017 868.7866 844.1839 867.8924 843.6251 866.1041 843.0662 827.3195 836.2482 793.8999 830.7714 785.9641 830.2125 784.3993 831.1067 783.2816 830.9949 781.8286 830.5479 773.334 824.8475 769.8691 823.8416 759.2508 822.5003 759.8097 814.8999 759.5861 811.0997 758.5802 807.2994 757.5743 805.1758 750.1974 794.1105 733.3199 776.7859 732.2022 774.9976 730.8609 772.3151 728.8491 766.0559 728.0667 762.2557 728.2902 759.1261 730.1903 750.4079Z" />
  <path class="Sinoe" d="M573.2636 663.3382L579.6345 661.7734 607.3538 662.444 611.2658 660.5439 613.613 658.3085 617.1897 652.9435 679.558 687.9278 693.3058 693.8517 708.6185 675.1859 709.4009 674.5153 711.0774 673.9564 713.3129 673.7329 721.0251 674.18 723.1487 674.6271 725.0488 675.2977 732.314 679.7685 735.1083 681.8922 738.4614 685.3571 743.044 691.9516 746.7325 698.6579 748.0737 702.4581 748.9679 705.923 749.1914 707.5996 749.0796 710.1703 748.8561 711.0645 748.6326 711.8469 748.1855 712.6293 747.5149 713.4117 746.7325 713.9705 745.8383 714.4176 741.8145 715.4235 739.8026 715.6471 732.0904 715.8706 730.9727 715.9824 729.1844 716.4295 728.2902 716.7648 727.396 717.2119 726.7254 717.8825 726.1666 718.6649 725.7195 719.5591 725.4959 720.4532 725.0488 723.024 724.8253 723.8064 724.49 724.7006 719.4603 731.7421 718.4543 733.5305 718.0073 734.5364 717.7837 735.4306 717.7837 736.6601 718.0073 737.8895 719.0132 739.9014 720.0191 740.7956 721.0251 741.4662 724.7135 742.2486 728.0667 743.3663 729.2961 744.2605 730.0785 745.1547 730.5256 745.9371 730.6374 746.943 730.6374 747.8372 730.1903 750.2961 730.1903 750.4079 728.2902 759.1261 728.0667 762.2557 728.8491 766.0559 730.8609 772.3151 732.2022 774.9976 733.3199 776.7859 750.1974 794.1105 757.5743 805.1758 758.5802 807.2994 759.5861 811.0997 759.8097 814.8999 759.2508 822.5003 756.233 823.618 754.2211 824.7358 752.8799 826.077 745.2794 835.1305 743.2675 838.4836 742.3734 839.4895 741.2557 840.3837 739.3556 841.1661 738.0143 841.3897 727.7314 841.3897 725.8312 841.6132 724.9371 842.0603 724.0429 842.5074 708.1714 854.6904 701.018 858.7142 699.9003 860.0554 698.3355 862.1791 692.747 871.7914 689.3938 879.0565 688.7232 879.9507 687.7173 880.7331 685.7054 881.5155 684.4759 881.8508 678.4403 882.2979 677.5461 882.9685 676.6519 884.4216 674.9754 890.4572 674.4165 894.0339 673.2988 897.7223 671.1751 900.5166 664.916 906.1052 654.5212 902.305 647.0326 898.2812 630.2669 884.0862 624.0077 880.0625 616.6308 876.7094 614.1718 876.2623 609.2539 874.0268 601.877 872.9091 596.0649 871.1208 590.3646 868.4383 586.3408 865.4205 587.0114 864.8616 587.235 864.6381 587.235 864.4145 587.7938 863.6321 577.2873 860.7261 568.7927 855.6964 555.1567 843.8486 551.3564 841.5014 542.9736 837.4777 535.5967 832.0009 531.2376 830.3243 527.2139 828.3124 524.0843 824.0651 527.2139 824.0651 523.9725 819.7061 519.1663 817.0235 513.9131 815.0117 509.2187 812.5527 493.9061 798.1342 494.2414 798.1342 494.8002 797.5754 494.912 797.24 494.8002 796.9047 494.3531 796.2341 492.2295 794.6693 491.8942 794.334 491.5589 793.8869 491.4471 793.5516 491.2235 792.5457 491.1118 791.2044 491.1118 790.422 491.2235 789.9749 491.5589 789.5278 492.1177 789.0807 495.6944 787.963 496.4768 787.6277 496.9239 787.2924 497.371 786.9571 498.9358 785.3923 499.6064 785.057 500.9476 784.4981 501.6183 783.7157 502.1771 782.598 502.8477 780.2508 503.2948 779.1331 503.9655 778.3507 505.3067 777.9036 506.0891 777.7919 507.095 777.6801 507.7657 777.7919 508.2128 777.7919 508.5481 777.6801 509.554 776.6741 516.2603 767.8442 517.1545 765.7206 518.2722 761.6968 518.4957 759.6849 518.6075 758.3437 513.6895 736.4365 512.4601 732.7481 510.6717 729.842 509.2187 726.7124 508.4363 723.2475 513.3542 717.8825 519.9487 714.0823 526.7668 707.2642 530.567 704.47 537.2733 701.6757 539.3969 700.558 546.7738 694.8576 549.7916 693.6282 554.9331 692.8458 557.1685 691.9516 559.0686 690.1633 560.0746 687.4807 560.6334 680.8862 561.3041 677.7567 564.2101 671.9446 568.2339 666.9149 573.2636 663.3382Z" />
</svg>