<?xml version="1.0" encoding="utf-8"?>
<svg xmlns="http://www.w3.org/2000/svg" viewBox="0 0 996 1024" style="stroke-width:0.25px;stroke-linejoin:round;stroke:#444;fill:#ddd" fill-rule="evenodd">
  <path class="Brokopondo" d="M781.74 255.1498L798.0586 261.409 804.5414 267.4447 807.4474 272.5861 808.2298 274.4862 808.6769 277.1688 808.4534 279.6277 807.4474 282.1985 804.3178 287.2282 803.0883 289.7989 802.4177 292.5932 802.0824 298.6288 801.5235 301.5349 800.4058 304.4409 797.4998 309.8059 796.4938 312.3767 795.935 314.9474 795.2644 320.536 794.482 323.2185 790.6817 330.5954 789.8993 333.1661 789.6758 335.8486 790.1229 357.4205 789.1169 363.009 787.9992 365.6915 786.4344 368.374 781.8518 373.6273 773.6925 381.0042 771.7924 383.6867 770.4512 386.7045 770.1158 389.387 770.1158 392.4048 770.4512 395.3109 771.5689 400.6759 775.9279 413.5296 776.2633 416.1003 776.375 421.3536 775.9279 423.4772 770.5629 438.0075 764.192 448.7375 762.9625 451.5318 761.2859 456.8968 760.1682 459.4675 758.3799 461.4794 756.0327 462.4854 753.6855 461.0323 749.5499 454.6614 746.7557 452.2024 745.0791 451.6436 742.8437 451.9789 741.0553 453.5437 739.4905 455.6673 736.5845 460.697 734.5726 463.0442 732.3372 464.8326 729.8782 465.615 721.9425 466.5091 719.1482 467.2915 716.4657 468.4092 713.7832 470.0858 703.3884 479.9217 700.9295 481.8218 685.1697 489.9811 682.7108 490.6517 680.14 490.8752 677.5693 490.3164 675.2221 489.1987 673.2102 487.2986 671.869 484.9514 670.1924 476.7921 665.3862 391.1754 664.6039 387.7105 663.0391 383.9102 659.9095 378.3217 657.1152 374.8568 656.8916 374.745 656.6681 374.5215 656.5563 372.8449 658.3447 326.0128 654.3209 286.1105 651.4149 276.9452 648.1735 269.5683 623.5838 230.8955 631.9667 221.2832 643.7026 212.565 651.7502 204.4057 660.3565 190.099 661.2507 187.9754 661.4743 186.2988 661.1389 184.734 660.133 183.281 658.7917 181.8279 657.674 179.7043 658.2329 177.2453 660.6919 173.7804 666.951 172.5509 739.3788 171.8803 744.2967 172.6627 745.9733 174.5628 747.091 176.7982 747.8734 191.552 748.544 194.2345 749.997 196.6935 752.2325 198.7054 764.9744 207.5353 767.3216 209.659 769.2217 212.1179 770.5629 214.5769 771.4571 217.1476 771.6806 219.7184 770.5629 224.8598 770.6747 227.0953 771.9042 229.3307 773.8043 231.0073 775.7044 233.2427 776.4868 235.5899 776.8221 238.0488 776.8221 247.7729 776.0397 251.5732 775.8162 253.4733 776.4868 255.2616 778.1634 256.4911 779.7282 256.4911 781.74 255.1498Z" />
  <path class="Commewijne" d="M817.1715 12.9417L815.942 15.8477 814.2655 21.101 816.0538 40.5492 814.3772 44.0141 809.6828 49.7144 808.6769 52.5087 808.3416 55.5265 809.124 61.7857 809.4593 63.6858 811.4712 68.9391 813.3713 72.7393 815.4949 80.0044 817.395 84.1399 824.8837 95.3171 829.8017 105.3765 835.8373 114.2064 743.0672 121.0244 738.2611 120.9127 733.6784 119.3479 734.1255 105.7118 734.0138 103.2528 733.2314 102.2469 732.2254 101.7998 732.3372 100.7938 732.6725 99.6761 732.3372 98.8937 730.8842 98.782 729.3194 99.4526 728.0899 100.235 727.4193 100.5703 724.9603 100.235 724.0661 100.5703 723.9543 100.3468 724.0661 97.9996 724.625 97.5525 727.4193 92.1875 736.1374 88.0519 737.4787 87.3813 739.0435 85.593 736.9198 82.2398 732.1136 80.1162 722.3895 77.0983 718.0305 73.857 714.4538 69.8332 711.436 65.3624 710.7653 63.7976 709.2006 60.4444 707.524 55.1912 710.5418 53.7382 714.4538 50.385 721.1601 48.1496 723.3955 42.6728 723.619 37.196 724.8485 35.4077 730.2135 35.2959 738.2611 40.9963 743.179 42.0022 746.3086 41.3316 748.3205 39.9903 750.2206 39.5432 755.5856 42.8964 757.7092 43.2317 759.7211 42.7846 762.1801 42.0022 764.0802 40.7727 765.3097 39.2079 766.9862 37.7549 769.7805 37.196 772.1277 37.6431 774.5867 38.8726 778.834 42.0022 777.7163 39.9903 776.1515 38.0902 774.2514 36.4136 772.2395 35.4077 768.9981 34.7371 766.8745 35.0724 764.6391 36.8607 761.8448 38.5373 756.2562 39.0961 752.5678 36.749 749.1029 35.9666 745.3026 38.202 741.6142 37.9784 737.9257 34.9606 734.1255 33.0605 720.0424 29.0367 715.1244 26.5778 710.9889 23.7835 709.2006 21.2128 708.1946 18.642 706.8534 16.9655 708.4182 14.3947 710.5418 13.0535 717.2481 10.371 724.9603 9.0297 734.7961 8.4708 742.2848 8.3591 800.5176 10.371 804.9884 11.3769 815.3832 12.6064 817.1715 12.9417Z" />
  <path class="Coronie" d="M523.2133 119.0125L513.2657 122.1421 510.1361 124.154 509.689 125.16 509.8008 126.3894 512.0362 130.6367 511.8127 133.0957 511.0303 134.1017 507.7889 135.1076 501.865 138.4607 500.3002 140.1373 498.2883 143.9375 497.1706 144.6081 492.8116 145.9494 488.4525 154.2205 486.3288 155.1146 471.4633 156.2323 447.5442 154.8911 433.4611 156.0088 428.5431 157.4618 424.8547 159.6972 420.6074 164.1681 415.5777 168.4154 412.4481 170.5391 408.4243 172.4392 385.7348 173.3333 388.3055 170.4273 390.0938 169.3096 391.0998 167.0741 391.0998 164.8387 389.8703 162.4915 388.1937 158.356 386.7407 155.6735 384.8406 153.1028 383.2758 152.2086 381.8228 152.4321 380.8168 153.2145 379.9227 154.7793 379.1403 158.4678 378.5814 159.6972 377.0166 160.1443 374.893 159.3619 370.981 158.4678 369.3044 157.7971 369.0809 156.6794 369.6397 155.2264 370.5339 153.6616 370.7574 150.9791 371.7634 149.5261 372.9928 148.2966 374.3341 146.5083 375.34 144.2728 375.5636 140.8079 375.0047 138.4607 373.7752 136.4488 365.7277 128.1778 364.8336 125.7188 365.1689 124.2658 366.5101 124.0422 368.1867 124.3776 369.6397 124.154 371.0927 123.1481 372.3222 121.8068 373.7752 120.5773 375.2283 120.242 376.9048 120.8009 379.6991 122.5892 381.0404 122.3657 381.711 121.248 382.2699 118.2301 381.8228 115.6594 381.2639 114.0946 372.3222 103.2528 366.2866 90.8462 365.616 88.2755 365.1689 82.7987 364.1629 80.5633 361.4804 76.4277 357.792 68.0449 357.1213 61.8975 356.6743 21.2128 356.5625 18.8656 359.1332 19.9833 363.8276 21.2128 375.2283 22.2187 401.6063 28.3661 416.9189 32.5017 429.3255 32.9487 440.7262 35.9666 448.9972 38.3138 456.5977 40.3256 472.9163 43.7905 482.8639 47.1437 488.7878 48.8202 493.8175 49.6026 503.2063 52.9558 518.6307 54.4088 522.9898 59.215 526.4547 61.3386 527.9077 64.58 527.9077 85.593 528.0195 85.593 527.4606 86.7107 524.1075 90.2873 520.419 91.1815 513.8245 91.9639 511.8127 92.6345 510.3596 93.6405 509.8008 94.87 509.2419 96.6583 509.3537 98.2231 509.9125 99.7879 510.8067 101.688 512.7068 104.5941 519.0778 111.6356 520.0837 112.3063 521.8721 114.3182 523.2133 119.0125Z" />
  <path class="Marowijne" d="M910.3887 198.7054L910.2769 198.5936 904.5766 192.7815 902.4529 191.4403 898.988 189.8755 890.2699 186.8576 876.7455 177.5806 873.5042 175.7923 829.3546 159.2502 837.2903 147.9613 838.6316 145.3905 839.6375 142.708 840.3081 139.802 840.6435 136.4488 840.7552 131.3074 839.5257 122.9245 835.8373 114.2064 829.8017 105.3765 824.8837 95.3171 817.395 84.1399 815.4949 80.0044 813.3713 72.7393 811.4712 68.9391 809.4593 63.6858 809.124 61.7857 808.3416 55.5265 808.6769 52.5087 809.6828 49.7144 814.3772 44.0141 816.0538 40.5492 814.2655 21.101 815.942 15.8477 817.1715 12.9417 824.7719 14.2829 873.7277 21.2128 903.6824 27.8073 926.9308 32.3899 947.1614 38.9844 964.5977 44.0141 970.1862 44.5729 973.2041 45.6906 979.2397 45.2436 980.6927 47.2554 983.2635 48.1496 984.6047 50.6086 984.2694 53.1793 990.0815 64.4682 991.5345 68.8273 989.1873 71.5098 983.3752 82.5751 980.6927 87.3813 979.3515 97.1054 975.9983 115.9947 973.4276 125.4953 970.298 131.1956 965.9389 136.4488 961.6916 140.1373 959.4562 142.5963 958.4503 144.9435 956.9972 149.5261 946.7143 165.6211 942.0199 171.0979 922.907 184.9575 912.7359 195.464 910.3887 198.7054Z" />
  <path class="Nickerie" d="M385.7348 173.3333L327.502 169.3096 230.1493 184.3987 215.9543 185.1811 204.1066 186.9694 203.8831 186.5223 202.8771 185.0693 200.4182 184.2869 197.6239 184.3987 195.612 185.6282 195.1649 187.9754 196.3944 190.3226 198.9651 193.2286 198.2945 194.9052 196.7297 195.9111 194.6061 196.2464 192.4824 195.5758 191.2529 194.2345 190.8058 192.3344 190.4705 175.3452 189.6881 174.6746 188.1233 174.6746 185.6644 174.1157 182.1994 175.5688 179.964 175.5688 179.0699 173.3333 179.8523 170.6508 181.8641 167.9683 193.6001 156.1206 196.1708 152.2086 197.065 146.5083 197.4003 141.255 198.1827 137.4548 200.4182 132.3133 203.7713 128.9602 205.8949 126.8365 213.6072 123.8187 216.9603 121.248 219.1957 118.2301 220.7605 114.7652 226.5726 88.3872 227.8021 65.3624 229.4787 57.2031 229.9257 51.1674 232.8318 41.2198 235.6261 34.5135 242.1088 23.8953 243.1147 21.101 244.456 18.9773 246.4679 17.5243 252.0564 16.5184 253.733 15.4007 254.9625 14.3947 256.3037 13.8359 257.4215 13.1652 260.4393 9.7003 261.7805 8.5826 264.2395 7.6884 266.5867 7.2414 269.2692 4.5589 271.0575 4 277.7638 5.7883 292.7411 9.2532 301.6828 10.2592 313.6424 10.2592 332.6435 11.1534 343.0382 11.7122 347.1737 13.277 354.7741 18.0832 356.5625 18.8656 356.6743 21.2128 357.1213 61.8975 357.792 68.0449 361.4804 76.4277 364.1629 80.5633 365.1689 82.7987 365.616 88.2755 366.2866 90.8462 372.3222 103.2528 381.2639 114.0946 381.8228 115.6594 382.2699 118.2301 381.711 121.248 381.0404 122.3657 379.6991 122.5892 376.9048 120.8009 375.2283 120.242 373.7752 120.5773 372.3222 121.8068 371.0927 123.1481 369.6397 124.154 368.1867 124.3776 366.5101 124.0422 365.1689 124.2658 364.8336 125.7188 365.7277 128.1778 373.7752 136.4488 375.0047 138.4607 375.5636 140.8079 375.34 144.2728 374.3341 146.5083 372.9928 148.2966 371.7634 149.5261 370.7574 150.9791 370.5339 153.6616 369.6397 155.2264 369.0809 156.6794 369.3044 157.7971 370.981 158.4678 374.893 159.3619 377.0166 160.1443 378.5814 159.6972 379.1403 158.4678 379.9227 154.7793 380.8168 153.2145 381.8228 152.4321 383.2758 152.2086 384.8406 153.1028 386.7407 155.6735 388.1937 158.356 389.8703 162.4915 391.0998 164.8387 391.0998 167.0741 390.0938 169.3096 388.3055 170.4273 385.7348 173.3333Z" />
  <path class="Para" d="M623.5838 230.8955L621.7955 232.0132 619.113 232.5721 617.7717 233.3545 615.8716 236.2605 614.6421 237.7135 613.5244 238.7195 613.0773 240.0607 612.2949 243.1903 611.289 244.4198 609.836 245.4257 607.1535 246.2081 606.2593 246.8788 603.6886 247.9965 599.3295 250.4554 591.9526 253.585 581.5579 255.8205 578.7636 254.9263 576.3046 252.8026 574.4045 247.3259 573.8457 243.7492 573.5103 240.6196 572.9515 238.0488 571.4985 235.3663 568.3689 232.4603 565.6864 230.5602 562.8921 229.2189 547.4677 224.1892 542.5497 223.5186 537.4083 223.8539 531.8197 224.9716 519.9719 228.4365 517.2894 228.5483 514.8305 228.4365 503.318 225.4187 502.871 221.0596 503.0945 212.9003 510.4714 157.6854 523.2133 119.0125 526.3429 122.701 527.3488 125.7188 529.8078 128.2895 529.696 130.7485 528.243 133.2075 525.784 135.6664 523.9957 139.6902 523.9957 143.0433 525.0017 146.0612 525.5605 149.9732 527.3488 151.3144 529.3607 151.7615 540.3143 148.8554 543.3321 149.079 552.9444 151.6497 626.6017 145.8376 629.5077 145.0552 631.0725 144.0493 632.9726 143.2669 634.4256 144.0493 635.8787 145.3905 637.5552 146.62 638.7847 146.1729 639.5671 144.8317 640.126 143.3787 641.4672 142.0374 643.4791 142.0374 647.1675 140.3608 648.9559 139.2431 649.6265 137.9019 649.9618 134.884 650.6325 133.431 651.7502 131.8662 652.8679 130.1897 653.315 128.4013 653.0914 126.8365 651.9737 125.3835 648.397 122.4774 647.3911 120.8009 647.2793 119.2361 648.8441 115.9947 649.5147 112.5298 650.2971 110.7415 652.309 108.9531 653.6503 107.2766 654.4327 105.4882 654.2091 103.8117 653.315 102.2469 651.9737 100.9056 651.0795 99.4526 651.7502 97.8878 654.5444 95.8759 658.5682 94.87 660.9154 93.7523 662.0331 92.411 662.1449 90.7344 661.586 89.0579 660.2448 86.5989 683.7167 89.2814 691.876 89.0579 717.8069 84.0282 723.9543 84.3635 736.1374 88.0519 727.4193 92.1875 724.625 97.5525 724.0661 97.9996 723.9543 100.3468 724.0661 100.5703 724.9603 100.235 727.4193 100.5703 728.0899 100.235 729.3194 99.4526 730.8842 98.782 732.3372 98.8937 732.6725 99.6761 732.3372 100.7938 732.2254 101.7998 733.2314 102.2469 734.0138 103.2528 734.1255 105.7118 733.6784 119.3479 738.2611 120.9127 743.0672 121.0244 835.8373 114.2064 839.5257 122.9245 840.7552 131.3074 840.6435 136.4488 840.3081 139.802 839.6375 142.708 838.6316 145.3905 837.2903 147.9613 829.3546 159.2502 825.8897 158.1325 823.5425 161.5974 809.2358 189.0931 806.2179 197.0288 804.7649 199.1525 796.1585 206.7529 794.3702 209.1001 793.3642 210.8884 788.2228 229.5542 785.7638 243.5256 781.74 255.1498 779.7282 256.4911 778.1634 256.4911 776.4868 255.2616 775.8162 253.4733 776.0397 251.5732 776.8221 247.7729 776.8221 238.0488 776.4868 235.5899 775.7044 233.2427 773.8043 231.0073 771.9042 229.3307 770.6747 227.0953 770.5629 224.8598 771.6806 219.7184 771.4571 217.1476 770.5629 214.5769 769.2217 212.1179 767.3216 209.659 764.9744 207.5353 752.2325 198.7054 749.997 196.6935 748.544 194.2345 747.8734 191.552 747.091 176.7982 745.9733 174.5628 744.2967 172.6627 739.3788 171.8803 666.951 172.5509 660.6919 173.7804 658.2329 177.2453 657.674 179.7043 658.7917 181.8279 660.133 183.281 661.1389 184.734 661.4743 186.2988 661.2507 187.9754 660.3565 190.099 651.7502 204.4057 643.7026 212.565 631.9667 221.2832 623.5838 230.8955Z" />
  <path class="Paramaribo" d="M710.7653 63.7976L700.3706 60.4444 696.1233 57.6502 694.4468 55.7501 692.9937 53.4029 691.876 50.9439 690.0877 44.1259 689.5288 35.1842 689.7524 31.6075 689.8641 30.6015 691.876 31.1604 693.9997 31.1604 696.5704 31.4957 699.9235 31.831 702.7178 30.8251 705.8474 29.4838 709.7594 29.1485 713.8949 32.1663 718.7011 35.743 720.6012 39.3197 717.6952 46.473 714.1185 50.4968 714.4538 50.385 710.5418 53.7382 707.524 55.1912 709.2006 60.4444 710.7653 63.7976Z" />
  <path class="Saramacca" d="M523.2133 119.0125L521.8721 114.3182 520.0837 112.3063 519.0778 111.6356 512.7068 104.5941 510.8067 101.688 509.9125 99.7879 509.3537 98.2231 509.2419 96.6583 509.8008 94.87 510.3596 93.6405 511.8127 92.6345 513.8245 91.9639 520.419 91.1815 524.1075 90.2873 527.4606 86.7107 528.0195 85.593 529.696 85.593 530.9255 81.7927 531.3726 77.9925 531.1491 69.7215 530.3667 65.4741 526.2311 56.1971 523.5486 50.2733 527.3488 45.3553 524.8899 43.1199 521.8721 43.2317 519.0778 43.3435 515.7246 40.5492 514.9422 35.6312 515.9482 32.0546 519.9719 26.9131 521.5367 24.3424 524.7781 20.9892 527.1253 18.5303 530.702 15.8477 535.0611 14.1712 540.7614 12.6064 546.6853 12.2711 568.816 11.3769 580.999 10.371 591.0584 10.2592 649.8501 13.1652 664.1568 15.8477 670.9748 20.5421 674.775 22.2187 679.9165 23.8953 681.5931 24.6777 684.1638 26.8013 684.052 27.2484 668.4041 60.3327 661.586 67.7096 659.5741 69.1626 658.9035 71.9569 658.68 77.769 660.2448 86.5989 661.586 89.0579 662.1449 90.7344 662.0331 92.411 660.9154 93.7523 658.5682 94.87 654.5444 95.8759 651.7502 97.8878 651.0795 99.4526 651.9737 100.9056 653.315 102.2469 654.2091 103.8117 654.4327 105.4882 653.6503 107.2766 652.309 108.9531 650.2971 110.7415 649.5147 112.5298 648.8441 115.9947 647.2793 119.2361 647.3911 120.8009 648.397 122.4774 651.9737 125.3835 653.0914 126.8365 653.315 128.4013 652.8679 130.1897 651.7502 131.8662 650.6325 133.431 649.9618 134.884 649.6265 137.9019 648.9559 139.2431 647.1675 140.3608 643.4791 142.0374 641.4672 142.0374 640.126 143.3787 639.5671 144.8317 638.7847 146.1729 637.5552 146.62 635.8787 145.3905 634.4256 144.0493 632.9726 143.2669 631.0725 144.0493 629.5077 145.0552 626.6017 145.8376 552.9444 151.6497 543.3321 149.079 540.3143 148.8554 529.3607 151.7615 527.3488 151.3144 525.5605 149.9732 525.0017 146.0612 523.9957 143.0433 523.9957 139.6902 525.784 135.6664 528.243 133.2075 529.696 130.7485 529.8078 128.2895 527.3488 125.7188 526.3429 122.701 523.2133 119.0125Z" />
  <path class="Sipaliwini" d="M910.3887 198.7054L907.7062 202.7292 904.9119 212.3415 903.3471 214.018 899.5469 216.7006 898.4292 218.2653 897.8703 220.9479 897.0879 222.5127 883.7871 237.49 879.4281 244.5316 877.8633 248.4436 877.1926 252.5791 879.3163 262.3032 878.8692 265.8799 877.7515 267.2211 871.2688 271.692 870.151 274.1509 870.5981 276.6099 872.0512 279.963 872.0512 310.0295 872.8336 313.3826 874.8454 314.7239 877.3044 315.3945 879.6516 316.7358 882.5576 321.2066 882.6694 325.3421 881.7752 330.0365 881.9988 335.9604 885.0166 343.8961 885.4637 346.8022 885.4637 356.7498 884.346 360.9971 879.5398 369.8271 878.8692 375.9745 883.1165 402.2407 890.4934 417.6651 892.6171 428.1716 892.8406 434.319 891.2758 438.5663 888.5933 443.0372 889.5992 447.1727 892.3935 450.5259 895.4113 452.5377 903.5706 454.7732 906.0296 456.785 907.0355 461.8147 906.3649 465.3914 903.0118 473.886 902.0058 477.5745 902.3411 483.6101 904.6883 487.7457 912.9594 495.2343 914.5242 497.5815 917.0949 505.9644 918.6597 508.1998 922.1246 510.8823 923.6894 512.6706 929.7251 523.8477 934.3077 526.3067 935.3136 528.4304 936.2078 528.3186 937.9961 531.1129 940.3433 535.919 942.8023 538.8251 944.1436 539.7193 946.9378 541.0605 955.2089 543.5195 957.7796 545.196 962.8094 552.5729 965.2683 555.2554 970.298 572.58 975.8866 581.1864 975.9983 582.6394 978.6809 582.1923 981.3634 581.4099 983.8223 580.9628 986.0578 581.857 989.4109 585.3219 990.8639 588.3397 990.5286 592.1399 988.6285 597.6167 986.7284 607.7879 987.5108 626.2301 983.487 635.9542 974.6571 645.1195 973.5394 648.3608 972.9805 652.6081 971.304 657.4143 968.7332 661.5498 968.6215 661.6616 960.4622 667.4737 954.203 677.3096 945.373 688.1514 942.0199 693.5164 936.9902 705.923 942.5788 705.0288 945.2613 708.4937 945.8201 713.9705 945.2613 719.112 944.7024 719.7826 943.5847 720.3415 942.467 721.1239 941.9081 722.4651 942.467 722.6887 944.7024 724.2535 945.2613 724.9241 946.7143 730.848 947.1614 734.2011 946.0437 735.7659 943.2494 737.3307 944.5906 740.7956 947.2732 743.8134 948.6144 744.1487 948.7262 747.5019 946.9378 754.9905 946.1554 756.3318 942.8023 761.2497 941.9081 764.044 941.7964 766.6147 942.2435 768.2913 943.6965 769.8561 946.9378 772.5386 944.0318 774.1034 942.3552 776.1153 938.555 787.4042 936.6549 791.0926 918.995 815.0117 910.5004 832.3362 900.9999 856.367 897.0879 862.1791 885.4637 873.8033 882.5576 875.0328 878.8692 875.4799 873.616 875.5916 870.9334 877.0447 868.4745 878.3859 861.9917 894.9281 859.3092 897.0517 854.5031 897.6106 846.3438 895.0398 842.8789 895.7105 838.9669 900.4048 834.3843 901.9696 829.6899 902.8638 824.9955 902.9756 820.1893 902.1932 817.395 900.7402 816.8362 898.84 817.0597 896.4928 816.7244 893.9221 814.6008 888.3336 815.942 883.7509 816.6127 883.5274 817.9539 883.5274 819.0716 883.1921 819.5187 881.7391 819.1834 880.286 818.1774 877.7153 817.7304 876.2623 817.6186 871.4561 816.5009 870.3384 813.2595 868.4383 808.0063 866.4264 803.8707 866.5382 800.0705 868.6618 795.935 870.8972 783.9755 874.3622 774.6985 871.009 750.7794 847.7606 749.7735 845.5252 750.5559 842.1721 755.2503 837.4777 756.8151 834.2363 755.5856 831.7773 751.2265 832.3362 741.2789 836.2482 736.4727 839.3778 727.0839 847.3135 718.3658 851.5608 716.3539 852.2315 714.342 852.0079 712.4419 850.1078 713.3361 845.4134 712.2184 843.178 703.9473 843.8486 684.4991 858.826 678.9106 858.3789 676.0045 854.914 672.2043 853.4609 667.8452 853.7963 663.7097 855.4728 659.6859 859.4966 658.2329 864.0792 657.674 868.4383 655.6622 872.2385 648.7323 875.2563 640.0142 875.0328 630.6254 873.8033 621.5719 873.6915 607.8241 874.921 603.1297 874.3622 598.1 874.2504 589.0465 878.4977 569.9337 883.3039 565.1275 882.2979 562.5568 880.286 559.7625 874.921 557.9741 872.7974 555.627 871.5679 538.526 867.3206 534.3904 865.3087 521.2014 854.4669 515.8364 851.4491 510.1361 850.8902 507.23 851.7844 505.6652 853.2374 503.7651 857.4847 501.1944 867.7677 501.0826 878.6095 499.8531 882.8568 492.6998 893.475 490.9114 895.3751 488.0054 896.7164 485.2111 896.4928 483.0875 895.2634 480.852 894.2574 477.8342 894.9281 474.7046 898.84 471.0162 905.7699 468.1101 912.9232 467.4395 917.5058 470.2338 919.2942 480.852 919.9648 485.3229 920.9707 489.9055 925.218 492.1409 934.8304 495.4941 939.9718 501.9768 944.4427 504.1004 946.3428 512.8186 957.5199 521.0897 964.6733 522.878 967.3558 523.6604 970.4854 523.2133 972.7208 522.3191 974.9562 521.5367 978.0858 521.8721 988.8158 523.2133 998.5399 521.9838 1007.2581 514.2716 1015.3056 498.2883 1020 482.9757 1016.8704 467.7748 1010.723 452.1268 1006.6992 440.5026 1007.3699 436.5906 1006.9228 432.008 1005.0227 423.2899 999.4341 418.5955 997.4222 414.0129 996.8634 406.8595 998.6517 402.3887 999.0988 398.812 998.4282 386.1818 993.8455 385.3994 991.0513 383.9464 988.5923 381.8228 986.9157 376.6813 985.2392 374.6694 984.0097 372.8811 982.4449 371.5398 980.3212 362.3746 975.5151 338.6791 975.1798 331.9728 972.4972 308.6127 939.3012 306.8243 932.1479 305.036 926.7828 302.6888 916.1646 299.5592 911.3584 297.4355 910.2407 291.847 909.2348 289.4998 908.1171 288.4938 905.8816 288.6056 897.1635 285.9231 891.7985 277.205 884.198 275.4166 879.7272 276.9814 876.2623 277.4285 873.8033 276.199 871.3443 272.1752 867.6559 271.0575 865.5322 270.2751 862.1791 270.834 859.8319 271.9517 857.1494 272.287 854.4669 270.2751 852.2315 265.3572 855.9199 261.8923 857.0376 260.3275 854.8022 261.6688 846.6429 261.2217 844.8546 255.0743 837.7012 253.8448 835.5776 253.733 831.442 254.8507 828.2007 255.5213 825.4064 253.8448 822.2768 248.8151 825.0711 246.915 823.7298 245.4619 814.1175 243.003 809.6466 236.7438 803.0521 235.5143 799.9226 236.4085 797.4636 238.085 794.334 238.6439 791.7633 236.2967 790.6455 228.0256 791.875 227.2432 792.4339 225.6784 787.8513 229.814 779.1331 228.1374 777.4565 225.2314 778.0154 220.4252 780.2508 218.078 780.8097 215.1719 779.8037 214.166 777.4565 213.3836 775.2211 211.3717 774.2152 210.4776 771.6444 207.2362 759.1261 209.4716 756.6671 213.2718 753.6493 215.8426 750.2961 214.7249 746.7195 206.6773 745.8253 203.5477 744.037 205.5596 740.9074 206.7891 738.6719 206.6773 736.7718 206.0067 734.6482 205.5596 731.6304 206.342 730.848 209.6952 730.9597 210.4776 729.9538 210.254 728.1655 209.1363 725.0359 208.801 723.2475 206.5656 717.7707 202.43 713.9705 200.1946 709.4997 203.8831 702.4581 203.1007 702.011 202.8771 701.8992 202.8771 701.6757 202.43 700.8933 200.7535 702.4581 198.6298 703.7993 196.1708 704.5817 193.8237 704.2464 191.1411 702.2345 191.5882 700.6697 193.153 698.6579 193.8237 695.7518 191.1411 690.1633 190.5823 687.4807 190.8058 684.4629 192.1471 679.545 192.4824 676.6389 191.5882 673.7329 190.0234 671.721 189.5763 669.7091 191.5882 666.6913 191.9235 665.1265 192.4824 656.7437 191.7 653.2788 185.6644 640.8722 177.9521 646.9078 171.4694 648.0255 164.9867 646.0136 157.3862 642.6605 157.6098 647.1314 155.9332 649.255 149.1152 651.0433 148.4446 651.8257 146.768 653.5023 144.9796 654.5083 144.0855 653.3905 143.5266 652.1611 142.0736 651.3787 140.1735 651.0433 138.2734 651.0433 136.8204 649.9256 133.8025 648.1373 130.6729 647.4667 128.214 652.2728 126.0903 652.6081 123.4078 651.8257 115.8074 647.6902 115.8074 647.5784 111.6718 645.343 104.8538 643.89 102.8419 643.1076 101.6124 642.1017 100.83 640.7604 99.7123 637.9661 99.2652 635.3954 99.377 633.3835 100.6065 629.0244 100.83 627.3479 100.2712 624.33 100.1594 622.7652 103.8479 615.6119 104.2949 611.2528 100.2712 606.782 95.2415 603.8759 94.2355 603.4288 93.7884 602.6464 91.2177 602.3111 89.9882 601.864 88.8705 600.6345 88.5352 599.7404 88.4234 598.8462 86.4116 595.2695 85.1821 591.0222 84.3997 589.3457 75.1227 583.4218 63.2749 578.3921 59.2512 575.8213 56.4569 571.3505 55.0039 566.209 54.3332 555.1437 53.3273 550.5611 48.1858 539.4957 35.891 521.3888 31.979 516.8062 15.9957 504.176 10.0718 496.7991 7.7246 488.1927 4.595 467.5151 1.4655 457.0086 1.9125 451.9789 5.2657 446.8374 26.3904 425.1538 29.0729 421.13 30.6377 416.3239 31.1966 410.1765 30.526 406.1527 29.1847 402.4642 28.4023 398.5523 29.4083 394.1932 31.7554 390.393 34.5497 387.2634 36.8969 384.1338 38.6853 376.0862 43.1561 365.2444 47.1799 358.3146 51.0919 345.908 55.4509 339.6488 57.351 335.5133 57.6864 330.8189 55.6745 326.5716 49.1917 318.1888 45.9504 308.2411 41.9266 305.5586 37.7911 303.435 36.0028 300.0818 37.6793 291.9226 41.5913 286.334 45.9504 281.5278 49.3035 277.5041 54.2215 269.233 56.0098 267.5564 59.1394 266.774 61.3748 267.4447 63.722 268.5624 66.7398 269.233 72.7755 268.3388 75.5697 266.2152 79.2582 259.2854 85.7409 252.9144 93.9002 249.0024 102.9537 248.4436 112.4542 252.5791 123.1843 248.7789 128.6611 247.7729 134.9202 247.4376 136.2615 248.22 139.9499 251.7967 141.5147 252.5791 144.6443 252.3556 148.7799 251.0143 168.0045 249.1142 174.0402 247.4376 176.7227 246.4317 178.511 245.4257 180.5229 244.6433 183.9878 244.0845 186.1114 244.5316 188.0116 245.314 190.0234 245.5375 192.4824 244.0845 183.6525 236.1487 182.5348 233.3545 182.7583 230.1131 183.5407 227.4306 187.1174 219.1595 188.7939 212.2297 190.3587 208.8766 193.153 207.4235 197.4003 207.5353 200.5299 208.5413 202.5418 211.0002 203.8831 215.9182 207.6833 214.2416 211.4835 212.1179 214.3895 209.2119 215.619 205.8587 213.8307 200.9408 205.6714 191.105 204.1066 186.9694 215.9543 185.1811 230.1493 184.3987 327.502 169.3096 385.7348 173.3333 408.4243 172.4392 412.4481 170.5391 415.5777 168.4154 420.6074 164.1681 424.8547 159.6972 428.5431 157.4618 433.4611 156.0088 447.5442 154.8911 471.4633 156.2323 486.3288 155.1146 488.4525 154.2205 492.8116 145.9494 497.1706 144.6081 498.2883 143.9375 500.3002 140.1373 501.865 138.4607 507.7889 135.1076 511.0303 134.1017 511.8127 133.0957 512.0362 130.6367 509.8008 126.3894 509.689 125.16 510.1361 124.154 513.2657 122.1421 523.2133 119.0125 510.4714 157.6854 503.0945 212.9003 502.871 221.0596 503.318 225.4187 514.8305 228.4365 517.2894 228.5483 519.9719 228.4365 531.8197 224.9716 537.4083 223.8539 542.5497 223.5186 547.4677 224.1892 562.8921 229.2189 565.6864 230.5602 568.3689 232.4603 571.4985 235.3663 572.9515 238.0488 573.5103 240.6196 573.8457 243.7492 574.4045 247.3259 576.3046 252.8026 578.7636 254.9263 581.5579 255.8205 591.9526 253.585 599.3295 250.4554 603.6886 247.9965 606.2593 246.8788 607.1535 246.2081 609.836 245.4257 611.289 244.4198 612.2949 243.1903 613.0773 240.0607 613.5244 238.7195 614.6421 237.7135 615.8716 236.2605 617.7717 233.3545 619.113 232.5721 621.7955 232.0132 623.5838 230.8955 648.1735 269.5683 651.4149 276.9452 654.3209 286.1105 658.3447 326.0128 656.5563 372.8449 656.6681 374.5215 656.8916 374.745 657.1152 374.8568 659.9095 378.3217 663.0391 383.9102 664.6039 387.7105 665.3862 391.1754 670.1924 476.7921 671.869 484.9514 673.2102 487.2986 675.2221 489.1987 677.5693 490.3164 680.14 490.8752 682.7108 490.6517 685.1697 489.9811 700.9295 481.8218 703.3884 479.9217 713.7832 470.0858 716.4657 468.4092 719.1482 467.2915 721.9425 466.5091 729.8782 465.615 732.3372 464.8326 734.5726 463.0442 736.5845 460.697 739.4905 455.6673 741.0553 453.5437 742.8437 451.9789 745.0791 451.6436 746.7557 452.2024 749.5499 454.6614 753.6855 461.0323 756.0327 462.4854 758.3799 461.4794 760.1682 459.4675 761.2859 456.8968 762.9625 451.5318 764.192 448.7375 770.5629 438.0075 775.9279 423.4772 776.375 421.3536 776.2633 416.1003 775.9279 413.5296 771.5689 400.6759 770.4512 395.3109 770.1158 392.4048 770.1158 389.387 770.4512 386.7045 771.7924 383.6867 773.6925 381.0042 781.8518 373.6273 786.4344 368.374 787.9992 365.6915 789.1169 363.009 790.1229 357.4205 789.6758 335.8486 789.8993 333.1661 790.6817 330.5954 794.482 323.2185 795.2644 320.536 795.935 314.9474 796.4938 312.3767 797.4998 309.8059 800.4058 304.4409 801.5235 301.5349 802.0824 298.6288 802.4177 292.5932 803.0883 289.7989 804.3178 287.2282 807.4474 282.1985 808.4534 279.6277 808.6769 277.1688 808.2298 274.4862 807.4474 272.5861 804.5414 267.4447 798.0586 261.409 781.74 255.1498 785.7638 243.5256 788.2228 229.5542 793.3642 210.8884 794.3702 209.1001 796.1585 206.7529 804.7649 199.1525 806.2179 197.0288 809.2358 189.0931 823.5425 161.5974 825.8897 158.1325 829.3546 159.2502 873.5042 175.7923 876.7455 177.5806 890.2699 186.8576 898.988 189.8755 902.4529 191.4403 904.5766 192.7815 910.2769 198.5936 910.3887 198.7054Z" />
  <path class="Wanica" d="M660.2448 86.5989L658.68 77.769 658.9035 71.9569 659.5741 69.1626 661.586 67.7096 668.4041 60.3327 684.052 27.2484 684.1638 26.8013 686.7345 28.925 689.0817 30.378 689.8641 30.6015 689.7524 31.6075 689.5288 35.1842 690.0877 44.1259 691.876 50.9439 692.9937 53.4029 694.4468 55.7501 696.1233 57.6502 700.3706 60.4444 710.7653 63.7976 711.436 65.3624 714.4538 69.8332 718.0305 73.857 722.3895 77.0983 732.1136 80.1162 736.9198 82.2398 739.0435 85.593 737.4787 87.3813 736.1374 88.0519 723.9543 84.3635 717.8069 84.0282 691.876 89.0579 683.7167 89.2814 660.2448 86.5989Z" />
</svg>