<?xml version="1.0" encoding="utf-8"?>
<svg xmlns="http://www.w3.org/2000/svg" viewBox="0 0 491 1024" style="stroke-width:0.25px;stroke-linejoin:round;stroke:#444;fill:#ddd" fill-rule="evenodd">
  <path class="Anse-la-Raye" d="M130.1052 322.6596L172.69 336.9663 216.2807 346.5787 234.9465 378.657 241.2057 429.96 244.3353 484.5043 244.3353 516.4708 244.3353 564.6442 238.0761 612.7058 219.4103 631.9305 169.5604 619.0768 135.3584 561.4029 94.8972 532.5659 57.5657 522.9536 30.07 523.1771 34.9879 501.9406 48.5122 466.2856 107.8627 380.11 130.1052 322.6596Z" />
  <path class="Castries" d="M245.9001 178.9219L281.6669 202.2821 300.3327 234.3604 356.1065 244.308 353.2004 266.4387 343.9234 343.3373 328.2755 407.4939 303.4623 474.892 294.0735 545.4196 294.0735 599.8521 266.0189 590.2398 244.3353 564.6442 244.3353 516.4708 244.3353 484.5043 241.2057 429.96 234.9465 378.657 216.2807 346.5787 172.69 336.9663 130.1052 322.6596 190.5734 231.119 203.5388 220.8361 227.6814 207.0882 240.088 194.7934 245.9001 178.9219Z" />
  <path class="Choiseul" d="M27.0521 821.9415L73.1019 785.7276 132.2288 756.8906 216.2807 724.8123 241.8763 710.5056 243.5529 723.1358 231.8169 730.7362 223.993 752.308 193.3677 822.5003 166.319 876.374 149.218 913.8174 76.5668 885.4275 34.9879 835.354 27.0521 821.9415Z" />
  <path class="Dauphin" d="M356.1065 244.308L362.5892 195.7993 374.9958 154.1087 406.0682 125.2717 441.9468 102.4704 461.9538 124.8246 468.7718 156.6794 477.2664 264.5386 486.767 339.9842 440.382 333.725 393.6616 336.9663 343.9234 343.3373 353.2004 266.4387 356.1065 244.308Z" />
  <path class="Dennery" d="M294.0735 545.4196L303.4623 474.892 328.2755 407.4939 343.9234 343.3373 393.6616 336.9663 440.382 333.725 486.767 339.9842 486.5435 406.9351 468.7718 524.5184 427.8636 532.5659 390.532 551.7905 346.9413 535.8073 294.0735 545.4196Z" />
  <path class="Gros Islet" d="M245.9001 178.9219L255.6242 133.7663 265.5718 115.9947 326.2636 28.5897 361.3597 4 409.4213 19.7597 398.2442 63.9094 414.8981 86.8224 441.9468 102.4704 406.0682 125.2717 374.9958 154.1087 362.5892 195.7993 356.1065 244.308 300.3327 234.3604 281.6669 202.2821 245.9001 178.9219Z" />
  <path class="Laborie" d="M149.218 913.8174L166.319 876.374 193.3677 822.5003 223.993 752.308 231.8169 730.7362 243.5529 723.1358 244.8942 734.3129 253.6123 767.6207 270.2662 825.1828 285.9142 863.8557 288.5967 915.941 289.3791 951.0372 277.8667 979.2035 262.3305 957.8552 149.218 913.8174Z" />
  <path class="Micoud" d="M257.7479 701.5639L284.7965 686.363 337.6642 699.2167 406.0682 718.4414 463.8539 716.9883 433.0051 842.1721 426.4106 859.8319 418.9219 862.9615 399.6972 868.4383 371.8662 830.6596 340.7938 795.3399 290.9439 740.9074 257.7479 701.5639Z" />
  <path class="Praslin" d="M294.0735 599.8521L294.0735 545.4196 346.9413 535.8073 390.532 551.7905 427.8636 532.5659 468.7718 524.5184 456.7006 604.0994 463.8539 716.9883 406.0682 718.4414 337.6642 699.2167 284.7965 686.363 294.0735 625.5595 294.0735 599.8521Z" />
  <path class="Soufrière" d="M244.3353 564.6442L266.0189 590.2398 294.0735 599.8521 294.0735 625.5595 284.7965 686.363 257.7479 701.5639 241.8763 710.5056 216.2807 724.8123 132.2288 756.8906 73.1019 785.7276 27.0521 821.9415 11.963 805.1758 2.2389 785.8394 19.4517 745.7135 22.246 719.7826 19.4517 669.4856 15.5397 653.0552 8.4981 640.0898 2.2389 623.8829 1.233 597.8403 7.7157 570.7916 30.07 523.1771 57.5657 522.9536 94.8972 532.5659 135.3584 561.4029 169.5604 619.0768 219.4103 631.9305 238.0761 612.7058 244.3353 564.6442Z" />
  <path class="Vieux Fort" d="M241.8763 710.5056L257.7479 701.5639 290.9439 740.9074 340.7938 795.3399 371.8662 830.6596 399.6972 868.4383 387.7377 871.6796 377.1195 878.833 365.607 903.3109 343.2528 1000.9989 327.7166 1015.8645 320.1162 1020 307.7096 1020 277.8667 979.2035 289.3791 951.0372 288.5967 915.941 285.9142 863.8557 270.2662 825.1828 253.6123 767.6207 244.8942 734.3129 243.5529 723.1358 241.8763 710.5056Z" />
</svg>