<?xml version="1.0" encoding="utf-8"?>
<svg xmlns="http://www.w3.org/2000/svg" viewBox="0 0 969 1024" style="stroke-width:0.25px;stroke-linejoin:round;stroke:#444;fill:#ddd" fill-rule="evenodd">
  <path class="Alta Verapaz" d="M431.697 438.4546L438.1798 437.7839 487.0238 445.2726 527.7085 458.3498 529.2733 458.5734 529.7204 458.2381 529.8321 457.9028 530.0557 457.3439 530.6145 456.785 531.7322 456.1144 534.303 455.7791 535.4207 456.0026 535.9795 456.6733 536.2031 457.5674 536.8737 458.3498 537.7679 458.5734 539.1091 458.2381 539.7798 458.2381 540.1151 458.3498 541.0092 459.4675 541.5681 459.5793 542.3505 459.4675 543.0211 459.1322 544.9212 458.6851 545.3683 458.4616 545.4801 458.3498 545.4801 458.2381 545.4801 457.9028 545.4801 457.4557 544.9212 455.5556 545.033 454.7732 545.3683 454.6614 545.9272 454.7732 547.7155 455.5556 548.1626 455.8909 548.4979 456.338 548.6097 457.0086 548.3861 457.5674 548.2744 458.0145 548.1626 458.1263 548.1626 458.2381 548.4979 458.9087 549.1685 459.3558 549.6156 459.6911 549.7274 460.2499 549.0568 461.9265 553.1923 465.0561 555.8748 465.615 556.4337 465.3914 557.5514 464.2737 561.6869 467.1798 563.9223 467.4033 565.2636 467.1798 565.9342 467.5151 566.6048 468.521 567.3872 470.0858 570.5168 474.3331 571.1875 475.7861 571.5228 477.0156 572.6405 479.251 573.5347 480.0334 574.3171 480.257 574.9877 480.1452 575.8818 480.0334 576.8878 480.0334 580.5762 480.5923 588.6238 480.1452 589.965 479.8099 590.4121 479.5864 590.6356 479.3628 590.971 479.0275 591.9769 477.5745 592.3122 477.1274 592.7593 476.7921 593.4299 476.5685 594.1006 476.5685 596.2242 476.6803 596.8948 476.5685 598.2361 475.8979 599.1303 475.2273 599.8009 475.2273 600.4715 475.4508 606.1718 478.1333 606.8425 478.4686 610.6427 481.71 615.5606 485.1749 616.9019 485.8455 618.0196 486.1809 621.2609 486.4044 622.6022 486.0691 623.1611 485.8455 623.7199 485.5102 626.5142 483.163 628.1908 483.163 643.0563 485.0631 643.9505 485.0631 644.6211 484.9514 645.2917 484.7278 645.8506 484.3925 646.2977 484.0572 647.3036 483.6101 648.7567 483.3866 652.1098 483.163 653.6746 483.2748 654.6805 483.7219 654.9041 484.3925 655.4629 497.2462 655.5747 497.5815 655.91 497.4697 662.281 494.5637 667.3107 493.5578 671.4462 495.7932 673.3463 495.905 676.1406 494.5637 683.4057 492.7754 676.8112 501.6053 674.3523 503.5054 669.7696 504.0642 668.8755 504.5113 668.3166 504.9584 667.0871 507.1938 666.8636 507.8645 663.9575 513.2295 663.0634 514.459 662.1692 515.1296 659.7102 516.2473 655.6865 519.0416 654.457 519.7122 651.998 520.4946 651.2156 520.9417 650.7685 521.6123 650.2097 522.8418 635.1206 544.1901 621.708 563.303 619.9197 567.4385 620.5903 567.662 621.708 568.3327 622.1551 568.668 622.6022 569.2268 622.9375 569.6739 623.8317 571.127 629.1967 576.9391 631.0968 579.7333 633.1087 582.0805 636.2383 584.9866 637.1325 586.3278 637.4678 587.222 635.5677 590.4634 635.2323 591.0222 634.7853 592.2517 634.1146 595.046 633.5558 596.1637 633.2205 596.7226 632.7734 597.1696 632.3263 597.6167 631.8792 597.952 627.2966 600.1875 625.8436 601.3052 625.5083 601.7523 623.3846 630.8128 623.3846 634.5012 623.6081 635.3954 624.6141 637.7426 625.1729 638.8603 626.7377 641.0957 628.079 643.4429 628.3025 644.4488 628.3025 645.7901 627.5201 649.8139 627.4084 651.1551 627.5201 652.2728 627.9672 653.5023 629.0849 655.8495 633.3322 661.9969 616.7901 665.9089 609.0779 665.3501 593.877 667.6972 591.0827 667.1384 582.6999 663.897 577.2231 663.6735 574.6524 664.0088 568.0579 667.0266 561.1281 668.815 557.1043 669.1503 545.3683 667.809 555.9866 652.6081 558.4455 645.343 558.6691 642.884 558.222 641.6546 557.6631 640.5369 556.5454 639.0838 553.8629 636.6249 552.0746 635.5072 551.1804 635.2836 550.398 635.0601 539.668 635.9542 537.4326 636.5131 529.6086 639.6427 520.2198 639.978 494.0653 636.2895 482.5529 633.4953 479.3116 633.2717 478.3056 634.0541 477.9703 634.5012 477.5232 634.9483 476.9644 636.066 476.7408 636.6249 476.5173 638.1897 474.6172 645.9019 473.0524 648.2491 471.8229 649.1432 468.9168 652.8317 468.0227 653.8376 465.5637 655.1789 464.6695 655.2906 463.9989 655.0671 461.4282 652.6081 448.2392 643.5547 443.0977 641.8781 437.3974 642.1017 429.3498 641.8781 423.873 641.8781 418.2845 641.6546 419.8493 639.4191 422.1965 635.2836 424.4319 629.5833 424.5437 624.5536 420.7435 622.4299 383.1883 616.6178 375.6997 613.6 370.7817 608.7938 369.5523 605.3289 368.9934 600.8581 369.9993 596.9461 373.2407 595.2695 382.853 594.3754 385.7591 592.8106 383.7472 590.1281 383.7472 588.4515 390.4535 582.4158 391.7947 581.7452 394.3655 579.0627 396.042 576.1567 394.4772 574.7036 393.2477 572.4682 391.5712 567.3267 389.224 562.1853 385.5355 559.6145 387.6592 555.5908 387.4356 552.0141 385.0884 548.8845 380.5058 545.8667 380.3941 544.749 380.7294 544.4136 381.5118 544.4136 382.2942 544.1901 380.3941 543.0724 378.1586 542.6253 375.9232 543.0724 374.0231 544.1901 371.1171 542.6253 360.9459 539.7193 352.116 538.1545 350.2158 535.8073 351.11 532.9012 354.3514 530.6658 353.0101 529.7716 349.4334 527.0891 349.4334 525.5243 350.6629 525.189 351.6689 524.1831 352.8983 523.736 351.3336 521.5006 348.9864 520.2711 346.1921 519.9358 343.0625 520.2711 344.6273 516.6944 351.11 508.4233 354.2396 499.7052 355.2455 498.2521 361.0576 495.905 363.6284 491.0988 362.1754 486.8515 356.1397 486.1809 358.4869 477.9098 360.387 474.3331 362.7342 472.5448 362.7342 470.8682 361.5047 470.6447 361.2812 470.4211 361.393 469.974 360.9459 469.1916 359.2693 470.8682 357.1457 468.521 356.1397 467.6268 356.1397 465.8385 359.3811 465.0561 363.1813 461.9265 365.8638 460.697 366.4227 461.4794 367.2051 463.156 368.3228 464.1619 369.9993 463.156 370.8935 461.0323 370.4464 459.8029 370.3347 458.6851 372.4583 457.2321 370.7817 453.879 380.9529 448.2904 387.1003 446.9492 390.4535 450.5259 392.13 450.5259 392.9124 448.514 394.0301 447.508 395.3714 447.6198 397.048 448.6257 397.048 450.5259 395.9303 450.9729 394.8125 451.6436 393.5831 451.9789 393.5831 453.879 397.6068 453.6554 400.0658 455.1085 402.1894 457.1204 405.319 458.7969 406.1014 458.0145 407.6662 456.6733 408.5604 455.5556 409.0075 457.1204 409.231 457.2321 409.5663 456.4497 410.1252 455.5556 411.8018 457.2321 412.5842 457.1204 413.4783 455.5556 415.1549 455.5556 417.6139 456.6733 422.3083 453.7672 425.1025 455.5556 426.5556 455.5556 426.8909 454.3261 427.785 453.3201 428.2321 451.9789 431.1382 453.0966 433.4854 452.0906 434.6031 449.7435 433.1501 447.0609 435.1619 444.2667 435.609 441.9195 434.4913 440.0194 431.5853 438.5663 431.697 438.4546Z" />
  <path class="Baja Verapaz" d="M381.5118 730.4009L378.8293 724.0299 377.7116 721.6827 375.9232 720.1179 374.3584 719.0002 372.7936 717.659 368.4345 713.0763 369.5523 707.7113 369.664 706.5936 348.0922 692.9575 330.2088 669.8209 331.7736 642.9958 333.6737 644.0018 373.3525 653.3905 401.407 654.62 409.3428 653.9494 418.2845 641.6546 423.873 641.8781 429.3498 641.8781 437.3974 642.1017 443.0977 641.8781 448.2392 643.5547 461.4282 652.6081 463.9989 655.0671 464.6695 655.2906 465.5637 655.1789 468.0227 653.8376 468.9168 652.8317 471.8229 649.1432 473.0524 648.2491 474.6172 645.9019 476.5173 638.1897 476.7408 636.6249 476.9644 636.066 477.5232 634.9483 477.9703 634.5012 478.3056 634.0541 479.3116 633.2717 482.5529 633.4953 494.0653 636.2895 520.2198 639.978 529.6086 639.6427 537.4326 636.5131 539.668 635.9542 550.398 635.0601 551.1804 635.2836 552.0746 635.5072 553.8629 636.6249 556.5454 639.0838 557.6631 640.5369 558.222 641.6546 558.6691 642.884 558.4455 645.343 555.9866 652.6081 545.3683 667.809 538.8856 671.3857 529.7204 677.6449 509.2662 691.3927 471.264 717.8825 467.4638 729.9538 466.3461 733.9776 454.163 735.9894 446.2273 734.5364 443.2095 731.6304 442.0917 728.7243 440.3034 727.1595 436.3914 727.9419 434.3795 729.3949 433.8207 730.7362 432.8147 731.9657 429.6851 732.8598 426.8909 733.0834 424.6554 732.8598 422.8671 731.7421 421.6376 729.5067 419.8493 729.5067 416.0491 731.7421 409.9017 733.8658 403.9778 735.0953 400.2893 734.5364 398.8363 734.5364 397.7186 735.207 396.7127 735.4306 395.4832 734.8717 393.5831 732.8598 390.0064 733.5305 381.5118 730.4009Z" />
  <path class="Chimaltenango" d="M278.6823 749.6255L285.0532 746.4959 286.7298 745.0429 292.2066 729.7303 293.6596 727.2713 294.2185 726.8242 294.6656 726.6007 296.901 725.3712 301.0365 724.2535 305.0603 721.7945 309.4194 722.6887 324.9556 722.2416 327.7498 721.6827 331.103 721.1239 334.7914 721.0121 346.1921 724.3652 358.5987 724.3652 362.6224 724.9241 369.664 727.3831 378.2704 729.1714 381.5118 730.4009 380.8411 734.2011 380.7294 734.8717 380.5058 735.5424 380.1705 736.213 379.7234 736.8836 378.941 737.5542 377.8233 738.3366 375.1408 739.2308 374.0231 739.9014 370.4464 742.8075 369.2169 743.2546 368.211 743.3663 367.6521 743.1428 366.9815 743.031 366.3109 743.1428 365.752 743.4781 364.7461 744.1487 363.7402 745.0429 362.3989 747.5019 360.1635 754.8788 355.8044 761.585 352.0042 768.5149 351.3336 771.5327 352.6748 778.686 353.4572 781.0332 354.2396 785.5041 354.2396 786.9571 354.1278 788.0748 353.4572 789.3043 352.0042 791.0926 348.8746 798.0224 342.8389 802.4933 331.9971 814.4528 326.8557 824.5122 325.5144 831.3303 325.738 832.7833 325.738 833.0068 319.367 838.1483 314.3373 842.8427 312.7725 844.9663 312.4372 845.637 310.9842 849.2136 306.4015 858.4906 304.725 859.273 304.0543 858.6024 303.719 857.9318 303.4955 857.1494 303.4955 855.1375 303.0484 851.1138 302.3778 850.2196 301.8189 849.7725 301.1483 849.8843 300.2541 850.6667 299.0246 852.0079 298.354 852.455 297.4598 852.7903 295.7833 852.9021 294.442 852.3432 292.989 851.3373 290.6418 849.2136 289.4123 848.4312 288.4064 848.0959 287.624 848.2077 286.9534 848.3195 286.3945 848.543 283.1531 850.4431 282.3707 850.7784 281.253 851.1138 279.0176 851.3373 278.0117 851.1138 276.8939 850.5549 276.2233 849.996 272.8702 847.5371 276.3351 838.3718 276.3351 835.1305 276.7822 829.5419 276.3351 827.1947 275.4409 826.077 273.8761 824.4004 272.1996 822.8356 274.2114 803.1639 274.3232 797.5754 274.9938 795.3399 276.8939 792.6574 281.8119 780.8097 281.3648 775.4447 281.4766 774.6623 283.1531 769.8561 279.2411 751.3021 278.6823 749.6255Z" />
  <path class="Chiquimula" d="M659.4867 849.4372L659.3749 849.3254 656.2453 845.637 656.0218 845.0781 655.7982 844.7428 655.7982 843.8486 655.91 842.5074 656.5806 839.7131 657.2513 837.2541 658.0337 835.6893 659.1514 832.3362 659.3749 830.9949 659.4867 829.8772 658.8161 828.2007 655.4629 824.5122 653.8981 823.9534 635.903 824.7358 635.1206 824.4004 634.2264 823.8416 631.5439 819.8178 630.3144 817.5824 628.9732 815.5705 627.2966 813.7822 626.8495 813.3351 623.8317 812.2174 614.2194 811.2114 611.6486 811.3232 610.7545 811.2114 611.6486 805.8464 620.255 781.9274 619.2491 779.0213 618.4667 777.0095 618.1314 775.6682 618.2431 774.1034 618.3549 773.4328 618.5784 772.7622 619.0255 769.7443 619.1373 768.9619 618.5784 766.0559 617.6843 763.4851 616.4548 761.4733 613.3252 760.5791 602.0363 761.138 607.6249 750.855 608.6308 746.8312 607.9602 740.7956 608.1837 739.4543 613.6605 734.3129 617.796 731.1833 620.5903 731.5186 628.7496 735.6541 636.4618 739.4543 639.9267 740.2367 652.7804 740.4603 656.3571 739.6779 670.8873 727.9419 675.47 726.6007 677.4818 726.7124 682.7351 728.2772 685.9765 730.5127 689.8884 730.5127 701.7362 726.4889 705.4246 727.7184 706.4306 728.9479 707.9954 730.0656 709.7837 729.9538 712.578 729.0596 714.031 727.8301 715.1487 726.4889 716.3782 724.7006 717.3842 723.6946 718.949 722.5769 724.314 719.8944 726.1023 719.3355 727.3318 719.2238 728.0024 719.4473 728.4495 719.7826 728.8966 720.1179 729.2319 720.565 729.5672 721.1239 730.5732 722.8004 731.2438 724.5888 731.5791 725.1476 731.8026 725.7065 732.138 726.2653 732.9204 727.9419 732.9204 728.1655 730.6849 731.4068 724.7611 736.5483 722.8609 739.4543 722.6374 744.1487 723.7551 747.6136 725.8788 750.7432 730.6849 756.6671 732.9204 760.3556 737.3912 771.3091 740.0737 774.6623 742.1974 776.6741 743.2033 778.2389 743.6504 778.7978 744.0975 783.0451 743.5386 784.9452 740.9679 787.7395 740.0737 789.3043 741.0796 801.8227 740.9679 806.1817 739.8502 810.3173 737.0559 812.9998 734.2616 813.2233 728.226 811.0997 725.3199 810.5408 721.2961 811.0997 719.396 812.3292 718.2783 814.2293 716.1547 816.9118 708.666 823.3945 705.3129 827.0829 702.8539 831.3303 700.9538 833.4539 695.5888 834.7952 693.1298 836.4717 691.565 839.7131 691.2297 843.6251 691.6768 851.2255 684.747 846.1958 684.5234 846.7547 683.2939 848.6548 682.9586 843.8486 680.4997 844.8546 675.0229 850.4431 671.3344 851.2255 668.6519 850.2196 665.8576 848.7666 662.0574 848.3195 659.4867 849.4372Z" />
  <path class="El Progreso" d="M545.3683 667.809L557.1043 669.1503 561.1281 668.815 568.0579 667.0266 576.9996 679.7685 587.6178 695.8636 587.8414 699.2167 576.2172 699.4403 575.0994 699.6638 574.2053 699.9991 574.4288 701.0051 574.9877 702.1228 585.6059 716.7648 587.5061 719.4473 590.4121 721.0121 593.4299 721.4592 594.6594 722.1298 595.2183 722.9122 594.7712 727.8301 594.3241 729.0596 593.3182 729.3949 592.2004 729.6185 587.059 729.842 584.0411 731.1833 578.6761 737.2189 574.8759 736.8836 571.8581 737.1072 570.4051 737.3307 569.0638 737.8895 565.8224 740.7956 557.4396 751.4139 550.5098 755.2141 543.2447 757.8966 535.1971 758.7908 529.7204 760.4673 522.2317 774.4387 521.3375 775.3329 520.2198 775.8917 518.3197 775.3329 515.4136 773.8799 511.7252 773.4328 503.6777 776.1153 497.4185 778.5743 496.4125 779.1331 495.9655 779.9155 495.7419 781.4803 494.8477 784.1628 490.9358 786.3982 489.2592 787.0689 488.8121 787.2924 486.3531 786.3982 483.6706 783.3804 482.2176 782.1509 478.9762 780.4744 465.1166 775.4447 462.8812 773.6563 457.8515 768.2913 456.7338 766.2794 456.5102 765.7206 456.3985 764.6029 456.7338 763.4851 457.7397 761.6968 458.6339 760.3556 458.9692 760.0202 459.3045 759.6849 459.6398 757.673 458.7457 751.5256 456.622 745.3782 455.5043 743.1428 455.0572 742.5839 453.3806 741.9133 447.9039 742.3604 444.5507 743.3663 442.9859 743.4781 441.5329 743.2546 440.974 743.031 440.4152 742.6957 439.9681 742.3604 439.521 741.8015 439.1857 740.9074 438.9622 739.5661 438.9622 738.5602 439.6328 737.5542 440.1916 736.8836 443.2095 731.6304 446.2273 734.5364 454.163 735.9894 466.3461 733.9776 467.4638 729.9538 471.264 717.8825 509.2662 691.3927 529.7204 677.6449 538.8856 671.3857 545.3683 667.809Z" />
  <path class="Escuintla" d="M167.47 939.7483L173.0585 941.8719 172.835 939.8601 172.0526 936.0598 172.2761 934.9421 172.7232 933.6009 184.3474 916.3881 186.3593 912.029 187.477 910.2407 188.7065 908.8994 190.1595 906.9993 190.4948 902.9756 189.936 893.0279 189.0418 887.2158 188.93 885.204 189.0418 882.1861 189.4889 880.5096 189.936 879.7272 192.3949 878.1624 194.295 879.5036 195.0774 880.7331 195.7481 882.6332 195.9716 883.0803 196.6422 883.3039 197.6482 883.0803 199.3248 882.0744 200.1072 881.4037 200.666 880.6213 200.5542 879.9507 200.3307 879.3919 199.213 877.2682 198.7659 876.0387 198.3188 873.8033 198.207 872.2385 198.207 870.7855 198.7659 868.6618 199.213 867.5441 199.5483 866.9853 200.4425 866.0911 207.2605 861.0614 208.3782 860.5025 210.2783 859.8319 211.2843 860.1672 212.2902 861.0614 213.855 863.4086 214.3021 864.6381 214.3021 865.644 212.5138 868.2147 212.2902 868.7736 212.1784 869.4442 212.1784 870.1149 212.402 870.6737 212.7373 871.3443 213.855 872.9091 214.0785 873.6915 214.1903 874.4739 213.6315 876.5976 213.6315 877.2682 213.6315 877.9388 213.855 878.7212 214.4139 879.5036 215.4198 880.5096 216.6493 881.1802 217.5435 881.6273 219.1083 881.8508 221.4554 881.7391 223.4673 880.6213 227.8264 875.7034 230.3971 878.2741 229.1677 884.198 230.7325 884.6451 258.6752 886.657 260.1283 885.7628 262.2519 881.5155 263.3696 879.9507 263.705 878.9448 263.9285 877.6035 264.5991 865.7558 266.1639 861.5085 272.8702 847.5371 276.2233 849.996 276.8939 850.5549 278.0117 851.1138 279.0176 851.3373 281.253 851.1138 282.3707 850.7784 283.1531 850.4431 286.3945 848.543 286.9534 848.3195 287.624 848.2077 288.4064 848.0959 289.4123 848.4312 290.6418 849.2136 292.989 851.3373 294.442 852.3432 295.7833 852.9021 297.4598 852.7903 298.354 852.455 299.0246 852.0079 300.2541 850.6667 301.1483 849.8843 301.8189 849.7725 302.3778 850.2196 303.0484 851.1138 303.4955 855.1375 303.4955 857.1494 303.719 857.9318 304.0543 858.6024 304.725 859.273 306.4015 858.4906 310.9842 849.2136 312.4372 845.637 312.7725 844.9663 314.3373 842.8427 319.367 838.1483 325.738 833.0068 332.7795 839.1542 334.7914 841.1661 335.015 841.8367 335.1267 842.5074 336.9151 846.4194 339.9329 851.3373 341.4977 853.1256 342.6154 853.908 348.8746 848.4312 350.5512 846.5311 350.8865 846.084 352.116 843.8486 353.2337 842.3956 353.7925 841.9485 354.2396 841.6132 356.2515 840.3837 359.7164 840.3837 361.1694 839.6013 362.2871 837.7012 363.9637 837.2541 364.8579 837.9248 365.1932 838.4836 367.8757 844.1839 383.1883 838.1483 386.3179 847.3135 389.7828 850.4431 391.7947 851.1138 394.9243 851.002 395.5949 851.1138 396.1538 851.3373 397.1597 854.6904 398.7245 867.3206 398.6128 875.4799 399.2834 878.4977 402.1894 885.204 403.7542 890.569 400.1776 894.0339 398.7245 896.8282 397.9421 899.5107 398.0539 900.6284 398.3892 901.4108 398.9481 901.6343 399.954 901.9696 403.1954 902.6403 404.6484 902.752 406.2132 902.6403 406.9956 902.5285 410.684 901.1872 411.5782 901.0755 412.6959 901.299 414.7078 902.305 415.3784 903.0873 415.4902 903.8697 412.4724 907.67 408.6722 911.3584 407.1074 912.3644 406.4367 912.5879 402.0777 913.2585 400.4011 914.0409 400.5129 917.5058 401.2953 919.0706 401.7424 919.6295 405.2073 922.8708 405.6543 923.8768 405.7661 924.6592 405.5426 925.218 404.7602 926.224 403.866 927.0064 400.7364 928.7947 399.5069 930.0242 397.7186 933.4891 396.9362 935.9481 396.3773 936.2834 395.7067 936.6187 393.0242 937.0658 390.3417 937.7364 389.3358 938.8541 388.7769 940.0836 388.7769 970.7089 388.7769 973.3914 386.2062 972.9443 369.664 971.3795 351.11 973.1679 348.3157 974.062 321.0436 975.7386 289.077 975.1798 259.9047 971.9384 223.8026 964.785 167.47 939.7483Z" />
  <path class="Guatemala" d="M403.7542 890.569L402.1894 885.204 399.2834 878.4977 398.6128 875.4799 398.7245 867.3206 397.1597 854.6904 396.1538 851.3373 395.5949 851.1138 394.9243 851.002 391.7947 851.1138 389.7828 850.4431 386.3179 847.3135 383.1883 838.1483 385.312 828.8713 386.9886 808.976 388.218 805.9582 390.2299 803.7228 389.7828 800.8167 391.1241 796.2341 391.0123 794.4458 390.677 793.8869 388.3298 791.2044 385.0884 787.516 382.9648 780.3626 375.8114 771.0856 373.3525 768.8502 372.6818 768.6266 371.8994 768.6266 368.9934 769.1855 366.758 769.0737 364.5226 768.5149 361.2812 766.7265 355.8044 761.585 360.1635 754.8788 362.3989 747.5019 363.7402 745.0429 364.7461 744.1487 365.752 743.4781 366.3109 743.1428 366.9815 743.031 367.6521 743.1428 368.211 743.3663 369.2169 743.2546 370.4464 742.8075 374.0231 739.9014 375.1408 739.2308 377.8233 738.3366 378.941 737.5542 379.7234 736.8836 380.1705 736.213 380.5058 735.5424 380.7294 734.8717 380.8411 734.2011 381.5118 730.4009 390.0064 733.5305 393.5831 732.8598 395.4832 734.8717 396.7127 735.4306 397.7186 735.207 398.8363 734.5364 400.2893 734.5364 403.9778 735.0953 409.9017 733.8658 416.0491 731.7421 419.8493 729.5067 421.6376 729.5067 422.8671 731.7421 424.6554 732.8598 426.8909 733.0834 429.6851 732.8598 432.8147 731.9657 433.8207 730.7362 434.3795 729.3949 436.3914 727.9419 440.3034 727.1595 442.0917 728.7243 443.2095 731.6304 440.1916 736.8836 439.6328 737.5542 438.9622 738.5602 438.9622 739.5661 439.1857 740.9074 439.521 741.8015 439.9681 742.3604 440.4152 742.6957 440.974 743.031 441.5329 743.2546 442.9859 743.4781 444.5507 743.3663 447.9039 742.3604 453.3806 741.9133 455.0572 742.5839 455.5043 743.1428 456.622 745.3782 458.7457 751.5256 459.6398 757.673 459.3045 759.6849 458.9692 760.0202 458.6339 760.3556 457.7397 761.6968 456.7338 763.4851 456.3985 764.6029 456.5102 765.7206 456.7338 766.2794 457.8515 768.2913 462.8812 773.6563 465.1166 775.4447 478.9762 780.4744 482.2176 782.1509 483.6706 783.3804 486.3531 786.3982 488.8121 787.2924 486.6884 792.7692 485.5707 794.5575 485.1237 794.8928 483.1118 796.2341 475.2878 802.8286 473.9465 808.6407 473.8348 812.5527 473.1641 814.5646 472.6053 815.6823 471.5993 816.4647 471.264 817.9177 471.0405 819.1472 470.5934 826.8594 467.7991 828.2007 465.6755 828.2007 463.7754 828.8713 462.4341 830.3243 457.8515 834.5716 456.2867 835.4658 455.169 835.8011 454.7219 835.354 454.4983 834.7952 454.2748 834.1245 453.9395 831.1067 453.4924 830.4361 452.8218 829.7655 451.0334 829.2066 450.0275 829.3184 446.0037 831.2185 436.1679 846.7547 431.697 858.0436 433.0383 869.6678 432.703 872.6856 431.4735 874.1386 431.0264 874.4739 430.5793 874.8092 430.0205 875.1446 429.3498 875.3681 428.6792 875.8152 427.8968 876.4858 425.8849 878.833 425.4378 879.1683 424.879 879.3919 423.426 879.7272 421.5259 880.3978 416.9432 882.6332 412.3606 886.8805 410.5723 888.11 403.7542 890.569Z" />
  <path class="Huehuetenango" d="M34.9094 593.9283L43.851 578.3921 62.7404 545.5314 81.6297 512.7824 98.1718 484.169 109.796 463.8266 114.2669 456.1144 119.6319 446.7256 122.538 443.0372 126.3382 441.1371 137.18 441.1371 170.2642 441.0253 203.2367 441.0253 236.2092 440.9135 269.1817 440.9135 300.813 440.8018 271.4172 499.4816 269.1817 504.0642 253.5338 535.919 252.9749 536.7014 248.5041 541.0605 248.8394 542.7371 249.0629 543.0724 249.2865 543.743 248.8394 544.1901 247.9452 544.5254 245.9333 544.6372 244.9274 544.8607 243.9215 546.3138 237.4387 550.8964 236.6563 551.0081 235.2033 551.0081 234.4209 551.1199 233.7503 551.3435 233.1914 551.567 230.2854 554.1377 229.2794 554.473 228.3853 554.5848 227.6029 554.5848 226.9322 555.0319 226.3734 556.0378 226.0381 559.0557 225.4792 561.4029 224.0262 564.1971 223.2438 565.3149 222.6849 566.7679 222.4614 567.662 222.1261 573.4741 220.7848 575.7096 220.3377 576.8273 220.1142 577.4979 220.1142 578.2803 220.1142 579.0627 220.226 580.6275 220.3377 581.2981 220.5613 581.9688 221.1201 583.0865 221.4554 583.6453 221.679 584.2042 222.4614 585.2101 227.2675 591.0222 227.6029 591.8046 227.8264 592.587 227.8264 595.7166 228.1617 597.1696 229.1677 599.5168 230.5089 601.6405 231.9619 603.3171 236.5446 607.5644 237.4387 607.7879 238.78 607.7879 245.8216 607.0055 248.8394 607.5644 255.4339 610.6939 255.9927 615.1648 253.8691 624.1065 254.2044 625.4477 255.5457 629.1362 256.6634 634.1659 252.9749 635.0601 250.963 635.2836 245.0392 634.1659 242.9155 634.2777 237.4387 636.066 227.044 637.9661 225.1439 639.3074 224.138 641.431 217.8788 640.9839 215.0845 641.431 209.3842 644.1135 205.5839 646.796 195.301 649.255 192.842 649.9256 191.7243 650.4845 190.8301 651.3787 187.7006 656.073 186.2475 658.8673 186.024 659.538 185.5769 665.7971 185.3534 666.4678 184.3474 667.1384 183.4532 667.4737 175.4057 667.9208 170.7113 662.2205 169.9289 659.985 170.0407 657.5261 168.2524 656.073 152.1573 651.8257 150.9278 648.5844 148.4689 646.2372 146.1217 644.5606 141.4273 640.5369 136.9564 635.7307 133.0444 630.2539 129.5795 624.1065 128.4618 620.7534 128.2383 619.7474 124.5498 619.8592 111.5844 623.5476 106.4429 623.2123 98.2836 618.0708 96.2717 617.0649 94.5952 617.1767 93.0304 617.7355 89.0066 620.3063 81.7415 624.7771 73.9175 625.4477 70.6761 627.5714 62.5168 636.9602 61.958 637.7426 49.6631 637.1837 46.9806 635.0601 44.6334 609.3527 44.0746 605.6642 40.4979 604.323 36.3624 599.0697 34.9094 593.9283Z" />
  <path class="Izabal" d="M683.4057 492.7754L686.2 491.0988 687.0942 490.2046 687.5413 489.3105 687.8766 488.5281 688.3237 486.8515 689.7767 482.716 692.571 479.9217 714.5899 479.4746 720.1784 480.257 721.4079 481.2629 721.6315 481.3747 721.7432 481.4865 721.6315 484.6161 723.6433 487.8574 724.2022 487.075 726.4376 485.9573 729.2319 485.0631 731.3556 484.9514 735.8264 483.0513 754.0451 483.9454 760.9749 482.716 768.5754 482.716 789.8119 488.1927 798.8653 484.6161 802.2185 486.1809 810.266 492.9989 818.5371 490.987 829.1553 493.3342 837.3146 498.1404 838.2088 503.3936 843.6856 504.2878 867.7164 519.4887 864.8103 530.6658 865.2574 532.3424 871.7402 532.3424 874.4227 531.3364 875.0933 529.2128 874.8697 527.4244 874.3109 527.0891 874.1991 526.0832 873.4167 525.189 872.6343 524.0713 872.6343 522.1712 873.8638 521.8359 876.0992 522.0594 878.2229 521.7241 879.2288 519.4887 880.123 515.4649 882.2466 512.7824 884.4821 510.6587 885.8233 508.4233 886.1586 504.6231 884.3703 498.6992 884.1468 494.899 885.8233 494.899 885.8233 497.4697 885.8233 498.2521 887.3881 498.2521 890.1824 496.352 897.224 497.6933 900.5771 496.352 895.1003 491.2106 891.9707 488.8634 887.4999 486.8515 885.7116 484.3925 884.1468 481.4865 882.4702 479.3628 872.1872 473.5507 869.2812 469.8623 872.6343 465.8385 876.3228 467.9622 883.1408 470.98 885.8233 472.6565 892.8649 479.9217 897.8946 482.8277 910.413 493.446 935.0026 505.0702 943.1619 512.4471 945.7327 513.5648 956.2392 522.8418 964.5102 526.4185 964.7338 526.5303 961.9395 527.5362 961.1571 529.7716 961.3806 532.4541 959.8158 535.8073 958.251 533.9072 954.1155 535.6955 950.6506 537.7074 946.8504 539.0486 941.8207 539.1604 940.4794 541.0605 933.2143 553.5789 922.0372 564.5325 905.7186 577.3861 897.8946 583.6453 876.9934 599.8521 856.204 616.059 835.4145 632.2658 814.8486 648.2491 784.5586 671.8328 776.2876 675.7448 751.9215 683.9041 744.6563 687.7043 743.0915 688.9338 742.9798 688.822 742.3091 688.3749 740.5208 687.5925 739.5149 686.8101 734.8205 681.2216 734.3734 679.7685 732.9204 672.8387 732.585 668.9267 732.8086 666.5795 732.6968 665.0147 730.7967 657.079 730.7967 655.5142 731.0202 654.5083 734.0381 653.2788 735.044 652.6081 735.4911 652.1611 735.8264 651.714 736.497 650.5963 736.6088 650.0374 736.9441 648.3608 737.503 642.2134 737.3912 640.6486 737.1677 639.8662 736.8323 639.1956 736.2735 638.3014 735.044 636.9602 734.2616 636.2895 733.591 635.8425 728.0024 632.8246 725.6552 632.2658 718.2783 631.4834 712.6898 632.7129 709.2249 634.5012 703.0774 639.1956 675.0229 650.4845 646.633 660.0968 643.0563 660.8792 633.3322 661.9969 629.0849 655.8495 627.9672 653.5023 627.5201 652.2728 627.4084 651.1551 627.5201 649.8139 628.3025 645.7901 628.3025 644.4488 628.079 643.4429 626.7377 641.0957 625.1729 638.8603 624.6141 637.7426 623.6081 635.3954 623.3846 634.5012 623.3846 630.8128 625.5083 601.7523 625.8436 601.3052 627.2966 600.1875 631.8792 597.952 632.3263 597.6167 632.7734 597.1696 633.2205 596.7226 633.5558 596.1637 634.1146 595.046 634.7853 592.2517 635.2323 591.0222 635.5677 590.4634 637.4678 587.222 637.1325 586.3278 636.2383 584.9866 633.1087 582.0805 631.0968 579.7333 629.1967 576.9391 623.8317 571.127 622.9375 569.6739 622.6022 569.2268 622.1551 568.668 621.708 568.3327 620.5903 567.662 619.9197 567.4385 621.708 563.303 635.1206 544.1901 650.2097 522.8418 650.7685 521.6123 651.2156 520.9417 651.998 520.4946 654.457 519.7122 655.6865 519.0416 659.7102 516.2473 662.1692 515.1296 663.0634 514.459 663.9575 513.2295 666.8636 507.8645 667.0871 507.1938 668.3166 504.9584 668.8755 504.5113 669.7696 504.0642 674.3523 503.5054 676.8112 501.6053 683.4057 492.7754Z" />
  <path class="Jalapa" d="M614.2194 811.2114L616.0077 816.6882 616.0077 819.1472 615.8959 819.9296 610.7545 822.9474 595.7771 830.2125 595.33 829.989 592.6475 827.9771 591.0827 826.3006 590.3003 825.2946 589.4062 824.624 587.7296 824.2887 583.0352 825.5182 579.1232 828.2007 574.5406 831.2185 569.6227 834.5716 567.6108 837.5894 566.3813 846.084 555.6513 837.5894 554.9806 837.2541 554.31 837.0306 553.6394 836.9188 552.6334 836.807 551.6275 836.9188 549.9509 837.2541 549.0568 837.5894 548.2744 837.9248 547.3802 839.0425 541.6799 846.6429 526.479 846.7547 520.2198 841.9485 511.6134 834.9069 509.4898 831.442 508.2603 825.6299 481.9941 830.6596 478.8645 831.2185 475.6231 831.6656 475.0642 831.3303 474.1701 830.6596 473.6112 829.989 470.5934 826.8594 471.0405 819.1472 471.264 817.9177 471.5993 816.4647 472.6053 815.6823 473.1641 814.5646 473.8348 812.5527 473.9465 808.6407 475.2878 802.8286 483.1118 796.2341 485.1237 794.8928 485.5707 794.5575 486.6884 792.7692 488.8121 787.2924 489.2592 787.0689 490.9358 786.3982 494.8477 784.1628 495.7419 781.4803 495.9655 779.9155 496.4125 779.1331 497.4185 778.5743 503.6777 776.1153 511.7252 773.4328 515.4136 773.8799 518.3197 775.3329 520.2198 775.8917 521.3375 775.3329 522.2317 774.4387 529.7204 760.4673 535.1971 758.7908 543.2447 757.8966 550.5098 755.2141 557.4396 751.4139 565.8224 740.7956 569.0638 737.8895 570.4051 737.3307 571.8581 737.1072 574.8759 736.8836 578.6761 737.2189 576.776 741.3545 577.4466 742.2486 578.8997 744.8194 581.1351 747.949 584.9353 755.2141 586.9472 758.1201 588.2884 759.6849 589.0708 759.7967 595.4418 759.7967 599.242 760.3556 602.0363 761.138 613.3252 760.5791 616.4548 761.4733 617.6843 763.4851 618.5784 766.0559 619.1373 768.9619 619.0255 769.7443 618.5784 772.7622 618.3549 773.4328 618.2431 774.1034 618.1314 775.6682 618.4667 777.0095 619.2491 779.0213 620.255 781.9274 611.6486 805.8464 610.7545 811.2114 611.6486 811.3232 614.2194 811.2114Z" />
  <path class="Jutiapa" d="M481.3234 1005.9168L482.2176 1002.5637 483.7824 996.4163 483.7824 992.0572 483.6706 990.8277 483.2235 989.5982 480.2057 984.0097 477.8585 975.4033 477.0761 973.3914 476.2937 972.2737 475.176 971.6031 474.6172 971.2678 474.2818 970.8207 473.9465 970.2618 472.27 960.0906 471.8229 959.0847 470.5934 957.8552 469.811 956.8493 469.0286 955.0609 468.9168 954.1668 468.8051 952.8255 469.1404 951.4843 469.4757 950.5901 470.9287 949.4724 475.2878 948.2429 481.9941 952.1549 486.5767 956.0669 487.8062 956.514 497.1949 958.8612 499.6539 959.7553 500.6598 959.7553 501.4422 959.5318 505.1307 956.9611 508.9309 949.9195 510.3839 947.1252 511.1663 946.5663 512.6194 945.7839 515.3019 945.0015 518.5432 944.3309 519.1021 944.1074 520.4433 942.6543 524.5789 936.6187 525.9201 933.9362 526.5908 931.8125 526.8143 930.3595 526.8143 929.5771 525.8084 919.853 526.1437 914.3762 524.9142 911.9173 519.1021 906.2169 511.7252 900.0695 510.0486 898.393 509.1545 897.6106 507.7014 897.0517 496.6361 893.9221 493.1712 891.4631 501.6658 870.2266 504.9072 867.4323 505.3542 866.9853 513.7371 865.3087 516.4196 865.5322 517.5373 866.0911 518.7668 866.5382 519.3256 866.2029 519.5492 865.5322 518.7668 860.8378 522.1199 860.3908 526.479 846.7547 541.6799 846.6429 547.3802 839.0425 548.2744 837.9248 549.0568 837.5894 549.9509 837.2541 551.6275 836.9188 552.6334 836.807 553.6394 836.9188 554.31 837.0306 554.9806 837.2541 555.6513 837.5894 566.3813 846.084 567.6108 837.5894 569.6227 834.5716 574.5406 831.2185 579.1232 828.2007 583.0352 825.5182 587.7296 824.2887 589.4062 824.624 590.3003 825.2946 591.0827 826.3006 592.6475 827.9771 595.33 829.989 595.7771 830.2125 610.7545 822.9474 615.8959 819.9296 616.0077 819.1472 616.0077 816.6882 614.2194 811.2114 623.8317 812.2174 626.8495 813.3351 627.2966 813.7822 628.9732 815.5705 630.3144 817.5824 631.5439 819.8178 634.2264 823.8416 635.1206 824.4004 635.903 824.7358 653.8981 823.9534 655.4629 824.5122 658.8161 828.2007 659.4867 829.8772 659.3749 830.9949 659.1514 832.3362 658.0337 835.6893 657.2513 837.2541 656.5806 839.7131 655.91 842.5074 655.7982 843.8486 655.7982 844.7428 656.0218 845.0781 656.2453 845.637 659.3749 849.3254 659.4867 849.4372 657.8101 850.1078 651.8862 857.2612 648.6449 859.6084 647.9743 855.0257 645.4035 852.455 641.8268 852.1197 638.4737 854.6904 636.9089 858.6024 637.9149 861.2849 639.7032 863.7439 640.3738 866.6499 638.809 869.1089 636.4618 870.7855 635.0088 872.9091 636.4618 876.374 641.4915 877.0447 643.1681 877.8271 644.5094 879.0565 645.2917 880.0625 646.633 882.6332 646.9683 883.8627 647.4154 887.6629 647.8625 889.2277 648.8684 890.2337 651.8862 891.7985 652.6686 892.8044 652.6686 896.6046 651.2156 898.1694 625.5083 904.3168 619.1373 907.2229 613.1017 911.9173 608.2955 917.1705 598.1243 935.2774 597.4537 937.2893 597.6772 939.1894 599.242 942.7661 599.3538 943.2132 599.3538 944.5545 595.7771 946.4546 592.3122 945.0015 586.053 940.1954 581.6939 938.9659 578.229 939.3012 567.6108 943.325 565.04 945.0015 559.8986 950.143 536.9855 966.2381 533.4088 969.3677 531.3969 972.8326 529.8321 976.4092 527.5967 979.8741 524.5789 982.2213 518.0961 985.798 515.1901 988.7041 513.29 992.2807 512.0605 996.1927 511.3899 1000.2165 511.5017 1004.0167 515.4136 1020 481.3234 1005.9168Z" />
  <path class="Petén" d="M721.7432 481.4865L721.6315 481.3747 721.4079 481.2629 720.1784 480.257 714.5899 479.4746 692.571 479.9217 689.7767 482.716 688.3237 486.8515 687.8766 488.5281 687.5413 489.3105 687.0942 490.2046 686.2 491.0988 683.4057 492.7754 676.1406 494.5637 673.3463 495.905 671.4462 495.7932 667.3107 493.5578 662.281 494.5637 655.91 497.4697 655.5747 497.5815 655.4629 497.2462 654.9041 484.3925 654.6805 483.7219 653.6746 483.2748 652.1098 483.163 648.7567 483.3866 647.3036 483.6101 646.2977 484.0572 645.8506 484.3925 645.2917 484.7278 644.6211 484.9514 643.9505 485.0631 643.0563 485.0631 628.1908 483.163 626.5142 483.163 623.7199 485.5102 623.1611 485.8455 622.6022 486.0691 621.2609 486.4044 618.0196 486.1809 616.9019 485.8455 615.5606 485.1749 610.6427 481.71 606.8425 478.4686 606.1718 478.1333 600.4715 475.4508 599.8009 475.2273 599.1303 475.2273 598.2361 475.8979 596.8948 476.5685 596.2242 476.6803 594.1006 476.5685 593.4299 476.5685 592.7593 476.7921 592.3122 477.1274 591.9769 477.5745 590.971 479.0275 590.6356 479.3628 590.4121 479.5864 589.965 479.8099 588.6238 480.1452 580.5762 480.5923 576.8878 480.0334 575.8818 480.0334 574.9877 480.1452 574.3171 480.257 573.5347 480.0334 572.6405 479.251 571.5228 477.0156 571.1875 475.7861 570.5168 474.3331 567.3872 470.0858 566.6048 468.521 565.9342 467.5151 565.2636 467.1798 563.9223 467.4033 561.6869 467.1798 557.5514 464.2737 556.4337 465.3914 555.8748 465.615 553.1923 465.0561 549.0568 461.9265 549.7274 460.2499 549.6156 459.6911 549.1685 459.3558 548.4979 458.9087 548.1626 458.2381 548.1626 458.1263 548.2744 458.0145 548.3861 457.5674 548.6097 457.0086 548.4979 456.338 548.1626 455.8909 547.7155 455.5556 545.9272 454.7732 545.3683 454.6614 545.033 454.7732 544.9212 455.5556 545.4801 457.4557 545.4801 457.9028 545.4801 458.2381 545.4801 458.3498 545.3683 458.4616 544.9212 458.6851 543.0211 459.1322 542.3505 459.4675 541.5681 459.5793 541.0092 459.4675 540.1151 458.3498 539.7798 458.2381 539.1091 458.2381 537.7679 458.5734 536.8737 458.3498 536.2031 457.5674 535.9795 456.6733 535.4207 456.0026 534.303 455.7791 531.7322 456.1144 530.6145 456.785 530.0557 457.3439 529.8321 457.9028 529.7204 458.2381 529.2733 458.5734 527.7085 458.3498 487.0238 445.2726 438.1798 437.7839 431.697 438.4546 432.5912 437.1133 434.2678 433.6484 434.9384 431.5248 433.5971 432.0836 432.9265 432.3072 432.4794 432.5307 431.697 433.4249 429.9087 433.4249 428.9028 429.1776 434.7149 424.2596 431.697 421.3536 431.697 419.7888 436.9503 417.6651 435.3855 415.0944 428.3439 411.1824 427.4497 406.3762 429.1263 403.0231 432.1441 400.7877 434.9384 399.3347 431.697 398.1052 429.3498 396.2051 428.9028 393.7461 431.697 390.7283 432.703 391.7342 433.4854 392.1813 436.5032 392.5166 435.609 391.2871 434.156 388.4928 433.2618 387.1516 434.3795 387.2634 434.7149 386.9281 434.7149 386.2574 434.9384 385.5868 436.3914 386.5927 438.2915 387.1516 439.8563 386.481 439.8563 383.9102 438.2915 384.4691 434.8266 383.2396 432.4794 381.4513 434.156 380.4453 438.5151 379.1041 442.0917 375.6392 443.433 371.6154 441.4211 368.374 439.8563 368.374 439.8563 370.2741 438.1798 370.2741 438.8504 366.6975 441.0858 365.468 444.3272 365.6915 448.0156 366.6975 445.2213 362.0031 444.886 360.6618 444.886 357.3087 444.4389 353.732 442.9859 353.3967 440.8623 354.4026 438.1798 354.738 436.8385 354.1791 435.0502 352.9496 432.5912 351.8319 424.9908 350.9377 424.4319 349.4847 424.7672 347.3611 423.426 344.5668 422.0847 343.2255 419.7375 341.549 417.055 340.7666 411.3547 343.5608 409.9017 341.3254 408.7839 336.0722 406.4367 336.0722 400.2893 337.8605 398.9481 338.5311 397.6068 337.7487 394.1419 337.0781 390.3417 336.8546 387.4356 337.7487 388.6651 335.4015 390.7888 333.6132 392.4653 331.7131 392.2418 329.0306 389.5593 327.354 385.8708 327.1305 383.7472 326.2363 385.7591 322.4361 384.8649 318.4123 386.4297 314.165 387.2121 310.5883 383.9707 308.5765 383.3001 310.253 382.5177 311.1472 381.1765 311.4825 379.2763 311.9296 379.2763 310.3648 382.4059 304.4409 379.0528 295.4992 362.9578 272.0273 359.4928 269.233 350.8865 264.8739 347.3098 261.9679 348.204 258.9501 348.204 257.2735 344.8508 255.3734 342.6154 257.2735 339.8211 257.2735 323.3908 252.132 318.9199 249.5613 311.9901 242.5197 307.0722 240.0607 310.8724 235.9252 310.3135 233.9133 307.0722 233.3545 302.8249 233.3545 302.4895 234.4722 303.3837 236.7076 303.6073 239.0548 301.2601 240.0607 299.9188 239.3901 297.0128 236.037 295.5597 234.9193 286.3945 231.6779 283.6002 229.1072 282.4825 223.9657 281.1413 221.2832 272.7584 211.0002 271.7525 208.7648 270.523 204.0704 269.2935 202.5056 266.7228 201.9468 261.0224 202.6174 258.5635 201.6114 250.0689 192.2227 247.8334 188.7578 246.8275 186.2988 245.598 181.8279 244.5921 180.0396 242.4684 178.8101 237.5505 177.4689 236.5446 175.9041 236.0975 171.9921 234.7562 167.5212 232.6326 163.4975 230.0618 161.262 223.4673 160.9267 217.0964 161.9327 212.2902 161.1503 210.2783 155.1146 206.5899 153.1028 199.213 151.6497 193.6244 149.079 194.6304 145.0552 195.8598 144.8317 196.4187 144.7199 301.4836 145.5023 301.5954 76.5395 301.7072 7.4649 303.719 5.3413 308.637 4 318.9199 4 371.5641 4 424.2084 4 476.7408 4.1118 529.385 4.2235 582.0293 4.2235 634.5617 4.2235 687.2059 4.3353 739.8502 4.3353 740.8561 58.6561 742.1974 128.1778 742.5327 199.5996 738.5089 264.4268 734.1498 334.6191 732.0262 360.4383 728.3377 411.853 722.1903 469.4152 721.7432 481.4865Z" />
  <path class="Quezaltenango" d="M56.2576 822.7239L50.5573 805.8464 48.3219 801.5991 47.763 801.2638 45.7512 800.8167 31.5562 799.3637 30.3267 799.0284 28.2031 798.246 27.5325 797.4636 27.1971 796.793 28.0913 795.2282 36.3624 785.7276 42.8451 780.4744 45.6394 779.0213 50.7809 778.0154 71.7938 771.9798 86.8829 773.5446 93.5892 773.9916 95.9364 773.7681 98.0601 772.8739 100.4073 771.4209 103.5369 765.7206 104.0957 764.8264 105.2134 763.5969 108.343 761.2497 109.2372 760.3556 109.796 759.4614 110.0196 758.679 116.5023 744.9311 116.8376 744.3723 118.7377 741.1309 120.3025 731.8539 122.4262 728.8361 122.8733 726.4889 122.6497 724.7006 122.985 723.6946 123.3204 723.024 125.2205 721.9063 127.0088 721.0121 134.0504 714.1941 136.0623 711.5116 136.9564 709.0526 138.4095 698.4343 137.4035 694.4106 132.9327 690.6103 130.0266 683.6805 132.262 676.3036 136.8447 669.5974 141.2037 664.903 149.4748 658.0849 151.0396 656.5201 152.1573 651.8257 168.2524 656.073 170.0407 657.5261 169.9289 659.985 170.7113 662.2205 175.4057 667.9208 171.1584 669.3738 158.9754 674.18 158.4165 674.4035 157.9694 674.7388 157.4106 676.8625 158.64 684.0158 164.5639 706.4818 165.4581 710.0585 167.2464 712.5175 171.2702 716.0942 171.2702 719.0002 170.7113 720.3415 170.7113 721.9063 171.1584 723.5828 174.9586 728.0537 175.2939 728.6125 175.6293 729.0596 177.3058 729.6185 181.8884 729.0596 186.9182 728.8361 189.0418 733.754 189.7124 741.1309 192.3949 743.4781 197.0893 751.7492 194.1833 761.4733 187.1417 771.0856 177.4176 777.6801 173.6174 776.1153 170.7113 775.8917 169.2583 776.3388 164.3404 779.5802 162.8873 780.3626 161.7696 780.6979 160.9872 780.6979 159.646 780.3626 158.3047 779.8037 155.734 779.1331 154.8398 779.2449 154.1692 779.4684 153.3868 780.3626 152.0455 782.4862 151.822 783.0451 150.5925 784.7217 148.8042 786.7336 147.91 787.0689 147.2394 787.0689 145.7864 786.1747 144.4451 785.7276 143.6627 786.1747 143.1039 786.51 142.4332 788.1866 140.1978 790.3102 138.2977 790.1985 136.9564 789.7514 133.9386 789.1925 132.7091 788.6337 132.1503 787.963 132.8209 783.604 136.174 775.4447 136.5094 772.4268 136.2858 771.868 135.8387 771.3091 135.2799 770.9738 134.3857 770.9738 133.3798 771.0856 132.7091 771.4209 132.0385 771.7562 131.0326 772.4268 129.2442 773.9916 126.0029 777.5683 117.3965 781.8156 115.8317 784.2746 113.708 791.0926 112.7021 793.4398 108.343 799.9226 107.3371 802.158 106.4429 804.3934 105.6605 807.9701 105.1017 809.5349 104.5428 810.6526 102.1956 813.3351 94.7069 824.624 84.7593 826.8594 77.8295 827.4183 75.0352 827.0829 61.0638 820.9355 60.0579 820.712 59.3872 820.8238 58.1578 821.3826 56.2576 822.7239Z" />
  <path class="Quiché" d="M300.813 440.8018L302.1542 440.8018 335.2385 440.8018 368.211 440.69 401.1835 440.69 422.6436 440.69 427.338 440.1311 431.5853 438.5663 434.4913 440.0194 435.609 441.9195 435.1619 444.2667 433.1501 447.0609 434.6031 449.7435 433.4854 452.0906 431.1382 453.0966 428.2321 451.9789 427.785 453.3201 426.8909 454.3261 426.5556 455.5556 425.1025 455.5556 422.3083 453.7672 417.6139 456.6733 415.1549 455.5556 413.4783 455.5556 412.5842 457.1204 411.8018 457.2321 410.1252 455.5556 409.5663 456.4497 409.231 457.2321 409.0075 457.1204 408.5604 455.5556 407.6662 456.6733 406.1014 458.0145 405.319 458.7969 402.1894 457.1204 400.0658 455.1085 397.6068 453.6554 393.5831 453.879 393.5831 451.9789 394.8125 451.6436 395.9303 450.9729 397.048 450.5259 397.048 448.6257 395.3714 447.6198 394.0301 447.508 392.9124 448.514 392.13 450.5259 390.4535 450.5259 387.1003 446.9492 380.9529 448.2904 370.7817 453.879 372.4583 457.2321 370.3347 458.6851 370.4464 459.8029 370.8935 461.0323 369.9993 463.156 368.3228 464.1619 367.2051 463.156 366.4227 461.4794 365.8638 460.697 363.1813 461.9265 359.3811 465.0561 356.1397 465.8385 356.1397 467.6268 357.1457 468.521 359.2693 470.8682 360.9459 469.1916 361.393 469.974 361.2812 470.4211 361.5047 470.6447 362.7342 470.8682 362.7342 472.5448 360.387 474.3331 358.4869 477.9098 356.1397 486.1809 362.1754 486.8515 363.6284 491.0988 361.0576 495.905 355.2455 498.2521 354.2396 499.7052 351.11 508.4233 344.6273 516.6944 343.0625 520.2711 346.1921 519.9358 348.9864 520.2711 351.3336 521.5006 352.8983 523.736 351.6689 524.1831 350.6629 525.189 349.4334 525.5243 349.4334 527.0891 353.0101 529.7716 354.3514 530.6658 351.11 532.9012 350.2158 535.8073 352.116 538.1545 360.9459 539.7193 371.1171 542.6253 374.0231 544.1901 375.9232 543.0724 378.1586 542.6253 380.3941 543.0724 382.2942 544.1901 381.5118 544.4136 380.7294 544.4136 380.3941 544.749 380.5058 545.8667 385.0884 548.8845 387.4356 552.0141 387.6592 555.5908 385.5355 559.6145 389.224 562.1853 391.5712 567.3267 393.2477 572.4682 394.4772 574.7036 396.042 576.1567 394.3655 579.0627 391.7947 581.7452 390.4535 582.4158 383.7472 588.4515 383.7472 590.1281 385.7591 592.8106 382.853 594.3754 373.2407 595.2695 369.9993 596.9461 368.9934 600.8581 369.5523 605.3289 370.7817 608.7938 375.6997 613.6 383.1883 616.6178 420.7435 622.4299 424.5437 624.5536 424.4319 629.5833 422.1965 635.2836 419.8493 639.4191 418.2845 641.6546 409.3428 653.9494 401.407 654.62 373.3525 653.3905 333.6737 644.0018 331.7736 642.9958 330.2088 669.8209 348.0922 692.9575 369.664 706.5936 369.5523 707.7113 368.4345 713.0763 372.7936 717.659 374.3584 719.0002 375.9232 720.1179 377.7116 721.6827 378.8293 724.0299 381.5118 730.4009 378.2704 729.1714 369.664 727.3831 362.6224 724.9241 358.5987 724.3652 346.1921 724.3652 334.7914 721.0121 331.103 721.1239 327.7498 721.6827 324.9556 722.2416 309.4194 722.6887 305.0603 721.7945 301.0365 724.2535 296.901 725.3712 294.6656 726.6007 294.2185 726.8242 293.6596 727.2713 292.2066 729.7303 286.7298 745.0429 285.0532 746.4959 278.6823 749.6255 274.6585 748.2843 273.5408 748.9549 272.6466 752.308 272.4231 752.8669 272.0878 753.314 271.6407 753.7611 271.1936 754.0964 270.6348 754.3199 269.8524 754.4317 269.1817 754.3199 268.5111 753.6493 268.064 752.5316 267.6169 749.8491 267.6169 748.5078 267.8405 747.5019 268.1758 746.943 270.1877 744.8194 270.8583 743.7017 271.5289 742.5839 271.6407 741.9133 271.1936 741.1309 270.0759 740.3485 267.2816 739.2308 266.0521 738.8955 265.0462 738.7837 264.3756 738.7837 263.705 738.5602 262.1402 737.5542 259.9047 733.4187 258.6752 730.1773 255.7692 728.7243 248.1688 722.8004 248.7276 721.2356 250.0689 717.1001 249.9571 715.5353 249.2865 714.1941 245.3745 711.3998 243.6979 708.7173 242.5802 704.2464 241.9096 703.0169 241.4625 702.3463 237.1034 699.105 234.6444 697.4284 234.1974 696.9813 233.862 696.4224 233.7503 695.64 233.7503 694.8576 233.9738 692.9575 234.5327 691.281 235.3151 690.1633 237.2152 688.5985 238.4447 688.1514 239.4506 687.8161 242.0213 687.8161 242.692 687.2572 243.2508 686.363 243.4744 683.7923 243.4744 682.5628 241.9096 679.7685 240.233 679.2097 239.8977 675.7448 237.6623 672.3916 236.4328 667.5855 234.7562 666.8031 228.1617 659.985 227.3793 658.3085 224.138 656.6319 222.9085 652.8317 223.0202 648.3608 224.138 641.431 225.1439 639.3074 227.044 637.9661 237.4387 636.066 242.9155 634.2777 245.0392 634.1659 250.963 635.2836 252.9749 635.0601 256.6634 634.1659 255.5457 629.1362 254.2044 625.4477 253.8691 624.1065 255.9927 615.1648 255.4339 610.6939 248.8394 607.5644 245.8216 607.0055 238.78 607.7879 237.4387 607.7879 236.5446 607.5644 231.9619 603.3171 230.5089 601.6405 229.1677 599.5168 228.1617 597.1696 227.8264 595.7166 227.8264 592.587 227.6029 591.8046 227.2675 591.0222 222.4614 585.2101 221.679 584.2042 221.4554 583.6453 221.1201 583.0865 220.5613 581.9688 220.3377 581.2981 220.226 580.6275 220.1142 579.0627 220.1142 578.2803 220.1142 577.4979 220.3377 576.8273 220.7848 575.7096 222.1261 573.4741 222.4614 567.662 222.6849 566.7679 223.2438 565.3149 224.0262 564.1971 225.4792 561.4029 226.0381 559.0557 226.3734 556.0378 226.9322 555.0319 227.6029 554.5848 228.3853 554.5848 229.2794 554.473 230.2854 554.1377 233.1914 551.567 233.7503 551.3435 234.4209 551.1199 235.2033 551.0081 236.6563 551.0081 237.4387 550.8964 243.9215 546.3138 244.9274 544.8607 245.9333 544.6372 247.9452 544.5254 248.8394 544.1901 249.2865 543.743 249.0629 543.0724 248.8394 542.7371 248.5041 541.0605 252.9749 536.7014 253.5338 535.919 269.1817 504.0642 271.4172 499.4816 300.813 440.8018Z" />
  <path class="Retalhuleu" d="M21.385 833.4539L21.7204 832.7833 22.391 832.5597 23.3969 832.448 25.8559 833.0068 27.0854 832.895 28.3149 832.3362 30.4385 830.8832 32.5622 828.8713 33.3446 828.536 34.4623 828.3124 36.9212 828.536 39.1567 828.9831 40.3861 829.4301 41.1685 829.5419 41.8392 829.5419 42.5098 829.5419 43.404 829.0948 44.4099 828.4242 46.9806 825.5182 49.1043 824.5122 56.2576 822.7239 58.1578 821.3826 59.3872 820.8238 60.0579 820.712 61.0638 820.9355 75.0352 827.0829 77.8295 827.4183 84.7593 826.8594 94.7069 824.624 102.1956 813.3351 104.5428 810.6526 105.1017 809.5349 105.6605 807.9701 106.4429 804.3934 107.3371 802.158 108.343 799.9226 112.7021 793.4398 113.708 791.0926 115.8317 784.2746 117.3965 781.8156 126.0029 777.5683 129.2442 773.9916 131.0326 772.4268 132.0385 771.7562 132.7091 771.4209 133.3798 771.0856 134.3857 770.9738 135.2799 770.9738 135.8387 771.3091 136.2858 771.868 136.5094 772.4268 136.174 775.4447 132.8209 783.604 132.1503 787.963 132.7091 788.6337 133.9386 789.1925 136.9564 789.7514 138.2977 790.1985 140.1978 790.3102 142.4332 788.1866 143.1039 786.51 143.6627 786.1747 144.4451 785.7276 145.7864 786.1747 147.2394 787.0689 147.91 787.0689 148.8042 786.7336 150.5925 784.7217 151.822 783.0451 152.0455 782.4862 153.3868 780.3626 154.1692 779.4684 154.8398 779.2449 155.734 779.1331 158.3047 779.8037 159.646 780.3626 160.9872 780.6979 161.7696 780.6979 162.8873 780.3626 164.3404 779.5802 169.2583 776.3388 170.7113 775.8917 173.6174 776.1153 177.4176 777.6801 170.1525 784.051 164.7875 790.1985 164.1168 791.2044 163.4462 792.7692 163.2227 793.4398 163.1109 796.2341 163.3344 799.3637 163.4462 801.8227 153.9457 821.1591 153.8339 822.7239 153.9457 823.5063 153.9457 824.2887 152.0455 838.7072 152.2691 840.2719 152.6044 841.5014 153.1633 842.7309 156.1811 848.2077 156.2928 849.996 155.1751 866.0911 155.3987 869.3325 155.2869 871.009 155.0634 872.1267 152.2691 876.1505 149.363 885.3157 148.2453 892.5809 147.6865 900.7402 147.4629 902.305 147.2394 902.8638 140.3096 913.035 141.7626 922.8708 141.9861 924.8827 117.0612 909.3465 82.1886 883.7509 48.3219 853.1256 21.385 833.4539Z" />
  <path class="Sacatepéquez" d="M383.1883 838.1483L367.8757 844.1839 365.1932 838.4836 364.8579 837.9248 363.9637 837.2541 362.2871 837.7012 361.1694 839.6013 359.7164 840.3837 356.2515 840.3837 354.2396 841.6132 353.7925 841.9485 353.2337 842.3956 352.116 843.8486 350.8865 846.084 350.5512 846.5311 348.8746 848.4312 342.6154 853.908 341.4977 853.1256 339.9329 851.3373 336.9151 846.4194 335.1267 842.5074 335.015 841.8367 334.7914 841.1661 332.7795 839.1542 325.738 833.0068 325.738 832.7833 325.5144 831.3303 326.8557 824.5122 331.9971 814.4528 342.8389 802.4933 348.8746 798.0224 352.0042 791.0926 353.4572 789.3043 354.1278 788.0748 354.2396 786.9571 354.2396 785.5041 353.4572 781.0332 352.6748 778.686 351.3336 771.5327 352.0042 768.5149 355.8044 761.585 361.2812 766.7265 364.5226 768.5149 366.758 769.0737 368.9934 769.1855 371.8994 768.6266 372.6818 768.6266 373.3525 768.8502 375.8114 771.0856 382.9648 780.3626 385.0884 787.516 388.3298 791.2044 390.677 793.8869 391.0123 794.4458 391.1241 796.2341 389.7828 800.8167 390.2299 803.7228 388.218 805.9582 386.9886 808.976 385.312 828.8713 383.1883 838.1483Z" />
  <path class="San Marcos" d="M34.9094 593.9283L36.3624 599.0697 40.4979 604.323 44.0746 605.6642 44.6334 609.3527 46.9806 635.0601 49.6631 637.1837 61.958 637.7426 62.5168 636.9602 70.6761 627.5714 73.9175 625.4477 81.7415 624.7771 89.0066 620.3063 93.0304 617.7355 94.5952 617.1767 96.2717 617.0649 98.2836 618.0708 106.4429 623.2123 111.5844 623.5476 124.5498 619.8592 128.2383 619.7474 128.4618 620.7534 129.5795 624.1065 133.0444 630.2539 136.9564 635.7307 141.4273 640.5369 146.1217 644.5606 148.4689 646.2372 150.9278 648.5844 152.1573 651.8257 151.0396 656.5201 149.4748 658.0849 141.2037 664.903 136.8447 669.5974 132.262 676.3036 130.0266 683.6805 132.9327 690.6103 137.4035 694.4106 138.4095 698.4343 136.9564 709.0526 136.0623 711.5116 134.0504 714.1941 127.0088 721.0121 125.2205 721.9063 123.3204 723.024 122.985 723.6946 122.6497 724.7006 122.8733 726.4889 122.4262 728.8361 120.3025 731.8539 118.7377 741.1309 116.8376 744.3723 116.5023 744.9311 110.0196 758.679 109.796 759.4614 109.2372 760.3556 108.343 761.2497 105.2134 763.5969 104.0957 764.8264 103.5369 765.7206 100.4073 771.4209 98.0601 772.8739 95.9364 773.7681 93.5892 773.9916 86.8829 773.5446 71.7938 771.9798 50.7809 778.0154 45.6394 779.0213 42.8451 780.4744 36.3624 785.7276 28.0913 795.2282 27.1971 796.793 27.5325 797.4636 28.2031 798.246 30.3267 799.0284 31.5562 799.3637 45.7512 800.8167 47.763 801.2638 48.3219 801.5991 50.5573 805.8464 56.2576 822.7239 49.1043 824.5122 46.9806 825.5182 44.4099 828.4242 43.404 829.0948 42.5098 829.5419 41.8392 829.5419 41.1685 829.5419 40.3861 829.4301 39.1567 828.9831 36.9212 828.536 34.4623 828.3124 33.3446 828.536 32.5622 828.8713 30.4385 830.8832 28.3149 832.3362 27.0854 832.895 25.8559 833.0068 23.3969 832.448 22.391 832.5597 21.7204 832.7833 21.385 833.4539 1.2662 818.9237 6.0724 818.1413 10.4315 812.888 15.6847 798.3578 20.8262 788.7454 21.7204 784.9452 21.4968 780.3626 17.2495 768.1795 17.1377 766.3912 17.473 762.7028 17.2495 760.8026 15.1259 754.6552 14.567 752.6433 14.3435 747.3901 15.5729 744.484 20.4909 738.6719 23.1734 731.1833 22.5028 715.7589 23.2851 707.5996 26.1912 704.8053 29.0972 703.9111 32.2268 703.5758 35.3564 702.2345 37.8154 699.3285 42.6216 688.3749 11.5492 647.802 9.7608 643.7782 9.6491 639.1956 11.2139 634.8365 15.6847 627.1243 27.3089 607.0055 34.9094 593.9283Z" />
  <path class="Santa Rosa" d="M526.479 846.7547L522.1199 860.3908 518.7668 860.8378 519.5492 865.5322 519.3256 866.2029 518.7668 866.5382 517.5373 866.0911 516.4196 865.5322 513.7371 865.3087 505.3542 866.9853 504.9072 867.4323 501.6658 870.2266 493.1712 891.4631 496.6361 893.9221 507.7014 897.0517 509.1545 897.6106 510.0486 898.393 511.7252 900.0695 519.1021 906.2169 524.9142 911.9173 526.1437 914.3762 525.8084 919.853 526.8143 929.5771 526.8143 930.3595 526.5908 931.8125 525.9201 933.9362 524.5789 936.6187 520.4433 942.6543 519.1021 944.1074 518.5432 944.3309 515.3019 945.0015 512.6194 945.7839 511.1663 946.5663 510.3839 947.1252 508.9309 949.9195 505.1307 956.9611 501.4422 959.5318 500.6598 959.7553 499.6539 959.7553 497.1949 958.8612 487.8062 956.514 486.5767 956.0669 481.9941 952.1549 475.2878 948.2429 470.9287 949.4724 469.4757 950.5901 469.1404 951.4843 468.8051 952.8255 468.9168 954.1668 469.0286 955.0609 469.811 956.8493 470.5934 957.8552 471.8229 959.0847 472.27 960.0906 473.9465 970.2618 474.2818 970.8207 474.6172 971.2678 475.176 971.6031 476.2937 972.2737 477.0761 973.3914 477.8585 975.4033 480.2057 984.0097 483.2235 989.5982 483.6706 990.8277 483.7824 992.0572 483.7824 996.4163 482.2176 1002.5637 481.3234 1005.9168 480.0939 1005.4697 442.8741 988.7041 419.1787 979.7624 399.954 975.1798 388.7769 973.3914 388.7769 970.7089 388.7769 940.0836 389.3358 938.8541 390.3417 937.7364 393.0242 937.0658 395.7067 936.6187 396.3773 936.2834 396.9362 935.9481 397.7186 933.4891 399.5069 930.0242 400.7364 928.7947 403.866 927.0064 404.7602 926.224 405.5426 925.218 405.7661 924.6592 405.6543 923.8768 405.2073 922.8708 401.7424 919.6295 401.2953 919.0706 400.5129 917.5058 400.4011 914.0409 402.0777 913.2585 406.4367 912.5879 407.1074 912.3644 408.6722 911.3584 412.4724 907.67 415.4902 903.8697 415.3784 903.0873 414.7078 902.305 412.6959 901.299 411.5782 901.0755 410.684 901.1872 406.9956 902.5285 406.2132 902.6403 404.6484 902.752 403.1954 902.6403 399.954 901.9696 398.9481 901.6343 398.3892 901.4108 398.0539 900.6284 397.9421 899.5107 398.7245 896.8282 400.1776 894.0339 403.7542 890.569 410.5723 888.11 412.3606 886.8805 416.9432 882.6332 421.5259 880.3978 423.426 879.7272 424.879 879.3919 425.4378 879.1683 425.8849 878.833 427.8968 876.4858 428.6792 875.8152 429.3498 875.3681 430.0205 875.1446 430.5793 874.8092 431.0264 874.4739 431.4735 874.1386 432.703 872.6856 433.0383 869.6678 431.697 858.0436 436.1679 846.7547 446.0037 831.2185 450.0275 829.3184 451.0334 829.2066 452.8218 829.7655 453.4924 830.4361 453.9395 831.1067 454.2748 834.1245 454.4983 834.7952 454.7219 835.354 455.169 835.8011 456.2867 835.4658 457.8515 834.5716 462.4341 830.3243 463.7754 828.8713 465.6755 828.2007 467.7991 828.2007 470.5934 826.8594 473.6112 829.989 474.1701 830.6596 475.0642 831.3303 475.6231 831.6656 478.8645 831.2185 481.9941 830.6596 508.2603 825.6299 509.4898 831.442 511.6134 834.9069 520.2198 841.9485 526.479 846.7547Z" />
  <path class="Sololá" d="M255.7692 728.7243L258.6752 730.1773 259.9047 733.4187 262.1402 737.5542 263.705 738.5602 264.3756 738.7837 265.0462 738.7837 266.0521 738.8955 267.2816 739.2308 270.0759 740.3485 271.1936 741.1309 271.6407 741.9133 271.5289 742.5839 270.8583 743.7017 270.1877 744.8194 268.1758 746.943 267.8405 747.5019 267.6169 748.5078 267.6169 749.8491 268.064 752.5316 268.5111 753.6493 269.1817 754.3199 269.8524 754.4317 270.6348 754.3199 271.1936 754.0964 271.6407 753.7611 272.0878 753.314 272.4231 752.8669 272.6466 752.308 273.5408 748.9549 274.6585 748.2843 278.6823 749.6255 279.2411 751.3021 283.1531 769.8561 281.4766 774.6623 281.3648 775.4447 281.8119 780.8097 276.8939 792.6574 274.9938 795.3399 274.3232 797.5754 274.2114 803.1639 272.1996 822.8356 262.9226 815.6823 259.793 813.6704 257.4458 812.7762 255.9927 812.5527 253.5338 812.4409 251.4101 812.7762 244.8156 816.2411 239.4506 817.0235 238.78 816.6882 237.9976 816.1294 237.8858 815.4587 237.8858 814.6763 238.4447 811.8821 238.5564 811.2114 238.4447 808.8642 238.1094 806.8524 237.6623 805.8464 236.5446 804.5052 229.6147 798.3578 227.1558 795.6752 226.4851 795.4517 225.591 795.2282 222.7967 795.8988 217.4317 796.3459 217.3199 796.2341 214.5256 792.9927 210.949 791.3162 209.1606 791.0926 207.7076 791.5397 206.8134 792.0986 205.6957 792.881 205.0251 793.5516 204.6898 794.2222 204.4662 794.8928 204.3545 795.6752 204.578 798.6931 204.3545 800.5932 203.125 804.0581 199.8836 803.1639 189.0418 801.5991 185.4651 798.246 191.1655 787.2924 192.2832 783.8275 192.2832 783.0451 191.9479 781.7039 189.0418 773.6563 188.3712 772.5386 187.1417 771.0856 194.1833 761.4733 197.0893 751.7492 197.9835 750.9668 208.9371 741.578 211.0607 740.9074 213.855 740.4603 219.3318 741.3545 221.5672 741.9133 222.9085 742.5839 224.6968 742.8075 229.6147 740.6838 232.8561 740.6838 234.5327 740.9074 238.3329 742.2486 239.1153 742.3604 240.6801 742.3604 242.0213 742.1369 244.5921 741.2427 247.9452 738.0013 251.0748 733.4187 255.7692 728.7243Z" />
  <path class="Suchitepéquez" d="M141.9861 924.8827L141.7626 922.8708 140.3096 913.035 147.2394 902.8638 147.4629 902.305 147.6865 900.7402 148.2453 892.5809 149.363 885.3157 152.2691 876.1505 155.0634 872.1267 155.2869 871.009 155.3987 869.3325 155.1751 866.0911 156.2928 849.996 156.1811 848.2077 153.1633 842.7309 152.6044 841.5014 152.2691 840.2719 152.0455 838.7072 153.9457 824.2887 153.9457 823.5063 153.8339 822.7239 153.9457 821.1591 163.4462 801.8227 163.3344 799.3637 163.1109 796.2341 163.2227 793.4398 163.4462 792.7692 164.1168 791.2044 164.7875 790.1985 170.1525 784.051 177.4176 777.6801 187.1417 771.0856 188.3712 772.5386 189.0418 773.6563 191.9479 781.7039 192.2832 783.0451 192.2832 783.8275 191.1655 787.2924 185.4651 798.246 189.0418 801.5991 199.8836 803.1639 203.125 804.0581 204.3545 800.5932 204.578 798.6931 204.3545 795.6752 204.4662 794.8928 204.6898 794.2222 205.0251 793.5516 205.6957 792.881 206.8134 792.0986 207.7076 791.5397 209.1606 791.0926 210.949 791.3162 214.5256 792.9927 217.3199 796.2341 217.4317 796.3459 222.7967 795.8988 225.591 795.2282 226.4851 795.4517 227.1558 795.6752 229.6147 798.3578 236.5446 804.5052 237.6623 805.8464 238.1094 806.8524 238.4447 808.8642 238.5564 811.2114 238.4447 811.8821 237.8858 814.6763 237.8858 815.4587 237.9976 816.1294 238.78 816.6882 239.4506 817.0235 244.8156 816.2411 251.4101 812.7762 253.5338 812.4409 255.9927 812.5527 257.4458 812.7762 259.793 813.6704 262.9226 815.6823 272.1996 822.8356 273.8761 824.4004 275.4409 826.077 276.3351 827.1947 276.7822 829.5419 276.3351 835.1305 276.3351 838.3718 272.8702 847.5371 266.1639 861.5085 264.5991 865.7558 263.9285 877.6035 263.705 878.9448 263.3696 879.9507 262.2519 881.5155 260.1283 885.7628 258.6752 886.657 230.7325 884.6451 229.1677 884.198 230.3971 878.2741 227.8264 875.7034 223.4673 880.6213 221.4554 881.7391 219.1083 881.8508 217.5435 881.6273 216.6493 881.1802 215.4198 880.5096 214.4139 879.5036 213.855 878.7212 213.6315 877.9388 213.6315 877.2682 213.6315 876.5976 214.1903 874.4739 214.0785 873.6915 213.855 872.9091 212.7373 871.3443 212.402 870.6737 212.1784 870.1149 212.1784 869.4442 212.2902 868.7736 212.5138 868.2147 214.3021 865.644 214.3021 864.6381 213.855 863.4086 212.2902 861.0614 211.2843 860.1672 210.2783 859.8319 208.3782 860.5025 207.2605 861.0614 200.4425 866.0911 199.5483 866.9853 199.213 867.5441 198.7659 868.6618 198.207 870.7855 198.207 872.2385 198.3188 873.8033 198.7659 876.0387 199.213 877.2682 200.3307 879.3919 200.5542 879.9507 200.666 880.6213 200.1072 881.4037 199.3248 882.0744 197.6482 883.0803 196.6422 883.3039 195.9716 883.0803 195.7481 882.6332 195.0774 880.7331 194.295 879.5036 192.3949 878.1624 189.936 879.7272 189.4889 880.5096 189.0418 882.1861 188.93 885.204 189.0418 887.2158 189.936 893.0279 190.4948 902.9756 190.1595 906.9993 188.7065 908.8994 187.477 910.2407 186.3593 912.029 184.3474 916.3881 172.7232 933.6009 172.2761 934.9421 172.0526 936.0598 172.835 939.8601 173.0585 941.8719 167.47 939.7483 147.1276 928.1241 141.9861 924.8827Z" />
  <path class="Totonicapán" d="M175.4057 667.9208L183.4532 667.4737 184.3474 667.1384 185.3534 666.4678 185.5769 665.7971 186.024 659.538 186.2475 658.8673 187.7006 656.073 190.8301 651.3787 191.7243 650.4845 192.842 649.9256 195.301 649.255 205.5839 646.796 209.3842 644.1135 215.0845 641.431 217.8788 640.9839 224.138 641.431 223.0202 648.3608 222.9085 652.8317 224.138 656.6319 227.3793 658.3085 228.1617 659.985 234.7562 666.8031 236.4328 667.5855 237.6623 672.3916 239.8977 675.7448 240.233 679.2097 241.9096 679.7685 243.4744 682.5628 243.4744 683.7923 243.2508 686.363 242.692 687.2572 242.0213 687.8161 239.4506 687.8161 238.4447 688.1514 237.2152 688.5985 235.3151 690.1633 234.5327 691.281 233.9738 692.9575 233.7503 694.8576 233.7503 695.64 233.862 696.4224 234.1974 696.9813 234.6444 697.4284 237.1034 699.105 241.4625 702.3463 241.9096 703.0169 242.5802 704.2464 243.6979 708.7173 245.3745 711.3998 249.2865 714.1941 249.9571 715.5353 250.0689 717.1001 248.7276 721.2356 248.1688 722.8004 255.7692 728.7243 251.0748 733.4187 247.9452 738.0013 244.5921 741.2427 242.0213 742.1369 240.6801 742.3604 239.1153 742.3604 238.3329 742.2486 234.5327 740.9074 232.8561 740.6838 229.6147 740.6838 224.6968 742.8075 222.9085 742.5839 221.5672 741.9133 219.3318 741.3545 213.855 740.4603 211.0607 740.9074 208.9371 741.578 197.9835 750.9668 197.0893 751.7492 192.3949 743.4781 189.7124 741.1309 189.0418 733.754 186.9182 728.8361 181.8884 729.0596 177.3058 729.6185 175.6293 729.0596 175.2939 728.6125 174.9586 728.0537 171.1584 723.5828 170.7113 721.9063 170.7113 720.3415 171.2702 719.0002 171.2702 716.0942 167.2464 712.5175 165.4581 710.0585 164.5639 706.4818 158.64 684.0158 157.4106 676.8625 157.9694 674.7388 158.4165 674.4035 158.9754 674.18 171.1584 669.3738 175.4057 667.9208Z" />
  <path class="Zacapa" d="M732.9204 728.1655L732.9204 727.9419 732.138 726.2653 731.8026 725.7065 731.5791 725.1476 731.2438 724.5888 730.5732 722.8004 729.5672 721.1239 729.2319 720.565 728.8966 720.1179 728.4495 719.7826 728.0024 719.4473 727.3318 719.2238 726.1023 719.3355 724.314 719.8944 718.949 722.5769 717.3842 723.6946 716.3782 724.7006 715.1487 726.4889 714.031 727.8301 712.578 729.0596 709.7837 729.9538 707.9954 730.0656 706.4306 728.9479 705.4246 727.7184 701.7362 726.4889 689.8884 730.5127 685.9765 730.5127 682.7351 728.2772 677.4818 726.7124 675.47 726.6007 670.8873 727.9419 656.3571 739.6779 652.7804 740.4603 639.9267 740.2367 636.4618 739.4543 628.7496 735.6541 620.5903 731.5186 617.796 731.1833 613.6605 734.3129 608.1837 739.4543 607.9602 740.7956 608.6308 746.8312 607.6249 750.855 602.0363 761.138 599.242 760.3556 595.4418 759.7967 589.0708 759.7967 588.2884 759.6849 586.9472 758.1201 584.9353 755.2141 581.1351 747.949 578.8997 744.8194 577.4466 742.2486 576.776 741.3545 578.6761 737.2189 584.0411 731.1833 587.059 729.842 592.2004 729.6185 593.3182 729.3949 594.3241 729.0596 594.7712 727.8301 595.2183 722.9122 594.6594 722.1298 593.4299 721.4592 590.4121 721.0121 587.5061 719.4473 585.6059 716.7648 574.9877 702.1228 574.4288 701.0051 574.2053 699.9991 575.0994 699.6638 576.2172 699.4403 587.8414 699.2167 587.6178 695.8636 576.9996 679.7685 568.0579 667.0266 574.6524 664.0088 577.2231 663.6735 582.6999 663.897 591.0827 667.1384 593.877 667.6972 609.0779 665.3501 616.7901 665.9089 633.3322 661.9969 643.0563 660.8792 646.633 660.0968 675.0229 650.4845 703.0774 639.1956 709.2249 634.5012 712.6898 632.7129 718.2783 631.4834 725.6552 632.2658 728.0024 632.8246 733.591 635.8425 734.2616 636.2895 735.044 636.9602 736.2735 638.3014 736.8323 639.1956 737.1677 639.8662 737.3912 640.6486 737.503 642.2134 736.9441 648.3608 736.6088 650.0374 736.497 650.5963 735.8264 651.714 735.4911 652.1611 735.044 652.6081 734.0381 653.2788 731.0202 654.5083 730.7967 655.5142 730.7967 657.079 732.6968 665.0147 732.8086 666.5795 732.585 668.9267 732.9204 672.8387 734.3734 679.7685 734.8205 681.2216 739.5149 686.8101 740.5208 687.5925 742.3091 688.3749 742.9798 688.822 743.0915 688.9338 739.7384 691.7281 736.9441 696.1989 733.1439 707.5996 737.7265 711.9586 737.7265 718.5531 734.8205 725.4829 732.9204 728.1655Z" />
</svg>