<?xml version="1.0" encoding="utf-8"?>
<svg xmlns="http://www.w3.org/2000/svg" viewBox="0 0 776 1024" style="stroke-width:0.25px;stroke-linejoin:round;stroke:#444;fill:#ddd" fill-rule="evenodd">
  <path class="Awdal" d="M184.6413 44.5729L184.753 44.6847 184.753 44.7965 184.8648 45.02 184.753 45.3553 184.753 45.6906 184.5295 45.9142 184.4177 46.026 183.9706 46.3613 183.4118 46.5848 183.4118 46.026 183.0765 45.6906 183.3 45.3553 183.7471 44.6847 183.9706 44.5729 184.3059 44.5729 184.5295 44.5729 184.6413 44.5729ZM171.6758 41.7787L170.7816 41.5551 171.0052 41.3316 171.2287 41.3316 172.1229 41.6669 172.57 42.114 173.0171 43.0081 173.1288 43.2317 173.4641 44.5729 173.5759 44.7965 174.2465 46.1377 174.4701 46.2495 174.6936 46.1377 174.8054 46.026 175.0289 45.8024 175.2525 45.6906 175.3642 45.8024 175.6996 46.5848 176.0349 47.1437 177.0408 48.1496 177.3761 48.3732 177.8232 48.8202 178.3821 49.3791 178.4938 49.4909 178.7174 49.7144 179.8351 49.4909 180.0586 49.3791 181.3999 49.7144 181.5117 49.8262 181.6234 50.0497 181.7352 50.6086 181.847 50.7204 181.9587 50.7204 182.1823 50.8321 182.8529 51.1674 183.1882 51.5028 183.4118 51.8381 183.7471 51.8381 184.6413 51.5028 185.2001 51.391 185.759 50.8321 186.3178 50.4968 186.6531 50.2733 186.9884 50.385 187.1002 50.6086 186.3178 51.0557 186.2061 51.1674 185.9825 51.5028 185.5354 51.9498 185.4237 52.9558 185.2001 53.5146 185.3119 53.6264 185.3119 54.0735 185.6472 54.7441 185.759 54.9677 185.759 55.4147 185.8707 55.6383 186.3178 56.4207 186.3178 56.9795 186.3178 58.209 186.4296 59.9974 186.7649 60.8915 186.9884 61.2268 187.8826 63.127 187.9944 63.2387 187.9944 63.3505 188.1062 64.0211 188.3297 64.4682 188.8886 64.9153 189.2239 65.0271 189.671 64.9153 189.7827 64.9153 189.671 64.8035 188.7768 64.4682 188.7768 64.3564 188.665 64.2447 188.665 64.1329 188.7768 64.1329 188.8886 64.1329 190.7887 64.6917 190.9004 64.8035 190.9004 64.9153 191.0122 65.3624 191.5711 67.2625 192.3535 68.7155 193.0241 69.8332 194.03 72.0686 195.2595 73.857 195.7066 74.5276 196.0419 74.9747 196.6008 75.8689 197.6067 77.769 198.2773 78.6631 198.8362 79.5573 198.948 79.5573 199.6186 81.0103 200.2892 81.7927 200.9598 82.7987 201.4069 83.134 203.7541 85.7047 206.2131 88.499 206.6602 88.9461 208.1132 90.7344 209.9015 92.5228 210.1251 92.8581 211.131 93.7523 211.3546 94.0876 211.8017 94.5347 213.1429 95.7641 213.1429 95.8759 218.5079 100.4585 218.955 100.9056 219.2903 101.1292 220.2963 102.0233 220.408 102.1351 220.5198 102.3586 221.1904 102.5822 222.0846 103.0293 223.4259 103.6999 224.5436 104.7058 227.2261 106.8295 227.3378 106.9413 228.0085 107.3883 228.5673 107.7237 229.1262 108.6178 229.7968 109.512 229.9086 109.6238 230.8028 110.5179 231.9205 111.3003 232.4793 111.6356 233.1499 111.6356 233.3735 111.7474 234.1559 111.971 234.7147 112.418 237.3972 114.5417 238.6267 115.3241 239.0738 115.7712 239.8562 116.5536 241.0857 117.7831 241.3092 118.0066 241.1975 118.1184 237.509 124.7129 234.9383 129.4073 232.4793 132.7604 231.8087 133.6546 230.4674 135.5547 228.3438 138.4607 226.779 140.6961 224.32 139.3549 222.867 138.5725 220.7433 137.343 218.2844 136.0018 210.4604 131.6427 206.1013 130.9721 205.6542 131.3074 203.0835 133.8781 200.7363 137.343 199.395 139.3549 193.1359 148.2966 190.7887 151.6497 189.1121 154.2205 183.5235 160.815 181.0646 163.9446 179.8351 165.2858 177.5997 167.9683 177.2644 168.4154 177.1526 168.5272 172.7935 176.6865 171.2287 179.2572 170.7816 176.7982 169.7757 170.8744 169.6639 169.5331 169.2168 167.4095 168.7697 165.2858 166.5343 164.0563 166.4226 163.8328 166.0872 163.3857 165.7519 162.8268 164.8578 161.5974 164.1871 161.262 163.1812 160.815 161.7282 160.815 160.7222 160.815 157.9279 160.3679 156.0278 159.1384 155.469 158.4678 154.5748 156.3441 154.3513 156.0088 153.6806 154.3322 153.4571 153.5498 152.0041 149.7496 151.1099 147.5142 150.551 146.62 149.7686 145.9494 149.7686 145.8376 148.4274 144.7199 148.3156 144.7199 147.0861 143.6022 145.6331 142.1492 145.5213 142.0374 141.0505 138.0136 139.821 136.6724 139.3739 136.1135 139.2622 135.89 138.9268 135.3311 138.8151 134.9958 137.4738 132.6486 136.2443 129.6308 135.5737 127.7307 135.4619 127.3954 135.4619 127.1718 135.2384 124.9364 135.1266 123.7069 134.7913 121.8068 134.0089 119.2361 131.4382 116.6653 131.1029 114.9888 130.544 114.3182 129.9851 113.9828 128.8674 113.6475 128.4204 113.3122 128.3086 113.2004 127.1909 111.4121 126.4085 110.0708 126.2967 109.9591 125.0672 105.8235 125.9614 104.4823 129.5381 99.1173 132.3323 94.87 133.4501 93.4169 135.4619 90.8462 135.5737 90.7344 139.4857 86.04 139.5975 85.8165 142.5035 82.9105 143.733 81.681 143.8448 81.3457 145.186 78.9985 145.2978 78.8867 145.6331 78.1043 145.4096 78.2161 144.9625 77.3219 167.7638 41.5551 169.3286 43.1199 169.4404 43.0081 169.9992 42.8964 170.4463 42.8964 171.0052 42.7846 171.4523 42.8964 171.564 43.0081 171.7876 43.3435 172.1229 43.4552 172.4582 43.4552 172.4582 43.3435 172.4582 43.2317 172.4582 43.1199 172.4582 42.8964 172.0111 42.0022 171.7876 41.8904 171.6758 41.7787ZM176.482 43.2317L176.3702 43.3435 174.8054 44.5729 174.5818 44.5729 174.9172 44.2376 176.1466 43.1199 176.3702 42.4493 176.482 42.0022 176.7055 40.9963 176.8173 40.9963 176.929 41.108 176.929 41.5551 176.5937 42.8964 176.482 43.2317ZM183.7471 39.9903L184.0824 39.7668 184.1942 39.7668 184.3059 39.8785 183.8589 40.6609 183.5235 40.9963 183.3 41.2198 183.1882 41.2198 183.0765 40.9963 183.1882 40.7727 183.1882 40.5492 183.7471 39.9903Z" />
  <path class="Bakool" d="M267.6872 532.2306L268.3579 536.1426 273.8347 568.7798 274.0582 570.3446 279.1997 595.046 279.3114 595.4931 282.9999 611.141 280.7645 622.9888 280.988 632.6011 281.5469 654.8436 272.6052 656.2966 268.9167 654.8436 258.6338 655.2906 254.1629 655.5142 248.4626 652.0493 244.5506 649.5903 246.786 645.9019 246.786 641.5428 246.786 641.3193 246.786 641.0957 246.786 640.8722 246.786 640.6486 246.786 640.4251 246.786 640.2015 246.786 639.978 246.786 639.7545 246.786 639.5309 246.786 639.3074 246.786 639.0838 246.786 638.8603 246.786 638.6367 246.786 638.4132 246.786 638.1897 246.786 637.9661 246.786 637.7426 246.786 637.519 246.786 637.2955 246.786 637.0719 246.786 636.8484 246.786 632.6011 245.2212 629.5833 237.1737 611.8117 220.0727 606.6702 214.9312 606.6702 208.7838 609.3527 208.3367 609.5762 205.3189 611.8117 200.1774 621.424 192.8006 629.5833 180.1704 632.6011 158.7103 625.2242 160.1634 611.8117 157.2573 605.8878 156.5867 604.6583 141.7211 579.1745 141.274 577.945 142.28 577.1626 144.2919 575.0389 145.2978 573.8095 146.3037 572.6917 147.5332 570.9034 147.5332 570.7916 148.4274 569.4504 149.098 568.4444 149.6569 567.3267 149.9922 566.5443 150.3275 566.0972 150.551 565.6502 150.6628 565.0913 151.3334 561.9617 151.4452 561.6264 151.557 561.0675 151.6688 560.6205 152.0041 560.0616 152.3394 559.2792 152.4512 559.1674 152.6747 558.9439 153.1218 558.385 155.6925 556.1496 158.8221 554.026 159.2692 553.8024 162.287 551.9023 167.205 549.2198 173.7994 545.8667 180.9528 542.29 181.9587 541.8429 184.5295 540.9487 187.6591 539.9428 189.671 542.29 208.8956 536.3661 210.6839 533.3483 210.9075 533.3483 211.3546 533.3483 213.1429 533.013 215.3783 532.3424 217.9491 531.4482 219.0668 531.0011 224.32 529.6598 224.8789 529.5481 225.9966 529.6598 228.7909 529.7716 240.1915 530.4422 245.2212 530.7776 247.9037 530.8893 258.2985 531.56 261.6516 531.7835 267.6872 532.2306Z" />
  <path class="Banadir" d="M343.4681 735.207L341.7915 736.4365 340.3385 737.1072 339.5561 737.4425 336.0912 739.6779 334.4146 740.5721 332.8498 741.578 332.291 741.9133 331.1733 742.4722 330.3909 743.1428 329.4967 743.5899 326.8142 745.49 325.8083 745.8253 324.3552 746.4959 323.4611 746.943 322.2316 747.949 321.3374 748.2843 320.2197 748.7314 319.102 749.0667 316.8666 750.4079 316.9783 750.2961 319.7726 746.7195 319.8844 746.6077 319.9961 746.3842 320.1079 746.2724 320.2197 746.0488 320.4432 745.8253 320.555 745.7135 320.6668 745.49 320.7785 745.3782 320.8903 745.1547 321.0021 745.0429 321.2256 744.8194 321.3374 744.7076 321.4492 744.484 321.5609 744.3723 321.6727 744.1487 321.7845 744.037 321.8963 743.8134 322.1198 743.7017 322.2316 743.4781 322.3433 743.3663 322.4551 743.1428 322.5669 743.031 322.6787 742.8075 322.9022 742.6957 323.014 742.4722 323.1257 742.3604 323.2375 742.1369 323.3493 742.0251 323.4611 741.8015 323.6846 741.578 323.7964 741.4662 323.9081 741.2427 324.0199 741.1309 324.1317 740.9074 324.3552 740.7956 324.467 740.5721 324.5788 740.4603 324.6905 740.2367 324.8023 740.0132 324.9141 739.9014 325.1376 739.6779 325.2494 739.5661 325.3612 739.3426 326.5906 737.7778 329.6085 736.8836 331.8439 736.213 341.1209 735.4306 343.3563 735.207 343.4681 735.207Z" />
  <path class="Bari" d="M680.57 278.7336L680.4582 278.6218 671.293 270.3507 662.3513 268.7859 659.4452 273.3685 655.7568 278.51 653.6331 271.5802 653.6331 271.4684 653.5213 271.1331 653.2978 270.1272 653.186 269.9036 653.0743 269.6801 653.0743 269.5683 652.9625 269.3448 652.9625 269.1212 652.8507 268.8977 652.8507 268.7859 652.7389 268.5624 652.7389 268.3388 652.6272 268.1153 652.6272 268.0035 652.5154 267.78 651.2859 263.6444 643.909 259.8442 639.6617 259.7325 639.5499 259.6207 639.3264 259.6207 639.2146 259.6207 638.9911 259.6207 638.8793 259.6207 638.6558 259.6207 638.544 259.6207 638.4322 259.6207 638.2087 259.6207 638.0969 259.6207 637.8734 259.6207 637.7616 259.6207 637.5381 259.6207 637.4263 259.6207 637.2028 259.6207 637.091 259.5089 636.8674 259.5089 636.7557 259.5089 636.5321 259.5089 636.4204 259.5089 636.1968 259.5089 636.085 259.5089 635.9733 259.5089 635.7497 259.5089 635.5262 259.5089 635.4144 259.5089 635.3026 259.5089 635.0791 259.5089 634.8556 259.5089 634.7438 259.5089 634.632 259.5089 634.4085 259.3971 634.2967 259.3971 634.0732 259.3971 633.9614 259.3971 633.8496 259.3971 633.6261 259.3971 633.4025 259.3971 633.2908 259.3971 633.179 259.3971 632.9554 259.3971 632.7319 259.3971 632.6201 259.3971 632.5084 259.3971 632.2848 259.3971 632.0613 259.3971 631.9495 259.2854 631.8377 259.2854 631.6142 259.2854 631.3906 259.2854 631.2789 259.2854 631.1671 259.2854 626.9198 259.1736 623.3431 256.8264 623.2314 256.8264 623.1196 256.7146 622.896 256.6029 622.7843 256.4911 622.6725 256.4911 622.449 256.2675 622.3372 256.1558 622.1136 256.1558 622.0019 256.044 621.8901 255.9322 621.6666 255.8205 621.5548 255.7087 621.443 255.5969 621.2195 255.4851 621.1077 255.4851 620.9959 255.3734 620.7724 255.2616 620.5488 255.1498 620.4371 255.0381 620.3253 254.9263 620.1018 254.8145 619.99 254.7028 619.8782 254.7028 619.7664 254.591 619.5429 254.4792 619.3194 254.3674 619.2076 254.2557 619.0958 254.1439 618.8723 254.0321 618.7605 254.0321 618.6487 253.9204 615.7427 252.0202 615.0721 251.6849 611.0483 248.6671 606.9128 245.6493 601.7713 235.9252 601.1007 230.7837 599.5359 218.0418 598.977 204.6293 598.0828 185.7399 596.8534 139.4667 596.6298 128.6249 596.6298 127.1718 596.1827 110.6297 595.8474 94.7582 593.7238 86.1518 591.2648 75.6453 589.9235 70.2803 589.0294 66.4801 589.0294 60.3327 590.2589 60.3327 592.3825 59.8856 594.6179 59.1032 595.6239 59.1032 595.9592 58.9914 597.3004 58.4326 599.5359 58.0972 601.6595 57.5384 604.2303 57.3149 604.9009 57.0913 606.3539 56.756 607.1363 56.4207 607.9187 56.4207 609.4835 55.9736 611.2718 55.7501 613.7308 54.7441 614.4014 54.4088 614.4014 54.297 615.0721 53.7382 615.4074 53.1793 615.5191 53.1793 615.7427 53.0675 616.4133 53.1793 617.1957 53.4029 617.3075 53.4029 618.3134 53.5146 622.1136 53.6264 624.7961 53.1793 625.6903 52.7322 625.8021 52.6205 626.3609 52.0616 626.4727 51.6145 626.5845 51.6145 627.9257 51.1674 628.3728 50.8321 628.5964 50.1615 628.7081 50.1615 630.4965 49.938 631.1671 49.6026 631.2789 49.6026 632.6201 47.9261 633.9614 45.1318 634.4085 44.6847 634.632 44.6847 636.085 44.2376 636.5321 44.2376 637.4263 44.2376 638.0969 44.1259 639.997 44.1259 640.8912 43.7905 642.0089 43.6788 642.7913 43.2317 643.6855 42.7846 644.6914 42.3375 645.5856 42.6728 647.1504 43.4552 648.4916 43.7905 649.9447 43.9023 652.4036 43.7905 653.0743 43.9023 654.5273 43.7905 654.8626 43.6788 655.9803 43.4552 657.2098 43.0081 660.1158 41.4433 660.1158 41.3316 661.01 40.6609 661.3453 40.6609 662.016 41.3316 662.463 41.5551 663.0219 42.114 663.0219 42.0022 663.1337 41.7787 663.0219 41.4433 662.016 40.8845 661.9042 40.7727 662.1277 40.2139 662.2395 40.2139 662.463 39.9903 663.0219 39.8785 664.1396 39.8785 665.2573 40.3256 666.0397 40.4374 667.2692 40.4374 667.4927 40.4374 668.1634 40.4374 669.7282 40.5492 672.1871 40.3256 673.3048 40.1021 674.0872 39.7668 674.199 39.7668 674.9814 39.0961 675.7638 38.7608 675.7638 38.6491 676.0991 38.3138 676.5462 37.7549 677.6639 37.7549 677.7757 37.7549 678.4463 37.196 679.1169 36.749 679.8993 36.5254 681.1288 36.4136 681.7994 36.0783 683.0289 36.0783 683.476 35.9666 684.5937 35.1842 684.8173 34.9606 686.7174 34.5135 687.4998 34.29 687.4998 34.1782 687.9469 33.8429 688.2822 33.1723 688.9528 32.6134 688.9528 32.5017 689.847 32.0546 691.0765 31.7193 692.753 30.8251 693.759 30.2662 693.8707 30.2662 695.4355 29.1485 696.2179 28.8132 698.3416 28.2543 699.4593 27.6955 700.9123 26.3542 702.3653 25.013 703.2595 24.007 703.9301 23.1129 705.4949 20.4304 706.0538 19.0891 706.5009 18.7538 706.8362 18.3067 707.1715 17.0772 707.395 16.0713 707.5068 15.4007 707.9539 14.2829 708.401 13.1652 709.0716 12.0475 709.0716 11.7122 709.0716 11.6004 708.5128 12.2711 707.5068 14.1712 707.2833 14.9536 707.0597 15.736 706.3891 18.1949 706.1656 18.1949 706.0538 17.9714 707.395 13.3888 708.1774 11.824 708.401 11.6004 708.8481 11.0416 710.5246 9.4768 711.0835 9.2532 712.0894 8.5826 713.5425 8.3591 713.6542 8.2473 713.8778 8.0238 714.1013 7.4649 714.3249 7.3531 714.7719 7.3531 715.7779 7.5767 717.3427 7.912 719.8017 6.9061 721.2547 6.3472 721.9253 6.1237 723.1548 5.6766 724.1607 5.453 724.2725 5.453 724.7196 5.1177 724.9431 4.8942 725.7255 4.8942 725.8373 4.7824 726.1726 4.5589 726.0608 4.3353 725.1667 4.3353 724.6078 4.5589 724.1607 5.0059 724.1607 5.1177 723.9372 4.8942 724.3843 4.2235 724.496 4.1118 724.7196 4 726.0608 4 726.6197 4.1118 727.0668 4.3353 728.1845 5.453 728.9669 6.0119 730.4199 6.7943 730.9788 7.1296 733.5495 7.4649 734.3319 7.3531 735.5614 8.0238 738.2439 8.6944 739.4734 9.365 741.4853 10.2592 742.8265 11.1534 745.509 12.4946 746.1796 12.4946 747.7444 12.4946 748.1915 12.4946 748.8622 12.6064 749.9799 12.6064 751.88 12.3828 752.2153 12.4946 753.4448 13.277 754.0036 13.7241 754.8978 14.1712 757.1332 14.6183 757.3568 14.6183 758.5862 15.2889 759.5922 15.2889 760.9334 14.8418 761.7158 14.8418 762.2747 15.0653 762.4982 15.4007 762.7218 16.1831 762.4982 17.0772 761.6041 18.8656 761.157 19.7597 760.5981 20.6539 760.4864 21.2128 760.5981 22.4422 760.3746 23.1129 759.704 24.007 759.5922 24.5659 760.2628 25.9072 760.3746 26.466 760.151 27.2484 760.0393 27.5837 759.2569 29.2603 758.3627 29.7074 758.1392 29.9309 757.6921 31.1604 757.4685 31.3839 757.4685 31.4957 756.7979 31.7193 755.3449 33.9547 754.3389 34.8488 753.6683 35.743 753.1095 36.6372 752.5506 37.9784 750.6505 40.4374 750.3152 41.2198 750.3152 41.5551 750.5387 42.2257 750.5387 43.0081 750.5387 43.1199 750.7623 43.7905 750.427 46.026 749.7563 47.8143 749.7563 48.1496 749.3092 48.8202 747.968 52.0616 747.6327 52.7322 747.4091 54.4088 747.1856 55.9736 747.4091 56.9795 747.1856 57.6502 746.962 58.5443 747.0738 61.7857 747.1856 62.2328 747.8562 64.2447 748.6386 65.4741 748.8622 65.9212 749.421 66.3683 749.6446 66.5919 751.5447 66.9272 752.4388 66.9272 753.1095 67.2625 754.0036 67.0389 754.5625 67.2625 754.6743 67.486 754.786 67.8213 754.6743 68.3802 754.4507 68.7155 753.333 70.2803 753.1095 71.0627 751.2094 75.4218 750.7623 77.4337 750.6505 77.8807 750.0916 82.7987 750.3152 86.04 750.427 86.8224 750.5387 87.6048 750.7623 92.2992 750.9858 96.323 751.0976 96.7701 750.874 99.229 751.2094 102.9175 751.3211 103.2528 751.9917 103.4763 752.2153 103.9234 752.3271 105.2647 752.6624 107.3883 753.8919 109.9591 754.0036 110.4062 753.7801 110.965 753.6683 110.965 753.333 111.1886 752.3271 111.4121 750.6505 111.4121 750.427 111.5239 749.9799 111.7474 749.3092 112.1945 749.1975 112.1945 749.0857 112.6416 749.1975 112.7534 749.5328 112.9769 749.6446 113.2004 749.3092 113.3122 749.3092 113.424 749.1975 113.5358 749.421 114.2064 749.1975 114.5417 749.6446 114.9888 749.6446 115.5476 749.421 116.33 748.9739 117.336 748.3033 118.3419 747.7444 118.789 747.5209 118.9008 745.7326 119.1243 744.3913 119.2361 743.9442 119.4596 743.8325 119.4596 743.3854 120.0185 743.3854 120.242 743.7207 120.5773 743.7207 120.8009 743.7207 121.8068 743.7207 122.2539 743.6089 122.3657 743.0501 121.8068 742.9383 121.8068 742.7147 122.0304 742.9383 122.3657 742.8265 122.9245 743.0501 123.1481 743.6089 122.9245 744.2795 123.1481 744.6149 123.1481 745.2855 122.5892 745.6208 122.3657 746.1796 122.0304 747.968 121.8068 748.1915 121.8068 750.3152 121.248 751.5447 121.248 755.0096 120.9127 757.5803 121.1362 758.3627 121.1362 758.698 121.0244 758.8098 121.0244 758.9216 120.8009 758.698 120.3538 758.3627 120.1303 758.2509 119.5714 758.0274 119.4596 757.9156 119.7949 757.9156 119.9067 757.1332 118.789 756.0155 117.8948 755.792 117.5595 755.6802 117.0007 755.9037 116.33 756.2391 115.7712 756.2391 115.2123 756.2391 115.1006 756.1273 114.4299 756.0155 113.9828 755.0096 112.8651 754.4507 111.6356 754.5625 111.4121 754.6743 111.4121 754.8978 111.5239 755.6802 113.0887 756.2391 113.6475 757.5803 114.2064 758.2509 114.7652 758.9216 115.4359 759.9275 115.8829 760.7099 116.33 761.6041 116.5536 763.0571 117.4477 763.616 117.7831 764.3983 117.8948 765.069 118.1184 765.8514 118.1184 766.6338 117.7831 767.4162 117.4477 768.4221 117.336 769.2045 117.4477 770.2105 117.8948 770.3222 118.0066 770.434 118.9008 770.8811 119.5714 771.9988 120.242 771.9988 120.4656 771.4399 121.5833 771.2164 122.3657 770.8811 122.5892 770.7693 122.701 770.5458 123.9305 770.3222 124.2658 769.7634 124.6011 769.2045 124.7129 769.0927 124.8246 768.8692 125.16 769.2045 126.1659 769.2045 126.2777 769.0927 126.2777 768.0868 125.8306 767.4162 125.9424 767.1926 125.9424 766.6338 125.3835 766.2985 125.2717 765.9631 125.2717 765.1807 125.4953 764.9572 125.4953 763.8395 125.4953 762.8336 125.8306 762.4982 125.7188 761.9394 125.3835 761.2688 125.2717 761.0452 125.0482 760.9334 124.6011 761.2688 123.2598 761.157 122.8128 760.8217 122.4774 759.5922 121.8068 758.4745 121.8068 757.1332 121.695 754.5625 122.0304 753.4448 122.1421 749.5328 123.0363 749.1975 123.1481 747.7444 123.2598 746.4032 123.7069 744.9502 123.8187 742.603 124.8246 740.3675 126.1659 739.4734 126.8365 737.7968 127.8425 736.7909 128.2895 734.1084 130.1897 733.9966 130.1897 733.8848 130.525 733.6613 133.2075 733.6613 134.2134 733.773 136.6724 734.2201 139.1314 734.2201 139.802 733.773 142.5963 733.6613 143.3787 733.326 144.3846 732.8789 145.6141 732.7671 146.2847 732.9906 147.8495 733.1024 149.5261 733.773 151.6497 733.773 151.8733 733.773 152.2086 733.6613 152.7674 733.773 153.5498 733.8848 154.1087 733.4377 154.8911 733.1024 156.1206 732.5436 159.0266 732.4318 159.4737 731.9847 161.0385 731.8729 161.7091 731.7612 162.8268 731.5376 163.1622 730.6435 164.1681 730.5317 164.3916 729.7493 168.8625 729.0787 172.4392 729.3022 173.4451 729.1904 174.451 729.1904 174.5628 728.8551 175.6805 728.8551 176.5747 728.7433 177.5806 728.1845 178.4748 728.408 179.2572 727.9609 180.822 727.1785 182.275 727.0668 183.3927 726.7315 184.9575 726.6197 186.5223 726.8432 187.193 726.7315 188.0871 727.0668 189.0931 726.955 190.099 727.0668 190.8814 727.5139 191.552 727.8492 191.8873 728.2963 192.1109 728.7433 192.4462 729.5257 192.6697 729.8611 193.0051 730.0846 193.5639 729.8611 194.3463 728.8551 196.3582 728.6316 197.2524 727.4021 199.7113 727.2903 199.9349 725.9491 201.835 724.6078 203.3998 723.9372 204.6293 722.5959 206.4176 722.1488 206.8647 722.1488 206.9765 721.4782 207.2 720.6958 207.5353 719.6899 208.3177 719.6899 208.4295 718.3486 210.4414 717.2309 211.4473 717.1191 211.4473 716.4485 212.4532 716.0014 213.2356 715.7779 214.3534 715.219 215.5828 715.1073 216.5888 715.219 217.4829 715.5543 218.4889 715.6661 219.6066 715.5543 220.389 715.3308 221.5067 714.8837 222.7362 713.5425 224.6363 713.4307 224.6363 712.2012 225.3069 710.9717 226.4246 710.86 226.4246 709.9658 227.9894 709.0716 228.8836 707.8421 229.666 704.7125 232.3485 704.0419 232.7956 702.4771 234.3604 702.3653 234.3604 701.8065 235.1428 700.9123 235.9252 700.8006 236.037 700.4652 236.2605 700.2417 236.484 700.2417 237.0429 700.0182 237.49 699.124 238.4959 698.7887 239.2783 698.4534 239.5019 698.3416 239.5019 698.118 240.0607 698.0063 240.9549 697.671 241.5138 697.4474 244.8669 697.3356 245.0904 696.8886 245.9846 696.2179 247.3259 695.7708 250.4554 695.5473 251.2378 695.212 251.6849 695.212 251.7967 694.6531 252.132 693.9825 252.8026 693.759 253.138 692.5295 254.7028 691.9706 256.2675 691.6353 258.503 691.7471 259.5089 692.0824 260.0678 692.1942 260.6266 692.0824 261.6326 692.0824 261.8561 692.0824 262.0796 691.5235 263.4209 690.1823 265.4328 689.1763 266.6623 689.0646 266.6623 688.3939 267.1094 688.2822 267.2211 687.9469 267.8917 687.7233 268.1153 685.5997 269.9036 684.929 270.9096 684.3702 271.692 684.0349 273.0332 683.6996 273.3685 683.6996 273.4803 683.1407 273.9274 682.5818 274.3745 682.5818 274.4862 682.023 275.2686 681.6877 275.9393 681.2406 277.1688 681.1288 278.1747 681.1288 278.3982 681.0171 278.51 680.57 278.7336Z" />
  <path class="Bay" d="M158.7103 625.2242L180.1704 632.6011 192.8006 629.5833 200.1774 621.424 205.3189 611.8117 208.3367 609.5762 208.7838 609.3527 214.9312 606.6702 220.0727 606.6702 237.1737 611.8117 245.2212 629.5833 246.786 632.6011 246.786 636.8484 246.786 637.0719 246.786 637.2955 246.786 637.519 246.786 637.7426 246.786 637.9661 246.786 638.1897 246.786 638.4132 246.786 638.6367 246.786 638.8603 246.786 639.0838 246.786 639.3074 246.786 639.5309 246.786 639.7545 246.786 639.978 246.786 640.2015 246.786 640.4251 246.786 640.6486 246.786 640.8722 246.786 641.0957 246.786 641.3193 246.786 641.5428 246.786 645.9019 244.5506 649.5903 248.4626 652.0493 254.1629 655.5142 258.6338 655.2906 268.9167 654.8436 272.6052 656.2966 273.3876 660.991 273.3876 661.2145 273.3876 661.4381 273.3876 661.5498 273.3876 661.6616 273.4993 661.8851 273.4993 661.9969 273.4993 662.2205 273.4993 662.3322 274.8406 671.0504 273.8347 675.7448 273.8347 675.9683 273.8347 676.0801 273.7229 676.3036 273.7229 676.5272 273.7229 676.7507 273.6111 676.9743 273.6111 677.086 273.6111 677.3096 273.4993 677.5331 273.4993 677.7567 273.3876 677.9802 273.3876 678.2037 273.3876 678.3155 273.2758 678.5391 273.2758 678.7626 273.164 678.9861 273.164 679.2097 273.164 679.4332 273.0523 679.6568 273.0523 679.7685 273.0523 679.9921 272.9405 680.2156 272.9405 680.3274 272.9405 680.5509 272.8287 680.7745 272.8287 680.998 272.7169 681.2216 272.7169 681.4451 272.6052 681.6686 272.6052 681.7804 272.6052 681.8922 272.6052 682.1157 272.4934 682.3393 272.4934 682.451 272.3816 682.6746 272.3816 682.8981 272.3816 683.0099 272.3816 683.2334 272.2699 683.457 272.2699 683.6805 272.1581 683.7923 272.1581 684.0158 272.1581 684.2394 271.1521 688.822 272.6052 693.2928 271.9345 698.099 271.9345 698.3226 271.8228 698.5461 270.3697 708.2702 269.6991 713.2999 270.258 717.8825 270.258 718.1061 270.258 718.3296 270.258 718.5531 270.258 718.7767 270.3697 719.0002 270.3697 719.2238 270.3697 719.4473 270.3697 719.6708 270.4815 719.8944 270.4815 720.1179 270.4815 720.3415 270.4815 720.565 270.5933 720.7886 270.5933 721.0121 270.5933 721.2356 270.5933 721.4592 270.5933 721.6827 270.7051 721.9063 270.7051 722.1298 270.7051 722.3534 270.7051 722.5769 270.8168 722.8004 270.8168 723.024 270.8168 723.2475 270.8168 723.4711 270.8168 723.6946 270.9286 723.9182 270.9286 724.1417 270.9286 724.3652 270.9286 724.5888 271.0404 724.8123 271.0404 724.9241 271.0404 725.1476 271.0404 725.3712 271.1521 725.5947 271.1521 725.8183 271.1521 726.0418 271.1521 726.2653 271.1521 726.4889 271.2639 726.7124 271.2639 726.936 271.2639 727.2713 271.3757 727.6066 271.3757 727.8301 271.8228 731.5186 271.9345 732.5245 257.6278 738.8955 216.496 757.0024 214.9312 757.673 193.1359 766.503 192.8006 766.6147 173.5759 776.2271 172.7935 776.5624 148.4274 788.7454 146.3037 787.2924 142.5035 784.3864 139.0386 781.145 138.9268 780.9215 138.8151 780.8097 138.5915 780.6979 138.4798 780.5861 138.2562 780.3626 138.1444 780.2508 138.0327 780.1391 137.9209 780.0273 137.6974 779.8037 137.5856 779.692 137.4738 779.5802 137.2503 779.4684 137.1385 779.2449 137.0267 779.1331 136.8032 779.0213 136.8032 778.9096 136.6914 778.7978 136.4679 778.686 136.3561 778.4625 136.2443 778.4625 136.0208 778.2389 135.909 778.1272 135.6855 777.9036 135.5737 777.9036 135.4619 777.6801 135.3502 777.5683 135.1266 777.3448 135.0149 777.3448 134.9031 777.1212 134.6795 777.0095 134.5678 776.7859 134.456 776.7859 134.2325 776.5624 134.1207 776.4506 134.0089 776.2271 133.8971 776.2271 133.6736 776.0035 133.5618 775.8917 133.3383 775.6682 133.2265 775.6682 133.1147 775.4447 132.8912 775.3329 132.7794 775.1094 132.6677 775.1094 132.5559 774.8858 132.3323 774.774 132.2206 774.5505 132.1088 774.5505 131.8853 774.327 131.7735 774.2152 131.5499 773.9916 131.4382 773.9916 131.3264 773.7681 131.2146 773.6563 130.9911 773.4328 130.8793 773.4328 130.7675 773.2092 130.544 773.0975 130.4322 772.8739 130.3205 772.8739 130.0969 772.6504 129.9851 772.5386 129.8734 772.3151 129.7616 772.3151 129.5381 772.0915 129.4263 771.9798 129.2028 771.7562 129.091 771.7562 128.9792 771.5327 128.7557 771.4209 128.6439 771.1974 128.5321 771.1974 128.4204 770.9738 128.3086 770.862 128.1968 770.7503 127.9733 770.6385 127.8615 770.5267 127.7497 770.415 127.5262 770.1914 127.4144 770.0796 127.1909 769.9679 127.1909 769.8561 126.9673 769.6326 126.8556 769.5208 126.632 769.409 126.5202 769.2972 126.4085 769.0737 126.1849 768.9619 126.0732 768.8502 125.9614 768.7384 125.8496 768.5149 125.6261 768.4031 125.5143 768.2913 125.4025 768.1795 125.179 767.956 125.0672 767.8442 124.8437 767.7325 124.7319 767.6207 124.6201 767.3971 124.5084 767.2854 124.2848 767.1736 124.173 767.0618 124.0613 766.8383 123.8377 766.7265 123.726 766.6147 123.6142 766.503 123.3906 766.2794 123.2789 766.1677 123.1671 766.0559 123.0553 765.9441 122.8318 765.7206 122.72 765.6088 122.4965 765.497 122.3847 765.3853 122.2729 765.1617 122.0494 765.0499 121.9376 764.9382 121.8259 764.8264 121.7141 764.6029 121.4905 764.4911 121.3788 764.3793 121.267 764.2675 121.0435 764.044 120.9317 763.9322 120.7081 763.8205 120.5964 763.7087 120.4846 763.4851 120.3728 763.3734 120.1493 763.1498 120.0375 763.1498 119.9257 762.9263 119.7022 762.8145 119.5904 762.591 119.4787 762.591 119.2551 762.3674 119.1433 762.2557 119.0316 762.1439 118.9198 762.0321 118.808 761.9204 118.6963 761.8086 118.4727 761.585 118.3609 761.4733 118.1374 761.3615 118.0256 761.2497 117.9139 761.0262 117.8021 760.9144 114.3372 757.673 110.3134 755.3259 110.2017 755.2141 109.9781 755.2141 109.8663 755.1023 109.7546 754.9905 109.531 754.8788 105.5073 752.5316 113.6666 706.5936 114.0019 704.47 115.7902 694.0752 116.0138 693.4046 120.2611 669.5974 125.9614 670.1562 144.6272 671.8328 157.2573 670.3798 157.2573 668.9267 157.2573 657.7496 157.3691 655.8495 158.7103 625.2242Z" />
  <path class="Galgaduud" d="M507.3246 576.1567L506.7658 576.7155 506.2069 577.4979 504.6421 579.7333 502.742 581.9688 501.1772 584.0924 500.3948 584.763 500.3948 584.8748 498.4947 586.4396 496.7064 588.3397 495.7004 589.9045 495.5887 590.0163 494.471 590.9105 494.3592 591.0222 494.3592 591.134 494.0239 591.4693 491.7884 593.7047 488.3235 597.8403 487.7647 598.5109 485.1939 601.3052 481.6173 605.4407 477.37 610.4704 475.2463 612.2587 473.5697 613.7118 468.4283 618.6297 467.5341 619.4121 466.8635 619.971 464.9634 621.9828 463.9574 623.2123 461.722 625.2242 461.6102 625.336 460.8278 626.1184 460.1572 627.1243 459.1513 628.3538 458.0336 629.5833 455.9099 632.3776 455.7981 632.3776 453.3392 634.9483 450.992 637.6308 449.3154 639.0838 448.4212 639.978 448.4212 639.8662 400.5832 608.9056 401.3656 583.6453 401.0303 583.4218 382.8116 568.7798 379.9055 545.8667 387.2824 531.0011 388.6237 521.1652 388.7354 520.6064 374.6523 524.2948 350.2861 518.371 347.4919 512.6706 347.3801 512.4471 337.3207 490.5399 410.419 415.0944 411.7603 413.8649 490.1119 431.413 471.6696 470.7564 480.4996 484.169 490.559 511.7765 490.7825 512.4471 482.735 564.0854 482.735 564.4207 488.6589 567.215 507.3246 576.1567Z" />
  <path class="Gedo" d="M141.274 577.945L141.7211 579.1745 156.5867 604.6583 157.2573 605.8878 160.1634 611.8117 158.7103 625.2242 157.3691 655.8495 157.2573 657.7496 157.2573 668.9267 157.2573 670.3798 144.6272 671.8328 125.9614 670.1562 120.2611 669.5974 116.0138 693.4046 115.7902 694.0752 114.0019 704.47 113.6666 706.5936 105.5073 752.5316 49.2864 753.314 32.9678 803.611 1.5601 805.7347 1.5601 896.2693 1.5601 911.4702 1.5601 958.4141 1.3365 958.1905 1.3365 921.3061 1.3365 896.7164 1.3365 874.4739 1.3365 862.6262 1.2248 845.637 1.2248 844.2957 1.0012 821.4944 1.2248 821.2708 1.2248 800.3696 1.2248 799.699 1.2248 786.6218 1.3365 772.6504 1.3365 771.4209 1.2248 753.0904 1.2248 752.8669 1.2248 748.9549 1.3365 735.9894 1.2248 735.7659 1.3365 734.8717 1.3365 733.754 1.3365 732.4128 1.3365 730.9597 1.3365 729.7303 1.3365 728.5008 1.3365 727.2713 1.3365 726.1536 1.3365 724.8123 1.3365 723.5828 1.3365 722.3534 1.3365 721.0121 1.3365 719.7826 1.3365 718.5531 1.3365 715.3118 1.4483 712.0704 1.3365 708.829 1.3365 706.9289 1.3365 705.6994 1.3365 702.5699 1.3365 700.1109 1.3365 699.552 1.3365 696.3107 1.4483 693.8517 1.4483 693.2928 1.4483 690.1633 1.3365 689.9397 1.4483 687.8161 2.1189 687.1454 5.1367 684.1276 8.2663 681.1098 11.2842 678.2037 14.302 675.1859 15.0844 674.5153 15.4197 674.18 16.6492 673.0623 18.3257 671.2739 20.1141 669.5974 22.0142 667.5855 22.6848 666.9149 24.0261 665.6854 26.038 663.6735 26.5968 663.0029 27.2674 661.9969 27.3792 661.8851 28.7205 659.985 30.0617 658.0849 31.1794 656.5201 31.403 656.1848 32.7442 654.2847 34.0855 652.3846 35.4267 650.4845 36.6562 648.6961 37.6622 647.1314 37.8857 646.9078 39.0034 645.2312 40.2329 643.4429 41.3506 641.9899 42.5801 640.2015 43.6978 638.6367 44.9273 636.8484 45.9332 635.2836 47.2745 633.4953 48.3922 631.9305 49.3981 630.3657 50.2923 629.1362 50.7394 628.4656 52.0806 626.5655 53.1983 625.0007 54.5396 623.2123 55.322 621.8711 55.6573 621.424 56.6633 619.971 57.4457 618.965 60.1282 615.053 60.687 614.2706 61.2459 613.6 64.9343 608.1232 65.4932 607.3408 65.9403 606.782 68.8463 602.6464 68.8463 602.5347 68.9581 602.4229 69.4052 601.6405 69.4052 601.5287 69.6287 601.4169 70.0758 601.3052 70.4111 600.6345 70.7464 600.2992 71.6406 599.6286 72.0877 598.7344 71.8641 597.952 71.8641 597.505 71.8641 597.3932 71.8641 596.7226 71.9759 596.6108 73.4289 594.9342 73.5407 594.9342 73.7642 594.9342 73.876 594.8224 74.3231 593.8165 75.8879 593.9283 76.4468 593.2576 77.2292 592.4752 78.4586 591.0222 79.0175 590.3516 79.4646 589.7927 79.5763 589.5692 80.1352 589.1221 80.3587 588.8986 80.5823 588.675 80.9176 588.3397 81.8118 587.7809 82.0353 587.6691 82.2589 587.5573 82.3706 587.5573 83.0413 587.4455 84.4943 587.4455 86.0591 587.5573 90.1946 587.5573 95.3361 587.3338 95.5596 587.222 100.0305 586.9985 103.2718 586.7749 106.8485 586.3278 108.7486 585.9925 109.6428 585.9925 110.4252 585.8807 110.984 585.769 111.7664 585.769 112.3253 585.769 114.0019 585.769 114.7843 585.769 116.0138 585.6572 116.7961 585.5454 117.2432 585.4337 117.6903 585.2101 118.2492 585.0983 118.4727 585.0983 119.1433 584.8748 119.3669 584.8748 120.1493 584.4277 123.0553 583.31 125.5143 582.1923 126.4085 581.9688 127.1909 581.7452 127.7497 581.5217 128.3086 581.4099 129.091 581.2981 129.7616 581.2981 130.4322 581.2981 131.3264 581.1864 136.2443 581.1864 136.8032 580.9628 137.4738 580.7393 138.5915 580.0686 139.5975 579.398 140.7152 578.5039 141.274 577.945Z" />
  <path class="Hiraan" d="M267.6872 532.2306L280.4292 533.013 280.6527 532.5659 280.5409 533.013 294.0652 533.9072 295.1829 532.6777 296.0771 532.7894 296.4124 532.7894 304.7953 524.0713 337.3207 490.5399 347.3801 512.4471 347.4919 512.6706 350.2861 518.371 374.6523 524.2948 388.7354 520.6064 388.6237 521.1652 387.2824 531.0011 379.9055 545.8667 382.8116 568.7798 401.0303 583.4218 401.3656 583.6453 400.5832 608.9056 388.2883 615.7237 378.4525 632.6011 376.2171 635.5072 373.9816 637.9661 372.6404 640.4251 372.5286 640.6486 372.4168 640.8722 372.4168 640.9839 372.3051 641.2075 372.1933 641.5428 372.1933 641.6546 372.0815 641.9899 371.9697 642.3252 371.858 642.6605 371.7462 642.7723 371.7462 642.884 371.6344 643.3311 371.5227 643.4429 371.4109 643.7782 371.4109 644.0018 371.2991 644.2253 371.1873 644.6724 371.0756 644.7842 371.0756 645.0077 370.9638 645.343 370.852 645.4548 370.852 645.7901 370.7403 645.9019 370.6285 646.1254 370.6285 646.349 368.7284 651.8257 368.7284 652.1611 367.2754 656.2966 319.6608 659.8733 317.7607 659.985 308.819 659.2026 303.0069 656.2966 288.812 655.2906 281.5469 654.8436 280.988 632.6011 280.7645 622.9888 282.9999 611.141 279.3114 595.4931 279.1997 595.046 274.0582 570.3446 273.8347 568.7798 268.3579 536.1426 267.6872 532.2306Z" />
  <path class="Lower Juba" d="M70.4111 982.892L70.0758 982.892 69.8523 982.7802 69.6287 982.5567 69.6287 982.4449 69.7405 982.3331 70.97 981.3272 71.4171 980.6565 71.5288 980.5448 71.7524 980.5448 71.8641 980.7683 71.8641 980.8801 71.4171 981.5507 70.7464 982.2213 70.4111 982.892ZM74.5466 976.8563L73.876 977.1916 73.6525 976.9681 73.7642 976.8563 74.5466 976.0739 74.882 975.8504 75.1055 975.9622 75.329 976.2975 75.329 976.4092 75.329 976.521 75.1055 976.7446 74.5466 976.8563ZM78.2351 972.3855L77.5645 972.4972 77.4527 972.2737 77.4527 972.0502 77.0056 971.9384 77.0056 971.7149 77.0056 971.6031 77.2292 971.4913 77.8998 971.2678 78.2351 971.0442 78.2351 970.9325 78.3469 970.1501 78.9057 969.8147 79.3528 969.703 79.4646 969.4794 79.7999 969.4794 79.4646 969.9265 79.3528 970.4854 79.241 970.5971 79.0175 970.8207 78.9057 970.8207 78.9057 971.156 78.9057 971.2678 78.6822 971.4913 78.2351 971.6031 78.1233 971.7149 78.4586 972.0502 78.2351 972.3855ZM83.7119 966.1263L83.153 967.0205 82.9295 966.9087 83.0413 966.7969 83.0413 966.6851 83.0413 966.4616 83.0413 966.3498 83.2648 966.1263 83.3766 966.0145 83.4883 965.5674 83.7119 965.5674 83.8237 965.791 83.7119 966.1263ZM84.3825 964.4497L84.2707 964.6733 84.0472 964.4497 84.0472 964.2262 84.0472 964.0026 84.159 963.8909 84.4943 963.7791 84.6061 964.0026 84.3825 964.4497ZM89.6358 958.4141L89.1887 959.1965 88.8534 959.5318 87.9592 960.0906 87.6239 960.5377 87.2886 960.9848 86.7297 961.0966 86.5062 961.4319 86.5062 961.5437 86.2826 962.4378 86.2826 962.5496 85.9473 962.6614 85.612 962.2143 85.7238 961.879 85.7238 961.7672 85.9473 961.4319 86.1708 961.2084 86.5062 960.7613 87.5121 960.0906 87.7356 959.7553 87.8474 959.6436 88.071 958.8612 88.7416 958.9729 89.0769 958.1905 89.3004 957.967 89.9711 957.7435 90.5299 957.0728 92.0947 955.6198 92.3183 955.7316 92.0947 956.0669 91.2006 957.0728 90.4182 957.8552 89.6358 958.4141ZM93.436 954.7256L92.7653 955.2845 92.5418 955.2845 92.43 955.1727 92.5418 955.0609 92.9889 954.3903 93.2124 954.2785 93.436 954.2785 93.5477 954.3903 93.436 954.7256ZM94.6655 952.3784L94.3301 952.4902 94.2184 952.2667 94.3301 951.9314 94.7772 951.7078 95.0008 952.0431 94.889 952.2667 94.6655 952.3784ZM95.6714 951.596L95.2243 952.0431 95.3361 951.596 95.4479 951.4843 96.0067 950.5901 96.4538 950.2548 97.0127 950.0312 97.4597 949.3606 97.6833 949.2488 97.9068 949.3606 97.9068 949.4724 97.5715 949.8077 96.7891 950.4783 96.2303 951.149 95.6714 951.596ZM100.7011 944.8898L100.5893 945.4486 100.4776 945.5604 99.5834 945.6722 99.3598 945.3369 99.3598 945.0015 99.4716 945.0015 99.4716 944.8898 99.8069 944.8898 99.9187 944.778 99.9187 944.6662 99.4716 944.3309 99.5834 944.2191 100.5893 943.9956 101.26 942.9897 101.4835 942.9897 101.5953 943.325 101.4835 943.6603 101.4835 943.7721 101.3717 943.8838 100.7011 944.778 100.7011 944.8898ZM117.2432 925.218L116.0138 926.1122 115.902 925.8887 116.0138 925.7769 116.0138 925.6651 116.4608 925.4416 116.7961 924.771 116.9079 924.5474 117.4668 924.4356 117.4668 924.771 117.4668 924.8827 117.2432 925.218ZM1.5601 958.4141L1.5601 911.4702 1.5601 896.2693 1.5601 805.7347 32.9678 803.611 86.0591 800.1461 90.6417 799.9226 99.5834 799.4755 107.7427 799.1402 121.7141 841.2779 122.4965 843.5133 129.5381 872.5738 129.8734 873.8033 163.8518 872.5738 163.9636 872.5738 161.7282 875.2563 160.834 876.1505 158.8221 878.2741 156.922 880.6213 156.3631 880.9567 155.8043 881.6273 154.5748 883.0803 152.6747 885.4275 149.3216 889.0042 148.3156 890.0101 147.645 890.569 142.0564 896.9399 141.274 897.8341 138.8151 900.4048 138.2562 900.7402 137.2503 901.7461 135.3502 903.758 133.5618 905.3228 132.4441 906.8876 130.7675 908.3406 129.4263 909.5701 128.7557 910.1289 123.9495 914.8233 122.4965 915.8293 121.9376 916.1646 120.7081 917.3941 120.1493 918.2882 118.6963 920.0766 118.0256 921.3061 118.0256 921.5296 117.6903 922.7591 117.6903 922.8708 117.1315 922.9826 117.0197 923.0944 116.9079 923.0944 117.0197 923.3179 117.355 923.3179 117.5785 923.5415 117.5785 923.6532 117.355 923.8768 117.0197 923.8768 116.6844 924.1003 116.2373 923.9886 115.6784 923.9886 114.7843 924.3239 114.1136 924.8827 112.4371 927.5652 111.6547 928.2359 111.2076 928.6829 110.984 929.0183 110.984 929.13 110.984 929.4653 111.2076 929.6889 111.6547 929.8007 111.8782 930.2477 111.7664 930.4713 111.7664 930.5831 111.3194 930.9184 111.3194 931.0301 111.2076 931.4772 111.2076 931.589 110.8723 931.589 110.7605 931.2537 110.8723 930.5831 110.7605 930.2477 110.537 930.2477 110.3134 930.5831 109.6428 930.8066 109.531 931.0301 109.531 931.1419 108.7486 932.2596 108.4133 932.4832 106.9603 933.4891 106.4014 934.048 105.8426 935.1657 105.5073 935.3892 104.7249 936.6187 102.9365 938.0717 102.3777 938.7424 102.1541 939.1894 101.9306 939.6365 101.1482 940.3072 100.8129 940.866 99.8069 941.9837 99.3598 942.6543 99.3598 942.7661 99.1363 943.4367 99.1363 943.5485 97.795 944.6662 97.1244 946.0075 96.5656 946.4546 95.1125 948.0194 94.7772 948.4664 94.6655 948.5782 94.6655 948.9135 94.6655 949.5842 94.5537 949.8077 93.7713 949.8077 93.436 950.0312 93.2124 950.7019 93.2124 950.8136 92.5418 951.2607 92.3183 951.9314 92.2065 952.0431 91.6476 952.8255 91.2006 953.1608 90.5299 953.7197 89.7475 954.7256 89.1887 955.508 88.071 956.7375 86.7297 957.7435 86.6179 957.8552 86.1708 957.4081 85.9473 957.4081 85.5002 957.8552 84.3825 958.5259 84.159 958.6376 83.7119 958.6376 82.8177 958.5259 81.7 958.5259 80.8058 958.7494 80.1352 959.3083 79.9117 959.3083 79.4646 958.5259 79.3528 958.0788 79.9117 956.2904 79.9117 956.1787 80.4705 955.0609 80.6941 954.7256 80.9176 953.9432 80.9176 953.8315 81.9235 952.2667 81.9235 951.7078 81.5882 951.7078 81.3647 952.0431 81.1411 952.7138 81.1411 952.8255 80.247 953.8315 79.4646 955.508 79.241 955.7316 78.6822 955.7316 78.4586 955.7316 78.0116 956.0669 77.5645 956.0669 77.1174 955.8433 76.1114 955.8433 75.7761 955.7316 75.329 955.1727 75.2173 954.6139 75.9997 951.4843 75.7761 950.5901 75.4408 950.3666 75.329 950.4783 75.2173 950.5901 75.2173 950.7019 74.9937 951.149 74.4349 954.055 74.4349 955.0609 74.5466 955.6198 74.882 956.2904 75.329 956.7375 75.8879 956.9611 76.4468 956.9611 77.5645 956.4022 78.6822 956.2904 79.0175 956.4022 79.1293 956.8493 78.7939 958.0788 78.9057 958.6376 79.0175 958.8612 79.241 959.1965 79.9117 959.7553 80.4705 959.6436 81.1411 959.3083 81.8118 959.0847 82.1471 959.3083 82.3706 959.5318 82.4824 959.9789 81.7 961.879 81.5882 961.9908 81.3647 962.4378 81.2529 962.5496 81.1411 963.332 81.1411 963.5556 80.4705 963.6673 80.247 963.7791 79.5763 964.338 79.0175 965.4557 78.5704 965.791 78.1233 967.6911 77.788 968.4735 77.6762 968.5853 77.0056 969.2559 76.335 969.5912 75.2173 970.5971 74.7702 971.0442 74.5466 971.2678 74.3231 971.3795 73.9878 971.2678 73.876 970.9325 73.7642 970.5971 74.3231 969.3677 74.3231 969.1441 74.0996 968.5853 73.5407 967.8029 73.3172 967.1322 73.9878 964.6733 73.7642 963.8909 73.5407 963.5556 73.4289 963.4438 71.9759 961.9908 71.1935 961.6554 70.4111 961.6554 69.964 961.4319 69.4052 961.5437 69.2934 961.7672 69.5169 962.1025 69.964 962.2143 70.4111 962.2143 70.97 961.9908 71.3053 961.9908 71.7524 962.3261 72.1994 963.332 72.9818 963.8909 73.2054 964.4497 73.3172 964.6733 72.9818 966.1263 72.8701 968.0264 72.8701 968.1382 72.9818 968.5853 72.9818 968.8088 73.3172 969.4794 73.4289 970.0383 73.2054 971.0442 73.5407 971.7149 74.2113 972.0502 74.4349 972.3855 74.2113 972.8326 74.2113 972.9443 73.0936 974.5091 72.8701 974.9562 72.8701 975.9622 72.8701 976.0739 72.7583 976.2975 72.1994 977.3034 71.5288 977.8623 70.5229 980.2095 70.4111 980.3212 70.1876 980.5448 69.6287 980.8801 68.7345 981.886 68.6228 981.886 68.3992 983.0037 68.2875 983.1155 67.9521 983.7861 67.8404 983.8979 67.1697 984.4568 66.9462 985.0156 66.9462 985.3509 67.1697 985.6862 67.3933 985.798 68.6228 984.4568 68.8463 984.345 69.0699 984.345 69.1816 984.6803 69.0699 985.0156 69.0699 985.1274 68.3992 985.6862 67.9521 986.2451 67.5051 986.5804 66.6109 987.1393 66.6109 986.804 66.6109 986.6922 66.7227 986.5804 66.6109 986.4686 66.4991 986.2451 65.9403 986.5804 65.7167 986.4686 65.3814 986.3569 64.8226 985.9098 64.4872 985.2392 64.3755 984.7921 64.4872 984.1215 64.1519 983.5626 63.3695 983.1155 62.5871 983.0037 62.0283 982.7802 61.4694 982.1096 61.0223 981.3272 60.7988 981.6625 58.5634 981.4389 58.4516 981.5507 57.2221 982.5567 56.4397 983.0037 55.2102 983.8979 53.869 985.5745 53.4219 986.1333 53.4219 986.2451 53.0866 986.9157 52.7513 988.4805 53.5337 987.6981 53.5337 987.5864 53.6454 986.804 53.7572 986.6922 53.9807 986.3569 54.4278 985.4627 54.5396 985.3509 56.6633 983.4508 57.4457 982.892 59.0105 981.9978 59.5693 981.886 60.9106 982.2213 61.4694 982.892 62.2518 983.2273 63.3695 983.5626 63.4813 983.7861 63.4813 984.1215 63.3695 984.5685 63.9284 986.0216 64.2637 987.9217 64.0402 988.5923 63.5931 989.5982 62.6989 991.163 61.1341 993.9573 59.234 997.0869 57.5574 998.8752 57.4457 998.987 57.3339 998.987 57.2221 999.6576 57.1103 999.7694 56.1044 1001.2224 55.0985 1003.1226 53.9807 1004.7991 53.4219 1005.9168 52.863 1006.9228 50.7394 1010.3877 48.6157 1013.629 47.7216 1014.1879 47.498 1014.4114 47.3862 1014.4114 46.9392 1015.3056 46.1568 1016.3116 46.1568 1016.4233 45.7097 1017.3175 45.8215 1017.4293 46.1568 1017.4293 46.2685 1017.8763 46.1568 1018.3234 46.045 1018.4352 45.7097 1018.7705 45.4861 1018.7705 45.2626 1018.0999 44.9273 1018.0999 44.4802 1018.6587 43.9213 1019.6647 43.8096 1019.8882 43.586 1020 43.586 1019.8882 43.586 1015.3056 43.4743 1015.1938 30.397 997.4222 14.0784 975.4033 1.5601 958.5259 1.5601 958.4141Z" />
  <path class="Lower Shabelle" d="M272.6052 656.2966L281.5469 654.8436 288.812 655.2906 303.0069 656.2966 304.6835 663.3382 304.6835 663.5617 304.6835 663.7853 304.7953 664.0088 304.7953 664.2323 304.907 664.3441 305.6894 667.6972 306.6954 671.8328 309.0426 675.2977 309.1543 675.5212 309.2661 675.633 309.3779 675.8565 309.4897 676.0801 309.6014 676.1919 309.825 676.4154 309.9367 676.5272 310.0485 676.7507 310.1603 676.9743 310.2721 677.086 310.3838 677.3096 310.4956 677.4213 310.6074 677.6449 310.7191 677.7567 310.8309 677.9802 310.9427 678.092 311.0545 678.3155 311.278 678.5391 311.3898 678.6508 311.5015 678.8744 311.6133 679.0979 311.7251 679.2097 311.8369 679.4332 311.9486 679.6568 312.0604 679.7685 312.2839 679.9921 312.3957 680.1039 312.5075 680.3274 312.6193 680.5509 312.731 680.6627 320.4432 691.8398 322.3433 694.7459 322.2316 694.7459 322.9022 695.5283 322.7904 699.8873 322.7904 700.1109 322.7904 700.3344 322.7904 700.558 322.7904 700.7815 322.2316 731.7421 322.2316 735.5424 326.5906 737.7778 325.3612 739.3426 325.2494 739.5661 325.1376 739.6779 324.9141 739.9014 324.8023 740.0132 324.6905 740.2367 324.5788 740.4603 324.467 740.5721 324.3552 740.7956 324.1317 740.9074 324.0199 741.1309 323.9081 741.2427 323.7964 741.4662 323.6846 741.578 323.4611 741.8015 323.3493 742.0251 323.2375 742.1369 323.1257 742.3604 323.014 742.4722 322.9022 742.6957 322.6787 742.8075 322.5669 743.031 322.4551 743.1428 322.3433 743.3663 322.2316 743.4781 322.1198 743.7017 321.8963 743.8134 321.7845 744.037 321.6727 744.1487 321.5609 744.3723 321.4492 744.484 321.3374 744.7076 321.2256 744.8194 321.0021 745.0429 320.8903 745.1547 320.7785 745.3782 320.6668 745.49 320.555 745.7135 320.4432 745.8253 320.2197 746.0488 320.1079 746.2724 319.9961 746.3842 319.8844 746.6077 319.7726 746.7195 316.9783 750.2961 316.8666 750.4079 316.7548 750.5197 316.1959 750.855 315.19 751.3021 314.5194 751.8609 313.2899 751.9727 313.1781 752.308 313.0663 752.4198 312.731 752.5316 312.3957 752.4198 311.9486 752.5316 311.1662 752.9787 309.4897 754.0964 308.0366 754.4317 307.4778 754.6552 307.366 754.767 306.5836 755.3259 306.1365 755.5494 305.3541 755.6612 304.5717 756.1083 304.1246 756.5553 303.2305 756.6671 302.4481 757.1142 301.8892 757.673 299.9891 758.7908 299.7656 758.9025 297.7537 760.3556 295.7418 761.6968 294.7359 762.0321 292.6122 763.3734 292.0534 763.5969 291.6063 763.8205 288.812 765.7206 284.1176 768.4031 283.8941 768.5149 280.0938 770.862 279.7585 771.3091 279.535 771.9798 279.4232 771.9798 279.1997 772.2033 278.6408 772.3151 277.7466 773.0975 276.7407 773.5446 276.6289 773.5446 274.8406 774.9976 274.0582 775.4447 273.2758 775.5564 272.4934 776.1153 271.1521 777.233 269.6991 778.686 269.3638 778.9096 269.252 778.7978 268.6932 778.686 268.4696 778.7978 266.7931 780.5861 265.7871 781.145 264.5576 782.3745 263.7752 782.8216 262.5458 783.9393 261.9869 784.2746 261.6516 784.3864 260.981 784.9452 260.1986 785.5041 258.7455 787.1806 254.7218 789.9749 253.6041 790.7573 251.1451 792.6574 250.1392 793.5516 247.9037 795.2282 247.3449 795.787 246.1154 797.0165 244.6624 797.9107 242.3152 800.0343 240.5268 801.7109 240.4151 801.8227 240.0798 802.2697 240.0798 802.3815 239.8562 802.9404 239.8562 803.0521 236.1678 805.6229 234.3794 807.4112 233.8206 807.9701 233.7088 808.1936 233.597 808.6407 233.7088 809.4231 233.597 809.6466 233.597 809.7584 232.7029 809.7584 231.9205 810.2055 227.5614 813.5586 227.3378 813.7822 226.4437 814.6763 225.326 816.6882 225.1024 816.8 224.6553 816.6882 224.0965 817.0235 222.1964 818.4766 220.8551 819.3707 220.5198 819.5943 219.1785 820.8238 219.0668 820.9355 219.0668 821.2708 219.4021 821.7179 219.5139 821.7179 219.1785 822.0532 218.1726 821.9415 217.6138 822.2768 216.2725 823.3945 214.2606 824.8475 212.3605 825.8535 211.3546 826.9712 210.7957 827.3065 209.7898 828.3124 208.7838 828.8713 207.6661 829.6537 206.8837 830.4361 205.9895 831.3303 205.4307 832.448 204.9836 832.895 202.6364 834.6834 200.8481 835.8011 199.9539 836.4717 198.2773 837.813 195.8184 840.0484 193.2476 842.6191 193.1359 842.8427 191.124 844.5193 190.3416 845.3017 189.1121 846.1958 188.3297 846.9782 188.3297 846.8664 175.6996 828.7595 174.9172 827.53 169.7757 820.6002 169.1051 819.4825 148.4274 788.7454 172.7935 776.5624 173.5759 776.2271 192.8006 766.6147 193.1359 766.503 214.9312 757.673 216.496 757.0024 257.6278 738.8955 271.9345 732.5245 271.8228 731.5186 271.3757 727.8301 271.3757 727.6066 271.2639 727.2713 271.2639 726.936 271.2639 726.7124 271.1521 726.4889 271.1521 726.2653 271.1521 726.0418 271.1521 725.8183 271.1521 725.5947 271.0404 725.3712 271.0404 725.1476 271.0404 724.9241 271.0404 724.8123 270.9286 724.5888 270.9286 724.3652 270.9286 724.1417 270.9286 723.9182 270.8168 723.6946 270.8168 723.4711 270.8168 723.2475 270.8168 723.024 270.8168 722.8004 270.7051 722.5769 270.7051 722.3534 270.7051 722.1298 270.7051 721.9063 270.5933 721.6827 270.5933 721.4592 270.5933 721.2356 270.5933 721.0121 270.5933 720.7886 270.4815 720.565 270.4815 720.3415 270.4815 720.1179 270.4815 719.8944 270.3697 719.6708 270.3697 719.4473 270.3697 719.2238 270.3697 719.0002 270.258 718.7767 270.258 718.5531 270.258 718.3296 270.258 718.1061 270.258 717.8825 269.6991 713.2999 270.3697 708.2702 271.8228 698.5461 271.9345 698.3226 271.9345 698.099 272.6052 693.2928 271.1521 688.822 272.1581 684.2394 272.1581 684.0158 272.1581 683.7923 272.2699 683.6805 272.2699 683.457 272.3816 683.2334 272.3816 683.0099 272.3816 682.8981 272.3816 682.6746 272.4934 682.451 272.4934 682.3393 272.6052 682.1157 272.6052 681.8922 272.6052 681.7804 272.6052 681.6686 272.7169 681.4451 272.7169 681.2216 272.8287 680.998 272.8287 680.7745 272.9405 680.5509 272.9405 680.3274 272.9405 680.2156 273.0523 679.9921 273.0523 679.7685 273.0523 679.6568 273.164 679.4332 273.164 679.2097 273.164 678.9861 273.2758 678.7626 273.2758 678.5391 273.3876 678.3155 273.3876 678.2037 273.3876 677.9802 273.4993 677.7567 273.4993 677.5331 273.6111 677.3096 273.6111 677.086 273.6111 676.9743 273.7229 676.7507 273.7229 676.5272 273.7229 676.3036 273.8347 676.0801 273.8347 675.9683 273.8347 675.7448 274.8406 671.0504 273.4993 662.3322 273.4993 662.2205 273.4993 661.9969 273.4993 661.8851 273.3876 661.6616 273.3876 661.5498 273.3876 661.4381 273.3876 661.2145 273.3876 660.991 272.6052 656.2966Z" />
  <path class="Middle Juba" d="M105.5073 752.5316L109.531 754.8788 109.7546 754.9905 109.8663 755.1023 109.9781 755.2141 110.2017 755.2141 110.3134 755.3259 114.3372 757.673 117.8021 760.9144 117.9139 761.0262 118.0256 761.2497 118.1374 761.3615 118.3609 761.4733 118.4727 761.585 118.6963 761.8086 118.808 761.9204 118.9198 762.0321 119.0316 762.1439 119.1433 762.2557 119.2551 762.3674 119.4787 762.591 119.5904 762.591 119.7022 762.8145 119.9257 762.9263 120.0375 763.1498 120.1493 763.1498 120.3728 763.3734 120.4846 763.4851 120.5964 763.7087 120.7081 763.8205 120.9317 763.9322 121.0435 764.044 121.267 764.2675 121.3788 764.3793 121.4905 764.4911 121.7141 764.6029 121.8259 764.8264 121.9376 764.9382 122.0494 765.0499 122.2729 765.1617 122.3847 765.3853 122.4965 765.497 122.72 765.6088 122.8318 765.7206 123.0553 765.9441 123.1671 766.0559 123.2789 766.1677 123.3906 766.2794 123.6142 766.503 123.726 766.6147 123.8377 766.7265 124.0613 766.8383 124.173 767.0618 124.2848 767.1736 124.5084 767.2854 124.6201 767.3971 124.7319 767.6207 124.8437 767.7325 125.0672 767.8442 125.179 767.956 125.4025 768.1795 125.5143 768.2913 125.6261 768.4031 125.8496 768.5149 125.9614 768.7384 126.0732 768.8502 126.1849 768.9619 126.4085 769.0737 126.5202 769.2972 126.632 769.409 126.8556 769.5208 126.9673 769.6326 127.1909 769.8561 127.1909 769.9679 127.4144 770.0796 127.5262 770.1914 127.7497 770.415 127.8615 770.5267 127.9733 770.6385 128.1968 770.7503 128.3086 770.862 128.4204 770.9738 128.5321 771.1974 128.6439 771.1974 128.7557 771.4209 128.9792 771.5327 129.091 771.7562 129.2028 771.7562 129.4263 771.9798 129.5381 772.0915 129.7616 772.3151 129.8734 772.3151 129.9851 772.5386 130.0969 772.6504 130.3205 772.8739 130.4322 772.8739 130.544 773.0975 130.7675 773.2092 130.8793 773.4328 130.9911 773.4328 131.2146 773.6563 131.3264 773.7681 131.4382 773.9916 131.5499 773.9916 131.7735 774.2152 131.8853 774.327 132.1088 774.5505 132.2206 774.5505 132.3323 774.774 132.5559 774.8858 132.6677 775.1094 132.7794 775.1094 132.8912 775.3329 133.1147 775.4447 133.2265 775.6682 133.3383 775.6682 133.5618 775.8917 133.6736 776.0035 133.8971 776.2271 134.0089 776.2271 134.1207 776.4506 134.2325 776.5624 134.456 776.7859 134.5678 776.7859 134.6795 777.0095 134.9031 777.1212 135.0149 777.3448 135.1266 777.3448 135.3502 777.5683 135.4619 777.6801 135.5737 777.9036 135.6855 777.9036 135.909 778.1272 136.0208 778.2389 136.2443 778.4625 136.3561 778.4625 136.4679 778.686 136.6914 778.7978 136.8032 778.9096 136.8032 779.0213 137.0267 779.1331 137.1385 779.2449 137.2503 779.4684 137.4738 779.5802 137.5856 779.692 137.6974 779.8037 137.9209 780.0273 138.0327 780.1391 138.1444 780.2508 138.2562 780.3626 138.4798 780.5861 138.5915 780.6979 138.8151 780.8097 138.9268 780.9215 139.0386 781.145 142.5035 784.3864 146.3037 787.2924 148.4274 788.7454 169.1051 819.4825 169.7757 820.6002 174.9172 827.53 175.6996 828.7595 188.3297 846.8664 188.3297 846.9782 187.7708 847.4253 186.5414 848.7666 186.2061 848.9901 185.759 849.3254 181.847 853.4609 179.4998 855.4728 179.388 855.5846 177.5997 857.4847 173.3524 862.5144 171.4523 864.7498 168.8815 867.3206 167.5403 868.7736 167.0932 869.3325 165.1931 871.1208 163.9636 872.5738 163.8518 872.5738 129.8734 873.8033 129.5381 872.5738 122.4965 843.5133 121.7141 841.2779 107.7427 799.1402 99.5834 799.4755 90.6417 799.9226 86.0591 800.1461 32.9678 803.611 49.2864 753.314 105.5073 752.5316Z" />
  <path class="Middle Shabelle" d="M343.4681 735.207L343.3563 735.207 341.1209 735.4306 331.8439 736.213 329.6085 736.8836 326.5906 737.7778 322.2316 735.5424 322.2316 731.7421 322.7904 700.7815 322.7904 700.558 322.7904 700.3344 322.7904 700.1109 322.7904 699.8873 322.9022 695.5283 322.2316 694.7459 322.3433 694.7459 320.4432 691.8398 312.731 680.6627 312.6193 680.5509 312.5075 680.3274 312.3957 680.1039 312.2839 679.9921 312.0604 679.7685 311.9486 679.6568 311.8369 679.4332 311.7251 679.2097 311.6133 679.0979 311.5015 678.8744 311.3898 678.6508 311.278 678.5391 311.0545 678.3155 310.9427 678.092 310.8309 677.9802 310.7191 677.7567 310.6074 677.6449 310.4956 677.4213 310.3838 677.3096 310.2721 677.086 310.1603 676.9743 310.0485 676.7507 309.9367 676.5272 309.825 676.4154 309.6014 676.1919 309.4897 676.0801 309.3779 675.8565 309.2661 675.633 309.1543 675.5212 309.0426 675.2977 306.6954 671.8328 305.6894 667.6972 304.907 664.3441 304.7953 664.2323 304.7953 664.0088 304.6835 663.7853 304.6835 663.5617 304.6835 663.3382 303.0069 656.2966 308.819 659.2026 317.7607 659.985 319.6608 659.8733 367.2754 656.2966 368.7284 652.1611 368.7284 651.8257 370.6285 646.349 370.6285 646.1254 370.7403 645.9019 370.852 645.7901 370.852 645.4548 370.9638 645.343 371.0756 645.0077 371.0756 644.7842 371.1873 644.6724 371.2991 644.2253 371.4109 644.0018 371.4109 643.7782 371.5227 643.4429 371.6344 643.3311 371.7462 642.884 371.7462 642.7723 371.858 642.6605 371.9697 642.3252 372.0815 641.9899 372.1933 641.6546 372.1933 641.5428 372.3051 641.2075 372.4168 640.9839 372.4168 640.8722 372.5286 640.6486 372.6404 640.4251 373.9816 637.9661 376.2171 635.5072 378.4525 632.6011 388.2883 615.7237 400.5832 608.9056 448.4212 639.8662 448.4212 639.978 447.4153 640.8722 445.9623 642.3252 443.2798 645.343 442.8327 645.9019 439.0325 649.8139 436.5735 652.7199 436.1264 653.167 433.5557 657.1908 431.3202 659.7615 430.9849 660.2086 427.52 663.5617 427.2965 663.897 426.6259 664.3441 424.3904 666.9149 421.4844 670.1562 417.7959 673.5094 416.3429 674.7388 414.2193 676.9743 411.3132 679.0979 410.8661 679.6568 409.8602 680.5509 408.4072 681.4451 405.7246 683.3452 404.7187 684.2394 403.601 685.4689 401.5891 687.5925 399.8008 689.0455 397.23 690.7221 396.6712 691.1692 396.5594 691.5045 396.2241 691.9516 396.1123 692.734 396.1123 692.8458 395.8888 693.0693 395.3299 693.1811 394.6593 693.6282 393.9887 694.187 393.9887 694.2988 393.6534 695.9754 393.5416 696.0871 393.5416 696.3107 392.5356 697.2048 390.9708 698.2108 390.8591 698.3226 390.0767 698.9932 388.5119 699.9991 387.6177 700.7815 385.8294 702.9052 384.7117 704.47 384.4881 704.6935 384.2646 704.8053 384.2646 704.9171 384.041 705.4759 384.041 705.5877 383.2586 706.0348 382.1409 707.0407 381.2468 707.9349 381.0232 708.2702 380.5761 708.9408 380.4644 709.0526 380.3526 709.6114 379.3466 710.8409 378.3407 711.5116 377.3348 712.1822 376.4406 712.9646 373.8699 715.4235 371.858 717.659 371.5227 717.7707 370.1814 718.6649 368.6166 719.6708 366.94 721.1239 366.3812 721.3474 364.1458 722.9122 363.9222 723.024 362.6927 723.8064 359.5631 725.4829 359.4514 725.4829 359.4514 725.8183 359.3396 725.93 359.1161 726.1536 358.1101 726.2653 357.7748 726.6007 357.3277 726.936 356.9924 727.1595 356.4336 727.2713 356.0982 727.4948 353.751 729.1714 351.1803 730.6244 348.7213 732.1892 348.2743 732.301 348.1625 732.4128 347.4919 732.7481 346.5977 733.6422 345.9271 733.754 345.5917 734.0893 344.9211 734.0893 343.4681 735.207Z" />
  <path class="Mudug" d="M411.7603 413.8649L438.1383 386.481 472.452 351.0495 475.9169 347.4728 487.0941 335.9604 487.5411 336.0722 556.6157 347.2493 558.8512 345.908 595.8474 324.895 597.3004 325.0068 607.6952 325.5657 613.3955 328.36 626.1374 334.5074 630.6083 335.2898 641.6736 348.1435 640.8912 349.3729 638.2087 353.2849 636.085 355.9674 635.4144 356.9734 633.8496 359.097 632.7319 360.4383 631.8377 361.7795 629.8259 364.462 628.7081 366.0268 625.1315 371.8389 625.0197 371.8389 624.6844 372.286 623.0078 374.0744 622.896 374.1861 621.2195 377.204 620.2135 379.3276 619.6547 380.2218 618.537 382.1219 617.531 383.2396 617.1957 384.2455 616.7486 384.6926 616.6369 384.8044 616.3015 385.8103 615.8545 386.2574 614.8485 388.2693 614.625 388.6046 612.7249 391.846 612.6131 392.4048 612.5013 392.5166 612.166 392.7402 611.7189 393.4108 610.3777 395.9815 610.1541 396.3168 609.1482 397.7699 608.9246 398.3287 608.8129 400.0053 608.254 401.123 606.801 404.9232 606.3539 406.1527 605.6833 407.6057 604.9009 409.2823 604.342 410.1765 604.2303 411.2942 603.0008 413.5296 601.8831 416.1003 600.2065 421.6889 600.0947 422.3595 599.8712 423.2537 599.5359 426.2715 599.4241 428.2834 599.5359 429.0658 599.8712 430.0717 599.7594 431.3012 599.6476 431.6365 598.0828 436.4427 597.524 438.0075 597.0769 438.7899 596.4063 440.4664 595.9592 441.4724 592.6061 448.7375 592.4943 448.9611 591.0413 451.6436 589.7 453.4319 589.1411 454.7732 587.9117 456.785 587.7999 457.0086 586.4586 459.4675 585.788 460.4735 584.6703 462.3736 583.1055 464.8326 582.882 465.0561 580.8701 468.6328 577.964 472.9919 577.7405 473.3272 573.2696 480.257 572.9343 480.9276 570.3636 485.1749 568.9106 488.3045 568.3517 489.0869 567.7928 489.9811 562.7631 496.6873 561.9807 497.6933 561.869 497.8051 559.7453 500.1523 559.6336 500.264 559.2982 500.7111 559.2982 501.0464 559.2982 501.3817 559.0747 501.8288 557.2864 504.0642 551.586 510.9941 551.586 511.1058 551.3625 511.3294 548.3447 515.4649 547.3387 517.0297 547.227 517.1415 546.4446 517.8121 546.4446 517.9239 545.8857 518.818 545.7739 518.9298 542.8679 522.3947 541.4149 524.5184 540.1854 526.3067 539.9618 526.642 538.6206 528.5421 537.3911 530.554 536.0498 532.5659 534.1497 535.2484 532.3614 539.0486 532.2496 539.1604 531.8025 540.7252 530.9084 542.29 528.2259 546.7608 528.0023 547.3197 527.667 548.3256 526.7728 549.6669 525.9904 551.3435 523.8668 554.1377 523.8668 554.2495 523.0844 555.3672 522.4138 556.3732 520.9607 559.0557 520.1783 560.9558 519.0606 562.5206 518.9488 562.6323 518.5018 563.4147 517.2723 565.5384 515.1486 568.2209 512.6897 570.6799 512.5779 570.9034 510.2307 572.8035 509.2248 573.9212 507.9953 575.486 507.3246 576.1567 488.6589 567.215 482.735 564.4207 482.735 564.0854 490.7825 512.4471 490.559 511.7765 480.4996 484.169 471.6696 470.7564 490.1119 431.413 411.7603 413.8649Z" />
  <path class="Nugaal" d="M487.0941 335.9604L494.5827 328.36 505.9834 316.8475 506.0952 316.2887 518.6135 303.3232 518.5018 303.3232 518.6135 303.2114 518.7253 302.9879 518.39 302.9879 518.5018 302.9879 525.6551 292.0343 527.3317 289.5754 528.7847 287.3399 544.4327 263.4209 544.4327 263.1974 544.6562 262.7503 545.3268 261.7443 561.0866 244.8669 573.605 244.8669 599.5359 218.0418 601.1007 230.7837 601.7713 235.9252 606.9128 245.6493 611.0483 248.6671 615.0721 251.6849 615.7427 252.0202 618.6487 253.9204 618.7605 254.0321 618.8723 254.0321 619.0958 254.1439 619.2076 254.2557 619.3194 254.3674 619.5429 254.4792 619.7664 254.591 619.8782 254.7028 619.99 254.7028 620.1018 254.8145 620.3253 254.9263 620.4371 255.0381 620.5488 255.1498 620.7724 255.2616 620.9959 255.3734 621.1077 255.4851 621.2195 255.4851 621.443 255.5969 621.5548 255.7087 621.6666 255.8205 621.8901 255.9322 622.0019 256.044 622.1136 256.1558 622.3372 256.1558 622.449 256.2675 622.6725 256.4911 622.7843 256.4911 622.896 256.6029 623.1196 256.7146 623.2314 256.8264 623.3431 256.8264 626.9198 259.1736 631.1671 259.2854 631.2789 259.2854 631.3906 259.2854 631.6142 259.2854 631.8377 259.2854 631.9495 259.2854 632.0613 259.3971 632.2848 259.3971 632.5084 259.3971 632.6201 259.3971 632.7319 259.3971 632.9554 259.3971 633.179 259.3971 633.2908 259.3971 633.4025 259.3971 633.6261 259.3971 633.8496 259.3971 633.9614 259.3971 634.0732 259.3971 634.2967 259.3971 634.4085 259.3971 634.632 259.5089 634.7438 259.5089 634.8556 259.5089 635.0791 259.5089 635.3026 259.5089 635.4144 259.5089 635.5262 259.5089 635.7497 259.5089 635.9733 259.5089 636.085 259.5089 636.1968 259.5089 636.4204 259.5089 636.5321 259.5089 636.7557 259.5089 636.8674 259.5089 637.091 259.5089 637.2028 259.6207 637.4263 259.6207 637.5381 259.6207 637.7616 259.6207 637.8734 259.6207 638.0969 259.6207 638.2087 259.6207 638.4322 259.6207 638.544 259.6207 638.6558 259.6207 638.8793 259.6207 638.9911 259.6207 639.2146 259.6207 639.3264 259.6207 639.5499 259.6207 639.6617 259.7325 643.909 259.8442 651.2859 263.6444 652.5154 267.78 652.6272 268.0035 652.6272 268.1153 652.7389 268.3388 652.7389 268.5624 652.8507 268.7859 652.8507 268.8977 652.9625 269.1212 652.9625 269.3448 653.0743 269.5683 653.0743 269.6801 653.186 269.9036 653.2978 270.1272 653.5213 271.1331 653.6331 271.4684 653.6331 271.5802 655.7568 278.51 659.4452 273.3685 662.3513 268.7859 671.293 270.3507 680.4582 278.6218 680.57 278.7336 680.0111 278.9571 679.564 279.2924 679.4523 279.4042 679.1169 280.1866 679.0052 280.969 678.8934 281.4161 678.3345 282.0867 678.2228 283.2044 678.3345 284.0986 678.111 284.881 677.6639 285.6634 677.1051 288.4576 676.3227 289.24 675.9873 289.5754 675.8756 289.6871 673.0813 292.0343 672.1871 293.0403 672.0754 293.152 671.6283 293.4873 670.8459 293.8227 668.834 294.6051 667.4927 295.3875 666.375 296.1699 663.9161 298.6288 662.6866 299.8583 662.5748 299.9701 660.5629 302.3173 659.557 303.2114 659.557 303.3232 657.2098 306.2293 657.2098 306.341 656.8745 306.4528 656.4274 306.4528 655.7568 306.0057 655.645 306.0057 655.645 306.1175 655.7568 306.2293 656.4274 306.7881 656.3156 307.0117 655.3097 308.1294 654.7508 309.1353 654.3037 310.1413 653.8567 312.1531 653.6331 314.6121 653.4096 316.8475 653.6331 317.2946 653.8567 317.6299 653.9684 317.7417 653.9684 318.4123 654.0802 318.7476 654.3037 318.9712 654.8626 319.0829 655.4215 318.9712 655.645 319.1947 655.5332 319.4183 655.0861 319.7536 655.0861 319.8653 654.9744 320.3124 654.9744 320.536 655.3097 320.6477 655.4215 320.8713 654.6391 322.2125 654.9744 322.7714 654.4155 323.7773 653.8567 324.5597 652.9625 325.7892 652.5154 326.5716 651.733 327.2422 651.2859 327.9129 650.7271 329.1424 650.3917 330.2601 650.28 331.9366 649.9447 332.8308 649.7211 333.5014 648.3799 336.1839 646.0327 340.543 645.6974 341.3254 645.1385 342.4431 643.7972 345.0139 641.6736 348.1435 630.6083 335.2898 626.1374 334.5074 613.3955 328.36 607.6952 325.5657 597.3004 325.0068 595.8474 324.895 558.8512 345.908 556.6157 347.2493 487.5411 336.0722 487.0941 335.9604Z" />
  <path class="Sanaag" d="M591.2648 75.6453L593.7238 86.1518 595.8474 94.7582 596.1827 110.6297 596.6298 127.1718 596.6298 128.6249 596.8534 139.4667 598.0828 185.7399 596.4063 185.8517 562.4278 187.8636 562.3161 187.8636 546.221 189.2048 545.8857 189.2048 545.6622 189.2048 543.0914 189.4284 542.4208 189.4284 525.4316 190.8814 525.208 190.8814 474.911 194.011 473.9051 194.011 470.5519 194.2345 453.1156 195.3523 439.0325 196.2464 438.6971 196.2464 433.891 196.9171 430.6496 194.3463 430.5378 194.2345 430.3143 194.1228 430.2025 194.011 429.979 193.8992 429.8672 193.6757 429.7554 193.6757 429.6437 193.5639 429.5319 193.4521 429.3084 193.3404 429.1966 193.2286 429.0848 193.1168 428.973 193.0051 428.7495 192.8933 428.6377 192.7815 428.4142 192.6697 428.3024 192.558 428.3024 192.4462 428.1906 192.3344 428.0789 192.3344 427.8553 192.1109 427.7436 191.9991 427.52 191.8873 427.4083 191.7756 427.2965 191.6638 427.0729 191.4403 426.9612 191.3285 426.7376 191.2167 426.6259 191.105 426.4023 190.9932 426.2905 190.8814 426.1788 190.7696 425.9552 190.6579 425.8435 190.4343 425.6199 190.3226 425.5081 190.2108 425.3964 190.099 425.1728 189.9872 424.9493 189.8755 424.9493 189.7637 424.8375 189.7637 424.7257 189.5402 424.5022 189.4284 424.3904 189.3166 424.2787 189.2048 424.0551 189.0931 423.9433 188.8695 423.7198 188.7578 423.608 188.646 423.3845 188.5342 423.2727 188.4224 423.0492 188.3107 422.9374 188.1989 422.8256 188.0871 422.6021 187.8636 422.4903 187.7518 422.3785 187.64 422.155 187.5283 421.9315 187.4165 421.8197 187.193 421.7079 187.193 421.5961 187.0812 421.4844 186.9694 421.3726 186.8576 421.1491 186.7459 421.0373 186.6341 420.9255 186.5223 420.702 186.4106 420.4784 186.187 420.3667 186.0752 420.2549 186.0752 420.2549 185.9635 420.0314 185.8517 419.9196 185.7399 419.8078 185.6282 419.696 185.5164 419.5843 185.4046 419.4725 185.2928 419.249 185.1811 419.1372 185.0693 418.9136 184.9575 418.8019 184.8458 418.5783 184.734 418.4666 184.6222 418.3548 184.3987 418.243 184.3987 418.1312 184.2869 418.0195 184.1751 417.9077 184.0634 417.6842 183.9516 417.4606 183.7281 417.3488 183.6163 417.2371 183.5045 417.1253 183.3927 417.0135 183.3927 416.9018 183.281 416.6782 183.1692 416.5664 183.0574 416.4547 182.9457 416.2311 182.7221 416.1194 182.6103 416.0076 182.4986 415.784 182.3868 415.5605 182.275 415.4487 182.1633 415.337 182.0515 415.1134 181.8279 415.0017 181.8279 414.8899 181.7162 414.7781 181.6044 414.6663 181.4926 414.5546 181.3809 414.331 181.2691 414.1075 181.0455 414.1075 180.9338 413.8839 180.822 413.6604 180.7102 413.5486 180.5985 413.4369 180.4867 413.2133 180.3749 413.1015 180.1514 412.9898 180.1514 412.878 180.0396 412.7662 179.9278 412.6545 179.8161 412.4309 179.7043 412.2074 179.4807 412.0956 179.4807 411.9838 179.369 411.9838 179.2572 411.7603 179.1454 411.6485 179.0337 411.5367 178.9219 411.3132 178.8101 411.2014 178.6983 410.9779 178.4748 410.8661 178.363 410.6426 178.2513 410.5308 178.1395 410.419 178.0277 410.3073 178.0277 410.1955 177.916 410.0837 177.8042 409.8602 177.5806 409.7484 177.4689 409.6366 177.3571 409.4131 177.2453 409.3013 177.1336 409.0778 177.0218 408.966 176.91 408.7425 176.7982 408.6307 176.5747 408.4072 176.4629 408.4072 176.3512 408.2954 176.3512 408.1836 176.2394 407.9601 176.1276 407.8483 175.9041 407.6248 175.7923 407.513 175.6805 407.2894 175.5688 407.1777 175.457 407.0659 175.3452 406.8424 175.2334 406.7306 175.0099 406.507 174.8981 406.3953 174.7864 406.2835 174.7864 406.1717 174.6746 406.06 174.5628 405.8364 174.451 405.7246 174.3393 405.6129 174.1157 405.5011 174.1157 405.2776 173.8922 405.1658 173.7804 404.9422 173.6686 404.8305 173.5569 404.6069 173.3333 404.4952 173.3333 404.2716 173.1098 404.0481 172.998 403.9363 172.8862 403.8245 172.7745 403.7128 172.6627 403.4892 172.4392 403.3774 172.3274 403.1539 172.2156 403.0421 172.1039 402.9304 172.1039 402.8186 171.9921 402.7068 171.8803 402.595 171.6568 402.4833 171.6568 402.3715 171.545 402.2597 171.4332 402.148 171.4332 402.0362 171.3215 401.9244 171.2097 401.7009 170.9861 401.5891 170.9861 401.3656 170.7626 401.2538 170.6508 401.0303 170.5391 400.9185 170.4273 400.8067 170.3155 400.5832 170.2037 400.4714 170.092 400.4714 169.9802 400.3596 169.8684 400.1361 169.7567 400.0243 169.6449 399.8008 169.5331 399.689 169.4213 399.5772 169.3096 399.4655 169.1978 399.3537 169.086 399.1301 168.9743 399.0184 168.8625 398.9066 168.7507 398.6831 168.6389 398.5713 168.5272 398.4595 168.4154 398.236 168.1919 398.1242 168.0801 397.9007 167.9683 397.7889 167.8565 397.5653 167.7448 397.4536 167.633 397.4536 167.5212 397.23 167.4095 397.1183 167.2977 397.0065 167.1859 396.8947 167.1859 396.7829 167.0741 396.6712 166.9624 396.5594 166.8506 396.3359 166.7388 396.1123 166.5153 396.0006 166.4035 395.8888 166.2917 395.6652 166.18 395.5535 166.0682 395.3299 165.9564 395.2182 165.8447 395.1064 165.6211 394.8828 165.5094 394.7711 165.3976 394.6593 165.2858 394.4358 165.174 394.2122 165.0623 394.2122 164.9505 394.1004 164.8387 393.9887 164.727 393.7651 164.6152 393.6534 164.5034 393.4298 164.3916 393.318 164.2799 393.2063 164.1681 392.9827 163.9446 392.871 163.8328 392.7592 163.8328 392.6474 163.721 392.5356 163.6092 392.3121 163.4975 392.2003 163.3857 392.2003 163.2739 392.0886 163.2739 391.865 163.0504 391.7532 162.9386 391.5297 162.8268 391.4179 162.7151 391.1944 162.6033 391.0826 162.4915 390.8591 162.268 390.7473 162.268 390.6355 162.0444 390.412 161.9327 390.3002 161.8209 390.1884 161.7091 390.0767 161.7091 389.9649 161.5974 389.7414 161.3738 389.6296 161.262 389.4061 161.1503 389.2943 161.0385 389.1825 160.9267 388.959 160.7032 388.8472 160.7032 388.7354 160.4796 388.5119 160.3679 388.4001 160.2561 388.1766 160.1443 388.0648 160.0326 387.8413 159.9208 387.7295 159.6972 387.6177 159.6972 387.3942 159.4737 387.2824 159.3619 387.0589 159.2502 387.0589 159.1384 386.9471 159.1384 386.7235 159.0266 386.6118 158.8031 386.3882 158.6913 386.2765 158.5795 386.1647 158.4678 385.9411 158.356 385.8294 158.1325 385.7176 158.1325 385.4941 158.0207 385.3823 157.9089 385.3823 157.7971 385.1587 157.6854 385.047 157.5736 384.8234 157.4618 384.7117 157.3501 384.4881 157.1265 384.3763 157.1265 384.2646 156.903 384.041 156.7912 383.9293 156.6794 383.8175 156.5677 383.5939 156.4559 383.4822 156.3441 383.2586 156.1206 383.1469 156.0088 382.9233 155.897 382.8116 155.7853 382.588 155.6735 382.4762 155.5617 382.3645 155.3382 382.1409 155.2264 382.0292 155.1146 381.9174 155.1146 381.9174 155.0029 381.6938 154.8911 381.4703 154.7793 381.4703 154.6675 381.2468 154.444 381.0232 154.3322 380.9114 154.2205 380.6879 154.1087 380.5761 153.9969 380.4644 153.8851 380.2408 153.6616 380.0173 153.5498 379.9055 153.4381 379.7937 153.3263 379.5702 153.2145 379.4584 153.1028 379.3466 152.991 379.1231 152.7674 379.0113 152.6557 378.7878 152.5439 378.676 152.4321 378.5642 152.3204 378.3407 152.2086 378.1172 151.985 378.0054 151.8733 377.8936 151.7615 377.6701 151.6497 377.5583 151.538 377.4465 151.4262 377.223 151.3144 377.1112 151.2026 376.9994 151.0909 376.8877 150.9791 376.7759 150.8673 376.5524 150.7556 376.4406 150.6438 376.2171 150.532 376.2171 150.4202 376.1053 150.4202 375.9935 150.1967 375.77 150.0849 375.3229 149.7496 373.8699 148.5201 372.5286 147.4024 372.5286 146.0612 372.8639 134.884 372.8639 134.5487 372.8639 134.2134 372.9757 131.3074 373.6463 107.053 373.8699 98.6702 373.9816 95.6524 373.9816 95.4288 374.764 95.6524 375.2111 95.7641 378.7878 96.2112 379.5702 96.0994 379.9055 96.0994 382.588 95.5406 384.041 95.2053 384.1528 95.2053 385.9411 94.9817 386.9471 94.87 387.2824 94.87 389.1825 94.87 389.8531 95.0935 391.0826 96.0994 392.871 97.1054 393.2063 97.3289 393.6534 97.8878 395.3299 100.1232 397.1183 101.688 397.6771 101.7998 397.7889 101.7998 398.1242 101.7998 399.3537 101.7998 399.8008 101.7998 399.9125 101.7998 400.4714 102.0233 401.142 102.2469 401.4773 102.2469 401.8127 102.2469 402.2597 102.3586 402.3715 102.3586 404.2716 102.3586 404.9422 102.3586 405.3893 102.1351 405.8364 102.0233 408.0718 101.1292 408.5189 101.0174 408.966 100.6821 410.0837 100.1232 414.5546 99.0055 415.2252 98.782 416.79 98.8937 417.1253 98.6702 417.5724 98.5584 417.9077 98.4466 418.1312 98.3349 419.0254 98.2231 421.0373 97.5525 422.7139 96.323 423.9433 95.9877 423.9433 95.8759 424.7257 95.0935 425.1728 94.9817 426.5141 94.4229 427.7436 93.864 427.7436 93.7523 428.526 93.5287 428.6377 93.5287 428.7495 93.5287 429.0848 93.1934 429.4201 92.7463 429.979 92.5228 430.5378 92.2992 430.8732 92.1875 431.0967 92.0757 431.432 91.9639 431.432 91.8521 431.5438 91.7404 431.8791 91.4051 431.9909 91.2933 432.438 91.1815 432.885 91.0697 433.3321 90.7344 433.4439 90.7344 433.6674 90.2873 433.7792 90.0638 434.2263 89.6167 435.4558 89.2814 435.7911 89.1696 436.0146 88.9461 436.1264 88.9461 436.797 88.0519 437.3559 87.6048 437.9147 86.8224 438.0265 86.7107 438.2501 86.4871 438.3618 86.3754 439.0325 86.2636 439.8149 86.1518 439.9266 86.1518 440.1502 85.9283 440.709 84.9223 440.8208 84.9223 441.0443 84.8106 442.3856 84.9223 442.8327 84.6988 442.9444 84.6988 443.6151 84.1399 443.8386 84.0282 444.5092 83.8046 444.621 83.8046 445.0681 83.4693 445.1799 83.3575 445.5152 83.0222 445.627 82.6869 445.8505 82.4634 446.1858 81.7927 446.5211 81.4574 446.8564 81.2339 447.8624 81.2339 449.3154 81.0103 449.4272 81.0103 450.3213 80.3397 451.3273 80.2279 451.7744 80.1162 452.8921 79.5573 453.0039 79.5573 453.0039 79.4455 453.5627 78.8867 453.6745 78.4396 453.898 77.4337 454.0098 77.2101 454.2333 76.8748 454.4569 76.6513 454.4569 76.5395 455.1275 76.0924 456.1334 75.1982 456.357 74.7512 456.4688 73.857 456.8041 73.6334 459.263 72.7393 459.9337 72.404 461.1631 72.0686 461.722 71.8451 462.2809 71.5098 463.2868 70.9509 463.8457 70.3921 464.6281 69.7215 466.0811 69.3861 467.1988 68.7155 467.4223 68.6037 467.8694 68.492 467.9812 68.492 468.3165 68.3802 468.54 68.3802 469.6578 67.7096 469.8813 67.5978 470.3284 67.3743 471.8932 66.8154 473.5697 66.3683 474.2404 65.9212 474.6875 65.5859 475.4699 65.4741 476.1405 65.2506 476.8111 65.1388 478.3759 65.2506 478.5994 65.2506 479.3818 64.9153 479.6054 64.8035 479.7172 64.8035 479.9407 64.8035 480.7231 64.9153 481.8408 64.6917 481.9526 64.6917 483.0703 64.6917 485.1939 64.9153 486.1999 65.1388 486.8705 65.5859 487.2058 65.8095 487.3176 66.033 487.9882 66.7036 488.3235 66.9272 489.3295 67.5978 489.7766 67.9331 490.7825 68.492 491.9002 69.3861 492.012 69.3861 492.1238 69.4979 493.1297 70.0568 494.918 71.2862 495.1416 71.398 495.4769 71.5098 496.0358 71.6216 496.2593 71.6216 496.9299 71.5098 497.377 71.5098 497.4888 71.5098 498.9418 71.1745 500.5066 70.5039 502.1832 69.8332 503.1891 69.6097 504.195 69.2744 504.9774 69.1626 505.5363 69.2744 506.0952 69.4979 508.107 69.7215 509.5601 69.945 510.7895 69.945 512.9132 69.1626 513.1367 69.1626 513.3603 69.1626 513.4721 69.0508 513.5838 69.0508 514.0309 69.0508 515.1486 69.4979 517.4958 69.8332 518.6135 69.4979 520.1783 69.7215 521.4078 69.6097 522.7491 69.2744 523.5315 69.0508 523.8668 68.9391 524.0903 68.9391 524.9845 68.9391 525.8787 68.7155 526.4375 68.6037 526.9964 68.7155 527.5552 68.9391 527.8905 68.8273 528.6729 68.7155 529.12 68.7155 529.5671 68.9391 530.9084 68.6037 532.4732 67.2625 533.2556 66.8154 533.7026 66.2565 534.485 65.3624 534.9321 64.8035 535.0439 64.8035 535.2674 64.6917 536.1616 64.2447 536.944 63.127 537.2793 63.0152 537.5029 62.9034 539.403 62.5681 540.856 62.2328 541.8619 61.7857 542.6443 61.2268 543.0914 61.0033 543.0914 60.8915 543.2032 60.7798 543.6503 60.3327 543.6503 60.2209 543.762 60.1091 544.5444 59.5503 545.2151 58.7679 545.8857 58.209 545.8857 58.0972 546.221 57.9855 548.1211 57.7619 548.2329 57.7619 548.2329 57.6502 548.68 57.3149 549.4624 57.0913 550.5801 57.2031 552.2567 57.2031 553.7097 57.2031 554.1568 57.0913 554.6039 56.9795 555.6098 56.5325 557.8452 55.303 558.7394 54.9677 559.5218 54.9677 559.7453 54.8559 560.3042 54.9677 562.0925 55.1912 564.2162 55.1912 564.9986 54.9677 565.2221 54.9677 565.4457 54.8559 566.1163 54.6323 566.7869 54.297 567.3458 54.0735 568.5752 53.9617 568.7988 54.0735 571.4813 55.0794 572.599 55.303 575.7286 56.0854 576.8463 56.4207 577.4052 56.5325 577.8523 56.756 577.964 56.756 578.2993 56.8678 578.8582 57.0913 580.0877 57.6502 580.7583 58.0972 581.4289 58.5443 582.3231 58.7679 582.9937 58.9914 584.2232 59.5503 584.6703 59.7738 586.6822 60.1091 587.3528 60.2209 587.5763 60.3327 588.6941 65.2506 590.2589 71.7333 590.7059 73.6334 591.2648 75.6453Z" />
  <path class="Sool" d="M518.39 302.9879L515.8193 302.9879 513.9191 303.0997 512.3543 303.0997 508.5541 303.0997 500.8419 302.9879 490.559 303.0997 483.9645 303.0997 452.1097 303.0997 449.2036 303.2114 446.5211 303.2114 446.6329 302.7644 451.4391 272.1391 451.7744 269.4565 451.8861 269.4565 452.7803 263.7562 453.1156 261.409 453.1156 261.2972 445.8505 247.3259 445.7387 247.1023 439.8149 246.4317 439.8149 244.7551 437.803 244.6433 433.6674 244.4198 427.9671 244.1963 424.7257 243.9727 417.4606 243.6374 399.9125 242.6315 397.9007 242.5197 392.2003 242.2961 390.7473 242.1844 385.8294 241.9608 385.8294 241.8491 386.0529 240.0607 387.3942 232.2367 388.0648 228.4365 387.0589 222.1773 384.2646 204.2939 384.1528 203.8469 383.9293 202.6174 383.9293 202.5056 378.3407 168.5272 375.3229 149.7496 375.77 150.0849 375.9935 150.1967 376.1053 150.4202 376.2171 150.4202 376.2171 150.532 376.4406 150.6438 376.5524 150.7556 376.7759 150.8673 376.8877 150.9791 376.9994 151.0909 377.1112 151.2026 377.223 151.3144 377.4465 151.4262 377.5583 151.538 377.6701 151.6497 377.8936 151.7615 378.0054 151.8733 378.1172 151.985 378.3407 152.2086 378.5642 152.3204 378.676 152.4321 378.7878 152.5439 379.0113 152.6557 379.1231 152.7674 379.3466 152.991 379.4584 153.1028 379.5702 153.2145 379.7937 153.3263 379.9055 153.4381 380.0173 153.5498 380.2408 153.6616 380.4644 153.8851 380.5761 153.9969 380.6879 154.1087 380.9114 154.2205 381.0232 154.3322 381.2468 154.444 381.4703 154.6675 381.4703 154.7793 381.6938 154.8911 381.9174 155.0029 381.9174 155.1146 382.0292 155.1146 382.1409 155.2264 382.3645 155.3382 382.4762 155.5617 382.588 155.6735 382.8116 155.7853 382.9233 155.897 383.1469 156.0088 383.2586 156.1206 383.4822 156.3441 383.5939 156.4559 383.8175 156.5677 383.9293 156.6794 384.041 156.7912 384.2646 156.903 384.3763 157.1265 384.4881 157.1265 384.7117 157.3501 384.8234 157.4618 385.047 157.5736 385.1587 157.6854 385.3823 157.7971 385.3823 157.9089 385.4941 158.0207 385.7176 158.1325 385.8294 158.1325 385.9411 158.356 386.1647 158.4678 386.2765 158.5795 386.3882 158.6913 386.6118 158.8031 386.7235 159.0266 386.9471 159.1384 387.0589 159.1384 387.0589 159.2502 387.2824 159.3619 387.3942 159.4737 387.6177 159.6972 387.7295 159.6972 387.8413 159.9208 388.0648 160.0326 388.1766 160.1443 388.4001 160.2561 388.5119 160.3679 388.7354 160.4796 388.8472 160.7032 388.959 160.7032 389.1825 160.9267 389.2943 161.0385 389.4061 161.1503 389.6296 161.262 389.7414 161.3738 389.9649 161.5974 390.0767 161.7091 390.1884 161.7091 390.3002 161.8209 390.412 161.9327 390.6355 162.0444 390.7473 162.268 390.8591 162.268 391.0826 162.4915 391.1944 162.6033 391.4179 162.7151 391.5297 162.8268 391.7532 162.9386 391.865 163.0504 392.0886 163.2739 392.2003 163.2739 392.2003 163.3857 392.3121 163.4975 392.5356 163.6092 392.6474 163.721 392.7592 163.8328 392.871 163.8328 392.9827 163.9446 393.2063 164.1681 393.318 164.2799 393.4298 164.3916 393.6534 164.5034 393.7651 164.6152 393.9887 164.727 394.1004 164.8387 394.2122 164.9505 394.2122 165.0623 394.4358 165.174 394.6593 165.2858 394.7711 165.3976 394.8828 165.5094 395.1064 165.6211 395.2182 165.8447 395.3299 165.9564 395.5535 166.0682 395.6652 166.18 395.8888 166.2917 396.0006 166.4035 396.1123 166.5153 396.3359 166.7388 396.5594 166.8506 396.6712 166.9624 396.7829 167.0741 396.8947 167.1859 397.0065 167.1859 397.1183 167.2977 397.23 167.4095 397.4536 167.5212 397.4536 167.633 397.5653 167.7448 397.7889 167.8565 397.9007 167.9683 398.1242 168.0801 398.236 168.1919 398.4595 168.4154 398.5713 168.5272 398.6831 168.6389 398.9066 168.7507 399.0184 168.8625 399.1301 168.9743 399.3537 169.086 399.4655 169.1978 399.5772 169.3096 399.689 169.4213 399.8008 169.5331 400.0243 169.6449 400.1361 169.7567 400.3596 169.8684 400.4714 169.9802 400.4714 170.092 400.5832 170.2037 400.8067 170.3155 400.9185 170.4273 401.0303 170.5391 401.2538 170.6508 401.3656 170.7626 401.5891 170.9861 401.7009 170.9861 401.9244 171.2097 402.0362 171.3215 402.148 171.4332 402.2597 171.4332 402.3715 171.545 402.4833 171.6568 402.595 171.6568 402.7068 171.8803 402.8186 171.9921 402.9304 172.1039 403.0421 172.1039 403.1539 172.2156 403.3774 172.3274 403.4892 172.4392 403.7128 172.6627 403.8245 172.7745 403.9363 172.8862 404.0481 172.998 404.2716 173.1098 404.4952 173.3333 404.6069 173.3333 404.8305 173.5569 404.9422 173.6686 405.1658 173.7804 405.2776 173.8922 405.5011 174.1157 405.6129 174.1157 405.7246 174.3393 405.8364 174.451 406.06 174.5628 406.1717 174.6746 406.2835 174.7864 406.3953 174.7864 406.507 174.8981 406.7306 175.0099 406.8424 175.2334 407.0659 175.3452 407.1777 175.457 407.2894 175.5688 407.513 175.6805 407.6248 175.7923 407.8483 175.9041 407.9601 176.1276 408.1836 176.2394 408.2954 176.3512 408.4072 176.3512 408.4072 176.4629 408.6307 176.5747 408.7425 176.7982 408.966 176.91 409.0778 177.0218 409.3013 177.1336 409.4131 177.2453 409.6366 177.3571 409.7484 177.4689 409.8602 177.5806 410.0837 177.8042 410.1955 177.916 410.3073 178.0277 410.419 178.0277 410.5308 178.1395 410.6426 178.2513 410.8661 178.363 410.9779 178.4748 411.2014 178.6983 411.3132 178.8101 411.5367 178.9219 411.6485 179.0337 411.7603 179.1454 411.9838 179.2572 411.9838 179.369 412.0956 179.4807 412.2074 179.4807 412.4309 179.7043 412.6545 179.8161 412.7662 179.9278 412.878 180.0396 412.9898 180.1514 413.1015 180.1514 413.2133 180.3749 413.4369 180.4867 413.5486 180.5985 413.6604 180.7102 413.8839 180.822 414.1075 180.9338 414.1075 181.0455 414.331 181.2691 414.5546 181.3809 414.6663 181.4926 414.7781 181.6044 414.8899 181.7162 415.0017 181.8279 415.1134 181.8279 415.337 182.0515 415.4487 182.1633 415.5605 182.275 415.784 182.3868 416.0076 182.4986 416.1194 182.6103 416.2311 182.7221 416.4547 182.9457 416.5664 183.0574 416.6782 183.1692 416.9018 183.281 417.0135 183.3927 417.1253 183.3927 417.2371 183.5045 417.3488 183.6163 417.4606 183.7281 417.6842 183.9516 417.9077 184.0634 418.0195 184.1751 418.1312 184.2869 418.243 184.3987 418.3548 184.3987 418.4666 184.6222 418.5783 184.734 418.8019 184.8458 418.9136 184.9575 419.1372 185.0693 419.249 185.1811 419.4725 185.2928 419.5843 185.4046 419.696 185.5164 419.8078 185.6282 419.9196 185.7399 420.0314 185.8517 420.2549 185.9635 420.2549 186.0752 420.3667 186.0752 420.4784 186.187 420.702 186.4106 420.9255 186.5223 421.0373 186.6341 421.1491 186.7459 421.3726 186.8576 421.4844 186.9694 421.5961 187.0812 421.7079 187.193 421.8197 187.193 421.9315 187.4165 422.155 187.5283 422.3785 187.64 422.4903 187.7518 422.6021 187.8636 422.8256 188.0871 422.9374 188.1989 423.0492 188.3107 423.2727 188.4224 423.3845 188.5342 423.608 188.646 423.7198 188.7578 423.9433 188.8695 424.0551 189.0931 424.2787 189.2048 424.3904 189.3166 424.5022 189.4284 424.7257 189.5402 424.8375 189.7637 424.9493 189.7637 424.9493 189.8755 425.1728 189.9872 425.3964 190.099 425.5081 190.2108 425.6199 190.3226 425.8435 190.4343 425.9552 190.6579 426.1788 190.7696 426.2905 190.8814 426.4023 190.9932 426.6259 191.105 426.7376 191.2167 426.9612 191.3285 427.0729 191.4403 427.2965 191.6638 427.4083 191.7756 427.52 191.8873 427.7436 191.9991 427.8553 192.1109 428.0789 192.3344 428.1906 192.3344 428.3024 192.4462 428.3024 192.558 428.4142 192.6697 428.6377 192.7815 428.7495 192.8933 428.973 193.0051 429.0848 193.1168 429.1966 193.2286 429.3084 193.3404 429.5319 193.4521 429.6437 193.5639 429.7554 193.6757 429.8672 193.6757 429.979 193.8992 430.2025 194.011 430.3143 194.1228 430.5378 194.2345 430.6496 194.3463 433.891 196.9171 438.6971 196.2464 439.0325 196.2464 453.1156 195.3523 470.5519 194.2345 473.9051 194.011 474.911 194.011 525.208 190.8814 525.4316 190.8814 542.4208 189.4284 543.0914 189.4284 545.6622 189.2048 545.8857 189.2048 546.221 189.2048 562.3161 187.8636 562.4278 187.8636 596.4063 185.8517 598.0828 185.7399 598.977 204.6293 599.5359 218.0418 573.605 244.8669 561.0866 244.8669 545.3268 261.7443 544.6562 262.7503 544.4327 263.1974 544.4327 263.4209 528.7847 287.3399 527.3317 289.5754 525.6551 292.0343 518.5018 302.9879 518.39 302.9879Z" />
  <path class="Togdheer" d="M446.5211 303.2114L445.2916 302.8761 437.4677 300.0818 433.891 298.8524 430.2025 297.6229 426.9612 296.5052 412.5427 291.5872 405.054 289.0165 403.601 288.4576 401.7009 287.8988 401.7009 287.787 395.2182 285.6634 379.1231 280.0748 378.676 279.963 366.94 275.9393 334.9735 265.321 275.2877 244.9787 274.8406 244.8669 274.8406 228.7718 274.8406 212.565 274.8406 212.4532 274.8406 205.1881 276.0701 200.2702 276.8525 197.3641 276.8525 197.2524 277.2996 195.5758 277.2996 195.464 277.4113 194.9052 278.9761 188.7578 280.6527 182.0515 281.7704 177.4689 282.8881 173.1098 283.3352 171.3215 284.9 165.0623 285.2353 163.9446 288.1414 160.2561 289.3708 158.8031 290.0415 158.0207 290.1532 157.9089 296.9713 150.1967 303.7893 142.3727 304.6835 141.255 305.1306 140.6961 310.9427 141.255 316.7548 141.7021 316.9783 141.7021 317.649 141.8139 323.9081 142.3727 346.1506 144.2728 347.7154 144.4964 348.386 144.4964 350.6215 144.7199 364.3693 145.9494 364.8164 146.0612 372.5286 147.4024 373.8699 148.5201 375.3229 149.7496 378.3407 168.5272 383.9293 202.5056 383.9293 202.6174 384.1528 203.8469 384.2646 204.2939 387.0589 222.1773 388.0648 228.4365 387.3942 232.2367 386.0529 240.0607 385.8294 241.8491 385.8294 241.9608 390.7473 242.1844 392.2003 242.2961 397.9007 242.5197 399.9125 242.6315 417.4606 243.6374 424.7257 243.9727 427.9671 244.1963 433.6674 244.4198 437.803 244.6433 439.8149 244.7551 439.8149 246.4317 445.7387 247.1023 445.8505 247.3259 453.1156 261.2972 453.1156 261.409 452.7803 263.7562 451.8861 269.4565 451.7744 269.4565 451.4391 272.1391 446.6329 302.7644 446.5211 303.2114Z" />
  <path class="Woqooyi Galbeed" d="M361.6868 90.7344L361.7986 90.7344 362.0221 90.7344 362.6927 90.6227 365.1517 91.7404 368.3931 93.864 369.7343 94.7582 369.8461 94.7582 370.0696 94.87 371.2991 95.0935 373.311 95.2053 373.4228 95.2053 373.9816 95.4288 373.9816 95.6524 373.8699 98.6702 373.6463 107.053 372.9757 131.3074 372.8639 134.2134 372.8639 134.5487 372.8639 134.884 372.5286 146.0612 372.5286 147.4024 364.8164 146.0612 364.3693 145.9494 350.6215 144.7199 348.386 144.4964 347.7154 144.4964 346.1506 144.2728 323.9081 142.3727 317.649 141.8139 316.9783 141.7021 316.7548 141.7021 310.9427 141.255 305.1306 140.6961 304.6835 141.255 303.7893 142.3727 296.9713 150.1967 290.1532 157.9089 290.0415 158.0207 289.3708 158.8031 288.1414 160.2561 285.2353 163.9446 284.9 165.0623 283.3352 171.3215 282.8881 173.1098 281.7704 177.4689 280.6527 182.0515 278.9761 188.7578 277.4113 194.9052 277.2996 195.464 277.2996 195.5758 276.8525 197.2524 276.8525 197.3641 276.0701 200.2702 274.8406 205.1881 274.8406 212.4532 274.8406 212.565 274.8406 228.7718 274.8406 244.8669 274.3935 244.7551 272.7169 244.0845 271.8228 243.8609 237.6208 232.3485 237.509 232.3485 232.2558 230.5602 228.5673 229.3307 224.5436 227.9894 221.9728 225.6422 213.4782 217.8183 212.8076 217.2594 209.678 213.9063 208.7838 213.0121 206.7719 210.8884 206.4366 210.7767 202.0776 206.3058 201.9658 206.0823 199.1715 203.1762 199.0597 202.9527 198.8362 202.9527 198.3891 202.2821 197.7185 201.7232 197.6067 201.7232 194.7007 201.6114 194.5889 201.6114 194.2536 201.6114 193.6947 201.4997 192.6888 201.0526 191.5711 200.6055 190.9004 200.382 189.3356 199.9349 188.2179 199.4878 186.0943 198.4818 185.9825 198.2583 184.4177 197.0288 183.0765 195.5758 182.7411 195.1287 182.5176 194.7934 181.7352 193.2286 181.3999 192.4462 181.3999 192.1109 180.841 191.105 180.6175 190.6579 180.3939 190.2108 180.3939 190.099 180.2822 189.6519 180.1704 188.5342 179.7233 187.64 179.2762 187.0812 177.5997 185.8517 177.4879 185.8517 176.2584 184.3987 175.5878 183.7281 175.5878 183.6163 174.9172 182.9457 174.4701 182.3868 174.3583 182.3868 174.1348 182.0515 172.3464 181.3809 171.564 181.1573 171.2287 179.2572 172.7935 176.6865 177.1526 168.5272 177.2644 168.4154 177.5997 167.9683 179.8351 165.2858 181.0646 163.9446 183.5235 160.815 189.1121 154.2205 190.7887 151.6497 193.1359 148.2966 199.395 139.3549 200.7363 137.343 203.0835 133.8781 205.6542 131.3074 206.1013 130.9721 210.4604 131.6427 218.2844 136.0018 220.7433 137.343 222.867 138.5725 224.32 139.3549 226.779 140.6961 228.3438 138.4607 230.4674 135.5547 231.8087 133.6546 232.4793 132.7604 234.9383 129.4073 237.509 124.7129 241.1975 118.1184 241.3092 118.0066 242.874 119.3479 245.1095 121.1362 247.4567 122.1421 250.8098 123.3716 253.157 123.8187 254.0512 124.0422 255.3924 123.8187 256.7337 123.4834 256.8454 123.3716 257.069 123.3716 258.1867 123.4834 259.4162 123.4834 261.4281 124.0422 262.434 124.3776 263.7752 124.4893 264.7812 124.9364 265.4518 125.0482 265.8989 124.9364 267.6872 124.7129 268.5814 124.8246 268.805 124.8246 269.0285 124.8246 269.252 124.8246 269.5873 124.7129 269.8109 124.6011 270.9286 124.3776 272.0463 123.4834 272.2699 123.4834 272.4934 123.3716 275.3994 122.701 276.7407 122.5892 276.8525 122.4774 277.4113 122.1421 278.4173 122.0304 279.4232 121.9186 279.9821 122.0304 280.0938 122.1421 281.2116 122.1421 281.5469 122.2539 281.6586 122.2539 282.441 122.2539 282.6646 122.0304 282.7763 122.0304 282.8881 122.0304 282.9999 122.0304 283.3352 122.1421 283.5587 122.2539 284.4529 122.0304 284.9 122.1421 286.1295 122.701 286.5766 122.701 287.4707 122.8128 288.9238 123.0363 289.0355 123.0363 289.9297 122.9245 291.6063 122.9245 291.8298 122.9245 292.0534 122.8128 293.5064 122.701 294.5123 122.2539 294.8476 122.1421 295.2947 122.0304 297.4184 120.9127 297.7537 120.6891 297.8655 120.5773 297.8655 120.4656 298.089 120.0185 298.089 119.9067 297.9772 119.7949 297.8655 119.7949 297.7537 119.6832 297.1948 119.7949 297.0831 119.7949 296.636 120.1303 296.636 120.242 296.5242 120.242 296.4124 120.242 296.4124 120.0185 296.5242 119.9067 296.636 119.6832 297.1948 119.4596 297.7537 119.2361 297.9772 119.1243 298.089 119.1243 299.4303 118.4537 299.9891 118.2301 301.2186 117.7831 302.2245 117.2242 302.4481 117.0007 302.5598 117.0007 303.2305 115.9947 303.454 115.7712 303.7893 115.4359 304.0129 115.4359 304.1246 115.4359 304.2364 115.3241 305.0188 115.2123 305.6894 115.1006 307.2542 114.7652 308.2602 114.4299 308.3719 114.4299 308.7073 114.2064 309.825 113.5358 309.9367 113.424 311.3898 112.8651 311.9486 112.6416 312.0604 112.6416 313.2899 112.0827 314.9664 111.3003 315.6371 110.7415 316.643 109.6238 317.649 108.2825 318.6549 107.1648 319.6608 106.2706 321.6727 103.9234 322.5669 103.6999 322.7904 103.6999 324.3552 103.8117 324.6905 103.8117 325.5847 103.8117 326.7024 103.8117 326.926 103.8117 327.7084 103.9234 328.9378 103.6999 329.0496 103.6999 330.2791 103.6999 330.5026 103.6999 331.7321 103.5881 332.0674 103.4763 332.291 103.3646 333.0734 102.3586 333.1851 102.1351 333.2969 102.1351 333.9675 101.7998 334.1911 101.7998 334.7499 101.688 335.3088 101.5762 335.7559 101.5762 335.9794 101.4645 336.0912 101.3527 337.0971 100.235 337.5442 100.1232 338.7737 99.7879 339.3326 99.4526 339.4443 99.3408 340.0032 98.8937 340.115 98.5584 340.3385 98.1113 340.6738 97.776 340.8974 97.5525 341.4562 96.4348 341.568 96.323 341.6798 96.2112 341.9033 95.9877 343.4681 95.9877 344.3623 95.6524 346.3741 94.6464 347.3801 94.3111 347.7154 94.1993 348.1625 93.9758 349.5037 92.9699 349.8391 92.6345 350.2861 92.411 350.6215 92.0757 352.9686 91.2933 353.6393 91.0697 353.751 90.958 354.3099 89.8403 354.5334 89.6167 354.757 89.2814 354.9805 89.0579 355.4276 88.8343 356.21 88.7226 356.7689 88.6108 356.9924 88.6108 357.1042 88.499 357.4395 88.2755 357.663 88.2755 358.3337 88.9461 359.7867 89.8403 359.8985 89.952 360.9044 90.3991 361.1279 90.7344 361.2397 91.5168 361.3515 91.6286 361.3515 91.7404 361.4633 91.8521 361.575 91.8521 361.6868 92.0757 362.1339 92.0757 362.3574 92.0757 363.0281 92.5228 363.1398 92.411 363.2516 92.2992 363.0281 91.9639 362.2457 91.4051 361.9103 91.2933 361.6868 90.958 361.6868 90.8462 361.6868 90.7344Z" />
</svg>