<?xml version="1.0" encoding="utf-8"?>
<svg xmlns="http://www.w3.org/2000/svg" viewBox="0 0 1021 509" style="stroke-width:0.25px;stroke-linejoin:round;stroke:#444;fill:#ddd" fill-rule="evenodd">
  <path class="Banskobystrický" d="M355.7617 238.3491L363.3622 232.984 365.5976 232.2017 365.8211 232.6487 366.0447 233.2076 366.2682 233.7664 366.4917 234.2135 366.7153 234.5488 367.0506 234.8842 367.3859 235.5548 367.4977 236.0019 370.5155 236.6725 385.7164 237.5667 388.1754 233.0958 388.5107 231.4193 389.1813 228.2897 389.1813 226.9484 389.0695 226.0542 388.846 225.7189 386.4988 223.4835 385.4928 221.5834 385.2693 220.3539 385.4928 219.5715 386.0517 218.9009 386.7223 217.8949 386.9459 216.7772 386.7223 215.2124 385.7164 211.8593 385.7164 210.9651 386.1635 210.2945 389.0695 208.8415 389.9637 207.9473 390.5226 207.1649 392.5344 202.4705 401.029 202.9176 430.5366 198.6703 431.8779 198.6703 432.2132 199.1174 432.4367 200.1233 432.7721 200.4586 433.3309 200.6822 433.6662 201.3528 434.1133 202.247 434.3369 204.4824 434.4486 205.4883 434.4486 206.159 434.2251 206.2707 433.5545 206.3825 433.3309 206.4943 433.1074 206.8296 432.7721 207.9473 433.1074 208.1708 433.5545 208.1708 440.9314 207.0531 441.8255 206.7178 442.8315 205.9354 443.1668 205.4883 443.3903 205.0413 443.6139 204.5942 443.8374 202.8058 444.1727 201.7999 446.0728 199.3409 449.7613 197.1055 455.7969 189.7286 485.7516 184.5871 499.2759 186.2637 510.6766 190.511 512.0178 191.6287 513.0238 192.7464 513.6944 193.0817 515.4827 193.5288 516.1534 193.8641 516.7122 194.423 517.1593 194.9818 518.0535 195.876 518.7241 196.0996 519.3947 196.0996 521.5184 194.8701 529.6777 192.5229 531.3542 192.6347 536.3839 193.9759 553.4849 194.3112 553.932 194.1994 556.0557 193.9759 559.1853 192.5229 560.1912 192.4111 560.9736 192.5229 563.209 194.3112 588.9164 197.5526 592.3813 197.329 595.0638 194.8701 596.2933 194.7583 599.5347 196.5466 602.9996 197.6644 604.0055 198.1114 605.3468 199.2292 612.6119 203.4765 608.5881 204.7059 600.2053 217.3361 599.4229 218.9009 599.5347 220.2421 599.5347 221.1363 599.4229 221.8069 599.3111 224.3777 599.1993 226.5013 599.7582 229.1838 599.87 230.6369 599.0876 231.7546 598.1934 232.8723 597.2992 233.7664 596.7404 234.5488 596.2933 235.2195 596.1815 236.449 596.1815 238.0138 596.8521 241.2551 597.5228 242.8199 598.9758 244.2729 600.9877 244.6083 601.323 244.9436 610.4882 252.544 611.4942 254.4441 615.1826 265.2859 616.4121 270.3156 616.3003 270.7627 616.0768 271.3216 615.965 271.8804 616.0768 272.4393 616.3003 272.9981 616.971 273.557 618.6475 274.4512 619.877 274.7865 621.7771 275.1218 622.4477 275.2336 623.9008 276.1277 625.4656 276.6866 625.9127 277.0219 625.9127 277.469 625.4656 279.2573 624.7949 282.834 624.4596 283.6164 624.1243 284.287 623.6772 284.9576 623.2301 285.8518 622.7831 286.8578 622.336 288.3108 620.9947 294.6817 620.5476 295.7994 619.5417 297.3642 618.8711 298.7055 618.424 299.935 618.0887 301.7233 618.2004 302.7293 618.424 303.7352 618.9828 304.9647 619.2064 305.7471 619.2064 306.5295 619.0946 307.2001 618.9828 307.8707 619.4299 308.7649 620.3241 309.5473 623.4537 311.5592 623.9008 312.0063 623.6772 312.4534 623.3419 313.0122 623.1184 313.4593 623.0066 313.9064 623.1184 314.1299 623.9008 314.2417 631.3894 313.6828 634.1837 314.0182 635.6367 313.9064 638.7663 312.2298 640.1076 311.7827 644.0196 311.671 646.9256 313.9064 647.0374 314.0182 641.6724 319.7185 638.9899 323.2952 636.8662 327.4307 629.9364 348.779 626.248 356.4912 621.7771 363.3092 616.6356 368.5625 612.5001 370.6861 610.3765 369.792 608.3646 367.5565 604.7879 365.7682 602.776 366.6624 597.411 371.6921 594.3932 373.0333 591.2636 372.698 589.4752 372.0274 587.9105 372.2509 585.675 374.9334 585.0044 376.8336 583.9985 381.6397 582.769 383.9869 581.2042 385.2164 577.851 386.5576 570.8095 390.9167 570.1388 391.252 563.4326 393.3757 559.297 395.9464 551.2495 403.4351 547.0022 404.9999 543.3138 403.5469 536.4957 397.3994 532.1366 396.0582 525.6539 398.5172 523.9773 398.2936 522.3008 395.7229 522.7479 393.4875 523.7538 391.1403 523.642 388.5695 520.5124 384.6575 516.2651 383.9869 508.1058 385.5517 506.3175 384.6575 502.4055 379.8514 500.3936 378.1748 498.6053 377.616 496.7052 377.5042 480.2748 381.975 477.257 383.7634 475.2451 387.5636 473.5685 397.9583 471.4449 402.2056 471.4449 402.3174 471.3331 402.4292 471.4449 402.6527 471.4449 402.7645 471.7802 404.2175 471.892 405.6705 471.7802 407.1235 471.4449 408.4648 461.9443 415.2828 437.8018 414.8358 427.1835 421.6538 425.2834 421.9891 403.1527 419.3066 392.4227 420.8714 388.9578 420.7596 388.9578 420.6479 388.7342 418.1889 388.6224 414.8358 388.9578 413.9416 390.9696 411.0355 391.5285 409.6943 392.0873 408.9119 392.758 408.2413 393.6521 407.6824 394.4345 407.0118 395.4405 405.8941 396.7817 404.1057 397.3406 402.3174 397.4524 400.4173 396.4464 395.4993 396.3347 394.1581 396.8935 392.1462 397.2288 391.0285 397.5641 390.2461 398.3465 389.1284 398.5701 388.5695 398.5701 388.1224 398.5701 387.2283 398.6818 386.7812 398.4583 386.1106 398.2348 385.6635 395.7758 382.981 392.9815 385.6635 391.9756 386.3341 391.0814 386.7812 390.1872 386.893 389.6284 386.893 388.5107 386.6694 388.0636 386.7812 387.393 387.0047 384.4869 387.7871 381.9162 389.0166 381.022 389.3519 379.7925 389.5755 378.3395 390.0226 377.6689 390.4696 376.9982 390.805 375.7688 391.1403 375.0981 391.5873 374.5393 392.258 373.9804 393.3757 373.7569 394.2699 373.7569 394.8287 373.6451 395.0523 373.4216 395.2758 373.0862 395.2758 371.9685 395.164 371.1861 395.164 369.5096 395.7229 368.6154 395.8347 367.7212 395.7229 366.2682 395.2758 365.7094 395.2758 364.8152 395.3876 364.2563 395.3876 363.5857 395.164 362.6915 394.7169 359.2266 392.0344 358.4442 391.5873 357.5501 391.3638 356.6559 391.252 355.8735 391.252 355.3146 391.5873 354.8675 392.1462 354.4205 393.0404 354.0851 393.5992 353.6381 393.9345 353.191 394.0463 352.6321 393.9345 352.2968 393.5992 351.738 392.8168 351.4026 391.6991 351.0673 390.3579 351.0673 388.7931 351.4026 387.5636 352.4086 386.2223 353.5263 385.1046 354.3087 384.0987 355.0911 383.7634 355.3146 383.3163 355.3146 382.4221 354.644 380.7455 353.191 378.063 352.8557 377.0571 352.9674 376.3865 353.6381 375.8276 353.8616 375.3805 353.8616 375.0452 352.2968 373.2569 352.4086 372.3627 352.9674 371.0215 355.0911 368.3389 357.2147 366.1035 357.7736 364.874 358.1089 363.8681 359.6737 356.2677 352.6321 340.1726 351.5144 338.8314 346.9318 334.9194 341.7903 327.3189 339.6667 326.7601 338.8843 327.0954 337.8783 327.766 336.2018 329.7779 333.631 332.3486 333.0722 333.0193 332.5133 334.137 331.3956 335.2547 331.1721 335.8135 331.1721 336.4842 330.9485 337.043 330.6132 337.7136 329.8308 338.496 329.6073 339.3902 329.6073 340.2844 329.3837 340.8432 328.9366 341.6256 323.2363 343.414 312.0592 345.2023 309.8238 345.9847 308.3707 347.5495 307.1413 349.4496 306.8059 349.8967 305.5765 351.0144 305.0176 351.5733 304.4587 352.691 303.6763 352.691 301.888 349.6732 302.7822 348.4437 304.2352 346.8789 304.6823 346.32 305.0176 345.6494 305.2411 344.867 305.3529 344.3081 305.6882 343.7493 306.9177 342.7433 307.4766 342.0727 308.1472 340.955 308.7061 339.6138 309.0414 338.049 309.2649 336.2606 309.0414 334.137 308.259 330.5603 306.9177 327.9895 306.0235 326.8718 305.1294 326.6483 304.6823 326.5365 304.2352 326.2012 304.1234 325.307 304.347 323.7422 304.347 322.1774 303.8999 320.6127 302.3351 317.9301 301.7762 316.4771 301.9998 314.6888 302.4469 313.9064 303.8999 311.8945 304.1234 311.4474 304.0117 311.1121 303.0057 310.8886 302.6704 310.5532 302.6704 309.7708 302.8939 308.0943 303.1175 306.8648 303.1175 305.5235 302.7822 304.2941 302.1116 303.5117 300.6585 303.0646 299.0937 303.0646 294.7347 303.9587 294.2876 303.6234 294.5111 302.6175 295.6288 300.4938 298.3113 297.3642 298.6466 296.6936 298.3113 295.7994 297.0818 295.0171 294.5111 290.9933 296.523 286.6342 313.9593 284.3988 314.0711 283.8399 314.1828 283.3928 314.7417 281.6045 314.8535 281.1574 314.8535 280.7103 314.8535 280.375 314.8535 279.9279 314.9652 279.3691 315.1888 278.5867 315.6359 277.8043 316.53 276.5748 319.1008 273.4452 323.9069 266.5154 333.631 269.1979 334.637 269.1979 335.8664 268.8626 335.8664 267.7449 335.5311 265.3977 335.7547 264.8388 336.4253 264.1682 338.996 261.9328 339.6667 261.0386 343.914 252.9911 344.6964 251.8734 345.7023 251.3145 348.3848 251.2028 349.1672 250.9792 349.8378 250.5321 352.2968 246.7319 354.4205 242.2611 355.0911 241.3669 355.4264 240.6963 355.6499 240.1374 355.7617 238.3491Z" />
  <path class="Bratislavský" d="M19.554 292.111L20.2246 292.111 30.9547 288.7579 39.114 288.4226 39.6728 288.3108 39.7846 287.8637 39.5611 287.1931 39.0022 285.8518 40.1199 285.8518 42.4671 286.5224 50.2911 290.2109 52.0794 290.7697 53.0854 290.5462 60.4623 287.3048 62.9212 285.8518 66.1626 284.9576 68.2862 284.8459 69.7393 284.3988 70.5217 283.6164 71.1923 281.9398 71.8629 281.1574 72.6453 280.5986 74.3219 279.8162 75.6631 278.922 75.9985 278.5867 76.3338 278.0278 76.6691 276.9101 77.0044 276.3513 77.4515 275.7924 78.2339 275.01 79.3516 274.2276 79.6869 274.1158 80.0222 274.0041 80.3575 273.8923 80.4693 273.6688 80.6928 273.2217 85.7226 265.0624 87.2873 263.0505 88.4051 262.1563 89.2992 262.3799 89.7463 262.7152 90.1934 263.0505 90.5287 263.3858 92.3171 263.9447 92.9877 264.28 93.6583 264.7271 94.3289 265.6212 95.1113 266.6272 95.782 267.8567 96.229 269.8685 96.229 272.3275 95.2231 275.4571 94.3289 277.3572 91.0876 281.6045 90.5287 282.1634 90.0816 282.3869 89.411 282.4987 88.8521 282.3869 88.1815 282.4987 87.8462 282.9458 86.6167 286.2989 86.2814 286.8578 85.9461 287.1931 83.9342 288.199 83.9342 289.8756 83.04 291.9992 92.7641 301.7233 91.0876 302.841 90.4169 303.5117 89.5228 304.7411 86.8403 308.9884 85.2755 312.118 85.8343 315.1359 88.1815 316.03 90.6405 316.03 90.9758 316.03 91.4229 316.2536 91.7582 316.5889 92.3171 317.1477 93.5465 318.1537 94.5525 319.1596 95.1113 319.4949 95.8937 319.6067 99.0233 319.7185 99.5822 320.0538 99.6939 320.6127 99.2469 321.7304 98.9116 322.1774 98.7998 322.7363 99.1351 323.2952 100.8117 324.7482 101.4823 325.4188 102.7118 327.3189 104.053 328.7719 104.8354 330.0014 107.8532 336.0371 108.5239 336.9312 109.0827 337.4901 110.0887 337.4901 110.8711 337.8254 111.4299 338.3843 112.4359 339.502 112.9947 340.3961 113.4418 341.4021 113.8889 341.8492 113.8889 342.9669 113.4418 344.4199 111.9888 347.9966 110.6475 350.232 110.5358 350.9026 110.5358 351.4615 111.5417 354.4793 121.2658 362.3033 116.3479 368.2272 115.4537 369.9037 115.2301 371.245 115.6772 373.704 116.0125 374.4864 116.4596 374.9334 117.242 375.157 120.9305 376.8336 121.3776 377.7277 121.2658 378.9572 120.9305 381.8633 121.3776 382.8692 121.7129 383.3163 122.4953 383.0927 122.8306 383.0927 123.0541 383.2045 123.3894 383.8751 123.613 384.2105 123.613 385.1046 123.3894 386.3341 122.2717 389.2402 121.6011 390.3579 121.0422 391.0285 120.0363 390.6932 118.0244 391.252 112.4359 395.7229 107.6297 397.8465 106.8473 397.8465 106.0649 397.5112 104.7237 396.5053 103.8295 396.0582 101.4823 395.8347 100.9234 395.6111 100.6999 395.3876 100.6999 394.9405 100.9234 394.3816 101.7058 392.9286 101.3705 391.9227 101.147 391.4756 101.147 391.0285 100.9234 390.6932 100.5881 390.5814 100.0293 390.805 98.9116 391.4756 98.2409 391.8109 97.5703 392.1462 97.1232 392.9286 96.6761 395.6111 96.7879 396.2817 96.8997 396.8406 97.1232 397.2877 98.0174 398.2936 98.3527 398.7407 98.5762 399.1878 98.688 399.5231 98.4645 399.9702 97.9056 400.6408 96.7879 401.0879 96.1173 401.1997 95.3349 401.535 94.6642 402.2056 93.323 403.4351 91.5347 404.6646 90.7523 404.8881 88.7404 404.8881 84.6048 403.8822 83.9342 403.8822 83.5989 404.1057 83.4871 404.5528 84.4931 406.2294 84.6048 406.7882 84.4931 407.4589 84.2695 408.5766 84.2695 409.2472 84.2695 409.6943 84.4931 410.0296 85.9461 411.1473 86.8403 412.1532 87.2873 412.3768 87.6227 412.4886 90.5287 412.265 90.7523 412.265 91.0876 412.4886 91.3111 412.7121 91.6464 413.271 91.5347 413.4945 90.7523 414.2769 88.8521 415.5064 86.1696 417.7418 84.9402 418.3007 84.046 418.4124 83.5989 418.0771 83.1518 418.3007 82.8165 418.7477 82.8165 420.4243 83.04 421.4303 83.3754 422.548 83.1518 423.1068 82.593 423.6657 80.6928 424.7834 79.7987 425.454 76.4455 429.4778 75.5514 436.184 75.5514 436.2958 68.0627 434.1722 61.6917 432.8309 55.209 436.7429 50.9617 433.0545 45.2614 430.9308 41.1259 428.6954 42.1318 424.3363 39.8964 422.548 39.2257 422.1009 40.2317 417.0712 41.2376 414.3887 43.026 412.1532 40.6788 409.6943 39.7846 408.1295 37.2139 403.2116 35.3138 401.9821 32.4077 401.535 29.9487 400.082 25.4779 395.164 24.2484 390.9167 24.1366 385.2164 23.3542 380.2985 20.56 370.6861 20.4482 369.4567 20.6717 366.3271 20.56 365.2094 19.8893 364.3152 18.7716 363.8681 16.7597 362.0798 15.1949 361.2974 13.8537 360.4032 13.1831 358.8384 12.9595 357.6089 12.4007 356.1559 11.8418 354.8146 11.3947 354.144 10.6123 353.6969 10.9476 352.2439 11.6183 350.6791 12.0653 349.5614 11.1712 347.4377 9.3828 345.3141 7.4827 343.8611 6.4768 343.1904 2.9001 342.8551 1.4471 341.9609 1 340.3961 1.1118 337.3783 1.3353 336.2606 1.7824 335.3664 2.2295 333.6899 3.9061 319.3832 4.5767 315.4712 6.365 311.8945 11.0594 305.1882 12.0653 301.6116 13.2948 299.0408 16.3127 296.6936 19.2187 293.564 19.554 292.111Z" />
  <path class="Košický" d="M612.6119 203.4765L615.1826 201.0175 617.3063 195.6525 618.5358 193.8641 619.5417 192.8582 624.7949 189.5051 622.2242 186.1519 619.877 185.3695 617.8651 185.0342 617.3063 184.4754 617.418 183.9165 619.5417 181.9046 621.7771 178.775 622.6713 177.8809 625.0185 176.3161 632.8425 172.8512 634.0719 171.7334 634.519 171.3981 634.9661 171.3981 635.4132 171.6217 635.9721 171.5099 636.8662 171.0628 639.5487 168.3803 640.3311 168.045 640.7782 168.1568 641.2253 168.6039 641.3371 168.9392 642.6783 169.2745 646.7021 171.957 649.4964 175.9807 650.167 176.7631 650.5023 176.9867 650.3905 176.6514 650.167 176.4278 649.9435 176.2043 649.6081 175.7572 649.2728 175.0866 648.9375 173.6336 648.9375 173.0747 649.0493 172.6276 649.4964 172.4041 653.7437 170.951 654.3025 170.6157 654.3025 170.1686 653.4084 168.4921 653.6319 167.5979 654.079 166.7037 655.532 165.2507 656.3144 165.0272 657.2086 165.3625 657.4321 166.0331 656.985 168.045 657.3204 168.8274 658.3263 169.7216 663.0207 173.2982 667.268 175.869 671.0682 176.3161 672.5212 176.6514 673.4154 177.0985 673.7507 177.7691 675.9861 181.4575 676.9921 181.9046 679.1157 182.0164 681.3512 181.7928 683.1395 180.8987 683.9219 180.4516 684.369 180.1163 685.3749 179.1103 685.4867 178.775 685.3749 178.4397 684.8161 177.4338 684.7043 176.9867 684.8161 176.5396 684.9278 176.2043 685.7102 175.7572 686.8279 175.4219 690.0693 175.3101 701.2464 177.0985 701.9171 176.8749 702.2524 176.6514 702.2524 176.4278 701.9171 176.0925 701.0229 175.4219 700.6876 175.1983 700.5758 174.863 700.5758 174.3042 700.5758 173.6336 700.7993 172.6276 700.9111 171.8452 700.9111 171.1746 700.464 170.1686 700.2405 169.7216 700.464 168.9392 701.0229 168.8274 703.0348 169.2745 707.1703 171.1746 709.9646 171.8452 710.9705 172.4041 711.0823 172.9629 710.4117 173.7453 710.4117 174.416 710.9705 175.0866 712.9824 176.0925 714.2119 176.3161 714.9943 176.4278 720.6946 175.1983 724.2713 178.3279 727.9597 178.8868 732.9894 182.2399 733.7718 182.3517 733.9954 182.0164 734.1072 181.6811 734.7778 181.3458 735.7837 181.0105 738.2427 180.5634 739.2486 180.6751 739.9193 181.1222 740.3663 182.5752 740.4781 183.2459 740.4781 183.8047 740.4781 184.5871 740.8134 185.8166 741.5958 187.0461 744.6136 189.9521 745.0607 190.6228 745.1725 191.0699 745.2843 191.7405 745.6196 192.6347 746.7373 194.1994 747.4079 194.8701 748.0785 195.0936 748.7492 194.9818 749.308 194.7583 751.767 194.5348 758.585 196.7702 761.9382 197.2173 762.8323 197.2173 766.0737 196.0996 766.9679 196.2113 767.6385 196.4349 768.1974 196.882 769.0915 197.329 769.6504 197.8879 770.2092 198.335 770.5446 198.8938 771.1034 199.6762 771.9976 200.6822 773.5624 202.1352 774.5683 202.5823 778.2568 201.9117 780.8275 202.8058 782.5041 202.9176 783.8453 203.4765 784.963 204.3706 785.8572 204.7059 786.8631 204.5942 787.9809 204.1471 788.5397 204.2589 788.7633 204.5942 788.875 205.0413 789.0986 205.9354 789.0986 206.3825 788.875 206.8296 787.7573 207.8355 787.422 208.2826 787.0867 208.8415 786.0807 210.1827 785.7454 210.7416 785.5219 211.3004 785.6337 211.8593 785.6337 212.5299 787.6455 215.6595 790.8869 218.6773 792.787 219.6833 795.0224 219.9068 797.3696 219.5715 797.8167 219.4597 798.0403 219.1244 798.0403 218.9009 797.705 218.6773 796.8108 217.8949 796.5872 217.5596 796.4755 217.0008 796.3637 216.4419 796.4755 215.7713 796.8108 215.3242 797.2579 214.7653 797.9285 214.5418 798.8227 214.43 801.3934 214.43 802.1758 214.2065 804.2994 213.4241 807.2055 213.0888 807.7644 212.977 808.435 212.6417 808.9938 211.9711 809.5527 210.8534 810.1116 208.8415 810.5586 205.3766 810.4469 204.4824 810.2233 203.9235 809.6645 202.8058 809.888 202.247 810.5586 201.7999 812.1234 201.241 813.0176 201.241 813.6882 201.4646 814.9177 202.5823 815.7001 203.3647 816.1472 203.4765 816.4825 202.9176 816.7061 201.9117 816.9296 199.788 817.2649 199.3409 817.6002 199.3409 817.8238 200.0116 817.8238 200.6822 818.3826 201.5763 819.165 202.4705 821.4004 203.7 822.7417 203.9235 824.1947 203.4765 825.0889 202.9176 825.536 202.4705 827.9949 201.241 830.1186 206.4943 830.3421 207.7238 830.5657 210.518 831.1245 212.1946 832.1305 214.2065 832.9129 215.5477 838.1661 224.9365 849.3432 229.2956 853.9259 230.1898 857.0554 229.9662 858.5085 230.1898 859.738 230.7486 863.0911 233.2076 865.103 233.8782 866.7795 233.99 868.2326 233.7664 869.2385 233.4311 869.9091 232.984 870.3562 232.6487 870.6915 232.2017 870.9151 231.3075 871.0268 230.8604 872.2563 230.3015 876.3919 229.5191 879.2979 226.9484 882.651 225.8307 883.657 225.1601 884.3276 224.3777 884.8865 222.9246 885.2218 221.6952 885.2218 220.6892 884.8865 219.6833 883.8805 217.2243 883.657 216.4419 883.5452 215.7713 883.657 214.0947 883.5452 213.5359 882.8746 210.7416 882.7628 209.6239 882.7628 206.0472 882.651 205.2648 882.4275 204.8177 882.3157 204.2589 882.5393 197.4408 889.2455 197.5526 906.4583 203.2529 908.9173 204.3706 909.9232 205.0413 910.3703 205.4883 910.2585 205.8237 911.3762 206.8296 919.5355 211.7475 923.224 212.7535 926.5771 212.8652 931.9421 211.9711 942.2251 211.7475 942.8957 211.524 943.231 211.3004 943.4546 210.518 943.3428 209.1768 942.8957 206.6061 942.1133 204.1471 942.0015 203.4765 942.0015 202.8058 942.0015 202.247 942.6722 201.5763 943.1193 201.0175 946.9195 199.4527 953.6257 190.2875 958.4319 190.1757 961.5615 191.964 962.1204 193.0817 962.3439 194.0877 962.3439 195.0936 962.6792 196.4349 965.3617 202.9176 965.4735 204.7059 965.697 206.0472 966.3677 206.7178 967.2618 207.0531 973.1857 206.7178 977.7683 205.3766 978.6625 205.2648 986.8218 207.3884 986.9336 207.3884 986.5982 207.9473 985.3688 211.1887 985.257 213.3123 985.5923 215.5477 986.0394 224.713 985.5923 226.6131 984.3628 229.6309 983.6922 230.7486 983.5804 230.7486 983.3569 230.8604 983.2451 230.9722 983.1333 231.1957 982.798 231.7546 982.6862 231.9781 981.1215 233.2076 979.7802 234.9959 979.2213 238.6844 979.4449 244.4965 978.3272 250.1968 976.0917 255.2265 975.0858 256.6795 974.8623 256.6795 974.7505 256.6795 974.7505 257.1266 974.3034 257.6855 974.0799 257.7972 973.8563 257.909 973.521 258.2443 973.0739 258.4679 972.6268 258.5796 972.5151 258.8032 972.2915 258.915 972.2915 259.1385 972.4033 259.362 971.8444 259.9209 971.7327 260.0327 971.062 260.4798 966.3677 261.9328 964.1322 263.4976 962.791 265.3977 961.0026 269.645 959.8849 271.5451 959.7732 271.5451 959.2143 271.5451 958.2084 272.4393 957.9848 272.551 957.426 273.6688 955.9729 274.7865 955.8612 274.7865 955.6376 274.8982 955.5259 274.7865 955.3023 274.7865 955.1905 274.6747 954.967 274.6747 954.8552 274.5629 954.7435 274.5629 954.5199 274.5629 954.5199 274.6747 954.4081 274.6747 954.4081 274.7865 954.4081 274.8982 954.4081 275.01 954.4081 275.1218 954.5199 275.1218 954.5199 275.2336 954.5199 275.3453 954.5199 275.5689 954.5199 275.6806 954.4081 275.6806 954.4081 275.7924 954.4081 275.9042 954.4081 276.016 954.2964 276.016 954.2964 276.1277 953.6257 276.6866 953.514 276.6866 953.514 276.7983 948.149 281.0457 945.5782 285.5165 945.1311 290.9933 947.2548 301.8351 946.5842 306.0824 944.684 310.4415 944.4605 329.8897 941.1074 334.137 937.9778 336.7077 934.6246 337.6019 924.0064 336.5959 920.765 336.8195 917.5237 337.9372 908.1349 338.3843 905.5641 339.3902 900.0873 342.5198 892.4869 343.7493 883.2099 348.4437 877.7331 348.8908 872.1446 346.9906 867.4502 343.5257 863.2029 338.6078 853.2552 323.1834 851.8022 320.2773 849.455 309.212 847.8902 306.0824 844.8724 305.4118 838.2779 305.5235 835.4836 304.1823 834.2541 302.2822 832.6893 297.1407 831.4598 294.7935 829.895 293.3405 826.6537 292.111 820.7298 288.5343 818.1591 287.7519 808.8821 290.658 802.7347 290.7697 799.8286 291.4404 796.2519 293.4523 794.7989 296.023 793.793 298.8173 791.6693 301.8351 789.0986 303.3999 787.0867 302.5057 784.8513 300.6056 781.6099 299.1526 775.686 300.4938 761.8264 307.2001 757.3556 306.0824 753.7789 302.5057 748.7492 300.2703 743.4959 299.3761 739.0251 299.7114 732.6541 299.1526 722.93 293.1169 717.3415 292.5581 714.7707 291.8875 709.5175 287.0813 706.7232 285.6283 703.8172 285.6283 666.0385 294.3464 654.9732 295.1288 649.8317 297.2525 649.7199 299.2644 649.6081 301.4998 649.9435 306.1942 650.0552 307.0883 650.0552 308.0943 650.0552 308.9884 649.8317 309.9944 647.4845 313.5711 647.0374 314.0182 646.9256 313.9064 644.0196 311.671 640.1076 311.7827 638.7663 312.2298 635.6367 313.9064 634.1837 314.0182 631.3894 313.6828 623.9008 314.2417 623.1184 314.1299 623.0066 313.9064 623.1184 313.4593 623.3419 313.0122 623.6772 312.4534 623.9008 312.0063 623.4537 311.5592 620.3241 309.5473 619.4299 308.7649 618.9828 307.8707 619.0946 307.2001 619.2064 306.5295 619.2064 305.7471 618.9828 304.9647 618.424 303.7352 618.2004 302.7293 618.0887 301.7233 618.424 299.935 618.8711 298.7055 619.5417 297.3642 620.5476 295.7994 620.9947 294.6817 622.336 288.3108 622.7831 286.8578 623.2301 285.8518 623.6772 284.9576 624.1243 284.287 624.4596 283.6164 624.7949 282.834 625.4656 279.2573 625.9127 277.469 625.9127 277.0219 625.4656 276.6866 623.9008 276.1277 622.4477 275.2336 621.7771 275.1218 619.877 274.7865 618.6475 274.4512 616.971 273.557 616.3003 272.9981 616.0768 272.4393 615.965 271.8804 616.0768 271.3216 616.3003 270.7627 616.4121 270.3156 615.1826 265.2859 611.4942 254.4441 610.4882 252.544 601.323 244.9436 600.9877 244.6083 598.9758 244.2729 597.5228 242.8199 596.8521 241.2551 596.1815 238.0138 596.1815 236.449 596.2933 235.2195 596.7404 234.5488 597.2992 233.7664 598.1934 232.8723 599.0876 231.7546 599.87 230.6369 599.7582 229.1838 599.1993 226.5013 599.3111 224.3777 599.4229 221.8069 599.5347 221.1363 599.5347 220.2421 599.4229 218.9009 600.2053 217.3361 608.5881 204.7059 612.6119 203.4765Z" />
  <path class="Nitriansky" d="M157.0326 498.4406L157.0326 498.3288 158.4856 496.8758 159.1562 494.9757 160.3857 488.7165 160.8328 487.8223 161.1681 487.3752 161.6152 487.487 162.3976 487.9341 162.7329 487.9341 163.0682 487.9341 163.5153 488.0459 163.8506 488.1576 164.9683 487.9341 166.4213 487.1517 169.7745 484.4692 171.004 483.2397 171.7864 482.122 171.8981 476.4217 172.457 474.6333 173.1276 473.4039 174.1336 472.2861 174.6924 471.8391 175.1395 471.7273 175.4748 471.8391 176.1454 471.392 177.4867 470.386 179.4986 467.48 183.7459 463.6798 186.7637 461.7796 187.8814 460.6619 188.105 459.656 187.5461 458.4265 186.4284 456.4146 186.7637 453.285 187.099 452.3909 187.3226 451.4967 187.4343 450.4908 187.2108 449.4848 186.9872 448.7024 185.646 447.4729 186.0931 440.6549 184.8636 431.3779 185.7578 425.5658 185.646 424.1128 185.1989 423.1068 184.7518 422.6597 184.3047 422.548 183.7459 422.548 183.4106 422.548 182.6282 422.2127 181.3987 422.1009 180.8398 421.8773 180.0574 421.2067 179.7221 420.7596 179.8339 420.089 180.5045 417.9653 180.1692 417.0712 179.6103 416.7359 178.4926 416.8476 175.5866 417.9653 174.6924 417.9653 173.91 417.7418 172.6805 416.7359 172.1217 416.0652 172.0099 415.1711 172.3452 414.1651 173.7982 410.4767 173.91 408.353 172.9041 406.4529 165.0801 397.7348 165.0801 396.8406 165.7507 396.0582 168.6568 394.8287 169.5509 394.7169 170.2216 394.8287 171.451 395.4993 172.6805 396.2817 173.2394 396.3935 173.6865 396.3935 174.2453 396.17 174.8042 395.9464 175.1395 395.4993 175.4748 395.0523 175.9219 393.711 176.0337 392.1462 175.4748 390.6932 174.0218 387.6754 173.4629 386.4459 173.4629 385.6635 174.6924 385.1046 175.363 384.6575 175.6983 384.6575 176.2572 384.8811 178.7162 387.8989 179.0515 388.1224 179.4986 388.0107 181.5105 386.4459 184.4165 384.6575 185.1989 383.9869 185.7578 383.0927 186.3166 381.0809 186.3166 379.6278 185.9813 378.6219 185.4224 377.7277 183.6341 375.9394 183.187 375.4923 182.7399 375.3805 182.2928 374.9334 181.734 374.151 181.0634 372.0274 180.8398 371.1332 181.0634 370.2391 181.5105 369.792 182.0693 368.786 182.0693 368.1154 181.734 367.333 181.6222 366.6624 181.9575 365.88 182.7399 364.7623 183.9694 362.6386 179.275 358.3913 179.0515 357.8325 178.8279 357.0501 179.275 356.603 179.7221 356.1559 179.9457 355.4853 180.7281 350.9026 180.8398 349.8967 180.9516 348.779 181.1751 347.9966 181.9575 344.0846 184.9754 341.0668 197.6055 318.2655 201.5175 313.9064 193.47 305.7471 189.558 302.5057 188.8873 302.1704 188.4403 302.1704 180.6163 298.0349 183.6341 294.57 183.9694 294.0111 189.4462 279.8162 190.2286 278.4749 190.7875 278.4749 191.3463 278.6985 193.5817 280.2633 194.6994 280.375 196.2642 280.2633 204.5353 276.9101 205.4295 276.2395 205.7648 275.6806 205.653 275.1218 205.4295 274.6747 204.9824 272.9981 208.4473 269.1979 208.8944 268.8626 209.565 268.6391 210.1239 268.9744 210.7945 269.3097 211.2416 268.9744 211.4651 268.3037 211.8004 266.6272 211.9122 265.3977 211.8004 263.9447 211.4651 262.1563 211.2416 261.821 211.1298 261.5975 210.9063 261.3739 210.6827 261.1504 210.571 260.7033 210.4592 260.5915 210.2356 260.4798 210.1239 260.368 210.0121 260.1444 209.2297 258.4679 209.0062 257.5737 208.7826 257.1266 208.6708 256.9031 208.4473 256.6795 208.3355 256.2325 208.112 255.4501 208.2238 253.6617 208.112 252.4322 207.8884 251.3145 207.5531 249.638 207.5531 248.7438 207.6649 247.9614 208.5591 246.8437 209.9003 245.8377 213.5888 246.173 214.1476 246.5084 214.5947 246.8437 214.7065 247.4025 214.5947 248.1849 214.8183 249.3026 215.1536 249.7497 227.7837 252.4322 229.2367 253.3264 233.1487 257.4619 234.1547 258.6914 236.0548 262.3799 237.5078 264.3917 245.22 268.8626 248.3496 269.645 250.3615 271.6569 251.8145 274.0041 251.9263 275.6806 250.9204 278.2514 249.3556 280.4868 247.9025 283.1693 247.7908 284.9576 248.1261 286.0754 248.5732 286.6342 249.132 287.3048 249.2438 288.5343 249.6909 289.0932 250.4733 289.3167 252.5969 289.205 253.2675 289.5403 253.9382 290.0991 254.8323 291.1051 258.409 293.4523 259.1914 294.3464 260.868 298.1466 262.8799 304.1823 267.2389 305.7471 268.4684 305.8589 268.5802 305.6353 268.9155 304.6294 269.4744 303.7352 269.8097 303.5117 270.145 303.7352 271.2627 305.4118 272.4922 306.4177 272.9393 306.3059 273.1628 306.0824 273.1628 305.7471 273.2746 305.5235 273.6099 305.1882 276.2924 303.6234 281.9927 298.5937 294.5111 290.9933 297.0818 295.0171 298.3113 295.7994 298.6466 296.6936 298.3113 297.3642 295.6288 300.4938 294.5111 302.6175 294.2876 303.6234 294.7347 303.9587 299.0937 303.0646 300.6585 303.0646 302.1116 303.5117 302.7822 304.2941 303.1175 305.5235 303.1175 306.8648 302.8939 308.0943 302.6704 309.7708 302.6704 310.5532 303.0057 310.8886 304.0117 311.1121 304.1234 311.4474 303.8999 311.8945 302.4469 313.9064 301.9998 314.6888 301.7762 316.4771 302.3351 317.9301 303.8999 320.6127 304.347 322.1774 304.347 323.7422 304.1234 325.307 304.2352 326.2012 304.6823 326.5365 305.1294 326.6483 306.0235 326.8718 306.9177 327.9895 308.259 330.5603 309.0414 334.137 309.2649 336.2606 309.0414 338.049 308.7061 339.6138 308.1472 340.955 307.4766 342.0727 306.9177 342.7433 305.6882 343.7493 305.3529 344.3081 305.2411 344.867 305.0176 345.6494 304.6823 346.32 304.2352 346.8789 302.7822 348.4437 301.888 349.6732 303.6763 352.691 304.4587 352.691 305.0176 351.5733 305.5765 351.0144 306.8059 349.8967 307.1413 349.4496 308.3707 347.5495 309.8238 345.9847 312.0592 345.2023 323.2363 343.414 328.9366 341.6256 329.3837 340.8432 329.6073 340.2844 329.6073 339.3902 329.8308 338.496 330.6132 337.7136 330.9485 337.043 331.1721 336.4842 331.1721 335.8135 331.3956 335.2547 332.5133 334.137 333.0722 333.0193 333.631 332.3486 336.2018 329.7779 337.8783 327.766 338.8843 327.0954 339.6667 326.7601 341.7903 327.3189 346.9318 334.9194 351.5144 338.8314 352.6321 340.1726 359.6737 356.2677 358.1089 363.8681 357.7736 364.874 357.2147 366.1035 355.0911 368.3389 352.9674 371.0215 352.4086 372.3627 352.2968 373.2569 353.8616 375.0452 353.8616 375.3805 353.6381 375.8276 352.9674 376.3865 352.8557 377.0571 353.191 378.063 354.644 380.7455 355.3146 382.4221 355.3146 383.3163 355.0911 383.7634 354.3087 384.0987 353.5263 385.1046 352.4086 386.2223 351.4026 387.5636 351.0673 388.7931 351.0673 390.3579 351.4026 391.6991 351.738 392.8168 352.2968 393.5992 352.6321 393.9345 353.191 394.0463 353.6381 393.9345 354.0851 393.5992 354.4205 393.0404 354.8675 392.1462 355.3146 391.5873 355.8735 391.252 356.6559 391.252 357.5501 391.3638 358.4442 391.5873 359.2266 392.0344 362.6915 394.7169 363.5857 395.164 364.2563 395.3876 364.8152 395.3876 365.7094 395.2758 366.2682 395.2758 367.7212 395.7229 368.6154 395.8347 369.5096 395.7229 371.1861 395.164 371.9685 395.164 373.0862 395.2758 373.4216 395.2758 373.6451 395.0523 373.7569 394.8287 373.7569 394.2699 373.9804 393.3757 374.5393 392.258 375.0981 391.5873 375.7688 391.1403 376.9982 390.805 377.6689 390.4696 378.3395 390.0226 379.7925 389.5755 381.022 389.3519 381.9162 389.0166 384.4869 387.7871 387.393 387.0047 388.0636 386.7812 388.5107 386.6694 389.6284 386.893 390.1872 386.893 391.0814 386.7812 391.9756 386.3341 392.9815 385.6635 395.7758 382.981 398.2348 385.6635 398.4583 386.1106 398.6818 386.7812 398.5701 387.2283 398.5701 388.1224 398.5701 388.5695 398.3465 389.1284 397.5641 390.2461 397.2288 391.0285 396.8935 392.1462 396.3347 394.1581 396.4464 395.4993 397.4524 400.4173 397.3406 402.3174 396.7817 404.1057 395.4405 405.8941 394.4345 407.0118 393.6521 407.6824 392.758 408.2413 392.0873 408.9119 391.5285 409.6943 390.9696 411.0355 388.9578 413.9416 388.6224 414.8358 388.7342 418.1889 388.9578 420.6479 388.9578 420.7596 384.934 420.5361 382.2515 421.7656 373.6451 423.6657 356.6559 427.5777 353.6381 430.0366 348.8319 439.9843 347.1553 441.5491 343.6904 442.1079 342.0139 443.0021 339.6667 445.9081 339.8902 446.9141 341.2315 447.92 341.7903 451.0496 340.002 462.0032 339.5549 467.7035 340.6726 472.6215 345.9259 477.7629 352.7439 482.7926 352.5204 482.9044 348.1613 484.4692 344.0257 485.4751 341.0079 487.8223 335.084 494.6404 330.725 497.3229 325.4717 497.8817 320.2185 496.764 313.7358 493.9697 305.6882 493.2991 269.1391 497.5464 255.8383 503.0232 249.2438 503.6938 227.2249 501.3466 186.3166 504.0292 176.0337 504.6998 161.0563 500.676 157.0326 498.4406Z" />
  <path class="Prešov" d="M563.209 194.3112L569.3564 191.6287 571.2565 190.0639 573.1567 188.052 573.6037 186.9343 573.1567 186.3755 571.1448 185.9284 570.3624 185.5931 569.8035 185.0342 569.3564 184.2518 569.0211 183.2459 568.2387 180.5634 568.0152 178.2162 567.4563 176.8749 566.5622 175.7572 565.4444 174.7513 559.4088 166.7037 559.1853 165.586 559.4088 164.9154 559.9677 164.8036 561.3089 164.9154 562.3149 164.9154 564.215 163.9095 565.4444 163.7977 566.0033 163.1271 566.3386 161.4505 566.5622 157.9856 567.4563 154.0736 567.6799 151.8382 567.6799 148.8204 568.7976 140.7728 568.6858 138.6492 568.127 137.5315 567.2328 137.6432 566.2268 137.9785 563.8796 139.0963 560.303 139.6551 559.6323 139.6551 559.0735 139.208 558.5146 138.5374 557.9558 137.4197 557.3969 137.1961 556.9498 137.4197 556.5028 137.8668 555.9439 137.6432 555.2733 136.6373 554.1556 133.9548 553.2614 132.5018 552.2554 131.4958 551.1377 131.2723 549.7965 131.4958 549.1259 131.8311 548.4552 132.5018 548.1199 133.0606 547.6728 133.1724 547.114 132.8371 546.2198 131.2723 545.9963 129.5957 545.9963 126.2426 545.3256 123.6718 544.4315 121.4364 540.6312 115.0655 540.4077 114.1713 543.8726 110.5946 547.114 108.2474 552.8143 107.5768 557.844 110.1475 567.0092 118.8657 572.9331 121.7717 576.398 119.0892 578.2981 112.2712 579.3041 102.6589 581.5395 99.9763 582.769 96.9585 583.7749 93.7172 587.1281 86.005 588.134 84.6637 588.5811 85.1108 592.6048 85.5579 594.2814 83.8813 598.1934 79.2987 600.8759 77.7339 614.6238 76.5044 615.5179 75.2749 616.8592 71.4747 617.7534 67.5627 618.0887 65.1037 618.7593 63.4272 620.6594 61.9741 622.7831 61.9741 630.0482 64.7684 639.2134 64.4331 639.2134 59.627 642.0077 59.0681 657.0968 66.7803 661.0088 67.6745 665.2561 66.2215 667.268 64.3213 670.0623 60.7447 671.9624 59.7387 673.5272 59.627 677.4392 60.1858 684.1454 59.0681 686.9397 59.627 702.8112 78.5163 705.6055 80.6399 709.6293 81.1988 712.6471 81.087 715.4414 81.5341 718.7945 83.9931 721.7006 87.0109 724.6066 89.1345 727.848 89.8052 732.0953 88.2404 735.8955 84.8872 741.8194 76.2809 745.396 72.7042 748.1903 72.1453 751.9905 72.1453 755.3437 71.4747 756.7967 68.904 754.5613 64.7684 750.4257 62.3095 748.3021 59.8505 751.8788 55.715 754.673 54.4855 761.8264 53.0325 764.6207 53.256 767.862 55.4914 770.4328 58.2857 773.1153 60.1858 777.0273 59.5152 780.0451 56.7209 785.6337 48.4498 788.875 46.1026 791.334 46.7733 801.2816 52.1383 818.7179 57.0562 821.624 57.0562 828.2185 55.4914 830.901 56.2738 834.1424 55.0443 836.8249 53.9266 849.5668 52.4736 852.9199 53.3678 854.7083 54.4855 858.0614 57.7268 859.8497 59.0681 861.191 59.1799 863.9853 58.621 865.7736 59.1799 868.7914 62.1977 874.7153 71.4747 877.5096 73.7101 879.4097 72.4806 881.8686 69.4628 884.9982 66.6685 888.5749 65.9979 891.8163 67.7862 898.4108 73.8219 908.0231 78.6281 914.3941 84.7755 919.5355 93.0465 921.771 102.7706 923.0004 111.377 928.0301 115.1772 940.6603 117.5244 946.4724 121.3246 948.596 122.2188 950.3844 122.3306 954.6317 121.7717 956.0847 122.107 958.0966 124.2307 958.0966 126.2426 957.5377 127.9191 957.9848 129.7075 959.3261 130.8252 967.7089 133.3959 977.5448 132.9488 981.345 134.5136 990.3985 143.5671 996.8812 145.579 1010.8526 146.2496 1017 149.2674 1015.6587 153.7383 1014.4293 159.9975 1013.5351 166.2567 1013.6469 169.8333 1013.3116 169.8333 1012.4174 169.8333 1012.3056 169.7216 1011.8585 169.498 1011.635 169.3862 1011.1879 169.1627 1010.9644 168.9392 1010.629 168.9392 1010.0702 169.0509 1009.2878 169.2745 1009.0642 169.3862 1008.7289 170.0569 1008.3936 170.3922 1008.2818 170.504 1007.4994 170.8393 1006.9406 170.8393 1006.3817 170.951 1006.1582 171.0628 1005.9347 171.3981 1005.9347 171.6217 1005.9347 172.4041 1005.9347 172.9629 1005.9347 173.2982 1005.8229 173.8571 1005.7111 173.9689 1004.0345 174.1924 1000.905 176.6514 997.2165 187.3814 997.1047 187.4932 996.8812 187.8285 996.8812 188.052 996.5459 188.1638 996.6576 188.9462 994.7575 192.97 994.534 194.3112 994.6458 197.7761 994.1987 199.4527 992.6339 201.7999 991.2926 202.247 991.1809 202.3587 991.0691 203.0294 988.2748 205.4883 986.9336 207.3884 986.8218 207.3884 978.6625 205.2648 977.7683 205.3766 973.1857 206.7178 967.2618 207.0531 966.3677 206.7178 965.697 206.0472 965.4735 204.7059 965.3617 202.9176 962.6792 196.4349 962.3439 195.0936 962.3439 194.0877 962.1204 193.0817 961.5615 191.964 958.4319 190.1757 953.6257 190.2875 946.9195 199.4527 943.1193 201.0175 942.6722 201.5763 942.0015 202.247 942.0015 202.8058 942.0015 203.4765 942.1133 204.1471 942.8957 206.6061 943.3428 209.1768 943.4546 210.518 943.231 211.3004 942.8957 211.524 942.2251 211.7475 931.9421 211.9711 926.5771 212.8652 923.224 212.7535 919.5355 211.7475 911.3762 206.8296 910.2585 205.8237 910.3703 205.4883 909.9232 205.0413 908.9173 204.3706 906.4583 203.2529 889.2455 197.5526 882.5393 197.4408 882.3157 204.2589 882.4275 204.8177 882.651 205.2648 882.7628 206.0472 882.7628 209.6239 882.8746 210.7416 883.5452 213.5359 883.657 214.0947 883.5452 215.7713 883.657 216.4419 883.8805 217.2243 884.8865 219.6833 885.2218 220.6892 885.2218 221.6952 884.8865 222.9246 884.3276 224.3777 883.657 225.1601 882.651 225.8307 879.2979 226.9484 876.3919 229.5191 872.2563 230.3015 871.0268 230.8604 870.9151 231.3075 870.6915 232.2017 870.3562 232.6487 869.9091 232.984 869.2385 233.4311 868.2326 233.7664 866.7795 233.99 865.103 233.8782 863.0911 233.2076 859.738 230.7486 858.5085 230.1898 857.0554 229.9662 853.9259 230.1898 849.3432 229.2956 838.1661 224.9365 832.9129 215.5477 832.1305 214.2065 831.1245 212.1946 830.5657 210.518 830.3421 207.7238 830.1186 206.4943 827.9949 201.241 825.536 202.4705 825.0889 202.9176 824.1947 203.4765 822.7417 203.9235 821.4004 203.7 819.165 202.4705 818.3826 201.5763 817.8238 200.6822 817.8238 200.0116 817.6002 199.3409 817.2649 199.3409 816.9296 199.788 816.7061 201.9117 816.4825 202.9176 816.1472 203.4765 815.7001 203.3647 814.9177 202.5823 813.6882 201.4646 813.0176 201.241 812.1234 201.241 810.5586 201.7999 809.888 202.247 809.6645 202.8058 810.2233 203.9235 810.4469 204.4824 810.5586 205.3766 810.1116 208.8415 809.5527 210.8534 808.9938 211.9711 808.435 212.6417 807.7644 212.977 807.2055 213.0888 804.2994 213.4241 802.1758 214.2065 801.3934 214.43 798.8227 214.43 797.9285 214.5418 797.2579 214.7653 796.8108 215.3242 796.4755 215.7713 796.3637 216.4419 796.4755 217.0008 796.5872 217.5596 796.8108 217.8949 797.705 218.6773 798.0403 218.9009 798.0403 219.1244 797.8167 219.4597 797.3696 219.5715 795.0224 219.9068 792.787 219.6833 790.8869 218.6773 787.6455 215.6595 785.6337 212.5299 785.6337 211.8593 785.5219 211.3004 785.7454 210.7416 786.0807 210.1827 787.0867 208.8415 787.422 208.2826 787.7573 207.8355 788.875 206.8296 789.0986 206.3825 789.0986 205.9354 788.875 205.0413 788.7633 204.5942 788.5397 204.2589 787.9809 204.1471 786.8631 204.5942 785.8572 204.7059 784.963 204.3706 783.8453 203.4765 782.5041 202.9176 780.8275 202.8058 778.2568 201.9117 774.5683 202.5823 773.5624 202.1352 771.9976 200.6822 771.1034 199.6762 770.5446 198.8938 770.2092 198.335 769.6504 197.8879 769.0915 197.329 768.1974 196.882 767.6385 196.4349 766.9679 196.2113 766.0737 196.0996 762.8323 197.2173 761.9382 197.2173 758.585 196.7702 751.767 194.5348 749.308 194.7583 748.7492 194.9818 748.0785 195.0936 747.4079 194.8701 746.7373 194.1994 745.6196 192.6347 745.2843 191.7405 745.1725 191.0699 745.0607 190.6228 744.6136 189.9521 741.5958 187.0461 740.8134 185.8166 740.4781 184.5871 740.4781 183.8047 740.4781 183.2459 740.3663 182.5752 739.9193 181.1222 739.2486 180.6751 738.2427 180.5634 735.7837 181.0105 734.7778 181.3458 734.1072 181.6811 733.9954 182.0164 733.7718 182.3517 732.9894 182.2399 727.9597 178.8868 724.2713 178.3279 720.6946 175.1983 714.9943 176.4278 714.2119 176.3161 712.9824 176.0925 710.9705 175.0866 710.4117 174.416 710.4117 173.7453 711.0823 172.9629 710.9705 172.4041 709.9646 171.8452 707.1703 171.1746 703.0348 169.2745 701.0229 168.8274 700.464 168.9392 700.2405 169.7216 700.464 170.1686 700.9111 171.1746 700.9111 171.8452 700.7993 172.6276 700.5758 173.6336 700.5758 174.3042 700.5758 174.863 700.6876 175.1983 701.0229 175.4219 701.9171 176.0925 702.2524 176.4278 702.2524 176.6514 701.9171 176.8749 701.2464 177.0985 690.0693 175.3101 686.8279 175.4219 685.7102 175.7572 684.9278 176.2043 684.8161 176.5396 684.7043 176.9867 684.8161 177.4338 685.3749 178.4397 685.4867 178.775 685.3749 179.1103 684.369 180.1163 683.9219 180.4516 683.1395 180.8987 681.3512 181.7928 679.1157 182.0164 676.9921 181.9046 675.9861 181.4575 673.7507 177.7691 673.4154 177.0985 672.5212 176.6514 671.0682 176.3161 667.268 175.869 663.0207 173.2982 658.3263 169.7216 657.3204 168.8274 656.985 168.045 657.4321 166.0331 657.2086 165.3625 656.3144 165.0272 655.532 165.2507 654.079 166.7037 653.6319 167.5979 653.4084 168.4921 654.3025 170.1686 654.3025 170.6157 653.7437 170.951 649.4964 172.4041 649.0493 172.6276 648.9375 173.0747 648.9375 173.6336 649.2728 175.0866 649.6081 175.7572 649.9435 176.2043 650.167 176.4278 650.3905 176.6514 650.5023 176.9867 650.167 176.7631 649.4964 175.9807 646.7021 171.957 642.6783 169.2745 641.3371 168.9392 641.2253 168.6039 640.7782 168.1568 640.3311 168.045 639.5487 168.3803 636.8662 171.0628 635.9721 171.5099 635.4132 171.6217 634.9661 171.3981 634.519 171.3981 634.0719 171.7334 632.8425 172.8512 625.0185 176.3161 622.6713 177.8809 621.7771 178.775 619.5417 181.9046 617.418 183.9165 617.3063 184.4754 617.8651 185.0342 619.877 185.3695 622.2242 186.1519 624.7949 189.5051 619.5417 192.8582 618.5358 193.8641 617.3063 195.6525 615.1826 201.0175 612.6119 203.4765 605.3468 199.2292 604.0055 198.1114 602.9996 197.6644 599.5347 196.5466 596.2933 194.7583 595.0638 194.8701 592.3813 197.329 588.9164 197.5526 563.209 194.3112Z" />
  <path class="Trenciansky" d="M271.598 78.8516L272.4922 80.0811 275.6218 81.087 275.7336 83.2107 275.7336 83.7695 275.8453 84.3284 276.0689 84.7755 287.0224 103.1059 287.4695 104.1119 287.6931 104.7825 287.6931 105.2296 287.3578 105.9002 287.3578 106.2355 287.4695 106.6826 288.3637 108.471 288.5872 109.0298 288.699 109.4769 288.5872 109.7004 288.9226 110.3711 291.158 114.3948 292.1639 115.7361 293.0581 116.742 297.4172 119.6481 297.6407 119.6481 298.3113 119.6481 298.7584 119.7598 299.3173 120.2069 301.4409 122.2188 302.2233 122.7777 302.8939 123.0012 303.8999 123.3365 307.253 125.3484 308.1472 126.2426 309.6002 128.2545 310.0473 129.5957 310.1591 131.6076 310.0473 132.6135 310.2708 133.7312 310.3826 134.2901 312.618 137.755 307.8119 142.7847 307.1413 143.7906 307.3648 144.2377 307.7001 144.3495 308.3707 144.3495 310.9415 145.1319 311.2768 145.3554 311.7239 145.8025 312.0592 146.2496 312.3945 146.6967 312.8416 147.9262 313.0651 148.2615 313.4004 148.485 314.0711 148.8204 314.2946 149.0439 314.6299 149.3792 314.8535 149.7145 314.9652 150.1616 314.8535 150.7205 314.6299 151.7264 314.5182 152.2853 314.5182 152.6206 314.6299 152.9559 314.7417 153.403 314.6299 153.8501 314.2946 154.6325 314.1828 155.1913 314.0711 155.7502 314.6299 159.3268 314.2946 160.8916 313.4004 162.68 310.9415 166.0331 308.9296 168.4921 307.253 169.9451 301.888 171.3981 300.7703 172.0688 299.7644 173.0747 298.0878 176.0925 297.0818 177.0985 296.2994 177.7691 291.0462 180.7869 292.0521 183.0223 293.6169 184.14 296.8583 184.8107 299.3173 185.5931 299.9879 185.7048 301.3292 185.4813 306.1353 182.687 307.3648 181.4575 307.9237 180.5634 308.0354 180.1163 308.1472 179.6692 308.3707 179.2221 310.7179 176.6514 311.165 176.6514 311.6121 177.0985 312.7298 179.3339 313.0651 179.781 314.7417 179.8927 320.5538 178.1044 327.9307 180.1163 331.3956 180.4516 332.4015 181.0105 333.0722 181.4575 336.6488 186.1519 335.7547 186.9343 335.4194 187.4932 334.9723 187.9403 334.5252 188.2756 334.1899 188.4991 333.9663 188.8344 333.8546 189.1697 333.7428 189.6168 333.5193 190.1757 333.2957 190.7345 332.8486 191.5169 332.5133 192.0758 332.6251 193.0817 333.631 197.2173 333.7428 198.6703 333.631 199.6762 333.1839 201.3528 333.0722 202.0234 333.0722 202.8058 333.2957 204.0353 333.4075 204.7059 333.2957 205.3766 333.0722 207.0531 333.0722 208.6179 333.5193 209.5121 334.1899 210.518 338.2136 214.2065 338.7725 214.5418 339.1078 214.6536 340.002 214.9889 340.4491 215.2124 341.1197 215.6595 341.5668 215.8831 342.2374 216.1066 345.1435 218.7891 346.1494 219.348 346.7083 219.795 346.7083 220.0186 346.2612 220.5774 346.1494 221.2481 346.2612 222.1422 346.82 224.0424 347.4906 225.3836 348.6084 227.2837 354.7558 234.8842 355.3146 235.7783 355.7617 238.3491 355.6499 240.1374 355.4264 240.6963 355.0911 241.3669 354.4205 242.2611 352.2968 246.7319 349.8378 250.5321 349.1672 250.9792 348.3848 251.2028 345.7023 251.3145 344.6964 251.8734 343.914 252.9911 339.6667 261.0386 338.996 261.9328 336.4253 264.1682 335.7547 264.8388 335.5311 265.3977 335.8664 267.7449 335.8664 268.8626 334.637 269.1979 333.631 269.1979 323.9069 266.5154 319.1008 273.4452 316.53 276.5748 315.6359 277.8043 315.1888 278.5867 314.9652 279.3691 314.8535 279.9279 314.8535 280.375 314.8535 280.7103 314.8535 281.1574 314.7417 281.6045 314.1828 283.3928 314.0711 283.8399 313.9593 284.3988 296.523 286.6342 294.5111 290.9933 281.9927 298.5937 276.2924 303.6234 273.6099 305.1882 273.2746 305.5235 273.1628 305.7471 273.1628 306.0824 272.9393 306.3059 272.4922 306.4177 271.2627 305.4118 270.145 303.7352 269.8097 303.5117 269.4744 303.7352 268.9155 304.6294 268.5802 305.6353 268.4684 305.8589 267.2389 305.7471 262.8799 304.1823 260.868 298.1466 259.1914 294.3464 258.409 293.4523 254.8323 291.1051 253.9382 290.0991 253.2675 289.5403 252.5969 289.205 250.4733 289.3167 249.6909 289.0932 249.2438 288.5343 249.132 287.3048 248.5732 286.6342 248.1261 286.0754 247.7908 284.9576 247.9025 283.1693 249.3556 280.4868 250.9204 278.2514 251.9263 275.6806 251.8145 274.0041 250.3615 271.6569 248.3496 269.645 245.22 268.8626 237.5078 264.3917 236.0548 262.3799 234.1547 258.6914 233.1487 257.4619 229.2367 253.3264 227.7837 252.4322 215.1536 249.7497 214.8183 249.3026 214.5947 248.1849 214.7065 247.4025 214.5947 246.8437 214.1476 246.5084 213.5888 246.173 209.9003 245.8377 208.5591 246.8437 207.6649 247.9614 207.5531 248.7438 207.5531 249.638 207.8884 251.3145 208.112 252.4322 208.2238 253.6617 208.112 255.4501 208.3355 256.2325 208.4473 256.6795 208.6708 256.9031 208.7826 257.1266 209.0062 257.5737 209.2297 258.4679 210.0121 260.1444 210.1239 260.368 210.2356 260.4798 210.4592 260.5915 210.571 260.7033 210.6827 261.1504 210.9063 261.3739 211.1298 261.5975 211.2416 261.821 211.4651 262.1563 211.8004 263.9447 211.9122 265.3977 211.8004 266.6272 211.4651 268.3037 211.2416 268.9744 210.7945 269.3097 210.1239 268.9744 209.565 268.6391 208.8944 268.8626 208.4473 269.1979 204.9824 272.9981 187.6579 269.1979 187.3226 268.6391 186.9872 267.9684 185.8695 266.7389 184.9754 266.2919 183.9694 266.1801 183.2988 266.5154 182.7399 266.8507 181.734 267.186 181.0634 267.0743 180.281 266.2919 178.8279 263.9447 177.3749 262.6034 176.7043 262.1563 176.2572 262.0446 176.0337 262.1563 175.9219 262.4916 176.0337 262.9387 176.0337 263.274 176.1454 263.7211 176.0337 264.0564 175.0277 264.28 168.8803 264.3917 165.5272 263.9447 162.2858 262.2681 161.6152 261.821 161.2799 261.3739 159.3798 257.7972 157.815 255.8971 155.356 254.6677 152.4499 255.5618 146.8614 257.909 145.7437 258.915 145.1848 259.2503 144.626 259.362 142.9494 259.362 142.5023 259.1385 141.2728 257.7972 140.8257 257.6855 140.4904 257.7972 140.3787 258.2443 140.2669 258.6914 140.1551 259.9209 140.2669 260.7033 140.2669 261.1504 140.1551 261.4857 140.1551 261.9328 140.2669 262.4916 139.708 263.1623 139.1492 264.1682 133.3371 265.9565 130.8781 264.5035 130.431 264.5035 129.9839 264.6153 129.6486 264.9506 129.3133 265.2859 128.0838 265.9565 123.9483 269.645 120.0363 261.1504 118.0244 258.2443 116.3479 256.456 115.5655 255.5618 115.1184 254.7794 114.5595 251.7616 114.1124 250.9792 113.1065 250.085 112.7712 249.4144 112.6594 248.7438 112.8829 247.8496 113.2183 247.0672 113.8889 245.8377 114.2242 245.1671 114.5595 244.1612 114.7831 243.6023 115.4537 242.9317 115.789 242.1493 115.9008 240.3609 115.3419 238.5726 114.336 236.896 112.8829 234.8842 112.2123 233.99 111.6535 233.5429 110.0887 233.0958 109.7534 232.984 109.3063 232.7605 109.0827 232.4252 108.7474 232.3134 107.0708 230.3015 104.9472 227.2837 103.9413 226.2778 103.1589 226.166 100.141 229.9662 99.5822 230.4133 99.1351 230.6369 98.5762 230.6369 96.3408 230.078 92.4288 228.5132 98.0174 223.26 99.9175 220.5774 101.5941 216.6655 102.0411 214.9889 105.2825 212.8652 109.5298 211.6358 112.2123 212.8652 117.0185 218.0067 118.1362 219.795 120.5952 220.5774 122.607 219.6833 122.9424 219.4597 124.1718 219.6833 143.9553 211.8593 158.4856 206.159 161.6152 203.5882 167.7626 192.97 170.6686 190.511 175.0277 189.7286 178.8279 190.3992 182.1811 190.1757 185.4224 187.0461 185.646 186.7108 186.0931 185.4813 186.9872 183.2459 188.3285 174.863 189.4462 170.8393 191.7934 166.0331 195.4818 163.6859 199.8409 163.0153 209.4532 163.6859 215.3771 161.0034 220.6304 156.0855 220.6304 155.9737 224.3188 149.8263 225.4365 143.7906 225.213 131.6076 225.213 130.0428 225.8836 122.6659 228.119 113.7242 231.4722 105.4531 232.9252 102.9942 235.7195 98.4116 240.9727 93.3818 265.0035 83.9931 271.598 78.8516Z" />
  <path class="Trnavský" d="M19.554 292.111L20.56 288.7579 18.8834 276.1277 19.3305 270.9862 22.1248 267.6331 24.2484 263.8329 33.1901 237.7902 35.202 234.3253 36.0961 233.7664 36.5432 231.9781 37.6609 230.3015 41.6847 226.7249 42.4671 226.2778 44.3672 224.8248 45.2614 224.1541 45.4849 222.7011 45.7085 221.3598 45.8202 220.801 46.8262 219.2362 47.2733 218.5656 47.2733 218.4538 47.6086 216.2184 48.9498 213.9829 54.7619 209.8474 54.8737 209.7356 55.8796 208.9532 58.5622 207.0531 66.6097 205.2648 75.1043 207.5002 95.4466 217.8949 98.5762 217.3361 102.0411 214.9889 101.5941 216.6655 99.9175 220.5774 98.0174 223.26 92.4288 228.5132 96.3408 230.078 98.5762 230.6369 99.1351 230.6369 99.5822 230.4133 100.141 229.9662 103.1589 226.166 103.9413 226.2778 104.9472 227.2837 107.0708 230.3015 108.7474 232.3134 109.0827 232.4252 109.3063 232.7605 109.7534 232.984 110.0887 233.0958 111.6535 233.5429 112.2123 233.99 112.8829 234.8842 114.336 236.896 115.3419 238.5726 115.9008 240.3609 115.789 242.1493 115.4537 242.9317 114.7831 243.6023 114.5595 244.1612 114.2242 245.1671 113.8889 245.8377 113.2183 247.0672 112.8829 247.8496 112.6594 248.7438 112.7712 249.4144 113.1065 250.085 114.1124 250.9792 114.5595 251.7616 115.1184 254.7794 115.5655 255.5618 116.3479 256.456 118.0244 258.2443 120.0363 261.1504 123.9483 269.645 128.0838 265.9565 129.3133 265.2859 129.6486 264.9506 129.9839 264.6153 130.431 264.5035 130.8781 264.5035 133.3371 265.9565 139.1492 264.1682 139.708 263.1623 140.2669 262.4916 140.1551 261.9328 140.1551 261.4857 140.2669 261.1504 140.2669 260.7033 140.1551 259.9209 140.2669 258.6914 140.3787 258.2443 140.4904 257.7972 140.8257 257.6855 141.2728 257.7972 142.5023 259.1385 142.9494 259.362 144.626 259.362 145.1848 259.2503 145.7437 258.915 146.8614 257.909 152.4499 255.5618 155.356 254.6677 157.815 255.8971 159.3798 257.7972 161.2799 261.3739 161.6152 261.821 162.2858 262.2681 165.5272 263.9447 168.8803 264.3917 175.0277 264.28 176.0337 264.0564 176.1454 263.7211 176.0337 263.274 176.0337 262.9387 175.9219 262.4916 176.0337 262.1563 176.2572 262.0446 176.7043 262.1563 177.3749 262.6034 178.8279 263.9447 180.281 266.2919 181.0634 267.0743 181.734 267.186 182.7399 266.8507 183.2988 266.5154 183.9694 266.1801 184.9754 266.2919 185.8695 266.7389 186.9872 267.9684 187.3226 268.6391 187.6579 269.1979 204.9824 272.9981 205.4295 274.6747 205.653 275.1218 205.7648 275.6806 205.4295 276.2395 204.5353 276.9101 196.2642 280.2633 194.6994 280.375 193.5817 280.2633 191.3463 278.6985 190.7875 278.4749 190.2286 278.4749 189.4462 279.8162 183.9694 294.0111 183.6341 294.57 180.6163 298.0349 188.4403 302.1704 188.8873 302.1704 189.558 302.5057 193.47 305.7471 201.5175 313.9064 197.6055 318.2655 184.9754 341.0668 181.9575 344.0846 181.1751 347.9966 180.9516 348.779 180.8398 349.8967 180.7281 350.9026 179.9457 355.4853 179.7221 356.1559 179.275 356.603 178.8279 357.0501 179.0515 357.8325 179.275 358.3913 183.9694 362.6386 182.7399 364.7623 181.9575 365.88 181.6222 366.6624 181.734 367.333 182.0693 368.1154 182.0693 368.786 181.5105 369.792 181.0634 370.2391 180.8398 371.1332 181.0634 372.0274 181.734 374.151 182.2928 374.9334 182.7399 375.3805 183.187 375.4923 183.6341 375.9394 185.4224 377.7277 185.9813 378.6219 186.3166 379.6278 186.3166 381.0809 185.7578 383.0927 185.1989 383.9869 184.4165 384.6575 181.5105 386.4459 179.4986 388.0107 179.0515 388.1224 178.7162 387.8989 176.2572 384.8811 175.6983 384.6575 175.363 384.6575 174.6924 385.1046 173.4629 385.6635 173.4629 386.4459 174.0218 387.6754 175.4748 390.6932 176.0337 392.1462 175.9219 393.711 175.4748 395.0523 175.1395 395.4993 174.8042 395.9464 174.2453 396.17 173.6865 396.3935 173.2394 396.3935 172.6805 396.2817 171.451 395.4993 170.2216 394.8287 169.5509 394.7169 168.6568 394.8287 165.7507 396.0582 165.0801 396.8406 165.0801 397.7348 172.9041 406.4529 173.91 408.353 173.7982 410.4767 172.3452 414.1651 172.0099 415.1711 172.1217 416.0652 172.6805 416.7359 173.91 417.7418 174.6924 417.9653 175.5866 417.9653 178.4926 416.8476 179.6103 416.7359 180.1692 417.0712 180.5045 417.9653 179.8339 420.089 179.7221 420.7596 180.0574 421.2067 180.8398 421.8773 181.3987 422.1009 182.6282 422.2127 183.4106 422.548 183.7459 422.548 184.3047 422.548 184.7518 422.6597 185.1989 423.1068 185.646 424.1128 185.7578 425.5658 184.8636 431.3779 186.0931 440.6549 185.646 447.4729 186.9872 448.7024 187.2108 449.4848 187.4343 450.4908 187.3226 451.4967 187.099 452.3909 186.7637 453.285 186.4284 456.4146 187.5461 458.4265 188.105 459.656 187.8814 460.6619 186.7637 461.7796 183.7459 463.6798 179.4986 467.48 177.4867 470.386 176.1454 471.392 175.4748 471.8391 175.1395 471.7273 174.6924 471.8391 174.1336 472.2861 173.1276 473.4039 172.457 474.6333 171.8981 476.4217 171.7864 482.122 171.004 483.2397 169.7745 484.4692 166.4213 487.1517 164.9683 487.9341 163.8506 488.1576 163.5153 488.0459 163.0682 487.9341 162.7329 487.9341 162.3976 487.9341 161.6152 487.487 161.1681 487.3752 160.8328 487.8223 160.3857 488.7165 159.1562 494.9757 158.4856 496.8758 157.0326 498.3288 157.0326 498.4406 149.4321 494.3051 147.532 492.1814 146.1908 489.4989 142.8376 486.3693 139.1492 483.6868 136.4667 482.3455 134.4548 482.6809 132.6664 483.4633 130.8781 483.575 128.6427 481.3396 122.607 472.2861 121.0422 471.1684 116.4596 470.1625 114.6713 469.4919 112.8829 467.8153 94.5525 443.2256 88.9639 438.5312 77.3397 436.7429 75.5514 436.2958 75.5514 436.184 76.4455 429.4778 79.7987 425.454 80.6928 424.7834 82.593 423.6657 83.1518 423.1068 83.3754 422.548 83.04 421.4303 82.8165 420.4243 82.8165 418.7477 83.1518 418.3007 83.5989 418.0771 84.046 418.4124 84.9402 418.3007 86.1696 417.7418 88.8521 415.5064 90.7523 414.2769 91.5347 413.4945 91.6464 413.271 91.3111 412.7121 91.0876 412.4886 90.7523 412.265 90.5287 412.265 87.6227 412.4886 87.2873 412.3768 86.8403 412.1532 85.9461 411.1473 84.4931 410.0296 84.2695 409.6943 84.2695 409.2472 84.2695 408.5766 84.4931 407.4589 84.6048 406.7882 84.4931 406.2294 83.4871 404.5528 83.5989 404.1057 83.9342 403.8822 84.6048 403.8822 88.7404 404.8881 90.7523 404.8881 91.5347 404.6646 93.323 403.4351 94.6642 402.2056 95.3349 401.535 96.1173 401.1997 96.7879 401.0879 97.9056 400.6408 98.4645 399.9702 98.688 399.5231 98.5762 399.1878 98.3527 398.7407 98.0174 398.2936 97.1232 397.2877 96.8997 396.8406 96.7879 396.2817 96.6761 395.6111 97.1232 392.9286 97.5703 392.1462 98.2409 391.8109 98.9116 391.4756 100.0293 390.805 100.5881 390.5814 100.9234 390.6932 101.147 391.0285 101.147 391.4756 101.3705 391.9227 101.7058 392.9286 100.9234 394.3816 100.6999 394.9405 100.6999 395.3876 100.9234 395.6111 101.4823 395.8347 103.8295 396.0582 104.7237 396.5053 106.0649 397.5112 106.8473 397.8465 107.6297 397.8465 112.4359 395.7229 118.0244 391.252 120.0363 390.6932 121.0422 391.0285 121.6011 390.3579 122.2717 389.2402 123.3894 386.3341 123.613 385.1046 123.613 384.2105 123.3894 383.8751 123.0541 383.2045 122.8306 383.0927 122.4953 383.0927 121.7129 383.3163 121.3776 382.8692 120.9305 381.8633 121.2658 378.9572 121.3776 377.7277 120.9305 376.8336 117.242 375.157 116.4596 374.9334 116.0125 374.4864 115.6772 373.704 115.2301 371.245 115.4537 369.9037 116.3479 368.2272 121.2658 362.3033 111.5417 354.4793 110.5358 351.4615 110.5358 350.9026 110.6475 350.232 111.9888 347.9966 113.4418 344.4199 113.8889 342.9669 113.8889 341.8492 113.4418 341.4021 112.9947 340.3961 112.4359 339.502 111.4299 338.3843 110.8711 337.8254 110.0887 337.4901 109.0827 337.4901 108.5239 336.9312 107.8532 336.0371 104.8354 330.0014 104.053 328.7719 102.7118 327.3189 101.4823 325.4188 100.8117 324.7482 99.1351 323.2952 98.7998 322.7363 98.9116 322.1774 99.2469 321.7304 99.6939 320.6127 99.5822 320.0538 99.0233 319.7185 95.8937 319.6067 95.1113 319.4949 94.5525 319.1596 93.5465 318.1537 92.3171 317.1477 91.7582 316.5889 91.4229 316.2536 90.9758 316.03 90.6405 316.03 88.1815 316.03 85.8343 315.1359 85.2755 312.118 86.8403 308.9884 89.5228 304.7411 90.4169 303.5117 91.0876 302.841 92.7641 301.7233 83.04 291.9992 83.9342 289.8756 83.9342 288.199 85.9461 287.1931 86.2814 286.8578 86.6167 286.2989 87.8462 282.9458 88.1815 282.4987 88.8521 282.3869 89.411 282.4987 90.0816 282.3869 90.5287 282.1634 91.0876 281.6045 94.3289 277.3572 95.2231 275.4571 96.229 272.3275 96.229 269.8685 95.782 267.8567 95.1113 266.6272 94.3289 265.6212 93.6583 264.7271 92.9877 264.28 92.3171 263.9447 90.5287 263.3858 90.1934 263.0505 89.7463 262.7152 89.2992 262.3799 88.4051 262.1563 87.2873 263.0505 85.7226 265.0624 80.6928 273.2217 80.4693 273.6688 80.3575 273.8923 80.0222 274.0041 79.6869 274.1158 79.3516 274.2276 78.2339 275.01 77.4515 275.7924 77.0044 276.3513 76.6691 276.9101 76.3338 278.0278 75.9985 278.5867 75.6631 278.922 74.3219 279.8162 72.6453 280.5986 71.8629 281.1574 71.1923 281.9398 70.5217 283.6164 69.7393 284.3988 68.2862 284.8459 66.1626 284.9576 62.9212 285.8518 60.4623 287.3048 53.0854 290.5462 52.0794 290.7697 50.2911 290.2109 42.4671 286.5224 40.1199 285.8518 39.0022 285.8518 39.5611 287.1931 39.7846 287.8637 39.6728 288.3108 39.114 288.4226 30.9547 288.7579 20.2246 292.111 19.554 292.111Z" />
  <path class="Žilinský" d="M540.4077 114.1713L540.6312 115.0655 544.4315 121.4364 545.3256 123.6718 545.9963 126.2426 545.9963 129.5957 546.2198 131.2723 547.114 132.8371 547.6728 133.1724 548.1199 133.0606 548.4552 132.5018 549.1259 131.8311 549.7965 131.4958 551.1377 131.2723 552.2554 131.4958 553.2614 132.5018 554.1556 133.9548 555.2733 136.6373 555.9439 137.6432 556.5028 137.8668 556.9498 137.4197 557.3969 137.1961 557.9558 137.4197 558.5146 138.5374 559.0735 139.208 559.6323 139.6551 560.303 139.6551 563.8796 139.0963 566.2268 137.9785 567.2328 137.6432 568.127 137.5315 568.6858 138.6492 568.7976 140.7728 567.6799 148.8204 567.6799 151.8382 567.4563 154.0736 566.5622 157.9856 566.3386 161.4505 566.0033 163.1271 565.4444 163.7977 564.215 163.9095 562.3149 164.9154 561.3089 164.9154 559.9677 164.8036 559.4088 164.9154 559.1853 165.586 559.4088 166.7037 565.4444 174.7513 566.5622 175.7572 567.4563 176.8749 568.0152 178.2162 568.2387 180.5634 569.0211 183.2459 569.3564 184.2518 569.8035 185.0342 570.3624 185.5931 571.1448 185.9284 573.1567 186.3755 573.6037 186.9343 573.1567 188.052 571.2565 190.0639 569.3564 191.6287 563.209 194.3112 560.9736 192.5229 560.1912 192.4111 559.1853 192.5229 556.0557 193.9759 553.932 194.1994 553.4849 194.3112 536.3839 193.9759 531.3542 192.6347 529.6777 192.5229 521.5184 194.8701 519.3947 196.0996 518.7241 196.0996 518.0535 195.876 517.1593 194.9818 516.7122 194.423 516.1534 193.8641 515.4827 193.5288 513.6944 193.0817 513.0238 192.7464 512.0178 191.6287 510.6766 190.511 499.2759 186.2637 485.7516 184.5871 455.7969 189.7286 449.7613 197.1055 446.0728 199.3409 444.1727 201.7999 443.8374 202.8058 443.6139 204.5942 443.3903 205.0413 443.1668 205.4883 442.8315 205.9354 441.8255 206.7178 440.9314 207.0531 433.5545 208.1708 433.1074 208.1708 432.7721 207.9473 433.1074 206.8296 433.3309 206.4943 433.5545 206.3825 434.2251 206.2707 434.4486 206.159 434.4486 205.4883 434.3369 204.4824 434.1133 202.247 433.6662 201.3528 433.3309 200.6822 432.7721 200.4586 432.4367 200.1233 432.2132 199.1174 431.8779 198.6703 430.5366 198.6703 401.029 202.9176 392.5344 202.4705 390.5226 207.1649 389.9637 207.9473 389.0695 208.8415 386.1635 210.2945 385.7164 210.9651 385.7164 211.8593 386.7223 215.2124 386.9459 216.7772 386.7223 217.8949 386.0517 218.9009 385.4928 219.5715 385.2693 220.3539 385.4928 221.5834 386.4988 223.4835 388.846 225.7189 389.0695 226.0542 389.1813 226.9484 389.1813 228.2897 388.5107 231.4193 388.1754 233.0958 385.7164 237.5667 370.5155 236.6725 367.4977 236.0019 367.3859 235.5548 367.0506 234.8842 366.7153 234.5488 366.4917 234.2135 366.2682 233.7664 366.0447 233.2076 365.8211 232.6487 365.5976 232.2017 363.3622 232.984 355.7617 238.3491 355.3146 235.7783 354.7558 234.8842 348.6084 227.2837 347.4906 225.3836 346.82 224.0424 346.2612 222.1422 346.1494 221.2481 346.2612 220.5774 346.7083 220.0186 346.7083 219.795 346.1494 219.348 345.1435 218.7891 342.2374 216.1066 341.5668 215.8831 341.1197 215.6595 340.4491 215.2124 340.002 214.9889 339.1078 214.6536 338.7725 214.5418 338.2136 214.2065 334.1899 210.518 333.5193 209.5121 333.0722 208.6179 333.0722 207.0531 333.2957 205.3766 333.4075 204.7059 333.2957 204.0353 333.0722 202.8058 333.0722 202.0234 333.1839 201.3528 333.631 199.6762 333.7428 198.6703 333.631 197.2173 332.6251 193.0817 332.5133 192.0758 332.8486 191.5169 333.2957 190.7345 333.5193 190.1757 333.7428 189.6168 333.8546 189.1697 333.9663 188.8344 334.1899 188.4991 334.5252 188.2756 334.9723 187.9403 335.4194 187.4932 335.7547 186.9343 336.6488 186.1519 333.0722 181.4575 332.4015 181.0105 331.3956 180.4516 327.9307 180.1163 320.5538 178.1044 314.7417 179.8927 313.0651 179.781 312.7298 179.3339 311.6121 177.0985 311.165 176.6514 310.7179 176.6514 308.3707 179.2221 308.1472 179.6692 308.0354 180.1163 307.9237 180.5634 307.3648 181.4575 306.1353 182.687 301.3292 185.4813 299.9879 185.7048 299.3173 185.5931 296.8583 184.8107 293.6169 184.14 292.0521 183.0223 291.0462 180.7869 296.2994 177.7691 297.0818 177.0985 298.0878 176.0925 299.7644 173.0747 300.7703 172.0688 301.888 171.3981 307.253 169.9451 308.9296 168.4921 310.9415 166.0331 313.4004 162.68 314.2946 160.8916 314.6299 159.3268 314.0711 155.7502 314.1828 155.1913 314.2946 154.6325 314.6299 153.8501 314.7417 153.403 314.6299 152.9559 314.5182 152.6206 314.5182 152.2853 314.6299 151.7264 314.8535 150.7205 314.9652 150.1616 314.8535 149.7145 314.6299 149.3792 314.2946 149.0439 314.0711 148.8204 313.4004 148.485 313.0651 148.2615 312.8416 147.9262 312.3945 146.6967 312.0592 146.2496 311.7239 145.8025 311.2768 145.3554 310.9415 145.1319 308.3707 144.3495 307.7001 144.3495 307.3648 144.2377 307.1413 143.7906 307.8119 142.7847 312.618 137.755 310.3826 134.2901 310.2708 133.7312 310.0473 132.6135 310.1591 131.6076 310.0473 129.5957 309.6002 128.2545 308.1472 126.2426 307.253 125.3484 303.8999 123.3365 302.8939 123.0012 302.2233 122.7777 301.4409 122.2188 299.3173 120.2069 298.7584 119.7598 298.3113 119.6481 297.6407 119.6481 297.4172 119.6481 293.0581 116.742 292.1639 115.7361 291.158 114.3948 288.9226 110.3711 288.5872 109.7004 288.699 109.4769 288.5872 109.0298 288.3637 108.471 287.4695 106.6826 287.3578 106.2355 287.3578 105.9002 287.6931 105.2296 287.6931 104.7825 287.4695 104.1119 287.0224 103.1059 276.0689 84.7755 275.8453 84.3284 275.7336 83.7695 275.7336 83.2107 275.6218 81.087 272.4922 80.0811 271.598 78.8516 275.8453 75.4985 275.8453 73.7101 276.1806 65.8861 276.2924 62.533 278.5278 63.0919 281.4339 63.6507 285.4576 61.08 287.246 58.8446 293.0581 51.6912 297.976 49.1205 298.0878 49.0087 300.435 44.8732 301.4409 42.8613 301.7762 39.5081 302.6704 37.2727 303.1175 37.0492 306.3589 34.9255 314.2946 36.155 319.3243 33.4725 320.5538 33.1372 321.7833 33.4725 327.5954 36.3785 332.8486 37.9433 337.7666 37.7198 345.1435 30.9018 348.4966 29.6723 355.7617 29.4487 373.4216 31.1253 378.563 34.2549 376.9982 38.8375 377.2218 42.7495 378.116 46.5497 378.563 50.5735 377.7806 59.627 378.7866 62.6448 382.2515 63.3154 386.8341 62.9801 393.6521 58.9563 397.5641 58.0622 399.2407 58.621 402.8174 61.1917 404.4939 62.0859 406.2823 62.1977 410.7531 61.3035 416.3417 59.0681 417.5712 56.9444 418.0183 53.4795 419.3595 48.1145 419.8066 48.0028 422.042 48.0028 422.8244 47.3321 423.2715 45.5438 422.9362 44.2025 422.2656 43.4201 422.042 43.0848 424.8363 34.1431 427.2953 30.3429 429.866 27.7722 432.7721 26.3191 436.237 25.6485 441.7138 25.6485 443.6139 25.425 446.0728 24.419 447.4141 23.1895 462.9503 6.0886 463.6209 4.7473 464.6268 4.3002 465.6328 4.6355 467.0858 5.3062 470.1036 10.6712 471.4449 12.0124 475.6922 14.8067 477.8158 20.3953 481.0572 34.2549 483.9633 42.973 484.8574 44.9849 487.8752 47.3321 491.6755 48.3381 498.8288 48.3381 497.9347 50.1264 497.7111 51.5794 497.8229 55.9385 497.3758 59.1799 507.6587 62.7565 511.5707 63.0919 515.1474 62.7565 521.1831 60.4094 522.7479 61.5271 522.7479 61.6388 524.4244 66.7803 525.3186 71.3629 526.4363 84.5519 526.101 85.6696 524.7597 87.7933 524.648 88.911 525.3186 89.8052 527.6658 91.5935 527.6658 91.7053 528.0011 92.2641 528.0011 92.3759 529.4541 93.8289 529.7894 95.0584 529.3424 96.6232 528.3364 97.1821 527.2187 97.5174 526.4363 98.188 519.6183 109.2534 518.9476 112.83 521.2948 116.0714 525.7657 117.6362 533.925 118.3068 537.9487 116.8538 540.4077 114.1713Z" />
</svg>