<?xml version="1.0" encoding="utf-8"?>
<svg xmlns="http://www.w3.org/2000/svg" viewBox="0 0 549 1024" style="stroke-width:0.25px;stroke-linejoin:round;stroke:#444;fill:#ddd" fill-rule="evenodd">
  <path class="Saint Andrew" d="M500.7897 295.611L488.2713 311.5943 484.5828 320.3124 485.477 323.6656 487.1536 371.3919 486.4829 375.9745 485.5888 376.3098 484.2475 377.4275 476.0882 385.9221 473.741 387.8222 472.3998 388.6046 471.1703 388.9399 470.1644 389.0517 466.4759 389.1635 465.6935 389.387 464.7993 389.7223 459.099 394.6403 455.187 398.8876 453.2869 400.5641 451.6103 401.4583 450.9397 401.4583 449.3749 401.2348 448.4807 401.123 446.916 401.4583 446.2453 401.6818 445.4629 401.3465 444.457 401.0112 443.5628 400.4524 433.1681 407.7175 390.248 448.6257 377.8414 416.9945 343.1923 388.9399 329.8915 381.6748 321.1734 377.8746 314.2436 377.0922 307.0902 375.6392 298.8191 372.7331 275.2354 362.3384 272.4411 361.6678 269.9822 362.2266 260.5934 366.921 251.5399 369.8271 238.1274 371.2801 227.2856 366.3622 219.1263 361.1089 190.0658 332.0484 185.3714 311.9296 179.8946 265.6563 176.9886 254.1439 162.123 241.8491 160.2229 227.9894 161.5641 159.809 159.3287 134.3252 158.3228 133.8781 156.6462 131.3074 155.9756 130.8603 155.1932 130.6367 154.5226 130.4132 153.6284 130.525 152.9578 130.6367 151.9518 130.8603 149.8282 130.7485 148.5987 130.6367 144.5749 128.8484 143.6807 128.1778 142.7866 127.2836 141.6689 125.16 141.11 124.154 132.9507 120.9127 117.6381 105.6 111.6024 95.0935 91.3718 5.7883 118.5322 6.7943 144.1278 16.6301 171.8471 37.5314 208.3963 91.6286 237.7921 111.0768 271.547 93.1934 299.7133 87.7166 412.1551 132.5369 416.2906 148.5201 430.7091 184.3987 453.1751 222.6244 465.8053 245.0904 500.7897 295.611Z" />
  <path class="Saint David" d="M533.7622 712.5175L437.8625 729.3949 429.2561 733.8658 411.0374 750.1844 414.5023 736.4365 414.6141 733.9776 414.167 729.3949 413.1611 725.5947 411.2609 720.7886 410.9256 719.0002 410.8139 717.4354 411.708 713.5234 404.1076 706.5936 367.1113 682.3393 367.4466 582.9747 351.2398 542.5135 390.248 448.6257 433.1681 407.7175 443.5628 400.4524 444.457 401.0112 445.4629 401.3465 446.2453 401.6818 446.916 401.4583 448.4807 401.123 449.3749 401.2348 450.9397 401.4583 451.6103 401.4583 453.2869 400.5641 455.187 398.8876 459.099 394.6403 464.7993 389.7223 465.6935 389.387 466.4759 389.1635 470.1644 389.0517 471.1703 388.9399 472.3998 388.6046 473.741 387.8222 476.0882 385.9221 484.2475 377.4275 485.5888 376.3098 486.4829 375.9745 487.1536 371.3919 485.477 323.6656 484.5828 320.3124 488.2713 311.5943 500.7897 295.611 504.1428 300.6407 525.6029 383.4631 529.4031 469.6387 513.6433 535.5837 524.0381 539.3839 533.4268 547.2079 544.7157 551.6788 530.5208 637.519 533.7622 712.5175Z" />
  <path class="Saint George" d="M411.0374 750.1844L419.1967 756.1083 420.2026 757.4495 419.8673 761.0262 392.0363 807.6348 385.5536 814.0057 376.5001 820.3767 355.4871 831.442 332.9094 849.6607 301.2781 897.9459 263.723 882.5215 263.4994 868.2147 264.6172 858.1553 252.0988 831.442 223.4854 798.0224 218.3439 769.8561 217.4497 757.4495 243.8277 759.0143 244.4983 758.9025 248.5221 759.2378 249.8634 759.0143 254.2224 757.8966 255.4519 757.8966 256.4579 757.8966 257.4638 758.2319 258.358 758.3437 259.9228 758.0084 261.7111 757.4495 265.0642 754.5435 267.1879 750.855 272.2176 734.3129 272.5529 733.3069 272.8882 732.4128 273.6706 730.7362 367.1113 682.3393 404.1076 706.5936 411.708 713.5234 410.8139 717.4354 410.9256 719.0002 411.2609 720.7886 413.1611 725.5947 414.167 729.3949 414.6141 733.9776 414.5023 736.4365 411.0374 750.1844Z" />
  <path class="Saint John" d="M91.3718 5.7883L111.6024 95.0935 117.6381 105.6 132.9507 120.9127 141.11 124.154 141.6689 125.16 142.7866 127.2836 143.6807 128.1778 144.5749 128.8484 148.5987 130.6367 149.8282 130.7485 151.9518 130.8603 152.9578 130.6367 153.6284 130.525 154.5226 130.4132 155.1932 130.6367 155.9756 130.8603 156.6462 131.3074 158.3228 133.8781 159.3287 134.3252 161.5641 159.809 160.2229 227.9894 162.123 241.8491 176.9886 254.1439 179.8946 265.6563 185.3714 311.9296 59.6288 244.1963 58.7347 244.5316 57.2816 244.7551 55.4933 244.6433 45.881 242.7432 44.875 242.7432 33.0273 239.7254 31.1272 239.3901 29.1153 239.8372 27.6623 239.8372 22.6326 238.6077 20.8442 239.6136 19.9501 240.396 12.4614 249.3377 10.5613 247.5494 1.2843 234.9193 1.396 212.9003 12.4614 197.5877 50.3518 170.7626 61.976 147.2906 46.3281 144.1611 18.8323 134.1017 1.396 132.5369 20.1736 104.8176 46.5516 4 91.3718 5.7883Z" />
  <path class="Saint Joseph" d="M390.248 448.6257L351.2398 542.5135 275.3472 578.3921 268.4174 579.2862 258.5815 577.8332 219.7969 568.5562 191.8541 569.2268 166.5938 577.3861 161.8994 540.1663 154.8579 519.4887 102.6607 467.6268 94.3897 448.0669 90.0306 425.6009 79.9712 401.6818 77.5122 398.2169 114.1732 367.1446 127.921 353.1732 130.1564 349.2612 133.3978 345.1256 148.8222 337.637 190.0658 332.0484 219.1263 361.1089 227.2856 366.3622 238.1274 371.2801 251.5399 369.8271 260.5934 366.921 269.9822 362.2266 272.4411 361.6678 275.2354 362.3384 298.8191 372.7331 307.0902 375.6392 314.2436 377.0922 321.1734 377.8746 329.8915 381.6748 343.1923 388.9399 377.8414 416.9945 390.248 448.6257Z" />
  <path class="Saint Luke" d="M301.2781 897.9459L303.5135 921.4178 264.5054 939.8601 264.6172 936.8422 263.723 882.5215 301.2781 897.9459Z" />
  <path class="Saint Mark" d="M303.5135 921.4178L324.5265 996.8634 314.5789 1012.176 287.0832 1020 261.5993 1012.9584 257.0167 994.1809 264.6172 936.8422 264.5054 939.8601 303.5135 921.4178Z" />
  <path class="Saint Patrick" d="M533.7622 712.5175L534.5446 731.295 527.8383 823.7298 481.3415 906.3287 465.0229 918.9589 453.9575 921.8649 445.0158 921.1943 421.991 924.2121 402.6546 919.6295 388.4596 922.312 376.1648 933.6009 364.5406 964.2262 332.9094 978.0858 325.5325 995.2986 324.5265 996.8634 303.5135 921.4178 301.2781 897.9459 332.9094 849.6607 355.4871 831.442 376.5001 820.3767 385.5536 814.0057 392.0363 807.6348 419.8673 761.0262 420.2026 757.4495 419.1967 756.1083 411.0374 750.1844 429.2561 733.8658 437.8625 729.3949 533.7622 712.5175Z" />
  <path class="Saint Paul" d="M351.2398 542.5135L367.4466 582.9747 367.1113 682.3393 273.6706 730.7362 272.8882 732.4128 272.5529 733.3069 272.2176 734.3129 267.1879 750.855 265.0642 754.5435 261.7111 757.4495 259.9228 758.0084 258.358 758.3437 257.4638 758.2319 256.4579 757.8966 255.4519 757.8966 254.2224 757.8966 249.8634 759.0143 248.5221 759.2378 244.4983 758.9025 243.8277 759.0143 217.4497 757.4495 214.2084 711.5116 203.9254 669.0385 171.8471 599.9639 167.3762 583.31 166.5938 577.3861 191.8541 569.2268 219.7969 568.5562 258.5815 577.8332 268.4174 579.2862 275.3472 578.3921 351.2398 542.5135Z" />
  <path class="Saint Peter" d="M185.3714 311.9296L190.0658 332.0484 148.8222 337.637 133.3978 345.1256 130.1564 349.2612 127.921 353.1732 114.1732 367.1446 77.5122 398.2169 66.7822 382.7925 54.2638 375.0803 39.51 362.7855 34.4803 334.2838 32.3567 277.1688 22.9679 259.0618 12.4614 249.3377 19.9501 240.396 20.8442 239.6136 22.6326 238.6077 27.6623 239.8372 29.1153 239.8372 31.1272 239.3901 33.0273 239.7254 44.875 242.7432 45.881 242.7432 55.4933 244.6433 57.2816 244.7551 58.7347 244.5316 59.6288 244.1963 185.3714 311.9296Z" />
</svg>