<?xml version="1.0" encoding="utf-8"?>
<svg xmlns="http://www.w3.org/2000/svg" viewBox="0 0 368 1024" style="stroke-width:0.25px;stroke-linejoin:round;stroke:#444;fill:#ddd" fill-rule="evenodd">
  <path class="HaDarom" d="M93.5301 406.7116L94.4243 406.3762 96.3244 405.8174 96.7715 405.5938 97.6657 405.5938 98.6716 405.8174 100.46 406.488 101.3541 406.5998 102.0248 406.5998 102.4718 406.488 102.9189 406.7116 103.366 407.1586 103.5895 408.2763 103.4778 408.947 103.2542 409.3941 102.5836 410.0647 102.3601 410.4 102.2483 410.7353 102.2483 411.1824 102.5836 412.7472 102.4718 413.1943 102.3601 413.6414 102.1365 414.5355 102.1365 416.771 102.0248 417.218 101.8012 417.5534 101.4659 417.7769 101.0188 417.8887 100.6835 417.8887 100.2364 417.8887 99.3422 417.7769 98.001 417.3298 97.1068 417.1063 96.6597 417.218 96.2127 417.3298 95.8773 417.5534 95.7656 417.6651 95.4303 418.224 95.3185 418.4475 95.2067 418.7828 95.2067 419.2299 95.2067 419.677 95.3185 420.0123 95.3185 420.2359 95.7656 420.7947 96.4362 421.3536 97.8892 422.4713 98.7834 423.3655 98.8952 423.8125 98.8952 424.2596 98.7834 424.5949 98.5598 425.042 98.2245 425.2656 97.8892 425.6009 97.5539 425.8244 96.3244 426.3833 95.542 426.8304 95.3185 427.0539 94.9832 427.501 94.8714 427.8363 94.7596 428.2834 94.8714 428.6187 94.8714 428.954 95.0949 429.2893 95.2067 429.5129 100.5717 431.3012 101.5777 431.413 102.3601 431.0777 104.5955 429.4011 105.4897 428.8422 106.7191 428.5069 107.0545 428.0598 107.0545 427.7245 106.8309 427.501 106.4956 427.1657 106.2721 426.8304 106.0485 426.3833 105.9367 425.9362 105.7132 425.6009 105.3779 425.2656 104.9308 425.042 104.4837 424.9303 104.1484 424.7067 103.9249 424.4832 104.0366 424.1479 104.7073 423.9243 108.2839 423.3655 108.8428 423.0301 109.5134 422.2477 110.184 422.3595 111.3018 422.8066 114.9902 424.9303 115.7726 425.6009 116.4432 426.6068 117.0021 427.9481 118.4551 432.4189 119.014 433.3131 119.3493 433.9837 119.9081 434.5426 120.1317 434.7661 122.0318 433.8719 129.2969 427.9481 135.3326 435.6603 137.3444 437.2251 137.7915 437.3369 138.6857 437.6722 138.9092 437.8957 139.2446 438.3428 139.3563 439.0134 139.3563 440.2429 139.1328 440.9135 138.7975 441.9195 138.6857 442.3666 138.6857 442.8136 138.7975 443.2607 139.6916 445.9432 139.8034 447.0609 139.8034 447.6198 139.8034 448.1787 139.6916 448.6257 139.1328 449.967 139.021 450.4141 138.9092 450.9729 138.9092 451.5318 139.2446 454.7732 139.1328 456.338 139.1328 456.8968 139.4681 458.2381 139.5799 458.7969 139.5799 461.0323 139.3563 462.5971 141.1447 464.2737 157.0162 475.6744 157.0162 475.7861 153.5513 482.6042 152.5453 489.6458 152.4336 496.9109 151.2041 505.2937 141.2564 522.0594 138.0151 530.7776 140.5858 539.3839 145.5037 543.1842 151.3158 544.0783 157.4633 543.0724 163.0518 541.1723 176.2408 539.3839 203.8483 539.6075 216.8138 534.6895 240.9563 514.5707 253.6982 507.1938 268.7873 505.9644 268.8991 506.0761 268.5638 521.1652 268.452 523.736 267.5579 529.5481 263.6459 540.0546 259.5103 547.4315 261.1869 549.3316 260.8516 554.9201 257.722 560.3969 254.9277 566.6561 256.1572 573.8095 258.2809 580.404 260.6281 585.5454 263.8694 592.0282 265.4342 599.0697 264.4283 606.4466 254.0336 627.1243 252.5805 634.613 252.6923 642.7723 250.1216 647.4667 244.1977 653.167 241.5152 655.8495 238.7209 661.6616 238.0503 667.4737 238.162 673.2858 237.4914 678.9861 236.1502 681.4451 232.4617 684.7982 230.6734 686.8101 229.2204 689.9397 228.5497 692.8458 227.5438 699.3285 225.7554 705.4759 212.79 731.8539 203.2894 763.3734 202.1717 769.409 198.3715 779.9155 198.3715 786.0629 199.4892 788.7454 202.6188 793.8869 203.2894 797.5754 202.8424 801.152 201.6129 803.8345 200.0481 806.5171 198.8186 809.6466 196.6949 823.0592 195.1301 827.4183 195.0184 834.7952 199.601 850.4431 199.601 858.4906 195.9125 867.097 186.5238 881.292 183.953 891.3514 183.8413 894.481 182.9471 896.7164 181.8294 898.7283 181.047 900.9637 179.3704 909.5701 179.1469 925.1063 178.2527 930.2477 167.9697 958.0788 166.2932 964.4497 165.1755 978.7564 163.0518 985.1274 160.1458 989.9336 158.581 995.5221 157.575 1002.4519 156.6809 1005.8051 155.2278 1008.0405 151.4276 1012.8466 149.6393 1015.5292 148.7451 1017.3175 148.4098 1018.9941 147.6274 1020 145.9508 1020 143.9389 1019.8882 142.3741 1020 140.474 1016.3116 135.4443 1005.8051 133.8795 999.7694 134.2149 982.1096 128.5145 955.9551 119.9081 931.9243 110.184 905.3228 108.8428 891.4631 108.9546 889.8983 108.731 888.3336 108.3957 886.7688 107.7251 885.4275 99.2305 860.7261 86.1532 822.9474 78.7763 801.8227 76.3174 798.246 64.2461 787.6277 62.7931 785.1688 62.2342 782.2627 62.6813 777.6801 64.805 770.0796 64.805 766.503 62.5695 763.3734 59.1046 758.5672 57.7634 754.2081 57.3163 743.5899 52.5101 723.1358 38.874 687.0337 27.5851 657.1908 19.0905 634.7248 12.1607 612.9294 3.4426 585.6572 1.0954 578.6156 4.6721 575.3743 16.0727 566.8796 23.7849 558.4968 24.4556 554.026 22.6672 545.196 22.6672 540.7252 27.4734 531.6717 52.5101 507.6409 55.7515 505.2937 55.8633 505.2937 63.0166 498.6992 69.164 493.5578 61.2283 488.7516 52.6219 482.2689 54.522 477.798 59.887 470.8682 79.5587 436.8898 81.0118 434.8779 93.5301 406.7116Z" />
  <path class="Haifa" d="M184.0648 139.6902L184.6237 139.802 186.1884 140.3608 186.7473 140.8079 187.3062 141.4785 188.0886 143.2669 188.5356 144.0493 188.871 144.6081 189.7651 145.167 189.9887 145.7259 190.1004 146.5083 189.5416 149.7496 189.6534 150.3085 189.9887 150.7556 191.777 152.0968 192.4476 152.5439 192.6712 152.8792 193.4536 153.4381 193.7889 153.6616 194.5713 154.1087 197.8127 155.0029 198.595 155.4499 198.9304 155.6735 199.1539 156.2323 199.1539 157.1265 198.595 160.3679 198.595 160.9267 198.8186 161.9327 199.2657 163.1622 201.6129 168.1919 201.6129 168.9743 201.6129 169.9802 201.3893 172.1039 201.1658 173.1098 200.8305 173.7804 198.7068 177.2453 198.4833 177.5806 198.148 178.363 198.0362 178.8101 198.4833 182.4986 198.3715 183.3927 198.0362 183.8398 196.9185 184.5105 196.6949 185.0693 196.5832 185.7399 196.6949 187.0812 196.6949 187.64 196.6949 188.1989 196.3596 188.9813 195.8008 189.6519 195.2419 190.2108 194.9066 190.5461 194.4595 190.6579 194.1242 190.7696 193.7889 190.5461 193.4536 190.2108 193.23 189.8755 192.5594 188.7578 192.2241 188.5342 191.8888 188.3107 191.4417 188.3107 191.1064 188.5342 190.8828 188.8695 190.5475 189.7637 190.4358 191.3285 190.4358 191.7756 191.4417 196.47 191.4417 197.5877 191.3299 198.1465 188.2003 199.9349 187.865 200.1584 187.5297 200.4937 187.0826 201.2761 185.4061 204.9646 184.7354 206.0823 184.4001 206.4176 184.0648 206.6411 183.6177 206.6411 183.1706 206.6411 180.2646 205.2999 179.2586 205.0763 178.6998 205.0763 178.2527 205.0763 177.8056 205.2999 177.3585 205.4117 177.0232 205.6352 176.3526 206.3058 176.129 206.6411 175.682 207.4235 175.5702 207.7589 175.3466 208.7648 175.3466 209.3237 175.682 210.1061 176.3526 211.2238 178.1409 213.1239 178.4762 213.9063 178.3645 214.2416 177.3585 214.1298 176.129 213.571 175.5702 213.4592 175.0113 213.3474 174.0054 213.4592 173.5583 213.571 173.1112 213.7945 172.8877 214.1298 172.8877 214.6887 173.223 215.5828 174.2289 217.1476 174.5642 218.0418 174.676 218.8242 174.676 219.2713 174.7878 219.8301 174.8996 220.2772 175.1231 220.6125 176.0173 221.5067 179.0351 223.4068 179.3704 223.8539 179.4822 224.5245 179.3704 225.5305 178.8116 227.4306 178.6998 227.8777 178.8116 228.3248 178.9233 228.7718 179.2586 229.2189 180.7117 230.1131 181.1587 230.6719 181.3823 231.119 181.8294 231.6779 182.5 232.2367 183.953 233.0191 184.6237 233.4662 185.6296 233.9133 192.0006 235.2546 192.4476 235.3663 193.0065 235.4781 193.6771 235.3663 194.5713 235.031 196.0243 233.9133 196.6949 233.2427 197.142 232.6838 197.3656 232.3485 197.4773 232.0132 197.9244 231.6779 199.1539 230.8955 199.4892 230.4484 199.7128 229.8895 199.8245 229.4425 199.9363 228.9954 200.0481 228.5483 200.3834 228.213 200.7187 227.9894 202.7306 226.9835 203.0659 226.6482 203.2894 226.3129 203.6248 225.9776 204.1836 224.8598 204.7425 224.1892 205.0778 223.9657 205.4131 223.7421 206.419 224.4128 207.2014 224.8598 213.4606 230.7837 213.9077 232.0132 213.5724 231.7897 209.6604 232.0132 206.5308 234.4722 200.9422 240.9549 194.1242 245.314 187.5297 248.4436 181.6058 252.6909 177.2468 260.2913 174.676 273.9274 174.5642 273.9274 172.1053 274.1509 170.6523 273.8156 170.4287 273.3685 170.0934 273.0332 169.8699 272.6979 169.4228 272.2508 168.6404 271.8037 165.1755 268.6741 164.2813 268.1153 163.4989 267.78 152.5453 266.8858 150.4217 267.1094 149.8628 267.2211 147.4039 267.4447 138.2386 267.2211 138.1268 267.2211 139.3563 261.2972 146.1744 227.0953 147.5156 224.5245 148.7451 212.9003 149.8628 209.3237 149.5275 205.5234 154.5572 184.0634 155.7867 160.4796 157.575 155.1146 160.9282 153.3263 163.7224 153.9969 168.1933 156.903 171.5464 157.5736 173.5583 157.1265 181.2705 148.8554 182.2765 146.62 184.0648 139.6902Z" />
  <path class="HaMerkaz" d="M129.2969 427.9481L122.0318 433.8719 120.1317 434.7661 119.9081 434.5426 119.3493 433.9837 119.014 433.3131 118.4551 432.4189 117.0021 427.9481 116.4432 426.6068 115.7726 425.6009 114.9902 424.9303 111.3018 422.8066 110.184 422.3595 109.5134 422.2477 108.8428 423.0301 108.2839 423.3655 104.7073 423.9243 104.0366 424.1479 103.9249 424.4832 104.1484 424.7067 104.4837 424.9303 104.9308 425.042 105.3779 425.2656 105.7132 425.6009 105.9367 425.9362 106.0485 426.3833 106.2721 426.8304 106.4956 427.1657 106.8309 427.501 107.0545 427.7245 107.0545 428.0598 106.7191 428.5069 105.4897 428.8422 104.5955 429.4011 102.3601 431.0777 101.5777 431.413 100.5717 431.3012 95.2067 429.5129 95.0949 429.2893 94.8714 428.954 94.8714 428.6187 94.7596 428.2834 94.8714 427.8363 94.9832 427.501 95.3185 427.0539 95.542 426.8304 96.3244 426.3833 97.5539 425.8244 97.8892 425.6009 98.2245 425.2656 98.5598 425.042 98.7834 424.5949 98.8952 424.2596 98.8952 423.8125 98.7834 423.3655 97.8892 422.4713 96.4362 421.3536 95.7656 420.7947 95.3185 420.2359 95.3185 420.0123 95.2067 419.677 95.2067 419.2299 95.2067 418.7828 95.3185 418.4475 95.4303 418.224 95.7656 417.6651 95.8773 417.5534 96.2127 417.3298 96.6597 417.218 97.1068 417.1063 98.001 417.3298 99.3422 417.7769 100.2364 417.8887 100.6835 417.8887 101.0188 417.8887 101.4659 417.7769 101.8012 417.5534 102.0248 417.218 102.1365 416.771 102.1365 414.5355 102.3601 413.6414 102.4718 413.1943 102.5836 412.7472 102.2483 411.1824 102.2483 410.7353 102.3601 410.4 102.5836 410.0647 103.2542 409.3941 103.4778 408.947 103.5895 408.2763 103.366 407.1586 102.9189 406.7116 102.4718 406.488 102.0248 406.5998 101.3541 406.5998 100.46 406.488 98.6716 405.8174 97.6657 405.5938 96.7715 405.5938 96.3244 405.8174 94.4243 406.3762 93.5301 406.7116 99.5658 392.9637 103.7013 386.3692 108.5075 370.2741 108.5075 370.3859 110.5194 372.6213 111.6371 373.292 118.7904 374.1861 123.2613 374.2979 124.0437 374.1861 124.8261 373.8508 124.9378 373.8508 125.0496 373.8508 125.0496 373.7391 128.4028 370.1624 128.6263 369.9388 128.9616 369.4917 129.5205 369.1564 130.9735 368.374 131.7559 368.1505 132.4265 368.0387 132.8736 368.2623 133.2089 368.4858 133.9913 369.4917 134.8855 370.1624 135.4443 370.3859 136.4503 370.1624 140.3623 368.5976 141.3682 367.8152 141.8153 367.1446 141.7035 366.6975 141.5917 366.3622 141.48 366.1386 140.9211 365.6915 140.5858 365.3562 138.5739 364.462 138.2386 364.1267 138.1268 363.7914 138.0151 363.3443 137.0091 357.1969 136.7856 356.7498 136.6738 356.3028 136.4503 355.9674 135.7796 355.2968 134.7737 354.6262 134.4384 354.2909 133.7678 353.8438 133.5442 353.6202 133.4325 353.5085 133.2089 353.1732 132.9854 352.8378 132.8736 352.3908 132.8736 351.8319 132.8736 351.3848 132.9854 350.3789 133.2089 349.4847 133.4325 346.914 133.5442 345.6845 133.7678 345.2374 135.2208 343.3373 135.6679 342.5549 137.2327 339.4253 137.7915 337.4134 137.7915 336.8546 137.6798 336.4075 137.3444 335.2898 137.2327 334.8427 137.2327 334.2838 137.4562 333.3897 137.6798 332.2719 137.6798 330.3718 137.568 329.813 137.4562 329.3659 137.2327 328.9188 137.0091 328.6953 135.7796 328.0246 135.4443 327.8011 135.2208 327.5776 134.6619 326.7952 133.656 326.1245 132.3147 325.0068 131.9794 324.7833 131.0853 324.3362 130.1911 324.1127 125.4967 323.442 124.1554 323.5538 131.5323 300.4172 138.1268 267.2211 138.2386 267.2211 147.4039 267.4447 149.8628 267.2211 150.4217 267.1094 152.5453 266.8858 163.4989 267.78 164.2813 268.1153 165.1755 268.6741 168.6404 271.8037 169.4228 272.2508 169.8699 272.6979 170.0934 273.0332 170.4287 273.3685 170.6523 273.8156 172.1053 274.1509 174.5642 273.9274 174.676 273.9274 173.7818 278.3982 172.2171 283.7633 171.3229 284.3221 168.4168 285.4398 167.5227 286.1105 166.6285 289.3518 165.8461 297.6229 165.1755 301.0878 167.9697 301.8702 169.5345 303.8821 169.8699 306.6763 169.0875 309.9177 167.5227 313.1591 158.9163 321.2066 158.1339 325.1186 159.1398 328.4717 162.3812 334.6191 164.5048 341.4372 163.946 350.3789 168.9757 368.374 166.7403 370.9448 167.1873 375.4156 166.9638 379.3276 164.5048 382.3454 167.6344 386.9281 169.0875 388.1575 168.1933 389.6106 168.6404 391.0636 170.9876 392.9637 174.0054 393.5226 176.0173 397.6581 175.0113 409.9529 174.1172 411.0706 168.8639 411.2942 167.0756 411.853 165.7343 411.6295 161.0399 411.6295 158.3574 411.853 154.8925 413.5296 152.21 415.3179 149.9746 415.3179 147.7392 417.4416 147.1803 418.224 145.5037 422.136 144.1625 423.4772 142.8212 424.2596 129.2969 427.9481Z" />
  <path class="HaZafon" d="M213.9077 232.0132L213.4606 230.7837 207.2014 224.8598 206.419 224.4128 205.4131 223.7421 205.0778 223.9657 204.7425 224.1892 204.1836 224.8598 203.6248 225.9776 203.2894 226.3129 203.0659 226.6482 202.7306 226.9835 200.7187 227.9894 200.3834 228.213 200.0481 228.5483 199.9363 228.9954 199.8245 229.4425 199.7128 229.8895 199.4892 230.4484 199.1539 230.8955 197.9244 231.6779 197.4773 232.0132 197.3656 232.3485 197.142 232.6838 196.6949 233.2427 196.0243 233.9133 194.5713 235.031 193.6771 235.3663 193.0065 235.4781 192.4476 235.3663 192.0006 235.2546 185.6296 233.9133 184.6237 233.4662 183.953 233.0191 182.5 232.2367 181.8294 231.6779 181.3823 231.119 181.1587 230.6719 180.7117 230.1131 179.2586 229.2189 178.9233 228.7718 178.8116 228.3248 178.6998 227.8777 178.8116 227.4306 179.3704 225.5305 179.4822 224.5245 179.3704 223.8539 179.0351 223.4068 176.0173 221.5067 175.1231 220.6125 174.8996 220.2772 174.7878 219.8301 174.676 219.2713 174.676 218.8242 174.5642 218.0418 174.2289 217.1476 173.223 215.5828 172.8877 214.6887 172.8877 214.1298 173.1112 213.7945 173.5583 213.571 174.0054 213.4592 175.0113 213.3474 175.5702 213.4592 176.129 213.571 177.3585 214.1298 178.3645 214.2416 178.4762 213.9063 178.1409 213.1239 176.3526 211.2238 175.682 210.1061 175.3466 209.3237 175.3466 208.7648 175.5702 207.7589 175.682 207.4235 176.129 206.6411 176.3526 206.3058 177.0232 205.6352 177.3585 205.4117 177.8056 205.2999 178.2527 205.0763 178.6998 205.0763 179.2586 205.0763 180.2646 205.2999 183.1706 206.6411 183.6177 206.6411 184.0648 206.6411 184.4001 206.4176 184.7354 206.0823 185.4061 204.9646 187.0826 201.2761 187.5297 200.4937 187.865 200.1584 188.2003 199.9349 191.3299 198.1465 191.4417 197.5877 191.4417 196.47 190.4358 191.7756 190.4358 191.3285 190.5475 189.7637 190.8828 188.8695 191.1064 188.5342 191.4417 188.3107 191.8888 188.3107 192.2241 188.5342 192.5594 188.7578 193.23 189.8755 193.4536 190.2108 193.7889 190.5461 194.1242 190.7696 194.4595 190.6579 194.9066 190.5461 195.2419 190.2108 195.8008 189.6519 196.3596 188.9813 196.6949 188.1989 196.6949 187.64 196.6949 187.0812 196.5832 185.7399 196.6949 185.0693 196.9185 184.5105 198.0362 183.8398 198.3715 183.3927 198.4833 182.4986 198.0362 178.8101 198.148 178.363 198.4833 177.5806 198.7068 177.2453 200.8305 173.7804 201.1658 173.1098 201.3893 172.1039 201.6129 169.9802 201.6129 168.9743 201.6129 168.1919 199.2657 163.1622 198.8186 161.9327 198.595 160.9267 198.595 160.3679 199.1539 157.1265 199.1539 156.2323 198.9304 155.6735 198.595 155.4499 197.8127 155.0029 194.5713 154.1087 193.7889 153.6616 193.4536 153.4381 192.6712 152.8792 192.4476 152.5439 191.777 152.0968 189.9887 150.7556 189.6534 150.3085 189.5416 149.7496 190.1004 146.5083 189.9887 145.7259 189.7651 145.167 188.871 144.6081 188.5356 144.0493 188.0886 143.2669 187.3062 141.4785 186.7473 140.8079 186.1884 140.3608 184.6237 139.802 184.0648 139.6902 185.0707 136.3371 184.6237 133.0957 181.9411 131.7545 183.2824 127.8425 184.7354 111.7474 187.7532 103.2528 188.6474 98.2231 187.7532 93.6405 188.7592 92.6345 189.9887 90.958 190.9946 90.1756 189.4298 88.3872 190.4358 88.1637 190.6593 87.9402 208.4309 89.2814 209.3251 88.9461 209.8839 88.499 211.784 87.046 213.2371 86.4871 214.5783 86.5989 217.7079 87.3813 219.2727 87.4931 220.3904 87.1578 221.1728 86.8224 223.0729 86.2636 227.432 84.8106 229.5557 84.8106 230.1145 84.8106 231.344 85.2576 232.5735 85.9283 235.0325 87.9402 237.2679 90.6227 238.8327 93.7523 240.8446 96.4348 243.7506 96.7701 246.2096 96.2112 256.269 93.5287 264.8754 89.8403 266.8872 88.9461 273.5935 88.3872 274.0406 87.046 274.7112 84.3635 278.8468 76.9866 280.7469 72.5157 281.9763 65.8095 282.4234 52.844 284.2118 46.9201 286.2237 43.3435 287.4531 39.7668 289.0179 37.196 291.5887 36.9725 292.2593 37.7549 292.8182 38.5373 296.8419 44.9083 299.6362 46.9201 299.748 46.9201 300.9774 48.0378 301.201 46.9201 302.4305 45.6906 304.107 43.7905 304.5541 40.3256 307.0131 38.9844 311.7075 38.4255 313.4958 35.0724 321.9904 26.2425 325.9024 25.1248 328.8085 24.9012 331.9381 24.007 334.9559 22.554 337.6384 20.8774 339.5385 18.7538 341.2151 16.8537 345.6859 8.0238 349.0391 4 349.3744 5.3413 348.1449 7.0178 347.8096 11.3769 347.1389 12.8299 346.5801 16.2948 343.0034 18.9773 342.221 19.7597 341.2151 20.8774 336.4089 23.1129 337.3031 23.6717 344.9035 28.925 337.4149 39.4315 338.9796 41.5551 345.2388 45.8024 346.133 58.209 351.0509 61.3386 351.8333 68.9391 349.3744 74.0805 346.9154 77.9925 346.9154 81.9045 355.1865 85.4812 354.5158 88.9461 357.4219 114.0946 358.6514 117.336 363.9046 126.0541 360.775 131.978 359.2102 132.4251 355.41 138.9078 352.8393 146.8436 353.6217 150.0849 351.9451 156.7912 340.8798 169.9802 334.9559 178.8101 331.1557 179.8161 318.9726 187.5283 311.7075 194.1228 308.1308 196.0229 302.8776 195.3523 298.742 198.2583 295.3889 202.7292 293.4888 204.5175 291.924 205.1881 291.3651 205.9705 291.2534 208.2059 292.1475 210.1061 294.0476 211.2238 294.0476 212.7886 292.4828 212.7886 292.4828 214.8004 293.8241 217.1476 294.4947 223.9657 295.7242 227.207 294.83 228.5483 294.4947 228.7718 294.3829 228.1012 294.0476 227.207 293.4888 228.1012 292.4828 230.8955 291.1416 229.1072 291.924 234.5839 292.4828 236.2605 289.465 236.2605 289.465 238.0488 290.6945 237.9371 291.5887 237.9371 293.1535 240.2843 293.6006 241.402 295.7242 243.6374 295.7242 245.2022 293.7123 245.8728 292.3711 247.2141 291.5887 249.0024 291.1416 250.7908 292.0358 251.3496 292.4828 251.7967 293.0417 252.2438 294.0476 252.3556 294.0476 254.3674 292.7064 255.2616 291.1416 255.9322 292.4828 257.7206 289.465 259.7325 290.0239 260.1795 290.471 260.0678 290.8063 260.2913 291.1416 261.5208 289.465 261.5208 289.465 263.0856 290.918 264.5386 291.1416 265.5446 290.1356 266.327 288.012 266.6623 289.0179 269.5683 289.465 270.4625 290.5827 271.5802 291.4769 273.2568 273.5935 268.5624 268.452 267.2211 263.1988 267.1094 257.3867 265.321 256.1572 258.7265 256.269 250.5672 254.3689 244.4198 247.7744 240.396 241.1799 239.6136 227.2085 240.2843 223.1847 238.8312 216.9255 233.578 213.9077 232.0132Z" />
  <path class="Jerusalem" d="M157.0162 475.7861L157.0162 475.6744 141.1447 464.2737 139.3563 462.5971 139.5799 461.0323 139.5799 458.7969 139.4681 458.2381 139.1328 456.8968 139.1328 456.338 139.2446 454.7732 138.9092 451.5318 138.9092 450.9729 139.021 450.4141 139.1328 449.967 139.6916 448.6257 139.8034 448.1787 139.8034 447.6198 139.8034 447.0609 139.6916 445.9432 138.7975 443.2607 138.6857 442.8136 138.6857 442.3666 138.7975 441.9195 139.1328 440.9135 139.3563 440.2429 139.3563 439.0134 139.2446 438.3428 138.9092 437.8957 138.6857 437.6722 137.7915 437.3369 137.3444 437.2251 135.3326 435.6603 129.2969 427.9481 142.8212 424.2596 144.1625 423.4772 145.5037 422.136 147.1803 418.224 147.7392 417.4416 149.9746 415.3179 152.21 415.3179 154.8925 413.5296 158.3574 411.853 161.0399 411.6295 165.7343 411.6295 167.0756 411.853 165.1755 414.0884 162.7165 416.2121 162.3812 417.218 163.0518 417.7769 167.7462 418.4475 170.3169 418.224 173.4465 417.4416 177.4703 413.3061 179.8175 412.0766 181.7176 411.7413 184.2883 411.853 186.8591 413.4178 188.9827 417.7769 192.3359 419.677 194.236 419.4535 197.7009 422.2477 205.8602 423.9243 208.5427 423.589 208.5427 422.2477 207.7603 420.6829 207.9838 419.3417 209.4369 419.0064 210.8899 419.0064 214.5783 421.0183 215.1372 420.6829 215.249 419.677 215.249 415.765 214.4666 411.9648 213.6842 409.3941 212.6782 407.3822 212.79 405.8174 214.3548 404.6997 216.4784 405.2585 217.4844 408.3881 217.3726 410.9589 217.7079 412.859 219.0492 414.8708 221.5081 414.2002 222.7376 414.312 223.52 415.0944 224.3024 415.8768 223.0729 417.7769 223.52 418.224 224.973 418.4475 225.979 419.1182 225.0848 421.0183 223.9671 422.6948 224.6377 425.7127 224.973 427.8363 225.5319 428.6187 224.526 430.1835 223.2965 433.7602 223.4083 435.6603 224.8613 437.1133 225.5319 439.237 224.526 440.9135 223.2965 442.0312 222.5141 445.8315 221.5081 446.9492 221.0611 449.0728 220.0551 449.5199 218.6021 448.6257 217.8197 447.3963 217.0373 446.9492 215.9196 447.9551 212.79 445.9432 207.0897 446.7256 204.2954 443.596 201.6129 443.2607 200.3834 442.2548 195.2419 443.3725 192.6712 447.2845 188.0886 451.3083 180.4881 458.0145 161.5988 469.974 157.575 474.7802 157.0162 475.7861Z" />
  <path class="Tel Aviv" d="M124.1554 323.5538L125.4967 323.442 130.1911 324.1127 131.0853 324.3362 131.9794 324.7833 132.3147 325.0068 133.656 326.1245 134.6619 326.7952 135.2208 327.5776 135.4443 327.8011 135.7796 328.0246 137.0091 328.6953 137.2327 328.9188 137.4562 329.3659 137.568 329.813 137.6798 330.3718 137.6798 332.2719 137.4562 333.3897 137.2327 334.2838 137.2327 334.8427 137.3444 335.2898 137.6798 336.4075 137.7915 336.8546 137.7915 337.4134 137.2327 339.4253 135.6679 342.5549 135.2208 343.3373 133.7678 345.2374 133.5442 345.6845 133.4325 346.914 133.2089 349.4847 132.9854 350.3789 132.8736 351.3848 132.8736 351.8319 132.8736 352.3908 132.9854 352.8378 133.2089 353.1732 133.4325 353.5085 133.5442 353.6202 133.7678 353.8438 134.4384 354.2909 134.7737 354.6262 135.7796 355.2968 136.4503 355.9674 136.6738 356.3028 136.7856 356.7498 137.0091 357.1969 138.0151 363.3443 138.1268 363.7914 138.2386 364.1267 138.5739 364.462 140.5858 365.3562 140.9211 365.6915 141.48 366.1386 141.5917 366.3622 141.7035 366.6975 141.8153 367.1446 141.3682 367.8152 140.3623 368.5976 136.4503 370.1624 135.4443 370.3859 134.8855 370.1624 133.9913 369.4917 133.2089 368.4858 132.8736 368.2623 132.4265 368.0387 131.7559 368.1505 130.9735 368.374 129.5205 369.1564 128.9616 369.4917 128.6263 369.9388 128.4028 370.1624 125.0496 373.7391 125.0496 373.8508 124.9378 373.8508 124.8261 373.8508 124.0437 374.1861 123.2613 374.2979 118.7904 374.1861 111.6371 373.292 110.5194 372.6213 108.5075 370.3859 108.5075 370.2741 110.6311 363.3443 110.7429 362.1149 110.5194 359.3206 110.6311 358.0911 113.649 356.4145 124.1554 323.5538Z" />
</svg>