<?xml version="1.0" encoding="utf-8"?>
<svg xmlns="http://www.w3.org/2000/svg" viewBox="0 0 1021 36" style="stroke-width:0.25px;stroke-linejoin:round;stroke:#444;fill:#ddd" fill-rule="evenodd">
  <path class="Central" d="M1011.8158 21.6086L1011.8158 21.507 1011.9175 21.6086 1011.9175 21.7103 1011.8158 21.7103 1011.7142 21.7103 1011.8158 21.7103 1011.8158 21.6086ZM1010.7993 21.202L1010.901 21.1004 1010.901 20.9987 1011.0026 20.897 1010.901 20.7954 1010.7993 20.7954 1010.7993 20.6937 1010.901 20.5921 1010.901 20.4904 1011.0026 20.4904 1011.1043 20.4904 1011.3076 20.4904 1011.4092 20.4904 1011.5109 20.3888 1011.5109 20.2871 1011.4092 20.2871 1011.4092 20.1855 1011.4092 20.0838 1011.4092 19.9822 1011.5109 19.7789 1011.6125 19.7789 1011.7142 19.6772 1011.7142 19.5756 1011.6125 19.5756 1011.6125 19.6772 1011.5109 19.7789 1011.5109 19.5756 1011.5109 19.4739 1011.5109 19.3723 1011.5109 19.2706 1011.6125 19.2706 1011.6125 19.3723 1011.7142 19.4739 1011.8158 19.4739 1011.8158 19.5756 1011.9175 19.5756 1012.0191 19.5756 1012.1208 19.4739 1012.2224 19.4739 1012.2224 19.3723 1012.3241 19.3723 1012.3241 19.4739 1012.4257 19.4739 1012.5274 19.4739 1012.629 19.4739 1012.7307 19.4739 1012.7307 19.3723 1012.7307 19.169 1012.8323 19.169 1012.8323 19.2706 1012.934 19.3723 1013.0356 19.3723 1013.1373 19.3723 1013.1373 19.4739 1013.1373 19.5756 1013.1373 19.6772 1013.0356 19.6772 1013.0356 19.7789 1013.1373 19.8805 1013.1373 19.9822 1013.2389 19.9822 1013.2389 20.0838 1013.2389 20.1855 1013.2389 20.0838 1013.2389 20.1855 1013.1373 20.1855 1013.1373 20.2871 1013.1373 20.3888 1013.2389 20.3888 1013.3406 20.4904 1013.3406 20.5921 1013.4422 20.5921 1013.4422 20.4904 1013.4422 20.5921 1013.4422 20.6937 1013.3406 20.6937 1013.3406 20.7954 1013.1373 20.897 1013.0356 20.897 1013.0356 20.7954 1012.934 20.7954 1012.8323 20.7954 1012.8323 20.897 1012.7307 20.9987 1012.7307 20.897 1012.629 20.7954 1012.5274 20.7954 1012.5274 20.897 1012.4257 20.897 1012.3241 20.897 1012.2224 20.897 1012.2224 20.9987 1012.1208 21.1004 1012.0191 21.1004 1012.0191 21.202 1011.9175 21.3037 1011.8158 21.3037 1011.8158 21.202 1011.6125 21.3037 1011.5109 21.3037 1011.4092 21.3037 1011.3076 21.3037 1011.2059 21.3037 1011.1043 21.3037 1011.0026 21.3037 1011.0026 21.202 1010.7993 21.202Z" />
  <path class="Eastern" d="M4.5578 23.8449L4.5578 23.9466 4.6594 23.9466 4.7611 23.9466 4.7611 24.0482 4.6594 24.0482 4.5578 23.9466 4.5578 23.8449 4.6594 23.8449 4.5578 23.8449ZM3.5413 23.4383L3.5413 23.3367 3.5413 23.235 3.6429 23.3367 3.6429 23.4383 3.5413 23.4383ZM1 23.4383L1 23.235 1.1017 23.235 1.2033 23.3367 1.1017 23.4383 1.1017 23.3367 1 23.3367 1 23.4383 1 23.54 1 23.4383ZM4.0495 21.1004L4.1512 21.1004 4.1512 21.202 4.0495 21.202 3.9479 21.202 3.8462 21.202 3.9479 21.1004 4.0495 20.9987 4.0495 21.1004ZM3.2363 20.3888L3.338 20.3888 3.338 20.4904 3.2363 20.4904 3.2363 20.3888ZM5.371 20.1855L5.4726 20.1855 5.5743 20.2871 5.5743 20.3888 5.4726 20.3888 5.371 20.3888 5.2693 20.3888 5.2693 20.2871 5.2693 20.1855 5.371 20.1855ZM3.5413 18.0508L3.6429 18.1525 3.6429 18.2541 3.5413 18.3558 3.4396 18.4574 3.4396 18.3558 3.5413 18.2541 3.4396 18.2541 3.5413 18.2541 3.5413 18.1525 3.4396 18.1525 3.338 18.0508 3.338 17.9492 3.4396 18.0508 3.5413 18.0508ZM1016.4917 23.8449L1016.4917 23.9466 1016.5934 24.0482 1016.4917 24.0482 1016.3901 24.0482 1016.3901 23.9466 1016.4917 23.9466 1016.4917 24.0482 1016.4917 23.9466 1016.3901 23.9466 1016.3901 23.8449 1016.4917 23.8449ZM1012.629 23.3367L1012.7307 23.3367 1012.8323 23.3367 1012.8323 23.4383 1012.8323 23.54 1012.7307 23.6416 1012.7307 23.54 1012.629 23.54 1012.629 23.6416 1012.5274 23.6416 1012.4257 23.6416 1012.4257 23.54 1012.3241 23.54 1012.4257 23.54 1012.3241 23.4383 1012.2224 23.54 1012.1208 23.6416 1012.0191 23.6416 1012.0191 23.7433 1011.9175 23.7433 1011.9175 23.8449 1012.0191 23.8449 1012.0191 23.9466 1011.9175 23.9466 1011.9175 23.8449 1011.8158 23.8449 1011.8158 23.9466 1011.7142 23.9466 1011.6125 23.9466 1011.5109 23.9466 1011.4092 23.9466 1011.3076 23.9466 1011.3076 23.8449 1011.4092 23.8449 1011.4092 23.7433 1011.5109 23.8449 1011.5109 23.7433 1011.6125 23.6416 1011.8158 23.7433 1011.8158 23.6416 1011.9175 23.6416 1011.9175 23.54 1012.0191 23.4383 1012.1208 23.3367 1012.2224 23.3367 1012.3241 23.4383 1012.3241 23.3367 1012.4257 23.3367 1012.4257 23.235 1012.5274 23.235 1012.5274 23.3367 1012.629 23.3367ZM1012.934 23.1334L1012.934 23.235 1012.8323 23.235 1012.8323 23.1334 1012.934 23.0317 1012.934 23.1334ZM1016.8983 22.2185L1017 22.2185 1016.8983 22.2185 1016.7967 22.3202 1016.8983 22.3202 1016.7967 22.4218 1016.7967 22.5235 1016.695 22.4218 1016.695 22.3202 1016.5934 22.3202 1016.5934 22.2185 1016.695 22.2185 1016.7967 22.2185 1016.8983 22.2185ZM1015.2719 20.4904L1015.2719 20.5921 1015.2719 20.7954 1015.2719 20.897 1015.1703 20.7954 1015.1703 20.6937 1015.0686 20.6937 1015.0686 20.5921 1015.0686 20.4904 1015.0686 20.5921 1014.967 20.5921 1014.967 20.4904 1014.967 20.3888 1015.0686 20.2871 1015.1703 20.3888 1015.2719 20.4904ZM1015.4752 19.8805L1015.4752 19.9822 1015.4752 20.0838 1015.4752 19.9822 1015.3736 19.9822 1015.3736 19.8805 1015.4752 19.8805ZM1013.5439 19.6772L1013.5439 19.7789 1013.6455 19.7789 1013.6455 19.8805 1013.5439 19.8805 1013.5439 19.7789 1013.4422 19.6772 1013.5439 19.6772ZM1013.6455 19.3723L1013.7472 19.3723 1013.7472 19.4739 1013.8488 19.5756 1013.8488 19.6772 1013.7472 19.6772 1013.7472 19.7789 1013.6455 19.7789 1013.6455 19.6772 1013.5439 19.6772 1013.5439 19.5756 1013.5439 19.4739 1013.6455 19.3723ZM1014.2554 19.3723L1014.2554 19.2706 1014.3571 19.3723 1014.3571 19.4739 1014.3571 19.3723 1014.2554 19.3723ZM1015.5769 18.4574L1015.5769 18.5591 1015.4752 18.6607 1015.3736 18.7624 1015.3736 18.6607 1015.3736 18.5591 1015.3736 18.4574 1015.2719 18.3558 1015.3736 18.3558 1015.3736 18.2541 1015.4752 18.2541 1015.5769 18.2541 1015.5769 18.3558 1015.5769 18.4574ZM4.2528 28.5209L4.1512 28.5209 4.1512 28.4192 4.2528 28.5209ZM5.066 23.9466L5.066 23.8449 5.1677 23.8449 5.1677 23.9466 5.066 24.0482 5.066 23.9466ZM3.7446 23.1334L3.6429 23.1334 3.7446 23.0317 3.7446 23.1334ZM4.7611 22.5235L4.7611 22.4218 4.8627 22.4218 4.8627 22.5235 4.7611 22.5235ZM2.5248 19.8805L2.4231 19.7789 2.5248 19.6772 2.6264 19.7789 2.6264 19.8805 2.5248 19.8805ZM2.9314 18.9657L2.9314 18.864 3.033 18.7624 3.033 18.864 3.033 18.9657 2.9314 18.9657ZM2.9314 18.3558L3.033 18.2541 3.033 18.3558 2.9314 18.3558Z" />
  <path class="Northern" d="M1012.4257 16.9327L1012.4257 17.0343 1012.3241 17.0343 1012.2224 17.0343 1012.2224 16.9327 1012.3241 16.9327 1012.4257 16.9327ZM1016.8983 16.5261L1016.7967 16.5261 1016.8983 16.5261 1016.8983 16.4244 1017 16.4244 1017 16.5261 1016.8983 16.5261Z" />
  <path class="Rotuma" d="M1008.9696 4.328L1008.9696 4.4296 1008.8679 4.4296 1008.7663 4.4296 1008.6646 4.4296 1008.7663 4.4296 1008.7663 4.328 1008.8679 4.328 1008.9696 4.328Z" />
  <path class="Western" d="M1010.4943 22.0152L1010.4943 22.1169 1010.4943 22.2185 1010.3927 22.2185 1010.3927 22.1169 1010.3927 22.0152 1010.3927 21.9136 1010.3927 22.0152 1010.4943 22.0152ZM1010.7993 21.202L1010.596 21.1004 1010.4943 21.1004 1010.291 20.9987 1010.1894 20.9987 1010.0877 20.9987 1009.9861 20.9987 1009.8844 20.9987 1009.8844 20.897 1009.6811 20.897 1009.5795 20.7954 1009.4778 20.6937 1009.4778 20.7954 1009.4778 20.6937 1009.4778 20.5921 1009.3762 20.4904 1009.3762 20.3888 1009.3762 20.2871 1009.3762 20.1855 1009.3762 20.0838 1009.4778 20.0838 1009.5795 20.0838 1009.6811 20.0838 1009.6811 19.9822 1009.6811 19.8805 1009.6811 19.7789 1009.7828 19.7789 1009.8844 19.7789 1009.8844 19.6772 1009.7828 19.5756 1009.7828 19.4739 1009.6811 19.4739 1009.7828 19.3723 1009.8844 19.3723 1009.8844 19.2706 1009.9861 19.2706 1009.9861 19.169 1010.0877 19.169 1010.0877 19.0673 1010.1894 19.0673 1010.291 18.9657 1010.3927 18.864 1010.4943 18.864 1010.4943 18.9657 1010.4943 19.0673 1010.4943 18.9657 1010.4943 18.864 1010.596 18.7624 1010.6976 18.864 1010.7993 18.7624 1010.7993 18.6607 1010.901 18.6607 1011.0026 18.6607 1011.0026 18.7624 1010.901 18.7624 1011.0026 18.7624 1011.1043 18.7624 1011.1043 18.6607 1011.2059 18.7624 1011.3076 18.7624 1011.4092 18.7624 1011.5109 18.6607 1011.6125 18.6607 1011.6125 18.5591 1011.7142 18.5591 1011.8158 18.5591 1011.9175 18.5591 1012.0191 18.4574 1012.1208 18.4574 1012.2224 18.5591 1012.2224 18.6607 1012.2224 18.7624 1012.2224 18.864 1012.1208 18.864 1012.2224 18.864 1012.1208 18.9657 1012.2224 18.9657 1012.2224 18.864 1012.3241 18.864 1012.4257 18.864 1012.5274 18.864 1012.5274 18.9657 1012.5274 19.0673 1012.629 19.0673 1012.7307 19.169 1012.7307 19.3723 1012.7307 19.4739 1012.629 19.4739 1012.5274 19.4739 1012.4257 19.4739 1012.3241 19.4739 1012.3241 19.3723 1012.2224 19.3723 1012.2224 19.4739 1012.1208 19.4739 1012.0191 19.5756 1011.9175 19.5756 1011.8158 19.5756 1011.8158 19.4739 1011.7142 19.4739 1011.6125 19.3723 1011.6125 19.2706 1011.5109 19.2706 1011.5109 19.3723 1011.5109 19.4739 1011.5109 19.5756 1011.5109 19.7789 1011.6125 19.6772 1011.6125 19.5756 1011.7142 19.5756 1011.7142 19.6772 1011.6125 19.7789 1011.5109 19.7789 1011.4092 19.9822 1011.4092 20.0838 1011.4092 20.1855 1011.4092 20.2871 1011.5109 20.2871 1011.5109 20.3888 1011.4092 20.4904 1011.3076 20.4904 1011.1043 20.4904 1011.0026 20.4904 1010.901 20.4904 1010.901 20.5921 1010.7993 20.6937 1010.7993 20.7954 1010.901 20.7954 1011.0026 20.897 1010.901 20.9987 1010.901 21.1004 1010.7993 21.202ZM1008.8679 18.2541L1008.9696 18.3558 1009.0712 18.2541 1009.0712 18.3558 1008.9696 18.4574 1008.8679 18.4574 1008.8679 18.3558 1008.9696 18.3558 1008.8679 18.2541ZM1009.3762 17.7459L1009.4778 17.6442 1009.4778 17.7459 1009.4778 17.8475 1009.3762 17.8475 1009.2745 17.9492 1009.1729 17.9492 1009.1729 18.0508 1009.1729 17.9492 1009.1729 17.8475 1009.2745 17.7459 1009.3762 17.7459ZM1009.8844 17.136L1009.7828 17.2376 1009.7828 17.3393 1009.6811 17.3393 1009.6811 17.2376 1009.7828 17.2376 1009.7828 17.136 1009.8844 17.136ZM1010.1894 16.6277L1010.291 16.6277 1010.291 16.7294 1010.1894 16.831 1009.9861 16.9327 1009.9861 17.0343 1009.8844 17.0343 1009.8844 16.9327 1009.9861 16.9327 1010.0877 16.831 1010.1894 16.7294 1010.291 16.6277 1010.1894 16.6277ZM1001.854 31.672L1001.854 31.5704 1001.9557 31.5704 1001.9557 31.672 1001.854 31.672Z" />
</svg>