<?xml version="1.0" encoding="utf-8"?>
<svg xmlns="http://www.w3.org/2000/svg" viewBox="0 0 1021 857" style="stroke-width:0.25px;stroke-linejoin:round;stroke:#444;fill:#ddd" fill-rule="evenodd">
  <path class="Andorra la Vella" d="M229.6838 509.5341L273.9452 483.8267 316.0829 455.2133 356.097 446.6069 389.8519 432.3002 425.6187 432.3002 406.7294 463.8197 375.0981 495.2274 360.3443 515.2344 343.4669 546.6421 320.3303 586.6562 286.5754 606.6633 263.4387 620.97 246.5613 603.869 236.0548 566.6492 233.9311 543.8479 229.6838 509.5341Z" />
  <path class="Canillo" d="M423.495 337.9653L429.866 292.1392 448.8671 254.9194 478.2629 226.3059 516.2651 214.9053 545.7727 203.5046 545.7727 169.0791 541.749 109.8404 572.8213 124.4824 894.9459 156.3372 870.3562 234.4652 916.0706 263.5257 981.9039 283.9799 1005.7111 318.7407 1017 335.1711 945.9135 341.8773 894.0517 392.2861 881.0862 425.4822 861.7498 406.5928 834.3659 389.3801 804.8583 375.0734 794.3518 326.4529 783.8453 292.1392 743.8312 309.3519 689.0634 309.3519 630.0482 317.9583 562.5384 332.265 507.7705 332.265 467.7564 332.265 423.495 337.9653Z" />
  <path class="Encamp" d="M423.495 337.9653L467.7564 332.265 507.7705 332.265 562.5384 332.265 630.0482 317.9583 689.0634 309.3519 743.8312 309.3519 783.8453 292.1392 794.3518 326.4529 804.8583 375.0734 834.3659 389.3801 861.7498 406.5928 881.0862 425.4822 862.7558 472.2025 852.4728 568.1022 825.536 600.0688 793.9047 614.9343 759.7028 615.2696 725.9479 602.9748 718.6827 591.1271 710.747 587.8857 701.6935 540.9418 665.815 509.5341 632.1718 492.3213 573.1567 486.621 528.8953 495.2274 491.0048 475.2204 482.5102 440.9066 461.4972 429.5059 425.6187 432.3002 425.6187 377.9794 423.495 337.9653Z" />
  <path class="Escaldes-Engordany" d="M425.6187 432.3002L461.4972 429.5059 482.5102 440.9066 491.0048 475.2204 528.8953 495.2274 573.1567 486.621 632.1718 492.3213 665.815 509.5341 701.6935 540.9418 710.747 587.8857 702.2524 592.133 691.9694 604.2043 661.2323 707.8162 570.4741 746.2655 471.892 759.1191 463.5091 712.3988 459.3736 672.3847 478.2629 638.071 448.8671 632.3706 402.4821 638.071 349.8378 646.6773 311.8356 632.3706 263.4387 620.97 286.5754 606.6633 320.3303 586.6562 343.4669 546.6421 360.3443 515.2344 375.0981 495.2274 406.7294 463.8197 425.6187 432.3002Z" />
  <path class="La Massana" d="M128.3074 186.2919L151.7793 206.2989 183.2988 206.2989 212.8064 211.9992 227.5602 232.118 244.4376 280.7385 269.6979 306.4459 309.712 317.9583 358.2207 329.359 396.1111 335.0593 423.495 337.9653 425.6187 377.9794 425.6187 432.3002 389.8519 432.3002 356.097 446.6069 316.0829 455.2133 273.9452 483.8267 229.6838 509.5341 189.6697 520.9348 151.7793 540.9418 124.2836 563.1843 114.5595 502.3807 64.8213 457.8958 1 466.3904 10.277 422.6879 57.2209 341.2067 57.4444 326.4529 33.749 310.3579 37.2139 274.0322 53.0854 235.1359 65.7155 211.9992 128.3074 186.2919Z" />
  <path class="Ordino" d="M128.3074 186.2919L172.0099 34.6184 261.5386 39.3128 344.6964 7.3462 388.0636 4.2166 541.749 109.8404 545.7727 169.0791 545.7727 203.5046 516.2651 214.9053 478.2629 226.3059 448.8671 254.9194 429.866 292.1392 423.495 337.9653 396.1111 335.0593 358.2207 329.359 309.712 317.9583 269.6979 306.4459 244.4376 280.7385 227.5602 232.118 212.8064 211.9992 183.2988 206.2989 151.7793 206.2989 128.3074 186.2919Z" />
  <path class="Sant Julià de Lòria" d="M124.2836 563.1843L151.7793 540.9418 189.6697 520.9348 229.6838 509.5341 233.9311 543.8479 236.0548 566.6492 246.5613 603.869 263.4387 620.97 311.8356 632.3706 349.8378 646.6773 402.4821 638.071 448.8671 632.3706 478.2629 638.071 459.3736 672.3847 463.5091 712.3988 471.892 759.1191 391.8638 769.5139 376.1041 787.6208 363.8092 809.6397 345.9259 831.4351 313.0651 849.542 289.9285 852.7834 118.3597 829.8703 85.8343 805.616 85.8343 757.5543 4.1296 629.6881 52.1912 607.781 68.2862 603.6454 124.2836 563.1843Z" />
</svg>