<?xml version="1.0" encoding="utf-8"?>
<svg xmlns="http://www.w3.org/2000/svg" viewBox="0 0 869 1024" style="stroke-width:0.25px;stroke-linejoin:round;stroke:#444;fill:#ddd" fill-rule="evenodd">
  <path class="Acquaviva" d="M1.4515 655.626L82.4856 387.5987 206.9987 261.1855 251.5954 215.9182 290.38 247.6612 325.2526 293.0403 331.8471 356.6381 292.6154 386.9281 266.4609 371.8389 266.4609 398.9993 264.2255 474.7802 266.4609 538.378 233.712 580.7393 179.1677 614.0471 102.9397 641.3193 1.4515 655.626Z" />
  <path class="Borgo Maggiore" d="M337.8827 151.985L395.1096 180.9338 453.9012 156.6794 475.6966 168.8625 473.5729 241.5138 506.2101 317.2946 491.0092 402.1289 480.0557 477.798 512.8046 523.1771 580.4262 556.4849 613.0634 586.7749 654.5305 586.7749 656.6541 617.0649 639.2178 656.4084 582.5498 735.0953 519.2873 768.4031 449.5421 768.4031 445.1831 698.7696 414.6695 617.0649 371.0788 556.4849 310.0517 523.1771 264.2255 474.7802 266.4609 398.9993 266.4609 371.8389 292.6154 386.9281 331.8471 356.6381 325.2526 293.0403 290.38 247.6612 251.5954 215.9182 290.4917 176.3512 337.8827 151.985Z" />
  <path class="Chiesanuova" d="M36.5476 729.9538L111.6579 726.0418 190.1212 738.1131 290.38 783.4922 296.9745 822.8356 296.9745 859.1613 331.8471 886.4334 401.5923 886.4334 434.3413 931.8125 451.2187 1006.3639 355.7661 1020 288.2563 985.1274 114.2286 894.8163 36.5476 729.9538Z" />
  <path class="Domagnano" d="M506.2101 317.2946L576.0671 253.6968 639.2178 347.5846 706.8394 259.7325 783.1791 232.4603 851.136 200.829 864.5485 297.6229 857.5069 379.7747 828.8935 411.1824 778.82 441.4724 754.7892 459.5793 691.6385 462.5971 650.1714 520.1593 580.4262 556.4849 512.8046 523.1771 480.0557 477.798 491.0092 402.1289 506.2101 317.2946Z" />
  <path class="Faetano" d="M857.5069 379.7747L847.7828 491.4341 789.3265 603.2053 781.8378 617.6238 760.9366 641.431 748.4183 670.3798 698.1212 665.4618 667.6077 677.6449 639.2178 656.4084 656.6541 617.0649 654.5305 586.7749 613.0634 586.7749 580.4262 556.4849 650.1714 520.1593 691.6385 462.5971 754.7892 459.5793 778.82 441.4724 828.8935 411.1824 857.5069 379.7747Z" />
  <path class="Fiorentino" d="M639.2178 656.4084L667.6077 677.6449 663.2486 704.8053 643.5769 738.1131 634.8587 780.4744 628.376 850.1078 638.2119 930.136 606.3571 984.1215 451.2187 1006.3639 434.3413 931.8125 401.5923 886.4334 436.4649 841.0543 449.5421 768.4031 519.2873 768.4031 582.5498 735.0953 639.2178 656.4084Z" />
  <path class="Montegiardino" d="M667.6077 677.6449L698.1212 665.4618 748.4183 670.3798 744.0592 705.923 750.5419 739.7897 638.2119 930.136 628.376 850.1078 634.8587 780.4744 643.5769 738.1131 663.2486 704.8053 667.6077 677.6449Z" />
  <path class="San Marino" d="M36.5476 729.9538L1.4515 655.626 102.9397 641.3193 179.1677 614.0471 233.712 580.7393 266.4609 538.378 264.2255 474.7802 310.0517 523.1771 371.0788 556.4849 414.6695 617.0649 445.1831 698.7696 449.5421 768.4031 436.4649 841.0543 401.5923 886.4334 331.8471 886.4334 296.9745 859.1613 296.9745 822.8356 290.38 783.4922 190.1212 738.1131 111.6579 726.0418 36.5476 729.9538Z" />
  <path class="Serravalle" d="M851.136 200.829L783.1791 232.4603 706.8394 259.7325 639.2178 347.5846 576.0671 253.6968 506.2101 317.2946 473.5729 241.5138 475.6966 168.8625 453.9012 156.6794 395.1096 180.9338 337.8827 151.985 548.6832 43.4552 781.8378 4 838.6176 110.1826 851.136 200.829Z" />
</svg>