<?xml version="1.0" encoding="utf-8"?>
<svg xmlns="http://www.w3.org/2000/svg" viewBox="0 0 938 1024" style="stroke-width:0.25px;stroke-linejoin:round;stroke:#444;fill:#ddd" fill-rule="evenodd">
  <path class="Đakovica" d="M79.3187 557.938L99.3257 555.5908 107.3733 577.6097 135.7631 590.4634 160.1293 597.8403 170.9711 581.2981 181.8129 584.9866 195.3372 579.5098 200.7022 566.6561 204.726 546.4255 221.0446 539.1604 230.4333 524.4066 248.0932 524.4066 264.3 535.4719 284.0835 551.6788 271.3416 560.0616 265.753 575.3743 267.9884 594.9342 267.5414 617.9591 267.4296 640.2015 279.7244 658.0849 296.2666 670.0444 305.0965 675.7448 314.1499 683.9041 305.0965 698.2108 281.401 709.4997 270.1121 718.2178 248.5403 740.9074 239.8221 731.295 174.5477 683.3452 166.5002 681.8922 163.7059 682.004 141.0164 682.5628 130.3981 682.7864 124.1389 681.8922 119.8916 676.9743 115.309 665.3501 114.5266 660.2086 115.4208 650.5963 114.1913 645.1195 111.1735 640.7604 102.9024 633.607 100.4435 629.1362 101.1141 624.6653 106.5909 616.2825 106.7026 610.3586 104.1319 604.8818 96.9785 597.952 94.1843 593.9283 79.3187 557.938Z" />
  <path class="Dečani" d="M79.3187 557.938L79.2069 557.8262 79.2069 557.7144 79.0952 557.7144 70.2652 546.3138 43.8872 531.7835 33.0454 519.7122 39.4164 510.3234 39.9752 501.0464 38.5222 490.987 38.7458 479.3628 40.5341 473.5507 46.0109 463.156 46.5697 462.0383 46.5697 461.9265 53.6113 443.596 72.2771 456.4497 100.667 458.3498 96.5315 471.2035 104.6908 480.3688 116.8738 485.8455 133.0806 489.534 145.2637 495.0108 157.4468 487.7457 169.6298 491.4341 174.9948 502.3877 181.8129 518.9298 191.2017 528.095 208.8615 520.7182 219.5915 518.9298 230.4333 524.4066 221.0446 539.1604 204.726 546.4255 200.7022 566.6561 195.3372 579.5098 181.8129 584.9866 170.9711 581.2981 160.1293 597.8403 135.7631 590.4634 107.3733 577.6097 99.3257 555.5908 79.3187 557.938Z" />
  <path class="Dragaš" d="M290.0074 857.0376L306.2142 837.2541 322.421 820.8238 341.3103 815.347 361.6527 813.5586 377.8595 819.0354 392.7251 820.8238 403.5669 819.0354 410.3849 831.7773 412.7321 851.2255 402.4492 863.7439 397.1959 879.0565 390.7132 914.1527 390.0426 930.2477 394.6252 949.9195 395.0723 951.8196 396.6371 958.5259 394.8487 973.1679 394.6252 975.6268 394.1781 976.6328 389.0366 988.8158 388.0307 990.716 383.001 999.3223 380.3185 1004.0167 375.5123 1009.27 375.5123 1009.4935 375.0652 1009.8288 369.4767 1016.088 358.1878 1020 353.1581 1016.3116 343.0987 1002.1166 341.1986 1000.9989 335.61 1002.7872 332.4804 1005.5815 329.0155 1012.176 325.1035 1015.4174 316.4971 1015.8645 310.1262 1012.5113 297.9431 999.4341 298.2784 994.1809 295.5959 985.4627 295.4842 980.3212 297.9431 971.7149 301.1845 967.9146 304.9847 965.0086 309.3438 959.42 314.8206 946.4546 314.8206 937.4011 312.2498 928.1241 309.7909 914.0409 293.2487 870.3384 290.0074 857.0376Z" />
  <path class="Glogovac" d="M452.4109 555.2554L448.2754 540.6134 444.3634 532.007 434.9746 546.9844 418.5442 539.9428 413.1792 537.0367 416.0853 529.4363 416.6441 506.7468 413.9616 493.1107 413.1792 483.0513 407.5906 474.892 399.2078 474.892 401.4432 465.615 412.285 443.9314 421.4503 435.6603 425.3623 427.3892 425.9211 420.5712 432.4039 411.9648 453.5286 424.2596 461.129 414.312 468.0589 410.1765 478.9007 407.8293 487.06 402.1289 498.6842 414.312 510.7554 421.13 495.5546 428.8422 495.5546 439.9076 499.5783 454.6614 510.4201 463.8266 504.9433 478.4686 496.8958 487.7457 507.7376 496.9109 513.1026 506.0761 499.5783 518.9298 496.8958 531.7835 486.054 539.1604 473.871 539.1604 464.4822 550.114 452.4109 555.2554Z" />
  <path class="Gnjilane" d="M780.124 733.3069L783.5889 711.288 776.8826 692.9575 770.0646 682.004 764.6996 669.1503 759.2228 654.62 741.6747 650.9316 730.7211 633.607 721.3323 623.4359 711.9436 617.9591 706.4668 605.1054 687.4657 613.6 671.3706 623.4359 657.8463 590.4634 661.0877 576.6037 676.1768 575.0389 679.5299 563.5265 674.7238 550.4493 668.3528 537.2603 670.3647 526.0832 680.9829 512.6706 695.7367 518.9298 707.808 515.2414 718.6498 526.3067 728.1504 533.5718 740.3334 526.3067 737.6509 509.7646 748.381 504.2878 757.8815 511.5529 771.4058 511.5529 782.2476 531.7835 794.4307 544.6372 806.6138 561.1793 802.4782 577.6097 824.9442 583.8689 840.8157 589.3457 852.6635 589.4574 851.5458 600.411 854.2283 623.1006 851.8811 634.2777 840.9275 644.5606 809.6316 654.1729 798.3427 666.1325 797.7838 683.3452 818.3497 714.6411 818.7968 716.2059 821.8146 733.8658 815.5554 735.5424 800.3546 739.5661 789.5128 739.7897 780.124 733.3069Z" />
  <path class="Istok" d="M167.0591 320.7595L172.4241 319.7536 176.3361 319.1947 180.9187 318.3006 202.8259 313.6062 224.5095 308.8 249.9933 298.1817 261.841 282.0867 260.8351 279.0689 259.4938 275.1569 265.5295 275.8275 296.2666 278.8453 311.0204 288.0106 322.5328 302.6526 331.4745 321.5419 339.0749 346.5787 336.616 364.5738 332.9275 376.3098 326.7801 394.0814 327.6743 411.9648 314.2617 412.3001 299.3961 417.8887 291.3486 428.8422 273.6888 432.5307 256.1407 427.0539 239.9339 432.5307 229.0921 427.0539 211.544 427.0539 193.9959 417.8887 180.4716 404.9232 173.6536 393.9696 173.6536 375.5274 173.6536 355.2968 173.6536 336.8546 167.0591 320.7595Z" />
  <path class="Kačanik" d="M578.1535 770.1914L575.3592 755.1023 575.3592 744.1487 583.4067 740.4603 591.566 733.1952 591.566 727.7184 584.748 713.0763 598.2723 713.0763 605.0903 716.7648 615.9321 711.288 625.3209 711.288 629.4564 694.8576 640.1865 687.4807 655.1638 683.7923 664.5526 679.545 666.4527 686.0277 657.2875 701.7875 655.8344 713.5234 669.3587 731.8539 687.801 738.3366 701.7724 739.6779 716.3026 752.7551 716.4144 752.9787 712.8377 755.8847 681.7653 803.611 681.0947 809.8702 682.2124 813.6704 683.7772 817.5824 684.5596 823.618 685.1185 838.0365 685.1185 838.2601 684.8949 839.6013 684.1125 844.5193 678.524 845.7487 661.3112 842.2838 659.6347 842.8427 654.8285 844.9663 649.2399 847.5371 645.8868 838.4836 644.0985 833.5657 642.9807 829.2066 640.1865 823.3945 631.5801 809.1996 612.9143 790.7573 592.9073 775.2211 585.7539 771.3091 582.1772 770.3032 578.1535 770.1914Z" />
  <path class="Klina" d="M264.3 535.4719L261.6175 518.9298 256.1407 506.0761 245.2989 495.0108 243.9576 482.1571 252.1169 471.2035 256.1407 460.1382 245.2989 452.7613 239.9339 432.5307 256.1407 427.0539 273.6888 432.5307 291.3486 428.8422 299.3961 417.8887 314.2617 412.3001 327.6743 411.9648 340.0809 428.0598 350.3638 434.4308 359.529 436.5545 366.1235 451.0847 369.3649 467.4033 387.0248 474.7802 399.2078 474.892 376.5183 509.7646 358.9702 509.7646 324.2094 536.3661 298.2784 545.4196 284.0835 551.6788 264.3 535.4719Z" />
  <path class="Kosovo Polje" d="M510.4201 463.8266L517.1264 460.1382 517.1264 449.0728 525.2857 445.3844 537.4688 456.4497 553.6756 456.4497 564.5174 454.6614 579.3829 443.596 582.0655 463.8266 586.0892 472.9919 579.3829 485.8455 569.8824 500.5993 555.0168 506.0761 537.4688 502.3877 525.2857 507.8645 513.1026 506.0761 507.7376 496.9109 496.8958 487.7457 504.9433 478.4686 510.4201 463.8266Z" />
  <path class="Kosovska Kamenica" d="M852.6635 589.4574L840.8157 589.3457 824.9442 583.8689 802.4782 577.6097 806.6138 561.1793 794.4307 544.6372 782.2476 531.7835 771.4058 511.5529 779.5651 498.6992 772.7471 484.0572 764.6996 478.4686 749.834 469.3034 757.3227 462.0383 763.023 451.7553 756.652 439.9076 741.0041 428.3952 736.7568 415.2062 755.0872 414.312 766.3761 414.312 779.118 386.7045 812.3141 391.3989 824.2736 395.4227 828.8562 399.4464 832.4329 402.576 849.3103 423.9243 858.1403 429.8482 865.9642 429.7364 888.7656 419.3417 900.0545 419.1182 915.8142 422.6948 918.7202 424.7067 929.3385 431.7483 933.8094 447.508 930.7915 453.879 925.203 457.4557 918.9438 460.3617 913.6905 464.2737 914.1376 466.3974 911.2316 480.9276 910.5609 482.8277 909.6668 484.169 905.9783 485.9573 905.0842 488.081 905.8666 491.2106 909.555 497.358 910.0021 500.1523 904.7488 516.5826 878.4826 560.2851 857.3579 581.5217 852.6635 589.4574Z" />
  <path class="Kosovska Mitrovica" d="M438.7748 333.1661L421.115 331.266 410.3849 331.266 391.3838 316.5122 380.542 299.9701 391.3838 292.5932 402.2256 290.6931 415.7499 268.5624 437.4336 270.3507 450.9579 274.1509 456.3229 259.2854 457.6641 239.0548 441.4573 229.7778 427.933 215.024 450.9579 203.8469 461.6879 181.7162 473.871 187.3047 486.054 185.4046 492.8721 176.1276 504.9433 166.9624 509.0789 155.7853 523.9444 154.8911 530.986 161.5974 540.4866 176.3512 557.0287 210.8884 562.282 238.2724 555.5757 249.7848 541.4925 246.4317 527.9682 250.1201 511.7614 242.7432 503.6021 246.4317 509.0789 261.1855 503.6021 277.8394 491.419 275.9393 482.0303 283.3162 480.689 305.4469 480.689 316.5122 468.5059 316.5122 454.9816 320.2007 438.7748 333.1661Z" />
  <path class="Leposavić" d="M338.2925 156.3441L349.4696 132.4251 351.7051 114.877 347.7931 110.4062 342.5398 110.0708 336.8395 110.8532 332.1451 109.4002 329.0155 104.7058 326.1095 97.776 321.6386 82.2398 315.2677 68.492 313.9264 60.4444 317.3913 51.0557 321.7504 47.9261 338.8514 47.2554 350.5873 42.5611 391.8309 11.3769 404.6846 5.5648 417.7618 4 425.8094 6.459 430.9508 8.0238 441.0102 16.4066 446.2635 21.9952 449.7284 26.8013 454.8699 37.0843 453.1933 36.9725 447.8283 35.2959 441.7926 40.8845 442.1279 44.5729 441.3455 55.0794 439.7807 64.4682 437.6571 65.1388 441.0102 70.9509 480.0184 93.864 518.1323 116.2183 522.715 118.9008 519.5854 132.2015 519.4736 145.7259 523.9444 154.8911 509.0789 155.7853 504.9433 166.9624 492.8721 176.1276 486.054 185.4046 473.871 187.3047 461.6879 181.7162 450.9579 203.8469 427.933 215.024 423.9092 205.747 419.7737 192.7815 407.5906 183.5045 391.3838 174.3393 369.812 174.3393 358.9702 161.3738 338.2925 156.3441Z" />
  <path class="Lipljan" d="M448.1636 572.1329L452.4109 555.2554 464.4822 550.114 473.871 539.1604 486.054 539.1604 496.8958 531.7835 499.5783 518.9298 513.1026 506.0761 525.2857 507.8645 537.4688 502.3877 555.0168 506.0761 569.8824 500.5993 578.0417 504.2878 586.0892 513.453 601.0666 506.0761 610.4553 511.5529 628.1152 515.2414 641.6395 509.7646 641.6395 495.0108 641.6395 478.4686 649.687 474.892 667.2351 478.4686 682.2124 485.8455 698.4193 494.899 687.6892 502.0524 680.9829 512.6706 670.3647 526.0832 668.3528 537.2603 674.7238 550.4493 679.5299 563.5265 676.1768 575.0389 661.0877 576.6037 657.8463 590.4634 633.4802 590.4634 609.1141 592.2517 588.8835 588.675 576.7004 588.675 563.1761 579.5098 555.0168 586.7749 537.4688 584.9866 518.4677 579.5098 503.6021 577.6097 488.7365 575.8213 469.8472 586.7749 461.6879 575.0389 448.1636 572.1329Z" />
  <path class="Mališevo" d="M284.0835 551.6788L298.2784 545.4196 324.2094 536.3661 358.9702 509.7646 376.5183 509.7646 399.2078 474.892 407.5906 474.892 413.1792 483.0513 413.9616 493.1107 416.6441 506.7468 416.0853 529.4363 413.1792 537.0367 418.5442 539.9428 434.9746 546.9844 444.3634 532.007 448.2754 540.6134 452.4109 555.2554 448.1636 572.1329 448.1636 579.5098 454.9816 592.2517 457.6641 608.7938 442.7986 607.0055 429.2743 614.2706 419.7737 610.5822 408.9319 612.4823 398.2019 621.6475 398.2019 636.2895 376.5183 638.0779 365.6765 630.8128 353.4934 621.6475 345.4459 599.6286 348.1284 583.0865 339.9691 570.3446 327.786 570.3446 311.5792 572.1329 300.7374 568.4444 284.0835 551.6788Z" />
  <path class="Novo Brdo" d="M680.9829 512.6706L687.6892 502.0524 698.4193 494.899 709.0375 481.5982 719.2087 470.3094 730.0505 470.3094 749.834 469.3034 764.6996 478.4686 772.7471 484.0572 779.5651 498.6992 771.4058 511.5529 757.8815 511.5529 748.381 504.2878 737.6509 509.7646 740.3334 526.3067 728.1504 533.5718 718.6498 526.3067 707.808 515.2414 695.7367 518.9298 680.9829 512.6706Z" />
  <path class="Obilić" d="M577.5946 341.8843L580.7242 351.6084 584.748 364.462 572.5649 379.2158 571.2237 395.758 578.0417 412.3001 582.0655 425.1538 579.3829 443.596 564.5174 454.6614 553.6756 456.4497 537.4688 456.4497 525.2857 445.3844 517.1264 449.0728 517.1264 460.1382 510.4201 463.8266 499.5783 454.6614 495.5546 439.9076 495.5546 428.8422 510.7554 421.13 535.3451 411.9648 548.9812 398.664 550.0989 388.1575 555.911 369.4917 564.9645 348.9259 577.5946 341.8843Z" />
  <path class="Orahovac" d="M284.0835 551.6788L300.7374 568.4444 311.5792 572.1329 327.786 570.3446 339.9691 570.3446 348.1284 583.0865 345.4459 599.6286 353.4934 621.6475 365.6765 630.8128 376.5183 638.0779 373.8358 652.7199 371.1532 676.5272 364.3352 692.9575 354.8347 691.1692 349.4696 683.7923 342.7634 678.3155 334.6041 691.1692 326.4448 705.8112 317.056 703.9111 305.0965 698.2108 314.1499 683.9041 305.0965 675.7448 296.2666 670.0444 279.7244 658.0849 267.4296 640.2015 267.5414 617.9591 267.9884 594.9342 265.753 575.3743 271.3416 560.0616 284.0835 551.6788Z" />
  <path class="Peć" d="M167.0591 320.7595L173.6536 336.8546 173.6536 355.2968 173.6536 375.5274 173.6536 393.9696 180.4716 404.9232 193.9959 417.8887 211.544 427.0539 229.0921 427.0539 239.9339 432.5307 245.2989 452.7613 256.1407 460.1382 252.1169 471.2035 243.9576 482.1571 245.2989 495.0108 256.1407 506.0761 261.6175 518.9298 264.3 535.4719 248.0932 524.4066 230.4333 524.4066 219.5915 518.9298 208.8615 520.7182 191.2017 528.095 181.8129 518.9298 174.9948 502.3877 169.6298 491.4341 157.4468 487.7457 145.2637 495.0108 133.0806 489.534 116.8738 485.8455 104.6908 480.3688 96.5315 471.2035 100.667 458.3498 72.2771 456.4497 53.6113 443.596 52.4936 441.0253 48.4699 433.5366 42.8813 428.2834 22.2036 408.3881 18.2916 404.5879 17.8446 404.1408 11.8089 393.0755 11.8089 392.5166 1.1906 385.3633 15.0503 368.9329 23.6567 361.8913 27.5686 361.8913 30.81 361.8913 33.0454 359.9912 39.0811 357.1969 47.911 359.5441 56.2938 361.6678 57.8586 362.1149 65.1238 366.5857 71.83 366.5857 85.6897 366.5857 89.1546 371.2801 97.7609 373.6273 100.1081 374.1861 108.7145 364.462 109.4969 357.5322 108.7145 351.4966 108.7145 350.9377 109.1616 344.0079 113.5207 336.0722 117.9915 333.1661 138.2221 325.6774 144.8166 324.5597 167.0591 320.7595Z" />
  <path class="Podujevo" d="M730.3858 370.3859L714.6261 369.9388 705.1255 358.8735 694.2837 349.7083 686.2362 334.9545 665.8938 344.2315 649.687 349.7083 644.322 360.7736 634.8215 362.5619 628.1152 369.9388 618.6146 364.462 613.1378 353.3967 606.4316 346.0198 601.0666 357.0851 594.2485 364.462 584.748 364.462 580.7242 351.6084 577.5946 341.8843 577.1475 324.0009 570.7766 308.3529 559.7112 295.4992 555.2404 284.6574 552.7814 265.7681 555.5757 249.7848 562.282 238.2724 557.0287 210.8884 540.4866 176.3512 530.986 161.5974 523.9444 154.8911 519.4736 145.7259 519.5854 132.2015 522.715 118.9008 528.9741 122.4774 539.816 126.7248 575.0239 128.6249 583.4067 135.2194 591.566 151.985 599.7253 189.8755 604.1961 199.376 613.3614 204.8528 620.8501 200.829 628.0034 195.5758 636.8333 197.0288 644.9926 213.1239 645.775 235.4781 648.7928 258.2794 663.6584 275.8275 669.4705 277.5041 681.7653 277.3923 687.801 278.7336 693.3895 282.1985 703.6725 291.0284 709.0375 294.2697 726.0267 298.2935 736.645 298.8524 741.6747 304.3292 741.5629 308.0176 741.5629 323.1067 739.3275 335.178 732.1741 359.3206 730.3858 370.3859Z" />
  <path class="Priština" d="M730.3858 370.3859L728.7092 374.0744 726.2503 376.198 725.915 378.2099 731.1682 381.8983 740.1099 384.5809 746.5926 384.3573 759.2228 384.022 779.118 386.7045 766.3761 414.312 755.0872 414.312 736.7568 415.2062 741.0041 428.3952 756.652 439.9076 763.023 451.7553 757.3227 462.0383 749.834 469.3034 730.0505 470.3094 719.2087 470.3094 709.0375 481.5982 698.4193 494.899 682.2124 485.8455 667.2351 478.4686 649.687 474.892 641.6395 478.4686 641.6395 495.0108 641.6395 509.7646 628.1152 515.2414 610.4553 511.5529 601.0666 506.0761 586.0892 513.453 578.0417 504.2878 569.8824 500.5993 579.3829 485.8455 586.0892 472.9919 582.0655 463.8266 579.3829 443.596 582.0655 425.1538 578.0417 412.3001 571.2237 395.758 572.5649 379.2158 584.748 364.462 594.2485 364.462 601.0666 357.0851 606.4316 346.0198 613.1378 353.3967 618.6146 364.462 628.1152 369.9388 634.8215 362.5619 644.322 360.7736 649.687 349.7083 665.8938 344.2315 686.2362 334.9545 694.2837 349.7083 705.1255 358.8735 714.6261 369.9388 730.3858 370.3859Z" />
  <path class="Prizren" d="M290.0074 857.0376L289.8956 834.3481 288.5543 821.7179 282.854 802.8286 262.9587 759.3496 252.7876 745.49 248.5403 740.9074 270.1121 718.2178 281.401 709.4997 305.0965 698.2108 317.056 703.9111 326.4448 705.8112 334.6041 691.1692 342.7634 678.3155 349.4696 683.7923 354.8347 691.1692 364.3352 692.9575 371.1532 676.5272 383.3363 678.3155 390.0426 692.9575 396.8606 702.1228 399.5431 713.0763 415.7499 724.0299 434.6393 724.0299 448.1636 725.93 450.2872 744.1487 446.8223 752.9787 445.4811 764.7146 450.8461 775.5564 466.7176 781.3685 481.3596 782.9333 490.6366 785.5041 501.1431 791.7633 510.8672 803.611 512.9909 813.5586 513.1026 813.7822 489.8542 821.7179 489.7425 821.7179 475.6593 826.6359 426.2564 843.5133 412.7321 851.2255 410.3849 831.7773 403.5669 819.0354 392.7251 820.8238 377.8595 819.0354 361.6527 813.5586 341.3103 815.347 322.421 820.8238 306.2142 837.2541 290.0074 857.0376Z" />
  <path class="Srbica" d="M399.2078 474.892L387.0248 474.7802 369.3649 467.4033 366.1235 451.0847 359.529 436.5545 350.3638 434.4308 340.0809 428.0598 327.6743 411.9648 326.7801 394.0814 332.9275 376.3098 336.616 364.5738 339.0749 346.5787 331.4745 321.5419 341.3103 307.347 349.4696 305.4469 361.6527 307.347 372.4945 325.7892 381.8833 340.543 390.0426 342.3314 391.3838 316.5122 410.3849 331.266 421.115 331.266 438.7748 333.1661 448.1636 349.7083 446.8223 364.462 445.4811 381.0042 452.2991 382.9043 464.4822 381.0042 473.871 384.6926 487.06 402.1289 478.9007 407.8293 468.0589 410.1765 461.129 414.312 453.5286 424.2596 432.4039 411.9648 425.9211 420.5712 425.3623 427.3892 421.4503 435.6603 412.285 443.9314 401.4432 465.615 399.2078 474.892Z" />
  <path class="Štimlje" d="M576.7004 588.675L574.0179 603.3171 564.5174 614.2706 556.3581 621.6475 555.0168 636.2895 550.9931 647.2431 536.1275 649.0315 510.979 652.2728 498.2371 656.4084 490.3013 649.4785 494.5486 641.6546 492.9838 631.7069 500.696 618.6297 492.6485 604.9936 477.1123 597.0579 469.8472 586.7749 488.7365 575.8213 503.6021 577.6097 518.4677 579.5098 537.4688 584.9866 555.0168 586.7749 563.1761 579.5098 576.7004 588.675Z" />
  <path class="Štrpce" d="M578.1535 770.1914L566.7528 777.5683 565.4116 778.3507 547.7517 795.787 541.6043 801.9344 534.1156 805.6229 528.3035 808.6407 513.1026 813.7822 512.9909 813.5586 510.8672 803.611 501.1431 791.7633 490.6366 785.5041 481.3596 782.9333 466.7176 781.3685 450.8461 775.5564 445.4811 764.7146 446.8223 752.9787 450.2872 744.1487 456.3229 745.3782 465.4881 743.5899 475.9946 739.4543 481.6949 733.5305 488.6248 725.93 506.5081 720.565 507.2905 710.7292 508.0729 701.8992 515.2263 698.2108 527.9682 702.1228 537.4688 709.3879 544.175 709.3879 542.8338 698.4343 542.8338 683.7923 552.3343 683.7923 557.6993 694.8576 567.1999 700.3344 572.5649 709.3879 584.748 713.0763 591.566 727.7184 591.566 733.1952 583.4067 740.4603 575.3592 744.1487 575.3592 755.1023 578.1535 770.1914Z" />
  <path class="Suva Reka" d="M376.5183 638.0779L398.2019 636.2895 398.2019 621.6475 408.9319 612.4823 419.7737 610.5822 429.2743 614.2706 442.7986 607.0055 457.6641 608.7938 454.9816 592.2517 448.1636 579.5098 448.1636 572.1329 461.6879 575.0389 469.8472 586.7749 477.1123 597.0579 492.6485 604.9936 500.696 618.6297 492.9838 631.7069 494.5486 641.6546 490.3013 649.4785 498.2371 656.4084 504.9433 669.4856 506.5081 680.998 505.7257 691.9516 508.0729 701.8992 507.2905 710.7292 506.5081 720.565 488.6248 725.93 481.6949 733.5305 475.9946 739.4543 465.4881 743.5899 456.3229 745.3782 450.2872 744.1487 448.1636 725.93 434.6393 724.0299 415.7499 724.0299 399.5431 713.0763 396.8606 702.1228 390.0426 692.9575 383.3363 678.3155 371.1532 676.5272 373.8358 652.7199 376.5183 638.0779Z" />
  <path class="Uroševac" d="M498.2371 656.4084L510.979 652.2728 536.1275 649.0315 550.9931 647.2431 555.0168 636.2895 556.3581 621.6475 564.5174 614.2706 574.0179 603.3171 576.7004 588.675 588.8835 588.675 609.1141 592.2517 633.4802 590.4634 657.8463 590.4634 671.3706 623.4359 677.6298 657.3025 648.1222 660.5439 648.1222 674.9624 655.1638 683.7923 640.1865 687.4807 629.4564 694.8576 625.3209 711.288 615.9321 711.288 605.0903 716.7648 598.2723 713.0763 584.748 713.0763 572.5649 709.3879 567.1999 700.3344 557.6993 694.8576 552.3343 683.7923 542.8338 683.7923 542.8338 698.4343 544.175 709.3879 537.4688 709.3879 527.9682 702.1228 515.2263 698.2108 508.0729 701.8992 505.7257 691.9516 506.5081 680.998 504.9433 669.4856 498.2371 656.4084Z" />
  <path class="Vitina" d="M780.124 733.3069L775.0943 739.4543 772.8589 742.2486 767.3821 740.9074 765.1466 738.6719 762.4641 735.8777 756.3167 733.8658 747.7103 738.7837 747.8221 739.6779 748.4927 744.9311 752.293 751.1903 752.9636 755.9965 747.2633 756.5553 728.821 749.5138 721.4441 750.1844 719.6558 750.2961 716.4144 752.9787 716.3026 752.7551 701.7724 739.6779 687.801 738.3366 669.3587 731.8539 655.8344 713.5234 657.2875 701.7875 666.4527 686.0277 664.5526 679.545 655.1638 683.7923 648.1222 674.9624 648.1222 660.5439 677.6298 657.3025 671.3706 623.4359 687.4657 613.6 706.4668 605.1054 711.9436 617.9591 721.3323 623.4359 730.7211 633.607 741.6747 650.9316 759.2228 654.62 764.6996 669.1503 770.0646 682.004 776.8826 692.9575 783.5889 711.288 780.124 733.3069Z" />
  <path class="Vučitrn" d="M487.06 402.1289L473.871 384.6926 464.4822 381.0042 452.2991 382.9043 445.4811 381.0042 446.8223 364.462 448.1636 349.7083 438.7748 333.1661 454.9816 320.2007 468.5059 316.5122 480.689 316.5122 480.689 305.4469 482.0303 283.3162 491.419 275.9393 503.6021 277.8394 509.0789 261.1855 503.6021 246.4317 511.7614 242.7432 527.9682 250.1201 541.4925 246.4317 555.5757 249.7848 552.7814 265.7681 555.2404 284.6574 559.7112 295.4992 570.7766 308.3529 577.1475 324.0009 577.5946 341.8843 564.9645 348.9259 555.911 369.4917 550.0989 388.1575 548.9812 398.664 535.3451 411.9648 510.7554 421.13 498.6842 414.312 487.06 402.1289Z" />
  <path class="Zubin Potok" d="M259.4938 275.1569L256.5878 266.6623 244.9636 259.2854 236.5807 250.2319 241.0516 230.1131 249.9933 218.3771 259.0468 215.5828 268.3238 215.5828 278.4949 212.0062 282.7422 207.9824 285.6483 203.288 290.678 192.2227 295.3724 187.193 300.8492 187.3047 306.9966 189.0931 313.3675 188.9813 324.3211 178.1395 350.8109 183.5045 372.4945 198.3701 383.3363 209.4354 379.2008 220.5008 390.0426 233.4662 404.9081 257.497 415.7499 268.5624 402.2256 290.6931 391.3838 292.5932 380.542 299.9701 391.3838 316.5122 390.0426 342.3314 381.8833 340.543 372.4945 325.7892 361.6527 307.347 349.4696 305.4469 341.3103 307.347 331.4745 321.5419 322.5328 302.6526 311.0204 288.0106 296.2666 278.8453 265.5295 275.8275 259.4938 275.1569Z" />
  <path class="Zvečan" d="M324.3211 178.1395L338.2925 156.3441 358.9702 161.3738 369.812 174.3393 391.3838 174.3393 407.5906 183.5045 419.7737 192.7815 423.9092 205.747 427.933 215.024 441.4573 229.7778 457.6641 239.0548 456.3229 259.2854 450.9579 274.1509 437.4336 270.3507 415.7499 268.5624 404.9081 257.497 390.0426 233.4662 379.2008 220.5008 383.3363 209.4354 372.4945 198.3701 350.8109 183.5045 324.3211 178.1395Z" />
</svg>