<?xml version="1.0" encoding="utf-8"?>
<svg xmlns="http://www.w3.org/2000/svg" viewBox="0 0 667 1024" style="stroke-width:0.25px;stroke-linejoin:round;stroke:#444;fill:#ddd" fill-rule="evenodd">
  <path class="Saint Croix" d="M662.8427 920.859L627.523 924.6592 598.0154 934.2715 540.2297 961.0966 510.3868 970.3736 227.7175 1010.9465 202.0101 1020 212.0695 995.4103 213.7461 974.3974 212.2931 915.6057 216.4286 897.387 227.6057 885.8746 279.4675 901.7461 308.6398 888.4453 338.818 868.9971 371.567 861.732 374.9201 865.4205 427.6761 901.0755 456.5131 911.3584 471.1551 919.0706 483.897 930.6948 515.3047 904.5404 564.5958 893.8103 618.4695 896.8282 662.8427 911.0231 662.8427 920.859Z" />
  <path class="Saint John" d="M468.4726 67.0389L458.6367 71.1745 473.3905 90.8462 464.3371 124.3776 420.1875 100.6821 351.3364 107.1648 330.8823 88.3872 351.3364 57.2031 374.2495 47.3672 398.8392 39.9903 393.1388 29.3721 405.4337 22.7776 451.3716 35.0724 473.5023 39.2079 493.9564 48.1496 518.5461 61.3386 524.2464 76.0924 505.3571 79.3338 468.4726 67.0389Z" />
  <path class="Saint Thomas" d="M234.312 108.059L224.3644 122.8128 180.8854 106.3824 165.3492 96.5465 153.0543 71.9569 147.2422 85.1459 134.165 76.0924 104.6574 81.9045 83.3091 77.769 66.767 59.7738 23.288 72.851 1.1573 51.6145 41.7303 30.0427 76.3793 20.9892 126.6763 22.7776 147.354 37.6431 159.6488 33.5076 137.2946 16.2948 126.6763 4 156.1839 12.9417 207.0398 42.4493 257.1133 71.1745 277.5674 103.9234 262.0312 106.3824 249.8482 102.3586 234.312 108.059Z" />
</svg>