<?xml version="1.0" encoding="utf-8"?>
<svg xmlns="http://www.w3.org/2000/svg" viewBox="0 0 962 1024" style="stroke-width:0.25px;stroke-linejoin:round;stroke:#444;fill:#ddd" fill-rule="evenodd">
  <path class="Austral Islands" d="M333.7504 815.5705L333.7504 815.2352 334.6446 814.8999 335.5387 814.6763 337.4388 814.5646 337.3271 814.8999 337.1035 815.1234 336.7682 815.347 336.4329 815.5705 334.9799 815.9058 334.3092 815.9058 333.7504 815.5705ZM247.9101 788.1866L249.1396 788.6337 249.3631 789.4161 248.8043 790.1985 246.6806 790.422 246.1218 790.1985 245.7865 789.5278 245.6747 788.7454 246.01 788.4101 246.5689 788.2983 247.9101 788.1866ZM154.9165 738.5602L155.3636 738.6719 155.8107 739.2308 156.2578 739.9014 156.3695 740.4603 156.2578 741.6898 156.0342 743.1428 155.6989 743.3663 155.5871 743.4781 155.3636 743.4781 155.14 742.1369 154.693 740.7956 154.3576 739.6779 154.9165 738.5602ZM501.7425 1016.6469L501.5189 1016.8704 500.9601 1017.541 500.7365 1017.7646 500.8483 1017.7646 500.9601 1018.8823 501.0718 1018.8823 500.7365 1019.5529 500.4012 1020 499.8424 1020 499.06 1019.6647 498.7246 1018.6587 498.6129 1016.9822 499.06 1015.5292 500.0659 1015.0821 501.0718 1015.7527 501.5189 1016.088 501.7425 1016.6469Z" />
  <path class="Leeward Islands" d="M30.5152 446.8374L30.7387 447.2845 30.9623 447.9551 31.1858 448.514 30.9623 448.514 30.5152 447.9551 29.9563 446.2785 29.621 445.6079 30.0681 445.6079 30.2916 445.9432 30.4034 446.2785 30.5152 446.8374ZM113.0023 428.8422L112.4435 429.1776 111.9964 428.954 112.1081 428.6187 113.0023 428.8422ZM1.6782 397.0992L1.79 396.5404 1.79 396.0933 1.4547 395.758 1.0076 395.6462 1.5664 395.5344 1.9018 395.8697 2.0135 396.4286 2.0135 396.9875 1.9018 397.211 1.5664 397.4345 1.4547 397.4345 1.6782 397.0992ZM173.4705 445.3844L173.6941 444.9373 174.0294 445.0491 174.4765 445.3844 174.8118 445.9432 174.8118 446.2785 174.8118 446.9492 174.5882 447.3963 174.1411 447.2845 174.0294 447.6198 173.8058 447.8433 173.4705 447.9551 173.1352 447.9551 172.241 447.2845 171.9057 446.9492 171.7939 446.3903 172.0175 445.7197 172.6881 445.6079 173.247 445.4961 173.4705 445.3844ZM150.3339 443.8196L151.1163 443.7078 151.8987 443.9314 152.6811 444.2667 153.0164 444.7138 153.5752 445.9432 156.5931 449.967 155.9224 450.3023 154.1341 451.3083 153.5752 451.5318 153.0164 451.0847 152.7928 451.0847 152.6811 451.6436 152.5693 451.9789 152.234 452.0906 151.7869 452.2024 151.3398 452.2024 150.4457 451.5318 149.8868 449.8552 149.5515 445.1608 149.775 444.3784 150.3339 443.8196ZM172.4646 442.2548L173.3587 443.9314 173.247 444.1549 172.9117 444.3784 172.5763 444.7138 172.1293 445.0491 171.4586 445.1608 171.1233 444.602 171.1233 443.9314 171.2351 443.3725 171.6822 442.143 172.0175 441.5842 172.3528 441.4724 172.4646 442.2548ZM151.3398 438.231L151.3398 439.9076 151.1163 440.4664 150.6692 440.3547 150.3339 440.0194 147.6514 438.9017 147.3161 438.5663 147.3161 438.3428 147.5396 436.4427 148.2102 435.8838 149.2162 435.7721 150.6692 435.7721 150.4457 436.2191 150.3339 436.4427 151.3398 436.4427 151.7869 436.4427 152.0105 436.6662 152.1222 436.8898 152.3458 437.2251 152.3458 437.4486 152.234 437.7839 151.8987 438.0075 151.3398 438.231ZM135.6919 430.5188L136.4743 430.2953 136.9213 430.8541 137.2567 431.8601 137.2567 432.9778 136.4743 432.9778 135.8036 432.3072 135.4683 431.3012 135.6919 430.5188Z" />
  <path class="Marquesas Islands" d="M774.5759 126.5012L776.1407 126.5012 776.9231 126.7248 777.5937 127.1718 778.3761 128.7366 778.3761 130.6367 777.5937 132.2015 775.9172 132.6486 775.2465 132.2015 774.7994 131.4191 774.7994 130.525 775.4701 128.8484 775.3583 128.066 774.5759 126.5012ZM755.7983 100.3468L756.469 100.5703 757.1396 101.0174 757.4749 101.4645 757.3631 101.688 757.1396 101.7998 757.0278 101.9116 756.9161 102.2469 756.8043 102.3586 756.5807 102.4704 756.1337 102.5822 755.7983 102.6939 755.1277 103.3646 754.01 105.3765 753.4512 106.0471 752.7805 105.1529 752.8923 104.2587 753.0041 103.2528 752.7805 102.3586 753.3394 101.7998 753.8982 100.5703 754.7924 99.7879 755.7983 100.3468ZM767.8696 92.5228L768.8756 92.411 768.7638 92.8581 766.1931 94.9817 765.0754 95.4288 763.9576 95.7641 762.0575 95.8759 759.375 95.8759 758.8162 95.7641 758.5926 95.5406 758.0338 95.5406 757.3631 95.5406 757.1396 95.7641 757.1396 97.2172 756.8043 98.1113 756.3572 98.1113 755.6866 97.776 753.6747 97.3289 752.7805 96.8818 752.2217 96.0994 751.7746 95.5406 751.551 94.87 751.3275 94.0876 751.551 93.4169 753.1158 92.9699 757.3631 90.5109 759.0397 90.1756 760.6045 90.3991 761.1634 91.5168 761.7222 92.0757 762.6164 92.5228 763.7341 92.7463 764.74 92.8581 765.8578 93.0816 766.3048 93.1934 766.8637 93.0816 767.3108 92.8581 767.5343 92.6345 767.8696 92.5228ZM707.2897 71.8451L708.4074 72.9628 708.9662 73.1864 709.6369 72.851 708.9662 74.3041 708.6309 75.9806 707.9603 77.3219 706.5073 77.8807 705.6131 77.4337 703.2659 74.1923 704.1601 73.5217 705.0542 72.6275 706.0602 71.9569 707.2897 71.8451ZM734.6736 50.0497L735.2325 50.8321 735.0089 51.391 734.2265 51.9498 733.3323 52.1734 731.2087 52.2851 730.4263 52.6205 729.7557 53.5146 729.8674 52.7322 729.6439 52.0616 729.3086 51.391 729.085 50.6086 730.6498 48.8202 731.0969 48.8202 731.4322 49.2673 731.7675 49.3791 732.5499 49.1556 733.1088 49.2673 734.6736 50.0497ZM708.6309 47.0319L709.8604 48.2614 710.1957 48.8202 710.3075 49.938 710.0839 50.7204 709.5251 50.6086 708.2956 49.8262 708.0721 50.8321 707.2897 51.6145 706.2837 51.8381 705.6131 51.1674 705.2778 51.1674 704.6072 51.6145 702.707 52.2851 702.26 52.6205 702.0364 53.5146 701.4776 53.2911 700.9187 52.844 699.9128 52.1734 699.5774 51.5028 699.0186 49.1556 698.9068 48.2614 698.795 47.8143 698.348 47.3672 698.2362 47.0319 698.9068 45.2436 700.4716 45.02 706.619 46.026 708.0721 46.026 708.5191 45.9142 709.1898 45.4671 709.6369 45.3553 709.6369 45.5789 709.5251 45.6906 709.4133 45.8024 709.078 46.2495 708.6309 47.0319ZM677.2232 7.1296L676.8879 7.8002 676.4408 8.3591 675.9937 8.4708 675.4349 7.8002 675.4349 6.0119 676.5526 4.5589 678.1174 4 679.7939 4.4471 679.1233 5.0059 678.8998 5.1177 678.0056 5.2295 677.5585 5.6766 677.2232 7.1296Z" />
  <path class="Tuamotu-Gambier" d="M898.3066 717.5472L897.7477 717.8825 897.3007 718.1061 898.4184 716.9883 898.3066 717.2119 898.3066 717.5472ZM887.9119 688.3749L887.4648 688.1514 887.0177 688.0396 886.5706 688.2631 886.1235 688.4867 886.5706 687.9278 887.2413 687.7043 887.8001 687.9278 887.9119 688.3749ZM879.529 681.4451L880.4232 681.2216 880.6468 681.5569 880.535 682.1157 879.8644 682.6746 880.3114 682.1157 880.1997 681.7804 879.8644 681.5569 879.529 681.4451ZM875.2817 681.6686L874.7229 680.998 874.4993 680.7745 874.9464 680.7745 875.0582 680.8862 875.17 681.2216 875.2817 681.6686ZM870.4756 680.2156L870.252 679.9921 870.1403 679.7685 869.9167 679.6568 869.5814 679.9921 869.9167 679.545 870.252 679.545 870.5873 679.8803 870.6991 680.4392 870.5873 680.3274 870.5873 680.2156 870.4756 680.2156ZM690.7475 591.6928L691.0828 591.4693 691.7535 591.6928 692.3123 592.2517 692.5359 592.8106 692.5359 593.4812 692.0888 593.8165 691.5299 594.1518 690.8593 594.2636 691.6417 593.593 692.0888 593.0341 691.977 592.3635 690.7475 591.6928ZM749.9862 577.945L749.8745 577.7215 749.8745 577.4979 749.6509 577.2744 749.3156 577.1626 749.8745 577.1626 750.3216 577.4979 750.3216 577.945 749.8745 578.3921 749.9862 577.945ZM769.7697 574.9272L769.3227 574.8154 769.0991 574.7036 768.9873 574.5919 769.5462 574.4801 769.8815 574.4801 769.9933 574.5919 769.7697 574.9272ZM649.1686 570.3446L649.8393 569.6739 650.6217 569.8975 651.0688 570.6799 650.957 571.574 650.7334 570.7916 650.2864 570.3446 649.7275 570.121 649.1686 570.3446ZM675.7702 566.7679L676.9997 565.9855 678.2292 566.6561 678.6762 567.7738 677.5585 568.2209 678.2292 567.215 677.6703 566.6561 676.6644 566.5443 675.7702 566.7679ZM769.5462 547.7668L769.8815 547.9903 769.8815 548.2139 769.9933 548.4374 768.205 547.4315 768.5403 547.5432 768.8756 547.5432 769.5462 547.7668ZM559.9752 500.8229L560.5341 500.0405 560.9812 500.1523 561.54 501.4935 561.54 501.6053 561.3165 501.3817 561.093 500.9347 560.8694 500.3758 560.6459 500.8229 560.4223 501.0464 560.1988 501.0464 559.9752 500.8229ZM640.7858 476.0097L640.5623 475.5626 640.0034 475.1155 639.3328 475.0037 638.6622 475.0037 639.6681 474.7802 640.4505 475.1155 640.8976 475.8979 640.8976 476.1215 640.8976 476.7921 640.8976 477.0156 640.7858 476.9039 640.7858 476.6803 640.7858 476.0097ZM787.0943 475.8979L786.2001 475.8979 786.0883 475.5626 786.0883 475.4508 786.2001 475.1155 786.8707 474.1096 787.8767 473.7743 786.4237 475.0037 786.3119 475.4508 786.5354 475.5626 786.759 475.6744 787.0943 475.8979ZM560.3106 457.3439L559.8635 457.0086 559.7517 456.8968 559.5282 456.6733 560.087 456.6733 560.5341 456.785 561.093 457.1204 561.4283 457.5674 561.2047 457.6792 560.8694 457.6792 560.6459 457.5674 560.3106 457.3439ZM505.878 439.237L505.9898 438.9017 506.4369 439.1252 506.9957 439.5723 507.331 440.1311 506.9957 440.0194 506.5486 439.7958 505.878 439.237ZM422.9438 400.5641L420.373 398.1052 422.1614 399.3347 422.9438 400.0053 422.9438 400.5641ZM667.6109 397.0992L668.9521 396.8757 669.3992 396.8757 668.9521 397.0992 668.058 397.9934 667.6109 397.9934 667.2756 397.7699 667.2756 397.4345 667.6109 397.0992ZM308.043 399.4464L307.0371 398.7758 306.59 397.6581 306.8135 396.5404 307.4842 396.2051 307.7077 396.4286 308.2666 397.6581 308.6019 398.1052 309.049 398.5523 309.049 398.9993 308.6019 399.3347 308.043 399.4464ZM394.2186 396.2051L394.4421 396.7639 394.4421 397.0992 394.4421 397.4345 393.995 396.4286 393.7715 395.9815 393.4362 395.6462 393.548 395.758 394.2186 396.2051ZM483.8591 392.5166L484.7532 392.4048 485.3121 392.8519 485.3121 393.4108 484.7532 393.7461 484.3062 393.7461 483.9708 393.5226 483.8591 393.0755 483.8591 392.5166ZM444.5156 379.7747L445.0745 379.7747 445.5216 379.9982 445.6333 380.2218 445.4098 380.6689 444.5156 379.8865 441.1625 379.3276 439.933 378.4334 443.2861 379.5512 444.5156 379.7747ZM408.5253 373.7391L408.0782 375.1921 408.3018 374.2979 408.4135 373.0684 408.3018 372.6213 407.9664 372.286 407.8547 372.1743 407.4076 371.9507 407.5194 371.8389 407.9664 372.0625 408.19 372.1743 408.3018 372.5096 408.5253 373.0684 408.5253 373.7391ZM387.6241 367.7034L386.7299 367.2563 387.5123 367.3681 388.0712 367.8152 388.5183 368.4858 388.7418 369.2682 388.1829 368.4858 387.6241 367.7034ZM356.5517 367.2563L357.3341 367.2563 357.4459 367.4799 357.5576 367.927 357.3341 367.5916 357.1106 367.4799 356.887 367.3681 356.5517 367.2563ZM331.0679 366.4739L331.2914 366.3622 331.8503 366.5857 332.5209 367.1446 333.0798 367.4799 331.0679 366.4739ZM346.7158 361.6678L344.1451 359.5441 343.1392 358.9853 344.1451 359.4323 345.0393 360.103 346.7158 361.6678ZM323.5792 359.6559L323.4674 359.4323 323.3557 359.3206 323.3557 359.097 323.3557 358.8735 323.5792 359.6559ZM421.7143 326.9069L421.2672 327.1305 420.7084 327.354 420.1495 327.4658 419.5906 327.354 421.2672 327.1305 421.7143 326.9069ZM653.6395 314.6121L653.416 314.9474 652.9689 314.6121 651.7394 313.3826 652.2982 313.6062 653.6395 314.6121ZM954.304 775.4447L955.3099 775.3329 956.8747 773.9916 957.9924 773.6563 957.6571 774.327 955.9805 776.5624 955.4217 776.4506 954.9746 776.3388 954.304 775.78 954.304 775.4447ZM678.2292 698.3226L679.1233 697.7637 680.0175 698.4343 681.4705 700.8933 680.241 701.6757 678.8998 701.2286 678.0056 699.9991 678.2292 698.3226ZM677.8938 497.1344L675.4349 498.4757 673.9818 499.7052 672.6406 501.1582 672.0817 501.27 671.2993 501.3817 670.5169 501.1582 670.0699 500.9347 670.0699 500.3758 670.2934 499.5934 670.8523 498.4757 671.8582 497.358 672.7524 495.5696 674.5407 494.4519 678.2292 492.8871 679.1233 492.1047 680.4646 492.3283 680.6881 493.3342 680.3528 494.4519 679.3469 495.2343 677.8938 497.1344ZM399.0248 411.7413L400.366 411.2942 401.4837 411.9648 401.9308 413.1943 401.3719 414.5355 400.0307 414.312 398.8012 413.7531 398.3541 412.859 399.0248 411.7413ZM767.199 709.4997L763.1752 709.4997 764.1812 709.1644 765.1871 709.2761 766.1931 709.4997 767.199 709.4997ZM932.8439 691.5045L929.4908 689.3809 930.6085 689.4926 931.5026 689.8279 932.285 690.4986 932.8439 691.5045ZM782.5117 657.4143L783.2941 656.5201 783.4058 655.9613 782.2881 652.8317 782.0646 652.6081 781.841 652.4964 780.9469 652.7199 781.1704 652.6081 781.6175 652.3846 781.841 652.2728 782.1763 652.3846 783.2941 654.1729 783.6294 656.4084 782.5117 657.4143ZM891.0415 537.5956L891.0415 537.4838 891.0415 537.2603 891.0415 536.925 890.9297 536.4779 890.5944 536.0308 890.1473 535.8073 889.5884 535.4719 888.1354 535.0249 887.6883 534.8013 887.353 534.5778 887.1295 534.2425 886.6824 533.9072 884.447 532.6777 883.8881 532.4541 883.6646 532.7894 883.6646 533.1248 883.6646 533.3483 883.5528 533.1248 883.441 532.9012 883.2175 532.7894 882.9939 532.6777 883.9999 532.2306 885.5647 532.7894 887.0177 533.7954 887.6883 534.5778 890.2591 535.4719 891.4886 536.4779 891.0415 537.5956ZM678.2292 529.7716L678.0056 529.6598 677.7821 529.101 676.9997 528.4304 674.3172 527.0891 673.423 526.4185 672.9759 525.8596 672.8641 525.6361 674.0936 526.5303 677.4468 528.4304 677.8938 529.101 678.2292 529.7716ZM858.9631 526.9773L854.2688 522.0594 855.4982 522.6183 857.063 523.9595 858.4043 525.6361 858.9631 526.9773ZM670.8523 519.6004L669.6228 517.7003 667.2756 516.0238 666.1579 513.9001 665.599 513.2295 663.4754 511.4411 663.9224 511.7765 665.8226 512.6706 667.1638 515.0178 668.1697 516.1355 669.3992 517.0297 670.5169 518.1474 670.8523 519.6004ZM585.1238 488.9751L585.6826 487.9692 582.1059 484.3925 583.4472 485.1749 585.1238 486.4044 586.0179 487.8574 585.1238 488.9751ZM544.3273 480.4805L543.0978 479.5864 541.3095 479.1393 542.2036 479.1393 543.0978 479.251 543.8802 479.8099 544.3273 480.4805ZM448.2041 481.9336L445.5216 478.4686 446.304 479.0275 446.9746 479.8099 448.2041 481.9336ZM438.5917 476.7921L438.1447 476.1215 437.9211 475.4508 437.8094 474.6684 437.8094 473.7743 438.5917 476.7921ZM545.6685 440.3547L542.3154 438.0075 539.7447 438.1193 537.621 437.8957 541.7565 437.4486 542.986 437.7839 543.992 438.5663 545.6685 440.3547ZM536.6151 438.5663L534.1561 438.3428 532.256 436.8898 530.2441 435.7721 531.9207 436.1074 534.715 438.231 536.6151 438.5663ZM524.5438 433.6484L524.3202 433.5366 522.979 431.3012 521.526 430.0717 519.8494 429.5129 518.8435 429.0658 519.067 429.0658 520.0729 429.4011 521.6377 429.6246 522.4201 429.96 523.7614 431.5248 524.3202 432.5307 524.5438 433.6484ZM503.0837 430.5188L502.9719 429.5129 502.8602 429.1776 501.4072 427.3892 502.1895 427.8363 502.9719 428.7305 503.419 429.7364 503.0837 430.5188ZM497.3834 423.4772L495.8186 422.9184 494.8127 423.1419 494.3656 422.4713 494.7009 422.4713 494.8127 422.5831 494.7009 422.8066 495.4833 422.5831 496.2657 422.6948 496.9363 423.1419 497.3834 423.4772ZM443.2861 423.9243L442.2802 423.3655 440.9389 420.4594 439.8212 419.0064 438.5917 416.5474 437.9211 413.9767 437.1387 412.7472 436.8034 410.2882 436.9152 411.1824 437.3623 412.3001 437.8094 413.3061 438.3682 413.7531 438.5917 414.4238 439.0388 416.9945 439.3741 417.6651 439.4859 418.1122 441.4978 420.3476 442.7273 423.2537 443.2861 423.9243ZM436.8034 408.947L432.2208 409.2823 434.6798 408.3881 436.021 408.1646 436.8034 408.947ZM587.471 411.7413L587.8063 410.5118 588.4769 409.1705 589.1475 408.0528 589.8182 407.1586 587.471 411.7413ZM705.6131 405.035L705.2778 404.2526 704.0483 404.2526 702.5953 405.035 703.6012 404.029 704.8307 403.8055 705.7249 404.2526 705.6131 405.035ZM458.5988 403.6937L455.2457 400.5641 456.0281 401.0112 458.5988 403.6937ZM463.9638 401.2348L463.0696 398.9993 460.4989 394.9756 458.9341 393.9696 460.2754 394.1932 461.0578 395.0873 462.2872 397.4345 463.5167 398.8876 463.9638 399.8935 463.9638 401.2348ZM317.9906 355.4086L317.6553 354.738 317.0965 354.0673 316.2023 353.2849 314.8611 352.5025 311.7315 351.6084 313.7433 351.7201 315.9788 352.279 317.5436 353.5085 317.9906 355.4086ZM289.6008 350.1553L288.5948 349.0376 286.5829 348.1435 287.7007 348.2552 289.0419 348.7023 289.8243 349.3729 289.6008 350.1553ZM457.2575 338.4194L456.8105 339.09 455.9163 339.7606 454.9103 340.3195 454.1279 340.543 453.9044 339.8724 454.4633 338.5311 455.581 336.4075 454.575 338.8664 454.3515 339.9842 455.3574 339.7606 457.2575 338.4194ZM405.3957 330.1483L405.9546 329.0306 406.2899 328.0246 404.7251 327.0187 406.0663 327.2422 406.6252 328.1364 406.4017 329.2541 405.3957 330.1483ZM466.6463 330.8189L468.9935 328.4717 471.1172 327.2422 472.2349 326.1245 471.0054 326.6834 468.9935 326.7952 466.6463 327.354 467.5405 326.9069 468.6582 326.5716 470.7818 326.3481 471.7878 325.901 472.4584 325.6774 472.682 325.7892 472.682 326.3481 472.4584 326.5716 471.5642 327.354 469.9994 328.2482 469.5524 328.4717 468.9935 328.807 467.5405 330.2601 466.6463 330.8189ZM425.4028 323.5538L425.6263 322.5479 424.8439 322.4361 422.1614 322.5479 424.8439 322.1008 425.9616 322.3243 425.4028 323.5538ZM870.252 680.4392L870.252 680.5509 870.1403 680.5509 869.9167 680.3274 870.0285 680.3274 870.1403 680.4392 870.252 680.4392ZM753.2276 653.3905L752.8923 653.5023 752.7805 653.6141 752.6688 653.6141 753.2276 653.3905ZM510.4606 443.0372L511.6901 442.7019 512.5843 443.3725 513.0314 444.3784 513.1431 444.8255 512.5843 444.3784 511.9136 443.3725 511.243 442.9254 510.2371 443.8196 510.2371 443.596 510.2371 443.4843 510.4606 443.0372Z" />
  <path class="Windward Islands" d="M190.5715 491.3223L191.1304 490.6517 191.3539 491.2106 191.1304 491.8812 190.5715 491.3223ZM242.8804 456.4497L243.3275 456.338 243.551 456.2262 243.6628 456.2262 243.4393 456.5615 242.7686 457.1204 242.7686 457.0086 242.7686 456.785 242.8804 456.4497ZM262.4404 494.5637L263.5581 495.905 264.1169 498.2521 263.7816 500.4876 262.1051 501.6053 261.3227 501.4935 258.7519 500.7111 257.9695 500.3758 256.4047 498.2521 255.0635 496.0167 254.6164 494.2284 254.3928 493.8931 253.9458 493.8931 253.7222 494.2284 253.4987 494.6755 253.2751 495.0108 252.2692 495.1226 249.4749 496.0167 248.3572 496.1285 247.5748 495.905 246.1218 495.3461 243.3275 494.899 242.7686 494.5637 241.8745 491.5459 241.5392 491.0988 241.0921 490.7635 240.645 489.8693 240.1979 488.8634 240.0861 487.8574 240.5332 485.5102 241.8745 484.0572 243.8864 483.2748 246.1218 482.6042 248.2454 482.3806 250.4809 482.8277 252.4927 483.6101 254.1693 484.7278 254.6164 485.2867 255.0635 485.9573 255.287 486.8515 255.3988 487.7457 255.287 491.0988 255.3988 492.1047 256.6283 493.5578 258.5284 494.1166 262.4404 494.5637ZM232.4857 480.9276L233.0446 481.1512 233.0446 481.71 232.1504 483.9454 231.2562 485.2867 230.2503 486.1809 229.3561 486.1809 228.2384 485.5102 226.7854 484.5043 225.6677 483.3866 225.3323 482.3806 225.7794 481.8218 226.6736 481.3747 227.5678 481.2629 228.0149 481.8218 228.1266 482.2689 228.5737 482.2689 228.909 482.0453 229.0208 481.9336 229.4679 481.8218 229.8032 481.71 230.1385 481.5982 230.6974 481.9336 230.8091 481.3747 231.2562 481.0394 231.8151 480.9276 232.4857 480.9276Z" />
</svg>