<?xml version="1.0" encoding="utf-8"?>
<svg xmlns="http://www.w3.org/2000/svg" viewBox="0 0 1021 742" style="stroke-width:0.25px;stroke-linejoin:round;stroke:#444;fill:#ddd" fill-rule="evenodd">
  <path class="Îles Loyauté" d="M1015.547 437.6715L1017 442.7012 1016.8882 451.4194 1015.3234 460.6964 1012.4174 467.5144 1013.6469 478.5798 1013.088 483.6095 1010.2937 485.7331 1007.6112 486.1802 999.1166 488.6392 992.6339 492.3276 983.1333 491.5452 975.3094 487.5215 975.7564 480.8152 970.9503 478.6915 965.1382 477.2385 959.1025 477.1267 954.0728 479.1386 953.514 478.3562 953.0669 477.5738 952.7316 476.7914 952.508 475.6737 954.967 474.1089 957.7613 471.6499 959.8849 468.2968 960.332 464.1613 959.2143 462.1494 954.1846 456.6726 952.508 454.3254 951.2785 449.9663 950.6079 443.5954 949.7138 439.4598 947.9254 435.4361 941.6662 426.1591 945.0194 424.4825 947.9254 423.8119 950.7197 423.9237 954.0728 424.4825 959.7732 427.2768 963.3498 428.2827 967.2618 424.7061 981.9039 414.5349 982.5745 417.6645 978.4389 424.0354 977.2095 428.618 978.4389 432.7536 981.0097 437.1127 984.1393 440.8011 986.3747 442.813 993.4163 444.3778 1001.352 443.4836 1009.176 440.8011 1015.547 437.6715ZM631.2777 266.4381L633.066 266.2145 638.7663 266.4381 637.6486 268.6735 635.4132 269.7912 629.7129 271.356 628.4834 270.1265 627.3657 269.2323 625.8009 268.6735 623.6772 268.1146 625.3538 266.9969 627.1421 266.4381 629.0422 266.2145 631.2777 266.4381ZM857.279 340.4306L860.0733 342.5542 863.4264 346.0191 864.5441 349.037 857.1672 351.7195 855.7142 355.1844 855.826 364.3496 855.2671 369.2675 853.9259 372.2854 851.4669 374.409 848.002 376.7562 844.2018 375.0796 839.0603 375.0796 834.5894 373.1795 832.6893 366.0262 831.0128 364.9085 827.3243 364.3496 823.6359 363.4554 821.9593 361.1083 821.5122 357.0845 820.3945 355.7432 799.8286 353.5078 793.1223 351.2724 787.3102 346.2427 781.9452 340.4306 781.3864 338.754 781.051 336.5186 780.1569 334.6185 775.4625 332.8301 774.1212 330.4829 774.233 327.2416 775.686 324.0002 766.7443 315.8409 764.956 312.4878 778.7039 313.6055 783.3982 312.4878 787.6455 310.1406 790.2163 307.3463 794.24 300.8636 800.9463 292.8161 803.1817 288.1217 801.8405 282.8684 799.0462 281.1919 787.3102 276.1622 770.321 278.0623 769.8739 275.7151 770.8799 270.6854 773.5624 265.5439 778.0332 263.1967 785.7454 261.9672 787.3102 262.4143 788.7633 263.7556 790.4398 264.538 792.4517 264.8733 794.9107 264.8733 797.1461 264.0909 798.9344 262.3025 799.9404 259.9553 800.3875 257.3846 807.9879 255.0374 824.8653 264.4262 827.8832 264.8733 829.448 269.1206 827.7714 273.2561 824.8653 277.3916 823.5241 281.9743 823.6359 284.7685 824.9771 291.0277 827.8832 297.6222 827.1008 300.64 824.0829 305.4462 823.5241 308.3523 824.1947 310.1406 825.9831 311.0348 828.2185 311.9289 830.3421 313.2702 832.6893 315.3938 834.5894 316.7351 840.4015 318.9705 842.9723 319.1941 845.2077 319.0823 846.7725 319.7529 848.002 322.4354 848.7844 323.5531 850.1256 326.0121 851.2433 327.1298 848.6726 331.2653 847.8902 333.6125 848.002 335.6244 849.9021 338.3069 852.2493 339.3129 854.82 339.6482 857.279 340.4306ZM678.8922 195.7987L681.3512 197.6988 687.0515 200.7166 688.1692 202.3932 687.1633 205.0757 684.7043 205.9699 678.1098 205.6345 675.2037 206.4169 673.0801 208.3171 671.8506 210.776 671.4035 213.1232 670.7329 213.7938 667.3798 222.8473 665.9267 225.6416 665.815 229.33 666.4856 236.0363 667.8268 237.7129 670.7329 237.8246 677.2156 236.8187 668.6092 253.3608 665.0326 258.167 661.4559 260.5142 656.538 262.8614 651.1729 264.4262 646.7021 264.8733 644.9138 263.1967 643.5725 261.5201 647.0374 260.1789 650.167 257.7199 655.7556 251.796 659.5558 246.6546 661.2323 243.6367 661.903 239.2777 661.4559 224.7474 662.6854 221.2825 665.2561 217.9294 668.0504 213.235 670.2858 208.2053 671.4035 203.8462 670.3976 199.2636 666.1503 193.3397 664.1384 191.2161 663.2442 191.5514 661.903 192.4455 662.4618 190.3219 664.809 187.9747 668.1622 186.2981 671.4035 185.851 674.1978 187.3041 675.8744 189.9866 677.2156 193.1162 678.8922 195.7987Z" />
  <path class="Nord" d="M83.8224 105.5993L84.046 107.9465 83.9342 110.0702 83.3754 112.1938 82.2576 113.9822 80.6928 110.629 77.3397 111.7468 75.3278 109.9584 73.0924 104.1463 73.0924 102.2462 74.6572 100.3461 75.8867 94.7575 77.675 94.1987 79.7987 96.0988 81.587 102.6933 83.8224 105.5993ZM336.6488 423.5883L336.09 423.0295 334.5252 423.0295 332.5133 423.8119 331.0603 424.5943 331.2838 424.4825 330.5014 427.9474 328.4895 429.0651 326.4777 427.8356 325.4717 424.4825 323.7952 426.0473 322.0068 427.165 319.9949 427.5003 317.536 426.1591 321.7833 421.4647 321.2244 417.5527 317.7595 415.3173 312.8416 416.3232 314.6299 412.6348 313.624 410.2876 308.259 406.3756 306.2471 409.6169 307.0295 414.7584 305.2411 417.888 302.8939 419.4528 300.6585 418.8939 298.8702 417.1056 297.5289 414.5349 298.5349 412.6348 298.6466 410.5111 299.3173 408.3875 300.6585 406.3756 298.982 404.3637 297.4172 403.8048 295.6288 403.5813 293.7287 402.3518 292.3875 400.787 290.9344 398.1045 274.3923 377.8739 273.2746 374.5208 272.9393 369.3793 273.051 365.5791 272.7157 361.3318 270.9274 358.7611 266.6801 360.2141 267.0154 357.0845 267.3507 356.4139 268.3567 355.2961 268.3567 353.5078 266.9036 353.5078 265.7859 353.1725 263.6623 352.0548 264.8917 350.2664 264.6682 349.2605 263.1034 349.2605 260.5327 350.3782 259.9738 353.1725 257.5149 353.5078 255.3912 351.7195 254.497 347.9193 253.1558 347.8075 250.3615 348.2546 248.5732 349.5958 249.9144 352.0548 248.4614 353.8431 246.8966 355.2961 242.7611 344.0073 239.855 339.4246 236.1666 337.0774 240.5256 334.0596 238.5138 331.936 233.8194 330.0359 230.0191 327.1298 233.5958 326.7945 235.4959 325.2297 235.7195 323.1061 234.49 320.7589 231.6957 319.0823 228.7897 318.747 226.8895 317.741 226.7778 314.0526 225.4365 314.0526 221.9716 316.3998 218.3949 314.6114 213.0299 309.2464 210.6827 308.5758 206.1001 308.464 203.7529 307.4581 202.747 306.2286 199.9527 300.8636 194.923 299.8576 190.8992 297.3987 181.1751 287.2275 174.4689 282.6449 171.451 279.5153 169.2156 275.6033 170.6686 275.4915 174.0218 276.0504 177.4867 274.7091 179.275 270.9089 177.9338 267.7793 174.5806 265.6557 170.6686 264.8733 167.3155 262.3025 162.3976 251.0136 158.262 248.4429 151.444 231.9008 150.2145 232.7949 149.2086 233.0185 148.0909 233.242 146.8614 233.5773 144.626 229.33 130.431 219.9413 126.9661 214.688 124.3954 204.9639 123.9483 201.499 122.8306 197.587 120.1481 195.7987 117.1303 194.681 114.8948 192.4455 113.7771 187.5276 116.3479 186.9688 122.3835 189.0924 124.5072 186.6334 125.4013 182.6097 125.4013 175.2328 124.5072 173.5562 122.2717 170.4266 119.4774 167.4088 116.9067 166.0675 106.4002 165.6205 103.7177 164.5028 105.1707 161.3732 105.3943 158.2436 103.9413 156.567 100.8117 157.9083 101.7058 160.3672 100.4763 163.0497 98.2409 165.1734 96.229 166.0675 92.8759 165.1734 91.87 162.938 91.1993 160.7025 89.2992 159.6966 86.0579 157.3494 86.7285 152.655 90.864 149.4136 97.7938 151.4255 99.8057 148.6312 98.9116 145.7252 94.6642 140.1366 97.3468 139.0189 98.9116 136.6717 99.2469 133.6539 97.7938 130.4125 94.4407 127.73 91.7582 128.1771 88.8521 129.7419 85.3872 130.4125 85.3872 128.5124 86.505 127.6183 87.2873 126.5006 88.4051 123.7063 85.1637 122.5886 84.046 120.3531 84.2695 117.4471 85.3872 113.9822 87.0638 114.3175 90.1934 113.9822 94.4407 116.5529 98.7998 120.2414 102.2647 124.2651 104.5001 129.9655 106.6238 131.3067 111.6535 133.6539 128.1956 153.3256 131.5487 156.4552 141.9435 162.3791 146.5261 163.1615 151.444 161.3732 152.897 161.3732 155.8031 167.9677 158.1503 170.4266 162.174 170.9855 160.1622 168.0794 156.9208 159.9201 155.4678 152.2079 155.9149 150.3078 158.0385 150.3078 198.3879 165.9558 205.5413 172.215 217.5008 187.6394 220.7421 190.6572 225.213 193.8986 229.9074 196.3575 233.8194 197.4752 240.7492 203.8462 243.0964 204.9639 249.9144 207.3111 253.1558 210.3289 259.415 218.7118 262.8799 220.5001 264.78 222.1767 272.9393 233.5773 284.5635 244.0838 286.6871 244.3074 293.5052 248.5547 296.9701 251.9078 295.9641 255.0374 299.8761 257.8317 308.9296 258.167 312.8416 261.5201 316.9771 263.0849 325.36 269.903 349.0554 274.7091 349.7261 275.1562 351.5144 277.3916 352.8557 278.0623 353.6381 277.8387 354.7558 276.9446 356.097 276.2739 357.5501 276.1622 360.3443 277.1681 361.3503 278.0623 362.0209 279.18 363.8092 281.0801 369.1743 285.7745 370.8508 288.9041 369.8449 292.5925 372.1921 302.4284 374.4275 305.8933 377.8924 308.3523 381.3573 310.3641 384.0398 312.8231 385.2693 316.5116 387.0576 317.2939 399.0172 318.9705 403.0409 320.3118 404.2704 321.5413 403.2645 329.5888 401.9232 334.9538 401.2526 336.4068 400.2466 338.0834 400.6937 339.76 401.5879 341.3248 402.035 342.8895 402.8174 347.0251 404.7175 349.7076 412.0944 355.2961 418.4653 358.6493 421.3714 361.1083 424.2774 364.3496 425.954 365.0202 431.7661 365.3556 433.3309 366.138 433.778 367.7028 432.9956 370.2735 434.2251 369.7146 434.8957 369.6029 435.231 369.3793 436.0134 368.4851 442.9432 374.1855 445.8493 377.4268 446.7435 379.9976 447.9729 380.78 448.5318 381.4506 449.6495 383.3507 445.8493 383.3507 442.3844 382.4565 439.143 380.78 436.0134 378.5446 437.0194 380.78 439.143 383.4625 441.8255 385.6979 444.3963 386.7039 446.7435 388.2686 448.42 391.7336 449.873 395.6455 451.3261 398.2163 456.5793 400.5635 470.1036 404.0284 474.3509 408.1639 480.8337 406.4873 486.8693 409.8405 491.3402 415.6526 493.0167 421.2411 496.9287 420.2352 499.2759 430.5182 503.635 434.5419 501.3996 429.7358 501.176 427.9474 502.182 426.1591 504.1938 424.9296 506.3175 425.0414 508.3294 426.4944 509.7824 429.5122 511.0119 427.2768 511.3472 424.7061 510.453 422.0235 508.1058 419.5646 512.1296 420.6823 515.371 424.7061 523.1949 439.3481 524.648 443.4836 523.642 445.4955 518.9476 444.3778 520.5124 446.9485 529.6777 452.6488 528.4482 454.8843 530.2365 455.1078 532.919 454.3254 534.3721 453.4312 533.8132 450.4134 532.4719 448.0662 530.9072 446.2779 529.6777 444.3778 527.8893 438.6774 527.4422 434.2066 529.1188 432.53 533.5897 435.2125 540.5195 442.813 542.7549 443.3718 548.3435 444.1542 550.4671 445.2719 550.9142 446.8367 549.3494 447.6191 547.3375 448.178 546.7787 449.1839 547.6728 450.3017 549.2376 450.7487 551.2495 450.9723 551.6966 453.543 552.1437 458.0139 552.7025 460.9199 554.3791 460.0257 552.5908 465.279 549.1259 468.4086 546.3316 470.1969 544.2079 473.7736 542.4196 478.6915 539.0664 479.921 531.5778 479.4739 527.554 478.2444 524.0891 476.6796 521.0713 474.556 518.5006 474.7795 514.7003 475.7855 511.6825 477.2385 506.8763 477.2385 504.5292 475.2266 501.176 471.8735 497.7111 470.1969 495.3639 468.185 492.1226 465.5025 485.081 461.1435 479.9395 461.0317 472.1155 457.3432 468.0917 459.5787 461.4972 459.3551 458.0323 456.002 452.5556 453.8783 447.8612 449.2957 446.2964 448.178 440.7078 444.9366 439.4783 443.4836 438.6959 442.1424 436.7958 437.0009 436.0134 436.1067 434.4486 435.3243 432.5485 435.2125 428.0777 436.7773 426.2893 436.7773 424.6128 435.5479 423.2715 434.2066 421.7067 433.2007 420.0301 432.7536 417.3476 433.8713 412.0944 437.448 410.5296 438.2304 408.1824 438.3421 406.2823 438.1186 396.4464 433.3124 393.4286 422.6942 392.9815 420.1234 388.6224 417.2174 384.0398 415.3173 376.7747 412.8583 374.5393 410.3993 370.292 409.6169 357.103 410.6229 351.2909 412.6348 345.5905 417.4409 341.9021 419.0057 337.7666 422.1353 336.6488 423.5883ZM137.5844 127.0594L141.0493 131.9773 136.802 130.8596 130.431 127.3947 125.1778 123.5945 124.0601 119.2354 123.9483 108.9525 125.4013 108.9525 135.4607 122.365 137.5844 127.0594ZM15.9773 32.1657L18.4363 36.3012 18.9952 38.0895 13.0713 43.5663 6.365 28.2537 5.4708 23.0004 5.9179 13.2763 4.6884 9.6997 1 7.4642 2.3413 4.4464 5.9179 6.3465 8.6004 9.8114 13.1831 20.9886 14.7479 28.7008 15.9773 32.1657Z" />
  <path class="Sud" d="M877.1743 713.0757L879.5215 717.323 882.5393 720.0055 884.7747 723.3586 884.8865 729.7296 882.0922 727.7177 879.4097 721.7938 877.1743 721.3468 876.1683 723.1351 876.2801 726.2647 877.1743 732.3003 874.1564 737.5536 867.1149 736.7712 854.2612 731.4062 855.4906 725.3705 855.6024 711.0638 857.279 706.3694 861.3028 705.3635 867.3384 706.7047 873.2623 709.499 877.1743 713.0757ZM715.7767 671.6086L718.7945 670.6026 721.1417 670.8262 723.1536 672.1674 725.1655 674.8499 725.1655 677.756 724.4948 679.4326 723.4889 679.6561 721.9241 678.0913 720.2475 679.4326 719.018 680.3267 715.7767 681.5562 715.7767 683.0092 720.1358 683.6799 719.6887 685.3564 717.2297 686.9212 715.7767 687.1448 714.2119 686.5859 710.9705 685.8035 708.8469 684.127 710.4117 680.662 712.0882 677.8678 712.4235 675.5206 713.0942 673.5087 715.7767 671.6086ZM336.6488 423.5883L337.7666 422.1353 341.9021 419.0057 345.5905 417.4409 351.2909 412.6348 357.103 410.6229 370.292 409.6169 374.5393 410.3993 376.7747 412.8583 384.0398 415.3173 388.6224 417.2174 392.9815 420.1234 393.4286 422.6942 396.4464 433.3124 406.2823 438.1186 408.1824 438.3421 410.5296 438.2304 412.0944 437.448 417.3476 433.8713 420.0301 432.7536 421.7067 433.2007 423.2715 434.2066 424.6128 435.5479 426.2893 436.7773 428.0777 436.7773 432.5485 435.2125 434.4486 435.3243 436.0134 436.1067 436.7958 437.0009 438.6959 442.1424 439.4783 443.4836 440.7078 444.9366 446.2964 448.178 447.8612 449.2957 452.5556 453.8783 458.0323 456.002 461.4972 459.3551 468.0917 459.5787 472.1155 457.3432 479.9395 461.0317 485.081 461.1435 492.1226 465.5025 495.3639 468.185 497.7111 470.1969 501.176 471.8735 504.5292 475.2266 506.8763 477.2385 511.6825 477.2385 514.7003 475.7855 518.5006 474.7795 521.0713 474.556 524.0891 476.6796 527.554 478.2444 531.5778 479.4739 539.0664 479.921 542.4196 478.6915 544.2079 473.7736 546.3316 470.1969 549.1259 468.4086 552.5908 465.279 554.3791 460.0257 557.9558 458.3492 562.0913 458.2374 565.7798 460.3611 577.404 470.8675 578.7452 471.6499 581.763 472.4323 582.769 473.3265 585.0044 477.462 592.9402 482.7153 601.2112 486.7391 618.9828 492.4394 618.9828 494.0042 612.7237 494.0042 612.7237 495.6807 614.4002 496.6867 614.8473 498.1397 615.1826 499.5927 615.965 500.7105 617.418 501.3811 620.5476 501.7164 628.2598 503.7283 631.3894 505.4048 633.9602 509.9875 642.6783 516.4702 643.6843 518.1468 644.4667 522.5058 645.8079 524.6295 647.1492 525.6354 651.1729 527.312 649.4964 528.765 654.6378 533.2359 664.5855 544.6365 668.8328 546.9837 672.9683 550.1133 679.004 556.3725 684.369 560.2845 686.4926 556.8196 694.3166 562.2964 697.3344 563.4141 697.3344 565.2024 695.5461 566.4319 693.7578 567.3261 691.7459 567.9967 689.6222 568.4438 689.6222 570.2321 691.5223 571.0145 698.0051 570.2321 701.0229 570.791 703.3701 572.0205 705.1584 572.6911 706.4997 571.6851 708.0645 576.0442 710.5234 578.3914 714.1001 579.5091 718.9063 580.1798 731.9835 583.4211 735.2249 585.2095 746.6255 594.2629 748.7492 597.169 751.2081 601.7516 751.5435 603.7635 751.2081 610.0227 750.314 611.3639 748.7492 613.1523 748.6374 614.4935 751.9905 615.1641 753.8906 616.1701 755.7908 618.5173 758.8086 623.4352 766.7443 629.8062 768.0856 632.3769 767.415 634.6123 766.0737 635.0594 764.3971 635.0594 763.2794 636.6242 763.8383 638.189 765.2913 639.8656 766.409 641.8774 765.6266 644.1129 764.956 645.6777 763.2794 651.6015 761.6029 654.8429 760.4851 656.5195 758.8086 658.3078 758.3615 657.1901 757.6909 656.0724 756.4614 656.743 755.2319 657.8607 752.5494 659.0902 751.5435 659.8726 751.767 661.1021 752.7729 663.2257 745.6196 669.0378 741.3723 670.8262 735.8955 669.932 740.4781 668.2554 742.2664 667.026 743.4959 664.7905 740.031 664.9023 738.578 665.3494 736.7897 663.3375 735.5602 660.2079 733.7718 656.743 732.7659 655.7371 732.0953 652.9428 730.6422 654.7311 729.301 657.9725 728.8539 659.8726 727.0656 658.8667 725.8361 656.6312 724.8301 653.837 723.4889 651.6015 724.4948 651.2662 726.5067 650.0367 724.4948 647.1307 722.4829 647.8013 721.0299 651.0427 720.1358 657.9725 719.6887 659.202 719.6887 660.5432 720.4711 663.2257 721.0299 663.5611 725.1655 666.5789 722.7065 667.1377 719.5769 666.6906 716.8944 665.7965 715.7767 665.6847 715.2178 666.9142 713.7648 668.3672 712.0882 669.4849 710.4117 669.932 704.8231 668.5908 701.8053 665.5729 702.1406 662.2198 706.4997 659.8726 706.4997 658.3078 702.3641 658.7549 697.4462 658.196 694.3166 655.9606 695.7696 651.6015 694.2048 650.0367 690.8517 651.2662 685.7102 649.3661 681.0158 645.7894 678.8922 642.4363 677.8862 641.9892 672.8565 644.2246 670.5094 644.8953 668.721 644.4482 663.0207 641.9892 661.1206 640.7597 660.3382 638.4125 661.903 637.0713 662.9089 635.6183 660.3382 633.1593 658.3263 632.4887 651.7318 631.4827 649.4964 631.7063 647.0374 635.2829 645.4726 640.648 643.2372 644.4482 638.7663 643.2187 638.7663 644.2246 638.6546 644.6717 638.2075 644.7835 637.4251 644.8953 639.2134 649.4779 636.8662 650.5956 633.9602 649.4779 633.5131 647.3542 634.1837 645.3424 634.519 639.1949 635.9721 636.6242 635.9721 635.0594 632.7307 635.1712 629.7129 634.3888 627.1421 632.6004 625.1303 629.8062 632.3954 630.1415 635.525 629.2473 637.4251 626.6766 633.4013 626.453 632.0601 624.3294 632.8425 616.6172 630.607 616.8407 625.6891 615.9465 623.6772 616.6172 622.8948 618.0702 621.8889 622.4293 621.33 623.4352 618.5358 623.8823 617.418 625.1118 616.7474 626.9001 615.1826 629.1355 613.1707 630.0297 612.053 628.4649 612.3883 625.8942 614.4002 623.4352 612.1648 621.9822 606.688 616.6172 606.688 615.1641 608.0293 614.27 608.8117 613.4876 609.2587 612.0345 609.5941 610.0227 608.141 610.0227 605.9056 612.3699 600.0935 611.0286 600.5406 613.264 596.1815 615.0524 592.4931 613.5993 588.9164 611.6992 585.0044 611.6992 584.7809 607.0048 582.769 603.4282 579.7512 600.9692 576.6216 600.075 573.8273 598.5102 571.2565 595.9395 568.574 595.3806 565.1091 600.075 562.6502 598.622 560.4147 596.8337 561.4207 595.4924 561.9795 594.2629 562.0913 592.4746 562.0913 590.0156 563.4326 590.0156 565.3327 592.251 567.7916 593.257 569.6917 592.3628 569.6917 588.5626 568.3505 586.2154 563.9914 584.2035 562.0913 581.7446 568.127 581.8563 570.6977 582.3034 572.8213 583.4211 572.5978 580.8504 571.5919 579.2856 569.9153 578.615 567.4563 578.5032 566.2268 576.9384 566.6739 573.8088 567.5681 570.9028 568.2387 570.2321 566.3386 564.7553 563.5443 562.5199 555.8321 560.1727 553.0378 561.8493 551.5848 561.1787 551.9201 559.1668 554.3791 556.8196 552.0319 555.7019 550.3553 553.9135 549.5729 551.4546 549.6847 548.5485 546.108 550.8957 544.8785 553.1311 545.1021 559.2785 544.0961 560.7316 541.6372 560.7316 539.0664 560.2845 537.3899 560.1727 538.284 561.2904 538.0605 564.1965 536.6075 566.2084 533.5897 564.3083 530.3483 559.8374 528.3364 557.7138 521.2948 555.0312 516.7122 547.0955 513.4708 545.3072 511.9061 544.8601 510.2295 543.7424 507.4352 541.2834 505.9822 540.501 504.8645 540.9481 503.635 541.8422 502.182 542.0658 495.6992 541.954 493.4638 540.7245 493.0167 537.0361 497.7111 539.1597 496.1463 536.7008 489.8871 530.5534 489.8871 528.6532 490.8931 526.4178 491.1166 524.6295 489.1047 523.8471 486.7575 524.4059 485.8634 525.859 485.8634 527.9826 486.7575 530.5534 482.9573 529.2121 482.1749 526.5296 482.5102 522.9529 481.9514 519.0409 480.0513 516.582 477.7041 514.5701 476.0275 511.7758 476.0275 507.1932 474.3509 507.1932 472.4508 510.9934 470.2154 514.0112 467.1976 516.2466 463.6209 517.2526 463.8444 512.2229 463.6209 509.5404 461.8326 508.5344 457.5853 508.8697 457.4735 509.3168 457.5853 510.5463 457.2499 511.664 455.9087 512.2229 454.6792 512.1111 424.7245 497.1338 417.9065 490.7628 420.589 485.7331 420.589 483.9448 417.3476 485.1743 415.4475 484.5036 415.7828 483.1624 419.0242 482.2682 415.4475 479.5857 411.7591 480.4799 407.9589 482.7153 404.2704 483.9448 400.3584 483.1624 376.7747 472.6559 373.7569 470.0851 371.8568 466.8438 369.7331 459.2433 369.1743 457.7903 364.927 457.2315 362.1327 455.7784 355.8735 450.9723 354.0851 450.5252 352.0733 450.4134 350.5085 449.9663 349.8378 448.4015 346.82 445.0484 346.0376 444.3778 337.6548 429.5122 337.3195 427.165 337.9901 426.0473 338.1019 424.9296 336.6488 423.5883Z" />
</svg>