<?xml version="1.0" encoding="utf-8"?>
<svg xmlns="http://www.w3.org/2000/svg" viewBox="0 0 1021 783" style="stroke-width:0.25px;stroke-linejoin:round;stroke:#444;fill:#ddd" fill-rule="evenodd">
  <path class="Central Equatoria" d="M712.9824 568.0426L710.747 577.9902 711.5294 633.5405 713.653 641.3645 714.8825 644.8294 721.9241 657.0124 723.2653 660.0303 724.0477 663.2716 723.936 666.0659 722.93 668.9719 721.2535 672.3251 716.112 679.8138 707.9527 697.6971 704.7113 710.7744 702.923 714.351 700.7993 717.1453 697.8933 719.9396 688.7281 726.5341 687.0515 728.546 685.3749 731.7873 679.5628 747.7706 677.4392 751.2355 677.3274 751.3473 677.2156 752.465 677.1039 752.8003 675.3155 751.9062 675.092 751.9062 674.8684 752.3532 667.8268 760.289 667.0444 761.0714 666.7091 761.1832 665.4796 761.742 660.6735 762.4127 657.3204 762.8597 656.3144 763.0833 654.7496 763.8657 653.7437 765.0952 653.6319 765.2069 652.7377 765.9893 651.1729 765.7658 651.0612 765.654 639.884 759.6184 632.5072 755.5946 629.154 754.4769 625.4656 754.0298 621.33 754.0298 621.1065 754.1416 618.9828 754.7004 615.7415 757.1594 613.9531 758.6124 613.3943 759.0595 612.6119 759.3948 612.053 759.5066 610.9353 759.7301 610.1529 760.0655 607.6939 761.9656 607.4704 762.1891 606.2409 762.748 605.3468 762.8597 604.229 762.8597 603.5584 762.8597 602.6642 763.0833 601.6583 763.9774 601.2112 764.9834 600.9877 765.9893 600.5406 766.9953 594.7285 775.4899 593.1637 778.7312 593.3872 777.7253 594.2814 775.7134 594.3932 775.0428 594.3932 774.2604 594.2814 774.0369 593.9461 773.7015 591.2636 773.0309 591.04 772.6956 588.9164 771.9132 588.134 770.6837 587.6869 769.1189 587.6869 766.8835 587.6869 766.7717 587.5751 765.9893 587.0163 764.8716 586.4574 764.4245 585.5633 764.6481 585.1162 764.9834 584.3338 764.4245 582.8807 765.4305 581.4277 767.107 579.5276 768.113 579.3041 768.113 578.9688 768.0012 577.851 767.6659 577.2922 767.7777 576.6216 768.2248 576.0627 768.3365 574.6097 768.8954 571.8154 770.3484 570.6977 770.6837 568.9094 770.9073 568.0152 770.9073 567.2328 770.5719 567.0092 770.3484 568.3505 768.8954 568.2387 767.5541 568.6858 766.4364 568.6858 765.7658 568.3505 764.7598 568.127 764.5363 569.0211 763.195 569.58 762.0773 568.7976 756.377 567.4563 750.9002 566.0033 749.8943 566.0033 749.6707 564.7738 747.3235 563.8796 747.1 563.0972 747.2118 562.2031 747.4353 561.3089 747.5471 559.5206 747.5471 558.7382 747.3235 555.385 746.3176 548.2317 742.0703 543.8726 740.6173 543.6491 740.3937 541.9725 739.4996 541.4136 739.6113 540.8548 739.9466 540.6312 740.1702 536.6075 740.0584 536.831 739.0525 535.9369 738.1583 535.7133 736.7053 535.378 734.3581 534.9309 734.1345 533.8132 733.0168 533.925 730.7814 534.3721 727.54 533.3661 726.1988 532.2484 726.3106 532.1366 726.3106 529.9012 725.8635 528.1129 725.3046 526.6598 724.4105 523.5303 723.4045 521.9655 721.8397 521.1831 718.7101 520.0653 717.1453 519.1712 716.6982 517.3828 716.3629 516.2651 715.6923 515.9298 715.1334 515.5945 713.0098 516.6004 711.1097 516.7122 708.5389 514.9239 707.1977 514.0297 706.08 511.9061 704.9623 511.0119 704.2916 510.453 704.1799 509.5589 704.0681 508.2176 704.4034 506.6528 704.627 505.1998 703.621 504.7527 702.9504 503.8585 702.5033 503.635 702.3915 502.8526 702.5033 502.2937 702.168 501.8466 701.4974 501.7349 698.9266 501.8466 695.6853 502.2937 691.6615 502.2937 690.2085 503.2997 688.5319 504.5292 685.4023 504.1938 685.2905 518.5006 674.0017 521.8537 670.425 523.9773 668.4131 525.9892 667.0718 528.3364 666.1777 530.1248 665.7306 532.3602 665.8424 534.3721 666.6248 536.3839 667.966 542.0843 673.2193 544.3197 674.5605 546.5551 675.0076 549.3494 674.5605 552.479 672.9957 564.1032 661.595 568.127 658.5772 578.1864 653.4358 590.3694 649.412 592.3813 648.2943 593.3872 647.4001 593.9461 646.3942 594.2814 645.2765 594.505 643.4881 595.8462 617.3337 596.8521 612.9746 598.3052 609.1744 602.4407 603.027 603.4466 599.7856 603.1113 595.9854 601.0994 591.6263 598.5287 587.1554 592.046 581.2316 587.0163 577.7667 585.2279 575.643 582.769 571.6193 580.6453 568.825 577.1804 565.4718 567.4563 558.0949 556.8381 548.2591 576.2862 546.5825 584.222 545.0177 590.7047 541.6646 595.1756 541.8881 611.4942 555.7477 622.2242 560.4421 652.0671 565.9189 657.991 569.0485 661.2323 569.3838 665.7032 565.4718 712.9824 568.0426Z" />
  <path class="Eastern Equatoria" d="M955.9729 558.2067L956.0847 559.2127 955.1905 561.1128 954.8552 562.1187 954.8552 563.1246 955.3023 564.0188 956.7553 565.5836 956.9789 566.5895 956.8671 567.9308 956.5318 568.9367 956.42 569.8309 956.5318 571.0604 957.426 572.9605 964.4675 583.1317 965.8088 585.4789 966.5912 590.6204 967.4854 592.2969 971.3974 595.203 978.4389 599.3385 981.7921 602.1328 982.4627 603.9211 982.9098 604.9271 982.3509 605.933 981.5685 606.8272 980.8979 607.8331 980.8979 608.8391 981.2332 609.7332 982.0156 610.9627 969.8326 625.8283 964.8029 630.0756 953.4022 639.5761 948.4843 643.5999 945.9135 645.8353 943.0075 648.2943 932.501 657.3477 925.9065 663.0481 923.1122 665.507 914.7294 672.5486 912.3822 674.5605 907.576 679.2549 904.3347 680.9315 895.393 689.7614 886.4513 698.5913 877.6213 707.4212 869.6856 715.2452 868.6796 716.2512 867.8972 717.1453 864.4323 720.6102 858.5085 726.5341 857.5025 727.54 842.4134 742.9645 838.5014 746.8765 828.2185 757.3829 827.9949 757.6065 827.6596 757.6065 826.3184 757.6065 826.0948 757.6065 825.8713 757.7183 822.0711 758.2771 811.6763 757.7183 807.8761 757.4947 805.8642 757.3829 799.8286 757.1594 797.1461 756.6006 795.3578 755.5946 784.1806 746.5411 783.6218 746.3176 782.3923 745.7587 780.8275 746.3176 775.5743 750.3414 769.5386 753.3592 768.6444 753.8063 761.2675 756.0417 758.585 756.2652 750.314 756.9359 747.4079 757.1594 731.2011 758.5007 730.9776 758.6124 727.4009 759.3948 711.1941 769.3425 710.0763 770.4602 710.0763 771.6897 710.4117 774.8193 710.4117 776.1605 710.0763 777.39 709.9646 777.9488 709.5175 778.6195 709.4057 778.7312 708.3998 778.7312 702.8112 777.6135 701.3582 776.8311 700.0169 775.4899 699.7934 775.1546 699.4581 774.5957 698.3404 772.8074 697.558 772.3603 697.4462 772.4721 697.2227 772.4721 696.8873 772.4721 696.552 772.4721 696.3285 772.5838 696.2167 772.5838 695.9932 772.6956 695.5461 772.8074 695.3226 772.8074 695.099 772.9191 694.7637 773.0309 694.6519 773.0309 694.6519 772.9191 694.6519 772.8074 694.6519 772.6956 694.6519 772.5838 694.6519 772.4721 694.6519 772.3603 694.6519 772.2485 694.4284 772.2485 694.3166 772.2485 694.2048 772.2485 693.9813 772.2485 693.8695 772.2485 693.646 772.2485 693.4224 772.2485 693.1989 772.2485 692.9754 772.2485 692.7518 772.2485 692.64 772.2485 692.5283 772.2485 692.3047 772.2485 692.193 772.2485 692.0812 772.2485 691.8576 772.2485 691.6341 772.2485 691.5223 772.2485 691.4106 772.2485 691.2988 772.2485 691.187 772.2485 691.0752 772.2485 690.9635 772.2485 690.9635 772.1367 690.9635 772.025 690.8517 771.9132 690.9635 771.9132 690.9635 771.8014 689.6222 771.8014 688.5045 771.1308 687.8339 769.6778 687.6103 765.5422 687.275 763.8657 686.0455 761.742 679.6746 754.8122 677.6627 753.0239 677.3274 752.9121 677.1039 752.8003 677.2156 752.465 677.3274 751.3473 677.4392 751.2355 679.5628 747.7706 685.3749 731.7873 687.0515 728.546 688.7281 726.5341 697.8933 719.9396 700.7993 717.1453 702.923 714.351 704.7113 710.7744 707.9527 697.6971 716.112 679.8138 721.2535 672.3251 722.93 668.9719 723.936 666.0659 724.0477 663.2716 723.2653 660.0303 721.9241 657.0124 714.8825 644.8294 713.653 641.3645 711.5294 633.5405 710.747 577.9902 712.9824 568.0426 887.2337 578.7726 955.9729 558.2067ZM1014.2057 613.9805L1015.0999 613.5334 1016.6647 613.1981 1016.8882 613.3099 1017 613.3099 1017 613.4217 1016.8882 613.4217 1016.6647 613.5334 1016.4411 613.5334 1016.3294 613.5334 1016.2176 613.5334 1016.1058 613.5334 1015.8823 613.5334 1015.7705 613.5334 1015.6587 613.5334 1015.547 613.5334 1015.547 613.6452 1015.4352 613.757 1015.3234 613.757 1015.2117 613.8688 1015.0999 613.9805 1014.9881 614.2041 1014.7646 614.2041 1014.6528 614.3158 1014.4293 614.2041 1014.3175 614.2041 1014.2057 614.0923 1014.2057 613.9805ZM1001.1285 609.3979L1001.9109 609.5097 1003.4757 609.9568 1004.9287 610.7392 996.8812 610.7392 997.8871 609.7332 1001.1285 609.3979Z" />
  <path class="Jonglei" d="M955.9729 558.2067L887.2337 578.7726 712.9824 568.0426 665.7032 565.4718 665.1443 564.0188 664.5855 564.0188 664.0266 564.3541 663.4678 564.4659 662.6854 563.6835 661.903 562.6776 661.3441 561.4481 661.0088 560.5539 660.7853 558.7656 658.1028 551.8358 657.2086 550.3827 656.2026 549.1532 655.3085 548.7062 654.3025 547.7002 653.5201 545.4648 652.5142 541.441 650.5023 536.8584 650.0552 533.3935 649.7199 531.7169 649.1611 530.3757 648.3787 529.258 642.7901 522.4399 641.7842 520.0927 641.4488 516.4043 640.89 514.7277 639.6605 514.0571 637.9839 513.7218 636.978 512.9394 636.1956 511.5981 635.7485 509.8098 635.0779 505.6743 634.6308 503.8859 633.6249 503.1035 632.9542 502.7682 632.8425 501.9858 632.7307 501.0916 632.3954 500.421 629.7129 497.7385 628.9305 496.1737 628.5952 494.4971 627.9245 493.3794 626.3597 492.8206 625.242 492.3735 624.3479 491.144 623.0066 488.5733 620.9947 486.4496 619.6535 485.4437 617.8651 484.6613 617.3063 484.2142 616.0768 482.7612 615.4062 482.3141 613.8414 481.6435 613.3943 481.3081 613.059 480.5257 612.7237 478.5139 612.1648 477.6197 611.2706 477.0608 609.0352 476.6138 608.2528 476.0549 606.9116 475.1607 604.0055 473.8195 598.0816 468.7898 597.411 468.4545 595.1756 468.0074 594.3932 467.8956 593.6108 467.7838 593.0519 467.3367 590.7047 463.8718 590.3694 463.0894 590.1459 462.5306 589.9223 460.854 589.2517 459.8481 585.0044 457.6127 583.2161 455.1537 582.0983 454.2595 581.6513 453.8124 581.2042 451.0182 580.6453 449.9004 579.8629 448.8945 578.9688 447.1062 578.4099 444.759 576.9569 443.0824 576.398 441.7411 575.9509 438.1645 575.0568 436.3761 572.3743 433.3583 571.7036 431.6817 571.4801 430.564 570.8095 430.3405 570.0271 430.4523 569.3564 430.1169 569.2447 429.7816 569.4682 428.6639 569.3564 428.3286 568.3505 427.4344 568.0152 427.0991 567.6799 426.8756 566.6739 425.9814 566.1151 425.0872 566.6739 424.7519 567.6799 424.6402 568.3505 424.3048 568.6858 423.6342 568.6858 422.5165 568.4623 420.8399 567.6799 419.1634 566.5622 417.9339 564.662 417.0397 564.5503 416.1455 564.662 415.1396 564.5503 414.3572 563.9914 413.7983 562.5384 412.6806 562.0913 411.8982 562.2031 411.2276 562.8737 410.6688 563.4326 410.1099 562.6502 408.4333 563.4326 404.4096 563.6561 403.8507 564.1032 403.5154 564.5503 402.733 564.9974 402.1741 565.668 401.6153 565.7798 400.9447 565.1091 400.274 565.1091 399.7152 565.7798 399.6034 566.1151 399.4916 566.4504 399.2681 566.8975 399.1563 565.2209 398.5975 564.5503 398.5975 564.5503 397.9268 565.7798 397.1444 565.1091 396.4738 563.8796 395.915 563.209 395.1326 563.209 392.6736 563.0972 392.1147 562.2031 391.5559 561.3089 388.3145 556.0557 382.0553 557.0616 381.2729 555.9439 379.5964 554.2673 377.5845 553.1496 375.9079 552.9261 374.6784 553.0378 373.3372 553.0378 372.1077 552.3672 371.1018 551.3613 371.1018 550.2436 371.5488 549.4612 371.5488 549.4612 369.8723 547.114 370.99 545.8845 368.1957 545.6609 364.3955 546.108 362.4954 547.5611 362.0483 547.3375 361.0424 546.6669 360.0364 546.7787 359.5893 548.3435 359.0305 548.2317 357.5774 546.4433 354.6714 547.114 354.4479 548.7905 353.4419 548.2317 352.5477 547.8964 349.977 547.0022 349.0828 547.6728 346.7356 548.1199 346.1768 548.6788 345.9532 549.2376 345.5062 549.6847 343.0472 550.1318 341.8177 550.2436 340.4765 549.4612 338.7999 549.1259 338.7999 548.0081 338.9117 547.6728 338.7999 547.5611 338.4646 547.6728 337.3469 547.6728 337.0116 545.1021 335.2232 544.655 334.8879 544.3197 333.882 543.0902 332.5407 542.7549 331.7583 543.0902 330.6406 543.5373 329.7464 543.6491 328.964 542.7549 328.4052 542.7549 328.7405 542.7549 329.2993 542.7549 329.6347 542.196 329.6347 542.3078 328.5169 542.5314 327.3992 542.9784 326.2815 543.4255 325.3873 545.1021 323.1519 545.7727 321.8107 545.7727 320.4694 545.2139 319.7988 544.655 319.5752 543.9844 319.4635 543.4255 319.2399 539.9606 315.9986 539.1782 314.9926 538.5076 313.7631 539.6253 312.9807 540.5195 311.9748 540.9666 310.8571 540.4077 309.5158 539.7371 310.0747 539.29 308.6217 539.4018 305.6039 539.1782 304.0391 538.8429 303.2567 537.7252 302.2507 537.3899 301.5801 537.2781 301.0212 537.3899 299.7917 537.3899 299.1211 537.0546 297.6681 536.0486 295.8798 535.6015 294.8738 535.378 293.309 535.6015 291.856 536.1604 290.6265 536.7193 289.9559 537.2781 289.7323 538.7311 289.397 539.1782 289.2853 540.743 287.7205 540.9666 287.4969 541.0783 287.0498 541.3019 285.5968 541.5254 285.038 542.0843 284.7026 543.3138 284.2556 543.9844 283.9202 544.9903 282.8025 545.3256 281.9084 545.7727 279.0023 546.6669 277.3257 547.7846 276.4316 549.1259 275.7609 550.1318 274.6432 549.4612 273.9726 549.6847 273.5255 550.2436 272.9667 550.6906 272.296 550.6906 266.4839 550.4671 265.1427 549.9083 264.5838 549.1259 264.3603 548.2317 263.6897 547.114 261.4542 548.1199 260.5601 549.7965 259.8894 550.6906 258.4364 551.026 256.4245 552.0319 255.195 553.2614 254.3009 554.1556 253.2949 555.1615 250.3889 555.9439 249.3829 557.5087 249.0476 558.7382 248.4888 559.7441 247.4828 560.6383 246.2534 561.5325 245.3592 562.9855 244.5768 564.662 244.2415 575.3921 244.6886 586.681 247.3711 590.3694 247.8182 597.411 247.8182 598.7523 247.5946 599.87 246.924 601.2112 246.2534 602.9996 246.5887 606.9116 247.9299 617.5298 253.8538 631.5012 257.5422 635.4132 257.9893 637.3133 258.5482 638.0957 259.6659 638.8781 260.3365 640.4429 261.1189 642.2312 261.6778 643.5725 261.7895 647.4845 261.3425 651.5083 259.8894 651.8436 259.7777 652.4024 259.7777 652.9613 260.0012 653.9672 261.0072 683.2513 300.2388 686.2691 302.9213 689.8458 304.2626 693.1989 304.1508 695.9932 303.4802 707.7292 297.7799 718.4592 291.1854 720.5828 290.1794 722.5947 289.6206 724.3831 289.6206 726.0596 290.8501 727.848 293.0855 730.9776 299.3447 732.5424 303.2567 748.1903 330.8641 753.22 337.0116 760.8205 343.4943 769.9857 347.9651 772.2211 349.8652 773.5624 352.7713 773.8977 357.1304 773.6741 360.707 772.8917 364.3955 771.774 367.7486 768.9798 373.5607 768.4209 376.0197 768.6444 378.4787 770.7681 380.4905 772.78 381.8318 782.9512 386.3026 783.1747 386.4144 783.2865 386.4144 783.2865 386.638 782.057 387.8674 781.9452 388.2028 782.1688 389.9911 783.9571 394.7972 784.7395 396.1385 786.3043 397.0327 786.6396 397.8151 786.8631 398.5975 787.1985 399.1563 787.7573 399.4916 790.2163 399.7152 792.1164 400.6094 793.3459 400.7211 793.9047 400.0505 794.3518 399.827 797.1461 399.1563 797.9285 399.2681 800.3875 400.274 803.2935 400.7211 803.9641 400.9447 805.4172 402.1741 805.6407 402.5095 806.7584 403.7389 808.3232 405.192 813.2411 406.4215 814.3589 406.4215 816.4825 404.9684 817.2649 404.6331 820.0592 404.0743 821.0651 403.8507 823.4123 403.7389 824.8653 404.2978 825.6477 404.9684 825.8713 404.9684 827.3243 405.4155 827.6596 405.5273 828.2185 405.8626 829.0009 406.645 830.2304 408.2098 831.1245 408.8804 833.0246 409.4393 838.1661 408.9922 838.725 408.8804 839.7309 409.104 841.0722 410.1099 842.637 410.6688 842.9723 410.8923 843.3076 411.0041 844.2018 411.3394 844.8724 411.5629 845.7666 412.01 846.1019 412.3453 846.8843 413.2395 849.6785 417.1515 854.1494 420.5046 855.0436 420.7282 856.8319 420.9517 857.279 421.0635 857.7261 421.1752 860.4086 422.74 871.2504 433.9172 872.7034 436.2644 872.8152 436.3761 873.2623 438.8351 873.374 439.3939 873.374 440.5117 873.4858 444.6472 873.4858 447.665 873.7094 448.1121 874.2682 448.3356 878.292 451.577 878.7391 452.1359 880.6392 454.5948 882.4275 455.8243 883.9923 455.489 884.9982 455.0419 885.4453 454.7066 886.6748 455.489 887.569 457.0538 888.0161 458.8421 888.0161 461.6364 888.0161 462.5306 888.1278 464.5425 888.9102 465.4366 889.5809 465.6602 890.1397 466.219 890.5868 466.7779 890.9221 467.3367 894.6106 470.0193 894.9459 470.5781 895.393 472.0311 896.0636 472.4782 896.6224 472.7018 896.9578 473.0371 900.5344 473.9312 907.4642 475.6078 909.3644 476.0549 911.2645 477.3961 912.3822 478.1785 915.0647 480.0787 915.8471 481.1964 916.4059 482.5376 916.853 484.1024 916.9648 485.8908 916.7413 486.1143 915.9589 486.6732 915.7353 486.7849 915.8471 487.3438 916.1824 488.238 916.2942 488.5733 916.7413 490.9205 917.1883 492.4853 917.7472 492.9323 917.9707 493.0441 918.1943 493.1559 919.5355 493.3794 923.224 493.3794 925.1241 493.603 926.6889 494.2736 932.7245 498.1856 933.1716 499.1915 933.2834 499.5268 933.6187 500.8681 934.7364 502.0976 935.2953 502.4329 936.1894 506.0096 937.0836 509.5862 939.0955 514.7277 939.7661 519.7574 940.5485 521.5458 944.0134 527.5814 944.5723 529.9286 944.684 535.0701 945.1311 536.8584 948.149 542.3352 949.8255 546.5825 951.2785 548.2591 952.9551 549.8239 954.5199 551.724 955.1905 553.4006 955.9729 558.2067Z" />
  <path class="Lakes" d="M556.8381 548.2591L553.0378 543.5647 543.9844 525.4578 541.0783 521.6575 537.9487 518.6397 536.2722 517.4102 534.8191 516.7396 530.9072 517.1867 513.0238 517.522 511.6825 518.4162 510.6766 520.0927 510.3413 527.805 511.3472 533.3935 512.3531 536.8584 512.3531 540.8822 510.7883 549.6003 509.1118 553.6241 507.6587 556.0831 504.3056 559.2127 498.1582 567.1484 496.3699 570.5015 493.5756 578.7726 492.4579 582.9081 488.0988 585.4789 481.9514 585.5906 443.3903 581.7904 440.3725 581.008 437.3547 579.2197 436.0134 577.4314 434.3369 576.2019 432.5485 575.0842 430.0895 574.0782 427.0717 573.184 424.7245 571.0604 418.3536 562.5658 416.0064 558.7656 410.7531 553.177 406.8411 551.0534 404.4939 548.3708 403.0409 543.7882 401.3644 540.4351 397.8994 535.1818 397.1171 533.0582 396.8935 530.3757 397.4524 527.2461 396.5582 522.1046 395.4405 519.3103 396.8935 516.1807 396.2229 512.7158 397.1171 509.4745 396.5582 505.5625 398.7936 493.7147 405.947 499.3033 412.9886 502.2094 416.0064 502.6564 419.0242 502.6564 422.1538 502.0976 425.0598 501.427 428.0777 500.1975 430.7602 498.5209 432.5485 496.1737 433.5545 494.1618 444.3963 458.6186 445.9611 455.3772 451.6614 446.8826 480.6101 414.8043 492.0108 397.368 505.4233 398.4857 506.9881 398.821 508.4411 399.4916 509.3353 400.7211 537.5017 458.8421 547.7846 462.0835 590.3694 463.0894 590.7047 463.8718 593.0519 467.3367 593.6108 467.7838 594.3932 467.8956 595.1756 468.0074 597.411 468.4545 598.0816 468.7898 604.0055 473.8195 606.9116 475.1607 608.2528 476.0549 609.0352 476.6138 611.2706 477.0608 612.1648 477.6197 612.7237 478.5139 613.059 480.5257 613.3943 481.3081 613.8414 481.6435 615.4062 482.3141 616.0768 482.7612 617.3063 484.2142 617.8651 484.6613 619.6535 485.4437 620.9947 486.4496 623.0066 488.5733 624.3479 491.144 625.242 492.3735 626.3597 492.8206 627.9245 493.3794 628.5952 494.4971 628.9305 496.1737 629.7129 497.7385 632.3954 500.421 632.7307 501.0916 632.8425 501.9858 632.9542 502.7682 633.6249 503.1035 634.6308 503.8859 635.0779 505.6743 635.7485 509.8098 636.1956 511.5981 636.978 512.9394 637.9839 513.7218 639.6605 514.0571 640.89 514.7277 641.4488 516.4043 641.7842 520.0927 642.7901 522.4399 648.3787 529.258 649.1611 530.3757 649.7199 531.7169 650.0552 533.3935 650.5023 536.8584 652.5142 541.441 653.5201 545.4648 654.3025 547.7002 655.3085 548.7062 656.2026 549.1532 657.2086 550.3827 658.1028 551.8358 660.7853 558.7656 661.0088 560.5539 661.3441 561.4481 661.903 562.6776 662.6854 563.6835 663.4678 564.4659 664.0266 564.3541 664.5855 564.0188 665.1443 564.0188 665.7032 565.4718 661.2323 569.3838 657.991 569.0485 652.0671 565.9189 622.2242 560.4421 611.4942 555.7477 595.1756 541.8881 590.7047 541.6646 584.222 545.0177 576.2862 546.5825 556.8381 548.2591Z" />
  <path class="Northern Bahr el Ghazal" d="M316.0829 359.1422L303.5646 362.4954 250.6968 387.5321 240.9727 394.1266 235.4959 397.1444 233.2605 398.0386 231.0251 398.4857 228.5661 398.5975 225.6601 398.1504 222.0834 396.8091 193.1347 377.808 187.8814 373.2254 182.6282 365.625 179.3868 355.5656 177.4867 343.3825 177.2631 330.9759 172.5688 300.9095 172.7923 242.1178 175.8101 211.6043 175.363 204.2274 177.822 205.2333 180.281 207.4688 181.9575 208.9218 183.5223 210.3748 185.1989 211.8278 186.7637 215.8516 187.099 216.9693 188.2167 219.7636 189.7815 225.7992 190.4521 227.1405 191.9052 231.1642 192.7993 233.6232 193.5817 235.4116 193.8053 235.8586 194.0288 236.3057 194.923 238.4294 196.8231 239.7706 198.2761 240.6648 199.3938 241.3354 201.0704 242.5649 202.8587 243.1238 204.3118 243.5708 205.5413 243.9062 206.8825 244.3532 208.3355 244.8003 209.7886 245.2474 211.1298 245.471 213.477 246.0298 215.6007 246.5887 216.6066 246.8122 219.2891 248.6006 221.4128 249.6065 226.5542 249.9418 227.4484 249.9418 230.4662 248.9359 230.578 248.9359 232.031 248.8241 233.3723 248.8241 236.1666 247.3711 237.9549 246.3651 261.4268 238.3176 284.2282 237.7587 288.2519 238.5411 300.8821 238.4294 308.0354 239.3235 308.5943 239.3235 310.3826 238.7647 310.8297 238.7647 322.1186 240.4413 330.8367 239.9942 332.2898 239.6589 333.1839 239.3235 342.1256 258.1011 346.3729 262.9073 381.4691 263.2426 416.677 263.4661 416.7888 263.4661 416.7888 263.5779 417.9065 263.8014 418.5771 263.9132 419.3595 264.1367 419.9184 264.5838 420.3655 264.5838 420.9243 264.5838 421.7067 264.3603 422.3773 264.2485 423.048 264.025 423.7186 264.2485 424.501 264.5838 425.2834 264.6956 426.1776 265.0309 427.7424 265.9251 428.413 266.4839 429.6425 267.7134 430.4249 268.2723 430.4249 268.6076 430.0895 269.2782 428.3012 270.843 426.2893 271.7372 422.1538 273.0784 420.3655 274.8668 419.0242 277.5493 416.7888 287.1616 415.8946 289.6206 377.7806 292.4149 377.5571 292.5266 376.3276 293.0855 375.4334 293.309 374.5393 293.309 368.7272 292.6384 367.833 292.4149 352.8557 291.7442 342.7963 292.7502 338.996 293.6443 336.5371 294.762 334.637 296.1033 332.8486 298.674 331.0603 303.8155 329.9426 317.4516 328.7131 321.2518 326.2541 326.058 323.6834 329.7464 321.7833 333.6584 316.0829 359.1422Z" />
  <path class="Unity" d="M602.1054 225.6875L601.2112 246.2534 599.87 246.924 598.7523 247.5946 597.411 247.8182 590.3694 247.8182 586.681 247.3711 575.3921 244.6886 564.662 244.2415 562.9855 244.5768 561.5325 245.3592 560.6383 246.2534 559.7441 247.4828 558.7382 248.4888 557.5087 249.0476 555.9439 249.3829 555.1615 250.3889 554.1556 253.2949 553.2614 254.3009 552.0319 255.195 551.026 256.4245 550.6906 258.4364 549.7965 259.8894 548.1199 260.5601 547.114 261.4542 548.2317 263.6897 549.1259 264.3603 549.9083 264.5838 550.4671 265.1427 550.6906 266.4839 550.6906 272.296 550.2436 272.9667 549.6847 273.5255 549.4612 273.9726 550.1318 274.6432 549.1259 275.7609 547.7846 276.4316 546.6669 277.3257 545.7727 279.0023 545.3256 281.9084 544.9903 282.8025 543.9844 283.9202 543.3138 284.2556 542.0843 284.7026 541.5254 285.038 541.3019 285.5968 541.0783 287.0498 540.9666 287.4969 540.743 287.7205 539.1782 289.2853 538.7311 289.397 537.2781 289.7323 536.7193 289.9559 536.1604 290.6265 535.6015 291.856 535.378 293.309 535.6015 294.8738 536.0486 295.8798 537.0546 297.6681 537.3899 299.1211 537.3899 299.7917 537.2781 301.0212 537.3899 301.5801 537.7252 302.2507 538.8429 303.2567 539.1782 304.0391 539.4018 305.6039 539.29 308.6217 539.7371 310.0747 540.4077 309.5158 540.9666 310.8571 540.5195 311.9748 539.6253 312.9807 538.5076 313.7631 539.1782 314.9926 539.9606 315.9986 543.4255 319.2399 543.9844 319.4635 544.655 319.5752 545.2139 319.7988 545.7727 320.4694 545.7727 321.8107 545.1021 323.1519 543.4255 325.3873 542.9784 326.2815 542.5314 327.3992 542.3078 328.5169 542.196 329.6347 542.7549 329.6347 542.7549 329.2993 542.7549 328.7405 542.7549 328.4052 543.6491 328.964 543.5373 329.7464 543.0902 330.6406 542.7549 331.7583 543.0902 332.5407 544.3197 333.882 544.655 334.8879 545.1021 335.2232 547.6728 337.0116 547.6728 337.3469 547.5611 338.4646 547.6728 338.7999 548.0081 338.9117 549.1259 338.7999 549.4612 338.7999 550.2436 340.4765 550.1318 341.8177 549.6847 343.0472 549.2376 345.5062 548.6788 345.9532 548.1199 346.1768 547.6728 346.7356 547.0022 349.0828 547.8964 349.977 548.2317 352.5477 548.7905 353.4419 547.114 354.4479 546.4433 354.6714 548.2317 357.5774 548.3435 359.0305 546.7787 359.5893 546.6669 360.0364 547.3375 361.0424 547.5611 362.0483 546.108 362.4954 545.6609 364.3955 545.8845 368.1957 547.114 370.99 549.4612 369.8723 549.4612 371.5488 550.2436 371.5488 551.3613 371.1018 552.3672 371.1018 553.0378 372.1077 553.0378 373.3372 552.9261 374.6784 553.1496 375.9079 554.2673 377.5845 555.9439 379.5964 557.0616 381.2729 556.0557 382.0553 561.3089 388.3145 562.2031 391.5559 563.0972 392.1147 563.209 392.6736 563.209 395.1326 563.8796 395.915 565.1091 396.4738 565.7798 397.1444 564.5503 397.9268 564.5503 398.5975 565.2209 398.5975 566.8975 399.1563 566.4504 399.2681 566.1151 399.4916 565.7798 399.6034 565.1091 399.7152 565.1091 400.274 565.7798 400.9447 565.668 401.6153 564.9974 402.1741 564.5503 402.733 564.1032 403.5154 563.6561 403.8507 563.4326 404.4096 562.6502 408.4333 563.4326 410.1099 562.8737 410.6688 562.2031 411.2276 562.0913 411.8982 562.5384 412.6806 563.9914 413.7983 564.5503 414.3572 564.662 415.1396 564.5503 416.1455 564.662 417.0397 566.5622 417.9339 567.6799 419.1634 568.4623 420.8399 568.6858 422.5165 568.6858 423.6342 568.3505 424.3048 567.6799 424.6402 566.6739 424.7519 566.1151 425.0872 566.6739 425.9814 567.6799 426.8756 568.0152 427.0991 568.3505 427.4344 569.3564 428.3286 569.4682 428.6639 569.2447 429.7816 569.3564 430.1169 570.0271 430.4523 570.8095 430.3405 571.4801 430.564 571.7036 431.6817 572.3743 433.3583 575.0568 436.3761 575.9509 438.1645 576.398 441.7411 576.9569 443.0824 578.4099 444.759 578.9688 447.1062 579.8629 448.8945 580.6453 449.9004 581.2042 451.0182 581.6513 453.8124 582.0983 454.2595 583.2161 455.1537 585.0044 457.6127 589.2517 459.8481 589.9223 460.854 590.1459 462.5306 590.3694 463.0894 547.7846 462.0835 537.5017 458.8421 509.3353 400.7211 508.4411 399.4916 506.9881 398.821 505.4233 398.4857 492.0108 397.368 488.7694 345.5062 487.987 343.7178 486.534 341.8177 461.3855 324.3814 438.8077 289.8441 433.8898 288.1675 415.8946 289.6206 416.7888 287.1616 419.0242 277.5493 420.3655 274.8668 422.1538 273.0784 426.2893 271.7372 428.3012 270.843 430.0895 269.2782 430.4249 268.6076 430.4249 268.2723 429.6425 267.7134 428.413 266.4839 427.7424 265.9251 426.1776 265.0309 425.2834 264.6956 424.501 264.5838 423.7186 264.2485 423.048 264.025 422.3773 264.2485 421.7067 264.3603 420.9243 264.5838 420.3655 264.5838 419.9184 264.5838 419.3595 264.1367 418.5771 263.9132 417.9065 263.8014 416.7888 263.5779 416.7888 263.4661 415.6711 261.3425 415.3358 258.1011 415.4475 254.3009 417.2359 250.9477 422.9362 245.2474 429.5307 240.1059 431.319 238.6529 442.1608 232.8408 452.6673 229.0406 468.3153 225.5757 477.8158 225.4639 477.8158 219.8754 480.3866 217.4164 484.5221 210.8219 484.6339 197.9682 487.3164 195.8446 492.2343 192.9385 515.7063 181.4261 519.73 178.9671 540.4077 192.3796 561.1971 205.6804 584.5573 226.8052 585.8986 227.8111 587.1281 228.2582 588.3575 227.4758 589.3635 226.4699 591.2636 228.0347 591.3754 228.2582 592.1578 227.8111 593.1637 227.6993 594.3932 227.2523 595.7344 226.5816 596.5168 226.0228 597.0757 225.6875 602.1054 225.6875Z" />
  <path class="Upper Nile" d="M783.2865 386.4144L783.1747 386.4144 782.9512 386.3026 772.78 381.8318 770.7681 380.4905 768.6444 378.4787 768.4209 376.0197 768.9798 373.5607 771.774 367.7486 772.8917 364.3955 773.6741 360.707 773.8977 357.1304 773.5624 352.7713 772.2211 349.8652 769.9857 347.9651 760.8205 343.4943 753.22 337.0116 748.1903 330.8641 732.5424 303.2567 730.9776 299.3447 727.848 293.0855 726.0596 290.8501 724.3831 289.6206 722.5947 289.6206 720.5828 290.1794 718.4592 291.1854 707.7292 297.7799 695.9932 303.4802 693.1989 304.1508 689.8458 304.2626 686.2691 302.9213 683.2513 300.2388 653.9672 261.0072 652.9613 260.0012 652.4024 259.7777 651.8436 259.7777 651.5083 259.8894 647.4845 261.3425 643.5725 261.7895 642.2312 261.6778 640.4429 261.1189 638.8781 260.3365 638.0957 259.6659 637.3133 258.5482 635.4132 257.9893 631.5012 257.5422 617.5298 253.8538 606.9116 247.9299 602.9996 246.5887 601.2112 246.2534 602.1054 225.6875 617.418 225.5757 617.6416 225.5757 622.4477 225.5757 624.3479 225.4639 625.9127 225.2404 627.701 225.1286 629.3776 225.0168 630.7188 224.7933 631.9483 224.458 633.4013 223.8991 634.2955 223.5638 635.1897 223.005 636.5309 221.7755 637.5369 220.7695 639.1017 218.9812 640.7782 216.634 642.2312 214.7339 643.9078 212.4985 645.6961 212.3867 645.8079 212.1631 646.8139 210.9337 648.714 208.6982 651.1729 205.4569 651.1729 205.3451 651.2847 205.2333 651.3965 205.1216 652.4024 204.0039 653.5201 202.9979 653.9672 202.8861 655.8673 200.6507 662.0147 192.6032 665.1443 188.6912 668.9446 183.9968 670.3976 182.7673 671.18 181.8732 671.8506 180.4201 672.9683 179.1906 674.7567 177.5141 675.8744 176.6199 677.1039 175.5022 677.7745 174.0492 678.8922 171.8138 679.004 171.702 682.1336 166.6723 684.0337 164.2133 688.7281 159.2954 690.8517 157.8424 696.3285 157.8424 700.1287 160.1895 708.288 161.419 711.6411 159.7425 714.7707 157.6188 714.9943 152.4773 714.5472 150.3537 714.4354 149.6831 714.3237 149.3477 714.3237 149.236 714.3237 149.0124 714.2119 148.7889 714.2119 148.6771 714.2119 148.4536 714.1001 148.3418 714.1001 148.23 714.1001 148.1183 714.1001 148.0065 714.1001 147.8947 713.9883 147.7829 713.7648 146.6652 711.6411 139.2883 714.5472 136.047 721.9241 129.0054 725.9479 124.9816 728.5186 122.5227 730.6422 120.399 731.3129 119.8402 732.207 119.0578 735.1131 115.7046 734.3307 111.6809 734.1072 109.8925 733.3248 107.8806 732.4306 106.4276 732.5424 106.3158 732.9894 104.0804 728.9657 96.3682 728.9657 95.9211 728.9657 94.8034 728.9657 93.9092 729.0774 92.2327 728.5186 91.115 728.4068 88.8795 728.4068 87.6501 728.4068 85.0793 728.4068 83.0674 728.295 79.1554 728.1833 76.0259 728.1833 72.5609 728.1833 70.6608 728.1833 69.9902 728.9657 69.2078 729.1892 62.0545 729.0774 62.278 728.9657 62.3898 729.1892 58.4778 729.0774 55.2364 729.0774 55.0129 729.0774 54.7893 728.9657 54.6776 728.9657 54.2305 728.8539 52.1068 728.5186 51.1009 727.7362 49.6479 727.1773 49.4243 726.3949 48.6419 714.4354 38.0237 706.2761 28.7466 701.9171 23.8287 731.0893 23.7169 760.3734 23.4934 760.4851 21.3697 760.4851 20.252 760.2616 19.1343 759.1439 16.0047 758.4733 11.8692 758.4733 10.7515 758.585 9.522 758.9204 7.3983 758.9204 6.2806 758.9204 5.7218 758.8086 5.1629 758.8086 4.7158 759.0321 4.2688 759.7028 4.3805 801.0581 4.8276 800.4992 12.2045 795.4695 29.6408 795.5813 40.1473 794.3518 51.995 794.0165 53.001 792.8988 55.5717 791.8928 57.0248 790.7751 58.4778 790.4398 58.9249 789.9927 59.819 789.9927 61.1603 794.3518 94.4681 798.7109 127.6641 798.3756 129.3407 798.0403 130.4584 795.6931 134.5939 795.1342 135.9352 795.0224 137.0529 795.9166 137.7235 815.253 144.8769 816.259 145.4358 817.0414 145.9946 823.9712 154.4892 843.084 170.249 858.732 183.2144 862.0851 186.0087 863.4264 187.5735 863.8735 188.6912 867.3384 197.4094 867.7855 198.9741 867.8972 201.3213 867.7855 203.1097 866.8913 209.0336 867.2266 211.7161 867.7855 213.5044 868.3443 215.5163 868.3443 216.1869 868.3443 216.5222 868.3443 216.7458 868.009 217.6399 864.9912 223.7873 863.0911 227.5876 862.3087 229.0406 860.5204 237.1999 859.9615 244.0179 860.2968 247.9299 860.9674 250.5007 861.191 251.0595 861.4145 251.5066 861.7498 251.7301 861.9734 251.8419 876.9507 251.9537 878.0684 274.1961 879.2979 300.0153 880.5274 325.7227 880.1921 327.9581 879.8568 329.97 878.6273 331.9818 876.8389 333.9937 868.1208 341.8177 866.6678 342.7119 866.3325 342.9354 864.6559 343.3825 859.738 343.3825 857.6143 343.7178 856.7201 343.7178 855.2671 344.1649 853.8141 344.7238 852.9199 345.3944 849.2315 348.524 849.2315 348.6358 848.8961 348.6358 847.8902 348.8593 843.8664 348.3004 841.7428 345.8415 840.0662 342.8237 837.2719 340.4765 835.4836 340.2529 834.2541 340.7 832.9129 341.4824 831.2363 341.7059 830.0068 341.1471 828.6656 340.1411 828.442 340.0294 827.1008 339.247 825.3124 339.3587 825.8713 340.0294 825.7595 340.2529 825.536 340.4765 824.9771 340.8118 824.6418 340.8118 824.1947 340.8118 822.9652 341.0353 819.0532 341.4824 817.9355 341.2589 817.1531 341.2589 816.5943 341.5942 815.5883 342.3766 815.3648 342.6001 814.4706 342.8237 805.3054 340.8118 804.9701 340.7 803.4053 340.9235 800.8345 343.159 800.9463 343.4943 801.0581 343.7178 801.1699 344.0531 800.4992 344.612 799.2697 344.9473 797.705 345.9532 797.4814 347.1827 797.4814 348.3004 797.3696 348.7475 796.9226 349.3064 796.9226 349.4182 796.8108 349.7535 797.0343 350.0888 797.8167 350.6476 798.0403 350.9829 797.8167 352.1007 797.0343 353.6655 797.1461 355.5656 797.8167 356.348 798.3756 357.0186 799.0462 357.9128 799.8286 358.4716 801.0581 358.9187 800.9463 360.0364 800.2757 360.4835 799.4933 360.8188 798.7109 361.3777 798.3756 361.8248 798.0403 362.3836 797.5932 363.166 797.4814 364.0602 797.4814 365.4014 797.705 365.8485 798.8227 366.6309 798.9344 366.7427 799.158 367.1898 799.0462 368.6428 798.9344 368.9781 798.7109 369.3134 798.2638 370.2076 797.1461 371.1018 796.2519 371.5488 795.6931 371.7724 795.246 371.8842 793.3459 372.5548 793.1223 372.7783 792.3399 373.6725 792.1164 374.3431 791.5575 375.1255 787.9809 378.814 786.8631 380.1552 786.0807 381.0494 785.5219 381.72 785.2983 382.0553 784.963 382.726 784.6277 384.6261 784.1806 385.1849 783.7336 385.632 783.2865 386.4144Z" />
  <path class="Warrap" d="M398.7936 493.7147L395.2169 473.3724 394.4345 462.4188 395.9993 448.4474 396.2229 434.0289 395.7758 430.564 394.7699 428.3286 391.305 425.6461 390.6343 423.9695 390.9696 422.0694 391.8638 419.834 392.0873 417.4868 390.8579 415.4749 387.9518 413.9101 384.2634 412.5689 373.198 406.4215 365.8211 400.7211 359.4502 396.8091 355.2029 395.0208 341.9021 392.6736 340.1138 392.003 338.8843 390.997 336.7606 389.0969 331.2838 382.1671 319.8832 363.2778 316.0829 359.1422 321.7833 333.6584 323.6834 329.7464 326.2541 326.058 328.7131 321.2518 329.9426 317.4516 331.0603 303.8155 332.8486 298.674 334.637 296.1033 336.5371 294.762 338.996 293.6443 342.7963 292.7502 352.8557 291.7442 367.833 292.4149 368.7272 292.6384 374.5393 293.309 375.4334 293.309 376.3276 293.0855 377.5571 292.5266 377.7806 292.4149 415.8946 289.6206 433.8898 288.1675 438.8077 289.8441 461.3855 324.3814 486.534 341.8177 487.987 343.7178 488.7694 345.5062 492.0108 397.368 480.6101 414.8043 451.6614 446.8826 445.9611 455.3772 444.3963 458.6186 433.5545 494.1618 432.5485 496.1737 430.7602 498.5209 428.0777 500.1975 425.0598 501.427 422.1538 502.0976 419.0242 502.6564 416.0064 502.6564 412.9886 502.2094 405.947 499.3033 398.7936 493.7147Z" />
  <path class="Western Bahr el Ghazal" d="M175.363 204.2274L175.8101 211.6043 172.7923 242.1178 172.5688 300.9095 177.2631 330.9759 177.4867 343.3825 179.3868 355.5656 182.6282 365.625 187.8814 373.2254 193.1347 377.808 222.0834 396.8091 225.6601 398.1504 228.5661 398.5975 231.0251 398.4857 233.2605 398.0386 235.4959 397.1444 240.9727 394.1266 250.6968 387.5321 303.5646 362.4954 316.0829 359.1422 319.8832 363.2778 331.2838 382.1671 336.7606 389.0969 338.8843 390.997 340.1138 392.003 341.9021 392.6736 355.2029 395.0208 359.4502 396.8091 365.8211 400.7211 373.198 406.4215 384.2634 412.5689 387.9518 413.9101 390.8579 415.4749 392.0873 417.4868 391.8638 419.834 390.9696 422.0694 390.6343 423.9695 391.305 425.6461 394.7699 428.3286 395.7758 430.564 396.2229 434.0289 395.9993 448.4474 394.4345 462.4188 395.2169 473.3724 398.7936 493.7147 354.0851 497.515 352.9674 497.4032 351.738 497.0679 350.9556 496.6208 336.7606 486.5614 202.0763 502.6564 199.7292 502.9917 199.6174 501.0916 195.3701 498.6327 190.1168 496.7326 187.099 495.1678 185.646 493.603 182.0693 491.0322 179.3868 487.5673 177.9338 487.0085 176.369 486.5614 174.3571 485.3319 173.4629 484.326 173.1276 483.32 173.0158 482.3141 172.6805 481.1964 172.5688 480.6375 172.7923 480.0787 172.7923 479.6316 172.457 479.2963 171.8981 479.2963 171.3393 479.408 170.7804 479.408 170.3333 479.1845 169.4392 477.1726 169.2156 472.59 168.6568 470.5781 164.633 470.2428 163.6271 470.0193 163.4035 469.4604 163.4035 468.7898 162.8447 468.1191 161.9505 467.7838 160.1622 467.4485 159.268 467.225 156.5855 465.6602 156.1384 464.8778 155.9149 463.2012 155.5795 462.5306 154.1265 461.86 150.1028 461.4129 148.7615 460.9658 147.9791 459.5128 147.9791 458.395 147.532 457.6127 145.2966 457.5009 144.4024 457.2773 142.9494 455.9361 142.0552 455.489 140.3787 455.489 139.708 455.3772 137.4726 453.5889 135.9078 452.9183 130.431 451.577 129.0898 450.7946 125.066 447.1062 123.8365 446.3238 122.3835 446.1002 120.7069 446.6591 118.3597 445.6531 114.8948 442.9706 109.9769 440.5117 108.8592 439.7293 107.8532 438.388 107.4062 437.0468 106.8473 434.5878 106.1767 433.2465 105.6178 432.7994 104.053 432.3524 103.3824 432.0171 102.8235 431.3464 102.0411 430.0052 101.4823 429.3345 100.2528 428.5521 95.1113 425.7579 93.2112 421.3988 92.7641 419.9458 92.8759 418.8281 94.6642 417.0397 100.4763 415.0278 102.4882 413.3513 102.9353 411.7865 102.6 410.4452 102.1529 409.2157 101.8176 407.8745 102.1529 404.0743 102.0411 402.733 101.5941 401.28 100.2528 398.9328 99.3586 396.0267 98.4645 394.6855 97.3468 393.5678 95.1113 392.7854 94.6642 392.3383 94.2172 391.7794 93.5465 391.4441 91.4229 390.997 90.0816 390.997 87.3991 391.6677 86.1696 391.6677 83.4871 390.7735 80.9164 388.6498 76.6691 383.9554 75.8867 383.5084 75.2161 383.0613 74.6572 382.5024 74.0983 381.8318 73.9866 380.1552 72.0865 378.3669 71.9747 375.1255 71.0805 373.7843 63.4801 366.7427 60.6858 365.4014 55.6561 364.8426 52.8618 363.2778 51.0735 363.0542 49.2851 363.0542 44.3672 362.1601 38.2198 363.166 35.4255 363.0542 32.6312 361.3777 31.7371 361.1541 31.1782 360.707 30.6194 360.1482 30.284 359.3658 28.1604 357.3539 25.1426 357.6892 19.4422 359.5893 18.9952 359.3658 17.5421 358.2481 16.8715 357.9128 16.3127 357.801 14.9714 357.801 13.4066 357.5774 12.8477 357.5774 9.8299 356.795 8.4887 356.2362 6.1415 355.0067 3.6825 353.2184 1.7824 350.9829 1 348.4122 1.2235 345.5062 2.3413 342.4883 7.2592 334.1055 8.1534 333.0996 11.73 330.7524 12.2889 329.8582 11.8418 328.8523 9.4946 326.9521 8.824 325.7227 9.1593 324.3814 10.8359 322.0342 11.0594 320.8047 9.3828 319.9106 6.1415 320.0223 5.2473 320.1341 5.5826 319.5752 5.6944 319.5752 5.8062 318.3458 6.365 317.5634 11.3947 313.7631 14.0772 312.4219 23.6895 306.3862 25.7014 305.9392 33.749 305.045 37.9963 303.592 38.5551 303.3684 39.4493 302.0272 39.4493 293.0855 39.4493 292.4149 39.6728 291.9678 40.0081 291.1854 48.0557 277.5493 48.391 276.6551 48.391 276.208 50.1793 259.107 50.7382 257.5422 51.4088 256.5363 53.9795 254.1891 59.3446 248.0417 60.0152 246.0298 60.2387 245.0239 60.0152 221.6637 60.0152 221.2166 60.3505 219.4283 60.6858 218.7576 61.0211 218.4223 61.3564 218.4223 62.1388 218.3106 62.4741 218.1988 63.1448 218.087 63.9272 217.7517 64.5978 217.3046 67.6156 214.8457 70.7452 212.9455 71.8629 211.6043 73.763 209.0336 73.8748 208.81 74.3219 208.3629 75.4396 207.1334 76.222 206.1275 77.0044 204.4509 77.2279 203.5568 77.4515 202.8861 79.7987 198.08 80.6928 195.5092 80.8046 194.9504 80.9164 194.3915 80.8046 193.9444 80.5811 192.9385 79.7987 191.2619 79.6869 190.8149 79.4634 189.8089 79.5751 189.1383 79.7987 188.1323 84.1578 178.6318 85.0519 177.5141 85.7226 176.9552 86.2814 176.7317 86.505 176.6199 87.6227 176.2846 88.9639 175.8375 89.8581 175.614 92.0935 175.8375 93.0994 175.614 95.2231 174.8316 95.782 174.8316 96.7879 174.9433 97.3468 174.8316 98.1292 174.4963 98.7998 174.3845 99.3586 174.2727 100.4763 174.4963 100.9234 174.608 101.8176 175.0551 102.2647 175.1669 102.8235 175.2787 103.3824 175.2787 103.8295 175.1669 104.7237 174.8316 105.1707 174.8316 106.1767 174.9433 106.6238 174.9433 107.0708 174.8316 108.7474 174.0492 109.1945 173.9374 110.2004 173.8256 110.7593 173.8256 111.877 173.7139 112.7712 173.3785 113.5536 173.0432 114.8948 172.5961 115.9008 172.3726 117.0185 172.2608 120.4834 172.4844 121.4893 172.2608 122.607 171.9255 122.9424 171.9255 127.6367 170.249 127.8603 170.1372 128.3074 170.0254 128.978 169.8019 129.0898 169.6901 129.3133 169.6901 129.4251 169.5783 133.2253 168.6842 133.6724 168.5724 136.5784 168.5724 138.4785 168.2371 139.9316 167.79 140.3787 167.79 143.9553 167.9018 144.626 167.79 145.4084 167.5664 147.3085 166.6723 151.2205 165.6663 152.2264 165.5546 152.5617 165.7781 156.3619 170.5843 156.809 171.3667 157.0326 171.702 157.0326 172.2608 157.5914 186.1205 157.815 186.5675 158.0385 187.0146 158.5974 187.5735 159.268 188.1323 161.727 189.5854 162.3976 190.0325 163.7388 190.5913 164.633 190.9266 165.1919 191.0384 166.1978 191.3737 166.4213 191.4855 166.9802 191.9326 167.3155 192.2679 167.7626 192.9385 168.2097 193.6091 168.6568 194.2798 169.3274 195.3975 173.0158 201.6567 174.1336 202.8861 175.363 204.2274Z" />
  <path class="Western Equatoria" d="M199.7292 502.9917L202.0763 502.6564 336.7606 486.5614 350.9556 496.6208 351.738 497.0679 352.9674 497.4032 354.0851 497.515 398.7936 493.7147 396.5582 505.5625 397.1171 509.4745 396.2229 512.7158 396.8935 516.1807 395.4405 519.3103 396.5582 522.1046 397.4524 527.2461 396.8935 530.3757 397.1171 533.0582 397.8994 535.1818 401.3644 540.4351 403.0409 543.7882 404.4939 548.3708 406.8411 551.0534 410.7531 553.177 416.0064 558.7656 418.3536 562.5658 424.7245 571.0604 427.0717 573.184 430.0895 574.0782 432.5485 575.0842 434.3369 576.2019 436.0134 577.4314 437.3547 579.2197 440.3725 581.008 443.3903 581.7904 481.9514 585.5906 488.0988 585.4789 492.4579 582.9081 493.5756 578.7726 496.3699 570.5015 498.1582 567.1484 504.3056 559.2127 507.6587 556.0831 509.1118 553.6241 510.7883 549.6003 512.3531 540.8822 512.3531 536.8584 511.3472 533.3935 510.3413 527.805 510.6766 520.0927 511.6825 518.4162 513.0238 517.522 530.9072 517.1867 534.8191 516.7396 536.2722 517.4102 537.9487 518.6397 541.0783 521.6575 543.9844 525.4578 553.0378 543.5647 556.8381 548.2591 567.4563 558.0949 577.1804 565.4718 580.6453 568.825 582.769 571.6193 585.2279 575.643 587.0163 577.7667 592.046 581.2316 598.5287 587.1554 601.0994 591.6263 603.1113 595.9854 603.4466 599.7856 602.4407 603.027 598.3052 609.1744 596.8521 612.9746 595.8462 617.3337 594.505 643.4881 594.2814 645.2765 593.9461 646.3942 593.3872 647.4001 592.3813 648.2943 590.3694 649.412 578.1864 653.4358 568.127 658.5772 564.1032 661.595 552.479 672.9957 549.3494 674.5605 546.5551 675.0076 544.3197 674.5605 542.0843 673.2193 536.3839 667.966 534.3721 666.6248 532.3602 665.8424 530.1248 665.7306 528.3364 666.1777 525.9892 667.0718 523.9773 668.4131 521.8537 670.425 518.5006 674.0017 504.1938 685.2905 503.8585 685.067 502.9644 684.6199 501.8466 683.7257 500.2818 682.8316 500.0583 682.4963 498.4935 682.2727 497.0405 682.3845 495.0286 682.2727 491.5637 679.2549 489.5518 678.0254 487.7635 676.9077 482.7338 676.5724 481.7278 676.0135 479.4924 676.0135 477.8158 675.79 476.251 675.1194 474.0156 675.2311 472.6744 676.4606 472.1155 676.3488 470.7743 676.5724 469.9919 677.6901 469.7683 680.7079 469.5448 682.2727 469.6565 683.1669 469.433 684.1728 467.7564 685.7376 467.1976 686.6318 466.6387 688.6437 465.9681 690.432 464.8504 692.1086 460.2678 696.0206 459.4854 697.2501 458.5912 699.3737 457.4735 701.0503 456.9146 701.0503 455.6851 700.8267 454.5674 700.6032 453.8968 701.4974 451.8849 701.4974 450.879 702.5033 450.6554 704.1799 449.426 704.5152 447.9729 704.2916 446.4081 702.9504 443.7256 700.2679 442.9432 698.3678 442.7197 697.9207 441.4902 697.6971 440.0372 698.0325 438.8077 698.0325 438.2488 697.6971 438.6959 696.4677 438.6959 696.0206 438.2488 695.5735 437.4664 695.5735 436.5723 695.3499 435.9017 695.0146 435.231 694.6793 434.6722 693.8969 434.1133 693.2263 433.5545 692.5557 432.9956 692.3321 431.319 693.0028 430.7602 693.1145 429.9778 692.6674 429.3072 691.885 423.9421 693.2263 423.3833 693.3381 420.2537 691.9968 418.4653 692.3321 415.5593 692.4439 414.4416 691.7733 414.5534 690.9909 415.224 690.2085 414.8887 689.4261 414.8887 688.7554 414.8887 688.4201 414.7769 687.973 414.218 687.4142 413.771 686.2965 413.3239 685.7376 412.765 685.6259 411.7591 685.2905 410.7531 685.9612 409.6354 686.9671 409.3001 687.4142 408.0706 687.526 407.8471 687.526 406.5058 687.7495 405.7234 688.0848 405.4999 688.5319 404.3822 688.5319 403.5998 688.6437 400.0231 695.6853 398.6818 697.5854 397.3406 698.3678 393.7639 699.2619 392.6462 699.9326 392.3109 700.9385 392.0873 701.9444 391.6403 702.5033 389.9637 702.5033 389.1813 702.7268 388.9578 702.7268 388.1754 702.6151 386.1635 703.0622 384.934 703.9563 381.4691 708.4272 379.9043 709.992 378.7866 710.6626 376.3276 709.2096 374.7628 707.7565 374.204 706.9741 374.204 706.5271 374.204 706.3035 374.0922 705.9682 373.5333 705.8564 373.4216 705.8564 372.1921 705.7447 371.8568 705.9682 371.6332 706.08 371.0744 705.9682 369.1743 704.627 365.374 704.7387 361.5738 705.5211 360.5679 705.4094 360.009 705.074 358.556 703.2857 357.2147 701.6091 356.2088 700.8267 355.3146 698.5913 355.0911 698.0325 354.7558 697.3618 353.8616 696.803 353.191 696.5794 352.5204 696.6912 351.738 697.0265 351.4026 696.6912 349.9496 696.5794 349.1672 697.0265 348.273 696.1323 345.8141 694.4558 345.367 693.5616 345.2552 692.891 345.2552 692.6674 344.8081 689.0908 344.9199 688.5319 344.6964 688.1966 343.8022 687.526 343.6904 687.0789 339.1078 686.52 338.1019 686.6318 337.543 686.52 336.6488 685.5141 336.2018 685.4023 335.4194 685.7376 335.084 686.0729 335.1958 686.1847 335.084 686.4083 335.084 686.8553 334.8605 687.1906 334.3017 687.1906 332.8486 686.6318 332.4015 686.52 329.8308 686.8553 329.6073 686.8553 329.0484 686.52 328.266 685.9612 327.9307 685.9612 326.5894 684.5081 325.6953 683.7257 324.9129 683.5022 323.4598 683.2787 322.901 680.5961 323.0128 680.2608 322.901 679.8138 322.3421 678.9196 321.6715 678.5843 322.3421 677.4666 324.0187 675.2311 324.0187 674.4487 323.9069 673.1075 323.9069 670.0897 323.9069 669.0837 323.2363 667.7425 322.6774 667.1836 321.2244 667.1836 320.7773 667.2954 320.6656 666.9601 319.8832 666.0659 319.1008 665.6188 318.3184 665.7306 316.6418 666.1777 316.53 666.1777 316.53 666.0659 316.53 665.06 316.3065 663.7187 316.0829 663.0481 316.1947 662.601 316.3065 662.2657 315.9712 661.0362 315.1888 659.5832 314.6299 658.8008 313.9593 658.4655 313.8475 658.4655 313.624 658.5772 312.7298 658.5772 312.3945 658.0184 310.8297 657.0124 303.0057 656.1183 301.9998 655.7829 301.6645 655.4476 300.7703 653.2122 299.0937 652.7651 298.8702 651.4239 298.5349 650.6415 297.7525 649.7473 295.07 647.6237 294.9582 647.6237 294.5111 647.4001 293.1699 645.6118 293.2816 644.047 293.7287 643.1528 293.7287 642.7057 293.3934 641.8116 293.2816 641.6998 293.2816 641.1409 292.3875 640.0232 289.8167 638.1231 288.3637 634.6582 285.9047 632.6463 280.875 629.1814 279.0867 626.946 277.6337 624.3752 275.2865 618.7867 274.9512 617.4454 274.5041 613.0864 273.7217 610.8509 273.6099 609.7332 273.7217 608.392 277.2983 598.6679 277.1866 597.8855 277.4101 596.3207 277.0748 595.5383 276.1806 594.9794 275.51 594.9794 275.0629 595.3147 274.7276 595.4265 274.3923 595.5383 273.9452 595.6501 273.4981 595.6501 273.051 594.7559 272.9393 594.197 273.3864 592.8558 273.4981 591.4028 273.7217 590.7321 273.6099 590.285 272.0451 589.2791 271.7098 588.832 271.4862 588.3849 271.4862 587.6025 271.1509 586.1495 270.4803 584.8083 269.3626 583.6905 268.1331 583.0199 266.3448 582.4611 266.0095 581.7904 265.8977 580.8963 265.3388 579.3315 264.4447 578.7726 260.7562 577.4314 259.9738 577.4314 258.409 577.9902 257.5149 577.8784 256.956 577.5431 256.2854 576.2019 254.7206 574.8606 253.7146 572.4017 252.7087 571.3957 248.9085 572.2899 247.0084 572.1781 245.8906 570.7251 245.1083 568.7132 243.9905 568.4897 242.5375 569.0485 240.5256 569.1603 238.402 568.2661 237.7314 566.7013 237.1725 562.6776 236.2783 561.5598 234.7135 560.5539 228.4543 558.0949 222.1952 558.3185 219.4009 557.9832 214.1476 556.1948 212.8064 555.0771 211.9122 553.5123 211.2416 551.6122 210.2356 550.0474 208.6708 549.6003 205.0942 552.0593 203.7529 552.5064 203.4176 550.6063 204.0882 548.9297 205.5413 547.3649 207.3296 546.1354 208.8944 545.2413 210.3474 544.0118 211.2416 542.447 211.1298 540.7704 210.0121 539.3174 208.5591 538.9821 207.3296 539.0938 206.4354 538.535 206.4354 536.4113 206.1001 534.0641 204.7589 533.0582 201.0704 532.2758 199.3938 531.2699 197.2702 528.3638 195.8172 527.0226 194.1406 526.0166 192.7993 525.4578 191.7934 524.5636 191.2345 522.7752 191.4581 521.2105 191.9052 519.5339 191.7934 518.1926 190.1168 517.6338 190.7875 516.6278 191.5699 516.069 192.464 515.5101 193.2464 514.9513 194.923 511.3746 197.7173 507.5744 199.1703 504.8919 199.8409 503.9977 199.7292 502.9917Z" />
</svg>