<?xml version="1.0" encoding="utf-8"?>
<svg xmlns="http://www.w3.org/2000/svg" viewBox="0 0 1005 1024" style="stroke-width:0.25px;stroke-linejoin:round;stroke:#444;fill:#ddd" fill-rule="evenodd">
  <path class="Al-Anbar" d="M248.3971 284.6574L250.5208 284.7692 263.7098 285.9987 280.9226 290.9166 287.7406 292.0343 315.6834 303.6585 329.2077 308.9118 335.8022 309.3589 350.2207 307.4587 352.009 307.9058 355.5857 309.5824 358.7153 310.9237 380.9578 307.9058 381.7402 309.6942 381.8519 336.8546 385.8757 354.8497 405.771 371.1683 410.13 373.6273 413.4832 374.0744 425.6662 367.1446 427.5663 377.7628 428.0134 385.475 428.7958 389.1635 431.4783 392.8519 433.0431 399.4464 434.0491 406.0409 439.4141 419.1182 446.3439 428.3952 462.7743 444.9373 476.7457 457.2321 482.2224 459.244 493.176 461.1441 505.6944 466.1738 514.9714 469.1916 532.0724 468.8563 535.202 469.7505 538.6669 472.9919 540.3435 474.7802 542.2436 478.2451 545.3732 486.2926 547.6086 490.0928 548.6145 491.2106 545.2614 493.8931 549.0616 495.1226 552.5265 497.4697 560.0152 497.9168 563.033 504.7349 563.3683 504.6231 563.4801 505.182 563.4801 505.8526 562.5859 508.1998 559.3446 511.6647 558.1151 514.0119 557.668 516.3591 557.668 518.9298 558.2268 521.5006 559.2328 523.5124 560.4623 524.7419 563.1448 526.4185 564.3743 527.7597 561.2447 532.007 559.4563 533.9072 557.3327 534.466 554.9855 533.7954 548.5028 529.9952 545.932 529.2128 543.473 528.8774 533.749 528.7657 524.8073 526.4185 520.1129 525.7479 516.648 526.1949 517.2068 528.7657 518.5481 530.554 523.5778 531.7835 533.5254 536.8132 536.655 539.9428 539.114 547.2079 540.9023 556.2614 542.1318 559.5028 544.9261 562.7441 549.3969 565.8737 548.2792 577.3861 530.7311 572.0211 518.9952 572.0211 510.3888 573.1388 502.3413 577.0508 483.2284 594.04 480.4341 595.8284 479.3164 596.1637 477.1927 596.3872 464.6744 598.1756 459.8682 600.0757 454.3914 602.87 455.1738 606.5584 457.6328 610.2469 481.6636 634.7248 498.541 647.3549 503.459 651.6022 514.189 661.8851 514.0772 664.2323 513.5184 667.809 511.73 670.0444 509.9417 671.721 500.4411 676.9743 497.8704 679.0979 496.5292 679.8803 494.8526 680.5509 488.3699 681.5569 487.1404 682.004 484.1226 684.0158 483.3402 684.2394 481.2165 684.4629 479.5399 685.2453 477.6398 686.6983 474.7338 689.9397 458.7505 713.5234 457.2975 716.0942 457.1857 720.0062 456.6268 723.3593 455.1738 727.7184 444.332 751.0785 443.3261 753.9846 443.1025 755.9965 443.1025 757.5613 443.2143 758.5672 443.6614 759.4614 443.7732 761.2497 443.3261 763.8205 439.3023 774.4387 438.967 775.8917 438.1846 781.7039 437.514 784.2746 436.8433 785.9512 431.0312 793.9987 427.5663 800.0343 426.7839 801.8227 426.4486 803.0521 425.2191 813.5586 423.8779 817.6942 420.8601 825.0711 414.2656 837.3659 411.5831 843.7369 410.8007 844.9663 408.7888 843.2898 399.1765 834.7952 389.4524 826.4123 379.84 817.9177 371.1219 810.429 362.5155 802.9404 353.9091 795.4517 345.3028 787.963 338.4847 782.1509 329.4312 776.6741 320.4895 771.3091 311.4361 766.0559 302.4944 760.6909 293.5527 755.3259 284.611 749.9608 275.6693 744.7076 266.7276 739.3426 257.7859 733.9776 248.8442 728.6125 239.9025 723.2475 230.8491 717.8825 221.9074 712.5175 212.9657 707.1525 204.024 701.7875 195.0823 696.4224 186.1406 691.0574 175.6341 684.7982 169.9338 681.4451 164.457 679.3215 129.5844 672.5034 121.4251 671.1622 101.1945 667.6972 80.9639 664.2323 60.8451 660.7674 40.6145 657.3025 40.391 657.3025 40.0557 657.4143 39.7204 657.5261 39.4968 657.6378 39.4968 656.7437 51.6799 646.2372 54.3624 642.437 52.2387 634.2777 50.6739 630.5892 48.5503 629.3597 29.2139 634.7248 28.2079 634.0541 27.4255 632.2658 22.5076 614.9413 22.3958 614.7177 22.284 614.4942 22.3958 614.4942 22.5076 614.3824 30.3316 611.9234 23.5135 586.5514 18.7074 568.7798 14.013 551.4552 10.5481 538.6015 6.3008 522.9536 1.4946 505.5173 12.7835 498.6992 24.0724 491.8812 35.3613 485.1749 46.6502 478.3569 57.9391 471.5388 69.2279 464.7208 80.5168 458.0145 91.8057 451.1965 103.0946 444.3784 114.3835 437.5604 125.6724 430.7424 136.9613 423.9243 144.3382 419.4535 148.2502 417.1063 159.5391 410.2882 170.8279 403.3584 182.1168 396.5404 197.0942 387.4869 222.2427 380.7806 225.1487 378.7688 227.4959 375.5274 231.1844 367.3681 248.7325 333.2779 249.6266 330.2601 249.8502 327.0187 248.956 305.2233 248.3971 284.6574Z" />
  <path class="Al-Basrah" d="M796.523 1012.9584L796.523 1012.8466 797.0818 1009.9406 799.3173 986.3569 800.0997 983.3391 801.3292 980.6565 805.1294 974.062 805.4647 971.0442 805.5765 956.0669 806.9177 944.2191 815.1888 899.6224 815.1888 896.2693 814.9652 893.1397 814.2946 890.7925 813.4004 888.5571 803.341 873.9151 802.1116 871.009 801.2174 867.6559 799.5408 856.7023 797.8642 849.3254 831.1721 840.1602 833.0722 840.2719 847.2671 842.8427 850.2849 842.2838 850.9556 838.9307 850.3967 830.3243 850.5085 827.6418 851.1791 824.2887 853.7498 810.7644 855.0911 786.0629 854.1969 776.1153 855.3146 768.8502 857.2147 765.8323 859.3384 764.044 862.8033 762.3674 876.9982 758.679 881.5809 758.3437 896.2229 759.7967 910.3061 763.3734 910.4178 763.3734 909.9707 792.2103 943.5021 792.2103 944.6198 792.881 944.9551 794.4458 944.6198 851.6726 944.7316 855.2493 955.5734 856.8141 956.6911 857.2612 957.8088 857.9318 959.4854 859.7201 960.8266 862.0673 961.7208 864.6381 962.5032 869.8913 963.062 871.009 963.8444 871.9032 964.9622 872.3503 966.1916 872.5738 967.4211 872.462 971.1096 871.9032 972.4508 871.9032 973.6803 872.3503 974.5745 873.1327 976.6981 876.5976 979.9395 880.3978 983.9633 884.0862 984.6339 884.9804 985.081 886.2099 985.3045 887.5512 985.081 888.7806 984.2986 889.7866 983.2926 890.6807 982.5102 891.6867 982.2867 892.9162 982.5102 893.8103 983.7397 896.4928 985.8634 898.84 986.4222 900.0695 986.6458 900.2931 988.5459 906.1052 988.7694 907.67 989.6636 909.9054 990.1107 910.6878 990.7813 911.3584 992.2343 912.4761 993.6873 913.4821 996.9287 914.3762 997.5993 914.7116 997.5993 915.2704 1000.0583 915.2704 1000.5054 916.3881 999.2759 917.8411 996.5934 918.5118 985.4163 917.3941 977.5923 914.7116 974.0156 911.9173 970.4389 910.7996 964.7386 907.2229 960.2678 905.6581 955.5734 904.7639 951.2143 904.7639 947.3023 905.7699 940.2607 909.6818 939.4783 906.5523 939.143 902.9756 938.4724 899.7342 936.7958 897.4988 938.0253 901.299 938.1371 902.752 937.9135 904.3168 937.4664 905.7699 937.3547 906.9993 938.1371 908.0053 938.1371 910.7996 916.0064 899.6224 910.0825 898.5047 883.7045 898.5047 877.8924 899.2871 861.462 906.1052 856.097 909.6818 852.6321 914.7116 843.914 936.954 840.1138 943.9956 839.6667 945.6722 839.2196 949.1371 838.996 950.3666 836.9842 954.7256 829.3837 967.4675 826.3659 975.4033 824.8011 977.7505 818.3184 984.9039 811.8356 995.7457 796.523 1012.9584Z" />
  <path class="Al-Muthannia" d="M517.095 932.0361L518.3245 929.8007 540.7905 890.4572 559.121 837.3659 562.8095 830.1008 566.945 824.624 568.6216 823.0592 573.6513 819.3707 579.7987 816.6882 580.4693 816.2411 585.499 808.4172 589.411 803.7228 594.2172 799.4755 599.0233 790.7573 601.4823 785.057 609.1945 743.031 626.6308 755.8847 634.9019 760.2438 637.0255 747.8372 643.3965 730.2891 646.6378 724.0299 648.2026 719.7826 648.3144 717.9943 646.079 716.8766 645.4084 715.7589 644.9613 714.3058 644.2906 713.2999 643.62 712.8528 641.8317 712.1822 640.8257 711.6233 639.5963 710.3938 642.0552 710.1703 658.4856 706.1465 659.6033 704.3582 666.8684 704.5817 691.7934 709.4997 709.9003 715.4235 714.2594 715.4235 716.4948 714.6411 717.2772 713.747 720.5186 717.4354 721.0774 719.2238 720.9657 719.7826 720.9657 721.4592 721.0774 723.1358 720.9657 723.9182 720.7421 724.5888 720.4068 724.7006 719.9597 724.5888 718.9538 723.8064 718.3949 723.4711 717.8361 723.2475 717.1655 723.6946 716.7184 724.5888 716.0477 727.1595 716.0477 728.2772 716.4948 728.9479 716.9419 729.1714 717.6125 729.2832 718.1714 730.0656 718.7303 731.5186 719.4009 735.0953 719.5127 736.7718 719.1773 738.1131 712.1358 746.943 711.018 749.1784 711.2416 750.855 714.1476 751.3021 719.7362 751.5256 713.9241 765.497 712.6946 769.2972 713.0299 770.6385 714.93 771.4209 715.3771 771.868 716.6066 772.7622 717.389 773.2092 717.9479 773.5446 718.2832 774.6623 718.1714 776.7859 717.6125 780.4744 716.9419 781.7039 715.6007 781.9274 713.5888 781.145 712.024 781.3685 711.2416 782.9333 710.7945 785.9512 710.2356 788.1866 709.7886 791.7633 709.2297 794.334 710.571 810.9879 760.7562 817.4706 777.0748 823.2827 786.4636 838.8189 790.7109 847.5371 791.8286 849.1019 793.1699 850.1078 794.5111 850.1078 797.8642 849.3254 799.5408 856.7023 801.2174 867.6559 802.1116 871.009 803.341 873.9151 813.4004 888.5571 814.2946 890.7925 814.9652 893.1397 815.1888 896.2693 815.1888 899.6224 806.9177 944.2191 805.5765 956.0669 805.4647 971.0442 805.1294 974.062 801.3292 980.6565 800.0997 983.3391 799.3173 986.3569 797.0818 1009.9406 796.523 1012.8466 796.523 1012.9584 793.6169 1016.1998 789.0343 1017.2057 784.6752 1018.0999 782.8869 1018.547 780.2044 1019.1058 775.7336 1020 764.8917 1019.1058 757.1795 1018.3234 749.3556 1017.6528 741.6433 1016.9822 733.8194 1016.1998 723.4246 1015.3056 712.9182 1014.4114 702.4117 1013.4055 692.0169 1012.5113 681.5105 1011.5054 671.004 1010.6112 660.6092 1009.6053 650.1028 1008.7111 641.9435 1007.9287 633.8959 1007.1463 625.7366 1006.4757 617.5773 1005.6933 608.3003 1004.9109 607.6297 1004.5756 606.9591 1004.352 606.2884 1004.1285 605.6178 1003.7932 597.7938 997.534 588.0697 989.5982 578.3457 981.7743 568.6216 973.8385 558.8975 966.0145 547.1615 956.514 535.5373 947.0134 523.8013 937.5129 517.095 932.0361Z" />
  <path class="Al-Qādisiyyah" d="M717.2772 713.747L716.4948 714.6411 714.2594 715.4235 709.9003 715.4235 691.7934 709.4997 666.8684 704.5817 659.6033 704.3582 658.4856 706.1465 642.0552 710.1703 639.5963 710.3938 640.8257 711.6233 641.8317 712.1822 643.62 712.8528 644.2906 713.2999 644.9613 714.3058 645.4084 715.7589 646.079 716.8766 648.3144 717.9943 648.2026 719.7826 646.6378 724.0299 643.3965 730.2891 637.0255 747.8372 634.9019 760.2438 626.6308 755.8847 609.1945 743.031 589.6345 734.8717 587.7344 733.6422 581.0282 725.7065 578.7927 721.6827 579.3516 718.8884 581.587 716.3177 583.8224 715.7589 586.6167 716.8766 588.2933 717.8825 590.3052 715.0882 588.9639 706.0348 588.9639 698.5461 589.411 694.6341 586.0579 677.5331 586.7285 673.8447 587.6227 670.8268 588.4051 669.7091 590.4169 668.815 594.1054 666.356 597.1232 665.2383 597.5703 664.903 597.6821 664.3441 597.0114 663.5617 596.1173 662.7793 595.4466 662.2205 594.9996 661.4381 594.6642 660.6557 594.6642 659.985 594.8878 659.3144 595.8937 658.6438 596.5644 658.532 597.0114 658.532 597.4585 657.9732 597.7938 657.5261 599.3586 652.6081 602.3765 653.6141 608.0768 657.079 609.418 657.5261 610.5358 657.5261 611.5417 657.1908 612.4359 656.7437 613.1065 656.073 615.0066 653.7259 615.6772 653.167 617.242 652.2728 617.6891 651.8257 618.1362 651.1551 618.248 650.2609 618.1362 649.1432 617.242 648.4726 616.9067 647.9138 616.6832 647.3549 617.0185 646.5725 617.5773 645.4548 618.5833 644.4488 619.3657 644.1135 619.9245 644.1135 620.4834 644.6724 621.7129 645.7901 622.2717 646.1254 623.0541 645.6783 625.9602 642.884 630.431 639.4191 637.0255 636.7366 645.8554 630.9245 646.5261 630.2539 647.7556 628.6891 648.985 627.7949 653.5677 625.0007 655.0207 624.4418 655.9149 624.2183 657.3679 624.33 663.2917 625.1124 663.9624 627.0125 666.5331 628.1303 673.6865 629.0244 674.916 630.8128 677.1514 631.4834 677.4867 632.4893 677.2631 633.607 675.9219 636.8484 675.6983 638.525 676.2572 640.4251 677.822 642.2134 687.9932 651.8257 689.7815 654.2847 691.011 656.5201 692.0169 658.0849 693.6935 659.0909 700.0645 661.4381 707.1061 663.5617 707.4414 665.0147 706.7707 665.6854 706.3237 666.2442 706.4354 667.0266 711.2416 678.2037 710.4592 681.1098 710.3474 682.7864 710.4592 685.3571 714.4829 697.8755 717.2772 713.747Z" />
  <path class="An-Najaf" d="M517.095 932.0361L512.0653 928.0123 500.4411 918.5118 488.7052 909.0112 476.9692 899.3989 465.345 889.8983 456.2915 882.5215 447.3498 875.2563 438.2964 867.8794 429.3547 860.5025 418.5129 851.6726 410.8007 844.9663 411.5831 843.7369 414.2656 837.3659 420.8601 825.0711 423.8779 817.6942 425.2191 813.5586 426.4486 803.0521 426.7839 801.8227 427.5663 800.0343 431.0312 793.9987 436.8433 785.9512 437.514 784.2746 438.1846 781.7039 438.967 775.8917 439.3023 774.4387 443.3261 763.8205 443.7732 761.2497 443.6614 759.4614 443.2143 758.5672 443.1025 757.5613 443.1025 755.9965 443.3261 753.9846 444.332 751.0785 455.1738 727.7184 456.6268 723.3593 457.1857 720.0062 457.2975 716.0942 458.7505 713.5234 474.7338 689.9397 477.6398 686.6983 479.5399 685.2453 481.2165 684.4629 483.3402 684.2394 484.1226 684.0158 487.1404 682.004 488.3699 681.5569 494.8526 680.5509 496.5292 679.8803 497.8704 679.0979 500.4411 676.9743 509.9417 671.721 511.73 670.0444 513.5184 667.809 514.0772 664.2323 514.189 661.8851 503.459 651.6022 550.9617 637.8543 560.574 634.9483 563.1448 634.613 564.3743 635.6189 565.2684 636.1778 565.7155 635.5072 566.2744 634.1659 566.3861 633.4953 567.6156 630.3657 569.0686 636.1778 569.7393 637.4073 570.4099 637.9661 569.9628 640.0898 567.5039 641.431 566.7215 642.6605 566.945 644.0018 567.7274 646.2372 569.6275 649.3668 570.2981 650.1492 571.0805 651.2669 571.6394 652.2728 573.2042 654.3965 576.7809 650.9316 578.9045 649.4785 579.3516 649.4785 580.2458 649.3668 581.0282 649.3668 586.0579 645.7901 588.8521 647.2431 591.0876 649.255 594.1054 650.9316 599.3586 652.6081 597.7938 657.5261 597.4585 657.9732 597.0114 658.532 596.5644 658.532 595.8937 658.6438 594.8878 659.3144 594.6642 659.985 594.6642 660.6557 594.9996 661.4381 595.4466 662.2205 596.1173 662.7793 597.0114 663.5617 597.6821 664.3441 597.5703 664.903 597.1232 665.2383 594.1054 666.356 590.4169 668.815 588.4051 669.7091 587.6227 670.8268 586.7285 673.8447 586.0579 677.5331 589.411 694.6341 588.9639 698.5461 588.9639 706.0348 590.3052 715.0882 588.2933 717.8825 586.6167 716.8766 583.8224 715.7589 581.587 716.3177 579.3516 718.8884 578.7927 721.6827 581.0282 725.7065 587.7344 733.6422 589.6345 734.8717 609.1945 743.031 601.4823 785.057 599.0233 790.7573 594.2172 799.4755 589.411 803.7228 585.499 808.4172 580.4693 816.2411 579.7987 816.6882 573.6513 819.3707 568.6216 823.0592 566.945 824.624 562.8095 830.1008 559.121 837.3659 540.7905 890.4572 518.3245 929.8007 517.095 932.0361Z" />
  <path class="Arbil" d="M542.02 11.9358L544.0319 12.1593 553.8678 16.2948 556.1032 17.8596 557.7798 19.5362 559.0092 21.7716 559.9034 24.6777 560.3505 27.4719 560.4623 29.1485 560.3505 30.378 559.5681 31.831 558.5622 32.2781 557.3327 32.5017 555.9914 33.284 554.3149 35.5195 553.4207 38.0902 553.4207 40.8845 554.2031 43.4552 558.2268 52.844 558.8975 54.1853 559.7916 54.9677 564.0389 55.9736 565.3802 55.8618 566.2744 54.9677 567.2803 52.844 568.8451 50.0497 569.1804 48.0378 570.0746 46.6966 578.681 43.7905 581.3635 42.3375 583.9342 40.3256 586.3932 37.196 590.0816 33.7311 593.9936 30.8251 597.3468 29.2603 599.2469 29.1485 609.9769 30.7133 611.9888 31.7193 613.2183 33.9547 611.877 37.6431 611.877 38.8726 612.6594 41.108 613.2183 42.0022 614.0007 42.3375 614.7831 42.5611 615.4537 43.1199 615.9008 43.9023 616.4596 45.9142 616.9067 46.473 617.8009 46.6966 619.8128 46.1377 620.8187 46.026 621.4893 46.473 622.7188 47.7025 624.9542 48.932 625.6249 50.0497 625.4013 51.391 624.2836 52.844 623.7248 56.1971 624.2836 58.5443 625.2895 60.5562 625.7366 63.4623 625.1778 66.4801 623.8365 68.8273 620.1481 73.2981 619.0304 76.4277 619.9245 78.6631 621.9364 80.0044 624.6189 80.5633 627.7485 80.4515 629.2015 80.675 630.5428 81.7927 631.437 82.9105 632.4429 83.6928 633.6724 84.0282 635.0136 84.1399 636.6902 85.0341 638.255 87.046 640.714 91.6286 641.8317 94.4229 641.6081 96.7701 639.5963 101.3527 638.5903 105.7118 638.4785 108.3943 638.1432 108.6178 636.9138 109.1767 636.4667 109.512 636.2431 111.5239 637.6961 113.424 638.0315 113.7593 637.6961 114.9888 637.1373 116.2183 635.6843 118.3419 634.5666 119.1243 633.1135 119.6832 629.5369 119.4596 625.1778 118.3419 623.1659 118.3419 620.9305 118.9008 615.5655 121.5833 611.0946 122.701 606.512 123.4834 603.4942 122.5892 601.8176 122.3657 599.6939 123.0363 596.5644 125.4953 594.6642 127.7307 593.5465 129.4073 590.0816 132.4251 590.0816 135.1076 590.6405 136.5606 596.5644 145.6141 597.5703 144.3846 598.2409 143.9375 599.2469 143.9375 600.2528 144.8317 605.3943 151.0909 605.9531 151.985 606.2884 153.1028 605.2825 154.1087 602.9353 155.2264 602.1529 155.897 601.5941 156.903 601.0352 157.6854 600.2528 158.5795 598.0174 160.2561 598.4645 161.9327 599.0233 163.0504 609.3063 170.4273 611.6535 171.4332 612.8829 172.2156 613.7771 172.998 621.2658 182.0515 624.5072 185.0693 627.0779 186.8576 634.0077 190.3226 634.6783 191.105 634.7901 191.552 634.7901 191.8873 634.7901 192.1109 634.5666 192.4462 634.343 193.2286 634.2312 193.5639 633.5606 194.011 632.7782 194.3463 631.7723 194.4581 629.4251 194.4581 628.4191 194.1228 627.8603 193.7875 627.6367 193.5639 627.4132 193.3404 627.1897 193.2286 626.7426 192.6697 626.4073 192.4462 625.9602 192.4462 624.8425 192.558 624.5072 192.4462 623.8365 192.2227 623.5012 192.2227 622.7188 192.3344 622.3835 192.558 622.2717 192.8933 623.3894 194.9052 623.5012 195.2405 622.9424 196.0229 621.3776 196.5817 620.3716 197.5877 620.1481 197.6994 619.8128 197.4759 619.5892 196.8053 619.5892 194.9052 619.3657 194.5699 619.0304 194.3463 618.695 194.2345 618.3597 194.2345 617.9127 194.5699 617.5773 195.0169 617.4656 195.3523 617.3538 196.2464 617.242 196.6935 616.9067 196.9171 616.4596 196.9171 615.6772 196.2464 615.2301 195.6876 614.7831 195.1287 614.336 195.0169 613.7771 194.9052 612.8829 195.2405 612.3241 195.5758 611.7652 195.7993 611.2064 195.7993 610.6475 195.2405 610.0887 194.4581 609.5298 194.2345 608.7474 194.2345 606.2884 195.0169 605.7296 195.1287 605.1707 195.0169 604.8354 194.4581 604.8354 194.1228 604.8354 193.7875 604.8354 193.4521 604.6119 193.2286 604.2766 193.0051 603.9413 193.0051 602.7118 193.6757 602.3765 193.6757 601.9294 193.3404 601.7058 192.8933 601.2587 192.6697 600.9234 192.6697 599.0233 193.4521 598.4645 192.4462 598.4645 191.2167 598.1292 190.7696 597.7938 190.6579 596.6761 191.2167 596.229 191.552 595.8937 191.9991 595.5584 193.0051 595.2231 193.5639 594.3289 194.2345 593.7701 194.9052 593.323 195.464 592.7641 196.0229 592.4288 195.9111 591.3111 195.2405 590.864 195.3523 590.5287 195.6876 590.4169 196.0229 590.5287 196.47 590.6405 196.9171 590.7523 197.2524 590.5287 197.923 590.1934 197.923 589.7463 197.6994 589.1875 196.6935 588.7404 196.2464 587.958 196.0229 587.3991 196.2464 586.505 196.6935 586.0579 196.8053 585.7226 196.5817 585.3872 196.2464 583.1518 195.5758 581.0282 196.8053 580.134 196.8053 578.7927 196.5817 578.1221 196.6935 577.5633 197.1406 577.1162 197.5877 576.5573 197.923 574.6572 198.7054 574.3219 198.9289 573.763 200.0466 573.4277 200.1584 573.0924 200.0466 572.6453 199.8231 571.0805 199.5996 570.4099 199.376 569.1804 198.7054 568.8451 198.7054 568.2862 199.5996 567.7274 200.0466 566.2744 200.829 565.2684 201.1644 564.3743 201.1644 563.8154 201.0526 561.9153 200.0466 559.6799 199.5996 554.0913 198.5936 552.303 198.9289 549.9558 199.8231 548.5028 203.8469 547.6086 205.6352 546.7144 206.3058 544.479 206.6411 540.6788 206.8647 529.9487 199.0407 527.6015 198.2583 526.0367 198.4818 525.0308 201.2761 517.6539 209.3237 511.3947 214.5769 510.7241 215.6946 510.8359 216.477 511.5065 217.0359 513.7419 219.6066 514.3008 220.7243 514.7479 221.9538 514.7479 223.295 513.8537 224.4128 512.5124 225.6422 510.9476 227.6541 510.277 229.1072 509.7182 232.2367 508.6004 235.9252 507.5945 237.2664 506.5886 237.7135 504.3531 237.9371 501 239.949 497.6469 240.2843 495.4114 240.1725 493.9584 240.8431 492.9525 242.1844 491.8348 245.7611 490.9406 247.3259 489.264 248.22 487.2521 248.5553 482.8931 248.7789 481.3283 249.226 479.3164 251.0143 478.3105 251.2378 477.1927 251.2378 475.0691 250.679 474.0631 250.1201 469.4805 247.2141 470.2629 246.9905 470.5982 246.8788 470.8218 246.5435 470.9336 245.8728 471.0453 244.308 471.4924 242.6315 471.6042 241.8491 471.6042 240.6196 471.1571 230.8955 470.8218 228.9954 470.0394 227.5424 469.3688 226.8717 468.9217 226.5364 468.3628 226.4246 467.9157 226.2011 467.6922 225.8658 467.5804 225.4187 467.804 224.6363 468.0275 223.6304 467.5804 222.0656 467.1333 220.8361 466.5745 220.0537 466.1274 219.4948 465.9039 219.1595 465.7921 218.7124 466.1274 217.93 466.3509 217.3712 467.0216 213.9063 465.345 209.9943 465.2332 209.2119 465.1215 208.2059 465.5685 206.7529 467.804 201.6114 468.251 200.829 468.9217 200.4937 469.5923 200.4937 470.3747 200.2702 471.1571 199.4878 472.2748 197.0288 473.169 188.3107 473.169 185.9635 472.8337 185.0693 471.4924 184.9575 469.8158 184.734 468.6981 183.6163 468.1393 180.4867 468.9217 179.1454 482.2224 173.6686 483.3402 172.5509 484.6814 170.4273 485.0167 169.7567 485.1285 169.1978 485.0167 166.6271 485.0167 165.8447 485.2403 164.727 487.4757 160.7032 487.6992 159.809 487.9228 158.9149 488.4816 157.7971 488.8169 157.4618 489.7111 157.3501 491.6112 155.7853 492.8407 153.3263 493.3996 151.8733 493.9584 151.0909 497.088 148.073 498.0939 146.8436 499.2117 144.8317 500.1058 143.714 500.8882 142.9316 503.1237 141.9256 504.5767 140.2491 505.4708 139.802 507.2592 138.5725 508.9358 137.1195 513.1831 131.978 514.9714 128.9602 515.7538 126.3894 515.642 124.6011 515.4185 123.3716 514.9714 122.2539 515.0832 121.8068 515.3067 121.4715 515.7538 121.3597 516.8715 121.5833 517.5421 121.5833 518.3245 121.3597 519.1069 120.9127 520.1129 120.1303 520.4482 119.5714 520.56 118.9008 520.56 118.3419 520.56 117.8948 520.3364 117.4477 520.1129 117.0007 519.8893 116.4418 519.8893 115.2123 520.1129 114.6535 520.56 114.4299 523.1307 114.7652 523.8013 114.6535 524.6955 114.3182 525.1426 113.6475 525.3661 112.8651 525.2543 111.3003 525.3661 110.4062 525.7014 110.0708 525.925 109.9591 526.2603 110.2944 526.5956 110.6297 526.9309 111.0768 527.378 111.1886 528.0486 110.965 529.5017 109.9591 530.1723 108.9531 531.1782 108.1707 531.6253 107.5001 531.8488 107.053 532.2959 105.9353 534.8667 103.0293 535.7608 102.2469 536.3197 102.0233 536.5432 102.2469 536.8785 102.3586 537.3256 102.2469 537.4374 102.0233 537.1021 101.3527 536.9903 100.9056 536.9903 100.235 537.2139 100.0114 537.4374 100.1232 537.6609 100.4585 537.7727 100.9056 537.8845 101.2409 538.2198 101.5762 538.6669 101.7998 539.114 101.9116 539.5611 101.7998 540.1199 101.688 540.6788 101.5762 541.1259 101.5762 541.3494 101.688 541.3494 102.0233 541.2376 102.4704 541.0141 102.9175 540.9023 103.3646 541.0141 103.9234 541.3494 104.2587 542.02 104.4823 542.3553 104.2587 542.4671 103.8117 542.5789 103.3646 542.6906 102.6939 542.9142 102.3586 543.3613 102.2469 543.6966 102.2469 544.0319 102.2469 545.1496 101.7998 545.5967 101.5762 546.1556 101.5762 546.7144 101.7998 547.1615 102.0233 547.2733 102.2469 547.2733 102.5822 547.385 102.9175 547.7204 103.141 548.8381 102.9175 550.1793 101.7998 551.8559 100.6821 554.6502 98.2231 555.4326 97.6642 557.2209 97.1054 558.7857 94.5347 561.6917 91.9639 565.3802 87.046 565.8273 85.9283 565.9391 85.3694 565.8273 84.8106 565.6037 84.4752 565.3802 84.2517 565.1567 84.2517 564.9331 84.3635 564.7096 84.587 564.486 84.6988 564.1507 84.587 563.5919 83.134 563.2565 82.1281 562.1388 81.1221 562.1388 80.4515 562.0271 79.4455 561.8035 78.8867 561.2447 78.3278 560.3505 77.8807 558.6739 76.4277 549.0616 72.2922 548.2792 71.7333 547.8321 71.1745 547.4968 70.5039 547.0497 70.1685 546.7144 70.0568 543.5848 69.7215 542.6906 69.4979 542.2436 69.6097 541.7965 69.7215 541.0141 69.8332 540.567 69.4979 539.7846 68.1567 539.6728 67.8213 539.7846 67.486 539.8964 66.9272 539.8964 66.3683 539.2257 65.3624 538.7787 65.0271 538.3316 64.9153 537.9963 64.9153 536.3197 65.0271 536.0961 64.8035 536.0961 64.58 536.3197 64.3564 536.7668 64.2447 536.9903 64.0211 537.1021 63.6858 536.655 62.9034 536.3197 62.2328 536.2079 61.6739 535.6491 60.8915 535.0902 60.3327 533.749 59.662 532.2959 58.5443 530.284 57.3149 528.0486 55.0794 527.4898 54.6323 526.9309 54.5206 526.2603 54.6323 523.9131 54.0735 517.4304 50.6086 519.4422 48.2614 520.8953 47.5908 521.6777 47.3672 522.2365 46.9201 522.5718 46.2495 523.0189 44.9083 523.3542 44.1259 524.0249 43.567 525.8132 42.5611 529.6134 40.9963 530.0605 40.7727 530.0605 40.4374 529.837 40.2139 529.7252 39.7668 530.1723 39.5432 530.9547 39.2079 532.8548 38.3138 533.6372 37.7549 534.196 37.196 534.6431 36.5254 536.2079 34.4018 536.7668 33.8429 538.8904 32.7252 540.1199 32.1663 540.6788 31.831 540.9023 31.3839 540.4552 30.4898 540.4552 30.0427 540.7905 29.2603 542.02 27.6955 542.8024 26.9131 543.9201 26.0189 545.0378 25.4601 545.1496 25.1248 545.1496 24.6777 544.9261 23.2246 544.7025 23.0011 544.479 22.8893 543.9201 22.8893 543.473 22.7776 543.2495 22.554 543.026 22.2187 542.9142 21.4363 542.8024 20.6539 542.8024 20.2068 542.8024 19.648 543.1377 18.8656 544.0319 16.9655 544.0319 16.5184 543.9201 16.1831 543.5848 16.0713 543.3613 15.8477 543.1377 15.736 542.9142 15.6242 542.8024 15.5124 542.6906 15.2889 542.4671 14.73 542.2436 14.5065 541.9083 14.3947 541.5729 13.7241 542.02 11.9358Z" />
  <path class="As-Sulaymaniyah" d="M638.0315 113.7593L639.708 115.1006 641.0493 116.5536 641.0493 118.3419 641.7199 119.3479 642.6141 120.242 643.3965 121.4715 643.9553 123.1481 644.0671 124.3776 644.5142 125.4953 645.6319 126.8365 648.4262 128.1778 651.444 127.9542 657.1443 125.607 659.7151 125.8306 661.5034 128.066 662.6211 131.3074 663.0682 134.2134 663.2917 139.6902 664.0741 141.9256 665.9743 144.3846 663.5153 145.9494 664.0741 147.5142 665.9743 148.9672 667.4273 150.4202 667.9861 152.8792 667.6508 158.6913 668.2097 161.3738 671.3393 165.5094 672.6805 168.0801 672.2334 170.5391 671.004 172.5509 669.7745 175.1217 669.1039 177.8042 669.7745 179.8161 669.8862 179.8161 671.6746 181.7162 673.7982 182.0515 676.0337 181.2691 678.1573 179.8161 679.9457 179.2572 683.4106 177.5806 686.0931 177.5806 688.3285 178.363 692.2405 179.8161 696.0407 183.3927 697.382 184.1751 700.0645 184.734 703.1941 187.5283 707.8884 194.2345 710.4592 200.7173 711.6887 202.3938 713.5888 202.9527 717.389 201.7232 718.6185 201.9468 720.1833 203.0645 722.3069 202.9527 724.3188 201.9468 726.7778 199.8231 727.7837 199.9349 728.9014 200.2702 729.9074 200.382 733.2605 199.2642 739.7432 199.4878 741.7551 198.8172 743.767 197.6994 745.3318 197.0288 747.0084 197.1406 750.2497 198.3701 750.9204 198.4818 751.4792 198.9289 751.9263 201.4997 752.3734 202.2821 753.044 203.0645 753.8264 203.7351 755.9501 204.6293 758.0737 204.5175 762.4328 203.6233 764.3329 202.8409 766.1212 201.6114 767.9096 200.7173 770.145 200.9408 771.8216 202.1703 772.604 203.8469 772.3804 205.8587 771.1509 207.8706 769.5861 209.3237 766.4565 211.3355 765.1153 213.3474 763.4387 214.9122 761.3151 215.1358 757.4031 214.9122 752.2616 217.7065 750.138 218.1536 742.9846 217.93 740.8609 218.7124 739.6315 220.0537 738.7373 222.0656 738.402 224.301 738.402 226.4246 739.4079 231.2308 739.0726 232.9074 736.0548 232.0132 735.4959 232.0132 735.0488 232.125 735.943 234.6957 737.0607 237.0429 737.5078 237.6018 737.6196 238.0488 737.5078 238.6077 737.0607 239.0548 736.2783 239.7254 735.7195 240.5078 735.4959 241.5138 735.4959 242.7432 736.8372 246.3199 743.4317 256.8264 749.0202 261.8561 751.4792 264.7622 752.2616 268.4506 752.0381 268.8977 751.4792 270.1272 750.2497 271.692 749.2438 273.2568 749.5791 275.2686 751.0321 276.2746 754.9441 276.1628 756.5089 277.5041 756.0618 280.7454 753.9382 284.5457 752.4851 288.1223 754.6088 290.5813 753.8264 292.0343 752.7087 292.705 751.4792 292.9285 748.9085 293.8227 747.0084 293.2638 746.0024 293.3756 743.2081 295.0521 741.7551 296.5052 740.1903 296.9523 737.0607 295.611 735.7195 295.7228 734.7135 295.2757 732.5899 293.8227 731.0251 293.2638 730.3545 293.5991 728.9014 295.9463 728.7897 296.5052 729.125 298.07 728.9014 298.6288 728.3426 298.9641 726.8895 299.0759 726.2189 299.2994 725.1012 300.4172 724.6541 301.8702 724.5424 303.5468 724.8777 305.2233 725.7718 308.4647 725.5483 310.8119 724.6541 313.0473 723.8717 316.0651 722.3069 318.1888 719.6244 317.1828 718.3949 316.624 717.7243 315.171 716.7184 303.7703 716.9419 302.8761 717.1655 302.6526 717.389 302.7644 718.1714 302.6526 718.6185 302.7644 719.0656 302.8761 719.5127 302.9879 719.9597 302.9879 720.4068 302.8761 720.8539 302.6526 721.1892 302.5408 720.0715 300.7525 713.0299 293.2638 712.4711 292.3696 712.024 291.9226 711.2416 291.1402 710.571 290.8048 709.9003 290.8048 709.3415 291.1402 708.4473 292.1461 708.2238 292.8167 708.2238 293.5991 707.7767 294.2697 707.2178 295.0521 706.1001 296.3934 705.653 297.1758 705.2059 298.1817 704.8706 298.6288 704.0882 299.0759 703.8647 299.1877 703.5294 299.523 703.3058 299.6348 703.0823 299.523 703.0823 299.2994 703.0823 298.9641 702.9705 298.6288 702.747 298.4053 702.4117 298.5171 702.0763 298.9641 701.4057 300.0818 701.1822 300.7525 701.2939 301.7584 701.5175 302.0937 701.741 302.0937 702.0763 301.982 702.2999 301.8702 702.5234 302.0937 702.4117 302.5408 701.9646 303.435 701.0704 303.9938 700.6233 304.5527 700.288 306.2293 699.2821 307.1234 699.5056 307.9058 699.8409 308.0176 700.8469 308.1294 701.1822 308.1294 701.5175 308.3529 701.6293 308.5765 701.6293 308.8 701.6293 309.1353 701.6293 309.4706 701.4057 310.253 700.8469 311.3707 698.4997 315.171 697.7173 316.2887 695.0348 318.7476 694.6994 318.7476 694.3641 318.6359 694.0288 318.7476 693.8053 318.9712 693.6935 319.6418 693.5817 320.2007 693.1347 320.9831 692.1287 322.1008 691.3463 324.0009 691.011 325.4539 690.1168 327.8011 690.0051 328.2482 689.7815 328.6953 689.1109 328.9188 688.6638 329.3659 688.2167 330.0365 686.8755 333.5014 685.7578 335.5133 685.3107 336.4075 685.0871 337.0781 685.0871 337.5252 684.9754 337.9723 684.9754 338.4194 684.9754 338.8664 685.0871 339.2018 685.1989 339.5371 685.0871 339.8724 684.8636 340.7666 684.64 341.4372 683.4106 343.4491 683.0752 344.5668 683.0752 345.0139 682.9635 345.2374 682.5164 345.908 681.734 346.5787 679.8339 347.5846 678.8279 348.0317 677.9338 348.2552 677.2631 348.2552 676.2572 348.4788 675.9219 348.4788 675.1395 348.4788 673.7982 349.5965 662.6211 363.009 659.268 365.0209 659.0444 363.1208 658.8209 362.5619 658.5974 362.1149 658.1503 362.1149 657.815 362.1149 657.4796 362.0031 656.6972 361.7795 656.3619 361.556 656.1384 360.9971 656.1384 360.4383 656.809 359.097 657.1443 358.3146 657.2561 357.5322 657.3679 356.8616 657.2561 356.3028 656.5855 354.4026 656.4737 353.6202 656.4737 352.9496 656.5855 352.3908 656.9208 351.8319 658.262 350.2671 658.7091 349.5965 658.9327 349.0376 658.9327 348.5905 657.815 345.3492 657.1443 342.5549 657.1443 341.6607 657.0326 341.1019 657.1443 340.543 657.1443 339.7606 656.6972 336.9663 656.3619 332.6073 656.0266 331.3778 655.2442 330.1483 654.4618 329.1424 653.0088 327.9129 652.0029 327.354 650.7734 327.0187 648.538 326.6834 647.4202 326.7952 646.5261 327.1305 644.0671 328.4717 643.5083 328.6953 642.8376 328.5835 642.167 328.0246 641.1611 326.6834 639.0374 324.5597 633.6724 320.9831 633.3371 312.1531 633.6724 310.4766 633.7842 309.9177 633.6724 309.4706 633.4488 308.9118 632.2194 307.347 623.3894 301.1996 619.5892 300.5289 608.4121 300.0818 606.6238 300.6407 604.3883 300.0818 602.7118 299.2994 592.4288 288.3459 596.8997 284.5457 604.8354 282.0867 605.9531 280.969 606.2884 279.963 605.5061 278.1747 605.3943 277.2805 605.3943 276.2746 605.8414 275.0451 606.8473 273.4803 608.0768 272.6979 609.0827 272.1391 609.8651 271.9155 610.2004 271.3567 610.424 270.5743 610.7593 268.8977 611.877 266.2152 612.3241 264.3151 611.877 262.415 611.2064 260.2913 610.9828 258.503 611.7652 256.044 615.4537 251.0143 616.4596 248.8906 617.0185 247.1023 616.9067 245.6493 615.0066 242.9668 612.7712 240.5078 612.1006 239.2783 611.877 238.0488 612.2123 234.3604 612.5476 229.8895 612.8829 228.4365 613.1065 225.1952 613.5536 223.8539 615.3419 220.8361 615.2301 218.7124 614.336 216.1417 609.6416 212.0062 607.2944 208.7648 604.7237 205.9705 599.0233 193.4521 600.9234 192.6697 601.2587 192.6697 601.7058 192.8933 601.9294 193.3404 602.3765 193.6757 602.7118 193.6757 603.9413 193.0051 604.2766 193.0051 604.6119 193.2286 604.8354 193.4521 604.8354 193.7875 604.8354 194.1228 604.8354 194.4581 605.1707 195.0169 605.7296 195.1287 606.2884 195.0169 608.7474 194.2345 609.5298 194.2345 610.0887 194.4581 610.6475 195.2405 611.2064 195.7993 611.7652 195.7993 612.3241 195.5758 612.8829 195.2405 613.7771 194.9052 614.336 195.0169 614.7831 195.1287 615.2301 195.6876 615.6772 196.2464 616.4596 196.9171 616.9067 196.9171 617.242 196.6935 617.3538 196.2464 617.4656 195.3523 617.5773 195.0169 617.9127 194.5699 618.3597 194.2345 618.695 194.2345 619.0304 194.3463 619.3657 194.5699 619.5892 194.9052 619.5892 196.8053 619.8128 197.4759 620.1481 197.6994 620.3716 197.5877 621.3776 196.5817 622.9424 196.0229 623.5012 195.2405 623.3894 194.9052 622.2717 192.8933 622.3835 192.558 622.7188 192.3344 623.5012 192.2227 623.8365 192.2227 624.5072 192.4462 624.8425 192.558 625.9602 192.4462 626.4073 192.4462 626.7426 192.6697 627.1897 193.2286 627.4132 193.3404 627.6367 193.5639 627.8603 193.7875 628.4191 194.1228 629.4251 194.4581 631.7723 194.4581 632.7782 194.3463 633.5606 194.011 634.2312 193.5639 634.343 193.2286 634.5666 192.4462 634.7901 192.1109 634.7901 191.8873 634.7901 191.552 634.6783 191.105 634.0077 190.3226 627.0779 186.8576 624.5072 185.0693 621.2658 182.0515 613.7771 172.998 612.8829 172.2156 611.6535 171.4332 609.3063 170.4273 599.0233 163.0504 598.4645 161.9327 598.0174 160.2561 600.2528 158.5795 601.0352 157.6854 601.5941 156.903 602.1529 155.897 602.9353 155.2264 605.2825 154.1087 606.2884 153.1028 605.9531 151.985 605.3943 151.0909 600.2528 144.8317 599.2469 143.9375 598.2409 143.9375 597.5703 144.3846 596.5644 145.6141 590.6405 136.5606 590.0816 135.1076 590.0816 132.4251 593.5465 129.4073 594.6642 127.7307 596.5644 125.4953 599.6939 123.0363 601.8176 122.3657 603.4942 122.5892 606.512 123.4834 611.0946 122.701 615.5655 121.5833 620.9305 118.9008 623.1659 118.3419 625.1778 118.3419 629.5369 119.4596 633.1135 119.6832 634.5666 119.1243 635.6843 118.3419 637.1373 116.2183 637.6961 114.9888 638.0315 113.7593Z" />
  <path class="Babil" d="M586.505 529.3245L586.505 530.7776 587.7344 533.3483 589.6345 538.0427 590.4169 541.0605 590.7523 543.6312 590.7523 548.4374 590.1934 550.114 588.4051 551.1199 589.1875 554.6966 589.5228 566.9914 590.1934 570.0092 590.864 571.9094 591.5347 572.58 592.0935 573.0271 592.6524 573.2506 607.0708 574.2565 607.8532 574.3683 614.336 578.1685 619.4774 579.7333 623.1659 580.1804 624.0601 580.404 624.6189 581.4099 627.9721 582.7512 630.5428 584.2042 631.9958 585.4337 633.4488 586.9985 634.0077 588.2279 638.3668 602.7582 642.3905 611.8117 644.1789 614.0471 646.1908 616.059 647.7556 617.1767 649.5439 617.7355 655.5795 617.9591 656.9208 617.9591 657.1443 621.7593 657.3679 624.33 655.9149 624.2183 655.0207 624.4418 653.5677 625.0007 648.985 627.7949 647.7556 628.6891 646.5261 630.2539 645.8554 630.9245 637.0255 636.7366 630.431 639.4191 625.9602 642.884 623.0541 645.6783 622.2717 646.1254 621.7129 645.7901 620.4834 644.6724 619.9245 644.1135 619.3657 644.1135 618.5833 644.4488 617.5773 645.4548 617.0185 646.5725 616.6832 647.3549 616.9067 647.9138 617.242 648.4726 618.1362 649.1432 618.248 650.2609 618.1362 651.1551 617.6891 651.8257 617.242 652.2728 615.6772 653.167 615.0066 653.7259 613.1065 656.073 612.4359 656.7437 611.5417 657.1908 610.5358 657.5261 609.418 657.5261 608.0768 657.079 602.3765 653.6141 599.3586 652.6081 594.1054 650.9316 591.0876 649.255 588.8521 647.2431 586.0579 645.7901 581.0282 649.3668 580.2458 649.3668 579.3516 649.4785 578.9045 649.4785 576.7809 650.9316 573.2042 654.3965 571.6394 652.2728 571.0805 651.2669 570.2981 650.1492 569.6275 649.3668 567.7274 646.2372 566.945 644.0018 566.7215 642.6605 567.5039 641.431 569.9628 640.0898 570.4099 637.9661 569.7393 637.4073 569.0686 636.1778 567.6156 630.3657 567.2803 629.1362 565.1567 624.8889 564.3743 622.4299 564.9331 620.418 565.9391 617.9591 565.1567 615.6119 559.4563 607.1173 557.7798 602.9817 557.5562 598.5109 561.1329 585.3219 562.0271 584.316 562.0271 582.9747 562.0271 582.1923 561.58 581.2981 559.121 578.7274 558.3386 578.1685 557.7798 577.945 557.3327 577.945 556.7738 578.1685 555.6561 578.8392 555.209 578.9509 554.6502 578.8392 551.0735 577.8332 548.2792 577.3861 549.3969 565.8737 544.9261 562.7441 542.1318 559.5028 540.9023 556.2614 539.114 547.2079 536.655 539.9428 533.5254 536.8132 523.5778 531.7835 518.5481 530.554 517.2068 528.7657 516.648 526.1949 520.1129 525.7479 524.8073 526.4185 533.749 528.7657 543.473 528.8774 545.932 529.2128 548.5028 529.9952 554.9855 533.7954 557.3327 534.466 559.4563 533.9072 561.2447 532.007 564.3743 527.7597 565.7155 527.5362 566.945 527.7597 569.6275 528.5421 586.505 529.3245Z" />
  <path class="Baghdad" d="M563.3683 504.6231L568.7333 503.1701 570.0746 498.9228 570.7452 498.0286 571.3041 498.1404 578.5692 498.4757 579.6869 498.6992 581.6988 499.8169 585.499 503.1701 588.7404 500.7111 589.0757 501.0464 589.411 501.6053 589.6345 502.9465 589.8581 504.0642 590.4169 505.7408 590.5287 506.1879 590.4169 506.2997 590.3052 506.635 590.3052 508.088 589.7463 509.3175 589.8581 512.8942 589.9699 516.5826 589.7463 517.4768 589.411 518.2592 588.9639 518.5945 588.6286 518.5945 588.5168 518.2592 588.8521 517.8121 588.8521 516.8062 588.0697 518.7063 588.2933 519.7122 588.7404 520.6064 588.7404 521.0535 588.6286 521.6123 587.958 522.3947 587.7344 522.6183 586.7285 524.0713 586.505 529.3245 569.6275 528.5421 566.945 527.7597 565.7155 527.5362 564.3743 527.7597 563.1448 526.4185 560.4623 524.7419 559.2328 523.5124 558.2268 521.5006 557.668 518.9298 557.668 516.3591 558.1151 514.0119 559.3446 511.6647 562.5859 508.1998 563.4801 505.8526 563.4801 505.182 563.3683 504.6231Z" />
  <path class="Dhi-Qar" d="M854.1969 776.1153L855.0911 786.0629 853.7498 810.7644 851.1791 824.2887 850.5085 827.6418 850.3967 830.3243 850.9556 838.9307 850.2849 842.2838 847.2671 842.8427 833.0722 840.2719 831.1721 840.1602 797.8642 849.3254 794.5111 850.1078 793.1699 850.1078 791.8286 849.1019 790.7109 847.5371 786.4636 838.8189 777.0748 823.2827 760.7562 817.4706 710.571 810.9879 709.2297 794.334 709.7886 791.7633 710.2356 788.1866 710.7945 785.9512 711.2416 782.9333 712.024 781.3685 713.5888 781.145 715.6007 781.9274 716.9419 781.7039 717.6125 780.4744 718.1714 776.7859 718.2832 774.6623 717.9479 773.5446 717.389 773.2092 716.6066 772.7622 715.3771 771.868 714.93 771.4209 713.0299 770.6385 712.6946 769.2972 713.9241 765.497 719.7362 751.5256 714.1476 751.3021 711.2416 750.855 711.018 749.1784 712.1358 746.943 719.1773 738.1131 719.5127 736.7718 719.4009 735.0953 718.7303 731.5186 718.1714 730.0656 717.6125 729.2832 716.9419 729.1714 716.4948 728.9479 716.0477 728.2772 716.0477 727.1595 716.7184 724.5888 717.1655 723.6946 717.8361 723.2475 718.3949 723.4711 718.9538 723.8064 719.9597 724.5888 720.4068 724.7006 720.7421 724.5888 720.9657 723.9182 721.0774 723.1358 720.9657 721.4592 720.9657 719.7826 721.0774 719.2238 720.5186 717.4354 717.2772 713.747 714.4829 697.8755 710.4592 685.3571 710.3474 682.7864 710.4592 681.1098 711.2416 678.2037 721.4128 678.7626 727.6719 676.1919 728.2308 676.1919 728.6779 676.6389 729.125 676.5272 729.5721 676.3036 730.0191 675.8565 730.2427 675.7448 730.4662 675.8565 730.8015 676.0801 731.2486 676.5272 731.8075 676.4154 735.2724 673.7329 736.1666 673.3976 737.0607 673.5094 737.9549 673.8447 739.6315 674.18 740.3021 674.0682 740.7492 673.8447 741.1963 672.9505 741.6433 672.5034 745.1083 671.2739 771.598 671.2739 773.8334 673.5094 775.1747 675.1859 775.2865 676.1919 773.6099 676.6389 771.9333 677.6449 770.9274 679.6568 773.6099 685.3571 781.5457 698.4343 781.3221 701.3404 780.9868 702.9052 783.334 708.9408 787.3578 713.5234 790.4873 715.3118 791.158 715.9824 794.2876 721.1239 795.9641 722.8004 799.3173 725.5947 800.3232 726.936 801.1056 728.8361 801.4409 730.6244 800.9938 733.0834 800.435 734.5364 799.429 736.7718 799.3173 738.3366 799.3173 739.4543 800.9938 744.3723 810.0473 750.0726 811.2768 750.9668 812.5063 752.1963 813.7358 753.8728 814.4064 755.1023 814.7417 756.22 814.8535 757.226 814.7417 758.5672 814.2946 762.8145 814.2946 764.044 814.4064 765.2735 814.6299 766.1677 814.9652 767.0618 815.7476 767.956 820.1067 771.5327 821.5597 772.9857 825.5835 774.9976 836.3135 774.8858 854.1969 776.1153Z" />
  <path class="Dihok" d="M542.02 11.9358L541.5729 13.7241 541.9083 14.3947 542.2436 14.5065 542.4671 14.73 542.6906 15.2889 542.8024 15.5124 542.9142 15.6242 543.1377 15.736 543.3613 15.8477 543.5848 16.0713 543.9201 16.1831 544.0319 16.5184 544.0319 16.9655 543.1377 18.8656 542.8024 19.648 542.8024 20.2068 542.8024 20.6539 542.9142 21.4363 543.026 22.2187 543.2495 22.554 543.473 22.7776 543.9201 22.8893 544.479 22.8893 544.7025 23.0011 544.9261 23.2246 545.1496 24.6777 545.1496 25.1248 545.0378 25.4601 543.9201 26.0189 542.8024 26.9131 542.02 27.6955 540.7905 29.2603 540.4552 30.0427 540.4552 30.4898 540.9023 31.3839 540.6788 31.831 540.1199 32.1663 538.8904 32.7252 536.7668 33.8429 536.2079 34.4018 534.6431 36.5254 534.196 37.196 533.6372 37.7549 532.8548 38.3138 530.9547 39.2079 530.1723 39.5432 529.7252 39.7668 529.837 40.2139 530.0605 40.4374 530.0605 40.7727 529.6134 40.9963 525.8132 42.5611 524.0249 43.567 523.3542 44.1259 523.0189 44.9083 522.5718 46.2495 522.2365 46.9201 521.6777 47.3672 520.8953 47.5908 519.4422 48.2614 517.4304 50.6086 514.3008 49.8262 511.3947 48.5967 504.2414 47.3672 503.1237 47.0319 501.2235 46.026 500.7765 45.9142 500.3294 45.8024 499.9941 45.9142 499.6587 46.2495 499.2117 46.6966 498.8763 47.1437 498.4293 48.1496 498.3175 48.5967 498.3175 49.0438 498.2057 50.0497 497.8704 51.0557 497.5351 52.0616 497.5351 52.5087 497.5351 52.9558 497.5351 53.4029 497.8704 53.9617 497.8704 54.297 498.0939 54.6323 498.3175 55.0794 499.3234 55.8618 499.8823 56.0854 500.4411 56.3089 501.8942 56.3089 502.6766 56.5325 503.5707 56.9795 505.2473 57.5384 505.9179 57.6502 506.4768 57.8737 506.8121 58.3208 507.0356 58.8796 507.1474 59.5503 507.2592 60.1091 507.2592 60.7798 507.0356 61.3386 506.1415 63.127 505.6944 63.6858 505.2473 64.0211 504.6884 64.2447 504.5767 64.4682 504.8002 65.2506 504.912 65.6977 504.912 66.033 504.912 66.3683 504.912 66.7036 505.0238 67.3743 505.0238 67.7096 505.1355 68.1567 505.1355 68.8273 505.0238 69.6097 504.5767 71.0627 504.2414 71.398 503.7943 71.398 503.459 71.1745 501.7824 70.6156 500.7765 70.8392 500.1058 71.1745 499.7705 71.6216 499.547 72.2922 499.547 73.0746 499.4352 73.6334 499.2117 74.1923 498.4293 74.3041 496.9762 73.9688 482.2224 69.945 478.9811 68.3802 477.1927 66.7036 474.0631 64.4682 472.7219 63.0152 471.0453 61.6739 469.5923 60.8915 465.6803 60.4444 464.0037 61.0033 462.5507 62.121 461.8801 63.3505 458.7505 67.1507 455.7327 72.1804 454.8385 75.0865 453.8326 77.3219 453.3855 79.3338 451.9325 80.4515 448.4675 82.1281 444.332 82.5751 431.0312 84.3635 422.6484 89.0579 421.4189 88.7226 419.9659 88.8343 418.7364 89.0579 417.7305 89.7285 416.9481 91.2933 416.0539 89.2814 415.495 88.499 414.8244 87.8284 413.2596 87.046 412.4772 87.046 408.9006 88.8343 407.7828 88.8343 407.1122 87.8284 407.3358 86.8224 408.3417 86.1518 410.5771 85.2576 409.6829 84.2517 408.9006 84.0282 408.1182 83.9164 407.1122 83.4693 405.3239 81.7927 402.1943 78.3278 401.3001 77.6572 400.0706 77.4337 399.1765 77.6572 398.6176 78.2161 398.1705 78.7749 397.6117 78.9985 393.3644 78.9985 391.6878 78.1043 390.3465 74.1923 388.5582 72.9628 385.4286 71.2862 383.4167 72.0686 382.299 71.0627 382.7461 69.7215 385.4286 69.4979 384.3109 67.3743 383.4167 66.4801 383.1932 65.2506 383.9756 62.4563 382.299 62.121 382.1872 59.9974 382.6343 57.4266 382.6343 55.5265 380.6224 57.7619 378.8341 57.8737 377.0458 56.5325 373.1338 52.6205 371.4572 49.938 370.0042 46.9201 369.3336 44.1259 369.3336 42.2257 368.6629 40.7727 367.9923 39.5432 367.3217 37.9784 371.7925 37.4196 377.7164 35.5195 386.4345 34.0664 388.1111 33.284 388.4464 32.6134 389.6759 29.1485 402.5296 10.371 402.8649 9.365 403.0884 8.4708 403.2002 7.5767 403.8708 6.5707 404.5415 6.1237 409.5712 4 410.4653 4 411.6948 4.1118 412.589 4.7824 413.0361 7.0178 413.9303 7.6884 422.4249 10.4827 426.4486 11.0416 430.8077 9.5886 433.4902 7.5767 437.4022 5.9001 441.426 4.7824 444.6673 4.5589 446.3439 5.0059 459.7564 12.2711 460.5388 12.4946 461.3212 12.6064 462.2154 12.4946 463.2213 11.4887 464.1155 11.0416 466.0156 10.818 467.2451 11.0416 469.9276 13.1652 471.2689 14.1712 475.5162 16.2948 480.2106 20.2068 481.8871 20.8774 483.2284 20.7657 485.6873 19.7597 487.0286 19.5362 488.2581 19.7597 489.1523 20.2068 490.9406 21.6598 493.6231 22.6658 496.0821 23.0011 506.4768 22.3305 509.1593 22.554 511.6183 23.1129 512.6242 23.8953 514.7479 26.0189 515.5303 26.466 516.8715 26.1307 518.6598 24.2306 524.1366 23.2246 527.2662 19.648 530.284 15.2889 533.9725 12.0475 538.6669 11.2651 542.02 11.9358Z" />
  <path class="Diyala" d="M718.3949 316.624L716.6066 315.618 714.1476 315.7298 713.477 318.077 713.7006 321.2066 713.2535 324.3362 710.3474 326.2363 707.4414 326.5716 706.2119 327.1305 705.2059 328.5835 704.8706 330.0365 705.0942 332.4955 704.7589 333.9485 701.9646 337.1899 701.1822 339.2018 702.6352 340.9901 703.5294 341.4372 704.4235 342.1078 705.2059 343.1138 705.5413 344.1197 705.8766 345.3492 706.3237 346.1316 706.8825 346.8022 707.3296 347.5846 707.6649 349.9318 707.6649 352.279 708.0002 354.4026 709.1179 355.9674 709.4532 356.8616 709.4532 358.2029 709.1179 359.4323 708.7826 360.2147 708.112 360.4383 705.8766 359.6559 698.835 359.097 695.7054 358.3146 692.2405 356.4145 688.2167 355.2968 687.7696 358.6499 688.6638 363.6796 688.552 367.3681 687.9932 368.374 687.4343 369.2682 686.7637 370.0506 686.0931 370.7212 680.7281 371.8389 679.7221 373.5155 682.8517 383.6867 684.193 386.3692 686.0931 387.8222 688.105 386.1457 690.3404 386.1457 692.464 387.4869 694.0288 389.9459 694.5877 392.7402 694.3641 395.758 693.0229 401.6818 692.464 402.7996 691.1228 405.1468 690.8992 406.2645 691.3463 407.7175 692.1287 408.7234 692.6876 409.8411 692.6876 411.1824 691.6816 412.6354 687.5461 415.9886 686.0931 417.5534 683.5223 419.7888 682.4046 422.4713 681.5105 425.6009 679.9457 429.0658 679.1633 429.96 678.1573 430.6306 675.9219 431.6365 678.0455 434.6543 680.3927 435.8838 683.0752 436.1074 686.0931 435.6603 686.3166 435.6603 686.5402 435.7721 686.6519 435.8838 695.8172 452.5377 697.1584 453.9908 698.7232 455.332 700.0645 456.785 700.8469 458.9087 701.2939 461.3677 701.9646 463.4913 702.9705 465.5032 704.3118 467.5151 705.8766 469.0799 710.6827 472.5448 711.1298 473.4389 711.4651 474.3331 711.3534 478.6922 712.1358 479.5864 713.9241 479.1393 715.6007 478.0216 718.5067 475.1155 720.4068 474.3331 725.3248 474.3331 727.5602 473.7743 727.1131 477.4627 729.0132 479.3628 731.1369 480.8158 731.8075 483.4983 730.578 485.3985 725.7718 488.4163 724.207 490.4282 725.8836 491.993 728.9014 492.6636 732.031 492.3283 733.9311 490.4282 734.3782 490.2046 734.9371 490.0928 735.4959 490.2046 735.6077 490.3164 733.8194 492.2165 732.2546 495.0108 731.8075 495.7932 730.6898 500.1523 729.9074 501.0464 728.7897 501.9406 726.4425 503.3936 725.213 503.9525 724.3188 504.176 723.76 504.176 723.0893 504.3996 722.3069 504.7349 717.5008 508.3116 716.4948 509.6528 715.6007 510.4352 714.3712 511.2176 712.8064 511.8882 712.3593 512 712.024 511.8882 711.5769 511.6647 711.1298 511.5529 710.6827 511.7765 710.1239 512.4471 709.0062 514.1237 705.4295 518.4827 704.4235 519.824 703.7529 521.1652 703.3058 522.8418 702.4117 525.4125 701.0704 527.4244 698.3879 530.7776 696.0407 534.2425 695.3701 535.0249 691.4581 538.378 689.7815 540.1663 688.4403 541.8429 687.3226 542.4018 686.5402 542.7371 680.5045 541.0605 648.538 531.7835 638.5903 532.9012 635.0136 532.5659 623.2777 529.7716 620.2598 529.5481 618.248 531.2246 616.0125 533.9072 613.6653 537.2603 609.3063 540.7252 607.5179 542.5135 606.512 543.9666 607.0708 545.3078 607.4062 545.8667 607.965 547.655 607.5179 547.8785 606.4002 548.8845 605.2825 549.3316 604.1648 549.2198 603.0471 548.8845 601.9294 548.3256 601.0352 547.655 600.2528 546.9844 599.5822 546.0902 599.0233 544.9725 598.1292 542.5135 597.4585 541.3958 596.7879 541.8429 596.0055 543.5195 594.9996 546.6491 593.9936 548.4374 593.5465 549.5551 593.0994 550.3375 592.6524 550.6728 592.4288 550.7846 590.1934 550.114 590.7523 548.4374 590.7523 543.6312 590.4169 541.0605 589.6345 538.0427 587.7344 533.3483 586.505 530.7776 586.505 529.3245 586.7285 524.0713 587.7344 522.6183 587.958 522.3947 588.6286 521.6123 588.7404 521.0535 588.7404 520.6064 588.2933 519.7122 588.0697 518.7063 588.8521 516.8062 588.8521 517.8121 588.5168 518.2592 588.6286 518.5945 588.9639 518.5945 589.411 518.2592 589.7463 517.4768 589.9699 516.5826 589.8581 512.8942 589.7463 509.3175 590.3052 508.088 590.3052 506.635 590.4169 506.2997 590.5287 506.1879 590.4169 505.7408 589.8581 504.0642 589.6345 502.9465 589.411 501.6053 589.0757 501.0464 588.7404 500.7111 585.499 503.1701 581.6988 499.8169 579.6869 498.6992 578.5692 498.4757 571.3041 498.1404 570.7452 498.0286 570.0746 498.9228 568.7333 503.1701 563.3683 504.6231 563.033 504.7349 560.0152 497.9168 565.492 490.0928 566.945 488.1927 569.404 485.9573 571.0805 484.7278 575.1043 481.0394 575.9985 477.9098 576.3338 474.892 575.1043 472.0977 576.6691 465.3914 577.1162 464.4972 578.4574 462.2618 578.4574 461.703 578.2339 461.2559 576.222 459.1322 575.5514 458.2381 574.9925 457.2321 574.769 456.1144 574.769 454.9967 574.9925 453.879 576.8926 448.6257 580.3575 443.149 580.9164 441.0253 581.0282 438.6781 580.6928 436.3309 579.9105 434.4308 578.681 432.866 573.9866 428.6187 573.0924 428.1716 572.4218 427.9481 569.7393 427.501 566.945 427.8363 566.1626 428.0598 565.3802 428.1716 564.9331 428.0598 564.5978 427.7245 564.5978 426.7186 564.5978 426.1597 565.7155 424.4832 566.0508 422.9184 566.7215 420.9065 566.6097 420.3476 566.0508 419.4535 566.2744 419.1182 568.398 417.5534 568.8451 417.1063 569.0686 416.3239 569.0686 415.8768 568.9569 415.4297 568.1745 414.0884 568.0627 413.6414 568.2862 413.1943 568.7333 412.859 569.5157 412.6354 570.7452 412.6354 570.9688 412.4119 571.0805 412.0766 570.9688 409.1705 570.7452 408.7234 570.5217 408.3881 570.5217 408.0528 570.857 407.8293 571.8629 407.6057 573.0924 407.7175 573.5395 407.4939 573.9866 407.1586 574.2101 406.3762 574.6572 405.7056 574.9925 405.2585 575.5514 405.1468 575.7749 405.3703 575.7749 405.7056 575.5514 406.3762 575.5514 406.488 575.7749 406.7116 576.1102 406.7116 576.4455 406.488 576.6691 406.1527 576.8926 405.1468 577.3397 404.2526 579.4634 401.123 579.7987 400.7877 580.8046 400.4524 581.9223 400.4524 582.2576 400.3406 582.593 400.1171 583.04 399.7817 583.4871 399.5582 583.8224 399.67 584.3813 400.3406 584.6048 400.5641 584.9402 400.4524 585.1637 399.8935 585.1637 397.6581 585.2755 396.9875 586.0579 396.4286 586.6167 396.3168 586.952 395.9815 587.0638 395.5344 586.7285 393.0755 588.1815 392.0695 586.952 390.6165 586.2814 390.2812 585.499 389.6106 584.4931 388.4928 583.9342 387.7105 583.7107 387.0398 583.7107 386.481 584.4931 385.2515 585.499 383.0161 586.1696 380.6689 586.1696 379.6629 585.8343 378.4334 585.6108 377.8746 585.499 377.4275 586.1696 376.6451 586.3932 376.3098 586.8403 375.1921 586.952 374.745 587.0638 374.4097 586.7285 374.1861 586.3932 374.1861 585.8343 374.5215 585.499 374.6332 585.1637 374.5215 584.9402 374.2979 584.9402 373.9626 585.3872 373.4037 585.6108 373.0684 585.6108 372.7331 585.2755 372.5096 585.0519 372.6213 584.8284 372.8449 584.6048 372.9567 584.6048 372.7331 584.6048 372.286 585.0519 371.5036 585.499 371.1683 585.9461 371.0565 586.3932 370.9448 587.3991 370.7212 587.7344 370.3859 587.8462 369.9388 587.3991 368.9329 586.952 368.4858 586.6167 368.374 586.2814 368.374 586.1696 368.2623 586.2814 367.927 587.5109 366.8092 587.8462 365.8033 587.8462 365.1327 586.2814 361.1089 586.3932 359.9912 586.505 359.5441 586.7285 358.8735 587.8462 357.3087 588.2933 357.0851 589.1875 357.5322 591.1993 358.4264 592.7641 358.7617 593.6583 359.2088 594.776 359.8794 598.5762 363.3443 599.0233 363.6796 599.3586 363.5679 599.9175 362.1149 600.5881 360.8854 601.7058 359.5441 603.3824 357.9793 605.059 356.8616 606.512 355.5204 607.8532 353.732 609.418 350.2671 609.6416 348.4788 609.3063 347.0257 608.7474 346.2433 608.3003 345.4609 608.1886 344.6785 608.1886 344.0079 608.6356 343.2255 609.6416 342.3314 611.6535 341.1019 614.5595 340.2077 615.789 339.6488 617.242 338.5311 619.2539 336.5193 620.5952 334.1721 621.0422 332.8308 620.9305 331.8249 620.8187 330.9307 620.9305 330.1483 621.6011 329.1424 622.8306 328.2482 625.4013 327.1305 628.7545 325.4539 633.6724 320.9831 639.0374 324.5597 641.1611 326.6834 642.167 328.0246 642.8376 328.5835 643.5083 328.6953 644.0671 328.4717 646.5261 327.1305 647.4202 326.7952 648.538 326.6834 650.7734 327.0187 652.0029 327.354 653.0088 327.9129 654.4618 329.1424 655.2442 330.1483 656.0266 331.3778 656.3619 332.6073 656.6972 336.9663 657.1443 339.7606 657.1443 340.543 657.0326 341.1019 657.1443 341.6607 657.1443 342.5549 657.815 345.3492 658.9327 348.5905 658.9327 349.0376 658.7091 349.5965 658.262 350.2671 656.9208 351.8319 656.5855 352.3908 656.4737 352.9496 656.4737 353.6202 656.5855 354.4026 657.2561 356.3028 657.3679 356.8616 657.2561 357.5322 657.1443 358.3146 656.809 359.097 656.1384 360.4383 656.1384 360.9971 656.3619 361.556 656.6972 361.7795 657.4796 362.0031 657.815 362.1149 658.1503 362.1149 658.5974 362.1149 658.8209 362.5619 659.0444 363.1208 659.268 365.0209 662.6211 363.009 673.7982 349.5965 675.1395 348.4788 675.9219 348.4788 676.2572 348.4788 677.2631 348.2552 677.9338 348.2552 678.8279 348.0317 679.8339 347.5846 681.734 346.5787 682.5164 345.908 682.9635 345.2374 683.0752 345.0139 683.0752 344.5668 683.4106 343.4491 684.64 341.4372 684.8636 340.7666 685.0871 339.8724 685.1989 339.5371 685.0871 339.2018 684.9754 338.8664 684.9754 338.4194 684.9754 337.9723 685.0871 337.5252 685.0871 337.0781 685.3107 336.4075 685.7578 335.5133 686.8755 333.5014 688.2167 330.0365 688.6638 329.3659 689.1109 328.9188 689.7815 328.6953 690.0051 328.2482 690.1168 327.8011 691.011 325.4539 691.3463 324.0009 692.1287 322.1008 693.1347 320.9831 693.5817 320.2007 693.6935 319.6418 693.8053 318.9712 694.0288 318.7476 694.3641 318.6359 694.6994 318.7476 695.0348 318.7476 697.7173 316.2887 698.4997 315.171 700.8469 311.3707 701.4057 310.253 701.6293 309.4706 701.6293 309.1353 701.6293 308.8 701.6293 308.5765 701.5175 308.3529 701.1822 308.1294 700.8469 308.1294 699.8409 308.0176 699.5056 307.9058 699.2821 307.1234 700.288 306.2293 700.6233 304.5527 701.0704 303.9938 701.9646 303.435 702.4117 302.5408 702.5234 302.0937 702.2999 301.8702 702.0763 301.982 701.741 302.0937 701.5175 302.0937 701.2939 301.7584 701.1822 300.7525 701.4057 300.0818 702.0763 298.9641 702.4117 298.5171 702.747 298.4053 702.9705 298.6288 703.0823 298.9641 703.0823 299.2994 703.0823 299.523 703.3058 299.6348 703.5294 299.523 703.8647 299.1877 704.0882 299.0759 704.8706 298.6288 705.2059 298.1817 705.653 297.1758 706.1001 296.3934 707.2178 295.0521 707.7767 294.2697 708.2238 293.5991 708.2238 292.8167 708.4473 292.1461 709.3415 291.1402 709.9003 290.8048 710.571 290.8048 711.2416 291.1402 712.024 291.9226 712.4711 292.3696 713.0299 293.2638 720.0715 300.7525 721.1892 302.5408 720.8539 302.6526 720.4068 302.8761 719.9597 302.9879 719.5127 302.9879 719.0656 302.8761 718.6185 302.7644 718.1714 302.6526 717.389 302.7644 717.1655 302.6526 716.9419 302.8761 716.7184 303.7703 717.7243 315.171 718.3949 316.624Z" />
  <path class="Karbala'" d="M503.459 651.6022L498.541 647.3549 481.6636 634.7248 457.6328 610.2469 455.1738 606.5584 454.3914 602.87 459.8682 600.0757 464.6744 598.1756 477.1927 596.3872 479.3164 596.1637 480.4341 595.8284 483.2284 594.04 502.3413 577.0508 510.3888 573.1388 518.9952 572.0211 530.7311 572.0211 548.2792 577.3861 551.0735 577.8332 554.6502 578.8392 555.209 578.9509 555.6561 578.8392 556.7738 578.1685 557.3327 577.945 557.7798 577.945 558.3386 578.1685 559.121 578.7274 561.58 581.2981 562.0271 582.1923 562.0271 582.9747 562.0271 584.316 561.1329 585.3219 557.5562 598.5109 557.7798 602.9817 559.4563 607.1173 565.1567 615.6119 565.9391 617.9591 564.9331 620.418 564.3743 622.4299 565.1567 624.8889 567.2803 629.1362 567.6156 630.3657 566.3861 633.4953 566.2744 634.1659 565.7155 635.5072 565.2684 636.1778 564.3743 635.6189 563.1448 634.613 560.574 634.9483 550.9617 637.8543 503.459 651.6022Z" />
  <path class="Kirkūk" d="M469.4805 247.2141L474.0631 250.1201 475.0691 250.679 477.1927 251.2378 478.3105 251.2378 479.3164 251.0143 481.3283 249.226 482.8931 248.7789 487.2521 248.5553 489.264 248.22 490.9406 247.3259 491.8348 245.7611 492.9525 242.1844 493.9584 240.8431 495.4114 240.1725 497.6469 240.2843 501 239.949 504.3531 237.9371 506.5886 237.7135 507.5945 237.2664 508.6004 235.9252 509.7182 232.2367 510.277 229.1072 510.9476 227.6541 512.5124 225.6422 513.8537 224.4128 514.7479 223.295 514.7479 221.9538 514.3008 220.7243 513.7419 219.6066 511.5065 217.0359 510.8359 216.477 510.7241 215.6946 511.3947 214.5769 517.6539 209.3237 525.0308 201.2761 526.0367 198.4818 527.6015 198.2583 529.9487 199.0407 540.6788 206.8647 544.479 206.6411 546.7144 206.3058 547.6086 205.6352 548.5028 203.8469 549.9558 199.8231 552.303 198.9289 554.0913 198.5936 559.6799 199.5996 561.9153 200.0466 563.8154 201.0526 564.3743 201.1644 565.2684 201.1644 566.2744 200.829 567.7274 200.0466 568.2862 199.5996 568.8451 198.7054 569.1804 198.7054 570.4099 199.376 571.0805 199.5996 572.6453 199.8231 573.0924 200.0466 573.4277 200.1584 573.763 200.0466 574.3219 198.9289 574.6572 198.7054 576.5573 197.923 577.1162 197.5877 577.5633 197.1406 578.1221 196.6935 578.7927 196.5817 580.134 196.8053 581.0282 196.8053 583.1518 195.5758 585.3872 196.2464 585.7226 196.5817 586.0579 196.8053 586.505 196.6935 587.3991 196.2464 587.958 196.0229 588.7404 196.2464 589.1875 196.6935 589.7463 197.6994 590.1934 197.923 590.5287 197.923 590.7523 197.2524 590.6405 196.9171 590.5287 196.47 590.4169 196.0229 590.5287 195.6876 590.864 195.3523 591.3111 195.2405 592.4288 195.9111 592.7641 196.0229 593.323 195.464 593.7701 194.9052 594.3289 194.2345 595.2231 193.5639 595.5584 193.0051 595.8937 191.9991 596.229 191.552 596.6761 191.2167 597.7938 190.6579 598.1292 190.7696 598.4645 191.2167 598.4645 192.4462 599.0233 193.4521 604.7237 205.9705 607.2944 208.7648 609.6416 212.0062 614.336 216.1417 615.2301 218.7124 615.3419 220.8361 613.5536 223.8539 613.1065 225.1952 612.8829 228.4365 612.5476 229.8895 612.2123 234.3604 611.877 238.0488 612.1006 239.2783 612.7712 240.5078 615.0066 242.9668 616.9067 245.6493 617.0185 247.1023 616.4596 248.8906 615.4537 251.0143 611.7652 256.044 610.9828 258.503 611.2064 260.2913 611.877 262.415 612.3241 264.3151 611.877 266.2152 610.7593 268.8977 610.424 270.5743 610.2004 271.3567 609.8651 271.9155 609.0827 272.1391 608.0768 272.6979 606.8473 273.4803 605.8414 275.0451 605.3943 276.2746 605.3943 277.2805 605.5061 278.1747 606.2884 279.963 605.9531 280.969 604.8354 282.0867 596.8997 284.5457 592.4288 288.3459 591.0876 288.4576 590.5287 288.6812 589.7463 289.24 588.7404 290.4695 587.958 291.8108 587.3991 294.0462 587.5109 295.7228 589.5228 300.6407 589.5228 302.5408 588.5168 303.9938 585.7226 306.1175 584.1578 306.8999 582.9283 307.6823 582.1459 308.4647 579.9105 311.7061 577.675 313.9415 576.1102 316.4004 575.9985 317.4064 575.8867 317.7417 575.8867 317.9652 575.8867 318.3006 575.8867 318.6359 575.5514 319.3065 575.1043 320.2007 575.1043 320.536 574.9925 320.7595 575.1043 321.2066 575.1043 321.6537 574.5454 322.3243 574.4337 322.6596 574.4337 322.9949 574.3219 323.442 573.8748 323.8891 572.7571 324.5597 571.0805 326.7952 570.7452 328.0246 570.4099 328.6953 569.851 329.4777 568.6216 330.5954 568.2862 331.1542 568.1745 331.6013 568.1745 332.8308 568.0627 333.5014 567.7274 334.8427 567.8392 335.2898 568.2862 336.1839 568.2862 336.4075 568.0627 336.9663 568.0627 337.3017 568.2862 337.5252 568.6216 337.637 569.7393 337.7487 569.7393 338.084 569.2922 338.7547 567.0568 341.549 565.492 341.549 564.486 341.2136 556.662 335.2898 548.1674 326.6834 542.02 322.8832 533.3019 318.9712 526.1485 316.2887 519.4422 312.2649 499.0999 299.9701 491.1641 296.3934 488.8169 294.7168 487.9228 293.2638 486.0227 291.9226 483.3402 290.6931 481.9989 288.6812 475.2926 281.4161 474.5102 280.8572 473.5043 279.4042 472.6101 277.8394 472.163 276.7217 472.6101 275.3804 473.6161 274.7098 474.8455 274.3745 475.6279 273.7039 476.075 271.3567 473.9514 270.3507 468.6981 269.4565 469.3688 268.6741 469.7041 267.8917 470.0394 266.1034 469.9276 265.5446 469.5923 265.0975 469.3688 264.6504 469.7041 263.868 470.0394 263.6444 470.3747 263.5327 470.71 263.3091 470.8218 262.9738 470.1512 261.409 468.6981 260.4031 465.7921 259.2854 464.6744 258.2794 462.1036 255.3734 461.6565 254.3674 461.433 254.1439 460.8741 253.6968 460.4271 253.0262 460.2035 251.9085 460.3153 250.679 460.6506 249.8966 460.6506 249.226 460.2035 247.9965 460.8741 246.2081 462.4389 246.6552 462.886 246.9905 463.1096 247.4376 463.2213 247.8847 463.3331 248.22 463.7802 248.8906 463.7802 249.4495 463.7802 250.0084 464.4508 250.9025 465.0097 251.1261 465.9039 251.1261 467.5804 248.22 469.4805 247.2141Z" />
  <path class="Maysan" d="M800.5468 572.3564L800.8821 572.58 805.5765 576.3802 812.2827 580.5157 816.53 585.3219 847.2671 612.147 850.5085 614.6059 853.6381 616.2825 856.8794 616.9531 860.4561 616.5061 862.2444 615.8354 866.9388 613.2647 868.3919 613.3765 874.204 615.3883 876.3276 616.5061 877.6689 618.0708 878.7866 619.8592 880.4631 622.0946 883.2574 624.2183 883.8163 625.1124 883.9281 626.4537 883.5927 627.2361 883.0339 627.9067 882.1397 630.1421 881.6926 630.5892 881.6926 631.2598 882.3633 632.8246 882.8103 633.607 885.9399 636.5131 886.387 637.0719 886.7223 637.8543 888.6224 640.3133 889.1813 640.9839 890.1872 641.5428 890.7461 642.9958 892.758 644.5606 893.3168 646.1254 893.0933 647.802 892.5344 648.9197 891.9756 650.0374 891.5285 651.3787 891.4167 653.0552 891.4167 653.9494 892.1991 654.5083 893.7639 654.9553 895.1052 655.8495 895.8876 657.079 896.7817 658.0849 898.3465 658.3085 900.3584 659.0909 900.582 659.4262 902.035 661.5498 904.3822 666.8031 905.947 668.5914 909.5237 670.3798 910.5296 672.5034 910.9767 674.6271 914.6651 681.2216 915.3358 682.2275 917.2359 683.3452 918.0183 684.1276 918.5771 685.2453 919.0242 687.369 919.4713 688.2631 921.0361 690.0515 925.0598 693.0693 926.5129 695.193 926.7364 697.7637 926.1776 700.558 910.6414 742.9193 910.4178 763.3734 910.3061 763.3734 896.2229 759.7967 881.5809 758.3437 876.9982 758.679 862.8033 762.3674 859.3384 764.044 857.2147 765.8323 855.3146 768.8502 854.1969 776.1153 836.3135 774.8858 825.5835 774.9976 821.5597 772.9857 820.1067 771.5327 815.7476 767.956 814.9652 767.0618 814.6299 766.1677 814.4064 765.2735 814.2946 764.044 814.2946 762.8145 814.7417 758.5672 814.8535 757.226 814.7417 756.22 814.4064 755.1023 813.7358 753.8728 812.5063 752.1963 811.2768 750.9668 810.0473 750.0726 800.9938 744.3723 799.3173 739.4543 799.3173 738.3366 799.429 736.7718 800.435 734.5364 800.9938 733.0834 801.4409 730.6244 801.1056 728.8361 800.3232 726.936 799.3173 725.5947 795.9641 722.8004 794.2876 721.1239 791.158 715.9824 790.4873 715.3118 787.3578 713.5234 783.334 708.9408 780.9868 702.9052 781.3221 701.3404 781.5457 698.4343 773.6099 685.3571 770.9274 679.6568 771.9333 677.6449 773.6099 676.6389 775.2865 676.1919 775.1747 675.1859 773.8334 673.5094 771.598 671.2739 784.3399 670.7151 788.3637 671.2739 792.0521 673.174 795.9641 674.0682 798.0878 673.8447 800.8821 655.7377 799.6526 653.5023 797.6407 650.4845 785.1223 645.1195 783.334 643.5547 782.9987 641.7663 783.5575 639.6427 787.8048 627.2361 788.0284 626.2301 787.5813 625.2242 787.1342 624.5536 785.4576 623.1006 784.5635 622.2064 784.6752 621.0887 785.2341 619.7474 786.6871 617.512 787.0224 616.7296 787.3578 615.053 787.6931 613.8235 787.8048 612.4823 787.6931 605.1054 788.3637 599.2933 794.9582 579.1745 795.7406 577.945 797.976 576.3802 798.982 575.1507 800.5468 572.3564Z" />
  <path class="Ninawa" d="M369.3336 44.1259L370.0042 46.9201 371.4572 49.938 373.1338 52.6205 377.0458 56.5325 378.8341 57.8737 380.6224 57.7619 382.6343 55.5265 382.6343 57.4266 382.1872 59.9974 382.299 62.121 383.9756 62.4563 383.1932 65.2506 383.4167 66.4801 384.3109 67.3743 385.4286 69.4979 382.7461 69.7215 382.299 71.0627 383.4167 72.0686 385.4286 71.2862 388.5582 72.9628 390.3465 74.1923 391.6878 78.1043 393.3644 78.9985 397.6117 78.9985 398.1705 78.7749 398.6176 78.2161 399.1765 77.6572 400.0706 77.4337 401.3001 77.6572 402.1943 78.3278 405.3239 81.7927 407.1122 83.4693 408.1182 83.9164 408.9006 84.0282 409.6829 84.2517 410.5771 85.2576 408.3417 86.1518 407.3358 86.8224 407.1122 87.8284 407.7828 88.8343 408.9006 88.8343 412.4772 87.046 413.2596 87.046 414.8244 87.8284 415.495 88.499 416.0539 89.2814 416.9481 91.2933 417.7305 89.7285 418.7364 89.0579 419.9659 88.8343 421.4189 88.7226 422.6484 89.0579 431.0312 84.3635 444.332 82.5751 448.4675 82.1281 451.9325 80.4515 453.3855 79.3338 453.8326 77.3219 454.8385 75.0865 455.7327 72.1804 458.7505 67.1507 461.8801 63.3505 462.5507 62.121 464.0037 61.0033 465.6803 60.4444 469.5923 60.8915 471.0453 61.6739 472.7219 63.0152 474.0631 64.4682 477.1927 66.7036 478.9811 68.3802 482.2224 69.945 496.9762 73.9688 498.4293 74.3041 499.2117 74.1923 499.4352 73.6334 499.547 73.0746 499.547 72.2922 499.7705 71.6216 500.1058 71.1745 500.7765 70.8392 501.7824 70.6156 503.459 71.1745 503.7943 71.398 504.2414 71.398 504.5767 71.0627 505.0238 69.6097 505.1355 68.8273 505.1355 68.1567 505.0238 67.7096 505.0238 67.3743 504.912 66.7036 504.912 66.3683 504.912 66.033 504.912 65.6977 504.8002 65.2506 504.5767 64.4682 504.6884 64.2447 505.2473 64.0211 505.6944 63.6858 506.1415 63.127 507.0356 61.3386 507.2592 60.7798 507.2592 60.1091 507.1474 59.5503 507.0356 58.8796 506.8121 58.3208 506.4768 57.8737 505.9179 57.6502 505.2473 57.5384 503.5707 56.9795 502.6766 56.5325 501.8942 56.3089 500.4411 56.3089 499.8823 56.0854 499.3234 55.8618 498.3175 55.0794 498.0939 54.6323 497.8704 54.297 497.8704 53.9617 497.5351 53.4029 497.5351 52.9558 497.5351 52.5087 497.5351 52.0616 497.8704 51.0557 498.2057 50.0497 498.3175 49.0438 498.3175 48.5967 498.4293 48.1496 498.8763 47.1437 499.2117 46.6966 499.6587 46.2495 499.9941 45.9142 500.3294 45.8024 500.7765 45.9142 501.2235 46.026 503.1237 47.0319 504.2414 47.3672 511.3947 48.5967 514.3008 49.8262 517.4304 50.6086 523.9131 54.0735 526.2603 54.6323 526.9309 54.5206 527.4898 54.6323 528.0486 55.0794 530.284 57.3149 532.2959 58.5443 533.749 59.662 535.0902 60.3327 535.6491 60.8915 536.2079 61.6739 536.3197 62.2328 536.655 62.9034 537.1021 63.6858 536.9903 64.0211 536.7668 64.2447 536.3197 64.3564 536.0961 64.58 536.0961 64.8035 536.3197 65.0271 537.9963 64.9153 538.3316 64.9153 538.7787 65.0271 539.2257 65.3624 539.8964 66.3683 539.8964 66.9272 539.7846 67.486 539.6728 67.8213 539.7846 68.1567 540.567 69.4979 541.0141 69.8332 541.7965 69.7215 542.2436 69.6097 542.6906 69.4979 543.5848 69.7215 546.7144 70.0568 547.0497 70.1685 547.4968 70.5039 547.8321 71.1745 548.2792 71.7333 549.0616 72.2922 558.6739 76.4277 560.3505 77.8807 561.2447 78.3278 561.8035 78.8867 562.0271 79.4455 562.1388 80.4515 562.1388 81.1221 563.2565 82.1281 563.5919 83.134 564.1507 84.587 564.486 84.6988 564.7096 84.587 564.9331 84.3635 565.1567 84.2517 565.3802 84.2517 565.6037 84.4752 565.8273 84.8106 565.9391 85.3694 565.8273 85.9283 565.3802 87.046 561.6917 91.9639 558.7857 94.5347 557.2209 97.1054 555.4326 97.6642 554.6502 98.2231 551.8559 100.6821 550.1793 101.7998 548.8381 102.9175 547.7204 103.141 547.385 102.9175 547.2733 102.5822 547.2733 102.2469 547.1615 102.0233 546.7144 101.7998 546.1556 101.5762 545.5967 101.5762 545.1496 101.7998 544.0319 102.2469 543.6966 102.2469 543.3613 102.2469 542.9142 102.3586 542.6906 102.6939 542.5789 103.3646 542.4671 103.8117 542.3553 104.2587 542.02 104.4823 541.3494 104.2587 541.0141 103.9234 540.9023 103.3646 541.0141 102.9175 541.2376 102.4704 541.3494 102.0233 541.3494 101.688 541.1259 101.5762 540.6788 101.5762 540.1199 101.688 539.5611 101.7998 539.114 101.9116 538.6669 101.7998 538.2198 101.5762 537.8845 101.2409 537.7727 100.9056 537.6609 100.4585 537.4374 100.1232 537.2139 100.0114 536.9903 100.235 536.9903 100.9056 537.1021 101.3527 537.4374 102.0233 537.3256 102.2469 536.8785 102.3586 536.5432 102.2469 536.3197 102.0233 535.7608 102.2469 534.8667 103.0293 532.2959 105.9353 531.8488 107.053 531.6253 107.5001 531.1782 108.1707 530.1723 108.9531 529.5017 109.9591 528.0486 110.965 527.378 111.1886 526.9309 111.0768 526.5956 110.6297 526.2603 110.2944 525.925 109.9591 525.7014 110.0708 525.3661 110.4062 525.2543 111.3003 525.3661 112.8651 525.1426 113.6475 524.6955 114.3182 523.8013 114.6535 523.1307 114.7652 520.56 114.4299 520.1129 114.6535 519.8893 115.2123 519.8893 116.4418 520.1129 117.0007 520.3364 117.4477 520.56 117.8948 520.56 118.3419 520.56 118.9008 520.4482 119.5714 520.1129 120.1303 519.1069 120.9127 518.3245 121.3597 517.5421 121.5833 516.8715 121.5833 515.7538 121.3597 515.3067 121.4715 515.0832 121.8068 514.9714 122.2539 515.4185 123.3716 515.642 124.6011 515.7538 126.3894 514.9714 128.9602 513.1831 131.978 508.9358 137.1195 507.2592 138.5725 505.4708 139.802 504.5767 140.2491 503.1237 141.9256 500.8882 142.9316 500.1058 143.714 499.2117 144.8317 498.0939 146.8436 497.088 148.073 493.9584 151.0909 493.3996 151.8733 492.8407 153.3263 491.6112 155.7853 489.7111 157.3501 488.8169 157.4618 488.4816 157.7971 487.9228 158.9149 487.6992 159.809 487.4757 160.7032 485.2403 164.727 485.0167 165.8447 485.0167 166.6271 485.1285 169.1978 485.0167 169.7567 484.6814 170.4273 483.3402 172.5509 482.2224 173.6686 468.9217 179.1454 468.1393 180.4867 468.6981 183.6163 469.8158 184.734 471.4924 184.9575 472.8337 185.0693 473.169 185.9635 473.169 188.3107 472.2748 197.0288 471.1571 199.4878 470.3747 200.2702 469.5923 200.4937 468.9217 200.4937 468.251 200.829 467.804 201.6114 465.5685 206.7529 465.1215 208.2059 465.2332 209.2119 465.345 209.9943 467.0216 213.9063 466.0156 214.8004 465.7921 215.8064 465.4568 217.5947 464.4508 218.1536 463.1096 218.2653 461.6565 218.7124 460.8741 219.7184 459.3094 222.4009 457.8563 223.5186 455.8444 224.1892 453.9443 225.5305 447.2381 228.3248 434.8315 236.8194 433.1549 236.9311 432.2607 237.2664 431.2548 237.8253 428.9076 239.8372 427.6781 240.7314 424.7721 242.0726 424.4367 242.0726 424.1014 242.0726 423.9897 242.0726 423.7661 242.1844 423.5426 242.2961 423.2073 242.1844 422.8719 242.1844 422.5366 242.1844 422.2013 242.2961 421.866 242.7432 421.5307 243.1903 421.1954 243.9727 420.8601 244.1963 420.6365 244.4198 420.6365 244.6433 421.5307 245.9846 422.5366 248.4436 422.7602 249.3377 422.6484 250.1201 422.0895 251.1261 421.6425 251.7967 421.4189 252.132 421.1954 253.8086 421.1954 254.7028 421.4189 255.5969 421.9778 256.4911 421.9778 258.0559 422.2013 258.9501 424.9956 262.5267 425.778 263.3091 427.3428 264.5386 427.9017 265.2092 428.3487 266.1034 428.4605 266.9976 428.5723 268.0035 429.69 271.2449 429.9135 271.4684 430.2488 271.5802 430.4724 271.5802 430.5842 271.4684 430.8077 271.4684 430.9195 271.8037 430.8077 272.3626 430.3606 273.3685 430.2488 274.1509 430.2488 274.9333 429.9135 277.057 429.9135 277.9512 430.0253 278.2865 430.1371 278.51 430.2488 278.51 430.4724 278.3982 430.6959 278.51 431.2548 278.6218 431.5901 279.516 432.3725 280.969 432.4843 281.7514 432.7078 281.9749 432.9314 282.0867 433.2667 282.1985 433.3784 282.3102 433.3784 282.7573 433.4902 282.9809 433.7138 282.9809 434.0491 282.9809 434.1608 283.2044 434.0491 283.5397 433.8255 283.7633 433.9373 283.9868 434.0491 284.0986 434.4961 284.2103 434.8315 284.2103 435.1668 284.2103 435.5021 284.3221 435.8374 284.2103 435.9492 284.4339 436.2845 285.5516 436.3963 285.8869 436.3963 286.2222 436.6198 287.0046 436.7316 287.4517 436.6198 288.0106 436.0609 289.4636 436.0609 289.6871 436.508 290.3578 436.7316 290.9166 436.508 291.699 435.5021 292.3696 431.7019 292.9285 395.2645 293.152 383.5285 295.7228 380.9578 307.9058 358.7153 310.9237 355.5857 309.5824 352.009 307.9058 350.2207 307.4587 335.8022 309.3589 329.2077 308.9118 315.6834 303.6585 287.7406 292.0343 280.9226 290.9166 263.7098 285.9987 250.5208 284.7692 248.3971 284.6574 248.2854 281.7514 249.2913 274.1509 253.5386 258.7265 254.4328 246.4317 255.327 242.7432 255.4387 242.7432 260.2449 235.4781 263.7098 230.2249 265.2746 226.4246 265.8334 222.5127 265.3864 205.1881 264.9393 201.0526 263.8216 197.0288 255.8858 179.8161 253.3151 173.6686 252.868 171.4332 252.868 169.3096 256.2211 137.5666 257.0035 134.2134 266.057 116.5536 268.0689 113.6475 271.0867 112.3063 277.6812 111.1886 309.4242 104.4823 312.2185 103.141 314.901 100.7938 328.6488 86.04 348.9912 64.1329 359.6095 52.844 366.0922 46.5848 369.3336 44.1259Z" />
  <path class="Sala ad-Din" d="M467.0216 213.9063L466.3509 217.3712 466.1274 217.93 465.7921 218.7124 465.9039 219.1595 466.1274 219.4948 466.5745 220.0537 467.1333 220.8361 467.5804 222.0656 468.0275 223.6304 467.804 224.6363 467.5804 225.4187 467.6922 225.8658 467.9157 226.2011 468.3628 226.4246 468.9217 226.5364 469.3688 226.8717 470.0394 227.5424 470.8218 228.9954 471.1571 230.8955 471.6042 240.6196 471.6042 241.8491 471.4924 242.6315 471.0453 244.308 470.9336 245.8728 470.8218 246.5435 470.5982 246.8788 470.2629 246.9905 469.4805 247.2141 467.5804 248.22 465.9039 251.1261 465.0097 251.1261 464.4508 250.9025 463.7802 250.0084 463.7802 249.4495 463.7802 248.8906 463.3331 248.22 463.2213 247.8847 463.1096 247.4376 462.886 246.9905 462.4389 246.6552 460.8741 246.2081 460.2035 247.9965 460.6506 249.226 460.6506 249.8966 460.3153 250.679 460.2035 251.9085 460.4271 253.0262 460.8741 253.6968 461.433 254.1439 461.6565 254.3674 462.1036 255.3734 464.6744 258.2794 465.7921 259.2854 468.6981 260.4031 470.1512 261.409 470.8218 262.9738 470.71 263.3091 470.3747 263.5327 470.0394 263.6444 469.7041 263.868 469.3688 264.6504 469.5923 265.0975 469.9276 265.5446 470.0394 266.1034 469.7041 267.8917 469.3688 268.6741 468.6981 269.4565 473.9514 270.3507 476.075 271.3567 475.6279 273.7039 474.8455 274.3745 473.6161 274.7098 472.6101 275.3804 472.163 276.7217 472.6101 277.8394 473.5043 279.4042 474.5102 280.8572 475.2926 281.4161 481.9989 288.6812 483.3402 290.6931 486.0227 291.9226 487.9228 293.2638 488.8169 294.7168 491.1641 296.3934 499.0999 299.9701 519.4422 312.2649 526.1485 316.2887 533.3019 318.9712 542.02 322.8832 548.1674 326.6834 556.662 335.2898 564.486 341.2136 565.492 341.549 567.0568 341.549 569.2922 338.7547 569.7393 338.084 569.7393 337.7487 568.6216 337.637 568.2862 337.5252 568.0627 337.3017 568.0627 336.9663 568.2862 336.4075 568.2862 336.1839 567.8392 335.2898 567.7274 334.8427 568.0627 333.5014 568.1745 332.8308 568.1745 331.6013 568.2862 331.1542 568.6216 330.5954 569.851 329.4777 570.4099 328.6953 570.7452 328.0246 571.0805 326.7952 572.7571 324.5597 573.8748 323.8891 574.3219 323.442 574.4337 322.9949 574.4337 322.6596 574.5454 322.3243 575.1043 321.6537 575.1043 321.2066 574.9925 320.7595 575.1043 320.536 575.1043 320.2007 575.5514 319.3065 575.8867 318.6359 575.8867 318.3006 575.8867 317.9652 575.8867 317.7417 575.9985 317.4064 576.1102 316.4004 577.675 313.9415 579.9105 311.7061 582.1459 308.4647 582.9283 307.6823 584.1578 306.8999 585.7226 306.1175 588.5168 303.9938 589.5228 302.5408 589.5228 300.6407 587.5109 295.7228 587.3991 294.0462 587.958 291.8108 588.7404 290.4695 589.7463 289.24 590.5287 288.6812 591.0876 288.4576 592.4288 288.3459 602.7118 299.2994 604.3883 300.0818 606.6238 300.6407 608.4121 300.0818 619.5892 300.5289 623.3894 301.1996 632.2194 307.347 633.4488 308.9118 633.6724 309.4706 633.7842 309.9177 633.6724 310.4766 633.3371 312.1531 633.6724 320.9831 628.7545 325.4539 625.4013 327.1305 622.8306 328.2482 621.6011 329.1424 620.9305 330.1483 620.8187 330.9307 620.9305 331.8249 621.0422 332.8308 620.5952 334.1721 619.2539 336.5193 617.242 338.5311 615.789 339.6488 614.5595 340.2077 611.6535 341.1019 609.6416 342.3314 608.6356 343.2255 608.1886 344.0079 608.1886 344.6785 608.3003 345.4609 608.7474 346.2433 609.3063 347.0257 609.6416 348.4788 609.418 350.2671 607.8532 353.732 606.512 355.5204 605.059 356.8616 603.3824 357.9793 601.7058 359.5441 600.5881 360.8854 599.9175 362.1149 599.3586 363.5679 599.0233 363.6796 598.5762 363.3443 594.776 359.8794 593.6583 359.2088 592.7641 358.7617 591.1993 358.4264 589.1875 357.5322 588.2933 357.0851 587.8462 357.3087 586.7285 358.8735 586.505 359.5441 586.3932 359.9912 586.2814 361.1089 587.8462 365.1327 587.8462 365.8033 587.5109 366.8092 586.2814 367.927 586.1696 368.2623 586.2814 368.374 586.6167 368.374 586.952 368.4858 587.3991 368.9329 587.8462 369.9388 587.7344 370.3859 587.3991 370.7212 586.3932 370.9448 585.9461 371.0565 585.499 371.1683 585.0519 371.5036 584.6048 372.286 584.6048 372.7331 584.6048 372.9567 584.8284 372.8449 585.0519 372.6213 585.2755 372.5096 585.6108 372.7331 585.6108 373.0684 585.3872 373.4037 584.9402 373.9626 584.9402 374.2979 585.1637 374.5215 585.499 374.6332 585.8343 374.5215 586.3932 374.1861 586.7285 374.1861 587.0638 374.4097 586.952 374.745 586.8403 375.1921 586.3932 376.3098 586.1696 376.6451 585.499 377.4275 585.6108 377.8746 585.8343 378.4334 586.1696 379.6629 586.1696 380.6689 585.499 383.0161 584.4931 385.2515 583.7107 386.481 583.7107 387.0398 583.9342 387.7105 584.4931 388.4928 585.499 389.6106 586.2814 390.2812 586.952 390.6165 588.1815 392.0695 586.7285 393.0755 587.0638 395.5344 586.952 395.9815 586.6167 396.3168 586.0579 396.4286 585.2755 396.9875 585.1637 397.6581 585.1637 399.8935 584.9402 400.4524 584.6048 400.5641 584.3813 400.3406 583.8224 399.67 583.4871 399.5582 583.04 399.7817 582.593 400.1171 582.2576 400.3406 581.9223 400.4524 580.8046 400.4524 579.7987 400.7877 579.4634 401.123 577.3397 404.2526 576.8926 405.1468 576.6691 406.1527 576.4455 406.488 576.1102 406.7116 575.7749 406.7116 575.5514 406.488 575.5514 406.3762 575.7749 405.7056 575.7749 405.3703 575.5514 405.1468 574.9925 405.2585 574.6572 405.7056 574.2101 406.3762 573.9866 407.1586 573.5395 407.4939 573.0924 407.7175 571.8629 407.6057 570.857 407.8293 570.5217 408.0528 570.5217 408.3881 570.7452 408.7234 570.9688 409.1705 571.0805 412.0766 570.9688 412.4119 570.7452 412.6354 569.5157 412.6354 568.7333 412.859 568.2862 413.1943 568.0627 413.6414 568.1745 414.0884 568.9569 415.4297 569.0686 415.8768 569.0686 416.3239 568.8451 417.1063 568.398 417.5534 566.2744 419.1182 566.0508 419.4535 566.6097 420.3476 566.7215 420.9065 566.0508 422.9184 565.7155 424.4832 564.5978 426.1597 564.5978 426.7186 564.5978 427.7245 564.9331 428.0598 565.3802 428.1716 566.1626 428.0598 566.945 427.8363 569.7393 427.501 572.4218 427.9481 573.0924 428.1716 573.9866 428.6187 578.681 432.866 579.9105 434.4308 580.6928 436.3309 581.0282 438.6781 580.9164 441.0253 580.3575 443.149 576.8926 448.6257 574.9925 453.879 574.769 454.9967 574.769 456.1144 574.9925 457.2321 575.5514 458.2381 576.222 459.1322 578.2339 461.2559 578.4574 461.703 578.4574 462.2618 577.1162 464.4972 576.6691 465.3914 575.1043 472.0977 576.3338 474.892 575.9985 477.9098 575.1043 481.0394 571.0805 484.7278 569.404 485.9573 566.945 488.1927 565.492 490.0928 560.0152 497.9168 552.5265 497.4697 549.0616 495.1226 545.2614 493.8931 548.6145 491.2106 547.6086 490.0928 545.3732 486.2926 542.2436 478.2451 540.3435 474.7802 538.6669 472.9919 535.202 469.7505 532.0724 468.8563 514.9714 469.1916 505.6944 466.1738 493.176 461.1441 482.2224 459.244 476.7457 457.2321 462.7743 444.9373 446.3439 428.3952 439.4141 419.1182 434.0491 406.0409 433.0431 399.4464 431.4783 392.8519 428.7958 389.1635 428.0134 385.475 427.5663 377.7628 425.6662 367.1446 413.4832 374.0744 410.13 373.6273 405.771 371.1683 385.8757 354.8497 381.8519 336.8546 381.7402 309.6942 380.9578 307.9058 383.5285 295.7228 395.2645 293.152 431.7019 292.9285 435.5021 292.3696 436.508 291.699 436.7316 290.9166 436.508 290.3578 436.0609 289.6871 436.0609 289.4636 436.6198 288.0106 436.7316 287.4517 436.6198 287.0046 436.3963 286.2222 436.3963 285.8869 436.2845 285.5516 435.9492 284.4339 435.8374 284.2103 435.5021 284.3221 435.1668 284.2103 434.8315 284.2103 434.4961 284.2103 434.0491 284.0986 433.9373 283.9868 433.8255 283.7633 434.0491 283.5397 434.1608 283.2044 434.0491 282.9809 433.7138 282.9809 433.4902 282.9809 433.3784 282.7573 433.3784 282.3102 433.2667 282.1985 432.9314 282.0867 432.7078 281.9749 432.4843 281.7514 432.3725 280.969 431.5901 279.516 431.2548 278.6218 430.6959 278.51 430.4724 278.3982 430.2488 278.51 430.1371 278.51 430.0253 278.2865 429.9135 277.9512 429.9135 277.057 430.2488 274.9333 430.2488 274.1509 430.3606 273.3685 430.8077 272.3626 430.9195 271.8037 430.8077 271.4684 430.5842 271.4684 430.4724 271.5802 430.2488 271.5802 429.9135 271.4684 429.69 271.2449 428.5723 268.0035 428.4605 266.9976 428.3487 266.1034 427.9017 265.2092 427.3428 264.5386 425.778 263.3091 424.9956 262.5267 422.2013 258.9501 421.9778 258.0559 421.9778 256.4911 421.4189 255.5969 421.1954 254.7028 421.1954 253.8086 421.4189 252.132 421.6425 251.7967 422.0895 251.1261 422.6484 250.1201 422.7602 249.3377 422.5366 248.4436 421.5307 245.9846 420.6365 244.6433 420.6365 244.4198 420.8601 244.1963 421.1954 243.9727 421.5307 243.1903 421.866 242.7432 422.2013 242.2961 422.5366 242.1844 422.8719 242.1844 423.2073 242.1844 423.5426 242.2961 423.7661 242.1844 423.9897 242.0726 424.1014 242.0726 424.4367 242.0726 424.7721 242.0726 427.6781 240.7314 428.9076 239.8372 431.2548 237.8253 432.2607 237.2664 433.1549 236.9311 434.8315 236.8194 447.2381 228.3248 453.9443 225.5305 455.8444 224.1892 457.8563 223.5186 459.3094 222.4009 460.8741 219.7184 461.6565 218.7124 463.1096 218.2653 464.4508 218.1536 465.4568 217.5947 465.7921 215.8064 466.0156 214.8004 467.0216 213.9063Z" />
  <path class="Wasit" d="M735.6077 490.3164L735.943 490.4282 736.2783 490.6517 736.6136 490.8752 739.9668 495.2343 741.1963 497.358 741.9787 499.5934 742.314 502.1641 742.4257 504.176 742.8728 505.9644 746.3377 509.2057 750.3615 515.0178 753.6029 517.5886 755.0559 519.0416 755.9501 521.1652 755.9501 522.3947 755.3912 524.7419 755.2794 525.7479 755.7265 526.8656 756.956 527.648 756.956 528.7657 756.2854 530.3305 754.8323 532.007 752.1498 534.8013 749.9144 536.3661 748.3496 536.7014 746.5613 536.5897 744.3259 536.8132 742.314 537.9309 742.2022 539.3839 743.6552 540.6134 748.1261 541.1723 750.0262 541.9547 751.4792 543.2959 752.0381 544.9725 751.3674 547.0961 749.9144 548.6609 748.2378 550.0022 746.8966 551.4552 749.132 556.3732 755.0559 557.1556 767.1272 555.7025 777.969 559.1674 788.1402 563.9736 791.0462 566.8796 800.5468 572.3564 798.982 575.1507 797.976 576.3802 795.7406 577.945 794.9582 579.1745 788.3637 599.2933 787.6931 605.1054 787.8048 612.4823 787.6931 613.8235 787.3578 615.053 787.0224 616.7296 786.6871 617.512 785.2341 619.7474 784.6752 621.0887 784.5635 622.2064 785.4576 623.1006 787.1342 624.5536 787.5813 625.2242 788.0284 626.2301 787.8048 627.2361 783.5575 639.6427 782.9987 641.7663 783.334 643.5547 785.1223 645.1195 797.6407 650.4845 799.6526 653.5023 800.8821 655.7377 798.0878 673.8447 795.9641 674.0682 792.0521 673.174 788.3637 671.2739 784.3399 670.7151 771.598 671.2739 745.1083 671.2739 741.6433 672.5034 741.1963 672.9505 740.7492 673.8447 740.3021 674.0682 739.6315 674.18 737.9549 673.8447 737.0607 673.5094 736.1666 673.3976 735.2724 673.7329 731.8075 676.4154 731.2486 676.5272 730.8015 676.0801 730.4662 675.8565 730.2427 675.7448 730.0191 675.8565 729.5721 676.3036 729.125 676.5272 728.6779 676.6389 728.2308 676.1919 727.6719 676.1919 721.4128 678.7626 711.2416 678.2037 706.4354 667.0266 706.3237 666.2442 706.7707 665.6854 707.4414 665.0147 707.1061 663.5617 700.0645 661.4381 693.6935 659.0909 692.0169 658.0849 691.011 656.5201 689.7815 654.2847 687.9932 651.8257 677.822 642.2134 676.2572 640.4251 675.6983 638.525 675.9219 636.8484 677.2631 633.607 677.4867 632.4893 677.1514 631.4834 674.916 630.8128 673.6865 629.0244 666.5331 628.1303 663.9624 627.0125 663.2917 625.1124 657.3679 624.33 657.1443 621.7593 656.9208 617.9591 655.5795 617.9591 649.5439 617.7355 647.7556 617.1767 646.1908 616.059 644.1789 614.0471 642.3905 611.8117 638.3668 602.7582 634.0077 588.2279 633.4488 586.9985 631.9958 585.4337 630.5428 584.2042 627.9721 582.7512 624.6189 581.4099 624.0601 580.404 623.1659 580.1804 619.4774 579.7333 614.336 578.1685 607.8532 574.3683 607.0708 574.2565 592.6524 573.2506 592.0935 573.0271 591.5347 572.58 590.864 571.9094 590.1934 570.0092 589.5228 566.9914 589.1875 554.6966 588.4051 551.1199 590.1934 550.114 592.4288 550.7846 592.6524 550.6728 593.0994 550.3375 593.5465 549.5551 593.9936 548.4374 594.9996 546.6491 596.0055 543.5195 596.7879 541.8429 597.4585 541.3958 598.1292 542.5135 599.0233 544.9725 599.5822 546.0902 600.2528 546.9844 601.0352 547.655 601.9294 548.3256 603.0471 548.8845 604.1648 549.2198 605.2825 549.3316 606.4002 548.8845 607.5179 547.8785 607.965 547.655 607.4062 545.8667 607.0708 545.3078 606.512 543.9666 607.5179 542.5135 609.3063 540.7252 613.6653 537.2603 616.0125 533.9072 618.248 531.2246 620.2598 529.5481 623.2777 529.7716 635.0136 532.5659 638.5903 532.9012 648.538 531.7835 680.5045 541.0605 686.5402 542.7371 687.3226 542.4018 688.4403 541.8429 689.7815 540.1663 691.4581 538.378 695.3701 535.0249 696.0407 534.2425 698.3879 530.7776 701.0704 527.4244 702.4117 525.4125 703.3058 522.8418 703.7529 521.1652 704.4235 519.824 705.4295 518.4827 709.0062 514.1237 710.1239 512.4471 710.6827 511.7765 711.1298 511.5529 711.5769 511.6647 712.024 511.8882 712.3593 512 712.8064 511.8882 714.3712 511.2176 715.6007 510.4352 716.4948 509.6528 717.5008 508.3116 722.3069 504.7349 723.0893 504.3996 723.76 504.176 724.3188 504.176 725.213 503.9525 726.4425 503.3936 728.7897 501.9406 729.9074 501.0464 730.6898 500.1523 731.8075 495.7932 732.2546 495.0108 733.8194 492.2165 735.6077 490.3164Z" />
</svg>