<?xml version="1.0" encoding="utf-8"?>
<svg xmlns="http://www.w3.org/2000/svg" viewBox="0 0 1021 699" style="stroke-width:0.25px;stroke-linejoin:round;stroke:#444;fill:#ddd" fill-rule="evenodd">
  <path class="Austurland" d="M914.7294 136.52L915.6235 141.5497 915.7353 144.0087 915.5118 144.9029 914.2823 146.1323 913.8352 147.1383 913.8352 148.1442 913.947 150.6032 913.8352 151.6091 911.7116 157.0859 911.3762 158.6507 910.3703 159.6567 904.3347 167.1453 897.6284 172.175 895.5047 174.9693 895.7283 178.8813 893.8282 182.0109 889.2455 187.1524 891.9281 187.0406 894.387 185.0287 898.7461 179.4402 897.2931 184.0228 894.6106 189.0525 893.6046 193.0762 896.846 194.7528 900.0873 193.7469 907.3525 189.4996 927.136 184.1345 934.2893 180.2226 937.9778 179.2166 940.9956 182.458 936.9718 191.8468 934.7364 194.1939 934.96 196.0941 935.6306 197.9942 935.9659 198.7766 936.413 199.3354 938.5366 200.9002 944.3487 204.924 946.0253 207.0476 940.9956 208.6124 938.3131 210.7361 936.0777 216.4364 931.3833 222.1367 929.4832 226.9429 922.4416 235.3257 921.1003 238.2318 919.9826 241.4732 919.5355 245.2734 920.6532 243.485 922.6651 238.6789 923.6711 237.6729 924.677 237.0023 927.8066 233.8727 928.7008 232.4197 930.3773 228.7312 941.778 211.5185 943.7899 210.0655 946.2488 210.7361 953.6257 216.2129 952.1727 214.0892 949.4902 211.1832 948.4843 208.7242 968.7149 220.9073 971.2856 221.3543 981.4568 218.7836 983.1333 219.0072 984.251 220.1249 984.9217 222.8074 985.0334 225.0428 984.4746 226.6076 983.2451 226.9429 983.2451 228.3959 986.1512 228.2842 987.4924 228.7312 988.2748 230.0725 988.3866 231.6373 988.163 233.6492 987.716 236.2199 988.3866 237.8965 989.169 239.126 990.8455 240.6908 995.0928 234.3198 997.44 232.5315 1000.2343 233.2021 1000.7932 234.208 1000.905 235.5493 1000.7932 236.8905 1000.905 237.6729 1001.4638 237.7847 1002.8051 237.3376 1003.3639 237.6729 1006.6053 241.2496 1007.2759 242.3673 1007.3877 247.2853 1006.0464 250.3031 1004.3699 252.4267 1003.3639 254.4386 1003.5875 255.7799 1004.7052 259.9154 1004.7052 261.8155 1004.1463 262.7097 1000.905 265.0569 1001.9109 266.3981 1001.9109 268.0747 1001.5756 270.0866 1001.5756 272.5455 998.446 274.8927 990.0631 273.5515 986.3747 275.5634 988.7219 277.5752 995.8752 280.146 996.2106 283.7227 994.0869 286.1816 991.0691 287.5229 986.4865 287.6347 984.5864 288.1935 980.6744 290.6525 973.0739 292.1055 970.615 293.6703 972.068 295.6822 986.71 290.2054 991.1809 290.6525 1000.0108 288.3053 1002.8051 289.1994 1007.3877 292.2173 1009.7349 294.788 1010.629 297.1352 1011.0761 298.3647 1008.8407 300.0413 1005.1523 305.9651 1003.1404 307.3064 991.5162 310.3242 979.1096 310.3242 973.8563 311.6655 968.156 311.6655 970.9503 313.9009 981.6803 311.6655 995.8752 313.342 1002.2462 311.6655 1005.7111 311.6655 1006.6053 312.4479 1006.1582 314.0127 1004.7052 316.4716 1004.4816 317.8129 1004.5934 318.8188 1004.5934 319.713 1004.1463 320.7189 1000.5696 322.2837 997.5518 322.619 994.6458 323.7367 994.6458 325.4133 1001.6873 323.9603 1003.3639 325.4133 1003.3639 326.7546 1002.4697 326.9781 1001.6873 327.6487 1000.905 328.5429 1000.2343 329.8842 1003.1404 329.8842 1004.0345 330.3312 1004.7052 331.3372 1005.264 332.3431 1005.7111 332.7902 1006.6053 332.1196 1008.0583 329.1018 1008.8407 328.4311 1009.0642 327.537 1011.7468 322.2837 1015.4352 317.8129 1015.7705 321.0542 1015.6587 325.6369 1015.4352 330.1077 1014.8763 332.7902 1014.8763 334.355 1016.5529 335.5845 1017 337.7081 1016.4411 340.3906 1014.8763 343.2967 1012.9762 345.085 1009.0642 346.2028 1007.2759 347.7675 1008.8407 350.7854 1009.7349 352.7972 1009.5113 353.8032 1008.0583 354.4738 1005.1523 357.6034 1003.6992 358.3858 997.1047 356.7092 991.4044 357.7152 989.5043 356.7092 988.6101 354.6974 987.8277 351.6795 986.9336 348.997 985.4805 347.7675 983.9157 347.3205 980.8979 345.1968 976.0917 343.5202 970.9503 338.4905 968.156 337.3728 968.7149 339.72 969.7208 341.5084 970.8385 342.7378 971.8444 343.2967 968.4913 347.0969 949.8255 347.7675 949.8255 349.4441 978.886 352.2384 979.7802 353.1326 981.0097 354.8091 982.1274 356.9328 982.6862 359.0564 983.4686 360.1741 987.716 364.1979 997.2165 368.557 999.1166 371.6866 995.2046 374.7044 990.7338 374.0338 982.6862 370.1218 973.521 371.6866 967.8207 369.2276 966.2559 370.1218 971.7327 374.0338 984.9217 377.1634 990.8455 382.0813 991.5162 383.3108 992.4103 385.3227 992.7457 387.2228 991.7397 388.0052 990.2867 388.6758 987.9395 391.8054 986.71 392.476 977.0977 388.6758 974.4152 391.1348 984.3628 395.1585 986.0394 396.8351 986.0394 399.1823 983.4686 399.9647 972.9622 399.5176 970.0561 398.3999 969.4972 399.4058 968.7149 400.0765 966.8147 401.3059 966.8147 402.8707 969.609 406.4474 971.1738 408.7946 972.5151 411.8124 971.062 412.3713 966.8147 416.1715 946.3606 420.5306 943.1193 419.5246 941.2191 418.4069 939.9897 416.9539 937.4189 408.4593 935.0717 406.1121 932.6128 401.0824 931.1597 399.9647 924.0064 398.3999 924.9006 399.6294 925.9065 399.9647 928.0301 399.9647 929.3714 400.9706 929.1479 403.2061 928.589 405.665 928.3655 407.2298 929.8185 409.0182 934.4011 411.5889 935.9659 411.8124 935.9659 413.2655 935.8541 415.948 937.0836 419.3011 938.8719 422.3189 939.9897 423.5484 944.684 425.1132 946.3606 427.0133 945.3547 429.3605 946.0253 430.9253 930.6009 425.6721 925.9065 429.3605 927.3595 431.2606 931.048 433.1607 932.8363 435.2844 933.7305 437.6316 933.6187 439.7552 932.6128 441.4318 930.9362 442.5495 918.6414 442.5495 917.5237 444.0025 918.6414 446.9086 920.4297 449.2558 921.4356 449.2558 922.3298 451.4912 924.3417 452.8325 926.13 452.9442 926.4653 451.3794 930.2656 450.3735 935.9659 441.7671 938.8719 439.6435 939.4308 440.7612 937.9778 443.1084 929.5949 453.3913 928.3655 455.962 928.0301 457.8622 927.8066 462.333 927.3595 464.0096 924.3417 469.3746 924.0064 471.2747 924.1182 472.616 924.2299 473.3983 924.3417 474.8514 924.3417 475.6338 923.7828 476.3044 923.3358 476.7515 922.8887 477.3103 922.6651 478.6516 922.5534 479.5458 921.5474 482.8989 921.1003 483.5695 911.5998 484.6872 904.8935 487.0344 902.5463 488.1521 906.5701 484.9108 914.7294 482.5636 918.9767 480.887 916.6295 479.2105 906.3465 477.6457 905.6759 477.981 905.5641 478.8751 905.6759 481.6694 905.3406 482.34 904.67 482.7871 902.6581 484.799 901.5404 485.2461 901.2051 485.805 899.305 489.4934 898.1872 490.4993 893.1575 493.8525 891.0339 496.0879 889.1338 498.6586 888.0161 501.2294 888.4631 498.7704 888.7985 497.7645 889.2455 496.8703 889.2455 495.4173 888.5749 495.4173 888.0161 497.5409 886.563 499.3293 884.9982 500.6705 883.8805 501.2294 883.5452 501.9 883.8805 503.4648 884.5512 505.0296 885.4453 505.7002 887.4572 505.4767 888.3514 505.0296 889.2455 504.1354 889.6926 507.0415 890.475 509.9475 888.4631 509.8358 885.6689 513.4124 883.8805 514.3066 879.6332 513.8595 877.7331 513.0771 875.9448 511.5123 873.0387 507.9356 871.2504 506.3708 869.3503 505.7002 868.5679 506.2591 866.8913 509.0534 865.9971 509.9475 864.8794 509.6122 863.7617 508.8298 862.7558 508.4945 861.5263 509.9475 862.7558 511.5123 861.7498 512.5183 860.6321 512.8536 858.3967 512.7418 860.185 506.9297 860.185 505.7002 857.279 506.4826 855.826 506.3708 855.1553 504.9178 854.7083 501.5647 853.7023 499.441 852.4728 498.6586 851.3551 499.7763 851.3551 501.2294 852.1375 502.2353 852.6964 503.353 853.0317 504.8061 853.367 506.9297 852.1375 506.1473 849.455 505.1414 848.2255 504.1354 848.2255 502.7942 849.1197 499.7763 847.7784 495.3055 845.543 491.2817 843.5311 489.4934 841.631 487.3697 837.9426 485.9167 835.5954 485.2461 837.1602 486.4756 840.4015 487.8168 842.3017 488.8228 843.1958 491.17 844.9842 496.3114 845.7666 498.0998 844.9842 499.3293 844.2018 499.6646 843.4194 499.2175 842.637 498.0998 842.637 499.7763 844.4253 501.4529 844.7606 504.6943 843.9782 508.3827 842.637 511.5123 840.4015 512.63 835.2601 511.2888 833.1364 512.7418 834.3659 513.9713 835.8189 514.3066 838.8367 514.3066 836.4895 516.3185 830.5657 518.4421 825.3124 519.001 819.7239 521.0129 817.3767 523.0248 816.9296 522.0188 816.3707 521.0129 816.1472 520.0069 813.5765 523.6954 805.3054 530.2899 813.0176 527.6074 814.8059 528.9486 811.7881 531.5194 787.8691 538.8963 784.516 541.9141 788.875 541.9141 788.875 543.2553 783.0629 548.285 781.051 548.9557 780.1569 549.5145 777.0273 553.3147 774.7919 554.8795 773.8977 555.9972 773.2271 557.7856 772.2211 555.7737 771.327 555.3266 770.4328 556.2208 769.4268 557.7856 769.4268 559.2386 770.6563 559.2386 770.6563 560.4681 765.1795 564.3801 763.1677 564.9389 763.7265 561.9211 758.6968 565.7213 756.3496 568.6274 754.8966 572.0923 756.3496 572.2041 757.5791 571.0864 758.4733 569.8569 756.1261 574.7748 754.8966 576.5631 748.3021 582.2635 743.8312 589.3051 741.037 590.8699 742.1547 590.1992 743.2724 589.1933 744.2783 587.6285 744.7254 585.1695 730.8658 596.682 718.571 600.2586 716.6708 599.6998 715.1061 598.0232 715.7767 599.2527 716.5591 600.1469 717.4532 600.7057 718.3474 600.8175 716.5591 601.8234 715.1061 602.2705 715.4414 604.5059 715.3296 607.3002 714.8825 609.871 713.8766 610.7651 713.4295 610.0945 713.2059 608.7532 713.2059 605.8472 712.9824 605.1766 711.3058 603.7235 707.8409 598.9174 706.9468 598.0232 705.4937 597.4644 704.7113 598.0232 704.4878 599.9233 704.4878 602.9411 704.7113 606.8531 704.7113 609.5356 704.1525 610.7651 702.923 610.0945 702.6994 608.1944 703.1465 602.9411 702.923 601.041 702.2524 598.6938 701.5817 597.3526 701.2464 598.6938 701.2464 604.2824 701.1347 606.8531 700.6876 609.3121 701.9171 611.2122 701.47 612.5535 700.0169 613.4476 698.1168 613.7829 699.2345 609.0886 699.2345 606.9649 698.6757 605.2883 699.1228 603.3882 699.3463 602.6058 699.6816 602.2705 700.464 601.7117 700.5758 600.4822 700.2405 599.4762 700.0169 599.3645 700.464 593.7759 700.5758 590.7581 700.3523 589.4168 700.0169 588.5227 699.011 586.9579 698.0051 586.0637 697.4462 587.1814 697.2227 592.6582 697.3344 594.7818 698.1168 596.682 696.6638 598.0232 694.8755 597.9114 693.4224 598.2468 692.4165 600.8175 693.5342 602.9411 694.0931 605.4001 694.6519 607.6355 696.2167 609.3121 694.5402 611.6593 691.0752 612.4417 684.4807 612.2182 683.1395 611.7711 679.7864 609.3121 678.5569 610.0945 677.3274 611.5475 676.3215 611.5475 675.9861 607.9708 664.6972 615.1242 659.5558 616.8008 659.444 614.4536 659.7793 578.0162 660.3382 573.8806 663.5795 561.027 706.4997 469.3746 723.936 433.6078 726.1714 425.8956 728.0715 417.401 728.6304 414.4949 728.8539 412.4831 728.8539 410.6947 728.6304 408.7946 728.295 407.118 727.7362 405.3297 727.5127 403.5414 727.0656 401.8648 724.9419 395.8292 724.7184 394.1526 724.8301 393.1466 725.0537 392.3642 727.5127 386.9992 728.8539 384.9873 729.5245 383.6461 729.7481 382.6402 729.7481 381.6342 729.301 379.9576 729.1892 379.1752 729.1892 377.9458 729.4128 376.4927 729.8598 373.2514 730.3069 372.0219 730.8658 371.2395 733.213 371.1277 738.4662 368.4452 740.1428 367.9981 743.8312 367.8864 745.5078 367.551 746.1784 367.2157 747.1844 366.2098 751.9905 359.1682 755.9025 354.9209 757.0202 354.2503 763.1677 352.2384 764.2854 351.3442 765.6266 349.7794 767.862 346.091 768.6444 344.3026 768.6444 343.0732 766.9679 341.7319 766.6326 341.173 766.5208 340.2789 766.5208 339.2729 766.9679 337.1493 767.1914 336.2551 768.4209 328.7664 768.5327 327.8723 768.4209 324.0721 768.1974 321.2778 768.1974 319.3777 768.3091 317.5893 768.5327 316.1363 768.5327 315.5774 768.4209 315.2421 768.1974 314.1244 768.3091 312.5596 768.9798 309.43 769.5386 307.6417 769.9857 306.4122 772.6682 302.5002 775.3507 296.7999 776.3567 295.7939 781.1628 292.2173 782.1688 290.9878 782.9512 289.1994 784.0689 285.6228 784.516 283.8344 784.6277 282.3814 784.1806 279.8107 783.6218 278.2459 781.051 273.6633 779.3745 271.3161 772.3329 266.3981 771.8858 265.8393 771.2152 264.6098 770.9916 263.9392 770.8799 263.1568 770.8799 261.8155 771.327 259.3565 771.6623 258.1271 772.1094 257.2329 773.3388 255.7799 775.1272 252.2032 776.8037 251.5326 777.6979 250.6384 778.9274 248.9618 780.1569 246.1675 781.6099 241.9202 782.5041 238.3436 782.7276 236.7788 783.0629 232.755 783.2865 231.4138 783.8453 229.849 784.6277 228.843 785.8572 228.6195 814.4706 234.4316 815.4766 234.3198 815.7001 233.3139 815.8119 230.6314 815.9237 228.9548 816.3707 226.9429 818.4944 219.7895 818.6062 217.8894 818.3826 216.1011 818.0473 214.3128 817.712 212.6362 817.6002 210.4008 817.4884 204.5887 817.3767 202.9121 817.0414 201.6826 816.3707 199.8943 816.259 198.8883 816.1472 197.3235 816.3707 193.8586 816.5943 192.2938 817.0414 190.8408 818.0473 190.1702 837.1602 184.9169 837.9426 184.3581 838.1661 183.2404 838.2779 182.2344 838.6132 181.005 839.2838 179.5519 840.7369 177.7636 842.0781 176.6459 846.996 173.7398 848.1138 172.5103 849.0079 170.8338 850.2374 165.5805 858.3967 164.351 863.8735 160.1037 867.5619 155.9682 869.9091 151.0503 907.3525 146.1323 910.2585 137.6377 914.7294 136.52Z" />
  <path class="Höfuðborgarsvæði" d="M313.0651 492.3994L291.158 514.9772 290.0403 516.8773 288.8108 520.2305 288.4755 521.46 288.3637 523.0248 288.699 524.366 289.9285 529.731 289.1461 532.6371 288.3637 534.9843 280.4279 550.9675 276.6277 558.4562 274.3923 561.6976 272.1569 564.2683 271.7098 565.4978 271.0392 568.8509 270.9274 569.1862 270.3685 569.4098 266.7919 569.298 253.1558 567.7332 241.1963 568.5156 231.4722 568.9627 223.3129 560.1328 231.0251 558.568 233.484 556.8914 235.7195 553.3147 236.5019 554.5442 237.0607 554.7678 237.6196 554.3207 238.1784 553.3147 238.1784 551.9735 236.6136 550.2969 234.3782 548.7321 232.1428 548.0615 230.578 548.9557 231.5839 545.6025 233.8194 543.926 236.3901 543.7024 238.1784 544.7084 237.396 544.9319 235.7195 546.2732 237.396 547.1673 239.1844 547.3909 241.0845 547.0556 242.6493 546.2732 242.6493 544.7084 240.7492 544.7084 241.9787 543.4789 242.6493 543.2553 236.8372 537.8903 233.8194 536.2138 230.578 535.9902 233.3723 533.8666 247.2319 536.4373 247.9025 537.2197 248.3496 538.2256 248.9085 538.8963 251.8145 540.5728 253.2675 540.4611 254.6088 538.8963 253.6029 539.1198 252.5969 539.008 251.7028 538.4492 250.8086 537.4432 251.9263 535.8784 252.5969 535.2078 253.3793 534.5372 251.4792 533.1959 253.8264 532.19 257.0678 533.3077 258.2972 533.1959 260.1974 533.1959 262.0975 528.9486 258.9679 530.737 257.2913 530.9605 256.5089 529.6193 257.1795 527.0485 258.6326 525.819 261.5386 524.366 259.6385 523.1365 256.8442 522.8012 254.0499 523.2483 252.0381 524.366 252.5969 520.7893 251.591 519.1128 249.6909 518.6657 247.1201 518.7774 246.226 519.1128 245.4436 519.6716 244.7729 520.6776 241.308 520.0069 244.1023 517.6597 244.9965 515.8714 244.4376 512.7418 246.226 511.5123 250.138 508.718 252.9322 505.5884 254.9441 502.0118 256.5089 497.6527 257.4031 496.3114 258.9679 495.4173 260.9798 494.8584 265.0035 495.529 266.7919 495.529 264.8917 494.7466 264.1094 493.9642 263.4387 493.9642 267.1272 490.7229 269.1391 489.8287 271.3745 489.4934 284.0046 492.8465 286.1283 492.3994 287.6931 489.8287 293.5052 487.9286 301.9998 487.4815 305.6882 485.1343 306.8059 484.9108 310.9415 485.6932 311.8356 486.1403 313.0651 487.1462 313.4004 487.7051 313.624 488.711 313.4004 489.4934 313.0651 492.3994Z" />
  <path class="Norðurland eystra" d="M914.7294 136.52L910.2585 137.6377 907.3525 146.1323 869.9091 151.0503 867.5619 155.9682 863.8735 160.1037 858.3967 164.351 850.2374 165.5805 849.0079 170.8338 848.1138 172.5103 846.996 173.7398 842.0781 176.6459 840.7369 177.7636 839.2838 179.5519 838.6132 181.005 838.2779 182.2344 838.1661 183.2404 837.9426 184.3581 837.1602 184.9169 818.0473 190.1702 817.0414 190.8408 816.5943 192.2938 816.3707 193.8586 816.1472 197.3235 816.259 198.8883 816.3707 199.8943 817.0414 201.6826 817.3767 202.9121 817.4884 204.5887 817.6002 210.4008 817.712 212.6362 818.0473 214.3128 818.3826 216.1011 818.6062 217.8894 818.4944 219.7895 816.3707 226.9429 815.9237 228.9548 815.8119 230.6314 815.7001 233.3139 815.4766 234.3198 814.4706 234.4316 785.8572 228.6195 784.6277 228.843 783.8453 229.849 783.2865 231.4138 783.0629 232.755 782.7276 236.7788 782.5041 238.3436 781.6099 241.9202 780.1569 246.1675 778.9274 248.9618 777.6979 250.6384 776.8037 251.5326 775.1272 252.2032 773.3388 255.7799 772.1094 257.2329 771.6623 258.1271 771.327 259.3565 770.8799 261.8155 770.8799 263.1568 770.9916 263.9392 771.2152 264.6098 771.8858 265.8393 772.3329 266.3981 779.3745 271.3161 781.051 273.6633 783.6218 278.2459 784.1806 279.8107 784.6277 282.3814 784.516 283.8344 784.0689 285.6228 782.9512 289.1994 782.1688 290.9878 781.1628 292.2173 776.3567 295.7939 775.3507 296.7999 772.6682 302.5002 769.9857 306.4122 769.5386 307.6417 768.9798 309.43 768.3091 312.5596 768.1974 314.1244 768.4209 315.2421 768.5327 315.5774 768.5327 316.1363 768.3091 317.5893 768.1974 319.3777 768.1974 321.2778 768.4209 324.0721 768.5327 327.8723 768.4209 328.7664 767.1914 336.2551 766.9679 337.1493 766.5208 339.2729 766.5208 340.2789 766.6326 341.173 766.9679 341.7319 768.6444 343.0732 768.6444 344.3026 767.862 346.091 765.6266 349.7794 764.2854 351.3442 763.1677 352.2384 757.0202 354.2503 755.9025 354.9209 751.9905 359.1682 747.1844 366.2098 746.1784 367.2157 745.5078 367.551 743.8312 367.8864 740.1428 367.9981 738.4662 368.4452 733.213 371.1277 730.8658 371.2395 730.3069 372.0219 729.8598 373.2514 729.4128 376.4927 729.1892 377.9458 729.1892 379.1752 729.301 379.9576 729.7481 381.6342 729.7481 382.6402 729.5245 383.6461 728.8539 384.9873 727.5127 386.9992 725.0537 392.3642 724.8301 393.1466 724.7184 394.1526 724.9419 395.8292 727.0656 401.8648 727.5127 403.5414 727.7362 405.3297 728.295 407.118 728.6304 408.7946 728.8539 410.6947 728.8539 412.4831 728.6304 414.4949 728.0715 417.401 726.1714 425.8956 723.936 433.6078 706.4997 469.3746 654.3025 437.9669 607.8057 410.3594 581.5395 395.0468 572.3743 389.4582 563.7679 381.4107 567.7916 363.7508 570.0271 349.4441 570.4741 345.3086 570.6977 340.5024 570.6977 334.5785 570.3624 323.5132 569.3564 315.0186 568.4623 309.9889 567.7916 307.6417 566.2268 305.1827 564.8856 303.8415 557.3969 299.0353 553.3732 294.3409 551.8084 291.4349 550.5789 287.97 549.4612 280.3695 548.9023 278.1341 548.2317 277.0164 547.3375 276.4575 541.0783 275.5634 539.8488 274.8927 538.8429 273.775 538.1723 272.0985 537.9487 269.7513 537.6134 267.6276 536.7193 265.2804 535.4898 263.8274 534.0367 262.7097 532.6955 262.0391 531.8013 261.2567 531.2425 260.2507 531.3542 258.4624 531.8013 257.0094 532.8073 254.7739 533.1426 253.8798 533.2543 252.8738 533.2543 252.2032 533.2543 250.3031 533.2543 249.6325 533.4779 248.9618 533.7014 248.6265 535.7133 246.1675 536.1604 245.2734 536.3839 244.491 536.6075 243.7086 536.4957 242.9262 536.3839 241.9202 535.8251 240.9143 534.1485 239.126 532.8073 237.3376 530.6836 235.7728 529.3424 234.3198 528.56 233.7609 525.5421 233.2021 524.9833 232.9785 524.648 232.5315 522.8596 229.6254 522.189 228.843 521.5184 228.3959 520.1771 227.9488 519.9536 227.8371 519.6183 227.5018 519.3947 227.2782 518.9476 226.384 518.7241 225.7134 518.6123 224.8193 518.7241 223.7015 518.9476 223.0309 519.2829 222.5838 520.2889 221.6897 520.8477 221.019 521.2948 220.2366 521.5184 219.3425 521.6301 217.5541 521.7419 216.7717 522.0772 216.1011 523.0832 214.6481 523.5303 213.8657 523.7538 212.8597 523.7538 210.0655 523.9773 209.0595 524.3127 208.2771 524.9833 207.7183 528.7835 204.5887 529.4541 203.471 529.6777 202.2415 529.5659 200.1178 529.4541 198.8883 528.6717 197.5471 528.0011 196.6529 527.4422 195.5352 527.1069 194.1939 527.2187 192.6292 527.4422 191.6232 527.6658 190.8408 527.4422 189.3878 526.8834 187.4877 525.4304 183.6875 524.5362 182.1227 523.642 181.2285 521.7419 180.5579 517.2711 175.7517 513.8062 173.181 513.0238 172.2868 512.4649 170.9455 512.2414 169.3807 512.3531 167.1453 512.5767 165.5805 512.912 164.351 513.3591 163.3451 513.8062 162.6745 514.365 162.1156 514.9239 161.8921 518.1652 161.6685 519.0594 161.3332 519.73 160.7744 520.4007 159.992 522.7479 155.9682 523.4185 154.5152 523.7538 153.0622 523.8656 151.4974 523.8656 149.5972 523.642 147.5854 523.1949 146.0206 522.6361 144.9029 521.5184 143.8969 519.9536 143.0028 519.6183 142.5557 519.3947 141.9968 519.6183 141.1026 520.0653 140.432 520.6242 139.8732 521.2948 139.5378 521.7419 138.979 521.9655 138.4201 522.0772 137.8613 522.0772 137.0789 521.9655 135.5141 521.9655 134.6199 522.0772 133.8375 522.0772 133.5022 522.189 133.2787 522.189 133.1669 522.4125 132.7198 522.8596 132.2727 524.5362 130.8197 524.4244 129.0314 523.3067 126.4606 515.5945 117.0718 514.5886 115.3953 511.459 108.8008 509.8942 104.4417 509.1118 102.8769 508.4411 101.7592 504.1938 97.7354 503.7468 97.5119 503.7468 97.4001 504.6409 96.0589 507.8823 93.1528 516.0416 90.135 518.9476 91.4762 518.277 98.8531 520.0653 98.0707 521.2948 96.0589 523.4185 91.2527 522.9714 88.9055 522.7479 88.1231 524.4244 86.7818 526.8834 87.2289 531.466 89.4644 530.7954 92.9293 529.2306 97.8472 529.007 101.2003 530.013 101.2003 536.6075 94.1587 539.29 94.8294 541.5254 97.5119 543.4255 100.5297 545.1021 101.9827 545.9963 103.5475 544.8785 107.1242 542.3078 112.9363 543.4255 113.0481 544.7668 112.7128 545.9963 111.8186 547.0022 110.5891 548.0081 109.6949 549.2376 110.7009 550.4671 112.1539 551.473 112.9363 552.9261 114.6129 553.8202 118.6366 554.4909 123.2193 555.4968 126.6842 553.8202 133.5022 553.0378 137.526 553.3732 139.2025 559.9677 140.9909 564.215 143.6734 571.033 144.6793 571.9272 145.4617 572.9331 147.1383 574.4979 150.8267 576.6216 152.6151 577.2922 154.8505 577.7393 157.533 578.6334 160.4391 578.7452 161.445 579.0805 162.2274 579.7512 162.5627 581.5395 162.2274 582.3219 162.4509 582.9925 163.2333 583.8867 166.0276 584.1102 167.9277 583.8867 174.1869 584.3338 176.7576 586.0103 180.7814 586.4574 182.458 586.4574 191.8468 586.7927 193.2998 587.5751 193.9704 590.2576 197.8824 594.6167 202.465 594.0579 205.4828 594.6167 209.5066 595.6227 212.6362 597.1875 213.195 598.3052 210.4008 598.3052 206.2652 597.5228 202.2415 596.5168 199.559 595.8462 198.7766 593.9461 197.2118 593.3872 196.4294 592.9402 193.8586 593.2755 192.4056 593.7226 191.3997 594.0579 190.0584 593.9461 188.0465 593.7226 186.4817 593.7226 184.8052 594.0579 182.458 594.505 181.5638 596.0697 180.1108 596.5168 179.4402 597.0757 175.1928 596.8521 171.6162 594.0579 160.9979 593.9461 160.2155 594.0579 157.0859 593.8343 156.3035 593.2755 156.3035 592.6048 156.5271 592.046 156.4153 590.2576 152.3915 589.587 151.6091 589.4752 151.3856 589.3635 150.8267 589.1399 150.3796 588.5811 150.1561 588.134 150.715 587.3516 152.8386 587.0163 153.2857 585.7868 152.3915 582.9925 148.8149 581.9866 147.1383 582.8807 143.8969 582.5454 140.8791 581.4277 138.6437 578.7452 136.8553 576.8451 132.1609 575.7274 130.0373 575.7274 128.4725 576.398 128.4725 576.398 126.6842 573.8273 120.425 572.7096 109.8067 573.2684 99.1884 575.7274 92.5939 576.9569 92.0351 585.2279 92.5939 586.4574 93.3763 588.6928 95.2765 589.9223 95.7235 593.8343 95.2765 595.2873 95.7235 595.0638 96.5059 595.0638 96.8413 595.0638 96.953 594.6167 97.4001 598.0816 99.412 607.1351 97.0648 611.0471 98.8531 611.8295 100.5297 612.7237 105.1123 613.6178 106.7889 614.6238 107.236 618.3122 106.7889 619.877 107.6831 622.8948 111.9304 624.5714 112.9363 625.8009 114.054 629.4893 119.7543 630.607 122.2133 632.0601 128.8078 633.1778 131.8256 636.0838 134.0611 637.6486 136.2965 639.9958 140.9909 643.1254 150.3796 644.4667 153.2857 644.9138 148.9266 644.1314 145.5735 642.9019 142.5557 641.8959 139.2025 643.6843 139.3143 645.8079 138.7554 647.9316 137.6377 649.4964 136.1847 641.1135 136.6318 638.8781 134.7317 653.5201 134.5081 654.5261 135.6259 655.1967 138.1966 656.538 142.3321 657.0968 142.3321 657.5439 140.7673 657.6557 139.0908 657.3204 137.526 656.538 136.1847 656.538 134.7317 657.6557 133.7257 658.7734 132.0492 659.3322 129.702 658.9969 126.6842 660.4499 125.1194 661.0088 124.0017 661.5677 122.2133 661.5677 120.9838 661.3441 117.4072 661.5677 114.5011 662.6854 111.3715 665.0326 108.3537 667.7151 106.1183 670.0623 105.2241 671.0682 103.9946 671.5153 101.3121 671.6271 98.6296 671.2917 97.4001 670.2858 96.7295 670.7329 95.0529 672.633 91.9233 675.092 89.2408 680.6805 87.1172 681.6865 83.0934 684.1454 85.4406 693.4224 86.3348 695.7696 88.0113 695.8814 88.2349 697.6697 92.1469 701.2464 101.9827 701.1347 103.2122 701.1347 103.6593 701.1347 104.1064 701.2464 105.2241 700.0169 105.2241 700.0169 106.7889 701.0229 107.6831 702.2524 108.2419 703.3701 108.0184 704.4878 106.7889 703.8172 106.5653 702.4759 105.2241 705.7173 102.6534 717.3415 99.412 720.8064 100.5297 719.2416 100.4179 717.7886 100.9768 716.4473 101.9827 715.1061 103.6593 716.3355 104.4417 717.9003 107.6831 718.571 107.4595 720.4711 102.8769 721.5888 101.0886 722.7065 100.5297 725.2772 103.1004 727.1773 107.1242 729.1892 110.5891 732.207 111.2597 732.207 109.8067 729.301 107.6831 727.848 106.1183 726.842 104.4417 726.0596 101.4239 726.0596 99.1884 725.7243 97.4001 723.936 95.7235 728.1833 92.7057 734.4425 90.5821 738.2427 88.1231 740.3663 88.1231 732.207 92.9293 729.6363 95.7235 737.7956 92.4822 739.6957 92.5939 741.9311 94.7176 745.5078 100.1944 747.9668 100.5297 747.9668 98.8531 744.7254 95.3882 743.0488 92.9293 742.2664 90.3585 742.7135 86.8936 743.6077 83.8758 745.0607 81.6404 746.6255 80.1873 746.7373 79.0696 746.6255 78.8461 746.8491 77.7284 747.7432 75.94 748.3021 73.7046 748.5256 71.581 748.3021 68.0043 747.7432 66.1042 746.8491 64.5394 745.396 61.0745 744.949 60.2921 744.3901 59.845 743.8312 59.7332 743.2724 58.8391 743.1606 56.9389 743.0488 54.8153 742.9371 53.5858 740.3663 51.4622 739.6957 49.6738 740.3663 45.5383 740.031 45.5383 739.1369 45.5383 739.4722 44.8677 740.031 43.0793 740.3663 42.2969 739.6957 41.6263 739.2486 40.6204 738.4662 37.7143 740.3663 37.7143 740.3663 36.1495 738.8015 33.9141 737.0132 26.5372 734.4425 23.5194 735.2249 20.278 737.125 17.4837 739.1369 17.1484 739.6957 18.4897 739.6957 20.278 739.9193 21.731 741.037 21.9546 741.2605 20.9486 741.5958 18.7132 742.2664 16.5895 743.4959 15.5836 746.0667 14.4659 747.6315 14.5777 747.6315 16.366 747.1844 18.9367 747.5197 21.0604 748.3021 22.6252 749.1963 23.4076 749.0845 22.1781 748.9727 21.1722 748.8609 20.1662 748.5256 18.825 749.9787 18.2661 752.7729 15.9189 753.5553 15.5836 754.8966 16.7013 755.9025 18.4897 757.0202 19.9427 758.6968 20.278 757.3556 21.731 756.7967 21.9546 758.3615 23.4076 760.0381 23.0723 761.8264 22.1781 762.3853 21.9546 762.3853 20.278 763.503 18.6014 764.3971 16.4778 765.5149 15.0248 765.6266 15.5836 766.2972 18.1543 767.3032 18.6014 768.3091 17.2602 769.0915 12.9011 769.8739 11.8952 771.8858 10.7774 774.4565 10.7774 779.7098 13.1246 780.7157 12.5658 785.0748 10.6657 792.787 18.4897 797.1461 20.278 795.9166 22.4017 794.4636 23.2958 793.3459 24.7488 792.6752 28.3255 793.6812 28.2138 794.0165 28.3255 794.0165 29.7785 792.1164 31.4551 792.5635 32.1257 793.4576 33.9141 794.0165 34.5847 792.8988 36.7084 794.1283 37.0437 797.4814 36.1495 801.1699 37.0437 802.7347 36.1495 802.6229 37.2672 802.3993 39.7262 802.1758 40.8439 811.0057 40.8439 812.6823 41.5145 814.1353 43.0793 815.0295 45.203 814.8059 47.3266 814.8059 48.6679 816.7061 55.0388 812.7941 62.304 810.6704 65.21 807.8761 67.5572 809.1056 70.7986 810.2233 69.5691 811.341 70.2397 812.5705 71.581 815.7001 72.9222 815.9237 74.5988 815.5883 77.0578 814.8059 80.1873 816.259 81.4168 822.9652 81.7521 826.2066 80.1873 827.3243 80.5227 827.7714 81.5286 828.6656 83.0934 829.1127 83.0934 829.6715 82.6463 830.5657 81.7521 830.7892 84.2111 831.3481 86.223 832.2422 87.5642 834.813 88.7937 837.6073 91.9233 840.6251 94.2705 842.4134 97.4001 844.2018 99.412 846.3254 97.4001 845.6548 97.0648 845.3195 96.6177 845.0959 95.7235 846.6607 94.4941 847.8902 92.0351 848.6726 88.4584 848.8961 83.9876 848.5608 79.405 848.1138 76.1636 848.6726 73.9282 851.3551 72.3634 862.7558 72.3634 869.2385 70.0162 869.6856 68.2278 869.7974 66.216 870.3562 64.4276 876.8389 60.0685 877.8449 57.386 878.5155 53.8094 880.0803 51.0151 883.657 47.3266 886.116 45.5383 893.9399 43.9735 896.1754 44.6441 899.6403 47.6619 901.8757 48.6679 919.4238 45.7618 915.0647 50.568 898.7461 58.1684 891.481 63.757 882.9864 65.8806 880.0803 68.3396 877.8449 72.3634 880.0803 73.2575 881.198 74.3752 881.6451 76.1636 882.204 76.6107 884.1041 80.7462 884.5512 81.7521 885.2218 82.9816 884.7747 85.6641 883.657 89.4644 882.8746 91.2527 874.0447 99.7473 872.4799 100.5297 866.7795 100.865 864.4323 103.1004 862.7558 108.1301 865.5501 110.3656 866.8913 111.0362 872.3681 111.3715 873.5976 113.1598 874.0447 117.4072 873.1505 118.1895 871.4739 119.8661 870.3562 120.6485 872.2563 122.2133 882.651 122.5486 888.5749 125.3429 892.8222 125.0076 900.3109 118.0778 905.1171 117.4072 907.1289 118.5249 908.9173 120.6485 910.2585 124.1134 910.7056 129.2549 911.2645 131.8256 912.6057 132.8316 913.947 133.0551 914.5058 133.9493 914.7294 136.52ZM602.2172 4.2947L604.4526 7.4243 605.235 7.9832 604.7879 10.1068 602.9996 11.4481 601.4348 8.7656 601.2112 4.9653 602.2172 4.2947ZM568.0152 130.7079L568.7976 131.9374 570.1388 134.9552 570.1388 137.526 569.0211 138.4201 567.9034 137.973 567.121 137.1906 566.5622 135.7376 566.3386 134.0611 565.7798 131.2668 564.8856 128.0254 565.4444 127.243 567.2328 129.2549 568.0152 130.7079Z" />
  <path class="Norðurland vestra" d="M563.7679 381.4107L522.7479 390.4641 496.7052 402.2001 473.6803 402.0883 449.5377 409.4652 446.8552 409.6888 444.7316 409.1299 421.0361 398.5117 425.954 390.0171 436.4605 378.3928 437.3547 376.8281 437.9135 374.9279 438.0253 373.4749 437.9135 371.9101 437.69 370.9042 437.2429 369.7865 436.3487 369.4512 409.1883 368.2217 387.2812 367.6628 382.9221 365.4274 381.5809 365.2039 351.9615 374.2573 350.5085 374.0338 346.9318 370.4571 345.9259 370.01 338.3254 369.4512 337.0959 369.0041 329.1602 363.7508 328.266 361.4036 326.813 357.9387 326.2541 355.7033 324.6893 347.3205 322.4539 341.173 321.1127 338.1552 320.3303 335.5845 319.8832 333.3491 319.8832 331.449 320.1067 327.4252 319.9949 323.625 319.1008 320.6072 319.1008 318.5953 320.1067 317.8129 320.7773 314.795 319.4361 309.43 319.2125 305.9651 318.989 304.2886 318.0948 302.0531 316.53 298.8118 315.7476 296.7999 317.2007 294.3409 317.6477 293.6703 317.3124 291.7702 317.9831 290.3172 318.8772 289.0877 319.5479 287.7464 320.1067 284.3933 319.9949 281.3755 318.0948 264.6098 317.7595 257.5682 318.8772 254.4386 321.7833 256.0034 323.6834 260.0272 326.5894 269.416 329.2719 274.781 329.6073 276.3458 330.2779 277.9106 333.4075 279.0283 334.637 280.146 335.3076 278.4694 332.9604 273.4397 330.725 266.6217 329.1602 259.3565 328.3778 252.762 328.0425 247.6206 328.0425 243.9321 328.3778 240.6908 328.8249 239.4613 329.9426 237.3376 330.2779 236.2199 331.2838 229.849 331.6191 228.3959 334.4134 222.9191 344.8081 214.6481 350.3967 207.0476 352.185 206.1535 353.8616 205.5946 355.2029 204.7004 355.5382 202.465 356.7677 202.2415 357.6618 202.9121 359.3384 205.4828 359.7855 205.5946 360.9032 205.3711 361.2385 205.4828 361.462 207.4947 361.2385 208.0536 360.7914 208.1653 360.5679 208.7242 359.8972 217.6659 359.7855 222.1367 360.5679 225.4899 359.4502 229.2901 359.3384 233.0903 360.3443 235.4375 362.468 234.6551 361.462 230.5196 361.6856 226.9429 362.8033 225.2663 365.0387 226.9429 365.8211 228.3959 365.9329 229.2901 365.8211 230.6314 366.1564 233.2021 365.8211 234.8787 365.5976 236.4435 365.5976 237.6729 365.9329 237.5612 367.7212 238.5671 368.1683 239.126 368.8389 241.0261 369.1743 242.4791 369.6213 243.8204 370.6273 245.2734 371.745 246.0558 372.7509 246.6146 373.9804 246.8382 375.0981 246.6146 375.4334 246.3911 377.11 245.1616 378.0042 242.8144 378.4513 239.3495 379.569 234.6551 378.4513 233.6492 376.9982 230.6314 375.9923 230.0725 372.8627 230.296 371.2979 229.849 370.0684 228.3959 373.0862 227.1664 375.9923 226.9429 377.2218 226.4958 379.7925 224.4839 381.1338 223.9251 382.2515 226.0487 381.9162 235.9964 383.2574 239.126 382.9221 235.5493 383.7045 232.8668 384.3751 230.296 383.2574 226.9429 384.2634 224.0369 387.2812 219.6778 388.6224 216.9953 388.9578 215.4305 389.0695 211.742 389.6284 210.0655 390.4108 209.2831 392.0873 209.2831 393.9875 208.7242 391.9756 208.2771 390.7461 205.5946 390.5226 202.465 391.8638 200.9002 392.9815 200.1178 393.8757 197.7706 394.4345 194.641 394.6581 190.9526 393.9875 185.1405 392.1991 179.8872 389.8519 175.7517 387.7283 173.4045 387.7283 171.7279 390.1872 169.3807 389.1813 162.898 386.8341 155.5211 383.3692 147.5854 382.6986 145.4617 382.1397 137.7495 381.4691 133.9493 380.5749 131.0432 379.2337 128.696 377.5571 126.6842 379.0101 124.5605 380.2396 121.0956 380.6867 117.4072 379.569 114.5011 381.3573 112.8245 383.5927 112.4892 387.393 112.9363 388.2871 112.601 389.9637 110.5891 390.8579 109.8067 392.0873 109.4714 395.3287 109.8067 397.1171 108.8008 400.4702 104.5535 401.9232 103.6593 406.3941 105.3359 407.4 105.4476 408.5177 105.5594 410.4178 103.6593 410.8649 108.4655 412.0944 111.3715 413.8827 113.0481 416.1182 114.5011 415.4475 116.1777 416.4535 117.0718 417.1241 118.8602 418.0183 122.2133 419.136 125.5664 423.048 133.0551 423.6068 135.067 423.9421 136.8553 424.3892 138.3084 425.5069 139.2025 425.1716 139.9849 424.6128 141.6615 424.2774 142.3321 426.0658 145.3499 428.5248 147.8089 430.2013 150.715 429.9778 154.8505 431.6543 156.4153 436.5723 157.1977 440.2607 159.7684 441.3784 159.6567 442.3844 159.8802 443.5021 161.7803 444.0609 162.3392 445.2904 162.1156 445.7375 162.5627 446.2964 164.1275 446.6317 165.6923 446.7435 167.2571 446.967 168.8219 449.0906 173.2927 449.5377 174.9693 449.9848 177.7636 450.5437 183.7992 451.1025 186.37 453.1144 189.0525 457.8088 190.5055 459.5971 193.2998 460.156 188.4936 460.8266 186.8171 463.7327 187.1524 464.068 187.5994 465.2975 189.4996 465.9681 190.0584 466.974 190.3937 469.6565 190.282 468.7624 190.729 468.0917 191.5114 467.8682 192.5174 468.2035 194.4175 468.9859 194.4175 470.6625 193.2998 471.6684 191.9585 472.4508 188.8289 473.5685 182.458 474.1274 175.8635 474.2392 170.2749 473.5685 165.0217 472.2273 159.4331 469.6565 151.6091 469.433 150.1561 463.9562 144.0087 463.9562 142.4439 464.2915 140.3202 465.1857 138.5319 466.3034 137.7495 467.98 137.3024 469.7683 136.1847 471.5567 134.2846 472.8979 131.7139 471.892 130.3726 470.9978 128.5843 470.2154 126.3488 469.433 121.5427 469.3212 120.7603 469.7683 120.0897 470.6625 118.3013 472.3391 116.1777 477.5923 113.3834 489.8871 111.2597 494.1344 114.6129 496.4816 115.06 496.2581 111.2597 496.9287 110.3656 497.7111 109.8067 498.4935 109.5832 499.3877 109.8067 499.1641 110.7009 498.8288 112.9363 500.6172 113.7187 503.7468 116.9601 505.6469 117.4072 504.5292 116.4012 503.635 115.06 503.0761 113.3834 502.5173 111.2597 503.1879 111.2597 503.1879 109.8067 502.629 109.4714 501.8466 108.5772 501.2878 108.1301 501.2878 106.7889 502.182 105.1123 503.1879 99.8591 503.7468 97.5119 504.1938 97.7354 508.4411 101.7592 509.1118 102.8769 509.8942 104.4417 511.459 108.8008 514.5886 115.3953 515.5945 117.0718 523.3067 126.4606 524.4244 129.0314 524.5362 130.8197 522.8596 132.2727 522.4125 132.7198 522.189 133.1669 522.189 133.2787 522.0772 133.5022 522.0772 133.8375 521.9655 134.6199 521.9655 135.5141 522.0772 137.0789 522.0772 137.8613 521.9655 138.4201 521.7419 138.979 521.2948 139.5378 520.6242 139.8732 520.0653 140.432 519.6183 141.1026 519.3947 141.9968 519.6183 142.5557 519.9536 143.0028 521.5184 143.8969 522.6361 144.9029 523.1949 146.0206 523.642 147.5854 523.8656 149.5972 523.8656 151.4974 523.7538 153.0622 523.4185 154.5152 522.7479 155.9682 520.4007 159.992 519.73 160.7744 519.0594 161.3332 518.1652 161.6685 514.9239 161.8921 514.365 162.1156 513.8062 162.6745 513.3591 163.3451 512.912 164.351 512.5767 165.5805 512.3531 167.1453 512.2414 169.3807 512.4649 170.9455 513.0238 172.2868 513.8062 173.181 517.2711 175.7517 521.7419 180.5579 523.642 181.2285 524.5362 182.1227 525.4304 183.6875 526.8834 187.4877 527.4422 189.3878 527.6658 190.8408 527.4422 191.6232 527.2187 192.6292 527.1069 194.1939 527.4422 195.5352 528.0011 196.6529 528.6717 197.5471 529.4541 198.8883 529.5659 200.1178 529.6777 202.2415 529.4541 203.471 528.7835 204.5887 524.9833 207.7183 524.3127 208.2771 523.9773 209.0595 523.7538 210.0655 523.7538 212.8597 523.5303 213.8657 523.0832 214.6481 522.0772 216.1011 521.7419 216.7717 521.6301 217.5541 521.5184 219.3425 521.2948 220.2366 520.8477 221.019 520.2889 221.6897 519.2829 222.5838 518.9476 223.0309 518.7241 223.7015 518.6123 224.8193 518.7241 225.7134 518.9476 226.384 519.3947 227.2782 519.6183 227.5018 519.9536 227.8371 520.1771 227.9488 521.5184 228.3959 522.189 228.843 522.8596 229.6254 524.648 232.5315 524.9833 232.9785 525.5421 233.2021 528.56 233.7609 529.3424 234.3198 530.6836 235.7728 532.8073 237.3376 534.1485 239.126 535.8251 240.9143 536.3839 241.9202 536.4957 242.9262 536.6075 243.7086 536.3839 244.491 536.1604 245.2734 535.7133 246.1675 533.7014 248.6265 533.4779 248.9618 533.2543 249.6325 533.2543 250.3031 533.2543 252.2032 533.2543 252.8738 533.1426 253.8798 532.8073 254.7739 531.8013 257.0094 531.3542 258.4624 531.2425 260.2507 531.8013 261.2567 532.6955 262.0391 534.0367 262.7097 535.4898 263.8274 536.7193 265.2804 537.6134 267.6276 537.9487 269.7513 538.1723 272.0985 538.8429 273.775 539.8488 274.8927 541.0783 275.5634 547.3375 276.4575 548.2317 277.0164 548.9023 278.1341 549.4612 280.3695 550.5789 287.97 551.8084 291.4349 553.3732 294.3409 557.3969 299.0353 564.8856 303.8415 566.2268 305.1827 567.7916 307.6417 568.4623 309.9889 569.3564 315.0186 570.3624 323.5132 570.6977 334.5785 570.6977 340.5024 570.4741 345.3086 570.0271 349.4441 567.7916 363.7508 563.7679 381.4107Z" />
  <path class="Suðurland" d="M706.4997 469.3746L663.5795 561.027 660.3382 573.8806 659.7793 578.0162 659.444 614.4536 659.5558 616.8008 652.0671 619.3715 643.4607 621.3834 644.4667 619.9304 645.0255 618.142 645.0255 615.9066 644.4667 613.7829 643.796 616.689 642.6783 618.7009 641.3371 619.3715 639.9958 617.9185 640.2194 619.0362 640.2194 619.595 640.3311 620.0421 640.6664 620.7128 640.6664 622.2776 628.7069 630.8839 629.6011 626.3013 632.0601 623.7306 634.9661 622.6129 637.5369 622.2776 637.5369 620.7128 631.5012 617.5832 629.2658 615.1242 628.8187 617.9185 628.9305 619.0362 629.2658 620.7128 626.9186 622.3893 624.6832 621.9422 622.336 620.8245 619.877 620.7128 621.7771 622.2776 621.7771 623.6188 619.4299 623.507 618.424 623.9541 617.418 625.1836 615.8532 624.2894 614.1767 625.5189 612.8354 627.8661 612.2766 630.1015 611.8295 633.79 610.6 636.3607 608.9234 637.0314 607.2469 635.1312 606.0174 636.8078 605.5703 638.7079 606.1292 640.1609 607.5822 640.7198 608.6999 640.2727 610.6 638.3726 611.9413 637.9255 619.2064 638.7079 621.7771 637.9255 617.7534 645.6377 615.4062 647.7614 612.9472 646.4201 613.2825 646.0848 613.3943 646.0848 613.3943 645.973 613.6178 645.0789 609.8176 645.0789 609.9294 647.0908 607.3586 646.7554 605.9056 647.9849 607.1351 647.7614 607.9175 648.432 608.2528 649.885 607.9175 652.2322 614.7355 651.7851 616.0768 650.6674 613.8414 657.709 610.4882 664.08 606.2409 668.7744 596.8521 673.0217 590.8165 677.6043 585.0044 678.9455 581.9866 674.81 583.2161 673.2452 585.7868 672.351 586.7927 671.2333 588.0222 668.9979 589.1399 667.992 592.046 667.7684 592.046 666.3154 589.4752 666.3154 584.5573 667.7684 581.9866 667.7684 575.7274 663.7447 573.8273 663.4094 574.3861 664.9741 573.7155 665.1977 573.492 665.6448 573.1567 666.3154 574.0508 667.5449 576.0627 671.1216 576.6216 671.7922 577.5157 673.1334 577.9628 676.0395 578.2981 678.9455 578.5217 680.2868 582.4337 680.5103 584.5573 680.5103 586.1221 680.8457 566.4504 683.8635 555.0497 689.3403 535.6015 694.7053 530.9072 694.4817 513.2473 689.005 505.8704 691.0168 503.1879 690.2344 504.1938 690.1227 504.6409 689.7873 505.088 689.005 501.7349 688.2226 500.1701 687.3284 498.8288 685.9871 496.9287 688.6696 484.5221 685.9871 483.4044 685.54 478.5982 681.8516 470.9978 680.2868 460.2678 673.0217 445.514 668.9979 442.4961 666.3154 443.8374 666.0919 444.508 665.3095 444.3963 664.3035 443.2785 663.4094 442.1608 663.2976 440.596 664.5271 439.4783 664.9741 430.6484 663.4094 430.8719 664.4153 440.0372 666.3154 415.7828 664.6388 414.218 662.0681 413.771 662.2916 413.5474 662.627 413.3239 662.9623 412.9886 663.4094 412.5415 662.5152 412.3179 662.2916 411.6473 662.0681 412.3179 664.9741 405.2763 665.0859 401.8114 664.1917 387.84 652.344 386.387 650.6674 387.7283 651.8969 389.1813 652.344 390.7461 652.0087 392.1991 650.6674 390.9696 650.4439 388.846 649.438 387.7283 649.2144 388.1754 646.0848 388.2871 645.0789 386.6106 647.6496 385.1575 648.6556 383.481 648.2085 381.3573 646.4201 381.3573 645.0789 384.5987 646.4201 383.3692 643.2905 381.6926 641.3904 379.7925 639.9374 378.2277 637.9255 376.7747 634.4606 375.8805 631.8899 374.8746 630.6604 372.5274 630.8839 372.5274 632.1134 375.7688 636.696 377.6689 640.1609 378.8983 643.6259 372.7509 637.9255 369.9567 634.2371 368.1683 629.4309 368.6154 629.0956 369.5096 627.8661 368.7272 626.8602 367.4977 623.6188 370.0684 620.601 372.9745 618.9244 379.2337 617.9185 382.1397 619.2597 387.1694 624.7365 390.299 625.1836 388.7342 623.1717 386.4988 619.2597 385.2693 617.9185 378.2277 613.7829 381.022 608.5297 381.3573 606.5178 381.022 603.6118 380.0161 602.8294 379.2337 603.6118 379.569 605.2883 379.569 606.5178 378.4513 608.5297 374.4275 613.7829 371.8568 616.8008 370.0684 618.5891 367.833 619.3715 367.1624 620.1539 367.0506 622.1658 367.1624 624.513 366.9388 626.5249 366.1564 628.6485 365.7094 628.9838 361.5738 626.6366 357.5501 623.06 354.4205 621.6069 347.9377 616.4655 353.9734 616.4655 355.0911 617.0243 357.3265 619.148 358.6678 619.3715 358.8913 618.142 360.1208 617.8067 363.1386 617.9185 363.1386 616.4655 360.5679 616.4655 360.5679 615.1242 360.9032 615.0124 361.5738 615.1242 361.9091 615.1242 361.9091 613.7829 355.3146 615.4595 352.9674 615.1242 352.9674 613.7829 356.097 609.6474 357.103 603.2765 355.7617 597.9114 352.2968 596.682 352.2968 598.0232 354.8675 599.0292 354.644 601.9352 352.8557 605.2883 349.3908 609.9827 347.2671 611.6593 344.8081 612.2182 342.2374 610.7651 343.2433 614.23 343.5787 615.1242 339.8902 611.1004 331.5074 605.5119 319.7714 601.041 315.7476 598.135 313.5122 597.129 311.3886 595.3407 309.4884 592.0993 310.0473 590.5345 309.8238 588.4109 308.9296 583.6047 316.0829 584.0518 319.9949 583.0459 322.6774 580.6987 315.7476 580.6987 311.3886 578.2397 309.8238 577.7926 305.1294 579.1339 304.1234 580.0281 303.2293 581.2575 300.435 584.3871 299.3173 585.1695 299.3173 586.399 304.0117 588.5227 306.3589 590.5345 307.5883 593.6641 305.6882 592.6582 301.4409 591.9876 297.1936 592.5464 294.6229 593.5524 293.1699 595.7878 294.3993 599.3645 293.9523 599.4762 293.6169 599.8116 293.3934 600.3704 293.0581 600.8175 266.1212 604.5059 262.8799 602.2705 259.7503 598.9174 256.8442 596.9055 253.8264 596.4584 241.0845 601.1528 241.0845 601.041 242.8728 597.2408 244.5494 594.4465 266.7919 569.298 270.3685 569.4098 270.9274 569.1862 271.0392 568.8509 271.7098 565.4978 272.1569 564.2683 274.3923 561.6976 276.6277 558.4562 280.4279 550.9675 288.3637 534.9843 289.1461 532.6371 289.9285 529.731 288.699 524.366 288.3637 523.0248 288.4755 521.46 288.8108 520.2305 290.0403 516.8773 291.158 514.9772 313.0651 492.3994 319.6596 483.9048 333.2957 471.0512 343.914 458.3092 346.1494 456.6327 361.015 451.2677 389.9637 432.4901 414.7769 420.7541 417.3476 418.1834 418.8007 416.1715 419.136 415.3891 419.5831 413.8243 419.8066 412.1477 419.6948 409.577 419.4713 406.3356 419.4713 404.8826 419.6948 403.6531 421.0361 398.5117 444.7316 409.1299 446.8552 409.6888 449.5377 409.4652 473.6803 402.0883 496.7052 402.2001 522.7479 390.4641 563.7679 381.4107 572.3743 389.4582 581.5395 395.0468 607.8057 410.3594 654.3025 437.9669 706.4997 469.3746ZM625.9127 628.3132L626.5833 629.5427 626.695 631.331 626.1362 633.6782 624.6832 635.6901 624.1243 636.0254 624.7949 635.1312 625.242 634.0135 625.0185 632.784 624.3479 632.2252 623.3419 632.337 619.3182 633.79 619.5417 632.0017 622.336 629.2074 623.9008 628.2014 624.5714 627.9779 625.9127 628.3132ZM394.7699 684.7576L395.2169 685.54 395.664 687.8872 394.9934 690.1227 394.0992 692.1345 393.2051 693.4758 392.5344 692.6934 392.0873 690.7933 391.4167 689.2285 390.7461 686.8813 391.0814 684.5341 392.8697 683.5282 395.1052 683.4164 395.2169 683.7517 394.7699 684.7576Z" />
  <path class="Suðurnes" d="M266.7919 569.298L244.5494 594.4465 242.8728 597.2408 241.0845 601.041 241.0845 601.1528 238.5138 602.047 234.7135 602.2705 233.484 602.1587 228.6779 603.7235 203.8647 598.0232 201.8528 599.3645 200.1762 601.9352 198.4997 603.7235 196.4878 602.2705 197.829 600.8175 195.5936 600.8175 192.1287 603.0529 189.2227 604.0589 187.4343 605.8472 186.4284 606.5178 185.4224 606.7414 176.4807 605.7354 174.4689 606.5178 174.0218 607.0767 173.5747 608.0826 173.0158 608.865 172.2334 609.3121 171.1157 608.6415 169.7745 605.8472 168.7685 605.2883 169.3274 603.0529 169.998 601.7117 170.5569 600.3704 170.6686 598.0232 170.3333 595.676 169.5509 594.6701 168.545 593.7759 167.5391 592.0993 168.9921 589.9757 170.7804 582.3752 171.6746 580.6987 175.6983 580.6987 176.369 580.0281 175.9219 577.7926 175.0277 577.7926 172.9041 579.2457 171.1157 578.7986 169.1039 577.3455 167.5391 574.663 166.9802 570.6393 168.3215 566.6155 168.7685 564.9389 168.7685 562.48 168.6568 558.1209 168.7685 556.2208 168.6568 554.4325 169.2156 552.7559 170.1098 551.1911 171.3393 550.4087 172.5688 550.9675 175.4748 554.0971 178.6044 556.3326 181.0634 560.1328 183.4106 565.2743 184.64 570.6393 183.2988 570.6393 184.8636 572.9865 187.099 573.6571 196.0407 574.1042 198.2761 573.5453 199.7292 572.0923 198.6114 570.5275 199.1703 568.8509 200.5116 567.3979 201.6293 566.392 202.9705 565.7213 207.3296 564.9389 210.6827 562.2564 211.6887 561.9211 212.8064 562.3682 215.2653 564.4919 216.4948 564.9389 218.842 564.0448 223.3129 560.1328 231.4722 568.9627 241.1963 568.5156 253.1558 567.7332 266.7919 569.298Z" />
  <path class="Vestfirðir" d="M328.266 361.4036L322.1186 361.2919 319.1008 360.1741 316.4183 358.6094 309.2649 352.2384 309.3767 350.7854 309.3767 350.003 309.2649 348.997 308.9296 348.3264 307.9237 347.2087 307.3648 346.5381 305.6882 343.7438 304.7941 342.6261 303.1175 341.173 302.4469 340.0553 301.9998 337.9317 300.435 333.0138 300.2114 330.8901 300.2114 329.3253 300.3232 327.8723 300.435 326.7546 300.7703 325.7486 301.1056 324.7427 303.4528 319.9365 304.0117 318.26 304.2352 316.6952 303.8999 315.0186 302.2233 309.2065 301.888 307.7535 301.4409 306.0769 300.7703 304.6239 296.0759 298.7 295.1817 298.1411 294.3993 297.9176 293.8405 297.4705 293.2816 296.5763 292.611 294.8998 289.9285 291.7702 284.5635 280.7048 282.9987 275.6751 282.3281 274.4457 281.3221 273.775 277.8572 273.775 269.9215 276.1222 269.5861 275.8987 269.0273 275.0045 267.1272 272.6573 266.5683 271.5396 266.3448 270.0866 266.6801 268.6336 267.686 266.7334 269.9215 264.7216 270.5921 263.8274 270.8156 262.9332 270.5921 261.8155 270.4803 260.586 271.0392 257.2329 271.3745 254.6622 271.2627 248.0677 270.2568 245.0498 267.7978 246.8382 266.6801 248.6265 264.4447 254.3268 262.8799 255.7799 253.9382 258.7977 250.8086 258.7977 244.2141 257.3447 238.7373 259.0212 236.949 258.7977 238.7373 255.4446 240.7492 252.762 237.396 249.5207 236.1666 247.0617 235.7195 243.7086 234.49 244.6028 233.2605 245.1616 231.9193 245.3851 230.578 245.2734 231.1369 248.2912 230.3545 249.2971 229.0132 249.0736 228.0073 248.2912 227.2249 246.2793 225.4365 240.9143 224.3188 239.126 224.7659 242.9262 224.5424 246.0558 223.76 248.8501 222.4187 251.309 220.7421 253.3209 219.848 254.1033 218.9538 254.4386 218.6185 255.4446 218.0596 257.4564 217.2772 259.5801 216.4948 260.4743 212.9182 260.8096 211.4651 260.1389 208.8944 256.3387 203.5294 251.309 199.6174 249.2971 199.1703 247.2853 200.9586 243.7086 202.9705 242.2556 213.1417 240.0201 217.389 237.0023 219.6244 236.2199 220.6304 235.3257 220.8539 232.9785 220.9657 230.4078 221.0774 228.3959 221.9716 226.8311 222.9776 225.6017 224.9894 223.9251 222.1952 224.7075 215.4889 234.6551 212.3593 237.2259 209.3415 238.6789 202.8587 239.126 202.8587 237.6729 206.7707 234.7669 207.8884 233.2021 207.8884 231.5255 205.9883 231.7491 204.6471 232.9785 202.2999 236.2199 200.3998 237.0023 199.1703 236.1081 198.1644 234.8787 196.4878 234.6551 196.4878 236.2199 197.6055 238.0083 197.1584 240.0201 195.8172 241.5849 190.6757 243.7086 189.3344 243.038 188.3285 239.126 188.3285 235.5493 188.6638 232.755 188.6638 229.9607 187.4343 226.2723 185.646 218.3365 184.5283 215.654 183.4106 217.7777 183.4106 218.8954 183.4106 221.3543 183.5223 223.7015 184.9754 228.5077 184.9754 230.296 184.4165 231.9726 182.7399 235.8846 181.734 237.4494 180.5045 237.5612 179.1633 235.4375 177.3749 231.1902 176.5925 230.8549 176.0337 236.667 175.363 238.4553 174.3571 239.2377 173.1276 239.126 172.457 238.2318 171.7864 236.4435 169.6627 229.4019 169.2156 225.8252 169.8862 222.025 172.0099 217.8894 171.1157 216.66 170.6686 216.9953 170.2216 217.7777 169.4392 217.8894 166.9802 216.2129 165.4154 216.2129 164.8565 216.5482 164.4095 217.8894 164.5212 219.1189 165.3036 223.9251 166.1978 226.7194 168.7685 243.7086 167.4273 245.0498 165.8625 244.7145 164.1859 243.9321 162.5094 243.7086 162.5094 242.3673 163.0682 240.4672 162.6211 239.0142 161.5034 238.0083 160.2739 237.6729 157.2561 238.6789 156.2502 238.3436 156.1384 236.2199 155.356 236.4435 153.1206 236.2199 153.1206 234.6551 155.2442 232.3079 159.3798 226.7194 161.8387 225.4899 160.9446 223.0309 159.3798 221.3543 156.1384 219.2307 155.6913 224.2604 153.7912 228.5077 151.444 230.6314 149.5439 229.1783 148.985 226.7194 148.538 224.0369 147.9791 221.8014 146.9732 220.9073 146.7496 222.4721 146.3025 229.5136 146.079 231.5255 144.0671 234.0963 138.5903 235.4375 135.9078 237.0023 130.8781 234.4316 128.1956 231.6373 128.4191 228.3959 128.4191 226.9429 125.8484 228.5077 124.2836 232.8668 124.1718 237.7847 125.9602 240.6908 125.9602 242.3673 124.7307 243.5968 122.607 247.0617 121.3776 248.2912 119.9245 248.7383 113.7771 247.9559 111.3182 246.8382 109.7534 246.6146 108.4121 245.8322 107.2944 244.2674 106.2884 242.2556 105.7296 242.3673 105.1707 242.4791 104.7237 242.7026 103.7177 243.7086 104.1648 244.0439 104.3883 244.2674 105.059 245.2734 102.3765 246.3911 97.5703 250.4149 85.1637 252.8738 82.3694 251.309 82.2576 253.9915 81.8106 254.7739 81.2517 254.9975 80.4693 255.7799 77.0044 261.8155 60.127 266.6217 55.8796 266.0628 52.0794 263.4921 52.0794 261.8155 52.6383 260.1389 52.1912 258.4624 51.297 257.0094 50.1793 255.7799 51.8559 256.0034 52.6383 256.4505 53.3089 257.3447 53.6442 253.3209 51.9677 251.1972 49.844 251.5326 48.8381 254.4386 46.7144 251.0855 32.5195 245.2734 6.2532 248.0677 2.9001 247.397 1 243.7086 5.0238 241.2496 7.0356 239.2377 7.9298 237.0023 9.0475 235.4375 14.4125 231.9726 16.0891 230.0725 16.4244 226.6076 16.4244 222.5838 16.9833 219.2307 19.7776 217.3306 21.4541 215.2069 22.6836 214.6481 25.0308 215.0952 33.9725 220.4602 36.655 220.9073 38.2198 221.9132 43.2495 228.3959 46.8262 230.7431 53.3089 232.4197 54.8737 234.5433 56.215 237.1141 57.7798 239.126 60.574 240.579 63.2565 240.3554 68.398 237.6729 64.2625 237.7847 62.0271 237.2259 60.3505 236.2199 58.7857 234.3198 57.5562 231.6373 56.1032 229.4019 54.3149 228.3959 49.7322 223.3662 47.1615 219.0072 44.2554 214.9834 42.6906 211.742 56.5503 214.6481 65.6037 220.0131 68.398 220.9073 66.7215 217.4424 64.2625 214.5363 61.58 212.5244 57.5562 211.0714 52.8618 207.83 48.5028 206.2652 46.4909 204.2534 43.2495 199.559 39.4493 191.735 39.114 188.9407 39.2257 186.2582 39.114 183.5757 38.2198 180.8932 42.1318 177.4283 46.0438 177.6518 84.9402 199.559 85.7226 200.6767 87.3991 204.0298 89.8581 205.9299 90.5287 207.0476 91.5347 211.0714 91.0876 213.5304 90.0816 215.8776 89.2992 219.2307 90.9758 220.2366 93.0994 218.4483 96.8997 213.195 97.235 214.3128 98.688 216.2129 99.6939 214.0892 104.7237 215.4305 106.9591 214.6481 106.9591 213.195 106.1767 212.748 105.7296 212.1891 105.059 210.0655 106.6238 209.9537 110.7593 207.0476 112.3241 206.8241 113.7771 207.0476 115.1184 206.9359 116.4596 205.4828 105.5061 206.4888 100.4763 204.8122 96.8997 202.465 95.6702 201.012 93.9936 198.3295 93.0994 195.8705 93.9936 194.7528 99.6939 192.0703 101.0352 192.5174 102.3765 193.8586 109.9769 192.8527 112.3241 190.6173 114.2242 190.0584 118.248 191.6232 120.2598 191.8468 122.0482 190.0584 120.9305 188.9407 120.3716 188.6054 119.5892 188.6054 119.5892 187.1524 123.9483 184.1345 125.2895 182.458 120.1481 183.2404 117.242 184.5816 113.33 188.1583 88.5168 187.4877 83.5989 185.4758 80.4693 182.458 75.5514 184.2463 74.5454 183.2404 73.2042 181.005 67.8392 174.9693 64.9331 168.8219 62.9212 161.5568 63.2565 154.627 67.1685 150.1561 68.9569 150.0443 74.2101 153.2857 81.0282 154.8505 82.8165 155.9682 85.7226 159.5449 87.3991 160.9979 89.1875 161.2215 94.9996 159.4331 106.2884 164.0157 110.0887 164.0157 116.6832 168.9337 120.2598 170.3867 123.3894 168.8219 115.789 166.2512 113.33 163.2333 105.7296 162.5627 103.3824 161.1097 99.0233 157.1977 89.5228 154.8505 87.3991 153.2857 82.3694 146.3559 79.9105 144.9029 78.681 142.7792 76.6691 141.9968 72.4218 137.973 68.7333 132.7198 67.8392 130.8197 67.8392 123.8899 68.398 120.2014 69.7393 117.4072 73.5395 116.0659 78.3457 117.1836 94.9996 127.3548 99.9175 128.696 103.1589 126.6842 103.6059 130.2608 104.7237 133.3904 106.2884 135.4023 108.1886 136.1847 108.1886 134.7317 106.6238 132.3845 103.8295 125.2311 101.9294 123.7781 99.8057 123.331 95.5584 121.2074 93.4348 120.6485 92.3171 119.8661 89.5228 116.0659 84.1578 111.148 81.0282 106.7889 84.046 104.2182 92.0935 103.4358 98.1292 104.4417 106.2884 111.2597 104.1648 109.2479 100.4763 103.2122 98.4645 101.9827 89.6345 102.2063 87.3991 100.5297 87.3991 98.8531 88.2933 97.0648 89.6345 95.0529 91.1993 93.3763 92.0935 92.9293 92.7641 92.5939 96.5644 92.3704 98.0174 91.1409 98.1292 88.1231 100.2528 87.0054 114.6713 91.2527 124.0601 98.1825 126.8543 98.8531 128.6427 100.3062 130.9899 103.7711 132.5547 107.9066 132.2194 111.2597 132.89 116.1777 137.3608 109.0243 139.1492 108.1301 140.1551 108.8008 141.0493 110.142 142.2788 112.9363 143.9553 115.3953 144.1789 116.6248 144.1789 119.8661 144.7377 123.5546 144.8495 125.79 144.2906 127.4666 142.7259 130.3726 142.2788 130.8197 138.1432 138.7554 137.2491 140.9909 137.9197 140.9909 139.8198 137.7495 144.8495 131.4903 146.7496 128.4725 147.1967 126.5724 147.6438 124.5605 148.2026 122.8839 149.2086 122.2133 150.3263 122.9957 150.9969 124.6723 152.3382 130.0373 151.8911 131.0432 151.7793 131.7139 153.1206 130.3726 154.5736 128.249 156.0266 126.9077 157.3679 128.4725 155.8031 133.7257 153.6794 138.979 150.9969 143.2263 147.9791 145.4617 151.6675 145.2382 153.3441 144.344 154.9089 142.3321 156.6972 136.52 158.0385 133.0551 159.0444 132.3845 160.2739 138.4201 159.7151 144.7911 158.8209 150.0443 159.3798 153.2857 162.5094 142.3321 162.2858 137.3024 162.7329 131.4903 163.5153 126.0135 164.4095 122.2133 165.1919 120.5367 165.6389 120.2014 171.8981 120.7603 172.5688 121.4309 172.7923 124.5605 173.3512 126.4606 174.1336 127.5783 177.7102 131.2668 180.9516 137.6377 181.5105 138.4201 181.6222 139.5378 181.1751 144.344 180.8398 146.9147 180.281 149.0384 179.4986 150.1561 179.7221 151.0503 180.1692 151.6091 175.363 164.9099 174.4689 169.0454 175.1395 170.9455 176.2572 170.6102 178.4926 161.8921 184.5283 145.3499 185.1989 140.9909 185.1989 139.2025 187.099 138.8672 188.4403 140.9909 189.4462 144.2322 190.8992 147.1383 191.5699 147.2501 192.1287 146.6912 192.6876 146.6912 193.3582 148.7031 193.3582 150.4914 192.9111 152.168 192.7993 153.7328 194.0288 154.8505 194.2524 153.621 194.5877 151.3856 195.2583 149.709 195.9289 150.1561 195.9289 151.7209 195.2583 159.4331 194.5877 162.0039 192.3523 166.2512 191.5699 168.8219 191.5699 170.1631 195.0348 168.1513 198.6114 155.6329 201.6293 153.2857 201.6293 151.6091 199.7292 149.4855 198.6114 145.1264 197.9408 140.2085 197.1584 136.1847 195.8172 132.9433 194.1406 129.9255 192.1287 127.6901 190.2286 126.6842 191.1228 123.7781 191.5699 120.9838 192.1287 118.5249 193.3582 116.1777 195.1465 115.2835 197.0466 115.1717 198.6114 114.3893 199.7292 111.2597 197.829 111.3715 193.2464 113.6069 191.5699 115.3953 189.7815 116.0659 182.0693 112.1539 176.9278 106.7889 155.0207 97.1766 148.6497 90.2468 144.7377 80.1873 149.0968 77.3931 162.7329 73.5928 165.6389 73.8164 175.363 76.8342 177.9338 76.8342 178.9397 77.2813 179.3868 78.1755 179.7221 79.2932 180.1692 80.1873 182.6282 82.7581 183.9694 83.0934 185.1989 81.7521 184.5283 80.9697 184.0812 79.852 183.2988 76.8342 187.8814 76.946 190.2286 76.2754 194.2524 73.034 198.835 72.5869 200.9586 70.7986 188.4403 72.8105 184.64 70.7986 182.8517 68.8985 183.187 68.5631 184.64 68.3396 186.2048 66.7748 187.099 65.0982 188.4403 63.757 190.0051 62.9746 191.5699 62.9746 191.5699 61.298 189.4462 60.0685 188.2167 60.5156 184.64 64.4276 179.9457 66.9983 174.4689 67.5572 170.2216 66.663 169.4392 66.1042 169.3274 63.6452 170.1098 61.9686 172.0099 59.7332 172.3452 58.0567 172.7923 53.474 173.1276 52.021 174.4689 50.568 178.8279 48.6679 174.8042 49.562 171.7864 51.6857 164.5212 59.6215 162.8447 60.6274 159.0444 61.298 157.9267 59.9568 158.4856 56.9389 159.9386 53.6976 161.1681 52.021 161.1681 50.3444 158.0385 51.5739 156.4737 52.9152 154.9089 55.0388 151.2205 61.6333 150.4381 62.0804 148.3144 64.7629 133.6724 60.8509 129.8722 58.7273 127.4132 55.3741 125.8484 53.9211 125.2895 52.4681 126.519 50.3444 129.9839 50.0091 134.4548 51.7975 138.3668 51.2386 140.3787 43.9735 137.8079 43.6382 134.9019 41.4028 132.2194 38.1614 130.2075 34.5847 133.1135 32.3493 136.0196 33.6905 138.8139 36.2613 141.6081 37.7143 140.9375 35.1436 140.4904 34.0259 139.708 32.9081 149.8792 31.2316 150.4381 31.4551 150.9969 32.3493 151.7793 35.1436 152.3382 36.1495 154.3501 36.7084 155.2442 34.92 154.9089 32.5728 153.3441 31.4551 151.8911 30.8963 147.3085 26.7607 156.4737 26.7607 158.1503 27.4314 161.3916 30.6727 165.5272 32.3493 168.8803 36.373 170.6686 37.7143 173.1276 37.379 176.7043 33.0199 178.8279 31.4551 178.6044 30.5609 178.2691 28.3255 181.8458 26.9843 184.8636 29.4432 187.7696 32.7964 194.1406 36.0377 195.4818 35.7024 195.9289 32.9081 195.2583 30.5609 192.7993 28.8844 192.1287 26.7607 195.1465 27.2078 197.9408 30.1139 200.0645 34.6965 200.9586 40.0615 202.5234 43.5264 210.0121 47.6619 212.3593 52.021 211.018 54.2564 212.2475 55.7095 216.1595 56.6036 216.1595 58.1684 214.4829 57.6096 213.8123 58.5037 213.5888 60.5156 213.5888 62.9746 214.1476 64.2041 214.93 65.7689 215.0418 67.4454 213.5888 69.122 213.5888 70.7986 214.8183 72.3634 216.0477 70.9103 217.5008 69.7926 219.0656 69.122 220.5186 69.122 221.301 70.1279 222.0834 71.6927 222.9776 72.3634 223.6482 70.7986 225.1012 67.8925 226.5542 67.4454 227.3366 69.0102 226.8895 72.3634 233.3723 71.6927 235.0488 72.3634 235.8312 70.9103 236.7254 70.7986 237.5078 71.4692 238.1784 72.3634 238.6255 73.1458 241.9787 78.6226 241.0845 80.1873 235.7195 84.77 236.949 85.6641 238.0667 84.9935 239.2961 83.8758 240.7492 83.0934 242.0904 83.4287 246.3377 87.1172 247.5672 88.7937 248.2378 89.4644 249.132 89.5761 251.0321 88.3466 252.0381 88.1231 257.8502 91.2527 257.5149 92.0351 257.1795 94.1587 258.7443 95.1647 259.6385 97.959 259.6385 100.6415 258.409 101.9827 258.7443 103.324 259.5267 105.5594 259.6385 106.7889 259.6385 106.6771 259.862 110.3656 260.3091 114.7246 260.868 116.2894 262.0975 117.4072 263.4387 117.2954 265.1153 116.2894 266.6801 115.8424 267.7978 117.4072 268.0213 120.6485 267.1272 123.4428 266.1212 126.0135 265.3388 128.4725 266.5683 128.1372 268.0213 127.0195 269.2508 125.79 269.6979 124.5605 269.8097 120.7603 269.6979 118.9719 267.7978 114.5011 268.9155 113.2716 272.2686 111.595 276.2924 111.2597 276.963 112.0421 277.5219 113.7187 277.8572 115.3953 278.3043 116.1777 279.9809 116.9601 278.8631 118.7484 276.8513 120.425 276.0689 120.6485 275.3982 122.8839 275.8453 124.5605 277.6337 127.5783 279.9809 129.5902 289.9285 126.6842 292.611 127.4666 294.7347 128.696 296.4112 131.3785 297.5289 136.1847 284.5635 137.4142 282.1045 139.4261 272.3804 142.3321 271.0392 142.3321 272.7157 145.5735 275.2865 145.1264 280.4279 142.3321 289.1461 140.7673 291.8286 142.3321 290.7109 144.2322 286.6871 147.1383 286.6871 148.7031 296.6348 145.797 299.0937 147.9207 300.435 152.3915 300.6585 156.3035 299.6526 159.2096 296.8583 160.9979 301.2174 164.0157 301.2174 165.6923 296.6348 176.4223 294.9582 179.4402 292.2757 181.8991 282.9987 185.4758 282.9987 187.1524 284.8988 187.3759 288.3637 186.7053 289.9285 187.1524 294.8464 190.3937 296.2994 191.735 288.699 200.9002 286.0165 203.0239 273.4981 202.465 272.604 201.4591 271.1509 198.553 270.7039 197.8824 268.9155 196.5411 267.2389 193.6351 266.1212 190.5055 266.0095 188.6054 263.6623 185.364 260.868 183.7992 257.8502 183.911 255.2794 185.4758 257.0678 185.8111 261.3151 188.7172 262.8799 190.0584 262.9916 190.729 265.0035 194.4175 265.3388 194.7528 265.5624 197.4353 265.3388 199.2237 264.5564 200.6767 263.4387 202.465 264.8917 204.0298 265.6741 205.1475 266.0095 206.2652 266.4565 209.2831 267.5743 210.9596 268.5802 211.8538 269.0273 212.5244 270.7039 213.9774 286.0165 213.5304 288.699 214.9834 289.9285 217.8894 289.0343 220.4602 284.2282 228.0606 282.3281 230.0725 282.3281 231.5255 286.7989 229.0666 292.4992 223.9251 297.3054 222.8074 299.3173 232.4197 297.4172 240.4672 292.8345 248.2912 287.3578 253.9915 282.9987 255.7799 282.9987 257.3447 292.2757 253.768 295.8524 250.5266 297.7525 249.7442 299.8761 250.1913 301.2174 251.4208 303.7881 255.7799 307.3648 259.2448 308.259 261.3684 307.5883 265.0569 308.9296 265.8393 309.0414 267.5158 308.8178 269.863 308.9296 272.5455 309.4884 277.4635 309.4884 280.9284 309.0414 285.2875 309.0414 287.5229 312.618 299.0353 313.9593 301.2707 313.5122 301.7178 313.5122 301.8296 313.4004 302.0531 313.2887 302.612 315.077 304.6239 316.9771 308.3123 317.8713 312.5596 317.0889 316.4716 317.0889 317.8129 318.5419 319.1541 319.1008 318.5953 319.1008 320.6072 319.9949 323.625 320.1067 327.4252 319.8832 331.449 319.8832 333.3491 320.3303 335.5845 321.1127 338.1552 322.4539 341.173 324.6893 347.3205 326.2541 355.7033 326.813 357.9387 328.266 361.4036Z" />
  <path class="Vesturland" d="M421.0361 398.5117L419.6948 403.6531 419.4713 404.8826 419.4713 406.3356 419.6948 409.577 419.8066 412.1477 419.5831 413.8243 419.136 415.3891 418.8007 416.1715 417.3476 418.1834 414.7769 420.7541 389.9637 432.4901 361.015 451.2677 346.1494 456.6327 343.914 458.3092 333.2957 471.0512 319.6596 483.9048 313.0651 492.3994 313.4004 489.4934 313.624 488.711 313.4004 487.7051 313.0651 487.1462 311.8356 486.1403 310.9415 485.6932 306.8059 484.9108 305.6882 485.1343 301.9998 487.4815 293.5052 487.9286 287.6931 489.8287 288.699 488.1521 284.5635 490.4993 282.3281 489.4934 282.3281 488.1521 283.2222 488.1521 284.0046 487.8168 285.4576 486.6991 285.5694 485.6932 285.3459 485.4696 285.1223 485.4696 284.8988 485.2461 285.4576 485.2461 268.692 484.1284 260.868 486.0285 253.9382 492.3994 253.6029 493.1818 253.2675 494.4113 252.8205 495.6408 252.0381 496.8703 251.2557 497.4292 249.4673 498.0998 248.5732 498.0998 247.1201 498.6586 242.9846 501.7882 241.6433 503.4648 238.1784 506.5944 233.8194 505.9238 225.5483 502.7942 225.5483 501.2294 229.4603 498.8822 233.1487 495.4173 236.1666 491.0582 238.1784 489.8287 240.1903 491.0582 241.8669 489.1581 245.8906 487.9286 247.679 486.6991 239.5197 485.805 236.949 486.6991 235.1606 487.9286 233.7076 488.3757 232.3663 487.258 230.578 483.5695 231.8075 481.6694 232.031 479.0987 232.1428 476.0809 232.8134 472.7277 233.3723 472.5042 234.1547 473.1748 234.8253 473.1748 235.2724 469.4864 235.7195 467.8098 236.949 464.792 237.0607 462.5565 239.4079 460.4329 249.8026 454.9561 255.2794 454.509 254.8323 452.4971 253.9382 451.4912 252.8205 451.1559 251.4792 451.3794 251.4792 450.0382 253.1558 448.4734 256.6207 443.6672 259.7503 442.2142 261.2033 440.4259 262.0975 439.6435 263.327 439.4199 267.2389 439.6435 266.9036 443.5554 268.692 444.1143 271.0392 444.2261 272.2686 446.3497 273.4981 448.0263 281.0986 448.4734 279.6455 447.2439 276.4042 447.5792 274.7276 447.1321 273.4981 445.6791 271.3745 442.326 269.6979 441.32 273.4981 439.6435 273.4981 438.3022 263.9976 438.3022 263.9976 436.7374 269.2508 433.496 271.0392 431.7077 272.4922 431.2606 279.7573 432.4901 279.7573 430.9253 272.604 429.3605 270.3685 429.3605 264.4447 434.9491 262.0975 435.2844 262.0975 433.8314 264.5564 431.4842 265.4506 429.9194 266.0095 427.7957 262.321 431.8195 261.2033 432.4901 260.4209 433.6078 259.7503 438.5257 258.6326 439.6435 257.7384 440.3141 253.9382 444.1143 249.132 445.9026 247.679 447.1321 248.2378 450.0382 245.5553 449.144 242.9846 449.8146 237.6196 454.509 235.3842 457.0798 233.9311 457.9739 232.4781 457.4151 231.4722 455.2914 231.5839 453.1678 233.1487 448.4734 231.2486 449.144 230.3545 451.4912 230.0191 454.7326 230.0191 458.0857 229.6838 459.0916 227.4484 463.2272 227.1131 465.1273 227.1131 466.6921 227.0013 467.9216 226.2189 469.151 222.8658 469.151 222.4187 469.9334 222.0834 470.7158 221.301 471.3865 220.4068 471.8336 219.6244 471.9453 218.1714 471.2747 216.4948 469.3746 215.0418 466.5803 214.2594 463.2272 213.3652 464.4567 212.6946 465.3508 211.9122 465.7979 211.018 466.1332 212.3593 463.4507 213.477 460.0976 213.9241 456.8562 212.9182 454.509 213.3652 454.1737 214.2594 452.9442 213.477 452.1618 212.8064 451.603 211.9122 451.3794 211.018 451.3794 211.4651 450.7088 212.3593 448.4734 212.3593 447.1321 208.112 450.3735 205.5413 451.603 203.5294 451.3794 201.8528 448.8087 201.1822 445.232 201.5175 441.8789 202.8587 439.6435 202.8587 438.3022 201.2939 438.0787 200.0645 436.4021 199.2821 434.6138 198.835 433.8314 197.6055 433.1607 196.2642 431.5959 195.0348 429.6958 194.0288 427.7957 196.376 428.8017 198.7232 431.2606 201.1822 432.8254 203.5294 430.9253 201.6293 430.9253 202.1881 428.4663 202.9705 426.7898 204.0882 425.7838 205.3177 425.0014 204.4235 423.7719 204.0882 423.5484 204.0882 422.0954 214.7065 416.6186 217.389 413.2655 217.389 411.8124 211.6887 416.7304 208.6708 418.4069 205.653 418.9658 203.1941 420.6424 200.3998 423.6602 197.7173 425.5603 195.9289 423.5484 197.1584 422.6542 199.7292 418.9658 201.5175 417.0657 202.6352 415.5009 203.5294 413.2655 202.8587 411.8124 203.6411 411.3653 204.2 410.8065 205.3177 408.7946 203.3058 406.3356 200.5116 405.5532 194.5877 405.8886 195.9289 402.8707 194.0288 402.8707 194.6994 400.7471 196.376 396.4998 197.1584 393.929 196.2642 394.1526 195.3701 395.0468 194.6994 396.4998 194.0288 398.3999 193.47 396.388 192.6876 395.4938 191.7934 395.8292 190.8992 396.8351 190.8992 398.3999 185.8695 396.8351 184.4165 397.6175 181.6222 400.6353 180.1692 401.3059 180.1692 402.8707 180.8398 403.0943 182.6282 404.4355 174.1336 406.0003 172.0099 404.4355 174.1336 404.6591 175.2513 404.5473 176.0337 403.6531 175.8101 402.4237 174.8042 400.6353 173.6865 399.0705 172.9041 398.3999 163.0682 398.3999 164.5212 399.9647 169.4392 402.8707 169.4392 404.4355 166.9802 404.3238 162.6211 400.4118 159.9386 399.9647 160.6092 399.9647 149.0968 398.847 138.0315 398.847 125.4013 397.9528 120.0363 392.2525 114.8948 391.9172 106.0649 393.929 105.9531 394.4879 104.3883 397.5057 103.7177 398.3999 102.8235 399.2941 101.7058 399.9647 100.5881 400.1882 89.9699 396.8351 90.864 395.9409 91.9817 395.3821 93.0994 395.1585 91.6464 394.5997 88.0697 396.4998 85.2755 400.0765 84.9402 404.4355 83.1518 409.4652 80.6928 411.5889 73.8748 411.8124 71.8629 412.3713 67.8392 414.6067 65.9391 414.8303 59.3446 410.9183 57.8915 408.9064 56.5503 408.3475 55.6561 407.3416 55.209 403.6531 54.7619 401.753 50.7382 395.3821 49.0616 392.0289 47.7204 388.3405 45.1496 379.1752 45.7085 377.4987 47.6086 379.3988 49.2851 378.6164 52.7501 374.5926 54.5384 373.4749 64.486 370.5689 66.3861 370.7924 73.8748 375.7103 83.9342 377.4987 84.8284 376.9398 86.505 374.1455 87.3991 373.2514 91.1993 373.3631 92.0935 372.469 95.5584 367.104 99.2469 365.7627 107.6297 367.3275 107.6297 365.6509 107.0708 364.9803 106.8473 364.4215 106.6238 363.6391 106.2884 362.6331 110.2004 362.4096 111.4299 363.5273 110.7593 367.3275 111.9888 368.2217 112.7712 366.9922 113.5536 365.5392 114.5595 365.6509 114.8948 367.7746 114.8948 370.7924 115.3419 372.3572 117.0185 370.1218 118.4715 371.463 120.1481 370.6806 121.4893 368.557 122.0482 366.4333 121.7129 364.1979 121.0422 361.4036 120.5952 358.274 120.8187 355.2562 123.3894 351.7913 127.1897 351.0089 134.6783 352.2384 134.0077 354.6974 132.89 356.4857 130.2075 358.3858 130.5428 359.1682 130.9899 361.2919 129.8722 361.5154 129.0898 362.4096 128.4191 363.7508 127.7485 365.6509 132.89 373.2514 132.3311 369.8982 132.2194 367.2157 132.6664 364.8685 133.5606 362.6331 134.1195 362.186 135.9078 361.8507 136.5784 361.2919 137.2491 360.0624 137.8079 357.2681 138.255 356.0386 140.714 352.5737 143.3965 352.3502 145.8554 354.4738 147.9791 358.3858 149.4321 356.0386 151.3322 354.6974 157.0326 353.2443 162.5094 349.4441 161.0563 348.4382 154.3501 349.4441 154.3501 347.7675 158.1503 346.8734 165.0801 339.72 168.7685 338.8259 168.2097 339.72 167.5391 340.3906 169.2156 340.8377 170.6686 341.8437 170.5569 343.5202 170.5569 343.8556 170.6686 344.638 169.4392 346.5381 166.6449 348.1029 165.6389 349.4441 166.8684 349.7794 168.4332 349.6677 169.998 348.997 171.3393 347.7675 171.8981 352.0149 172.6805 353.8032 175.6983 355.2562 179.8339 359.0564 181.3987 359.7271 181.3987 358.3858 180.281 357.6034 179.275 356.2622 176.9278 352.2384 179.4986 348.8853 180.8398 347.8793 182.6282 347.7675 182.8517 344.8615 184.5283 344.0791 192.2405 344.4144 199.8409 342.6261 212.2475 345.085 220.5186 349.4441 221.4128 348.8853 222.8658 346.8734 223.6482 346.3145 230.578 346.3145 232.4781 347.2087 234.49 348.7735 236.3901 349.4441 236.6136 349.2206 238.1784 347.7675 240.5256 349.4441 250.8086 347.7675 253.2675 345.7557 253.2675 342.9614 251.7028 340.8377 248.9085 340.3906 249.8026 337.4846 250.9204 336.4787 252.2616 335.9198 253.9382 334.355 255.0559 331.896 258.9679 320.7189 259.3032 313.1185 256.2854 309.9889 252.3734 310.3242 249.4673 313.342 249.4673 314.795 250.138 314.795 250.138 316.4716 236.2783 328.4311 231.6957 330.3312 205.4295 325.1898 198.835 319.713 197.829 319.2659 197.382 319.4894 196.0407 320.3836 187.6579 321.7249 185.1989 320.7189 183.4106 318.4835 184.8636 317.5893 187.5461 316.6952 189.6697 314.795 190.3404 315.9128 191.011 316.4716 192.6876 316.4716 192.6876 314.795 190.6757 313.342 188.3285 313.0067 183.9694 314.795 184.8636 311.5537 186.5402 308.4241 189.6697 304.2886 193.9171 302.2767 195.5936 300.3766 195.2583 296.7999 196.5996 296.241 199.9527 296.7999 200.8469 295.9057 203.5294 290.6525 205.9883 288.7524 216.2713 285.8463 224.8777 279.0283 228.2308 274.8927 234.1547 271.7631 236.2783 269.416 236.0548 269.1924 235.8312 269.1924 235.7195 269.0806 235.7195 268.0747 237.0607 268.1865 239.2961 270.7572 240.7492 270.9807 239.855 267.5158 239.5197 266.3981 245.22 263.045 257.1795 259.2448 260.6444 257.1211 262.8799 255.7799 264.4447 254.3268 266.6801 248.6265 267.7978 246.8382 270.2568 245.0498 271.2627 248.0677 271.3745 254.6622 271.0392 257.2329 270.4803 260.586 270.5921 261.8155 270.8156 262.9332 270.5921 263.8274 269.9215 264.7216 267.686 266.7334 266.6801 268.6336 266.3448 270.0866 266.5683 271.5396 267.1272 272.6573 269.0273 275.0045 269.5861 275.8987 269.9215 276.1222 277.8572 273.775 281.3221 273.775 282.3281 274.4457 282.9987 275.6751 284.5635 280.7048 289.9285 291.7702 292.611 294.8998 293.2816 296.5763 293.8405 297.4705 294.3993 297.9176 295.1817 298.1411 296.0759 298.7 300.7703 304.6239 301.4409 306.0769 301.888 307.7535 302.2233 309.2065 303.8999 315.0186 304.2352 316.6952 304.0117 318.26 303.4528 319.9365 301.1056 324.7427 300.7703 325.7486 300.435 326.7546 300.3232 327.8723 300.2114 329.3253 300.2114 330.8901 300.435 333.0138 301.9998 337.9317 302.4469 340.0553 303.1175 341.173 304.7941 342.6261 305.6882 343.7438 307.3648 346.5381 307.9237 347.2087 308.9296 348.3264 309.2649 348.997 309.3767 350.003 309.3767 350.7854 309.2649 352.2384 316.4183 358.6094 319.1008 360.1741 322.1186 361.2919 328.266 361.4036 329.1602 363.7508 337.0959 369.0041 338.3254 369.4512 345.9259 370.01 346.9318 370.4571 350.5085 374.0338 351.9615 374.2573 381.5809 365.2039 382.9221 365.4274 387.2812 367.6628 409.1883 368.2217 436.3487 369.4512 437.2429 369.7865 437.69 370.9042 437.9135 371.9101 438.0253 373.4749 437.9135 374.9279 437.3547 376.8281 436.4605 378.3928 425.954 390.0171 421.0361 398.5117Z" />
</svg>