<?xml version="1.0" encoding="utf-8"?>
<svg xmlns="http://www.w3.org/2000/svg" viewBox="0 0 581 1024" style="stroke-width:0.25px;stroke-linejoin:round;stroke:#444;fill:#ddd" fill-rule="evenodd">
  <path class="Ampāra" d="M530.9846 867.9912L528.6374 867.3206 522.3782 865.3087 518.1309 860.3908 514.7778 859.9437 511.8717 859.7201 504.1595 850.2196 510.8658 755.1023 509.5245 749.9608 506.5067 745.49 506.5067 740.4603 504.7184 735.5424 505.8361 730.4009 506.3949 725.4829 498.7945 720.9003 489.6293 718.5531 488.288 717.3237 486.6114 716.4295 484.7113 716.4295 482.6994 715.5353 480.6876 711.9586 479.5699 707.9349 476.3285 701.7875 479.3463 693.7399 484.7113 687.369 488.8469 684.1276 483.2583 676.3036 482.4759 670.7151 478.8992 664.4559 473.1989 659.538 472.193 654.5083 472.5283 648.2491 469.5105 634.613 469.9575 631.1481 468.281 630.8128 466.7162 629.8068 470.5164 623.8829 465.3749 622.5417 459.004 626.0066 455.8744 627.1243 452.9683 628.3538 452.0741 630.8128 450.2858 633.607 446.7091 634.5012 444.1384 634.7248 444.1384 638.0779 445.5914 641.0957 445.815 644.2253 444.6972 646.796 442.9089 648.9197 441.6794 650.708 436.4262 653.6141 430.0552 653.3905 430.167 663.3382 431.5083 673.0623 426.7021 676.5272 421.4488 678.3155 419.2134 674.0682 417.2015 669.1503 416.3074 664.4559 413.9602 659.7615 412.1718 656.7437 411.0541 654.3965 407.9245 653.8376 405.6891 654.3965 401.8889 650.5963 398.9828 644.4488 397.3063 633.0482 396.3003 629.8068 395.5179 626.5655 396.1886 624.2183 397.6416 621.5358 400.3241 608.9056 399.4299 595.9402 387.9175 593.4812 375.2873 600.5228 369.8106 605.6642 366.681 606.8937 364.1102 607.4526 359.4158 609.1292 353.0449 598.5109 351.033 592.2517 350.6977 588.0044 349.0211 584.316 345.1091 581.9688 344.4385 581.2981 346.8975 568.8915 346.3386 563.9736 344.4385 558.0497 344.662 553.6906 349.4682 553.6906 359.0805 552.7965 363.7749 552.0141 373.1637 555.5908 380.7641 563.1912 393.2825 567.1032 399.3182 570.5681 404.3479 571.2387 405.0185 568.5562 406.1362 565.4266 407.8128 563.7501 409.2658 560.9558 408.4834 554.8084 409.6011 548.9963 416.6427 550.3375 424.9138 549.8904 431.7318 552.1259 440.5617 564.9795 446.262 570.3446 454.086 572.58 462.2453 574.2565 461.91 581.9688 459.3393 589.5692 459.8981 593.9283 462.2453 597.7285 470.4046 602.6464 474.7637 606.8937 491.6411 609.7998 508.8539 608.0114 514.8895 604.5465 515.0013 611.141 517.0132 617.512 517.7956 632.154 519.5839 636.4013 528.6374 627.4596 533.8906 623.2123 540.9322 622.0946 545.8502 621.3122 546.0737 622.3182 548.1974 622.7652 550.321 620.0827 551.8858 620.0827 553.8977 630.5892 553.7859 634.3894 555.5743 634.3894 555.5743 634.2777 555.7978 630.701 556.4684 627.1243 557.4744 623.9947 559.1509 621.8711 559.1509 620.0827 558.9274 619.6356 558.3685 618.0708 558.8156 617.1767 560.2686 617.8473 562.6158 620.0827 563.3982 622.0946 563.9571 627.6832 567.9809 633.9424 574.3518 656.073 573.1223 717.1001 573.793 721.2356 576.4755 730.4009 576.8108 735.7659 575.3578 746.1606 563.51 787.2924 562.8394 791.5397 562.6158 797.1283 561.7217 801.8227 558.0332 809.0878 557.1391 812.3292 555.686 816.8 550.7681 824.624 548.4209 828.3124 550.0975 834.5716 547.3032 842.0603 530.9846 867.9912Z" />
  <path class="Anurādhapura" d="M283.8585 245.314L291.1237 242.4079 298.7241 242.5197 305.2068 246.3199 316.4957 254.1439 320.4077 258.503 322.5314 261.2972 324.9903 263.1974 321.9725 269.9036 317.6134 276.3864 317.7252 287.5635 322.5314 298.07 324.4315 303.5468 320.5195 312.8238 320.743 318.1888 322.8667 320.6477 325.6609 323.3303 326.6669 329.5894 333.4849 339.7606 337.1734 348.367 339.4088 351.3848 342.4266 353.6202 344.1032 357.644 341.9795 361.4442 338.4029 363.9032 335.1615 367.0328 334.1556 370.1624 333.4849 373.4037 327.8964 393.4108 324.655 396.8757 322.6431 401.4583 321.6372 406.0409 318.284 408.0528 306.8834 408.0528 296.7122 409.9529 292.912 419.9006 290.7883 430.8541 287.0999 440.69 285.3116 450.8612 284.8645 459.9146 290.0059 463.9384 284.9762 471.0917 284.6409 477.9098 279.2759 480.1452 274.358 482.6042 271.0048 485.5102 265.9751 490.7635 264.5221 491.8812 262.622 491.3223 259.9395 491.3223 258.5982 495.5696 258.5982 500.3758 256.1393 504.176 252.7861 507.5292 253.4568 508.7586 253.5685 510.6587 251.892 511.5529 250.1036 512.8942 248.2035 516.0238 244.4033 518.5945 241.2737 516.5826 237.1382 516.4708 232.5556 521.9476 223.9492 525.189 218.4724 529.2128 211.8779 522.9536 212.8838 513.9001 211.5426 507.7527 209.1954 501.7171 208.5248 497.358 206.4011 493.7813 202.1538 493.446 198.5771 491.993 198.13 487.4103 198.4653 482.716 197.6829 477.1274 198.13 473.886 198.13 470.6447 194.218 467.4033 189.4119 467.6268 184.7175 464.7208 180.4702 460.4735 172.758 454.1025 164.1516 450.8612 159.4572 450.0788 155.5452 447.3963 150.6273 445.3844 145.5976 444.0431 121.7903 433.2013 116.2018 430.0717 113.4075 426.3833 109.6073 423.2537 104.354 423.4772 99.7714 420.0123 95.4123 422.0242 90.0473 422.0242 88.4825 417.3298 81.9998 391.1754 78.1996 383.7985 81.1056 377.4275 85.4647 375.4156 86.5824 373.0684 86.9177 371.1683 94.9652 364.5738 99.6596 354.6262 98.2066 343.8961 100.3303 344.9021 102.7892 345.2374 103.3481 321.0948 101.3362 305.7822 112.7369 310.4766 125.367 310.5883 150.5155 303.9938 150.6273 312.3767 153.198 319.7536 157.11 321.0948 160.9102 322.8832 162.5868 326.0128 163.5927 329.5894 166.2752 335.0662 171.752 337.9723 174.4345 338.7547 176.8935 338.8664 180.8055 331.8249 185.3881 329.813 190.1943 318.5241 200.3655 305.3351 208.1894 301.7584 212.9956 304.2174 217.3547 307.347 225.514 307.347 232.4438 302.0937 238.9265 296.1699 244.5151 289.5754 247.6447 284.7692 251.3331 280.4101 257.4805 275.4922 255.2451 268.7859 250.5507 262.6385 243.8444 260.2913 243.3974 254.591 262.5102 253.9204 269.9989 248.6671 276.8169 246.6552 283.8585 245.314Z" />
  <path class="Badulla" d="M344.4385 581.2981L345.1091 581.9688 349.0211 584.316 350.6977 588.0044 351.033 592.2517 353.0449 598.5109 359.4158 609.1292 364.1102 607.4526 366.681 606.8937 369.8106 605.6642 375.2873 600.5228 387.9175 593.4812 399.4299 595.9402 400.3241 608.9056 397.6416 621.5358 396.1886 624.2183 395.5179 626.5655 396.3003 629.8068 397.3063 633.0482 398.9828 644.4488 401.8889 650.5963 405.6891 654.3965 407.9245 653.8376 411.0541 654.3965 412.1718 656.7437 413.9602 659.7615 416.3074 664.4559 417.2015 669.1503 407.1421 671.4975 407.1421 676.8625 405.1303 681.7804 398.0887 690.7221 395.7415 694.7459 391.4942 696.5342 387.9175 692.6222 383.6702 692.0634 380.6524 696.646 379.87 701.8992 383.1113 706.0348 387.0233 709.9468 389.5941 715.3118 392.6119 718.4414 402.1124 715.9824 404.9067 719.5591 406.248 720.7886 408.1481 723.1358 409.4893 726.6007 410.2717 730.1773 410.2717 734.9835 409.0422 739.6779 408.0363 746.8312 406.695 749.7373 404.9067 752.4198 404.2361 756.4436 403.0066 760.2438 399.6535 760.9144 397.0827 759.7967 395.5179 761.3615 394.2884 763.4851 391.7177 766.7265 388.4763 769.409 381.8818 771.1974 376.4051 774.2152 382.6642 783.0451 375.1756 785.2805 372.9402 789.6396 364.222 790.422 363.5514 795.8988 364.1102 801.4873 361.8748 806.1817 362.8807 809.5349 367.4634 810.7644 367.7987 815.347 363.9985 821.2708 363.4396 825.0711 363.4396 829.0948 365.8986 836.2482 369.6988 842.2838 364.3338 844.1839 363.5514 850.3314 360.7571 848.9901 357.9628 847.2018 354.2744 852.9021 353.2684 859.8319 351.033 856.1435 348.127 852.455 347.0092 844.1839 345.2209 843.178 343.4326 842.2838 341.6442 836.5835 339.297 831.3303 337.1734 830.8832 335.1615 829.7655 333.932 825.2946 332.0319 822.2768 328.9023 822.0532 324.2079 822.2768 318.9547 826.1888 312.8073 828.7595 306.8834 827.6418 302.9714 824.4004 300.1771 820.1531 301.4066 816.6882 308.4482 813.5586 309.4541 812.5527 310.2365 810.5408 310.7954 808.0818 306.4363 806.7406 302.8596 802.8286 300.9595 803.611 299.0594 804.5052 298.3888 795.0046 303.3067 793.7751 305.8774 789.9749 303.5303 788.8572 301.1831 787.2924 304.9833 781.145 303.9773 779.3567 302.6361 777.7919 301.1831 773.7681 299.3947 770.1914 291.2354 766.0559 290.9001 761.9204 295.5945 761.6968 300.4007 761.9204 303.8656 758.0084 305.095 752.8669 309.2306 749.0667 313.8132 746.8312 323.6491 744.7076 329.3494 736.213 330.4671 731.1833 332.8143 726.6007 334.938 724.7006 336.6145 722.4651 337.5087 720.565 337.0616 718.7767 335.7204 714.1941 336.9498 711.8469 338.7382 709.6114 337.7322 708.2702 336.6145 706.9289 336.0557 704.6935 336.6145 702.3463 334.7144 695.8636 334.938 691.1692 338.1793 689.1573 343.6561 687.5925 350.5859 681.2216 351.033 672.727 345.4444 653.9494 343.209 614.7177 341.8678 593.4812 344.4385 581.2981Z" />
  <path class="Gālla" d="M85.2411 885.9864L87.0295 886.4334 88.3707 888.3336 89.9355 889.6748 91.6121 888.5571 94.1828 887.5512 96.0829 889.3395 97.4242 891.5749 106.813 895.934 111.5074 896.9399 116.6488 899.1754 120.7844 902.752 125.1435 905.6581 136.2088 907.7817 143.2504 903.8697 151.0744 903.1991 158.6748 909.0112 162.6986 912.9232 166.7223 916.0528 167.1694 910.9113 165.2693 905.211 165.2693 899.7342 170.0755 897.6106 179.0172 892.022 188.1824 889.8983 191.312 893.1397 194.8887 896.1575 199.2477 897.9459 203.048 898.0576 211.0955 901.9696 215.231 901.8579 217.4664 905.0992 212.1014 906.664 208.6365 910.1289 211.6543 914.8233 215.6781 918.7353 214.1133 926.1122 206.1776 924.3239 201.2596 919.6295 195.7828 915.6057 191.5355 914.2645 187.4 915.3822 189.9707 920.1883 195.1122 923.4297 200.4772 931.2537 202.4891 938.6306 197.9065 944.2191 188.853 942.6543 191.5355 945.7839 192.765 950.0312 190.9767 955.3963 188.6295 960.426 190.3061 965.4557 194.218 969.2559 198.8007 972.3855 202.9362 976.0739 199.3595 980.2095 195.3358 984.345 191.7591 985.798 190.1943 988.257 190.9767 990.9395 192.9886 992.0572 197.5712 993.9573 196.0064 997.0869 191.312 998.7635 188.5177 1003.7932 188.5177 1006.6992 188.9648 1009.3817 189.0766 1009.7171 187.4 1009.3817 186.1705 1008.8229 185.2763 1007.7052 184.1586 1006.4757 182.1468 1005.9168 181.029 1006.2521 180.0231 1007.1463 179.0172 1007.8169 177.6759 1007.8169 177.2288 1007.4816 176.7817 1007.0345 175.2169 1004.7991 174.3228 1004.2403 174.211 1004.1285 172.3109 1003.4579 161.3573 999.5459 156.7747 998.5399 153.6451 997.8693 148.0565 993.3985 146.7153 992.8396 144.2563 991.6101 142.3562 993.5102 137.5501 989.5982 116.5371 967.3558 114.8605 966.0145 114.637 965.791 114.0781 965.0086 113.7428 964.0026 113.8546 961.7672 113.1839 960.6495 112.2898 959.42 109.9426 956.4022 98.0948 931.2537 97.536 928.9065 97.6477 926.6711 97.6477 924.5474 97.2007 923.2062 95.077 918.7353 92.9534 906.664 88.1472 898.1694 85.2411 885.9864Z" />
  <path class="Gampaha" d="M45.4506 669.3738L51.598 669.5974 56.4042 668.3679 61.4339 667.6972 63.4458 669.9327 66.4636 670.3798 70.2638 667.9208 74.7347 669.7091 80.2114 667.5855 90.0473 659.8733 96.1947 659.6497 103.3481 664.5677 110.725 662.444 117.0959 657.9732 124.2493 656.6319 126.5965 659.2026 127.2671 661.4381 128.8319 663.5617 135.2029 670.9386 139.6737 674.18 140.1208 677.6449 137.5501 679.6568 136.8794 688.5985 133.5263 691.7281 129.5025 693.8517 128.3848 701.2286 131.5144 707.7113 137.7736 706.2583 143.2504 707.8231 141.3503 712.1822 137.5501 714.8647 134.3087 722.3534 132.9674 729.9538 136.7677 742.2486 136.8794 744.5958 136.097 746.7195 131.4026 748.396 124.4728 747.7254 119.3314 750.0726 115.1958 754.0964 114.1899 759.0143 113.8546 764.044 108.3778 764.3793 103.7952 763.8205 100.7773 762.591 97.8713 761.0262 94.8535 758.2319 91.3886 756.1083 87.0295 756.3318 82.5586 757.226 69.705 753.5375 67.3578 754.4317 65.3459 755.5494 60.7633 754.4317 56.516 752.1963 51.0392 750.0726 53.6099 743.9252 54.2805 741.0191 54.1688 738.0013 54.1688 737.8895 41.8739 694.0752 43.5505 687.5925 43.4387 691.6163 44.4447 694.0752 45.7859 695.9754 47.0154 698.3226 49.4744 706.9289 50.7039 709.0526 52.2686 709.0526 52.7157 706.5936 53.3864 705.5877 54.057 705.3641 54.2805 705.4759 54.1688 697.5402 53.6099 694.0752 52.2686 691.1692 51.0392 690.3868 47.686 689.6044 46.233 688.5985 46.0095 688.2631 45.1153 686.363 45.5624 684.2394 46.4565 682.3393 47.0154 680.5509 45.4506 669.3738Z" />
  <path class="Hambantŏṭa" d="M277.8229 1006.5875L276.3699 1005.8051 269.8871 1002.7872 266.7575 998.0928 268.6576 997.0869 268.7694 994.9633 266.534 993.7338 264.075 993.5102 260.4983 991.163 259.8277 987.0275 268.2106 983.4508 265.4163 973.5032 267.7635 971.2678 268.6576 969.0323 265.8634 968.4735 262.8455 968.9206 258.5982 966.6851 257.7041 962.2143 259.2689 959.8671 260.4983 957.1846 259.0453 955.8433 256.8099 956.1787 251.892 954.3903 247.4211 951.149 250.5507 940.0836 260.4983 932.5949 258.71 928.4594 260.4983 923.8768 260.0513 921.9767 262.5102 920.9707 277.1523 923.8768 296.0416 930.6948 301.0713 931.4772 305.9892 930.2477 310.9072 929.8007 314.8191 932.9303 317.837 936.3952 327.2257 938.2953 332.7025 940.0836 333.932 935.501 331.5848 928.9065 326.7787 923.6532 333.1496 919.5177 339.6323 915.941 346.8975 913.5938 352.486 909.3465 350.0271 903.5344 351.2565 897.7223 354.4979 897.7223 358.0746 897.387 360.1982 894.481 360.0865 891.0161 363.3278 893.2515 365.675 890.4572 372.1578 890.4572 378.6405 891.2396 382.9996 892.8044 384.8997 897.4988 387.4704 897.9459 390.2647 897.8341 392.6119 896.1575 395.8532 895.7105 400.6594 902.0814 404.6832 908.7877 411.0541 911.4702 418.0957 907.5582 420.6664 904.9875 424.5784 903.4227 432.0671 901.4108 447.3798 895.4869 450.2858 893.475 450.8447 894.1457 453.1919 894.481 460.0099 892.022 467.1633 893.5868 470.5164 888.11 470.5164 885.8746 470.4046 883.7509 471.5223 882.1861 472.64 880.286 471.4106 876.8211 471.2988 872.462 476.3285 868.3265 482.4759 865.644 487.1703 861.0614 492.6471 856.9259 499.5769 855.6964 504.1595 850.2196 511.8717 859.7201 514.7778 859.9437 518.1309 860.3908 522.3782 865.3087 528.6374 867.3206 530.9846 867.9912 523.0488 880.5096 515.0013 888.6689 500.024 899.2871 495.1061 900.7402 488.6233 904.2051 440.7853 941.8719 431.1729 947.1252 400.1006 958.0788 399.6535 954.3903 399.6535 954.1668 397.8651 952.7138 397.7534 952.7138 397.418 952.8255 395.8532 953.2726 394.8473 955.2845 394.2884 959.6436 392.9472 961.3201 390.7118 961.9908 387.6939 963.2202 382.1054 966.6851 376.5168 969.1441 349.6917 974.8444 336.6145 979.3153 322.4196 981.9978 315.9369 984.4568 312.0249 989.9336 304.9833 988.5923 300.736 990.2689 298.277 991.163 288.3294 998.5399 278.4935 1005.9168 277.8229 1006.5875Z" />
  <path class="Kaḷutara" d="M64.1164 815.6823L64.5635 815.0117 64.6752 814.8999 64.5635 811.6585 63.7811 808.3054 62.2163 803.4992 62.5516 799.1402 74.3993 806.6288 81.888 803.8345 84.9058 803.0521 87.7001 801.8227 97.6477 793.3281 100.5538 792.9927 103.3481 794.2222 107.3718 792.2103 110.5014 788.5219 112.178 788.8572 113.5193 789.6396 116.8724 797.3518 121.9021 798.6931 120.2255 791.2044 128.6084 787.6277 136.097 789.4161 136.9912 794.6693 141.462 806.6288 141.1267 810.7644 142.6915 815.6823 145.2623 820.8238 153.0862 828.4242 154.651 836.0246 157.4453 838.7072 161.022 840.0484 166.8341 845.3017 170.5226 852.455 166.6106 854.0198 168.0636 858.3789 178.9054 873.6915 188.1824 889.8983 179.0172 892.022 170.0755 897.6106 165.2693 899.7342 165.2693 905.211 167.1694 910.9113 166.7223 916.0528 162.6986 912.9232 158.6748 909.0112 151.0744 903.1991 143.2504 903.8697 136.2088 907.7817 125.1435 905.6581 120.7844 902.752 116.6488 899.1754 111.5074 896.9399 106.813 895.934 97.4242 891.5749 96.0829 889.3395 94.1828 887.5512 91.6121 888.5571 89.9355 889.6748 88.3707 888.3336 87.0295 886.4334 85.2411 885.9864 84.1234 881.5155 83.5646 881.0684 82.4469 880.3978 81.3292 879.3919 80.6585 878.0506 80.8821 876.4858 82.1116 876.1505 83.4528 876.2623 84.1234 876.2623 82.1116 862.6262 81.9998 861.5085 76.6348 847.7606 64.1164 815.6823Z" />
  <path class="Kilinŏchchi" d="M203.6068 69.945L206.96 80.0044 207.407 82.5751 204.2774 82.7987 202.2656 83.5811 201.9303 84.0282 201.3714 84.9223 200.3655 85.4812 196.9006 82.9105 195.5593 82.6869 187.1765 82.9105 184.8293 82.2398 166.4988 66.2565 158.6748 61.1151 158.563 61.1151 155.7688 59.8856 161.2455 50.385 164.7105 42.8964 164.7105 42.7846 177.0053 56.3089 185.0528 61.3386 203.6068 69.945ZM248.2035 104.147L246.974 105.3765 246.4152 109.7355 240.9384 114.0946 240.156 120.0185 240.8266 125.9424 235.0145 122.701 229.873 118.4537 227.9729 115.9947 226.7435 116.33 223.1668 128.1778 218.8077 130.525 212.325 130.9721 200.589 130.3014 197.1241 130.4132 192.6532 141.7021 185.8352 142.3727 178.9054 141.1432 171.8638 141.255 152.0803 143.4904 145.374 152.3204 146.0447 159.5855 139.2266 158.6913 134.3087 162.3798 128.8319 165.174 120.002 165.9564 118.1019 165.9564 119.6667 159.5855 119.6667 144.3846 120.2255 142.1492 119.7784 140.6961 116.7606 140.1373 109.6073 136.4488 106.9248 133.7663 105.1364 128.8484 104.8011 127.9542 103.5716 121.9186 103.4598 118.4537 106.5894 115.1006 112.2898 112.3063 118.549 110.2944 123.8022 109.512 126.1494 108.2825 131.738 100.7938 132.4086 100.235 133.4145 99.4526 135.3146 98.3349 137.6618 97.4407 140.5679 96.9936 138.1089 92.5228 136.6559 90.5109 135.2029 88.499 131.4026 84.6988 126.3729 80.8986 107.3718 69.7215 103.4598 64.9153 111.7309 65.1388 119.6667 68.3802 135.2029 77.4337 149.9567 81.1221 153.8686 83.6928 160.0161 89.0579 161.4691 91.8521 158.3395 93.4169 159.0101 95.2053 159.9043 96.9936 158.3395 98.782 163.7045 102.4704 176.4464 99.3408 199.6948 90.0638 206.0658 90.6227 219.7019 94.4229 235.9087 101.7998 248.2035 104.147Z" />
  <path class="Kŏḷamba" d="M51.0392 750.0726L56.516 752.1963 60.7633 754.4317 65.3459 755.5494 67.3578 754.4317 69.705 753.5375 82.5586 757.226 87.0295 756.3318 91.3886 756.1083 94.8535 758.2319 97.8713 761.0262 100.7773 762.591 103.7952 763.8205 108.3778 764.3793 113.8546 764.044 114.1899 759.0143 115.1958 754.0964 119.3314 750.0726 124.4728 747.7254 131.4026 748.396 136.097 746.7195 141.6856 747.1666 146.1564 749.402 146.9388 754.0964 143.4739 757.3377 143.8092 759.7967 143.921 762.3674 140.6796 766.3912 137.8854 770.862 136.7677 774.4387 135.4264 777.5683 141.7974 784.2746 136.097 789.4161 128.6084 787.6277 120.2255 791.2044 121.9021 798.6931 116.8724 797.3518 113.5193 789.6396 112.178 788.8572 110.5014 788.5219 107.3718 792.2103 103.3481 794.2222 100.5538 792.9927 97.6477 793.3281 87.7001 801.8227 84.9058 803.0521 81.888 803.8345 74.3993 806.6288 62.5516 799.1402 62.2163 803.4992 63.7811 808.3054 64.5635 811.6585 64.6752 814.8999 64.5635 815.0117 64.1164 815.6823 54.5041 790.9809 51.0392 771.4209 50.7039 769.5208 50.7039 750.855 51.0392 750.0726Z" />
  <path class="Kuruṇægala" d="M74.7347 669.7091L74.064 654.2847 64.5635 603.0935 64.1164 594.1518 64.5635 585.2101 67.3578 578.0568 71.2697 571.4623 72.2757 568.4444 74.064 565.8737 77.7525 564.9795 80.8821 563.303 79.429 560.844 76.2994 560.0616 77.5289 556.7085 79.3173 553.6906 82.6704 552.6847 86.3589 552.3494 89.1531 551.2317 90.9415 548.7727 89.9355 546.0902 88.5943 543.1842 89.3767 536.2543 91.8356 529.9952 92.2827 526.8656 93.2887 524.0713 96.6418 522.2829 99.7714 520.1593 100.442 517.365 101.6715 514.6825 107.1483 511.8882 108.1542 509.541 108.6013 506.8585 110.1661 503.2818 113.9663 501.4935 113.7428 501.9406 113.5193 502.3877 115.084 501.9406 117.0959 499.8169 117.2077 496.6873 118.6607 494.1166 124.0257 497.1344 127.2671 494.6755 124.1375 488.8634 125.7023 485.8455 127.6024 482.9395 127.826 477.0156 127.6024 469.974 128.6084 466.6209 129.279 463.4913 126.2612 461.4794 122.6845 460.2499 120.2255 455.6673 119.3314 450.5259 116.6488 440.2429 116.7606 434.9897 116.2018 430.0717 121.7903 433.2013 145.5976 444.0431 150.6273 445.3844 155.5452 447.3963 159.4572 450.0788 164.1516 450.8612 172.758 454.1025 180.4702 460.4735 184.7175 464.7208 189.4119 467.6268 194.218 467.4033 198.13 470.6447 198.13 473.886 197.6829 477.1274 198.4653 482.716 198.13 487.4103 198.5771 491.993 202.1538 493.446 206.4011 493.7813 208.5248 497.358 209.1954 501.7171 211.5426 507.7527 212.8838 513.9001 211.8779 522.9536 218.4724 529.2128 217.2429 533.4601 217.9135 538.0427 220.149 539.2722 222.1608 539.831 223.9492 543.9666 226.5199 548.2139 228.3083 552.6847 228.3083 557.1556 229.3142 557.8262 230.5437 559.7263 231.3261 568.3327 232.7791 576.3802 237.4735 581.0746 237.3617 584.0924 236.5793 587.1102 236.6911 589.4574 235.7969 591.6928 232.1085 595.046 231.4378 600.5228 234.0086 605.776 235.5734 608.3468 236.9146 611.141 237.697 614.3824 237.1382 617.512 235.6851 619.4121 235.5734 622.0946 232.4438 623.5476 229.426 624.33 231.5496 627.6832 233.0026 631.1481 230.3201 632.4893 226.5199 631.9305 222.8315 633.9424 223.1668 636.8484 222.8315 639.5309 218.3606 639.1956 214.4486 636.4013 210.6484 636.4013 209.866 641.5428 208.7483 642.9958 207.8541 644.5606 208.0777 646.2372 208.5248 647.4667 203.9421 648.8079 198.5771 648.2491 196.2299 643.2194 192.4297 639.3074 186.2823 638.525 180.582 640.7604 179.6878 645.6783 180.0231 651.0433 179.1289 654.0612 177.3406 656.6319 174.5463 656.7437 161.9162 659.538 155.8805 662.3322 150.292 666.356 144.927 671.1622 139.6737 674.18 135.2029 670.9386 128.8319 663.5617 127.2671 661.4381 126.5965 659.2026 124.2493 656.6319 117.0959 657.9732 110.725 662.444 103.3481 664.5677 96.1947 659.6497 90.0473 659.8733 80.2114 667.5855 74.7347 669.7091Z" />
  <path class="Kægalla" d="M136.097 746.7195L136.8794 744.5958 136.7677 742.2486 132.9674 729.9538 134.3087 722.3534 137.5501 714.8647 141.3503 712.1822 143.2504 707.8231 137.7736 706.2583 131.5144 707.7113 128.3848 701.2286 129.5025 693.8517 133.5263 691.7281 136.8794 688.5985 137.5501 679.6568 140.1208 677.6449 139.6737 674.18 144.927 671.1622 150.292 666.356 155.8805 662.3322 161.9162 659.538 174.5463 656.7437 177.3406 656.6319 179.1289 654.0612 180.0231 651.0433 179.6878 645.6783 180.582 640.7604 186.2823 638.525 192.4297 639.3074 196.2299 643.2194 198.5771 648.2491 201.7067 656.1848 212.8838 665.9089 212.4367 670.9386 214.6722 672.5034 221.1549 676.1919 224.2845 679.9921 223.7256 684.5747 223.7256 688.3749 227.5259 692.0634 230.4319 695.8636 228.9789 699.3285 226.967 702.4581 224.1727 703.1287 221.3784 703.3523 217.3547 707.7113 208.413 709.1644 205.5069 711.8469 209.4189 721.2356 211.2073 724.477 209.4189 728.5008 209.1954 733.6422 209.5307 734.4246 210.4249 734.6482 208.1894 738.3366 204.6128 741.4662 202.6009 742.1369 201.2596 744.1487 202.6009 746.0488 204.2774 747.7254 202.4891 757.4495 204.7245 764.9382 212.2132 767.2854 218.1371 771.7562 220.149 778.5743 220.596 782.0392 217.5782 784.7217 212.4367 784.8334 207.407 784.1628 200.2537 781.7039 194.7769 778.5743 190.8649 778.4625 187.6235 778.7978 179.7996 783.2686 173.3168 781.8156 172.0873 779.2449 170.299 777.0095 167.6165 777.5683 165.8282 778.5743 161.8044 775.5564 158.6748 771.4209 147.9448 760.5791 143.921 762.3674 143.8092 759.7967 143.4739 757.3377 146.9388 754.0964 146.1564 749.402 141.6856 747.1666 136.097 746.7195Z" />
  <path class="Maḍakalapuva" d="M427.3727 414.0884L431.7318 412.6354 454.8684 415.0944 455.6508 417.7769 461.0158 435.9956 463.0277 447.8433 458.3333 454.3261 455.7626 443.596 455.4273 442.0312 451.4035 431.1894 449.6152 431.1894 449.2799 439.4605 449.6152 442.0312 449.3916 441.9195 449.1681 442.7019 449.1681 444.0431 449.6152 445.6079 450.3976 446.6139 452.633 447.2845 453.0801 448.0669 455.2037 453.5437 459.6746 456.8968 464.0337 456.5615 465.4867 450.9729 467.1633 450.9729 468.7281 453.879 469.1751 454.6614 471.2988 464.0502 473.4224 467.7386 476.3285 470.8682 478.2286 473.886 481.3582 481.2629 482.5877 480.0334 484.2642 478.804 485.0466 477.5745 486.1644 480.0334 485.0466 481.2629 485.6055 482.2689 486.1644 482.8277 486.1644 482.9395 486.4997 483.4983 486.6114 484.7278 486.7232 484.6161 487.9527 483.6101 490.6352 482.2689 491.9765 481.2629 492.5353 482.716 493.3177 484.5043 492.7589 486.6279 491.8647 488.7516 491.8647 490.3164 491.9765 491.8812 493.7648 495.4579 496.8944 497.9168 499.018 499.4816 500.9182 502.6112 499.6887 502.723 499.1298 503.0583 498.3474 503.6172 497.7886 503.9525 497.3415 504.176 496.5591 507.0821 495.8884 509.8763 498.9063 518.7063 500.4711 520.6064 504.1595 524.8537 504.2713 524.8537 509.6363 523.8477 511.4246 523.8477 513.213 529.3245 515.2249 532.6777 515.8955 533.6836 526.9608 545.3078 530.5375 551.0081 531.2081 556.0378 525.5078 557.8262 522.8253 556.0378 516.5661 547.8785 513.213 545.0843 508.9657 543.5195 508.8539 543.5195 508.4068 543.5195 505.389 543.743 502.7065 546.5373 500.9182 552.3494 503.936 553.6906 506.9538 554.1377 509.5245 553.1318 511.4246 550.5611 514.4425 551.6788 517.2367 553.02 518.2427 554.2495 518.9133 555.0319 518.4662 557.8262 521.9311 560.9558 525.2843 564.1971 527.9668 567.3267 530.7611 572.0211 529.4198 573.5859 529.0845 575.0389 529.5316 576.8273 530.7611 579.2862 532.4376 577.2744 531.4317 573.8095 534.4495 574.8154 540.4851 579.2862 541.9382 581.2981 546.6326 593.4812 546.2972 593.9283 544.8442 600.5228 545.0678 601.3052 545.0678 601.4169 546.2972 603.8759 546.6326 604.8818 545.6266 606.6702 543.7265 608.1232 542.6088 609.688 543.9501 612.0352 545.2913 613.7118 545.6266 614.9413 545.7384 615.1648 546.5208 616.6178 548.4209 618.2944 545.6266 620.3063 545.8502 621.3122 540.9322 622.0946 533.8906 623.2123 528.6374 627.4596 519.5839 636.4013 517.7956 632.154 517.0132 617.512 515.0013 611.141 514.8895 604.5465 508.8539 608.0114 491.6411 609.7998 474.7637 606.8937 470.4046 602.6464 462.2453 597.7285 459.8981 593.9283 459.3393 589.5692 461.91 581.9688 462.2453 574.2565 454.086 572.58 446.262 570.3446 440.5617 564.9795 431.7318 552.1259 424.9138 549.8904 416.6427 550.3375 409.6011 548.9963 405.9127 528.8774 408.2598 508.8704 410.16 501.27 415.9721 497.358 423.349 496.352 432.626 497.5815 435.0849 497.358 432.9613 487.7457 428.6022 478.3569 426.7021 468.7446 428.8257 427.7245 427.3727 414.0884ZM537.8026 569.4504L537.3556 566.6561 536.3496 564.5325 535.1201 561.9617 534.3377 559.391 534.4495 556.7085 535.2319 554.3613 535.5672 551.7905 534.3377 548.7727 537.5791 552.0141 540.8205 559.5028 543.0559 562.9677 543.6147 564.4207 546.0737 570.9034 552.3329 580.851 555.2389 585.5454 559.598 608.1232 559.598 608.235 559.3745 613.3765 555.5743 616.5061 551.9976 613.7118 550.8799 612.4823 550.321 611.9234 550.2092 610.6939 549.9857 609.3527 549.9857 608.7938 551.1034 592.4752 550.321 586.8867 547.5267 584.4277 546.409 582.0805 537.8026 569.4504Z" />
  <path class="Mahanuvara" d="M209.1954 733.6422L209.4189 728.5008 211.2073 724.477 209.4189 721.2356 205.5069 711.8469 208.413 709.1644 217.3547 707.7113 221.3784 703.3523 224.1727 703.1287 226.967 702.4581 228.9789 699.3285 230.4319 695.8636 227.5259 692.0634 223.7256 688.3749 223.7256 684.5747 224.2845 679.9921 221.1549 676.1919 214.6722 672.5034 212.4367 670.9386 212.8838 665.9089 201.7067 656.1848 198.5771 648.2491 203.9421 648.8079 208.5248 647.4667 208.0777 646.2372 207.8541 644.5606 208.7483 642.9958 209.866 641.5428 210.6484 636.4013 214.4486 636.4013 218.3606 639.1956 222.8315 639.5309 223.1668 636.8484 222.8315 633.9424 226.5199 631.9305 230.3201 632.4893 233.0026 631.1481 231.5496 627.6832 229.426 624.33 232.4438 623.5476 235.5734 622.0946 240.8266 629.4715 257.257 639.7545 266.6458 640.3133 272.2343 634.1659 271.3402 624.6653 272.905 620.6416 276.4816 618.4062 280.2818 619.971 289.8942 627.9067 297.2711 626.789 305.4304 619.971 316.0486 620.0827 320.2959 617.9591 323.4255 621.8711 325.3256 620.8651 326.8904 619.4121 329.7965 614.6059 335.0497 613.8235 343.209 614.7177 345.4444 653.9494 351.033 672.727 350.5859 681.2216 343.6561 687.5925 338.1793 689.1573 334.938 691.1692 324.2079 689.0455 313.1426 690.6103 303.7538 689.9397 297.8299 680.5509 295.5945 680.3274 292.912 679.3215 289.2235 674.4035 284.7527 670.3798 285.5351 677.8684 287.8823 687.5925 282.629 696.4224 266.0869 716.0942 261.6161 714.9765 256.5864 715.0882 249.0977 720.2297 243.9562 721.3474 234.5674 720.2297 228.7553 724.9241 230.879 724.2535 232.8909 725.1476 237.4735 733.5305 241.2737 737.2189 244.2915 741.3545 241.2737 750.0726 235.6851 755.9965 228.1965 751.5256 216.5723 734.3129 209.1954 733.6422Z" />
  <path class="Mannārama" d="M139.2266 158.6913L139.5619 167.633 141.1267 176.1276 145.8211 183.7281 146.38 185.5164 146.6035 187.5283 146.4917 191.4403 145.4858 195.2405 146.0447 201.3879 145.7094 206.7529 140.009 208.653 138.8913 211.2238 137.9971 214.1298 136.6559 217.0359 135.7617 220.0537 136.9912 222.4009 138.2207 224.1892 134.8675 233.578 177.4524 231.3426 184.3822 234.5839 188.4059 240.9549 192.3179 251.0143 190.9767 260.0678 177.2288 265.2092 162.6986 266.9976 153.3098 265.9916 146.1564 270.0154 142.2444 278.7336 135.6499 279.4042 134.644 283.3162 134.644 286.6693 140.6796 291.3637 150.5155 303.9938 125.367 310.5883 112.7369 310.4766 101.3362 305.7822 103.3481 321.0948 102.7892 345.2374 100.3303 344.9021 98.2066 343.8961 91.2768 339.9842 84.6823 337.1899 77.0818 336.5193 70.2638 333.9485 67.3578 332.1602 68.3637 331.1542 68.699 329.813 71.2697 321.8772 71.6051 321.5419 71.8286 321.3184 72.3875 319.0829 74.8464 313.8297 77.0818 288.4576 70.9344 272.2508 71.3815 269.4565 71.8286 251.0143 71.8286 250.7908 71.2697 244.5316 70.4873 241.5138 69.1461 239.2783 68.0284 236.5958 70.4873 235.3663 73.9523 234.6957 76.1877 234.0251 91.165 220.5008 98.989 216.5888 102.2304 213.7945 103.9069 207.4235 107.0365 200.829 108.7131 191.7756 117.0959 170.3155 117.3195 169.086 118.1019 165.9564 120.002 165.9564 128.8319 165.174 134.3087 162.3798 139.2266 158.6913ZM16.1666 200.829L13.2605 199.7113 12.031 197.2524 12.8134 194.6816 16.1666 193.5639 27.679 193.5639 32.8205 194.9052 38.0737 196.2464 49.0273 200.4937 59.5338 206.5294 68.3637 215.1358 68.2519 215.1358 64.1164 214.2416 56.6277 210.5531 52.2686 209.7707 58.9749 217.3712 64.2282 223.4068 66.5754 227.5424 60.4279 226.76 56.4042 223.6304 53.6099 220.2772 51.4862 218.7124 48.9155 217.3712 38.2972 207.8706 33.044 205.5234 27.679 203.0645 23.8788 202.0585 21.8669 201.4997 16.1666 200.829Z" />
  <path class="Mātale" d="M344.662 553.6906L344.4385 558.0497 346.3386 563.9736 346.8975 568.8915 344.4385 581.2981 341.8678 593.4812 343.209 614.7177 335.0497 613.8235 329.7965 614.6059 326.8904 619.4121 325.3256 620.8651 323.4255 621.8711 320.2959 617.9591 316.0486 620.0827 305.4304 619.971 297.2711 626.789 289.8942 627.9067 280.2818 619.971 276.4816 618.4062 272.905 620.6416 271.3402 624.6653 272.2343 634.1659 266.6458 640.3133 257.257 639.7545 240.8266 629.4715 235.5734 622.0946 235.6851 619.4121 237.1382 617.512 237.697 614.3824 236.9146 611.141 235.5734 608.3468 234.0086 605.776 231.4378 600.5228 232.1085 595.046 235.7969 591.6928 236.6911 589.4574 236.5793 587.1102 237.3617 584.0924 237.4735 581.0746 232.7791 576.3802 231.3261 568.3327 230.5437 559.7263 229.3142 557.8262 228.3083 557.1556 228.3083 552.6847 226.5199 548.2139 223.9492 543.9666 222.1608 539.831 220.149 539.2722 217.9135 538.0427 217.2429 533.4601 218.4724 529.2128 223.9492 525.189 232.5556 521.9476 237.1382 516.4708 241.2737 516.5826 244.4033 518.5945 248.2035 516.0238 250.1036 512.8942 251.892 511.5529 253.5685 510.6587 253.4568 508.7586 252.7861 507.5292 256.1393 504.176 258.5982 500.3758 258.5982 495.5696 259.9395 491.3223 262.622 491.3223 264.5221 491.8812 265.9751 490.7635 271.0048 485.5102 274.358 482.6042 279.2759 480.1452 284.6409 477.9098 286.8763 480.1452 290.453 484.169 290.3413 488.7516 291.7943 490.2046 293.9179 491.0988 295.5945 489.9811 295.7063 488.3045 298.8359 486.8515 301.8537 487.7457 305.8774 488.5281 309.6777 490.8752 301.9655 498.9228 299.3947 511.2176 298.7241 517.2532 296.2651 527.7597 295.371 529.5481 294.9239 531.4482 287.4352 533.1248 285.6469 540.2781 289.1118 556.0378 288.6647 561.1793 291.2354 564.756 298.0535 566.209 304.5362 563.5265 309.5659 558.8321 311.8013 561.9617 315.8251 564.4207 316.9428 559.8381 317.5017 555.2554 331.2495 556.1496 344.662 553.6906Z" />
  <path class="Mātara" d="M189.0766 1009.7171L188.9648 1009.3817 188.5177 1006.6992 188.5177 1003.7932 191.312 998.7635 196.0064 997.0869 197.5712 993.9573 192.9886 992.0572 190.9767 990.9395 190.1943 988.257 191.7591 985.798 195.3358 984.345 199.3595 980.2095 202.9362 976.0739 198.8007 972.3855 194.218 969.2559 190.3061 965.4557 188.6295 960.426 190.9767 955.3963 192.765 950.0312 191.5355 945.7839 188.853 942.6543 197.9065 944.2191 202.4891 938.6306 200.4772 931.2537 195.1122 923.4297 189.9707 920.1883 187.4 915.3822 191.5355 914.2645 195.7828 915.6057 201.2596 919.6295 206.1776 924.3239 214.1133 926.1122 215.6781 918.7353 211.6543 914.8233 208.6365 910.1289 212.1014 906.664 217.4664 905.0992 222.4961 904.3168 227.5259 903.1991 229.3142 898.9518 233.6733 898.9518 245.0739 897.387 248.7624 904.3168 247.0858 908.8994 251.6684 909.6818 257.8158 908.6759 260.7219 912.2526 260.4983 914.7116 263.8515 917.1705 262.5102 918.5118 262.5102 920.9707 260.0513 921.9767 260.4983 923.8768 258.71 928.4594 260.4983 932.5949 250.5507 940.0836 247.4211 951.149 251.892 954.3903 256.8099 956.1787 259.0453 955.8433 260.4983 957.1846 259.2689 959.8671 257.7041 962.2143 258.5982 966.6851 262.8455 968.9206 265.8634 968.4735 268.6576 969.0323 267.7635 971.2678 265.4163 973.5032 268.2106 983.4508 259.8277 987.0275 260.4983 991.163 264.075 993.5102 266.534 993.7338 268.7694 994.9633 268.6576 997.0869 266.7575 998.0928 269.8871 1002.7872 276.3699 1005.8051 277.8229 1006.5875 273.9109 1011.1701 263.2926 1010.6112 258.9336 1011.1701 255.4686 1012.5113 251.892 1014.5232 245.6328 1019.2176 243.8444 1019.6647 242.0561 1020 237.8088 1018.4352 233.2262 1016.088 230.6554 1015.3056 228.8671 1014.7468 213.8898 1016.5351 209.6425 1015.6409 207.5188 1013.5173 206.1776 1010.723 205.0598 1009.0464 204.2774 1007.8169 199.9184 1010.3877 196.0064 1010.723 189.0766 1009.7171Z" />
  <path class="Mŏṇarāgala" d="M504.1595 850.2196L499.5769 855.6964 492.6471 856.9259 487.1703 861.0614 482.4759 865.644 476.3285 868.3265 471.2988 872.462 471.4106 876.8211 472.64 880.286 471.5223 882.1861 470.4046 883.7509 470.5164 885.8746 470.5164 888.11 467.1633 893.5868 460.0099 892.022 453.1919 894.481 450.8447 894.1457 450.2858 893.475 447.3798 895.4869 432.0671 901.4108 424.5784 903.4227 420.6664 904.9875 418.0957 907.5582 411.0541 911.4702 404.6832 908.7877 400.6594 902.0814 395.8532 895.7105 392.6119 896.1575 390.2647 897.8341 387.4704 897.9459 384.8997 897.4988 382.9996 892.8044 378.6405 891.2396 372.1578 890.4572 365.675 890.4572 363.3278 893.2515 360.0865 891.0161 360.1982 894.481 358.0746 897.387 354.4979 897.7223 351.2565 897.7223 350.0271 903.5344 352.486 909.3465 346.8975 913.5938 339.6323 915.941 333.1496 919.5177 326.7787 923.6532 324.7668 917.6176 322.3078 912.9232 317.6134 909.5701 312.6955 906.8876 309.007 902.0814 306.2128 896.4928 305.9892 880.5096 304.3127 876.374 303.5303 872.1267 307.4422 864.7498 312.3602 857.82 314.8191 846.6429 317.2781 840.8308 322.0843 835.1305 324.655 828.536 328.9023 822.0532 332.0319 822.2768 333.932 825.2946 335.1615 829.7655 337.1734 830.8832 339.297 831.3303 341.6442 836.5835 343.4326 842.2838 345.2209 843.178 347.0092 844.1839 348.127 852.455 351.033 856.1435 353.2684 859.8319 354.2744 852.9021 357.9628 847.2018 360.7571 848.9901 363.5514 850.3314 364.3338 844.1839 369.6988 842.2838 365.8986 836.2482 363.4396 829.0948 363.4396 825.0711 363.9985 821.2708 367.7987 815.347 367.4634 810.7644 362.8807 809.5349 361.8748 806.1817 364.1102 801.4873 363.5514 795.8988 364.222 790.422 372.9402 789.6396 375.1756 785.2805 382.6642 783.0451 376.4051 774.2152 381.8818 771.1974 388.4763 769.409 391.7177 766.7265 394.2884 763.4851 395.5179 761.3615 397.0827 759.7967 399.6535 760.9144 403.0066 760.2438 404.2361 756.4436 404.9067 752.4198 406.695 749.7373 408.0363 746.8312 409.0422 739.6779 410.2717 734.9835 410.2717 730.1773 409.4893 726.6007 408.1481 723.1358 406.248 720.7886 404.9067 719.5591 402.1124 715.9824 392.6119 718.4414 389.5941 715.3118 387.0233 709.9468 383.1113 706.0348 379.87 701.8992 380.6524 696.646 383.6702 692.0634 387.9175 692.6222 391.4942 696.5342 395.7415 694.7459 398.0887 690.7221 405.1303 681.7804 407.1421 676.8625 407.1421 671.4975 417.2015 669.1503 419.2134 674.0682 421.4488 678.3155 426.7021 676.5272 431.5083 673.0623 430.167 663.3382 430.0552 653.3905 436.4262 653.6141 441.6794 650.708 442.9089 648.9197 444.6972 646.796 445.815 644.2253 445.5914 641.0957 444.1384 638.0779 444.1384 634.7248 446.7091 634.5012 450.2858 633.607 452.0741 630.8128 452.9683 628.3538 455.8744 627.1243 459.004 626.0066 465.3749 622.5417 470.5164 623.8829 466.7162 629.8068 468.281 630.8128 469.9575 631.1481 469.5105 634.613 472.5283 648.2491 472.193 654.5083 473.1989 659.538 478.8992 664.4559 482.4759 670.7151 483.2583 676.3036 488.8469 684.1276 484.7113 687.369 479.3463 693.7399 476.3285 701.7875 479.5699 707.9349 480.6876 711.9586 482.6994 715.5353 484.7113 716.4295 486.6114 716.4295 488.288 717.3237 489.6293 718.5531 498.7945 720.9003 506.3949 725.4829 505.8361 730.4009 504.7184 735.5424 506.5067 740.4603 506.5067 745.49 509.5245 749.9608 510.8658 755.1023 504.1595 850.2196Z" />
  <path class="Mulativ" d="M327.5611 223.5186L323.5373 225.3069 318.6194 226.76 314.1485 229.3307 309.1188 230.7837 297.2711 232.3485 287.0999 237.0429 291.9061 219.3831 288.7765 215.2475 280.5054 210.2178 272.4579 208.9883 268.6576 211.5591 264.6339 212.565 265.081 208.9883 267.5399 205.2999 264.5221 200.0466 257.5923 199.2642 256.6981 190.8814 248.6506 187.8636 240.2678 188.0871 239.7089 189.3166 239.2618 190.6579 236.8029 192.1109 234.2321 193.3404 229.7613 197.2524 223.5021 200.0466 219.4783 194.1228 213.1074 190.099 204.1657 190.3226 199.2477 189.9872 194.5534 190.4343 193.8827 194.2345 195.8946 197.0288 199.6948 197.5877 199.9184 199.7113 199.9184 202.0585 200.9243 206.5294 201.1479 210.8884 196.5652 217.93 189.4119 223.7421 177.4524 231.3426 134.8675 233.578 138.2207 224.1892 136.9912 222.4009 135.7617 220.0537 136.6559 217.0359 137.9971 214.1298 138.8913 211.2238 140.009 208.653 145.7094 206.7529 146.0447 201.3879 145.4858 195.2405 146.4917 191.4403 146.6035 187.5283 146.38 185.5164 145.8211 183.7281 141.1267 176.1276 139.5619 167.633 139.2266 158.6913 146.0447 159.5855 145.374 152.3204 152.0803 143.4904 171.8638 141.255 178.9054 141.1432 185.8352 142.3727 192.6532 141.7021 197.1241 130.4132 200.589 130.3014 212.325 130.9721 218.8077 130.525 223.1668 128.1778 226.7435 116.33 227.9729 115.9947 229.873 118.4537 235.0145 122.701 240.8266 125.9424 240.156 120.0185 240.9384 114.0946 246.4152 109.7355 246.974 105.3765 248.2035 104.147 249.5448 103.2528 251.1096 101.9116 281.6231 126.7248 281.8466 127.1718 283.7468 130.1897 286.541 133.8781 292.1296 139.1314 295.5945 143.6022 292.5767 145.2788 292.4649 145.2788 290.7883 144.4964 290.5648 144.3846 290.453 144.3846 287.7705 140.9197 286.3175 140.1373 281.6231 139.3549 279.6112 139.9138 280.6172 142.0374 280.9525 142.708 294.2532 155.2264 299.5065 158.1325 297.4946 154.8911 296.2651 151.8733 296.824 149.7496 300.4007 148.8554 302.0772 149.9732 304.8715 158.1325 307.3305 163.0504 317.1663 182.7221 315.1545 182.0515 309.6777 179.9278 306.3245 179.9278 304.8715 183.6163 306.8834 184.5105 311.0189 185.2928 314.8191 187.64 314.8191 187.9754 315.378 193.5639 317.1663 193.5639 317.9487 192.1109 318.7311 191.4403 319.6253 190.9932 320.8548 190.2108 322.0843 195.3523 322.3078 196.0229 325.8845 204.4057 330.8024 211.8944 335.8321 215.1358 336.1674 215.4711 336.7263 215.9182 336.7263 217.8183 335.4968 219.6066 333.1496 220.5008 332.479 219.7184 329.5729 215.1358 326.5551 213.4592 319.5135 211.6708 315.378 209.7707 317.2781 212.4532 318.284 213.9063 327.5611 222.6244 327.5611 223.5186Z" />
  <path class="Nuvara Ĕliya" d="M298.3888 795.0046L283.7468 802.6051 275.6992 803.7228 267.2046 803.3875 260.8337 803.9463 255.3569 804.8405 241.2737 802.9404 227.8612 799.9226 221.602 799.3637 216.237 795.3399 217.2429 792.6574 219.143 790.8691 217.4664 788.969 217.5782 784.7217 220.596 782.0392 220.149 778.5743 218.1371 771.7562 212.2132 767.2854 204.7245 764.9382 202.4891 757.4495 204.2774 747.7254 202.6009 746.0488 201.2596 744.1487 202.6009 742.1369 204.6128 741.4662 208.1894 738.3366 210.4249 734.6482 209.5307 734.4246 209.1954 733.6422 216.5723 734.3129 228.1965 751.5256 235.6851 755.9965 241.2737 750.0726 244.2915 741.3545 241.2737 737.2189 237.4735 733.5305 232.8909 725.1476 230.879 724.2535 228.7553 724.9241 234.5674 720.2297 243.9562 721.3474 249.0977 720.2297 256.5864 715.0882 261.6161 714.9765 266.0869 716.0942 282.629 696.4224 287.8823 687.5925 285.5351 677.8684 284.7527 670.3798 289.2235 674.4035 292.912 679.3215 295.5945 680.3274 297.8299 680.5509 303.7538 689.9397 313.1426 690.6103 324.2079 689.0455 334.938 691.1692 334.7144 695.8636 336.6145 702.3463 336.0557 704.6935 336.6145 706.9289 337.7322 708.2702 338.7382 709.6114 336.9498 711.8469 335.7204 714.1941 337.0616 718.7767 337.5087 720.565 336.6145 722.4651 334.938 724.7006 332.8143 726.6007 330.4671 731.1833 329.3494 736.213 323.6491 744.7076 313.8132 746.8312 309.2306 749.0667 305.095 752.8669 303.8656 758.0084 300.4007 761.9204 295.5945 761.6968 290.9001 761.9204 291.2354 766.0559 299.3947 770.1914 301.1831 773.7681 302.6361 777.7919 303.9773 779.3567 304.9833 781.145 301.1831 787.2924 303.5303 788.8572 305.8774 789.9749 303.3067 793.7751 298.3888 795.0046Z" />
  <path class="Pŏḷŏnnaruva" d="M327.8964 393.4108L331.8084 392.2931 334.8262 396.7639 338.9617 398.4405 342.9855 401.4583 343.9914 406.9351 347.2328 410.1765 358.0746 409.0587 377.6345 413.8649 382.2172 413.8649 386.4645 416.3239 390.6 419.5652 395.1826 421.9124 398.424 421.5771 400.3241 424.2596 400.6594 427.501 400.5476 430.8541 401.4418 435.7721 400.1006 439.0134 397.0827 440.9135 398.0887 441.6959 399.4299 442.143 405.8009 440.5782 409.4893 432.0836 410.8306 429.6246 412.3954 422.8066 414.1837 421.2418 416.1956 419.7888 417.8722 416.6592 420.2194 414.0884 423.4607 414.0884 427.3727 414.0884 428.8257 427.7245 426.7021 468.7446 428.6022 478.3569 432.9613 487.7457 435.0849 497.358 432.626 497.5815 423.349 496.352 415.9721 497.358 410.16 501.27 408.2598 508.8704 405.9127 528.8774 409.6011 548.9963 408.4834 554.8084 409.2658 560.9558 407.8128 563.7501 406.1362 565.4266 405.0185 568.5562 404.3479 571.2387 399.3182 570.5681 393.2825 567.1032 380.7641 563.1912 373.1637 555.5908 363.7749 552.0141 359.0805 552.7965 349.4682 553.6906 344.662 553.6906 331.2495 556.1496 317.5017 555.2554 316.9428 559.8381 315.8251 564.4207 311.8013 561.9617 309.5659 558.8321 304.5362 563.5265 298.0535 566.209 291.2354 564.756 288.6647 561.1793 289.1118 556.0378 285.6469 540.2781 287.4352 533.1248 294.9239 531.4482 295.371 529.5481 296.2651 527.7597 298.7241 517.2532 299.3947 511.2176 301.9655 498.9228 309.6777 490.8752 305.8774 488.5281 301.8537 487.7457 298.8359 486.8515 295.7063 488.3045 295.5945 489.9811 293.9179 491.0988 291.7943 490.2046 290.3413 488.7516 290.453 484.169 286.8763 480.1452 284.6409 477.9098 284.9762 471.0917 290.0059 463.9384 284.8645 459.9146 285.3116 450.8612 287.0999 440.69 290.7883 430.8541 292.912 419.9006 296.7122 409.9529 306.8834 408.0528 318.284 408.0528 321.6372 406.0409 322.6431 401.4583 324.655 396.8757 327.8964 393.4108Z" />
  <path class="Puttalama" d="M67.3578 332.1602L70.2638 333.9485 77.0818 336.5193 84.6823 337.1899 91.2768 339.9842 98.2066 343.8961 99.6596 354.6262 94.9652 364.5738 86.9177 371.1683 86.5824 373.0684 85.4647 375.4156 81.1056 377.4275 78.1996 383.7985 81.9998 391.1754 88.4825 417.3298 90.0473 422.0242 95.4123 422.0242 99.7714 420.0123 104.354 423.4772 109.6073 423.2537 113.4075 426.3833 116.2018 430.0717 116.7606 434.9897 116.6488 440.2429 119.3314 450.5259 120.2255 455.6673 122.6845 460.2499 126.2612 461.4794 129.279 463.4913 128.6084 466.6209 127.6024 469.974 127.826 477.0156 127.6024 482.9395 125.7023 485.8455 124.1375 488.8634 127.2671 494.6755 124.0257 497.1344 118.6607 494.1166 117.2077 496.6873 117.0959 499.8169 115.084 501.9406 113.5193 502.3877 113.7428 501.9406 113.9663 501.4935 110.1661 503.2818 108.6013 506.8585 108.1542 509.541 107.1483 511.8882 101.6715 514.6825 100.442 517.365 99.7714 520.1593 96.6418 522.2829 93.2887 524.0713 92.2827 526.8656 91.8356 529.9952 89.3767 536.2543 88.5943 543.1842 89.9355 546.0902 90.9415 548.7727 89.1531 551.2317 86.3589 552.3494 82.6704 552.6847 79.3173 553.6906 77.5289 556.7085 76.2994 560.0616 79.429 560.844 80.8821 563.303 77.7525 564.9795 74.064 565.8737 72.2757 568.4444 71.2697 571.4623 67.3578 578.0568 64.5635 585.2101 64.1164 594.1518 64.5635 603.0935 74.064 654.2847 74.7347 669.7091 70.2638 667.9208 66.4636 670.3798 63.4458 669.9327 61.4339 667.6972 56.4042 668.3679 51.598 669.5974 45.4506 669.3738 34.3853 587.7809 32.8205 584.4277 33.8264 583.31 34.6088 583.1982 36.5089 584.4277 36.956 579.9569 38.1855 574.7036 38.5208 572.2447 38.8561 569.6739 37.4031 565.7619 35.3912 562.1853 35.0559 559.8381 34.7206 557.4909 34.7206 547.8785 28.7967 518.7063 28.0143 515.3531 24.9965 508.9822 22.4257 495.4579 18.1784 484.8396 11.6957 455.5556 11.6957 447.1727 12.8134 447.7316 12.9252 447.8433 12.9252 448.0669 13.484 448.9611 14.3782 444.1549 13.037 428.7305 11.6957 424.1479 15.943 421.3536 19.9668 416.1003 22.8728 410.1765 23.9905 405.2585 25.22 402.0172 32.8205 389.9459 32.7087 390.1694 28.9085 399.3347 23.9905 407.941 25.1083 410.0647 25.3318 410.5118 27.2319 412.5237 29.6909 413.4178 32.8205 413.4178 30.2497 420.5712 27.679 425.7127 26.5613 426.6068 25.3318 426.7186 24.4376 427.501 23.9905 430.1835 24.2141 436.4427 23.9905 438.3428 19.6315 452.2024 19.855 454.8849 20.1903 460.0264 24.6612 465.3914 25.8906 466.8444 20.7492 477.6862 29.0202 483.7219 40.9798 484.6161 47.0154 480.257 45.8977 475.6744 43.8858 472.0977 43.2152 470.6447 42.2092 469.527 39.9738 466.6209 37.4031 464.9443 36.6207 462.1501 45.3388 445.6079 45.0035 442.5901 43.8858 440.3547 42.5446 438.4546 41.7622 436.5545 41.5386 433.4249 41.8739 427.9481 41.7622 425.8244 41.7622 425.7127 41.6504 425.2656 40.9798 423.4772 40.5327 423.0301 39.9738 422.5831 39.5267 421.4653 39.9738 418.5593 41.2033 416.1003 44.5564 411.7413 45.3388 408.8352 45.8977 403.3584 48.2449 392.5166 50.7039 367.0328 52.2686 364.1267 53.9452 362.6737 55.2865 360.9971 55.8453 357.1969 55.8453 346.3551 57.2983 340.9901 60.7633 337.637 65.0106 334.7309 67.3578 332.1602Z" />
  <path class="Ratnapura" d="M136.097 789.4161L141.7974 784.2746 135.4264 777.5683 136.7677 774.4387 137.8854 770.862 140.6796 766.3912 143.921 762.3674 147.9448 760.5791 158.6748 771.4209 161.8044 775.5564 165.8282 778.5743 167.6165 777.5683 170.299 777.0095 172.0873 779.2449 173.3168 781.8156 179.7996 783.2686 187.6235 778.7978 190.8649 778.4625 194.7769 778.5743 200.2537 781.7039 207.407 784.1628 212.4367 784.8334 217.5782 784.7217 217.4664 788.969 219.143 790.8691 217.2429 792.6574 216.237 795.3399 221.602 799.3637 227.8612 799.9226 241.2737 802.9404 255.3569 804.8405 260.8337 803.9463 267.2046 803.3875 275.6992 803.7228 283.7468 802.6051 298.3888 795.0046 299.0594 804.5052 300.9595 803.611 302.8596 802.8286 306.4363 806.7406 310.7954 808.0818 310.2365 810.5408 309.4541 812.5527 308.4482 813.5586 301.4066 816.6882 300.1771 820.1531 302.9714 824.4004 306.8834 827.6418 312.8073 828.7595 318.9547 826.1888 324.2079 822.2768 328.9023 822.0532 324.655 828.536 322.0843 835.1305 317.2781 840.8308 314.8191 846.6429 312.3602 857.82 307.4422 864.7498 303.5303 872.1267 304.3127 876.374 305.9892 880.5096 306.2128 896.4928 309.007 902.0814 312.6955 906.8876 317.6134 909.5701 322.3078 912.9232 324.7668 917.6176 326.7787 923.6532 331.5848 928.9065 333.932 935.501 332.7025 940.0836 327.2257 938.2953 317.837 936.3952 314.8191 932.9303 310.9072 929.8007 305.9892 930.2477 301.0713 931.4772 296.0416 930.6948 277.1523 923.8768 262.5102 920.9707 262.5102 918.5118 263.8515 917.1705 260.4983 914.7116 260.7219 912.2526 257.8158 908.6759 251.6684 909.6818 247.0858 908.8994 248.7624 904.3168 245.0739 897.387 233.6733 898.9518 229.3142 898.9518 227.5259 903.1991 222.4961 904.3168 217.4664 905.0992 215.231 901.8579 211.0955 901.9696 203.048 898.0576 199.2477 897.9459 194.8887 896.1575 191.312 893.1397 188.1824 889.8983 178.9054 873.6915 168.0636 858.3789 166.6106 854.0198 170.5226 852.455 166.8341 845.3017 161.022 840.0484 157.4453 838.7072 154.651 836.0246 153.0862 828.4242 145.2623 820.8238 142.6915 815.6823 141.1267 810.7644 141.462 806.6288 136.9912 794.6693 136.097 789.4161Z" />
  <path class="Trikuṇāmalaya" d="M327.5611 223.5186L327.6728 227.5424 330.6906 229.7778 328.0081 232.3485 325.5492 235.2546 329.5729 238.3842 333.932 238.0488 337.5087 234.8075 340.1912 230.1131 341.8678 225.754 341.9795 225.8658 351.2565 237.1547 359.5276 251.3496 362.8807 254.8145 367.5751 256.2675 371.3754 259.2854 376.9639 272.8097 378.3052 274.2627 379.7582 275.8275 379.87 275.8275 386.1292 278.7336 389.3705 285.4398 392.9472 299.0759 393.6178 296.6169 394.4002 295.611 395.8532 295.9463 398.3122 297.2876 397.6416 299.8583 404.7949 307.6823 407.1421 311.5943 407.1421 316.2887 405.242 318.1888 402.5595 319.4183 400.1006 322.2125 400.2123 322.2125 402.0007 321.7655 404.0125 321.2066 404.4596 320.9831 405.3538 320.4242 405.4656 320.536 411.0541 332.719 411.8365 338.9782 405.4656 340.0959 405.3538 340.0959 406.695 335.8486 405.0185 332.4955 402.1124 332.0484 400.1006 336.5193 400.7712 339.9842 402.6713 342.4431 403.6772 345.1256 401.7771 349.0376 400.2123 347.9199 397.418 345.7963 392.9472 343.002 388.4763 341.8843 384.1173 343.7844 380.7641 348.2552 381.9936 350.6024 386.0174 350.0436 391.3824 345.5727 395.0708 349.4847 398.3122 354.1791 402.336 358.0911 408.0363 359.7677 419.884 359.5441 423.9078 356.9734 421.2253 350.9377 428.0433 347.8081 430.7259 346.914 433.5201 347.1375 433.6319 347.1375 436.7615 348.9259 439.5558 352.0554 441.6794 355.6321 443.5795 366.0268 447.6033 379.4394 447.7151 382.9043 447.8268 386.481 444.5855 384.1338 441.1206 377.204 438.1028 375.7509 437.991 377.651 439.2205 386.1457 439.3322 386.7045 440.7853 389.9459 442.4618 390.84 444.0266 391.5107 444.1384 391.5107 447.6033 391.5107 450.2858 392.8519 451.9624 402.7996 453.9743 409.7294 454.3096 410.8471 454.8684 415.0944 431.7318 412.6354 427.3727 414.0884 423.4607 414.0884 420.2194 414.0884 417.8722 416.6592 416.1956 419.7888 414.1837 421.2418 412.3954 422.8066 410.8306 429.6246 409.4893 432.0836 405.8009 440.5782 399.4299 442.143 398.0887 441.6959 397.0827 440.9135 400.1006 439.0134 401.4418 435.7721 400.5476 430.8541 400.6594 427.501 400.3241 424.2596 398.424 421.5771 395.1826 421.9124 390.6 419.5652 386.4645 416.3239 382.2172 413.8649 377.6345 413.8649 358.0746 409.0587 347.2328 410.1765 343.9914 406.9351 342.9855 401.4583 338.9617 398.4405 334.8262 396.7639 331.8084 392.2931 327.8964 393.4108 333.4849 373.4037 334.1556 370.1624 335.1615 367.0328 338.4029 363.9032 341.9795 361.4442 344.1032 357.644 342.4266 353.6202 339.4088 351.3848 337.1734 348.367 333.4849 339.7606 326.6669 329.5894 325.6609 323.3303 322.8667 320.6477 320.743 318.1888 320.5195 312.8238 324.4315 303.5468 322.5314 298.07 317.7252 287.5635 317.6134 276.3864 321.9725 269.9036 324.9903 263.1974 322.5314 261.2972 320.4077 258.503 316.4957 254.1439 305.2068 246.3199 298.7241 242.5197 291.1237 242.4079 283.8585 245.314 284.9762 240.8431 287.0999 237.0429 297.2711 232.3485 309.1188 230.7837 314.1485 229.3307 318.6194 226.76 323.5373 225.3069 327.5611 223.5186Z" />
  <path class="Vavuniyāva" d="M287.0999 237.0429L284.9762 240.8431 283.8585 245.314 276.8169 246.6552 269.9989 248.6671 262.5102 253.9204 243.3974 254.591 243.8444 260.2913 250.5507 262.6385 255.2451 268.7859 257.4805 275.4922 251.3331 280.4101 247.6447 284.7692 244.5151 289.5754 238.9265 296.1699 232.4438 302.0937 225.514 307.347 217.3547 307.347 212.9956 304.2174 208.1894 301.7584 200.3655 305.3351 190.1943 318.5241 185.3881 329.813 180.8055 331.8249 176.8935 338.8664 174.4345 338.7547 171.752 337.9723 166.2752 335.0662 163.5927 329.5894 162.5868 326.0128 160.9102 322.8832 157.11 321.0948 153.198 319.7536 150.6273 312.3767 150.5155 303.9938 140.6796 291.3637 134.644 286.6693 134.644 283.3162 135.6499 279.4042 142.2444 278.7336 146.1564 270.0154 153.3098 265.9916 162.6986 266.9976 177.2288 265.2092 190.9767 260.0678 192.3179 251.0143 188.4059 240.9549 184.3822 234.5839 177.4524 231.3426 189.4119 223.7421 196.5652 217.93 201.1479 210.8884 200.9243 206.5294 199.9184 202.0585 199.9184 199.7113 199.6948 197.5877 195.8946 197.0288 193.8827 194.2345 194.5534 190.4343 199.2477 189.9872 204.1657 190.3226 213.1074 190.099 219.4783 194.1228 223.5021 200.0466 229.7613 197.2524 234.2321 193.3404 236.8029 192.1109 239.2618 190.6579 239.7089 189.3166 240.2678 188.0871 248.6506 187.8636 256.6981 190.8814 257.5923 199.2642 264.5221 200.0466 267.5399 205.2999 265.081 208.9883 264.6339 212.565 268.6576 211.5591 272.4579 208.9883 280.5054 210.2178 288.7765 215.2475 291.9061 219.3831 287.0999 237.0429Z" />
  <path class="Yāpanaya" d="M251.1096 101.9116L249.5448 103.2528 248.2035 104.147 230.6554 92.0757 224.6198 89.2814 219.2548 88.0519 218.4724 87.7166 217.69 87.3813 213.1074 83.8046 211.319 82.7987 209.5307 82.4634 207.407 82.5751 206.96 80.0044 203.6068 69.945 204.2774 70.2803 204.2774 68.2684 194.8887 63.574 172.1991 44.9083 153.6451 23.4482 144.2563 18.3067 129.5025 14.8418 125.5905 12.0475 125.0317 8.0238 130.5085 5.6766 132.185 5.3413 137.5501 4.4471 148.2801 4 153.4216 4.8942 156.9982 7.4649 159.3454 15.9595 161.6926 19.5362 195.4475 59.4385 200.3655 63.0152 210.4249 68.8273 251.1096 101.9116ZM155.7688 59.8856L142.5798 54.0735 137.7736 51.2792 134.5322 51.2792 135.2029 57.6502 136.9912 59.4385 139.6737 61.5622 141.3503 64.1329 139.6737 67.486 137.7736 68.1567 135.8735 67.0389 134.1969 65.5859 129.1672 63.0152 119.5549 54.6323 114.0781 52.2851 116.8724 55.4147 121.9021 59.7738 124.8081 62.9034 118.549 61.7857 112.4015 59.215 99.9949 52.2851 90.0473 44.4612 84.2352 42.3375 83.6763 42.0022 81.4409 40.5492 79.3173 39.655 78.982 41.5551 76.1877 39.655 75.07 37.0843 74.6229 34.0664 73.6169 30.7133 71.9404 27.8073 70.9344 26.466 68.2519 23.0011 66.5754 19.9833 72.1639 17.189 82.3351 7.6884 86.8059 5.6766 86.9177 5.6766 107.0365 7.4649 117.543 6.2354 121.3432 6.6825 122.908 10.2592 122.5727 15.736 123.3551 17.6361 125.5905 18.3067 127.7142 18.642 133.8616 20.2068 135.2029 20.9892 136.3206 23.2246 139.1149 23.1129 141.2385 22.4422 142.1327 22.2187 143.3622 21.9952 144.2563 21.8834 146.2682 23.1129 147.1624 23.56 154.3157 31.4957 164.7105 42.7846 164.7105 42.8964 161.2455 50.385 155.7688 59.8856ZM20.5256 90.0638L18.402 91.9639 16.2783 93.9758 9.7956 94.4229 3.76 92.411 1.1892 89.0579 1.1892 78.3278 1.8598 75.6453 3.6482 75.9806 5.3248 78.2161 6.4425 80.8986 10.9133 82.3516 16.1666 82.7987 17.5078 83.6928 20.5256 90.0638ZM62.9987 59.4385L58.9749 56.5325 55.0629 50.4968 48.8037 37.9784 51.598 33.5076 52.2686 27.8073 53.9452 23.1129 59.5338 21.8834 62.4398 22.7776 62.5516 22.7776 62.7751 25.013 61.7692 28.1426 61.0986 31.6075 61.2103 35.1842 61.5457 38.0902 61.5457 38.3138 61.7692 38.8726 62.6634 40.8845 63.8928 42.2257 64.787 43.3435 65.9047 43.567 70.9344 43.3435 71.7168 44.1259 72.0521 48.0378 72.7228 49.6026 75.6288 51.5028 79.6526 53.1793 83.0057 55.0794 83.2293 55.7501 84.1234 57.6502 82.3351 59.4385 78.982 59.4385 75.2935 58.3208 72.7228 56.756 70.9344 56.3089 66.24 58.9914 62.9987 59.4385Z" />
</svg>