<?xml version="1.0" encoding="utf-8"?>
<svg xmlns="http://www.w3.org/2000/svg" viewBox="0 0 903 1024" style="stroke-width:0.25px;stroke-linejoin:round;stroke:#444;fill:#ddd" fill-rule="evenodd">
  <path class="Chuquisaca" d="M327.1635 911.8055L321.1278 907.2229 310.7331 895.934 309.5036 892.9162 309.3919 892.5809 309.2801 890.569 310.0625 882.2979 310.0625 881.8508 309.7272 881.0684 309.6154 880.1743 309.6154 879.1683 309.7272 877.4917 312.8568 866.5382 313.3039 856.5905 315.3157 853.3492 315.8746 852.0079 316.7688 847.4253 317.1041 846.3076 322.6926 832.7833 317.5512 811.9938 317.3276 810.429 317.2158 807.6348 317.3276 806.8524 318.11 804.2816 318.4453 803.4992 318.8924 802.8286 319.3395 802.158 321.2396 799.4755 321.5749 798.1342 321.2396 796.793 321.1278 796.3459 321.1278 794.6693 321.4631 794.2222 321.7985 793.9987 322.5809 793.7751 322.9162 793.5516 323.2515 793.3281 324.481 792.0986 325.934 790.9809 326.2693 790.7573 327.7223 790.1985 329.9578 789.8631 331.5226 789.4161 339.123 788.7454 340.3525 788.4101 354.2121 780.5861 359.9124 774.5505 362.3714 770.9738 363.042 769.9679 362.4832 768.4031 360.9184 765.2735 354.771 757.0024 353.9886 755.5494 353.5415 754.0964 353.4297 752.5316 353.6532 750.855 354.1003 749.6255 354.2121 748.9549 354.1003 748.2843 353.8768 747.7254 353.4297 747.1666 352.8708 746.6077 352.6473 746.7195 352.312 745.0429 351.5296 743.2546 350.3001 741.6898 349.0706 740.6838 347.1705 740.125 344.9351 740.3485 339.2348 742.2486 337.5582 742.2486 337.3347 742.0251 337.1111 741.6898 336.8876 741.578 336.3287 741.9133 334.8757 742.3604 333.0873 741.8015 328.6165 739.2308 327.387 738.3366 326.1575 737.666 322.9162 736.9954 321.6867 736.213 320.6807 735.0953 316.9923 732.6363 316.2099 731.7421 314.5333 729.2832 312.6332 727.8301 311.5155 726.8242 311.0684 725.8183 310.8449 723.8064 310.5096 722.8004 310.0625 722.1298 309.6154 721.6827 307.1564 720.1179 306.0387 718.1061 304.6975 714.3058 304.6975 714.0823 304.6975 713.8587 304.6975 713.5234 304.921 713.2999 305.0328 712.8528 306.2623 710.7292 308.1624 707.7113 308.7212 707.1525 309.6154 706.2583 309.8389 705.8112 309.8389 705.4759 309.7272 705.1406 309.6154 704.2464 309.5036 703.2405 309.3919 702.7934 309.2801 702.3463 309.0565 701.8992 308.833 701.5639 308.2741 701.0051 307.6035 700.4462 307.4917 700.2227 307.2682 699.7756 307.1564 698.9932 307.1564 698.3226 307.38 697.8755 307.4917 697.6519 310.1743 695.3047 311.292 694.6341 311.7391 694.187 312.2979 693.5164 313.0803 692.1751 313.3039 691.281 313.4156 690.4986 313.3039 689.7162 313.0803 689.2691 312.8568 688.822 312.4097 688.5985 312.0744 688.3749 311.6273 688.2631 311.1802 688.1514 310.8449 688.1514 307.6035 688.9338 306.1505 689.4926 298.103 693.5164 297.7677 693.6282 297.4323 693.6282 296.9853 693.6282 296.4264 693.2928 296.2029 692.8458 296.2029 692.3987 296.3146 691.8398 296.5382 691.5045 296.7617 691.0574 297.097 690.7221 298.7736 689.2691 299.3325 688.5985 299.6678 687.8161 299.7795 687.4807 298.2147 679.0979 297.9912 675.8565 298.5501 672.1681 298.4383 671.2739 298.2147 670.7151 297.4323 670.1562 295.8675 669.4856 295.3087 669.1503 294.8616 668.7032 294.191 667.809 293.8557 667.3619 293.7439 666.9149 293.7439 666.2442 293.4086 663.4499 293.5204 662.7793 293.7439 662.444 294.191 662.2205 294.5263 661.9969 294.9734 661.9969 295.3087 662.1087 295.4205 662.3322 295.644 663.0029 295.8675 663.2264 296.0911 663.4499 296.9853 663.5617 297.4323 663.6735 297.7677 664.0088 298.2147 664.2323 298.6618 664.2323 300.8972 664.1206 301.3443 664.2323 301.7914 664.4559 302.1267 664.6794 302.3503 665.0147 302.5738 665.3501 302.6856 665.7971 302.9091 666.1325 303.2444 666.4678 303.6915 666.5795 304.1386 666.5795 304.5857 666.4678 306.5976 665.4618 307.0447 665.3501 307.38 665.2383 307.6035 665.3501 307.7153 665.4618 308.3859 665.7971 313.9745 667.5855 315.651 668.3679 316.7688 668.5914 319.116 668.0326 319.3395 668.815 319.3395 669.3738 319.6748 670.268 320.3454 670.268 321.1278 670.0444 321.9102 670.268 322.3573 672.8387 322.9162 673.6211 323.5868 674.5153 324.3692 675.1859 325.2634 675.5212 326.0458 676.3036 326.2693 678.2037 326.2693 680.3274 326.4928 681.8922 327.387 683.0099 328.7283 683.2334 331.5226 682.6746 332.8638 682.7864 334.2051 683.457 337.5582 685.6924 338.5641 686.0277 339.5701 686.0277 340.4642 685.1336 340.9113 684.1276 341.3584 681.8922 341.9173 680.7745 342.5879 679.8803 344.3762 678.3155 347.0587 676.4154 351.0825 674.5153 356.3358 672.9505 358.0123 672.8387 359.3536 673.174 359.9124 673.7329 360.8066 675.0741 361.2537 675.633 362.7067 676.1919 366.2834 676.1919 367.6246 677.086 368.5188 678.7626 369.1894 679.545 370.0836 679.7685 370.1954 680.1039 371.2013 682.451 371.8719 683.1217 373.325 684.2394 373.8838 684.91 375.1133 686.4748 375.7839 686.9219 376.7899 687.0337 380.4783 687.0337 381.7078 686.9219 382.602 686.5866 387.6317 682.451 389.3083 681.8922 390.873 682.451 391.2084 683.0099 391.879 684.91 392.3261 685.4689 392.9967 686.1395 393.7791 686.9219 394.5615 687.9278 394.785 688.822 394.785 689.8279 394.5615 690.9457 394.5615 692.2869 394.785 693.2928 395.9028 695.3047 396.2381 696.3107 396.7969 698.4343 397.3558 699.3285 398.8088 700.558 400.3736 701.4521 401.8266 702.3463 402.9443 704.1347 403.0561 705.1406 403.1679 706.2583 403.3914 707.2642 403.9503 708.1584 404.8444 708.6055 405.9622 708.829 408.0858 709.0526 409.2035 709.3879 409.8741 710.0585 410.433 710.9527 411.3272 711.8469 411.886 711.9586 412.3331 712.0704 412.892 712.1822 413.3391 712.8528 416.3569 723.5828 416.4686 724.477 416.9157 725.3712 417.5864 725.93 418.7041 726.3771 420.0453 726.3771 421.3866 726.2653 422.5043 726.0418 423.3985 725.4829 424.1809 724.8123 424.6279 723.9182 424.9633 722.9122 425.6339 717.2119 426.5281 715.5353 427.4222 714.8647 428.3164 714.8647 430.2165 715.5353 431.7813 715.5353 436.4757 715.0882 437.1463 716.3177 435.358 729.2832 435.1344 733.9776 438.264 788.0748 438.5993 788.8572 439.4935 790.9809 439.6053 791.2044 442.7349 822.8356 443.629 826.1888 445.3056 826.4123 450 826.4123 453.2414 827.1947 454.0238 827.1947 454.6944 827.0829 455.0297 826.8594 455.4768 826.3006 456.818 824.5122 457.2651 823.8416 457.9358 823.3945 458.6064 823.2827 460.0594 822.9474 460.73 822.7239 461.0653 822.5003 462.0713 821.7179 462.5184 821.1591 463.4125 819.8178 463.8596 819.259 464.5303 818.9237 465.5362 819.7061 466.4304 821.2708 468.7776 826.7476 469.3364 827.7536 469.8953 827.9771 470.6777 828.2007 549.6999 827.8653 549.8117 827.8653 548.1351 830.2125 545.4526 834.3481 544.8937 836.36 544.8937 843.5133 545.0055 850.4431 545.1173 858.0436 545.229 869.556 427.6458 869.4442 420.8277 869.2207 419.2629 869.2207 419.2629 868.9971 417.8099 867.6559 417.3628 866.7617 417.4746 865.9793 418.0334 865.0851 417.4746 864.8616 416.6922 865.0851 416.2451 865.1969 414.1215 865.1969 413.4508 864.7498 413.2273 863.2968 412.5567 862.738 411.1036 862.4026 409.5388 862.4026 408.4211 862.738 407.527 862.8497 406.521 862.1791 405.6268 861.1732 405.1798 860.9496 404.6209 862.2909 404.5091 862.738 404.3974 863.5204 404.2856 865.4205 404.7327 870.1149 404.7327 870.5619 404.6209 871.009 404.3974 871.5679 403.8385 872.2385 403.7267 872.6856 403.615 873.1327 403.5032 873.468 403.1679 874.1386 403.1679 874.5857 403.5032 875.7034 403.615 876.1505 403.5032 877.7153 403.3914 878.1624 403.2796 878.6095 403.1679 878.9448 402.8326 879.3919 402.609 879.7272 402.1619 880.0625 401.8266 880.3978 401.4913 880.6213 400.9325 880.7331 400.3736 880.6213 398.3617 880.0625 397.4675 879.9507 392.9967 880.3978 391.6554 880.1743 388.9729 878.9448 386.2904 876.7094 385.6198 876.2623 385.2845 876.0387 384.2785 875.927 383.8315 875.927 382.4902 876.0387 380.143 876.5976 379.4724 876.7094 379.0253 876.5976 378.69 876.374 378.3547 876.1505 378.1311 875.8152 377.9076 875.4799 376.1193 871.4561 375.8957 871.1208 374.4427 869.4442 374.2191 868.9971 373.6603 868.5501 373.325 868.2147 371.9837 867.4323 371.7602 867.2088 371.5366 866.8735 371.0895 865.644 370.866 865.3087 370.6425 865.0851 370.3072 864.9734 369.8601 864.8616 368.9659 864.8616 368.5188 864.7498 368.0717 864.6381 367.1776 864.0792 366.7305 863.9674 366.3952 863.8557 365.8363 864.0792 365.2774 864.4145 364.495 865.5322 363.9362 866.6499 362.8185 868.3265 362.3714 869.556 362.2596 870.5619 362.2596 871.4561 362.2596 871.9032 362.1479 872.3503 361.589 873.468 361.4772 873.9151 361.2537 874.8092 361.0301 875.2563 360.4713 875.8152 359.2418 876.374 357.9006 876.8211 357.0064 877.1564 356.6711 877.1564 356.3358 876.9329 356.1122 876.5976 355.7769 876.374 355.5534 876.1505 354.4356 875.5916 354.1003 875.3681 353.765 875.1446 353.5415 874.8092 353.4297 874.4739 353.2062 874.1386 352.9826 873.9151 352.6473 873.6915 352.2002 873.468 351.4178 873.2444 351.0825 873.0209 350.9707 872.5738 350.859 872.1267 350.7472 871.7914 350.5237 871.4561 350.1883 871.2326 349.853 871.009 349.4059 871.009 348.5118 871.1208 348.0647 871.009 347.6176 870.8972 347.3941 870.6737 346.7234 870.2266 346.4999 870.0031 346.0528 869.8913 345.6057 870.0031 344.9351 870.2266 344.5998 870.3384 344.2645 870.3384 344.0409 870.1149 343.5938 869.556 343.4821 869.4442 343.035 869.4442 342.4761 869.556 342.1408 869.556 342.029 869.556 341.9173 869.4442 339.5701 866.6499 339.0112 866.0911 338.6759 865.9793 338.2288 865.9793 337.7817 866.0911 336.8876 866.4264 336.4405 866.5382 335.9934 866.4264 334.6521 866.0911 334.3168 865.8675 333.6462 865.4205 333.3109 865.1969 332.9756 865.1969 332.5285 865.4205 332.0814 865.9793 331.8579 866.5382 331.6343 866.9853 330.7402 881.4037 329.5107 885.7628 329.3989 886.5452 329.3989 889.7866 329.5107 891.3514 327.4988 907.2229 327.1635 911.8055Z" />
  <path class="Cochabamba" d="M197.956 600.5228L207.4565 595.4931 208.3507 594.8224 208.9096 594.1518 208.686 593.0341 208.2389 592.3635 207.5683 591.6928 207.1212 590.7987 206.7859 590.0163 208.2389 587.1102 207.1212 582.9747 206.5624 582.3041 206.0035 581.2981 205.78 580.5157 205.6682 579.5098 205.8917 577.1626 204.8858 571.574 204.4387 570.3446 203.8799 569.3386 202.9857 567.9974 201.868 566.7679 201.0856 565.5384 197.6207 564.0854 196.503 563.0794 196.1677 561.6264 196.3912 560.0616 196.9501 558.4968 197.2854 557.8262 198.6266 556.1496 198.8502 555.2554 198.9619 554.5848 198.7384 553.02 198.8502 551.4552 199.409 550.114 200.7503 547.5432 202.2033 545.4196 203.9916 544.5254 208.4625 543.9666 210.1391 543.4077 212.1509 542.29 213.8275 540.9487 214.8334 539.3839 215.057 538.1545 214.9452 536.925 214.4981 533.3483 214.3864 532.3424 214.4981 526.5303 213.8275 524.2948 211.7039 520.3828 210.8097 518.371 210.6979 516.3591 211.7039 512.5589 212.0392 503.0583 211.5921 501.9406 210.0273 499.9287 209.4684 498.9228 209.1331 498.5875 206.7859 497.8051 206.6741 497.2462 206.8977 496.1285 206.6741 494.4519 205.8917 493.1107 203.7681 490.7635 202.6504 488.7516 201.3091 487.075 201.0856 486.5162 200.9738 485.7338 201.6444 480.1452 201.6444 478.1333 201.4209 476.345 201.3091 475.4508 201.5327 474.5567 202.0915 473.6625 202.7622 472.8801 203.0975 472.0977 203.321 470.8682 203.2092 470.4211 202.8739 470.0858 202.5386 469.8623 202.2033 469.6387 202.0915 469.4152 204.327 466.9562 207.0095 463.6031 213.1569 458.3498 233.8345 479.1393 234.6169 480.5923 235.7347 483.9454 236.5171 486.1809 236.9641 486.9633 241.2114 492.6636 253.2827 505.629 254.8475 506.8585 262.1127 511.7765 265.8011 513.453 271.5014 515.3531 279.2136 517.0297 282.9021 517.2532 285.2493 517.0297 310.9567 509.541 317.9982 506.1879 319.0042 504.8466 320.1219 502.723 324.1457 490.3164 324.1457 487.8574 324.3692 486.8515 326.6046 481.8218 330.1813 475.6744 332.4167 474.2213 360.4713 470.8682 367.7364 469.3034 368.7424 469.7505 369.6365 469.8623 369.1894 471.5388 368.2953 471.6506 366.2834 471.7624 367.96 473.2154 368.407 474.1096 368.2953 475.3391 367.2893 474.892 366.2834 474.5567 365.2774 474.6684 364.2715 475.3391 365.501 476.345 366.5069 477.5745 367.4011 479.0275 367.8482 480.5923 367.8482 481.5982 367.7364 482.0453 367.4011 482.4924 367.2893 482.9395 367.2893 485.622 367.6246 487.1868 369.0777 489.1987 369.413 490.3164 369.0777 491.5459 368.5188 492.7754 368.1835 494.2284 368.8541 495.905 368.2953 497.358 368.2953 498.811 368.5188 500.1523 368.2953 501.6053 366.7305 503.7289 366.5069 504.6231 368.2953 504.7349 366.954 506.9703 366.8422 507.6409 366.954 508.3116 367.6246 509.2057 367.8482 509.9881 367.7364 511.1058 365.3892 516.4708 365.2774 516.5826 365.2774 516.8062 364.8304 518.9298 364.1597 519.7122 362.4832 520.8299 361.8125 521.6123 361.1419 522.73 360.6948 523.9595 360.4713 525.189 360.8066 526.3067 361.3655 526.8656 362.0361 527.0891 362.5949 527.4244 362.8185 528.2068 362.5949 528.7657 359.9124 533.1248 359.5771 534.9131 358.6829 536.3661 358.5712 537.2603 358.9065 538.0427 360.0242 539.3839 360.4713 540.0546 360.6948 540.837 360.8066 542.29 362.3714 548.4374 363.4891 550.2257 370.4189 557.7144 372.2073 558.7204 373.7721 559.2792 374.5545 559.6145 375.2251 560.1734 379.9195 565.0913 381.0372 565.9855 385.2845 568.5562 387.2964 569.2268 387.967 569.5622 390.426 571.4623 396.6851 578.7274 400.0383 581.5217 400.4854 581.9688 400.8207 582.6394 401.4913 584.5395 402.1619 585.769 402.4972 587.222 402.0502 588.675 401.4913 590.1281 400.3736 590.2398 399.0323 590.3516 398.1382 590.1281 397.4675 590.1281 395.9028 590.5751 395.2321 590.5751 393.7791 590.4634 393.1085 590.4634 392.2143 590.7987 389.42 592.6988 388.8612 593.2576 388.6376 594.1518 388.5259 594.9342 388.6376 596.6108 388.5259 597.3932 388.1905 598.1756 376.5663 615.6119 375.0015 617.4002 368.9659 623.5476 367.2893 624.8889 366.2834 626.2301 365.7245 628.3538 366.0598 629.8068 366.5069 630.5892 369.8601 634.1659 370.866 635.6189 373.325 640.3133 374.6662 644.1135 375.7839 645.343 376.3428 645.9019 377.3487 646.4607 377.7958 647.0196 378.4664 647.9138 379.4724 649.8139 380.9254 651.8257 382.1549 653.8376 382.9373 656.9672 384.055 658.9791 384.9492 659.6497 385.3963 659.985 385.6198 660.5439 385.6198 661.3263 385.508 661.8851 385.2845 662.444 385.2845 662.8911 385.3963 663.2264 386.2904 664.0088 386.514 664.4559 386.4022 665.6854 386.4022 666.2442 386.6257 666.9149 387.1846 667.809 387.5199 668.3679 387.967 668.7032 388.1905 668.815 389.5318 669.262 390.3142 669.7091 391.4319 670.4915 392.6614 671.721 393.332 672.2799 395.0086 673.174 395.3439 673.3976 395.5674 673.6211 395.791 673.9564 395.9028 673.9564 395.9028 674.2917 396.0145 674.8506 395.9028 677.9802 395.9028 678.7626 396.0145 679.3215 396.4616 680.5509 396.4616 680.998 396.2381 681.6686 394.338 683.7923 392.9967 686.1395 392.3261 685.4689 391.879 684.91 391.2084 683.0099 390.873 682.451 389.3083 681.8922 387.6317 682.451 382.602 686.5866 381.7078 686.9219 380.4783 687.0337 376.7899 687.0337 375.7839 686.9219 375.1133 686.4748 373.8838 684.91 373.325 684.2394 371.8719 683.1217 371.2013 682.451 370.1954 680.1039 370.0836 679.7685 369.1894 679.545 368.5188 678.7626 367.6246 677.086 366.2834 676.1919 362.7067 676.1919 361.2537 675.633 360.8066 675.0741 359.9124 673.7329 359.3536 673.174 358.0123 672.8387 356.3358 672.9505 351.0825 674.5153 347.0587 676.4154 344.3762 678.3155 342.5879 679.8803 341.9173 680.7745 341.3584 681.8922 340.9113 684.1276 340.4642 685.1336 339.5701 686.0277 338.5641 686.0277 337.5582 685.6924 334.2051 683.457 332.8638 682.7864 331.5226 682.6746 328.7283 683.2334 327.387 683.0099 326.4928 681.8922 326.2693 680.3274 326.2693 678.2037 326.0458 676.3036 325.2634 675.5212 324.3692 675.1859 323.5868 674.5153 322.9162 673.6211 322.3573 672.8387 321.9102 670.268 321.1278 670.0444 320.3454 670.268 319.6748 670.268 319.3395 669.3738 319.3395 668.815 319.116 668.0326 318.8924 667.2502 318.6689 667.0266 317.8865 666.8031 315.3157 665.4618 314.7569 664.6794 314.3098 664.3441 313.8627 664.2323 312.745 664.0088 312.4097 663.7853 310.0625 661.4381 306.9329 655.8495 304.2504 653.7259 303.0209 653.0552 301.6796 652.1611 300.6737 651.0433 299.7795 648.8079 298.9971 647.3549 297.2088 645.2312 294.6381 643.6664 293.2968 642.5487 292.738 641.2075 288.1553 637.2955 283.6845 634.8365 282.455 632.8246 280.7784 632.7129 275.9723 633.9424 275.3017 633.8306 274.7428 631.9305 274.2957 631.1481 273.6251 630.5892 272.7309 630.4774 271.9485 629.695 270.8308 628.0185 269.9366 626.1184 269.4895 624.5536 268.0365 624.5536 267.2541 624.33 266.36 624.2183 263.901 623.9947 260.8832 624.1065 258.8713 624.5536 257.9771 624.8889 252.0532 629.1362 250.3767 630.3657 246.1294 633.9424 245.347 634.3894 244.6763 634.5012 243.8939 634.5012 240.0937 633.8306 235.7347 634.0541 232.8286 633.7188 232.2697 633.4953 231.4873 633.4953 229.9226 633.607 224.8928 634.5012 220.7573 624.6653 215.1688 615.9472 211.3685 611.141 210.0273 609.7998 197.956 600.5228Z" />
  <path class="El Beni" d="M213.1569 458.3498L210.1391 455.2202 195.3853 441.2488 193.8205 438.5663 193.1498 437.8957 192.7028 437.5604 191.138 436.8898 190.132 436.2191 189.3496 435.4367 188.7908 434.5426 188.5672 433.7602 188.4554 432.9778 188.4554 432.1954 189.0143 428.954 189.0143 428.0598 188.7908 427.0539 184.0964 417.5534 182.0845 414.5355 180.2961 412.5237 179.402 411.5177 178.7314 410.5118 177.3901 407.7175 176.6077 406.7116 175.7135 406.0409 174.8194 405.9292 173.9252 405.9292 172.2486 406.1527 171.2427 406.0409 170.4603 405.8174 169.7897 405.3703 168.6719 404.5879 167.666 403.9173 166.5483 402.576 165.6541 399.7817 165.4306 398.2169 165.3188 396.9875 165.5424 395.4227 165.8777 393.8579 166.213 390.9518 166.213 387.8222 165.7659 386.1457 165.207 385.0279 161.6304 381.6748 160.1773 379.6629 158.1655 374.9685 157.8301 374.4097 158.0537 373.8508 158.389 373.0684 158.9479 372.3978 160.1773 371.3919 160.6244 370.7212 161.295 369.2682 161.4068 367.7034 160.9597 366.2504 160.0656 364.9091 158.389 363.3443 158.0537 362.5619 158.0537 362.1149 158.0537 361.1089 157.9419 360.6618 157.7184 360.4383 157.2713 359.9912 157.0477 359.6559 156.0418 356.9734 155.5947 355.4086 155.4829 353.9556 155.7065 352.6143 156.6007 351.8319 158.9479 350.826 159.842 349.7083 160.1773 348.4788 160.0656 347.2493 159.3949 344.7903 159.6185 340.2077 158.8361 334.2838 158.8361 333.3897 157.8301 330.0365 157.8301 328.807 159.842 319.7536 160.4009 318.6359 161.0715 317.7417 161.7421 316.5122 161.9657 315.0592 160.9597 313.0473 160.9597 311.5943 161.8539 308.4647 162.5245 307.0117 163.5305 306.0057 164.6482 305.2233 165.5424 304.2174 166.9954 301.8702 170.125 297.8464 170.6838 296.6169 170.6838 295.1639 169.4543 293.152 168.2249 286.2222 168.1131 283.6515 169.3426 281.0807 172.4722 276.2746 173.5899 274.9333 176.1606 272.9215 182.0845 265.8799 182.4198 265.2092 182.7551 263.6444 183.0904 262.9738 183.6493 262.5267 184.9905 261.7443 185.5494 261.2972 188.4554 256.044 189.6849 254.8145 191.138 254.591 192.3674 254.7028 193.3734 254.3674 196.9501 245.7611 201.0856 228.3248 201.1974 226.4246 200.862 224.8598 199.7443 221.6185 201.6444 218.936 202.5386 217.3712 202.6504 216.1417 202.0915 215.024 201.868 214.018 201.7562 209.4354 201.9798 207.9824 202.5386 206.6411 203.6563 204.9646 204.2152 203.5116 203.9916 202.2821 203.4328 201.0526 203.2092 199.5996 203.7681 197.923 204.6623 196.2464 205.4447 194.5699 205.2211 192.7815 204.774 190.8814 204.8858 189.3166 206.0035 185.8517 206.3388 182.7221 205.8917 178.9219 204.8858 175.2334 203.321 172.4392 202.2033 171.2097 201.7562 170.7626 201.5327 170.8744 201.0856 171.0979 200.6385 171.3215 200.0796 171.0979 199.5208 169.8684 199.1855 167.9683 199.409 166.5153 200.6385 166.18 201.9798 166.2917 203.321 165.9564 204.5505 165.174 205.4447 164.1681 206.3388 162.4915 206.0035 161.3738 205.1094 160.5914 204.2152 159.3619 204.2152 157.9089 205.2211 157.3501 206.6741 157.2383 208.0154 157.4618 209.3567 157.3501 210.3626 156.4559 211.145 155.1146 212.2627 154.2205 213.4922 153.8851 215.9512 153.8851 217.1806 153.3263 218.1866 151.8733 218.2983 150.1967 217.8513 146.5083 218.2983 145.0552 219.9749 143.0433 220.3102 141.5903 220.0867 139.802 220.1985 137.9019 220.8691 136.4488 222.5457 135.7782 229.2519 135.3311 234.2816 135.89 236.1817 135.2194 240.2055 132.7604 245.2352 132.2015 247.5824 131.6427 247.9177 130.0779 248.1413 128.5131 252.165 127.6189 252.9474 126.1659 252.5003 125.16 251.7179 124.4893 251.1591 123.4834 251.3826 121.8068 252.0532 120.5773 254.7358 117.2242 255.2946 115.7712 255.2946 114.5417 254.624 111.8592 254.8475 110.0708 255.7417 109.7355 257.0829 110.1826 258.3124 110.2944 259.989 108.7296 260.4361 106.2706 260.4361 103.5881 261.2185 101.3527 261.8891 100.3468 263.0068 101.1292 264.2363 100.4585 265.1305 99.0055 266.0246 95.9877 266.9188 94.3111 267.4777 92.7463 266.9188 91.6286 266.1364 91.4051 264.6834 92.0757 263.901 92.0757 263.3421 91.7404 262.895 91.2933 262.895 90.7344 265.2422 90.0638 268.3718 87.6048 270.0484 86.9342 272.8427 87.3813 275.9723 88.499 278.543 88.6108 279.549 86.4871 279.2136 85.1459 278.3195 83.8046 277.2018 82.6869 275.7487 82.3516 275.0781 81.681 275.637 80.3397 276.6429 78.8867 277.5371 78.3278 278.3195 78.7749 279.3254 79.7809 280.2196 80.8986 280.5549 81.5692 281.4491 82.0163 283.4609 81.5692 286.5905 80.3397 288.3789 78.9985 289.0495 77.769 289.1613 76.316 289.0495 74.4158 288.7142 72.7393 288.2671 71.2862 288.3789 70.0568 290.1672 69.4979 291.732 69.8332 293.2968 70.3921 294.8616 70.6156 296.4264 69.8332 297.8794 68.3802 299.3325 67.3743 305.7034 64.2447 306.2623 63.574 306.8211 62.121 307.9388 60.4444 309.2801 59.1032 310.286 58.209 311.5155 57.8737 315.3157 57.2031 315.4275 57.2031 315.5393 57.7619 315.651 57.9855 315.9864 58.3208 314.198 61.4504 313.1921 62.4563 311.4037 62.9034 311.4037 63.3505 312.1861 64.6917 312.4097 65.2506 312.2979 65.5859 311.9626 66.2565 311.8508 66.7036 311.9626 67.3743 312.1861 68.1567 312.4097 68.8273 312.6332 69.0508 312.8568 69.8332 312.4097 73.5217 312.4097 74.6394 313.6392 76.0924 314.9804 76.8748 315.9864 77.9925 316.4334 80.1162 316.3217 81.4574 315.7628 84.2517 314.6451 87.7166 315.0922 88.6108 317.9982 89.3932 319.2277 90.2873 320.3454 91.5168 321.0161 92.6345 321.4631 99.0055 321.6867 99.4526 322.022 99.8997 322.4691 100.4585 322.4691 101.3527 322.1338 102.0233 321.6867 102.4704 321.1278 102.9175 320.4572 103.3646 319.3395 105.1529 319.2277 106.4942 319.6748 107.8354 319.8983 109.4002 319.3395 110.7415 316.5452 112.9769 315.4275 114.2064 315.204 116.1065 316.0981 117.2242 317.3276 118.1184 317.9982 119.1243 317.5512 120.242 316.5452 120.9127 315.8746 121.695 315.9864 123.4834 316.8805 124.9364 318.4453 126.0541 319.7866 126.8365 320.4572 127.2836 320.1219 128.2895 318.8924 129.7426 318.4453 130.6367 318.3336 131.4191 318.4453 131.978 320.9043 138.4607 322.9162 140.5844 325.4869 139.9138 327.2752 140.9197 328.0576 141.5903 328.6165 142.4845 328.6165 143.2669 328.0576 144.6081 328.0576 145.6141 328.2812 146.62 328.7283 146.8436 329.1754 146.8436 330.0695 147.1789 331.6343 148.2966 332.1932 148.9672 330.4048 149.5261 330.1813 150.1967 330.5166 151.985 330.4048 152.7674 329.7342 153.8851 329.6224 154.6675 329.6224 157.3501 330.0695 158.356 331.0755 159.4737 332.4167 160.4796 333.3109 160.815 333.8697 160.0326 334.3168 156.4559 334.6521 155.4499 335.0992 154.8911 336.1052 154.5558 336.3287 155.2264 336.1052 157.0147 337.1111 158.0207 338.4524 158.5795 339.6818 159.2502 340.3525 161.7091 341.2466 163.3857 341.582 164.1681 341.6937 164.9505 341.582 166.4035 341.582 167.1859 342.029 168.7507 342.3644 169.4213 343.1468 169.8684 343.3703 169.8684 344.1527 170.2037 344.5998 170.9861 344.7116 171.8803 344.3762 172.6627 343.3703 174.1157 343.2585 175.457 343.8174 176.6865 344.5998 177.5806 345.7175 178.1395 346.8352 178.4748 349.9648 178.5866 351.5296 178.9219 353.0944 179.4807 354.6592 179.7043 356.224 179.0337 357.1182 179.4807 358.4594 179.8161 359.6889 180.2631 360.2477 181.3809 360.5831 182.9457 361.4772 184.2869 363.8244 186.8576 363.2656 187.8636 363.6009 188.7578 364.495 189.0931 365.3892 188.8695 365.501 188.1989 365.8363 186.2988 366.0598 185.8517 367.2893 185.6282 367.5129 186.0752 367.8482 187.3047 367.8482 187.9754 367.4011 188.8695 367.4011 189.4284 367.6246 189.7637 368.1835 190.4343 368.407 190.6579 369.0777 191.4403 370.866 192.558 374.4427 194.1228 375.3369 194.2345 377.237 194.2345 377.684 194.3463 378.9135 195.3523 380.3666 196.1347 380.4783 195.9111 380.4783 195.6876 380.5901 195.5758 381.7078 195.6876 382.0431 195.7993 383.2726 196.9171 383.4961 197.4759 383.6079 198.3701 383.4961 200.0466 383.1608 201.6114 381.8196 204.6293 382.0431 205.9705 382.4902 206.3058 384.055 206.8647 384.7256 207.2 385.3963 207.9824 386.2904 209.5472 386.8493 210.3296 387.7435 211.3355 388.9729 212.2297 390.3142 212.9003 392.1025 213.1239 395.0086 212.565 396.1263 212.9003 396.9087 215.2475 397.5793 215.4711 398.2499 215.2475 398.697 215.1358 399.1441 214.8004 399.9265 213.9063 400.7089 213.6827 402.2737 213.4592 403.5032 213.9063 404.6209 214.5769 406.6328 216.8123 407.4152 217.0359 408.1976 216.2535 409.2035 214.6887 410.3212 216.0299 414.7921 216.1417 416.3569 218.3771 417.8099 218.1536 420.0453 217.2594 421.0513 217.5947 421.7219 218.2653 422.5043 218.8242 423.8455 218.8242 424.7397 218.0418 425.1868 217.3712 425.6339 216.7006 428.0928 213.571 428.2046 213.1239 429.4341 213.0121 431.6695 212.2297 432.6755 212.1179 443.2937 213.6827 443.5173 213.7945 447.4293 215.9182 450.5589 218.4889 451.7883 219.0477 453.3531 219.3831 454.3591 219.3831 455.1415 219.4948 455.9239 219.8301 456.5945 220.389 457.1534 221.1714 457.2651 221.9538 457.3769 222.6244 457.6004 223.4068 458.2711 223.9657 458.8299 224.1892 459.3888 224.4128 459.6123 225.3069 459.9476 225.754 462.7419 227.8777 464.3067 228.3248 465.2009 228.6601 467.3245 230.3366 468.2187 230.6719 473.4719 230.6719 474.2543 230.4484 474.5897 229.8895 475.2603 229.2189 476.8251 228.1012 477.1604 228.1012 478.0546 228.213 478.3899 228.1012 478.7252 227.7659 479.0605 226.9835 479.3958 226.6482 481.4077 225.754 481.6312 225.5305 482.4136 225.754 483.8667 226.4246 486.1021 226.9835 486.8845 227.9894 487.4433 230.6719 487.6669 231.2308 488.2257 231.5661 488.4493 232.0132 487.8904 232.9074 487.7787 233.3545 487.8904 233.8015 488.114 234.1369 489.7905 235.4781 490.5729 236.484 490.9083 237.1547 491.1318 238.8312 491.6906 240.2843 492.5848 241.402 493.479 242.0726 494.2614 242.4079 494.932 242.4079 495.6026 242.2961 496.2733 241.8491 496.9439 241.6255 497.2792 242.0726 497.5028 242.855 501.4147 247.8847 501.6383 248.3318 501.9736 248.6671 502.756 248.8906 503.5384 248.8906 504.0972 249.0024 504.4326 249.4495 504.5443 250.1201 504.8796 251.3496 505.8856 252.3556 507.1151 253.2497 508.5681 254.0321 508.6799 252.4673 509.4623 252.132 510.6917 252.132 512.1448 251.9085 513.0389 251.3496 513.8213 250.679 514.7155 250.5672 516.1685 251.4614 516.8392 252.0202 517.2862 252.6909 517.6216 253.3615 517.7333 255.1498 518.0686 255.4851 524.4396 258.2794 529.0222 258.1677 530.4752 258.3912 531.4812 259.0618 533.4931 261.5208 533.7166 261.8561 533.8284 262.6385 534.0519 262.7503 535.0579 262.7503 535.2814 262.7503 536.6227 263.5327 537.1815 263.7562 540.6464 264.2033 541.5406 264.0915 542.4348 263.3091 543.8878 263.9798 545.1173 263.6444 546.235 263.0856 548.9175 262.415 549.6999 262.3032 550.4823 262.5267 552.4942 263.868 552.6059 262.0796 553.2766 262.3032 554.9531 264.3151 555.7355 264.6504 556.4062 264.4268 556.8532 264.5386 556.965 265.6563 556.965 270.686 557.1886 272.0273 557.971 273.0332 559.5358 274.2627 562.7771 277.8394 563.7831 278.3982 563.8948 278.6218 565.0125 280.4101 565.4596 280.7454 567.0244 281.5278 568.3657 282.3102 571.9424 285.8869 572.613 286.4458 574.066 287.1164 574.6249 287.6752 574.9602 288.2341 576.4132 293.3756 577.3074 294.0462 578.9839 294.3815 580.437 294.0462 581.89 293.5991 583.343 293.2638 584.796 293.9344 586.1373 293.0403 587.8139 292.3696 589.714 291.9226 594.9672 291.4755 595.1908 291.5872 555.8473 314.3886 490.6847 352.0554 449.6647 375.8627 424.2926 383.3514 420.8277 384.9162 422.5043 392.1813 422.5043 401.0112 422.9514 404.9232 422.8396 407.0469 422.6161 408.4999 422.169 409.6176 421.7219 411.4059 422.6161 415.0944 423.0631 416.3239 425.4103 420.0123 428.0928 427.6128 435.9168 439.684 436.5875 440.4664 437.2581 440.9135 439.1582 441.5842 440.0524 442.2548 441.0583 443.4843 441.3936 444.4902 441.8407 448.1787 442.2878 449.1846 445.7527 452.7613 446.6469 453.3201 447.4293 453.5437 448.3234 453.5437 448.9941 453.9908 451.2295 455.8909 452.0119 456.338 454.4708 457.4557 454.9179 457.791 455.5886 458.4616 456.371 459.4675 457.2651 461.2559 458.8299 463.2678 459.1652 464.0502 459.3888 464.8326 459.3888 466.6209 459.6123 467.8504 460.0594 469.3034 460.73 470.3094 462.6301 472.433 463.3008 472.9919 464.1949 473.3272 466.7657 473.9978 467.5481 474.3331 468.3305 474.6684 468.1069 474.892 466.5421 475.0037 369.6365 469.8623 368.7424 469.7505 367.7364 469.3034 360.4713 470.8682 332.4167 474.2213 330.1813 475.6744 326.6046 481.8218 324.3692 486.8515 324.1457 487.8574 324.1457 490.3164 320.1219 502.723 319.0042 504.8466 317.9982 506.1879 310.9567 509.541 285.2493 517.0297 282.9021 517.2532 279.2136 517.0297 271.5014 515.3531 265.8011 513.453 262.1127 511.7765 254.8475 506.8585 253.2827 505.629 241.2114 492.6636 236.9641 486.9633 236.5171 486.1809 235.7347 483.9454 234.6169 480.5923 233.8345 479.1393 213.1569 458.3498Z" />
  <path class="La Paz" d="M44.0471 638.3014L43.2647 637.0719 42.3705 637.0719 41.2528 637.519 39.688 637.6308 38.4585 637.1837 37.229 636.7366 34.9936 635.2836 33.3171 634.8365 32.7582 634.7248 32.3111 634.1659 30.7463 632.4893 29.6286 632.7129 28.7344 633.3835 27.8403 633.3835 26.7226 631.4834 26.0519 628.6891 25.9402 622.9888 25.4931 620.1945 23.593 616.6178 21.0222 613.7118 15.0983 608.3468 13.5336 605.9996 12.8629 603.2053 12.5276 597.0579 12.6394 591.4693 12.4158 588.7868 11.6334 586.5514 10.5157 585.0983 9.0627 583.6453 6.1567 581.1864 4.9272 580.7393 1.127 580.2922 1.0152 580.2922 2.2447 578.2803 3.4741 574.033 4.2565 572.3564 4.5919 572.2447 5.8213 572.0211 6.2684 571.9094 10.2922 568.2209 12.5276 566.6561 14.5395 565.8737 16.6631 565.5384 18.5633 564.756 20.2398 562.8559 20.5751 561.7382 20.2398 561.1793 19.681 560.9558 19.4574 560.5087 19.681 559.7263 20.1281 559.2792 23.2576 557.3791 24.1518 556.3732 26.0519 552.1259 33.5406 544.0783 34.5465 542.4018 35.9996 538.2662 36.6702 537.1485 37.7879 536.4779 40.4704 536.2543 41.8117 535.919 46.059 533.6836 47.2884 532.6777 48.5179 531.1129 49.4121 529.8834 47.512 527.2009 47.0649 525.8596 47.2884 523.5124 47.1767 519.0416 47.4002 517.4768 48.0708 516.1355 49.971 513.6766 52.4299 512.4471 60.701 509.0939 62.3776 506.5232 61.5952 504.3996 59.9186 503.2818 56.0066 501.7171 53.1006 498.3639 51.424 497.358 49.3003 498.1404 46.9531 497.358 46.1707 497.2462 45.2766 497.5815 43.9353 498.6992 43.0411 499.0345 41.141 499.0345 39.4645 498.3639 37.7879 497.4697 36.4466 496.2403 33.8759 492.9989 32.1993 488.8634 29.1815 480.9276 26.0519 472.9919 22.9223 465.1679 19.681 457.2321 18.7868 454.9967 18.4515 452.7613 19.1221 450.4141 23.8165 443.149 24.2636 441.6959 24.3754 440.1311 24.8224 438.6781 25.7166 437.2251 26.499 436.8898 28.5109 436.2191 29.0697 435.8838 29.0697 435.2132 28.1756 432.866 28.6227 431.6365 29.8521 430.0717 31.1934 428.8422 33.6524 427.9481 34.6583 425.042 36.1113 424.9303 37.8997 425.042 39.0174 424.1479 39.1292 422.6948 37.4526 421.0183 35.6642 418.3358 34.4348 417.218 30.0757 413.9767 28.8462 412.7472 24.5989 406.1527 23.3694 405.035 21.8046 403.582 21.3575 402.2407 21.6928 400.7877 22.8106 397.8816 23.0341 397.3228 22.6988 391.0636 22.8106 389.8341 23.4812 388.8282 25.1578 387.8222 29.1815 386.5927 30.411 385.9221 31.4169 383.6867 31.864 373.9626 32.7582 372.5096 34.2112 372.3978 35.8878 372.7331 37.5644 372.7331 38.0114 371.9507 37.7879 368.374 38.0114 367.1446 38.4585 366.8092 39.688 366.4739 40.2469 366.1386 43.1529 362.7855 44.4942 361.7795 49.3003 359.097 50.7534 357.644 50.418 356.191 49.4121 354.6262 48.8532 353.2849 48.8532 350.3789 48.965 348.9259 49.3003 347.5846 51.2004 346.2433 53.6594 345.5727 58.5773 344.9021 60.0304 343.4491 59.695 340.7666 57.9067 335.6251 57.4596 333.0543 57.0125 331.9366 56.2301 330.8189 52.3182 328.1364 51.3122 326.7952 50.8651 324.3362 50.8651 321.6537 50.6416 319.0829 49.3003 317.0711 48.4062 314.165 48.2944 313.1591 48.5179 311.9296 48.8532 311.0354 48.8532 310.1413 48.0708 309.0235 44.1589 305.7822 42.5941 303.6585 43.6 301.8702 44.6059 301.8702 46.8414 302.2055 47.6238 302.0937 48.2944 301.1996 48.2944 300.3054 48.1826 299.4112 48.4062 298.4053 48.965 297.5111 50.5298 295.8345 51.0887 294.8286 51.7593 293.0403 52.2064 291.1402 51.9828 289.4636 52.7652 274.598 51.7593 268.6741 51.5358 265.6563 52.0946 256.7146 51.9828 255.5969 51.0887 248.22 51.0887 244.9787 51.424 243.1903 53.7712 241.402 54.5536 239.6136 55.4477 238.1606 57.1243 238.3842 58.0185 236.2605 59.1362 234.6957 60.701 233.6898 66.7366 232.0132 67.2955 231.3426 68.9721 227.9894 68.3014 227.0953 65.8425 226.5364 65.1718 225.754 65.2836 224.5245 65.9542 223.4068 66.9602 222.6244 69.1956 221.3949 70.2015 220.5008 71.0957 219.3831 71.6546 218.1536 72.1017 216.7006 72.5487 216.0299 73.3311 215.6946 72.884 215.024 73.7782 215.1358 76.1254 215.2475 76.9078 215.1358 77.3549 214.8004 78.2491 213.7945 78.5844 213.571 80.0374 209.5472 80.8198 208.4295 82.6081 208.0942 83.8376 208.7648 84.9553 209.5472 86.1848 209.9943 87.6378 209.7707 88.532 209.2119 89.985 206.9765 93.3382 198.3701 94.903 196.0229 103.6211 191.4403 105.5212 189.4284 106.0801 186.8576 106.6389 181.3809 107.8684 179.369 110.1039 178.2513 115.5806 177.4689 117.5925 176.4629 119.1573 176.5747 120.9457 176.2394 122.734 175.5688 123.9635 174.6746 125.0812 172.998 125.64 171.0979 125.64 170.6508 126.9813 170.9861 202.5386 206.6411 201.9798 207.9824 201.7562 209.4354 201.868 214.018 202.0915 215.024 202.6504 216.1417 202.5386 217.3712 201.6444 218.936 199.7443 221.6185 200.862 224.8598 201.1974 226.4246 201.0856 228.3248 196.9501 245.7611 193.3734 254.3674 192.3674 254.7028 191.138 254.591 189.6849 254.8145 188.4554 256.044 185.5494 261.2972 184.9905 261.7443 183.6493 262.5267 183.0904 262.9738 182.7551 263.6444 182.4198 265.2092 182.0845 265.8799 176.1606 272.9215 173.5899 274.9333 172.4722 276.2746 169.3426 281.0807 168.1131 283.6515 168.2249 286.2222 169.4543 293.152 170.6838 295.1639 170.6838 296.6169 170.125 297.8464 166.9954 301.8702 165.5424 304.2174 164.6482 305.2233 163.5305 306.0057 162.5245 307.0117 161.8539 308.4647 160.9597 311.5943 160.9597 313.0473 161.9657 315.0592 161.7421 316.5122 161.0715 317.7417 160.4009 318.6359 159.842 319.7536 157.8301 328.807 157.8301 330.0365 158.8361 333.3897 158.8361 334.2838 159.6185 340.2077 159.3949 344.7903 160.0656 347.2493 160.1773 348.4788 159.842 349.7083 158.9479 350.826 156.6007 351.8319 155.7065 352.6143 155.4829 353.9556 155.5947 355.4086 156.0418 356.9734 157.0477 359.6559 157.2713 359.9912 157.7184 360.4383 157.9419 360.6618 158.0537 361.1089 158.0537 362.1149 158.0537 362.5619 158.389 363.3443 160.0656 364.9091 160.9597 366.2504 161.4068 367.7034 161.295 369.2682 160.6244 370.7212 160.1773 371.3919 158.9479 372.3978 158.389 373.0684 158.0537 373.8508 157.8301 374.4097 158.1655 374.9685 160.1773 379.6629 161.6304 381.6748 165.207 385.0279 165.7659 386.1457 166.213 387.8222 166.213 390.9518 165.8777 393.8579 165.5424 395.4227 165.3188 396.9875 165.4306 398.2169 165.6541 399.7817 166.5483 402.576 167.666 403.9173 168.6719 404.5879 169.7897 405.3703 170.4603 405.8174 171.2427 406.0409 172.2486 406.1527 173.9252 405.9292 174.8194 405.9292 175.7135 406.0409 176.6077 406.7116 177.3901 407.7175 178.7314 410.5118 179.402 411.5177 180.2961 412.5237 182.0845 414.5355 184.0964 417.5534 188.7908 427.0539 189.0143 428.0598 189.0143 428.954 188.4554 432.1954 188.4554 432.9778 188.5672 433.7602 188.7908 434.5426 189.3496 435.4367 190.132 436.2191 191.138 436.8898 192.7028 437.5604 193.1498 437.8957 193.8205 438.5663 195.3853 441.2488 210.1391 455.2202 213.1569 458.3498 207.0095 463.6031 204.327 466.9562 202.0915 469.4152 202.2033 469.6387 202.5386 469.8623 202.8739 470.0858 203.2092 470.4211 203.321 470.8682 203.0975 472.0977 202.7622 472.8801 202.0915 473.6625 201.5327 474.5567 201.3091 475.4508 201.4209 476.345 201.6444 478.1333 201.6444 480.1452 200.9738 485.7338 201.0856 486.5162 201.3091 487.075 202.6504 488.7516 203.7681 490.7635 205.8917 493.1107 206.6741 494.4519 206.8977 496.1285 206.6741 497.2462 206.7859 497.8051 209.1331 498.5875 209.4684 498.9228 210.0273 499.9287 211.5921 501.9406 212.0392 503.0583 211.7039 512.5589 210.6979 516.3591 210.8097 518.371 211.7039 520.3828 213.8275 524.2948 214.4981 526.5303 214.3864 532.3424 214.4981 533.3483 214.9452 536.925 215.057 538.1545 214.8334 539.3839 213.8275 540.9487 212.1509 542.29 210.1391 543.4077 208.4625 543.9666 203.9916 544.5254 202.2033 545.4196 200.7503 547.5432 199.409 550.114 198.8502 551.4552 198.7384 553.02 198.9619 554.5848 198.8502 555.2554 198.6266 556.1496 197.2854 557.8262 196.9501 558.4968 196.3912 560.0616 196.1677 561.6264 196.503 563.0794 197.6207 564.0854 201.0856 565.5384 201.868 566.7679 202.9857 567.9974 203.8799 569.3386 204.4387 570.3446 204.8858 571.574 205.8917 577.1626 205.6682 579.5098 205.78 580.5157 206.0035 581.2981 206.5624 582.3041 207.1212 582.9747 208.2389 587.1102 206.7859 590.0163 207.1212 590.7987 207.5683 591.6928 208.2389 592.3635 208.686 593.0341 208.9096 594.1518 208.3507 594.8224 207.4565 595.4931 197.956 600.5228 196.2794 598.958 196.0559 598.6227 194.2675 596.6108 193.0381 594.7107 192.1439 592.6988 191.585 591.8046 191.138 591.134 190.4673 590.4634 189.4614 589.5692 189.0143 589.3457 188.4554 589.1221 187.5613 589.0103 186.7789 588.8986 186.22 589.0103 176.6077 591.6928 175.0429 592.3635 166.3248 597.505 157.3831 603.9877 155.5947 605.3289 143.4117 613.0411 141.9586 614.0471 141.7351 614.4942 141.6233 615.053 141.7351 616.1707 141.9586 616.7296 142.1822 617.2884 142.8528 618.4062 143.2999 619.5239 143.4117 619.8592 143.4117 620.418 143.2999 620.8651 143.0763 621.6475 142.9646 622.2064 142.5175 622.9888 141.9586 623.5476 140.3938 624.5536 139.4997 624.7771 138.4937 624.6653 138.1584 624.5536 137.7113 624.4418 123.2928 613.4882 121.6163 612.7058 119.1573 611.8117 113.3452 608.9056 111.1098 608.1232 99.5974 607.6761 90.7674 608.3468 88.4202 609.0174 83.7259 611.141 83.0552 611.5881 78.9197 615.1648 72.437 623.4359 69.8662 625.7831 63.607 630.5892 59.8068 632.7129 50.0827 635.2836 44.7177 638.0779 44.0471 638.3014Z" />
  <path class="Oruro" d="M44.0471 638.3014L44.7177 638.0779 50.0827 635.2836 59.8068 632.7129 63.607 630.5892 69.8662 625.7831 72.437 623.4359 78.9197 615.1648 83.0552 611.5881 83.7259 611.141 88.4202 609.0174 90.7674 608.3468 99.5974 607.6761 111.1098 608.1232 113.3452 608.9056 119.1573 611.8117 121.6163 612.7058 123.2928 613.4882 137.7113 624.4418 138.1584 624.5536 138.4937 624.6653 139.4997 624.7771 140.3938 624.5536 141.9586 623.5476 142.5175 622.9888 142.9646 622.2064 143.0763 621.6475 143.2999 620.8651 143.4117 620.418 143.4117 619.8592 143.2999 619.5239 142.8528 618.4062 142.1822 617.2884 141.9586 616.7296 141.7351 616.1707 141.6233 615.053 141.7351 614.4942 141.9586 614.0471 143.4117 613.0411 155.5947 605.3289 157.3831 603.9877 166.3248 597.505 175.0429 592.3635 176.6077 591.6928 186.22 589.0103 186.7789 588.8986 187.5613 589.0103 188.4554 589.1221 189.0143 589.3457 189.4614 589.5692 190.4673 590.4634 191.138 591.134 191.585 591.8046 192.1439 592.6988 193.0381 594.7107 194.2675 596.6108 196.0559 598.6227 196.2794 598.958 197.956 600.5228 210.0273 609.7998 211.3685 611.141 215.1688 615.9472 220.7573 624.6653 224.8928 634.5012 224.2222 636.066 223.5516 636.7366 222.7692 637.2955 221.875 637.7426 216.8453 639.4191 216.2865 640.6486 215.8394 647.802 215.9512 649.5903 216.2865 650.4845 216.7336 651.3787 217.2924 651.9375 217.963 652.4964 220.5338 653.6141 221.4279 653.8376 222.3221 653.8376 224.2222 653.3905 226.1223 653.3905 226.9047 653.6141 228.4695 654.1729 229.1402 654.2847 230.8167 654.2847 232.4933 654.8436 230.8167 656.7437 228.6931 658.0849 225.3399 659.7615 223.4398 660.991 221.875 661.7734 221.0926 662.444 220.8691 663.0029 220.7573 663.4499 220.9809 666.0207 220.8691 667.2502 220.7573 668.2561 220.0867 671.6092 219.9749 672.5034 220.0867 673.5094 220.0867 673.8447 220.1985 673.9564 221.0926 675.4095 223.6634 680.998 224.2222 682.004 224.6693 682.451 225.5635 683.1217 231.7109 688.0396 233.8345 689.3809 240.429 691.7281 245.0117 692.1751 248.8119 693.7399 249.9296 694.6341 250.8238 695.5283 251.1591 696.3107 254.5122 706.7054 254.624 707.1525 257.4183 712.5175 261.1067 717.4354 266.5835 723.8064 267.9248 726.2653 267.813 727.0477 267.4777 727.7184 266.6953 728.2772 265.9129 728.7243 263.6774 729.1714 254.7358 729.842 239.1996 730.9597 237.4112 731.6304 234.3934 733.4187 225.5635 741.4662 220.1985 745.6018 217.2924 747.2783 201.9798 754.2081 179.5138 763.9322 156.6007 773.8799 146.653 777.3448 142.8528 777.233 136.0348 775.8917 102.3916 764.6029 81.4904 757.0024 81.2669 756.8906 84.5083 751.8609 86.073 749.6255 87.1908 748.6196 90.0968 747.2783 90.7674 746.7195 90.2086 745.2664 88.8673 743.7017 87.4143 742.2486 79.4785 736.4365 76.9078 735.4306 74.8959 734.2011 72.2134 729.6185 70.5369 727.8301 63.607 721.6827 61.2598 720.0062 57.7949 718.7767 56.789 718.1061 56.0066 716.9883 54.2183 712.9646 52.877 710.5056 51.9828 709.3879 50.8651 708.7173 52.9888 705.6994 53.6594 704.2464 53.6594 702.5699 53.4359 701.6757 49.3003 693.0693 49.3003 692.9575 49.3003 692.8458 49.8592 691.8398 49.971 690.7221 49.8592 689.7162 49.3003 688.7102 47.6238 685.5806 46.9531 681.7804 46.9531 677.7567 47.512 674.0682 47.512 672.2799 46.9531 670.7151 44.3824 666.1325 44.0471 664.903 44.2706 660.6557 44.1589 659.985 43.0411 656.6319 42.9294 655.9613 42.9294 655.1789 42.7058 653.3905 41.9234 652.1611 39.688 649.7021 38.6821 646.1254 40.8057 643.7782 43.4882 641.6546 44.0471 638.3014Z" />
  <path class="Pando" d="M202.5386 206.6411L126.9813 170.9861 125.64 170.6508 125.64 171.0979 125.0812 172.998 123.9635 174.6746 122.734 175.5688 120.9457 176.2394 119.1573 176.5747 117.5925 176.4629 115.5806 177.4689 110.1039 178.2513 107.8684 179.369 106.6389 181.3809 106.0801 186.8576 105.5212 189.4284 103.6211 191.4403 94.903 196.0229 93.3382 198.3701 89.985 206.9765 88.532 209.2119 87.6378 209.7707 86.1848 209.9943 84.9553 209.5472 83.8376 208.7648 82.6081 208.0942 80.8198 208.4295 80.0374 209.5472 78.5844 213.571 78.2491 213.7945 77.3549 214.8004 76.9078 215.1358 76.1254 215.2475 73.7782 215.1358 72.884 215.024 71.0957 211.7826 63.3835 198.1465 55.7831 184.5105 48.0708 170.8744 40.3586 157.2383 32.7582 143.6022 25.046 129.9661 17.3338 116.4418 9.6216 102.8057 9.398 102.3586 9.1745 101.9116 8.8392 101.4645 8.6156 101.0174 8.3921 100.5703 8.0568 100.0114 7.8332 99.5644 7.6097 99.1173 13.0865 99.3408 15.9925 99.1173 20.9105 97.8878 23.3694 98.2231 25.8284 98.8937 28.5109 99.3408 32.6464 99.229 38.4585 99.8997 41.141 100.4585 43.7118 100.235 44.8295 100.4585 50.3063 102.8057 50.6416 102.9175 51.3122 102.9175 51.6475 102.8057 53.3241 102.8057 56.789 103.6999 58.5773 103.9234 60.4774 103.4763 62.4893 102.6939 64.5012 102.3586 66.6249 103.0293 67.9661 103.5881 66.7366 105.3765 65.8425 107.1648 65.3954 109.0649 65.7307 112.1945 65.9542 112.8651 66.5131 113.3122 67.8543 113.3122 78.3608 111.1886 80.3727 110.0708 84.1729 107.3883 87.4143 106.2706 88.6438 106.0471 89.8733 106.0471 91.1028 106.2706 92.1087 106.0471 94.4559 103.8117 95.7971 103.141 99.262 102.8057 100.6033 102.2469 102.0563 101.1292 103.5094 99.6761 104.7388 98.1113 105.7448 96.5465 107.6449 92.0757 108.6508 90.6227 112.7864 86.1518 115.4689 81.3457 116.4748 80.1162 118.1514 78.8867 120.4986 77.769 121.7281 77.3219 122.9575 77.2101 124.9694 77.5454 133.7993 77.0983 134.9171 77.3219 135.923 77.6572 137.376 78.4396 140.2821 80.675 141.6233 81.3457 144.1941 80.675 145.4235 78.4396 146.0942 75.7571 146.8766 73.5217 147.659 72.7393 149.8944 70.8392 150.7886 69.7215 152.2416 67.3743 153.1358 66.3683 154.2535 65.3624 155.7065 64.9153 158.2772 63.6858 161.295 62.6799 162.8598 61.6739 164.0893 60.4444 165.0953 59.1032 165.4306 58.209 165.4306 57.6502 165.6541 57.0913 166.4365 56.4207 167.1072 56.1971 170.4603 56.0854 171.2427 55.9736 172.0251 55.7501 172.5839 55.303 172.6957 54.5206 172.2486 52.9558 172.3604 52.2851 173.4781 51.7263 175.1547 51.391 178.1725 51.2792 179.5138 51.5028 182.4198 52.2851 183.6493 52.2851 184.5435 51.7263 185.1023 50.9439 185.5494 50.0497 186.1083 49.4909 186.8906 49.2673 188.3437 49.1556 189.1261 49.0438 192.591 47.0319 204.4387 34.8488 214.1628 27.3602 215.5041 26.5778 221.5397 24.2306 222.3221 23.7835 222.6574 23.2246 222.881 22.3305 223.1045 21.5481 223.5516 20.9892 224.334 20.7657 233.0521 19.2009 237.523 19.5362 238.976 19.3127 240.429 18.8656 243.5586 17.0772 244.6763 16.6301 251.9415 15.5124 253.2827 15.0653 255.5182 13.5006 256.8594 12.9417 260.8832 12.6064 261.2185 12.7182 261.442 13.0535 261.7773 13.277 262.2244 13.3888 262.5597 13.0535 263.0068 12.1593 263.3421 11.9358 264.4598 11.7122 264.9069 11.824 265.8011 12.1593 267.7012 13.277 268.7072 13.5006 270.0484 13.277 273.4015 11.1534 274.7428 10.818 276.084 10.7063 277.09 10.818 280.1078 11.4887 281.002 11.6004 281.8961 11.0416 283.1256 9.8121 283.2374 10.371 283.5727 10.9298 283.908 11.6004 284.3551 11.824 285.1375 11.7122 285.3611 11.0416 285.2493 10.2592 285.3611 9.7003 286.0317 8.2473 286.4788 7.912 286.9259 8.9179 287.0376 9.5886 287.2612 10.1474 287.5965 10.5945 288.2671 10.818 291.0614 9.7003 292.1791 9.5886 291.9556 11.3769 291.6202 12.2711 291.9556 12.4946 292.6262 12.3828 293.185 12.4946 293.4086 12.4946 294.191 12.1593 294.5263 12.1593 294.9734 12.3828 295.644 13.1652 295.9793 13.5006 298.2147 14.9536 299.2207 15.5124 300.5619 15.736 301.4561 15.736 301.7914 15.4007 302.015 14.8418 302.3503 14.2829 302.462 14.0594 302.5738 13.3888 302.6856 13.0535 303.0209 12.8299 303.9151 12.7182 304.2504 12.6064 305.0328 11.6004 305.8152 10.4827 306.0387 9.8121 306.374 8.6944 306.8211 8.0238 310.1743 5.2295 311.1802 4.1118 311.8508 4 313.8627 4 315.204 4.4471 317.2158 6.2354 318.2218 8.5826 318.4453 8.8062 319.4513 12.1593 320.1219 12.9417 321.1278 13.8359 322.022 14.8418 322.4691 15.9595 322.1338 17.7479 320.569 20.7657 319.8983 22.4422 319.6748 25.4601 320.0101 28.4779 320.569 31.3839 322.022 35.1842 322.2455 36.8607 322.4691 40.1021 322.5809 40.7727 323.3633 42.5611 323.475 43.3435 323.2515 44.0141 322.022 46.026 321.2396 49.6026 320.3454 51.391 317.5512 52.7322 316.5452 54.1853 315.7628 55.8618 315.4275 57.2031 315.3157 57.2031 311.5155 57.8737 310.286 58.209 309.2801 59.1032 307.9388 60.4444 306.8211 62.121 306.2623 63.574 305.7034 64.2447 299.3325 67.3743 297.8794 68.3802 296.4264 69.8332 294.8616 70.6156 293.2968 70.3921 291.732 69.8332 290.1672 69.4979 288.3789 70.0568 288.2671 71.2862 288.7142 72.7393 289.0495 74.4158 289.1613 76.316 289.0495 77.769 288.3789 78.9985 286.5905 80.3397 283.4609 81.5692 281.4491 82.0163 280.5549 81.5692 280.2196 80.8986 279.3254 79.7809 278.3195 78.7749 277.5371 78.3278 276.6429 78.8867 275.637 80.3397 275.0781 81.681 275.7487 82.3516 277.2018 82.6869 278.3195 83.8046 279.2136 85.1459 279.549 86.4871 278.543 88.6108 275.9723 88.499 272.8427 87.3813 270.0484 86.9342 268.3718 87.6048 265.2422 90.0638 262.895 90.7344 262.895 91.2933 263.3421 91.7404 263.901 92.0757 264.6834 92.0757 266.1364 91.4051 266.9188 91.6286 267.4777 92.7463 266.9188 94.3111 266.0246 95.9877 265.1305 99.0055 264.2363 100.4585 263.0068 101.1292 261.8891 100.3468 261.2185 101.3527 260.4361 103.5881 260.4361 106.2706 259.989 108.7296 258.3124 110.2944 257.0829 110.1826 255.7417 109.7355 254.8475 110.0708 254.624 111.8592 255.2946 114.5417 255.2946 115.7712 254.7358 117.2242 252.0532 120.5773 251.3826 121.8068 251.1591 123.4834 251.7179 124.4893 252.5003 125.16 252.9474 126.1659 252.165 127.6189 248.1413 128.5131 247.9177 130.0779 247.5824 131.6427 245.2352 132.2015 240.2055 132.7604 236.1817 135.2194 234.2816 135.89 229.2519 135.3311 222.5457 135.7782 220.8691 136.4488 220.1985 137.9019 220.0867 139.802 220.3102 141.5903 219.9749 143.0433 218.2983 145.0552 217.8513 146.5083 218.2983 150.1967 218.1866 151.8733 217.1806 153.3263 215.9512 153.8851 213.4922 153.8851 212.2627 154.2205 211.145 155.1146 210.3626 156.4559 209.3567 157.3501 208.0154 157.4618 206.6741 157.2383 205.2211 157.3501 204.2152 157.9089 204.2152 159.3619 205.1094 160.5914 206.0035 161.3738 206.3388 162.4915 205.4447 164.1681 204.5505 165.174 203.321 165.9564 201.9798 166.2917 200.6385 166.18 199.409 166.5153 199.1855 167.9683 199.5208 169.8684 200.0796 171.0979 200.6385 171.3215 201.0856 171.0979 201.5327 170.8744 201.7562 170.7626 202.2033 171.2097 203.321 172.4392 204.8858 175.2334 205.8917 178.9219 206.3388 182.7221 206.0035 185.8517 204.8858 189.3166 204.774 190.8814 205.2211 192.7815 205.4447 194.5699 204.6623 196.2464 203.7681 197.923 203.2092 199.5996 203.4328 201.0526 203.9916 202.2821 204.2152 203.5116 203.6563 204.9646 202.5386 206.6411Z" />
  <path class="Potosí" d="M81.2669 756.8906L81.4904 757.0024 102.3916 764.6029 136.0348 775.8917 142.8528 777.233 146.653 777.3448 156.6007 773.8799 179.5138 763.9322 201.9798 754.2081 217.2924 747.2783 220.1985 745.6018 225.5635 741.4662 234.3934 733.4187 237.4112 731.6304 239.1996 730.9597 254.7358 729.842 263.6774 729.1714 265.9129 728.7243 266.6953 728.2772 267.4777 727.7184 267.813 727.0477 267.9248 726.2653 266.5835 723.8064 261.1067 717.4354 257.4183 712.5175 254.624 707.1525 254.5122 706.7054 251.1591 696.3107 250.8238 695.5283 249.9296 694.6341 248.8119 693.7399 245.0117 692.1751 240.429 691.7281 233.8345 689.3809 231.7109 688.0396 225.5635 683.1217 224.6693 682.451 224.2222 682.004 223.6634 680.998 221.0926 675.4095 220.1985 673.9564 220.0867 673.8447 220.0867 673.5094 219.9749 672.5034 220.0867 671.6092 220.7573 668.2561 220.8691 667.2502 220.9809 666.0207 220.7573 663.4499 220.8691 663.0029 221.0926 662.444 221.875 661.7734 223.4398 660.991 225.3399 659.7615 228.6931 658.0849 230.8167 656.7437 232.4933 654.8436 230.8167 654.2847 229.1402 654.2847 228.4695 654.1729 226.9047 653.6141 226.1223 653.3905 224.2222 653.3905 222.3221 653.8376 221.4279 653.8376 220.5338 653.6141 217.963 652.4964 217.2924 651.9375 216.7336 651.3787 216.2865 650.4845 215.9512 649.5903 215.8394 647.802 216.2865 640.6486 216.8453 639.4191 221.875 637.7426 222.7692 637.2955 223.5516 636.7366 224.2222 636.066 224.8928 634.5012 229.9226 633.607 231.4873 633.4953 232.2697 633.4953 232.8286 633.7188 235.7347 634.0541 240.0937 633.8306 243.8939 634.5012 244.6763 634.5012 245.347 634.3894 246.1294 633.9424 250.3767 630.3657 252.0532 629.1362 257.9771 624.8889 258.8713 624.5536 260.8832 624.1065 263.901 623.9947 266.36 624.2183 267.2541 624.33 268.0365 624.5536 269.4895 624.5536 269.9366 626.1184 270.8308 628.0185 271.9485 629.695 272.7309 630.4774 273.6251 630.5892 274.2957 631.1481 274.7428 631.9305 275.3017 633.8306 275.9723 633.9424 280.7784 632.7129 282.455 632.8246 283.6845 634.8365 288.1553 637.2955 292.738 641.2075 293.2968 642.5487 294.6381 643.6664 297.2088 645.2312 298.9971 647.3549 299.7795 648.8079 300.6737 651.0433 301.6796 652.1611 303.0209 653.0552 304.2504 653.7259 306.9329 655.8495 310.0625 661.4381 312.4097 663.7853 312.745 664.0088 313.8627 664.2323 314.3098 664.3441 314.7569 664.6794 315.3157 665.4618 317.8865 666.8031 318.6689 667.0266 318.8924 667.2502 319.116 668.0326 316.7688 668.5914 315.651 668.3679 313.9745 667.5855 308.3859 665.7971 307.7153 665.4618 307.6035 665.3501 307.38 665.2383 307.0447 665.3501 306.5976 665.4618 304.5857 666.4678 304.1386 666.5795 303.6915 666.5795 303.2444 666.4678 302.9091 666.1325 302.6856 665.7971 302.5738 665.3501 302.3503 665.0147 302.1267 664.6794 301.7914 664.4559 301.3443 664.2323 300.8972 664.1206 298.6618 664.2323 298.2147 664.2323 297.7677 664.0088 297.4323 663.6735 296.9853 663.5617 296.0911 663.4499 295.8675 663.2264 295.644 663.0029 295.4205 662.3322 295.3087 662.1087 294.9734 661.9969 294.5263 661.9969 294.191 662.2205 293.7439 662.444 293.5204 662.7793 293.4086 663.4499 293.7439 666.2442 293.7439 666.9149 293.8557 667.3619 294.191 667.809 294.8616 668.7032 295.3087 669.1503 295.8675 669.4856 297.4323 670.1562 298.2147 670.7151 298.4383 671.2739 298.5501 672.1681 297.9912 675.8565 298.2147 679.0979 299.7795 687.4807 299.6678 687.8161 299.3325 688.5985 298.7736 689.2691 297.097 690.7221 296.7617 691.0574 296.5382 691.5045 296.3146 691.8398 296.2029 692.3987 296.2029 692.8458 296.4264 693.2928 296.9853 693.6282 297.4323 693.6282 297.7677 693.6282 298.103 693.5164 306.1505 689.4926 307.6035 688.9338 310.8449 688.1514 311.1802 688.1514 311.6273 688.2631 312.0744 688.3749 312.4097 688.5985 312.8568 688.822 313.0803 689.2691 313.3039 689.7162 313.4156 690.4986 313.3039 691.281 313.0803 692.1751 312.2979 693.5164 311.7391 694.187 311.292 694.6341 310.1743 695.3047 307.4917 697.6519 307.38 697.8755 307.1564 698.3226 307.1564 698.9932 307.2682 699.7756 307.4917 700.2227 307.6035 700.4462 308.2741 701.0051 308.833 701.5639 309.0565 701.8992 309.2801 702.3463 309.3919 702.7934 309.5036 703.2405 309.6154 704.2464 309.7272 705.1406 309.8389 705.4759 309.8389 705.8112 309.6154 706.2583 308.7212 707.1525 308.1624 707.7113 306.2623 710.7292 305.0328 712.8528 304.921 713.2999 304.6975 713.5234 304.6975 713.8587 304.6975 714.0823 304.6975 714.3058 306.0387 718.1061 307.1564 720.1179 309.6154 721.6827 310.0625 722.1298 310.5096 722.8004 310.8449 723.8064 311.0684 725.8183 311.5155 726.8242 312.6332 727.8301 314.5333 729.2832 316.2099 731.7421 316.9923 732.6363 320.6807 735.0953 321.6867 736.213 322.9162 736.9954 326.1575 737.666 327.387 738.3366 328.6165 739.2308 333.0873 741.8015 334.8757 742.3604 336.3287 741.9133 336.8876 741.578 337.1111 741.6898 337.3347 742.0251 337.5582 742.2486 339.2348 742.2486 344.9351 740.3485 347.1705 740.125 349.0706 740.6838 350.3001 741.6898 351.5296 743.2546 352.312 745.0429 352.6473 746.7195 352.8708 746.6077 353.4297 747.1666 353.8768 747.7254 354.1003 748.2843 354.2121 748.9549 354.1003 749.6255 353.6532 750.855 353.4297 752.5316 353.5415 754.0964 353.9886 755.5494 354.771 757.0024 360.9184 765.2735 362.4832 768.4031 363.042 769.9679 362.3714 770.9738 359.9124 774.5505 354.2121 780.5861 340.3525 788.4101 339.123 788.7454 331.5226 789.4161 329.9578 789.8631 327.7223 790.1985 326.2693 790.7573 325.934 790.9809 324.481 792.0986 323.2515 793.3281 322.9162 793.5516 322.5809 793.7751 321.7985 793.9987 321.4631 794.2222 321.1278 794.6693 321.1278 796.3459 321.2396 796.793 321.5749 798.1342 321.2396 799.4755 319.3395 802.158 318.8924 802.8286 318.4453 803.4992 318.11 804.2816 317.3276 806.8524 317.2158 807.6348 317.3276 810.429 317.5512 811.9938 322.6926 832.7833 317.1041 846.3076 316.7688 847.4253 315.8746 852.0079 315.3157 853.3492 313.3039 856.5905 312.8568 866.5382 309.7272 877.4917 309.6154 879.1683 309.6154 880.1743 309.7272 881.0684 310.0625 881.8508 310.0625 882.2979 309.2801 890.569 309.3919 892.5809 309.5036 892.9162 310.7331 895.934 321.1278 907.2229 327.1635 911.8055 327.1635 914.3762 327.1635 915.0469 326.9399 916.0528 325.7105 919.4059 324.7045 921.1943 323.6986 922.312 323.3633 922.5355 323.1397 923.0944 323.0279 923.8768 322.8044 926.1122 322.5809 926.7828 322.1338 927.4535 321.4631 928.1241 320.9043 929.3536 320.2337 932.9303 321.0161 933.3773 321.3514 933.6009 321.6867 933.9362 322.022 934.2715 322.3573 934.8304 322.8044 935.501 323.5868 936.1716 324.1457 936.7305 325.2634 938.6306 327.1635 942.2073 328.0576 943.5485 328.6165 944.1074 328.9518 944.3309 329.6224 946.7899 331.6343 956.1787 331.7461 956.4022 330.4048 956.4022 310.8449 956.6257 306.9329 956.1787 301.7914 955.508 301.1208 955.508 300.7855 955.8433 300.4502 956.1787 299.8913 956.514 289.6084 957.6317 287.3729 956.9611 285.2493 955.3963 275.8605 944.2191 274.1839 943.325 267.4777 942.0955 267.0306 941.6484 266.1364 937.8482 263.901 935.3892 260.7714 933.7127 254.5122 931.7008 253.171 932.1479 249.7061 945.2251 249.0354 952.602 248.7001 953.7197 248.253 954.7256 248.0295 954.8374 247.8059 954.6139 246.8 954.7256 246.2411 955.1727 245.5705 955.7316 245.1234 956.514 244.8999 957.2964 243.1116 958.6376 233.2757 961.5437 224.7811 963.8909 224.4458 964.2262 224.2222 964.8968 223.9987 965.3439 223.6634 965.4557 222.4339 965.1204 220.9809 964.8968 220.1985 964.6733 219.4161 964.5615 218.4101 965.0086 216.7336 966.4616 215.7276 968.0264 215.1688 969.9265 214.3864 975.8504 213.8275 977.6387 212.8216 978.7564 212.7098 979.4271 213.1569 981.7743 213.0451 982.5567 212.2627 983.1155 203.9916 985.798 201.9798 986.804 200.5267 988.3688 199.8561 989.4865 198.8502 990.1571 197.7325 990.3806 196.1677 990.2689 194.8264 990.2689 195.497 997.7575 195.2735 999.4341 194.4911 1000.6636 188.9025 1005.1344 186.7789 1007.7052 182.9787 1014.0761 159.7303 1019.1058 157.0477 1019.6647 151.9063 1020 140.5056 1019.3294 138.1584 1018.547 137.5996 1017.9881 135.923 1015.5292 135.5877 1015.5292 132.7934 1014.9703 132.011 1013.7408 131.6757 1011.7289 131.6757 1005.5815 134.0229 993.7338 134.0229 992.169 131.7875 987.6981 131.1168 983.6744 130.558 981.9978 127.6519 976.7446 127.2048 975.1798 127.2048 973.615 128.4343 968.5853 128.4343 967.0205 127.7637 965.1204 125.64 962.1025 125.4165 961.3201 125.64 960.5377 126.5342 959.1965 126.8695 958.5259 126.5342 956.7375 125.64 954.8374 124.4106 953.1608 122.9575 952.1549 119.3809 948.69 117.5925 947.0134 116.9219 946.1193 116.5866 944.8898 115.8042 931.9243 114.2394 925.7769 109.6568 917.3941 109.0979 914.7116 109.4332 895.3751 108.4273 891.9102 93.0029 866.3146 91.8851 865.1969 90.2086 864.7498 87.1908 864.8616 86.073 864.7498 84.5083 863.7439 82.8317 862.738 81.6022 859.3848 81.4904 849.2136 82.0493 847.4253 83.167 845.7487 88.1967 841.3897 88.3085 839.9366 86.073 838.1483 84.1729 837.3659 80.708 835.1305 73.2194 831.442 71.5428 830.2125 69.978 828.536 68.4132 826.4123 67.2955 823.9534 67.0719 821.4944 67.8543 819.4825 69.5309 818.1413 73.7782 816.6882 70.8722 811.435 69.978 808.8642 70.0898 805.7347 70.4251 803.4992 70.2015 802.7168 67.8543 802.2697 65.6189 800.8167 65.2836 799.2519 66.6249 797.9107 75.5666 795.1164 77.9138 794.8928 78.9197 795.1164 79.7021 795.3399 80.3727 795.2282 81.0433 794.4458 81.3787 793.6634 82.0493 790.9809 82.0493 789.4161 83.6141 785.8394 83.8376 784.7217 83.7259 784.1628 83.3905 783.7157 83.0552 782.7098 83.0552 780.3626 82.9435 779.8037 82.3846 778.686 81.714 778.2389 79.3668 777.233 78.1373 776.3388 75.7901 773.8799 72.2134 771.0856 71.7663 770.0796 71.8781 768.6266 72.884 767.0618 75.9019 764.3793 77.2431 762.9263 81.2669 756.8906Z" />
  <path class="Santa Cruz" d="M549.8117 827.8653L549.6999 827.8653 470.6777 828.2007 469.8953 827.9771 469.3364 827.7536 468.7776 826.7476 466.4304 821.2708 465.5362 819.7061 464.5303 818.9237 463.8596 819.259 463.4125 819.8178 462.5184 821.1591 462.0713 821.7179 461.0653 822.5003 460.73 822.7239 460.0594 822.9474 458.6064 823.2827 457.9358 823.3945 457.2651 823.8416 456.818 824.5122 455.4768 826.3006 455.0297 826.8594 454.6944 827.0829 454.0238 827.1947 453.2414 827.1947 450 826.4123 445.3056 826.4123 443.629 826.1888 442.7349 822.8356 439.6053 791.2044 439.4935 790.9809 438.5993 788.8572 438.264 788.0748 435.1344 733.9776 435.358 729.2832 437.1463 716.3177 436.4757 715.0882 431.7813 715.5353 430.2165 715.5353 428.3164 714.8647 427.4222 714.8647 426.5281 715.5353 425.6339 717.2119 424.9633 722.9122 424.6279 723.9182 424.1809 724.8123 423.3985 725.4829 422.5043 726.0418 421.3866 726.2653 420.0453 726.3771 418.7041 726.3771 417.5864 725.93 416.9157 725.3712 416.4686 724.477 416.3569 723.5828 413.3391 712.8528 412.892 712.1822 412.3331 712.0704 411.886 711.9586 411.3272 711.8469 410.433 710.9527 409.8741 710.0585 409.2035 709.3879 408.0858 709.0526 405.9622 708.829 404.8444 708.6055 403.9503 708.1584 403.3914 707.2642 403.1679 706.2583 403.0561 705.1406 402.9443 704.1347 401.8266 702.3463 400.3736 701.4521 398.8088 700.558 397.3558 699.3285 396.7969 698.4343 396.2381 696.3107 395.9028 695.3047 394.785 693.2928 394.5615 692.2869 394.5615 690.9457 394.785 689.8279 394.785 688.822 394.5615 687.9278 393.7791 686.9219 392.9967 686.1395 394.338 683.7923 396.2381 681.6686 396.4616 680.998 396.4616 680.5509 396.0145 679.3215 395.9028 678.7626 395.9028 677.9802 396.0145 674.8506 395.9028 674.2917 395.9028 673.9564 395.791 673.9564 395.5674 673.6211 395.3439 673.3976 395.0086 673.174 393.332 672.2799 392.6614 671.721 391.4319 670.4915 390.3142 669.7091 389.5318 669.262 388.1905 668.815 387.967 668.7032 387.5199 668.3679 387.1846 667.809 386.6257 666.9149 386.4022 666.2442 386.4022 665.6854 386.514 664.4559 386.2904 664.0088 385.3963 663.2264 385.2845 662.8911 385.2845 662.444 385.508 661.8851 385.6198 661.3263 385.6198 660.5439 385.3963 659.985 384.9492 659.6497 384.055 658.9791 382.9373 656.9672 382.1549 653.8376 380.9254 651.8257 379.4724 649.8139 378.4664 647.9138 377.7958 647.0196 377.3487 646.4607 376.3428 645.9019 375.7839 645.343 374.6662 644.1135 373.325 640.3133 370.866 635.6189 369.8601 634.1659 366.5069 630.5892 366.0598 629.8068 365.7245 628.3538 366.2834 626.2301 367.2893 624.8889 368.9659 623.5476 375.0015 617.4002 376.5663 615.6119 388.1905 598.1756 388.5259 597.3932 388.6376 596.6108 388.5259 594.9342 388.6376 594.1518 388.8612 593.2576 389.42 592.6988 392.2143 590.7987 393.1085 590.4634 393.7791 590.4634 395.2321 590.5751 395.9028 590.5751 397.4675 590.1281 398.1382 590.1281 399.0323 590.3516 400.3736 590.2398 401.4913 590.1281 402.0502 588.675 402.4972 587.222 402.1619 585.769 401.4913 584.5395 400.8207 582.6394 400.4854 581.9688 400.0383 581.5217 396.6851 578.7274 390.426 571.4623 387.967 569.5622 387.2964 569.2268 385.2845 568.5562 381.0372 565.9855 379.9195 565.0913 375.2251 560.1734 374.5545 559.6145 373.7721 559.2792 372.2073 558.7204 370.4189 557.7144 363.4891 550.2257 362.3714 548.4374 360.8066 542.29 360.6948 540.837 360.4713 540.0546 360.0242 539.3839 358.9065 538.0427 358.5712 537.2603 358.6829 536.3661 359.5771 534.9131 359.9124 533.1248 362.5949 528.7657 362.8185 528.2068 362.5949 527.4244 362.0361 527.0891 361.3655 526.8656 360.8066 526.3067 360.4713 525.189 360.6948 523.9595 361.1419 522.73 361.8125 521.6123 362.4832 520.8299 364.1597 519.7122 364.8304 518.9298 365.2774 516.8062 365.2774 516.5826 365.3892 516.4708 367.7364 511.1058 367.8482 509.9881 367.6246 509.2057 366.954 508.3116 366.8422 507.6409 366.954 506.9703 368.2953 504.7349 366.5069 504.6231 366.7305 503.7289 368.2953 501.6053 368.5188 500.1523 368.2953 498.811 368.2953 497.358 368.8541 495.905 368.1835 494.2284 368.5188 492.7754 369.0777 491.5459 369.413 490.3164 369.0777 489.1987 367.6246 487.1868 367.2893 485.622 367.2893 482.9395 367.4011 482.4924 367.7364 482.0453 367.8482 481.5982 367.8482 480.5923 367.4011 479.0275 366.5069 477.5745 365.501 476.345 364.2715 475.3391 365.2774 474.6684 366.2834 474.5567 367.2893 474.892 368.2953 475.3391 368.407 474.1096 367.96 473.2154 366.2834 471.7624 368.2953 471.6506 369.1894 471.5388 369.6365 469.8623 466.5421 475.0037 468.1069 474.892 468.3305 474.6684 467.5481 474.3331 466.7657 473.9978 464.1949 473.3272 463.3008 472.9919 462.6301 472.433 460.73 470.3094 460.0594 469.3034 459.6123 467.8504 459.3888 466.6209 459.3888 464.8326 459.1652 464.0502 458.8299 463.2678 457.2651 461.2559 456.371 459.4675 455.5886 458.4616 454.9179 457.791 454.4708 457.4557 452.0119 456.338 451.2295 455.8909 448.9941 453.9908 448.3234 453.5437 447.4293 453.5437 446.6469 453.3201 445.7527 452.7613 442.2878 449.1846 441.8407 448.1787 441.3936 444.4902 441.0583 443.4843 440.0524 442.2548 439.1582 441.5842 437.2581 440.9135 436.5875 440.4664 435.9168 439.684 428.0928 427.6128 425.4103 420.0123 423.0631 416.3239 422.6161 415.0944 421.7219 411.4059 422.169 409.6176 422.6161 408.4999 422.8396 407.0469 422.9514 404.9232 422.5043 401.0112 422.5043 392.1813 420.8277 384.9162 424.2926 383.3514 449.6647 375.8627 490.6847 352.0554 555.8473 314.3886 595.1908 291.5872 595.5261 291.5872 597.538 293.4873 598.3204 293.9344 601.7853 294.7168 605.1384 294.3815 608.268 293.152 613.2977 290.5813 614.4154 290.5813 615.5331 291.1402 618.2156 291.5872 619.6686 292.4814 620.5628 292.8167 621.3452 292.8167 623.0218 292.3696 627.9397 292.4814 628.6103 292.0343 629.0574 290.5813 630.1751 289.7989 633.3047 289.3518 633.5283 289.1283 634.4224 288.5694 635.4284 288.3459 635.8755 289.1283 635.8755 292.1461 637.2167 293.7109 640.4581 294.2697 644.0348 294.4933 646.4937 295.0521 647.835 296.3934 648.3938 296.7287 653.4235 298.8524 659.0121 303.3232 664.3771 307.5705 666.9479 308.9118 668.6244 309.3589 669.1833 309.5824 669.4068 309.9177 669.8539 310.8119 670.0774 311.1472 670.7481 311.4825 676.3366 312.8238 677.6779 313.6062 678.2367 314.9474 678.3485 317.0711 678.7956 319.0829 679.4662 321.0948 680.1369 322.6596 680.8075 323.3303 682.3723 324.6715 682.484 325.1186 682.1487 325.901 682.5958 326.3481 683.3782 326.6834 683.8253 327.0187 683.9371 327.6893 683.9371 328.1364 683.2664 329.5894 682.3723 333.0543 681.5899 334.7309 680.2486 335.8486 678.4603 336.4075 678.0132 336.7428 677.5661 337.7487 677.3426 339.5371 677.2308 341.2136 677.4543 342.2196 678.4603 344.0079 678.4603 345.908 678.2367 347.9199 678.2367 350.0436 679.0191 351.3848 683.0429 354.738 683.6018 355.9674 684.7195 360.7736 687.1784 366.1386 687.5138 369.38 685.2783 370.1624 686.5078 372.6213 690.0845 375.0803 690.9787 376.7569 691.2022 381.3395 691.5375 387.5987 691.7611 393.8579 692.0964 400.1171 692.3199 406.3762 692.6552 411.2942 692.2081 412.1883 683.8253 412.3001 669.6304 412.4119 673.5424 415.8768 678.5721 422.0242 686.5078 431.6365 693.3259 439.684 694.3318 441.3606 694.8906 443.2607 695.8966 454.6614 697.2378 470.0858 698.2438 481.3747 698.6909 489.6458 699.2497 498.2521 700.591 501.6053 702.9382 502.2759 707.9679 502.3877 722.051 502.9465 736.0224 503.3936 750.1056 503.9525 764.077 504.3996 778.0484 504.9584 792.1316 505.5173 806.103 505.9644 820.1861 506.5232 825.4394 506.635 827.116 506.5232 828.569 505.7408 829.1278 504.9584 830.2455 503.0583 830.6926 502.723 833.934 502.8348 834.7164 503.5054 835.0517 510.8823 834.7164 512 833.0398 513.453 832.9281 514.7943 834.3811 517.5886 833.4869 520.3828 826.11 528.7657 824.8805 531.1129 824.3217 533.6836 824.5452 537.0367 826.11 542.8488 826.3336 545.8667 826.11 546.4255 825.5512 547.7668 825.3276 548.4374 825.3276 549.4433 826.11 553.2436 827.3395 555.5908 827.7866 556.932 828.2337 562.297 828.569 563.5265 829.3514 564.8678 829.7985 566.5443 829.9102 573.4741 830.2455 576.3802 831.5868 578.6156 834.3811 580.1804 836.7283 580.5157 837.3989 580.7393 838.1813 581.1864 839.4108 582.3041 840.1932 582.7512 840.752 582.8629 841.9815 583.0865 842.6521 583.4218 843.4345 584.5395 844.664 587.1102 845.7817 588.0044 846.7877 588.2279 847.6818 588.3397 848.4642 588.5633 849.3584 589.2339 851.3703 591.4693 852.2645 592.0282 854.8352 593.1459 855.7294 593.7047 858.859 596.3872 860.9826 597.2814 863.7769 597.952 866.5712 598.1756 868.6948 597.505 870.3714 597.2814 871.7127 597.3932 873.2774 598.0638 874.2834 599.1815 875.0658 600.8581 875.2893 602.7582 875.1776 604.6583 875.2893 605.8878 875.2893 608.9056 875.4011 610.2469 875.96 611.6999 876.7424 612.7058 877.7483 613.6 878.7542 614.3824 879.9837 614.8295 879.3131 617.2884 879.5366 618.1826 880.8779 619.8592 881.9956 621.7593 881.7721 623.1006 879.5366 623.3241 886.3547 635.2836 890.1549 644.7842 892.7256 649.4785 895.6317 651.1551 897.0847 651.1551 898.3142 651.3787 898.9848 652.0493 898.873 653.8376 893.8433 653.8376 892.5021 654.1729 891.4961 655.0671 890.3784 658.8673 886.9135 669.9327 883.4486 680.998 879.9837 692.1751 876.5188 703.2405 875.6246 705.923 878.6425 706.1465 879.4249 706.8172 879.7602 708.2702 880.0955 712.9646 880.5426 716.3177 876.407 716.653 875.1776 717.4354 873.501 721.0121 871.1538 725.8183 866.1241 736.4365 861.0944 747.0548 858.859 751.8609 857.9648 753.8728 855.9529 758.1201 853.941 762.3674 853.0469 764.2675 850.4761 769.7443 851.035 771.9798 856.6235 777.1212 862.5474 782.598 869.9243 789.4161 869.2537 790.422 868.3595 791.6515 867.3536 792.7692 865.677 793.5516 863.8887 793.1045 862.6592 792.9927 862.1003 793.3281 861.9886 793.9987 861.4297 794.6693 860.7591 795.1164 859.8649 795.2282 857.9648 796.0106 855.7294 799.3637 853.8293 800.1461 853.2704 800.3696 852.3762 801.7109 852.0409 802.158 851.1468 802.7168 848.0172 803.8345 847.9054 801.8227 849.0231 797.6871 849.1349 796.0106 849.0231 792.7692 849.2466 790.9809 849.0231 788.5219 847.6818 784.051 847.5701 781.5921 847.7936 778.9096 847.5701 777.7919 846.7877 776.8977 843.8816 775.1094 836.9518 770.862 830.1338 766.6147 823.3157 762.2557 816.3859 758.0084 809.5679 753.7611 802.6381 749.5138 795.82 745.1547 789.002 740.9074 785.2018 738.6719 783.1899 737.1072 780.9545 735.5424 779.5014 735.207 773.4658 735.207 759.6062 735.4306 745.7465 735.6541 731.8869 735.7659 718.0273 735.9894 711.9916 736.1012 700.9263 738.4484 676.0013 743.9252 651.0763 749.2902 626.1514 754.767 601.2264 760.132 599.6616 760.4673 596.1967 760.9144 592.7318 761.4733 591.167 761.6968 584.5725 762.7028 583.4548 763.2616 582.7842 764.1558 581.4429 767.956 579.431 773.7681 577.3074 779.4684 575.2955 785.2805 573.1718 790.9809 572.1659 792.9927 571.2717 795.0046 570.8246 796.0106 570.2658 797.0165 569.3716 799.0284 568.1421 800.9285 566.9127 802.8286 565.6832 804.7287 564.4537 806.5171 561.2123 811.3232 557.8592 816.1294 554.6178 820.9355 551.2647 825.6299 549.8117 827.8653Z" />
  <path class="Tarija" d="M330.4048 956.4022L331.7461 956.4022 331.6343 956.1787 329.6224 946.7899 328.9518 944.3309 328.6165 944.1074 328.0576 943.5485 327.1635 942.2073 325.2634 938.6306 324.1457 936.7305 323.5868 936.1716 322.8044 935.501 322.3573 934.8304 322.022 934.2715 321.6867 933.9362 321.3514 933.6009 321.0161 933.3773 320.2337 932.9303 320.9043 929.3536 321.4631 928.1241 322.1338 927.4535 322.5809 926.7828 322.8044 926.1122 323.0279 923.8768 323.1397 923.0944 323.3633 922.5355 323.6986 922.312 324.7045 921.1943 325.7105 919.4059 326.9399 916.0528 327.1635 915.0469 327.1635 914.3762 327.1635 911.8055 327.4988 907.2229 329.5107 891.3514 329.3989 889.7866 329.3989 886.5452 329.5107 885.7628 330.7402 881.4037 331.6343 866.9853 331.8579 866.5382 332.0814 865.9793 332.5285 865.4205 332.9756 865.1969 333.3109 865.1969 333.6462 865.4205 334.3168 865.8675 334.6521 866.0911 335.9934 866.4264 336.4405 866.5382 336.8876 866.4264 337.7817 866.0911 338.2288 865.9793 338.6759 865.9793 339.0112 866.0911 339.5701 866.6499 341.9173 869.4442 342.029 869.556 342.1408 869.556 342.4761 869.556 343.035 869.4442 343.4821 869.4442 343.5938 869.556 344.0409 870.1149 344.2645 870.3384 344.5998 870.3384 344.9351 870.2266 345.6057 870.0031 346.0528 869.8913 346.4999 870.0031 346.7234 870.2266 347.3941 870.6737 347.6176 870.8972 348.0647 871.009 348.5118 871.1208 349.4059 871.009 349.853 871.009 350.1883 871.2326 350.5237 871.4561 350.7472 871.7914 350.859 872.1267 350.9707 872.5738 351.0825 873.0209 351.4178 873.2444 352.2002 873.468 352.6473 873.6915 352.9826 873.9151 353.2062 874.1386 353.4297 874.4739 353.5415 874.8092 353.765 875.1446 354.1003 875.3681 354.4356 875.5916 355.5534 876.1505 355.7769 876.374 356.1122 876.5976 356.3358 876.9329 356.6711 877.1564 357.0064 877.1564 357.9006 876.8211 359.2418 876.374 360.4713 875.8152 361.0301 875.2563 361.2537 874.8092 361.4772 873.9151 361.589 873.468 362.1479 872.3503 362.2596 871.9032 362.2596 871.4561 362.2596 870.5619 362.3714 869.556 362.8185 868.3265 363.9362 866.6499 364.495 865.5322 365.2774 864.4145 365.8363 864.0792 366.3952 863.8557 366.7305 863.9674 367.1776 864.0792 368.0717 864.6381 368.5188 864.7498 368.9659 864.8616 369.8601 864.8616 370.3072 864.9734 370.6425 865.0851 370.866 865.3087 371.0895 865.644 371.5366 866.8735 371.7602 867.2088 371.9837 867.4323 373.325 868.2147 373.6603 868.5501 374.2191 868.9971 374.4427 869.4442 375.8957 871.1208 376.1193 871.4561 377.9076 875.4799 378.1311 875.8152 378.3547 876.1505 378.69 876.374 379.0253 876.5976 379.4724 876.7094 380.143 876.5976 382.4902 876.0387 383.8315 875.927 384.2785 875.927 385.2845 876.0387 385.6198 876.2623 386.2904 876.7094 388.9729 878.9448 391.6554 880.1743 392.9967 880.3978 397.4675 879.9507 398.3617 880.0625 400.3736 880.6213 400.9325 880.7331 401.4913 880.6213 401.8266 880.3978 402.1619 880.0625 402.609 879.7272 402.8326 879.3919 403.1679 878.9448 403.2796 878.6095 403.3914 878.1624 403.5032 877.7153 403.615 876.1505 403.5032 875.7034 403.1679 874.5857 403.1679 874.1386 403.5032 873.468 403.615 873.1327 403.7267 872.6856 403.8385 872.2385 404.3974 871.5679 404.6209 871.009 404.7327 870.5619 404.7327 870.1149 404.2856 865.4205 404.3974 863.5204 404.5091 862.738 404.6209 862.2909 405.1798 860.9496 405.6268 861.1732 406.521 862.1791 407.527 862.8497 408.4211 862.738 409.5388 862.4026 411.1036 862.4026 412.5567 862.738 413.2273 863.2968 413.4508 864.7498 414.1215 865.1969 416.2451 865.1969 416.6922 865.0851 417.4746 864.8616 418.0334 865.0851 417.4746 865.9793 417.3628 866.7617 417.8099 867.6559 419.2629 868.9971 419.2629 869.2207 420.8277 869.2207 427.6458 869.4442 545.229 869.556 545.0055 874.6975 542.5465 882.8568 540.1993 891.0161 537.6286 899.846 534.9461 909.0112 532.3754 917.3941 529.0222 928.9065 526.3397 937.8482 523.0983 948.69 521.1982 955.7316 519.0746 963.2202 517.398 967.244 516.7274 967.0205 516.5039 966.4616 516.5039 965.6792 516.1685 965.0086 515.2744 964.1144 512.1448 961.7672 508.6799 960.0906 507.5622 958.9729 507.0033 957.6317 507.0033 955.0609 506.5562 954.055 506.7798 953.4961 506.7798 952.7138 506.3327 949.6959 506.1091 948.9135 504.9914 948.69 501.8618 948.0194 490.9083 948.69 467.7716 948.5782 444.635 948.3547 441.7289 948.9135 440.6112 949.5842 437.1463 952.602 436.3639 952.2667 433.3461 949.4724 431.7813 948.8018 424.9633 948.3547 422.9514 948.69 421.9454 949.2488 421.7219 949.4724 421.6101 949.9195 420.9395 951.7078 420.716 953.2726 420.3806 953.8315 419.8218 954.5021 419.2629 954.7256 418.8158 954.9492 418.3688 955.1727 417.6981 956.514 416.5804 960.9848 414.345 966.7969 413.7861 967.6911 412.2213 968.4735 411.6625 969.1441 406.2975 983.4508 404.5091 986.0216 400.7089 989.71 399.5912 991.6101 396.4616 1003.5696 396.3498 1009.27 395.6792 1010.8348 394.0026 1016.9822 394.1144 1017.9881 392.7732 1017.3175 392.4378 1013.629 391.5437 1012.5113 392.1025 1010.6112 391.879 1008.4876 390.873 1006.6992 389.3083 1005.9168 388.5259 1005.2462 386.514 1000.9989 385.8433 1000.44 385.1727 1000.2165 384.7256 999.7694 384.5021 998.5399 384.6139 997.6458 384.9492 996.081 384.9492 995.2986 385.2845 994.4044 385.8433 993.7338 386.4022 992.9514 386.514 991.7219 382.4902 987.6981 381.3725 986.2451 380.9254 984.345 380.7019 983.8979 379.3606 983.0037 378.9135 982.4449 379.0253 981.6625 379.5842 980.0977 379.4724 979.2035 378.4664 978.3094 376.9017 977.3034 376.0075 975.8504 376.6781 974.062 377.684 972.8326 378.1311 971.7149 378.1311 970.4854 377.4605 968.8088 376.7899 967.9146 374.8898 965.4557 374.2191 965.0086 372.6543 964.6733 371.0895 963.7791 369.6365 962.7732 368.0717 962.5496 367.5129 962.3261 366.8422 962.4378 365.501 962.9967 364.8304 963.1085 361.9243 962.4378 356.7828 959.5318 342.9232 956.2904 330.4048 956.4022Z" />
</svg>