<?xml version="1.0" encoding="utf-8"?>
<svg xmlns="http://www.w3.org/2000/svg" viewBox="0 0 1021 911" style="stroke-width:0.25px;stroke-linejoin:round;stroke:#444;fill:#ddd" fill-rule="evenodd">
  <path class="Ad Daqahliyah" d="M630.7188 40.1024L630.7188 40.773 630.7188 41.3319 629.9364 40.9966 628.2598 40.773 627.1421 41.1084 626.5833 39.4318 627.5892 39.5436 628.7069 39.6553 630.7188 40.1024ZM592.2695 41.1084L592.3813 41.1084 592.2695 40.8848 592.1578 40.8848 592.046 40.773 591.9342 40.4377 593.0519 40.8848 593.6108 41.1084 594.3932 41.1084 595.0638 41.5554 595.2873 42.4496 595.2873 43.232 595.6227 43.6791 596.5168 43.9026 597.8581 44.5733 599.0876 45.4674 599.87 46.3616 600.5406 44.7968 600.9877 44.1262 601.5465 43.6791 601.2112 44.5733 601.0994 45.2439 601.2112 45.691 601.5465 46.3616 600.4288 46.3616 600.4288 47.0322 601.5465 47.0322 601.323 47.2558 601.0994 47.4793 600.8759 47.7029 600.9877 48.3735 601.4348 48.3735 601.6583 48.1499 601.7701 47.9264 602.1054 47.7029 602.2172 47.8146 602.2172 48.0382 602.3289 48.2617 602.6642 48.3735 602.6642 47.7029 603.2231 47.7029 602.8878 49.0441 603.2231 49.9383 603.8937 49.9383 604.4526 48.3735 605.3468 48.2617 606.688 46.9205 608.2528 45.8028 610.1529 46.3616 608.9234 46.3616 608.9234 47.0322 610.1529 47.7029 610.3765 47.2558 610.9353 46.8087 611.2706 46.3616 612.5001 47.0322 612.5001 47.7029 612.1648 48.1499 611.9413 48.4853 611.8295 49.7147 612.7237 49.2677 613.059 49.0441 612.9472 49.9383 612.7237 50.3854 612.3883 50.8325 611.8295 51.056 611.8295 51.6149 612.3883 52.509 612.3883 53.515 610.7118 55.0798 610.7118 55.7504 611.6059 55.7504 612.2766 55.5268 612.8354 55.0798 613.059 54.4091 613.5061 54.4091 613.6178 55.4151 613.7296 55.6386 611.1589 57.3152 610.3765 57.6505 610.1529 57.7623 608.6999 57.6505 608.2528 57.6505 608.0293 57.7623 605.4585 59.8859 605.235 59.8859 605.0114 59.9977 604.1173 60.1095 600.2053 61.0036 598.9758 61.1154 598.864 61.1154 598.1934 61.4507 597.8581 61.5625 597.6345 61.5625 597.5228 61.5625 597.0757 61.4507 596.5168 61.1154 596.2933 61.1154 596.0697 61.1154 595.7344 61.1154 595.0638 61.5625 594.8403 61.5625 594.1696 61.6743 593.8343 61.6743 593.499 61.786 593.2755 61.786 592.9402 61.786 592.3813 61.6743 591.9342 61.6743 591.4871 61.6743 591.3754 61.786 590.9283 62.3449 587.9105 68.0452 583.5514 73.2985 582.769 74.8633 582.3219 76.0927 581.763 76.9869 580.6453 77.7693 580.0865 78.1046 579.1923 78.3282 578.4099 78.6635 577.7393 79.3341 577.7393 80.4518 578.0746 82.0166 577.9628 82.9108 577.404 83.6932 574.945 85.9286 574.0508 87.0463 572.7096 87.8287 571.7036 87.9405 568.9094 87.6052 568.127 87.8287 566.7857 88.0523 566.0033 88.0523 565.2209 87.8287 561.1971 87.9405 559.5206 88.2758 558.1793 88.8347 557.3969 89.5053 556.7263 90.2877 556.1674 91.4054 555.9439 92.7466 555.9439 94.6468 556.6145 97.9999 557.0616 100.7942 557.5087 102.4707 557.7322 103.3649 557.844 105.265 557.5087 107.2769 555.4968 109.4006 553.7085 108.9535 553.0378 109.4006 551.9201 109.7359 550.8024 109.7359 549.6847 108.9535 547.2257 108.0593 548.567 103.5884 548.6788 101.0177 547.6728 96.5469 547.4493 93.9761 547.2257 93.1937 546.8904 92.9702 546.4433 92.9702 546.2198 92.6349 545.6609 90.2877 545.3256 86.1521 544.5432 85.3697 544.2079 84.6991 543.9844 83.9167 544.4315 83.5814 546.2198 83.0226 546.7787 82.6872 547.2257 82.5755 547.3375 82.3519 547.4493 81.346 547.2257 80.8989 546.7787 80.4518 546.2198 80.0047 545.6609 79.6694 546.3316 79.5576 546.6669 79.3341 547.0022 79.1106 547.4493 78.9988 546.3316 77.8811 546.5551 77.2105 547.4493 76.4281 548.0081 75.6457 547.8964 74.4162 547.5611 73.6338 547.2257 72.8514 547.4493 71.6219 548.1199 70.7277 549.0141 70.3924 549.9083 70.2806 550.9142 69.7218 551.026 69.2747 551.5848 66.4804 551.473 65.8098 551.5848 65.2509 551.2495 65.0274 550.8024 64.9156 550.02 65.3627 549.2376 65.4745 548.3435 65.698 547.6728 66.1451 546.7787 66.4804 546.5551 66.3686 545.7727 66.0333 545.2139 65.9216 544.7668 65.698 544.3197 65.1392 544.4315 64.3568 545.2139 61.786 545.7727 57.2034 545.8845 56.9799 546.108 57.0916 546.3316 57.3152 546.8904 57.427 548.2317 56.7563 548.9023 56.1975 549.7965 55.6386 550.5789 55.6386 551.1377 55.4151 550.8024 54.5209 549.3494 53.1796 548.9023 52.3972 548.7905 51.5031 549.5729 49.3794 549.9083 47.7029 549.7965 44.9086 549.5729 43.232 549.4612 41.5554 549.6847 37.1964 549.6847 34.1785 548.9023 28.3664 548.6788 27.3605 548.3435 26.4663 547.114 25.1251 546.7787 24.678 546.5551 23.7838 546.6669 23.0014 546.7787 22.1073 547.114 21.5484 549.2376 19.8718 555.2733 16.6305 557.6205 17.6364 561.0854 20.3189 569.6917 24.3427 572.486 25.0133 573.7155 25.0133 573.7155 25.1251 573.3802 26.0193 573.1567 26.5781 572.8213 27.2487 572.2625 27.9194 569.3564 30.043 567.9034 31.7196 567.6799 32.0549 567.7916 32.6138 568.4623 33.1726 572.2625 33.7315 572.7096 33.955 572.9331 34.6256 572.8213 35.2963 572.8213 35.9669 573.1567 36.414 573.7155 36.7493 574.2744 36.5257 574.945 36.6375 575.9509 37.5317 576.5098 37.867 577.0686 37.867 577.5157 38.3141 578.0746 39.5436 578.4099 39.6553 578.857 39.8789 579.7512 39.5436 580.31 38.9847 580.4218 38.4259 580.4218 38.0905 580.1982 37.1964 580.1982 36.8611 580.31 36.414 581.9866 35.7433 582.4337 35.7433 582.8807 35.7433 583.2161 36.414 583.4396 37.1964 583.6631 37.9788 583.3278 38.3141 583.3278 39.0965 583.8867 39.8789 583.5514 40.326 582.8807 40.326 582.2101 39.6553 581.6513 39.6553 581.4277 39.9906 581.2042 40.326 580.9806 41.1084 582.5454 41.8908 582.4337 43.0085 581.2042 44.0144 579.6394 44.4615 578.1864 44.4615 578.1864 44.9086 578.6334 45.691 578.7452 47.0322 577.1804 49.1559 575.8392 49.603 576.0627 50.8325 576.398 51.7266 576.9569 52.1737 577.9628 52.0619 582.5454 48.0382 584.7809 46.9205 588.4693 45.9145 591.04 44.238 592.2695 41.1084ZM617.1945 32.6138L618.0887 32.9491 620.1006 35.2963 620.6594 35.7433 621.7771 36.3022 625.1303 38.8729 626.0244 39.4318 623.4537 38.8729 615.1826 33.7315 615.6297 33.7315 616.0768 33.7315 616.3003 33.8432 616.8592 34.4021 616.7474 33.7315 616.3003 33.2844 616.3003 33.1726 616.6356 33.0608 617.1945 32.6138Z" />
  <path class="Al Bahr al Ahmar" d="M567.4563 906.329L567.4563 906.2173 569.8035 901.7464 571.7036 899.511 573.6037 898.058 575.3921 896.9403 592.6048 888.8927 593.6108 888.1103 594.952 886.322 596.0697 884.3101 596.8521 883.3042 597.7463 882.5218 598.864 882.0747 599.87 881.8512 602.776 881.8512 603.782 881.6276 604.7879 881.2923 605.6821 880.7334 609.0352 878.2745 610.1529 877.045 611.7177 875.1449 613.059 872.7977 618.424 857.485 619.3182 855.5849 619.9888 854.6908 620.7712 854.0201 621.6653 853.6848 622.5595 853.9084 623.5655 854.2437 624.4596 854.8025 628.2598 857.9321 631.7248 861.9559 632.5072 862.5147 633.4013 863.1854 635.4132 864.0795 637.5369 864.7502 638.6546 864.9737 643.2372 865.0855 647.2609 864.4149 650.9494 863.1854 652.626 862.403 654.079 861.397 657.2086 858.6028 659.7793 855.6967 670.6211 845.8608 672.7448 843.0666 673.8625 841.2782 674.3096 840.0487 674.6449 838.3722 674.7567 835.8014 674.1978 831.8894 674.3096 830.66 674.8684 829.4305 676.545 827.7539 677.1039 826.9715 677.998 824.289 678.4451 823.3948 679.1157 822.7242 679.8981 822.6124 680.7923 822.836 681.7982 823.5066 682.6924 824.289 686.3809 828.201 688.281 829.7658 689.2869 830.2129 690.1811 830.4364 691.0752 830.5482 691.8576 830.5482 698.6757 829.4305 700.7993 829.654 702.6994 830.3246 704.5996 831.5541 711.3058 838.4839 716.7826 842.5077 717.565 842.843 718.4592 843.1783 719.3534 843.1783 720.024 842.7312 720.3593 841.7253 720.1358 839.3781 716.6708 827.6421 716.112 826.6362 715.4414 825.742 713.8766 824.289 713.0942 823.3948 711.9765 821.3829 711.3058 820.4888 710.5234 819.8182 709.5175 819.2593 704.5996 817.471 698.8992 813.8943 698.0051 813.1119 697.4462 812.2177 697.2227 811.1 697.7815 809.7587 699.3463 807.9704 700.0169 807.0762 700.464 806.1821 701.5817 803.0525 702.1406 802.0465 703.0348 801.1524 705.4937 799.0287 706.0526 798.2463 706.4997 797.3521 709.5175 789.6399 710.1881 787.4045 710.2999 786.3986 710.1881 785.0573 709.8528 783.7161 708.9586 781.5924 706.6114 777.904 706.0526 776.5627 704.2642 768.0681 704.1525 765.7209 704.376 764.2679 706.1644 761.4736 706.4997 760.5794 706.6114 759.0146 706.0526 754.2085 706.0526 752.5319 706.1644 751.1906 706.0526 749.9612 705.7173 748.6199 704.8231 746.608 703.8172 745.4903 702.923 744.7079 701.2464 743.5902 699.6816 742.1372 698.3404 740.3488 697.558 738.784 695.3226 732.5249 693.4224 728.9482 692.64 726.8245 690.2928 711.2883 690.9635 705.0292 692.7518 697.8758 693.5342 696.1992 700.3523 687.1458 701.5817 685.2457 702.5877 683.2338 702.923 682.3396 703.4818 680.1042 703.5936 678.4276 703.4818 677.6452 694.5402 658.8677 694.0931 657.5264 693.5342 654.285 693.3107 641.9902 692.64 636.5134 691.9694 633.8309 690.8517 631.1484 688.0574 626.2305 684.9278 622.2067 668.0504 609.2413 665.3679 606.7823 664.5855 605.7763 663.5795 603.8762 662.6854 601.1937 661.2323 594.3757 661.0088 589.4578 661.2323 588.1165 662.2383 585.0987 663.1325 583.1986 664.3619 581.4102 669.8387 575.2628 677.8862 567.9977 679.6746 565.874 681.2394 563.7504 685.4867 554.9205 686.2691 552.4615 686.7162 550.0025 686.8279 547.7671 686.7162 544.5257 685.822 537.7077 684.7043 533.3486 683.8101 531.225 682.5806 529.1013 679.3393 524.7422 676.4332 522.0597 674.4213 520.6067 672.8565 519.7125 666.3738 517.8124 661.0088 517.4771 658.6616 517.7007 654.3025 518.4831 637.5369 526.6424 634.9661 527.2012 626.1362 516.0241 623.9008 511.7768 623.1184 510.7708 622.336 509.6531 620.9947 508.759 619.9888 508.4237 614.512 507.1942 612.053 506.1882 609.9294 505.0705 608.3646 504.0646 607.2469 502.7233 605.9056 501.0468 603.8937 498.0289 602.6642 495.4582 602.4407 494.4523 601.9936 490.3167 601.5465 488.8637 600.7641 487.1871 598.5287 484.1693 596.6286 480.8162 595.2873 477.7983 591.5989 474.2217 577.6275 464.3858 568.7976 445.72 566.8975 442.4787 565.668 441.0256 560.4147 435.6606 557.0616 432.7546 555.0497 431.6369 554.4909 431.078 553.932 430.1838 553.2614 428.8426 551.9201 425.0424 551.1377 423.7011 550.1318 422.3598 548.3435 420.6833 547.0022 419.7891 545.8845 419.2303 540.6312 417.5537 532.1366 413.977 524.8715 409.7297 524.0891 408.9473 523.3067 408.0531 522.7479 406.9354 522.189 405.7059 521.4066 403.1352 521.0713 401.7939 520.9595 399.1114 521.2948 390.7286 522.7479 381.7869 522.8596 380.3339 522.7479 378.0985 522.4125 375.1924 521.9655 373.4041 520.0653 368.3744 519.6183 366.2507 518.9476 357.309 518.5006 354.7383 517.1593 351.0498 512.6884 342.2199 512.3531 341.1022 512.1296 339.9845 511.7943 335.9607 510.9001 331.6017 510.7883 330.5957 511.0119 328.9191 511.459 326.7955 513.9179 320.5363 517.9417 313.4947 518.3888 312.4888 518.8359 310.4769 521.5184 287.3403 521.6301 285.4402 522.3008 282.6459 523.8656 278.2868 525.5421 274.9337 531.1307 267.445 535.9369 259.621 538.284 256.6032 541.9725 252.5794 543.202 250.7911 544.2079 248.6674 545.6609 244.7554 546.6669 242.7436 547.2257 241.067 547.3375 239.7257 547.114 235.9255 547.4493 231.9018 553.4849 239.3904 555.2733 240.9552 555.8321 241.6259 556.391 242.4083 557.5087 245.0908 557.9558 245.7614 558.8499 247.1026 562.2031 250.5675 563.7679 251.797 566.2268 253.2501 567.9034 254.0325 598.5287 263.3095 601.9936 264.986 613.3943 263.3095 620.2123 263.6448 621.4418 263.4212 623.2301 262.8624 648.6022 251.6853 650.9494 250.2322 654.4143 249.1145 655.9791 248.891 664.0266 248.891 664.2502 249.7851 664.2502 251.9088 663.8031 252.6912 663.0207 253.3618 662.5736 254.4795 661.6794 254.9266 661.3441 255.709 662.0147 256.715 661.5677 259.621 661.4559 262.9741 662.0147 263.9801 664.4737 266.6626 665.3679 267.7803 665.7032 268.7862 665.7032 270.6864 666.0385 271.6923 667.9386 273.816 668.2739 274.0395 671.7388 278.8457 674.6449 279.4045 676.545 281.4164 677.6627 284.3224 681.3512 298.4056 681.6865 300.3057 682.5806 300.641 686.4926 302.8765 688.5045 304.8883 689.5105 306.1178 690.2928 307.7944 691.187 308.1297 692.0812 308.3532 692.8636 308.8003 693.0871 309.3592 693.646 311.2593 696.105 315.9537 696.7756 316.6243 696.8873 317.0714 696.6638 317.1832 696.4403 317.0714 696.2167 317.1832 699.9052 320.201 701.47 322.2129 701.3582 324.3365 702.0288 324.7836 702.5877 325.9013 702.923 327.019 703.1465 327.9132 703.4818 328.2485 705.382 330.8193 709.2939 335.0666 710.1881 337.0784 711.0823 337.6373 711.9765 337.9726 712.7589 338.5315 713.0942 339.7609 713.0942 340.8787 713.3177 341.5493 714.7707 341.7728 716.112 342.5552 718.9063 345.9084 720.6946 347.0261 720.5828 347.5849 720.6946 348.3673 720.6946 348.9262 720.5828 349.7086 721.1417 350.2674 722.1476 350.491 723.0418 350.2674 723.7124 351.6087 725.6125 352.5029 729.301 353.5088 735.2249 358.8738 737.125 362.8976 738.1309 363.7917 738.6898 364.7977 740.4781 369.1568 740.7017 370.2745 740.7017 370.8333 741.1487 371.504 741.484 373.4041 741.8194 374.0747 741.8194 374.6336 741.2605 374.6336 740.1428 374.6336 739.2486 372.6217 737.2367 371.3922 735.0013 370.6098 733.3248 369.4921 732.7659 369.4921 732.207 370.8333 731.9835 371.7275 732.0953 372.3981 732.7659 373.4041 734.3307 375.0806 735.2249 376.1983 735.5602 377.6514 736.119 378.4338 737.2367 377.9867 738.4662 377.4278 739.0251 377.6514 738.9133 378.8809 738.578 380.2221 738.0191 381.5634 737.2367 382.4575 737.5721 382.7928 738.0191 383.4635 738.3545 383.687 739.9193 384.8047 740.4781 385.0283 740.7017 385.3636 741.484 387.1519 741.8194 387.599 741.8194 388.2696 740.9252 387.4872 739.0251 385.0283 738.3545 385.0283 738.3545 385.6989 738.6898 386.2578 739.0251 387.0402 738.3545 387.0402 737.9074 385.2518 736.4543 385.3636 734.7778 386.7048 733.8836 388.2696 735.7837 389.2756 737.2367 391.1757 739.5839 395.3112 739.2486 395.9818 739.0251 396.6525 738.9133 397.5466 739.0251 398.5526 740.3663 399.6703 744.0548 401.2351 745.2843 402.4646 745.5078 403.247 745.6196 405.3706 745.8431 406.2648 746.402 407.0472 747.855 408.612 748.4139 409.5062 748.9727 411.4063 749.5316 415.5418 750.0904 416.8831 752.8847 419.4538 756.1261 421.6892 759.591 423.3658 761.2675 424.5953 762.3853 426.1601 762.497 427.166 762.3853 430.7427 762.1617 430.9662 761.3793 431.6369 761.2675 431.9722 761.2675 432.531 761.7146 433.3134 761.8264 433.8723 761.8264 435.9959 762.1617 437.5607 763.0559 438.7902 764.6207 439.9079 766.0737 441.2492 767.6385 443.3728 768.1974 444.9376 766.9679 444.7141 766.9679 446.2789 767.5267 447.5084 769.2033 449.8556 769.9857 451.3086 770.9916 453.9911 771.774 455.3323 772.78 456.1147 774.0095 456.7854 775.0154 457.456 775.4625 458.4619 776.0213 461.4798 776.1331 462.9328 775.4625 463.9387 774.1212 464.0505 773.2271 463.1563 772.4447 462.821 771.5505 464.6094 771.327 465.8388 771.327 467.5154 771.4387 469.192 771.774 470.4215 771.774 472.7686 770.2092 478.469 770.8799 481.1515 772.1094 482.1574 774.7919 482.9398 776.1331 483.7222 776.9155 485.0635 777.8097 487.9695 780.4922 491.5462 781.7217 494.0052 784.516 502.2762 785.7454 504.7352 787.422 507.3059 788.5397 509.6531 790.5516 512.671 797.5932 528.8778 800.8345 533.6839 803.9641 541.6197 810.5586 550.7849 811.1175 552.0144 812.0117 554.5851 817.6002 562.968 820.618 566.3211 821.2887 567.2153 828.5538 581.6338 829.6715 585.9928 831.6834 589.9048 832.5776 594.5992 834.0306 597.17 837.6073 601.7526 838.1661 602.8703 838.9485 605.5528 839.5074 606.7823 841.9663 610.6943 842.9723 614.6063 846.7725 621.3125 853.9259 633.7191 854.2612 636.6252 855.1553 639.1959 856.4966 640.7607 858.1732 642.7726 858.3967 644.4492 858.5085 647.8023 858.732 649.5906 859.1791 650.9319 859.8497 651.9378 860.8557 652.832 862.1969 653.6144 864.3206 655.6263 865.7736 658.3088 867.6737 665.4622 868.1208 666.6916 869.5738 669.0388 871.1386 671.9449 872.3681 673.0626 872.3681 674.5156 871.0268 677.3099 871.0268 679.7689 874.4917 681.1101 878.6273 688.9341 889.8044 697.5405 891.5927 699.6641 894.7223 708.4941 896.9578 710.953 900.0873 715.5356 901.5404 715.3121 900.8697 714.0826 900.0873 712.8531 900.9815 712.6296 902.6581 714.4179 905.0053 715.4239 908.0231 718.5535 909.1408 721.1242 909.3644 723.8067 911.9351 725.2597 914.5058 724.8127 916.5177 725.3715 918.7531 726.0421 920.4297 726.9363 921.771 728.2776 923.4475 732.4131 925.0123 734.3132 924.4535 735.2074 923.1122 733.419 921.4356 731.6307 920.2062 731.5189 917.1883 732.9719 915.9589 733.5308 914.2823 732.8602 912.7175 732.3013 911.1527 731.966 910.035 732.0778 908.8055 731.8542 907.2407 731.2954 906.6818 730.513 905.7877 729.3953 904.8935 729.06 904.7817 728.6129 903.5523 728.054 901.7639 727.6069 900.9815 728.1658 899.8638 730.2894 899.305 732.9719 899.8638 737.331 899.0814 741.1312 898.5226 743.8138 899.1932 746.1609 900.758 746.4963 901.4286 747.614 901.4286 748.9552 901.0933 749.6259 901.2051 751.1906 901.3168 752.1966 901.4286 754.2085 901.0933 758.0087 900.9815 765.8327 900.758 767.2857 899.9756 769.8564 899.752 771.1977 900.0873 772.5389 900.8697 773.8802 902.6581 776.4509 904.1111 779.1334 904.5582 780.5865 904.8935 782.0395 904.7817 786.2868 905.4524 790.6459 906.2348 793.999 906.7936 797.0168 910.4821 803.3878 910.3703 803.4996 910.2585 803.6113 910.1468 803.6113 891.3692 820.7123 891.2574 820.9359 875.4977 835.6897 861.0792 830.9953 854.3729 828.9834 851.6904 835.4661 851.6904 835.5779 841.2957 859.944 841.0722 860.2793 836.8249 870.1152 832.9129 879.6157 827.7714 880.5099 813.4647 883.3042 813.2411 883.3042 812.5705 883.3042 799.8286 885.8749 793.0106 887.3279 788.3162 888.1103 787.1985 891.9106 785.969 895.7108 784.4042 900.964 782.5041 906.4408 782.5041 906.5526 782.5041 906.6644 782.1688 906.6644 763.9501 906.6644 744.6136 906.6644 725.2772 906.6644 707.6174 906.6644 706.6114 906.6644 705.829 906.6644 697.3344 906.6644 688.8398 906.6644 680.3452 906.6644 671.8506 906.6644 663.2442 906.6644 654.7496 906.6644 653.073 906.6644 646.255 906.6644 643.349 906.6644 643.349 906.4408 589.2517 906.329 585.2279 906.329 585.0044 906.329 567.4563 906.329ZM1017 902.6406L1017 903.6465 1017 904.7642 1016.4411 905.6584 1015.7705 906.5526 1015.7705 906.6644 1015.0999 906.6644 1015.3234 906.4408 1015.6587 906.2173 1015.9941 905.882 1016.3294 905.4349 1016.5529 904.9878 1016.8882 904.4289 1016.8882 903.6465 1016.8882 902.9759 1017 902.7524 1017 902.6406ZM1011.5232 897.6109L1011.5232 897.7227 1014.7646 899.6228 1016.7765 900.2934 1016.7765 900.7405 1016.1058 900.8523 1015.8823 900.7405 1015.4352 900.4052 1015.2117 900.0699 1014.7646 899.7345 1014.4293 899.511 1014.0939 899.511 1013.6469 899.6228 1013.4233 899.511 1012.7527 898.9521 1012.5292 899.1757 1012.3056 898.9521 1012.0821 898.5051 1011.7468 897.8344 1011.5232 897.6109ZM1003.2521 891.9106L1004.4816 891.7988 1004.7052 891.2399 1004.9287 890.6811 1005.1523 890.3458 1005.8229 890.5693 1007.2759 891.4635 1007.9465 892.1341 1008.3936 892.693 1009.6231 895.4872 1010.0702 896.1579 1009.8466 896.0461 1008.9525 895.7108 1008.6172 895.1519 1008.3936 894.8166 1008.3936 894.0342 1008.5054 894.0342 1008.3936 893.4754 1007.9465 892.8047 1007.0524 892.2459 1007.0524 892.0223 1006.4935 891.3517 1006.27 891.2399 1005.9347 891.4635 1005.8229 891.5752 1006.0464 891.5752 1006.1582 891.7988 1005.9347 891.9106 1005.5993 892.0223 1005.264 892.1341 1004.7052 892.0223 1004.4816 892.0223 1003.9228 892.2459 1003.4757 892.1341 1003.2521 891.9106ZM1002.2462 891.4635L1002.6933 891.687 1002.4697 891.687 1002.1344 891.687 1002.2462 891.4635ZM998.5578 888.1103L999.2284 888.781 999.0048 889.0045 998.7813 888.4457 998.5578 888.3339 998.446 888.3339 998.5578 888.1103ZM997.9989 887.6633L998.446 887.9986 998.2224 887.9986 997.9989 887.6633ZM996.0988 885.8749L997.6636 887.2162 996.4341 886.5455 996.2106 886.0985 996.0988 885.8749ZM984.4746 876.8215L985.9276 877.6039 985.7041 877.6039 984.9217 877.1568 984.4746 876.8215ZM983.3569 876.2626L984.0275 876.5979 983.9157 876.5979 983.5804 876.4861 983.3569 876.2626ZM980.5626 875.0331L981.6803 875.592 981.4568 875.592 981.0097 875.2567 980.5626 875.0331ZM978.886 874.2507L980.3391 874.9213 979.7802 874.9213 979.1096 874.3625 978.886 874.2507ZM978.2154 872.7977L978.7743 874.1389 978.5507 874.0272 978.2154 873.2448 978.2154 872.7977ZM975.8682 867.0974L975.6447 865.9796 976.0917 865.9796 977.8801 867.9915 977.433 870.5623 978.2154 872.7977 977.8801 872.0153 977.5448 871.3447 977.5448 870.8976 977.3212 870.3387 977.2095 870.1152 977.2095 869.7799 977.433 868.9975 977.6565 868.2151 977.5448 867.768 975.98 866.9856 975.8682 867.0974ZM974.0799 866.5385L974.6387 866.8738 975.5329 867.2091 975.3094 867.3209 975.1976 867.4327 974.974 867.0974 974.3034 866.6503 974.0799 866.5385ZM963.9087 851.8965L965.1382 853.0142 966.3677 855.1378 966.9265 859.3851 968.2678 862.0677 970.8385 864.3031 972.8504 865.8679 972.2915 865.6443 971.6209 865.1972 969.7208 863.7442 968.6031 862.7383 967.9325 861.8441 967.4854 861.2853 966.703 860.1675 966.703 859.4969 966.5912 858.491 966.3677 857.9321 966.3677 857.5968 966.5912 857.1497 966.2559 856.7026 966.1441 856.1438 966.2559 855.4732 966.0323 855.1378 965.5853 854.3554 965.2499 853.9084 965.2499 853.573 965.0264 853.3495 964.4675 853.2377 964.244 852.6789 963.9087 852.2318 963.9087 851.8965ZM961.785 849.7728L963.2381 851.2259 963.1263 851.2259 962.4557 850.7788 961.785 849.7728ZM958.5437 847.6492L958.6554 847.6492 959.8849 848.4316 959.7732 848.4316 959.6614 848.5433 959.4378 848.4316 959.2143 848.3198 958.9908 847.9845 958.5437 847.6492 958.3201 847.6492 958.5437 847.6492ZM940.1014 843.6254L940.8838 843.849 945.5782 844.1843 952.2845 845.5255 956.42 846.8668 956.42 846.9785 955.8612 847.0903 955.4141 846.9785 954.7435 846.5315 954.1846 846.3079 953.9611 846.4197 953.514 846.3079 952.9551 846.1961 952.6198 846.1961 952.1727 846.4197 951.5021 846.4197 950.8315 846.4197 950.1608 846.0844 950.0491 845.8608 949.4902 845.6373 948.596 845.5255 947.9254 845.302 947.5901 845.4138 947.0312 845.302 946.8077 845.0784 946.3606 844.7431 945.5782 844.8549 945.3547 845.0784 945.5782 845.0784 945.8018 845.302 945.8018 845.4138 945.5782 845.4138 945.3547 845.4138 945.2429 845.302 945.1311 844.9667 944.7958 844.7431 944.237 844.5196 943.231 844.296 942.8957 844.4078 942.4486 844.296 942.2251 844.5196 942.2251 844.6314 941.5545 844.5196 940.9956 844.4078 940.5485 844.296 940.325 843.849 940.1014 843.6254ZM938.0895 842.5077L938.5366 842.843 939.4308 843.4019 939.2073 843.5136 939.0955 843.7372 938.8719 843.849 938.3131 843.7372 938.2013 843.9607 937.9778 844.0725 937.7542 843.9607 937.7542 843.0666 937.866 843.0666 938.2013 842.843 938.0895 842.5077ZM934.8482 840.9429L935.7424 841.2782 937.1954 841.8371 937.5307 842.1724 938.0895 842.5077 937.5307 842.3959 937.3072 842.1724 937.0836 842.0606 936.8601 842.5077 936.8601 842.7312 936.9718 842.843 936.7483 843.6254 936.5248 843.7372 936.0777 843.9607 935.9659 843.849 935.8541 843.7372 935.8541 843.6254 935.9659 843.4019 936.3012 843.0666 936.413 842.7312 936.5248 842.2842 936.3012 841.9488 935.7424 841.6135 935.0717 841.5018 934.8482 841.39 934.8482 841.0547 934.8482 840.9429ZM926.4653 833.4542L927.0242 834.3484 928.0301 835.6897 928.8125 836.6956 928.2537 836.3603 926.8007 835.1308 926.3536 834.5719 926.4653 833.9013 926.4653 833.4542ZM923.7828 828.9834L924.1182 830.5482 924.3417 831.3306 925.1241 831.8894 924.5652 831.8894 924.3417 831.6659 923.8946 831.3306 923.6711 830.9953 923.3358 830.7717 923.3358 830.66 923.224 830.3246 922.6651 829.7658 922.4416 829.3187 922.6651 828.9834 923.1122 829.0952 923.5593 828.9834 923.7828 828.9834ZM919.9826 822.3889L920.8768 822.3889 921.8827 823.2831 922.6651 824.5125 923.224 826.0773 923.224 826.5244 922.8887 826.8597 922.7769 826.5244 922.5534 825.8538 922.5534 824.9596 922.3298 824.6243 922.1063 823.9537 921.6592 823.1713 920.8768 822.836 920.2062 822.6124 919.9826 822.3889ZM919.312 822.6124L919.2002 822.3889 919.8708 822.3889 919.7591 822.3889 919.5355 822.6124 919.312 822.6124ZM914.2823 815.3473L914.3941 816.6886 914.2823 816.5768 914.2823 816.465 914.1705 815.6826 914.2823 815.3473ZM911.7116 805.8468L911.8233 806.1821 913.4999 809.5352 914.1705 814.3414 913.947 814.0061 913.8352 813.3354 913.6117 812.3295 913.4999 811.1 913.3881 809.5352 913.0528 808.8646 912.6057 808.1939 912.1586 807.6351 911.8233 807.188 911.7116 806.5174 911.7116 805.8468ZM772.1094 468.4096L773.3388 468.4096 773.7859 468.4096 775.4625 471.9862 776.0213 473.8864 776.1331 476.01 774.9036 474.8923 774.3448 473.6628 772.1094 468.4096ZM776.3567 401.1233L778.145 401.9057 778.7039 403.4705 779.0392 405.1471 780.0451 406.2648 780.0451 406.8237 779.4862 406.8237 778.3685 406.6001 776.9155 404.8118 776.3567 404.2529 774.5683 403.6941 773.7859 403.247 773.0035 402.241 772.2211 401.6822 770.321 402.5763 769.5386 401.9057 768.9798 400.788 768.6444 399.7821 769.0915 399.2232 769.6504 398.7761 770.2092 398.6644 770.8799 398.5526 772.78 398.8879 773.4506 399.2232 774.233 399.7821 774.9036 400.3409 775.2389 400.6762 776.3567 401.1233Z" />
  <path class="Al Buhayrah" d="M470.3272 174.4514L415.6711 140.4729 411.7591 132.3136 416.677 120.2424 420.3655 116.3304 434.0015 109.8476 437.0194 107.724 439.7019 104.8179 441.7138 101.6883 443.9492 97.441 442.8315 93.7526 441.7138 91.4054 437.8018 86.711 432.5485 77.9928 431.8779 76.2045 431.6543 73.9691 432.8838 71.6219 434.3369 69.9453 435.3428 68.157 435.4546 67.7099 434.6722 65.0274 432.9956 64.1332 432.5485 63.1273 432.2132 62.6802 432.1014 62.3449 431.9897 62.0096 431.8779 61.2272 431.8779 60.7801 431.9897 60.4448 432.1014 60.333 432.5485 59.9977 437.3547 57.874 442.9432 54.5209 443.9492 53.7385 446.1846 50.4971 450.9908 41.1084 451.1025 40.4377 454.2321 41.4437 457.3617 41.779 456.5793 42.2261 455.6851 43.232 455.0145 43.6791 454.9028 44.238 455.0145 44.3497 455.3498 44.3497 455.5734 44.4615 454.5674 45.1321 454.9028 45.8028 455.7969 46.5851 456.6911 47.0322 460.156 45.0204 459.7089 46.1381 460.156 46.6969 460.9384 46.8087 461.2737 46.6969 461.609 46.1381 464.1798 43.6791 464.4033 44.1262 464.4033 44.238 464.7386 44.4615 464.8504 43.9026 465.0739 43.5673 465.1857 43.1202 465.2975 42.3378 465.8563 42.3378 465.7446 43.4556 465.9681 44.238 466.4152 44.685 466.974 45.0204 467.3094 44.3497 468.2035 41.779 466.8623 41.1084 465.7446 41.3319 464.5151 42.0025 462.9503 42.3378 462.9503 41.779 463.2856 41.6672 463.8444 41.779 464.1798 41.779 464.1798 41.1084 462.8385 41.5554 457.9206 41.779 457.9206 41.1084 460.9384 40.326 463.8444 38.6494 468.9859 34.0668 470.7743 31.049 471.892 27.137 472.2273 23.1132 471.5567 19.6483 472.1155 19.6483 472.5626 21.5484 473.2332 23.3367 474.4627 24.678 476.1393 25.0133 477.4805 25.2369 478.2629 26.3546 478.4865 28.2547 478.3747 30.7136 478.71 31.049 479.4924 31.2725 480.2748 31.7196 480.6101 32.7255 480.7219 33.6197 481.0572 34.2903 481.6161 34.7374 482.3985 35.0727 482.3985 34.7374 482.7338 34.0668 483.1809 33.6197 483.8515 34.0668 484.1868 34.4021 484.8574 34.8492 485.1927 35.0727 485.7516 35.6316 486.0869 36.1904 486.3105 36.9728 486.4222 37.9788 486.1987 39.9906 485.7516 41.8908 485.081 43.4556 484.075 44.4615 484.075 45.0204 484.4103 45.2439 484.5221 45.3557 484.5221 45.4674 484.7457 45.691 485.1927 45.691 485.1927 45.0204 485.7516 45.0204 486.1987 45.8028 486.6458 48.4853 486.6458 49.0441 488.0988 49.1559 488.0988 49.0441 488.5459 48.9323 488.7694 48.7088 489.1047 48.4853 489.7754 48.3735 490.446 48.7088 491.3402 50.0501 491.7872 50.2736 492.6814 50.6089 493.352 51.3913 497.1523 56.9799 501.176 59.2153 501.7349 60.1095 501.9584 60.5565 503.0761 62.1213 503.5232 63.0155 503.5232 64.0215 503.2997 65.4745 503.5232 66.2569 504.1938 66.9275 505.6469 68.2688 506.541 69.7218 505.5351 70.3924 505.6469 70.9513 507.6587 74.0809 507.9941 75.6457 507.3234 76.8751 506.2057 78.2164 505.9822 79.2223 507.7705 79.6694 508.6647 80.0047 509 80.8989 508.8882 82.0166 508.6647 83.0226 508.3294 83.5814 506.3175 84.9227 508.8882 84.3638 510.1177 84.3638 510.9001 84.9227 510.7883 85.8168 509.6706 86.3757 507.547 86.9345 507.0999 87.4934 506.2057 88.6111 505.6469 89.9524 505.7586 90.9583 506.8763 91.4054 507.9941 91.0701 508.8882 91.0701 509.2235 92.6349 508.7765 92.9702 507.9941 94.3114 507.4352 95.6527 507.7705 96.3233 508.5529 96.6586 509 97.7763 509.2235 99.1176 509.3353 103.2531 509.8942 105.6003 510.9001 107.2769 512.6884 108.1711 512.6884 108.8417 511.6825 109.2888 511.3472 109.9594 511.2354 110.7418 511.459 111.5242 511.9061 111.9713 512.4649 111.9713 513.1355 111.8595 513.8062 112.0831 513.6944 113.5361 513.2473 114.7656 512.6884 115.8833 512.1296 116.7774 513.2473 119.0129 513.5826 120.0188 513.8062 121.1365 513.5826 122.0307 513.2473 123.3719 513.0238 124.7132 513.2473 126.0545 515.5945 127.731 516.1534 128.8487 512.2414 129.9664 511.6825 131.1959 512.2414 132.649 473.6803 167.5216 470.3272 174.4514Z" />
  <path class="Al Fayyum" d="M427.5188 251.9088L466.4152 214.1301 472.4508 209.2122 487.5399 200.1587 504.9762 192.1112 522.5243 189.9876 526.3245 193.0054 528.6717 195.3526 534.5956 222.1777 531.3542 225.5308 528.1129 231.9018 524.648 235.702 523.1949 238.608 520.5124 242.6318 514.9239 248.891 507.8823 252.4677 473.2332 262.3035 469.3212 262.6388 463.7327 258.6151 427.5188 251.9088Z" />
  <path class="Al Gharbiyah" d="M546.8904 57.427L546.3316 57.3152 546.108 57.0916 545.8845 56.9799 545.7727 57.2034 545.2139 61.786 544.4315 64.3568 544.3197 65.1392 544.7668 65.698 545.2139 65.9216 545.7727 66.0333 546.5551 66.3686 546.7787 66.4804 547.6728 66.1451 548.3435 65.698 549.2376 65.4745 550.02 65.3627 550.8024 64.9156 551.2495 65.0274 551.5848 65.2509 551.473 65.8098 551.5848 66.4804 551.026 69.2747 550.9142 69.7218 549.9083 70.2806 549.0141 70.3924 548.1199 70.7277 547.4493 71.6219 547.2257 72.8514 547.5611 73.6338 547.8964 74.4162 548.0081 75.6457 547.4493 76.4281 546.5551 77.2105 546.3316 77.8811 547.4493 78.9988 547.0022 79.1106 546.6669 79.3341 546.3316 79.5576 545.6609 79.6694 546.2198 80.0047 546.7787 80.4518 547.2257 80.8989 547.4493 81.346 547.3375 82.3519 547.2257 82.5755 546.7787 82.6872 546.2198 83.0226 544.4315 83.5814 543.9844 83.9167 544.2079 84.6991 544.5432 85.3697 545.3256 86.1521 545.6609 90.2877 546.2198 92.6349 546.4433 92.9702 546.8904 92.9702 547.2257 93.1937 547.4493 93.9761 547.6728 96.5469 548.6788 101.0177 548.567 103.5884 547.2257 108.0593 547.114 110.2947 545.3256 109.0652 544.655 107.9475 542.8667 106.3827 542.196 105.8239 541.8607 105.1532 541.6372 104.4826 541.0783 103.9238 540.5195 103.4767 539.29 102.9178 538.284 102.4707 535.378 102.1354 534.1485 102.359 533.7014 102.4707 533.4779 102.1354 533.2543 101.5766 531.466 98.6705 531.2425 98.3352 530.9072 98.3352 529.5659 99.0058 529.1188 99.1176 528.56 99.2294 528.1129 99.1176 527.3305 99.0058 525.8774 99.2294 525.4304 99.1176 524.648 98.1117 523.9773 97.9999 523.3067 97.6646 521.9655 96.0998 521.0713 95.6527 520.1771 95.6527 519.1712 95.7645 518.277 96.0998 517.2711 96.5469 516.4887 96.9939 512.2414 97.5528 511.3472 97.7763 510.2295 98.447 509.2235 99.1176 509 97.7763 508.5529 96.6586 507.7705 96.3233 507.4352 95.6527 507.9941 94.3114 508.7765 92.9702 509.2235 92.6349 508.8882 91.0701 507.9941 91.0701 506.8763 91.4054 505.7586 90.9583 505.6469 89.9524 506.2057 88.6111 507.0999 87.4934 507.547 86.9345 509.6706 86.3757 510.7883 85.8168 510.9001 84.9227 510.1177 84.3638 508.8882 84.3638 506.3175 84.9227 508.3294 83.5814 508.6647 83.0226 508.8882 82.0166 509 80.8989 508.6647 80.0047 507.7705 79.6694 505.9822 79.2223 506.2057 78.2164 507.3234 76.8751 507.9941 75.6457 507.6587 74.0809 505.6469 70.9513 505.5351 70.3924 506.541 69.7218 507.2117 67.8217 507.8823 67.7099 508.4411 67.9334 508.6647 68.0452 513.5826 69.8336 514.5886 69.61 516.0416 69.0512 517.2711 68.9394 518.5006 69.0512 519.1712 68.8276 519.3947 68.6041 519.2829 68.2688 519.3947 68.157 519.6183 67.9334 520.6242 67.3746 521.4066 66.9275 522.189 66.704 528.1129 66.2569 529.4541 65.698 530.2365 64.8039 530.6836 62.9037 531.0189 62.1213 531.3542 61.3389 531.3542 60.7801 531.2425 59.1035 531.2425 58.0976 531.3542 57.2034 532.0249 56.421 536.4957 56.6446 538.3958 57.427 539.29 57.427 541.0783 55.7504 541.9725 55.3033 542.9784 55.1915 543.8726 55.3033 544.655 55.5268 545.1021 55.8622 546.8904 57.427Z" />
  <path class="Al Iskandariyah" d="M411.7591 132.3136L409.5237 67.2628 409.9707 66.9275 410.5296 66.0333 411.2002 65.3627 423.495 56.3092 424.7245 53.7385 427.0717 54.2974 429.5307 53.1796 433.3309 49.7147 432.5485 48.597 432.325 48.7088 431.5426 49.0441 432.1014 48.0382 432.6603 47.3675 433.3309 47.3675 433.8898 48.3735 434.4486 48.3735 435.4546 47.3675 439.2548 43.7909 440.4843 43.1202 441.602 42.5614 443.1668 40.2142 443.8374 39.6553 445.0669 39.4318 445.7375 38.9847 446.2964 38.3141 447.0788 37.7552 446.7435 37.6435 446.5199 37.6435 446.4081 37.4199 446.5199 36.9728 448.7553 35.7433 448.5318 38.5376 450.879 40.4377 451.1025 40.4377 450.9908 41.1084 446.1846 50.4971 443.9492 53.7385 442.9432 54.5209 437.3547 57.874 432.5485 59.9977 432.1014 60.333 431.9897 60.4448 431.8779 60.7801 431.8779 61.2272 431.9897 62.0096 432.1014 62.3449 432.2132 62.6802 432.5485 63.1273 432.9956 64.1332 434.6722 65.0274 435.4546 67.7099 435.3428 68.157 434.3369 69.9453 432.8838 71.6219 431.6543 73.9691 431.8779 76.2045 432.5485 77.9928 437.8018 86.711 441.7138 91.4054 442.8315 93.7526 443.9492 97.441 441.7138 101.6883 439.7019 104.8179 437.0194 107.724 434.0015 109.8476 420.3655 116.3304 416.677 120.2424 411.7591 132.3136Z" />
  <path class="Al Isma`iliyah" d="M659.444 70.7277L662.9089 104.2591 663.0207 112.8655 663.356 114.8773 663.5795 116.2186 663.8031 116.5539 671.4035 128.8487 675.8744 140.2494 660.0029 139.1317 657.4321 139.3552 654.7496 140.2494 654.079 140.5847 650.8376 143.7143 650.3905 143.9378 648.0433 145.0556 647.5963 145.1673 646.5903 145.1673 642.2312 144.4967 640.7782 144.0496 639.5487 143.4908 637.2015 141.926 629.9364 141.3671 599.9817 142.373 596.2933 132.0901 593.8343 122.0307 593.499 118.5658 592.7166 116.1068 591.9342 114.9891 591.04 114.3185 590.0341 113.089 589.6988 112.0831 589.6988 111.0771 589.9223 110.7418 590.1459 110.5183 590.4812 110.63 591.04 110.7418 591.1518 110.7418 591.4871 110.7418 595.2873 111.8595 595.5109 111.9713 599.1993 111.9713 601.4348 111.636 602.6642 111.1889 604.7879 110.8536 607.2469 110.8536 609.4823 109.4006 612.053 106.718 617.5298 99.4529 619.3182 95.6527 620.2123 93.1937 619.0946 88.0523 619.2064 84.3638 620.2123 81.9048 620.7712 80.2283 621.8889 78.2164 623.1184 74.6397 625.5773 71.5101 626.0244 69.9453 626.1362 68.7158 626.1362 67.5981 625.3538 64.6921 623.9008 63.5744 622.6713 62.792 621.33 60.8919 621.2183 60.333 621.5536 60.4448 621.2183 59.6624 628.3716 58.88 631.3894 58.0976 633.5131 57.0916 635.3014 56.6446 659.444 70.7277Z" />
  <path class="Al Jizah" d="M598.5287 263.3095L567.9034 254.0325 566.2268 253.2501 563.7679 251.797 562.2031 250.5675 558.8499 247.1026 557.9558 245.7614 557.5087 245.0908 556.391 242.4083 555.8321 241.6259 555.2733 240.9552 553.4849 239.3904 547.4493 231.9018 547.6728 230.784 547.6728 230.0017 547.6728 228.9957 547.4493 227.9898 547.0022 227.0956 546.2198 225.6426 545.6609 224.9719 544.9903 224.3013 544.2079 223.8542 542.9784 223.1836 540.5195 222.4012 538.3958 222.0659 534.5956 222.1777 528.6717 195.3526 526.3245 193.0054 522.5243 189.9876 504.9762 192.1112 487.5399 200.1587 472.4508 209.2122 466.4152 214.1301 427.5188 251.9088 424.1657 275.9396 422.042 283.2047 408.6295 318.748 398.0112 332.7194 385.3811 342.1081 346.9318 362.4505 341.0079 366.9213 336.8724 373.2923 330.8367 386.2578 220.295 386.2578 256.2854 309.3592 258.6326 305.8943 262.5446 301.5352 268.692 298.9645 334.7487 281.7517 351.5144 269.0098 405.4999 214.2419 470.3272 174.4514 473.6803 167.5216 512.2414 132.649 513.8062 133.3196 516.3769 131.4195 518.6123 131.9783 519.2829 132.4254 519.3947 133.2078 519.3947 134.3255 519.5065 135.3315 520.0653 136.6727 520.2889 136.6727 521.0713 137.008 522.0772 137.3433 522.9714 137.7904 523.0832 138.014 523.642 138.4611 523.8656 139.467 523.9773 141.5906 524.4244 143.0437 525.4304 144.0496 526.8834 144.4967 528.56 144.6085 529.2306 144.2732 530.4601 143.379 531.1307 143.1554 531.8013 143.379 532.919 144.3849 533.925 144.832 535.9369 146.5086 536.9428 147.0674 538.284 147.8498 540.0724 149.7499 541.0783 150.3088 544.3197 150.6441 545.2139 151.203 545.6609 151.8736 545.8845 152.7678 545.8845 153.6619 544.5432 163.9449 544.9903 165.7332 545.8845 167.1862 548.0081 169.6452 549.1259 172.1042 550.2436 175.7926 550.8024 179.8164 550.9142 183.3931 550.3553 185.405 549.7965 186.5227 550.4671 187.7521 603.4466 185.5167 603.782 189.9876 598.5287 263.3095Z" />
  <path class="Al Minufiyah" d="M512.2414 132.649L511.6825 131.1959 512.2414 129.9664 516.1534 128.8487 515.5945 127.731 513.2473 126.0545 513.0238 124.7132 513.2473 123.3719 513.5826 122.0307 513.8062 121.1365 513.5826 120.0188 513.2473 119.0129 512.1296 116.7774 512.6884 115.8833 513.2473 114.7656 513.6944 113.5361 513.8062 112.0831 513.1355 111.8595 512.4649 111.9713 511.9061 111.9713 511.459 111.5242 511.2354 110.7418 511.3472 109.9594 511.6825 109.2888 512.6884 108.8417 512.6884 108.1711 510.9001 107.2769 509.8942 105.6003 509.3353 103.2531 509.2235 99.1176 510.2295 98.447 511.3472 97.7763 512.2414 97.5528 516.4887 96.9939 517.2711 96.5469 518.277 96.0998 519.1712 95.7645 520.1771 95.6527 521.0713 95.6527 521.9655 96.0998 523.3067 97.6646 523.9773 97.9999 524.648 98.1117 525.4304 99.1176 525.8774 99.2294 527.3305 99.0058 528.1129 99.1176 528.56 99.2294 529.1188 99.1176 529.5659 99.0058 530.9072 98.3352 531.2425 98.3352 531.466 98.6705 533.2543 101.5766 533.4779 102.1354 533.7014 102.4707 534.1485 102.359 535.378 102.1354 538.284 102.4707 539.29 102.9178 540.5195 103.4767 541.0783 103.9238 541.6372 104.4826 541.8607 105.1532 542.196 105.8239 542.8667 106.3827 544.655 107.9475 545.3256 109.0652 547.114 110.2947 548.0081 111.5242 546.8904 111.9713 546.108 111.5242 545.6609 110.9653 545.1021 110.8536 544.655 111.5242 544.5432 112.5301 544.655 113.5361 545.1021 114.2067 545.1021 114.7656 542.8667 116.7774 541.5254 117.3363 541.4136 117.4481 541.0783 117.6716 541.0783 118.3422 541.1901 119.0129 541.0783 119.46 540.4077 120.0188 539.0664 120.2424 538.284 120.8012 537.5017 121.6954 537.3899 122.5895 537.3899 123.4837 537.1663 124.7132 536.6075 125.9427 536.3839 125.8309 536.0486 125.1603 535.378 124.7132 534.7074 124.7132 534.5956 124.6014 534.8191 124.9367 534.8191 126.0545 534.9309 126.7251 535.1545 127.2839 535.0427 127.9546 534.2603 128.6252 533.3661 129.0723 532.6955 129.0723 530.7954 128.6252 531.6895 129.9664 533.925 131.643 534.8191 132.7607 534.8191 133.6549 534.5956 138.014 535.1545 138.6846 535.378 140.1376 535.378 142.9319 535.8251 144.0496 537.3899 146.1733 538.284 147.8498 536.9428 147.0674 535.9369 146.5086 533.925 144.832 532.919 144.3849 531.8013 143.379 531.1307 143.1554 530.4601 143.379 529.2306 144.2732 528.56 144.6085 526.8834 144.4967 525.4304 144.0496 524.4244 143.0437 523.9773 141.5906 523.8656 139.467 523.642 138.4611 523.0832 138.014 522.9714 137.7904 522.0772 137.3433 521.0713 137.008 520.2889 136.6727 520.0653 136.6727 519.5065 135.3315 519.3947 134.3255 519.3947 133.2078 519.2829 132.4254 518.6123 131.9783 516.3769 131.4195 513.8062 133.3196 512.2414 132.649Z" />
  <path class="Al Minya" d="M521.5184 287.3403L518.8359 310.4769 518.3888 312.4888 517.9417 313.4947 513.9179 320.5363 511.459 326.7955 511.0119 328.9191 510.7883 330.5957 510.9001 331.6017 511.7943 335.9607 512.1296 339.9845 512.3531 341.1022 512.6884 342.2199 517.1593 351.0498 518.5006 354.7383 518.9476 357.309 519.6183 366.2507 520.0653 368.3744 521.9655 373.4041 522.4125 375.1924 522.7479 378.0985 522.8596 380.3339 522.7479 381.7869 521.2948 390.7286 512.3531 391.8463 511.459 391.7345 506.6528 389.7227 506.0939 389.7227 505.3116 389.8344 502.629 390.3933 501.0642 390.3933 498.8288 389.4991 499.1641 388.2696 500.1701 386.2578 330.8367 386.2578 336.8724 373.2923 341.0079 366.9213 346.9318 362.4505 385.3811 342.1081 398.0112 332.7194 408.6295 318.748 422.042 283.2047 506.8763 281.1928 508.4411 282.7576 521.5184 287.3403Z" />
  <path class="Al Qahirah" d="M599.9817 142.373L600.0935 147.8498 602.3289 157.2386 604.1173 177.0221 603.4466 185.5167 550.4671 187.7521 549.7965 186.5227 550.3553 185.405 550.9142 183.3931 550.8024 179.8164 550.2436 175.7926 549.1259 172.1042 548.0081 169.6452 545.8845 167.1862 544.9903 165.7332 544.5432 163.9449 545.8845 153.6619 551.5848 151.5383 551.9201 151.3147 552.1437 151.203 552.3672 150.8677 552.479 150.6441 552.7025 150.197 552.8143 149.4146 552.9261 149.0793 553.0378 148.9675 553.2614 148.8558 553.5967 148.9675 554.1556 149.1911 554.4909 149.4146 554.8262 149.5264 555.385 149.4146 556.391 148.9675 556.8381 148.6322 558.7382 147.7381 562.7619 146.9557 575.6156 146.3968 596.2933 132.0901 599.9817 142.373Z" />
  <path class="Al Qalyubiyah" d="M547.2257 108.0593L549.6847 108.9535 550.8024 109.7359 551.9201 109.7359 553.0378 109.4006 553.7085 108.9535 555.4968 109.4006 553.7085 111.0771 551.5848 112.6419 550.5789 113.8714 550.1318 114.8773 550.02 116.5539 549.0141 120.0188 548.7905 122.7013 549.4612 123.3719 550.8024 124.4897 551.6966 126.278 552.2554 127.1722 553.0378 127.8428 553.932 128.8487 554.7144 130.19 555.2733 132.5372 556.0557 134.102 556.7263 136.0021 557.3969 136.8963 558.2911 137.7904 575.6156 146.3968 562.7619 146.9557 558.7382 147.7381 556.8381 148.6322 556.391 148.9675 555.385 149.4146 554.8262 149.5264 554.4909 149.4146 554.1556 149.1911 553.5967 148.9675 553.2614 148.8558 553.0378 148.9675 552.9261 149.0793 552.8143 149.4146 552.7025 150.197 552.479 150.6441 552.3672 150.8677 552.1437 151.203 551.9201 151.3147 551.5848 151.5383 545.8845 153.6619 545.8845 152.7678 545.6609 151.8736 545.2139 151.203 544.3197 150.6441 541.0783 150.3088 540.0724 149.7499 538.284 147.8498 537.3899 146.1733 535.8251 144.0496 535.378 142.9319 535.378 140.1376 535.1545 138.6846 534.5956 138.014 534.8191 133.6549 534.8191 132.7607 533.925 131.643 531.6895 129.9664 530.7954 128.6252 532.6955 129.0723 533.3661 129.0723 534.2603 128.6252 535.0427 127.9546 535.1545 127.2839 534.9309 126.7251 534.8191 126.0545 534.8191 124.9367 534.5956 124.6014 534.7074 124.7132 535.378 124.7132 536.0486 125.1603 536.3839 125.8309 536.6075 125.9427 537.1663 124.7132 537.3899 123.4837 537.3899 122.5895 537.5017 121.6954 538.284 120.8012 539.0664 120.2424 540.4077 120.0188 541.0783 119.46 541.1901 119.0129 541.0783 118.3422 541.0783 117.6716 541.4136 117.4481 541.5254 117.3363 542.8667 116.7774 545.1021 114.7656 545.1021 114.2067 544.655 113.5361 544.5432 112.5301 544.655 111.5242 545.1021 110.8536 545.6609 110.9653 546.108 111.5242 546.8904 111.9713 548.0081 111.5242 547.114 110.2947 547.2257 108.0593Z" />
  <path class="Al Wadi at Jadid" d="M25.3661 386.3695L26.9309 386.3695 220.295 386.2578 330.8367 386.2578 500.1701 386.2578 499.1641 388.2696 498.8288 389.4991 498.4935 393.0758 498.7171 395.6465 499.6112 398.6644 507.3234 415.2065 508.7765 417.3301 510.1177 418.8949 521.0713 429.2897 525.2068 431.7486 532.8073 434.8782 534.1485 435.7724 535.7133 437.1136 539.6253 441.3609 540.6312 442.814 551.1377 464.0505 562.6502 478.3572 570.5859 485.1752 605.4585 528.8778 618.6475 541.2844 619.4299 541.955 620.8829 542.8492 622.8948 543.7433 624.1243 544.1904 625.6891 544.5257 628.0363 544.6375 632.0601 543.9669 639.437 541.8432 658.6616 532.7898 660.897 532.2309 664.6972 531.7838 666.1503 531.7838 667.268 532.0074 668.1622 532.4545 669.0563 533.0133 669.8387 533.7957 670.6211 534.6899 671.18 535.6958 671.5153 536.7018 671.8506 538.6019 671.8506 540.502 671.6271 541.7315 671.2917 542.6256 670.5094 544.5257 667.0444 550.5614 666.5974 551.5673 666.262 552.685 665.5914 557.0441 665.0326 559.1678 664.6972 560.0619 664.1384 560.9561 663.5795 561.962 662.0147 563.7504 650.5023 572.8039 648.0433 575.3746 646.8139 577.1629 646.4785 578.0571 646.255 579.063 646.1432 580.9631 646.255 582.4162 649.1611 593.5933 651.2847 606.7823 652.626 610.1354 653.4084 611.4767 654.1908 612.7062 655.8673 614.6063 663.8031 620.6419 670.5094 624.5539 673.4154 626.7893 675.2037 628.913 676.6568 631.0366 677.6627 632.9367 678.8922 636.4017 679.7864 645.7904 680.1217 647.1317 680.6805 648.6965 684.1454 656.1851 685.822 660.9913 686.4926 664.4562 686.4926 664.9033 686.8279 666.2446 685.9338 669.7095 682.916 677.0864 682.4689 680.7748 682.5806 680.9983 682.5806 682.2278 682.2453 684.2397 682.1336 689.1576 682.8042 695.5286 682.8042 696.6463 682.2453 701.2289 682.1336 703.3526 682.0218 704.3585 681.7982 707.2646 682.0218 708.4941 683.1395 712.2943 683.1395 713.9708 682.2453 717.2122 682.1336 718.1064 681.3512 718.8888 681.0158 719.5594 680.3452 720.5653 679.451 721.4595 678.5569 722.0184 677.5509 722.4655 676.545 722.8008 674.5331 723.1361 669.1681 722.9125 667.1562 723.2479 666.1503 723.5832 665.2561 724.0303 664.5855 724.7009 664.1384 725.2597 663.9149 725.595 663.356 726.7128 662.7971 729.507 662.5736 732.1895 662.6854 733.6426 663.1325 734.9838 663.9149 735.878 664.809 736.6604 668.4975 738.784 670.3976 739.79 671.4035 740.3488 672.1859 741.3548 672.8565 743.0314 672.8565 744.1491 672.2977 745.155 671.4035 745.8256 670.3976 746.1609 660.1146 747.614 657.991 748.1728 657.0968 748.5081 656.0909 749.067 655.0849 749.7376 653.2966 751.526 651.7318 753.3143 649.7199 756.2204 649.2728 757.2263 648.1551 761.1383 647.0374 768.0681 646.3668 770.4153 645.6961 772.0919 645.2491 773.3213 644.802 775.5568 645.1373 776.898 645.8079 777.904 646.7021 778.4628 647.708 778.7981 651.0612 779.4688 659.3322 779.8041 670.6211 778.1275 671.6271 778.2393 672.4095 778.6864 672.9683 780.3629 673.0801 781.816 672.7448 783.4925 672.2977 784.722 671.5153 785.9515 664.2502 793.7755 662.1265 796.6815 658.1028 805.735 655.532 813.8943 654.8614 815.5708 654.5261 816.1297 653.7437 817.1356 652.9613 818.8122 652.0671 821.2712 651.0612 826.4127 650.2788 828.8716 649.3846 830.5482 648.714 831.4424 648.1551 832.3365 646.4785 835.8014 645.6961 836.6956 644.6902 837.1427 643.9078 836.8074 643.2372 836.1367 642.1195 834.3484 641.4488 833.566 640.5547 833.0072 639.5487 832.7836 638.6546 832.8954 636.3074 833.2307 635.1897 833.2307 634.0719 833.0072 633.066 832.5601 629.2658 829.4305 627.4774 828.201 626.4715 827.8657 625.4656 827.7539 624.3479 827.8657 622.0007 828.6481 595.5109 841.2782 594.6167 841.39 593.7226 841.2782 586.5692 839.3781 584.6691 839.2663 583.6631 839.3781 582.6572 839.7134 581.4277 840.0487 580.4218 840.6076 579.1923 841.6135 577.9628 842.843 576.5098 845.1902 575.8392 846.6432 575.5039 847.9845 575.5039 848.8787 575.8392 850.8905 577.2922 856.1438 577.7393 861.0617 577.7393 861.7323 577.0686 864.5266 576.5098 865.9796 575.8392 867.4327 570.0271 874.9213 567.121 877.1568 565.7798 877.9392 563.7679 878.9451 561.6442 879.6157 559.7441 879.951 555.4968 880.1746 553.3732 880.5099 551.3613 881.0688 549.2376 882.0747 548.1199 882.9689 547.0022 884.0866 545.7727 885.9867 545.2139 887.3279 544.8785 888.5574 545.1021 889.5634 545.5492 890.5693 546.2198 891.3517 547.114 892.2459 550.8024 894.9284 551.5848 895.8226 552.1437 896.8285 552.2554 897.052 552.3672 897.052 552.0319 897.7227 547.8964 906.1055 547.5611 906.329 546.7787 906.7761 543.6491 906.7761 535.6015 906.7761 527.4422 906.7761 519.3947 906.7761 511.2354 906.7761 503.1879 906.7761 495.0286 906.7761 486.9811 906.7761 478.8218 906.7761 470.7743 906.7761 462.615 906.7761 454.5674 906.7761 446.4081 906.7761 438.3606 906.7761 430.3131 906.7761 422.1538 906.7761 414.1063 906.7761 405.947 906.7761 397.8994 906.7761 389.7402 906.7761 381.6926 906.7761 373.5333 906.7761 365.4858 906.7761 357.3265 906.7761 349.279 906.7761 341.2315 906.7761 333.0722 906.7761 325.0246 906.7761 316.8653 906.7761 308.8178 906.7761 300.6585 906.7761 292.611 906.7761 284.4517 906.7761 276.4042 906.7761 268.2449 906.7761 260.1974 906.7761 252.0381 906.7761 243.9905 906.7761 235.943 906.7761 227.7837 906.7761 219.7362 906.7761 211.5769 906.7761 203.5294 906.7761 195.3701 906.7761 187.3226 906.7761 179.1633 906.7761 171.1157 906.7761 162.9564 906.7761 154.9089 906.7761 146.7496 906.7761 138.7021 906.7761 130.6546 906.6644 122.4953 906.6644 114.4477 906.6644 106.2884 906.6644 98.2409 906.6644 90.0816 906.6644 82.0341 906.6644 73.8748 906.6644 65.8273 906.6644 57.7798 906.6644 49.6205 906.6644 41.4612 906.6644 33.4136 906.6644 26.8191 906.6644 25.3661 906.6644 25.3661 880.5099 25.3661 854.2437 25.3661 827.8657 25.3661 801.4877 25.3661 775.1097 25.3661 748.5081 25.3661 722.0184 25.3661 695.4168 25.3661 668.7035 25.3661 641.9902 25.3661 615.1651 25.3661 588.2283 25.3661 561.4032 25.3661 534.3546 25.3661 507.3059 25.3661 480.1455 25.3661 461.9268 25.3661 444.267 25.3661 435.9959 25.3661 404.3647 25.3661 390.058 25.3661 386.3695Z" />
  <path class="As Suways" d="M675.8744 140.2494L677.4392 149.1911 678.4451 168.751 679.1157 170.8747 679.8981 172.1042 680.457 172.9983 663.5795 184.8461 663.356 184.399 661.4559 182.4989 659.6675 181.6047 660.1146 180.7106 661.0088 179.8164 661.4559 179.4811 661.4559 176.7986 660.3382 174.8985 656.985 171.5453 657.6557 171.0982 657.991 170.6512 657.8792 170.2041 657.4321 169.6452 657.8792 169.4217 658.1028 169.3099 657.8792 169.0864 657.4321 168.9746 657.0968 168.4157 656.7615 167.8569 656.3144 167.4098 656.0909 166.9627 656.2026 166.7392 656.4262 166.5156 656.7615 166.4039 657.4321 166.2921 657.4321 165.7332 657.2086 165.0626 657.2086 164.5037 657.4321 163.6096 656.985 163.6096 655.8673 165.9568 655.7556 166.9627 655.9791 167.7451 656.4262 168.304 656.8733 168.9746 656.985 170.2041 656.3144 170.2041 656.0909 168.9746 655.4202 168.4157 654.5261 168.304 653.5201 168.9746 652.0671 168.4157 650.5023 169.4217 649.0493 171.21 648.2669 172.8866 648.2669 174.6749 648.714 176.0162 649.9435 177.0221 651.7318 177.4692 650.2788 178.6987 643.349 188.5345 642.9019 189.3169 642.1195 190.2111 639.6605 194.682 639.2134 196.2468 639.1017 200.1587 638.6546 201.7235 637.4251 203.0648 637.4251 203.8472 638.3193 204.5178 639.3252 205.8591 640.1076 207.2003 640.7782 209.2122 641.6724 210.2182 645.9197 213.0124 646.9256 213.9066 650.7259 218.3774 653.4084 219.9422 655.7556 222.4012 657.7674 225.1955 658.5498 226.9838 658.8851 229.331 659.7793 232.5724 660.897 235.4784 662.0147 237.155 662.0147 237.8256 661.6794 239.5022 664.0266 248.891 655.9791 248.891 654.4143 249.1145 650.9494 250.2322 648.6022 251.6853 623.2301 262.8624 621.4418 263.4212 620.2123 263.6448 613.3943 263.3095 601.9936 264.986 598.5287 263.3095 603.782 189.9876 603.4466 185.5167 604.1173 177.0221 602.3289 157.2386 600.0935 147.8498 599.9817 142.373 629.9364 141.3671 637.2015 141.926 639.5487 143.4908 640.7782 144.0496 642.2312 144.4967 646.5903 145.1673 647.5963 145.1673 648.0433 145.0556 650.3905 143.9378 650.8376 143.7143 654.079 140.5847 654.7496 140.2494 657.4321 139.3552 660.0029 139.1317 675.8744 140.2494Z" />
  <path class="Ash Sharqiyah" d="M633.2895 51.6149L633.4013 51.7266 633.5131 57.0916 631.3894 58.0976 628.3716 58.88 621.2183 59.6624 620.8829 59.1035 622.2242 58.9917 622.6713 59.1035 622.6713 58.3211 622.2242 58.3211 622.2242 58.2094 622.2242 58.0976 622.1124 57.7623 622.2242 57.6505 623.2301 57.0916 623.2301 57.6505 623.4537 57.7623 623.9008 57.6505 624.3479 57.7623 624.0125 56.7563 624.6832 55.9739 625.5773 55.9739 626.4715 57.5387 627.5892 57.9858 628.8187 57.9858 630.0482 57.7623 632.0601 56.6446 632.9542 54.8562 632.7307 53.0679 631.1659 51.6149 633.1778 51.6149 633.2895 51.6149ZM555.4968 109.4006L557.5087 107.2769 557.844 105.265 557.7322 103.3649 557.5087 102.4707 557.0616 100.7942 556.6145 97.9999 555.9439 94.6468 555.9439 92.7466 556.1674 91.4054 556.7263 90.2877 557.3969 89.5053 558.1793 88.8347 559.5206 88.2758 561.1971 87.9405 565.2209 87.8287 566.0033 88.0523 566.7857 88.0523 568.127 87.8287 568.9094 87.6052 571.7036 87.9405 572.7096 87.8287 574.0508 87.0463 574.945 85.9286 577.404 83.6932 577.9628 82.9108 578.0746 82.0166 577.7393 80.4518 577.7393 79.3341 578.4099 78.6635 579.1923 78.3282 580.0865 78.1046 580.6453 77.7693 581.763 76.9869 582.3219 76.0927 582.769 74.8633 583.5514 73.2985 587.9105 68.0452 590.9283 62.3449 591.3754 61.786 591.4871 61.6743 591.9342 61.6743 592.3813 61.6743 592.9402 61.786 593.2755 61.786 593.499 61.786 593.8343 61.6743 594.1696 61.6743 594.8403 61.5625 595.0638 61.5625 595.7344 61.1154 596.0697 61.1154 596.2933 61.1154 596.5168 61.1154 597.0757 61.4507 597.5228 61.5625 597.6345 61.5625 597.8581 61.5625 598.1934 61.4507 598.864 61.1154 598.9758 61.1154 600.2053 61.0036 604.1173 60.1095 605.0114 59.9977 605.235 59.8859 605.4585 59.8859 608.0293 57.7623 608.2528 57.6505 608.6999 57.6505 610.1529 57.7623 610.3765 57.6505 611.1589 57.3152 613.7296 55.6386 613.9531 56.1975 614.4002 56.7563 615.1826 57.0916 615.1826 57.7623 614.4002 57.9858 613.7296 58.3211 613.2825 58.88 613.059 59.7741 613.5061 59.8859 614.0649 60.4448 614.9591 59.8859 615.6297 59.7741 616.3003 59.9977 616.8592 60.4448 616.8592 61.0036 616.3003 61.0036 616.3003 61.786 617.1945 62.4567 618.2004 63.0155 619.3182 63.0155 620.3241 62.3449 620.3241 61.786 619.0946 61.6743 618.3122 61.1154 617.7534 60.1095 617.5298 59.1035 618.7593 59.3271 620.4359 60.2212 621.2183 60.333 621.33 60.8919 622.6713 62.792 623.9008 63.5744 625.3538 64.6921 626.1362 67.5981 626.1362 68.7158 626.0244 69.9453 625.5773 71.5101 623.1184 74.6397 621.8889 78.2164 620.7712 80.2283 620.2123 81.9048 619.2064 84.3638 619.0946 88.0523 620.2123 93.1937 619.3182 95.6527 617.5298 99.4529 612.053 106.718 609.4823 109.4006 607.2469 110.8536 604.7879 110.8536 602.6642 111.1889 601.4348 111.636 599.1993 111.9713 595.5109 111.9713 595.2873 111.8595 591.4871 110.7418 591.1518 110.7418 591.04 110.7418 590.4812 110.63 590.1459 110.5183 589.9223 110.7418 589.6988 111.0771 589.6988 112.0831 590.0341 113.089 591.04 114.3185 591.9342 114.9891 592.7166 116.1068 593.499 118.5658 593.8343 122.0307 596.2933 132.0901 575.6156 146.3968 558.2911 137.7904 557.3969 136.8963 556.7263 136.0021 556.0557 134.102 555.2733 132.5372 554.7144 130.19 553.932 128.8487 553.0378 127.8428 552.2554 127.1722 551.6966 126.278 550.8024 124.4897 549.4612 123.3719 548.7905 122.7013 549.0141 120.0188 550.02 116.5539 550.1318 114.8773 550.5789 113.8714 551.5848 112.6419 553.7085 111.0771 555.4968 109.4006Z" />
  <path class="Aswan" d="M552.3672 897.052L552.2554 897.052 552.1437 896.8285 551.5848 895.8226 550.8024 894.9284 547.114 892.2459 546.2198 891.3517 545.5492 890.5693 545.1021 889.5634 544.8785 888.5574 545.2139 887.3279 545.7727 885.9867 547.0022 884.0866 548.1199 882.9689 549.2376 882.0747 551.3613 881.0688 553.3732 880.5099 555.4968 880.1746 559.7441 879.951 561.6442 879.6157 563.7679 878.9451 565.7798 877.9392 567.121 877.1568 570.0271 874.9213 575.8392 867.4327 576.5098 865.9796 577.0686 864.5266 577.7393 861.7323 577.7393 861.0617 577.2922 856.1438 575.8392 850.8905 575.5039 848.8787 575.5039 847.9845 575.8392 846.6432 576.5098 845.1902 577.9628 842.843 579.1923 841.6135 580.4218 840.6076 581.4277 840.0487 582.6572 839.7134 583.6631 839.3781 584.6691 839.2663 586.5692 839.3781 593.7226 841.2782 594.6167 841.39 595.5109 841.2782 622.0007 828.6481 624.3479 827.8657 625.4656 827.7539 626.4715 827.8657 627.4774 828.201 629.2658 829.4305 633.066 832.5601 634.0719 833.0072 635.1897 833.2307 636.3074 833.2307 638.6546 832.8954 639.5487 832.7836 640.5547 833.0072 641.4488 833.566 642.1195 834.3484 643.2372 836.1367 643.9078 836.8074 644.6902 837.1427 645.6961 836.6956 646.4785 835.8014 648.1551 832.3365 648.714 831.4424 649.3846 830.5482 650.2788 828.8716 651.0612 826.4127 652.0671 821.2712 652.9613 818.8122 653.7437 817.1356 654.5261 816.1297 654.8614 815.5708 655.532 813.8943 658.1028 805.735 662.1265 796.6815 664.2502 793.7755 671.5153 785.9515 672.2977 784.722 672.7448 783.4925 673.0801 781.816 672.9683 780.3629 672.4095 778.6864 671.6271 778.2393 670.6211 778.1275 659.3322 779.8041 651.0612 779.4688 647.708 778.7981 646.7021 778.4628 645.8079 777.904 645.1373 776.898 644.802 775.5568 645.2491 773.3213 645.6961 772.0919 646.3668 770.4153 647.0374 768.0681 648.1551 761.1383 649.2728 757.2263 649.7199 756.2204 651.7318 753.3143 653.2966 751.526 655.0849 749.7376 656.0909 749.067 657.0968 748.5081 657.991 748.1728 660.1146 747.614 670.3976 746.1609 671.4035 745.8256 672.2977 745.155 672.8565 744.1491 672.8565 743.0314 672.1859 741.3548 671.4035 740.3488 670.3976 739.79 668.4975 738.784 664.809 736.6604 663.9149 735.878 663.1325 734.9838 662.6854 733.6426 662.5736 732.1895 662.7971 729.507 663.356 726.7128 663.9149 725.595 664.1384 725.2597 664.5855 724.7009 665.2561 724.0303 666.1503 723.5832 667.1562 723.2479 669.1681 722.9125 674.5331 723.1361 676.545 722.8008 677.5509 722.4655 678.5569 722.0184 679.451 721.4595 680.3452 720.5653 681.0158 719.5594 681.3512 718.8888 682.1336 718.1064 682.2453 717.2122 683.1395 713.9708 683.1395 712.2943 682.0218 708.4941 681.7982 707.2646 682.0218 704.3585 682.1336 703.3526 682.2453 701.2289 682.8042 696.6463 682.8042 695.5286 682.1336 689.1576 682.2453 684.2397 682.5806 682.2278 682.5806 680.9983 682.4689 680.7748 682.916 677.0864 685.9338 669.7095 686.8279 666.2446 686.4926 664.9033 686.4926 664.4562 685.822 660.9913 684.1454 656.1851 680.6805 648.6965 680.1217 647.1317 679.7864 645.7904 678.8922 636.4017 677.6627 632.9367 676.6568 631.0366 675.2037 628.913 673.4154 626.7893 670.5094 624.5539 663.8031 620.6419 665.2561 619.4124 665.9267 618.9653 666.7091 618.4065 667.1562 617.5123 667.3798 616.2828 667.3798 611.3649 668.0504 609.2413 684.9278 622.2067 688.0574 626.2305 690.8517 631.1484 691.9694 633.8309 692.64 636.5134 693.3107 641.9902 693.5342 654.285 694.0931 657.5264 694.5402 658.8677 703.4818 677.6452 703.5936 678.4276 703.4818 680.1042 702.923 682.3396 702.5877 683.2338 701.5817 685.2457 700.3523 687.1458 693.5342 696.1992 692.7518 697.8758 690.9635 705.0292 690.2928 711.2883 692.64 726.8245 693.4224 728.9482 695.3226 732.5249 697.558 738.784 698.3404 740.3488 699.6816 742.1372 701.2464 743.5902 702.923 744.7079 703.8172 745.4903 704.8231 746.608 705.7173 748.6199 706.0526 749.9612 706.1644 751.1906 706.0526 752.5319 706.0526 754.2085 706.6114 759.0146 706.4997 760.5794 706.1644 761.4736 704.376 764.2679 704.1525 765.7209 704.2642 768.0681 706.0526 776.5627 706.6114 777.904 708.9586 781.5924 709.8528 783.7161 710.1881 785.0573 710.2999 786.3986 710.1881 787.4045 709.5175 789.6399 706.4997 797.3521 706.0526 798.2463 705.4937 799.0287 703.0348 801.1524 702.1406 802.0465 701.5817 803.0525 700.464 806.1821 700.0169 807.0762 699.3463 807.9704 697.7815 809.7587 697.2227 811.1 697.4462 812.2177 698.0051 813.1119 698.8992 813.8943 704.5996 817.471 709.5175 819.2593 710.5234 819.8182 711.3058 820.4888 711.9765 821.3829 713.0942 823.3948 713.8766 824.289 715.4414 825.742 716.112 826.6362 716.6708 827.6421 720.1358 839.3781 720.3593 841.7253 720.024 842.7312 719.3534 843.1783 718.4592 843.1783 717.565 842.843 716.7826 842.5077 711.3058 838.4839 704.5996 831.5541 702.6994 830.3246 700.7993 829.654 698.6757 829.4305 691.8576 830.5482 691.0752 830.5482 690.1811 830.4364 689.2869 830.2129 688.281 829.7658 686.3809 828.201 682.6924 824.289 681.7982 823.5066 680.7923 822.836 679.8981 822.6124 679.1157 822.7242 678.4451 823.3948 677.998 824.289 677.1039 826.9715 676.545 827.7539 674.8684 829.4305 674.3096 830.66 674.1978 831.8894 674.7567 835.8014 674.6449 838.3722 674.3096 840.0487 673.8625 841.2782 672.7448 843.0666 670.6211 845.8608 659.7793 855.6967 657.2086 858.6028 654.079 861.397 652.626 862.403 650.9494 863.1854 647.2609 864.4149 643.2372 865.0855 638.6546 864.9737 637.5369 864.7502 635.4132 864.0795 633.4013 863.1854 632.5072 862.5147 631.7248 861.9559 628.2598 857.9321 624.4596 854.8025 623.5655 854.2437 622.5595 853.9084 621.6653 853.6848 620.7712 854.0201 619.9888 854.6908 619.3182 855.5849 618.424 857.485 613.059 872.7977 611.7177 875.1449 610.1529 877.045 609.0352 878.2745 605.6821 880.7334 604.7879 881.2923 603.782 881.6276 602.776 881.8512 599.87 881.8512 598.864 882.0747 597.7463 882.5218 596.8521 883.3042 596.0697 884.3101 594.952 886.322 593.6108 888.1103 592.6048 888.8927 575.3921 896.9403 573.6037 898.058 571.7036 899.511 569.8035 901.7464 567.4563 906.2173 567.4563 906.329 562.5384 906.329 565.1091 898.7286 566.8975 893.2518 567.3446 892.9165 569.1329 889.5634 567.3446 888.3339 566.5622 886.6573 565.5562 885.9867 564.4385 886.8809 562.9855 886.0985 561.4207 885.8749 559.7441 886.2102 558.1793 886.9926 556.0557 889.3398 552.3672 897.052Z" />
  <path class="Asyut" d="M521.2948 390.7286L520.9595 399.1114 521.0713 401.7939 521.4066 403.1352 522.189 405.7059 522.7479 406.9354 523.3067 408.0531 524.0891 408.9473 524.8715 409.7297 532.1366 413.977 540.6312 417.5537 545.8845 419.2303 547.0022 419.7891 548.3435 420.6833 550.1318 422.3598 551.1377 423.7011 551.9201 425.0424 553.2614 428.8426 553.932 430.1838 554.4909 431.078 555.0497 431.6369 557.0616 432.7546 560.4147 435.6606 565.668 441.0256 566.8975 442.4787 568.7976 445.72 577.6275 464.3858 574.3861 464.8329 573.3802 464.4976 572.1507 464.0505 571.2565 463.2681 570.3624 462.2622 569.6917 461.1444 568.3505 458.1266 567.7916 457.1207 567.121 456.2265 565.668 454.8853 564.5503 454.4382 563.6561 454.4382 563.209 454.7735 562.5384 455.4441 561.6442 456.5618 561.1971 457.5678 560.6383 458.2384 559.8559 459.0208 558.8499 459.8032 551.1377 464.0505 540.6312 442.814 539.6253 441.3609 535.7133 437.1136 534.1485 435.7724 532.8073 434.8782 525.2068 431.7486 521.0713 429.2897 510.1177 418.8949 508.7765 417.3301 507.3234 415.2065 499.6112 398.6644 498.7171 395.6465 498.4935 393.0758 498.8288 389.4991 501.0642 390.3933 502.629 390.3933 505.3116 389.8344 506.0939 389.7227 506.6528 389.7227 511.459 391.7345 512.3531 391.8463 521.2948 390.7286Z" />
  <path class="Bani Suwayf" d="M547.4493 231.9018L547.114 235.9255 547.3375 239.7257 547.2257 241.067 546.6669 242.7436 545.6609 244.7554 544.2079 248.6674 543.202 250.7911 541.9725 252.5794 538.284 256.6032 535.9369 259.621 531.1307 267.445 525.5421 274.9337 523.8656 278.2868 522.3008 282.6459 521.6301 285.4402 521.5184 287.3403 508.4411 282.7576 506.8763 281.1928 422.042 283.2047 424.1657 275.9396 427.5188 251.9088 463.7327 258.6151 469.3212 262.6388 473.2332 262.3035 507.8823 252.4677 514.9239 248.891 520.5124 242.6318 523.1949 238.608 524.648 235.702 528.1129 231.9018 531.3542 225.5308 534.5956 222.1777 538.3958 222.0659 540.5195 222.4012 542.9784 223.1836 544.2079 223.8542 544.9903 224.3013 545.6609 224.9719 546.2198 225.6426 547.0022 227.0956 547.4493 227.9898 547.6728 228.9957 547.6728 230.0017 547.6728 230.784 547.4493 231.9018Z" />
  <path class="Bur Sa`id" d="M659.2205 62.1213L659.2205 62.2331 659.444 70.7277 635.3014 56.6446 633.5131 57.0916 633.4013 51.7266 633.2895 51.6149 633.5131 51.6149 633.8484 48.8206 633.9602 47.3675 633.5131 45.8028 632.0601 44.0144 631.8365 43.1202 632.9542 42.3378 631.613 41.6672 630.7188 41.3319 630.7188 40.773 630.7188 40.1024 634.4073 40.773 635.525 41.6672 635.9721 41.6672 636.978 41.779 637.2015 43.3438 637.9839 44.685 639.2134 45.4674 641.7842 46.1381 642.7901 47.0322 644.3549 49.0441 647.8198 52.509 649.3846 53.7385 651.7318 57.7623 653.9672 59.7741 656.4262 61.3389 659.2205 62.1213Z" />
  <path class="Dumyat" d="M592.2695 41.1084L591.04 44.238 588.4693 45.9145 584.7809 46.9205 582.5454 48.0382 577.9628 52.0619 576.9569 52.1737 576.398 51.7266 576.0627 50.8325 575.8392 49.603 577.1804 49.1559 578.7452 47.0322 578.6334 45.691 578.1864 44.9086 578.1864 44.4615 579.6394 44.4615 581.2042 44.0144 582.4337 43.0085 582.5454 41.8908 580.9806 41.1084 581.2042 40.326 581.4277 39.9906 581.6513 39.6553 582.2101 39.6553 582.8807 40.326 583.5514 40.326 583.8867 39.8789 583.3278 39.0965 583.3278 38.3141 583.6631 37.9788 583.4396 37.1964 583.2161 36.414 582.8807 35.7433 582.4337 35.7433 581.9866 35.7433 580.31 36.414 580.1982 36.8611 580.1982 37.1964 580.4218 38.0905 580.4218 38.4259 580.31 38.9847 579.7512 39.5436 578.857 39.8789 578.4099 39.6553 578.0746 39.5436 577.5157 38.3141 577.0686 37.867 576.5098 37.867 575.9509 37.5317 574.945 36.6375 574.2744 36.5257 573.7155 36.7493 573.1567 36.414 572.8213 35.9669 572.8213 35.2963 572.9331 34.6256 572.7096 33.955 572.2625 33.7315 568.4623 33.1726 567.7916 32.6138 567.6799 32.0549 567.9034 31.7196 569.3564 30.043 572.2625 27.9194 572.8213 27.2487 573.1567 26.5781 573.3802 26.0193 573.7155 25.1251 573.7155 25.0133 575.8392 24.9015 588.4693 21.3249 595.8462 16.9658 598.864 15.9598 602.1054 16.0716 604.7879 17.4129 606.0174 19.9836 606.3527 21.2131 609.0352 24.7898 610.1529 27.584 611.4942 29.2606 614.0649 31.6078 614.9591 32.0549 617.0827 32.502 617.1945 32.6138 616.6356 33.0608 616.3003 33.1726 616.3003 33.2844 615.7415 33.0608 614.0649 32.8373 613.6178 32.502 613.3943 32.0549 613.059 31.6078 610.8235 30.4901 609.9294 29.7077 609.5941 29.7077 608.9234 29.7077 608.6999 28.3664 608.141 27.2487 607.4704 26.3546 606.688 25.6839 607.8057 25.6839 608.8117 25.5722 604.6761 20.3189 603.782 18.7541 602.5525 17.1893 601.5465 16.6305 601.5465 16.9658 600.2053 16.4069 599.6464 16.7422 599.3111 17.6364 598.1934 16.9658 598.1934 17.3011 598.1934 17.9717 598.1934 18.307 597.8581 18.0835 597.2992 17.86 596.9639 17.6364 596.9639 18.4188 596.8521 18.9777 596.4051 19.6483 598.1934 19.6483 597.7463 20.766 598.9758 23.1132 598.7523 24.4545 599.3111 24.4545 599.3111 25.0133 598.7523 25.0133 598.864 25.4604 599.1993 25.9075 599.3111 26.3546 598.7523 26.3546 598.4169 25.2369 597.8581 24.3427 597.0757 23.7838 595.8462 23.6721 596.1815 23.0014 595.8462 22.8897 595.2873 23.4485 594.7285 25.0133 595.2873 25.1251 595.5109 25.0133 595.8462 24.4545 596.5168 24.9015 596.9639 25.0133 597.6345 25.0133 597.6345 25.6839 596.9639 25.6839 596.9639 26.3546 597.2992 27.0252 597.7463 27.3605 598.4169 27.584 599.3111 27.6958 598.7523 28.2547 597.8581 28.4782 597.0757 28.2547 596.4051 27.6958 595.8462 27.6958 595.958 28.1429 595.7344 28.2547 595.5109 28.2547 595.2873 28.3664 595.6227 28.7018 595.958 29.0371 596.4051 29.7077 595.2873 31.1607 595.0638 32.2784 595.8462 32.9491 597.6345 32.9491 597.6345 33.7315 596.5168 33.5079 595.6227 33.1726 594.8403 33.0608 594.1696 33.7315 593.6108 33.7315 593.0519 33.1726 592.4931 33.1726 592.046 33.7315 591.9342 34.7374 592.2695 35.1845 592.8284 35.6316 592.9402 35.9669 591.9342 36.414 591.9342 36.9728 592.3813 37.867 591.8224 38.2023 590.8165 38.5376 590.1459 39.0965 590.0341 40.4377 590.4812 41.3319 591.3754 41.5554 592.2695 41.1084Z" />
  <path class="Janub Sina'" d="M680.457 172.9983L703.4818 171.8806 756.5732 181.3812 777.8097 192.7818 794.6871 199.2646 804.4112 204.4061 814.8059 208.2063 849.455 213.6831 848.6726 214.1301 847.8902 214.689 847.3314 215.3596 846.7725 216.2538 846.3254 217.3715 845.9901 218.2657 845.543 219.0481 844.5371 219.4952 844.7606 219.6069 844.9842 219.6069 845.0959 219.7187 845.0959 220.1658 844.4253 220.5011 843.8664 221.06 843.6429 221.6188 843.9782 222.1777 843.1958 222.2894 842.7487 222.513 842.8605 222.9601 843.4194 223.4072 842.4134 224.3013 840.5133 227.3191 840.0662 227.7662 839.1721 228.2133 838.8367 228.5486 838.5014 229.2193 838.1661 229.7781 837.8308 230.2252 837.0484 230.6723 837.0484 231.2311 837.8308 232.5724 837.4955 233.9136 836.9366 235.2549 836.4895 236.4844 836.4895 241.4023 836.0425 242.52 835.0365 243.4142 834.0306 244.0848 833.5835 244.6437 833.5835 245.9849 833.2482 247.5497 832.6893 249.0028 831.9069 250.2322 832.1305 251.3499 831.9069 257.0503 832.1305 257.9444 832.9129 259.1739 833.1364 260.2916 832.9129 261.4094 832.2422 261.9682 831.4598 262.1917 829.6715 263.4212 829.3362 263.9801 829.1127 265.2096 829.1127 265.7684 829.5597 267.6685 829.6715 273.3689 827.4361 275.0454 827.4361 275.6043 827.6596 276.4985 827.8832 277.7279 827.8832 279.0692 827.4361 280.1869 827.7714 280.634 827.9949 280.9693 828.5538 282.087 827.7714 282.6459 827.6596 283.2047 827.7714 283.7636 827.9949 284.4342 827.7714 285.4402 827.4361 286.1108 826.989 286.5579 826.7655 287.005 826.3184 288.6815 824.4183 291.4758 823.3006 295.8349 819.9474 300.8646 818.8297 303.6589 818.7179 303.8824 818.8297 304.1059 818.7179 304.2177 818.2708 304.2177 819.3886 307.1238 818.3826 308.9121 816.4825 310.3651 814.8059 312.0417 815.0295 312.2652 815.1413 312.2652 815.3648 312.7123 814.2471 313.2712 813.5765 314.5007 812.7941 318.748 812.4587 319.7539 811.5646 321.3187 811.341 321.4305 811.1175 322.4364 809.888 324.7836 809.6645 326.0131 809.7762 327.5779 809.9998 328.8074 810.3351 329.8133 810.7822 330.8193 810.7822 331.4899 810.1116 333.0547 810.8939 334.3959 811.8999 335.7372 812.6823 337.302 813.4647 337.9726 813.6882 338.5315 813.6882 339.2021 813.4647 339.6492 813.2411 339.8727 813.1294 340.208 813.0176 341.4375 812.347 344.6789 811.341 347.3614 812.7941 349.9321 811.341 356.6384 812.0117 357.309 809.7762 357.6443 809.1056 357.9796 808.8821 358.5385 808.6585 359.4327 808.2114 360.2151 807.2055 360.8857 806.6466 362.227 805.976 362.5623 805.3054 362.5623 804.1877 363.0094 803.4053 363.1211 803.5171 363.4564 803.5171 363.5682 803.6288 363.5682 803.9641 363.7917 803.4053 365.2448 802.5111 368.0391 801.7287 368.9332 801.1699 368.9332 800.8345 368.4861 800.1639 368.2626 799.6051 367.8155 799.0462 368.3744 798.4873 370.498 797.705 371.504 798.3756 372.7334 797.3696 373.7394 795.6931 374.41 794.5754 374.6336 793.793 374.6336 793.5694 374.6336 793.9047 376.0866 794.24 376.6454 797.2579 376.7572 797.2579 377.3161 796.5872 377.3161 796.5872 377.9867 797.0343 378.322 797.2579 378.7691 797.705 379.8868 796.9226 379.4397 796.5872 379.2162 796.699 379.5515 796.699 379.775 796.8108 379.8868 797.2579 379.8868 797.2579 380.5574 796.5872 380.5574 796.1402 379.775 794.6871 377.7631 793.1223 376.0866 792.4517 375.5277 791.5575 375.0806 790.3281 374.6336 782.2805 373.8512 780.3804 372.5099 774.7919 365.6919 774.3448 365.3565 773.6741 365.4683 768.868 361.1092 767.862 360.5504 766.7443 360.4386 765.7384 361.221 764.6207 358.6503 764.0618 359.2091 763.2794 358.315 760.3734 355.856 759.7028 355.5207 759.4792 355.4089 759.1439 354.9618 758.9204 354.1794 758.585 353.8441 758.0262 353.2853 757.4673 353.0617 756.1261 352.7264 756.1261 350.3792 752.2141 347.9202 752.1023 346.2437 750.9846 345.2377 749.5316 343.3376 748.5256 341.214 748.7492 339.8727 748.3021 339.5374 747.9668 339.4256 747.7432 339.0903 747.5197 338.5315 746.9608 338.5315 746.9608 339.2021 746.402 339.2021 746.1784 338.755 745.396 337.9726 745.2843 337.6373 744.0548 333.0547 743.6077 332.2723 742.9371 332.7194 742.3782 331.4899 740.3663 328.5838 739.5839 327.019 728.7421 320.4245 728.1833 319.4186 727.848 319.3068 725.8361 315.8419 724.2713 314.3889 723.2653 313.2712 723.2653 312.7123 718.0121 308.8003 717.1179 307.9062 716.7826 307.1238 716.4473 306.3414 715.7767 305.2237 714.8825 304.1059 713.8766 303.6589 714.4354 302.8765 714.4354 303.6589 714.9943 303.6589 714.4354 300.5293 713.0942 300.3057 712.3118 301.5352 713.8766 302.8765 712.5353 302.4294 711.6411 301.1999 711.1941 299.5233 710.8587 295.7231 710.2999 294.0465 708.8469 291.2523 709.6293 289.3521 710.747 284.9931 711.5294 282.7576 710.5234 281.5282 710.0763 280.7458 709.6293 278.8457 709.0704 278.3986 708.288 278.175 707.6174 277.6162 707.1703 275.8278 706.835 271.5805 706.4997 270.351 706.4997 269.7922 707.2821 268.898 707.3938 268.1156 707.0585 265.8802 706.835 265.4331 706.4997 264.0919 706.3879 262.6388 706.835 261.9682 707.3938 261.2976 706.835 260.0681 705.829 258.9504 705.382 259.0622 705.1584 258.0562 704.7113 257.2738 703.9289 257.0503 703.1465 257.3856 702.2524 256.2679 700.0169 255.0384 699.1228 254.1442 698.1168 251.797 697.8933 251.2382 697.6697 250.6793 696.4403 249.6734 696.2167 249.2263 695.8814 249.1145 694.5402 246.9909 694.3166 246.7673 693.646 246.432 693.3107 246.3202 693.1989 245.9849 692.9754 245.2025 692.8636 244.979 689.0634 241.067 687.7221 240.6199 685.9338 239.614 684.1454 238.3845 683.0277 237.155 682.5806 235.702 682.2453 233.6901 681.6865 232.0135 680.5688 231.2311 679.7864 231.0076 679.2275 230.2252 677.5509 226.0897 677.4392 226.0897 677.6627 222.513 677.3274 220.8364 675.092 219.8305 671.0682 216.8127 671.7388 216.8127 671.4035 216.142 671.0682 215.8067 670.6211 215.6949 669.9505 215.5832 670.174 215.3596 670.3976 215.1361 670.6211 214.8008 670.5094 214.2419 669.9505 214.2419 669.6152 215.0243 669.3916 215.8067 669.5034 216.3656 669.9505 216.8127 668.8328 216.8127 669.5034 213.3477 669.6152 208.8769 668.6092 204.9649 666.0385 203.0648 666.0385 202.5059 666.4856 201.3882 666.4856 200.047 666.1503 198.5939 666.0385 197.2527 666.262 195.7997 666.9327 193.8996 667.1562 192.8936 667.0444 191.3288 666.8209 190.3229 666.4856 189.5405 666.0385 188.6463 664.0266 186.0756 663.6913 185.0696 663.5795 184.8461 680.457 172.9983ZM824.53 359.2091L825.8713 360.4386 827.4361 361.7799 827.4361 362.5623 824.1947 362.7858 821.2887 362.5623 818.9415 361.5563 817.2649 359.4327 817.1531 359.2091 817.2649 357.9796 816.9296 356.1913 816.4825 355.4089 816.8178 354.9618 816.9296 354.8501 817.1531 355.4089 817.3767 354.6265 817.8238 354.0677 818.2708 353.7323 818.8297 353.5088 820.2827 354.2912 820.7298 354.7383 821.0651 355.4089 818.9415 355.856 817.9355 356.3031 817.712 357.309 818.0473 357.7561 818.3826 358.0914 819.8356 358.2032 822.1828 357.8679 823.3006 357.4208 823.4123 357.6443 823.6359 357.6443 824.0829 358.315 824.4183 358.9856 824.53 359.2091ZM836.7131 359.0974L836.7131 362.674 834.4777 363.68 832.4658 363.0094 830.901 361.5563 832.5776 358.8738 836.7131 359.0974Z" />
  <path class="Kafr ash Shaykh" d="M555.2733 16.6305L549.2376 19.8718 547.114 21.5484 546.7787 22.1073 546.6669 23.0014 546.5551 23.7838 546.7787 24.678 547.114 25.1251 548.3435 26.4663 548.6788 27.3605 548.9023 28.3664 549.6847 34.1785 549.6847 37.1964 549.4612 41.5554 549.5729 43.232 549.7965 44.9086 549.9083 47.7029 549.5729 49.3794 548.7905 51.5031 548.9023 52.3972 549.3494 53.1796 550.8024 54.5209 551.1377 55.4151 550.5789 55.6386 549.7965 55.6386 548.9023 56.1975 548.2317 56.7563 546.8904 57.427 545.1021 55.8622 544.655 55.5268 543.8726 55.3033 542.9784 55.1915 541.9725 55.3033 541.0783 55.7504 539.29 57.427 538.3958 57.427 536.4957 56.6446 532.0249 56.421 531.3542 57.2034 531.2425 58.0976 531.2425 59.1035 531.3542 60.7801 531.3542 61.3389 531.0189 62.1213 530.6836 62.9037 530.2365 64.8039 529.4541 65.698 528.1129 66.2569 522.189 66.704 521.4066 66.9275 520.6242 67.3746 519.6183 67.9334 519.3947 68.157 519.2829 68.2688 519.3947 68.6041 519.1712 68.8276 518.5006 69.0512 517.2711 68.9394 516.0416 69.0512 514.5886 69.61 513.5826 69.8336 508.6647 68.0452 508.4411 67.9334 507.8823 67.7099 507.2117 67.8217 506.541 69.7218 505.6469 68.2688 504.1938 66.9275 503.5232 66.2569 503.2997 65.4745 503.5232 64.0215 503.5232 63.0155 503.0761 62.1213 501.9584 60.5565 501.7349 60.1095 501.176 59.2153 497.1523 56.9799 493.352 51.3913 492.6814 50.6089 491.7872 50.2736 491.3402 50.0501 490.446 48.7088 489.7754 48.3735 489.1047 48.4853 488.7694 48.7088 488.5459 48.9323 488.0988 49.0441 488.0988 49.1559 486.6458 49.0441 486.6458 48.4853 486.1987 45.8028 485.7516 45.0204 485.1927 45.0204 485.1927 45.691 484.7457 45.691 484.5221 45.4674 484.5221 45.3557 484.4103 45.2439 484.075 45.0204 484.075 44.4615 485.081 43.4556 485.7516 41.8908 486.1987 39.9906 486.4222 37.9788 486.3105 36.9728 486.0869 36.1904 485.7516 35.6316 485.1927 35.0727 484.8574 34.8492 484.1868 34.4021 483.8515 34.0668 483.1809 33.6197 482.7338 34.0668 482.3985 34.7374 482.3985 35.0727 481.6161 34.7374 481.0572 34.2903 480.7219 33.6197 480.6101 32.7255 480.2748 31.7196 479.4924 31.2725 478.71 31.049 478.3747 30.7136 478.4865 28.2547 478.2629 26.3546 477.4805 25.2369 476.1393 25.0133 473.7921 23.225 472.5626 20.3189 473.1215 18.6424 476.1393 20.3189 478.3747 22.1073 480.9454 23.1132 483.9633 23.4485 487.5399 23.0014 499.2759 19.8718 523.9773 11.0419 523.9773 11.7125 522.7479 11.8243 515.0356 14.7304 508.6647 18.5306 504.1938 20.5425 500.6172 23.0014 500.1701 23.225 499.0524 23.4485 498.3817 23.6721 495.2521 25.9075 493.7991 26.3546 490.446 26.6899 489.7754 27.0252 489.3283 27.0252 488.0988 29.0371 488.0988 29.7077 489.7754 30.1548 490.446 30.1548 490.8931 29.7077 491.4519 29.7077 492.7932 30.4901 495.1404 30.3783 497.3758 29.5959 498.3817 28.7018 499.1641 27.137 500.8407 27.584 502.5173 29.0371 503.5232 30.3783 504.0821 30.3783 504.6409 28.7018 505.8704 27.0252 507.4352 25.6839 508.6647 25.0133 509.4471 24.678 510.3413 25.1251 511.3472 25.7957 512.5767 26.3546 513.4708 26.2428 514.4768 26.0193 515.7063 25.9075 516.6004 26.3546 516.3769 26.4663 516.1534 26.4663 516.0416 26.5781 516.0416 27.0252 517.1593 27.3605 518.6123 26.9134 520.0653 26.0193 521.1831 25.0133 520.9595 24.9015 520.736 24.9015 520.6242 24.7898 520.6242 24.4545 520.9595 24.2309 520.9595 24.1191 520.9595 24.0074 521.1831 23.6721 523.9773 24.9015 524.5362 25.6839 525.3186 25.0133 525.8774 24.2309 526.8834 22.3308 526.3245 21.4366 526.6598 20.8778 528.0011 19.6483 528.2246 19.0894 528.1129 18.5306 528.1129 18.0835 528.56 17.6364 529.1188 17.5246 532.1366 17.7482 532.919 18.0835 534.2603 18.9777 534.4838 19.4248 534.4838 19.8718 534.5956 20.2072 535.378 20.3189 536.0486 20.2072 536.6075 19.6483 536.9428 19.0894 535.378 18.307 535.9369 17.9717 536.4957 17.7482 537.0546 17.86 535.378 15.6245 532.0249 13.0538 528.1129 11.3772 524.3127 11.2655 525.095 10.8184 527.2187 10.036 534.2603 8.9183 536.831 9.2536 544.5432 11.7125 555.2733 16.6305Z" />
  <path class="Luxor" d="M663.5795 571.1273L662.3501 571.0155 661.3441 570.792 663.4678 566.7682 665.0326 567.6624 665.0326 568.333 664.1384 569.6743 663.5795 571.1273Z" />
  <path class="Matruh" d="M409.5237 67.2628L411.7591 132.3136 415.6711 140.4729 470.3272 174.4514 405.4999 214.2419 351.5144 269.0098 334.7487 281.7517 268.692 298.9645 262.5446 301.5352 258.6326 305.8943 256.2854 309.3592 220.295 386.2578 26.9309 386.3695 25.3661 386.3695 25.3661 353.2853 25.3661 345.9084 25.3661 308.5768 25.3661 270.7981 25.3661 254.8149 25.3661 243.0789 24.6955 237.6021 23.2425 232.4606 16.4244 215.6949 15.5303 212.3418 15.4185 208.6534 16.0891 201.7235 16.0891 199.3763 14.9714 195.4644 10.6123 188.311 10.0535 184.2872 11.5065 179.2575 11.6183 177.3574 11.1712 175.2338 4.0178 157.2386 1.6706 152.9913 1 150.8677 1 147.1792 2.3413 143.7143 5.8062 137.5669 7.1474 134.2138 7.9298 132.8725 10.1652 129.9664 12.736 127.3957 17.5421 120.0188 19.2187 116.6657 20.0011 113.4243 20.2246 111.5242 22.7954 104.8179 23.6895 99.5647 24.6955 95.6527 25.925 92.2996 26.4838 88.9464 25.3661 85.0344 21.6777 77.3222 20.56 72.2925 17.6539 66.3686 17.095 64.3568 15.1949 53.962 15.0832 46.0263 14.3008 37.7552 14.3008 34.2903 15.3067 31.1607 28.831 19.9836 31.9606 11.7125 34.196 8.3594 39.4493 4.2239 39.3375 4.8945 40.3435 11.3772 41.2376 14.395 42.8024 16.4069 44.5908 16.9658 48.8381 17.1893 51.9677 18.8659 53.756 18.8659 57.5562 18.307 58.3386 18.5306 59.3446 18.9777 60.3505 19.2012 61.8035 18.307 63.9272 17.7482 66.2744 17.5246 79.7987 13.6127 95.4466 8.2476 99.1351 7.6888 107.2944 8.1359 140.2669 17.3011 164.1859 20.5425 165.6389 21.3249 166.9802 21.7719 171.1157 21.5484 172.7923 21.6602 178.7162 24.5662 182.1811 25.6839 185.9813 25.6839 188.9991 24.5662 190.4521 24.3427 191.9052 25.3486 193.0229 26.4663 193.8053 26.8017 194.5877 26.8017 195.5936 27.0252 197.829 28.3664 203.0823 30.1548 208.6708 30.7136 210.7945 31.3843 212.1358 32.3902 212.6946 31.9431 213.477 31.496 213.8123 31.049 214.8183 31.1607 219.9597 31.049 220.5186 31.2725 221.1892 31.6078 221.7481 32.2784 221.7481 32.7255 221.6363 33.0608 221.7481 33.7315 222.4187 34.9609 222.754 35.5198 223.2011 35.7433 223.4246 35.9669 223.5364 37.4199 223.76 38.0905 224.4306 39.0965 225.213 42.0025 226.1072 43.3438 228.0073 45.1321 230.4662 46.4734 233.037 47.3675 238.2902 48.1499 240.4139 49.0441 242.2022 49.3794 244.1023 48.3735 248.2378 50.6089 253.1558 49.7147 262.8799 45.0204 264.3329 44.7968 265.1153 45.4674 265.5624 46.8087 265.6741 48.7088 265.8977 49.4912 267.3507 53.0679 267.686 56.1975 267.9096 57.0916 270.4803 58.5447 274.5041 59.1035 289.3696 59.1035 290.3756 59.3271 291.158 59.8859 291.8286 60.5565 292.4992 61.0036 293.5052 61.3389 295.9641 61.0036 297.8642 61.2272 301.4409 62.1213 303.0057 62.3449 304.6823 61.8978 308.3707 60.1095 310.2708 59.7741 311.8356 59.9977 313.2887 60.7801 314.6299 61.6743 315.6359 62.6802 316.3065 63.1273 319.3243 63.0155 320.442 63.2391 321.3362 63.6861 322.6774 64.3568 337.543 69.7218 340.4491 71.3983 342.1256 72.069 344.1375 72.2925 344.5846 72.8514 345.1435 75.5339 345.4788 76.4281 346.0376 76.7634 347.6024 77.3222 362.0209 84.9227 375.4334 84.3638 378.0042 83.805 389.2931 78.3282 401.5879 72.4043 406.0587 69.0512 409.5237 67.2628Z" />
  <path class="Qina" d="M668.0504 609.2413L667.3798 611.3649 667.3798 616.2828 667.1562 617.5123 666.7091 618.4065 665.9267 618.9653 665.2561 619.4124 663.8031 620.6419 655.8673 614.6063 654.1908 612.7062 653.4084 611.4767 652.626 610.1354 651.2847 606.7823 649.1611 593.5933 646.255 582.4162 646.1432 580.9631 646.255 579.063 646.4785 578.0571 646.8139 577.1629 648.0433 575.3746 650.5023 572.8039 662.0147 563.7504 663.5795 561.962 664.1384 560.9561 664.6972 560.0619 665.0326 559.1678 665.5914 557.0441 666.262 552.685 666.5974 551.5673 667.0444 550.5614 670.5094 544.5257 671.2917 542.6256 671.6271 541.7315 671.8506 540.502 671.8506 538.6019 671.5153 536.7018 671.18 535.6958 670.6211 534.6899 669.8387 533.7957 669.0563 533.0133 668.1622 532.4545 667.268 532.0074 666.1503 531.7838 664.6972 531.7838 660.897 532.2309 658.6616 532.7898 639.437 541.8432 632.0601 543.9669 628.0363 544.6375 625.6891 544.5257 624.1243 544.1904 622.8948 543.7433 620.8829 542.8492 619.4299 541.955 618.6475 541.2844 605.4585 528.8778 608.6999 525.86 609.5941 525.1893 610.4882 524.7422 615.1826 524.1834 616.5239 523.7363 617.5298 523.0657 619.4299 520.7185 619.877 520.2714 620.7712 519.9361 621.7771 520.0479 622.8948 521.1656 625.242 525.1893 626.9186 527.0894 628.7069 528.5425 630.7188 529.6602 631.8365 529.6602 632.7307 529.5484 634.9661 527.2012 637.5369 526.6424 654.3025 518.4831 658.6616 517.7007 661.0088 517.4771 666.3738 517.8124 672.8565 519.7125 674.4213 520.6067 676.4332 522.0597 679.3393 524.7422 682.5806 529.1013 683.8101 531.225 684.7043 533.3486 685.822 537.7077 686.7162 544.5257 686.8279 547.7671 686.7162 550.0025 686.2691 552.4615 685.4867 554.9205 681.2394 563.7504 679.6746 565.874 677.8862 567.9977 669.8387 575.2628 664.3619 581.4102 663.1325 583.1986 662.2383 585.0987 661.2323 588.1165 661.0088 589.4578 661.2323 594.3757 662.6854 601.1937 663.5795 603.8762 664.5855 605.7763 665.3679 606.7823 668.0504 609.2413ZM663.5795 571.1273L664.1384 569.6743 665.0326 568.333 665.0326 567.6624 663.4678 566.7682 661.3441 570.792 662.3501 571.0155 663.5795 571.1273Z" />
  <path class="Shamal Sina'" d="M849.455 213.6831L814.8059 208.2063 804.4112 204.4061 794.6871 199.2646 777.8097 192.7818 756.5732 181.3812 703.4818 171.8806 680.457 172.9983 679.8981 172.1042 679.1157 170.8747 678.4451 168.751 677.4392 149.1911 675.8744 140.2494 671.4035 128.8487 663.8031 116.5539 663.5795 116.2186 663.356 114.8773 663.0207 112.8655 662.9089 104.2591 659.444 70.7277 659.2205 62.2331 659.2205 62.1213 659.444 62.2331 663.1325 62.3449 666.5974 61.8978 672.7448 60.2212 680.1217 56.6446 681.5747 55.5268 685.0396 53.7385 685.9338 53.0679 686.4926 53.0679 686.4926 53.7385 683.9219 54.8562 679.2275 58.3211 676.545 59.1035 671.9624 61.2272 664.809 63.0155 668.8328 63.0155 668.8328 63.6861 667.7151 64.3568 670.174 64.3568 671.18 64.0215 671.7388 63.0155 672.1859 63.0155 672.2977 63.6861 672.5212 63.6861 672.9683 63.6861 673.4154 63.6861 678.5569 60.4448 682.8042 59.1035 683.6983 58.3211 684.2572 58.3211 684.5925 58.88 685.7102 59.2153 685.4867 59.6624 684.8161 59.7741 684.8161 60.4448 685.7102 60.1095 687.7221 59.1035 687.7221 58.3211 685.3749 58.3211 685.3749 57.7623 686.4926 57.3152 687.9457 57.6505 689.1751 58.5447 689.9575 59.7741 690.1811 60.333 690.4046 61.2272 690.5164 61.786 689.3987 61.786 692.0812 62.792 693.4224 62.6802 694.5402 61.786 694.5402 61.0036 693.7578 60.5565 693.3107 60.4448 693.3107 59.7741 696.552 58.88 697.3344 58.3211 696.9991 57.6505 697.1109 56.9799 697.558 56.0857 697.8933 55.0798 697.3344 55.0798 696.8873 55.7504 695.099 57.0916 694.8755 57.427 694.5402 57.6505 694.5402 57.9858 695.099 58.3211 693.9813 58.6564 692.0812 58.5447 690.1811 58.3211 688.8398 57.7623 691.2988 57.5387 692.7518 55.9739 693.7578 54.0738 695.099 52.3972 696.105 51.9502 698.1168 51.5031 699.1228 51.056 700.6876 49.4912 701.6935 49.0441 703.1465 49.0441 703.1465 49.7147 700.7993 49.7147 700.7993 50.3854 701.8053 51.056 704.8231 55.0798 705.7173 56.7563 705.382 57.2034 704.2642 57.5387 703.1465 58.3211 703.0348 58.0976 703.0348 57.874 702.923 57.6505 702.4759 57.7623 702.4759 58.3211 703.9289 59.3271 704.5996 60.5565 704.5996 62.1213 703.7054 63.6861 706.6114 62.5684 708.1762 62.1213 709.2939 62.3449 709.8528 62.2331 710.2999 62.2331 710.9705 62.3449 710.9705 61.786 709.8528 61.0036 709.2939 61.0036 709.2939 61.786 708.8469 61.786 708.8469 61.0036 713.2059 59.3271 714.4354 58.3211 714.9943 58.3211 714.4354 59.1035 714.9943 59.7741 715.6649 59.2153 716.3355 59.1035 716.8944 59.5506 717.2297 60.4448 717.9003 60.4448 718.0121 59.5506 717.9003 58.6564 717.7886 58.4329 719.018 58.3211 718.2356 57.9858 717.4532 58.0976 716.6708 57.9858 715.6649 57.7623 724.7184 57.0916 724.0477 55.3033 725.0537 54.968 726.3949 54.8562 726.3949 53.0679 727.2891 53.515 727.6244 53.7385 728.1833 53.7385 729.301 53.515 732.5424 55.1915 734.1072 55.7504 740.2546 56.3092 741.8194 57.0916 741.8194 56.421 743.7195 56.9799 746.5138 56.7563 763.7265 52.2855 779.7098 45.9145 792.3399 37.6435 792.4517 37.6435 794.4636 41.3319 795.0224 42.8967 796.4755 47.5911 797.3696 50.2736 800.611 60.4448 803.1817 68.7158 806.4231 77.0987 810.6704 88.3876 815.8119 101.9119 817.6002 109.6241 817.8238 113.6479 818.2708 115.3244 819.6121 117.1128 820.3945 118.2305 820.3945 119.5717 819.6121 122.4778 819.5003 124.1543 819.6121 125.2721 820.171 126.1662 824.7536 130.19 825.6477 131.5312 828.442 139.467 833.36 153.6619 836.6013 162.9389 836.8249 163.4978 836.9366 164.0567 837.0484 164.6155 836.9366 165.2861 837.4955 170.4276 841.1839 180.487 844.4253 189.5405 846.549 199.3763 846.4372 205.9708 846.996 208.318 848.8961 212.23 849.5668 213.5713 849.455 213.6831ZM690.8517 60.2212L690.5164 59.7741 690.0693 59.7741 690.6282 59.3271 691.187 59.4388 691.5223 59.9977 691.7459 61.0036 690.8517 60.2212ZM723.8242 49.7147L726.3949 50.2736 728.6304 51.3913 732.207 54.4091 730.4187 53.0679 717.4532 47.4793 714.9943 47.0322 717.6768 47.144 721.9241 49.1559 723.8242 49.7147ZM699.1228 46.0263L701.3582 44.7968 714.4354 46.3616 713.8766 46.8087 712.8706 46.8087 710.2999 46.3616 707.8409 46.0263 705.382 45.5792 702.4759 46.3616 701.1347 46.1381 698.8992 46.9205 688.9516 52.2855 687.1633 53.7385 688.1692 52.2855 690.0693 51.3913 691.6341 50.4971 692.7518 49.8265 693.8695 49.0441 698.1168 47.0322 699.1228 46.0263Z" />
  <path class="Suhaj" d="M577.6275 464.3858L591.5989 474.2217 595.2873 477.7983 596.6286 480.8162 598.5287 484.1693 600.7641 487.1871 601.5465 488.8637 601.9936 490.3167 602.4407 494.4523 602.6642 495.4582 603.8937 498.0289 605.9056 501.0468 607.2469 502.7233 608.3646 504.0646 609.9294 505.0705 612.053 506.1882 614.512 507.1942 619.9888 508.4237 620.9947 508.759 622.336 509.6531 623.1184 510.7708 623.9008 511.7768 626.1362 516.0241 634.9661 527.2012 632.7307 529.5484 631.8365 529.6602 630.7188 529.6602 628.7069 528.5425 626.9186 527.0894 625.242 525.1893 622.8948 521.1656 621.7771 520.0479 620.7712 519.9361 619.877 520.2714 619.4299 520.7185 617.5298 523.0657 616.5239 523.7363 615.1826 524.1834 610.4882 524.7422 609.5941 525.1893 608.6999 525.86 605.4585 528.8778 570.5859 485.1752 562.6502 478.3572 551.1377 464.0505 558.8499 459.8032 559.8559 459.0208 560.6383 458.2384 561.1971 457.5678 561.6442 456.5618 562.5384 455.4441 563.209 454.7735 563.6561 454.4382 564.5503 454.4382 565.668 454.8853 567.121 456.2265 567.7916 457.1207 568.3505 458.1266 569.6917 461.1444 570.3624 462.2622 571.2565 463.2681 572.1507 464.0505 573.3802 464.4976 574.3861 464.8329 577.6275 464.3858Z" />
</svg>