<?xml version="1.0" encoding="utf-8"?>
<svg xmlns="http://www.w3.org/2000/svg" viewBox="0 0 1021 771" style="stroke-width:0.25px;stroke-linejoin:round;stroke:#444;fill:#ddd" fill-rule="evenodd">
  <path class="Beyla" d="M961.2262 461.3926L963.4616 462.5103 966.3677 463.181 969.4972 463.2927 971.9562 463.0692 974.7505 461.9515 980.0037 459.0454 982.9098 458.3748 988.4983 458.4866 989.2807 459.6043 985.5923 470.6696 985.257 473.911 980.3391 485.9823 980.4508 491.012 987.3806 493.8063 989.169 493.471 990.5102 492.9121 991.6279 493.1356 993.5281 496.7123 994.9811 498.1653 998.1107 500.6243 1003.811 503.7539 1005.4876 505.8776 1005.264 506.1011 1003.1404 507.6659 999.899 508.2248 997.1047 508.2248 994.534 508.4483 982.2392 514.8193 980.1155 516.9429 980.1155 517.0547 978.7743 520.4078 978.1036 523.6492 977.5448 530.4672 975.0858 542.4267 976.4271 546.7858 982.6862 548.6859 985.7041 549.0212 993.9751 551.4802 994.534 551.3684 995.987 550.6978 996.7694 550.6978 997.6636 551.2567 998.7813 553.045 999.4519 553.8274 1002.0227 556.0628 1003.0286 557.2923 1006.27 563.2162 1007.4994 564.781 1011.4114 567.3517 1012.3056 568.4694 1013.088 571.1519 1012.7527 576.4052 1013.088 579.3112 1014.7646 585.1233 1014.7646 587.4705 1013.7586 590.9354 1013.3116 594.2886 1014.2057 597.3064 1017 603.1185 1009.0642 604.0127 1005.264 603.4538 1002.1344 601.5537 997.8871 592.8355 994.9811 588.9235 991.9633 589.3706 991.4044 591.4943 991.8515 593.7297 991.5162 595.7416 989.2807 596.7475 986.9336 596.6358 984.6981 595.9651 982.798 594.9592 981.2332 593.6179 980.2273 591.7178 979.4449 589.8177 978.5507 587.9176 976.7624 586.5763 974.8623 586.241 972.7386 586.4646 968.7149 587.5823 967.3736 587.3587 965.0264 587.5823 963.9087 587.4705 963.0145 587.0234 961.4497 585.7939 960.332 585.3469 957.5377 585.5704 952.9551 587.3587 950.1608 587.6941 945.2429 586.6881 943.3428 586.9117 936.7483 592.2767 935.9659 593.1708 935.9659 594.8474 936.7483 596.4122 937.6425 597.8652 938.4249 599.6536 938.5366 602.4479 936.8601 610.3836 936.8601 612.9543 937.1954 615.5251 936.8601 617.2017 934.6246 619.5488 934.4011 621.0019 945.8018 628.4905 959.1025 632.6261 960.4438 632.4025 968.7149 629.6083 970.3914 629.4965 970.5032 630.8377 969.7208 632.8496 968.7149 634.5262 967.8207 638.7735 967.9325 640.7854 968.7149 642.7972 971.1738 644.362 973.521 646.821 975.1976 649.8388 975.5329 651.2919 975.98 652.8567 973.521 652.7449 971.8444 651.6272 970.5032 650.5095 969.1619 650.0624 963.4616 651.0683 961.338 650.9565 961.5615 652.186 955.5259 648.274 942.4486 636.2028 932.501 627.9317 920.2062 624.5785 911.9351 625.0256 909.9232 621.6725 905.3406 618.3194 897.1813 617.537 895.5047 612.5073 890.1397 606.6952 881.5333 604.5715 870.0209 605.4657 858.0614 610.8307 846.1019 613.7367 848.2255 607.9246 851.0198 599.9889 853.4788 590.9354 851.4669 578.8641 846.996 567.1282 840.4015 557.9629 838.2779 551.8155 838.0543 521.7491 843.9782 516.2723 849.7903 513.478 860.2968 511.4661 866.2207 508.7836 871.1386 506.5482 871.2504 505.7658 871.4739 504.9834 872.5916 502.6362 872.927 501.2949 873.374 499.9537 879.4097 489.4472 885.6689 485.0881 888.7985 479.1642 893.4928 472.7933 898.1872 471.2285 899.305 465.6399 905.2288 463.7398 912.2704 464.0751 918.0825 466.087 927.0242 469.999 933.7305 469.2166 941.8898 464.8575 950.4961 460.9455 961.2262 461.3926Z" />
  <path class="Boffa" d="M75.6631 307.0366L80.6928 303.0129 86.0579 298.4303 93.4348 295.0771 111.2064 294.1829 120.5952 291.2769 129.2015 284.4589 142.167 284.4589 144.8495 288.4826 150.8851 287.5884 158.9327 283.6765 159.9386 284.6824 160.6092 284.9059 161.0563 284.5706 161.3916 283.9 161.9505 283.3411 163.6271 282.6705 164.2977 282.3352 169.4392 281.441 170.6686 277.082 171.8981 276.7466 173.0158 276.1878 173.91 275.1818 175.0277 274.623 176.369 274.5112 180.0574 275.9642 181.3987 276.2996 183.8576 275.9642 185.4224 276.076 186.7637 277.082 202.0763 278.0879 200.5116 300.4421 193.9171 305.4718 191.4581 307.1484 185.646 309.2721 182.4046 314.3018 174.916 322.6846 172.457 328.4967 173.7982 336.4325 170.7804 344.3682 166.8684 351.8569 161.6152 359.6809 161.0563 360.3515 160.8328 361.3574 161.2799 363.1458 161.727 364.1517 162.174 365.0459 162.8447 365.8283 178.4926 379.129 179.1633 379.4644 179.8339 379.6879 181.3987 380.0232 186.7637 380.0232 187.6579 380.2468 188.9991 380.8056 190.1168 381.9233 191.4581 384.2705 191.4581 384.4941 190.8992 384.047 190.4521 385.9471 190.2286 388.6296 189.8933 389.9708 188.3285 390.865 185.646 394.777 183.7459 395.6712 183.8576 396.23 183.2988 396.6771 178.4926 398.4655 177.9338 398.4655 175.1395 398.2419 172.5688 397.7948 170.5569 397.0124 169.6627 396.0065 168.8803 394.4417 166.9802 392.0945 164.633 389.8591 162.6211 388.8531 158.9327 386.5059 158.1503 385.5 156.4737 382.2586 155.2442 381.6998 153.0088 381.588 151.8911 381.2527 150.7734 380.3585 148.0909 377.4525 146.079 376.6701 144.626 376.4465 143.1729 375.8877 141.0493 374.0993 140.6022 370.6344 142.7259 366.6107 146.1908 364.487 149.8792 367.0578 148.8733 365.3812 146.9732 363.034 145.1848 361.4692 144.4024 361.8045 143.2847 363.5928 141.2728 362.8105 139.708 361.2457 140.0433 360.3515 143.0612 359.122 145.2966 356.216 148.985 349.845 147.0849 350.8509 145.6319 352.0804 142.9494 355.0982 141.3846 355.9924 137.6961 357.7807 136.802 358.4514 136.5784 360.1279 136.802 366.4989 136.3549 368.0637 135.2372 369.5167 133.4488 370.5227 131.2134 370.858 128.0838 369.852 125.6249 367.8402 124.3954 365.0459 124.5072 362.2516 126.7426 360.0162 130.0957 357.5572 132.1076 354.9865 130.2075 352.751 129.6486 354.7629 128.0838 355.8806 125.9602 356.4395 123.7248 356.5513 124.0601 359.5691 121.6011 361.9163 118.5833 362.9222 117.0185 361.8045 116.5714 360.7986 115.6772 359.6809 114.6713 358.1161 114.2242 355.9924 114.6713 354.9865 115.5655 354.2041 116.1243 353.3099 115.6772 352.304 114.8948 351.9686 114.1124 352.1922 113.5536 352.6393 113.33 353.1981 111.9888 355.4336 108.971 353.757 100.8117 346.1565 99.3586 345.4859 97.4585 345.0388 95.3349 345.1506 93.4348 345.7095 91.6464 345.933 89.8581 345.0388 87.0638 347.8331 85.6108 346.2683 85.1637 342.9152 85.1637 339.7856 86.2814 335.3147 86.1696 333.5264 85.6108 331.7381 84.8284 330.8439 83.9342 330.285 75.4396 321.4551 73.9866 318.4373 73.5395 315.5312 73.6513 311.9546 74.3219 308.7132 75.6631 307.0366Z" />
  <path class="Boke" d="M146.9732 149.3275L145.7437 155.3631 142.5023 159.6105 142.5023 163.746 146.1908 166.7638 153.1206 166.7638 158.1503 170.564 160.1622 178.4998 161.3916 185.6531 165.0801 189.0063 170.8922 190.2358 175.4748 197.6127 173.0158 199.9598 170.3333 200.4069 171.004 201.7482 171.5628 202.0835 172.3452 202.1953 174.1336 202.4188 174.6924 202.7541 176.0337 204.4307 176.9278 205.3249 178.6044 207.5603 178.8279 208.4545 178.6044 211.584 178.9397 212.4782 179.4986 213.0371 180.0574 213.3724 181.6222 214.7136 181.8458 215.3843 181.9575 216.2784 181.8458 217.5079 182.0693 220.5257 181.8458 221.7552 180.5045 227.5673 180.1692 228.0144 179.7221 228.3497 178.3809 229.0204 177.2631 229.9145 174.5806 232.3735 174.1336 233.1559 174.2453 234.6089 172.9041 240.8681 170.7804 246.1213 168.2097 253.7218 158.5974 258.1926 150.4381 257.6338 143.5083 267.3579 135.2372 275.6289 129.2015 284.4589 120.5952 291.2769 111.2064 294.1829 93.4348 295.0771 86.0579 298.4303 80.6928 303.0129 75.6631 307.0366 75.7749 306.9249 75.6631 306.9249 73.5395 307.1484 71.9747 308.1543 70.7452 309.4956 69.1804 310.7251 67.3921 311.3957 65.0449 311.731 62.9212 311.3957 61.6917 309.7191 60.7976 309.7191 59.7916 311.5075 58.8975 310.9486 58.2268 308.825 58.0033 306.4778 58.1151 304.0188 58.4504 302.1187 59.9034 298.3185 61.4682 298.7656 63.2565 297.3125 65.2684 295.0771 67.3921 293.6241 64.0389 293.5123 62.9212 291.724 63.1448 289.1532 64.7096 281.441 65.8273 279.4292 67.3921 280.3233 68.1745 280.3233 68.398 278.1997 69.5157 277.082 70.6334 276.5231 71.1923 275.8525 72.9806 269.5933 76.222 262.9988 78.1221 262.2164 79.2398 260.3163 79.3516 258.0809 78.681 256.1807 79.1281 255.6219 80.4693 253.4982 77.7868 254.2806 77.4515 255.3983 77.8986 256.9631 77.5633 259.1986 72.9806 262.4399 72.4218 262.9988 70.5217 264.5636 68.1745 268.0285 66.2744 271.7169 64.7096 276.2996 62.8095 279.3174 58.8975 284.0118 55.0972 287.3649 53.1971 288.1473 52.4147 286.4707 52.6383 284.2353 53.4207 282.6705 54.6502 281.7763 56.1032 281.1057 55.0972 280.8822 54.3149 280.9939 53.4207 281.3293 52.4147 282.1117 50.5146 280.3233 52.1912 274.7348 53.3089 272.3876 54.7619 270.1521 55.5443 269.3697 57.5562 268.0285 58.4504 267.2461 59.2328 266.1284 59.5681 265.2342 59.7916 264.8989 59.121 264.5636 58.0033 263.893 56.215 266.2402 49.9558 271.1581 48.391 273.5053 46.8262 278.6468 44.9261 280.3233 43.5848 277.529 41.7965 275.8525 40.4552 273.9524 40.1199 270.711 42.02 270.711 43.5848 269.4815 44.8143 267.5814 45.7085 265.7931 46.3791 264.0047 46.8262 261.8811 46.938 260.0927 46.7144 259.1986 47.1615 258.3044 47.385 257.7455 47.6086 256.1807 45.0378 258.0809 44.2554 259.1986 43.9201 260.5398 43.2495 261.0987 39.2257 262.9988 38.2198 262.9988 38.108 261.434 38.2198 259.8692 38.5551 258.5279 39.2257 257.2985 38.4433 255.9572 38.3316 254.7277 38.8904 253.61 40.1199 252.4923 37.5492 252.2688 36.7668 250.5922 37.1021 248.4685 38.2198 246.792 40.0081 245.6743 42.3553 244.7801 44.9261 244.1095 47.1615 243.8859 48.8381 242.9917 49.7322 241.0916 50.2911 239.0798 50.9617 238.1856 53.1971 237.6267 55.7679 234.4971 58.0033 233.3794 56.9974 232.597 56.215 231.7029 55.209 229.4674 54.9855 230.8087 54.5384 232.0382 53.8678 232.9323 52.8618 233.3794 52.0794 233.4912 49.9558 234.3854 49.5087 234.7207 48.9498 237.515 47.4968 239.8622 45.3732 240.9799 42.9142 239.9739 42.2436 240.6446 41.5729 240.9799 40.6788 241.0916 39.2257 241.0916 40.1199 238.4091 39.2257 236.7326 37.9963 236.2855 37.3256 237.7385 33.5254 242.88 29.2781 242.0976 26.4838 234.1618 23.2425 234.2736 25.5897 236.7326 25.925 239.3033 25.1426 241.7623 24.2484 243.8859 21.3424 241.7623 19.7776 241.0916 17.5421 241.0916 22.1248 244.5565 23.8013 246.3449 24.2484 248.6921 22.9072 251.2628 20.3364 253.8336 17.7657 255.6219 16.648 255.7337 16.4244 255.3983 15.7538 255.2866 15.0832 255.3983 14.7479 255.7337 14.9714 256.6278 15.642 257.9691 15.7538 258.6397 15.7538 263.4459 16.3127 264.2283 17.5421 264.8989 18.8834 265.6813 19.4422 267.2461 19.2187 267.9167 17.5421 270.711 15.0832 269.4815 10.1652 268.6991 7.7063 267.2461 4.8002 264.2283 2.5648 261.0987 1.2235 258.0809 1 255.2866 1.8942 252.7158 4.0178 250.0333 5.0238 249.5862 7.7063 248.6921 8.2651 248.245 8.3769 247.1273 8.824 246.2331 9.3828 245.3389 10.0535 244.7801 10.0535 243.8859 9.3828 243.9977 9.2711 243.7741 9.2711 243.3271 9.1593 242.88 13.0713 238.8562 17.6539 233.3794 30.8429 207.7838 33.5254 196.8303 35.5373 191.577 49.1734 171.57 51.6323 168.8875 54.9855 166.9873 60.6858 166.4285 71.9747 167.7697 77.675 166.7638 89.8581 160.0575 102.6 153.016 104.2766 151.6747 105.1707 150.2217 106.8473 146.8685 107.8532 145.7508 109.3063 144.8567 110.0887 144.9684 110.8711 145.4155 122.2717 146.1979 125.5131 145.7508 126.8543 145.9744 128.0838 146.8685 129.2015 147.8745 130.5428 148.6569 132.7782 149.2157 134.6783 149.104 138.8139 148.4333 140.9375 148.4333 146.9732 149.3275Z" />
  <path class="Conakry" d="M193.8053 436.9147L197.9408 441.2738 193.1347 443.9563 189.3344 445.074 189.1109 445.4094 188.105 446.08 187.099 446.3035 186.5402 445.6329 186.7637 444.4034 187.5461 444.0681 188.4403 443.8446 189.3344 443.2857 193.8053 436.9147Z" />
  <path class="Coyah" d="M247.3437 377.7878L253.1558 382.8175 256.0618 386.1706 257.2913 398.3537 255.1677 402.9363 252.3734 407.0718 253.9382 412.8839 259.3032 416.2371 265.1153 418.3607 271.2627 426.2965 273.2746 432.5557 273.7217 438.3678 267.9096 439.2619 257.6266 438.3678 253.6029 435.9088 248.2378 430.432 242.4257 427.973 235.4959 431.3262 228.0073 433.7851 223.5364 434.2322 219.2891 437.5854 218.3949 437.5854 215.3771 443.7328 214.4829 436.3559 213.7006 426.2965 217.7243 420.8197 221.0774 414.5605 221.0774 409.9779 219.4009 402.0421 221.0774 391.6474 225.5483 384.1587 232.1428 378.682 243.3199 377.7878 247.3437 377.7878Z" />
  <path class="Dabola" d="M614.9591 285.4648L611.6059 287.4767 607.4704 292.5064 597.1875 293.7359 586.0103 292.9535 581.0924 287.9238 576.1745 286.2472 567.121 289.6003 557.2851 292.9535 545.3256 305.0248 537.9487 311.731 525.9892 313.0723 518.6123 319.3315 508.3294 322.6846 506.2057 354.4276 502.0702 369.0696 498.3817 378.3466 493.4638 378.3466 479.4924 378.4584 476.8099 368.0637 478.5982 355.7689 481.6161 351.4098 482.5102 343.9211 482.3985 325.8142 484.1868 275.2936 484.1868 266.799 479.9395 264.8989 478.3747 263.5576 478.8218 262.6635 479.3806 256.9631 479.2689 252.4923 477.3688 243.2153 478.4865 241.6505 479.1571 241.2034 480.163 240.1975 492.905 229.3557 501.9584 229.3557 502.9644 234.2736 533.3661 234.7207 536.2722 238.0738 540.743 243.1035 548.567 246.0096 556.391 243.8859 571.7036 233.8265 582.769 225.8908 593.0519 223.7671 600.5406 222.6494 601.7701 224.4377 601.5465 225.5554 599.4229 230.5851 598.5287 232.0382 597.6345 232.9323 596.9639 233.1559 595.7344 233.9383 594.505 235.2795 593.499 236.6208 592.7166 237.2914 591.9342 237.7385 590.593 238.2974 590.1459 238.5209 588.2458 240.6446 587.6869 241.6505 587.2398 242.6564 586.2339 246.4567 585.0044 249.698 584.222 251.0393 583.3278 251.8217 581.6513 252.157 580.31 252.7158 578.4099 253.8336 574.945 256.2925 574.1626 257.522 573.9391 258.7515 574.1626 260.0927 574.7215 261.434 575.6156 262.6635 576.7333 263.893 578.5217 265.1224 596.7404 270.9345 597.8581 271.8287 598.5287 272.164 599.3111 272.3876 601.2112 272.4993 601.9936 272.7229 602.776 273.2817 604.1173 274.9583 604.6761 275.5172 608.141 277.082 608.6999 277.7526 609.2587 278.4232 611.1589 281.6646 611.6059 282.2234 614.9591 285.4648Z" />
  <path class="Dalaba" d="M366.0447 309.2721L364.3681 308.4897 363.6975 307.2602 363.2504 304.5777 362.3562 303.6835 361.015 303.2364 358.4442 302.454 357.4383 302.0069 355.7617 301.1128 355.0911 299.995 354.8675 298.542 355.7617 295.636 355.4264 292.0593 354.4205 291.5004 353.7498 291.5004 352.7439 291.8358 351.1791 292.8417 344.6964 299.2127 339.4431 301.8952 333.9663 304.0188 334.637 283.6765 338.3254 275.7407 347.3789 269.4815 355.2029 262.7752 362.5798 261.0987 367.9448 252.2688 370.4037 244.7801 376.5512 240.1975 382.8103 237.1796 387.7283 234.2736 404.6057 233.8265 402.9292 228.0144 399.2407 225.1084 398.0112 219.6316 401.2526 214.6019 401.6997 207.8956 404.6057 203.6483 406.2823 197.3891 408.6295 196.0479 410.1943 195.6008 411.2002 196.0479 412.6532 197.2773 413.4356 197.7244 414.4416 197.8362 415.3358 197.7244 416.2299 197.7244 418.8007 198.5068 422.1538 198.2833 423.495 203.8718 424.8363 206.5543 426.0658 208.2309 427.407 208.9015 428.8601 209.3486 430.8719 210.3546 432.7721 211.6958 435.1193 214.1548 436.0134 216.1667 436.237 218.5139 435.5663 222.8729 435.3428 225.8908 435.4546 228.9086 436.1252 233.603 437.1311 235.8384 438.2488 237.515 439.5901 238.0738 441.1549 238.4091 447.0788 238.2974 448.5318 237.962 452.332 242.6564 453.1144 252.7158 450.2084 259.4221 447.4141 265.6813 442.0491 268.252 430.0895 269.0344 419.0242 271.6052 409.0766 279.0938 399.2407 289.1532 395.8876 295.0771 385.2693 296.7537 380.3514 299.2127 373.7569 304.6894 366.0447 309.2721Z" />
  <path class="Dinguiraye" d="M501.9584 229.3557L517.1593 218.8492 525.7657 212.59 525.7657 206.4426 522.7479 198.9539 517.9417 192.8065 523.4185 184.5354 525.5421 182.4118 526.8834 181.5176 528.3364 180.7352 533.1426 179.0586 533.925 178.388 534.5956 177.3821 536.2722 175.929 538.284 174.5878 539.9606 174.0289 540.8548 173.023 541.749 170.8993 541.0783 169.8934 533.1426 165.9814 532.0249 165.199 531.0189 164.3048 530.5718 163.746 530.2365 163.1871 530.013 162.293 530.013 161.287 530.3483 159.834 540.8548 146.5332 541.4136 140.274 541.8607 136.2503 541.9725 131.4441 543.5373 128.3145 543.5373 122.3906 543.5373 113.7843 537.1663 107.6369 535.0427 102.6072 534.7074 97.0186 535.0427 96.6833 535.378 96.348 535.7133 95.7891 535.9369 95.342 536.0486 95.2303 536.1604 95.0067 536.2722 94.8949 536.4957 94.7832 536.9428 94.4479 537.2781 94.3361 537.9487 94.0008 537.9487 93.889 538.0605 93.5537 538.284 93.3301 538.3958 93.1066 538.7311 92.9948 539.0664 93.1066 539.1782 93.1066 539.6253 92.8831 540.4077 91.8771 540.743 90.9829 540.9666 90.6476 541.3019 89.977 541.1901 89.6417 541.0783 89.4182 540.8548 89.0828 540.743 88.7475 540.2959 88.3004 540.1842 87.7416 540.1842 87.6298 540.0724 87.1827 540.1842 87.1827 541.3019 86.6239 542.196 85.0591 542.8667 85.0591 543.4255 85.0591 543.8726 85.2826 544.0961 85.5062 544.7668 85.5062 545.2139 85.1708 545.4374 84.7238 545.5492 84.3884 545.5492 84.0531 545.4374 83.8296 545.4374 83.4943 545.3256 83.0472 545.4374 82.8237 545.4374 82.3766 545.4374 81.9295 545.6609 81.5942 545.8845 81.2589 546.4433 80.9235 546.6669 80.7 547.2257 80.7 547.8964 80.4765 548.3435 80.2529 549.0141 80.1411 549.4612 80.0294 549.9083 79.8058 550.02 79.4705 550.2436 79.0234 550.2436 78.4646 550.2436 77.7939 550.6906 76.8998 550.8024 76.1174 551.473 75.6703 551.8084 75.6703 552.1437 75.8938 552.5908 76.0056 552.8143 75.5585 552.479 74.9997 552.2554 74.2173 551.9201 73.7702 551.9201 73.3231 552.2554 72.9878 552.3672 72.876 552.479 72.6525 552.7025 72.3172 552.9261 71.5348 553.3732 70.8641 553.5967 70.0817 554.6026 69.8582 557.844 69.97 560.4147 69.0758 561.3089 69.1876 561.8678 68.964 562.0913 68.5169 563.7679 67.9581 566.4504 67.8463 569.8035 68.7405 572.2625 70.5288 577.7393 79.1352 580.9806 81.5942 584.222 83.0472 586.681 85.1708 587.4634 89.0828 587.1281 90.3123 585.7868 92.7713 585.5633 93.889 586.2339 95.342 589.9223 99.1422 590.1459 99.4776 590.1459 99.7011 590.593 100.4835 591.5989 102.2718 591.5989 102.4954 592.046 103.2778 592.2695 103.9484 592.1578 104.5073 591.8224 104.8426 591.5989 105.0661 591.2636 105.5132 590.9283 106.0721 590.7047 106.8545 591.04 107.6369 591.2636 107.6369 592.2695 107.4133 592.9402 107.5251 593.499 107.4133 594.1696 107.9722 594.7285 108.1957 595.5109 109.7605 599.4229 113.896 605.1232 113.6725 605.9056 113.3372 606.0174 113.3372 606.688 113.449 606.7998 113.2254 607.2469 112.8901 607.6939 112.443 608.4763 112.443 609.2587 112.1077 610.0411 111.2135 609.9294 110.5429 609.8176 109.7605 609.8176 109.4252 610.0411 108.9781 610.3765 108.1957 610.8235 108.0839 611.3824 107.5251 611.4942 106.9662 611.7177 105.9603 611.8295 105.1779 611.9413 104.619 612.1648 103.9484 612.2766 103.8366 612.8354 103.0542 614.0649 102.2718 614.512 102.2718 614.8473 102.4954 614.9591 102.7189 615.5179 102.3836 615.965 101.9365 616.4121 101.4894 616.5239 101.1541 616.5239 101.0424 616.8592 100.8188 617.418 100.707 617.8651 100.8188 617.9769 100.8188 618.424 100.8188 619.0946 100.26 619.2064 99.7011 619.3182 99.5893 619.4299 99.4776 620.2123 99.254 619.3182 96.1244 620.1006 95.2303 620.6594 95.0067 621.33 94.8949 622.0007 94.8949 622.7831 94.4479 623.3419 94.2243 623.6772 94.2243 623.9008 94.4479 624.0125 94.5596 624.5714 94.1125 625.1303 93.4419 625.5773 92.7713 625.8009 91.8771 625.9127 91.5418 626.3597 91.2065 626.3597 90.2006 626.0244 88.6358 626.0244 87.518 626.3597 87.6298 626.9186 87.6298 627.1421 87.071 627.1421 86.8474 627.3657 86.7356 627.8128 86.1768 626.695 83.3825 626.8068 82.0413 627.9245 81.5942 628.5952 81.7059 629.0422 81.8177 629.4893 81.9295 630.4953 82.153 630.8306 82.3766 631.3894 82.3766 632.1718 82.3766 632.6189 82.3766 633.1778 82.3766 633.9602 82.2648 634.4073 82.153 634.9661 82.0413 635.6367 81.8177 635.8603 81.7059 635.8603 81.5942 635.9721 81.4824 636.0838 81.2589 636.8662 80.1411 636.978 79.9176 637.9839 79.1352 638.9899 79.0234 640.2194 79.0234 640.5547 78.6881 640.6664 78.241 640.4429 77.5704 640.2194 77.2351 640.1076 77.1233 640.1076 76.8998 642.7901 74.5526 643.5725 73.9937 643.796 74.1055 644.3549 74.7761 644.6902 75.2232 644.802 75.335 644.9138 75.335 645.0255 75.335 645.8079 75.1114 646.8139 74.7761 646.8139 74.6644 648.4904 75.2232 648.3787 73.2113 649.1611 72.6525 650.3905 72.5407 651.7318 71.8701 652.2906 70.6406 652.5142 70.3053 653.5201 70.9759 653.9672 71.7583 654.3025 71.7583 655.0849 70.1935 655.3085 70.0817 655.3085 70.3053 655.3085 70.6406 655.4202 71.1994 655.532 71.9818 656.0909 72.2054 656.2026 72.0936 656.985 71.8701 657.6557 71.6465 657.6557 71.5348 657.8792 71.1994 657.7674 70.7524 657.5439 69.97 657.5439 69.6347 657.5439 69.4111 657.7674 69.1876 657.991 69.2993 658.3263 69.4111 659.2205 69.4111 659.3322 69.4111 659.6675 69.1876 659.7793 69.2993 660.0029 69.6347 660.0029 69.8582 660.1146 69.97 660.2264 70.1935 660.4499 70.0817 660.5617 70.0817 660.6735 70.0817 661.0088 69.5229 661.2323 68.964 661.5677 68.964 662.1265 69.5229 662.4618 69.97 662.4618 70.4171 662.9089 70.9759 663.4678 71.423 664.0266 71.1994 664.4737 70.9759 664.809 70.8641 664.9208 70.7524 667.4915 71.3112 672.2977 73.6584 674.9802 74.1055 675.3155 74.1055 675.4273 74.2173 677.4392 74.6644 677.7745 74.6644 678.4451 74.4408 678.5569 74.2173 678.5569 73.9937 679.2275 74.1055 680.5688 74.7761 682.4689 76.3409 683.5866 77.0116 683.8101 77.1233 683.6983 77.4586 683.6983 78.0175 684.2572 78.241 685.2631 78.1293 685.7102 78.1293 685.822 78.4646 685.9338 78.7999 686.4926 78.7999 686.6044 78.4646 686.6044 78.3528 686.8279 78.1293 687.275 78.0175 687.275 78.6881 687.3868 79.1352 687.4986 79.3587 687.6103 79.9176 688.0574 79.9176 688.3927 79.6941 688.281 79.247 688.281 79.1352 688.1692 78.7999 688.0574 78.3528 688.0574 78.0175 688.1692 77.7939 688.281 77.7939 688.3927 77.9057 688.5045 78.1293 688.7281 78.5763 689.1751 79.0234 689.5105 79.1352 689.9575 79.247 690.2928 79.0234 690.4046 78.9117 693.0871 80.9235 694.7637 81.8177 697.3344 82.6001 699.3463 83.6061 699.3463 83.7178 699.4581 84.0531 699.6816 84.5002 700.1287 84.3884 700.2405 84.3884 700.464 84.612 700.7993 84.9473 701.1347 84.9473 701.47 84.7238 702.1406 85.1708 704.9349 85.6179 707.3938 86.2886 709.9646 88.4122 710.0763 88.7475 710.4117 89.1946 710.8587 89.1946 710.9705 89.0828 711.5294 89.6417 711.5294 89.7535 711.8647 90.2006 711.9765 90.2006 703.1465 96.0127 697.7815 103.5013 685.4867 112.8901 671.7388 120.267 670.7329 121.72 669.5034 123.0613 668.3857 124.5143 676.3215 136.8091 681.1276 141.28 687.9457 148.7686 693.3107 162.293 692.8636 185.6531 677.7745 186.1002 663.5795 175.1466 652.8495 173.2465 644.1314 176.7114 642.1195 182.6353 649.8317 200.7422 649.9435 209.4604 645.5844 213.4842 634.2955 213.9312 621.6653 213.9312 617.1945 213.0371 615.0708 209.2369 608.0293 205.5484 601.6583 206.5543 600.6524 212.4782 600.5406 222.6494 593.0519 223.7671 582.769 225.8908 571.7036 233.8265 556.391 243.8859 548.567 246.0096 540.743 243.1035 536.2722 238.0738 533.3661 234.7207 502.9644 234.2736 501.9584 229.3557Z" />
  <path class="Dubréka" d="M267.5743 321.3433L267.5743 336.4325 269.5861 339.3385 270.4803 344.0329 267.9096 348.1684 264.6682 351.5216 264.6682 362.3634 258.0737 364.9341 253.9382 368.6226 252.7087 372.4228 247.3437 377.7878 243.3199 377.7878 232.1428 378.682 225.5483 384.1587 221.0774 391.6474 219.4009 402.0421 221.0774 409.9779 221.0774 414.5605 217.7243 420.8197 213.7006 426.2965 214.4829 436.3559 215.3771 443.7328 213.477 446.3035 211.018 447.0859 209.1179 445.8564 207.2178 443.3975 205.7648 440.2679 205.4295 437.5854 201.1822 439.2619 197.9408 441.2738 193.8053 436.9147 196.5996 433.6734 198.2761 429.9849 200.288 426.6318 200.6233 424.5081 200.5116 416.5724 200.6233 415.5664 201.2939 414.8958 203.1941 414.1134 203.5294 413.2193 204.4235 411.6545 206.4354 410.7603 208.4473 409.419 209.1179 407.0718 206.3237 408.6366 204.6471 409.0837 203.1941 408.1895 197.2702 401.0362 196.8231 399.4714 196.2642 399.6949 195.8172 399.8067 194.923 400.3656 196.4878 404.7246 196.9349 408.6366 195.3701 411.7662 191.2345 413.7781 186.2048 413.2193 183.6341 409.9779 183.2988 405.507 184.64 401.3715 190.3404 394.2182 192.5758 389.6355 192.1287 385.0529 191.4581 384.4941 191.4581 384.2705 190.1168 381.9233 188.9991 380.8056 187.6579 380.2468 186.7637 380.0232 181.3987 380.0232 179.8339 379.6879 179.1633 379.4644 178.4926 379.129 162.8447 365.8283 162.174 365.0459 161.727 364.1517 161.2799 363.1458 160.8328 361.3574 161.0563 360.3515 161.6152 359.6809 166.8684 351.8569 170.7804 344.3682 173.7982 336.4325 182.5164 336.4325 193.2464 338.6679 219.7362 344.3682 230.1309 341.6857 235.7195 333.4146 245.6671 325.2553 256.956 322.3493 267.5743 321.3433Z" />
  <path class="Faranah" d="M615.6297 509.9013L615.5179 509.0072 613.8414 507.6659 610.7118 506.7717 605.235 506.2129 599.5347 506.4364 594.6167 504.8716 593.7226 499.8419 595.1756 493.918 597.6345 489.559 598.9758 488.553 600.5406 487.8824 601.9936 486.9882 602.9996 485.4234 603.2231 484.0822 602.6642 481.735 602.6642 480.5055 603.2231 478.8289 604.1173 477.2641 604.5644 475.6993 604.4526 474.0228 598.5287 468.8813 597.1875 468.2107 595.2873 466.9812 593.7226 465.5282 592.046 463.0692 590.8165 462.7339 589.3635 462.7339 588.0222 462.6221 587.1281 462.7339 584.6691 462.6221 582.9925 462.0633 584.3338 460.9455 585.7868 459.8278 585.4515 459.0454 583.3278 457.7042 581.316 455.4688 579.7512 453.3451 579.1923 450.8861 579.9747 447.4212 580.0865 445.4094 579.0805 444.5152 577.6275 443.8446 576.6216 442.6151 575.9509 438.8149 575.5039 437.5854 574.1626 436.2441 570.6977 433.7851 569.6917 432.4439 568.6858 428.7554 568.127 427.7495 567.2328 426.9671 564.9974 426.1847 564.215 425.7376 563.4326 424.3964 561.756 419.702 558.5146 413.4428 553.8202 407.2954 548.1199 401.8186 537.9487 395.3359 536.9428 393.6593 535.0427 384.4941 534.1485 381.4762 532.5837 380.135 530.6836 379.9114 526.101 378.5702 522.5243 378.2349 498.3817 378.3466 502.0702 369.0696 506.2057 354.4276 508.3294 322.6846 518.6123 319.3315 525.9892 313.0723 537.9487 311.731 545.3256 305.0248 557.2851 292.9535 567.121 289.6003 576.1745 286.2472 581.0924 287.9238 586.0103 292.9535 597.1875 293.7359 607.4704 292.5064 611.6059 287.4767 614.9591 285.4648 616.7474 287.4767 617.6416 288.8179 617.8651 289.8239 617.9769 290.9416 617.8651 292.2828 618.0887 293.177 618.424 294.0712 618.9828 294.63 619.5417 294.9653 620.3241 295.1889 623.3419 295.4124 624.3479 295.7477 625.242 296.3066 626.0244 296.8655 632.3954 303.907 633.8484 304.6894 634.519 305.1365 636.4191 307.2602 637.5369 306.9249 638.7663 306.7013 639.7723 306.1425 640.4429 305.2483 640.89 304.0188 642.2312 304.4659 646.1432 304.913 648.8257 305.0248 649.9435 304.8012 655.1967 303.5717 656.3144 304.0188 657.2086 304.913 658.6616 305.9189 660.6735 306.4778 664.3619 306.2542 666.1503 306.9249 664.4737 308.3779 664.6972 309.7191 667.6033 312.1781 668.1622 313.184 669.1681 315.8666 669.5034 316.5372 670.7329 316.0901 670.9564 314.9724 670.9564 313.9664 671.4035 313.5194 672.4095 313.0723 675.6508 310.6133 676.4332 309.7191 676.8803 307.2602 676.7685 305.0248 677.998 304.3541 678.5569 304.6894 679.004 308.6014 679.2275 309.1603 679.451 309.7191 679.8981 310.278 680.1217 311.0604 680.0099 312.0663 678.8922 313.7429 678.1098 314.6371 677.4392 315.5312 677.1039 316.4254 677.1039 317.9902 677.4392 318.8844 677.7745 319.555 678.2216 320.0021 678.4451 320.7845 678.1098 322.1257 673.6389 331.1792 672.633 332.5205 671.7388 332.8558 670.8447 332.9675 669.0563 332.8558 666.1503 332.1851 665.5914 332.5205 665.3679 333.1911 665.4796 334.5323 665.5914 335.4265 665.7032 336.7678 665.0326 340.9033 665.0326 342.2446 665.2561 343.3623 665.4796 344.0329 666.1503 346.2683 666.9327 347.4978 667.268 348.0567 668.0504 349.1744 668.2739 349.845 668.2739 350.8509 668.0504 352.0804 666.8209 354.3158 665.9267 355.3218 665.1443 356.1042 663.9149 356.663 663.356 357.3337 660.3382 361.8045 658.7734 362.9222 658.3263 363.3693 657.8792 363.9282 657.4321 364.487 656.985 364.9341 656.4262 365.3812 655.8673 365.6047 655.1967 365.8283 653.7437 365.7165 653.073 365.7165 652.626 366.3871 652.2906 367.3931 652.4024 370.5227 652.2906 371.7521 651.9553 372.8699 651.1729 374.3229 650.6141 375.2171 649.3846 376.223 648.714 377.1172 648.4904 377.7878 648.3787 378.3466 648.3787 379.129 648.6022 380.5821 649.8317 383.5999 650.0552 384.3823 650.3905 386.953 650.6141 387.7354 651.3965 388.8531 651.9553 390.1944 652.626 391.4239 652.8495 392.2063 652.7377 393.1004 652.4024 394.2182 650.5023 397.3477 649.9435 397.6831 649.2728 397.9066 647.4845 398.1301 646.7021 398.3537 646.1432 399.1361 645.6961 400.4773 645.4726 404.9482 645.6961 406.1777 645.9197 406.8483 646.3668 407.4072 646.5903 407.966 646.7021 408.5249 646.1432 408.9719 644.5784 409.6426 644.0196 410.0897 642.9019 411.4309 641.5606 412.3251 641.0018 412.6604 640.5547 413.2193 640.2194 413.7781 639.9958 414.6723 639.9958 416.1253 641.1135 422.9433 641.1135 424.9552 640.7782 428.4201 639.6605 431.6615 639.1017 439.5972 641.2253 445.8564 643.6843 451.7803 644.9138 462.9574 643.2372 475.9229 637.5369 480.0584 633.7366 485.0881 631.3894 490.7884 630.16 496.1535 628.5952 500.5125 628.1481 501.2949 626.1362 503.0833 618.6475 508.2248 615.6297 509.9013Z" />
  <path class="Forécariah" d="M273.7217 438.3678L279.5338 435.4617 282.7751 430.432 288.1402 426.2965 296.4112 421.7139 304.1234 419.5902 325.5835 420.0373 333.4075 423.8375 340.5608 426.0729 340.4491 431.9968 339.8902 433.1145 338.7725 433.2263 337.4312 433.1145 336.09 433.5616 335.5311 434.6793 334.3017 439.2619 333.9663 439.9326 333.631 440.2679 333.1839 440.4914 332.4015 440.715 331.3956 441.2738 331.2838 441.8327 331.5074 442.5033 331.5074 443.1739 326.813 458.263 326.2541 459.0454 325.2482 459.8278 324.8011 460.3867 324.4658 461.2809 323.9069 462.0633 323.2363 461.9515 322.5657 461.5044 322.0068 461.3926 319.6596 462.7339 318.8772 463.4045 317.7595 464.8575 317.8713 465.9752 318.4301 467.2047 318.3184 468.3224 316.4183 468.7695 314.0711 469.999 310.7179 475.4758 308.4825 477.3759 305.5765 477.9348 303.0057 477.7112 300.3232 477.9348 297.3054 479.4996 294.6229 476.7053 291.7168 478.7172 289.5932 482.9645 288.9226 486.9882 289.5932 488.3295 291.4933 490.6767 291.6051 491.7944 291.0462 492.0179 288.9226 492.2415 288.1402 492.5768 286.7989 494.4769 285.6812 496.4888 283.8928 500.8479 281.9927 503.195 279.5338 504.7598 274.2805 507.3306 270.145 510.4602 268.0213 510.7955 264.8917 509.6778 259.7503 506.4364 257.5149 505.8776 253.9382 506.5482 248.0143 508.3365 244.7729 510.7955 243.2081 509.7895 241.9787 508.6718 241.4198 507.107 241.8669 504.9834 242.2022 504.8716 244.3259 504.9834 244.7729 504.7598 244.7729 504.3128 244.6612 503.6421 244.7729 503.195 248.4614 499.2831 251.0321 495.0358 252.7087 493.0239 255.0559 491.6826 257.5149 491.5708 261.8739 492.465 264.4447 491.6826 264.4447 490.7884 256.0618 491.1238 252.1498 490.6767 250.4733 489.2237 250.6968 488.7766 251.9263 487.6589 252.3734 486.8765 252.3734 485.0881 253.3793 482.2938 254.0499 479.3878 251.0321 482.5174 249.8026 485.9823 248.9085 489.559 247.5672 493.5827 244.2141 492.1297 242.7611 491.2355 241.8669 489.7825 243.0964 489.1119 243.3199 487.7706 242.8728 484.1939 243.0964 484.1939 243.3199 483.5233 243.6552 482.5174 243.767 481.8468 243.5435 481.2879 242.2022 480.5055 241.8669 480.282 241.4198 477.4877 241.4198 473.3521 242.314 470.7814 244.7729 472.6815 244.3259 469.6637 244.4376 468.3224 244.7729 466.9812 243.767 466.9812 242.9846 467.9871 241.8669 468.546 240.4139 468.8813 238.6255 468.8813 237.6196 469.5519 236.949 471.005 235.6077 477.3759 234.7135 478.7172 231.5839 477.1524 230.1309 476.7053 229.5721 475.8111 230.6898 473.6875 229.2367 472.458 227.8955 470.3343 227.0013 467.6518 226.7778 465.0811 227.7837 462.3986 230.8015 458.4866 231.6957 455.5805 230.6898 455.5805 227.3366 458.1513 222.1952 458.4866 217.6125 457.0336 215.6007 454.1275 214.7065 449.992 214.7065 447.7565 216.1595 445.6329 217.389 444.0681 218.3949 442.2798 219.0656 440.1561 219.2891 437.5854 223.5364 434.2322 228.0073 433.7851 235.4959 431.3262 242.4257 427.973 248.2378 430.432 253.6029 435.9088 257.6266 438.3678 267.9096 439.2619 273.7217 438.3678Z" />
  <path class="Fria" d="M173.7982 336.4325L172.457 328.4967 174.916 322.6846 182.4046 314.3018 185.646 309.2721 191.4581 307.1484 193.9171 305.4718 200.5116 300.4421 202.0763 278.0879 230.578 280.0998 257.4031 294.63 259.0796 306.0307 256.0618 311.3957 256.5089 316.649 256.956 322.3493 245.6671 325.2553 235.7195 333.4146 230.1309 341.6857 219.7362 344.3682 193.2464 338.6679 182.5164 336.4325 173.7982 336.4325Z" />
  <path class="Gaoual" d="M146.9732 149.3275L149.5439 148.4333 155.4678 144.7449 156.4737 143.9625 159.4915 145.4155 162.174 145.4155 164.633 143.9625 166.3096 141.28 166.7567 139.9387 166.9802 136.8091 166.4213 135.2443 166.8684 134.4619 168.8803 134.4619 170.1098 135.3561 170.5569 138.1504 171.6746 138.821 173.6865 139.3799 173.7982 140.274 173.4629 141.3917 174.2453 142.3977 177.0396 142.733 180.5045 142.1741 183.8576 140.8329 185.9813 139.1563 186.7637 137.368 187.4343 131.3323 187.4343 128.7616 185.4224 112.3312 185.8695 106.5191 186.9872 100.8188 186.8755 98.1363 185.3107 95.9009 184.0812 95.2303 179.1633 94.4479 176.9278 93.4419 175.363 92.3242 172.3452 89.0828 171.5628 87.6298 171.2275 86.6239 170.5569 85.7297 166.8684 84.5002 165.5272 83.4943 162.8447 80.9235 160.1622 79.247 157.4796 78.3528 153.7912 77.9057 152.7853 77.3469 153.3441 75.7821 153.3441 72.7642 153.6794 71.3112 156.6972 67.9581 165.0801 64.0461 168.3215 61.3636 170.8922 59.7988 174.6924 58.7928 177.0396 59.5752 175.2513 62.7048 184.5283 62.5931 188.552 61.14 190.7875 57.5634 194.4759 64.9403 194.5877 66.058 196.2642 65.7227 204.6471 61.5871 206.7707 59.7988 207.7767 59.2399 209.0062 58.9046 212.3593 59.2399 212.9182 58.0105 213.7006 57.7869 215.4889 59.1282 220.6304 60.4694 219.4009 56.4457 219.6244 55.2162 220.9657 56.2221 222.0834 57.5634 223.5364 59.1282 225.1012 59.687 228.2308 55.3279 229.7956 55.2162 231.4722 54.9926 234.2664 56.3339 235.1606 58.234 234.2664 59.5752 233.1487 59.9106 232.4781 60.5812 232.8134 62.7048 233.9311 64.4932 235.3842 65.4991 237.396 66.7286 238.6255 68.1816 239.6315 70.4171 240.3021 72.5407 240.5256 74.6644 239.0726 79.4705 238.8491 81.7059 239.1844 83.8296 240.1903 85.8415 241.1963 87.2945 242.4257 88.6358 243.8788 89.4182 245.4436 89.3064 245.4436 88.3004 244.7729 86.6239 244.6612 85.2826 246.226 85.0591 248.1261 86.1768 248.5732 87.8534 248.4614 89.7535 248.3496 91.7653 248.5732 92.5477 249.8026 94.3361 252.5969 95.1185 257.0678 96.4597 283.5575 96.2362 285.3459 92.6595 288.5872 90.4241 291.4933 87.071 300.435 86.6239 304.2352 83.9414 307.253 80.0294 309.6002 77.0116 311.5003 80.2529 312.171 82.6001 312.2827 83.4943 312.3945 84.612 310.1591 99.7011 309.4884 101.713 304.7941 110.4311 304.7941 111.3253 305.3529 111.9959 306.2471 112.443 307.3648 112.7783 308.0354 112.8901 308.7061 112.6666 309.3767 111.8842 310.6062 109.8723 311.3886 109.0899 312.171 108.6428 313.1769 108.6428 313.8475 108.9781 314.2946 109.537 315.1888 111.1018 315.8594 112.5548 316.0829 113.6725 316.0829 114.5667 315.8594 115.3491 312.5063 121.6083 311.2768 128.2028 311.165 131.6677 312.171 137.4798 312.2827 139.827 312.3945 141.0564 312.618 141.7271 312.9534 142.3977 313.5122 142.8448 314.8535 143.5154 315.4123 143.9625 316.0829 145.192 316.6418 146.5332 316.8653 147.3156 317.2007 147.9862 317.9831 148.5451 318.2066 148.8804 318.5419 149.4393 318.8772 149.8864 319.4361 150.4452 319.9949 150.8923 320.5538 151.2276 325.36 153.2395 326.0306 153.5748 326.3659 154.3572 326.4777 155.2514 326.1424 156.8162 326.2541 157.7103 326.4777 158.4927 326.4777 159.2751 326.1424 160.2811 324.6893 161.3988 323.7952 162.0694 320.7773 163.2989 319.5479 164.0813 318.6537 165.0872 313.2887 172.7994 310.1591 175.0349 302.3351 178.7233 301.6645 179.0586 298.5349 182.4118 296.7465 183.8648 296.0759 184.2001 295.5171 184.5354 294.8464 185.5414 294.1758 187.2179 292.1639 194.1477 290.7109 197.0538 288.0284 201.1893 287.3578 202.6424 290.2638 214.8254 280.4279 214.3783 279.1985 214.9372 273.9452 216.9491 261.8739 219.8551 254.8323 220.3022 253.9382 220.1904 252.5969 219.0727 252.3734 218.5139 249.8026 192.1359 247.679 191.4652 247.1201 191.2417 245.6671 191.2417 237.5078 189.6769 231.8075 187.8886 225.7718 188.1121 224.9894 187.665 223.8717 187.3297 222.4187 187.2179 210.4592 187.4415 208.4473 187.8886 206.4354 188.5592 203.0823 190.2358 201.6293 191.4652 200.6233 192.3594 199.7292 193.03 198.4997 193.4771 196.2642 193.7007 194.5877 193.7007 192.1287 193.3653 191.4581 193.03 190.8992 192.8065 190.2286 192.5829 189.1109 192.4712 183.9694 193.3653 177.5985 195.6008 175.4748 197.6127 170.8922 190.2358 165.0801 189.0063 161.3916 185.6531 160.1622 178.4998 158.1503 170.564 153.1206 166.7638 146.1908 166.7638 142.5023 163.746 142.5023 159.6105 145.7437 155.3631 146.9732 149.3275Z" />
  <path class="Guéckédou" d="M714.3237 585.7939L712.4235 586.241 711.6411 586.3528 709.0704 586.3528 706.7232 586.6881 704.4878 587.4705 702.2524 588.5882 696.8873 592.8355 691.4106 596.0769 688.3927 596.6358 686.6044 595.9651 686.0455 594.065 687.3868 587.5823 686.4926 585.5704 684.369 584.4527 676.6568 582.4408 674.3096 582.4408 671.9624 583.1114 667.3798 587.6941 665.0326 589.0353 664.0266 586.6881 661.1206 587.8058 659.7793 588.0294 658.2145 587.9176 656.6497 588.1411 655.532 587.8058 654.4143 587.1352 650.6141 586.0175 649.7199 585.9057 645.5844 586.5763 643.4607 587.3587 641.7842 588.4765 640.2194 589.9295 638.8781 591.8296 635.525 598.6476 633.8484 600.7713 625.8009 608.707 620.9947 611.8366 618.424 612.8426 616.971 612.5073 613.059 610.0483 611.0471 609.1541 606.4645 608.9306 602.6642 610.1601 599.9817 613.0661 598.9758 617.6487 596.1815 615.3015 597.6345 610.7189 600.7641 606.0245 603.2231 603.1185 605.235 599.7653 607.2469 587.8058 608.6999 587.5823 609.0352 586.5763 609.0352 584.8998 609.3705 582.9997 610.3765 581.3231 612.5001 579.3112 614.6238 575.2875 616.8592 572.3814 619.4299 570.146 622.2242 569.5871 625.3538 569.3636 627.9245 567.5752 629.8246 564.8927 630.9424 561.8749 625.0185 554.0509 624.2361 552.7097 622.2242 551.1449 616.6356 543.6562 616.1886 543.3209 615.1826 542.6503 614.7355 542.0914 614.7355 541.6443 614.8473 540.1913 614.8473 539.5207 613.5061 535.6087 613.2825 534.2674 613.059 524.0963 613.7296 519.2901 615.8532 511.1308 615.7415 510.6837 615.6297 509.9013 618.6475 508.2248 626.1362 503.0833 628.1481 501.2949 628.5952 500.5125 630.16 496.1535 631.3894 490.7884 636.3074 493.8063 637.0898 494.5887 637.6486 496.0417 636.4191 504.7598 636.6427 505.654 637.0898 506.2129 642.1195 510.0131 644.2431 510.5719 656.538 525.3257 656.7615 526.1081 657.0968 526.7788 657.4321 527.2259 658.5498 527.6729 664.2502 529.126 666.262 530.1319 667.6033 531.1378 668.9446 533.8204 669.1681 534.2674 670.9564 534.3792 673.9743 534.3792 684.9278 532.7026 687.275 532.032 689.1751 530.9143 690.0693 530.2437 691.187 529.126 698.3404 524.9904 699.6816 524.4316 705.382 525.1022 728.4068 530.3554 726.842 535.944 725.1655 540.5266 719.018 542.9856 713.9883 545.8916 709.5175 550.4743 707.8409 559.3042 714.3237 585.7939Z" />
  <path class="Kankan" d="M949.9373 384.6058L947.0312 385.7235 946.9195 386.953 947.3666 388.4061 947.8136 389.5238 948.2607 389.7473 949.0431 389.8591 949.8255 390.0826 950.3844 390.7532 950.6079 393.2122 950.8315 393.9946 950.6079 394.3299 949.9373 394.4417 949.602 395.0006 950.1608 396.23 950.7197 396.4536 953.2904 396.23 953.8493 399.2479 948.8196 435.3499 948.7078 436.5794 948.7078 439.709 949.2667 442.8386 949.9373 445.2976 950.9432 447.533 958.879 458.9337 961.2262 461.3926 950.4961 460.9455 941.8898 464.8575 933.7305 469.2166 927.0242 469.999 918.0825 466.087 912.2704 464.0751 905.2288 463.7398 907.0172 453.0098 905.7877 444.1799 899.1932 435.4617 892.5987 429.6496 884.4394 426.2965 878.6273 423.8375 864.6559 422.9433 859.2909 421.7139 856.0495 416.2371 849.7903 413.7781 830.4539 415.0076 816.9296 422.1609 809.5527 427.973 804.523 447.533 803.5171 457.3689 786.6396 451.6685 758.585 452.7862 747.6315 442.0562 747.1844 442.0562 743.1606 441.3856 741.9311 441.3856 730.4187 439.1502 719.6887 439.709 711.5294 433.7851 703.0348 423.614 707.3938 420.8197 717.3415 419.1431 722.2594 412.5486 727.1773 409.1955 727.6244 401.7068 732.5424 395.3359 737.9074 391.2003 739.1369 377.4525 735.4484 371.1933 735.4484 349.3979 740.3663 338.109 742.3782 316.7607 748.9727 309.2721 763.8383 293.7359 770.7681 283.3411 775.7978 277.082 782.7276 273.2817 792.6752 277.082 804.523 279.5409 812.0117 282.8941 838.725 285.0177 839.9545 299.6597 841.1839 307.5955 847.7784 315.0842 853.4788 317.2078 863.4264 319.3315 868.3443 323.0199 870.8033 331.4028 871.5857 338.109 878.6273 345.2624 892.2634 347.2743 905.3406 349.845 911.9351 352.751 913.1646 359.9044 917.3001 369.5167 924.3417 377.0054 934.96 380.8056 941.5545 383.7117 949.9373 384.6058Z" />
  <path class="Kérouané" d="M803.5171 457.3689L804.523 447.533 809.5527 427.973 816.9296 422.1609 830.4539 415.0076 849.7903 413.7781 856.0495 416.2371 859.2909 421.7139 864.6559 422.9433 878.6273 423.8375 884.4394 426.2965 892.5987 429.6496 899.1932 435.4617 905.7877 444.1799 907.0172 453.0098 905.2288 463.7398 899.305 465.6399 898.1872 471.2285 893.4928 472.7933 888.7985 479.1642 885.6689 485.0881 879.4097 489.4472 873.374 499.9537 872.927 501.2949 872.5916 502.6362 871.4739 504.9834 871.2504 505.7658 871.1386 506.5482 866.2207 508.7836 860.2968 511.4661 849.7903 513.478 843.9782 516.2723 838.0543 521.7491 813.4647 528.9024 801.0581 527.6729 796.699 516.6076 794.3518 505.2069 787.8691 504.0892 790.1045 489.2237 801.2816 482.4056 803.5171 457.3689Z" />
  <path class="Kindia" d="M407.9589 394.1064L403.5998 395.0006 401.2526 394.8888 399.0172 394.4417 396.4464 393.4358 393.2051 391.4239 390.6343 389.1884 388.1754 387.6237 385.0458 387.5119 364.4799 391.871 358.2207 394.1064 353.3028 397.0124 352.5204 398.3537 352.4086 399.1361 352.6321 400.142 352.6321 401.595 350.732 411.878 350.8438 412.3251 351.2909 413.8899 351.4026 414.5605 350.9556 414.8958 350.2849 414.784 349.6143 414.784 349.279 415.4547 349.3908 417.1312 349.1672 417.6901 348.7201 417.8019 344.4728 420.3726 343.2433 421.7139 341.0079 425.6259 340.5608 426.0729 333.4075 423.8375 325.5835 420.0373 304.1234 419.5902 296.4112 421.7139 288.1402 426.2965 282.7751 430.432 279.5338 435.4617 273.7217 438.3678 273.2746 432.5557 271.2627 426.2965 265.1153 418.3607 259.3032 416.2371 253.9382 412.8839 252.3734 407.0718 255.1677 402.9363 257.2913 398.3537 256.0618 386.1706 253.1558 382.8175 247.3437 377.7878 252.7087 372.4228 253.9382 368.6226 258.0737 364.9341 264.6682 362.3634 264.6682 351.5216 267.9096 348.1684 270.4803 344.0329 269.5861 339.3385 267.5743 336.4325 267.5743 321.3433 279.8691 318.4373 295.07 313.8547 300.2114 312.2899 306.2471 310.5015 308.259 305.3601 309.8238 305.1365 311.6121 304.6894 312.9534 305.1365 315.077 306.8131 317.4242 308.0426 318.5419 308.7132 319.4361 309.4956 322.3421 311.2839 325.1364 312.0663 326.7012 311.5075 327.8189 310.3898 329.2719 307.4837 331.1721 305.9189 333.9663 304.0188 339.4431 301.8952 344.6964 299.2127 351.1791 292.8417 352.7439 291.8358 353.7498 291.5004 354.4205 291.5004 355.4264 292.0593 355.7617 295.636 354.8675 298.542 355.0911 299.995 355.7617 301.1128 357.4383 302.0069 358.4442 302.454 361.015 303.2364 362.3562 303.6835 363.2504 304.5777 363.6975 307.2602 364.3681 308.4897 366.0447 309.2721 368.1683 310.5015 370.5155 312.8487 367.9448 315.7548 367.4977 316.4254 367.2741 317.4314 367.3859 319.7785 367.1624 321.2316 366.2682 324.1376 365.0387 326.8201 364.5916 328.3849 364.5916 330.285 366.8271 339.115 367.1624 339.7856 367.7212 340.3444 368.8389 340.7915 370.1802 340.9033 371.5215 340.9033 372.7509 340.7915 376.7747 339.3385 378.2277 339.115 379.6807 339.0032 381.022 339.2267 384.8222 340.1209 386.7223 340.2327 387.7283 340.2327 389.1813 339.8974 389.6284 339.7856 390.0755 339.8974 390.6343 340.2327 391.6403 341.7975 397.4524 352.9746 405.7234 363.7046 406.0587 365.1576 406.2823 367.2813 406.1705 371.9757 405.947 374.0993 405.6117 375.5524 403.5998 380.135 403.1527 381.4762 403.2645 382.8175 404.941 388.1825 407.8471 394.1064 407.9589 394.1064Z" />
  <path class="Kissidougou" d="M631.3894 490.7884L633.7366 485.0881 637.5369 480.0584 643.2372 475.9229 644.9138 462.9574 643.6843 451.7803 641.2253 445.8564 639.1017 439.5972 639.6605 431.6615 657.0968 433.7851 658.3263 433.7851 659.7793 433.5616 662.2383 432.5557 663.4678 431.7733 664.2502 431.1026 665.7032 429.5378 668.6092 424.8435 672.0741 420.5961 673.7507 419.0314 674.1978 418.696 674.6449 418.3607 676.3215 417.9136 678.5569 417.4666 685.3749 417.0195 692.7518 417.3548 693.9813 417.5783 697.8933 419.3667 703.0348 423.614 711.5294 433.7851 719.6887 439.709 730.4187 439.1502 741.9311 441.3856 743.1606 441.3856 747.1844 442.0562 747.6315 442.0562 758.585 452.7862 786.6396 451.6685 803.5171 457.3689 801.2816 482.4056 790.1045 489.2237 787.8691 504.0892 785.7454 508.3365 784.1806 517.5018 776.1331 526.4435 762.1617 534.2674 758.9204 535.2734 755.2319 535.8322 752.6612 535.944 728.4068 530.3554 705.382 525.1022 699.6816 524.4316 698.3404 524.9904 691.187 529.126 690.0693 530.2437 689.1751 530.9143 687.275 532.032 684.9278 532.7026 673.9743 534.3792 670.9564 534.3792 669.1681 534.2674 668.9446 533.8204 667.6033 531.1378 666.262 530.1319 664.2502 529.126 658.5498 527.6729 657.4321 527.2259 657.0968 526.7788 656.7615 526.1081 656.538 525.3257 644.2431 510.5719 642.1195 510.0131 637.0898 506.2129 636.6427 505.654 636.4191 504.7598 637.6486 496.0417 637.0898 494.5887 636.3074 493.8063 631.3894 490.7884Z" />
  <path class="Koubia" d="M379.4572 136.6974L395.5523 136.4738 399.6878 139.0446 407.8471 141.9506 412.4297 145.7508 419.3595 146.9803 428.8601 147.0921 432.4367 144.2978 435.0075 144.6331 437.69 144.186 439.143 142.8448 444.508 141.0564 449.426 138.5975 458.4794 136.9209 474.1274 136.4738 475.804 130.997 479.0453 120.0435 485.1927 114.2314 488.993 103.7249 495.1404 90.6476 495.4757 79.6941 503.8585 83.4943 506.3175 85.3944 511.7943 92.8831 512.8002 139.827 511.5707 145.3037 498.8288 147.8745 488.0988 151.2276 484.4103 159.6105 474.5745 167.0991 450.2084 177.6056 430.5366 189.0063 423.495 193.5889 422.1538 198.2833 418.8007 198.5068 416.2299 197.7244 415.3358 197.7244 414.4416 192.8065 413.6592 187.7768 408.7413 182.6353 401.9232 172.1288 390.1872 155.3631 381.9162 143.6272 379.4572 136.6974Z" />
  <path class="Koundara" d="M343.8022 47.951L343.6904 48.1746 339.3314 51.0806 333.0722 53.9867 328.7131 56.8927 326.813 58.5693 325.2482 59.4635 323.6834 60.1341 316.6418 62.5931 314.7417 63.8226 313.5122 64.9403 309.9355 75.5585 309.6002 77.0116 307.253 80.0294 304.2352 83.9414 300.435 86.6239 291.4933 87.071 288.5872 90.4241 285.3459 92.6595 283.5575 96.2362 257.0678 96.4597 252.5969 95.1185 249.8026 94.3361 248.5732 92.5477 248.3496 91.7653 248.4614 89.7535 248.5732 87.8534 248.1261 86.1768 246.226 85.0591 244.6612 85.2826 244.7729 86.6239 245.4436 88.3004 245.4436 89.3064 243.8788 89.4182 242.4257 88.6358 241.1963 87.2945 240.1903 85.8415 239.1844 83.8296 238.8491 81.7059 239.0726 79.4705 240.5256 74.6644 240.3021 72.5407 239.6315 70.4171 238.6255 68.1816 237.396 66.7286 235.3842 65.4991 233.9311 64.4932 232.8134 62.7048 232.4781 60.5812 233.1487 59.9106 234.2664 59.5752 235.1606 58.234 234.2664 56.3339 231.4722 54.9926 229.7956 55.2162 228.2308 55.3279 225.1012 59.687 223.5364 59.1282 222.0834 57.5634 220.9657 56.2221 219.6244 55.2162 219.4009 56.4457 220.6304 60.4694 215.4889 59.1282 213.7006 57.7869 212.9182 58.0105 212.3593 59.2399 209.0062 58.9046 207.7767 59.2399 206.7707 59.7988 204.6471 61.5871 196.2642 65.7227 194.5877 66.058 194.4759 64.9403 190.7875 57.5634 191.3463 53.8749 192.464 51.0806 192.5758 49.5158 192.1287 45.4921 192.2405 43.592 192.5758 42.4743 195.0348 36.6622 195.4818 34.315 195.1465 31.856 193.5817 29.0617 186.6519 20.3436 185.4224 16.5433 185.0871 13.4138 186.2048 4.1367 230.578 5.8133 236.7254 7.4899 237.1725 7.6017 237.7314 7.8252 238.9608 8.7194 239.6315 8.9429 240.4139 8.9429 240.7492 8.6076 241.0845 8.1605 241.7551 7.937 245.8906 7.0428 247.1201 6.931 248.2378 7.2663 249.9144 8.384 251.1439 8.6076 252.2616 8.384 254.6088 7.7134 255.6147 7.7134 256.3971 8.0487 257.7384 9.5018 258.2972 9.7253 258.8561 9.7253 260.6444 9.1664 261.8739 9.1664 262.7681 9.0547 263.6623 9.0547 264.78 9.8371 266.1212 8.2723 268.5802 9.6135 271.0392 9.5018 273.3864 9.0547 275.51 9.39 277.2983 11.2901 277.8572 13.9726 277.7454 16.7669 277.1866 19.2259 275.1747 24.032 274.6158 26.2674 275.2865 29.0617 276.8513 31.2971 278.8631 32.4149 281.2103 32.6384 283.8928 32.3031 286.3518 33.309 288.5872 33.0855 290.152 31.7442 290.5991 29.0617 292.9463 23.4732 297.8642 23.3614 303.2293 26.1557 306.6942 29.1735 306.5824 29.7323 306.3589 30.7383 306.6942 31.856 308.1472 33.1972 309.3767 33.7561 313.5122 33.9796 315.6359 35.0974 316.1947 36.4386 317.0889 37.5563 319.8832 38.0034 328.7131 37.4446 331.5074 37.7799 334.1899 38.8976 336.4253 40.6859 340.3373 45.045 341.0079 46.3862 341.1197 47.3922 341.6785 47.951 343.5787 47.951 343.8022 47.951Z" />
  <path class="Kouroussa" d="M639.6605 431.6615L640.7782 428.4201 641.1135 424.9552 641.1135 422.9433 639.9958 416.1253 639.9958 414.6723 640.2194 413.7781 640.5547 413.2193 641.0018 412.6604 641.5606 412.3251 642.9019 411.4309 644.0196 410.0897 644.5784 409.6426 646.1432 408.9719 646.7021 408.5249 646.5903 407.966 646.3668 407.4072 645.9197 406.8483 645.6961 406.1777 645.4726 404.9482 645.6961 400.4773 646.1432 399.1361 646.7021 398.3537 647.4845 398.1301 649.2728 397.9066 649.9435 397.6831 650.5023 397.3477 652.4024 394.2182 652.7377 393.1004 652.8495 392.2063 652.626 391.4239 651.9553 390.1944 651.3965 388.8531 650.6141 387.7354 650.3905 386.953 650.0552 384.3823 649.8317 383.5999 648.6022 380.5821 648.3787 379.129 648.3787 378.3466 648.4904 377.7878 648.714 377.1172 649.3846 376.223 650.6141 375.2171 651.1729 374.3229 651.9553 372.8699 652.2906 371.7521 652.4024 370.5227 652.2906 367.3931 652.626 366.3871 653.073 365.7165 653.7437 365.7165 655.1967 365.8283 655.8673 365.6047 656.4262 365.3812 656.985 364.9341 657.4321 364.487 657.8792 363.9282 658.3263 363.3693 658.7734 362.9222 660.3382 361.8045 663.356 357.3337 663.9149 356.663 665.1443 356.1042 665.9267 355.3218 666.8209 354.3158 668.0504 352.0804 668.2739 350.8509 668.2739 349.845 668.0504 349.1744 667.268 348.0567 666.9327 347.4978 666.1503 346.2683 665.4796 344.0329 665.2561 343.3623 665.0326 342.2446 665.0326 340.9033 665.7032 336.7678 665.5914 335.4265 665.4796 334.5323 665.3679 333.1911 665.5914 332.5205 666.1503 332.1851 669.0563 332.8558 670.8447 332.9675 671.7388 332.8558 672.633 332.5205 673.6389 331.1792 678.1098 322.1257 678.4451 320.7845 678.2216 320.0021 677.7745 319.555 677.4392 318.8844 677.1039 317.9902 677.1039 316.4254 677.4392 315.5312 678.1098 314.6371 678.8922 313.7429 680.0099 312.0663 680.1217 311.0604 679.8981 310.278 679.451 309.7191 679.2275 309.1603 679.004 308.6014 678.5569 304.6894 677.998 304.3541 676.7685 305.0248 676.8803 307.2602 676.4332 309.7191 675.6508 310.6133 672.4095 313.0723 671.4035 313.5194 670.9564 313.9664 670.9564 314.9724 670.7329 316.0901 669.5034 316.5372 669.1681 315.8666 668.1622 313.184 667.6033 312.1781 664.6972 309.7191 664.4737 308.3779 666.1503 306.9249 664.3619 306.2542 660.6735 306.4778 658.6616 305.9189 657.2086 304.913 656.3144 304.0188 655.1967 303.5717 649.9435 304.8012 648.8257 305.0248 646.1432 304.913 642.2312 304.4659 640.89 304.0188 640.4429 305.2483 639.7723 306.1425 638.7663 306.7013 637.5369 306.9249 636.4191 307.2602 634.519 305.1365 633.8484 304.6894 632.3954 303.907 626.0244 296.8655 625.242 296.3066 624.3479 295.7477 623.3419 295.4124 620.3241 295.1889 619.5417 294.9653 618.9828 294.63 618.424 294.0712 618.0887 293.177 617.8651 292.2828 617.9769 290.9416 617.8651 289.8239 617.6416 288.8179 616.7474 287.4767 614.9591 285.4648 611.6059 282.2234 611.1589 281.6646 609.2587 278.4232 608.6999 277.7526 608.141 277.082 604.6761 275.5172 604.1173 274.9583 602.776 273.2817 601.9936 272.7229 601.2112 272.4993 599.3111 272.3876 598.5287 272.164 597.8581 271.8287 596.7404 270.9345 578.5217 265.1224 576.7333 263.893 575.6156 262.6635 574.7215 261.434 574.1626 260.0927 573.9391 258.7515 574.1626 257.522 574.945 256.2925 578.4099 253.8336 580.31 252.7158 581.6513 252.157 583.3278 251.8217 584.222 251.0393 585.0044 249.698 586.2339 246.4567 587.2398 242.6564 587.6869 241.6505 588.2458 240.6446 590.1459 238.5209 590.593 238.2974 591.9342 237.7385 592.7166 237.2914 593.499 236.6208 594.505 235.2795 595.7344 233.9383 596.9639 233.1559 597.6345 232.9323 598.5287 232.0382 599.4229 230.5851 601.5465 225.5554 601.7701 224.4377 600.5406 222.6494 600.6524 212.4782 601.6583 206.5543 608.0293 205.5484 615.0708 209.2369 617.1945 213.0371 621.6653 213.9312 634.2955 213.9312 645.5844 213.4842 649.9435 209.4604 649.8317 200.7422 642.1195 182.6353 644.1314 176.7114 652.8495 173.2465 663.5795 175.1466 677.7745 186.1002 692.8636 185.6531 702.4759 187.3297 707.0585 192.3594 713.9883 196.1596 716.112 201.5246 718.571 215.8314 719.8004 233.0441 723.0418 237.1796 728.4068 240.1975 733.3248 247.2391 739.5839 256.069 746.5138 257.2985 786.8631 256.9631 783.9571 262.7752 783.1747 267.3579 782.7276 273.2817 775.7978 277.082 770.7681 283.3411 763.8383 293.7359 748.9727 309.2721 742.3782 316.7607 740.3663 338.109 735.4484 349.3979 735.4484 371.1933 739.1369 377.4525 737.9074 391.2003 732.5424 395.3359 727.6244 401.7068 727.1773 409.1955 722.2594 412.5486 717.3415 419.1431 707.3938 420.8197 703.0348 423.614 697.8933 419.3667 693.9813 417.5783 692.7518 417.3548 685.3749 417.0195 678.5569 417.4666 676.3215 417.9136 674.6449 418.3607 674.1978 418.696 673.7507 419.0314 672.0741 420.5961 668.6092 424.8435 665.7032 429.5378 664.2502 431.1026 663.4678 431.7733 662.2383 432.5557 659.7793 433.5616 658.3263 433.7851 657.0968 433.7851 639.6605 431.6615Z" />
  <path class="Labé" d="M354.4205 136.9209L379.4572 136.6974 381.9162 143.6272 390.1872 155.3631 401.9232 172.1288 408.7413 182.6353 413.6592 187.7768 414.4416 192.8065 415.3358 197.7244 414.4416 197.8362 413.4356 197.7244 412.6532 197.2773 411.2002 196.0479 410.1943 195.6008 408.6295 196.0479 406.2823 197.3891 390.7461 201.1893 388.0636 210.9134 372.8627 216.0549 365.9329 217.6197 363.0268 217.1726 359.7855 216.0549 358.7795 215.6078 357.5501 214.7136 356.9912 214.1548 356.5441 213.4842 356.2088 212.59 356.2088 211.137 356.3206 209.1251 356.3206 208.2309 356.097 207.1132 354.8675 202.8659 353.3028 199.5128 350.9556 196.6067 351.5144 184.759 353.5263 178.4998 355.6499 170.564 359.6737 166.7638 359.6737 157.4868 357.6618 150.3334 353.5263 146.5332 354.4205 136.9209Z" />
  <path class="Lélouma" d="M312.171 137.4798L354.4205 136.9209 353.5263 146.5332 357.6618 150.3334 359.6737 157.4868 359.6737 166.7638 355.6499 170.564 353.5263 178.4998 351.5144 184.759 350.9556 196.6067 349.1672 194.3713 340.2255 194.4831 336.6488 193.4771 334.1899 194.5948 333.631 195.3772 333.631 196.0479 334.0781 197.3891 333.9663 198.2833 333.631 199.1774 332.9604 200.2952 332.2898 200.854 331.5074 201.3011 327.8189 202.1953 325.807 202.9777 324.8011 203.9836 323.4598 205.4366 319.9949 211.6958 319.7714 212.3664 319.6596 213.1488 319.4361 215.8314 319.3243 216.6138 318.7655 217.955 318.0948 219.1845 317.8713 219.8551 317.6477 221.4199 317.536 222.0905 317.2007 222.7612 317.0889 223.5436 316.6418 224.773 316.1947 226.3378 313.624 230.6969 312.618 233.4912 311.6121 238.2974 311.5003 238.4091 311.165 238.5209 310.6062 238.6327 310.1591 238.5209 309.8238 238.4091 309.712 238.2974 308.4825 237.1796 307.8119 236.7326 307.253 236.6208 306.3589 236.7326 306.1353 237.2914 306.1353 237.8503 306.1353 238.1856 306.2471 238.4091 306.1353 238.7444 305.8 239.6386 305.2411 240.0857 304.5705 240.3092 303.7881 240.3092 303.1175 240.3092 298.5349 228.4615 292.8345 221.9788 290.2638 214.8254 287.3578 202.6424 288.0284 201.1893 290.7109 197.0538 292.1639 194.1477 294.1758 187.2179 294.8464 185.5414 295.5171 184.5354 296.0759 184.2001 296.7465 183.8648 298.5349 182.4118 301.6645 179.0586 302.3351 178.7233 310.1591 175.0349 313.2887 172.7994 318.6537 165.0872 319.5479 164.0813 320.7773 163.2989 323.7952 162.0694 324.6893 161.3988 326.1424 160.2811 326.4777 159.2751 326.4777 158.4927 326.2541 157.7103 326.1424 156.8162 326.4777 155.2514 326.3659 154.3572 326.0306 153.5748 325.36 153.2395 320.5538 151.2276 319.9949 150.8923 319.4361 150.4452 318.8772 149.8864 318.5419 149.4393 318.2066 148.8804 317.9831 148.5451 317.2007 147.9862 316.8653 147.3156 316.6418 146.5332 316.0829 145.192 315.4123 143.9625 314.8535 143.5154 313.5122 142.8448 312.9534 142.3977 312.618 141.7271 312.3945 141.0564 312.2827 139.827 312.171 137.4798Z" />
  <path class="Lola" d="M893.1575 698.124L897.9637 693.5414 900.8697 687.7293 897.9637 680.2406 895.5047 672.7519 895.5047 664.0338 899.1932 655.7627 903.7758 648.274 905.7877 641.5678 909.9232 637.8793 911.1527 632.8496 911.9351 625.0256 920.2062 624.5785 932.501 627.9317 942.4486 636.2028 955.5259 648.274 961.5615 652.186 961.338 655.4274 959.9967 660.9042 953.1787 671.2989 952.8433 676.7757 953.8493 678.2287 956.9789 680.9112 957.6495 682.3642 957.3142 683.8173 956.5318 684.5997 955.6376 685.0468 955.0788 685.8292 954.5199 688.0646 954.0728 692.6472 953.4022 694.6591 948.9314 699.8006 948.9314 700.3594 949.2667 701.7007 949.1549 702.2595 948.596 702.8184 947.0312 703.7125 946.4724 704.2714 943.6781 707.7363 943.1193 709.3011 943.0075 710.307 943.4546 712.6542 943.3428 713.5484 939.4308 718.0193 934.5129 715.7838 929.2596 711.7601 924.677 710.6424 919.8708 712.0954 917.3001 712.3189 914.0587 708.5187 910.5938 710.307 904.3347 716.1191 900.1991 713.4366 895.84 710.1953 893.2693 707.0657 892.3751 703.2655 893.1575 698.124Z" />
  <path class="Macenta" d="M783.51 688.5117L781.7217 686.1645 780.4922 683.8173 776.9155 679.2347 773.7859 673.5343 772.4447 667.7222 772.78 661.9101 774.5683 655.8745 774.6801 655.4274 775.686 654.1979 776.0213 652.8567 775.7978 651.4036 775.0154 649.9506 773.4506 648.0505 771.9976 647.827 770.5446 648.9447 768.868 651.0683 769.0915 649.3917 770.5446 646.9328 770.8799 645.4798 768.4209 635.4204 768.4209 633.8556 767.862 632.179 766.5208 631.5084 763.2794 630.8377 761.2675 629.3847 761.044 625.5845 761.9382 621.6725 763.2794 619.5488 763.8383 618.8782 764.0618 618.2076 763.9501 617.6487 763.2794 617.0899 762.497 615.6369 761.9382 614.0721 761.2675 612.619 759.9263 611.5013 761.4911 609.9365 762.2735 609.2659 763.2794 608.707 763.8383 608.4835 765.5149 607.4776 764.7325 607.1422 763.8383 606.0245 761.3793 604.348 754.5613 601.4419 752.7729 598.9829 751.6552 598.2006 750.6493 599.2065 749.9787 600.2124 748.9727 600.6595 747.855 600.7713 746.7373 600.6595 744.3901 600.7713 742.2664 601.2184 741.037 600.7713 741.2605 598.3123 742.6018 596.524 744.3901 595.2945 745.5078 593.6179 744.7254 590.7119 742.9371 588.9235 740.2546 587.5823 737.5721 587.5823 735.8955 589.4824 735.5602 592.3884 735.4484 594.4003 735.0013 594.7356 733.1012 592.612 731.6482 590.2648 730.9776 587.8058 730.0834 581.3231 729.301 578.8641 727.848 577.0758 725.6125 576.7405 725.6125 578.4171 724.9419 579.6465 724.0477 580.6525 723.0418 581.882 723.0418 582.9997 723.4889 584.0056 723.3771 584.8998 719.9122 585.9057 717.4532 587.247 716.2238 587.5823 715.5531 586.6881 714.9943 586.0175 714.3237 585.7939 707.8409 559.3042 709.5175 550.4743 713.9883 545.8916 719.018 542.9856 725.1655 540.5266 726.842 535.944 728.4068 530.3554 752.6612 535.944 755.2319 535.8322 758.9204 535.2734 762.1617 534.2674 776.1331 526.4435 784.1806 517.5018 785.7454 508.3365 787.8691 504.0892 794.3518 505.2069 796.699 516.6076 801.0581 527.6729 813.4647 528.9024 838.0543 521.7491 838.2779 551.8155 840.4015 557.9629 846.996 567.1282 851.4669 578.8641 853.4788 590.9354 851.0198 599.9889 848.2255 607.9246 846.1019 613.7367 841.9663 617.0899 835.3718 629.9436 832.5776 639.5559 826.6537 643.5796 824.3065 647.6034 822.0711 651.6272 818.9415 655.8745 815.8119 657.7746 809.7762 662.6925 807.2055 668.2811 797.1461 677.3345 792.4517 681.1348 788.7633 688.9587 786.4161 688.1763 783.51 688.5117Z" />
  <path class="Mali" d="M343.8022 47.951L344.8081 47.6157 348.8319 45.3803 351.5144 44.3744 353.7498 43.9273 356.097 44.0391 359.0031 44.7097 364.927 46.8333 367.3859 48.6217 371.2979 54.6573 373.5333 55.775 396.67 49.7394 401.6997 46.8333 406.2823 42.6978 408.7413 41.4683 412.0944 41.3565 420.3655 44.1508 423.2715 44.3744 425.0598 44.0391 430.3131 41.2448 431.8779 40.1271 432.4367 39.9035 433.3309 39.9035 433.6662 40.0153 433.778 40.2388 442.1608 43.8155 444.9551 44.3744 456.1322 44.8215 461.2737 44.0391 471.892 40.0153 477.4805 39.0094 489.3283 38.1152 493.9109 38.5623 502.9644 41.8036 506.7646 42.0272 506.6528 44.5979 506.541 44.7097 504.0821 45.045 503.4114 45.045 503.5232 44.5979 503.8585 44.1508 503.8585 43.8155 503.2997 43.7037 503.1879 43.8155 502.7408 44.2626 502.2937 44.8215 501.8466 44.9332 501.6231 44.9332 501.2878 44.9332 501.176 44.9332 500.9525 44.8215 500.8407 44.9332 498.7171 46.0509 498.0464 49.1805 498.9406 54.7691 499.0524 58.0105 496.4816 63.599 494.5815 65.4991 494.4697 65.4991 494.358 65.7227 492.5696 67.6228 490.3342 71.7583 492.905 77.3469 495.4757 79.6941 495.1404 90.6476 488.993 103.7249 485.1927 114.2314 479.0453 120.0435 475.804 130.997 474.1274 136.4738 458.4794 136.9209 449.426 138.5975 444.508 141.0564 439.143 142.8448 437.69 144.186 435.0075 144.6331 432.4367 144.2978 428.8601 147.0921 419.3595 146.9803 412.4297 145.7508 407.8471 141.9506 399.6878 139.0446 395.5523 136.4738 379.4572 136.6974 354.4205 136.9209 312.171 137.4798 311.165 131.6677 311.2768 128.2028 312.5063 121.6083 315.8594 115.3491 316.0829 114.5667 316.0829 113.6725 315.8594 112.5548 315.1888 111.1018 314.2946 109.537 313.8475 108.9781 313.1769 108.6428 312.171 108.6428 311.3886 109.0899 310.6062 109.8723 309.3767 111.8842 308.7061 112.6666 308.0354 112.8901 307.3648 112.7783 306.2471 112.443 305.3529 111.9959 304.7941 111.3253 304.7941 110.4311 309.4884 101.713 310.1591 99.7011 312.3945 84.612 312.2827 83.4943 312.171 82.6001 311.5003 80.2529 309.6002 77.0116 309.9355 75.5585 313.5122 64.9403 314.7417 63.8226 316.6418 62.5931 323.6834 60.1341 325.2482 59.4635 326.813 58.5693 328.7131 56.8927 333.0722 53.9867 339.3314 51.0806 343.6904 48.1746 343.8022 47.951Z" />
  <path class="Mamou" d="M407.9589 394.1064L407.8471 394.1064 404.941 388.1825 403.2645 382.8175 403.1527 381.4762 403.5998 380.135 405.6117 375.5524 405.947 374.0993 406.1705 371.9757 406.2823 367.2813 406.0587 365.1576 405.7234 363.7046 397.4524 352.9746 391.6403 341.7975 390.6343 340.2327 390.0755 339.8974 389.6284 339.7856 389.1813 339.8974 387.7283 340.2327 386.7223 340.2327 384.8222 340.1209 381.022 339.2267 379.6807 339.0032 378.2277 339.115 376.7747 339.3385 372.7509 340.7915 371.5215 340.9033 370.1802 340.9033 368.8389 340.7915 367.7212 340.3444 367.1624 339.7856 366.8271 339.115 364.5916 330.285 364.5916 328.3849 365.0387 326.8201 366.2682 324.1376 367.1624 321.2316 367.3859 319.7785 367.2741 317.4314 367.4977 316.4254 367.9448 315.7548 370.5155 312.8487 368.1683 310.5015 366.0447 309.2721 373.7569 304.6894 380.3514 299.2127 385.2693 296.7537 395.8876 295.0771 399.2407 289.1532 409.0766 279.0938 419.0242 271.6052 430.0895 269.0344 442.0491 268.252 447.4141 265.6813 450.2084 259.4221 453.1144 252.7158 452.332 242.6564 448.5318 237.962 452.332 236.2855 458.4794 235.2795 464.5151 234.8325 468.9859 234.0501 471.3331 232.3735 475.2451 228.5733 475.5804 228.0144 481.5043 221.5317 482.3985 219.6316 491.0048 214.7136 492.4579 213.4842 493.2403 211.8076 493.5756 206.8897 494.1344 205.2131 495.1404 204.0954 496.7052 203.7601 498.0464 203.5365 498.9406 203.313 500.0583 202.6424 500.9525 201.7482 501.5113 200.6305 502.2937 199.9598 503.8585 200.7422 505.5351 199.401 507.2117 199.8481 509 200.7422 511.3472 200.7422 512.8002 199.401 515.1474 195.0419 517.9417 192.8065 522.7479 198.9539 525.7657 206.4426 525.7657 212.59 517.1593 218.8492 501.9584 229.3557 492.905 229.3557 480.163 240.1975 479.1571 241.2034 478.4865 241.6505 477.3688 243.2153 479.2689 252.4923 479.3806 256.9631 478.8218 262.6635 478.3747 263.5576 479.9395 264.8989 484.1868 266.799 484.1868 275.2936 482.3985 325.8142 482.5102 343.9211 481.6161 351.4098 478.5982 355.7689 476.8099 368.0637 479.4924 378.4584 435.231 378.682 434.7839 385.1647 434.5604 387.1766 433.6662 388.4061 407.9589 394.1064Z" />
  <path class="Mandiana" d="M949.9373 384.6058L941.5545 383.7117 934.96 380.8056 924.3417 377.0054 917.3001 369.5167 913.1646 359.9044 911.9351 352.751 905.3406 349.845 892.2634 347.2743 878.6273 345.2624 871.5857 338.109 870.8033 331.4028 868.3443 323.0199 863.4264 319.3315 853.4788 317.2078 847.7784 315.0842 841.1839 307.5955 839.9545 299.6597 838.725 285.0177 812.0117 282.8941 804.523 279.5409 792.6752 277.082 782.7276 273.2817 783.1747 267.3579 783.9571 262.7752 786.8631 256.9631 790.9987 252.2688 801.2816 244.7801 813.2411 240.5328 824.3065 235.9502 837.0484 227.1202 844.4253 220.0787 849.455 206.219 851.0198 191.1299 853.9259 178.4998 859.738 164.7519 862.9793 160.3928 864.2088 156.5926 865.7736 153.1277 868.1208 151.5629 868.3443 151.5629 868.6796 152.01 868.009 152.5689 867.8972 152.9042 868.1208 153.3513 868.4561 153.6866 868.6796 153.9101 870.1327 152.5689 872.7034 150.6688 873.4858 149.9981 876.1683 159.0516 876.7272 161.5106 877.8449 164.3048 879.2979 166.9873 880.8627 168.9992 886.2277 171.4582 886.3395 171.9053 886.563 172.4641 886.7866 172.9112 888.0161 173.023 889.022 173.1348 889.9162 173.3583 890.475 173.5818 891.2574 173.8054 891.481 173.8054 891.9281 174.0289 892.0398 174.1407 892.1516 174.2525 892.2634 174.3642 892.4869 174.476 892.5987 174.5878 893.1575 174.6996 893.3811 174.5878 893.6046 174.476 893.8282 174.3642 894.0517 174.1407 894.387 173.2465 894.387 172.7994 894.4988 172.6877 894.8341 173.023 895.393 173.1348 895.6165 172.9112 895.7283 172.4641 896.0636 172.2406 896.3989 172.2406 896.9578 174.5878 897.5166 177.1585 898.5226 179.2822 900.1991 179.841 901.7639 179.841 902.0992 180.6234 903.1052 181.0705 904.7817 181.5176 905.4524 181.1823 905.7877 180.847 906.2348 180.7352 906.9054 180.847 907.9113 181.1823 908.1349 181.1823 910.035 181.8529 910.2585 182.0765 910.8174 182.9706 911.488 183.1942 912.4939 183.1942 913.2763 182.9706 913.3881 182.9706 916.4059 184.4237 919.4238 186.9944 919.2002 187.1062 918.9767 187.1062 918.6414 187.1062 917.6354 187.4415 917.5237 187.5532 916.9648 187.665 914.0587 189.0063 912.4939 190.7946 913.6117 192.9183 916.0706 193.3653 916.853 193.2536 918.3061 193.5889 918.5296 193.7007 919.9826 193.7007 919.2002 197.1656 917.6354 199.0657 915.0647 199.9598 914.9529 199.9598 913.4999 199.401 912.6057 199.0657 911.5998 198.395 910.9292 197.8362 910.1468 197.6127 909.029 197.3891 907.9113 197.3891 906.7936 197.7244 906.0112 198.0597 905.5641 198.5068 905.4524 198.5068 905.3406 198.7304 904.67 198.6186 903.3287 199.5128 901.8757 202.6424 901.9875 203.2012 902.4345 203.8718 902.7699 204.766 902.5463 205.7719 901.9875 206.1073 900.6462 206.219 900.1991 206.3308 899.0814 207.1132 896.1754 208.3427 895.2812 208.9015 893.6046 211.3605 892.8222 216.2784 891.5927 218.5139 890.475 219.1845 887.6807 219.1845 886.563 219.6316 885.2218 221.3081 885.2218 222.6494 885.5571 223.9906 885.4453 225.5554 883.9923 228.3497 877.7331 234.8325 876.5036 236.6208 875.3859 238.8562 874.8271 241.3152 875.4977 243.5506 877.5096 245.0036 878.5155 244.6683 878.9626 245.6743 879.1861 245.786 879.5215 246.0096 880.4156 246.2331 882.3157 246.0096 883.0981 245.6743 884.1041 245.2272 884.8865 244.6683 885.6689 244.333 886.116 244.2212 886.4513 244.1095 886.8983 244.1095 887.2337 244.5565 887.569 244.8919 887.7925 245.1154 888.0161 245.2272 888.1278 245.0036 888.2396 244.8919 888.4631 244.4448 888.7985 243.9977 889.1338 243.5506 889.2455 243.2153 889.5809 243.2153 889.6926 243.2153 889.9162 243.6624 890.475 244.333 891.2574 244.6683 892.0398 244.2212 892.2634 243.6624 892.7105 243.5506 893.3811 243.4388 893.9399 242.88 894.6106 242.0976 895.2812 241.7623 895.7283 241.2034 896.2871 240.8681 897.7402 240.3092 899.5285 239.7504 900.4227 239.6386 900.5344 239.6386 900.9815 239.0798 901.6521 238.4091 902.211 238.0738 902.5463 237.8503 902.6581 237.4032 902.4345 236.8443 902.7699 236.3972 902.7699 235.7266 902.5463 235.1678 902.8816 234.7207 903.664 234.1618 903.8876 233.4912 904.3347 232.4853 904.7817 231.3675 904.8935 231.3675 906.5701 231.9264 909.3644 231.8146 910.8174 231.3675 912.0469 231.5911 914.6176 232.4853 915.9589 232.2617 918.6414 230.8087 920.2062 230.8087 923.224 232.3735 926.13 235.056 928.2537 238.1856 929.0361 241.427 929.2596 255.8454 928.9243 258.4162 928.1419 259.6457 927.136 260.7634 924.2299 268.4756 924.0064 271.3816 927.5831 272.8347 928.2537 275.2936 928.9243 284.3471 928.589 284.4589 927.4713 284.5706 927.0242 284.4589 926.5771 284.7942 926.4653 285.1295 926.6889 285.9119 926.9124 286.2472 926.9124 287.3649 926.9124 288.2591 926.5771 289.0415 926.0183 289.8239 925.6829 290.718 925.7947 291.2769 925.7947 292.9535 925.7947 293.2888 925.7947 294.0712 926.0183 294.5183 926.2418 295.5242 926.3536 295.9713 927.136 296.1948 927.6948 296.0831 928.2537 296.0831 929.1479 296.1948 929.3714 296.1948 929.8185 296.3066 930.3773 302.7893 931.8304 306.4778 936.0777 312.2899 939.0955 317.8784 938.9837 318.6608 939.0955 319.2197 939.319 319.6668 939.5426 319.6668 939.9897 319.4432 940.4367 319.2197 942.0015 320.0021 942.5604 320.0021 942.8957 320.1139 943.7899 320.1139 944.4605 320.3374 945.1311 320.3374 945.4664 320.4492 945.5782 320.1139 945.69 319.8903 948.0372 319.4432 950.1608 318.5491 951.3903 317.8784 952.2845 318.2138 953.6257 320.3374 954.0728 322.014 954.2964 325.7024 954.967 327.4908 957.6495 329.3909 960.2202 329.838 961.2262 331.1792 962.2321 331.8498 963.6851 332.4087 964.9146 332.1851 965.3617 331.7381 965.8088 331.291 966.3677 331.1792 966.703 330.7321 966.9265 330.3968 968.7149 330.3968 971.2856 331.9616 973.2975 334.9794 974.7505 338.4443 975.6447 341.5739 975.98 345.1506 975.1976 348.392 972.1798 355.0982 970.8385 356.663 969.8326 358.4514 969.1619 360.2397 968.7149 362.2516 966.0323 365.7165 962.9028 367.5048 955.9729 370.0756 953.4022 372.5345 950.6079 376.223 949.1549 379.6879 950.3844 381.2527 952.1727 381.9233 951.6139 383.2646 949.9373 384.6058Z" />
  <path class="Nzérékoré" d="M893.1575 698.124L876.7272 697.2298 875.7212 700.0241 872.1446 704.3832 871.1386 707.2892 860.0733 705.7244 849.6785 701.1418 845.9901 692.9825 842.1899 681.6936 836.266 670.4047 834.813 659.8982 831.7952 653.192 824.3065 647.6034 826.6537 643.5796 832.5776 639.5559 835.3718 629.9436 841.9663 617.0899 846.1019 613.7367 858.0614 610.8307 870.0209 605.4657 881.5333 604.5715 890.1397 606.6952 895.5047 612.5073 897.1813 617.537 905.3406 618.3194 909.9232 621.6725 911.9351 625.0256 911.1527 632.8496 909.9232 637.8793 905.7877 641.5678 903.7758 648.274 899.1932 655.7627 895.5047 664.0338 895.5047 672.7519 897.9637 680.2406 900.8697 687.7293 897.9637 693.5414 893.1575 698.124Z" />
  <path class="Pita" d="M333.9663 304.0188L331.1721 305.9189 329.2719 307.4837 327.8189 310.3898 326.7012 311.5075 325.1364 312.0663 322.3421 311.2839 319.4361 309.4956 318.5419 308.7132 317.4242 308.0426 315.077 306.8131 312.9534 305.1365 311.6121 304.6894 309.8238 305.1365 308.259 305.3601 306.2471 310.5015 300.2114 312.2899 296.7465 302.1187 292.1639 297.8714 291.8286 297.4243 291.3815 296.8655 291.0462 296.3066 290.9344 295.5242 291.0462 293.8476 291.2697 293.177 292.0521 292.6182 292.8345 291.9475 293.6169 290.8298 295.1817 287.5884 295.4053 286.8061 294.8464 286.4707 294.3993 286.2472 294.064 285.8001 294.2876 285.0177 294.9582 284.0118 295.5171 283.0058 295.8524 281.8881 296.7465 276.8584 296.7465 276.076 296.4112 275.4054 295.8524 274.9583 295.2935 274.7348 294.6229 274.2877 293.6169 273.5053 293.1699 272.9464 292.9463 272.2758 292.8345 270.711 292.4992 269.1462 292.3875 268.3638 292.3875 266.6872 292.2757 266.0166 292.0521 265.4578 291.6051 265.0107 291.2697 264.4518 291.3815 263.7812 291.7168 262.9988 292.7228 262.2164 293.1699 261.434 293.1699 260.4281 292.611 258.8633 292.4992 257.9691 292.611 255.9572 292.3875 255.1748 292.3875 254.3924 292.611 253.61 293.7287 252.7158 295.5171 250.704 295.9641 247.4626 296.2994 246.2331 296.1877 245.4507 296.6348 244.7801 297.4172 243.8859 302.3351 240.5328 303.1175 240.3092 303.7881 240.3092 304.5705 240.3092 305.2411 240.0857 305.8 239.6386 306.1353 238.7444 306.2471 238.4091 306.1353 238.1856 306.1353 237.8503 306.1353 237.2914 306.3589 236.7326 307.253 236.6208 307.8119 236.7326 308.4825 237.1796 309.712 238.2974 309.8238 238.4091 310.1591 238.5209 310.6062 238.6327 311.165 238.5209 311.5003 238.4091 311.6121 238.2974 312.618 233.4912 313.624 230.6969 316.1947 226.3378 316.6418 224.773 317.0889 223.5436 317.2007 222.7612 317.536 222.0905 317.6477 221.4199 317.8713 219.8551 318.0948 219.1845 318.7655 217.955 319.3243 216.6138 319.4361 215.8314 319.6596 213.1488 319.7714 212.3664 319.9949 211.6958 323.4598 205.4366 324.8011 203.9836 325.807 202.9777 327.8189 202.1953 331.5074 201.3011 332.2898 200.854 332.9604 200.2952 333.631 199.1774 333.9663 198.2833 334.0781 197.3891 333.631 196.0479 333.631 195.3772 334.1899 194.5948 336.6488 193.4771 340.2255 194.4831 349.1672 194.3713 350.9556 196.6067 353.3028 199.5128 354.8675 202.8659 356.097 207.1132 356.3206 208.2309 356.3206 209.1251 356.2088 211.137 356.2088 212.59 356.5441 213.4842 356.9912 214.1548 357.5501 214.7136 358.7795 215.6078 359.7855 216.0549 363.0268 217.1726 365.9329 217.6197 372.8627 216.0549 388.0636 210.9134 390.7461 201.1893 406.2823 197.3891 404.6057 203.6483 401.6997 207.8956 401.2526 214.6019 398.0112 219.6316 399.2407 225.1084 402.9292 228.0144 404.6057 233.8265 387.7283 234.2736 382.8103 237.1796 376.5512 240.1975 370.4037 244.7801 367.9448 252.2688 362.5798 261.0987 355.2029 262.7752 347.3789 269.4815 338.3254 275.7407 334.637 283.6765 333.9663 304.0188Z" />
  <path class="Siguiri" d="M868.1208 151.5629L865.7736 153.1277 864.2088 156.5926 862.9793 160.3928 859.738 164.7519 853.9259 178.4998 851.0198 191.1299 849.455 206.219 844.4253 220.0787 837.0484 227.1202 824.3065 235.9502 813.2411 240.5328 801.2816 244.7801 790.9987 252.2688 786.8631 256.9631 746.5138 257.2985 739.5839 256.069 733.3248 247.2391 728.4068 240.1975 723.0418 237.1796 719.8004 233.0441 718.571 215.8314 716.112 201.5246 713.9883 196.1596 707.0585 192.3594 702.4759 187.3297 692.8636 185.6531 693.3107 162.293 687.9457 148.7686 681.1276 141.28 676.3215 136.8091 668.3857 124.5143 669.5034 123.0613 670.7329 121.72 671.7388 120.267 685.4867 112.8901 697.7815 103.5013 703.1465 96.0127 711.9765 90.2006 712.6471 90.3123 713.653 90.8712 714.1001 91.2065 714.3237 91.43 714.7707 91.3183 715.8884 91.3183 718.1239 90.9829 719.1298 91.2065 719.9122 91.43 720.5828 91.43 720.6946 91.3183 721.1417 91.43 723.3771 93.2184 724.7184 94.0008 727.1773 94.7832 731.2011 94.8949 731.5364 95.1185 732.207 95.2303 733.213 95.2303 733.7718 95.2303 734.4425 95.2303 735.3366 95.342 735.5602 95.4538 735.8955 95.6773 736.119 95.5656 736.6779 95.2303 737.125 95.2303 738.0191 95.1185 738.3545 95.1185 739.1369 94.6714 739.5839 94.1125 739.0251 92.5477 738.6898 91.0947 738.6898 90.7594 738.8015 90.5359 738.8015 90.4241 739.2486 90.0888 740.1428 89.8652 740.8134 89.0828 741.2605 87.9651 741.484 87.2945 741.484 86.1768 741.1487 85.3944 740.8134 84.7238 741.037 84.1649 741.037 83.4943 740.7017 82.7119 740.7017 82.2648 740.7017 82.0413 741.1487 81.3706 741.3723 80.8118 741.484 80.3647 741.9311 80.0294 742.2664 79.5823 742.3782 79.0234 743.0488 78.9117 743.2724 78.5763 743.4959 78.1293 743.7195 77.6822 744.3901 77.1233 744.5019 76.8998 746.0667 75.8938 746.2902 75.8938 746.402 75.6703 747.855 74.7761 748.4139 74.5526 748.8609 74.6644 749.5316 74.5526 749.6433 74.2173 749.7551 74.1055 750.0904 73.9937 750.5375 73.9937 751.2081 73.9937 751.5435 73.6584 751.6552 73.4349 755.7908 72.0936 756.2378 72.0936 756.5732 72.2054 756.9085 72.3172 757.0202 72.4289 757.4673 72.5407 757.6909 72.4289 758.0262 72.0936 758.3615 71.9818 758.8086 72.0936 759.4792 72.0936 760.4851 71.9818 760.9322 71.5348 761.044 71.0877 761.3793 70.6406 761.4911 70.3053 761.6029 70.1935 761.6029 70.0817 763.2794 69.5229 764.956 67.9581 765.4031 67.8463 765.7384 67.3992 766.1855 67.0639 766.2972 66.8404 768.1974 65.4991 772.8917 63.2637 773.1153 63.7108 773.5624 63.7108 773.7859 63.599 774.1212 63.2637 774.5683 62.9284 774.9036 62.7048 776.1331 62.5931 778.145 62.9284 778.2568 63.1519 778.4803 63.4872 779.0392 63.7108 779.3745 63.3755 779.598 63.1519 781.2746 63.4872 781.4981 63.4872 782.1688 63.8226 782.3923 64.2696 782.6158 64.3814 782.8394 64.3814 783.1747 64.1579 783.2865 64.0461 783.7336 64.1579 784.1806 64.0461 784.2924 63.9343 784.516 64.0461 784.516 63.9343 784.6277 64.2696 785.2983 64.3814 786.0807 64.605 786.6396 64.605 786.9749 64.3814 786.7514 64.0461 786.5278 63.7108 786.0807 63.2637 786.0807 62.8166 786.6396 62.146 786.7514 61.6989 787.5338 60.9165 787.7573 61.14 788.0926 61.5871 788.6515 61.2518 789.2103 60.8047 789.5457 60.3576 789.7692 60.0223 789.7692 59.3517 789.4339 58.7928 789.3221 58.234 789.3221 57.4516 789.6574 56.8927 789.6574 56.6692 789.6574 56.4457 789.2103 55.6633 789.3221 55.2162 789.7692 55.1044 790.5516 53.6514 791.1105 53.5396 791.4458 53.0925 791.6693 52.4219 792.0046 51.863 792.0046 51.6395 792.1164 51.5277 792.0046 51.1924 791.8928 51.1924 791.5575 51.0806 791.4458 51.0806 791.5575 50.1865 791.5575 49.2923 792.1164 49.0688 792.787 48.8452 792.8988 48.6217 792.787 48.3981 792.6752 48.2864 792.1164 47.8393 791.8928 47.7275 791.5575 47.6157 790.6634 47.3922 789.6574 47.3922 789.0986 47.1686 788.6515 46.8333 788.6515 46.7216 788.4279 46.3862 788.2044 46.2745 787.8691 46.2745 787.3102 46.0509 786.9749 44.9332 786.9749 44.3744 787.0867 43.4802 786.8631 42.9213 786.7514 42.8096 786.4161 42.3625 785.7454 42.2507 785.0748 42.0272 784.963 41.5801 784.8513 40.6859 784.8513 40.3506 784.6277 40.1271 784.516 40.0153 784.1806 40.1271 783.8453 40.4624 783.7336 40.4624 783.3982 40.5741 783.1747 40.4624 782.9512 40.3506 782.1688 39.7917 781.4981 39.0094 781.4981 38.227 781.6099 37.4446 781.4981 36.3268 781.051 35.8798 780.3804 35.8798 779.9333 35.8798 779.598 36.4386 779.4862 36.5504 779.2627 36.6622 779.1509 36.7739 778.8156 36.4386 778.7039 35.9915 778.3685 35.4327 778.2568 35.3209 778.0332 34.9856 777.9215 34.4267 777.9215 34.0914 778.2568 33.6443 778.3685 33.4208 779.1509 33.1972 779.598 32.9737 780.0451 32.5266 780.2686 32.3031 780.9393 31.9678 782.2805 32.0795 783.0629 31.856 783.3982 31.6325 783.3982 31.4089 783.3982 31.2971 785.7454 30.6265 787.422 29.5088 787.7573 29.7323 787.8691 30.403 787.7573 30.9618 787.7573 31.4089 788.0926 31.6325 788.6515 31.5207 789.2103 31.2971 789.5457 30.7383 789.5457 30.5147 789.5457 29.9559 789.5457 29.5088 789.7692 28.9499 791.6693 30.0677 793.5694 30.7383 794.1283 30.403 794.3518 30.6265 794.6871 30.7383 795.4695 30.2912 795.9166 29.8441 796.0284 29.6206 796.1402 29.2853 797.4814 29.1735 807.8761 31.4089 813.6882 33.309 830.0068 41.8036 833.1364 43.4802 833.1364 43.592 833.1364 44.0391 833.1364 44.3744 833.6953 44.2626 833.9188 44.7097 834.2541 44.8215 834.7012 44.8215 834.813 45.4921 835.5954 46.0509 836.9366 47.2804 837.719 48.1746 838.725 50.0747 838.9485 53.0925 837.719 56.2221 835.8189 59.0164 834.3659 62.0342 834.1424 65.7227 834.5894 67.0639 835.0365 67.7345 834.813 68.0699 834.813 68.1816 834.813 68.7405 835.3718 68.964 835.5954 68.7405 835.9307 69.2993 836.3778 70.7524 837.3837 72.3172 837.719 72.3172 837.9426 72.7642 838.0543 72.9878 838.2779 73.2113 838.8367 73.3231 839.0603 73.0996 839.2838 72.876 839.3956 72.876 839.7309 72.7642 840.0662 72.6525 840.4015 72.9878 840.6251 72.9878 840.8486 72.876 841.0722 72.4289 841.2957 72.3172 841.4075 72.7642 841.631 72.9878 841.9663 72.876 842.1899 72.876 842.7487 72.7642 843.3076 72.876 843.7547 72.7642 843.7547 72.3172 843.8664 72.3172 845.6548 74.7761 846.7725 77.9057 846.549 81.0353 844.5371 86.5121 843.9782 89.5299 844.5371 92.2124 846.996 94.3361 850.0139 94.4479 851.1316 94.3361 851.2433 94.4479 851.2433 94.7832 851.3551 95.342 851.5787 95.342 851.914 95.1185 852.0257 95.0067 852.1375 94.8949 852.1375 95.342 851.914 95.6773 852.3611 96.0127 852.6964 95.7891 852.9199 94.8949 853.4788 94.5596 854.1494 94.2243 856.0495 94.6714 858.5085 96.795 859.1791 99.1422 858.9556 101.8248 859.1791 104.8426 859.8497 106.2956 860.8557 107.6369 861.5263 109.0899 861.6381 110.7664 859.1791 123.5084 858.3967 124.2908 857.9496 125.1849 857.8378 125.7438 857.6143 126.3026 857.279 126.5262 856.9437 127.4204 857.279 127.8674 858.1732 128.7616 858.1732 128.8734 854.82 146.4215 854.5965 147.4274 854.5965 147.7627 855.4906 147.8745 856.3848 147.9862 856.8319 148.098 857.279 148.5451 857.9496 148.4333 858.732 148.4333 858.9556 148.3216 859.2909 148.9922 859.738 149.3275 860.5204 149.551 860.9674 149.6628 861.6381 150.3334 862.7558 151.0041 863.5382 151.2276 864.3206 151.3394 864.9912 151.6747 865.2147 151.8982 865.6618 151.6747 866.1089 151.2276 866.3325 151.0041 866.7795 150.7805 867.1149 151.1158 867.3384 151.5629 867.6737 151.7865 868.009 151.5629 868.1208 151.5629Z" />
  <path class="Télimélé" d="M300.2114 312.2899L295.07 313.8547 279.8691 318.4373 267.5743 321.3433 256.956 322.3493 256.5089 316.649 256.0618 311.3957 259.0796 306.0307 257.4031 294.63 230.578 280.0998 202.0763 278.0879 186.7637 277.082 185.4224 276.076 183.8576 275.9642 181.3987 276.2996 180.0574 275.9642 176.369 274.5112 175.0277 274.623 173.91 275.1818 173.0158 276.1878 171.8981 276.7466 170.6686 277.082 169.4392 281.441 164.2977 282.3352 163.6271 282.6705 161.9505 283.3411 161.3916 283.9 161.0563 284.5706 160.6092 284.9059 159.9386 284.6824 158.9327 283.6765 150.8851 287.5884 144.8495 288.4826 142.167 284.4589 129.2015 284.4589 135.2372 275.6289 143.5083 267.3579 150.4381 257.6338 158.5974 258.1926 168.2097 253.7218 170.7804 246.1213 172.9041 240.8681 174.2453 234.6089 174.1336 233.1559 174.5806 232.3735 177.2631 229.9145 178.3809 229.0204 179.7221 228.3497 180.1692 228.0144 180.5045 227.5673 181.8458 221.7552 182.0693 220.5257 181.8458 217.5079 181.9575 216.2784 181.8458 215.3843 181.6222 214.7136 180.0574 213.3724 179.4986 213.0371 178.9397 212.4782 178.6044 211.584 178.8279 208.4545 178.6044 207.5603 176.9278 205.3249 176.0337 204.4307 174.6924 202.7541 174.1336 202.4188 172.3452 202.1953 171.5628 202.0835 171.004 201.7482 170.3333 200.4069 173.0158 199.9598 175.4748 197.6127 177.5985 195.6008 183.9694 193.3653 189.1109 192.4712 190.2286 192.5829 190.8992 192.8065 191.4581 193.03 192.1287 193.3653 194.5877 193.7007 196.2642 193.7007 198.4997 193.4771 199.7292 193.03 200.6233 192.3594 201.6293 191.4652 203.0823 190.2358 206.4354 188.5592 208.4473 187.8886 210.4592 187.4415 222.4187 187.2179 223.8717 187.3297 224.9894 187.665 225.7718 188.1121 231.8075 187.8886 237.5078 189.6769 245.6671 191.2417 247.1201 191.2417 247.679 191.4652 249.8026 192.1359 252.3734 218.5139 252.5969 219.0727 253.9382 220.1904 254.8323 220.3022 261.8739 219.8551 273.9452 216.9491 279.1985 214.9372 280.4279 214.3783 290.2638 214.8254 292.8345 221.9788 298.5349 228.4615 303.1175 240.3092 302.3351 240.5328 297.4172 243.8859 296.6348 244.7801 296.1877 245.4507 296.2994 246.2331 295.9641 247.4626 295.5171 250.704 293.7287 252.7158 292.611 253.61 292.3875 254.3924 292.3875 255.1748 292.611 255.9572 292.4992 257.9691 292.611 258.8633 293.1699 260.4281 293.1699 261.434 292.7228 262.2164 291.7168 262.9988 291.3815 263.7812 291.2697 264.4518 291.6051 265.0107 292.0521 265.4578 292.2757 266.0166 292.3875 266.6872 292.3875 268.3638 292.4992 269.1462 292.8345 270.711 292.9463 272.2758 293.1699 272.9464 293.6169 273.5053 294.6229 274.2877 295.2935 274.7348 295.8524 274.9583 296.4112 275.4054 296.7465 276.076 296.7465 276.8584 295.8524 281.8881 295.5171 283.0058 294.9582 284.0118 294.2876 285.0177 294.064 285.8001 294.3993 286.2472 294.8464 286.4707 295.4053 286.8061 295.1817 287.5884 293.6169 290.8298 292.8345 291.9475 292.0521 292.6182 291.2697 293.177 291.0462 293.8476 290.9344 295.5242 291.0462 296.3066 291.3815 296.8655 291.8286 297.4243 292.1639 297.8714 296.7465 302.1187 300.2114 312.2899Z" />
  <path class="Tougué" d="M517.9417 192.8065L515.1474 195.0419 512.8002 199.401 511.3472 200.7422 509 200.7422 507.2117 199.8481 505.5351 199.401 503.8585 200.7422 502.2937 199.9598 501.5113 200.6305 500.9525 201.7482 500.0583 202.6424 498.9406 203.313 498.0464 203.5365 496.7052 203.7601 495.1404 204.0954 494.1344 205.2131 493.5756 206.8897 493.2403 211.8076 492.4579 213.4842 491.0048 214.7136 482.3985 219.6316 481.5043 221.5317 475.5804 228.0144 475.2451 228.5733 471.3331 232.3735 468.9859 234.0501 464.5151 234.8325 458.4794 235.2795 452.332 236.2855 448.5318 237.962 447.0788 238.2974 441.1549 238.4091 439.5901 238.0738 438.2488 237.515 437.1311 235.8384 436.1252 233.603 435.4546 228.9086 435.3428 225.8908 435.5663 222.8729 436.237 218.5139 436.0134 216.1667 435.1193 214.1548 432.7721 211.6958 430.8719 210.3546 428.8601 209.3486 427.407 208.9015 426.0658 208.2309 424.8363 206.5543 423.495 203.8718 422.1538 198.2833 423.495 193.5889 430.5366 189.0063 450.2084 177.6056 474.5745 167.0991 484.4103 159.6105 488.0988 151.2276 498.8288 147.8745 511.5707 145.3037 512.8002 139.827 511.7943 92.8831 514.0297 94.8949 516.7122 96.6833 519.5065 98.1363 522.3008 99.1422 524.8715 99.1422 525.9892 98.6952 526.4363 98.9187 527.4422 99.3658 527.6658 99.4776 528.2246 99.4776 529.3424 99.4776 529.7894 99.254 529.9012 98.8069 529.9012 98.3598 530.4601 97.9128 530.7954 97.2421 530.9072 97.1304 531.5778 97.1304 532.4719 96.9068 532.8073 97.2421 533.1426 97.2421 533.1426 96.9068 533.2543 96.9068 533.4779 96.9068 533.7014 97.1304 534.0367 97.3539 534.5956 97.1304 534.7074 97.0186 535.0427 102.6072 537.1663 107.6369 543.5373 113.7843 543.5373 122.3906 543.5373 128.3145 541.9725 131.4441 541.8607 136.2503 541.4136 140.274 540.8548 146.5332 530.3483 159.834 530.013 161.287 530.013 162.293 530.2365 163.1871 530.5718 163.746 531.0189 164.3048 532.0249 165.199 533.1426 165.9814 541.0783 169.8934 541.749 170.8993 540.8548 173.023 539.9606 174.0289 538.284 174.5878 536.2722 175.929 534.5956 177.3821 533.925 178.388 533.1426 179.0586 528.3364 180.7352 526.8834 181.5176 525.5421 182.4118 523.4185 184.5354 517.9417 192.8065Z" />
  <path class="Yomou" d="M783.51 688.5117L786.4161 688.1763 788.7633 688.9587 792.4517 681.1348 797.1461 677.3345 807.2055 668.2811 809.7762 662.6925 815.8119 657.7746 818.9415 655.8745 822.0711 651.6272 824.3065 647.6034 831.7952 653.192 834.813 659.8982 836.266 670.4047 842.1899 681.6936 845.9901 692.9825 849.6785 701.1418 860.0733 705.7244 871.1386 707.2892 870.8033 711.9836 870.5798 712.8778 869.7974 714.219 869.5738 715.0014 869.6856 715.8956 870.2444 716.1191 870.9151 716.3427 871.2504 716.9015 871.3622 720.1429 870.9151 722.9372 869.5738 725.3961 867.2266 727.9669 863.4264 730.2023 862.5322 730.8729 862.0851 732.2142 861.8616 735.0085 861.3028 736.238 860.185 737.3557 857.9496 737.9145 856.7201 738.8087 854.1494 741.8265 852.9199 743.7266 852.2493 745.2914 852.5846 747.6386 853.5905 750.0976 854.2612 752.6683 853.367 755.4626 851.8022 756.3568 845.8783 758.5922 844.09 758.8157 841.5193 754.6802 839.7309 753.5625 838.9485 756.8039 837.4955 756.245 836.9366 756.3568 836.4895 758.5922 835.8189 758.5922 832.8011 759.5981 831.6834 760.157 829.3362 759.9334 827.4361 761.0512 825.7595 762.616 823.8594 763.9572 822.0711 764.5161 820.0592 764.8514 819.2768 765.1867 818.2708 765.522 816.7061 766.8633 817.9355 762.1689 817.4884 760.2688 814.8059 758.9275 813.6882 758.0333 813.6882 755.6861 812.9058 755.1273 809.7762 755.2391 808.9938 755.1273 805.6407 751.9977 803.7406 743.2795 801.7287 740.4853 799.6051 740.2617 795.0224 741.4912 792.787 741.1559 792.0046 740.2617 791.1105 737.4674 790.1045 736.238 788.9868 735.5673 787.9809 735.232 785.969 735.0085 783.7336 735.0085 782.5041 735.232 781.9452 735.7909 781.6099 737.2439 780.9393 737.691 780.1569 737.9145 778.0332 740.9323 776.4684 739.5911 773.8977 735.0085 772.3329 737.2439 768.3091 741.1559 767.1914 741.7147 767.1914 741.603 766.6326 741.2677 768.1974 739.9264 768.9798 738.5851 769.3151 736.9086 769.4268 735.0085 769.9857 733.3319 771.327 731.9906 774.1212 729.867 777.2508 725.1726 778.3685 722.2666 777.9215 720.3664 780.2686 717.4604 781.2746 715.8956 781.9452 712.2072 782.7276 710.0835 783.9571 708.2952 785.4101 707.1774 782.5041 703.8243 782.2805 699.1299 783.6218 694.212 785.1866 690.6353 783.51 688.5117Z" />
</svg>