<?xml version="1.0" encoding="utf-8"?>
<svg xmlns="http://www.w3.org/2000/svg" viewBox="0 0 1021 706" style="stroke-width:0.25px;stroke-linejoin:round;stroke:#444;fill:#ddd" fill-rule="evenodd">
  <path class="Cibao Nordeste" d="M660.3382 249.1087L660.1146 251.2323 661.0088 259.0563 659.3322 267.8862 655.6438 276.2691 647.5963 270.2334 638.8781 265.2037 630.9424 259.2799 623.1184 253.2442 605.0114 252.5736 590.2576 254.3619 589.6988 257.6033 589.2517 262.0741 585.1162 267.6627 577.7393 267.4392 580.1982 259.2799 581.2042 251.5677 575.2803 247.7674 568.4623 245.6438 559.5206 244.9732 551.026 244.9732 544.5432 242.8495 538.284 239.9435 531.1307 236.7021 523.3067 236.1432 511.2354 234.6902 498.9406 234.9138 493.352 235.9197 487.5399 234.9138 482.1749 233.349 477.0334 235.1373 477.9276 234.802 478.0394 236.0315 464.2915 226.978 455.3498 213.1184 444.0609 212.336 436.3487 204.8473 430.7602 195.5703 426.7364 185.7344 432.6603 168.5217 433.778 152.0913 433.6662 132.5314 442.8315 121.1307 447.8612 123.0308 452.4438 125.2662 455.6851 133.0902 462.1679 128.6194 467.8682 120.3483 476.1393 115.5421 484.075 122.5837 490.446 132.8667 493.352 132.8667 496.3699 133.4255 497.1523 125.0427 498.8288 117.554 504.6409 117.1069 511.1237 117.554 524.7597 109.6183 529.9012 94.4174 529.7894 92.629 538.8429 82.7932 544.0961 80.3342 559.4088 80.6695 566.8975 79.8871 570.2506 80.3342 574.4979 82.7932 583.8867 92.8526 586.7927 99.6706 586.681 107.0475 582.2101 123.1426 587.6869 125.4898 589.8106 130.743 589.6988 144.0438 590.3694 149.8559 592.1578 154.5503 610.4882 182.1578 618.7593 190.2053 619.877 191.2112 629.2658 195.1232 634.8543 194.229 645.5844 190.0935 651.0612 189.0876 663.5795 188.6405 669.0563 187.411 674.6449 185.1756 682.8042 179.6988 686.0455 178.9164 688.8398 179.587 694.6519 182.4931 698.3404 183.1637 705.0466 181.4871 707.9527 181.1518 709.5175 181.1518 710.9705 181.5989 712.0882 182.4931 712.5353 184.1696 713.4295 185.5109 715.3296 185.0638 718.3474 183.1637 734.3307 189.6464 739.1369 193.1113 742.2664 186.7404 747.2961 182.046 759.8145 175.1162 767.862 172.6572 769.7622 176.0103 767.6385 183.0519 763.6147 191.323 769.0915 193.3349 775.3507 193.3349 781.3864 191.7701 786.4161 189.0876 787.9809 195.5703 784.4042 200.6 779.4862 205.1826 776.9155 210.2123 775.7978 215.4656 772.5564 220.2717 767.7503 223.7366 761.7146 225.1897 740.031 221.2777 716.3355 223.066 710.747 221.5012 700.464 216.3597 665.2561 212.0007 661.3441 213.0066 659.7793 216.9186 658.8851 230.89 656.8733 242.7377 657.7674 247.2086 660.3382 249.1087Z" />
  <path class="Cibao Noroeste" d="M218.5067 34.6198L220.295 44.5674 225.8836 53.062 234.49 55.521 242.7611 58.8741 252.1498 62.2273 261.0915 66.6981 267.2389 71.3925 274.6158 73.2926 285.9047 76.8693 295.1817 84.358 305.5765 89.6112 317.2007 91.176 315.4123 100.9001 311.3886 109.8418 304.347 110.8477 297.4172 105.9298 297.976 111.8537 300.0997 117.1069 304.1234 119.007 308.259 121.5778 308.0354 129.6253 306.0235 138.0081 312.3945 142.8143 311.2768 148.0675 299.0937 148.0675 287.6931 143.1496 285.2341 146.2792 282.6634 150.0794 278.6396 150.6383 274.6158 149.7441 266.5683 146.2792 258.9679 142.0319 255.2794 146.9498 254.7206 152.7619 258.409 155.4444 260.7562 158.2387 250.138 161.9272 240.1903 166.6216 234.9371 166.9569 229.7956 166.398 225.5483 169.1923 222.0834 173.2161 217.0537 177.3516 213.1417 182.7166 212.2475 191.5465 211.4651 200.6 212.4711 206.7474 217.0537 211.1065 217.389 219.9364 215.936 229.1017 201.2939 228.9899 189.3344 223.066 177.2631 216.5833 164.8565 210.3241 156.3619 198.9234 144.9613 191.5465 140.1551 196.4645 134.5666 199.9294 127.9721 197.6939 121.2658 195.9056 117.8009 199.9294 115.789 205.2944 109.9769 207.418 104.3883 210.7712 99.8057 215.1303 81.9223 206.4121 72.7571 197.1351 71.6394 195.9056 66.7215 188.9758 65.3802 183.1637 67.1685 181.2636 74.6572 177.0163 77.2279 175.0044 80.6928 166.0627 82.2576 164.3861 85.3872 157.6799 85.6108 144.6026 82.2576 121.6895 74.5454 103.3591 73.316 96.6528 73.763 89.0524 73.9866 84.358 73.0924 79.2165 70.6334 71.0572 75.8867 72.2867 80.9164 74.8574 79.7987 69.0453 74.8807 57.6447 75.2161 54.8504 75.2161 52.615 67.8392 52.1679 66.8332 49.0383 69.851 44.4557 74.2101 39.6495 75.4396 38.7553 76.8926 38.5318 79.9105 38.5318 81.8106 37.7494 84.8284 34.0609 86.505 32.6079 89.8581 31.2667 92.2053 30.596 94.6642 29.4783 97.7938 26.5723 96.0055 22.8838 95.6702 19.6425 97.1232 17.2953 100.6999 16.4011 102.8235 16.7364 106.0649 18.1894 108.1886 18.5248 109.0827 17.8541 111.0946 15.1716 112.1006 14.501 140.3787 12.3773 147.6438 13.3833 154.6854 15.954 181.0634 29.7019 188.7756 31.2667 196.1525 28.3606 201.741 32.4961 205.653 34.2845 217.9479 34.7316 218.5067 34.6198Z" />
  <path class="Cibao Norte" d="M215.936 229.1017L217.389 219.9364 217.0537 211.1065 212.4711 206.7474 211.4651 200.6 212.2475 191.5465 213.1417 182.7166 217.0537 177.3516 222.0834 173.2161 225.5483 169.1923 229.7956 166.398 234.9371 166.9569 240.1903 166.6216 250.138 161.9272 260.7562 158.2387 258.409 155.4444 254.7206 152.7619 255.2794 146.9498 258.9679 142.0319 266.5683 146.2792 274.6158 149.7441 278.6396 150.6383 282.6634 150.0794 285.2341 146.2792 287.6931 143.1496 299.0937 148.0675 311.2768 148.0675 312.3945 142.8143 306.0235 138.0081 308.0354 129.6253 308.259 121.5778 304.1234 119.007 300.0997 117.1069 297.976 111.8537 297.4172 105.9298 304.347 110.8477 311.3886 109.8418 315.4123 100.9001 317.2007 91.176 305.5765 89.6112 295.1817 84.358 285.9047 76.8693 274.6158 73.2926 267.2389 71.3925 261.0915 66.6981 252.1498 62.2273 242.7611 58.8741 234.49 55.521 225.8836 53.062 220.295 44.5674 218.5067 34.6198 221.1892 33.8374 221.8598 31.602 222.0834 28.5842 223.5364 25.5663 226.7778 24.3369 229.125 27.0194 232.1428 34.7316 234.2664 33.3903 235.943 31.9373 237.0607 30.3725 237.8431 28.3606 235.4959 27.69 234.9371 27.2429 234.9371 26.5723 234.0429 24.5604 238.402 26.237 241.9787 26.0134 245.6671 25.1193 250.138 24.5604 252.9322 22.325 258.0737 12.7127 261.4268 10.4772 265.6741 9.4713 274.6158 5.0004 279.422 4.3298 283.8928 5.4475 288.1402 8.0183 290.4873 11.7067 289.0343 16.4011 294.3993 18.5248 296.4112 18.5248 295.07 14.0539 294.3993 12.3773 307.7001 14.501 311.6121 14.1657 319.7714 12.1538 322.901 12.3773 326.3659 14.6128 338.4372 29.2548 339.4431 32.0491 337.9901 34.7316 348.3848 34.8433 352.4086 36.7435 362.9151 45.6851 372.9745 50.8266 383.5927 54.5151 395.8876 56.4152 412.5415 56.527 413.8827 55.7446 415.3358 53.7327 418.6889 51.3855 422.4891 49.4854 425.1716 48.5912 436.0134 52.0561 452.7791 69.9395 462.9503 80.6695 467.5329 83.9109 472.5626 86.4816 478.1512 88.1582 490.7813 89.4994 500.9525 93.1879 519.3947 96.8763 523.5303 96.7646 526.3245 95.7586 528.7835 93.635 529.7894 92.629 529.9012 94.4174 524.7597 109.6183 511.1237 117.554 504.6409 117.1069 498.8288 117.554 497.1523 125.0427 496.3699 133.4255 493.352 132.8667 490.446 132.8667 484.075 122.5837 476.1393 115.5421 467.8682 120.3483 462.1679 128.6194 455.6851 133.0902 452.4438 125.2662 447.8612 123.0308 442.8315 121.1307 433.6662 132.5314 433.778 152.0913 432.6603 168.5217 426.7364 185.7344 418.9124 187.1875 413.4356 173.2161 407.7353 174.4455 401.5879 176.9045 392.8697 176.0103 386.2752 171.0924 371.745 175.7868 357.8854 183.1637 350.9556 185.0638 349.0554 190.9877 355.6499 196.1292 364.1446 198.4763 368.5036 206.1886 366.4917 216.1362 367.2741 224.519 360.1208 223.066 354.0851 223.4013 350.732 231.3371 336.3135 242.2906 319.1008 250.6735 310.0473 254.5855 301.9998 258.6092 304.0117 264.7567 302.7822 271.2394 295.6288 269.004 288.4755 266.7685 281.7692 268.2216 275.3982 271.3512 262.9916 267.4392 250.6968 259.5034 245.4436 254.809 244.5494 247.5439 242.2022 243.1848 237.6196 240.8376 226.3307 235.2491 215.936 229.1017Z" />
  <path class="Cibao Sur" d="M309.712 282.193L307.3648 275.9338 302.7822 271.2394 304.0117 264.7567 301.9998 258.6092 310.0473 254.5855 319.1008 250.6735 336.3135 242.2906 350.732 231.3371 354.0851 223.4013 360.1208 223.066 367.2741 224.519 366.4917 216.1362 368.5036 206.1886 364.1446 198.4763 355.6499 196.1292 349.0554 190.9877 350.9556 185.0638 357.8854 183.1637 371.745 175.7868 386.2752 171.0924 392.8697 176.0103 401.5879 176.9045 407.7353 174.4455 413.4356 173.2161 418.9124 187.1875 426.7364 185.7344 430.7602 195.5703 436.3487 204.8473 444.0609 212.336 455.3498 213.1184 464.2915 226.978 478.0394 236.0315 477.9276 234.802 477.0334 235.1373 482.1749 233.349 487.5399 234.9138 493.352 235.9197 498.9406 234.9138 511.2354 234.6902 523.3067 236.1432 531.1307 236.7021 538.284 239.9435 544.5432 242.8495 551.026 244.9732 559.5206 244.9732 568.4623 245.6438 575.2803 247.7674 581.2042 251.5677 580.1982 259.2799 577.7393 267.4392 573.6037 286.105 568.7976 305.1061 561.0854 311.1417 552.1437 306.6708 546.5551 305.6649 543.202 310.8064 538.284 310.024 532.4719 308.7945 525.2068 310.5828 519.9536 315.389 508.2176 318.1833 493.9109 321.2011 488.2106 327.5721 486.4222 336.7373 476.9217 341.2081 473.0097 349.591 469.3212 360.6563 459.1501 360.4328 451.9967 355.5149 444.6198 352.497 438.0253 354.956 431.0955 355.6266 420.0301 347.4673 408.4059 340.7611 404.4939 353.6147 397.2288 362.8917 391.4167 368.2568 387.1694 372.9512 374.9864 372.8394 362.468 373.0629 366.38 356.409 355.9853 343.6671 339.1078 335.0607 327.3718 319.0774 324.2422 292.1406 309.712 282.193Z" />
  <path class="El Valle" d="M99.8057 215.1303L104.3883 210.7712 109.9769 207.418 115.789 205.2944 117.8009 199.9294 121.2658 195.9056 127.9721 197.6939 134.5666 199.9294 140.1551 196.4645 144.9613 191.5465 156.3619 198.9234 164.8565 210.3241 177.2631 216.5833 189.3344 223.066 201.2939 228.9899 215.936 229.1017 226.3307 235.2491 237.6196 240.8376 242.2022 243.1848 244.5494 247.5439 245.4436 254.809 250.6968 259.5034 262.9916 267.4392 275.3982 271.3512 281.7692 268.2216 288.4755 266.7685 295.6288 269.004 302.7822 271.2394 307.3648 275.9338 309.712 282.193 307.3648 288.4521 301.6645 291.3582 300.5468 296.9468 296.6348 300.747 289.8167 305.4414 286.4636 312.8183 284.6752 327.2367 284.5635 342.2141 282.3281 347.2438 278.6396 350.8205 274.6158 349.1439 272.2686 344.1142 263.327 347.0202 265.0035 357.9738 264.6682 361.6623 261.8739 365.5743 263.6623 368.8156 264.3329 372.5041 259.0796 374.963 254.6088 376.7514 247.2319 387.5932 235.1606 390.8345 225.1012 385.1342 212.024 389.158 204.4235 390.3875 196.8231 389.6051 190.4521 391.7287 184.5283 395.6407 171.004 394.523 158.7091 388.2638 144.9613 385.4695 131.9958 380.6634 114.6713 376.9749 97.0114 375.5219 78.3457 372.6158 63.033 370.8275 70.4099 366.2449 74.3219 363.0035 77.5633 357.5267 79.4634 352.6088 80.8046 347.2438 81.2517 341.767 79.0163 330.3663 78.7927 318.5186 77.2279 313.1536 75.2161 310.4711 68.8451 304.659 66.3861 301.6411 62.4741 293.4818 59.9034 291.3582 53.4207 291.1347 46.6026 293.4818 41.6847 294.2642 40.7905 289.2345 45.5967 285.9932 59.7916 282.193 63.3683 279.9575 75.3278 266.6568 83.5989 255.0326 87.7344 251.2323 97.1232 244.5261 100.5881 239.3846 102.0411 234.3549 103.2706 216.9186 99.8057 215.1303Z" />
  <path class="Enriquillo" d="M63.033 370.8275L78.3457 372.6158 97.0114 375.5219 114.6713 376.9749 131.9958 380.6634 144.9613 385.4695 158.7091 388.2638 171.004 394.523 184.5283 395.6407 190.4521 391.7287 196.8231 389.6051 204.4235 390.3875 212.024 389.158 225.1012 385.1342 235.1606 390.8345 248.2378 404.1353 265.4506 410.171 274.1688 411.7358 281.5457 416.6537 281.4339 421.7952 275.6218 424.0306 278.4161 428.725 279.3102 438.002 273.7217 445.2671 265.2271 452.644 266.5683 455.8854 267.9096 459.3503 270.4803 461.2504 273.9452 462.5916 282.8869 465.1624 290.9344 467.0625 290.2638 471.3098 291.158 477.4572 293.2816 486.846 289.1461 493.7758 287.3578 491.4286 285.9047 488.5226 284.1164 485.9518 281.3221 483.7164 278.3043 482.4869 266.3448 479.9162 260.868 479.8044 256.5089 481.481 254.8323 485.9518 254.1617 488.4108 251.7028 492.6581 251.1439 495.8994 251.7028 499.5879 253.044 501.5998 254.8323 503.4999 256.8442 506.7413 261.3151 522.501 262.7681 525.1835 262.7681 528.6484 257.4031 536.8077 252.8205 548.5437 226.7778 586.7694 224.4306 593.3639 223.3129 595.7111 220.7421 597.4994 215.1536 600.4055 211.8004 603.3116 209.3415 606.1058 207.4414 609.5707 205.7648 614.3769 203.7529 613.7063 202.9705 613.2592 202.0763 612.4768 201.8528 612.2532 201.4057 614.3769 200.9586 615.1593 199.9527 616.0535 201.8528 616.0535 200.7351 618.5124 199.2821 620.3008 197.4937 621.5303 195.3701 621.9773 194.3641 623.2068 192.464 628.9072 191.4581 631.0308 188.105 635.9487 178.8279 663.1091 175.9219 668.4741 164.5212 684.4574 161.727 683.2279 159.3798 680.8807 159.268 679.763 156.5855 677.4158 137.5844 646.0081 133.0018 640.9784 123.613 637.29 101.5941 640.3078 92.2053 637.9606 94.8878 635.9487 103.6059 626.7835 105.5061 623.095 105.1707 616.8359 103.9413 612.4768 99.6939 604.2057 96.6761 599.6231 96.1173 597.9465 96.0055 594.4816 97.7938 583.4163 95.782 578.3866 90.9758 572.798 80.9164 564.4152 65.3802 558.4913 68.7333 549.7732 69.7393 544.7435 69.0686 536.2488 69.2922 531.4427 68.6216 528.2013 65.7155 519.9303 65.2684 517.136 66.0508 511.4356 68.1745 505.9589 80.4693 484.8341 80.6928 484.4988 83.9342 478.9102 83.2636 478.1278 80.8046 475.7806 76.7809 473.2099 62.0271 467.6213 51.5206 460.5798 49.2851 458.009 45.1496 451.8616 42.8024 449.738 32.0724 447.0554 27.9369 444.7083 26.2603 439.3432 27.2662 436.2136 29.3899 434.9842 30.8429 433.4194 30.1723 429.0603 28.3839 426.266 3.3472 400.5586 1 395.8642 5.6944 392.2876 15.9773 390.0521 36.655 393.8524 47.385 390.2757 50.9617 386.3637 56.662 376.6396 60.4623 372.3923 61.1329 371.9452 63.033 370.8275ZM132.7782 685.4634L135.9078 679.763 139.708 681.8867 143.7318 684.7927 150.7734 691.6108 146.5261 692.952 139.5963 699.9936 134.9019 701.6702 130.3193 698.9877 130.2075 692.7285 132.7782 685.4634Z" />
  <path class="Higuamo" d="M773.3388 272.6924L773.1153 273.8101 773.1153 273.9219 771.774 289.7934 779.3745 303.5413 756.6849 298.1762 741.037 300.9705 750.9846 321.3129 766.7443 337.7432 771.1034 349.4792 769.8739 361.8858 765.0678 373.0629 761.7146 383.793 765.4031 386.4755 769.0915 388.7109 773.7859 388.2638 778.2568 389.4933 784.963 396.8702 792.787 402.6823 801.5052 401.4528 809.5527 402.347 808.2114 409.0532 806.0878 416.6537 801.7287 423.9188 798.152 431.7428 799.9404 435.543 803.2935 438.3373 806.7584 446.7201 808.0997 454.8794 802.9582 453.9853 790.7751 449.8497 785.2983 448.9556 780.604 447.3908 772.5564 440.5727 766.5208 439.0079 761.1558 440.1256 755.7908 441.914 750.314 442.3611 744.7254 439.0079 739.0251 444.3729 703.1465 447.1672 692.4165 451.0792 686.7162 451.191 685.9338 450.7439 686.9397 443.0317 688.7281 433.7547 672.5212 430.5133 661.5677 418.7773 666.0385 411.1769 671.6271 403.8 672.1859 396.4231 670.9564 389.158 669.5034 389.8286 667.9386 389.7168 669.5034 385.246 672.9683 381.4458 663.0207 377.6455 653.6319 379.6574 648.4904 383.0106 642.4548 384.3518 626.3597 390.2757 613.7296 403.6882 611.4942 395.4172 605.6821 389.8286 604.1173 384.0165 600.3171 378.9868 594.0579 371.8334 586.5692 365.9096 580.1982 365.5743 573.7155 365.3507 570.2506 365.4625 567.0092 366.5802 565.7798 369.2627 564.9974 371.9452 553.2614 377.3102 540.1842 374.7395 531.1307 372.2805 522.4125 369.0392 517.3828 359.8739 509.5589 357.0796 502.8526 352.1617 495.6992 348.138 490.8931 342.5494 486.4222 336.7373 488.2106 327.5721 493.9109 321.2011 508.2176 318.1833 519.9536 315.389 525.2068 310.5828 532.4719 308.7945 538.284 310.024 543.202 310.8064 546.5551 305.6649 552.1437 306.6708 561.0854 311.1417 568.7976 305.1061 573.6037 286.105 577.7393 267.4392 585.1162 267.6627 589.2517 262.0741 589.6988 257.6033 590.2576 254.3619 605.0114 252.5736 623.1184 253.2442 630.9424 259.2799 638.8781 265.2037 647.5963 270.2334 655.6438 276.2691 659.3322 267.8862 661.0088 259.0563 660.1146 251.2323 660.3382 249.1087 663.8031 251.5677 679.004 249.2205 684.2572 251.1206 690.8517 248.9969 703.8172 254.1384 710.6352 253.356 708.9586 251.903 706.7232 250.5617 704.1525 249.5558 701.0229 249.2205 701.0229 247.2086 715.7767 246.4262 720.1358 247.2086 724.9419 250.7853 728.7421 259.727 733.4365 263.3036 738.1309 264.5331 747.6315 265.7626 773.3388 272.6924Z" />
  <path class="Ozama" d="M509.5589 357.0796L517.3828 359.8739 522.4125 369.0392 531.1307 372.2805 540.1842 374.7395 553.2614 377.3102 564.9974 371.9452 565.7798 369.2627 567.0092 366.5802 570.2506 365.4625 573.7155 365.3507 580.1982 365.5743 586.5692 365.9096 594.0579 371.8334 600.3171 378.9868 604.1173 384.0165 605.6821 389.8286 611.4942 395.4172 613.7296 403.6882 626.3597 390.2757 642.4548 384.3518 648.4904 383.0106 653.6319 379.6574 663.0207 377.6455 672.9683 381.4458 669.5034 385.246 667.9386 389.7168 669.5034 389.8286 670.9564 389.158 672.1859 396.4231 671.6271 403.8 666.0385 411.1769 661.5677 418.7773 672.5212 430.5133 688.7281 433.7547 686.9397 443.0317 685.9338 450.7439 671.6271 440.7963 665.4796 437.4431 661.4559 436.996 659.7793 439.6785 659.8911 443.0317 660.3382 446.273 659.5558 448.9556 657.0968 449.738 653.2966 449.738 649.7199 449.0673 648.1551 448.0614 643.4607 440.1256 641.3371 438.002 639.2134 437.3314 596.7404 432.637 589.0282 432.9723 587.7987 432.9723 583.3278 434.3135 574.7215 438.5608 567.5681 443.4788 564.8856 444.7083 560.9736 445.9377 557.5087 447.1672 554.6026 448.6202 553.5967 446.8319 553.3732 440.4609 549.7965 435.3195 543.6491 435.0959 537.3899 435.2077 534.2603 431.8546 533.4779 426.8249 528.3364 420.5657 521.6301 415.536 516.4887 406.259 513.4708 395.8642 514.8121 388.7109 517.2711 382.2282 509.7824 370.1569 509.5589 357.0796Z" />
  <path class="Valdesia" d="M235.1606 390.8345L247.2319 387.5932 254.6088 376.7514 259.0796 374.963 264.3329 372.5041 263.6623 368.8156 261.8739 365.5743 264.6682 361.6623 265.0035 357.9738 263.327 347.0202 272.2686 344.1142 274.6158 349.1439 278.6396 350.8205 282.3281 347.2438 284.5635 342.2141 284.6752 327.2367 286.4636 312.8183 289.8167 305.4414 296.6348 300.747 300.5468 296.9468 301.6645 291.3582 307.3648 288.4521 309.712 282.193 324.2422 292.1406 327.3718 319.0774 339.1078 335.0607 355.9853 343.6671 366.38 356.409 362.468 373.0629 374.9864 372.8394 387.1694 372.9512 391.4167 368.2568 397.2288 362.8917 404.4939 353.6147 408.4059 340.7611 420.0301 347.4673 431.0955 355.6266 438.0253 354.956 444.6198 352.497 451.9967 355.5149 459.1501 360.4328 469.3212 360.6563 473.0097 349.591 476.9217 341.2081 486.4222 336.7373 490.8931 342.5494 495.6992 348.138 502.8526 352.1617 509.5589 357.0796 509.7824 370.1569 517.2711 382.2282 514.8121 388.7109 513.4708 395.8642 516.4887 406.259 521.6301 415.536 528.3364 420.5657 533.4779 426.8249 534.2603 431.8546 537.3899 435.2077 543.6491 435.0959 549.7965 435.3195 553.3732 440.4609 553.5967 446.8319 554.6026 448.6202 551.1377 450.4086 544.9903 455.8854 540.2959 463.2623 538.5076 471.9804 537.0546 474.3276 530.6836 477.6807 529.2306 479.8044 528.1129 483.0458 518.8359 491.6521 512.1296 499.4761 508.3294 502.7175 506.6528 501.9351 505.8704 501.9351 499.9465 502.0469 494.8051 502.941 491.3402 504.8411 486.534 501.8233 481.2807 500.8174 445.9611 500.9292 440.0372 502.8293 428.6365 509.2002 422.2656 510.6532 403.1527 510.6532 398.6818 508.8649 398.3465 506.2942 400.2466 504.3941 402.9292 502.7175 404.1586 500.9292 403.3762 497.7996 401.4761 496.0112 399.576 494.8935 397.4524 492.0992 395.7758 490.9815 392.1991 488.6343 390.9696 485.9518 391.6403 483.0458 393.3168 481.7045 395.1052 480.6986 396.5582 478.6867 397.8994 472.8746 398.0112 466.7272 397.3406 461.3622 395.7758 457.8972 389.7402 450.2968 386.0517 447.6143 379.6807 445.1553 374.204 443.8141 367.2741 443.367 361.462 444.9318 358.8913 449.9615 359.8972 456.1089 359.2266 458.5679 350.9556 466.6154 348.7201 468.0684 345.7023 468.9626 342.5727 468.8508 336.7606 467.0625 334.3017 466.8389 332.0662 467.6213 328.266 470.4156 325.6953 470.9745 322.2304 470.5274 321.0009 471.3098 318.2066 473.8805 317.4242 474.8865 315.7476 478.5749 315.4123 479.8044 314.6299 480.9221 310.9415 482.1516 309.6002 482.8222 302.2233 491.6521 298.3113 493.9993 291.8286 494.7817 289.1461 493.7758 293.2816 486.846 291.158 477.4572 290.2638 471.3098 290.9344 467.0625 282.8869 465.1624 273.9452 462.5916 270.4803 461.2504 267.9096 459.3503 266.5683 455.8854 265.2271 452.644 273.7217 445.2671 279.3102 438.002 278.4161 428.725 275.6218 424.0306 281.4339 421.7952 281.5457 416.6537 274.1688 411.7358 265.4506 410.171 248.2378 404.1353 235.1606 390.8345Z" />
  <path class="Yuma" d="M942.4486 521.6068L945.2429 525.407 948.3725 531.1074 950.3844 536.3606 949.9373 538.596 945.69 537.7019 936.8601 533.5663 932.1657 532.6722 927.2477 533.231 918.7531 536.0253 914.0587 536.5842 904.3347 534.0134 897.4048 527.7542 892.934 519.9303 890.5868 512.7769 894.6106 511.5474 899.5285 512.5534 904.2229 514.9006 908.3584 517.8066 911.5998 519.0361 924.4535 520.7127 938.7602 520.2656 942.4486 521.6068ZM808.0997 454.8794L806.7584 446.7201 803.2935 438.3373 799.9404 435.543 798.152 431.7428 801.7287 423.9188 806.0878 416.6537 808.2114 409.0532 809.5527 402.347 801.5052 401.4528 792.787 402.6823 784.963 396.8702 778.2568 389.4933 773.7859 388.2638 769.0915 388.7109 765.4031 386.4755 761.7146 383.793 765.0678 373.0629 769.8739 361.8858 771.1034 349.4792 766.7443 337.7432 750.9846 321.3129 741.037 300.9705 756.6849 298.1762 779.3745 303.5413 771.774 289.7934 773.1153 273.9219 773.1153 273.8101 773.3388 272.6924 783.9571 275.5985 788.3162 275.2631 793.4576 272.3571 791.7811 270.2334 788.3162 268.1098 788.3162 265.3155 793.2341 263.8625 797.4814 267.7745 803.2935 277.275 807.0937 279.5105 811.2293 280.7399 814.8059 282.3047 816.7061 285.4343 820.0592 282.7518 826.7655 279.6222 829.895 277.275 827.7714 274.9278 828.7773 274.369 831.3481 274.2572 833.6953 273.4748 836.6013 270.457 837.3837 269.2275 838.5014 269.1157 848.4491 269.6746 854.1494 270.9041 859.4026 272.6924 863.9853 275.2631 864.5441 276.0455 864.5441 277.1633 864.7677 278.281 865.8854 279.2869 871.4739 281.2988 872.0328 281.187 881.8686 283.1989 888.0161 283.5342 890.5868 284.4284 891.0339 284.7637 893.2693 286.3285 895.84 287.7815 900.758 288.1168 903.5523 289.2345 935.6306 319.1892 947.4783 333.4959 964.1322 346.2378 975.98 354.6207 979.4449 356.1855 981.2332 357.3032 993.6398 369.3745 1009.3996 378.9868 1017 390.611 1015.547 402.1234 989.6161 441.6904 987.716 443.2552 985.9276 445.2671 985.1452 448.0614 985.5923 458.1208 985.1452 461.0268 982.0156 465.9448 977.433 468.292 971.7327 468.9626 965.1382 468.9626 960.1085 467.286 949.1549 460.0209 945.2429 458.7914 940.6603 461.921 941.3309 466.6154 942.7839 472.0922 940.4367 477.7925 937.0836 482.3751 934.96 487.6284 930.7127 504.5058 929.1479 507.5237 926.0183 508.6414 902.6581 510.5415 897.9637 508.8649 897.2931 498.1349 890.5868 484.1635 881.4216 470.4156 873.2623 461.0268 864.5441 454.9912 859.0673 452.644 853.1435 450.0733 841.5193 448.5085 828.2185 453.9853 808.0997 454.8794Z" />
</svg>