<?xml version="1.0" encoding="utf-8"?>
<svg xmlns="http://www.w3.org/2000/svg" viewBox="0 0 1021 758" style="stroke-width:0.25px;stroke-linejoin:round;stroke:#444;fill:#ddd" fill-rule="evenodd">
  <path class="Atlántida" d="M257.8502 292.7127L260.1974 292.042 261.6504 291.2596 262.6563 289.4713 262.7681 287.5712 262.2092 286.0064 261.2033 285.224 259.862 285.5593 259.1914 283.3239 256.7325 280.4178 256.7325 278.6295 257.6266 277.1765 260.1974 274.4939 261.3151 272.8174 262.7681 268.6818 263.774 267.1171 265.5624 265.4405 267.1272 264.4345 268.0213 262.8697 267.5743 258.846 268.5802 258.5107 271.4862 258.846 274.1688 259.8519 281.4339 264.211 284.2282 264.4345 284.2282 263.4286 282.5516 261.752 284.2282 259.8519 289.9285 256.387 286.7989 260.6343 285.6812 263.3168 287.0224 264.4345 287.9166 265.664 303.2293 279.5237 308.1472 281.6473 313.4004 280.6414 314.2946 279.6354 315.9712 276.9529 316.6418 276.1705 318.3184 275.947 322.4539 276.1705 323.3481 275.4999 324.354 272.5938 326.813 271.1408 330.0543 270.8055 346.82 274.7175 361.5738 279.859 376.6629 281.5355 393.9875 285.5593 399.7996 286.0064 406.0587 285.3358 416.0064 282.4297 418.9124 281.8708 419.3595 281.4238 422.1538 279.3001 422.7127 278.9648 423.6068 278.1824 425.6187 278.9648 427.6306 280.0825 428.413 280.6414 435.3428 281.2002 467.1976 278.4059 472.5626 278.6295 477.5923 280.6414 477.9276 280.8649 477.9276 282.3179 476.8099 282.3179 476.4746 282.4297 476.3628 282.8768 476.4746 283.4356 476.8099 284.3298 477.0334 285.3358 477.257 287.7947 477.8158 289.136 478.8218 290.3655 481.169 292.3773 482.622 293.8304 484.5221 297.9659 484.9692 298.8601 486.534 299.4189 487.4282 299.866 487.987 299.9778 489.1047 299.866 489.6636 300.4249 489.9989 300.9837 490.3342 304.8957 490.3342 308.6959 489.6636 310.8196 488.0988 312.3844 484.1868 313.9492 480.6101 316.0728 477.1452 314.508 472.5626 313.7256 468.5388 314.2845 467.3094 314.508 466.3034 314.9551 464.8504 315.1787 463.5091 315.0669 461.7208 314.3963 460.156 314.1727 454.2321 314.508 448.3083 312.8315 445.514 312.3844 443.6139 312.7197 440.149 313.9492 436.684 315.4022 429.9778 319.2024 425.8422 320.6554 422.2656 321.5496 417.2359 321.5496 414.7769 321.7732 411.7591 321.1025 409.7472 318.42 398.123 321.5496 390.7461 321.3261 387.84 321.8849 381.6926 327.2499 379.0101 330.2678 377.4453 331.4972 374.5393 333.1738 363.921 337.0858 359.0031 340.5507 357.3265 342.0037 356.5441 342.5626 349.8378 342.4508 338.2136 339.6565 336.5371 339.6565 334.9723 339.433 333.5193 338.3153 331.6191 337.6447 330.3897 337.4211 329.2719 337.7564 328.4895 338.4271 327.4836 338.6506 326.813 339.3212 325.807 339.7683 325.0246 339.9919 324.0187 339.8801 323.1245 339.6565 320.7773 338.4271 319.3243 337.5329 318.3184 336.7505 317.0889 335.1857 316.0829 333.3974 315.1888 329.1501 315.077 327.0264 314.8535 325.2381 312.0592 323.338 310.4944 323.2262 309.712 323.5615 303.341 327.1382 300.9938 326.9146 294.064 328.703 286.7989 329.3736 284.3399 328.2559 277.8572 320.9908 277.2983 320.2084 276.8513 319.2024 275.9571 313.9492 275.7336 311.4902 274.2805 305.5663 272.4922 302.4367 269.8097 300.9837 257.8502 292.7127Z" />
  <path class="Choluteca" d="M324.4658 684.8059L324.4658 684.6942 327.8189 682.2352 329.6073 678.0997 329.2719 674.6348 327.4836 671.1699 326.5894 668.5991 326.3659 667.0343 326.813 663.5694 321.0009 659.2103 318.6537 654.1806 318.5419 653.0629 317.8713 651.6099 317.0889 650.3804 317.536 643.7859 316.7536 642.6682 315.6359 641.774 314.2946 641.1034 311.3886 638.7562 311.0532 638.3091 310.3826 636.0737 310.3826 633.7265 311.2768 630.0381 311.7239 625.679 312.171 623.7789 313.9593 623.22 317.2007 623.1083 319.1008 623.6671 320.8891 624.1142 321.6715 623.8906 322.5657 623.8906 323.2363 624.1142 323.1245 624.7848 321.895 627.5791 322.2304 629.8145 325.36 632.8323 327.5954 634.956 334.1899 634.1736 336.09 635.1795 337.7666 635.9619 343.3551 635.2913 351.4026 638.1974 349.7261 645.2389 350.8438 647.4744 352.6321 648.0332 354.0851 649.598 355.0911 650.4922 355.7617 653.7336 356.2088 655.7454 358.556 657.0867 366.0447 657.5338 367.3859 658.6515 367.4977 660.2163 368.8389 663.3459 371.745 665.5813 373.7569 665.9166 374.8746 665.4695 379.9043 662.5635 383.5927 658.3162 383.9281 655.8572 384.5987 654.516 386.387 652.8394 388.7342 652.057 390.0755 651.1628 391.8638 649.8216 394.4345 646.9155 395.664 645.1272 396.3347 643.5624 396.8935 640.5446 397.2288 639.9857 398.3465 640.2092 399.1289 640.6563 403.9351 640.2092 404.6057 641.4387 410.8649 637.3032 412.2062 636.7443 415.0004 636.5208 416.2299 636.5208 417.3476 636.409 418.6889 634.2854 419.8066 633.2794 421.1479 633.0559 423.495 632.0499 423.6068 632.0499 423.1597 640.9916 423.3833 642.4447 424.0539 643.3388 424.7245 643.7859 426.1776 644.9036 426.7364 646.0213 426.8482 648.7039 425.8422 654.0689 425.954 656.8631 431.2073 676.982 430.9837 679.6645 428.8601 684.2471 428.6365 686.7061 429.1954 688.2708 430.2013 688.8297 431.319 689.0532 432.325 690.0592 433.5545 692.1828 433.8898 693.1888 434.8957 697.9949 434.5604 700.5657 433.2191 702.8011 430.9837 704.813 429.866 705.7072 428.6365 706.4895 427.1835 706.8249 425.6187 706.3778 416.2299 701.6834 413.4356 701.4598 410.7531 702.2422 408.6295 703.6953 400.8055 710.5133 399.4642 712.1899 398.3465 714.4253 397.1171 719.1197 396.8935 719.5668 397.2288 720.5727 398.4583 723.2552 398.6818 723.5905 397.3406 732.4205 397.6759 733.5382 398.6818 733.8735 399.2407 734.5441 398.7936 736.1089 398.0112 737.0031 395.664 738.2326 394.6581 738.9032 390.8579 744.9388 388.9578 746.9507 384.8222 749.6332 381.4691 751.198 380.5749 753.9923 378.6748 753.8805 374.8746 751.5333 372.5274 751.3098 335.084 753.657 335.1958 753.657 336.7606 752.5393 337.2077 750.4156 338.4372 748.7391 340.1138 747.5096 342.3492 746.7272 342.3492 745.7212 337.8783 745.4977 334.637 744.8271 332.178 743.4858 330.0543 741.0268 329.0484 739.3503 328.7131 738.4561 329.0484 735.7736 330.0543 735.4383 335.084 734.6559 336.7606 734.097 327.2601 731.6381 322.0068 731.0792 318.8772 731.9734 317.8713 731.9734 317.4242 725.4906 315.1888 718.8961 312.0592 713.084 308.9296 708.8367 307.9237 706.266 307.7001 706.0425 307.253 705.3718 306.3589 705.4836 305.2411 705.7072 304.4587 705.4836 303.341 703.9188 302.7822 702.5776 303.0057 701.2363 304.4587 699.6715 305.8 698.7773 308.5943 697.4361 310.0473 696.2066 313.2887 691.624 314.5182 690.5063 316.6418 690.9534 319.2125 690.3945 324.4658 688.2708 324.2422 686.9296 324.2422 685.9237 324.4658 684.8059Z" />
  <path class="Colón" d="M712.3118 402.919L702.5877 391.4066 697.2227 386.3769 674.4213 376.3175 671.6271 374.6409 662.2383 363.0167 653.5201 350.163 647.708 345.4686 629.9364 338.6506 613.2825 324.2321 600.0935 317.0788 596.6286 316.2964 595.2873 317.0788 593.6108 317.6376 592.3813 317.9729 590.7047 317.3023 589.6988 316.2964 588.5811 315.8493 587.6869 315.7375 584.1102 317.5259 584.4455 319.0906 583.8867 320.3201 582.5454 321.8849 579.0805 324.6792 575.8392 326.6911 574.0508 326.5793 572.1507 325.3498 571.033 325.0145 569.9153 324.791 568.7976 325.2381 568.127 326.244 564.1032 332.7267 554.1556 342.4508 544.7668 347.5923 544.0961 348.5982 543.0902 348.5982 541.8607 348.0394 540.5195 347.7041 538.9547 347.5923 536.0486 348.0394 534.5956 348.5982 531.9131 349.1571 528.7835 350.7219 525.095 351.6161 521.2948 350.7219 511.3472 345.3569 511.0119 340.886 510.0059 338.6506 509.8942 337.7564 510.9001 330.2678 510.5648 327.9206 510.1177 326.5793 509.6706 326.1322 508.8882 326.0205 508.5529 326.244 508.2176 326.6911 508.1058 326.9146 507.8823 326.9146 507.6587 326.6911 507.2117 326.4675 506.8763 326.244 506.3175 326.1322 505.8704 326.0205 505.4233 325.6851 504.8645 325.0145 504.4174 324.5674 503.9703 324.3439 503.5232 324.1204 503.1879 324.0086 502.182 324.1204 498.0464 323.0026 490.2224 323.338 488.5459 323.2262 487.7635 322.8909 487.4282 322.2202 485.5281 319.9848 480.6101 316.0728 484.1868 313.9492 488.0988 312.3844 489.6636 310.8196 490.3342 308.6959 490.3342 304.8957 489.9989 300.9837 489.6636 300.4249 489.1047 299.866 487.987 299.9778 487.4282 299.866 486.534 299.4189 484.9692 298.8601 484.5221 297.9659 482.622 293.8304 481.169 292.3773 478.8218 290.3655 477.8158 289.136 477.257 287.7947 477.0334 285.3358 476.8099 284.3298 476.4746 283.4356 476.3628 282.8768 476.4746 282.4297 476.8099 282.3179 477.9276 282.3179 477.9276 280.8649 481.7278 283.3239 484.1868 283.9945 488.2106 284.218 491.4519 283.771 494.1344 282.4297 509.6706 272.8174 513.6944 268.2348 515.4827 266.7817 521.1831 264.4345 526.7716 263.0933 550.1318 262.1991 552.1437 261.6403 553.8202 260.8579 560.1912 256.1635 563.5443 252.3633 565.1091 248.2277 562.4266 244.7628 552.1437 243.3098 547.2257 242.0803 548.0081 240.1802 552.2554 239.7331 564.8856 242.3039 573.6037 243.9804 579.6394 244.651 587.3516 246.8865 595.0638 248.8983 597.6345 249.3454 599.5347 250.2396 599.87 252.1397 599.87 254.4869 600.3171 256.387 601.5465 256.387 601.4348 255.1575 601.7701 254.7105 602.2172 254.3751 602.6642 254.0398 605.3468 254.1516 606.7998 256.2752 609.7058 258.6224 613.059 261.1932 620.3241 264.211 632.6189 267.5641 641.1135 266.7817 653.2966 265.5523 670.8447 265.1052 680.2334 261.0814 692.0812 252.475 699.9052 247.7806 712.3118 247.4453 712.3118 402.919Z" />
  <path class="Comayagua" d="M247.2319 510.7782L247.9025 510.2194 248.0143 509.7723 248.1261 509.2134 248.0143 508.6546 246.7848 506.3074 241.5316 499.6011 239.6315 497.8128 239.7432 496.1362 239.7432 494.4596 239.0726 493.789 238.0667 492.8948 234.1547 490.9947 232.9252 489.877 231.8075 487.8651 231.4722 486.7474 231.3604 485.0708 231.1369 484.4002 229.7956 481.8295 228.3426 479.8176 225.3248 478.6999 222.5305 476.688 216.9419 475.235 215.7124 475.1232 214.1476 474.5644 213.2535 474.229 211.018 471.0994 213.1417 467.6345 211.5769 463.3872 210.571 461.5989 210.6827 459.2517 211.018 458.0222 211.9122 457.2398 213.7006 456.4574 214.5947 455.7868 219.6244 450.6453 225.3248 449.5276 225.5483 442.1507 226.4425 444.945 227.5602 446.5098 229.3485 447.7393 242.2022 438.4623 244.5494 435.3327 248.1261 431.6442 248.7967 431.1971 252.3734 430.303 255.3912 428.8499 262.8799 423.3732 265.5624 420.9142 266.3448 417.3375 266.3448 411.749 281.5457 411.5254 283.334 411.749 290.4873 410.1842 291.0462 408.7311 295.8524 405.1545 296.4112 404.9309 296.8583 404.8191 297.6407 405.0427 298.6466 405.4898 300.7703 406.9428 301.9998 408.1723 303.6763 410.743 304.2352 412.196 304.6823 414.3197 305.0176 415.1021 305.3529 415.6609 306.1353 416.4433 306.9177 417.0022 308.4825 417.5611 309.1531 417.8964 309.8238 418.9023 310.7179 419.3494 311.165 420.3553 311.3886 421.1377 311.2768 422.7025 311.2768 423.4849 311.5003 424.4909 311.9474 425.7204 312.171 426.391 312.618 427.3969 312.618 427.844 312.618 428.2911 312.618 428.6264 312.9534 429.0735 313.8475 429.6323 315.6359 429.9677 317.9831 429.9677 322.0068 427.9558 325.2482 424.938 329.1602 425.1615 334.9723 426.7263 335.6429 427.0616 336.8724 428.1793 337.8783 428.6264 338.6607 428.4029 339.7784 427.3969 340.7844 427.6205 341.7903 427.844 346.1494 431.8678 349.0554 433.0972 349.6143 433.6561 350.5085 434.5503 350.732 435.7798 352.2968 438.2387 349.6143 440.3624 346.2612 440.5859 345.8141 440.8095 345.2552 441.2565 344.8081 442.1507 344.3611 443.8273 344.1375 446.398 344.9199 449.0805 345.5905 454.7809 344.5846 458.6928 342.908 463.3872 342.7963 464.0579 342.908 464.2814 342.908 464.6167 342.5727 465.0638 341.3432 465.8462 340.5608 466.2933 339.7784 466.6286 339.2196 466.7404 338.6607 466.9639 337.2077 468.0816 336.3135 468.3052 335.7547 468.4169 335.4194 468.6405 335.1958 469.0876 335.084 470.2053 334.8605 470.6524 334.3017 470.7641 333.9663 470.5406 333.7428 470.3171 333.5193 470.0935 333.2957 470.3171 333.1839 470.8759 333.4075 472.2172 333.5193 473.1113 333.5193 474.0055 332.9604 476.3527 330.5014 480.7118 328.7131 480.6 328.0425 480.4882 327.3718 480.2647 326.813 480.0411 326.5894 479.7058 326.4777 479.0352 326.2541 478.6999 325.807 478.6999 325.2482 478.6999 324.6893 478.6999 324.0187 478.4763 323.2363 478.2528 322.5657 477.8057 321.895 477.5822 321.3362 477.4704 320.7773 477.8057 320.442 478.4763 320.5538 481.0471 320.442 482.053 320.2185 482.9472 320.1067 483.7296 318.6537 486.8592 310.2708 495.1303 310.8297 497.701 311.165 499.0422 311.8356 500.607 312.7298 501.8365 315.3006 503.5131 319.1008 506.978 319.6596 507.5369 319.8832 508.3193 319.8832 509.9958 319.4361 510.6664 318.8772 511.1135 319.1008 511.6724 319.3243 512.1195 323.3481 515.2491 323.9069 516.4785 322.2304 520.0552 317.8713 525.8673 317.0889 526.4262 315.8594 526.8733 313.8475 525.9791 312.8416 525.7556 312.171 525.7556 311.3886 526.0909 310.9415 527.0968 310.6062 528.8851 310.9415 535.4796 311.2768 537.268 311.8356 538.2739 312.8416 539.3916 313.7358 540.174 314.5182 540.7329 315.077 540.9564 315.5241 541.18 315.9712 541.4035 316.1947 541.6271 316.6418 542.7448 316.8653 543.4154 316.8653 544.4213 316.1947 545.5391 315.077 546.2097 310.7179 547.1039 307.5883 549.1157 305.8 552.6924 305.6882 553.5866 304.6823 554.9278 302.6704 556.1573 298.0878 558.281 292.8345 558.8398 291.8286 558.8398 290.8227 559.3987 289.4814 560.5164 286.1283 564.6519 286.0165 568.1168 280.2044 568.6757 278.0807 570.2405 273.8334 574.376 273.7217 568.6757 272.7157 566.9991 271.598 565.4343 269.8097 564.5402 267.0154 562.0812 265.2271 560.9635 263.327 560.2928 261.6504 559.9575 258.9679 558.9516 258.409 558.281 258.1855 557.6103 258.409 556.8279 258.7443 556.1573 259.6385 553.4748 257.2913 550.7923 251.7028 548.4451 251.1439 545.092 251.7028 543.9743 252.0381 543.6389 252.4851 543.6389 252.7087 543.6389 253.7146 543.9743 259.7503 542.5212 263.1034 542.7448 265.6741 542.4095 267.686 541.9624 271.1509 540.6211 272.7157 539.9505 274.8394 538.2739 277.2983 538.6092 279.8691 538.0504 281.3221 537.4915 281.9927 536.9327 283.5575 534.9208 284.1164 532.7971 282.7751 531.4559 283.8928 529.6675 283.334 526.4262 282.8869 525.0849 280.875 520.7259 280.0926 520.167 272.8275 523.1848 271.4862 522.8495 269.6979 522.626 266.4565 521.5083 264.6682 520.5023 259.6385 519.4964 259.1914 519.3846 257.7384 517.708 257.5149 517.3727 251.1439 515.5844 248.9085 513.2372 247.2319 510.7782Z" />
  <path class="Copán" d="M36.4315 463.3872L35.7608 462.2695 34.196 460.9283 32.4077 458.5811 29.3899 451.2042 27.8251 448.6334 24.5837 444.6097 23.1307 442.486 22.3483 440.1388 22.5718 437.0092 23.8013 434.9974 27.8251 431.5325 29.3899 429.297 30.6194 427.5087 32.6312 422.7025 32.6312 418.2317 29.5017 415.2139 32.0724 407.5017 34.0843 404.3721 36.3197 402.5837 37.3256 401.6895 42.3553 399.1188 58.8975 393.5303 64.5978 390.8477 85.1637 374.8645 99.2469 363.9109 99.6939 364.6933 106.6238 373.1879 106.7355 374.5292 106.512 375.5351 106.1767 377.8823 109.1945 381.3472 112.5476 384.9239 115.2301 386.1534 116.5714 387.0475 116.9067 387.8299 117.0185 388.3888 115.0066 391.0713 116.1243 395.2068 116.7949 396.101 118.1362 398.1129 118.4715 399.1188 118.5833 400.3483 118.1362 401.5778 114.2242 405.0427 112.7712 408.284 112.5476 411.3019 110.8711 417.114 108.7474 422.5908 109.1945 424.1556 109.5298 424.938 109.8651 425.9439 110.424 426.9498 111.4299 427.6205 112.4359 427.9558 118.1362 426.8381 119.0304 432.2031 118.3597 436.6739 116.2361 438.2387 116.5714 440.0271 116.2361 440.8095 115.0066 442.2625 114.1124 443.1567 113.4418 444.3861 112.9947 445.7274 112.7712 447.9628 112.8829 450.5336 114.0007 452.3219 115.6772 456.1221 116.4596 459.1399 116.4596 460.1459 116.3479 461.1518 115.1184 461.2636 110.424 462.6048 104.6119 463.0519 96.4526 462.046 93.9936 462.9402 93.7701 465.3991 93.7701 466.0697 95.5584 470.4288 100.5881 475.1232 101.7058 476.9116 103.7177 480.4882 104.1648 490.6594 100.2528 490.9947 97.1232 490.4359 95.782 490.4359 94.3289 490.6594 92.7641 491.1065 90.0816 492.1124 88.8521 492.8948 88.2933 494.2361 88.4051 496.248 88.4051 496.9186 88.8521 497.4774 88.9639 498.0363 88.5168 498.2598 86.8403 498.8187 84.8284 498.3716 82.9283 496.695 80.6928 496.1362 77.7868 494.9067 74.8807 492.0007 72.7571 488.5358 72.5336 487.3063 72.6453 482.8354 71.5276 480.6 61.1329 472.6642 59.7916 470.2053 58.5622 465.1756 56.1032 461.7107 46.2673 460.2576 44.1437 461.04 38.8904 462.6048 36.4315 463.3872Z" />
  <path class="Cortés" d="M147.0849 326.5793L158.262 317.7494 165.7507 310.2607 170.6686 301.7661 171.6746 300.5366 175.0277 300.4249 177.7102 299.5307 180.0574 298.1894 182.8517 296.96 183.8576 298.1894 184.9754 295.954 184.8636 294.1657 185.3107 292.6009 187.2108 291.9303 188.2167 292.2656 195.5936 297.6306 199.6174 298.8601 203.8647 296.96 213.3652 286.7888 217.389 284.218 216.4948 281.5355 218.0596 280.9767 224.5424 281.8708 234.0429 276.1705 235.1606 273.8233 235.6077 272.1468 234.6018 271.3644 232.8134 270.9173 231.3604 269.6878 230.6898 268.4583 231.2486 267.8994 238.1784 267.7877 240.8609 266.8935 243.5435 264.9934 248.3496 263.4286 262.321 262.4227 265.3388 261.6403 266.233 259.1813 267.5743 258.846 268.0213 262.8697 267.1272 264.4345 265.5624 265.4405 263.774 267.1171 262.7681 268.6818 261.3151 272.8174 260.1974 274.4939 257.6266 277.1765 256.7325 278.6295 256.7325 280.4178 259.1914 283.3239 259.862 285.5593 261.2033 285.224 262.2092 286.0064 262.7681 287.5712 262.6563 289.4713 261.6504 291.2596 260.1974 292.042 257.8502 292.7127 252.9322 296.0658 252.0381 297.6306 254.9441 298.3012 252.5969 301.0955 255.2794 304.1133 259.5267 307.5782 261.9857 311.4902 261.6504 312.0491 260.4209 316.4081 260.5327 316.967 259.5267 317.5259 258.2972 317.4141 257.4031 317.0788 256.8442 316.967 255.8383 319.2024 255.1677 321.9967 254.2735 324.3439 252.5969 325.4616 250.8086 328.703 251.3674 331.0502 252.8205 333.062 253.6029 335.2975 253.1558 338.3153 251.9263 338.0917 250.138 336.7505 248.3496 336.7505 247.2319 338.3153 248.3496 339.2095 250.3615 340.3272 252.0381 341.892 252.5969 344.2392 251.9263 345.6922 249.5791 347.7041 245.5553 354.4103 244.4376 355.7516 243.767 356.3105 243.0964 356.6458 241.5316 357.8752 240.6374 358.4341 238.402 358.993 237.6196 359.44 237.396 359.9989 237.5078 360.446 237.7314 361.0048 237.7314 361.6755 237.2843 362.4579 235.3842 364.4697 235.6077 365.5875 235.6077 366.8169 235.3842 367.9347 234.9371 369.0524 235.2724 370.8407 233.8194 373.2997 234.6018 374.5292 235.1606 374.4174 236.1666 373.9703 236.6136 374.1938 236.7254 374.4174 236.7254 376.4293 236.1666 378.8882 236.3901 380.0059 235.8312 381.6825 235.8312 382.3531 236.6136 382.912 239.9668 381.9061 242.9846 382.2414 244.7729 382.5767 247.2319 384.4768 247.9025 385.2592 248.3496 386.0416 248.4614 386.7122 248.9085 387.4946 249.8026 387.6064 252.2616 387.6064 252.9322 387.9417 253.4911 388.5006 254.0499 388.6123 255.9501 388.7241 256.3971 389.3947 256.8442 390.9595 257.7384 391.4066 258.5208 391.5184 261.0915 390.9595 265.8977 395.7657 266.1212 396.8834 266.6801 398.6717 266.9036 400.013 266.9036 400.7954 266.6801 401.466 266.0095 401.9131 265.6741 403.1426 265.4506 404.1485 266.3448 411.749 266.3448 417.3375 265.5624 420.9142 262.8799 423.3732 255.3912 428.8499 252.3734 430.303 248.7967 431.1971 248.1261 431.6442 244.5494 435.3327 242.2022 438.4623 229.3485 447.7393 227.5602 446.5098 226.4425 444.945 225.5483 442.1507 225.213 435.2209 223.9835 431.3089 218.842 426.6145 215.2653 426.5028 214.4829 426.2792 214.0359 423.4849 215.1536 416.4433 216.0477 414.9903 218.2832 407.3899 220.295 405.1545 219.6244 403.925 218.5067 403.4779 217.389 402.4719 216.2713 401.9131 212.5828 400.5718 207.8884 397.554 205.9883 395.3186 204.7589 392.5243 205.653 389.2829 212.3593 382.1296 213.2535 379.4471 210.0121 378.4411 207.8884 377.0999 206.659 376.0939 203.0823 368.8288 201.9646 352.3985 201.4057 351.6161 197.382 350.8337 195.7054 350.0513 193.47 348.4865 191.011 346.4746 186.2048 343.5685 185.1989 342.4508 184.4165 341.3331 184.0812 340.4389 183.9694 339.433 184.0812 338.2035 184.4165 336.1916 184.3047 335.2975 184.0812 333.7327 184.193 332.2796 183.9694 331.609 182.8517 330.7149 180.5045 329.3736 165.1919 324.5674 156.4737 323.2262 147.1967 326.5793 147.0849 326.5793Z" />
  <path class="El Paraíso" d="M432.8838 511.6724L439.8136 514.5784 440.8196 514.802 442.3844 514.5784 442.9432 514.3549 443.3903 514.1314 445.1787 513.796 445.7375 513.9078 446.5199 514.3549 448.0847 516.255 448.8671 517.9316 449.5377 518.714 450.3201 518.8257 451.4378 518.6022 454.9028 519.0493 464.068 521.62 467.3094 524.9732 467.98 525.3085 471.7802 526.3144 474.798 528.6616 475.4686 529.444 476.251 530.5617 477.257 532.9089 478.0394 533.5795 479.4924 534.0266 491.4519 534.809 493.352 534.4737 494.5815 534.0266 498.27 531.7912 499.8348 530.2264 500.6172 529.6675 501.5113 529.2205 502.4055 528.9969 504.1938 527.8792 506.541 526.6497 509.6706 525.7556 511.3472 525.532 515.5945 525.6438 517.7182 526.0909 519.1712 526.7615 520.6242 528.5498 524.9833 536.4856 526.101 537.7151 530.6836 539.5034 534.8191 540.3976 536.2722 540.3976 536.831 539.727 537.3899 538.2739 537.837 537.7151 538.3958 537.268 539.1782 537.0444 539.8488 537.0444 542.7549 537.7151 544.4315 538.721 546.108 540.174 548.2317 543.5272 549.1259 545.7626 549.7965 547.998 550.02 549.5628 550.8024 550.9041 552.1437 551.91 558.2911 554.8161 561.5325 559.0634 563.4326 560.6282 564.5503 560.8517 566.7857 560.7399 568.0152 560.4046 568.7976 559.734 569.2447 559.0634 569.4682 558.281 569.58 556.4926 569.9153 555.7102 570.2506 555.1514 570.8095 554.5925 572.486 553.9219 573.2684 553.363 573.8273 552.8042 574.6097 552.3571 575.9509 552.2453 577.5157 552.4689 579.6394 553.9219 581.316 554.8161 583.4396 555.1514 584.4455 554.9278 585.2279 554.369 587.1281 550.457 587.7987 549.6746 588.8046 549.5628 596.5168 551.2394 602.776 553.1395 603.8937 553.2513 604.3408 553.1395 604.6761 551.91 605.4585 551.6865 606.7998 552.1336 609.3705 554.369 610.9353 556.1573 611.9413 558.1692 612.6119 561.7459 612.6119 563.646 612.9472 565.3226 613.5061 566.6638 615.1826 567.8933 616.5239 568.6757 617.7534 569.6816 618.424 570.3523 620.4359 575.829 620.5476 575.9408 619.0946 576.1644 615.5179 577.2821 613.9531 579.6293 612.3883 581.3058 606.688 583.0942 607.2469 584.8825 606.688 584.9943 606.2409 584.9943 606.0174 585.2178 606.1292 586.0002 605.1232 586.0002 603.6702 585.5531 600.4288 588.4592 598.3052 589.4651 595.3991 589.2416 593.7226 588.7945 592.9402 589.8004 592.7166 593.3771 591.1518 598.5186 590.4812 601.76 591.04 603.213 593.499 603.9954 594.3932 605.8955 594.0579 608.4662 592.7166 611.1487 591.5989 612.2664 591.2636 612.6018 591.1518 612.49 590.8165 612.3782 588.6928 609.9193 585.3397 609.6957 581.5395 609.8075 577.9628 608.578 575.3921 605.3366 573.7155 601.8717 571.8154 598.9657 568.2387 597.4009 566.0033 597.5127 564.5503 598.1833 563.0972 598.5186 560.7501 597.7362 559.7441 596.7303 556.1674 592.0359 544.655 583.653 544.2079 579.1822 545.9963 575.4937 545.9963 573.7054 533.4779 575.4937 531.2425 576.7232 529.4541 578.3998 528.56 579.8528 528.0011 581.4176 526.7716 583.5413 524.8715 585.5531 522.8596 586.6708 520.9595 587.3415 519.2829 588.571 513.6944 597.2891 502.9644 608.9133 500.3936 612.9371 499.1641 617.9668 498.1582 620.4257 496.2581 622.6612 493.7991 623.7789 490.8931 624.5613 482.3985 625.1201 481.2807 624.8966 479.716 624.4495 478.8218 623.7789 476.251 621.0964 473.7921 621.4317 471.6684 622.5494 469.3212 623.3318 466.4152 622.5494 460.9384 619.5316 454.5674 619.8669 441.2667 622.4376 434.1133 621.5435 430.7602 621.8788 427.0717 623.7789 425.1716 625.0084 424.3892 625.679 424.0539 626.7967 423.7186 629.0321 423.6068 632.0499 423.495 632.0499 421.1479 633.0559 419.8066 633.2794 418.6889 634.2854 417.3476 636.409 416.2299 636.5208 415.0004 636.5208 412.2062 636.7443 410.8649 637.3032 404.6057 641.4387 403.9351 640.2092 399.1289 640.6563 398.3465 640.2092 397.2288 639.9857 396.8935 640.5446 396.3347 643.5624 395.664 645.1272 394.4345 646.9155 391.8638 649.8216 390.0755 651.1628 388.7342 652.057 386.387 652.8394 384.5987 654.516 383.9281 655.8572 383.5927 658.3162 379.9043 662.5635 374.8746 665.4695 373.7569 665.9166 371.745 665.5813 368.8389 663.3459 367.4977 660.2163 367.3859 658.6515 366.0447 657.5338 358.556 657.0867 356.2088 655.7454 355.7617 653.7336 355.0911 650.4922 354.0851 649.598 352.6321 648.0332 350.8438 647.4744 349.7261 645.2389 351.4026 638.1974 356.5441 636.5208 364.2563 639.8739 365.0387 639.9857 365.1505 639.3151 365.5976 636.409 366.8271 633.7265 368.0565 631.9382 368.1683 629.2557 366.2682 625.7908 365.2623 624.5613 364.8152 622.7729 364.7034 620.4257 364.8152 618.0785 365.1505 616.7373 365.374 616.1784 366.4917 614.8372 368.9507 615.9549 372.6392 619.308 373.9804 619.9787 377.8924 620.6493 380.4631 620.6493 381.2455 620.0904 384.0398 616.5138 387.0576 608.8015 387.7283 601.0893 387.5047 597.848 387.9518 595.6125 388.7342 593.936 388.846 592.5947 388.7342 591.3652 388.0636 588.9063 393.6521 589.9122 396.3347 588.4592 398.2348 586.4473 400.0231 583.0942 400.582 576.3879 400.2466 574.5996 399.7996 573.4818 398.5701 572.8112 394.0992 569.4581 389.8519 563.646 388.846 560.6282 392.3109 559.2869 394.5463 559.2869 397.1171 559.734 400.582 559.2869 402.2585 555.9338 402.035 555.2631 401.4761 554.4807 400.582 553.9219 399.2407 553.5866 399.0172 552.916 399.3525 552.1336 401.1408 549.5628 403.0409 544.3096 410.9767 537.268 414.1063 531.6794 415.3358 526.2026 420.7008 521.0612 432.8838 511.6724Z" />
  <path class="Francisco Morazán" d="M280.7633 610.8134L285.3459 605.0013 286.5754 601.0893 287.0224 600.4187 287.4695 599.301 288.699 593.3771 289.0343 590.1358 286.0165 568.1168 286.1283 564.6519 289.4814 560.5164 290.8227 559.3987 291.8286 558.8398 292.8345 558.8398 298.0878 558.281 302.6704 556.1573 304.6823 554.9278 305.6882 553.5866 305.8 552.6924 307.5883 549.1157 310.7179 547.1039 315.077 546.2097 316.1947 545.5391 316.8653 544.4213 316.8653 543.4154 316.6418 542.7448 316.1947 541.6271 315.9712 541.4035 315.5241 541.18 315.077 540.9564 314.5182 540.7329 313.7358 540.174 312.8416 539.3916 311.8356 538.2739 311.2768 537.268 310.9415 535.4796 310.6062 528.8851 310.9415 527.0968 311.3886 526.0909 312.171 525.7556 312.8416 525.7556 313.8475 525.9791 315.8594 526.8733 317.0889 526.4262 317.8713 525.8673 322.2304 520.0552 323.9069 516.4785 323.3481 515.2491 319.3243 512.1195 319.1008 511.6724 318.8772 511.1135 319.4361 510.6664 319.8832 509.9958 319.8832 508.3193 319.6596 507.5369 319.1008 506.978 315.3006 503.5131 312.7298 501.8365 311.8356 500.607 311.165 499.0422 310.8297 497.701 310.2708 495.1303 318.6537 486.8592 320.1067 483.7296 320.2185 482.9472 320.442 482.053 320.5538 481.0471 320.442 478.4763 320.7773 477.8057 321.3362 477.4704 321.895 477.5822 322.5657 477.8057 323.2363 478.2528 324.0187 478.4763 324.6893 478.6999 325.2482 478.6999 325.807 478.6999 326.2541 478.6999 326.4777 479.0352 326.5894 479.7058 326.813 480.0411 327.3718 480.2647 328.0425 480.4882 328.7131 480.6 330.5014 480.7118 332.9604 476.3527 333.5193 474.0055 333.5193 473.1113 333.4075 472.2172 333.1839 470.8759 333.2957 470.3171 333.5193 470.0935 333.7428 470.3171 333.9663 470.5406 334.3017 470.7641 334.8605 470.6524 335.084 470.2053 335.1958 469.0876 335.4194 468.6405 335.7547 468.4169 336.3135 468.3052 337.2077 468.0816 338.6607 466.9639 339.2196 466.7404 339.7784 466.6286 340.5608 466.2933 341.3432 465.8462 342.5727 465.0638 342.908 464.6167 342.908 464.2814 342.7963 464.0579 342.908 463.3872 344.5846 458.6928 345.5905 454.7809 344.9199 449.0805 344.1375 446.398 344.3611 443.8273 344.8081 442.1507 345.2552 441.2565 345.8141 440.8095 346.2612 440.5859 349.6143 440.3624 352.2968 438.2387 350.732 435.7798 350.5085 434.5503 349.6143 433.6561 349.0554 433.0972 346.1494 431.8678 349.3908 427.3969 350.3967 425.0497 351.9615 422.5908 355.3146 419.7965 355.7617 418.9023 355.9853 417.8964 356.2088 414.4315 356.097 412.6431 359.0031 410.1842 366.8271 409.1782 368.3919 409.29 370.292 409.6253 371.6332 410.2959 374.0922 411.0783 382.8103 410.6312 388.2871 411.8607 388.7342 413.7608 389.4048 414.8785 391.0814 417.0022 392.5344 418.4552 396.3347 420.4671 398.2348 422.3672 400.582 423.7085 401.2526 424.2673 401.5879 424.7144 400.0231 425.9439 398.6818 430.5265 397.1171 431.8678 398.123 435.4444 398.6818 436.6739 399.7996 438.4623 400.582 440.2506 400.9173 444.8332 401.3644 446.6216 402.7056 448.4099 403.9351 454.6691 409.0766 467.2992 410.9767 470.8759 413.2121 473.3349 414.6651 474.5644 417.7947 475.3468 419.3595 476.9116 424.9481 482.1648 428.0777 486.1886 427.9659 489.2064 427.2953 491.8889 427.407 493.3419 427.8541 494.9067 429.5307 497.5892 430.0895 498.8187 430.4249 501.2777 430.8719 503.6249 432.9956 509.3252 432.8838 511.6724 420.7008 521.0612 415.3358 526.2026 414.1063 531.6794 410.9767 537.268 403.0409 544.3096 401.1408 549.5628 399.3525 552.1336 399.0172 552.916 399.2407 553.5866 400.582 553.9219 401.4761 554.4807 402.035 555.2631 402.2585 555.9338 400.582 559.2869 397.1171 559.734 394.5463 559.2869 392.3109 559.2869 388.846 560.6282 389.8519 563.646 394.0992 569.4581 398.5701 572.8112 399.7996 573.4818 400.2466 574.5996 400.582 576.3879 400.0231 583.0942 398.2348 586.4473 396.3347 588.4592 393.6521 589.9122 388.0636 588.9063 388.7342 591.3652 388.846 592.5947 388.7342 593.936 387.9518 595.6125 387.5047 597.848 387.7283 601.0893 387.0576 608.8015 384.0398 616.5138 381.2455 620.0904 380.4631 620.6493 377.8924 620.6493 373.9804 619.9787 372.6392 619.308 368.9507 615.9549 366.4917 614.8372 365.374 616.1784 365.1505 616.7373 364.8152 618.0785 364.7034 620.4257 364.8152 622.7729 365.2623 624.5613 366.2682 625.7908 368.1683 629.2557 368.0565 631.9382 366.8271 633.7265 365.5976 636.409 365.1505 639.3151 365.0387 639.9857 364.2563 639.8739 356.5441 636.5208 351.4026 638.1974 343.3551 635.2913 337.7666 635.9619 336.09 635.1795 334.1899 634.1736 327.5954 634.956 325.36 632.8323 322.2304 629.8145 321.895 627.5791 323.1245 624.7848 323.2363 624.1142 322.5657 623.8906 321.6715 623.8906 320.8891 624.1142 319.1008 623.6671 317.2007 623.1083 313.9593 623.22 312.171 623.7789 311.7239 625.679 311.2768 630.0381 310.3826 633.7265 310.3826 636.0737 311.0532 638.3091 309.8238 639.0915 308.1472 638.5327 303.8999 635.8502 298.0878 631.4911 297.6407 630.9322 296.8583 630.3734 296.2994 630.1498 293.2816 630.4851 288.2519 629.4792 281.6574 625.0084 280.4279 622.9965 280.7633 615.7314 280.7633 610.8134Z" />
  <path class="Gracias a Dios" d="M712.3118 458.134L712.3118 457.9105 712.3118 417.7846 712.3118 402.919 712.3118 247.4453 720.3593 250.1278 736.0073 257.2812 755.679 263.2051 765.0678 266.4464 767.3032 268.2348 766.2972 270.2466 764.2854 273.3762 764.2854 276.0587 764.2854 280.3061 767.7503 283.6592 770.8799 284.1063 774.9036 282.765 775.4625 279.3001 775.9096 277.7353 777.4744 277.9589 778.5921 279.9707 781.4981 281.9826 785.6337 281.4238 789.5457 281.8708 797.4814 282.8768 798.9344 281.0884 801.5052 280.0825 798.0403 278.6295 793.9047 277.6235 781.051 275.4999 776.2449 273.3762 772.1094 271.3644 770.6563 268.6818 777.2508 270.0231 799.6051 274.2704 814.2471 275.8352 823.9712 276.2823 827.3243 277.4 836.1542 284.8887 848.1138 294.6128 865.7736 309.7019 882.9864 324.5674 892.5987 332.615 905.0053 340.2154 908.0231 342.0037 911.0409 343.345 916.7413 344.3509 918.1943 345.1333 919.312 346.6981 919.4238 348.0394 918.3061 348.9336 915.9589 349.2689 913.0528 348.1512 906.9054 343.2332 902.3228 341.6684 899.1932 339.433 897.6284 338.7624 892.7105 338.6506 890.5868 338.2035 888.6867 336.3034 889.4691 336.0799 890.1397 335.521 890.9221 335.2975 889.4691 333.1738 884.1041 327.1382 882.9864 327.1382 881.198 328.0323 879.0744 326.6911 876.7272 324.791 874.6035 323.785 871.2504 324.1204 869.7974 325.2381 868.5679 326.6911 866.3325 328.2559 865.2147 327.5853 860.7439 325.9087 862.8675 324.1204 863.6499 323.0026 864.097 321.9967 863.3146 321.5496 861.5263 321.2143 859.6262 321.2143 858.3967 321.4378 857.9496 323.2262 858.9556 326.1322 860.8557 329.2618 862.9793 331.7208 862.5322 332.0561 862.4205 332.1679 862.1969 332.3914 861.8616 332.9503 860.7439 332.9503 855.826 323.4497 854.0376 321.4378 852.2493 321.1025 850.0139 321.5496 847.2196 322.4438 845.3195 322.332 842.5252 321.6614 840.6251 321.4378 841.8546 325.2381 842.8605 326.5793 845.8783 327.697 845.9901 329.0383 845.4312 330.9384 845.0959 332.9503 846.2136 332.9503 846.6607 330.3795 849.9021 328.8147 851.4669 324.1204 852.9199 323.6733 854.4847 324.5674 856.7201 330.156 859.2909 334.6268 860.2968 338.4271 856.8319 339.9919 855.0436 341.892 856.273 346.1393 859.0673 350.8337 861.8616 353.7397 866.1089 355.9751 869.5738 356.8693 871.1386 355.3045 869.5738 350.2748 871.6975 352.0631 873.7094 354.2986 874.38 356.9811 873.0387 359.6636 875.2741 362.4579 878.5155 362.905 886.4513 361.899 886.4513 363.1285 884.8865 363.0167 883.7688 363.352 881.9804 364.2462 881.9804 365.2521 883.3217 368.1582 885.3336 370.8407 888.0161 372.7408 891.481 373.5232 894.387 373.0761 898.1872 372.182 901.8757 370.6172 904.3347 368.8288 902.3228 366.8169 895.393 363.1285 894.1635 361.899 893.6046 360.7813 892.934 359.9989 891.481 359.6636 889.6926 359.5518 877.286 355.081 875.1624 353.7397 871.4739 348.2629 869.5738 346.8099 871.0268 345.5804 872.5916 344.6862 876.1683 343.345 890.8103 349.8277 893.1575 353.1809 894.0517 354.9692 896.2871 356.6458 899.0814 357.8752 903.664 358.8812 905.5641 360.2224 907.2407 362.1226 908.6937 364.2462 907.576 365.0286 906.2348 366.1463 905.3406 366.5934 905.3406 367.5993 908.0231 368.1582 910.2585 366.5934 912.0469 366.3699 913.2763 371.2878 912.941 377.547 913.2763 379.2235 914.5058 380.453 915.7353 380.3413 916.5177 379.2235 916.5177 376.9881 917.7472 376.9881 919.2002 380.2295 920.5415 379.4471 923.224 374.5292 925.7947 373.0761 929.1479 372.0702 934.96 371.2878 935.7424 370.5054 935.407 366.5934 935.6306 365.2521 936.7483 364.5815 937.7542 364.6933 938.9837 365.0286 949.4902 367.1523 952.2845 366.5934 952.2845 367.5993 951.2785 368.6053 951.3903 369.2759 951.9492 370.0583 952.2845 371.2878 952.2845 376.3175 951.5021 378.8882 949.602 380.0059 947.7019 379.2235 946.8077 376.3175 946.2488 375.5351 944.7958 374.9762 943.1193 374.6409 941.778 374.5292 940.7721 375.1998 939.8779 376.7646 938.8719 379.2235 938.0895 380.1177 937.4189 380.6766 936.8601 381.459 936.6365 383.2473 936.9718 384.8121 937.9778 385.1474 939.0955 384.5886 939.9897 383.8062 939.0955 382.4649 938.9837 381.3472 939.319 380.3413 939.9897 379.2235 941.2191 379.2235 941.5545 383.3591 942.6722 386.3769 944.684 387.4946 947.8136 386.1534 948.7078 385.1474 950.2726 382.6884 951.1668 381.6825 952.508 380.7883 959.7732 378.2176 959.6614 377.547 958.9908 375.7586 958.3201 374.7527 957.3142 373.9703 956.42 372.9644 955.7494 371.2878 955.1905 368.8288 953.9611 365.6992 951.9492 363.6873 948.9314 365.2521 944.1252 362.3461 941.6662 361.7872 938.8719 363.1285 937.866 361.899 938.2013 361.3402 938.8719 359.6636 936.1894 359.2165 929.1479 356.6458 927.6948 355.6398 926.0183 353.6279 922.5534 352.622 920.0944 351.0572 921.1003 347.9276 923.6711 346.6981 926.2418 348.0394 928.589 350.2748 930.4891 351.3925 932.2774 352.0631 949.8255 361.2284 971.8444 369.6112 980.2273 375.7586 982.1274 379 984.8099 389.8418 987.6042 396.6598 991.9633 403.0308 996.993 407.0546 1017 415.1021 1014.8763 415.4374 1009.3996 415.1021 1007.1641 415.5492 1002.8051 417.5611 995.6517 417.4493 994.9811 417.5611 992.9692 416.7787 991.7397 415.8845 991.8515 414.9903 993.8634 414.0961 986.5982 413.3138 983.804 413.5373 981.345 415.1021 980.5626 412.8667 978.7743 411.8607 976.7624 410.9666 974.6387 409.4018 973.0739 412.3078 970.615 415.1021 967.2618 417.114 963.4616 417.5611 962.0086 416.6669 959.9967 413.6491 959.1025 412.7549 956.9789 412.4196 955.3023 412.6431 954.7435 413.4255 955.8612 415.1021 954.967 416.2198 954.7435 417.2257 954.6317 419.7965 953.0669 418.3435 952.1727 419.0141 951.9492 421.026 952.3963 423.2614 951.5021 422.8143 949.0431 422.1437 949.4902 422.7025 949.9373 423.8202 950.1608 424.4909 947.8136 425.1615 943.7899 428.4029 939.7661 429.8559 938.9837 431.756 938.6484 433.9914 937.9778 436.0033 936.7483 436.0033 935.407 434.3267 932.3892 433.4326 928.7008 433.209 925.5712 433.6561 922.4416 435.1091 921.8827 437.0092 923.3358 441.8154 922.218 441.8154 921.5474 440.3624 920.3179 439.58 918.6414 439.3564 916.6295 439.4682 916.9648 442.1507 913.6117 443.492 904.4464 444.0508 905.6759 445.9509 906.4583 446.8451 907.6878 447.6275 904.67 447.7393 901.4286 448.7452 898.5226 450.4218 896.6224 452.2101 895.6165 450.9806 895.0576 450.5336 894.387 450.31 893.2693 449.8629 894.0517 451.4277 894.2752 452.2101 892.1516 451.6513 889.5809 448.7452 887.569 447.6275 886.7866 451.5395 886.7866 453.1043 887.569 454.4455 871.4739 455.3397 868.6796 455.0044 868.3443 453.6631 867.5619 453.2161 864.7677 453.3278 863.0911 453.1043 862.4205 452.5454 861.9734 451.763 858.2849 449.3041 857.0554 449.4158 855.2671 450.8689 857.1672 454.8926 858.2849 456.4574 859.738 457.7987 859.738 459.1399 858.6202 459.8106 857.9496 459.6988 857.1672 459.3635 855.826 459.1399 854.3729 459.3635 853.4788 460.1459 852.8081 460.9283 851.914 461.4871 847.8902 462.6048 845.543 462.8284 843.5311 462.046 839.6191 457.7987 838.3897 456.7927 836.9366 455.8986 834.7012 455.1162 832.5776 455.3397 831.6834 457.3516 832.5776 465.1756 831.6834 468.9758 828.442 470.6524 826.5419 470.5406 822.6299 469.6464 820.171 469.4229 818.9415 468.5287 817.712 464.1696 816.1472 462.4931 814.0235 465.7344 811.6763 469.9817 808.7703 473.6702 802.6229 475.7938 798.3756 478.2528 796.5872 478.6999 794.1283 478.0293 792.4517 476.5762 790.6634 475.5703 788.2044 476.3527 788.7633 472.9996 789.3221 471.8818 777.4744 471.4348 773.7859 470.6524 767.415 467.9699 764.2854 467.6345 761.2675 469.4229 758.8086 463.6108 757.132 460.8165 753.7789 458.5811 754.0024 456.3457 753.5553 454.3338 750.314 453.8867 750.4257 453.5514 751.6552 451.8748 752.1023 451.4277 749.7551 447.404 746.1784 444.7215 741.9311 443.492 737.6838 443.7155 727.9597 445.5039 725.2772 447.0686 717.7886 454.222 714.8825 456.3457 712.3118 458.134Z" />
  <path class="Intibucá" d="M142.2788 588.1239L142.6141 587.9003 144.4024 585.4414 144.5142 584.9943 144.9613 584.2119 147.7556 582.2 153.0088 579.8528 162.0623 574.4878 165.7507 571.1347 167.2037 570.464 167.9861 570.3523 168.4332 570.0169 168.8803 569.3463 168.8803 568.0051 169.1039 566.9991 169.3274 566.2167 170.2216 565.3226 170.7804 564.8755 171.1157 562.4165 169.998 555.0396 169.7745 551.4629 169.7745 550.6805 169.7745 549.1157 169.998 548.4451 169.7745 546.6568 166.8684 544.9802 163.2917 544.1978 162.2858 544.1978 161.5034 544.1978 160.721 544.4213 160.0504 544.3096 159.268 544.086 158.262 543.5272 157.2561 542.8565 156.2502 542.4095 155.356 541.8506 154.5736 541.2917 154.1265 540.3976 154.3501 539.1681 155.9149 535.7032 156.1384 532.6854 154.4618 524.3025 153.3441 522.8495 152.7853 522.2906 149.2086 521.8436 145.8554 518.8257 142.6141 514.4667 141.4964 507.5369 142.0552 506.1956 144.7377 504.4073 148.7615 503.1778 156.1384 503.2895 160.0504 502.7307 164.5212 500.3835 166.1978 497.5892 166.5331 495.5773 167.4273 492.4477 170.6686 486.5239 168.8803 475.9056 167.2037 472.8878 179.9457 473.782 189.4462 472.776 196.5996 472.1054 202.0763 473.2231 206.8825 473.6702 208.0002 472.8878 211.018 471.0994 213.2535 474.229 214.1476 474.5644 215.7124 475.1232 216.9419 475.235 222.5305 476.688 225.3248 478.6999 228.3426 479.8176 229.7956 481.8295 231.1369 484.4002 231.3604 485.0708 231.4722 486.7474 231.8075 487.8651 232.9252 489.877 234.1547 490.9947 238.0667 492.8948 239.0726 493.789 239.7432 494.4596 239.7432 496.1362 239.6315 497.8128 241.5316 499.6011 246.7848 506.3074 248.0143 508.6546 248.1261 509.2134 248.0143 509.7723 247.9025 510.2194 247.2319 510.7782 239.9668 516.1432 237.9549 517.2609 235.943 518.1551 234.2664 518.1551 233.037 517.9316 231.9193 517.4845 231.0251 517.4845 230.578 518.3787 230.2427 520.6141 230.9133 525.7556 228.2308 530.7853 227.3366 531.903 225.7718 533.0207 223.8717 533.6913 222.8658 534.5855 222.3069 536.7091 222.4187 537.9386 221.0774 540.2858 214.2594 540.5094 208.6708 545.2037 205.9883 547.8862 204.5353 551.4629 203.1941 553.363 202.747 553.8101 198.0526 556.1573 196.376 557.8339 187.4343 567.6697 186.4284 568.6757 185.8695 568.4521 185.4224 568.8992 185.4224 569.6816 186.4284 571.3582 187.5461 572.4759 188.9991 575.7173 187.5461 584.1001 187.7696 584.4354 187.7696 584.5472 187.4343 584.4354 184.9754 584.1001 183.2988 584.7707 183.2988 585.3296 183.4106 588.6827 183.7459 589.2416 185.1989 590.5828 185.5342 591.0299 184.7518 593.3771 183.6341 593.6007 182.2928 593.3771 180.281 594.1595 179.275 595.389 178.6044 596.5067 178.0455 597.5127 176.7043 598.7421 174.916 599.301 173.0158 599.5245 171.2275 600.1952 170.1098 602.207 168.9921 601.76 167.7626 601.4246 166.4213 601.2011 165.4154 601.3129 164.8565 601.8717 164.7448 602.8777 164.7448 603.8836 164.5212 604.3307 163.4035 604.2189 160.721 603.213 159.1562 603.1012 152.6735 604.5542 149.6557 605.8955 146.6378 607.6838 142.2788 607.9074 143.7318 605.5602 143.62 602.8777 141.8317 598.5186 141.3846 596.842 141.7199 594.3831 142.2788 592.3712 142.3905 590.3593 141.6081 588.571 141.3846 588.1239 142.0552 588.2356 142.2788 588.1239Z" />
  <path class="Islas de la Bahía" d="M406.0587 223.8616L407.0647 224.8675 405.6117 227.6618 406.0587 229.5619 402.9292 229.4502 400.4702 230.1208 395.9993 231.9091 392.1991 234.1446 389.7402 232.2444 386.7223 231.1267 388.0636 229.2266 395.3287 225.6499 399.576 224.7558 401.9232 224.3087 404.1586 223.7498 406.0587 223.8616ZM450.4319 197.0365L451.5496 192.901 456.244 188.989 462.7267 184.9652 467.7564 182.8416 477.4805 178.1472 488.0988 174.5705 495.1404 172.5586 500.0583 171.888 506.541 172.3351 511.5707 172.5586 519.6183 172.6704 516.2651 173.6763 512.8002 175.4647 509.6706 174.4587 504.7527 175.6882 501.2878 174.9058 498.3817 175.3529 497.264 175.9118 495.0286 177.4766 494.0227 177.9237 492.5696 177.9237 490.2224 178.4825 487.3164 180.6062 481.2807 183.624 475.4686 185.7476 469.2095 190.2185 463.6209 191.895 459.9325 192.3421 457.3617 194.8011 454.6792 197.3718 451.4378 199.719 450.4319 197.0365ZM563.7679 166.9701L566.3386 162.3875 568.127 160.0403 573.6037 157.5813 576.6216 158.699 579.0805 160.8227 578.2981 162.8345 574.7215 163.2816 573.8273 165.7406 571.7036 168.6466 568.4623 168.8702 566.3386 171.3292 557.9558 176.9177 557.2851 175.4647 558.9617 172.4469 561.1971 168.1996 563.7679 166.9701ZM884.8865 4.0077L886.116 4.1195 887.3454 4.343 888.4631 4.7901 889.5809 5.2372 888.0161 5.5725 886.6748 5.5725 885.5571 5.0136 884.8865 4.0077Z" />
  <path class="La Paz" d="M187.7696 584.5472L187.7696 584.4354 187.5461 584.1001 188.9991 575.7173 187.5461 572.4759 186.4284 571.3582 185.4224 569.6816 185.4224 568.8992 185.8695 568.4521 186.4284 568.6757 187.4343 567.6697 196.376 557.8339 198.0526 556.1573 202.747 553.8101 203.1941 553.363 204.5353 551.4629 205.9883 547.8862 208.6708 545.2037 214.2594 540.5094 221.0774 540.2858 222.4187 537.9386 222.3069 536.7091 222.8658 534.5855 223.8717 533.6913 225.7718 533.0207 227.3366 531.903 228.2308 530.7853 230.9133 525.7556 230.2427 520.6141 230.578 518.3787 231.0251 517.4845 231.9193 517.4845 233.037 517.9316 234.2664 518.1551 235.943 518.1551 237.9549 517.2609 239.9668 516.1432 247.2319 510.7782 248.9085 513.2372 251.1439 515.5844 257.5149 517.3727 257.7384 517.708 259.1914 519.3846 259.6385 519.4964 264.6682 520.5023 266.4565 521.5083 269.6979 522.626 271.4862 522.8495 272.8275 523.1848 280.0926 520.167 280.875 520.7259 282.8869 525.0849 283.334 526.4262 283.8928 529.6675 282.7751 531.4559 284.1164 532.7971 283.5575 534.9208 281.9927 536.9327 281.3221 537.4915 279.8691 538.0504 277.2983 538.6092 274.8394 538.2739 272.7157 539.9505 271.1509 540.6211 267.686 541.9624 265.6741 542.4095 263.1034 542.7448 259.7503 542.5212 253.7146 543.9743 252.7087 543.6389 252.4851 543.6389 252.0381 543.6389 251.7028 543.9743 251.1439 545.092 251.7028 548.4451 257.2913 550.7923 259.6385 553.4748 258.7443 556.1573 258.409 556.8279 258.1855 557.6103 258.409 558.281 258.9679 558.9516 261.6504 559.9575 263.327 560.2928 265.2271 560.9635 267.0154 562.0812 269.8097 564.5402 271.598 565.4343 272.7157 566.9991 273.7217 568.6757 273.8334 574.376 278.0807 570.2405 280.2044 568.6757 286.0165 568.1168 289.0343 590.1358 288.699 593.3771 287.4695 599.301 287.0224 600.4187 286.5754 601.0893 285.3459 605.0013 280.7633 610.8134 277.2983 610.8134 273.2746 608.1309 266.5683 608.4662 264.1094 608.9133 261.5386 606.6779 260.5327 606.119 258.2972 605.2249 257.4031 604.666 256.0618 602.7659 254.497 598.295 252.9322 597.0656 250.4733 597.1773 248.9085 598.5186 247.5672 600.3069 245.8906 601.4246 244.3259 601.5364 241.1963 600.8658 239.5197 600.754 238.2902 601.2011 236.1666 602.7659 235.3842 603.213 234.2664 602.8777 231.9193 601.3129 231.0251 601.0893 230.578 600.9776 228.2308 601.6482 220.7421 605.4484 219.4009 601.2011 216.7184 598.0715 213.7006 595.2772 211.3534 592.4829 209.0062 586.2238 207.1061 584.659 202.8587 584.4354 194.3641 585.4414 191.6816 585.3296 187.7696 584.5472Z" />
  <path class="Lempira" d="M65.1567 547.6627L65.2684 543.0801 64.9331 537.7151 63.7036 533.5795 63.8154 532.2383 64.486 531.3441 65.6037 530.4499 66.6097 529.3322 68.0627 526.985 69.0686 525.8673 70.0746 525.0849 72.7571 524.7496 78.1221 522.2906 78.9045 520.8376 79.9105 518.4904 80.134 516.3668 80.4693 514.6902 81.4752 514.3549 82.593 514.3549 84.1578 516.255 85.0519 517.1492 86.952 518.0433 91.0876 517.9316 89.0757 515.1373 89.0757 514.3549 89.0757 513.1254 89.411 511.5606 89.6345 511.2253 89.9699 511.2253 91.0876 511.8959 94.5525 512.4548 99.2469 510.89 100.5881 510.1076 101.4823 509.3252 102.0411 508.5428 102.3765 506.6427 106.6238 494.1243 106.0649 491.5536 105.7296 491.2183 104.1648 490.6594 103.7177 480.4882 101.7058 476.9116 100.5881 475.1232 95.5584 470.4288 93.7701 466.0697 93.7701 465.3991 93.9936 462.9402 96.4526 462.046 104.6119 463.0519 110.424 462.6048 115.1184 461.2636 116.3479 461.1518 116.4596 460.1459 116.4596 459.1399 115.6772 456.1221 114.0007 452.3219 112.8829 450.5336 112.7712 447.9628 112.9947 445.7274 113.4418 444.3861 114.1124 443.1567 115.0066 442.2625 116.2361 440.8095 116.5714 440.0271 116.2361 438.2387 118.3597 436.6739 119.0304 432.2031 118.1362 426.8381 123.9483 425.0497 125.1778 424.3791 132.7782 425.6086 136.3549 435.1091 140.8257 442.486 143.8436 446.2862 145.073 445.8392 147.6438 443.7155 149.3204 441.033 151.1087 439.2447 152.5617 439.1329 154.3501 439.9153 154.7971 440.2506 156.809 443.1567 161.1681 443.0449 164.5212 445.0568 159.8268 452.9925 160.8328 454.1102 163.4035 458.4693 165.7507 459.8106 168.545 460.1459 170.5569 459.9223 171.6746 461.9342 170.7804 467.0757 167.2037 472.8878 168.8803 475.9056 170.6686 486.5239 167.4273 492.4477 166.5331 495.5773 166.1978 497.5892 164.5212 500.3835 160.0504 502.7307 156.1384 503.2895 148.7615 503.1778 144.7377 504.4073 142.0552 506.1956 141.4964 507.5369 142.6141 514.4667 145.8554 518.8257 149.2086 521.8436 152.7853 522.2906 153.3441 522.8495 154.4618 524.3025 156.1384 532.6854 155.9149 535.7032 154.3501 539.1681 154.1265 540.3976 154.5736 541.2917 155.356 541.8506 156.2502 542.4095 157.2561 542.8565 158.262 543.5272 159.268 544.086 160.0504 544.3096 160.721 544.4213 161.5034 544.1978 162.2858 544.1978 163.2917 544.1978 166.8684 544.9802 169.7745 546.6568 169.998 548.4451 169.7745 549.1157 169.7745 550.6805 169.7745 551.4629 169.998 555.0396 171.1157 562.4165 170.7804 564.8755 170.2216 565.3226 169.3274 566.2167 169.1039 566.9991 168.8803 568.0051 168.8803 569.3463 168.4332 570.0169 167.9861 570.3523 167.2037 570.464 165.7507 571.1347 162.0623 574.4878 153.0088 579.8528 147.7556 582.2 144.9613 584.2119 144.5142 584.9943 144.4024 585.4414 142.6141 587.9003 142.2788 588.1239 142.2788 588.0121 142.3905 587.6768 142.5023 587.1179 141.0493 585.6649 139.4845 584.9943 132.3311 584.4354 119.9245 580.5234 115.789 580.1881 111.6535 580.8587 110.6475 581.3058 110.6475 580.9705 110.7593 580.0763 110.3122 578.7351 109.5298 577.6174 108.4121 576.6114 107.6297 576.2761 104.053 575.829 101.5941 574.1525 101.5941 571.8053 102.6 569.011 102.7118 566.105 101.5941 564.2048 100.141 564.4284 98.4645 565.4343 96.5644 566.2167 89.411 565.6579 86.505 566.105 85.499 561.2988 83.04 556.2691 79.5751 552.0218 75.5514 549.451 72.9806 549.3393 70.7452 550.3452 68.8451 551.4629 67.2803 551.7982 65.8273 550.7923 65.2684 549.004 65.1567 547.6627Z" />
  <path class="Ocotepeque" d="M36.4315 463.3872L38.8904 462.6048 44.1437 461.04 46.2673 460.2576 56.1032 461.7107 58.5622 465.1756 59.7916 470.2053 61.1329 472.6642 71.5276 480.6 72.6453 482.8354 72.5336 487.3063 72.7571 488.5358 74.8807 492.0007 77.7868 494.9067 80.6928 496.1362 82.9283 496.695 84.8284 498.3716 86.8403 498.8187 88.5168 498.2598 88.9639 498.0363 88.8521 497.4774 88.4051 496.9186 88.4051 496.248 88.2933 494.2361 88.8521 492.8948 90.0816 492.1124 92.7641 491.1065 94.3289 490.6594 95.782 490.4359 97.1232 490.4359 100.2528 490.9947 104.1648 490.6594 105.7296 491.2183 106.0649 491.5536 106.6238 494.1243 102.3765 506.6427 102.0411 508.5428 101.4823 509.3252 100.5881 510.1076 99.2469 510.89 94.5525 512.4548 91.0876 511.8959 89.9699 511.2253 89.6345 511.2253 89.411 511.5606 89.0757 513.1254 89.0757 514.3549 89.0757 515.1373 91.0876 517.9316 86.952 518.0433 85.0519 517.1492 84.1578 516.255 82.593 514.3549 81.4752 514.3549 80.4693 514.6902 80.134 516.3668 79.9105 518.4904 78.9045 520.8376 78.1221 522.2906 72.7571 524.7496 70.0746 525.0849 69.0686 525.8673 68.0627 526.985 66.6097 529.3322 65.6037 530.4499 64.486 531.3441 63.8154 532.2383 63.7036 533.5795 64.9331 537.7151 65.2684 543.0801 65.1567 547.6627 65.0449 546.8803 64.3743 544.7567 62.9212 542.2977 61.4682 540.3976 57.3327 537.268 56.5503 535.815 55.8796 530.6735 54.8737 528.5498 52.303 527.2086 46.7144 526.538 44.8143 524.9732 45.4849 523.2966 45.5967 521.62 45.2614 519.9435 44.479 518.3787 43.5848 517.1492 42.6906 516.3668 41.7965 516.1432 40.3435 516.5903 39.0022 517.9316 36.655 522.5142 35.202 523.8554 27.6015 521.62 23.466 518.714 15.1949 516.9256 10.1652 514.4667 3.7943 513.4607 1.3353 513.1254 1 507.8722 1.2235 505.1897 2.3413 502.9542 4.0178 501.9483 7.5945 500.9424 8.9358 499.4893 10.6123 496.5833 12.8477 494.1243 17.8774 489.7652 19.4422 487.8651 20.2246 486.5239 21.4541 485.7415 24.2484 485.4062 26.2603 485.7415 30.284 487.1945 32.1842 486.971 34.0843 485.1826 34.8667 482.3883 34.9784 479.3705 34.3078 470.8759 34.8667 469.87 36.5432 467.9699 36.9903 466.6286 36.655 463.7226 36.4315 463.3872Z" />
  <path class="Olancho" d="M712.3118 458.134L711.9765 458.3575 709.741 460.3694 708.288 463.0519 707.3938 469.3111 706.9468 470.3171 706.0526 470.6524 703.4818 471.4348 704.376 472.9996 708.9586 476.3527 705.382 479.7058 704.4878 481.0471 708.6233 481.0471 708.3998 481.6059 707.5056 483.8414 701.6935 489.7652 698.2286 491.33 695.4343 489.3182 692.8636 486.4121 689.8458 485.6297 688.6163 488.0887 687.8339 492.6713 687.4986 501.2777 686.9397 502.2836 683.2513 506.3074 683.0277 507.4251 683.363 509.9958 683.2513 511.0018 678.7804 514.4667 681.3512 516.255 684.2572 518.9375 686.3809 522.2906 686.4926 526.0909 684.5925 528.8851 681.2394 530.897 677.2156 532.2383 673.1919 533.0207 667.0444 533.0207 665.3679 533.356 661.4559 535.2561 659.8911 535.7032 658.9969 536.5974 658.3263 537.7151 657.2086 539.1681 656.7615 540.3976 656.3144 540.9564 655.6438 541.0682 653.8554 540.7329 653.1848 540.9564 651.62 542.4095 649.7199 544.8684 648.1551 547.5509 646.9256 551.7982 645.5844 555.0396 643.796 558.281 641.8959 560.6282 637.6486 563.9813 634.9661 565.5461 629.0422 567.2227 628.1481 569.4581 627.701 572.1406 626.248 574.376 623.2301 575.382 620.5476 575.9408 620.4359 575.829 618.424 570.3523 617.7534 569.6816 616.5239 568.6757 615.1826 567.8933 613.5061 566.6638 612.9472 565.3226 612.6119 563.646 612.6119 561.7459 611.9413 558.1692 610.9353 556.1573 609.3705 554.369 606.7998 552.1336 605.4585 551.6865 604.6761 551.91 604.3408 553.1395 603.8937 553.2513 602.776 553.1395 596.5168 551.2394 588.8046 549.5628 587.7987 549.6746 587.1281 550.457 585.2279 554.369 584.4455 554.9278 583.4396 555.1514 581.316 554.8161 579.6394 553.9219 577.5157 552.4689 575.9509 552.2453 574.6097 552.3571 573.8273 552.8042 573.2684 553.363 572.486 553.9219 570.8095 554.5925 570.2506 555.1514 569.9153 555.7102 569.58 556.4926 569.4682 558.281 569.2447 559.0634 568.7976 559.734 568.0152 560.4046 566.7857 560.7399 564.5503 560.8517 563.4326 560.6282 561.5325 559.0634 558.2911 554.8161 552.1437 551.91 550.8024 550.9041 550.02 549.5628 549.7965 547.998 549.1259 545.7626 548.2317 543.5272 546.108 540.174 544.4315 538.721 542.7549 537.7151 539.8488 537.0444 539.1782 537.0444 538.3958 537.268 537.837 537.7151 537.3899 538.2739 536.831 539.727 536.2722 540.3976 534.8191 540.3976 530.6836 539.5034 526.101 537.7151 524.9833 536.4856 520.6242 528.5498 519.1712 526.7615 517.7182 526.0909 515.5945 525.6438 511.3472 525.532 509.6706 525.7556 506.541 526.6497 504.1938 527.8792 502.4055 528.9969 501.5113 529.2205 500.6172 529.6675 499.8348 530.2264 498.27 531.7912 494.5815 534.0266 493.352 534.4737 491.4519 534.809 479.4924 534.0266 478.0394 533.5795 477.257 532.9089 476.251 530.5617 475.4686 529.444 474.798 528.6616 471.7802 526.3144 467.98 525.3085 467.3094 524.9732 464.068 521.62 454.9028 519.0493 451.4378 518.6022 450.3201 518.8257 449.5377 518.714 448.8671 517.9316 448.0847 516.255 446.5199 514.3549 445.7375 513.9078 445.1787 513.796 443.3903 514.1314 442.9432 514.3549 442.3844 514.5784 440.8196 514.802 439.8136 514.5784 432.8838 511.6724 432.9956 509.3252 430.8719 503.6249 430.4249 501.2777 430.0895 498.8187 429.5307 497.5892 427.8541 494.9067 427.407 493.3419 427.2953 491.8889 427.9659 489.2064 428.0777 486.1886 424.9481 482.1648 419.3595 476.9116 417.7947 475.3468 414.6651 474.5644 413.2121 473.3349 410.9767 470.8759 409.0766 467.2992 403.9351 454.6691 402.7056 448.4099 401.3644 446.6216 400.9173 444.8332 400.582 440.2506 399.7996 438.4623 398.6818 436.6739 398.123 435.4444 397.1171 431.8678 398.6818 430.5265 400.0231 425.9439 401.5879 424.7144 401.2526 424.2673 400.582 423.7085 398.2348 422.3672 396.3347 420.4671 392.5344 418.4552 391.0814 417.0022 389.4048 414.8785 388.7342 413.7608 388.2871 411.8607 390.6343 407.7252 391.1932 407.1663 392.1991 406.4957 392.9815 406.6075 394.211 406.831 399.1289 405.4898 402.3703 402.4719 404.8293 400.7954 405.7234 399.3424 405.947 398.0011 405.947 396.8834 406.1705 395.7657 406.5058 394.648 407.1765 393.0832 408.4059 391.2948 408.7413 390.2889 408.6295 389.6183 408.5177 388.9476 408.6295 388.5006 409.859 385.5945 408.6295 375.4233 408.7413 374.0821 409.3001 371.7349 409.859 371.0642 410.5296 370.6172 411.6473 370.2818 413.9945 369.0524 414.5534 368.8288 416.0064 367.7111 416.3417 366.3699 423.9421 364.6933 428.9718 368.8288 430.3131 369.1641 432.1014 369.4994 435.1193 369.4994 436.3487 369.1641 437.3547 368.6053 439.0312 367.3758 440.7078 366.9287 441.7138 364.4697 443.055 362.905 444.6198 358.6576 445.2904 357.6517 446.0728 356.9811 446.7435 357.0928 447.5259 357.3164 448.42 357.3164 449.6495 356.8693 463.3974 349.3806 465.521 348.8218 467.3094 348.8218 471.2213 350.0513 473.5685 351.2807 475.5804 352.7338 477.1452 354.075 478.4865 355.5281 479.2689 356.6458 479.716 357.6517 480.7219 358.5459 482.622 359.1047 486.534 359.2165 488.6576 358.993 492.905 356.8693 501.9584 351.3925 503.9703 350.6101 511.3472 345.3569 521.2948 350.7219 525.095 351.6161 528.7835 350.7219 531.9131 349.1571 534.5956 348.5982 536.0486 348.0394 538.9547 347.5923 540.5195 347.7041 541.8607 348.0394 543.0902 348.5982 544.0961 348.5982 544.7668 347.5923 554.1556 342.4508 564.1032 332.7267 568.127 326.244 568.7976 325.2381 569.9153 324.791 571.033 325.0145 572.1507 325.3498 574.0508 326.5793 575.8392 326.6911 579.0805 324.6792 582.5454 321.8849 583.8867 320.3201 584.4455 319.0906 584.1102 317.5259 587.6869 315.7375 588.5811 315.8493 589.6988 316.2964 590.7047 317.3023 592.3813 317.9729 593.6108 317.6376 595.2873 317.0788 596.6286 316.2964 600.0935 317.0788 613.2825 324.2321 629.9364 338.6506 647.708 345.4686 653.5201 350.163 662.2383 363.0167 671.6271 374.6409 674.4213 376.3175 697.2227 386.3769 702.5877 391.4066 712.3118 402.919 712.3118 417.7846 712.3118 457.9105 712.3118 458.134Z" />
  <path class="Santa Bárbara" d="M167.2037 472.8878L170.7804 467.0757 171.6746 461.9342 170.5569 459.9223 168.545 460.1459 165.7507 459.8106 163.4035 458.4693 160.8328 454.1102 159.8268 452.9925 164.5212 445.0568 161.1681 443.0449 156.809 443.1567 154.7971 440.2506 154.3501 439.9153 152.5617 439.1329 151.1087 439.2447 149.3204 441.033 147.6438 443.7155 145.073 445.8392 143.8436 446.2862 140.8257 442.486 136.3549 435.1091 132.7782 425.6086 125.1778 424.3791 123.9483 425.0497 118.1362 426.8381 112.4359 427.9558 111.4299 427.6205 110.424 426.9498 109.8651 425.9439 109.5298 424.938 109.1945 424.1556 108.7474 422.5908 110.8711 417.114 112.5476 411.3019 112.7712 408.284 114.2242 405.0427 118.1362 401.5778 118.5833 400.3483 118.4715 399.1188 118.1362 398.1129 116.7949 396.101 116.1243 395.2068 115.0066 391.0713 117.0185 388.3888 116.9067 387.8299 116.5714 387.0475 115.2301 386.1534 112.5476 384.9239 109.1945 381.3472 106.1767 377.8823 106.512 375.5351 106.7355 374.5292 106.6238 373.1879 99.6939 364.6933 99.2469 363.9109 113.33 352.9573 127.525 341.892 141.7199 330.8266 147.0849 326.5793 147.1967 326.5793 156.4737 323.2262 165.1919 324.5674 180.5045 329.3736 182.8517 330.7149 183.9694 331.609 184.193 332.2796 184.0812 333.7327 184.3047 335.2975 184.4165 336.1916 184.0812 338.2035 183.9694 339.433 184.0812 340.4389 184.4165 341.3331 185.1989 342.4508 186.2048 343.5685 191.011 346.4746 193.47 348.4865 195.7054 350.0513 197.382 350.8337 201.4057 351.6161 201.9646 352.3985 203.0823 368.8288 206.659 376.0939 207.8884 377.0999 210.0121 378.4411 213.2535 379.4471 212.3593 382.1296 205.653 389.2829 204.7589 392.5243 205.9883 395.3186 207.8884 397.554 212.5828 400.5718 216.2713 401.9131 217.389 402.4719 218.5067 403.4779 219.6244 403.925 220.295 405.1545 218.2832 407.3899 216.0477 414.9903 215.1536 416.4433 214.0359 423.4849 214.4829 426.2792 215.2653 426.5028 218.842 426.6145 223.9835 431.3089 225.213 435.2209 225.5483 442.1507 225.3248 449.5276 219.6244 450.6453 214.5947 455.7868 213.7006 456.4574 211.9122 457.2398 211.018 458.0222 210.6827 459.2517 210.571 461.5989 211.5769 463.3872 213.1417 467.6345 211.018 471.0994 208.0002 472.8878 206.8825 473.6702 202.0763 473.2231 196.5996 472.1054 189.4462 472.776 179.9457 473.782 167.2037 472.8878Z" />
  <path class="Valle" d="M264.1094 608.9133L266.5683 608.4662 273.2746 608.1309 277.2983 610.8134 280.7633 610.8134 280.7633 615.7314 280.4279 622.9965 281.6574 625.0084 288.2519 629.4792 293.2816 630.4851 296.2994 630.1498 296.8583 630.3734 297.6407 630.9322 298.0878 631.4911 303.8999 635.8502 308.1472 638.5327 309.8238 639.0915 311.0532 638.3091 311.3886 638.7562 314.2946 641.1034 315.6359 641.774 316.7536 642.6682 317.536 643.7859 317.0889 650.3804 317.8713 651.6099 318.5419 653.0629 318.6537 654.1806 321.0009 659.2103 326.813 663.5694 326.3659 667.0343 326.5894 668.5991 327.4836 671.1699 329.2719 674.6348 329.6073 678.0997 327.8189 682.2352 324.4658 684.6942 324.4658 684.8059 322.1186 682.5705 321.0009 681.7881 319.4361 681.4528 316.1947 682.0117 314.9652 681.7881 313.4004 680.2233 310.6062 682.2352 309.712 683.1294 308.9296 684.8059 308.5943 687.0414 309.1531 688.2708 309.2649 689.165 307.7001 690.5063 306.6942 690.618 300.9938 690.5063 298.4231 691.0651 296.9701 691.1769 295.4053 690.5063 295.4053 689.3886 297.7525 689.3886 297.7525 688.2708 294.7347 687.6002 291.4933 686.4825 288.699 686.259 286.5754 688.2708 285.4576 688.2708 285.793 686.7061 287.5813 682.4587 285.3459 681.5646 284.787 679.7762 285.4576 675.0818 284.5635 672.5111 282.5516 672.9582 280.2044 674.8583 278.6396 676.7584 280.2044 681.5646 277.7454 685.9237 273.3864 689.2768 268.692 690.5063 265.7859 689.9474 261.9857 687.6002 258.8561 686.5943 258.6326 685.3648 258.6326 684.2471 258.0737 683.6882 256.5089 683.6882 255.3912 683.3529 253.044 682.5705 265.8977 676.6466 268.692 673.4053 269.1391 671.2816 268.8037 669.0462 268.0213 667.0343 266.6801 665.5813 264.3329 664.6871 260.868 665.8048 259.1914 665.1342 257.5149 661.334 258.409 656.7514 262.321 647.2508 262.7681 644.233 262.6563 637.9738 263.2152 635.0678 264.6682 632.9441 266.233 631.3793 267.0154 629.591 266.0095 626.7967 266.7919 624.1142 270.145 616.5138 271.598 614.0548 268.692 612.8253 264.1094 608.9133ZM286.0165 702.0187L286.4636 703.2482 286.24 705.8189 284.4517 708.2779 280.875 708.8367 278.9749 708.6132 278.1925 708.2779 277.5219 707.719 277.5219 706.7131 278.6396 706.7131 278.0807 705.8189 277.0748 703.9188 276.4042 703.0246 279.0867 702.2422 281.2103 701.9069 286.0165 702.0187ZM284.787 688.8297L286.4636 689.2768 290.8227 688.3826 293.2816 688.2708 293.2816 689.3886 290.3756 690.618 292.3875 697.3243 289.9285 699.6715 282.3281 697.2125 278.8631 695.0889 279.3102 692.1828 281.4339 689.0532 282.8869 688.0473 284.787 688.8297Z" />
  <path class="Yoro" d="M511.3472 345.3569L503.9703 350.6101 501.9584 351.3925 492.905 356.8693 488.6576 358.993 486.534 359.2165 482.622 359.1047 480.7219 358.5459 479.716 357.6517 479.2689 356.6458 478.4865 355.5281 477.1452 354.075 475.5804 352.7338 473.5685 351.2807 471.2213 350.0513 467.3094 348.8218 465.521 348.8218 463.3974 349.3806 449.6495 356.8693 448.42 357.3164 447.5259 357.3164 446.7435 357.0928 446.0728 356.9811 445.2904 357.6517 444.6198 358.6576 443.055 362.905 441.7138 364.4697 440.7078 366.9287 439.0312 367.3758 437.3547 368.6053 436.3487 369.1641 435.1193 369.4994 432.1014 369.4994 430.3131 369.1641 428.9718 368.8288 423.9421 364.6933 416.3417 366.3699 416.0064 367.7111 414.5534 368.8288 413.9945 369.0524 411.6473 370.2818 410.5296 370.6172 409.859 371.0642 409.3001 371.7349 408.7413 374.0821 408.6295 375.4233 409.859 385.5945 408.6295 388.5006 408.5177 388.9476 408.6295 389.6183 408.7413 390.2889 408.4059 391.2948 407.1765 393.0832 406.5058 394.648 406.1705 395.7657 405.947 396.8834 405.947 398.0011 405.7234 399.3424 404.8293 400.7954 402.3703 402.4719 399.1289 405.4898 394.211 406.831 392.9815 406.6075 392.1991 406.4957 391.1932 407.1663 390.6343 407.7252 388.2871 411.8607 382.8103 410.6312 374.0922 411.0783 371.6332 410.2959 370.292 409.6253 368.3919 409.29 366.8271 409.1782 359.0031 410.1842 356.097 412.6431 356.2088 414.4315 355.9853 417.8964 355.7617 418.9023 355.3146 419.7965 351.9615 422.5908 350.3967 425.0497 349.3908 427.3969 346.1494 431.8678 341.7903 427.844 340.7844 427.6205 339.7784 427.3969 338.6607 428.4029 337.8783 428.6264 336.8724 428.1793 335.6429 427.0616 334.9723 426.7263 329.1602 425.1615 325.2482 424.938 322.0068 427.9558 317.9831 429.9677 315.6359 429.9677 313.8475 429.6323 312.9534 429.0735 312.618 428.6264 312.618 428.2911 312.618 427.844 312.618 427.3969 312.171 426.391 311.9474 425.7204 311.5003 424.4909 311.2768 423.4849 311.2768 422.7025 311.3886 421.1377 311.165 420.3553 310.7179 419.3494 309.8238 418.9023 309.1531 417.8964 308.4825 417.5611 306.9177 417.0022 306.1353 416.4433 305.3529 415.6609 305.0176 415.1021 304.6823 414.3197 304.2352 412.196 303.6763 410.743 301.9998 408.1723 300.7703 406.9428 298.6466 405.4898 297.6407 405.0427 296.8583 404.8191 296.4112 404.9309 295.8524 405.1545 291.0462 408.7311 290.4873 410.1842 283.334 411.749 281.5457 411.5254 266.3448 411.749 265.4506 404.1485 265.6741 403.1426 266.0095 401.9131 266.6801 401.466 266.9036 400.7954 266.9036 400.013 266.6801 398.6717 266.1212 396.8834 265.8977 395.7657 261.0915 390.9595 258.5208 391.5184 257.7384 391.4066 256.8442 390.9595 256.3971 389.3947 255.9501 388.7241 254.0499 388.6123 253.4911 388.5006 252.9322 387.9417 252.2616 387.6064 249.8026 387.6064 248.9085 387.4946 248.4614 386.7122 248.3496 386.0416 247.9025 385.2592 247.2319 384.4768 244.7729 382.5767 242.9846 382.2414 239.9668 381.9061 236.6136 382.912 235.8312 382.3531 235.8312 381.6825 236.3901 380.0059 236.1666 378.8882 236.7254 376.4293 236.7254 374.4174 236.6136 374.1938 236.1666 373.9703 235.1606 374.4174 234.6018 374.5292 233.8194 373.2997 235.2724 370.8407 234.9371 369.0524 235.3842 367.9347 235.6077 366.8169 235.6077 365.5875 235.3842 364.4697 237.2843 362.4579 237.7314 361.6755 237.7314 361.0048 237.5078 360.446 237.396 359.9989 237.6196 359.44 238.402 358.993 240.6374 358.4341 241.5316 357.8752 243.0964 356.6458 243.767 356.3105 244.4376 355.7516 245.5553 354.4103 249.5791 347.7041 251.9263 345.6922 252.5969 344.2392 252.0381 341.892 250.3615 340.3272 248.3496 339.2095 247.2319 338.3153 248.3496 336.7505 250.138 336.7505 251.9263 338.0917 253.1558 338.3153 253.6029 335.2975 252.8205 333.062 251.3674 331.0502 250.8086 328.703 252.5969 325.4616 254.2735 324.3439 255.1677 321.9967 255.8383 319.2024 256.8442 316.967 257.4031 317.0788 258.2972 317.4141 259.5267 317.5259 260.5327 316.967 260.4209 316.4081 261.6504 312.0491 261.9857 311.4902 259.5267 307.5782 255.2794 304.1133 252.5969 301.0955 254.9441 298.3012 252.0381 297.6306 252.9322 296.0658 257.8502 292.7127 269.8097 300.9837 272.4922 302.4367 274.2805 305.5663 275.7336 311.4902 275.9571 313.9492 276.8513 319.2024 277.2983 320.2084 277.8572 320.9908 284.3399 328.2559 286.7989 329.3736 294.064 328.703 300.9938 326.9146 303.341 327.1382 309.712 323.5615 310.4944 323.2262 312.0592 323.338 314.8535 325.2381 315.077 327.0264 315.1888 329.1501 316.0829 333.3974 317.0889 335.1857 318.3184 336.7505 319.3243 337.5329 320.7773 338.4271 323.1245 339.6565 324.0187 339.8801 325.0246 339.9919 325.807 339.7683 326.813 339.3212 327.4836 338.6506 328.4895 338.4271 329.2719 337.7564 330.3897 337.4211 331.6191 337.6447 333.5193 338.3153 334.9723 339.433 336.5371 339.6565 338.2136 339.6565 349.8378 342.4508 356.5441 342.5626 357.3265 342.0037 359.0031 340.5507 363.921 337.0858 374.5393 333.1738 377.4453 331.4972 379.0101 330.2678 381.6926 327.2499 387.84 321.8849 390.7461 321.3261 398.123 321.5496 409.7472 318.42 411.7591 321.1025 414.7769 321.7732 417.2359 321.5496 422.2656 321.5496 425.8422 320.6554 429.9778 319.2024 436.684 315.4022 440.149 313.9492 443.6139 312.7197 445.514 312.3844 448.3083 312.8315 454.2321 314.508 460.156 314.1727 461.7208 314.3963 463.5091 315.0669 464.8504 315.1787 466.3034 314.9551 467.3094 314.508 468.5388 314.2845 472.5626 313.7256 477.1452 314.508 480.6101 316.0728 485.5281 319.9848 487.4282 322.2202 487.7635 322.8909 488.5459 323.2262 490.2224 323.338 498.0464 323.0026 502.182 324.1204 503.1879 324.0086 503.5232 324.1204 503.9703 324.3439 504.4174 324.5674 504.8645 325.0145 505.4233 325.6851 505.8704 326.0205 506.3175 326.1322 506.8763 326.244 507.2117 326.4675 507.6587 326.6911 507.8823 326.9146 508.1058 326.9146 508.2176 326.6911 508.5529 326.244 508.8882 326.0205 509.6706 326.1322 510.1177 326.5793 510.5648 327.9206 510.9001 330.2678 509.8942 337.7564 510.0059 338.6506 511.0119 340.886 511.3472 345.3569Z" />
</svg>