<?xml version="1.0" encoding="utf-8"?>
<svg xmlns="http://www.w3.org/2000/svg" viewBox="0 0 1021 813" style="stroke-width:0.25px;stroke-linejoin:round;stroke:#444;fill:#ddd" fill-rule="evenodd">
  <path class="Andjazîdja" d="M196.5996 367.3801L198.4997 375.3158 203.4176 384.2575 221.4128 408.4001 221.0774 414.9946 212.3593 429.0778 209.7886 437.0135 209.0062 442.7139 206.9943 447.1847 201.2939 451.2085 193.9171 453.5557 183.4106 455.1205 174.2453 454.1145 170.2216 448.1906 165.1919 438.243 121.9364 398.1172 110.5358 393.311 77.4515 391.4109 69.2922 389.399 60.4623 384.4811 45.5967 372.5216 39.3375 364.474 37.1021 357.5442 36.0961 350.6144 32.6312 342.9022 12.9595 323.6776 4.4649 311.0474 1 291.711 3.1237 283.9988 8.1534 274.4982 24.8073 250.0204 25.0308 241.6375 22.7954 233.1429 22.013 223.9777 32.743 84.599 31.0664 75.4338 26.9309 66.9392 34.4196 53.3031 41.7965 33.9667 49.844 18.8776 58.8975 18.5422 91.7582 7.3651 110.9828 4.4591 125.1778 10.1594 134.343 22.3425 141.1611 35.0844 144.7377 49.3911 127.525 196.5937 134.4548 228.4485 168.7685 277.8514 181.1751 310.1532 181.5105 318.2008 180.3927 334.8547 181.1751 342.9022 184.7518 348.7143 189.7815 353.744 194.4759 359.4443 196.5996 367.3801Z" />
  <path class="Andjouân" d="M1017 691.9636L1016.6647 788.3103 1012.3056 802.6171 1003.4757 808.5409 996.6576 805.7466 988.7219 799.0404 982.3509 790.8811 979.6684 784.063 978.2154 774.2272 973.9681 768.6386 917.0766 729.1834 910.7056 719.0122 906.0112 706.9409 894.2752 701.0171 863.7617 694.7579 815.8119 670.0564 809.3292 664.8032 778.2568 646.2492 767.862 634.9603 780.2686 634.5132 790.6634 637.0839 810.4469 645.6903 823.9712 649.1552 848.8961 652.8437 857.9496 656.5321 862.0851 653.179 869.7974 649.1552 873.8211 645.6903 896.9578 650.4965 917.4119 631.7189 929.1479 602.3231 926.4653 575.6098 934.0658 573.3744 944.684 567.1152 952.9551 564.8798 956.7553 563.2032 960.1085 560.6325 963.7969 558.7323 969.1619 558.9559 973.6328 562.1972 979.6684 573.1508 982.3509 575.6098 1014.9881 680.8982 1017 691.9636Z" />
  <path class="Moûhîlî" d="M445.4022 751.4259L451.7732 754.2201 492.7932 781.4923 501.6231 795.1284 498.9406 801.4993 487.2046 803.1759 468.9859 803.1759 416.5652 792.4459 362.468 790.9928 349.9496 786.522 346.5965 780.5981 347.3789 766.962 345.1435 759.5851 338.4372 753.2142 331.3956 750.0846 325.807 745.9491 323.5716 735.4426 322.6774 706.9409 327.2601 695.205 339.8902 699.6758 350.8438 705.5997 383.2574 711.8589 397.8994 716.3297 438.1371 743.1548 445.4022 751.4259Z" />
</svg>