<?xml version="1.0" encoding="utf-8"?>
<svg xmlns="http://www.w3.org/2000/svg" viewBox="0 0 453 1024" style="stroke-width:0.25px;stroke-linejoin:round;stroke:#444;fill:#ddd" fill-rule="evenodd">
  <path class="Berat" d="M260.2079 658.7556L263.3375 662.444 264.567 664.903 270.0438 677.8684 272.1674 684.5747 276.1912 691.281 276.8618 693.4046 278.4266 695.5283 279.5443 699.105 281.4444 701.3404 282.7857 702.2345 284.127 702.2345 285.4682 702.1228 286.5859 702.3463 287.7036 703.0169 288.7096 703.3523 291.6156 703.7993 292.9569 704.3582 294.6334 706.0348 294.857 706.8172 294.7452 707.8231 295.3041 708.829 295.3041 709.835 293.7393 714.4176 292.5098 716.0942 291.9509 716.9883 291.3921 719.7826 291.2803 721.1239 291.5039 722.5769 291.9509 723.6946 294.4099 726.3771 295.4158 728.6125 295.8629 731.9657 294.7452 745.2664 294.857 747.5019 298.0983 754.3199 287.033 755.6612 282.5622 755.4376 280.215 756.4436 279.8796 758.7908 280.4385 761.6968 280.5503 764.4911 279.7679 767.8442 277.6442 769.7443 275.1853 770.7503 267.9201 772.4268 264.7905 774.327 263.5611 775.4447 263.114 776.3388 263.0022 777.0095 262.2198 778.5743 261.3256 782.3745 259.6491 782.1509 254.1723 780.8097 251.8251 779.4684 248.919 776.6741 231.2592 753.7611 230.5886 752.5316 224.7765 744.484 223.4352 743.3663 221.5351 742.9193 217.6231 742.8075 215.0524 741.9133 213.264 740.4603 211.5875 737.2189 209.1285 734.76 204.2106 733.0834 203.8752 735.0953 203.7635 735.9894 203.4282 737.1072 203.0928 737.7778 202.1987 737.8895 200.8574 737.3307 198.2867 735.6541 196.3866 735.3188 191.0216 736.4365 180.9622 731.1833 175.1501 731.1833 169.8968 730.1773 161.7375 725.1476 160.3963 719.112 159.5021 718.3296 157.1549 716.7648 153.69 715.5353 147.5426 711.288 144.8601 707.5996 141.0598 697.3166 139.8304 695.3047 138.6009 694.2988 137.3714 694.0752 137.1479 693.8517 137.5949 693.4046 139.2715 692.5105 141.1716 690.9457 143.2953 688.822 143.8541 685.916 142.5129 683.3452 135.5831 675.2977 134.0183 668.2561 132.677 667.1384 130.5534 665.6854 128.4297 665.0147 125.1883 663.2264 124.0706 661.8851 123.7353 660.2086 123.5118 657.8614 123.5118 656.5201 123.7353 655.4024 124.9648 652.1611 125.1883 649.0315 124.2942 646.6843 119.488 640.3133 118.2585 637.4073 117.5879 634.9483 117.4761 633.4953 117.9232 629.9186 123.8471 629.9186 125.0766 630.1421 126.1943 629.8068 126.3061 628.6891 126.0825 627.4596 126.1943 626.2301 127.0884 624.6653 126.9767 623.9947 126.7531 623.1006 126.8649 622.0946 127.9826 619.8592 128.6532 618.1826 129.771 617.4002 131.6711 616.5061 135.5831 615.053 138.3773 613.7118 138.9362 613.8235 139.6068 614.3824 140.7245 616.1707 141.954 617.6238 144.5248 616.9531 152.684 617.1767 153.3547 616.2825 154.1371 614.8295 153.8018 613.4882 153.4664 612.7058 152.237 611.0293 157.7138 609.1292 178.0561 611.4763 184.2035 607.3408 186.4389 606.5584 188.5626 607.3408 189.2332 607.7879 190.1274 609.2409 189.2332 611.5881 189.1215 612.4823 189.1215 613.7118 189.9039 616.8414 190.0156 618.4062 190.0156 619.8592 189.2332 622.9888 189.2332 624.4418 190.3509 625.5595 193.9276 626.6772 197.9514 627.1243 200.9692 628.242 203.3164 630.2539 209.4638 640.6486 211.6992 642.884 214.4935 644.5606 220.3056 646.1254 223.0999 647.6902 225 649.0315 222.6528 652.9435 228.3531 655.5142 230.7003 656.1848 234.5006 656.1848 236.6242 656.6319 238.5243 657.9732 239.5303 660.4321 240.0891 661.3263 242.101 662.2205 250.2603 661.9969 260.2079 658.7556Z" />
  <path class="Dibër" d="M307.04 458.6851L307.04 458.5734 301.3397 450.3023 299.9985 446.8374 299.3278 442.3666 299.2161 439.0134 299.7749 436.1074 297.4277 436.5545 293.851 437.6722 290.6097 437.0015 287.5919 435.9956 286.0271 436.1074 285.0211 436.6662 284.3505 437.4486 283.3446 437.6722 282.2268 436.2191 281.1091 435.9956 279.7679 436.5545 277.1971 439.7958 275.6323 441.1371 273.844 441.8077 271.7204 442.2548 268.1437 442.143 265.2376 440.9135 263.0022 440.69 260.655 440.8018 258.5314 441.6959 256.743 442.8136 252.9428 445.8315 252.1604 446.9492 251.2662 447.6198 250.2603 448.0669 248.6955 448.4022 247.8013 448.8493 247.1307 449.1846 245.6777 450.9729 226.453 444.1549 222.9881 441.4724 213.3758 431.0777 206.2224 431.1894 204.8812 433.0895 202.0869 435.7721 200.4103 436.1074 198.8455 435.2132 196.6101 431.5248 194.8218 429.5129 190.5745 426.9421 185.8801 423.0301 185.0977 421.5771 184.6506 420.2359 184.3153 419.1182 182.8623 417.1063 182.527 416.1003 182.1916 414.6473 181.6328 412.4119 176.2678 404.3644 171.3498 398.8876 168.332 396.4286 166.2084 395.0873 163.3023 394.9756 153.3547 387.0398 144.3012 375.7509 142.2893 367.2563 142.5129 364.7974 141.7305 362.2266 140.501 360.3265 136.7008 356.0792 136.1419 354.6262 136.4772 353.3967 137.2596 352.5025 138.2656 348.2552 137.5949 333.8367 138.6009 328.2482 139.495 328.4717 141.5069 329.4777 144.413 331.6013 150.0015 332.9426 153.5782 332.4955 158.1608 331.0425 162.0728 328.9188 162.8552 329.4777 164.42 332.3837 165.426 333.5014 167.1025 334.6191 172.3558 336.2957 173.9206 335.7369 174.8147 334.3956 174.9265 333.0543 175.1501 332.1602 175.9325 331.4895 179.062 329.1424 180.7386 328.6953 183.3094 328.807 192.1393 330.3718 194.3747 329.7012 196.0513 328.2482 197.0572 326.4598 198.0631 322.3243 199.1809 320.8713 201.081 319.53 225.3353 309.5824 227.3472 306.5646 227.459 304.5527 227.3472 299.7465 226.1177 297.3993 215.2759 287.8988 214.8288 286.7811 215.4994 285.8869 217.0642 285.4398 219.7468 285.1045 222.8763 284.5457 226.0059 283.2044 228.2414 280.1866 231.4827 276.8334 234.277 274.8216 238.4125 267.6682 238.4125 262.862 240.2009 265.2092 240.3127 266.1034 240.3127 267.4447 240.2009 268.5624 240.4244 270.2389 241.095 272.0273 243.1069 273.7039 245.7894 274.0392 250.3721 272.9215 253.0546 271.2449 255.1782 269.0095 256.6312 266.774 258.3078 264.8739 261.9963 263.1974 267.026 263.7562 266.6906 264.7622 268.1437 271.2449 275.297 282.0867 276.8618 287.0046 276.5265 289.5754 282.7857 288.6812 286.2506 287.3399 288.9331 285.7751 289.9391 284.2103 289.1567 283.2044 288.486 282.1985 288.3743 281.0807 291.1685 280.5219 296.4218 280.4101 312.1815 283.3162 316.3171 282.5338 320.6761 281.0807 322.9116 281.3043 322.9116 283.2044 324.9234 291.699 325.3705 296.5052 325.4823 298.7406 323.9175 301.7584 317.9936 307.5705 315.5347 310.8119 313.411 315.3945 312.7404 318.9712 314.7523 343.5608 315.9817 350.7142 321.3468 366.4739 321.3468 368.7094 321.4585 369.4917 320.0055 372.9567 317.8818 375.1921 314.5287 377.204 310.8403 378.7688 298.4337 381.563 299.4396 386.3692 298.6572 395.4227 300.4455 400.4524 303.2398 401.7936 305.2517 403.8055 307.9342 409.0587 308.4931 410.0647 309.2755 412.6354 309.8343 418.1122 310.2814 420.0123 312.0697 421.4653 316.3171 422.2477 318.2172 423.4772 321.235 427.7245 322.4645 431.1894 322.7998 431.9718 322.688 436.5545 321.0114 442.143 318.5525 446.7256 315.1993 450.9729 311.6227 453.2084 307.9342 451.9789 307.04 458.6851Z" />
  <path class="Durrës" d="M144.3012 375.7509L153.3547 387.0398 163.3023 394.9756 163.0788 398.664 162.7435 400.5641 162.0728 402.3525 158.7197 408.7234 156.7078 411.4059 152.3487 415.6532 150.1133 416.5474 148.1014 416.3239 145.6425 414.2002 144.6365 413.7531 143.9659 414.7591 143.7424 415.9886 143.1835 417.3298 141.954 418.224 131.4475 422.4713 124.0706 427.7245 121.4999 429.0658 119.2645 429.7364 116.2466 429.6246 114.6818 428.7305 113.6759 426.7186 113.1171 424.9303 112.4464 423.9243 111.7758 423.1419 110.5463 422.2477 109.7639 420.6829 109.2051 419.0064 108.4227 413.4178 107.6403 411.5177 106.6343 410.7353 105.4048 412.3001 104.6224 414.0884 103.393 415.6532 101.8282 416.4356 96.6867 415.0944 90.0922 416.5474 89.5333 435.6603 89.7569 439.684 91.2099 443.0372 92.5512 444.3784 95.0101 445.4961 95.569 447.0609 95.6807 449.6317 95.1219 455.332 95.3454 459.5793 95.2337 463.4913 94.4513 467.1798 92.8865 469.7505 86.292 475.4508 81.2623 484.8396 76.4561 481.4865 69.5263 478.4686 63.2671 479.251 63.1553 479.251 62.4847 473.7743 59.914 467.8504 56.1138 463.7149 51.9782 462.1501 46.5014 462.1501 41.807 461.2559 38.5657 458.3498 37.448 451.8671 37.448 438.0075 36.5538 434.9897 32.7536 431.413 32.0829 427.6128 35.4361 431.9718 41.0246 431.7483 45.2719 427.0539 44.1542 418.3358 50.1899 414.9826 56.4491 409.8411 61.367 402.7996 63.3789 393.7461 62.7083 388.1575 60.9199 386.0339 58.2374 385.2515 54.6607 383.4631 51.084 379.9982 46.9485 373.0684 44.1542 369.38 66.2849 372.3978 73.4383 370.1624 74.2207 370.833 82.1564 375.1921 83.1624 373.1802 83.6095 372.7331 84.5036 372.286 88.3039 371.8389 94.0042 369.4917 95.4572 369.6035 99.7045 372.286 100.8222 373.292 103.0576 376.0862 104.3989 377.4275 106.1872 378.657 109.4286 378.9923 113.4524 378.5452 121.2763 375.9745 124.4059 373.6273 126.0825 371.6154 126.4178 370.1624 127.0884 368.9329 128.5415 367.8152 129.771 367.927 131.224 368.8211 133.4594 371.6154 135.8066 373.8508 137.7067 375.3039 144.3012 375.7509Z" />
  <path class="Elbasan" d="M245.6777 450.9729L247.1307 449.1846 247.8013 448.8493 248.6955 448.4022 250.2603 448.0669 251.2662 447.6198 252.1604 446.9492 252.9428 445.8315 256.743 442.8136 258.5314 441.6959 260.655 440.8018 263.0022 440.69 265.2376 440.9135 268.1437 442.143 271.7204 442.2548 273.844 441.8077 275.6323 441.1371 277.1971 439.7958 279.7679 436.5545 281.1091 435.9956 282.2268 436.2191 283.3446 437.6722 284.3505 437.4486 285.0211 436.6662 286.0271 436.1074 287.5919 435.9956 290.6097 437.0015 293.851 437.6722 297.4277 436.5545 299.7749 436.1074 299.2161 439.0134 299.3278 442.3666 299.9985 446.8374 301.3397 450.3023 307.04 458.5734 307.04 458.6851 306.9283 459.3558 308.3813 469.527 311.5109 482.716 312.6286 487.6339 315.87 496.2403 325.2587 509.541 329.1707 517.365 330.512 524.9655 330.2884 530.8893 332.0768 535.4719 337.33 537.9309 337.4418 538.9369 337.5536 544.4136 338.4477 549.6669 338.5595 551.567 337.6653 557.7144 336.7712 559.6145 335.4299 560.7322 332.7474 560.3969 323.4704 556.932 322.0174 556.8202 320.8997 556.8202 318.9996 557.7144 308.8284 563.7501 306.8165 564.5325 305.2517 564.8678 296.31 567.8856 294.6334 569.0033 293.0686 570.9034 291.5039 575.3743 290.945 578.1685 290.2744 583.5336 289.492 586.9985 288.8213 589.0103 282.5622 592.2517 285.3564 601.3052 286.9212 604.2112 294.857 614.6059 297.763 619.1886 304.5811 634.0541 300.7809 641.8781 298.6572 645.4548 295.3041 648.1373 291.2803 649.9256 271.9439 652.2728 262.2198 655.0671 260.2079 658.7556 250.2603 661.9969 242.101 662.2205 240.0891 661.3263 239.5303 660.4321 238.5243 657.9732 236.6242 656.6319 234.5006 656.1848 230.7003 656.1848 228.3531 655.5142 222.6528 652.9435 225 649.0315 223.0999 647.6902 220.3056 646.1254 214.4935 644.5606 211.6992 642.884 209.4638 640.6486 203.3164 630.2539 200.9692 628.242 197.9514 627.1243 193.9276 626.6772 190.3509 625.5595 189.2332 624.4418 189.2332 622.9888 190.0156 619.8592 190.0156 618.4062 189.9039 616.8414 189.1215 613.7118 189.1215 612.4823 189.2332 611.5881 190.1274 609.2409 189.2332 607.7879 188.5626 607.3408 186.4389 606.5584 184.2035 607.3408 178.0561 611.4763 157.7138 609.1292 152.237 611.0293 141.954 608.1232 140.501 606.8937 138.2656 604.6583 135.9184 600.0757 135.3595 598.0638 135.136 596.0519 135.2477 594.2636 136.3655 588.3397 136.3655 586.6631 135.6948 578.6156 135.9184 577.4979 137.9303 573.5859 138.1538 567.1032 134.8007 565.7619 133.7947 565.9855 131.8946 566.0972 129.9945 565.0913 127.4238 562.9677 124.853 562.5206 115.7996 563.1912 109.5404 561.4029 105.9637 559.2792 103.84 556.4849 102.6106 553.4671 102.1635 551.2317 102.0517 549.8904 102.4988 547.8785 107.752 548.8845 108.6462 547.9903 109.4286 546.5373 109.5404 543.6312 109.7639 541.0605 110.5463 537.5956 112.67 535.4719 118.5938 532.5659 120.1586 531.0011 121.0528 529.5481 121.4999 525.9714 129.6592 525.3008 137.4832 526.0832 142.5129 525.0772 145.6425 523.736 146.8719 522.2829 146.9837 521.6123 146.2013 521.0535 144.6365 520.4946 143.9659 519.6004 143.7424 518.7063 149.778 513.453 161.8493 508.4233 167.3261 507.1938 178.615 501.3817 180.4033 499.7052 188.0037 490.8752 191.2451 485.8455 194.9336 481.3747 196.9454 479.9217 198.5102 479.8099 199.6279 480.9276 201.3045 481.71 203.4282 482.1571 204.993 481.71 206.446 480.5923 210.4697 476.5685 212.1463 475.3391 216.2818 475.0037 220.5292 466.8444 226.1177 462.0383 228.6884 460.8088 242.3245 457.0086 243.4422 455.8909 244.1129 454.7732 245.6777 450.9729Z" />
  <path class="Fier" d="M102.4988 547.8785L102.0517 549.8904 102.1635 551.2317 102.6106 553.4671 103.84 556.4849 105.9637 559.2792 109.5404 561.4029 115.7996 563.1912 124.853 562.5206 127.4238 562.9677 129.9945 565.0913 131.8946 566.0972 133.7947 565.9855 134.8007 565.7619 138.1538 567.1032 137.9303 573.5859 135.9184 577.4979 135.6948 578.6156 136.3655 586.6631 136.3655 588.3397 135.2477 594.2636 135.136 596.0519 135.3595 598.0638 135.9184 600.0757 138.2656 604.6583 140.501 606.8937 141.954 608.1232 152.237 611.0293 153.4664 612.7058 153.8018 613.4882 154.1371 614.8295 153.3547 616.2825 152.684 617.1767 144.5248 616.9531 141.954 617.6238 140.7245 616.1707 139.6068 614.3824 138.9362 613.8235 138.3773 613.7118 135.5831 615.053 131.6711 616.5061 129.771 617.4002 128.6532 618.1826 127.9826 619.8592 126.8649 622.0946 126.7531 623.1006 126.9767 623.9947 127.0884 624.6653 126.1943 626.2301 126.0825 627.4596 126.3061 628.6891 126.1943 629.8068 125.0766 630.1421 123.8471 629.9186 117.9232 629.9186 117.4761 633.4953 117.5879 634.9483 118.2585 637.4073 119.488 640.3133 124.2942 646.6843 125.1883 649.0315 124.9648 652.1611 123.7353 655.4024 123.5118 656.5201 123.5118 657.8614 123.7353 660.2086 124.0706 661.8851 125.1883 663.2264 128.4297 665.0147 130.5534 665.6854 132.677 667.1384 134.0183 668.2561 135.5831 675.2977 142.5129 683.3452 143.8541 685.916 143.2953 688.822 141.1716 690.9457 139.2715 692.5105 137.5949 693.4046 137.1479 693.8517 137.3714 694.0752 138.6009 694.2988 139.8304 695.3047 141.0598 697.3166 144.8601 707.5996 147.5426 711.288 153.69 715.5353 157.1549 716.7648 159.5021 718.3296 160.3963 719.112 161.7375 725.1476 158.2726 725.5947 157.0431 726.3771 155.7019 727.8301 154.1371 730.848 152.5723 733.1952 150.7839 735.207 143.1835 741.4662 141.5069 743.5899 134.2418 758.4554 133.3476 759.7967 132.7888 760.5791 129.2121 759.9085 125.859 759.0143 123.2882 759.4614 121.3881 758.9025 119.8233 757.4495 119.2645 756.22 119.2645 754.8788 119.7116 753.5375 120.0469 751.9727 120.1586 750.2961 119.3762 746.7195 119.2645 745.49 119.5998 744.484 120.0469 741.1309 120.0469 739.0073 119.488 738.0013 118.4821 737.4425 114.6818 736.6601 114.3465 736.213 114.3465 735.6541 114.5701 735.3188 115.0172 734.9835 115.3525 733.8658 115.576 732.1892 115.1289 729.1714 114.2348 727.4948 112.67 725.4829 111.664 724.8123 110.6581 724.5888 109.9875 724.8123 109.3168 725.1476 108.6462 724.9241 107.4167 724.2535 105.7402 722.9122 104.5107 722.2416 103.5047 722.1298 102.4988 722.2416 101.4928 722.1298 99.8163 721.3474 92.6629 716.2059 87.8568 716.2059 84.5036 715.5353 82.6035 714.5294 80.2563 714.7529 79.0268 714.4176 78.1327 713.747 77.3503 710.5056 76.7914 709.1644 77.015 708.4937 76.7914 708.0466 76.3443 707.5996 75.2266 707.2642 73.9971 707.2642 71.9853 707.9349 70.4205 707.8231 69.191 707.376 68.6321 706.1465 68.4086 705.2524 68.5204 704.2464 68.5204 703.464 67.738 702.4581 66.1732 701.3404 60.1375 698.2108 57.6785 697.4284 55.3314 697.3166 54.1019 696.646 53.543 694.9694 53.7666 693.7399 53.543 692.5105 52.5371 691.281 49.7428 689.4926 48.178 688.2631 47.1721 687.0337 47.0603 686.1395 47.1721 685.3571 47.1721 684.4629 46.6132 683.9041 45.2719 684.0158 39.2363 686.6983 36.6656 687.0337 32.7536 684.5747 27.3886 682.451 23.8119 681.5569 20.1234 681.2216 15.9879 682.6746 9.7287 683.2334 9.6169 683.2334 9.5052 683.1217 10.8464 679.0979 14.1996 675.8565 18.3351 672.727 21.4647 669.3738 23.8119 664.1206 24.8178 658.532 25.0414 638.6367 25.9355 633.2717 28.171 629.5833 32.8653 628.242 35.5479 627.0125 34.7655 624.2183 32.9771 620.9769 32.0829 618.965 33.2007 616.2825 34.989 613.4882 36.6656 611.4763 37.448 610.9175 35.3243 607.1173 31.5241 602.0876 29.0651 597.7285 31.1888 595.8284 35.1008 594.3754 40.0187 587.222 44.1542 584.2042 40.6893 588.1162 42.813 595.9402 40.6893 602.6464 40.6893 609.7998 42.5894 609.7998 43.3718 604.9936 43.3718 605.9996 43.7072 607.1173 44.1542 609.7998 47.5074 605.2172 60.8081 598.7344 65.0554 593.593 65.5025 585.3219 62.82 578.7274 59.4669 572.58 58.0139 565.9855 57.1197 574.5919 53.9901 582.4158 47.3956 592.4752 47.3956 590.9105 45.9426 589.0103 48.6251 586.2161 51.5311 581.4099 53.3195 575.2625 52.7606 568.3327 51.5311 566.6561 47.3956 564.9795 45.9426 563.7501 48.7369 556.7085 49.2957 556.1496 50.0781 555.479 50.7487 555.5908 52.09 554.9201 52.3135 554.026 51.9782 552.9083 50.9723 551.2317 51.1958 551.1199 51.7547 551.0081 53.0959 550.6728 53.8783 550.8964 54.8843 551.6788 56.8961 554.5848 58.4609 555.3672 59.4669 554.8084 60.3611 553.5789 61.8141 551.3435 63.0436 550.4493 64.273 550.3375 65.3908 550.7846 66.5085 551.1199 70.4205 551.2317 72.8794 550.8964 75.0031 549.5551 79.3622 546.0902 81.8211 544.5254 83.7212 543.6312 84.6154 543.743 86.5155 544.749 88.4156 545.0843 88.7509 545.196 88.9745 545.5314 89.3098 545.8667 91.8805 545.8667 92.6629 546.202 93.11 546.7608 94.3395 547.0961 95.7925 546.5373 100.1516 543.8548 101.4928 543.2959 102.1635 543.1842 102.6106 543.4077 103.0576 543.9666 103.1694 544.749 103.0576 545.4196 102.4988 547.8785Z" />
  <path class="Gjirokastër" d="M298.0983 754.3199L302.5692 755.2141 300.1102 757.5613 299.3278 758.7908 298.5454 760.3556 297.763 762.7028 297.763 765.497 298.5454 767.956 302.7927 773.2092 304.3575 775.5564 305.0282 778.2389 305.2517 783.3804 302.9045 792.6574 303.3516 795.1164 308.046 809.7584 308.6048 810.5408 312.1815 811.435 314.4169 811.6585 315.7582 811.9938 316.4288 812.5527 315.7582 813.6704 313.0757 816.2411 311.8462 818.0295 311.0638 819.5943 310.952 821.3826 311.1756 823.5063 311.6227 825.5182 317.9936 841.5014 319.4466 847.8724 321.1232 850.2196 333.0827 863.0733 336.8829 868.3265 341.6891 873.2444 341.8009 873.3562 341.8009 873.468 332.3003 877.9388 326.0411 878.6095 312.6286 876.5976 307.9342 877.8271 304.0222 880.1743 295.5276 879.1683 290.7215 881.292 287.3683 885.3157 284.4623 890.569 282.3386 896.3811 281.3327 902.305 277.0854 903.1991 264.4552 903.6462 261.4374 904.5404 262.6669 907.2229 266.4671 927.2299 267.8084 929.2418 273.844 935.2774 285.4682 954.6139 286.4741 960.426 284.4623 966.9087 280.1032 971.4913 275.7441 971.0442 271.2733 968.3617 261.7727 964.6733 261.7727 964.5615 261.3256 962.9967 258.5314 958.8612 259.3138 950.8136 258.5314 948.4664 257.0783 946.4546 255.1782 945.2251 253.3899 944.5545 249.925 944.5545 246.6836 943.9956 246.2365 938.407 245.1188 935.9481 242.8834 933.2656 240.4244 929.8007 239.4185 927.2299 237.8537 920.5237 236.6242 918.8471 231.9298 915.1586 226.2295 909.0112 224.7765 908.1171 223.3234 908.0053 220.5292 906.8876 216.1701 903.6462 196.3866 883.8627 193.5923 882.5215 191.9157 882.2979 185.5448 880.5096 183.98 880.286 182.4152 880.6213 177.3855 882.2979 174.0323 882.2979 172.1322 881.0684 170.4557 878.6095 165.2024 864.6381 162.7435 858.826 159.1668 853.3492 157.9373 850.7784 157.602 847.5371 152.9076 836.1364 144.6365 828.8713 143.9659 827.8653 143.2953 826.4123 144.8601 824.9593 145.3072 823.618 145.3072 821.8297 144.3012 817.6942 142.96 814.8999 140.8363 811.5468 140.1657 810.0937 139.9421 809.0878 140.3892 808.6407 142.4011 806.9641 143.1835 805.9582 143.2953 805.5111 142.96 805.064 139.9421 804.1699 138.9362 803.4992 137.8185 802.2697 133.2359 795.787 125.859 788.0748 124.853 786.3982 124.7413 785.3923 126.4178 784.051 130.1063 779.9155 132.2299 777.0095 133.6829 773.9916 134.3536 771.0856 134.13 769.0737 133.1241 766.3912 129.2121 759.9085 132.7888 760.5791 133.3476 759.7967 134.2418 758.4554 141.5069 743.5899 143.1835 741.4662 150.7839 735.207 152.5723 733.1952 154.1371 730.848 155.7019 727.8301 157.0431 726.3771 158.2726 725.5947 161.7375 725.1476 169.8968 730.1773 175.1501 731.1833 180.9622 731.1833 191.0216 736.4365 196.3866 735.3188 198.2867 735.6541 200.8574 737.3307 202.1987 737.8895 203.0928 737.7778 203.4282 737.1072 203.7635 735.9894 203.8752 735.0953 204.2106 733.0834 209.1285 734.76 211.5875 737.2189 213.264 740.4603 215.0524 741.9133 217.6231 742.8075 221.5351 742.9193 223.4352 743.3663 224.7765 744.484 230.5886 752.5316 231.2592 753.7611 248.919 776.6741 251.8251 779.4684 254.1723 780.8097 259.6491 782.1509 261.3256 782.3745 262.2198 778.5743 263.0022 777.0095 263.114 776.3388 263.5611 775.4447 264.7905 774.327 267.9201 772.4268 275.1853 770.7503 277.6442 769.7443 279.7679 767.8442 280.5503 764.4911 280.4385 761.6968 279.8796 758.7908 280.215 756.4436 282.5622 755.4376 287.033 755.6612 298.0983 754.3199Z" />
  <path class="Korçë" d="M337.33 537.9309L339.3419 538.8251 342.8068 539.1604 345.9364 539.0486 346.607 539.1604 348.8425 539.4957 351.6367 541.6194 354.2075 546.9844 359.1254 569.0033 364.0433 588.3397 367.62 596.0519 371.0849 598.958 373.6557 601.1934 380.0266 602.5347 384.4975 600.7463 392.9921 593.7047 397.91 592.4752 398.1336 592.3635 411.5461 594.3754 424.1762 598.0638 428.4235 602.1993 430.4354 608.5703 430.5472 617.4002 430.9943 633.2717 429.4295 640.4251 425.0704 645.5666 427.5294 647.6902 428.5353 650.1492 428.9824 652.8317 430.1001 655.4024 437.3652 662.2205 444.0715 670.4915 446.6422 675.1859 448.3188 680.998 448.6541 687.5925 447.76 693.7399 445.0774 705.3641 444.6304 709.1644 444.5186 711.9586 444.0715 714.5294 442.7303 717.8825 441.0537 719.7826 438.7065 721.1239 436.3593 723.024 434.6827 726.4889 431.3296 727.3831 428.6471 729.1714 427.1941 732.1892 427.3058 736.3248 426.6352 738.2249 425.741 739.9014 423.3938 743.3663 417.0229 747.7254 411.3226 746.2724 405.6222 743.4781 398.8042 743.7017 395.451 745.9371 393.998 748.7314 393.1039 751.9727 390.9802 755.3259 388.7448 756.5553 383.4915 757.8966 381.2561 760.2438 380.809 763.3734 381.9267 772.4268 382.0385 775.8917 381.1443 780.0273 380.0266 782.7098 377.2323 787.963 373.3204 797.6871 372.6497 799.5872 370.6378 801.3756 367.8436 802.8286 365.0493 804.7287 363.0374 807.9701 361.9197 815.5705 362.4785 822.165 362.3668 828.9831 359.5725 836.9188 358.2312 838.0365 354.431 839.1542 353.3133 840.9426 353.0898 843.0662 353.9839 846.6429 354.0957 848.4312 355.2134 854.5787 354.8781 856.0317 351.0779 866.7617 349.9602 869.1089 348.1718 870.4502 341.8009 873.468 341.8009 873.3562 341.6891 873.2444 336.8829 868.3265 333.0827 863.0733 321.1232 850.2196 319.4466 847.8724 317.9936 841.5014 311.6227 825.5182 311.1756 823.5063 310.952 821.3826 311.0638 819.5943 311.8462 818.0295 313.0757 816.2411 315.7582 813.6704 316.4288 812.5527 315.7582 811.9938 314.4169 811.6585 312.1815 811.435 308.6048 810.5408 308.046 809.7584 303.3516 795.1164 302.9045 792.6574 305.2517 783.3804 305.0282 778.2389 304.3575 775.5564 302.7927 773.2092 298.5454 767.956 297.763 765.497 297.763 762.7028 298.5454 760.3556 299.3278 758.7908 300.1102 757.5613 302.5692 755.2141 298.0983 754.3199 294.857 747.5019 294.7452 745.2664 295.8629 731.9657 295.4158 728.6125 294.4099 726.3771 291.9509 723.6946 291.5039 722.5769 291.2803 721.1239 291.3921 719.7826 291.9509 716.9883 292.5098 716.0942 293.7393 714.4176 295.3041 709.835 295.3041 708.829 294.7452 707.8231 294.857 706.8172 294.6334 706.0348 292.9569 704.3582 291.6156 703.7993 288.7096 703.3523 287.7036 703.0169 286.5859 702.3463 285.4682 702.1228 284.127 702.2345 282.7857 702.2345 281.4444 701.3404 279.5443 699.105 278.4266 695.5283 276.8618 693.4046 276.1912 691.281 272.1674 684.5747 270.0438 677.8684 264.567 664.903 263.3375 662.444 260.2079 658.7556 262.2198 655.0671 271.9439 652.2728 291.2803 649.9256 295.3041 648.1373 298.6572 645.4548 300.7809 641.8781 304.5811 634.0541 297.763 619.1886 294.857 614.6059 286.9212 604.2112 285.3564 601.3052 282.5622 592.2517 288.8213 589.0103 289.492 586.9985 290.2744 583.5336 290.945 578.1685 291.5039 575.3743 293.0686 570.9034 294.6334 569.0033 296.31 567.8856 305.2517 564.8678 306.8165 564.5325 308.8284 563.7501 318.9996 557.7144 320.8997 556.8202 322.0174 556.8202 323.4704 556.932 332.7474 560.3969 335.4299 560.7322 336.7712 559.6145 337.6653 557.7144 338.5595 551.567 338.4477 549.6669 337.5536 544.4136 337.4418 538.9369 337.33 537.9309Z" />
  <path class="Kukës" d="M322.9116 281.3043L320.6761 281.0807 316.3171 282.5338 312.1815 283.3162 296.4218 280.4101 291.1685 280.5219 288.3743 281.0807 288.486 282.1985 289.1567 283.2044 289.9391 284.2103 288.9331 285.7751 286.2506 287.3399 282.7857 288.6812 276.5265 289.5754 276.8618 287.0046 275.297 282.0867 268.1437 271.2449 266.6906 264.7622 267.026 263.7562 261.9963 263.1974 258.3078 264.8739 256.6312 266.774 255.1782 269.0095 253.0546 271.2449 250.3721 272.9215 245.7894 274.0392 243.1069 273.7039 241.095 272.0273 240.4244 270.2389 240.2009 268.5624 240.3127 267.4447 240.3127 266.1034 240.2009 265.2092 238.4125 262.862 241.6539 256.6029 242.4363 255.7087 243.2187 255.0381 244.0011 254.591 244.6717 253.8086 245.3424 252.9144 246.4601 251.7967 251.2662 247.6612 252.0486 246.5435 252.3839 244.8669 252.1604 241.5138 252.1604 238.943 252.3839 236.484 253.1663 234.6957 253.7252 232.9074 253.6134 230.7837 251.378 224.6363 250.2603 222.4009 247.2425 220.1655 239.7538 218.8242 233.8299 213.3474 231.7063 209.8825 230.0297 208.653 228.5767 208.8766 226.7883 209.8825 224.8882 210.7767 221.9822 210.8884 222.0939 210.2178 225.7824 205.0763 227.2354 200.4937 226.6766 198.2583 225.4471 195.5758 226.2295 192.8933 233.0475 183.0574 234.8359 181.0455 237.1831 179.2572 240.3127 177.3571 244.7835 173.6686 247.466 168.5272 245.5659 162.7151 237.9655 159.4737 235.73 158.9149 234.3888 157.5736 233.3828 156.0088 231.9298 154.7793 230.0297 154.444 223.9941 154.7793 195.2689 140.8079 191.9157 139.6902 185.9919 138.9078 181.6328 143.1551 166.6554 142.3727 164.9789 143.0433 163.4141 144.1611 159.7256 147.9613 158.1608 149.079 156.8196 149.6378 155.8136 149.7496 154.9195 150.0849 154.2488 150.532 152.9076 152.3204 146.5366 151.538 142.96 149.5261 141.2834 148.2966 140.7245 146.9553 141.5069 144.4964 142.1776 141.7021 142.2893 140.4726 142.2893 139.0196 142.5129 138.0136 142.96 136.8959 142.96 133.9899 142.0658 129.2955 138.7127 117.6713 137.8185 112.1945 137.5949 108.1707 137.9303 105.4882 137.7067 96.7701 137.1479 93.864 136.4772 91.7404 132.4535 86.7107 132.0064 85.593 132.4535 84.587 134.8007 82.3516 135.6948 80.8986 136.7008 77.5454 137.3714 76.0924 138.3773 74.8629 139.2715 73.857 140.2774 72.5157 140.9481 71.398 142.5129 68.0449 144.1894 67.486 153.8018 61.7857 156.149 59.5503 156.149 59.4385 162.4081 55.0794 162.967 55.0794 174.8147 55.4147 181.2975 53.5146 190.3509 41.3316 195.8277 37.4196 202.3105 41.108 207.5637 46.9201 220.1938 53.9617 224.5529 59.4385 224.5529 59.5503 231.7063 76.763 233.0475 78.7749 236.5124 82.0163 237.7419 84.6988 237.6301 87.4931 235.0594 91.5168 234.7241 93.7523 235.9536 95.8759 239.8656 99.3408 241.3186 101.3527 241.9892 104.0352 241.5421 108.7296 241.8774 111.0768 244.1129 116.7771 246.1248 119.0125 249.1426 119.4596 254.284 119.3479 256.6312 121.4715 259.9844 121.4715 263.2257 120.3538 265.1259 119.1243 266.4671 119.1243 270.3791 119.7949 301.675 142.8198 305.9223 147.4024 307.9342 149.6378 312.8521 156.3441 322.3527 177.2453 325.147 186.2988 325.8176 192.3344 325.8176 203.288 327.3824 209.659 335.3182 230.6719 336.5476 237.3782 337.7771 241.8491 337.7771 246.2081 335.0946 252.4673 333.0827 255.1498 331.1826 256.4911 329.6178 258.3912 328.5001 262.5267 328.5001 264.9857 329.8414 269.1212 329.6178 271.692 323.1351 275.604 322.9116 281.3043Z" />
  <path class="Lezhë" d="M238.4125 262.862L238.4125 267.6682 234.277 274.8216 231.4827 276.8334 228.2414 280.1866 226.0059 283.2044 222.8763 284.5457 219.7468 285.1045 217.0642 285.4398 215.4994 285.8869 214.8288 286.7811 215.2759 287.8988 226.1177 297.3993 227.3472 299.7465 227.459 304.5527 227.3472 306.5646 225.3353 309.5824 201.081 319.53 199.1809 320.8713 198.0631 322.3243 197.0572 326.4598 196.0513 328.2482 194.3747 329.7012 192.1393 330.3718 183.3094 328.807 180.7386 328.6953 179.062 329.1424 175.9325 331.4895 175.1501 332.1602 174.9265 333.0543 174.8147 334.3956 173.9206 335.7369 172.3558 336.2957 167.1025 334.6191 165.426 333.5014 164.42 332.3837 162.8552 329.4777 162.0728 328.9188 158.1608 331.0425 153.5782 332.4955 150.0015 332.9426 144.413 331.6013 141.5069 329.4777 139.495 328.4717 138.6009 328.2482 137.5949 333.8367 138.2656 348.2552 137.2596 352.5025 136.4772 353.3967 136.1419 354.6262 136.7008 356.0792 140.501 360.3265 141.7305 362.2266 142.5129 364.7974 142.2893 367.2563 144.3012 375.7509 137.7067 375.3039 135.8066 373.8508 133.4594 371.6154 131.224 368.8211 129.771 367.927 128.5415 367.8152 127.0884 368.9329 126.4178 370.1624 126.0825 371.6154 124.4059 373.6273 121.2763 375.9745 113.4524 378.5452 109.4286 378.9923 106.1872 378.657 104.3989 377.4275 103.0576 376.0862 100.8222 373.292 99.7045 372.286 95.4572 369.6035 94.0042 369.4917 88.3039 371.8389 84.5036 372.286 83.6095 372.7331 83.1624 373.1802 82.1564 375.1921 74.2207 370.833 73.4383 370.1624 75.6737 369.4917 80.5916 357.8675 82.38 357.8675 82.4917 361.556 83.4977 363.5679 85.286 363.9032 87.745 362.6737 85.7331 353.6202 84.5036 351.1613 82.38 353.3967 81.2623 350.7142 73.7736 343.8961 78.9151 334.7309 78.468 324.1127 77.1267 312.712 77.2385 306.6763 81.8211 308.2411 84.1683 303.7703 84.3919 296.6169 82.38 290.1342 80.7034 290.246 66.6202 284.4339 66.6202 284.3221 65.8378 280.6337 50.5252 268.4506 49.631 264.3151 50.4134 260.4031 52.3135 257.8323 54.6607 257.3853 58.0139 258.7265 66.732 264.0915 71.2029 265.9916 74.7795 264.8739 77.6856 261.6326 76.7914 254.591 75.5619 250.7908 74.3325 249.3377 77.1267 248.22 81.374 247.5494 82.2682 247.6612 83.0506 248.22 83.9448 249.0024 85.3978 249.7848 86.9626 250.1201 89.8686 250.1201 90.651 250.4554 90.9864 251.0143 90.651 251.7967 89.8686 252.9144 88.8627 254.591 88.7509 255.9322 89.0862 257.0499 89.9804 257.7206 92.3276 258.9501 94.3395 259.0618 103.6165 257.6088 105.7402 257.8323 107.752 259.0618 112.3347 262.862 115.6878 264.0915 117.9232 263.1974 120.0469 261.6326 121.8352 259.8442 122.7294 258.6147 123.0647 257.497 122.7294 256.1558 119.8233 249.673 127.6473 249.226 132.4535 246.767 134.0183 246.6552 135.8066 247.5494 137.8185 249.0024 141.6187 250.4554 143.7424 250.4554 145.6425 249.8966 146.9837 248.7789 148.7721 246.6552 151.3428 244.308 153.69 241.5138 156.7078 239.7254 159.3903 238.943 160.9551 239.0548 162.4081 240.5078 162.967 242.0726 163.6376 245.6493 165.5377 250.679 166.5437 252.3556 171.4616 258.6147 172.1322 260.0678 172.1322 261.409 171.5734 262.3032 169.4497 264.3151 169.1144 265.6563 169.338 267.1094 170.4557 268.6741 171.7969 269.9036 174.0323 270.686 183.7564 271.0213 185.7683 270.4625 187.1096 269.3448 190.1274 263.868 191.9157 261.2972 197.5043 255.7087 201.4163 253.4733 203.6517 251.4614 206.1107 247.8847 208.2343 241.0667 210.4697 238.6077 213.3758 236.5958 229.5826 228.4365 239.7538 218.8242 247.2425 220.1655 250.2603 222.4009 251.378 224.6363 253.6134 230.7837 253.7252 232.9074 253.1663 234.6957 252.3839 236.484 252.1604 238.943 252.1604 241.5138 252.3839 244.8669 252.0486 246.5435 251.2662 247.6612 246.4601 251.7967 245.3424 252.9144 244.6717 253.8086 244.0011 254.591 243.2187 255.0381 242.4363 255.7087 241.6539 256.6029 238.4125 262.862Z" />
  <path class="Shkodër" d="M142.5129 68.0449L140.9481 71.398 140.2774 72.5157 139.2715 73.857 138.3773 74.8629 137.3714 76.0924 136.7008 77.5454 135.6948 80.8986 134.8007 82.3516 132.4535 84.587 132.0064 85.593 132.4535 86.7107 136.4772 91.7404 137.1479 93.864 137.7067 96.7701 137.9303 105.4882 137.5949 108.1707 137.8185 112.1945 138.7127 117.6713 142.0658 129.2955 142.96 133.9899 142.96 136.8959 142.5129 138.0136 142.2893 139.0196 142.2893 140.4726 142.1776 141.7021 141.5069 144.4964 140.7245 146.9553 141.2834 148.2966 142.96 149.5261 146.5366 151.538 152.9076 152.3204 154.2488 150.532 154.9195 150.0849 155.8136 149.7496 156.8196 149.6378 158.1608 149.079 159.7256 147.9613 163.4141 144.1611 164.9789 143.0433 166.6554 142.3727 181.6328 143.1551 185.9919 138.9078 191.9157 139.6902 195.2689 140.8079 223.9941 154.7793 230.0297 154.444 231.9298 154.7793 233.3828 156.0088 234.3888 157.5736 235.73 158.9149 237.9655 159.4737 245.5659 162.7151 247.466 168.5272 244.7835 173.6686 240.3127 177.3571 237.1831 179.2572 234.8359 181.0455 233.0475 183.0574 226.2295 192.8933 225.4471 195.5758 226.6766 198.2583 227.2354 200.4937 225.7824 205.0763 222.0939 210.2178 221.9822 210.8884 224.8882 210.7767 226.7883 209.8825 228.5767 208.8766 230.0297 208.653 231.7063 209.8825 233.8299 213.3474 239.7538 218.8242 229.5826 228.4365 213.3758 236.5958 210.4697 238.6077 208.2343 241.0667 206.1107 247.8847 203.6517 251.4614 201.4163 253.4733 197.5043 255.7087 191.9157 261.2972 190.1274 263.868 187.1096 269.3448 185.7683 270.4625 183.7564 271.0213 174.0323 270.686 171.7969 269.9036 170.4557 268.6741 169.338 267.1094 169.1144 265.6563 169.4497 264.3151 171.5734 262.3032 172.1322 261.409 172.1322 260.0678 171.4616 258.6147 166.5437 252.3556 165.5377 250.679 163.6376 245.6493 162.967 242.0726 162.4081 240.5078 160.9551 239.0548 159.3903 238.943 156.7078 239.7254 153.69 241.5138 151.3428 244.308 148.7721 246.6552 146.9837 248.7789 145.6425 249.8966 143.7424 250.4554 141.6187 250.4554 137.8185 249.0024 135.8066 247.5494 134.0183 246.6552 132.4535 246.767 127.6473 249.226 119.8233 249.673 122.7294 256.1558 123.0647 257.497 122.7294 258.6147 121.8352 259.8442 120.0469 261.6326 117.9232 263.1974 115.6878 264.0915 112.3347 262.862 107.752 259.0618 105.7402 257.8323 103.6165 257.6088 94.3395 259.0618 92.3276 258.9501 89.9804 257.7206 89.0862 257.0499 88.7509 255.9322 88.8627 254.591 89.8686 252.9144 90.651 251.7967 90.9864 251.0143 90.651 250.4554 89.8686 250.1201 86.9626 250.1201 85.3978 249.7848 83.9448 249.0024 83.0506 248.22 82.2682 247.6612 81.374 247.5494 77.1267 248.22 74.3325 249.3377 75.5619 250.7908 76.7914 254.591 77.6856 261.6326 74.7795 264.8739 71.2029 265.9916 66.732 264.0915 58.0139 258.7265 54.6607 257.3853 52.3135 257.8323 50.4134 260.4031 49.631 264.3151 50.5252 268.4506 65.8378 280.6337 66.6202 284.3221 66.6202 284.4339 50.4134 277.7276 46.725 275.2686 42.1424 273.2568 24.9296 278.7336 24.7061 275.1569 24.9296 266.327 22.9177 262.6385 20.5705 260.4031 19.8999 259.0618 20.1234 257.6088 19.8999 255.3734 20.2352 253.585 21.2411 251.9085 21.8 249.4495 20.2352 241.5138 21.5765 240.2843 23.5883 240.0607 25.1531 238.8312 26.4944 233.0191 24.5943 230.6719 24.4825 230.6719 22.1353 225.5305 21.2411 218.936 21.5765 212.2297 22.8059 206.3058 27.3886 196.1347 26.8297 192.8933 26.1591 192.1109 22.3589 187.5283 7.8286 176.6865 3.9166 172.2156 1.3459 166.7388 2.1283 163.1622 4.2519 160.815 9.6169 155.0029 11.6288 151.7615 33.8713 117.0007 34.0948 115.2123 33.9831 110.5179 34.4301 108.059 36.8891 102.4704 38.1186 100.4585 51.084 85.3694 54.549 79.7809 59.4669 76.4277 63.6024 71.6216 67.1791 65.9212 70.1969 59.5503 70.1969 59.4385 71.6499 54.297 74.6678 51.6145 78.3562 49.6026 81.4858 45.9142 81.4858 45.8024 82.8271 41.7787 84.2801 32.837 85.7331 28.0308 89.9804 21.101 96.6867 13.277 99.1457 10.9298 103.7283 6.7943 109.6521 4 115.4642 6.9061 119.3762 14.3947 121.4999 23.2246 121.7234 26.6895 121.7234 27.3602 121.947 30.0427 121.4999 29.7074 120.2704 31.6075 118.4821 35.743 118.035 38.0902 117.4761 43.3435 117.6997 45.6906 118.4821 48.8202 122.9529 59.5503 131.224 66.033 135.5831 68.1567 140.1657 68.7155 142.5129 68.0449Z" />
  <path class="Tiranë" d="M163.3023 394.9756L166.2084 395.0873 168.332 396.4286 171.3498 398.8876 176.2678 404.3644 181.6328 412.4119 182.1916 414.6473 182.527 416.1003 182.8623 417.1063 184.3153 419.1182 184.6506 420.2359 185.0977 421.5771 185.8801 423.0301 190.5745 426.9421 194.8218 429.5129 196.6101 431.5248 198.8455 435.2132 200.4103 436.1074 202.0869 435.7721 204.8812 433.0895 206.2224 431.1894 213.3758 431.0777 222.9881 441.4724 226.453 444.1549 245.6777 450.9729 244.1129 454.7732 243.4422 455.8909 242.3245 457.0086 228.6884 460.8088 226.1177 462.0383 220.5292 466.8444 216.2818 475.0037 212.1463 475.3391 210.4697 476.5685 206.446 480.5923 204.993 481.71 203.4282 482.1571 201.3045 481.71 199.6279 480.9276 198.5102 479.8099 196.9454 479.9217 194.9336 481.3747 191.2451 485.8455 188.0037 490.8752 180.4033 499.7052 178.615 501.3817 167.3261 507.1938 161.8493 508.4233 149.778 513.453 143.7424 518.7063 143.9659 519.6004 144.6365 520.4946 146.2013 521.0535 146.9837 521.6123 146.8719 522.2829 145.6425 523.736 142.5129 525.0772 137.4832 526.0832 129.6592 525.3008 121.4999 525.9714 121.0528 529.5481 120.1586 531.0011 118.5938 532.5659 112.67 535.4719 110.5463 537.5956 109.7639 541.0605 109.5404 543.6312 109.4286 546.5373 108.6462 547.9903 107.752 548.8845 102.4988 547.8785 103.0576 545.4196 103.1694 544.749 103.0576 543.9666 102.6106 543.4077 102.1635 543.1842 101.4928 543.2959 100.1516 543.8548 95.7925 546.5373 94.3395 547.0961 93.11 546.7608 92.6629 546.202 91.8805 545.8667 89.3098 545.8667 88.9745 545.5314 88.7509 545.196 88.4156 545.0843 86.5155 544.749 84.6154 543.743 83.7212 543.6312 81.8211 544.5254 79.3622 546.0902 75.0031 549.5551 72.8794 550.8964 70.4205 551.2317 66.5085 551.1199 65.3908 550.7846 64.273 550.3375 63.0436 550.4493 61.8141 551.3435 60.3611 553.5789 59.4669 554.8084 58.4609 555.3672 56.8961 554.5848 54.8843 551.6788 53.8783 550.8964 53.0959 550.6728 51.7547 551.0081 51.1958 551.1199 50.9723 551.2317 51.9782 552.9083 52.3135 554.026 52.09 554.9201 50.7487 555.5908 50.0781 555.479 49.2957 556.1496 48.7369 556.7085 45.9426 563.7501 44.0425 559.9498 44.266 558.1615 45.2719 556.5967 48.0662 531.0011 46.725 525.6361 45.2719 523.4007 44.266 520.7182 44.3778 518.4827 49.9663 516.0238 50.8605 512.2235 50.8605 507.6409 51.1958 503.8407 61.5905 487.075 63.3789 480.5923 63.1553 479.251 63.2671 479.251 69.5263 478.4686 76.4561 481.4865 81.2623 484.8396 86.292 475.4508 92.8865 469.7505 94.4513 467.1798 95.2337 463.4913 95.3454 459.5793 95.1219 455.332 95.6807 449.6317 95.569 447.0609 95.0101 445.4961 92.5512 444.3784 91.2099 443.0372 89.7569 439.684 89.5333 435.6603 90.0922 416.5474 96.6867 415.0944 101.8282 416.4356 103.393 415.6532 104.6224 414.0884 105.4048 412.3001 106.6343 410.7353 107.6403 411.5177 108.4227 413.4178 109.2051 419.0064 109.7639 420.6829 110.5463 422.2477 111.7758 423.1419 112.4464 423.9243 113.1171 424.9303 113.6759 426.7186 114.6818 428.7305 116.2466 429.6246 119.2645 429.7364 121.4999 429.0658 124.0706 427.7245 131.4475 422.4713 141.954 418.224 143.1835 417.3298 143.7424 415.9886 143.9659 414.7591 144.6365 413.7531 145.6425 414.2002 148.1014 416.3239 150.1133 416.5474 152.3487 415.6532 156.7078 411.4059 158.7197 408.7234 162.0728 402.3525 162.7435 400.5641 163.0788 398.664 163.3023 394.9756Z" />
  <path class="Vlorë" d="M261.7727 964.6733L261.4374 964.5615 258.9784 964.1144 256.8548 965.0086 255.0664 967.4675 255.7371 968.8088 257.1901 970.2618 258.0843 972.8326 257.6372 974.5091 256.0724 978.5329 255.7371 979.5388 256.4077 980.6565 258.196 982.892 258.6431 983.8979 259.6491 986.804 260.9903 988.257 261.7727 990.0453 260.9903 993.622 257.5254 997.8693 252.831 1000.5518 249.0308 1004.352 248.2484 1011.5054 246.013 1010.1641 243.7776 1009.4935 241.6539 1009.4935 239.642 1010.1641 237.6301 1012.3996 237.2948 1014.8585 237.4066 1017.3175 236.5124 1018.9941 232.6004 1020 227.3472 1017.6528 220.1938 1011.0583 208.5696 1005.0227 198.3985 1001.6695 189.9039 998.8752 185.8801 1001.446 185.0977 1001.7813 184.8741 1003.6814 183.0858 1003.6814 181.7446 998.8752 182.527 993.3985 186.5507 983.4508 182.1916 981.5507 180.9622 980.433 184.8741 971.9384 189.4568 955.508 190.0156 951.4843 188.3391 944.6662 185.6565 942.7661 181.7446 942.4308 176.156 940.4189 175.8207 939.6365 175.7089 938.2953 175.4854 936.8422 174.4794 935.7245 171.0145 933.7127 168.4438 932.7067 164.0847 932.4832 162.1846 931.1419 162.1846 929.13 165.873 924.4356 168.332 921.8649 171.0145 920.0766 166.5437 915.8293 154.6959 892.8044 153.0194 888.7806 151.231 885.204 149.2191 883.7509 141.0598 883.5274 137.0361 882.745 134.3536 881.292 136.3655 879.2801 129.4356 874.4739 128.3179 876.7094 127.9826 877.6035 127.7591 879.2801 126.8649 876.2623 125.6354 874.8092 124.0706 873.8033 122.3941 872.2385 122.0587 870.8972 120.1586 866.9853 118.1468 863.7439 117.1408 864.4145 114.6818 861.8438 97.9162 856.367 83.9448 847.9842 75.7855 840.719 61.4788 835.8011 53.0959 829.4301 28.9534 802.3815 26.1591 797.7989 24.9296 795.0046 21.4647 780.1391 19.6763 776.0035 10.7347 767.2854 7.6051 763.0381 7.2697 761.6968 7.2697 761.2497 5.8167 760.6909 5.8167 758.4554 12.523 754.8788 16.6585 754.5435 20.6823 757.3377 29.7358 768.4031 32.0829 772.0915 35.4361 779.9155 36.7773 784.8334 37.448 789.3043 39.7952 790.7573 45.0484 789.5278 50.4134 786.9571 52.7606 784.7217 54.4372 754.5435 53.7666 749.5138 47.2838 745.7135 38.5657 736.8836 31.6359 726.936 30.2946 719.7826 32.0829 721.7945 32.7536 724.3652 33.4242 727.2713 35.5479 726.6007 37.448 726.6007 42.2541 732.1892 45.4955 730.5127 47.1721 724.2535 47.6191 716.2059 44.4895 709.835 37.7833 706.3701 31.6359 708.0466 30.2946 717.3237 28.5063 712.1822 10.9582 686.0277 9.6169 683.2334 9.7287 683.2334 15.9879 682.6746 20.1234 681.2216 23.8119 681.5569 27.3886 682.451 32.7536 684.5747 36.6656 687.0337 39.2363 686.6983 45.2719 684.0158 46.6132 683.9041 47.1721 684.4629 47.1721 685.3571 47.0603 686.1395 47.1721 687.0337 48.178 688.2631 49.7428 689.4926 52.5371 691.281 53.543 692.5105 53.7666 693.7399 53.543 694.9694 54.1019 696.646 55.3314 697.3166 57.6785 697.4284 60.1375 698.2108 66.1732 701.3404 67.738 702.4581 68.5204 703.464 68.5204 704.2464 68.4086 705.2524 68.6321 706.1465 69.191 707.376 70.4205 707.8231 71.9853 707.9349 73.9971 707.2642 75.2266 707.2642 76.3443 707.5996 76.7914 708.0466 77.015 708.4937 76.7914 709.1644 77.3503 710.5056 78.1327 713.747 79.0268 714.4176 80.2563 714.7529 82.6035 714.5294 84.5036 715.5353 87.8568 716.2059 92.6629 716.2059 99.8163 721.3474 101.4928 722.1298 102.4988 722.2416 103.5047 722.1298 104.5107 722.2416 105.7402 722.9122 107.4167 724.2535 108.6462 724.9241 109.3168 725.1476 109.9875 724.8123 110.6581 724.5888 111.664 724.8123 112.67 725.4829 114.2348 727.4948 115.1289 729.1714 115.576 732.1892 115.3525 733.8658 115.0172 734.9835 114.5701 735.3188 114.3465 735.6541 114.3465 736.213 114.6818 736.6601 118.4821 737.4425 119.488 738.0013 120.0469 739.0073 120.0469 741.1309 119.5998 744.484 119.2645 745.49 119.3762 746.7195 120.1586 750.2961 120.0469 751.9727 119.7116 753.5375 119.2645 754.8788 119.2645 756.22 119.8233 757.4495 121.3881 758.9025 123.2882 759.4614 125.859 759.0143 129.2121 759.9085 133.1241 766.3912 134.13 769.0737 134.3536 771.0856 133.6829 773.9916 132.2299 777.0095 130.1063 779.9155 126.4178 784.051 124.7413 785.3923 124.853 786.3982 125.859 788.0748 133.2359 795.787 137.8185 802.2697 138.9362 803.4992 139.9421 804.1699 142.96 805.064 143.2953 805.5111 143.1835 805.9582 142.4011 806.9641 140.3892 808.6407 139.9421 809.0878 140.1657 810.0937 140.8363 811.5468 142.96 814.8999 144.3012 817.6942 145.3072 821.8297 145.3072 823.618 144.8601 824.9593 143.2953 826.4123 143.9659 827.8653 144.6365 828.8713 152.9076 836.1364 157.602 847.5371 157.9373 850.7784 159.1668 853.3492 162.7435 858.826 165.2024 864.6381 170.4557 878.6095 172.1322 881.0684 174.0323 882.2979 177.3855 882.2979 182.4152 880.6213 183.98 880.286 185.5448 880.5096 191.9157 882.2979 193.5923 882.5215 196.3866 883.8627 216.1701 903.6462 220.5292 906.8876 223.3234 908.0053 224.7765 908.1171 226.2295 909.0112 231.9298 915.1586 236.6242 918.8471 237.8537 920.5237 239.4185 927.2299 240.4244 929.8007 242.8834 933.2656 245.1188 935.9481 246.2365 938.407 246.6836 943.9956 249.925 944.5545 253.3899 944.5545 255.1782 945.2251 257.0783 946.4546 258.5314 948.4664 259.3138 950.8136 258.5314 958.8612 261.3256 962.9967 261.7727 964.5615 261.7727 964.6733Z" />
</svg>