<?xml version="1.0" encoding="utf-8"?>
<svg xmlns="http://www.w3.org/2000/svg" viewBox="0 0 679 1024" style="stroke-width:0.25px;stroke-linejoin:round;stroke:#444;fill:#ddd" fill-rule="evenodd">
  <path class="Barima-Waini" d="M307.9336 221.9538L300.5567 218.6007 294.4092 217.1476 293.4033 217.1476 292.2856 217.2594 290.7208 217.8183 290.0502 218.4889 289.4913 219.0477 289.2678 219.8301 288.8207 222.4009 288.3736 222.9597 286.697 224.1892 283.791 226.5364 282.2262 226.5364 280.3261 226.2011 272.055 223.5186 270.0431 221.842 269.149 221.3949 268.143 221.1714 264.3428 221.5067 263.2251 220.9479 262.4427 220.389 251.042 208.653 250.1479 207.8706 249.2537 207.4235 234.947 204.0704 215.0517 193.1168 213.7105 193.0051 211.6986 193.2286 207.563 194.3463 205.9982 195.1287 204.9923 196.0229 204.7688 196.8053 204.2099 198.4818 203.5393 199.4878 201.6392 201.2761 200.8568 202.1703 199.6273 204.1822 198.7331 204.9646 197.7272 205.6352 196.6095 205.8587 195.2682 205.747 189.7914 203.7351 187.6678 204.0704 186.5501 204.8528 185.7677 205.6352 185.2088 206.4176 184.5382 207.3118 183.644 208.2059 182.6381 209.1001 181.7439 209.7707 180.8497 210.1061 179.9556 210.3296 175.0376 209.1001 170.7903 207.0882 168.3314 206.5294 166.7666 206.4176 164.8664 207.0882 163.8605 206.9765 162.7428 206.3058 159.6132 203.1762 155.3659 200.6055 150.448 198.8172 148.1008 198.1465 147.2066 198.2583 146.7595 198.1465 146.2007 198.0348 145.9771 197.5877 145.8653 197.2524 146.0889 197.0288 145.9771 196.9171 145.8653 196.3582 145.7536 196.3582 145.8653 196.0229 144.9712 194.9052 141.9534 193.7875 140.5003 194.4581 138.2649 195.3523 136.4766 195.1287 134.8 193.2286 133.5705 191.7756 131.2233 190.5461 130.3292 190.6579 129.435 191.552 128.429 192.6697 127.0878 193.5639 125.4112 193.8992 125.0759 193.7875 124.2935 193.8992 124.07 194.6816 123.7347 194.7934 121.611 196.9171 118.8167 201.835 118.1461 200.9408 116.4695 198.5936 115.0165 197.1406 113.5635 196.0229 111.6634 193.8992 111.1045 191.8873 109.9868 191.2167 107.7514 190.4343 106.4101 187.0812 105.6277 183.7281 105.8513 183.0574 106.4101 182.0515 108.3102 180.7102 109.0926 179.1454 109.3162 178.1395 109.875 177.2453 110.881 177.0218 111.5516 176.3512 111.5516 175.2334 111.3281 172.6627 110.0986 169.7567 109.4279 168.0801 109.0926 166.0682 107.8631 164.9505 106.6337 163.4975 105.6277 162.268 104.9571 161.1503 104.9571 159.5855 104.7336 158.356 104.3982 157.6854 102.3864 156.3441 101.2686 156.2323 100.3745 155.897 99.3685 154.6675 98.3626 154.7793 97.0213 154.1087 96.4625 151.8733 95.3448 148.073 94.8977 146.3965 94.6741 145.3905 94.5624 144.2728 95.4565 142.8198 95.9036 142.708 96.4625 142.5963 96.686 142.4845 99.8156 141.4785 100.3745 140.8079 100.9333 140.8079 101.8275 140.8079 103.057 140.5844 104.2865 138.1254 104.51 137.0077 104.8453 136.4488 105.7395 135.1076 106.0748 132.7604 106.1866 132.6486 108.0867 132.9839 109.4279 132.0898 109.875 130.6367 110.7692 130.9721 110.9927 130.8603 110.9927 128.8484 110.881 127.5072 110.9927 125.8306 111.1045 125.4953 111.6634 125.0482 112.334 124.6011 112.7811 123.2598 113.4517 121.8068 113.8988 121.0244 112.2222 118.4537 113.0046 117.2242 113.787 116.7771 114.1223 115.6594 114.1223 115.3241 115.1283 114.2064 116.0224 112.5298 116.1342 112.418 116.8048 111.6356 117.9226 109.512 118.3696 108.8414 118.2579 108.6178 119.8227 107.1648 122.8405 106.1589 134.4647 106.3824 140.5003 105.8235 141.7298 104.8176 141.9534 105.1529 142.0651 105.7118 142.0651 106.1589 142.0651 106.4942 142.4004 106.6059 142.624 106.3824 142.8475 106.0471 143.0711 105.7118 143.2946 105.3765 143.7417 105.0411 143.9652 104.9294 144.1888 104.5941 144.9712 103.9234 145.53 103.5881 145.7536 103.3646 146.0889 103.3646 146.536 103.141 146.6477 103.0293 146.8713 102.3586 146.9831 102.0233 147.3184 101.688 147.5419 101.4645 147.989 101.0174 148.4361 100.5703 148.4361 100.1232 148.4361 100.0114 148.7714 99.5644 149.6656 99.4526 149.8891 99.4526 150.6715 99.4526 151.0068 99.1173 151.4539 98.782 151.7892 98.4466 151.7892 97.9996 151.7892 97.8878 152.1245 97.8878 152.4598 97.776 152.4598 97.2172 152.7952 96.9936 153.2422 96.7701 153.6893 96.4348 154.5835 96.0994 155.9248 95.7641 156.0365 95.4288 156.3718 95.2053 156.4836 95.0935 156.5954 94.7582 156.5954 94.3111 156.7072 94.0876 156.8189 93.864 157.266 93.6405 157.3778 93.3052 157.6013 93.3052 157.9366 93.5287 158.0484 93.5287 158.1602 93.1934 158.2719 92.7463 158.2719 92.411 159.0543 91.2933 159.2779 90.958 160.2838 90.6227 160.3956 90.2873 160.2838 89.952 159.9485 89.952 159.5014 89.952 159.3897 89.7285 159.3897 89.3932 159.6132 88.9461 159.9485 88.7226 160.3956 88.499 160.8427 88.3872 161.0662 88.1637 161.4015 87.7166 161.7369 87.3813 162.0722 87.1578 162.8546 86.8224 163.1899 86.8224 163.637 86.8224 163.9723 86.8224 164.3076 86.9342 164.5311 86.7107 164.5311 86.4871 164.5311 86.04 164.5311 85.9283 164.7547 85.8165 164.9782 85.8165 165.3135 85.9283 165.6488 86.1518 165.8724 86.4871 166.3195 86.7107 166.4312 86.3754 166.6548 86.1518 166.7666 85.7047 166.9901 85.3694 167.2136 85.2576 167.7725 85.1459 168.2196 84.9223 168.5549 84.8106 169.2255 84.9223 169.6726 85.0341 170.1197 84.3635 170.6785 83.5811 173.9199 80.8986 175.9318 77.6572 176.1553 77.4337 176.826 77.4337 177.3848 77.4337 178.0554 77.2101 178.6143 76.9866 179.1732 76.763 179.8438 76.763 180.0673 77.0983 180.2909 77.769 180.6262 77.9925 181.185 77.9925 181.6321 78.4396 182.4145 78.6631 182.8616 78.8867 183.1969 78.9985 183.7558 79.1102 184.5382 78.8867 186.103 77.4337 187.6678 76.2042 188.8972 74.6394 190.7974 71.398 191.1327 69.4979 191.3562 66.8154 192.4739 64.58 193.8152 63.2387 192.4739 61.0033 192.4739 59.7738 193.2563 57.6502 196.2741 55.303 198.5096 54.8559 198.9567 54.0735 199.292 52.9558 200.1861 52.3969 207.116 50.8321 209.9102 50.7204 212.7045 49.7144 213.3751 49.1556 214.6046 48.932 227.4583 50.8321 227.4583 49.2673 226.2288 45.8024 224.7758 43.6788 223.3228 42.5611 219.6343 39.5432 214.7164 37.3078 211.8103 32.5017 197.5036 16.4066 189.009 4 191.8033 5.2295 196.2741 8.1355 201.1921 13.1652 209.0161 25.1248 214.1575 30.1545 218.0695 32.1663 224.7758 33.9547 228.2407 35.743 235.7294 41.2198 239.7531 43.3435 243.7769 44.2376 245.0064 46.3613 245.3417 46.6966 245.4535 47.8143 246.0123 48.0378 246.9065 47.9261 254.6187 49.4909 255.6246 50.4968 257.413 52.7322 269.7078 63.2387 266.4664 58.209 261.6603 53.4029 255.96 49.6026 245.677 45.3553 233.0469 36.6372 224.664 32.0546 223.5463 30.4898 221.8697 26.6895 222.2051 24.9012 225.4464 24.3424 227.6818 25.3483 232.5998 29.2603 238.1883 30.9369 240.8708 32.837 245.3417 36.6372 254.2834 42.0022 266.9135 47.7025 281.4438 58.209 306.4805 73.1864 314.7516 79.4455 316.7635 81.3457 318.7754 84.0282 326.264 90.8462 345.0416 111.971 352.0832 117.5595 355.9952 123.3716 359.2365 127.7307 352.5303 136.1135 347.3888 141.0315 344.4827 142.8198 327.7171 149.7496 325.7052 150.8673 317.5459 159.3619 315.9811 161.4856 315.0869 163.1622 315.1987 164.1681 315.4222 165.174 315.8693 166.18 318.44 170.2037 318.9989 171.2097 319.3342 172.3274 319.446 173.4451 319.2224 174.7864 318.3283 175.9041 314.7516 178.6983 313.6339 179.9278 312.8515 181.0455 305.251 204.4057 304.9157 206.3058 304.9157 208.3177 305.0275 210.2178 307.8218 220.389 307.9336 221.9538Z" />
  <path class="Cuyuni-Mazaruni" d="M351.9714 259.2854L349.8477 254.1439 349.8477 253.138 349.1771 251.9085 348.0594 251.7967 346.8299 252.132 345.1534 252.6909 344.4827 252.8026 343.5886 252.9144 341.5767 252.8026 339.1177 252.132 337.8882 251.4614 336.7705 250.2319 335.9881 248.4436 335.4293 242.855 335.3175 242.0726 333.9762 239.949 330.2878 238.7195 328.723 238.8312 327.9406 239.5019 325.3699 242.1844 324.5875 242.6315 323.8051 242.855 323.0227 242.9668 322.1285 243.0785 320.3402 242.9668 318.6636 242.6315 313.7457 240.8431 313.075 240.5078 311.5102 239.5019 310.7278 239.0548 307.3747 238.3842 306.3688 238.0488 305.3628 237.49 304.9157 235.8134 305.251 233.578 307.9336 224.7481 307.9336 221.9538 307.8218 220.389 305.0275 210.2178 304.9157 208.3177 304.9157 206.3058 305.251 204.4057 312.8515 181.0455 313.6339 179.9278 314.7516 178.6983 318.3283 175.9041 319.2224 174.7864 319.446 173.4451 319.3342 172.3274 318.9989 171.2097 318.44 170.2037 315.8693 166.18 315.4222 165.174 315.1987 164.1681 315.0869 163.1622 315.9811 161.4856 317.5459 159.3619 325.7052 150.8673 327.7171 149.7496 344.4827 142.8198 347.3888 141.0315 352.5303 136.1135 359.2365 127.7307 359.5718 128.066 362.925 135.1076 365.1604 138.349 365.7193 137.4548 364.378 134.1017 364.6015 132.5369 366.5017 132.6486 369.8548 133.8781 372.7608 136.2253 375.4433 138.796 377.6788 141.5903 379.9142 144.9435 382.8202 149.6378 386.2851 153.8851 388.4088 157.0147 399.2506 167.7448 401.7096 171.9921 402.7155 176.5747 401.3743 181.0455 402.2684 180.0396 401.5978 185.9635 402.2684 203.7351 399.8095 218.2653 398.1329 220.5008 395.1151 222.848 392.5443 223.6304 383.1556 228.6601 380.5848 230.6719 379.4671 232.3485 378.3494 239.1666 378.0141 240.2843 377.3435 241.6255 376.4493 242.2961 375.108 242.5197 373.4315 242.5197 370.9725 243.3021 369.5195 244.1963 368.4018 245.314 364.378 251.5732 363.2603 252.6909 362.2543 253.3615 357.8953 255.5969 351.9714 259.2854Z" />
  <path class="Demerara-Mahaica" d="M414.4515 223.6304L420.5989 224.5245 420.4871 225.1952 412.7749 230.7837 405.8451 232.9074 403.1626 235.9252 402.8273 233.578 403.6097 230.4484 405.0627 227.6541 407.1864 225.9776 408.4158 224.1892 408.9747 223.6304 410.2042 223.4068 414.4515 223.6304ZM381.7025 290.4695L381.479 290.3578 379.3553 289.4636 378.5729 289.4636 377.567 289.7989 376.8964 290.1342 375.7787 290.1342 374.5492 289.6871 366.3899 285.3281 364.9369 284.7692 363.3721 284.4339 356.554 284.0986 354.8774 283.7633 354.095 283.5397 353.4244 282.6455 352.8656 281.0807 353.3127 276.2746 353.8715 273.2568 354.6539 265.4328 354.3186 263.3091 351.9714 259.2854 357.8953 255.5969 362.2543 253.3615 363.2603 252.6909 364.378 251.5732 368.4018 245.314 369.5195 244.1963 370.9725 243.3021 373.4315 242.5197 375.108 242.5197 376.4493 242.2961 377.3435 241.6255 378.0141 240.2843 378.3494 239.1666 379.4671 232.3485 380.5848 230.6719 383.1556 228.6601 392.5443 223.6304 395.1151 222.848 392.8796 224.5245 390.8678 227.0953 389.303 229.7778 388.4088 232.6838 387.6264 237.9371 384.385 246.2081 384.0497 249.1142 384.385 258.2794 384.0497 259.6207 382.8202 261.409 382.4849 262.862 382.4849 287.5635 381.7025 290.4695ZM386.6205 293.9344L387.1793 275.7157 388.6323 270.0154 403.0508 244.4198 406.7393 239.3901 411.769 235.9252 417.8046 234.3604 423.6167 234.6957 428.87 236.2605 437.0293 240.6196 439.7118 243.0785 440.3824 243.5256 440.8295 243.9727 441.9472 244.9787 442.6178 245.314 442.6178 245.6493 441.053 251.9085 440.7177 252.9144 440.3824 254.4792 440.2706 255.7087 440.4942 258.0559 440.9413 260.2913 441.9472 263.0856 442.059 263.9798 442.059 264.9857 440.4942 268.8977 433.229 282.9809 432.1113 284.5457 431.8878 284.7692 431.6642 284.9927 427.0816 289.5754 425.4051 291.699 425.0697 292.2579 424.8462 293.152 424.7344 294.158 425.5168 296.7287 426.411 298.9641 426.6345 299.7465 426.6345 300.7525 426.1875 302.2055 424.8462 305.1116 424.6227 305.8939 424.3991 306.6763 424.3991 307.7941 424.6227 309.2471 425.4051 311.4825 425.9639 312.6002 426.411 313.3826 428.0876 314.8356 429.4288 316.2887 429.7641 316.8475 429.9877 317.8535 429.8759 318.9712 429.3171 321.2066 428.5347 323.2185 427.3052 324.895 426.9699 325.5657 426.7463 326.3481 426.7463 327.2422 427.6405 329.2541 428.6464 331.0425 428.9817 331.7131 429.3171 333.1661 430.6583 336.5193 431.1054 337.8605 430.9936 339.6488 428.7582 343.2255 426.2992 341.6607 425.2933 341.2136 423.7285 340.7666 417.6928 340.4312 416.9105 340.3195 416.4634 339.9842 416.6869 338.7547 416.6869 337.9723 414.3397 330.2601 414.2279 329.3659 414.2279 328.4717 414.1162 327.2422 413.7809 325.901 412.9985 323.5538 411.3219 320.3124 406.0686 314.3886 400.4801 310.8119 399.0271 309.4706 397.3505 307.5705 389.6383 295.611 386.6205 293.7109 386.6205 293.9344Z" />
  <path class="East Berbice-Corentyne" d="M428.7582 343.2255L430.9936 339.6488 431.1054 337.8605 430.6583 336.5193 429.3171 333.1661 428.9817 331.7131 428.6464 331.0425 427.6405 329.2541 426.7463 327.2422 426.7463 326.3481 426.9699 325.5657 427.3052 324.895 428.5347 323.2185 429.3171 321.2066 429.8759 318.9712 429.9877 317.8535 429.7641 316.8475 429.4288 316.2887 428.0876 314.8356 426.411 313.3826 425.9639 312.6002 425.4051 311.4825 424.6227 309.2471 424.3991 307.7941 424.3991 306.6763 424.6227 305.8939 424.8462 305.1116 426.1875 302.2055 426.6345 300.7525 426.6345 299.7465 426.411 298.9641 425.5168 296.7287 424.7344 294.158 424.8462 293.152 425.0697 292.2579 425.4051 291.699 427.0816 289.5754 431.6642 284.9927 431.8878 284.7692 432.1113 284.5457 433.229 282.9809 440.4942 268.8977 442.059 264.9857 442.059 263.9798 441.9472 263.0856 440.9413 260.2913 440.4942 258.0559 440.2706 255.7087 440.3824 254.4792 440.7177 252.9144 441.053 251.9085 442.6178 245.6493 442.6178 245.314 443.1767 245.5375 443.6238 244.9787 444.1826 243.3021 445.3003 242.9668 457.1481 244.4198 465.6427 248.5553 468.3252 250.7908 472.4607 253.9204 477.6022 258.9501 478.2728 259.3971 478.1611 259.7325 478.3846 267.3329 478.8317 269.1212 479.6141 271.1331 480.7318 273.2568 481.1789 274.4862 481.4024 275.7157 480.9553 279.2924 481.0671 280.2983 481.5142 281.1925 482.5201 282.8691 482.5201 283.6515 481.2906 284.3221 480.2847 284.3221 479.167 284.2103 478.2728 283.9868 477.3787 283.875 476.3727 283.9868 475.4785 284.3221 474.9197 285.1045 474.8079 286.334 475.0315 287.4517 476.1492 290.5813 476.2609 291.4755 476.2609 292.4814 476.0374 293.4873 475.7021 294.6051 475.1432 295.4992 473.9138 296.3934 472.9078 296.7287 468.884 297.1758 467.0957 297.6229 466.4251 297.9582 465.8662 298.4053 464.8603 299.523 462.066 303.7703 460.8365 305.1116 459.607 305.8939 458.7129 306.4528 457.7069 307.1234 456.5892 308.5765 455.5833 310.3648 448.3182 329.2541 447.8711 330.8189 447.6475 332.9426 447.9828 340.2077 449.2123 346.914 447.2004 346.5787 446.3063 346.1316 441.7237 341.996 436.5822 343.4491 434.1232 344.6785 433.1173 344.7903 432.3349 344.9021 428.7582 343.2255Z" />
  <path class="Essequibo Islands-West Demerara" d="M532.2583 319.53L532.3701 320.536 531.6994 322.1008 531.1406 324.5597 531.923 327.4658 531.923 328.2482 531.6994 329.1424 531.0288 329.9248 529.5758 330.8189 527.5639 331.3778 522.8695 332.1602 522.0871 332.2719 520.5223 332.4955 519.8517 332.8308 519.1811 333.1661 518.3987 334.0603 517.8398 334.9545 517.5045 336.7428 517.7281 338.7547 518.734 343.2255 519.0693 343.7844 519.6282 344.2315 520.187 344.6785 521.193 345.5727 521.5283 346.1316 521.64 346.8022 521.64 347.5846 520.9694 349.82 518.0634 354.9615 517.3927 355.6321 516.8339 356.191 516.0515 356.4145 515.2691 356.3028 514.4867 355.8557 513.4807 354.8497 512.9219 354.4026 512.2513 354.0673 511.2453 354.0673 510.0158 354.4026 508.3393 355.185 506.6627 356.7498 509.0099 360.5501 509.7923 363.9032 510.3512 370.4977 509.9041 375.0803 508.3393 375.6392 505.545 375.5274 504.6508 375.7509 501.4095 376.9804 500.4035 377.204 494.2561 376.8686 492.5795 377.3157 491.4618 377.9864 490.6794 378.8805 489.897 379.6629 488.8911 379.9982 487.8851 379.7747 485.4262 377.3157 484.1967 376.5333 482.1848 376.4216 480.9553 376.5333 479.7259 376.4216 478.8317 375.8627 476.2609 372.286 474.6961 370.833 473.802 368.5976 473.1314 367.5916 467.3193 366.6975 466.2015 366.5857 461.9542 365.8033 452.5655 362.6737 450.6653 361.7795 449.1006 359.3206 450.7771 353.732 450.7771 351.3848 449.2123 346.914 447.9828 340.2077 447.6475 332.9426 447.8711 330.8189 448.3182 329.2541 455.5833 310.3648 456.5892 308.5765 457.7069 307.1234 458.7129 306.4528 459.607 305.8939 460.8365 305.1116 462.066 303.7703 464.8603 299.523 465.8662 298.4053 466.4251 297.9582 467.0957 297.6229 468.884 297.1758 472.9078 296.7287 473.9138 296.3934 475.1432 295.4992 475.7021 294.6051 476.0374 293.4873 476.2609 292.4814 476.2609 291.4755 476.1492 290.5813 475.0315 287.4517 474.8079 286.334 474.9197 285.1045 475.4785 284.3221 476.3727 283.9868 477.3787 283.875 478.2728 283.9868 479.167 284.2103 480.2847 284.3221 481.2906 284.3221 482.5201 283.6515 482.5201 282.8691 481.5142 281.1925 481.0671 280.2983 480.9553 279.2924 481.4024 275.7157 481.1789 274.4862 480.7318 273.2568 479.6141 271.1331 478.8317 269.1212 478.3846 267.3329 478.1611 259.7325 478.2728 259.3971 481.2906 261.7443 488.6675 268.7859 493.0266 273.2568 494.2561 275.2686 496.7151 276.3864 499.7329 279.516 507.6686 285.8869 512.0277 289.4636 514.9338 291.9226 516.7221 293.9344 518.8458 295.9463 521.5283 298.8524 524.3226 305.6704 528.4581 315.5063 530.0229 317.4064 530.47 320.0889 531.0288 321.2066 532.2583 319.53Z" />
  <path class="Mahaica-Berbice" d="M397.574 983.2273L397.4623 983.1155 398.6917 975.068 399.8095 971.9384 404.6156 965.0086 410.5395 958.9729 412.1043 956.7375 419.0341 940.5307 424.7344 931.9243 429.7641 922.4238 451.5595 861.3967 461.0601 843.0662 462.7366 838.3718 463.2955 835.8011 463.6308 833.0068 463.6308 828.8713 462.1778 811.2114 462.1778 809.1996 462.5131 807.2994 462.7366 806.1817 464.9721 802.158 475.7021 787.6277 476.1492 786.6218 475.7021 783.9393 467.0957 763.4851 452.6772 742.8075 451.1124 738.5602 450.33 734.6482 449.9947 730.848 450.6653 724.5888 450.6653 722.018 445.971 703.6876 445.971 700.558 445.6356 697.4284 444.8532 695.4165 440.4942 686.4748 427.6405 667.4737 426.6345 665.2383 425.5168 662.3322 421.2695 644.5606 420.9342 642.2134 420.9342 640.4251 421.9402 636.5131 422.0519 634.613 421.9402 633.3835 416.3516 614.2706 408.0805 602.7582 406.0686 598.8462 406.5157 595.9402 412.1043 580.9628 414.4515 571.7976 426.1875 551.3435 427.6405 546.0902 450.6653 545.6431 454.9127 544.749 457.3716 543.4077 462.7366 527.8715 464.8603 519.2651 466.9839 513.5648 470.4488 508.7586 483.9732 493.6695 490.6794 476.0097 493.4737 470.8682 497.9446 464.9443 501.2977 456.338 503.4213 452.5377 507.7804 447.8433 508.6746 445.8315 509.2334 442.8136 510.3512 429.6246 517.7281 398.8876 520.187 392.6284 520.5223 391.5107 520.4106 390.2812 520.2988 389.0517 518.1751 387.0398 516.275 386.7045 514.1514 384.2455 509.9041 375.0803 510.3512 370.4977 509.7923 363.9032 509.0099 360.5501 506.6627 356.7498 508.3393 355.185 510.0158 354.4026 511.2453 354.0673 512.2513 354.0673 512.9219 354.4026 513.4807 354.8497 514.4867 355.8557 515.2691 356.3028 516.0515 356.4145 516.8339 356.191 517.3927 355.6321 518.0634 354.9615 520.9694 349.82 521.64 347.5846 521.64 346.8022 521.5283 346.1316 521.193 345.5727 520.187 344.6785 519.6282 344.2315 519.0693 343.7844 518.734 343.2255 517.7281 338.7547 517.5045 336.7428 517.8398 334.9545 518.3987 334.0603 519.1811 333.1661 519.8517 332.8308 520.5223 332.4955 522.0871 332.2719 522.8695 332.1602 527.5639 331.3778 529.5758 330.8189 531.0288 329.9248 531.6994 329.1424 531.923 328.2482 531.923 327.4658 531.1406 324.5597 531.6994 322.1008 532.3701 320.536 532.2583 319.53 532.4818 318.3006 532.7054 316.7358 532.7054 314.3886 534.4937 312.4884 535.835 311.7061 536.2821 311.1472 536.9527 311.0354 539.6352 311.259 542.5413 312.2649 544.7767 313.3826 547.571 314.7239 551.8183 317.2946 553.4948 318.1888 558.301 321.4301 563.8895 325.4539 575.1784 336.9663 578.0845 341.1019 580.6552 346.1316 581.8847 351.7201 582.3318 355.185 582.7789 356.7498 583.5613 358.2029 583.7848 359.4323 583.8966 360.8854 581.8847 357.9793 580.8788 357.0851 583.3377 362.0031 584.1201 364.015 584.2319 366.921 584.4554 369.1564 584.7908 374.1861 582.5553 378.9923 581.8847 381.563 580.9905 383.9102 580.3199 385.475 580.2081 388.3811 578.8669 391.7342 578.5316 394.9756 581.7729 400.2288 581.4376 407.7175 579.8728 412.0766 578.1963 414.7591 576.6315 417.8887 569.7017 427.9481 569.7017 428.954 568.3604 431.7483 567.9133 433.9837 567.8015 436.8898 567.2427 440.1311 565.7897 442.3666 559.1952 449.0728 558.0774 450.5259 557.6304 452.0906 558.0774 453.3201 559.3069 453.3201 561.3188 452.5377 562.6601 452.873 563.5542 452.873 564.0013 453.2084 564.2249 462.8207 564.4484 463.9384 565.119 464.7208 566.3485 465.0561 567.578 464.8326 568.4722 464.2737 568.8075 463.3795 567.4662 461.703 566.6838 460.3617 566.9074 459.0205 568.1369 458.3498 569.7017 458.3498 571.0429 458.6851 571.6018 459.5793 571.7135 459.8029 572.7195 462.1501 577.1903 467.7386 578.308 470.5329 577.6374 472.433 575.9608 473.9978 573.7254 475.3391 571.6018 476.1215 570.9311 473.4389 569.7017 471.9859 568.0251 471.4271 565.5661 471.4271 564.0013 472.2095 563.1072 474.1096 562.213 478.0216 560.0893 482.716 559.754 484.2807 559.5305 486.0691 560.2011 487.6339 565.119 492.1047 563.7778 492.9989 562.6601 492.8871 561.5424 492.3283 560.4246 492.1047 558.4128 492.44 557.295 492.8871 556.1773 493.446 554.7243 494.0048 551.2594 495.0108 540.4176 496.1285 538.1822 496.7991 536.3938 496.9109 535.4997 496.4638 533.376 494.4519 532.5936 494.0048 529.1287 494.2284 525.8873 494.7872 519.9635 496.9109 514.4867 494.5637 509.3452 494.899 504.7626 497.1344 501.0741 500.7111 499.0623 504.6231 497.3857 505.8526 494.0326 506.2997 492.356 505.9644 491.0147 505.4055 489.6735 504.9584 487.9969 505.4055 486.991 506.4114 484.1967 511.1058 482.2966 513.3413 479.8376 516.0238 477.6022 519.1534 476.708 523.8477 477.714 525.7479 479.9494 526.8656 482.2966 528.4304 484.0849 534.1307 487.7734 538.8251 488.8911 541.1723 488.7793 543.8548 487.6616 546.202 485.2026 549.7787 482.9672 556.8202 480.62 560.7322 478.1611 566.7679 477.1551 571.3505 475.8139 573.1388 474.2491 574.9272 472.9078 577.0508 472.349 579.5098 472.796 581.7452 473.5784 583.7571 473.9138 586.1043 473.5784 589.5692 472.796 592.2517 471.2312 594.5989 459.2717 606.8937 457.3716 609.7998 457.1481 612.5941 458.8246 618.5179 460.613 630.2539 461.9542 635.0601 465.3074 639.3074 474.3608 646.4607 476.5963 649.0315 483.5261 659.2026 486.4321 665.4618 487.1028 668.1443 487.4381 674.4035 488.2205 677.3096 489.7853 679.8803 492.0207 681.3333 498.727 684.1276 503.9802 687.4807 504.5391 688.4867 505.2097 690.8339 506.3274 692.8458 506.4392 693.4046 506.5509 693.8517 507.2216 694.5223 507.8922 694.8576 509.3452 694.9694 509.5688 695.4165 510.1276 695.64 513.0337 697.3166 515.2691 699.8873 515.0455 702.3463 512.9219 706.3701 513.0337 707.2642 513.2572 708.9408 513.2572 709.835 512.4748 712.4057 512.4748 713.5234 512.6983 714.9765 513.369 716.5413 513.8161 717.3237 514.4867 717.8825 515.6044 718.3296 519.5164 719.112 521.7518 720.4532 521.8636 720.4532 526.1109 722.8004 527.5639 723.2475 528.7934 723.024 530.1347 720.3415 531.923 720.6768 533.7113 721.7945 534.4937 722.3534 535.6114 722.3534 536.7292 722.5769 537.5116 723.024 537.8469 723.6946 538.2939 724.3652 539.2999 723.6946 540.3058 722.8004 540.6411 722.3534 544.5531 721.3474 545.4473 720.1179 545.3355 717.659 549.6946 719.5591 553.2713 720.6768 556.9597 720.0062 561.3188 716.653 564.7837 723.6946 565.119 725.5947 564.8955 730.4009 564.6719 731.1833 563.5542 732.9716 563.7778 734.0893 564.6719 735.207 565.119 736.8836 565.0073 738.4484 564.2249 741.3545 564.1131 743.031 564.4484 744.484 565.9014 747.7254 565.5661 749.2902 564.6719 750.4079 564.4484 751.3021 565.9014 752.4198 567.2427 752.6433 568.6957 752.1963 569.8134 751.4139 570.8194 750.6315 571.0429 750.9668 571.0429 751.0785 571.1547 751.1903 571.6018 751.4139 569.5899 755.4376 570.8194 758.0084 573.1666 760.132 574.396 763.1498 574.6196 764.2675 575.2902 766.0559 575.402 767.0618 574.9549 767.6207 573.0548 767.5089 572.6077 767.956 572.8312 769.6326 573.1666 770.862 573.2783 771.9798 572.6077 773.2092 571.49 774.9976 573.1666 776.0035 577.7492 776.4506 578.4198 778.4625 576.9668 780.4744 574.7314 782.1509 573.5019 783.4922 575.2902 790.6455 575.8491 791.9868 576.9668 792.6574 577.4139 793.8869 578.0845 795.2282 579.6493 795.787 580.9905 795.4517 583.673 794.2222 585.3496 793.8869 586.3556 794.7811 583.8966 799.8108 584.7908 802.3815 585.2378 802.0462 589.9322 801.3756 591.2735 801.9344 591.0499 803.4992 590.044 805.1758 589.4851 806.5171 590.2675 808.4172 593.7325 812.1056 595.1855 814.6763 595.9679 820.0414 597.0856 820.8238 599.8799 819.259 600.8858 821.0473 600.4387 822.6121 599.7681 824.4004 599.8799 826.7476 600.5505 827.9771 604.0154 832.0009 604.2389 833.0068 603.5683 837.7012 604.4625 838.9307 606.3626 838.2601 609.1569 836.2482 610.3864 837.4777 610.1628 838.9307 609.4922 840.4955 609.1569 841.8367 609.604 843.7369 610.2746 844.9663 612.51 846.9782 613.1806 848.3195 612.9571 849.7725 612.0629 851.7844 613.1806 854.2433 618.0986 858.6024 619.5516 861.6202 619.5516 866.5382 620.1105 867.7677 621.3399 868.4383 624.5813 868.9971 625.8108 869.6678 627.4873 872.3503 628.8286 878.3859 629.9463 881.4037 630.8405 885.4275 644.1413 904.2051 647.8297 905.7699 661.354 905.9934 666.4955 908.6759 667.2779 909.7936 668.2838 910.7996 669.4015 911.4702 672.3076 912.3644 673.4253 913.3703 674.3195 914.7116 674.7666 916.2763 668.3956 918.7353 664.1483 921.0825 662.0246 921.3061 659.901 920.1883 657.8891 918.6235 655.7655 917.2823 653.0829 916.947 650.8475 917.8411 648.9474 919.2942 647.0473 920.3001 644.253 920.1883 641.4587 919.7413 639.6704 920.1883 633.7465 924.8827 632.07 925.6651 630.1699 925.6651 620.4458 923.9886 618.6574 923.3179 616.422 921.5296 615.5278 920.1883 614.4101 919.5177 611.3923 919.5177 606.8097 919.9648 604.5743 919.9648 602.1153 919.4059 598.5386 917.5058 595.9679 915.3822 594.2913 912.5879 593.5089 908.6759 589.2616 905.3228 582.6671 908.0053 570.9311 915.3822 568.1369 914.8233 563.2189 911.6937 559.8658 911.3584 556.7362 912.5879 554.7243 914.3762 553.0477 916.6117 550.9241 918.5118 548.018 920.0766 546.1179 920.7472 544.6649 921.9767 541.3118 931.1419 539.8587 933.6009 530.6935 945.1133 526.6697 948.2429 520.187 949.8077 516.0515 950.0312 504.4273 947.9076 499.5094 947.5723 495.1503 948.8018 484.0849 953.7197 479.3905 956.514 477.0433 957.4081 474.8079 957.2964 470.6724 955.6198 468.437 955.2845 467.6546 956.2904 467.7663 958.4141 468.6605 962.6614 468.2134 965.0086 467.3193 967.4675 464.8603 971.9384 462.6249 974.6209 456.9245 975.7386 450.4418 975.5151 445.971 974.2856 445.0768 973.1679 444.0708 970.1501 442.9531 968.8088 440.7177 967.6911 439.2647 967.9146 438.0352 968.697 436.2469 969.2559 433.6761 969.1441 430.6583 968.697 427.7523 967.8029 425.4051 966.5734 424.3991 965.5674 423.0579 963.332 422.3872 962.9967 420.8224 964.1144 419.9283 965.9028 419.1459 967.9146 418.1399 969.5912 417.0222 970.3736 413.7809 971.8266 412.8867 972.7208 412.6631 974.062 413.4455 976.9681 413.3338 978.3094 409.6453 980.7683 407.857 981.1036 397.9094 982.7802 397.574 983.2273Z" />
  <path class="Pomeroon-Supenaam" d="M147.2066 198.2583L148.1008 198.1465 150.448 198.8172 155.3659 200.6055 159.6132 203.1762 162.7428 206.3058 163.8605 206.9765 164.8664 207.0882 166.7666 206.4176 168.3314 206.5294 170.7903 207.0882 175.0376 209.1001 179.9556 210.3296 180.8497 210.1061 181.7439 209.7707 182.6381 209.1001 183.644 208.2059 184.5382 207.3118 185.2088 206.4176 185.7677 205.6352 186.5501 204.8528 187.6678 204.0704 189.7914 203.7351 195.2682 205.747 196.6095 205.8587 197.7272 205.6352 198.7331 204.9646 199.6273 204.1822 200.8568 202.1703 201.6392 201.2761 203.5393 199.4878 204.2099 198.4818 204.7688 196.8053 204.9923 196.0229 205.9982 195.1287 207.563 194.3463 211.6986 193.2286 213.7105 193.0051 215.0517 193.1168 234.947 204.0704 249.2537 207.4235 250.1479 207.8706 251.042 208.653 262.4427 220.389 263.2251 220.9479 264.3428 221.5067 268.143 221.1714 269.149 221.3949 270.0431 221.842 272.055 223.5186 280.3261 226.2011 282.2262 226.5364 283.791 226.5364 286.697 224.1892 288.3736 222.9597 288.8207 222.4009 289.2678 219.8301 289.4913 219.0477 290.0502 218.4889 290.7208 217.8183 292.2856 217.2594 293.4033 217.1476 294.4092 217.1476 300.5567 218.6007 307.9336 221.9538 307.9336 224.7481 305.251 233.578 304.9157 235.8134 305.3628 237.49 306.3688 238.0488 307.3747 238.3842 310.7278 239.0548 311.5102 239.5019 313.075 240.5078 313.7457 240.8431 318.6636 242.6315 320.3402 242.9668 322.1285 243.0785 323.0227 242.9668 323.8051 242.855 324.5875 242.6315 325.3699 242.1844 327.9406 239.5019 328.723 238.8312 330.2878 238.7195 333.9762 239.949 335.3175 242.0726 335.4293 242.855 335.9881 248.4436 336.7705 250.2319 337.8882 251.4614 339.1177 252.132 341.5767 252.8026 343.5886 252.9144 344.4827 252.8026 345.1534 252.6909 346.8299 252.132 348.0594 251.7967 349.1771 251.9085 349.8477 253.138 349.8477 254.1439 351.9714 259.2854 354.3186 263.3091 354.6539 265.4328 353.8715 273.2568 353.3127 276.2746 352.8656 281.0807 353.4244 282.6455 354.095 283.5397 354.8774 283.7633 356.554 284.0986 363.3721 284.4339 364.9369 284.7692 366.3899 285.3281 374.5492 289.6871 375.7787 290.1342 376.8964 290.1342 377.567 289.7989 378.5729 289.4636 379.3553 289.4636 381.479 290.3578 381.7025 290.4695 381.3672 292.0343 372.202 305.1116 372.7608 305.4469 373.0961 305.8939 377.3435 302.0937 378.7965 301.1996 379.1318 300.6407 379.5789 299.8583 380.1377 299.4112 381.9261 300.3054 383.1556 300.4172 383.8262 300.4172 384.0497 301.8702 384.0497 308.0176 384.385 310.7001 387.7382 317.2946 388.1853 319.7536 388.0735 320.9831 387.8499 322.2125 387.4029 323.442 386.7322 324.448 386.3969 325.4539 386.9558 326.5716 387.7382 327.8011 388.1853 329.1424 386.1734 347.5846 386.2851 350.3789 387.7382 353.732 388.1853 355.185 388.1853 366.4739 387.7382 369.8271 385.9498 372.3978 382.4849 379.6629 381.9261 382.7925 382.4849 391.5107 381.5908 400.3406 381.7025 409.8411 380.9201 415.6532 379.3553 421.2418 376.7846 426.9421 373.655 432.9778 371.3078 435.4367 368.0664 436.4427 356.1069 438.3428 350.5184 438.5663 347.0535 432.9778 346.2711 432.0836 345.4887 431.413 344.4827 430.9659 343.365 430.6306 341.912 430.407 335.7646 429.96 334.7586 429.7364 333.7527 429.1776 332.7468 428.3952 329.1701 423.589 328.4994 423.0301 327.3817 422.6948 326.0405 422.8066 321.0108 424.9303 319.8931 425.3773 318.5518 425.3773 316.6517 425.042 315.6458 424.2596 315.0869 423.3655 314.9751 422.3595 315.1987 417.1063 314.9751 416.1003 314.3045 415.3179 312.5162 413.6414 311.622 412.6354 310.8396 411.6295 308.9395 407.7175 308.2689 406.8233 305.6981 404.2526 302.6803 400.3406 301.7861 399.4464 300.7802 398.5523 299.7743 398.1052 298.6565 397.9934 297.3153 398.2169 296.3094 398.5523 291.2796 401.3465 289.9384 402.576 288.3736 404.2526 285.8029 407.4939 283.9028 410.8471 283.2321 411.853 282.0026 412.9707 279.6554 414.312 278.2024 414.7591 276.8612 415.0944 275.967 415.0944 273.9551 414.9826 271.8315 414.6473 261.5485 411.5177 260.7661 411.5177 260.2073 411.6295 259.4249 412.0766 253.501 415.9886 249.589 419.677 248.9184 420.5712 248.4713 421.8007 248.4713 423.3655 249.4772 428.5069 250.4832 439.9076 249.0301 442.5901 241.2062 443.2607 238.9707 443.2607 226.5641 440.69 224.4405 440.8018 220.0814 441.4724 214.0458 441.1371 213.0398 441.1371 212.1457 441.3606 203.204 444.1549 201.6392 444.9373 200.2979 446.1668 199.0684 447.8433 197.5036 450.9729 196.1624 455.1085 193.7034 460.3617 193.1446 462.2618 192.0268 463.7149 190.1267 465.5032 183.644 470.5329 180.9615 473.4389 179.732 474.3331 179.3967 473.9978 175.0376 463.8266 173.9199 462.2618 167.6607 464.4972 165.7606 462.7089 164.4194 459.4675 162.631 458.9087 156.9307 460.3617 154.36 461.703 148.8832 467.2915 146.2007 469.0799 143.1828 469.1916 137.1472 467.068 134.3529 467.1798 133.2352 468.0739 131.6704 470.7564 130.3292 471.7624 129.3232 471.6506 128.429 470.98 127.4231 469.974 126.4172 469.3034 123.7347 468.7446 115.9107 469.8623 113.8988 469.6387 112.4458 468.8563 110.9927 468.0739 109.3162 467.2915 107.7514 466.9562 99.5921 466.3974 96.5743 466.5091 91.0975 467.7386 90.7622 467.4033 3.0218 368.2623 1.457 366.4739 1.2334 364.3503 1.7923 363.7914 2.0158 363.6796 4.5866 363.2326 6.2631 362.1149 6.2631 361.3325 8.275 359.6559 13.8636 350.826 15.3166 349.7083 15.8755 348.9259 16.3226 348.5905 16.7696 348.1435 17.2167 347.3611 17.552 347.0257 17.9991 346.6904 18.1109 346.3551 18.2227 344.9021 18.558 344.3432 19.3404 344.2315 20.7934 344.5668 21.3523 344.5668 22.9171 344.2315 23.6994 343.2255 24.9289 342.4431 25.7113 342.7784 26.2702 343.4491 27.2761 343.7844 27.9468 343.3373 28.3938 342.4431 28.7292 341.8843 30.0704 341.996 30.4057 341.996 30.9646 340.6548 31.747 338.1958 31.8587 337.0781 31.5234 335.178 31.5234 334.0603 31.747 333.725 32.5294 332.8308 34.0942 332.8308 35.7707 332.719 38.0062 333.2779 38.9003 333.2779 39.571 332.4955 40.1298 332.1602 40.4651 331.9366 40.2416 331.0425 40.018 330.3718 39.9063 329.9248 39.2356 329.7012 38.6768 328.9188 38.4532 328.5835 38.4532 328.0246 39.2356 322.8832 40.018 321.8772 40.4651 320.8713 39.6827 320.6477 38.4532 320.3124 37.7826 319.9771 37.6708 319.7536 37.3355 319.1947 37.3355 318.8594 37.0002 318.7476 35.3237 317.7417 34.9883 317.2946 34.4295 316.0651 33.8706 314.5003 33.3118 313.8297 32.8647 312.1531 32.7529 312.0414 32.9765 311.9296 33.7589 310.9237 34.4295 309.4706 34.653 309.0235 34.9883 307.9058 34.653 307.1234 34.5413 306.7881 34.5413 305.8939 34.8766 305.8939 35.1001 305.3351 34.5413 304.9998 34.4295 304.4409 34.9883 304.3292 35.2119 304.3292 35.5472 304.3292 35.9943 301.3113 36.7767 301.5349 37.112 300.1936 37.112 299.1877 36.6649 297.6229 36.6649 296.7287 36.7767 296.2816 36.4414 295.3875 35.5472 294.8286 34.2059 293.7109 33.5353 292.9285 33.2 292.4814 32.8647 291.2519 32.8647 291.1402 32.8647 290.8048 33.3118 290.3578 34.0942 288.2341 33.6471 286.6693 33.6471 285.9987 33.4235 284.9927 32.5294 284.0986 30.8528 284.0986 30.0704 284.4339 29.3998 283.875 28.7292 283.5397 28.1703 284.2103 28.0585 284.6574 27.9468 284.9927 27.2761 284.5457 26.1584 283.4279 26.6055 283.4279 27.0526 282.7573 27.0526 282.3102 27.0526 281.8631 26.382 281.5278 25.9349 280.8572 25.9349 280.7454 25.9349 279.516 25.8231 279.4042 26.6055 275.604 26.829 275.4922 27.6114 275.604 28.0585 274.2627 28.2821 273.3685 28.7292 272.3626 28.8409 271.4684 28.9527 271.0213 30.5175 270.5743 31.0763 269.9036 30.9646 269.3448 31.5234 268.6741 30.8528 267.6682 30.6293 267.1094 31.5234 265.4328 31.747 265.0975 31.747 264.9857 32.3058 264.6504 33.3118 264.5386 33.6471 264.2033 33.7589 264.0915 34.5413 263.9798 34.7648 262.9738 35.7707 262.5267 36.2178 262.0796 36.2178 261.409 36.2178 260.4031 36.4414 259.7325 38.6768 258.7265 38.7886 258.6147 40.4651 258.9501 42.1417 259.3971 43.2594 260.0678 43.7065 260.2913 44.2653 260.6266 45.0477 260.1795 45.4948 259.3971 45.8301 258.503 46.0537 258.0559 46.5008 257.6088 47.5067 257.7206 48.6244 257.9441 49.5186 258.2794 51.754 258.2794 52.3129 258.2794 53.6541 258.2794 55.1072 257.497 56.4484 257.2735 57.2308 257.497 58.2367 258.3912 58.9074 259.0618 61.1428 259.2854 63.0429 259.1736 64.6077 258.0559 65.5019 256.4911 65.7254 256.1558 66.2843 255.8205 67.6255 254.7028 68.855 254.7028 69.6374 254.2557 70.0845 254.0321 70.5316 252.9144 70.4198 252.0202 69.5256 251.6849 68.5197 251.1261 68.5197 250.5672 68.2961 249.3377 67.1784 247.7729 67.1784 247.4376 67.2902 246.6552 67.6255 245.9846 68.0726 245.4257 68.1844 245.314 69.1903 245.4257 70.9787 245.9846 71.2022 246.0964 73.3259 247.8847 74.3318 248.5553 75.5613 248.8906 76.5672 249.1142 77.6849 249.226 78.5791 249.3377 79.0262 249.0024 81.4851 248.4436 82.3793 248.3318 83.6088 248.8906 84.8383 249.673 89.868 252.4673 92.1034 252.9144 94.0035 253.4733 96.0154 253.6968 98.8097 250.1201 99.4803 249.0024 100.2627 246.8788 101.3804 245.2022 102.8334 243.9727 103.9512 243.5256 106.1866 243.0785 109.0926 242.2961 109.7633 242.2961 111.7751 240.6196 113.8988 240.1725 116.4695 240.2843 118.3696 240.0607 119.5991 238.7195 120.2697 237.2664 120.6051 236.7076 122.5052 236.5958 124.2935 236.5958 126.3054 235.4781 127.7584 234.0251 129.2114 232.0132 129.8821 231.0073 130.888 230.2249 131.4469 229.4425 133.347 228.3248 134.4647 228.213 136.7001 227.6541 137.3707 227.4306 138.2649 227.3188 138.8238 227.4306 139.4944 227.8777 140.0532 228.4365 141.171 229.666 141.618 229.8895 141.8416 229.5542 142.5122 228.9954 142.7358 228.4365 142.8475 227.7659 142.9593 227.5424 143.2946 226.9835 143.4064 226.76 143.2946 226.2011 143.4064 223.8539 143.4064 222.9597 143.7417 222.1773 143.7417 221.6185 143.6299 220.9479 143.6299 220.8361 143.6299 220.2772 144.077 219.8301 144.4123 218.3771 144.7476 218.3771 145.6418 218.1536 146.2007 217.8183 146.4242 217.4829 146.536 217.1476 146.536 216.5888 146.536 216.2535 146.536 216.0299 146.9831 215.8064 147.0948 215.8064 147.4301 215.4711 147.5419 215.3593 148.8832 214.2416 149.5538 213.2356 150.1127 213.3474 150.448 213.571 151.3421 213.571 151.901 213.2356 152.4598 212.0062 152.6834 211.3355 152.9069 211.0002 153.2422 209.8825 153.354 208.0942 153.6893 207.9824 154.0246 207.7589 154.0246 207.3118 153.6893 206.6411 153.8011 206.0823 153.8011 205.747 153.6893 205.4117 153.5776 205.1881 153.9129 204.741 154.1364 204.5175 154.1364 203.7351 153.8011 203.288 154.0246 202.8409 153.8011 202.2821 153.0187 201.6114 152.4598 201.4997 151.7892 201.1644 151.3421 200.6055 151.1186 200.2702 150.448 200.0466 149.7773 199.7113 149.3303 199.0407 148.9949 198.8172 148.6596 198.4818 148.1008 198.3701 147.4301 198.2583 147.2066 198.2583Z" />
  <path class="Potaro-Siparuni" d="M427.6405 546.0902L426.1875 551.3435 414.4515 571.7976 412.1043 580.9628 406.5157 595.9402 406.0686 598.8462 399.6977 596.1637 395.4504 594.3754 393.3267 593.8165 392.209 593.7047 391.0913 593.7047 388.9677 594.04 387.8499 594.2636 384.385 595.8284 381.479 597.6167 379.5789 599.2933 377.4552 601.6405 374.6609 606.3349 373.9903 607.3408 355.5481 623.6594 352.9773 626.9008 349.2889 630.8128 347.0535 632.4893 346.1593 633.0482 345.6004 633.2717 344.0356 633.4953 339.453 633.3835 337.5529 632.8246 336.547 632.154 335.4293 631.1481 326.0405 619.0768 325.2581 617.512 324.6992 616.1707 324.0286 612.5941 322.6873 609.4645 322.2403 608.9056 321.5696 608.235 320.5637 607.8997 319.7813 607.7879 318.8871 607.7879 317.993 608.0114 316.987 608.3468 310.8396 611.3646 309.8337 611.6999 308.8277 611.9234 307.9336 612.0352 305.0275 611.5881 303.1274 611.4763 294.9681 612.8176 276.4141 612.147 274.4022 611.6999 272.3903 610.9175 267.8077 608.7938 266.8018 608.0114 265.7958 607.1173 264.7899 605.8878 264.3428 604.5465 264.231 603.3171 265.0134 601.5287 265.684 600.2992 267.3606 598.2873 267.9195 597.1696 268.0312 595.8284 266.9135 590.0163 266.8018 584.0924 267.2488 581.5217 268.0312 579.5098 268.8136 578.6156 269.4843 577.6097 269.4843 575.9331 268.9254 573.6977 266.9135 569.0033 266.2429 566.7679 265.237 564.4207 262.2191 563.4147 259.3131 564.1971 258.1954 564.6442 257.1894 565.2031 256.0717 566.0972 254.954 567.1032 253.501 568.7798 252.6068 570.0092 248.2477 578.9509 247.5771 579.9569 246.6829 580.851 245.677 581.6334 244.3358 582.1923 241.5415 582.5276 236.5118 582.0805 234.8352 582.3041 234.947 580.9628 234.3881 580.5157 232.8233 580.2922 231.2585 579.8451 230.029 578.7274 229.0231 577.3861 227.9054 576.2684 219.8579 571.6858 218.0695 569.3386 216.9518 570.5681 215.8341 570.9034 212.8163 570.121 212.2574 570.0092 210.6926 570.0092 210.1338 569.7857 209.5749 569.0033 209.9102 567.215 209.3514 566.7679 207.563 566.6561 204.9923 567.9974 203.651 568.1091 202.9804 567.4385 200.9685 564.8678 199.7391 564.0854 198.3978 563.7501 196.833 563.7501 195.38 564.0854 194.8211 565.2031 194.0387 566.0972 192.3622 565.8737 189.1208 564.756 186.4383 565.2031 184.3146 565.7619 182.8616 565.4266 182.0792 562.8559 181.4086 561.8499 179.8438 561.0675 178.3908 561.0675 177.7201 562.0735 177.3848 563.7501 176.6024 564.3089 175.3729 564.3089 173.6964 563.9736 171.5727 562.8559 170.0079 560.7322 169.3373 558.2733 169.7844 555.5908 173.4728 551.6788 174.5905 551.567 177.3848 551.4552 178.6143 551.0081 179.9556 549.7787 180.4026 548.5492 180.5144 547.0961 180.8497 545.5314 181.5204 543.9666 185.4323 538.1545 186.6618 535.919 187.4442 533.5718 187.7795 531.0011 187.2207 524.9655 189.1208 518.818 189.4561 510.547 190.462 506.5232 191.468 504.0642 191.9151 501.4935 192.0268 496.1285 194.4858 487.8574 194.2623 483.9454 190.462 481.9336 184.4264 478.4686 181.5204 476.345 179.732 474.3331 180.9615 473.4389 183.644 470.5329 190.1267 465.5032 192.0268 463.7149 193.1446 462.2618 193.7034 460.3617 196.1624 455.1085 197.5036 450.9729 199.0684 447.8433 200.2979 446.1668 201.6392 444.9373 203.204 444.1549 212.1457 441.3606 213.0398 441.1371 214.0458 441.1371 220.0814 441.4724 224.4405 440.8018 226.5641 440.69 238.9707 443.2607 241.2062 443.2607 249.0301 442.5901 250.4832 439.9076 249.4772 428.5069 248.4713 423.3655 248.4713 421.8007 248.9184 420.5712 249.589 419.677 253.501 415.9886 259.4249 412.0766 260.2073 411.6295 260.7661 411.5177 261.5485 411.5177 271.8315 414.6473 273.9551 414.9826 275.967 415.0944 276.8612 415.0944 278.2024 414.7591 279.6554 414.312 282.0026 412.9707 283.2321 411.853 283.9028 410.8471 285.8029 407.4939 288.3736 404.2526 289.9384 402.576 291.2796 401.3465 296.3094 398.5523 297.3153 398.2169 298.6565 397.9934 299.7743 398.1052 300.7802 398.5523 301.7861 399.4464 302.6803 400.3406 305.6981 404.2526 308.2689 406.8233 308.9395 407.7175 310.8396 411.6295 311.622 412.6354 312.5162 413.6414 314.3045 415.3179 314.9751 416.1003 315.1987 417.1063 314.9751 422.3595 315.0869 423.3655 315.6458 424.2596 316.6517 425.042 318.5518 425.3773 319.8931 425.3773 321.0108 424.9303 326.0405 422.8066 327.3817 422.6948 328.4994 423.0301 329.1701 423.589 332.7468 428.3952 333.7527 429.1776 334.7586 429.7364 335.7646 429.96 341.912 430.407 343.365 430.6306 344.4827 430.9659 345.4887 431.413 346.2711 432.0836 347.0535 432.9778 350.5184 438.5663 348.5065 439.4605 347.5006 442.2548 346.2711 444.4902 345.824 445.8315 345.7122 447.3963 345.7122 448.6257 345.6004 449.7435 344.9298 450.7494 351.4125 460.4735 352.9773 462.0383 353.7597 464.1619 353.648 474.1096 350.2948 494.0048 350.6301 499.7052 353.9833 508.4233 357.4482 527.9833 359.2365 530.3305 365.4957 528.5421 367.5076 530.6658 369.5195 536.4779 372.7608 541.0605 374.7727 542.1782 375.4433 542.4018 381.2554 544.3019 382.7085 545.0843 383.7144 545.7549 385.7263 546.9844 388.5206 547.8785 394.8915 548.9963 415.5692 548.7727 425.6286 546.4255 427.6405 546.0902Z" />
  <path class="Upper Demerara-Berbice" d="M406.0686 598.8462L408.0805 602.7582 416.3516 614.2706 421.9402 633.3835 422.0519 634.613 421.9402 636.5131 420.9342 640.4251 420.9342 642.2134 421.2695 644.5606 425.5168 662.3322 426.6345 665.2383 427.6405 667.4737 440.4942 686.4748 444.8532 695.4165 445.6356 697.4284 445.971 700.558 445.971 703.6876 450.6653 722.018 450.6653 724.5888 449.9947 730.848 450.33 734.6482 451.1124 738.5602 452.6772 742.8075 467.0957 763.4851 475.7021 783.9393 476.1492 786.6218 475.7021 787.6277 464.9721 802.158 462.7366 806.1817 462.5131 807.2994 462.1778 809.1996 462.1778 811.2114 463.6308 828.8713 463.6308 833.0068 463.2955 835.8011 462.7366 838.3718 461.0601 843.0662 451.5595 861.3967 429.7641 922.4238 424.7344 931.9243 419.0341 940.5307 412.1043 956.7375 410.5395 958.9729 404.6156 965.0086 399.8095 971.9384 398.6917 975.068 397.4623 983.1155 397.574 983.2273 395.8975 985.3509 396.7916 988.1452 399.4741 993.5102 400.2565 996.4163 400.3683 999.7694 399.4741 1002.1166 395.2268 1008.8229 394.1091 1008.9347 392.9914 1008.264 391.8737 1007.9287 391.8737 1007.5934 391.4266 1007.0345 390.6442 1006.4757 389.9736 1006.1404 389.4147 1006.3639 387.6264 1007.7052 386.7322 1008.1523 372.7608 1006.811 370.6372 1006.9228 369.0724 1008.1523 365.2722 1013.629 363.1485 1016.088 360.466 1017.8763 357.2246 1019.2176 354.4304 1019.8882 351.9714 1020 349.5124 1019.6647 346.7182 1018.4352 343.1415 1015.6409 342.0238 1012.8466 341.2414 1009.8288 339.1177 1006.5875 336.547 1004.4638 333.7527 1003.0108 332.9703 1002.6755 327.6053 1000.5518 304.804 996.5281 295.974 993.7338 293.5151 992.3925 291.8385 990.0453 288.8207 983.4508 287.703 981.9978 285.244 980.5448 284.5734 978.1976 284.3498 975.6268 282.6733 973.5032 281.4438 973.3914 278.6495 974.1738 276.9729 973.7267 276.5259 973.0561 275.5199 970.9325 275.0728 970.1501 274.2904 969.8147 272.6139 969.5912 271.9432 969.3677 270.7138 967.9146 268.0312 963.1085 266.8018 961.6554 262.4427 958.1905 260.2073 955.2845 256.2953 949.0253 253.501 946.6781 250.5949 945.7839 248.136 946.0075 245.7888 946.6781 242.9945 946.9017 241.4297 946.4546 239.9767 945.7839 238.7472 944.778 235.7294 941.5366 235.5058 940.4189 237.7413 937.5129 240.6473 931.9243 240.4238 930.2477 240.0884 930.0242 239.1943 930.2477 237.5177 929.9124 232.3762 927.9006 230.6997 927.7888 228.0172 928.7947 226.3406 928.6829 224.9993 927.2299 224.4405 924.4356 224.2169 921.4178 224.2169 919.1824 224.7758 917.6176 226.4524 914.9351 227.123 913.4821 227.2348 912.2526 226.8994 908.6759 227.123 907.4464 227.9054 905.211 228.0172 904.0933 227.5701 902.6403 226.0053 899.7342 225.8935 897.9459 226.2288 896.4928 227.7936 894.0339 228.2407 892.6926 228.2407 891.2396 226.8994 887.2158 226.7877 882.0744 227.5701 876.7094 227.3465 872.015 224.4405 868.7736 223.211 868.4383 220.5285 868.3265 219.1872 868.103 217.5107 867.2088 213.2634 863.6321 207.8983 860.7261 205.2158 858.9377 203.8746 856.2552 204.0981 855.0257 205.4394 852.6785 205.4394 851.2255 205.1041 849.7725 204.9923 846.7547 204.7688 845.3017 200.745 836.36 200.2979 833.6774 200.2979 832.0009 200.0744 830.9949 198.9567 828.6477 198.3978 828.0889 196.6095 827.4183 195.9388 826.8594 196.0506 826.4123 196.7212 824.7358 196.7212 824.0651 192.4739 815.5705 191.9151 812.9998 192.8092 790.5338 195.6035 779.2449 196.0506 776.3388 195.4917 768.5149 196.1624 765.0499 197.5036 761.8086 201.1921 755.7729 201.8627 755.2141 202.8686 754.8788 203.651 754.4317 204.0981 753.5375 203.8746 752.5316 202.8686 751.0785 202.7569 750.2961 203.0922 749.8491 204.8805 749.6255 205.2158 749.0667 204.8805 748.1725 203.7628 746.943 203.3157 746.0488 203.4275 744.2605 204.0981 743.1428 205.1041 742.2486 205.9982 741.0191 207.8983 734.8717 208.4572 733.4187 212.0339 727.6066 213.4869 722.9122 213.934 722.8004 214.7164 722.8004 215.7223 722.5769 216.393 721.9063 216.5047 720.9003 215.7223 719.112 215.4988 718.2178 216.0576 711.6233 213.7105 712.4057 214.0458 710.0585 216.5047 704.3582 215.387 700.7815 212.8163 697.9872 210.6926 694.9694 210.8044 690.9457 214.2693 687.1454 225.4464 683.2334 230.6997 678.3155 233.8293 676.9743 235.0587 675.9683 235.8411 674.4035 235.9529 673.2858 235.7294 672.0563 235.8411 670.3798 236.9589 666.9149 238.7472 665.2383 244.3358 662.6675 247.0183 660.5439 247.4653 658.6438 246.9065 656.4084 246.4594 653.2788 247.3536 650.4845 249.3655 647.2431 251.9362 644.6724 254.3952 643.6664 255.8482 643.4429 256.5188 642.7723 256.7424 641.7663 256.5188 640.3133 255.5129 639.1956 253.8363 638.6367 249.4772 637.9661 248.2477 637.9661 247.3536 637.4073 247.4653 633.9424 246.9065 633.0482 246.0123 632.3776 244.1122 628.9127 239.4178 624.5536 238.1883 622.4299 238.6354 619.1886 240.0884 616.9531 240.5355 614.9413 237.6295 612.7058 231.7056 610.8057 229.4702 609.1292 227.7936 605.5525 227.5701 603.9877 227.5701 602.87 227.9054 600.411 228.2407 599.6286 229.4702 597.952 229.8055 597.0579 229.4702 596.1637 228.1289 594.5989 227.7936 593.9283 229.2466 591.3575 233.941 586.5514 234.8352 583.31 234.8352 582.3041 236.5118 582.0805 241.5415 582.5276 244.3358 582.1923 245.677 581.6334 246.6829 580.851 247.5771 579.9569 248.2477 578.9509 252.6068 570.0092 253.501 568.7798 254.954 567.1032 256.0717 566.0972 257.1894 565.2031 258.1954 564.6442 259.3131 564.1971 262.2191 563.4147 265.237 564.4207 266.2429 566.7679 266.9135 569.0033 268.9254 573.6977 269.4843 575.9331 269.4843 577.6097 268.8136 578.6156 268.0312 579.5098 267.2488 581.5217 266.8018 584.0924 266.9135 590.0163 268.0312 595.8284 267.9195 597.1696 267.3606 598.2873 265.684 600.2992 265.0134 601.5287 264.231 603.3171 264.3428 604.5465 264.7899 605.8878 265.7958 607.1173 266.8018 608.0114 267.8077 608.7938 272.3903 610.9175 274.4022 611.6999 276.4141 612.147 294.9681 612.8176 303.1274 611.4763 305.0275 611.5881 307.9336 612.0352 308.8277 611.9234 309.8337 611.6999 310.8396 611.3646 316.987 608.3468 317.993 608.0114 318.8871 607.7879 319.7813 607.7879 320.5637 607.8997 321.5696 608.235 322.2403 608.9056 322.6873 609.4645 324.0286 612.5941 324.6992 616.1707 325.2581 617.512 326.0405 619.0768 335.4293 631.1481 336.547 632.154 337.5529 632.8246 339.453 633.3835 344.0356 633.4953 345.6004 633.2717 346.1593 633.0482 347.0535 632.4893 349.2889 630.8128 352.9773 626.9008 355.5481 623.6594 373.9903 607.3408 374.6609 606.3349 377.4552 601.6405 379.5789 599.2933 381.479 597.6167 384.385 595.8284 387.8499 594.2636 388.9677 594.04 391.0913 593.7047 392.209 593.7047 393.3267 593.8165 395.4504 594.3754 399.6977 596.1637 406.0686 598.8462Z" />
  <path class="Upper Takutu-Upper Essequibo" d="M509.9041 375.0803L514.1514 384.2455 516.275 386.7045 518.1751 387.0398 520.2988 389.0517 520.4106 390.2812 520.5223 391.5107 520.187 392.6284 517.7281 398.8876 510.3512 429.6246 509.2334 442.8136 508.6746 445.8315 507.7804 447.8433 503.4213 452.5377 501.2977 456.338 497.9446 464.9443 493.4737 470.8682 490.6794 476.0097 483.9732 493.6695 470.4488 508.7586 466.9839 513.5648 464.8603 519.2651 462.7366 527.8715 457.3716 543.4077 454.9127 544.749 450.6653 545.6431 427.6405 546.0902 425.6286 546.4255 415.5692 548.7727 394.8915 548.9963 388.5206 547.8785 385.7263 546.9844 383.7144 545.7549 382.7085 545.0843 381.2554 544.3019 375.4433 542.4018 374.7727 542.1782 372.7608 541.0605 369.5195 536.4779 367.5076 530.6658 365.4957 528.5421 359.2365 530.3305 357.4482 527.9833 353.9833 508.4233 350.6301 499.7052 350.2948 494.0048 353.648 474.1096 353.7597 464.1619 352.9773 462.0383 351.4125 460.4735 344.9298 450.7494 345.6004 449.7435 345.7122 448.6257 345.7122 447.3963 345.824 445.8315 346.2711 444.4902 347.5006 442.2548 348.5065 439.4605 350.5184 438.5663 356.1069 438.3428 368.0664 436.4427 371.3078 435.4367 373.655 432.9778 376.7846 426.9421 379.3553 421.2418 380.9201 415.6532 381.7025 409.8411 381.5908 400.3406 382.4849 391.5107 381.9261 382.7925 382.4849 379.6629 385.9498 372.3978 387.7382 369.8271 388.1853 366.4739 388.1853 355.185 387.7382 353.732 386.2851 350.3789 386.1734 347.5846 388.1853 329.1424 387.7382 327.8011 386.9558 326.5716 386.3969 325.4539 386.7322 324.448 387.4029 323.442 387.8499 322.2125 388.0735 320.9831 388.1853 319.7536 387.7382 317.2946 384.385 310.7001 384.0497 308.0176 384.0497 301.8702 383.8262 300.4172 385.391 300.3054 384.385 299.4112 386.6205 293.9344 386.6205 293.7109 389.6383 295.611 397.3505 307.5705 399.0271 309.4706 400.4801 310.8119 406.0686 314.3886 411.3219 320.3124 412.9985 323.5538 413.7809 325.901 414.1162 327.2422 414.2279 328.4717 414.2279 329.3659 414.3397 330.2601 416.6869 337.9723 416.6869 338.7547 416.4634 339.9842 416.9105 340.3195 417.6928 340.4312 423.7285 340.7666 425.2933 341.2136 426.2992 341.6607 428.7582 343.2255 432.3349 344.9021 433.1173 344.7903 434.1232 344.6785 436.5822 343.4491 441.7237 341.996 446.3063 346.1316 447.2004 346.5787 449.2123 346.914 450.7771 351.3848 450.7771 353.732 449.1006 359.3206 450.6653 361.7795 452.5655 362.6737 461.9542 365.8033 466.2015 366.5857 467.3193 366.6975 473.1314 367.5916 473.802 368.5976 474.6961 370.833 476.2609 372.286 478.8317 375.8627 479.7259 376.4216 480.9553 376.5333 482.1848 376.4216 484.1967 376.5333 485.4262 377.3157 487.8851 379.7747 488.8911 379.9982 489.897 379.6629 490.6794 378.8805 491.4618 377.9864 492.5795 377.3157 494.2561 376.8686 500.4035 377.204 501.4095 376.9804 504.6508 375.7509 505.545 375.5274 508.3393 375.6392 509.9041 375.0803Z" />
</svg>