<?xml version="1.0" encoding="utf-8"?>
<svg xmlns="http://www.w3.org/2000/svg" viewBox="0 0 773 1024" style="stroke-width:0.25px;stroke-linejoin:round;stroke:#444;fill:#ddd" fill-rule="evenodd">
  <path class="Hhohho" d="M555.7864 128.4013L551.7626 134.2134 548.7448 135.5547 544.9446 136.6724 541.4796 136.6724 538.3501 137.5666 532.0909 140.1373 528.5142 140.9197 524.9375 140.9197 521.4726 140.2491 512.6427 136.6724 510.8543 142.1492 517.0018 247.9965 515.437 263.7562 511.3014 270.0154 492.4121 278.1747 480.5644 280.2983 457.6513 280.6337 453.7393 281.0807 449.3802 282.422 444.574 286.1105 441.8915 289.24 438.8737 296.7287 437.4207 298.9641 435.6323 301.3113 430.3791 304.9998 421.2139 309.4706 418.6431 311.3707 417.3019 314.2768 415.5135 325.0068 414.6194 327.8011 413.5017 329.5894 412.0486 331.266 408.0249 333.6132 374.4935 345.6845 368.3461 349.0376 364.993 351.4966 361.1927 352.9496 355.9395 353.5085 335.8207 350.826 333.3617 351.3848 331.4616 353.6202 330.2321 355.5204 329.1144 358.3146 328.1085 359.4323 325.873 360.7736 320.0609 363.3443 302.8482 368.5976 297.2596 371.2801 293.5712 373.9626 291.224 376.8686 289.771 379.5512 289.5474 382.9043 291.0004 391.2871 291.3358 396.3168 290.6651 400.0053 288.765 403.3584 282.0587 409.8411 280.2704 413.1943 280.1586 416.5474 281.1646 420.6829 281.8352 425.8244 281.1646 431.6365 279.7116 437.4486 279.0409 443.4843 280.3822 454.2143 280.6057 458.9087 279.1527 461.8147 276.2466 464.0502 271.5523 465.5032 265.1813 465.1679 258.2515 463.156 246.1802 454.3261 241.5976 450.0788 238.5798 446.5021 236.5679 445.6079 233.2147 444.9373 225.8378 444.602 220.8081 445.0491 217.2315 446.055 212.4253 448.2904 206.5014 448.0669 180.4587 442.0312 177.3292 441.6959 173.8642 440.0194 171.1817 437.3369 166.8227 430.6306 162.0165 421.13 160.4517 418.6711 158.7751 416.771 74.0526 362.6737 67.011 359.6559 108.7017 306.6763 147.8216 236.8194 178.7822 162.268 187.5003 128.5131 194.989 115.2123 245.9567 69.4979 303.9659 17.6361 320.1727 9.4768 340.068 4.2235 356.9454 4 371.5875 8.8062 432.6145 48.3732 493.5298 87.9402 546.2858 122.3657 555.7864 128.4013Z" />
  <path class="Lubombo" d="M669.2341 920.4119L669.0106 920.4119 652.3567 919.5177 649.8977 918.9589 648.1094 917.6176 648.3329 913.9292 649.0035 910.576 648.78 907.7817 647.327 906.2169 642.6326 905.3228 632.5732 904.8757 627.8788 903.9815 624.0785 902.5285 622.7373 899.0636 622.402 896.1575 622.9608 884.9804 622.1784 882.9685 620.2783 881.4037 602.0596 874.1386 596.3593 872.5738 591.1061 871.9032 586.6352 870.8972 583.5056 868.2147 572.9991 842.6191 569.4224 838.5954 563.9457 836.5835 559.1395 836.807 542.3738 841.2779 536.897 841.725 531.1967 841.1661 525.9435 839.3778 520.6902 836.9188 494.8711 821.0473 480.6761 810.2055 470.6167 798.9166 465.1399 794.2222 460.4455 791.3162 456.8689 790.422 452.7333 788.969 449.8273 789.8631 446.5859 791.9868 443.2328 792.7692 439.9914 791.5397 435.9677 787.963 428.3672 779.692 425.2376 775.2211 413.2781 753.4257 411.7133 748.9549 413.5017 743.2546 415.5135 739.119 422.8904 727.3831 426.5789 718.8884 436.9736 706.0348 439.7679 701.1168 441.1091 695.9754 439.7679 688.3749 439.8796 683.5688 440.8856 678.9861 445.4682 670.1562 447.2565 665.9089 444.2387 663.0029 440.215 660.8792 406.9072 662.1087 407.466 649.255 411.1545 634.1659 424.567 600.8581 426.5789 597.6167 428.9261 595.046 431.2733 593.2576 464.8046 577.3861 468.9402 573.6977 471.2873 568.2209 469.9461 544.9725 466.7047 525.3008 464.3575 518.7063 459.4396 510.2117 458.8807 506.635 461.7868 504.0642 467.04 502.1641 471.958 499.4816 475.6464 496.4638 475.9817 491.2106 475.6464 487.7457 473.8581 480.8158 473.6345 477.1274 474.3052 472.2095 477.2112 465.9503 477.9936 450.8612 477.2112 445.6079 474.7523 437.3369 474.6405 434.6543 475.87 432.7542 483.3586 428.3952 486.8235 425.8244 488.6119 423.0301 488.7237 417.5534 489.6178 413.0825 493.5298 408.1646 504.5952 398.4405 510.1837 392.1813 515.5487 384.8044 519.2372 375.1921 521.3608 365.1327 522.7021 349.0376 527.3965 332.3837 524.8257 327.0187 523.9316 323.6656 524.6022 319.6418 523.1492 307.4587 511.3014 270.0154 515.437 263.7562 517.0018 247.9965 510.8543 142.1492 512.6427 136.6724 521.4726 140.2491 524.9375 140.9197 528.5142 140.9197 532.0909 140.1373 538.3501 137.5666 541.4796 136.6724 544.9446 136.6724 548.7448 135.5547 551.7626 134.2134 555.7864 128.4013 606.1952 161.262 622.7373 166.2917 639.1677 162.3798 672.1402 145.9494 687.1175 160.2561 703.6596 169.086 741.8854 179.0337 734.3967 199.1525 737.4145 222.1773 744.2326 245.8728 748.1446 268.0035 746.1327 285.1045 727.0198 335.8486 724.2255 354.5144 731.3789 420.6829 735.738 438.6781 762.8983 493.6695 768.8222 546.3138 766.8103 712.2939 757.5333 708.1584 743.4502 693.8517 734.1732 692.0634 695.6121 691.8398 696.8416 711.1762 687.1175 768.1795 678.1758 821.2708 668.0046 880.6213 669.2341 920.4119Z" />
  <path class="Manzini" d="M511.3014 270.0154L523.1492 307.4587 524.6022 319.6418 523.9316 323.6656 524.8257 327.0187 527.3965 332.3837 522.7021 349.0376 521.3608 365.1327 519.2372 375.1921 515.5487 384.8044 510.1837 392.1813 504.5952 398.4405 493.5298 408.1646 489.6178 413.0825 488.7237 417.5534 488.6119 423.0301 486.8235 425.8244 483.3586 428.3952 475.87 432.7542 474.6405 434.6543 474.7523 437.3369 477.2112 445.6079 477.9936 450.8612 477.2112 465.9503 474.3052 472.2095 473.6345 477.1274 473.8581 480.8158 475.6464 487.7457 475.9817 491.2106 475.6464 496.4638 471.958 499.4816 467.04 502.1641 461.7868 504.0642 458.8807 506.635 459.4396 510.2117 464.3575 518.7063 466.7047 525.3008 469.9461 544.9725 471.2873 568.2209 468.9402 573.6977 464.8046 577.3861 431.2733 593.2576 428.9261 595.046 426.5789 597.6167 424.567 600.8581 411.1545 634.1659 407.466 649.255 406.9072 662.1087 383.7705 658.0849 371.9228 660.4321 362.7575 666.4678 358.7338 669.7091 355.3806 673.7329 350.5745 678.3155 345.2095 680.4392 318.2726 683.1217 314.3606 684.7982 312.237 686.5866 311.7899 689.2691 310.5604 691.9516 308.5485 694.8576 303.0717 699.105 300.9481 701.8992 299.495 704.6935 299.048 707.5996 298.4891 716.4295 296.7008 716.9883 292.9006 715.9824 266.7461 696.3107 260.7105 692.734 254.116 691.5045 248.5274 693.4046 243.3859 695.9754 238.5798 697.0931 231.9853 697.0931 224.3848 699.3285 193.6477 715.8706 167.9404 736.213 165.4814 736.6601 164.5872 734.9835 164.8108 731.8539 165.4814 728.389 167.6051 722.3534 168.1639 719.8944 167.7168 717.4354 159.6693 706.8172 157.9927 703.6876 157.7692 701.2286 158.7751 698.099 159.6693 693.7399 159.6693 688.3749 158.9987 678.9861 157.9927 675.4095 156.2044 672.3916 151.2865 667.2502 145.9215 665.9089 140.6682 665.9089 120.6612 670.4915 107.4722 671.0504 100.9894 668.1443 94.6185 662.6675 92.1595 660.991 90.7065 660.991 90.0359 662.3322 87.4651 663.5617 68.2405 668.4796 60.0812 677.3096 57.1751 668.5914 50.5806 676.8625 41.7507 684.3512 31.9149 689.8279 22.4143 691.7281 12.3549 692.2869 8.4429 677.1978 2.7426 633.0482 1.8484 544.1901 1.1778 475.6744 13.5844 427.6128 67.011 359.6559 74.0526 362.6737 158.7751 416.771 160.4517 418.6711 162.0165 421.13 166.8227 430.6306 171.1817 437.3369 173.8642 440.0194 177.3292 441.6959 180.4587 442.0312 206.5014 448.0669 212.4253 448.2904 217.2315 446.055 220.8081 445.0491 225.8378 444.602 233.2147 444.9373 236.5679 445.6079 238.5798 446.5021 241.5976 450.0788 246.1802 454.3261 258.2515 463.156 265.1813 465.1679 271.5523 465.5032 276.2466 464.0502 279.1527 461.8147 280.6057 458.9087 280.3822 454.2143 279.0409 443.4843 279.7116 437.4486 281.1646 431.6365 281.8352 425.8244 281.1646 420.6829 280.1586 416.5474 280.2704 413.1943 282.0587 409.8411 288.765 403.3584 290.6651 400.0053 291.3358 396.3168 291.0004 391.2871 289.5474 382.9043 289.771 379.5512 291.224 376.8686 293.5712 373.9626 297.2596 371.2801 302.8482 368.5976 320.0609 363.3443 325.873 360.7736 328.1085 359.4323 329.1144 358.3146 330.2321 355.5204 331.4616 353.6202 333.3617 351.3848 335.8207 350.826 355.9395 353.5085 361.1927 352.9496 364.993 351.4966 368.3461 349.0376 374.4935 345.6845 408.0249 333.6132 412.0486 331.266 413.5017 329.5894 414.6194 327.8011 415.5135 325.0068 417.3019 314.2768 418.6431 311.3707 421.2139 309.4706 430.3791 304.9998 435.6323 301.3113 437.4207 298.9641 438.8737 296.7287 441.8915 289.24 444.574 286.1105 449.3802 282.422 453.7393 281.0807 457.6513 280.6337 480.5644 280.2983 492.4121 278.1747 511.3014 270.0154Z" />
  <path class="Shiselweni" d="M406.9072 662.1087L440.215 660.8792 444.2387 663.0029 447.2565 665.9089 445.4682 670.1562 440.8856 678.9861 439.8796 683.5688 439.7679 688.3749 441.1091 695.9754 439.7679 701.1168 436.9736 706.0348 426.5789 718.8884 422.8904 727.3831 415.5135 739.119 413.5017 743.2546 411.7133 748.9549 413.2781 753.4257 425.2376 775.2211 428.3672 779.692 435.9677 787.963 439.9914 791.5397 443.2328 792.7692 446.5859 791.9868 449.8273 789.8631 452.7333 788.969 456.8689 790.422 460.4455 791.3162 465.1399 794.2222 470.6167 798.9166 480.6761 810.2055 494.8711 821.0473 520.6902 836.9188 525.9435 839.3778 531.1967 841.1661 536.897 841.725 542.3738 841.2779 559.1395 836.807 563.9457 836.5835 569.4224 838.5954 572.9991 842.6191 583.5056 868.2147 586.6352 870.8972 591.1061 871.9032 596.3593 872.5738 602.0596 874.1386 620.2783 881.4037 622.1784 882.9685 622.9608 884.9804 622.402 896.1575 622.7373 899.0636 624.0785 902.5285 627.8788 903.9815 632.5732 904.8757 642.6326 905.3228 647.327 906.2169 648.78 907.7817 649.0035 910.576 648.3329 913.9292 648.1094 917.6176 649.8977 918.9589 652.3567 919.5177 669.0106 920.4119 669.2341 920.4119 669.5694 932.8185 671.0224 980.7683 674.2638 990.1571 678.1758 997.1987 681.0818 1004.1285 682.7584 1011.5054 683.0937 1020 631.4554 1019.3294 576.2405 1018.547 492.4121 1017.4293 428.9261 1016.5351 390.365 1008.7111 331.2381 988.257 287.2002 972.9443 266.8579 965.9028 216.3373 948.4664 207.7309 942.5426 198.7892 933.6009 171.2935 891.9102 112.2783 838.1483 99.4246 815.7941 96.9657 799.699 102.8895 774.327 103.5602 758.2319 100.207 745.49 94.0596 735.9894 77.6293 718.4414 70.0288 706.7054 60.0812 677.3096 68.2405 668.4796 87.4651 663.5617 90.0359 662.3322 90.7065 660.991 92.1595 660.991 94.6185 662.6675 100.9894 668.1443 107.4722 671.0504 120.6612 670.4915 140.6682 665.9089 145.9215 665.9089 151.2865 667.2502 156.2044 672.3916 157.9927 675.4095 158.9987 678.9861 159.6693 688.3749 159.6693 693.7399 158.7751 698.099 157.7692 701.2286 157.9927 703.6876 159.6693 706.8172 167.7168 717.4354 168.1639 719.8944 167.6051 722.3534 165.4814 728.389 164.8108 731.8539 164.5872 734.9835 165.4814 736.6601 167.9404 736.213 193.6477 715.8706 224.3848 699.3285 231.9853 697.0931 238.5798 697.0931 243.3859 695.9754 248.5274 693.4046 254.116 691.5045 260.7105 692.734 266.7461 696.3107 292.9006 715.9824 296.7008 716.9883 298.4891 716.4295 299.048 707.5996 299.495 704.6935 300.9481 701.8992 303.0717 699.105 308.5485 694.8576 310.5604 691.9516 311.7899 689.2691 312.237 686.5866 314.3606 684.7982 318.2726 683.1217 345.2095 680.4392 350.5745 678.3155 355.3806 673.7329 358.7338 669.7091 362.7575 666.4678 371.9228 660.4321 383.7705 658.0849 406.9072 662.1087Z" />
</svg>