<?xml version="1.0" encoding="utf-8"?>
<svg xmlns="http://www.w3.org/2000/svg" viewBox="0 0 151 1024" style="stroke-width:0.25px;stroke-linejoin:round;stroke:#444;fill:#ddd" fill-rule="evenodd">
  <path class="Northern Islands" d="M122.7322 668.2561L123.9617 670.4915 122.9558 671.721 120.8321 672.2799 116.6966 672.6152 114.6847 672.5034 112.8964 671.8328 111.3316 670.4915 110.5492 668.7032 110.6609 667.2502 111.8904 666.2442 114.4612 666.0207 116.3613 666.6913 120.9439 667.2502 122.7322 668.2561ZM132.0092 383.4631L138.1567 383.6867 140.0568 384.6926 141.6216 386.1457 142.1804 388.2693 141.7333 390.84 140.2803 392.2931 138.492 393.299 136.5919 394.6403 129.9974 401.4583 127.8737 402.7996 124.1853 402.576 123.2911 398.8876 127.2031 396.7639 128.9914 393.1872 129.8856 385.5868 132.0092 383.4631ZM115.5789 296.3934L111.5551 292.705 111.108 286.4458 113.7905 282.9809 119.4909 283.2044 121.6145 285.6634 122.5087 287.5635 122.7322 289.6871 122.7322 292.5932 122.0616 294.3815 120.385 295.8345 118.0378 296.6169 115.5789 296.3934ZM134.6917 619.8592L131.6739 616.8414 134.2447 616.059 137.0389 617.1767 134.6917 619.8592ZM144.6394 523.9595L141.7333 520.8299 144.0805 520.1593 146.6513 521.3888 144.6394 523.9595ZM144.5276 479.5864L141.1745 477.9098 140.3921 475.4508 141.5098 473.4389 143.9688 473.3272 145.8689 474.5567 146.763 476.4568 146.4277 478.3569 144.5276 479.5864ZM77.0178 148.5201L74.8942 147.2906 73.4411 145.2788 73.4411 143.4904 75.7883 142.708 77.6884 143.4904 78.4708 145.0552 78.2473 146.9553 77.0178 148.5201ZM53.7694 91.4051L52.0928 90.8462 50.7516 89.7285 50.081 88.2755 50.5281 86.4871 51.9811 84.9223 52.6517 85.7047 52.8752 87.2695 52.987 88.1637 53.993 87.9402 55.3342 87.4931 56.5637 87.1578 57.0108 87.8284 56.7872 89.1696 56.0048 90.1756 54.8871 90.958 53.7694 91.4051ZM3.3606 10.1474L1.7958 8.5826 1.237 6.459 2.0194 4.5589 3.9195 4 5.7078 4.8942 5.8196 6.7943 4.8136 8.8062 3.3606 10.1474Z" />
  <path class="Rota" d="M46.9514 1009.0464L53.993 1006.1404 58.1285 1005.8051 59.6933 1009.0464 59.2462 1010.9465 58.4638 1012.2878 57.1226 1013.0702 55.2224 1013.2937 53.5459 1013.9644 52.5399 1015.4174 51.6458 1017.2057 50.4163 1018.6587 47.622 1020 46.0572 1019.5529 44.4924 1018.3234 41.8099 1017.6528 37.4508 1018.2117 34.9919 1018.0999 33.9859 1017.0939 35.6625 1014.4114 39.6862 1011.8407 44.0453 1009.8288 46.9514 1009.0464Z" />
  <path class="Saipan" d="M134.4682 840.1602L136.4801 839.4895 138.8273 839.7131 139.945 840.9426 138.1567 842.8427 136.3683 843.9604 135.2506 845.637 132.6799 852.3432 132.7916 853.6845 134.0211 855.5846 133.3505 857.0376 132.3446 857.82 131.2268 857.7083 129.8856 856.8141 128.0972 858.4906 127.0913 860.6143 127.2031 862.738 128.3208 864.8616 129.215 866.8735 127.0913 866.8735 124.5206 865.8675 123.7382 865.4205 120.385 866.2029 119.1556 865.8675 118.5967 863.7439 118.8202 861.3967 120.7204 855.5846 120.8321 853.4609 120.7204 851.6726 121.0557 850.2196 122.1734 848.7666 122.9558 848.3195 125.8618 847.09 126.3089 846.4194 126.4207 844.5193 126.756 843.9604 128.5443 842.9545 132.4563 841.725 134.4682 840.1602Z" />
  <path class="Tinian" d="M113.3435 870.6737L114.1259 872.5738 114.0141 874.5857 113.4552 876.7094 113.3435 879.1683 114.0141 880.5096 116.026 882.9685 116.473 884.5333 115.4671 888.5571 113.1199 892.8044 110.1021 895.0398 107.196 893.0279 106.5254 891.0161 105.9666 886.7688 105.0724 884.5333 103.284 882.0744 102.837 880.9567 103.0605 879.1683 104.7371 875.5916 107.9784 871.4561 111.2198 869.1089 113.3435 870.6737Z" />
</svg>