<?xml version="1.0" encoding="utf-8"?>
<svg xmlns="http://www.w3.org/2000/svg" viewBox="0 0 1021 906" style="stroke-width:0.25px;stroke-linejoin:round;stroke:#444;fill:#ddd" fill-rule="evenodd">
  <path class="Attard" d="M605.0114 607.356L607.3586 598.6378 608.9234 587.0136 617.5298 582.2075 633.9602 580.3074 648.9375 587.0136 658.3263 593.8317 667.7151 594.7259 679.451 596.7377 695.8814 595.7318 703.0348 606.3501 712.4235 612.1622 727.2891 615.0682 724.9419 625.6865 718.6827 634.4046 688.8398 636.4165 672.4095 637.3107 663.8031 646.0288 650.5023 648.9349 636.3074 647.0348 623.0066 643.1228 608.141 646.0288 603.4466 630.6044 604.229 619.8744 605.0114 607.356Z" />
  <path class="Balzan" d="M695.8814 595.7318L703.0348 575.3894 718.6827 582.2075 724.9419 591.8198 728.8539 603.444 727.2891 615.0682 712.4235 612.1622 703.0348 606.3501 695.8814 595.7318Z" />
  <path class="Birgu" d="M890.6986 597.7437L904.7817 610.262 916.0706 615.0682 916.9648 639.3226 895.5047 621.1039 879.8568 608.0266 890.6986 597.7437Z" />
  <path class="Birkirkara" d="M760.1498 630.6044L742.9371 628.5925 727.2891 615.0682 728.8539 603.444 724.9419 591.8198 718.6827 582.2075 729.6363 579.3014 739.8075 575.3894 765.5149 582.6546 774.9036 590.4785 777.6979 598.3025 770.5446 606.0147 765.5149 608.9208 763.8383 617.3036 760.1498 630.6044Z" />
  <path class="Birżebbuġa" d="M832.8011 875.048L837.0484 867.4475 840.178 861.6354 834.7012 849.1171 836.266 841.4048 843.3076 841.4048 858.1732 846.211 869.9091 844.3109 872.2563 838.4988 866.7795 822.0684 862.8675 808.5441 873.8211 807.5382 880.0803 799.826 882.4275 791.1078 889.4691 788.2018 902.0992 785.2957 906.0112 775.6834 915.4 775.6834 926.3536 780.4895 938.8719 795.0198 945.8018 811.1149 925.2359 834.0279 912.0469 861.6354 912.0469 901.873 869.5738 884.6603 857.9496 877.5069 832.8011 875.048Z" />
  <path class="Cospicua" d="M916.9648 639.3226L910.7056 651.8409 909.9232 662.4592 899.752 663.4651 884.7747 664.4711 875.3859 664.4711 867.5619 657.653 875.3859 643.1228 895.5047 621.1039 916.9648 639.3226Z" />
  <path class="Dingli" d="M481.0572 695.3199L495.2521 686.7135 514.1415 687.6077 541.5254 683.8075 555.6086 683.8075 561.8678 690.5138 563.4326 699.2319 570.4741 708.956 568.9094 719.5743 557.9558 738.9107 548.567 747.6288 545.5492 776.6893 525.3186 765.4004 481.0572 695.3199Z" />
  <path class="Fgura" d="M909.9232 662.4592L916.1824 665.3652 913.8352 673.0774 909.1408 680.9014 906.0112 691.5197 896.6224 694.4257 890.3633 696.3259 887.9043 705.044 882.4275 708.956 878.5155 699.2319 880.8627 691.5197 873.8211 683.8075 861.3028 679.8955 875.3859 664.4711 884.7747 664.4711 899.752 663.4651 909.9232 662.4592Z" />
  <path class="Floriana" d="M843.3076 594.7259L867.5619 615.0682 861.3028 626.6924 851.1316 636.4165 840.9604 645.0229 835.4836 633.5105 830.1186 629.9338 834.1424 624.5688 829.0009 617.3036 833.9188 603.444 843.3076 594.7259Z" />
  <path class="Fontana, Gozo" d="M138.255 147.6411L138.9256 127.4106 147.7556 127.4106 152.6735 135.2345 162.174 140.5996 162.7329 151.4414 153.3441 158.4829 143.2847 155.3534 138.255 147.6411Z" />
  <path class="Għajnsielem" d="M239.4079 199.503L234.2664 188.6612 235.4959 184.8609 246.1142 174.0191 247.3437 159.2653 253.044 153.0062 258.0737 142.1644 269.3626 149.9883 280.6515 152.2238 301.3292 152.2238 307.5883 160.0477 309.6002 169.8836 249.9144 197.1558 239.4079 199.503Z" />
  <path class="Għarb" d="M75.5514 81.6961L66.1626 76.3311 61.1329 64.5952 49.844 69.2895 21.6777 56.8829 1 39.5584 32.4077 28.6048 78.681 21.675 77.4515 34.4169 86.8403 46.0411 92.5406 61.5773 94.4407 83.2609 75.5514 81.6961Z" />
  <path class="Għargħur" d="M710.0763 536.7166L699.7934 526.0983 699.011 513.4682 702.2524 495.1377 708.5116 489.3256 720.2475 484.4077 720.2475 494.1318 731.9835 498.938 734.3307 514.4741 740.5899 525.0924 742.9371 540.6286 739.0251 548.3408 728.8539 540.6286 720.2475 537.7226 710.0763 536.7166Z" />
  <path class="Għasri" d="M120.1481 95.6675L102.6 92.538 94.4407 83.2609 92.5406 61.5773 86.8403 46.0411 77.4515 34.4169 78.681 21.675 133.2253 13.404 125.1778 26.593 124.5072 46.8235 126.9661 63.8128 132.6664 66.16 141.3846 63.1421 147.7556 71.6367 148.985 90.1908 135.796 89.4084 123.8365 90.9732 120.1481 95.6675Z" />
  <path class="Għaxaq" d="M906.0112 775.6834L902.0992 785.2957 889.4691 788.2018 882.4275 791.1078 880.0803 799.826 873.8211 807.5382 862.8675 808.5441 856.6084 796.9199 848.002 786.3017 854.2612 780.4895 854.2612 774.6774 855.0436 764.0592 858.1732 756.347 863.6499 752.435 865.2147 741.8167 866.7795 737.0106 865.2147 726.2805 868.3443 720.4684 880.8627 724.3804 891.9281 738.9107 904.4464 760.1472 906.0112 775.6834Z" />
  <path class="Gudja" d="M848.002 786.3017L836.266 777.5835 830.0068 771.7714 829.2244 759.253 829.2244 752.435 824.4183 739.8048 846.4372 740.8108 865.2147 741.8167 863.6499 752.435 858.1732 756.347 855.0436 764.0592 854.2612 774.6774 854.2612 780.4895 848.002 786.3017Z" />
  <path class="Gżira" d="M858.1732 583.2134L843.3076 594.7259 833.36 588.0196 810.4469 587.5725 801.7287 577.8484 808.8821 563.6535 820.2827 557.3943 832.1305 566.5595 858.9556 572.4834 858.1732 583.2134Z" />
  <path class="Ħamrun" d="M797.0343 657.653L783.7336 638.3166 787.9809 629.9338 803.7406 623.5628 815.1413 625.0158 829.0009 617.3036 834.1424 624.5688 830.1186 629.9338 818.1591 637.3107 812.6823 658.659 797.0343 657.653Z" />
  <path class="Iklin" d="M697.4462 564.7712L706.9468 559.965 702.2524 548.3408 710.0763 536.7166 720.2475 537.7226 728.8539 540.6286 739.0251 548.3408 739.8075 575.3894 729.6363 579.3014 718.6827 582.2075 703.0348 575.3894 697.4462 564.7712Z" />
  <path class="Isla" d="M867.5619 615.0682L879.8568 608.0266 895.5047 621.1039 875.3859 643.1228 861.3028 626.6924 867.5619 615.0682Z" />
  <path class="Kalkara" d="M905.1171 585.4488L966.3677 611.6033 948.2607 624.7923 945.1311 635.4106 927.136 635.4106 916.9648 639.3226 916.0706 615.0682 904.7817 610.262 890.6986 597.7437 905.1171 585.4488Z" />
  <path class="Kerċem" d="M30.7311 155.4651L44.9261 136.0169 62.4741 117.3512 62.4741 104.9446 71.1923 96.4499 75.5514 81.6961 94.4407 83.2609 102.6 92.538 120.1481 95.6675 127.6367 105.727 131.437 117.3512 138.255 121.2631 138.9256 127.4106 138.255 147.6411 125.1778 143.7292 114.4477 142.1644 104.5001 146.8587 87.5109 158.4829 69.9628 176.031 47.4968 166.3069 30.7311 155.4651Z" />
  <path class="Kirkop" d="M795.4695 794.0139L788.4279 785.2957 776.692 780.4895 781.3864 768.8653 785.2983 763.0532 781.3864 754.3351 790.7751 747.6288 797.8167 751.429 805.6407 762.0473 811.1175 764.9534 813.4647 776.5776 795.4695 794.0139Z" />
  <path class="Lija" d="M666.9327 559.965L681.7982 567.6772 697.4462 564.7712 703.0348 575.3894 695.8814 595.7318 679.451 596.7377 667.7151 594.7259 662.2383 576.3954 662.2383 565.7771 666.9327 559.965Z" />
  <path class="Luqa" d="M725.7243 751.429L728.0715 744.7228 739.0251 742.7109 748.4139 732.0926 760.9322 721.4744 759.3674 708.956 778.2568 679.8955 786.8631 670.1714 791.5575 680.9014 791.5575 689.6196 800.1639 691.5197 811.1175 700.2378 821.2887 700.2378 825.2007 714.7681 825.2007 728.2924 824.4183 739.8048 829.2244 752.435 829.2244 759.253 830.0068 771.7714 836.266 777.5835 848.002 786.3017 856.6084 796.9199 862.8675 808.5441 850.3492 810.4442 835.4836 795.914 825.9831 783.3956 813.4647 776.5776 811.1175 764.9534 805.6407 762.0473 797.8167 751.429 790.7751 747.6288 781.3864 754.3351 767.3032 750.5349 757.0202 744.7228 745.2843 753.4409 735.8955 757.2411 725.7243 751.429Z" />
  <path class="Marsa" d="M786.8631 670.1714L788.4279 662.4592 797.0343 657.653 812.6823 658.659 818.1591 637.3107 830.1186 629.9338 835.4836 633.5105 840.9604 645.0229 840.178 665.3652 833.1364 685.7076 821.2887 700.2378 811.1175 700.2378 800.1639 691.5197 791.5575 689.6196 791.5575 680.9014 786.8631 670.1714Z" />
  <path class="Marsaskala" d="M1013.5351 769.6477L996.0988 764.9534 981.2332 763.0532 967.1501 756.347 963.2381 749.5289 962.4557 742.7109 965.5853 734.9987 961.6733 724.3804 953.0669 706.9441 960.1085 700.2378 967.9325 699.2319 974.974 690.5138 978.1036 680.9014 1000.4579 667.1536 1006.4935 676.9894 1017 756.7941 1013.5351 769.6477Z" />
  <path class="Marsaxlokk" d="M945.8018 811.1149L938.8719 795.0198 926.3536 780.4895 915.4 775.6834 906.0112 775.6834 904.4464 760.1472 920.8768 761.1531 927.136 755.341 942.7839 757.2411 958.5437 765.9593 967.1501 756.347 981.2332 763.0532 996.0988 764.9534 1013.5351 769.6477 1002.8051 808.4323 966.3677 788.2018 945.8018 811.1149Z" />
  <path class="Mdina" d="M608.141 646.0288L600.3171 645.0229 587.0163 645.0229 580.7571 639.3226 584.6691 633.5105 594.0579 630.6044 603.4466 630.6044 608.141 646.0288Z" />
  <path class="Mellieħa" d="M589.587 356.9886L573.6037 398.2321 547.0022 406.0561 529.7894 417.6803 508.5529 424.3866 500.7289 430.1987 499.1641 444.7289 504.6409 460.2651 499.1641 466.9714 481.9514 468.9833 472.5626 476.6955 451.4378 486.4196 434.1133 492.2317 417.6829 495.3613 410.5296 425.2807 395.4405 373.4189 367.7212 339.664 401.3644 309.4858 435.1193 288.6964 472.2273 276.5133 514.0297 272.6013 514.0297 296.8557 489.8871 301.3265 474.3509 309.374 440.149 339.664 589.587 356.9886Z" />
  <path class="Mġarr" d="M504.6409 460.2651L519.6183 464.0653 524.3127 469.8774 520.4007 479.6015 513.3591 486.4196 514.1415 496.0319 522.7479 498.0438 542.3078 499.9439 548.567 508.662 551.6966 526.0983 553.2614 538.6167 562.6502 546.4407 574.3861 551.2469 583.1043 552.141 585.4515 561.8651 573.6037 565.7771 559.5206 565.7771 540.743 568.6832 524.3127 570.5833 516.4887 580.3074 507.7705 581.2015 497.5993 576.3954 488.993 581.2015 478.8218 581.2015 470.9978 589.9197 464.7386 594.7259 455.3498 593.8317 444.2845 582.2075 434.1133 585.1135 422.2656 578.2955 422.2656 540.7404 417.6829 495.3613 434.1133 492.2317 451.4378 486.4196 472.5626 476.6955 481.9514 468.9833 499.1641 466.9714 504.6409 460.2651Z" />
  <path class="Mosta" d="M642.6783 512.4623L653.6319 514.4741 659.1087 523.1923 661.4559 531.9105 663.0207 541.5228 663.8031 551.2469 666.9327 559.965 662.2383 565.7771 662.2383 576.3954 667.7151 594.7259 658.3263 593.8317 648.9375 587.0136 633.9602 580.3074 617.5298 582.2075 608.9234 587.0136 600.3171 578.2955 593.2755 571.5892 585.4515 561.8651 583.1043 552.141 589.3635 546.4407 599.5347 540.6286 605.0114 535.7107 602.6642 529.0044 593.2755 525.0924 583.8867 519.2803 580.7571 509.668 572.8213 506.7619 562.6502 507.6561 559.5206 503.8559 564.9974 498.938 586.2339 495.1377 600.3171 498.0438 610.4882 505.756 617.5298 511.5681 620.6594 522.1864 627.701 527.9985 634.7426 522.1864 642.6783 512.4623Z" />
  <path class="Mqabba" d="M708.5116 777.5835L714.7707 764.9534 717.9003 755.341 725.7243 751.429 735.8955 757.2411 745.2843 753.4409 757.0202 744.7228 767.3032 750.5349 781.3864 754.3351 785.2983 763.0532 781.3864 768.8653 776.692 780.4895 766.5208 781.3837 751.5435 782.3897 735.8955 785.2957 723.3771 780.4895 708.5116 777.5835Z" />
  <path class="Msida" d="M765.5149 582.6546L775.3507 579.3014 801.7287 577.8484 810.4469 587.5725 811.1175 605.4559 810.4469 615.2917 803.7406 623.5628 792.3399 612.3857 777.6979 608.0266 770.5446 606.0147 777.6979 598.3025 774.9036 590.4785 765.5149 582.6546Z" />
  <path class="Mtarfa" d="M580.7571 639.3226L564.215 633.5105 562.6502 619.8744 570.4741 611.268 583.8867 610.262 595.6227 610.262 605.0114 607.356 604.229 619.8744 603.4466 630.6044 594.0579 630.6044 584.6691 633.5105 580.7571 639.3226Z" />
  <path class="Munxar" d="M69.9628 176.031L87.5109 158.4829 104.5001 146.8587 114.4477 142.1644 125.1778 143.7292 138.255 147.6411 143.2847 155.3534 153.3441 158.4829 151.444 164.6304 144.626 177.037 133.8959 189.4436 131.7723 197.7146 99.6939 188.8847 69.9628 176.031Z" />
  <path class="Nadur" d="M301.3292 152.2238L280.6515 152.2238 269.3626 149.9883 258.0737 142.1644 258.6326 127.4106 262.4328 118.1336 264.3329 103.3798 272.4922 99.5795 272.4922 63.1421 280.4279 40.5644 348.4966 84.3787 363.4739 100.2502 350.8438 108.8565 341.455 115.004 332.0662 117.3512 330.1661 125.1751 329.4955 140.5996 323.2363 149.2059 301.3292 152.2238Z" />
  <path class="Naxxar" d="M746.1784 426.622L741.3723 462.1652 739.8075 483.5135 720.2475 484.4077 708.5116 489.3256 702.2524 495.1377 699.011 513.4682 699.7934 526.0983 710.0763 536.7166 702.2524 548.3408 706.9468 559.965 697.4462 564.7712 681.7982 567.6772 666.9327 559.965 663.8031 551.2469 663.0207 541.5228 661.4559 531.9105 659.1087 523.1923 653.6319 514.4741 642.6783 512.4623 633.1778 500.9498 629.2658 495.1377 633.1778 490.2198 633.1778 480.6075 627.701 467.9773 630.0482 454.453 638.7663 438.9168 655.1967 411.8682 675.4273 374.2013 693.646 381.4664 746.1784 426.622Z" />
  <path class="Paola" d="M821.2887 700.2378L833.1364 685.7076 840.178 665.3652 840.9604 645.0229 851.1316 636.4165 861.3028 626.6924 875.3859 643.1228 867.5619 657.653 875.3859 664.4711 861.3028 679.8955 851.914 689.6196 848.002 700.2378 839.3956 705.044 825.2007 714.7681 821.2887 700.2378Z" />
  <path class="Pembroke" d="M842.9723 479.6015L816.5943 500.9498 797.8167 504.7501 797.0343 513.4682 775.1272 515.3683 764.956 512.4623 761.7146 498.0438 752.3259 489.3256 739.8075 483.5135 741.3723 462.1652 746.1784 426.622 782.7276 458.1415 842.9723 479.6015Z" />
  <path class="Pietà" d="M829.0009 617.3036L815.1413 625.0158 803.7406 623.5628 810.4469 615.2917 811.1175 605.4559 821.2887 606.3501 833.9188 603.444 829.0009 617.3036Z" />
  <path class="Qala" d="M309.6002 169.8836L307.5883 160.0477 301.3292 152.2238 323.2363 149.2059 329.4955 140.5996 330.1661 125.1751 332.0662 117.3512 341.455 115.004 350.8438 108.8565 363.4739 100.2502 400.0231 139.1465 367.7212 162.7303 321.1127 164.6304 309.6002 169.8836Z" />
  <path class="Qormi" d="M759.3674 708.956L750.7611 708.956 742.1547 701.132 740.5899 690.5138 740.5899 679.8955 732.7659 673.0774 719.4651 671.1773 713.2059 664.4711 710.8587 650.835 715.5531 643.1228 718.6827 634.4046 724.9419 625.6865 727.2891 615.0682 742.9371 628.5925 760.1498 630.6044 769.6504 635.4106 783.7336 638.3166 797.0343 657.653 788.4279 662.4592 786.8631 670.1714 778.2568 679.8955 759.3674 708.956Z" />
  <path class="Qrendi" d="M650.6141 832.1278L659.8911 813.3503 670.0623 806.5322 681.7982 806.5322 684.1454 800.7201 681.7982 791.1078 691.187 782.3897 699.011 780.4895 708.5116 777.5835 723.3771 780.4895 735.8955 785.2957 751.5435 782.3897 754.673 792.1138 746.8491 795.914 746.0667 802.732 751.5435 807.5382 745.2843 813.3503 737.4603 820.0565 721.8123 838.4988 716.2238 852.6937 650.6141 832.1278Z" />
  <path class="Rabat" d="M422.2656 578.2955L434.1133 585.1135 444.2845 582.2075 455.3498 593.8317 464.7386 594.7259 470.9978 589.9197 478.8218 581.2015 488.993 581.2015 497.5993 576.3954 507.7705 581.2015 516.4887 580.3074 524.3127 570.5833 540.743 568.6832 559.5206 565.7771 573.6037 565.7771 585.4515 561.8651 593.2755 571.5892 600.3171 578.2955 608.9234 587.0136 607.3586 598.6378 605.0114 607.356 595.6227 610.262 583.8867 610.262 570.4741 611.268 562.6502 619.8744 564.215 633.5105 580.7571 639.3226 587.0163 645.0229 600.3171 645.0229 608.141 646.0288 607.3586 659.5531 612.053 663.4651 617.5298 697.3318 608.141 709.8502 591.7107 712.7562 570.4741 708.956 563.4326 699.2319 561.8678 690.5138 555.6086 683.8075 541.5254 683.8075 514.1415 687.6077 495.2521 686.7135 481.0572 695.3199 476.3628 687.943 467.98 678.1072 430.4249 657.7648 422.2656 642.1168 422.2656 578.2955Z" />
  <path class="Safi" d="M850.3492 810.4442L840.9604 819.1624 833.9188 816.2563 824.4183 811.4502 814.2471 818.1564 802.5111 823.9685 793.9047 821.0625 785.2983 812.3443 784.516 805.6381 795.4695 794.0139 813.4647 776.5776 825.9831 783.3956 835.4836 795.914 850.3492 810.4442Z" />
  <path class="San Giljan" d="M866.6678 498.4909L829.3362 530.5692 820.2827 557.3943 808.8821 563.6535 800.9463 554.9353 793.1223 549.5703 791.5575 538.6167 800.9463 530.9045 801.7287 519.2803 797.0343 513.4682 797.8167 504.7501 816.5943 500.9498 842.9723 479.6015 859.8497 485.6372 866.6678 498.4909Z" />
  <path class="San Ġwann" d="M791.5575 538.6167L793.1223 549.5703 800.9463 554.9353 808.8821 563.6535 801.7287 577.8484 775.3507 579.3014 765.5149 582.6546 739.8075 575.3894 739.0251 548.3408 742.9371 540.6286 749.9787 543.5347 765.7384 544.4288 779.0392 539.6227 786.0807 532.8046 791.5575 538.6167Z" />
  <path class="San Lawrenz" d="M30.7311 155.4651L4.3531 138.3641 12.6242 103.0444 2.9001 67.2777 1 39.5584 21.6777 56.8829 49.844 69.2895 61.1329 64.5952 66.1626 76.3311 75.5514 81.6961 71.1923 96.4499 62.4741 104.9446 62.4741 117.3512 44.9261 136.0169 30.7311 155.4651Z" />
  <path class="San Pawl il-Bahar" d="M675.4273 374.2013L655.1967 411.8682 638.7663 438.9168 630.0482 454.453 627.701 467.9773 633.1778 480.6075 633.1778 490.2198 629.2658 495.1377 633.1778 500.9498 642.6783 512.4623 634.7426 522.1864 627.701 527.9985 620.6594 522.1864 617.5298 511.5681 610.4882 505.756 600.3171 498.0438 586.2339 495.1377 564.9974 498.938 559.5206 503.8559 562.6502 507.6561 572.8213 506.7619 580.7571 509.668 583.8867 519.2803 593.2755 525.0924 602.6642 529.0044 605.0114 535.7107 599.5347 540.6286 589.3635 546.4407 583.1043 552.141 574.3861 551.2469 562.6502 546.4407 553.2614 538.6167 551.6966 526.0983 548.567 508.662 542.3078 499.9439 522.7479 498.0438 514.1415 496.0319 513.3591 486.4196 520.4007 479.6015 524.3127 469.8774 519.6183 464.0653 504.6409 460.2651 499.1641 444.7289 500.7289 430.1987 508.5529 424.3866 529.7894 417.6803 547.0022 406.0561 573.6037 398.2321 589.587 356.9886 649.7199 363.9184 675.4273 374.2013Z" />
  <path class="Sannat" d="M131.7723 197.7146L133.8959 189.4436 144.626 177.037 151.444 164.6304 160.8328 166.9776 180.9516 166.9776 192.7993 170.1072 201.6293 178.6018 214.1476 182.5138 226.1072 189.4436 234.2664 188.6612 239.4079 199.503 203.4176 207.5505 154.2383 203.7503 131.7723 197.7146Z" />
  <path class="Santa Luċija" d="M824.4183 739.8048L825.2007 728.2924 825.2007 714.7681 833.9188 720.4684 846.4372 722.4803 865.2147 726.2805 866.7795 737.0106 865.2147 741.8167 846.4372 740.8108 824.4183 739.8048Z" />
  <path class="Santa Venera" d="M783.7336 638.3166L769.6504 635.4106 760.1498 630.6044 763.8383 617.3036 765.5149 608.9208 770.5446 606.0147 777.6979 608.0266 792.3399 612.3857 803.7406 623.5628 787.9809 629.9338 783.7336 638.3166Z" />
  <path class="Siġġiewi" d="M570.4741 708.956L591.7107 712.7562 608.141 709.8502 617.5298 697.3318 626.9186 696.3259 634.7426 702.138 650.5023 708.956 666.9327 716.6682 683.363 710.8561 691.187 703.1439 695.099 695.3199 710.8587 692.5256 721.8123 694.4257 730.4187 702.138 735.1131 705.044 742.1547 701.132 750.7611 708.956 759.3674 708.956 760.9322 721.4744 748.4139 732.0926 739.0251 742.7109 728.0715 744.7228 725.7243 751.429 717.9003 755.341 714.7707 764.9534 708.5116 777.5835 699.011 780.4895 691.187 782.3897 681.7982 791.1078 684.1454 800.7201 681.7982 806.5322 670.0623 806.5322 659.8911 813.3503 650.6141 832.1278 639.1017 828.4394 545.5492 776.6893 548.567 747.6288 557.9558 738.9107 568.9094 719.5743 570.4741 708.956Z" />
  <path class="Sliema" d="M876.0565 576.2836L858.1732 583.2134 858.9556 572.4834 832.1305 566.5595 820.2827 557.3943 829.3362 530.5692 866.6678 498.4909 873.2623 510.8975 876.2801 543.5347 876.0565 576.2836Z" />
  <path class="Swieqi" d="M797.0343 513.4682L801.7287 519.2803 800.9463 530.9045 791.5575 538.6167 786.0807 532.8046 779.0392 539.6227 765.7384 544.4288 749.9787 543.5347 742.9371 540.6286 740.5899 525.0924 734.3307 514.4741 731.9835 498.938 720.2475 494.1318 720.2475 484.4077 739.8075 483.5135 752.3259 489.3256 761.7146 498.0438 764.956 512.4623 775.1272 515.3683 797.0343 513.4682Z" />
  <path class="Ta' Xbiex" d="M810.4469 587.5725L833.36 588.0196 843.3076 594.7259 833.9188 603.444 821.2887 606.3501 811.1175 605.4559 810.4469 587.5725Z" />
  <path class="Tarxien" d="M868.3443 720.4684L865.2147 726.2805 846.4372 722.4803 833.9188 720.4684 825.2007 714.7681 839.3956 705.044 848.002 700.2378 851.914 689.6196 861.3028 679.8955 873.8211 683.8075 880.8627 691.5197 878.5155 699.2319 882.4275 708.956 872.2563 715.6623 868.3443 720.4684Z" />
  <path class="Valletta" d="M905.1171 585.4488L890.6986 597.7437 879.8568 608.0266 867.5619 615.0682 843.3076 594.7259 858.1732 583.2134 876.0565 576.2836 890.2515 579.0779 905.1171 585.4488Z" />
  <path class="Victoria" d="M138.9256 127.4106L138.255 121.2631 131.437 117.3512 127.6367 105.727 120.1481 95.6675 123.8365 90.9732 135.796 89.4084 148.985 90.1908 163.9624 101.815 178.3809 101.815 185.9813 112.7685 191.5699 120.4807 190.3404 128.9754 187.8814 145.2939 178.3809 146.0763 169.6627 145.2939 162.7329 151.4414 162.174 140.5996 152.6735 135.2345 147.7556 127.4106 138.9256 127.4106Z" />
  <path class="Xagħra" d="M280.4279 40.5644L272.4922 63.1421 272.4922 99.5795 264.3329 103.3798 262.4328 118.1336 258.6326 127.4106 258.0737 142.1644 243.6552 131.3226 233.5958 126.6282 221.6363 128.9754 206.659 132.105 190.3404 128.9754 191.5699 120.4807 185.9813 112.7685 178.3809 101.815 185.3107 101.1443 188.4403 94.8851 184.7518 84.0433 185.9813 73.2015 195.3701 62.3597 207.8884 56.1006 223.5364 55.3182 226.1072 49.1707 225.4365 38.3289 224.207 29.7226 235.1606 19.1043 263.1034 29.3872 280.4279 40.5644Z" />
  <path class="Xewkija" d="M151.444 164.6304L153.3441 158.4829 162.7329 151.4414 169.6627 145.2939 178.3809 146.0763 187.8814 145.2939 190.3404 128.9754 206.659 132.105 221.6363 128.9754 233.5958 126.6282 243.6552 131.3226 258.0737 142.1644 253.044 153.0062 247.3437 159.2653 246.1142 174.0191 235.4959 184.8609 234.2664 188.6612 226.1072 189.4436 214.1476 182.5138 201.6293 178.6018 192.7993 170.1072 180.9516 166.9776 160.8328 166.9776 151.444 164.6304Z" />
  <path class="Xgħajra" d="M945.1311 635.4106L948.2607 624.7923 966.3677 611.6033 987.9395 646.8112 967.1501 655.7529 954.6317 649.9408 945.1311 635.4106Z" />
  <path class="Żabbar" d="M916.9648 639.3226L927.136 635.4106 945.1311 635.4106 954.6317 649.9408 967.1501 655.7529 987.9395 646.8112 1000.4579 667.1536 978.1036 680.9014 974.974 690.5138 967.9325 699.2319 960.1085 700.2378 953.0669 706.9441 931.8304 705.044 924.0064 696.3259 912.2704 695.3199 906.0112 691.5197 909.1408 680.9014 913.8352 673.0774 916.1824 665.3652 909.9232 662.4592 910.7056 651.8409 916.9648 639.3226Z" />
  <path class="Żebbuġ" d="M235.1606 19.1043L224.207 29.7226 225.4365 38.3289 226.1072 49.1707 223.5364 55.3182 207.8884 56.1006 195.3701 62.3597 185.9813 73.2015 184.7518 84.0433 188.4403 94.8851 185.3107 101.1443 178.3809 101.815 163.9624 101.815 148.985 90.1908 147.7556 71.6367 141.3846 63.1421 132.6664 66.16 126.9661 63.8128 124.5072 46.8235 125.1778 26.593 133.2253 13.404 194.3641 4.127 235.1606 19.1043ZM617.5298 697.3318L612.053 663.4651 607.3586 659.5531 608.141 646.0288 623.0066 643.1228 636.3074 647.0348 650.5023 648.9349 663.8031 646.0288 672.4095 637.3107 688.8398 636.4165 718.6827 634.4046 715.5531 643.1228 710.8587 650.835 713.2059 664.4711 719.4651 671.1773 732.7659 673.0774 740.5899 679.8955 740.5899 690.5138 742.1547 701.132 735.1131 705.044 730.4187 702.138 721.8123 694.4257 710.8587 692.5256 695.099 695.3199 691.187 703.1439 683.363 710.8561 666.9327 716.6682 650.5023 708.956 634.7426 702.138 626.9186 696.3259 617.5298 697.3318Z" />
  <path class="Żejtun" d="M967.1501 756.347L958.5437 765.9593 942.7839 757.2411 927.136 755.341 920.8768 761.1531 904.4464 760.1472 891.9281 738.9107 880.8627 724.3804 868.3443 720.4684 872.2563 715.6623 882.4275 708.956 887.9043 705.044 890.3633 696.3259 896.6224 694.4257 906.0112 691.5197 912.2704 695.3199 924.0064 696.3259 931.8304 705.044 953.0669 706.9441 961.6733 724.3804 965.5853 734.9987 962.4557 742.7109 963.2381 749.5289 967.1501 756.347Z" />
  <path class="Żurrieq" d="M716.2238 852.6937L721.8123 838.4988 737.4603 820.0565 745.2843 813.3503 751.5435 807.5382 746.0667 802.732 746.8491 795.914 754.673 792.1138 751.5435 782.3897 766.5208 781.3837 776.692 780.4895 788.4279 785.2957 795.4695 794.0139 784.516 805.6381 785.2983 812.3443 793.9047 821.0625 802.5111 823.9685 814.2471 818.1564 824.4183 811.4502 833.9188 816.2563 840.9604 819.1624 850.3492 810.4442 862.8675 808.5441 866.7795 822.0684 872.2563 838.4988 869.9091 844.3109 858.1732 846.211 843.3076 841.4048 836.266 841.4048 834.7012 849.1171 840.178 861.6354 837.0484 867.4475 832.8011 875.048 766.7443 868.4535 716.2238 852.6937Z" />
</svg>