<?xml version="1.0" encoding="utf-8"?>
<svg xmlns="http://www.w3.org/2000/svg" viewBox="0 0 767 1024" style="stroke-width:0.25px;stroke-linejoin:round;stroke:#444;fill:#ddd" fill-rule="evenodd">
  <path class="Ad Dakhliyah" d="M475.2172 313.2708L503.16 311.9296 531.8851 341.3254 543.0623 342.5549 546.7507 344.455 571.6757 340.3195 574.5817 333.8367 595.7065 316.2887 616.6077 313.4944 641.0856 338.7547 636.6147 362.6737 621.9727 366.3622 605.8777 376.7569 599.9538 377.4275 577.7113 395.0873 568.2108 415.0944 592.1298 500.0405 601.4068 532.6777 612.2486 564.0854 581.5116 548.2139 422.0141 468.2975 441.2387 443.3725 456.6631 396.7639 475.2172 313.2708Z" />
  <path class="Al Batnah North" d="M538.9267 277.3923L527.6378 297.1758 515.1195 308.0176 503.16 311.9296 475.2172 313.2708 473.5406 311.0354 464.5989 276.7217 435.8737 251.2378 420.7846 244.5316 420.114 235.2546 410.6134 202.8409 397.7597 186.0752 397.8715 181.7162 397.9833 181.8279 400.1069 181.7162 401.8953 181.1573 402.7894 180.0396 403.3483 178.2513 405.4719 175.6805 407.0367 171.7685 408.4898 171.0979 412.1782 170.6508 413.8548 169.7567 417.0961 166.6271 417.655 166.0682 420.3375 164.1681 420.8964 163.0504 420.8964 162.3798 421.1199 160.4796 421.4552 156.903 421.9023 156.3441 422.3494 155.897 427.6026 155.2264 429.7263 163.9446 435.9855 176.91 436.9914 178.0277 437.662 180.4867 438.3327 184.9575 449.7333 206.6411 452.0805 209.3237 457.5573 214.2416 468.0638 227.207 470.1875 230.5602 471.0816 232.5721 471.9758 235.5899 481.4763 247.1023 492.9888 256.9382 502.0422 264.3151 505.1718 266.327 518.9197 271.692 536.6913 276.3864 538.9267 277.3923Z" />
  <path class="Al Batnah South" d="M503.16 311.9296L515.1195 308.0176 527.6378 297.1758 538.9267 277.3923 544.18 279.7395 549.8803 281.6396 553.9041 282.3102 556.1395 282.422 562.6222 282.0867 564.4106 282.422 567.2048 286.1105 568.2108 286.8928 570.558 287.5635 573.3523 288.9047 575.8112 289.24 588.3296 288.5694 592.5769 288.793 596.936 289.7989 596.1536 290.4695 596.1536 290.8048 596.2653 290.8048 593.2475 305.8939 595.7065 316.2887 574.5817 333.8367 571.6757 340.3195 546.7507 344.455 543.0623 342.5549 531.8851 341.3254 503.16 311.9296Z" />
  <path class="Al Buraymi" d="M397.8715 181.7162L397.7597 186.0752 410.6134 202.8409 420.114 235.2546 420.7846 244.5316 417.4315 255.0381 406.0308 255.0381 391.8359 258.0559 386.4708 261.7443 386.4708 270.5743 380.4352 273.4803 376.2997 278.6218 379.7646 294.158 372.9465 298.5171 360.2046 302.2055 350.0334 308.1294 336.7327 306.7881 339.974 293.7109 340.8682 291.9226 345.3391 285.1045 345.7861 283.7633 345.4508 275.7157 345.0037 272.6979 343.4389 270.3507 339.974 268.2271 338.2975 266.774 337.5151 264.8739 337.8504 263.3091 341.9859 262.5267 346.1215 260.9619 348.0216 259.8442 350.8158 258.2794 353.4983 257.2735 356.2926 256.7146 359.534 256.8264 362.6636 257.3853 364.1166 257.2735 365.6814 256.7146 367.4697 256.3793 370.0405 258.3912 371.8288 258.6147 383.1177 253.9204 389.1534 252.4673 390.2711 250.7908 386.6944 244.308 385.5767 239.7254 384.0119 235.9252 381.1058 234.6957 375.629 236.9311 374.0642 236.8194 368.0286 235.4781 366.7991 234.9193 366.6873 233.3545 367.4697 231.4543 371.1582 224.7481 371.8288 223.1833 372.1641 218.0418 371.9406 217.1476 371.1582 216.2535 369.2581 214.9122 368.6992 214.1298 368.3639 212.565 368.5875 206.7529 367.358 202.2821 367.2462 200.0466 368.1404 198.5936 369.5934 197.0288 370.1523 193.4521 372.8348 190.9932 372.4994 188.9813 371.0464 185.6282 370.5993 184.5105 370.3758 182.6103 370.8229 178.5866 370.8229 176.5747 370.0405 168.4154 371.0464 165.0623 373.9525 161.3738 376.7468 158.8031 377.0821 158.4678 380.547 156.3441 384.2354 155.3382 388.1474 155.897 388.371 156.0088 391.0535 157.5736 392.1712 160.815 392.9536 165.5094 393.2889 167.7448 390.9417 166.0682 389.7122 165.3976 388.371 165.0623 386.6944 165.6211 386.3591 166.9624 387.0297 168.5272 390.7182 171.8803 393.5124 179.1454 396.5303 181.6044 397.8715 181.7162Z" />
  <path class="Al Dhahira" d="M420.7846 244.5316L435.8737 251.2378 464.5989 276.7217 473.5406 311.0354 475.2172 313.2708 456.6631 396.7639 441.2387 443.3725 422.0141 468.2975 354.0572 483.3866 351.71 483.8337 355.3985 472.0977 355.2867 469.6387 354.2807 467.4033 349.1393 458.7969 341.3153 445.7197 333.4913 432.6425 325.6673 419.5652 317.8433 406.488 311.6959 396.2051 312.7019 380.8924 312.143 365.468 312.4783 362.3384 315.4961 352.279 324.6614 336.0722 326.8968 329.5894 328.9087 319.0829 329.9146 315.5063 331.8147 312.8238 335.3914 308.8 336.7327 306.7881 350.0334 308.1294 360.2046 302.2055 372.9465 298.5171 379.7646 294.158 376.2997 278.6218 380.4352 273.4803 386.4708 270.5743 386.4708 261.7443 391.8359 258.0559 406.0308 255.0381 417.4315 255.0381 420.7846 244.5316Z" />
  <path class="Al Wusta" d="M351.71 483.8337L354.0572 483.3866 422.0141 468.2975 581.5116 548.2139 612.2486 564.0854 622.6433 569.3386 608.8955 614.4942 606.9954 613.8235 604.0893 614.0471 601.295 614.9413 598.1655 616.9531 594.2535 617.9591 593.024 618.8532 592.3534 619.7474 590.6768 624.6653 590.6768 625.7831 591.2356 626.9008 591.571 627.7949 590.7886 628.5773 589.5591 629.1362 587.2119 629.695 585.4235 630.5892 583.6352 631.7069 581.3998 633.9424 580.5056 634.9483 579.9468 636.1778 579.7232 637.519 579.9468 638.525 581.3998 640.0898 581.6233 640.9839 580.9527 643.3311 579.2761 644.6724 575.0288 646.349 573.3523 647.3549 571.6757 648.8079 570.2227 650.4845 569.6638 652.3846 569.2167 653.5023 568.099 654.8436 567.0931 656.6319 567.0931 659.2026 568.8814 663.3382 569.4403 665.9089 567.8755 669.5974 566.4224 675.2977 566.3107 676.7507 566.1989 679.7685 563.8517 685.2453 562.2869 691.0574 561.1692 693.5164 555.0218 702.6816 554.1276 705.3641 554.4629 708.4937 555.2453 709.7232 556.0277 710.7292 556.8101 711.7351 557.0337 713.0763 557.1454 716.2059 557.0337 717.7707 556.4748 719.112 555.8042 721.7945 555.5806 723.8064 556.2513 725.8183 560.9457 733.5305 561.7281 735.3188 562.2869 738.1131 562.2869 740.9074 561.8398 743.4781 560.1633 748.1725 559.8279 750.2961 560.0515 752.6433 562.0634 757.8966 562.9575 759.5732 565.4165 762.3674 565.9754 764.044 565.0812 768.4031 565.0812 770.415 568.6579 777.1212 568.7696 778.5743 566.3107 781.0332 564.9694 782.1509 564.5223 782.2627 560.1633 782.9333 559.7162 783.4922 559.2691 784.051 558.2631 784.8334 557.0337 785.6158 556.1395 785.8394 535.9089 784.9452 530.4321 785.7276 446.3802 763.1498 328.2381 565.8737 327.0086 563.8618 328.2381 559.9498 333.3795 543.4077 338.0739 527.9833 342.433 514.1237 346.0097 502.3877 348.804 493.3342 350.5923 487.5221 351.2629 485.3985 351.71 483.8337Z" />
  <path class="Ash Sharqiyah North" d="M727.9318 405.035L722.6785 410.7353 722.7903 415.8768 724.6904 421.3536 723.6845 435.325 718.9901 447.9551 707.0306 454.3261 686.0176 465.8385 664.4458 473.7743 641.6444 482.0453 617.1666 490.987 592.1298 500.0405 568.2108 415.0944 577.7113 395.0873 599.9538 377.4275 605.8777 376.7569 621.9727 366.3622 636.6147 362.6737 665.6752 382.4572 697.53 386.7045 703.901 379.5512 706.1364 376.5333 708.8189 383.2396 709.1542 384.8044 709.9366 386.8163 711.6132 388.1575 715.1899 390.1694 718.9901 396.3168 719.549 397.9934 720.8902 399.5582 724.914 403.4702 727.9318 405.035Z" />
  <path class="Ash Sharqiyah South" d="M608.8955 614.4942L622.6433 569.3386 612.2486 564.0854 601.4068 532.6777 592.1298 500.0405 617.1666 490.987 641.6444 482.0453 664.4458 473.7743 686.0176 465.8385 707.0306 454.3261 718.9901 447.9551 723.6845 435.325 724.6904 421.3536 722.7903 415.8768 722.6785 410.7353 727.9318 405.035 730.1672 407.0469 732.4026 408.2763 732.9615 408.8352 733.0733 409.9529 732.4026 410.1765 731.6202 409.9529 731.0614 409.6176 731.0614 411.0706 731.732 411.7413 732.9615 411.853 734.3028 411.7413 741.7914 409.1705 744.3622 410.1765 748.2741 413.1943 748.833 413.1943 750.3978 413.0825 750.9567 413.1943 751.1802 413.6414 751.4037 414.7591 751.6273 415.3179 751.6273 415.6532 751.5155 416.1003 751.6273 416.771 752.1861 417.4416 752.745 417.7769 753.3039 418.0004 753.9745 418.1122 754.5333 418.224 754.9804 417.6651 754.3098 416.5474 752.8568 414.9826 753.3039 413.5296 754.3098 413.5296 756.3217 413.1943 758.8924 413.8649 761.0161 416.6592 762.3573 420.1241 762.9162 423.2537 761.0161 440.4664 759.6748 445.0491 757.7747 449.1846 752.1861 457.0086 749.3919 459.4675 747.7153 461.2559 747.0447 463.0442 746.7094 465.5032 744.921 470.5329 744.4739 475.5626 743.5798 477.5745 739.7795 479.251 738.5501 481.0394 736.9853 484.8396 729.273 495.3461 726.367 504.6231 724.5787 508.9822 715.4134 523.5124 714.7428 526.8656 714.4075 527.7597 713.6251 528.5421 699.989 534.5778 697.1947 536.2543 686.3529 545.196 673.2757 559.0557 669.2519 565.3149 668.246 566.209 666.9047 567.215 665.4517 569.3386 662.4339 574.9272 662.0986 575.9331 661.875 579.5098 661.5397 580.6275 660.9809 581.5217 655.3923 586.1043 655.8394 588.2279 654.1628 589.681 650.1391 591.8046 650.2508 591.9164 649.4684 593.8165 649.3567 593.9283 648.686 594.5989 648.2389 595.046 648.0154 595.7166 648.2389 596.6108 648.9096 597.6167 649.692 598.3991 650.6979 598.958 652.1509 598.2873 653.7157 596.7226 654.8334 596.0519 654.7217 598.1756 653.7157 599.5168 652.0392 600.8581 650.2508 601.3052 649.3567 600.2992 648.7978 600.2992 648.2389 601.7523 647.4565 604.5465 646.6741 605.9996 646.0035 606.6702 643.7681 607.8997 642.7622 608.9056 641.5327 610.9175 640.415 613.4882 639.7443 616.3943 639.5208 619.0768 637.0618 624.1065 635.7206 627.6832 635.8323 629.3597 635.2735 630.1421 634.7146 633.607 634.4911 634.3894 633.5969 634.5012 632.3674 634.9483 631.0262 635.6189 630.132 636.5131 629.4614 639.3074 627.3377 640.4251 624.6552 640.3133 622.0845 639.3074 620.2961 638.4132 618.9549 637.9661 615.8253 637.8543 614.5958 638.0779 612.2486 639.0838 610.9074 639.3074 611.2427 638.4132 611.8015 637.9661 611.2427 637.6308 607.8895 636.7366 605.8777 636.5131 603.8658 635.6189 603.6422 633.607 604.8717 629.3597 604.8717 630.701 605.207 631.8187 605.9894 632.8246 606.8836 633.607 607.3307 631.5952 606.3248 626.9008 607.2189 624.7771 608.5602 622.7652 609.5661 619.7474 609.7897 616.7296 608.8955 614.4942ZM672.0462 612.7058L672.158 614.9413 672.7168 616.7296 675.7347 622.0946 676.6288 623.6594 676.1817 624.8889 675.3993 625.6713 671.7109 628.4656 667.6871 630.701 666.0106 632.2658 663.6634 635.8425 662.5457 638.1897 661.4279 643.2194 660.5338 644.8959 660.5338 646.1254 660.5338 646.2372 660.6455 647.1314 660.6455 647.802 660.3102 648.5844 656.9571 651.8257 655.2805 654.1729 654.3864 655.1789 653.4922 655.5142 652.2627 655.7377 651.145 655.9613 650.6979 656.6319 650.3626 657.7496 649.5802 658.8673 648.4625 659.7615 647.3448 659.7615 646.8977 658.8673 646.4506 658.0849 646.0035 654.8436 645.8917 651.6022 646.1153 649.9256 646.0035 649.7021 645.78 648.8079 646.4506 640.6486 647.0095 639.3074 648.0154 637.8543 648.5743 637.4073 650.2508 636.066 651.0332 635.7307 651.2568 635.6189 651.3685 635.3954 651.8156 633.4953 652.0392 632.9364 653.7157 632.2658 655.2805 632.2658 656.9571 631.9305 658.6337 630.8128 659.5278 629.695 659.8631 629.1362 660.1985 627.9067 660.3102 627.6832 660.6455 623.6594 661.3162 621.7593 662.2103 620.1945 666.793 614.0471 668.5813 610.2469 669.699 606.8937 670.5932 605.6642 672.0462 605.3289 673.1639 607.0055 673.0521 608.7938 672.3815 610.6939 672.0462 612.7058Z" />
  <path class="Dhofar" d="M327.0086 563.8618L328.2381 565.8737 446.3802 763.1498 530.4321 785.7276 507.4073 789.4161 495.4477 792.7692 479.1292 799.5872 472.87 804.1699 468.7344 806.1817 466.499 807.9701 465.4931 810.0937 464.7107 811.2114 454.4277 821.6062 452.5276 825.2946 452.1923 830.1008 452.7512 833.4539 452.8629 834.5716 452.5276 835.9129 451.1864 837.813 450.6275 839.4895 449.7333 841.5014 449.5098 842.6191 449.5098 846.8664 448.6156 851.1138 443.5859 862.9615 445.0389 864.9734 444.8154 867.097 443.4741 869.1089 441.574 870.5619 437.3267 872.462 435.3149 873.6915 432.297 879.0565 431.7382 879.5036 430.2851 879.9507 429.6145 880.3978 425.1437 885.4275 424.8084 886.0981 425.0319 888.4453 423.9142 888.6689 408.7133 886.657 406.8132 886.9923 403.9072 888.3336 401.7835 888.7806 393.5124 888.11 391.5006 888.3336 385.2414 890.9043 381.6647 891.7985 356.9633 892.9162 347.1274 895.4869 345.0037 895.7105 344.2213 895.934 343.7743 896.2693 343.3272 896.8282 342.6565 897.1635 340.8682 897.1635 340.7564 897.1635 337.6268 898.0576 336.7327 898.5047 335.3914 900.1813 334.0502 904.2051 333.156 905.8816 331.703 907.5582 331.2559 908.3406 329.8029 912.4761 329.3558 913.1468 328.0145 914.7116 319.0728 922.2002 316.3903 927.2299 315.7197 929.2418 315.4961 931.589 315.8315 934.2715 316.8374 935.7245 320.0788 937.5129 321.9789 939.5248 322.7613 941.6484 322.7613 946.231 322.0906 948.1311 318.1787 953.4961 317.9551 954.5021 317.7316 955.8433 317.8433 957.1846 318.514 957.7435 319.2964 958.0788 319.2964 958.8612 318.8493 960.0906 318.2904 960.6495 315.7197 961.9908 314.8255 962.5496 314.2667 963.332 313.9314 964.2262 313.4843 966.0145 312.5901 967.5793 312.8136 968.0264 311.9195 969.1441 309.0134 970.1501 307.5604 970.9325 307.0015 971.8266 306.4427 973.1679 305.6603 974.5091 304.5426 975.068 300.5188 979.5388 296.1597 982.7802 295.6009 982.7802 294.7067 981.2154 293.589 981.886 292.3595 983.3391 291.2418 984.1215 289.677 984.345 288.3358 984.9039 286.9945 985.1274 285.5415 984.7921 284.0884 986.3569 282.3001 987.0275 278.2763 987.4746 275.035 988.8158 273.4702 988.8158 272.3525 987.4746 271.2348 988.1452 269.4464 987.8099 268.3287 988.257 265.0873 986.1333 264.305 986.9157 263.5226 984.9039 263.0755 983.1155 262.0695 981.886 258.0458 981.1036 255.2515 980.2095 254.1338 979.9859 252.9043 980.0977 251.0042 980.5448 249.7747 980.6565 246.4216 979.9859 245.0803 979.9859 244.0744 980.2095 242.0625 981.2154 241.5036 981.3272 236.921 979.9859 234.5738 979.8741 232.5619 981.3272 231.6678 980.8801 230.6618 980.6565 212.6667 982.7802 204.9545 982.7802 203.2779 983.2273 199.0306 985.3509 198.0246 986.1333 197.5776 987.0275 197.6893 987.8099 197.8011 988.5923 198.0246 989.3747 197.6893 990.1571 196.3481 991.3866 196.0128 992.0572 194.895 993.0631 192.4361 993.622 188.077 993.8455 182.2649 995.075 180.3648 995.1868 178.5765 995.8574 176.5646 996.9751 174.5527 997.7575 172.8761 997.3105 171.0878 998.4282 168.6288 1000.44 166.3934 1002.7872 165.4992 1004.5756 164.7168 1005.6933 162.9285 1006.811 159.4636 1008.3758 156.334 1009.1582 140.9096 1009.4935 132.6385 1010.723 116.8788 1015.7527 110.396 1019.2176 110.1725 1019.2176 110.0607 1019.3294 109.6136 1019.5529 108.6077 1020 108.4959 1019.6647 102.5721 1006.3639 96.5364 992.7278 90.5008 978.98 84.4651 965.2321 80.6649 956.7375 79.659 955.3963 77.9824 954.7256 74.2939 954.5021 72.9527 953.6079 73.0645 953.6079 73.5116 953.4961 73.7351 953.4961 70.7173 946.231 66.47 936.3952 62.3344 926.5593 58.1989 916.8352 54.0634 906.9993 49.9278 897.1635 45.7923 887.3276 41.6568 877.4917 37.5212 867.6559 33.3857 857.82 29.2502 847.9842 25.1146 838.1483 20.9791 828.2007 16.8436 818.3648 12.708 808.5289 8.4607 798.5813 4.3252 788.7454 1.6427 782.2627 1.0838 781.0332 1.3074 780.9215 2.0898 780.5861 2.5369 780.3626 2.6486 780.3626 2.7604 780.2508 2.9839 780.1391 1.4191 780.4744 11.7021 776.7859 28.356 770.9738 44.8981 765.1617 61.4403 759.2378 77.9824 753.4257 94.6363 747.5019 111.1784 741.6898 127.7206 735.8777 144.3745 729.9538 160.9166 724.1417 177.4587 718.2178 194.1127 712.4057 210.6548 706.4818 227.1969 700.6697 243.7391 694.7459 260.393 688.9338 276.9351 683.0099 291.4653 677.8684 294.5949 667.9208 295.2656 665.9089 297.0539 660.0968 299.8482 651.1551 303.4249 639.5309 307.7839 625.7831 312.5901 610.3586 317.6198 593.9283 322.9848 576.9391 327.0086 563.8618ZM374.6231 934.048L374.2878 933.1538 374.176 932.9303 374.7349 932.1479 375.8526 931.589 377.1938 931.2537 379.0939 932.3714 379.8763 932.7067 378.4233 933.6009 375.5173 933.6009 374.6231 934.048ZM395.8596 927.1182L396.0832 928.4594 396.0832 928.6829 397.0891 929.9124 398.3186 930.6948 399.7716 931.2537 396.642 933.1538 394.9655 933.8244 393.5124 934.048 389.1534 933.8244 387.8121 933.2656 387.0297 931.1419 389.6004 929.5771 393.2889 928.3476 395.8596 927.1182Z" />
  <path class="Musandam" d="M424.2495 121.4715L423.8024 124.3776 421.1199 125.8306 418.8845 126.613 417.7668 127.6189 414.8607 129.6308 413.2959 130.3014 411.7311 129.8543 410.6134 129.2955 410.5017 128.7366 410.3899 128.2895 410.6134 125.607 413.2959 124.2658 414.1901 123.1481 413.6312 122.2539 413.2959 121.248 413.0724 119.4596 415.7549 117.5595 418.6609 117.8948 420.4493 120.6891 424.2495 121.4715ZM415.9784 126.2777L417.8785 125.607 418.4374 123.8187 416.9844 122.8128 416.202 122.8128 415.6431 123.3716 415.9784 126.2777ZM405.2484 82.4634L405.1366 82.3516 404.5778 81.0103 404.0189 76.2042 404.1307 74.4158 405.2484 73.2981 406.4779 72.2922 407.1485 70.8392 406.7014 69.4979 404.466 66.4801 404.0189 64.6917 404.466 63.127 406.3661 60.4444 407.0367 58.8796 407.3721 49.2673 408.0427 46.026 408.2662 44.0141 407.7074 41.8904 406.2543 37.6431 405.1366 37.5314 400.2187 38.8726 397.9833 38.9844 398.4304 37.9784 399.3245 34.1782 405.8073 23.8953 408.0427 19.0891 409.0486 18.0832 410.6134 17.189 410.7252 17.8596 410.6134 19.3127 411.7311 21.101 411.5076 21.6598 411.0605 23.2246 411.7311 23.2246 412.7371 22.2187 415.196 22.1069 415.7549 21.4363 416.3138 21.101 417.5432 21.5481 418.7727 22.7776 418.9963 24.6777 419.6669 23.4482 420.3375 23.56 421.2317 24.007 422.3494 23.8953 425.0319 21.9952 426.0378 21.7716 428.9439 22.554 429.6145 22.4422 429.8381 21.5481 429.5028 20.5421 428.7204 19.7597 428.0497 19.5362 426.1496 19.3127 424.9201 19.3127 424.026 19.8715 423.4671 20.5421 422.5729 21.5481 421.4552 22.1069 420.3375 21.7716 420.3375 20.5421 421.1199 15.9595 421.1199 14.2829 423.9142 16.5184 425.1437 17.0772 425.7025 15.4007 425.2554 14.6183 424.1377 13.5006 422.7965 12.6064 421.6788 12.1593 422.1259 11.1534 422.6847 11.0416 423.2436 11.0416 423.8024 10.7063 425.0319 9.1415 425.479 7.912 425.3672 5.5648 425.7025 4 426.2614 4 427.6026 6.9061 429.1674 5.9001 429.6145 5.453 430.3969 6.2354 429.8381 7.0178 429.8381 7.3531 430.0616 7.5767 430.3969 8.3591 431.2911 7.5767 431.8499 7.912 432.297 8.5826 432.9677 9.1415 435.2031 9.8121 436.4326 9.9239 437.662 9.8121 437.4385 9.365 437.1032 8.1355 436.9914 7.6884 439.0033 6.9061 440.0092 9.5886 439.7857 10.7063 438.4444 10.818 435.9855 10.7063 434.3089 11.2651 431.4029 13.8359 429.8381 14.8418 429.9498 14.8418 429.9498 15.5124 429.0557 16.6301 431.2911 18.8656 432.297 19.7597 433.6383 20.2068 434.5325 19.7597 435.5384 18.9773 436.6561 18.7538 437.662 20.2068 435.8737 23.4482 434.9795 23.7835 434.4207 21.7716 433.4147 21.8834 432.297 21.7716 432.7441 22.7776 432.7441 23.4482 432.6323 24.007 432.297 24.6777 433.5265 25.9072 434.9795 26.8013 436.3208 27.919 436.9914 29.9309 435.8737 29.8191 434.756 29.5956 433.8618 29.1485 432.9677 28.3661 431.6264 29.0367 430.3969 28.4779 429.7263 27.2484 429.6145 25.4601 429.0557 25.7954 427.6026 26.5778 427.0438 26.9131 427.0438 25.6836 427.1556 24.9012 427.6026 24.2306 428.385 23.8953 426.1496 23.56 423.8024 25.013 422.3494 27.0249 423.02 28.3661 422.5729 29.4838 422.4612 30.8251 422.5729 32.1663 423.02 33.6194 423.9142 31.3839 424.6966 30.2662 425.7025 29.9309 426.3732 30.6015 426.3732 31.831 426.1496 33.1723 425.7025 34.29 427.6026 35.0724 436.3208 34.9606 435.4266 36.4136 433.9736 37.6431 430.9558 39.4315 428.1615 40.5492 427.2673 41.4433 427.6026 43.2317 430.0616 41.8904 431.4029 43.1199 431.5146 45.1318 429.2792 46.6966 429.7263 47.7025 430.9558 49.4909 431.4029 50.2733 432.1853 50.7204 434.4207 51.2792 433.6383 51.8381 433.303 52.1734 432.9677 53.6264 431.5146 52.844 429.9498 52.3969 428.6086 52.5087 427.6026 53.6264 429.1674 56.0854 428.4968 58.5443 426.932 60.7798 425.7025 63.0152 425.5908 63.9094 425.7025 66.3683 423.8024 68.2684 422.2376 71.1745 421.1199 72.6275 419.6669 73.4099 419.6669 71.1745 418.3256 73.4099 416.9844 76.8748 416.3138 80.8986 416.9844 84.4752 417.5432 85.7047 413.5195 86.8224 411.9547 87.1578 410.3899 86.7107 409.7193 85.9283 408.7133 83.8046 407.9309 83.0222 405.5837 82.6869 405.2484 82.4634Z" />
  <path class="Muscat" d="M706.1364 376.5333L703.901 379.5512 697.53 386.7045 665.6752 382.4572 636.6147 362.6737 641.0856 338.7547 616.6077 313.4944 595.7065 316.2887 593.2475 305.8939 596.2653 290.8048 596.1536 290.8048 596.1536 290.4695 596.936 289.7989 602.9716 292.2579 604.5364 292.5932 606.213 293.3756 609.7897 296.9523 611.578 298.4053 614.9311 299.523 619.402 300.0818 624.0964 299.9701 628.1201 299.1877 630.2438 298.4053 631.0262 297.7347 631.8086 295.7228 632.591 295.7228 634.4911 296.2816 638.6266 296.2816 640.7503 296.7287 642.7622 297.7347 643.6563 299.0759 645.5564 303.3232 646.4506 304.2174 646.8977 304.4409 647.3448 304.888 647.6801 305.3351 648.0154 305.6704 648.2389 305.6704 648.7978 305.5586 649.4684 305.5586 650.1391 305.6704 651.4803 306.8999 652.2627 307.7941 652.7098 308.5765 653.3804 308.5765 654.051 307.1234 654.2746 307.6823 654.3864 308.0176 654.6099 308.4647 654.7217 309.3589 655.3923 309.3589 655.5041 308.8 655.9512 307.9058 656.51 308.3529 656.8453 308.4647 658.0748 307.9058 660.3102 311.0354 660.9809 312.712 660.6455 314.3886 661.4279 315.8416 662.4339 320.6477 663.6634 322.6596 669.3637 328.0246 672.8286 329.5894 674.2816 331.4895 675.8464 336.0722 676.8524 337.637 679.7584 340.543 681.2114 342.6667 682.1056 348.9259 688.253 355.185 688.5883 356.0792 689.1472 359.2088 689.5943 359.8794 690.0414 360.4383 692.7239 362.6737 697.8653 365.6915 701.2185 368.1505 703.5657 371.0565 705.2422 374.2979 706.1364 376.5333Z" />
</svg>