<?xml version="1.0" encoding="utf-8"?>
<svg xmlns="http://www.w3.org/2000/svg" viewBox="0 0 611 1024" style="stroke-width:0.25px;stroke-linejoin:round;stroke:#444;fill:#ddd" fill-rule="evenodd">
  <path class="Saint Anthony" d="M32.8431 508.7586L191.2229 529.2128 281.7575 571.2387 347.0319 639.4191 417.4477 681.4451 537.49 702.4581 559.1736 734.0893 583.9868 782.9333 602.429 833.1186 606.7881 871.009 583.0926 929.3536 544.308 974.7327 489.8755 1006.2521 422.0304 1020 77.4398 925.8887 1.2119 651.3787 32.8431 508.7586Z" />
  <path class="Saint Georges" d="M281.7575 571.2387L311.824 461.0323 357.0913 366.4739 407.3883 302.7644 500.0466 420.4594 560.6266 533.6836 558.3912 584.763 530.8955 673.174 537.49 702.4581 417.4477 681.4451 347.0319 639.4191 281.7575 571.2387Z" />
  <path class="Saint Peter" d="M32.8431 508.7586L77.4398 307.5705 191.2229 4 276.169 38.4255 320.2068 50.4968 376.0924 47.5908 344.6847 179.1454 407.3883 302.7644 357.0913 366.4739 311.824 461.0323 281.7575 571.2387 191.2229 529.2128 32.8431 508.7586Z" />
</svg>