<?xml version="1.0" encoding="utf-8"?>
<svg xmlns="http://www.w3.org/2000/svg" viewBox="0 0 465 1024" style="stroke-width:0.25px;stroke-linejoin:round;stroke:#444;fill:#ddd" fill-rule="evenodd">
  <path class="Balzers" d="M300.9688 496.9109L349.2539 525.5243 427.382 634.8365 440.2356 682.3393 405.363 687.8161 376.079 639.5309 345.1184 604.6583 319.5228 577.8332 288.4504 558.9439 300.9688 496.9109ZM189.4211 1004.9109L79.103 986.5804 5.1105 964.6733 1.422 919.6295 39.7595 867.9912 89.9448 816.1294 120.4583 846.1958 153.319 854.2433 155.1074 894.3692 177.1263 931.9243 186.1798 972.1619 189.4211 1004.9109ZM303.0924 846.1958L315.8343 873.0209 312.2576 907.7817 279.2851 907.7817 259.2781 873.0209 279.2851 843.5133 303.0924 846.1958Z" />
  <path class="Eschen" d="M259.0546 251.4614L287.2209 318.6359 283.756 353.0614 250.1129 319.8653 211.7754 309.1353 182.6031 333.3897 142.3655 309.1353 111.2931 284.9927 107.7164 236.5958 122.2466 188.1989 146.0539 185.5164 162.4843 225.8658 219.0405 255.3734 259.0546 251.4614Z" />
  <path class="Gamprin" d="M182.6031 333.3897L136.8887 349.4847 80.3325 346.8022 36.0711 322.5479 39.0889 259.2854 70.8319 167.7448 93.0744 174.7864 122.2466 188.1989 107.7164 236.5958 111.2931 284.9927 142.3655 309.1353 182.6031 333.3897Z" />
  <path class="Mauren" d="M222.1701 139.3549L213.2284 166.9624 227.7586 209.4354 259.0546 251.4614 219.0405 255.3734 162.4843 225.8658 146.0539 185.5164 178.9146 153.2145 222.1701 139.3549Z" />
  <path class="Planken" d="M251.5659 467.6268L300.9688 496.9109 288.4504 558.9439 262.8548 532.1188 239.1593 497.2462 251.5659 467.6268ZM283.756 353.0614L251.2306 425.7127 215.4638 416.6592 178.9146 376.3098 182.6031 333.3897 211.7754 309.1353 250.1129 319.8653 283.756 353.0614Z" />
  <path class="Ruggell" d="M192.886 60.2209L177.1263 91.4051 166.0609 123.5952 144.1538 155.897 146.0539 185.5164 122.2466 188.1989 93.0744 174.7864 70.8319 167.7448 95.7569 96.2112 150.0777 4 179.9206 48.2614 192.886 60.2209Z" />
  <path class="Schaan" d="M425.8172 898.6165L370.3787 969.0323 357.8603 910.4642 352.3835 854.2433 401.6746 835.4658 410.8398 875.5916 425.8172 898.6165ZM440.2356 682.3393L455.4365 738.8955 408.9397 738.7837 381.5558 736.1012 361.5487 744.2605 330.4763 749.6255 323.2112 677.086 310.3575 631.4834 281.1853 610.0233 288.4504 558.9439 319.5228 577.8332 345.1184 604.6583 376.079 639.5309 405.363 687.8161 440.2356 682.3393ZM251.2306 425.7127L251.5659 467.6268 239.1593 497.2462 206.2986 489.1987 164.2726 475.7861 138.677 494.5637 122.2466 465.0561 98.5512 456.8968 107.7164 534.8013 65.914 520.4946 56.4134 501.8288 31.2649 421.9124 36.0711 322.5479 80.3325 346.8022 136.8887 349.4847 182.6031 333.3897 178.9146 376.3098 215.4638 416.6592 251.2306 425.7127Z" />
  <path class="Schellenberg" d="M192.886 60.2209L235.2473 99.5644 222.1701 139.3549 178.9146 153.2145 146.0539 185.5164 144.1538 155.897 166.0609 123.5952 177.1263 91.4051 192.886 60.2209Z" />
  <path class="Triesen" d="M189.4211 1004.9109L186.1798 972.1619 177.1263 931.9243 155.1074 894.3692 153.319 854.2433 120.4583 846.1958 89.9448 816.1294 121.2407 751.7492 119.4524 648.8079 169.7494 642.2134 189.8682 669.0385 193.5567 717.3237 202.6101 776.4506 237.371 803.2757 266.5432 808.6407 279.2851 843.5133 259.2781 873.0209 279.2851 907.7817 312.2576 907.7817 315.8343 873.0209 303.0924 846.1958 352.3835 854.2433 357.8603 910.4642 370.3787 969.0323 347.242 998.5399 279.7322 1020 189.4211 1004.9109Z" />
  <path class="Triesenberg" d="M455.4365 738.8955L460.578 757.8966 437.8884 883.3039 425.8172 898.6165 410.8398 875.5916 401.6746 835.4658 403.4629 795.2282 381.5558 736.1012 408.9397 738.7837 455.4365 738.8955ZM279.2851 843.5133L266.5432 808.6407 237.371 803.2757 202.6101 776.4506 193.5567 717.3237 189.8682 669.0385 169.7494 642.2134 171.5377 583.1982 184.3914 569.7857 219.0405 569.7857 229.9941 540.1663 239.1593 497.2462 262.8548 532.1188 288.4504 558.9439 281.1853 610.0233 310.3575 631.4834 323.2112 677.086 330.4763 749.6255 304.8807 754.9905 306.7809 800.5932 303.0924 846.1958 279.2851 843.5133Z" />
  <path class="Vaduz" d="M169.7494 642.2134L119.4524 648.8079 92.0684 571.4623 65.914 520.4946 107.7164 534.8013 98.5512 456.8968 122.2466 465.0561 138.677 494.5637 164.2726 475.7861 206.2986 489.1987 239.1593 497.2462 229.9941 540.1663 219.0405 569.7857 184.3914 569.7857 171.5377 583.1982 169.7494 642.2134ZM352.3835 854.2433L303.0924 846.1958 306.7809 800.5932 304.8807 754.9905 330.4763 749.6255 361.5487 744.2605 381.5558 736.1012 403.4629 795.2282 401.6746 835.4658 352.3835 854.2433Z" />
</svg>