<?xml version="1.0" encoding="utf-8"?>
<svg xmlns="http://www.w3.org/2000/svg" viewBox="0 0 1021 527" style="stroke-width:0.25px;stroke-linejoin:round;stroke:#444;fill:#ddd" fill-rule="evenodd">
  <path class="Abkhazia" d="M329.3837 78.854L327.2601 83.7719 325.5835 89.2487 326.1424 95.1726 326.2541 100.8729 324.1305 106.7968 321.0009 111.8265 317.536 115.7385 314.6299 120.5447 306.8059 123.8978 292.0521 126.6921 290.8227 128.1451 288.4755 131.2747 291.158 134.7396 292.4992 139.0987 293.2816 144.0166 293.5052 144.6872 294.7347 148.3757 295.5171 152.8465 293.1699 155.9761 291.2697 157.2056 289.705 158.9939 289.5932 161.2294 290.7109 163.1295 292.2757 172.63 292.0521 177.995 292.7228 183.0248 296.9701 190.2899 297.5289 195.2078 297.976 199.2316 296.6348 202.92 293.9523 204.5966 290.7109 207.1673 288.3637 210.6322 288.1402 210.9675 276.2924 222.5917 263.2152 230.1922 262.7681 230.4157 255.2794 232.9865 253.1558 235.5572 249.8026 239.8045 244.1023 243.3812 242.4257 244.2754 238.7373 245.9519 238.0667 246.2872 230.2427 198.2256 227.6719 190.0663 223.76 183.1365 218.842 177.7715 212.5828 174.1948 201.0704 172.0712 198.6114 170.6182 196.1525 168.3827 192.464 166.3708 188.6638 164.9178 185.646 164.4707 183.8576 164.9178 180.8398 166.8179 178.9397 167.265 177.2631 166.2591 170.4451 155.7526 166.8684 143.0107 160.6092 132.0571 158.0385 126.1332 154.2383 126.245 148.3144 128.9275 144.5142 127.5862 140.0433 120.6564 137.3608 118.9799 137.2491 117.9739 133.7842 111.8265 132.6664 110.9323 121.7129 106.5733 106.512 104.4496 99.4704 104.8967 94.5525 106.1262 92.6524 106.238 90.864 105.5673 87.958 102.6613 86.505 101.9906 85.8343 101.4318 83.1518 98.6375 81.8106 97.6316 80.3575 97.0727 75.5514 96.1785 63.3683 90.3664 57.7798 89.6958 53.8678 94.8373 52.303 93.1607 50.0675 87.5722 48.6145 84.8897 45.2614 81.4248 43.6966 79.0776 44.3672 72.5948 42.02 66.4474 38.6669 60.8589 36.2079 57.7293 31.6253 55.6056 23.2425 53.0349 18.4363 48.1169 16.2009 47.111 9.2711 45.9933 4.5767 43.9814 1 43.199 1.7824 39.6223 12.0653 12.6855 14.0772 9.3323 17.7657 6.9851 27.9369 4.1909 38.3316 4.1909 75.7749 18.1623 81.8106 18.9447 86.505 17.7152 96.3408 12.5737 101.8176 11.9031 106.1767 14.1385 107.5179 15.2562 115.2301 21.0683 130.6546 26.4333 135.5725 29.3394 156.3619 45.9933 160.9446 47.2228 176.7043 45.0991 181.9575 46.2168 186.7637 48.6758 191.4581 52.476 196.7113 54.8232 207.5531 52.6996 212.1358 54.4879 213.5888 56.4998 215.7124 61.4177 217.0537 63.5414 219.2891 65.2179 227.2249 67.6769 231.1369 70.1359 237.9549 77.0657 241.9787 79.3011 247.5672 79.86 258.6326 78.2952 264.1094 78.9658 274.057 81.7601 278.7514 82.3189 289.3696 81.0894 293.7287 81.313 298.1996 82.5425 302.8939 84.8897 307.7001 86.3427 312.5063 86.5662 317.4242 85.5603 329.3837 78.854Z" />
  <path class="Ajaria" d="M394.8816 414.9499L394.6581 415.0617 391.6403 417.4089 390.0755 420.762 388.6224 429.0331 387.0576 432.2745 383.8163 435.7394 379.2337 442.6692 376.1041 444.6811 374.3157 444.7928 372.3039 444.9046 345.7023 434.5099 338.3254 434.957 334.637 434.6217 332.178 432.2745 329.9426 430.9332 327.7072 430.9332 322.901 432.2745 320.7773 431.2685 318.6537 430.9332 316.53 431.2685 314.2946 432.2745 308.9296 433.951 298.0878 429.8155 292.0521 432.2745 289.9285 433.8393 285.2341 440.6573 279.0867 445.9106 277.6337 446.8047 275.8453 446.0223 269.8097 440.322 267.7978 439.6514 263.327 439.0925 261.5386 438.4219 260.9798 437.0806 260.9798 435.5158 261.2033 433.951 260.9798 433.1686 259.7503 433.1686 255.9501 434.8452 251.4792 435.2923 249.5791 434.8452 233.3723 428.0272 243.3199 410.1438 247.7908 404.1081 256.956 398.0725 259.5267 392.0369 266.5683 380.3009 267.0154 377.9537 267.0154 376.0536 267.2389 374.4888 268.1331 372.7004 270.5921 369.2355 271.3745 367.559 271.7098 365.7706 271.7098 349.2285 291.4933 350.2344 295.5171 352.6934 297.8642 354.0347 298.6466 358.282 306.1353 361.4116 309.0414 363.3117 310.9415 364.2058 315.5241 367.7825 317.4242 367.4472 317.6477 367.4472 321.448 365.9942 328.8249 365.1 333.631 367.6707 336.3135 369.2355 340.7844 370.465 343.5787 370.0179 351.738 368.6767 359.8972 363.5352 364.0328 362.3057 367.3859 363.0881 373.198 369.012 375.0981 370.0179 378.8983 370.465 379.569 372.3651 381.1338 376.7242 380.9102 383.7658 379.2337 386.4483 378.8983 390.2485 379.9043 393.1546 381.3573 395.6135 385.3811 399.4138 388.846 403.5493 393.3168 410.7026 394.8816 414.9499Z" />
  <path class="Guria" d="M262.8799 317.3737L265.3388 313.0146 266.1212 312.0087 266.7919 308.0967 268.9155 302.3964 278.4161 300.608 288.1402 300.2727 306.9177 297.0314 315.3006 299.155 323.0128 304.2965 332.6251 305.526 340.6726 309.6615 337.2077 315.0265 340.8961 320.3915 348.3848 321.7328 351.1791 322.5152 353.6381 321.7328 358.3325 318.715 363.6975 320.0562 366.6035 324.8624 368.6154 330.7862 372.9745 333.4688 378.3395 335.0336 382.2515 337.9396 386.387 340.0633 389.2931 341.8516 392.4227 343.3046 397.1171 342.9693 401.6997 344.1988 404.0469 353.0287 404.3822 363.3117 400.4702 363.4234 397.1171 365.7706 395.7758 369.3473 393.2051 371.471 389.8519 370.8003 386.387 369.5708 378.8983 370.465 375.0981 370.0179 373.198 369.012 367.3859 363.0881 364.0328 362.3057 359.8972 363.5352 351.738 368.6767 343.5787 370.0179 340.7844 370.465 336.3135 369.2355 333.631 367.6707 328.8249 365.1 321.448 365.9942 317.6477 367.4472 317.4242 367.4472 315.5241 367.7825 310.9415 364.2058 309.0414 363.3117 306.1353 361.4116 298.6466 358.282 297.8642 354.0347 295.5171 352.6934 291.4933 350.2344 271.7098 349.2285 271.7098 348.4461 269.9215 335.5924 269.6979 331.0098 269.0273 328.1037 262.8799 317.3737Z" />
  <path class="Imereti" d="M340.6726 309.6615L346.7083 308.8791 349.8378 302.6199 349.6143 291.8899 351.1791 283.2835 353.9734 280.0421 355.6499 274.6771 362.2444 263.7235 372.8627 251.4287 374.8746 246.6226 375.0981 240.6987 376.5512 237.4573 378.7866 235.4454 381.1338 228.2921 385.7164 223.5977 393.4286 223.0388 396.1111 222.3682 399.0172 222.1447 400.3584 226.9508 400.3584 232.0923 401.5879 236.0043 401.6997 240.3634 417.9065 234.8866 421.7067 236.5631 425.7305 236.8985 429.0836 233.4336 432.7721 233.3218 441.1549 238.6868 448.8671 245.8402 450.7672 252.3229 454.5674 255.3407 457.8088 256.0113 465.0739 260.0351 475.9157 259.0292 482.2867 256.4584 487.5399 250.9816 501.9584 243.493 518.0535 245.2813 533.4779 243.94 542.9784 247.5167 543.202 247.5167 546.4433 248.7462 551.8084 251.9876 557.6205 252.9935 562.0913 251.8758 566.2268 249.5286 571.033 248.858 574.4979 252.9935 572.7096 259.588 572.5978 266.2943 560.9736 269.4239 553.8202 274.5653 550.6906 276.8008 550.2436 279.2597 549.4612 282.8364 550.4671 289.4309 549.5729 294.6842 548.7905 295.5783 548.6788 295.6901 547.7846 296.5843 545.4374 298.5961 543.3138 304.52 540.6312 309.7733 535.7133 313.4617 531.466 317.709 530.9072 326.3154 528.56 333.6923 523.0832 338.4985 521.9655 346.4342 476.6981 364.9882 474.2392 364.5411 471.6684 363.647 456.0205 364.9882 449.5377 367.7825 442.7197 367.6707 429.7542 364.8765 413.771 368.9002 404.3822 363.3117 404.0469 353.0287 401.6997 344.1988 397.1171 342.9693 392.4227 343.3046 389.2931 341.8516 386.387 340.0633 382.2515 337.9396 378.3395 335.0336 372.9745 333.4688 368.6154 330.7862 366.6035 324.8624 363.6975 320.0562 358.3325 318.715 353.6381 321.7328 351.1791 322.5152 348.3848 321.7328 340.8961 320.3915 337.2077 315.0265 340.6726 309.6615Z" />
  <path class="Kakheti" d="M770.4328 362.5293L768.3091 356.4936 763.6147 353.6993 767.6385 349.2285 772.1094 346.4342 780.4922 351.911 792.5635 350.1227 787.1985 343.5282 779.8216 341.6281 776.1331 341.2927 772.78 340.0633 771.327 333.8041 773.6741 328.2155 770.9916 321.7328 770.5446 316.0325 768.6444 308.0967 770.7681 303.4023 773.1153 291.6663 776.0213 287.0837 779.0392 276.689 782.8394 272.1064 786.7514 268.4179 789.881 267.9708 792.8988 266.8531 794.24 258.9174 792.3399 250.7581 793.793 245.9519 797.1461 242.9341 799.4933 237.6809 799.0462 231.4217 801.0581 222.1447 805.976 214.8795 806.0878 214.8795 807.6526 218.568 809.2174 220.9152 814.2471 223.0388 820.7298 222.1447 832.9129 218.4562 841.631 218.6798 854.3729 220.9152 866.2207 225.6096 872.3681 232.9865 872.3681 233.21 871.921 237.9044 854.4847 283.6188 855.9377 288.425 860.5204 291.331 866.6678 294.2371 883.3217 305.8613 893.8282 308.6556 895.9518 310.6674 900.1991 321.3975 901.8757 323.6329 903.8876 324.7506 906.6818 324.9741 907.7996 324.5271 909.8114 322.9623 911.0409 322.627 912.0469 323.074 914.6176 325.3095 915.8471 325.9801 918.6414 325.8683 920.6532 325.3095 922.1063 326.3154 923.224 330.7862 926.8007 332.4628 931.495 332.5746 940.325 330.7862 940.4367 330.7862 940.4367 330.6745 941.778 330.3392 943.0075 330.2274 944.3487 330.3392 945.8018 330.7862 949.7138 334.0276 956.42 341.9634 960.6673 343.8635 969.7208 344.6459 973.4092 346.7695 977.0977 351.7992 971.2856 363.647 968.0442 369.012 961.5615 376.9477 959.3261 378.9596 956.8671 380.0773 953.7375 380.4127 946.6959 378.8479 943.3428 379.1832 940.4367 382.3128 938.9837 389.2426 939.0955 399.5255 940.9956 408.6908 945.1311 412.0439 946.4724 410.9262 947.143 409.1378 948.149 407.573 950.2726 407.4613 950.6079 408.579 953.9611 415.0617 954.1846 416.5147 955.4141 424.4505 956.7553 428.8096 959.3261 432.1627 967.2618 437.7513 969.0502 438.5337 972.1798 439.3161 979.2213 445.9106 993.9751 452.1697 1001.4638 456.6406 1003.811 462.2292 1006.1582 461.335 1007.1641 462.0056 1007.3877 462.1174 1008.3936 463.9057 1011.2997 467.1471 1016.1058 474.524 1017 477.43 1016.5529 477.6536 1015.3234 477.43 1013.9822 479.1066 1013.6469 480.5596 1013.5351 484.1363 1013.1998 485.4776 1012.3056 486.707 1010.2937 488.6072 1009.3996 489.8366 1007.9465 495.3134 1007.1641 502.2432 1005.9347 508.6142 1005.0405 509.8437 1002.9168 512.7497 1000.0108 513.3086 997.1047 512.5262 994.0869 512.1909 990.9573 514.2028 989.2807 517.4441 988.3866 520.5737 987.0453 522.6974 983.6922 522.8091 981.0097 521.1326 976.7624 515.4322 974.3034 513.1968 965.2499 510.2908 962.1204 508.3906 953.1787 500.2314 948.8196 494.7546 946.4724 492.4074 943.6781 491.4014 932.2774 491.5132 928.9243 492.2956 925.1241 494.7546 921.1003 497.3253 918.0825 498.443 914.5058 498.7783 907.1289 497.8842 884.6629 489.7249 877.0625 485.0305 874.1564 483.2421 867.8972 477.8771 864.2088 472.065 867.5619 467.9295 871.0268 466.5882 873.2623 465.4705 873.0387 464.241 869.462 462.788 859.6262 460.7761 837.8308 452.2815 832.9129 447.5871 830.7892 445.0164 828.5538 444.6811 823.5241 446.1341 820.5063 446.4694 818.0473 446.0223 810.7822 442.2221 810.3351 438.7572 809.3292 436.0747 808.0997 433.7275 806.982 428.6978 804.1877 424.674 799.4933 423.3328 794.6871 422.8857 791.8928 421.0974 790.7751 417.1854 789.9927 411.7086 795.1342 399.6373 792.3399 388.7955 791.1105 382.3128 788.4279 376.836 782.7276 376.2771 777.6979 372.5887 774.3448 367.0001 770.4328 362.5293Z" />
  <path class="Kvemo Kartli" d="M591.7107 383.5422L626.695 387.0072 631.3894 385.4424 636.1956 384.5482 643.349 386.3365 650.6141 385.107 659.7793 380.6362 662.5736 381.9774 665.0326 384.8835 668.4975 386.3365 679.004 386.113 681.4629 380.748 689.8458 381.8657 696.8873 386.8954 704.0407 393.3781 711.9765 389.3543 714.7707 390.025 715.2178 392.931 717.3415 395.7253 721.8123 395.5018 734.1072 401.8727 737.9074 402.208 741.5958 403.1022 745.9549 405.3376 751.767 405.6729 757.4673 403.7728 761.7146 397.4019 760.3734 392.3722 757.9144 394.384 755.9025 397.1783 752.4376 398.0725 748.8609 397.1783 746.1784 395.8371 743.943 393.8252 743.1606 390.2485 742.1547 386.6718 739.2486 383.9893 739.5839 380.5244 744.0548 376.2771 747.6315 371.918 749.4198 366.2177 751.9905 362.4175 755.2319 361.188 762.8323 362.9763 770.4328 362.5293 774.3448 367.0001 777.6979 372.5887 782.7276 376.2771 788.4279 376.836 791.1105 382.3128 792.3399 388.7955 795.1342 399.6373 789.9927 411.7086 790.7751 417.1854 791.8928 421.0974 794.6871 422.8857 799.4933 423.3328 804.1877 424.674 806.982 428.6978 808.0997 433.7275 809.3292 436.0747 810.3351 438.7572 810.7822 442.2221 807.9879 440.7691 803.07 440.4338 798.152 442.2221 775.1272 461.2232 760.7087 473.2945 758.8086 474.4122 755.4554 477.5418 753.5553 478.8831 747.855 478.9948 733.213 476.7594 730.3069 479.6655 731.5364 482.5715 737.2367 485.254 738.2427 486.707 738.8015 487.6012 737.3485 489.7249 733.3248 490.1719 711.0823 489.7249 704.8231 487.2659 701.6935 486.8188 698.4521 488.2718 696.552 490.9543 694.6519 494.0839 692.4165 496.0958 689.2869 495.2017 688.5045 493.6369 687.9457 491.625 687.1633 490.0602 685.4867 490.1719 684.5925 490.9543 681.4629 494.3075 677.7745 495.4252 674.4213 495.2017 671.0682 493.9722 663.0207 489.0542 661.1206 488.8307 659.3322 489.3895 658.1028 490.5073 656.985 491.7367 655.6438 492.7427 652.0671 493.3015 649.2728 492.2956 641.8959 487.1541 637.8722 485.4776 636.1956 485.4776 634.4073 486.707 634.0719 488.2718 633.9602 489.9484 633.1778 491.8485 630.7188 494.3075 627.8128 495.8723 624.5714 496.4311 618.2004 494.6428 615.1826 494.9781 609.0352 497.7724 605.5703 498.5548 604.0055 488.1601 602.4407 484.9187 600.4288 482.0127 599.3111 473.071 601.5465 464.241 600.9877 459.882 599.3111 455.97 596.1815 453.9581 595.0638 449.3755 594.952 444.9046 594.505 440.6573 593.9461 437.863 592.4931 436.6336 589.6988 430.7097 585.7868 426.5741 578.5217 426.1271 571.2565 427.9154 564.662 428.2507 559.297 427.2448 560.303 424.0034 562.5384 422.2151 564.1032 417.2971 564.9974 397.0666 568.4623 390.6956 575.1685 391.8133 584.222 391.478 591.7107 383.5422Z" />
  <path class="Mtskheta-Mtianeti" d="M681.4629 380.748L681.4629 375.4947 684.369 372.0298 683.9219 364.2058 688.0574 360.0703 693.646 359.8468 695.7696 354.1464 691.6341 347.6637 686.6044 341.8516 685.4867 334.4747 684.1454 330.1156 684.0337 329.7803 683.5866 328.1037 678.3333 325.1977 667.4915 322.8505 662.3501 322.627 657.8792 325.8683 655.532 328.1037 653.5201 330.0039 652.7377 324.7506 648.6022 322.5152 647.9316 319.162 649.1611 315.3618 649.2728 315.0265 649.6081 304.52 651.9553 294.5724 653.7437 293.0076 655.6438 291.6663 657.0968 289.2074 658.1028 286.5249 661.2323 284.0659 663.8031 280.4892 662.5736 274.1183 660.0029 268.6415 660.5617 262.2705 660.2264 256.0113 658.2145 253.3288 656.0909 251.2052 655.4202 248.0756 655.1967 244.7224 654.079 242.7106 652.4024 241.5928 654.6378 234.3277 659.5558 228.1803 657.2086 224.8272 654.6378 222.5917 649.4964 213.5383 642.343 211.5264 639.2134 207.2791 637.3133 201.8023 637.0898 201.1317 638.7663 200.5728 640.89 198.4492 643.796 195.5431 646.5903 189.731 650.0552 185.4837 663.5795 185.2602 669.727 183.2483 681.4629 176.8773 685.822 175.6479 693.4224 175.089 699.9052 175.8714 705.6055 177.6597 706.1644 177.8833 711.7529 181.1246 714.2119 183.0248 718.6827 187.8309 720.4711 190.6252 724.1595 202.5847 726.0596 204.5966 727.4009 203.1436 729.8598 191.8547 734.2189 182.2424 735.2249 179.001 739.0251 173.7477 745.6196 175.089 762.1617 186.9367 764.8442 188.278 767.6385 188.8369 770.5446 188.3898 771.8858 187.7191 776.1331 185.819 779.0392 185.4837 783.8453 187.3838 788.2044 191.184 803.1817 209.4028 804.8583 212.197 806.0878 214.8795 805.976 214.8795 801.0581 222.1447 799.0462 231.4217 799.4933 237.6809 797.1461 242.9341 793.793 245.9519 792.3399 250.7581 794.24 258.9174 792.8988 266.8531 789.881 267.9708 786.7514 268.4179 782.8394 272.1064 779.0392 276.689 776.0213 287.0837 773.1153 291.6663 770.7681 303.4023 768.6444 308.0967 770.5446 316.0325 770.9916 321.7328 773.6741 328.2155 771.327 333.8041 772.78 340.0633 776.1331 341.2927 779.8216 341.6281 787.1985 343.5282 792.5635 350.1227 780.4922 351.911 772.1094 346.4342 767.6385 349.2285 763.6147 353.6993 768.3091 356.4936 770.4328 362.5293 762.8323 362.9763 755.2319 361.188 751.9905 362.4175 749.4198 366.2177 747.6315 371.918 744.0548 376.2771 734.7778 371.471 730.8658 371.1356 728.5186 375.2712 724.2713 378.0655 719.9122 377.9537 716.7826 384.8835 713.8766 386.113 711.9765 389.3543 704.0407 393.3781 696.8873 386.8954 689.8458 381.8657 681.4629 380.748Z" />
  <path class="Racha-Lechkhumi-Kvemo Svaneti" d="M399.0172 222.1447L387.5047 199.1198 391.5285 190.5134 384.7105 183.4718 367.7212 173.8595 359.3384 166.5944 363.1386 159.441 367.9448 156.7585 373.5333 156.3114 375.4334 155.8644 376.9982 154.6349 378.563 150.8347 380.4631 147.3697 384.2634 147.4815 388.0636 149.2699 409.5237 154.5231 418.3536 154.8584 422.4891 152.9583 424.3892 151.3935 426.2893 150.4993 442.7197 157.8762 453.785 156.4232 463.1738 159.9999 467.4211 160.7823 470.1036 156.4232 470.5507 150.0523 473.9039 146.8109 479.0453 139.5458 483.9633 137.5339 486.8693 139.2105 515.9298 147.3697 530.1248 151.3935 535.8251 152.8465 546.2198 157.988 548.7905 160.2234 555.0497 167.7121 557.844 169.5004 571.9272 172.9653 575.9509 174.9772 578.7452 176.4303 580.4218 182.4659 576.9569 187.3838 571.5919 191.184 567.3446 195.4314 566.8975 201.467 571.2565 206.832 578.0746 208.6204 585.4515 209.291 591.4871 210.8558 594.952 213.5383 594.0579 223.933 586.0103 229.7451 582.769 235.669 579.8629 237.122 558.7382 238.7986 546.4433 248.7462 543.202 247.5167 542.9784 247.5167 533.4779 243.94 518.0535 245.2813 501.9584 243.493 487.5399 250.9816 482.2867 256.4584 475.9157 259.0292 465.0739 260.0351 457.8088 256.0113 454.5674 255.3407 450.7672 252.3229 448.8671 245.8402 441.1549 238.6868 432.7721 233.3218 429.0836 233.4336 425.7305 236.8985 421.7067 236.5631 417.9065 234.8866 401.6997 240.3634 401.5879 236.0043 400.3584 232.0923 400.3584 226.9508 399.0172 222.1447Z" />
  <path class="Samegrelo-Zemo Svaneti" d="M238.0667 246.2872L238.7373 245.9519 242.4257 244.2754 244.1023 243.3812 249.8026 239.8045 253.1558 235.5572 255.2794 232.9865 262.7681 230.4157 263.2152 230.1922 276.2924 222.5917 288.1402 210.9675 288.3637 210.6322 290.7109 207.1673 293.9523 204.5966 296.6348 202.92 297.976 199.2316 297.5289 195.2078 296.9701 190.2899 292.7228 183.0248 292.0521 177.995 292.2757 172.63 290.7109 163.1295 289.5932 161.2294 289.705 158.9939 291.2697 157.2056 293.1699 155.9761 295.5171 152.8465 294.7347 148.3757 293.5052 144.6872 293.2816 144.0166 292.4992 139.0987 291.158 134.7396 288.4755 131.2747 290.8227 128.1451 292.0521 126.6921 306.8059 123.8978 314.6299 120.5447 317.536 115.7385 321.0009 111.8265 324.1305 106.7968 326.2541 100.8729 326.1424 95.1726 325.5835 89.2487 327.2601 83.7719 329.3837 78.854 330.1661 78.4069 334.0781 77.1774 359.6737 75.0538 360.9032 75.1656 370.0684 76.5068 378.6748 82.3189 382.5868 86.3427 387.0576 89.8076 396.2229 94.9491 399.1289 95.6197 401.3644 94.7255 405.3881 90.9253 407.9589 89.584 412.765 89.4723 419.8066 87.3486 425.8422 87.4604 431.6543 89.0252 435.9017 91.8195 440.149 95.8432 444.508 98.7493 457.4735 103.5554 457.4735 106.3497 456.3558 109.7029 455.9087 113.056 457.2499 115.2914 464.7386 120.5447 481.0572 135.9691 483.9633 137.5339 479.0453 139.5458 473.9039 146.8109 470.5507 150.0523 470.1036 156.4232 467.4211 160.7823 463.1738 159.9999 453.785 156.4232 442.7197 157.8762 426.2893 150.4993 424.3892 151.3935 422.4891 152.9583 418.3536 154.8584 409.5237 154.5231 388.0636 149.2699 384.2634 147.4815 380.4631 147.3697 378.563 150.8347 376.9982 154.6349 375.4334 155.8644 373.5333 156.3114 367.9448 156.7585 363.1386 159.441 359.3384 166.5944 367.7212 173.8595 384.7105 183.4718 391.5285 190.5134 387.5047 199.1198 399.0172 222.1447 396.1111 222.3682 393.4286 223.0388 385.7164 223.5977 381.1338 228.2921 378.7866 235.4454 376.5512 237.4573 375.0981 240.6987 374.8746 246.6226 372.8627 251.4287 362.2444 263.7235 355.6499 274.6771 353.9734 280.0421 351.1791 283.2835 349.6143 291.8899 349.8378 302.6199 346.7083 308.8791 340.6726 309.6615 332.6251 305.526 323.0128 304.2965 315.3006 299.155 306.9177 297.0314 288.1402 300.2727 278.4161 300.608 268.9155 302.3964 266.7919 308.0967 266.1212 312.0087 265.3388 313.0146 262.8799 317.3737 258.2972 309.2144 256.6207 307.8732 255.0559 306.1966 254.3853 302.2846 254.0499 295.3548 252.8205 286.0778 244.8847 258.0232 244.2141 256.7937 243.2081 255.2289 239.0726 251.2052 238.5138 249.7521 238.0667 246.2872Z" />
  <path class="Samtskhe-Javakheti" d="M521.9655 346.4342L526.2128 346.0989 536.0486 348.5579 541.4136 351.0168 542.8667 353.9229 543.6491 357.1642 545.6609 358.9526 547.2257 361.2998 552.3672 365.7706 557.0616 366.553 559.297 371.918 564.1032 373.8182 569.3564 376.7242 575.0568 375.9418 585.3397 375.7183 591.7107 383.5422 584.222 391.478 575.1685 391.8133 568.4623 390.6956 564.9974 397.0666 564.1032 417.2971 562.5384 422.2151 560.303 424.0034 559.297 427.2448 564.662 428.2507 571.2565 427.9154 578.5217 426.1271 585.7868 426.5741 589.6988 430.7097 592.4931 436.6336 593.9461 437.863 594.505 440.6573 594.952 444.9046 595.0638 449.3755 596.1815 453.9581 599.3111 455.97 600.9877 459.882 601.5465 464.241 599.3111 473.071 600.4288 482.0127 602.4407 484.9187 604.0055 488.1601 605.5703 498.5548 605.5703 498.6666 602.2172 499.449 588.2458 499.7843 581.6513 502.4668 574.6097 508.726 571.7036 509.9554 568.0152 510.2908 543.3138 506.7141 536.831 507.0494 528.6717 510.4025 527.2187 510.7378 525.6539 510.6261 524.2009 510.2908 525.8774 505.0375 523.7538 500.3431 519.6183 496.4311 515.4827 494.0839 510.6766 492.7427 506.3175 493.078 492.3461 496.99 490.2224 495.4252 486.534 486.4835 483.5162 482.9068 480.4983 482.5715 477.1452 482.9068 473.1215 481.6773 481.2807 477.43 483.5162 475.5299 485.5281 472.6239 485.3045 471.5062 480.8337 470.9473 476.251 468.7119 468.8741 462.2292 457.8088 454.6287 455.5734 452.2815 450.9908 443.6751 449.873 442.3339 448.5318 441.775 447.7494 440.9926 447.1905 440.0985 446.2964 439.2043 441.8255 437.7513 440.596 436.9689 439.3666 434.7334 438.5842 432.2745 437.4664 430.9332 435.4546 432.1627 431.6543 436.5218 428.8601 435.5158 425.954 432.3862 422.042 430.0391 423.3833 428.0272 426.2893 425.5682 427.5188 424.0034 428.1894 422.2151 428.5248 420.2032 428.9718 418.1913 430.2013 416.2912 427.2953 414.9499 406.0587 413.0498 398.4583 413.7205 395.4405 414.7264 394.8816 414.9499 393.3168 410.7026 388.846 403.5493 385.3811 399.4138 381.3573 395.6135 379.9043 393.1546 378.8983 390.2485 379.2337 386.4483 380.9102 383.7658 381.1338 376.7242 379.569 372.3651 378.8983 370.465 386.387 369.5708 389.8519 370.8003 393.2051 371.471 395.7758 369.3473 397.1171 365.7706 400.4702 363.4234 404.3822 363.3117 413.771 368.9002 429.7542 364.8765 442.7197 367.6707 449.5377 367.7825 456.0205 364.9882 471.6684 363.647 474.2392 364.5411 476.6981 364.9882 521.9655 346.4342Z" />
  <path class="Shida Kartli" d="M594.952 213.5383L596.9639 214.9913 599.7582 216.4443 602.5525 215.9972 604.8997 213.9854 608.5881 208.7321 610.6 206.4967 617.1945 203.4789 631.7248 202.6965 637.0898 201.1317 637.3133 201.8023 639.2134 207.2791 642.343 211.5264 649.4964 213.5383 654.6378 222.5917 657.2086 224.8272 659.5558 228.1803 654.6378 234.3277 652.4024 241.5928 654.079 242.7106 655.1967 244.7224 655.4202 248.0756 656.0909 251.2052 658.2145 253.3288 660.2264 256.0113 660.5617 262.2705 660.0029 268.6415 662.5736 274.1183 663.8031 280.4892 661.2323 284.0659 658.1028 286.5249 657.0968 289.2074 655.6438 291.6663 653.7437 293.0076 651.9553 294.5724 649.6081 304.52 649.2728 315.0265 649.1611 315.3618 647.9316 319.162 648.6022 322.5152 652.7377 324.7506 653.5201 330.0039 655.532 328.1037 657.8792 325.8683 662.3501 322.627 667.4915 322.8505 678.3333 325.1977 683.5866 328.1037 684.0337 329.7803 684.1454 330.1156 685.4867 334.4747 686.6044 341.8516 691.6341 347.6637 695.7696 354.1464 693.646 359.8468 688.0574 360.0703 683.9219 364.2058 684.369 372.0298 681.4629 375.4947 681.4629 380.748 679.004 386.113 668.4975 386.3365 665.0326 384.8835 662.5736 381.9774 659.7793 380.6362 650.6141 385.107 643.349 386.3365 636.1956 384.5482 631.3894 385.4424 626.695 387.0072 591.7107 383.5422 585.3397 375.7183 575.0568 375.9418 569.3564 376.7242 564.1032 373.8182 559.297 371.918 557.0616 366.553 552.3672 365.7706 547.2257 361.2998 545.6609 358.9526 543.6491 357.1642 542.8667 353.9229 541.4136 351.0168 536.0486 348.5579 526.2128 346.0989 521.9655 346.4342 523.0832 338.4985 528.56 333.6923 530.9072 326.3154 531.466 317.709 535.7133 313.4617 540.6312 309.7733 543.3138 304.52 545.4374 298.5961 547.7846 296.5843 548.6788 295.6901 548.7905 295.5783 549.5729 294.6842 550.4671 289.4309 549.4612 282.8364 550.2436 279.2597 550.6906 276.8008 553.8202 274.5653 560.9736 269.4239 572.5978 266.2943 572.7096 259.588 574.4979 252.9935 571.033 248.858 566.2268 249.5286 562.0913 251.8758 557.6205 252.9935 551.8084 251.9876 546.4433 248.7462 558.7382 238.7986 579.8629 237.122 582.769 235.669 586.0103 229.7451 594.0579 223.933 594.952 213.5383Z" />
  <path class="Tbilisi" d="M711.9765 389.3543L713.8766 386.113 716.7826 384.8835 719.9122 377.9537 724.2713 378.0655 728.5186 375.2712 730.8658 371.1356 734.7778 371.471 744.0548 376.2771 739.5839 380.5244 739.2486 383.9893 742.1547 386.6718 743.1606 390.2485 743.943 393.8252 746.1784 395.8371 748.8609 397.1783 752.4376 398.0725 755.9025 397.1783 757.9144 394.384 760.3734 392.3722 761.7146 397.4019 757.4673 403.7728 751.767 405.6729 745.9549 405.3376 741.5958 403.1022 737.9074 402.208 734.1072 401.8727 721.8123 395.5018 717.3415 395.7253 715.2178 392.931 714.7707 390.025 711.9765 389.3543Z" />
</svg>