<?xml version="1.0" encoding="utf-8"?>
<svg xmlns="http://www.w3.org/2000/svg" viewBox="0 0 940 1024" style="stroke-width:0.25px;stroke-linejoin:round;stroke:#444;fill:#ddd" fill-rule="evenodd">
  <path class="Ali Sabieh" d="M806.2725 752.9787L656.9462 987.8099 648.1163 984.7921 642.416 989.5982 636.8274 996.6398 635.1508 997.1987 622.5207 996.1927 620.1735 995.9692 614.1378 995.5221 612.7966 995.4103 610.0023 995.1868 607.208 994.4044 591.2248 992.7278 583.0655 988.5923 582.8419 988.4805 569.8765 973.8385 564.5114 953.2726 558.0287 942.4308 557.3581 942.319 497.337 931.4772 497.0017 931.4772 488.3953 932.9303 479.3418 934.6068 479.3418 934.495 481.9125 876.7094 489.0659 861.0614 534.5568 834.6834 605.9785 792.5457 623.5266 778.4625 650.5752 728.8361 732.8388 712.2939 750.6105 719.4473 806.2725 752.9787Z" />
  <path class="Arta" d="M806.2725 752.9787L750.6105 719.4473 732.8388 712.2939 650.5752 728.8361 623.5266 778.4625 605.9785 792.5457 534.5568 834.6834 417.7559 814.0057 371.5944 745.6018 357.2877 700.1109 344.5458 635.2836 342.3103 611.2528 362.2056 635.7307 370.812 642.6605 436.5334 672.6152 436.8688 686.4748 439.9983 698.2108 458.5524 705.4759 469.7295 715.7589 476.6593 718.4414 484.4833 716.9883 493.425 708.7173 499.7959 706.7054 504.7139 708.0466 509.9671 710.5056 515.4439 711.6233 520.5854 708.829 523.8267 701.5639 520.0265 697.2048 514.2144 694.187 511.3084 690.9457 516.2263 681.4451 527.5152 673.5094 553.2226 663.5617 591.4483 658.9791 603.6314 655.7377 609.4435 651.3787 614.0261 646.6843 618.6087 644.8959 624.9796 649.5903 629.5623 651.8257 643.9807 651.6022 644.6514 652.9435 675.2767 685.8042 707.6903 689.1573 728.368 689.0455 795.2072 676.5272 797.4426 675.9683 803.4782 684.6865 809.8492 689.3809 827.3972 698.8814 835.5565 706.9289 806.2725 752.9787Z" />
  <path class="Dikhil" d="M534.5568 834.6834L489.0659 861.0614 481.9125 876.7094 479.3418 934.495 479.3418 934.6068 479.23 934.6068 471.6296 936.6187 418.8736 950.7019 403.1139 955.6198 338.7337 976.1857 305.8729 980.6565 233.2217 987.0275 207.2908 987.4746 198.2373 991.9454 190.7486 992.7278 175.6595 997.7575 163.4765 1010.1641 149.7286 1017.7646 143.693 1019.2176 138.8868 1019.6647 130.1686 1020 102.8965 1015.8645 90.3781 1013.7408 70.0358 1009.6053 44.7755 1002.6755 31.4747 996.8634 30.4688 996.4163 28.5686 995.6339 18.0622 982.5567 24.0978 969.2559 25.1037 941.4249 25.4391 930.3595 27.5627 890.569 30.5805 839.0425 28.5686 825.6299 20.2976 768.4031 1.1847 695.4165 6.438 677.3096 17.8386 637.2955 22.7565 620.418 23.8743 616.3943 40.1928 561.4029 75.289 542.6253 77.9715 540.5017 90.0428 531.3364 107.5909 517.8121 131.5099 482.6042 222.7152 504.6231 246.1871 513.9001 342.3103 611.2528 344.5458 635.2836 357.2877 700.1109 371.5944 745.6018 417.7559 814.0057 534.5568 834.6834Z" />
  <path class="Djibouti" d="M797.4426 675.9683L795.2072 676.5272 728.368 689.0455 707.6903 689.1573 675.2767 685.8042 644.6514 652.9435 643.9807 651.6022 722.7794 650.5963 734.7389 648.1373 746.0278 648.4726 758.0991 655.7377 769.1645 653.0552 775.0883 645.1195 779.4474 637.519 785.4831 635.7307 788.8362 641.6546 796.8837 675.2977 797.4426 675.9683Z" />
  <path class="Obock" d="M748.375 505.0702L734.9625 491.4341 730.2681 484.2807 714.2848 449.8552 707.6903 439.5723 591.4483 309.8059 577.0298 305.7822 571.2177 303.435 566.0762 300.1936 538.0217 275.9393 533.8861 271.2449 530.8683 267.1094 517.6793 239.949 516.3381 235.4781 516.2263 231.0073 517.1205 226.76 518.797 223.1833 520.9207 220.2772 528.4094 214.018 530.0859 202.5056 528.7447 193.1168 546.5163 188.0871 554.2285 177.0218 558.9229 171.7685 575.8003 168.6389 582.8419 164.8387 586.0833 149.3025 580.83 131.1956 578.9299 113.9828 603.4078 90.7344 616.5968 59.4385 625.9856 51.1674 631.0153 51.8381 637.9451 57.3149 643.7572 56.756 766.1466 4 775.3119 10.1474 780.6769 20.3186 785.036 31.7193 791.0716 41.5551 846.1748 104.7058 859.4756 125.9424 867.4113 134.3252 876.2413 136.8959 885.4065 130.4132 885.4065 150.7556 886.5242 160.4796 889.3185 170.2037 893.7893 178.1395 898.9308 184.3987 902.9546 191.4403 904.7429 201.7232 905.4135 223.7421 907.0901 235.3663 910.6668 243.4139 931.6798 272.9215 933.3563 282.6455 931.6798 316.1769 935.8153 359.6559 932.7975 378.0981 924.5264 395.1991 912.3433 409.5058 897.366 419.2299 892.8952 420.4594 877.6943 423.1419 862.3816 430.9659 851.0927 433.0895 826.9502 433.6484 816.2201 436.5545 797.8897 449.6317 754.6342 501.7171 751.7282 503.6172 748.375 505.0702Z" />
  <path class="Tadjourah" d="M436.5334 672.6152L370.812 642.6605 362.2056 635.7307 342.3103 611.2528 246.1871 513.9001 222.7152 504.6231 131.5099 482.6042 150.6228 454.6614 169.5121 426.1597 208.1849 360.2147 208.8556 359.5441 214.4441 352.9496 231.6569 333.1661 280.5009 260.5149 301.1785 242.855 310.232 234.5839 319.9561 205.1881 327.7801 183.3927 342.7574 164.1681 361.6468 141.4785 356.8406 136.5606 379.3066 112.1945 389.1425 110.5179 404.4551 114.5417 430.386 126.1659 518.5735 204.741 526.0622 193.8992 528.7447 193.1168 530.0859 202.5056 528.4094 214.018 520.9207 220.2772 518.797 223.1833 517.1205 226.76 516.2263 231.0073 516.3381 235.4781 517.6793 239.949 530.8683 267.1094 533.8861 271.2449 538.0217 275.9393 566.0762 300.1936 571.2177 303.435 577.0298 305.7822 591.4483 309.8059 707.6903 439.5723 714.2848 449.8552 730.2681 484.2807 734.9625 491.4341 748.375 505.0702 742.7865 507.4174 738.8745 509.9881 736.3037 513.9001 734.1801 521.8359 731.1623 525.3008 723.2265 528.2068 692.4894 529.6598 684.4419 532.6777 675.9473 538.6015 667.5645 542.4018 652.2518 536.8132 641.5218 538.6015 589.1011 557.2673 574.3473 566.3208 561.3818 580.404 521.9266 652.6081 518.1264 657.6378 512.8732 660.5439 495.3251 665.6854 490.1836 666.0207 476.6593 663.5617 461.7937 664.1206 457.0993 663.5617 453.9697 661.3263 448.6047 653.8376 445.5869 651.714 433.2921 652.4964 426.6976 657.3025 426.5858 661.3263 434.0745 659.538 436.5334 672.0563 436.5334 672.6152Z" />
</svg>