<?xml version="1.0" encoding="utf-8"?>
<svg xmlns="http://www.w3.org/2000/svg" viewBox="0 0 961 1024" style="stroke-width:0.25px;stroke-linejoin:round;stroke:#444;fill:#ddd" fill-rule="evenodd">
  <path class="Busan" d="M660.1811 665.4618L661.4106 663.2264 663.7578 660.3204 665.8814 657.079 667.4462 646.1254 669.6816 643.4429 672.4759 641.3193 676.0526 639.8662 679.9646 639.978 682.8706 641.8781 683.7648 646.0136 686.4473 649.7021 689.9122 652.6081 692.7065 656.073 695.7243 659.2026 696.0596 659.8733 695.2772 661.4381 692.93 661.3263 691.2535 661.3263 689.018 661.6616 687.4532 661.5498 685.8884 662.2205 683.9883 662.444 683.8766 665.1265 685.1061 666.9149 685.3296 669.0385 684.5472 671.4975 681.0823 673.0623 678.3998 670.7151 676.7232 669.3738 675.4937 667.809 671.47 672.0563 669.6816 675.5212 669.1228 679.0979 667.8933 679.9921 667.2227 678.092 665.3226 676.1919 665.5461 677.8684 665.8814 681.6686 664.7637 681.6686 664.2048 680.4392 663.5342 680.1039 661.9694 681.2216 660.5164 682.1157 659.5105 680.8862 658.281 676.6389 658.8398 672.9505 659.9575 668.1443 660.1811 665.4618Z" />
  <path class="Daegu" d="M626.6497 532.3424L625.532 532.007 624.079 532.1188 624.079 533.3483 623.9672 534.9131 622.5142 538.7133 622.5142 539.831 622.0671 541.6194 618.6022 543.6312 609.884 541.3958 604.9661 540.9487 602.8425 542.6253 600.7188 546.4255 599.4893 547.4315 598.1481 546.202 596.248 544.9725 593.5655 542.8488 591.7771 539.3839 589.5417 537.1485 587.1945 536.2543 586.3003 532.7894 588.424 529.8834 590.6594 529.8834 593.1184 529.4363 593.789 527.7597 594.0125 525.8596 592.6713 525.3008 591.2183 525.0772 592.8948 521.3888 595.4656 518.5945 594.5714 510.0999 601.7248 504.176 611.3371 502.8348 619.2728 502.2759 625.4202 506.7468 627.3204 510.0999 627.2086 511.5529 626.538 512.8942 626.538 517.5886 627.7674 519.3769 629.444 520.8299 629.6675 523.736 629.7793 526.9773 628.9969 529.8834 626.6497 532.3424Z" />
  <path class="Daejeon" d="M435.8563 433.7602L435.0739 438.1193 433.062 441.3606 430.9384 449.5199 426.9146 452.6495 424.791 453.4319 418.1965 458.3498 410.7078 460.2499 407.5782 450.0788 406.7958 436.4427 404.0015 431.0777 395.954 418.3358 402.8838 416.4356 412.7197 413.7531 416.1846 414.0884 415.8493 415.4297 416.4081 416.8827 417.4141 418.0004 418.7553 418.6711 419.6495 420.7947 419.0906 424.0361 423.6733 425.3773 428.4794 424.2596 430.2678 421.6889 432.3914 422.2477 432.1679 424.3714 433.9562 425.3773 434.2915 428.7305 435.8563 433.7602Z" />
  <path class="Gangwon" d="M729.8145 388.0458L728.3615 388.0458 723.3318 386.8163 718.4139 389.0517 707.9074 385.1397 709.5839 380.6689 709.1369 376.4216 707.7956 371.7272 707.3485 366.4739 709.4722 361.4442 711.037 356.6381 709.8075 355.2968 708.578 354.0673 709.1369 349.7083 698.0715 348.9259 694.8301 347.0257 691.3652 345.5727 689.9122 342.1078 688.7945 338.084 683.7648 335.6251 680.6352 330.9307 679.9646 324.7833 681.0823 320.0889 683.653 318.1888 686.5591 317.0711 690.9182 318.8594 694.4948 316.1769 693.0418 311.8178 688.3474 308.9118 683.0942 307.6823 679.0704 309.9177 675.0466 310.9237 669.4581 308.3529 663.5342 307.347 661.5223 308.1294 659.8458 307.9058 658.6163 306.2293 656.7162 305.4469 652.4689 308.8 647.8862 310.5883 647.5509 307.2352 647.8862 303.9938 645.3155 302.6526 642.4095 301.982 640.2858 298.1817 636.1503 297.8464 632.0147 299.8583 629.2205 303.2114 630.2264 307.9058 629.7793 312.2649 628.8851 316.2887 624.9732 315.9534 620.5023 314.9474 616.7021 313.3826 612.7901 311.259 609.7723 309.3589 606.7545 308.0176 602.8425 307.5705 598.9305 306.7881 594.9067 304.2174 591.33 301.4231 587.7534 301.5349 584.0649 302.6526 580.8235 303.2114 578.0293 303.435 576.9116 300.976 573.8937 297.8464 574.229 295.0521 572.6642 293.4873 565.5109 294.2697 560.9283 295.8345 559.4752 296.5052 558.134 296.3934 556.0103 295.2757 554.3338 293.3756 556.9045 289.3518 561.2636 286.2222 563.0519 282.1985 560.3694 281.4161 551.6513 280.0748 543.2684 277.057 539.6917 279.7395 536.7857 281.3043 533.0972 280.5219 530.0794 282.8691 525.0497 285.6634 520.02 286.8928 518.1199 284.2103 518.1199 280.1866 512.4196 274.0392 504.7074 276.7217 501.8013 280.1866 502.6955 289.4636 499.5659 291.5872 498.56 292.8167 497.3305 293.8227 496.101 293.152 494.7597 292.3696 490.1771 292.0343 485.5945 293.152 486.824 283.9868 470.7289 286.2222 454.7457 290.5813 462.905 275.3804 469.723 258.8383 479 238.8312 480.2295 234.5839 479.3353 230.2249 481.3472 226.76 484.1415 223.4068 487.1593 222.1773 488.7241 218.7124 486.9358 215.8064 484.7003 213.9063 481.1237 213.4592 477.4352 212.0062 472.2937 211.3355 463.7991 206.6411 459.9989 205.0763 456.1987 202.6174 451.9514 201.9468 447.9276 203.1762 444.5745 200.382 444.798 197.2524 446.3628 194.011 447.0334 190.2108 447.0334 186.4106 443.1215 187.64 441.2213 185.2928 445.6922 180.1514 444.9098 176.6865 443.6803 173.2216 444.5745 170.6508 444.5745 167.5212 444.2392 164.5034 451.9514 158.8031 455.081 157.7971 456.7575 155.1146 457.5399 147.4024 453.9633 141.8139 451.0572 141.255 448.2629 139.9138 446.1393 134.3252 442.7861 134.1017 439.2095 134.3252 435.2975 131.5309 433.3974 126.3894 432.615 117.336 431.1619 112.7534 430.156 111.971 429.0383 112.0827 428.1441 112.8651 427.1382 113.0887 424.5674 111.1886 418.3083 113.424 412.4961 112.0827 410.149 110.6297 407.69 108.3943 407.69 104.8176 408.8077 101.3527 409.7019 100.1232 410.2607 98.782 409.2548 97.9996 408.0253 97.6642 406.7958 97.8878 405.6781 98.782 403.6662 101.3527 401.4308 103.6999 398.0777 104.2587 394.9481 102.1351 394.3892 100.235 394.1657 98.3349 393.048 97.6642 391.9303 98.8937 391.5949 100.9056 391.4832 107.2766 389.5831 110.2944 383.9945 107.7237 378.853 103.0293 377.0647 101.2409 375.2763 101.4645 373.5998 99.0055 372.4821 95.8759 371.1408 94.1993 369.4642 92.8581 368.2348 89.8403 365.9993 88.3872 360.6343 84.9223 357.6165 83.4693 358.5107 82.3516 366.7817 75.5336 376.5058 69.4979 379.3001 68.2684 385.4475 65.8095 386.5652 65.3624 393.3833 64.58 396.4011 64.2447 401.2073 64.8035 410.596 63.9094 412.2726 63.7976 419.873 63.127 434.2915 67.486 438.3153 67.1507 438.8741 67.0389 439.3212 66.9272 447.7041 64.3564 465.2521 62.9034 467.0405 62.6799 476.9881 61.7857 478.2176 62.6799 480.1177 65.4741 482.0178 67.3743 484.1415 67.9331 494.0891 65.8095 509.9606 66.7036 520.3553 65.9212 520.9142 65.6977 529.297 62.6799 530.7501 62.2328 532.6502 61.0033 540.3624 55.8618 548.5217 47.479 551.9866 42.4493 554.8926 37.0843 556.9045 31.0486 557.5751 24.2306 556.2339 17.5243 555.8986 14.1712 556.9045 11.7122 561.04 8.3591 569.4229 4 569.5347 4 574.1173 12.9417 581.1589 26.9131 582.6119 33.0605 586.1886 42.3375 599.6011 68.8273 609.9958 96.6583 611.6724 99.6761 617.1492 106.3824 619.2728 112.0827 644.4213 148.1848 654.2572 162.4915 665.9932 175.5688 667.6697 176.91 675.6055 186.187 675.9408 190.099 675.9408 194.7934 676.9468 198.7054 682.3118 201.7232 683.8766 204.9646 688.2356 219.3831 690.2475 222.7362 692.5947 224.1892 694.6066 226.2011 701.5364 239.7254 705.6719 244.9787 707.125 247.8847 707.5721 250.9025 708.6898 253.8086 715.9549 261.8561 718.3021 268.4506 720.4257 282.8691 723.22 290.8048 731.044 301.6466 731.6029 303.8821 730.7087 306.1175 729.2557 308.2411 728.4733 310.253 728.3615 312.1531 729.4792 318.077 730.8205 334.9545 732.1617 342.7784 737.1914 358.7617 737.6385 366.5857 736.0737 373.7391 732.6088 380.3336 729.8145 388.0458Z" />
  <path class="Gwangju" d="M360.5226 645.9019L363.6521 654.3965 357.6165 662.444 348.3395 660.8792 340.0684 655.9613 335.9329 646.796 339.1743 643.7782 344.651 645.1195 348.563 644.2253 352.6986 642.9958 360.5226 645.9019Z" />
  <path class="Gyeonggi" d="M360.6343 84.9223L365.9993 88.3872 368.2348 89.8403 369.4642 92.8581 371.1408 94.1993 372.4821 95.8759 373.5998 99.0055 375.2763 101.4645 377.0647 101.2409 378.853 103.0293 383.9945 107.7237 389.5831 110.2944 391.4832 107.2766 391.5949 100.9056 391.9303 98.8937 393.048 97.6642 394.1657 98.3349 394.3892 100.235 394.9481 102.1351 398.0777 104.2587 401.4308 103.6999 403.6662 101.3527 405.6781 98.782 406.7958 97.8878 408.0253 97.6642 409.2548 97.9996 410.2607 98.782 409.7019 100.1232 408.8077 101.3527 407.69 104.8176 407.69 108.3943 410.149 110.6297 412.4961 112.0827 418.3083 113.424 424.5674 111.1886 427.1382 113.0887 428.1441 112.8651 429.0383 112.0827 430.156 111.971 431.1619 112.7534 432.615 117.336 433.3974 126.3894 435.2975 131.5309 439.2095 134.3252 442.7861 134.1017 446.1393 134.3252 448.2629 139.9138 451.0572 141.255 453.9633 141.8139 457.5399 147.4024 456.7575 155.1146 455.081 157.7971 451.9514 158.8031 444.2392 164.5034 444.5745 167.5212 444.5745 170.6508 443.6803 173.2216 444.9098 176.6865 445.6922 180.1514 441.2213 185.2928 443.1215 187.64 447.0334 186.4106 447.0334 190.2108 446.3628 194.011 444.798 197.2524 444.5745 200.382 447.9276 203.1762 451.9514 201.9468 456.1987 202.6174 459.9989 205.0763 463.7991 206.6411 472.2937 211.3355 477.4352 212.0062 481.1237 213.4592 484.7003 213.9063 486.9358 215.8064 488.7241 218.7124 487.1593 222.1773 484.1415 223.4068 481.3472 226.76 479.3353 230.2249 480.2295 234.5839 479 238.8312 469.723 258.8383 462.905 275.3804 454.7457 290.5813 453.6279 292.5932 452.3985 294.4933 451.2807 295.2757 450.0513 296.2816 449.1571 297.7347 448.4865 299.2994 441.2213 312.8238 437.4211 315.5063 436.527 314.3886 433.6209 313.7179 431.2737 316.1769 429.9325 319.4183 428.1441 321.7655 424.2321 323.442 421.7732 326.1245 420.4319 331.7131 415.4022 333.3897 408.9195 336.5193 402.1014 338.5311 394.9481 337.5252 389.136 332.6073 382.5415 329.5894 370.0231 334.9545 364.0992 334.9545 356.9459 333.5014 358.846 332.0484 361.1932 330.9307 362.758 329.1424 363.8757 324.5597 363.5404 323.6656 362.0873 322.2125 361.8638 321.7655 362.6462 321.0948 363.5404 320.9831 364.3228 320.9831 366.3347 319.8653 367.6759 319.6418 368.6818 318.9712 369.1289 316.7358 360.0755 319.3065 358.7342 321.2066 359.1813 327.1305 358.0636 328.4717 354.4869 329.5894 349.569 328.9188 343.5333 325.4539 338.1683 320.0889 336.1564 315.0592 345.2099 314.0532 345.2099 312.8238 344.5393 312.6002 343.198 311.4825 344.8746 311.259 346.4394 311.3707 348.0042 311.8178 349.2337 312.8238 348.6748 309.2471 346.5512 306.0057 345.0981 302.3173 346.1041 297.2876 344.4275 296.5052 343.0862 298.2935 342.3039 301.3113 342.0803 304.3292 341.2979 307.6823 339.8449 308.4647 338.5036 307.0117 335.5976 307.5705 332.6915 308.3529 325.6499 306.2293 325.6499 304.1056 325.0911 302.2055 325.6499 299.6348 325.3146 296.3934 327.103 293.152 329.1149 290.3578 331.5738 289.1283 334.1446 288.1223 337.9448 288.1223 342.0803 287.0046 342.9745 285.7751 343.198 282.1985 342.1921 281.5278 340.0684 282.6455 336.9388 285.4398 335.0387 284.9927 333.5857 284.0986 332.8033 282.6455 332.8033 280.2983 329.2266 282.1985 326.3206 284.2103 320.8438 290.1342 319.5025 291.2519 317.7142 291.8108 316.1494 291.8108 315.1435 290.8048 315.1435 289.1283 316.1494 287.3399 318.3848 284.2103 313.914 285.2163 312.4609 284.7692 312.0139 282.1985 312.7963 280.2983 314.6964 279.1806 316.82 278.51 318.3848 277.6158 320.1732 275.0451 319.7261 274.4862 315.5905 275.0451 314.2493 274.1509 313.2433 272.1391 312.2374 269.5683 311.0079 267.2211 311.6785 266.9976 312.1256 266.6623 313.0198 265.7681 314.1375 266.6623 315.8141 266.5505 318.8319 265.7681 321.1791 266.4387 323.191 267.6682 325.2029 268.3388 327.5501 267.2211 327.3265 269.3448 327.5501 271.3567 328.2207 273.0332 329.6737 273.7039 331.3503 273.0332 332.0209 271.2449 332.8033 267.2211 335.374 263.4209 337.4977 263.6444 339.8449 265.0975 343.198 264.6504 342.4156 263.0856 341.5215 261.8561 340.292 261.0737 338.9507 260.7384 336.8271 260.7384 335.8211 259.2854 333.5857 258.9501 331.7974 259.5089 330.009 259.3971 327.103 258.8383 322.2968 257.2735 315.7023 252.3556 315.367 250.1201 318.3848 245.8728 320.2849 243.8609 325.0911 242.4079 326.2088 241.6255 328.2207 240.0607 330.3443 235.9252 331.7974 231.2308 330.3443 228.8836 327.8854 227.207 326.3206 223.5186 326.3206 219.0477 317.3789 210.4414 309.6667 210.6649 302.7369 210.8884 301.9545 209.2119 300.8367 206.4176 299.4955 204.1822 297.9307 201.4997 296.1424 199.8231 296.1424 197.2524 295.4717 193.3404 293.9069 187.4165 291.6715 171.6568 292.2304 168.9743 294.2422 168.6389 302.6251 171.6568 305.3076 171.0979 307.543 169.9802 309.4431 169.6449 311.5668 170.9861 312.2374 173.2216 312.5727 176.7982 312.3492 180.3749 311.5668 182.8339 311.455 187.4165 316.1494 191.3285 321.9615 193.7875 325.6499 194.011 322.8557 190.9932 314.0257 184.734 316.5965 177.916 317.3789 173.8922 316.7083 170.9861 315.2552 167.9683 315.1435 166.4035 315.0317 164.1681 315.7023 160.2561 317.2671 157.2383 316.1494 155.7853 314.6964 156.0088 314.0257 156.4559 314.0257 156.0088 315.7023 151.6497 315.7023 151.3144 315.8141 149.8614 315.9259 148.6319 315.9259 147.9613 315.8141 146.8436 315.8141 145.167 315.8141 144.0493 316.1494 143.1551 316.4847 142.2609 316.5965 141.5903 316.2612 140.3608 315.8141 138.2372 314.6964 135.1076 316.7083 134.884 320.6202 133.431 321.8497 132.4251 322.5204 132.2015 323.191 131.8662 323.5263 131.7545 325.5382 131.5309 327.7736 131.7545 329.1149 131.5309 330.009 130.6367 331.462 128.4013 333.4739 125.9424 335.4858 123.9305 336.0447 123.3716 338.6154 121.0244 340.0684 119.2361 340.9626 117.8948 341.0744 117.6713 342.0803 115.6594 342.6392 113.3122 342.7509 111.971 342.8627 111.5239 343.4216 109.7355 343.7569 108.9531 344.5393 107.5001 344.8746 106.9413 346.4394 105.4882 347.5571 104.8176 350.3514 102.6939 352.8103 100.5703 353.3692 100.1232 353.5927 100.0114 355.0458 99.229 357.2812 97.9996 357.7283 97.776 358.3989 96.9936 358.3989 96.5465 358.3989 96.323 358.1754 95.8759 356.9459 94.0876 356.9459 93.3052 357.393 89.7285 357.7283 88.7226 358.0636 87.4931 358.6224 86.8224 359.0695 86.04 359.2931 85.9283 360.1872 85.593 360.5226 85.0341 360.6343 84.9223ZM380.3061 210.6649L381.7591 205.2999 381.6473 200.6055 380.0825 196.3582 379.0766 190.2108 376.3941 185.7399 371.029 185.2928 366.2229 186.4106 363.2051 189.6519 361.0814 194.2345 357.6165 198.7054 350.7985 199.376 349.9043 202.3938 349.6807 205.6352 346.4394 207.6471 342.8627 208.8766 338.0565 205.8587 333.8092 205.6352 331.462 210.4414 335.0387 214.9122 338.0565 219.1595 338.8389 224.6363 341.8568 226.6482 346.3276 227.9894 350.7985 233.8015 357.2812 234.0251 359.9637 233.578 362.6462 232.0132 366.4464 230.8955 370.2466 230.0013 371.9232 234.0251 376.3941 231.7897 380.7531 230.7837 384.6651 228.4365 386.1182 225.8658 388.6889 222.4009 387.4594 220.9479 387.4594 217.5947 389.6948 216.0299 391.8185 214.9122 392.2656 212.1179 391.1479 209.3237 388.0183 209.3237 384.4416 210.6649 380.3061 210.6649ZM312.6845 157.3501L312.3492 157.5736 312.3492 156.903 312.6845 157.3501ZM255.9047 162.4915L258.9226 162.3798 261.7168 162.8268 263.1699 164.3916 262.1639 167.8565 259.4814 170.2037 256.1283 170.4273 249.7573 168.9743 248.4161 169.5331 246.7395 170.4273 245.1747 170.5391 244.6158 168.4154 244.9512 167.7448 246.7395 162.4915 248.5278 160.7032 250.6515 160.1443 253.1105 160.7032 255.9047 162.4915ZM265.2935 183.0574L267.1936 184.5105 268.6466 186.187 268.8702 187.9754 267.3054 190.099 264.2876 190.2108 254.0046 182.275 255.2341 181.0455 255.9047 179.4807 256.7989 175.9041 257.246 175.0099 258.0284 174.004 258.8108 173.2216 259.705 172.998 260.2638 173.3333 260.5991 174.004 260.8227 174.7864 261.3815 178.2513 261.4933 178.9219 262.2757 180.1514 263.1699 181.2691 265.2935 183.0574ZM288.2066 201.835L286.9771 201.9468 286.0829 201.4997 284.5182 199.8231 283.4004 199.1525 282.5063 199.376 281.9474 200.0466 281.3886 200.382 273.341 200.829 270.435 199.4878 267.3054 195.3523 271.9998 194.1228 273.1175 193.3404 274.347 191.3285 274.2352 190.4343 273.341 189.7637 272.5586 188.7578 267.1936 178.4748 266.8583 176.91 267.4172 174.7864 267.1936 165.7329 267.8642 163.721 269.3173 163.1622 272.8939 158.9149 275.6882 158.2442 278.0354 160.0326 280.3826 162.7151 282.618 164.8387 287.536 167.2977 289.4361 169.1978 290.2185 172.3274 290.1067 173.8922 289.3243 176.4629 289.1008 177.5806 289.4361 178.9219 290.8891 181.4926 291.2244 182.8339 291.6715 189.7637 291.2244 191.3285 292.0068 192.4462 292.901 194.4581 293.3481 195.3523 291.3362 196.47 289.6596 200.4937 288.2066 201.835ZM19.1734 128.2895L20.8499 130.3014 20.6264 133.2075 18.5028 134.6605 15.5967 132.9839 11.6847 133.3193 10.9023 133.6546 10.9023 135.6664 12.4671 136.4488 14.2554 136.7842 15.0378 137.4548 11.9083 139.9138 5.7608 139.0196 1.1782 135.1076 2.743 128.2895 6.5432 129.6308 14.9261 126.7248 19.1734 128.2895ZM226.3971 272.2508L225.2794 272.8097 224.6088 272.5861 224.6088 271.9155 225.1677 268.7859 225.9501 266.2152 227.0678 264.6504 228.2972 265.5446 229.415 267.3329 230.4209 268.2271 234.2211 270.2389 235.3388 271.4684 234.6682 272.5861 232.7681 274.598 231.4268 275.1569 229.6385 275.4922 228.1855 274.8216 227.1795 273.0332 226.7325 272.0273 226.3971 272.2508ZM284.5182 262.5267L286.0829 263.5327 286.7536 265.8799 286.0829 266.6623 284.4064 267.2211 283.8475 268.4506 283.7358 269.5683 282.3945 271.1331 280.6062 271.5802 279.4884 270.686 278.259 270.7978 277.253 270.2389 276.9177 267.78 277.1413 265.321 278.4825 263.6444 281.0532 262.1914 284.5182 262.5267ZM304.3017 266.9976L304.637 267.8917 304.9723 269.5683 304.1899 271.2449 296.4777 277.5041 292.901 277.9512 293.0128 276.9452 294.5776 274.7098 294.8011 273.3685 294.1305 272.3626 296.1424 270.0154 296.1424 267.78 295.36 264.9857 294.2422 262.9738 293.1245 261.7443 293.4598 261.409 296.0306 262.5267 298.1542 260.7384 298.6013 260.8502 298.1542 262.5267 298.8249 263.9798 300.6132 264.9857 303.4075 266.2152 304.3017 266.9976ZM164.0288 186.0752L165.5936 186.2988 166.7113 187.4165 166.2642 189.4284 164.8112 190.8814 163.9171 191.3285 163.47 190.3226 162.5758 187.8636 162.7993 186.2988 164.0288 186.0752ZM16.7144 153.8851L17.9439 154.5558 18.1674 155.7853 17.4968 157.4618 16.938 159.4737 16.3791 161.1503 15.2614 161.7091 14.0319 161.5974 13.026 161.9327 12.2436 162.8268 11.9083 162.9386 11.9083 162.3798 11.9083 162.1562 11.4612 161.262 10.2317 159.6972 10.6788 158.1325 13.2495 156.1206 14.8143 154.444 15.5967 153.7734 16.7144 153.8851Z" />
  <path class="Incheon" d="M302.7369 210.8884L309.6667 210.6649 317.3789 210.4414 326.3206 219.0477 326.3206 223.5186 327.8854 227.207 330.3443 228.8836 331.7974 231.2308 330.3443 235.9252 328.2207 240.0607 326.2088 241.6255 325.0911 242.4079 320.2849 243.8609 319.8378 242.5197 311.9021 241.5138 308.2136 246.2081 304.4134 243.3021 305.9782 239.8372 307.9901 236.8194 306.7606 234.6957 303.9663 233.2427 301.5074 231.9014 301.8427 228.4365 301.3956 225.6422 302.8486 223.0715 307.2077 221.7303 308.549 221.0596 308.8843 219.4948 306.7606 218.936 306.2018 220.6125 303.0722 220.9479 302.2898 219.0477 301.9545 215.5828 302.7369 210.8884ZM296.5894 217.5947L297.1483 218.1536 297.8189 219.1595 298.6013 219.9419 299.1602 221.1714 299.6073 222.1773 298.7131 222.5127 297.4836 223.5186 296.9248 224.1892 294.354 224.8598 293.1245 224.6363 291.5597 225.4187 287.9831 226.8717 286.0829 228.6601 284.9652 230.5602 278.3707 235.4781 276.9177 235.1428 275.5765 235.3663 274.9058 235.1428 274.347 232.7956 273.1175 232.125 272.5586 232.6838 271.9998 232.9074 271.888 232.4603 272.1116 231.7897 271.7762 230.8955 270.8821 230.7837 270.2114 231.5661 269.3173 232.2367 268.1996 231.7897 266.523 231.3426 267.5289 230.4484 267.1936 229.3307 265.5171 227.7659 265.07 226.76 265.6288 225.4187 266.523 225.0834 267.8642 225.754 274.6823 220.9479 279.6002 220.389 282.9534 220.5008 286.0829 218.8242 287.0889 214.5769 289.2125 213.7945 291.0009 215.5828 291.7833 215.9182 292.6774 216.3652 293.5716 216.7006 294.4658 216.8123 295.36 216.9241 296.5894 217.5947Z" />
  <path class="Jeju" d="M354.5987 969.1441L355.7164 971.4913 355.0458 972.3855 353.5927 972.8326 352.475 974.062 352.5868 975.068 353.5927 976.7446 353.5927 977.7505 353.0339 978.7564 351.6926 980.433 351.4691 980.9919 348.7866 984.1215 343.5333 988.257 341.9685 991.7219 339.7331 995.6339 339.6213 997.3105 338.6154 999.6576 334.8152 1000.1047 333.3622 1000.8871 329.4502 1000.44 323.6381 1005.1344 308.3254 1007.9287 303.1839 1012.2878 296.9248 1013.629 290.2185 1012.9584 282.5063 1014.4114 276.1353 1012.5113 261.7168 1012.7349 257.246 1014.7468 254.5635 1019.5529 252.1045 1020 249.6455 1018.8823 246.2924 1013.2937 241.598 1011.7289 237.2389 1007.0345 235.6741 1001.3342 238.3567 993.9573 240.9274 989.3747 242.4922 987.8099 247.7454 984.6803 252.2163 976.8563 256.3518 975.7386 258.2519 971.6031 265.4053 969.1441 280.8297 964.785 284.7417 961.4319 299.4955 959.8671 309.5549 955.508 311.9021 956.1787 324.1969 954.1668 331.2385 953.6079 335.9329 954.3903 337.833 957.0728 340.0684 958.8612 347.3336 961.7672 349.569 964.0026 351.022 969.4794 352.475 971.6031 353.2574 970.7089 354.1516 969.9265 354.5987 969.1441Z" />
  <path class="North Chungcheong" d="M454.7457 290.5813L470.7289 286.2222 486.824 283.9868 485.5945 293.152 490.1771 292.0343 494.7597 292.3696 496.101 293.152 497.3305 293.8227 498.56 292.8167 499.5659 291.5872 502.6955 289.4636 501.8013 280.1866 504.7074 276.7217 512.4196 274.0392 518.1199 280.1866 518.1199 284.2103 520.02 286.8928 525.0497 285.6634 530.0794 282.8691 533.0972 280.5219 536.7857 281.3043 539.6917 279.7395 543.2684 277.057 551.6513 280.0748 560.3694 281.4161 563.0519 282.1985 561.2636 286.2222 556.9045 289.3518 554.3338 293.3756 556.0103 295.2757 558.134 296.3934 559.4752 296.5052 560.9283 295.8345 565.5109 294.2697 572.6642 293.4873 574.229 295.0521 573.8937 297.8464 576.9116 300.976 578.0293 303.435 580.8235 303.2114 584.0649 302.6526 587.7534 301.5349 591.33 301.4231 594.9067 304.2174 598.9305 306.7881 602.8425 307.5705 606.7545 308.0176 609.7723 309.3589 612.7901 311.259 611.0018 313.3826 608.8781 314.6121 607.0898 313.9415 605.6367 314.8356 602.1718 318.5241 598.2598 321.7655 595.8009 324.2244 592.6713 325.2304 590.7712 326.7952 589.4299 329.1424 584.7355 332.4955 581.3824 337.3017 579.8176 340.8783 577.9175 344.3432 578.9234 346.2433 580.9353 348.1435 578.6999 355.5204 566.0697 360.8854 560.7047 359.097 558.3575 354.5144 554.7809 351.3848 552.3219 349.5965 550.31 347.3611 548.4099 349.3729 546.7333 351.8319 546.0627 354.8497 544.945 357.8675 540.5859 357.5322 535.8915 355.9674 533.4326 354.4026 530.8618 355.9674 528.4029 359.3206 525.385 359.6559 522.9261 357.9793 521.1377 361.1089 519.2376 365.2444 518.2317 369.1564 521.1377 372.8449 523.2614 377.0922 512.5314 375.4156 506.831 372.9567 503.4779 377.8746 498.2246 380.3336 493.5303 383.5749 493.0832 385.8103 493.1949 387.5987 492.3008 389.4988 488.9476 394.0814 486.7122 396.4286 484.4768 396.8757 482.2414 397.8816 484.0297 402.1289 489.9536 403.1349 497.3305 413.9767 494.5362 416.6592 493.0832 421.0183 492.4125 431.1894 491.5184 435.7721 492.5243 439.0134 494.2009 442.0312 491.9655 446.2785 488.6123 449.1846 489.6183 458.1263 495.6539 456.6733 499.3424 457.9028 503.5897 461.4794 506.6075 462.9325 514.3197 461.0323 517.6728 463.6031 519.4612 473.3272 516.2198 473.1036 512.6431 472.433 508.9547 475.6744 509.7371 480.7041 509.8488 483.2748 509.5135 486.2926 508.0605 488.081 506.831 490.2046 505.6015 495.0108 503.2543 499.5934 499.4541 500.8229 495.7657 502.723 493.7538 504.7349 491.8537 506.5232 489.6183 505.2937 487.3828 503.1701 481.7943 505.7408 476.9881 508.6469 474.5292 507.9762 473.0761 506.1879 466.3699 503.9525 464.0227 501.27 461.4519 499.8169 460.5578 501.1582 459.3283 501.3817 457.8752 500.0405 456.534 498.4757 453.0691 493.1107 450.0513 487.6339 448.71 481.2629 448.9336 474.7802 447.3688 469.1916 442.6744 466.2856 438.2035 464.8326 433.2856 465.8385 432.9503 460.4735 433.1738 455.332 434.9622 448.0669 438.4271 441.9195 439.7683 438.6781 441.3331 435.8838 443.7921 434.0955 444.4627 430.7424 442.4508 430.1835 440.3272 429.1776 437.8682 431.0777 435.8563 433.7602 434.2915 428.7305 433.9562 425.3773 432.1679 424.3714 432.3914 422.2477 430.2678 421.6889 428.4794 424.2596 423.6733 425.3773 419.0906 424.0361 419.6495 420.7947 418.7553 418.6711 417.4141 418.0004 416.4081 416.8827 415.8493 415.4297 416.1846 414.0884 416.8552 412.1883 417.0788 410.2882 416.967 409.2823 416.8552 408.2763 416.2964 407.1586 416.6317 405.7056 417.4141 403.9173 417.5259 401.9054 406.0134 401.123 394.8363 403.3584 395.5069 397.5463 397.407 392.1813 397.1835 388.9399 400.0895 382.569 404.3369 376.4216 407.4664 370.9448 408.8077 369.4917 410.2607 369.7153 411.602 369.38 412.3844 367.927 412.6079 366.2504 413.055 364.2385 413.8374 362.2266 414.1727 360.103 413.8374 357.9793 412.8315 356.0792 411.602 354.8497 411.7138 351.0495 409.7019 349.5965 407.1311 344.3432 405.1193 343.2255 403.3309 341.3254 402.1014 338.5311 408.9195 336.5193 415.4022 333.3897 420.4319 331.7131 421.7732 326.1245 424.2321 323.442 428.1441 321.7655 429.9325 319.4183 431.2737 316.1769 433.6209 313.7179 436.527 314.3886 437.4211 315.5063 441.2213 312.8238 448.4865 299.2994 449.1571 297.7347 450.0513 296.2816 451.2807 295.2757 452.3985 294.4933 453.6279 292.5932 454.7457 290.5813Z" />
  <path class="North Gyeongsang" d="M612.7901 311.259L616.7021 313.3826 620.5023 314.9474 624.9732 315.9534 628.8851 316.2887 629.7793 312.2649 630.2264 307.9058 629.2205 303.2114 632.0147 299.8583 636.1503 297.8464 640.2858 298.1817 642.4095 301.982 645.3155 302.6526 647.8862 303.9938 647.5509 307.2352 647.8862 310.5883 652.4689 308.8 656.7162 305.4469 658.6163 306.2293 659.8458 307.9058 661.5223 308.1294 663.5342 307.347 669.4581 308.3529 675.0466 310.9237 679.0704 309.9177 683.0942 307.6823 688.3474 308.9118 693.0418 311.8178 694.4948 316.1769 690.9182 318.8594 686.5591 317.0711 683.653 318.1888 681.0823 320.0889 679.9646 324.7833 680.6352 330.9307 683.7648 335.6251 688.7945 338.084 689.9122 342.1078 691.3652 345.5727 694.8301 347.0257 698.0715 348.9259 709.1369 349.7083 708.578 354.0673 709.8075 355.2968 711.037 356.6381 709.4722 361.4442 707.3485 366.4739 707.7956 371.7272 709.1369 376.4216 709.5839 380.6689 707.9074 385.1397 718.4139 389.0517 723.3318 386.8163 728.3615 388.0458 729.8145 388.0458 729.9263 388.3811 730.7087 395.8697 732.7206 403.582 733.6147 411.4059 732.6088 427.3892 731.7146 430.8541 727.0202 436.5545 725.2319 439.7958 724.4495 443.4843 723.7789 466.1738 724.226 469.3034 725.2319 470.98 726.2378 471.6506 727.0202 472.6565 727.9144 479.0275 729.0321 483.8337 730.2616 484.7278 731.044 485.8455 730.4851 488.7516 729.2557 490.4282 727.6909 491.0988 726.2378 491.6576 723.6671 493.6695 723.5553 496.2403 726.6849 499.2581 729.0321 501.8288 731.4911 504.7349 734.5089 505.2937 738.4209 502.2759 748.0332 491.6576 749.9333 488.6398 752.3923 490.5399 752.9512 493.7813 754.0689 497.1344 754.8513 500.9347 752.3923 504.6231 747.0273 515.4649 746.5802 520.3828 744.9036 533.1248 740.9916 544.3019 741.2152 551.2317 737.1914 563.303 734.2854 569.1151 732.9441 572.0211 734.1736 575.3743 735.4031 576.8273 735.2913 576.8273 723.22 573.9212 709.1369 576.3802 706.5661 575.7096 704.7778 574.3683 704.3307 571.9094 704.3307 569.1151 702.8777 566.8796 697.5127 564.5325 692.3712 563.4147 687.1179 564.3089 680.747 566.5443 675.6055 570.4563 676.4997 573.0271 677.9527 575.486 676.9468 577.2744 674.5996 577.3861 670.7993 579.6216 667.1109 582.6394 662.8636 583.9806 658.3927 581.9688 652.5806 580.5157 647.1039 582.7512 645.3155 584.9866 643.3036 586.7749 641.0682 587.1102 638.9446 587.8926 633.9149 591.8046 628.3263 591.5811 623.6319 589.1221 618.6022 587.6691 613.0136 588.675 607.4251 589.2339 602.7307 586.2161 598.9305 581.5217 597.701 571.2387 594.1243 573.9212 590.4359 579.2862 586.3003 578.5039 578.141 582.6394 573.8937 581.7452 569.9817 578.8392 565.8462 576.9391 561.4871 576.1567 556.9045 576.8273 547.5157 576.3802 545.1685 567.7738 546.9569 563.6383 547.0686 559.1674 545.0568 556.8202 542.7096 555.3672 542.2625 553.8024 541.3683 552.0141 538.0152 549.6669 536.0033 545.7549 533.0972 542.6253 529.1853 541.284 524.938 541.3958 520.5789 541.0605 518.1199 539.3839 516.108 537.7074 511.5254 537.3721 510.2959 536.925 509.0664 536.3661 508.5076 534.9131 508.284 533.3483 506.9428 532.2306 505.4898 531.1129 502.4719 529.3245 501.2425 525.189 501.9131 513.2295 495.7657 502.723 499.4541 500.8229 503.2543 499.5934 505.6015 495.0108 506.831 490.2046 508.0605 488.081 509.5135 486.2926 509.8488 483.2748 509.7371 480.7041 508.9547 475.6744 512.6431 472.433 516.2198 473.1036 519.4612 473.3272 517.6728 463.6031 514.3197 461.0323 506.6075 462.9325 503.5897 461.4794 499.3424 457.9028 495.6539 456.6733 489.6183 458.1263 488.6123 449.1846 491.9655 446.2785 494.2009 442.0312 492.5243 439.0134 491.5184 435.7721 492.4125 431.1894 493.0832 421.0183 494.5362 416.6592 497.3305 413.9767 489.9536 403.1349 484.0297 402.1289 482.2414 397.8816 484.4768 396.8757 486.7122 396.4286 488.9476 394.0814 492.3008 389.4988 493.1949 387.5987 493.0832 385.8103 493.5303 383.5749 498.2246 380.3336 503.4779 377.8746 506.831 372.9567 512.5314 375.4156 523.2614 377.0922 521.1377 372.8449 518.2317 369.1564 519.2376 365.2444 521.1377 361.1089 522.9261 357.9793 525.385 359.6559 528.4029 359.3206 530.8618 355.9674 533.4326 354.4026 535.8915 355.9674 540.5859 357.5322 544.945 357.8675 546.0627 354.8497 546.7333 351.8319 548.4099 349.3729 550.31 347.3611 552.3219 349.5965 554.7809 351.3848 558.3575 354.5144 560.7047 359.097 566.0697 360.8854 578.6999 355.5204 580.9353 348.1435 578.9234 346.2433 577.9175 344.3432 579.8176 340.8783 581.3824 337.3017 584.7355 332.4955 589.4299 329.1424 590.7712 326.7952 592.6713 325.2304 595.8009 324.2244 598.2598 321.7655 602.1718 318.5241 605.6367 314.8356 607.0898 313.9415 608.8781 314.6121 611.0018 313.3826 612.7901 311.259ZM626.6497 532.3424L628.9969 529.8834 629.7793 526.9773 629.6675 523.736 629.444 520.8299 627.7674 519.3769 626.538 517.5886 626.538 512.8942 627.2086 511.5529 627.3204 510.0999 625.4202 506.7468 619.2728 502.2759 611.3371 502.8348 601.7248 504.176 594.5714 510.0999 595.4656 518.5945 592.8948 521.3888 591.2183 525.0772 592.6713 525.3008 594.0125 525.8596 593.789 527.7597 593.1184 529.4363 590.6594 529.8834 588.424 529.8834 586.3003 532.7894 587.1945 536.2543 589.5417 537.1485 591.7771 539.3839 593.5655 542.8488 596.248 544.9725 598.1481 546.202 599.4893 547.4315 600.7188 546.4255 602.8425 542.6253 604.9661 540.9487 609.884 541.3958 618.6022 543.6312 622.0671 541.6194 622.5142 539.831 622.5142 538.7133 623.9672 534.9131 624.079 533.3483 624.079 532.1188 625.532 532.007 626.6497 532.3424ZM954.251 211.5591L956.8218 213.571 956.71 218.3771 955.0334 223.8539 953.2451 227.4306 950.3391 228.8836 946.5388 228.1012 942.7386 225.8658 940.2796 222.848 939.4972 218.936 940.7267 216.0299 943.521 214.2416 948.886 213.3474 952.4627 212.0062 954.251 211.5591Z" />
  <path class="North Jeolla" d="M334.2563 495.2343L341.0744 486.7397 348.3395 485.9573 356.8341 484.169 372.5938 479.1393 378.1824 480.257 376.8411 488.5281 380.0825 493.5578 384.5534 492.7754 388.8007 491.0988 397.0717 489.534 399.3072 488.7516 401.4308 487.7457 404.6722 487.075 406.684 483.9454 409.143 481.3747 414.0609 485.622 420.879 497.9168 425.9087 500.4876 427.8088 500.9347 428.703 502.8348 427.697 504.9584 428.2559 506.5232 437.0858 507.6409 440.3272 506.8585 444.798 506.635 449.2689 505.4055 452.9573 502.1641 456.534 498.4757 457.8752 500.0405 459.3283 501.3817 460.5578 501.1582 461.4519 499.8169 464.0227 501.27 466.3699 503.9525 473.0761 506.1879 474.5292 507.9762 476.9881 508.6469 481.7943 505.7408 487.3828 503.1701 489.6183 505.2937 491.8537 506.5232 493.7538 504.7349 495.7657 502.723 501.9131 513.2295 501.2425 525.189 495.6539 531.1129 494.2009 535.0249 486.7122 539.0486 482.912 540.2781 480.9001 540.0546 479.4471 540.9487 476.541 547.0961 473.2997 550.5611 469.8348 553.6906 468.1582 558.4968 467.7111 564.3089 465.811 568.4444 463.4638 572.8035 461.6755 578.5039 460.3342 584.316 458.2106 588.5633 458.0988 593.2576 462.0108 594.9342 462.5696 596.9461 462.7932 599.2933 464.4697 603.7641 464.2462 608.4585 465.811 612.0352 467.9347 613.4882 467.0405 618.5179 460.6695 626.1184 459.6636 631.1481 459.5518 635.6189 456.3105 638.9721 447.7041 631.9305 437.98 628.4656 432.5032 631.4834 428.0323 636.2895 423.338 636.9602 418.3083 636.9602 412.8315 637.7426 407.2429 637.6308 404.6722 636.066 402.325 634.2777 399.6425 634.9483 396.5129 634.9483 391.9303 635.7307 387.5712 638.3014 381.9826 637.519 378.2942 633.607 378.5177 627.4596 375.3881 623.9947 374.4939 620.5298 375.8352 615.1648 372.8174 610.4704 368.3465 610.6939 367.2288 612.5941 365.7758 614.0471 364.7699 616.5061 364.4345 619.1886 359.7402 619.3003 352.5868 609.5762 348.0042 605.776 345.3217 604.6583 342.6392 604.4348 340.0684 607.4526 334.927 607.0055 331.1267 610.3586 331.1267 612.9294 331.2385 615.3883 329.8972 617.512 327.8854 618.965 327.9971 620.9769 328.3325 622.877 327.103 625.4477 325.0911 627.2361 322.6321 628.3538 319.9496 629.1362 317.826 630.4774 315.8141 632.0422 310.6726 632.7129 305.8664 634.5012 301.3956 635.6189 297.5954 634.3894 297.8189 629.3597 298.8249 624.33 299.719 617.512 295.2482 616.3943 280.6062 620.418 277.4766 621.424 277.4766 621.5358 275.3529 619.0768 274.5705 617.0649 275.6882 612.7058 278.259 607.229 282.3945 597.7285 285.8594 592.6988 290.7773 590.9105 296.4777 589.7927 301.2838 589.4574 303.5193 587.6691 305.6429 584.6513 308.6607 583.8689 311.3432 586.8867 314.1375 590.3516 316.1494 591.0222 314.1375 584.0924 312.7963 580.851 310.4491 579.6216 288.989 583.0865 281.5003 578.3921 281.9474 573.3624 282.0592 571.3505 285.6359 569.6739 288.7655 566.5443 291.5597 563.303 296.1424 560.6205 301.7309 557.4909 305.9782 551.567 306.5371 546.0902 308.8843 544.6372 310.6726 543.5195 311.5668 542.7371 317.0436 542.1782 322.2968 542.8488 325.6499 545.5314 328.1089 546.0902 329.6737 548.8845 330.3443 547.3197 330.9032 545.3078 331.1267 543.0724 329.1149 541.3958 327.6618 540.3899 324.7558 538.9369 321.5144 536.7014 318.8319 534.6895 317.3789 534.0189 317.826 532.4541 319.0554 530.6658 320.2849 529.6598 321.738 529.3245 330.1208 529.8834 332.0209 529.6598 333.3622 528.9892 334.2563 527.3127 334.7034 525.9714 335.374 524.9655 337.4977 524.6301 338.1683 524.0713 337.3859 522.6183 335.7094 521.277 333.921 520.6064 333.4739 520.9417 322.2968 525.4125 318.6084 525.6361 311.2315 525.189 303.9663 524.6301 303.9663 521.3888 303.5193 516.9179 302.0662 515.6884 297.5954 514.1237 290.8891 515.2414 290.2185 509.541 303.9663 508.088 311.455 507.1938 318.9437 506.7468 321.4026 505.2937 324.0851 505.9644 327.2147 504.3996 332.8033 500.1523 339.8449 497.2462 342.8627 495.1226 343.198 492.44 334.2563 495.2343ZM250.3162 584.2042L249.6455 583.5336 249.1985 582.3041 249.422 581.1864 251.0986 580.2922 250.875 579.9569 250.0926 579.5098 250.4279 579.0627 251.3221 578.6156 251.881 577.8332 252.7751 577.6097 253.334 577.3861 253.1105 576.3802 253.6693 576.3802 255.4576 576.7155 256.5754 575.8213 257.1342 575.1507 257.8048 575.7096 258.1402 576.8273 257.5813 578.1685 254.787 580.6275 252.8869 582.6394 251.6574 583.6453 251.2103 584.0924 250.3162 584.2042Z" />
  <path class="Sejong" d="M395.954 418.3358L385.5593 421.13 371.8114 418.4475 373.1527 414.5355 375.4999 412.3001 375.0528 383.6867 378.5177 373.9626 400.0895 382.569 397.1835 388.9399 397.407 392.1813 395.5069 397.5463 394.8363 403.3584 406.0134 401.123 417.5259 401.9054 417.4141 403.9173 416.6317 405.7056 416.2964 407.1586 416.8552 408.2763 416.967 409.2823 417.0788 410.2882 416.8552 412.1883 416.1846 414.0884 412.7197 413.7531 402.8838 416.4356 395.954 418.3358Z" />
  <path class="Seoul" d="M380.3061 210.6649L384.4416 210.6649 388.0183 209.3237 391.1479 209.3237 392.2656 212.1179 391.8185 214.9122 389.6948 216.0299 387.4594 217.5947 387.4594 220.9479 388.6889 222.4009 386.1182 225.8658 384.6651 228.4365 380.7531 230.7837 376.3941 231.7897 371.9232 234.0251 370.2466 230.0013 366.4464 230.8955 362.6462 232.0132 359.9637 233.578 357.2812 234.0251 350.7985 233.8015 346.3276 227.9894 341.8568 226.6482 338.8389 224.6363 338.0565 219.1595 335.0387 214.9122 331.462 210.4414 333.8092 205.6352 338.0565 205.8587 342.8627 208.8766 346.4394 207.6471 349.6807 205.6352 349.9043 202.3938 350.7985 199.376 357.6165 198.7054 361.0814 194.2345 363.2051 189.6519 366.2229 186.4106 371.029 185.2928 376.3941 185.7399 379.0766 190.2108 380.0825 196.3582 381.6473 200.6055 381.7591 205.2999 380.3061 210.6649Z" />
  <path class="South Chungcheong" d="M272.6704 417.8887L273.7881 421.3536 275.8 424.4832 276.6942 427.3892 275.2411 426.7186 268.5349 427.1657 266.2994 426.8304 265.9641 423.9243 266.6348 423.0301 267.8642 421.9124 268.4231 420.2359 264.8464 422.4713 263.1699 421.6889 263.6169 418.8946 266.2994 415.0944 265.2935 413.9767 263.2816 416.4356 262.4992 414.6473 260.9344 415.5415 261.7168 411.0706 261.158 404.1408 260.4873 399.8935 258.9226 394.6403 260.2638 392.9637 262.9463 390.5047 265.8524 389.4988 267.8642 392.7402 268.0878 393.8579 267.4172 395.1991 266.2994 396.2051 266.4112 397.4345 268.982 403.2466 269.429 405.1468 268.7584 406.5998 269.5408 407.941 271.2174 409.0587 272.5586 411.4059 269.429 411.4059 269.429 412.5237 270.435 412.7472 272.5586 413.9767 272.3351 415.0944 272.2233 416.1003 272.6704 417.8887ZM356.9459 333.5014L364.0992 334.9545 370.0231 334.9545 382.5415 329.5894 389.136 332.6073 394.9481 337.5252 402.1014 338.5311 403.3309 341.3254 405.1193 343.2255 407.1311 344.3432 409.7019 349.5965 411.7138 351.0495 411.602 354.8497 412.8315 356.0792 413.8374 357.9793 414.1727 360.103 413.8374 362.2266 413.055 364.2385 412.6079 366.2504 412.3844 367.927 411.602 369.38 410.2607 369.7153 408.8077 369.4917 407.4664 370.9448 404.3369 376.4216 400.0895 382.569 378.5177 373.9626 375.0528 383.6867 375.4999 412.3001 373.1527 414.5355 371.8114 418.4475 385.5593 421.13 395.954 418.3358 404.0015 431.0777 406.7958 436.4427 407.5782 450.0788 410.7078 460.2499 418.1965 458.3498 424.791 453.4319 426.9146 452.6495 430.9384 449.5199 433.062 441.3606 435.0739 438.1193 435.8563 433.7602 437.8682 431.0777 440.3272 429.1776 442.4508 430.1835 444.4627 430.7424 443.7921 434.0955 441.3331 435.8838 439.7683 438.6781 438.4271 441.9195 434.9622 448.0669 433.1738 455.332 432.9503 460.4735 433.2856 465.8385 438.2035 464.8326 442.6744 466.2856 447.3688 469.1916 448.9336 474.7802 448.71 481.2629 450.0513 487.6339 453.0691 493.1107 456.534 498.4757 452.9573 502.1641 449.2689 505.4055 444.798 506.635 440.3272 506.8585 437.0858 507.6409 428.2559 506.5232 427.697 504.9584 428.703 502.8348 427.8088 500.9347 425.9087 500.4876 420.879 497.9168 414.0609 485.622 409.143 481.3747 406.684 483.9454 404.6722 487.075 401.4308 487.7457 399.3072 488.7516 397.0717 489.534 388.8007 491.0988 384.5534 492.7754 380.0825 493.5578 376.8411 488.5281 378.1824 480.257 372.5938 479.1393 356.8341 484.169 348.3395 485.9573 341.0744 486.7397 334.2563 495.2343 331.1267 496.1285 328.1089 498.2521 325.5382 500.7111 322.7439 502.0524 319.279 502.6112 316.1494 504.0642 313.8022 502.9465 313.0198 501.6053 312.7963 499.9287 312.0139 497.5815 310.7844 495.5696 308.2136 492.2165 306.8724 489.8693 308.996 488.1927 307.9901 486.9633 305.8664 486.1809 303.9663 485.5102 300.5014 479.4746 297.9307 478.3569 295.807 479.5864 294.9129 479.4746 294.8011 477.4627 291.448 475.2273 288.4301 475.7861 287.536 479.251 286.9771 480.4805 285.9712 479.4746 286.6418 473.9978 291.7833 471.4271 296.2541 469.974 302.6251 471.8741 300.3897 468.0739 299.1602 466.6209 297.4836 465.3914 296.3659 465.1679 295.2482 465.9503 294.354 465.3914 293.2363 464.1619 292.2304 462.8207 295.4717 454.1025 297.2601 450.1905 299.4955 448.7375 297.8189 446.7256 291.3362 444.7138 289.1008 443.4843 291.3362 441.3606 298.0425 439.684 299.4955 437.7839 298.4895 435.325 296.1424 434.6543 291.1127 434.6543 290.1067 433.8719 288.3184 431.7483 287.0889 430.6306 287.0889 429.4011 289.1008 429.4011 286.7536 425.1538 289.5479 423.589 292.6774 422.6948 295.5835 418.4475 301.8427 416.6592 304.7487 415.0944 295.9188 415.0944 293.7952 416.3239 290.5538 421.2418 288.0948 421.6889 286.6418 419.7888 285.3006 416.3239 284.4064 412.7472 284.5182 410.6235 287.6477 406.9351 289.1008 404.6997 288.6537 403.6937 285.7476 404.6997 284.4064 403.4702 283.1769 402.6878 282.5063 402.4642 281.8356 400.7877 282.3945 399.2229 282.2827 397.4345 281.6121 394.1932 280.6062 392.8519 280.6062 392.0695 282.618 391.9578 285.6359 390.5047 288.8772 390.6165 289.1008 388.3811 289.9949 386.2574 288.7655 384.6926 286.9771 384.2455 284.5182 381.8983 286.0829 379.6629 288.2066 377.9864 286.7536 375.3039 283.1769 374.6332 282.3945 371.5036 283.5122 369.1564 287.0889 368.5976 285.077 366.2504 284.4064 365.1327 283.8475 363.4561 282.618 364.5738 280.4944 366.921 278.0354 367.927 277.5883 369.2682 277.7001 370.6095 278.7061 372.1743 278.9296 375.4156 277.8119 379.1041 278.4825 384.022 276.9177 388.2693 275.4647 389.9459 272.6704 387.8222 269.7644 387.7105 266.8583 385.6986 267.5289 375.5274 268.5349 371.8389 266.7465 371.0565 267.3054 366.2504 265.6288 364.2385 263.1699 364.6856 261.8286 367.1446 261.4933 370.1624 260.3756 372.3978 256.9107 372.5096 258.3637 375.4156 261.0462 379.7747 262.0521 382.9043 260.3756 384.3573 260.5991 385.9221 263.1699 389.387 260.9344 389.8341 258.9226 390.9518 257.246 392.5166 255.9047 394.5285 256.0165 393.0755 255.793 391.7342 255.4576 390.393 254.8988 389.387 257.0224 384.6926 252.5516 377.4275 253.8928 373.7391 252.7751 368.5976 249.9809 370.1624 245.9571 375.1921 243.051 376.3098 241.2627 376.6451 239.6979 377.3157 238.1331 377.4275 236.3448 376.3098 235.8977 375.4156 235.2271 373.7391 235.0035 371.9507 235.7859 371.1683 242.0451 371.2801 243.6099 370.1624 243.4981 367.2563 241.9333 364.3503 239.5861 363.2326 237.1272 362.4502 235.2271 360.8854 234.4447 363.1208 233.9976 367.8152 233.1034 370.0506 231.3151 371.6154 230.7562 370.0506 230.9798 365.3562 230.6444 360.7736 231.0915 359.4323 234.8917 354.5144 235.6741 352.8378 236.3448 350.3789 236.7919 352.279 237.4625 353.8438 238.2449 355.4086 239.3626 356.9734 240.145 356.191 241.1509 356.3028 242.2686 356.6381 243.4981 356.9734 241.9333 354.738 240.3685 351.8319 244.6158 353.0614 246.4042 352.6143 247.6337 350.3789 243.7217 350.1553 241.3745 349.0376 241.0392 346.6904 243.4981 342.6667 240.145 339.7606 240.3685 337.1899 242.9393 335.0662 246.6277 333.725 245.7336 338.3076 246.0689 339.6488 248.1925 340.0959 251.881 339.9842 252.8869 339.3135 253.8928 337.5252 254.2282 333.2779 253.7811 327.5776 254.4517 322.8832 258.0284 321.7655 257.5813 324.448 257.6931 328.5835 258.3637 332.719 260.2638 337.637 259.2579 339.4253 257.8048 340.9901 256.9107 342.6667 256.9107 344.3432 257.9166 347.1375 258.0284 347.9199 257.246 348.8141 254.4517 350.6024 253.8928 351.0495 254.0046 352.7261 254.5635 354.5144 255.3459 355.5204 256.4636 354.9615 259.0343 352.6143 260.9344 352.5025 265.2935 355.5204 262.1639 348.8141 261.0462 344.5668 262.611 342.6667 265.07 345.7963 266.523 346.6904 267.3054 344.6785 267.8642 344.0079 269.5408 343.4491 272.5586 342.6667 272.5586 341.4372 271.3292 341.3254 268.4231 340.0959 268.4231 338.8664 271.9998 337.9723 274.2352 334.5074 274.7941 330.2601 273.5646 327.1305 272.2233 326.6834 268.3113 326.5716 266.2994 325.7892 264.8464 324.0009 264.3993 322.3243 265.07 321.6537 267.3054 323.2185 268.3113 320.3124 267.1936 318.5241 264.8464 317.8535 262.0521 318.077 263.1699 316.624 264.7347 315.5063 266.2994 315.2827 267.8642 316.0651 269.3173 317.1828 270.5468 317.5182 271.1056 316.8475 270.435 315.5063 270.435 314.0532 276.0235 313.9415 278.7061 314.8356 279.8238 317.4064 279.0414 318.9712 277.5883 320.6477 276.6942 322.7714 277.7001 325.7892 279.0414 324.448 280.7179 323.5538 282.171 323.5538 282.8416 325.1186 283.0651 326.4598 283.7358 327.6893 283.8475 329.0306 283.624 329.4777 282.2827 331.1542 281.8356 332.2719 281.8356 340.7666 282.2827 343.2255 283.4004 344.9021 284.5182 345.5727 285.077 344.6785 285.6359 339.9842 288.4301 330.9307 289.1008 326.4598 289.8832 325.4539 291.6715 326.6834 294.354 329.5894 295.4717 331.6013 296.1424 333.5014 297.3718 334.7309 299.4955 334.8427 299.4955 333.725 298.3778 332.2719 297.1483 328.36 295.9188 326.4598 286.6418 316.624 285.9712 316.0651 286.53 314.0532 287.7595 314.2768 289.3243 315.7298 291.7833 318.7476 293.0128 319.9771 294.5776 320.6477 296.4777 320.6477 297.9307 319.7536 298.0425 318.5241 297.0365 317.2946 294.9129 316.7358 292.0068 315.3945 288.8772 312.3767 287.4242 308.0176 287.0889 305.1116 289.8832 304.9998 292.3421 306.2293 294.4658 308.1294 297.4836 310.253 300.3897 312.2649 301.6191 313.4944 303.8546 315.0592 306.09 316.2887 307.6548 318.8594 306.8724 321.4301 305.4194 323.2185 305.7547 324.5597 307.2077 327.354 307.4312 329.1424 306.8724 332.2719 308.549 331.1542 309.2196 329.7012 309.5549 328.1364 308.996 323.5538 309.6667 321.989 310.5608 320.3124 312.0139 317.7417 314.4728 316.5122 316.82 316.5122 319.5025 316.8475 322.4086 317.9652 326.097 318.8594 328.6678 320.6477 331.9091 323.8891 332.1327 328.0246 329.6737 336.1839 331.5738 334.9545 334.3681 331.266 335.9329 331.0425 337.0506 332.6073 337.6095 335.4015 337.9448 340.7666 337.833 341.8843 337.1624 344.455 336.9388 346.0198 337.2741 347.5846 338.6154 349.82 339.8449 355.7439 339.5096 357.4205 336.9388 358.0911 337.3859 359.7677 338.0565 360.7736 338.8389 361.556 340.1802 362.1149 341.0744 357.8675 342.5274 355.4086 343.3098 352.7261 342.0803 347.9199 345.0981 348.8141 348.3395 349.2612 343.0862 343.4491 341.5215 340.2077 344.651 338.8664 347.4453 338.4194 354.0398 335.7369 356.9459 333.5014Z" />
  <path class="South Gyeongsang" d="M456.3105 638.9721L459.5518 635.6189 459.6636 631.1481 460.6695 626.1184 467.0405 618.5179 467.9347 613.4882 465.811 612.0352 464.2462 608.4585 464.4697 603.7641 462.7932 599.2933 462.5696 596.9461 462.0108 594.9342 458.0988 593.2576 458.2106 588.5633 460.3342 584.316 461.6755 578.5039 463.4638 572.8035 465.811 568.4444 467.7111 564.3089 468.1582 558.4968 469.8348 553.6906 473.2997 550.5611 476.541 547.0961 479.4471 540.9487 480.9001 540.0546 482.912 540.2781 486.7122 539.0486 494.2009 535.0249 495.6539 531.1129 501.2425 525.189 502.4719 529.3245 505.4898 531.1129 506.9428 532.2306 508.284 533.3483 508.5076 534.9131 509.0664 536.3661 510.2959 536.925 511.5254 537.3721 516.108 537.7074 518.1199 539.3839 520.5789 541.0605 524.938 541.3958 529.1853 541.284 533.0972 542.6253 536.0033 545.7549 538.0152 549.6669 541.3683 552.0141 542.2625 553.8024 542.7096 555.3672 545.0568 556.8202 547.0686 559.1674 546.9569 563.6383 545.1685 567.7738 547.5157 576.3802 556.9045 576.8273 561.4871 576.1567 565.8462 576.9391 569.9817 578.8392 573.8937 581.7452 578.141 582.6394 586.3003 578.5039 590.4359 579.2862 594.1243 573.9212 597.701 571.2387 598.9305 581.5217 602.7307 586.2161 607.4251 589.2339 613.0136 588.675 618.6022 587.6691 623.6319 589.1221 628.3263 591.5811 633.9149 591.8046 638.9446 587.8926 641.0682 587.1102 643.3036 586.7749 645.3155 584.9866 647.1039 582.7512 652.5806 580.5157 658.3927 581.9688 662.8636 583.9806 667.1109 582.6394 667.7815 590.0163 663.9813 597.6167 666.2167 602.1993 675.6055 603.6524 679.5175 606.6702 686.0002 614.1589 693.8242 618.5179 697.2891 621.2004 698.295 626.3419 701.6482 629.5833 705.8955 631.1481 706.5661 631.7069 705.8955 634.1659 705.5602 637.519 704.666 639.3074 703.6601 640.8722 704.5542 643.4429 704.5542 644.4488 702.8777 647.9138 700.4187 653.0552 697.7362 656.2966 696.2832 659.3144 696.0596 659.8733 695.7243 659.2026 692.7065 656.073 689.9122 652.6081 686.4473 649.7021 683.7648 646.0136 682.8706 641.8781 679.9646 639.978 676.0526 639.8662 672.4759 641.3193 669.6816 643.4429 667.4462 646.1254 665.8814 657.079 663.7578 660.3204 661.4106 663.2264 660.1811 665.4618 659.5105 664.7912 658.0574 666.9149 653.4748 675.0741 651.3512 675.1859 651.2394 671.3857 651.3512 667.9208 650.3452 667.6972 649.004 670.7151 647.998 675.0741 644.1978 674.6271 634.2502 674.8506 633.6913 671.3857 632.6854 669.5974 631.2323 674.7388 629.7793 675.5212 626.2026 673.9564 624.5261 670.8268 622.7377 670.6033 620.3905 672.3916 620.3905 664.3441 619.8317 663.6735 618.4904 664.1206 617.3727 665.9089 617.3727 668.7032 614.9138 666.8031 613.0136 664.1206 611.0018 662.444 607.8722 663.6735 608.5428 661.1028 607.3133 657.3025 607.8722 655.9613 606.4191 651.0433 605.525 650.5963 603.7366 652.1611 601.9483 655.0671 601.8365 657.079 603.7366 661.1028 604.8543 666.0207 605.525 667.6972 606.7545 669.9327 609.3252 673.3976 609.6605 675.0741 608.9899 677.5331 610.1076 677.7567 612.0077 678.5391 613.1254 678.8744 611.7842 679.7685 610.4429 680.1039 607.3133 680.1039 605.7485 679.6568 605.3014 678.7626 605.1897 677.5331 604.7426 676.3036 603.2895 674.7388 602.1718 673.9564 594.0125 671.0504 591.7771 670.9386 586.7474 671.8328 585.4062 672.5034 585.5179 673.8447 587.1945 676.3036 584.4002 676.8625 579.2587 679.545 573.2231 681.1098 572.4407 683.457 572.2172 686.0277 570.5406 687.7043 570.5406 688.9338 585.7415 680.8862 588.2004 680.6627 588.7593 684.0158 589.6535 686.363 589.9888 688.4867 588.7593 690.9457 586.8592 692.0634 583.8414 692.5105 580.9353 692.3987 578.9234 691.6163 577.9175 693.4046 578.5881 694.2988 580.0411 695.0812 581.0471 696.646 581.1589 697.5402 581.2706 698.9932 581.0471 702.7934 579.9294 710.3938 581.2706 711.7351 582.6119 711.288 583.6178 709.835 584.1767 707.9349 586.1886 710.3938 584.0649 714.1941 580.2647 719.2238 576.9116 720.2297 572.3289 719.8944 572.3289 717.1001 575.3468 716.9883 576.5762 716.7648 577.3586 715.5353 567.8581 714.5294 565.958 713.747 563.7226 710.7292 563.499 709.1644 565.0638 708.1584 568.5287 706.8172 565.0638 699.8873 562.6048 702.3463 560.0341 707.1525 556.5692 707.376 553.3278 703.1287 551.6513 702.011 548.2981 701.6757 546.7333 702.5699 545.8392 704.8053 545.6156 707.7113 545.6156 710.3938 542.486 709.835 535.4444 710.1703 532.6502 708.6055 532.3149 707.5996 532.3149 704.9171 532.0913 704.2464 531.4207 704.0229 529.7441 704.3582 527.5087 703.7993 523.932 703.464 522.7025 702.7934 522.0319 701.3404 522.1437 699.8873 522.479 698.5461 522.7025 697.3166 522.479 683.5688 522.7025 681.3333 523.1496 680.3274 523.932 678.9861 524.6026 677.1978 524.8262 674.9624 522.479 677.7567 520.4671 681.1098 518.1199 683.5688 514.4315 683.9041 517.2257 690.3868 515.3256 691.7281 511.1901 691.6163 507.2781 694.0752 505.7133 689.7162 504.7074 687.8161 503.0308 686.5866 502.5837 692.5105 501.0189 697.2048 497.7776 699.9991 493.7538 700.4462 492.189 699.7756 490.736 699.4403 489.5065 699.552 488.6123 700.4462 486.2651 698.5461 484.7003 698.099 484.365 697.3166 484.365 693.8517 482.3531 688.822 472.8526 678.5391 471.2878 675.0741 469.9465 671.1622 466.5934 667.6972 462.7932 664.903 460.7813 661.2145 460.1107 651.3787 458.6576 646.6843 455.5281 642.9958 456.3105 638.9721ZM524.8262 724.3652L525.6086 726.4889 525.1615 728.2772 524.3791 730.2891 523.932 732.6363 524.2673 736.4365 524.1556 738.6719 523.2614 739.5661 522.1437 740.2367 523.3732 744.037 522.8143 745.9371 520.4671 746.3842 518.2317 745.0429 515.7727 743.9252 512.9784 745.2664 510.5195 745.6018 509.0664 742.0251 507.2781 734.5364 504.8191 733.1952 502.8073 734.6482 501.466 737.666 501.0189 741.578 500.1248 743.1428 497.8893 743.2546 495.6539 742.4722 494.3127 741.578 493.3067 739.9014 493.0832 738.5602 493.0832 736.8836 492.7479 734.5364 488.6123 720.9003 488.0535 717.659 488.3888 714.4176 490.1771 711.0645 491.2948 710.2821 492.5243 710.0585 493.4185 709.3879 494.0891 705.3641 494.9833 704.1347 497.4422 702.2345 499.4541 701.2286 501.8013 702.011 503.7014 703.7993 504.9309 706.1465 504.7074 708.4937 503.3661 710.8409 500.013 714.4176 500.5718 715.6471 501.3542 718.8884 502.1366 720.565 503.4779 721.4592 506.7193 722.5769 508.5076 725.8183 511.4136 725.3712 515.2139 723.9182 518.6788 723.1358 523.8202 724.0299 524.8262 724.3652ZM627.7674 714.4176L627.5439 716.5413 626.8733 718.8884 625.532 720.2297 623.5201 719.3355 624.3025 721.7945 626.3144 726.0418 626.6497 728.8361 625.532 729.2832 622.8495 728.389 620.0552 726.936 618.2669 725.5947 617.8198 728.2772 617.3727 729.6185 614.6902 732.6363 613.9078 735.0953 615.6961 736.4365 618.1551 737.5542 619.3846 738.8955 617.0374 741.0191 606.0838 744.3723 602.7307 744.5958 607.9839 740.9074 605.8603 739.9014 604.9661 738.2249 605.0779 735.9894 605.8603 733.3069 601.1659 735.7659 599.8246 734.76 599.154 732.6363 599.154 730.5127 600.16 729.5067 603.9602 728.7243 604.9661 726.7124 605.0779 723.8064 605.8603 720.565 603.8484 719.3355 602.2836 721.2356 596.8068 723.6946 594.4596 725.5947 592.6713 722.9122 590.5476 720.565 588.7593 717.8825 588.3122 714.4176 589.3182 712.2939 591.33 710.2821 593.5655 708.829 595.5773 707.9349 601.2777 706.8172 602.7307 706.8172 605.3014 707.9349 607.3133 709.1644 609.3252 710.1703 612.1195 710.3938 612.1195 709.2761 609.3252 707.376 607.6486 704.5817 606.978 701.4521 606.8662 698.5461 608.7663 698.7696 619.3846 692.734 617.5963 689.3809 618.4904 685.916 620.8376 684.1276 623.5201 685.1336 624.1908 686.6983 624.1908 688.4867 623.1848 695.3047 623.2966 696.4224 623.9672 698.5461 624.8614 700.3344 625.532 702.1228 625.532 704.5817 624.9732 706.7054 622.5142 713.0763 625.6438 711.9586 627.0968 710.9527 627.5439 711.288 627.7674 714.4176ZM525.2733 718.7767L525.9439 719.3355 526.7263 720.565 525.1615 721.0121 518.3435 719.112 514.5432 720.3415 512.4196 720.1179 510.0724 718.7767 508.7311 716.0942 509.8488 713.2999 511.8607 710.6174 513.202 708.0466 514.5432 706.2583 517.0022 705.5877 517.7846 707.7113 516.6669 710.6174 516.2198 712.6293 516.3316 714.4176 517.114 714.9765 518.0081 712.9646 519.7965 710.0585 521.2495 709.835 521.6966 711.1762 522.479 711.8469 523.2614 712.2939 523.5967 714.5294 524.3791 717.5472 525.2733 718.7767ZM641.9624 686.1395L641.2917 689.9397 640.2858 691.281 639.5034 691.6163 639.1681 690.8339 638.4975 687.5925 637.268 686.363 636.9327 685.3571 637.0444 684.1276 636.5974 682.5628 635.7032 681.1098 636.1503 679.7685 637.8268 678.8744 639.5034 678.6508 641.0682 679.0979 642.0741 681.4451 641.9624 686.1395ZM558.9164 756.6671L559.3635 757.1142 559.1399 758.1201 557.6869 759.9085 557.0163 760.3556 556.0103 760.4673 554.5573 760.132 553.4396 760.3556 551.763 761.138 550.9806 761.9204 550.0865 762.0321 549.9747 761.3615 550.4218 760.2438 550.31 759.2378 549.6394 758.5672 549.0805 758.4554 548.4099 758.0084 548.5217 757.0024 548.857 756.22 548.9688 755.2141 549.5276 754.6552 550.5336 754.3199 555.3397 756.8906 555.3397 758.0084 556.1221 758.1201 558.9164 756.6671ZM572.776 723.4711L574.229 722.8004 576.5762 722.2416 579.147 722.1298 580.7118 723.5828 581.0471 725.93 580.2647 727.3831 580.8235 728.2772 580.1529 729.3949 578.5881 728.7243 578.0293 729.1714 578.0293 729.6185 579.2587 729.842 580.6 730.848 579.9294 731.9657 578.3646 733.8658 575.9056 733.9776 574.7879 732.5245 574.229 731.0715 572.8878 731.0715 573.2231 729.842 572.776 728.6125 570.8759 728.389 570.2053 727.8301 571.6583 726.6007 571.8818 725.2594 570.4288 724.0299 567.6345 723.1358 565.958 723.6946 564.952 723.5828 564.6167 722.3534 565.8462 721.0121 567.6345 720.565 569.9817 721.571 571.7701 722.9122 572.776 723.4711ZM550.6453 720.4532L552.8807 723.024 553.7749 724.477 553.1043 725.4829 551.5395 725.4829 550.7571 725.8183 550.8689 727.1595 550.4218 727.7184 548.9688 727.2713 548.0746 726.8242 546.398 725.7065 545.5039 724.2535 545.6156 723.2475 546.7333 721.571 548.7452 720.0062 550.6453 720.4532Z" />
  <path class="South Jeolla" d="M277.4766 621.5358L277.4766 621.424 280.6062 620.418 295.2482 616.3943 299.719 617.512 298.8249 624.33 297.8189 629.3597 297.5954 634.3894 301.3956 635.6189 305.8664 634.5012 310.6726 632.7129 315.8141 632.0422 317.826 630.4774 319.9496 629.1362 322.6321 628.3538 325.0911 627.2361 327.103 625.4477 328.3325 622.877 327.9971 620.9769 327.8854 618.965 329.8972 617.512 331.2385 615.3883 331.1267 612.9294 331.1267 610.3586 334.927 607.0055 340.0684 607.4526 342.6392 604.4348 345.3217 604.6583 348.0042 605.776 352.5868 609.5762 359.7402 619.3003 364.4345 619.1886 364.7699 616.5061 365.7758 614.0471 367.2288 612.5941 368.3465 610.6939 372.8174 610.4704 375.8352 615.1648 374.4939 620.5298 375.3881 623.9947 378.5177 627.4596 378.2942 633.607 381.9826 637.519 387.5712 638.3014 391.9303 635.7307 396.5129 634.9483 399.6425 634.9483 402.325 634.2777 404.6722 636.066 407.2429 637.6308 412.8315 637.7426 418.3083 636.9602 423.338 636.9602 428.0323 636.2895 432.5032 631.4834 437.98 628.4656 447.7041 631.9305 456.3105 638.9721 455.5281 642.9958 458.6576 646.6843 460.1107 651.3787 460.7813 661.2145 462.7932 664.903 466.5934 667.6972 469.9465 671.1622 471.2878 675.0741 472.8526 678.5391 482.3531 688.822 484.365 693.8517 484.365 697.3166 484.7003 698.099 483.6944 697.8755 477.547 697.8755 475.5351 697.5402 474.7527 696.646 474.4174 695.193 473.5232 693.4046 471.7349 692.0634 471.2878 693.4046 471.6231 695.64 471.9584 696.646 470.8407 699.9991 470.1701 701.2286 468.8288 702.7934 463.1285 707.376 459.8871 708.829 457.6517 706.9289 454.7457 701.0051 452.3985 700.1109 450.7219 702.4581 449.9395 706.1465 450.0513 709.2761 451.5043 712.5175 453.8515 716.7648 456.534 720.4532 458.993 722.018 460.6695 724.1417 462.2343 724.9241 464.1344 723.8064 468.8288 719.3355 472.0702 718.8884 474.8645 719.4473 477.4352 719.5591 480.3413 718.1061 480.1177 721.6827 479.6706 724.3652 478.1058 729.5067 476.4293 738.7837 475.088 740.9074 469.8348 742.6957 465.5875 740.5721 462.2343 739.7897 459.44 745.9371 458.5459 745.3782 458.3223 745.3782 458.0988 745.7135 457.3164 745.9371 458.5459 748.2843 459.44 750.9668 460.5578 759.1261 459.8871 760.6909 458.3223 759.7967 455.7516 757.226 452.1749 756.7789 449.4924 755.3259 447.7041 752.5316 447.0334 748.396 447.9276 744.484 449.9395 740.6838 451.2807 737.1072 450.6101 733.9776 449.3806 732.1892 447.0334 727.0477 446.3628 726.6007 445.4686 726.6007 444.5745 726.4889 443.9039 725.5947 443.7921 724.7006 444.0156 723.5828 444.4627 722.9122 442.2273 717.9943 441.7802 716.2059 442.0037 715.2 442.6744 713.2999 442.7861 712.4057 442.4508 711.3998 441.7802 710.5056 440.9978 710.2821 440.6625 711.0645 440.2154 711.5116 437.6447 718.1061 436.6387 719.4473 436.0799 719.8944 435.2975 719.8944 430.156 721.7945 427.1382 722.1298 420.5437 722.018 418.0847 722.6887 420.0966 724.3652 424.0086 726.0418 427.2499 727.0477 427.2499 728.1655 420.7672 730.1773 417.5259 732.0774 416.967 734.5364 418.3083 735.6541 421.1025 734.5364 422.6673 735.0953 423.6733 736.8836 423.4497 737.5542 422.5556 737.7778 422.2202 738.2249 424.2321 745.6018 428.703 749.5138 433.3974 752.5316 436.6387 757.226 435.0739 757.0024 432.3914 757.0024 431.2737 757.226 437.7564 759.6849 438.6506 761.8086 439.0977 765.6088 437.6447 766.9501 436.0799 768.2913 433.1738 768.1795 431.2737 768.6266 424.3439 764.3793 422.2202 763.5969 420.2084 764.044 417.7494 765.1617 415.7375 766.6147 414.8433 768.0678 415.1787 768.6266 416.967 772.4268 419.0906 772.8739 420.4319 773.7681 426.1322 772.2033 429.2618 774.8858 422.1085 781.4803 419.5377 785.1688 416.7435 783.8275 412.3844 787.1806 412.8315 790.422 414.8433 792.5457 410.596 792.5457 404.4486 784.3864 402.325 779.9155 396.6246 773.7681 394.8363 774.2152 388.9124 777.3448 389.4713 779.2449 389.9184 779.9155 387.4594 779.1331 385.1122 778.686 382.9886 777.5683 381.6473 774.8858 381.4238 772.2033 382.4297 770.6385 385.7828 768.6266 386.9006 767.7325 389.9184 763.5969 391.8185 759.6849 392.8244 758.3437 395.0598 757.226 394.9481 760.2438 394.1657 763.2616 391.9303 768.6266 396.4011 768.4031 400.0895 766.9501 402.325 763.9322 402.325 758.4554 401.4308 756.3318 400.2013 755.1023 399.3072 753.7611 399.1954 750.9668 399.9778 749.5138 404.3369 744.5958 406.0134 745.49 407.0194 746.6077 407.2429 748.0607 406.4605 749.7373 407.3547 752.1963 408.6959 753.8728 410.3725 754.4317 412.7197 753.5375 413.7256 752.308 415.8493 747.8372 416.967 745.9371 414.8433 742.8075 414.0609 739.4543 412.9432 738.0013 410.149 740.2367 406.7958 741.6898 404.1133 739.3426 400.3131 733.3069 398.1894 736.6601 395.1716 744.5958 393.048 747.1666 390.8125 748.0607 389.0242 747.949 385.224 747.1666 383.4356 747.8372 381.7591 749.2902 378.9648 752.9787 377.7353 753.9846 372.2585 757.226 369.2407 759.4614 367.3406 760.5791 365.4405 761.138 364.3228 761.6968 364.0992 763.2616 364.0992 765.2735 363.8757 767.3971 362.8697 768.9619 361.4167 770.5267 360.7461 772.5386 361.8638 774.8858 353.481 783.1569 353.8163 790.7573 352.3633 791.9868 348.3395 789.9749 346.9982 791.6515 346.3276 793.4398 346.4394 795.3399 347.3336 797.5754 345.3217 796.9047 341.0744 793.8869 335.2623 792.2103 333.921 791.3162 332.8033 787.8513 333.3622 778.5743 332.8033 774.8858 333.5857 772.6504 333.4739 769.7443 332.468 767.2854 330.6796 766.0559 329.1149 766.503 327.4383 768.0678 326.2088 770.0796 325.6499 771.7562 326.3206 774.327 327.2147 776.5624 327.3265 778.1272 322.6321 779.692 323.191 781.9274 326.6559 786.1747 320.8438 789.6396 318.6084 791.6515 320.8438 792.5457 321.4026 792.881 321.5144 793.7751 321.4026 794.6693 320.8438 795.1164 319.9496 794.8928 318.4966 794.1105 317.826 793.8869 315.8141 794.2222 315.367 795.0046 315.367 796.3459 314.5846 798.246 313.4669 799.0284 308.8843 800.1461 307.2077 801.5991 306.6488 802.7168 302.9604 815.1234 302.6251 816.9118 302.6251 819.0354 298.9366 818.253 292.0068 820.6002 290.2185 820.1531 289.9949 818.0295 291.448 813.6704 291.1127 811.5468 289.7714 810.3173 287.8713 809.982 283.8475 810.2055 283.8475 808.976 284.7417 807.9701 284.9652 807.1877 285.3006 804.3934 285.7476 804.2816 286.4183 804.5052 287.0889 804.0581 289.2125 800.1461 289.6596 798.246 289.1008 796.3459 288.3184 795.787 287.2007 795.3399 284.9652 795.1164 283.2887 794.6693 283.0651 793.6634 283.5122 792.7692 283.8475 792.5457 283.9593 790.1985 284.5182 787.8513 284.2946 786.6218 281.8356 787.516 282.5063 783.0451 285.5241 780.8097 289.5479 780.0273 293.3481 779.9155 292.6774 778.5743 291.6715 777.4565 290.5538 776.6741 289.1008 776.2271 291.448 774.5505 292.901 772.5386 293.0128 770.862 291.1127 769.7443 290.442 770.0796 289.1008 771.7562 288.0948 772.4268 286.8653 772.4268 284.9652 771.1974 283.8475 771.1974 282.9534 771.9798 282.2827 773.2092 281.8356 774.8858 280.4944 775.2211 279.1531 775.2211 277.7001 774.8858 274.4587 774.9976 272.6704 775.3329 270.435 776.2271 270.2114 773.2092 268.8702 771.5327 265.2935 769.7443 265.2935 769.1855 264.5111 767.7325 263.6169 766.8383 263.1699 768.0678 262.7228 768.7384 261.7168 769.2972 260.4873 769.6326 259.4814 769.1855 256.3518 766.1677 255.9047 766.0559 255.4576 764.1558 255.6812 763.5969 256.3518 763.3734 256.9107 762.3674 257.4695 763.2616 259.0343 763.2616 260.152 762.3674 259.4814 760.4673 255.4576 758.4554 252.3281 756.22 251.9927 750.855 253.334 744.9311 254.8988 740.9074 255.1223 739.4543 255.0106 737.7778 255.2341 736.3248 256.4636 735.7659 257.5813 735.8777 258.8108 736.213 259.5932 736.7718 260.5991 739.0073 265.2935 745.9371 263.8405 747.8372 263.3934 749.6255 263.6169 751.5256 264.1758 753.5375 267.3054 762.3674 269.2055 763.4851 276.6942 764.7146 279.9355 766.9501 281.6121 766.8383 282.8416 763.5969 281.165 763.9322 280.2708 763.4851 277.1413 762.7028 275.6882 760.4673 273.7881 758.5672 274.2352 754.3199 272.2233 754.6552 271.3292 757.226 269.7644 757.4495 268.7584 753.9846 268.3113 749.402 269.429 746.7195 268.5349 743.4781 272.7822 743.1428 279.0414 744.484 279.9355 745.9371 279.4884 748.396 279.6002 749.0667 279.4884 749.8491 279.8238 750.9668 281.3886 751.9727 282.3945 753.2022 284.2946 754.5435 287.0889 755.5494 288.6537 757.1142 290.7773 758.679 292.3421 759.6849 293.0128 758.9025 289.8832 754.767 291.7833 754.3199 294.5776 755.8847 298.1542 757.8966 302.5133 759.3496 305.7547 758.4554 302.5133 757.8966 299.9426 756.3318 295.36 752.308 296.4777 750.9668 293.2363 748.5078 288.2066 742.1369 285.5241 740.9074 281.7239 740.125 277.253 740.3485 274.1234 738.4484 270.3232 739.4543 266.8583 738.2249 266.4112 736.5483 268.5349 733.754 270.6585 732.9716 275.1294 733.6422 280.9415 731.0715 287.8713 736.213 290.2185 735.7659 290.7773 736.1012 291.1127 736.5483 291.5597 736.7718 292.2304 737.1072 291.5597 733.5305 291.895 730.2891 293.6834 727.9419 297.4836 727.0477 304.4134 729.0596 307.8783 729.3949 306.8724 727.0477 309.2196 725.8183 310.4491 725.5947 312.0139 725.5947 309.7784 723.024 306.3135 722.4651 298.4895 723.1358 299.0484 721.3474 298.8249 720.1179 298.4895 718.8884 298.4895 716.9883 299.0484 715.7589 299.8308 714.8647 300.5014 713.6352 300.5014 711.7351 299.2719 709.0526 297.2601 708.382 295.0246 709.4997 293.3481 711.7351 293.1245 713.2999 294.1305 716.4295 294.354 718.1061 294.1305 718.3296 292.2304 722.018 290.5538 728.2772 288.989 730.4009 285.9712 730.6244 285.9712 730.2891 285.077 729.5067 285.6359 728.5008 286.4183 726.6007 287.0889 725.5947 285.077 724.5888 283.624 725.2594 282.2827 726.3771 280.3826 727.0477 276.2471 726.1536 275.0176 726.7124 274.7941 728.6125 272.6704 728.6125 269.429 729.6185 267.8642 728.8361 267.3054 726.936 268.4231 725.0359 271.4409 722.018 272.5586 720.2297 273.2293 718.8884 273.4528 717.659 273.5646 716.2059 273.1175 713.5234 273.6763 712.0704 275.5765 710.3938 273.7881 708.9408 272.1116 705.8112 271.2174 702.2345 271.4409 699.105 273.5646 697.2048 276.4706 695.3047 277.3648 693.6282 273.5646 692.734 271.7762 693.0693 270.7703 693.9635 269.9879 694.8576 268.8702 695.3047 267.4172 695.9754 267.6407 697.8755 268.3113 699.8873 268.4231 701.6757 266.2994 703.5758 263.5052 703.7993 260.9344 702.9052 259.0343 701.6757 260.3756 700.6697 261.0462 700.4462 259.705 699.4403 258.5872 698.3226 257.6931 696.9813 256.9107 695.3047 258.699 694.4106 260.3756 694.4106 264.1758 695.3047 263.7287 691.281 267.8642 687.0337 266.7465 683.2334 262.4992 677.1978 259.8167 674.7388 256.9107 673.7329 258.1402 677.9802 257.0224 680.3274 254.8988 680.4392 252.7751 677.5331 254.2282 675.633 250.3162 670.3798 249.7573 667.3619 251.881 664.7912 255.0106 664.3441 257.8048 665.7971 259.0343 668.7032 260.9344 667.4737 261.9404 665.3501 263.1699 661.1028 264.2876 663.2264 264.5111 665.0147 264.064 668.4796 263.3934 670.1562 263.1699 671.2739 263.5052 672.3916 264.064 672.3916 264.8464 672.0563 265.2935 672.3916 265.8524 674.8506 266.0759 675.8565 266.523 676.5272 268.4231 677.5331 269.8761 678.092 272.4469 678.2037 273.5646 678.8744 272.6704 680.998 272.8939 683.0099 274.0117 684.91 275.5765 686.5866 279.4884 677.8684 279.8238 674.9624 279.8238 671.6092 279.0414 670.4915 276.1353 669.7091 275.0176 669.0385 274.0117 668.0326 272.4469 663.897 267.4172 658.0849 266.2994 655.4024 266.6348 654.5083 267.3054 653.7259 268.0878 652.7199 268.4231 651.0433 266.7465 649.8139 265.9641 648.3608 266.2994 645.7901 264.3993 646.5725 262.3875 646.9078 258.0284 647.0196 259.705 644.8959 262.4992 644.2253 265.6288 644.1135 268.4231 643.4429 267.5289 642.9958 266.9701 642.6605 266.4112 642.2134 265.2935 641.9899 265.9641 640.3133 266.8583 639.3074 267.8642 638.6367 268.8702 637.519 269.429 636.1778 269.0937 634.9483 268.6466 633.7188 268.4231 632.4893 268.8702 629.5833 270.2114 626.6772 273.5646 621.6475 274.4587 622.5417 276.6942 625.4477 279.3767 626.2301 280.7179 626.1184 280.3826 624.7771 277.4766 621.5358ZM360.5226 645.9019L352.6986 642.9958 348.563 644.2253 344.651 645.1195 339.1743 643.7782 335.9329 646.796 340.0684 655.9613 348.3395 660.8792 357.6165 662.444 363.6521 654.3965 360.5226 645.9019ZM389.0242 785.3923L393.7186 784.8334 396.1776 785.057 398.1894 786.0629 399.866 788.969 399.4189 792.4339 397.407 795.2282 394.6128 796.3459 388.3536 797.5754 385.8946 797.1283 384.1063 796.3459 380.5296 793.8869 380.5296 792.5457 381.312 791.5397 381.5355 790.6455 380.8649 789.8631 379.5237 788.8572 381.6473 787.2924 383.9945 786.2865 389.0242 785.3923ZM268.7584 782.7098L269.0937 785.1688 268.6466 788.0748 267.8642 790.7573 264.8464 797.1283 263.6169 799.1402 262.1639 800.1461 261.8286 799.5872 259.2579 797.1283 258.0284 796.3459 258.0284 797.5754 257.4695 800.4814 243.051 808.3054 241.2627 808.976 234.8917 809.5349 233.1034 808.976 232.8799 807.4112 233.6623 806.07 234.78 804.9523 235.2271 804.0581 234.4447 802.9404 230.0856 800.1461 230.0856 804.0581 226.8442 800.2579 228.7443 794.1105 233.1034 789.1925 237.3507 788.8572 238.692 784.8334 239.5861 783.4922 240.9274 781.9274 242.604 781.0332 244.057 780.6979 245.1747 779.9155 245.51 777.3448 247.2983 779.4684 249.7573 779.8037 251.881 778.3507 252.7751 775.5564 251.6574 773.2092 247.7454 770.1914 248.7514 768.6266 251.2103 768.5149 253.6693 769.8561 255.9047 771.5327 257.4695 772.4268 257.9166 772.9857 258.3637 774.1034 259.0343 775.3329 260.0403 776.2271 260.7109 776.0035 264.1758 773.7681 264.2876 775.3329 268.7584 782.7098ZM481.2354 748.396L482.8002 748.8431 484.2532 751.0785 485.2592 753.7611 486.6004 758.3437 486.7122 761.0262 486.2651 763.5969 485.1474 766.1677 483.6944 767.7325 481.9061 767.8442 480.2295 766.9501 474.8645 761.4733 474.3056 759.3496 475.1998 755.9965 475.8704 755.1023 478.6647 752.9787 479.2235 751.8609 480.3413 747.1666 477.9941 744.7076 478.3294 743.2546 480.0059 742.4722 481.7943 742.2486 483.4708 742.9193 483.9179 744.7076 483.1355 746.7195 481.2354 748.396ZM209.5197 743.1428L211.4198 744.8194 211.8669 745.49 211.9787 746.943 211.7551 748.396 211.0845 749.7373 208.7373 752.8669 207.7314 753.6493 206.6136 753.7611 205.1606 753.5375 205.0488 752.9787 202.9252 751.7492 200.578 750.6315 199.9074 750.9668 198.4543 747.8372 199.5721 746.3842 204.0429 744.5958 206.7254 740.9074 207.7314 740.3485 208.2902 740.7956 209.5197 743.1428ZM212.314 730.6244L212.314 734.5364 211.6433 734.2011 209.9668 733.754 209.1844 733.3069 207.8431 735.0953 205.8312 735.0953 203.9311 734.6482 203.037 735.0953 202.7017 737.666 201.9193 739.7897 200.578 741.4662 198.7897 742.2486 197.0013 742.0251 195.7718 740.7956 194.9894 738.7837 194.6541 736.4365 195.1012 734.0893 196.3307 732.5245 198.0073 731.4068 199.9074 730.6244 201.9193 731.5186 204.6018 730.848 209.6315 728.9479 210.6374 728.8361 211.308 728.9479 211.8669 729.5067 212.314 730.6244ZM219.6909 706.1465L220.3615 703.6876 221.8145 703.3523 223.4911 704.47 224.7206 706.5936 225.0559 709.2761 224.6088 711.8469 223.4911 714.0823 221.7028 715.5353 219.4673 716.2059 218.2378 715.7589 217.2319 714.8647 216.0024 714.4176 211.0845 715.5353 209.1844 715.5353 209.1844 714.4176 210.6374 713.0763 213.4317 708.7173 215.4436 706.8172 216.4495 706.9289 217.9025 707.2642 219.132 707.2642 219.6909 706.1465ZM227.9619 680.6627L227.1795 680.8862 223.1558 679.8803 221.7028 680.1039 221.1439 679.6568 220.8086 679.2097 220.3615 678.9861 219.6909 678.8744 220.9204 672.9505 221.7028 671.2739 222.7087 670.6033 224.497 670.0444 226.1736 669.262 226.956 668.0326 228.0737 665.4618 230.868 663.7853 233.8858 663.0029 236.233 663.6735 231.6504 666.356 230.5327 667.9208 230.4209 669.7091 231.0915 671.6092 233.1034 674.9624 231.5386 675.633 229.862 677.3096 228.5208 679.2097 227.9619 680.6627ZM409.5901 870.3384L410.4843 871.2326 411.602 871.4561 411.9373 872.1267 411.8255 873.0209 409.5901 872.015 407.5782 871.4561 407.1311 870.8972 406.684 869.6678 406.3487 868.103 405.7899 867.7677 405.3428 867.2088 404.8957 865.8675 405.1193 865.1969 405.1193 864.3028 405.231 863.5204 405.6781 863.4086 406.237 863.6321 406.9076 863.4086 407.3547 862.8497 407.5782 862.8497 407.9135 863.6321 407.3547 865.3087 407.69 867.2088 409.5901 870.3384ZM443.345 791.5397L444.0156 793.3281 444.0156 794.4458 442.8979 795.6752 440.1036 797.4636 437.7564 798.1342 436.8623 797.6871 436.7505 796.1223 435.7446 795.0046 434.1798 794.5575 433.5091 793.5516 433.9562 792.881 432.2796 791.7633 431.2737 790.9809 431.8326 789.6396 431.7208 788.6337 431.4972 787.8513 432.1679 787.4042 433.2856 787.8513 434.4033 788.5219 436.527 789.0807 436.527 789.5278 437.3094 789.3043 438.6506 787.963 439.9919 787.963 443.345 791.5397ZM481.3472 781.145L482.3531 781.7039 483.0238 782.7098 482.6884 783.8275 480.7883 784.4981 479.5589 784.6099 479.3353 784.2746 478.7765 783.4922 477.4352 782.7098 475.1998 782.0392 473.7468 780.8097 473.0761 779.2449 472.2937 778.1272 471.0642 777.4565 469.9465 776.1153 470.7289 774.5505 473.2997 773.4328 476.0939 772.9857 478.1058 774.4387 480.3413 778.9096 480.1177 780.2508 480.2295 780.9215 481.3472 781.145ZM226.3971 764.6029L226.7325 764.9382 227.0678 765.8323 226.8442 767.8442 226.3971 769.8561 226.2854 771.6444 225.3912 772.5386 224.1617 773.4328 222.9322 774.6623 219.9144 776.4506 218.3496 776.6741 216.5613 776.1153 216.0024 775.2211 216.8966 774.8858 217.7908 774.8858 218.5732 774.1034 219.4673 773.4328 219.3556 772.7622 216.0024 771.9798 216.7848 771.0856 218.9085 770.7503 221.0321 770.6385 222.8205 769.2972 223.4911 767.5089 222.8205 765.7206 221.2557 763.2616 220.3615 760.132 221.4792 759.3496 223.2675 760.8026 224.3853 761.9204 226.2854 763.0381 226.3971 764.6029ZM217.0084 769.6326L215.5553 770.3032 214.3259 769.2972 213.767 762.9263 214.3259 759.3496 215.5553 757.673 217.4554 761.9204 219.132 764.2675 220.3615 766.9501 219.9144 769.0737 218.5732 769.5208 217.0084 769.6326ZM127.2561 747.7254L128.9327 747.2783 129.268 748.0607 127.9267 749.2902 127.2561 750.1844 126.809 751.1903 124.4618 753.9846 124.0147 755.3259 123.0088 757.0024 122.2264 758.0084 121.5558 758.7908 120.1028 758.1201 119.0968 755.4376 119.3204 752.9787 120.1028 750.7432 121.1087 748.8431 122.2264 747.0548 123.5677 746.1606 124.7971 745.8253 125.4678 746.3842 125.9149 747.7254 127.2561 747.7254ZM237.5743 739.5661L238.1331 741.1309 238.1331 743.1428 237.3507 744.9311 235.3388 745.0429 233.5505 743.2546 232.2092 741.2427 230.5327 741.2427 229.7503 741.9133 229.1914 742.2486 228.0737 742.3604 227.0678 741.578 226.7325 739.9014 225.3912 737.4425 222.3734 734.3129 221.8145 732.7481 223.2675 733.0834 224.3853 733.0834 225.503 732.5245 227.1795 732.4128 229.0796 732.6363 230.5327 733.3069 231.4268 734.3129 232.7681 734.9835 234.5564 735.0953 236.0095 735.4306 237.0154 736.3248 237.5743 737.4425 237.4625 738.3366 237.5743 739.5661ZM236.7919 728.6125L236.3448 729.0596 235.7859 730.1773 236.1212 732.7481 235.2271 733.6422 233.327 734.2011 231.6504 733.1952 229.6385 731.5186 227.0678 730.5127 225.2794 729.3949 226.7325 728.1655 230.5327 727.6066 232.7681 726.6007 233.8858 725.5947 235.3388 726.2653 236.4565 727.8301 236.7919 728.6125ZM223.2675 722.9122L222.0381 721.2356 220.9204 719.2238 221.3674 717.7707 223.6029 716.653 225.3912 716.5413 226.8442 717.3237 228.2972 717.3237 228.6326 716.2059 228.409 713.9705 229.862 712.6293 231.7622 712.6293 232.7681 712.5175 233.5505 712.9646 234.2211 713.9705 234.4447 715.2 232.4328 716.4295 233.1034 719.3355 232.7681 721.0121 231.6504 721.6827 230.1974 721.6827 229.1914 722.8004 229.3032 724.8123 228.7443 726.6007 227.1795 727.4948 225.8383 727.3831 225.503 726.2653 225.503 725.5947 223.2675 722.9122ZM248.5278 705.6994L247.1866 706.2583 245.3982 706.1465 244.6158 704.5817 244.9512 702.7934 246.0689 702.1228 248.7514 702.1228 249.5338 702.4581 249.6455 703.2405 249.0867 705.1406 248.5278 705.6994ZM238.2449 681.2216L238.5802 682.004 238.8037 683.0099 238.692 684.7982 238.1331 685.3571 237.3507 685.8042 236.5683 685.4689 235.1153 684.0158 234.5564 683.5688 233.774 684.0158 232.9916 683.9041 232.7681 683.1217 232.2092 682.7864 231.4268 682.7864 231.2033 682.451 232.321 681.5569 231.8739 681.3333 231.2033 681.4451 230.5327 681.2216 230.868 680.4392 231.9857 679.6568 232.9916 679.545 234.3329 680.1039 236.233 679.9921 237.5743 680.3274 238.2449 681.2216ZM79.0827 865.1969L78.3003 864.7498 75.2825 861.9556 73.6059 860.9496 73.2706 859.4966 74.053 857.5965 75.1707 856.4788 76.8473 857.0376 78.1886 858.7142 80.3122 863.185 80.5358 864.6381 79.9769 865.5322 79.418 865.4205 79.0827 865.1969ZM301.9545 843.178L303.2957 843.7369 304.5252 845.3017 304.1899 846.1958 303.5193 845.637 303.0722 845.5252 302.7369 846.1958 302.178 845.9723 300.8367 845.1899 299.3837 845.3017 298.6013 846.084 298.0425 847.09 296.3659 848.2077 294.8011 849.549 292.5657 850.8902 289.6596 850.7784 288.0948 848.6548 287.9831 845.8605 289.3243 843.178 292.0068 841.2779 294.2422 841.2779 297.2601 843.178 298.1542 843.2898 299.3837 842.9545 301.1721 842.9545 301.9545 843.178ZM313.0198 845.9723L313.6904 846.3076 314.1375 847.2018 313.6904 847.7606 313.0198 847.8724 312.7963 848.9901 312.7963 850.8902 312.0139 852.2315 310.5608 852.6785 309.7784 852.2315 309.5549 851.3373 308.7725 850.7784 307.9901 850.6667 307.6548 848.2077 308.6607 843.9604 308.996 841.6132 307.9901 840.6073 307.6548 839.8249 308.8843 838.5954 308.996 838.0365 310.3373 838.0365 312.908 839.266 313.2433 841.0543 311.7903 842.3956 311.5668 843.7369 313.0198 845.9723ZM349.0101 837.9248L350.4631 839.1542 351.3573 840.2719 351.022 842.5074 350.5749 843.5133 349.6807 845.1899 347.8924 846.1958 345.657 846.4194 343.9804 845.5252 342.6392 844.2957 341.6332 844.4075 341.0744 845.3017 340.5155 844.9663 339.8449 842.1721 340.8508 840.2719 341.0744 838.4836 341.6332 837.1424 342.7509 836.1364 344.8746 835.0187 347.4453 835.6893 349.0101 837.9248ZM303.9663 834.1245L304.637 835.0187 304.7487 836.5835 303.631 837.4777 303.1839 839.6013 300.9485 839.7131 299.719 839.9366 300.5014 841.2779 299.719 841.9485 297.3718 841.2779 296.1424 840.1602 295.9188 839.4895 295.2482 839.266 294.5776 839.0425 294.354 838.4836 295.1364 836.2482 295.5835 835.4658 295.6953 834.9069 295.36 834.4598 295.4717 834.0128 296.0306 833.7892 296.3659 833.3421 296.2541 832.895 295.5835 831.5538 296.0306 831.1067 297.2601 831.5538 298.3778 832.1127 301.5074 832.6715 303.1839 833.5657 303.9663 834.1245ZM224.6088 817.6942L224.497 819.7061 224.7206 821.0473 224.0499 822.0532 222.5969 822.2768 221.7028 822.9474 221.0321 822.7239 220.4733 821.7179 219.9144 821.7179 219.6909 822.6121 218.6849 822.7239 215.5553 821.4944 214.5494 819.9296 214.4376 818.9237 214.9965 818.0295 215.1083 817.1353 216.226 816.3529 221.4792 817.4706 223.6029 817.1353 224.6088 817.6942ZM340.6273 817.5824L339.9567 818.253 338.6154 818.4766 337.833 817.4706 337.4977 816.0176 336.7153 814.8999 335.5976 814.4528 334.0328 814.6763 332.2444 815.347 330.7914 815.2352 330.1208 815.0117 329.5619 814.5646 326.2088 813.1116 325.9853 812.5527 327.5501 812.3292 329.1149 811.8821 329.7855 811.435 330.3443 811.2114 331.462 811.435 332.9151 811.9938 334.5916 811.3232 336.6035 809.6466 338.1683 809.3113 339.0625 809.982 340.1802 810.2055 340.7391 810.2055 341.4097 810.0937 343.0862 810.2055 345.2099 810.7644 346.5512 811.5468 346.3276 812.888 345.4334 813.8939 345.2099 814.5646 344.9864 815.7941 344.0922 816.9118 342.7509 816.6882 341.4097 816.9118 340.6273 817.5824ZM376.6176 810.8761L377.1765 811.3232 377.4 812.2174 376.5058 812.4409 375.2763 811.7703 373.7116 811.435 372.5938 811.8821 373.0409 812.3292 373.9351 812.888 372.8174 814.0057 370.1349 816.0176 368.6818 816.8 368.4583 815.1234 369.2407 814.0057 370.2466 813.3351 369.6878 812.6645 366.3347 811.9938 366.7817 811.2114 366.4464 810.3173 365.4405 809.6466 362.8697 809.4231 361.8638 809.0878 361.4167 808.7525 361.8638 808.4172 362.9815 808.1936 363.7639 807.6348 365.2169 805.9582 366.67 804.7287 366.5582 804.1699 367.1171 804.3934 368.123 805.3993 369.1289 806.8524 369.6878 808.5289 370.9173 809.0878 372.9292 808.4172 374.4939 808.1936 375.1646 808.8642 375.7234 809.7584 376.6176 810.8761ZM326.9912 817.4706L327.3265 818.5883 328.1089 820.6002 327.6618 821.1591 326.8794 821.0473 326.097 820.8238 324.7558 820.1531 323.6381 819.4825 322.9674 819.5943 322.8557 820.712 322.0733 821.0473 320.732 820.4884 318.4966 819.9296 315.5905 818.9237 315.5905 817.6942 317.0436 816.6882 316.5965 815.347 315.367 815.0117 313.8022 815.347 311.7903 814.7881 310.002 813.6704 308.8843 812.3292 308.4372 810.3173 308.3254 808.0818 308.4372 805.7347 309.1078 803.3875 310.2255 801.7109 311.9021 800.9285 312.7963 800.705 315.4788 800.3696 317.1553 800.9285 318.8319 802.0462 320.6202 804.1699 321.9615 807.7465 322.4086 810.6526 322.8557 811.9938 323.7498 813.1116 324.1969 814.6763 326.9912 817.4706ZM326.7677 803.9463L325.9853 803.8345 325.3146 803.1639 325.8735 802.0462 326.6559 801.0403 327.6618 798.6931 329.7855 795.8988 332.8033 794.2222 335.9329 793.4398 337.833 793.7751 338.5036 794.8928 338.6154 796.1223 337.833 796.9047 337.9448 797.3518 339.3978 798.246 340.5155 799.4755 341.5215 801.0403 341.745 802.158 340.6273 802.2697 337.4977 801.3756 336.1564 801.7109 335.374 802.8286 331.462 804.6169 330.009 806.5171 329.5619 808.5289 328.7795 809.0878 327.7736 807.9701 327.7736 806.07 327.4383 804.3934 326.7677 803.9463ZM262.8345 715.3118L265.7406 716.3177 266.0759 720.2297 263.0581 723.024 261.3815 722.3534 262.3875 721.2356 262.8345 720.2297 262.4992 719.4473 258.2519 717.2119 257.5813 716.8766 253.1105 717.5472 251.0986 718.5531 248.8631 718.8884 247.0748 718.2178 246.1806 717.1001 246.963 716.0942 249.422 715.9824 252.4398 714.8647 252.9987 714.0823 253.5575 713.6352 253.6693 712.8528 255.5694 712.2939 256.24 711.0645 256.3518 709.7232 255.1223 708.1584 254.6752 706.2583 256.24 705.4759 258.9226 706.0348 261.6051 707.4878 263.5052 709.3879 263.2816 710.5056 262.0521 710.6174 259.705 712.1822 259.3696 713.0763 259.4814 714.0823 259.705 714.9765 260.7109 715.3118 262.8345 715.3118ZM246.7395 681.4451L246.963 680.5509 245.9571 680.2156 242.0451 679.6568 241.2627 678.8744 239.9215 678.7626 239.2508 678.5391 238.5802 677.9802 237.686 677.5331 236.9036 676.5272 235.2271 672.727 236.233 671.2739 238.1331 670.6033 239.9215 671.2739 241.2627 672.1681 242.604 671.721 244.057 671.0504 244.9512 671.4975 245.2865 672.2799 246.0689 672.2799 246.963 671.9446 247.4101 673.174 246.2924 674.2917 244.9512 674.2917 244.2805 675.0741 244.2805 675.9683 245.9571 677.7567 247.4101 678.3155 248.9749 678.4273 249.8691 679.7685 250.3162 681.4451 251.0986 682.451 251.3221 683.9041 250.7633 685.6924 250.2044 686.1395 249.7573 685.5806 248.0807 685.1336 247.2983 684.2394 246.7395 683.1217 246.7395 681.4451Z" />
  <path class="Ulsan" d="M706.5661 631.7069L705.8955 631.1481 701.6482 629.5833 698.295 626.3419 697.2891 621.2004 693.8242 618.5179 686.0002 614.1589 679.5175 606.6702 675.6055 603.6524 666.2167 602.1993 663.9813 597.6167 667.7815 590.0163 667.1109 582.6394 670.7993 579.6216 674.5996 577.3861 676.9468 577.2744 677.9527 575.486 676.4997 573.0271 675.6055 570.4563 680.747 566.5443 687.1179 564.3089 692.3712 563.4147 697.5127 564.5325 702.8777 566.8796 704.3307 569.1151 704.3307 571.9094 704.7778 574.3683 706.5661 575.7096 709.1369 576.3802 723.22 573.9212 735.2913 576.8273 735.4031 576.8273 735.6266 577.0508 736.6326 578.8392 736.0737 582.8629 735.7384 587.6691 734.7325 594.9342 733.1677 597.952 730.7087 601.4169 728.3615 602.6464 727.3556 599.2933 726.4614 595.046 724.5613 591.8046 722.4376 591.3575 721.2081 594.9342 723.22 595.3813 724.4495 596.9461 725.1201 599.2933 725.2319 601.9758 724.5613 604.4348 722.9965 604.9936 721.2081 605.2172 719.9787 606.3349 720.2022 607.6761 720.4257 611.141 721.0964 614.7177 719.6433 617.0649 718.4139 619.3003 719.6433 621.0887 720.6493 622.0946 720.4257 624.6653 717.2961 625.6713 714.3901 627.4596 710.1428 631.5952 706.5661 631.4834 706.5661 631.7069Z" />
</svg>