<?xml version="1.0" encoding="utf-8"?>
<svg xmlns="http://www.w3.org/2000/svg" viewBox="0 0 1021 1011" style="stroke-width:0.25px;stroke-linejoin:round;stroke:#444;fill:#ddd" fill-rule="evenodd">
  <path class="Berea" d="M213.2535 337.955L216.7184 336.8373 220.8539 333.2606 220.1833 327.6721 217.6125 316.6067 217.7243 312.0241 220.5186 307.7768 224.7659 305.2061 229.0132 303.5295 232.031 301.8529 255.9501 272.4571 265.4506 254.6855 264.8917 252.003 268.4684 252.003 279.6455 246.9733 286.4636 246.8615 291.7168 247.8674 296.9701 250.1029 301.7762 248.7616 317.536 238.1433 322.3421 236.9139 326.0306 235.4608 329.0484 233.7843 344.4728 223.5013 347.9377 223.3895 351.5144 225.2897 357.9971 230.0958 361.5738 231.9959 365.9329 233.0019 372.9745 233.449 378.0042 230.0958 381.9162 226.6309 393.7639 208.3004 397.6759 204.1649 403.0409 200.5882 406.3941 194.9997 409.0766 186.7286 413.6592 180.5812 417.6829 178.6811 421.8185 179.1282 426.6246 181.14 431.8779 184.605 437.1311 189.1876 442.3844 195.1114 451.7732 203.0472 455.3498 207.1827 458.2559 212.2124 460.8266 217.9128 464.1798 223.0542 467.98 225.8485 472.3391 227.1898 481.2807 228.7546 485.3045 229.984 489.5518 232.1077 494.2462 235.7961 498.6053 239.9317 505.7586 248.8734 508.1058 252.6736 510.0059 256.4738 514.0297 261.6153 528.0011 265.4155 521.4066 281.7341 522.7479 288.8875 525.9892 293.5818 527.554 296.2644 528.7835 299.1704 531.0189 306.3238 536.831 320.5187 536.831 328.0074 534.9309 332.8135 531.5778 336.8373 513.3591 350.5851 511.3472 352.8206 507.8823 358.4091 506.6528 360.7563 502.5173 367.3508 490.2224 348.0144 488.4341 347.3438 486.1987 346.7849 485.1927 348.4615 483.8515 349.9145 482.1749 351.0322 473.1215 354.1618 469.8801 355.8384 467.1976 358.0738 462.3914 364.1095 448.8671 374.7277 439.2548 384.4518 435.0075 387.1343 431.8779 386.3519 429.1954 383.4459 427.9659 379.8692 427.6306 375.5101 428.5248 365.0036 428.5248 360.0857 428.1894 355.6149 425.0598 341.9788 423.7186 337.955 421.8185 335.1607 419.6948 335.049 417.1241 337.6197 409.3001 349.3557 405.6117 353.4912 397.0053 360.421 389.0695 364.7801 384.4869 366.4567 372.1921 369.0274 367.1624 368.245 363.3622 366.9037 338.1019 351.8146 331.3956 349.4674 326.7012 348.9086 322.4539 349.0204 314.7417 350.8087 311.6121 352.2617 309.3767 354.1618 307.9237 356.8443 307.253 359.7504 306.2471 362.9917 304.1234 365.1154 297.8642 366.3449 291.0462 363.7741 278.6396 361.2034 272.2686 358.1856 261.8739 350.5851 258.5208 349.8028 255.6147 351.144 250.8086 357.962 246.673 361.5387 241.5316 363.7741 232.1428 365.2272 227.4484 364.7801 223.5364 362.9917 221.6363 360.0857 220.5186 357.2914 220.5186 355.056 220.7421 353.603 222.754 348.238 222.6422 347.0085 221.9716 345.8908 220.295 344.9966 218.2832 344.326 216.6066 343.4318 215.4889 342.3141 213.5888 338.7374 213.2535 337.955Z" />
  <path class="Butha-Buthe" d="M763.1677 93.8468L762.8323 94.9645 759.0321 123.1308 759.4792 133.4138 760.2616 136.0963 761.2675 137.6611 762.2735 138.8905 763.2794 139.8965 764.1736 141.2377 764.3971 142.8025 764.0618 145.038 761.3793 148.6146 759.3674 150.5147 747.9668 155.6562 736.7897 158.674 733.9954 160.0153 731.8717 161.9154 726.9538 168.1746 715.7767 185.7227 713.4295 190.6406 711.8647 195.6703 709.5175 210.9829 708.3998 214.7832 706.2761 218.5834 703.5936 221.9365 700.0169 225.0661 696.3285 227.5251 691.6341 229.7605 686.6044 231.4371 681.4629 232.5548 676.8803 233.0019 672.1859 232.7783 667.8268 231.9959 649.2728 224.8426 645.8079 224.5073 642.7901 224.9543 640.7782 226.4074 639.1017 228.9781 633.8484 239.7081 632.5072 241.8318 630.607 243.173 627.2539 242.726 624.0125 239.8199 620.2123 231.8842 619.0946 225.8485 619.0946 220.3717 628.0363 189.2993 628.3716 184.7167 627.701 179.5752 625.6891 172.9807 624.6832 167.6157 624.3479 162.0272 623.5655 156.9975 621.6653 151.856 616.0768 148.8382 612.7237 148.1675 605.9056 147.944 601.4348 147.3851 597.8581 145.9321 594.505 143.2496 590.593 138.2199 586.681 134.5315 580.7571 131.5136 576.2862 130.0606 571.4801 127.4899 556.7263 116.9834 551.1377 115.0833 546.2198 114.8597 542.6431 115.7539 539.29 116.0892 528.6717 113.8538 526.2128 111.7301 524.3127 107.4828 522.4125 97.0881 522.3008 80.4342 520.4007 73.7279 511.7943 68.2512 508.6647 65.7922 513.9179 65.3451 522.3008 69.0336 531.9131 70.0395 541.5254 68.81 550.02 65.5686 558.0675 58.1917 569.3564 38.7436 577.404 30.5843 586.0103 27.0076 644.1314 23.0956 652.4024 21.0837 676.2097 4.8769 682.3571 4.0945 690.2928 9.9066 695.8814 16.6129 699.6816 24.5486 702.1406 33.8256 705.1584 53.3856 709.6293 60.0919 728.0715 60.5389 734.3307 65.7922 746.402 88.7053 749.8669 91.3878 762.9441 93.735 763.1677 93.8468Z" />
  <path class="Leribe" d="M747.9668 155.6562L745.9549 165.2685 742.3782 172.4219 741.037 178.9046 737.7956 225.625 734.7778 235.4608 731.76 242.5024 725.5008 249.6558 690.9635 281.6223 686.4926 284.8637 682.4689 286.5403 674.4213 288.4404 669.727 291.2347 665.0326 295.482 658.6616 302.9706 655.4202 309.0063 653.8554 315.0419 653.5201 323.8718 652.2906 332.2547 652.5142 337.3961 653.2966 339.1845 655.0849 342.3141 666.9327 358.0738 669.727 360.7563 674.4213 364.333 676.0979 366.6802 676.545 368.3568 675.3155 370.0333 672.8565 371.8217 669.8387 372.9394 657.3204 374.0571 652.7377 373.61 646.7021 371.3746 626.0244 359.9739 612.3883 354.7207 600.6524 352.1499 596.5168 351.8146 591.8224 350.0263 587.7987 346.1143 577.404 324.9895 566.1151 292.4641 561.1971 282.74 559.7441 277.9339 559.5206 273.2395 559.7441 268.9922 559.4088 265.6391 557.7322 263.0683 555.0497 261.3917 552.0319 260.3858 545.4374 259.2681 541.3019 259.0446 537.1663 259.7152 532.3602 261.0564 528.0011 265.4155 514.0297 261.6153 510.0059 256.4738 508.1058 252.6736 505.7586 248.8734 498.6053 239.9317 494.2462 235.7961 489.5518 232.1077 485.3045 229.984 481.2807 228.7546 472.3391 227.1898 467.98 225.8485 464.1798 223.0542 460.8266 217.9128 458.2559 212.2124 455.3498 207.1827 451.7732 203.0472 442.3844 195.1114 437.1311 189.1876 431.8779 184.605 426.6246 181.14 421.8185 179.1282 417.6829 178.6811 413.6592 180.5812 409.0766 186.7286 406.3941 194.9997 403.0409 200.5882 397.6759 204.1649 393.7639 208.3004 381.9162 226.6309 378.0042 230.0958 372.9745 233.449 365.9329 233.0019 361.5738 231.9959 357.9971 230.0958 351.5144 225.2897 347.9377 223.3895 344.4728 223.5013 329.0484 233.7843 326.0306 235.4608 322.3421 236.9139 317.536 238.1433 301.7762 248.7616 296.9701 250.1029 291.7168 247.8674 286.4636 246.8615 279.6455 246.9733 268.4684 252.003 264.8917 252.003 263.4387 243.173 266.233 239.9317 269.1391 243.173 271.1509 242.3906 275.0629 240.3788 277.6337 239.9317 274.057 235.1255 268.8037 229.7605 266.9036 225.4014 273.4981 223.6131 278.7514 221.2659 283.8928 215.6773 291.9404 204.0531 293.5052 203.4943 295.5171 204.0531 297.1936 204.2767 297.8642 202.2648 297.8642 198.7999 298.3113 197.2351 299.3173 195.7821 300.2114 193.2113 300.6585 189.2993 300.6585 182.7048 304.1234 178.9046 310.7179 176.6692 315.1888 172.9807 312.0592 164.9332 359.6737 168.1746 370.7391 163.1449 374.651 155.9915 377.3336 148.3911 380.6867 142.1319 386.7223 138.667 394.6581 139.5612 399.576 144.1438 403.488 149.1735 408.1824 151.6325 419.4713 151.6325 423.2715 150.5147 423.7186 147.7205 423.6068 144.032 425.3952 140.2318 441.1549 119.107 459.7089 99.2118 461.0502 96.5293 472.5626 79.4283 478.1512 72.4985 482.2867 66.6864 486.0869 68.1394 508.6647 65.7922 511.7943 68.2512 520.4007 73.7279 522.3008 80.4342 522.4125 97.0881 524.3127 107.4828 526.2128 111.7301 528.6717 113.8538 539.29 116.0892 542.6431 115.7539 546.2198 114.8597 551.1377 115.0833 556.7263 116.9834 571.4801 127.4899 576.2862 130.0606 580.7571 131.5136 586.681 134.5315 590.593 138.2199 594.505 143.2496 597.8581 145.9321 601.4348 147.3851 605.9056 147.944 612.7237 148.1675 616.0768 148.8382 621.6653 151.856 623.5655 156.9975 624.3479 162.0272 624.6832 167.6157 625.6891 172.9807 627.701 179.5752 628.3716 184.7167 628.0363 189.2993 619.0946 220.3717 619.0946 225.8485 620.2123 231.8842 624.0125 239.8199 627.2539 242.726 630.607 243.173 632.5072 241.8318 633.8484 239.7081 639.1017 228.9781 640.7782 226.4074 642.7901 224.9543 645.8079 224.5073 649.2728 224.8426 667.8268 231.9959 672.1859 232.7783 676.8803 233.0019 681.4629 232.5548 686.6044 231.4371 691.6341 229.7605 696.3285 227.5251 700.0169 225.0661 703.5936 221.9365 706.2761 218.5834 708.3998 214.7832 709.5175 210.9829 711.8647 195.6703 713.4295 190.6406 715.7767 185.7227 726.9538 168.1746 731.8717 161.9154 733.9954 160.0153 736.7897 158.674 747.9668 155.6562Z" />
  <path class="Mafeteng" d="M71.6394 650.3554L37.1021 567.8683 33.5254 560.715 21.3424 542.2727 15.7538 537.3548 10.277 534.2252 4.3531 529.419 1 527.7425 6.0297 515.7829 6.2532 508.0707 9.3828 503.5999 13.8537 503.5999 17.7657 509.3002 20.56 505.6118 23.8013 497.8996 26.0367 495.8877 30.1723 495.7759 31.4018 498.2349 32.5195 501.2527 35.8726 502.7057 37.7727 501.3645 51.297 487.0578 53.5325 485.493 65.3802 480.6868 77.5633 479.4573 81.8106 477.8925 89.2992 473.757 101.0352 471.298 109.8651 467.4978 123.5012 459.4503 125.4013 457.4384 126.4073 457.6619 135.349 459.7856 139.9316 458.7796 142.0552 458.6679 144.8495 459.2267 147.4202 460.4562 149.5439 462.4681 151.444 466.4919 152.6735 474.8747 154.0147 478.7867 159.1562 488.0637 160.8328 492.7581 163.7388 497.7878 174.3571 509.8591 176.4807 515.3359 177.2631 519.5832 177.4867 523.0481 179.275 526.0659 182.2928 528.1895 188.552 529.9779 191.7934 530.5367 195.8172 530.425 206.8825 527.1836 209.2297 525.8424 211.018 524.2776 218.2832 515.1123 220.7421 513.5475 222.754 514.1064 223.8717 518.0184 223.5364 528.9719 225.3248 534.1134 230.0191 538.3607 239.855 540.9315 253.044 540.4844 257.4031 541.3785 261.7622 544.7317 282.1045 578.1513 282.3281 584.9693 280.2044 590.5579 276.1806 594.6934 272.9393 598.7172 273.6099 602.0703 278.3043 604.4175 313.1769 599.3878 329.6073 599.4996 338.549 602.5174 392.4227 613.0239 401.6997 617.4947 410.8649 624.4245 417.4594 626.4364 436.3487 629.0072 441.4902 631.8014 444.6198 635.6017 446.0728 638.843 450.2084 642.4197 441.4902 647.5612 440.7078 658.5147 434.6722 656.9499 423.7186 653.8204 412.8768 646.7788 402.7056 646.7788 391.752 646.7788 385.0458 638.9548 377.5571 634.2604 372.7509 640.5196 371.4097 652.2556 368.7272 659.2971 363.921 652.2556 356.4323 642.8668 348.9437 642.0844 351.0673 652.2556 349.6143 658.5147 342.908 666.3387 334.0781 668.6859 324.4658 663.2091 317.7595 656.9499 309.6002 661.6443 306.1353 669.4683 300.0997 671.0331 293.0581 671.3684 288.9226 674.3862 284.2282 676.2864 280.3162 676.2864 276.0689 673.6039 273.2746 670.6978 270.8156 667.3447 264.78 657.8441 261.0915 655.7205 255.8383 655.0498 246.8966 655.944 241.5316 655.4969 237.6196 653.2615 235.7195 650.6908 234.49 649.573 233.5958 649.7966 231.5839 657.5088 230.8015 659.7442 229.5721 661.8679 227.7837 663.768 225.5483 665.6681 223.4246 667.1211 221.7481 668.5741 221.0774 670.1389 220.4068 672.5979 219.2891 675.1686 218.0596 676.957 200.7351 694.5051 199.6174 695.8463 198.7232 697.4111 197.0466 701.3231 195.8172 702.8879 193.9171 704.4527 191.011 705.4586 187.2108 707.5823 184.8636 707.9176 181.8458 707.1352 172.9041 698.6406 162.174 690.8166 160.8328 689.2518 160.1622 688.1341 156.9208 680.7572 155.4678 676.0628 154.3501 670.586 153.3441 663.8798 153.3441 655.4969 154.5736 646.667 155.6913 642.4197 162.9564 622.4127 163.0682 619.3948 161.0563 616.7123 157.3679 615.7064 151.1087 616.8241 147.0849 619.9537 144.8495 622.4127 141.9435 624.7598 138.255 626.1011 129.8722 626.66 126.519 625.654 124.0601 624.0892 122.0482 623.6421 119.0304 624.6481 107.1826 633.8133 78.4574 647.7847 71.6394 650.3554ZM494.4697 548.4201L503.2997 549.6496 513.4708 560.6032 502.9644 573.4569 509.2235 584.8575 515.4827 614.2534 516.2651 617.7183 521.6301 620.8479 527.7776 623.195 531.1307 629.566 535.2662 637.39 543.4255 649.9084 546.7787 659.2971 542.7549 663.9915 538.6194 669.4683 532.5837 664.7739 526.4363 659.2971 520.2889 651.4732 509.4471 645.214 497.8229 643.6492 488.3223 642.8668 471.3331 642.0844 471.3331 631.1308 469.9919 623.9774 477.4805 620.0655 486.3105 620.0655 486.3105 616.9359 482.9573 608.3295 480.8337 600.5055 484.9692 591.1167 480.163 589.5519 471.3331 591.8991 459.8207 591.1167 459.8207 586.4223 457.8088 577.816 455.6851 568.4272 449.6495 557.4736 441.4902 552.7792 444.8433 548.0848 455.0145 544.8435 467.98 545.7376 477.4805 545.7376 494.4697 548.4201Z" />
  <path class="Maseru" d="M125.4013 457.4384L126.2955 456.4325 129.0898 452.1851 131.2134 447.1554 131.9958 441.6787 134.2312 439.8903 144.0671 440.3374 146.3025 438.3255 148.0909 429.7191 152.6735 422.2305 169.998 403.1176 172.7923 401.1057 174.4689 398.1997 175.0277 392.0523 173.7982 388.3638 171.3393 385.346 169.6627 382.5517 170.6686 379.3103 174.4689 376.1807 178.2691 374.9513 182.1811 372.8276 186.2048 367.2391 187.2108 362.9917 187.9932 351.8146 189.3344 347.9026 196.2642 343.5436 213.2535 337.955 213.5888 338.7374 215.4889 342.3141 216.6066 343.4318 218.2832 344.326 220.295 344.9966 221.9716 345.8908 222.6422 347.0085 222.754 348.238 220.7421 353.603 220.5186 355.056 220.5186 357.2914 221.6363 360.0857 223.5364 362.9917 227.4484 364.7801 232.1428 365.2272 241.5316 363.7741 246.673 361.5387 250.8086 357.962 255.6147 351.144 258.5208 349.8028 261.8739 350.5851 272.2686 358.1856 278.6396 361.2034 291.0462 363.7741 297.8642 366.3449 304.1234 365.1154 306.2471 362.9917 307.253 359.7504 307.9237 356.8443 309.3767 354.1618 311.6121 352.2617 314.7417 350.8087 322.4539 349.0204 326.7012 348.9086 331.3956 349.4674 338.1019 351.8146 363.3622 366.9037 367.1624 368.245 372.1921 369.0274 384.4869 366.4567 389.0695 364.7801 397.0053 360.421 405.6117 353.4912 409.3001 349.3557 417.1241 337.6197 419.6948 335.049 421.8185 335.1607 423.7186 337.955 425.0598 341.9788 428.1894 355.6149 428.5248 360.0857 428.5248 365.0036 427.6306 375.5101 427.9659 379.8692 429.1954 383.4459 431.8779 386.3519 435.0075 387.1343 439.2548 384.4518 448.8671 374.7277 462.3914 364.1095 467.1976 358.0738 469.8801 355.8384 473.1215 354.1618 482.1749 351.0322 483.8515 349.9145 485.1927 348.4615 486.1987 346.7849 488.4341 347.3438 490.2224 348.0144 502.5173 367.3508 479.8277 388.4756 475.804 390.711 470.4389 392.9464 467.1976 393.2817 464.8504 395.8525 462.9503 399.8762 461.3855 404.4589 460.3795 408.5944 459.9325 413.0652 460.3795 417.7596 459.2618 424.8012 460.0442 428.9367 461.4972 431.9546 463.8444 434.7488 465.0739 436.7607 466.1916 438.102 468.8741 439.2197 469.6565 441.1198 470.3272 443.6905 471.3331 445.4789 474.6862 446.9319 476.251 449.0556 477.257 452.744 488.0988 514.8888 487.5399 519.8067 488.0988 524.054 494.4697 548.4201 477.4805 545.7376 467.98 545.7376 455.0145 544.8435 444.8433 548.0848 441.4902 552.7792 449.6495 557.4736 455.6851 568.4272 457.8088 577.816 459.8207 586.4223 459.8207 591.1167 471.3331 591.8991 480.163 589.5519 484.9692 591.1167 480.8337 600.5055 482.9573 608.3295 486.3105 616.9359 486.3105 620.0655 477.4805 620.0655 469.9919 623.9774 471.3331 631.1308 471.3331 642.0844 464.5151 649.9084 453.6733 653.038 450.2084 642.4197 446.0728 638.843 444.6198 635.6017 441.4902 631.8014 436.3487 629.0072 417.4594 626.4364 410.8649 624.4245 401.6997 617.4947 392.4227 613.0239 338.549 602.5174 329.6073 599.4996 313.1769 599.3878 278.3043 604.4175 273.6099 602.0703 272.9393 598.7172 276.1806 594.6934 280.2044 590.5579 282.3281 584.9693 282.1045 578.1513 261.7622 544.7317 257.4031 541.3785 253.044 540.4844 239.855 540.9315 230.0191 538.3607 225.3248 534.1134 223.5364 528.9719 223.8717 518.0184 222.754 514.1064 220.7421 513.5475 218.2832 515.1123 211.018 524.2776 209.2297 525.8424 206.8825 527.1836 195.8172 530.425 191.7934 530.5367 188.552 529.9779 182.2928 528.1895 179.275 526.0659 177.4867 523.0481 177.2631 519.5832 176.4807 515.3359 174.3571 509.8591 163.7388 497.7878 160.8328 492.7581 159.1562 488.0637 154.0147 478.7867 152.6735 474.8747 151.444 466.4919 149.5439 462.4681 147.4202 460.4562 144.8495 459.2267 142.0552 458.6679 139.9316 458.7796 135.349 459.7856 126.4073 457.6619 125.4013 457.4384Z" />
  <path class="Mohale's Hoek" d="M71.6394 650.3554L78.4574 647.7847 107.1826 633.8133 119.0304 624.6481 122.0482 623.6421 124.0601 624.0892 126.519 625.654 129.8722 626.66 138.255 626.1011 141.9435 624.7598 144.8495 622.4127 147.0849 619.9537 151.1087 616.8241 157.3679 615.7064 161.0563 616.7123 163.0682 619.3948 162.9564 622.4127 155.6913 642.4197 154.5736 646.667 153.3441 655.4969 153.3441 663.8798 154.3501 670.586 155.4678 676.0628 156.9208 680.7572 160.1622 688.1341 160.8328 689.2518 162.174 690.8166 172.9041 698.6406 181.8458 707.1352 184.8636 707.9176 187.2108 707.5823 191.011 705.4586 193.9171 704.4527 195.8172 702.8879 197.0466 701.3231 198.7232 697.4111 199.6174 695.8463 200.7351 694.5051 218.0596 676.957 219.2891 675.1686 220.4068 672.5979 221.0774 670.1389 221.7481 668.5741 223.4246 667.1211 225.5483 665.6681 227.7837 663.768 229.5721 661.8679 230.8015 659.7442 231.5839 657.5088 233.5958 649.7966 234.49 649.573 235.7195 650.6908 237.6196 653.2615 241.5316 655.4969 246.8966 655.944 255.8383 655.0498 261.0915 655.7205 264.78 657.8441 270.8156 667.3447 273.2746 670.6978 276.0689 673.6039 280.3162 676.2864 284.2282 676.2864 288.9226 674.3862 293.0581 671.3684 300.0997 671.0331 306.1353 669.4683 309.6002 661.6443 317.7595 656.9499 324.4658 663.2091 334.0781 668.6859 342.908 666.3387 349.6143 658.5147 351.0673 652.2556 348.9437 642.0844 356.4323 642.8668 363.921 652.2556 368.7272 659.2971 371.4097 652.2556 372.7509 640.5196 377.5571 634.2604 385.0458 638.9548 391.752 646.7788 402.7056 646.7788 412.8768 646.7788 423.7186 653.8204 434.6722 656.9499 440.7078 658.5147 441.4902 647.5612 450.2084 642.4197 453.6733 653.038 464.5151 649.9084 471.3331 642.0844 488.3223 642.8668 497.8229 643.6492 509.4471 645.214 520.2889 651.4732 526.4363 659.2971 532.5837 664.7739 538.6194 669.4683 542.7549 663.9915 546.7787 659.2971 543.4255 649.9084 535.2662 637.39 543.4255 632.6956 551.5848 631.8014 557.7322 630.2366 557.7322 623.195 559.7441 615.3711 569.9153 611.4591 578.0746 615.3711 585.5633 613.0239 595.7344 606.7647 606.688 599.7231 616.1886 596.5935 627.0304 595.0287 631.1659 589.5519 643.0136 580.4985 649.1611 591.8991 649.0493 602.0703 646.4785 614.0298 645.5844 622.9715 648.0433 637.6135 648.1551 643.5374 646.3668 649.126 643.349 652.2556 638.431 654.7145 624.1243 660.5266 619.7652 663.6562 615.5179 667.5682 610.2647 675.2804 606.9116 678.6336 604.3408 680.6454 601.9936 681.5396 600.0935 682.6573 597.8581 684.1103 588.6928 691.7108 574.1626 701.5466 572.2625 701.9937 571.1448 702.7761 569.58 700.876 562.7619 688.693 558.1793 684.1103 543.0902 680.869 530.2365 687.3517 528.1129 688.8047 517.7182 696.2934 503.7468 700.9878 485.6398 699.3112 476.0275 700.876 471.892 707.1352 469.433 713.8415 463.1738 717.7535 448.8671 722.2243 441.4902 723.2303 419.8066 717.6417 416.1182 717.977 405.6117 720.3242 394.211 720.2124 389.8519 722.0008 386.387 724.9068 383.481 728.707 374.651 745.3609 372.9745 751.5084 372.9745 758.6617 376.3276 770.6212 376.8865 776.4333 374.5393 782.2454 372.5274 784.2573 367.4977 787.6105 365.374 789.9576 363.921 792.6402 361.6856 798.564 360.2326 801.3583 348.8319 807.7293 342.2374 815.7768 340.3373 817.5651 333.1839 820.2476 325.6953 820.6947 311.6121 817.5651 309.9355 816.2239 307.1413 811.3059 305.0176 809.9647 301.1056 810.4118 299.5408 813.2061 299.6526 817.3416 300.435 821.8124 306.5824 840.8135 307.0295 849.9788 302.2233 859.2558 288.0284 865.8503 259.6385 854.3378 244.7729 858.3616 241.9787 862.7207 239.1844 873.3389 236.2783 876.9156 232.8134 877.3627 228.4543 876.245 222.754 878.2569 221.1892 872.8919 205.9883 865.8503 199.3938 860.2617 194.923 852.9966 191.7934 841.1488 188.7756 837.9075 182.0693 837.9075 173.2394 841.5959 170.3333 842.043 166.086 841.3724 157.7032 839.0252 157.4796 838.9134 152.897 838.3546 153.5677 830.8659 144.2906 804.8232 143.5083 790.9636 152.6735 768.274 158.9327 761.7913 159.268 757.0969 155.356 753.8556 148.985 752.0672 139.708 752.0672 134.4548 753.2967 130.6546 751.7319 125.5131 743.6844 122.7188 736.8663 117.0185 714.065 111.0946 704.3409 91.0876 687.3517 83.04 677.8512 71.6394 650.3554Z" />
  <path class="Mokhotlong" d="M949.9373 461.3504L949.7138 461.3504 942.8957 460.1209 940.9956 460.4562 939.2073 461.3504 929.3714 468.9508 926.6889 470.5156 915.0647 474.0923 911.0409 476.1042 903.2169 483.4811 901.2051 484.2635 897.2931 483.3693 894.1635 481.2457 888.4631 475.5453 885.11 470.5156 880.5274 460.568 875.9448 456.4325 869.2385 452.5205 856.8319 447.379 843.6429 443.5788 839.8427 443.467 836.6013 444.2494 830.3421 447.4908 826.5419 448.4967 822.4064 448.7202 817.6002 448.3849 797.1461 449.3909 791.4458 449.0556 772.4447 443.0199 765.8502 442.014 747.1844 443.3552 744.2783 442.6846 742.7135 439.4432 742.3782 437.8784 742.6018 436.0901 741.7076 434.6371 747.1844 429.3838 750.5375 423.907 752.7729 416.7537 753.5553 406.9178 752.5494 387.1343 753.22 377.2985 753.22 377.1867 750.9846 376.5161 749.1963 374.8395 746.0667 373.2747 739.3604 371.7099 734.3307 371.151 729.9716 371.2628 727.4009 372.2688 726.0596 373.9453 724.7184 376.069 722.4829 377.2985 719.6887 376.069 713.5413 367.6861 710.1881 365.1154 704.1525 362.9917 700.464 360.7563 699.011 357.1796 700.0169 354.1618 704.1525 346.4496 716.2238 318.8421 717.6768 312.3594 717.565 307.4415 715.6649 302.6353 713.653 299.3939 711.3058 297.4938 708.288 298.4998 703.8172 301.5176 679.7864 322.307 668.9446 328.4545 652.2906 332.2547 653.5201 323.8718 653.8554 315.0419 655.4202 309.0063 658.6616 302.9706 665.0326 295.482 669.727 291.2347 674.4213 288.4404 682.4689 286.5403 686.4926 284.8637 690.9635 281.6223 725.5008 249.6558 731.76 242.5024 734.7778 235.4608 737.7956 225.625 741.037 178.9046 742.3782 172.4219 745.9549 165.2685 747.9668 155.6562 759.3674 150.5147 761.3793 148.6146 764.0618 145.038 764.3971 142.8025 764.1736 141.2377 763.2794 139.8965 762.2735 138.8905 761.2675 137.6611 760.2616 136.0963 759.4792 133.4138 759.0321 123.1308 762.8323 94.9645 763.1677 93.8468 769.7622 96.3057 776.1331 100.2177 776.2449 100.3295 781.9452 105.3592 787.3102 111.8419 804.0759 141.573 827.1008 165.1568 833.1364 164.8215 842.9723 167.504 852.0257 171.7513 855.826 176.5574 855.9377 185.9462 858.3967 191.9818 863.8735 195.7821 873.2623 198.3528 887.6807 204.9473 922.1063 241.3847 935.8541 245.632 952.508 246.0791 965.2499 251.4441 967.3736 278.9398 972.068 284.6402 978.5507 289.6699 984.251 296.1526 987.4924 304.2001 992.075 321.0776 1003.6992 336.9491 1007.9465 347.3438 1008.2818 350.2498 1007.9465 357.515 1008.2818 360.9799 1010.182 363.8859 1015.7705 369.4745 1017 372.2688 1015.547 379.1986 1007.8348 390.2639 1007.0524 397.8644 1007.2759 404.7942 1005.3758 410.1592 1001.9109 414.4065 997.1047 417.9832 986.1512 422.7893 973.6328 426.7013 961.8968 431.8428 953.0669 440.8963 950.0491 450.9557 949.9373 461.3504Z" />
  <path class="Qacha's Nek" d="M882.5393 569.2096L881.9804 579.9396 879.4097 592.6815 879.1861 604.1939 885.3336 612.8003 890.5868 616.9359 891.7045 620.4008 891.481 624.6481 892.3751 631.4661 896.9578 640.6314 897.9637 645.4375 895.2812 649.573 890.475 651.9202 879.4097 655.2734 874.38 657.5088 841.631 677.9629 825.2007 688.2459 776.5802 720.2124 749.7551 731.3895 722.1476 737.3134 684.5925 751.6201 670.5094 751.6201 650.2788 743.6844 643.2372 742.902 636.4191 744.5785 618.3122 755.4204 608.0293 759.1088 587.9105 756.2028 577.851 757.7675 569.58 765.1444 566.0033 771.8507 565.8915 771.6272 558.7382 761.5678 556.7263 760.3383 554.1556 759.1088 551.5848 759.5559 548.4552 759.7794 512.3531 755.3086 507.6587 753.1849 504.6409 750.1671 503.0761 746.9257 502.5173 743.7961 502.5173 740.2195 502.9644 736.1957 504.9762 728.0364 506.8763 724.348 510.1177 720.8831 522.9714 714.1768 530.9072 713.6179 532.8073 711.8296 534.0367 708.0294 531.2425 699.7583 528.1129 688.8047 530.2365 687.3517 543.0902 680.869 558.1793 684.1103 562.7619 688.693 569.58 700.876 571.1448 702.7761 572.2625 701.9937 574.1626 701.5466 588.6928 691.7108 597.8581 684.1103 600.0935 682.6573 601.9936 681.5396 604.3408 680.6454 606.9116 678.6336 610.2647 675.2804 615.5179 667.5682 619.7652 663.6562 624.1243 660.5266 638.431 654.7145 643.349 652.2556 646.3668 649.126 648.1551 643.5374 648.0433 637.6135 645.5844 622.9715 646.4785 614.0298 649.0493 602.0703 649.1611 591.8991 643.0136 580.4985 650.0552 577.816 654.079 577.5924 659.6675 577.816 668.1622 579.7161 679.7864 584.2987 687.8339 588.9931 695.5461 594.8052 698.4521 597.7112 700.6876 600.8408 701.9171 604.4175 702.2524 608.6648 701.47 617.83 701.6935 621.8538 702.5877 624.8716 704.5996 627.4424 706.9468 629.2307 708.7351 630.1249 713.9883 627.6659 717.1179 624.5363 719.8004 621.0714 722.7065 618.0536 726.7303 616.1535 730.6422 616.377 734.666 617.7183 738.578 618.1653 742.8253 615.9299 746.0667 609.8943 744.949 603.8586 742.2664 597.9348 742.9371 597.823 746.8491 596.9288 755.4554 596.8171 761.4911 598.0465 767.1914 600.5055 789.6574 618.9477 795.8048 621.6303 802.5111 622.4127 811.1175 621.2949 817.712 619.1713 823.9712 615.9299 830.4539 608.6648 833.4717 603.2998 835.1483 597.9348 838.3897 568.4272 840.7369 564.7387 844.7606 562.5033 853.367 564.5152 867.4502 569.992 876.0565 570.8861 882.3157 569.3213 882.5393 569.2096Z" />
  <path class="Quthing" d="M566.0033 771.8507L558.9617 785.2633 552.3672 791.8578 548.567 794.7638 543.3138 802.3642 540.4077 805.2703 536.3839 807.0586 524.2009 808.847 516.4887 811.9766 507.7705 817.3416 501.2878 824.6067 500.3936 833.6602 504.9762 840.1429 511.1237 843.049 516.0416 847.2963 517.1593 858.3616 514.1415 868.7563 508.6647 875.3508 473.2332 903.4054 469.8801 909.2175 470.7743 913.0177 475.6922 921.5123 477.0334 926.3185 476.4746 930.2305 469.433 952.8083 467.98 955.7143 464.6268 960.1851 461.3855 962.9794 457.8088 964.9913 454.3439 967.4503 451.6614 972.0329 449.2024 981.757 449.5377 989.6927 450.5437 997.405 450.4319 1006.9055 440.3725 1002.4347 391.0814 998.1873 382.3633 995.2813 373.9804 991.1458 370.0684 987.9044 366.7153 984.663 363.2504 981.8688 358.3325 980.1922 354.7558 980.751 346.7083 984.7748 342.5727 985.4454 325.0246 983.0982 310.4944 978.5156 297.976 970.4681 275.3982 944.649 249.9144 925.2008 247.3437 921.0652 246.673 916.7062 246.4495 912.3471 244.9965 908.0998 235.0488 893.7931 224.0953 883.063 222.754 878.2569 228.4543 876.245 232.8134 877.3627 236.2783 876.9156 239.1844 873.3389 241.9787 862.7207 244.7729 858.3616 259.6385 854.3378 288.0284 865.8503 302.2233 859.2558 307.0295 849.9788 306.5824 840.8135 300.435 821.8124 299.6526 817.3416 299.5408 813.2061 301.1056 810.4118 305.0176 809.9647 307.1413 811.3059 309.9355 816.2239 311.6121 817.5651 325.6953 820.6947 333.1839 820.2476 340.3373 817.5651 342.2374 815.7768 348.8319 807.7293 360.2326 801.3583 361.6856 798.564 363.921 792.6402 365.374 789.9576 367.4977 787.6105 372.5274 784.2573 374.5393 782.2454 376.8865 776.4333 376.3276 770.6212 372.9745 758.6617 372.9745 751.5084 374.651 745.3609 383.481 728.707 386.387 724.9068 389.8519 722.0008 394.211 720.2124 405.6117 720.3242 416.1182 717.977 419.8066 717.6417 441.4902 723.2303 448.8671 722.2243 463.1738 717.7535 469.433 713.8415 471.892 707.1352 476.0275 700.876 485.6398 699.3112 503.7468 700.9878 517.7182 696.2934 528.1129 688.8047 531.2425 699.7583 534.0367 708.0294 532.8073 711.8296 530.9072 713.6179 522.9714 714.1768 510.1177 720.8831 506.8763 724.348 504.9762 728.0364 502.9644 736.1957 502.5173 740.2195 502.5173 743.7961 503.0761 746.9257 504.6409 750.1671 507.6587 753.1849 512.3531 755.3086 548.4552 759.7794 551.5848 759.5559 554.1556 759.1088 556.7263 760.3383 558.7382 761.5678 565.8915 771.6272 566.0033 771.8507Z" />
  <path class="Thaba-Tseka" d="M949.9373 461.3504L949.9373 463.2505 952.8433 474.7629 958.7672 482.1398 951.9492 486.8342 951.2785 494.3229 951.3903 502.2586 946.6959 508.2943 914.5058 518.2419 902.4345 527.966 895.6165 539.9255 890.3633 553.5616 882.5393 567.8683 882.5393 569.2096 882.3157 569.3213 876.0565 570.8861 867.4502 569.992 853.367 564.5152 844.7606 562.5033 840.7369 564.7387 838.3897 568.4272 835.1483 597.9348 833.4717 603.2998 830.4539 608.6648 823.9712 615.9299 817.712 619.1713 811.1175 621.2949 802.5111 622.4127 795.8048 621.6303 789.6574 618.9477 767.1914 600.5055 761.4911 598.0465 755.4554 596.8171 746.8491 596.9288 742.9371 597.823 742.2664 597.9348 744.949 603.8586 746.0667 609.8943 742.8253 615.9299 738.578 618.1653 734.666 617.7183 730.6422 616.377 726.7303 616.1535 722.7065 618.0536 719.8004 621.0714 717.1179 624.5363 713.9883 627.6659 708.7351 630.1249 706.9468 629.2307 704.5996 627.4424 702.5877 624.8716 701.6935 621.8538 701.47 617.83 702.2524 608.6648 701.9171 604.4175 700.6876 600.8408 698.4521 597.7112 695.5461 594.8052 687.8339 588.9931 679.7864 584.2987 668.1622 579.7161 659.6675 577.816 654.079 577.5924 650.0552 577.816 643.0136 580.4985 631.1659 589.5519 627.0304 595.0287 616.1886 596.5935 606.688 599.7231 595.7344 606.7647 585.5633 613.0239 578.0746 615.3711 569.9153 611.4591 559.7441 615.3711 557.7322 623.195 557.7322 630.2366 551.5848 631.8014 543.4255 632.6956 535.2662 637.39 531.1307 629.566 527.7776 623.195 521.6301 620.8479 516.2651 617.7183 515.4827 614.2534 509.2235 584.8575 502.9644 573.4569 513.4708 560.6032 503.2997 549.6496 494.4697 548.4201 488.0988 524.054 487.5399 519.8067 488.0988 514.8888 477.257 452.744 476.251 449.0556 474.6862 446.9319 471.3331 445.4789 470.3272 443.6905 469.6565 441.1198 468.8741 439.2197 466.1916 438.102 465.0739 436.7607 463.8444 434.7488 461.4972 431.9546 460.0442 428.9367 459.2618 424.8012 460.3795 417.7596 459.9325 413.0652 460.3795 408.5944 461.3855 404.4589 462.9503 399.8762 464.8504 395.8525 467.1976 393.2817 470.4389 392.9464 475.804 390.711 479.8277 388.4756 502.5173 367.3508 506.6528 360.7563 507.8823 358.4091 511.3472 352.8206 513.3591 350.5851 531.5778 336.8373 534.9309 332.8135 536.831 328.0074 536.831 320.5187 531.0189 306.3238 528.7835 299.1704 527.554 296.2644 525.9892 293.5818 522.7479 288.8875 521.4066 281.7341 528.0011 265.4155 532.3602 261.0564 537.1663 259.7152 541.3019 259.0446 545.4374 259.2681 552.0319 260.3858 555.0497 261.3917 557.7322 263.0683 559.4088 265.6391 559.7441 268.9922 559.5206 273.2395 559.7441 277.9339 561.1971 282.74 566.1151 292.4641 577.404 324.9895 587.7987 346.1143 591.8224 350.0263 596.5168 351.8146 600.6524 352.1499 612.3883 354.7207 626.0244 359.9739 646.7021 371.3746 652.7377 373.61 657.3204 374.0571 669.8387 372.9394 672.8565 371.8217 675.3155 370.0333 676.545 368.3568 676.0979 366.6802 674.4213 364.333 669.727 360.7563 666.9327 358.0738 655.0849 342.3141 653.2966 339.1845 652.5142 337.3961 652.2906 332.2547 668.9446 328.4545 679.7864 322.307 703.8172 301.5176 708.288 298.4998 711.3058 297.4938 713.653 299.3939 715.6649 302.6353 717.565 307.4415 717.6768 312.3594 716.2238 318.8421 704.1525 346.4496 700.0169 354.1618 699.011 357.1796 700.464 360.7563 704.1525 362.9917 710.1881 365.1154 713.5413 367.6861 719.6887 376.069 722.4829 377.2985 724.7184 376.069 726.0596 373.9453 727.4009 372.2688 729.9716 371.2628 734.3307 371.151 739.3604 371.7099 746.0667 373.2747 749.1963 374.8395 750.9846 376.5161 753.22 377.1867 753.22 377.2985 752.5494 387.1343 753.5553 406.9178 752.7729 416.7537 750.5375 423.907 747.1844 429.3838 741.7076 434.6371 742.6018 436.0901 742.3782 437.8784 742.7135 439.4432 744.2783 442.6846 747.1844 443.3552 765.8502 442.014 772.4447 443.0199 791.4458 449.0556 797.1461 449.3909 817.6002 448.3849 822.4064 448.7202 826.5419 448.4967 830.3421 447.4908 836.6013 444.2494 839.8427 443.467 843.6429 443.5788 856.8319 447.379 869.2385 452.5205 875.9448 456.4325 880.5274 460.568 885.11 470.5156 888.4631 475.5453 894.1635 481.2457 897.2931 483.3693 901.2051 484.2635 903.2169 483.4811 911.0409 476.1042 915.0647 474.0923 926.6889 470.5156 929.3714 468.9508 939.2073 461.3504 940.9956 460.4562 942.8957 460.1209 949.7138 461.3504 949.9373 461.3504Z" />
</svg>