<?xml version="1.0" encoding="utf-8"?>
<svg xmlns="http://www.w3.org/2000/svg" viewBox="0 0 930 1024" style="stroke-width:0.25px;stroke-linejoin:round;stroke:#444;fill:#ddd" fill-rule="evenodd">
  <path class="Adrar" d="M211.456 496.5756L232.469 496.5756 253.482 496.5756 271.2536 496.5756 285.0014 496.5756 293.7196 496.5756 296.8492 496.5756 307.9145 496.5756 307.9145 496.2403 307.1321 483.4983 306.685 476.4568 306.7968 476.4568 307.9145 476.9039 308.6969 477.1274 355.9761 495.1226 475.7948 481.4865 798.4782 255.9322 798.59 255.9322 798.59 256.3793 799.1488 261.5208 800.3783 272.6979 801.496 283.9868 802.0549 289.0165 803.1726 298.9641 804.1785 308.9118 805.2963 318.8594 806.3022 328.807 807.4199 338.7547 808.4259 348.5905 808.7612 350.7142 808.6494 350.826 808.2023 352.0554 687.9365 623.7712 686.9306 626.0066 458.8056 627.1243 457.2408 627.1243 429.4098 650.1492 427.9568 651.3787 426.2802 664.903 425.8331 667.809 408.7321 658.4202 392.6371 669.5974 358.6586 691.9516 349.9405 701.6757 333.9572 719.2238 290.7018 683.9041 216.9328 683.9041 217.0446 661.8851 217.1563 649.7021 222.0743 514.0119 220.6212 511.8882 211.456 496.5756Z" />
  <path class="Assaba" d="M406.9438 957.1846L407.6144 954.055 409.4028 950.4783 409.8498 946.4546 410.744 942.5426 413.6501 939.3012 414.3207 937.4011 414.7678 935.501 414.7678 934.3833 415.2149 933.3773 417.0032 932.1479 417.8974 930.136 417.6738 929.4653 417.562 928.5712 418.1209 927.4535 418.9033 926.4475 420.9152 925.3298 422.1447 923.5415 414.0971 922.2002 408.7321 918.6235 407.7262 918.5118 406.4967 918.7353 405.2672 918.4 404.2613 917.6176 400.3493 918.1765 399.4551 917.3941 398.5609 916.7234 397.8903 917.9529 398.3374 919.853 399.1198 921.5296 399.7904 923.2062 399.2316 924.5474 398.2256 925.218 397.1079 925.6651 396.7726 927.0064 396.9961 928.2359 395.3196 928.2359 393.3077 928.0123 391.184 928.2359 389.2839 928.7947 387.8309 928.0123 386.3779 926.224 384.0307 925.8887 383.0248 922.7591 383.6954 917.0587 382.0188 917.1705 380.5658 916.7234 379.6716 915.4939 376.9891 912.6997 373.636 911.6937 373.1889 912.2526 372.8536 912.6997 371.6241 912.2526 370.3946 911.582 367.7121 911.582 366.8179 910.0172 366.3708 903.758 365.1414 902.5285 363.4648 902.0814 362.2353 901.299 360.8941 900.9637 359.3293 901.4108 357.988 902.1932 355.1937 904.7639 352.1759 904.9875 351.8406 902.6403 353.2936 897.2752 353.1818 894.0339 352.7348 892.8044 352.5112 890.1219 351.9524 888.7806 352.0641 886.3217 349.2699 885.5393 334.8514 883.0803 332.9513 883.6392 331.2747 885.3157 330.2688 885.5393 329.2628 885.0922 328.0333 884.9804 327.0274 885.0922 326.5803 883.6392 326.6921 882.2979 328.1451 880.9567 328.9275 879.1683 329.0393 877.7153 327.8098 876.7094 327.2509 874.921 326.9156 873.0209 325.7979 870.6737 323.4507 869.4442 321.7741 868.2147 321.4388 866.3146 321.5506 862.738 322.5565 859.4966 324.0096 856.4788 322.4448 853.6845 322.8919 850.8902 322.7801 848.0959 323.3389 846.5311 324.1213 845.0781 329.5981 838.8189 331.8336 838.2601 332.7277 837.5894 333.3983 836.807 336.7515 835.8011 337.7574 835.8011 338.6516 836.0246 339.5458 835.5776 340.4399 835.0187 341.7812 834.2363 343.4578 833.901 345.3579 832.895 347.3697 829.2066 349.0463 827.8653 351.3935 827.53 352.8465 826.077 355.3055 825.0711 358.2116 824.5122 358.8822 823.7298 358.9939 822.2768 359.8881 821.3826 361.1176 820.8238 368.3827 827.7536 380.454 832.3362 391.184 835.6893 403.1436 831.5538 416.7796 832.6715 420.1328 828.536 420.1328 823.3945 420.6916 812.3292 422.7035 807.9701 421.474 803.611 424.4919 802.2697 424.0448 799.2519 421.027 798.4695 423.2624 797.1283 425.7213 795.5635 428.0685 794.8928 428.5156 792.5457 427.3979 790.3102 427.845 789.8631 427.845 789.1925 427.0626 787.8513 425.6096 785.8394 422.8153 782.8216 422.3682 781.9274 419.9092 778.0154 421.6976 778.1272 418.7915 772.6504 416.8914 769.2972 416.5561 768.5149 414.9913 766.9501 415.9972 764.6029 418.4562 763.3734 418.568 759.4614 422.7035 759.7967 423.1506 757.226 425.386 757.1142 430.1922 757.3377 432.2041 757.673 432.9865 757.4495 433.6571 758.1201 435.4454 758.3437 437.3455 757.0024 441.7046 755.6612 443.8283 755.7729 444.4989 754.2081 447.0696 750.6315 445.1695 748.7314 447.2932 747.2783 449.5286 744.3723 451.9876 742.5839 457.4644 740.2367 459.6998 740.4603 462.047 738.7837 453.8877 785.3923 452.8817 787.963 452.77 790.5338 453.8877 793.1045 455.4525 801.152 460.4822 811.6585 460.8175 814.341 460.2586 817.2471 461.2646 820.0414 460.9293 821.6062 460.2586 823.0592 459.0292 829.7655 459.6998 831.442 460.9293 832.6715 461.3763 834.5716 460.1469 844.0722 460.1469 846.3076 460.5939 848.4312 460.5939 849.7725 460.3704 851.2255 461.3763 853.1256 460.8175 854.2433 460.0351 855.2493 460.5939 856.9259 462.1587 858.0436 463.7235 860.0554 464.1706 861.1732 464.7295 862.1791 466.0707 862.2909 467.5238 862.9615 468.6415 864.3028 469.5356 865.644 469.3121 868.2147 470.4298 870.6737 471.9946 872.9091 474.23 873.9151 475.4595 874.1386 476.689 874.4739 478.8127 873.3562 479.7068 874.3622 480.9363 873.9151 482.054 873.6915 482.5011 874.3622 482.3893 875.3681 481.4952 876.4858 479.7068 876.5976 479.7068 878.6095 477.9185 879.7272 477.2479 881.0684 473.3359 883.3039 471.7711 883.3039 470.4298 883.6392 469.4239 884.6451 470.2063 886.4334 473.2241 887.3276 474.23 887.8865 474.3418 889.563 473.6712 891.2396 473.1123 892.022 472.5535 892.9162 472.2182 895.1516 471.7711 896.2693 471.5475 897.387 472.4417 899.2871 471.8828 900.4048 472.1064 901.6343 474.6771 902.5285 476.689 904.2051 477.9185 906.5523 478.142 909.2348 477.6949 911.3584 477.6949 913.5938 476.8008 914.9351 476.8008 917.0587 476.4655 917.6176 478.0303 919.1824 482.8364 922.9826 484.9601 926.0004 491.1075 965.9028 490.8839 966.0145 489.4309 966.1263 486.3013 966.1263 484.9601 965.9028 484.7365 965.791 484.513 965.791 484.0659 965.6792 483.6188 965.3439 483.1717 965.2321 482.7246 965.3439 482.5011 965.2321 482.054 965.0086 481.3834 965.0086 480.8245 965.1204 480.3774 965.3439 480.3774 965.6792 479.7068 966.3498 479.3715 967.8029 479.4833 971.0442 478.9244 972.7208 478.3656 973.2796 478.2538 973.2796 478.0303 973.3914 477.9185 973.5032 477.1361 973.9503 476.9125 974.2856 476.5772 974.6209 476.5772 974.8444 476.2419 975.2915 475.6831 975.4033 474.9007 975.4033 474.1183 975.6268 472.8888 976.8563 472.3299 978.1976 471.5475 980.9919 470.7651 982.3331 468.7532 984.2332 468.0826 985.5745 466.8531 989.9336 466.6296 990.4924 466.5178 990.3806 466.4061 989.8218 466.4061 989.71 466.1825 989.4865 466.0707 989.4865 466.0707 989.3747 465.959 989.2629 465.8472 989.0394 465.8472 988.4805 465.1766 988.0334 464.7295 987.6981 464.3942 987.5864 463.9471 987.251 463.6118 987.1393 463.3882 987.1393 462.7176 986.1333 462.6058 985.798 462.3823 985.5745 462.3823 985.3509 462.2705 985.0156 462.1587 984.9039 462.047 984.5685 461.9352 984.345 461.5999 984.1215 461.3763 983.6744 461.2646 983.4508 461.2646 983.2273 461.2646 983.0037 461.041 982.6684 460.8175 982.4449 460.7057 982.3331 460.7057 982.2213 460.5939 981.886 460.4822 981.5507 460.2586 981.4389 460.1469 981.4389 459.8116 981.2154 459.6998 980.7683 459.0292 980.3212 458.6938 980.2095 458.135 979.8741 457.7997 979.6506 456.4584 978.1976 455.8996 977.8623 455.3407 977.1916 454.3348 976.6328 452.6582 975.1798 450.8699 973.7267 449.3051 972.2737 449.1933 972.2737 448.9697 972.0502 448.7462 971.9384 448.4109 971.8266 447.852 971.4913 447.6285 971.3795 447.5167 971.156 447.405 970.9325 447.2932 970.8207 446.8461 970.5971 446.399 970.3736 445.6166 969.9265 445.2813 969.2559 444.6107 968.697 443.7165 968.2499 443.493 968.1382 442.2635 967.5793 441.7046 967.3558 440.6987 966.5734 440.5869 966.0145 439.9163 965.2321 439.4692 965.1204 438.9103 964.4497 437.5691 963.2202 437.5691 963.1085 437.3455 962.8849 437.122 962.4378 436.8985 962.2143 436.7867 961.9908 436.6749 961.5437 435.8925 960.6495 435.5572 960.2024 435.4454 960.2024 434.9983 960.0906 434.8866 959.8671 434.663 959.42 434.4395 959.42 434.3277 959.0847 434.216 958.9729 434.1042 958.7494 433.7689 958.5259 433.4336 958.3023 432.9865 958.1905 432.7629 957.8552 432.7629 957.6317 432.8747 956.7375 432.8747 956.1787 432.7629 955.9551 432.6512 955.8433 432.2041 955.1727 432.0923 954.8374 431.757 954.5021 431.1981 953.9432 430.6393 953.0491 430.4157 952.7138 430.4157 952.602 430.0804 952.3784 429.7451 952.0431 429.4098 951.8196 429.298 951.2607 429.1862 950.9254 429.0745 950.4783 429.0745 950.2548 428.9627 950.0312 428.8509 949.9195 428.4039 949.8077 428.1803 949.8077 427.9568 949.8077 427.6215 949.5842 427.3979 949.4724 427.2861 949.4724 427.0626 949.5842 426.5037 949.4724 425.9449 949.3606 425.6096 949.4724 425.4978 949.6959 425.1625 949.8077 425.0507 949.6959 424.8272 949.5842 424.7154 949.8077 421.027 949.0253 420.2446 949.0253 420.021 949.1371 420.2446 949.4724 420.3563 949.6959 420.6916 949.9195 421.027 950.0312 421.1387 950.4783 421.2505 950.8136 421.1387 951.2607 421.027 951.7078 420.3563 952.3784 419.6857 952.7138 419.5739 952.7138 419.4622 952.7138 419.2386 952.8255 419.1268 952.9373 419.0151 952.9373 418.9033 952.9373 418.6798 953.0491 418.568 953.0491 418.568 953.1608 417.4503 953.4961 416.2208 954.1668 413.4265 957.0728 411.3029 958.1905 411.0793 958.1905 410.8558 957.8552 410.6322 957.7435 410.4087 957.7435 410.2969 957.967 410.1851 958.0788 409.9616 958.0788 409.9616 957.8552 409.9616 957.7435 409.7381 957.5199 409.5145 957.5199 409.291 957.4081 409.1792 957.4081 408.8439 957.5199 408.5086 957.5199 407.9497 957.5199 407.2791 957.2964 407.0556 957.1846 406.9438 957.1846Z" />
  <path class="Brakna" d="M254.935 908.5641L255.3821 907.3347 255.4938 906.3287 254.8232 906.2169 254.0408 906.2169 253.3702 906.4405 252.8113 906.7758 252.2525 907.3347 250.9112 909.3465 250.3524 909.9054 249.1229 910.7996 247.8934 911.582 247.3345 911.8055 246.6639 911.8055 246.1051 911.6937 245.4344 911.2466 244.7638 910.6878 244.3167 909.9054 243.9814 909.2348 243.3108 907.1111 242.9755 906.4405 242.4166 905.8816 241.2989 904.9875 240.6283 904.6521 237.7222 903.758 236.381 903.0873 236.1574 901.8579 236.4927 900.4048 236.4927 899.7342 236.1574 899.0636 235.375 898.0576 235.2633 897.4988 235.375 896.8282 235.8221 895.7105 235.8221 895.1516 235.375 894.5927 234.7044 894.1457 233.1396 893.5868 232.469 893.1397 231.2395 891.5749 230.6806 891.1278 228.2217 889.6748 223.7508 885.5393 221.1801 882.5215 219.3917 881.292 218.8329 880.8449 217.4916 879.0565 216.9328 878.7212 216.0386 878.6095 214.2503 878.4977 213.4679 878.0506 213.1326 877.4917 213.0208 876.0387 212.6855 875.4799 212.0149 875.1446 209.1088 875.3681 208.4382 875.0328 208.3264 874.4739 208.6617 872.9091 208.6617 872.1267 208.4382 871.4561 207.7675 871.1208 203.0732 869.2207 201.5084 869.3325 200.8377 869.556 198.8259 870.7855 198.1552 871.1208 197.3728 871.3443 196.4787 871.4561 195.6963 871.4561 192.6784 870.7855 191.896 870.7855 188.6547 871.6796 187.8723 871.6796 186.9781 871.5679 184.8545 870.5619 184.2956 870.3384 183.5132 870.4502 180.9425 871.1208 180.0483 871.1208 167.1946 870.2266 164.9592 870.7855 163.5062 870.5619 162.7238 869.556 162.1649 868.4383 163.3944 866.8735 170.7713 862.0673 181.0542 856.367 186.9781 853.908 189.2135 851.7844 190.7783 849.6607 191.3372 849.2136 209.5559 835.5776 236.8281 794.8928 253.8173 779.2449 274.942 763.4851 333.9572 719.2238 348.3757 741.6898 346.252 763.5969 345.2461 776.8977 345.4696 776.8977 343.346 803.7228 353.5172 814.4528 361.1176 820.8238 359.8881 821.3826 358.9939 822.2768 358.8822 823.7298 358.2116 824.5122 355.3055 825.0711 352.8465 826.077 351.3935 827.53 349.0463 827.8653 347.3697 829.2066 345.3579 832.895 343.4578 833.901 341.7812 834.2363 340.4399 835.0187 339.5458 835.5776 338.6516 836.0246 337.7574 835.8011 336.7515 835.8011 333.3983 836.807 332.7277 837.5894 331.8336 838.2601 329.5981 838.8189 324.1213 845.0781 323.3389 846.5311 322.7801 848.0959 322.8919 850.8902 322.4448 853.6845 322.2212 856.5905 318.6446 861.732 317.1915 864.8616 316.0738 868.9971 314.1737 872.6856 307.8028 875.1446 300.7612 875.927 297.1845 880.286 296.7374 886.5452 295.3961 888.5571 264.5473 896.9399 261.4177 898.393 260.5235 901.5226 260.0765 904.9875 258.6234 906.7758 256.4998 908.0053 254.935 908.5641Z" />
  <path class="Dakhlet Nouadhibou" d="M3.2263 542.29L2.891 540.5017 2.891 540.6134 3.0028 540.6134 3.0028 540.7252 3.0028 540.837 3.0028 540.9487 3.1145 540.9487 3.1145 541.0605 3.1145 541.1723 3.1145 541.284 3.1145 541.3958 3.2263 541.3958 3.2263 541.5076 3.3381 541.5076 3.3381 541.6194 3.4498 541.6194 3.5616 541.6194 3.5616 541.7311 3.5616 541.8429 3.6734 541.8429 3.2263 542.29ZM1.438 533.3483L1.6615 532.1188 1.6615 532.2306 1.6615 532.3424 1.6615 532.4541 1.6615 532.5659 1.6615 532.6777 1.6615 532.7894 1.6615 532.9012 1.6615 533.013 1.5497 533.1248 1.5497 533.2365 1.438 533.3483ZM211.456 496.5756L220.6212 511.8882 94.9904 511.3294 114.6622 544.749 65.8182 636.7366 61.5708 644.4488 58.8883 647.802 58.553 647.3549 60.3414 644.3371 60.7884 642.7723 61.4591 641.6546 61.5708 641.2075 61.3473 640.6486 60.9002 640.3133 60.3414 640.3133 60.1178 640.5369 59.7825 640.5369 55.5352 645.2312 53.4116 646.9078 56.5411 640.3133 55.4234 640.8722 52.4056 643.4429 51.2879 644.6724 50.8408 645.4548 50.3937 646.349 50.1702 647.2431 50.6173 648.2491 50.6173 648.6961 49.9466 650.2609 49.7231 650.9316 49.6113 651.2669 49.1642 651.3787 48.6054 651.3787 48.2701 651.2669 47.823 651.0433 47.823 650.9316 47.823 650.708 47.7112 650.1492 47.5994 649.5903 47.5994 647.5784 47.7112 646.9078 48.3818 645.6783 50.3937 643.5547 50.8408 642.2134 51.0644 640.5369 51.8468 639.7545 52.8527 639.0838 53.9704 638.0779 61.1238 627.1243 61.5708 626.6772 62.1297 626.4537 62.465 626.0066 62.6886 625.2242 62.8003 623.6594 63.0239 622.9888 63.471 622.7652 63.5827 622.4299 64.924 620.9769 65.2593 620.5298 65.3711 619.6356 65.1475 618.965 64.8122 618.2944 64.2534 617.8473 64.8122 617.2884 65.1475 616.6178 65.3711 615.9472 65.2593 615.053 64.1416 615.7237 63.6945 616.1707 63.471 614.9413 64.5887 612.9294 64.2534 611.8117 62.8003 610.9175 61.9062 611.5881 61.3473 612.8176 61.1238 613.3765 59.8943 614.1589 59.3354 613.8235 59.3354 612.8176 59.559 611.8117 60.0061 610.9175 60.4531 610.2469 64.924 605.6642 66.1535 603.7641 66.8241 601.3052 66.4888 599.4051 64.1416 595.2695 63.2474 593.1459 63.8063 593.1459 64.3651 593.1459 64.8122 592.9223 65.2593 592.4752 66.9359 589.9045 67.6065 588.3397 67.83 586.7749 67.7183 585.3219 67.1594 584.0924 65.0358 580.7393 64.5887 580.5157 63.471 580.404 62.8003 580.0686 62.465 579.2862 62.2415 578.5039 61.9062 578.1685 60.6767 577.4979 58.553 572.1329 57.8824 571.4623 57.2118 571.0152 56.6529 570.4563 56.5411 569.6739 56.7647 569.3386 57.1 569.2268 57.4353 569.0033 57.3235 568.5562 57.1 568.2209 56.6529 567.215 56.3176 565.7619 53.4116 558.2733 52.7409 557.1556 51.6232 556.7085 50.9526 555.7025 50.8408 553.6906 50.5055 552.2376 49.276 552.7965 47.7112 551.7905 47.7112 551.2317 51.1761 550.2257 52.0703 549.7787 50.6173 549.5551 47.9348 550.0022 46.7053 549.7787 45.6993 548.4374 46.2582 547.8785 45.1405 545.6431 44.5816 545.3078 43.0168 544.5254 42.458 548.1021 43.1286 555.9261 42.0109 558.9439 41.2285 557.7144 40.3343 556.8202 38.4342 555.5908 37.7636 554.9201 36.7576 553.02 36.087 552.0141 35.1928 551.3435 32.8457 550.114 32.175 549.5551 32.175 548.6609 32.5103 548.2139 32.9574 548.1021 33.2927 547.8785 33.181 547.2079 32.8457 546.5373 32.7339 545.9784 32.2868 544.749 31.5044 543.743 29.3807 542.0664 29.1572 541.5076 29.1572 539.9428 28.8219 539.2722 27.5924 537.9309 26.6982 534.1307 26.2512 533.2365 25.4688 532.2306 24.9099 531.0011 24.6864 529.7716 24.4628 528.5421 24.1275 528.9892 23.6804 529.3245 23.4569 529.6598 22.3392 528.5421 21.8921 527.3127 21.7803 526.0832 21.3332 524.6301 20.8861 524.0713 20.2155 523.5124 19.5449 522.73 19.3213 521.6123 18.8743 520.8299 17.0859 518.2592 16.6388 517.1415 16.5271 516.0238 16.1917 514.7943 15.1858 512.4471 13.7328 510.6587 12.7268 511.3294 10.715 515.0178 7.5854 519.3769 6.803 520.0475 6.3559 521.0535 6.9147 522.3947 7.8089 522.0594 7.8089 523.4007 7.3618 526.3067 7.2501 528.9892 6.9147 529.6598 6.1323 530.1069 4.4558 530.6658 3.7851 531.3364 3.7851 532.007 4.1205 532.6777 4.9029 533.4601 5.3499 534.8013 5.4617 535.2484 5.3499 536.2543 4.6793 539.7193 4.0087 541.3958 3.7851 541.7311 3.6734 541.5076 3.1145 538.9369 3.0028 538.4898 2.4439 535.5837 2.4439 535.3602 2.4439 534.6895 2.4439 534.3542 2.3321 532.7894 2.4439 530.3305 2.6674 528.7657 2.891 528.3186 3.0028 527.9833 3.1145 527.5362 3.2263 527.3127 3.2263 527.2009 3.4498 526.7538 3.5616 526.4185 3.6734 525.9714 3.8969 525.6361 4.0087 525.3008 4.2322 524.8537 4.344 524.5184 4.4558 524.0713 4.5675 523.6242 4.6793 523.1771 4.6793 522.6183 4.7911 522.1712 4.6793 521.6123 4.6793 521.0535 4.6793 520.4946 4.6793 520.0475 4.7911 519.6004 4.9029 519.1534 5.0146 518.818 5.2382 518.4827 5.4617 518.1474 5.797 517.8121 5.9088 517.4768 6.1323 517.1415 6.3559 516.8062 6.5794 516.4708 6.803 516.1355 6.803 515.6884 7.0265 515.2414 7.1383 514.9061 7.3618 514.5707 7.4736 514.1237 7.6971 513.7883 7.8089 513.453 7.9207 513.2295 8.1442 511.7765 8.3678 510.4352 8.7031 508.9822 8.9266 507.6409 9.1502 506.1879 9.4855 504.8466 9.709 503.3936 10.0443 502.0524 10.0443 501.6053 10.2679 500.5993 10.2679 500.4876 10.4914 499.2581 10.8267 498.1404 11.2738 496.7991 11.3856 496.5756 19.4331 496.5756 22.5627 496.5756 31.2809 496.5756 45.0287 496.5756 62.8003 496.5756 83.7015 496.5756 107.1735 496.5756 132.2102 496.5756 158.1411 496.5756 183.9603 496.5756 209.1088 496.5756 211.456 496.5756ZM54.4175 618.965L55.8705 615.7237 56.8765 614.6059 57.5471 615.6119 55.3117 626.3419 53.2998 631.3716 50.282 635.9542 49.0525 634.1659 48.8289 633.7188 48.8289 633.0482 48.9407 632.3776 48.9407 631.4834 48.4936 630.701 47.9348 629.248 48.4936 627.7949 50.6173 624.4418 50.8408 624.1065 50.729 621.7593 50.8408 621.0887 51.3997 619.6356 52.4056 618.2944 53.4116 617.9591 54.4175 618.965ZM58.7766 625.7831L59.559 625.5595 60.2296 626.2301 59.3354 627.6832 58.1059 628.8009 57.1 629.9186 55.8705 632.2658 53.188 636.066 52.9645 636.066 53.2998 634.7248 55.8705 629.8068 58.7766 625.7831ZM46.9288 625.5595L47.4877 625.6713 47.5994 626.4537 47.3759 628.0185 46.9288 629.248 46.4817 629.8068 45.8111 629.3597 45.4758 627.5714 45.9229 626.0066 46.9288 625.5595ZM48.2701 554.5848L48.9407 554.8084 49.276 555.1437 49.1642 557.8262 48.7172 558.0497 47.7112 557.7144 47.1524 556.2614 47.5994 555.0319 48.2701 554.5848Z" />
  <path class="Gorgol" d="M254.935 908.5641L256.4998 908.0053 258.6234 906.7758 260.0765 904.9875 260.5235 901.5226 261.4177 898.393 264.5473 896.9399 295.3961 888.5571 296.7374 886.5452 297.1845 880.286 300.7612 875.927 307.8028 875.1446 314.1737 872.6856 316.0738 868.9971 317.1915 864.8616 318.6446 861.732 322.2212 856.5905 322.4448 853.6845 324.0096 856.4788 322.5565 859.4966 321.5506 862.738 321.4388 866.3146 321.7741 868.2147 323.4507 869.4442 325.7979 870.6737 326.9156 873.0209 327.2509 874.921 327.8098 876.7094 329.0393 877.7153 328.9275 879.1683 328.1451 880.9567 326.6921 882.2979 326.5803 883.6392 327.0274 885.0922 328.0333 884.9804 329.2628 885.0922 330.2688 885.5393 331.2747 885.3157 332.9513 883.6392 334.8514 883.0803 349.2699 885.5393 352.0641 886.3217 351.9524 888.7806 352.5112 890.1219 352.7348 892.8044 353.1818 894.0339 353.2936 897.2752 351.8406 902.6403 352.1759 904.9875 355.1937 904.7639 357.988 902.1932 359.3293 901.4108 360.8941 900.9637 362.2353 901.299 363.4648 902.0814 365.1414 902.5285 366.3708 903.758 366.8179 910.0172 367.7121 911.582 370.3946 911.582 371.6241 912.2526 372.8536 912.6997 373.1889 912.2526 373.636 911.6937 376.9891 912.6997 379.6716 915.4939 380.5658 916.7234 382.0188 917.1705 383.6954 917.0587 383.0248 922.7591 384.0307 925.8887 378.7774 927.5652 373.7477 930.0242 369.9475 929.5771 366.5944 930.4713 364.9178 932.0361 364.0237 933.9362 362.3471 936.1716 349.4934 947.9076 347.7051 951.8196 347.1462 954.9492 345.9167 956.2904 344.2402 957.0728 340.1046 962.3261 333.6219 973.0561 331.2747 978.1976 328.1451 989.1512 327.5862 988.4805 325.6861 987.9217 325.5744 987.6981 325.3508 987.0275 325.3508 986.3569 325.6861 984.345 325.6861 983.7861 325.4626 983.1155 325.1273 982.6684 324.4567 982.1096 323.6743 981.886 322.8919 981.886 321.2153 982.2213 320.5447 982.2213 319.874 981.9978 319.2034 981.4389 317.5268 979.7624 317.0798 978.7564 317.7504 978.1976 320.3211 978.4211 321.6624 978.1976 321.9977 977.1916 321.5506 975.8504 320.5447 974.8444 316.0738 971.8266 315.1796 970.8207 314.509 969.5912 314.2855 968.3617 314.2855 965.6792 314.0619 965.1204 313.7266 964.5615 313.056 963.5556 312.7207 962.9967 312.4971 960.7613 312.2736 960.0906 311.7147 959.5318 310.597 958.9729 309.3675 959.1965 308.2498 959.7553 307.2439 960.5377 306.1262 961.3201 305.0085 961.4319 302.773 960.873 302.326 960.5377 302.1024 959.7553 301.8789 959.0847 301.8789 958.4141 302.326 955.508 302.1024 954.3903 301.6553 953.4961 300.7612 952.7138 299.867 952.1549 298.0787 951.7078 297.5198 951.4843 296.1785 950.4783 295.6197 950.2548 294.502 950.143 292.2666 950.5901 291.1488 950.5901 290.4782 948.69 290.3664 948.0194 290.3664 947.3487 290.7018 946.6781 291.8195 944.8898 291.9312 944.3309 291.8195 943.7721 291.4842 943.1014 290.7018 941.8719 290.1429 941.3131 289.584 940.7542 288.4663 940.0836 287.9075 939.7483 287.4604 939.1894 287.3486 938.5188 287.5722 937.8482 287.7957 937.1776 288.0193 936.5069 288.0193 934.9421 287.5722 933.7127 286.9015 932.4832 285.5603 930.8066 285.225 930.3595 285.1132 929.8007 285.1132 929.2418 285.3367 927.9006 285.4485 927.2299 285.225 926.5593 284.7779 926.0004 282.8778 924.5474 282.2072 923.765 281.6483 923.0944 281.2012 922.2002 280.1953 919.6295 280.0835 918.9589 279.9717 917.6176 279.7482 917.0587 279.3011 916.4999 277.2892 915.0469 276.8421 914.5998 276.2833 913.5938 275.948 913.1468 274.7185 913.1468 272.036 914.1527 271.2536 913.5938 271.3653 912.4761 272.7066 910.0172 272.4831 908.8994 272.036 908.8994 271.5889 908.8994 271.1418 909.0112 270.1359 909.4583 266.2239 910.2407 263.8767 911.2466 263.3178 911.4702 263.0943 911.4702 261.6413 911.4702 261.1942 911.582 259.1823 912.6997 258.6234 912.8114 258.0646 912.6997 257.9528 912.5879 257.5057 912.1408 257.2822 912.029 256.8351 911.9173 256.6116 911.8055 256.4998 911.6937 256.388 911.3584 256.2762 911.2466 255.9409 911.0231 255.1585 910.6878 254.8232 910.4642 254.5997 909.6818 254.935 908.5641Z" />
  <path class="Guidimaka" d="M328.1451 989.1512L331.2747 978.1976 333.6219 973.0561 340.1046 962.3261 344.2402 957.0728 345.9167 956.2904 347.1462 954.9492 347.7051 951.8196 349.4934 947.9076 362.3471 936.1716 364.0237 933.9362 364.9178 932.0361 366.5944 930.4713 369.9475 929.5771 373.7477 930.0242 378.7774 927.5652 384.0307 925.8887 386.3779 926.224 387.8309 928.0123 389.2839 928.7947 391.184 928.2359 393.3077 928.0123 395.3196 928.2359 396.9961 928.2359 396.7726 927.0064 397.1079 925.6651 398.2256 925.218 399.2316 924.5474 399.7904 923.2062 399.1198 921.5296 398.3374 919.853 397.8903 917.9529 398.5609 916.7234 399.4551 917.3941 400.3493 918.1765 404.2613 917.6176 405.2672 918.4 406.4967 918.7353 407.7262 918.5118 408.7321 918.6235 414.0971 922.2002 422.1447 923.5415 420.9152 925.3298 418.9033 926.4475 418.1209 927.4535 417.562 928.5712 417.6738 929.4653 417.8974 930.136 417.0032 932.1479 415.2149 933.3773 414.7678 934.3833 414.7678 935.501 414.3207 937.4011 413.6501 939.3012 410.744 942.5426 409.8498 946.4546 409.4028 950.4783 407.6144 954.055 406.9438 957.1846 406.6085 957.1846 406.3849 957.2964 405.0437 957.0728 405.0437 959.7553 404.8201 960.5377 402.92 962.6614 401.9141 965.2321 400.7964 970.7089 398.2256 976.1857 397.8903 977.4152 397.555 981.2154 396.102 985.3509 395.8784 987.0275 395.9902 987.6981 396.2138 988.8158 396.102 989.5982 395.2078 992.7278 395.096 995.075 394.9843 995.5221 395.6549 996.081 396.2138 995.8574 396.102 995.9692 396.2138 996.1927 396.2138 996.4163 396.3255 996.7516 396.7726 996.7516 397.1079 996.9751 397.6668 996.8634 397.8903 996.7516 397.8903 996.5281 398.0021 996.3045 398.4492 997.0869 398.6727 998.2046 398.5609 999.6576 398.0021 1000.8871 397.555 1002.2284 397.2197 1005.0227 397.2197 1005.5815 397.4432 1005.9168 398.0021 1006.5875 398.0021 1007.1463 397.555 1007.3699 396.9961 1007.5934 396.7726 1007.7052 396.4373 1008.0405 396.102 1008.4876 395.6549 1008.9347 395.4314 1009.7171 394.7607 1010.723 393.643 1011.7289 392.3018 1012.3996 389.2839 1013.0702 388.1662 1014.0761 386.3779 1016.5351 385.0366 1017.4293 383.5836 1017.8763 382.1306 1017.8763 381.907 1017.7646 381.6835 1017.6528 381.3482 1017.6528 380.6776 1017.541 380.1187 1017.8763 379.7834 1019.1058 379.1128 1020 378.3304 1019.6647 375.089 1016.7586 373.9713 1016.088 372.4065 1016.4233 369.1651 1017.541 367.4886 1017.7646 365.812 1017.541 364.5825 1016.8704 360.3352 1013.629 355.6408 1011.3936 354.2996 1010.2759 351.7288 1007.1463 350.7229 1006.5875 350.6111 1005.6933 348.9345 999.5459 348.5992 998.7635 347.9286 997.9811 347.1462 997.534 345.3579 997.0869 344.5755 996.6398 343.2342 995.6339 339.0987 993.1749 338.0927 991.9454 337.5339 991.3866 336.7515 991.0513 335.6338 991.2748 333.2866 992.0572 332.5042 992.169 332.3924 992.169 330.3805 991.2748 328.1451 989.1512Z" />
  <path class="Hodh ech Chargui" d="M610.4791 960.426L610.9262 959.9789 613.6087 957.1846 612.8263 932.3714 608.6908 923.0944 605.4494 916.2763 620.4267 895.8222 618.6384 890.3454 629.3684 879.3919 634.1746 873.9151 646.9165 859.7201 664.1293 840.719 651.2756 826.4123 640.8809 814.7881 599.302 820.2649 599.5255 819.8178 686.9306 626.0066 687.9365 623.7712 808.2023 352.0554 808.6494 350.826 808.7612 350.7142 809.5436 358.5382 810.6613 368.374 811.6672 378.2099 812.7849 388.0458 813.7909 397.9934 814.9086 407.8293 815.9145 417.6651 817.0322 427.501 818.0382 437.2251 819.1559 447.0609 820.1618 456.8968 821.2795 466.7327 822.2855 476.4568 823.4032 486.2926 824.4091 496.0167 825.5268 505.7408 826.5328 515.5767 827.6505 525.3008 828.0976 529.9952 829.3271 540.3899 830.4448 550.7846 830.8919 555.479 831.8978 564.1971 833.0155 574.2565 834.0215 584.316 835.1392 594.3754 836.2569 604.323 837.2628 614.3824 838.3805 624.4418 839.4982 634.3894 840.5042 644.4488 841.7337 655.4024 842.1807 660.0968 842.6278 664.6794 843.1867 669.3738 843.6338 674.0682 844.4162 681.4451 845.1986 688.822 845.981 696.1989 846.6516 703.5758 847.434 710.9527 848.2164 718.3296 848.9988 725.7065 849.7812 733.0834 850.5636 740.4603 851.346 747.8372 852.1284 755.2141 852.799 762.4792 853.5814 769.6326 854.3638 776.7859 855.0344 783.9393 855.8168 791.0926 856.5992 798.246 857.2699 805.3993 858.0523 812.4409 858.8347 819.5943 859.5053 826.7476 860.2877 833.901 861.0701 840.9426 861.8525 848.0959 862.5231 855.1375 863.3055 862.2909 864.0879 869.4442 864.7585 876.4858 865.0938 879.6154 865.7645 880.9567 866.2116 881.7391 866.2116 882.1861 869.0058 883.9745 869.4529 884.198 872.1354 886.2099 875.4886 888.4453 878.5064 890.569 881.5242 892.6926 884.542 894.8163 884.9891 895.2634 885.3244 895.5987 885.4362 896.1575 885.4362 896.6046 885.1009 898.9518 883.6479 906.3287 882.3066 913.8174 880.9653 921.1943 879.5123 928.6829 878.1711 936.2834 876.718 943.8838 875.265 951.4843 873.9238 959.0847 873.812 959.42 873.7002 959.7553 873.7002 959.8671 873.7002 959.9789 873.1414 960.3142 873.7002 960.0906 873.7002 960.2024 873.5884 960.5377 873.5884 960.6495 873.5884 960.7613 873.4767 960.7613 873.3649 960.7613 873.2531 960.7613 861.4054 960.7613 851.2342 960.7613 846.5398 960.7613 841.3983 960.7613 835.9216 960.7613 830.1095 960.6495 820.0501 960.6495 813.4556 960.6495 812.5614 960.6495 809.2083 960.6495 797.8076 960.6495 785.9598 960.6495 773.665 960.6495 761.0349 960.6495 748.1812 960.6495 735.2157 960.6495 722.362 960.6495 709.5084 960.6495 696.8782 960.6495 684.5834 960.6495 672.7356 960.6495 661.335 960.6495 650.4932 960.6495 640.4338 960.6495 633.951 960.6495 628.0272 960.6495 622.4386 960.6495 617.2971 960.6495 610.3673 960.6495 610.4791 960.426Z" />
  <path class="Hodh el Gharbi" d="M491.1075 965.9028L484.9601 926.0004 482.8364 922.9826 478.0303 919.1824 476.4655 917.6176 476.8008 917.0587 476.8008 914.9351 477.6949 913.5938 477.6949 911.3584 478.142 909.2348 477.9185 906.5523 476.689 904.2051 474.6771 902.5285 472.1064 901.6343 471.8828 900.4048 472.4417 899.2871 471.5475 897.387 471.7711 896.2693 472.2182 895.1516 472.5535 892.9162 473.1123 892.022 473.6712 891.2396 474.3418 889.563 474.23 887.8865 473.2241 887.3276 470.2063 886.4334 469.4239 884.6451 470.4298 883.6392 471.7711 883.3039 473.3359 883.3039 477.2479 881.0684 477.9185 879.7272 479.7068 878.6095 479.7068 876.5976 481.4952 876.4858 482.3893 875.3681 482.5011 874.3622 482.054 873.6915 480.9363 873.9151 479.7068 874.3622 478.8127 873.3562 476.689 874.4739 475.4595 874.1386 474.23 873.9151 471.9946 872.9091 470.4298 870.6737 469.3121 868.2147 469.5356 865.644 468.6415 864.3028 467.5238 862.9615 466.0707 862.2909 464.7295 862.1791 464.1706 861.1732 463.7235 860.0554 462.1587 858.0436 460.5939 856.9259 460.0351 855.2493 460.8175 854.2433 461.3763 853.1256 460.3704 851.2255 460.5939 849.7725 460.5939 848.4312 460.1469 846.3076 460.1469 844.0722 461.3763 834.5716 460.9293 832.6715 459.6998 831.442 459.0292 829.7655 460.2586 823.0592 460.9293 821.6062 461.2646 820.0414 460.2586 817.2471 460.8175 814.341 460.4822 811.6585 455.4525 801.152 453.8877 793.1045 452.77 790.5338 452.8817 787.963 453.8877 785.3923 477.9185 792.4339 510.1086 801.5991 556.1583 798.5813 556.7172 799.0284 599.302 820.2649 640.8809 814.7881 651.2756 826.4123 664.1293 840.719 646.9165 859.7201 634.1746 873.9151 629.3684 879.3919 618.6384 890.3454 620.4267 895.8222 605.4494 916.2763 608.6908 923.0944 612.8263 932.3714 613.6087 957.1846 610.9262 959.9789 610.4791 960.426 607.4613 960.5377 602.9904 960.426 601.6492 960.426 600.3079 960.5377 596.843 960.5377 592.7075 960.426 590.5838 960.426 588.4602 960.5377 585.7777 960.5377 585.6659 960.426 585.6659 960.3142 585.3306 959.3083 585.3306 958.6376 585.5541 955.1727 586.0012 952.602 586.4483 950.143 586.4483 950.0312 586.7836 948.3547 587.0072 947.0134 587.3425 945.4486 585.6659 944.6662 584.9953 945.3369 583.7658 944.778 582.201 945.6722 577.6184 951.2607 577.1713 952.1549 576.9477 952.4902 576.5007 953.3844 576.5007 955.6198 577.7301 960.5377 578.6243 964.8968 559.9585 965.6792 556.9407 966.3498 556.6054 966.2381 555.823 966.1263 554.8171 965.791 554.0347 965.2321 552.9169 965.0086 550.0109 965.1204 549.6756 965.2321 544.1988 965.5674 543.4164 965.5674 542.5222 965.1204 540.3986 966.3498 539.5044 966.3498 538.722 966.5734 537.269 965.2321 536.4866 964.785 535.3689 964.785 534.81 965.4557 533.5805 964.8968 532.0157 964.2262 530.7862 964.2262 529.445 964.4497 527.992 964.2262 525.0859 962.9967 524.08 962.9967 519.9444 963.7791 518.0443 963.332 517.4855 963.4438 516.5913 962.8849 515.8089 962.3261 513.9088 963.2202 512.0087 964.338 510.5557 965.2321 507.2025 965.4557 505.1906 965.1204 497.4784 964.8968 496.3607 965.1204 494.9077 964.785 493.6782 965.0086 491.1075 965.9028Z" />
  <path class="Inchiri" d="M58.553 647.3549L58.8883 647.802 61.5708 644.4488 65.8182 636.7366 114.6622 544.749 94.9904 511.3294 220.6212 511.8882 222.0743 514.0119 217.1563 649.7021 217.0446 661.8851 216.9328 683.9041 213.915 683.9041 67.0476 684.2394 64.924 679.0979 61.5708 673.5094 57.2118 668.3679 55.7587 667.0266 55.4234 666.8031 55.1999 666.2442 54.5293 666.1325 53.7469 666.0207 53.188 665.6854 51.8468 664.903 48.9407 664.0088 47.7112 663.2264 47.1524 662.3322 45.9229 658.9791 45.6993 657.5261 44.9169 656.073 43.4639 654.7318 42.5697 653.6141 43.5757 652.2728 47.9348 653.5023 52.1821 652.9435 55.8705 650.8198 58.553 647.3549Z" />
  <path class="Nouakchott-Nord" d="M90.0725 732.4128L99.4613 732.301 99.4613 750.4079 99.4613 763.1498 87.2782 762.4792 87.9488 757.7848 85.7134 757.226 91.302 749.402 88.843 748.396 90.0725 732.4128Z" />
  <path class="Nouakchott-Oues" d="M78.4483 732.4128L79.1189 732.5245 90.0725 732.4128 88.843 748.396 91.302 749.402 85.7134 757.226 85.4899 757.5613 84.931 758.3437 84.1486 758.0084 84.1486 757.1142 83.1427 757.226 82.6956 757.7848 82.1367 758.1201 81.6897 758.3437 80.6837 758.5672 80.2366 752.1963 78.4483 732.4128Z" />
  <path class="Nouakchott-Sud" d="M99.4613 763.1498L99.3495 772.4268 80.4602 772.4268 81.1308 766.6147 80.6837 758.5672 81.6897 758.3437 82.1367 758.1201 82.6956 757.7848 83.1427 757.226 84.1486 757.1142 84.1486 758.0084 84.931 758.3437 85.4899 757.5613 85.7134 757.226 87.9488 757.7848 87.2782 762.4792 99.4613 763.1498Z" />
  <path class="Tagant" d="M333.9572 719.2238L349.9405 701.6757 358.6586 691.9516 392.6371 669.5974 408.7321 658.4202 425.8331 667.809 426.2802 664.903 427.9568 651.3787 429.4098 650.1492 457.2408 627.1243 458.8056 627.1243 686.9306 626.0066 599.5255 819.8178 599.302 820.2649 556.7172 799.0284 556.1583 798.5813 510.1086 801.5991 477.9185 792.4339 453.8877 785.3923 462.047 738.7837 459.6998 740.4603 457.4644 740.2367 451.9876 742.5839 449.5286 744.3723 447.2932 747.2783 445.1695 748.7314 447.0696 750.6315 444.4989 754.2081 443.8283 755.7729 441.7046 755.6612 437.3455 757.0024 435.4454 758.3437 433.6571 758.1201 432.9865 757.4495 432.2041 757.673 430.1922 757.3377 425.386 757.1142 423.1506 757.226 422.7035 759.7967 418.568 759.4614 418.4562 763.3734 415.9972 764.6029 414.9913 766.9501 416.5561 768.5149 416.8914 769.2972 418.7915 772.6504 421.6976 778.1272 419.9092 778.0154 422.3682 781.9274 422.8153 782.8216 425.6096 785.8394 427.0626 787.8513 427.845 789.1925 427.845 789.8631 427.3979 790.3102 428.5156 792.5457 428.0685 794.8928 425.7213 795.5635 423.2624 797.1283 421.027 798.4695 424.0448 799.2519 424.4919 802.2697 421.474 803.611 422.7035 807.9701 420.6916 812.3292 420.1328 823.3945 420.1328 828.536 416.7796 832.6715 403.1436 831.5538 391.184 835.6893 380.454 832.3362 368.3827 827.7536 361.1176 820.8238 353.5172 814.4528 343.346 803.7228 345.4696 776.8977 345.2461 776.8977 346.252 763.5969 348.3757 741.6898 333.9572 719.2238Z" />
  <path class="Tiris Zemmour" d="M798.59 255.9322L798.4782 255.9322 475.7948 481.4865 355.9761 495.1226 308.6969 477.1274 307.9145 476.9039 306.7968 476.4568 306.685 476.4568 304.5614 442.9254 303.2201 422.5831 301.9906 402.1289 301.0965 396.8757 297.408 386.3692 296.6256 381.116 297.6316 375.6392 299.9788 370.4977 306.4615 361.3325 307.9145 359.4323 315.515 354.1791 324.9037 347.6964 333.063 341.996 337.7574 338.7547 340.1046 337.8605 342.34 337.0781 355.082 335.2898 356.535 334.8427 357.0938 334.6191 357.7645 334.5074 374.3066 326.5716 382.0188 324.448 382.1306 324.2244 383.0248 323.1067 383.2483 320.3124 383.2483 313.6062 383.2483 307.4587 383.2483 301.1996 383.2483 294.9404 383.2483 288.793 383.2483 282.5338 383.2483 276.2746 383.2483 270.0154 383.2483 263.7562 383.2483 257.497 383.2483 251.2378 383.2483 246.5435 383.2483 245.0904 383.2483 238.8312 383.2483 232.5721 383.2483 226.2011 383.2483 219.9419 383.2483 213.6827 383.2483 207.4235 383.2483 201.1644 383.2483 194.9052 383.2483 188.5342 383.2483 182.275 383.2483 176.0158 383.2483 169.6449 383.2483 163.3857 383.2483 157.0147 383.2483 150.7556 383.2483 144.3846 383.2483 138.1254 383.2483 131.7545 383.2483 125.4953 383.2483 119.1243 383.2483 112.7534 384.366 112.7534 390.8487 112.7534 398.4492 112.7534 406.0496 112.7534 413.6501 112.7534 421.2505 112.7534 428.8509 112.7534 436.4514 112.7534 444.0518 112.7534 451.6523 112.7534 459.2527 112.7534 466.8531 112.7534 474.4536 112.7534 481.9422 112.7534 489.5427 112.7534 497.1431 112.7534 504.7436 112.7534 512.344 112.7534 519.9444 112.7534 527.5449 112.7534 535.1453 112.7534 542.7458 112.7534 550.3462 112.7534 557.9466 112.7534 565.5471 112.7534 573.1475 112.7534 580.748 112.7534 588.3484 112.7534 595.8371 112.7534 603.4375 112.7534 611.038 112.7534 618.6384 112.7534 626.2388 112.7534 632.6098 112.7534 634.1746 112.3063 634.6217 111.3003 634.6217 107.5001 634.6217 106.2706 634.6217 103.0293 634.6217 97.9996 634.6217 91.4051 634.6217 83.5811 634.6217 74.8629 634.6217 65.4741 634.6217 55.8618 634.6217 46.1377 634.6217 36.8607 634.5099 28.0308 634.5099 20.2068 634.5099 16.4066 634.5099 13.5006 634.5099 8.4708 634.5099 5.1177 634.5099 4 635.6276 4.6706 649.4872 13.8359 664.3528 23.6717 679.3301 33.5076 694.1957 43.3435 709.173 53.1793 724.0386 63.0152 738.9042 72.851 753.8815 82.5751 768.7471 92.411 783.7244 102.1351 798.59 111.971 813.5673 121.695 826.1975 129.9661 838.8276 138.2372 851.4578 146.3965 858.8347 151.3144 860.7348 152.4321 862.1878 153.4381 864.0879 154.6675 873.2531 160.5914 886.3304 169.5331 899.4076 178.4748 912.4848 187.4165 924.3326 195.464 925.562 196.2464 925.115 196.2464 924.6679 195.9111 924.5561 195.9111 924.3326 196.0229 924.2208 196.0229 911.926 196.0229 893.7073 196.0229 890.6894 196.0229 866.7704 196.0229 836.1451 196.0229 814.238 196.0229 801.496 196.0229 794.1191 196.0229 793.5603 196.2464 793.6721 196.3582 791.9955 196.3582 792.7779 202.9527 793.4485 209.5472 794.2309 216.2535 794.9015 222.848 795.6839 229.4425 796.3546 236.037 797.137 242.6315 797.8076 249.226 798.59 255.9322Z" />
  <path class="Trarza" d="M162.1649 868.4383L162.0531 868.3265 161.0472 867.2088 160.2648 866.7617 158.5882 867.5441 157.8058 867.9912 157.247 868.7736 157.0234 869.8913 156.9117 870.3384 156.5763 870.8972 156.0175 871.2326 155.5704 871.4561 155.0116 871.4561 154.4527 871.3443 153.6703 870.5619 152.9997 869.6678 152.329 868.8854 151.3231 868.5501 150.2054 868.8854 149.5348 869.6678 149.423 870.6737 149.8701 871.6796 151.0996 872.9091 151.3231 873.3562 151.3231 874.0268 150.9878 874.4739 150.4289 874.6975 148.8641 875.3681 140.8166 876.5976 139.5871 876.7094 136.0105 876.1505 133.5515 876.1505 132.4338 876.4858 129.1924 877.8271 128.1865 878.0506 127.0688 878.0506 126.1746 877.7153 125.6157 876.9329 125.1686 876.1505 124.498 875.5916 123.3803 875.4799 122.2626 875.927 121.2567 876.8211 119.4683 879.3919 118.7977 880.0625 117.9035 880.5096 116.7858 880.6213 113.5444 879.9507 112.315 880.1743 111.4208 880.7331 109.7442 882.2979 108.7383 882.9685 107.6206 883.3039 106.5029 883.4156 105.2734 883.0803 103.485 882.1861 102.9262 882.0744 100.4672 881.8508 97.0023 880.7331 95.7728 880.7331 93.9845 881.0684 93.3139 881.0684 90.7431 880.3978 89.6254 880.5096 86.6076 881.8508 86.0487 881.9626 85.6017 881.9626 84.5957 881.5155 84.0369 881.4037 83.478 881.5155 82.9191 881.7391 82.3603 882.1861 80.5719 882.4097 78.8954 882.1861 77.3306 881.5155 76.1011 880.0625 75.2069 878.7212 74.6481 878.1624 73.8657 877.7153 72.9715 877.4917 72.0773 877.7153 71.1832 878.1624 68.9477 879.7272 68.1653 880.0625 67.3829 880.1743 66.4888 880.1743 64.0298 879.7272 62.2415 880.0625 60.6767 881.0684 59.3354 882.4097 58.2177 883.8627 57.6589 885.3157 57.3235 888.4453 54.1939 901.7461 53.8586 902.6403 53.4116 903.4227 52.1821 904.2051 49.4996 904.8757 48.3818 905.8816 47.823 907.4464 47.4877 912.8114 46.1464 915.941 45.1405 919.4059 44.6934 920.3001 44.4699 928.7947 43.7992 933.1538 42.0109 936.0598 43.1286 922.8708 43.0168 915.941 42.2344 900.1813 43.0168 895.0398 43.5757 893.5868 45.6993 889.563 46.2582 885.651 46.9288 884.5333 47.7112 882.4097 47.7112 873.9151 48.2701 870.5619 54.3057 855.0257 55.9823 852.3432 57.1 847.09 58.3295 844.4075 62.0179 839.266 68.3889 825.1828 68.836 823.2827 69.9537 821.8297 76.9953 799.4755 79.2307 789.8631 79.7895 779.2449 80.4602 772.4268 99.3495 772.4268 99.4613 763.1498 99.4613 750.4079 99.4613 732.301 90.0725 732.4128 79.1189 732.5245 78.4483 732.4128 77.6659 725.0359 76.8835 722.2416 72.9715 713.5234 71.1832 703.6876 69.8419 700.4462 70.6243 698.5461 70.4008 696.4224 67.4947 685.3571 67.0476 684.2394 213.915 683.9041 216.9328 683.9041 290.7018 683.9041 333.9572 719.2238 274.942 763.4851 253.8173 779.2449 236.8281 794.8928 209.5559 835.5776 191.3372 849.2136 190.7783 849.6607 189.2135 851.7844 186.9781 853.908 181.0542 856.367 170.7713 862.0673 163.3944 866.8735 162.1649 868.4383Z" />
</svg>