<?xml version="1.0" encoding="utf-8"?>
<svg xmlns="http://www.w3.org/2000/svg" viewBox="0 0 546 1024" style="stroke-width:0.25px;stroke-linejoin:round;stroke:#444;fill:#ddd" fill-rule="evenodd">
  <path class="Belize" d="M237.0745 545.196L245.3455 542.1782 246.575 541.5076 247.4692 540.7252 248.1398 539.831 249.4811 537.4838 249.8164 535.4719 250.487 534.1307 251.1576 533.013 251.94 532.5659 252.7224 531.6717 253.5048 529.7716 254.8461 525.5243 255.2932 522.73 257.0815 518.1474 257.1933 514.5707 256.858 510.2117 253.7284 502.8348 249.5928 496.7991 249.1458 494.6755 249.5928 480.5923 249.5928 480.3688 245.7926 402.7996 244.8985 397.4345 243.5572 395.0873 240.4276 396.6521 238.1922 401.5701 235.9568 405.4821 227.2386 409.1705 222.656 352.6143 222.8795 345.6845 227.6857 331.9366 231.933 325.3421 242.8866 320.2007 246.575 319.0829 249.7046 317.7417 251.3812 315.9534 251.6047 313.3826 251.1576 311.3707 249.2575 306.341 249.034 303.5468 250.2635 294.2697 250.1517 292.0343 248.9222 283.3162 248.9222 281.1925 249.1458 279.4042 251.3812 269.1212 251.493 264.0915 251.1576 261.6326 249.8164 256.4911 249.5928 253.585 250.0399 249.673 250.8223 246.3199 253.1695 239.5019 272.8413 228.213 355.3284 206.8647 399.0309 211.6708 383.6065 242.1844 385.8419 252.2438 381.3711 284.6574 372.2058 316.9593 369.2998 323.442 359.6875 335.0662 355.7755 342.2196 354.0989 350.6024 355.6637 359.8794 360.1345 364.6856 373.4353 371.3919 376.2296 377.3157 379.8063 380.5571 395.3425 383.3514 398.8074 386.481 394.3365 394.0814 384.7242 393.9696 375.2237 392.5166 370.9763 396.0933 369.9704 402.1289 354.546 453.6554 350.9693 493.2224 350.634 501.3817 349.2927 516.5826 351.9752 524.8537 353.4283 532.2306 353.4283 533.013 348.5103 538.1545 340.9099 541.0605 339.0098 542.1782 335.5449 543.4077 237.0745 545.196ZM521.085 434.6543L525.7794 430.5188 530.0267 437.4486 536.2859 456.1144 534.6094 459.0205 533.9387 462.9325 534.0505 472.0977 531.4798 472.0977 531.5915 468.0739 531.4798 466.7327 529.3561 467.4033 527.9031 468.521 527.0089 470.0858 526.2265 472.0977 526.4501 448.514 525.2206 438.6781 521.085 434.6543ZM524.997 373.4037L529.4679 373.6273 534.8329 374.8568 539.4155 378.7688 541.6509 386.481 540.0861 392.4048 532.4857 407.6057 527.456 414.312 523.7675 420.9065 518.2908 424.4832 510.9139 418.6711 507.1136 425.042 502.4193 428.6187 498.1719 433.3131 495.4894 442.8136 493.1422 460.2499 492.2481 463.156 490.348 467.068 488.6714 471.8741 488.3361 477.4627 483.0828 472.0977 484.4241 470.7564 484.8712 469.527 485.0947 468.1857 485.5418 466.7327 486.436 458.4616 489.9009 444.8255 491.6892 426.048 494.5953 419.9006 499.4014 415.4297 505.8842 410.7353 513.4846 402.6878 517.2848 402.3525 522.7616 404.6997 527.456 405.3703 531.0327 402.0172 533.9387 394.305 534.6094 386.1457 531.4798 381.2277 527.3442 384.9162 523.9911 386.8163 521.085 386.481 521.3086 384.022 524.997 373.4037ZM432.3387 335.9604L437.3684 340.3195 441.0569 349.82 444.7453 370.4977 442.1746 370.4977 440.2745 366.8092 437.0331 357.5322 432.3387 335.9604ZM401.3781 319.9771L409.0903 316.2887 430.2151 301.7584 434.5741 299.8583 431.1092 312.4884 422.5029 320.3124 410.8787 324.2244 398.8074 325.2304 398.8074 323.442 399.2545 322.2125 401.3781 319.9771ZM493.1422 185.8517L495.4894 185.8517 492.5834 202.8409 485.3183 218.3771 473.6941 229.7778 457.599 234.1369 457.599 231.4543 461.511 231.6779 462.7405 231.4543 476.2648 221.7303 481.071 214.9122 483.0828 204.8528 477.159 205.0763 478.7238 193.0051 485.5418 168.5272 486.3242 166.8506 488.1125 165.3976 489.9009 163.6092 490.6833 160.5914 490.9068 156.6794 496.3836 136.1135 500.0721 132.6486 505.8842 135.1076 514.0435 129.7426 517.7319 134.9958 517.173 143.714 512.2551 148.2966 509.4608 152.6557 501.8604 173.7804 498.2837 180.822 495.713 179.0337 493.1422 177.916 492.2481 181.9397 490.9068 184.8458 488.6714 186.9694 485.5418 188.5342 485.5418 191.2167 488.3361 196.8053 491.801 191.6638 492.6952 189.3166 493.1422 185.8517ZM425.5207 384.4691L432.3387 389.7223 435.8036 394.8638 435.0212 398.7758 434.0153 400.4524 433.9035 402.7996 432.3387 406.3762 429.768 406.0409 429.0974 402.7996 428.6503 394.752 428.0914 393.0755 425.1854 393.4108 421.944 391.9578 419.8204 389.2752 418.5909 387.2634 417.3614 386.1457 417.4732 383.9102 419.9321 382.2337 425.5207 384.4691ZM472.4646 160.4796L474.7 159.5855 475.7059 160.7032 474.9235 164.727 471.9057 167.4095 467.882 168.1919 466.7642 165.7329 469.4468 161.8209 471.3469 160.5914 472.4646 160.4796ZM483.5299 149.6378L484.4241 151.2026 484.6476 155.4499 482.524 159.4737 479.3944 161.8209 478.0531 161.4856 477.6061 159.4737 477.0472 158.0207 477.6061 156.5677 479.5062 155.5617 481.518 153.8851 482.1887 151.6497 482.8593 150.1967 483.5299 149.6378ZM506.2195 114.6535L507.5607 115.3241 507.7843 116.8889 507.5607 118.9008 506.2195 122.8128 502.7546 127.3954 500.6309 125.4953 501.6369 118.789 503.0899 116.4418 504.2076 117.4477 504.4311 116.5536 503.8723 114.877 503.984 114.2064 505.2135 114.5417 506.2195 114.6535Z" />
  <path class="Cayo" d="M17.4441 821.4944L20.7972 781.4803 27.5035 672.5034 33.7627 571.6858 33.2039 460.9206 44.4927 451.6436 59.9172 441.3606 65.1704 439.4605 69.3059 439.237 72.212 440.3547 75.118 441.0253 118.3735 436.1074 123.515 434.4308 127.3152 431.7483 129.5506 428.6187 132.2331 425.4891 134.8039 424.5949 140.3924 425.6009 146.9869 426.048 155.7051 425.7127 159.5053 425.9362 164.8703 425.3773 174.9297 425.8244 183.3125 424.7067 190.0188 422.3595 200.9724 414.9826 207.2316 412.6354 211.5906 411.9648 219.1911 408.1646 221.9854 407.3822 227.2386 409.1705 235.9568 405.4821 238.1922 401.5701 240.4276 396.6521 243.5572 395.0873 244.8985 397.4345 245.7926 402.7996 249.5928 480.3688 249.5928 480.5923 249.1458 494.6755 249.5928 496.7991 253.7284 502.8348 256.858 510.2117 257.1933 514.5707 257.0815 518.1474 255.2932 522.73 254.8461 525.5243 253.5048 529.7716 252.7224 531.6717 251.94 532.5659 251.1576 533.013 250.487 534.1307 249.8164 535.4719 249.4811 537.4838 248.1398 539.831 247.4692 540.7252 246.575 541.5076 245.3455 542.1782 237.0745 545.196 235.845 548.9963 237.1862 552.2376 242.5513 561.0675 247.6927 565.6502 250.2635 568.3327 250.0399 571.574 248.3634 573.3624 246.2397 574.8154 245.0102 576.492 241.21 584.4277 238.9746 590.6869 236.6274 595.046 234.392 598.3991 230.0329 601.5287 228.2446 603.2053 225.6738 607.6761 214.4967 620.0827 213.8261 621.9828 213.8261 623.6594 214.2732 625.2242 214.1614 627.5714 213.2672 632.8246 213.1554 634.8365 213.7143 639.6427 213.379 641.6546 212.7084 643.3311 211.8142 644.5606 210.5847 645.5666 207.008 647.2431 204.8844 649.255 204.2138 650.4845 204.5491 651.9375 209.467 655.5142 210.8083 657.079 210.6965 658.3085 209.5788 659.3144 208.014 659.7615 201.4195 660.8792 194.2661 663.3382 192.2542 664.6794 190.4659 666.4678 180.1829 682.3393 178.0593 688.1514 174.0355 695.5283 171.9119 703.1287 171.9119 704.8053 173.2531 709.7232 166.9939 710.0585 164.0879 711.6233 162.9702 712.4057 160.8465 714.7529 156.8228 719.7826 155.9286 721.6827 155.5933 723.2475 157.1581 729.842 157.4934 731.8539 156.3757 735.8777 148.887 743.5899 142.9631 748.1725 141.2866 748.9549 138.2688 749.8491 135.698 751.1903 125.7504 758.9025 122.3972 760.9144 120.1618 761.4733 118.3735 761.2497 116.1381 761.6968 111.8908 763.5969 109.7671 765.0499 108.2023 766.6147 106.5257 769.0737 106.5257 770.415 106.9728 773.6563 105.408 774.774 90.766 780.3626 88.7541 780.8097 87.1893 780.8097 85.9598 780.1391 83.3891 777.3448 82.2714 776.3388 81.0419 775.5564 79.2536 774.8858 78.3594 775.4447 75.9004 778.2389 68.3 785.6158 65.5057 787.7395 63.0468 788.969 56.7876 789.6396 54.1051 790.6455 52.652 790.8691 47.7341 791.3162 34.6569 796.6812 32.9803 797.7989 31.4155 799.699 30.186 801.4873 29.9625 802.2697 29.7389 804.2816 29.0683 805.8464 28.0624 807.523 25.4916 810.6526 23.7033 812.5527 21.5796 815.2352 17.4441 821.4944Z" />
  <path class="Corozal" d="M355.3284 206.8647L304.249 160.2561 277.2003 123.2598 260.2111 110.7415 236.5156 100.235 232.7154 99.4526 233.0507 97.9996 233.7213 91.8521 235.0626 85.1459 238.6393 78.8867 250.1517 65.5859 254.7343 58.209 256.0756 53.7382 257.5286 43.7905 260.8817 34.4018 262.8936 22.554 264.7937 18.3067 267.588 15.4007 279.1004 6.3472 282.9007 6.7943 286.3656 8.6944 290.1658 9.8121 293.4072 9.365 300.8958 6.6825 304.9196 4.6706 307.3785 4 309.3904 4.6706 312.9671 8.1355 315.7614 9.8121 317.885 9.4768 320.1205 8.2473 322.9147 7.4649 345.9396 7.2414 348.0633 7.6884 348.0633 9.0297 354.4342 14.9536 347.1691 24.4541 318.3321 45.3553 315.6496 51.0557 319.8969 57.2031 325.1502 57.5384 343.0336 49.3791 340.9099 55.0794 337.445 61.1151 328.9504 71.9569 326.8267 75.4218 327.9444 77.2101 330.8505 76.9866 334.0919 74.6394 340.351 67.5978 352.6459 58.6561 358.458 55.8618 364.7172 54.7441 372.9882 55.8618 383.83 61.2268 388.6362 62.7916 396.5719 61.5622 407.7491 53.7382 420.7145 49.7144 425.0736 49.1556 426.9737 50.6086 426.3031 56.0854 424.1794 59.7738 416.8025 65.4741 408.3079 69.0508 406.6314 70.7274 406.5196 75.0865 409.2021 75.9806 412.4435 74.6394 415.2377 69.945 418.2556 67.8213 422.0558 66.1448 425.7442 65.4741 426.9737 67.5978 429.9915 113.8711 426.9737 149.7496 425.7442 155.897 420.6028 165.174 419.3733 171.3215 405.4019 207.2 399.0309 211.5591 399.0309 211.6708 355.3284 206.8647Z" />
  <path class="Orange Walk" d="M227.2386 409.1705L221.9854 407.3822 219.1911 408.1646 211.5906 411.9648 207.2316 412.6354 200.9724 414.9826 190.0188 422.3595 183.3125 424.7067 174.9297 425.8244 164.8703 425.3773 159.5053 425.9362 155.7051 425.7127 146.9869 426.048 140.3924 425.6009 134.8039 424.5949 132.2331 425.4891 129.5506 428.6187 127.3152 431.7483 123.515 434.4308 118.3735 436.1074 75.118 441.0253 72.212 440.3547 69.3059 439.237 65.1704 439.4605 59.9172 441.3606 44.4927 451.6436 33.2039 460.9206 31.192 352.9496 29.6272 268.5624 29.2919 234.5839 32.0861 219.0477 34.8804 215.024 40.0219 207.6471 70.8707 196.3582 78.8065 199.1525 84.9539 204.741 90.5425 211.0002 96.8017 215.8064 101.2725 216.2535 105.408 215.3593 108.9847 216.1417 114.0144 227.207 118.8206 230.7837 133.7979 239.6136 137.0393 238.6077 139.2747 235.4781 140.9513 226.8717 142.6278 224.0774 161.6289 209.7707 165.0938 205.5234 170.4589 190.3226 172.2472 186.7459 177.724 182.0515 182.8655 179.1454 187.2245 175.7923 190.913 169.9802 192.0307 165.7329 193.1484 156.903 194.2661 152.991 203.4314 137.343 204.6608 132.9839 203.4314 127.5072 202.0901 126.3894 212.5966 118.4537 223.4384 113.3122 227.9092 109.8473 231.5977 103.9234 232.7154 99.4526 236.5156 100.235 260.2111 110.7415 277.2003 123.2598 304.249 160.2561 355.3284 206.8647 272.8413 228.213 253.1695 239.5019 250.8223 246.3199 250.0399 249.673 249.5928 253.585 249.8164 256.4911 251.1576 261.6326 251.493 264.0915 251.3812 269.1212 249.1458 279.4042 248.9222 281.1925 248.9222 283.3162 250.1517 292.0343 250.2635 294.2697 249.034 303.5468 249.2575 306.341 251.1576 311.3707 251.6047 313.3826 251.3812 315.9534 249.7046 317.7417 246.575 319.0829 242.8866 320.2007 231.933 325.3421 227.6857 331.9366 222.8795 345.6845 222.656 352.6143 227.2386 409.1705Z" />
  <path class="Stann Creek" d="M173.2531 709.7232L171.9119 704.8053 171.9119 703.1287 174.0355 695.5283 178.0593 688.1514 180.1829 682.3393 190.4659 666.4678 192.2542 664.6794 194.2661 663.3382 201.4195 660.8792 208.014 659.7615 209.5788 659.3144 210.6965 658.3085 210.8083 657.079 209.467 655.5142 204.5491 651.9375 204.2138 650.4845 204.8844 649.255 207.008 647.2431 210.5847 645.5666 211.8142 644.5606 212.7084 643.3311 213.379 641.6546 213.7143 639.6427 213.1554 634.8365 213.2672 632.8246 214.1614 627.5714 214.2732 625.2242 213.8261 623.6594 213.8261 621.9828 214.4967 620.0827 225.6738 607.6761 228.2446 603.2053 230.0329 601.5287 234.392 598.3991 236.6274 595.046 238.9746 590.6869 241.21 584.4277 245.0102 576.492 246.2397 574.8154 248.3634 573.3624 250.0399 571.574 250.2635 568.3327 247.6927 565.6502 242.5513 561.0675 237.1862 552.2376 235.845 548.9963 237.0745 545.196 335.5449 543.4077 339.0098 542.1782 340.9099 541.0605 348.5103 538.1545 353.4283 533.013 353.7636 536.4779 355.6637 545.4196 357.1167 550.2257 360.6934 552.2376 368.6292 554.9201 373.1 560.844 376.2296 568.3327 377.9062 576.8273 378.9121 589.1221 381.0358 598.6227 380.1416 603.0935 377.7944 604.0994 374.553 604.0994 370.9763 605.4407 366.8408 609.1292 361.8111 615.053 357.452 621.7593 355.6637 628.0185 357.3403 635.1718 364.6054 646.6843 366.0584 653.3905 366.729 653.3905 367.9585 654.3965 368.9645 656.1848 368.6292 658.4202 367.1761 658.7556 362.37 658.0849 360.8052 658.4202 355.999 662.2205 354.0989 664.5677 353.4283 668.0326 352.5341 669.9327 350.7458 671.8328 348.8457 674.5153 348.0633 678.5391 348.3986 683.2334 350.1869 689.2691 350.634 693.0693 347.1691 720.565 344.8219 724.8123 341.5805 728.1655 337.8921 733.0834 333.6448 748.9549 331.6329 753.7611 330.4034 760.6909 332.8624 770.415 331.2976 773.9916 328.6151 777.4565 326.1561 777.6801 325.0384 771.6444 336.6626 727.4948 342.9218 720.9003 345.269 716.9883 335.5449 722.018 325.4855 747.5019 317.3262 756.8906 319.7851 757.3377 325.0384 759.7967 322.4677 761.138 320.5675 761.6968 318.2204 761.3615 314.8672 759.7967 315.6496 763.2616 316.5438 764.8264 318.5557 765.2735 322.4677 765.1617 322.4677 767.5089 318.4439 770.1914 315.6496 774.1034 314.979 778.7978 315.9849 780.8097 311.7376 779.0213 310.7317 776.1153 309.1669 775.6682 305.4784 775.4447 297.7662 776.6741 296.0897 776.5624 294.0778 776.1153 290.1658 776.0035 288.601 776.1153 273.959 775.2211 272.8413 775.5564 270.6058 775.6682 255.5167 773.5446 253.2813 772.5386 253.8402 770.862 254.6226 769.9679 255.405 768.4031 255.405 766.7265 255.6285 765.497 256.1873 759.1261 256.6344 756.6671 256.858 755.3259 256.7462 753.8728 256.0756 751.9727 254.5108 749.0667 253.5048 747.6136 252.7224 745.8253 251.7165 744.2605 250.9341 742.8075 249.8164 741.2427 248.5869 739.3426 244.0043 734.3129 242.4395 732.0774 242.216 730.1773 243.669 726.6007 243.7807 725.0359 243.669 723.4711 242.7748 721.7945 241.6571 718.5531 240.5394 716.7648 238.6393 714.9765 225.7856 707.8231 220.3088 706.4818 211.8142 705.4759 183.9832 706.1465 173.2531 709.7232Z" />
  <path class="Toledo" d="M17.4441 821.4944L21.5796 815.2352 23.7033 812.5527 25.4916 810.6526 28.0624 807.523 29.0683 805.8464 29.7389 804.2816 29.9625 802.2697 30.186 801.4873 31.4155 799.699 32.9803 797.7989 34.6569 796.6812 47.7341 791.3162 52.652 790.8691 54.1051 790.6455 56.7876 789.6396 63.0468 788.969 65.5057 787.7395 68.3 785.6158 75.9004 778.2389 78.3594 775.4447 79.2536 774.8858 81.0419 775.5564 82.2714 776.3388 83.3891 777.3448 85.9598 780.1391 87.1893 780.8097 88.7541 780.8097 90.766 780.3626 105.408 774.774 106.9728 773.6563 106.5257 770.415 106.5257 769.0737 108.2023 766.6147 109.7671 765.0499 111.8908 763.5969 116.1381 761.6968 118.3735 761.2497 120.1618 761.4733 122.3972 760.9144 125.7504 758.9025 135.698 751.1903 138.2688 749.8491 141.2866 748.9549 142.9631 748.1725 148.887 743.5899 156.3757 735.8777 157.4934 731.8539 157.1581 729.842 155.5933 723.2475 155.9286 721.6827 156.8228 719.7826 160.8465 714.7529 162.9702 712.4057 164.0879 711.6233 166.9939 710.0585 173.2531 709.7232 183.9832 706.1465 211.8142 705.4759 220.3088 706.4818 225.7856 707.8231 238.6393 714.9765 240.5394 716.7648 241.6571 718.5531 242.7748 721.7945 243.669 723.4711 243.7807 725.0359 243.669 726.6007 242.216 730.1773 242.4395 732.0774 244.0043 734.3129 248.5869 739.3426 249.8164 741.2427 250.9341 742.8075 251.7165 744.2605 252.7224 745.8253 253.5048 747.6136 254.5108 749.0667 256.0756 751.9727 256.7462 753.8728 256.858 755.3259 256.6344 756.6671 256.1873 759.1261 255.6285 765.497 255.405 766.7265 255.405 768.4031 254.6226 769.9679 253.8402 770.862 253.2813 772.5386 255.5167 773.5446 270.6058 775.6682 272.8413 775.5564 273.959 775.2211 288.601 776.1153 290.1658 776.0035 294.0778 776.1153 296.0897 776.5624 297.7662 776.6741 305.4784 775.4447 309.1669 775.6682 310.7317 776.1153 311.7376 779.0213 315.9849 780.8097 317.3262 783.604 310.3964 788.969 302.7959 804.2816 295.7543 807.523 295.0837 809.6466 294.4131 818.8119 294.5249 820.712 292.4012 822.0532 290.5011 822.0532 289.1598 821.3826 289.1598 820.712 286.8127 822.2768 286.0303 823.0592 285.5832 824.0651 284.1301 825.9652 279.324 837.5894 277.871 839.4895 274.9649 841.1661 265.2408 854.0198 264.1231 856.0317 262.5583 861.1732 261.5524 863.0733 261.3288 864.191 261.7759 867.4323 261.5524 868.5501 260.5464 868.7736 257.5286 868.3265 256.4109 868.5501 254.8461 869.4442 250.3752 870.4502 248.5869 871.4561 247.8045 872.9091 246.0162 879.1683 246.0162 863.0733 243.5572 863.0733 240.9865 871.4561 235.7332 872.6856 230.5917 869.4442 228.3563 864.4145 226.9033 862.2909 223.7737 861.9556 220.6441 862.6262 219.3029 863.0733 218.8558 864.4145 218.9675 871.2326 217.9616 873.8033 215.2791 874.6975 202.649 876.4858 200.5253 877.9388 198.737 879.7272 196.1662 881.292 191.1365 881.9626 185.8833 884.4216 184.3185 890.569 185.2127 905.5463 183.7596 913.5938 180.2947 919.5177 175.0415 923.0944 168.5587 924.3239 166.6586 925.3298 164.4232 927.7888 162.6349 930.6948 160.9583 937.5129 158.7229 939.413 155.4815 940.7542 151.9048 942.7661 147.7693 946.3428 145.981 948.3547 144.3044 950.7019 143.4102 954.9492 143.7455 959.3083 142.7396 962.5496 133.0155 965.4557 126.5328 969.3677 120.3854 974.5091 116.1381 979.7624 114.9086 989.3747 122.6208 1005.4697 121.2795 1014.5232 107.1964 1020 74.3356 1011.5054 62.3761 1011.6172 51.7579 1013.4055 23.2562 1012.0642 16.5499 1014.9703 13.085 1015.0821 8.726 1016.5351 5.2611 1018.3234 4.4787 1019.5529 1.3491 1014.5232 1.5726 1009.7171 2.2432 990.9395 11.7438 901.5226 17.4441 821.4944Z" />
</svg>