<?xml version="1.0" encoding="utf-8"?>
<svg xmlns="http://www.w3.org/2000/svg" viewBox="0 0 1021 711" style="stroke-width:0.25px;stroke-linejoin:round;stroke:#444;fill:#ddd" fill-rule="evenodd">
  <path class="Ahal Region" d="M330.5014 433.9634L330.2779 433.6281 326.1424 428.263 319.3243 423.3451 313.0651 418.5389 299.8761 416.1917 291.9404 413.0622 289.8167 409.9326 290.0403 400.8791 295.5171 387.3548 301.7762 374.6129 310.9415 342.1992 314.9652 328.5631 317.6477 316.9389 323.6834 311.6857 325.2482 306.7678 325.0246 296.9319 321.0009 288.8844 320.1067 276.1425 323.3481 269.4362 330.1661 267.3125 334.9723 261.8358 340.4491 267.6479 349.9496 260.8298 369.5096 258.1473 384.1516 257.0296 402.3703 256.1354 418.5771 249.3174 443.5021 253.0058 459.7089 257.7002 470.5507 266.9772 495.9228 267.6479 515.5945 267.089 536.0486 266.8655 535.1545 299.5026 539.6253 306.3207 553.7085 303.4146 559.9677 317.4978 572.1507 314.9271 596.2933 314.8153 608.6999 313.6976 607.0233 329.7926 591.9342 333.8164 586.4574 366.5653 576.7333 370.3656 576.0627 381.2074 567.5681 385.79 577.404 424.4628 593.8343 439.3284 607.9175 462.2415 599.7582 466.7123 602.9996 477.8894 595.1756 480.9073 601.7701 504.6028 617.9769 508.0677 630.4953 514.2151 637.8722 521.8155 626.248 529.6395 619.9888 516.8976 607.9175 513.4327 642.6783 568.8712 639.7723 627.7746 647.5963 629.8982 647.0374 638.0575 638.6546 643.6461 645.2491 654.935 641.8959 664.7708 640.1076 666.1121 639.884 667.0063 639.6605 666.8945 639.437 667.2298 639.3252 667.0063 639.437 666.4474 638.6546 666.671 638.3193 666.4474 638.2075 666.5592 638.0957 666.5592 638.0957 666.3356 637.9839 665.7768 637.6486 665.3297 637.6486 664.4355 638.0957 663.8767 637.7604 663.5414 636.7545 663.5414 633.5131 663.9884 631.7248 664.5473 631.5012 664.8826 631.0541 665.1062 631.0541 664.8826 630.4953 664.1002 628.8187 661.4177 627.8128 659.4058 627.701 657.1704 627.5892 657.0586 627.8128 656.8351 627.8128 656.7233 627.9245 656.4998 628.7069 655.7174 628.9305 655.6056 629.154 654.935 629.0422 654.3761 629.0422 653.3702 629.0422 653.2584 629.154 652.9231 629.6011 650.7994 629.6011 650.0171 629.2658 649.4582 629.154 649.3464 629.3776 648.3405 629.3776 648.2287 629.6011 647.3345 629.4893 645.8815 629.2658 644.5403 629.154 644.0932 628.9305 641.4107 628.5952 640.293 628.4834 639.8459 628.3716 639.5106 627.8128 638.3928 627.1421 637.1634 627.0304 637.0516 626.0244 635.8221 625.6891 635.4868 624.6832 634.5926 623.2301 633.8102 621.5536 633.5867 620.7712 633.2514 621.33 632.6925 621.5536 632.1337 623.2301 631.3513 623.4537 630.9042 623.5655 630.01 623.6772 629.8982 623.789 629.1158 623.4537 627.3275 623.6772 626.6569 623.6772 626.3216 624.1243 625.8745 624.7949 625.6509 624.7949 625.5392 625.4656 625.2039 625.6891 624.1979 625.6891 623.4155 625.8009 622.6331 625.8009 622.5213 626.0244 621.9625 626.0244 621.7389 626.4715 621.1801 626.695 620.733 627.1421 620.1741 627.2539 619.8388 627.3657 619.6153 627.2539 619.1682 627.1421 618.274 627.1421 617.827 627.0304 616.821 627.2539 616.5975 627.4774 616.0386 627.0304 614.2503 626.8068 613.8032 626.9186 613.5796 626.695 613.2443 626.3597 613.2443 625.9127 611.0089 624.9067 609.2206 624.7949 608.997 624.6832 608.4382 624.6832 608.3264 624.6832 607.7675 624.6832 606.6498 624.6832 606.3145 624.5714 605.4204 624.2361 604.5262 623.9008 603.9673 623.4537 603.4085 622.8948 602.9614 622.336 602.7378 622.2242 602.6261 622.4477 602.179 622.4477 602.0672 622.5595 601.8437 622.7831 601.5084 622.7831 601.3966 622.6713 601.173 622.2242 600.0553 621.7771 598.9376 621.8889 597.5964 622.1124 594.9139 622.5595 594.6903 622.7831 594.2432 623.1184 593.9079 623.3419 593.3491 623.0066 592.902 623.2301 591.449 622.8948 591.1136 622.8948 591.0019 623.1184 590.3312 623.4537 588.4311 623.6772 587.4252 623.2301 586.0839 623.1184 585.078 623.3419 584.4074 623.4537 584.0721 623.9008 583.4014 624.0125 583.2897 624.2361 582.619 624.4596 582.0602 624.4596 581.8366 624.5714 581.6131 624.6832 580.4954 624.5714 579.3777 624.2361 578.5953 623.6772 577.1422 623.1184 574.1244 621.7771 574.0127 620.2123 573.7891 618.8711 573.5656 616.6356 573.1185 609.3705 573.2303 600.8759 573.4538 585.675 573.6773 575.7274 573.9009 564.5503 574.1244 564.5503 573.5656 563.8796 573.4538 563.0972 572.1125 562.0913 570.7713 560.0794 566.4122 559.0735 564.7356 558.9617 563.3944 557.2851 561.6061 557.2851 561.0472 556.391 560.2648 555.7204 559.1471 555.2733 557.8058 554.8262 557.5823 554.4909 557.4705 553.932 556.9117 553.2614 556.5763 552.0319 555.3469 551.1377 553.5585 550.3553 552.5526 550.1318 552.1055 549.5729 551.4349 549.4612 550.7642 547.7846 549.0877 547.3375 548.4171 546.5551 547.0758 546.4433 546.4052 546.5551 545.0639 546.2198 544.2815 545.6609 543.3873 542.9784 539.8107 542.0843 539.3636 541.0783 538.5812 540.6312 538.3576 539.9606 538.0223 538.6194 537.4635 537.6134 537.7988 536.4957 537.9106 533.7014 537.3517 533.3661 537.1282 532.6955 537.1282 532.1366 536.3458 531.2425 535.6751 530.7954 535.6751 529.5659 534.4457 528.8953 533.6633 528.1129 532.8809 527.8893 532.7691 527.6658 532.9926 526.9952 532.322 526.4363 532.4338 525.8774 531.6514 525.6539 531.8749 525.5421 531.7631 525.4304 531.6514 522.7479 530.7572 515.1474 528.2982 514.365 528.2982 513.6944 528.6336 512.912 529.9748 512.3531 530.5337 512.3531 530.4219 511.2354 529.863 511.0119 529.9748 510.7883 529.9748 510.7883 529.863 510.2295 528.41 509.8942 526.7334 509.4471 525.2804 508.2176 524.0509 507.0999 523.8274 505.4233 524.498 504.1938 523.8274 503.5232 523.1568 502.4055 522.4861 502.4055 522.1508 503.1879 521.9273 503.635 521.1449 503.635 520.8096 503.0761 519.4683 502.182 519.133 501.7349 518.3506 501.6231 517.9035 500.7289 517.5682 500.6172 517.4564 500.8407 516.7858 500.3936 516.674 499.723 516.227 499.3877 515.5563 499.6112 515.221 499.6112 514.4386 499.4994 514.3268 498.9406 514.1033 498.7171 514.3268 498.27 514.1033 498.0464 514.2151 497.7111 514.2151 496.8169 513.3209 497.0405 512.762 496.4816 511.9796 496.5934 511.4208 496.3699 511.0855 496.3699 509.4089 496.2581 508.1794 495.4757 505.1616 495.811 503.9321 497.0405 503.3733 497.8229 502.7026 496.8169 501.4732 496.1463 501.8085 495.6992 501.3614 496.4816 498.7906 495.9228 497.5612 494.2462 495.8846 493.7991 494.3198 491.3402 494.208 491.0048 494.3198 490.7813 494.0963 489.2165 493.7609 486.0869 495.1022 485.1927 495.5493 485.081 495.5493 484.4103 495.4375 483.5162 494.8787 483.2926 494.5433 482.9573 494.3198 482.8455 493.9845 482.1749 493.6492 482.0631 493.3139 481.6161 493.2021 481.5043 493.4256 481.2807 493.3139 480.3866 492.4197 479.6042 490.5196 478.0394 489.9607 477.257 489.5136 474.3509 486.8311 472.7861 485.1546 472.2273 485.0428 470.6625 485.1546 470.2154 484.931 469.433 484.4839 468.7624 483.9251 467.1976 482.9191 464.2915 481.8014 463.2856 481.5779 461.2737 481.9132 459.7089 481.6897 458.9265 481.1308 458.2559 480.5719 456.8029 478.8954 455.9087 478.5601 455.3498 478.5601 455.1263 479.1189 455.2381 479.9013 454.3439 479.3425 453.8968 480.0131 453.785 481.3543 453.0026 482.2485 450.5437 481.8014 449.873 482.2485 449.7613 482.4721 448.9789 482.4721 448.42 482.9191 447.9729 483.478 446.2964 483.3662 444.6198 482.9191 443.2785 482.3603 441.2667 481.1308 439.8136 479.7895 439.7019 479.9013 439.0312 479.4542 437.5782 478.8954 436.9076 478.3365 436.3487 478.3365 435.7899 478.7836 434.8957 478.7836 433.8898 479.6778 432.9956 480.9073 432.325 482.3603 431.319 483.9251 430.7602 484.2604 430.0895 484.4839 426.5129 484.8193 424.3892 485.0428 424.2774 484.5957 423.3833 484.5957 423.2715 484.4839 422.9362 483.9251 423.048 483.478 422.7127 483.0309 422.7127 482.4721 422.8244 482.3603 421.7067 482.1367 419.0242 482.2485 417.6829 481.9132 417.1241 481.4661 415.8946 481.2426 413.3239 480.3484 413.3239 479.4542 413.4356 479.0072 413.4356 478.6718 413.771 478.4483 413.771 478.2248 413.2121 477.2188 413.4356 476.2129 413.2121 475.654 413.2121 475.3187 412.6532 475.3187 412.4297 474.201 412.2062 472.9715 411.9826 472.4127 411.6473 472.0773 411.312 472.0773 410.0825 471.5185 409.859 471.5185 408.1824 470.4008 407.7353 470.7361 407.1765 470.6243 405.947 470.5125 405.0528 470.4008 404.7175 470.4008 404.0469 470.289 400.9173 469.5066 400.0231 469.2831 398.9054 468.7242 398.5701 468.6124 397.8994 468.2771 397.1171 467.9418 389.6284 464.2534 389.5166 464.2534 388.846 463.918 386.4988 463.2474 386.387 463.2474 385.2693 463.3592 384.1516 463.5827 383.5927 463.2474 383.1457 462.1297 383.2574 461.4591 382.9221 461.5708 382.6986 461.3473 382.5868 460.7884 382.0279 461.012 381.8044 460.6767 381.5809 460.9002 380.7985 460.9002 380.4631 461.012 380.2396 460.9002 379.569 460.6767 379.4572 460.7884 379.3454 460.5649 378.8983 460.2296 378.7866 459.6707 378.116 459.1119 377.2218 458.7766 375.7688 458.7766 375.3217 459.1119 374.9864 459.3354 373.8686 459.1119 373.7569 459.0001 373.198 458.553 372.6392 458.6648 372.4156 458.4413 370.6273 458.7766 369.6213 458.3295 368.7272 458.1059 368.3919 457.7706 368.0565 457.7706 367.1624 457.3235 366.2682 457.5471 365.4858 457.8824 365.1505 458.1059 364.4799 458.553 363.921 458.3295 363.0268 459.0001 362.3562 459.0001 362.0209 458.8883 361.9091 458.6648 361.7974 458.553 361.462 458.3295 361.3503 457.7706 361.015 457.4353 360.009 457.2118 358.4442 457.3235 357.8854 457.2118 357.103 456.7647 354.8675 454.641 353.9734 454.1939 352.7439 454.0822 352.185 453.4116 351.6262 453.2998 351.1791 453.0762 350.9556 452.7409 350.6202 451.8468 352.4086 444.9169 352.4086 444.2463 352.185 443.3521 350.9556 442.1227 350.1732 441.1167 349.8378 439.5519 348.9437 438.0989 348.4966 437.8754 347.4906 437.54 346.82 436.9812 346.3729 436.3106 346.3729 434.0751 345.5905 431.8397 345.1435 431.0573 344.0257 430.3867 343.6904 430.0514 343.2433 428.7101 343.3551 427.5924 343.1316 427.1453 342.7963 426.9218 340.3373 426.0276 339.2196 426.0276 337.7666 426.5865 337.543 426.6982 336.6488 427.7042 335.4194 430.2749 334.9723 430.6102 333.1839 431.5044 333.0722 431.6162 332.178 432.175 331.9545 432.5103 331.1721 433.6281 330.5014 433.9634ZM415.5593 461.5708L422.4891 463.8063 424.9481 463.6945 427.2953 462.8003 428.9718 459.559 428.9718 458.1059 430.7602 456.0941 430.7602 455.4234 429.6425 453.188 427.1835 449.9466 425.3952 449.276 424.9481 450.3937 423.6068 452.1821 421.3714 450.729 420.2537 449.8349 419.136 448.6054 416.7888 450.9526 416.5652 457.5471 415.5593 461.5708Z" />
  <path class="Ashgabat" d="M415.5593 461.5708L416.5652 457.5471 416.7888 450.9526 419.136 448.6054 420.2537 449.8349 421.3714 450.729 423.6068 452.1821 424.9481 450.3937 425.3952 449.276 427.1835 449.9466 429.6425 453.188 430.7602 455.4234 430.7602 456.0941 428.9718 458.1059 428.9718 459.559 427.2953 462.8003 424.9481 463.6945 422.4891 463.8063 415.5593 461.5708Z" />
  <path class="Balkan Region" d="M41.3494 288.3255L40.7905 288.6608 40.1199 287.6549 38.8904 284.3018 38.7787 283.9664 38.108 283.5194 37.1021 281.1722 37.5492 281.5075 38.2198 282.2899 38.6669 282.6252 39.114 282.737 39.2257 282.9605 39.5611 282.8487 39.4493 283.0723 39.6728 283.4076 39.5611 283.5194 39.7846 283.8547 40.2317 284.19 39.8964 284.6371 39.4493 284.4135 39.7846 285.0842 41.0141 285.8666 41.5729 286.2019 42.5789 287.3196 42.6906 287.5431 42.3553 287.7667 42.02 287.4314 41.5729 287.5431 41.7965 287.2078 41.4612 286.9843 41.0141 286.9843 41.0141 287.3196 41.3494 287.5431 41.1259 287.8784 41.3494 288.3255ZM44.1437 375.507L44.479 374.6129 44.3672 372.9363 42.8024 370.2538 42.5789 368.3537 42.6906 366.3418 42.9142 365.4476 42.8024 364.5535 43.1377 360.865 42.9142 360.3062 43.1377 358.7414 42.8024 357.4001 42.8024 355.6118 43.3613 353.4881 44.5908 351.1409 45.1496 350.8056 45.1496 350.9174 45.3732 351.0292 45.2614 350.8056 45.8202 350.9174 46.938 350.5821 47.4968 350.8056 47.7204 351.0292 47.6086 351.0292 47.4968 350.9174 47.2733 351.0292 46.8262 351.6998 46.8262 351.4762 46.3791 351.4762 46.7144 351.3645 46.8262 351.3645 46.938 351.2527 46.8262 351.2527 46.938 351.1409 46.8262 350.8056 46.6026 350.6938 45.5967 351.1409 45.0378 351.588 44.479 352.5939 44.2554 354.3823 44.0319 358.6296 44.2554 362.6534 44.2554 367.0124 44.5908 371.595 44.9261 373.4952 45.3732 378.3013 45.3732 379.0837 45.2614 378.6366 44.9261 377.966 44.9261 378.0778 44.5908 377.7425 44.8143 377.966 44.3672 377.1836 44.5908 378.3013 45.2614 379.1955 45.3732 379.0837 45.2614 379.419 44.8143 378.9719 44.2554 377.7425 44.0319 376.4012 44.1437 375.507ZM285.0106 145.7055L289.5932 163.3653 301.1056 179.0133 308.1472 193.0965 312.0592 205.1678 320.1067 212.9917 324.0187 225.1748 329.0484 238.1403 326.7012 249.8762 332.5133 259.1532 334.9723 261.8358 330.1661 267.3125 323.3481 269.4362 320.1067 276.1425 321.0009 288.8844 325.0246 296.9319 325.2482 306.7678 323.6834 311.6857 317.6477 316.9389 314.9652 328.5631 310.9415 342.1992 301.7762 374.6129 295.5171 387.3548 290.0403 400.8791 289.8167 409.9326 291.9404 413.0622 299.8761 416.1917 313.0651 418.5389 319.3243 423.3451 326.1424 428.263 330.2779 433.6281 330.5014 433.9634 329.9426 434.1869 329.4955 434.1869 329.3837 434.1869 328.3778 433.8516 327.4836 433.4045 326.7012 434.4105 326.4777 434.7458 325.9188 434.0751 325.807 433.9634 325.1364 432.2868 323.5716 432.2868 323.4598 432.6221 323.1245 432.6221 321.895 432.2868 321.1127 432.2868 320.7773 432.0633 320.3303 432.2868 319.9949 432.175 319.3243 432.2868 318.4301 431.7279 317.6477 431.8397 315.9712 430.9455 315.1888 430.8338 314.4064 430.8338 313.624 430.1631 312.9534 429.8278 312.5063 429.4925 311.7239 429.269 311.3886 428.9337 310.9415 428.9337 310.4944 428.0395 309.1531 427.2571 308.9296 426.9218 308.8178 426.4747 308.7061 426.0276 308.3707 425.9158 307.1413 426.4747 306.8059 426.6982 305.0176 427.2571 304.0117 427.4806 302.8939 427.2571 301.7762 427.3689 300.9938 427.816 300.3232 428.3748 299.7644 429.1572 299.6526 429.1572 299.429 429.3807 298.1996 429.9396 298.0878 429.9396 296.9701 429.7161 295.9641 428.9337 295.6288 428.5983 294.3993 427.9277 293.3934 427.5924 290.3756 428.0395 288.0284 427.816 286.0165 428.1513 284.6752 428.5983 283.8928 429.269 281.881 430.722 278.6396 433.7398 278.0807 433.8516 277.969 434.2987 277.6337 434.634 277.969 434.8575 277.5219 435.4164 277.0748 435.5282 277.8572 437.8754 277.7454 437.9871 277.7454 438.3224 277.7454 438.4342 277.969 438.4342 278.5278 438.8813 278.8631 438.7695 278.9749 439.7755 279.3102 440.2226 279.5338 441.1167 278.9749 441.3403 278.1925 442.7933 278.3043 444.6934 277.7454 444.3581 277.2983 444.3581 277.0748 444.9169 276.8513 444.4699 276.6277 444.4699 276.0689 444.2463 275.9571 444.2463 275.3982 444.2463 275.0629 444.0228 274.7276 444.3581 274.3923 444.3581 274.3923 444.5816 273.3864 444.3581 272.0451 444.8052 271.7098 444.6934 270.0332 445.0287 269.8097 445.1405 268.5802 444.4699 266.6801 443.1286 266.1212 443.1286 263.6623 443.4639 261.7622 444.0228 261.3151 444.1345 260.9798 443.7992 260.1974 444.0228 257.1795 444.4699 255.8383 444.6934 255.6147 444.4699 255.0559 444.5816 254.497 444.5816 254.2735 444.6934 253.9382 444.5816 253.3793 444.8052 253.1558 444.5816 252.7087 444.5816 252.2616 444.1345 251.7028 444.6934 249.6909 443.4639 248.0143 443.3521 246.673 443.5757 244.4376 443.1286 243.0964 442.458 240.5256 440.6696 238.5138 440.7814 236.949 440.3343 236.3901 440.3343 234.7135 441.005 234.6018 441.005 233.1487 441.3403 232.3663 441.6756 230.8015 441.8991 229.125 441.8991 219.4009 443.911 214.93 444.1345 213.7006 444.6934 212.5828 445.5876 211.1298 447.3759 210.4592 447.9348 206.1001 450.0584 205.5413 450.5055 205.4295 450.9526 203.6411 451.6232 202.5234 452.6292 202.4117 452.4056 202.2999 452.5174 202.0763 452.4056 201.8528 452.6292 201.6293 452.6292 201.6293 452.9645 201.4057 452.7409 201.2939 452.9645 200.8469 452.9645 200.8469 453.2998 200.5116 453.5233 200.3998 453.2998 199.9527 453.6351 200.0645 453.7469 199.9527 453.8586 199.6174 453.6351 199.3938 453.7469 199.2821 453.6351 199.1703 453.6351 198.9468 453.8586 198.9468 453.9704 198.835 454.0822 198.7232 454.1939 198.7232 454.3057 198.6114 454.4175 198.6114 454.5293 198.3879 454.5293 198.3879 454.7528 197.829 454.8646 197.7173 455.1999 197.829 455.3117 197.7173 455.5352 197.829 455.647 197.4937 455.647 197.7173 455.8705 197.4937 455.9823 197.7173 456.2058 197.382 456.3176 197.382 456.5411 197.1584 456.2058 197.0466 456.5411 196.7113 456.5411 196.5996 455.9823 196.0407 455.8705 195.9289 455.7587 195.8172 455.7587 195.7054 455.5352 195.2583 455.647 195.1465 455.3117 195.0348 455.3117 194.923 455.647 194.6994 455.5352 194.6994 455.7587 194.3641 455.647 194.1406 456.3176 193.9171 456.2058 193.5817 456.2058 193.3582 455.9823 193.47 456.3176 193.2464 456.4294 193.1347 456.2058 193.0229 456.4294 192.7993 456.3176 192.6876 456.5411 192.464 456.3176 192.3523 456.4294 192.1287 456.3176 192.0169 456.6529 191.6816 456.7647 191.7934 456.9882 191.6816 456.9882 191.6816 457.2118 191.4581 457.2118 190.8992 458.4413 190.3404 459.1119 189.558 459.3354 189.3344 459.4472 189.4462 459.4472 189.3344 459.4472 188.8873 459.559 188.7756 459.559 188.6638 459.559 188.7756 460.1178 188.552 460.2296 188.3285 460.6767 188.2167 460.4531 188.2167 460.6767 187.8814 460.7884 187.5461 460.7884 187.4343 460.9002 187.4343 461.012 187.3226 461.2355 187.099 461.6826 187.099 461.7944 186.8755 462.0179 186.9872 462.0179 186.7637 462.2415 186.6519 462.3532 185.5342 463.5827 185.5342 463.6945 185.7578 464.0298 185.7578 464.3651 185.5342 464.4769 185.5342 464.5887 185.1989 464.5887 185.3107 464.8122 184.8636 465.0358 184.9754 465.1475 184.5283 465.2593 184.64 465.3711 184.4165 465.4828 184.5283 465.5946 184.3047 465.8182 184.64 465.9299 184.4165 465.9299 184.4165 466.0417 183.8576 465.9299 183.6341 466.0417 183.5223 466.2652 183.2988 466.1535 183.0752 466.4888 182.8517 466.4888 182.8517 466.6006 182.6282 466.7123 182.9635 467.1594 182.9635 467.3829 182.7399 467.3829 182.8517 467.1594 182.5164 467.1594 182.5164 467.3829 181.9575 467.3829 181.9575 467.4947 181.6222 467.9418 181.6222 468.0536 181.2869 467.83 181.0634 468.1653 181.2869 468.1653 181.1751 468.2771 180.5045 468.3889 179.9457 468.7242 179.7221 469.1713 179.8339 469.3948 180.0574 469.3948 179.9457 469.5066 179.8339 469.5066 179.7221 469.8419 179.1633 470.1772 179.0515 470.4008 178.7162 470.289 178.7162 470.5125 178.4926 470.7361 178.8279 470.6243 178.8279 470.7361 178.6044 470.8479 178.2691 470.7361 178.3809 470.8479 178.1573 470.9596 178.0455 471.1832 177.822 471.1832 177.822 471.2949 177.7102 470.9596 176.9278 471.1832 177.0396 471.4067 176.7043 471.4067 176.5925 471.8538 176.369 471.6303 176.369 471.8538 176.1454 471.9656 176.0337 472.1891 175.6983 472.3009 175.5866 472.5244 175.363 472.4127 175.363 472.748 175.1395 473.0833 175.0277 473.0833 175.2513 472.9715 175.2513 472.748 175.0277 472.748 174.8042 472.5244 174.5806 472.748 174.4689 472.6362 174.4689 472.5244 174.3571 472.6362 174.2453 472.5244 174.1336 472.5244 174.1336 472.8597 174.0218 472.6362 173.91 472.6362 173.91 472.8597 173.7982 472.8597 173.6865 473.195 173.6865 472.748 173.5747 472.748 173.4629 472.8597 173.3512 473.3068 173.2394 473.195 173.0158 473.5304 172.7923 473.5304 172.9041 473.6421 172.6805 473.6421 172.5688 473.9774 172.6805 473.9774 172.5688 474.201 172.6805 474.3128 172.5688 474.4245 172.2334 474.3128 172.1217 474.4245 172.1217 474.6481 171.8981 474.6481 171.7864 474.8716 171.5628 474.7598 171.5628 474.8716 171.7864 474.9834 171.6746 475.2069 172.0099 475.3187 171.5628 475.3187 171.5628 475.5422 171.451 475.654 171.451 475.8776 171.2275 475.8776 171.2275 476.1011 171.004 476.3246 171.004 476.4364 170.7804 476.3246 170.7804 476.5482 170.5569 476.4364 170.4451 476.5482 170.3333 477.2188 170.5569 477.4424 170.4451 477.5541 170.3333 477.4424 170.2216 477.6659 170.1098 477.6659 170.2216 478.0012 170.1098 478.113 170.3333 478.4483 170.1098 478.6718 170.3333 478.7836 170.3333 479.0072 169.7745 479.0072 169.998 479.1189 169.998 479.3425 169.7745 479.4542 169.7745 479.6778 169.3274 479.9013 169.6627 480.1249 169.5509 480.2366 169.6627 480.3484 169.3274 480.2366 169.3274 480.5719 169.1039 480.6837 168.9921 480.9073 168.7685 480.9073 168.7685 481.019 168.9921 481.3543 168.545 481.3543 168.7685 481.5779 168.7685 481.8014 168.9921 481.8014 168.8803 482.1367 168.9921 482.3603 168.6568 482.4721 168.3215 482.8074 168.3215 483.0309 168.0979 482.9191 168.3215 483.3662 168.0979 483.478 168.0979 483.2545 167.8744 483.3662 167.8744 483.5898 168.0979 483.7015 167.8744 483.8133 167.7626 483.8133 167.8744 484.1486 167.8744 484.2604 167.8744 484.4839 167.8744 485.0428 168.0979 485.6017 168.9921 486.384 169.4392 486.384 169.7745 487.2782 169.2156 490.5196 169.1039 490.7431 169.1039 491.0784 168.7685 491.6373 168.6568 491.9726 168.4332 492.4197 168.4332 493.6492 168.2097 494.5433 167.7626 494.8787 167.5391 495.3257 166.4213 496.2199 166.6449 496.5552 166.5331 497.1141 166.3096 497.0023 166.1978 496.8905 166.086 497.1141 165.6389 497.1141 165.6389 497.5612 165.5272 497.4494 165.1919 497.6729 164.9683 497.5612 164.7448 497.6729 164.633 497.5612 163.4035 498.3436 163.18 498.5671 163.18 498.7906 163.0682 498.6789 163.0682 498.9024 162.8447 499.0142 162.9564 499.126 162.7329 499.126 162.8447 499.3495 162.174 500.2437 161.8387 500.9143 161.3916 501.3614 160.721 501.6967 159.7151 502.5909 159.1562 502.5909 159.0444 502.7026 158.9327 502.4791 158.4856 502.5909 158.5974 502.3673 158.3738 502.3673 158.3738 502.2556 158.3738 502.1438 158.0385 502.032 158.0385 502.1438 157.5914 502.3673 157.5914 502.032 157.3679 502.032 157.2561 502.032 157.0326 502.1438 157.1443 501.9202 157.0326 501.5849 156.4737 501.4732 155.9149 501.6967 155.4678 501.3614 155.2442 500.9143 154.7971 500.9143 154.6854 500.6908 154.3501 500.8025 154.1265 500.579 154.0147 500.6908 153.903 500.4672 153.4559 500.4672 153.4559 500.6908 153.2323 500.579 153.0088 500.8025 152.897 501.3614 152.7853 501.5849 152.5617 501.5849 152.5617 501.4732 152.2264 501.5849 152.3382 501.4732 152.2264 501.2496 152.1146 501.5849 151.7793 501.5849 151.7793 501.8085 151.7793 501.6967 151.3322 501.5849 151.3322 501.9202 150.9969 501.6967 150.8851 502.032 150.5498 502.032 150.6616 502.1438 150.1028 502.7026 149.7674 502.5909 149.3204 503.038 148.7615 502.7026 148.538 503.038 148.3144 503.1497 148.0909 503.3733 147.6438 504.0439 147.532 503.9321 147.532 504.0439 147.3085 504.1557 146.8614 503.9321 146.5261 504.1557 146.079 504.7145 145.5201 505.1616 145.2966 505.4969 144.626 505.7205 144.1789 506.2793 143.8436 506.2793 143.5083 506.6146 142.8376 506.9499 139.9316 509.4089 136.4667 510.5266 131.9958 510.1913 130.3193 511.9796 129.2015 512.762 129.0898 513.0974 125.5131 512.6503 115.1184 511.6443 113.7771 511.0855 110.2004 510.7502 110.2004 509.5207 109.8651 508.0677 108.4121 507.1735 108.3003 505.8322 108.4121 504.8263 107.6297 501.1378 106.8473 499.2377 105.3943 496.2199 104.2766 492.4197 102.4882 487.6135 100.9234 481.9132 99.6939 475.8776 98.9116 470.289 98.2409 460.0061 98.7998 450.8408 99.3586 447.2641 101.3705 437.9871 101.9294 434.4105 102.6 418.7625 102.6 417.6448 101.0352 413.0622 99.5822 405.4617 99.5822 402.7792 99.9175 400.3202 101.5941 392.8316 104.2766 386.7959 105.9531 384.4487 106.8473 381.6545 107.0708 379.1955 108.6356 375.9541 110.6475 373.1598 111.5417 372.0421 112.4359 372.0421 113.1065 370.5891 113.4418 368.9125 112.5476 368.689 111.5417 367.9066 111.9888 364.777 112.8829 364.777 112.9947 363.9946 112.3241 363.324 111.6535 363.6593 110.9828 364.3299 110.424 364.1064 110.9828 362.318 110.5358 361.9827 109.7534 363.324 109.3063 363.324 109.0827 362.2063 109.6416 360.6415 109.1945 360.865 108.6356 361.4239 107.965 361.2003 107.4062 360.865 106.1767 361.5356 105.7296 362.6534 105.7296 364.1064 104.6119 363.5475 104.053 361.9827 103.7177 357.1766 104.053 355.6118 103.7177 355.0529 103.0471 355.5 102.8235 356.5059 103.1589 357.0648 102.4882 357.6237 100.6999 357.1766 98.9116 356.5059 98.5762 355.6118 98.688 354.4941 98.4645 353.8234 97.7938 353.8234 97.4585 354.7176 97.0114 355.3882 96.4526 355.3882 96.5644 353.8234 96.1173 353.8234 95.4466 353.4881 95.1113 352.9293 94.5525 352.9293 94.5525 351.4762 93.7701 351.6998 93.7701 352.4822 94.4407 353.5999 94.4407 354.9411 94.1054 356.0589 93.4348 355.7235 93.4348 354.7176 92.7641 354.1587 92.4288 352.9293 92.4288 351.6998 91.7582 351.0292 91.4229 352.2586 91.3111 353.3763 90.7523 351.6998 90.4169 348.9055 89.9699 348.1231 90.864 347.5642 91.7582 347.3407 92.2053 346.223 91.87 345.5524 92.4288 344.5464 92.7641 343.3169 91.87 343.6523 90.5287 345.1053 90.0816 344.9935 90.864 343.6523 91.3111 340.5227 91.7582 339.852 91.1993 339.2932 89.7463 339.5167 89.411 340.4109 87.958 342.311 87.5109 343.2052 87.2873 344.2111 87.2873 345.2171 87.958 346.223 87.3991 349.7997 86.8403 349.9114 86.7285 348.9055 86.952 345.8877 86.0579 345.6641 85.2755 344.9935 85.6108 344.3229 85.1637 343.8758 84.6048 343.764 84.4931 342.9816 83.9342 342.5345 84.7166 339.9638 86.0579 338.7343 86.2814 338.1755 86.0579 337.7284 84.8284 338.399 82.593 339.9638 82.8165 338.8461 82.3694 338.1755 81.1399 338.399 80.6928 337.5048 80.9164 335.94 82.8165 332.1398 81.9223 332.6987 81.0282 333.5928 79.5751 334.487 79.6869 333.5928 79.4634 333.2575 78.7927 333.1458 79.1281 332.0281 79.9105 331.0221 80.134 329.6809 79.4634 330.0162 78.681 331.2457 77.7868 332.1398 77.7868 331.0221 78.4574 329.9044 78.9045 328.5631 79.5751 327.5572 79.5751 326.8866 78.7927 327.1101 77.675 328.2278 76.3338 328.8985 74.8807 331.0221 74.0983 330.6868 75.6631 328.2278 75.1043 327.5572 73.9866 328.0043 73.316 329.122 72.6453 329.3455 73.0924 328.0043 73.6513 326.9983 73.9866 326.7748 74.0983 326.4395 74.5454 325.9924 72.7571 326.7748 68.9569 329.0102 68.8451 328.7867 70.9688 327.5572 70.1864 327.1101 69.9628 326.1042 70.4099 324.7629 70.0746 324.2041 67.8392 325.4336 65.1567 326.663 63.8154 326.5513 61.9153 326.1042 60.4623 325.5453 60.3505 324.6512 57.8915 324.0923 56.662 324.2041 56.4385 324.4276 56.3267 324.3158 55.6561 324.4276 55.0972 324.9865 53.8678 325.7689 51.7441 326.1042 51.7441 326.5513 52.303 327.4454 53.1971 327.7807 54.2031 327.4454 55.6561 327.669 55.209 329.122 53.5325 331.581 52.5265 335.7165 53.1971 337.5048 53.5325 339.2932 53.6442 340.2991 52.9736 340.6344 52.5265 339.405 52.0794 335.2694 52.0794 331.9163 51.4088 329.0102 50.4029 326.8866 49.2851 323.8688 48.1674 322.5275 47.9439 322.4157 47.6086 322.4157 47.4968 322.0804 47.2733 322.1922 47.385 321.6333 47.1615 320.9627 47.8321 318.8391 49.0616 316.8272 51.6323 313.5858 55.9914 306.5442 57.1091 304.5323 58.0033 302.0734 58.8975 298.9438 59.6799 296.9319 60.7976 295.926 62.0271 295.7024 62.9212 296.0377 63.4801 297.1554 62.5859 297.7143 61.58 297.8261 60.6858 298.1614 60.0152 299.5026 59.5681 301.0674 58.7857 302.0734 57.3327 306.656 56.3267 308.2208 56.662 309.4503 56.7738 310.4562 57.8915 310.4562 59.9034 309.8974 68.7333 308.5561 71.5276 308.4443 72.8689 309.2267 73.8748 310.3444 74.5454 311.3504 74.2101 312.2446 74.5454 313.3623 73.8748 314.7035 72.9806 315.933 71.5276 317.6096 71.1923 319.7332 71.8629 317.8331 72.9806 317.0507 73.9866 315.7095 74.769 314.0329 75.4396 313.027 76.3338 313.6976 76.1102 315.0388 75.1043 316.0448 74.6572 317.2743 73.8748 318.0567 73.4277 319.0626 73.6513 319.845 74.769 319.0626 75.5514 317.7213 76.6691 316.7154 77.8986 315.4859 78.9045 314.8153 79.9105 314.9271 80.5811 316.0448 81.2517 316.6036 82.1459 316.2683 82.9283 315.4859 83.2636 314.0329 82.9283 312.2446 83.2636 311.0151 84.1578 311.0151 84.8284 313.3623 85.9461 314.1447 87.2873 314.2564 89.0757 313.2505 89.0757 312.4681 88.5168 312.3563 88.1815 311.4622 87.6227 311.5739 87.5109 310.6798 88.8521 309.115 89.0757 310.4562 90.0816 310.4562 91.1993 308.4443 91.4229 307.4384 92.0935 307.7737 92.0935 308.4443 91.3111 309.7856 91.3111 310.0091 92.0935 310.2327 92.7641 310.1209 93.0994 308.2208 92.3171 308.2208 92.5406 307.4384 93.323 307.5502 93.6583 306.5442 93.0994 306.2089 92.7641 306.4325 92.2053 307.6619 90.9758 306.9913 90.4169 307.3266 89.6345 306.4325 87.958 307.4384 87.1756 307.2149 85.8343 304.7559 86.2814 304.197 86.952 303.1911 86.952 301.7381 86.505 300.6204 85.8343 301.0674 85.3872 300.285 85.0519 300.3968 85.3872 301.4028 84.4931 301.0674 84.3813 300.285 83.9342 300.0615 83.5989 299.6144 82.8165 300.285 83.5989 301.1792 83.7107 302.5205 82.2576 301.0674 81.1399 301.9616 80.3575 301.8498 80.4693 300.9557 81.2517 300.285 81.587 299.5026 81.2517 299.1673 81.1399 297.8261 80.8046 297.1554 80.2458 296.7084 79.5751 297.2672 79.2398 297.9378 79.4634 299.0556 79.4634 299.5026 78.7927 298.9438 78.4574 298.0496 77.675 297.9378 77.5633 297.0437 76.8926 296.1495 75.7749 294.0259 75.1043 293.467 74.3219 292.2375 73.6513 292.1257 73.5395 292.9081 74.0983 294.1376 74.769 294.6965 74.9925 295.4789 74.8807 295.926 73.8748 295.4789 73.316 293.9141 72.7571 293.467 72.1982 293.9141 73.763 297.6025 72.8689 298.0496 72.0865 296.5966 71.3041 294.6965 71.1923 292.3493 71.6394 289.4432 72.31 287.096 72.0865 286.5372 71.5276 287.096 71.1923 288.2138 70.4099 289.2197 69.9628 288.6608 70.0746 286.7607 71.1923 286.0901 72.0865 285.3077 73.9866 280.3898 75.9985 278.7132 77.2279 277.0366 78.7927 275.6954 81.3635 275.3601 82.1459 274.3541 83.3754 273.3482 87.5109 274.8012 89.5228 275.8072 91.87 276.0307 94.776 276.5895 95.4466 278.1543 93.9936 280.8369 94.4407 281.6193 94.1054 281.8428 93.9936 282.4017 94.5525 282.6252 94.776 283.0723 93.9936 283.6311 93.8818 283.9664 94.1054 283.9664 93.9936 284.3018 94.4407 284.4135 95.3349 283.5194 95.6702 283.5194 95.8937 283.8547 96.4526 283.7429 96.3408 284.19 95.6702 284.4135 94.6642 285.5312 94.6642 285.643 95.2231 285.3077 95.5584 285.5312 95.8937 285.4195 96.4526 285.5312 96.8997 285.0842 96.8997 284.6371 99.3586 282.4017 100.2528 283.0723 101.7058 283.7429 106.0649 283.9664 106.9591 284.9724 107.1826 285.7548 111.3182 285.9783 114.4477 286.4254 119.9245 287.6549 121.4893 287.096 117.9127 284.4135 113.8889 281.9546 111.3182 279.2721 107.8532 278.6014 103.3824 277.2602 100.141 275.4718 96.5644 271.6716 95.2231 271.5598 94.4407 270.6657 89.6345 268.542 87.2873 266.8655 85.2755 265.8595 82.9283 266.1948 81.8106 265.9713 79.5751 266.7537 78.7927 267.9832 77.675 267.9832 76.8926 267.2008 75.9985 267.089 75.4396 267.8714 73.9866 266.9772 73.316 265.9713 72.0865 265.1889 70.7452 264.7418 68.8451 264.7418 68.5098 264.9653 67.2803 266.3066 66.6097 266.7537 65.7155 267.6479 63.7036 268.4303 62.6977 269.6597 61.6917 271.4481 61.4682 271.6716 60.3505 271.4481 59.5681 271.2245 57.1091 269.4362 56.5503 269.1009 55.5443 268.8773 54.8737 268.2067 52.5265 267.2008 51.9677 267.5361 50.0675 267.3125 49.2851 267.5361 49.0616 268.2067 49.2851 268.3185 49.1734 268.4303 49.6205 268.7656 49.2851 269.1009 48.9498 269.2127 48.5028 269.6597 47.2733 269.3244 46.4909 269.4362 45.8202 269.6597 45.4849 269.8833 44.9261 269.995 44.3672 269.6597 44.0319 269.6597 44.9261 268.9891 45.0378 268.542 44.9261 268.542 45.1496 268.0949 45.0378 267.6479 44.8143 267.5361 44.479 267.5361 44.3672 267.5361 44.0319 267.3125 43.6966 267.3125 42.8024 267.3125 41.6847 267.4243 41.3494 267.5361 41.2376 267.5361 41.1259 267.4243 40.6788 267.4243 40.567 267.3125 40.2317 267.6479 40.3435 267.8714 40.2317 267.7596 40.1199 267.8714 40.1199 268.0949 39.8964 267.9832 39.8964 268.2067 39.6728 268.4303 39.4493 268.8773 38.8904 268.9891 38.4433 268.9891 37.8845 268.7656 37.3256 268.9891 37.2139 268.7656 37.1021 268.0949 36.655 267.8714 36.2079 267.8714 35.9844 267.6479 35.5373 267.6479 34.9784 267.4243 34.196 267.8714 33.6372 268.3185 33.3019 269.2127 33.6372 269.7715 33.1901 270.5539 33.9725 271.3363 34.0843 272.2305 34.196 272.7893 34.3078 274.2424 34.8667 276.7013 35.0902 276.9249 35.202 277.9308 35.7608 279.9427 36.2079 280.3898 36.8785 280.8369 36.7668 281.0604 35.7608 280.8369 35.3138 280.5015 34.7549 280.278 34.0843 279.4956 33.5254 276.9249 32.9666 276.366 32.4077 274.2424 31.7371 273.6835 31.6253 273.6835 31.5135 273.3482 31.1782 273.1246 30.3958 273.0129 30.0605 272.7893 29.837 272.9011 29.5017 272.454 29.3899 272.5658 29.5017 272.454 29.3899 272.5658 29.1663 272.2305 28.6075 272.1187 28.2722 272.0069 27.9369 271.2245 27.8251 271.2245 27.378 269.4362 26.5956 268.3185 26.0367 268.3185 25.4779 267.9832 24.4719 267.8714 23.8013 267.4243 23.5778 267.089 23.2425 266.9772 23.6895 264.1829 22.4601 263.0652 22.2365 262.6182 22.2365 262.1711 21.5659 260.9416 21.4541 260.6063 22.4601 258.3708 23.1307 256.1354 23.5778 254.2353 23.6895 253.0058 23.0189 250.3233 22.5718 249.4292 21.7894 249.0938 21.5659 248.535 21.9012 246.2996 21.6777 245.7407 21.2306 245.2936 20.6717 244.3994 20.2246 243.2817 20.0011 242.164 19.4422 241.3816 19.3305 240.4875 19.6658 239.3697 19.6658 236.2402 20.3364 232.887 21.3424 229.0868 21.1188 227.0749 21.4541 223.1629 21.7894 221.151 22.4601 219.2509 23.1307 217.7979 24.3602 215.4507 27.4898 210.6446 29.9487 206.0619 30.3958 204.8325 30.7311 202.7088 30.5076 201.4793 30.1723 200.9205 29.5017 200.5851 28.9428 200.8087 28.6075 201.2558 28.3839 201.144 28.1604 200.3616 28.2722 199.3557 28.6075 199.1321 29.1663 199.9145 29.2781 199.3557 29.7252 198.9086 29.6134 197.9026 29.9487 197.0085 30.6194 196.4496 31.4018 193.9906 31.6253 192.7612 32.0724 189.2963 32.9666 187.2844 34.196 183.0371 35.0902 181.137 36.5432 176.6661 36.4315 174.2072 34.5314 169.6245 33.749 168.395 33.749 167.3891 33.6372 167.2773 33.5254 167.5009 33.5254 167.0538 33.6372 166.942 33.749 167.2773 33.8607 167.0538 34.0843 165.8243 34.4196 166.1596 34.3078 166.6067 34.4196 166.7185 34.3078 167.0538 34.6431 166.6067 34.5314 165.9361 34.3078 165.7125 34.0843 165.8243 34.3078 164.9301 34.196 164.7066 34.6431 165.1537 34.9784 166.4949 35.4255 167.0538 36.0961 167.6127 35.9844 167.7244 36.3197 168.395 36.655 168.8421 36.8785 168.5068 36.8785 168.1715 36.655 168.1715 36.8785 168.1715 37.3256 168.8421 37.6609 170.1834 37.3256 172.1953 37.3256 172.6424 37.4374 172.9777 37.8845 173.2012 37.8845 173.6483 37.9963 173.5365 38.108 173.7601 38.3316 173.8718 38.108 173.9836 38.108 174.0954 38.3316 174.0954 38.7787 174.5425 38.5551 174.8778 38.7787 175.3249 38.8904 175.5484 39.2257 175.3249 39.4493 175.5484 39.2257 176.1073 39.4493 175.9955 39.5611 175.7719 39.5611 175.9955 39.6728 176.1073 39.6728 176.219 39.3375 176.219 39.2257 176.4426 39.4493 176.4426 39.3375 176.5543 39.4493 177.1132 39.7846 177.0014 39.7846 177.225 39.8964 177.225 39.8964 177.3367 39.7846 177.4485 40.0081 177.6721 39.8964 177.8956 40.1199 178.0074 40.0081 178.5662 40.1199 178.5662 40.2317 178.2309 40.1199 179.3486 40.3435 180.0193 40.3435 180.5781 41.3494 184.3783 41.5729 184.7136 41.6847 185.8314 42.2436 186.9491 42.9142 189.2963 43.026 190.6375 43.2495 190.7493 43.026 190.7493 43.1377 190.8611 43.026 191.5317 43.1377 192.0905 43.026 192.3141 43.026 192.4259 43.026 193.2083 42.8024 193.8789 42.6906 193.9906 42.6906 193.8789 42.4671 194.326 42.5789 194.4377 42.6906 194.1024 42.6906 194.5495 42.02 195.3319 41.9083 195.2201 41.3494 195.5554 40.7905 195.6672 39.2257 196.3378 40.2317 195.6672 40.0081 195.6672 39.7846 195.4437 41.0141 193.9906 40.6788 194.1024 41.0141 193.7671 40.567 193.8789 40.567 193.9906 40.3435 193.9906 41.2376 193.32 41.1259 193.0965 41.0141 193.2083 41.1259 192.7612 41.0141 192.0905 41.0141 191.5317 40.9023 191.5317 40.9023 191.4199 40.7905 191.5317 40.6788 191.3081 40.567 191.6435 40.3435 191.4199 40.2317 191.5317 40.3435 191.6435 40.1199 191.6435 40.2317 191.9788 40.4552 191.9788 40.4552 191.867 40.567 192.0905 40.2317 192.5376 40.3435 192.8729 40.2317 192.7612 40.1199 193.0965 40.1199 192.8729 40.0081 192.8729 39.8964 193.0965 40.1199 193.32 39.7846 193.2083 40.0081 192.8729 39.7846 192.8729 39.6728 192.5376 39.6728 192.7612 39.5611 192.5376 39.2257 193.0965 39.3375 193.2083 39.2257 193.5436 39.4493 193.0965 39.3375 193.4318 39.3375 193.6553 39.2257 193.7671 39.114 193.32 39.0022 193.6553 38.3316 194.5495 38.3316 195.1084 38.108 195.4437 38.3316 197.0085 39.2257 199.0204 39.5611 199.3557 39.4493 199.4674 39.6728 199.4674 40.2317 200.2498 40.7905 200.3616 40.7905 200.4734 41.2376 200.2498 41.3494 200.3616 41.1259 200.5851 41.2376 200.5851 41.2376 200.6969 41.3494 200.6969 41.4612 200.9205 41.5729 200.8087 41.5729 201.0322 42.2436 200.8087 42.02 200.9205 42.1318 201.144 42.5789 201.144 42.6906 201.2558 43.026 201.2558 43.5848 201.0322 43.5848 201.2558 43.473 201.4793 43.9201 201.2558 43.9201 201.4793 44.1437 201.4793 44.2554 201.2558 44.3672 201.4793 44.479 201.3675 44.479 201.4793 45.0378 201.4793 45.4849 201.7029 45.7085 201.5911 45.8202 201.8146 46.1556 201.8146 46.2673 201.7029 46.1556 201.5911 46.3791 201.5911 47.385 201.8146 47.9439 201.4793 48.0557 201.5911 48.391 201.4793 48.5028 201.3675 48.6145 201.4793 48.5028 201.5911 48.5028 201.4793 48.391 201.5911 48.2792 201.4793 48.0557 201.7029 48.0557 201.8146 48.1674 201.7029 48.2792 201.8146 48.5028 201.7029 48.5028 201.5911 48.6145 201.7029 48.7263 201.4793 48.8381 201.4793 48.8381 201.2558 49.0616 201.5911 49.2851 201.4793 49.2851 201.5911 49.5087 201.5911 49.844 201.3675 49.9558 201.4793 50.0675 201.3675 50.5146 201.2558 50.4029 201.3675 50.5146 201.3675 50.6264 201.144 50.7382 201.2558 50.7382 200.9205 51.0735 201.0322 51.1853 201.4793 51.6323 201.144 51.5206 201.3675 51.7441 201.144 52.303 201.3675 52.5265 201.0322 52.7501 201.0322 52.6383 201.144 53.0854 201.144 53.1971 201.0322 53.0854 200.9205 52.9736 201.0322 52.8618 201.0322 53.1971 200.8087 53.4207 200.9205 53.3089 200.8087 53.3089 200.6969 53.6442 200.8087 53.3089 200.9205 53.5325 200.9205 54.2031 200.5851 54.3149 200.5851 54.4266 200.3616 54.2031 200.3616 54.5384 200.1381 54.5384 200.2498 54.7619 199.9145 55.209 200.0263 55.0972 199.8028 54.9855 199.9145 55.0972 199.8028 55.3208 199.9145 55.3208 200.0263 55.4326 199.8028 55.5443 200.0263 55.4326 200.2498 55.4326 200.4734 55.6561 200.3616 55.6561 201.0322 55.7679 201.0322 55.7679 201.3675 56.1032 201.5911 56.3267 201.5911 57.3327 201.2558 57.7798 200.8087 57.8915 200.9205 58.2268 200.4734 58.6739 200.3616 59.0092 199.4674 59.5681 199.5792 59.9034 199.8028 61.0211 199.2439 61.9153 198.1262 61.9153 197.6791 62.2506 197.5673 62.8095 197.3438 64.2625 197.4556 64.7096 197.1202 65.6037 197.0085 65.9391 196.6732 66.1626 196.3378 66.0508 195.779 66.4979 195.8908 66.4979 195.779 66.7215 195.8908 66.945 196.2261 67.0568 196.2261 67.3921 196.4496 67.5039 196.7849 67.9509 196.6732 68.0627 196.5614 68.1745 196.6732 68.2862 197.232 68.0627 197.4556 68.1745 198.0144 68.6216 198.685 68.8451 198.4615 69.0686 198.5733 69.9628 198.3497 70.1864 197.6791 70.4099 197.5673 70.5217 197.9026 70.7452 197.9026 70.7452 198.0144 71.0805 198.3497 71.4158 198.3497 71.6394 198.0144 71.8629 198.238 71.6394 198.4615 71.8629 199.2439 72.31 199.5792 72.7571 199.691 73.0924 199.691 73.316 199.4674 73.6513 199.5792 74.4337 198.9086 74.4337 198.4615 74.6572 198.7968 74.769 198.685 74.769 198.5733 74.8807 198.685 75.1043 198.5733 75.3278 198.685 75.6631 198.685 75.7749 198.3497 75.8867 198.5733 76.222 198.3497 77.0044 198.685 78.0103 198.685 79.3516 198.1262 80.4693 197.3438 81.3635 196.3378 82.1459 195.1084 82.2576 194.2142 81.9223 192.9847 81.8106 192.7612 81.587 192.7612 81.587 192.5376 81.2517 192.3141 81.6988 192.4259 81.9223 192.2023 82.3694 190.8611 82.3694 190.7493 81.8106 190.414 82.2576 190.414 82.2576 190.5257 82.4812 190.3022 82.9283 188.9609 83.8224 187.2844 83.9342 186.6138 83.7107 186.1667 83.1518 185.496 82.9283 185.496 83.2636 185.1607 83.04 184.4901 83.1518 184.3783 83.7107 185.049 84.4931 185.1607 84.8284 185.496 85.2755 185.6078 85.2755 185.1607 85.499 185.3843 85.2755 185.7196 85.3872 185.8314 85.0519 186.502 85.2755 187.5079 85.0519 187.2844 84.9402 188.6256 85.1637 189.6316 85.2755 189.7433 85.2755 190.0787 85.3872 190.414 85.8343 190.6375 85.6108 190.7493 86.1696 190.8611 86.2814 191.0846 85.9461 191.0846 86.1696 191.1964 85.8343 191.4199 86.505 192.6494 86.8403 192.4259 87.0638 192.5376 86.7285 192.6494 86.8403 192.7612 86.3932 193.2083 86.3932 194.4377 87.5109 197.4556 88.4051 199.3557 88.7404 199.691 88.4051 200.0263 88.5168 200.6969 89.0757 201.3675 88.9639 201.5911 89.2992 202.2617 89.8581 203.0441 89.7463 203.3794 90.3052 203.7147 91.1993 204.0501 90.4169 204.2736 90.3052 204.6089 89.7463 206.3972 89.7463 207.1796 89.8581 207.8503 90.4169 209.0798 91.0876 210.0857 91.6464 210.421 92.3171 210.1975 92.9877 210.421 94.1054 210.3092 94.4407 209.9739 94.9996 209.9739 95.1113 209.6386 96.1173 209.6386 96.229 209.5268 97.3468 209.6386 97.4585 209.6386 97.7938 209.8622 98.0174 209.8622 97.9056 209.7504 98.3527 210.0857 98.9116 209.9739 99.1351 210.0857 99.5822 210.1975 100.141 209.9739 100.4763 209.6386 100.8117 209.7504 101.2587 209.4151 101.5941 209.3033 101.7058 208.968 101.5941 208.4091 101.7058 208.2974 101.9294 208.6327 102.0411 208.5209 102.1529 208.2974 101.9294 208.1856 102.3765 207.8503 102.4882 207.962 103.0471 208.0738 103.7177 207.962 104.5001 207.8503 104.7237 207.6267 105.059 207.6267 105.3943 207.4032 105.2825 207.1796 106.1767 207.2914 106.9591 206.9561 107.6297 205.9502 108.0768 204.4971 108.4121 205.6149 109.1945 205.9502 111.0946 205.6149 113.4418 205.6149 115.3419 205.2795 115.789 205.056 116.7949 204.0501 117.3538 203.0441 117.8009 202.7088 117.9127 201.8146 117.5773 201.4793 115.4537 201.2558 115.3419 201.144 117.0185 201.0322 118.5833 200.3616 118.4715 200.3616 118.5833 200.2498 119.2539 200.1381 119.5892 200.2498 119.3657 200.3616 119.701 200.4734 119.1421 201.3675 119.2539 202.2617 119.701 203.0441 119.3657 203.4912 119.4774 204.0501 120.2598 204.2736 120.7069 204.6089 122.2717 204.9442 123.613 204.8325 124.1718 204.4971 125.7366 204.0501 126.7426 204.2736 126.9661 204.4971 127.7485 204.7207 129.9839 204.8325 134.6783 204.7207 137.1373 204.3854 137.4726 204.6089 138.8139 204.2736 139.0374 204.3854 140.1551 204.2736 140.6022 204.0501 141.1611 204.1618 141.7199 203.8265 143.3965 203.7147 143.7318 203.4912 146.3025 203.2677 147.532 202.9323 149.3204 202.0382 149.6557 201.5911 151.2205 198.7968 151.5558 198.685 151.444 198.9086 151.6675 198.685 151.7793 198.238 152.3382 198.238 153.1206 199.5792 153.3441 199.5792 153.903 199.3557 154.1265 198.9086 154.0147 198.685 154.2383 198.4615 154.0147 198.3497 154.1265 197.6791 154.5736 197.3438 154.1265 197.1202 153.903 196.2261 153.4559 195.5554 152.6735 194.9966 151.6675 194.8848 145.8554 195.5554 144.8495 195.5554 140.9375 196.0025 139.8198 196.6732 137.6961 197.4556 134.5666 200.0263 135.349 199.2439 135.2372 198.9086 135.0136 198.7968 133.6724 198.7968 135.5725 198.1262 135.796 197.9026 136.3549 197.7909 136.3549 197.3438 136.2431 197.1202 136.5784 196.5614 137.2491 196.0025 137.8079 195.779 138.255 195.779 138.5903 195.4437 138.4785 195.3319 138.255 195.5554 137.9197 195.4437 137.8079 195.2201 137.8079 194.9966 137.6961 194.5495 138.1432 193.7671 138.1432 193.4318 137.9197 193.2083 137.1373 192.8729 137.0255 192.6494 136.3549 192.3141 135.2372 191.4199 133.8959 189.1845 134.0077 188.7374 133.8959 188.2903 134.7901 188.0668 135.1254 187.6197 135.349 187.6197 135.796 187.1726 135.796 186.8373 135.5725 186.6138 136.1314 186.1667 135.9078 185.9431 136.1314 185.8314 136.1314 184.7136 136.4667 184.4901 137.2491 184.6019 137.5844 184.9372 138.4785 186.502 139.3727 187.2844 140.2669 188.6256 142.2788 191.867 143.2847 192.8729 144.2906 193.6553 145.4084 193.8789 146.9732 193.7671 149.3204 193.4318 152.2264 192.7612 154.7971 192.6494 156.0266 192.3141 157.0326 191.6435 158.0385 190.7493 161.5034 187.3961 162.174 186.502 163.0682 185.9431 164.7448 184.4901 166.6449 181.2487 167.3155 179.7957 168.0979 177.8956 167.9861 177.6721 167.5391 177.0014 167.5391 176.7779 167.3155 175.8837 166.8684 175.3249 166.7567 174.0954 166.4213 173.6483 166.3096 172.9777 165.9743 172.5306 165.9743 172.4188 164.5212 170.7422 164.0741 170.4069 163.9624 169.9598 162.3976 169.0657 162.2858 168.8421 162.8447 168.9539 162.9564 168.6186 162.8447 168.2833 162.5094 168.2833 162.5094 168.0597 162.9564 168.2833 163.4035 168.1715 163.4035 168.2833 163.7388 168.5068 163.8506 169.0657 163.9624 169.1774 164.1859 169.0657 164.4095 169.2892 164.633 169.2892 164.8565 169.5128 165.5272 169.7363 166.4213 170.4069 166.7567 170.4069 167.5391 171.1893 167.8744 171.7482 168.2097 172.1953 168.4332 172.1953 168.7685 171.6364 168.9921 169.9598 168.8803 169.7363 168.3215 169.2892 167.5391 169.1774 167.3155 168.5068 166.5331 167.948 166.086 167.8362 165.5272 167.1656 165.6389 166.8303 166.086 166.8303 166.5331 166.3832 166.8684 165.3772 166.7567 165.1537 165.6389 164.2595 165.3036 163.03 164.0741 161.1299 163.7388 160.7946 159.8268 159.2298 159.3798 158.4474 159.268 157.8886 159.3798 157.8886 159.268 157.5532 159.1562 157.5532 158.8209 156.9944 158.4856 156.4355 157.4796 155.9884 156.809 155.5414 156.2502 155.3178 156.3619 155.2061 155.5795 155.0943 155.1325 154.759 155.1325 154.6472 154.9089 154.0883 153.6794 152.9706 153.6794 152.8589 153.5677 152.4118 153.0088 151.7411 151.3322 150.5117 151.3322 150.6234 151.2205 150.5117 151.1087 150.1763 150.9969 150.2881 150.5498 149.9528 150.5498 149.6175 150.7734 149.5057 150.8851 149.2822 150.8851 148.7233 149.8792 147.4938 148.985 147.0468 148.7615 146.4879 147.4202 145.929 146.9732 145.2584 146.6378 145.1466 146.079 144.6996 145.4084 144.5878 145.4084 144.476 145.1848 144.476 144.8495 144.0289 144.4024 143.9172 144.1789 143.3583 143.7318 143.1348 142.9494 142.7994 142.3905 142.7994 142.3905 142.6877 142.2788 142.6877 141.8317 142.2406 141.3846 142.2406 140.8257 141.6817 140.714 141.7935 140.714 141.57 139.3727 141.3464 138.1432 140.6758 137.6961 140.6758 137.3608 141.0111 137.3608 140.7876 137.2491 140.8993 137.0255 140.7876 136.6902 141.1229 136.4667 141.0111 134.0077 139.7816 133.3371 139.3345 133.2253 139.111 133.1135 139.2228 133.2253 138.9992 133.0018 138.9992 133.0018 138.7757 132.7782 138.8875 132.7782 138.7757 132.5547 138.7757 132.5547 138.5521 132.4429 138.5521 132.2194 138.3286 132.1076 138.4404 132.1076 138.3286 131.884 138.3286 132.1076 138.2168 131.9958 138.1051 131.884 138.2168 131.7723 137.8815 131.5487 137.8815 131.5487 137.658 130.6546 136.7638 130.0957 136.4285 128.4191 134.6402 127.8603 134.4166 127.3014 133.746 127.1897 133.746 127.0779 133.5224 126.6308 133.2989 125.066 131.5106 124.5072 131.287 124.0601 130.7282 123.2777 129.9458 123.3894 129.6105 123.0541 129.6105 122.0482 128.2692 122.2717 128.8281 121.9364 128.381 121.4893 128.1574 120.3716 128.1574 120.2598 127.9339 119.701 127.8221 119.701 127.7103 119.3657 127.8221 119.4774 127.7103 119.2539 127.5986 119.2539 127.8221 118.3597 128.381 118.1362 128.381 118.248 128.2692 118.1362 128.381 118.0244 128.1574 117.9127 127.9339 118.0244 127.8221 117.9127 127.8221 118.248 127.5986 118.4715 127.7103 118.695 127.4868 118.695 127.0397 118.5833 126.9279 118.8068 127.0397 119.0304 127.375 119.1421 126.9279 119.0304 126.8162 119.1421 126.2573 119.0304 126.1455 119.1421 126.1455 119.0304 126.0338 118.9186 125.3631 118.5833 125.3631 118.8068 125.2514 118.695 124.8043 118.4715 124.8043 118.3597 124.2454 118.1362 124.2454 118.0244 124.1337 117.6891 124.0219 117.8009 123.5748 117.1303 122.7924 116.6832 122.3453 116.4596 122.1218 116.6832 122.2336 116.5714 122.01 115.789 121.6747 115.6772 121.0041 114.5595 119.6628 114.7831 119.6628 114.6713 119.551 114.4477 119.4393 114.0007 118.8804 113.7771 118.9922 113.8889 118.4333 113.7771 118.098 113.8889 117.7627 113.7771 117.4274 113.6653 117.4274 113.6653 116.4215 113.4418 116.0861 113.2183 115.7508 113.1065 115.6391 113.2183 114.9684 113.1065 114.6331 112.9947 114.7449 113.2183 114.5213 113.2183 113.6272 113.1065 113.4036 112.8829 113.2919 112.9947 112.5095 113.2183 111.7271 113.2183 110.9447 113.33 110.8329 113.6653 108.5975 113.33 108.0386 113.33 107.0327 113.2183 106.5856 113.33 106.2503 113.2183 105.4679 113.2183 105.1326 112.9947 105.0208 113.1065 104.1266 112.9947 103.1207 113.1065 103.0089 112.8829 102.2265 112.9947 102.1147 112.8829 101.4441 112.9947 101.3323 112.7712 100.2146 112.4359 99.7675 112.5476 99.544 112.4359 99.0969 112.4359 98.4263 112.1006 97.5321 112.2123 97.3086 111.9888 96.638 111.0946 95.2967 110.0887 94.8496 110.0887 94.0672 109.7534 93.2848 109.5298 93.173 109.6416 93.173 109.418 92.726 108.5239 91.6083 107.8532 91.1612 107.965 90.6023 107.8532 90.1552 107.6297 89.9317 107.6297 89.5964 106.8473 88.7022 106.2884 88.4787 105.9531 88.0316 105.1707 87.6963 104.9472 87.6963 104.9472 87.808 104.7237 87.6963 104.6119 87.4727 104.7237 87.3609 104.5001 87.1374 104.3883 86.8021 104.5001 86.6903 104.1648 86.0197 104.3883 85.7961 104.2766 85.5726 104.3883 85.3491 104.3883 85.0138 104.5001 84.6784 104.5001 83.7843 104.7237 83.5607 104.7237 83.2254 104.8354 83.1136 105.059 82.2195 105.3943 81.3253 105.3943 79.4252 105.7296 78.7546 105.7296 78.3075 106.0649 78.1957 106.1767 77.6369 106.1767 76.6309 106.2884 75.9603 106.0649 75.4014 106.1767 75.2897 106.1767 74.7308 105.7296 72.9425 105.3943 72.3836 105.3943 71.4894 104.2766 69.7011 103.2706 68.4716 102.0411 67.4657 100.5881 66.6833 98.4645 65.9009 97.9056 65.7891 97.5703 65.9009 97.4585 65.6773 97.1232 65.5656 95.782 65.5656 95.4466 65.342 94.4407 65.342 92.5406 65.342 91.87 64.5596 91.0876 64.2243 89.9699 64.1125 88.8521 64.2243 87.5109 64.8949 87.2873 64.6714 86.8403 64.8949 85.7226 64.5596 84.3813 64.6714 84.3813 64.5596 83.8224 64.5596 81.9223 64.8949 81.587 64.8949 81.3635 64.7832 80.8046 64.8949 80.5811 64.6714 79.6869 64.8949 79.4634 64.7832 78.4574 65.1185 78.2339 65.342 77.1162 65.5656 76.6691 65.5656 75.3278 65.9009 74.2101 65.6773 73.316 65.7891 72.6453 65.7891 70.1864 66.2362 69.9628 66.4597 69.7393 66.348 69.7393 66.2362 69.6275 66.2362 69.1804 66.1244 67.7274 66.2362 66.2744 66.795 66.0508 67.1304 65.8273 67.1304 64.5978 67.6892 63.3683 68.0245 63.2565 68.1363 63.3683 68.1363 63.3683 68.2481 63.2565 68.1363 63.2565 68.2481 63.1448 68.2481 62.6977 68.2481 62.5859 68.4716 61.8035 68.9187 61.3564 68.8069 60.574 69.254 60.3505 69.3658 60.2387 69.254 59.7916 69.1422 58.7857 69.3658 56.5503 68.4716 53.3089 67.6892 51.7441 67.9128 51.1853 68.1363 50.8499 68.5834 50.5146 68.4716 49.6205 68.8069 48.5028 69.3658 46.6026 70.9306 46.0438 71.4894 45.2614 72.8307 44.8143 72.8307 44.7025 73.166 43.473 74.0602 43.2495 74.5073 43.026 74.5073 41.9083 75.625 41.7965 75.5132 41.5729 75.7367 40.9023 76.0721 39.7846 77.1898 38.8904 77.6369 38.8904 77.8604 38.4433 78.4193 38.2198 78.4193 36.9903 80.3194 35.8726 81.6606 35.202 82.8901 34.7549 83.896 34.5314 84.1196 34.196 85.0138 32.8548 87.2492 32.6312 87.808 32.5195 87.808 32.1842 88.4787 31.8488 88.814 31.8488 89.0375 31.4018 89.4846 31.1782 90.3788 30.3958 91.3847 30.1723 91.4965 28.7193 93.9554 25.8132 99.6558 24.4719 100.7735 23.5778 101.8912 22.3483 103.1207 21.6777 103.7913 21.4541 104.909 21.6777 105.8032 21.6777 106.4738 22.013 107.9268 22.2365 108.3739 22.5718 108.4857 22.7954 109.0446 23.2425 109.4916 23.466 109.827 23.2425 110.274 23.3542 110.8329 22.5718 111.5035 22.013 112.9565 21.007 113.6272 20.7835 113.6272 21.007 113.7389 20.6717 113.8507 20.56 114.2978 21.2306 114.5213 20.56 114.2978 20.4482 114.9684 20.7835 116.0861 21.1188 115.9744 21.2306 116.1979 21.5659 116.0861 21.3424 116.3097 21.5659 116.645 21.4541 116.645 21.1188 116.5332 21.2306 116.645 21.9012 116.8685 23.9131 116.7568 24.1366 116.8685 24.2484 117.0921 24.919 117.0921 25.1426 116.9803 25.0308 116.8685 25.4779 116.645 25.4779 116.5332 25.5897 116.4215 25.5897 116.5332 25.7014 116.5332 25.8132 116.4215 25.7014 116.4215 25.5897 116.4215 25.7014 116.4215 25.8132 116.3097 25.925 116.4215 26.5956 115.6391 27.2662 115.3037 27.2662 115.192 27.378 115.192 27.6015 114.5213 27.4898 113.9625 27.378 113.9625 27.6015 113.9625 27.6015 113.6272 27.8251 113.2919 27.7133 113.2919 27.7133 112.6212 28.3839 110.8329 28.7193 110.3858 29.5017 110.0505 29.9487 109.9387 31.5135 110.274 32.0724 110.7211 32.0724 110.8329 31.0664 111.28 30.3958 112.9565 30.284 113.8507 30.5076 114.0743 30.3958 114.186 30.7311 115.3037 30.8429 116.3097 30.6194 116.9803 30.8429 118.4333 30.5076 119.4393 29.1663 124.8043 26.9309 133.9695 26.3721 136.9873 26.3721 139.2228 26.7074 141.4582 27.8251 143.6936 28.831 146.935 29.6134 151.6294 30.284 154.3119 31.1782 160.124 31.4018 162.4712 31.8488 163.3653 31.9606 163.1418 32.0724 163.3653 32.1842 163.2536 32.1842 163.4771 32.2959 163.5889 32.4077 163.3653 32.743 163.4771 33.5254 163.9242 33.8607 164.036 33.8607 164.8184 33.6372 165.6008 33.749 166.2714 33.1901 167.2773 33.0783 168.0597 33.749 168.9539 34.196 169.1774 34.196 169.6245 33.8607 169.9598 33.4136 169.9598 32.8548 169.401 32.743 169.1774 32.0724 168.2833 30.1723 166.6067 29.5017 165.8243 29.2781 163.9242 29.3899 163.1418 29.3899 161.8006 29.5017 161.0182 29.9487 160.124 29.9487 158.8945 29.837 157.4415 29.5017 155.6531 27.7133 150.7352 27.6015 148.388 27.2662 146.2644 26.3721 143.4701 25.8132 142.2406 25.2543 141.57 24.2484 137.9933 23.2425 136.4285 22.5718 135.6461 22.2365 135.5343 22.013 135.7579 21.9012 135.7579 21.6777 134.9755 21.1188 135.3108 20.56 134.7519 20.7835 134.1931 20.7835 133.746 19.554 131.6223 16.5362 129.3869 15.7538 128.4927 13.6301 126.4809 10.5006 125.0278 10.277 124.8043 10.277 124.469 9.9417 124.2454 9.8299 123.6866 9.3828 123.3513 8.7122 123.1277 8.4887 123.1277 8.3769 122.9042 8.7122 122.4571 10.7241 117.8745 11.3947 115.192 11.8418 113.2919 11.5065 112.3977 11.0594 111.8388 11.0594 110.274 10.8359 108.9328 9.9417 107.9268 8.824 107.368 7.818 107.1444 7.1474 106.1385 5.5826 104.5737 4.8002 104.0149 3.459 103.456 2.7883 103.6795 1.4471 102.5618 1 101.6677 4.2414 98.2028 5.0238 97.5321 5.4708 97.1968 5.5826 97.085 5.9179 96.7497 7.0356 95.8556 7.7063 95.4085 7.818 95.1849 7.9298 95.1849 9.7182 93.6201 13.4066 90.4905 13.7419 90.1552 14.9714 88.814 15.5303 88.2551 15.8656 88.0316 16.4244 87.4727 17.095 86.8021 17.9892 86.0197 18.7716 85.3491 18.9952 85.1255 19.1069 85.0138 20.56 83.896 22.9072 81.8842 23.8013 81.2135 24.5837 80.4311 26.1485 78.8663 26.4838 78.6428 26.5956 78.531 26.5956 78.4193 26.7074 78.4193 26.8191 78.3075 28.0486 77.078 29.5017 75.625 30.5076 74.7308 31.4018 74.0602 33.0783 72.6072 34.196 71.6012 34.4196 71.3777 34.8667 71.0424 37.3256 68.9187 37.4374 68.8069 40.1199 66.9068 40.4552 66.6833 80.9164 51.0353 85.9461 49.9176 87.5109 49.6941 89.9699 49.3587 90.0816 49.3587 90.3052 49.3587 92.5406 48.9117 95.3349 48.4646 95.782 48.3528 96.3408 48.3528 96.5644 48.3528 102.3765 47.2351 103.2706 47.2351 103.8295 47.2351 105.059 46.8998 105.7296 46.788 106.0649 46.6762 106.1767 46.6762 106.2884 46.6762 107.4062 46.5645 108.3003 46.4527 108.6356 46.4527 111.2064 46.3409 111.4299 46.3409 111.5417 46.3409 112.9947 46.1174 113.6653 46.0056 114.0007 46.0056 114.7831 46.0056 115.0066 46.0056 115.789 46.0056 116.9067 45.8938 117.0185 45.8938 117.3538 45.8938 119.2539 46.0056 121.8246 45.7821 123.5012 45.7821 125.066 45.8938 126.2955 46.2292 126.2955 46.3409 128.4191 47.2351 128.5309 47.2351 128.5309 47.3469 130.5428 48.4646 132.1076 49.3587 132.6664 49.8058 134.1195 50.8118 134.9019 51.2589 136.5784 52.6001 137.4726 53.0472 137.5844 53.159 138.0315 53.3825 138.1432 53.3825 138.255 53.4943 140.2669 54.8355 140.714 55.1708 141.1611 55.5062 143.8436 57.1827 143.9553 57.2945 144.0671 57.2945 144.8495 57.8534 146.079 58.7475 147.3085 59.7535 148.2026 60.5359 150.5498 62.1007 153.0088 63.7772 153.4559 64.0008 153.6794 64.1125 153.7912 64.1125 153.903 64.1125 155.6913 65.5656 156.1384 65.7891 156.4737 66.0127 158.7091 67.6892 159.0444 68.0245 161.3916 69.8129 164.5212 71.713 164.8565 71.9365 167.2037 73.7249 169.998 77.078 173.5747 80.8782 176.7043 84.4549 177.9338 85.6844 179.6103 87.808 179.4986 90.3788 179.275 92.5024 179.3868 93.8437 179.275 94.0672 179.275 94.4025 179.3868 94.5143 179.3868 95.1849 179.3868 95.2967 179.6103 96.0791 180.3927 97.1968 180.6163 97.6439 180.7281 97.8674 181.3987 98.4263 182.8517 99.8793 182.9635 99.8793 182.9635 99.9911 183.0752 99.9911 185.3107 103.456 186.3166 105.3561 187.6579 107.5915 190.7875 114.2978 191.2345 116.0861 191.5699 116.645 192.7993 117.8745 193.1347 118.3216 193.3582 119.3275 194.1406 120.6688 195.1465 122.3453 196.376 124.2454 198.0526 127.1515 198.1644 127.375 198.3879 127.5986 198.4997 127.9339 199.0585 128.8281 199.9527 130.2811 201.6293 132.74 202.0763 133.2989 202.1881 133.5224 203.1941 134.6402 203.3058 134.7519 204.5353 135.8696 204.6471 135.9814 205.8766 136.8756 207.3296 137.9933 208.4473 139.3345 209.7886 140.7876 210.4592 141.9053 211.1298 142.9112 211.2416 143.023 211.2416 143.1348 211.9122 144.0289 212.024 144.1407 212.1358 144.1407 212.3593 144.3642 212.5828 144.476 212.5828 145.0349 212.2475 145.3702 212.2475 145.7055 212.5828 146.3761 213.3652 146.1526 213.7006 146.3761 213.7006 146.5997 213.5888 147.2703 213.7006 147.6056 214.0359 147.4938 214.3712 146.2644 214.4829 146.2644 214.93 146.5997 215.0418 146.8232 215.2653 146.935 215.1536 147.7174 214.93 148.0527 215.1536 148.6116 215.4889 148.8351 216.1595 148.388 216.7184 148.388 217.0537 148.6116 217.389 149.3939 218.0596 149.5057 218.6185 150.2881 219.2891 149.841 219.4009 149.841 219.848 150.1763 220.5186 150.3999 221.301 150.5117 221.4128 150.5117 221.4128 150.3999 222.1952 150.1763 222.754 149.5057 222.754 147.6056 222.8658 147.3821 222.9776 147.2703 223.3129 147.2703 223.5364 147.2703 223.6482 147.3821 223.9835 147.4938 224.0953 147.6056 224.207 147.7174 224.4306 148.0527 224.6541 148.6116 224.7659 148.7233 224.7659 148.8351 225.3248 150.3999 225.4365 150.5117 225.5483 150.7352 225.9954 151.1823 226.1072 151.2941 226.4425 151.4058 226.666 151.2941 226.8895 151.1823 227.0013 150.9587 227.2249 150.6234 227.4484 150.0646 227.5602 149.5057 228.0073 148.6116 228.7897 148.0527 229.2367 147.7174 229.3485 147.6056 229.6838 147.6056 229.6838 147.4938 230.6898 147.2703 231.6957 147.1585 232.1428 147.0468 232.4781 146.935 233.3723 147.1585 233.484 147.4938 233.9311 147.7174 234.2664 147.3821 234.9371 147.6056 235.0488 147.6056 234.9371 147.1585 234.49 146.935 234.49 146.7114 235.1606 146.5997 235.7195 146.1526 235.8312 146.0408 235.943 146.0408 236.6136 146.0408 237.396 146.1526 237.7314 146.8232 238.1784 147.1585 239.7432 147.3821 239.9668 147.6056 240.1903 147.6056 240.7492 147.8292 240.8609 147.7174 240.9727 147.6056 241.0845 147.6056 241.1963 147.4938 241.4198 147.2703 242.0904 146.2644 242.7611 145.482 243.3199 144.6996 244.1023 144.0289 244.4376 143.8054 244.8847 143.5818 245.1083 143.5818 246.673 143.5818 247.7908 143.5818 249.3556 143.6936 253.6029 144.0289 254.0499 144.0289 254.3853 144.0289 254.3853 143.6936 256.6207 143.8054 257.7384 144.0289 263.9976 144.476 268.9155 144.5878 276.963 145.2584 279.8691 145.2584 285.0106 145.7055ZM72.1982 269.548L72.8689 269.6597 73.316 269.548 73.8748 269.548 74.6572 270.2186 74.769 270.1068 74.6572 269.8833 75.2161 269.8833 75.3278 269.995 74.9925 270.1068 75.4396 270.5539 74.769 270.8892 74.3219 270.8892 73.0924 270.1068 72.31 269.8833 72.0865 269.6597 72.1982 269.548ZM121.154 200.3616L123.1659 200.3616 124.3954 199.8028 126.2955 199.4674 127.4132 199.5792 128.4191 199.9145 127.8603 200.0263 127.3014 200.2498 127.3014 199.9145 127.6367 200.0263 127.525 199.8028 126.8543 199.5792 126.519 199.691 125.4013 200.5851 125.2895 200.9205 125.2895 202.2617 124.3954 202.4853 124.0601 203.0441 123.613 203.3794 123.5012 203.1559 123.9483 202.4853 123.9483 201.8146 124.0601 201.7029 124.0601 201.3675 123.9483 201.2558 122.9424 201.0322 121.154 200.3616Z" />
  <path class="Daşoguz Region" d="M607.3586 150.6234L607.3586 152.4118 607.2469 172.8659 553.1496 174.9895 553.1496 235.0107 568.574 237.6932 572.1507 314.9271 559.9677 317.4978 553.7085 303.4146 539.6253 306.3207 535.1545 299.5026 536.0486 266.8655 515.5945 267.089 495.9228 267.6479 470.5507 266.9772 459.7089 257.7002 443.5021 253.0058 418.5771 249.3174 402.3703 256.1354 384.1516 257.0296 369.5096 258.1473 349.9496 260.8298 340.4491 267.6479 334.9723 261.8358 332.5133 259.1532 326.7012 249.8762 329.0484 238.1403 324.0187 225.1748 320.1067 212.9917 312.0592 205.1678 308.1472 193.0965 301.1056 179.0133 289.5932 163.3653 285.0106 145.7055 294.2876 146.7114 300.0997 146.8232 310.6062 147.4938 316.9771 148.388 319.9949 148.7233 326.4777 150.0646 327.1483 149.6175 327.9307 149.6175 328.8249 149.1704 329.4955 148.388 330.0543 147.2703 330.0543 145.1466 331.5074 143.5818 334.7487 141.9053 336.3135 140.7876 337.0959 139.8934 337.3195 139.2228 337.0959 139.111 336.9842 138.3286 336.3135 137.658 334.4134 138.2168 333.1839 137.8815 332.0662 137.4344 331.0603 136.652 329.4955 134.8637 328.3778 132.9636 328.0425 131.8459 327.3718 126.9279 327.3718 123.3513 327.7072 121.4512 327.4836 120.2217 327.1483 118.4333 326.3659 116.8685 325.807 116.5332 325.807 116.1979 325.2482 115.4155 324.5776 113.8507 324.0187 111.9506 323.7952 110.1623 324.0187 106.0267 323.6834 103.6795 323.7952 102.8971 323.4598 101.7794 323.4598 97.5321 323.6834 96.3026 324.1305 94.7378 324.5776 91.4965 324.9129 90.7141 326.0306 88.5904 327.2601 87.4727 329.4955 86.355 328.6013 94.7378 328.3778 97.085 328.0425 98.091 327.4836 101.7794 327.7072 103.1207 328.6013 107.1444 329.1602 108.1504 329.6073 108.7092 330.3897 108.9328 330.6132 108.9328 330.725 108.7092 330.9485 106.0267 331.6191 101.6677 332.178 100.6617 332.7369 99.9911 333.0722 99.2087 333.2957 99.3205 333.1839 99.544 333.5193 99.544 333.631 99.8793 333.4075 100.1029 333.1839 99.7675 332.9604 99.9911 333.0722 100.3264 333.8546 100.4382 334.0781 101.1088 334.4134 101.1088 334.5252 100.6617 334.8605 100.2146 335.084 100.2146 335.084 99.9911 335.3076 99.7675 335.5311 100.1029 335.9782 99.544 335.9782 98.9851 336.2018 98.7616 336.2018 98.5381 337.0959 98.2028 337.3195 98.5381 337.0959 99.3205 337.3195 99.2087 337.3195 98.9851 337.4312 98.9851 338.2136 99.3205 338.2136 99.544 338.1019 99.8793 337.543 99.9911 337.543 100.1029 337.3195 100.2146 336.9842 99.9911 336.8724 99.7675 336.6488 99.6558 336.5371 99.9911 336.7606 101.4441 336.5371 101.6677 336.8724 102.1147 336.9842 102.003 337.4312 101.7794 337.6548 101.8912 337.6548 102.5618 337.8783 102.5618 338.2136 101.3323 338.549 101.2206 339.8902 103.0089 340.002 104.1266 340.1138 103.2325 340.3373 103.2325 341.5668 105.6914 341.7903 108.2622 341.5668 109.0446 341.6785 109.827 341.2315 113.5154 341.3432 114.6331 341.5668 114.0743 341.5668 114.186 341.455 115.5273 341.5668 116.0861 341.9021 116.3097 342.3492 116.1979 342.7963 116.3097 342.908 116.0861 343.0198 116.3097 343.4669 116.4215 343.8022 116.645 343.8022 116.9803 344.0257 116.8685 344.1375 117.2039 344.3611 116.9803 344.3611 116.3097 344.4728 116.8685 345.0317 117.3156 345.0317 116.7568 345.1435 117.5392 345.2552 117.8745 345.5905 117.7627 345.4788 117.9862 345.8141 118.5451 346.1494 118.7686 346.3729 118.6569 346.4847 117.7627 346.5965 117.7627 347.2671 118.4333 347.2671 118.9922 347.2671 119.104 346.9318 118.9922 346.82 119.3275 346.82 119.7746 347.1553 120.3334 347.6024 120.8923 348.7201 121.3394 349.5025 121.0041 350.1732 120.8923 351.2909 121.2276 351.5144 121.1158 352.185 120.557 352.2968 120.1099 352.5204 120.1099 352.8557 119.6628 353.5263 119.4393 353.6381 119.104 353.7498 119.3275 354.0851 118.8804 354.0851 118.5451 355.6499 117.0921 357.2147 117.7627 357.5501 117.6509 357.6618 117.7627 357.6618 118.4333 358.1089 118.2098 358.8913 117.9862 359.3384 118.3216 359.5619 118.3216 360.2326 117.7627 360.9032 117.5392 361.015 117.4274 361.3503 117.4274 361.5738 117.6509 361.9091 117.5392 362.5798 116.8685 362.9151 116.5332 363.1386 116.645 363.5857 116.0861 364.5916 115.3037 364.5916 114.5213 365.4858 114.7449 365.8211 115.0802 366.1564 115.6391 366.2682 116.1979 366.1564 116.9803 366.7153 117.5392 366.9388 117.6509 366.9388 117.4274 367.7212 117.6509 368.3919 117.5392 368.8389 117.2039 368.9507 116.9803 369.3978 116.7568 371.4097 114.7449 371.745 114.6331 371.8568 114.7449 372.1921 114.7449 372.6392 114.186 372.8627 113.4036 373.198 113.2919 373.198 113.0683 372.5274 113.1801 372.0803 113.4036 371.8568 113.4036 371.6332 112.8448 371.745 112.3977 371.9685 112.1741 372.5274 111.8388 375.0981 109.7152 375.8805 109.3799 375.9923 109.827 376.3276 109.827 377.3336 109.3799 378.116 109.2681 378.7866 109.2681 379.3454 109.6034 381.6926 109.3799 383.481 108.4857 385.9399 106.8091 386.1635 106.8091 386.2752 107.0327 386.387 106.8091 386.1635 106.5856 386.0517 106.1385 385.9399 104.7972 386.0517 104.2384 385.9399 103.9031 385.4928 103.2325 385.2693 102.4501 386.1635 100.2146 386.387 100.2146 386.0517 100.2146 385.9399 99.8793 386.1635 98.4263 386.387 97.8674 387.393 96.638 387.7283 95.632 387.84 95.2967 387.6165 94.179 387.1694 93.7319 386.9459 92.9495 386.6106 92.9495 386.4988 92.3906 386.1635 92.3906 385.6046 91.8318 385.4928 91.9436 384.934 91.3847 384.5987 91.3847 383.8163 90.7141 383.5927 90.7141 382.6986 89.5964 382.0279 88.4787 381.2455 88.1433 380.2396 87.2492 378.0042 86.9139 376.5512 86.5785 376.5512 86.6903 375.9923 86.5785 374.7628 86.8021 373.3098 85.6844 372.9745 84.6784 372.7509 81.9959 372.8627 81.4371 373.3098 80.7664 373.6451 80.7664 373.7569 80.4311 374.204 80.0958 375.8805 79.7605 376.2158 79.6487 376.2158 79.4252 376.4394 79.4252 376.4394 79.2017 376.6629 79.2017 376.6629 78.9781 377.2218 78.1957 377.4453 77.078 377.6689 76.7427 377.6689 76.1838 377.11 75.625 376.3276 75.4014 375.8805 75.0661 375.657 74.7308 374.8746 74.2837 374.5393 74.9543 374.651 77.8604 374.3157 77.9722 373.6451 76.9662 373.9804 76.4074 373.7569 76.0721 372.9745 75.7367 372.4156 75.8485 372.1921 76.2956 372.0803 76.9662 371.6332 77.3015 371.2979 77.078 370.7391 77.4133 370.9626 77.8604 370.7391 78.0839 370.0684 77.5251 369.8449 77.6369 370.0684 76.7427 369.6213 75.5132 369.9567 74.9543 369.9567 74.619 370.9626 73.7249 371.0744 73.2778 370.8508 72.7189 370.5155 72.6072 370.5155 72.9425 370.292 72.8307 370.292 72.6072 370.0684 72.9425 369.8449 72.9425 369.7331 72.8307 369.8449 72.6072 369.8449 72.2718 368.8389 71.8248 368.0565 70.4835 367.9448 69.254 368.0565 69.1422 368.0565 68.6952 368.5036 68.1363 368.5036 67.801 369.5096 66.4597 370.0684 66.5715 370.1802 66.348 370.4037 66.348 370.6273 66.0127 370.8508 64.3361 371.6332 64.2243 371.9685 64.4479 372.8627 64.4479 373.9804 64.2243 376.6629 62.7713 379.7925 61.6536 383.3692 61.8771 385.3811 62.2124 386.0517 62.2124 386.7223 61.9889 387.0576 61.3183 386.387 59.6417 385.2693 57.7416 385.8282 55.9532 386.0517 55.5062 387.1694 55.0591 389.5166 56.065 390.7461 56.065 391.5285 55.8415 391.9756 55.1708 392.3109 54.2767 392.6462 51.8177 392.4227 49.3587 392.758 47.6822 392.758 45.4468 393.3168 43.882 393.3168 42.9878 392.8697 41.3112 392.1991 40.1935 390.8579 38.964 390.6343 37.2875 391.8638 36.2815 392.758 35.8344 394.3228 37.511 394.7699 37.7345 395.9993 32.9284 395.8876 32.8166 396.2229 32.146 397.0053 31.2518 398.2348 30.5812 399.7996 30.3576 399.9113 30.3576 401.4761 30.3576 402.8174 30.8047 403.8233 31.9224 405.4999 34.2696 406.6176 34.9403 406.7294 34.9403 407.8471 34.9403 410.4178 33.7108 410.9767 33.7108 411.6473 33.599 413.1003 33.8226 413.2121 33.8226 420.3655 37.1757 422.7127 38.964 424.501 41.3112 424.9481 43.2113 425.2834 44.8879 425.0598 46.6762 424.7245 48.3528 424.7245 49.8058 425.3952 50.9235 425.5069 51.1471 425.6187 51.1471 426.6246 51.3706 430.9837 50.7 432.1014 51.2589 434.2251 52.4883 434.6722 51.5942 435.1193 51.0353 434.1133 50.5882 434.0015 50.3647 434.0015 49.9176 434.4486 48.7999 434.3369 47.9057 433.8898 47.3469 433.1074 47.0116 429.0836 43.7702 427.5188 42.2054 426.8482 40.6406 425.1716 38.7405 423.1597 35.4991 421.9303 32.3695 420.9243 30.693 420.2537 28.6811 419.0242 25.8868 418.3536 25.1044 416.2299 24.6573 414.6651 24.0985 411.0884 22.0866 408.853 20.41 408.5177 19.9629 408.1824 18.957 408.2942 18.3981 408.7413 17.951 408.853 18.0628 409.859 17.6157 410.4178 16.9451 411.8708 15.6039 413.2121 15.045 414.4416 14.2626 415.224 13.4802 417.2359 12.586 418.6889 12.8096 425.0598 15.3803 428.6365 16.2745 432.325 16.498 435.3428 15.6039 435.4546 15.2685 436.5723 15.1568 438.3606 15.7156 439.143 15.2685 439.5901 14.4861 440.2607 11.133 439.9254 10.4624 438.8077 9.5682 438.8077 9.3447 439.2548 8.674 439.5901 8.3387 440.596 8.3387 441.3784 8.7858 442.0491 8.8976 442.6079 8.5623 442.8315 7.6681 442.8315 7.221 441.3784 5.8798 441.2667 5.0974 441.4902 4.0914 456.244 21.5277 460.9384 25.9986 465.9681 28.234 469.2095 28.7928 471.2213 28.6811 473.1215 28.1222 473.9039 28.5693 474.0156 28.6811 478.9336 28.0105 483.5162 32.7048 484.5221 34.3814 485.1927 36.2815 485.9751 43.6584 486.9811 45.335 488.993 46.4527 492.6814 46.8998 494.358 47.4586 497.1523 50.4765 498.9406 51.2589 502.629 51.3706 505.4233 50.9235 505.5351 50.9235 506.3175 50.8118 506.541 50.7 507.8823 50.4765 508.1058 50.7 508.8882 51.7059 511.3472 50.8118 512.0178 50.1411 512.3531 50.1411 514.365 50.9235 514.2532 51.8177 515.5945 51.5942 516.7122 51.2589 519.73 51.2589 520.6242 51.5942 520.9595 51.4824 521.2948 51.5942 522.3008 52.153 524.4244 52.6001 525.095 52.9354 525.8774 52.9354 526.4363 52.3766 527.2187 50.1411 527.8893 49.8058 528.56 50.0294 529.2306 50.5882 532.2484 51.5942 532.2484 51.7059 532.4719 51.9295 532.5837 52.0413 534.5956 55.0591 537.0546 57.4063 539.0664 58.1887 539.6253 58.4122 540.2959 58.6358 540.8548 58.9711 540.6312 59.977 541.4136 60.4241 541.3019 60.9829 541.4136 61.6536 540.9666 62.9948 537.6134 61.6536 537.837 63.6655 537.3899 63.6655 537.2781 64.2243 536.2722 65.0067 536.9428 65.7891 538.1723 66.795 538.3958 66.9068 538.0605 69.254 539.5135 73.9484 539.7371 77.7486 535.4898 79.4252 535.378 79.4252 534.1485 79.7605 533.3661 80.7664 533.2543 81.9959 534.0367 83.3372 535.0427 83.896 537.5017 83.7843 538.7311 83.6725 538.9547 83.7843 542.196 85.0138 543.0902 86.8021 544.3197 87.5845 548.1199 88.9257 548.9023 89.4846 549.4612 90.0435 550.02 90.9376 550.1318 90.7141 550.5789 91.2729 551.026 92.3906 551.8084 93.2848 555.2733 95.2967 556.8381 95.632 558.8499 96.5262 560.6383 98.5381 562.3149 99.9911 563.209 100.997 563.0972 101.6677 562.6502 102.6736 562.0913 102.3383 561.1971 102.5618 559.8559 102.1147 558.7382 101.1088 557.3969 101.3323 556.8381 101.2206 554.938 99.544 553.1496 98.7616 553.1496 98.8734 551.1377 98.2028 550.2436 97.9792 550.1318 97.6439 548.9023 97.3086 548.7905 97.4204 549.1259 98.3145 547.2257 97.8674 547.0022 97.6439 547.114 97.3086 546.5551 97.085 546.4433 96.9733 546.2198 96.9733 545.5492 98.091 545.7727 98.6498 545.5492 98.9851 545.4374 99.6558 545.2139 100.4382 544.5432 100.7735 544.0961 101.4441 544.8785 103.0089 545.2139 104.7972 546.4433 106.8091 548.1199 109.3799 550.2436 111.5035 551.1377 112.733 552.1437 114.6331 552.2554 115.5273 552.5908 116.4215 552.2554 116.8685 552.7025 117.9862 552.5908 118.2098 552.2554 118.2098 552.2554 118.6569 552.479 119.2157 552.1437 119.4393 551.5848 119.104 551.2495 119.104 551.1377 119.104 550.3553 119.8864 550.1318 120.2217 550.2436 120.557 549.9083 120.6688 549.9083 121.3394 549.0141 121.8982 548.6788 121.5629 547.3375 122.6806 547.3375 123.1277 546.3316 126.5926 545.2139 130.7282 545.4374 131.5106 545.3256 132.1812 545.4374 132.8518 546.5551 134.9755 549.2376 136.652 552.0319 139.111 556.2792 142.1288 557.1734 142.4641 559.6323 142.7994 564.3267 146.1526 568.9094 150.1763 573.8273 153.1942 574.945 153.5295 576.398 153.6413 580.4218 152.9706 581.2042 152.9706 581.4277 152.8589 588.8046 149.7293 598.1934 149.6175 607.3586 150.6234ZM332.2898 97.085L332.2898 96.9733 332.5133 96.9733 332.4015 96.8615 332.6251 96.0791 332.7369 95.7438 332.9604 95.632 333.0722 95.8556 332.8486 96.0791 332.9604 96.1909 333.7428 95.9673 334.7487 96.0791 334.8605 96.638 335.5311 96.9733 335.5311 97.3086 335.084 97.5321 334.9723 98.2028 335.084 98.2028 335.1958 98.7616 334.9723 98.7616 334.7487 98.3145 333.7428 97.9792 333.7428 97.8674 333.5193 97.6439 333.1839 97.5321 332.9604 97.9792 332.7369 97.8674 332.2898 97.085Z" />
  <path class="Lebap Region" d="M879.5215 553.6703L878.8508 553.5585 878.8508 553.4468 878.292 553.4468 785.2983 554.1174 783.0629 508.2912 799.4933 489.0666 761.7146 444.4699 731.6482 433.4045 706.1644 400.6556 621.2183 313.027 608.6999 313.6976 596.2933 314.8153 572.1507 314.9271 568.574 237.6932 553.1496 235.0107 553.1496 174.9895 607.2469 172.8659 607.3586 152.4118 607.3586 150.6234 611.1589 151.1823 611.2706 151.0705 611.3824 151.9647 611.7177 152.1882 612.5001 152.7471 613.059 153.0824 613.3943 153.0824 613.3943 149.5057 613.2825 149.5057 613.7296 148.6116 613.7296 149.2822 613.9531 149.3939 614.2884 148.9469 614.512 149.0586 614.4002 149.9528 614.9591 150.847 615.1826 149.7293 615.2944 149.9528 615.5179 150.0646 615.7415 149.9528 615.965 150.0646 615.965 151.0705 616.7474 152.9706 617.0827 152.8589 617.418 152.8589 617.418 152.7471 617.7534 152.3 617.9769 152.8589 618.5358 154.0883 620.4359 156.1002 624.4596 158.3356 628.4834 160.3475 634.8543 160.124 638.9899 155.8767 639.6605 155.5414 639.6605 155.0943 639.9958 154.759 640.2194 154.3119 640.1076 154.0883 640.4429 153.753 640.3311 153.1942 639.9958 150.2881 640.4429 148.1645 640.4429 146.8232 642.1195 146.5997 644.0196 147.0468 645.5844 146.935 650.167 149.3939 650.8376 149.0586 651.2847 148.7233 651.8436 148.6116 651.9553 148.9469 653.073 149.2822 654.079 149.841 654.7496 149.841 655.532 149.3939 655.8673 149.2822 655.9791 149.0586 656.4262 149.841 656.6497 150.1763 657.0968 151.6294 657.6557 152.1882 658.4381 152.7471 659.444 153.0824 661.4559 153.3059 662.1265 153.753 665.2561 157.4415 667.6033 159.0063 669.2799 159.5651 672.2977 162.6947 673.7507 163.1418 674.5331 164.036 675.4273 166.7185 675.5391 167.6127 675.3155 168.6186 675.6508 169.0657 677.2156 169.5128 679.451 170.854 679.6746 171.0776 680.1217 171.5246 680.5688 172.307 681.0158 173.5365 681.0158 173.8718 681.2394 174.2072 681.3512 175.7719 682.0218 175.9955 682.3571 176.6661 682.0218 179.1251 682.1336 180.5781 682.3571 181.3605 682.4689 183.5959 682.6924 184.2666 681.91 185.9431 681.6865 186.2784 682.2453 188.0668 681.7982 188.6256 681.6865 189.5198 681.91 190.5257 682.3571 191.4199 683.5866 192.6494 684.1454 193.6553 684.5925 194.2142 684.9278 195.8908 685.7102 197.0085 685.9338 201.144 685.9338 201.2558 686.3809 202.597 687.3868 203.4912 688.281 204.7207 689.1751 206.509 690.1811 209.0798 690.2928 210.7563 690.5164 211.6505 691.8576 214.2212 692.9754 215.8978 694.7637 217.2391 696.105 218.3568 696.8873 219.5862 697.4462 220.4804 699.5699 221.8217 701.47 222.7158 703.3701 224.7277 706.2761 226.4043 707.6174 227.0749 707.7292 227.522 707.1703 229.7574 706.4997 232.2164 706.4997 232.9988 707.6174 234.5636 708.7351 235.4578 709.4057 236.2402 710.6352 238.3638 710.747 239.0344 710.6352 239.9286 710.0763 241.2699 710.0763 242.2758 710.4117 243.3935 710.5234 245.1818 711.4176 248.3114 711.6411 250.2116 712.2 251.7763 712.2 253.7882 712.0882 255.9119 710.9705 257.7002 710.9705 258.7062 711.3058 259.3768 713.0942 261.9475 713.3177 264.63 713.7648 265.7477 713.7648 266.6419 713.9883 267.9832 714.2119 268.8773 715.6649 270.7774 717.4532 272.5658 724.4948 277.7073 732.3188 283.5194 733.3248 284.19 743.0488 291.2316 744.6136 292.3493 750.4257 296.2613 766.1855 307.5502 772.78 311.9092 775.686 314.1447 779.598 316.7154 784.0689 319.5097 784.4042 320.7392 784.7395 322.5275 793.3459 328.6749 794.3518 329.4573 803.6288 335.493 804.4112 339.9638 808.435 342.7581 809.4409 343.6523 825.0889 354.7176 826.0948 355.6118 832.2422 359.8591 837.719 363.2122 838.3897 363.9946 842.1899 363.5475 843.1958 363.6593 847.7784 363.6593 849.455 363.1004 850.7963 362.6534 852.9199 364.777 862.8675 374.6129 872.8152 381.5427 874.38 382.1015 875.4977 382.8839 876.6154 383.2193 881.4216 387.1312 882.3157 388.3607 883.9923 389.5902 887.0101 389.702 889.4691 390.7079 890.5868 391.7139 894.1635 394.7317 895.1694 395.067 896.5107 396.1847 899.0814 396.4083 899.5285 396.6318 907.9113 404.4558 909.029 406.0206 919.6473 413.5092 935.5188 424.4628 935.1835 424.7981 935.1835 425.357 935.2953 425.4688 936.9718 425.4688 942.4486 426.6982 952.8433 428.263 953.9611 428.3748 955.9729 428.4866 956.3083 428.7101 956.1965 428.9337 956.6436 429.0454 956.8671 428.8219 957.0906 427.816 957.6495 426.81 957.7613 426.81 959.1025 426.4747 960.7791 426.4747 962.1204 426.81 963.6851 428.263 964.9146 429.6043 965.0264 429.8278 966.4794 430.8338 967.7089 431.1691 969.8326 431.0573 970.615 431.3926 971.3974 432.2868 971.7327 432.6221 973.0739 432.8457 974.1916 433.2927 974.6387 433.4045 974.974 433.4045 975.0858 433.6281 977.7683 435.8635 982.3509 437.2047 985.0334 437.3165 985.7041 437.7636 987.716 441.3403 990.5102 444.5816 990.8455 444.8052 991.4044 445.1405 992.9692 445.9229 994.8693 447.1524 996.7694 448.8289 998.6695 449.276 999.5637 449.1642 1001.7991 448.4936 1003.6992 447.9348 1007.4994 448.2701 1008.6172 448.4936 1010.629 449.276 1012.5292 450.5055 1015.2117 453.7469 1016.5529 455.1999 1017 456.4294 1017 457.7706 1016.6647 459.1119 1015.9941 459.6707 1012.7527 461.4591 1011.635 462.9121 1010.8526 464.924 1009.6231 466.0417 1008.5054 467.83 1007.3877 470.6243 1006.7171 474.4245 1006.6053 476.3246 1007.0524 478.6718 1006.7171 482.2485 1006.0464 489.849 1005.7111 491.6373 1005.8229 493.4256 1006.1582 494.208 1009.0642 496.3317 1009.9584 499.573 1009.9584 501.9202 1009.6231 502.3673 1009.7349 503.1497 1007.9465 504.2674 1006.0464 505.6087 1005.7111 506.1675 1005.7111 507.1735 1005.3758 507.7323 1005.4876 508.0677 1006.7171 508.6265 1007.6112 509.0736 1007.723 509.856 1004.9287 511.0855 1004.0345 511.309 1002.5815 512.0914 1001.7991 512.0914 1001.352 512.0914 1000.1226 512.6503 999.0048 513.0974 996.7694 512.6503 992.6339 512.762 991.1809 512.9856 990.0631 512.9856 987.4924 511.1972 986.9336 510.9737 986.0394 510.0795 985.8158 509.856 982.798 509.0736 982.3509 508.6265 982.0156 508.6265 980.7861 508.8501 980.2273 508.8501 979.2213 508.5147 978.1036 507.8441 976.9859 506.9499 976.7624 505.3851 975.98 504.3792 975.0858 503.7086 974.1916 503.3733 973.7446 502.8144 972.6268 502.1438 970.5032 501.2496 968.8266 500.9143 965.4735 499.573 963.6851 499.2377 962.5674 499.3495 960.6673 499.126 958.5437 498.0083 955.1905 496.8905 954.6317 496.3317 954.1846 494.8787 953.6257 494.5433 952.7316 494.4316 951.6139 493.9845 951.3903 493.7609 951.2785 493.5374 951.6139 492.9785 951.6139 492.4197 951.1668 492.3079 950.9432 493.6492 950.4961 493.5374 949.9373 493.2021 949.2667 493.3139 948.7078 493.2021 948.3725 493.3139 948.0372 493.5374 947.8136 493.5374 947.0312 493.3139 946.2488 494.3198 946.0253 494.4316 945.5782 495.3257 945.1311 495.7728 945.0194 496.8905 944.5723 497.6729 943.7899 498.12 943.1193 498.12 942.5604 498.7906 942.2251 501.9202 941.6662 502.032 941.2191 502.5909 935.2953 510.4149 934.7364 511.6443 933.5069 515.1092 933.3952 515.3328 927.5831 515.5563 921.771 517.2329 916.1824 520.4743 915.9589 520.586 915.6235 520.4743 913.1646 519.2448 910.4821 520.586 910.3703 520.586 906.2348 519.5801 901.4286 520.8096 900.8697 520.9213 896.0636 522.5979 883.0981 529.6395 880.9745 531.2043 879.745 533.4397 879.6332 533.5515 882.4275 548.7524 879.5215 553.6703Z" />
  <path class="Mary Region" d="M639.884 667.0063L640.1076 666.1121 641.8959 664.7708 645.2491 654.935 638.6546 643.6461 647.0374 638.0575 647.5963 629.8982 639.7723 627.7746 642.6783 568.8712 607.9175 513.4327 619.9888 516.8976 626.248 529.6395 637.8722 521.8155 630.4953 514.2151 617.9769 508.0677 601.7701 504.6028 595.1756 480.9073 602.9996 477.8894 599.7582 466.7123 607.9175 462.2415 593.8343 439.3284 577.404 424.4628 567.5681 385.79 576.0627 381.2074 576.7333 370.3656 586.4574 366.5653 591.9342 333.8164 607.0233 329.7926 608.6999 313.6976 621.2183 313.027 706.1644 400.6556 731.6482 433.4045 761.7146 444.4699 799.4933 489.0666 783.0629 508.2912 785.2983 554.1174 878.292 553.4468 878.8508 553.4468 878.8508 553.5585 879.5215 553.6703 875.9448 559.9295 869.5738 574.1244 869.9091 577.0305 869.6856 578.9306 870.8033 591.3372 867.5619 597.0375 866.7795 599.3847 861.6381 604.8615 857.1672 609.1088 856.8319 609.2206 856.273 608.997 855.9377 609.1088 855.7142 609.4441 855.4906 609.2206 855.3789 609.6677 855.0436 609.6677 855.0436 609.4441 854.82 609.5559 854.7083 609.7794 854.4847 609.7794 854.2612 610.1147 853.5905 609.8912 853.4788 610.1147 853.2552 610.1147 853.2552 610.3383 852.6964 610.003 852.4728 610.003 852.1375 610.3383 851.914 610.2265 851.6904 610.3383 851.3551 610.2265 851.3551 610.5618 851.0198 610.5618 850.908 610.4501 850.908 610.6736 850.6845 610.7854 850.7963 611.0089 850.4609 611.1207 850.4609 611.3442 850.1256 611.1207 849.9021 611.6795 849.455 611.7913 849.455 611.9031 848.5608 612.2384 848.3373 612.2384 848.002 612.1266 847.7784 612.5737 847.7784 612.7972 847.6667 612.909 847.6667 613.2443 847.5549 613.2443 847.5549 613.6914 847.3314 613.8032 847.3314 614.2503 847.1078 614.2503 846.8843 614.6974 846.7725 615.1444 846.8843 615.4798 846.4372 615.8151 846.2136 616.3739 845.9901 616.4857 845.9901 616.5975 845.6548 617.1563 845.2077 617.1563 845.0959 616.821 844.6488 616.821 844.4253 616.7092 844.4253 616.2622 844.2018 616.1504 843.7547 616.4857 843.6429 616.2622 843.3076 616.5975 843.1958 616.4857 843.084 616.5975 842.7487 616.821 842.637 617.2681 842.4134 617.2681 842.0781 616.821 841.631 616.7092 841.4075 616.2622 841.1839 616.1504 840.9604 616.1504 840.7369 616.1504 840.7369 616.0386 839.8427 615.9268 839.7309 616.0386 839.5074 615.9268 839.3956 615.9268 838.9485 616.4857 838.3897 616.2622 838.2779 616.2622 837.719 616.1504 837.2719 616.2622 837.1602 616.3739 836.9366 616.3739 836.7131 617.6034 835.9307 617.6034 835.8189 617.827 835.5954 617.827 835.2601 618.1623 834.5894 618.4976 834.2541 619.1682 833.4717 619.6153 832.8011 619.5035 832.5776 619.0564 832.354 619.0564 832.0187 619.3917 831.7952 619.8388 831.4598 620.1741 831.4598 620.5095 831.1245 620.8448 830.7892 621.1801 830.5657 620.9565 830.0068 621.5154 829.5597 621.4036 829.5597 621.5154 829.6715 621.8507 829.5597 622.2978 829.7833 622.7449 829.448 623.3037 829.6715 623.8626 829.448 624.3097 829.6715 624.7568 829.448 625.4274 829.6715 625.9862 829.7833 625.9862 829.5597 626.3216 829.7833 626.5451 829.6715 627.4393 830.0068 627.8864 830.0068 628.4452 830.4539 628.1099 830.5657 628.2217 830.4539 628.6688 830.5657 629.1158 830.3421 629.2276 830.2304 629.8982 830.4539 630.01 830.5657 630.3453 830.3421 630.7924 828.6656 629.7865 824.6418 627.3275 822.1828 628.1099 820.3945 628.6688 818.2708 629.3394 810.1116 631.6866 804.2994 633.3631 794.7989 634.8162 792.2282 639.0635 789.2103 639.8459 775.9096 643.0872 762.7206 642.5284 762.6088 642.9755 762.6088 643.4226 762.9441 643.4226 763.2794 643.7579 762.8323 643.6461 762.8323 644.0932 762.6088 643.8696 762.1617 643.8696 761.8264 644.4285 762.0499 644.4285 762.1617 644.205 762.3853 644.4285 762.3853 644.5403 762.1617 644.5403 762.1617 644.652 762.497 644.8756 762.0499 645.3227 761.8264 645.8815 762.0499 646.3286 761.8264 646.4404 761.7146 646.1051 761.4911 646.3286 761.2675 646.3286 761.1558 646.6639 761.6029 646.8875 761.7146 647.2228 762.3853 647.2228 762.3853 647.4463 762.7206 647.2228 762.7206 647.6699 763.0559 647.6699 763.3912 648.0052 763.503 648.6758 763.3912 648.8993 763.503 649.3464 763.7265 649.57 763.8383 649.9053 764.2854 650.0171 764.1736 650.2406 764.1736 650.6877 763.7265 650.9112 764.0618 651.1348 764.3971 651.023 764.2854 651.6936 764.6207 651.6936 764.6207 652.1407 764.7325 652.0289 764.8442 651.4701 764.956 651.9172 765.4031 652.0289 765.4031 652.6996 765.8502 652.476 766.2972 652.9231 766.2972 653.1466 766.1855 653.3702 766.5208 654.0408 766.7443 654.1526 767.6385 654.1526 767.7503 654.4879 767.6385 654.935 767.7503 655.1585 767.6385 655.2703 768.0856 655.8292 768.4209 655.8292 768.5327 656.0527 768.9798 656.0527 768.9798 656.2762 769.2033 656.2762 769.0915 655.9409 769.2033 655.8292 769.9857 655.9409 770.2092 655.9409 770.7681 656.7233 771.1034 656.6116 771.4387 656.8351 771.4387 657.1704 771.774 657.3939 771.6623 657.5057 771.2152 657.5057 771.2152 657.6175 771.4387 657.6175 771.4387 657.841 771.5505 657.9528 771.774 657.7293 771.774 657.9528 771.6623 658.1763 771.4387 658.1763 771.4387 657.9528 771.327 658.0646 771.4387 658.3999 771.774 658.6234 762.0499 662.759 762.0499 663.4296 761.6029 663.5414 761.7146 663.8767 761.1558 663.9884 761.044 663.8767 760.8205 664.1002 760.9322 664.6591 761.1558 665.1062 761.044 665.2179 761.1558 665.4415 761.1558 666.3356 761.6029 667.0063 761.8264 667.0063 761.8264 667.5651 761.3793 668.124 761.6029 668.5711 761.3793 669.2417 761.3793 669.3535 761.7146 669.3535 761.6029 670.1359 761.8264 670.2476 762.0499 670.0241 762.0499 670.6947 762.7206 670.6947 763.0559 670.4712 763.3912 670.6947 763.1677 671.5889 763.2794 671.8124 762.8323 673.1537 762.7206 673.3772 762.497 673.2655 762.3853 673.2655 762.0499 673.2655 762.0499 673.6008 762.2735 673.8243 762.2735 674.2714 762.497 674.2714 762.3853 674.6067 762.6088 675.2773 762.1617 675.2773 762.0499 675.3891 762.2735 676.0597 762.497 676.0597 762.1617 676.7304 762.1617 677.2892 761.8264 677.401 761.7146 677.8481 761.9382 678.5187 761.8264 679.1893 761.4911 679.5246 761.2675 680.0835 761.3793 680.7541 761.1558 681.6483 760.7087 681.4248 760.4851 681.7601 760.3734 681.5365 759.9263 681.7601 759.7028 681.7601 759.4792 681.9836 758.6968 681.9836 758.0262 682.0954 758.0262 682.2072 757.9144 681.9836 757.8026 682.2072 757.5791 682.2072 757.2438 681.8718 757.0202 681.9836 756.6849 681.8718 756.3496 681.9836 756.3496 682.2072 755.9025 682.0954 755.7908 682.2072 755.3437 681.9836 755.2319 681.6483 755.1201 681.6483 755.0084 681.7601 755.679 682.6542 755.679 683.1013 755.0084 682.766 754.4495 682.3189 754.4495 682.4307 754.1142 682.8778 754.0024 682.766 753.5553 682.9895 753.4436 683.2131 752.1023 683.8837 751.3199 684.4426 751.2081 684.219 750.7611 684.3308 750.4257 684.6661 749.4198 684.8897 748.8609 685.7838 748.7492 685.7838 748.5256 686.1191 748.3021 685.8956 748.1903 685.8956 747.855 686.2309 747.855 686.5662 747.7432 686.9015 747.4079 686.9015 747.1844 686.678 746.5138 686.9015 746.6255 687.6839 746.2902 688.131 745.7314 688.3546 745.5078 687.9075 745.2843 687.9075 745.0607 688.6899 744.6136 688.8017 744.5019 689.2487 744.2783 689.3605 744.2783 689.8076 743.943 690.2547 743.7195 690.2547 743.6077 690.7018 743.3842 690.7018 742.8253 690.9253 742.6018 691.0371 742.6018 691.2606 742.3782 691.2606 741.9311 691.5959 741.9311 691.8195 741.7076 691.7077 741.484 692.043 740.8134 691.9312 739.9193 691.7077 739.6957 691.9312 739.3604 691.9312 739.1369 692.043 738.8015 691.9312 738.1309 692.9372 738.0191 692.8254 737.125 693.1607 737.0132 693.496 736.4543 693.9431 736.4543 694.3902 736.2308 694.502 736.3426 694.8373 736.119 695.1726 736.0073 695.955 735.6719 696.2903 735.3366 696.4021 734.4425 696.2903 733.4365 697.408 732.6541 697.6316 732.0953 697.2963 731.4246 697.6316 731.3129 697.7433 730.754 698.0787 730.4187 697.8551 729.8598 698.0787 729.4128 697.9669 729.1892 698.3022 728.4068 698.7493 728.0715 699.5317 727.6244 699.6435 727.5127 700.0905 727.0656 699.9788 726.842 698.8611 726.7303 698.5257 726.1714 697.5198 725.7243 697.6316 725.5008 698.1904 724.6066 698.5257 724.3831 698.414 724.2713 698.5257 723.936 698.9728 723.8242 698.414 723.7124 697.9669 722.8183 697.8551 722.7065 697.6316 722.1476 697.8551 722.0359 697.7433 721.8123 697.0727 721.5888 697.0727 721.477 696.8492 721.3652 696.4021 721.477 695.7315 720.6946 695.5079 720.3593 695.2844 720.1358 694.2784 719.8004 694.3902 719.3534 695.0608 719.1298 694.8373 718.6827 694.9491 718.571 694.502 718.3474 694.502 718.1239 694.0549 718.0121 694.2784 717.6768 694.2784 716.7826 693.8314 716.2238 694.3902 706.7232 704.6732 704.4878 706.9086 704.376 706.5733 703.9289 706.238 704.1525 705.6791 704.0407 705.4556 704.0407 705.1202 704.1525 703.4437 703.5936 702.6613 703.4818 701.8789 703.4818 701.0965 703.8172 699.9788 703.4818 699.5317 703.7054 698.8611 703.3701 698.3022 703.7054 697.9669 703.4818 697.5198 703.5936 697.408 703.2583 697.0727 703.4818 696.6256 703.4818 695.8432 702.2524 694.6138 702.2524 694.1667 702.1406 694.0549 702.2524 693.496 702.0288 693.1607 701.6935 693.1607 701.6935 692.4901 693.646 688.4663 690.1811 684.6661 687.275 680.1953 680.3452 678.5187 679.5628 678.7422 666.9327 682.3189 665.1443 681.9836 653.1848 679.9717 646.255 674.8303 643.4607 672.7066 643.4607 672.3713 643.2372 672.2595 643.2372 672.1477 643.0136 672.036 643.1254 671.9242 642.7901 671.5889 642.6783 671.5889 642.5666 671.4771 642.4548 671.3653 642.2312 671.1418 641.6724 671.03 641.0018 670.3594 640.5547 669.8006 639.884 669.8006 638.7663 668.5711 638.9899 668.124 639.6605 667.7887 639.884 667.2298 639.884 667.0063Z" />
</svg>