<?xml version="1.0" encoding="utf-8"?>
<svg xmlns="http://www.w3.org/2000/svg" viewBox="0 0 1021 529" style="stroke-width:0.25px;stroke-linejoin:round;stroke:#444;fill:#ddd" fill-rule="evenodd">
  <path class="Burgenland" d="M883.7688 317.3119L891.481 317.5354 894.8341 316.8648 898.1872 315.0765 900.3109 313.3999 907.2407 305.9112 907.576 303.8993 907.576 301.4404 906.9054 299.0932 906.4583 296.2989 906.9054 291.9398 907.576 289.7044 908.9173 287.3572 909.6997 286.1277 914.1705 277.5213 910.2585 271.4857 905.6759 266.1207 903.664 262.6558 902.6581 260.1968 902.6581 248.1255 907.2407 247.5667 908.8055 246.2254 910.4821 244.3253 911.2645 242.537 911.7116 240.3015 912.0469 232.5893 914.0587 228.6773 916.1824 226.4419 922.5534 221.4122 926.4653 220.1827 931.048 219.9592 940.4367 222.977 945.69 220.4063 948.2607 217.7238 952.8433 214.4824 954.7435 212.6941 956.0847 210.2351 957.873 205.2054 961.2262 202.5229 964.0205 201.1816 965.5853 200.8463 967.1501 201.0699 972.7386 198.4991 978.2154 194.4754 981.2332 193.0223 984.0275 192.687 986.0394 193.693 990.1749 196.8226 992.2986 197.9403 993.8634 196.9343 994.8693 195.146 994.9811 193.4694 994.6458 191.9046 994.534 190.5634 994.9811 187.5455 996.7694 185.7572 997.7754 185.3101 999.1166 185.9807 1000.3461 186.7631 1001.9109 187.0985 1003.0286 186.7631 1003.9228 186.3161 1005.5993 184.6395 1006.27 185.7572 1007.9465 187.6573 1006.6053 189.3339 1005.9347 191.3458 1005.1523 195.0342 1005.7111 195.3695 1007.2759 196.7108 1006.6053 199.9521 1009.6231 201.6287 1013.9822 203.1935 1017 205.9878 1008.7289 213.0294 1010.0702 214.5942 1010.0702 215.8237 1009.3996 217.1649 1009.0642 218.8415 1008.7289 219.1768 1007.4994 219.9592 1007.1641 220.518 1007.2759 221.4122 1007.9465 221.8593 1008.6172 222.0828 1008.9525 222.4182 1008.3936 225.9948 1007.6112 228.5656 1006.27 230.5774 1004.1463 232.3658 999.4519 233.3717 997.7754 234.2659 997.8871 236.3895 998.6695 237.2837 1001.4638 238.625 1002.5815 239.4074 1003.811 243.0958 1004.7052 244.3253 1002.6933 246.5607 1002.9168 250.0256 1003.811 254.0494 1004.0345 260.5321 1004.7052 262.4322 1005.8229 263.997 1007.2759 264.8912 1004.5934 266.2325 994.8693 267.5737 984.3628 270.1444 979.2213 269.2503 977.3212 264.1088 975.5329 265.5618 972.9622 269.6974 971.5091 271.1504 970.2796 271.4857 962.791 270.2562 961.338 269.362 959.8849 267.909 959.5496 267.2384 958.879 265.7854 958.3201 263.7735 957.6495 261.9851 955.9729 260.7557 945.3547 256.6201 939.7661 255.8377 934.8482 258.0732 934.0658 259.9733 934.2893 262.6558 933.5069 264.3323 932.3892 265.4501 927.136 268.2443 925.4594 269.6974 924.5652 270.2562 924.0064 270.1444 923.3358 269.4738 922.5534 268.4679 921.5474 269.4738 919.5355 272.827 918.4178 274.28 920.765 275.6212 928.2537 278.7508 931.9421 277.8567 938.4249 280.5392 940.7721 281.4333 945.1311 280.7627 948.0372 282.104 950.3844 285.2336 951.5021 289.1455 950.7197 293.0575 952.9551 294.287 954.8552 296.1871 955.8612 298.6461 955.7494 301.6639 954.2964 304.2347 950.3844 305.7994 948.9314 307.476 949.4902 315.4118 947.5901 316.8648 942.5604 320.7768 928.2537 327.3713 926.6889 324.8006 924.9006 323.4593 923.224 324.0182 921.8827 326.4771 922.218 333.9658 921.8827 334.5246 921.2121 334.9717 920.6532 335.4188 920.6532 336.6483 920.9886 337.3189 921.5474 337.6542 922.218 337.8778 922.5534 338.3249 926.5771 346.8195 927.136 350.0608 926.2418 352.6316 924.3417 354.4199 920.2062 356.6553 920.6532 360.1202 918.6414 364.3675 919.0884 367.6089 919.8708 368.2795 920.8768 368.2795 921.9945 368.3913 922.8887 369.6208 923.0004 371.2974 921.8827 374.6505 921.8827 375.7682 923.6711 376.8859 928.1419 374.7623 930.2656 374.9858 931.9421 377.333 931.2715 379.6802 928.2537 383.704 925.4594 385.4923 924.5652 388.2866 925.5712 390.8573 928.2537 391.7515 929.8185 392.5339 930.2656 393.5398 929.8185 394.6575 928.2537 395.6635 922.3298 398.0107 920.6532 399.5755 924.4535 400.0226 926.3536 400.6932 928.2537 402.4815 928.8125 404.6052 926.3536 405.164 922.8887 405.164 920.6532 405.6111 920.0944 406.17 919.4238 406.2817 918.7531 406.17 917.9707 405.6111 915.7353 403.8228 912.941 403.4875 907.4642 404.1581 902.5463 403.1521 900.6462 403.3757 899.4167 405.6111 898.8579 408.5172 897.7402 409.4113 896.3989 409.7466 895.0576 410.8644 894.7223 412.0938 894.8341 413.2116 894.8341 414.3293 893.9399 415.7823 892.934 416.4529 890.2515 417.6824 886.7866 420.1414 885.2218 421.8179 880.4156 428.4124 878.7391 430.089 876.6154 430.9832 871.1386 434.3363 868.3443 435.9011 867.8972 436.1246 867.8972 436.0129 867.7855 435.2305 867.6737 432.995 867.4502 432.548 866.8913 431.7656 865.2147 430.4243 864.5441 429.5301 864.4323 428.3007 864.9912 425.0593 865.103 423.0474 865.5501 421.1473 866.556 419.359 871.3622 415.1117 877.7331 406.6171 881.3098 401.4756 882.204 399.3519 882.3157 398.1224 881.9804 396.4459 877.1743 390.2985 875.9448 388.063 875.4977 385.3805 875.2741 383.3686 876.7272 377.2212 876.7272 371.968 873.0387 357.773 872.927 354.6435 871.8092 347.2666 870.5798 341.7898 869.1267 336.8718 866.7795 331.2833 866.556 329.6067 867.0031 327.9301 869.015 325.1359 870.3562 323.7946 872.0328 323.5711 872.7034 324.6888 873.1505 326.03 873.5976 326.8124 876.0565 325.4712 883.7688 317.3119Z" />
  <path class="Kärnten" d="M420.589 471.8914L421.2596 470.4384 425.6187 461.7202 426.6246 458.926 427.2953 456.5788 427.6306 453.2256 430.5366 451.7726 442.3844 449.9843 447.7494 447.6371 449.3142 447.4135 450.7672 447.9724 455.4616 451.5491 456.5793 451.7726 457.0264 451.6608 457.4735 451.2138 457.697 450.6549 457.8088 450.3196 457.9206 449.649 457.1382 448.0842 449.0906 436.907 442.9432 430.4243 441.602 428.4124 440.7078 425.3946 440.3725 422.8239 439.7019 420.1414 438.6959 418.0177 437.0194 416.2294 435.6781 415.2234 432.9956 412.7645 431.8779 410.529 430.5366 408.7407 429.6425 407.0641 429.1954 405.164 429.0836 404.2699 429.0836 403.4875 429.3072 402.0344 429.6425 400.5814 431.319 396.5576 431.4308 394.434 430.3131 392.981 418.8007 389.069 417.1241 387.616 416.0064 386.1629 415.6711 382.3627 417.3476 381.245 417.7947 380.7979 418.2418 380.1273 418.4653 379.5684 418.5771 378.8978 418.8007 378.4507 419.136 377.8919 419.8066 377.5565 421.0361 377.6683 422.7127 378.4507 427.9659 381.8039 434.1133 384.8217 442.2726 386.8336 446.5199 387.3924 453.0026 389.4043 463.6209 396.3341 465.8563 397.5636 468.3153 398.2342 472.3391 398.6813 482.2867 398.1224 487.5399 396.893 494.5815 393.5398 497.5993 391.0809 500.9525 387.8395 502.9644 387.3924 505.4233 387.1689 510.6766 388.8454 522.9714 392.0868 525.8774 392.3103 539.29 395.1046 545.2139 395.6635 548.567 396.6694 553.2614 399.1284 564.7738 408.0701 568.574 413.2116 573.7155 417.4589 575.6156 418.8001 576.8451 419.359 579.3041 419.1354 581.6513 418.353 589.8106 411.9821 594.8403 409.5231 596.8521 406.0582 597.411 404.7169 597.9699 403.711 599.0876 402.3697 601.2112 400.805 615.7415 393.8751 619.6535 393.0927 624.3479 393.2045 627.8128 394.7693 633.1778 398.5695 642.6783 401.5873 644.9138 402.5933 646.255 403.711 646.5903 404.2699 647.8198 404.4934 650.167 404.6052 663.8031 399.799 667.3798 400.1343 676.0979 399.4637 679.6746 401.0285 696.105 399.6872 710.8587 396.2223 712.8706 396.5576 714.2119 397.4518 716.2238 399.0166 721.477 405.4993 731.9835 421.5944 731.6482 427.4065 730.8658 429.8655 729.9716 431.542 729.301 433.8892 729.0774 435.0069 729.301 436.7953 729.9716 439.366 731.9835 444.0604 733.5483 450.9902 733.8836 457.4729 735.4484 462.0556 743.7195 471.6679 744.8372 473.0091 744.949 473.1209 742.2664 472.8974 739.1369 472.4503 731.4246 475.021 726.5067 482.0626 723.936 478.3741 722.0359 478.0388 720.1358 479.1565 717.2297 481.0567 716.7826 481.0567 714.4354 481.392 712.6471 481.1684 710.9705 481.8391 708.7351 485.1922 707.1703 488.4336 706.1644 491.5631 705.1584 494.4692 703.7054 497.7106 702.6994 500.1695 701.9171 500.8402 699.011 502.1814 695.5461 502.7403 694.4284 501.9579 692.193 502.9638 691.4106 503.858 690.7399 505.1992 689.1751 507.0993 688.1692 509.4465 687.275 509.223 686.3809 509.1112 685.822 509.3348 683.1395 512.129 681.7982 513.0232 680.457 513.3585 677.5509 513.5821 676.2097 514.1409 674.3096 517.047 673.1919 520.7354 672.5212 522.412 671.9624 523.9768 669.6152 524.9827 667.8268 523.0826 666.3738 519.7295 664.4737 517.2705 659.8911 518.3882 657.6557 518.0529 655.8673 517.1587 653.6319 516.1528 652.8495 515.2586 652.4024 514.1409 651.7318 513.2468 650.3905 512.9114 645.9197 513.9174 629.9364 513.4703 617.6416 513.0232 617.3063 513.0232 615.965 512.5761 608.4763 506.0934 606.4645 505.1992 604.3408 504.5286 601.9936 504.4168 599.6464 504.8639 597.411 505.1992 595.2873 504.9757 583.1043 499.1636 579.0805 498.493 570.4741 499.946 568.574 499.946 559.8559 497.8223 557.7322 497.7106 555.7204 498.0459 553.7085 497.8223 537.6134 492.5691 531.9131 492.3455 530.9072 491.6749 529.007 489.5513 528.1129 489.216 519.9536 489.7748 514.1415 488.7689 500.6172 491.6749 495.1404 491.3396 492.3461 490.2219 483.9633 485.0804 473.0097 482.5097 441.8255 480.2743 434.2251 475.2446 430.8719 474.1268 429.7542 473.7915 428.7483 473.9033 426.6246 474.7975 425.2834 474.7975 424.0539 474.2386 421.7067 472.4503 420.589 471.8914Z" />
  <path class="Niederösterreich" d="M689.734 89.634L689.8458 89.5222 690.2928 88.9634 690.9635 83.8219 690.9635 77.5627 691.4106 72.1977 693.8695 68.0622 695.6579 66.4974 695.7696 66.3856 700.9111 61.9147 701.5817 58.0028 702.923 55.6556 703.4818 53.1966 704.2642 51.2965 705.4937 50.7376 706.1644 50.5141 706.2761 50.5141 706.4997 50.5141 713.2059 51.52 720.1358 54.3143 722.8183 54.0908 722.93 53.8672 724.2713 50.5141 724.0477 50.1788 723.4889 48.8375 722.8183 47.2727 722.5947 45.9315 722.8183 44.5902 723.8242 42.0195 726.6185 29.2776 726.6185 23.689 726.0596 17.5416 726.1714 11.7295 727.9597 7.4822 727.848 6.3645 727.848 5.4703 728.0715 4.6879 728.4068 4.3526 730.754 4.129 731.4246 4.0173 738.8015 6.588 740.031 6.6998 740.7017 6.6998 749.1963 7.3704 750.0904 10.2765 750.6493 13.0707 750.6493 15.7532 749.7551 18.6593 752.4376 18.7711 762.6088 15.9768 763.2794 15.5297 764.6207 13.9649 765.0678 13.2943 765.5149 12.2883 765.8502 9.4941 766.409 8.7117 767.415 8.7117 768.0856 9.4941 768.1974 9.6058 768.6444 10.5 769.3151 11.0589 775.5743 11.0589 778.4803 11.953 784.963 15.1944 786.9749 15.865 787.9809 16.2003 790.8869 17.2063 793.6812 18.8828 798.3756 22.9066 799.2697 23.689 800.2757 24.5832 803.2935 25.8127 811.2293 28.8305 821.624 34.7543 824.6418 35.425 827.6596 35.425 829.448 34.8661 829.895 34.7543 833.4717 32.8542 834.1424 32.5189 834.3659 32.4072 834.7012 32.1836 835.8189 31.9601 838.6132 31.8483 839.8427 31.8483 840.6251 32.5189 840.7369 32.6307 841.1839 34.9779 841.8546 35.9838 842.7487 36.4309 845.3195 36.5427 846.7725 37.6604 847.7784 38.1075 848.8961 37.9957 847.5549 39.8958 849.2315 39.4487 850.6845 39.5605 851.6904 40.4547 851.8022 42.5783 854.0376 42.0195 854.82 42.8019 854.82 44.2549 854.9318 45.2608 868.3443 54.9849 870.0209 55.7673 870.3562 55.8791 871.921 56.5497 872.1446 56.6615 875.3859 58.1145 876.5036 58.0028 886.563 57.4439 887.7925 57.3321 893.8282 58.2263 901.3168 59.344 906.3465 60.1264 906.5701 60.0146 909.2526 59.5675 911.0409 61.0206 911.8233 61.2441 913.947 60.5735 915.4 59.2322 915.4 59.1205 922.1063 47.608 924.4535 46.0432 926.2418 46.3785 928.2537 46.7139 929.5949 46.6021 931.8304 45.7079 932.0539 45.5961 933.2834 45.3726 933.7305 45.5961 934.5129 45.8197 936.7483 47.2727 939.319 48.0551 944.684 49.6199 947.2548 49.8435 949.1549 50.7376 949.7138 50.9612 950.8315 53.4201 951.2785 56.2144 952.2845 58.6734 953.9611 59.9029 954.967 60.0146 955.9729 60.2382 956.0847 60.2382 961.2262 60.0146 963.2381 60.797 964.3558 61.4677 968.0442 63.9266 970.5032 64.9326 972.6268 64.5972 973.0739 64.5972 978.2154 62.6971 980.3391 62.9207 980.4508 62.9207 983.4686 67.3915 985.3688 80.6923 986.9336 82.5924 987.0453 82.5924 989.9514 86.0573 991.1809 95.4461 990.5102 98.0168 990.1749 99.0228 988.0513 101.37 985.8158 103.1583 984.8099 105.0584 984.1393 107.7409 980.6744 112.7706 979.3331 115.4531 978.7743 118.3592 977.5448 129.0892 977.2095 130.3187 976.8741 130.8776 976.6506 131.7717 976.5388 134.0072 976.9859 135.2366 977.9919 135.9073 980.6744 136.1308 981.4568 136.5779 982.9098 137.6956 984.251 139.2604 984.8099 140.8252 984.4746 141.7194 984.0275 142.9488 983.804 143.9548 984.3628 144.2901 984.6981 144.7372 985.1452 145.7431 985.5923 146.8608 985.7041 147.8668 986.1512 148.9845 987.1571 149.6551 988.3866 150.214 989.8396 151.5552 990.7338 151.8905 991.1809 152.5612 991.2926 153.4553 991.1809 155.6908 991.1809 156.6967 993.3045 163.8501 993.9751 167.4267 993.9751 171.7858 994.8693 174.9154 998.2224 178.6039 1000.1226 179.7216 1002.2462 180.0569 1003.5875 180.951 1005.5993 184.6395 1003.9228 186.3161 1003.0286 186.7631 1001.9109 187.0985 1000.3461 186.7631 999.1166 185.9807 997.7754 185.3101 996.7694 185.7572 994.9811 187.5455 994.534 190.5634 994.6458 191.9046 994.9811 193.4694 994.8693 195.146 993.8634 196.9343 992.2986 197.9403 990.1749 196.8226 986.0394 193.693 984.0275 192.687 981.2332 193.0223 978.2154 194.4754 972.7386 198.4991 967.1501 201.0699 965.5853 200.8463 964.0205 201.1816 961.2262 202.5229 957.873 205.2054 956.0847 210.2351 954.7435 212.6941 952.8433 214.4824 948.2607 217.7238 945.69 220.4063 940.4367 222.977 931.048 219.9592 926.4653 220.1827 922.5534 221.4122 916.1824 226.4419 914.0587 228.6773 912.0469 232.5893 911.7116 240.3015 911.2645 242.537 910.4821 244.3253 908.8055 246.2254 907.2407 247.5667 902.6581 248.1255 902.6581 260.1968 903.664 262.6558 905.6759 266.1207 910.2585 271.4857 914.1705 277.5213 909.6997 286.1277 908.9173 287.3572 907.576 289.7044 906.9054 291.9398 906.4583 296.2989 906.9054 299.0932 907.576 301.4404 907.576 303.8993 907.2407 305.9112 900.3109 313.3999 898.1872 315.0765 894.8341 316.8648 891.481 317.5354 883.7688 317.3119 879.1861 313.3999 877.7331 310.4938 876.9507 308.3702 876.7272 307.476 876.6154 306.1348 876.2801 304.6817 875.833 303.6758 875.3859 303.1169 874.8271 302.8934 871.6975 304.4582 870.3562 304.9053 869.3503 304.9053 868.3443 304.4582 867.1149 303.2287 863.8735 301.4404 852.9199 299.5403 851.3551 295.0694 849.6785 291.9398 846.2136 289.2573 842.9723 289.2573 841.9663 289.0338 841.1839 288.5867 840.8486 287.3572 840.9604 286.463 841.5193 284.5629 841.7428 283.1099 841.631 281.7686 841.4075 280.6509 841.2957 280.0921 840.4015 278.5273 839.7309 277.7449 838.725 277.0743 837.0484 277.4096 832.5776 279.8685 831.1245 279.9803 829.895 279.0861 828.8891 276.5154 828.3303 274.28 827.5479 268.5796 826.989 267.1266 825.9831 266.2325 824.3065 265.8971 823.1888 266.1207 821.8475 266.1207 820.3945 265.7854 817.8238 264.4441 815.9237 263.2146 814.3589 260.9792 811.5646 257.9614 802.6229 257.179 797.4814 253.4905 786.4161 248.1255 780.8275 242.8723 778.7039 241.9781 776.0213 241.7546 767.862 243.7664 766.9679 243.8782 761.4911 242.984 757.8026 247.6784 757.0202 249.1315 755.7908 250.6963 754.3377 251.5904 749.1963 252.7081 742.3782 255.3906 738.3545 256.6201 737.0132 256.6201 734.7778 256.173 732.7659 256.2848 730.0834 256.9554 724.7184 259.3026 721.477 261.3145 718.1239 262.0969 715.3296 261.7616 711.3058 258.4085 710.0763 257.0672 709.2939 256.6201 695.4343 256.7319 690.7399 252.9317 693.0871 248.1255 693.3107 245.6666 693.4224 241.0839 695.2108 233.707 697.558 230.3539 697.6697 226.5537 696.6638 225.1007 695.3226 223.4241 692.5283 221.1887 689.6222 219.5121 685.3749 218.2826 678.4451 214.8177 656.985 198.4991 654.5261 195.5931 654.7496 194.6989 655.7556 194.4754 656.3144 194.0283 656.985 193.4694 658.8851 189.8927 658.9969 189.2221 658.9969 188.2162 659.1087 187.7691 659.2205 187.322 660.7853 185.5337 661.5677 184.3042 661.5677 183.5218 661.3441 182.9629 661.0088 182.4041 660.7853 181.6217 660.1146 176.0331 660.4499 174.9154 661.1206 173.2388 661.4559 171.4505 662.2383 163.5147 662.4618 162.2853 662.6854 161.8382 662.9089 161.3911 663.356 160.944 664.2502 160.1616 665.1443 159.7145 666.9327 158.2615 672.8565 158.3733 675.2037 159.1557 677.2156 160.4969 678.8922 162.5088 682.5806 167.762 684.8161 169.8857 687.6103 170.6681 706.7232 166.0855 708.5116 164.5207 710.5234 161.7264 712.4235 159.8263 714.8825 158.7086 721.477 158.3733 722.93 158.8204 724.6066 159.7145 726.6185 162.1735 726.6185 157.7026 727.6244 140.3781 726.0596 130.5422 725.389 128.7539 722.8183 126.742 722.1476 120.2593 718.7945 119.1416 715.7767 114.8943 715.2178 112.7706 715.2178 111.0941 715.4414 109.8646 715.4414 108.0762 715.5531 107.2938 715.7767 106.9585 716.3355 106.8468 719.3534 107.0703 719.8004 106.735 719.9122 105.8408 719.6887 103.8289 718.3474 101.5935 716.4473 100.0287 714.3237 99.2463 709.4057 98.5757 705.1584 96.3403 700.7993 94.4402 692.4165 92.54 689.9575 90.1928 689.734 89.634ZM928.3655 149.4316L927.9184 148.8727 924.3417 142.5018 923.5593 141.4958 919.4238 141.1605 918.9767 142.7253 917.859 143.6195 915.6235 144.2901 910.8174 146.5255 901.8757 152.3376 901.2051 153.4553 899.6403 154.9084 898.5226 155.6908 896.846 156.1378 895.0576 156.3614 891.8163 154.7966 890.8103 155.8025 889.9162 157.1438 889.5809 157.8144 889.1338 159.3792 889.1338 161.1675 890.2515 162.9559 891.2574 164.0736 891.8163 165.4149 892.1516 166.6443 891.0339 172.3447 892.1516 174.2448 892.934 175.1389 893.4928 176.4802 895.0576 177.3744 903.2169 178.045 906.7936 177.3744 910.2585 177.3744 912.0469 178.6039 914.5058 179.7216 915.7353 180.0569 918.7531 180.0569 920.0944 179.1627 920.765 178.3803 921.2121 177.3744 921.6592 176.7037 922.7769 175.6978 924.677 175.1389 930.9362 174.8036 940.2132 176.592 937.3072 170.4446 936.413 167.6503 937.0836 162.1735 938.0895 158.038 938.2013 157.3673 937.9778 156.9202 937.6425 156.1378 936.6365 155.1319 936.0777 152.5612 935.7424 151.1081 934.2893 149.5433 933.6187 147.8668 932.1657 146.6373 929.7067 147.0844 928.8125 148.5374 928.4772 149.4316 928.3655 149.4316Z" />
  <path class="Oberösterreich" d="M444.1727 210.5704L443.8374 208.4468 441.8255 203.9759 432.4367 194.14 431.2073 192.1282 430.0895 189.781 429.4189 187.0985 429.6425 184.416 430.4249 183.0747 431.319 182.7394 432.2132 182.7394 432.9956 182.4041 434.8957 179.3862 435.4546 178.7156 440.7078 175.0272 442.4961 173.0153 444.8433 169.2151 446.0728 167.8738 448.0847 166.7561 455.4616 165.3031 455.3498 164.856 457.3617 163.1794 461.7208 160.7205 466.6387 156.0261 468.7624 154.4613 482.622 148.9845 500.9525 145.7431 505.4233 143.2842 518.3888 131.7717 520.2889 128.6421 521.0713 124.3948 521.2948 123.3889 521.9655 122.3829 522.5243 120.9299 522.7479 118.918 522.5243 113.2177 522.7479 111.3176 523.4185 109.5293 525.2068 105.729 525.5421 103.7172 525.3186 101.9288 524.0891 100.0287 523.5303 96.452 523.0832 95.4461 523.0832 94.7755 523.7538 93.3224 524.9833 92.2047 529.3424 90.6399 533.8132 89.9693 547.5611 93.8813 549.9083 95.1108 552.0319 96.7873 554.1556 99.9169 559.5206 102.3759 559.8559 102.7112 561.0854 97.3462 562.2031 94.999 562.6502 95.1108 565.4444 94.6637 566.4504 94.2166 567.5681 93.0989 568.2387 92.2047 570.4741 87.175 571.2565 84.4925 571.7036 81.5865 571.8154 78.2333 571.1448 71.7506 571.4801 69.2916 573.2684 67.6151 571.5919 66.8327 570.9212 66.162 569.4682 63.3678 568.7976 63.7031 569.1329 61.6912 573.0449 53.3084 578.4099 54.7614 580.9806 56.1026 583.4396 58.0028 586.3457 60.4617 588.9164 61.9147 589.3635 62.1383 591.7107 63.4795 592.1578 63.7031 595.2873 65.3796 596.4051 66.7209 598.6405 70.074 599.5347 71.7506 600.2053 72.4212 601.0994 72.7565 601.8818 73.3154 602.2172 74.5449 601.9936 75.6626 601.9936 75.8861 601.4348 75.9979 600.8759 75.8861 600.7641 75.8861 600.3171 76.2215 599.4229 78.1216 599.3111 78.1216 598.7523 78.3451 598.4169 78.904 599.0876 81.6982 599.6464 82.816 601.9936 85.722 603.1113 86.6162 607.5822 88.6281 626.4715 90.7517 636.7545 94.3284 637.2015 94.4402 637.6486 94.6637 639.2134 95.2226 639.5487 95.3343 639.6605 95.3343 641.0018 95.2226 642.0077 94.7755 644.6902 92.6518 645.0255 92.54 646.4785 91.8694 649.6081 90.5282 651.62 89.634 652.626 88.6281 653.7437 87.5103 656.7615 79.5746 657.2086 79.2393 658.6616 78.2333 661.903 81.9218 667.1562 84.7161 668.721 85.1631 670.7329 84.7161 671.18 84.4925 674.7567 82.816 676.4332 82.5924 676.7685 82.5924 677.6627 83.3748 677.7745 84.6043 677.7745 85.9455 678.2216 86.8397 679.2275 86.9515 681.3512 86.2809 682.1336 86.3926 683.5866 88.2927 684.369 90.1928 685.4867 91.5341 687.6103 91.6459 689.734 89.634 689.9575 90.1928 692.4165 92.54 700.7993 94.4402 705.1584 96.3403 709.4057 98.5757 714.3237 99.2463 716.4473 100.0287 718.3474 101.5935 719.6887 103.8289 719.9122 105.8408 719.8004 106.735 719.3534 107.0703 716.3355 106.8468 715.7767 106.9585 715.5531 107.2938 715.4414 108.0762 715.4414 109.8646 715.2178 111.0941 715.2178 112.7706 715.7767 114.8943 718.7945 119.1416 722.1476 120.2593 722.8183 126.742 725.389 128.7539 726.0596 130.5422 727.6244 140.3781 726.6185 157.7026 726.6185 162.1735 724.6066 159.7145 722.93 158.8204 721.477 158.3733 714.8825 158.7086 712.4235 159.8263 710.5234 161.7264 708.5116 164.5207 706.7232 166.0855 687.6103 170.6681 684.8161 169.8857 682.5806 167.762 678.8922 162.5088 677.2156 160.4969 675.2037 159.1557 672.8565 158.3733 666.9327 158.2615 665.1443 159.7145 664.2502 160.1616 663.356 160.944 662.9089 161.3911 662.6854 161.8382 662.4618 162.2853 662.2383 163.5147 661.4559 171.4505 661.1206 173.2388 660.4499 174.9154 660.1146 176.0331 660.7853 181.6217 661.0088 182.4041 661.3441 182.9629 661.5677 183.5218 661.5677 184.3042 660.7853 185.5337 659.2205 187.322 659.1087 187.7691 658.9969 188.2162 658.9969 189.2221 658.8851 189.8927 656.985 193.4694 656.3144 194.0283 655.7556 194.4754 654.7496 194.6989 654.5261 195.5931 656.985 198.4991 678.4451 214.8177 685.3749 218.2826 689.6222 219.5121 692.5283 221.1887 695.3226 223.4241 696.6638 225.1007 697.6697 226.5537 697.558 230.3539 695.2108 233.707 693.4224 241.0839 693.3107 245.6666 693.0871 248.1255 690.7399 252.9317 682.2453 259.8615 663.1325 267.5737 661.6794 269.5856 661.1206 270.9268 659.6675 272.3799 657.4321 273.4976 653.1848 274.7271 649.8317 276.7389 643.9078 281.3216 640.6664 282.3275 636.7545 282.3275 633.9602 281.5451 631.1659 280.2039 623.5655 274.9506 622.336 274.7271 620.5476 275.1741 615.6297 277.5213 609.147 279.3097 606.4645 281.2098 605.5703 281.2098 604.8997 279.3097 604.6761 277.8567 603.2231 274.0564 597.1875 266.9031 591.3754 267.6855 589.2517 267.2384 585.7868 265.8971 581.763 265.1147 579.9747 264.4441 576.7333 262.4322 575.5039 262.3205 574.0508 262.544 559.8559 269.6974 557.6205 271.4857 555.9439 273.7211 555.1615 276.5154 554.8262 278.9744 554.6026 282.8864 554.7144 284.7865 555.1615 286.9101 556.2792 288.922 557.7322 290.8221 559.4088 292.7222 560.4147 294.3988 561.6442 297.0813 562.3149 300.3227 562.4266 302.8934 561.8678 305.0171 561.4207 305.9112 560.8618 306.4701 557.5087 309.3761 557.1734 310.1585 555.4968 310.6056 554.2673 311.2762 541.8607 308.8173 534.2603 303.8993 529.5659 299.0932 528.4482 296.4107 528.2246 293.3928 529.007 290.8221 531.0189 287.3572 531.8013 285.7924 532.1366 283.7805 531.8013 282.104 529.5659 278.192 534.3721 263.1029 533.8132 261.4263 532.8073 259.638 529.4541 259.1909 526.6598 257.9614 525.4304 257.2908 524.7597 256.6201 524.3127 255.9495 523.642 254.3847 523.8656 253.4905 524.7597 252.8199 530.013 252.4846 532.1366 252.1493 533.8132 250.0256 530.6836 247.2314 506.6528 241.8663 504.5292 240.4133 503.2997 238.7367 502.7408 236.9484 501.0642 229.6833 500.7289 227.1125 500.5054 224.5418 500.8407 218.9532 501.176 216.6061 501.6231 214.9295 502.0702 213.9235 502.8526 213.3647 503.7468 213.1411 507.3234 214.2589 509.2235 214.3706 511.1237 213.9235 512.3531 212.4705 512.4649 210.9057 511.3472 209.5645 510.1177 208.6703 508.7765 207.9997 504.7527 205.0936 495.6992 209.3409 487.987 210.2351 482.9573 209.5645 477.7041 207.7761 477.0334 207.4408 476.3628 206.9937 472.4508 202.8582 469.2095 200.9581 465.8563 200.3992 460.156 200.7345 457.697 201.5169 456.1322 202.8582 455.1263 205.876 454.6792 206.6584 453.1144 207.7761 446.8552 209.4527 444.1727 210.5704Z" />
  <path class="Salzburg" d="M406.2823 278.192L410.8649 273.9447 413.4356 272.7152 418.13 271.5975 422.9362 271.5975 430.4249 273.4976 432.6603 273.1623 431.319 276.6272 433.4427 279.1979 436.9076 281.5451 439.4783 284.1158 435.9017 285.9042 434.2251 290.4868 435.0075 295.293 438.2488 297.9755 440.2607 298.3108 441.602 298.7579 442.7197 299.652 448.7553 306.4701 455.2381 311.388 456.8029 311.9469 457.9206 311.6116 458.9265 310.9409 460.3795 310.9409 461.609 311.6116 462.3914 312.3939 463.1738 312.9528 464.6268 312.841 465.521 312.0586 469.3212 307.476 469.3212 305.9112 468.9859 304.6817 468.5388 303.6758 468.3153 302.5581 468.2035 301.3286 468.2035 297.9755 468.4271 297.4166 469.7683 294.1752 469.8801 293.9517 469.6565 294.0635 469.5448 289.5926 469.8801 289.7044 472.0037 286.9101 472.1155 286.3513 473.6803 282.4393 474.0156 281.9922 474.2392 279.5332 474.3509 277.186 474.0156 274.6153 472.8979 271.821 470.3272 267.3502 468.6506 265.3383 467.0858 264.1088 464.9622 263.7735 461.609 265.2265 459.5971 265.5618 452.2202 264.2206 449.9848 261.9851 452.4438 258.0732 452.5556 258.0732 453.338 256.7319 453.5615 255.3906 453.6733 254.1612 453.8968 252.8199 454.6792 251.2551 463.2856 237.5073 462.615 236.8366 459.7089 232.4776 455.2381 221.9711 453.0026 219.8474 451.8849 219.1768 449.2024 216.4943 446.0728 214.4824 444.9551 212.9176 444.2845 210.9057 444.1727 210.5704 446.8552 209.4527 453.1144 207.7761 454.6792 206.6584 455.1263 205.876 456.1322 202.8582 457.697 201.5169 460.156 200.7345 465.8563 200.3992 469.2095 200.9581 472.4508 202.8582 476.3628 206.9937 477.0334 207.4408 477.7041 207.7761 482.9573 209.5645 487.987 210.2351 495.6992 209.3409 504.7527 205.0936 508.7765 207.9997 510.1177 208.6703 511.3472 209.5645 512.4649 210.9057 512.3531 212.4705 511.1237 213.9235 509.2235 214.3706 507.3234 214.2589 503.7468 213.1411 502.8526 213.3647 502.0702 213.9235 501.6231 214.9295 501.176 216.6061 500.8407 218.9532 500.5054 224.5418 500.7289 227.1125 501.0642 229.6833 502.7408 236.9484 503.2997 238.7367 504.5292 240.4133 506.6528 241.8663 530.6836 247.2314 533.8132 250.0256 532.1366 252.1493 530.013 252.4846 524.7597 252.8199 523.8656 253.4905 523.642 254.3847 524.3127 255.9495 524.7597 256.6201 525.4304 257.2908 526.6598 257.9614 529.4541 259.1909 532.8073 259.638 533.8132 261.4263 534.3721 263.1029 529.5659 278.192 531.8013 282.104 532.1366 283.7805 531.8013 285.7924 531.0189 287.3572 529.007 290.8221 528.2246 293.3928 528.4482 296.4107 529.5659 299.0932 534.2603 303.8993 541.8607 308.8173 540.8548 311.7233 539.8488 315.4118 539.7371 316.8648 540.9666 323.9064 544.8785 337.0954 548.4552 344.3605 552.5908 348.3843 554.938 349.9491 556.8381 350.5079 558.7382 349.8373 560.5265 348.3843 562.7619 347.4901 566.5622 347.043 568.574 345.7018 570.5859 345.0311 572.2625 346.2606 574.4979 350.6197 577.404 355.2023 578.0746 357.1024 578.4099 358.779 579.0805 360.7909 580.0865 362.5792 584.5573 368.2795 588.4693 371.0738 589.587 372.7504 589.2517 374.7623 586.681 378.1154 582.769 381.9156 581.6513 383.704 581.4277 386.1629 581.6513 390.0749 580.9806 392.1986 579.5276 395.9988 573.7155 406.6171 568.574 413.2116 564.7738 408.0701 553.2614 399.1284 548.567 396.6694 545.2139 395.6635 539.29 395.1046 525.8774 392.3103 522.9714 392.0868 510.6766 388.8454 505.4233 387.1689 502.9644 387.3924 500.9525 387.8395 497.5993 391.0809 494.5815 393.5398 487.5399 396.893 482.2867 398.1224 472.3391 398.6813 468.3153 398.2342 465.8563 397.5636 463.6209 396.3341 453.0026 389.4043 446.5199 387.3924 442.2726 386.8336 434.1133 384.8217 427.9659 381.8039 422.7127 378.4507 421.0361 377.6683 419.8066 377.5565 419.136 377.8919 418.8007 378.4507 418.5771 378.8978 418.4653 379.5684 418.2418 380.1273 417.7947 380.7979 417.3476 381.245 415.6711 382.3627 410.4178 377.333 408.1824 376.1035 405.6117 375.4329 402.035 375.2094 398.123 373.8681 394.6581 373.7563 389.9637 374.6505 386.8341 374.6505 384.0398 375.0976 381.8044 376.1035 373.8686 383.8157 362.0209 389.1807 358.3325 391.1926 358.3325 388.7337 355.2029 387.616 348.9437 388.8454 348.9437 388.7337 349.0554 387.9513 348.7201 380.5744 348.1613 378.5625 347.1553 375.88 346.1494 374.874 343.914 372.9739 343.1316 371.7444 342.4609 369.7326 342.1256 367.6089 342.1256 364.0322 342.4609 361.1262 344.2493 353.414 344.0257 349.502 347.7142 347.4901 349.5025 347.1548 353.6381 347.2666 368.5036 341.9015 373.198 338.9955 375.0981 338.7719 376.7747 339.1073 379.6807 340.7838 381.4691 341.3427 383.481 341.4545 387.84 340.7838 390.4108 339.8897 392.0873 338.8837 393.7639 337.3189 395.1052 335.1953 396.3347 331.5068 397.2288 329.7185 398.0112 328.7125 399.0172 328.2655 400.3584 327.9301 406.9529 327.2595 408.4059 326.5889 409.7472 325.6947 410.9767 324.6888 411.9826 323.4593 412.9886 322.0063 415.7828 315.8589 417.1241 313.5117 419.8066 310.1585 420.7008 308.5937 421.3714 307.1407 421.5949 306.3583 421.2596 305.1288 418.6889 298.5343 418.2418 296.1871 418.0183 294.6223 418.6889 293.0575 418.8007 292.1634 418.3536 291.1574 417.1241 289.8162 412.4297 286.6866 409.6354 284.1158 406.2823 278.192Z" />
  <path class="Steiermark" d="M690.7399 252.9317L695.4343 256.7319 709.2939 256.6201 710.0763 257.0672 711.3058 258.4085 715.3296 261.7616 718.1239 262.0969 721.477 261.3145 724.7184 259.3026 730.0834 256.9554 732.7659 256.2848 734.7778 256.173 737.0132 256.6201 738.3545 256.6201 742.3782 255.3906 749.1963 252.7081 754.3377 251.5904 755.7908 250.6963 757.0202 249.1315 757.8026 247.6784 761.4911 242.984 766.9679 243.8782 767.862 243.7664 776.0213 241.7546 778.7039 241.9781 780.8275 242.8723 786.4161 248.1255 797.4814 253.4905 802.6229 257.179 811.5646 257.9614 814.3589 260.9792 815.9237 263.2146 817.8238 264.4441 820.3945 265.7854 821.8475 266.1207 823.1888 266.1207 824.3065 265.8971 825.9831 266.2325 826.989 267.1266 827.5479 268.5796 828.3303 274.28 828.8891 276.5154 829.895 279.0861 831.1245 279.9803 832.5776 279.8685 837.0484 277.4096 838.725 277.0743 839.7309 277.7449 840.4015 278.5273 841.2957 280.0921 841.4075 280.6509 841.631 281.7686 841.7428 283.1099 841.5193 284.5629 840.9604 286.463 840.8486 287.3572 841.1839 288.5867 841.9663 289.0338 842.9723 289.2573 846.2136 289.2573 849.6785 291.9398 851.3551 295.0694 852.9199 299.5403 863.8735 301.4404 867.1149 303.2287 868.3443 304.4582 869.3503 304.9053 870.3562 304.9053 871.6975 304.4582 874.8271 302.8934 875.3859 303.1169 875.833 303.6758 876.2801 304.6817 876.6154 306.1348 876.7272 307.476 876.9507 308.3702 877.7331 310.4938 879.1861 313.3999 883.7688 317.3119 876.0565 325.4712 873.5976 326.8124 873.1505 326.03 872.7034 324.6888 872.0328 323.5711 870.3562 323.7946 869.015 325.1359 867.0031 327.9301 866.556 329.6067 866.7795 331.2833 869.1267 336.8718 870.5798 341.7898 871.8092 347.2666 872.927 354.6435 873.0387 357.773 876.7272 371.968 876.7272 377.2212 875.2741 383.3686 875.4977 385.3805 875.9448 388.063 877.1743 390.2985 881.9804 396.4459 882.3157 398.1224 882.204 399.3519 881.3098 401.4756 877.7331 406.6171 871.3622 415.1117 866.556 419.359 865.5501 421.1473 865.103 423.0474 864.9912 425.0593 864.4323 428.3007 864.5441 429.5301 865.2147 430.4243 866.8913 431.7656 867.4502 432.548 867.6737 432.995 867.7855 435.2305 867.8972 436.0129 867.8972 436.1246 862.4205 437.4659 861.6381 437.913 860.2968 439.2542 860.4086 439.7013 861.0792 440.1484 861.191 441.4897 860.185 447.5253 860.185 448.0842 860.0733 450.9902 860.185 454.3433 861.6381 459.1495 864.5441 460.9378 865.2147 462.3909 865.8854 463.7321 865.9971 463.9557 866.3325 468.4265 863.7617 465.2969 862.3087 464.1792 859.738 463.7321 856.9437 463.285 847.8902 458.7024 844.2018 457.92 840.5133 458.2553 835.3718 460.379 831.4598 461.9438 827.8832 462.1673 817.712 460.6025 815.5883 459.2613 815.1413 462.2791 815.1413 464.7381 814.3589 466.4146 813.6882 466.9735 813.0176 467.4206 811.2293 467.9794 809.2174 467.4206 806.4231 467.4206 803.6288 468.203 801.5052 469.7678 800.2757 472.4503 800.1639 472.8974 799.8286 474.6857 799.2697 475.8034 798.9344 476.5858 796.4755 478.5977 792.4517 479.2683 789.4339 477.3682 788.875 476.8094 786.5278 474.7975 782.5041 473.2327 775.1272 473.6798 758.138 474.5739 753.8906 474.1268 744.949 473.1209 744.8372 473.0091 743.7195 471.6679 735.4484 462.0556 733.8836 457.4729 733.5483 450.9902 731.9835 444.0604 729.9716 439.366 729.301 436.7953 729.0774 435.0069 729.301 433.8892 729.9716 431.542 730.8658 429.8655 731.6482 427.4065 731.9835 421.5944 721.477 405.4993 716.2238 399.0166 714.2119 397.4518 712.8706 396.5576 710.8587 396.2223 696.105 399.6872 679.6746 401.0285 676.0979 399.4637 667.3798 400.1343 663.8031 399.799 650.167 404.6052 647.8198 404.4934 646.5903 404.2699 646.255 403.711 644.9138 402.5933 642.6783 401.5873 633.1778 398.5695 627.8128 394.7693 624.3479 393.2045 619.6535 393.0927 615.7415 393.8751 601.2112 400.805 599.0876 402.3697 597.9699 403.711 597.411 404.7169 596.8521 406.0582 594.8403 409.5231 589.8106 411.9821 581.6513 418.353 579.3041 419.1354 576.8451 419.359 575.6156 418.8001 573.7155 417.4589 568.574 413.2116 573.7155 406.6171 579.5276 395.9988 580.9806 392.1986 581.6513 390.0749 581.4277 386.1629 581.6513 383.704 582.769 381.9156 586.681 378.1154 589.2517 374.7623 589.587 372.7504 588.4693 371.0738 584.5573 368.2795 580.0865 362.5792 579.0805 360.7909 578.4099 358.779 578.0746 357.1024 577.404 355.2023 574.4979 350.6197 572.2625 346.2606 570.5859 345.0311 568.574 345.7018 566.5622 347.043 562.7619 347.4901 560.5265 348.3843 558.7382 349.8373 556.8381 350.5079 554.938 349.9491 552.5908 348.3843 548.4552 344.3605 544.8785 337.0954 540.9666 323.9064 539.7371 316.8648 539.8488 315.4118 540.8548 311.7233 541.8607 308.8173 554.2673 311.2762 555.4968 310.6056 557.1734 310.1585 557.5087 309.3761 560.8618 306.4701 561.4207 305.9112 561.8678 305.0171 562.4266 302.8934 562.3149 300.3227 561.6442 297.0813 560.4147 294.3988 559.4088 292.7222 557.7322 290.8221 556.2792 288.922 555.1615 286.9101 554.7144 284.7865 554.6026 282.8864 554.8262 278.9744 555.1615 276.5154 555.9439 273.7211 557.6205 271.4857 559.8559 269.6974 574.0508 262.544 575.5039 262.3205 576.7333 262.4322 579.9747 264.4441 581.763 265.1147 585.7868 265.8971 589.2517 267.2384 591.3754 267.6855 597.1875 266.9031 603.2231 274.0564 604.6761 277.8567 604.8997 279.3097 605.5703 281.2098 606.4645 281.2098 609.147 279.3097 615.6297 277.5213 620.5476 275.1741 622.336 274.7271 623.5655 274.9506 631.1659 280.2039 633.9602 281.5451 636.7545 282.3275 640.6664 282.3275 643.9078 281.3216 649.8317 276.7389 653.1848 274.7271 657.4321 273.4976 659.6675 272.3799 661.1206 270.9268 661.6794 269.5856 663.1325 267.5737 682.2453 259.8615 690.7399 252.9317Z" />
  <path class="Tirol" d="M88.0697 350.955L96.6761 349.8373 99.5822 348.7196 105.5061 345.0311 108.0768 342.6839 110.5358 339.4426 113.4418 333.5187 114.2242 332.2892 115.6772 331.2833 118.4715 330.3891 119.5892 329.6067 121.8246 326.5889 123.7248 322.6769 124.9542 318.2061 124.9542 313.9587 124.3954 311.4998 123.613 309.8232 122.4953 308.482 120.5952 307.476 121.9364 299.652 122.16 297.8637 121.2658 295.6283 120.1481 293.3928 119.9245 291.7163 121.9364 290.9339 124.1718 290.4868 125.1778 290.1515 125.6249 290.4868 126.1837 292.3869 126.0719 293.1693 125.4013 294.0635 124.9542 295.293 125.1778 296.9695 125.8484 297.9755 126.9661 298.6461 128.978 299.652 134.6783 300.5462 136.2431 300.2109 137.9197 298.8696 140.714 295.0694 142.5023 293.8399 145.7437 293.8399 163.2917 300.5462 163.8506 301.1051 164.2977 302.111 164.9683 303.1169 166.086 303.4523 169.998 303.0052 175.363 300.5462 177.2631 299.9873 179.1633 300.0991 180.5045 300.8815 183.6341 303.2287 182.5164 304.57 178.1573 307.476 179.0515 309.0408 185.9813 312.2822 192.5758 319.4355 193.0229 320.3297 193.0229 321.671 192.7993 323.0122 192.3523 323.9064 192.0169 323.9064 193.3582 326.5889 195.2583 327.7066 209.1179 327.9301 211.6887 327.1477 220.4068 321.1121 223.76 320.1062 226.666 321.3356 226.3307 326.7007 229.5721 327.036 232.4781 325.6947 234.3782 323.6828 236.0548 321.2239 238.6255 318.8767 241.1963 318.0943 246.8966 317.9825 249.132 316.9766 250.2497 315.0765 249.6909 313.6234 248.2378 312.6175 246.673 312.1704 252.9322 304.9053 255.9501 304.2347 259.1914 304.6817 262.2092 305.5759 268.4684 304.57 271.3745 303.4523 273.8334 300.7697 274.5041 298.8696 275.51 294.287 276.4042 292.2751 280.2044 289.0338 280.6515 288.4749 283.1105 288.4749 288.9226 289.7044 299.7644 289.7044 307.253 291.2692 308.5943 290.8221 309.9355 287.469 311.5003 286.5748 322.6774 284.2276 353.3028 285.5689 354.3087 285.3453 358.1089 280.5392 358.556 279.1979 358.7795 277.4096 358.556 272.1563 358.1089 271.0386 357.4383 270.5915 356.4323 269.4738 355.4264 268.1326 354.9793 267.1266 354.7558 265.4501 356.7677 264.5559 360.009 261.9851 361.1267 261.2028 363.1386 260.3086 363.4739 260.3086 363.0268 261.2028 362.6915 263.3264 362.2444 264.8912 361.3503 266.0089 360.9032 267.4619 361.6856 269.5856 363.0268 270.8151 364.4799 270.5915 367.3859 269.0267 370.292 268.5796 378.0042 270.2562 380.2396 269.9209 385.4928 267.909 387.7283 268.2443 388.2871 269.4738 389.7402 273.6094 390.4108 275.2859 391.5285 276.5154 395.4405 279.7568 397.3406 280.6509 400.0231 280.7627 402.9292 280.2039 404.941 279.3097 406.2823 278.192 409.6354 284.1158 412.4297 286.6866 417.1241 289.8162 418.3536 291.1574 418.8007 292.1634 418.6889 293.0575 418.0183 294.6223 418.2418 296.1871 418.6889 298.5343 421.2596 305.1288 421.5949 306.3583 421.3714 307.1407 420.7008 308.5937 419.8066 310.1585 417.1241 313.5117 415.7828 315.8589 412.9886 322.0063 411.9826 323.4593 410.9767 324.6888 409.7472 325.6947 408.4059 326.5889 406.9529 327.2595 400.3584 327.9301 399.0172 328.2655 398.0112 328.7125 397.2288 329.7185 396.3347 331.5068 395.1052 335.1953 393.7639 337.3189 392.0873 338.8837 390.4108 339.8897 387.84 340.7838 383.481 341.4545 381.4691 341.3427 379.6807 340.7838 376.7747 339.1073 375.0981 338.7719 373.198 338.9955 368.5036 341.9015 353.6381 347.2666 349.5025 347.1548 347.7142 347.4901 344.0257 349.502 344.2493 353.414 342.4609 361.1262 342.1256 364.0322 342.1256 367.6089 342.4609 369.7326 343.1316 371.7444 343.914 372.9739 346.1494 374.874 347.1553 375.88 348.1613 378.5625 348.7201 380.5744 349.0554 387.9513 348.9437 388.7337 348.9437 388.8454 346.7083 389.2925 333.1839 396.3341 323.6834 396.7812 317.7595 398.9048 312.171 401.9227 307.5883 405.6111 301.4409 406.5053 299.9879 407.5112 297.4172 409.6349 295.8524 409.9702 293.3934 409.076 289.0343 405.8347 286.5754 405.6111 285.5694 405.7229 284.5635 405.6111 284.3399 405.6111 284.2282 405.6111 277.4101 404.1581 274.2805 404.4934 270.3685 405.6111 269.0273 406.2817 267.7978 406.5053 266.5683 406.2817 265.4506 405.6111 264.78 404.7169 263.9976 403.9345 263.2152 403.4875 260.868 402.9286 259.5267 403.1521 258.2972 404.0463 257.2913 405.6111 252.7087 410.082 248.6849 409.8584 244.5494 407.8465 239.7432 406.7288 230.4662 408.2936 221.1892 411.3114 218.842 412.7645 210.2356 421.3708 209.1179 423.718 207.6649 430.6479 205.2059 436.5717 205.0942 437.3541 205.2059 439.366 204.9824 440.3719 204.4235 441.0426 202.9705 441.6014 202.4117 442.1603 199.3938 447.3018 197.6055 449.3136 195.7054 449.5372 193.3582 448.7548 188.7756 448.3077 186.4284 448.643 182.0693 450.096 180.7281 450.2078 179.3868 449.649 177.0396 447.7488 175.9219 447.0782 174.4689 447.0782 172.0099 447.8606 170.6686 447.7488 166.8684 445.6252 165.3036 445.0663 162.5094 445.9605 161.0563 445.8487 160.2739 444.1722 160.8328 443.278 163.8506 440.819 164.5212 439.4778 163.18 437.4659 153.0088 431.4303 150.9969 430.8714 148.538 431.0949 135.0136 434.8952 129.5369 434.2245 125.1778 430.7596 124.8425 426.5123 126.519 419.9178 125.8484 416.6765 124.6189 415.2234 120.1481 411.6468 117.3538 407.0641 115.9008 405.6111 115.2301 405.164 114.4477 405.0523 113.7771 405.164 109.8651 407.3994 106.512 411.1997 104.1648 415.6705 104.1648 419.359 100.8117 419.4707 98.2409 418.8001 96.1173 419.2472 93.9936 422.7121 93.4348 425.1711 93.323 426.7359 92.9877 428.3007 91.5347 430.2008 85.7226 433.2186 82.3694 434.2245 81.3635 434.1128 81.2517 433.5539 78.9045 427.1829 75.8867 422.265 75.5514 420.2531 75.9985 418.6883 77.675 416.4529 79.3516 414.9999 80.8046 412.988 81.587 410.6408 82.0341 407.1759 81.9223 405.0523 81.4752 402.3697 81.3635 400.0226 81.587 397.0047 83.1518 389.1807 84.4931 385.4923 89.6345 377.6683 91.6464 372.7504 91.9817 367.2736 91.87 365.3735 90.1934 356.5436 88.0697 350.955ZM358.3325 391.1926L362.0209 389.1807 373.8686 383.8157 381.8044 376.1035 384.0398 375.0976 386.8341 374.6505 389.9637 374.6505 394.6581 373.7563 398.123 373.8681 402.035 375.2094 405.6117 375.4329 408.1824 376.1035 410.4178 377.333 415.6711 382.3627 416.0064 386.1629 417.1241 387.616 418.8007 389.069 430.3131 392.981 431.4308 394.434 431.319 396.5576 429.6425 400.5814 429.3072 402.0344 429.0836 403.4875 429.0836 404.2699 429.1954 405.164 429.6425 407.0641 430.5366 408.7407 431.8779 410.529 432.9956 412.7645 435.6781 415.2234 437.0194 416.2294 438.6959 418.0177 439.7019 420.1414 440.3725 422.8239 440.7078 425.3946 441.602 428.4124 442.9432 430.4243 449.0906 436.907 457.1382 448.0842 457.9206 449.649 457.8088 450.3196 457.697 450.6549 457.4735 451.2138 457.0264 451.6608 456.5793 451.7726 455.4616 451.5491 450.7672 447.9724 449.3142 447.4135 447.7494 447.6371 442.3844 449.9843 430.5366 451.7726 427.6306 453.2256 427.2953 456.5788 426.6246 458.926 425.6187 461.7202 421.2596 470.4384 420.589 471.8914 420.3655 471.7796 413.771 471.109 406.0587 472.2267 404.0469 472.0032 401.9232 470.8855 397.7877 468.0912 393.7639 467.4206 390.5226 466.8617 385.1575 464.6263 380.5749 460.4908 378.0042 454.3433 376.8865 450.096 374.651 448.643 371.8568 448.1959 369.0625 447.19 367.833 446.2958 367.0506 445.5134 366.7153 444.1722 366.7153 441.6014 367.0506 439.366 367.6095 438.0248 367.9448 436.6835 367.9448 434.2245 366.7153 429.9772 364.5916 428.5242 359.0031 428.3007 357.2147 427.63 356.3206 426.7359 355.6499 425.5064 354.0851 423.9416 352.6321 423.1592 349.5025 422.6003 348.0495 422.0415 350.0614 420.1414 350.0614 418.353 349.1672 416.4529 348.273 414.3293 347.4906 409.8584 346.9318 407.623 346.0376 405.6111 347.3789 402.258 355.4264 397.6754 358.3325 393.8751 358.3325 391.1926Z" />
  <path class="Vorarlberg" d="M88.0697 350.955L90.1934 356.5436 91.87 365.3735 91.9817 367.2736 91.6464 372.7504 89.6345 377.6683 84.4931 385.4923 83.1518 389.1807 81.587 397.0047 81.3635 400.0226 81.4752 402.3697 81.9223 405.0523 82.0341 407.1759 81.587 410.6408 80.8046 412.988 79.3516 414.9999 77.675 416.4529 75.9985 418.6883 75.5514 420.2531 75.8867 422.265 78.9045 427.1829 81.2517 433.5539 81.3635 434.1128 79.5751 434.1128 73.763 432.2127 70.857 430.5361 65.7155 425.6182 51.4088 420.9238 48.0557 418.4648 46.3791 416.0058 46.1556 414.2175 46.6026 412.0938 46.938 407.5112 47.4968 405.6111 47.4968 404.4934 46.938 403.9345 46.1556 403.9345 45.5967 403.4875 45.8202 401.252 20.6717 393.3163 18.4363 392.981 11.3947 393.7634 8.9358 393.2045 9.9417 391.975 12.1771 389.069 12.6242 388.5101 13.5184 383.3686 13.2948 382.5862 12.736 380.3508 12.1771 378.4507 9.0475 373.9799 7.0356 372.7504 5.0238 371.6327 5.0238 369.9561 6.365 366.9383 6.4768 365.597 5.3591 362.8028 4.1296 361.1262 3.459 359.4496 3.9061 358.3319 4.3531 356.6553 2.6766 355.0905 2.1177 354.6435 1 352.8551 5.2473 345.4782 9.8299 340.0014 10.277 338.6602 10.9476 335.1953 11.6183 333.4069 16.7597 326.9242 18.101 323.9064 18.2128 315.6353 14.3008 312.1704 9.3828 309.935 5.4708 304.0111 5.2473 302.7816 4.4649 299.3167 4.8002 299.5403 5.3591 299.652 13.1831 301.7757 21.6777 301.6639 25.2543 299.9873 27.2662 296.9695 28.831 293.2811 31.7371 289.9279 33.749 288.922 35.7608 288.6985 37.5492 289.3691 39.114 291.0457 39.5611 293.3928 39.3375 295.8518 39.8964 297.8637 42.5789 299.3167 43.5848 299.205 45.2614 298.199 45.932 297.9755 49.9558 299.4285 53.8678 299.7638 55.8796 299.4285 57.5562 298.0872 57.8915 301.3286 59.3446 303.2287 61.0211 304.9053 62.1388 307.476 62.1388 308.1466 62.2506 308.7055 62.4741 309.8232 63.9272 310.7174 65.0449 310.2703 66.2744 309.1526 67.7274 308.482 74.3219 318.0943 75.4396 320.4415 74.8807 322.5651 71.8629 324.9123 73.316 326.5889 73.6513 328.6008 73.763 330.7244 74.4337 332.6245 75.7749 333.854 76.6691 333.854 77.675 333.0716 79.4634 332.2892 80.134 332.2892 81.4752 333.1834 82.1459 333.1834 82.7047 332.7363 84.2695 330.948 90.1934 329.942 92.6524 331.2833 92.5406 334.7482 90.0816 342.0133 90.4169 343.3546 90.5287 344.584 90.1934 345.8135 89.5228 346.4842 87.7344 347.043 87.1756 347.3783 85.9461 349.6138 85.499 350.8432 86.0579 351.1785 88.0697 350.955Z" />
  <path class="Wien" d="M928.3655 149.4316L928.4772 149.4316 928.8125 148.5374 929.7067 147.0844 932.1657 146.6373 933.6187 147.8668 934.2893 149.5433 935.7424 151.1081 936.0777 152.5612 936.6365 155.1319 937.6425 156.1378 937.9778 156.9202 938.2013 157.3673 938.0895 158.038 937.0836 162.1735 936.413 167.6503 937.3072 170.4446 940.2132 176.592 930.9362 174.8036 924.677 175.1389 922.7769 175.6978 921.6592 176.7037 921.2121 177.3744 920.765 178.3803 920.0944 179.1627 918.7531 180.0569 915.7353 180.0569 914.5058 179.7216 912.0469 178.6039 910.2585 177.3744 906.7936 177.3744 903.2169 178.045 895.0576 177.3744 893.4928 176.4802 892.934 175.1389 892.1516 174.2448 891.0339 172.3447 892.1516 166.6443 891.8163 165.4149 891.2574 164.0736 890.2515 162.9559 889.1338 161.1675 889.1338 159.3792 889.5809 157.8144 889.9162 157.1438 890.8103 155.8025 891.8163 154.7966 895.0576 156.3614 896.846 156.1378 898.5226 155.6908 899.6403 154.9084 901.2051 153.4553 901.8757 152.3376 910.8174 146.5255 915.6235 144.2901 917.859 143.6195 918.9767 142.7253 919.4238 141.1605 923.5593 141.4958 924.3417 142.5018 927.9184 148.8727 928.3655 149.4316Z" />
</svg>