<?xml version="1.0" encoding="utf-8"?>
<svg xmlns="http://www.w3.org/2000/svg" viewBox="0 0 992 1024" style="stroke-width:0.25px;stroke-linejoin:round;stroke:#444;fill:#ddd" fill-rule="evenodd">
  <path class="Eastern" d="M705.9711 879.8389L705.8593 879.8389 681.9403 870.3384 673.4457 865.4205 662.3803 860.7261 653.7739 858.2671 649.8619 857.82 645.6146 857.7083 641.5909 857.1494 638.126 856.2552 636.7847 855.3611 636.2259 853.7963 636.5612 846.4194 635.667 838.7072 635.667 831.7773 635.8905 829.6537 634.7728 814.8999 635.1081 811.435 635.7788 808.8642 643.2674 800.9285 643.8263 799.9226 638.9084 793.3281 637.7906 792.2103 636.4494 791.2044 634.9964 790.5338 633.208 790.0867 631.3079 789.9749 629.5196 790.1985 626.39 791.7633 623.8193 793.6634 613.5363 805.8464 606.2712 812.4409 605.0417 813.4469 603.4769 814.2293 601.9121 814.7881 600.1238 814.7881 598.4472 814.341 596.8824 813.5586 595.3176 812.9998 593.7528 808.976 592.5233 801.8227 591.0703 784.051 589.282 776.4506 587.6054 772.0915 584.2523 770.862 583.2463 770.0796 583.1345 769.409 592.188 764.044 602.6945 756.5553 603.924 755.8847 605.1535 755.9965 606.0476 756.8906 606.9418 758.3437 608.1713 761.585 609.1772 762.8145 610.6303 763.1498 612.3068 762.8145 613.6481 762.0321 614.8776 760.9144 616.5541 758.1201 617.8954 754.9905 619.1249 747.2783 619.6837 745.6018 620.3543 744.1487 620.6897 742.2486 620.2426 739.7897 614.7658 725.7065 614.0952 725.0359 613.0892 725.5947 612.0833 726.4889 607.2771 732.8598 606.3829 733.8658 605.4888 734.0893 604.8182 732.301 604.4828 729.6185 604.7064 721.571 607.9477 706.3701 608.6184 704.8053 609.5125 703.464 630.6373 688.1514 631.755 687.0337 635.667 682.5628 638.2377 680.8862 639.4672 679.7685 640.4732 678.5391 641.3673 677.1978 642.7086 674.0682 644.4969 667.1384 644.944 663.4499 644.8322 659.7615 643.6028 650.9316 643.3792 638.4132 642.1497 631.8187 634.1022 609.5762 633.6551 607.7879 633.4316 605.9996 633.4316 604.4348 633.5433 603.2053 633.6551 601.6405 632.6492 599.4051 630.5255 596.2755 608.2831 574.033 594.3117 555.9261 588.7231 550.4493 587.2701 549.5551 580.3403 542.9606 579.3343 540.9487 578.4402 538.2662 578.2166 533.1248 578.6637 527.5362 578.2166 525.4125 577.0989 522.8418 572.4045 517.2532 569.4985 514.7943 567.0395 510.2117 563.5746 496.352 570.7279 489.8693 575.9812 486.0691 577.7695 485.0631 580.005 484.2807 583.6934 483.7219 586.2641 483.7219 588.4996 483.9454 593.4175 485.7338 595.2058 486.0691 596.9942 486.1809 599.0061 486.0691 615.4364 481.9336 617.2248 481.9336 618.7895 482.3806 620.2426 483.163 622.5898 485.2867 624.0428 486.0691 625.7194 486.5162 627.3959 486.6279 628.849 487.1868 630.1902 488.081 631.3079 489.1987 632.5374 490.2046 633.8787 490.8752 635.7788 490.4282 637.4553 489.3105 639.3554 486.7397 641.2556 482.9395 645.5029 469.974 645.6146 468.9681 645.6146 467.4033 645.2793 465.9503 644.6087 464.3855 642.7086 461.8147 642.038 460.2499 641.8144 458.5734 642.5968 455.1085 645.9499 444.9373 646.6206 441.2488 646.6206 439.3487 646.1735 437.5604 645.3911 435.9956 643.6028 433.0895 643.0439 431.6365 642.7086 429.8482 642.9321 421.5771 641.5909 407.6057 642.1497 406.1527 643.0439 404.9232 644.6087 403.582 652.2091 398.5523 655.0034 396.2051 657.0153 393.7461 657.7977 392.4048 661.2626 384.5809 667.2982 365.9151 668.1924 364.5738 669.1983 363.3443 672.2162 361.7795 696.0234 353.2849 699.0413 351.8319 708.6536 345.3492 711.0008 343.1138 712.7891 340.4312 713.5715 338.9782 714.1304 337.3017 714.3539 335.6251 714.801 329.0306 715.5834 325.4539 716.9246 322.2125 720.3895 316.624 721.3955 315.3945 722.8485 314.165 724.7486 313.0473 727.8782 311.7061 730.3372 310.9237 732.6844 310.5883 766.104 314.9474 769.1218 315.7298 771.2454 316.7358 775.7163 321.2066 781.8637 328.807 784.0991 331.0425 787.564 333.725 787.6758 333.725 809.1359 349.0376 813.4949 351.3848 815.5068 351.9437 817.9658 352.1672 821.766 351.8319 831.4901 349.0376 833.6138 348.8141 835.6256 348.8141 843.0025 350.3789 847.0263 350.6024 851.2736 350.3789 853.509 349.4847 855.4091 348.0317 857.421 344.5668 857.421 342.6667 856.5268 341.2136 850.4912 338.084 849.1499 337.1899 848.2558 336.0722 847.8087 335.0662 847.9205 334.1721 848.0322 333.8367 848.144 333.6132 867.9275 320.8713 873.6278 319.6418 886.1462 319.9771 886.258 319.9771 886.4815 320.8713 881.4518 340.4312 879.887 351.9437 880.4459 376.0862 881.0047 379.3276 883.9108 388.7164 884.0226 390.1694 883.6872 393.6343 883.799 394.8638 884.9167 396.2051 887.2639 397.7699 888.2699 398.5523 901.5706 416.4356 906.4886 420.0123 908.2769 423.2537 922.3601 442.0312 919.7893 449.1846 915.3185 455.5556 909.1711 459.9146 901.6824 460.4735 895.0879 461.8147 888.7169 467.068 883.5755 474.1096 878.3222 483.7219 873.2925 488.5281 871.0571 492.44 870.2747 496.9109 870.2747 500.8229 869.3805 503.3936 865.9156 503.8407 861.2212 532.3424 856.4151 540.3899 850.3794 547.4315 842.8908 558.4968 839.5376 569.2268 846.1321 575.1507 848.4793 564.0854 854.962 557.1556 864.2391 554.1377 874.9691 554.6966 879.887 556.7085 889.164 562.8559 892.6289 563.5265 898.6646 561.1793 910.0652 553.5789 929.4017 534.6895 933.4254 529.5481 941.2494 513.3413 944.4908 508.8704 948.291 505.2937 952.4265 502.6112 957.3444 500.8229 967.2921 499.3699 969.4157 499.4816 978.3574 502.2759 981.0399 503.7289 983.8342 504.6231 987.5227 504.176 987.2991 521.1652 977.2397 561.6264 971.5394 574.2565 970.8688 581.6334 973.216 591.0222 975.7867 597.505 974.8925 603.6524 966.845 611.4763 960.474 615.1648 954.1031 617.1767 947.3968 618.1826 921.0188 618.2944 914.5361 619.3003 906.8239 623.1006 902.0177 629.1362 894.4173 643.2194 890.9524 646.5725 882.6813 651.1551 879.7752 653.6141 878.434 656.6319 877.9869 660.5439 878.7693 740.2367 871.2806 741.3545 868.9334 742.2486 853.509 750.6315 841.1024 761.138 797.5117 814.4528 794.0468 818.7001 790.4701 821.6062 786.111 823.5063 773.7044 826.3006 760.2919 833.901 711.7832 872.3503 705.9711 879.8389Z" />
  <path class="Northern" d="M886.258 319.9771L886.1462 319.9771 873.6278 319.6418 867.9275 320.8713 848.144 333.6132 848.0322 333.8367 847.9205 334.1721 847.8087 335.0662 848.2558 336.0722 849.1499 337.1899 850.4912 338.084 856.5268 341.2136 857.421 342.6667 857.421 344.5668 855.4091 348.0317 853.509 349.4847 851.2736 350.3789 847.0263 350.6024 843.0025 350.3789 835.6256 348.8141 833.6138 348.8141 831.4901 349.0376 821.766 351.8319 817.9658 352.1672 815.5068 351.9437 813.4949 351.3848 809.1359 349.0376 787.6758 333.725 787.564 333.725 784.0991 331.0425 781.8637 328.807 775.7163 321.2066 771.2454 316.7358 769.1218 315.7298 766.104 314.9474 732.6844 310.5883 730.3372 310.9237 727.8782 311.7061 724.7486 313.0473 722.8485 314.165 721.3955 315.3945 720.3895 316.624 716.9246 322.2125 715.5834 325.4539 714.801 329.0306 714.3539 335.6251 714.1304 337.3017 713.5715 338.9782 712.7891 340.4312 711.0008 343.1138 708.6536 345.3492 699.0413 351.8319 696.0234 353.2849 672.2162 361.7795 669.1983 363.3443 668.1924 364.5738 667.2982 365.9151 661.2626 384.5809 657.7977 392.4048 657.0153 393.7461 655.0034 396.2051 652.2091 398.5523 644.6087 403.582 643.0439 404.9232 642.1497 406.1527 641.5909 407.6057 642.9321 421.5771 642.7086 429.8482 643.0439 431.6365 643.6028 433.0895 645.3911 435.9956 646.1735 437.5604 646.6206 439.3487 646.6206 441.2488 645.9499 444.9373 642.5968 455.1085 641.8144 458.5734 642.038 460.2499 642.7086 461.8147 644.6087 464.3855 645.2793 465.9503 645.6146 467.4033 645.6146 468.9681 645.5029 469.974 641.2556 482.9395 639.3554 486.7397 637.4553 489.3105 635.7788 490.4282 633.8787 490.8752 632.5374 490.2046 631.3079 489.1987 630.1902 488.081 628.849 487.1868 627.3959 486.6279 625.7194 486.5162 624.0428 486.0691 622.5898 485.2867 620.2426 483.163 618.7895 482.3806 617.2248 481.9336 615.4364 481.9336 599.0061 486.0691 596.9942 486.1809 595.2058 486.0691 593.4175 485.7338 588.4996 483.9454 586.2641 483.7219 583.6934 483.7219 580.005 484.2807 577.7695 485.0631 575.9812 486.0691 570.7279 489.8693 563.5746 496.352 556.1977 501.27 551.3915 502.1641 532.8375 501.27 529.0373 501.7171 525.3488 502.723 518.1955 505.9644 516.2954 507.1938 515.2894 508.4233 514.6188 509.9881 514.2835 511.8882 513.6129 520.0475 512.0481 527.4244 510.595 529.9952 508.3596 532.9012 500.7592 540.0546 498.6355 541.5076 483.3229 548.1021 477.399 549.7787 468.6809 550.4493 460.4098 549.7787 448.115 546.5373 442.1911 542.9606 439.9557 542.1782 437.6085 542.8488 434.2553 544.6372 432.0199 545.3078 430.008 545.3078 425.8725 544.3019 420.6193 544.6372 417.6014 545.7549 415.4778 545.8667 413.8012 545.7549 412.907 546.7608 407.0949 554.473 406.3125 555.9261 405.9772 557.7144 405.9772 559.391 406.5361 560.9558 409.6657 566.9914 410.6716 568.2209 412.0129 569.0033 413.3541 569.6739 414.2483 571.0152 415.366 574.2565 415.7013 575.9331 415.7013 577.6097 415.0307 581.1864 413.8012 583.0865 412.5717 583.0865 409.2186 582.4158 407.4303 582.1923 405.7537 581.6334 404.4124 580.7393 403.1829 579.6216 401.1711 577.0508 400.3887 575.5978 398.6003 570.5681 397.5944 569.2268 396.2531 568.2209 380.1581 561.9617 360.2628 550.6728 357.9156 549.7787 351.4329 548.8845 346.6267 548.7727 343.8325 549.2198 341.597 549.7787 332.2083 553.8024 329.5257 554.2495 327.4021 553.9142 326.0608 553.1318 324.496 552.4612 321.9253 552.0141 312.6483 552.2376 309.5187 552.7965 307.2833 553.6906 304.9361 556.0378 302.9242 557.4909 300.0182 559.5028 290.0705 563.7501 288.6175 564.6442 287.4998 565.7619 286.4938 566.9914 284.3702 571.6858 283.3642 573.5859 281.6877 575.1507 278.5581 576.7155 276.7697 576.492 275.5403 575.486 274.8696 573.9212 273.9755 572.4682 272.6342 571.4623 271.1812 570.6799 246.2562 569.3386 244.0208 568.668 242.9031 567.5503 242.0089 566.209 241.4501 564.5325 241.1147 562.6323 240.8912 558.7204 240.6677 556.932 239.5499 555.7025 238.2087 554.8084 235.0791 553.4671 229.3788 552.6847 223.3431 552.7965 220.4371 552.0141 218.7605 550.6728 217.9781 549.2198 216.9722 547.8785 215.7427 546.9844 214.0661 546.3138 212.166 545.9784 201.436 546.202 203.4479 543.0724 207.5834 539.831 212.9484 539.831 217.0839 539.831 219.2076 537.7074 222.3372 530.2187 223.4549 524.9655 226.5845 520.6064 227.7022 517.4768 227.7022 507.8645 227.7022 501.4935 229.8259 502.4994 232.9554 502.4994 236.085 504.6231 237.2028 505.7408 239.3264 509.9881 242.456 515.3531 243.4619 516.3591 244.5796 517.4768 246.7033 518.4827 249.8329 518.4827 250.8388 516.3591 251.9565 511.1058 256.2039 511.1058 261.4571 508.8704 264.5867 508.8704 271.9636 506.7468 275.205 504.6231 278.3345 502.4994 280.4582 502.4994 286.7174 501.4935 288.841 500.3758 293.0883 498.2521 304.7125 494.0048 307.8421 489.7575 312.0894 489.7575 320.584 489.7575 322.5959 487.6339 326.8432 481.1512 328.9669 478.0216 334.2201 474.7802 331.0905 471.5388 325.8373 470.5329 320.584 464.0502 320.584 461.9265 320.584 458.7969 319.4663 452.3142 315.219 455.5556 306.8362 452.3142 305.7185 449.1846 297.3356 448.0669 297.3356 447.0609 297.3356 443.8196 297.3356 440.5782 299.4593 439.5723 299.4593 435.325 302.5889 432.0836 304.7125 435.325 309.9658 435.325 313.0954 435.325 316.3367 435.325 321.59 430.9659 322.5959 425.7127 316.3367 423.589 308.9598 419.2299 307.8421 409.6176 307.8421 405.3703 307.8421 402.1289 311.0835 402.1289 314.2131 403.2466 318.4604 403.2466 321.59 397.8816 322.5959 391.5107 322.5959 387.2634 319.4663 380.7806 318.4604 380.7806 315.219 375.5274 312.0894 369.0447 313.0954 366.921 314.2131 363.7914 317.3427 363.7914 318.4604 371.1683 326.8432 368.0387 327.9609 368.0387 335.3378 365.9151 335.3378 364.7974 337.4615 364.7974 339.4734 350.9377 339.4734 348.8141 340.5911 348.8141 340.5911 345.5727 339.4734 344.455 334.2201 343.4491 323.7136 343.4491 317.3427 338.084 311.0835 323.1067 309.9658 317.7417 306.8362 313.4944 304.7125 313.4944 302.5889 312.4884 300.4652 311.3707 300.4652 310.3648 303.5948 310.3648 306.8362 310.3648 308.9598 310.3648 311.0835 310.3648 313.0954 308.1294 315.219 306.0057 315.219 303.8821 319.4663 303.8821 322.5959 303.8821 323.7136 306.0057 326.8432 303.8821 330.0846 303.8821 335.3378 303.8821 341.597 298.5171 345.8443 295.3875 346.962 294.2697 350.0916 293.2638 351.0976 291.0284 353.2212 285.7751 354.3389 284.6574 354.3389 283.5397 356.4626 280.4101 358.4745 278.2865 363.8395 273.9274 363.8395 272.9215 365.9631 271.8037 365.9631 267.5564 369.0927 264.3151 371.2164 262.1914 371.2164 260.0678 377.4756 253.6968 370.0987 249.3377 362.7218 248.3318 358.4745 246.2081 351.0976 246.2081 347.968 245.0904 343.7207 238.7195 342.7147 235.4781 344.8384 231.2308 346.962 227.9894 346.962 226.9835 343.7207 222.6244 339.4734 220.5008 345.8443 218.3771 347.968 216.2535 348.9739 215.1358 351.0976 213.0121 353.2212 209.7707 356.4626 209.7707 357.4685 212.0062 358.4745 216.2535 360.5981 218.3771 362.7218 219.4948 369.0927 219.4948 374.346 219.4948 376.4696 219.4948 377.4756 219.4948 379.5992 219.4948 382.8406 218.3771 390.2175 216.2535 392.3411 216.2535 393.3471 214.1298 393.3471 209.7707 393.3471 208.7648 398.6003 208.7648 399.718 208.7648 404.9713 209.7707 407.0949 209.7707 409.2186 209.7707 413.3541 209.7707 416.5955 209.7707 418.7191 209.7707 427.102 208.7648 430.2316 204.5175 429.2256 198.0348 429.2256 193.7875 430.2316 186.2988 433.4729 179.8161 435.5966 178.8101 435.5966 175.5688 436.6025 174.5628 436.6025 171.3215 432.3552 165.9564 431.3493 164.8387 427.102 156.3441 418.7191 156.3441 415.4778 156.3441 414.4718 156.3441 411.3422 152.0968 405.9772 148.8554 404.9713 146.7318 403.8536 142.3727 400.724 142.3727 396.4767 142.3727 390.2175 141.3668 383.8465 139.2431 386.9761 137.0077 389.0998 133.8781 391.2234 132.7604 394.353 127.3954 395.4707 122.0304 399.718 118.9008 402.8476 117.7831 408.1009 115.6594 412.3482 112.418 414.4718 111.4121 419.7251 115.6594 421.8487 111.4121 426.096 110.2944 427.102 108.1707 431.3493 109.1767 433.4729 107.053 434.4789 106.0471 440.8498 104.9294 446.1031 103.9234 448.2267 101.688 452.474 101.688 453.48 101.688 456.7213 101.688 464.0982 97.4407 465.1042 97.4407 468.2338 95.3171 464.0982 83.5811 464.0982 79.222 464.0982 72.851 460.8569 66.3683 460.8569 59.9974 461.9746 54.6323 462.9805 47.1437 459.8509 41.7787 453.48 39.655 455.6036 36.4136 461.9746 32.1663 461.9746 26.8013 461.9746 22.4422 454.5977 20.6539 455.8272 5.1177 561.2274 4.5589 594.7587 4.3353 606.3829 4.2235 664.0569 4 672.3279 4.7824 683.3933 8.1355 687.8641 8.5826 691.5526 11.7122 693.8998 19.0891 698.3706 40.8845 700.7178 44.7965 724.9722 60.2209 738.3847 73.1864 749.7854 87.9402 757.4976 102.8057 761.4096 114.0946 763.4215 117.2242 765.2098 118.3419 770.463 120.3538 772.6985 122.0304 774.0397 124.6011 776.2751 133.3193 778.6223 136.5606 787.0052 142.3727 790.2465 145.7259 791.3642 148.4084 793.0408 157.4618 795.388 160.5914 798.7411 162.1562 801.2001 164.2799 800.8648 169.086 799.0765 177.2453 800.5295 183.1692 804.1062 188.0871 808.9123 193.5639 814.0538 196.8053 814.7244 198.7054 811.1477 201.1644 808.0182 204.0704 812.0419 205.4117 817.854 205.6352 819.9777 205.2999 823.219 205.6352 826.6839 205.6352 829.7018 206.3058 833.6138 212.2297 837.5257 215.6946 841.8848 218.6007 845.238 220.1655 859.2094 232.4603 859.6564 236.5958 858.427 240.1725 856.5268 243.8609 854.962 247.9965 854.962 250.9025 856.3033 256.4911 855.8562 259.5089 853.2855 263.4209 849.8206 265.5446 846.1321 267.2211 843.0025 269.4565 837.1904 279.7395 833.6138 294.0462 835.9609 306.1175 847.6969 309.6942 861.2212 309.1353 874.1867 310.5883 881.7871 312.712 885.6991 315.9534 886.0344 318.077 886.258 319.9771Z" />
  <path class="Northern Western" d="M454.5977 20.6539L461.9746 22.4422 461.9746 26.8013 461.9746 32.1663 455.6036 36.4136 453.48 39.655 459.8509 41.7787 462.9805 47.1437 461.9746 54.6323 460.8569 59.9974 460.8569 66.3683 464.0982 72.851 464.0982 79.222 464.0982 83.5811 468.2338 95.3171 465.1042 97.4407 464.0982 97.4407 456.7213 101.688 453.48 101.688 452.474 101.688 448.2267 101.688 446.1031 103.9234 440.8498 104.9294 434.4789 106.0471 433.4729 107.053 431.3493 109.1767 427.102 108.1707 426.096 110.2944 421.8487 111.4121 419.7251 115.6594 414.4718 111.4121 412.3482 112.418 408.1009 115.6594 402.8476 117.7831 399.718 118.9008 395.4707 122.0304 394.353 127.3954 391.2234 132.7604 389.0998 133.8781 386.9761 137.0077 383.8465 139.2431 390.2175 141.3668 396.4767 142.3727 400.724 142.3727 403.8536 142.3727 404.9713 146.7318 405.9772 148.8554 411.3422 152.0968 414.4718 156.3441 415.4778 156.3441 418.7191 156.3441 427.102 156.3441 431.3493 164.8387 432.3552 165.9564 436.6025 171.3215 436.6025 174.5628 435.5966 175.5688 435.5966 178.8101 433.4729 179.8161 430.2316 186.2988 429.2256 193.7875 429.2256 198.0348 430.2316 204.5175 427.102 208.7648 418.7191 209.7707 416.5955 209.7707 413.3541 209.7707 409.2186 209.7707 407.0949 209.7707 404.9713 209.7707 399.718 208.7648 398.6003 208.7648 393.3471 208.7648 393.3471 209.7707 393.3471 214.1298 392.3411 216.2535 390.2175 216.2535 382.8406 218.3771 379.5992 219.4948 377.4756 219.4948 376.4696 219.4948 374.346 219.4948 369.0927 219.4948 362.7218 219.4948 360.5981 218.3771 358.4745 216.2535 357.4685 212.0062 356.4626 209.7707 353.2212 209.7707 351.0976 213.0121 348.9739 215.1358 347.968 216.2535 345.8443 218.3771 339.4734 220.5008 343.7207 222.6244 346.962 226.9835 346.962 227.9894 344.8384 231.2308 342.7147 235.4781 343.7207 238.7195 347.968 245.0904 351.0976 246.2081 358.4745 246.2081 362.7218 248.3318 370.0987 249.3377 377.4756 253.6968 371.2164 260.0678 371.2164 262.1914 369.0927 264.3151 365.9631 267.5564 365.9631 271.8037 363.8395 272.9215 363.8395 273.9274 358.4745 278.2865 356.4626 280.4101 354.3389 283.5397 354.3389 284.6574 353.2212 285.7751 351.0976 291.0284 350.0916 293.2638 346.962 294.2697 345.8443 295.3875 341.597 298.5171 335.3378 303.8821 330.0846 303.8821 326.8432 303.8821 323.7136 306.0057 322.5959 303.8821 319.4663 303.8821 315.219 303.8821 315.219 306.0057 313.0954 308.1294 311.0835 310.3648 308.9598 310.3648 306.8362 310.3648 303.5948 310.3648 300.4652 310.3648 300.4652 311.3707 302.5889 312.4884 304.7125 313.4944 306.8362 313.4944 309.9658 317.7417 311.0835 323.1067 317.3427 338.084 323.7136 343.4491 334.2201 343.4491 339.4734 344.455 340.5911 345.5727 340.5911 348.8141 339.4734 348.8141 339.4734 350.9377 337.4615 364.7974 335.3378 364.7974 335.3378 365.9151 327.9609 368.0387 326.8432 368.0387 318.4604 371.1683 317.3427 363.7914 314.2131 363.7914 313.0954 366.921 312.0894 369.0447 315.219 375.5274 318.4604 380.7806 319.4663 380.7806 322.5959 387.2634 322.5959 391.5107 321.59 397.8816 318.4604 403.2466 314.2131 403.2466 311.0835 402.1289 307.8421 402.1289 307.8421 405.3703 307.8421 409.6176 308.9598 419.2299 316.3367 423.589 322.5959 425.7127 321.59 430.9659 316.3367 435.325 313.0954 435.325 309.9658 435.325 304.7125 435.325 302.5889 432.0836 299.4593 435.325 299.4593 439.5723 297.3356 440.5782 297.3356 443.8196 297.3356 447.0609 297.3356 448.0669 305.7185 449.1846 306.8362 452.3142 315.219 455.5556 319.4663 452.3142 320.584 458.7969 320.584 461.9265 320.584 464.0502 325.8373 470.5329 331.0905 471.5388 334.2201 474.7802 328.9669 478.0216 326.8432 481.1512 322.5959 487.6339 320.584 489.7575 312.0894 489.7575 307.8421 489.7575 304.7125 494.0048 293.0883 498.2521 288.841 500.3758 286.7174 501.4935 280.4582 502.4994 278.3345 502.4994 275.205 504.6231 271.9636 506.7468 264.5867 508.8704 261.4571 508.8704 256.2039 511.1058 251.9565 511.1058 250.8388 516.3591 249.8329 518.4827 246.7033 518.4827 244.5796 517.4768 243.4619 516.3591 242.456 515.3531 239.3264 509.9881 237.2028 505.7408 236.085 504.6231 232.9554 502.4994 229.8259 502.4994 227.7022 501.4935 227.7022 507.8645 227.7022 517.4768 226.5845 520.6064 223.4549 524.9655 222.3372 530.2187 219.2076 537.7074 217.0839 539.831 212.9484 539.831 207.5834 539.831 203.4479 543.0724 201.436 546.202 192.6061 546.3138 189.7 546.8726 182.9937 550.2257 180.6465 550.5611 178.8582 550.114 177.7405 548.9963 176.9581 547.5432 176.2875 545.9784 175.2815 544.5254 174.1638 543.4077 172.0402 542.29 169.0223 541.3958 162.9867 540.7252 159.8571 541.0605 157.7334 541.9547 156.6157 543.0724 155.8333 544.4136 154.3803 547.5432 152.592 550.3375 150.5801 552.7965 147.0034 558.1615 141.5266 563.9736 137.8382 567.1032 132.3614 573.4741 128.0023 566.7679 126.8846 562.1853 127.3317 556.0378 127.1081 554.1377 126.4375 552.6847 123.3079 551.0081 118.5018 549.5551 98.1594 545.5314 96.0358 543.6312 92.4591 541.284 86.9823 540.7252 85.9763 540.1663 88.8824 539.7193 88.8824 537.4838 84.8586 536.5897 81.3937 535.0249 78.9348 532.3424 77.7053 528.4304 82.1761 528.4304 82.1761 526.1949 72.5638 524.0713 63.6221 520.9417 58.816 515.912 61.8338 507.9762 65.7458 505.0702 75.5816 501.27 79.7172 498.9228 82.1761 495.6814 84.188 492.1047 86.7587 490.2046 91.1178 492.2165 91.0061 488.4163 91.9002 484.7278 93.5768 481.4865 95.5887 478.6922 98.7183 479.5864 120.4019 481.1512 126.4375 482.8277 130.126 483.163 132.8085 482.2689 139.2912 477.6862 142.4208 476.2332 136.3851 474.892 129.4553 475.7861 123.3079 475.2273 122.5255 471.5388 122.302 471.6506 128.5612 463.7149 140.4089 437.8957 132.2496 447.8433 126.9964 456.8968 120.6254 463.7149 108.8894 467.1798 103.0773 466.9562 98.2712 465.9503 93.9121 465.9503 85.4175 471.0917 79.6054 471.5388 74.1286 469.6387 70.7755 465.1679 78.1524 463.7149 82.0644 459.8029 85.3057 454.9967 91.1178 451.42 91.1178 449.1846 88.2118 448.6257 86.4234 448.0669 85.1939 446.8374 84.188 444.602 82.1761 444.602 79.0465 454.7732 76.6993 458.7969 73.0109 460.4735 67.7576 458.7969 63.175 454.7732 57.2512 446.8374 53.898 448.7375 51.3273 448.4022 49.5389 446.1668 48.3095 442.5901 46.7447 448.1787 49.4272 451.7553 54.3451 454.1025 59.7101 455.8909 55.2393 458.1263 64.181 464.9443 64.7398 472.3212 59.9337 479.3628 53.0039 485.2867 54.3451 487.9692 54.3451 490.987 52.7803 493.3342 49.4272 494.2284 46.7447 493.2224 44.7328 490.7635 36.1264 476.2332 33.6674 470.98 31.5438 461.2559 28.973 455.2202 25.6199 449.6317 22.4903 445.7197 21.0373 442.143 20.8138 436.778 21.3726 426.6068 22.9374 426.3833 21.3726 391.3989 30.4261 381.0042 34.2263 380.11 35.5675 381.3395 36.6853 383.4631 39.3678 385.5868 64.5163 385.3633 69.6578 384.4691 76.364 381.563 85.7528 380.6689 104.5304 381.0042 91.0061 376.8686 88.8824 377.8746 86.4234 379.6629 80.8349 379.6629 74.6875 378.5452 70.7755 376.7569 67.1988 378.3217 61.9455 379.3276 57.2512 378.7688 55.2393 375.5274 54.1216 373.0684 51.8861 372.3978 49.5389 372.3978 48.3095 372.0625 48.0859 369.38 48.8683 368.374 49.986 367.8152 53.2274 361.3325 59.7101 358.3146 67.8694 356.7498 75.2463 356.4145 75.2463 353.9556 69.546 352.1672 62.1691 353.3967 48.3095 358.4264 40.709 359.2088 32.438 357.5322 26.067 352.8378 23.7198 344.9021 22.4903 346.3551 21.8197 346.5787 21.3726 347.1375 21.3726 349.5965 16.5664 344.9021 14.7781 345.2374 14.1075 346.5787 13.4369 347.6964 12.6545 349.5965 5.6129 343.8961 6.7306 328.1364 1.4773 322.1008 1.4773 320.0889 9.1895 314.3886 23.4963 310.0295 31.9909 308.4647 37.1323 309.6942 49.5389 317.5182 57.0276 320.0889 61.9455 319.3065 71.8932 311.9296 84.4116 305.8939 90.3354 302.0937 94.8063 296.5052 99.1653 286.1105 101.8479 281.3043 104.9774 276.8334 106.8776 275.8275 112.019 275.3804 113.1367 274.9333 112.8014 272.2508 108.3306 266.774 106.8776 263.4209 108.4424 253.9204 113.5838 243.6374 120.4019 238.8312 126.7728 245.4257 133.9262 241.6255 140.2971 241.1784 146.5563 241.6255 153.4861 240.5078 158.8512 235.9252 166.6751 222.9597 172.3755 220.0537 176.8463 218.8242 177.0699 216.2535 175.7286 213.2356 175.6168 210.6649 178.2993 207.0882 180.0877 205.5234 185.6762 202.3938 187.0175 202.6174 188.6941 203.7351 190.2589 204.0704 191.6001 201.9468 192.3825 199.9349 193.5002 198.7054 195.7356 196.8053 197.3004 194.7934 208.3658 158.8031 208.4776 157.1265 207.8069 155.6735 208.0305 154.3322 210.6012 153.1028 212.3895 152.5439 213.5073 151.985 214.1779 151.0909 215.0721 149.5261 217.8663 138.6843 219.4311 135.89 222.449 134.7723 225.5785 135.2194 228.2611 134.9958 229.6023 132.0898 229.9376 118.1184 230.9436 117.0007 236.3086 107.6119 239.2146 104.5941 249.3858 98.3349 250.5035 98.1113 250.8388 96.8818 250.8388 92.8581 251.5095 91.1815 253.0743 91.1815 254.7508 91.4051 255.7568 90.6227 255.645 89.0579 254.4155 85.2576 254.192 84.3635 258.6628 59.662 258.6628 56.1971 258.2157 53.9617 258.4393 51.9498 260.4512 48.932 272.1871 42.0022 286.9409 36.5254 336.0085 26.1307 343.6089 26.3542 349.5328 30.2662 355.4567 35.6312 363.1689 40.4374 369.3163 42.6728 374.6813 43.9023 380.2699 44.1259 390.5528 41.8904 452.027 28.3661 454.2624 25.3483 454.5977 20.6539Z" />
  <path class="Southern" d="M705.9711 879.8389L684.7345 907.2229 681.9403 909.9054 655.0034 922.0884 649.5266 923.2062 638.126 941.0895 632.2021 946.5663 631.1961 947.7958 632.0903 951.2607 636.6729 958.8612 637.7906 962.9967 637.12 965.9028 635.3317 967.6911 632.8727 968.5853 625.8311 969.3677 624.7134 971.4913 625.9429 978.1976 625.1605 983.1155 623.1486 989.3747 620.019 994.7397 611.0773 999.8812 609.7361 1005.4697 610.4067 1013.7408 607.9477 1015.3056 597.553 1020 592.0762 1015.6409 578.6637 1012.6231 572.181 1009.1582 565.9218 1004.7991 561.0039 1000.44 564.0217 999.993 565.4747 999.2106 566.4806 998.0928 567.7101 995.9692 558.5449 995.7457 554.6329 996.4163 551.9504 998.2046 549.8267 998.2046 546.9207 990.8277 542.3381 986.0216 525.0135 971.4913 478.852 944.4427 402.4006 916.6117 323.6019 885.204 261.01 865.1969 270.9576 856.8141 282.8054 856.367 295.1002 860.279 305.7185 865.1969 305.2714 862.2909 303.7066 860.1672 301.2476 858.826 298.0063 858.3789 295.4355 857.7083 292.753 853.6845 290.1823 851.6726 284.0349 849.2136 280.57 848.9901 274.7579 852.1197 272.0754 850.6667 269.3928 848.2077 266.5986 846.9782 265.5926 844.1839 268.4987 838.0365 272.6342 831.7773 278.7816 826.4123 282.2465 821.3826 286.4938 817.8059 292.4177 819.8178 295.9944 818.0295 299.7946 817.4706 307.9539 817.5824 309.6305 817.1353 313.6542 815.7941 315.7779 815.4587 318.2369 816.2411 322.1488 819.1472 323.6019 819.8178 330.0846 818.0295 335.6732 814.5646 341.9323 811.6585 350.5387 811.2114 349.9799 810.0937 349.1975 807.6348 348.5268 806.5171 354.5625 804.7287 360.5981 803.8345 364.9572 801.4873 366.4102 795.0046 363.9513 795.0046 361.9394 795.5635 359.704 795.6752 357.4685 796.0106 355.2331 797.3518 353.333 794.334 352.7741 792.9927 349.5328 793.6634 345.8443 793.7751 342.7147 794.2222 341.4853 796.1223 340.5911 799.0284 338.4674 800.4814 332.7671 802.0462 328.8551 803.8345 322.5959 804.0581 319.3546 804.8405 312.6483 807.9701 305.6067 809.4231 298.6769 812.2174 294.6531 813.2233 292.5295 812.9998 285.935 811.5468 282.3583 811.2114 274.9814 808.4172 272.6342 802.158 270.8459 795.2282 265.3691 790.5338 265.3691 788.5219 267.0457 786.9571 267.9398 785.057 268.1634 782.4862 267.8281 779.2449 265.3691 781.4803 263.0219 783.0451 260.8982 783.2686 258.9981 781.3685 256.7627 781.3685 256.7627 786.0629 248.827 778.3507 252.8507 767.2854 265.3691 749.8491 270.7341 752.6433 272.5224 754.3199 274.5343 752.0845 272.6342 747.7254 272.2989 743.2546 274.3108 739.6779 278.7816 738.5602 272.1871 734.0893 266.375 739.3426 256.7627 754.3199 240.4441 764.4911 229.8259 768.2913 225.1315 764.6029 222.5607 764.7146 201.5477 760.6909 199.5359 760.6909 197.4122 760.3556 194.0591 759.0143 181.0936 749.8491 176.2875 747.6136 172.2637 744.5958 169.3576 738.5602 168.2399 732.5245 169.2459 728.5008 172.4872 725.5947 178.2993 722.8004 172.3755 723.8064 155.7216 730.6244 140.4089 720.565 135.9381 711.9586 132.9202 708.382 128.0023 706.8172 124.4256 705.3641 120.0666 701.5639 113.1367 693.4046 119.6195 692.0634 130.6848 685.8042 136.8322 684.3512 141.9737 685.0218 147.3387 686.5866 158.1805 691.281 151.586 684.5747 143.315 678.7626 136.2734 672.2799 130.7966 656.1848 130.126 655.0671 128.6729 653.9494 129.2318 651.4904 131.2437 647.1314 132.0261 642.437 134.038 637.8543 136.944 633.607 140.4089 630.1421 129.7906 628.6891 125.4316 624.5536 122.8608 618.0708 117.8311 609.7998 114.1427 607.229 109.6718 605.4407 105.9834 602.6464 104.5304 597.2814 104.6421 592.587 105.4245 588.2279 106.7658 584.2042 107.5482 582.7512 107.66 582.7512 108.2188 582.3041 124.2021 578.5039 127.8905 576.9391 132.3614 573.4741 137.8382 567.1032 141.5266 563.9736 147.0034 558.1615 150.5801 552.7965 152.592 550.3375 154.3803 547.5432 155.8333 544.4136 156.6157 543.0724 157.7334 541.9547 159.8571 541.0605 162.9867 540.7252 169.0223 541.3958 172.0402 542.29 174.1638 543.4077 175.2815 544.5254 176.2875 545.9784 176.9581 547.5432 177.7405 548.9963 178.8582 550.114 180.6465 550.5611 182.9937 550.2257 189.7 546.8726 192.6061 546.3138 201.436 546.202 212.166 545.9784 214.0661 546.3138 215.7427 546.9844 216.9722 547.8785 217.9781 549.2198 218.7605 550.6728 220.4371 552.0141 223.3431 552.7965 229.3788 552.6847 235.0791 553.4671 238.2087 554.8084 239.5499 555.7025 240.6677 556.932 240.8912 558.7204 241.1147 562.6323 241.4501 564.5325 242.0089 566.209 242.9031 567.5503 244.0208 568.668 246.2562 569.3386 271.1812 570.6799 272.6342 571.4623 273.9755 572.4682 274.8696 573.9212 275.5403 575.486 276.7697 576.492 278.5581 576.7155 281.6877 575.1507 283.3642 573.5859 284.3702 571.6858 286.4938 566.9914 287.4998 565.7619 288.6175 564.6442 290.0705 563.7501 300.0182 559.5028 302.9242 557.4909 304.9361 556.0378 307.2833 553.6906 309.5187 552.7965 312.6483 552.2376 321.9253 552.0141 324.496 552.4612 326.0608 553.1318 327.4021 553.9142 329.5257 554.2495 332.2083 553.8024 341.597 549.7787 343.8325 549.2198 346.6267 548.7727 351.4329 548.8845 357.9156 549.7787 360.2628 550.6728 380.1581 561.9617 396.2531 568.2209 397.5944 569.2268 398.6003 570.5681 400.3887 575.5978 401.1711 577.0508 403.1829 579.6216 404.4124 580.7393 405.7537 581.6334 407.4303 582.1923 409.2186 582.4158 412.5717 583.0865 413.8012 583.0865 415.0307 581.1864 415.7013 577.6097 415.7013 575.9331 415.366 574.2565 414.2483 571.0152 413.3541 569.6739 412.0129 569.0033 410.6716 568.2209 409.6657 566.9914 406.5361 560.9558 405.9772 559.391 405.9772 557.7144 406.3125 555.9261 407.0949 554.473 412.907 546.7608 413.8012 545.7549 415.4778 545.8667 417.6014 545.7549 420.6193 544.6372 425.8725 544.3019 430.008 545.3078 432.0199 545.3078 434.2553 544.6372 437.6085 542.8488 439.9557 542.1782 442.1911 542.9606 448.115 546.5373 460.4098 549.7787 468.6809 550.4493 477.399 549.7787 483.3229 548.1021 498.6355 541.5076 500.7592 540.0546 508.3596 532.9012 510.595 529.9952 512.0481 527.4244 513.6129 520.0475 514.2835 511.8882 514.6188 509.9881 515.2894 508.4233 516.2954 507.1938 518.1955 505.9644 525.3488 502.723 529.0373 501.7171 532.8375 501.27 551.3915 502.1641 556.1977 501.27 563.5746 496.352 567.0395 510.2117 569.4985 514.7943 572.4045 517.2532 577.0989 522.8418 578.2166 525.4125 578.6637 527.5362 578.2166 533.1248 578.4402 538.2662 579.3343 540.9487 580.3403 542.9606 587.2701 549.5551 588.7231 550.4493 594.3117 555.9261 608.2831 574.033 630.5255 596.2755 632.6492 599.4051 633.6551 601.6405 633.5433 603.2053 633.4316 604.4348 633.4316 605.9996 633.6551 607.7879 634.1022 609.5762 642.1497 631.8187 643.3792 638.4132 643.6028 650.9316 644.8322 659.7615 644.944 663.4499 644.4969 667.1384 642.7086 674.0682 641.3673 677.1978 640.4732 678.5391 639.4672 679.7685 638.2377 680.8862 635.667 682.5628 631.755 687.0337 630.6373 688.1514 609.5125 703.464 608.6184 704.8053 607.9477 706.3701 604.7064 721.571 604.4828 729.6185 604.8182 732.301 605.4888 734.0893 606.3829 733.8658 607.2771 732.8598 612.0833 726.4889 613.0892 725.5947 614.0952 725.0359 614.7658 725.7065 620.2426 739.7897 620.6897 742.2486 620.3543 744.1487 619.6837 745.6018 619.1249 747.2783 617.8954 754.9905 616.5541 758.1201 614.8776 760.9144 613.6481 762.0321 612.3068 762.8145 610.6303 763.1498 609.1772 762.8145 608.1713 761.585 606.9418 758.3437 606.0476 756.8906 605.1535 755.9965 603.924 755.8847 602.6945 756.5553 592.188 764.044 583.1345 769.409 583.2463 770.0796 584.2523 770.862 587.6054 772.0915 589.282 776.4506 591.0703 784.051 592.5233 801.8227 593.7528 808.976 595.3176 812.9998 596.8824 813.5586 598.4472 814.341 600.1238 814.7881 601.9121 814.7881 603.4769 814.2293 605.0417 813.4469 606.2712 812.4409 613.5363 805.8464 623.8193 793.6634 626.39 791.7633 629.5196 790.1985 631.3079 789.9749 633.208 790.0867 634.9964 790.5338 636.4494 791.2044 637.7906 792.2103 638.9084 793.3281 643.8263 799.9226 643.2674 800.9285 635.7788 808.8642 635.1081 811.435 634.7728 814.8999 635.8905 829.6537 635.667 831.7773 635.667 838.7072 636.5612 846.4194 636.2259 853.7963 636.7847 855.3611 638.126 856.2552 641.5909 857.1494 645.6146 857.7083 649.8619 857.82 653.7739 858.2671 662.3803 860.7261 673.4457 865.4205 681.9403 870.3384 705.8593 879.8389 705.9711 879.8389Z" />
  <path class="Western" d="M85.9763 540.1663L86.9823 540.7252 92.4591 541.284 96.0358 543.6312 98.1594 545.5314 118.5018 549.5551 123.3079 551.0081 126.4375 552.6847 127.1081 554.1377 127.3317 556.0378 126.8846 562.1853 128.0023 566.7679 132.3614 573.4741 127.8905 576.9391 124.2021 578.5039 108.2188 582.3041 107.66 582.7512 107.5482 582.7512 108.8894 580.2922 105.9834 580.851 104.0833 582.1923 102.4067 583.6453 100.0595 584.8748 97.7123 585.3219 96.3711 585.2101 94.8063 584.9866 92.1238 584.8748 77.7053 587.1102 70.2166 590.0163 61.2749 595.1578 53.2274 601.4169 48.3095 607.5644 46.2976 607.5644 46.9682 602.3111 46.2976 588.3397 44.8446 581.2981 44.621 577.2744 46.2976 573.5859 42.3856 570.4563 31.0967 552.2376 30.4261 552.0141 29.7554 550.8964 28.1906 550.6728 26.7376 550.0022 26.067 547.5432 24.3904 543.9666 16.0076 533.013 13.6604 531.56 12.2074 528.3186 10.3073 525.189 6.1717 523.9595 10.6426 518.2592 12.0956 515.5767 12.6545 511.3294 11.7603 508.3116 7.513 502.0524 6.1717 498.9228 13.1015 500.0405 15.0017 501.27 17.2371 499.8169 18.0195 500.7111 19.4725 503.5054 25.0611 501.1582 30.9849 501.27 36.797 503.0583 41.8267 505.9644 45.9623 510.6587 52.6685 521.7241 63.8457 527.648 71.7814 535.2484 80.0525 541.0605 85.9763 540.1663Z" />
</svg>