<?xml version="1.0" encoding="utf-8"?>
<svg xmlns="http://www.w3.org/2000/svg" viewBox="0 0 394 1024" style="stroke-width:0.25px;stroke-linejoin:round;stroke:#444;fill:#ddd" fill-rule="evenodd">
  <path class="Centre" d="M354.2151 564.1971L280.8932 563.303 281.005 564.5325 280.8932 565.4266 279.999 567.1032 279.7755 568.1091 279.6637 576.8273 279.7755 578.0568 280.1108 579.1745 281.452 581.857 281.6756 582.9747 281.7873 585.5454 282.0109 586.6631 282.6815 588.7868 282.7933 589.9045 282.458 593.2576 282.5697 594.2636 282.9051 595.2695 283.4639 596.0519 284.1345 596.8343 285.5876 598.1756 286.0347 599.0697 286.37 600.0757 286.5935 601.3052 286.5935 605.2172 286.37 606.4466 285.364 609.688 285.0287 612.0352 284.8052 615.9472 283.911 620.418 284.0228 625.336 283.911 626.5655 283.5757 627.5714 280.8932 633.2717 280.5579 634.1659 280.6696 635.0601 281.1167 635.8425 282.2344 637.1837 282.0109 637.7426 281.8991 638.0779 281.6756 638.1897 275.6399 642.437 269.6043 644.3371 252.8386 647.6902 249.1502 647.9138 246.0206 647.5784 243.0028 646.9078 240.9909 646.0136 239.3143 645.4548 230.9315 643.7782 228.696 642.884 225.79 642.884 206.6771 645.343 203.7711 645.343 202.7651 644.8959 201.871 644.6724 200.865 645.0077 198.8531 648.0255 198.0707 648.5844 197.2883 649.0315 195.2765 649.5903 179.2932 651.714 177.5048 652.4964 174.3752 654.5083 172.8105 655.7377 171.6927 656.8554 168.5631 658.0849 158.6155 658.9791 158.2802 659.0909 154.48 659.7615 152.5799 646.4607 152.6916 638.9721 152.5799 635.0601 150.7915 627.5714 150.0091 618.0708 149.0032 613.1529 150.0091 611.6999 151.5739 610.4704 152.6916 607.8997 152.2446 605.1054 150.9033 603.3171 149.3385 601.864 148.5561 599.7404 148.7796 597.1696 149.7856 596.3872 151.3504 596.1637 153.027 595.3813 159.6215 589.3457 161.6333 588.0044 162.9746 587.1102 166.3277 585.6572 170.575 583.7571 171.8045 583.1982 174.3752 581.6334 174.9341 581.2981 176.4989 578.1685 175.7165 573.2506 174.9341 572.58 172.5869 572.1329 171.8045 571.4623 171.6927 570.4563 171.8045 568.4444 171.3574 565.5384 171.3574 563.1912 170.9103 561.1793 163.3099 554.8084 160.7392 547.0961 157.2743 539.7193 144.197 533.5718 138.9438 529.7716 134.1376 525.3008 130.7845 521.3888 122.737 515.912 114.8012 504.7349 108.9891 492.1047 108.6538 489.8693 108.8773 489.8693 109.995 489.4222 110.5539 489.0869 111.001 488.5281 111.001 487.8574 110.4421 487.4103 109.7715 486.7397 109.2127 486.1809 110.3304 486.2926 111.3363 486.1809 112.2305 486.1809 113.0129 486.1809 113.7953 486.0691 114.2424 485.3985 113.5717 484.9514 112.9011 484.6161 112.0069 484.6161 111.4481 484.2807 110.8892 483.8337 110.2186 483.163 109.8833 482.2689 110.3304 481.71 110.3304 480.8158 110.1068 479.9217 111.1128 479.6981 113.46 480.5923 115.6954 485.1749 117.7073 482.8277 118.825 480.0334 118.825 480.3688 119.2721 480.9276 119.9427 480.7041 120.5015 480.257 121.0604 479.9217 121.8428 480.0334 122.2899 479.1393 121.9546 478.3569 121.6193 478.1333 121.9546 478.2451 123.9664 478.804 126.5372 479.251 128.7726 478.2451 128.9961 477.1274 129.3315 477.1274 130.0021 477.2392 130.7845 477.1274 131.4551 477.0156 132.2375 476.6803 132.5728 476.0097 133.1317 475.3391 133.6905 474.5567 134.0259 473.9978 133.6905 473.3272 133.2435 472.8801 133.2435 472.2095 133.5788 471.3153 134.2494 470.8682 133.6905 470.3094 133.467 469.7505 133.3552 469.1916 136.2613 468.2975 140.3968 466.7327 144.4206 463.0442 145.5383 462.5971 148.5561 462.5971 149.8974 462.1501 151.0151 461.3677 151.7975 459.9146 151.7975 458.6851 151.3504 457.791 150.6798 457.2321 150.1209 456.5615 150.0091 455.4438 150.3444 454.5496 151.3504 453.4319 159.3979 448.1787 159.9568 447.2845 160.4039 446.2785 160.6274 445.1608 160.8509 443.9314 161.5216 441.8077 162.304 441.0253 163.4217 440.4664 166.9983 439.7958 168.3396 439.237 170.3515 437.1133 170.7986 436.5545 170.7986 436.4427 171.2457 435.6603 171.9163 435.1014 176.1636 432.1954 177.1695 431.0777 177.8402 430.0717 178.2872 429.0658 178.7343 428.0598 179.2932 427.2774 180.1873 426.7186 181.1933 426.3833 182.5345 426.8304 183.9876 427.0539 185.7759 427.0539 188.3466 426.8304 189.4644 427.3892 190.2468 428.1716 190.4703 429.4011 190.8056 430.407 191.3645 431.1894 197.7354 433.5366 198.9649 433.7602 201.5356 433.9837 202.7651 434.2073 206.0065 435.325 207.3477 435.5485 208.5772 435.6603 209.8067 435.5485 217.1836 434.0955 220.8721 433.6484 222.4369 433.0895 224.1134 432.0836 227.0195 429.7364 229.702 426.9421 233.0551 424.0361 233.8375 422.6948 234.0611 421.5771 231.8256 416.8827 231.3785 414.7591 231.3785 407.3822 230.9315 403.582 231.0432 401.2348 231.6021 398.8876 232.3845 396.7639 232.9433 395.9815 233.5022 395.3109 233.9493 394.9756 240.6556 393.4108 255.6329 391.2871 258.7625 391.2871 268.7101 393.4108 271.0573 393.6343 274.9693 393.4108 302.465 385.5868 306.0417 385.6986 309.7301 383.7985 317.5541 377.5393 317.5541 377.4275 318.5601 378.9923 334.5433 395.8697 346.9499 408.947 351.0855 416.1003 352.6503 421.0183 353.6562 426.495 353.9915 451.7553 354.3268 473.886 354.5504 492.5518 354.8857 519.6004 354.9975 525.6361 355.221 527.9833 356.227 530.2187 361.4802 536.8132 362.2626 538.7133 361.4802 542.29 354.9975 553.2436 354.6622 554.9201 354.6622 558.385 353.6562 563.303 354.2151 564.1971ZM120.278 478.0216L121.2839 478.1333 120.278 478.4686 120.278 478.0216ZM118.9367 479.3628L118.0426 478.6922 118.3779 478.6922 118.9367 479.251 118.9367 479.3628Z" />
  <path class="Kara" d="M233.1669 190.4343L250.1561 201.7232 278.7695 220.8361 299.7825 235.031 302.3532 241.8491 302.3532 243.4139 302.5768 258.3912 303.0239 280.5219 303.2474 296.1699 304.8122 305.6704 304.4769 308.1294 304.0298 310.1413 304.1416 314.165 303.8063 316.2887 302.5768 318.8594 299.1119 324.3362 298.2177 326.9069 298.8883 331.0425 300.9002 335.9604 303.8063 338.9782 307.2712 337.3017 309.5066 343.1138 310.9596 363.5679 313.7539 371.6154 317.5541 377.4275 317.5541 377.5393 309.7301 383.7985 306.0417 385.6986 302.465 385.5868 274.9693 393.4108 271.0573 393.6343 268.7101 393.4108 258.7625 391.2871 255.6329 391.2871 240.6556 393.4108 233.9493 394.9756 233.5022 395.3109 232.9433 395.9815 232.3845 396.7639 231.6021 398.8876 231.0432 401.2348 230.9315 403.582 231.3785 407.3822 231.3785 414.7591 231.8256 416.8827 234.0611 421.5771 233.8375 422.6948 233.0551 424.0361 229.702 426.9421 227.0195 429.7364 224.1134 432.0836 222.4369 433.0895 220.8721 433.6484 217.1836 434.0955 209.8067 435.5485 208.5772 435.6603 207.3477 435.5485 206.0065 435.325 202.7651 434.2073 201.5356 433.9837 198.9649 433.7602 197.7354 433.5366 191.3645 431.1894 190.8056 430.407 190.4703 429.4011 190.2468 428.1716 189.4644 427.3892 188.3466 426.8304 185.7759 427.0539 183.9876 427.0539 182.5345 426.8304 181.1933 426.3833 180.1873 426.7186 179.2932 427.2774 178.7343 428.0598 178.2872 429.0658 177.8402 430.0717 177.1695 431.0777 176.1636 432.1954 171.9163 435.1014 171.2457 435.6603 170.7986 436.4427 170.7986 436.5545 170.3515 437.1133 168.3396 439.237 166.9983 439.7958 163.4217 440.4664 162.304 441.0253 161.5216 441.8077 160.8509 443.9314 160.6274 445.1608 160.4039 446.2785 159.9568 447.2845 159.3979 448.1787 151.3504 453.4319 150.3444 454.5496 150.0091 455.4438 150.1209 456.5615 150.6798 457.2321 151.3504 457.791 151.7975 458.6851 151.7975 459.9146 151.0151 461.3677 149.8974 462.1501 148.5561 462.5971 145.5383 462.5971 144.4206 463.0442 140.3968 466.7327 136.2613 468.2975 133.3552 469.1916 133.2435 469.0799 133.6905 468.521 134.1376 467.9622 134.6965 467.4033 135.4789 467.1798 135.4789 466.3974 136.0377 465.7267 136.9319 465.9503 137.7143 466.1738 138.2732 465.5032 138.1614 464.609 137.6025 464.1619 137.9378 463.2678 138.1614 462.2618 138.832 461.703 139.3909 461.4794 139.2791 460.5853 138.7202 459.8029 138.2732 458.9087 137.9378 458.0145 137.4908 457.3439 136.8201 456.4497 136.5966 455.6673 136.5966 454.8849 136.5966 454.3261 136.373 453.6554 135.926 453.2084 136.0377 452.5377 136.4848 451.9789 136.7084 451.1965 136.7084 450.5259 136.8201 449.6317 136.373 448.7375 135.926 448.0669 135.926 447.3963 135.3671 446.6139 134.6965 446.1668 134.1376 445.8315 132.9081 445.1608 129.6668 438.5663 127.9902 434.7661 128.102 434.0955 128.102 433.0895 127.8784 432.3072 127.2078 431.8601 126.8725 431.1894 126.649 430.407 126.649 429.7364 125.1959 429.2893 125.3077 425.3773 126.649 425.3773 126.8725 421.9124 125.9783 421.9124 130.0021 416.4356 130.7845 416.3239 131.1198 415.6532 131.1198 414.9826 131.4551 414.2002 131.1198 413.4178 130.7845 412.5237 131.1198 411.7413 130.7845 411.0706 130.5609 410.4 130.4492 409.7294 130.2256 408.947 130.2256 408.0528 129.6668 407.3822 130.2256 406.8233 130.7845 406.3762 131.4551 406.0409 132.1257 405.5938 132.7964 405.2585 133.5788 405.1468 134.3612 405.3703 134.8083 404.8114 135.0318 404.1408 135.8142 403.6937 136.4848 403.1349 136.7084 402.576 136.9319 401.9054 137.0437 401.2348 137.379 400.4524 137.7143 400.0053 138.1614 399.3347 138.3849 398.4405 138.4967 397.8816 138.832 397.0992 139.2791 396.5404 140.6204 394.8638 141.8498 393.4108 139.2791 391.7342 138.9438 391.2871 138.4967 390.9518 138.1614 390.5047 137.6025 389.7223 137.2672 388.7164 135.7024 385.0279 135.7024 384.3573 137.2672 381.3395 140.8439 376.9804 142.1851 375.6392 141.5145 375.5274 142.0734 374.6332 144.7559 374.8568 145.9854 374.745 146.0971 373.9626 146.7678 372.3978 146.656 370.9448 145.9854 370.3859 145.5383 369.7153 145.3147 369.0447 145.203 368.374 144.8677 367.5916 144.6441 366.921 145.0912 366.2504 146.656 364.9091 146.9913 354.2909 145.9854 353.732 145.4265 353.2849 145.203 352.7261 145.3147 352.0554 144.9794 351.273 144.3088 350.9377 143.6382 351.0495 143.0793 350.826 142.4087 350.6024 141.7381 350.3789 141.291 349.9318 140.6204 349.82 139.838 349.4847 139.0556 349.3729 138.7202 348.7023 138.2732 347.9199 137.379 347.8081 136.5966 348.0317 135.7024 348.1435 134.92 347.8081 134.1376 347.8081 133.9141 347.0257 133.467 346.5787 133.2435 345.6845 133.5788 344.7903 134.0259 344.2315 134.6965 343.8961 134.8083 343.2255 135.1436 342.3314 134.5847 341.6607 134.4729 340.6548 133.6905 339.8724 133.0199 339.3135 132.4611 338.7547 132.014 338.1958 131.2316 338.3076 130.2256 338.1958 129.2197 337.7487 128.4373 337.5252 127.5431 337.4134 126.7607 337.1899 126.2019 336.7428 125.643 336.0722 124.6371 335.7369 123.5194 335.2898 122.8487 335.2898 121.9546 335.4015 121.1722 335.6251 120.1662 335.7369 119.3838 335.6251 118.825 335.4015 118.0426 335.4015 117.3719 335.178 116.7013 335.6251 116.0307 336.0722 115.3601 336.631 114.5777 336.5193 113.7953 336.7428 113.0129 336.9663 112.1187 337.0781 111.2245 336.9663 110.4421 336.9663 109.4362 336.7428 108.4303 336.4075 107.5361 336.0722 106.7537 335.7369 105.9713 335.8486 105.4124 336.2957 104.9653 336.631 104.2947 337.0781 103.6241 337.637 103.0652 338.084 103.177 338.6429 100.8298 339.6488 99.9356 341.2136 99.265 345.3492 98.9297 345.908 98.8179 345.908 98.1473 346.3551 97.3649 346.3551 96.4707 346.5787 95.9119 346.914 95.1295 347.5846 94.4589 347.9199 93.9 348.2552 93.1176 348.4788 92.5587 348.5905 91.9999 348.9259 91.3293 349.4847 90.3233 349.7083 89.5409 349.9318 88.6468 349.9318 88.0879 349.7083 87.4173 349.7083 86.2996 349.7083 85.9642 348.9259 85.1818 348.5905 84.5112 348.367 83.8406 348.0317 83.6171 347.2493 83.0582 346.3551 82.7229 345.7963 82.0523 345.3492 81.7169 344.9021 81.0463 344.2315 80.4875 343.5608 80.0404 342.8902 79.8168 341.7725 79.8168 341.549 79.8168 340.7666 84.7348 339.7606 85.0701 339.8724 85.7407 339.8724 86.5231 339.8724 87.1937 339.7606 88.1997 339.5371 88.535 339.09 88.6468 338.8664 91.2175 337.8605 91.5528 337.5252 92.1117 337.4134 92.3352 336.9663 92.6705 336.7428 93.2294 336.631 93.9 336.0722 94.6824 335.7369 95.353 335.2898 96.2472 334.5074 96.2472 333.8367 96.0237 333.0543 95.4648 332.4955 94.2353 331.7131 93.3411 331.1542 92.2234 330.7072 91.6646 330.5954 90.8822 330.4836 90.0998 330.5954 89.2056 330.9307 88.535 331.1542 87.8644 331.266 86.9702 331.3778 86.076 331.4895 85.5172 331.6013 84.8465 331.6013 84.2877 331.3778 83.6171 331.1542 82.7229 330.4836 82.0523 329.7012 81.4934 328.4717 81.2699 327.4658 81.2699 326.7952 81.1581 326.0128 81.1581 325.3421 81.4934 324.6715 81.6052 323.8891 81.8287 323.2185 81.9405 322.6596 82.0523 321.8772 81.9405 321.0948 82.2758 320.4242 85.5172 320.7595 85.7407 320.8713 86.2996 321.3184 87.082 321.7655 88.0879 321.6537 88.7585 321.0948 90.2116 321.3184 95.0177 320.9831 96.6943 319.8653 97.3649 320.0889 98.1473 320.0889 98.7062 319.7536 99.4886 319.4183 99.8239 319.4183 100.8298 319.4183 101.6122 319.53 102.1711 319.7536 102.8417 320.3124 103.7359 320.6477 104.5183 320.7595 105.3007 320.6477 106.3066 320.3124 107.2008 320.0889 107.8714 319.7536 108.3185 319.1947 108.8773 318.8594 109.4362 318.5241 109.995 318.077 110.3304 317.5182 110.5539 316.8475 110.1068 315.7298 109.548 315.0592 108.9891 314.3886 108.7656 313.7179 108.9891 312.6002 109.2127 311.8178 109.4362 311.1472 109.6597 310.253 109.8833 309.5824 110.1068 308.8 110.2186 307.9058 110.3304 307.0117 110.4421 306.2293 109.7715 306.2293 109.3244 305.3351 109.2127 304.6645 108.3185 304.3292 107.6479 303.7703 107.3125 302.8761 107.6479 302.2055 107.3125 301.5349 106.7537 301.1996 106.6419 300.5289 106.4184 300.0818 105.4124 299.8583 104.5183 299.7465 104.1829 298.9641 104.1829 297.8464 104.2947 297.064 104.2947 295.9463 103.9594 295.2757 103.7359 294.6051 103.5123 293.152 103.4006 292.3696 102.7299 291.3637 101.9475 290.8048 101.724 290.8048 101.3887 290.246 99.9356 288.6812 99.0415 286.8928 99.265 286.5575 99.3768 285.8869 99.4886 285.3281 100.0474 283.0926 100.0474 281.8631 99.3768 280.8572 99.3768 279.963 100.4945 279.8513 101.0534 279.4042 101.1651 278.6218 100.8298 277.6158 100.3827 276.2746 100.718 274.8216 101.5004 274.1509 102.1711 273.2568 102.0593 272.6979 102.0593 272.0273 102.1711 271.3567 102.8417 270.4625 103.8476 269.5683 104.4065 268.3388 104.7418 266.8858 105.3007 265.8799 105.7477 264.9857 105.4124 263.0856 105.3007 262.3032 104.9653 260.4031 104.8536 259.1736 104.5183 258.6147 104.4065 257.9441 104.5183 257.3853 104.7418 256.6029 104.4065 255.1498 104.4065 254.3674 104.4065 253.6968 104.5183 252.6909 104.7418 251.7967 105.0771 250.3437 105.4124 249.5613 106.0831 248.5553 106.9772 247.9965 106.9772 247.5494 107.9832 246.6552 108.0949 244.9787 106.7537 240.9549 104.4065 236.1487 104.0712 234.8075 104.4065 233.0191 105.1889 231.6779 105.3007 230.4484 104.0712 228.4365 106.3066 227.9894 107.5361 227.7659 108.0949 227.8777 110.6657 228.3248 112.9011 227.6541 113.0129 227.0953 114.1306 228.1012 115.5836 229.8895 115.5836 230.0013 117.7073 233.2427 118.2661 234.3604 118.4897 235.4781 118.4897 236.7076 118.1543 238.943 118.1543 240.1725 118.4897 241.1784 119.0485 241.9608 119.8309 242.5197 123.2958 243.0785 124.3018 243.5256 125.7548 244.8669 126.8725 245.314 128.4373 245.5375 130.8963 245.4257 134.0259 246.0964 135.926 245.9846 137.0437 246.0964 137.9378 246.4317 138.4967 247.1023 138.3849 247.8847 137.4908 249.5613 137.2672 250.4554 137.4908 251.4614 137.8261 252.3556 138.3849 253.138 139.0556 253.9204 140.9557 254.9263 141.7381 255.4851 142.4087 256.1558 144.0853 258.7265 144.8677 259.2854 145.9854 259.6207 147.5502 259.5089 149.8974 258.7265 153.027 257.9441 155.5977 257.9441 161.8569 257.3853 162.9746 257.7206 164.7629 258.8383 165.8806 259.0618 167.8925 258.503 169.7926 258.9501 170.0162 258.7265 170.2397 257.3853 170.0162 254.9263 167.669 248.1083 167.4454 247.1023 167.5572 245.8728 167.8925 244.6433 168.4514 243.3021 169.0102 240.6196 169.5691 239.1666 170.6868 237.49 171.2457 236.2605 171.581 235.1428 171.581 234.2486 171.4692 232.3485 171.581 226.2011 172.1398 223.6304 172.9222 221.2832 174.8223 217.3712 180.6344 209.1001 181.6404 207.0882 182.0875 204.6293 181.5286 201.835 181.1933 200.7173 181.3051 199.8231 182.1992 199.0407 184.4347 198.1465 190.4703 198.4818 191.8116 198.9289 192.7057 199.4878 193.2646 200.382 193.7117 201.2761 194.1587 202.1703 194.9411 202.6174 196.0589 202.6174 199.3002 200.382 202.9887 198.3701 204.3299 197.8112 208.8008 198.2583 209.9185 198.5936 211.3715 199.8231 212.3774 200.1584 213.3834 199.9349 215.7306 197.5877 216.9601 196.8053 218.9719 196.6935 220.5367 196.8053 225.9018 197.5877 227.1312 197.5877 228.5843 196.6935 229.5902 195.9111 233.1669 190.4343Z" />
  <path class="Maritime" d="M177.7284 932.9303L178.8461 932.7067 186.8936 931.589 190.135 930.2477 197.1766 925.8887 197.8472 925.218 199.1884 923.6532 201.2003 920.3001 203.1004 917.9529 208.9125 912.5879 210.3656 910.9113 211.3715 909.4583 212.1539 907.5582 213.4952 903.0873 214.2776 895.2634 213.9422 885.7628 214.2776 883.3039 214.9482 880.9567 215.7306 879.6154 216.6248 878.7212 218.5249 877.6035 220.5367 876.8211 224.337 876.0387 256.8624 877.8271 257.8683 878.0506 258.2036 878.6095 257.7565 880.0625 258.0919 880.7331 258.986 881.1802 262.4509 881.6273 263.3451 882.0744 263.904 882.745 264.4628 883.6392 265.1334 884.4216 265.9158 884.9804 266.9218 885.4275 267.9277 885.7628 269.1572 886.3217 269.6043 886.657 269.9396 887.1041 272.2868 891.1278 272.9574 891.7985 273.7398 892.3573 280.1108 894.5927 281.7873 895.3751 293.0762 884.198 306.8241 873.9151 310.7361 872.462 315.3187 871.4561 317.6659 871.2326 319.566 871.4561 324.0369 872.7974 326.4958 873.3562 328.843 873.468 330.0725 873.2444 333.4256 872.015 337.1141 870.1149 338.3436 868.9971 339.573 867.4323 343.7086 860.8378 345.3851 859.3848 346.2793 858.9377 349.2971 861.1732 351.0855 863.2968 351.5326 866.0911 349.9678 874.4739 350.0795 877.9388 350.9737 881.4037 352.5385 885.5393 353.6562 890.3454 352.8738 893.475 351.309 895.5987 348.2912 899.6224 346.7264 904.0933 347.9559 906.3287 350.5266 908.4524 352.762 912.4761 352.762 914.0409 352.4267 915.7175 352.315 917.6176 352.9856 919.6295 354.1033 921.3061 355.6681 922.8708 357.3447 924.2121 358.9095 925.1063 360.8096 925.3298 362.8215 925.218 364.1627 925.6651 364.498 928.0123 364.9451 929.3536 368.2982 932.1479 369.5277 933.8244 369.863 935.8363 369.3042 940.1954 369.7513 941.8719 371.0925 942.9897 375.3398 945.2251 377.1282 946.4546 382.1579 954.7256 386.0699 969.8147 389.8701 984.5685 385.7345 984.7921 360.0272 990.9395 355.8916 993.0631 357.3447 997.3105 319.4542 1003.6814 287.823 1013.4055 273.6281 1019.6647 271.9515 1019.7765 270.722 1020 270.8338 1019.1058 273.6281 1017.6528 273.6281 1014.0761 273.6281 1012.6231 273.4045 1009.6053 273.7398 1006.5875 270.1631 1006.5875 266.5865 1006.3639 259.2096 1006.4757 250.6032 1006.2521 249.709 1005.9168 249.0384 1005.4697 248.8149 1004.6873 249.4855 1004.1285 249.8208 1003.2343 249.1502 1002.5637 248.8149 1002.0048 248.3678 1001.446 248.7031 1000.9989 248.4795 1000.2165 247.6971 998.5399 247.3618 997.8693 247.1383 997.0869 247.0265 996.5281 246.803 995.8574 246.3559 995.2986 245.797 994.8515 245.2382 994.0691 244.5675 993.3985 244.0087 993.2867 243.2263 993.2867 242.6674 992.9514 241.885 992.7278 241.2144 992.3925 240.9909 991.8337 240.5438 991.4983 240.2085 990.8277 239.6496 990.0453 239.0908 989.2629 238.6437 988.8158 238.3084 988.1452 238.1966 987.5864 237.8613 987.1393 237.6377 986.5804 237.3024 985.6862 237.0789 984.7921 237.0789 984.1215 236.9671 983.4508 236.9671 982.7802 236.6318 982.1096 235.9612 981.7743 235.4023 980.8801 235.1788 979.9859 235.067 979.0917 234.8435 977.7505 235.1788 977.1916 235.4023 975.5151 235.1788 974.5091 234.9552 973.5032 234.6199 973.0561 226.5724 972.9443 224.2252 972.8326 220.9838 972.8326 218.3013 972.8326 215.2835 972.8326 212.2657 972.7208 211.9304 972.1619 211.4833 971.2678 211.2597 970.1501 210.8127 969.3677 210.3656 968.8088 209.5832 968.1382 209.0243 967.244 208.689 966.5734 208.3537 966.2381 206.7889 965.1204 206.23 964.1144 205.0006 963.2202 201.871 960.6495 199.0767 959.0847 196.953 958.6376 194.3823 958.1905 191.3645 957.1846 190.3585 953.0491 188.4584 952.2667 185.9994 951.2607 184.77 950.8136 183.6523 950.4783 182.8699 948.2429 183.2052 943.1014 180.4109 942.8779 179.5167 941.5366 179.0696 940.866 178.6226 939.9718 178.2872 939.413 177.9519 938.5188 177.6166 937.4011 177.5048 935.2774 177.3931 934.3833 177.7284 932.9303Z" />
  <path class="Plateaux" d="M354.2151 564.1971L355.4446 564.5325 356.4505 566.4326 358.5741 583.7571 358.2388 606.782 357.68 638.9721 357.7917 670.8268 358.0153 710.7292 358.0153 714.1941 358.1271 731.5186 358.2388 751.3021 358.3506 781.3685 358.4624 810.5408 358.5741 840.0484 354.9975 841.1661 339.9084 841.0543 343.7086 855.3611 346.0558 858.7142 346.2793 858.9377 345.3851 859.3848 343.7086 860.8378 339.573 867.4323 338.3436 868.9971 337.1141 870.1149 333.4256 872.015 330.0725 873.2444 328.843 873.468 326.4958 873.3562 324.0369 872.7974 319.566 871.4561 317.6659 871.2326 315.3187 871.4561 310.7361 872.462 306.8241 873.9151 293.0762 884.198 281.7873 895.3751 280.1108 894.5927 273.7398 892.3573 272.9574 891.7985 272.2868 891.1278 269.9396 887.1041 269.6043 886.657 269.1572 886.3217 267.9277 885.7628 266.9218 885.4275 265.9158 884.9804 265.1334 884.4216 264.4628 883.6392 263.904 882.745 263.3451 882.0744 262.4509 881.6273 258.986 881.1802 258.0919 880.7331 257.7565 880.0625 258.2036 878.6095 257.8683 878.0506 256.8624 877.8271 224.337 876.0387 220.5367 876.8211 218.5249 877.6035 216.6248 878.7212 215.7306 879.6154 214.9482 880.9567 214.2776 883.3039 213.9422 885.7628 214.2776 895.2634 213.4952 903.0873 212.1539 907.5582 211.3715 909.4583 210.3656 910.9113 208.9125 912.5879 203.1004 917.9529 201.2003 920.3001 199.1884 923.6532 197.8472 925.218 197.1766 925.8887 190.135 930.2477 186.8936 931.589 178.8461 932.7067 177.7284 932.9303 176.4989 933.042 176.6107 931.8125 177.8402 929.2418 179.2932 927.4535 179.405 925.5534 176.8342 922.9826 175.0459 922.6473 169.4573 922.8708 167.5572 922.6473 165.8806 919.4059 163.0864 917.3941 160.4039 914.9351 159.2861 910.7996 161.0745 900.6284 160.8509 897.387 159.1744 894.1457 156.2683 891.3514 152.6916 889.4513 149.3385 888.6689 147.9972 886.9923 142.1851 876.1505 139.838 874.2504 137.8261 873.1327 137.2672 871.2326 138.6085 866.9853 142.744 859.9437 143.3029 856.5905 140.9557 852.3432 139.6144 851.3373 138.832 850.7784 135.2553 847.8724 132.9081 844.8546 135.8142 843.9604 138.832 843.7369 141.291 843.0662 147.2149 841.5014 149.7856 840.0484 149.8974 839.8249 153.5858 833.1186 153.6976 828.536 153.6976 826.8594 153.6976 824.4004 152.9152 816.4647 152.8034 815.347 152.8034 815.2352 153.474 807.523 158.2802 795.4517 160.1803 786.2865 160.1803 786.0629 162.8628 778.686 163.0864 774.327 159.845 761.138 158.6155 759.4614 151.2386 762.1439 147.3266 762.8145 143.6382 762.3674 137.379 756.7789 134.1376 747.949 133.1317 738.0013 133.9141 726.3771 134.6965 723.8064 135.926 721.6827 137.9378 719.7826 140.5086 718.5531 140.9557 718.4414 143.7499 717.659 144.6441 717.2119 144.9794 717.1001 145.3147 716.7648 146.2089 716.2059 146.5442 715.9824 147.5502 713.6352 147.4384 708.1584 148.109 701.8992 150.6798 697.7637 152.4681 698.099 156.3801 698.7696 156.1565 696.646 155.933 694.8576 156.2683 684.2394 154.48 672.8387 154.7035 660.7674 154.48 659.7615 158.2802 659.0909 158.6155 658.9791 168.5631 658.0849 171.6927 656.8554 172.8105 655.7377 174.3752 654.5083 177.5048 652.4964 179.2932 651.714 195.2765 649.5903 197.2883 649.0315 198.0707 648.5844 198.8531 648.0255 200.865 645.0077 201.871 644.6724 202.7651 644.8959 203.7711 645.343 206.6771 645.343 225.79 642.884 228.696 642.884 230.9315 643.7782 239.3143 645.4548 240.9909 646.0136 243.0028 646.9078 246.0206 647.5784 249.1502 647.9138 252.8386 647.6902 269.6043 644.3371 275.6399 642.437 281.6756 638.1897 281.8991 638.0779 282.0109 637.7426 282.2344 637.1837 281.1167 635.8425 280.6696 635.0601 280.5579 634.1659 280.8932 633.2717 283.5757 627.5714 283.911 626.5655 284.0228 625.336 283.911 620.418 284.8052 615.9472 285.0287 612.0352 285.364 609.688 286.37 606.4466 286.5935 605.2172 286.5935 601.3052 286.37 600.0757 286.0347 599.0697 285.5876 598.1756 284.1345 596.8343 283.4639 596.0519 282.9051 595.2695 282.5697 594.2636 282.458 593.2576 282.7933 589.9045 282.6815 588.7868 282.0109 586.6631 281.7873 585.5454 281.6756 582.9747 281.452 581.857 280.1108 579.1745 279.7755 578.0568 279.6637 576.8273 279.7755 568.1091 279.999 567.1032 280.8932 565.4266 281.005 564.5325 280.8932 563.303 354.2151 564.1971Z" />
  <path class="Savanes" d="M233.1669 190.4343L229.5902 195.9111 228.5843 196.6935 227.1312 197.5877 225.9018 197.5877 220.5367 196.8053 218.9719 196.6935 216.9601 196.8053 215.7306 197.5877 213.3834 199.9349 212.3774 200.1584 211.3715 199.8231 209.9185 198.5936 208.8008 198.2583 204.3299 197.8112 202.9887 198.3701 199.3002 200.382 196.0589 202.6174 194.9411 202.6174 194.1587 202.1703 193.7117 201.2761 193.2646 200.382 192.7057 199.4878 191.8116 198.9289 190.4703 198.4818 184.4347 198.1465 182.1992 199.0407 181.3051 199.8231 181.1933 200.7173 181.5286 201.835 182.0875 204.6293 181.6404 207.0882 180.6344 209.1001 174.8223 217.3712 172.9222 221.2832 172.1398 223.6304 171.581 226.2011 171.4692 232.3485 171.581 234.2486 171.581 235.1428 171.2457 236.2605 170.6868 237.49 169.5691 239.1666 169.0102 240.6196 168.4514 243.3021 167.8925 244.6433 167.5572 245.8728 167.4454 247.1023 167.669 248.1083 170.0162 254.9263 170.2397 257.3853 170.0162 258.7265 169.7926 258.9501 167.8925 258.503 165.8806 259.0618 164.7629 258.8383 162.9746 257.7206 161.8569 257.3853 155.5977 257.9441 153.027 257.9441 149.8974 258.7265 147.5502 259.5089 145.9854 259.6207 144.8677 259.2854 144.0853 258.7265 142.4087 256.1558 141.7381 255.4851 140.9557 254.9263 139.0556 253.9204 138.3849 253.138 137.8261 252.3556 137.4908 251.4614 137.2672 250.4554 137.4908 249.5613 138.3849 247.8847 138.4967 247.1023 137.9378 246.4317 137.0437 246.0964 135.926 245.9846 134.0259 246.0964 130.8963 245.4257 128.4373 245.5375 126.8725 245.314 125.7548 244.8669 124.3018 243.5256 123.2958 243.0785 119.8309 242.5197 119.0485 241.9608 118.4897 241.1784 118.1543 240.1725 118.1543 238.943 118.4897 236.7076 118.4897 235.4781 118.2661 234.3604 117.7073 233.2427 115.5836 230.0013 115.5836 229.8895 116.2542 229.666 116.4778 228.7718 116.5895 228.213 116.8131 227.6541 116.8131 226.9835 116.7013 226.3129 116.5895 225.5305 116.8131 224.6363 117.0366 223.7421 117.3719 223.1833 117.4837 222.6244 117.2602 221.7303 116.7013 221.1714 116.1425 220.7243 115.8072 220.2772 115.3601 219.8301 114.5777 219.2713 113.7953 218.6007 113.0129 217.93 112.0069 217.7065 111.2245 217.5947 110.6657 217.3712 109.7715 217.1476 108.7656 217.0359 108.0949 216.9241 106.7537 216.1417 104.8536 211.112 105.1889 210.5531 105.4124 209.9943 105.636 209.3237 105.636 208.4295 105.8595 207.8706 106.4184 207.0882 106.6419 206.3058 106.6419 205.5234 106.5301 204.9646 106.3066 204.2939 105.8595 203.7351 105.5242 203.1762 105.4124 202.9527 105.8595 196.47 105.636 190.4343 105.636 190.3226 106.3066 189.5402 106.3066 188.4224 106.1948 188.3107 106.9772 186.9694 107.5361 183.6163 108.542 180.4867 113.46 176.91 110.3304 174.3393 110.6657 174.1157 111.001 173.3333 111.6716 172.7745 112.454 172.8862 113.0129 172.7745 113.5717 172.3274 113.6835 171.545 113.3482 170.7626 112.454 170.3155 111.6716 170.2037 110.8892 170.4273 110.1068 170.6508 108.9891 170.7626 108.3185 170.9861 107.5361 171.2097 106.5301 171.2097 105.7477 171.0979 104.9653 170.7626 104.2947 171.2097 103.6241 171.8803 102.9535 171.7685 102.2828 171.8803 101.2769 171.545 100.718 171.2097 99.9356 171.545 99.1532 171.9921 98.2591 171.6568 97.5884 171.3215 98.0355 170.8744 98.5944 170.5391 98.8179 169.5331 99.4886 169.086 100.271 168.7507 101.5004 168.4154 101.3887 167.633 100.9416 166.8506 100.8298 166.18 100.0474 165.8447 99.4886 165.3976 98.9297 165.6211 98.5944 166.4035 97.9238 166.4035 97.2531 165.7329 97.3649 165.0623 97.3649 164.3916 97.3649 163.4975 97.0296 162.7151 97.0296 161.9327 96.9178 161.0385 96.5825 160.3679 95.9119 159.809 95.4648 159.0266 94.6824 159.2502 94.2353 158.6913 93.5647 158.5795 93.0058 158.356 92.3352 158.0207 92.447 157.2383 92.6705 156.5677 93.3411 156.1206 93.7882 155.4499 94.1235 154.444 94.1235 153.7734 94.1235 153.2145 93.9 152.2086 93.7882 151.4262 93.0058 151.2026 92.2234 151.3144 91.7763 150.8673 91.7763 150.3085 91.6646 149.5261 91.2175 148.8554 90.2116 149.079 89.3174 149.1908 88.6468 149.079 88.3114 149.8614 87.7526 149.9732 87.7526 150.8673 86.8584 151.2026 85.8525 151.3144 85.1818 151.3144 84.3994 151.3144 84.0641 150.6438 83.3935 150.4202 82.9464 150.0849 82.2758 150.0849 81.7169 150.0849 81.2699 150.532 80.5992 149.9732 80.0404 149.3025 79.4815 148.8554 78.4756 148.2966 77.5814 147.9613 77.1343 148.5201 76.2402 148.9672 76.1284 149.5261 75.346 149.6378 75.4578 150.3085 75.5695 150.9791 75.6813 151.8733 75.5695 151.8733 74.6754 151.7615 74.0047 151.985 72.9988 152.5439 72.7752 152.3204 72.3282 151.7615 72.2164 150.7556 72.1046 149.7496 71.434 149.6378 70.9869 149.079 70.6516 148.5201 70.0927 148.1848 69.4221 148.1848 68.8633 147.7377 68.1926 147.1789 68.1926 146.1729 67.8573 145.3905 67.6338 144.7199 68.0809 144.2728 68.5279 143.4904 68.4162 142.708 67.7455 142.708 67.0749 142.1492 66.7396 141.7021 66.5161 141.0315 65.5101 140.3608 65.3983 139.5784 65.8454 138.6843 65.9572 138.1254 65.3983 137.343 65.063 136.5606 64.8395 135.89 64.3924 135.2194 64.5042 134.5487 64.2806 133.9899 64.2806 133.431 63.8336 132.5369 63.61 131.6427 63.3865 130.8603 63.61 130.3014 63.2747 129.8543 63.2747 129.0719 63.1629 128.5131 62.8276 127.6189 59.8098 126.8365 57.7979 124.4893 50.421 121.9186 46.3972 120.3538 46.3972 119.6832 46.2855 119.0125 46.2855 118.4537 46.0619 117.6713 45.7266 116.7771 45.2795 115.7712 44.7207 115.3241 44.2736 114.877 43.7147 114.4299 43.2677 114.0946 42.8206 113.6475 42.597 113.0887 42.597 112.418 41.144 111.8592 40.2498 111.6356 36.1143 110.4062 34.4377 109.9591 33.6553 109.6238 32.9847 109.512 32.2023 109.2884 31.6435 108.9531 31.1964 108.1707 29.9669 107.6119 28.9609 107.3883 26.1667 106.8295 23.4842 106.2706 22.3664 105.8235 22.0311 105.0411 21.8076 104.3705 21.584 103.4763 21.2487 102.6939 20.9134 101.9116 20.5781 101.0174 20.3546 100.1232 20.3546 99.1173 20.2428 98.4466 20.0193 97.776 19.7957 97.2172 19.5722 96.5465 19.1251 95.3171 18.678 94.1993 17.6721 92.6345 16.6661 91.0697 16.4426 90.6227 16.219 90.1756 16.5543 89.2814 16.7779 89.1696 17.7838 80.8986 19.2369 77.3219 22.1429 73.7452 26.1667 70.9509 27.8432 69.3861 28.2903 67.1507 27.2844 63.2387 27.0608 61.2268 31.4199 40.7727 32.4259 38.8726 33.9906 37.196 35.779 36.0783 37.1202 34.7371 37.5673 32.1663 38.1262 25.013 37.5673 18.642 34.5495 13.9476 27.8432 11.3769 25.049 11.3769 24.1548 11.3769 17.3367 13.1652 14.5425 13.5006 13.6483 13.6123 9.9598 12.6064 5.9361 10.371 2.6947 7.3531 1.1299 4 7.2773 5.2295 11.3011 6.0119 21.6958 8.1355 27.5079 9.365 33.32 10.5945 46.1737 13.1652 91.6646 22.554 109.1009 26.1307 131.3433 30.7133 131.7904 31.0486 132.014 31.4957 132.1257 32.1663 131.9022 33.0605 131.7904 33.8429 131.4551 34.7371 130.7845 35.5195 134.0259 36.3019 131.5669 44.9083 156.4919 36.1901 169.0102 33.7311 188.2349 33.3958 214.1658 32.837 209.0243 45.3553 208.4655 49.3791 208.9125 51.6145 210.5891 55.7501 210.8127 57.8737 207.7948 63.9094 207.3477 66.033 207.0124 70.7274 206.4536 72.851 203.8828 76.5395 193.041 86.9342 190.135 93.7523 191.6998 111.971 191.588 119.9067 188.682 131.3074 185.8877 152.0968 185.9994 156.7912 187.676 159.9208 202.7651 169.9802 221.6545 182.7221 233.1669 190.4343Z" />
</svg>