<?xml version="1.0" encoding="utf-8"?>
<svg xmlns="http://www.w3.org/2000/svg" viewBox="0 0 360 1024" style="stroke-width:0.25px;stroke-linejoin:round;stroke:#444;fill:#ddd" fill-rule="evenodd">
  <path class="Eua" d="M185.9887 860.3908L186.7711 865.9793 186.7711 868.3265 185.9887 873.9151 186.1004 883.4156 185.2063 884.9804 182.9708 883.6392 182.0767 881.4037 180.2883 879.5036 176.1528 876.374 176.1528 875.3681 176.7117 875.1446 178.1647 874.3622 177.2705 872.6856 177.1587 870.5619 177.8294 868.7736 180.7354 867.5441 181.6296 866.4264 182.9708 863.9674 183.3062 862.9615 184.3121 860.7261 185.4298 859.1613 185.9887 860.3908Z" />
  <path class="Ha'apai" d="M264.3403 634.8365L266.2404 634.1659 267.8052 632.7129 268.8111 630.8128 269.37 628.5773 270.0406 628.6891 271.6054 629.248 272.1642 629.695 271.0465 632.2658 270.9348 635.2836 270.1524 637.519 267.4699 637.8543 266.3521 637.2955 265.458 636.6249 264.7873 635.8425 264.3403 634.8365ZM164.0815 621.3122L166.3169 623.1006 167.3229 627.2361 167.0993 631.8187 165.4228 634.8365 165.4228 633.7188 164.5286 634.8365 163.858 633.9424 163.1873 633.3835 161.5108 632.7129 161.6226 632.7129 161.399 632.2658 161.5108 631.7069 159.7224 627.0125 159.6107 625.5595 160.1695 622.6535 161.0637 621.424 162.2932 621.3122 164.0815 621.3122ZM272.1642 624.5536L274.735 623.1006 276.0762 621.2004 277.3057 619.0768 279.0941 617.2884 279.7647 619.4121 279.3176 621.424 278.5352 623.2123 278.0881 625.0007 277.0822 626.9008 274.735 627.1243 272.7231 626.2301 272.1642 624.5536ZM278.5352 609.1292L280.4353 609.9116 280.9942 611.4763 280.2118 612.5941 278.0881 612.147 276.5233 609.9116 274.6232 606.2231 274.0644 603.4288 276.188 603.8759 276.8586 605.1054 277.641 608.4585 278.5352 609.1292Z" />
  <path class="Niuas" d="M84.3887 4L87.0712 6.0119 86.4006 10.1474 83.271 13.5006 79.1354 13.0535 76.6765 10.2592 77.0118 7.2414 79.8061 4.8942 84.3887 4ZM353.3101 59.8856L355.0985 58.7679 355.8809 58.7679 355.7691 60.7798 354.2043 63.3505 352.1924 65.3624 349.957 65.3624 348.7275 63.7976 348.8393 62.6799 350.2923 61.3386 353.3101 59.8856Z" />
  <path class="Tongatapu" d="M164.5286 834.7952L166.0934 835.9129 166.6523 837.1424 166.5405 839.4895 165.311 840.8308 157.2635 846.7547 156.7046 848.0959 156.9282 849.7725 157.487 851.4491 157.7106 853.0139 157.1517 854.8022 155.9222 855.9199 154.3574 856.367 152.7926 856.7023 149.7748 855.9199 148.3218 854.6904 145.9746 850.3314 144.1862 848.543 137.3682 845.1899 136.3623 846.3076 132.7856 844.1839 130.8855 843.4015 129.0971 843.0662 127.7559 842.2838 124.1792 837.3659 122.1673 833.2304 123.5086 829.5419 126.8617 826.7476 130.5502 825.5182 128.7618 827.6418 126.5264 829.5419 125.6322 831.5538 127.6441 833.7892 129.2089 834.3481 130.4384 834.4598 138.4859 832.895 139.8272 833.2304 140.8331 834.1245 141.9508 834.7952 142.845 835.6893 143.1803 837.3659 141.0567 838.7072 140.1625 840.0484 140.7213 841.6132 142.1744 842.1721 143.6274 841.5014 145.0804 840.4955 146.5334 839.9366 148.21 840.2719 150.7807 841.725 151.8985 842.0603 154.0221 841.5014 154.8045 839.9366 155.6987 837.813 157.7106 835.8011 159.1636 835.1305 160.9519 834.5716 162.852 834.4598 164.5286 834.7952ZM2.0133 1017.7646L3.2428 1018.2117 4.137 1018.9941 3.5781 1019.6647 2.9075 1020 2.4604 1020 1.678 1019.4411 1.1191 1018.6587 1.3427 1017.8763 2.0133 1017.7646Z" />
  <path class="Vava'u" d="M321.6789 449.7435L323.8025 450.5259 324.8085 451.5318 325.7026 452.6495 327.491 453.879 327.7145 455.5556 327.491 458.5734 326.485 460.1382 323.6908 457.0086 322.2377 457.6792 321.3436 458.5734 321.5671 459.6911 322.7966 461.0323 321.5671 462.4854 320.7847 464.0502 318.8846 463.6031 317.5433 465.1679 316.8727 467.7386 316.8727 470.3094 315.0844 469.3034 314.0784 467.6268 313.0725 464.0502 315.3079 463.156 315.4197 461.4794 314.6373 459.6911 313.9667 459.0205 312.4019 460.3617 311.843 462.5971 311.2842 464.0502 309.1605 463.0442 308.937 463.9384 308.6017 464.0502 307.931 464.0502 307.1486 464.0502 305.2485 459.6911 307.931 457.4557 311.9548 455.332 313.9667 451.3083 314.9726 450.3023 317.208 449.7435 319.7788 449.5199 321.6789 449.7435ZM222.8732 487.075L221.4201 484.7278 221.8672 482.4924 223.5438 481.4865 225.7792 482.2689 226.6734 484.169 226.2263 485.8455 224.7733 486.9633 222.8732 487.075Z" />
</svg>