<?xml version="1.0" encoding="utf-8"?>
<svg xmlns="http://www.w3.org/2000/svg" viewBox="0 0 1021 941" style="stroke-width:0.25px;stroke-linejoin:round;stroke:#444;fill:#ddd" fill-rule="evenodd">
  <path class="Aleppo" d="M445.6257 115.1235L447.6376 123.7299 447.6376 124.4006 447.6376 125.4065 447.3023 126.5242 446.4081 128.2008 445.7375 128.9832 444.9551 129.4303 437.2429 130.4362 436.684 130.6597 436.1252 130.995 436.0134 132.1128 436.1252 133.6776 436.9076 137.0307 437.3547 138.5955 437.9135 139.6014 438.3606 140.0485 438.9195 140.2721 439.5901 140.2721 440.2607 140.2721 441.4902 139.825 443.055 138.7073 446.7435 135.4659 447.7494 134.907 448.42 134.6835 449.0906 134.7953 449.7613 134.907 450.2084 135.3541 450.6554 135.8012 450.7672 136.4718 450.9908 137.0307 451.1025 137.8131 450.879 150.555 450.2084 155.92 448.9789 161.3968 448.9789 161.5086 447.8612 167.9913 446.8552 171.2327 445.0669 175.0329 439.2548 183.8628 437.8018 185.3158 436.0134 187.1042 425.954 194.1458 413.5474 201.0756 388.2871 205.3229 382.5868 205.5464 378.3395 206.5524 372.0803 209.7937 369.5096 211.2468 368.6154 211.9174 366.9388 213.7057 365.374 216.0529 363.921 218.7354 362.0209 223.2063 358.6678 228.3477 358.1089 229.689 357.7736 231.0303 357.5501 232.3715 357.7736 234.7187 358.3325 237.7365 360.2326 243.3251 361.5738 246.0076 363.0268 247.9077 365.1505 250.1431 367.1624 252.8256 369.1743 256.1788 369.286 256.2905 375.3217 261.432 375.8805 262.3262 376.1041 263.3321 375.8805 265.344 375.657 266.2382 375.3217 267.1323 375.0981 267.5794 374.4275 269.8149 373.3098 272.4974 372.9745 273.0562 372.1921 274.0622 369.1743 277.08 363.3622 285.5746 362.9151 286.0217 362.1327 287.0276 360.7914 289.263 356.5441 299.7695 352.6321 316.8705 351.738 323.5768 351.738 324.471 351.8497 325.3651 352.185 326.5946 352.5204 327.4888 352.8557 328.1594 355.0911 331.0655 384.4869 362.3614 319.3243 362.5849 306.4706 360.6848 299.5408 358.6729 296.9701 357.4435 286.9107 350.4019 286.7989 350.2901 283.8928 348.2782 258.7443 350.0666 249.9144 349.9548 248.7967 349.6195 247.4554 348.9488 241.9787 345.2604 228.9014 340.6778 222.5305 338.107 221.7481 337.5482 219.5127 335.201 218.5067 334.5304 217.7243 334.0833 216.3831 333.6362 215.6007 333.1891 210.7945 327.377 210.0121 326.1475 209.4532 322.7944 209.0062 321.5649 208.0002 320.1119 206.659 317.3176 204.4235 310.276 205.2059 308.9348 206.1001 308.1524 207.8884 307.37 208.3355 307.0347 209.3415 306.2523 210.0121 305.4699 210.571 304.7992 211.1298 303.6815 211.3534 303.0109 211.4651 302.2285 211.4651 301.4461 211.3534 300.7755 210.9063 299.9931 210.1239 299.2107 205.653 296.0811 202.6352 293.0633 200.7351 291.8338 198.3879 291.4985 197.6055 291.2749 197.0466 291.0514 196.0407 289.9337 194.8112 288.1453 187.099 274.1739 178.9397 262.1026 178.7162 261.432 178.6044 260.6496 178.6044 259.0848 178.2691 253.1609 178.0455 251.7079 177.7102 250.4784 176.8161 249.5843 175.363 248.5783 162.5094 242.5427 161.1681 241.7603 159.8268 240.419 158.3738 238.8542 157.2561 236.6188 154.1265 232.3715 156.0266 229.2419 161.0563 224.9946 161.9505 224.1004 162.6211 222.9827 163.4035 222.0886 163.7388 221.865 163.9624 221.6415 165.5272 220.7473 165.9743 220.3002 167.092 218.7354 170.1098 215.7176 170.8922 214.7117 171.5628 213.4822 171.7864 212.8116 172.0099 212.0292 171.8981 211.0232 171.3393 209.7937 167.3155 204.6523 162.6211 200.1814 161.8387 198.5048 161.5034 195.5988 161.2799 194.9282 161.0563 194.3693 160.721 193.9222 160.1622 193.4751 159.3798 193.3634 158.3738 193.5869 155.1325 196.0459 154.3501 196.3812 149.4321 196.2694 144.1789 197.3871 142.2788 198.5048 142.2788 198.3931 140.4904 196.3812 138.0315 195.3752 133.0018 194.8164 131.437 193.3634 132.1076 193.2516 133.0018 191.575 133.8959 188.7807 134.0077 187.1042 133.7842 185.6512 133.3371 184.3099 132.6664 183.0804 131.884 182.5216 129.4251 181.4039 128.4191 180.5097 127.6367 179.0567 124.7307 168.7737 124.2836 165.6441 124.9542 162.7381 129.5369 155.4729 130.2075 147.2019 130.0957 138.819 132.2194 130.7715 134.0077 126.3007 134.5666 122.5004 134.6783 118.812 135.349 114.6765 137.2491 110.8762 139.708 107.5231 141.3846 103.8347 140.9375 99.1403 142.2788 99.0285 143.7318 99.252 143.9553 99.3638 172.0099 109.0879 181.6222 109.7585 184.64 110.4292 187.6579 111.6586 190.5639 113.3352 192.9111 115.5706 197.4937 119.8179 198.7232 122.2769 198.835 126.3007 197.4937 132.3363 198.1644 134.5717 200.9586 137.1425 203.9765 138.819 205.4295 138.3719 206.659 136.5836 209.0062 134.2364 211.8004 132.8952 214.3712 133.1187 216.8301 133.9011 219.7362 134.2364 229.4603 131.7774 232.8134 131.4421 257.6266 136.0248 263.9976 136.1365 275.6218 128.6479 286.4636 121.6063 295.7406 117.4707 321.1127 111.9939 345.5905 100.7051 349.8378 99.5873 352.6321 97.799 367.3859 88.4102 377.6689 84.3865 382.8103 83.8276 392.8697 85.0571 421.9303 93.887 429.4189 98.0226 445.6257 115.1235Z" />
  <path class="Ar Raqqah" d="M445.6257 115.1235L449.9848 119.8179 459.3736 124.7359 470.1036 126.0771 494.9168 124.9594 498.27 123.9535 506.2057 123.3946 529.6777 131.3304 537.9487 130.995 568.7976 125.0712 572.3743 135.8012 573.7155 138.9308 581.4277 148.8784 583.5514 150.7785 584.7809 151.3374 586.3457 151.7845 588.0222 151.8963 590.8165 151.5609 592.046 151.2256 594.505 150.3315 595.0638 150.1079 595.7344 149.9961 596.5168 150.1079 597.2992 150.2197 611.2706 156.0318 620.7712 161.5086 622.4477 163.1851 623.4537 164.7499 623.6772 165.3088 623.9008 166.0912 624.1243 168.5502 614.1767 213.2586 599.3111 281.8861 597.6345 293.5103 597.6345 295.5222 598.7523 295.8575 603.1113 298.8754 604.3408 299.4342 603.1113 302.005 538.284 397.3458 453.1144 374.3209 408.1824 370.856 394.6581 372.4208 392.3109 368.8441 390.5226 366.944 384.4869 362.3614 355.0911 331.0655 352.8557 328.1594 352.5204 327.4888 352.185 326.5946 351.8497 325.3651 351.738 324.471 351.738 323.5768 352.6321 316.8705 356.5441 299.7695 360.7914 289.263 362.1327 287.0276 362.9151 286.0217 363.3622 285.5746 369.1743 277.08 372.1921 274.0622 372.9745 273.0562 373.3098 272.4974 374.4275 269.8149 375.0981 267.5794 375.3217 267.1323 375.657 266.2382 375.8805 265.344 376.1041 263.3321 375.8805 262.3262 375.3217 261.432 369.286 256.2905 369.1743 256.1788 367.1624 252.8256 365.1505 250.1431 363.0268 247.9077 361.5738 246.0076 360.2326 243.3251 358.3325 237.7365 357.7736 234.7187 357.5501 232.3715 357.7736 231.0303 358.1089 229.689 358.6678 228.3477 362.0209 223.2063 363.921 218.7354 365.374 216.0529 366.9388 213.7057 368.6154 211.9174 369.5096 211.2468 372.0803 209.7937 378.3395 206.5524 382.5868 205.5464 388.2871 205.3229 413.5474 201.0756 425.954 194.1458 436.0134 187.1042 437.8018 185.3158 439.2548 183.8628 445.0669 175.0329 446.8552 171.2327 447.8612 167.9913 448.9789 161.5086 448.9789 161.3968 450.2084 155.92 450.879 150.555 451.1025 137.8131 450.9908 137.0307 450.7672 136.4718 450.6554 135.8012 450.2084 135.3541 449.7613 134.907 449.0906 134.7953 448.42 134.6835 447.7494 134.907 446.7435 135.4659 443.055 138.7073 441.4902 139.825 440.2607 140.2721 439.5901 140.2721 438.9195 140.2721 438.3606 140.0485 437.9135 139.6014 437.3547 138.5955 436.9076 137.0307 436.1252 133.6776 436.0134 132.1128 436.1252 130.995 436.684 130.6597 437.2429 130.4362 444.9551 129.4303 445.7375 128.9832 446.4081 128.2008 447.3023 126.5242 447.6376 125.4065 447.6376 124.4006 447.6376 123.7299 445.6257 115.1235Z" />
  <path class="As Suwayda'" d="M271.4862 868.6848L259.3032 876.397 233.1487 893.2745 216.2713 904.1163 192.9111 919.4289 168.3215 936.1946 166.3096 936.977 164.1859 936.8652 154.4618 934.2945 151.1087 934.1827 148.538 935.7475 142.9494 931.5002 122.0482 928.9295 122.0482 927.8118 122.607 922.6703 122.7188 922.2232 122.2717 913.5051 122.3835 912.7227 123.5012 909.146 123.613 908.4754 123.7248 906.9106 123.5012 906.3517 123.1659 905.4575 121.6011 903.1103 119.5892 900.6514 118.8068 899.5337 118.695 899.0866 118.8068 898.5277 119.701 896.6276 120.7069 895.2864 120.8187 895.0628 120.5952 893.9451 118.8068 891.1508 116.2361 891.3744 115.9008 891.3744 115.5655 891.2626 115.1184 891.0391 114.4477 890.592 114.1124 890.0331 113.4418 889.3625 113.1065 889.2507 112.7712 889.1389 112.4359 889.1389 109.5298 889.6978 107.1826 889.586 104.6119 889.2507 104.3883 888.9154 104.2766 888.3565 104.3883 887.2388 104.6119 886.5682 105.059 885.227 105.2825 884.5563 105.1707 883.9975 104.2766 881.9856 104.053 881.0914 104.2766 880.1972 104.6119 879.7502 104.9472 879.5266 106.8473 878.9678 107.4062 878.7442 107.6297 878.5207 107.8532 878.4089 108.6356 877.403 108.8592 877.1794 109.418 876.8441 110.5358 876.2853 110.9828 875.9499 111.3182 875.5029 111.5417 875.2793 111.6535 875.0558 111.9888 873.7145 111.9888 872.9321 111.6535 872.2615 110.8711 871.4791 108.971 870.1378 107.965 869.579 107.1826 869.3554 104.1648 869.0201 103.4942 868.7966 101.147 867.9024 100.8117 867.7906 100.4763 867.6789 99.6939 867.6789 99.0233 867.5671 98.5762 867.3436 98.3527 867.12 98.1292 866.7847 97.6821 866.0023 97.5703 865.5552 97.4585 865.1081 97.235 863.9904 97.235 863.208 97.4585 861.9785 97.7938 861.0844 99.3586 859.5196 98.2409 847.4483 98.2409 844.5422 98.4645 844.0952 98.5762 843.9834 98.688 843.3128 98.1292 841.4127 95.4466 834.9299 95.1113 833.0298 94.6642 831.8003 94.5525 830.6826 94.5525 830.2355 94.6642 829.9002 94.776 829.3414 96.1173 826.7706 96.1173 826.4353 96.229 826.1 96.229 825.7647 96.1173 825.4294 96.0055 825.0941 95.8937 824.7587 95.5584 823.8646 95.3349 823.3057 95.2231 822.8586 95.3349 822.5233 95.5584 821.9645 96.1173 821.4056 98.5762 819.6173 100.3646 818.4996 102.4882 816.4877 107.1826 812.911 108.4121 812.3521 109.9769 811.9051 116.1243 811.458 125.1778 812.1286 125.8484 812.0168 126.1837 811.9051 126.4073 811.5697 126.4073 811.1227 126.1837 810.2285 125.4013 808.7755 125.1778 808.1048 125.066 807.7695 125.066 807.4342 124.8425 803.0751 124.6189 802.5163 124.5072 802.181 124.2836 801.9574 124.0601 801.7339 123.8365 801.6221 123.5012 801.5103 123.1659 801.5103 122.3835 801.5103 122.0482 801.6221 119.701 802.5163 119.4774 802.5163 119.2539 802.5163 118.9186 802.4045 118.695 802.2927 118.3597 802.181 118.248 801.9574 117.9127 801.5103 117.6891 801.175 117.6891 800.8397 117.5773 798.0454 117.4656 797.263 117.3538 796.5924 117.1303 795.9218 116.1243 793.6864 115.6772 792.4569 115.3419 791.1156 115.3419 790.6685 115.3419 790.1097 115.5655 789.1037 115.6772 787.986 115.6772 787.5389 115.5655 786.8683 115.2301 785.9741 115.1184 785.5271 115.1184 785.1917 115.1184 784.6329 115.3419 783.8505 115.5655 782.9563 116.0125 782.0622 116.7949 781.168 117.6891 780.3856 120.2598 778.3737 120.9305 778.2619 121.9364 778.2619 126.1837 778.709 127.4132 778.4855 130.3193 776.9207 168.9921 771.3321 169.2156 771.5557 170.6686 773.0087 171.3393 773.5675 172.5688 774.9088 173.91 775.9147 178.3809 778.3737 178.8279 778.709 180.5045 780.6091 181.1751 781.8386 181.2869 782.3975 181.6222 784.6329 181.9575 785.1917 182.2928 785.6388 187.6579 791.1156 187.9932 791.5627 188.2167 791.898 188.4403 792.5686 188.7756 794.1334 188.8873 795.6982 188.9991 796.4806 189.2227 797.1513 189.3344 797.3748 189.4462 797.7101 189.8933 798.0454 193.0229 800.3926 193.5817 800.7279 196.1525 801.0633 197.0466 801.0633 206.9943 803.2987 207.7767 803.7458 208.0002 803.8575 208.4473 804.3046 209.2297 804.8635 211.018 805.9812 211.4651 806.3165 211.6887 806.54 211.8004 806.7636 212.024 807.0989 212.024 807.3224 212.1358 807.6578 212.1358 807.9931 212.1358 808.4402 212.024 809.1108 212.024 810.1167 212.1358 810.3403 212.1358 810.5638 212.4711 811.1227 212.8064 811.6815 213.0299 812.0168 213.2535 812.2404 213.2535 812.3521 213.5888 812.4639 213.9241 812.911 214.1476 813.1345 214.3712 813.6934 214.4829 813.9169 214.7065 814.2523 214.7065 814.4758 214.93 814.6993 215.2653 815.0347 215.6007 815.37 215.8242 815.8171 216.1595 816.9348 223.8717 821.4056 225.8836 822.2998 226.2189 822.2998 226.7778 822.0762 227.0013 821.8527 227.2249 821.7409 227.6719 821.2938 228.3426 821.0703 232.8134 821.2938 235.1606 822.0762 236.2783 823.1939 236.8372 824.1999 237.1725 824.8705 237.396 825.4294 237.8431 827.2177 238.5138 835.4888 238.7373 836.2712 238.7373 836.4947 238.8491 836.6065 239.2961 837.2771 259.9738 858.2901 267.4625 863.7669 268.8037 865.2199 271.3745 868.573 271.4862 868.6848Z" />
  <path class="Damascus" d="M91.5347 728.1884L88.6286 727.7414 79.3516 723.047 75.8867 725.2824 75.1043 723.4941 78.3457 720.0292 74.769 718.2408 72.31 718.5761 71.1923 715.223 77.0044 711.9816 81.587 711.7581 90.0816 709.2991 94.3289 709.6344 96.7879 712.9876 96.6761 714.9994 97.0114 718.3526 95.5584 722.3763 92.0935 725.953 91.5347 728.1884Z" />
  <path class="Dar`a" d="M19.7776 842.195L20.8953 840.5185 28.9428 833.0298 33.5254 829.3414 34.3078 828.2237 34.4196 827.8883 34.4196 827.1059 33.9725 823.5293 33.749 822.4116 33.5254 821.7409 33.1901 821.2938 32.9666 821.0703 32.8548 820.735 32.9666 820.2879 33.1901 819.8408 33.749 819.282 34.3078 819.0584 34.7549 818.9466 37.4374 818.8349 38.2198 818.9466 38.4433 819.0584 38.6669 819.1702 38.8904 819.5055 39.0022 819.729 39.114 820.3997 39.2257 820.735 39.4493 820.9585 39.5611 821.1821 39.8964 821.4056 40.1199 821.5174 40.3435 821.6292 40.6788 821.7409 40.9023 821.7409 41.1259 821.6292 41.2376 821.2938 41.2376 820.6232 41.0141 819.6173 40.0081 816.3759 39.7846 815.7053 39.114 815.0347 38.4433 814.0287 37.6609 812.3521 37.6609 812.2404 35.8726 809.5579 35.0902 807.8813 35.202 806.4283 37.1021 795.0276 37.2139 794.8041 38.2198 792.4569 40.1199 789.3273 40.1199 788.8802 39.8964 788.0978 39.114 786.7565 38.6669 786.0859 38.3316 785.7506 36.2079 784.074 35.9844 783.8505 36.0961 781.9504 37.3256 775.0206 40.6788 776.3618 41.0141 776.6971 41.6847 777.256 42.5789 778.9326 43.1377 779.6032 44.1437 779.9385 47.0497 779.9385 47.9439 779.8267 48.8381 779.4914 49.3969 779.2679 50.4029 778.4855 52.6383 776.4736 52.8618 776.3618 65.0449 775.3559 65.6037 775.1323 67.9509 773.9029 74.3219 771.7792 75.7749 771.1086 76.3338 769.6556 77.2279 767.979 77.4515 767.4201 77.675 766.7495 77.675 766.6377 77.675 766.4142 77.7868 765.9671 77.675 765.2965 77.1162 763.2846 77.2279 762.7257 77.4515 761.8316 78.1221 760.155 78.5692 759.5961 79.0163 759.2608 79.3516 759.3726 79.5751 759.4844 79.7987 759.7079 80.0222 759.9315 81.2517 762.0551 82.0341 763.0611 82.3694 763.3964 82.7047 763.6199 84.2695 764.4023 84.4931 764.6259 84.7166 764.8494 84.9402 765.0729 85.0519 765.4083 85.1637 765.6318 85.3872 767.5319 85.3872 767.8672 85.6108 768.2025 85.7226 768.4261 85.9461 768.6496 86.1696 768.7614 86.505 768.9849 86.952 769.0967 89.7463 769.432 90.4169 769.6556 90.6405 769.7673 91.0876 770.2144 91.3111 770.438 91.5347 770.6615 92.0935 772.1145 92.3171 772.3381 92.4288 772.5616 93.9936 773.5675 94.4407 774.0146 94.776 774.4617 95.4466 774.797 99.4704 775.9147 100.5881 776.1383 101.4823 776.1383 101.7058 776.0265 102.1529 775.803 102.2647 775.6912 102.3765 775.3559 102.4882 775.1323 102.4882 774.6853 102.7118 772.7851 102.7118 772.4498 102.8235 772.1145 103.3824 771.3321 107.965 767.0848 108.5239 766.7495 108.6356 766.7495 108.6356 766.6377 116.1243 761.9433 116.6832 761.4963 117.4656 760.3785 120.0363 758.5902 120.5952 758.5902 121.154 758.5902 121.7129 759.0373 122.0482 759.3726 122.2717 759.7079 122.4953 760.2668 122.7188 760.8256 123.3894 763.0611 123.7248 763.6199 123.9483 764.1788 129.2015 770.2144 129.4251 770.5497 129.6486 771.1086 129.7604 771.4439 129.8722 771.7792 129.8722 772.1145 129.9839 775.0206 130.3193 776.9207 127.4132 778.4855 126.1837 778.709 121.9364 778.2619 120.9305 778.2619 120.2598 778.3737 117.6891 780.3856 116.7949 781.168 116.0125 782.0622 115.5655 782.9563 115.3419 783.8505 115.1184 784.6329 115.1184 785.1917 115.1184 785.5271 115.2301 785.9741 115.5655 786.8683 115.6772 787.5389 115.6772 787.986 115.5655 789.1037 115.3419 790.1097 115.3419 790.6685 115.3419 791.1156 115.6772 792.4569 116.1243 793.6864 117.1303 795.9218 117.3538 796.5924 117.4656 797.263 117.5773 798.0454 117.6891 800.8397 117.6891 801.175 117.9127 801.5103 118.248 801.9574 118.3597 802.181 118.695 802.2927 118.9186 802.4045 119.2539 802.5163 119.4774 802.5163 119.701 802.5163 122.0482 801.6221 122.3835 801.5103 123.1659 801.5103 123.5012 801.5103 123.8365 801.6221 124.0601 801.7339 124.2836 801.9574 124.5072 802.181 124.6189 802.5163 124.8425 803.0751 125.066 807.4342 125.066 807.7695 125.1778 808.1048 125.4013 808.7755 126.1837 810.2285 126.4073 811.1227 126.4073 811.5697 126.1837 811.9051 125.8484 812.0168 125.1778 812.1286 116.1243 811.458 109.9769 811.9051 108.4121 812.3521 107.1826 812.911 102.4882 816.4877 100.3646 818.4996 98.5762 819.6173 96.1173 821.4056 95.5584 821.9645 95.3349 822.5233 95.2231 822.8586 95.3349 823.3057 95.5584 823.8646 95.8937 824.7587 96.0055 825.0941 96.1173 825.4294 96.229 825.7647 96.229 826.1 96.1173 826.4353 96.1173 826.7706 94.776 829.3414 94.6642 829.9002 94.5525 830.2355 94.5525 830.6826 94.6642 831.8003 95.1113 833.0298 95.4466 834.9299 98.1292 841.4127 98.688 843.3128 98.5762 843.9834 98.4645 844.0952 98.2409 844.5422 98.2409 847.4483 99.3586 859.5196 97.7938 861.0844 97.4585 861.9785 97.235 863.208 97.235 863.9904 97.4585 865.1081 97.5703 865.5552 97.6821 866.0023 98.1292 866.7847 98.3527 867.12 98.5762 867.3436 99.0233 867.5671 99.6939 867.6789 100.4763 867.6789 100.8117 867.7906 101.147 867.9024 103.4942 868.7966 104.1648 869.0201 107.1826 869.3554 107.965 869.579 108.971 870.1378 110.8711 871.4791 111.6535 872.2615 111.9888 872.9321 111.9888 873.7145 111.6535 875.0558 111.5417 875.2793 111.3182 875.5029 110.9828 875.9499 110.5358 876.2853 109.418 876.8441 108.8592 877.1794 108.6356 877.403 107.8532 878.4089 107.6297 878.5207 107.4062 878.7442 106.8473 878.9678 104.9472 879.5266 104.6119 879.7502 104.2766 880.1972 104.053 881.0914 104.2766 881.9856 105.1707 883.9975 105.2825 884.5563 105.059 885.227 104.6119 886.5682 104.3883 887.2388 104.2766 888.3565 104.3883 888.9154 104.6119 889.2507 107.1826 889.586 109.5298 889.6978 112.4359 889.1389 112.7712 889.1389 113.1065 889.2507 113.4418 889.3625 114.1124 890.0331 114.4477 890.592 115.1184 891.0391 115.5655 891.2626 115.9008 891.3744 116.2361 891.3744 118.8068 891.1508 120.5952 893.9451 120.8187 895.0628 120.7069 895.2864 119.701 896.6276 118.8068 898.5277 118.695 899.0866 118.8068 899.5337 119.5892 900.6514 121.6011 903.1103 123.1659 905.4575 123.5012 906.3517 123.7248 906.9106 123.613 908.4754 123.5012 909.146 122.3835 912.7227 122.2717 913.5051 122.7188 922.2232 122.607 922.6703 122.0482 927.8118 122.0482 928.9295 116.5714 928.2589 114.0007 926.6941 105.3943 925.9117 102.3765 924.9057 100.141 923.6762 86.7285 910.9343 76.8926 904.1163 71.9747 899.0866 70.2981 898.1924 69.5157 898.416 67.7274 899.9807 66.945 900.3161 66.0508 900.2043 64.486 899.5337 63.4801 899.4219 57.8915 900.2043 55.6561 900.2043 53.8678 900.0925 53.3089 899.9807 53.3089 899.1983 52.4147 897.0747 45.5967 886.5682 44.1437 883.5504 44.0319 880.1972 44.479 877.0677 43.6966 874.944 40.1199 874.7205 37.9963 875.1675 36.3197 874.6087 34.9784 873.2674 33.6372 871.5909 34.196 871.7026 34.6431 870.9202 34.8667 869.6908 34.6431 868.573 34.0843 868.2377 32.0724 868.2377 31.4018 868.0142 28.7193 865.3317 27.2662 864.4375 10.8359 860.6373 9.4946 858.849 9.4946 858.7372 8.824 858.2901 8.0416 858.1783 11.2829 853.3722 13.8537 851.8074 14.9714 851.1367 15.9773 849.4602 19.2187 844.7658 20.0011 843.201 19.7776 842.195Z" />
  <path class="Dayr Az Zawr" d="M680.457 615.8584L680.457 615.7466 594.3932 491.6806 569.2447 455.6903 568.574 454.5726 567.9034 452.896 567.7916 450.8842 568.7976 440.1541 568.6858 438.3658 568.127 436.6892 558.5146 416.0116 553.7085 409.8641 538.284 397.3458 603.1113 302.005 604.3408 299.4342 603.1113 298.8754 598.7523 295.8575 597.6345 295.5222 597.6345 293.5103 599.3111 281.8861 614.1767 213.2586 624.1243 168.5502 627.4774 175.9271 638.8781 194.9282 657.991 214.4881 772.3329 326.7064 777.2508 329.6124 780.0451 330.8419 789.5457 332.9656 795.0224 334.9774 806.6466 337.4364 836.7131 338.107 853.8141 340.566 846.6607 351.4078 846.6607 351.5196 845.2077 357.1081 843.8664 375.4386 837.4955 398.4635 836.0425 409.8641 836.1542 414.2232 836.9366 444.9603 838.2779 477.4857 837.9426 482.4036 836.6013 486.9862 810.4469 537.8421 804.8583 550.0252 801.3934 554.9431 796.9226 557.8492 759.4792 568.0204 737.125 581.5447 720.1358 591.8276 703.2583 601.9988 686.3809 612.2817 680.457 615.8584Z" />
  <path class="Hamah" d="M394.6581 372.4208L394.8816 375.6622 394.4345 396.5634 393.6521 399.5812 392.0873 403.4932 390.6343 406.1757 386.8341 411.7642 386.2752 412.9937 385.6046 415.0056 385.1575 416.5704 384.934 418.1352 384.934 419.7 385.7164 425.9592 385.2693 426.8534 384.1516 427.8593 364.0328 436.801 361.462 438.7011 357.3265 442.6131 356.6559 443.3955 356.6559 443.8426 356.4323 445.4074 356.3206 445.7427 356.2088 446.078 355.9853 446.3015 355.0911 447.531 354.9793 447.8663 354.1969 449.6547 353.4145 451.1077 353.3028 451.443 353.191 451.7783 353.191 452.1136 353.3028 453.6784 353.3028 454.4608 353.191 455.2432 353.0792 455.5785 352.9674 455.9139 352.8557 456.2492 352.6321 456.4727 352.4086 457.0316 352.185 457.3669 352.0733 458.0375 351.8497 458.5964 351.6262 458.9317 348.8319 462.0613 348.4966 462.2848 347.3789 462.7319 346.9318 462.8437 346.4847 462.7319 345.5905 461.9495 339.6667 454.2373 338.3254 452.2254 337.3195 451.1077 328.7131 443.9543 328.3778 443.8426 327.9307 443.5073 326.5894 442.2778 326.0306 441.4954 325.9188 441.2718 325.807 440.9365 325.2482 438.4776 325.1364 436.4657 324.9129 435.4597 324.2422 432.7772 324.1305 432.5537 323.9069 432.3301 323.1245 431.436 322.901 431.2124 322.7892 430.8771 322.5657 430.3183 322.4539 429.9829 322.1186 429.3123 321.6715 428.5299 321.0009 427.6358 320.7773 427.4122 320.2185 427.0769 319.9949 426.8534 319.3243 426.7416 316.1947 426.6298 315.4123 426.518 314.8535 426.2945 314.1828 426.071 313.7358 425.7356 313.5122 425.5121 311.7239 423.3884 310.8297 422.6061 309.8238 421.9354 309.4884 421.8237 309.0414 421.7119 308.3707 421.7119 295.7406 424.7297 288.699 427.3004 286.5754 427.7475 285.9047 427.7475 284.5635 427.7475 283.6693 427.9711 282.6634 428.5299 277.969 431.8831 274.9512 433.4479 273.9452 434.2303 273.2746 434.9009 273.051 435.1244 272.9393 435.348 272.3804 436.5774 272.1569 437.2481 271.8216 439.8188 271.8216 444.625 271.9333 445.4074 272.7157 447.6428 272.8275 448.3134 272.8275 448.6487 272.8275 449.0958 272.7157 449.4311 272.604 449.7664 272.3804 450.2135 272.2686 450.3253 272.0451 450.5488 271.8216 450.6606 271.3745 450.7724 270.8156 450.7724 269.5861 450.5488 268.9155 450.3253 268.5802 450.1018 268.0213 449.3194 266.6801 446.9722 266.4565 446.7486 266.1212 446.5251 265.5624 446.3015 264.78 446.1898 262.9916 446.3015 261.8739 446.078 260.9798 446.078 258.9679 446.4133 258.0737 446.4133 257.5149 446.5251 256.8442 446.8604 255.503 447.8663 254.497 448.2017 253.3793 448.537 252.1498 448.4252 250.9204 448.0899 249.3556 446.9722 249.132 446.8604 248.7967 446.7486 248.3496 446.8604 247.7908 447.1957 247.0084 448.2017 246.7848 448.8723 246.673 449.4311 246.673 449.7664 246.673 450.2135 246.3377 450.4371 245.8906 450.5488 243.4317 449.8782 241.8669 449.8782 241.4198 449.99 241.0845 450.2135 240.5256 450.5488 240.1903 451.2195 239.9668 451.6666 239.6315 453.2314 239.4079 453.4549 239.2961 453.6784 238.1784 454.7961 237.9549 455.0197 237.7314 455.2432 237.6196 455.5785 237.0607 457.9257 236.8372 458.5964 236.7254 458.8199 236.5019 459.1552 235.7195 460.0494 234.7135 460.72 234.2664 460.8318 233.7076 460.8318 231.8075 460.3847 230.578 459.7141 230.0191 459.3788 229.7956 459.1552 229.4603 458.7081 228.9014 457.5904 228.2308 456.0256 228.119 455.8021 227.8955 455.5785 227.4484 455.1315 227.0013 454.7961 226.4425 454.4608 225.7718 454.2373 225.4365 454.2373 224.6541 454.2373 223.76 454.5726 220.1833 456.9198 219.2891 457.814 218.7303 458.4846 218.5067 459.4905 218.2832 459.8259 217.9479 459.8259 216.7184 459.1552 215.4889 458.7081 215.2653 458.4846 214.8183 458.1493 213.9241 457.5904 213.7006 457.4787 213.3652 457.3669 212.9182 457.3669 212.2475 457.3669 211.8004 457.5904 211.2416 458.0375 209.565 460.2729 209.1179 460.4965 208.3355 460.72 205.7648 460.9436 204.4235 461.3906 203.4176 462.0613 195.8172 468.2087 194.923 468.6558 191.7934 469.7735 187.9932 461.2789 183.2988 452.0019 183.187 451.6666 182.4046 450.6606 180.1692 448.7605 178.1573 448.0899 176.5925 447.8663 175.6983 448.0899 174.6924 448.4252 172.457 449.99 171.7864 450.2135 171.1157 450.3253 169.6627 450.3253 168.6568 450.5488 167.7626 450.9959 165.7507 452.896 165.1919 453.1196 160.3857 453.4549 159.8268 453.3431 159.6033 453.3431 158.3738 453.3431 157.0326 453.6784 156.4737 453.6784 156.0266 453.6784 155.8031 453.4549 154.3501 454.0138 142.3905 460.1612 134.9019 459.8259 131.437 460.72 129.6486 461.8377 128.978 462.0613 128.6427 462.173 127.9721 462.0613 127.0779 461.9495 125.6249 461.2789 125.1778 460.8318 124.8425 460.3847 124.8425 459.4905 124.8425 459.1552 124.7307 458.8199 124.6189 458.4846 124.2836 458.3728 124.0601 458.1493 123.7248 458.0375 123.3894 458.0375 122.2717 457.9257 122.0482 457.814 121.8246 457.5904 121.7129 457.2551 121.7129 456.9198 121.8246 456.5845 121.9364 456.2492 122.4953 455.5785 122.8306 455.0197 122.9424 454.6844 123.0541 454.3491 123.0541 454.0138 122.9424 453.6784 122.8306 453.3431 122.607 453.1196 122.3835 452.896 121.8246 452.5607 121.2658 452.3372 120.8187 452.3372 120.1481 452.3372 118.8068 452.6725 118.4715 452.896 118.3597 453.0078 118.1362 453.1196 116.9067 454.7961 115.6772 456.808 111.877 460.9436 111.877 462.5084 111.9888 463.6261 111.877 464.1849 111.6535 464.7438 110.7593 465.7497 110.5358 466.4204 110.3122 466.9792 110.3122 468.544 110.3122 468.8793 110.0887 469.3264 108.8592 470.6677 108.5239 471.1147 107.7415 471.4501 107.1826 471.5618 102.6 470.4441 101.4823 468.6558 101.0352 468.3205 100.4763 467.9851 99.3586 468.0969 98.7998 468.0969 98.3527 468.3205 98.0174 468.7675 96.229 471.2265 95.782 471.6736 95.5584 471.7854 95.2231 471.8971 94.5525 471.4501 93.8818 470.6677 92.5406 468.544 91.87 467.8734 91.4229 467.4263 91.0876 467.4263 90.7523 467.3145 90.4169 467.2028 90.3052 466.8674 90.4169 466.4204 91.4229 465.1909 91.6464 464.8556 92.0935 464.632 91.9817 464.0732 90.9758 462.2848 90.4169 461.0553 89.7463 460.1612 85.8343 457.3669 85.1637 456.808 84.9402 456.2492 84.4931 455.0197 83.8224 452.449 82.9283 450.2135 82.0341 449.7664 80.6928 449.4311 74.769 449.99 72.31 449.8782 65.1567 448.4252 64.0389 443.5073 65.7155 442.5013 67.1685 442.3895 68.6216 442.7249 69.2922 442.7249 69.851 442.6131 70.4099 442.2778 71.3041 441.4954 71.8629 441.2718 72.5336 441.0483 73.8748 440.8248 74.5454 440.6012 75.4396 439.8188 76.1102 439.5953 78.2339 439.4835 78.7927 439.1482 79.7987 437.9187 80.3575 437.4716 81.4752 436.6892 81.9223 436.0186 82.4812 434.9009 83.7107 430.6536 83.7107 427.7475 81.9223 405.7286 81.8106 402.1519 81.4752 394.8868 77.4515 375.9975 74.9925 368.7323 73.9866 365.1557 73.8748 364.3733 76.8926 343.6956 77.4515 331.1772 77.0044 325.3651 76.6691 323.2415 76.222 322.012 75.6631 320.8943 73.8748 318.4353 73.6513 317.8765 73.763 317.0941 74.2101 316.0881 75.6631 314.5233 78.0103 312.8468 78.4574 312.0644 78.681 310.8349 79.0163 306.1405 79.6869 304.4639 82.1459 302.3403 82.8165 303.5697 83.1518 304.0168 83.8224 304.5757 84.3813 304.911 85.6108 305.3581 86.7285 305.4699 88.7404 305.2463 90.5287 304.6875 91.0876 304.3521 91.6464 304.1286 92.3171 303.9051 92.9877 303.9051 93.5465 304.2404 94.1054 304.6875 94.9996 305.6934 95.4466 306.5876 95.6702 307.37 95.8937 307.9288 96.0055 308.5994 96.3408 309.1583 98.3527 309.8289 105.059 310.0525 106.1767 310.7231 106.4002 313.0703 105.3943 321.3414 103.2706 331.5125 102.9353 334.8657 104.2766 347.4958 103.9413 348.5018 103.6059 349.2842 103.3824 349.7312 103.1589 350.2901 103.1589 350.4019 106.512 357.8905 107.2944 361.1319 108.3003 362.2496 111.5417 363.2556 116.9067 360.573 117.5773 360.4613 118.5833 360.9084 121.2658 362.2496 121.8246 362.5849 122.16 363.032 122.7188 364.1497 123.1659 365.3792 123.3894 365.9381 123.7248 366.4969 124.0601 366.944 124.6189 367.2793 125.1778 367.6146 125.9602 367.7264 127.525 367.8382 130.431 367.6146 131.884 367.8382 142.167 370.7442 149.991 370.9678 168.4332 365.9381 169.1039 365.9381 169.7745 365.9381 170.4451 366.1616 171.004 366.3851 175.5866 370.5207 176.1454 371.6384 176.369 372.1972 177.0396 373.315 177.4867 373.762 177.9338 374.0974 179.6103 375.2151 179.9457 375.6622 180.281 376.1092 180.6163 376.6681 181.2869 376.8916 182.1811 376.8916 183.7459 376.5563 184.8636 376.4446 185.8695 376.1092 186.7637 375.4386 189.4462 371.3031 192.7993 368.0617 193.3582 367.3911 194.5877 365.0439 195.0348 364.485 195.4818 364.2615 196.2642 364.485 196.8231 364.8204 197.1584 365.2674 197.4937 365.8263 197.7173 366.3851 197.9408 367.0558 198.0526 367.7264 198.1644 369.1794 198.1644 369.9618 198.0526 370.6325 197.829 371.4149 196.376 374.5444 196.2642 375.2151 196.2642 375.9975 196.2642 376.6681 196.8231 379.3506 196.9349 380.0212 196.9349 382.3684 197.0466 382.9273 197.382 383.4861 197.829 383.9332 198.3879 384.2685 199.0585 384.4921 199.7292 384.7156 201.1822 384.7156 204.6471 384.2685 207.7767 384.3803 208.5591 384.2685 209.4532 383.9332 210.1239 383.5979 210.571 383.1508 211.9122 381.0272 212.6946 379.9095 213.2535 379.4624 213.7006 379.1271 214.2594 378.9035 214.93 378.7917 215.6007 378.9035 216.2713 379.0153 216.8301 379.2388 217.389 379.2388 217.6125 378.68 217.7243 370.856 217.5008 369.5147 217.2772 368.8441 217.0537 368.397 216.6066 367.9499 216.0477 367.6146 215.4889 367.5029 214.8183 367.6146 214.3712 367.9499 214.0359 368.397 213.5888 368.8441 212.6946 370.7442 212.3593 371.1913 211.9122 371.6384 211.3534 371.9737 210.7945 372.1972 210.0121 372.1972 209.3415 372.0855 208.6708 371.8619 208.2238 371.5266 207.7767 371.0795 207.5531 370.4089 207.5531 369.7383 207.6649 368.9559 208.0002 367.6146 211.018 361.2437 211.8004 359.7906 212.6946 358.8965 214.5947 357.667 217.8361 356.3257 218.842 355.6551 219.7362 354.4256 223.5364 347.7194 225.213 343.8074 225.6601 342.9132 226.1072 342.3543 228.9014 340.6778 241.9787 345.2604 247.4554 348.9488 248.7967 349.6195 249.9144 349.9548 258.7443 350.0666 283.8928 348.2782 286.7989 350.2901 286.9107 350.4019 296.9701 357.4435 299.5408 358.6729 306.4706 360.6848 319.3243 362.5849 384.4869 362.3614 390.5226 366.944 392.3109 368.8441 394.6581 372.4208Z" />
  <path class="Hasaka (Al Haksa)" d="M853.8141 340.566L836.7131 338.107 806.6466 337.4364 795.0224 334.9774 789.5457 332.9656 780.0451 330.8419 777.2508 329.6124 772.3329 326.7064 657.991 214.4881 638.8781 194.9282 627.4774 175.9271 624.1243 168.5502 623.9008 166.0912 623.6772 165.3088 623.4537 164.7499 622.4477 163.1851 620.7712 161.5086 611.2706 156.0318 597.2992 150.2197 596.5168 150.1079 595.7344 149.9961 595.0638 150.1079 594.505 150.3315 592.046 151.2256 590.8165 151.5609 588.0222 151.8963 586.3457 151.7845 584.7809 151.3374 583.5514 150.7785 581.4277 148.8784 573.7155 138.9308 572.3743 135.8012 568.7976 125.0712 618.2004 115.5706 650.9494 103.164 666.1503 93.9988 671.6271 92.2105 677.3274 91.0927 683.0277 88.4102 693.9813 81.0333 714.2119 67.509 717.2297 65.4971 720.4711 64.2677 723.8242 63.597 727.2891 63.3735 734.3307 61.3616 754.7848 49.9609 762.2735 47.0549 790.8869 42.8076 827.3243 50.1845 834.1424 52.9788 837.4955 53.8729 879.9685 51.8611 943.6781 36.7719 960.8909 32.7482 967.4854 28.6127 978.9978 17.7708 986.71 7.5997 988.9454 6.2584 991.7397 4.023 993.4163 6.1466 993.6398 8.3821 993.4163 10.2822 993.5281 11.0646 995.6517 11.5117 1000.2343 13.7471 1001.1285 13.3 1002.1344 12.2941 1003.1404 11.3999 1004.0345 11.7352 1004.7052 12.7411 1005.4876 14.6413 1006.1582 15.6472 1011.2997 19.8945 1012.4174 20.4534 1013.4233 22.8006 1010.629 33.5306 1012.4174 35.9895 1013.6469 37.1073 1013.8704 39.9015 1013.9822 45.2666 1014.9881 47.502 1016.1058 49.5139 1017 51.6375 1017 54.4318 1012.3056 58.1202 1002.4697 67.3972 1002.4697 67.509 986.71 84.3865 956.1965 117.1354 935.6306 139.1543 931.6068 142.6193 927.3595 144.6311 879.9685 154.8023 870.1327 156.3671 865.5501 158.4908 862.5322 162.7381 849.0079 189.2278 847.7784 194.2575 842.8605 241.7603 842.8605 244.8899 843.5311 248.1312 847.4431 257.4083 859.1791 283.1156 860.8557 289.1513 861.6381 295.4105 862.1969 321.2296 861.4145 327.1535 858.9556 332.742 853.8141 340.566Z" />
  <path class="Homs (Hims)" d="M396.7817 788.4331L396.7817 788.3213 334.637 738.4714 329.9426 735.5653 326.1424 732.4358 325.1364 731.8769 323.6834 731.2063 323.4598 731.0945 323.1245 730.9827 320.5538 730.5356 319.1008 729.9768 313.4004 728.5238 311.0532 727.5178 309.4884 726.4001 305.2411 723.9411 294.8464 715.8936 284.5635 701.9222 283.6693 699.4633 283.1105 698.3455 282.3281 695.8866 282.2163 695.5513 281.9927 695.1042 281.7692 693.9865 280.3162 690.4098 279.422 688.845 264.5564 675.0971 263.1034 673.9794 260.5327 672.3029 248.2378 660.008 245.8906 658.4432 244.8847 657.5491 236.949 644.4718 236.8372 644.2483 236.3901 643.4659 235.3842 641.1187 235.2724 640.7834 235.1606 640.4481 235.0488 640.1128 234.9371 639.8892 234.0429 639.2186 231.0251 638.2127 228.0073 638.548 226.3307 638.548 225.6601 638.4362 224.0953 637.8773 209.2297 629.1592 209.1179 629.1592 209.0062 629.1592 208.112 628.6003 206.4354 627.3708 201.1822 622.5647 200.5116 621.3352 200.0645 620.7763 199.8409 620.5528 199.1703 619.9939 198.9468 619.7704 198.4997 618.988 198.2761 618.4292 198.0526 617.9821 196.5996 615.4113 196.2642 614.8525 195.1465 613.0641 195.0348 612.8406 194.1406 611.164 191.7934 607.5873 190.7875 605.5755 189.8933 604.346 187.2108 601.5517 184.9754 598.0868 182.8517 595.9631 179.3868 591.7158 178.9397 591.0452 178.8279 590.7099 176.9278 587.9156 176.0337 587.1332 175.363 587.1332 174.1336 587.245 169.5509 588.698 164.1859 591.7158 163.8506 591.8276 162.5094 591.8276 151.6675 590.3746 148.985 588.8098 148.2026 588.698 144.626 588.698 142.167 589.2569 138.4785 591.3805 137.9197 591.4923 135.349 592.2747 134.5666 590.4864 130.8781 586.7979 129.8722 584.1154 129.0898 580.6505 130.3193 578.3033 131.7723 576.2914 131.9958 574.7266 132.1076 573.8325 131.3252 572.3794 130.3193 572.1559 129.2015 572.2677 128.0838 571.8206 126.4073 570.0322 123.1659 565.3378 122.3835 563.8848 121.9364 562.4318 122.16 560.867 122.607 559.9728 123.1659 559.0787 123.5012 557.7374 124.0601 554.7196 124.1718 552.7077 123.3894 551.0311 120.9305 549.3546 119.8128 549.6899 118.695 549.0193 116.5714 546.225 113.8889 545.1073 111.877 543.4307 110.3122 540.9717 109.418 537.8421 107.7415 537.2833 107.2944 537.1715 106.512 537.0597 105.9531 537.0597 105.2825 536.948 103.8295 536.8362 103.0471 536.8362 102.1529 536.8362 100.9234 536.8362 100.5881 536.948 98.688 536.948 95.6702 537.8421 95.2231 538.0657 94.776 538.0657 94.4407 538.0657 93.9936 537.8421 93.5465 537.0597 92.0935 534.1537 92.4288 533.7066 92.6524 533.5948 94.5525 531.4712 98.7998 529.2358 101.7058 526.8886 102.4882 523.8707 102.2647 521.1882 102.6 518.9528 104.8354 517.4998 104.8354 517.6116 107.0708 518.1704 108.7474 519.5117 109.0827 519.2881 109.8651 518.6175 110.424 512.8054 106.7355 514.0349 102.9353 514.1466 99.3586 512.8054 96.229 510.1229 92.6524 503.5284 91.5347 502.746 90.4169 501.9636 87.1756 504.199 86.7285 505.652 86.6167 509.3405 86.0579 511.0171 84.6048 512.4701 83.4871 513.0289 83.1518 513.2525 73.8748 513.6996 72.9806 513.3642 71.1923 512.023 70.857 511.9112 70.4099 511.6877 69.5157 511.9112 68.5098 512.5818 67.6156 513.0289 66.945 513.2525 60.3505 512.8054 60.3505 512.6936 60.4623 512.023 60.6858 510.7935 60.9094 507.1051 61.2447 505.8756 71.6394 486.9862 75.2161 482.0683 75.4396 481.8448 75.6631 481.733 75.8867 481.5095 76.8926 481.2859 77.4515 480.8388 78.1221 480.28 80.4693 477.1504 84.4931 473.6855 84.9402 473.1266 85.2755 472.5678 85.2755 472.1207 85.2755 470.8912 84.9402 469.1029 84.9402 468.4322 85.0519 467.6498 85.3872 465.9733 85.7226 465.1909 85.9461 464.7438 86.2814 464.2967 86.505 464.0732 87.0638 463.7378 88.1815 463.179 90.9758 462.2848 91.9817 464.0732 92.0935 464.632 91.6464 464.8556 91.4229 465.1909 90.4169 466.4204 90.3052 466.8674 90.4169 467.2028 90.7523 467.3145 91.0876 467.4263 91.4229 467.4263 91.87 467.8734 92.5406 468.544 93.8818 470.6677 94.5525 471.4501 95.2231 471.8971 95.5584 471.7854 95.782 471.6736 96.229 471.2265 98.0174 468.7675 98.3527 468.3205 98.7998 468.0969 99.3586 468.0969 100.4763 467.9851 101.0352 468.3205 101.4823 468.6558 102.6 470.4441 107.1826 471.5618 107.7415 471.4501 108.5239 471.1147 108.8592 470.6677 110.0887 469.3264 110.3122 468.8793 110.3122 468.544 110.3122 466.9792 110.5358 466.4204 110.7593 465.7497 111.6535 464.7438 111.877 464.1849 111.9888 463.6261 111.877 462.5084 111.877 460.9436 115.6772 456.808 116.9067 454.7961 118.1362 453.1196 118.3597 453.0078 118.4715 452.896 118.8068 452.6725 120.1481 452.3372 120.8187 452.3372 121.2658 452.3372 121.8246 452.5607 122.3835 452.896 122.607 453.1196 122.8306 453.3431 122.9424 453.6784 123.0541 454.0138 123.0541 454.3491 122.9424 454.6844 122.8306 455.0197 122.4953 455.5785 121.9364 456.2492 121.8246 456.5845 121.7129 456.9198 121.7129 457.2551 121.8246 457.5904 122.0482 457.814 122.2717 457.9257 123.3894 458.0375 123.7248 458.0375 124.0601 458.1493 124.2836 458.3728 124.6189 458.4846 124.7307 458.8199 124.8425 459.1552 124.8425 459.4905 124.8425 460.3847 125.1778 460.8318 125.6249 461.2789 127.0779 461.9495 127.9721 462.0613 128.6427 462.173 128.978 462.0613 129.6486 461.8377 131.437 460.72 134.9019 459.8259 142.3905 460.1612 154.3501 454.0138 155.8031 453.4549 156.0266 453.6784 156.4737 453.6784 157.0326 453.6784 158.3738 453.3431 159.6033 453.3431 159.8268 453.3431 160.3857 453.4549 165.1919 453.1196 165.7507 452.896 167.7626 450.9959 168.6568 450.5488 169.6627 450.3253 171.1157 450.3253 171.7864 450.2135 172.457 449.99 174.6924 448.4252 175.6983 448.0899 176.5925 447.8663 178.1573 448.0899 180.1692 448.7605 182.4046 450.6606 183.187 451.6666 183.2988 452.0019 187.9932 461.2789 191.7934 469.7735 194.923 468.6558 195.8172 468.2087 203.4176 462.0613 204.4235 461.3906 205.7648 460.9436 208.3355 460.72 209.1179 460.4965 209.565 460.2729 211.2416 458.0375 211.8004 457.5904 212.2475 457.3669 212.9182 457.3669 213.3652 457.3669 213.7006 457.4787 213.9241 457.5904 214.8183 458.1493 215.2653 458.4846 215.4889 458.7081 216.7184 459.1552 217.9479 459.8259 218.2832 459.8259 218.5067 459.4905 218.7303 458.4846 219.2891 457.814 220.1833 456.9198 223.76 454.5726 224.6541 454.2373 225.4365 454.2373 225.7718 454.2373 226.4425 454.4608 227.0013 454.7961 227.4484 455.1315 227.8955 455.5785 228.119 455.8021 228.2308 456.0256 228.9014 457.5904 229.4603 458.7081 229.7956 459.1552 230.0191 459.3788 230.578 459.7141 231.8075 460.3847 233.7076 460.8318 234.2664 460.8318 234.7135 460.72 235.7195 460.0494 236.5019 459.1552 236.7254 458.8199 236.8372 458.5964 237.0607 457.9257 237.6196 455.5785 237.7314 455.2432 237.9549 455.0197 238.1784 454.7961 239.2961 453.6784 239.4079 453.4549 239.6315 453.2314 239.9668 451.6666 240.1903 451.2195 240.5256 450.5488 241.0845 450.2135 241.4198 449.99 241.8669 449.8782 243.4317 449.8782 245.8906 450.5488 246.3377 450.4371 246.673 450.2135 246.673 449.7664 246.673 449.4311 246.7848 448.8723 247.0084 448.2017 247.7908 447.1957 248.3496 446.8604 248.7967 446.7486 249.132 446.8604 249.3556 446.9722 250.9204 448.0899 252.1498 448.4252 253.3793 448.537 254.497 448.2017 255.503 447.8663 256.8442 446.8604 257.5149 446.5251 258.0737 446.4133 258.9679 446.4133 260.9798 446.078 261.8739 446.078 262.9916 446.3015 264.78 446.1898 265.5624 446.3015 266.1212 446.5251 266.4565 446.7486 266.6801 446.9722 268.0213 449.3194 268.5802 450.1018 268.9155 450.3253 269.5861 450.5488 270.8156 450.7724 271.3745 450.7724 271.8216 450.6606 272.0451 450.5488 272.2686 450.3253 272.3804 450.2135 272.604 449.7664 272.7157 449.4311 272.8275 449.0958 272.8275 448.6487 272.8275 448.3134 272.7157 447.6428 271.9333 445.4074 271.8216 444.625 271.8216 439.8188 272.1569 437.2481 272.3804 436.5774 272.9393 435.348 273.051 435.1244 273.2746 434.9009 273.9452 434.2303 274.9512 433.4479 277.969 431.8831 282.6634 428.5299 283.6693 427.9711 284.5635 427.7475 285.9047 427.7475 286.5754 427.7475 288.699 427.3004 295.7406 424.7297 308.3707 421.7119 309.0414 421.7119 309.4884 421.8237 309.8238 421.9354 310.8297 422.6061 311.7239 423.3884 313.5122 425.5121 313.7358 425.7356 314.1828 426.071 314.8535 426.2945 315.4123 426.518 316.1947 426.6298 319.3243 426.7416 319.9949 426.8534 320.2185 427.0769 320.7773 427.4122 321.0009 427.6358 321.6715 428.5299 322.1186 429.3123 322.4539 429.9829 322.5657 430.3183 322.7892 430.8771 322.901 431.2124 323.1245 431.436 323.9069 432.3301 324.1305 432.5537 324.2422 432.7772 324.9129 435.4597 325.1364 436.4657 325.2482 438.4776 325.807 440.9365 325.9188 441.2718 326.0306 441.4954 326.5894 442.2778 327.9307 443.5073 328.3778 443.8426 328.7131 443.9543 337.3195 451.1077 338.3254 452.2254 339.6667 454.2373 345.5905 461.9495 346.4847 462.7319 346.9318 462.8437 347.3789 462.7319 348.4966 462.2848 348.8319 462.0613 351.6262 458.9317 351.8497 458.5964 352.0733 458.0375 352.185 457.3669 352.4086 457.0316 352.6321 456.4727 352.8557 456.2492 352.9674 455.9139 353.0792 455.5785 353.191 455.2432 353.3028 454.4608 353.3028 453.6784 353.191 452.1136 353.191 451.7783 353.3028 451.443 353.4145 451.1077 354.1969 449.6547 354.9793 447.8663 355.0911 447.531 355.9853 446.3015 356.2088 446.078 356.3206 445.7427 356.4323 445.4074 356.6559 443.8426 356.6559 443.3955 357.3265 442.6131 361.462 438.7011 364.0328 436.801 384.1516 427.8593 385.2693 426.8534 385.7164 425.9592 384.934 419.7 384.934 418.1352 385.1575 416.5704 385.6046 415.0056 386.2752 412.9937 386.8341 411.7642 390.6343 406.1757 392.0873 403.4932 393.6521 399.5812 394.4345 396.5634 394.8816 375.6622 394.6581 372.4208 408.1824 370.856 453.1144 374.3209 538.284 397.3458 553.7085 409.8641 558.5146 416.0116 568.127 436.6892 568.6858 438.3658 568.7976 440.1541 567.7916 450.8842 567.9034 452.896 568.574 454.5726 569.2447 455.6903 594.3932 491.6806 680.457 615.7466 680.457 615.8584 669.5034 622.4529 652.626 632.7359 635.7485 642.907 618.8711 653.0782 601.9936 663.2494 585.1162 673.4206 568.2387 683.5917 551.3613 693.7629 534.4838 703.9341 517.4946 714.1053 500.6172 724.2765 483.7397 734.3359 466.8623 744.507 429.5307 767.7554 396.7817 788.4331Z" />
  <path class="Idlib" d="M66.945 289.8219L67.2803 289.7101 68.9569 284.2333 69.851 270.9326 73.2042 265.4558 78.1221 263.6674 81.8106 264.6734 84.2695 264.1145 85.499 257.4083 85.6108 257.4083 88.6286 256.1788 94.6642 258.526 97.9056 257.4083 97.4585 252.0432 97.9056 224.7711 98.2409 221.9768 99.1351 220.5238 100.3646 219.2943 100.5881 217.6177 98.3527 215.047 100.141 213.2586 102.0411 215.6058 103.9413 216.9471 106.0649 217.6177 110.3122 218.1766 111.2064 218.5119 111.9888 218.5119 113.33 217.953 114.0007 216.8353 114.2242 215.4941 114.7831 214.2646 116.5714 213.7057 119.3657 213.2586 130.8781 215.047 133.7842 215.047 144.626 213.0351 145.5201 211.4703 145.4084 207.1112 144.8495 204.4287 143.7318 201.4109 142.2788 198.5048 144.1789 197.3871 149.4321 196.2694 154.3501 196.3812 155.1325 196.0459 158.3738 193.5869 159.3798 193.3634 160.1622 193.4751 160.721 193.9222 161.0563 194.3693 161.2799 194.9282 161.5034 195.5988 161.8387 198.5048 162.6211 200.1814 167.3155 204.6523 171.3393 209.7937 171.8981 211.0232 172.0099 212.0292 171.7864 212.8116 171.5628 213.4822 170.8922 214.7117 170.1098 215.7176 167.092 218.7354 165.9743 220.3002 165.5272 220.7473 163.9624 221.6415 163.7388 221.865 163.4035 222.0886 162.6211 222.9827 161.9505 224.1004 161.0563 224.9946 156.0266 229.2419 154.1265 232.3715 157.2561 236.6188 158.3738 238.8542 159.8268 240.419 161.1681 241.7603 162.5094 242.5427 175.363 248.5783 176.8161 249.5843 177.7102 250.4784 178.0455 251.7079 178.2691 253.1609 178.6044 259.0848 178.6044 260.6496 178.7162 261.432 178.9397 262.1026 187.099 274.1739 194.8112 288.1453 196.0407 289.9337 197.0466 291.0514 197.6055 291.2749 198.3879 291.4985 200.7351 291.8338 202.6352 293.0633 205.653 296.0811 210.1239 299.2107 210.9063 299.9931 211.3534 300.7755 211.4651 301.4461 211.4651 302.2285 211.3534 303.0109 211.1298 303.6815 210.571 304.7992 210.0121 305.4699 209.3415 306.2523 208.3355 307.0347 207.8884 307.37 206.1001 308.1524 205.2059 308.9348 204.4235 310.276 206.659 317.3176 208.0002 320.1119 209.0062 321.5649 209.4532 322.7944 210.0121 326.1475 210.7945 327.377 215.6007 333.1891 216.3831 333.6362 217.7243 334.0833 218.5067 334.5304 219.5127 335.201 221.7481 337.5482 222.5305 338.107 228.9014 340.6778 226.1072 342.3543 225.6601 342.9132 225.213 343.8074 223.5364 347.7194 219.7362 354.4256 218.842 355.6551 217.8361 356.3257 214.5947 357.667 212.6946 358.8965 211.8004 359.7906 211.018 361.2437 208.0002 367.6146 207.6649 368.9559 207.5531 369.7383 207.5531 370.4089 207.7767 371.0795 208.2238 371.5266 208.6708 371.8619 209.3415 372.0855 210.0121 372.1972 210.7945 372.1972 211.3534 371.9737 211.9122 371.6384 212.3593 371.1913 212.6946 370.7442 213.5888 368.8441 214.0359 368.397 214.3712 367.9499 214.8183 367.6146 215.4889 367.5029 216.0477 367.6146 216.6066 367.9499 217.0537 368.397 217.2772 368.8441 217.5008 369.5147 217.7243 370.856 217.6125 378.68 217.389 379.2388 216.8301 379.2388 216.2713 379.0153 215.6007 378.9035 214.93 378.7917 214.2594 378.9035 213.7006 379.1271 213.2535 379.4624 212.6946 379.9095 211.9122 381.0272 210.571 383.1508 210.1239 383.5979 209.4532 383.9332 208.5591 384.2685 207.7767 384.3803 204.6471 384.2685 201.1822 384.7156 199.7292 384.7156 199.0585 384.4921 198.3879 384.2685 197.829 383.9332 197.382 383.4861 197.0466 382.9273 196.9349 382.3684 196.9349 380.0212 196.8231 379.3506 196.2642 376.6681 196.2642 375.9975 196.2642 375.2151 196.376 374.5444 197.829 371.4149 198.0526 370.6325 198.1644 369.9618 198.1644 369.1794 198.0526 367.7264 197.9408 367.0558 197.7173 366.3851 197.4937 365.8263 197.1584 365.2674 196.8231 364.8204 196.2642 364.485 195.4818 364.2615 195.0348 364.485 194.5877 365.0439 193.3582 367.3911 192.7993 368.0617 189.4462 371.3031 186.7637 375.4386 185.8695 376.1092 184.8636 376.4446 183.7459 376.5563 182.1811 376.8916 181.2869 376.8916 180.6163 376.6681 180.281 376.1092 179.9457 375.6622 179.6103 375.2151 177.9338 374.0974 177.4867 373.762 177.0396 373.315 176.369 372.1972 176.1454 371.6384 175.5866 370.5207 171.004 366.3851 170.4451 366.1616 169.7745 365.9381 169.1039 365.9381 168.4332 365.9381 149.991 370.9678 142.167 370.7442 131.884 367.8382 130.431 367.6146 127.525 367.8382 125.9602 367.7264 125.1778 367.6146 124.6189 367.2793 124.0601 366.944 123.7248 366.4969 123.3894 365.9381 123.1659 365.3792 122.7188 364.1497 122.16 363.032 121.8246 362.5849 121.2658 362.2496 118.5833 360.9084 117.5773 360.4613 116.9067 360.573 111.5417 363.2556 108.3003 362.2496 107.2944 361.1319 106.512 357.8905 103.1589 350.4019 103.1589 350.2901 103.3824 349.7312 103.6059 349.2842 103.9413 348.5018 104.2766 347.4958 102.9353 334.8657 103.2706 331.5125 105.3943 321.3414 106.4002 313.0703 106.1767 310.7231 105.059 310.0525 98.3527 309.8289 96.3408 309.1583 96.0055 308.5994 95.8937 307.9288 95.6702 307.37 95.4466 306.5876 94.9996 305.6934 94.1054 304.6875 93.5465 304.2404 92.9877 303.9051 92.3171 303.9051 91.6464 304.1286 91.0876 304.3521 90.5287 304.6875 88.7404 305.2463 86.7285 305.4699 85.6108 305.3581 84.3813 304.911 83.8224 304.5757 83.1518 304.0168 82.8165 303.5697 82.1459 302.3403 85.9461 299.6578 87.0638 298.2047 87.2873 297.4223 87.2873 296.6399 87.0638 295.9693 86.505 295.1869 85.8343 294.8516 85.1637 294.6281 74.769 295.0751 73.4277 295.4105 72.1982 295.8575 71.3041 296.0811 70.1864 296.0811 67.9509 295.9693 66.8332 295.5222 66.2744 294.9634 66.0508 294.4045 66.0508 293.7339 66.1626 292.9515 66.3861 292.2809 66.6097 291.8338 66.945 290.7161 67.0568 290.4925 66.945 289.8219Z" />
  <path class="Lattakia" d="M66.945 289.8219L67.0568 290.4925 66.945 290.7161 66.6097 291.8338 66.3861 292.2809 66.1626 292.9515 66.0508 293.7339 66.0508 294.4045 66.2744 294.9634 66.8332 295.5222 67.9509 295.9693 70.1864 296.0811 71.3041 296.0811 72.1982 295.8575 73.4277 295.4105 74.769 295.0751 85.1637 294.6281 85.8343 294.8516 86.505 295.1869 87.0638 295.9693 87.2873 296.6399 87.2873 297.4223 87.0638 298.2047 85.9461 299.6578 82.1459 302.3403 79.6869 304.4639 79.0163 306.1405 78.681 310.8349 78.4574 312.0644 78.0103 312.8468 75.6631 314.5233 74.2101 316.0881 73.763 317.0941 73.6513 317.8765 73.8748 318.4353 75.6631 320.8943 76.222 322.012 76.6691 323.2415 77.0044 325.3651 77.4515 331.1772 76.8926 343.6956 73.8748 364.3733 73.9866 365.1557 74.9925 368.7323 77.4515 375.9975 81.4752 394.8868 81.8106 402.1519 75.8867 399.2459 73.8748 399.0223 71.7512 400.3636 70.6334 400.9224 70.0746 401.0342 47.0497 402.9343 46.0438 402.599 41.5729 398.7988 39.2257 397.234 32.743 395.1103 32.6312 394.9986 30.284 390.0806 32.2959 383.8215 31.6253 380.6919 30.5076 368.5088 30.8429 365.8263 29.2781 364.2615 21.9012 354.3139 18.7716 352.7491 17.2068 351.6314 16.648 349.7312 15.4185 348.7253 12.9595 349.0606 10.6123 349.9548 9.8299 350.4019 8.1534 349.6195 8.3769 347.4958 9.1593 344.9251 9.2711 342.6897 8.3769 341.6837 3.0119 338.7777 3.3472 337.8835 3.5707 335.9834 4.0178 334.9774 3.0119 334.9774 1 336.0952 1 334.9774 4.0178 333.8597 7.0356 331.9596 9.3828 329.1653 10.277 325.8122 9.9417 323.8003 8.6004 321.2296 8.2651 318.8824 9.0475 317.5411 12.6242 316.3117 18.5481 304.911 18.7716 303.9051 18.7716 299.546 18.101 295.8575 16.5362 291.4985 14.4125 287.3629 12.4007 284.6804 19.7776 285.1275 23.466 284.2333 25.0308 281.4391 25.7014 277.7506 29.6134 271.8267 31.0664 272.2738 34.0843 271.715 37.2139 270.5972 40.1199 270.1502 42.1318 272.2738 42.1318 274.7328 41.6847 277.1917 42.02 279.4272 43.8084 280.992 46.1556 281.5508 50.9617 281.6626 55.4326 283.7862 64.3743 290.269 66.945 289.8219Z" />
  <path class="Quneitra" d="M19.2187 753.4487L25.5897 756.8019 27.1545 757.8078 27.1545 758.1431 27.0427 758.4784 26.2603 759.3726 25.7014 760.3785 25.4779 760.7139 25.2543 761.1609 25.0308 762.2787 24.8073 763.2846 24.8073 764.067 24.8073 764.8494 24.919 765.1847 25.0308 765.8553 26.0367 767.979 26.3721 768.4261 26.7074 768.5378 26.8191 768.3143 27.0427 768.0908 27.2662 767.4201 27.4898 766.7495 27.4898 766.6377 27.6015 766.4142 27.7133 766.1906 27.8251 765.9671 28.0486 765.7436 28.6075 765.52 28.9428 765.4083 29.3899 765.4083 32.8548 766.0789 34.6431 766.1906 36.655 766.4142 37.2139 766.7495 37.5492 767.0848 37.6609 767.4201 37.6609 767.8672 37.6609 768.6496 37.5492 770.1026 37.6609 772.8969 37.5492 773.7911 37.3256 775.0206 36.0961 781.9504 35.9844 783.8505 36.2079 784.074 38.3316 785.7506 38.6669 786.0859 39.114 786.7565 39.8964 788.0978 40.1199 788.8802 40.1199 789.3273 38.2198 792.4569 37.2139 794.8041 37.1021 795.0276 35.202 806.4283 35.0902 807.8813 35.8726 809.5579 37.6609 812.2404 37.6609 812.3521 38.4433 814.0287 39.114 815.0347 39.7846 815.7053 40.0081 816.3759 41.0141 819.6173 41.2376 820.6232 41.2376 821.2938 41.1259 821.6292 40.9023 821.7409 40.6788 821.7409 40.3435 821.6292 40.1199 821.5174 39.8964 821.4056 39.5611 821.1821 39.4493 820.9585 39.2257 820.735 39.114 820.3997 39.0022 819.729 38.8904 819.5055 38.6669 819.1702 38.4433 819.0584 38.2198 818.9466 37.4374 818.8349 34.7549 818.9466 34.3078 819.0584 33.749 819.282 33.1901 819.8408 32.9666 820.2879 32.8548 820.735 32.9666 821.0703 33.1901 821.2938 33.5254 821.7409 33.749 822.4116 33.9725 823.5293 34.4196 827.1059 34.4196 827.8883 34.3078 828.2237 33.5254 829.3414 28.9428 833.0298 20.8953 840.5185 19.7776 842.195 19.7776 842.0833 21.9012 834.1475 26.4838 825.3176 29.7252 821.9645 31.5135 818.1642 27.6015 814.9229 24.4719 813.6934 22.4601 797.4866 23.1307 792.7922 26.4838 792.3451 28.3839 792.3451 28.3839 791.1156 27.4898 791.1156 26.9309 790.3332 26.7074 789.6626 27.1545 788.992 27.9369 788.5449 28.831 788.0978 29.5017 787.6507 29.6134 786.9801 29.6134 785.08 29.6134 782.0622 29.0546 781.0562 28.831 780.0503 27.9369 779.4914 27.378 779.3796 26.4838 780.0503 26.1485 780.0503 25.5897 779.715 25.2543 778.709 25.2543 777.8149 26.2603 776.8089 26.2603 776.1383 25.7014 775.1323 24.0249 773.0087 22.7954 771.1086 22.013 768.9849 21.007 763.2846 20.8953 762.614 20.4482 762.0551 19.6658 761.3845 18.101 761.3845 16.648 761.2727 15.7538 761.1609 15.642 760.4903 15.9773 760.155 16.648 759.7079 17.7657 759.2608 18.7716 758.4784 19.554 756.9136 19.6658 755.1253 19.3305 753.5605 19.2187 753.4487Z" />
  <path class="Rif Dimashq" d="M396.7817 788.4331L383.8163 796.5924 357.3265 813.3581 337.8783 825.8765 311.6121 842.7539 285.4576 859.6314 271.4862 868.6848 271.3745 868.573 268.8037 865.2199 267.4625 863.7669 259.9738 858.2901 239.2961 837.2771 238.8491 836.6065 238.7373 836.4947 238.7373 836.2712 238.5138 835.4888 237.8431 827.2177 237.396 825.4294 237.1725 824.8705 236.8372 824.1999 236.2783 823.1939 235.1606 822.0762 232.8134 821.2938 228.3426 821.0703 227.6719 821.2938 227.2249 821.7409 227.0013 821.8527 226.7778 822.0762 226.2189 822.2998 225.8836 822.2998 223.8717 821.4056 216.1595 816.9348 215.8242 815.8171 215.6007 815.37 215.2653 815.0347 214.93 814.6993 214.7065 814.4758 214.7065 814.2523 214.4829 813.9169 214.3712 813.6934 214.1476 813.1345 213.9241 812.911 213.5888 812.4639 213.2535 812.3521 213.2535 812.2404 213.0299 812.0168 212.8064 811.6815 212.4711 811.1227 212.1358 810.5638 212.1358 810.3403 212.024 810.1167 212.024 809.1108 212.1358 808.4402 212.1358 807.9931 212.1358 807.6578 212.024 807.3224 212.024 807.0989 211.8004 806.7636 211.6887 806.54 211.4651 806.3165 211.018 805.9812 209.2297 804.8635 208.4473 804.3046 208.0002 803.8575 207.7767 803.7458 206.9943 803.2987 197.0466 801.0633 196.1525 801.0633 193.5817 800.7279 193.0229 800.3926 189.8933 798.0454 189.4462 797.7101 189.3344 797.3748 189.2227 797.1513 188.9991 796.4806 188.8873 795.6982 188.7756 794.1334 188.4403 792.5686 188.2167 791.898 187.9932 791.5627 187.6579 791.1156 182.2928 785.6388 181.9575 785.1917 181.6222 784.6329 181.2869 782.3975 181.1751 781.8386 180.5045 780.6091 178.8279 778.709 178.3809 778.3737 173.91 775.9147 172.5688 774.9088 171.3393 773.5675 170.6686 773.0087 169.2156 771.5557 168.9921 771.3321 130.3193 776.9207 129.9839 775.0206 129.8722 772.1145 129.8722 771.7792 129.7604 771.4439 129.6486 771.1086 129.4251 770.5497 129.2015 770.2144 123.9483 764.1788 123.7248 763.6199 123.3894 763.0611 122.7188 760.8256 122.4953 760.2668 122.2717 759.7079 122.0482 759.3726 121.7129 759.0373 121.154 758.5902 120.5952 758.5902 120.0363 758.5902 117.4656 760.3785 116.6832 761.4963 116.1243 761.9433 108.6356 766.6377 108.6356 766.7495 108.5239 766.7495 107.965 767.0848 103.3824 771.3321 102.8235 772.1145 102.7118 772.4498 102.7118 772.7851 102.4882 774.6853 102.4882 775.1323 102.3765 775.3559 102.2647 775.6912 102.1529 775.803 101.7058 776.0265 101.4823 776.1383 100.5881 776.1383 99.4704 775.9147 95.4466 774.797 94.776 774.4617 94.4407 774.0146 93.9936 773.5675 92.4288 772.5616 92.3171 772.3381 92.0935 772.1145 91.5347 770.6615 91.3111 770.438 91.0876 770.2144 90.6405 769.7673 90.4169 769.6556 89.7463 769.432 86.952 769.0967 86.505 768.9849 86.1696 768.7614 85.9461 768.6496 85.7226 768.4261 85.6108 768.2025 85.3872 767.8672 85.3872 767.5319 85.1637 765.6318 85.0519 765.4083 84.9402 765.0729 84.7166 764.8494 84.4931 764.6259 84.2695 764.4023 82.7047 763.6199 82.3694 763.3964 82.0341 763.0611 81.2517 762.0551 80.0222 759.9315 79.7987 759.7079 79.5751 759.4844 79.3516 759.3726 79.0163 759.2608 78.5692 759.5961 78.1221 760.155 77.4515 761.8316 77.2279 762.7257 77.1162 763.2846 77.675 765.2965 77.7868 765.9671 77.675 766.4142 77.675 766.6377 77.675 766.7495 77.4515 767.4201 77.2279 767.979 76.3338 769.6556 75.7749 771.1086 74.3219 771.7792 67.9509 773.9029 65.6037 775.1323 65.0449 775.3559 52.8618 776.3618 52.6383 776.4736 50.4029 778.4855 49.3969 779.2679 48.8381 779.4914 47.9439 779.8267 47.0497 779.9385 44.1437 779.9385 43.1377 779.6032 42.5789 778.9326 41.6847 777.256 41.0141 776.6971 40.6788 776.3618 37.3256 775.0206 37.5492 773.7911 37.6609 772.8969 37.5492 770.1026 37.6609 768.6496 37.6609 767.8672 37.6609 767.4201 37.5492 767.0848 37.2139 766.7495 36.655 766.4142 34.6431 766.1906 32.8548 766.0789 29.3899 765.4083 28.9428 765.4083 28.6075 765.52 28.0486 765.7436 27.8251 765.9671 27.7133 766.1906 27.6015 766.4142 27.4898 766.6377 27.4898 766.7495 27.2662 767.4201 27.0427 768.0908 26.8191 768.3143 26.7074 768.5378 26.3721 768.4261 26.0367 767.979 25.0308 765.8553 24.919 765.1847 24.8073 764.8494 24.8073 764.067 24.8073 763.2846 25.0308 762.2787 25.2543 761.1609 25.4779 760.7139 25.7014 760.3785 26.2603 759.3726 27.0427 758.4784 27.1545 758.1431 27.1545 757.8078 25.5897 756.8019 19.2187 753.4487 17.9892 750.4309 17.2068 748.1955 17.2068 745.7365 17.9892 743.2776 19.554 741.3774 22.013 739.4773 23.3542 738.0243 23.8013 736.3477 23.6895 735.4536 23.3542 733.5535 26.1485 731.8769 30.8429 727.8531 33.3019 722.041 31.29 718.3526 32.9666 715.8936 36.5432 714.7759 40.1199 714.7759 43.026 713.4347 46.2673 711.4228 48.6145 708.6285 49.0616 705.1636 47.7204 703.1517 45.1496 701.2516 42.3553 699.7986 40.1199 699.2397 36.655 697.2278 33.1901 696.5572 31.1782 695.3277 31.8488 691.4157 32.4077 690.7451 34.4196 689.9627 35.0902 689.2921 35.5373 687.5037 35.0902 684.1506 35.3138 682.6976 36.4315 681.021 39.2257 678.4503 40.1199 676.3266 42.2436 673.197 47.2733 668.838 49.3969 664.926 50.8499 662.9141 53.3089 661.9081 53.9795 661.7964 56.215 661.2375 58.7857 660.008 64.2625 656.6549 65.2684 657.2138 65.7155 657.7726 67.2803 659.6727 68.5098 660.4551 71.6394 660.4551 71.9747 660.2316 74.0983 658.8903 76.222 657.2138 78.5692 656.3196 80.8046 656.7667 81.2517 656.8784 89.0757 660.6787 94.8878 662.1317 97.7938 661.5728 99.1351 659.7845 99.5822 659.2256 99.3586 655.4254 96.6761 653.7488 90.7523 652.7429 86.1696 649.278 85.2755 648.1603 84.2695 646.3719 83.9342 645.7013 87.2873 638.995 89.2992 635.7537 91.7582 632.7359 97.7938 627.3708 102.9353 620.8881 106.1767 619.3233 107.8532 619.4351 108.0768 619.5469 111.2064 620.6646 111.877 620.6646 113.2183 620.5528 115.789 619.3233 116.5714 617.6468 116.9067 615.4113 117.8009 612.8406 120.8187 609.0404 127.6367 603.2283 131.1017 597.1926 135.4607 592.4982 135.349 592.2747 137.9197 591.4923 138.4785 591.3805 142.167 589.2569 144.626 588.698 148.2026 588.698 148.985 588.8098 151.6675 590.3746 162.5094 591.8276 163.8506 591.8276 164.1859 591.7158 169.5509 588.698 174.1336 587.245 175.363 587.1332 176.0337 587.1332 176.9278 587.9156 178.8279 590.7099 178.9397 591.0452 179.3868 591.7158 182.8517 595.9631 184.9754 598.0868 187.2108 601.5517 189.8933 604.346 190.7875 605.5755 191.7934 607.5873 194.1406 611.164 195.0348 612.8406 195.1465 613.0641 196.2642 614.8525 196.5996 615.4113 198.0526 617.9821 198.2761 618.4292 198.4997 618.988 198.9468 619.7704 199.1703 619.9939 199.8409 620.5528 200.0645 620.7763 200.5116 621.3352 201.1822 622.5647 206.4354 627.3708 208.112 628.6003 209.0062 629.1592 209.1179 629.1592 209.2297 629.1592 224.0953 637.8773 225.6601 638.4362 226.3307 638.548 228.0073 638.548 231.0251 638.2127 234.0429 639.2186 234.9371 639.8892 235.0488 640.1128 235.1606 640.4481 235.2724 640.7834 235.3842 641.1187 236.3901 643.4659 236.8372 644.2483 236.949 644.4718 244.8847 657.5491 245.8906 658.4432 248.2378 660.008 260.5327 672.3029 263.1034 673.9794 264.5564 675.0971 279.422 688.845 280.3162 690.4098 281.7692 693.9865 281.9927 695.1042 282.2163 695.5513 282.3281 695.8866 283.1105 698.3455 283.6693 699.4633 284.5635 701.9222 294.8464 715.8936 305.2411 723.9411 309.4884 726.4001 311.0532 727.5178 313.4004 728.5238 319.1008 729.9768 320.5538 730.5356 323.1245 730.9827 323.4598 731.0945 323.6834 731.2063 325.1364 731.8769 326.1424 732.4358 329.9426 735.5653 334.637 738.4714 396.7817 788.3213 396.7817 788.4331ZM91.5347 728.1884L92.0935 725.953 95.5584 722.3763 97.0114 718.3526 96.6761 714.9994 96.7879 712.9876 94.3289 709.6344 90.0816 709.2991 81.587 711.7581 77.0044 711.9816 71.1923 715.223 72.31 718.5761 74.769 718.2408 78.3457 720.0292 75.1043 723.4941 75.8867 725.2824 79.3516 723.047 88.6286 727.7414 91.5347 728.1884Z" />
  <path class="Tartus" d="M60.3505 512.8054L57.5562 512.5818 56.5503 512.4701 56.4385 512.4701 54.8737 512.8054 54.3149 512.8054 52.4147 513.1407 51.1853 513.0289 50.9617 513.0289 49.0616 513.0289 48.9498 513.0289 48.8381 512.9172 48.7263 512.9172 48.391 512.8054 47.9439 512.6936 47.2733 512.4701 45.7085 512.023 43.3613 510.1229 43.026 509.8993 41.9083 509.3405 41.7965 509.3405 41.2376 509.1169 40.567 508.8934 38.5551 509.0052 37.9963 505.5403 35.202 499.8399 34.196 494.8102 32.6312 492.1277 32.2959 490.4512 32.2959 482.8507 31.8488 481.733 29.1663 477.0386 28.6075 475.2503 27.8251 471.3383 22.9072 458.0375 23.8013 457.4787 23.9131 456.5845 24.8073 455.4668 25.0308 454.1255 24.8073 452.896 23.9131 451.6666 23.9131 450.3253 24.6955 449.5429 24.6955 449.4311 24.3602 449.2076 23.9131 447.8663 25.1426 445.1838 26.0367 443.8426 27.1545 442.6131 28.0486 439.8188 27.4898 437.0245 26.5956 434.5656 26.0367 432.4419 26.0367 423.5002 27.0427 421.2648 34.196 410.1994 37.4374 406.9581 36.0961 401.9284 32.6312 394.9986 32.743 395.1103 39.2257 397.234 41.5729 398.7988 46.0438 402.599 47.0497 402.9343 70.0746 401.0342 70.6334 400.9224 71.7512 400.3636 73.8748 399.0223 75.8867 399.2459 81.8106 402.1519 81.9223 405.7286 83.7107 427.7475 83.7107 430.6536 82.4812 434.9009 81.9223 436.0186 81.4752 436.6892 80.3575 437.4716 79.7987 437.9187 78.7927 439.1482 78.2339 439.4835 76.1102 439.5953 75.4396 439.8188 74.5454 440.6012 73.8748 440.8248 72.5336 441.0483 71.8629 441.2718 71.3041 441.4954 70.4099 442.2778 69.851 442.6131 69.2922 442.7249 68.6216 442.7249 67.1685 442.3895 65.7155 442.5013 64.0389 443.5073 65.1567 448.4252 72.31 449.8782 74.769 449.99 80.6928 449.4311 82.0341 449.7664 82.9283 450.2135 83.8224 452.449 84.4931 455.0197 84.9402 456.2492 85.1637 456.808 85.8343 457.3669 89.7463 460.1612 90.4169 461.0553 90.9758 462.2848 88.1815 463.179 87.0638 463.7378 86.505 464.0732 86.2814 464.2967 85.9461 464.7438 85.7226 465.1909 85.3872 465.9733 85.0519 467.6498 84.9402 468.4322 84.9402 469.1029 85.2755 470.8912 85.2755 472.1207 85.2755 472.5678 84.9402 473.1266 84.4931 473.6855 80.4693 477.1504 78.1221 480.28 77.4515 480.8388 76.8926 481.2859 75.8867 481.5095 75.6631 481.733 75.4396 481.8448 75.2161 482.0683 71.6394 486.9862 61.2447 505.8756 60.9094 507.1051 60.6858 510.7935 60.4623 512.023 60.3505 512.6936 60.3505 512.8054Z" />
</svg>