<?xml version="1.0" encoding="utf-8"?>
<svg xmlns="http://www.w3.org/2000/svg" viewBox="0 0 701 1024" style="stroke-width:0.25px;stroke-linejoin:round;stroke:#444;fill:#ddd" fill-rule="evenodd">
  <path class="Carriacou and Petite Martinique" d="M684.4253 148.8554L651.2293 138.9078 619.4862 147.9613 587.9668 164.1681 556.0002 176.4629 562.4829 164.6152 575.1131 134.2134 581.5958 122.4774 575.7837 121.4715 556.0002 122.4774 558.6827 114.7652 569.8598 96.0994 610.5446 108.5061 634.9107 75.1982 655.3648 29.3721 684.4253 4 696.6084 35.5195 693.367 70.6156 685.6548 108.8414 684.4253 148.8554Z" />
  <path class="Saint Andrew" d="M216.2158 862.5144L206.9388 849.8843 197.6618 811.7703 194.5322 791.2044 216.2158 764.2675 242.5938 719.8944 255.0004 680.2156 301.4972 680.2156 354.365 685.0218 348.5529 767.7325 343.9703 781.2568 335.6992 794.5575 323.1809 824.0651 323.7397 839.0425 334.358 870.5619 329.5518 876.5976 319.8277 881.0684 314.2392 892.4691 279.8136 865.7558 250.3061 853.0139 216.2158 862.5144Z" />
  <path class="Saint David" d="M204.0328 976.6328L192.9674 968.697 179.1078 946.5663 179.1078 913.2585 191.4026 870.4502 216.2158 862.5144 250.3061 853.0139 279.8136 865.7558 314.2392 892.4691 312.0037 907.5582 311.3331 923.3179 300.9384 940.5307 220.1278 983.0037 220.1278 968.697 204.0328 976.6328Z" />
  <path class="Saint George" d="M204.0328 976.6328L192.0733 987.4746 184.3611 1001.8931 181.5668 1020 164.0187 1016.7586 147.0295 1011.5054 131.0462 1004.2403 116.1806 995.075 96.6207 1012.176 64.6541 1018.9941 29.6697 1017.2057 1.3916 1009.3817 66.7778 967.244 78.7373 955.508 85.3318 927.3417 79.9668 904.7639 70.6898 882.6332 65.6601 856.2552 75.8312 813.3351 141.888 813.4469 197.6618 811.7703 206.9388 849.8843 216.2158 862.5144 191.4026 870.4502 179.1078 913.2585 179.1078 946.5663 192.9674 968.697 204.0328 976.6328Z" />
  <path class="Saint John" d="M197.6618 811.7703L141.888 813.4469 75.8312 813.3351 114.9512 737.7778 116.1806 704.3582 143.4528 671.0504 179.1078 680.2156 214.651 697.6519 242.5938 719.8944 216.2158 764.2675 194.5322 791.2044 197.6618 811.7703Z" />
  <path class="Saint Mark" d="M255.0004 680.2156L242.5938 719.8944 214.651 697.6519 179.1078 680.2156 143.4528 671.0504 205.7094 595.046 230.1872 613.6 248.853 640.5369 255.0004 680.2156Z" />
  <path class="Saint Patrick" d="M354.365 685.0218L301.4972 680.2156 255.0004 680.2156 248.853 640.5369 230.1872 613.6 205.7094 595.046 225.8282 570.5681 265.2834 563.4147 308.3153 569.2268 349.1118 595.046 347.8823 600.9699 336.0345 612.2587 351.7943 645.0077 355.2592 672.9505 354.365 685.0218Z" />
</svg>