<?xml version="1.0" encoding="utf-8"?>
<svg xmlns="http://www.w3.org/2000/svg" viewBox="0 0 504 1024" style="stroke-width:0.25px;stroke-linejoin:round;stroke:#444;fill:#ddd" fill-rule="evenodd">
  <path class="Alibori" d="M499.7497 296.3934L438.3873 303.2114 399.3792 311.259 360.2593 314.5003 336.5638 309.5824 327.7339 309.3589 301.6912 312.9355 276.2074 311.0354 267.9363 312.4884 259.6652 312.9355 251.2824 314.9474 243.4584 315.0592 245.2468 313.9415 244.4644 261.5208 244.6879 258.7265 245.3585 256.7146 246.9233 253.9204 250.1647 250.1201 259.777 242.0726 254.5238 236.9311 252.6237 235.5899 252.1766 235.4781 251.5059 235.4781 250.6118 235.031 249.8294 234.5839 248.3763 233.9133 246.4762 233.578 244.9114 233.4662 236.8639 221.9538 205.3444 165.0623 204.562 164.1681 225.9103 142.3727 237.7581 132.6486 246.4762 127.7307 248.7117 125.4953 249.2705 123.9305 249.1587 122.1421 249.2705 119.2361 250.9471 114.5417 257.2063 107.6119 259.4417 103.2528 265.3656 87.2695 265.0303 85.593 263.1301 82.6869 262.9066 80.8986 263.8008 78.7749 265.142 78.4396 266.7068 78.6631 268.1598 78.2161 269.1658 76.9866 270.507 74.5276 271.6248 73.4099 273.1895 73.1864 274.9779 73.857 276.0956 73.6334 276.2074 70.7274 275.8721 68.7155 274.8661 67.9331 273.3013 67.5978 271.513 66.8154 269.8364 65.3624 268.7187 64.0211 267.8245 62.3446 262.3477 46.8084 260.7829 37.6431 260.6712 33.8429 262.0124 30.9369 266.0362 29.1485 268.1598 28.925 271.9601 29.0367 273.9719 28.8132 274.419 28.3661 275.7603 26.5778 276.5427 25.9072 277.7722 26.2425 278.6663 27.1366 279.5605 27.4719 280.4547 25.6836 281.2371 23.6717 282.3548 23.2246 283.8078 23.4482 285.7079 23.4482 286.2668 23.8953 286.4903 24.7894 286.9374 25.5718 288.1669 25.4601 289.0611 24.9012 290.6259 23.4482 291.2965 23.0011 297.1086 21.4363 297.6674 21.5481 299.1205 22.3305 299.9029 22.4422 300.9088 21.9952 302.8089 20.5421 303.9266 20.3186 309.627 21.7716 311.1917 20.9892 313.4272 17.3008 313.986 16.0713 314.2096 14.73 314.7684 13.6123 315.5508 12.6064 317.3392 11.9358 319.0157 13.0535 320.8041 12.6064 322.2571 11.4887 324.8278 8.3591 326.6162 7.1296 328.181 6.7943 331.4223 6.9061 333.0989 6.5707 337.0109 6.459 338.911 4 346.735 10.9298 349.9763 12.7182 351.6529 14.5065 352.8824 16.5184 353.8883 20.3186 355.2296 21.6598 357.0179 22.554 358.918 23.3364 364.2831 23.8953 365.6243 24.3424 366.2949 25.2365 367.8597 28.2543 374.4542 37.9784 402.2853 63.574 402.7323 64.4682 404.9678 66.1448 405.5266 67.0389 405.8619 70.6156 406.6443 74.3041 407.8738 77.3219 411.5623 83.5811 413.9095 86.2636 415.2507 87.6048 417.2626 88.9461 419.498 89.505 421.6217 88.499 423.9689 87.1578 425.869 87.4931 427.5455 88.499 429.4457 89.1696 436.7108 93.6405 442.6347 95.7641 444.423 96.9936 445.7642 98.3349 451.1293 106.0471 452.247 107.053 453.1411 107.6119 453.8118 108.2825 454.4824 109.6238 455.2648 112.1945 455.9354 113.424 456.159 114.877 456.7178 116.2183 458.1708 116.8889 459.6239 119.5714 460.7416 120.4656 457.1649 124.2658 445.9878 143.4904 443.9759 150.9791 442.97 153.5498 439.7286 162.3798 440.0639 166.18 442.4111 170.6508 471.4716 211.8944 475.3836 215.5828 476.7249 215.8064 478.2897 215.5828 478.5132 215.5828 479.7427 215.5828 481.0839 216.9241 479.5191 223.295 479.5191 226.8717 480.078 230.2249 481.3075 233.2427 482.984 236.037 482.984 236.1487 486.3372 250.7908 486.1136 255.7087 482.6487 264.3151 482.4252 267.2211 483.2076 269.233 484.5488 270.5743 486.0019 271.8037 487.2314 273.145 488.0138 274.9333 489.5785 280.2983 491.0316 282.1985 493.1552 282.8691 495.3906 283.2044 497.5143 284.4339 498.9673 287.6752 499.7497 292.4814 499.7497 296.3934Z" />
  <path class="Atakora" d="M204.562 164.1681L205.3444 165.0623 236.8639 221.9538 244.9114 233.4662 246.4762 233.578 248.3763 233.9133 249.8294 234.5839 250.6118 235.031 251.5059 235.4781 252.1766 235.4781 252.6237 235.5899 254.5238 236.9311 259.777 242.0726 250.1647 250.1201 246.9233 253.9204 245.3585 256.7146 244.6879 258.7265 244.4644 261.5208 245.2468 313.9415 243.4584 315.0592 239.9935 316.9593 239.4347 317.5182 238.9876 317.8535 234.852 323.2185 232.9519 326.6834 231.8342 329.3659 231.6107 331.7131 231.6107 334.2838 231.8342 335.0662 231.946 335.5133 232.5048 336.8546 233.5108 338.084 237.6463 341.996 238.6523 343.3373 239.4347 344.5668 241.8936 350.826 242.3407 353.5085 244.6879 360.9971 245.9174 372.7331 245.8056 376.0862 245.4703 378.0981 244.9114 378.7688 243.7937 379.9982 242.5642 381.0042 241.1112 381.8983 234.7403 384.1338 232.0578 384.6926 223.2278 385.0279 221.5513 385.475 220.0982 386.2574 219.2041 386.8163 218.3099 387.5987 217.0804 389.1635 216.5216 390.393 216.298 391.3989 216.298 392.0695 216.9686 395.0873 171.0307 393.6343 164.8833 395.8697 159.1829 399.2229 153.9297 403.582 146.9999 407.0469 138.8406 409.0587 128.6694 407.8293 121.7396 406.2645 113.9156 405.3703 106.9858 405.1468 97.8206 406.9351 95.8087 407.7175 95.8087 406.488 93.685 400.8994 76.584 389.387 53.4474 373.8508 39.5878 364.6856 30.3108 358.4264 14.8864 348.0317 2.5915 339.8724 1.362 337.4134 1.1385 333.6132 3.4857 316.624 5.8329 307.4587 5.9447 300.976 4.6034 286.1105 6.9506 280.6337 15.7805 272.1391 17.9042 269.1212 18.3513 267.4447 18.5748 263.6444 18.9101 261.8561 21.4809 257.0499 21.2573 255.2616 19.9161 251.9085 19.469 250.1201 19.9161 246.8788 24.1634 236.7076 29.0813 239.3901 31.205 239.7254 34.111 239.7254 34.7816 238.8312 35.2287 236.9311 35.1169 235.031 34.111 234.1369 32.8815 233.4662 32.3227 232.0132 32.2109 230.1131 32.3227 228.4365 32.9933 228.1012 34.3345 225.9776 35.2287 223.9657 36.3464 222.5127 37.0171 222.2891 37.7994 222.5127 41.3761 223.0715 42.4938 223.8539 43.2762 224.6363 44.1704 224.9716 44.6175 225.3069 45.5117 226.9835 45.7352 227.3188 46.7411 227.3188 48.5295 226.4246 49.2001 226.2011 54.118 226.76 55.7946 227.3188 56.2417 228.213 57.3594 229.7778 58.5889 230.8955 59.1477 230.2249 59.2595 227.5424 57.4712 225.6422 56.4652 223.8539 56.1299 222.0656 56.1299 220.1655 55.7946 218.2653 55.4593 218.2653 54.0063 217.4829 53.4474 217.2594 53.3356 216.477 53.671 214.3534 53.4474 213.6827 51.9944 213.3474 50.9884 214.2416 50.3178 214.5769 50.2061 212.0062 50.9884 211.6708 56.3535 210.4414 57.2476 209.7707 58.3653 206.7529 59.1477 205.9705 60.8243 205.9705 64.0657 207.5353 65.7422 208.0942 64.9598 205.1881 64.2892 199.5996 61.2714 194.5699 62.0538 192.558 63.7304 190.8814 65.4069 188.3107 66.9717 189.5402 68.2012 191.4403 67.9777 192.3344 69.4307 192.3344 70.2131 191.8873 71.1073 191.4403 72.4485 191.105 75.5781 191.2167 78.1488 191.9991 83.5139 194.5699 85.6375 190.7696 85.8611 189.4284 85.5257 187.8636 83.9609 186.187 83.5139 184.9575 84.408 182.9457 86.1964 183.8398 88.0965 185.9635 89.1024 187.7518 90.2201 186.4106 91.3378 185.9635 92.4556 186.4106 93.5733 187.7518 96.4793 185.4046 96.144 183.281 94.5792 180.9338 93.5733 178.1395 95.0263 175.0099 98.2677 172.8862 101.9561 171.3215 104.5268 169.6449 103.0738 166.0682 103.2974 164.727 104.5268 162.7151 106.6505 161.1503 108.6624 160.4796 110.3389 159.5855 111.3449 157.2383 113.9156 158.6913 117.0452 159.3619 132.3579 160.5914 132.0226 161.7091 131.5755 164.0563 131.3519 165.0623 134.1462 164.9505 137.4993 171.3215 140.7407 170.2037 143.535 168.7507 151.0237 167.0741 154.0415 165.6211 156.6122 164.8387 163.7656 165.2858 166.7834 165.0623 173.1543 162.4915 176.2839 161.9327 179.0782 162.7151 180.643 161.7091 182.6549 162.0444 186.7904 163.9446 193.7202 166.6271 199.4206 167.0741 203.8914 164.9505 204.562 164.1681Z" />
  <path class="Atlantique" d="M264.4714 904.7639L270.06 913.8174 271.6248 920.5237 272.1836 929.9124 272.7425 947.4605 272.966 952.2667 274.0837 967.1322 275.8721 970.3736 276.7662 970.5971 277.7722 970.9325 278.4428 971.2678 280.3429 972.7208 281.1253 980.0977 280.4547 984.1215 277.8839 990.3806 270.1717 991.3866 266.8186 992.2807 263.9125 994.1809 261.9007 996.081 260.4476 1000.1047 251.8413 1000.8871 238.8758 1003.7932 200.0912 1008.264 200.0912 1008.1523 200.203 1006.811 199.6441 1003.905 198.3029 999.6576 195.7321 995.9692 195.285 990.9395 196.0674 987.5864 199.6441 978.3094 200.5383 976.0739 200.9854 974.062 201.2089 970.7089 200.6501 961.5437 200.4265 957.0728 200.6501 955.508 201.2089 954.1668 202.4384 952.1549 203.2208 951.149 204.562 949.8077 204.8974 948.69 205.2327 946.9017 205.0091 943.9956 205.9033 939.7483 208.1387 935.2774 207.9152 932.0361 207.6916 930.0242 207.9152 928.6829 208.474 927.0064 210.8212 922.9826 212.1625 921.4178 212.8331 919.9648 215.4039 913.3703 216.4098 911.4702 217.1922 909.0112 215.7392 904.9875 264.4714 904.7639Z" />
  <path class="Borgou" d="M243.4584 315.0592L251.2824 314.9474 259.6652 312.9355 267.9363 312.4884 276.2074 311.0354 301.6912 312.9355 327.7339 309.3589 336.5638 309.5824 360.2593 314.5003 399.3792 311.259 438.3873 303.2114 499.7497 296.3934 499.8615 301.5349 498.632 305.8939 494.4965 314.165 493.0435 318.5241 492.8199 327.0187 491.814 330.0365 489.355 333.1661 486.7843 333.6132 476.3895 328.1364 473.0364 327.4658 469.795 328.4717 466.6655 331.7131 465.5477 333.2779 465.1007 334.2838 464.9889 337.5252 464.3183 339.4253 460.1827 345.7963 456.9414 353.2849 457.0531 356.3028 459.4003 360.103 470.3539 371.5036 471.8069 373.6273 472.254 376.198 471.8069 379.1041 471.6952 379.9982 470.2421 383.6867 468.2303 385.1397 465.8831 386.2574 463.3123 388.7164 462.3064 391.3989 461.3004 405.4821 459.6239 408.7234 454.3706 414.9826 450.1233 422.8066 447.329 425.4891 437.4932 424.4832 431.234 426.1597 419.6098 430.9659 416.9273 432.866 415.4743 436.2191 415.1389 439.9076 415.6978 443.149 417.7097 448.1787 419.0509 453.2084 417.8215 457.4557 412.5682 460.4735 409.7739 460.2499 406.5326 459.6911 403.9618 460.4735 402.7323 464.609 402.9559 465.615 403.7383 467.7386 403.6265 468.6328 393.6789 481.5982 392.5612 482.716 389.8787 483.4983 388.7609 484.3925 385.6314 489.534 384.9607 494.0048 386.0784 498.5875 388.0903 503.8407 388.6492 506.5232 388.6492 517.1415 387.6432 520.6064 384.2901 526.9773 378.9251 543.8548 376.4661 548.9963 372.4424 551.6788 361.377 554.5848 359.4769 554.5848 357.9121 553.8024 356.3473 552.7965 354.559 551.9023 352.7706 551.6788 347.8527 551.9023 346.0644 552.2376 344.3878 553.3553 342.9348 554.8084 341.37 555.9261 339.2463 556.2614 326.7279 555.2554 327.2868 559.5028 326.9515 569.8975 326.0573 574.4801 325.4985 575.486 323.7101 578.1685 323.263 578.5039 323.5983 579.8451 324.269 580.2922 325.0514 580.5157 325.6102 581.6334 325.6102 584.2042 323.5983 588.8986 322.9277 591.3575 323.1513 592.8106 324.0454 595.3813 323.8219 596.8343 322.9277 597.6167 320.2452 598.958 319.2393 600.1875 319.2393 601.864 319.2393 602.0876 233.6226 601.1934 234.9638 595.3813 234.0696 594.3754 233.6226 594.1518 232.6166 593.7047 216.4098 589.1221 213.1684 587.5573 211.6036 586.6631 210.3741 585.5454 209.2564 584.316 208.2505 583.0865 207.6916 581.857 207.1328 580.5157 206.4622 577.1626 206.2386 574.4801 206.5739 566.4326 206.9092 564.5325 207.6916 558.9439 208.6976 554.9201 210.0388 551.567 210.2624 550.6728 210.3741 549.5551 210.1506 548.4374 209.3682 547.0961 208.9211 546.5373 208.3623 546.0902 203.5561 543.8548 202.3266 542.9606 201.5442 542.29 200.5383 541.1723 199.6441 539.9428 198.7499 538.4898 198.4146 537.7074 197.744 534.1307 197.2969 528.9892 197.4087 519.6004 198.1911 514.0119 200.5383 506.9703 201.9913 505.8526 203.2208 505.0702 204.0032 504.8466 206.6857 504.3996 210.4859 504.176 216.5216 504.2878 217.4157 504.0642 218.3099 503.8407 218.9805 503.3936 219.6512 502.9465 220.5453 502.0524 221.216 501.1582 221.8866 498.9228 228.2575 456.785 228.2575 454.4378 226.8045 451.5318 224.122 449.0728 220.7689 445.6079 218.6452 442.143 218.3099 441.3606 215.1803 432.3072 214.9568 430.1835 215.0685 427.2774 216.5216 418.6711 217.751 413.9767 217.751 410.7353 216.298 402.6878 217.751 400.2288 217.8628 400.1171 218.0864 399.8935 218.1981 399.2229 218.4217 398.4405 216.9686 395.0873 216.298 392.0695 216.298 391.3989 216.5216 390.393 217.0804 389.1635 218.3099 387.5987 219.2041 386.8163 220.0982 386.2574 221.5513 385.475 223.2278 385.0279 232.0578 384.6926 234.7403 384.1338 241.1112 381.8983 242.5642 381.0042 243.7937 379.9982 244.9114 378.7688 245.4703 378.0981 245.8056 376.0862 245.9174 372.7331 244.6879 360.9971 242.3407 353.5085 241.8936 350.826 239.4347 344.5668 238.6523 343.3373 237.6463 341.996 233.5108 338.084 232.5048 336.8546 231.946 335.5133 231.8342 335.0662 231.6107 334.2838 231.6107 331.7131 231.8342 329.3659 232.9519 326.6834 234.852 323.2185 238.9876 317.8535 239.4347 317.5182 239.9935 316.9593 243.4584 315.0592Z" />
  <path class="Collines" d="M233.6226 601.1934L319.2393 602.0876 322.3689 641.9899 322.816 646.796 321.4747 652.3846 320.2452 654.2847 317.0039 657.9732 316.1097 659.985 316.1097 661.4381 316.5568 664.4559 316.5568 666.0207 315.2155 672.727 315.1037 675.8565 315.6626 679.7685 316.8921 683.457 320.1334 690.275 321.1394 693.7399 321.1394 697.3166 319.7981 700.3344 318.1216 703.0169 316.8921 705.8112 316.445 708.829 316.1097 718.5531 314.0978 728.9479 313.4272 739.2308 312.8683 740.6838 311.1917 743.8134 310.8564 745.0429 310.9682 745.8253 311.08 746.4959 312.3095 748.5078 314.2096 753.2022 318.0098 757.4495 319.4628 759.9085 319.9099 762.2557 318.3451 784.2746 285.0373 784.051 282.8019 784.1628 280.3429 790.9809 280.0076 795.5635 281.1253 799.8108 280.79 801.5991 278.4428 802.3815 276.7662 803.4992 271.7365 810.6526 269.8364 814.2293 270.1717 818.1413 271.4012 822.2768 242.3407 808.8642 230.8283 805.2876 221.4395 804.3934 212.9449 804.6169 205.2327 803.3875 199.0853 799.1402 193.0496 793.7751 184.2197 790.0867 176.9546 788.5219 144.2056 790.422 140.9642 790.0867 140.9642 787.2924 140.8525 754.8788 140.7407 728.9479 141.1878 702.9052 141.4113 684.1276 139.7348 670.0444 138.8406 668.5914 137.9464 668.2561 137.4993 667.5855 138.2817 663.5617 138.2817 660.7674 138.5053 659.3144 143.8703 650.4845 144.4292 647.5784 143.7585 646.0136 139.623 640.6486 138.7288 638.8603 138.5053 636.9602 138.5053 632.0422 141.4113 632.2658 150.1295 632.4893 153.1473 632.2658 154.0415 632.2658 155.8298 632.154 169.913 628.3538 172.5955 627.9067 174.4956 627.6832 175.5015 628.0185 177.2899 628.6891 178.6311 629.5833 179.8606 630.5892 184.2197 635.2836 184.8903 635.8425 185.6727 636.1778 186.4551 636.6249 187.4611 636.8484 188.467 636.9602 193.3849 636.9602 194.2791 637.0719 195.0615 637.4073 195.7321 637.8543 196.4028 638.4132 198.7499 641.5428 199.9794 642.6605 201.3207 643.5547 202.8855 644.4488 207.6916 645.7901 208.3623 646.2372 210.2624 647.802 211.0448 648.1373 211.8272 648.2491 215.8509 648.2491 217.751 648.5844 222.2219 650.2609 223.2278 650.4845 224.2338 650.4845 228.034 650.3727 230.8283 649.5903 232.7284 648.6961 234.0696 647.802 236.4168 646.0136 237.6463 644.0018 236.7521 643.1076 235.6344 639.1956 237.7581 625.1124 235.0756 610.4704 233.9579 608.235 232.3931 606.2231 233.6226 601.1934Z" />
  <path class="Donga" d="M216.9686 395.0873L218.4217 398.4405 218.1981 399.2229 218.0864 399.8935 217.8628 400.1171 217.751 400.2288 216.298 402.6878 217.751 410.7353 217.751 413.9767 216.5216 418.6711 215.0685 427.2774 214.9568 430.1835 215.1803 432.3072 218.3099 441.3606 218.6452 442.143 220.7689 445.6079 224.122 449.0728 226.8045 451.5318 228.2575 454.4378 228.2575 456.785 221.8866 498.9228 221.216 501.1582 220.5453 502.0524 219.6512 502.9465 218.9805 503.3936 218.3099 503.8407 217.4157 504.0642 216.5216 504.2878 210.4859 504.176 206.6857 504.3996 204.0032 504.8466 203.2208 505.0702 201.9913 505.8526 200.5383 506.9703 198.1911 514.0119 197.4087 519.6004 197.2969 528.9892 197.744 534.1307 198.4146 537.7074 198.7499 538.4898 199.6441 539.9428 200.5383 541.1723 201.5442 542.29 202.3266 542.9606 203.5561 543.8548 208.3623 546.0902 208.9211 546.5373 209.3682 547.0961 210.1506 548.4374 210.3741 549.5551 210.2624 550.6728 210.0388 551.567 208.6976 554.9201 207.6916 558.9439 206.9092 564.5325 206.5739 566.4326 206.2386 574.4801 206.4622 577.1626 207.1328 580.5157 207.6916 581.857 208.2505 583.0865 209.2564 584.316 210.3741 585.5454 211.6036 586.6631 213.1684 587.5573 216.4098 589.1221 232.6166 593.7047 233.6226 594.1518 234.0696 594.3754 234.9638 595.3813 233.6226 601.1934 232.3931 606.2231 233.9579 608.235 235.0756 610.4704 237.7581 625.1124 235.6344 639.1956 236.7521 643.1076 237.6463 644.0018 236.4168 646.0136 234.0696 647.802 232.7284 648.6961 230.8283 649.5903 228.034 650.3727 224.2338 650.4845 223.2278 650.4845 222.2219 650.2609 217.751 648.5844 215.8509 648.2491 211.8272 648.2491 211.0448 648.1373 210.2624 647.802 208.3623 646.2372 207.6916 645.7901 202.8855 644.4488 201.3207 643.5547 199.9794 642.6605 198.7499 641.5428 196.4028 638.4132 195.7321 637.8543 195.0615 637.4073 194.2791 637.0719 193.3849 636.9602 188.467 636.9602 187.4611 636.8484 186.4551 636.6249 185.6727 636.1778 184.8903 635.8425 184.2197 635.2836 179.8606 630.5892 178.6311 629.5833 177.2899 628.6891 175.5015 628.0185 174.4956 627.6832 172.5955 627.9067 169.913 628.3538 155.8298 632.154 154.0415 632.2658 153.1473 632.2658 150.1295 632.4893 141.4113 632.2658 138.5053 632.0422 138.17 610.0233 137.9464 594.8224 137.7229 576.9391 137.4993 556.4849 136.6052 552.0141 135.3757 547.9903 132.0226 542.1782 121.9631 531.56 108.9977 517.9239 108.1035 516.5826 105.0857 511.8882 102.7385 505.2937 101.6208 488.6398 99.7207 483.9454 97.0382 485.3985 94.5792 482.9395 93.0144 478.9157 92.4556 475.5626 93.1262 473.4389 96.0322 468.9681 97.0382 466.8444 97.1499 465.1679 97.1499 461.9265 97.4853 460.2499 97.8206 458.2381 96.4793 450.5259 96.2558 437.7839 96.0322 419.7888 95.8087 407.7175 97.8206 406.9351 106.9858 405.1468 113.9156 405.3703 121.7396 406.2645 128.6694 407.8293 138.8406 409.0587 146.9999 407.0469 153.9297 403.582 159.1829 399.2229 164.8833 395.8697 171.0307 393.6343 216.9686 395.0873Z" />
  <path class="Kouffo" d="M141.076 804.1699L146.3293 805.2876 149.7942 809.4231 151.0237 811.435 159.5183 829.6537 160.4124 833.7892 160.9713 835.0187 161.8655 836.4717 162.2008 837.4777 162.4243 840.6073 163.0949 841.9485 164.4362 843.5133 166.8952 845.4134 173.1543 853.4609 173.9367 855.2493 174.4956 856.2552 176.6193 857.5965 179.0782 861.9556 181.2019 869.556 182.7667 876.7094 184.7785 880.0625 185.8963 880.9567 186.7904 881.292 189.3612 883.3039 192.7143 888.5571 195.3968 892.2455 197.9675 893.5868 200.203 896.9399 200.9854 899.846 201.3207 900.5166 202.2149 901.4108 207.6916 905.5463 209.1447 906.1052 210.1506 906.2169 211.9389 905.5463 214.6215 903.9815 215.7392 904.9875 217.1922 909.0112 216.4098 911.4702 215.4039 913.3703 212.8331 919.9648 212.1625 921.4178 210.8212 922.9826 208.474 927.0064 207.9152 928.6829 207.6916 930.0242 207.9152 932.0361 208.1387 935.2774 205.9033 939.7483 196.0674 934.7186 191.0377 933.3773 185.6727 933.1538 176.8428 935.0539 166.5598 938.8541 151.359 942.4308 147.7823 942.319 145.0998 941.9837 136.2699 937.7364 135.5992 937.4011 136.8287 935.7245 137.4993 933.1538 136.4934 929.2418 135.2639 925.8887 134.5933 923.0944 134.4815 920.3001 135.711 913.4821 135.3757 911.2466 133.9227 909.4583 131.4637 907.67 131.2402 907.4464 129.4518 904.7639 126.3222 893.1397 138.5053 893.2515 141.4113 892.3573 141.2996 868.3265 141.1878 844.631 141.1878 820.2649 141.076 804.1699Z" />
  <path class="Littoral" d="M277.8839 990.3806L277.3251 993.7338 278.5546 994.8515 279.337 994.9633 280.1194 995.4103 280.5664 998.2046 260.4476 1000.1047 261.9007 996.081 263.9125 994.1809 266.8186 992.2807 270.1717 991.3866 277.8839 990.3806Z" />
  <path class="Mono" d="M135.5992 937.4011L136.2699 937.7364 145.0998 941.9837 147.7823 942.319 151.359 942.4308 166.5598 938.8541 176.8428 935.0539 185.6727 933.1538 191.0377 933.3773 196.0674 934.7186 205.9033 939.7483 205.0091 943.9956 205.2327 946.9017 204.8974 948.69 204.562 949.8077 203.2208 951.149 202.4384 952.1549 201.2089 954.1668 200.6501 955.508 200.4265 957.0728 200.6501 961.5437 201.2089 970.7089 200.9854 974.062 200.5383 976.0739 199.6441 978.3094 196.0674 987.5864 195.285 990.9395 195.7321 995.9692 198.3029 999.6576 199.6441 1003.905 200.203 1006.811 200.0912 1008.1523 200.0912 1008.264 183.4373 1010.1641 140.5172 1020 139.2877 1016.6469 142.6408 1014.8585 163.4303 1009.9406 166.8952 1009.7171 163.7656 997.7575 160.636 985.4627 156.5004 978.7564 155.0474 977.7505 151.5825 975.9622 150.5766 975.068 150.1295 973.615 150.5766 970.1501 150.353 968.4735 149.3471 967.1322 146.6646 964.8968 146.2175 963.7791 145.9939 961.879 144.8762 961.4319 143.3114 961.6554 141.7466 961.4319 140.5172 960.6495 139.0641 959.6436 137.8347 958.3023 136.8287 956.9611 136.3816 955.2845 136.4934 953.8315 136.7169 952.3784 136.7169 951.149 134.9286 947.9076 132.805 946.231 131.799 944.3309 133.1403 940.6425 135.5992 937.4011Z" />
  <path class="Ouémé" d="M318.5686 972.7208L318.0098 974.2856 317.4509 977.6387 316.2215 984.9039 316.1097 994.8515 280.5664 998.2046 280.1194 995.4103 279.337 994.9633 278.5546 994.8515 277.3251 993.7338 277.8839 990.3806 280.4547 984.1215 281.1253 980.0977 280.3429 972.7208 278.4428 971.2678 277.7722 970.9325 276.7662 970.5971 275.8721 970.3736 274.0837 967.1322 272.966 952.2667 272.7425 947.4605 272.1836 929.9124 271.6248 920.5237 270.06 913.8174 264.4714 904.7639 264.8067 901.5226 266.4833 898.2812 269.1658 894.7045 271.7365 893.3633 276.3191 892.9162 286.3785 892.9162 286.0432 901.299 287.608 909.5701 295.432 928.3476 298.7851 947.4605 301.9147 952.602 309.7387 959.3083 312.1977 961.9908 318.5686 972.609 318.5686 972.7208Z" />
  <path class="Plateau" d="M318.3451 784.2746L318.0098 789.6396 318.904 796.0106 322.1453 802.0462 326.9515 807.8583 330.5282 813.7822 330.0811 820.6002 329.634 822.0532 329.5222 823.0592 329.0751 823.3945 325.4985 822.6121 323.8219 822.6121 322.5924 823.3945 322.1453 825.1828 325.6102 865.3087 325.3867 867.6559 324.9396 869.1089 323.5983 870.7855 322.1453 873.9151 321.3629 875.0328 321.2512 876.1505 321.81 878.2741 323.263 880.0625 327.5103 883.5274 328.4045 885.0922 327.8457 886.8805 326.1691 887.7747 324.0454 888.3336 322.1453 889.2277 318.0098 895.1516 318.5686 901.0755 320.6923 907.3347 321.4747 914.1527 319.7981 920.9707 319.351 924.5474 320.1334 927.677 321.3629 929.3536 322.816 930.3595 324.4925 930.9184 326.5044 931.0301 327.3986 931.8125 327.7339 933.4891 328.2927 940.9778 327.3986 942.8779 325.3867 944.1074 322.4806 946.7899 320.5805 950.2548 320.4688 953.6079 321.9218 960.5377 321.5865 963.8909 318.5686 972.7208 318.5686 972.609 312.1977 961.9908 309.7387 959.3083 301.9147 952.602 298.7851 947.4605 295.432 928.3476 287.608 909.5701 286.0432 901.299 286.3785 892.9162 289.5081 893.1397 290.6259 893.1397 291.6318 893.0279 292.3024 892.5809 292.6377 892.1338 292.8613 891.9102 292.8613 891.7985 292.0789 884.5333 288.5022 866.3146 288.7257 863.6321 288.614 862.738 287.7198 861.6202 280.0076 856.367 277.5486 851.002 274.9779 841.2779 274.5308 839.3778 274.419 836.807 273.7484 835.2422 272.8542 834.0128 272.2954 832.5597 272.2954 825.2946 271.4012 822.2768 270.1717 818.1413 269.8364 814.2293 271.7365 810.6526 276.7662 803.4992 278.4428 802.3815 280.79 801.5991 281.1253 799.8108 280.0076 795.5635 280.3429 790.9809 282.8019 784.1628 285.0373 784.051 318.3451 784.2746Z" />
  <path class="Zou" d="M271.4012 822.2768L272.2954 825.2946 272.2954 832.5597 272.8542 834.0128 273.7484 835.2422 274.419 836.807 274.5308 839.3778 274.9779 841.2779 277.5486 851.002 280.0076 856.367 287.7198 861.6202 288.614 862.738 288.7257 863.6321 288.5022 866.3146 292.0789 884.5333 292.8613 891.7985 292.8613 891.9102 292.6377 892.1338 292.3024 892.5809 291.6318 893.0279 290.6259 893.1397 289.5081 893.1397 286.3785 892.9162 276.3191 892.9162 271.7365 893.3633 269.1658 894.7045 266.4833 898.2812 264.8067 901.5226 264.4714 904.7639 215.7392 904.9875 214.6215 903.9815 211.9389 905.5463 210.1506 906.2169 209.1447 906.1052 207.6916 905.5463 202.2149 901.4108 201.3207 900.5166 200.9854 899.846 200.203 896.9399 197.9675 893.5868 195.3968 892.2455 192.7143 888.5571 189.3612 883.3039 186.7904 881.292 185.8963 880.9567 184.7785 880.0625 182.7667 876.7094 181.2019 869.556 179.0782 861.9556 176.6193 857.5965 174.4956 856.2552 173.9367 855.2493 173.1543 853.4609 166.8952 845.4134 164.4362 843.5133 163.0949 841.9485 162.4243 840.6073 162.2008 837.4777 161.8655 836.4717 160.9713 835.0187 160.4124 833.7892 159.5183 829.6537 151.0237 811.435 149.7942 809.4231 146.3293 805.2876 141.076 804.1699 140.9642 790.0867 144.2056 790.422 176.9546 788.5219 184.2197 790.0867 193.0496 793.7751 199.0853 799.1402 205.2327 803.3875 212.9449 804.6169 221.4395 804.3934 230.8283 805.2876 242.3407 808.8642 271.4012 822.2768Z" />
</svg>