<?xml version="1.0" encoding="utf-8"?>
<svg xmlns="http://www.w3.org/2000/svg" viewBox="0 0 1021 670" style="stroke-width:0.25px;stroke-linejoin:round;stroke:#444;fill:#ddd" fill-rule="evenodd">
  <path class="Blagoevgrad" d="M82.2576 498.4653L84.2695 495.7828 87.0638 492.8768 90.5287 493.4356 91.7582 489.0766 96.5644 481.3644 100.5881 481.029 103.3824 485.1646 108.0768 484.8293 112.8829 486.6176 117.1303 489.5237 122.2717 488.9648 127.1897 487.5118 131.7723 484.2704 139.8198 480.0231 143.3965 480.0231 146.5261 480.3584 149.5439 479.7996 170.1098 486.5058 179.3868 484.8293 187.4343 478.4583 196.1525 481.6997 201.6293 475.1052 204.7589 467.0576 210.7945 466.2752 215.1536 464.5987 220.6304 463.5927 223.8717 465.0458 226.7778 463.5927 228.5661 461.1338 231.1369 461.2455 232.7017 465.4928 235.943 468.0636 238.7373 471.0814 239.7432 475.5523 239.2961 479.1289 237.2843 481.5879 237.396 486.3941 240.5256 490.1943 235.8312 495.5593 231.8075 505.2834 231.9193 509.6425 231.1369 513.2191 233.037 517.1311 235.4959 520.596 236.5019 530.4319 240.7492 538.5912 244.6612 541.1619 248.2378 544.7386 251.1439 545.4092 254.2735 544.5151 256.2854 547.0858 257.9619 550.5507 276.4042 563.1809 278.4161 566.9811 281.4339 568.4341 283.7811 569.6636 285.2341 572.3461 289.5932 575.3639 286.4636 579.2759 282.3281 582.0702 301.6645 598.5006 301.7762 598.6123 301.5527 598.7241 299.0937 600.8477 298.4231 602.189 297.7525 605.6539 297.3054 606.4363 296.0759 606.3245 295.4053 605.4304 294.6229 604.0891 293.3934 603.0832 288.5872 601.7419 282.1045 601.0713 277.2983 603.3067 277.7454 610.3483 278.1925 615.1545 278.0807 616.9428 277.0748 618.6194 275.2865 619.5135 273.3864 619.0664 269.8097 616.7193 269.1391 618.284 268.3567 618.7311 267.4625 618.9547 266.5683 619.6253 263.8858 622.3078 261.5386 622.4196 253.8264 616.831 252.5969 616.6075 248.1261 620.743 245.5553 621.9725 242.2022 622.8667 238.7373 623.3138 235.8312 623.0902 233.484 624.3197 229.7956 630.4671 227.1131 631.1377 221.8598 629.9083 216.3831 629.9083 213.2535 631.1377 209.2297 635.2733 208.7826 635.4968 206.7707 636.8381 201.2939 636.6145 190.5639 631.026 174.5806 630.5789 171.451 631.5848 166.5331 635.2733 163.6271 636.8381 160.2739 637.1734 158.4856 635.6086 157.0326 633.1496 154.0147 631.026 151.1087 631.1377 147.3085 632.8143 143.7318 635.1615 141.3846 637.3969 140.8257 639.0735 140.4904 642.9855 139.708 645.1091 138.255 646.5622 136.4667 647.5681 132.7782 648.6858 125.9602 649.4682 93.7701 644.4385 97.6821 641.4207 98.2409 637.3969 97.4585 632.9261 97.1232 628.2317 97.6821 626.8904 99.4704 624.5432 99.9175 623.5373 99.6939 622.3078 98.7998 620.0724 98.5762 619.0664 98.1292 603.8656 98.0174 600.5124 98.7998 596.9358 98.9116 595.7063 98.5762 594.2532 97.0114 591.7943 96.5644 590.5648 96.229 587.6587 96.4526 584.5292 96.8997 581.5113 97.6821 579.0524 98.4645 578.27 101.0352 577.5993 101.9294 577.0405 102.4882 575.9228 103.4942 572.7932 104.9472 570.446 107.0708 566.9811 108.8592 561.9514 108.7474 556.8099 105.8414 552.2273 104.1648 551.4449 100.2528 551.2213 98.4645 550.4389 97.4585 548.7624 93.9936 540.6031 92.3171 533.1144 91.3111 530.5437 90.5287 529.6495 88.6286 528.6436 88.1815 528.0847 87.958 527.8612 87.5109 526.2964 87.6227 523.055 87.2873 521.4902 85.6108 516.5723 84.3813 511.5426 84.046 506.2893 83.7107 503.9421 82.4812 501.5949 82.3694 501.4832 82.2576 498.5771 82.2576 498.4653Z" />
  <path class="Burgas" d="M764.5089 482.035L764.5089 481.9232 764.3971 479.6878 765.6266 471.6403 762.2735 465.7164 759.9263 459.7925 761.4911 453.4216 763.1677 448.8389 762.6088 445.1505 762.6088 440.009 764.8442 436.2088 770.2092 433.0792 771.2152 426.2612 768.0856 420.1138 763.2794 416.9842 758.138 416.9842 753.4436 415.3076 751.6552 411.5074 750.314 407.5954 735.5602 396.7536 735.4484 392.2827 731.9835 390.2708 725.6125 382.3351 724.2713 380.2114 723.936 377.4172 722.7065 374.5111 720.5828 372.611 718.6827 367.0224 717.3415 360.875 711.1941 348.692 701.6935 347.2389 696.2167 350.0332 690.6282 351.7098 686.7162 349.6979 682.8042 347.1272 677.6627 345.4506 675.3155 339.6385 679.451 335.9501 684.4807 334.0499 688.281 330.6968 687.3868 325.22 688.0574 321.0845 690.5164 317.8431 688.6163 312.1428 686.2691 306.2189 687.8339 301.1892 687.275 296.8301 699.1228 293.8123 700.7993 297.1655 700.6876 302.0834 706.2761 304.5424 712.6471 303.3129 718.1239 300.1833 721.5888 293.477 724.3831 291.6887 727.6244 291.9122 736.7897 291.1298 741.9311 294.5947 747.2961 293.477 753.6671 293.1417 760.5969 295.7124 768.4209 293.5888 776.0213 290.2356 785.4101 288.112 795.1342 282.5234 802.9582 285.0942 809.3292 291.3534 814.3589 299.5127 817.8238 300.7421 821.624 301.1892 829.1127 305.6601 837.1602 307.4484 851.3551 303.8717 857.5025 299.9597 861.8616 301.4128 865.9971 303.8717 869.9091 307.5602 873.374 312.031 877.6213 315.1606 882.204 317.5078 886.8983 319.2961 891.7045 318.2902 895.1694 315.1606 899.0814 313.5958 900.1991 313.484 900.1991 317.1725 901.4286 321.9787 902.3228 327.7908 902.3228 338.2972 901.9875 342.4328 901.5404 343.9976 893.2693 344.4447 884.5512 342.9916 877.3978 342.7681 875.6095 343.1034 874.4917 344.4447 873.4858 347.5743 872.927 349.9215 873.1505 351.9333 874.2682 353.6099 876.7272 354.9512 872.4799 355.7336 865.3265 358.7514 861.7498 359.422 858.732 361.9927 859.0673 367.8048 860.8557 373.9523 862.3087 377.6407 859.6262 376.4112 844.5371 375.9641 839.7309 378.7584 837.6073 383.341 836.4895 388.7061 834.7012 394.1828 831.7952 392.7298 830.2304 394.8535 830.3421 398.0948 832.354 400.2185 831.6834 401.7833 831.5716 402.901 832.354 406.2541 832.8011 404.5776 833.0246 404.2422 832.9129 404.2422 832.354 403.3481 833.4717 398.8772 838.5014 404.2422 840.178 404.6893 842.1899 402.901 843.5311 400.3303 845.0959 399.2125 848.002 401.895 849.455 399.5479 850.7963 399.8832 852.1375 401.1127 853.367 401.895 855.7142 401.2244 857.279 400.1067 858.8438 399.5479 861.191 400.2185 861.0792 401.3362 860.8557 401.5597 860.6321 401.448 860.0733 401.895 860.9674 405.6953 862.644 408.3778 865.103 408.9366 869.015 406.2541 869.3503 408.266 870.2444 409.3837 871.5857 409.6073 873.4858 409.2719 873.4858 410.8367 872.4799 411.1721 870.0209 412.4015 871.2504 414.5252 871.921 415.084 873.4858 415.4194 871.921 417.543 871.6975 420.5608 872.7034 423.5787 874.6035 425.9259 876.9507 426.9318 878.8508 426.5965 880.8627 426.0376 883.4334 425.9259 883.4334 427.2671 882.4275 428.4966 882.4275 429.6143 883.2099 430.8438 884.6629 431.9615 880.5274 435.4264 878.6273 439.4502 879.4097 443.4739 883.4334 446.8271 882.651 447.3859 882.651 447.6095 882.3157 448.5036 888.1278 452.3039 889.022 453.7569 889.8044 455.3217 891.7045 457.4453 893.8282 459.3454 895.7283 460.4631 895.393 461.2455 894.9459 462.9221 894.6106 463.5927 899.4167 466.387 900.6462 467.84 903.4405 473.8757 912.1586 479.4642 913.2763 481.5879 914.6176 483.5998 916.853 484.3822 916.1824 486.7294 916.9648 488.853 918.5296 490.5296 920.2062 491.8708 920.3179 492.8768 920.0944 493.2121 919.6473 493.2121 919.0884 493.4356 920.9886 495.4475 922.1063 498.2418 922.3298 501.2596 921.3239 503.9421 921.771 506.0658 915.9589 504.8363 913.4999 504.0539 905.5641 504.9481 903.3287 504.2774 899.0814 502.1538 895.0576 501.1479 893.6046 501.0361 890.475 501.5949 889.8044 501.2596 889.1338 501.1479 888.5749 501.2596 887.9043 501.5949 887.3454 503.7186 887.3454 506.7364 887.0101 508.8601 889.5809 510.4249 889.1338 511.7661 887.0101 512.5485 884.8865 512.6603 882.7628 511.8779 874.2682 507.1835 868.2326 506.96 855.6024 510.3131 855.2671 512.4367 854.7083 513.5545 853.8141 513.5545 852.5846 512.5485 851.2433 514.3369 849.5668 515.4546 846.1019 516.684 846.3254 517.1311 846.7725 517.4664 847.3314 517.8018 847.7784 518.1371 847.2196 518.5842 846.2136 519.143 845.8783 519.5901 848.1138 520.596 845.4312 521.7138 843.3076 520.149 839.3956 514.6722 836.9366 512.5485 825.0889 505.8422 821.1769 502.4891 817.6002 498.2418 810.6704 487.5118 806.3113 483.1527 801.0581 480.0231 795.3578 478.6818 791.8928 479.2407 789.7692 480.8055 786.1925 485.7234 785.7454 486.6176 785.6337 487.4 784.963 487.6235 781.051 486.6176 777.3626 486.3941 775.5743 486.6176 773.0035 484.6057 770.321 482.9292 767.3032 482.035 764.5089 482.035Z" />
  <path class="Dobrich" d="M789.2103 130.6264L792.3399 131.297 795.246 130.1793 791.334 124.0319 791.6693 113.9725 799.6051 106.8191 801.6169 102.3483 804.8583 100.56 812.2352 106.7074 819.3886 106.4838 817.3767 95.5303 821.5122 92.1771 826.5419 91.1712 834.813 94.189 841.4075 89.3828 840.9604 82.453 842.8605 75.635 846.996 74.5173 850.5727 77.7586 855.3789 76.8645 855.826 72.5054 854.9318 69.9347 857.8378 69.8229 860.8557 66.358 860.0733 61.44 863.0911 58.7575 867.4502 58.9811 867.5619 58.9811 873.9329 67.5875 884.5512 65.0167 895.7283 58.6458 904.7817 57.5281 904.7817 57.6398 908.6937 64.1226 915.9589 90.0535 921.4356 94.4125 954.967 109.7252 989.6161 115.6491 1012.9762 114.3078 1012.6409 117.4374 1012.0821 144.7096 1012.5292 147.5039 1014.2057 151.4158 1015.7705 154.2101 1016.8882 156.6691 1017 159.9105 1015.547 165.6108 1012.9762 172.7641 1010.0702 178.7998 1007.6112 181.2587 1005.9347 182.1529 998.446 189.418 996.8812 191.5417 995.987 194.336 995.8752 198.248 993.6398 195.1184 986.3747 191.0946 984.8099 189.7534 983.0216 187.6297 978.886 185.9531 971.2856 184.5001 967.5971 185.1707 961.5615 188.4121 958.5437 189.0827 947.9254 188.6356 944.5723 189.0827 938.3131 192.6594 933.954 198.8068 933.1716 200.8187 932.7245 200.5952 927.0242 201.2658 921.2121 201.2658 917.9707 196.9067 913.4999 192.4359 908.3584 192.1006 903.5523 194.336 900.8697 197.3538 897.6284 198.5833 888.0161 193.5536 879.9685 183.7177 876.9507 178.1292 872.8152 174.4407 866.7795 173.2112 860.2968 167.1756 854.7083 159.0163 852.2493 160.0222 850.5727 164.2695 847.4431 165.8343 844.09 166.2814 842.8605 167.6227 841.0722 168.6286 837.0484 166.6167 836.0425 161.2517 831.1245 154.4337 824.7536 152.5336 823.077 146.3861 819.2768 143.9272 812.7941 145.1567 806.4231 147.1685 801.6169 144.9331 798.2638 138.1151 789.2103 130.6264Z" />
  <path class="Gabrovo" d="M443.7256 239.6033L444.7316 243.9624 448.3083 246.5331 451.1025 252.2334 455.3498 255.5866 477.3688 255.9219 479.6042 260.6163 481.8396 266.5402 486.0869 268.552 496.5934 269.7815 507.8823 269.3344 512.912 270.8992 522.8596 272.5758 525.5421 281.1822 521.8537 293.3652 528.7835 300.4068 532.0249 301.301 533.925 304.6541 533.8132 310.4662 532.4719 315.6077 529.007 322.5375 532.6955 331.591 533.8132 335.6147 531.466 337.9619 528.2246 335.2794 525.4304 331.4792 522.8596 330.2497 518.9476 334.6088 515.9298 333.3793 513.4708 334.9441 510.5648 336.2854 507.8823 335.3912 505.088 334.9441 501.176 337.9619 495.9228 338.409 487.5399 334.7206 478.71 332.9322 472.1155 336.8442 469.433 334.0499 467.0858 330.2497 458.9265 330.6968 450.6554 334.7206 442.1608 336.3971 433.8898 335.6147 433.778 333.3793 432.4367 322.5375 428.413 312.4781 421.9303 307.8955 414.8887 304.5424 413.3239 302.0834 412.4297 299.2891 412.9886 295.936 412.2062 292.6946 410.5296 282.8587 419.0242 272.464 417.6829 265.1989 419.6948 256.1454 425.7305 251.6746 426.96 243.2917 429.6425 236.3619 437.2429 237.4796 443.7256 239.6033Z" />
  <path class="Grad Sofiya" d="M152.4499 383.341L149.5439 379.8761 139.9316 372.4992 134.7901 370.4873 134.1195 362.7751 133.0018 358.6396 131.2134 354.9512 127.8603 353.1628 125.066 350.9274 121.2658 347.0154 116.9067 344.1094 122.0482 337.7384 128.7545 337.0678 132.2194 339.415 136.0196 339.9738 138.9256 338.409 141.3846 335.3912 141.7199 331.0321 139.708 327.0084 147.7556 320.4139 147.8673 310.3545 151.6675 302.5305 154.3501 303.5364 156.3619 305.9954 164.4095 311.4722 172.3452 313.5958 180.3927 310.1309 187.8814 308.5661 194.2524 314.3782 200.288 314.7135 206.1001 310.6898 204.0882 316.5019 200.7351 322.7611 191.9052 342.0975 188.8873 355.6218 191.3463 360.4279 198.2761 377.1936 206.7707 392.2827 211.9122 397.2007 213.5888 404.5776 209.4532 408.7131 204.8706 406.7012 198.0526 407.9307 193.6935 404.9129 195.4818 397.6477 192.2405 391.6121 191.2345 387.8119 191.1228 385.1294 184.5283 383.7881 181.3987 390.1591 177.4867 396.4183 171.6746 395.077 165.7507 390.4944 152.4499 383.341Z" />
  <path class="Haskovo" d="M617.5298 490.0825L631.5012 497.1241 646.3668 499.136 651.2847 502.8244 652.5142 509.6425 653.8554 513.1074 656.3144 509.1954 659.7793 504.501 665.3679 505.7305 669.2799 511.2073 669.0563 519.4783 672.2977 523.2785 676.4332 525.9611 680.5688 527.9729 684.0337 525.9611 684.1454 525.9611 684.0337 527.5259 683.2513 531.4378 681.91 535.4616 679.7864 538.4794 672.0741 540.8266 655.3085 540.156 648.6022 545.9681 646.3668 551.2213 645.6961 556.0275 646.8139 560.3866 648.4904 562.622 642.2312 563.2926 638.8781 562.2867 636.7545 560.4983 632.3954 555.5804 631.0541 554.6862 628.7069 554.5745 625.242 557.9276 616.3003 558.2629 611.9413 559.4924 607.5822 562.9573 606.3527 563.5162 605.235 563.6279 604.229 563.9633 603.1113 565.1927 602.2172 567.8752 602.1054 571.0048 602.5525 574.1344 603.3349 576.5934 604.0055 577.7111 603.8937 577.7111 602.8878 577.1523 595.958 579.4994 594.1696 583.0761 591.1518 583.0761 588.5811 584.5292 587.3516 589 580.8689 595.371 573.7155 592.0178 566.3386 583.9703 565.2209 579.723 564.662 575.3639 558.9617 573.2403 553.2614 576.0345 551.3613 580.2818 548.0081 582.629 545.2139 582.182 542.4196 580.6172 538.9547 582.182 535.7133 582.8526 530.3483 579.9465 531.2425 573.9109 534.9309 565.3045 530.6836 556.5864 528.8953 553.9039 527.1069 552.1155 524.0891 552.1155 521.2948 550.3272 518.277 546.6387 514.7003 546.8623 511.9061 549.9919 508.4411 550.3272 504.9762 547.1976 498.27 544.1798 496.8169 541.1619 496.9287 536.9146 495.2521 533.5615 492.1226 533.6733 489.3283 535.3498 485.6398 539.9325 480.7219 541.609 472.1155 540.0442 466.1916 526.6317 468.0917 521.1549 476.4746 515.5663 481.9514 506.1776 482.3985 502.7127 480.4983 500.8125 479.8277 498.9124 480.7219 496.3417 479.4924 488.5177 477.8158 481.029 478.1512 470.9696 479.6042 470.9696 482.0631 471.4167 485.5281 472.8697 491.2284 475.4405 494.8051 475.2169 496.5934 475.4405 497.9347 476.2229 499.723 477.8994 501.6231 478.3465 503.4114 478.2348 505.088 478.5701 506.541 470.7461 508.8882 463.7045 514.2532 461.5809 519.73 463.481 527.554 457.8924 533.1426 460.6867 533.3661 464.4869 533.0308 468.2871 530.6836 471.6403 534.7074 472.8697 539.7371 470.4108 544.3197 474.211 551.026 481.2526 554.8262 486.6176 562.4266 483.0409 569.2447 476.3347 571.033 473.7639 573.2684 472.3109 574.6097 473.2051 586.2339 476.4464 594.7285 485.8352 598.864 491.9826 603.6702 495.7828 610.3765 492.3179 617.5298 490.0825Z" />
  <path class="Kardzhali" d="M468.0917 521.1549L466.1916 526.6317 472.1155 540.0442 480.7219 541.609 485.6398 539.9325 489.3283 535.3498 492.1226 533.6733 495.2521 533.5615 496.9287 536.9146 496.8169 541.1619 498.27 544.1798 504.9762 547.1976 508.4411 550.3272 511.9061 549.9919 514.7003 546.8623 518.277 546.6387 521.2948 550.3272 524.0891 552.1155 527.1069 552.1155 528.8953 553.9039 530.6836 556.5864 534.9309 565.3045 531.2425 573.9109 530.3483 579.9465 535.7133 582.8526 538.9547 582.182 542.4196 580.6172 545.2139 582.182 548.0081 582.629 551.3613 580.2818 553.2614 576.0345 558.9617 573.2403 564.662 575.3639 565.2209 579.723 566.3386 583.9703 573.7155 592.0178 580.8689 595.371 587.3516 589 588.5811 584.5292 591.1518 583.0761 594.1696 583.0761 595.958 579.4994 602.8878 577.1523 603.8937 577.7111 604.0055 577.7111 605.235 579.4994 607.5822 580.6172 609.8176 581.0642 611.7177 581.9584 613.059 583.635 614.0649 585.4233 615.5179 591.0119 615.6297 592.5767 615.4062 596.0416 615.6297 597.4946 616.5239 598.277 619.0946 598.7241 619.9888 599.73 620.8829 602.6361 621.1065 605.095 620.7712 607.554 620.2123 610.2365 618.3122 612.2484 618.0887 613.7014 619.7652 617.5017 620.4359 618.5076 622.6713 620.6312 623.1184 621.9725 622.8948 623.6491 622.0007 624.2079 620.9947 624.5432 620.2123 625.8845 618.3122 631.2495 615.8532 636.7263 613.9531 639.7441 612.9472 640.303 611.8295 639.9677 597.8581 643.209 595.8462 644.215 591.4871 647.2328 587.7987 649.0211 586.0103 649.2447 583.7749 648.7976 581.5395 648.7976 577.5157 650.8095 575.1685 651.3683 572.0389 650.0271 567.3446 644.7738 563.6561 643.3208 561.9795 643.9914 555.9439 648.127 550.3553 648.574 548.4552 649.1329 546.4433 650.5859 545.3256 651.8154 544.2079 652.5978 542.4196 652.8213 540.8548 652.3743 537.5017 650.3624 535.8251 649.8035 521.5184 648.7976 519.2829 649.58 518.0535 651.5919 517.0475 654.0508 515.5945 655.8392 514.0297 656.398 512.6884 656.2862 511.459 655.8392 509.7824 655.7274 505.6469 656.398 478.3747 665.3397 474.5745 665.5633 470.7743 665.0044 467.6447 663.1043 460.7149 653.492 457.5853 650.9212 457.0264 650.5859 457.1382 648.2387 455.7969 638.0675 456.3558 635.9439 457.1382 634.1556 455.3498 631.473 453.8968 628.7905 456.0205 623.9844 456.6911 618.6194 455.7969 616.6075 456.8029 613.8132 455.0145 603.8656 446.4081 606.3245 443.5021 610.7954 439.5901 608.7835 436.4605 602.7479 433.8898 596.1534 430.9837 592.1296 430.9837 587.3234 434.3369 585.9822 438.1371 586.6528 442.6079 585.5351 446.6317 582.5173 447.1905 580.8407 445.9611 578.8288 445.7375 573.7991 446.7435 569.5518 444.508 567.2046 442.7197 559.9395 439.9254 556.0275 438.2488 552.2273 440.0372 547.98 442.9432 544.8504 446.7435 545.1857 447.7494 541.7208 448.5318 537.0264 452.2202 534.0086 453.6733 529.3142 456.244 525.9611 458.5912 525.0669 460.0442 522.4961 463.8444 520.0372 468.0917 521.1549Z" />
  <path class="Kyustendil" d="M16.5362 361.0986L23.1307 360.6515 31.0664 361.881 37.2139 361.2103 42.1318 363.8928 44.3672 370.152 47.385 375.5171 50.1793 378.4231 50.8499 383.0057 53.5325 386.2471 58.3386 384.9058 61.2447 389.1531 60.6858 396.1947 63.2565 399.9949 66.6097 404.1305 69.1804 408.266 72.7571 410.6132 76.4455 414.1899 79.1281 418.8843 82.9283 421.2315 87.3991 420.3373 93.8818 414.9723 103.7177 414.0781 107.2944 413.1839 116.1243 416.09 119.1421 418.1019 121.9364 417.7666 123.9483 411.7309 128.6427 415.7547 133.4488 416.5371 137.8079 418.8843 142.2788 418.3254 145.1848 417.8783 147.7556 419.3314 151.5558 419.1078 155.0207 418.2136 160.4975 430.6202 162.3976 431.738 163.5153 433.8616 166.1978 436.7677 169.7745 438.1089 172.1217 442.6915 170.3333 445.4858 167.092 446.6035 165.0801 450.5155 159.9386 457.3336 162.2858 462.2515 169.5509 461.1338 176.8161 459.2337 180.9516 462.475 184.0812 468.0636 188.9991 468.5107 193.2464 470.5226 191.5699 475.3287 187.4343 478.4583 179.3868 484.8293 170.1098 486.5058 149.5439 479.7996 146.5261 480.3584 143.3965 480.0231 139.8198 480.0231 131.7723 484.2704 127.1897 487.5118 122.2717 488.9648 117.1303 489.5237 112.8829 486.6176 108.0768 484.8293 103.3824 485.1646 100.5881 481.029 96.5644 481.3644 91.7582 489.0766 90.5287 493.4356 87.0638 492.8768 84.2695 495.7828 82.2576 498.4653 81.9223 496.9006 81.0282 495.8946 79.2398 494.6651 78.2339 494.5534 75.7749 495.4475 74.6572 495.4475 73.316 494.4416 72.8689 492.9886 72.4218 491.5355 71.7512 490.6414 70.0746 490.5296 62.6977 490.8649 61.58 490.4178 60.7976 489.5237 60.2387 488.5177 59.4563 487.8471 54.6502 486.8411 46.7144 482.8174 45.2614 482.035 31.1782 471.8638 27.7133 468.3989 27.2662 467.5047 25.2543 464.1516 23.1307 457.7806 16.9833 453.198 1 431.5144 4.0178 429.8378 10.8359 429.7261 13.7419 428.7201 16.0891 425.5905 18.6598 417.543 21.2306 414.3017 23.6895 413.0722 25.7014 412.6251 27.4898 411.3956 29.2781 407.8189 31.5135 399.7714 32.0724 395.1888 31.4018 391.9474 31.4018 391.8356 30.1723 388.7061 28.0486 386.2471 23.1307 382.5586 14.6361 374.7347 13.9655 374.3993 14.5243 370.0403 16.5362 361.0986Z" />
  <path class="Lovech" d="M334.0781 334.1617L328.8249 334.7206 323.5716 333.6029 319.8832 330.9204 315.9712 328.6849 295.4053 328.4614 292.1639 323.4317 294.3993 314.49 294.6229 307.3366 294.1758 300.1833 290.5991 294.1476 284.3399 292.6946 280.3162 288.6708 276.8513 284.6471 278.0807 279.9527 277.0748 275.3701 274.8394 273.0229 273.6099 269.7815 270.7039 266.5402 266.0095 266.6519 263.774 260.7281 262.8799 254.4689 265.3388 252.7923 268.1331 255.2513 272.2686 255.2513 273.9452 250.3333 275.2865 241.3916 273.9452 232.7853 282.6634 227.6438 291.158 223.7318 295.07 226.9732 298.7584 226.1908 303.6763 228.985 307.8119 229.5439 311.8356 228.4262 316.53 226.4143 321.1127 225.2966 323.9069 221.9435 327.1483 219.0374 330.1661 218.0315 333.4075 218.0315 336.3135 221.1611 338.549 225.5201 341.5668 228.538 353.3028 231.8911 361.2385 232.3382 362.3562 233.5677 362.9151 235.1325 365.374 234.2383 371.1861 229.3204 374.204 225.5201 375.5452 222.3905 377.3336 219.708 379.1219 222.2788 380.9102 221.0493 383.2574 217.4726 391.8638 211.2134 401.8114 210.6546 405.4999 210.9899 411.6473 210.2075 415.1122 214.343 419.3595 214.1195 423.9421 212.7782 428.7483 210.7663 433.1074 207.525 436.0134 204.7307 436.7958 198.9186 440.149 203.3894 444.1727 211.7723 450.0966 217.5844 450.879 232.0029 443.7256 239.6033 437.2429 237.4796 429.6425 236.3619 426.96 243.2917 425.7305 251.6746 419.6948 256.1454 417.6829 265.1989 419.0242 272.464 410.5296 282.8587 412.2062 292.6946 412.9886 295.936 412.4297 299.2891 413.3239 302.0834 414.8887 304.5424 421.9303 307.8955 428.413 312.4781 432.4367 322.5375 433.778 333.3793 428.7483 334.6088 427.0717 336.5089 426.5129 339.1914 419.8066 343.2152 412.3179 344.1094 404.0469 342.0975 395.4405 342.0975 394.211 343.6623 391.752 344.2211 383.9281 342.6563 377.5571 336.956 372.0803 329.6909 364.7034 326.7848 356.9912 325.8906 350.8438 326.0024 340.6726 334.9441 334.0781 334.1617Z" />
  <path class="Montana" d="M62.5859 193.8889L70.1864 186.9591 74.5454 175.2231 74.4337 170.5287 77.675 168.6286 83.7107 166.3932 93.0994 165.2755 102.1529 162.4812 103.4942 158.681 102.6 154.4337 99.0233 153.6513 97.235 150.2981 99.5822 138.2268 105.2825 129.3969 113.1065 126.3791 114.8948 123.2495 113.1065 118.6669 112.1006 114.0843 108.971 112.743 105.6178 111.9606 103.2706 108.831 105.8414 105.7014 109.7534 105.925 113.7771 104.8073 115.1184 99.554 115.789 91.5065 128.6427 90.3888 133.5606 88.2651 139.2609 87.0356 145.4084 83.6825 160.0504 81.6706 185.9813 83.0119 203.5294 92.736 208.112 93.5184 210.1239 100.8953 208.3355 120.4552 205.7648 128.5028 202.5234 135.8796 202.1881 138.5622 202.4117 141.3564 200.5116 144.2625 197.6055 146.3861 196.7113 149.6275 199.5056 152.4218 201.1822 153.6513 203.1941 154.3219 204.4235 156.5573 206.2119 158.2339 208.2238 159.3516 208.4473 162.1459 206.2119 164.1578 203.5294 162.3694 199.6174 165.3872 195.9289 169.7463 192.6876 169.9699 189.4462 169.7463 185.5342 167.2873 178.9397 171.0876 174.0218 178.3527 174.3571 186.9591 173.0158 195.5655 169.1039 201.154 165.7507 207.4132 161.8387 212.4429 160.3857 218.5903 172.5688 222.9494 182.5164 228.4262 180.5045 233.5677 176.2572 233.903 171.6746 237.7032 172.0099 243.6271 166.1978 250.2216 158.9327 253.0158 153.6794 251.2275 148.6497 252.5688 143.0612 255.1395 127.9721 253.91 123.7248 250.5569 111.9888 236.5855 104.5001 238.262 104.2766 235.6913 101.5941 234.4618 93.5465 232.6735 90.6405 230.8851 88.4051 228.6497 84.1578 222.7259 80.2458 218.8139 79.2398 217.2491 78.681 215.5725 78.2339 211.437 77.5633 209.6486 75.5514 206.6308 63.9272 194.8948 62.5859 193.8889Z" />
  <path class="Pazardzhik" d="M231.1369 461.2455L234.0429 460.4631 236.5019 458.7866 236.1666 455.8805 237.2843 453.8686 244.9965 450.7391 250.2497 442.9151 251.591 436.4323 255.3912 435.3146 257.2913 438.1089 259.415 440.3443 262.8799 441.462 265.4506 438.1089 265.3388 434.4205 262.7681 432.2968 260.1974 424.1375 263.1034 414.1899 269.5861 413.4075 275.8453 410.725 278.5278 402.5657 275.9571 398.2066 267.686 399.5479 261.5386 393.9593 259.5267 390.9415 256.8442 388.8178 254.6088 384.7941 253.1558 380.0997 254.0499 375.1817 258.8561 373.3934 263.327 372.9463 267.686 374.6229 271.2627 377.6407 275.2865 378.6466 282.8869 374.3993 286.9107 374.2876 290.7109 372.4992 295.1817 366.0165 301.1056 363.5575 304.0117 363.1105 306.8059 361.881 311.5003 362.2163 315.8594 363.6693 317.7595 367.1342 318.6537 371.0462 321.5597 372.3875 324.5776 373.2816 326.4777 376.0759 329.0484 376.1877 332.5133 375.5171 335.8664 376.7465 334.0781 387.253 333.631 398.3184 337.2077 399.1008 339.2196 404.6893 338.8843 406.813 339.1078 411.7309 340.6726 416.6488 340.5608 420.8961 343.5787 422.1256 347.2671 428.6084 344.9199 434.3087 345.1435 437.5501 347.7142 441.462 348.9437 447.3859 348.1613 453.6451 348.0495 458.0042 350.8438 460.1278 353.4145 463.1457 350.9556 466.4988 346.4847 467.6165 342.7963 470.6343 343.2433 479.6878 341.3432 484.6057 342.2374 490.6414 344.8081 501.0361 342.908 511.2073 341.0079 517.2429 338.4372 524.2845 332.4015 527.3023 327.7072 530.3201 320.7773 539.9325 320.7773 549.9919 313.7358 556.3628 304.4587 556.6981 301.3292 559.6042 298.4231 559.3806 299.6526 555.5804 300.3232 551.5567 293.9523 545.6328 285.793 544.4033 279.8691 545.521 280.4279 550.7743 283.334 553.1215 285.793 556.3628 286.24 563.5162 281.4339 568.4341 278.4161 566.9811 276.4042 563.1809 257.9619 550.5507 256.2854 547.0858 254.2735 544.5151 251.1439 545.4092 248.2378 544.7386 244.6612 541.1619 240.7492 538.5912 236.5019 530.4319 235.4959 520.596 233.037 517.1311 231.1369 513.2191 231.9193 509.6425 231.8075 505.2834 235.8312 495.5593 240.5256 490.1943 237.396 486.3941 237.2843 481.5879 239.2961 479.1289 239.7432 475.5523 238.7373 471.0814 235.943 468.0636 232.7017 465.4928 231.1369 461.2455Z" />
  <path class="Pernik" d="M65.0449 302.3069L65.8273 303.2011 69.404 306.4425 72.1982 310.8015 73.0924 313.484 74.5454 315.6077 76.1102 315.3842 77.2279 316.5019 80.0222 315.943 82.1459 312.031 84.6048 313.3723 83.5989 320.3021 86.7285 322.5375 90.7523 320.1903 93.8818 323.9905 96.6761 329.4673 101.5941 329.4673 103.2706 332.4851 106.4002 333.1558 111.3182 332.4851 114.4477 337.6266 116.9067 344.1094 121.2658 347.0154 125.066 350.9274 127.8603 353.1628 131.2134 354.9512 133.0018 358.6396 134.1195 362.7751 134.7901 370.4873 139.9316 372.4992 149.5439 379.8761 152.4499 383.341 147.0849 391.6121 143.3965 401.448 145.073 411.0603 142.9494 414.3017 142.2788 418.3254 137.8079 418.8843 133.4488 416.5371 128.6427 415.7547 123.9483 411.7309 121.9364 417.7666 119.1421 418.1019 116.1243 416.09 107.2944 413.1839 103.7177 414.0781 93.8818 414.9723 87.3991 420.3373 82.9283 421.2315 79.1281 418.8843 76.4455 414.1899 72.7571 410.6132 69.1804 408.266 66.6097 404.1305 63.2565 399.9949 60.6858 396.1947 61.2447 389.1531 58.3386 384.9058 53.5325 386.2471 50.8499 383.0057 50.1793 378.4231 47.385 375.5171 44.3672 370.152 42.1318 363.8928 37.2139 361.2103 31.0664 361.881 23.1307 360.6515 16.5362 361.0986 17.095 358.8631 17.8774 353.3864 16.7597 350.3685 20.8953 342.321 23.1307 340.1974 23.2425 339.5267 23.3542 338.8561 23.2425 338.1855 23.1307 337.5149 20.6717 335.6147 18.5481 332.2616 14.6361 322.8728 14.0772 322.0904 14.3008 321.1963 14.8596 320.4139 15.8656 318.8491 17.2068 317.5078 21.3424 315.3842 23.1307 313.9311 25.5897 310.0191 27.0427 308.6779 29.2781 308.6779 32.1842 309.125 33.3019 308.4543 33.4136 308.3426 34.196 307.1131 36.4315 305.5483 40.9023 304.9894 53.0854 308.3426 58.0033 307.1131 62.9212 304.9894 64.9331 302.6422 65.0449 302.3069Z" />
  <path class="Pleven" d="M478.3747 125.8202L477.8158 127.1615 473.4568 129.844 469.5448 133.4207 467.3094 142.4741 462.3914 148.5098 463.7327 155.4396 466.3034 155.8867 467.6447 158.0103 463.9562 165.8343 459.2618 171.87 454.1204 177.0114 455.9087 181.8176 462.9503 181.3705 464.2915 189.418 467.7564 196.5714 468.6506 204.9542 461.9443 211.437 458.9265 213.4488 456.244 216.0196 453.2262 216.9138 450.0966 217.5844 444.1727 211.7723 440.149 203.3894 436.7958 198.9186 436.0134 204.7307 433.1074 207.525 428.7483 210.7663 423.9421 212.7782 419.3595 214.1195 415.1122 214.343 411.6473 210.2075 405.4999 210.9899 401.8114 210.6546 391.8638 211.2134 383.2574 217.4726 380.9102 221.0493 379.1219 222.2788 377.3336 219.708 375.5452 222.3905 374.204 225.5201 371.1861 229.3204 365.374 234.2383 362.9151 235.1325 362.3562 233.5677 361.2385 232.3382 353.3028 231.8911 341.5668 228.538 338.549 225.5201 336.3135 221.1611 333.4075 218.0315 330.1661 218.0315 327.1483 219.0374 323.9069 221.9435 321.1127 225.2966 316.53 226.4143 311.8356 228.4262 307.8119 229.5439 303.6763 228.985 298.7584 226.1908 295.07 226.9732 291.158 223.7318 282.6634 227.6438 273.9452 232.7853 263.1034 228.4262 261.6504 225.4084 263.327 220.9375 266.1212 214.343 278.1925 209.6486 280.5397 210.2075 282.8869 211.3252 284.6752 208.978 287.8048 206.9661 293.2816 206.6308 298.982 207.525 306.6942 203.5012 308.0354 190.6475 309.2649 186.2884 309.1531 182.3765 306.1353 171.87 298.6466 170.4169 294.1758 163.4871 292.3875 155.3278 289.1461 148.5098 293.1699 144.7096 297.6407 139.3446 301.9998 135.4326 307.253 135.9914 316.3065 131.4088 323.0128 121.1259 324.354 110.284 327.8189 110.1723 330.6132 109.2781 339.6667 102.4601 345.367 100.56 350.8438 101.2306 377.11 111.0664 384.1516 113.749 391.8638 114.8667 426.0658 112.5195 445.2904 119.3375 466.3034 120.9023 473.0097 122.5789 478.3747 125.8202Z" />
  <path class="Plovdiv" d="M485.5281 472.8697L482.0631 471.4167 479.6042 470.9696 478.1512 470.9696 477.8158 481.029 479.4924 488.5177 480.7219 496.3417 479.8277 498.9124 480.4983 500.8125 482.3985 502.7127 481.9514 506.1776 476.4746 515.5663 468.0917 521.1549 463.8444 520.0372 460.0442 522.4961 458.5912 525.0669 456.244 525.9611 453.6733 529.3142 452.2202 534.0086 448.5318 537.0264 447.7494 541.7208 446.7435 545.1857 442.9432 544.8504 440.149 543.6209 437.1311 543.5091 430.9837 535.2381 426.6246 536.6911 421.2596 536.9146 418.13 531.1025 414.1063 527.4141 406.8411 522.8315 400.9173 515.231 393.0933 512.9956 385.0458 514.0015 376.6629 516.4605 368.7272 521.4902 361.015 525.1787 342.908 511.2073 344.8081 501.0361 342.2374 490.6414 341.3432 484.6057 343.2433 479.6878 342.7963 470.6343 346.4847 467.6165 350.9556 466.4988 353.4145 463.1457 350.8438 460.1278 348.0495 458.0042 348.1613 453.6451 348.9437 447.3859 347.7142 441.462 345.1435 437.5501 344.9199 434.3087 347.2671 428.6084 343.5787 422.1256 340.5608 420.8961 340.6726 416.6488 339.1078 411.7309 338.8843 406.813 339.2196 404.6893 337.2077 399.1008 333.631 398.3184 334.0781 387.253 335.8664 376.7465 341.3432 376.523 345.7023 373.5052 346.4847 368.5872 342.2374 365.6812 337.2077 358.5278 330.1661 354.8394 328.1542 344.6682 334.0781 334.1617 340.6726 334.9441 350.8438 326.0024 356.9912 325.8906 364.7034 326.7848 372.0803 329.6909 377.5571 336.956 383.9281 342.6563 391.752 344.2211 394.211 343.6623 395.4405 342.0975 404.0469 342.0975 412.3179 344.1094 419.8066 343.2152 426.5129 339.1914 427.0717 336.5089 428.7483 334.6088 433.778 333.3793 433.8898 335.6147 432.9956 343.4387 435.6781 359.1985 434.2251 363.5575 431.0955 364.6752 435.0075 373.5052 435.0075 376.523 436.237 381.3292 438.9195 385.1294 445.2904 389.9355 452.5556 390.0473 457.9206 388.259 460.6031 392.7298 457.3617 400.5538 461.0502 404.9129 463.1738 405.9188 464.068 408.7131 463.062 411.8427 460.156 411.5074 454.1204 408.9366 449.5377 412.178 450.5437 420.002 450.7672 425.367 452.5556 430.2849 456.244 437.4383 451.4378 440.2326 445.9611 442.468 443.8374 449.9567 446.2964 459.0101 449.426 461.2455 450.7672 460.4631 452.4438 462.475 455.0145 463.5927 456.8029 465.0458 456.244 468.0636 459.1501 468.6224 461.609 463.2574 464.5151 462.9221 470.2154 461.4691 475.3569 462.8103 481.3925 466.9459 485.5281 472.8697Z" />
  <path class="Razgrad" d="M658.6616 67.4757L664.3619 66.5815 669.8387 68.0345 674.1978 72.9525 678.7804 71.6112 682.916 68.4816 686.6044 70.27 689.5105 74.2937 690.7399 78.2057 694.5402 85.4708 708.288 90.3888 713.7648 91.0594 716.6708 95.3067 718.9063 99.554 720.2475 96.7597 722.7065 96.3127 725.5008 95.1949 727.848 91.6183 730.3069 91.2829 731.3129 95.642 733.9954 99.7776 736.9014 102.013 738.578 104.4719 740.9252 106.5956 741.037 111.7371 742.6018 114.3078 745.5078 112.4077 748.1903 113.9725 752.1023 119.7846 756.7967 123.6966 758.8086 130.9617 754.7848 134.4266 744.0548 148.8451 741.5958 147.2803 739.6957 144.2625 737.9074 144.3743 736.119 145.2684 731.9835 149.851 727.1773 154.2101 723.0418 157.3397 725.7243 161.8106 723.4889 166.0579 717.3415 168.0697 711.7529 171.87 710.9705 177.4585 713.2059 182.0411 711.7529 188.4121 708.288 187.4062 704.9349 187.4062 704.2642 196.0125 700.9111 197.0185 697.3344 197.6891 691.5223 203.7248 687.6103 203.7248 683.6983 202.0482 673.4154 202.0482 672.2977 195.5655 673.1919 186.8473 664.809 184.1648 655.0849 182.8235 652.8495 181.5941 650.9494 179.9175 653.4084 172.0935 646.7021 165.0519 638.431 160.0222 631.2777 157.7868 624.2361 160.3575 620.6594 154.5454 621.2183 146.7215 620.8829 145.0449 620.5476 143.4801 621.4418 142.5859 622.1124 141.3564 621.7771 136.3267 623.5655 132.1912 625.6891 134.0913 627.8128 136.3267 633.8484 131.7441 642.343 132.9736 644.4667 129.3969 646.7021 124.3672 649.9435 122.5789 649.4964 113.5254 652.4024 109.5017 648.4904 107.2662 643.5725 106.9309 635.1897 102.9072 635.6367 93.8537 643.0136 89.2711 646.5903 80.8882 658.6616 67.4757Z" />
  <path class="Ruse" d="M648.2669 43.6684L648.714 45.7921 651.1729 51.0453 655.4202 51.716 656.538 58.534 658.6616 67.4757 646.5903 80.8882 643.0136 89.2711 635.6367 93.8537 635.1897 102.9072 643.5725 106.9309 648.4904 107.2662 652.4024 109.5017 649.4964 113.5254 649.9435 122.5789 646.7021 124.3672 644.4667 129.3969 642.343 132.9736 633.8484 131.7441 627.8128 136.3267 625.6891 134.0913 623.5655 132.1912 621.7771 136.3267 622.1124 141.3564 621.4418 142.5859 620.5476 143.4801 620.8829 145.0449 621.2183 146.7215 620.6594 154.5454 624.2361 160.3575 620.9947 162.2576 616.971 161.587 613.2825 162.2576 609.5941 161.4752 605.7938 164.4931 600.7641 166.8403 599.87 173.9936 597.5228 178.9116 593.8343 182.8235 589.587 185.9531 585.5633 187.0708 586.5692 192.1006 589.3635 196.6832 593.7226 197.242 597.411 199.0304 597.9699 203.8365 597.6345 208.978 591.8224 208.5309 586.1221 206.4073 584.6691 201.154 583.8867 196.3479 579.1923 196.2361 574.6097 198.5833 570.3624 198.8068 566.1151 197.8009 560.5265 197.242 555.0497 195.6772 551.8084 192.6594 549.3494 189.9769 546.8904 189.9769 545.6609 187.4062 541.749 187.4062 539.6253 191.5417 530.3483 187.965 521.2948 178.9116 522.4125 172.8759 523.9773 166.6167 521.6301 165.1637 519.3947 167.6227 516.9358 167.2873 516.6004 164.4931 508.3294 158.1221 507.4352 153.316 511.0119 150.5217 514.4768 142.8095 511.5707 132.9736 510.3413 130.4029 511.3472 130.1793 518.6123 130.6264 522.4125 130.2911 525.3186 128.7263 528.4482 127.9439 532.1366 126.3791 535.6015 124.2554 538.0605 121.7965 540.9666 119.6728 551.026 119.3375 552.0319 119.3375 558.8499 116.4315 562.6502 110.1723 562.8737 109.2781 568.2387 103.6895 573.1567 100.8953 580.7571 91.1712 582.0983 87.9298 583.6631 85.3591 603.2231 70.8288 604.3408 67.3639 607.2469 63.0048 613.1707 56.2986 618.8711 53.2807 631.9483 49.8158 644.802 44.2273 648.2669 43.6684Z" />
  <path class="Shumen" d="M776.0213 290.2356L768.4209 293.5888 760.5969 295.7124 753.6671 293.1417 747.2961 293.477 741.9311 294.5947 736.7897 291.1298 727.6244 291.9122 724.3831 291.6887 721.5888 293.477 718.1239 300.1833 712.6471 303.3129 706.2761 304.5424 700.6876 302.0834 700.7993 297.1655 699.1228 293.8123 687.275 296.8301 684.0337 289.3415 687.6103 282.8587 690.2928 281.741 692.64 279.3938 696.6638 278.4997 696.3285 274.6994 694.0931 271.5699 696.2167 269.4462 699.1228 268.9991 700.464 265.1989 700.9111 261.9575 704.376 261.0634 705.7173 257.9338 702.6994 256.0337 701.0229 252.9041 704.376 247.3155 709.6293 245.4154 711.8647 241.0563 713.7648 235.356 716.112 233.3441 718.4592 233.3441 718.6827 223.8436 713.4295 213.6724 714.3237 208.5309 715.8884 203.3894 718.1239 200.0363 721.2535 197.9127 719.8004 190.0887 711.7529 188.4121 713.2059 182.0411 710.9705 177.4585 711.7529 171.87 717.3415 168.0697 723.4889 166.0579 725.7243 161.8106 723.0418 157.3397 727.1773 154.2101 731.9835 149.851 736.119 145.2684 737.9074 144.3743 739.6957 144.2625 741.5958 147.2803 744.0548 148.8451 754.7848 134.4266 758.8086 130.9617 756.7967 123.6966 765.5149 118.7787 771.9976 122.9142 778.4803 130.2911 789.2103 130.6264 798.2638 138.1151 801.6169 144.9331 806.4231 147.1685 812.7941 145.1567 819.2768 143.9272 823.077 146.3861 824.7536 152.5336 811.6763 156.222 802.9582 163.9342 810.8939 166.6167 809.1056 171.6464 807.2055 174.3289 809.1056 176.1173 811.1175 179.1351 805.4172 187.6297 802.1758 191.3182 800.611 195.5655 800.8345 201.154 803.6288 205.066 805.8642 208.8662 801.8405 212.1076 797.3696 213.7842 797.3696 219.3727 797.0343 223.7318 791.5575 225.073 785.8572 225.6319 782.1688 228.4262 781.6099 233.903 785.8572 238.1503 791.2222 240.2739 791.1105 245.5272 785.8572 248.4332 783.1747 253.2394 786.8631 257.7102 782.3923 261.3987 789.7692 263.9694 790.6634 269.3344 782.9512 271.3463 773.2271 276.7113 769.4268 279.7292 771.8858 285.2059 776.0213 290.2356Z" />
  <path class="Silistra" d="M867.5619 58.9811L867.4502 58.9811 863.0911 58.7575 860.0733 61.44 860.8557 66.358 857.8378 69.8229 854.9318 69.9347 855.826 72.5054 855.3789 76.8645 850.5727 77.7586 846.996 74.5173 842.8605 75.635 840.9604 82.453 841.4075 89.3828 834.813 94.189 826.5419 91.1712 821.5122 92.1771 817.3767 95.5303 819.3886 106.4838 812.2352 106.7074 804.8583 100.56 801.6169 102.3483 799.6051 106.8191 791.6693 113.9725 791.334 124.0319 795.246 130.1793 792.3399 131.297 789.2103 130.6264 778.4803 130.2911 771.9976 122.9142 765.5149 118.7787 756.7967 123.6966 752.1023 119.7846 748.1903 113.9725 745.5078 112.4077 742.6018 114.3078 741.037 111.7371 740.9252 106.5956 738.578 104.4719 736.9014 102.013 733.9954 99.7776 731.3129 95.642 730.3069 91.2829 727.848 91.6183 725.5008 95.1949 722.7065 96.3127 720.2475 96.7597 718.9063 99.554 716.6708 95.3067 713.7648 91.0594 708.288 90.3888 694.5402 85.4708 690.7399 78.2057 689.5105 74.2937 686.6044 70.27 682.916 68.4816 678.7804 71.6112 674.1978 72.9525 669.8387 68.0345 664.3619 66.5815 658.6616 67.4757 656.538 58.534 655.4202 51.716 651.1729 51.0453 648.714 45.7921 648.2669 43.6684 661.903 41.6565 694.0931 36.8504 699.5699 34.9503 702.8112 34.615 704.376 34.1679 707.5056 32.156 709.4057 31.5971 716.6708 31.5971 722.4829 29.9206 737.9074 20.6436 756.9085 18.7435 761.1558 16.0609 773.0035 23.4378 790.1045 26.9028 793.5694 28.8029 797.4814 28.4675 797.705 28.5793 800.3875 30.703 799.6051 35.8444 803.07 39.7564 812.2352 44.1155 814.1353 45.7921 817.2649 51.3806 819.0532 52.6101 850.0139 52.3866 859.5144 49.3688 863.3146 50.71 866.4442 57.5281 867.5619 58.9811Z" />
  <path class="Sliven" d="M687.275 296.8301L687.8339 301.1892 686.2691 306.2189 688.6163 312.1428 690.5164 317.8431 688.0574 321.0845 687.3868 325.22 688.281 330.6968 684.4807 334.0499 679.451 335.9501 675.3155 339.6385 677.6627 345.4506 682.8042 347.1272 686.7162 349.6979 690.6282 351.7098 696.2167 350.0332 701.6935 347.2389 702.1406 354.5041 700.464 361.0986 698.7875 363.5575 696.6638 364.787 692.3047 364.0046 690.7399 366.1283 688.5045 367.6931 685.9338 370.152 683.4748 373.3934 674.086 376.2994 664.6972 375.5171 660.0029 376.6348 655.7556 379.6526 657.4321 383.2293 659.1087 386.1353 656.0909 387.8119 653.2966 390.3826 649.9435 399.1008 642.343 401.5597 634.1837 398.5419 630.7188 400.6656 632.3954 407.4836 627.5892 410.8367 621.7771 411.2838 622.7831 419.3314 627.9245 419.5549 630.8306 421.7903 622.5595 441.9091 623.6772 452.6392 621.33 460.6867 615.5179 465.7164 611.6059 466.4988 608.0293 464.934 603.3349 465.0458 598.3052 466.7223 590.1459 456.8865 590.9283 440.7914 587.6869 430.8438 580.1982 420.3373 577.9628 415.4194 578.1864 409.8308 573.7155 401.448 575.6156 397.0889 575.1685 391.8356 572.3743 386.5824 568.6858 385.1294 566.8975 381.888 575.3921 375.4053 574.6097 367.4695 570.1388 358.6396 565.4444 342.9916 563.6561 328.0143 571.033 327.7908 578.4099 326.226 589.0282 327.679 592.7166 324.9965 596.0697 321.1963 599.7582 320.4139 603.5584 320.4139 605.5703 315.4959 605.235 309.125 607.6939 305.213 611.6059 303.9835 618.6475 299.848 622.2242 291.2416 626.5833 290.4592 630.7188 289.0062 632.8425 285.8766 635.1897 283.0823 637.8722 281.8528 638.9899 278.835 639.1017 275.3701 638.9899 272.2405 641.6724 272.7993 644.4667 272.6876 648.8257 270.6757 652.9613 272.5758 652.1789 275.2583 653.2966 277.7173 654.9732 276.4878 656.2026 274.3641 662.3501 278.4997 666.4856 278.7232 670.5094 277.829 674.086 275.4818 677.6627 276.9349 682.4689 280.288 687.6103 282.8587 684.0337 289.3415 687.275 296.8301Z" />
  <path class="Smolyan" d="M301.7762 598.6123L301.6645 598.5006 282.3281 582.0702 286.4636 579.2759 289.5932 575.3639 285.2341 572.3461 283.7811 569.6636 281.4339 568.4341 286.24 563.5162 285.793 556.3628 283.334 553.1215 280.4279 550.7743 279.8691 545.521 285.793 544.4033 293.9523 545.6328 300.3232 551.5567 299.6526 555.5804 298.4231 559.3806 301.3292 559.6042 304.4587 556.6981 313.7358 556.3628 320.7773 549.9919 320.7773 539.9325 327.7072 530.3201 332.4015 527.3023 338.4372 524.2845 341.0079 517.2429 342.908 511.2073 361.015 525.1787 368.7272 521.4902 376.6629 516.4605 385.0458 514.0015 393.0933 512.9956 400.9173 515.231 406.8411 522.8315 414.1063 527.4141 418.13 531.1025 421.2596 536.9146 426.6246 536.6911 430.9837 535.2381 437.1311 543.5091 440.149 543.6209 442.9432 544.8504 440.0372 547.98 438.2488 552.2273 439.9254 556.0275 442.7197 559.9395 444.508 567.2046 446.7435 569.5518 445.7375 573.7991 445.9611 578.8288 447.1905 580.8407 446.6317 582.5173 442.6079 585.5351 438.1371 586.6528 434.3369 585.9822 430.9837 587.3234 430.9837 592.1296 433.8898 596.1534 436.4605 602.7479 439.5901 608.7835 443.5021 610.7954 446.4081 606.3245 455.0145 603.8656 456.8029 613.8132 455.7969 616.6075 456.6911 618.6194 456.0205 623.9844 453.8968 628.7905 455.3498 631.473 457.1382 634.1556 456.3558 635.9439 455.7969 638.0675 457.1382 648.2387 457.0264 650.5859 450.879 647.6799 450.3201 647.0092 448.9789 644.8856 448.5318 644.3267 447.7494 644.3267 445.0669 644.8856 418.4653 633.4849 413.5474 630.4671 411.4238 630.1318 409.7472 630.4671 406.3941 631.6966 400.0231 632.1437 399.576 635.0497 400.0231 638.8499 398.5701 641.9795 395.3287 641.8678 391.8638 638.6264 386.387 631.473 383.1457 628.6788 380.2396 627.2257 376.9982 626.7787 373.3098 626.7787 374.204 624.655 368.6154 624.655 366.38 624.0961 363.921 621.8607 363.8092 620.9666 364.1446 618.6194 364.0328 617.5017 363.3622 616.831 361.7974 615.8251 361.2385 615.1545 360.3443 613.925 359.5619 613.1426 358.8913 612.1366 358.3325 610.3483 357.8854 604.3127 355.8735 598.6123 352.5204 595.5945 347.826 597.3828 344.2493 598.1652 340.8961 602.9714 338.4372 603.4185 335.084 602.8596 332.5133 603.1949 327.1483 604.7597 325.6953 604.9833 321.3362 604.4244 319.8832 604.648 318.8772 605.2068 317.7595 605.6539 316.1947 605.095 315.9712 603.8656 316.3065 602.0772 316.1947 600.1771 312.9534 598.1652 310.3826 595.1474 307.4766 595.4827 304.4587 596.824 301.7762 598.6123Z" />
  <path class="Sofia" d="M116.9067 344.1094L114.4477 337.6266 111.3182 332.4851 106.4002 333.1558 103.2706 332.4851 101.5941 329.4673 96.6761 329.4673 93.8818 323.9905 90.7523 320.1903 86.7285 322.5375 83.5989 320.3021 84.6048 313.3723 82.1459 312.031 80.0222 315.943 77.2279 316.5019 76.1102 315.3842 74.5454 315.6077 73.0924 313.484 72.1982 310.8015 69.404 306.4425 65.8273 303.2011 65.0449 302.3069 65.9391 299.848 68.8451 289.1179 69.851 286.3237 70.9688 284.4235 72.8689 283.3058 77.3397 282.1881 79.4634 281.4057 79.5751 281.2939 81.6988 278.2761 88.5168 271.7934 89.2992 270.0051 90.5287 265.9813 91.3111 264.4165 92.6524 263.187 95.4466 261.8458 96.7879 260.8398 100.0293 255.8101 103.0471 248.545 104.8354 241.0563 104.5001 238.262 111.9888 236.5855 123.7248 250.5569 127.9721 253.91 143.0612 255.1395 148.6497 252.5688 153.6794 251.2275 158.9327 253.0158 166.1978 250.2216 172.0099 243.6271 177.3749 243.8506 182.2928 246.5331 183.5223 249.4392 180.1692 249.5509 177.822 251.451 177.9338 255.8101 180.3927 258.2691 183.0752 260.1692 187.4343 264.193 191.2345 269.1109 193.6935 274.1406 197.0466 277.829 203.3058 273.9171 210.2356 268.105 212.8064 270.5639 215.2653 273.5817 219.6244 273.8053 223.6482 272.2405 227.2249 267.7696 231.6957 264.8636 237.7314 267.4343 253.8264 270.3404 256.3971 271.7934 259.1914 273.6935 262.9916 271.1228 266.0095 266.6519 270.7039 266.5402 273.6099 269.7815 274.8394 273.0229 277.0748 275.3701 278.0807 279.9527 276.8513 284.6471 280.3162 288.6708 284.3399 292.6946 290.5991 294.1476 294.1758 300.1833 294.6229 307.3366 294.3993 314.49 292.1639 323.4317 295.4053 328.4614 315.9712 328.6849 319.8832 330.9204 323.5716 333.6029 328.8249 334.7206 334.0781 334.1617 328.1542 344.6682 330.1661 354.8394 337.2077 358.5278 342.2374 365.6812 346.4847 368.5872 345.7023 373.5052 341.3432 376.523 335.8664 376.7465 332.5133 375.5171 329.0484 376.1877 326.4777 376.0759 324.5776 373.2816 321.5597 372.3875 318.6537 371.0462 317.7595 367.1342 315.8594 363.6693 311.5003 362.2163 306.8059 361.881 304.0117 363.1105 301.1056 363.5575 295.1817 366.0165 290.7109 372.4992 286.9107 374.2876 282.8869 374.3993 275.2865 378.6466 271.2627 377.6407 267.686 374.6229 263.327 372.9463 258.8561 373.3934 254.0499 375.1817 253.1558 380.0997 254.6088 384.7941 256.8442 388.8178 259.5267 390.9415 261.5386 393.9593 267.686 399.5479 275.9571 398.2066 278.5278 402.5657 275.8453 410.725 269.5861 413.4075 263.1034 414.1899 260.1974 424.1375 262.7681 432.2968 265.3388 434.4205 265.4506 438.1089 262.8799 441.462 259.415 440.3443 257.2913 438.1089 255.3912 435.3146 251.591 436.4323 250.2497 442.9151 244.9965 450.7391 237.2843 453.8686 236.1666 455.8805 236.5019 458.7866 234.0429 460.4631 231.1369 461.2455 228.5661 461.1338 226.7778 463.5927 223.8717 465.0458 220.6304 463.5927 215.1536 464.5987 210.7945 466.2752 204.7589 467.0576 201.6293 475.1052 196.1525 481.6997 187.4343 478.4583 191.5699 475.3287 193.2464 470.5226 188.9991 468.5107 184.0812 468.0636 180.9516 462.475 176.8161 459.2337 169.5509 461.1338 162.2858 462.2515 159.9386 457.3336 165.0801 450.5155 167.092 446.6035 170.3333 445.4858 172.1217 442.6915 169.7745 438.1089 166.1978 436.7677 163.5153 433.8616 162.3976 431.738 160.4975 430.6202 155.0207 418.2136 151.5558 419.1078 147.7556 419.3314 145.1848 417.8783 142.2788 418.3254 142.9494 414.3017 145.073 411.0603 143.3965 401.448 147.0849 391.6121 152.4499 383.341 165.7507 390.4944 171.6746 395.077 177.4867 396.4183 181.3987 390.1591 184.5283 383.7881 191.1228 385.1294 191.2345 387.8119 192.2405 391.6121 195.4818 397.6477 193.6935 404.9129 198.0526 407.9307 204.8706 406.7012 209.4532 408.7131 213.5888 404.5776 211.9122 397.2007 206.7707 392.2827 198.2761 377.1936 191.3463 360.4279 188.8873 355.6218 191.9052 342.0975 200.7351 322.7611 204.0882 316.5019 206.1001 310.6898 200.288 314.7135 194.2524 314.3782 187.8814 308.5661 180.3927 310.1309 172.3452 313.5958 164.4095 311.4722 156.3619 305.9954 154.3501 303.5364 151.6675 302.5305 147.8673 310.3545 147.7556 320.4139 139.708 327.0084 141.7199 331.0321 141.3846 335.3912 138.9256 338.409 136.0196 339.9738 132.2194 339.415 128.7545 337.0678 122.0482 337.7384 116.9067 344.1094Z" />
  <path class="Stara Zagora" d="M615.5179 465.7164L615.4062 478.123 617.6416 484.0469 617.5298 490.0825 610.3765 492.3179 603.6702 495.7828 598.864 491.9826 594.7285 485.8352 586.2339 476.4464 574.6097 473.2051 573.2684 472.3109 571.033 473.7639 569.2447 476.3347 562.4266 483.0409 554.8262 486.6176 551.026 481.2526 544.3197 474.211 539.7371 470.4108 534.7074 472.8697 530.6836 471.6403 533.0308 468.2871 533.3661 464.4869 533.1426 460.6867 527.554 457.8924 519.73 463.481 514.2532 461.5809 508.8882 463.7045 506.541 470.7461 505.088 478.5701 503.4114 478.2348 501.6231 478.3465 499.723 477.8994 497.9347 476.2229 496.5934 475.4405 494.8051 475.2169 491.2284 475.4405 485.5281 472.8697 481.3925 466.9459 475.3569 462.8103 470.2154 461.4691 464.5151 462.9221 461.609 463.2574 459.1501 468.6224 456.244 468.0636 456.8029 465.0458 455.0145 463.5927 452.4438 462.475 450.7672 460.4631 449.426 461.2455 446.2964 459.0101 443.8374 449.9567 445.9611 442.468 451.4378 440.2326 456.244 437.4383 452.5556 430.2849 450.7672 425.367 450.5437 420.002 449.5377 412.178 454.1204 408.9366 460.156 411.5074 463.062 411.8427 464.068 408.7131 463.1738 405.9188 461.0502 404.9129 457.3617 400.5538 460.6031 392.7298 457.9206 388.259 452.5556 390.0473 445.2904 389.9355 438.9195 385.1294 436.237 381.3292 435.0075 376.523 435.0075 373.5052 431.0955 364.6752 434.2251 363.5575 435.6781 359.1985 432.9956 343.4387 433.8898 335.6147 442.1608 336.3971 450.6554 334.7206 458.9265 330.6968 467.0858 330.2497 469.433 334.0499 472.1155 336.8442 478.71 332.9322 487.5399 334.7206 495.9228 338.409 501.176 337.9619 505.088 334.9441 507.8823 335.3912 510.5648 336.2854 513.4708 334.9441 515.9298 333.3793 518.9476 334.6088 522.8596 330.2497 525.4304 331.4792 528.2246 335.2794 531.466 337.9619 533.8132 335.6147 532.6955 331.591 536.4957 331.8145 539.4018 333.6029 541.8607 331.9263 544.8785 329.4673 550.8024 326.673 553.7085 327.679 556.8381 328.1261 560.1912 327.5672 563.6561 328.0143 565.4444 342.9916 570.1388 358.6396 574.6097 367.4695 575.3921 375.4053 566.8975 381.888 568.6858 385.1294 572.3743 386.5824 575.1685 391.8356 575.6156 397.0889 573.7155 401.448 578.1864 409.8308 577.9628 415.4194 580.1982 420.3373 587.6869 430.8438 590.9283 440.7914 590.1459 456.8865 598.3052 466.7223 603.3349 465.0458 608.0293 464.934 611.6059 466.4988 615.5179 465.7164Z" />
  <path class="Targovishte" d="M597.6345 208.978L597.9699 203.8365 597.411 199.0304 593.7226 197.242 589.3635 196.6832 586.5692 192.1006 585.5633 187.0708 589.587 185.9531 593.8343 182.8235 597.5228 178.9116 599.87 173.9936 600.7641 166.8403 605.7938 164.4931 609.5941 161.4752 613.2825 162.2576 616.971 161.587 620.9947 162.2576 624.2361 160.3575 631.2777 157.7868 638.431 160.0222 646.7021 165.0519 653.4084 172.0935 650.9494 179.9175 652.8495 181.5941 655.0849 182.8235 664.809 184.1648 673.1919 186.8473 672.2977 195.5655 673.4154 202.0482 683.6983 202.0482 687.6103 203.7248 691.5223 203.7248 697.3344 197.6891 700.9111 197.0185 704.2642 196.0125 704.9349 187.4062 708.288 187.4062 711.7529 188.4121 719.8004 190.0887 721.2535 197.9127 718.1239 200.0363 715.8884 203.3894 714.3237 208.5309 713.4295 213.6724 718.6827 223.8436 718.4592 233.3441 716.112 233.3441 713.7648 235.356 711.8647 241.0563 709.6293 245.4154 704.376 247.3155 701.0229 252.9041 702.6994 256.0337 705.7173 257.9338 704.376 261.0634 700.9111 261.9575 700.464 265.1989 699.1228 268.9991 696.2167 269.4462 694.0931 271.5699 696.3285 274.6994 696.6638 278.4997 692.64 279.3938 690.2928 281.741 687.6103 282.8587 682.4689 280.288 677.6627 276.9349 674.086 275.4818 670.5094 277.829 666.4856 278.7232 662.3501 278.4997 656.2026 274.3641 654.9732 276.4878 653.2966 277.7173 652.1789 275.2583 652.9613 272.5758 648.8257 270.6757 644.4667 272.6876 641.6724 272.7993 638.9899 272.2405 639.1017 275.3701 638.9899 278.835 637.8722 281.8528 635.1897 283.0823 632.8425 285.8766 630.7188 289.0062 626.5833 290.4592 622.2242 291.2416 616.4121 286.4354 609.7058 284.8706 608.9234 279.8409 612.3883 276.8231 612.6119 273.9171 610.3765 273.1347 608.3646 271.1228 607.5822 267.7696 605.7938 262.7399 603.6702 258.0455 604.0055 252.6805 606.2409 247.8744 606.1292 244.0741 607.2469 240.8328 609.5941 240.8328 611.8295 240.3857 609.9294 232.1146 604.6761 225.073 604.8997 220.1551 608.3646 216.3549 603.8937 211.3252 597.6345 208.978Z" />
  <path class="Varna" d="M900.1991 313.484L899.0814 313.5958 895.1694 315.1606 891.7045 318.2902 886.8983 319.2961 882.204 317.5078 877.6213 315.1606 873.374 312.031 869.9091 307.5602 865.9971 303.8717 861.8616 301.4128 857.5025 299.9597 851.3551 303.8717 837.1602 307.4484 829.1127 305.6601 821.624 301.1892 817.8238 300.7421 814.3589 299.5127 809.3292 291.3534 802.9582 285.0942 795.1342 282.5234 785.4101 288.112 776.0213 290.2356 771.8858 285.2059 769.4268 279.7292 773.2271 276.7113 782.9512 271.3463 790.6634 269.3344 789.7692 263.9694 782.3923 261.3987 786.8631 257.7102 783.1747 253.2394 785.8572 248.4332 791.1105 245.5272 791.2222 240.2739 785.8572 238.1503 781.6099 233.903 782.1688 228.4262 785.8572 225.6319 791.5575 225.073 797.0343 223.7318 797.3696 219.3727 797.3696 213.7842 801.8405 212.1076 805.8642 208.8662 803.6288 205.066 800.8345 201.154 800.611 195.5655 802.1758 191.3182 805.4172 187.6297 811.1175 179.1351 809.1056 176.1173 807.2055 174.3289 809.1056 171.6464 810.8939 166.6167 802.9582 163.9342 811.6763 156.222 824.7536 152.5336 831.1245 154.4337 836.0425 161.2517 837.0484 166.6167 841.0722 168.6286 842.8605 167.6227 844.09 166.2814 847.4431 165.8343 850.5727 164.2695 852.2493 160.0222 854.7083 159.0163 860.2968 167.1756 866.7795 173.2112 872.8152 174.4407 876.9507 178.1292 879.9685 183.7177 888.0161 193.5536 897.6284 198.5833 900.8697 197.3538 903.5523 194.336 908.3584 192.1006 913.4999 192.4359 917.9707 196.9067 921.2121 201.2658 927.0242 201.2658 932.7245 200.5952 933.1716 200.8187 924.1182 224.5142 921.8827 228.0909 919.0884 230.2145 908.0231 233.2323 906.123 234.5736 905.1171 234.9089 903.4405 234.9089 903.4405 236.4737 909.1408 240.6092 910.2585 242.3976 910.035 244.9683 906.9054 254.6924 904.67 265.4224 903.5523 267.5461 902.0992 268.9991 900.8697 270.5639 900.1991 273.0229 900.4227 277.9408 902.8816 288.112 903.4405 292.6946 902.5463 307.6719 903.4405 311.0251 900.1991 313.484Z" />
  <path class="Veliko Tarnovo" d="M510.3413 130.4029L511.5707 132.9736 514.4768 142.8095 511.0119 150.5217 507.4352 153.316 508.3294 158.1221 516.6004 164.4931 516.9358 167.2873 519.3947 167.6227 521.6301 165.1637 523.9773 166.6167 522.4125 172.8759 521.2948 178.9116 530.3483 187.965 539.6253 191.5417 541.749 187.4062 545.6609 187.4062 546.8904 189.9769 549.3494 189.9769 551.8084 192.6594 555.0497 195.6772 560.5265 197.242 566.1151 197.8009 570.3624 198.8068 574.6097 198.5833 579.1923 196.2361 583.8867 196.3479 584.6691 201.154 586.1221 206.4073 591.8224 208.5309 597.6345 208.978 603.8937 211.3252 608.3646 216.3549 604.8997 220.1551 604.6761 225.073 609.9294 232.1146 611.8295 240.3857 609.5941 240.8328 607.2469 240.8328 606.1292 244.0741 606.2409 247.8744 604.0055 252.6805 603.6702 258.0455 605.7938 262.7399 607.5822 267.7696 608.3646 271.1228 610.3765 273.1347 612.6119 273.9171 612.3883 276.8231 608.9234 279.8409 609.7058 284.8706 616.4121 286.4354 622.2242 291.2416 618.6475 299.848 611.6059 303.9835 607.6939 305.213 605.235 309.125 605.5703 315.4959 603.5584 320.4139 599.7582 320.4139 596.0697 321.1963 592.7166 324.9965 589.0282 327.679 578.4099 326.226 571.033 327.7908 563.6561 328.0143 560.1912 327.5672 556.8381 328.1261 553.7085 327.679 550.8024 326.673 544.8785 329.4673 541.8607 331.9263 539.4018 333.6029 536.4957 331.8145 532.6955 331.591 529.007 322.5375 532.4719 315.6077 533.8132 310.4662 533.925 304.6541 532.0249 301.301 528.7835 300.4068 521.8537 293.3652 525.5421 281.1822 522.8596 272.5758 512.912 270.8992 507.8823 269.3344 496.5934 269.7815 486.0869 268.552 481.8396 266.5402 479.6042 260.6163 477.3688 255.9219 455.3498 255.5866 451.1025 252.2334 448.3083 246.5331 444.7316 243.9624 443.7256 239.6033 450.879 232.0029 450.0966 217.5844 453.2262 216.9138 456.244 216.0196 458.9265 213.4488 461.9443 211.437 468.6506 204.9542 467.7564 196.5714 464.2915 189.418 462.9503 181.3705 455.9087 181.8176 454.1204 177.0114 459.2618 171.87 463.9562 165.8343 467.6447 158.0103 466.3034 155.8867 463.7327 155.4396 462.3914 148.5098 467.3094 142.4741 469.5448 133.4207 473.4568 129.844 477.8158 127.1615 478.3747 125.8202 478.8218 126.0438 484.4103 130.4029 490.3342 133.8678 497.4876 134.8737 501.176 133.8678 507.8823 130.8499 510.3413 130.4029Z" />
  <path class="Vidin" d="M115.789 91.5065L115.1184 99.554 113.7771 104.8073 109.7534 105.925 105.8414 105.7014 103.2706 108.831 105.6178 111.9606 108.971 112.743 112.1006 114.0843 113.1065 118.6669 114.8948 123.2495 113.1065 126.3791 105.2825 129.3969 99.5822 138.2268 97.235 150.2981 99.0233 153.6513 102.6 154.4337 103.4942 158.681 102.1529 162.4812 93.0994 165.2755 83.7107 166.3932 77.675 168.6286 74.4337 170.5287 74.5454 175.2231 70.1864 186.9591 62.5859 193.8889 61.6917 193.33 59.0092 192.1006 57.4444 191.9888 54.4266 192.1006 52.8618 191.5417 51.9677 190.5358 51.5206 190.0887 49.7322 186.2884 48.5028 184.9472 46.938 184.5001 43.473 184.7237 41.7965 184.2766 40.2317 183.1589 37.8845 180.0293 36.7668 178.9116 31.4018 176.3408 29.1663 174.2172 27.6015 169.9699 24.5837 159.2398 22.5718 155.2161 22.4601 154.0983 22.6836 152.9806 23.1307 151.8629 23.3542 151.3041 23.3542 150.7452 23.3542 150.1864 23.1307 149.6275 22.5718 148.8451 22.3483 147.9509 22.5718 147.1685 23.1307 146.3861 23.1307 146.2744 23.1307 146.1626 23.1307 146.0508 23.1307 145.9391 21.9012 143.1448 21.6777 138.0033 20.6717 134.9855 18.9952 133.4207 14.189 130.7382 12.1771 128.8381 10.6123 126.4909 9.3828 123.6966 8.3769 120.7905 7.5945 117.8845 7.5945 115.9844 8.1534 112.2959 8.0416 110.5076 3.7943 105.4779 1.6706 99.3305 2.5648 94.4125 4.5767 89.2711 6.1415 82.3413 6.4768 75.5232 6.9239 74.4055 8.6004 71.3877 8.9358 70.3817 9.3828 66.9168 9.4946 60.3223 9.8299 57.5281 11.8418 54.5102 15.4185 52.9454 20.56 52.0513 23.1307 51.716 26.7074 51.6042 28.4957 49.257 29.7252 46.0156 31.6253 43.1096 34.9784 41.9919 38.3316 42.2154 41.2376 41.6565 43.1377 38.1916 43.1377 36.1798 42.02 31.3736 41.9083 29.1382 42.2436 26.5674 43.9201 19.9729 43.5848 19.8612 43.3613 19.1905 43.1377 17.9611 43.3613 16.6198 43.6966 16.2845 46.3791 13.2667 48.8381 9.2429 50.2911 7.6781 57.2209 4.4367 92.0935 28.3558 98.0174 30.9265 105.3943 31.9325 108.6356 33.3855 112.3241 35.062 113.7771 41.9919 110.9828 48.9217 105.3943 52.0513 101.8176 52.6101 95.3349 54.7338 91.9817 55.1809 88.7404 57.3045 86.952 62.3342 83.04 79.3234 83.1518 84.3531 85.1637 88.7122 89.1875 92.2889 94.2172 93.4066 115.789 91.5065Z" />
  <path class="Vratsa" d="M266.0095 266.6519L262.9916 271.1228 259.1914 273.6935 256.3971 271.7934 253.8264 270.3404 237.7314 267.4343 231.6957 264.8636 227.2249 267.7696 223.6482 272.2405 219.6244 273.8053 215.2653 273.5817 212.8064 270.5639 210.2356 268.105 203.3058 273.9171 197.0466 277.829 193.6935 274.1406 191.2345 269.1109 187.4343 264.193 183.0752 260.1692 180.3927 258.2691 177.9338 255.8101 177.822 251.451 180.1692 249.5509 183.5223 249.4392 182.2928 246.5331 177.3749 243.8506 172.0099 243.6271 171.6746 237.7032 176.2572 233.903 180.5045 233.5677 182.5164 228.4262 172.5688 222.9494 160.3857 218.5903 161.8387 212.4429 165.7507 207.4132 169.1039 201.154 173.0158 195.5655 174.3571 186.9591 174.0218 178.3527 178.9397 171.0876 185.5342 167.2873 189.4462 169.7463 192.6876 169.9699 195.9289 169.7463 199.6174 165.3872 203.5294 162.3694 206.2119 164.1578 208.4473 162.1459 208.2238 159.3516 206.2119 158.2339 204.4235 156.5573 203.1941 154.3219 201.1822 153.6513 199.5056 152.4218 196.7113 149.6275 197.6055 146.3861 200.5116 144.2625 202.4117 141.3564 202.1881 138.5622 202.5234 135.8796 205.7648 128.5028 208.3355 120.4552 210.1239 100.8953 208.112 93.5184 210.571 93.8537 224.3188 90.8359 227.8955 91.5065 237.1725 96.9833 293.9523 111.29 295.5171 111.7371 324.354 110.284 323.0128 121.1259 316.3065 131.4088 307.253 135.9914 301.9998 135.4326 297.6407 139.3446 293.1699 144.7096 289.1461 148.5098 292.3875 155.3278 294.1758 163.4871 298.6466 170.4169 306.1353 171.87 309.1531 182.3765 309.2649 186.2884 308.0354 190.6475 306.6942 203.5012 298.982 207.525 293.2816 206.6308 287.8048 206.9661 284.6752 208.978 282.8869 211.3252 280.5397 210.2075 278.1925 209.6486 266.1212 214.343 263.327 220.9375 261.6504 225.4084 263.1034 228.4262 273.9452 232.7853 275.2865 241.3916 273.9452 250.3333 272.2686 255.2513 268.1331 255.2513 265.3388 252.7923 262.8799 254.4689 263.774 260.7281 266.0095 266.6519Z" />
  <path class="Yambol" d="M701.6935 347.2389L711.1941 348.692 717.3415 360.875 718.6827 367.0224 720.5828 372.611 722.7065 374.5111 723.936 377.4172 724.2713 380.2114 725.6125 382.3351 731.9835 390.2708 735.4484 392.2827 735.5602 396.7536 750.314 407.5954 751.6552 411.5074 753.4436 415.3076 758.138 416.9842 763.2794 416.9842 768.0856 420.1138 771.2152 426.2612 770.2092 433.0792 764.8442 436.2088 762.6088 440.009 762.6088 445.1505 763.1677 448.8389 761.4911 453.4216 759.9263 459.7925 762.2735 465.7164 765.6266 471.6403 764.3971 479.6878 764.5089 481.9232 764.5089 482.035 764.2854 482.035 760.3734 483.9351 756.7967 490.7531 753.6671 492.9886 751.4317 493.8827 749.9787 496.1182 748.6374 498.8007 746.7373 500.9243 745.396 501.2596 742.3782 500.8125 740.7017 501.5949 738.9133 503.2715 737.4603 503.2715 735.8955 502.7127 734.1072 502.7127 732.3188 503.8304 730.4187 505.5069 728.7421 506.96 727.4009 507.6306 725.6125 507.1835 722.5947 504.501 721.0299 503.7186 719.1298 504.2774 715.6649 507.8541 713.9883 509.0836 710.8587 509.4189 695.5461 506.8482 692.64 507.1835 690.0693 509.0836 685.3749 514.1133 684.1454 515.0075 683.1395 516.1252 682.4689 517.4664 682.8042 518.3606 684.7043 519.5901 685.2631 520.3725 685.1514 521.602 684.369 523.5021 684.2572 524.6198 684.1454 525.9611 684.0337 525.9611 680.5688 527.9729 676.4332 525.9611 672.2977 523.2785 669.0563 519.4783 669.2799 511.2073 665.3679 505.7305 659.7793 504.501 656.3144 509.1954 653.8554 513.1074 652.5142 509.6425 651.2847 502.8244 646.3668 499.136 631.5012 497.1241 617.5298 490.0825 617.6416 484.0469 615.4062 478.123 615.5179 465.7164 621.33 460.6867 623.6772 452.6392 622.5595 441.9091 630.8306 421.7903 627.9245 419.5549 622.7831 419.3314 621.7771 411.2838 627.5892 410.8367 632.3954 407.4836 630.7188 400.6656 634.1837 398.5419 642.343 401.5597 649.9435 399.1008 653.2966 390.3826 656.0909 387.8119 659.1087 386.1353 657.4321 383.2293 655.7556 379.6526 660.0029 376.6348 664.6972 375.5171 674.086 376.2994 683.4748 373.3934 685.9338 370.152 688.5045 367.6931 690.7399 366.1283 692.3047 364.0046 696.6638 364.787 698.7875 363.5575 700.464 361.0986 702.1406 354.5041 701.6935 347.2389Z" />
</svg>