<?xml version="1.0" encoding="utf-8"?>
<svg xmlns="http://www.w3.org/2000/svg" viewBox="0 0 907 1024" style="stroke-width:0.25px;stroke-linejoin:round;stroke:#444;fill:#ddd" fill-rule="evenodd">
  <path class="Ajlun" d="M143.7351 297.2876L144.6293 294.8286 144.8528 293.3756 144.2939 291.2519 141.3879 284.5457 140.1584 280.6337 139.8231 276.8334 142.9527 261.5208 144.4057 257.7206 146.4176 255.1498 149.4354 253.8086 153.0121 253.585 158.2653 253.9204 163.295 252.4673 169.5542 249.0024 173.0191 248.3318 179.0548 248.6671 182.4079 248.22 184.8669 246.6552 186.3199 244.6433 187.7729 243.6374 189.226 244.308 190.1201 247.5494 191.1261 249.5613 195.2616 252.8026 199.7325 259.1736 195.2616 261.6326 193.0262 262.5267 189.7848 264.7622 186.5435 268.0035 183.0785 273.5921 181.6255 277.6158 180.9549 281.0807 181.1784 283.3162 180.7314 285.5516 178.8312 287.6752 164.6363 294.158 156.0299 303.9938 150.5531 302.8761 147.0882 301.4231 143.7351 297.2876Z" />
  <path class="Amman" d="M181.6255 487.1868L183.8609 485.0631 185.0904 484.0572 186.6552 482.3806 187.5494 480.8158 191.1261 469.8623 192.4673 467.1798 195.3734 463.0442 196.044 461.4794 195.5969 460.0264 194.0321 458.3498 192.8026 456.8968 192.5791 454.8849 193.2497 453.2084 193.4733 450.8612 192.132 447.7316 183.1903 438.0075 181.6255 434.2073 180.0607 427.9481 179.7254 425.4891 179.949 423.3655 180.9549 421.5771 184.5316 417.218 185.7611 414.9826 186.2081 412.7472 185.7611 395.0873 184.308 393.6343 182.855 393.4108 180.2843 394.5285 177.1547 395.3109 166.6482 395.3109 158.8242 397.3228 159.1595 392.9637 159.7184 390.393 162.2891 382.9043 161.9538 380.8924 160.7243 379.5512 156.0299 378.7688 153.2356 377.9864 151.0002 376.8686 149.5472 375.0803 149.1001 372.8449 150.5531 370.1624 153.6827 367.3681 165.754 361.1089 171.0073 357.4205 180.2843 346.2433 183.4139 343.6726 191.3496 341.3254 194.591 339.4253 201.0737 333.0543 207.1094 331.0425 211.9155 337.3017 216.9452 341.996 223.875 350.4906 227.8988 353.3967 230.6931 354.2909 234.7168 351.9437 237.2876 351.3848 240.6407 351.1613 250.8119 347.8081 264.2244 347.9199 268.4717 347.1375 271.1542 345.4609 275.0662 340.6548 277.5252 338.5311 281.996 337.5252 303.9032 339.4253 308.2623 341.4372 312.6213 345.0139 324.3573 357.9793 330.2812 365.8033 330.7283 369.7153 328.8282 372.6213 322.9043 376.3098 318.3217 380.11 316.7569 382.3454 316.4216 384.5809 317.7628 387.2634 323.3514 393.7461 332.6284 402.3525 341.6818 408.6117 346.488 410.4 350.4 410.2882 360.2359 404.2526 363.8125 403.2466 367.6128 404.1408 425.7338 463.7149 426.4044 464.0502 426.5162 464.1619 418.5804 466.5091 445.5173 495.905 472.5659 525.3008 473.013 525.7479 250.9237 525.4125 187.9965 523.9595 185.9846 522.0594 185.2022 519.1534 185.7611 514.459 186.5435 510.9941 188.22 506.1879 188.5553 503.9525 187.9965 500.8229 186.6552 496.1285 181.6255 487.1868Z" />
  <path class="Aqaba" d="M66.5012 653.5023L69.6308 655.8495 83.8257 666.0207 87.0671 667.6972 89.7496 670.1562 92.2086 674.5153 94.7793 677.8684 97.6854 679.3215 100.0326 680.1039 104.8387 680.3274 103.6092 695.4165 99.3619 714.5294 90.0849 743.8134 90.532 770.862 88.8554 777.9036 76.7842 801.9344 74.3252 813.8939 73.8781 820.1531 74.884 824.624 75.89 826.9712 77.5666 829.7655 79.4667 832.2244 81.9256 834.6834 84.8317 836.36 88.1848 837.4777 91.538 837.5894 94.6675 837.1424 97.3501 836.2482 100.0326 835.6893 105.2858 835.4658 111.545 836.6953 115.3452 838.1483 119.4807 840.4955 123.5045 843.9604 127.193 847.9842 130.3226 852.7903 141.1644 877.6035 154.6887 932.5949 164.9716 1008.0405 165.4187 1010.0524 165.4187 1010.1641 140.9408 1005.8051 110.092 1000.5518 81.255 995.5221 48.9531 989.9336 24.2517 985.5745 1.2268 981.5507 4.0211 979.6506 5.3624 957.967 6.8154 951.7078 11.2862 941.9837 11.1745 938.1835 6.8154 933.8244 4.0211 933.8244 3.7976 933.042 3.7976 932.3714 3.574 932.0361 2.5681 932.1479 3.4623 925.6651 4.9153 920.4119 7.7096 915.941 9.7215 909.9054 10.7274 896.4928 12.2922 890.569 21.9045 864.4145 22.7987 859.6084 23.0222 844.9663 24.587 836.9188 25.3694 834.7952 26.3754 833.0068 27.1578 830.8832 27.2695 827.9771 29.7285 818.4766 38.5584 805.1758 41.9116 797.1283 41.9116 789.5278 37.6642 774.774 37.776 767.956 39.229 763.8205 41.2409 751.3021 42.4704 748.2843 43.8117 745.8253 44.9294 743.2546 45.4882 739.9014 44.8176 736.4365 41.9116 731.6304 40.7938 729.0596 40.7938 723.3593 44.4823 713.5234 45.4882 707.8231 54.4299 678.3155 66.5012 653.5023Z" />
  <path class="Balqa" d="M116.1276 419.1182L121.2691 407.0469 127.8636 399.67 123.5045 386.481 123.5045 384.6926 125.7399 381.563 120.7102 362.0031 121.2691 360.103 122.6103 359.3206 123.9516 358.8735 124.9575 357.7558 125.0693 355.8557 123.8398 353.1732 123.5045 351.0495 123.3927 347.8081 122.9457 345.1256 120.7102 339.4253 120.2631 328.1364 121.4926 323.8891 124.9575 320.9831 122.7221 317.9652 122.8339 315.171 126.4106 309.1353 125.2928 307.5705 125.2928 306.2293 126.187 305.1116 127.8636 304.3292 127.8636 302.429 126.9694 299.523 127.9754 295.611 129.3166 295.4992 143.7351 297.2876 147.0882 301.4231 150.5531 302.8761 156.0299 303.9938 156.2535 306.1175 158.3771 306.8999 161.1714 307.1234 179.2783 306.6763 183.3021 307.4587 186.2081 308.6882 188.5553 311.0354 190.1201 313.1591 197.7206 318.8594 198.9501 325.1186 199.956 326.4598 201.6326 328.0246 203.0856 328.6953 207.1094 331.0425 201.0737 333.0543 194.591 339.4253 191.3496 341.3254 183.4139 343.6726 180.2843 346.2433 171.0073 357.4205 165.754 361.1089 153.6827 367.3681 150.5531 370.1624 149.1001 372.8449 149.5472 375.0803 151.0002 376.8686 153.2356 377.9864 156.0299 378.7688 160.7243 379.5512 161.9538 380.8924 162.2891 382.9043 159.7184 390.393 159.1595 392.9637 158.8242 397.3228 156.1417 398.9993 150.5531 399.4464 147.9824 400.2288 145.5234 401.9054 144.2939 403.582 141.835 410.1765 138.3701 416.3239 135.7993 418.8946 132.8933 420.2359 118.5866 419.4535 116.1276 419.1182Z" />
  <path class="Irbid" d="M236.3934 215.5828L238.9641 235.7017 237.5111 242.0726 235.9463 242.6315 234.158 242.2961 230.3578 239.2783 228.0106 238.4959 225.4398 238.8312 222.5338 241.2902 221.7514 243.3021 222.0867 245.314 223.0926 247.3259 224.2103 249.7848 224.881 253.3615 224.5457 255.2616 222.9809 257.3853 216.051 257.1617 209.5683 255.2616 206.8858 256.1558 199.7325 259.1736 195.2616 252.8026 191.1261 249.5613 190.1201 247.5494 189.226 244.308 187.7729 243.6374 186.3199 244.6433 184.8669 246.6552 182.4079 248.22 179.0548 248.6671 173.0191 248.3318 169.5542 249.0024 163.295 252.4673 158.2653 253.9204 153.0121 253.585 149.4354 253.8086 146.4176 255.1498 144.4057 257.7206 142.9527 261.5208 139.8231 276.8334 140.1584 280.6337 141.3879 284.5457 144.2939 291.2519 144.8528 293.3756 144.6293 294.8286 143.7351 297.2876 129.3166 295.4992 127.9754 295.611 130.6579 284.0986 127.8636 284.0986 128.1989 282.6455 128.7578 281.7514 129.6519 281.0807 130.6579 280.5219 128.9813 277.6158 128.1989 273.0332 128.3107 268.3388 129.2048 265.4328 127.3047 261.7443 127.5283 254.4792 126.4106 252.0202 126.4106 250.3437 127.8636 250.3437 127.8636 252.0202 129.2048 252.0202 128.8695 249.7848 128.1989 247.8847 127.4165 246.4317 126.4106 245.314 125.8517 244.5316 124.9575 241.8491 126.9694 241.402 127.8636 240.7314 127.64 239.7254 126.4106 238.3842 126.4106 236.9311 127.8636 236.9311 127.5283 235.8134 127.193 235.5899 126.8576 235.7017 126.4106 235.2546 129.2048 233.3545 127.8636 231.6779 129.3166 231.119 130.6579 230.2249 130.6579 228.3248 129.6519 228.213 129.0931 227.8777 128.646 227.4306 127.8636 226.8717 128.3107 225.1952 129.0931 223.5186 130.3226 222.1773 132.2227 221.6185 132.2227 220.0537 130.2108 218.0418 129.7637 217.0359 128.3107 214.8004 127.4165 214.8004 126.4106 214.9122 126.4106 213.2356 129.2048 213.2356 128.646 211.6708 127.8636 206.5294 129.2048 208.2059 130.099 205.5234 130.6579 204.6293 130.8814 205.6352 130.9932 206.1941 131.3285 205.9705 132.2227 204.6293 130.9932 201.6114 130.3226 195.2405 129.2048 193.1168 129.2048 191.2167 130.6579 191.2167 130.6579 189.6519 128.8695 188.646 128.0871 186.8576 128.0871 184.8458 128.646 184.0634 130.099 183.3927 131.8873 181.7162 135.0169 177.5806 138.8172 174.7864 138.9289 174.7864 143.8469 175.457 147.0882 173.6686 154.018 167.5212 165.4187 160.2561 168.9954 159.3619 170.3366 158.6913 171.5661 158.4678 172.6838 158.5795 173.4662 159.2502 173.4662 159.3619 175.3663 161.8209 197.7206 166.9624 199.7325 168.1919 203.3091 171.7685 204.3151 172.1039 206.9976 172.1039 207.78 172.5509 208.1153 174.2275 207.78 175.7923 207.1094 176.7982 206.4387 176.6865 208.2271 179.0337 210.1272 180.822 212.2508 181.4926 215.2686 180.9338 220.0748 181.3809 221.0807 184.1751 220.4101 188.3107 220.6337 193.0051 222.5338 197.1406 231.9226 211.3355 233.0403 214.2416 233.152 215.2475 233.8227 215.4711 236.3934 215.5828Z" />
  <path class="Jarash" d="M199.7325 259.1736L206.8858 256.1558 209.5683 255.2616 216.051 257.1617 222.9809 257.3853 219.963 263.4209 210.5743 274.1509 208.5624 277.9512 208.4506 280.4101 209.4565 282.0867 211.1331 283.2044 212.5861 284.4339 215.2686 289.0165 217.3923 294.0462 216.7217 299.2994 215.7157 301.4231 213.9274 303.2114 211.2449 304.5527 207.8917 306.4528 205.5446 308.3529 197.7206 318.8594 190.1201 313.1591 188.5553 311.0354 186.2081 308.6882 183.3021 307.4587 179.2783 306.6763 161.1714 307.1234 158.3771 306.8999 156.2535 306.1175 156.0299 303.9938 164.6363 294.158 178.8312 287.6752 180.7314 285.5516 181.1784 283.3162 180.9549 281.0807 181.6255 277.6158 183.0785 273.5921 186.5435 268.0035 189.7848 264.7622 193.0262 262.5267 195.2616 261.6326 199.7325 259.1736Z" />
  <path class="Karak" d="M83.8257 604.4348L89.4143 599.0697 91.7615 594.5989 91.7615 586.9985 93.1028 579.9569 102.8268 560.6205 103.8328 553.6906 102.3798 547.0961 99.2502 541.0605 97.0147 536.1426 95.0029 529.8834 93.8851 523.2889 96.5677 517.365 99.4737 512.2235 99.809 506.9703 98.2442 505.2937 102.0444 498.2521 105.7329 488.4163 106.6271 482.9395 106.6271 480.4805 111.0979 479.3628 126.8576 479.9217 147.6471 486.9633 151.5591 487.7457 154.4651 487.7457 160.8361 485.7338 167.8777 484.9514 172.3485 485.0631 181.6255 487.1868 186.6552 496.1285 187.9965 500.8229 188.5553 503.9525 188.22 506.1879 186.5435 510.9941 185.7611 514.459 185.2022 519.1534 185.9846 522.0594 187.9965 523.9595 250.9237 525.4125 254.3886 549.2198 259.1947 562.7441 248.5765 596.6108 224.3221 642.1017 215.3804 633.16 206.6623 626.5655 204.9857 624.7771 202.862 621.0887 201.1855 619.3003 199.0618 617.9591 191.4614 614.4942 188.8906 612.5941 186.9905 610.8057 186.0964 609.0174 185.5375 607.5644 184.0845 606.3349 150.8884 593.0341 133.1168 592.1399 130.2108 591.0222 127.3047 589.1221 124.9575 586.9985 122.6103 586.3278 119.9278 586.1043 116.2394 586.6631 113.6686 586.5514 111.6568 587.222 110.4273 589.1221 109.5331 594.04 107.4095 600.2992 106.0682 610.1351 104.727 612.4823 102.3798 613.9353 98.6913 613.6 95.7853 612.8176 85.3905 605.5525 83.8257 604.4348Z" />
  <path class="Ma`an" d="M224.3221 642.1017L248.5765 596.6108 259.1947 562.7441 254.3886 549.2198 250.9237 525.4125 473.013 525.7479 499.6145 554.6966 526.5514 583.9806 527.222 584.763 527.8926 585.5454 528.5633 586.3278 529.2339 587.1102 551.9234 614.0471 574.7248 640.8722 597.5261 667.6972 620.3274 694.5223 630.6103 706.5936 630.6103 706.8172 630.6103 706.9289 630.3868 706.9289 629.0455 707.8231 613.8447 716.3177 588.6961 730.5127 566.1184 743.2546 561.3122 747.2783 558.6297 751.5256 552.5941 766.503 545.1054 784.7217 538.2873 801.3756 529.0103 823.9534 524.5395 827.9771 500.0616 833.0068 472.3424 838.8189 442.723 845.0781 412.7683 851.3373 394.3261 855.1375 376.3309 858.826 370.6306 861.732 365.7127 867.097 354.2002 886.657 344.6997 902.8638 331.7342 924.8827 318.4334 947.4605 302.3384 960.7613 278.3076 980.7683 256.2887 998.987 233.8227 1017.6528 228.4576 1019.7765 222.7573 1020 201.1855 1016.3116 177.2664 1012.176 165.4187 1010.1641 165.4187 1010.0524 164.9716 1008.0405 154.6887 932.5949 141.1644 877.6035 130.3226 852.7903 127.193 847.9842 123.5045 843.9604 119.4807 840.4955 115.3452 838.1483 111.545 836.6953 105.2858 835.4658 100.0326 835.6893 97.3501 836.2482 94.6675 837.1424 91.538 837.5894 88.1848 837.4777 84.8317 836.36 81.9256 834.6834 79.4667 832.2244 77.5666 829.7655 75.89 826.9712 74.884 824.624 73.8781 820.1531 74.3252 813.8939 76.7842 801.9344 88.8554 777.9036 90.532 770.862 90.0849 743.8134 99.3619 714.5294 103.6092 695.4165 104.8387 680.3274 113.1098 680.3274 121.6044 681.6686 142.1703 680.998 149.3237 681.5569 168.6601 678.9861 183.4139 675.4095 186.3199 673.6211 188.3318 671.4975 190.9025 669.7091 193.138 669.262 195.3734 669.4856 200.9619 671.6092 208.5624 668.815 224.3221 642.1017Z" />
  <path class="Madaba" d="M106.6271 480.4805L106.9624 466.3974 106.8506 466.2856 106.9624 466.3974 107.0741 466.2856 107.0741 466.062 106.9624 465.7267 108.1919 447.6198 111.4332 429.96 116.1276 419.1182 118.5866 419.4535 132.8933 420.2359 135.7993 418.8946 138.3701 416.3239 141.835 410.1765 144.2939 403.582 145.5234 401.9054 147.9824 400.2288 150.5531 399.4464 156.1417 398.9993 158.8242 397.3228 166.6482 395.3109 177.1547 395.3109 180.2843 394.5285 182.855 393.4108 184.308 393.6343 185.7611 395.0873 186.2081 412.7472 185.7611 414.9826 184.5316 417.218 180.9549 421.5771 179.949 423.3655 179.7254 425.4891 180.0607 427.9481 181.6255 434.2073 183.1903 438.0075 192.132 447.7316 193.4733 450.8612 193.2497 453.2084 192.5791 454.8849 192.8026 456.8968 194.0321 458.3498 195.5969 460.0264 196.044 461.4794 195.3734 463.0442 192.4673 467.1798 191.1261 469.8623 187.5494 480.8158 186.6552 482.3806 185.0904 484.0572 183.8609 485.0631 181.6255 487.1868 172.3485 485.0631 167.8777 484.9514 160.8361 485.7338 154.4651 487.7457 151.5591 487.7457 147.6471 486.9633 126.8576 479.9217 111.0979 479.3628 106.6271 480.4805Z" />
  <path class="Mafraq" d="M222.9809 257.3853L224.5457 255.2616 224.881 253.3615 224.2103 249.7848 223.0926 247.3259 222.0867 245.314 221.7514 243.3021 222.5338 241.2902 225.4398 238.8312 228.0106 238.4959 230.3578 239.2783 234.158 242.2961 235.9463 242.6315 237.5111 242.0726 238.9641 235.7017 236.3934 215.5828 239.2994 215.6946 247.0117 214.5769 248.3529 214.6887 250.4766 215.5828 251.7061 215.8064 252.712 215.3593 255.0592 213.1239 256.1769 212.7886 258.4123 214.018 265.2304 220.8361 278.5311 230.1131 296.8616 247.4376 299.8794 249.226 304.015 250.4554 315.6392 251.6849 318.9923 253.8086 326.5927 254.7028 354.9826 258.1677 362.4713 263.868 366.1597 261.7443 370.6306 261.8561 383.9314 265.4328 386.8374 265.5446 389.4081 264.6504 422.8277 241.7373 454.5707 220.9479 454.6825 220.9479 477.5956 206.1941 513.1388 183.281 529.5692 172.7745 548.6821 160.4796 584.3371 137.5666 619.8803 114.6535 646.2583 97.5525 682.4722 74.7512 700.0202 63.6858 744.5052 35.6312 795.3611 4 804.9734 39.4315 813.5798 71.1745 820.7331 97.5525 830.2337 132.6486 840.0695 168.8625 853.9292 220.389 837.9459 225.4187 837.7223 225.5305 837.6106 225.754 837.7223 225.9776 837.9459 226.4246 848.1171 261.7443 849.6818 265.4328 851.6937 266.6623 891.0372 255.7087 895.2845 258.2794 898.4141 265.7681 902.7732 282.3102 897.4081 290.1342 872.4832 311.4825 872.4832 313.3826 870.3595 314.0532 866.3358 317.0711 841.7461 340.543 834.481 343.6726 810.8972 350.4906 764.2887 364.1267 717.5683 377.651 670.9597 391.1754 631.7281 402.576 624.2394 404.6997 585.0077 416.5474 584.8959 416.4356 584.5606 416.3239 326.9281 326.7952 319.5512 322.4361 312.9567 316.2887 309.38 314.2768 298.0911 313.1591 294.2909 313.4944 291.6084 314.7239 289.3729 316.4004 286.8022 317.6299 283.6726 317.7417 280.4312 316.7358 276.7428 314.0532 268.4717 309.9177 259.9771 309.1353 257.4064 309.4706 255.2827 310.0295 250.9237 311.7061 248.1294 312.0414 244.888 311.1472 239.8583 307.2352 237.2876 305.6704 235.1639 305.3351 232.3696 308.2411 230.246 309.3589 227.787 309.9177 225.5516 309.4706 223.4279 308.0176 222.422 306.341 222.3102 303.9938 222.8691 302.2055 223.7633 300.7525 224.0986 299.0759 223.4279 297.3993 221.6396 295.4992 217.3923 294.0462 215.2686 289.0165 212.5861 284.4339 211.1331 283.2044 209.4565 282.0867 208.4506 280.4101 208.5624 277.9512 210.5743 274.1509 219.963 263.4209 222.9809 257.3853Z" />
  <path class="Tafilah" d="M66.5012 653.5023L68.1778 647.6902 69.0719 641.6546 69.8543 638.8603 71.1956 635.9542 72.7604 634.0541 76.3371 630.9245 77.4548 628.5773 78.2372 623.2123 78.1254 617.8473 78.6843 612.3705 81.255 606.8937 83.8257 604.4348 85.3905 605.5525 95.7853 612.8176 98.6913 613.6 102.3798 613.9353 104.727 612.4823 106.0682 610.1351 107.4095 600.2992 109.5331 594.04 110.4273 589.1221 111.6568 587.222 113.6686 586.5514 116.2394 586.6631 119.9278 586.1043 122.6103 586.3278 124.9575 586.9985 127.3047 589.1221 130.2108 591.0222 133.1168 592.1399 150.8884 593.0341 184.0845 606.3349 185.5375 607.5644 186.0964 609.0174 186.9905 610.8057 188.8906 612.5941 191.4614 614.4942 199.0618 617.9591 201.1855 619.3003 202.862 621.0887 204.9857 624.7771 206.6623 626.5655 215.3804 633.16 224.3221 642.1017 208.5624 668.815 200.9619 671.6092 195.3734 669.4856 193.138 669.262 190.9025 669.7091 188.3318 671.4975 186.3199 673.6211 183.4139 675.4095 168.6601 678.9861 149.3237 681.5569 142.1703 680.998 121.6044 681.6686 113.1098 680.3274 104.8387 680.3274 100.0326 680.1039 97.6854 679.3215 94.7793 677.8684 92.2086 674.5153 89.7496 670.1562 87.0671 667.6972 83.8257 666.0207 69.6308 655.8495 66.5012 653.5023Z" />
  <path class="Zarqa" d="M207.1094 331.0425L203.0856 328.6953 201.6326 328.0246 199.956 326.4598 198.9501 325.1186 197.7206 318.8594 205.5446 308.3529 207.8917 306.4528 211.2449 304.5527 213.9274 303.2114 215.7157 301.4231 216.7217 299.2994 217.3923 294.0462 221.6396 295.4992 223.4279 297.3993 224.0986 299.0759 223.7633 300.7525 222.8691 302.2055 222.3102 303.9938 222.422 306.341 223.4279 308.0176 225.5516 309.4706 227.787 309.9177 230.246 309.3589 232.3696 308.2411 235.1639 305.3351 237.2876 305.6704 239.8583 307.2352 244.888 311.1472 248.1294 312.0414 250.9237 311.7061 255.2827 310.0295 257.4064 309.4706 259.9771 309.1353 268.4717 309.9177 276.7428 314.0532 280.4312 316.7358 283.6726 317.7417 286.8022 317.6299 289.3729 316.4004 291.6084 314.7239 294.2909 313.4944 298.0911 313.1591 309.38 314.2768 312.9567 316.2887 319.5512 322.4361 326.9281 326.7952 584.5606 416.3239 584.8959 416.4356 585.0077 416.5474 572.8246 420.2359 521.4099 435.6603 469.9952 451.0847 426.5162 464.1619 426.4044 464.0502 425.7338 463.7149 367.6128 404.1408 363.8125 403.2466 360.2359 404.2526 350.4 410.2882 346.488 410.4 341.6818 408.6117 332.6284 402.3525 323.3514 393.7461 317.7628 387.2634 316.4216 384.5809 316.7569 382.3454 318.3217 380.11 322.9043 376.3098 328.8282 372.6213 330.7283 369.7153 330.2812 365.8033 324.3573 357.9793 312.6213 345.0139 308.2623 341.4372 303.9032 339.4253 281.996 337.5252 277.5252 338.5311 275.0662 340.6548 271.1542 345.4609 268.4717 347.1375 264.2244 347.9199 250.8119 347.8081 240.6407 351.1613 237.2876 351.3848 234.7168 351.9437 230.6931 354.2909 227.8988 353.3967 223.875 350.4906 216.9452 341.996 211.9155 337.3017 207.1094 331.0425Z" />
</svg>