<?xml version="1.0" encoding="utf-8"?>
<svg xmlns="http://www.w3.org/2000/svg" viewBox="0 0 712 1024" style="stroke-width:0.25px;stroke-linejoin:round;stroke:#444;fill:#ddd" fill-rule="evenodd">
  <path class="Aimeliik" d="M660.5295 128.1778L667.4593 128.066 671.3713 129.9661 672.8243 133.8781 675.9539 135.6664 673.3832 139.5784 668.9123 142.5963 665.1121 141.255 664.2179 137.2312 662.8767 134.437 661.3119 133.2075 660.1942 133.3193 659.6353 132.9839 659.9706 130.4132 660.5295 128.1778Z" />
  <path class="Airai" d="M665.1121 141.255L668.9123 142.5963 673.3832 139.5784 675.9539 135.6664 681.5425 137.9019 682.8837 145.2788 681.8778 147.9613 680.9836 148.6319 680.0894 148.2966 677.7422 148.073 675.9539 146.9553 674.7244 146.7318 673.7185 147.5142 671.7066 150.1967 670.5889 150.7556 668.4652 150.4202 667.6828 149.7496 667.3475 148.5201 665.671 143.714 665.1121 141.255Z" />
  <path class="Angaur" d="M596.1493 244.0845L593.355 241.1784 591.6784 237.2664 592.2373 234.2486 596.2611 234.1369 598.8318 236.037 599.726 239.1666 598.8318 242.2961 596.1493 244.0845Z" />
  <path class="Hatobohei" d="M3.5385 1000.7754L7.227 998.4282 11.586 998.2046 13.2626 1000.44 11.0272 1003.4579 7.1152 1005.5815 2.7561 1006.2521 1.3031 1004.2403 3.5385 1000.7754ZM131.0694 1014.4114L133.9755 1015.0821 135.205 1017.7646 131.74 1020 128.4987 1019.3294 127.8281 1017.0939 129.7282 1015.0821 131.0694 1014.4114Z" />
  <path class="Kayangel" d="M704.232 4L706.691 4 707.6969 6.6825 705.9086 11.4887 702.5554 13.1652 700.8789 11.0416 700.8789 8.1355 704.232 4Z" />
  <path class="Koror" d="M655.9469 162.9386L653.0408 163.8328 653.3761 165.5094 654.9409 167.4095 655.9469 169.086 654.8292 170.4273 652.482 170.9861 648.4582 171.0979 646.6699 172.1039 641.9755 176.7982 639.0694 177.8042 636.4987 177.3571 634.5986 176.1276 633.3691 174.1157 633.0338 171.7685 633.1455 168.1919 633.7044 167.5212 639.9636 174.1157 641.1931 173.8922 643.7638 172.4392 650.5818 166.18 652.0349 164.2799 652.1466 162.0444 651.476 159.809 651.476 158.5795 653.0408 158.9149 654.1585 159.5855 654.9409 160.3679 655.6116 161.3738 655.9469 162.9386ZM657.3999 149.4143L660.753 150.4202 665.3356 152.4321 668.3535 155.5617 667.3475 159.5855 665.3356 160.1443 663.6591 158.0207 662.3178 155.1146 661.3119 153.4381 658.6294 152.5439 656.7293 153.2145 653.0408 156.2323 652.7055 153.3263 653.1526 150.8673 654.4938 149.4143 657.3999 149.4143Z" />
  <path class="Melekeok" d="M681.6542 119.7949L684.225 113.8711 687.6899 116.2183 687.5781 117.4477 689.7018 120.3538 689.7018 121.5833 688.8076 122.4774 688.2487 124.3776 686.3486 123.8187 684.5603 124.6011 683.6661 122.5892 681.6542 119.7949Z" />
  <path class="Ngaraard" d="M694.0608 104.147L687.3546 102.3586 687.131 97.3289 689.59 96.5465 690.7077 93.3052 689.59 85.7047 694.5079 85.3694 695.0668 94.7582 694.0608 104.147Z" />
  <path class="Ngarchelong" d="M694.5079 85.3694L689.59 85.7047 689.1429 82.9105 687.3546 78.9985 686.9075 76.763 687.5781 75.8689 689.3664 76.2042 691.1548 77.3219 692.1607 78.7749 694.5079 85.3694Z" />
  <path class="Ngardmau" d="M686.5722 107.7237L684.8956 107.6119 682.3249 104.3705 679.7541 107.1648 672.2655 106.2706 672.1537 106.0471 674.1656 102.1351 676.6245 99.6761 679.9777 98.3349 684.8956 97.9996 687.131 97.3289 687.3546 102.3586 686.5722 107.7237Z" />
  <path class="Ngatpang" d="M668.577 119.0125L671.7066 117.5595 678.86 127.3954 675.9539 135.6664 672.8243 133.8781 671.3713 129.9661 667.4593 128.066 660.5295 128.1778 661.759 126.1659 663.3238 124.4893 665.3356 123.4834 666.0063 126.0541 667.7946 126.3894 669.6947 125.0482 670.5889 122.2539 670.1418 120.6891 668.577 119.0125Z" />
  <path class="Ngchesar" d="M678.86 127.3954L681.6542 119.7949 683.6661 122.5892 684.5603 124.6011 686.3486 123.8187 688.2487 124.3776 687.131 127.6189 682.5484 133.6546 681.5425 137.9019 675.9539 135.6664 678.86 127.3954Z" />
  <path class="Ngeremlengui" d="M668.577 119.0125L665.3356 116.7771 666.7887 115.3241 669.4712 111.6356 671.8184 109.9591 672.1537 110.0708 672.2655 108.9531 672.2655 106.2706 679.7541 107.1648 682.3249 104.3705 684.8956 107.6119 686.5722 107.7237 684.225 113.8711 681.6542 119.7949 678.86 127.3954 671.7066 117.5595 668.577 119.0125Z" />
  <path class="Ngiwal" d="M684.225 113.8711L686.5722 107.7237 687.3546 102.3586 694.0608 104.147 691.6019 110.8532 687.6899 116.2183 684.225 113.8711Z" />
  <path class="Peleliu" d="M618.1682 206.4176L619.6212 206.8647 620.4036 207.6471 620.6272 208.8766 620.7389 210.4414 619.9565 211.4473 618.1682 214.5769 619.8448 217.1476 619.0624 217.93 617.1623 217.93 615.4857 218.6007 612.5796 222.6244 610.7913 224.301 610.1207 223.4068 611.1266 219.4948 618.1682 206.4176Z" />
  <path class="Sonsorol" d="M215.2331 558.6086L214.0036 555.7025 215.2331 555.0319 216.5744 556.2614 215.2331 558.6086Z" />
</svg>