<?xml version="1.0" encoding="utf-8"?>
<svg xmlns="http://www.w3.org/2000/svg" viewBox="0 0 455 1024" style="stroke-width:0.25px;stroke-linejoin:round;stroke:#444;fill:#ddd" fill-rule="evenodd">
  <path class="Miquelon-Langlade" d="M220.4114 647.6902L288.8154 708.9408 264.2257 786.6218 192.804 860.9496 91.0922 939.6365 69.185 947.1252 47.5014 932.8185 34.536 899.3989 39.5657 878.7212 39.5657 860.5025 10.9523 834.1245 1.6752 801.9344 31.0711 762.4792 97.3514 699.6638 123.1705 596.7226 107.9696 494.0048 21.9058 280.969 16.2055 238.4959 10.9523 144.1611 1.2282 101.7998 2.4576 76.5395 17.0997 45.5789 35.4301 22.3305 55.3254 6.6825 76.1149 4 97.3514 18.642 64.1553 44.1259 45.6013 69.8332 46.6073 96.7701 71.8675 126.1659 101.7105 140.9197 165.0847 156.3441 256.9606 233.578 259.8667 259.2854 258.749 295.1639 252.1545 327.1305 228.3472 352.1672 220.4114 376.6451 208.7872 401.2348 188.2213 412.4119 177.9384 406.9351 173.1322 394.5285 170.1144 382.1219 164.4141 376.6451 151.8957 378.5452 120.5998 394.5285 95.8983 384.9162 84.0506 388.3811 84.0506 412.4119 91.8746 426.8304 102.7164 429.0658 113.2229 427.7245 127.4178 435.8838 137.8125 436.1074 149.2132 438.0075 158.3784 448.1787 161.6198 465.8385 156.3666 478.5804 148.8779 487.6339 145.0777 495.1226 145.0777 602.4229 152.6781 635.5072 171.5674 645.4548 220.4114 647.6902Z" />
  <path class="Saint-Pierre" d="M439.8183 913.4821L429.8706 924.8827 422.1584 937.6246 416.7934 951.9314 414.3344 968.4735 441.0477 983.1155 450.7718 986.3569 409.193 1008.264 359.6783 1020 313.0697 1015.1938 280.209 986.3569 318.4348 927.4535 338.7771 902.5285 366.7199 879.6154 387.5094 871.9032 421.1525 866.6499 445.8539 876.374 439.8183 913.4821Z" />
</svg>