<?xml version="1.0" encoding="utf-8"?>
<svg xmlns="http://www.w3.org/2000/svg" viewBox="0 0 853 1024" style="stroke-width:0.25px;stroke-linejoin:round;stroke:#444;fill:#ddd" fill-rule="evenodd">
  <path class="Aiwo" d="M1.0519 573.2506L164.3496 562.7441 152.7254 644.0018 181.7859 742.6957 83.7626 773.8799 1.0519 573.2506Z" />
  <path class="Anabar" d="M530.1767 231.6779L527.2706 4 804.4631 129.0719 530.1767 231.6779Z" />
  <path class="Anetan" d="M401.3045 52.3969L527.2706 4 530.1767 231.6779 401.3045 52.3969Z" />
  <path class="Anibare" d="M514.6405 336.5193L530.1767 231.6779 657.9311 307.2352 834.6414 349.82 848.9481 454.7732 765.2315 714.6411 634.6827 696.3107 472.0557 655.626 483.0092 579.1745 489.492 533.6836 493.9628 496.5756 501.2279 435.6603 506.9283 388.4928 514.6405 336.5193Z" />
  <path class="Baiti" d="M300.934 90.958L514.6405 336.5193 506.9283 388.4928 501.2279 435.6603 184.2449 135.89 300.934 90.958Z" />
  <path class="Boe" d="M83.7626 773.8799L181.7859 742.6957 217.7762 804.1699 187.598 829.7655 155.855 948.69 83.7626 773.8799Z" />
  <path class="Buada" d="M222.3589 504.6231L355.9254 539.4957 483.0092 579.1745 472.0557 655.626 303.7283 731.0715 217.7762 804.1699 181.7859 742.6957 152.7254 644.0018 164.3496 562.7441 222.3589 504.6231Z" />
  <path class="Denigomodu" d="M55.9316 362.7855L222.3589 504.6231 164.3496 562.7441 1.0519 573.2506 55.9316 362.7855Z" />
  <path class="Ewa" d="M401.3045 52.3969L530.1767 231.6779 514.6405 336.5193 300.934 90.958 401.3045 52.3969Z" />
  <path class="Ijuw" d="M834.6414 349.82L657.9311 307.2352 530.1767 231.6779 804.4631 129.0719 834.6414 349.82Z" />
  <path class="Meneng" d="M425.2235 1000.44L303.7283 731.0715 472.0557 655.626 634.6827 696.3107 765.2315 714.6411 734.4944 810.0937 527.2706 1020 425.2235 1000.44Z" />
  <path class="Nibok" d="M107.3463 165.3976L493.9628 496.5756 489.492 533.6836 483.0092 579.1745 355.9254 539.4957 222.3589 504.6231 55.9316 362.7855 107.3463 165.3976Z" />
  <path class="Uaboe" d="M184.2449 135.89L501.2279 435.6603 493.9628 496.5756 107.3463 165.3976 184.2449 135.89Z" />
  <path class="Yaren" d="M155.855 948.69L187.598 829.7655 217.7762 804.1699 303.7283 731.0715 425.2235 1000.44 155.855 948.69Z" />
</svg>