<?xml version="1.0" encoding="utf-8"?>
<svg xmlns="http://www.w3.org/2000/svg" viewBox="0 0 1021 941" style="stroke-width:0.25px;stroke-linejoin:round;stroke:#444;fill:#ddd" fill-rule="evenodd">
  <path class="ZW" d="M6.2532 299.8254L7.1474 300.8314 9.4946 301.9491 13.5184 305.0787 16.0891 306.3081 17.3186 306.4199 21.3424 306.3081 25.7014 307.8729 27.0427 308.0965 36.8785 308.0965 37.5492 308.32 38.6669 308.9906 39.5611 309.1024 40.2317 308.8789 41.4612 307.6494 42.1318 307.3141 50.8499 305.6375 57.7798 302.5079 60.9094 302.1726 62.5859 303.2903 64.2625 304.7433 69.0686 305.9728 71.9747 307.4259 74.5454 309.1024 75.6631 310.5554 76.8926 312.6791 82.8165 315.2498 84.6048 317.597 82.4812 318.2677 82.3694 320.2795 83.2636 322.515 84.6048 324.0798 92.5406 327.7682 98.0174 327.9917 99.5822 327.7682 106.7355 324.0798 107.6297 324.9739 108.4121 323.2974 110.424 322.8503 112.8829 322.8503 114.6713 322.2914 114.7831 321.7326 114.5595 320.056 114.6713 319.4971 115.4537 319.1618 117.6891 318.603 119.9245 317.3735 122.9424 316.8146 124.0601 316.144 128.7545 312.5673 129.8722 311.8967 131.1017 312.4556 131.9958 313.5733 132.6664 314.8028 133.4488 315.6969 134.5666 316.144 140.6022 316.8146 141.8317 317.3735 142.8376 318.1559 143.62 318.9383 144.626 319.1618 149.4321 318.4912 155.356 319.6089 165.4154 325.0857 170.7804 326.874 174.2453 327.4329 176.369 328.3271 178.1573 329.7801 180.1692 332.0155 181.9575 333.5803 183.9694 334.698 191.3463 337.0452 193.2464 337.3805 194.8112 336.9334 198.4997 333.4685 200.1762 332.4626 202.2999 331.9037 205.4295 331.5684 217.7243 325.8681 220.7421 326.874 225.5483 323.7444 226.8895 323.1856 233.037 322.8503 234.9371 322.2914 238.5138 320.3913 242.4257 316.5911 247.2319 311.8967 251.591 306.4199 251.2557 303.2903 251.1439 299.8254 251.2557 298.4842 252.5969 296.4723 287.0224 260.3702 300.3232 248.1871 307.253 241.1455 310.7179 234.3275 313.4004 223.4857 315.5241 218.7913 333.1839 191.9662 338.3254 186.2659 345.0317 182.2421 365.0387 173.524 376.8865 168.3825 389.7402 157.6525 398.4583 151.9521 445.6257 133.2864 451.7732 132.1686 455.4616 132.1686 457.2499 131.8333 458.3677 130.8274 460.9384 128.3684 462.0561 126.0212 467.1976 122.1092 468.8741 119.9856 469.7683 115.0677 470.3272 113.9499 473.4568 108.8085 473.4568 105.6789 471.2213 100.0903 470.7743 97.7431 471.2213 94.8371 474.3509 87.5719 472.1155 83.66 472.7861 78.2949 474.4627 72.7064 475.2451 68.1238 474.9098 67.4531 474.2392 66.6707 473.6803 65.6648 473.4568 64.4353 473.7921 62.9823 475.5804 60.188 476.0275 59.2938 478.8218 55.7172 483.1809 51.3581 485.081 50.5757 485.6398 50.2404 488.4341 49.7933 494.358 49.6815 497.4876 49.0109 499.1641 47.4461 501.8466 42.1928 503.1879 40.7398 505.1998 38.8397 507.7705 37.2749 510.453 36.6043 511.5707 35.9337 516.1534 31.0157 544.8785 17.715 546.7787 17.2679 558.0675 16.2619 560.303 14.8089 565.1091 10.6734 568.2387 9.7792 571.033 10.2263 573.492 10.8969 576.1745 11.344 579.3041 10.8969 586.7927 8.3262 592.3813 7.432 597.7463 4.973 600.7641 4.3024 606.4645 4.8613 617.6416 7.8791 623.2301 8.5497 628.3716 7.7673 633.5131 6.3143 638.7663 5.5319 643.9078 6.6496 647.2609 8.885 648.8257 9.4439 650.8376 8.9968 651.8436 8.3262 653.8554 6.6496 654.9732 6.2025 658.2145 6.6496 660.3382 7.5438 664.4737 9.3321 668.1622 9.2204 673.3036 7.2085 673.5272 18.0503 673.7507 30.904 673.9743 47.1108 674.1978 56.4996 688.7281 56.3878 698.0051 56.276 719.2416 56.1642 733.213 56.0525 739.0251 57.282 744.2783 60.9704 746.2902 63.2058 748.1903 64.6589 750.4257 64.9942 753.3318 63.7647 754.7848 62.4234 757.2438 59.6292 759.1439 58.735 760.2616 58.9585 761.2675 59.7409 762.2735 59.8527 763.2794 57.9526 766.5208 55.9407 772.3329 56.3878 785.5219 59.5174 787.9809 60.4116 790.1045 61.9763 791.8928 64.3235 794.3518 68.9062 796.0284 70.6945 798.4873 72.1475 799.8286 73.0417 800.3875 74.2712 800.8345 75.5007 801.6169 76.3948 802.064 76.5066 803.07 76.2831 803.6288 76.1713 804.2994 76.6184 804.1877 77.1772 804.0759 77.8479 804.2994 78.2949 806.8702 78.6303 809.6645 78.6303 812.2352 78.9656 814.1353 80.4186 819.165 82.8776 840.8486 84.3306 844.09 85.7836 847.6667 88.6897 855.4906 97.4078 857.9496 99.5315 863.4264 102.4375 864.9912 103.667 866.1089 106.126 866.7795 111.2674 867.8972 113.2793 869.9091 114.2853 883.4334 116.5207 909.1408 115.8501 919.312 117.4149 932.7245 122.7799 953.2904 131.1627 968.8266 137.4219 970.3914 138.8749 970.9503 140.775 971.062 143.9046 972.4033 149.2696 975.7564 151.9521 976.5388 152.1757 976.6506 152.2875 977.7683 151.5051 979.5567 150.7227 981.5685 150.3873 985.5923 150.7227 993.5281 152.511 997.6636 152.7345 999.7872 152.1757 1003.6992 149.7167 1005.8229 148.7108 1007.3877 148.599 1006.4935 152.511 1002.8051 166.7059 1000.5696 171.065 998.5578 173.8593 989.2807 182.9128 989.3925 183.8069 996.7694 196.9959 1002.2462 206.6083 1005.4876 214.4322 1007.2759 222.8151 1007.4994 227.9565 1007.4994 229.2978 1008.0583 232.3156 1009.3996 234.9981 1010.5173 235.8923 1013.4233 237.5689 1014.3175 238.7983 1014.4293 240.922 1013.6469 243.0457 1012.9762 243.9398 1011.1879 246.8459 1006.0464 256.7935 1005.264 257.9112 1004.1463 258.5818 1003.2521 259.5878 1003.2521 261.0408 1004.5934 265.6234 1005.264 266.7411 1007.4994 268.5295 1012.3056 270.7649 1014.0939 273.2239 1014.6528 276.0182 1014.2057 278.5889 1011.9703 283.7304 1011.5232 288.8718 1011.8585 294.9075 1011.4114 299.8254 1008.0583 302.0608 1005.9347 303.0668 1004.4816 305.414 1003.6992 308.2083 1003.2521 310.8908 1003.4757 313.5733 1005.0405 317.3735 1005.264 319.8325 1004.8169 321.6208 1003.6992 322.515 1002.6933 323.1856 1002.0227 324.3033 1002.2462 325.5328 1003.811 327.4329 1003.6992 328.6624 1003.0286 331.3449 1003.3639 334.3627 1007.9465 348.4459 1008.2818 353.0285 1008.2818 354.0344 1007.0524 356.9405 1006.0464 358.7288 1005.264 359.8465 1005.0405 360.9642 1005.5993 362.9761 1007.6112 365.8822 1013.6469 370.8001 1015.9941 373.4826 1017 376.0534 1016.4411 377.6182 1012.6409 380.4124 1009.9584 384.4362 1009.6231 384.3244 1009.7349 385.6657 1011.4114 387.6776 1011.8585 389.0188 1011.0761 391.8131 1008.7289 393.6014 1005.8229 394.9427 1003.3639 396.5075 1001.0167 397.737 998.5578 398.4076 996.3223 399.4135 994.7575 401.2019 994.4222 403.5491 994.8693 406.3433 996.5459 411.2613 1000.3461 419.0853 1001.352 422.7737 1001.1285 427.3563 1000.2343 431.0448 998.7813 433.9508 996.5459 435.7392 993.1927 436.0745 987.8277 435.6274 983.9157 436.298 971.3974 442.1101 971.1738 443.3396 972.068 450.8283 972.9622 452.8402 974.527 453.8461 973.1857 454.9638 971.5091 455.858 970.2796 457.0875 970.0561 458.764 971.062 461.7818 971.2856 463.3466 971.062 465.0232 971.3974 466.9233 972.4033 467.9293 973.8563 468.4881 975.6447 468.5999 983.6922 467.3704 985.9276 467.5939 987.3806 468.1528 988.163 468.8234 988.4983 469.7176 988.8337 471.3942 989.3925 473.0707 990.5102 474.0767 991.7397 475.0826 992.7457 476.4239 993.6398 481.1183 989.8396 498.2193 989.7278 501.5724 989.2807 504.0314 988.163 506.3785 986.2629 509.3964 981.4568 514.8732 981.1215 516.2144 981.4568 520.3499 980.5626 525.9385 980.7861 528.7328 982.1274 530.4094 984.5864 530.5211 986.9336 530.1858 988.8337 530.8564 989.7278 533.8743 989.7278 536.3332 988.8337 546.2809 988.8337 547.6221 989.169 548.9634 989.3925 550.7517 988.8337 552.093 988.0513 553.2107 987.6042 554.6637 988.0513 557.6815 989.5043 559.2463 991.8515 559.8052 994.8693 559.9169 997.7754 559.1345 1001.6873 555.1108 1004.1463 554.3284 1006.3817 555.5579 1006.6053 558.3521 1005.4876 563.7172 1006.6053 566.1761 1008.7289 568.4116 1011.5232 570.1999 1014.4293 571.3176 1015.7705 572.8824 1015.3234 575.5649 1014.4293 578.8063 1014.3175 584.5066 1011.7468 592.5541 1011.2997 602.8371 1012.0821 606.0784 1012.4174 607.0844 1005.4876 606.8608 1003.6992 608.4256 1002.9168 612.6729 1001.9109 614.6848 999.899 615.2437 997.7754 615.6908 996.5459 616.9202 995.6517 623.6265 994.9811 625.8619 993.1927 629.1033 992.9692 630.4446 993.081 631.4505 993.9751 633.2388 994.0869 634.3565 993.081 638.6039 992.4103 640.6157 991.4044 642.4041 985.5923 649.5574 977.2095 660.0639 973.0739 667.9997 968.8266 676.3825 965.5853 679.9592 959.9967 680.8534 953.8493 680.1827 948.2607 680.8534 944.1252 686.2184 942.7839 692.1422 942.5604 697.8426 944.4605 712.7081 946.2488 727.2384 945.3547 732.4916 942.3369 738.6391 935.7424 747.0219 925.7947 759.9873 926.4653 761.2168 928.3655 762.4463 929.4832 764.0111 930.1538 764.1229 930.7127 764.1229 931.048 764.3464 931.048 765.3524 930.6009 766.2465 930.042 766.9172 929.9303 767.476 939.319 783.7946 939.5426 784.3535 939.6543 785.0241 934.6246 781.7827 930.042 787.036 923.7828 794.0776 916.9648 801.678 910.1468 809.1667 903.3287 816.7671 896.5107 824.3675 889.6926 831.968 882.8746 839.5684 876.0565 847.1689 869.3503 854.7693 862.5322 862.3697 855.7142 870.082 848.8961 877.6824 842.0781 885.2828 835.2601 892.8833 828.442 900.4837 821.624 908.1959 814.8059 915.7964 808.0997 923.285 799.6051 929.3207 789.2103 936.6976 786.1925 932.2267 784.963 931.109 783.6218 931.109 781.6099 932.0032 780.4922 932.115 779.4862 931.6679 777.4744 930.4384 776.4684 930.1031 775.5743 929.4325 773.0035 926.1911 771.5505 925.2969 769.6504 925.6322 765.2913 927.7559 764.2854 927.9794 763.1677 928.203 760.8205 927.7559 756.4614 925.744 742.2664 922.3909 734.4425 921.6085 730.6422 920.4908 726.3949 922.2791 711.9765 923.3968 709.4057 924.1792 705.9408 926.7499 704.0407 927.3088 703.1465 927.0853 701.1347 925.6322 699.9052 925.2969 696.2167 925.4087 687.7221 924.4028 685.2631 924.4028 682.8042 925.1851 677.8862 927.4206 675.4273 928.203 670.174 929.0971 665.3679 929.3207 660.897 928.203 656.8733 925.2969 654.9732 923.7321 653.073 922.5026 650.6141 921.7202 647.4845 921.4967 641.6724 922.2791 639.437 922.1673 636.3074 920.4908 632.6189 917.8083 630.7188 917.0259 626.8068 916.5788 626.4715 916.1317 626.3597 915.4611 623.9008 912.7785 622.5595 912.1079 619.7652 911.4373 618.424 910.9902 614.9591 908.7548 613.059 908.1959 608.3646 907.7488 605.1232 906.0723 600.7641 905.1781 593.1637 900.0366 590.593 899.2542 581.763 899.7013 580.1982 900.3719 577.851 898.6954 575.2803 899.0307 570.4741 901.2661 566.0033 900.819 563.5443 901.3779 562.4266 903.7251 561.0854 905.1781 557.844 904.8428 551.3613 903.1662 548.567 903.8369 543.8726 906.5194 541.0783 907.9724 539.1782 907.8606 538.284 907.7488 537.3899 907.0782 527.554 898.4718 526.6598 897.1306 525.6539 894.4481 524.9833 893.1068 523.7538 891.542 523.0832 891.0949 510.7883 891.542 505.9822 890.6479 501.176 888.0771 497.264 883.9416 494.8051 878.5766 493.7991 872.6527 494.358 866.7288 495.6992 863.711 497.8229 860.3579 499.4994 857.0047 499.1641 854.3222 497.0405 852.6457 491.7872 850.9691 489.44 849.4043 485.7516 848.5101 477.8158 848.063 473.9039 846.9453 454.9028 838.1154 448.8671 836.2153 443.8374 832.1915 442.0491 831.6327 438.2488 831.1856 434.0015 830.0679 432.6603 830.4032 431.2073 831.0738 426.7364 832.1915 424.6128 832.9739 422.4891 833.421 419.6948 832.7504 409.0766 827.2736 403.9351 825.4853 399.1289 824.5911 383.5927 824.3675 373.8686 822.3557 366.38 821.9086 364.2563 821.238 362.468 820.0085 360.9032 818.3319 360.1208 816.9906 358.8913 814.1964 358.2207 813.0787 357.3265 812.5198 356.6559 812.6316 355.9853 812.5198 355.5382 811.1785 356.2088 809.3902 355.6499 808.496 354.7558 808.2725 354.3087 807.9372 354.5322 806.5959 355.5382 804.9194 355.9853 803.9134 355.6499 802.4604 351.738 794.4129 349.6143 792.1774 348.8319 790.8362 348.6084 789.8303 348.7201 787.7066 348.3848 786.4771 347.1553 784.577 342.4609 778.8767 339.2196 773.6234 335.3076 768.8173 326.2541 762.2228 324.354 760.0991 319.8832 753.9517 318.7655 751.2692 318.8772 748.8102 320.442 741.4333 320.5538 738.5273 319.5479 730.7033 319.5479 729.362 319.8832 726.2325 319.8832 724.6677 319.9949 722.7675 320.7773 721.5381 321.6715 720.4204 322.4539 718.8556 324.354 707.5667 324.1305 701.9781 320.8891 690.9128 321.895 685.9948 323.4598 681.0769 323.9069 675.6001 322.901 673.1411 321.0009 671.3528 318.7655 670.4586 313.5122 670.3469 308.9296 668.2232 301.5527 669.5645 291.158 668.2232 276.516 668.2232 271.9333 668.7821 267.1272 671.3528 269.1391 651.3458 266.7919 635.1389 260.0856 617.9262 258.409 615.579 256.0618 614.126 253.3793 613.2318 250.6968 612.7847 249.0202 612.7847 247.7908 612.8965 246.4495 612.7847 244.8847 612.2259 243.4317 611.1081 241.1963 607.8668 240.0785 606.5255 235.7195 604.0666 231.4722 603.6195 227.1131 603.7312 222.5305 602.8371 207.7767 595.3484 202.9705 594.3425 199.8409 594.3425 197.2702 593.7836 195.0348 592.6659 193.0229 590.654 191.2345 588.0833 190.3404 587.0773 189.8933 586.6303 187.9932 585.5125 182.0693 583.836 179.7221 582.7183 177.9338 580.9299 177.0396 577.8003 175.9219 575.2296 173.6865 572.8824 168.4332 569.4175 165.9743 568.4116 160.8328 567.2938 158.3738 566.2879 155.9149 563.9407 152.3382 558.3521 149.4321 556.7873 145.5201 556.1167 144.5142 555.6696 142.8376 554.5519 142.9494 554.3284 143.7318 553.8813 144.7377 552.2047 145.6319 549.2987 145.2966 548.181 144.0671 546.3926 143.0612 545.2749 141.7199 544.3807 140.3787 543.7101 133.3371 543.5983 127.6367 542.0336 122.4953 538.7922 119.2539 533.8743 106.8473 498.4428 103.8295 492.4072 99.9175 487.1539 96.6761 481.6771 95.6702 479.1064 95.2231 475.7532 95.5584 472.959 97.6821 467.9293 98.1292 465.0232 98.1292 464.9114 94.6642 454.0696 78.3457 439.4276 73.6513 429.0329 72.8689 418.9735 71.4158 414.1673 68.1745 411.2613 63.1448 408.6905 59.4563 405.3374 53.3089 396.5075 51.5206 394.6074 47.0497 391.5895 38.5551 382.5361 36.8785 379.7418 36.2079 377.9535 34.9784 372.1414 33.9725 369.4589 29.7252 362.529 25.5897 352.0226 22.7954 346.9928 18.8834 343.7515 14.4125 341.1807 10.9476 337.2688 5.5826 328.1035 1.7824 318.603 1 315.3616 1 311.5614 6.2532 299.8254Z" />
</svg>